<?xml version="1.0" encoding="UTF-8" standalone="no"?>
<svg
   xmlns:dc="http://purl.org/dc/elements/1.1/"
   xmlns:cc="http://creativecommons.org/ns#"
   xmlns:rdf="http://www.w3.org/1999/02/22-rdf-syntax-ns#"
   xmlns:svg="http://www.w3.org/2000/svg"
   xmlns="http://www.w3.org/2000/svg"
   xmlns:xlink="http://www.w3.org/1999/xlink"
   width="600"
   height="660"
   version="1.1">
  <title>Aegon II Targaryen</title>
  <metadata>
    <rdf:RDF>
      <cc:Work rdf:about="">
        <dc:format>image/svg+xml</dc:format>
        <dc:type rdf:resource="http://purl.org/dc/dcmitype/StillImage" />
        <dc:title>Aegon II Targaryen</dc:title>
        <dc:date>19 October 2022</dc:date>
        <dc:creator>
          <cc:Agent>
            <dc:title>Abjiklam (abjiklam@gmail.com)</dc:title>
          </cc:Agent>
        </dc:creator>
        <dc:description>
          The sigil of King Aegon II Targaryen.
          A three-headed dragon breathing flame, gold on black.
        </dc:description>
        <cc:license rdf:resource="http://creativecommons.org/licenses/by-nc-sa/4.0/" />
      </cc:Work>
      <cc:License rdf:about="http://creativecommons.org/licenses/by-nc-sa/4.0/">
        <cc:permits rdf:resource="http://creativecommons.org/ns#Reproduction" />
        <cc:permits rdf:resource="http://creativecommons.org/ns#Distribution" />
        <cc:requires rdf:resource="http://creativecommons.org/ns#Notice" />
        <cc:requires rdf:resource="http://creativecommons.org/ns#Attribution" />
        <cc:prohibits rdf:resource="http://creativecommons.org/ns#CommercialUse" />
        <cc:permits rdf:resource="http://creativecommons.org/ns#DerivativeWorks" />
        <cc:requires rdf:resource="http://creativecommons.org/ns#ShareAlike" />
      </cc:License>
    </rdf:RDF>
  </metadata>
  <defs>
    <radialGradient id="rg" gradientUnits="userSpaceOnUse" cx="220" cy="220" r="405">
      <stop style="stop-color:#fff;stop-opacity:.3" offset="0"/>
      <stop style="stop-color:#fff;stop-opacity:.2" offset=".2"/>
      <stop style="stop-color:#666;stop-opacity:.1" offset=".6"/>
      <stop style="stop-color:#000;stop-opacity:.13" offset="1"/>
    </radialGradient>
    <clipPath id="clip-shield">
      <path id="shield" d="m 1.5,1.5 v 258.9 c 0,286 298.5,398 298.5,398 0,0 298.5,-112 298.5,-398 V 1.5 z"/>
    </clipPath>
  </defs>
  <use id="background" xlink:href="#shield" style="fill:#000000;"/>
  <g id="dragon" style="fill:#ffcc00;stroke:#2b2b00;stroke-width:1;stroke-linecap:round;stroke-linejoin:round;">
    <g id="leg_right">
      <path style="fill:#ffffff" d="m 166.1,258.5 c 9.1,-3.6 15.5,0 17,8.2 0.4,2.1 -2.4,4.3 -4,4.7 -1.8,0.5 -5.2,-0.2 -5.1,-2.1 0.2,-4.7 -0.4,-9.1 -7.9,-10.8 z m -20.4,7.8 c 7.8,-6.1 14.9,-4.4 18.7,3.1 1,1.9 -1.1,4.7 -2.5,5.5 -1.7,1 -5.1,1.3 -5.6,-0.5 -1.1,-4.5 -2.9,-8.6 -10.6,-8.1 z m 15.1,86.5 c 7.9,5.9 14.9,4.1 18.6,-3.5 0.9,-1.9 -1.2,-4.7 -2.7,-5.5 -1.6,-1 -5.1,-1.2 -5.5,0.6 -1,4.6 -2.7,8.7 -10.4,8.4 z m -29.5,-61.9 c 1.8,-9.7 8.2,-13.1 16,-10.1 2,0.8 2.3,4.3 1.8,5.9 -0.5,1.8 -2.9,4.3 -4.5,3.2 -3.8,-2.6 -7.9,-4.4 -13.3,1 z m 126.9,101.8 c 9.2,3.4 15.5,-0.4 16.9,-8.7 0.3,-2.1 -2.5,-4.2 -4.2,-4.5 -1.8,-0.5 -5.2,0.3 -5.1,2.2 0.3,4.6 -0.1,9.1 -7.6,11 z"/>
      <path d="m 320.9,275.4 c -30.5,6.1 -58.1,42.9 -53.1,71.3 -2.7,0.6 -5.7,2 -7.4,4.6 -4.6,-1.6 -9.6,0 -15.2,-3.1 -6.8,-3.7 -16,-7.3 -29.8,-17.2 -15.2,-10.9 -29.6,-24.9 -28.4,-60.7 0,-1 -0.7,-2.5 -1.7,-2.4 -4,0.4 -7.3,1.3 -10.9,3.3 -1.3,0.7 -2.9,2.8 -2.3,4.2 4.4,9.8 6.4,14.5 10.7,24.4 -8.6,-7.1 -16.9,16.6 10.3,28.8 1.2,0.4 1.4,1.2 1.9,1.8 5,6.1 9.7,11.7 12.3,14.2 9.3,9.1 35,31.5 54.9,36.7 0.1,1 -0.3,2.2 1.5,3 5.7,2.5 13.2,2.9 15.1,1.2 0.4,-0.4 1,-0.5 2,-0.3 1.3,0.2 3.4,-1.5 3.8,-2.7 15.7,-48.1 54.3,-3.2 77.1,-27.6"/>
      <path d="m 185.2,301.4 c -4.5,-11.6 -11.3,-19.9 -13.9,-32.8 -0.2,-1.4 -2.3,-2.7 -3.4,-2 -4.4,2.7 -7.6,5.7 -10.7,9.8 -1,1.2 -1.8,3.4 -0.6,4.4 9.9,8.1 15.3,15 22.2,23.8"/>
      <path d="m 178.9,303.4 c -6.9,-9.5 -12.8,-17.2 -26.3,-26.1 -1,-0.7 -2.5,0 -3.2,1.1 -2.6,3.9 -4.5,9 -5.4,13.5 -0.3,1.6 -0.4,3.1 2,3.2 23.9,1.4 35.4,30.7 22.6,46.7 -0.9,1.1 -1.8,2.6 0,3.8 4.1,2.7 9,4.4 13.8,4.1 1.1,0 2.4,-0.9 1.8,-2.9 -3.7,-12.3 1.6,-13.2 3.3,-15.5 0.9,-1.3 3.4,-1.2 5.6,-2.7"/>
      <path style="fill:none" d="m 262.2,381.3 c 1.3,0.3 2.7,0.6 4,0.8 m -83.4,-66.3 c -2.8,6.9 3.6,11.1 8.7,12.3 0.7,0.1 1.2,0.1 1.6,0.5 m 67.3,22.7 c -0.6,0.9 -1.1,2 -1.3,3.3 m 8.7,-7.9 c 0.4,2.3 1,4.4 1.8,6.5 m 102,1.8 c -2.4,4 -8.5,8.3 -17.9,5.6 m -32.8,-93.2 c -4.6,0.1 -11.3,3.3 -13.6,12.8"/>
    </g>
    <g id="wing_right">
      <path style="fill:#ffffff" d="m 268.8,213.2 c -1.4,-9.7 3.5,-15 12,-14.6 2.1,0.1 3.5,3.3 3.5,5 0.1,1.9 -1.4,5 -3.2,4.5 -4.5,-1.3 -8.9,-1.7 -12.3,5.1 z"/>
      <path d="m 311.9,280.2 c 5.4,-19.8 2.4,-44.2 25.4,-27.7 -0.3,-5.7 2.3,-12 9.5,-13.7 7.1,-1.7 15.4,2.1 23.6,9.1 -0.5,-17.7 12.2,-23 25.2,-21.8 11.5,1.1 28.9,8 43,26.8 -0.6,-12.1 13.4,-18.9 24.4,-8.2 8.8,8.7 14.3,26.8 15.2,46.1 7.6,-8.4 28,-2.5 27.5,22 -0.2,11.7 -2.3,25.9 -10.1,42 23.1,1 18.2,26.1 9.3,57.5 -10.7,38.2 -42,69.2 -47.8,80.4 14.9,-11.9 35.5,-36.8 44.9,-54.9 24.9,-48.2 45.2,-117.6 -11.4,-201.4 -28.4,-42.1 -130,-91.3 -210.6,-39.7 -3,2 -0.4,13.1 2.7,12.5 3.9,-0.7 10.4,-0.1 12.4,6.6 7,22.6 0,43.9 -14,55.4"/>
      <path style="fill:#2b2b00;stroke:none" d="m 520.6,331.8 c 2.5,31.7 -4.4,58.4 -7,68 -3.4,12.5 -5.1,16.5 -5.1,16.5 0,0 1.9,-3.9 5.5,-16.3 2.9,-9.8 10.1,-36.3 7.6,-68.3 -1.9,-24.4 -8.5,-44.9 -15.7,-61.3 0,0 0,0 0,0 -6.5,-15.1 -14.7,-27.8 -23.5,-38.1 -6.1,-7.3 -12.6,-13.4 -19,-18.6 -2.2,-1.7 -4.3,-3.3 -6.4,-4.9 -1.7,-1.2 -3.3,-2.4 -5.1,-3.3 -0.3,-0.1 -0.5,-0.3 -0.8,-0.3 -0.1,-0.1 -0.4,-0.2 -0.7,0 -0.2,0.1 -0.3,0.3 -0.3,0.4 0,0.2 0.1,0.3 0.1,0.4 0.1,0.3 0.3,0.5 0.4,0.7 0.7,1 1.5,1.8 2.2,2.6 1.5,1.5 3,2.9 4.4,4.3 9,8.7 15.2,14.7 20.9,21.9 9,11.2 15.5,23.2 17.8,27.6 3.1,5.8 4.3,8.1 4.3,8.1 0,0 -1.1,-2.4 -4.1,-8.2 -2.3,-4.5 -8.6,-16.5 -17.5,-27.9 -5.7,-7.2 -11.9,-13.4 -20.8,-22.1 -1.5,-1.3 -2.9,-2.8 -4.4,-4.3 -0.7,-0.8 -1.5,-1.6 -2.1,-2.5 -0.1,-0.2 -0.3,-0.3 -0.3,-0.5 0,-0.1 0,-0.1 0,0 0,0 -0.1,0.1 -0.2,0.2 -0.1,0 -0.1,0.1 0.1,0.1 0.2,0 0.4,0.1 0.6,0.2 1.7,0.9 3.3,2.1 4.9,3.3 2.2,1.5 4.3,3.2 6.4,4.9 6.3,5.2 12.8,11.3 18.9,18.5 8.6,10.3 16.8,22.9 23.3,37.9 0,0 0,0 0,0 7.1,16.3 13.7,36.7 15.6,61 z m -136.9,-145.2 c 4.5,1.5 8.8,3.4 12.8,5.1 6.6,3 12.7,6 18.3,8.9 25.5,13.4 38.4,25.5 38.4,25.5 0,0 -12.5,-12.5 -38,-26.3 -5.6,-2.9 -11.7,-6 -18.3,-9 -4,-1.8 -8.4,-3.6 -12.8,-5.2 0,0 0,0 0,0 -11.2,-3.9 -12.4,-3.7 -12.2,-4.8 0,0 0,-0.1 0.4,-0.2 4,-1.1 24.4,3.3 37.1,9.3 0,0 0,0 0,0 17.4,8 31.8,16.8 44,26.5 0,0 0,0 0,0 10.3,8 18.3,16.1 24.6,23.8 15.4,18.6 19.9,32.2 19.9,32.2 0,0 -4.2,-13.7 -19.5,-32.6 -6.2,-7.7 -14.2,-15.9 -24.4,-24.1 0,0 0,0 0,0 -12.2,-9.7 -26.8,-18.6 -44.2,-26.8 0,0 0,0 0,0 -12.8,-5.9 -33.4,-10.5 -37.8,-9.2 -0.6,0.1 -1.1,0.4 -1.1,1 -0.3,2.1 1.7,2 12.8,5.9 0,0 0,0 0,0 z m -58.8,0.5 c 15.2,2.8 27.3,5.5 38.8,8.9 25.1,7.5 38.2,16.5 38.2,16.5 0,0 -12.8,-9.4 -38,-17.2 -11.4,-3.6 -23.6,-6.3 -38.9,-9.2 0,0 0,0 0,0 -2.2,-0.4 -3,-0.8 -3,-0.9 0,0 -0.1,0.3 -0.1,0.3 0,0 0,0 0.1,0 0,0 0,0 0,0 0,0 0,-0.1 0,-0.1 0,0 0,0 0.1,0 0.1,-0.1 0.3,-0.1 0.7,-0.2 0.8,-0.2 2,-0.4 3.7,-0.6 8.1,-0.6 24.9,-0.1 39.4,3.2 0,0 0,0 0,0 13.3,3.1 24.8,6.9 34.9,11.2 28.7,12 44.1,23.8 44.1,23.8 0,0 -15,-12.2 -43.7,-24.6 -10.2,-4.3 -21.8,-8.2 -35.1,-11.3 0,0 0,0 0,0 -14.6,-3.4 -31.5,-3.9 -39.7,-3.3 -3.3,0.3 -5.9,0.8 -5.4,2 0.3,0.7 1.6,1.1 3.9,1.5 0,0 0,0 0,0 z m -18.9,9.4 c 0.9,0.1 1.7,0.4 2.6,0.6 1.3,0.4 2.7,0.9 4,1.4 3.8,1.3 7.5,2.8 10.7,4.2 4.7,1.9 8.6,3.7 11.9,5.3 0,0 0,0 0,0 6.8,3.3 10.4,5.5 10.4,5.5 0,0 -3.5,-2.4 -10.2,-5.9 0,0 0,0 0,0 -3.2,-1.7 -7.1,-3.6 -11.8,-5.7 -3.2,-1.4 -6.9,-3 -10.7,-4.4 -1.3,-0.4 -2.6,-0.9 -4,-1.3 -0.9,-0.3 -1.8,-0.6 -2.7,-0.7 0,0 0,0 0,0 -2.1,-0.3 -3.5,-0.8 -3.8,-1.1 0,0 0,0 0,0 0,0 0,0 0,0 0,-0.1 0,0 0,0 0,0 0.1,-0.1 0.3,-0.2 1.3,-0.7 5.5,-1.5 14.1,-1.7 0,0 0,0 0,0 5.1,-0.2 10.3,0.4 15,1.1 7.1,1.1 13.8,2.5 19.8,3.9 8.2,1.9 15.2,3.9 21.1,5.9 0,0 0,0 0,0 12.4,4 19,7.3 19,7.3 0,0 -6.5,-3.5 -18.8,-7.8 0,0 0,0 0,0 -5.9,-2 -12.9,-4.2 -21.1,-6.2 -6,-1.5 -12.7,-3 -19.8,-4 -4.8,-0.7 -10,-1.4 -15.2,-1.2 0,0 0,0 0,0 -10.8,0.3 -15.2,1.3 -15.4,2.8 -0.2,1.2 2,1.8 4.6,2.2 0,0 0,0 0,0 z m -1.8,15.2 c 9.6,7 17.6,16.1 22,21.2 4.9,5.6 7.5,8.9 7.5,8.9 0,0 -2.4,-3.5 -7.1,-9.2 -4.3,-5.3 -12,-14.5 -21.8,-21.7 0,0 0,0 0,0 -6,-4.4 -9,-7.5 -10.7,-10.1 0,0 0,0 0,0 -0.1,-0.2 -0.2,-0.4 -0.2,-0.6 -0.1,-0.1 0,-0.2 0.1,-0.3 0.2,-0.5 1,-0.5 1.7,-0.7 1.4,-0.1 2.9,0 4.3,0.2 2.2,0.3 4.4,0.8 6.5,1.4 7.5,2 14.5,5 20.3,7.6 19.2,8.6 29.9,15.5 29.9,15.5 0,0 -10.5,-7.3 -29.6,-16.2 -5.7,-2.7 -12.8,-5.7 -20.3,-7.8 -2.1,-0.6 -4.4,-1.2 -6.7,-1.5 -1.4,-0.2 -3,-0.3 -4.5,-0.2 -0.8,0.1 -1.7,0.3 -2.4,1.1 -0.3,0.3 -0.4,0.6 -0.3,1 0,0.4 0.2,0.8 0.4,1.1 0,0 0,0 0,0 1.8,2.7 4.9,5.9 10.9,10.3 0,0 0,0 0,0 z m 1.1,22.1 c 0.5,16.3 -4.8,26.5 -4.8,26.5 0,0 6.3,-9.8 5.8,-26.5 0,0 0,0 0,0 -0.4,-10.8 -2.9,-14 -2.3,-15.2 0,0 0,0 0,0 0,0 0.1,-0.1 0.1,-0.1 0.1,0 0.3,0 0.6,0.1 0.7,0.2 1.5,0.6 2.2,1.1 2.6,1.6 5,3.7 7.1,5.5 3.2,2.7 5.9,5.4 8.1,7.5 0,0 0,0 0,0 4.4,4.4 6.7,7.1 6.7,7.1 0,0 -2.1,-2.9 -6.3,-7.4 0,0 0,0 0,0 -2.1,-2.3 -4.8,-5 -8,-7.9 -2,-1.8 -4.4,-3.9 -7,-5.6 -0.8,-0.5 -1.6,-1 -2.6,-1.3 -0.3,-0.1 -0.6,-0.1 -1,-0.1 -0.3,0.1 -0.6,0.3 -0.8,0.7 0,0 0,0 0,0 -0.9,1.7 1.8,4.9 2.2,15.6 0,0 0,0 0,0 z"/>
    </g>
    <g id="necks">
      <path d="m 313.5,58.12 c 1.5,0.29 4.4,0 6.6,-1.16 2.3,-1.2 4,-3.24 4,-3.24 0,0 -2.2,0.71 -3.8,0.19 -7.1,-2.41 -11.9,-5.31 -16.4,2.42 -1.1,2.02 -2.1,5.76 -0.9,5.91 2,0.24 4,0.59 6,1.05 1.4,0.35 1.3,-2.79 2.5,-4.09 0.6,-0.7 0.7,-1.31 2,-1.08 z m 16.7,8.17 c 1.3,0.84 4.1,1.68 6.6,1.37 2.6,-0.3 4.9,-1.62 4.9,-1.62 0,0 -2.4,-0.1 -3.6,-1.15 -3.9,-3.32 -6.9,-6.66 -10.9,-6.25 0,0 0,0 0,0 -1.6,0.17 -3.3,0.92 -5.2,2.51 -1.8,1.49 -3.9,4.68 -2.9,5.23 1,0.48 1.9,1.01 2.8,1.57 0.8,0.45 1.5,0.93 2.2,1.44 1.2,0.85 2.3,-2.07 3.9,-2.85 0.8,-0.41 1.1,-0.94 2.2,-0.25 z m 13,13.5 c 1,1.2 3.3,2.92 5.8,3.53 2.5,0.66 5.2,0.34 5.2,0.34 0,0 -2.2,-1.04 -3,-2.49 -1.8,-3.08 -3.2,-5.87 -5,-7.67 -2,-1.93 -4.7,-2.81 -9.1,-1.25 -2.2,0.77 -5.4,2.98 -4.6,3.9 1.4,1.51 2.7,3.1 4,4.74 0,0.1 0.1,0.16 0.2,0.21 0.9,0.61 2.7,-1.5 4.3,-1.76 0.9,-0.14 1.4,-0.53 2.2,0.45 z m 6.7,17.27 c 0.3,1.49 1.7,4.14 3.6,5.74 1.9,1.8 4.4,2.7 4.4,2.7 0,0 -1.4,-1.9 -1.5,-3.6 -0.1,-2.07 -0.1,-4.01 -0.3,-5.72 -0.5,-4.58 -2.1,-8.14 -8.5,-8.47 -2.4,-0.12 -6.1,0.8 -5.7,1.9 0.7,1.79 1.2,3.62 1.5,5.46 0.3,1.39 3.1,0.1 4.8,0.61 0.8,0.27 1.4,0.15 1.7,1.35 0,0 0,0 0,0 z m -1.9,18.44 c -0.3,1.2 -0.4,3.2 0,5.1 0.2,0.5 0.3,1.1 0.5,1.6 1,2.4 2.9,4.3 2.9,4.3 0,0 -0.5,-2.3 0.2,-3.8 0,-0.1 0.1,-0.2 0.1,-0.3 3.2,-6.8 6.1,-11.9 -1.5,-16.3 -2,-1.2 -5.8,-2.1 -5.9,-0.9 -0.2,1.8 -0.6,3.7 -1.2,5.5 -0.4,1.4 2.7,1.5 4,2.7 0.6,0.7 1.2,0.8 0.9,2.1 z m -9.5,16.1 c -0.9,1.3 -1.8,4 -1.5,6.5 0.3,2.6 1.6,4.9 1.6,4.9 0,0 0.1,-2.3 1.1,-3.5 4.8,-5.5 9.5,-8.5 4.5,-15.8 -1.3,-1.9 -4.3,-4.4 -4.9,-3.4 -1.1,1.7 -2.3,3.4 -3.6,5 -0.9,1.2 2,2.4 2.7,4 0.3,0.9 0.9,1.2 0.1,2.3 z m -13.5,13.1 c -1.2,1.2 -2.6,3.6 -2.7,6.2 -0.1,2.5 0.9,5 0.9,5 0,0 0.4,-2.2 1.6,-3.2 2,-1.7 3.9,-2.9 5.5,-4.2 2.5,-2.2 4,-4.9 2.1,-10.1 -0.8,-2.2 -2.9,-5.4 -3.9,-4.6 -1.5,1.4 -3.2,2.8 -4.8,4.1 -1.2,1 1.3,2.9 1.6,4.6 0,0 0,0 0,0 0.2,0.9 0.6,1.4 -0.3,2.2 z m -15.4,11.3 c -1.2,1 -2.8,3.4 -3,5.9 -0.3,2.5 0.6,5 0.6,5 0,0 0.4,-2.1 1.7,-3 5.5,-4 10.6,-4.7 8.8,-13.5 -0.4,-2.3 -2,-5.8 -3.2,-5 -1.8,1.2 -3.6,2.4 -5.5,3.7 -1.4,0.9 1,2.9 1.2,4.7 0.1,0.9 0.5,1.4 -0.6,2.2 z m -15.9,10.5 c -1.3,1 -2.9,3.4 -3,5.9 -0.3,2.6 0.7,5 0.7,5 0,0 0.4,-2.1 1.6,-3 4.5,-3.3 8.6,-4.1 9.2,-9.3 0.1,-1.1 0.1,-2.4 -0.2,-3.9 -0.3,-2.3 -1.7,-5.9 -2.9,-5.2 -0.7,0.4 -1.4,0.8 -2.1,1.3 -1.2,0.7 -2.4,1.5 -3.7,2.3 -1.5,0.8 0.9,3 1,4.7 0.1,1 0.5,1.4 -0.6,2.2 z m -15.5,11.2 c -0.5,0.4 -1,1.1 -1.5,2 -0.6,1.2 -1,2.7 -0.8,4.2 0.2,2.5 1.7,4.7 1.7,4.7 0,0 -0.2,-2.1 0.9,-3.1 0.6,-0.6 1.2,-1.1 1.8,-1.6 0,0 0,0 0,0 4,-3.2 7.2,-4.5 5.8,-12.1 -0.4,-2.3 -1.9,-5.9 -3.1,-5.1 -1.9,1.3 -3.9,2.6 -5.8,4 -1.4,1.1 1.1,3 1.4,4.7 0.1,1 0.5,1.4 -0.4,2.3 z m -13.2,14 c -0.6,0.9 -1,2.4 -0.9,4 0,0.9 0.2,1.8 0.6,2.6 1,2.3 3.1,3.9 3.1,3.9 0,0 -0.8,-2 -0.2,-3.2 0.2,-0.3 0.4,-0.6 0.6,-0.9 0,0 0,0 0,0 2.9,-5.2 6.2,-6 3.1,-14.1 -0.8,-2.1 -2.9,-5.5 -4,-4.4 -1.8,1.7 -3.5,3.6 -5.1,5.6 -1.2,1.4 1.8,2.6 2.5,4.2 0.4,0.9 0.9,1.1 0.3,2.3 z m -8.2,17.4 c -0.3,1.2 -0.2,3.1 0.5,4.9 0.2,0.5 0.5,1.1 0.9,1.6 1.5,2.1 3.9,3.2 3.9,3.2 0,0 -1.2,-1.8 -0.9,-3.2 0.1,-0.2 0.1,-0.3 0.1,-0.5 0,0 0,0 0,0 1.7,-6.4 4.8,-8.5 -0.8,-15.2 -1.5,-1.8 -4.6,-4.3 -5.3,-2.9 -1.1,2.2 -2.1,4.5 -3,6.8 -0.7,1.7 2.5,1.9 3.7,3.2 0.6,0.7 1.2,0.8 0.9,2.1 z m -4.1,18.8 c 0,1.6 0.8,3.9 2.4,5.4 0.2,0.2 0.4,0.3 0.6,0.5 2.1,1.5 4.7,1.7 4.7,1.7 0,0 -1.4,-1 -1.7,-2.3 0,-0.1 0,-0.2 -0.1,-0.3 -0.1,-2.6 0.7,-5 0.5,-7.7 -0.2,-2.2 -1.2,-4.3 -4.7,-7.1 -1.8,-1.4 -5.4,-3.2 -5.7,-1.7 -0.7,2.3 -1.2,4.8 -1.6,7.2 -0.3,1.9 2.8,1.4 4.2,2.4 0.8,0.6 1.4,0.6 1.4,1.9 z m 2.3,19.2 c 0.5,1.1 1.7,2.4 3.2,3.2 0.7,0.3 1.4,0.5 2.1,0.5 2.5,0.3 4.8,-0.9 4.8,-0.9 0,0 -1.9,-0.1 -2.6,-1.2 -0.1,-0.2 -0.2,-0.4 -0.3,-0.5 0,0 0,0 0,0 -1.3,-2.3 -1.6,-4.5 -2.5,-6.3 -1,-1.8 -2.7,-3.2 -6.8,-4.6 -2.2,-0.8 -6.1,-1.4 -6,0.2 0.2,2.6 0.6,5.2 1.2,7.8 0.5,2 3.2,0.2 4.9,0.6 1,0.2 1.5,0 2,1.2 z"/>
      <path d="m 218.6,282 c 4.9,-6.5 6.7,-14.6 -2.1,-22.6 3.6,-2.9 6,-7 5.5,-11.5 -0.3,-3.1 -1.5,-6.8 -4.4,-10.4 -0.1,-0.1 -0.2,-0.2 -0.3,-0.4 4,-2.5 7,-6.2 7.4,-10.7 0.2,-3.2 -0.8,-6.8 -3.6,-10.8 0.9,-0.4 1.7,-0.9 2.5,-1.4 2.7,-1.9 4.8,-4.6 5.7,-7.8 v 0 c 0.9,-3.3 0.5,-7.3 -1.8,-12.2 5.2,-1.7 9.4,-5.2 10.6,-10.5 0.6,-2.7 0.6,-6 0,-10 8.3,-0.9 14.9,-5 16,-16.9 1.7,0.3 3.4,0.4 5,0.4 6.1,-0.3 11.4,-3.8 13.2,-13.1 5.3,1.9 11.2,1.4 15,-3.3 1.5,-1.9 2.6,-4.4 3.3,-7.7 6.9,2.8 16.3,0.9 17,-10.9 0.8,0.2 1.6,0.4 2.4,0.5 l 0.1,0.1 v 0 c 3.3,0.3 6.6,-0.4 9,-2.7 2.2,-2.2 3.6,-6.1 1.9,-10.5 1.5,0.1 3,-0.1 4.3,-0.7 3.5,-1.3 5.4,-6 2.8,-9.69 v 0 c -0.9,-1.3 -2.4,-2.3 -4.6,-2.81 2.8,-2.66 3.3,-6.96 0.9,-10.34 -1.8,-2.52 -5.5,-3.91 -10.2,-2.43 0.3,-2.13 -0.1,-4.22 -1.2,-5.99 l -5.6,-13.37 22.2,11.08 10.4,25.35 -11.7,26.3 -43.1,28.8 -33.8,36.3 -11.2,36.2 5.4,51.4 z"/>
      <path d="m 248.6,312.5 c -25.7,-18.8 -23.8,-40 -24,-64.6 -0.2,-9.8 4.6,-32.7 7,-40.7 2.5,-8.1 5.4,-15.4 9,-22.2 5.5,-10.4 13.4,-18 21.4,-24 8.9,-6.7 18.1,-12.2 26.9,-17.4 8.9,-5.3 17.4,-10.2 24.9,-15.9 v 0 c 6.6,-5.2 12.5,-10.5 15.6,-16.6 v 0 c 2,-3.8 2.9,-8.1 2.7,-12.04 -0.2,-6.2 -3.2,-10.88 -5.6,-14.4 -5.5,-7.89 -16.4,-14.58 -26.8,-15.11 l 3.1,-14.04 c 17.4,1.22 29.4,9.06 39.3,21.3 4.5,5.67 7.6,12.59 8.7,20.1 1.1,7.99 -0.3,16.09 -3.8,23.19 -5,10.1 -12.5,17.9 -20.2,24.2 -8.5,7.1 -17.4,13 -26,18.6 -8.5,5.6 -16.9,11 -23.9,16.9 -11.7,10 -16.8,20.4 -20.6,33.9 -1.9,6.6 -3.1,13.3 -2.9,19.6 0.1,6.2 1.4,12.3 4.1,17.3 3.1,5.7 8.6,10.9 15.6,15"/>
      <path d="m 184.4,86.12 c 0.8,-0.1 2,-0.42 3.1,-0.98 1,-0.5 2,-1.18 2.9,-2.05 1.8,-1.84 2.7,-4.34 2.7,-4.34 0,0 -1.8,1.4 -3.4,1.36 -0.7,0 -1.4,0 -2,-0.1 0,0 0,0 0,0 -6.2,-0.28 -10.4,-0.97 -13.1,6.55 -0.8,2.18 -1.3,6.05 0.1,5.98 2.2,-0.13 4.4,-0.24 6.6,-0.28 1.6,0 0.7,-3.04 1.4,-4.6 0.5,-0.83 0.4,-1.45 1.7,-1.57 z m 18.7,2 c 0.5,0.1 1,0.1 1.6,0 1.5,-0.15 3.4,-0.66 5,-1.67 2.2,-1.38 3.7,-3.55 3.7,-3.55 0,0 -2.2,0.89 -3.8,0.48 -1.2,-0.3 -2.5,-0.68 -3.7,-0.98 0,0 0,0 0,0 -4.9,-1.26 -8.7,-2.16 -12.4,4.07 -1.2,1.98 -2.3,5.7 -1,5.88 2,0.29 4.1,0.67 6.2,1.11 1.6,0.33 1.4,-2.81 2.5,-4.16 0.6,-0.73 0.7,-1.33 1.9,-1.18 z m 17.4,6.78 c 1.4,0.72 4.2,1.33 6.7,0.86 2.5,-0.47 4.8,-1.9 4.8,-1.9 0,0 -2.4,0 -3.7,-0.96 -6,-4.41 -10,-8.65 -16.4,-2.42 -1.7,1.63 -3.6,4.98 -2.4,5.44 1.8,0.75 3.5,1.63 5.2,2.61 1.3,0.74 2.2,-2.27 3.6,-3.18 0.8,-0.49 1.1,-1.04 2.2,-0.45 z m 13.5,12.8 c 1,1.2 3.4,2.8 5.9,3.3 2.5,0.5 5.1,0 5.1,0 0,0 -2.2,-0.8 -3,-2.2 -1.3,-2.1 -2.3,-4 -3.5,-5.6 -2.3,-3.24 -5.2,-5.15 -10.7,-2.9 -2.2,0.9 -5.2,3.3 -4.3,4.1 1.4,1.4 2.6,2.9 3.8,4.4 0.9,1.2 2.8,-1.3 4.5,-1.6 0.6,-0.1 1,-0.3 1.5,-0.1 0,0 0,0 0,0 0.2,0 0.4,0.2 0.7,0.6 z m 8.2,16.8 c 0.5,1.5 2.3,3.8 4.6,5 2.2,1.2 4.9,1.4 4.9,1.4 0,0 -1.9,-1.4 -2.3,-3 -1.9,-7 -1.8,-12.6 -10.7,-12.5 -2.3,0.1 -6,1.2 -5.5,2.3 0.8,1.8 1.6,3.7 2.2,5.7 0.4,1.4 3.1,-0.3 4.8,0 0.9,0.2 1.5,-0.1 2,1.1 z m 3.3,18.6 c 0.2,1.6 1.5,4.2 3.5,5.7 2.1,1.6 4.7,2.2 4.7,2.2 0,0 -1.7,-1.6 -1.8,-3.2 -0.4,-4.8 0.3,-8.8 -2.2,-11.5 0,0 0,0 0,0 -1.1,-1.2 -2.7,-2.2 -5.3,-2.9 -2.3,-0.6 -6.1,-0.6 -5.9,0.7 0.1,1.2 0.3,2.4 0.4,3.6 0.1,0.9 0.2,1.8 0.2,2.7 0.2,1.6 3.1,0.5 4.7,1.2 0.9,0.4 1.5,0.3 1.7,1.5 z m 0.2,19 c 0,0.8 0.3,1.9 0.7,2.9 0.5,1.1 1.1,2.3 2,3.2 1.8,1.8 4.3,2.7 4.3,2.7 0,0 -1.4,-1.7 -1.3,-3.3 0.1,-0.7 0.1,-1.5 0.2,-2.1 0,0 0,0 0,0 0.6,-5.8 1.7,-10 -5.6,-13.2 -2.1,-1 -5.9,-1.6 -5.9,-0.3 -0.1,2.2 -0.1,4.3 -0.3,6.5 -0.1,1.6 3,0.9 4.5,1.8 0.8,0.5 1.4,0.5 1.4,1.8 z m -2,18.9 c -0.1,1.6 0.6,4.4 2.4,6.2 0.5,0.6 1.1,1 1.7,1.4 1.3,0.9 2.5,1.3 2.5,1.3 0,0 -0.3,-0.4 -0.7,-1.1 -0.3,-0.6 -0.6,-1.3 -0.5,-2.1 0.6,-6.6 3.5,-10.8 -4.1,-15.5 -2,-1.2 -5.7,-2.4 -5.9,-1 -0.3,2.2 -0.6,4.3 -1,6.6 -0.3,1.6 2.9,1.2 4.3,2.3 0.7,0.6 1.3,0.6 1.3,1.9 z m -1.9,19.1 c 0.1,1.7 1.1,4.3 3.1,5.8 2,1.5 4.7,2 4.7,2 0,0 -1.7,-1.4 -1.7,-2.9 -0.4,-6.6 2.5,-10.1 -5.3,-14.8 -2,-1.2 -5.7,-2.5 -5.9,-1.1 -0.3,2.4 -0.6,4.7 -0.8,7.1 -0.2,1.8 3,1.1 4.4,2.1 0.8,0.5 1.4,0.4 1.5,1.8 z m 1.2,19.1 c 0.4,1.7 1.9,4 4.2,5.1 2.3,1.2 4.9,1.1 4.9,1.1 0,0 -1.8,-1.1 -2.2,-2.5 -1.3,-5.1 -0.2,-8.6 -4,-11.5 -1,-0.7 -2.2,-1.4 -3.9,-2.1 -2.2,-0.8 -6,-1.5 -6,0 0,1 0.1,2 0.1,2.9 0.1,1.5 0.2,2.9 0.4,4.4 0.2,1.8 3.1,0.5 4.7,1.2 0.9,0.3 1.5,0.2 1.8,1.4 z m 4.7,18.7 c 0.4,1 1.4,2.2 2.7,3.2 0.7,0.5 1.4,0.8 2.2,0.8 2.4,0.3 4.7,-1.1 4.7,-1.1 0,0 -1.9,0.2 -2.3,-0.7 -0.1,-0.2 -0.2,-0.4 -0.3,-0.6 0,0 0,0 0,0 -2.1,-5.8 -1.3,-9.6 -9.7,-11.2 -2.3,-0.4 -6.2,-0.4 -5.9,1.1 0.5,2.3 1.1,4.6 1.7,6.9 0.5,1.8 3.2,0 4.9,0.4 0.9,0.2 1.5,-0.1 2,1.2 z m 11.8,15 c 1.5,0.9 4.3,1.3 6.6,0.3 2.3,-1 4,-3.1 4,-3.1 0,0 -2,0.8 -3.3,0.1 -3.2,-1.6 -5,-3.7 -7.3,-4.5 -1.9,-0.8 -3.8,-0.4 -7.6,0.6 -1,0.2 -2.7,0.8 -3.7,1.3 -1.1,0.6 -1.7,1.3 -1.2,2.1 1.6,2.1 3.3,3.8 4.9,5.1 0.4,0.3 0.7,0.5 1,0.8 1.5,1.3 2.7,-1.7 4.3,-2.4 0.9,-0.4 1.1,-1 2.3,-0.3 z m 17.3,8.6 c 0.9,0.2 2.3,0.3 3.7,-0.1 1,-0.2 1.9,-0.6 2.8,-1.2 2,-1.5 3.1,-3.9 3.1,-3.9 0,0 -1.7,1.2 -3.1,0.8 -0.5,-0.1 -0.9,-0.2 -1.4,-0.3 0,0 0,0 0,0 -5.5,-1.8 -7.7,-4.5 -14.3,0.7 -0.2,0.2 -0.5,0.4 -0.8,0.7 -1.6,1.5 -3.3,3.8 -2.2,4.4 0,0 0,0 0,0 2.2,1.2 4.4,2.2 6.6,3.2 1.7,0.8 2,-2.4 3.4,-3.5 0.7,-0.6 0.9,-1.2 2.2,-0.8 z m 18.9,3.6 c 1.6,-0.1 4.3,-1.1 5.9,-3 1.7,-2 2.3,-4.5 2.3,-4.5 0,0 -1.6,1.5 -3.1,1.5 -3.7,0 -6.6,-0.7 -9.2,-0.1 0,0 0,0 0,0 -1.7,0.6 -3.4,1.8 -5.9,5 -1.4,1.8 -3.2,5.3 -1.7,5.7 2.2,0.6 4.6,1 7,1.2 0.3,0 0.6,0 0.9,0.1 1.7,0.1 1.1,-3 2,-4.5 0.5,-0.8 0.4,-1.4 1.8,-1.4 z m 19.1,0.3 c 1.6,-0.1 4.2,-1.2 5.8,-3.2 1.6,-2 2.2,-4.6 2.2,-4.6 0,0 -1.6,1.6 -3.1,1.7 -6.7,0.3 -10.9,-2.1 -14.8,5.9 -1,2.1 -1.9,5.9 -0.5,6 2.3,0.1 4.6,0.2 6.9,0.3 1.7,0 0.9,-3 1.7,-4.5 0.5,-0.9 0.5,-1.5 1.8,-1.6 z m 19.1,-0.2 c 1.6,-0.1 4.2,-1.3 5.8,-3.2 1.6,-2 2.3,-4.6 2.3,-4.6 0,0 -1.6,1.6 -3.1,1.6 -6.9,0.3 -11.2,-1.9 -14.9,6.3 0,0.1 -0.1,0.2 -0.2,0.3 -0.8,2.2 -1.4,5.6 -0.1,5.6 0.1,0 0.1,0 0.2,0 2.2,0.1 4.4,0.1 6.6,0.1 1.7,0 0.9,-3 1.7,-4.5 0.4,-0.9 0.4,-1.5 1.7,-1.6 z m 19,0.4 c 1.6,0 4.3,-0.8 6.2,-2.5 1.9,-1.8 3,-4.2 3,-4.2 0,0 -1.9,1.3 -3.5,1.1 -4.2,-0.4 -7.6,-1.3 -10.4,-0.3 -1.9,0.6 -3.6,2.2 -5.1,5.4 -1,2.1 -1.8,5.9 -0.5,5.9 1.7,0.1 3.4,0.2 5.1,0.3 0.5,0.1 1,0.1 1.4,0.1 1.7,0.2 1,-2.9 2,-4.4 0.5,-0.8 0.5,-1.4 1.8,-1.4 z m 18.5,3.4 c 1.6,0.4 4.4,0.2 6.6,-1 2.3,-1.2 3.9,-3.3 3.9,-3.3 0,0 -2.1,0.8 -3.6,0.3 -3.2,-1.1 -5.8,-2.4 -8.2,-2.7 -2.8,-0.4 -5.4,0.5 -8.1,4.3 -1.4,1.9 -2.7,5.6 -1.4,5.8 2,0.5 4,1 6,1.6 0.1,0 0.2,0 0.3,0 1.2,-0.1 1.3,-2.8 2.5,-4 0.6,-0.6 0.8,-1.2 2,-1 z m 17.3,7.6 c 0.5,0.2 1.1,0.4 1.8,0.5 1.4,0.3 3.3,0.3 5,-0.1 2.5,-0.6 4.7,-2.1 4.7,-2.1 0,0 -2.4,0.1 -3.8,-0.8 -1.1,-0.7 -2.1,-1.3 -3.1,-1.9 0,0 0,0 0,0 -4.4,-2.8 -7.8,-5 -13.3,0 -1.8,1.5 -3.9,4.7 -2.7,5.3 1.9,0.9 3.7,1.9 5.6,2.9 1.4,0.8 2.1,-2.3 3.6,-3.2 0.8,-0.6 1,-1.1 2.2,-0.6 z m 14.2,12 c 0.4,0.4 0.9,0.8 1.5,1.2 1.2,0.8 2.9,1.6 4.6,1.8 2.5,0.3 5.1,-0.4 5.1,-0.4 0,0 -2.2,-0.6 -3.2,-1.9 -0.7,-1 -1.3,-2 -1.9,-2.9 0,0 0,0 0,0 -3,-4.4 -6,-8 -12.7,-4.8 -2.1,0.9 -5,3.5 -4.1,4.3 1.4,1.3 2.8,2.7 4,4.2 1,1.1 2.8,-1.4 4.5,-1.8 0.9,-0.2 1.4,-0.6 2.2,0.3 z m 9.3,16.3 c 0.6,1.1 1.8,2.5 3.3,3.5 0.6,0.4 1.2,0.7 1.8,0.9 2.4,1 5,0.8 5,0.8 0,0 -1.9,-1.1 -2.5,-2.5 -0.1,-0.2 -0.2,-0.4 -0.2,-0.6 0,0 0,0 0,0 -2.4,-6.4 -2.9,-11.6 -11.5,-10.9 -2.3,0.2 -6,1.5 -5.4,2.7 1,1.8 1.9,3.6 2.7,5.5 0.6,1.5 3.1,-0.5 4.8,-0.3 0.9,0.1 1.5,-0.2 2,0.9 z m 5.5,18.1 c 0.5,1.6 2.1,3.9 4.3,5.2 2.2,1.3 4.8,1.6 4.8,1.6 0,0 -1.8,-1.4 -2.1,-2.9 -1.4,-6.7 -0.5,-12.2 -9.3,-13.4 -2.3,-0.3 -6.1,0.1 -5.8,1.4 0.6,2.1 1.1,4.1 1.5,6.2 0.3,1.6 3.1,0.1 4.8,0.6 0.9,0.2 1.5,0.1 1.8,1.3 z m 2.6,18.8 c 0.3,1.6 1.5,4.2 3.5,5.7 2,1.6 4.6,2.2 4.6,2.2 0,0 -1.6,-1.6 -1.7,-3.2 -0.5,-7 1.3,-11.9 -7.3,-14.5 -2.2,-0.7 -6.1,-0.9 -5.9,0.5 0.2,2.1 0.4,4.3 0.5,6.4 0.1,1.6 3.1,0.6 4.7,1.3 0.8,0.4 1.4,0.3 1.6,1.6 z m 0.3,19 c 0,1.6 1,4.3 2.8,6 1.9,1.8 4.4,2.7 4.4,2.7 0,0 -1.5,-1.8 -1.4,-3.3 0.1,-2.2 0.3,-4.1 0.4,-5.8 0.2,-3.9 -0.4,-6.9 -6,-9.4 -2.1,-1 -5.9,-1.7 -6,-0.3 0,2.2 -0.1,4.3 -0.2,6.5 -0.1,1.7 3,1 4.5,1.8 0.6,0.4 1.1,0.5 1.4,1.1 0,0 0,0 0,0 0,0.2 0,0.4 0.1,0.7 z m -1.8,18.9 c -0.1,1.6 0.6,4.4 2.3,6.3 1.7,2 4.1,3.1 4.1,3.1 0,0 -1.3,-1.9 -1.1,-3.4 0.9,-6.8 3.7,-11.3 -4,-15.7 -2,-1.2 -5.8,-2.3 -5.9,-0.9 -0.3,2.1 -0.6,4.3 -0.9,6.5 -0.3,1.6 2.9,1.2 4.3,2.2 0.7,0.6 1.3,0.6 1.2,1.9 z m -3.5,18.7 c -0.3,1.6 0.1,4.4 1.6,6.5 1.5,2.1 3.8,3.4 3.8,3.4 0,0 -1.1,-2 -0.7,-3.5 1.5,-6.6 4.7,-10.8 -2.5,-16 -1.9,-1.4 -5.5,-2.8 -5.8,-1.5 -0.5,2.2 -1,4.3 -1.6,6.4 -0.4,1.6 2.8,1.5 4.1,2.7 0.7,0.6 1.3,0.7 1.1,2 z m -5.4,18.2 c -0.1,0.6 -0.2,1.4 -0.2,2.2 0.1,1.4 0.4,3 1.2,4.4 1.3,2.3 3.5,3.8 3.5,3.8 0,0 -0.9,-2.1 -0.4,-3.5 0.3,-1 0.7,-1.9 1,-2.8 0,0 0,0 0,0 2,-4.9 3.7,-8.4 -2,-13.4 -1.7,-1.5 -5.2,-3.3 -5.6,-2 -0.7,2 -1.4,4.1 -2.1,6.2 -0.6,1.5 2.6,1.7 3.7,3 0.7,0.7 1.3,0.9 0.9,2.1 z m -7.1,17.6 c -0.5,1.6 -0.7,4.4 0.4,6.7 1,2.4 3,4.1 3,4.1 0,0 -0.7,-2.1 0,-3.5 2.8,-6.3 6.7,-9.8 0.6,-16.2 -1.6,-1.7 -4.8,-3.8 -5.4,-2.6 -0.8,2 -1.7,4 -2.7,6 -0.7,1.5 2.4,2 3.5,3.4 0.5,0.7 1.1,0.9 0.6,2.1 z m -8.8,16.8 c -0.8,1.5 -1.2,4.3 -0.5,6.7 0.8,2.5 2.6,4.4 2.6,4.4 0,0 -0.4,-2.2 0.4,-3.5 3.5,-5.9 7.8,-9 2.4,-16.1 -1.4,-1.8 -4.5,-4.2 -5.1,-3.1 -1.1,1.9 -2.2,3.8 -3.4,5.7 -0.8,1.3 2.2,2.2 3.1,3.7 0.5,0.8 1,1.1 0.5,2.2 z m -10.8,15.7 c -0.8,1.3 -1.6,4.1 -1.2,6.6 0.2,0.9 0.5,1.9 0.9,2.7 0.5,1.2 1.1,2 1.1,2 0,0 0,-0.5 0,-1.1 0.1,-0.7 0.3,-1.7 0.8,-2.4 4.2,-5.4 8.9,-8.1 4.3,-15.7 -1.2,-2 -3.9,-4.7 -4.7,-3.6 -1.3,1.7 -2.6,3.4 -3.9,5.1 -1.1,1.3 1.9,2.5 2.6,4.1 0.4,0.9 0.9,1.2 0.1,2.3 z m -12.6,14.1 c -1,1.2 -2.2,3.8 -2.1,6.3 0,2.6 1.2,5 1.2,5 0,0 0.2,-2.3 1.4,-3.3 4.9,-4.8 9.9,-6.9 6.4,-15 -0.9,-2.1 -3.3,-5.2 -4.2,-4.2 -1.5,1.6 -3,3.1 -4.6,4.6 -1.1,1.1 1.6,2.7 2.1,4.3 0.2,0.9 0.7,1.3 -0.2,2.3 z m -14.5,12.1 c -1.2,1.1 -2.8,3.5 -3,6 -0.3,2.6 0.5,5.1 0.5,5.1 0,0 0.5,-2.2 1.8,-3.1 5.6,-4 10.8,-5.3 8.5,-13.9 -0.6,-2.2 -2.5,-5.6 -3.5,-4.8 -1.7,1.4 -3.4,2.6 -5.2,3.9 -1.3,0.9 1.1,2.9 1.4,4.6 0.1,0.9 0.5,1.4 -0.5,2.2 z m -16.1,10 c -1.4,0.9 -3.2,3.1 -3.9,5.5 -0.6,2.5 -0.1,5.1 -0.1,5.1 0,0 0.8,-2.1 2.2,-2.8 6.1,-3.2 11.4,-3.7 10.3,-12.6 -0.2,-2.3 -1.6,-5.9 -2.8,-5.2 -1.9,1.1 -3.7,2.1 -5.7,3.1 -1.4,0.7 0.8,3 0.8,4.8 0,0.9 0.3,1.4 -0.8,2.1 z m -17.3,7.7 c -1.5,0.7 -3.6,2.6 -4.6,4.9 -0.9,2.4 -0.8,5.1 -0.8,5.1 0,0 1.1,-2 2.6,-2.5 3.5,-1.3 6.6,-1.9 8.8,-3.4 1.8,-1.4 3,-3.6 3.1,-7.7 0,-2.3 -0.9,-6.1 -2.1,-5.6 -1.8,0.8 -3.6,1.5 -5.5,2.1 -0.2,0.1 -0.4,0.2 -0.6,0.3 -1.5,0.5 0.3,3.1 0.1,4.8 -0.1,0.9 0.1,1.5 -1,2 z m -18.2,5.5 c -1.5,0.5 -3.9,2.2 -5,4.4 -1.2,2.3 -1.3,4.9 -1.3,4.9 0,0 1.2,-1.8 2.7,-2.2 6.6,-1.7 11.9,-0.8 13.1,-9.6 0.3,-2.3 -0.1,-6.1 -1.4,-5.8 -2.1,0.6 -4.2,1.1 -6.3,1.6 -1.6,0.4 -0.1,3.1 -0.5,4.8 -0.3,0.9 -0.1,1.5 -1.3,1.9 z m -18.7,3.6 c -1.6,0.3 -4,1.8 -5.4,3.9 -1.4,2.1 -1.7,4.8 -1.7,4.8 0,0 1.4,-1.7 2.9,-2 6.8,-1 11.8,0.4 14,-8.2 0.5,-2.3 0.5,-6.2 -0.8,-6 -2.2,0.4 -4.3,0.7 -6.5,1 -1.6,0.2 -0.4,3.1 -1,4.7 -0.3,0.9 -0.2,1.5 -1.5,1.8 z m -18.9,1.9 c -1.1,0.1 -2.6,0.7 -3.9,1.7 -0.7,0.5 -1.3,1.1 -1.8,1.7 -1.6,2.1 -2.2,4.7 -2.2,4.7 0,0 1.6,-1.6 3.2,-1.8 0.3,0 0.7,0 1,0 0,0 0,0 0,0 6.2,-0.3 10.7,1 13.5,-7 0.8,-2.2 1.2,-6.1 -0.2,-6 -2.2,0.2 -4.4,0.3 -6.6,0.4 -1.7,0.1 -0.7,3.1 -1.4,4.6 -0.4,0.9 -0.3,1.5 -1.6,1.7 z m -19,0.2 c -1.6,0.1 -4.3,1 -6,2.9 -1.8,1.8 -2.7,4.3 -2.7,4.3 0,0 1.8,-1.4 3.3,-1.3 6.8,0.2 11.6,2.5 15.2,-5.6 1,-2.2 1.6,-6 0.3,-6 -2.2,0 -4.4,-0.1 -6.5,-0.2 -1.7,-0.1 -1,3 -1.8,4.5 -0.5,0.8 -0.5,1.4 -1.8,1.4 z m -18.9,-1.7 c -1.6,-0.1 -4.4,0.5 -6.3,2.2 -2,1.6 -3.1,4 -3.1,4 0,0 1.9,-1.2 3.4,-1 6.8,0.9 11.3,3.7 15.7,-4 1.2,-2 2.3,-5.7 1,-5.9 -2.2,-0.2 -4.4,-0.5 -6.5,-0.9 -1.6,-0.2 -1.3,2.9 -2.3,4.3 -0.6,0.7 -0.6,1.4 -1.9,1.3 z m -18.6,-3.8 c -1.6,-0.3 -4.4,0.1 -6.5,1.5 -2.1,1.4 -3.5,3.7 -3.5,3.7 0,0 2,-1 3.5,-0.6 6.6,1.6 10.8,4.9 16,-2.3 1.4,-1.9 2.9,-5.5 1.6,-5.8 -2.1,-0.5 -4.3,-1 -6.4,-1.6 -1.5,-0.4 -1.5,2.8 -2.7,4 -0.6,0.7 -0.7,1.3 -2,1.1 z m -18.1,-5.8 c -1.5,-0.4 -4.4,-0.4 -6.6,0.8 -2.3,1.2 -3.9,3.3 -3.9,3.3 0,0 2.1,-0.8 3.6,-0.2 6.4,2.3 10.2,6 16.2,-0.5 1.5,-1.7 3.4,-5.2 2.1,-5.6 -2,-0.7 -4.1,-1.5 -6.1,-2.3 -1.5,-0.6 -1.8,2.6 -3.1,3.7 -0.8,0.6 -0.9,1.2 -2.2,0.8 z m -17.3,-7.7 c -1.5,-0.6 -4.3,-0.9 -6.7,0 -2.4,1 -4.2,2.9 -4.2,2.9 0,0 2.2,-0.6 3.6,0.1 2.9,1.5 5.1,3.2 7.4,3.9 2.6,0.8 5.2,0.5 8.7,-2.6 1.8,-1.5 4,-4.7 2.8,-5.2 -2,-1 -3.9,-2 -5.9,-3 0,0 -0.1,-0.1 -0.2,-0.1 -1.3,-0.3 -1.9,2.5 -3.3,3.4 -0.8,0.5 -1,1.1 -2.2,0.6 z m -16.4,-9.5 c -1.4,-0.8 -4.2,-1.3 -6.7,-0.6 -2.4,0.7 -4.4,2.5 -4.4,2.5 0,0 2.2,-0.4 3.5,0.4 5.8,3.6 8.6,8 15.9,2.9 1.9,-1.3 4.5,-4.3 3.3,-5 -1.8,-1.1 -3.7,-2.3 -5.5,-3.5 -1.4,-0.9 -2.3,2.1 -3.9,2.9 -0.8,0.5 -1.1,1 -2.2,0.4 z m -15.5,-10.9 c -1.4,-0.9 -4.2,-1.7 -6.6,-1.1 -2.6,0.5 -4.7,2.1 -4.7,2.1 0,0 2.3,-0.2 3.5,0.7 5.5,4 7.9,8.6 15.6,4.2 2,-1.2 4.8,-3.9 3.8,-4.7 -1.8,-1.3 -3.6,-2.7 -5.3,-4 -1.3,-1.1 -2.5,1.9 -4.1,2.6 -0.8,0.4 -1.2,0.9 -2.2,0.2 z m -14.8,-12.1 c -1.4,-0.9 -4,-1.8 -6.5,-1.4 -2.6,0.3 -4.8,1.8 -4.8,1.8 0,0 2.3,-0.1 3.4,0.9 5.3,4.4 7.3,9.1 15.4,5.2 2,-1.1 5,-3.5 4,-4.4 -1.7,-1.5 -3.3,-3 -5,-4.5 -1.2,-1.1 -2.6,1.8 -4.2,2.4 -0.9,0.3 -1.3,0.8 -2.3,0 z m -14,-12.8 c -1.2,-1.1 -3.8,-2.3 -6.3,-2.3 -2.6,0 -5,1.1 -5,1.1 0,0 2.3,0.3 3.3,1.5 3,3.2 5,6.4 8.1,7.4 1.8,0.5 3.9,0.4 6.9,-0.9 2.1,-0.9 5.3,-3.2 4.3,-4.2 -1.1,-1.1 -2.3,-2.2 -3.4,-3.3 -0.4,-0.4 -0.9,-0.8 -1.3,-1.3 -1.1,-1.1 -2.7,1.6 -4.3,2.1 -0.9,0.3 -1.4,0.7 -2.3,-0.1 z m -12,-14.8 c -1,-1.2 -3.42,-2.7 -5.95,-3 -2.55,-0.2 -5.06,0.7 -5.06,0.7 0,0 2.21,0.5 3.12,1.7 2.12,2.9 3.42,5.6 5.36,7.3 1.83,1.6 4.23,2.3 8.43,1.2 2.3,-0.5 5.7,-2.4 4.9,-3.4 -1.3,-1.7 -2.5,-3.4 -3.7,-5.1 -0.1,-0.1 -0.1,-0.1 -0.2,-0.2 -0.9,-1.4 -2.9,1.1 -4.6,1.3 -1,0.1 -1.4,0.5 -2.3,-0.5 z m -10.34,-15.9 c -0.41,-0.6 -1.05,-1.2 -1.84,-1.8 -1.07,-0.8 -2.42,-1.4 -3.85,-1.7 -2.52,-0.5 -5.1,0.2 -5.1,0.2 0,0 2.15,0.7 2.95,2 0.47,0.7 0.89,1.5 1.27,2.2 0,0 0,0 0,0 2.58,4.9 3.97,8.6 11.65,7.5 2.3,-0.3 5.86,-1.8 5.16,-2.9 -1.1,-1.9 -2.22,-3.8 -3.3,-5.7 -0.82,-1.4 -3.02,0.8 -4.76,0.9 -0.95,0 -1.44,0.4 -2.18,-0.7 z m -8.88,-16.8 c -0.8,-1.4 -2.87,-3.4 -5.3,-4.1 -2.45,-0.7 -5.09,-0.4 -5.09,-0.4 0,0 2.07,1 2.73,2.4 2.91,6.2 3.07,11.4 11.94,11 2.32,-0.2 6.04,-1.3 5.44,-2.5 -0.97,-2 -1.9,-4 -2.8,-5.9 -0.67,-1.5 -3.08,0.5 -4.81,0.4 -0.95,-0.1 -1.48,0.2 -2.11,-0.9 z m -6.87,-17.7 c -0.58,-1.5 -2.34,-3.7 -4.6,-4.8 -2.28,-1.2 -4.94,-1.4 -4.94,-1.4 0,0 1.87,1.3 2.29,2.9 1.83,6.7 1.58,11.9 10,12.6 0.13,0 0.27,0 0.4,0 2.32,0.2 6.13,-0.6 5.68,-1.8 -0.1,-0.2 -0.12,-0.3 -0.18,-0.5 -0.66,-1.9 -1.28,-3.8 -1.85,-5.6 -0.47,-1.6 -3.12,0.1 -4.83,-0.2 -0.93,-0.2 -1.5,0 -1.97,-1.2 z m -3.25,-18.5 c -0.22,-1.6 -1.42,-4.3 -3.37,-5.9 -1.96,-1.7 -4.52,-2.5 -4.52,-2.5 0,0 1.51,1.8 1.56,3.4 0.16,4.7 -0.41,8.6 1.65,11.3 1.03,1.5 2.78,2.7 5.67,3.4 2.25,0.6 6.11,0.5 5.92,-0.7 -0.2,-1.3 -0.35,-2.6 -0.45,-4 0,-0.7 -0.1,-1.4 -0.13,-2.2 -0.1,-1.6 -3.08,-0.5 -4.67,-1.3 -0.87,-0.3 -1.48,-0.3 -1.66,-1.5 z m 1.24,-18.8 c 0.23,-1.6 -0.14,-4.4 -1.39,-6.6 -1.26,-2.2 -3.33,-3.9 -3.33,-3.9 0,0 0.77,2.2 0.29,3.8 -1.06,3.5 -2.21,6.5 -2.18,9.1 0,2.7 1.26,5.1 5.21,7.2 2.07,1.1 5.87,1.9 5.97,0.6 0.16,-2 0.4,-4 0.77,-6 0.27,-1.4 -2.84,-1.2 -4.18,-2.3 -0.72,-0.6 -1.34,-0.7 -1.16,-1.9 z m 7.85,-16.7 c 0.88,-1.2 1.89,-3.9 1.81,-6.4 0,-2.6 -1.09,-5.1 -1.09,-5.1 0,0 -0.39,2.3 -1.56,3.5 -4.19,4.3 -7.91,7.4 -6.65,12 0.36,1.3 1.11,2.7 2.36,4.1 1.53,1.7 4.75,3.8 5.27,2.7 0.36,-0.7 0.75,-1.4 1.17,-2.1 0.5,-0.9 1.06,-1.8 1.67,-2.6 0.8,-1.1 -2.05,-2.3 -2.79,-3.9 -0.39,-0.8 -0.9,-1.2 -0.19,-2.2 z m 14.73,-11.3 c 1.16,-0.7 2.75,-2.3 3.72,-4.1 0.2,-0.4 0.4,-0.7 0.6,-1.1 1,-2.4 1,-5.1 1,-5.1 0,0 -1.3,2 -2.9,2.6 0,0 0,0 0,0 0,0 0,0 0,0 -6.91,2.8 -12.73,4 -10.73,12.7 0.52,2.3 2.42,5.6 3.38,4.9 1.56,-1.1 3.23,-2.1 4.96,-3 1.31,-0.7 -0.81,-3 -0.8,-4.8 0,-0.9 -0.32,-1.4 0.78,-2.1 z m 18.02,-4.1 c 1.5,0 4.3,-0.9 6.3,-2.5 2,-1.7 3.3,-4 3.3,-4 0,0 -2.1,1.1 -3.8,0.9 -7.6,-0.9 -13.7,-2.2 -15.4,6.5 -0.4,2.2 0,6 1.1,5.8 1.8,-0.4 3.6,-0.6 5.5,-0.6 1.4,0 0.6,-3 1.3,-4.5 0.4,-0.9 0.4,-1.5 1.7,-1.6 z m 18,4.8 c 1.4,0.6 4.3,1 6.8,0.4 2.5,-0.5 4.7,-2 4.7,-2 0,0 -2.4,0 -3.8,-0.9 -3.7,-2.4 -6.8,-4.6 -9.9,-4.8 -2.2,-0.1 -4.5,0.8 -6.8,3.7 -1.5,1.8 -3,5.4 -1.8,5.7 1.5,0.5 2.9,1 4.4,1.6 0.3,0.1 0.6,0.3 0.9,0.4 1.3,0.7 1.9,-2.4 3.3,-3.5 0.7,-0.5 1,-1.1 2.2,-0.6 z m 13.7,12.3 c 0.7,0.9 2,2.1 3.5,3 0.7,0.4 1.3,0.7 2,0.9 2.5,0.8 5.2,0.6 5.2,0.6 0,0 -2.1,-1.1 -2.8,-2.6 -0.2,-0.2 -0.3,-0.4 -0.4,-0.6 0,0 0,0 0,0 -1.5,-3.4 -3,-6.3 -5,-8 -2,-1.7 -4.8,-2.4 -8.7,-0.6 -2.1,1 -5,3.5 -4.1,4.3 1.3,1.2 2.6,2.6 3.6,4 0.4,0.5 1.1,0.3 1.9,-0.2 0.8,-0.5 1.8,-1.2 2.6,-1.3 0.9,-0.1 1.4,-0.5 2.2,0.5 z m 5.9,17.7 c 0.3,1.6 1.6,4.1 3.5,5.8 2,1.7 4.4,2.6 4.4,2.6 0,0 -1.4,-1.9 -1.5,-3.6 -0.1,-3.7 -0.1,-7 -1,-9.4 -1,-2.6 -3.1,-4.4 -7.5,-4.9 -2.4,-0.3 -6.2,0.4 -5.8,1.6 0.5,1.9 1,3.8 1.3,5.8 0.3,1.4 3.2,0.1 4.8,0.7 0.9,0.3 1.5,0.2 1.8,1.4 z m -1.9,18.3 c -0.2,0.7 -0.3,1.7 -0.3,2.8 0,1.2 0.1,2.6 0.5,3.9 0.8,2.5 2.4,4.6 2.4,4.6 0,0 -0.2,-2.4 0.6,-3.9 0.5,-0.8 0.9,-1.6 1.3,-2.4 0,0 0,0 0,0 2.8,-5.7 4.5,-10.4 -2.3,-14.3 -2,-1.1 -5.8,-1.9 -5.9,-0.8 -0.2,1.9 -0.5,3.7 -1.1,5.4 -0.2,0.6 0.5,1 1.4,1.4 0.8,0.3 1.9,0.7 2.5,1.3 0.6,0.6 1.3,0.8 0.9,2 z m -11.1,14.5 c -1.1,1 -2.7,3.4 -3.2,5.9 -0.6,2.6 -0.1,5.2 -0.1,5.2 0,0 0.9,-2.2 2.3,-3.1 6.5,-4.1 12.1,-6.9 7.9,-14.6 -1.1,-2.1 -3.8,-4.7 -4.5,-3.9 -1.1,1.5 -2.4,2.7 -3.8,3.9 -1.1,0.9 1.4,2.7 1.8,4.4 0.2,0.9 0.6,1.4 -0.4,2.2 z m -17,7.6 c -1.4,0.5 -3.9,2 -5.4,4 -1.5,2.1 -2.2,4.6 -2.2,4.6 0,0 1.7,-1.6 3.4,-1.8 2,-0.2 4,-0.4 5.6,-0.7 4.4,-0.7 7.9,-2.5 7.9,-9 0,-2.3 -1.1,-6.1 -2.2,-5.6 -1.7,0.7 -3.6,1.4 -5.5,1.8 -1.4,0.4 0.1,3.2 -0.3,4.9 -0.2,0.8 0,1.4 -1.1,1.8 -0.1,0 -0.1,0 -0.2,0 z m -18.5,-0.1 c -1.6,-0.2 -4.44,0.2 -6.6,1.5 -2.25,1.3 -3.87,3.4 -3.87,3.4 0,0 2.23,-0.8 3.8,-0.3 7.27,2 12.57,4.6 16.27,-3.5 0.9,-2.1 1.5,-5.9 0.3,-5.9 -1.9,-0.1 -3.9,-0.3 -5.8,-0.6 -1.4,-0.3 -1.2,2.9 -2.2,4.2 -0.6,0.8 -0.7,1.4 -1.9,1.2 z m -17.14,-7.4 c -1.34,-0.7 -4.14,-1.5 -6.62,-1.1 -2.57,0.3 -4.87,1.7 -4.87,1.7 0,0 2.35,0.1 3.63,1.1 1.91,1.5 3.59,3 5.21,4.1 3.32,2.2 6.69,3 11.08,-1 1.73,-1.6 3.73,-4.9 2.63,-5.4 -1.78,-0.8 -3.49,-1.7 -5.12,-2.7 -1.23,-0.8 -2.21,2.1 -3.71,3 -0.51,0.3 -0.82,0.6 -1.25,0.6 -0.25,0.1 -0.56,0 -0.98,-0.3 z m -13.07,-13.2 c -0.98,-1.3 -3.33,-3 -5.8,-3.5 -2.53,-0.5 -5.16,-0.1 -5.16,-0.1 0,0 2.18,0.9 3.02,2.3 3.82,6.4 5.67,11.9 14.02,8.8 2.18,-0.8 5.29,-3.1 4.46,-3.9 -1.35,-1.5 -2.6,-3 -3.76,-4.6 -0.87,-1.2 -2.86,1.2 -4.57,1.4 -0.92,0.2 -1.41,0.5 -2.21,-0.4 z m -7.73,-17.1 c 0,0 0,0 0,0 -0.54,-1.6 -2.24,-3.8 -4.53,-4.9 -2.3,-1.1 -4.96,-1.1 -4.96,-1.1 0,0 1.9,1.2 2.32,2.6 0.51,1.8 0.8,3.5 1.14,5 0.99,4.3 2.7,7.6 9.21,7.6 2.33,0 6.04,-1.1 5.56,-2.2 -0.78,-1.8 -1.46,-3.7 -2.01,-5.6 -0.42,-1.5 -3.11,0.1 -4.81,-0.2 -0.91,-0.2 -1.5,0 -1.91,-1.2 z m -4.32,-18.5 c -0.44,-1.6 -2,-4 -4.21,-5.2 -2.22,-1.3 -4.88,-1.5 -4.88,-1.5 0,0 1.82,1.3 2.14,2.8 1.43,6.7 0.23,11.7 8.94,13.5 2.27,0.5 6.16,0.3 5.89,-1 -0.44,-2.2 -0.86,-4.4 -1.26,-6.5 -0.29,-1.7 -3.12,-0.3 -4.78,-0.8 -0.91,-0.3 -1.49,-0.1 -1.84,-1.3 z m -2.91,-18.8 c -0.3,-1.6 -1.63,-4.1 -3.7,-5.6 -2.09,-1.5 -4.7,-2 -4.7,-2 0,0 1.67,1.6 1.84,3.1 0.45,4 0.1,7.3 1.42,9.9 0.94,1.8 2.74,3.3 6.32,4.3 2.23,0.7 6.12,0.8 5.95,-0.5 -0.23,-1.8 -0.44,-3.6 -0.61,-5.3 0,-0.4 -0.1,-0.9 -0.12,-1.3 -0.15,-1.6 -3.09,-0.4 -4.7,-1.1 -0.87,-0.4 -1.47,-0.2 -1.7,-1.5 z"/>
      <path d="m 206.4,248.5 c 6,-5.3 8.4,-13.4 0.1,-21.8 6.4,-4.7 9.5,-12.8 1.6,-21.6 2.6,-1.7 4.7,-3.9 5.9,-6.5 1.8,-4.1 1.5,-9.3 -2.9,-15.2 5.2,-2.7 8.9,-7.6 7.7,-13.8 -0.5,-2.2 -1.5,-4.5 -3.4,-7 3.4,-1.6 6.1,-4.2 7,-7.5 1,-3.3 0.2,-7.4 -3.5,-10.8 -0.3,-0.3 -0.7,-0.7 -1.1,-1 3.1,-2 5.1,-5.3 4.8,-8.9 -0.4,-3.5 -3.1,-7.1 -8.5,-7.8 0.7,-1.2 1.2,-2.5 1.4,-3.7 0.9,-5.4 -4,-11.9 -12.8,-8.4 0,-0.7 -0.1,-1.4 -0.2,-2.1 -0.3,-3.1 -2.5,-5.7 -5.6,-6.2 -3.1,-0.5 -6.8,1.1 -9.1,5.5 -0.2,-0.3 -0.5,-0.6 -0.7,-0.9 -2.4,-2.4 -5.9,-3.5 -9,-2.3 l -5.1,-8.2 27.9,-5.2 26.8,15.8 10.7,27.6 -7.3,57.5 5.5,61.2 c 0,0 -21.2,-1 -30.2,-8.7 z"/>
      <path d="m 250.4,320.4 c -20.1,-8.5 -29.7,-27.9 -33.7,-51.2 -3.7,-21.9 -2.3,-47.2 0.2,-70.2 2.1,-18.6 8.8,-39.6 9,-54.6 0.3,-20.4 -9.9,-31.6 -20.2,-37.6 -11.7,-6.7 -28.3,-3.3 -38,5.4 l 5.7,-26.24 c 10.1,-0.9 17,-1.4 31.4,1.64 26.6,5.66 38.1,28.1 40.9,49.2 5.7,43.6 -12.7,58.4 4.1,104.5 4,11.2 29.6,22.1 41.5,22.7"/>
    </g>
    <g id="body">
      <path d="m 291.3,264 c 51.1,2.6 67,-5.7 99.4,12.8 42.8,24.3 43,132.7 -11.4,196.1 -29.6,34.5 -71.7,47.7 -116.3,49.7 -67.6,3.1 -112.1,-29.8 -145.5,-60.7 -16.7,-15.6 -41.84,-57.6 -44.98,-84.7 -1.09,-8.8 0.61,-19.3 4.94,-21.2 l 7.92,15.6 c -0.88,9 3.21,17.7 4.84,22.2 0.43,1.9 0.89,3.6 0.25,5.3 3.77,2.3 5.3,7 4.49,9.9 2.14,1 3.65,2.9 4.49,4.9 0.65,1.6 0.95,3.3 0.65,4.6 4,1.6 6.2,6 5.9,9 4.1,1.3 6.7,5.6 6.6,8.5 4.2,1.1 7.2,5.2 7.2,8.2 3.2,0.6 5.8,3 7,5.4 0.4,0.8 0.7,1.6 0.7,2.4 4.4,0.6 7.7,4.5 8.1,7.4 4.4,0.4 8,4 8.5,7 4.4,0.1 8.1,3.6 8.8,6.5 4.4,0 8.3,3.3 9.1,6.2 2,-0.2 3.9,0.4 5.4,1.3 2,1.1 3.5,2.7 4.1,4.3 4.3,-0.5 8.5,2.4 9.6,5.2 4.3,-0.8 8.7,1.9 9.9,4.6 4.3,-1 8.8,1.4 10.2,4 4.1,-1.3 8.7,0.8 10.3,3.4 0.8,-0.3 1.5,-0.5 2.3,-0.6 3.4,-0.3 6.8,1.2 8.2,3.2 3.9,-1.8 8.7,-0.5 10.6,1.8 3.8,-2.1 8.6,-1.2 10.7,0.9 3.4,-2.5 8.3,-2 10.5,-0.2 1.8,-1.5 4,-2.2 6,-2.3 1.8,-0.1 3.6,0.3 4.7,1 3.2,-3.1 8.4,-3.4 11,-1.8 3.1,-3.2 8.3,-3.6 10.9,-2.2 2.9,-3.3 8,-4 10.6,-2.6 2.7,-3.5 7.7,-4.4 10.5,-3.2 2.4,-3.6 7.3,-4.9 10.1,-3.9 2.1,-3.7 6.8,-5.3 9.7,-4.6 0.3,-0.5 0.6,-1 0.9,-1.5 2.1,-2.9 5.8,-4.3 8.3,-3.9 1.4,-4 5.5,-6.4 8.4,-6.2 1,-4.1 4.7,-6.9 7.6,-7.1 0.3,-4.1 3.6,-7.4 6.3,-8 -0.1,-1.7 0.2,-3.3 0.9,-4.7 0.7,-1.7 2.2,-3.3 3.8,-4.1 0,-0.2 -0.1,-0.4 -0.1,-0.6 -0.6,-3.5 0.8,-7 2.9,-8.7 0.2,-0.3 0.5,-0.5 0.8,-0.6 -1.5,-4 0.2,-8.7 2.6,-10.4 -1.9,-3.8 -0.6,-8.6 1.6,-10.5 -0.3,-0.5 -0.5,-1 -0.7,-1.6 -1.3,-3.3 -0.5,-7.1 1.2,-8.9 -2.6,-3.3 -2.4,-8 -0.7,-10.3 -1.8,-1.7 -2.6,-3.9 -2.9,-5.9 -0.1,-1.4 0,-2.9 0.6,-4 -3.4,-2.2 -4.7,-6.4 -4,-9.1 -3.7,-1.5 -5.8,-5.3 -5.6,-8.1 -0.8,-0.1 -1.5,-0.3 -2.2,-0.6 -2.7,-1.3 -4.6,-3.8 -4.9,-5.9 -1.6,0.1 -3.1,-0.2 -4.3,-0.8 -1.8,-0.8 -3.4,-2.2 -4,-3.7 -1.8,0.6 -3.6,0.6 -5.1,0.2 -1.9,-0.5 -3.6,-1.5 -4.5,-2.8 -3.7,2 -8.7,1 -10.8,-1.4 -2.5,1.4 -5.6,1.5 -8.1,0.6 -1.5,-0.4 -2.8,-1.2 -3.6,-2.1 -4.4,2 -10,-0.1 -11.9,-2.7 -4.6,1.4 -10,-1.4 -11.5,-4.3 -1.3,0.2 -2.7,0.1 -4,-0.3 -3.4,-0.9 -6,-3.4 -6.8,-5.5 -4.9,0.1 -9.2,-3.9 -9.9,-7.1 -4.8,-0.3 -8.6,-4.7 -9,-7.9 -4.7,-0.7 -8.1,-5.3 -8.2,-8.5"/>
      <path style="fill:#ffff00" d="m 254.6,320.3 c -1.5,0.4 -2.9,0.4 -4.2,0.1 m 12.5,8.1 c -1.5,0.6 -2.9,0.7 -4.3,0.4 m 13.2,7.1 c -1.4,0.7 -2.8,0.9 -4.2,0.8 m 14,5.8 c -1.3,0.8 -2.7,1.2 -4.1,1.2 m 14.7,4.1 c -1.2,1 -2.5,1.6 -3.9,1.8 m 15.2,1.9 c -1.1,1.2 -2.3,1.9 -3.7,2.4 m 15.2,0 c -0.9,1.2 -2,2.1 -3.3,2.7 m 14.7,-1.4 c -0.8,1.3 -1.9,2.3 -3,2.9 m 13.8,-1.2 c -0.9,1.2 -1.9,2.1 -3,2.6 m 13,0.5 c -1.1,1 -2.3,1.7 -3.4,2.1 m 12.1,3.4 c -1.3,0.6 -2.6,1 -3.8,1.1 m 11.1,6.3 c -1.4,0.4 -2.8,0.4 -4,0.2 m 9.6,8.7 c -1.5,0.1 -2.8,-0.2 -4,-0.6 m 7.8,10.5 c -1.5,-0.2 -2.8,-0.7 -3.8,-1.4 m 5.8,11.9 c -1.5,-0.5 -2.6,-1.2 -3.5,-2.1 m 3.9,12.9 c -1.3,-0.7 -2.4,-1.5 -3.2,-2.5 m 2.4,13.4 c -1.3,-0.8 -2.2,-1.8 -2.9,-2.9 m 1,13.7 c -1.2,-0.9 -2,-2 -2.6,-3.2 m -0.3,13.8 c -0.8,-0.8 -1.4,-1.6 -1.9,-2.4 -0.1,-0.4 -0.3,-0.7 -0.4,-1 m -1.6,13.5 c -1,-1.1 -1.6,-2.4 -2,-3.6 m -3.5,12.6 c -0.7,-1.3 -1.1,-2.6 -1.2,-3.8 m -5.7,12 c -0.5,-1.4 -0.7,-2.8 -0.6,-4 m -7.5,11.2 c -0.3,-1.5 -0.3,-2.9 0,-4.1 m -9,10.3 c -0.1,-1.5 0.1,-2.9 0.5,-4.1 m -10.1,9.4 c 0,-1.5 0.4,-2.8 0.9,-4 m -10.9,8.5 c 0.1,-1.5 0.5,-2.8 1.2,-3.9 m -11.6,7.7 c 0.2,-1.5 0.8,-2.8 1.5,-3.8 m -12.1,7 c 0.3,-1.6 0.9,-2.8 1.7,-3.8 m -12.6,6.3 c 0.4,-1.5 1,-2.7 1.9,-3.7 m -12.9,5.8 c 0.4,-1.4 1.1,-2.6 2,-3.6 m -13.1,5.4 c 0.5,-1.5 1.2,-2.7 2.2,-3.6 m -13.1,4.7 c 0.6,-1.4 1.4,-2.5 2.4,-3.4 m -13.3,3.3 c 0.7,-1.4 1.7,-2.4 2.7,-3.1 m -13.6,1.9 c 0.8,-1.2 1.8,-2.2 3,-2.8 m -13.9,0.8 c 1,-1.2 2.1,-2.1 3.2,-2.6 m -13.9,-0.3 c 1.1,-1.1 2.2,-1.9 3.4,-2.3 m -13.9,-1.3 c 1.1,-1 2.4,-1.7 3.6,-2.1 m -13.8,-2.1 c 1.2,-1 2.4,-1.6 3.7,-1.9 m -13.7,-2.9 c 1.2,-1 2.5,-1.5 3.8,-1.7 m -13.6,-3.7 c 1.3,-0.9 2.6,-1.3 3.9,-1.5 m -13.4,-4.3 c 1.3,-0.8 2.7,-1.2 4,-1.3 m -13.2,-5.1 c 1.4,-0.7 2.7,-1 4,-1 m -12.8,-5.7 c 1.3,-0.7 2.7,-0.9 4,-0.9 m -12.6,-6.3 c 1.5,-0.6 2.8,-0.8 4.1,-0.7 m -12.2,-6.9 c 0.2,-0.1 0.4,-0.1 0.7,-0.2 0,0 0,0 0,0 1.2,-0.3 2.3,-0.4 3.4,-0.2 m -11.8,-7.6 c 1.5,-0.4 2.9,-0.5 4.1,-0.3 m -11.3,-8.1 c 1.5,-0.4 2.9,-0.3 4.1,0 m -10.7,-8.9 c 1.5,-0.2 2.9,-0.1 4.1,0.3 m -9.94,-9.6 c 1.52,-0.1 2.88,0.1 4.04,0.6 m -9.16,-10.4 c 1.53,0 2.88,0.3 4.03,0.9 m -8.43,-11.1 c 1.53,0.2 2.84,0.6 3.94,1.3 m -7.32,-11.6 c 1.5,0.2 2.75,0.8 3.77,1.6 m -5.85,-12.2 c 1.44,0.5 2.61,1.2 3.52,2"/>
      <path d="m 82.05,338.3 c 0.88,-1.2 1.89,-3.9 1.81,-6.4 0,-2.6 -1.09,-5.1 -1.09,-5.1 0,0 -0.39,2.3 -1.56,3.5 -4.19,4.3 -7.91,7.4 -6.65,12 0.36,1.3 1.11,2.7 2.36,4.1 1.53,1.7 4.75,3.8 5.27,2.7 0.36,-0.7 0.75,-1.4 1.17,-2.1 0.5,-0.9 1.06,-1.8 1.67,-2.6 0.8,-1.1 -2.05,-2.3 -2.79,-3.9 -0.39,-0.8 -0.9,-1.2 -0.19,-2.2 z m 14.73,-11.3 c 1.16,-0.7 2.75,-2.3 3.72,-4.1 0.2,-0.4 0.4,-0.7 0.6,-1.1 1,-2.4 1,-5.1 1,-5.1 0,0 -1.3,2 -2.9,2.6 0,0 0,0 0,0 0,0 0,0 0,0 -6.91,2.8 -12.73,4 -10.73,12.7 0.52,2.3 2.42,5.6 3.38,4.9 1.56,-1.1 3.23,-2.1 4.96,-3 1.31,-0.7 -0.81,-3 -0.8,-4.8 0,-0.9 -0.32,-1.4 0.78,-2.1 z m 18.02,-4.1 c 1.5,0 4.3,-0.9 6.3,-2.5 2,-1.7 3.3,-4 3.3,-4 0,0 -2.1,1.1 -3.8,0.9 -7.6,-0.9 -13.7,-2.2 -15.4,6.5 -0.4,2.2 0,6 1.1,5.8 1.8,-0.4 3.6,-0.6 5.5,-0.6 1.4,0 0.6,-3 1.3,-4.5 0.4,-0.9 0.4,-1.5 1.7,-1.6 z m 18,4.8 c 1.4,0.6 4.3,1 6.8,0.4 2.5,-0.5 4.7,-2 4.7,-2 0,0 -2.4,0 -3.8,-0.9 -3.7,-2.4 -6.8,-4.6 -9.9,-4.8 -2.2,-0.1 -4.5,0.8 -6.8,3.7 -1.5,1.8 -3,5.4 -1.8,5.7 1.5,0.5 2.9,1 4.4,1.6 0.3,0.1 0.6,0.3 0.9,0.4 1.3,0.7 1.9,-2.4 3.3,-3.5 0.7,-0.5 1,-1.1 2.2,-0.6 z m 13.7,12.3 c 0.7,0.9 2,2.1 3.5,3 0.7,0.4 1.3,0.7 2,0.9 2.5,0.8 5.2,0.6 5.2,0.6 0,0 -2.1,-1.1 -2.8,-2.6 -0.2,-0.2 -0.3,-0.4 -0.4,-0.6 0,0 0,0 0,0 -1.5,-3.4 -3,-6.3 -5,-8 -2,-1.7 -4.8,-2.4 -8.7,-0.6 -2.1,1 -5,3.5 -4.1,4.3 1.3,1.2 2.6,2.6 3.6,4 0.4,0.5 1.1,0.3 1.9,-0.2 0.8,-0.5 1.8,-1.2 2.6,-1.3 0.9,-0.1 1.4,-0.5 2.2,0.5 z m 5.9,17.7 c 0.3,1.6 1.6,4.1 3.5,5.8 2,1.7 4.4,2.6 4.4,2.6 0,0 -1.4,-1.9 -1.5,-3.6 -0.1,-3.7 -0.1,-7 -1,-9.4 -1,-2.6 -3.1,-4.4 -7.5,-4.9 -2.4,-0.3 -6.2,0.4 -5.8,1.6 0.5,1.9 1,3.8 1.3,5.8 0.3,1.4 3.2,0.1 4.8,0.7 0.9,0.3 1.5,0.2 1.8,1.4 z m -1.9,18.3 c -0.2,0.7 -0.3,1.7 -0.3,2.8 0,1.2 0.1,2.6 0.5,3.9 0.8,2.5 2.4,4.6 2.4,4.6 0,0 -0.2,-2.4 0.6,-3.9 0.5,-0.8 0.9,-1.6 1.3,-2.4 0,0 0,0 0,0 2.8,-5.7 4.5,-10.4 -2.3,-14.3 -2,-1.1 -5.8,-1.9 -5.9,-0.8 -0.2,1.9 -0.5,3.7 -1.1,5.4 -0.2,0.6 0.5,1 1.4,1.4 0.8,0.3 1.9,0.7 2.5,1.3 0.6,0.6 1.3,0.8 0.9,2 z m -11.1,14.5 c -1.1,1 -2.7,3.4 -3.2,5.9 -0.6,2.6 -0.1,5.2 -0.1,5.2 0,0 0.9,-2.2 2.3,-3.1 6.5,-4.1 12.1,-6.9 7.9,-14.6 -1.1,-2.1 -3.8,-4.7 -4.5,-3.9 -1.1,1.5 -2.4,2.7 -3.8,3.9 -1.1,0.9 1.4,2.7 1.8,4.4 0.2,0.9 0.6,1.4 -0.4,2.2 z m -17,7.6 c -1.4,0.5 -3.9,2 -5.4,4 -1.5,2.1 -2.2,4.6 -2.2,4.6 0,0 1.7,-1.6 3.4,-1.8 2,-0.2 4,-0.4 5.6,-0.7 4.4,-0.7 7.9,-2.5 7.9,-9 0,-2.3 -1.1,-6.1 -2.2,-5.6 -1.7,0.7 -3.6,1.4 -5.5,1.8 -1.4,0.4 0.1,3.2 -0.3,4.9 -0.2,0.8 0,1.4 -1.1,1.8 -0.1,0 -0.1,0 -0.2,0 z m -18.5,-0.1 c -1.6,-0.2 -4.44,0.2 -6.6,1.5 -2.25,1.3 -3.87,3.4 -3.87,3.4 0,0 2.23,-0.8 3.8,-0.3 7.27,2 12.57,4.6 16.27,-3.5 0.9,-2.1 1.5,-5.9 0.3,-5.9 -1.9,-0.1 -3.9,-0.3 -5.8,-0.6 -1.4,-0.3 -1.2,2.9 -2.2,4.2 -0.6,0.8 -0.7,1.4 -1.9,1.2 z m -17.14,-7.4 c -1.34,-0.7 -4.14,-1.5 -6.62,-1.1 -2.57,0.3 -4.87,1.7 -4.87,1.7 0,0 2.35,0.1 3.63,1.1 1.91,1.5 3.59,3 5.21,4.1 3.32,2.2 6.69,3 11.08,-1 1.73,-1.6 3.73,-4.9 2.63,-5.4 -1.78,-0.8 -3.49,-1.7 -5.12,-2.7 -1.23,-0.8 -2.21,2.1 -3.71,3 -0.51,0.3 -0.82,0.6 -1.25,0.6 -0.25,0.1 -0.56,0 -0.98,-0.3 z m -13.07,-13.2 c -0.98,-1.3 -3.33,-3 -5.8,-3.5 -2.53,-0.5 -5.16,-0.1 -5.16,-0.1 0,0 2.18,0.9 3.02,2.3 3.82,6.4 5.67,11.9 14.02,8.8 2.18,-0.8 5.29,-3.1 4.46,-3.9 -1.35,-1.5 -2.6,-3 -3.76,-4.6 -0.87,-1.2 -2.86,1.2 -4.57,1.4 -0.92,0.2 -1.41,0.5 -2.21,-0.4 z m -7.73,-17.1 c 0,0 0,0 0,0 -0.54,-1.6 -2.24,-3.8 -4.53,-4.9 -2.3,-1.1 -4.96,-1.1 -4.96,-1.1 0,0 1.9,1.2 2.32,2.6 0.51,1.8 0.8,3.5 1.14,5 0.99,4.3 2.7,7.6 9.21,7.6 2.33,0 6.04,-1.1 5.56,-2.2 -0.78,-1.8 -1.46,-3.7 -2.01,-5.6 -0.42,-1.5 -3.11,0.1 -4.81,-0.2 -0.91,-0.2 -1.5,0 -1.91,-1.2 z m -4.32,-18.5 c -0.44,-1.6 -2,-4 -4.21,-5.2 -2.22,-1.3 -4.88,-1.5 -4.88,-1.5 0,0 1.82,1.3 2.14,2.8 1.43,6.7 0.23,11.7 8.94,13.5 2.27,0.5 6.16,0.3 5.89,-1 -0.44,-2.2 -0.86,-4.4 -1.26,-6.5 -0.29,-1.7 -3.12,-0.3 -4.78,-0.8 -0.91,-0.3 -1.49,-0.1 -1.84,-1.3 z m -2.91,-18.8 c -0.3,-1.6 -1.63,-4.1 -3.7,-5.6 -2.09,-1.5 -4.7,-2 -4.7,-2 0,0 1.67,1.6 1.84,3.1 0.45,4 0.1,7.3 1.42,9.9 0.94,1.8 2.74,3.3 6.32,4.3 2.23,0.7 6.12,0.8 5.95,-0.5 -0.23,-1.8 -0.44,-3.6 -0.61,-5.3 0,-0.4 -0.1,-0.9 -0.12,-1.3 -0.15,-1.6 -3.09,-0.4 -4.7,-1.1 -0.87,-0.4 -1.47,-0.2 -1.7,-1.5 z"/>
      <path d="m 73.95,353.8 c 3.36,-15.2 12.19,-24 27.05,-29.5 17.5,-6.5 40.7,2 48.2,19.1 11.4,25.9 0.1,49.9 -26.5,55.5 -25.24,5.4 -50.5,-11.2 -57.56,-38.4 -6.66,-25.6 -8.42,-41.8 -8.3,-59.8 0,-1.9 7.51,-3.6 9.2,-1.6 3.05,3.6 2.85,9.1 1.02,11.6 2.9,3.6 2.57,8.9 0.75,11.3 0.58,0.7 1.04,1.5 1.38,2.3 1.36,3.1 1,6.7 -0.37,8.6 3,3.2 3.19,8.1 1.71,10.5 1.88,1.6 2.9,3.8 3.25,5.8 0.28,1.6 0.16,3.1 -0.34,4.3 3.56,2.3 4.88,6.9 4.02,9.7 1.13,0.5 2.07,1.3 2.83,2.2 1.81,2 2.66,4.7 2.32,6.7 3.76,1.1 6.11,4.6 6.33,7.2 v 0 c 0,0.1 0,0.3 0,0.4 3.93,0.2 6.92,3 7.59,5.7 2.19,-0.5 4.17,-0.1 5.77,0.7 1.2,0.7 2.2,1.6 2.8,2.6 3.6,-1.9 7.5,-1.1 9.5,0.9 1.3,-1.2 2.7,-1.8 4.2,-2.1 1.6,-0.3 3.4,-0.1 4.8,0.6 1.2,-2.3 3.1,-3.6 5,-4.1 0.8,-0.2 1.6,-0.3 2.4,-0.2 0.5,-3.8 3,-6.3 5.7,-6.9 0,-0.2 -0.1,-0.3 -0.1,-0.5 -0.5,-3.5 1.2,-6.7 3.4,-8 -1.8,-3.4 -1,-7.3 0.8,-9.3 -1.8,-1.8 -2.5,-4.1 -2.5,-6.1 0.1,-0.8 0.3,-1.7 0.7,-2.4 -1.7,-0.7 -2.9,-1.6 -3.7,-2.8 -0.8,-1.2 -1.3,-2.7 -1.3,-4.1 -0.6,0 -1.2,-0.1 -1.7,-0.2 -2.8,-0.7 -5.2,-2.8 -5.8,-5.1 -2.7,0.7 -5.1,0.1 -6.9,-1.1 -0.8,-0.6 -1.6,-1.2 -2,-2 -3.4,1.9 -7.2,1.3 -9.2,-0.5 -0.8,0.9 -1.7,1.6 -2.7,2 -1.8,0.9 -3.9,1 -5.6,0.4 -1.28,3.4 -4.24,5.2 -6.86,5.2 0,0.1 0,0.2 0,0.2 -0.2,3.8 -2.75,6.8 -5.32,7.6 0.73,3 -0.23,5.8 -1.75,7.6 -0.43,0.5 -0.91,1 -1.43,1.3 1.9,3.6 1.02,7.7 -0.98,9.7 1.53,1.9 1.81,2.7 1.71,4.7"/>
      <path style="fill:none" d="m 81.37,366.8 c 1.35,0.7 1.61,1.1 2.38,2.1 m -1.56,-12.8 c 0.4,0.3 0.76,0.6 1.07,1 0.62,0.6 1.1,1.3 1.47,2 m 1.49,-12.5 c 0.88,1.2 1.4,2.4 1.68,3.6 m 4.57,-11.6 c 0.51,1.4 0.72,2.7 0.75,3.8 m 7.58,-9 c -0.1,1.4 -0.3,2.7 -0.7,3.8 m 10.4,-5.7 c -0.6,1.3 -1.3,2.4 -2.1,3.3 m 12.2,-2.1 c -1,1.2 -2,2 -3.1,2.6 m 12.5,1.4 c -1.2,0.9 -2.4,1.4 -3.6,1.7 m 11.5,4.7 c -1.5,0.5 -2.8,0.7 -3.9,0.6 m 8.7,7.6 c -1.4,-0.1 -2.7,-0.4 -3.7,-0.8 m 5.1,10.8 c -1.4,-0.6 -2.5,-1.4 -3.3,-2.2 m 1.8,12.3 c -1.2,-1 -2,-2.1 -2.5,-3.1 m -1.9,12.2 c -0.8,-1.3 -1.3,-2.5 -1.5,-3.6 m -5.4,10.8 c -0.3,-1.5 -0.4,-2.8 -0.2,-3.9 m -8.6,8 c 0.2,-1.4 0.6,-2.7 1.1,-3.7 m -11.3,4.7 c 0.6,-1.4 1.5,-2.4 2.4,-3.2 m -12.6,1.6 c 1,-1.1 2.1,-1.9 3.1,-2.5 m -12.28,-1.8 c 1.26,-0.8 2.51,-1.3 3.66,-1.5 m -11.57,-5.2 c 1.28,-0.4 2.49,-0.6 3.59,-0.5 0.13,0 0.26,0 0.38,0 m -10.39,-7.9 c 1.51,-0.2 2.86,0 4.04,0.3 m -9.12,-9.8 c 1.52,0 2.85,0.4 3.97,0.9 m -7.88,-11.1 c 1.51,0.2 2.79,0.7 3.86,1.4 m -6.56,-11.8 c 1.47,0.3 2.68,1 3.64,1.8 m -5.19,-12.7 c 1.44,0.5 2.59,1.3 3.48,2.2 m -4.4,-13.4 c 1.42,0.6 2.53,1.4 3.38,2.4 m -4.14,-13.7 c 1.43,0.5 2.55,1.4 3.39,2.5"/>
    </g>
    <g id="tail">
      <g>
        <path d="m 381.4,81.42 c 1.6,0.52 4.4,0.61 6.7,-0.48 2.2,-0.99 3.8,-2.91 3.8,-2.91 0,0 -2.1,0.7 -3.6,0.1 -6.5,-2.55 -10.1,-6.04 -16.2,-0.32 -1.5,1.45 -3.5,4.57 -2.2,5.04 2.1,0.83 4.2,1.67 6.2,2.54 1.6,0.7 1.9,-2.3 3.2,-3.29 0.7,-0.57 0.8,-1.06 2.1,-0.66 z m 17.6,8.17 c 1.5,0.72 4.4,1.22 6.8,0.51 2.4,-0.61 4.3,-2.22 4.3,-2.22 0,0 -2.3,0.3 -3.6,-0.55 -6.2,-3.61 -9.9,-7.54 -16.5,-2.34 -0.6,0.5 -1.3,1.23 -1.9,1.99 v 0 c -0.7,0.88 -1.1,1.79 -1.1,2.36 v 0 c 0.1,0.22 0.2,0.4 0.4,0.49 2,0.99 4,2.02 5.9,3.09 1.5,0.85 2.1,-2.09 3.5,-2.92 0.8,-0.49 1,-0.96 2.2,-0.41 z m 16.2,11.11 c 1.3,1 4,2.2 6.5,2.1 2.5,-0.1 4.8,-1.1 4.8,-1.1 0,0 -2.3,-0.3 -3.5,-1.5 -5.3,-4.98 -8.5,-9.73 -15.8,-5.74 -1.9,1 -4.6,3.59 -3.4,4.34 1.8,1.3 3.5,2.6 5.2,4 1.2,1.1 2.4,-1.6 3.9,-2.2 0.9,-0.3 1.2,-0.69 2.3,0.1 z m 12.8,15.3 c 0.6,1 1.8,2.4 3.2,3.6 0.6,0.5 1.3,1 2.1,1.4 2.3,1.2 4.8,1.5 4.8,1.5 0,0 -2,-1.6 -2.6,-3.4 -0.1,-0.3 -0.3,-0.7 -0.4,-1 v 0 c -1.4,-3.6 -2.7,-6.7 -4.6,-8.7 -1.9,-2 -4.5,-3 -8.4,-2.1 -0.3,0.1 -0.6,0.2 -1,0.3 -2,0.7 -4.2,2.3 -3.4,3.1 v 0 c 1.4,1.6 2.6,3.4 3.7,5.2 0.8,1.3 2.8,-0.8 4.5,-0.8 0.9,0 1.3,-0.3 2.1,0.9 z m 3.6,20.1 c -0.2,1.7 0.1,4.9 1.2,7.2 1,2.5 2.8,4.2 2.8,4.2 0,0 -0.5,-2.5 0.1,-4.3 1.1,-3.6 2,-6.9 1.9,-9.8 -0.1,-3.6 -1.7,-6.6 -6.2,-8 -2.1,-0.7 -5.7,-0.5 -5.5,0.7 0.4,2 0.5,4.1 0.4,6.1 0,0.3 0.1,0.5 0.2,0.6 v 0 c 0.6,0.8 2.8,0.5 3.9,1.4 0.7,0.5 1.3,0.5 1.2,1.9 z m -9.3,18.3 c 0,0.1 -0.1,0.2 -0.2,0.3 -1.1,1.3 -2.5,3.9 -2.9,6.2 -0.6,2.6 -0.1,5.1 -0.1,5.1 0,0 1,-2.4 2.5,-3.5 1.7,-1.3 3.2,-2.5 4.5,-3.7 3.9,-3.6 6.2,-7.8 2.5,-13.1 -1.2,-1.8 -4.2,-3.9 -4.7,-2.7 -1,1.8 -2.1,3.5 -3.5,5.1 -0.5,0.6 -0.1,1.2 0.5,1.8 0.6,0.7 1.4,1.4 1.7,2.2 0.2,0.8 0.7,1.2 -0.3,2.3 z m -18,9.5 c -1,0.2 -2.3,0.7 -3.5,1.3 -1.1,0.6 -2.2,1.3 -3.1,2.1 -2,1.7 -3.2,3.9 -3.2,3.9 0,0 2.3,-1.2 4.2,-1.2 h 2.3 v 0 c 7.6,-0.4 13.4,-1.8 13.4,-9.5 0,-2.2 -1.2,-5.7 -2.3,-5.1 -1.9,1 -3.8,1.8 -5.8,2.3 -1.5,0.3 0,2.9 -0.5,4.5 -0.3,0.8 -0.2,1.3 -1.5,1.7 z m -20.2,-3.6 c -1.5,-0.8 -4.6,-1.6 -7.2,-1.3 -2.6,0.1 -4.8,1.3 -4.8,1.3 0,0 2.5,0.3 3.9,1.4 3.7,2.8 7.1,5.2 10.5,5.7 2.7,0.4 5.3,-0.5 7.7,-3.4 1.3,-1.7 2.5,-5.2 1.2,-5.4 -1.7,-0.3 -3.4,-0.8 -5,-1.5 -0.2,-0.1 -0.5,-0.2 -0.8,-0.3 -0.7,-0.4 -1.1,0.2 -1.6,0.9 -0.5,0.8 -1,1.8 -1.7,2.2 -0.7,0.5 -1,1 -2.2,0.4 z"/>
        <path d="m 368.8,75.21 c 6.9,2.49 14,5.11 20.9,8.2 12.1,5.4 23.9,12.59 33.1,22.79 3.4,3.8 6.4,8.4 8.3,13.4 v 0 c 1.6,4.3 2.4,8.9 2.2,13.6 -0.5,8.5 -4.3,16.6 -10.3,22.5 -5.9,5.8 -13.8,9.5 -22.2,10 -4.4,0.2 -8.8,-0.5 -12.9,-2.1 -4.6,-1.7 -8.7,-4.5 -12.2,-7.9 -6.3,-5 -6.6,-7.2 -4.2,-7.9 2.7,-0.8 9,0.3 13.7,1.3 3.3,-0.1 5.8,1.5 7,3.4 v 0 c 0.2,0.3 0.3,0.6 0.5,0.9 2.8,-1.4 5.6,-0.9 7.5,0.4 0.3,0.2 0.5,0.4 0.7,0.6 2.5,-2.8 5.7,-3.3 8.2,-2.4 1,-2.8 3.2,-4.5 5.4,-5 0.5,-0.2 1,-0.2 1.5,-0.2 -0.1,-3.6 2.1,-6.5 4.6,-7.4 -1.1,-2.6 -0.7,-5.1 0.4,-6.8 0.3,-0.5 0.7,-1 1.1,-1.4 -2.3,-2.3 -2.8,-5 -2.2,-7.4 v 0 c 0.1,-0.3 0.2,-0.7 0.4,-1 -3.3,-1.5 -5.1,-5 -4.8,-7.8 -0.7,-0.2 -1.3,-0.4 -1.9,-0.6 -2.8,-1.3 -4.9,-4.2 -5.2,-6.6 -4,-0.1 -7.6,-3.3 -8.3,-6.1 -4.2,0.4 -8.1,-2.45 -9.2,-5.23 -2.3,0.44 -4.6,-0.18 -6.5,-1.27 -1.5,-0.87 -2.7,-2.06 -3.2,-3.27 -4.2,1.07 -9,-1.16 -10.3,-4 -2,0.57 -4,0.38 -5.9,-0.26 -4.7,-1.56 0,-14.52 3.8,-12.46 z"/>
        <path style="fill:none" d="m 374.5,85.86 c -1.1,1.04 -2.3,1.73 -3.6,2.08 m 13.9,2.09 c -1.2,0.99 -2.4,1.61 -3.6,1.91 m 13.5,2.88 c -1.2,0.9 -2.5,1.44 -3.8,1.66 m 13.1,4.02 c -1.3,0.7 -2.6,1.1 -3.9,1.2 m 12.3,5.4 c -1.4,0.6 -2.7,0.8 -4,0.7 m 11.1,7.1 c -1.5,0.3 -2.8,0.3 -4,0.1 m 8.6,8.8 c -1,-0.1 -1.9,-0.3 -2.6,-0.6 -0.5,-0.1 -0.9,-0.2 -1.2,-0.4 m 4.9,10.6 c -0.4,-0.2 -0.8,-0.4 -1.2,-0.7 v 0 c -0.7,-0.5 -1.4,-1 -1.9,-1.5 m 0.5,11.6 c -1,-1.2 -1.6,-2.3 -2,-3.4 m -3.9,11.2 c -0.2,-0.6 -0.4,-1.3 -0.5,-1.9 -0.1,-0.7 -0.2,-1.3 -0.2,-1.9 m -7.6,9.1 c 0,-1.5 0.3,-2.8 0.7,-3.9 m -10.2,5.7 c 0.4,-1 0.9,-1.8 1.4,-2.5 0.2,-0.3 0.4,-0.5 0.6,-0.8 m -11.4,1.2 c 0.7,-0.7 1.4,-1.2 2.1,-1.6 0.4,-0.3 0.7,-0.4 1.1,-0.6"/>
      </g>
      <g>
        <path d="m 474.7,154.2 c 2,2.5 -1.2,3 -4.5,3.4 -3.3,0.4 -6.6,0.7 -5.3,2.3 4.1,4.9 17.4,3.9 23.6,13.1 1.8,2.6 -1.4,2.9 -4.8,3 -3.3,0.1 -6.7,0.1 -5.5,1.8 1.7,2.4 5.1,3.6 8.9,5.1 4.9,1.9 10.6,4.3 13.6,9.9 1.4,2.8 -1.8,2.7 -5.1,2.5 -3.3,-0.3 -6.7,-0.6 -5.7,1.3 1.5,2.5 4.8,4.1 8.6,6 4.7,2.5 10,5.5 12.5,11.1 1.4,2.8 -1.9,2.6 -5.1,2.1 -3.3,-0.4 -6.7,-1 -5.8,0.9 1.8,3.8 7.6,5.9 12.8,9.6 3.1,2.3 5.9,5 7.5,8.9 1.2,2.9 -2,2.5 -5.3,1.9 -3.3,-0.6 -6.6,-1.4 -5.8,0.6 2.7,6.2 15.8,8.8 19.6,19.3 1.1,3 -2.1,2.4 -5.3,1.7 -3.3,-0.7 -6.6,-1.6 -5.8,0.4 1.3,3.4 10.2,9.3 14.1,17.1 3.8,7.6 6.1,11.3 7.6,20.9 1.6,10 1.7,27 2.8,27.3 2.6,0.7 4.1,-13.4 4.4,-21.4 0.6,-14 0.3,-18.8 0.5,-26.7 0.4,-12.2 -0.2,-26.1 -0.8,-27.8 -0.7,-2.1 -2.7,0.9 -4.7,3.7 -1.9,2.7 -4,5.2 -5.1,2.3 -3.9,-10.7 3.5,-21.8 0.9,-28.5 -0.8,-2 -2.6,1 -4.5,3.9 -1.8,2.8 -3.8,5.4 -5,2.5 -1.7,-4 -1.7,-8.1 -1.3,-12.1 0.8,-6.4 2.9,-12.4 1.1,-16.5 -1,-2 -2.6,1.2 -4.4,4.1 -1.7,2.9 -3.6,5.5 -4.9,2.7 -2.7,-5.8 -1.9,-12 -1.3,-17.5 0.6,-4.4 1,-8.4 -0.5,-11.2 -1.1,-2.1 -2.5,1.3 -4,4.3 -1.6,3.1 -3.3,5.8 -4.8,3 -3.1,-5.8 -2.8,-12.1 -2.8,-17.9 0.1,-4.3 0,-8.1 -1.7,-10.7 -1.2,-1.9 -2.3,1.5 -3.6,4.7 -1.2,3.1 -2.6,6 -4.4,3.4 -6.4,-9.5 -2.3,-22.3 -6.8,-28.1 -1.5,-1.8 -2.2,1.7 -3.2,5 -1,3.3 -2.2,6.3 -4.1,3.8"/>
        <path d="m 371.1,144.2 c -0.2,-0.6 -0.6,-1.5 -1,-2.3 -0.8,-1.2 -1.8,-2.6 -3.1,-3.5 -1.9,-1.7 -4.4,-2.4 -4.4,-2.4 0,0 1.6,1.9 1.9,3.7 0.1,1.1 0.3,2.2 0.5,3.2 v 0 c 0.6,5.5 3.3,12.8 11.1,11.3 0.5,-0.1 1.2,-0.3 1.8,-0.6 v 0 c 1.4,-0.8 2.7,-2 2.5,-2.7 v 0 c 0,-0.1 0,-0.1 -0.1,-0.2 -1.2,-1.3 -2.1,-3 -2.8,-4.9 -0.2,-0.7 -0.9,-0.7 -1.8,-0.5 -0.8,0.2 -1.9,0.5 -2.7,0.3 -0.9,-0.2 -1.4,0 -1.9,-1.4 z m 0.1,-20.3 c 0.4,-1.6 0.6,-4.9 -0.1,-7.4 -0.7,-2.5 -2.1,-4.6 -2.1,-4.6 0,0 0.1,2.6 -0.8,4.3 -1.1,2.3 -2.1,4.5 -2.7,6.5 -1.4,4.7 -1.1,8.9 4.2,11.7 1.9,1.1 5.6,1.6 5.5,0.3 0,-2.1 0.3,-4.1 0.7,-6.2 0.4,-1.5 -2.6,-1.3 -3.8,-2.5 -0.6,-0.5 -1.1,-0.7 -0.9,-1.7 z m 12.5,-16.4 c 1.3,-0.9 3.6,-3.2 4.7,-5.5 1.2,-2.32 1.3,-4.83 1.3,-4.83 0,0 -1.5,2 -3.2,2.69 -2.9,1.24 -5.5,2.34 -7.6,3.84 -3.7,2.6 -5.6,6.2 -3.3,11.1 0.9,2 3.5,4.5 4.2,3.5 1.3,-1.6 2.7,-3.1 4.3,-4.3 0.6,-0.4 0.3,-1.1 -0.1,-1.8 -0.4,-0.8 -1.1,-1.7 -1.1,-2.5 v -0.3 c -0.1,-0.7 -0.3,-1.2 0.8,-1.9 z m 19.5,-5.1 c 1.1,-0.1 2.5,-0.5 3.8,-1.1 1,-0.5 1.9,-1 2.6,-1.75 2,-1.64 3,-3.91 3,-3.91 0,0 -2,1.27 -3.7,1.15 -0.6,0 -1.2,-0.1 -1.7,-0.1 v 0 c -6.4,-0.44 -12.4,-0.83 -14.4,6.91 -0.5,2.2 -0.2,5.8 1,5.5 2.1,-0.5 4.2,-0.8 6.3,-0.9 1.6,0 0.6,-2.9 1.4,-4.4 0.4,-0.8 0.4,-1.3 1.7,-1.4 z m 19.7,2.8 c 1.7,0.4 4.6,0.4 6.9,-0.7 2.3,-1 3.9,-2.9 3.9,-2.9 0,0 -2.2,0.7 -3.7,0.1 -7.2,-2.67 -12.1,-5.73 -17.1,1.1 -1.3,1.8 -2.4,5.2 -1.1,5.4 2.1,0.4 4.2,0.9 6.3,1.5 1.5,0.5 1.5,-2.5 2.7,-3.6 0.7,-0.7 0.8,-1.2 2.1,-0.9 z m 17.9,8.3 c 1.5,0.8 4.3,1.5 6.7,0.9 2.5,-0.5 4.4,-2 4.4,-2 0,0 -2.2,0.2 -3.6,-0.8 -6.1,-3.9 -9.7,-8.1 -16.4,-3 -0.2,0.2 -0.5,0.4 -0.7,0.6 -1.6,1.5 -3,3.8 -2,4.2 v 0 c 2,1 3.9,2.1 5.8,3.2 1.4,0.9 2.1,-2 3.6,-2.8 0.8,-0.4 1,-0.9 2.2,-0.3 z m 15.6,11.7 c 1.4,1 4,2.1 6.5,1.8 2.5,-0.2 4.6,-1.4 4.6,-1.4 0,0 -2.2,-0.1 -3.4,-1.2 -2.1,-1.8 -3.7,-3.6 -5.4,-4.9 -2.6,-2.1 -5.4,-3 -10,-0.7 -2,0.9 -4.7,3.4 -3.6,4.2 1.7,1.3 3.4,2.8 5.1,4.2 1.1,1.1 2.2,-1.1 3.6,-1.9 v 0 c 0.1,-0.1 0.3,-0.1 0.4,-0.2 0.9,-0.3 1.2,-0.7 2.2,0.1 z m 13.9,13.5 c 1.2,1.2 3.7,2.5 6.2,2.5 2.5,0 4.7,-1 4.7,-1 0,0 -2.2,-0.3 -3.2,-1.5 -4.7,-5 -6.7,-9.9 -14.6,-7.2 -2,0.6 -5.1,2.7 -4.1,3.6 1.6,1.6 3.1,3.3 4.6,4.9 1,1.3 2.6,-1.3 4.2,-1.6 0.9,-0.2 1.2,-0.6 2.2,0.3 z"/>
        <path d="m 385.2,149.1 c 0,-0.8 -0.3,-1.6 -0.7,-2.4 -0.3,-1 -1,-2.3 -3.3,-3.5 0.6,-1 0.9,-2.3 0.7,-3.7 -0.1,-1.8 -0.7,-3.6 -2.3,-5.2 1.7,-1.6 2.6,-4.5 2,-7.1 -0.1,-0.5 -0.3,-1 -0.6,-1.6 2.5,-0.9 4.4,-3.6 4.3,-7 1.2,0.1 2.4,-0.2 3.5,-0.7 1.2,-0.7 2.4,-1.9 3.3,-3.7 2.2,1.2 6.2,1 9,-1.8 1.3,1.1 3.3,1.7 5.5,1.5 1.4,0 3,-0.4 4.4,-1.3 1.6,2.2 5.9,3.7 9.6,2.2 1,1.9 3.4,3.5 6.2,4 1,0.2 2.1,0.2 3.2,-0.1 1,2.7 4.8,5.7 9,5.4 0.6,2.8 4.2,6.2 8.5,6.4 0,0.5 0.2,1.1 0.5,1.7 1.2,2.5 4,5 7.5,5.4 0.6,4 4,7.5 7.5,7.8 0.9,2.8 5.1,5.9 9.4,5.5 0.3,1.2 1.3,2.1 2.3,3.3 6.6,7.9 7.7,6.3 20.3,23.6 3.1,4.3 5.5,9 8.1,13.7 1.2,2.3 2.4,4.6 3.6,7 2.4,4.6 4.6,9.3 6.8,14 1.8,3.8 3.4,7.6 5.1,11.4 1.5,3.4 2.9,6.8 4.3,10.2 3,7.3 6.1,14 8.8,21.3 2.7,7.4 4.3,9 6.7,16.5 -2.3,-7.4 -2.4,-9.6 -5.1,-16.9 -2.7,-7.4 -4.8,-14.3 -7.8,-21.6 -1.5,-3.5 -3,-7.1 -4.5,-10.6 -1.6,-3.7 -3.3,-7.4 -5,-11.1 -2.2,-4.8 -4.5,-9.7 -7,-14.4 -1.1,-2.3 -2.3,-4.5 -3.5,-6.8 -2.6,-4.8 -5.4,-9.4 -8.3,-14.1 -9.7,-15.9 -9.4,-18.8 -15.9,-27 -7.6,-9.6 -16,-18.5 -25.4,-26.5 v 0 c -7.2,-6.1 -15.1,-11.6 -23.8,-15.6 -7.8,-3.6 -16.3,-6 -25.1,-6.3 -8.5,-0.4 -17.8,1.1 -25.6,6.3 -5.7,4 -9.8,10 -11.6,16.6 v 0 c -1.7,5.9 -1.8,12.2 -0.6,18.2 0.8,4.6 2.5,9.7 6.5,13.6 l 0.3,0.3"/>
        <path style="fill:none" d="m 381.3,150 c 1.5,-0.6 2.7,-0.8 3.9,-0.9 m -7.8,-7.2 c 1.6,0.3 2.8,0.8 3.8,1.3 m -4.7,-11.3 c 1.3,0.7 2.4,1.5 3.2,2.4 m -0.8,-11.9 c 1,1.1 1.7,2.2 2.1,3.2 m 3.7,-10.7 c 0.4,1.4 0.6,2.6 0.6,3.7 m 7.9,-8.1 c -0.2,1.5 -0.6,2.7 -1.1,3.7 m 11.3,-5.2 c -0.6,1.4 -1.4,2.6 -2.3,3.4 m 12.8,-2.6 c -0.9,1.2 -1.9,2.1 -2.9,2.8 m 13,0 c -1.1,1.1 -2.2,1.8 -3.4,2.2 m 13.2,2.3 c -1.3,0.9 -2.5,1.4 -3.8,1.7 m 12.9,4.1 c -1.3,0.7 -2.6,1.1 -3.9,1.2 m 12.5,5.6 c -0.6,0.3 -1.3,0.5 -1.9,0.6 v 0 c -0.8,0.2 -1.5,0.2 -2.1,0.2 m 12.1,6.7 c -1.4,0.5 -2.8,0.6 -4.1,0.4 m 11.3,6.3 c -1.3,0.9 -2.5,1.3 -3.8,1.5 m 13.3,4.1 c -1.3,0.8 -2.6,1.3 -3.9,1.4"/>
      </g>
    </g>
    <g id="neck_left">
      <path d="m 81,203.5 c 0.13,-0.1 0.26,-0.3 0.39,-0.5 0.86,-1.4 1.74,-3.7 1.72,-5.9 0,-2.6 -1.01,-5 -1.01,-5 0,0 -0.39,2.3 -1.58,3.4 -1.26,1.2 -2.45,2.2 -3.51,3.2 0,0 0,0 0,0 -2.23,2.1 -3.97,4.3 -3.95,7.1 0,1.5 0.56,3.4 2.05,5.3 0.74,1 1.84,1.9 2.95,2.5 1.07,0.6 1.98,0.9 2.19,0.6 0.37,-0.7 0.92,-1.4 1.55,-2.3 0.52,-0.7 1.07,-1.3 1.64,-2 0.96,-1.1 -1.82,-2.5 -2.43,-4.1 -0.32,-0.9 -0.81,-1.3 0,-2.3 z m 14.97,-11.2 c 0.71,-0.5 1.54,-1.3 2.28,-2.3 0.7,-0.9 1.34,-2 1.71,-3.2 0.84,-2.4 0.54,-5.1 0.54,-5.1 0,0 -1.04,2.1 -2.51,2.8 -0.67,0.3 -1.32,0.6 -1.95,0.9 0,0 0,0 0,0 -5.58,2.5 -10.05,4.2 -8.33,12 0.49,2.3 2.31,5.7 3.31,5 1.64,-1.2 3.35,-2.3 5.12,-3.3 1.33,-0.7 -0.85,-3 -0.89,-4.7 0,-0.9 -0.35,-1.4 0.72,-2.1 z m 17.73,-6.2 c 0.3,0 0.7,-0.2 1,-0.3 1.5,-0.7 3.3,-1.9 4.4,-3.6 1.5,-2.1 1.9,-4.8 1.9,-4.8 0,0 -1.5,1.7 -3.1,2 -1.5,0.2 -2.8,0.3 -4.1,0.5 0,0 0,0 0,0 -5,0.5 -8.9,1.6 -9.5,8.6 -0.3,2.3 0.4,6.1 1.6,5.7 1.9,-0.6 3.9,-1.1 5.8,-1.5 1.5,-0.3 0.2,-3.1 0.6,-4.7 0.3,-0.9 0.2,-1.5 1.4,-1.9 z m 18.8,-1.2 c 1.7,-0.1 4.3,-1.1 6,-3 0.3,-0.3 0.6,-0.6 0.9,-1 1.2,-1.6 1.8,-3.3 1.8,-3.3 0,0 -0.7,0.5 -1.7,0.9 0,0 0,0 0,0 -0.5,0.3 -1.1,0.5 -1.7,0.5 -6.9,-0.2 -11.8,-2.3 -15.1,6 -0.8,2.1 -1.2,6 0.1,5.9 2.1,0 4.2,0 6.3,0 1.6,0.1 0.9,-3 1.7,-4.5 0.5,-0.8 0.4,-1.4 1.7,-1.5 z m 18.7,2.3 c 1.5,0.3 4.4,0.1 6.6,-1.2 2.2,-1.3 3.8,-3.4 3.8,-3.4 0,0 -2.1,0.8 -3.7,0.4 -6.9,-2.2 -11.7,-5.4 -16.2,2.3 -1.2,2 -2.2,5.7 -1,5.8 2,0.3 3.9,0.7 5.9,1.2 1.4,0.4 1.4,-2.7 2.6,-4 0.6,-0.7 0.7,-1.3 2,-1.1 z m 17.4,7.3 c 0.7,0.2 1.6,0.5 2.6,0.6 1.3,0.1 2.8,0 4.2,-0.5 2.4,-0.9 4.3,-2.7 4.3,-2.7 0,0 -2.2,0.5 -3.6,-0.3 -0.8,-0.4 -1.5,-0.9 -2.2,-1.3 0,0 0,0 0,0 -4.8,-2.9 -8.3,-5.5 -14.1,-0.2 -1.7,1.6 -3.8,4.9 -2.6,5.4 1.9,0.9 3.8,1.8 5.7,2.8 1.4,0.8 2.1,-2.3 3.5,-3.3 0.8,-0.5 1.1,-1.1 2.2,-0.5 z m 16,10.2 c 1.4,0.8 4.1,1.6 6.6,1.1 2.5,-0.5 4.7,-2 4.7,-2 0,0 -2.3,0.1 -3.5,-0.8 -5.5,-4.2 -8.3,-8.8 -15.8,-4 -1.9,1.2 -4.6,4.1 -3.5,4.8 1.8,1.2 3.5,2.5 5.2,3.8 1.3,1 2.5,-2 4,-2.7 0.9,-0.4 1.2,-0.9 2.3,-0.2 z m 14.3,12.4 c 0.5,0.5 1.3,1 2.3,1.4 1.2,0.5 2.6,0.8 4,0.7 2.6,-0.2 4.9,-1.5 4.9,-1.5 0,0 -2.2,-0.1 -3.3,-1.2 -0.6,-0.6 -1.2,-1.2 -1.7,-1.7 0,0 0,0 0,0 -3.8,-4.2 -6.2,-7.6 -13.3,-4.5 -2.1,1 -5.2,3.4 -4.2,4.3 1.6,1.5 3.1,3 4.6,4.5 1.2,1.2 2.7,-1.6 4.4,-2.1 0.9,-0.2 1.3,-0.7 2.3,0.1 z m 13,14 c 1.2,1.1 3.7,2.3 6.3,2.2 2.5,0 4.9,-1.2 4.9,-1.2 0,0 -2.2,-0.2 -3.3,-1.3 -4.7,-5 -6,-9.8 -14.5,-7.1 -2.2,0.7 -5.5,2.8 -4.6,3.8 1.5,1.7 2.9,3.4 4.4,5.1 1.1,1.3 2.8,-1.4 4.5,-1.8 0.9,-0.2 1.3,-0.6 2.3,0.3 z m 12.2,14.5 c 1.2,1.3 3.7,2.5 6.2,2.3 2.5,-0.3 4.7,-1.8 4.7,-1.8 0,0 -2.1,0.2 -3.1,-0.8 -1.3,-1.3 -2.3,-2.7 -3.1,-3.8 -2.4,-3.2 -4.8,-5.2 -10.8,-3.6 -2.2,0.6 -5.6,2.5 -4.8,3.6 1.4,1.7 2.7,3.4 4,5.2 1,1.3 2.9,-1.2 4.6,-1.5 0.9,-0.1 1.3,-0.4 2,0.1 0,0 0,0 0,0 0.1,0.1 0.2,0.2 0.3,0.3 z m 14,13.3 c 1.4,0.9 4.1,1.5 6.6,0.8 0.5,-0.1 1,-0.3 1.5,-0.6 1.5,-0.9 2.5,-2.1 2.5,-2.1 0,0 -0.6,0.3 -1.3,0.3 0,0 0,0 0,0 -0.6,0 -1.2,-0.1 -1.7,-0.5 -5.8,-3.8 -6.8,-7.7 -15.2,-4.4 -2.1,0.8 -5.4,3 -4.4,4 1.8,1.8 3.6,3.4 5.4,5 1.4,1.2 2.6,-1.7 4.2,-2.4 0.9,-0.4 1.3,-0.9 2.4,-0.1 z m 17.2,8.4 c 1.8,0.2 4.5,-0.5 6.3,-2.3 1.8,-1.8 2.6,-4.3 2.6,-4.3 0,0 -1.7,1.4 -3.1,1.3 -2.7,-0.2 -4.8,-1 -6.7,-1.3 -2.7,-0.4 -4.4,0.3 -8.6,3.4 -1.8,1.3 -4.8,4.1 -3.2,5 2.6,1.5 5.2,2.5 7.7,3.3 0.7,0.2 1.1,-0.1 1.4,-0.6 0.6,-0.9 0.8,-2.5 1.6,-3.4 0.7,-0.7 0.7,-1.3 2,-1.1 z m 19.2,1.8 c 1.6,0 4.3,-1 6,-2.8 1.8,-1.9 2.7,-4.4 2.7,-4.4 0,0 -1.8,1.4 -3.3,1.4 -7.1,-0.3 -10.9,-2.6 -15.3,5.1 -0.1,0.1 -0.1,0.2 -0.2,0.4 -1.1,2 -2.1,5.3 -0.7,5.5 0.1,0 0.1,0 0.2,0 2.3,0.3 4.6,0.5 6.8,0.7 1.7,0.1 1,-3 2,-4.5 0.5,-0.8 0.5,-1.4 1.8,-1.4 z"/>
      <path d="m 94.07,213.8 c 3,-2 6.83,-1.9 10.23,-0.2 0.3,-2.2 1,-4 1.9,-5.5 4.1,-6.1 11.2,-4.7 15.1,-0.3 2.4,-4.3 5.9,-6.2 9.1,-6.2 4.1,0 7.5,2.9 9.1,6.7 6.1,-5.1 12.1,-3.5 15.1,0.3 1.3,1.7 2.1,3.9 2.3,6.2 5.3,-2.1 9.6,-1.1 12.2,1.4 2.7,2.4 3.7,6.2 3.2,10 2.9,-0.4 5.4,0 7.4,0.8 v 0 c 3.4,1.3 5.1,4.3 5.4,7.4 0.2,2.2 -0.2,4.4 -1.1,6.5 11.7,2 13.1,11.3 9.8,18.1 1.9,0.5 3.4,1.1 4.8,1.9 v 0 c 7.1,3.8 7.8,10.9 5.2,17 8.6,2.2 11.8,7.3 11.9,13 0,1.9 -0.3,3.8 -1,5.7 10.3,1.9 11.7,6.8 12,13.6 0,1 -0.1,2 -0.2,3.1 5.4,0.1 8.3,1.2 10.9,2.9 7.4,4.8 12.6,0.7 15.5,2.5 l -19.8,-43 -32,-44.4 -33.8,-29.4 -39.3,-11.9 -40.47,16.1 z"/>
      <path d="m 254.6,320.3 c -8.2,2.1 -17.8,-8.6 -21.5,-12.9 -5.6,-5.9 -9.7,-12.2 -13.8,-18.8 -12.1,-19.6 -21.5,-41.6 -31.1,-56.2 -1.9,-3 -3.9,-5.6 -6,-7.8 -8.7,-9.1 -17.5,-15.3 -26.1,-19.3 -8.5,-4 -17.1,-5.9 -25.6,-6.2 -8.4,-0.2 -17.5,1.3 -26,5.2 -6.94,3.2 -14.19,8.4 -20.35,15.8 l -10.19,-8.3 c 1.59,-3.5 8.68,-14.2 24.34,-21.7 9.3,-4.4 20.6,-7 40.9,-5.8 20.2,1.2 44.6,15.8 62.1,34.1 9.2,9.7 17.4,18.9 23.2,26.4 6.5,8.3 13.5,13.1 19.6,17.4 10,6.9 29.8,5.2 43.8,7.2"/>
    </g>
    <g id="wing_left">
      <path style="fill:#ffffff" d="m 385.2,241.2 c 6.7,-7.2 14,-6.7 18.9,0.1 1.3,1.7 -0.3,4.8 -1.6,5.9 -1.4,1.2 -4.8,2.1 -5.5,0.3 -1.9,-4.3 -4.3,-8 -11.8,-6.3 z"/>
      <path d="m 346.4,307.7 c 19,-2.6 31.7,4.5 38.1,23.3 3.2,-11.4 15,-12.2 21.1,-4.7 5.9,7.3 9.8,22.4 4.7,39.6 10,-19.9 24.6,-20 29.8,-7.9 4.4,10.6 2.4,30 -3.6,46.2 8.4,-6.9 17.1,4.8 12.8,19.6 -3.4,11.8 -16.7,25.2 -33.3,35.3 10.9,2.7 15.5,23.4 -6.3,34.6 -10.5,5.4 -23.9,10.3 -41.8,11 10.2,20.9 -14.2,29.1 -46.2,35.6 -28.1,5.6 -63.4,1.4 -71.9,6.9 3.5,2.3 32.9,3.6 48.1,2.6 54.1,-3.8 123.8,-16.6 171.8,-105.6 27.2,-50.4 18.2,-158.6 -65.5,-205 -3.2,-1.8 -7.9,7.9 -6.8,10.9 1.6,4.4 4.7,4.4 -2.3,12.2 -15.8,17.6 -38.6,20.8 -55.4,14"/>
      <path style="fill:#2b2b00;stroke:none" d="m 474.8,404.2 c 0.6,-2 1.1,-4 1.8,-5.9 0.3,-1.1 0.7,-2.1 1.1,-3 0.1,-0.3 0.2,-0.5 0.3,-0.6 0.1,0 0.1,0 0,0 -0.1,0.1 -0.2,0.1 -0.3,0 -0.1,-0.2 -0.2,-0.1 -0.1,0 0,0.2 0.1,0.4 0.1,0.7 0,1.9 -0.3,3.9 -0.5,5.9 0,0 0,0 0,0 -0.4,2.7 -0.8,5.3 -1.3,8 0,0 0,0 0,0 -1.7,8.7 -4.1,17.2 -7.3,25.3 -5.6,14.2 -13.3,27.2 -22.2,38.6 -14.1,18.1 -30,32.3 -46.2,42.8 -21.3,13.8 -42.5,20.8 -56.9,24.6 -14.7,3.7 -23.4,4.7 -23.4,4.7 0,0 8.7,-0.9 23.5,-4.6 14.3,-3.6 35.6,-10.5 57.1,-24.2 16.3,-10.5 32.3,-24.7 46.6,-42.8 9,-11.4 16.7,-24.4 22.4,-38.7 3.2,-8.2 5.7,-16.8 7.3,-25.6 0,0 0,0 0,0 0.5,-2.6 1,-5.3 1.3,-8 0,0 0,0 0,0 0.3,-2 0.6,-4 0.6,-6 0,-0.3 -0.1,-0.6 -0.1,-0.9 0,-0.1 -0.1,-0.4 -0.4,-0.7 -0.2,-0.1 -0.4,-0.1 -0.6,0 -0.2,0.1 -0.3,0.2 -0.3,0.3 -0.2,0.2 -0.4,0.5 -0.5,0.7 -0.5,1.1 -0.8,2.1 -1.2,3.2 -0.6,1.9 -1.2,3.9 -1.7,5.9 0,0 0,0 0,0 0,0 0,0 0,0 -5.3,18.7 -10.7,33.4 -17.8,46.4 -6.4,11.9 -12.4,18.7 -12.4,18.7 0,0 6.2,-6.6 12.9,-18.4 7.2,-12.8 13,-27.8 18.2,-46.4 0,0 0,0 0,0 0,0 0,0 0,0 z m -11.9,-77.8 c 0.7,4.5 1.4,8.6 1.9,12.8 0.8,6.6 1.3,12.8 1.5,18.7 1.1,30.5 -4.9,48.6 -4.9,48.6 0,0 6.6,-18 5.8,-48.6 -0.2,-5.9 -0.6,-12.2 -1.5,-18.8 -0.5,-4.2 -1.1,-8.4 -1.8,-12.8 0,0 0,0 0,0 -1.9,-11.7 -2.6,-12.7 -1.6,-13 0,0 0.1,0 0.4,0.2 2.9,3 8.6,23.1 9.5,37 0,0 0,0 0,0 1,17.8 -0.1,33.9 -2.4,48.1 -6.8,40.5 -22.8,60.7 -22.8,60.7 0,0 16.5,-19.9 23.6,-60.6 2.5,-14.2 3.6,-30.3 2.6,-48.2 0,0 0,0 0,0 -0.9,-14.1 -6.6,-34.4 -9.8,-37.7 -0.4,-0.4 -0.9,-0.7 -1.5,-0.5 -2,0.8 -0.9,2.5 1,14.1 0,0 0,0 0,0 z m -28.5,-51.5 c 4.8,14.8 8.2,26.6 10.6,38.4 5.4,25.6 3.7,41.4 3.7,41.4 0,0 2.2,-15.8 -2.9,-41.6 -2.3,-11.8 -5.7,-23.8 -10.4,-38.5 0,0 0,0 0,0 -0.7,-2.2 -0.7,-3.1 -0.7,-3.2 0,0 -0.2,0.1 -0.2,0.1 0,0 0,0 0,0 0,0 0,0 0,0 0,0 0,0.1 0.1,0.1 0,0 0,0 0,0 0.2,0.1 0.3,0.3 0.6,0.5 0.5,0.6 1.3,1.6 2.2,3 4.4,6.8 12,21.8 15.9,36.2 0,0 0,0 0,0 4,14.9 6.6,27.7 8.1,39.7 3.4,29.2 -1.4,46.5 -1.4,46.5 0,0 5.4,-17.2 2.2,-46.6 -1.4,-12 -3.9,-25 -7.9,-39.8 0,0 0,0 0,0 -4,-14.5 -11.6,-29.7 -16.1,-36.6 -1.8,-2.7 -3.4,-4.8 -4.3,-3.7 -0.4,0.5 -0.2,1.9 0.5,4.1 0,0 0,0 0,0 z m -17.1,-12.2 c 0.3,0.8 0.4,1.7 0.6,2.6 0.3,1.4 0.5,2.8 0.7,4.1 0.6,4 1.1,8 1.4,11.4 0.5,5.1 0.8,9.4 0.9,13.1 0,0 0,0 0,0 0.4,7.5 0.1,11.8 0.1,11.8 0,0 0.5,-4.3 0.4,-11.8 0,0 0,0 0,0 0,-3.7 -0.2,-8 -0.6,-13.1 -0.2,-3.5 -0.6,-7.5 -1.2,-11.5 -0.2,-1.4 -0.4,-2.8 -0.7,-4.2 -0.2,-0.9 -0.4,-1.8 -0.7,-2.7 0,0 0,0 0,0 -0.7,-2 -1,-3.4 -0.8,-3.9 0,0 0,0 0,0 0,0 0,0 0,0 0,0 0,0 0,0 0,0 0.1,0.1 0.3,0.2 1.2,0.8 3.9,4.2 8.2,11.6 0,0 0,0 0,0 2.6,4.4 4.5,9.3 6.1,13.8 2.5,6.7 4.4,13.3 6,19.2 2.2,8.2 3.8,15.3 4.9,21.4 0,0 0,0 0,0 2.3,12.8 2.5,20.2 2.5,20.2 0,0 0,-7.4 -2.1,-20.3 0,0 0,0 0,0 -1,-6.1 -2.4,-13.3 -4.5,-21.5 -1.5,-5.9 -3.4,-12.6 -5.9,-19.4 -1.6,-4.4 -3.5,-9.4 -6.1,-13.9 0,0 0,0 0,0 -5.4,-9.3 -8.4,-12.7 -9.8,-12.2 -1.1,0.4 -0.7,2.6 0.3,5.1 0,0 0,0 0,0 z m -14.3,5.7 c -1.6,11.7 -5.9,23.1 -8.2,29.4 -2.6,6.9 -4.3,10.8 -4.3,10.8 0,0 1.9,-3.8 4.8,-10.7 2.6,-6.2 7,-17.4 8.7,-29.4 0,0 0,0 0,0 1,-7.3 2.3,-11.5 3.8,-14.2 0,0 0,0 0,0 0.1,-0.2 0.2,-0.4 0.4,-0.5 0.1,-0.1 0.2,-0.1 0.3,-0.1 0.6,0.1 1,0.7 1.4,1.3 0.8,1.1 1.4,2.5 1.9,3.8 0.8,2.1 1.4,4.3 1.9,6.4 1.7,7.6 2.5,15.2 2.9,21.4 1.6,21 0.6,33.7 0.6,33.7 0,0 1.4,-12.6 0.2,-33.7 -0.4,-6.3 -1,-14 -2.8,-21.6 -0.5,-2.1 -1.1,-4.4 -1.9,-6.6 -0.5,-1.3 -1.1,-2.7 -1.9,-4 -0.5,-0.7 -1.1,-1.4 -2.1,-1.7 -0.4,0 -0.7,0.1 -1.1,0.3 -0.3,0.2 -0.6,0.5 -0.7,0.9 0,0 0,0 0,0 -1.5,2.8 -2.9,7.1 -3.9,14.5 0,0 0,0 0,0 z m -18.9,11.4 c -14.2,8.2 -25.7,8.4 -25.7,8.4 0,0 11.7,0.9 26.2,-7.6 0,0 0,0 0,0 9.2,-5.4 10.8,-9.1 12.2,-9.2 0,0 0,0 0,0 0.1,0 0.1,0.1 0.2,0.1 0.1,0.1 0.1,0.3 0.2,0.5 0.2,0.8 0.1,1.7 0.1,2.5 -0.3,3.1 -0.9,6.2 -1.5,8.9 -1,4.1 -2,7.8 -2.8,10.7 0,0 0,0 0,0 -1.8,5.9 -3.1,9.2 -3.1,9.2 0,0 1.6,-3.2 3.6,-9.1 0,0 0,0 0,0 0.9,-2.8 2.1,-6.5 3.1,-10.6 0.7,-2.7 1.4,-5.8 1.6,-9 0.1,-0.9 0.2,-1.8 -0.1,-2.8 0,-0.3 -0.1,-0.6 -0.4,-0.9 -0.2,-0.3 -0.5,-0.5 -0.9,-0.5 0,0 0,0 0,0 -2,0.1 -3.5,4 -12.7,9.4 0,0 0,0 0,0 z"/>
      <path style="fill:none" d="m 336.3,312.9 c 4.7,3.4 11.1,2.3 13.9,-1.8 m -22,-35.7 c 2.3,-3.9 8.2,-4.7 12.2,-2.5"/>
    </g>
    <g id="leg_left">
      <path style="fill:#ffffff" d="m 189.3,398.5 c 6.1,-7.6 13.4,-7.6 18.8,-1.2 1.4,1.7 0,4.9 -1.2,6 -1.3,1.4 -4.6,2.4 -5.5,0.7 -2.1,-4.1 -4.8,-7.6 -12.1,-5.5 z m -13.6,19.3 c 2.4,-9.5 9,-12.5 16.7,-8.9 1.9,0.9 2,4.4 1.4,6 -0.7,1.7 -3.3,4.1 -4.8,2.9 -3.6,-2.9 -7.5,-5 -13.3,0 z m 51.6,65.4 c 9.6,1.9 15.2,-2.7 15.3,-11.2 0,-2.1 -3.1,-3.7 -4.8,-3.8 -1.9,-0.2 -5.1,1.1 -4.7,3 1,4.5 1.2,9 -5.8,12 z m -50.9,-37.6 c -4.5,-8.7 -1.5,-15.4 6.6,-17.7 2,-0.6 4.4,2 5,3.5 0.6,1.8 0.3,5.3 -1.6,5.4 -4.7,0.2 -9,1.2 -10,8.8 z m 163.4,11.6 c 9.3,-2.9 12,-9.7 8,-17.1 -1,-1.9 -4.5,-1.8 -6,-1.1 -1.7,0.8 -4,3.5 -2.7,4.9 3.1,3.5 5.4,7.3 0.7,13.3 z"/>
      <path d="m 316.2,326.1 c -20.5,23.4 -20,69.4 1.3,88.9 -1.8,2.1 -3.3,5 -3.1,8.1 -4.6,1.6 -7.6,5.9 -13.9,6.9 -7.6,1.1 -17.1,3.9 -34.1,4.4 -18.7,0.7 -36.5,-4.1 -53.2,-35.8 -0.4,-0.9 -1.8,-2 -2.6,-1.4 -3.3,2.4 -5.7,4.8 -7.9,8.3 -0.8,1.3 -1.1,3.9 0.1,4.8 8.7,6.4 12.8,9.5 21.4,15.9 -11,-1.9 -6.6,22.8 23.1,20 1.2,-0.2 1.8,0.1 2.6,0.3 7.6,1.7 14.8,3.3 18.3,3.7 13,1.6 47,3.6 65.9,-4.3 0.8,0.7 1.2,1.9 3.1,1.4 6,-1.5 12.1,-5.8 12.7,-8.2 0.1,-0.6 0.5,-1 1.4,-1.5 1.2,-0.6 1.7,-3.3 1.3,-4.4 -16.9,-47.8 41.1,-35.6 44.3,-68.9"/>
      <path d="m 227,426.5 c -9.6,-8 -19.7,-11.8 -28.2,-21.8 -0.9,-1 -3.3,-1.2 -4,0 -2.5,4.5 -3.8,8.7 -4.5,13.8 -0.2,1.5 0.2,3.9 1.7,4.1 12.6,2.3 20.6,5.5 31,9.8"/>
      <path d="m 222.5,431.3 c -10.7,-4.8 -19.6,-8.6 -35.7,-9.8 -1.3,-0.1 -2.2,1.3 -2.3,2.6 -0.3,4.6 0.5,10 2,14.4 0.5,1.6 1.1,2.9 3.3,1.8 21.4,-10.5 45.9,7.8 39.8,27.4 -0.4,1.3 -0.6,3.1 1.4,3.6 4.8,1 10,0.8 14.4,-1.2 1,-0.5 1.9,-1.8 0.6,-3.4 -7.9,-10.1 -3.4,-12.9 -2.6,-15.7 0.4,-1.6 2.6,-2.4 3.9,-4.8"/>
      <path style="fill:none" d="m 334.1,445.9 c 1.3,-0.6 2.5,-1.2 3.7,-1.8 m -105.8,-3.9 c 0.3,4.7 5.2,7.5 9.5,7.1 2,0 3.9,-0.7 5.8,-1.1 m 67.1,-23.1 c 0.1,1.2 0.4,2.4 1,3.5 m 2.1,-11.6 c 1.7,1.5 3.5,2.9 5.4,4.1 m 22.1,11.4 c 1.1,2.1 0.4,4.5 -1.6,5.8 m 61.5,-78 c 0.5,4.7 -1.7,11.8 -10.8,15.4 m -82.8,-54 c -3.6,3 -7,9.5 -3,18.5"/>
    </g>
    <g id="heads">
      <g id="head">
        <path style="fill:#ffff00" d="m 168.7,114.9 c -2.4,-0.8 -14.2,3.4 -18.2,6.1 -6.7,4.6 -12.5,14.1 -16.4,19.9 -7.6,11 -25.1,13.1 -31.2,7.3 2.5,0.5 5.9,-0.5 7.5,-1.9 -5.2,-3.1 -5.8,-6.7 -4.8,-9.5 6.9,12.2 21.5,5.5 27.1,-1.8 4.4,-6.1 8.3,-13.7 16.3,-17.6 4.9,-2.4 9.9,-4.2 17.1,-5.5"/>
        <path style="fill:#ffffff" d="m 156,126.2 c -2.1,-1.8 -2.6,-4 -2.8,-6.3 1.6,1.6 3.1,3.3 6,3.9 m -5.8,7.4 c -2.3,-2.2 -3,-5.1 -3.4,-8.1 1.9,2.4 3.8,4.7 6.7,5.3 m -6.3,7.4 c -1.6,-1.8 -3.1,-4 -3.3,-8 2,3.1 4.4,4.9 7.1,5.9 m -6.6,5.8 c -2.3,-2.3 -3.4,-4.6 -4,-7.1 2.3,1.5 3.8,4 7,5.2 m -6.3,6 c -2.3,-1.4 -4.8,-5.2 -5.4,-8.5 2.6,2.6 5.4,4.8 8.4,5.5 m -5.4,8.1 c -3.2,-2.1 -6,-4.6 -7.1,-9.1 3.4,2.8 6.5,4.9 9,5.5 m 0.8,-30.4 c 1.1,1.6 2.8,2.8 5.9,3.3 -1.5,-1.8 -3.3,-3.6 -3.1,-6.8 m -6.9,6.9 c 1.5,2.4 3.6,3.1 5.9,3.6 -1.4,-1.9 -3,-3.6 -3.2,-6.5 m -7.1,6.1 c 1.9,2.6 4.7,3.7 7.6,4.4 -2.1,-2.2 -4.2,-4.3 -4.4,-7.3 m -7.1,6.6 c 1.7,1.8 3.7,3.5 7.6,4.2 -2.8,-2.3 -4.3,-4.9 -5,-7.7 m -5.5,7.9 c 2,2.6 4.1,4 6.5,4.8 -1.1,-2.5 -3.4,-4.2 -4.3,-7.6 m -6.8,7.2 c 1,2 4,4.4 6.8,5.3 -1.9,-2.4 -3.6,-4.9 -3.9,-7.5 m -9,3.6 c 1.7,3.4 3.8,6.5 8.2,8.2 -2.4,-3.8 -4.1,-7.1 -4.3,-9.7"/>
        <path d="m 172.8,107.8 -26.3,43.4 c 0,0 -6.1,0.8 -6.1,-2.2 0.2,-4.4 7.9,-8.1 12,-16.6 4.1,-8.5 14.5,-24.5 11.3,-24.8 -10.6,-1.1 -21,9 -27.8,15.7 -5.3,5.3 -9.7,10.7 -13.5,12.8 -4.7,2.6 -7.9,0.5 -6,-4.3 l 45.7,-36.39"/>
        <path d="m 181.6,93.08 c 0.5,-6.07 6.7,-10.62 10.8,-7.82 -2.5,-7.31 3.2,-8.65 7.7,-10.86 4.5,-2.2 7.3,-8.1 7.3,-8.1 -9.9,7.35 -12,4.01 -19.4,7.9 -7.4,3.92 -14.5,15.11 -29.6,17.86 -11.3,2.09 -23.1,9.84 -17.7,14.24 -7.1,3.1 -10.8,7.6 -14.4,12.5 -2.2,3.2 -14.9,3.8 -12.7,14.7 4.3,1.2 13.6,-3.7 17,-8.9 4.4,-6.8 11.5,-14 22,-13 5.6,0.6 8.7,2.4 9.2,5.8 0.5,3.9 -2.9,10.4 -7.6,17.8 -5.1,7.9 -10.4,13 -10.2,17.6 0.2,3.6 2.7,5.4 4.4,5.1 -0.9,-1.9 -1.2,-3.7 -0.8,-5.4 1.5,1.5 3.9,2.9 7.4,2.6 -2.3,-2.6 -3.8,-4.4 -3.6,-7.4 0.1,-2.9 4.2,-7.6 9,-7.8 8.5,-0.4 8.6,-1.5 11.6,-5.5 -4,1.1 -5.7,0 -8.5,0 -3.4,0.1 -6,2.9 -6,2.9 2.4,-4.4 6,-7.5 12.3,-7.8 5.4,-0.2 9.2,-1.5 9.9,-6.7 -3.3,1.5 -5.8,0.5 -8.5,0.5 -2.8,0 -5.3,1.8 -5.3,1.8 1.6,-3.9 6.8,-9.1 14.1,-9.4 3.6,-2.8 8.3,-2.5 13.6,-0.4 -5,-5.5 -9.3,-8.2 -16.9,-8.1"/>
        <path style="fill:none" d="m 164.8,116 c 1.3,-4.6 -2.1,-9.9 -10.1,-7.6 4.5,-0.8 9.6,-2.1 12.1,-4.6 3.1,-3 5.8,-7.21 5,-11.99 -4.6,6.46 -10.4,8.19 -16,6.43"/>
        <path d="m 176.4,92.71 c 9.7,0.76 15.8,-10.14 29.3,-1.74 -6.2,-0.33 -9.8,6.04 -15.2,9.33 -4.6,2.8 -10,3.4 -15.2,1.9"/>
        <path style="fill:#2b2b00;stroke:none" d="m 179.5,95.63 c 0,0 -0.9,0.42 -1.5,1.2 -0.5,0.78 -0.6,1.64 -0.6,1.64 0,0 0.4,-0.78 1,-1.3 0.7,-0.53 1.4,-0.57 1.4,-0.57 0.8,-0.22 1.8,0 2.7,1.02 a 0.5,0.5 0 0 0 0.9,-0.25 c 0.5,-3.63 3.5,-3.12 4.7,-1.91 a 0.5,0.5 0 0 0 0.8,-0.17 c 0.7,-1.85 1.6,-2.59 2.4,-2.82 0,0 0.6,-0.31 1.5,-0.28 0.8,0 1.6,0.23 1.6,0.23 0,0 -0.7,-0.45 -1.6,-0.72 -0.8,-0.28 -1.8,-0.19 -1.8,-0.19 -1.2,0.35 -2.2,1.38 -3,3.4 l 0.8,-0.16 c -1.9,-1.84 -5.8,-1.9 -6.4,2.47 l 0.8,-0.26 c -1.1,-1.26 -2.5,-1.66 -3.7,-1.33 z"/>
        <path style="fill:#ffffff" d="m 120.4,125.5 c 1.7,-0.4 2.4,-0.2 4,0 -0.6,1.5 -2.2,2.6 -3.4,3 -1.6,0.7 -3,0.8 -4.7,0.9 0.6,-2 2.2,-3.4 4.1,-3.9 z"/>
        <g id="eye">
          <path style="fill:#ffffff;stroke:none" d="m 145.9,106.5 c 0,0 -0.3,-2.6 1,-4.7 1.9,-3.26 5.4,-3.94 8.9,-3.56 -0.6,2.46 -3.2,5.46 -5.9,6.86 -1.3,0.7 -2.5,1.4 -4,1.4 z"/>
          <path style="fill:#000000;stroke:none" d="m 147.7,100.7 c -0.1,0.2 -0.4,0.8 -0.5,1.2 0,0.6 0.2,1.4 0.4,1.9 0.2,0.3 0.5,0.6 0.9,0.8 0.4,0.3 1.3,0.5 1.6,0.6 0.1,-0.3 0.4,-1.2 0.4,-1.7 0,-0.4 0,-0.8 -0.2,-1.2 -0.2,-0.4 -0.8,-1 -1.3,-1.3 -0.4,-0.3 -1.1,-0.3 -1.3,-0.3 z"/>
          <path style="fill:none" d="m 145.9,106.5 c 0,0 -0.3,-2.6 1,-4.7 1.9,-3.26 5.4,-3.94 8.9,-3.56 -0.6,2.46 -3.2,5.46 -5.9,6.86 -1.3,0.7 -2.5,1.4 -4,1.4 z"/>
        </g>
        <path style="fill:#ffff00" d="m 75.17,148.1 c 12.09,-1.6 9.31,1.2 14.55,3.1 6.21,2.3 6.84,-4.9 12.88,-5.1 -5.05,-3.4 -6.61,1.8 -11.88,-1.5 -4.72,-3 -10.41,-1.1 -15.55,3.5 z m 13.99,-8.4 c -2.82,-0.4 -5.31,-3.9 -10.62,-0.1 -3.59,2.5 -8.48,0 -9.61,-4.2 4.43,2.8 6.45,1.1 9.52,-0.7 4.18,-2.5 8.1,1.2 10.71,5 z m 14.24,1.9 c -2.2,-2 -4.15,-2.9 -5.17,-8.4 -0.72,-3.9 -7.52,-5.6 -15.63,-3.3 6.26,1.4 9.18,1.8 9.8,6.7 0.69,5.6 6.31,5.9 11,5 z"/>
      </g>
      <use xlink:href="#head" transform="rotate(35,300,300)"/>
      <use xlink:href="#head" transform="rotate(-35,300,300)"/>
    </g>
  </g>
  <use id="shine" xlink:href="#shield" style="fill:url(#rg);stroke:#000000;stroke-width:3;"/>
</svg>
