<?xml version="1.0" encoding="UTF-8"?>
<svg xmlns="http://www.w3.org/2000/svg" xmlns:xlink="http://www.w3.org/1999/xlink" width="600" height="660">
<defs>
  <radialGradient id="rg" gradientUnits="userSpaceOnUse" cx="220" cy="220" r="405">
    <stop style="stop-color:#ffffff;stop-opacity:.3" offset="0" />
    <stop style="stop-color:#ffffff;stop-opacity:.2" offset=".2" />
    <stop style="stop-color:#666666;stop-opacity:.1" offset=".6" />
    <stop style="stop-color:#000000;stop-opacity:.13" offset="1" />
  </radialGradient>
  <clipPath id="shield-clip">
    <path id="shield" d="m2,2v257c0,286 298,398 298,398c0,0 298-112 298-398V2z" />
  </clipPath>
  <g id="towers" style="stroke:#333333;stroke-width:2;stroke-linecap:round;stroke-linejoin:round;">
    <g id="tower">
      <path style="fill:#555555;" d="m 95.84,116.6 7.36,6.4 v 38 l -17.92,-10 z m 33.96,-8.3 4.8,7.2 v 37.9 l -15.2,-11 z m 86.4,8.3 -7.4,6.4 v 38 l 17.9,-10 z m -34,-8.3 -4.8,7.2 v 37.9 l 15.2,-11 z"/>
      <path style="fill:#999999;" d="m 147.5,106.2 v 20.8 l -17.7,1.8 v -20.5 c -5.5,0.8 -10.8,2.1 -17.6,3.5 v 21.6 l -16.36,4.4 v -21.2 c -5.44,2.1 -11.68,4.4 -17.12,6.6 v 45.1 l 11.36,9 c 7.04,68.5 -3.36,135.3 -18.4,195 l -18.72,18.7 v 42.1 c 32.64,12.3 60.64,19.2 87.54,21.3 h 15.5 15.5 c 26.9,-2.1 54.9,-9 87.5,-21.3 v -42.1 l -18.7,-18.7 c -15,-59.7 -25.4,-126.5 -18.4,-195 l 11.4,-9 v -45.1 c -5.5,-2.2 -11.7,-4.5 -17.1,-6.6 v 21.2 l -16.4,-4.4 v -21.6 c -6.8,-1.4 -12.1,-2.7 -17.6,-3.5 v 20.5 l -17.7,-1.8 v -20.8 c -2.7,-0.3 -5.5,-0.8 -8.5,-0.8 -3,0 -5.8,0.5 -8.5,0.8 z"/>
      <path style="fill:none;" d="m 259,413 c -25.7,10.4 -71,22.2 -103,22.2 -32,0 -77.28,-11.8 -103.04,-22.2 m 35.36,-127.9 c 22.28,3.5 46.08,5.6 67.68,5.6 21.6,0 45.4,-2.1 67.7,-5.6 m -133.14,-21.6 c 21.64,1.8 45.14,2.6 65.44,2.6 20.3,0 43.8,-0.8 65.4,-2.6 m -129.56,-21.6 c 21.46,-0.1 42.86,-0.1 64.16,-0.1 21.3,0 42.7,0 64.2,0.1 m -127.88,-21.6 c 21.28,-2.2 42.58,-3.3 63.68,-3.3 21.1,0 42.4,1.1 63.7,3.3 m -128.02,-21.6 c 21.72,-4.3 43.02,-6.4 64.32,-6.2 v 0 c 21.3,-0.2 42.6,1.9 64.3,6.2 m -135.02,108.2 c 23.82,5.4 47.52,8.3 70.72,8.5 23.2,-0.2 46.9,-3.1 70.7,-8.5 m -145.26,21.7 c 25.16,7.6 49.96,11.4 74.56,11.6 24.6,-0.2 49.4,-4 74.6,-11.6 m -153.64,21.5 c 26.44,9.4 52.94,14.5 79.04,14.5 26.1,0 52.6,-5.1 79,-14.5 m -163.32,22.2 c 25.44,9.6 57.42,17.3 84.32,17.3 26.9,0 58.9,-7.7 84.3,-17.3 m -161.58,-204 c 0,0 15.52,-9.3 38.28,-13.3 16.3,-2.4 23,-3.2 39,-3.3 v 0 c 16,0.1 22.7,0.9 39,3.3 22.8,4 38.3,13.3 38.3,13.3 m -143.22,9 c 21.72,-6.9 45.32,-10.9 65.92,-10.9 v 0 c 20.6,0 44.2,4 65.9,10.9 m -168.94,213.7 c 25.76,10.4 71.04,22.9 103.04,22.9 32,0 77.3,-12.5 103,-22.9"/>
      <path style="fill:none;" d="m 156,192.5 v 24.5 m 0,73.7 v 24.7 m 0,24.8 v 24.4 m 43.8,-169.4 0.4,23.2 m 1.4,23.4 1.3,23 m 1.3,23.2 1.7,22.9 m 1.9,23.7 2.6,23 m 6.1,22.7 12.6,21 v 21.7 m 16.8,-5.2 v 20.1 m -38.5,-9.3 v 20.4 m -25.6,-86 1.9,24.4 7.2,23 m -12.2,-96.2 1.3,24.7 m -4.2,-121.6 v 24.5 m 2.3,-74 -1.1,25.3 m -64.8,2.1 -0.4,23.2 m -1.4,23.4 -1.3,23 m -1.3,23.2 -1.7,22.9 m -1.9,23.7 -2.6,23 m -6.08,22.7 -12.64,21 v 21.7 m -16.8,-5.2 v 20.1 m 38.52,-9.3 v 20.4 m 25.6,-86 -1.9,24.4 -7.2,23 m 12.2,-96.2 -1.3,24.7 m 4.2,-121.6 v 24.5 m -2.3,-74 1.1,25.3 m 0.7,72.7 -1.2,24.3 m 21.5,-48.3 v 24.3 m 20.6,-0.3 1.3,24.3"/>
      <path style="fill:none;" d="m 221.6,174.6 c 0,0 5.9,-5.8 1.4,-8.2 -4.6,-2.6 -10.4,5.3 -10.4,5.3 m -2.5,-0.7 c 0,0 3.3,-8.4 -2.6,-9.7 -5.7,-1.3 -9.9,7.2 -9.9,7.2 m -1.9,-0.3 c 0,0 0.6,-9 -5.9,-10.3 -6.8,-1.1 -8,8 -8,8 m -2.1,-0.1 c 0,0 0.3,-9.2 -6.3,-10 -6.7,-0.6 -7.6,8.5 -7.6,8.5 m -2,0 c 0,0 -0.3,-9.1 -7.8,-9.1 -7.5,0 -7.8,9.1 -7.8,9.1 m -57.8,10.3 c 0,0 -5.92,-5.8 -1.44,-8.2 4.64,-2.6 10.4,5.3 10.4,5.3 m 2.54,-0.7 c 0,0 -3.34,-8.4 2.6,-9.7 5.7,-1.3 9.9,7.2 9.9,7.2 m 1.9,-0.3 c 0,0 -0.6,-9 5.9,-10.3 6.8,-1.1 8,8 8,8 m 2.1,-0.1 c 0,0 -0.3,-9.2 6.3,-10 6.7,-0.6 7.6,8.5 7.6,8.5"/>
      <path style="fill:#999999;" d="m 156,454.4 h 15.5 l 9.9,-0.6 c 0,0 0.8,-25.8 0.5,-46.9 -0.3,-21.1 -12.8,-27.5 -25.9,-27.5 -13.1,0 -25.6,6.4 -25.9,27.5 -0.3,21.1 0.5,46.9 0.5,46.9 l 9.9,0.6 h 15.5"/>
      <path style="fill:none;" d="m 156,379.4 v 9.4 m 13.8,10.2 9.7,-5.2 m -15,-2.3 5.4,-8.8 m 12,43.9 h -9.9 m 9.9,-9.6 h -9.9 m 9.9,-9.6 h -10.2 m 10.1,28.8 h -9.8 m 9.6,9.7 h -9.8 m -29.6,-46.9 -9.7,-5.2 m 15,-2.3 -5.4,-8.8 m -12,43.9 h 9.9 m -9.9,-9.6 h 9.9 m -9.9,-9.6 h 10.2 m -10.1,28.8 h 9.8 m -9.6,9.7 h 9.8"/>
      <path style="fill:#222222;" d="m 156,388.8 c -8.5,0 -15.7,5.6 -16,23.7 -0.2,18.2 0.3,41.9 0.3,41.9 h 31.4 c 0,0 0.5,-23.7 0.3,-41.9 -0.3,-18.1 -7.5,-23.7 -16,-23.7 z"/>
    </g>
    <use xlink:href="#tower" id="tower2" transform="translate(600)scale(-1,1)"/>
    <g id="bridge">
      <path style="fill:#999999;" d="m 220,282.7 -6.3,-11 c 1.7,-10 1.8,-24.5 1.9,-36.1 h 84.4 84.4 c 0.1,11.6 0.2,26.1 1.9,36.1 l -6.2,11 c -25.8,-8.9 -48.1,-16.5 -80.1,-16.5 -31.9,0 -54.2,7.6 -80,16.5 z"/>
      <path style="fill:none;" d="m 246.1,260.3 h -31.1 m 0.4,-11.2 h 84.6 84.6 m -30.7,11.2 h 31.1"/>
      <path style="fill:none;" d="m 226,249.1 v 11.2 m 21.1,-11.2 v 11 m 21.2,-11 v 6.6 m 21.1,-6.6 v 4.1 m -52.8,-15.6 v 11.5 m 21.1,-11.5 v 11.5 m 21.2,-11.5 v 11.5 m 95.1,0 v 11.2 m -21.1,-11.2 v 11 m -21.1,-11 v 6.6 m -21.2,-6.6 v 4.1 m 52.8,-15.6 v 11.5 m -21.1,-11.5 v 11.5 m -21.2,-11.5 v 11.5 m -21.1,-11.5 v 11.5"/>
      <path style="fill:none;" d="m 213.8,271.1 c 18.4,-8.1 54.3,-18.2 86.2,-18.2 32,0 67.8,10.1 86.2,18.2"/>
      <path style="fill:none;" d="m 291,264.5 c 0,0 0.4,-9.7 9,-9.7 8.6,0 9,9.7 9,9.7 m -87.7,15.7 c 0,0 -2.4,-8.6 3,-10.5 5.7,-2 10.8,5.6 10.8,5.6 m 2.9,-1.1 c 0,0 -2.5,-9.2 4.2,-10.8 6.6,-1.4 9.9,6.9 9.9,6.9 m 2.6,-0.9 c 0,0 -2,-8.9 5.5,-10.4 7.6,-1.3 9.9,7.7 9.9,7.7 m 2.9,-0.4 c 0,0 -0.7,-9 6.8,-9.8 7.6,-0.9 8.7,8.1 8.7,8.1 m 90.2,15.6 c 0,0 2.4,-8.6 -3,-10.5 -5.7,-2 -10.8,5.6 -10.8,5.6 m -2.9,-1.1 c 0,0 2.5,-9.2 -4.2,-10.8 -6.5,-1.4 -9.8,6.9 -9.8,6.9 m -2.7,-0.9 c 0,0 2.1,-8.9 -5.5,-10.4 -7.6,-1.3 -9.9,7.7 -9.9,7.7 m -2.9,-0.4 c 0,0 0.7,-9 -6.8,-9.8 -7.6,-0.9 -8.6,8.1 -8.6,8.1"/>
      <path style="fill:#999999;" d="m 389.2,237.6 v -18.2 h -19.8 v 8.6 h -19.9 v -8.6 h -19.7 v 8.6 h -19.9 v -8.6 h -19.8 v 8.6 h -19.9 v -8.6 h -19.7 v 8.6 h -19.9 v -8.6 h -19.8 v 18.2 z"/>
    </g>
  </g>
</defs>
<use id="bg" xlink:href="#shield" style="fill:#0000cc;" />
<g clip-path="url(#shield-clip)">
  <use id="frey" xlink:href="#towers" transform="translate(150,155)scale(0.53)translate(-300,-300)"/>
  <path style="fill:none;stroke:#dd0000;stroke-width:45" d="M 300,0 l -300,300"/>
  <use xlink:href="#towers" transform="translate(415,435)scale(0.4)translate(-300,-300)"/>
  <path style="fill:none;stroke:#dd0000;stroke-width:45" d="M 600,300 l -330,355"/>
</g>
<path style="fill:#008000;" d="m 598,2 v 257 c 0,14.09 -0.73,27.75 -2.1,41 h -295.9 v -298 z" />
<path style="fill:#ffdd00;" d="m 350,50 198,0 0,200 -198,0 z"/>
<use id="sprig2" transform="translate(238,-300)" xlink:href="#sprig" />
<use transform="translate(-50,-90)" xlink:href="#sprig2" />
<use transform="translate(50,-90)" xlink:href="#sprig2" />
<path style="fill:#008000;" d="m 300,300 v 357 c 0,0 -269.352,-101.24 -295.89,-357 z" />
<path style="fill:#ffdd00;" d="m 250,350 v 225.09 c -63.32,-38.89 -152.764,-111.51 -185.387,-225.09 z"/>
<g id="sprig" style="stroke-width:1;stroke-linecap:round;stroke-linejoin:round;">
  <path style="fill:#552200;" d="m 205.18,474.13 c 1.47,-0.44 4.04,0.8 5.49,2.04 2.15,2.02 4.25,4.91 4.79,7.68 -2.32,3.8 -4.84,7.66 -6.91,11.59 -1.16,2.18 -2.09,4.37 -3.06,6.59 -0.35,0.85 -0.72,1.7 -1.11,2.56 -0.39,1.51 -0.18,3.07 -0.24,4.61 -0.48,15.48 6.61,22.73 17.71,32.45 l 2.05,-1.1 c -7.72,-4.97 -17.1,-14.27 -18.17,-26.42 -0.16,-2.98 -0.79,-5.77 -0.24,-8.55 0.29,-1.49 1.23,-2.97 1.82,-4.46 2.91,-6.89 4.17,-7.75 9.51,-16.69 1.19,-2.16 2.35,-4.7 4.28,-6.06 0.54,-0.38 1.14,-0.27 1.82,-0.53 l -0.37,-1.37 c -1.9,0.51 -3.32,1.69 -4.43,3.13 -0.56,0.86 -1.09,1.73 -1.63,2.59 -0.8,-2.39 -2.4,-4.65 -4.14,-6.4 -1.62,-1.74 -4.18,-2.92 -6.56,-3.05 m -1.41,31.85 c 1.43,-6.32 0.33,-1.58 0,0 z"/>
  <path style="fill:#008000;stroke:#005000;" d="m 205.47,474.12 c -1.15,2.36 -3.29,4.82 -5.73,6.82 -6.85,5.58 -20.01,2.79 -19.93,-1.47 0.11,-5.64 5.45,-6.84 9.83,-5.99 4.09,0.78 6.81,2.4 10.33,2.52 2.38,0.1 5.28,-1.41 4.68,-4.28 -0.67,-1.34 -2.24,-1.99 -3.54,-2.22 -3.26,-0.56 -6.03,-1.95 -7.81,-2.48 -3.72,-1.1 -5.21,-1.63 -6.95,-5.03 -3.26,-6.28 7.4,-6.49 9.71,-3.68 5.95,3.12 7.7,8 9.41,13.49 0.31,0.32 0.4,0.77 0.59,1.16"/>
  <path style="fill:#008000;stroke:#005000;" d="m 220.84,477.22 c 0.98,0.26 0.49,-2.49 0.59,-3.17 0.76,-5.58 1.7,-6.38 4.65,-11.25 3.06,-6.99 13.35,-5.93 10.07,2.98 -2.17,3.86 -6.7,5.4 -10.09,7.32 -1.1,0.62 -1.74,1.07 -2.75,1.79 -0.74,1.08 -0.76,2.98 1.17,3.27 1.19,0.58 2.5,0.59 3.83,0.48 3.6,-0.32 7.39,-1.29 11.02,-1.2 2.51,0.1 5.5,3.14 5.34,5.82 -0.15,2.87 -3.93,3.48 -6.17,3.69 -5.24,0.48 -5.94,-0.46 -10.25,-2.83 -4.07,-2.24 -3.16,-4.65 -6.31,-5.95"/>
  <path style="fill:#008000;stroke:#005000;" d="m 205.33,507.68 c 6.51,0.17 11.85,-5.63 14.55,-11.17 2.91,-7.79 9.59,-12.57 12.12,-0.88 0.62,12.09 -12.37,14.21 -21.8,13.39 -1.69,-0.14 -3.28,0.32 -4.98,0.53 -0.46,0.1 -0.92,0.63 -1.39,0.53 -6.91,-0.18 -13.48,-0.95 -19.57,-4.43 -4.06,-2.64 -7.86,-5.29 -6.92,-11.85 1.07,-7.39 11.07,-2.87 13.78,0.9 3.53,4.9 6.29,11.61 12.81,12.86"/>
  <path style="fill:#ee0000;stroke:#990000;" d="m 205.18,472.33 c -0.37,0.23 -0.75,0.33 -1.12,-0.58 -0.53,-1.1 -1.88,-1.75 -3.27,-1.48 -1.63,0.32 -2.72,1.78 -2.42,3.25 0.29,1.47 1.7,1.9 3.33,1.58 1.16,-0.23 1.6,-0.59 1.91,-1.57 0.87,-0.35 1.36,-0.14 1.85,0.1"/>
  <path style="fill:#ee0000;stroke:#990000;" d="m 223.16,477.71 c 0.64,-1 1.28,-0.77 1.93,-0.87 0.88,0.87 2.36,1.03 3.58,0.31 1.43,-0.85 1.96,-2.58 1.2,-3.87 -0.76,-1.3 -2.54,-1.66 -3.97,-0.82 -1.02,0.6 -1.58,1.66 -1.54,2.68 -0.24,1 -1.08,1.39 -2.29,1.43"/>
  <path style="fill:#ee0000;stroke:#990000;" d="m 205.42,507.79 c 0.56,-0.79 0.73,-2.35 1.8,-2.1 1.54,0 2.99,-1.16 3.44,-2.87 0.52,-1.99 -0.52,-4 -2.33,-4.47 -1.81,-0.47 -3.7,0.77 -4.22,2.76 -0.38,1.42 0.1,2.85 0.98,3.72 0.1,0.72 0.45,1.22 -0.57,2.67"/>
</g>
<use transform="translate(0,-95)" xlink:href="#sprig" />
<use transform="translate(-80,-95)" xlink:href="#sprig" />
<use id="shine" xlink:href="#shield" style="fill:url(#rg);stroke:#000000;stroke-width:3;" />
</svg>
