<?xml version="1.0" encoding="UTF-8"?>
<svg xmlns="http://www.w3.org/2000/svg" xmlns:xlink="http://www.w3.org/1999/xlink" width="600" height="660">
<defs>
  <radialGradient id="rg" gradientUnits="userSpaceOnUse" cx="220" cy="220" r="405">
    <stop style="stop-color:#fff;stop-opacity:.3" offset="0"/>
    <stop style="stop-color:#fff;stop-opacity:.2" offset=".2"/>
    <stop style="stop-color:#666;stop-opacity:.1" offset=".6"/>
    <stop style="stop-color:#000;stop-opacity:.13" offset="1"/>
  </radialGradient>
  <clipPath id="clip-shield">
    <path id="shield" d="m2,2v257c0,286 298,398 298,398c0,0 298-112 298-398V2z"/>
  </clipPath>
  <path id="crown" style="fill:#000000;" d="m 209.88,65.882 27.64,64.472 c 46.04,-13.812 82.88,-13.812 128.94,0 l 27.64,-64.472 -32.24,13.818 c 13.8,23.024 -13.82,36.842 -27.64,13.812 -13.82,13.816 -27.64,0 -23.02,-9.208 l 9.2,-9.214 -18.42,-18.422 -18.42,18.422 9.22,9.214 c 4.6,9.208 -9.22,23.024 -23.04,9.208 -13.8,23.03 -41.44,9.212 -27.62,-13.812 z"/>
  <g id="axe" style="stroke:#4d4d4d;stroke-width:2;stroke-linejoin:round;stroke-linecap:round;">
    <path style="fill:#000000;" d="m 415.68,521.56 c 1.9,3.28 -21.04,16.58 -22.96,13.26 l 4.68,8.1 c 4.8,8.32 27.76,-4.94 22.96,-13.26 l -4.7,-8.16 z"/>
    <path style="fill:#808080;" d="m 417.04,508.74 c 4.74,8.22 -31.34,29.08 -36.08,20.84 -4.72,-8.16 31.36,-29.02 36.08,-20.84 z"/>
    <path style="fill:#000000;" d="m 241.38,219.7 c 1.88,3.26 -21.08,16.52 -22.96,13.26 l 169.08,292.84 c 1.9,3.26 24.86,-10 22.98,-13.26 z"/>
    <path style="fill:#808080;" d="m 229.98,184.77 c 0.78,1.336 16.12,27.93 18.48,32.03 2.38,4.1 -5.46,11.38 -14.48,16.58 -9.02,5.22 -19.24,8.4 -21.6,4.28 -2.34,-4.08 -17.808,-30.86 -18.526,-32.1 2.37,4.1 12.566,0.94 21.606,-4.26 9.02,-5.208 16.88,-12.436 14.52,-16.53 z"/>
    <path style="fill:#808080;" d="m 196.146,198.468 c -22.704,3.952 -32.274,-10.814 -47.106,-26.998 0,29.72692 31.9232,47.46753 52.08,35.83 z"/>
    <path style="fill:#808080;" d="m 229.94,184.706 c 4.74,8.204 -31.362,29.074 -36.09,20.834 -4.714,-8.162 31.37,-29.016 36.09,-20.834 z"/>
    <path style="fill:#000000;" d="m 218.62,180.278 c 1.9,3.282 -21.052,16.574 -22.94,13.304 l 4.7,8.138 c 1.9,3.28 24.86,-9.978 22.96,-13.252 z"/>
    <path style="fill:#000000;" d="m 218.64,180.308 c 1.9,3.28 -21.062,16.56 -22.97,13.258 -1.902,-3.296 21.07,-16.548 22.97,-13.258 z"/>
    <g>
      <path style="fill:#808080;" d="m 148.164,171.964 c -83.734,48.156 36.938,165.536 80.376,139.216 l 1.96,-0.8 c -22.42,-38.82 -23.7,-39.9 -10.76,-70.86 l -18.62,-32.22 c -21.02,3.66 -37.9,-19.536 -52.08,-35.83 l -0.894,0.516 z"/>
      <path style="fill:#8a3d1b;stroke:none;" d="M 145.25391 173.74219 C 136.1543 179.48812 129.72157 186.1164 125.54297 193.31055 C 125.79482 193.42553 126.05402 193.52742 126.28711 193.67578 C 126.31754 193.69515 125.96149 199.90353 125.93359 200.03906 C 125.80765 200.65087 125.05024 201.23481 124.51953 201.45508 C 123.41243 201.91457 122.60055 201.56494 122.04102 200.86133 C 119.52721 207.88777 118.8313 215.30051 119.60938 222.8418 C 120.05324 221.29851 121.26295 219.7799 122.16797 218.58008 C 122.50289 220.74835 123.46474 223.71316 122.85352 226.00586 C 122.72271 226.49654 120.6895 226.52739 120.43945 226.27734 C 120.22897 226.06686 120.10402 225.84706 119.96289 225.62891 C 121.72536 237.3851 126.96605 249.34392 134.30469 260.55273 C 134.70482 259.82226 135.2613 259.1297 135.75391 259.13086 C 138.48446 259.13728 140.62442 262.1494 140.63672 264.69727 C 139.17346 264.87882 138.29077 265.20699 137.47266 265.18359 C 141.7939 271.18227 146.6783 276.90349 151.94922 282.19727 C 151.53515 281.1548 151.58812 280.19171 153.01758 280.48047 C 153.96875 280.67261 154.93996 280.82926 155.8418 281.1875 C 156.69793 281.52758 157.44185 282.09854 158.24219 282.55469 C 158.19964 283.036 158.23855 283.53086 158.11523 283.99805 C 158.03696 284.29456 155.10029 284.36244 154.13086 284.32422 C 157.69001 287.75444 161.38547 290.97287 165.17969 293.95508 C 165.28863 293.52697 165.59428 293.08984 165.9375 292.88477 C 168.38129 291.42464 171.29839 293.45835 173.52148 294.26172 C 172.99069 294.5044 172.48611 294.81406 171.92969 294.99023 C 171.06633 295.26358 168.30518 295.31951 166.59961 295.07812 C 188.65824 311.96024 213.32824 320.39625 228.53906 311.17969 L 230.5 310.38086 C 228.3871 306.7224 226.64162 303.68336 224.89844 300.63867 C 224.7858 300.58585 224.66391 300.54286 224.55273 300.48828 C 223.26266 299.85496 221.36938 301.98585 219.84766 301.19531 C 218.54403 300.51808 217.88013 299.04672 216.3125 298.7207 C 215.07772 298.4639 214.04648 299.48751 212.87891 299.78125 C 211.45342 300.13988 204.37653 297.70687 203.62109 297.41602 C 198.61678 295.48932 200.57878 294.89291 195.01367 297.25195 C 193.74517 297.78967 192.86044 298.23871 192.38086 298.625 C 192.38995 298.38021 192.40234 298.11445 192.40234 297.95508 C 192.40234 296.51553 193.00287 293.50447 192.04883 292.23242 C 190.25731 289.84373 184.28597 289.03085 181.73047 288.65039 C 180.21078 288.42413 178.67443 288.32521 177.14453 288.18359 C 176.88328 288.15939 176.59006 288.06229 176.35742 288.18359 C 174.63354 289.08236 172.10313 289.88718 169.97266 289.24414 C 168.15501 288.69552 166.55318 287.34131 164.94727 286.37695 C 164.4661 286.08801 163.59102 286.07662 163.19336 285.67773 C 161.71471 284.19447 161.97398 280.15213 161.42383 278.05859 C 161.34123 277.74421 161.57127 277.37172 161.42383 277.08203 C 161.2697 276.77921 154.51425 274.40331 154.43555 274.38281 C 151.88593 273.71858 150.85801 274.8413 148.03516 273.35156 C 147.96065 273.31226 147.46029 273.40576 147.43359 273.35156 C 146.64781 271.75999 148.15038 267.47268 148.49414 265.92578 C 148.85979 264.28034 148.6655 261.49066 148.14062 259.91602 C 148.11335 259.83417 143.21749 257.61012 142.83789 257.44141 C 141.87129 257.01181 139.19096 257.19441 138.60742 256.02734 C 137.80241 254.4173 138.10876 253.09663 137.90039 251.42969 C 137.69235 249.76539 136.7385 248.66731 136.49414 247.20117 C 136.32056 246.15969 136.39776 245.04808 136.14062 244.01953 C 135.81555 242.7192 134.49281 240.44802 133.6582 239.41016 C 132.01677 237.36903 131.32513 237.71499 130.42383 235.47852 C 130.20243 234.92914 130.25546 234.30091 130.07031 233.73828 C 129.66311 232.50097 129.35442 235.07768 129.74414 232.34961 C 130.12565 229.67907 129.79028 231.91921 130.80469 230.22852 C 131.40318 229.23103 131.65247 228.05299 132.22266 227.03906 C 132.91274 225.81191 133.89703 224.7338 134.39258 223.41602 C 134.64459 222.74587 134.39258 221.9855 134.39258 221.26953 C 134.39258 217.0311 133.88705 216.70671 131.55469 213.44141 C 130.66597 212.19721 130.54706 210.31712 129.43945 209.21289 C 129.35703 209.13069 129.17214 209.29519 129.08984 209.21289 C 128.43335 208.5564 134.39411 203.99508 134.79492 203.51562 C 135.60544 202.54604 135.38356 199.14852 134.81641 198.04102 C 134.59891 197.61629 133.86701 197.06958 133.75586 196.625 C 133.35147 195.00744 134.08038 192.8523 134.46289 191.32227 C 135.27851 188.05978 142.19404 186.2683 144.39258 183.52539 C 145.33498 182.34965 143.96383 181.48423 143.68164 180.35547 C 143.02103 177.71302 143.8242 175.56537 145.25391 173.74219 z M 149.86133 178.36328 C 149.12492 178.37852 148.15636 178.46381 146.88672 178.50391 L 149.10742 178.43359 C 146.25013 180.75107 146.65916 185.37084 150.4707 185.85742 C 150.81849 185.90182 151.23368 186.05767 151.52148 185.85742 C 152.12927 185.43452 152.20312 183.62618 152.20312 183.13086 C 152.20312 178.89213 152.07054 178.31757 149.86133 178.36328 z M 141.56445 193.51367 C 141.12644 193.51261 140.67693 193.55724 140.48242 193.56055 C 140.15383 194.46603 139.64612 195.32584 139.49609 196.27734 C 139.41599 196.78529 139.15654 202.58775 141.875 201.22852 C 141.913 201.20952 143.11886 194.39425 142.58203 193.74805 C 142.42849 193.56323 142.00246 193.51473 141.56445 193.51367 z M 125.30273 202.54688 C 125.68354 203.03521 126.21692 203.43612 126.44531 204.01172 C 126.80874 204.92763 126.24716 209.00372 125.73828 210.02148 C 125.41349 210.67109 122.70901 211.24786 122.35352 210.72852 C 121.48893 209.46545 122.25642 207.66427 122.35352 206.13672 C 122.46781 204.33903 124.07336 203.61034 125.30273 202.54688 z M 162.84766 204.58789 C 162.59013 204.60552 162.31493 204.64062 162.19336 204.64062 L 160.79297 204.77539 C 162.11825 211.38186 164.15604 205.76398 163.39258 204.64062 C 163.34468 204.57013 163.10519 204.57027 162.84766 204.58789 z M 139.82422 212.82617 C 137.41187 215.58315 136.403 215.20413 138.05664 218.83789 C 138.8251 220.52653 140.81638 219.63287 141.35742 218.55078 C 142.213 216.83962 142.25713 216.84219 141.03516 215.21289 C 140.55939 214.57853 140.25689 213.4952 139.82422 212.82617 z M 190.43164 217.47656 C 189.78384 217.36971 189.08151 217.4844 188.70117 217.79492 C 187.18017 219.03674 185.93579 220.58275 184.55273 221.97656 C 185.42472 223.04381 186.60536 224.70589 188.08594 225.12891 C 192.30338 226.33389 192.78496 221.7855 191.83789 218.48828 C 191.67226 217.91162 191.07944 217.58341 190.43164 217.47656 z M 149.12695 220.39258 C 148.75685 220.4073 148.2915 220.48648 147.71875 220.64648 C 147.33028 221.19784 146.81916 221.68116 146.55273 222.30078 C 146.24229 223.02272 146.95544 224.80071 147.97852 224.26367 C 149.69401 223.36317 151.71768 220.28952 149.12695 220.39258 z M 164.55273 223.23828 C 162.52885 226.21074 165.47205 227.73047 168.2207 227.78711 C 168.32501 227.78911 168.2207 227.57894 168.2207 227.47461 L 168.2207 225.03906 C 168.2207 223.97951 167.30778 224.39296 166.62109 224.16406 C 166.50928 224.12676 166.70239 223.89588 166.62109 223.81055 C 166.11712 223.28153 165.70832 223.22449 164.55273 223.23828 z M 141.88086 229.39648 C 141.51065 231.80984 140.75246 234.29016 140.52734 236.7168 C 140.48044 237.22184 141.45392 236.30538 141.90234 236.06836 C 143.56719 235.18841 142.91986 235.76178 143.67773 235.00391 C 144.58202 234.09963 144.75867 231.91128 144.03516 230.82031 C 143.55921 230.10263 142.57501 229.90614 141.88086 229.39648 z M 136.45703 230.52344 C 135.92926 230.46294 135.3986 230.60916 134.86914 230.65234 C 134.48218 231.79627 134.51563 232.31886 134.51562 233.41992 C 134.51562 233.77195 134.43883 234.13107 134.51562 234.47461 C 134.61222 234.90684 135.46893 234.50144 135.82227 234.23438 C 136.6992 233.57162 137.29969 232.7377 136.7832 231.2207 C 136.7032 230.98577 136.97318 230.58258 136.45703 230.52344 z M 177.83984 244.60547 C 177.38658 244.51371 176.23845 244.9784 175.64648 245 C 170.9298 245.50601 176.55609 248.87976 177.14648 248.28516 C 177.55778 247.87093 177.07217 246.10087 177.45312 245.71289 C 177.65179 245.51056 177.89329 245.39354 178.01562 244.91992 C 178.06501 244.72874 177.99093 244.63606 177.83984 244.60547 z M 151.77734 246.43164 C 150.9761 246.77333 150.04525 246.90307 149.37305 247.45703 C 148.71722 247.99751 148.22772 248.77191 147.95898 249.57812 C 147.73537 250.24894 147.71126 251.03693 147.95898 251.69922 C 149.15132 254.88703 155.73385 248.20012 153.54102 246.94727 C 153.00884 246.64321 152.36567 246.60346 151.77734 246.43164 z M 163.79688 254.41016 C 163.14908 254.30331 162.44674 254.418 162.06641 254.72852 C 160.54541 255.97034 159.30103 257.51635 157.91797 258.91016 C 158.78996 259.97741 159.97059 261.63753 161.45117 262.06055 C 165.66861 263.26553 166.15019 258.7191 165.20312 255.42188 C 165.0375 254.84521 164.44467 254.51701 163.79688 254.41016 z M 193.89258 255.37891 C 192.98547 256.18033 191.81189 256.75583 191.17188 257.7832 C 190.13734 259.44383 193.65587 260.35956 194.60938 259.88281 C 196.02545 259.17477 194.09186 256.14176 193.89258 255.37891 z M 182.10156 264.7207 C 181.94504 264.73302 181.78005 264.82442 181.57031 264.97266 C 182.33704 264.9728 183.19882 264.97461 183.55078 264.97461 C 182.70264 264.8404 182.37643 264.69908 182.10156 264.7207 z M 181.57031 264.97266 C 180.08373 264.97238 178.414 265.01299 177.7207 265.32812 C 174.7292 266.6879 177.94268 270.64388 180.19531 270.19336 C 185.09645 269.21313 177.88767 267.89807 180.96094 265.43945 C 181.23702 265.21859 181.41174 265.08473 181.57031 264.97266 z M 169.32617 271.91992 C 168.30937 271.74633 167.52403 272.46746 168.13477 274.94336 C 168.43708 276.16888 170.25559 276.83618 169.83984 278.32422 C 172.36937 284.17651 172.33344 275.75787 171.9082 274.26953 C 171.59188 273.1624 170.34298 272.09352 169.32617 271.91992 z M 202.13281 275.39844 C 201.11601 275.22484 200.33067 275.94793 200.94141 278.42383 C 201.24372 279.64935 203.06419 280.31665 202.64844 281.80469 C 205.17797 287.65698 205.14008 279.23639 204.71484 277.74805 C 204.39852 276.64091 203.14962 275.57203 202.13281 275.39844 z M 194.09766 280.3457 C 190.94976 282.22153 188.94662 282.35287 192.33789 283.4668 C 193.01788 283.69015 194.02275 283.6528 194.64258 283.95508 C 194.62933 283.92445 194.58793 283.88301 194.58203 283.85742 C 194.50393 283.51832 194.7176 283.133 194.58203 282.8125 C 194.09767 281.66748 193.93644 282.04984 194.09766 280.3457 z M 194.64258 283.95508 C 194.77907 284.27056 195.23009 284.79011 195.16602 284.52734 C 195.09699 284.24445 194.89474 284.07805 194.64258 283.95508 z M 208.92578 283.48047 C 207.48773 283.47214 206.31423 284.83476 205.1582 285.64453 C 204.59051 285.74175 203.8533 285.47628 203.44531 285.88281 C 202.8191 286.50678 204.66212 290.20994 204.85547 290.30664 C 206.05352 290.9057 211.70081 291.5573 212.57031 290.98242 C 213.44437 290.40453 213.49211 288.36195 213.26758 287.47266 C 212.68173 285.15226 213.26358 287.62599 212.58203 286.8457 C 211.80676 285.95809 211.4299 284.6884 210.46094 284.01758 C 209.91381 283.6388 209.40513 283.48325 208.92578 283.48047 z M 182.98047 299.37109 C 184.10242 299.38146 185.2259 299.40039 186.34766 299.40039 L 186.34766 299.40234 C 186.99072 299.40034 187.63428 299.39748 188.27734 299.39648 C 188.37191 299.39627 188.93937 299.34698 188.98047 299.39648 C 189.19847 299.65895 189.07517 302.72856 188.98047 302.91797 C 188.86262 303.15367 188.49941 303.1359 188.27344 303.27148 C 187.63504 303.65452 186.6233 304.84331 185.83984 305 C 183.74961 305.41804 180.6957 304.69389 179.23242 303.23242 C 178.51884 302.51973 178.05253 301.59468 177.47266 300.76953 C 177.23803 300.43566 176.4451 299.97347 176.78906 299.75391 C 177.58995 299.24268 178.66769 299.43549 179.61719 299.40039 C 180.73818 299.35894 181.85852 299.36073 182.98047 299.37109 z M 203.78711 302.92773 C 204.49205 302.94922 205.1975 302.97515 205.90039 302.93945 C 205.48884 306.65965 205.24347 306.38867 201.61523 306.38867 C 200.9038 306.38867 199.03488 306.64932 198.49805 306.06641 C 195.87383 303.21691 200.95833 302.99065 201.67383 302.93945 C 202.3762 302.88919 203.08217 302.90624 203.78711 302.92773 z " />
    </g>
    <path style="fill:#8a3d1b;stroke:none;" d="M 229.98047 184.76953 C 230.48955 185.65266 230.52101 186.68359 230.16992 187.80664 C 230.62145 189.01721 231.02578 190.28361 231.27734 190.92188 C 231.89544 192.49004 233.61719 194.69214 234.93359 195.70312 C 234.94907 195.71501 235.74859 195.58225 236.18164 195.51758 C 233.68167 191.18561 230.2422 185.21783 229.98047 184.76953 z M 223.86914 201.21875 C 223.46385 201.21281 223.06904 201.25739 222.70312 201.37695 C 218.53386 202.73931 220.68004 206.77647 223.31055 208.97852 C 223.77059 209.36366 224.44638 209.3053 225.04297 209.03125 C 225.63958 208.75717 226.15741 208.26891 226.29883 207.79883 C 226.86404 205.91838 227.0287 203.93895 227.39453 202.00977 C 226.40453 201.71259 225.08502 201.23657 223.86914 201.21875 z M 238.70117 202.15625 C 236.55069 202.59705 235.51516 209.63834 237.71875 209.47266 C 238.32994 209.42666 238.88505 209.10102 239.46875 208.91406 C 239.94141 208.18241 240.63981 207.55406 240.88672 206.71875 C 241.12762 205.90376 241.09971 204.98647 240.87109 204.16797 C 240.68087 203.48693 240.2596 202.82029 239.68359 202.41016 C 239.33703 202.1634 239.00838 202.09328 238.70117 202.15625 z M 207.11914 205.33789 C 205.25225 206.06484 203.46151 206.62642 201.81641 206.98633 C 202.63676 207.47787 205.43722 206.96113 204.64648 209.5 C 204.54135 209.83756 204.471 210.04493 204.40234 210.22656 C 205.63433 209.39463 206.99451 208.4266 207.39258 207.77734 C 208.01692 206.75912 207.76401 205.92075 207.11914 205.33789 z M 204.40234 210.22656 C 203.76691 210.65565 203.05142 211.13696 202.75977 211.33398 C 203.5377 210.97042 203.88785 210.9042 204.10352 210.73242 C 204.22634 210.63462 204.31152 210.4668 204.40234 210.22656 z M 231.56641 206.60938 C 231.33619 206.63844 231.12739 206.75831 230.97852 207.00586 C 229.3371 209.73529 230.10622 212.39112 232.19531 210.85547 C 232.49376 210.63611 232.83371 210.31062 233.21875 209.85742 C 233.23205 209.18308 233.38581 208.49656 233.25977 207.83398 C 233.1496 207.25498 232.25704 206.52218 231.56641 206.60938 z M 215.01953 214.35547 C 214.1037 214.45259 213.10038 214.85662 212.23438 215.41602 C 212.14677 215.47272 212.3498 215.58933 212.4082 215.67578 L 213.77148 217.69336 C 214.3646 218.57135 214.89074 217.71811 215.58789 217.52344 C 215.70142 217.49174 215.67007 217.79121 215.78516 217.81641 C 216.4989 217.97266 216.86851 217.79114 217.81836 217.13281 C 217.82655 214.88529 216.54592 214.19359 215.01953 214.35547 z M 219.4082 221.00586 C 218.42497 221.0273 217.4688 221.26943 217.41016 221.57812 C 217.30122 222.15161 218.69418 223.34807 218.5957 223.88281 C 218.5443 224.16168 218.4085 224.39258 218.57227 224.85352 C 218.63837 225.03959 218.75221 225.07485 218.89453 225.01562 C 219.3215 224.83796 220.01375 223.81021 220.49219 223.46094 C 222.75792 221.54868 221.04692 220.97012 219.4082 221.00586 z M 228.4082 228.49219 C 227.36449 228.70033 228.32415 231.54839 229.19141 231.89453 C 229.27061 231.92613 229.46832 231.79155 229.67188 231.63281 C 229.87543 231.47406 230.08481 231.29071 230.18555 231.22266 L 231.26953 230.32812 C 229.77067 228.84922 228.88262 228.39758 228.4082 228.49219 z " />
    <g>
      <path style="fill:#808080;" d="m 202.96,189.358 c -12.136,-11.724 -19.814,-18.516 -28.432,-24.096 -6.008,-29.044 -18.386,-53.734 -28.406,-84.1 17.32,21.164 36.624,48.194 59.838,65.948 -0.44,8.534 2.38,22.692 5.46,37.368 -1.96,2.666 -5.22,4.612 -8.46,4.88 z"/>
      <path style="fill:#8a3d1b;stroke:none;" d="M 146.12109 81.162109 C 146.40079 82.009753 146.68947 82.836765 146.97266 83.675781 C 147.28198 83.664194 147.75525 83.700078 148.20117 83.742188 C 147.51198 82.890405 146.804 81.996581 146.12109 81.162109 z M 148.16992 87.201172 C 149.05277 89.743148 149.95598 92.220558 150.85938 94.695312 C 151.62322 94.723625 152.64738 94.381995 155.13867 93.607422 C 155.43464 93.5154 155.63832 93.434924 155.89453 93.347656 C 154.25165 91.279023 152.61953 89.242861 151.01367 87.236328 C 150.16912 87.333254 149.33758 87.294392 149.07812 87.287109 C 148.77447 87.278602 148.47255 87.229704 148.16992 87.201172 z M 157.45898 95.314453 C 157.23144 96.650704 157.07419 98.040768 157.5918 98.896484 C 158.46295 100.33669 160.69387 101.37812 162.93359 102.1543 C 161.08668 99.853189 159.25757 97.57853 157.45898 95.314453 z M 155.58984 107.34766 C 155.8858 108.12176 156.17146 108.87625 156.4668 109.64648 C 158.3359 108.92045 158.91352 108.68996 156.43359 107.5918 C 156.19317 107.48534 155.88653 107.41893 155.58984 107.34766 z M 175.80273 117.69922 C 175.79639 118.15332 175.80709 118.54701 175.84766 118.77148 C 176.05244 119.90455 177.18905 121.09345 178.18359 121.36719 C 178.4753 121.44748 178.74995 121.43535 178.99023 121.33398 C 177.91936 120.12932 176.85658 118.91836 175.80273 117.69922 z M 167.19727 122.00586 C 162.223 122.49438 169.26519 124.51899 165.96289 126.66016 C 165.66624 126.85251 165.47947 126.96674 165.31055 127.0625 C 166.78975 127.21045 168.4546 127.33654 169.17578 127.0918 C 172.28756 126.03591 169.48351 121.78134 167.19727 122.00586 z M 165.31055 127.0625 C 164.54762 126.9862 163.69006 126.90019 163.33984 126.86523 C 164.17045 127.08303 164.4802 127.25593 164.75586 127.26172 C 164.91282 127.26472 165.08712 127.18914 165.31055 127.0625 z M 183.65625 131.625 C 180.7553 131.44398 180.11044 135.24024 180.64844 138.19336 C 180.75596 138.78363 181.31134 139.16916 181.94531 139.33984 C 182.57929 139.51051 183.28994 139.4644 183.69922 139.19336 C 185.33606 138.10877 186.72752 136.69484 188.24219 135.44531 C 187.48053 134.29672 186.47226 132.52698 185.04102 131.95898 C 184.53141 131.75674 184.07067 131.65086 183.65625 131.625 z M 196.38086 142.64844 C 194.18716 142.41067 189.73841 146.59331 191.41016 147.7832 C 191.9095 148.13862 192.54492 148.24325 193.11328 148.47266 C 193.9445 148.21225 194.88352 148.17586 195.60742 147.69141 C 196.3137 147.21876 196.87906 146.49623 197.22656 145.7207 C 197.5157 145.07541 197.61821 144.29301 197.4375 143.60938 C 197.27442 142.99241 196.8871 142.70331 196.38086 142.64844 z M 169.02734 144.3457 C 169.35324 145.38472 169.66315 146.43166 169.97656 147.47656 C 172.53837 147.13513 170.44403 145.08882 169.02734 144.3457 z M 203.22656 159.09961 C 202.94735 159.12781 202.26247 159.62215 201.91016 159.76562 C 200.16614 160.47584 200.86846 159.9696 200.03906 160.64844 C 199.04941 161.45842 198.65602 163.61795 199.26758 164.77539 C 199.66989 165.5368 200.62944 165.83016 201.26953 166.40625 C 201.87764 164.0416 202.8787 161.64813 203.34375 159.25586 C 203.36795 159.13139 203.31963 159.09021 203.22656 159.09961 z M 207.23828 162.59375 C 206.60979 163.13222 206.23644 163.86449 206.52344 165.09766 C 206.57974 165.33937 206.26962 165.7141 206.77734 165.82422 C 207.10466 165.89523 207.4421 165.88623 207.7793 165.87109 C 207.5888 164.76086 207.40475 163.66203 207.23828 162.59375 z M 174.90039 165.39062 C 174.85674 165.38544 174.85577 165.43325 174.85742 165.48438 C 176.23074 166.38109 177.5866 167.32455 178.9375 168.30078 C 178.91408 166.67538 176.90446 165.63248 174.90039 165.39062 z M 195.06836 170.8457 C 194.952 170.83546 194.82533 170.85411 194.69141 170.9082 C 192.89495 171.63383 190.57591 174.49168 193.16406 174.64648 C 193.53379 174.66858 194.00599 174.63546 194.5918 174.5332 C 195.03312 174.02316 195.58936 173.59204 195.91602 173.00195 C 196.24906 172.40036 195.88291 170.91738 195.06836 170.8457 z M 208.88086 171.92969 C 208.59949 172.30172 208.33371 172.68341 208.12695 173.10156 C 207.80962 173.74336 207.98518 174.5239 207.91406 175.23633 C 207.49303 179.4538 207.96254 179.82775 209.95898 183.30859 C 210.31152 183.92325 210.48542 184.65751 210.66992 185.38867 C 210.9357 185.09529 211.18828 184.79359 211.41992 184.47852 C 210.52252 180.20244 209.65991 175.99151 208.88086 171.92969 z M 202.38672 176.22852 C 201.71382 176.30967 201.03582 176.7385 200.71289 177.25 C 199.69156 178.86771 199.64708 178.8609 200.70117 180.60352 C 201.11157 181.28201 201.30585 182.38896 201.66992 183.09766 C 204.3442 180.59395 205.30989 181.07302 204.02539 177.29297 C 203.72694 176.41465 203.05962 176.14736 202.38672 176.22852 z " />
      <path style="fill:none;" d="m 207.64,187.842 c -5.56,-10.132 -10.236,-18.848 -20.652,-25.528 -4.05,-23.692 -25.892,-57.13 -40.866,-81.152"/>
    </g>
    <g>
      <path style="fill:#808080;" d="m 284.56,175.26 c -13.22,5.432 -18.74,5.336 -31.68,1.868 -3.48,12.944 -11.7,17.66 -22.9,7.71 4.74,8.198 7.14,12.356 5.42,18.802 6.52,1.88 8.8,5.8 13.54,14.02 -3.02,-14.66 5.2,-19.382 18.16,-15.92 3.46,-12.938 6.14,-17.76 17.46,-26.48 z"/>
      <path style="fill:#8a3d1b;stroke:none;" d="M 266.93945 182.32812 C 266.18172 182.73211 265.79629 183.22058 265.63086 183 C 265.53666 182.8744 265.43743 183.27484 265.35938 183.51953 C 265.97134 183.05762 266.65857 182.54022 266.93945 182.32812 z M 265.35938 183.51953 C 264.17284 184.41512 262.86337 185.45376 262.5 186.12305 C 260.93205 189.01089 265.88198 190.2326 267.4082 188.51562 C 270.72884 184.77994 264.18325 188.0738 265.1543 184.25977 C 265.2415 183.91715 265.30036 183.70452 265.35938 183.51953 z M 257.24023 182.82227 C 257.15953 182.79487 256.96835 182.93819 256.77344 183.10742 C 256.57852 183.27665 256.38022 183.47167 256.2832 183.54492 L 255.24609 184.49609 C 260.28476 188.96974 258.52644 183.2587 257.24023 182.82227 z M 247.92773 187.03711 C 246.52938 188.51529 244.93423 189.5012 243.16016 189.93164 C 243.04977 190.93253 242.96518 191.93923 242.83008 192.93555 C 244.16909 193.2618 246.11039 193.87491 247.54688 193.32031 C 250.9052 192.02372 249.90497 189.16434 247.92773 187.03711 z M 232.98242 187.20508 C 232.69616 187.43314 232.40821 187.68434 232.2793 187.78516 C 232.50946 188.53281 232.63692 189.32337 232.91602 190.05078 C 233.05348 190.30915 233.19132 190.56927 233.32031 190.82031 C 233.92238 191.75597 236.75673 195.59691 238.01172 193.06641 C 238.02365 193.04236 236.7882 190.64465 235.66016 188.78125 C 234.79101 188.35561 233.89936 187.8357 232.98242 187.20508 z M 261.50977 196.16406 C 260.87011 196.11161 260.23147 196.20626 259.77344 196.44336 C 258.85738 196.91755 258.66516 197.96636 260.64453 199.57422 C 261.5701 200.32604 263.26177 199.88587 263.92383 201.04492 C 264.7768 201.19045 265.65543 201.37792 266.55859 201.60547 C 266.49791 200.42769 264.05764 197.37028 263.25 196.76172 C 262.79021 196.41525 262.14942 196.21651 261.50977 196.16406 z M 243.36328 203.55664 C 243.09946 207.21051 242.06679 207.51649 245.57617 209.41992 C 247.207 210.30446 248.2574 208.39075 248.03711 207.20117 C 247.68876 205.32001 247.72458 205.29632 245.76758 204.73242 C 245.00563 204.51287 244.11173 203.82983 243.36328 203.55664 z " />
      <path style="fill:none;" d="m 253.02,177.338 c 3.2,5.522 7.66,9.062 11.98,12.77 -0.64,3.948 0.88,7.662 2.04,11.432"/>
      <path style="fill:none;" d="m 235.5,203.58 c 6.54,-4.784 22.9,-15.484 29.5,-13.472 5.06,-6.24 10.28,-9.756 19.56,-14.848"/>
    </g>
    <g>
      <path style="fill:#808080;" d="m 417,508.68 c 0.78,1.34 4.78,8.24 7.14,12.34 2.36,4.1 -5.48,11.38 -14.5,16.6 -9.02,5.2 -19.24,8.38 -21.6,4.28 -2.36,-4.08 -6.46,-11.18 -7.18,-12.44 2.38,4.12 12.6,0.96 21.6,-4.24 9.04,-5.22 16.92,-12.44 14.54,-16.54 z"/>
      <path style="fill:#8a3d1b;stroke:none;" d="M 418.47656 511.23047 C 418.08743 511.39062 417.64635 511.6069 417.1875 511.75195 C 416.83406 512.86353 416.09914 514.06647 415.08203 515.31055 C 416.58922 515.87992 419.09383 514.65336 419.38281 513.05664 C 419.40115 512.95531 419.38994 512.92409 419.4043 512.83203 C 419.09313 512.29515 418.7237 511.65649 418.47656 511.23047 z M 420.12695 522.26367 C 418.98105 522.15086 417.52938 522.91899 416.99414 523.80078 C 416.45893 524.68257 416.84014 525.67734 419.36719 526.01953 C 420.61802 526.18893 421.90766 524.74407 423.13867 525.67773 C 423.32914 525.67173 423.46719 525.6555 423.63281 525.64453 C 423.98309 525.02287 424.2361 524.42186 424.39062 523.8457 C 423.01505 523.07449 420.86264 522.33611 420.12695 522.26367 z M 405.07422 523.62695 C 404.21783 524.17303 403.34828 524.70832 402.46094 525.2207 C 401.45586 525.80141 400.43305 526.35052 399.41016 526.87305 C 399.83958 527.79149 400.295 528.69963 400.70117 529.62695 C 402.01424 529.20835 403.99201 528.72141 404.92969 527.5 C 406.15009 525.91032 405.95859 524.60797 405.07422 523.62695 z M 390.27344 530.54883 C 389.04509 530.88559 387.88541 531.12175 386.81641 531.24414 C 386.78176 531.96152 386.69031 532.68937 386.9082 533.36328 C 387.16976 534.17187 387.71036 534.91269 388.36133 535.45898 C 388.90298 535.91354 389.627 536.22518 390.33398 536.23828 C 392.56576 536.2796 391.68989 532.63875 390.27344 530.54883 z M 398.04102 539.08984 C 397.95492 539.08484 394.08746 542.82034 393.79102 543.11133 C 393.65026 543.2495 393.50319 543.49347 393.35547 543.73047 C 396.16115 543.51591 399.71635 542.41131 403.41406 540.78125 C 401.96121 539.91795 399.58306 539.17426 398.04102 539.08984 z " />
    </g>
    <path style="fill:#808080;" d="m 145.73,167.698 c -92.96,53.672 39.238,178.002 88.47,149.102 -1.4,-2.44 -2.44,-4.26 -3.7,-6.42 l -1.96,0.8 c -43.438,26.32 -164.116,-91.06 -80.376,-139.216 l 0.894,-0.516 c -1.132,-1.29 -2.226,-2.564 -3.328,-3.75 z"/>
  </g>
  <g id="horse" style="fill:#ffcc00;stroke:#806600;stroke-width:2;stroke-linecap:round;stroke-linejoin:round;">
    <path id="neck" d="M 279.39648 160.36914 C 272.96753 160.28058 266.70553 160.98352 260.85742 162.5918 C 231.84395 170.57077 228.14545 210.23918 226.00977 240.25391 C 224.48969 261.61709 251.78252 272.51432 246.03711 293.14648 C 240.46606 313.15259 203.6439 315.55205 186.91406 377.76367 C 186.41082 379.63504 185.84004 381.32269 185.26367 382.99414 C 216.971 434.62926 263.95859 470.27197 300 491.97852 C 324.49046 477.22873 354.01488 455.99148 380.38867 427.73047 C 367.51536 414.22029 358.83745 399.98582 358.76172 379.64258 C 358.65246 350.24836 378.68839 309.62586 379.40625 280.24023 C 380.29334 243.92688 372.85034 227.40662 352.45703 197.10938 C 338.26336 176.02255 307.25528 160.75292 279.39648 160.36914 z " />
    <path id="head" d="m 308.24929,259.97849 c -8.29186,23.78047 -28.54269,29.36095 -45.99646,27.69175 -18.4708,-1.76648 -21.38915,-10.85163 -39.89493,-12.20315 -10.14228,-0.74074 -23.26125,2.54953 -32.38528,7.04026 -11.25936,5.54174 -10.67332,19.22792 -22.99823,21.59022 -5.77736,1.10732 -14.30948,1.74765 -17.55816,-3.62429 -2.9914,-4.94653 -8.98529,-3.50629 -10.13358,-6.70148 -2.62339,-7.29946 5.99048,-13.42715 12.67248,-17.36601 8.73974,-5.15186 12.99735,-8.348 22.9364,-10.38269 24.72601,-5.06183 4.7914,-6.9339 -1.92457,-4.91149 -8.98961,2.70704 -17.31501,9.5472 -26.64404,10.60067 -7.04315,0.7953 -10.30755,-3.49754 -15.4886,-5.16289 -3.5809,-1.15097 -9.4764,-2.69093 -9.79947,-6.43833 -0.72672,-8.43013 5.1789,-11.18955 8.11646,-19.12464 3.13648,-8.47244 -1.86942,-9.17394 1.35112,-16.03851 0.95099,-2.02705 5.65703,-7.6288 16.40975,-7.95775 8.31579,-0.25445 37.85063,-19.56255 47.79221,-21.92947 9.87073,-2.3501 20.65817,-18.93373 28.36932,-21.24854 15.06686,-4.52294 18.00592,2.07139 31.66946,0.27498"/>
    <path id="nose" style="fill:#806600;stroke:none;" d="m 148.91074,236.57997 c 0.0307,-1.4611 0.47151,-2.92941 0.23767,-4.3796 -0.18649,-1.15769 -1.4182,-1.71822 -2.28944,-2.47146 -0.90956,-0.7864 -0.71779,-2.38848 -0.2183,-3.44009 0.48826,-1.02772 1.90168,-1.08862 2.93237,-0.71611 2.62562,0.94884 4.69325,1.69826 6.07543,4.07707 1.96941,3.38945 -2.11799,8.04546 -4.93666,8.65522 -1.74936,0.37842 -1.83306,-0.2021 -1.80116,-1.72498 z" />
    <path id="mane" style="fill:#ee0000;stroke:#aa0000;" d="m 286.06498,139.73223 c 6.79184,1.68284 8.07655,-5.63262 16.89001,-9.56987 11.45768,-5.11855 8.29468,-4.95706 10.01055,-17.58086 5.9659,4.22144 9.95036,10.84044 14.427,23.25941 13.94697,-11.71526 33.13039,-9.34311 47.08316,5.94487 -11.75691,1.60822 -21.6767,14.5353 -11.00673,12.59547 8.43272,-1.53308 14.00488,-1.89864 22.48422,-0.97937 8.06876,0.8963 13.82657,8.50553 26.68392,4.34232 2.99828,12.06962 -16.47278,15.63725 -22.71514,21.75117 3.64926,4.57913 11.58511,4.38806 21.10026,0.0299 12.02923,-5.50963 19.87112,13.91004 39.47767,-2.24026 4.95455,11.71156 -11.09262,19.22627 -22.87496,22.9177 -7.89589,1.71344 -16.25337,11.48069 -16.25337,11.48069 0,0 16.87431,-8.52294 30.30212,1.86454 11.80579,9.13276 14.20148,19.1194 33.68868,17.95344 -11.29656,17.38341 -33.43815,-1.8601 -52.82486,19.30914 35.02127,3.10408 30.04634,40.24339 60.35085,30.89483 -5.50795,21.12306 -38.25881,1.70789 -43.63178,19.13866 14.89031,-2.1317 13.43723,17.68864 33.87404,10.34797 -13.63314,26.43686 -38.23545,10.40612 -45.64558,36.0334 16.83241,0.84252 33.28848,-9.19814 39.06421,15.82301 -24.22349,-13.81114 -30.44276,11.78885 -49.44331,8.76642 21.55656,7.19948 9.52871,16.94983 27.53329,14.61389 -8.64422,14.02214 -32.40852,9.42765 -41.05953,8.57558 9.85561,2.4285 18.49416,19.44955 17.82379,28.07045 -5.10639,-13.16366 -21.13775,-7.72847 -27.15987,-10.12414 4.95658,15.32358 -8.20067,26.51058 2.19694,42.6422 -24.10851,-3.76939 -27.95833,-39.64693 -35.45349,-39.89406 -12.87223,-0.4244 -11.98531,20.42254 -21.67224,16.40231 0.18101,-27.03329 -10.3964,-36.96233 8.28844,-60.88683 7.25147,-9.28493 7.83358,-30.13572 -3.34181,-28.04906 1.04085,-11.5104 17.59188,-27.58559 16.95004,-41.58401 -2.75982,-60.19162 1.08263,-44.73243 -9.72651,-71.12475 -4.67168,-11.40667 -11.56175,-19.30471 -18.14058,-11.69084 -2.29432,-10.39486 -8.44752,-8.2789 -8.03806,-23.95543 0.35657,-13.65165 -13.1348,-24.91901 -25.31734,-16.42571 -4.28329,2.98617 -1.58063,4.77041 -15.01648,7.20349 0.10199,-6.45713 -2.51748,-11.35322 -11.15179,-13.19927 -6.69861,-1.43221 -20.20623,4.87824 -26.70089,5.94613 -20.2479,3.32923 -25.57313,-1.01827 -34.62385,-16.38045 39.87078,-0.16452 44.6456,-13.68786 23.37823,-16.71927 16.12572,-16.31954 39.16162,-8.23539 50.19075,-5.50268 z" />
    <g id="ear">
      <path d="m 290.01558,185.06368 c -1.06219,-23.07451 26.47795,-30.47025 43.62054,-48.74895 6.93459,-7.28879 13.80298,17.23342 8.11772,32.44335 -5.50571,14.72949 -13.96234,22.98477 -27.00785,25.24844" />
      <path style="fill:#806600;stroke:none;" d="m 301.16507,181.44528 c -1.01276,-0.1706 -1.08305,-1.74647 -1.38896,-2.73444 -0.29414,-0.94989 -0.44781,-1.95636 -0.37547,-2.94693 0.10816,-1.47852 0.65315,-2.90746 1.52596,-4.11445 0.48787,-0.67468 1.01531,-1.32522 1.62015,-1.89234 1.03516,-0.97056 2.22839,-1.78626 3.50081,-2.41309 1.20729,-0.59479 2.47889,-1.06343 3.78743,-1.39129 0.95484,-0.23911 1.93849,-0.39233 2.91897,-0.45964 0.87648,-0.0601 1.71105,0.28133 2.5439,0.51192 0.84322,0.23334 2.01415,0.0815 2.49642,0.81162 0.34725,0.52572 -0.23653,1.49237 -0.83482,1.69474 -1.94646,0.65823 -4.08394,0.45705 -6.12121,0.72083 -1.3741,0.17782 -2.79221,0.37221 -4.00518,1.09828 -0.64913,0.38855 -1.20381,0.91365 -1.61743,1.55101 -0.9438,1.45441 -1.1188,3.24144 -1.17569,4.93046 -0.026,0.76293 0.16566,1.54867 0.0145,2.29044 -0.22669,1.10998 -0.50856,2.27704 -1.19456,3.17766 -0.22379,0.29391 -0.7421,0.15498 -1.06964,0.0145 -0.32312,-0.1385 -0.27845,-0.79098 -0.62501,-0.84933 z m 6.47311,7.60878 c -0.86629,-0.93468 -1.37093,-2.39299 -0.69761,-3.58313 0.98484,-1.7408 2.88158,-2.62803 4.54848,-3.57965 0.89631,-0.51172 2.02519,-0.74234 2.72079,-1.49368 2.57235,-2.77832 4.40814,-6.18461 5.96236,-9.63809 1.68493,-3.74391 2.68288,-7.75745 3.30358,-11.80745 0.21888,-1.42813 0.12495,-2.90414 0.47434,-4.30476 0.10703,-0.42999 0.60457,-1.04768 1.05354,-0.94555 0.43374,0.0986 0.99863,0.0341 1.0959,0.66013 0.47773,3.07447 0.78215,6.17774 0.68879,9.2782 -0.13642,4.52971 -0.97263,9.05422 -2.62786,13.28719 -1.15258,2.94739 -2.73143,5.7935 -4.99647,8.01991 -1.50684,1.48116 -3.26813,2.7127 -5.24453,3.48725 -1.87236,0.73375 -3.88293,1.19967 -5.88677,1.08767 -0.20385,-0.0113 -0.25589,-0.31838 -0.39454,-0.46804 z" />
    </g>
    <g id="eye">
      <path style="fill:#ffffff;" d="m 228.82043,202.36767 c 0.0562,4.66051 6.5339,12.37027 14.45521,12.46468 7.93822,-0.0764 14.41733,-8.05532 14.53213,-12.69894 -0.20963,-4.84811 -6.69587,-3.76603 -14.63411,-3.68969 -7.9551,0.24721 -14.39227,-0.90727 -14.35323,3.92395 z"/>
      <path style="fill:#ee0000;stroke:none;" d="m 236.24994,205.68911 a 6.2278954,6.5006874 5.6524808 0 0 5.50427,7.0962 6.2278954,6.5006874 5.6524808 0 0 6.78851,-5.87954 6.2278954,6.5006874 5.6524808 0 0 -5.50423,-7.09618 6.2278954,6.5006874 5.6524808 0 0 -6.78855,5.87952 z" />
      <path style="fill:#000000;stroke:none;" d="m 242.87126,203.24115 c 1.53657,0.15208 2.9549,1.49931 2.769,3.37736 -0.18591,1.87806 -1.84075,2.92112 -3.37737,2.76903 -1.87804,-0.18592 -3.29635,-1.53309 -3.11047,-3.41115 0.18593,-1.87808 1.84077,-2.92113 3.71884,-2.73524 z" />
      <path style="fill:#ffffff;stroke:none;" d="m 241.07767,202.2016 c 1.02441,0.10155 1.9474,1.22719 1.82912,2.42231 -0.13496,1.36586 -1.24406,2.11817 -2.26849,2.01675 -1.36585,-0.13496 -2.30576,-1.09023 -2.17058,-2.45611 0.11833,-1.19513 1.24409,-2.11812 2.60995,-1.98295 z" />
    </g>
  </g>
</defs>
<use id="background" xlink:href="#shield" style="fill:#ffff00;"/>
<path style="fill:#000000;" d="m 300,2 v 298 h 295.89 c 1.38,-13.25 2.11,-26.91 2.11,-41 v -257 z"/>
<path style="fill:#cd7f32;" d="m 360.25,41.748 a 20.497,20.497 0 0 0 -20.5,20.496 20.497,20.497 0 0 0 10.29,17.748 20.497,20.497 0 0 0 -10.29,17.754 20.497,20.497 0 0 0 10.3,17.744 20.497,20.497 0 0 0 -10.3,17.76 20.497,20.497 0 0 0 10.29,17.75 20.497,20.497 0 0 0 -10.29,17.75 20.497,20.497 0 0 0 10.29,17.75 20.497,20.497 0 0 0 -10.29,17.75 20.497,20.497 0 0 0 10.3,17.75 20.497,20.497 0 0 0 -10.3,17.75 20.497,20.497 0 0 0 20.5,20.5 20.497,20.497 0 0 0 17.75,-10.29 20.497,20.497 0 0 0 17.75,10.29 20.497,20.497 0 0 0 17.75,-10.29 20.497,20.497 0 0 0 17.75,10.29 20.497,20.497 0 0 0 17.75,-10.29 20.497,20.497 0 0 0 17.75,10.29 20.497,20.497 0 0 0 17.75,-10.29 20.497,20.497 0 0 0 17.75,10.29 20.497,20.497 0 0 0 17.75,-10.29 20.497,20.497 0 0 0 17.75,10.29 20.497,20.497 0 0 0 20.5,-20.5 20.497,20.497 0 0 0 -10.3,-17.75 20.497,20.497 0 0 0 10.3,-17.75 20.497,20.497 0 0 0 -10.29,-17.75 20.497,20.497 0 0 0 10.29,-17.75 20.497,20.497 0 0 0 -10.29,-17.75 20.497,20.497 0 0 0 10.29,-17.75 20.497,20.497 0 0 0 -10.29,-17.76 20.497,20.497 0 0 0 10.29,-17.742 20.497,20.497 0 0 0 -10.29,-17.754 20.497,20.497 0 0 0 10.29,-17.748 20.497,20.497 0 0 0 -20.5,-20.496 20.497,20.497 0 0 0 -17.75,10.289 20.497,20.497 0 0 0 -17.75,-10.291 20.497,20.497 0 0 0 -17.75,10.291 20.497,20.497 0 0 0 -17.75,-10.291 20.497,20.497 0 0 0 -17.75,10.291 20.497,20.497 0 0 0 -17.75,-10.291 20.497,20.497 0 0 0 -17.75,10.289 20.497,20.497 0 0 0 -17.75,-10.289 20.497,20.497 0 0 0 -17.75,10.281 20.497,20.497 0 0 0 -17.75,-10.281 z"/>
<use xlink:href="#horse" transform="translate(300)scale(0.5)"/>
<path style="fill:#000000;" d="m 4.1074,300 c 26.5386,255.76 295.8926,357 295.8926,357 v -357 z"/>
<path style="fill:#cd7f32;" d="m 72.811,340.31 a 19.341,19.341 0 0 0 -19.342,19.34 19.341,19.341 0 0 0 18.039,19.28 19.341,19.341 0 0 0 -5.197,13.15 19.341,19.341 0 0 0 19.341,19.34 19.341,19.341 0 0 0 0.42,0 19.341,19.341 0 0 0 -3.103,10.47 19.341,19.341 0 0 0 19.341,19.34 19.341,19.341 0 0 0 0.84,0 19.341,19.341 0 0 0 -2.19,8.91 19.341,19.341 0 0 0 19.34,19.34 19.341,19.341 0 0 0 2.5,-0.18 19.341,19.341 0 0 0 -1.36,7.08 19.341,19.341 0 0 0 19.34,19.34 19.341,19.341 0 0 0 3.87,-0.41 19.341,19.341 0 0 0 -0.78,5.4 19.341,19.341 0 0 0 19.34,19.34 19.341,19.341 0 0 0 5.49,-0.81 19.341,19.341 0 0 0 -0.54,4.45 19.341,19.341 0 0 0 19.34,19.34 19.341,19.341 0 0 0 6.93,-1.29 19.341,19.341 0 0 0 -0.13,2.18 19.341,19.341 0 0 0 19.34,19.34 19.341,19.341 0 0 0 7.39,-1.48 19.341,19.341 0 0 0 19.3,18.27 19.341,19.341 0 0 0 19.34,-19.34 19.341,19.341 0 0 0 -9.71,-16.75 19.341,19.341 0 0 0 9.71,-16.75 19.341,19.341 0 0 0 -9.71,-16.75 19.341,19.341 0 0 0 9.71,-16.75 19.341,19.341 0 0 0 -9.71,-16.75 19.341,19.341 0 0 0 9.71,-16.75 19.341,19.341 0 0 0 -9.71,-16.75 19.341,19.341 0 0 0 9.71,-16.75 19.341,19.341 0 0 0 -9.71,-16.75 19.341,19.341 0 0 0 9.71,-16.75 19.341,19.341 0 0 0 -9.71,-16.75 19.341,19.341 0 0 0 9.71,-16.75 19.341,19.341 0 0 0 -19.34,-19.34 19.341,19.341 0 0 0 -16.76,9.72 19.341,19.341 0 0 0 -16.76,-9.74 19.341,19.341 0 0 0 -16.76,9.71 19.341,19.341 0 0 0 -16.74,-9.71 19.341,19.341 0 0 0 -16.76,9.71 19.341,19.341 0 0 0 -16.74,-9.71 19.341,19.341 0 0 0 -16.76,9.71 19.341,19.341 0 0 0 -16.74,-9.71 19.341,19.341 0 0 0 -16.755,9.71 19.341,19.341 0 0 0 -16.744,-9.71 z"/>
<use xlink:href="#horse" transform="translate(55,310)scale(0.4)"/>
<g id="dustin" transform="scale(0.5)">
  <use xlink:href="#axe" transform="translate(600)scale(-1,1)"/>
  <use xlink:href="#axe"/>
  <use xlink:href="#crown"/>
</g>
<g id="dustin2" transform="translate(280,280)scale(0.5)">
  <use xlink:href="#axe" transform="translate(660)scale(-1,1)"/>
  <use xlink:href="#axe" transform="translate(-60)"/>
  <use xlink:href="#crown" transform="translate(0,40)"/>
</g>
<use id="shine" xlink:href="#shield" style="fill:url(#rg);stroke:#000000;stroke-width:3;"/>
</svg>
