<?xml version="1.0" encoding="UTF-8"?>
<svg xmlns="http://www.w3.org/2000/svg" xmlns:xlink="http://www.w3.org/1999/xlink" width="600" height="660">
<defs>
  <radialGradient id="rg" gradientUnits="userSpaceOnUse" cx="220" cy="220" r="405">
    <stop style="stop-color:#fff;stop-opacity:.3" offset="0"/>
    <stop style="stop-color:#fff;stop-opacity:.2" offset=".2"/>
    <stop style="stop-color:#666;stop-opacity:.1" offset=".6"/>
    <stop style="stop-color:#000;stop-opacity:.13" offset="1"/>
  </radialGradient>
  <path id="shield" d="m2,2v257c0,286 298,398 298,398c0,0 298-112 298-398V2z"/>
</defs>
<use xlink:href="#shield" fill="#f5f5dc"/>
<path id="inescutcheon" style="fill:#a52a2a;" d="m 150,150 v 109 c 0,122.45655 90.12925,196.92036 150,232.97852 C 359.87075,455.92036 450,381.45655 450,259 V 150 Z"/>
<g id="parchment" style="fill:#ffffff;stroke:#4c4c15;stroke-width:1;stroke-linecap:round;stroke-linejoin:round;">
  <path d="m 367.4,199.7 c -6.4,18.5 -8.5,36.4 -8,54 0,0.2 -13.9,3.7 -13.6,3.7 3.3,-0.1 13.7,0.3 13.8,1.9 1.3,21.4 6.2,42.2 11.8,63 0.1,0.5 -4.6,2.2 -7.3,3.3 -0.5,0.2 -4.7,-0.6 -4.7,-0.6 0.3,-0.2 1.4,0.5 2.2,1.1 0.5,0.4 -1,3.2 -1,3.2 0,0 2.4,-2.6 3.1,-2.7 2.6,-0.2 8.6,-0.7 8.8,-0.2 4.2,15.7 8.6,31.3 12,47.1 l -170.7,2.4 c -10.8,-20.1 -16.4,-41.6 -18.5,-64.3 -0.1,-0.4 0.1,-3.1 0.2,-3 1.7,2 8.8,-0.8 8.6,-0.8 0,0 -9.3,-2.4 -9.5,-3.5 -1.3,-21.3 0,-43.5 2.8,-66.1 0,-0.3 0.8,-0.6 1.8,-0.9 0.3,-0.1 3.6,2.5 4,2.4 0.2,-0.1 -2.6,-2.8 -2.4,-2.8 1.2,-0.4 2.3,-0.7 2.3,-1 0.1,-0.4 4.2,-3.7 4.2,-3.7 0,0 -5.6,2.2 -5.9,2.2 -0.9,0.2 -3.1,0.4 -3.1,0.4 0,0 -0.2,-2 -0.1,-2.4 1.5,-11.7 2.2,-18.8 4.2,-30.7 z"/>
  <path style="fill:#501616;stroke:none;"  d="m 226.3,226.3 c 1.2,-1.4 2.4,-2.8 3.8,-4.1 0.2,-0.2 0.5,-0.4 0.8,-0.6 0.2,0 0.4,-0.1 0.6,-0.1 0.9,0.1 1.5,1.4 1.8,2 0.3,0.4 0.9,1.6 1.1,2 0.4,0.6 0.9,1.5 1.7,1.5 0.9,0 1.7,-0.7 2.4,-1.1 1.3,-1 2.6,-2.2 3.9,-3.3 0.1,0 0.3,0 0.4,0 0.9,0.1 1.8,1.3 2.4,2 0.7,1 1.3,2.1 1.7,3.3 0,0.2 0.4,1 0.7,0.9 0.8,-0.2 1.3,-1.8 1.6,-2.4 1.2,-2.6 2.5,-5.2 4,-7.6 0,0 0.4,-0.7 0.7,-0.7 0.1,0 0.1,0.1 0.2,0.1 0.1,0.3 0.3,0.5 0.4,0.7 0.8,1.3 1,1.7 1.6,3.1 1.4,3.2 0.6,1.3 1.9,4.5 0.5,1.2 1.2,3.4 2.5,4.1 0.3,0.2 0.6,0.2 0.9,0.2 0.3,-0.1 0.6,-0.2 0.9,-0.4 0.6,-0.5 1.3,-1.5 1.7,-2.1 0.9,-1.5 1.7,-3.1 2.5,-4.6 0.5,-1 0.8,-1.6 1.4,-2.5 0.1,-0.1 0.5,-0.8 0.9,-0.9 0.2,0 0.4,0.5 0.4,0.6 0.7,1.5 0.8,3.7 1.7,5.1 0.1,0.3 0.4,0.5 0.6,0.7 0.3,0.1 0.6,0.2 0.9,0.2 1.1,0.1 2.3,-0.3 3.3,-0.6 0.3,-0.1 0.6,-0.2 0.9,-0.3 0.3,0 0.6,0.1 0.9,0.1 1.2,0.5 1.9,1.7 2.7,2.6 0.2,0.2 0.3,0.4 0.6,0.5 0.2,0.2 0.5,0.2 0.8,0.2 0.4,-0.2 0.9,-0.3 1.3,-0.5 0.6,-0.4 1.2,-0.8 1.8,-1.1 0.8,-0.5 1.6,-0.9 2.4,-1.3 1.2,-0.7 3.1,-1.7 4.5,-2.2 0.6,-0.2 1.3,-0.3 1.9,-0.5 0.6,0 1.1,-0.2 1.7,-0.1 2.1,0.1 3.5,1.8 4.6,3.4 0.3,0.3 0.7,1.8 1.2,1.7 0.4,0 0.8,-0.5 1.1,-0.8 0.9,-0.9 1.9,-2 3,-2.8 0.6,-0.4 1.2,-0.8 2,-0.6 0.4,0.1 0.7,0.4 1,0.6 1.4,1.4 0.6,0.5 1.9,2.1 0.2,0.4 0.5,0.8 0.8,1.1 0.5,0.4 1.3,1 2,1.1 0.3,0 0.7,0 1,-0.1 0.3,-0.1 0.7,-0.2 1,-0.3 1.8,-1 3.1,-3.2 4.2,-4.8 1.2,-1.8 2,-3.7 3,-5.6 0,-0.1 0.3,-0.8 0.6,-1 0.2,-0.1 0.4,1.9 0.1,0.8 -0.4,-1.6 -0.7,-4.2 -0.3,-0.7 0.4,2.5 0.5,5.2 0.9,7.7 0.3,1.6 0.6,3.1 0.9,4.6 0.1,0.2 0.2,0.5 0.4,0.6 1,0.9 2.6,-2.3 3,-2.9 0.3,-0.3 0.7,-1.2 1.3,-1.1 0.4,0 1.1,0.9 1.4,1.2 0.4,0.4 0.7,1 1.3,1.3 0.6,0.3 1.2,0 1.8,-0.2 1.3,-0.6 2,-1.8 3,-2.6 0.2,-0.1 0.3,-0.2 0.5,-0.3 0.9,-0.5 1.6,-0.5 2.5,-0.2 0.7,0.4 1.3,0.7 2,0.9 0,0 -0.4,-3.9 -0.4,-3.9 v 0 c -0.7,-0.2 -1.4,-0.5 -2,-0.8 -1.1,-0.4 -1.9,-0.4 -3,0.2 -0.1,0.1 -0.3,0.2 -0.5,0.3 -1,0.8 -1.6,2 -2.8,2.6 -0.4,0.1 -0.7,0.3 -1.1,0.3 -0.7,-0.1 -1.2,-1.1 -1.6,-1.5 -0.5,-0.5 -1.1,-1.2 -1.8,-1.2 -0.8,0 -1.2,0.8 -1.6,1.4 -0.3,0.4 -0.8,1.4 -1.1,1.8 0,0 -0.7,1 -0.9,1 -0.2,0.1 -0.5,-0.7 -0.5,-0.7 0.2,1 0.3,1.9 0.5,2.8 0,0.4 -0.2,-0.8 -0.2,-1.2 -0.4,-2.2 -0.5,-4.5 -0.8,-6.7 -0.2,-2.5 -0.3,-3.4 -1,-6.5 -0.1,-0.3 -0.2,-0.6 -0.5,-0.8 -0.5,-0.4 -1.1,1 -1.1,1.1 -1,1.9 -1.8,3.9 -2.9,5.7 -1,1.5 -2.4,3.7 -4,4.6 -0.3,0.2 -0.6,0.3 -0.9,0.4 -0.3,0 -0.6,0.1 -0.9,0 -1.2,-0.2 -1.9,-1.2 -2.6,-2.1 -1.3,-1.6 -0.6,-0.8 -2,-2.2 -0.4,-0.2 -0.8,-0.4 -1.2,-0.5 -1.4,-0.3 -2.4,0.8 -3.3,1.6 -1.2,1 -1,0.8 -2,1.8 -0.2,0.1 -0.4,0.3 -0.5,0.5 -0.1,0 -0.1,0.1 -0.2,0.1 0,0 -0.8,-1.5 -0.9,-1.6 -1.2,-1.7 -2.8,-3.2 -5.1,-3.3 -0.5,0 -1.1,0.2 -1.6,0.3 -0.7,0.2 -1.4,0.3 -2,0.6 -0.7,0.3 -1.5,0.6 -2.2,1 -1.6,0.7 -3.1,1.6 -4.7,2.4 -0.6,0.3 -1.2,0.6 -1.8,0.9 -0.4,0.1 -0.8,0.2 -1.2,0.4 -0.1,-0.1 -0.4,-0.1 -0.5,-0.2 -0.2,-0.1 -1.1,-1.1 -1.1,-1.2 -0.7,-0.8 -1.5,-1.5 -2.5,-1.9 -0.3,0 -0.6,0 -1,0 -0.3,0 -0.6,0.2 -0.9,0.3 -0.9,0.2 -2,0.7 -3.1,0.5 -0.2,0 -0.4,-0.1 -0.7,-0.2 -0.1,-0.2 -0.3,-0.4 -0.5,-0.6 -0.9,-1.7 -0.8,-3.7 -1.7,-5.3 -0.3,-0.3 -0.5,-0.6 -1,-0.5 -0.5,0.1 -0.9,0.8 -1.1,1.1 -0.6,0.9 -0.9,1.6 -1.4,2.5 -0.8,1.6 -1.6,3.1 -2.4,4.6 -0.4,0.5 -1,1.5 -1.6,2 -0.2,0.1 -0.4,0.2 -0.6,0.3 -0.3,0 -0.5,0 -0.7,-0.1 -0.7,-0.4 -1.2,-1.3 -1.5,-2 -0.3,-0.7 -0.6,-1.3 -0.9,-2 -2.6,-6.3 0.9,1.9 -1.9,-4.4 -0.4,-1 -1,-2.5 -1.6,-3.4 -0.3,-0.4 -0.7,-1 -1.3,-0.9 -0.3,0.1 -0.7,0.7 -0.8,0.9 -1.5,2.5 -2.7,5.1 -4,7.7 -0.2,0.4 -0.4,0.7 -0.6,1.1 -0.1,0.3 -0.2,0.5 -0.3,0.7 -0.1,0.1 0,0.2 -0.1,0.3 -0.1,0 -0.5,-0.9 -0.5,-0.9 -0.4,-1.2 -1,-2.3 -1.8,-3.3 -0.6,-0.8 -1.6,-1.9 -2.8,-1.9 -0.2,-0.1 -0.4,0 -0.6,0.1 -1.3,1.1 -2.5,2.3 -3.8,3.3 -0.6,0.3 -1.3,1 -2,0.9 -0.7,0 -1.1,-0.9 -1.5,-1.3 -0.6,-1.2 -1.8,-4 -3.3,-4.1 -0.3,0 -0.6,0.2 -0.9,0.2 -0.3,0.2 -0.5,0.4 -0.8,0.7 -0.3,0.2 -0.6,0.5 -0.9,0.8 -1,1.1 -2,2.1 -3,3.1 0,0 1,3.8 1,3.8 z m 12.5,128.6 c 0.2,-1.5 0.9,-2.8 1.8,-4 0.3,-0.3 0.5,-0.6 0.9,-0.7 0.8,-0.2 1.8,0.4 2.5,0.7 1.1,0.5 2,1.3 3.2,1.6 0.2,0 0.4,0.1 0.7,0.1 1.7,0 3.4,-0.3 5.1,-0.3 1.7,0.2 3,1.3 4.2,2.4 0.3,0.3 0.8,0.8 1.2,0.9 0.7,0.1 1.4,-0.6 1.8,-1 1.7,-1.6 3.3,-3.5 4.9,-5.2 0.2,-0.2 0.4,-0.5 0.7,-0.6 1.3,-0.8 3.4,1.5 4.2,2.4 0.6,0.7 1.2,1.5 1.8,2.3 0.2,0.2 0.8,1 1,1.1 0.1,0.1 0.3,0.2 0.5,0.2 0.2,0 0.4,-0.1 0.7,-0.2 1.1,-0.5 1.7,-1.7 2.6,-2.5 0.2,-0.2 0.4,-0.2 0.5,-0.3 0.2,-0.1 0.4,-0.1 0.5,-0.1 1,0.2 1.9,2.4 2.3,3.2 0.4,0.7 0.7,1.5 1,2.3 0.1,0.1 0.5,1.1 0.6,1.2 0.1,0.1 0.2,0.1 0.2,0.2 0.2,-0.1 0.5,-0.2 0.5,-0.3 0.2,-0.4 0.3,-2.1 0.3,-2.3 0,-1.5 0.1,-3.1 0.2,-4.6 0.1,-2.1 0.4,-4.2 0.7,-6.3 0,-0.1 0.1,-0.2 0.1,-0.3 0,0 0,0 0,0 0,0.1 -0.1,0.2 -0.1,0.3 0.1,0.2 0.2,0.4 0.2,0.6 0.2,0.5 0.3,1.1 0.4,1.7 -0.7,-3.4 -0.9,-4.6 0.4,2.4 0.1,0.7 0.2,1.9 0.7,2.6 0.1,0.1 0.3,0.2 0.4,0.3 0.6,0.2 1,-0.1 1.5,-0.4 0.2,-0.1 0.6,-0.4 0.8,-0.5 0.2,0 0.3,0.1 0.4,0.1 1,1 1.4,2.4 2.2,3.5 0.1,0.1 0.2,0.2 0.4,0.2 0.8,0.1 1.4,-1 1.7,-1.5 0.4,-0.6 0.6,-1 1,-1.7 0.4,-0.7 0.7,-1.4 1,-2.2 0.1,-0.2 0.2,-0.6 0.5,-0.8 0,-0.1 0.1,-0.1 0.1,-0.1 1.1,1.1 1.8,2.5 2.5,3.8 0.2,0.2 0.3,0.4 0.6,0.5 1.5,0.8 3.5,-1.7 4.4,-2.7 0.5,-0.5 1.5,-1.7 2.3,-1.8 0.6,-0.1 1.1,0.7 1.4,1.1 0.5,0.7 0.9,1.5 1.2,2.3 0.3,0.5 0.5,1.1 0.8,1.6 0.1,0.2 0.2,0.3 0.4,0.5 0.1,0.1 0.3,0.2 0.4,0.3 1,0.3 2,-0.7 2.6,-1.2 0.9,-0.8 1.6,-1.7 2.5,-2.5 0.1,0 0.1,0 0.2,0 0.3,0.1 0.9,1.1 1,1.3 0.2,0.1 1,1.6 1.1,1.8 0.2,0.2 0.4,0.6 0.6,0.8 1.6,1.3 4.1,0.1 5.6,-0.6 2,-1.1 3.9,-2.4 5.6,-3.8 0.1,0 0.6,-0.5 0.8,-0.5 0.1,0 0.1,0.1 0.1,0.2 0.4,0.7 0.7,1.5 1,2.2 0.3,0.7 0.9,2 1.9,1.6 0.5,-0.2 0.9,-0.7 1.3,-1.1 0.2,-0.3 0.4,-0.5 0.6,-0.8 0.2,-0.2 0.4,-0.5 0.6,-0.7 0.4,-0.4 0.9,-1.2 1.5,-1.1 0.2,0 0.3,0.1 0.5,0.1 0.6,0.4 1,1.1 1.8,1.1 0.4,0 0.8,-0.2 1.2,-0.4 0.5,-0.2 0.8,-0.5 1.3,-0.5 1.2,0 2.6,0.9 3.6,1.5 0.8,0.5 1.5,1.2 2.5,1.3 0.9,0.1 1.6,-0.3 2.3,-0.9 1.1,-1 1.7,-2.4 2.6,-3.6 0.3,-0.1 0.1,-0.1 0.4,0 0,0 -0.6,-3.9 -0.6,-3.9 v 0 c -0.5,0 -0.3,-0.1 -0.7,0.1 -0.9,1.2 -1.4,2.7 -2.6,3.7 -0.5,0.5 -1.1,0.9 -1.9,0.8 -0.9,-0.1 -1.6,-0.9 -2.4,-1.3 -1.1,-0.6 -2.5,-1.5 -3.9,-1.5 -0.6,0 -0.8,0.2 -1.3,0.5 -0.3,0.1 -0.7,0.4 -1,0.4 -0.6,-0.1 -1.2,-1 -1.8,-1.1 -0.2,-0.1 -0.5,-0.2 -0.7,-0.2 -0.8,0.1 -1.2,0.7 -1.7,1.3 -1.3,1.7 0.2,-0.2 -1.2,1.5 -0.2,0.2 -0.7,0.8 -1,0.9 -0.7,0.3 -1.3,-1.2 -1.5,-1.5 -0.2,-0.6 -0.8,-2.5 -1.7,-2.4 -0.3,0 -0.6,0.4 -0.9,0.6 -1.6,1.4 -3.5,2.8 -5.4,3.8 -1.5,0.6 -3.7,1.8 -5.1,0.5 -0.3,-0.3 -0.4,-0.6 -0.6,-0.8 -0.2,-0.4 -0.9,-1.5 -1.1,-1.9 -0.3,-0.5 -0.8,-1.3 -1.5,-1.3 -0.2,0 -0.3,0.1 -0.4,0.1 -0.9,0.8 -1.5,1.8 -2.4,2.5 -0.5,0.4 -1.5,1.4 -2.2,1.1 -0.1,-0.1 -0.2,-0.2 -0.3,-0.3 -0.9,-1.4 -1.3,-3.1 -2.4,-4.3 -0.5,-0.6 -1.1,-1.2 -1.9,-1.1 -0.8,0.2 -1.9,1.5 -2.4,2 -0.7,0.7 -2.2,2.6 -3.3,2.6 -0.5,0 -0.7,-0.3 -1,-0.6 -0.5,-0.9 -0.9,-1.7 -1.4,-2.5 -0.3,-0.3 -0.7,-0.9 -1.1,-1.2 -0.1,-0.1 -0.3,-0.1 -0.5,-0.1 -0.1,0 -0.3,0 -0.4,0.1 -0.3,0.2 -0.4,0.6 -0.6,0.9 -0.3,0.8 -0.5,1.5 -0.9,2.2 -0.5,0.9 -0.9,1.7 -1.5,2.5 -0.1,0.1 -0.4,0.6 -0.6,0.5 -0.1,0 -0.2,-0.1 -0.2,-0.2 -0.6,-1 -1.1,-2.3 -2,-3 -0.2,-0.2 -0.4,-0.3 -0.6,-0.4 -0.1,0 -0.3,-0.1 -0.5,-0.1 -0.7,0.1 -1.2,1.1 -1.9,0.8 -0.5,-0.6 -0.5,-1 -0.7,-1.7 -0.1,-0.4 -0.2,-1.5 -0.2,-1.1 0.1,0.8 1.7,9.8 -0.4,-2.4 -0.1,-0.5 -0.3,-1.9 -0.7,-2.4 -0.2,-0.2 -0.5,-0.4 -0.8,-0.2 -0.1,0.1 -0.1,0.3 -0.1,0.4 -0.3,2.2 -0.6,4.3 -0.7,6.5 -0.1,1.5 -0.2,3 -0.3,4.5 0,0.4 0,0.9 0,1.3 -0.1,0.2 -0.1,0.5 -0.1,0.8 0,0.1 0.2,0.1 0.2,0.2 -0.7,-1.1 -1,-2.6 -1.7,-3.7 -0.5,-1 -1.4,-3 -2.7,-3.1 -0.3,0 -0.5,0 -0.7,0.1 -0.2,0.1 -0.4,0.2 -0.6,0.3 -0.2,0.2 -0.4,0.5 -0.6,0.7 -0.5,0.6 -1.1,1.4 -1.9,1.8 -0.1,0.1 -0.2,0.1 -0.4,0.2 -0.1,-0.1 -0.2,-0.2 -0.3,-0.2 -0.2,-0.2 -0.8,-0.9 -0.9,-1.1 -0.6,-0.8 -1.2,-1.6 -1.9,-2.3 -1,-1 -3.1,-3.3 -4.8,-2.3 -0.3,0.1 -0.5,0.4 -0.7,0.7 -1.6,1.7 -3.1,3.5 -4.8,5.1 -0.3,0.2 -1,0.9 -1.4,0.8 -0.5,-0.1 -0.8,-0.6 -1.1,-0.8 -1.4,-1.1 -2.7,-2.3 -4.5,-2.4 -1.7,0 -3.4,0.3 -5.1,0.3 -1.4,-0.4 -2.5,-1.1 -3.7,-1.8 -1.1,-0.4 -2.4,-1.1 -3.4,-0.3 -0.2,0.1 -0.4,0.3 -0.6,0.5 -0.9,1.2 -1.7,2.5 -2,4 0,0 1.2,3.7 1.2,3.7 z m -9.5,-23.8 c 0.9,-2 2.5,-3.6 4,-5.2 0.5,-0.3 0.9,-0.7 1.5,-0.7 0.7,0.1 1.3,0.9 1.8,1.3 0.2,0.2 0.5,0.3 0.7,0.5 1.8,0.5 3.7,0 5.5,-0.1 1.4,0 2.5,1 3.9,1.2 0.4,0.1 0.9,0 1.4,0 0.6,-0.1 1.3,-0.1 1.9,-0.2 0.9,-0.2 4.1,-1 4.9,-1.1 2.2,-0.5 4.4,-1 6.7,-1.4 1.2,-0.2 2.4,-0.2 3.6,0.3 0.7,0.3 1.3,0.7 2,1 1.5,0.4 2.8,-0.3 4.2,-0.6 0.2,-0.1 0.5,-0.1 0.8,-0.1 1.5,0 2.6,0.9 3.6,1.8 0.3,0.2 0.7,0.5 1,0.6 1.2,0.3 2.8,-0.4 3.9,-0.8 1.9,-0.5 3.8,-1.2 5.8,-0.9 1.2,0.2 1.7,0.5 2.8,0.9 0.4,0.3 0.8,0.5 1.2,0.7 0.8,0.6 1.1,0.8 1.8,1.5 0.6,0.5 0.8,0.7 1.5,1.1 0.2,0.1 0.4,0.2 0.6,0.2 0.2,0 0.4,0.1 0.6,0 0.9,-0.2 1.5,-1.1 2,-1.7 0.6,-0.7 1.1,-1.4 1.7,-2.1 0.8,-0.9 1.5,-1.9 2.4,-2.9 0.3,-0.4 0.6,-0.8 1.2,-1 0.1,0 0.3,0 0.4,0 0.2,0.1 0.3,0.2 0.5,0.3 0.3,0.3 0.6,0.8 0.9,1.2 0.5,0.7 0.9,1.4 1.3,2.2 0.3,0.4 0.5,1.3 1,1.5 0.6,0.2 1.1,-0.2 1.5,-0.5 0.4,-0.3 0.9,-1.1 1.4,-0.8 0.3,0.1 0.5,0.4 0.7,0.5 0.5,0.6 0.8,1.3 1.1,1.9 0.3,0.4 0.4,0.8 0.9,0.9 0.2,0.1 0.4,0 0.6,0 0.2,-0.2 0.4,-0.2 0.5,-0.4 0.4,-0.3 0.9,-1 1.2,-1.4 0.6,-0.8 1.1,-1.7 1.7,-2.5 0.2,-0.1 0.4,-0.2 0.6,-0.2 0.4,0 0.8,0.5 1,0.7 0.7,0.8 1.1,1.8 1.5,2.7 0.3,0.8 0.6,1.6 0.9,2.4 0.1,0.3 0.2,0.9 0.4,1.1 0.2,0.2 0.3,0.2 0.5,0.3 0.2,-0.1 0.4,-0.1 0.6,-0.2 0.6,-0.3 1.2,-1.1 1.6,-1.5 1,-1.1 2,-2.3 3,-3.4 0.5,-0.6 1.6,-2.3 2.6,-2 0.3,0.1 0.6,0.4 0.8,0.7 0.4,0.6 0.7,1.3 1,2 0.1,0.3 0.3,0.8 0.6,1 0.2,0.1 0.4,0.1 0.5,0.1 0.3,0.1 0.7,-0.1 1,-0.1 0.7,0.1 1.4,0.7 2,1.1 0.2,0 0.4,0.1 0.6,0.1 1.6,0 3.5,-2.3 4.5,-3.3 0.5,-0.5 1.4,-1.7 2.2,-1.4 0.3,0.1 0.7,0.4 0.8,0.6 1,1.1 1.6,1.1 3,0.8 0.7,-0.1 1.4,-0.4 2,-0.6 0,0 -0.8,-3.9 -0.8,-3.9 v 0 c -0.6,0.3 -1.2,0.5 -1.9,0.7 -1.4,0.3 -1.6,0.1 -2.6,-0.9 -0.4,-0.2 -0.6,-0.5 -1.1,-0.6 -1,-0.2 -1.8,1 -2.5,1.6 -0.5,0.5 -1.2,1.3 -1.7,1.8 -0.6,0.6 -1.4,1.4 -2.4,1.4 -0.1,0 -0.3,-0.1 -0.5,-0.2 -0.7,-0.4 -1.4,-1 -2.3,-1 -0.3,0 -0.5,0.1 -0.8,0 0,0 -0.2,0 -0.2,-0.1 -0.2,-0.2 -0.5,-0.7 -0.6,-1 -0.3,-0.7 -0.6,-1.4 -1.1,-2 -0.4,-0.3 -0.6,-0.6 -1.2,-0.7 -1.3,-0.1 -2,1.5 -2.8,2.3 -0.9,1.1 -1.9,2.3 -3,3.4 -0.3,0.3 -0.9,0.9 -1.4,1.2 -0.1,0.1 -0.2,0.1 -0.3,0.2 -0.5,-0.4 -0.5,-0.8 -0.7,-1.4 -0.2,-0.7 -0.5,-1.5 -0.9,-2.3 -0.5,-1 -1.6,-3.6 -3.1,-3.4 -0.3,0 -0.5,0.2 -0.7,0.3 -0.6,0.8 -1.2,1.7 -1.8,2.5 -0.2,0.3 -0.7,1 -1,1.3 -0.1,0.1 -0.3,0.2 -0.4,0.3 -0.1,0 -0.2,0.1 -0.3,0 -0.3,-0.1 -0.5,-0.6 -0.7,-0.8 -0.4,-0.7 -0.7,-1.4 -1.3,-2 -0.1,-0.1 -0.2,-0.2 -0.4,-0.3 -0.9,-0.6 -1.5,0.1 -2.1,0.7 -0.2,0.1 -0.5,0.4 -0.8,0.4 -0.4,0.1 -0.9,-1.2 -1.1,-1.4 -0.6,-1 -1.5,-2.9 -2.5,-3.5 -0.2,-0.1 -0.4,-0.1 -0.6,-0.2 -0.2,0 -0.4,0 -0.6,0 -0.7,0.2 -0.9,0.6 -1.3,1.2 -0.9,0.9 -1.6,1.9 -2.4,2.9 -0.6,0.7 -1.1,1.3 -1.7,2 -0.4,0.5 -1,1.4 -1.7,1.6 -0.2,0 -0.3,0 -0.5,0 -0.8,-0.4 -1.2,-0.7 -1.9,-1.3 -0.8,-0.6 -1.1,-0.8 -1.9,-1.4 -0.4,-0.2 -0.9,-0.4 -1.3,-0.6 -1.2,-0.5 -1.6,-0.8 -2.9,-1 -2,-0.2 -4,0.4 -5.9,1 -1,0.2 -2.6,0.9 -3.6,0.5 -0.3,-0.1 -0.6,-0.3 -0.9,-0.5 -1.2,-1 -2.4,-1.8 -4,-1.8 -0.3,0 -0.5,0.1 -0.8,0.1 -1.3,0.3 -2.6,1 -3.9,0.6 -0.7,-0.3 -1.4,-0.8 -2.1,-1 -1.3,-0.4 -2.4,-0.3 -3.8,0 -2.2,0.4 -4.4,0.9 -6.6,1.4 -1.5,0.4 -3.3,0.8 -4.9,1 -0.6,0.1 -1.3,0.1 -1.9,0.1 -0.4,0 -0.9,0 -1.3,-0.1 -1.4,-0.2 -2.6,-1.3 -4,-1.2 -1.8,0.1 -3.6,0.7 -5.3,0 -0.2,-0.1 -0.4,-0.2 -0.6,-0.4 -0.7,-0.5 -1.3,-1.3 -2.2,-1.3 -0.7,0 -1.1,0.5 -1.6,0.9 -1.6,1.5 -3.1,3.1 -4.3,5 0,0 1.1,3.8 1.1,3.8 z m -4.8,-24.3 c 1.4,-1.9 2.9,-3.8 4.5,-5.5 0.5,-0.5 0.8,-0.9 1.5,-0.9 0.7,0 1.3,0.4 1.8,0.8 1,0.7 1.4,1.1 2.3,1.9 0.5,0.6 1.5,1.6 2.1,2.1 0.3,0.3 0.6,0.6 1,0.7 1.5,0.4 3.3,-0.5 4.6,-1.1 1.2,-0.4 3.4,-2 4.7,-1.6 0.6,0.1 1,0.6 1.4,1 0.4,0.3 1,1.3 1.5,1.5 0.8,0.2 1.6,-0.8 2,-1.3 0.9,-0.9 1.7,-1.9 2.5,-2.8 0.2,-0.3 0.4,-0.5 0.6,-0.8 0.2,-0.1 0.3,-0.4 0.5,-0.5 0.2,-0.1 0.4,0 0.5,-0.1 0.2,0.2 0.5,0.3 0.7,0.5 0.7,0.5 1.5,1.3 2,1.9 1.2,1.3 2.3,2.7 3.4,4.1 0.9,1 1.7,2.3 2.8,3.3 0.3,0.3 0.9,0.8 1.4,0.8 0.3,0 0.6,-0.2 0.9,-0.3 0.4,-0.3 0.8,-0.6 1.2,-1 0.6,-0.5 1.1,-1.1 1.7,-1.7 1.6,-1.7 2.6,-2.7 4.3,-4.4 0.6,-0.7 1.2,-1.3 1.9,-1.9 0.5,-0.5 1.1,-0.9 1.6,-1.4 1.3,-0.8 2.8,-1.7 4.3,-1.2 0.6,0.1 0.7,0.4 1.2,0.7 0.7,0.8 1.3,1.8 1.9,2.7 0.1,0.2 0.2,0.4 0.4,0.5 0.1,0.2 0.3,0.3 0.5,0.4 0.2,0.1 0.4,0.1 0.6,0.1 0.5,0 1.2,-0.3 1.6,-0.4 0.9,-0.4 1.9,-0.7 2.8,-1 0.3,0 0.6,-0.1 0.9,0 1.5,0.1 2.6,1.8 3.4,3 0.4,0.7 0.7,2.2 1.8,2.2 0.5,0 0.9,-0.3 1.3,-0.6 1.6,-1.2 3.2,-2.4 4.9,-3.5 0.8,-0.4 1.4,-0.9 2.3,-0.8 0.9,0 1.6,0.4 2.4,0.9 1.4,0.9 2.5,2.3 3.7,3.5 0.2,0.1 0.3,0.2 0.5,0.3 1.1,0.5 2.8,-1.2 3.6,-1.8 0.6,-0.4 1.2,-0.9 1.8,-1.4 3.5,-2.7 6.9,-5.5 10.5,-8.1 0.7,-0.4 1.9,-1.3 2.8,-1 1.1,0.4 1.8,2.3 2.2,3.2 0.7,1.6 1.2,3.3 1.7,5 0.2,0.6 0.4,1.6 0.8,2 0.2,0.2 0.4,0.3 0.6,0.4 0.3,-0.1 0.6,-0.1 0.9,-0.3 1,-0.4 1.9,-1.4 2.7,-2 0.8,-0.5 1,-0.6 1.9,-1 0.2,-0.1 0.5,-0.2 0.8,-0.3 0,0 -0.7,-3.7 -0.7,-3.7 v 0 c -0.3,0.1 -0.6,0.2 -0.9,0.3 -0.8,0.4 -1.1,0.5 -1.9,1 -1,0.8 -1.9,1.8 -3.2,2.1 -0.1,-0.1 -0.2,-0.2 -0.3,-0.3 -0.4,-0.5 -0.6,-1.3 -0.8,-1.9 -0.6,-1.6 -1.1,-3.3 -1.8,-5 -0.4,-0.9 -0.9,-2 -1.7,-2.7 -1.2,-1.2 -2.8,-0.2 -3.9,0.7 -3.5,2.7 -6.9,5.5 -10.5,8.1 -0.7,0.5 -2.3,1.7 -3.1,2.2 -0.3,0.2 -1,0.7 -1.5,0.7 -0.3,0 -0.6,-0.2 -0.8,-0.4 -1.2,-1.2 -2.3,-2.5 -3.8,-3.4 -0.7,-0.4 -1.1,-0.7 -1.8,-0.8 -1.4,-0.4 -2.1,0.2 -3.3,0.8 -1.7,1.1 -3.3,2.3 -4.9,3.5 -0.1,0.1 -0.7,0.4 -1,0.4 -0.7,0 -1.2,-1.6 -1.5,-2.1 -0.9,-1.3 -2.1,-2.9 -3.9,-3 -0.3,0 -0.6,0 -0.9,0.1 -0.9,0.2 -1.9,0.6 -2.8,0.9 -0.3,0.1 -1.1,0.4 -1.4,0.4 -0.2,0 -0.3,-0.1 -0.5,-0.1 -1.1,-1.1 -1.6,-2.6 -2.8,-3.6 -0.2,-0.2 -0.4,-0.3 -0.6,-0.5 -1.8,-0.9 -3.8,0.2 -5.3,1.3 -0.5,0.5 -1.1,1 -1.6,1.5 -0.7,0.6 -1.3,1.3 -1.9,2 -2,2 -2.3,2.3 -4.3,4.2 -0.6,0.6 -1.1,1.1 -1.7,1.6 -0.4,0.3 -0.7,0.6 -1.1,0.8 -0.2,0.1 -0.4,0.2 -0.6,0.2 -0.5,0 -1.1,-0.5 -1.3,-0.7 -1.1,-0.9 -1.8,-2.1 -2.8,-3.2 -1.1,-1.4 -2.1,-2.7 -3.3,-4 -0.5,-0.6 -1.5,-1.7 -2.2,-2.1 -0.3,-0.2 -0.6,-0.3 -0.9,-0.5 -0.3,0.1 -0.6,0 -0.8,0.2 -0.2,0.1 -0.3,0.3 -0.5,0.5 -1,1.3 -1.9,2.5 -3,3.6 -0.3,0.3 -0.9,0.9 -1.3,1.1 -0.5,0.2 -1.4,-1.2 -1.7,-1.4 -0.6,-0.5 -0.9,-0.9 -1.7,-1 -1.5,-0.3 -3.4,1.3 -4.8,1.8 -1.2,0.5 -2.9,1.4 -4.2,0.9 -0.4,-0.1 -0.7,-0.4 -1,-0.6 -0.6,-0.5 -1.6,-1.5 -2.1,-2 -1.1,-1 -2.9,-3 -4.5,-2.8 -0.9,0 -1.1,0.4 -1.7,1 -1.6,1.7 -3,3.5 -4.6,5.2 0,0 1,3.9 1,3.9 z m -2,-25.7 c 1.6,-1.4 3.3,-2.7 5.1,-3.8 0.6,-0.4 1.3,-0.7 1.9,-1.1 0.5,-0.2 1.1,-0.4 1.6,-0.7 1.2,-0.3 2.3,-0.4 3.4,0.3 0.7,0.4 1.2,1.2 1.7,1.9 0.8,1.2 1.5,1.3 2.9,1.2 0.6,-0.2 1.3,-0.2 1.9,-0.4 0.5,-0.2 1.2,-0.5 1.7,-0.7 1,-0.4 1.9,-0.8 2.8,-1.3 0.1,0 1.2,-0.6 1.3,-0.7 0.2,0 0.3,0 0.5,0 0.9,0.6 1.2,1.7 1.6,2.7 0.3,1 0.4,1.6 0.7,2.6 0.2,0.7 0.4,2.1 1.5,2.1 1,0.1 2.3,-1.3 3,-1.9 1.4,-1.2 2.4,-2.8 4.1,-3.5 0.6,-0.3 0.8,-0.2 1.4,-0.3 0.5,0.1 0.9,0.1 1.3,0 0.7,-0.2 1.4,-0.6 2,-1 0.4,-0.2 0.9,-0.5 1.3,-0.8 0.4,-0.2 0.9,-0.5 1.3,-0.7 0.3,-0.2 1.9,-1.2 2.3,-1.3 0.2,-0.2 1.1,-0.6 1.5,-0.6 0.5,0.2 0.8,1 1,1.3 0.5,1.5 0.8,3.1 1.2,4.7 0,0.2 0.3,1.9 0.6,2.2 0.1,0.2 0.4,0.2 0.6,0.4 0.3,-0.2 0.7,-0.2 0.9,-0.4 0.5,-0.3 0.8,-0.6 1.2,-0.9 0.5,-0.5 2.1,-1.9 2.6,-2.4 0.4,-0.3 0.7,-0.7 1.1,-1 0.4,-0.2 0.7,-0.3 1.1,-0.5 0.3,0 0.7,0 1,0.1 1.1,0.5 1.7,1.6 2.4,2.5 0.3,0.2 0.5,0.5 0.7,0.6 0.3,0.2 0.6,0.2 0.8,0.3 2,-0.1 3.1,-1.9 4.8,-2.7 0.2,-0.1 0.5,-0.2 0.7,-0.2 1,-0.2 1.9,-0.4 2.8,-0.5 0.2,-0.1 0.4,-0.1 0.6,-0.2 0.3,0 0.5,0.1 0.7,0.1 0.7,0.1 1.3,0.3 2,0.4 0.7,0 1.4,0 2.1,0 0.9,0.1 1.6,0.6 2.3,1.1 0.5,0.3 0.8,0.6 1.5,0.7 0.3,0.1 0.6,0 0.9,0 1.4,-0.3 1,-0.2 2.4,-0.6 0.9,-0.3 1.4,-0.6 2.3,-0.3 1,0.3 1.7,1.2 2.4,1.9 1.3,1.6 1.1,1.2 2.2,2.9 0.7,1 1.3,2.3 2.6,2.6 0.4,0.1 0.7,0 1,0 0.4,-0.2 0.8,-0.4 1.2,-0.6 1.8,-1.2 3.3,-3 4.6,-4.7 0.9,-1.1 1.4,-2.5 2.4,-3.5 0.2,-0.1 0.3,-0.3 0.5,-0.4 0.2,-0.2 0.3,-0.3 0.5,-0.4 1.2,-0.6 2.8,0.8 3.6,1.5 0.7,0.7 1.3,1.6 2,2.4 0.1,0.2 0.2,0.3 0.4,0.5 0.1,0.1 0.3,0.1 0.5,0.2 0.2,-0.1 0.5,0 0.7,-0.2 0.7,-0.3 1.4,-1.2 1.9,-1.7 1.1,-1.2 2,-2.4 3,-3.6 0.7,-0.5 1.3,-1.1 2.3,-1 0.7,0.1 1.4,0.8 2,1.2 0.9,0.6 0.4,0.3 1.4,0.9 0,0 -0.4,-3.8 -0.4,-3.8 v 0 c -0.9,-0.6 -0.5,-0.3 -1.4,-0.9 -0.7,-0.5 -1.4,-1.1 -2.3,-1.2 -1,-0.1 -1.7,0.6 -2.5,1.2 -1,1.2 -1.9,2.4 -3,3.6 -0.3,0.4 -1.1,1.2 -1.7,1.5 -0.1,0.1 -0.3,0.1 -0.4,0.1 -0.2,-0.1 -0.3,-0.1 -0.4,-0.2 -0.2,-0.1 -0.3,-0.3 -0.4,-0.4 -0.7,-0.8 -1.3,-1.7 -2.1,-2.4 -1,-0.8 -2.6,-2.1 -4,-1.5 -0.2,0.1 -0.4,0.3 -0.6,0.4 -0.5,0.4 -0.6,0.5 -1,1 -0.8,1 -1.2,2.1 -1.9,3 -1.3,1.8 -2.7,3.6 -4.5,4.7 -0.3,0.2 -0.7,0.3 -1,0.5 -0.3,0 -0.5,0.1 -0.8,0 -1.2,-0.3 -1.8,-1.6 -2.4,-2.4 -1.1,-1.7 -0.9,-1.3 -2.3,-2.9 -0.8,-0.9 -1.5,-1.7 -2.7,-2 -1,-0.3 -1.4,0 -2.4,0.3 -1.2,0.4 -1,0.3 -2.3,0.6 -0.2,-0.1 -0.5,0 -0.8,-0.1 -0.5,-0.1 -0.9,-0.4 -1.4,-0.7 -0.8,-0.5 -1.6,-1 -2.5,-1.1 -0.7,-0.1 -1.4,0 -2.1,-0.1 -0.5,0 -0.8,-0.1 -1.3,-0.2 -0.2,-0.1 -0.4,-0.1 -0.7,-0.1 -0.2,-0.1 -0.5,-0.1 -0.7,-0.1 -0.3,0 -0.5,0.1 -0.7,0.2 -0.9,0.1 -1.9,0.3 -2.8,0.5 -0.9,0.3 -0.8,0.2 -1.6,0.8 -1.2,0.8 -2.2,1.9 -3.6,2.1 -0.2,-0.1 -0.5,-0.1 -0.7,-0.3 -0.2,-0.1 -0.4,-0.4 -0.6,-0.6 -0.8,-0.9 -1.6,-2.1 -2.8,-2.4 -0.4,-0.1 -0.8,-0.1 -1.2,-0.1 -0.3,0.2 -0.8,0.4 -1.1,0.6 -0.4,0.3 -0.8,0.7 -1.2,1.1 -1.3,1.2 -2.6,2.5 -4.2,3.3 -0.1,-0.1 -0.3,-0.2 -0.3,-0.3 -0.3,-0.4 -0.6,-1.9 -0.6,-2.1 -0.4,-1.6 -0.7,-3.2 -1.3,-4.7 -0.5,-0.7 -0.6,-1.3 -1.5,-1.4 -0.2,0 -0.5,0.1 -0.7,0.2 -1.2,0.5 -2.1,1.3 -3.2,1.9 -0.8,0.4 -1.7,1 -2.6,1.4 -0.5,0.3 -1.2,0.7 -1.8,0.9 -0.4,0.1 -0.9,0 -1.3,0 -0.3,0.1 -0.5,0.1 -0.8,0.1 -2.1,0.5 -3.4,2.5 -4.9,3.9 -0.5,0.3 -1.9,1.8 -2.7,1.7 -0.7,-0.1 -0.9,-1.6 -1.1,-2.1 -0.2,-0.9 -0.5,-1.6 -0.8,-2.6 -0.3,-0.8 -0.7,-2 -1.5,-2.5 -0.2,-0.1 -0.4,-0.2 -0.6,-0.3 -0.2,0.1 -0.4,0.1 -0.6,0.1 -0.1,0.1 -1.2,0.7 -1.3,0.8 -0.9,0.5 -1.8,0.9 -2.7,1.3 -1.2,0.4 -2.4,0.8 -3.6,0.9 -1.3,0.2 -1.7,-0.1 -2.4,-1.2 -0.6,-0.7 -1.2,-1.4 -2,-1.8 -1.2,-0.6 -2.4,-0.5 -3.6,-0.1 -0.6,0.3 -1.1,0.5 -1.7,0.8 -0.6,0.4 -1.2,0.8 -1.8,1.1 -1.8,1.1 -3.5,2.3 -5.3,3.5 0,0 0.9,3.8 0.9,3.8 z m 0,-25.9 c 1.3,-1.5 2.6,-3 4,-4.6 1,-1.1 2.1,-2.3 3.1,-3.5 0.7,-0.9 1.5,-1.8 2.3,-2.6 0.1,-0.1 1.1,-1.1 1.2,-0.8 0,0.1 0,0.2 0,0.3 0,0.2 0.1,0.4 0.1,0.6 -0.2,-0.9 -0.1,-1.8 -0.5,-2.5 -0.4,-0.5 0,1.2 0.1,1.8 0,0.8 0,1.5 0.1,2.3 0.1,2.1 0.1,4.1 0.1,6.2 0.2,2.3 0.2,3.2 1,6 0.1,0.2 0.4,0.3 0.6,0.3 1.2,0 2.9,-2.1 3.6,-2.8 1.5,-1.5 2.8,-3.1 4.2,-4.7 0.7,-0.8 1.1,-1.4 2.1,-1.9 0.2,-0.1 0.4,-0.2 0.6,-0.3 1.1,-0.1 1.1,1.4 1.9,1.5 0.2,0.1 0.5,0 0.7,0 1.2,-0.4 2.2,-1.1 3.2,-1.7 0.8,-0.5 1.2,-1 2.3,-0.8 0.3,0.1 0.6,0.3 0.9,0.4 0.3,0.3 0.6,0.5 0.9,0.8 0.3,0.3 0.5,0.7 0.8,1 0.5,0.8 0.9,2 1.9,2.4 0.2,0.1 0.5,0.1 0.8,0.2 0.3,0 0.6,0 0.9,-0.1 1.3,-0.2 2.5,-0.7 3.8,-1.1 1.7,-0.6 1.8,-0.6 3.7,-1 1.7,-0.4 3.3,-0.4 5,0.1 1.1,0.4 2.2,1.1 3.2,1.7 0.3,0 0.6,0.2 1,0.2 1.3,0 2.6,-0.9 3.6,-1.7 0.8,-0.7 2.2,-1.9 3,-2.7 1.2,-1 2.3,-2.1 3.4,-3.2 0.5,-0.5 1,-1.1 1.6,-1.5 0.1,0.1 0.2,0 0.3,0.1 0.1,0.2 0.1,0.4 0.1,0.6 0.1,0.5 0.4,1.7 0.2,1.4 -0.3,-0.5 -0.3,-2.2 -0.4,-1.6 -0.1,0.7 0.2,1.5 0.3,2.2 0.1,0.8 0.1,1.5 0.2,2.2 0.3,3.1 0.6,6.2 1.3,9.3 0.1,0.2 0.3,0.4 0.4,0.4 0.3,0 0.6,-0.2 0.9,-0.2 0.3,-0.3 0.7,-0.6 1,-0.9 0.5,-0.4 1,-0.9 1.5,-1.3 1,-1.1 2.2,-2.2 3.3,-3.2 0.4,-0.4 0.9,-0.9 1.4,-1.3 0.4,-0.3 0.8,-0.5 1.2,-0.8 1.2,-0.5 1.2,-0.1 2.3,0.3 0.2,0 0.4,0.1 0.7,0.1 0.7,0.1 1.2,-0.4 1.9,-0.7 1.6,-1.1 0.8,-0.6 2.3,-1.7 0.8,-0.5 1.1,-0.9 2,-0.9 0.7,0 1.2,0.3 1.8,0.6 0.4,0.3 0.9,0.7 1.5,0.8 0.8,0.1 1.7,-0.1 2.4,-0.3 1,-0.3 1.9,-0.7 2.9,-1 1.1,-0.4 2.1,-1 3.4,-1 1.2,0.1 2.4,0.7 3.6,1.2 1,0.4 2,1 3,1.5 0.3,0.2 0.6,0.3 0.9,0.4 0.9,0.2 1.3,0.1 2.2,0.1 0.4,-0.1 0.8,-0.1 1.2,-0.3 2.5,-0.9 4.6,-3.1 6.5,-4.9 0.5,-0.5 1.1,-1.1 1.7,-1.6 0.2,-0.1 0.4,-0.2 0.7,-0.4 0,0 -0.8,-3.7 -0.8,-3.7 v 0 c -0.3,0.1 -0.5,0.3 -0.8,0.4 -0.5,0.5 -1.2,1.2 -1.7,1.7 -1.8,1.8 -3.8,4 -6.2,4.8 -0.4,0.2 -0.8,0.2 -1.2,0.3 -0.9,0 -1.1,0.1 -2,-0.2 -1.4,-0.4 -2.7,-1.4 -4,-1.8 -1.2,-0.5 -2.5,-1.1 -3.8,-1.2 -1.2,-0.1 -2.3,0.6 -3.4,1 -1.3,0.5 -3.7,1.5 -5,1.2 -0.5,-0.1 -1.2,-0.6 -1.6,-0.8 -0.7,-0.3 -1.2,-0.6 -2,-0.6 -1,0.1 -1.3,0.5 -2.1,1.1 -1.3,1 -0.9,0.7 -2.3,1.6 -0.5,0.2 -1,0.6 -1.6,0.6 -0.3,0 -0.5,-0.1 -0.7,-0.2 -1.1,-0.4 -1.4,-0.6 -2.6,0 -0.4,0.3 -0.9,0.6 -1.2,0.9 -0.5,0.4 -1,0.9 -1.5,1.3 -1.8,1.8 -3.6,3.6 -5.6,5 -0.2,0.1 -0.3,0.2 -0.4,0.2 -0.2,-0.1 -0.2,-0.2 -0.2,-0.4 0.1,1 0.3,2 0.4,2.9 0.1,0.4 -0.1,-0.8 -0.2,-1.3 -0.1,-1.2 -0.2,-2.4 -0.3,-3.6 -0.2,-1.5 -0.3,-2.9 -0.5,-4.4 -0.3,-1.9 -0.6,-3.7 -0.9,-5.6 -0.1,-0.6 -0.1,-1.6 -0.8,-2.1 -0.1,-0.1 -0.3,0 -0.5,0 -0.7,0.5 -1.1,1 -1.7,1.7 -1.1,1.1 -2.2,2.2 -3.3,3.3 -1.1,1 -1.8,1.7 -3,2.6 -0.9,0.7 -2.1,1.6 -3.4,1.5 -0.2,0 -0.5,-0.1 -0.8,-0.2 -1.1,-0.5 -2.1,-1.2 -3.3,-1.5 -1.7,-0.5 -3.5,-0.4 -5.2,-0.1 -1.6,0.4 -2.1,0.5 -3.7,1 -1.2,0.3 -2.4,0.8 -3.7,0.9 -0.3,0.1 -0.5,0.1 -0.8,0.1 -0.2,-0.1 -0.5,-0.1 -0.7,-0.2 -0.8,-0.5 -1.3,-1.6 -1.8,-2.3 -0.3,-0.4 -0.5,-0.7 -0.8,-1 -0.3,-0.3 -0.7,-0.5 -1,-0.8 -0.4,-0.2 -0.8,-0.4 -1.2,-0.4 -1.1,-0.2 -1.4,0.3 -2.4,0.8 -0.9,0.6 -1.9,1.2 -3,1.6 -0.2,0 -0.3,0 -0.5,-0.1 -0.2,0 -0.4,-0.5 -0.6,-0.6 -0.4,-0.6 -0.9,-0.8 -1.6,-0.7 -0.3,0.1 -0.6,0.2 -0.8,0.3 -0.9,0.6 -1.3,1.3 -2.1,2.1 -1.3,1.6 -2.7,3.2 -4.2,4.7 -0.9,0.9 -1.4,1.5 -2.5,2.2 -0.2,0.1 -0.4,0.2 -0.6,0.2 -0.1,0 -0.3,-0.4 -0.3,-0.2 0,0.9 0.2,1.8 0.4,2.7 0.1,0.5 -0.1,-1 -0.1,-1.5 -0.1,-2 -0.1,-4.1 -0.2,-6.2 0,-0.8 -0.1,-1.5 -0.1,-2.2 0,-0.6 0,-1.2 0,-1.8 -0.2,-1.6 -0.5,-3.3 -0.8,-4.9 -0.1,-0.2 -0.1,-0.4 -0.2,-0.6 -0.6,-0.9 -1.5,0.2 -1.9,0.6 -0.8,0.8 -1.6,1.7 -2.4,2.6 -1,1.2 -2,2.5 -3,3.7 -1.3,1.5 -2.6,3 -4,4.4 0,0 0.9,3.8 0.9,3.8 z"/>
  <path d="m 229.7,349.3 c 0,0 44.6,11.5 60.4,11.5 15.7,0 30.1,2.2 35.1,1.2 5.2,-0.9 60.7,-14.2 60.7,-14.2 21.8,12.5 10,27.1 5.1,41.2 l -168.9,4.7 c -9.2,-14.8 -16.7,-29.6 7.6,-44.4 z"/>
  <path d="m 225.1,175.2 c 1.7,0 53.7,6.8 56.1,6.8 2.4,0 34.8,0 42,0 7.2,0 47.5,-6.2 47.5,-6.2 10.7,20.9 16,27.1 -1,43.5 0,0 -85.1,-4 -87.8,-4 -2.8,0 -65.7,2.6 -65.7,2.6 l -13.8,-16.2 c 1.8,-17.3 11.8,-22.5 22.7,-26.5 z"/>
  <path style="fill:none;"  d="m 233.4,360.1 c -7.2,6.6 -14.1,12.3 -4.8,19.8 m -4.2,8.2 c -2.4,-10.3 -12,-18.8 8.1,-32.2 m 62.9,35.8 -24.7,-5.4 m 83.8,-24 -10.5,2.3 -4.9,0.1 m -13.9,-2.7 24.5,4.7 m -58.9,-151 -24.1,-5.6 -7.4,0.2 m 44,-23 c 0.4,-0.1 9.4,-1.4 9.4,-1.4 m -31.5,-3.9 17.3,4.4 19.7,3.6 m -95,19.5 c -18,-4.8 -15.5,-19.4 0.5,-23.6 l 8.1,6.2 m -6.7,-16.9 c 9.1,12.3 8.4,22.2 1,30.8 l -9.9,11.9 m 13.5,131.4 c 10.2,18.2 -2.6,30.3 -7.6,44.4"/>
</g>
<use id="shine" xlink:href="#shield" fill="url(#rg)" stroke="#000" stroke-width="3"/>
</svg>
