<?xml version="1.0" encoding="UTF-8"?>
<svg xmlns="http://www.w3.org/2000/svg" xmlns:xlink="http://www.w3.org/1999/xlink" width="600" height="660">
<defs>
  <radialGradient id="rg" gradientUnits="userSpaceOnUse" cx="220" cy="220" r="405">
    <stop style="stop-color:#ffffff;stop-opacity:.3" offset="0" />
    <stop style="stop-color:#ffffff;stop-opacity:.2" offset=".2" />
    <stop style="stop-color:#666666;stop-opacity:.1" offset=".6" />
    <stop style="stop-color:#000000;stop-opacity:.13" offset="1" />
  </radialGradient>
  <clipPath id="shield-clip">
    <path id="shield" d="m2,2v257c0,286 298,398 298,398c0,0 298-112 298-398V2z" />
  </clipPath>
  <g id="towers" style="stroke:#000044;stroke-width:2;stroke-linecap:round;stroke-linejoin:round;">
    <g id="tower">
      <path style="fill:#000088;" d="m 95.84,116.6 7.36,6.4 v 38 l -17.92,-10 z m 33.96,-8.3 4.8,7.2 v 37.9 l -15.2,-11 z m 86.4,8.3 -7.4,6.4 v 38 l 17.9,-10 z m -34,-8.3 -4.8,7.2 v 37.9 l 15.2,-11 z"/>
      <path style="fill:#1111dd;" d="m 147.5,106.2 v 20.8 l -17.7,1.8 v -20.5 c -5.5,0.8 -10.8,2.1 -17.6,3.5 v 21.6 l -16.36,4.4 v -21.2 c -5.44,2.1 -11.68,4.4 -17.12,6.6 v 45.1 l 11.36,9 c 7.04,68.5 -3.36,135.3 -18.4,195 l -18.72,18.7 v 42.1 c 32.64,12.3 60.64,19.2 87.54,21.3 h 15.5 15.5 c 26.9,-2.1 54.9,-9 87.5,-21.3 v -42.1 l -18.7,-18.7 c -15,-59.7 -25.4,-126.5 -18.4,-195 l 11.4,-9 v -45.1 c -5.5,-2.2 -11.7,-4.5 -17.1,-6.6 v 21.2 l -16.4,-4.4 v -21.6 c -6.8,-1.4 -12.1,-2.7 -17.6,-3.5 v 20.5 l -17.7,-1.8 v -20.8 c -2.7,-0.3 -5.5,-0.8 -8.5,-0.8 -3,0 -5.8,0.5 -8.5,0.8 z"/>
      <path style="fill:none;" d="m 259,413 c -25.7,10.4 -71,22.2 -103,22.2 -32,0 -77.28,-11.8 -103.04,-22.2 m 35.36,-127.9 c 22.28,3.5 46.08,5.6 67.68,5.6 21.6,0 45.4,-2.1 67.7,-5.6 m -133.14,-21.6 c 21.64,1.8 45.14,2.6 65.44,2.6 20.3,0 43.8,-0.8 65.4,-2.6 m -129.56,-21.6 c 21.46,-0.1 42.86,-0.1 64.16,-0.1 21.3,0 42.7,0 64.2,0.1 m -127.88,-21.6 c 21.28,-2.2 42.58,-3.3 63.68,-3.3 21.1,0 42.4,1.1 63.7,3.3 m -128.02,-21.6 c 21.72,-4.3 43.02,-6.4 64.32,-6.2 v 0 c 21.3,-0.2 42.6,1.9 64.3,6.2 m -135.02,108.2 c 23.82,5.4 47.52,8.3 70.72,8.5 23.2,-0.2 46.9,-3.1 70.7,-8.5 m -145.26,21.7 c 25.16,7.6 49.96,11.4 74.56,11.6 24.6,-0.2 49.4,-4 74.6,-11.6 m -153.64,21.5 c 26.44,9.4 52.94,14.5 79.04,14.5 26.1,0 52.6,-5.1 79,-14.5 m -163.32,22.2 c 25.44,9.6 57.42,17.3 84.32,17.3 26.9,0 58.9,-7.7 84.3,-17.3 m -161.58,-204 c 0,0 15.52,-9.3 38.28,-13.3 16.3,-2.4 23,-3.2 39,-3.3 v 0 c 16,0.1 22.7,0.9 39,3.3 22.8,4 38.3,13.3 38.3,13.3 m -143.22,9 c 21.72,-6.9 45.32,-10.9 65.92,-10.9 v 0 c 20.6,0 44.2,4 65.9,10.9 m -168.94,213.7 c 25.76,10.4 71.04,22.9 103.04,22.9 32,0 77.3,-12.5 103,-22.9"/>
      <path style="fill:none;" d="m 156,192.5 v 24.5 m 0,73.7 v 24.7 m 0,24.8 v 24.4 m 43.8,-169.4 0.4,23.2 m 1.4,23.4 1.3,23 m 1.3,23.2 1.7,22.9 m 1.9,23.7 2.6,23 m 6.1,22.7 12.6,21 v 21.7 m 16.8,-5.2 v 20.1 m -38.5,-9.3 v 20.4 m -25.6,-86 1.9,24.4 7.2,23 m -12.2,-96.2 1.3,24.7 m -4.2,-121.6 v 24.5 m 2.3,-74 -1.1,25.3 m -64.8,2.1 -0.4,23.2 m -1.4,23.4 -1.3,23 m -1.3,23.2 -1.7,22.9 m -1.9,23.7 -2.6,23 m -6.08,22.7 -12.64,21 v 21.7 m -16.8,-5.2 v 20.1 m 38.52,-9.3 v 20.4 m 25.6,-86 -1.9,24.4 -7.2,23 m 12.2,-96.2 -1.3,24.7 m 4.2,-121.6 v 24.5 m -2.3,-74 1.1,25.3 m 0.7,72.7 -1.2,24.3 m 21.5,-48.3 v 24.3 m 20.6,-0.3 1.3,24.3"/>
      <path style="fill:none;" d="m 221.6,174.6 c 0,0 5.9,-5.8 1.4,-8.2 -4.6,-2.6 -10.4,5.3 -10.4,5.3 m -2.5,-0.7 c 0,0 3.3,-8.4 -2.6,-9.7 -5.7,-1.3 -9.9,7.2 -9.9,7.2 m -1.9,-0.3 c 0,0 0.6,-9 -5.9,-10.3 -6.8,-1.1 -8,8 -8,8 m -2.1,-0.1 c 0,0 0.3,-9.2 -6.3,-10 -6.7,-0.6 -7.6,8.5 -7.6,8.5 m -2,0 c 0,0 -0.3,-9.1 -7.8,-9.1 -7.5,0 -7.8,9.1 -7.8,9.1 m -57.8,10.3 c 0,0 -5.92,-5.8 -1.44,-8.2 4.64,-2.6 10.4,5.3 10.4,5.3 m 2.54,-0.7 c 0,0 -3.34,-8.4 2.6,-9.7 5.7,-1.3 9.9,7.2 9.9,7.2 m 1.9,-0.3 c 0,0 -0.6,-9 5.9,-10.3 6.8,-1.1 8,8 8,8 m 2.1,-0.1 c 0,0 -0.3,-9.2 6.3,-10 6.7,-0.6 7.6,8.5 7.6,8.5"/>
      <path style="fill:#1111dd;" d="m 156,454.4 h 15.5 l 9.9,-0.6 c 0,0 0.8,-25.8 0.5,-46.9 -0.3,-21.1 -12.8,-27.5 -25.9,-27.5 -13.1,0 -25.6,6.4 -25.9,27.5 -0.3,21.1 0.5,46.9 0.5,46.9 l 9.9,0.6 h 15.5"/>
      <path style="fill:none;" d="m 156,379.4 v 9.4 m 13.8,10.2 9.7,-5.2 m -15,-2.3 5.4,-8.8 m 12,43.9 h -9.9 m 9.9,-9.6 h -9.9 m 9.9,-9.6 h -10.2 m 10.1,28.8 h -9.8 m 9.6,9.7 h -9.8 m -29.6,-46.9 -9.7,-5.2 m 15,-2.3 -5.4,-8.8 m -12,43.9 h 9.9 m -9.9,-9.6 h 9.9 m -9.9,-9.6 h 10.2 m -10.1,28.8 h 9.8 m -9.6,9.7 h 9.8"/>
      <path style="fill:#000033;" d="m 156,388.8 c -8.5,0 -15.7,5.6 -16,23.7 -0.2,18.2 0.3,41.9 0.3,41.9 h 31.4 c 0,0 0.5,-23.7 0.3,-41.9 -0.3,-18.1 -7.5,-23.7 -16,-23.7 z"/>
    </g>
    <use xlink:href="#tower" id="tower2" transform="translate(600)scale(-1,1)"/>
    <g id="bridge">
      <path style="fill:#1111dd;" d="m 220,282.7 -6.3,-11 c 1.7,-10 1.8,-24.5 1.9,-36.1 h 84.4 84.4 c 0.1,11.6 0.2,26.1 1.9,36.1 l -6.2,11 c -25.8,-8.9 -48.1,-16.5 -80.1,-16.5 -31.9,0 -54.2,7.6 -80,16.5 z"/>
      <path style="fill:none;" d="m 246.1,260.3 h -31.1 m 0.4,-11.2 h 84.6 84.6 m -30.7,11.2 h 31.1"/>
      <path style="fill:none;" d="m 226,249.1 v 11.2 m 21.1,-11.2 v 11 m 21.2,-11 v 6.6 m 21.1,-6.6 v 4.1 m -52.8,-15.6 v 11.5 m 21.1,-11.5 v 11.5 m 21.2,-11.5 v 11.5 m 95.1,0 v 11.2 m -21.1,-11.2 v 11 m -21.1,-11 v 6.6 m -21.2,-6.6 v 4.1 m 52.8,-15.6 v 11.5 m -21.1,-11.5 v 11.5 m -21.2,-11.5 v 11.5 m -21.1,-11.5 v 11.5"/>
      <path style="fill:none;" d="m 213.8,271.1 c 18.4,-8.1 54.3,-18.2 86.2,-18.2 32,0 67.8,10.1 86.2,18.2"/>
      <path style="fill:none;" d="m 291,264.5 c 0,0 0.4,-9.7 9,-9.7 8.6,0 9,9.7 9,9.7 m -87.7,15.7 c 0,0 -2.4,-8.6 3,-10.5 5.7,-2 10.8,5.6 10.8,5.6 m 2.9,-1.1 c 0,0 -2.5,-9.2 4.2,-10.8 6.6,-1.4 9.9,6.9 9.9,6.9 m 2.6,-0.9 c 0,0 -2,-8.9 5.5,-10.4 7.6,-1.3 9.9,7.7 9.9,7.7 m 2.9,-0.4 c 0,0 -0.7,-9 6.8,-9.8 7.6,-0.9 8.7,8.1 8.7,8.1 m 90.2,15.6 c 0,0 2.4,-8.6 -3,-10.5 -5.7,-2 -10.8,5.6 -10.8,5.6 m -2.9,-1.1 c 0,0 2.5,-9.2 -4.2,-10.8 -6.5,-1.4 -9.8,6.9 -9.8,6.9 m -2.7,-0.9 c 0,0 2.1,-8.9 -5.5,-10.4 -7.6,-1.3 -9.9,7.7 -9.9,7.7 m -2.9,-0.4 c 0,0 0.7,-9 -6.8,-9.8 -7.6,-0.9 -8.6,8.1 -8.6,8.1"/>
      <path style="fill:#1111dd;" d="m 389.2,237.6 v -18.2 h -19.8 v 8.6 h -19.9 v -8.6 h -19.7 v 8.6 h -19.9 v -8.6 h -19.8 v 8.6 h -19.9 v -8.6 h -19.7 v 8.6 h -19.9 v -8.6 h -19.8 v 18.2 z"/>
    </g>
  </g>
</defs>
<use id="bg" xlink:href="#shield" style="fill:#bbbbbb;" />
<path style="fill:#ff0000;" d="m 598,2 v 257 c 0,14.09 -0.73,27.75 -2.1,41 h -295.9 v -298 z" />
<path style="fill:#000000;" d="m 300,300 v 357 c 0,0 -269.352,-101.24 -295.89,-357 z" />
<use xlink:href="#towers" transform="translate(150,155)scale(0.53)translate(-300,-300)"/>
<use xlink:href="#towers" transform="translate(415,435)scale(0.4)translate(-300,-300)"/>
<g id="blackwood">
  <path style="fill:#000000;" d="m 375,75 v 54.5 c 0,61.23 45.06,98.46 75,116.49 29.93,-18.03 75,-55.26 75,-116.49 v -54.5 z"/>
  <g id="tree">
    <path style="fill:#ffffff;" d="m 423.81,79.12 c -3.6,2.92 -5.84,5.84 -10.88,8.76 -3.79,-1.575 -8.56,-0.95 -11.18,-5.185 l -0.92,0.93 c 2.79,2.55 6.41,4.79 10.52,5.26 -0.33,3.84 1.86,6.06 2.96,9.49 -4.74,1.795 -11.05,-2.225 -16.08,-4.785 l -0.61,0.86 c 5.42,2.085 8.94,6.87 16.69,6.06 1.39,5.21 5.07,9.23 7.67,13.82 l -2.3,1.21 0.14,1.84 3.23,-0.39 c 4.79,0.78 7.55,2.43 10.86,3.85 l 3.37,8.5 c 3.22,4.97 4.06,7.26 6.54,9.06 0.9,5.41 2.81,7.7 2.34,12.62 -3.03,-0.93 -5.23,-2.9 -7.19,-5.19 l 1.53,-1.73 -2.45,-0.93 c -2.58,-3.58 -5.25,-7.07 -6.28,-12.22 l 0.91,-1.07 -0.45,-2.12 -2.76,1.19 c -5.83,-2.89 -12.66,-1.87 -19,-2.79 -0.29,-2.87 -4.47,-4.98 -6.89,-7.44 -5,-3.07 -9.2,-5.33 -10.76,-11.09 l -1.34,0.86 c 1.93,5.37 5.42,8.53 10.72,12.35 -3.55,1.16 -7.3,0.18 -10.62,3.81 l 0.52,1.24 c 4.84,-4.11 9.15,-2.77 13.47,-1.99 1.82,1.56 3.49,3.13 3.22,4.91 l 1.39,0.54 c 3.26,0.4 8.6,-1 9.5,1.46 l 1.07,0.14 c 6.91,-1.42 7.06,2.77 8.72,5.71 0.17,3.4 2.5,5.87 4.14,8.63 -1.4,1.3 -2.69,2.66 -9.95,0.14 l -6.44,-0.39 -1.54,-3.2 c -3.39,0.43 -6.62,-1.1 -9.64,-4.92 l -1.23,0.94 3.07,3.44 c -5.66,0.12 -11.32,2.24 -16.99,-1.19 v 1.07 c 4.92,2.23 10.16,2.48 15.46,2.12 -0.27,3.38 -7.06,3.94 -10.73,5.85 l 2,0.8 c 3.94,-1.83 9.57,-2.41 11.17,-5.98 5.5,0.32 6.55,2.06 4.9,4.65 l 3.38,0.53 c 0.64,-0.68 1.76,-1.19 7.21,-0.26 -0.96,2.44 -3.55,2.98 -5.53,4.25 h 2.45 c 3.31,-0.39 4.17,-1.71 4.9,-3.06 3.99,1.5 7.16,0.58 10.43,-0.13 1.74,1.86 3.47,3.74 6.27,4.92 0.1,1.96 0.44,3.85 1.54,5.58 -1,3.31 -0.19,6.02 0.91,8.64 -1.41,2.04 -2.75,4.08 -2.6,6.11 2.53,5.59 1.02,11.17 -0.61,16.75 -3.44,4.57 -10.34,4.45 -15.94,6.11 -3.95,1.01 -8.13,2 -13.92,2.79 -1.97,1.37 -3.04,2.3 -0.78,1.6 3.68,-0.76 7.35,-1.44 11.03,-1.74 5.19,-1.25 9.84,-1.75 14.23,-1.85 l 5.21,-2.92 c -3.84,2.68 -8.18,5.22 -11.32,8.1 -1.07,1.6 -0.36,3.55 -2.46,5.32 -6.46,2.44 -8.21,4.87 -12.24,7.31 l -0.31,1.46 c 5.23,-3.64 10.78,-6.17 16.53,-7.97 1.09,-1.1 2.85,-1.62 2.46,-3.99 1.49,-3.28 8.86,-4.13 11.18,-8.65 1.8,1 0.77,1.76 0,2.53 0,1.27 -3.33,2.87 -4.96,4.14 -1.05,0.82 -1.72,1.29 -0.87,2.11 -0.21,2.64 0.62,4.98 1.99,7.17 -0.1,3.84 -4.17,5.95 -6.27,8.91 l 0.47,0.66 c 2.75,-2.96 7.33,-5.37 9.14,-8.42 0.35,-0.58 0.21,-1.6 0.35,-2.2 -1.23,-1.73 -3.12,-3.17 -1.84,-5.98 3.11,-1.88 6.22,-5.89 9.33,-5.59 -1.15,3 -0.51,5.74 -0.14,8.51 2.34,1.16 3.22,3.08 4.28,4.91 l 11.35,5.98 c 1.09,0.59 1.45,0.4 1.21,-0.39 l -10.71,-6.91 c -0.88,-2.74 -1.32,-5.49 -2.91,-8.24 0.93,-2.21 4.05,-3.79 2.75,-6.65 0.75,4.06 2.93,6.64 7.37,8 1.58,0.48 3,1.73 3.5,3.3 4.99,1.83 11.78,2.43 19.15,2.65 1.66,0 2.19,-0.33 0.92,-1.05 -5.72,-1.24 -12.08,-0.26 -17.16,-3.74 -2.44,-3.2 -2.93,-4.65 -8.58,-9.43 7.33,3.62 14.2,2 21.29,2.92 v -0.66 c -5.2,-1.11 -8.78,-0.57 -15.62,-3.32 -2.91,-1.07 -6.27,-1.73 -6.9,-4.78 l -3.19,-11.44 c 1.64,-4.65 2.36,-9.3 0.3,-13.95 0.41,-1.66 0.82,-3.32 0.45,-6.78 -0.7,-1.88 1.15,-3.52 2.76,-5.18 2.19,0.75 3.83,0.1 5.51,-0.53 0.1,-1.95 -0.49,-3.83 1.85,-5.98 l 7.5,-2.39 c 6.98,-1.05 12.11,-0.74 13.78,2.12 h 2.44 c 5.45,-4.07 11.6,-5.87 18.55,-5.04 l 0.3,-0.94 c -3.63,-0.37 -6.84,-1.03 -11.34,-0.8 4.26,-1.96 4.59,-5.09 6.18,-7.97 l -1.33,-0.24 c -0.67,4.96 -6.54,6.72 -9.9,10.08 -6.99,-1.67 -13.98,-3.38 -20.98,0.12 l -1.08,-2.39 -1.83,-0.65 0.62,2.38 c -4.76,0.95 -8.75,3.64 -12.72,6.39 3.44,-4.34 7.72,-8.43 7.96,-13.7 11.03,-1.22 19.98,-4.77 23.89,-13.95 l 9.5,-0.54 1.38,-1.19 c 0,0 -1.11,0.23 -0.6,-0.26 1.4,-1.38 8.97,-5.64 8.14,-5.76 l 0.5,-0.85 c -7.53,3.68 -8.26,7.38 -19.68,6.07 -0.1,-3.86 -0.5,-7.77 3.22,-11.16 1.54,0 2.65,-0.71 3.06,-2.39 0.34,-1.4 -0.39,-0.78 -0.95,-0.47 -1.17,1.64 -2.98,1.88 -4.71,2.06 -2.22,3.7 -3.66,7.44 -3.07,11.3 l -2.76,-0.93 0.31,2.39 c 2.46,9.18 -8.4,10.15 -18.53,11.57 l -4.91,2.38 c 0,3.34 -2.06,5.64 -4.29,7.85 l -2.13,0.93 v 2.13 l -3.53,6.51 c -0.17,-6.01 -0.83,-9.57 -2.7,-15.42 4.76,-2.77 3.82,-9.55 5.76,-13.16 5.3,-0.8 10.76,-3.93 16.24,-7.31 l 0.76,1.06 1.68,-0.65 -0.3,-1.6 5.56,-8.9 0.57,0.39 c -0.44,-2.82 -1.35,-5.45 0,-9.045 0.74,-2.125 1.85,-4.245 3.52,-6.37 l -0.68,-0.25 c -2.61,2.465 -3.02,4.455 -4.27,6.62 l -0.89,7.855 c -3.29,6.76 -8.01,10.21 -13.91,12.76 0.62,-3.28 0.24,-6.41 -0.25,-9.52 l -1.28,-0.1 c 0.57,2.67 0.9,5.39 0,8.39 0.3,3.16 -4.22,2.71 -6.44,3.98 0.46,-4.77 1.01,-9.39 -1.92,-13.42 4.01,-4.66 4.4,-9.895 7.29,-15.02 l -0.47,-1.87 c -0.68,1.43 -0.78,4.5 -2.13,4.045 -0.88,-2.28 -0.55,-4.555 -2.92,-6.835 -1.82,-1.415 -3.49,-3.14 -4.94,-5.37 l -1.05,0.455 c 1,2.435 2.38,4.59 4.31,6.375 3.07,2.755 2.08,5.52 3.07,8.28 -1.48,1.47 -1.64,3.745 -2.92,5.55 0.42,1.56 -1.74,3.45 -2.61,5.18 v 0.26 c 3.72,4.61 0.88,9.1 1.49,13.71 -1.59,-0.15 -1.73,1.01 -2.41,1.97 0.84,4.85 -0.68,6.4 -5.54,9.02 -1.42,-1.65 -5.43,-2.2 -6.1,-6.35 -0.13,-0.62 -0.33,-1.38 -0.88,-1.68 -2.4,-1.31 -0.34,-3.94 -0.65,-5.64 3.7,-1.75 4.77,-6.53 6.26,-10.41 -0.87,-4.84 -1.85,-9.78 -1.24,-15.105 h -1.04 c -0.28,4.475 -0.41,8.945 0.62,13.425 -1.26,5.51 -3.77,9.93 -8.74,12.23 -2.66,-1.11 -5.84,-1.29 -7.96,-3.32 -2.2,-2.36 -4.68,-4.64 -5.35,-7.44 2.38,-1.48 5.01,-2.93 8.88,-4.25 1.54,-2.18 3.58,-4.62 6.44,-7.455 l -0.47,-1.06 -5.36,5.575 c -3.62,1.47 -7.25,5.3 -10.87,4.26 -3.6,-3.01 -3.15,-6.025 -4.61,-9.035 2.86,1.475 5,-0.465 7.36,-1.335 l 0.15,-1.06 c -2.55,0.39 -4.62,3 -7.65,1.06 -0.49,-1.9 -2.1,-3.8 -0.93,-5.705 4.2,-2.59 6.57,-5.585 9.81,-8.385 z"/>
    <path style="fill:none;stroke:#000000;stroke-linejoin:round;stroke-linecap:round;" d="m 445.81,134.16 c 2.09,1.63 3.62,3.27 3.1,4.9 m 13.97,12 c 0.97,-0.81 1.48,-1.85 4.23,-1.72 m -18.48,7.35 0.42,5.99 c -0.52,2.59 0.1,4.79 1.42,6.73 -0.94,1.23 -1.88,3.32 -2.83,5.51 1.79,5.72 2.3,11.25 1.84,16.64 -0.1,1.02 -0.81,1.89 -2.4,2.58 m 9.59,-35.38 c 0.31,2.35 1.23,4.57 0.14,7.23 1.39,4.96 -0.28,9.4 -0.56,14.07 -0.83,5.09 1.78,9.19 2.96,13.71 v 0 h 0.29"/>
  </g>
  <g id="crows">
    <g id="crow" style="fill:#000000;stroke:#333333;stroke-width:0.25;stroke-linejoin:round;stroke-linecap:round;">
      <path d="m 332.15,64.12 c -0.3,0.18 -0.47,0.5 -0.62,0.89 0,0.1 0,0.22 0,0.37 0,0.25 0.12,0.52 0.28,0.76 0.17,0.25 0.62,0.36 1.35,0.37 -0.38,-0.62 -0.41,-1.12 -0.17,-1.4 0.24,-0.27 0.56,-0.52 0.97,-0.65 0.13,0 0.29,-0.1 0.47,-0.28 0.19,-0.19 0.47,-0.48 0.74,-0.77 0.13,-0.14 0.31,-0.29 0.45,-0.44 l -0.21,-0.23 c -0.39,0.22 -0.76,0.34 -1.18,0.43 -0.47,0.1 -0.87,0.27 -1.21,0.49 -0.29,0.1 -0.54,0.27 -0.81,0.46 z" />
      <path d="m 333.79,65.23 c -0.1,0.3 -0.1,0.7 0.1,1.08 0.14,0.47 0.33,0.64 0.62,0.54 0.31,-0.1 0.67,-0.12 1.11,-0.2 -0.55,-0.41 -0.74,-0.85 -0.53,-1.22 0.19,-0.38 0.38,-0.69 0.51,-0.92 0.16,-0.24 0.29,-0.47 0.53,-0.65 0.1,-0.1 0.13,-0.23 0.14,-0.39 0,0.16 -0.1,0.31 -0.14,0.39 -0.11,0.17 -0.12,0.44 0,0.86 0.1,0.39 0.3,0.65 0.55,0.68 0.32,0.1 0.7,0.13 1.27,0.1 -0.46,-0.62 -0.66,-1.11 -0.57,-1.48 0.1,-0.36 0.27,-0.73 0.51,-1.01 0.3,-0.26 0.64,-0.45 1.07,-0.57 0.12,-0.1 0.27,0.1 0.38,0.25 0.23,0.36 0.33,0.74 0.23,1.11 0,0.11 -0.1,0.19 -0.1,0.3 0.11,-0.1 0.22,-0.17 0.27,-0.25 0.31,-0.33 0.52,-0.7 0.73,-1.03 0.2,-0.37 0.22,-0.7 0.1,-1.06 -0.2,-0.49 -0.5,-0.7 -0.94,-0.69 -0.1,0 -0.19,0 -0.31,0.1 -0.4,0.16 -0.83,0.27 -1.25,0.43 -0.37,0.14 -0.79,0.1 -1.2,-0.24 -0.48,-1.42 -0.73,-2.85 -0.82,-4.15 0,-0.62 0,-1.44 0,-2.32 -0.56,0.24 -1.09,0.35 -1.65,0.21 0,0.22 -0.16,0.45 -0.36,0.61 v 0 l 1.51,6.42 c 0,0.1 0,0.17 0,0.27 -1.08,1.07 -1.66,2.12 -1.85,2.83 z" />
      <path d="m 338.06,64.6 c -0.31,0.2 -0.49,0.5 -0.63,0.9 -0.1,0.1 -0.1,0.22 -0.1,0.37 0,0.25 0.12,0.52 0.29,0.76 0.17,0.25 0.62,0.36 1.35,0.37 -0.38,-0.63 -0.41,-1.12 -0.17,-1.4 0.23,-0.27 0.56,-0.52 0.97,-0.65 0.12,-0.1 0.29,-0.1 0.47,-0.28 0.19,-0.19 0.47,-0.48 0.74,-0.77 0.13,-0.14 0.31,-0.3 0.45,-0.44 l -0.21,-0.23 c -0.39,0.22 -0.76,0.34 -1.19,0.43 -0.46,0.1 -0.86,0.27 -1.21,0.48 -0.28,0.1 -0.54,0.28 -0.8,0.46 z" />
      <path d="m 339.7,65.72 c -0.1,0.3 -0.1,0.7 0.1,1.08 0.14,0.46 0.33,0.64 0.62,0.54 0.31,-0.1 0.66,-0.13 1.12,-0.2 -0.56,-0.41 -0.74,-0.85 -0.54,-1.22 0.2,-0.37 0.38,-0.69 0.51,-0.92 0.16,-0.25 0.29,-0.47 0.54,-0.65 0,-0.1 0.12,-0.23 0.13,-0.39 0,0.16 -0.1,0.31 -0.13,0.39 -0.12,0.17 -0.12,0.44 0,0.86 0.1,0.39 0.28,0.65 0.55,0.68 0.31,0.1 0.69,0.13 1.27,0.1 -0.47,-0.62 -0.67,-1.11 -0.57,-1.48 0.1,-0.36 0.26,-0.73 0.5,-1.01 0.31,-0.27 0.66,-0.45 1.08,-0.57 0.11,-0.1 0.26,0.1 0.36,0.24 0.24,0.37 0.34,0.75 0.24,1.12 0,0.11 0,0.19 0,0.3 0.11,-0.1 0.21,-0.17 0.26,-0.25 0.32,-0.33 0.52,-0.7 0.74,-1.03 0.2,-0.37 0.22,-0.7 0.1,-1.06 -0.21,-0.49 -0.52,-0.7 -0.95,-0.69 -0.1,0 -0.2,0 -0.31,0.1 -0.41,0.16 -0.85,0.27 -1.25,0.43 -0.37,0.14 -0.78,0.1 -1.2,-0.24 -0.49,-1.42 -0.74,-2.85 -0.83,-4.15 0,-0.62 0,-1.44 0,-2.32 -0.56,0.24 -1.09,0.34 -1.66,0.21 0,0.22 -0.15,0.45 -0.35,0.61 v 0.1 l 1.51,6.42 c 0,0.1 0,0.16 0,0.27 -1.08,1.07 -1.66,2.11 -1.84,2.83 z" />
      <path d="m 337.89,14.08 c -0.79,0.38 -1.57,0.72 -2.3,1.1 -0.79,0.33 -1.53,0.72 -2.22,1.15 -0.77,0.43 -1.51,0.91 -2.21,1.47 -0.69,0.48 -1.35,1.06 -1.83,1.68 -0.6,0.72 -1,1.48 -1.25,2.39 -0.22,0.9 -0.34,1.81 -0.34,2.77 -0.1,0.91 0,1.86 0.12,2.82 0.17,0.96 0.31,1.86 0.52,2.62 0.1,0.1 0.13,0.1 0.22,0.14 0.43,0.34 0.83,0.72 1.21,1.1 0.13,0.29 0.31,0.53 0.44,0.81 0.56,0.53 1.12,0.82 1.61,0.87 0.51,0 0.77,-0.19 0.82,-0.57 -0.13,-0.57 -0.31,-1.15 -0.56,-1.67 -0.44,-0.72 -0.82,-1.53 -1.13,-2.39 -0.35,-0.96 -0.35,-1.82 0.1,-2.63 0.36,-0.81 0.92,-1.49 1.62,-2.01 0.78,-0.52 1.56,-1.05 2.33,-1.47 0.78,-0.48 1.56,-0.92 2.3,-1.2 0.83,-0.38 1.61,-0.72 2.39,-0.96 0.82,-0.33 1.69,-0.57 2.52,-0.76 0.9,-0.24 1.77,-0.43 2.6,-0.62 0.87,-0.15 1.65,-0.33 2.47,-0.43 0.92,-0.1 1.78,-0.24 2.69,-0.38 0.83,-0.1 1.7,-0.24 2.57,-0.34 0,0 0,0 0,0 0.65,-0.19 1.21,-0.62 1.74,-1.29 0.48,-0.71 0.78,-1.48 1.04,-2.29 -0.26,0.23 -0.56,0.43 -0.95,0.53 -0.83,0.24 -1.66,0.47 -2.52,0.71 -0.87,0.24 -1.74,0.43 -2.6,0.48 -0.87,0 -1.79,0.1 -2.7,0 0.35,0 0.65,-0.13 0.96,-0.23 0.82,-0.38 1.61,-0.81 2.34,-1.24 0.7,-0.38 1.35,-0.96 1.91,-1.62 0.57,-0.77 1.13,-1.49 1.65,-2.2 0.48,-0.72 0.7,-1.63 0.65,-2.78 -0.43,0.44 -0.95,0.77 -1.65,1.06 -0.73,0.38 -1.56,0.67 -2.43,1 -0.86,0.33 -1.6,0.57 -2.25,0.81 -0.66,0.24 -1.48,0.53 -2.39,0.86 -0.91,0.34 -1.79,0.62 -2.56,0.96 -0.78,0.29 -1.61,0.53 -2.48,0.76 -0.87,0.24 -1.73,0.58 -2.47,0.96" />
      <path d="m 350.99,20.77 c -0.78,0.67 -1.34,1.1 -1.78,1.38 0.1,0 0.27,0 0.44,0 0.56,0.1 1.25,0.1 2.08,0 0.78,0 1.6,0 2.52,0.14 0.91,0.14 0.95,0.62 0.13,1.44 -0.1,0 -0.18,0.1 -0.18,0.14 -0.26,0.14 -0.43,0.34 -0.65,0.53 -0.43,0.28 -0.87,0.57 -1.34,0.91 -0.52,0.28 -1.05,0.47 -1.61,0.52 l -0.1,0.19 c 0.43,0.1 0.91,0.1 1.44,0.19 0.73,0.15 0.9,0.53 0.56,1.2 1.38,0 2.21,0.1 2.51,0.24 0.83,0.43 1.65,0.72 2.48,0.9 0.91,0.15 1.82,0.29 2.73,0.43 0.96,0.1 1.78,-0.14 2.52,-0.61 0.7,-0.48 1.26,-1.1 1.69,-1.91 -0.78,0 -1.61,0 -2.34,-0.1 -0.91,-0.1 -1.74,-0.24 -2.56,-0.53 -0.87,-0.33 -1.69,-0.71 -2.48,-1.09 -0.78,-0.39 -1.73,-0.63 -2.73,-0.67 0.43,0 0.87,0 1.35,0 0.91,0 1.82,0 2.77,0 0.83,0 1.69,0 2.6,-0.1 0.92,0 1.78,-0.24 2.53,-0.62 0.77,-0.43 1.43,-1.06 1.86,-1.86 0.44,-0.77 0.39,-1.19 -0.22,-1.19 -0.91,-0.1 -1.77,-0.1 -2.69,-0.1 -0.91,0 -1.82,-0.1 -2.73,-0.19 -0.39,0 -0.7,0 -1.04,0.1 -0.26,0 -0.52,0 -0.74,0 -4.73,0.15 -7.12,0.33 -7.08,0.62" />
      <path d="m 367.18,53.93 c 1.48,0.27 2.61,-0.14 3.38,-1.25 0.49,-0.81 0.79,-1.39 0.87,-1.77 -1.47,0 -2.81,-0.1 -4.12,-0.33 -1.51,-0.34 -2.94,-0.66 -4.34,-1.1 -0.35,0.33 -0.74,0.62 -1.17,0.76 -0.52,0.19 -1.08,0.38 -1.65,0.54 l -0.21,0.66 c 3.03,1.58 5.46,2.39 7.24,2.49" />
      <path d="m 352.56,27.41 c -0.1,0.1 -0.14,0.1 -0.18,0.14 -0.73,0.47 -1.43,0.91 -1.99,1.19 -0.57,0.34 -0.87,0.48 -0.96,0.48 -0.43,0.82 -1,1.54 -1.69,1.96 -0.1,0.1 -0.22,0.14 -0.31,0.19 0.44,0.58 0.92,1.06 1.48,1.63 0.69,0.61 1.48,0.95 2.38,1 0.92,0.1 1.79,0.1 2.66,0 -0.61,-0.43 -1.18,-1.1 -1.65,-1.82 -0.56,-0.71 -1,-1.47 -1.31,-2.28 0.44,0.28 0.91,0.66 1.39,1.04 0.7,0.53 1.44,1.01 2.26,1.34 0.87,0.38 1.73,0.53 2.69,0.57 0.96,0 1.78,-0.33 2.43,-0.9 -0.48,-0.24 -1,-0.67 -1.47,-1.15 -0.66,-0.62 -1.31,-1.24 -2,-1.96 -0.66,-0.67 -1.91,-1.15 -3.73,-1.43" />
      <path d="m 349.43,29.22 c -0.78,0.15 -1.56,0.19 -2.34,0.15 -0.22,0 -0.96,-0.1 -2.13,-0.19 -0.17,0.19 -0.34,0.34 -0.56,0.47 -0.74,0.62 -1.44,1.15 -2.17,1.58 -0.31,0.19 -0.57,0.38 -0.92,0.52 0.35,0.24 0.79,0.43 1.31,0.38 0.87,0 1.73,-0.14 2.6,-0.14 h 0.34 c 0.61,-0.1 1.27,-0.28 1.83,-0.62 0,-0.1 0,0 0,0 0.1,-0.1 0.21,-0.14 0.3,-0.19 0.7,-0.42 1.27,-1.14 1.7,-1.96" />
      <path d="m 344.7,32.9 c -0.3,0.29 -0.61,0.53 -0.87,0.81 -0.52,0.48 -1.08,0.77 -1.73,0.96 0.13,0.38 0.13,0.71 0.1,1.1 -0.1,0.48 -0.26,1.01 -0.65,1.54 -0.57,0.75 -1.3,1.09 -2.13,0.85 0.18,0.28 0.48,0.52 0.92,0.82 0.61,0.42 1.25,0.71 1.91,0.9 0.17,0 0.3,0 0.47,0.1 0.26,0.1 0.43,0.1 0.66,0.1 0.73,-0.1 1.34,-0.29 1.77,-0.77 -0.56,-0.23 -1.04,-0.57 -1.47,-1.15 -0.61,-0.75 -1.09,-1.52 -1.43,-2.29 0.34,0.48 0.78,0.86 1.29,1.25 0.8,0.52 1.66,0.76 2.61,0.76 1.05,0 1.74,-0.34 2.05,-1.2 -0.74,-0.23 -1.35,-0.76 -1.87,-1.47 -0.39,-0.54 -0.74,-1.11 -1.13,-1.58 -0.13,-0.15 -0.31,-0.38 -0.47,-0.62" />
      <path d="m 343.84,33.71 c 0.26,-0.28 0.56,-0.52 0.87,-0.81 0.25,-0.33 0.56,-0.62 0.86,-0.91 -0.13,0 -0.26,0 -0.35,0 -0.86,0 -1.73,0.1 -2.6,0.15 -0.52,0 -0.95,-0.15 -1.3,-0.38 -0.26,0.1 -0.52,0.1 -0.78,0.19 0,1 -0.35,1.82 -1.13,2.39 -0.22,0.1 -0.43,0.23 -0.65,0.38 0.87,0.19 1.78,0.19 2.69,0.1 0.21,-0.1 0.43,-0.1 0.65,-0.15 0.65,-0.19 1.22,-0.48 1.74,-0.95" />
      <path d="m 345.18,33.52 c 0.22,0.29 0.52,0.53 0.87,0.81 0.52,0.29 1.08,0.58 1.69,0.77 0.86,0.24 1.74,0.33 2.56,0.19 -0.56,-0.48 -1.12,-0.96 -1.56,-1.62 -0.56,-0.77 -1,-1.54 -1.35,-2.3 -0.56,0.34 -1.21,0.58 -1.82,0.62 -0.3,0.29 -0.61,0.58 -0.86,0.91 0.17,0.24 0.34,0.48 0.47,0.62" />
      <path d="m 351.6,49.24 c -0.39,0.1 -0.82,0.1 -1.26,0.1 0,0 0,0 -0.1,0 -0.1,-0.1 -0.13,-0.1 -0.18,-0.1 -0.1,0.1 -0.25,0.14 -0.42,0.24 -0.22,0.14 -0.48,0.24 -0.7,0.33 -0.22,0.1 -0.52,0.14 -0.74,0.19 0,0.24 -0.1,0.43 -0.17,0.58 -0.1,0.14 -0.22,0.29 -0.35,0.38 0.43,0.19 0.87,0.43 1.21,0.76 0.48,0.34 0.96,0.72 1.39,1.1 0.44,0.34 0.87,0.73 1.31,1.11 0.39,0.43 0.78,0.85 1.16,1.33 0.14,0.24 0.4,0.43 0.62,0.62 0.25,0.14 0.47,0.29 0.73,0.43 0.57,0.14 1.13,0.24 1.78,0.24 0.44,-0.1 0.78,-0.24 1.13,-0.57 -0.43,-0.24 -0.82,-0.48 -1.17,-0.72 -0.48,-0.38 -0.92,-0.77 -1.34,-1.14 -0.44,-0.44 -0.88,-0.87 -1.31,-1.25 -0.44,-0.38 -0.87,-0.72 -1.31,-1 -0.56,-0.29 -1.03,-0.58 -1.56,-0.9 -0.43,-0.29 -0.86,-0.53 -1.3,-0.77 0.44,0.24 0.87,0.48 1.3,0.77 0.53,0.32 1,0.61 1.56,0.9 0.44,0.29 0.87,0.62 1.31,1 0.43,0.38 0.86,0.81 1.31,1.25 0.42,0.37 0.86,0.76 1.34,1.14 0.35,0.24 0.74,0.48 1.17,0.72 0.1,0.1 0.13,0.1 0.22,0.1 0.52,0.29 1.08,0.43 1.73,0.48 0.61,0 1.17,-0.1 1.65,-0.24 0.18,0 0.31,-0.1 0.44,-0.1 -0.1,-0.1 -0.1,-0.1 -0.1,-0.1 -0.52,-0.29 -0.99,-0.67 -1.38,-1.05 -0.4,-0.38 -0.79,-0.82 -1.22,-1.19 -0.44,-0.38 -0.91,-0.77 -1.35,-1.15 -0.44,-0.29 -0.86,-0.67 -1.3,-1.01 -0.43,-0.38 -0.91,-0.71 -1.39,-0.99 -0.48,-0.38 -1.04,-0.68 -1.52,-1.01 -0.39,-0.24 -0.82,-0.39 -1.25,-0.53" />
      <path d="m 347.7,50.97 c -0.31,0.23 -0.69,0.32 -1.22,0.32 0.39,0.2 1.65,2.11 3.81,5.69 0.31,0.33 0.84,0.44 1.53,0.38 0.65,-0.14 1.08,-0.38 1.34,-0.9 0.1,-0.15 0.14,-0.39 0.22,-0.58 -0.22,-0.19 -0.48,-0.38 -0.61,-0.62 -0.39,-0.48 -0.78,-0.9 -1.17,-1.33 -0.44,-0.38 -0.87,-0.77 -1.31,-1.1 -0.43,-0.39 -0.9,-0.77 -1.38,-1.1 -0.35,-0.34 -0.78,-0.58 -1.21,-0.76" />
      <path d="m 352.86,49.76 c 0.47,0.34 1.04,0.63 1.52,1.01 0.47,0.28 0.95,0.62 1.38,1 0.44,0.34 0.87,0.72 1.31,1.01 0.44,0.38 0.91,0.76 1.35,1.14 0.43,0.38 0.82,0.82 1.21,1.2 0.39,0.38 0.87,0.76 1.39,1.04 0,0 0,0 0.1,0.1 1.3,0.37 2.56,0.28 3.64,-0.39 1.09,-0.67 1.91,-1.29 2.47,-1.91 -1.78,-0.1 -4.21,-0.91 -7.24,-2.48 -0.44,-0.24 -0.83,-0.43 -1.26,-0.67 -1.3,-0.77 -2.73,-1.58 -4.3,-2.54 -1.17,0.53 -1.95,0.82 -2.25,0.92 -0.18,0 -0.35,0.1 -0.52,0.1 0.43,0.14 0.86,0.29 1.25,0.52" />
      <path style="fill:#000000;stroke:none;" d="m 313.32,28.18 c -0.39,0.47 -0.56,0.95 -0.52,1.38 0.39,0.48 0.83,0.57 1.39,0.24 0.13,-0.1 0.18,-0.15 0.26,-0.28 0.1,-0.34 0.13,-0.82 0.1,-1.34 -0.42,0.14 -0.82,0.14 -1.16,0 z" />
      <path style="fill:#ffffff;stroke:none;" d="m 314.19,29.8 c -0.56,0.33 -1,0.24 -1.39,-0.24 0,0.28 0.1,0.57 0.26,0.86 0.44,0.14 1,0.24 1.61,0.14 0.52,-0.1 0.95,-0.34 1.34,-0.76 0.22,-0.28 0.35,-0.67 0.43,-1.1 -0.56,-0.1 -1.04,-0.33 -1.43,-0.71 -0.1,0 -0.16,0.1 -0.26,0.13 -0.13,0 -0.17,0.1 -0.25,0.1 0.1,0.52 0,1 -0.1,1.34 -0.1,0.13 -0.13,0.23 -0.26,0.28 z"/>
      <path d="m 330.56,48.81 c -0.44,-0.1 -0.75,-0.14 -1,-0.29 0.1,0.53 0.3,1.05 0.65,1.53 0.3,0.48 0.65,0.91 1.04,1.34 0.35,0.43 0.7,0.91 1,1.43 0.35,0.53 0.51,1.1 0.56,1.72 0.1,0.67 0,1.29 -0.18,1.91 -0.17,0.53 -0.43,0.86 -0.82,1.06 0.65,0.1 1.22,0.1 1.74,0 0.18,0 0.34,-0.15 0.48,-0.29 0.13,-0.1 0.17,-0.2 0.26,-0.34 0,-0.1 0.1,-0.19 0.1,-0.33 0.44,0.14 0.91,0.38 1.51,0.67 0.23,0.14 0.49,0.23 0.75,0.33 0.3,0.1 0.55,0.14 0.87,0.19 0.38,0 0.68,-0.1 0.91,-0.14 0.1,-0.19 0.13,-0.38 0.21,-0.62 0.11,-0.29 0.18,-0.53 0.22,-0.86 -0.45,0 -0.83,-0.24 -1.13,-0.72 -0.34,-0.52 -0.65,-0.96 -0.9,-1.38 0.5,0 1.04,0 1.5,-0.1 -0.46,-0.14 -0.85,-0.57 -1.25,-1.09 -0.31,-0.52 -0.44,-1.14 -0.25,-1.86 -0.13,-0.1 -0.27,-0.14 -0.35,-0.24 -0.58,-0.29 -1.09,-0.62 -1.6,-0.91 -0.32,-0.24 -0.69,-0.43 -0.99,-0.67 -0.17,0 -0.31,0 -0.48,0 -0.96,0 -1.87,-0.1 -2.86,-0.38" />
      <path d="m 344.84,18.71 c -0.83,0.19 -1.71,0.38 -2.61,0.63 -0.83,0.18 -1.69,0.43 -2.52,0.76 -0.78,0.23 -1.56,0.57 -2.39,0.96 -0.73,0.28 -1.51,0.71 -2.3,1.19 -0.78,0.42 -1.56,0.95 -2.34,1.48 -0.69,0.52 -1.26,1.2 -1.61,2.01 -0.43,0.81 -0.43,1.67 -0.1,2.62 0.31,0.86 0.7,1.68 1.13,2.4 0.26,0.52 0.44,1.09 0.57,1.67 0.1,0.33 0,0.9 -0.18,1.66 -0.22,0.82 -0.82,1.25 -1.95,1.34 1.13,-0.1 1.73,-0.52 1.95,-1.34 0.18,-0.76 0.26,-1.33 0.18,-1.66 -0.1,0.38 -0.31,0.57 -0.83,0.57 -0.48,0 -1.04,-0.34 -1.6,-0.87 -0.13,-0.28 -0.32,-0.52 -0.44,-0.81 -0.39,-0.38 -0.78,-0.76 -1.22,-1.1 -0.1,0 -0.12,-0.1 -0.21,-0.14 -0.17,-0.1 -0.3,-0.19 -0.43,-0.19 -0.48,-0.24 -0.96,-0.48 -1.52,-0.71 -0.48,-0.24 -1.09,-0.34 -1.74,-0.29 0.17,-0.1 0.35,-0.19 0.48,-0.29 0.26,-0.34 0.39,-0.67 0.48,-1 -0.31,0.14 -0.96,0.14 -1.92,0 -1.43,-0.19 -2.33,-0.38 -2.86,-0.53 0.56,-0.19 0.78,-0.62 0.78,-1.33 0,-0.72 -0.38,-1.1 -0.99,-1.25 0,0.19 -0.1,0.34 -0.1,0.48 -0.13,0.57 -0.48,0.91 -1.04,0.95 -0.56,0.1 -1.17,0.1 -1.78,0 -0.56,-0.1 -1.13,-0.1 -1.73,-0.1 -0.61,0 -1.17,0 -1.74,0.15 -0.61,0 -1.09,0.33 -1.52,0.76 -0.13,0.28 -0.17,0.52 -0.17,0.76 0,0.29 0.17,0.52 0.47,0.62 0.1,0.1 0.13,0.1 0.27,0.1 0.34,0.15 0.74,0.15 1.17,0 0.1,0 0.12,-0.1 0.26,-0.1 0.1,-0.1 0.17,-0.1 0.26,-0.14 0.13,-0.1 0.26,-0.19 0.35,-0.24 0.3,-0.24 0.65,-0.48 0.99,-0.57 -0.34,0.1 -0.69,0.33 -0.99,0.57 -0.1,0 -0.22,0.14 -0.35,0.24 0.39,0.38 0.87,0.62 1.43,0.72 h 0.22 c 0.52,0.14 1.08,0.1 1.69,0 0.26,-0.1 0.48,-0.1 0.69,-0.15 -0.21,0 -0.43,0.1 -0.69,0.15 -0.61,0.1 -1.17,0.14 -1.69,0 h -0.22 c -0.1,0.43 -0.22,0.81 -0.43,1.1 -0.4,0.42 -0.83,0.71 -1.35,0.76 -0.6,0.1 -1.17,0 -1.61,-0.14 0.1,0.1 0.13,0.14 0.22,0.28 0.65,0.77 0.87,1.96 0.61,3.49 0.48,0.38 0.96,0.77 1.39,1.15 0.43,0.43 0.91,0.72 1.39,1 0.56,0.24 1.13,0.38 1.69,0.53 0.57,0.1 1.13,0.23 1.61,0.52 0.25,0.1 0.34,0.33 0.34,0.77 v 0.33 c 0.48,-0.1 0.74,-0.43 0.65,-1.05 0.26,0.48 0.61,1 1,1.48 0.1,0.1 0.13,0.24 0.13,0.43 0.1,0.67 0,1.29 -0.13,1.82 0,0.14 -0.1,0.33 -0.21,0.38 0.69,0.19 1.21,0.1 1.56,-0.34 0.1,-0.14 0.1,-0.28 0.13,-0.43 0.3,0.43 0.39,1.01 0.26,1.72 -0.13,0.62 -0.39,1.15 -0.83,1.58 0.52,0.15 1.05,0.24 1.65,0.15 0.17,-0.1 0.35,-0.2 0.56,-0.34 0.18,-0.24 0.4,-0.48 0.57,-0.81 0.1,0.81 0.17,1.43 0.35,2.05 0.17,0.53 0.43,1 0.78,1.39 0.39,0.38 0.78,0.72 1.13,1.1 0.39,0.33 0.69,0.57 0.95,0.67 0.13,0.1 0.35,0.14 0.7,0.23 0.26,0.15 0.56,0.19 1,0.29 0.99,0.29 1.9,0.38 2.86,0.38 h 0.48 c -0.13,-0.1 -0.27,-0.24 -0.4,-0.38 -0.43,-0.38 -0.81,-0.86 -1.08,-1.43 -0.3,-0.53 -0.52,-1.1 -0.73,-1.72 -0.22,-0.53 -0.32,-1.15 -0.32,-1.77 0,-0.67 0.23,-1.19 0.66,-1.53 -0.43,0.34 -0.66,0.86 -0.66,1.53 0,0.62 0.1,1.24 0.32,1.77 0.21,0.62 0.43,1.19 0.73,1.72 0.27,0.57 0.65,1.05 1.08,1.43 0.14,0.14 0.27,0.29 0.4,0.38 0.3,0.24 0.64,0.43 0.96,0.67 0.51,0.3 1.03,0.62 1.6,0.92 0.1,0.1 0.22,0.13 0.35,0.23 0.34,0.24 0.69,0.57 0.99,0.86 0.44,0.48 0.7,0.96 0.83,1.53 0.13,0.63 0.21,1.24 0.26,1.86 0,0.29 0,0.58 0,0.86 0,0.34 -0.13,0.58 -0.21,0.86 -0.1,0.24 -0.18,0.44 -0.22,0.62 0,0.15 -0.1,0.2 -0.13,0.29 0.52,0.1 1.04,0.1 1.6,-0.1 l 0.1,-0.1 c 0.26,-0.1 0.47,-0.19 0.61,-0.39 0.43,0.39 0.95,0.53 1.56,0.57 0.39,0.1 0.69,0 1.08,-0.1 0.22,0 0.48,-0.1 0.69,-0.14 0.48,-0.19 1.22,0.1 2.18,0.81 -1.18,-1.58 -1.87,-2.44 -2.09,-2.63 -0.44,-0.38 -0.78,-0.81 -1.04,-1.24 -0.1,-0.1 -0.13,-0.24 -0.13,-0.43 0.52,0.24 1.04,0.38 1.69,0.34 h 1.05 c -0.4,-0.24 -0.83,-0.53 -1.3,-0.87 -0.53,-0.33 -0.83,-0.76 -0.96,-1.38 0,-0.24 -0.14,-0.43 -0.22,-0.62 0.47,0 1,0 1.56,0 -0.43,-0.15 -0.82,-0.44 -1.21,-0.82 -0.44,-0.37 -0.78,-0.75 -1.09,-1.23 -0.34,-0.49 -0.51,-1.01 -0.51,-1.63 0,-0.57 0,-1.24 0,-1.86 v -0.68 0.68 c 0,0.62 0,1.29 0,1.86 0,0.62 0.17,1.14 0.51,1.63 0.35,0.1 0.65,0.13 0.92,0.24 0.56,0.24 1.08,0.42 1.6,0.66 0.56,0.24 1.13,0.48 1.65,0.71 0.52,0 0.91,-0.1 1.22,-0.32 0.12,-0.1 0.26,-0.24 0.34,-0.39 0.1,-0.14 0.13,-0.34 0.18,-0.57 -0.66,0.15 -1.22,0.1 -1.7,-0.19 -0.52,-0.29 -0.99,-0.58 -1.47,-0.82 -0.52,-0.33 -1.22,-0.57 -2.09,-0.8 0.88,0.23 1.57,0.47 2.09,0.8 0.48,0.24 0.95,0.53 1.47,0.82 0.48,0.24 1.04,0.34 1.7,0.19 0.21,-0.1 0.51,-0.15 0.73,-0.19 0.22,-0.1 0.48,-0.2 0.7,-0.34 0.17,-0.1 0.34,-0.19 0.43,-0.24 -0.48,-0.1 -0.91,-0.19 -1.35,-0.33 -0.51,-0.24 -1.03,-0.53 -1.56,-0.71 -0.61,-0.25 -1.25,-0.58 -1.99,-0.96 0.74,0.38 1.38,0.71 1.99,0.96 0.53,0.18 1.05,0.47 1.56,0.71 0.44,0.14 0.87,0.29 1.35,0.33 0,0 0.1,0 0.17,0.1 h 0.1 c 0.44,0 0.87,0 1.26,-0.1 0.17,-0.1 0.35,-0.1 0.52,-0.1 0.3,-0.1 1.09,-0.38 2.26,-0.91 l 0.87,-0.34 c -1.18,-0.28 -3.39,-0.99 -5.3,-1.81 -1.22,-0.52 -2.17,-0.95 -2.82,-1.34 0.65,0.39 1.6,0.82 2.82,1.34 1.91,0.82 3.35,1.29 4.52,1.57 0.38,0.12 0.52,0.2 0.78,0.24 -0.31,0.1 -0.61,0.24 -0.87,0.34 1.56,0.96 2.99,1.77 4.29,2.54 0.48,0.1 1,0.1 1.48,0 0.57,-0.15 1.13,-0.34 1.65,-0.54 0.43,-0.14 0.82,-0.42 1.17,-0.76 0.22,-0.19 0.39,-0.43 0.56,-0.67 h -1.08 c -0.91,-0.1 -1.82,-0.23 -2.73,-0.38 -0.87,-0.19 -1.7,-0.48 -2.52,-0.91 -0.78,-0.38 -1.52,-0.76 -2.35,-1.05 -0.78,-0.33 -1.55,-0.71 -2.34,-1.09 -0.82,-0.39 -1.61,-0.82 -2.47,-1.2 -0.78,-0.39 -1.57,-0.72 -2.3,-1 -0.18,-0.1 -0.35,-0.15 -0.44,-0.15 -1.91,-1 -2.99,-1.72 -3.34,-2.15 -0.22,-0.33 -0.44,-0.57 -0.6,-0.9 -0.23,0 -0.4,0 -0.66,-0.1 -0.17,-0.1 -0.3,-0.1 -0.47,-0.1 -0.35,0.43 -0.83,0.76 -1.39,0.91 -0.22,0 -0.39,0 -0.57,0 -0.1,0.62 -0.47,1 -1.08,1.24 -0.57,0.19 -1.13,0.38 -1.69,0.53 -0.57,0.14 -1.18,0.18 -1.78,0.18 -0.44,-0.1 -0.83,-0.1 -1.13,-0.1 0.3,0 0.69,0.1 1.13,0.1 0.6,0 1.21,-0.1 1.78,-0.18 0.56,-0.15 1.12,-0.34 1.69,-0.53 0.61,-0.24 1,-0.62 1.08,-1.24 -0.43,0.1 -0.82,0.1 -1.26,0.1 -0.61,0 -1.17,-0.1 -1.73,-0.23 l -1.69,-0.44 1.69,0.44 c 0.56,0.18 1.12,0.23 1.73,0.23 0.44,0 0.83,0 1.26,-0.1 0.18,0 0.35,0 0.57,0 0.56,-0.15 1.04,-0.48 1.39,-0.91 -0.66,-0.19 -1.3,-0.48 -1.91,-0.9 -0.44,-0.3 -0.74,-0.54 -0.92,-0.82 -0.95,0 -1.86,0 -2.73,-0.14 -0.17,-0.1 -0.31,-0.1 -0.48,-0.1 0.17,0 0.31,0 0.48,0.1 0.87,0.14 1.78,0.14 2.73,0.14 0.83,0.24 1.56,-0.1 2.13,-0.85 0.39,-0.53 0.61,-1.06 0.65,-1.54 0,-0.38 0,-0.72 -0.1,-1.1 -0.22,0 -0.44,0.1 -0.66,0.14 -0.91,0.1 -1.82,0.1 -2.69,-0.1 -0.52,0.24 -0.99,0.42 -1.6,0.62 -0.57,0.18 -1.13,0.18 -1.69,0.18 0.56,0 1.12,0 1.69,-0.18 0.61,-0.2 1.08,-0.38 1.6,-0.62 0.22,-0.15 0.44,-0.29 0.65,-0.39 0.79,-0.57 1.18,-1.38 1.13,-2.38 -0.26,0.1 -0.52,0.1 -0.82,0.1 -0.87,0 -1.69,-0.1 -2.39,-0.19 0.7,0.15 1.52,0.19 2.39,0.19 0.3,0 0.56,0 0.82,-0.1 0.26,-0.1 0.52,-0.15 0.78,-0.2 0.35,-0.13 0.61,-0.33 0.92,-0.52 0.73,-0.43 1.43,-0.96 2.17,-1.57 0.21,-0.14 0.39,-0.29 0.56,-0.48 0.39,-0.52 0.52,-1.05 0.39,-1.63 0.13,0.58 0,1.11 -0.39,1.63 1.17,0.14 1.91,0.19 2.13,0.19 0.78,0 1.56,0 2.34,-0.15 0.1,0 0.39,-0.14 0.96,-0.47 0.56,-0.28 1.25,-0.72 1.99,-1.2 0.1,0 0.1,-0.1 0.18,-0.14 0.34,-0.67 0.17,-1.05 -0.57,-1.19 -0.52,-0.1 -1,-0.15 -1.43,-0.19 -0.22,-0.1 -0.39,-0.1 -0.61,0 -0.65,0 -1,0 -1.17,-0.1 v 0 c -0.17,0 -0.39,-0.1 -0.56,-0.1 h -0.7 c -0.1,0.1 -0.21,0.1 -0.34,0.1 h -0.35 c -0.1,0 -0.18,0 -0.22,0.1 0,0 -0.13,0.1 -0.17,0.14 -0.44,0.38 -0.83,0.72 -1.26,1 -0.3,0.24 -0.61,0.44 -0.91,0.62 -0.83,0.48 -1.66,0.77 -2.48,0.81 -0.69,0 -1.43,0 -2.17,0.1 0.74,-0.1 1.48,-0.1 2.17,-0.1 0.82,-0.1 1.65,-0.33 2.48,-0.81 0.3,-0.18 0.61,-0.38 0.91,-0.62 0.43,-0.28 0.82,-0.62 1.26,-1 0,0 0.13,-0.1 0.17,-0.14 0,-0.1 0.13,-0.14 0.18,-0.24 0.47,-0.62 0.56,-1.29 0.34,-2.15 0,0.1 -0.1,0.1 -0.13,0.1 -0.74,0.57 -1.56,1.01 -2.43,1.24 -0.87,0.24 -1.74,0.34 -2.6,0.38 h -0.96 0.96 c 0.86,-0.1 1.73,-0.14 2.6,-0.38 0.87,-0.23 1.69,-0.67 2.43,-1.24 0,0 0.1,0 0.13,-0.1 0.48,-0.43 1.13,-0.86 1.95,-1.34 -0.82,0.48 -1.47,0.91 -1.95,1.34 0.22,0.86 0.13,1.53 -0.34,2.15 v 0.19 h 0.35 c 0.12,0 0.25,0 0.34,0 h 0.7 c 0.17,0 0.39,0 0.6,0 0.61,-0.1 1.22,-0.15 1.83,-0.15 0.56,0 1.08,-0.24 1.6,-0.52 0.48,-0.34 0.91,-0.62 1.35,-0.91 0.22,-0.18 0.39,-0.38 0.64,-0.52 0,-0.1 0.1,-0.15 0.18,-0.15 0.82,-0.82 0.78,-1.29 -0.13,-1.44 -0.91,-0.13 -1.74,-0.13 -2.51,-0.13 -0.83,0.1 -1.52,0.1 -2.08,0 h -0.44 c 0.44,-0.29 1,-0.72 1.78,-1.39 -3.26,-0.43 -5.34,-0.43 -6.29,0 0.95,-0.38 3.03,-0.38 6.29,0 0,-0.29 2.34,-0.47 7.07,-0.62 h 0.74 c 0.35,-0.1 0.65,-0.1 1.05,-0.1 0.17,0 0.38,0 0.55,0 0.87,-0.1 1.74,-0.25 2.65,-0.44 0.78,-0.18 1.53,-0.47 2.17,-0.95 0.57,-0.43 1,-1.01 1.31,-1.82 h -0.96 -2.74 c -0.9,0 -1.82,0 -2.69,0.1 -0.86,0 -1.73,0.1 -2.56,0.14 -0.82,0 -1.64,0.1 -2.51,0.19 -0.83,0.1 -1.65,0.2 -2.48,0.34 h -0.1 c -0.87,0.1 -1.74,0.24 -2.56,0.34 -0.91,0.14 -1.78,0.28 -2.69,0.38 -0.83,0.1 -1.61,0.28 -2.47,0.43" />
      <path d="m 313.32,28.18 c -0.13,0 -0.17,0 -0.26,-0.1 -0.3,-0.1 -0.47,-0.33 -0.47,-0.62 -3.78,-0.33 -6.77,0.82 -9.03,3.44 3.69,-0.33 6.69,0.29 8.89,1.72 -0.99,0.19 -6.8,0.55 -8.05,0.69 0.17,0.29 5.02,0.5 5.1,0.89 1.56,0.15 3.04,0.15 4.39,-0.1 0.26,-1.53 0.1,-2.72 -0.61,-3.49 -0.1,-0.14 -0.13,-0.19 -0.22,-0.28 -0.17,-0.29 -0.26,-0.58 -0.26,-0.86 -0.1,-0.43 0.13,-0.91 0.53,-1.39" />
    </g>
    <use xlink:href="#crow" transform="translate(72,0)" />
    <use xlink:href="#crow" transform="translate(0,75)" />
    <use xlink:href="#crow" transform="translate(0,150)" />
    <use xlink:href="#crow" transform="translate(0,225)" />
    <use xlink:href="#crow" transform="translate(72,225)" />
  </g>
  <use xlink:href="#crows" transform="translate(900)scale(-1,1)" />
</g>
<g id="paege" transform="translate(175,440)scale(0.4)translate(-300,-300)" style="stroke-width:2;stroke-linecap:round;stroke-linejoin:round;">
  <g>
    <path style="fill:#ff0000;stroke:#800000;" d="m 158.25,34.595703 c -10.42223,3.822215 -20.84503,8.843568 -30.76562,15.492188 -7.94706,5.301994 -15.44998,11.973356 -21.92579,20.109375 -10.781686,13.838333 -16.533226,30.799524 -16.468746,48.244144 0.33175,15.93433 4.713809,30.7053 11.568356,43.32812 6.02268,11.56617 14.29424,22.27443 24.75196,31.17774 10.92905,9.12226 22.44864,16.44861 33.70507,22.66211 13.83826,7.70231 27.97304,14.25632 42.06055,19.9414 6.24039,2.53217 12.51249,4.9145 18.81055,7.15234 0.9351,-1.40555 2.71417,-2.80981 4.76758,-3.8496 3.30958,-1.6759 7.16721,-2.32511 8.94726,-0.83008 -0.32492,-2.08637 2.50371,-4.46233 5.94336,-5.84375 3.43973,-1.38151 7.34117,-1.70765 8.99805,-0.0762 -0.10406,-1.38571 1.17115,-2.79379 3.08008,-3.91016 3.88795,-2.29602 10.18142,-3.25954 12.26367,-0.91992 -0.0169,-2.10758 3.12231,-4.05066 6.70508,-4.94922 3.58392,-0.89886 7.4891,-0.72008 8.91992,1.10742 0.11588,-2.10414 3.37247,-3.84395 7.0039,-4.51562 3.63264,-0.67189 7.51986,-0.25189 8.83594,1.66015 0.0934,-0.7983 0.64053,-1.51767 1.49024,-2.12695 0.79438,-0.57048 1.8642,-1.05101 3.05859,-1.42969 -4.10727,-1.30229 -9.76942,-1.32995 -11.48438,0.94141 -0.16604,-2.08614 -3.43905,-3.77096 -6.97851,-4.53906 -3.53882,-0.76798 -7.43879,-0.63936 -8.91602,1.13085 -0.0638,-2.09224 -3.25096,-3.93632 -6.7539,-4.87109 -3.50237,-0.93462 -7.40582,-0.98433 -8.96289,0.71875 0.0313,-2.09439 -3.07232,-4.08031 -6.53516,-5.16797 -3.46237,-1.08751 -7.36222,-1.30174 -8.99023,0.33594 0.1194,-2.09257 -2.89922,-4.20489 -6.31836,-5.43164 -3.41881,-1.22662 -7.30995,-1.59353 -9,-0.0195 0.23771,-2.47584 -3.95014,-5.16296 -8.05664,-6.33399 -2.8028,-0.80592 -5.61628,-0.917 -7.03516,0.30664 0.27888,-2.07796 -2.56658,-4.41604 -5.87305,-5.9082 -3.30337,-1.49077 -7.14881,-2.17644 -8.96289,-0.75391 0.37417,-2.06077 -2.35979,-4.5244 -5.58203,-6.17578 -3.21888,-1.64967 -7.02174,-2.53996 -8.91211,-1.2207 0.22593,-0.94377 -0.21034,-2.00805 -1.04687,-3.05859 -2.74908,-3.47532 -10.0443,-6.9923 -13.00586,-5.17969 0.6062,-2.00921 -1.81944,-4.78361 -4.74805,-6.85742 -2.91321,-2.0629 -6.50534,-3.57187 -8.57422,-2.61914 0.38117,-0.88585 0.14655,-2.00398 -0.45703,-3.18555 -0.98253,-1.86669 -3.01919,-4.18915 -4.97266,-5.90234 -2.00317,-1.75678 -4.22622,-3.14743 -5.99804,-2.89258 1.54874,-3.08231 -3.17852,-13.95554 -7.98828,-14.45899 1.64664,-1.31365 1.29088,-5.00977 0.44336,-8.36914 -0.82695,-3.27784 -2.25327,-6.91453 -4.24219,-7.81836 0.71321,-0.24217 1.29023,-0.86181 1.77148,-1.68359 0.95982,-1.75633 1.66586,-4.99611 2.02149,-7.66602 0.36716,-2.75644 0.46617,-5.65815 -0.69532,-7.13086 2.06891,0.32242 4.72004,-2.53059 6.83399,-5.275386 1.9478,-2.65961 3.87993,-5.851603 3.33398,-8.001953 1.77351,1.16771 5.42849,-0.43453 8.41602,-2.625 2.71785,-1.972263 5.23751,-4.559883 5.16601,-6.742188 1.43545,1.487028 5.05094,0.785159 8.31055,-0.652344 3.28105,-1.446956 6.42843,-3.753094 6.6543,-6.046875 z m 221.76172,208.107417 c -25.29247,8.98711 -51.02224,15.55266 -76.97852,19.23633 -1.01517,0.14375 -2.02296,0.30604 -3.0332,0.46289 11.81773,1.83498 23.29621,4.55459 34.26758,8.18946 12.19874,4.11163 23.37496,8.95122 32.88281,15.26367 8.58636,5.94238 15.7587,12.07424 18.43945,17.09765 2.68076,5.02342 3.95704,8.35479 4.52344,11.5918 0.70208,3.51086 0.61015,7.47445 -0.0137,11.48047 -1.27147,7.07294 -3.54037,13.5477 -7.04492,18.44531 -3.41637,5.25356 -8.89053,9.81327 -15.03907,13.65821 -7.93909,4.94068 -17.64953,8.31341 -27.80078,11.13867 -13.59147,3.68632 -27.98921,5.76216 -42.17578,7.26758 -12.3392,1.23191 -24.45703,3.83636 -36.06836,7.91796 -10.74144,3.71734 -21.14873,9.03332 -30.62695,16.17774 -8.75587,6.49509 -16.34009,15.15589 -21.75391,25.67187 -5.38892,11.01607 -7.23065,22.90484 -5.92187,34.27539 0.69895,6.27151 2.31623,12.56338 4.89844,18.65821 2.43332,5.62203 5.63122,10.70961 9.40234,15.16797 7.9596,9.05697 16.9303,15.10372 25.26758,19.16015 9.31196,4.68658 18.48078,8.05892 26.19922,10.88867 0.28065,0.10554 0.52731,0.19864 0.80468,0.30274 2.00262,-1.5267 4.16111,-2.3643 5.72461,-1.78516 -1.0181,-1.85469 0.84945,-5.0463 3.71485,-7.45703 2.86506,-2.41045 6.50855,-3.85427 8.55859,-2.74805 -0.67062,-1.77639 1.11563,-4.30696 3.79102,-6.25781 1.93156,-1.40072 4.23129,-2.41638 6.23242,-2.73242 0.0185,-1.95727 -2.44168,-4.27131 -5.48633,-5.80273 -3.2978,-1.65875 -7.15351,-2.34255 -8.96289,-0.89258 -0.36201,-5.46093 -11.67679,-9.16829 -14.69922,-6.875 0.14828,-4.34407 -9.78116,-10.50193 -14.26367,-8.06055 0.76053,-3.55586 -6.83596,-11.95794 -11.87109,-11.80664 2.30968,-3.44657 0.82954,-14.3338 -3.88086,-16.38672 4.2357,-1.51159 7.88168,-11.37147 6.3164,-15.67773 4.9514,1.33179 13.07531,-5.60026 12.93164,-10.47656 4.53145,2.2192 15.30527,-2.42239 15.0918,-6.64649 3.94234,3.37411 14.456,0.2625 15.91406,-3.98437 1.24389,2.63525 8.19025,2.55407 12.56836,0.95507 1.78594,-0.64278 3.17112,-1.60047 3.64258,-2.82421 0.72748,1.97483 4.34773,2.69141 8.00977,2.30468 3.66543,-0.38709 7.28345,-1.87249 8.01953,-4.07422 0.81446,1.94143 4.46335,2.49015 8.10547,1.91797 3.6458,-0.57276 7.17556,-2.25198 7.78906,-4.49219 1.43002,2.94714 9.32161,2.08901 13.39844,-0.67382 1.22594,-0.82219 2.07605,-1.80283 2.28711,-2.85742 1.04863,1.83152 4.74538,1.92511 8.29882,0.83203 3.55838,-1.09461 6.77738,-3.32224 7.00196,-5.63868 1.22656,1.71868 4.91309,1.4342 8.33203,-0.0371 3.42419,-1.47356 6.36927,-4.04889 6.32617,-6.37695 1.26706,1.40464 4.32281,0.982 7.2793,-0.49414 3.68001,-1.8374 6.81326,-5.19893 6.35546,-7.73828 1.6461,1.33052 5.12159,0.0478 7.98047,-2.40625 2.8616,-2.45641 4.82248,-5.84912 4.00391,-8.02734 2.87439,1.56356 8.47731,-3.57937 9.99805,-8.36914 0.47746,-1.60198 0.48253,-3.06353 -0.13282,-4.06836 2.01018,0.64606 4.75625,-1.82683 6.49024,-5.17383 1.73548,-3.34986 2.28155,-7.24154 0.71289,-8.98047 2.0945,0.26482 4.3449,-2.66727 5.44531,-6.27148 1.10167,-3.60839 0.93683,-7.53471 -0.92187,-8.95899 5.11672,-1.8067 6.18999,-13.38277 1.66797,-15.75586 1.54642,-0.41688 2.51624,-2.57194 2.72265,-5.27344 0.20785,-2.72041 -0.37402,-5.77631 -1.58203,-7.93945 -0.77855,-1.32701 -1.72787,-2.28608 -2.73047,-2.57617 1.85522,-0.95204 1.80809,-4.52262 0.51172,-8.06055 -1.28272,-3.50064 -3.645,-6.73083 -5.18945,-7.1582 1.62111,-3.66085 -4.00691,-13.23395 -8.19141,-13.45703 0.60105,-1.21374 -0.99654,-4.54758 -3.39648,-7.39453 -2.42025,-2.87105 -5.49691,-5.0057 -7.34961,-4.42578 0.62214,-1.57545 -1.36781,-4.7433 -4.17578,-7.16797 -2.82879,-2.44265 -6.3302,-3.95479 -8.33399,-2.86329 0.47196,-1.4177 -0.71753,-3.41776 -2.67187,-5.16015 -3.29542,-2.94008 -8.57613,-4.95404 -10.97266,-3.2793 0.19306,-0.77775 -0.0672,-1.63859 -0.63867,-2.49805 z m -50.25391,282.05274 c -8.43423,3.16523 -15.40076,5.7026 -21.70898,8.96875 -2.83621,1.46817 -5.51215,2.98534 -8.04883,4.55273 4.76262,2.94289 9.01038,6.0728 12.73633,9.45899 6.08566,5.62495 10.59069,11.17662 13.28711,17.02539 3.32587,6.79643 4.19317,14.26912 3.65625,20.59961 -1.05145,14.74531 -7.76599,25.56461 -8.96094,31.10351 0.69436,0.7136 3.19454,0.67495 5.88086,-0.61328 2.78032,-1.32712 5.22561,-3.74996 6.17773,-6.11718 0.43094,-1.07124 0.52973,-2.07842 0.22657,-2.9043 1.85044,1.04869 5.05616,-0.83535 7.32226,-3.94336 2.26497,-3.10646 3.21875,-6.93294 1.79883,-8.79297 1.66224,0.35885 3.63839,-1.33109 5.0293,-3.93555 2.06353,-3.9917 2.20867,-9.2913 -0.13282,-10.91406 2.1087,-0.2075 3.64162,-3.59391 3.69922,-7.44336 0.0576,-3.85212 -1.38,-7.52817 -3.61914,-8.2207 1.61369,-0.69219 2.22844,-3.36387 1.74219,-6.41406 -0.72482,-4.29349 -3.47689,-8.55805 -6.23828,-8.65235 1.65369,-1.32104 1.11197,-4.98193 -0.7832,-8.27148 -1.89486,-3.289 -4.91778,-5.81123 -7.22071,-5.38086 1.09191,-1.36082 0.39139,-3.97183 -1.34179,-6.44531 -0.96184,-1.39142 -2.20049,-2.66775 -3.50196,-3.66016 z"/>
    <path style="fill:none;stroke:#800000;" d="m 169.81445,65.650391 c -8.64085,3.248981 -16.69386,7.059606 -23.73633,11.86914 -5.63441,3.861286 -10.62269,8.195345 -14.42773,13.115235 -6.17753,7.83301 -9.55233,17.877484 -9.41211,27.476564 -0.0114,9.52729 3.113,19.26045 7.70899,28.11914 4.46013,8.32767 10.07369,15.72397 16.78711,21.32422 8.59973,7.28286 18.44216,13.43665 28.48828,19.07422 10.45452,5.83867 21.21073,10.96289 27.65906,13.70403 6.44834,2.74115 8.56155,3.62595 10.67492,4.48344 18.6701,7.55198 37.12755,13.59858 55.33789,18.07421 m 96.5332,24.70511 c 6.81523,3.17609 13.38795,6.78087 19.64844,10.89649 11.84056,7.66355 22.38486,17.65838 29.6543,30.23633 3.53332,6.24404 5.99535,13.02456 7.25,20.0371 1.3392,7.72362 1.19099,15.4051 -0.0918,22.64649 -1.91422,11.22574 -6.0969,21.9529 -12.53125,31.25195 -6.90486,9.74528 -15.79044,17.22813 -25.11719,22.65625 -11.86221,6.91018 -24.39306,11.21205 -36.16406,14.13477 -16.27214,4.08493 -32.43148,6.14169 -47.20117,7.37109 -10.41794,0.88221 -20.2197,2.78328 -29.06641,5.72266 -2.17611,0.72302 -4.28365,1.49075 -6.32421,2.30664 -6.25509,2.50101 -11.86495,5.464 -16.77149,9.05469 -6.04243,4.46661 -10.95077,9.56792 -13.9043,15.28125 -3.10878,5.77753 -4.28433,12.45751 -3.77148,18.62695 0.34923,4.00267 1.15029,7.76912 2.48437,11.15234 1.2297,3.17309 2.94778,6.12018 4.98047,8.72657 4.27304,5.63056 10.62459,10.00937 16.84375,13.63671 7.34619,4.21634 15.9876,7.89491 23.26172,11.125 4.16886,1.8363 8.06828,3.59037 11.81446,5.40625 m 30.42046,106.57576 c 3.88673,-2.15494 7.02085,-4.19229 9.9018,-7.73201 2.73618,-3.36184 7.40961,-9.62107 9.95898,-17.26757 2.54938,-7.6465 4.25295,-18.04495 0.77735,-29.89258 -2.41449,-8.0986 -7.0455,-16.77499 -14.59961,-25.19336 -1.86608,-2.0907 -3.90649,-4.15786 -6.08789,-6.19531"/>
    <g>
      <path style="fill:#ffffff;stroke:#666666;" d="m 260.73836,63.444589 c -1.42614,6.715799 -3.92905,13.851904 -12.60019,15.621855 4.38276,-3.348402 7.61867,-10.240612 4.39945,-17.366829"/>
      <path style="fill:#cccccc;stroke:#666666;" d="m 260.43436,97.960074 c 5.62274,1.77096 13.26712,0.411753 18.21213,-3.157097 2.53205,-2.68485 3.08869,-6.445003 2.65333,-9.847819 2.984,2.614695 2.15194,7.772956 1.13235,10.170554 2.28913,0.973148 5.47413,1.638685 9.5314,0.627549 -2.20682,3.955656 -9.19386,3.307975 -11.84336,2.06052 -5.91288,4.037809 -14.02373,5.537749 -20.71494,3.430229 -12.75861,-4.018521 -23.35383,-17.148589 -44.07878,-18.123167 -4.87872,-0.229283 -10.2655,0.714971 -15.53782,1.086232 -2.29352,0.163599 -2.53524,-3.278183 -0.24131,-3.436607 5.01395,-0.35308 5.78968,-3.351394 24.279,-0.693832 13.63777,1.960215 25.50454,14.386206 36.60801,17.883438 z"/>
      <path style="fill:#ff0000;stroke:#800000;" d="m 148.90292,60.068509 c 20.26507,6.357547 10.09455,16.889573 37.87642,23.600525 15.60201,3.768804 27.4893,15.033106 35.31105,21.678786 1.99232,1.69274 11.13004,3.25353 6.51968,-1.30288 -6.63862,-6.560984 -13.41456,-13.817753 -18.73612,-20.681406 -1.65287,-2.131811 2.45614,-20.647545 5.88771,-21.692474 6.60729,-2.011961 15.41071,-0.312231 22.81939,1.459867 2.60322,0.622639 6.02529,0.47059 15.38743,2.506358 4.73346,1.029318 6.45794,1.687115 9.12224,0.951097 0.98694,-0.272551 4.40901,-1.277149 5.43276,-2.942536 2.12817,-3.461975 5.64554,-9.09206 5.47752,-11.041055 -0.31483,-3.65338 -1.84895,-4.637553 -5.22461,-6.069809 -6.43483,-2.73022 -11.32129,-2.595475 -18.20943,-5.301463 -8.79388,-3.45466 -14.72715,-7.63395 -19.89972,-11.985942 -2.08199,-1.751737 -5.13979,-2.086539 -9.3933,-3.5722 -2.00582,-0.700564 -4.68484,-1.321836 -6.71668,-1.015689 -2.56337,0.386223 -3.27392,1.233959 -8.70704,1.43772 -15.41243,0.578113 -15.60065,-5.437023 -30.57954,2.535499 -12.98995,6.913901 -18.93376,1.153624 -38.0094,15.494061"/>
      <path style="fill:#800000;stroke:none;" d="m 263.11752,54.398485 c -1.48098,-0.451922 -2.63151,-1.261768 -4.27335,-0.906442 -2.28016,0.493453 -2.35961,-3.039262 -0.0885,-2.956944 1.33048,0.04813 3.08674,0.630929 4.46263,0.904165 1.3759,0.2732 1.7225,3.515639 -0.10082,2.959221 z"/>
      <g>
        <path style="fill:#ffffff;stroke:#800000;" d="m 215.01226,33.841278 c -1.29542,2.119945 -0.55593,7.436363 2.99347,9.723873 3.60542,2.215203 8.79169,0.449196 10.15951,-1.614674 1.27931,-2.248131 -1.95562,-3.597807 -5.56104,-5.813024 -3.66147,-2.142855 -6.2404,-4.488337 -7.59194,-2.296175 z"/>
        <path style="fill:#800000;stroke:none;" d="m 219.49958,38.368278 a 3.3197061,3.4651148 37.770562 0 0 0.4739,4.763549 3.3197061,3.4651148 37.770562 0 0 4.73098,-0.730523 3.3197061,3.4651148 37.770562 0 0 -0.47388,-4.763525 3.3197061,3.4651148 37.770562 0 0 -4.731,0.730499 z"/>
        <path style="fill:#000000;stroke:none;" d="m 223.18258,39.139595 c 0.6506,0.504118 0.90911,1.514295 0.29295,2.309471 -0.61617,0.795182 -1.65886,0.797098 -2.30948,0.292959 -0.79517,-0.616167 -1.05369,-1.626304 -0.43753,-2.421493 0.61618,-0.795182 1.65887,-0.797101 2.45406,-0.180947 z"/>
        <path style="fill:#ffffff;stroke:none;" d="m 222.66746,38.161983 c 0.4337,0.33616 0.53138,1.105917 0.13929,1.611938 -0.44801,0.578385 -1.16193,0.603704 -1.59567,0.267598 -0.57838,-0.448008 -0.73199,-1.14564 -0.28388,-1.723973 0.39212,-0.506016 1.16193,-0.60367 1.74026,-0.15556 z"/>
      </g>
    </g>
  </g>
  <g>
    <path style="fill:#ffffff;stroke:#666666;" d="m 441.75,34.595703 -14.61133,39.269531 c 0.22587,2.293781 3.37325,4.599919 6.6543,6.046875 3.25961,1.437503 6.8751,2.139372 8.31055,0.652344 -0.0715,2.182305 2.44816,4.769925 5.16601,6.742188 2.98753,2.19047 6.64251,3.79271 8.41602,2.625 -0.54595,2.15035 1.38618,5.342343 3.33398,8.001953 2.11395,2.744796 4.76508,5.597806 6.83399,5.275386 -1.16149,1.47271 -1.06248,4.37442 -0.69532,7.13086 0.35563,2.66991 1.06167,5.90969 2.02149,7.66602 0.48125,0.82178 1.05827,1.44142 1.77148,1.68359 -1.98892,0.90383 -3.41524,4.54052 -4.24219,7.81836 -0.84752,3.35937 -1.20328,7.05549 0.44336,8.36914 -4.80976,0.50345 -9.53702,11.37668 -7.98828,14.45899 -1.77182,-0.25485 -3.99487,1.1358 -5.99804,2.89258 -1.95347,1.71319 -3.99013,4.03565 -4.97266,5.90234 -0.60358,1.18157 -0.8382,2.2997 -0.45703,3.18555 -2.06888,-0.95273 -5.66101,0.55624 -8.57422,2.61914 -2.92861,2.07381 -5.35425,4.84821 -4.74805,6.85742 -2.96156,-1.81261 -10.25678,1.70437 -13.00586,5.17969 -0.83653,1.05054 -1.2728,2.11482 -1.04687,3.05859 -1.89037,-1.31926 -5.69323,-0.42897 -8.91211,1.2207 -3.22224,1.65138 -5.9562,4.11501 -5.58203,6.17578 -1.81408,-1.42253 -5.65952,-0.73686 -8.96289,0.75391 -3.30647,1.49216 -6.15193,3.83024 -5.87305,5.9082 -1.41888,-1.22364 -4.23236,-1.11256 -7.03516,-0.30664 -4.1065,1.17103 -8.29435,3.85815 -8.05664,6.33399 -1.69005,-1.574 -5.58119,-1.20709 -9,0.0195 -3.41914,1.22675 -6.43776,3.33907 -6.31836,5.43164 -1.62801,-1.63768 -5.52786,-1.42345 -8.99023,-0.33594 -3.46284,1.08766 -6.56646,3.07358 -6.53516,5.16797 -1.55707,-1.70308 -5.46052,-1.65337 -8.96289,-0.71875 -3.50294,0.93477 -6.6901,2.77885 -6.7539,4.87109 -1.47723,-1.77021 -5.3772,-1.89883 -8.91602,-1.13085 -3.53946,0.7681 -6.81247,2.45292 -6.97851,4.53906 -2.21355,-2.93171 -11.01694,-2.04392 -14.54297,0.48828 -0.84971,0.60928 -1.39684,1.32865 -1.49024,2.12695 -1.31608,-1.91204 -5.2033,-2.33204 -8.83594,-1.66015 -3.63143,0.67167 -6.88802,2.41148 -7.0039,4.51562 -1.43082,-1.8275 -5.336,-2.00628 -8.91992,-1.10742 -3.58277,0.89856 -6.72198,2.84164 -6.70508,4.94922 -2.08225,-2.33962 -8.37572,-1.3761 -12.26367,0.91992 -1.90893,1.11637 -3.18414,2.52445 -3.08008,3.91016 -1.65688,-1.63148 -5.55832,-1.30531 -8.99805,0.0762 -3.43965,1.38142 -6.26828,3.75738 -5.94336,5.84375 -1.78005,-1.49503 -5.63768,-0.84582 -8.94726,0.83008 -3.30956,1.67588 -5.91317,4.29759 -5.4043,6.34765 -2.39653,-1.67474 -7.67724,0.33922 -10.97266,3.2793 -1.95434,1.74239 -3.14383,3.74245 -2.67187,5.16015 -2.00379,-1.0915 -5.5052,0.42064 -8.33399,2.86329 -2.80797,2.42467 -4.79792,5.59252 -4.17578,7.16797 -1.8527,-0.57992 -4.92936,1.55473 -7.34961,4.42578 -2.39994,2.84695 -3.99753,6.18079 -3.39648,7.39453 -4.1845,0.22308 -9.81252,9.79618 -8.19141,13.45703 -1.54445,0.42737 -3.90673,3.65756 -5.18945,7.1582 -1.29637,3.53793 -1.3435,7.10851 0.51172,8.06055 -1.0026,0.29009 -1.95192,1.24916 -2.73047,2.57617 -1.20801,2.16314 -1.78988,5.21904 -1.58203,7.93945 0.20641,2.7015 1.17623,4.85656 2.72265,5.27344 -4.52202,2.37309 -3.44875,13.94916 1.66797,15.75586 -1.8587,1.42428 -2.02354,5.3506 -0.92187,8.95899 1.10041,3.60421 3.35081,6.5363 5.44531,6.27148 -1.56866,1.73893 -1.02259,5.63061 0.71289,8.98047 1.73399,3.347 4.48006,5.81989 6.49024,5.17383 -0.61535,1.00483 -0.61028,2.46638 -0.13282,4.06836 1.52074,4.78977 7.12366,9.9327 9.99805,8.36914 -0.81857,2.17822 1.14231,5.57093 4.00391,8.02734 2.85888,2.45406 6.33437,3.73677 7.98047,2.40625 -0.4578,2.53935 2.67545,5.90088 6.35546,7.73828 2.95649,1.47614 6.01224,1.89878 7.2793,0.49414 -0.0431,2.32806 2.90198,4.90339 6.32617,6.37695 1.44662,0.62254 2.93199,1.01453 4.26758,1.1504 1.26583,-1.07898 2.55808,-2.11643 3.88086,-3.09766 9.47822,-7.14442 19.88551,-12.4604 30.62695,-16.17774 11.61133,-4.08161 23.72916,-6.68605 36.06836,-7.91796 0.65268,-0.0693 1.30747,-0.14697 1.96094,-0.21875 -13.55036,-1.48846 -27.24867,-3.53211 -40.21484,-7.04883 -10.15125,-2.82526 -19.86169,-6.19799 -27.80078,-11.13867 -6.14854,-3.84494 -11.6227,-8.40465 -15.03907,-13.65821 -3.50455,-4.89761 -5.77345,-11.37237 -7.04492,-18.44531 -0.62382,-4.00602 -0.71575,-7.96961 -0.0137,-11.48047 0.5664,-3.23701 1.84268,-6.56838 4.52344,-11.5918 2.68075,-5.02341 9.85309,-11.15527 18.43945,-17.09765 9.50785,-6.31245 20.68407,-11.15204 32.88281,-15.26367 11.90926,-3.9456 24.4103,-6.82711 37.30078,-8.65235 32.42028,-4.60104 64.48925,-13.6873 95.79102,-26.38867 14.08751,-5.68508 28.22229,-12.23909 42.06055,-19.9414 11.25643,-6.2135 22.77602,-13.53985 33.70507,-22.66211 10.45772,-8.90331 18.72928,-19.61157 24.75196,-31.17774 6.85455,-12.62282 11.23661,-27.39379 11.56836,-43.32812 0.0645,-17.44462 -5.68706,-34.405811 -16.46875,-48.244144 -6.47581,-8.136019 -13.97872,-14.807381 -21.92579,-20.109375 -9.92059,-6.64862 -20.34339,-11.669973 -30.76562,-15.492188 z m -73.27734,368.019527 c -0.22458,2.31644 -3.44358,4.54407 -7.00196,5.63868 -3.55344,1.09308 -7.25019,0.99949 -8.29882,-0.83203 -0.21105,1.05458 -1.06117,2.03523 -2.28711,2.85742 -4.07683,2.76283 -11.96842,3.62096 -13.39844,0.67382 -0.6135,2.2402 -4.14326,3.91943 -7.78906,4.49219 -3.64212,0.57218 -7.29101,0.0235 -8.10547,-1.91797 -0.73608,2.20173 -4.3541,3.68713 -8.01953,4.07422 -0.90946,0.096 -1.81512,0.12247 -2.67579,0.0801 2.0883,3.97329 11.88621,6.70376 15.66602,3.46875 -0.21347,4.2241 10.56035,8.86569 15.0918,6.64649 -0.14367,4.8763 7.98024,11.80835 12.93164,10.47656 -1.56528,4.30626 2.0807,14.16614 6.3164,15.67773 -4.7104,2.05292 -6.19054,12.94015 -3.88086,16.38672 -5.03513,-0.1513 -12.63162,8.25078 -11.87109,11.80664 -4.48251,-2.44138 -14.41195,3.71648 -14.26367,8.06055 -3.02243,-2.29329 -14.33721,1.41407 -14.69922,6.875 -1.80938,-1.44997 -5.66509,-0.76617 -8.96289,0.89258 -3.30788,1.66382 -5.93404,4.25255 -5.43164,6.30273 -2.09613,-1.47614 -6.47633,-0.15148 -9.76367,2.23242 -2.67539,1.95085 -4.46164,4.48141 -3.79102,6.25781 -2.05004,-1.10622 -5.69353,0.3376 -8.55859,2.74805 -2.8654,2.41073 -4.73295,5.60234 -3.71485,7.45703 -2.57972,-0.95556 -6.78307,1.91334 -9.22461,5.44532 -1.73318,2.47348 -2.4337,5.08449 -1.34179,6.44531 -2.30293,-0.43037 -5.32585,2.09186 -7.22071,5.38086 -1.89517,3.28955 -2.43689,6.95044 -0.7832,8.27148 -2.76139,0.0943 -5.51346,4.35886 -6.23828,8.65235 -0.48625,3.05019 0.1285,5.72187 1.74219,6.41406 -2.23914,0.69253 -3.67674,4.36858 -3.61914,8.2207 0.0576,3.84945 1.59052,7.23586 3.69922,7.44336 -2.34149,1.62276 -2.19635,6.92236 -0.13282,10.91406 1.39091,2.60446 3.36706,4.2944 5.0293,3.93555 -1.41992,1.86003 -0.46614,5.68651 1.79883,8.79297 2.2661,3.10801 5.47182,4.99205 7.32226,3.94336 -0.30316,0.82588 -0.20437,1.83306 0.22657,2.9043 0.95212,2.36722 3.39741,4.79006 6.17773,6.11718 2.68632,1.28823 5.1865,1.32688 5.88086,0.61328 -1.19495,-5.5389 -7.90949,-16.3582 -8.96094,-31.10351 -0.53692,-6.33049 0.33038,-13.80318 3.65625,-20.59961 2.69642,-5.84877 7.20145,-11.40044 13.28711,-17.02539 5.71043,-5.18971 12.62387,-9.787 20.78516,-14.01172 6.51612,-3.37379 13.70033,-5.95681 22.51562,-9.27149 7.71844,-2.82975 16.88726,-6.20209 26.19922,-10.88867 8.33728,-4.05643 17.30798,-10.10318 25.26758,-19.16015 3.77112,-4.45836 6.96902,-9.54594 9.40234,-15.16797 2.58221,-6.09483 4.19949,-12.3867 4.89844,-18.65821 1.30878,-11.37055 -0.53295,-23.25932 -5.92187,-34.27539 -4.59594,-8.92729 -10.75994,-16.51111 -17.87305,-22.57421 -1.82096,0.18524 -3.35687,-0.12181 -4.06445,-1.11329 z m -62.91016,12.68165 c -0.47146,1.22374 -1.85664,2.18143 -3.64258,2.82421 -0.59754,0.21824 -1.24772,0.40191 -1.91992,0.56055 3.94362,0.93069 8.80624,0.78993 10.34961,-1.05078 -2.35428,-0.20574 -4.27977,-0.95675 -4.78711,-2.33398 z"/>
    <path style="fill:none;stroke:#666666;" d="m 430.18555,65.650391 c 8.64085,3.248981 16.69386,7.059606 23.73633,11.86914 5.6344,3.861286 10.62269,8.195345 14.42773,13.115235 6.17753,7.83301 9.55233,17.877484 9.41211,27.476564 0.0114,9.52729 -3.113,19.26045 -7.70899,28.11914 -4.46013,8.32767 -10.07369,15.72397 -16.78711,21.32422 -8.59973,7.28286 -18.44216,13.43665 -28.48828,19.07422 -10.45452,5.83867 -21.21073,10.96289 -31.99414,15.54687 -2.11326,0.89834 -4.22647,1.78314 -6.33984,2.64063 -29.92232,12.10346 -59.29835,20.34234 -87.98828,24.43945 -14.94298,2.13509 -29.34768,5.54039 -43.03906,10.11523 -14.37099,4.76628 -28.04683,10.93958 -40.49219,19.1211 -11.84056,7.66355 -22.38486,17.65838 -29.6543,30.23633 -3.53332,6.24404 -5.99535,13.02456 -7.25,20.0371 -1.3392,7.72362 -1.19099,15.4051 0.0918,22.64649 1.91422,11.22574 6.0969,21.9529 12.53125,31.25195 6.90486,9.74528 15.79044,17.22813 25.11719,22.65625 7.48473,4.36014 15.23602,7.6779 22.89453,10.26953 m 94.7539,18.8418 c 6.33974,2.6403 13.01894,5.92112 17.87891,9.47852 6.06331,4.43822 10.95077,9.56792 13.9043,15.28125 3.10878,5.77753 4.28433,12.45751 3.77148,18.62695 -0.34923,4.00267 -1.15029,7.76912 -2.48437,11.15234 -1.2297,3.17309 -2.94778,6.12018 -4.98047,8.72657 -4.27304,5.63056 -10.62459,10.00937 -16.84375,13.63671 -7.34619,4.21634 -15.9876,7.89491 -23.26172,11.125 -4.40048,1.93832 -8.50555,3.78435 -12.44141,5.70899 -4.15524,2.03191 -8.12169,4.15153 -12.03515,6.5625 -9.79269,6.04573 -17.6341,12.72041 -23.79688,19.625 -7.55411,8.41837 -12.18512,17.09476 -14.59961,25.19336 -3.4756,11.84763 -1.77203,22.24608 0.77735,29.89258 2.54937,7.6465 7.2228,13.90573 9.95898,17.26757 2.88095,3.53972 6.13866,7.60092 10.02539,9.75586"/>
    <g>
      <path style="fill:#cccccc;stroke:#666666;" d="m 339.26164,63.444589 c 1.42614,6.715799 3.92905,13.851904 12.60019,15.621855 -4.38276,-3.348402 -7.61867,-10.240612 -4.39945,-17.366829"/>
      <path style="fill:#ff0000;stroke:#800000;" d="m 339.56564,97.960074 c -5.62274,1.77096 -13.26712,0.411753 -18.21213,-3.157097 -2.53205,-2.68485 -3.08869,-6.445003 -2.65333,-9.847819 -2.984,2.614695 -2.15194,7.772956 -1.13235,10.170554 -2.28913,0.973148 -5.47413,1.638685 -9.5314,0.627549 2.20682,3.955656 9.19386,3.307975 11.84336,2.06052 5.91288,4.037809 14.02373,5.537749 20.71494,3.430229 12.75861,-4.018521 23.35383,-17.148589 44.07878,-18.123167 4.87872,-0.229283 10.2655,0.714971 15.53782,1.086232 2.29352,0.163599 2.53524,-3.278183 0.24131,-3.436607 -5.01395,-0.35308 -5.78968,-3.351394 -24.279,-0.693832 -13.63777,1.960215 -25.50454,14.386206 -36.60801,17.883438 z"/>
      <path style="fill:#ffffff;stroke:#666666;" d="m 451.09708,60.068509 c -20.26507,6.357547 -10.09455,16.889573 -37.87642,23.600525 -15.60201,3.768804 -27.4893,15.033106 -35.31105,21.678786 -1.99232,1.69274 -11.13004,3.25353 -6.51968,-1.30288 6.63862,-6.560984 13.41456,-13.817753 18.73612,-20.681406 1.65287,-2.131811 -2.45614,-20.647545 -5.88771,-21.692474 -6.60729,-2.011961 -15.41071,-0.312231 -22.81939,1.459867 -2.60322,0.622639 -6.02529,0.47059 -15.38743,2.506358 -4.73346,1.029318 -6.45794,1.687115 -9.12224,0.951097 -0.98694,-0.272551 -4.40901,-1.277149 -5.43276,-2.942536 -2.12817,-3.461975 -5.64554,-9.09206 -5.47752,-11.041055 0.31483,-3.65338 1.84895,-4.637553 5.22461,-6.069809 6.43483,-2.73022 11.32129,-2.595475 18.20943,-5.301463 8.79388,-3.45466 14.72715,-7.63395 19.89972,-11.985942 2.08199,-1.751737 5.13979,-2.086539 9.3933,-3.5722 2.00582,-0.700564 4.68484,-1.321836 6.71668,-1.015689 2.56337,0.386223 3.27392,1.233959 8.70704,1.43772 15.41243,0.578113 15.60065,-5.437023 30.57954,2.535499 12.98995,6.913901 18.93376,1.153624 38.0094,15.494061"/>
      <path style="fill:#333333;stroke:none;" d="m 336.88248,54.398485 c 1.48098,-0.451922 2.63151,-1.261768 4.27335,-0.906442 2.28016,0.493453 2.35961,-3.039262 0.0885,-2.956944 -1.33048,0.04813 -3.08674,0.630929 -4.46263,0.904165 -1.3759,0.2732 -1.7225,3.515639 0.10082,2.959221 z"/>
      <g>
        <path style="fill:#ffffff;stroke:#666666;" d="m 384.98774,33.841278 c 1.29542,2.119945 0.55593,7.436363 -2.99347,9.723873 -3.60542,2.215203 -8.79169,0.449196 -10.15951,-1.614674 -1.27931,-2.248131 1.95562,-3.597807 5.56104,-5.813024 3.66147,-2.142855 6.2404,-4.488337 7.59194,-2.296175 z"/>
        <path style="fill:#333333;stroke:none;" d="m 380.50042,38.368278 a 3.4651148,3.3197061 52.229438 0 1 -0.4739,4.763549 3.4651148,3.3197061 52.229438 0 1 -4.73098,-0.730523 3.4651148,3.3197061 52.229438 0 1 0.47388,-4.763525 3.4651148,3.3197061 52.229438 0 1 4.731,0.730499 z"/>
        <path style="fill:#000000;stroke:none;" d="m 376.81742,39.139595 c -0.6506,0.504118 -0.90911,1.514295 -0.29295,2.309471 0.61617,0.795182 1.65886,0.797098 2.30948,0.292959 0.79517,-0.616167 1.05369,-1.626304 0.43753,-2.421493 -0.61618,-0.795182 -1.65887,-0.797101 -2.45406,-0.180947 z"/>
        <path style="fill:#ffffff;stroke:none;" d="m 377.33254,38.161983 c -0.4337,0.33616 -0.53138,1.105917 -0.13929,1.611938 0.44801,0.578385 1.16193,0.603704 1.59567,0.267598 0.57838,-0.448008 0.73199,-1.14564 0.28388,-1.723973 -0.39212,-0.506016 -1.16193,-0.60367 -1.74026,-0.15556 z"/>
      </g>
    </g>
  </g>
</g>
<use id="shine" xlink:href="#shield" style="fill:url(#rg);stroke:#000000;stroke-width:3;" />
</svg>
