<?xml version="1.0" encoding="UTF-8"?>
<svg xmlns="http://www.w3.org/2000/svg" xmlns:xlink="http://www.w3.org/1999/xlink" width="600" height="660">
<defs>
  <radialGradient id="rg" gradientUnits="userSpaceOnUse" cx="220" cy="220" r="405">
    <stop style="stop-color:#fff;stop-opacity:.3" offset="0"/>
    <stop style="stop-color:#fff;stop-opacity:.2" offset=".2"/>
    <stop style="stop-color:#666;stop-opacity:.1" offset=".6"/>
    <stop style="stop-color:#000;stop-opacity:.13" offset="1"/>
  </radialGradient>
  <path id="shield" d="m2,2v257c0,286 298,398 298,398c0,0 298-112 298-398V2z"/>
</defs>
<use xlink:href="#shield" style="fill:#ffdd00"/>
<g id="horse" style="fill:#ee0000;stroke:#880000;stroke-width:1;stroke-linecap:round;stroke-linejoin:round;">
  <use id="wing-right" xlink:href="#wing-left" transform="rotate(-36.831173,313.42099,253.37145)"/>
  <g id="rear-right">
    <path style="fill:#aa0000;" d="m 239.22559,506.39381 c -5.47013,4.44999 -10.64726,9.10316 -13.32403,15.49026 5.93286,3.78433 13.48986,5.47053 21.94835,5.33853 19.7416,-0.3081 22.0108,-4.26253 27.99373,-8.14407 1.71029,-5.77034 0.28967,-9.75846 -0.24596,-13.25441 -12.33628,-3.36524 -24.41699,-2.44981 -36.37209,0.56969 z"/>
    <path d="m 303.7817,375.34815 c -3.01637,11.92529 1.36113,22.32852 5.14975,31.27451 2.87336,6.78485 3.92597,13.10198 9.69685,16.47427 5.59221,3.2679 11.62717,6.90957 11.84237,11.90287 0.30743,7.13342 1.25082,10.21357 -1.19163,13.9956 -3.87849,6.00572 -11.81702,7.58481 -13.99425,9.41861 -2.8176,2.37319 -12.47953,10.08671 -15.90851,11.43316 -4.994,1.96096 -18.31391,5.4417 -23.45243,6.98471 -4.14776,1.2455 -11.03347,6.20555 -14.64639,8.59342 -7.71399,5.0984 -13.41865,3.75178 -17.54601,9.85047 -1.86556,2.75659 -1.5453,7.6923 -4.50586,11.11804 10.96843,3.7413 24.23295,1.93279 36.37209,-0.56969 6.14039,-2.352 11.47033,0.32294 21.73045,-0.77446 -4.41466,-4.85785 -0.63926,-8.00134 2.90733,-10.75706 1.69268,4.89883 6.81222,5.67495 11.04777,7.26827 -5.42607,-7.77355 -0.0815,-11.36939 3.19805,-14.24582 3.14958,0.72682 5.00725,3.61989 6.25071,7.26827 5.46589,-6.03634 3.5168,-9.38776 7.55901,-14.24582 3.35822,-3.75855 7.60656,-6.08445 12.38781,-7.67942 7.77723,-2.59438 20.72759,-2.14542 26.61366,-7.85249 7.87544,-7.63586 4.6835,-21.20428 3.15454,-28.36849 -2.41951,-11.33713 -16.78923,-34.25156 -12.59086,-51.46901"/>
  </g>
  <g id="front-right">
    <path style="fill:#aa0000;" d="m 43.146894,307.57994 c -1.68468,6.84738 -3.013105,13.68039 -1.30122,20.39079 7.015162,-0.55422 14.062492,-3.76154 20.733812,-8.96314 15.570486,-12.14025 14.999022,-16.66355 17.435486,-23.36622 -2.111625,-5.63585 -5.796133,-10.84571 -8.247911,-10.31135 -1.835753,8.88476 -20.897852,12.63704 -28.620167,22.24992 z"/>
    <path d="m 156.43024,249.76092 c -8.3999,16.04985 -13.14181,-3.88009 -21.83354,-13.33315 -4.34443,-4.72497 -10.96902,-29.21278 -23.65641,-30.25794 -19.033358,-1.56788 -27.474701,15.83182 -30.093402,18.42281 -14.656165,14.50122 -10.748011,9.69207 -29.414185,26.51463 -8.852957,7.97856 -9.741272,16.88238 -6.628837,24.6285 2.80975,6.99281 -5.139757,12.90165 -4.759396,20.25588 0.171939,3.32408 3.401293,7.07039 3.102424,11.58829 11.008247,-3.62252 30.930668,-13.76504 28.620167,-22.24992 -1.937841,-4.24378 4.55486,-7.20081 10.602615,-2.23598 2.019351,-5.78234 -3.95807,-9.74172 -3.379281,-14.97479 3.561787,0.91472 3.308517,1.75296 7.390813,6.17236 0.676884,-9.08072 -4.199017,-10.12923 -4.097,-13.22257 0.181539,-5.5047 3.279269,-2.78093 5.925177,-2.08952 4.600172,-6.73962 -0.631124,-9.13075 3.570921,-14.15912 5.732695,-6.85999 8.457994,-1.99338 12.019214,-2.31908 9.73029,-0.88995 12.2571,7.71594 14.12686,15.69842 5.81968,24.84544 14.72614,63.16325 50.99223,62.10439"/>
  </g>
  <path id="tail" style="fill:#aa0000;" d="m 447.27882,342.04504 c 22.03202,13.00901 34.33156,1.08947 41.81764,11.33775 3.80309,5.20634 5.80522,11.58898 -1.16385,19.13021 -1.94371,2.28714 -6.57462,4.26009 -9.05967,4.62705 -3.60785,0.32957 -7.44419,-2.60811 -11.05202,-2.2786 -3.01393,0.40986 -5.28299,2.08095 -6.95255,5.48392 -1.16281,3.76572 2.53375,8.82575 2.53375,8.82575 1.19184,-3.85986 2.54167,-6.22725 4.08396,-5.54478 2.07808,0.95104 3.92356,2.65528 6.50141,3.65757 2.60693,0.90813 5.48243,1.28041 7.66427,-0.10817 -0.8556,0.76702 -2.8214,3.45978 -3.61883,4.0385 -17.01868,9.69702 -28.83861,28.93964 -16.90986,45.41004 3.63844,5.24831 8.18361,9.2299 8.86628,14.69981 2.58785,12.65788 -7.14202,13.77812 -10.35534,10.82657 2.0505,6.71728 7.0387,9.59813 11.17544,9.22567 5.97658,-0.32013 11.74819,-5.65298 11.90862,-13.85303 5.28601,9.26319 -0.47715,20.57973 5.72253,28.88762 3.30619,4.32075 11.3083,6.7918 17.32905,-1.35162 -3.60785,0.32957 -6.06943,-1.04922 -7.17566,-3.1439 -3.37675,-6.09561 1.51966,-19.94845 2.23392,-24.26513 1.90619,-8.17656 1.27614,-15.4864 -2.68214,-19.69916 6.12201,-0.79065 12.28015,5.64822 8.2849,16.58264 5.23177,-1.58114 7.92441,-6.62752 9.10382,-12.45048 0.66718,-7.83735 -1.86665,-16.66308 -7.19271,-22.1232 -4.55211,-4.29307 -5.67645,-10.00244 -6.09747,-16.31964 0,0 8.79398,0.24066 12.29113,1.93926 1.51322,0.77666 3.98169,2.46698 3.87101,4.49521 -0.37832,1.22376 -1.86615,4.37349 -1.86615,4.37349 9.83917,-1.80862 8.15952,-17.07313 1.59439,-22.19399 4.52714,0.36679 5.56269,0.68654 7.44978,4.25973 3.41786,-13.07198 1.78537,-24.81616 -3.93115,-31.01554 4.01482,-1.64757 6.67585,3.09268 6.53049,3.5634 2.13326,-10.5813 -0.60405,-18.74806 -5.70444,-25.27281 -5.03537,-6.40157 -9.28987,-11.32452 -16.95008,-15.23679 0,0 2.32161,-3.511 3.19373,-6.33527 0.61053,-1.97698 0.14938,-4.49114 -0.5082,-6.03474 -1.07713,-2.18883 -5.79123,-3.95386 -5.79123,-3.95386 0,0 1.08972,4.1519 0.92081,6.36842 -0.49443,1.60034 -0.6853,4.22254 -1.8952,4.46762 -7.68366,1.40877 -13.65989,-0.64178 -19.5621,2.5166 -11.61655,6.21623 -31.31343,6.46981 -42.69196,-1.01609 z"/>
  <path id="body" d="m 371.24054,395.95865 c -53.12146,2.93066 -67.16456,-12.13583 -104.84476,-23.84706 -35.18335,-10.93519 -62.70948,-17.85677 -85.93159,-46.46062 -14.54718,-17.91849 -32.72815,-41.36122 -30.63114,-64.34589 2.22199,-24.35447 18.56534,-20.92434 24.91626,-44.54093 10.36298,-38.53581 33.17122,-40.02287 36.6221,-52.41528 3.55889,-12.7802 -13.34679,-19.53049 -12.40521,-32.7635 1.32291,-18.59206 3.61383,-43.162833 21.58568,-48.105254 19.32001,-5.313146 45.9186,5.304012 56.73952,21.380124 12.63225,18.76706 17.24263,29.00062 16.69314,51.49424 -0.44466,18.20237 -12.85485,43.36596 -12.78717,61.57365 0.062,16.65042 9.40856,26.69488 21.79128,37.82633 19.6858,17.69658 51.89247,31.97987 96.62164,43.99369 21.37394,5.74083 20.95495,33.22316 17.26856,53.86143 -3.59587,20.13153 -25.23294,41.22331 -45.63831,42.34907 z"/>
  <path id="head" d="m 249.90785,143.80389 c -5.13624,14.73037 -17.68023,18.18709 -28.49164,17.15313 -11.44139,-1.09421 -13.24911,-6.72183 -24.71216,-7.55901 -6.28245,-0.45883 -14.40875,1.57926 -20.06045,4.36096 -6.9744,3.43273 -6.61139,11.91037 -14.24582,13.37365 -3.57868,0.68591 -8.86374,1.08255 -10.87607,-2.24499 -1.85297,-3.06404 -5.56577,-2.17191 -6.27706,-4.15111 -1.62501,-4.52151 3.71069,-8.3172 7.84973,-10.75705 5.41367,-3.19122 8.05096,-5.17101 14.20752,-6.43136 15.31606,-3.13545 2.96794,-4.29507 -1.19214,-3.04233 -5.56844,1.67683 -10.72546,5.91384 -16.50415,6.56638 -4.36274,0.49264 -6.38481,-2.16648 -9.59412,-3.19805 -2.21812,-0.71295 -5.86998,-1.66684 -6.07009,-3.9881 -0.45016,-5.22188 3.20797,-6.93116 5.02758,-11.8464 1.94284,-5.24809 -1.15797,-5.68262 0.83693,-9.93475 0.58907,-1.25562 3.50414,-4.72551 10.16471,-4.92928 5.15106,-0.15761 23.44586,-12.11765 29.60398,-13.5838 6.11424,-1.45572 12.79631,-11.728136 17.57284,-13.161999 9.33288,-2.801656 11.15343,1.283076 19.61705,0.170327"/>
  <g id="rear-left">
    <path style="fill:#aa0000;" d="m 331.53062,530.25827 c -5.72561,4.11606 -11.17086,8.45241 -14.22353,14.66865 5.69679,4.13117 13.13985,6.26475 21.59116,6.63709 19.72487,0.86903 22.22573,-2.94315 28.42936,-6.46121 2.05116,-5.65816 0.87072,-9.72385 0.54441,-13.24552 -12.11379,-4.09445 -24.22759,-3.90065 -36.3414,-1.59901 z"/>
    <path d="m 363.293,359.81714 c -8.91576,11.82305 -18.80718,28.93146 -14.82729,45.06331 4.35666,17.65899 19.0761,25.88114 34.74237,41.57457 5.8522,5.86233 14.42906,5.40857 20.49656,11.04777 2.78929,2.59241 6.7411,9.03862 5.52388,12.64681 -1.82451,5.40839 -5.73157,9.1824 -10.03022,12.93754 -4.23183,3.69678 -10.4494,6.47959 -14.68192,10.17558 -2.77481,2.42309 -3.56525,5.31209 -6.68682,7.26829 -4.54628,2.84899 -10.35256,3.93119 -15.11801,6.39608 -3.84664,1.98964 -6.94675,6.23225 -10.90244,7.9951 -5.24277,2.33647 -10.63451,-1.33553 -15.118,4.50634 -2.02653,2.64052 -2.00101,7.58652 -5.16049,10.82974 10.72598,4.38835 24.07469,3.37358 36.3414,1.59901 1.98667,-0.53261 3.17382,-1.38317 5.59658,-4.28828 4.20484,4.45254 7.90733,6.39335 11.3385,6.97755 -0.75308,-4.41077 0.8144,-7.2745 2.32586,-10.1756 2.71026,3.88128 6.81223,5.67497 11.04778,7.26829 -0.35951,-6.58142 0.84555,-11.15128 3.19805,-14.24584 3.14958,0.72684 2.77366,3.27904 6.25071,4.94244 -0.0707,-4.1875 2.08284,-5.71122 2.03513,-9.15802 -0.039,-2.82514 -1.37214,-6.83851 -0.29074,-9.44878 1.92912,-4.65648 5.17141,-8.2545 9.15804,-11.33851 6.48466,-5.01645 16.96993,-5.89803 20.6419,-13.22827 4.91303,-9.80772 11.70455,-13.33232 10.1756,-20.49653 -2.41952,-11.33714 -14.42634,-15.4417 -19.479,-25.87508 -2.63545,-5.44206 -5.38029,-12.98834 -2.03511,-18.02532 10.09031,-15.19348 28.43726,-24.86202 30.57665,-51.58591 1.26612,-15.81528 -7.98586,-27.05148 -16.86377,-40.20095 -6.75075,-9.99886 -16.80741,-18.51104 -27.85841,-23.35103 -14.64577,-6.41438 -27.77283,-5.23517 -40.80463,-3.5797"/>
  </g>
  <g id="front-left">
    <path style="fill:#aa0000;" d="m 120.09514,415.7437 c 2.96073,6.3999 6.19073,12.5661 11.7186,16.73777 5.13267,-4.81411 8.63349,-11.72033 10.59515,-19.94925 4.57841,-19.20582 1.30713,-22.3816 -0.97608,-29.13799 -5.169,-3.08278 -11.30031,-4.85054 -12.88141,-2.90198 4.11516,8.08545 -8.42879,22.92097 -8.45626,35.25145 z"/>
    <path d="m 163.7195,240.30114 c -13.99507,11.26084 -17.37434,16.22029 -15.3811,35.79547 1.09122,10.71676 6.0522,15.69956 6.35252,25.41897 0.30926,10.00892 -11.54764,2.76231 -14.7342,2.27162 -6.34389,-0.97692 -32.94361,-10.86869 -42.790105,-2.79969 -12.760484,10.45697 -11.275218,20.85408 -10.455177,24.44553 4.394294,19.24523 5.573688,13.25409 1.501851,38.05017 -1.931179,11.7602 4.580436,17.41864 11.848991,21.52447 6.56168,3.70653 5.48251,18.11717 10.37256,23.62321 2.21029,2.48872 7.07212,3.39771 9.6603,7.11281 6.33496,-9.70424 15.55988,-30.06781 8.45626,-35.25145 -4.16384,-2.10412 -0.93988,-8.46847 6.88413,-8.36803 -2.0342,-5.77715 -9.17532,-5.13625 -11.99154,-9.58474 3.35301,-1.51007 3.67872,-0.69723 9.62706,0.20474 -5.14261,-7.51472 -9.6055,-5.28842 -11.45774,-7.76801 -3.29613,-4.41251 0.8243,-4.21992 3.32254,-5.33242 -0.61644,-8.13658 -5.68871,-4.30379 -9.25209,-10.81714 -7.25844,-13.26742 7.14077,-9.36833 10.70053,-9.02694 8.20643,0.78705 19.82621,5.14674 26.65188,9.68833 10.37703,6.90455 38.6766,16.42556 45.20479,9.84322 9.20999,-9.28637 16.76958,-19.09597 17.87649,-27.19298"/>
  </g>
  <path id="nose" style="fill:#880000;stroke:none;" d="m 151.20858,129.31012 c 0.019,-0.90505 0.29208,-1.81457 0.14722,-2.71286 -0.11552,-0.71711 -0.87848,-1.06432 -1.41815,-1.5309 -0.56341,-0.48712 -0.44462,-1.4795 -0.13522,-2.1309 0.30245,-0.6366 1.17797,-0.67432 1.81641,-0.44358 1.62638,0.58774 2.90714,1.05196 3.76331,2.52546 1.21991,2.09954 -1.31195,4.98361 -3.05792,5.36132 -1.08361,0.2344 -1.13546,-0.12519 -1.1157,-1.06851 z"/>
  <path id="mane" style="fill:#aa0000;" d="m 236.16619,69.319619 c 4.20708,1.042398 5.00287,-3.489017 10.4622,-5.927881 7.09724,-3.17059 5.13798,-3.070561 6.20085,-10.890129 3.69545,2.614887 6.16356,6.714914 8.93653,14.407606 8.63919,-7.256791 20.522,-5.787411 29.16478,3.68243 -7.2826,0.996189 -13.42723,9.003618 -6.81792,7.802034 5.22349,-0.94964 8.67506,-1.17608 13.92743,-0.606658 4.99804,0.555202 8.56461,5.268585 16.52885,2.68977 1.85723,7.476299 -10.20375,9.686198 -14.07046,13.47335 2.26046,2.836455 7.17618,2.718104 13.07015,0.01845 7.45128,-3.412844 12.30879,8.616309 24.4537,-1.38769 3.069,7.254498 -6.87111,11.909349 -14.16946,14.195939 -4.89096,1.06136 -10.06784,7.1115 -10.06784,7.1115 0,0 10.45247,-5.27938 18.77007,1.15495 7.31288,5.65711 8.79684,11.84315 20.86782,11.12092 -6.99744,10.76782 -20.71263,-1.15221 -32.72136,11.96068 21.69326,1.92276 18.61163,24.92801 37.38319,19.13722 -3.4118,13.08428 -23.6987,1.05792 -27.02688,11.85508 9.22352,-1.32044 8.32344,10.9569 20.98264,6.40986 -8.4448,16.37581 -23.68423,6.44587 -28.2743,22.3202 10.42652,0.52189 20.61992,-5.69761 24.19759,9.80127 -15.00479,-8.55505 -18.85719,7.30238 -30.62673,5.43019 13.35281,4.45958 5.90238,10.49926 17.05498,9.0523 -5.3545,8.68575 -20.07485,5.83978 -25.43355,5.31198 6.10487,1.50429 11.45586,12.04766 11.04061,17.38771 -3.16306,-8.15398 -13.09338,-4.78725 -16.82367,-6.27121 3.07026,9.49191 -5.07975,16.42148 1.36085,26.41391 -14.93356,-2.33488 -17.31825,-24.55854 -21.96099,-24.71162 -7.97346,-0.26289 -7.42408,12.65035 -13.42446,10.1601 0.11212,-16.74526 -6.43986,-22.89562 5.13412,-37.7152 4.49178,-5.75137 4.85236,-18.667 -2.07002,-17.37446 0.64473,-7.1299 10.89695,-17.08737 10.49938,-25.75843 -1.70952,-37.28456 0.67061,-27.70866 -6.0249,-44.05688 -2.89379,-7.06565 -7.16171,-11.95794 -11.23684,-7.24167 -1.42118,-6.4389 -5.23266,-5.12821 -4.97903,-14.83874 0.22087,-8.456263 -8.1361,-15.435605 -15.68235,-10.174595 -2.6532,1.849722 -0.97909,2.954931 -9.30167,4.462066 0.0632,-3.999748 -1.55941,-7.032536 -6.90777,-8.176037 -4.14933,-0.887151 -12.51637,3.021737 -16.53936,3.683219 -12.54218,2.062228 -15.84079,-0.630748 -21.44709,-10.146565 24.6972,-0.10191 27.65487,-8.478685 14.4812,-10.356437 9.98877,-10.108828 24.25793,-5.10125 31.08971,-3.408529 z"/>
  <g id="ear">
    <path d="m 238.61331,97.399325 c -0.65795,-14.293068 16.40127,-18.87422 27.01992,-30.196614 4.2955,-4.514902 8.55,10.674918 5.02837,20.09642 -3.41041,9.123904 -8.64871,14.237479 -16.7295,15.639669"/>
    <path style="fill:#880000;stroke:none;" d="m 245.51965,95.157976 c -0.62733,-0.105671 -0.67087,-1.081818 -0.86036,-1.693795 -0.1822,-0.58839 -0.27739,-1.21183 -0.23258,-1.825419 0.067,-0.915843 0.40458,-1.800971 0.94523,-2.548618 0.3022,-0.41792 0.62891,-0.820884 1.00357,-1.172176 0.64121,-0.601196 1.38033,-1.106463 2.16851,-1.494741 0.74783,-0.368433 1.5355,-0.658723 2.34605,-0.861808 0.59146,-0.148118 1.20076,-0.243025 1.8081,-0.28472 0.54292,-0.03725 1.05988,0.174267 1.57577,0.317102 0.52232,0.144536 1.24763,0.05051 1.54636,0.502742 0.2151,0.325645 -0.14651,0.924423 -0.51711,1.049777 -1.2057,0.407728 -2.52972,0.283108 -3.79167,0.446504 -0.85116,0.110148 -1.72958,0.230559 -2.48093,0.680305 -0.40209,0.240679 -0.74568,0.565948 -1.00189,0.960745 -0.58462,0.900906 -0.69302,2.007852 -0.72826,3.054083 -0.0161,0.472581 0.10262,0.959294 0.009,1.418765 -0.14042,0.687559 -0.31502,1.410472 -0.73995,1.968343 -0.13862,0.182058 -0.45968,0.096 -0.66257,0.009 -0.20015,-0.08579 -0.17248,-0.489955 -0.38715,-0.526098 z m 4.00965,4.713115 c -0.53661,-0.578969 -0.8492,-1.482293 -0.43212,-2.219499 0.61004,-1.078308 1.78494,-1.627885 2.81747,-2.217349 0.5552,-0.316977 1.25446,-0.45983 1.68534,-0.925229 1.59339,-1.720983 2.73054,-3.830943 3.69327,-5.970132 1.0437,-2.319098 1.66186,-4.80521 2.04634,-7.313906 0.13558,-0.884626 0.0774,-1.798911 0.29382,-2.666504 0.0663,-0.266345 0.37449,-0.648962 0.6526,-0.585703 0.26867,0.06107 0.61858,0.02113 0.67883,0.40891 0.29592,1.904421 0.48449,3.82668 0.42666,5.747202 -0.0845,2.805847 -0.60248,5.608469 -1.62778,8.230502 -0.71394,1.825705 -1.69193,3.58867 -3.09497,4.967782 -0.93338,0.917473 -2.02438,1.680327 -3.24862,2.160108 -1.1598,0.45451 -2.40521,0.743117 -3.64645,0.673737 -0.12627,-0.007 -0.15851,-0.197215 -0.24439,-0.289919 z"/>
  </g>
  <g id="eye">
    <path style="fill:#ffffff;" d="m 200.70713,108.11796 c 0.0348,2.88686 4.0473,7.66253 8.95401,7.72101 4.91718,-0.0473 8.93054,-4.98972 9.00165,-7.86612 -0.12985,-3.00307 -4.14763,-2.3328 -9.06482,-2.28551 -4.92764,0.15313 -8.91502,-0.56199 -8.89084,2.43062 z"/>
    <path style="fill:#880000;stroke:none;" d="m 205.3092,110.17536 a 3.8577522,4.0267281 5.6524808 0 0 3.40952,4.39561 3.8577522,4.0267281 5.6524808 0 0 4.20501,-3.64197 3.8577522,4.0267281 5.6524808 0 0 -3.40949,-4.3956 3.8577522,4.0267281 5.6524808 0 0 -4.20504,3.64196 z"/>
    <path style="fill:#000000;stroke:none;" d="m 209.41065,108.65902 c 0.9518,0.0942 1.83036,0.92872 1.71521,2.09204 -0.11516,1.16333 -1.14022,1.80943 -2.09205,1.71522 -1.16332,-0.11516 -2.04186,-0.94964 -1.92672,-2.11297 0.11517,-1.16334 1.14023,-1.80944 2.30356,-1.69429 z"/>
    <path style="fill:#ffffff;stroke:none;" d="m 208.29965,108.01509 c 0.63455,0.0629 1.20628,0.76016 1.13301,1.50045 -0.0836,0.84606 -0.77061,1.31206 -1.40517,1.24924 -0.84605,-0.0836 -1.42826,-0.67532 -1.34453,-1.52139 0.0733,-0.7403 0.77063,-1.31203 1.61669,-1.2283 z"/>
  </g>
  <g id="wing-left">
    <path style="fill:#000000;" d="m 302.72461,286.61106 c 3.87621,-14.10092 18.92873,-15.60439 28.10661,-16.44487 13.24039,-1.21251 28.65993,10.63537 31.45435,34.15359 1.4083,-12.12163 5.78508,-30.97074 21.48161,-28.20272 15.56576,2.74495 25.7173,21.72226 33.38891,42.54107 3.59991,-17.89128 17.87387,-30.33026 26.94186,-31.97689 9.06799,-1.64662 26.84248,4.33758 34.38652,20.00547 2.60004,-12.85309 0.53322,-23.95986 20.57699,-35.04948 15.47075,-8.5595 30.42225,-4.33618 42.26864,5.35694 -10.08001,-18.21188 -12.27457,-38.11941 -4.0272,-49.99189 6.95156,-10.00709 24.01506,-25.35122 54.05921,-25.50395 -10.85684,-8.23925 -39.02898,-4.25084 -56.78615,2.52825 -50.65478,19.33829 -71.36523,16.4146 -104.80182,11.78548 -56.68435,-7.84764 -94.34719,-34.51988 -127.40515,-18.84687 -3.31463,1.5715 -0.89769,11.097 1.86338,12.70883 4.05937,2.36973 6.41936,0.28704 6.15274,10.83585 -0.59687,23.61482 -16.18049,40.08639 -33.13894,46.51672 -11.18029,4.23936 23.01011,28.56378 25.47844,19.58447 z"/>
    <path style="fill:none;" d="m 299.20459,295.71007 c 5.75638,-0.42025 9.92399,-5.50295 9.46101,-10.4011 m -39.99201,-12.90868 c -0.74651,-4.50067 3.21462,-8.92139 7.68461,-9.80318"/>
    <path style="fill:none;stroke:#aa0000;stroke-width:1.5;" d="m 521.52632,255.5856 c -18.11951,-10.90453 -26.27289,-16.70787 -48.20439,-25.03953 -8.2136,-3.1203 -2.80897,-3.71321 9.74352,-5.51145 35.93933,-5.14857 46.73494,-13.0883 56.49057,-17.82506 m -69.50029,70.56298 c -1.89302,-6.95083 -20.50399,-34.33154 -43.54029,-49.43019 -23.72085,-15.54735 45.14613,-0.26218 93.13126,30.12213 m -102.97479,18.38322 c -4.88575,-13.93027 -16.26679,-29.74174 -28.49625,-43.17601 -7.17535,-7.88225 -13.2274,-14.09598 -22.02093,-20.41062 -23.03741,-16.54317 75.40952,12.6818 100.81964,66.56364 m -105.34518,-16.69181 c -4.00795,-20.83441 -16.77627,-37.92702 -32.99333,-56.65469 -6.79839,-7.85087 13.5617,-6.36566 42.52887,20.09976 12.7792,11.67553 30.84242,28.48567 40.94962,50.99849 m -107.97306,-17.54858 c 5.22849,-6.03838 14.61542,-15.86332 15.91591,-40.64392 0.78439,-14.94632 32.27169,21.73423 36.8638,43.46974"/>
  </g>
  <path id="fire" style="fill:#aa0000;" d="m 90.052344,91.911769 c 2.168434,4.49435 7.535646,8.570341 11.649726,9.529181 -0.97337,-11.709011 3.92784,-16.88596 9.48673,-18.329323 -11.32604,24.783623 5.39814,40.133113 23.75725,41.430473 -25.84069,1.38259 -47.036389,-16.37988 -44.893706,-32.630331 z m 10.536466,-3.388515 c 0.63993,-5.812924 -0.18323,-9.86934 7.33314,-17.745144 5.37895,-5.636174 0.33576,-18.36113 -12.5383,-28.597382 4.83691,11.583231 7.61136,16.6108 0.49604,23.237152 -7.968468,7.420922 -2.029694,16.684583 4.70912,23.105374 z m -11.598473,-20.463785 c -2.500758,-4.986663 0.10222,-12.866387 -11.913659,-16.97002 -8.143622,-2.781176 -9.651849,-13.464884 -4.345177,-20.022807 0.553426,10.272957 5.628791,11.481014 12.023229,14.236467 8.72574,3.760005 7.329512,14.234888 4.235607,22.75636 z m -27.513818,-16.02982 c 16.461783,17.234998 8.721851,16.121981 11.7064,26.591775 3.534268,12.398229 15.569821,5.227075 22.938341,14.525647 -0.4182,-11.940661 -10.425238,-8.461226 -11.226521,-20.573868 -0.718758,-10.865058 -10.189328,-17.720958 -23.41822,-20.543554 z"/>
</g>
<use id="shine" xlink:href="#shield" style="fill:url(#rg);stroke:#000000;stroke-width:3;"/>
</svg>
