<?xml version="1.0" encoding="UTF-8" standalone="no"?>
<svg
   xmlns:dc="http://purl.org/dc/elements/1.1/"
   xmlns:cc="http://creativecommons.org/ns#"
   xmlns:rdf="http://www.w3.org/1999/02/22-rdf-syntax-ns#"
   xmlns:svg="http://www.w3.org/2000/svg"
   xmlns="http://www.w3.org/2000/svg"
   xmlns:xlink="http://www.w3.org/1999/xlink"
   xmlns:sodipodi="http://sodipodi.sourceforge.net/DTD/sodipodi-0.dtd"
   xmlns:inkscape="http://www.inkscape.org/namespaces/inkscape"
   width="600"
   height="660"
   id="svg2"
   version="1.1"
   inkscape:version="0.48.2 r9819"
   sodipodi:docname="Bronn.svg">
  <metadata
     id="metadata24">
    <rdf:RDF>
      <cc:Work
         rdf:about="">
        <dc:format>image/svg+xml</dc:format>
        <dc:type
           rdf:resource="http://purl.org/dc/dcmitype/StillImage" />
        <dc:title />
      </cc:Work>
    </rdf:RDF>
  </metadata>
  <sodipodi:namedview
     pagecolor="#ffffff"
     bordercolor="#666666"
     borderopacity="1"
     objecttolerance="10"
     gridtolerance="10"
     guidetolerance="10"
     inkscape:pageopacity="0"
     inkscape:pageshadow="2"
     inkscape:window-width="1366"
     inkscape:window-height="715"
     id="namedview22"
     showgrid="false"
     inkscape:zoom="1.011377"
     inkscape:cx="252.05141"
     inkscape:cy="398.22227"
     inkscape:window-x="-8"
     inkscape:window-y="-8"
     inkscape:window-maximized="1"
     inkscape:current-layer="layer2" />
  <defs
     id="defs4">
    <linearGradient
       id="linearGradient3904">
      <stop
         id="stop3906"
         offset="0"
         style="stop-color:#00ff00;stop-opacity:1;" />
      <stop
         style="stop-color:#00c300;stop-opacity:1;"
         offset="0.5"
         id="stop3914" />
      <stop
         id="stop3910"
         offset="1"
         style="stop-color:#ffffff;stop-opacity:1;" />
    </linearGradient>
    <linearGradient
       id="linearGradient3854">
      <stop
         id="stop3856"
         offset="0"
         style="stop-color:#ffff00;stop-opacity:1;" />
      <stop
         style="stop-color:#ff8800;stop-opacity:1;"
         offset="0.43744272"
         id="stop3858" />
      <stop
         id="stop3860"
         offset="1"
         style="stop-color:#cc0000;stop-opacity:1;" />
    </linearGradient>
    <linearGradient
       id="linearGradient6940">
      <stop
         id="stop6942"
         offset="0"
         style="stop-color:#fcff00;stop-opacity:1;" />
      <stop
         style="stop-color:#ff8800;stop-opacity:1;"
         offset="0.3860921"
         id="stop6944" />
      <stop
         id="stop6946"
         offset="1"
         style="stop-color:#cc0000;stop-opacity:1;" />
    </linearGradient>
    <linearGradient
       id="linearGradient5451">
      <stop
         style="stop-color:#00ff00;stop-opacity:1;"
         offset="0"
         id="stop5453" />
      <stop
         id="stop3890"
         offset="0.5"
         style="stop-color:#ffffff;stop-opacity:1;" />
      <stop
         style="stop-color:#008800;stop-opacity:1;"
         offset="1"
         id="stop5455" />
    </linearGradient>
    <inkscape:path-effect
       effect="spiro"
       id="path-effect3576"
       is_visible="true" />
    <inkscape:path-effect
       is_visible="true"
       id="path-effect3572"
       effect="spiro" />
    <inkscape:path-effect
       effect="spiro"
       id="path-effect3568"
       is_visible="true" />
    <inkscape:path-effect
       is_visible="true"
       id="path-effect3136"
       effect="spiro" />
    <inkscape:path-effect
       effect="spiro"
       id="path-effect3132"
       is_visible="true" />
    <inkscape:path-effect
       effect="spiro"
       id="path-effect3101"
       is_visible="true" />
    <inkscape:path-effect
       is_visible="true"
       id="path-effect3085"
       effect="spiro" />
    <inkscape:path-effect
       is_visible="true"
       id="path-effect3083"
       effect="spiro" />
    <inkscape:path-effect
       is_visible="true"
       id="path-effect3081"
       effect="spiro" />
    <inkscape:path-effect
       is_visible="true"
       id="path-effect3079"
       effect="spiro" />
    <inkscape:path-effect
       is_visible="true"
       id="path-effect3077"
       effect="spiro" />
    <inkscape:path-effect
       is_visible="true"
       id="path-effect3075"
       effect="spiro" />
    <inkscape:path-effect
       effect="spiro"
       id="path-effect3049"
       is_visible="true" />
    <inkscape:path-effect
       is_visible="true"
       id="path-effect3045"
       effect="spiro" />
    <inkscape:path-effect
       effect="spiro"
       id="path-effect3041"
       is_visible="true" />
    <radialGradient
       id="rg"
       gradientUnits="userSpaceOnUse"
       cx="220"
       cy="220"
       r="405">
      <stop
         style="stop-color:#fff;stop-opacity:.3"
         offset="0"
         id="stop7" />
      <stop
         style="stop-color:#fff;stop-opacity:.2"
         offset=".2"
         id="stop9" />
      <stop
         style="stop-color:#666;stop-opacity:.1"
         offset=".6"
         id="stop11" />
      <stop
         style="stop-color:#000;stop-opacity:.13"
         offset="1"
         id="stop13" />
    </radialGradient>
    <path
       id="shield"
       d="m2,2v257c0,286 298,398 298,398c0,0 298-112 298-398V2z" />
    <radialGradient
       inkscape:collect="always"
       xlink:href="#rg-7"
       id="radialGradient3055-1"
       gradientUnits="userSpaceOnUse"
       cx="220"
       cy="220"
       r="405" />
    <radialGradient
       id="rg-7"
       gradientUnits="userSpaceOnUse"
       cx="220"
       cy="220"
       r="405">
      <stop
         style="stop-color:#fff;stop-opacity:.3"
         offset="0"
         id="stop7-4" />
      <stop
         style="stop-color:#fff;stop-opacity:.2"
         offset=".2"
         id="stop9-0" />
      <stop
         style="stop-color:#666;stop-opacity:.1"
         offset=".6"
         id="stop11-9" />
      <stop
         style="stop-color:#000;stop-opacity:.13"
         offset="1"
         id="stop13-4" />
    </radialGradient>
    <radialGradient
       r="405"
       cy="220"
       cx="220"
       gradientUnits="userSpaceOnUse"
       id="radialGradient3074"
       xlink:href="#rg-7"
       inkscape:collect="always" />
    <inkscape:path-effect
       is_visible="true"
       id="path-effect10120-1"
       effect="spiro" />
    <inkscape:path-effect
       effect="spiro"
       id="path-effect10118-3"
       is_visible="true" />
    <inkscape:path-effect
       effect="spiro"
       id="path-effect10116-9"
       is_visible="true" />
    <inkscape:path-effect
       effect="spiro"
       id="path-effect10114-7"
       is_visible="true" />
    <inkscape:path-effect
       effect="spiro"
       id="path-effect10112-7"
       is_visible="true" />
    <inkscape:path-effect
       effect="spiro"
       id="path-effect10110-2"
       is_visible="true" />
    <linearGradient
       inkscape:collect="always"
       xlink:href="#linearGradient4719-5"
       id="linearGradient4039"
       gradientUnits="userSpaceOnUse"
       gradientTransform="matrix(2.3257341,0,0,2.2943177,447.69485,-1820.2799)"
       x1="-145.25935"
       y1="984.24286"
       x2="-64.14286"
       y2="984.14789" />
    <linearGradient
       inkscape:collect="always"
       id="linearGradient4719-5">
      <stop
         style="stop-color:#666666;stop-opacity:1;"
         offset="0"
         id="stop4721-5" />
      <stop
         id="stop4809-1"
         offset="0.39344174"
         style="stop-color:#666666;stop-opacity:0.74901961;" />
      <stop
         style="stop-color:#666666;stop-opacity:0;"
         offset="1"
         id="stop4723-7" />
    </linearGradient>
    <radialGradient
       inkscape:collect="always"
       xlink:href="#linearGradient4801-8"
       id="radialGradient4041"
       gradientUnits="userSpaceOnUse"
       gradientTransform="matrix(-0.72153181,1.2650715,-2.2729984,-1.2616144,1712.0113,1733.7841)"
       cx="-307.14288"
       cy="782.36218"
       fx="-307.14288"
       fy="782.36218"
       r="63" />
    <linearGradient
       inkscape:collect="always"
       id="linearGradient4801-8">
      <stop
         style="stop-color:#000000;stop-opacity:1;"
         offset="0"
         id="stop4803-2" />
      <stop
         style="stop-color:#000000;stop-opacity:0;"
         offset="1"
         id="stop4805-4" />
    </linearGradient>
    <inkscape:path-effect
       effect="spiro"
       id="path-effect10108-4"
       is_visible="true" />
    <linearGradient
       inkscape:collect="always"
       xlink:href="#linearGradient4719-5"
       id="linearGradient4044"
       gradientUnits="userSpaceOnUse"
       gradientTransform="matrix(-2.4055369,0,0,-1.6485021,142.06168,1726.5307)"
       x1="-145.25935"
       y1="984.24286"
       x2="-64.14286"
       y2="984.14789" />
    <radialGradient
       inkscape:collect="always"
       xlink:href="#linearGradient4801-8"
       id="radialGradient4046"
       gradientUnits="userSpaceOnUse"
       gradientTransform="matrix(0.74628962,-0.90897301,2.3509914,0.90648896,-1165.637,-827.11785)"
       cx="-307.14288"
       cy="782.36218"
       fx="-307.14288"
       fy="782.36218"
       r="63" />
    <inkscape:path-effect
       effect="spiro"
       id="path-effect10102-7"
       is_visible="true" />
    <linearGradient
       inkscape:collect="always"
       xlink:href="#linearGradient4719-5"
       id="linearGradient4049"
       gradientUnits="userSpaceOnUse"
       gradientTransform="matrix(2.334989,0,0,-1.6146975,449.44065,1692.189)"
       x1="-145.25935"
       y1="984.24286"
       x2="-64.14286"
       y2="984.14789" />
    <radialGradient
       inkscape:collect="always"
       xlink:href="#linearGradient4801-8"
       id="radialGradient4051"
       gradientUnits="userSpaceOnUse"
       gradientTransform="matrix(-0.72440295,-0.89033332,-2.2820431,0.88790031,1718.7881,-809.09364)"
       cx="-307.14288"
       cy="782.36218"
       fx="-307.14288"
       fy="782.36218"
       r="63" />
    <inkscape:path-effect
       is_visible="true"
       id="path-effect10096-8"
       effect="spiro" />
    <linearGradient
       inkscape:collect="always"
       xlink:href="#linearGradient4719-5"
       id="linearGradient4054"
       gradientUnits="userSpaceOnUse"
       gradientTransform="matrix(-2.409599,0,0,2.2818507,139.61083,-1810.8163)"
       x1="-145.25935"
       y1="984.24286"
       x2="-64.14286"
       y2="984.14789" />
    <radialGradient
       inkscape:collect="always"
       xlink:href="#linearGradient4801-8"
       id="radialGradient4056"
       gradientUnits="userSpaceOnUse"
       gradientTransform="matrix(0.74754985,1.2581972,2.3549614,-1.2547588,-1170.296,1723.935)"
       cx="-307.14288"
       cy="782.36218"
       fx="-307.14288"
       fy="782.36218"
       r="63" />
    <inkscape:path-effect
       is_visible="true"
       id="path-effect10090-3"
       effect="spiro" />
    <inkscape:path-effect
       effect="spiro"
       id="path-effect10084-1"
       is_visible="true" />
    <inkscape:path-effect
       effect="spiro"
       id="path-effect10082-1"
       is_visible="true" />
    <radialGradient
       inkscape:collect="always"
       xlink:href="#linearGradient4801-8"
       id="radialGradient4061"
       gradientUnits="userSpaceOnUse"
       gradientTransform="matrix(-0.76516322,1.2901254,-2.4104477,-1.2865998,1806.8444,1757.4704)"
       cx="-307.14288"
       cy="782.36218"
       fx="-307.14288"
       fy="782.36218"
       r="63" />
    <inkscape:path-effect
       effect="spiro"
       id="path-effect10080-4"
       is_visible="true" />
    <inkscape:path-effect
       is_visible="true"
       id="path-effect3075-1"
       effect="spiro" />
    <inkscape:path-effect
       effect="spiro"
       id="path-effect3101-7"
       is_visible="true" />
    <linearGradient
       inkscape:collect="always"
       xlink:href="#grad1-7-7"
       id="linearGradient3085-8-8"
       gradientUnits="userSpaceOnUse"
       gradientTransform="matrix(0.77469594,0,0,0.30982404,152.68996,-13.619206)"
       x1="78.877235"
       y1="178.07356"
       x2="301.40585"
       y2="178.07356" />
    <linearGradient
       id="grad1-7-7"
       x1="78.877235"
       y1="178.07356"
       x2="301.40585"
       y2="178.07356"
       gradientTransform="scale(1.577772,0.63380513)"
       gradientUnits="userSpaceOnUse">
      <stop
         offset="0%"
         style="stop-color:#da0;"
         id="stop16-4-4" />
      <stop
         offset="40%"
         style="stop-color:#fd0;"
         id="stop18-0-0" />
      <stop
         offset="60%"
         style="stop-color:#fd0;"
         id="stop20-9-9" />
      <stop
         offset="100%"
         style="stop-color:#da0;"
         id="stop22-4-4" />
    </linearGradient>
    <linearGradient
       inkscape:collect="always"
       xlink:href="#grad1-7-7"
       id="linearGradient3081-8-8"
       gradientUnits="userSpaceOnUse"
       gradientTransform="matrix(0.77469594,0,0,0.30982404,-27.310046,-13.619206)"
       x1="78.877235"
       y1="178.07356"
       x2="301.40585"
       y2="178.07356" />
    <linearGradient
       id="linearGradient3093"
       x1="78.877235"
       y1="178.07356"
       x2="301.40585"
       y2="178.07356"
       gradientTransform="scale(1.577772,0.63380513)"
       gradientUnits="userSpaceOnUse">
      <stop
         offset="0%"
         style="stop-color:#da0;"
         id="stop3095" />
      <stop
         offset="40%"
         style="stop-color:#fd0;"
         id="stop3097" />
      <stop
         offset="60%"
         style="stop-color:#fd0;"
         id="stop3099" />
      <stop
         offset="100%"
         style="stop-color:#da0;"
         id="stop3101" />
    </linearGradient>
    <linearGradient
       y2="178.07356"
       x2="301.40585"
       y1="178.07356"
       x1="78.877235"
       gradientTransform="matrix(0.77469594,0,0,0.30982404,332.68995,-13.619206)"
       gradientUnits="userSpaceOnUse"
       id="linearGradient3128-1"
       xlink:href="#grad1-7-7"
       inkscape:collect="always" />
    <linearGradient
       id="linearGradient3104"
       x1="78.877235"
       y1="178.07356"
       x2="301.40585"
       y2="178.07356"
       gradientTransform="scale(1.577772,0.63380513)"
       gradientUnits="userSpaceOnUse">
      <stop
         offset="0%"
         style="stop-color:#da0;"
         id="stop3106" />
      <stop
         offset="40%"
         style="stop-color:#fd0;"
         id="stop3108" />
      <stop
         offset="60%"
         style="stop-color:#fd0;"
         id="stop3110" />
      <stop
         offset="100%"
         style="stop-color:#da0;"
         id="stop3112" />
    </linearGradient>
    <inkscape:path-effect
       is_visible="true"
       id="path-effect3061"
       effect="spiro" />
    <clipPath
       clipPathUnits="userSpaceOnUse"
       id="clipPath10110">
      <path
         style="fill:#ffff00;fill-opacity:1;stroke:none"
         id="path10112"
         d="M 598,2 V 259 C 598,545 300,657 300,657 300,657 2,545 2,259 V 2 z"
         inkscape:connector-curvature="0" />
    </clipPath>
    <linearGradient
       inkscape:collect="always"
       xlink:href="#linearGradient5451"
       id="linearGradient5457"
       x1="-491.73343"
       y1="496.60559"
       x2="-128.62625"
       y2="496.60559"
       gradientUnits="userSpaceOnUse"
       spreadMethod="pad" />
    <linearGradient
       inkscape:collect="always"
       xlink:href="#linearGradient5451"
       id="linearGradient6923"
       gradientUnits="userSpaceOnUse"
       spreadMethod="pad"
       x1="-491.73343"
       y1="496.60559"
       x2="-128.62625"
       y2="496.60559" />
    <radialGradient
       inkscape:collect="always"
       xlink:href="#linearGradient3904"
       id="radialGradient3916"
       cx="334.25"
       cy="274.85938"
       fx="334.25"
       fy="274.85938"
       r="266.25"
       gradientTransform="matrix(0.03365959,1.9431845,-1.0340585,0.01791183,607.21995,-379.57329)"
       gradientUnits="userSpaceOnUse" />
  </defs>
  <g
     inkscape:groupmode="layer"
     id="layer2"
     inkscape:label="Elements"
     style="display:inline">
    <path
       d="m 2,2 v 257 c 0,286 298,398 298,398 0,0 298,-112 298,-398 V 2 z"
       id="field"
       inkscape:connector-curvature="0"
       style="fill:#738276;display:inline" />
    <path
       inkscape:connector-curvature="0"
       style="fill:url(#radialGradient3916);stroke:none;stroke-width:5;stroke-linejoin:round;display:inline;fill-opacity:1"
       d="m 491.96875,2 c -8.88851,10.960475 -17.46872,22.137787 -25.9375,33.34375 -21.18269,28.0323 -31.05597,64.62832 -56.15625,89.21875 -19.09068,18.71032 -68.71875,41.3125 -68.71875,41.3125 0,0 42.6092,-43.35181 49.78125,-71.5 3.32577,-13.05604 -4.40625,-40.15625 -4.40625,-40.15625 0,0 -27.30051,45.93523 -43.5625,67.0625 -24.24439,31.49452 -59.10468,54.56267 -80.03125,88.34375 -18.00489,29.07532 -20.39913,65.84677 -37.375,95.53125 -6.97396,12.19571 -14.83869,24.66673 -26.03125,33.15625 -4.3629,3.31141 -15.1875,6.28125 -15.1875,6.28125 0,0 -1.043,-3.88786 -0.71875,-5.8125 3.64857,-21.66556 26.51115,-37.35034 28.9375,-59.1875 1.35286,-12.19441 -8.5,-35.8125 -8.5,-35.8125 0,0 -12.00556,32.40141 -21.9375,46.28125 -19.51127,27.25953 -54.86329,41.31709 -72.09375,70.0625 -10.396161,17.35807 -9.81863,39.32192 -16.78125,58.3125 -7.17949,19.57372 -13.476554,40.04413 -22.75,58.71875 18.572264,26.73368 39.5243,50.18467 61.03125,70.5625 6.04188,-8.31398 12.72908,-15.76561 20.6875,-21.34375 34.0724,-23.87944 82.71454,-22.04361 115.1875,-48.0625 15.35291,-12.30601 19.69312,-34.76895 34.0625,-48.21875 20.04927,-18.76446 52.13149,-22.36447 70.28125,-42.96875 19.21362,-21.82087 35.75,-79.5625 35.75,-79.5625 0,0 -8.12726,19.3193 -14.53125,27.46875 -8.52651,10.84948 -19.42486,19.95788 -31,27.46875 -16.54357,10.73311 -53.875,24.4375 -53.875,24.4375 0,0 33.70204,-29.29337 49,-45.5 26.80183,-28.39939 42.97523,-67.471 74.65625,-90.3125 31.46337,-22.68068 78.54431,-17.37827 108.5,-42 27.52031,-22.6187 33.41245,-63.75466 57.15625,-90.3125 0.18599,-0.20809 0.40296,-0.41507 0.59375,-0.625 l 0,-37.28125 c -16.16497,9.223427 -32.40625,20.3125 -32.40625,20.3125 0,0 14.07474,-11.211801 32.40625,-27.125 L 598,2 491.96875,2 z"
       id="path102" />
    <path
       id="path15379_16"
       class="fil8 str7"
       d="m 241.50984,413.55646 c -0.27608,0.10248 -1.00375,0.39294 -1.29996,0.46346 -0.45106,0.0917 -1.28705,-0.0422 -1.73046,0.0524 -1.38657,0.23667 -3.58899,0.28367 -5.19508,0.14875 -8.55281,-0.92712 -19.50314,-6.76313 -29.38228,-16.2785 -9.40969,-9.06173 -15.66712,-19.51517 -17.22652,-27.75226 -0.11735,-0.71153 -0.35126,-2.19345 -0.42526,-2.98355 -0.008,-0.37811 -0.007,-1.34711 0.007,-1.7116 0.058,-0.78322 0.26151,-2.21168 0.44271,-3.00884 0.20173,-0.47864 0.69127,-1.35777 0.8703,-1.73556 0.19678,-0.3671 0.60921,-1.30034 0.87124,-1.73774 0.0817,-0.0798 0.38086,-0.38265 0.43407,-0.43938 l 0.43501,-0.44157 50.36895,-51.0798 c 0.0422,-0.0453 0.3918,-0.39616 0.43401,-0.44045 0.0565,-0.0569 0.35454,-0.35857 0.43409,-0.43937 0.37161,-0.23663 1.33777,-0.70214 1.73492,-0.9061 0.4278,-0.22723 1.21179,-0.6463 1.73392,-0.90496 0.39751,-0.18047 0.9201,-0.37927 1.30091,-0.46566 0.4471,-0.0167 1.46005,-0.0144 1.73045,-0.0524 0.92143,-0.0777 2.45471,-0.17152 3.46336,-0.0995 8.59174,0.84668 20.27014,6.64349 30.24818,16.25442 10.98144,10.57626 17.24651,23.28801 17.21342,32.03212 -0.004,0.14888 0.006,0.70979 -0.003,0.85687 -0.0345,0.43098 -0.36828,0.8856 -0.43622,1.29617 -0.0907,0.43976 -0.29526,1.60733 -0.43948,2.15197 -0.0899,0.22689 -0.32073,0.964 -0.43736,1.29518 -0.0436,0.0562 -0.37868,0.38358 -0.43395,0.4415 -0.19473,0.17342 -0.71913,0.7274 -0.86916,0.87989 -0.0807,0.0798 -0.37761,0.38351 -0.43288,0.44144 -0.0432,0.0454 -0.39174,0.39721 -0.43515,0.43945 l -50.36888,51.08087 -0.43508,0.4405 c -0.0575,0.057 -0.35467,0.35645 -0.43296,0.44037 -0.15235,0.14942 -0.69949,0.68128 -0.86909,0.88095 -0.0565,0.0569 -0.37902,0.39538 -0.43408,0.43938 -0.063,0.036 -0.36838,0.41183 -0.43502,0.44157 z m -7.26602,-29.32187 c 0.0726,-0.0365 0.3691,-0.40011 0.43401,-0.44045 0.0561,-0.0461 0.37855,-0.38571 0.43508,-0.4405 0.21948,-0.24123 0.6682,-0.68578 0.8681,-0.87981 l 29.9603,-30.3838 c 0.0637,-0.0787 0.37644,-0.35029 0.43508,-0.44051 0.2234,-0.38691 0.67573,-1.38462 0.87018,-1.73768 0.70823,-1.29036 1.12902,-3.15349 1.31406,-4.74446 0.0594,-0.79505 0.12569,-1.82583 0.007,-2.56833 -0.12286,-0.59141 -0.23834,-1.53619 -0.42633,-2.12682 -0.15424,-0.44083 -0.65676,-1.26034 -0.86042,-1.68745 -0.21932,-0.4208 -0.5826,-1.28947 -0.85935,-1.68751 -0.29854,-0.38708 -0.93065,-0.89495 -1.29543,-1.24589 -0.22505,-0.21724 -0.58151,-0.60719 -0.86261,-0.83172 -0.74307,-0.5556 -1.94196,-1.28975 -2.59214,-1.6382 -0.59771,-0.24259 -1.9065,-0.60531 -2.59427,-0.78143 -0.33191,-0.076 -1.01988,-0.34296 -1.2977,-0.3912 -0.15367,-0.0113 -0.70814,0.0326 -0.86608,0.0208 -0.31604,0.008 -1.41039,0.0221 -1.73152,0.0524 -0.32048,0.041 -0.98218,0.39589 -1.2999,0.46452 -0.78662,0.20105 -1.90087,0.6061 -2.59968,0.93118 -0.13462,0.0725 -0.73789,-0.0511 -0.8661,0.0209 -0.35126,0.20223 -0.91825,1.09143 -1.30311,1.32139 -0.0894,0.0589 -0.78517,-0.0375 -0.86608,0.021 l -29.96025,30.38485 c -0.0975,0.1022 -0.33404,0.32632 -0.43407,0.43939 -0.41132,0.49681 -0.97559,1.64038 -1.30639,2.17718 -0.0702,0.12938 -0.37838,0.31833 -0.43294,0.44038 -0.19957,0.49669 -0.32054,1.63134 -0.4405,2.1531 -0.0269,0.15353 0.0185,0.68764 -0.003,0.85574 -0.0306,0.35694 -5.8e-4,1.33691 -0.006,1.71153 0.0127,0.55857 -0.0837,1.23824 -0.006,1.71154 0.16694,0.7887 0.88556,2.04633 1.28902,2.9596 0.16892,0.34902 0.25772,0.97887 0.42853,1.2711 0.40018,0.61508 1.1482,1.7939 1.7241,2.5191 0.0953,0.10644 0.33864,0.3258 0.43081,0.41642 0.22259,0.21204 0.62221,0.64322 0.86355,0.82952 0.62243,0.43678 1.51774,0.87614 2.16033,1.22292 0.26113,0.12527 0.97303,0.27632 1.29656,0.39021 0.85498,0.26962 1.9087,0.65864 2.59541,0.78241 0.48215,0.0668 1.58813,0.31356 2.16245,0.36613 0.57959,-0.0889 1.70288,-0.39826 2.16681,-0.48974 0.45828,-0.11353 1.60728,-0.31755 2.1646,-0.49067 0.36574,-0.17531 0.86574,-0.21872 1.30097,-0.46459 z"
       inkscape:connector-curvature="0"
       style="fill:#008800;fill-rule:evenodd;stroke:#000000;stroke-width:2;stroke-linecap:round;stroke-linejoin:round;stroke-miterlimit:4;stroke-dasharray:none" />
    <path
       id="path15381_17"
       class="fil8 str7"
       d="m 142.5586,512.47316 c -0.27715,0.10249 -1.00476,0.39408 -1.30091,0.46566 -0.45106,0.0917 -1.28605,-0.0433 -1.73045,0.0524 -1.38664,0.23561 -3.589,0.28368 -5.19508,0.14876 -8.55288,-0.9282 -19.50313,-6.76313 -29.38227,-16.2785 -9.409834,-9.06386 -15.667192,-19.51625 -17.226528,-27.75227 -0.117344,-0.71152 -0.351269,-2.19344 -0.424266,-2.98469 -0.0085,-0.37696 -0.0085,-1.34704 0.0057,-1.71153 0.05803,-0.78321 0.261583,-2.2106 0.442766,-3.00777 0.201666,-0.47971 0.691214,-1.35883 0.870232,-1.73661 0.196796,-0.36712 0.609299,-1.29928 0.871236,-1.73776 0.08281,-0.08 0.380937,-0.38157 0.435151,-0.43944 l 0.434018,-0.44044 50.369951,-51.08093 c 0.0422,-0.0453 0.39073,-0.39608 0.43294,-0.44037 0.0575,-0.057 0.3546,-0.35751 0.43516,-0.43944 0.37161,-0.23664 1.3367,-0.70207 1.73385,-0.90605 0.4278,-0.22722 1.21285,-0.64635 1.73498,-0.90502 0.39645,-0.1804 0.91904,-0.3792 1.29985,-0.4656 0.44816,-0.0167 1.46005,-0.0144 1.73045,-0.0524 0.9225,-0.0779 2.45577,-0.17159 3.46336,-0.0995 8.59174,0.84668 20.27021,6.64457 30.24818,16.25442 10.98142,10.57627 17.24764,23.28903 17.21349,32.0332 -0.004,0.14782 0.006,0.70871 -0.003,0.85579 -0.0347,0.43099 -0.36723,0.88555 -0.43623,1.29618 -0.0907,0.43977 -0.2952,1.6084 -0.43948,2.15198 -0.0899,0.22687 -0.31965,0.96391 -0.43729,1.29624 -0.0436,0.0562 -0.37867,0.38358 -0.43402,0.44044 -0.19474,0.1734 -0.71807,0.72732 -0.86804,0.88088 -0.0817,0.0798 -0.37767,0.38245 -0.434,0.44044 -0.0432,0.0454 -0.39168,0.39828 -0.43409,0.43938 l -50.36988,51.08199 -0.43408,0.43938 c -0.0586,0.0571 -0.35572,0.35651 -0.43402,0.44045 -0.15229,0.15048 -0.69949,0.68126 -0.86909,0.88094 -0.0554,0.0569 -0.37902,0.39537 -0.43408,0.43937 -0.063,0.036 -0.3684,0.41184 -0.43402,0.44045 z m -7.26696,-29.31968 c 0.0726,-0.0365 0.36903,-0.40118 0.43395,-0.4415 0.057,-0.0463 0.37853,-0.38572 0.43514,-0.43944 0.2194,-0.24229 0.66821,-0.68578 0.86803,-0.88089 l 29.96131,-30.38493 c 0.0626,-0.0787 0.37543,-0.34916 0.43408,-0.43937 0.22339,-0.38692 0.67573,-1.38462 0.87123,-1.73774 0.70717,-1.29029 1.12797,-3.15342 1.313,-4.7444 0.0604,-0.79512 0.12584,-1.82584 0.007,-2.56832 -0.12272,-0.59141 -0.23834,-1.53621 -0.42633,-2.12684 -0.15424,-0.44083 -0.65669,-1.25926 -0.85935,-1.68751 -0.22038,-0.42074 -0.58366,-1.28941 -0.86035,-1.68639 -0.2986,-0.38814 -0.92965,-0.89606 -1.29549,-1.24693 -0.22399,-0.21731 -0.58151,-0.60721 -0.86256,-0.83066 -0.74312,-0.55667 -1.94201,-1.29082 -2.59219,-1.63928 -0.59778,-0.24365 -1.9065,-0.60531 -2.59427,-0.78141 -0.33191,-0.076 -1.01983,-0.3419 -1.2977,-0.39121 -0.15367,-0.0113 -0.70816,0.0325 -0.86608,0.0209 -0.31606,0.008 -1.41039,0.0221 -1.73152,0.0524 -0.32048,0.0411 -0.9822,0.39588 -1.29992,0.46452 -0.78662,0.20104 -1.90085,0.60609 -2.5986,0.93111 -0.13561,0.0725 -0.73789,-0.0511 -0.86609,0.0209 -0.3524,0.20123 -0.91946,1.08937 -1.30425,1.32039 -0.0895,0.0589 -0.78517,-0.0375 -0.86608,0.0209 l -29.96025,30.38485 c -0.0964,0.1022 -0.33298,0.32624 -0.43408,0.43937 -0.41131,0.49681 -0.97558,1.64039 -1.30531,2.17713 -0.0712,0.12952 -0.37939,0.31945 -0.43402,0.44044 -0.19957,0.49669 -0.32046,1.63241 -0.43942,2.15304 -0.028,0.15358 0.0174,0.68769 -0.003,0.85579 -0.0306,0.35695 -5.8e-4,1.33692 -0.006,1.71155 0.0127,0.55963 -0.0837,1.23824 -0.006,1.71153 0.16696,0.7887 0.88564,2.04739 1.28908,2.96067 0.16888,0.34796 0.25766,0.9778 0.42848,1.27002 0.40018,0.61509 1.14821,1.79392 1.7241,2.5191 0.0954,0.10758 0.3387,0.32688 0.43181,0.41529 0.22166,0.21425 0.62128,0.64541 0.86368,0.83166 0.62136,0.43685 1.5166,0.87513 2.16026,1.22186 0.26012,0.12626 0.97196,0.27637 1.29557,0.39134 0.85491,0.26856 1.90864,0.65758 2.5964,0.78128 0.48108,0.0668 1.58706,0.31361 2.1614,0.36619 0.57957,-0.0889 1.70294,-0.39721 2.16679,-0.48974 0.45828,-0.11352 1.60836,-0.31762 2.16574,-0.48967 0.36467,-0.17525 0.86461,-0.21973 1.2999,-0.46452 z"
       inkscape:connector-curvature="0"
       style="fill:#008800;fill-rule:evenodd;stroke:#000000;stroke-width:2;stroke-linecap:round;stroke-linejoin:round;stroke-miterlimit:4;stroke-dasharray:none" />
    <path
       id="path15383_18"
       class="fil8 str7"
       d="m 173.18666,441.70276 -0.004,-0.006 c -5.70203,4.5551 -10.53214,3.34467 -14.72136,-0.6247 -4.18816,-3.96944 -2.90512,-10.27025 0.12598,-12.45453 l -0.12612,-0.24362 -0.69952,1.15292 c 0,0 55.01173,-55.32732 55.05013,-55.36389 1.54399,-2.03451 8.66363,-4.13303 13.07326,0.23995 3.86785,3.83822 3.32887,11.18335 1.09818,13.1989 l -53.60502,53.91618 -0.19089,0.18386 z"
       nodetypes="ccsccccsccc"
       inkscape:connector-curvature="0"
       style="fill:#008800;fill-rule:evenodd;stroke:#000000;stroke-width:2;stroke-linecap:round;stroke-linejoin:round;stroke-miterlimit:4;stroke-dasharray:none" />
    <path
       id="path15385_24"
       class="fil8 str7"
       d="m 529.28847,124.77306 c -0.27673,0.0917 -1.00376,0.39293 -1.30098,0.46458 -0.45106,0.0917 -1.28598,-0.0422 -1.73152,0.0524 -1.38557,0.23556 -3.58794,0.28363 -5.19401,0.14872 -8.5518,-0.92827 -19.50207,-6.76322 -29.38227,-16.27852 -9.40977,-9.06279 -15.6672,-19.516227 -17.22547,-27.752318 -0.11734,-0.711526 -0.35233,-2.193378 -0.42526,-2.983563 -0.008,-0.378106 -0.007,-1.347111 0.006,-1.712591 0.059,-0.783277 0.26158,-2.210619 0.44276,-3.007782 0.20274,-0.479767 0.69228,-1.358888 0.87131,-1.736683 0.19685,-0.366047 0.60822,-1.299211 0.87124,-1.737745 0.0817,-0.07983 0.37986,-0.381517 0.43407,-0.439383 l 0.43402,-0.440431 50.36995,-51.080937 c 0.0422,-0.04535 0.39181,-0.39615 0.43402,-0.440442 0.0565,-0.05693 0.35459,-0.35751 0.43407,-0.439376 0.37161,-0.236628 1.33779,-0.702132 1.73493,-0.906097 0.4268,-0.226101 1.21178,-0.646297 1.73391,-0.904968 0.39645,-0.180393 0.91911,-0.378133 1.29884,-0.464458 0.44924,-0.01679 1.46047,-0.02515 1.73153,-0.05243 0.92249,-0.07781 2.45577,-0.171592 3.46343,-0.09846 8.59166,0.845609 20.27014,6.643501 30.24809,16.253354 10.98252,10.576198 17.24766,23.289013 17.21457,32.033125 -0.004,0.14789 0.004,0.70878 -0.003,0.855793 -0.0345,0.430989 -0.36829,0.885617 -0.43729,1.296238 -0.0907,0.440841 -0.29414,1.60834 -0.4395,2.151975 -0.0888,0.226818 -0.31958,0.964984 -0.43727,1.296252 -0.0436,0.05619 -0.37761,0.383514 -0.43296,0.440374 -0.19473,0.173398 -0.71913,0.727394 -0.8691,0.880946 -0.0817,0.07983 -0.37767,0.382453 -0.43402,0.440445 -0.0432,0.04544 -0.3906,0.398207 -0.43407,0.43937 l -50.36988,51.082002 -0.43408,0.43938 c -0.0575,0.057 -0.35466,0.35643 -0.43402,0.44043 -0.15123,0.15042 -0.69943,0.68234 -0.86803,0.88089 -0.0565,0.0569 -0.38008,0.39543 -0.43514,0.43944 -0.063,0.0359 -0.36833,0.4129 -0.43396,0.44151 z m -7.26703,-29.320756 c 0.0737,-0.03652 0.3691,-0.400103 0.43402,-0.440445 0.0561,-0.04614 0.37853,-0.385707 0.43508,-0.440501 0.2194,-0.24229 0.66819,-0.685778 0.86809,-0.879814 L 553.71886,63.30669 c 0.0637,-0.0787 0.37644,-0.350292 0.43616,-0.440572 0.22239,-0.385793 0.67573,-1.384622 0.86917,-1.736556 0.70823,-1.29035 1.12895,-3.154554 1.31506,-4.745583 0.0594,-0.795069 0.12471,-1.825774 0.007,-2.56721 -0.12187,-0.592539 -0.23733,-1.537325 -0.42639,-2.127883 -0.15423,-0.440827 -0.65669,-1.259279 -0.85936,-1.687523 -0.21931,-0.420797 -0.58366,-1.289401 -0.86033,-1.686376 -0.29754,-0.388213 -0.92967,-0.896064 -1.29445,-1.247007 -0.22611,-0.217194 -0.58151,-0.607204 -0.86362,-0.830583 -0.74312,-0.556686 -1.94093,-1.290888 -2.59111,-1.639354 -0.59879,-0.242517 -1.90758,-0.605237 -2.59534,-0.781352 -0.33192,-0.07601 -1.01983,-0.341899 -1.29663,-0.391271 -0.15368,-0.01132 -0.70922,0.0327 -0.8661,0.02095 -0.31604,0.0085 -1.41145,0.02222 -1.73152,0.05237 -0.32048,0.04105 -0.98324,0.395971 -1.30096,0.464594 -0.78549,0.202047 -1.89981,0.606029 -2.59862,0.931111 -0.13561,0.07247 -0.73787,-0.0511 -0.86715,0.02095 -0.35127,0.202231 -0.91725,1.090297 -1.30205,1.32132 -0.0895,0.05889 -0.78624,-0.03751 -0.86609,0.02095 l -29.96136,30.383849 c -0.0964,0.102199 -0.33299,0.326243 -0.43508,0.440502 -0.40927,0.495621 -0.9746,1.639269 -1.30533,2.177128 -0.0702,0.129376 -0.37731,0.318259 -0.43294,0.440374 -0.19963,0.495635 -0.32054,1.631342 -0.43943,2.15305 -0.027,0.152449 0.0174,0.686614 -0.003,0.854661 -0.0316,0.358078 -10e-4,1.336976 -0.007,1.711601 0.0127,0.559629 -0.0825,1.238174 -0.006,1.712605 0.16802,0.788628 0.88664,2.046266 1.29008,2.959528 0.16894,0.349032 0.2566,0.977879 0.42847,1.270037 0.39911,0.615145 1.14715,1.793968 1.72304,2.519154 0.0953,0.106445 0.3387,0.32688 0.43188,0.416367 0.22158,0.213173 0.6212,0.644347 0.86361,0.830583 0.62137,0.43685 1.5166,0.875129 2.16025,1.221854 0.26014,0.126262 0.97198,0.276375 1.29664,0.391271 0.85491,0.268562 1.90863,0.657582 2.59533,0.781352 0.48109,0.06681 1.58714,0.314693 2.16247,0.366132 0.57851,-0.08889 1.70189,-0.397131 2.16573,-0.489676 0.45828,-0.113664 1.60835,-0.317623 2.16573,-0.489676 0.36468,-0.175238 0.86569,-0.219783 1.29991,-0.464522 z"
       inkscape:connector-curvature="0"
       style="fill:#008800;fill-rule:evenodd;stroke:#000000;stroke-width:2;stroke-linecap:round;stroke-linejoin:round;stroke-miterlimit:4;stroke-dasharray:none" />
    <path
       id="path15389_26"
       class="fil8 str7"
       d="m 430.33786,223.70041 c -0.27779,0.0919 -1.00481,0.393 -1.30096,0.46459 -0.45213,0.0919 -1.28705,-0.0422 -1.73152,0.0524 -1.3855,0.23661 -3.589,0.28367 -5.19402,0.14869 -8.5528,-0.92713 -19.50314,-6.76314 -29.38334,-16.27844 -9.40869,-9.06285 -15.66712,-19.51517 -17.22545,-27.75232 -0.11735,-0.71153 -0.35233,-2.19338 -0.42427,-2.98469 -0.008,-0.37698 -0.008,-1.34598 0.004,-1.7104 0.059,-0.78328 0.26151,-2.21168 0.44271,-3.00885 0.20273,-0.47976 0.69226,-1.35888 0.87136,-1.7356 0.1968,-0.36713 0.60816,-1.30029 0.87124,-1.73776 0.0828,-0.08 0.38087,-0.38264 0.43407,-0.43937 l 0.43395,-0.44151 50.37002,-51.07987 c 0.0422,-0.0453 0.39174,-0.39722 0.43401,-0.44044 0.0565,-0.0569 0.35454,-0.35858 0.43402,-0.44044 0.37168,-0.23557 1.33785,-0.70107 1.73498,-0.90504 0.42674,-0.22716 1.21179,-0.6463 1.73392,-0.90497 0.39638,-0.18145 0.91904,-0.37919 1.29879,-0.46551 0.44922,-0.0168 1.46046,-0.0252 1.73258,-0.0525 0.92143,-0.0777 2.4547,-0.17153 3.46337,-0.0995 8.59066,0.84675 20.26913,6.64463 30.2471,16.25449 10.9825,10.5762 17.24764,23.28901 17.21455,32.03313 -0.004,0.14789 0.004,0.70878 -0.003,0.85579 -0.0345,0.43205 -0.36828,0.88562 -0.43621,1.29618 -0.0917,0.4409 -0.29521,1.6084 -0.43943,2.15304 -0.0899,0.22689 -0.32072,0.96398 -0.43842,1.29524 -0.0426,0.0561 -0.37761,0.38352 -0.43296,0.44038 -0.19359,0.1744 -0.71912,0.72739 -0.86908,0.88094 -0.0817,0.0798 -0.37768,0.38246 -0.43402,0.44045 -0.0422,0.0453 -0.39062,0.39821 -0.43409,0.43937 l -50.36988,51.082 -0.43407,0.43938 c -0.0575,0.057 -0.35467,0.35644 -0.43402,0.44043 -0.15122,0.15043 -0.69844,0.68122 -0.86803,0.88089 -0.0565,0.0569 -0.38008,0.39543 -0.43508,0.4405 -0.0637,0.0253 -0.36839,0.41184 -0.43295,0.44038 z m -7.26809,-29.32069 c 0.0738,-0.0367 0.36911,-0.4001 0.43503,-0.44156 0.0549,-0.0462 0.37754,-0.38459 0.43407,-0.43938 0.2194,-0.24229 0.6682,-0.68578 0.86809,-0.87982 l 29.96131,-30.38492 c 0.0626,-0.0787 0.37544,-0.34916 0.43508,-0.4405 0.22239,-0.3858 0.67573,-1.38463 0.87024,-1.73663 0.70822,-1.29035 1.12902,-3.15348 1.31407,-4.74445 0.0595,-0.79507 0.1247,-1.82578 0.007,-2.56833 -0.12287,-0.59248 -0.23834,-1.53621 -0.42641,-2.1279 -0.15423,-0.44082 -0.65775,-1.25921 -0.86035,-1.68637 -0.21937,-0.42188 -0.58366,-1.28942 -0.86041,-1.68745 -0.29753,-0.38822 -0.92959,-0.89501 -1.29442,-1.24701 -0.22606,-0.21612 -0.58146,-0.60614 -0.86362,-0.83059 -0.74307,-0.55562 -1.9409,-1.28982 -2.59113,-1.63935 -0.59879,-0.24252 -1.90751,-0.60417 -2.59528,-0.78029 -0.33191,-0.076 -1.01988,-0.34296 -1.29669,-0.39233 -0.15368,-0.0113 -0.70922,0.0327 -0.86609,0.0208 -0.31605,0.008 -1.41146,0.0222 -1.73153,0.0524 -0.32048,0.0411 -0.98218,0.3959 -1.30096,0.46459 -0.78556,0.20099 -1.89979,0.60603 -2.59868,0.93005 -0.1356,0.0725 -0.73788,-0.0511 -0.8661,0.0209 -0.35239,0.20123 -0.91831,1.09037 -1.30317,1.32032 -0.0895,0.059 -0.78624,-0.0375 -0.86609,0.0209 l -29.9603,30.38379 c -0.0975,0.1022 -0.33399,0.32737 -0.43508,0.4405 -0.41032,0.49568 -0.97559,1.64039 -1.30531,2.17713 -0.0713,0.12838 -0.37839,0.31833 -0.43402,0.44044 -0.19963,0.49562 -0.32047,1.63241 -0.43943,2.15304 -0.027,0.15245 0.0174,0.68769 -0.003,0.85467 -0.0316,0.35807 -0.001,1.33698 -0.007,1.71267 0.0142,0.55849 -0.0827,1.23711 -0.006,1.71046 0.16809,0.78971 0.88671,2.04733 1.29015,2.96061 0.16894,0.34902 0.2566,0.97786 0.42847,1.27002 0.39912,0.61515 1.1472,1.79505 1.72304,2.51917 0.0964,0.10743 0.33978,0.32681 0.43294,0.4163 0.2216,0.21317 0.62016,0.6444 0.86256,0.83064 0.62136,0.43686 1.51666,0.8762 2.16032,1.22293 0.26006,0.12527 0.9719,0.27531 1.29657,0.3902 0.8549,0.26857 1.90863,0.65759 2.5954,0.78242 0.48108,0.0668 1.58706,0.31361 2.16239,0.36505 0.57851,-0.0889 1.70189,-0.39713 2.1658,-0.4886 0.45828,-0.11366 1.60836,-0.31762 2.16566,-0.49073 0.36468,-0.17526 0.86569,-0.2198 1.29991,-0.46454 z"
       inkscape:connector-curvature="0"
       style="fill:#008800;fill-rule:evenodd;stroke:#000000;stroke-width:2;stroke-linecap:round;stroke-linejoin:round;stroke-miterlimit:4;stroke-dasharray:none" />
    <path
       id="path15391_27"
       class="fil8 str7"
       d="m 460.96593,152.93 -0.006,-0.006 c -5.70098,4.55503 -10.53327,3.34366 -14.72136,-0.62472 -4.18816,-3.96942 -2.90506,-10.26917 0.12598,-12.45345 l -0.12627,-0.24468 -0.69846,1.15285 c 0,0 55.01075,-55.326192 55.04915,-55.362768 1.54392,-2.035579 8.66463,-4.134161 13.07326,0.239954 3.86884,3.837091 3.32887,11.183347 1.09918,13.197763 l -53.60603,53.917321 -0.18989,0.18272 z"
       nodetypes="ccsccccsccc"
       inkscape:connector-curvature="0"
       style="fill:#008800;fill-rule:evenodd;stroke:#000000;stroke-width:2;stroke-linecap:round;stroke-linejoin:round;stroke-miterlimit:4;stroke-dasharray:none" />
    <path
       id="path15393_28"
       class="fil8 str7"
       d="m 335.03524,318.97155 c -0.27609,0.10248 -1.00375,0.39294 -1.29985,0.4656 -0.45041,0.10248 -1.28718,-0.0443 -1.73045,0.0524 -1.38557,0.23554 -3.59006,0.28375 -5.19515,0.14769 -8.55273,-0.92605 -19.502,-6.76213 -29.38333,-16.27842 -9.40863,-9.06181 -15.666,-19.51418 -17.22653,-27.75227 -0.11621,-0.71159 -0.35026,-2.19458 -0.42313,-2.98369 -0.01,-0.37803 -0.01,-1.34698 0.004,-1.71147 0.058,-0.78321 0.26264,-2.21068 0.44269,-3.00883 0.20174,-0.47865 0.69233,-1.35783 0.87131,-1.73668 0.19685,-0.36605 0.60822,-1.29921 0.87023,-1.73663 0.0839,-0.08 0.382,-0.38164 0.43515,-0.43944 l 0.43395,-0.44151 50.37,-51.07986 c 0.0422,-0.0453 0.39075,-0.39608 0.43409,-0.43938 0.0565,-0.0569 0.35453,-0.35857 0.43395,-0.44151 0.37168,-0.23555 1.33784,-0.70106 1.73392,-0.90497 0.42887,-0.22728 1.21286,-0.64635 1.73492,-0.90608 0.39645,-0.18041 0.92017,-0.37821 1.29985,-0.4656 0.44816,-0.0167 1.46111,-0.0144 1.73045,-0.0524 0.92355,-0.0778 2.45683,-0.17166 3.46336,-0.0995 8.59168,0.84561 20.27013,6.6435 30.2481,16.25336 10.98144,10.57625 17.24765,23.28901 17.21349,32.03318 -0.004,0.1489 0.006,0.70872 -0.003,0.85574 -0.0345,0.43311 -0.36823,0.88668 -0.43723,1.29731 -0.0907,0.43977 -0.29413,1.60833 -0.43948,2.15198 -0.0899,0.22687 -0.31965,0.9639 -0.43623,1.29616 -0.0447,0.0562 -0.37981,0.38258 -0.43515,0.43944 -0.1936,0.17442 -0.71807,0.72734 -0.86802,0.88089 -0.0807,0.0798 -0.37754,0.38458 -0.43402,0.44045 -0.0432,0.0454 -0.39061,0.3982 -0.43402,0.44043 l -50.36888,51.08087 -0.43508,0.44051 c -0.0565,0.0569 -0.35572,0.35651 -0.43401,0.44045 -0.15129,0.14935 -0.69844,0.6812 -0.8691,0.88094 -0.0554,0.0569 -0.37909,0.3943 -0.43295,0.44038 -0.0641,0.036 -0.36952,0.41083 -0.43515,0.43944 z m -7.26703,-29.32074 c 0.0726,-0.0365 0.3691,-0.40012 0.43508,-0.44052 0.0561,-0.0461 0.37747,-0.38563 0.43402,-0.44043 0.21946,-0.24123 0.66933,-0.68479 0.86908,-0.88096 l 29.96031,-30.38378 c 0.0626,-0.0787 0.37543,-0.34916 0.43409,-0.43938 0.22339,-0.38691 0.67672,-1.38575 0.87237,-1.73675 0.70603,-1.29129 1.12795,-3.15343 1.31292,-4.74546 0.0595,-0.79399 0.12471,-1.82577 0.007,-2.56727 -0.12187,-0.59254 -0.23947,-1.53718 -0.4264,-2.12788 -0.15537,-0.44183 -0.65782,-1.26028 -0.86041,-1.68745 -0.21939,-0.42187 -0.58267,-1.29053 -0.86042,-1.68745 -0.29747,-0.38714 -0.92958,-0.89499 -1.29443,-1.24701 -0.22391,-0.21625 -0.58252,-0.60607 -0.86362,-0.83058 -0.74306,-0.55561 -1.94194,-1.28976 -2.59212,-1.63823 -0.59672,-0.2437 -1.90651,-0.60529 -2.59427,-0.7814 -0.33085,-0.076 -1.0199,-0.34296 -1.2977,-0.39122 -0.15368,-0.0113 -0.70816,0.0327 -0.8661,0.0209 -0.31604,0.008 -1.40931,0.0221 -1.73152,0.0524 -0.32048,0.041 -0.98105,0.39689 -1.29877,0.46553 -0.78669,0.19998 -1.90092,0.60503 -2.59981,0.92905 -0.1356,0.0725 -0.73788,-0.0511 -0.86608,0.0209 -0.35132,0.20115 -0.91833,1.09036 -1.30312,1.32139 -0.0905,0.059 -0.78517,-0.0375 -0.86608,0.0208 l -29.96123,30.385 c -0.0954,0.10206 -0.33298,0.32624 -0.43408,0.43937 -0.41132,0.49681 -0.97445,1.64139 -1.30532,2.17713 -0.0702,0.12937 -0.37832,0.31939 -0.43402,0.44044 -0.19956,0.49668 -0.32052,1.63134 -0.43948,2.15198 -0.0269,0.15458 0.0185,0.68762 -0.003,0.85687 -0.0306,0.35693 -6.4e-4,1.33584 -0.006,1.71153 0.0141,0.55955 -0.0827,1.23711 -0.004,1.71145 0.16696,0.78872 0.88557,2.04634 1.28794,2.95969 0.16894,0.34902 0.25887,0.97986 0.42967,1.27209 0.39899,0.61302 1.14708,1.7929 1.72297,2.51809 0.0964,0.10744 0.33864,0.3258 0.43181,0.41529 0.22273,0.21419 0.62122,0.64435 0.86362,0.83058 0.62136,0.43687 1.51781,0.87721 2.16033,1.22293 0.26119,0.12627 0.97189,0.27532 1.29663,0.39127 0.85379,0.26758 1.90756,0.65766 2.59534,0.78136 0.48214,0.0668 1.58706,0.31361 2.16246,0.36613 0.57958,-0.0889 1.70294,-0.3972 2.16572,-0.48968 0.4583,-0.11352 1.60949,-0.31661 2.16681,-0.48974 0.36354,-0.17625 0.86461,-0.21972 1.29877,-0.46553 z"
       inkscape:connector-curvature="0"
       style="fill:#008800;fill-rule:evenodd;stroke:#000000;stroke-width:2;stroke-linecap:round;stroke-linejoin:round;stroke-miterlimit:4;stroke-dasharray:none" />
    <path
       id="path15395_29"
       class="fil8 str7"
       d="m 362.01362,251.84677 -0.006,-0.006 c -5.70091,4.55609 -10.53206,3.34572 -14.72136,-0.62471 -4.18816,-3.96943 -2.90505,-10.26918 0.12598,-12.45346 l -0.12612,-0.24468 -0.69839,1.15393 c 0,0 55.01174,-55.32734 55.04908,-55.36384 1.54398,-2.03451 8.66469,-4.1331 13.07326,0.23995 3.86891,3.83815 3.32887,11.18335 1.09924,13.19882 l -53.60609,53.91626 -0.18982,0.1838 z"
       nodetypes="ccsccccsccc"
       inkscape:connector-curvature="0"
       style="fill:#008800;fill-rule:evenodd;stroke:#000000;stroke-width:2;stroke-linecap:round;stroke-linejoin:round;stroke-miterlimit:4;stroke-dasharray:none" />
    <path
       id="path15397_30"
       class="fil8 str7"
       d="m 266.71205,347.11784 -0.006,-0.006 c -5.70203,4.55509 -10.53214,3.34466 -14.72136,-0.62471 -4.18816,-3.96943 -2.90512,-10.27026 0.12598,-12.45453 l -0.12612,-0.24362 -0.69839,1.15392 c 0,0 55.01062,-55.32832 55.04902,-55.3649 1.54611,-2.03463 8.66469,-4.1331 13.07325,0.23996 3.86784,3.83822 3.32888,11.18336 1.09925,13.19883 l -53.6061,53.91625 -0.18976,0.18486 z"
       nodetypes="ccsccccsccc"
       inkscape:connector-curvature="0"
       style="fill:#008800;fill-rule:evenodd;stroke:#000000;stroke-width:2;stroke-linecap:round;stroke-linejoin:round;stroke-miterlimit:4;stroke-dasharray:none" />
    <path
       style="fill:#008800;fill-rule:evenodd;stroke:#000000;stroke-width:2;stroke-linecap:round;stroke-linejoin:round;stroke-miterlimit:4;stroke-dasharray:none"
       d="M 584.09375,2 C 568.10853,18.084995 544.5,41.84375 544.5,41.84375 l 0.28125,-0.46875 c -2.62316,2.506554 -3.52015,8.278663 0.40625,12 4.18923,3.969369 9.01778,5.180029 14.71875,0.625 l 0.1875,-0.15625 L 598,15.71875 598,2 584.09375,2 z m -39.3125,39.375 c 0.17488,-0.167104 0.34181,-0.300983 0.53125,-0.4375 l -0.125,-0.25 -0.40625,0.6875 z m -424.5,429.375 c -2.92228,0.0215 -5.53777,1.19934 -6.40625,2.34375 -0.019,0.0182 -13.29434,13.344 -26.53125,26.65625 4.11527,5.16001 8.304103,10.17852 12.5625,15.0625 l 28.125,-28.28125 c 2.23076,-2.01447 2.77403,-9.35034 -1.09375,-13.1875 -1.92878,-1.91368 -4.38336,-2.61051 -6.65625,-2.59375 z"
       id="path15387_20"
       inkscape:connector-curvature="0" />
  </g>
  <g
     inkscape:groupmode="layer"
     id="layer1"
     inkscape:label="Cover"
     style="display:inline"
     sodipodi:insensitive="true">
    <path
       d="m 2,2 v 257 c 0,286 298,398 298,398 0,0 298,-112 298,-398 V 2 z"
       id="shine"
       inkscape:connector-curvature="0"
       style="fill:url(#radialGradient3074);stroke:#000000;stroke-width:3" />
  </g>
</svg>
