<?xml version="1.0" encoding="UTF-8" standalone="no"?>
<svg
   xmlns:dc="http://purl.org/dc/elements/1.1/"
   xmlns:cc="http://creativecommons.org/ns#"
   xmlns:rdf="http://www.w3.org/1999/02/22-rdf-syntax-ns#"
   xmlns:svg="http://www.w3.org/2000/svg"
   xmlns="http://www.w3.org/2000/svg"
   xmlns:xlink="http://www.w3.org/1999/xlink"
   width="600"
   height="660"
   version="1.1">
  <title>Brynden Rivers</title>
  <metadata>
    <rdf:RDF>
      <cc:Work rdf:about="">
        <dc:format>image/svg+xml</dc:format>
        <dc:type rdf:resource="http://purl.org/dc/dcmitype/StillImage"/>
        <dc:title>Brynden Rivers</dc:title>
        <dc:date>27 September 2020</dc:date>
        <dc:creator>
          <cc:Agent>
            <dc:title>Abjiklam (abjiklam@gmail.com)</dc:title>
          </cc:Agent>
        </dc:creator>
        <dc:description>
          The sigil of Ser Brynden Rivers, also known as Bloodraven.
          A white dragon with red eyes breathing red flame on a black field.
        </dc:description>
        <cc:license rdf:resource="http://creativecommons.org/licenses/by-nc-sa/4.0/"/>
      </cc:Work>
      <cc:License rdf:about="http://creativecommons.org/licenses/by-nc-sa/4.0/">
        <cc:permits rdf:resource="http://creativecommons.org/ns#Reproduction"/>
        <cc:permits rdf:resource="http://creativecommons.org/ns#Distribution"/>
        <cc:requires rdf:resource="http://creativecommons.org/ns#Notice"/>
        <cc:requires rdf:resource="http://creativecommons.org/ns#Attribution"/>
        <cc:prohibits rdf:resource="http://creativecommons.org/ns#CommercialUse"/>
        <cc:permits rdf:resource="http://creativecommons.org/ns#DerivativeWorks"/>
        <cc:requires rdf:resource="http://creativecommons.org/ns#ShareAlike"/>
      </cc:License>
    </rdf:RDF>
  </metadata>
  <defs>
    <radialGradient id="rg" gradientUnits="userSpaceOnUse" cx="220" cy="220" r="405">
      <stop style="stop-color:#fff;stop-opacity:.3" offset="0"/>
      <stop style="stop-color:#fff;stop-opacity:.2" offset=".2"/>
      <stop style="stop-color:#666;stop-opacity:.1" offset=".6"/>
      <stop style="stop-color:#000;stop-opacity:.13" offset="1"/>
    </radialGradient>
    <clipPath id="clip-shield">
      <path id="shield" d="m 1.5,1.5 v 258.9 c 0,286 298.5,398 298.5,398 0,0 298.5,-112 298.5,-398 V 1.5 z"/>
    </clipPath>
    <g id="head">
      <path style="fill:#ffcc00;" d="m 168.67852,114.85372 c -2.33946,-0.72918 -14.18551,3.45652 -18.16884,6.18817 -6.68285,4.58291 -12.46407,14.06222 -16.43524,19.85565 -7.57009,11.04376 -25.04085,13.11699 -31.14259,7.35131 2.51606,0.44864 5.81836,-0.5559 7.45086,-1.97572 -5.15195,-3.10946 -5.82984,-6.69729 -4.7608,-9.43762 6.88771,12.1378 21.45153,5.45333 27.10938,-1.8735 4.34923,-6.01659 8.25189,-13.70402 16.28482,-17.60572 4.87928,-2.36992 9.91026,-4.14437 17.11321,-5.43349"/>
      <path style="fill:#ffffff;" d="m 155.98199,126.19037 c -2.12539,-1.75293 -2.60523,-3.98553 -2.80271,-6.30045 1.64267,1.61665 3.1505,3.34957 6.04343,3.88798 m -5.80681,7.4303 c -2.3427,-2.21811 -3.05969,-5.09613 -3.4232,-8.11761 1.86981,2.37892 3.79319,4.66911 6.73496,5.2722 m -6.34234,7.48022 c -1.60646,-1.8836 -3.04869,-4.02497 -3.27589,-8.07323 1.98724,3.12795 4.40725,4.929 7.08421,5.94221 m -6.60931,5.82174 c -2.32736,-2.34477 -3.43382,-4.58743 -4.00352,-7.09086 2.33845,1.45653 3.78413,3.92206 7.05807,5.17883 m -6.33583,6.02279 c -2.30568,-1.49356 -4.76424,-5.22514 -5.38897,-8.49581 2.57255,2.53052 5.35006,4.77911 8.4099,5.47238 m -5.47029,8.12689 c -3.16446,-2.09977 -5.98236,-4.60987 -7.08896,-9.14613 3.4241,2.83417 6.52885,4.87055 9.05687,5.46618 m 0.79174,-30.38054 c 1.06169,1.63216 2.83572,2.85416 5.89805,3.33435 -1.54889,-1.85727 -3.27819,-3.57204 -3.10204,-6.79169 m -6.939,6.91272 c 1.4895,2.31761 3.64977,3.0579 5.92514,3.52753 -1.41122,-1.82218 -2.95385,-3.52421 -3.14666,-6.4605 m -7.193,6.10861 c 1.92575,2.58838 4.69889,3.64041 7.65626,4.3584 -2.14133,-2.13781 -4.18819,-4.31833 -4.43946,-7.31075 m -7.05247,6.66 c 1.68058,1.8178 3.63654,3.50293 7.62959,4.20687 -2.87122,-2.3429 -4.37371,-4.95877 -5.06351,-7.7367 m -5.52597,7.91332 c 2.05333,2.58811 4.14955,3.95182 6.56812,4.81332 -1.17001,-2.49417 -3.44743,-4.22104 -4.30857,-7.62054 m -6.83887,7.18273 c 1.06478,2.04156 4.05958,4.43201 6.83944,5.27127 -1.93918,-2.36413 -3.61252,-4.86833 -3.90526,-7.44901 m -9.04743,3.62269 c 1.71115,3.3904 3.8707,6.48515 8.24443,8.11999 -2.40972,-3.73499 -4.06498,-7.05861 -4.35773,-9.63929"/>
      <path d="m 172.81382,107.77379 -26.29605,43.44608 c 0,0 -6.15235,0.7807 -6.07355,-2.20031 0.11745,-4.44297 7.82816,-8.07231 11.94116,-16.6142 4.11301,-8.54189 14.51835,-24.51087 11.27477,-24.84423 -10.54049,-1.0833 -20.97291,9.04477 -27.73959,15.76686 -5.27689,5.24211 -9.69649,10.70632 -13.47065,12.74652 -4.78807,2.58828 -7.93429,0.52581 -6.00301,-4.27998 l 45.70089,-36.388193"/>
      <path d="m 181.61121,93.079177 c 0.52725,-6.070863 6.65208,-10.617748 10.76835,-7.820398 -2.49397,-7.306723 3.1921,-8.649119 7.70452,-10.854258 4.50273,-2.200416 7.30359,-8.107602 7.30359,-8.107602 -9.89311,7.353216 -12.02178,4.008889 -19.36903,7.906403 -7.38002,3.914898 -14.53106,15.109322 -29.57328,17.860801 -11.38433,2.082386 -23.14215,9.858497 -17.72387,14.210657 -7.10256,3.13683 -10.84871,7.60477 -14.37865,12.5551 -2.22945,3.12655 -14.93456,3.74086 -12.72782,14.64021 4.32428,1.25584 13.60837,-3.70108 16.95592,-8.83597 4.47375,-6.8624 11.49885,-14.06311 22.04707,-13.02172 5.59382,0.55226 8.69686,2.38242 9.16979,5.836 0.52396,3.82631 -2.84498,10.39079 -7.62449,17.80039 -5.06151,7.84679 -10.39223,12.95245 -10.1483,17.56334 0.19105,3.61151 2.71571,5.36546 4.36195,5.05227 -0.92268,-1.89194 -1.15836,-3.68884 -0.75433,-5.39726 1.47103,1.58176 3.89835,2.96752 7.32766,2.67245 -2.21879,-2.61502 -3.70067,-4.46338 -3.56898,-7.46903 0.12582,-2.87231 4.18944,-7.52381 9.06581,-7.76759 8.48536,-0.42422 8.58253,-1.49569 11.55444,-5.46231 -3.95668,1.03044 -5.6646,-0.0752 -8.5471,-0.0232 -3.37962,0.0609 -5.95717,2.90238 -5.95717,2.90238 2.38955,-4.46015 5.98902,-7.5477 12.27394,-7.81136 5.4541,-0.22883 9.27244,-1.47227 9.96101,-6.71293 -3.3304,1.48065 -5.87019,0.51345 -8.55395,0.49454 -2.8224,-0.0199 -5.29999,1.77863 -5.29999,1.77863 1.66809,-3.86667 6.81546,-9.02383 14.0737,-9.33978 3.65869,-2.78975 8.33043,-2.54224 13.62893,-0.41569 -4.93597,-5.47571 -9.23983,-8.21079 -16.84954,-8.14628"/>
      <path style="fill:none;" d="m 164.75912,115.98742 c 1.33847,-4.63052 -2.04686,-9.8681 -10.05149,-7.53912 4.453,-0.88572 9.64122,-2.19522 12.13133,-4.62378 3.0942,-3.01772 5.73749,-7.230143 4.91941,-12.013693 -4.53126,6.461763 -10.33929,8.196703 -15.93227,6.427093"/>
      <path d="m 176.41498,92.714089 c 9.6526,0.757797 15.7671,-10.145451 29.27952,-1.742972 -6.24197,-0.333454 -9.83929,6.043038 -15.21207,9.326573 -4.62668,2.82756 -9.94211,3.37423 -15.19325,1.93229"/>
      <path style="fill:#2b0000;stroke:none;" d="m 179.51341,95.631722 c 0,0 -0.92201,0.422584 -1.46995,1.195818 -0.55204,0.779025 -0.66973,1.64358 -0.66973,1.64358 0,0 0.38233,-0.785213 1.03606,-1.303099 0.66499,-0.526801 1.36482,-0.571014 1.36482,-0.571014 0.81134,-0.219544 1.80311,0.0099 2.70941,1.027049 a 0.5,0.5 0 0 0 0.86763,-0.257418 c 0.55223,-3.62995 3.51082,-3.117028 4.73162,-1.909997 a 0.5,0.5 0 0 0 0.8151,-0.168159 c 0.74662,-1.846922 1.57476,-2.583975 2.38312,-2.818675 0,0 0.61937,-0.304861 1.47186,-0.279612 0.83616,0.02477 1.68099,0.234145 1.68099,0.234145 0,0 -0.73362,-0.451279 -1.5928,-0.727739 -0.8544,-0.274926 -1.83888,-0.187135 -1.83888,-0.187135 -1.215,0.352768 -2.21522,1.385235 -3.03141,3.404228 l 0.8151,-0.168159 c -1.8596,-1.838625 -5.75838,-1.900136 -6.42332,2.470701 l 0.86763,-0.257418 c -1.12548,-1.26318 -2.48833,-1.659635 -3.71725,-1.327096 z"/>
      <path style="fill:#ffffff;" d="m 120.44691,125.47731 c 1.62651,-0.4247 2.38642,-0.20443 3.96986,0.0147 -0.60154,1.49159 -2.22832,2.59095 -3.44983,3.05192 -1.60797,0.60679 -2.92865,0.78939 -4.64269,0.85826 0.53101,-2.00234 2.15268,-3.41048 4.12266,-3.92485 z"/>
      <g id="eye">
        <path style="fill:#ffffff;stroke:none;" d="m 145.94289,106.53731 c 0,0 -0.3294,-2.65 0.93687,-4.773637 1.9213,-3.222184 5.39542,-3.904938 8.94634,-3.525753 -0.60842,2.477206 -3.22593,5.419748 -5.92763,6.88907 -1.31348,0.71434 -2.48069,1.37849 -3.95558,1.41032 z"/>
        <path style="fill:#000000;stroke:none;" d="m 147.68638,100.653425 c -0.077,0.21127 -0.43048,0.800751 -0.4618,1.267619 -0.037,0.551831 0.14498,1.373519 0.40286,1.841285 0.20542,0.372631 0.49192,0.609861 0.85156,0.839941 0.4349,0.27823 1.3643,0.51314 1.63716,0.61577 0.0672,-0.28366 0.39136,-1.18584 0.4034,-1.701983 0.01,-0.426819 -0.0268,-0.796963 -0.22125,-1.175457 -0.24403,-0.475131 -0.82404,-1.084955 -1.30249,-1.3624 -0.40478,-0.234727 -1.0912,-0.270646 -1.30944,-0.324775 z"/>
        <path style="fill:none;" d="m 145.94289,106.53731 c 0,0 -0.3294,-2.65 0.93687,-4.773637 1.9213,-3.222184 5.39542,-3.904938 8.94634,-3.525753 -0.60842,2.477206 -3.22593,5.419748 -5.92763,6.88907 -1.31348,0.71434 -2.48069,1.37849 -3.95558,1.41032 z"/>
      </g>
      <path style="fill:#ffcc00;" d="m 75.169747,148.11167 c 12.093135,-1.66062 9.308608,1.21784 14.549659,3.12084 6.206405,2.25351 6.841611,-4.89369 12.912074,-5.1617 -5.081431,-3.40953 -6.640168,1.78795 -11.907934,-1.51419 -4.725197,-2.96202 -10.412611,-1.08856 -15.553799,3.55505 z m 13.99226,-8.36599 c -2.820111,-0.45844 -5.309478,-3.90331 -10.618347,-0.14756 -3.598032,2.54543 -8.484859,-0.0345 -9.614305,-4.20489 4.429836,2.85296 6.454237,1.10895 9.516698,-0.7182 4.178954,-2.49331 8.107557,1.22945 10.715954,5.07065 z m 14.237213,1.86958 c -2.22061,-2.00992 -4.151243,-2.8855 -5.164584,-8.36849 -0.725178,-3.9238 -7.519975,-5.64909 -15.631702,-3.37739 6.25903,1.4683 9.178242,1.82543 9.793365,6.76703 0.68888,5.53413 6.315834,5.84906 11.002921,4.97885 z"/>
    </g>
  </defs>
  <use id="background" xlink:href="#shield" style="fill:#000000;"/>
  <g id="dragon" style="fill:#ffffff;stroke:#333333;stroke-width:1;stroke-linecap:round;stroke-linejoin:round">
    <g id="leg_right">
      <path style="fill:#aaaaaa" d="m 112,313.2 c 8,-5.7 15,-3.8 18.5,3.9 0.9,1.9 -1.3,4.7 -2.8,5.5 -1.6,0.9 -5.1,1 -5.5,-0.8 -0.9,-4.6 -2.5,-8.7 -10.2,-8.6 z m -17.9,12.4 c 6,-7.7 13.3,-7.8 18.8,-1.5 1.4,1.7 0.1,4.9 -1.1,6.1 -1.3,1.3 -4.6,2.4 -5.5,0.8 -2.2,-4.2 -4.9,-7.7 -12.2,-5.4 z m 35.4,80.4 c 9.1,3.8 15.5,0.4 17.2,-7.9 0.4,-2.1 -2.3,-4.3 -3.9,-4.7 -1.8,-0.5 -5.2,0.1 -5.2,2 0.1,4.6 -0.6,9 -8.1,10.6 z m -43.49,-53 c -0.6,-9.8 4.77,-14.7 13.14,-13.6 2.15,0.2 3.25,3.5 3.15,5.2 -0.1,1.9 -1.8,4.9 -3.59,4.3 -4.37,-1.7 -8.74,-2.5 -12.7,4.1 z m 156.99,45 c 9.7,-0.9 13.8,-6.9 11.4,-15 -0.5,-2.1 -4,-2.7 -5.6,-2.4 -1.9,0.4 -4.6,2.5 -3.7,4.2 2.3,4.1 3.7,8.3 -2.1,13.2 z"/>
      <path d="m 296.4,275.6 c -30.6,5.5 -77.2,51.6 -65.5,78 -4.1,0.2 -6.7,3 -6.9,6.1 -4.7,1.1 -8.1,5 -14.5,5.3 -7.7,0.4 -17.5,2.1 -34.4,0.8 -18.7,-1.3 -32.5,-11.1 -40,-46.2 -0.2,-0.9 -1.3,-2.3 -2.2,-2 -3.9,1.4 -6.8,3.1 -9.8,5.9 -1.1,1 -2.1,3.4 -1.2,4.6 6.6,8.5 9.7,12.6 16.3,21.1 -10.1,-4.7 -12.5,20.2 16.9,25.5 1.2,0.1 1.5,1.1 2.3,1.3 7.4,2.6 14.3,4.9 17.8,5.7 12.8,2.9 46.4,8.6 66,2.7 0.7,0.8 1,2 2.9,1.8 6.1,-0.9 11.1,-2.9 12.4,-5.1 0.3,-0.5 2.1,-2.6 3,-2.9 2.4,-0.9 2,-3.8 2.4,-5.6 4.8,-19.3 20.5,-19.6 31.2,-17.8 15.8,2.7 28.6,13.5 42.6,0.9"/>
      <path d="m 140.8,350.3 c -7.1,-10.3 -15.7,-16.7 -21.3,-28.6 -0.6,-1.2 -2.9,-2.1 -3.8,-1.1 -3.7,3.7 -6,7.3 -8.1,12.1 -0.6,1.4 -0.9,3.8 0.6,4.4 11.5,5.5 18.3,10.9 27.2,17.7"/>
      <path d="m 135.2,353.6 c -9,-7.5 -16.6,-13.5 -31.8,-19 -1.2,-0.4 -2.4,0.7 -2.8,1.9 -1.59,4.4 -2.22,9.8 -2.02,14.5 0.1,1.6 0.34,3 2.72,2.6 23.5,-4.4 41.8,21.2 33.1,39.9 -0.5,1.2 -1.1,2.9 0.9,3.6 4.7,1.7 9.8,2.1 14.4,0.7 1.1,-0.3 2.2,-1.4 1.1,-3.3 -6.6,-11 -1.7,-13.2 -0.6,-15.8 0.6,-1.5 3,-2 4.9,-4"/>
      <path style="fill:none" d="m 241.2,384.4 c 1.3,-0.4 2.6,-0.9 3.8,-1.4 m -103,-18.2 c -1,7.4 6.2,9.9 11.4,9.8 0.7,0 1.2,-0.1 1.7,0.1 m 68.9,-15 c 0,1.1 0.2,2.3 0.6,3.5 m 6.3,-9.6 c 1,2.1 2,4 3.3,5.9"/>
    </g>
    <g id="wing_right">
      <path style="fill:#aaaaaa" d="m 268.8,213.2 c -1.4,-9.7 3.5,-15 12,-14.6 2.1,0.1 3.5,3.3 3.5,5 0.1,1.9 -1.4,5 -3.2,4.5 -4.5,-1.3 -8.9,-1.7 -12.3,5.1 z"/>
      <path d="m 311.9,280.2 c 5.4,-19.8 2.4,-44.2 25.4,-27.7 -0.3,-5.7 2.3,-12 9.5,-13.7 7.1,-1.7 15.4,2.1 23.6,9.1 -0.5,-17.7 12.2,-23 25.2,-21.8 11.5,1.1 28.9,8 43,26.8 -0.6,-12.1 13.4,-18.9 24.4,-8.2 8.8,8.7 14.3,26.8 15.2,46.1 7.6,-8.4 28,-2.5 27.5,22 -0.2,11.7 -2.3,25.9 -10.1,42 23.1,1 18.2,26.1 9.3,57.5 -10.7,38.2 -42,69.2 -47.8,80.4 14.9,-11.9 35.5,-36.8 44.9,-54.9 24.9,-48.2 45.2,-117.6 -11.4,-201.4 -28.4,-42.1 -130,-91.3 -210.6,-39.7 -3,2 0.8,12.4 3.9,11.9 3.9,-0.8 9.2,0.5 11.2,7.2 7,22.6 0,43.9 -14,55.4"/>
      <path style="fill:#333333;stroke:none" d="m 520.6,331.8 c 2.5,31.7 -4.4,58.4 -7,68 -3.4,12.5 -5.1,16.5 -5.1,16.5 0,0 1.9,-3.9 5.5,-16.3 2.9,-9.8 10.1,-36.3 7.6,-68.3 -1.9,-24.4 -8.5,-44.9 -15.7,-61.3 0,0 0,0 0,0 -6.5,-15.1 -14.7,-27.8 -23.5,-38.1 -6.1,-7.3 -12.6,-13.4 -19,-18.6 -2.2,-1.7 -4.3,-3.3 -6.4,-4.9 -1.7,-1.2 -3.3,-2.4 -5.1,-3.3 -0.3,-0.1 -0.5,-0.3 -0.8,-0.3 -0.1,-0.1 -0.4,-0.2 -0.7,0 -0.2,0.1 -0.3,0.3 -0.3,0.4 0,0.2 0.1,0.3 0.1,0.4 0.1,0.3 0.3,0.5 0.4,0.7 0.7,1 1.5,1.8 2.2,2.6 1.5,1.5 3,2.9 4.4,4.3 9,8.7 15.2,14.7 20.9,21.9 9,11.2 15.5,23.2 17.8,27.6 3.1,5.8 4.3,8.1 4.3,8.1 0,0 -1.1,-2.4 -4.1,-8.2 -2.3,-4.5 -8.6,-16.5 -17.5,-27.9 -5.7,-7.2 -11.9,-13.4 -20.8,-22.1 -1.5,-1.3 -2.9,-2.8 -4.4,-4.3 -0.7,-0.8 -1.5,-1.6 -2.1,-2.5 -0.1,-0.2 -0.3,-0.3 -0.3,-0.5 0,-0.1 0,-0.1 0,0 0,0 -0.1,0.1 -0.2,0.2 -0.1,0 -0.1,0.1 0.1,0.1 0.2,0 0.4,0.1 0.6,0.2 1.7,0.9 3.3,2.1 4.9,3.3 2.2,1.5 4.3,3.2 6.4,4.9 6.3,5.2 12.8,11.3 18.9,18.5 8.6,10.3 16.8,22.9 23.3,37.9 0,0 0,0 0,0 7.1,16.3 13.7,36.7 15.6,61 z m -136.9,-145.2 c 4.5,1.5 8.8,3.4 12.8,5.1 6.6,3 12.7,6 18.3,8.9 25.5,13.4 38.4,25.5 38.4,25.5 0,0 -12.5,-12.5 -38,-26.3 -5.6,-2.9 -11.7,-6 -18.3,-9 -4,-1.8 -8.4,-3.6 -12.8,-5.2 0,0 0,0 0,0 -11.2,-3.9 -12.4,-3.7 -12.2,-4.8 0,0 0,-0.1 0.4,-0.2 4,-1.1 24.4,3.3 37.1,9.3 0,0 0,0 0,0 17.4,8 31.8,16.8 44,26.5 0,0 0,0 0,0 10.3,8 18.3,16.1 24.6,23.8 15.4,18.6 19.9,32.2 19.9,32.2 0,0 -4.2,-13.7 -19.5,-32.6 -6.2,-7.7 -14.2,-15.9 -24.4,-24.1 0,0 0,0 0,0 -12.2,-9.7 -26.8,-18.6 -44.2,-26.8 0,0 0,0 0,0 -12.8,-5.9 -33.4,-10.5 -37.8,-9.2 -0.6,0.1 -1.1,0.4 -1.1,1 -0.3,2.1 1.7,2 12.8,5.9 0,0 0,0 0,0 z m -58.8,0.5 c 15.2,2.8 27.3,5.5 38.8,8.9 25.1,7.5 38.2,16.5 38.2,16.5 0,0 -12.8,-9.4 -38,-17.2 -11.4,-3.6 -23.6,-6.3 -38.9,-9.2 0,0 0,0 0,0 -2.2,-0.4 -3,-0.8 -3,-0.9 0,0 -0.1,0.3 -0.1,0.3 0,0 0,0 0.1,0 0,0 0,0 0,0 0,0 0,-0.1 0,-0.1 0,0 0,0 0.1,0 0.1,-0.1 0.3,-0.1 0.7,-0.2 0.8,-0.2 2,-0.4 3.7,-0.6 8.1,-0.6 24.9,-0.1 39.4,3.2 0,0 0,0 0,0 13.3,3.1 24.8,6.9 34.9,11.2 28.7,12 44.1,23.8 44.1,23.8 0,0 -15,-12.2 -43.7,-24.6 -10.2,-4.3 -21.8,-8.2 -35.1,-11.3 0,0 0,0 0,0 -14.6,-3.4 -31.5,-3.9 -39.7,-3.3 -3.3,0.3 -5.9,0.8 -5.4,2 0.3,0.7 1.6,1.1 3.9,1.5 0,0 0,0 0,0 z m -18.9,9.4 c 0.9,0.1 1.7,0.4 2.6,0.6 1.3,0.4 2.7,0.9 4,1.4 3.8,1.3 7.5,2.8 10.7,4.2 4.7,1.9 8.6,3.7 11.9,5.3 0,0 0,0 0,0 6.8,3.3 10.4,5.5 10.4,5.5 0,0 -3.5,-2.4 -10.2,-5.9 0,0 0,0 0,0 -3.2,-1.7 -7.1,-3.6 -11.8,-5.7 -3.2,-1.4 -6.9,-3 -10.7,-4.4 -1.3,-0.4 -2.6,-0.9 -4,-1.3 -0.9,-0.3 -1.8,-0.6 -2.7,-0.7 0,0 0,0 0,0 -2.1,-0.3 -3.5,-0.8 -3.8,-1.1 0,0 0,0 0,0 0,0 0,0 0,0 0,-0.1 0,0 0,0 0,0 0.1,-0.1 0.3,-0.2 1.3,-0.7 5.5,-1.5 14.1,-1.7 0,0 0,0 0,0 5.1,-0.2 10.3,0.4 15,1.1 7.1,1.1 13.8,2.5 19.8,3.9 8.2,1.9 15.2,3.9 21.1,5.9 0,0 0,0 0,0 12.4,4 19,7.3 19,7.3 0,0 -6.5,-3.5 -18.8,-7.8 0,0 0,0 0,0 -5.9,-2 -12.9,-4.2 -21.1,-6.2 -6,-1.5 -12.7,-3 -19.8,-4 -4.8,-0.7 -10,-1.4 -15.2,-1.2 0,0 0,0 0,0 -10.8,0.3 -15.2,1.3 -15.4,2.8 -0.2,1.2 2,1.8 4.6,2.2 0,0 0,0 0,0 z m -1.8,15.2 c 9.6,7 17.6,16.1 22,21.2 4.9,5.6 7.5,8.9 7.5,8.9 0,0 -2.4,-3.5 -7.1,-9.2 -4.3,-5.3 -12,-14.5 -21.8,-21.7 0,0 0,0 0,0 -6,-4.4 -9,-7.5 -10.7,-10.1 0,0 0,0 0,0 -0.1,-0.2 -0.2,-0.4 -0.2,-0.6 -0.1,-0.1 0,-0.2 0.1,-0.3 0.2,-0.5 1,-0.5 1.7,-0.7 1.4,-0.1 2.9,0 4.3,0.2 2.2,0.3 4.4,0.8 6.5,1.4 7.5,2 14.5,5 20.3,7.6 19.2,8.6 29.9,15.5 29.9,15.5 0,0 -10.5,-7.3 -29.6,-16.2 -5.7,-2.7 -12.8,-5.7 -20.3,-7.8 -2.1,-0.6 -4.4,-1.2 -6.7,-1.5 -1.4,-0.2 -3,-0.3 -4.5,-0.2 -0.8,0.1 -1.7,0.3 -2.4,1.1 -0.3,0.3 -0.4,0.6 -0.3,1 0,0.4 0.2,0.8 0.4,1.1 0,0 0,0 0,0 1.8,2.7 4.9,5.9 10.9,10.3 0,0 0,0 0,0 z m 1.1,22.1 c 0.5,16.3 -4.8,26.5 -4.8,26.5 0,0 6.3,-9.8 5.8,-26.5 0,0 0,0 0,0 -0.4,-10.8 -2.9,-14 -2.3,-15.2 0,0 0,0 0,0 0,0 0.1,-0.1 0.1,-0.1 0.1,0 0.3,0 0.6,0.1 0.7,0.2 1.5,0.6 2.2,1.1 2.6,1.6 5,3.7 7.1,5.5 3.2,2.7 5.9,5.4 8.1,7.5 0,0 0,0 0,0 4.4,4.4 6.7,7.1 6.7,7.1 0,0 -2.1,-2.9 -6.3,-7.4 0,0 0,0 0,0 -2.1,-2.3 -4.8,-5 -8,-7.9 -2,-1.8 -4.4,-3.9 -7,-5.6 -0.8,-0.5 -1.6,-1 -2.6,-1.3 -0.3,-0.1 -0.6,-0.1 -1,-0.1 -0.3,0.1 -0.6,0.3 -0.8,0.7 0,0 0,0 0,0 -0.9,1.7 1.8,4.9 2.2,15.6 0,0 0,0 0,0 z"/>
    </g>
    <g id="body">
      <path d="m 184.4,86.12 c 0.8,-0.1 2,-0.42 3.1,-0.98 1,-0.5 2,-1.18 2.9,-2.05 1.8,-1.84 2.7,-4.34 2.7,-4.34 0,0 -1.8,1.4 -3.4,1.36 -0.7,0 -1.4,0 -2,-0.1 0,0 0,0 0,0 -6.2,-0.28 -10.4,-0.97 -13.1,6.55 -0.8,2.18 -1.3,6.05 0.1,5.98 2.2,-0.13 4.4,-0.24 6.6,-0.28 1.6,0 0.7,-3.04 1.4,-4.6 0.5,-0.83 0.4,-1.45 1.7,-1.57 z m 18.7,2 c 0.5,0.1 1,0.1 1.6,0 1.5,-0.15 3.4,-0.66 5,-1.67 2.2,-1.38 3.7,-3.55 3.7,-3.55 0,0 -2.2,0.89 -3.8,0.48 -1.2,-0.3 -2.5,-0.68 -3.7,-0.98 0,0 0,0 0,0 -4.9,-1.26 -8.7,-2.16 -12.4,4.07 -1.2,1.98 -2.3,5.7 -1,5.88 2,0.29 4.1,0.67 6.2,1.11 1.6,0.33 1.4,-2.81 2.5,-4.16 0.6,-0.73 0.7,-1.33 1.9,-1.18 z m 17.4,6.78 c 1.4,0.72 4.2,1.33 6.7,0.86 2.5,-0.47 4.8,-1.9 4.8,-1.9 0,0 -2.4,0 -3.7,-0.96 -6,-4.41 -10,-8.65 -16.4,-2.42 -1.7,1.63 -3.6,4.98 -2.4,5.44 1.8,0.75 3.5,1.63 5.2,2.61 1.3,0.74 2.2,-2.27 3.6,-3.18 0.8,-0.49 1.1,-1.04 2.2,-0.45 z m 13.5,12.8 c 1,1.2 3.4,2.8 5.9,3.3 2.5,0.5 5.1,0 5.1,0 0,0 -2.2,-0.8 -3,-2.2 -1.3,-2.1 -2.3,-4 -3.5,-5.6 -2.3,-3.24 -5.2,-5.15 -10.7,-2.9 -2.2,0.9 -5.2,3.3 -4.3,4.1 1.4,1.4 2.6,2.9 3.8,4.4 0.9,1.2 2.8,-1.3 4.5,-1.6 0.6,-0.1 1,-0.3 1.5,-0.1 0,0 0,0 0,0 0.2,0 0.4,0.2 0.7,0.6 z m 8.2,16.8 c 0.5,1.5 2.3,3.8 4.6,5 2.2,1.2 4.9,1.4 4.9,1.4 0,0 -1.9,-1.4 -2.3,-3 -1.9,-7 -1.8,-12.6 -10.7,-12.5 -2.3,0.1 -6,1.2 -5.5,2.3 0.8,1.8 1.6,3.7 2.2,5.7 0.4,1.4 3.1,-0.3 4.8,0 0.9,0.2 1.5,-0.1 2,1.1 z m 3.3,18.6 c 0.2,1.6 1.5,4.2 3.5,5.7 2.1,1.6 4.7,2.2 4.7,2.2 0,0 -1.7,-1.6 -1.8,-3.2 -0.4,-4.8 0.3,-8.8 -2.2,-11.5 0,0 0,0 0,0 -1.1,-1.2 -2.7,-2.2 -5.3,-2.9 -2.3,-0.6 -6.1,-0.6 -5.9,0.7 0.1,1.2 0.3,2.4 0.4,3.6 0.1,0.9 0.2,1.8 0.2,2.7 0.2,1.6 3.1,0.5 4.7,1.2 0.9,0.4 1.5,0.3 1.7,1.5 z m 0.2,19 c 0,0.8 0.3,1.9 0.7,2.9 0.5,1.1 1.1,2.3 2,3.2 1.8,1.8 4.3,2.7 4.3,2.7 0,0 -1.4,-1.7 -1.3,-3.3 0.1,-0.7 0.1,-1.5 0.2,-2.1 0,0 0,0 0,0 0.6,-5.8 1.7,-10 -5.6,-13.2 -2.1,-1 -5.9,-1.6 -5.9,-0.3 -0.1,2.2 -0.1,4.3 -0.3,6.5 -0.1,1.6 3,0.9 4.5,1.8 0.8,0.5 1.4,0.5 1.4,1.8 z m -2,18.9 c -0.1,1.6 0.6,4.4 2.4,6.2 0.5,0.6 1.1,1 1.7,1.4 1.3,0.9 2.5,1.3 2.5,1.3 0,0 -0.3,-0.4 -0.7,-1.1 -0.3,-0.6 -0.6,-1.3 -0.5,-2.1 0.6,-6.6 3.5,-10.8 -4.1,-15.5 -2,-1.2 -5.7,-2.4 -5.9,-1 -0.3,2.2 -0.6,4.3 -1,6.6 -0.3,1.6 2.9,1.2 4.3,2.3 0.7,0.6 1.3,0.6 1.3,1.9 z m -1.9,19.1 c 0.1,1.7 1.1,4.3 3.1,5.8 2,1.5 4.7,2 4.7,2 0,0 -1.7,-1.4 -1.7,-2.9 -0.4,-6.6 2.5,-10.1 -5.3,-14.8 -2,-1.2 -5.7,-2.5 -5.9,-1.1 -0.3,2.4 -0.6,4.7 -0.8,7.1 -0.2,1.8 3,1.1 4.4,2.1 0.8,0.5 1.4,0.4 1.5,1.8 z m 1.2,19.1 c 0.4,1.7 1.9,4 4.2,5.1 2.3,1.2 4.9,1.1 4.9,1.1 0,0 -1.8,-1.1 -2.2,-2.5 -1.3,-5.1 -0.2,-8.6 -4,-11.5 -1,-0.7 -2.2,-1.4 -3.9,-2.1 -2.2,-0.8 -6,-1.5 -6,0 0,1 0.1,2 0.1,2.9 0.1,1.5 0.2,2.9 0.4,4.4 0.2,1.8 3.1,0.5 4.7,1.2 0.9,0.3 1.5,0.2 1.8,1.4 z m 4.7,18.7 c 0.4,1 1.4,2.2 2.7,3.2 0.7,0.5 1.4,0.8 2.2,0.8 2.4,0.3 4.7,-1.1 4.7,-1.1 0,0 -1.9,0.2 -2.3,-0.7 -0.1,-0.2 -0.2,-0.4 -0.3,-0.6 0,0 0,0 0,0 -2.1,-5.8 -1.3,-9.6 -9.7,-11.2 -2.3,-0.4 -6.2,-0.4 -5.9,1.1 0.5,2.3 1.1,4.6 1.7,6.9 0.5,1.8 3.2,0 4.9,0.4 0.9,0.2 1.5,-0.1 2,1.2 z m 11.8,15 c 1.5,0.9 4.3,1.3 6.6,0.3 2.3,-1 4,-3.1 4,-3.1 0,0 -2,0.8 -3.3,0.1 -3.2,-1.6 -5,-3.7 -7.3,-4.5 -1.9,-0.8 -3.8,-0.4 -7.6,0.6 -1,0.2 -2.7,0.8 -3.7,1.3 -1.1,0.6 -1.7,1.3 -1.2,2.1 1.6,2.1 3.3,3.8 4.9,5.1 0.4,0.3 0.7,0.5 1,0.8 1.5,1.3 2.7,-1.7 4.3,-2.4 0.9,-0.4 1.1,-1 2.3,-0.3 z m 17.3,8.6 c 0.9,0.2 2.3,0.3 3.7,-0.1 1,-0.2 1.9,-0.6 2.8,-1.2 2,-1.5 3.1,-3.9 3.1,-3.9 0,0 -1.7,1.2 -3.1,0.8 -0.5,-0.1 -0.9,-0.2 -1.4,-0.3 0,0 0,0 0,0 -5.5,-1.8 -7.7,-4.5 -14.3,0.7 -0.2,0.2 -0.5,0.4 -0.8,0.7 -1.6,1.5 -3.3,3.8 -2.2,4.4 0,0 0,0 0,0 2.2,1.2 4.4,2.2 6.6,3.2 1.7,0.8 2,-2.4 3.4,-3.5 0.7,-0.6 0.9,-1.2 2.2,-0.8 z m 18.9,3.6 c 1.6,-0.1 4.3,-1.1 5.9,-3 1.7,-2 2.3,-4.5 2.3,-4.5 0,0 -1.6,1.5 -3.1,1.5 -3.7,0 -6.6,-0.7 -9.2,-0.1 0,0 0,0 0,0 -1.7,0.6 -3.4,1.8 -5.9,5 -1.4,1.8 -3.2,5.3 -1.7,5.7 2.2,0.6 4.6,1 7,1.2 0.3,0 0.6,0 0.9,0.1 1.7,0.1 1.1,-3 2,-4.5 0.5,-0.8 0.4,-1.4 1.8,-1.4 z m 19.1,0.3 c 1.6,-0.1 4.2,-1.2 5.8,-3.2 1.6,-2 2.2,-4.6 2.2,-4.6 0,0 -1.6,1.6 -3.1,1.7 -6.7,0.3 -10.9,-2.1 -14.8,5.9 -1,2.1 -1.9,5.9 -0.5,6 2.3,0.1 4.6,0.2 6.9,0.3 1.7,0 0.9,-3 1.7,-4.5 0.5,-0.9 0.5,-1.5 1.8,-1.6 z m 19.1,-0.2 c 1.6,-0.1 4.2,-1.3 5.8,-3.2 1.6,-2 2.3,-4.6 2.3,-4.6 0,0 -1.6,1.6 -3.1,1.6 -6.9,0.3 -11.2,-1.9 -14.9,6.3 0,0.1 -0.1,0.2 -0.2,0.3 -0.8,2.2 -1.4,5.6 -0.1,5.6 0.1,0 0.1,0 0.2,0 2.2,0.1 4.4,0.1 6.6,0.1 1.7,0 0.9,-3 1.7,-4.5 0.4,-0.9 0.4,-1.5 1.7,-1.6 z m 19,0.4 c 1.6,0 4.3,-0.8 6.2,-2.5 1.9,-1.8 3,-4.2 3,-4.2 0,0 -1.9,1.3 -3.5,1.1 -4.2,-0.4 -7.6,-1.3 -10.4,-0.3 -1.9,0.6 -3.6,2.2 -5.1,5.4 -1,2.1 -1.8,5.9 -0.5,5.9 1.7,0.1 3.4,0.2 5.1,0.3 0.5,0.1 1,0.1 1.4,0.1 1.7,0.2 1,-2.9 2,-4.4 0.5,-0.8 0.5,-1.4 1.8,-1.4 z m 18.5,3.4 c 1.6,0.4 4.4,0.2 6.6,-1 2.3,-1.2 3.9,-3.3 3.9,-3.3 0,0 -2.1,0.8 -3.6,0.3 -3.2,-1.1 -5.8,-2.4 -8.2,-2.7 -2.8,-0.4 -5.4,0.5 -8.1,4.3 -1.4,1.9 -2.7,5.6 -1.4,5.8 2,0.5 4,1 6,1.6 0.1,0 0.2,0 0.3,0 1.2,-0.1 1.3,-2.8 2.5,-4 0.6,-0.6 0.8,-1.2 2,-1 z m 17.3,7.6 c 0.5,0.2 1.1,0.4 1.8,0.5 1.4,0.3 3.3,0.3 5,-0.1 2.5,-0.6 4.7,-2.1 4.7,-2.1 0,0 -2.4,0.1 -3.8,-0.8 -1.1,-0.7 -2.1,-1.3 -3.1,-1.9 0,0 0,0 0,0 -4.4,-2.8 -7.8,-5 -13.3,0 -1.8,1.5 -3.9,4.7 -2.7,5.3 1.9,0.9 3.7,1.9 5.6,2.9 1.4,0.8 2.1,-2.3 3.6,-3.2 0.8,-0.6 1,-1.1 2.2,-0.6 z m 14.2,12 c 0.4,0.4 0.9,0.8 1.5,1.2 1.2,0.8 2.9,1.6 4.6,1.8 2.5,0.3 5.1,-0.4 5.1,-0.4 0,0 -2.2,-0.6 -3.2,-1.9 -0.7,-1 -1.3,-2 -1.9,-2.9 0,0 0,0 0,0 -3,-4.4 -6,-8 -12.7,-4.8 -2.1,0.9 -5,3.5 -4.1,4.3 1.4,1.3 2.8,2.7 4,4.2 1,1.1 2.8,-1.4 4.5,-1.8 0.9,-0.2 1.4,-0.6 2.2,0.3 z m 9.3,16.3 c 0.6,1.1 1.8,2.5 3.3,3.5 0.6,0.4 1.2,0.7 1.8,0.9 2.4,1 5,0.8 5,0.8 0,0 -1.9,-1.1 -2.5,-2.5 -0.1,-0.2 -0.2,-0.4 -0.2,-0.6 0,0 0,0 0,0 -2.4,-6.4 -2.9,-11.6 -11.5,-10.9 -2.3,0.2 -6,1.5 -5.4,2.7 1,1.8 1.9,3.6 2.7,5.5 0.6,1.5 3.1,-0.5 4.8,-0.3 0.9,0.1 1.5,-0.2 2,0.9 z m 5.5,18.1 c 0.5,1.6 2.1,3.9 4.3,5.2 2.2,1.3 4.8,1.6 4.8,1.6 0,0 -1.8,-1.4 -2.1,-2.9 -1.4,-6.7 -0.5,-12.2 -9.3,-13.4 -2.3,-0.3 -6.1,0.1 -5.8,1.4 0.6,2.1 1.1,4.1 1.5,6.2 0.3,1.6 3.1,0.1 4.8,0.6 0.9,0.2 1.5,0.1 1.8,1.3 z m 2.6,18.8 c 0.3,1.6 1.5,4.2 3.5,5.7 2,1.6 4.6,2.2 4.6,2.2 0,0 -1.6,-1.6 -1.7,-3.2 -0.5,-7 1.3,-11.9 -7.3,-14.5 -2.2,-0.7 -6.1,-0.9 -5.9,0.5 0.2,2.1 0.4,4.3 0.5,6.4 0.1,1.6 3.1,0.6 4.7,1.3 0.8,0.4 1.4,0.3 1.6,1.6 z m 0.3,19 c 0,1.6 1,4.3 2.8,6 1.9,1.8 4.4,2.7 4.4,2.7 0,0 -1.5,-1.8 -1.4,-3.3 0.1,-2.2 0.3,-4.1 0.4,-5.8 0.2,-3.9 -0.4,-6.9 -6,-9.4 -2.1,-1 -5.9,-1.7 -6,-0.3 0,2.2 -0.1,4.3 -0.2,6.5 -0.1,1.7 3,1 4.5,1.8 0.6,0.4 1.1,0.5 1.4,1.1 0,0 0,0 0,0 0,0.2 0,0.4 0.1,0.7 z m -1.8,18.9 c -0.1,1.6 0.6,4.4 2.3,6.3 1.7,2 4.1,3.1 4.1,3.1 0,0 -1.3,-1.9 -1.1,-3.4 0.9,-6.8 3.7,-11.3 -4,-15.7 -2,-1.2 -5.8,-2.3 -5.9,-0.9 -0.3,2.1 -0.6,4.3 -0.9,6.5 -0.3,1.6 2.9,1.2 4.3,2.2 0.7,0.6 1.3,0.6 1.2,1.9 z m -3.5,18.7 c -0.3,1.6 0.1,4.4 1.6,6.5 1.5,2.1 3.8,3.4 3.8,3.4 0,0 -1.1,-2 -0.7,-3.5 1.5,-6.6 4.7,-10.8 -2.5,-16 -1.9,-1.4 -5.5,-2.8 -5.8,-1.5 -0.5,2.2 -1,4.3 -1.6,6.4 -0.4,1.6 2.8,1.5 4.1,2.7 0.7,0.6 1.3,0.7 1.1,2 z m -5.4,18.2 c -0.1,0.6 -0.2,1.4 -0.2,2.2 0.1,1.4 0.4,3 1.2,4.4 1.3,2.3 3.5,3.8 3.5,3.8 0,0 -0.9,-2.1 -0.4,-3.5 0.3,-1 0.7,-1.9 1,-2.8 0,0 0,0 0,0 2,-4.9 3.7,-8.4 -2,-13.4 -1.7,-1.5 -5.2,-3.3 -5.6,-2 -0.7,2 -1.4,4.1 -2.1,6.2 -0.6,1.5 2.6,1.7 3.7,3 0.7,0.7 1.3,0.9 0.9,2.1 z m -7.1,17.6 c -0.5,1.6 -0.7,4.4 0.4,6.7 1,2.4 3,4.1 3,4.1 0,0 -0.7,-2.1 0,-3.5 2.8,-6.3 6.7,-9.8 0.6,-16.2 -1.6,-1.7 -4.8,-3.8 -5.4,-2.6 -0.8,2 -1.7,4 -2.7,6 -0.7,1.5 2.4,2 3.5,3.4 0.5,0.7 1.1,0.9 0.6,2.1 z m -8.8,16.8 c -0.8,1.5 -1.2,4.3 -0.5,6.7 0.8,2.5 2.6,4.4 2.6,4.4 0,0 -0.4,-2.2 0.4,-3.5 3.5,-5.9 7.8,-9 2.4,-16.1 -1.4,-1.8 -4.5,-4.2 -5.1,-3.1 -1.1,1.9 -2.2,3.8 -3.4,5.7 -0.8,1.3 2.2,2.2 3.1,3.7 0.5,0.8 1,1.1 0.5,2.2 z m -10.8,15.7 c -0.8,1.3 -1.6,4.1 -1.2,6.6 0.2,0.9 0.5,1.9 0.9,2.7 0.5,1.2 1.1,2 1.1,2 0,0 0,-0.5 0,-1.1 0.1,-0.7 0.3,-1.7 0.8,-2.4 4.2,-5.4 8.9,-8.1 4.3,-15.7 -1.2,-2 -3.9,-4.7 -4.7,-3.6 -1.3,1.7 -2.6,3.4 -3.9,5.1 -1.1,1.3 1.9,2.5 2.6,4.1 0.4,0.9 0.9,1.2 0.1,2.3 z m -12.6,14.1 c -1,1.2 -2.2,3.8 -2.1,6.3 0,2.6 1.2,5 1.2,5 0,0 0.2,-2.3 1.4,-3.3 4.9,-4.8 9.9,-6.9 6.4,-15 -0.9,-2.1 -3.3,-5.2 -4.2,-4.2 -1.5,1.6 -3,3.1 -4.6,4.6 -1.1,1.1 1.6,2.7 2.1,4.3 0.2,0.9 0.7,1.3 -0.2,2.3 z m -14.5,12.1 c -1.2,1.1 -2.8,3.5 -3,6 -0.3,2.6 0.5,5.1 0.5,5.1 0,0 0.5,-2.2 1.8,-3.1 5.6,-4 10.8,-5.3 8.5,-13.9 -0.6,-2.2 -2.5,-5.6 -3.5,-4.8 -1.7,1.4 -3.4,2.6 -5.2,3.9 -1.3,0.9 1.1,2.9 1.4,4.6 0.1,0.9 0.5,1.4 -0.5,2.2 z m -16.1,10 c -1.4,0.9 -3.2,3.1 -3.9,5.5 -0.6,2.5 -0.1,5.1 -0.1,5.1 0,0 0.8,-2.1 2.2,-2.8 6.1,-3.2 11.4,-3.7 10.3,-12.6 -0.2,-2.3 -1.6,-5.9 -2.8,-5.2 -1.9,1.1 -3.7,2.1 -5.7,3.1 -1.4,0.7 0.8,3 0.8,4.8 0,0.9 0.3,1.4 -0.8,2.1 z m -17.3,7.7 c -1.5,0.7 -3.6,2.6 -4.6,4.9 -0.9,2.4 -0.8,5.1 -0.8,5.1 0,0 1.1,-2 2.6,-2.5 3.5,-1.3 6.6,-1.9 8.8,-3.4 1.8,-1.4 3,-3.6 3.1,-7.7 0,-2.3 -0.9,-6.1 -2.1,-5.6 -1.8,0.8 -3.6,1.5 -5.5,2.1 -0.2,0.1 -0.4,0.2 -0.6,0.3 -1.5,0.5 0.3,3.1 0.1,4.8 -0.1,0.9 0.1,1.5 -1,2 z m -18.2,5.5 c -1.5,0.5 -3.9,2.2 -5,4.4 -1.2,2.3 -1.3,4.9 -1.3,4.9 0,0 1.2,-1.8 2.7,-2.2 6.6,-1.7 11.9,-0.8 13.1,-9.6 0.3,-2.3 -0.1,-6.1 -1.4,-5.8 -2.1,0.6 -4.2,1.1 -6.3,1.6 -1.6,0.4 -0.1,3.1 -0.5,4.8 -0.3,0.9 -0.1,1.5 -1.3,1.9 z m -18.7,3.6 c -1.6,0.3 -4,1.8 -5.4,3.9 -1.4,2.1 -1.7,4.8 -1.7,4.8 0,0 1.4,-1.7 2.9,-2 6.8,-1 11.8,0.4 14,-8.2 0.5,-2.3 0.5,-6.2 -0.8,-6 -2.2,0.4 -4.3,0.7 -6.5,1 -1.6,0.2 -0.4,3.1 -1,4.7 -0.3,0.9 -0.2,1.5 -1.5,1.8 z m -18.9,1.9 c -1.1,0.1 -2.6,0.7 -3.9,1.7 -0.7,0.5 -1.3,1.1 -1.8,1.7 -1.6,2.1 -2.2,4.7 -2.2,4.7 0,0 1.6,-1.6 3.2,-1.8 0.3,0 0.7,0 1,0 0,0 0,0 0,0 6.2,-0.3 10.7,1 13.5,-7 0.8,-2.2 1.2,-6.1 -0.2,-6 -2.2,0.2 -4.4,0.3 -6.6,0.4 -1.7,0.1 -0.7,3.1 -1.4,4.6 -0.4,0.9 -0.3,1.5 -1.6,1.7 z m -19,0.2 c -1.6,0.1 -4.3,1 -6,2.9 -1.8,1.8 -2.7,4.3 -2.7,4.3 0,0 1.8,-1.4 3.3,-1.3 6.8,0.2 11.6,2.5 15.2,-5.6 1,-2.2 1.6,-6 0.3,-6 -2.2,0 -4.4,-0.1 -6.5,-0.2 -1.7,-0.1 -1,3 -1.8,4.5 -0.5,0.8 -0.5,1.4 -1.8,1.4 z m -18.9,-1.7 c -1.6,-0.1 -4.4,0.5 -6.3,2.2 -2,1.6 -3.1,4 -3.1,4 0,0 1.9,-1.2 3.4,-1 6.8,0.9 11.3,3.7 15.7,-4 1.2,-2 2.3,-5.7 1,-5.9 -2.2,-0.2 -4.4,-0.5 -6.5,-0.9 -1.6,-0.2 -1.3,2.9 -2.3,4.3 -0.6,0.7 -0.6,1.4 -1.9,1.3 z m -18.6,-3.8 c -1.6,-0.3 -4.4,0.1 -6.5,1.5 -2.1,1.4 -3.5,3.7 -3.5,3.7 0,0 2,-1 3.5,-0.6 6.6,1.6 10.8,4.9 16,-2.3 1.4,-1.9 2.9,-5.5 1.6,-5.8 -2.1,-0.5 -4.3,-1 -6.4,-1.6 -1.5,-0.4 -1.5,2.8 -2.7,4 -0.6,0.7 -0.7,1.3 -2,1.1 z m -18.1,-5.8 c -1.5,-0.4 -4.4,-0.4 -6.6,0.8 -2.3,1.2 -3.9,3.3 -3.9,3.3 0,0 2.1,-0.8 3.6,-0.2 6.4,2.3 10.2,6 16.2,-0.5 1.5,-1.7 3.4,-5.2 2.1,-5.6 -2,-0.7 -4.1,-1.5 -6.1,-2.3 -1.5,-0.6 -1.8,2.6 -3.1,3.7 -0.8,0.6 -0.9,1.2 -2.2,0.8 z m -17.3,-7.7 c -1.5,-0.6 -4.3,-0.9 -6.7,0 -2.4,1 -4.2,2.9 -4.2,2.9 0,0 2.2,-0.6 3.6,0.1 2.9,1.5 5.1,3.2 7.4,3.9 2.6,0.8 5.2,0.5 8.7,-2.6 1.8,-1.5 4,-4.7 2.8,-5.2 -2,-1 -3.9,-2 -5.9,-3 0,0 -0.1,-0.1 -0.2,-0.1 -1.3,-0.3 -1.9,2.5 -3.3,3.4 -0.8,0.5 -1,1.1 -2.2,0.6 z m -16.4,-9.5 c -1.4,-0.8 -4.2,-1.3 -6.7,-0.6 -2.4,0.7 -4.4,2.5 -4.4,2.5 0,0 2.2,-0.4 3.5,0.4 5.8,3.6 8.6,8 15.9,2.9 1.9,-1.3 4.5,-4.3 3.3,-5 -1.8,-1.1 -3.7,-2.3 -5.5,-3.5 -1.4,-0.9 -2.3,2.1 -3.9,2.9 -0.8,0.5 -1.1,1 -2.2,0.4 z m -15.5,-10.9 c -1.4,-0.9 -4.2,-1.7 -6.6,-1.1 -2.6,0.5 -4.7,2.1 -4.7,2.1 0,0 2.3,-0.2 3.5,0.7 5.5,4 7.9,8.6 15.6,4.2 2,-1.2 4.8,-3.9 3.8,-4.7 -1.8,-1.3 -3.6,-2.7 -5.3,-4 -1.3,-1.1 -2.5,1.9 -4.1,2.6 -0.8,0.4 -1.2,0.9 -2.2,0.2 z m -14.8,-12.1 c -1.4,-0.9 -4,-1.8 -6.5,-1.4 -2.6,0.3 -4.8,1.8 -4.8,1.8 0,0 2.3,-0.1 3.4,0.9 5.3,4.4 7.3,9.1 15.4,5.2 2,-1.1 5,-3.5 4,-4.4 -1.7,-1.5 -3.3,-3 -5,-4.5 -1.2,-1.1 -2.6,1.8 -4.2,2.4 -0.9,0.3 -1.3,0.8 -2.3,0 z m -13.9,-12.9 c -0.3,-0.4 -0.8,-0.7 -1.3,-1.1 -1.3,-0.7 -3.1,-1.4 -4.9,-1.4 -2.5,-0.1 -5,0.9 -5,0.9 0,0 2.3,0.4 3.3,1.6 0.8,0.9 1.5,1.8 2.1,2.6 0,0 0,0 0,0 1.8,2.3 3.4,4.4 5.8,5.2 1.8,0.5 3.9,0.4 6.9,-0.9 2.1,-0.9 5.3,-3.2 4.3,-4.2 -1.1,-1.1 -2.3,-2.2 -3.4,-3.3 -0.4,-0.3 -0.8,-0.7 -1.1,-1.1 -1,-1.1 -2.7,1.5 -4.4,1.9 -0.9,0.2 -1.4,0.7 -2.3,-0.2 z m -11.4,-15.2 c -1,-1.2 -3.4,-2.8 -5.91,-3.1 -2.54,-0.3 -5.07,0.5 -5.07,0.5 0,0 2.19,0.5 3.07,1.8 2.88,4.1 4.11,8 8.01,9 0,0 0,0 0,0 1.4,0.4 3.2,0.4 5.5,-0.1 2.3,-0.5 5.8,-2.2 5,-3.3 -0.7,-0.9 -1.3,-1.9 -2,-2.8 -0.5,-0.9 -1.1,-1.7 -1.7,-2.6 -0.9,-1.4 -3,1 -4.7,1.2 -0.9,0.1 -1.4,0.4 -2.2,-0.6 z m -10.06,-16.1 c -0.63,-1 -1.88,-2.1 -3.41,-2.8 -0.7,-0.4 -1.45,-0.6 -2.23,-0.8 -2.51,-0.5 -5.09,0.2 -5.09,0.2 0,0 2.14,0.6 2.92,2 0.16,0.2 0.31,0.5 0.46,0.7 0,0 0,0 0,0 3.07,5.5 3.84,10.2 12.29,9.2 2.32,-0.3 5.92,-1.7 5.22,-2.8 -1.1,-2 -2.1,-3.9 -3.21,-5.8 -0.79,-1.5 -3.03,0.8 -4.77,0.8 -0.95,0 -1.45,0.4 -2.18,-0.7 z m -8.86,-16.9 c -0.82,-1.4 -2.93,-3.3 -5.39,-3.9 -2.47,-0.7 -5.09,-0.2 -5.09,-0.2 0,0 2.09,0.8 2.78,2.2 3.06,6.1 3.15,11.2 12.04,10.8 2.32,-0.1 6.05,-1.3 5.45,-2.5 -0.97,-2 -1.92,-4 -2.85,-6 -0.69,-1.5 -3.08,0.6 -4.82,0.5 -0.94,0 -1.47,0.3 -2.12,-0.9 z m -7.65,-17.4 c -0.72,-1.5 -2.68,-3.5 -5.07,-4.3 -2.42,-0.9 -5.06,-0.6 -5.06,-0.6 0,0 2.02,0.9 2.6,2.4 2.6,6.3 2.32,11.4 11.22,11.6 2.33,0.1 6.13,-0.8 5.62,-2 -0.83,-2.1 -1.64,-4.1 -2.41,-6.2 -0.59,-1.6 -3.12,0.3 -4.84,0.1 -0.95,-0.1 -1.49,0.2 -2.06,-1 z m -6.29,-17.9 c -0.6,-1.6 -2.39,-3.8 -4.71,-4.8 -2.33,-1 -4.99,-1 -4.99,-1 0,0 1.93,1.2 2.4,2.6 2.08,6.5 1.42,11.7 10.27,12.5 2.31,0.3 6.16,-0.3 5.75,-1.6 -0.67,-2.1 -1.31,-4.2 -1.92,-6.3 -0.46,-1.6 -3.13,0.1 -4.83,-0.3 -0.93,-0.2 -1.5,0.1 -1.97,-1.1 z m -4.8,-18.4 c -0.46,-1.6 -2.06,-3.9 -4.28,-5.1 -2.24,-1.3 -4.9,-1.5 -4.9,-1.5 0,0 1.83,1.3 2.18,2.8 1.51,6.7 0.44,11.8 9.18,13.4 2.29,0.4 6.16,0.1 5.86,-1.2 -0.5,-2.1 -0.96,-4.3 -1.39,-6.4 -0.32,-1.7 -3.12,-0.2 -4.79,-0.7 -0.91,-0.3 -1.49,-0.1 -1.86,-1.3 z m -3.33,-18.8 c -0.37,-1.6 -1.83,-4 -4,-5.3 -2.18,-1.4 -4.82,-1.6 -4.82,-1.6 0,0 1.77,1.3 2.03,2.8 1.18,6.8 -0.32,11.5 8.27,13.9 0.45,0.1 0.96,0.2 1.49,0.3 2.03,0.3 4.36,0.1 4.46,-0.8 0,0 0,-0.1 0,-0.2 -0.31,-2.2 -0.61,-4.4 -0.9,-6.6 -0.21,-1.7 -3.1,-0.4 -4.74,-1 -0.89,-0.3 -1.48,-0.2 -1.78,-1.5 z m -2.38,-18.8 c -0.28,-1.7 -1.59,-4.2 -3.66,-5.6 -2.08,-1.5 -4.7,-2 -4.7,-2 0,0 1.67,1.5 1.84,3 0.74,6.8 -0.97,11.6 7.51,14.3 2.21,0.7 6.1,1 5.96,-0.3 -0.21,-2.3 -0.41,-4.5 -0.58,-6.7 -0.12,-1.6 -3.08,-0.5 -4.68,-1.2 -0.87,-0.4 -1.47,-0.3 -1.69,-1.5 z m -1.02,-19 c -0.14,-1.6 -1.22,-4.3 -3.12,-6 -1.91,-1.7 -4.45,-2.5 -4.45,-2.5 0,0 1.48,1.8 1.49,3.3 0,3.8 -0.52,6.8 0.21,9.4 0.63,2.2 2.24,4.1 6.08,5.6 2.16,0.9 6.01,1.4 5.97,0 -0.1,-2 -0.1,-4 -0.1,-6 0,-0.2 0,-0.4 0,-0.6 0,-1.6 -3.02,-0.7 -4.56,-1.5 -0.84,-0.5 -1.45,-0.4 -1.55,-1.7 z m 1.26,-18.9 c 0,-0.1 0,-0.2 0,-0.3 0,-1.6 -0.62,-4.2 -2.21,-6 -1.66,-2 -4.1,-3 -4.1,-3 0,0 1.27,1.8 1.07,3.3 -0.23,1.8 -0.59,3.3 -0.88,4.8 -0.84,4.3 -0.86,7.8 4.97,10.9 2.04,1.1 5.81,2 5.93,0.7 0.19,-2.1 0.44,-4.2 0.76,-6.3 0.24,-1.6 -2.88,-1.2 -4.28,-2.2 -0.76,-0.6 -1.37,-0.6 -1.27,-1.9 z m 3.42,-18.7 c 0.21,-1.7 -0.28,-4.5 -1.83,-6.5 -1.53,-2 -3.89,-3.3 -3.89,-3.3 0,0 1.14,2 0.84,3.5 -1.32,6.7 -4.39,10.8 2.88,15.9 1.9,1.3 5.52,2.8 5.81,1.4 0.46,-2.2 0.93,-4.3 1.44,-6.5 0.37,-1.6 -2.78,-1.4 -4.1,-2.6 -0.72,-0.6 -1.32,-0.7 -1.15,-1.9 z m 4.72,-18.5 c 0.36,-1.5 0.13,-4.4 -1.19,-6.5 -1.32,-2.3 -3.51,-3.8 -3.51,-3.8 0,0 0.91,2.1 0.45,3.6 -0.79,2.6 -1.73,4.7 -2.24,6.6 -0.84,3.2 -0.54,6.1 3.74,9.6 1.8,1.4 5.32,3.1 5.69,1.8 0.6,-2.1 1.23,-4.2 1.9,-6.3 0.5,-1.5 -2.52,-1.6 -3.79,-2.8 0,0 0,0 0,0 0,0 0,-0.1 -0.1,-0.1 -0.67,-0.7 -1.26,-0.8 -0.98,-2.1 z m 17.12,-33.4 c 0.95,-1.2 1.98,-3.9 1.87,-6.4 -0.1,-2.6 -1.19,-5.1 -1.19,-5.1 0,0 -0.32,2.4 -1.47,3.5 -4.8,4.9 -9.54,8.1 -5.65,14.9 0.16,0.3 0.33,0.6 0.52,0.9 1.26,1.9 4.12,4.5 4.83,3.5 0.15,-0.3 0.29,-0.5 0.43,-0.7 1.03,-1.4 2.12,-2.8 3.26,-4.2 0.98,-1.2 -1.86,-2.5 -2.52,-4.1 -0.35,-0.9 -0.85,-1.3 -0.1,-2.3 z m 14.62,-11.5 c 1.35,-0.8 3.35,-2.9 4.15,-5.3 0.9,-2.4 0.9,-5.1 0.9,-5.1 0,0 -1.2,2.1 -2.7,2.7 -2.7,1.1 -5.16,2 -7.08,3.1 -2.98,1.9 -4.75,4.5 -3.42,9.8 0.57,2.2 2.51,5.5 3.47,4.8 1.56,-1.2 3.18,-2.3 4.87,-3.2 1.16,-0.6 -0.42,-2.5 -0.83,-4.1 -0.1,-0.2 -0.1,-0.4 -0.1,-0.6 0,-0.9 -0.34,-1.5 0.73,-2.1 z"/>
      <path d="m 173.3,109.9 c 3.2,-1.2 11.4,-1.5 13.8,0.9 0.2,0.3 0.5,0.6 0.7,0.9 2.3,-4.4 6,-6 9.1,-5.5 3.1,0.5 5.3,3.1 5.6,6.2 0.1,0.7 0.2,1.4 0.2,2.1 8.8,-3.5 13.7,3 12.8,8.4 -0.2,1.2 -0.7,2.5 -1.4,3.7 5.4,0.7 8.1,4.3 8.5,7.8 0.3,3.6 -1.7,6.9 -4.8,8.9 0.4,0.3 0.8,0.7 1.1,1 3.7,3.4 4.5,7.5 3.5,10.8 -0.9,3.3 -3.6,5.9 -7,7.5 1.9,2.5 2.9,4.8 3.4,7 1.2,6.2 -2.5,11.1 -7.7,13.8 4.4,5.9 4.7,11.1 2.9,15.2 -1.2,2.6 -3.3,4.8 -5.9,6.5 7.9,8.8 4.8,16.9 -1.6,21.6 8.3,8.4 5.9,16.5 -0.1,21.8 9,7.7 7.6,15.9 2.3,22 0,0 0.1,0.1 0.1,0.1 9.7,6.7 9.7,14.7 5.8,21.9 5.9,2.6 9.1,5.6 10.7,9.2 1.6,3.3 1.9,7.3 1.5,11.3 3.4,0.1 7.7,0 10.6,2.6 9.4,8.2 27.5,3.7 34,5.7 l 11.5,-29.2 -28.6,-26.6 -22.4,-31.8 0.7,-66.6 2.5,-41.5 -22.5,-26.04 -40.4,-0.49 c 0,0 -1.9,12.03 1.1,10.83 z"/>
      <path d="m 83.38,230.9 c 0.79,4 -1.43,8.1 -4.05,9.5 0.88,2.7 0.3,5.6 -0.95,7.8 -0.61,1.1 -1.38,2 -2.21,2.5 1.61,4 -0.1,8.8 -2.48,10.6 1.61,3.5 0.72,7.6 -1.06,9.9 v 0 c -0.27,0.4 -0.57,0.7 -0.88,1 2.04,3.9 0.75,8.9 -1.5,10.9 2.18,3.9 1.09,8.9 -1.07,11 2.33,3.8 1.47,8.8 -0.59,11 2.5,3.6 1.89,8.7 -0.1,11 0,0.1 0.1,0.1 0.14,0.2 2.49,3.4 2.22,8.2 0.49,10.5 2.91,3.2 3.05,8.2 1.46,10.7 3.15,3 3.65,8 2.22,10.7 3.36,2.7 4.17,7.8 2.91,10.5 2.3,1.7 3.54,4.3 3.85,6.8 0.17,1.3 0.1,2.6 -0.33,3.6 3.71,2.4 5.01,7.5 4,10.3 3.78,2.4 5.25,7.5 4.29,10.4 3.84,2.3 5.37,7.5 4.42,10.4 3.87,2.4 5.39,7.6 4.42,10.5 1.58,1 2.76,2.5 3.52,4.1 1.02,2.1 1.32,4.3 0.72,6 3.8,1.9 5.7,6.3 5.2,9.2 3.9,1.5 6.3,5.7 6.1,8.7 4.1,1.1 6.9,5.3 6.9,8.3 2.4,0.4 4.4,1.9 5.7,3.6 1.1,1.4 1.8,2.9 1.8,4.2 4.4,0.6 7.7,4.4 8.1,7.3 4.4,0.3 7.9,3.9 8.5,6.8 4.4,0.1 8.2,3.5 8.9,6.4 4.4,-0.2 8.4,3 9.3,5.8 1.3,-0.1 2.5,0.1 3.7,0.5 2.8,0.9 5.1,2.9 5.9,4.9 4.3,-0.6 8.6,2.1 9.8,4.9 4.3,-0.9 8.7,1.6 10,4.3 4.2,-1.1 8.8,1.1 10.3,3.7 4.1,-1.4 8.8,0.6 10.4,3.1 0.5,-0.2 1,-0.3 1.4,-0.4 3.7,-0.9 7.6,0.7 9.2,2.8 3.9,-1.9 8.8,-0.6 10.7,1.6 3.7,-2.2 8.6,-1.3 10.7,0.8 3.5,-2.5 8.3,-2.1 10.6,-0.3 1.8,-1.5 4,-2.2 6,-2.3 1.8,-0.1 3.6,0.3 4.7,1 3.2,-3.1 8.4,-3.4 11,-1.8 3.1,-3.2 8.3,-3.6 10.9,-2.2 2.9,-3.3 8,-4 10.6,-2.6 2.7,-3.5 7.7,-4.4 10.5,-3.2 2.4,-3.6 7.3,-4.9 10.1,-3.9 2.1,-3.7 6.8,-5.3 9.7,-4.6 0.3,-0.5 0.6,-1 0.9,-1.5 2.1,-2.9 5.8,-4.3 8.3,-3.9 1.4,-4 5.5,-6.4 8.4,-6.2 0.9,-4.1 4.7,-6.9 7.6,-7.1 0.3,-4.1 3.6,-7.4 6.3,-8 -0.1,-1.7 0.2,-3.3 0.9,-4.7 0.7,-1.7 2.2,-3.3 3.8,-4.1 0,-0.2 -0.1,-0.4 -0.1,-0.6 -0.6,-3.5 0.8,-7 2.9,-8.7 0.2,-0.3 0.5,-0.5 0.8,-0.6 -1.5,-4 0.2,-8.7 2.6,-10.4 -1.9,-3.8 -0.6,-8.6 1.6,-10.5 -0.3,-0.5 -0.5,-1 -0.7,-1.6 -1.3,-3.3 -0.5,-7.1 1.2,-8.9 -2.6,-3.3 -2.4,-8 -0.7,-10.3 -1.8,-1.7 -2.6,-3.9 -2.9,-5.9 -0.1,-1.4 0,-2.9 0.6,-4 -3.4,-2.2 -4.7,-6.4 -4,-9.1 -3.7,-1.5 -5.8,-5.3 -5.6,-8.1 -0.8,-0.1 -1.5,-0.3 -2.2,-0.6 -2.7,-1.3 -4.6,-3.8 -4.9,-5.9 -1.6,0.1 -3.1,-0.2 -4.3,-0.8 -1.8,-0.8 -3.4,-2.2 -4,-3.7 -1.8,0.6 -3.6,0.6 -5.1,0.2 -1.9,-0.5 -3.6,-1.5 -4.5,-2.8 -3.7,2 -8.7,1 -10.8,-1.4 -2.5,1.4 -5.6,1.5 -8.1,0.6 -1.5,-0.4 -2.8,-1.2 -3.6,-2.1 -4.4,2 -10,-0.1 -11.9,-2.7 -4.6,1.4 -10,-1.4 -11.5,-4.3 -1.3,0.2 -2.7,0.1 -4,-0.3 -3.4,-0.9 -6,-3.4 -6.8,-5.5 -4.9,0.1 -9.2,-3.9 -9.9,-7.1 -4.8,-0.3 -8.6,-4.7 -9,-7.9 -4.7,-0.7 -8.1,-5.3 -8.2,-8.5 -20.1,-8.5 -29.7,-27.9 -33.7,-51.2 -3.7,-21.9 -2.3,-47.2 0.2,-70.2 2.1,-18.6 8.8,-39.6 9,-54.6 0.3,-20.4 -9.9,-31.6 -20.2,-37.6 -11.7,-6.7 -25.7,-2.7 -35.4,6 l 2.5,-23.94 c 9.8,-4.89 17.6,-4.3 32,-1.26 26.6,5.66 38.1,28.1 40.9,49.2 5.7,43.6 -12.7,58.4 4.1,104.5 4,11.2 29.6,22.1 41.5,22.7 51.1,2.6 67,-5.7 99.4,12.8 42.8,24.3 43,132.7 -11.4,196.1 -29.6,34.5 -71.7,47.7 -116.3,49.7 -67.6,3.1 -112.1,-29.8 -145.5,-60.7 -10.1,-9.5 -44.54,-56.3 -54.68,-114.8 -6.66,-38.4 -5.47,-56.9 -3.78,-67.5 5.55,-34.9 14.08,-63.3 32.89,-77.8 2.6,0.8 -1.53,8.3 -3.61,15.2 -2.09,7 -2.13,13.3 -4.98,13.9 z"/>
      <path style="fill:none" d="m 254.6,320.3 c -1.5,0.4 -2.9,0.4 -4.2,0.1 m 12.5,8.1 c -1.5,0.6 -2.9,0.7 -4.3,0.4 m 13.2,7.1 c -1.4,0.7 -2.8,0.9 -4.2,0.8 m 14,5.8 c -1.3,0.8 -2.7,1.2 -4.1,1.2 m 14.7,4.1 c -1.2,1 -2.5,1.6 -3.9,1.8 m 15.2,1.9 c -1.1,1.2 -2.3,1.9 -3.7,2.4 m 15.2,0 c -0.9,1.2 -2,2.1 -3.3,2.7 m 14.7,-1.4 c -0.8,1.3 -1.9,2.3 -3,2.9 m 13.8,-1.2 c -0.9,1.2 -1.9,2.1 -3,2.6 m 13,0.5 c -1.1,1 -2.3,1.7 -3.4,2.1 m 12.1,3.4 c -1.3,0.6 -2.6,1 -3.8,1.1 m 11.1,6.3 c -1.4,0.4 -2.8,0.4 -4,0.2 m 9.6,8.7 c -1.5,0.1 -2.8,-0.2 -4,-0.6 m 7.8,10.5 c -1.5,-0.2 -2.8,-0.7 -3.8,-1.4 m 5.8,11.9 c -1.5,-0.5 -2.6,-1.2 -3.5,-2.1 m 3.9,12.9 c -1.3,-0.7 -2.4,-1.5 -3.2,-2.5 m 2.4,13.4 c -1.3,-0.8 -2.2,-1.8 -2.9,-2.9 m 1,13.7 c -1.2,-0.9 -2,-2 -2.6,-3.2 m -0.3,13.8 c -0.8,-0.8 -1.4,-1.6 -1.9,-2.4 -0.1,-0.4 -0.3,-0.7 -0.4,-1 m -1.6,13.5 c -1,-1.1 -1.6,-2.4 -2,-3.6 m -3.5,12.6 c -0.7,-1.3 -1.1,-2.6 -1.2,-3.8 m -5.7,12 c -0.5,-1.4 -0.7,-2.8 -0.6,-4 m -7.5,11.2 c -0.3,-1.5 -0.3,-2.9 0,-4.1 m -9,10.3 c -0.1,-1.5 0.1,-2.9 0.5,-4.1 m -10.1,9.4 c 0,-1.5 0.4,-2.8 0.9,-4 m -10.9,8.5 c 0.1,-1.5 0.5,-2.8 1.2,-3.9 m -11.6,7.7 c 0.2,-1.5 0.8,-2.8 1.5,-3.8 m -12.1,7 c 0.3,-1.6 0.9,-2.8 1.7,-3.8 m -12.6,6.3 c 0.4,-1.5 1,-2.7 1.9,-3.7 m -12.9,5.8 c 0.4,-1.4 1.1,-2.6 2,-3.6 m -13.1,5.4 c 0.5,-1.5 1.2,-2.7 2.2,-3.6 m -13.1,4.7 c 0.6,-1.4 1.4,-2.5 2.3,-3.4 m -13.3,3.4 c 0.8,-1.4 1.7,-2.4 2.7,-3.1 m -13.6,2.1 c 0.8,-1.3 1.8,-2.2 2.9,-2.9 m -13.8,1 c 0.9,-1.2 2,-2.1 3.2,-2.6 m -14,0 c 1,-1.1 2.2,-1.9 3.4,-2.4 m -14,-0.9 c 1.1,-1.1 2.3,-1.8 3.5,-2.2 m -13.9,-1.7 c 1.2,-1 2.4,-1.7 3.6,-2 m -13.7,-2.5 c 1.2,-1 2.4,-1.5 3.7,-1.8 m -13.7,-3.3 c 1.3,-0.9 2.6,-1.4 3.9,-1.6 m -13.5,-4 c 1.3,-0.8 2.6,-1.2 3.9,-1.3 m -13.2,-4.7 c 1.3,-0.8 2.7,-1.1 4,-1.2 m -13,-5.4 c 1.4,-0.7 2.7,-0.9 4,-0.9 m -12.6,-6.2 c 1.5,-0.5 2.8,-0.7 4.1,-0.7 m -12.1,-6.8 c 1.4,-0.5 2.8,-0.6 4.1,-0.5 m -11.7,-7.6 c 1.5,-0.4 2.9,-0.4 4.1,-0.2 m -11,-8.4 c 1.5,-0.3 2.9,-0.2 4.1,0.1 m -10.2,-9.2 c 1.5,-0.1 2.9,0.1 4.1,0.5 m -9.11,-10.1 c 1.52,0 2.84,0.4 4.01,0.9 m -8.29,-11.3 c 1.53,0.1 2.87,0.6 4,1.3 m -8.42,-11.8 c 1.53,0.1 2.87,0.5 4,1.2 m -8.42,-11.6 c 1.54,0.1 2.87,0.5 4,1.2 m -8.25,-11.6 c 1.53,0.1 2.85,0.6 3.96,1.3 m -7.91,-11.8 c 1.52,0.2 2.83,0.7 3.91,1.4 m -7.35,-12 c 1.51,0.3 2.78,0.8 3.83,1.6 m -6.63,-12.3 c 1.49,0.3 2.73,1 3.72,1.8 m -5.81,-12.7 c 1.46,0.5 2.65,1.2 3.59,2.1 m -4.89,-13 c 1.43,0.5 2.55,1.3 3.42,2.3 m -3.88,-13.4 c 1.39,0.7 2.45,1.6 3.25,2.6 m -3.06,-13.7 c 1.35,0.7 2.37,1.7 3.11,2.7 m -2.39,-13.8 c 1.32,0.7 2.29,1.8 2.98,2.9 m -1.79,-14.1 c 1.28,0.9 2.22,1.9 2.86,3.1 m -1.24,-14.1 c 0.79,0.5 1.44,1.2 1.97,1.9 0.3,0.4 0.56,0.8 0.77,1.2 m -0.66,-14.1 c 1.2,1 2.05,2.1 2.6,3.3 m 0.1,-14 c 1.15,1 1.92,2.1 2.4,3.3 m 1.03,-13.8 c 1.05,1.1 1.74,2.3 2.13,3.5 m 2.43,-13.2 c 0.28,0.4 0.53,0.8 0.73,1.2 v 0 c 0.44,0.9 0.73,1.7 0.89,2.5"/>
      <path d="m 72.44,254.5 c -0.47,-1.5 -2.05,-3.9 -4.18,-5.2 -0.5,-0.3 -1.02,-0.6 -1.52,-0.8 -1.72,-0.8 -3.29,-1.1 -3.29,-1.1 0,0 0.59,0.6 1.14,1.3 0,0 0,0 0,0 0.39,0.5 0.77,1.2 0.89,1.9 1.3,7.2 0.84,12.8 9.74,13.3 2.32,0.1 6.09,-0.7 5.66,-1.9 -0.69,-1.9 -1.28,-3.9 -1.76,-5.8 -0.37,-1.5 -3.12,0 -4.8,-0.4 -0.9,-0.2 -1.5,0 -1.88,-1.3 z m -1.41,-18.7 c 0,-1.6 -0.79,-4.3 -2.4,-6.3 -1.62,-2 -3.97,-3.3 -3.97,-3.3 0,0 1.15,2.1 0.93,3.7 -0.94,7 -2.96,12.6 5.36,15.7 2.19,0.8 6.04,1.1 5.98,-0.2 -0.11,-2 -0.11,-4.1 0,-6.1 0.1,-1.5 -2.99,-0.8 -4.47,-1.7 -0.8,-0.5 -1.42,-0.5 -1.42,-1.8 z m 46.67,-43.2 c 1.5,-0.3 4.1,-1.6 5.7,-3.6 1,-1.3 1.7,-2.8 2,-3.8 0.2,-0.5 0.3,-0.8 0.3,-0.8 0,0 -0.1,0.1 -0.3,0.2 -0.6,0.5 -1.8,1.4 -3.1,1.5 -7.2,0.6 -12.9,-0.4 -14.2,8.4 -0.3,2.3 0.2,6.1 1.4,5.8 1.9,-0.5 3.9,-0.9 5.9,-1.2 1.5,-0.2 0.2,-3.1 0.8,-4.7 0.3,-0.9 0.2,-1.5 1.5,-1.8 z m 18.6,0.9 c 1.5,0.2 4.4,0 6.6,-1.3 2.3,-1.2 4,-3.3 4,-3.3 0,0 -2.3,0.8 -3.8,0.3 -7.1,-2.3 -12.4,-5.1 -16.3,2.9 -1,2.1 -1.7,5.9 -0.5,5.9 1.9,0.1 3.8,0.3 5.7,0.7 1.4,0.3 1.3,-2.8 2.4,-4.1 0.6,-0.7 0.7,-1.3 1.9,-1.1 z m 17.1,7.8 c 1.3,0.8 4.1,1.4 6.6,1 0.4,-0.1 0.7,-0.1 1.1,-0.2 2.1,-0.6 3.7,-1.7 3.7,-1.7 0,0 -1,0 -2.1,-0.3 0,0 0,0 0,0 -0.5,-0.1 -1.1,-0.3 -1.5,-0.6 -5.9,-4.5 -9.5,-9 -16.3,-3.1 -1.7,1.5 -3.9,4.8 -2.8,5.3 1.8,0.9 3.6,1.9 5.3,3 1.2,0.8 2.2,-2.2 3.7,-3.1 0.8,-0.4 1.1,-1 2.3,-0.3 z m 13.5,12.9 c 1,1.2 3.4,2.8 5.9,3.3 1.2,0.2 2.4,0.2 3.3,0.2 1.1,-0.1 1.9,-0.3 1.9,-0.3 0,0 -0.3,-0.1 -0.8,-0.3 -0.7,-0.4 -1.8,-1 -2.3,-1.9 -4,-6.3 -6.1,-11.7 -14.4,-8.3 -2.1,0.8 -5.2,3.2 -4.3,4.1 1.4,1.4 2.7,2.9 4,4.4 0.9,1.2 2.8,-1.3 4.5,-1.6 0.9,-0.1 1.4,-0.6 2.2,0.4 z m 7.9,16.9 c 0.5,1.4 2.1,3.9 4.3,5.2 2.1,1.5 4.7,2 4.7,2 0,0 -1.7,-1.6 -2,-3.3 -1.3,-7.4 -1.2,-13.2 -10.1,-13.1 -2.4,0.1 -6,1.2 -5.6,2.3 0.8,1.8 1.5,3.6 2,5.5 0.4,1.4 3.1,-0.2 4.8,0.2 0.9,0.2 1.5,0 1.9,1.2 z m 1.1,18.7 c 0,1.5 0.7,4.3 2.3,6.3 1.6,2.1 3.9,3.4 3.9,3.4 0,0 -1.1,-2.1 -0.9,-3.7 1.1,-6.8 3.1,-11.8 -3.5,-15.1 -0.4,-0.3 -0.9,-0.5 -1.4,-0.7 -2.2,-0.8 -6,-1.2 -6,0 0,0.3 0,0.6 0,1 0,1.7 0,3.4 -0.2,5 -0.1,1.6 3,1 4.4,1.9 0.8,0.6 1.5,0.6 1.4,1.9 z m -4.8,18.1 c -0.6,1.5 -0.8,4.3 0.1,6.7 0.8,2.4 2.5,4.4 2.5,4.4 0,0 -0.3,-2.3 0.4,-3.7 3.3,-6.2 7.2,-10.9 0.3,-16.5 -1.8,-1.5 -5.4,-3.1 -5.7,-1.9 -0.6,2 -1.2,3.9 -2,5.7 -0.6,1.4 2.5,1.8 3.6,3.2 0.6,0.7 1.2,0.9 0.8,2.1 z m -10.6,15.2 c -0.2,0.2 -0.4,0.4 -0.5,0.7 -0.9,1.3 -1.8,3.4 -2,5.6 -0.2,2.5 0.7,5.1 0.7,5.1 0,0 0.6,-2.3 1.8,-3.4 1.3,-1 2.5,-2 3.6,-2.9 0,0 0,0 0,0 3.8,-3.3 6.2,-6.5 2.7,-12.4 -1.2,-2 -4,-4.6 -4.7,-3.6 -1.2,1.6 -2.4,3.1 -3.8,4.5 -1,1 1.7,2.5 2.3,4.2 0.3,0.8 0.7,1.3 -0.1,2.2 z m -15.6,10.1 c -1.4,0.7 -3.6,2.6 -4.6,4.9 -1.1,2.4 -1.2,5 -1.2,5 0,0 1.3,-1.9 2.9,-2.4 7,-2.4 12.8,-3.1 11.5,-11.9 -0.4,-2.3 -1.9,-5.8 -3,-5.2 -1.6,1.1 -3.4,2 -5.2,2.8 -1.3,0.5 0.6,3 0.5,4.7 -0.1,0.9 0.2,1.5 -0.9,2.1 z m -18.3,3.9 c -1.6,0.2 -4.3,1.3 -6,3.2 -1.8,1.8 -2.8,4.3 -2.8,4.3 0,0 1.9,-1.4 3.6,-1.3 7.4,0 12.9,1.4 14.8,-7.4 0.5,-2.2 0.3,-6.1 -0.9,-5.9 -2,0.4 -4,0.7 -6,0.8 -1.5,0.1 -0.5,3.1 -1.2,4.7 -0.3,0.8 -0.3,1.5 -1.5,1.6 z m -18.6,-2.3 c -1.6,-0.3 -4.4,-0.2 -6.7,1 -2.33,1.1 -4.1,3.1 -4.1,3.1 0,0 2.27,-0.7 3.8,-0.1 7,2.6 11.8,5.7 16.5,-1.9 0.3,-0.6 0.7,-1.3 0.9,-2 0,0 0,0 0,0 0.6,-1.6 0.9,-3.2 0.4,-3.7 0,0 0,0 0,0 -0.1,-0.1 -0.2,-0.2 -0.3,-0.2 -2,-0.3 -3.9,-0.7 -5.9,-1.2 -1.4,-0.4 -1.4,2.7 -2.6,4 -0.6,0.7 -0.8,1.3 -2,1 z m -16.53,-8.6 c -1.29,-0.9 -4.03,-1.8 -6.54,-1.7 -2.58,0.2 -4.98,1.4 -4.98,1.4 0,0 2.35,0.2 3.55,1.4 2.49,2.3 4.54,4.4 6.75,5.7 2.58,1.4 5.51,1.5 9.27,-1.5 1.88,-1.4 4.08,-4.5 2.98,-5.1 -1.7,-1 -3.32,-2 -4.87,-3.2 -0.12,-0.1 -0.24,-0.1 -0.37,-0.1 0,0 0,0 0,0 -1.05,-0.2 -2.16,2.2 -3.55,2.9 -0.84,0.4 -1.2,0.9 -2.24,0.2 z m -12.16,-14.2 c -0.35,-0.5 -0.89,-1.1 -1.54,-1.6 -1.06,-0.9 -2.5,-1.8 -4.03,-2.2 -2.49,-0.7 -5.14,-0.3 -5.14,-0.3 0,0 2.12,0.9 2.87,2.4 0.5,0.9 0.95,1.9 1.38,2.7 0,0 0,0 0,0 2.52,5.1 4.74,9 12.03,6.9 2.24,-0.6 5.5,-2.7 4.74,-3.6 -1.26,-1.5 -2.41,-3.2 -3.47,-4.8 -0.79,-1.3 -2.94,1 -4.67,1.1 -0.92,0.1 -1.44,0.4 -2.17,-0.6 z m -4.16,-54.6 c 0.35,-1.6 0.1,-4.4 -1.3,-6.6 -1.37,-2.1 -3.63,-3.5 -3.63,-3.5 0,0 0.99,2 0.57,3.5 -1.7,6 -4.69,9.7 0,14.6 0,0 0,0 0,0 0.44,0.5 0.95,1 1.55,1.4 1.81,1.5 5.36,3 5.69,1.8 0.11,-0.4 0.23,-0.7 0.34,-1.1 0.52,-1.7 1.06,-3.4 1.6,-5.1 0.52,-1.6 -2.64,-1.7 -3.87,-2.9 -0.67,-0.7 -1.26,-0.8 -0.98,-2.1 z m 6.12,-18 c 0.47,-1.6 0.41,-4.5 -0.8,-6.7 -1.2,-2.3 -3.33,-3.9 -3.33,-3.9 0,0 0.82,2.1 0.29,3.6 -2.36,6.4 -6.04,10 0.42,16.2 1.68,1.6 5.06,3.5 5.54,2.3 0.77,-2.1 1.56,-4.2 2.38,-6.2 0.62,-1.6 -2.53,-1.9 -3.66,-3.2 -0.62,-0.7 -1.2,-0.9 -0.84,-2.1 z m 7.54,-17.5 c 0.6,-1.5 0.8,-4.3 -0.19,-6.7 -0.97,-2.3 -2.93,-4.1 -2.93,-4.1 0,0 0.61,2.1 -0.1,3.5 -2.95,6.2 -6.93,9.6 -1.01,16.2 1.55,1.7 4.77,3.9 5.33,2.7 0.93,-2 1.88,-4 2.87,-5.9 0.74,-1.5 -2.36,-2.1 -3.37,-3.5 -0.55,-0.8 -1.12,-1 -0.64,-2.2 z m 9.18,-16.6 c 0.76,-1.4 1.27,-4.2 0.56,-6.6 -0.7,-2.5 -2.44,-4.5 -2.44,-4.5 0,0 0.35,2.2 -0.47,3.5 -3.62,5.8 -7.94,8.9 -2.71,16 1.37,1.9 4.35,4.4 5.03,3.2 1.11,-1.9 2.24,-3.7 3.44,-5.5 0.9,-1.4 -2.14,-2.3 -3,-3.8 -0.47,-0.8 -1.01,-1.1 -0.41,-2.3 z"/>
      <path d="m 91.97,201.8 c 8.73,-6.7 19.63,-10.4 33.43,-10.5 21.9,-0.1 50.4,18.8 51.7,49.4 1.4,36.8 -26.1,60.4 -59,57 -39.18,-4 -53.66,-44.4 -46.2,-72 6.98,-25.8 13.99,-43.2 27.86,-62.4 0.94,-1.2 3.64,-0.8 5.54,1.8 0.9,1.2 1.1,2.6 1.2,3.9 0.3,4.3 -2.9,8.4 -5.7,9.3 0,0.1 0,0.1 0,0.2 0.3,4.3 -2.62,8.3 -5.35,9.4 0.58,3.4 -0.99,6.8 -2.95,8.6 -0.52,0.5 -1.07,0.9 -1.62,1.2 1.01,4.3 -1.49,8.8 -4.13,10.2 1.19,4.2 -1.01,8.8 -3.55,10.3 0.53,1.5 0.63,3 0.44,4.4 -0.32,2.6 -1.6,4.8 -3.13,5.9 1.24,2.5 1.13,5.2 0.41,7.3 -0.34,1.1 -0.91,2 -1.61,2.7 1.98,2.4 2.2,4.9 1.84,6.5 0,0.8 -0.17,1.5 -0.42,2.1 3.68,2.5 4.85,7.4 3.86,10.1 3.71,2.1 5.24,6.5 4.62,9.2 3.04,1.1 5.02,3.7 5.7,6 0.13,0.5 0.2,1.1 0.17,1.7 3.92,0.3 6.72,3 7.42,5.7 4,-0.7 7.9,1.5 9.2,4.1 0.1,0 0.2,0 0.3,0 3.3,-1.2 6.9,-0.2 8.7,1.8 3,-2.3 7.2,-2.3 9.6,-0.7 1.8,-2.2 4.4,-3.2 6.8,-3.2 1,0 1.9,0.1 2.7,0.4 2,-3.5 6.1,-5.1 8.8,-4.5 0.1,-0.1 0.1,-0.2 0.1,-0.3 1.4,-3.8 4.6,-5.6 6.9,-5.6 0,-0.3 0,-0.6 0,-0.9 0.3,-3.5 2.7,-6.5 5.1,-7.3 -0.9,-3.8 0.9,-7.7 3.3,-9.1 -1.7,-3.3 -1,-7.2 0.7,-9.2 0.1,-0.1 0.2,-0.2 0.3,-0.3 -2.6,-3 -2.8,-7.3 -1.3,-9.7 -3.2,-2.4 -4.2,-6.8 -3.2,-9.4 -1.4,-0.7 -2.4,-1.7 -3.2,-2.8 -1.2,-1.6 -1.8,-3.7 -1.6,-5.3 -3.9,-0.7 -6.5,-3.5 -6.9,-6.3 -4,0.4 -7.5,-2 -8.6,-4.7 -0.1,0 -0.2,0.1 -0.3,0.1 -3.7,1 -7.7,-0.7 -9.2,-2.9 -0.9,0.4 -1.8,0.7 -2.6,0.9 -2.9,0.5 -5.6,-0.4 -7,-1.8 -0.7,0.7 -1.5,1.2 -2.2,1.6 -2.5,1.2 -5.3,1.1 -7.2,0.2 -2.2,3.3 -6.2,4.5 -8.9,3.8 -1,2.8 -3.22,4.6 -5.37,5.3 -0.75,0.3 -1.52,0.4 -2.23,0.4 -0.46,4.1 -3.57,7.1 -6.41,7.6 0.18,3.3 -1.52,6.3 -3.64,7.9 -0.57,0.5 -1.17,0.8 -1.77,1"/>
      <path style="fill:none" d="m 87.63,218.2 c 0.71,1.3 1.06,2.6 1.13,3.9 m 6.02,-11.6 c 0.1,0.2 0.14,0.5 0.2,0.7 v 0 c 0.25,1.2 0.3,2.3 0.19,3.2 m 8.23,-9.7 c 0,1.5 -0.2,2.9 -0.6,4 m 10.4,-7.6 c -0.3,1.5 -0.9,2.8 -1.5,3.8 m 11.6,-5 c -0.6,1.4 -1.4,2.4 -2.2,3.2 m 12.6,-1.8 c -0.9,1.2 -2,2.1 -3,2.7 m 13,0.8 c -1.2,1 -2.4,1.6 -3.5,2 m 12.4,3.5 c -1.4,0.7 -2.7,1 -3.9,1.2 m 10.9,6.1 c -1.4,0.3 -2.8,0.3 -3.9,0.1 m 8.7,9.1 c -1.5,-0.1 -2.8,-0.4 -3.9,-1 m 6.8,11.1 c -1.4,-0.3 -2.6,-0.9 -3.6,-1.7 m 4.5,12.1 c -1.2,-0.5 -2.1,-1.2 -2.9,-2 -0.1,-0.1 -0.2,-0.2 -0.3,-0.4 m 1.5,12.6 c -1.2,-0.9 -2,-2 -2.5,-3.1 m -1.5,12.8 c -0.9,-1.2 -1.5,-2.5 -1.7,-3.6 m -4.2,11.9 c -0.6,-1.4 -0.9,-2.7 -1,-3.8 m -7.3,10 c -0.1,-1.5 0,-2.9 0.4,-4 m -10,8.4 c 0.2,-1.5 0.6,-2.8 1.2,-3.9 m -11.4,6.4 c 0.4,-1.5 1.1,-2.7 1.8,-3.6 m -12.2,3.7 c 0.8,-1.2 1.7,-2.2 2.6,-2.9 m -12.4,0.3 c 1.1,-1.1 2.3,-1.7 3.4,-2.1 m -12.83,-2.7 c 1.23,-0.8 2.53,-1.3 3.73,-1.5 m -11.39,-5.2 c 0.54,-0.2 1.06,-0.3 1.57,-0.3 0.83,-0.2 1.61,-0.2 2.33,-0.2 m -9.86,-8.1 c 1.5,-0.1 2.84,0.1 3.98,0.5 m -8.58,-10.3 c 1.54,0.1 2.85,0.5 3.96,1.1 m -7.73,-11.5 c 0.47,0 0.91,0.1 1.33,0.2 0.95,0.2 1.8,0.7 2.54,1.2 m -4.55,-11.2 c 1.33,0.7 2.35,1.6 3.1,2.5 m -1.39,-13.1 c 1.2,0.9 2.03,2 2.59,3.2 m 0.41,-13.8 c 1.1,1.1 1.83,2.2 2.27,3.5 m 1.49,-13.9 c 1.04,1.1 1.7,2.3 2.05,3.6 m 2.23,-14 c 0.38,0.5 0.71,0.9 0.98,1.4 0.44,0.8 0.74,1.5 0.92,2.3 m 2.94,-13.6 c 0.91,1.3 1.42,2.6 1.63,3.8 m 3.9,-13.4 c 0.88,1.2 1.28,2.6 1.38,3.9"/>
    </g>
    <g>
      <path style="fill:#d40000;stroke:#2b0000" d="m 75.17,148.1 c 12.09,-1.6 9.31,1.2 14.55,3.1 6.21,2.3 6.84,-4.9 12.88,-5.1 -5.05,-3.4 -6.61,1.8 -11.88,-1.5 -4.72,-3 -10.41,-1.1 -15.55,3.5 z m 13.99,-8.4 c -2.82,-0.4 -5.31,-3.9 -10.62,-0.1 -3.59,2.5 -8.48,0 -9.61,-4.2 4.43,2.8 6.45,1.1 9.52,-0.7 4.18,-2.5 8.1,1.2 10.71,5 z m 14.24,1.9 c -2.2,-2 -4.15,-2.9 -5.17,-8.4 -0.72,-3.9 -7.52,-5.6 -15.63,-3.3 6.26,1.4 9.18,1.8 9.8,6.7 0.69,5.6 6.31,5.9 11,5 z"/>
      <path style="fill:#d40000;stroke:#2b0000" d="m 168.7,114.9 c -2.4,-0.8 -14.2,3.4 -18.2,6.1 -6.7,4.6 -12.5,14.1 -16.4,19.9 -7.6,11 -25.1,13.1 -31.2,7.3 2.5,0.5 5.9,-0.5 7.5,-1.9 -5.2,-3.1 -5.8,-6.7 -4.8,-9.5 6.9,12.2 21.5,5.5 27.1,-1.8 4.4,-6.1 8.3,-13.7 16.3,-17.6 4.9,-2.4 9.9,-4.2 17.1,-5.5"/>
      <path style="fill:#aaaaaa" d="m 156,126.2 c -2.1,-1.8 -2.6,-4 -2.8,-6.3 1.6,1.6 3.1,3.3 6,3.9 m -5.8,7.4 c -2.3,-2.2 -3,-5.1 -3.4,-8.1 1.9,2.4 3.8,4.7 6.7,5.3 m -6.3,7.4 c -1.6,-1.8 -3.1,-4 -3.3,-8 2,3.1 4.4,4.9 7.1,5.9 m -6.6,5.8 c -2.3,-2.3 -3.4,-4.6 -4,-7.1 2.3,1.5 3.8,4 7,5.2 m -6.3,6 c -2.3,-1.4 -4.8,-5.2 -5.4,-8.5 2.6,2.6 5.4,4.8 8.4,5.5 m -5.4,8.1 c -3.2,-2.1 -6,-4.6 -7.1,-9.1 3.4,2.8 6.5,4.9 9,5.5 m 0.8,-30.4 c 1.1,1.6 2.8,2.8 5.9,3.3 -1.5,-1.8 -3.3,-3.6 -3.1,-6.8 m -6.9,6.9 c 1.5,2.4 3.6,3.1 5.9,3.6 -1.4,-1.9 -3,-3.6 -3.2,-6.5 m -7.1,6.1 c 1.9,2.6 4.7,3.7 7.6,4.4 -2.1,-2.2 -4.2,-4.3 -4.4,-7.3 m -7.1,6.6 c 1.7,1.8 3.7,3.5 7.6,4.2 -2.8,-2.3 -4.3,-4.9 -5,-7.7 m -5.5,7.9 c 2,2.6 4.1,4 6.5,4.8 -1.1,-2.5 -3.4,-4.2 -4.3,-7.6 m -6.8,7.2 c 1,2 4,4.4 6.8,5.3 -1.9,-2.4 -3.6,-4.9 -3.9,-7.5 m -9,3.6 c 1.7,3.4 3.8,6.5 8.2,8.2 -2.4,-3.8 -4.1,-7.1 -4.3,-9.7"/>
      <path d="m 172.8,107.8 -26.3,43.4 c 0,0 -6.1,0.8 -6.1,-2.2 0.2,-4.4 7.9,-8.1 12,-16.6 4.1,-8.5 14.5,-24.5 11.3,-24.8 -10.6,-1.1 -21,9 -27.8,15.7 -5.3,5.3 -9.7,10.7 -13.5,12.8 -4.7,2.6 -7.9,0.5 -6,-4.3 l 45.7,-36.39"/>
      <path d="m 181.6,93.08 c 0.5,-6.07 6.7,-10.62 10.8,-7.82 -2.5,-7.31 3.2,-8.65 7.7,-10.86 4.5,-2.2 7.3,-8.1 7.3,-8.1 -9.9,7.35 -12,4.01 -19.4,7.9 -7.4,3.92 -14.5,15.11 -29.6,17.86 -11.3,2.09 -23.1,9.84 -17.7,14.24 -7.1,3.1 -10.8,7.6 -14.4,12.5 -2.2,3.2 -14.9,3.8 -12.7,14.7 4.3,1.2 13.6,-3.7 17,-8.9 4.4,-6.8 11.5,-14 22,-13 5.6,0.6 8.7,2.4 9.2,5.8 0.5,3.9 -2.9,10.4 -7.6,17.8 -5.1,7.9 -10.4,13 -10.2,17.6 0.2,3.6 2.7,5.4 4.4,5.1 -0.9,-1.9 -1.2,-3.7 -0.8,-5.4 1.5,1.5 3.9,2.9 7.4,2.6 -2.3,-2.6 -3.8,-4.4 -3.6,-7.4 0.1,-2.9 4.2,-7.6 9,-7.8 8.5,-0.4 8.6,-1.5 11.6,-5.5 -4,1.1 -5.7,0 -8.5,0 -3.4,0.1 -6,2.9 -6,2.9 2.4,-4.4 6,-7.5 12.3,-7.8 5.4,-0.2 9.2,-1.5 9.9,-6.7 -3.3,1.5 -5.8,0.5 -8.5,0.5 -2.8,0 -5.3,1.8 -5.3,1.8 1.6,-3.9 6.8,-9.1 14.1,-9.4 3.6,-2.8 8.3,-2.5 13.6,-0.4 -5,-5.5 -9.3,-8.2 -16.9,-8.1"/>
      <path style="fill:none" d="m 164.8,116 c 1.3,-4.6 -2.1,-9.9 -10.1,-7.6 4.5,-0.8 9.6,-2.1 12.1,-4.6 3.1,-3 5.8,-7.21 5,-11.99 -4.6,6.46 -10.4,8.19 -16,6.43"/>
      <path d="m 176.4,92.71 c 9.7,0.76 15.8,-10.14 29.3,-1.74 -6.2,-0.33 -9.8,6.04 -15.2,9.33 -4.6,2.8 -10,3.4 -15.2,1.9"/>
      <path style="fill:#333333;stroke:none" d="m 179.5,95.63 c 0,0 -0.9,0.42 -1.5,1.2 -0.5,0.78 -0.6,1.64 -0.6,1.64 0,0 0.4,-0.78 1,-1.3 0.7,-0.53 1.4,-0.57 1.4,-0.57 0.8,-0.22 1.8,0 2.7,1.02 a 0.5,0.5 0 0 0 0.9,-0.25 c 0.5,-3.63 3.5,-3.12 4.7,-1.91 a 0.5,0.5 0 0 0 0.8,-0.17 c 0.7,-1.85 1.6,-2.59 2.4,-2.82 0,0 0.6,-0.31 1.5,-0.28 0.8,0 1.6,0.23 1.6,0.23 0,0 -0.7,-0.45 -1.6,-0.72 -0.8,-0.28 -1.8,-0.19 -1.8,-0.19 -1.2,0.35 -2.2,1.38 -3,3.4 l 0.8,-0.16 c -1.9,-1.84 -5.8,-1.9 -6.4,2.47 l 0.8,-0.26 c -1.1,-1.26 -2.5,-1.66 -3.7,-1.33 z"/>
      <path style="fill:#aaaaaa" d="m 120.4,125.5 c 1.7,-0.4 2.4,-0.2 4,0 -0.6,1.5 -2.2,2.6 -3.4,3 -1.6,0.7 -3,0.8 -4.7,0.9 0.6,-2 2.2,-3.4 4.1,-3.9 z"/>
      <g>
        <path style="fill:#ff2222;stroke:none" d="m 145.9,106.5 c 0,0 -0.3,-2.6 1,-4.7 1.9,-3.26 5.4,-3.94 8.9,-3.56 -0.6,2.46 -3.2,5.46 -5.9,6.86 -1.3,0.7 -2.5,1.4 -4,1.4 z"/>
        <path style="fill:#2b0000;stroke:none" d="m 147.7,100.7 c -0.1,0.2 -0.4,0.8 -0.5,1.2 0,0.6 0.2,1.4 0.4,1.9 0.2,0.3 0.5,0.6 0.9,0.8 0.4,0.3 1.3,0.5 1.6,0.6 0.1,-0.3 0.4,-1.2 0.4,-1.7 0,-0.4 0,-0.8 -0.2,-1.2 -0.2,-0.4 -0.8,-1 -1.3,-1.3 -0.4,-0.3 -1.1,-0.3 -1.3,-0.3 z"/>
        <path style="fill:none" d="m 145.9,106.5 c 0,0 -0.3,-2.6 1,-4.7 1.9,-3.26 5.4,-3.94 8.9,-3.56 -0.6,2.46 -3.2,5.46 -5.9,6.86 -1.3,0.7 -2.5,1.4 -4,1.4 z"/>
      </g>
    </g>
    <g id="wing_left">
      <path style="fill:#aaaaaa" d="m 385.2,241.2 c 6.7,-7.2 14,-6.7 18.9,0.1 1.3,1.7 -0.3,4.8 -1.6,5.9 -1.4,1.2 -4.8,2.1 -5.5,0.3 -1.9,-4.3 -4.3,-8 -11.8,-6.3 z"/>
      <path d="m 346.4,307.7 c 19,-2.6 31.7,4.5 38.1,23.3 3.2,-11.4 15,-12.2 21.1,-4.7 5.9,7.3 9.8,22.4 4.7,39.6 10,-19.9 24.6,-20 29.8,-7.9 4.4,10.6 2.4,30 -3.6,46.2 8.4,-6.9 17.1,4.8 12.8,19.6 -3.4,11.8 -16.7,25.2 -33.3,35.3 10.9,2.7 15.5,23.4 -6.3,34.6 -10.5,5.4 -23.9,10.3 -41.8,11 10.2,20.9 -14.2,29.1 -46.2,35.6 -28.1,5.6 -63.4,1.4 -71.9,6.9 3.5,2.3 32.9,3.6 48.1,2.6 54.1,-3.8 123.8,-16.6 171.8,-105.6 27.2,-50.4 18.2,-158.6 -65.5,-205 -3.2,-1.8 -7.9,7.9 -6.8,10.9 1.6,4.4 4.7,4.4 -2.3,12.2 -15.8,17.6 -38.6,20.8 -55.4,14"/>
      <path style="fill:#333333;stroke:none" d="m 474.8,404.2 c 0.6,-2 1.1,-4 1.8,-5.9 0.3,-1.1 0.7,-2.1 1.1,-3 0.1,-0.3 0.2,-0.5 0.3,-0.6 0.1,0 0.1,0 0,0 -0.1,0.1 -0.2,0.1 -0.3,0 -0.1,-0.2 -0.2,-0.1 -0.1,0 0,0.2 0.1,0.4 0.1,0.7 0,1.9 -0.3,3.9 -0.5,5.9 0,0 0,0 0,0 -0.4,2.7 -0.8,5.3 -1.3,8 0,0 0,0 0,0 -1.7,8.7 -4.1,17.2 -7.3,25.3 -5.6,14.2 -13.3,27.2 -22.2,38.6 -14.1,18.1 -30,32.3 -46.2,42.8 -21.3,13.8 -42.5,20.8 -56.9,24.6 -14.7,3.7 -23.4,4.7 -23.4,4.7 0,0 8.7,-0.9 23.5,-4.6 14.3,-3.6 35.6,-10.5 57.1,-24.2 16.3,-10.5 32.3,-24.7 46.6,-42.8 9,-11.4 16.7,-24.4 22.4,-38.7 3.2,-8.2 5.7,-16.8 7.3,-25.6 0,0 0,0 0,0 0.5,-2.6 1,-5.3 1.3,-8 0,0 0,0 0,0 0.3,-2 0.6,-4 0.6,-6 0,-0.3 -0.1,-0.6 -0.1,-0.9 0,-0.1 -0.1,-0.4 -0.4,-0.7 -0.2,-0.1 -0.4,-0.1 -0.6,0 -0.2,0.1 -0.3,0.2 -0.3,0.3 -0.2,0.2 -0.4,0.5 -0.5,0.7 -0.5,1.1 -0.8,2.1 -1.2,3.2 -0.6,1.9 -1.2,3.9 -1.7,5.9 0,0 0,0 0,0 0,0 0,0 0,0 -5.3,18.7 -10.7,33.4 -17.8,46.4 -6.4,11.9 -12.4,18.7 -12.4,18.7 0,0 6.2,-6.6 12.9,-18.4 7.2,-12.8 13,-27.8 18.2,-46.4 0,0 0,0 0,0 0,0 0,0 0,0 z m -11.9,-77.8 c 0.7,4.5 1.4,8.6 1.9,12.8 0.8,6.6 1.3,12.8 1.5,18.7 1.1,30.5 -4.9,48.6 -4.9,48.6 0,0 6.6,-18 5.8,-48.6 -0.2,-5.9 -0.6,-12.2 -1.5,-18.8 -0.5,-4.2 -1.1,-8.4 -1.8,-12.8 0,0 0,0 0,0 -1.9,-11.7 -2.6,-12.7 -1.6,-13 0,0 0.1,0 0.4,0.2 2.9,3 8.6,23.1 9.5,37 0,0 0,0 0,0 1,17.8 -0.1,33.9 -2.4,48.1 -6.8,40.5 -22.8,60.7 -22.8,60.7 0,0 16.5,-19.9 23.6,-60.6 2.5,-14.2 3.6,-30.3 2.6,-48.2 0,0 0,0 0,0 -0.9,-14.1 -6.6,-34.4 -9.8,-37.7 -0.4,-0.4 -0.9,-0.7 -1.5,-0.5 -2,0.8 -0.9,2.5 1,14.1 0,0 0,0 0,0 z m -28.5,-51.5 c 4.8,14.8 8.2,26.6 10.6,38.4 5.4,25.6 3.7,41.4 3.7,41.4 0,0 2.2,-15.8 -2.9,-41.6 -2.3,-11.8 -5.7,-23.8 -10.4,-38.5 0,0 0,0 0,0 -0.7,-2.2 -0.7,-3.1 -0.7,-3.2 0,0 -0.2,0.1 -0.2,0.1 0,0 0,0 0,0 0,0 0,0 0,0 0,0 0,0.1 0.1,0.1 0,0 0,0 0,0 0.2,0.1 0.3,0.3 0.6,0.5 0.5,0.6 1.3,1.6 2.2,3 4.4,6.8 12,21.8 15.9,36.2 0,0 0,0 0,0 4,14.9 6.6,27.7 8.1,39.7 3.4,29.2 -1.4,46.5 -1.4,46.5 0,0 5.4,-17.2 2.2,-46.6 -1.4,-12 -3.9,-25 -7.9,-39.8 0,0 0,0 0,0 -4,-14.5 -11.6,-29.7 -16.1,-36.6 -1.8,-2.7 -3.4,-4.8 -4.3,-3.7 -0.4,0.5 -0.2,1.9 0.5,4.1 0,0 0,0 0,0 z m -17.1,-12.2 c 0.3,0.8 0.4,1.7 0.6,2.6 0.3,1.4 0.5,2.8 0.7,4.1 0.6,4 1.1,8 1.4,11.4 0.5,5.1 0.8,9.4 0.9,13.1 0,0 0,0 0,0 0.4,7.5 0.1,11.8 0.1,11.8 0,0 0.5,-4.3 0.4,-11.8 0,0 0,0 0,0 0,-3.7 -0.2,-8 -0.6,-13.1 -0.2,-3.5 -0.6,-7.5 -1.2,-11.5 -0.2,-1.4 -0.4,-2.8 -0.7,-4.2 -0.2,-0.9 -0.4,-1.8 -0.7,-2.7 0,0 0,0 0,0 -0.7,-2 -1,-3.4 -0.8,-3.9 0,0 0,0 0,0 0,0 0,0 0,0 0,0 0,0 0,0 0,0 0.1,0.1 0.3,0.2 1.2,0.8 3.9,4.2 8.2,11.6 0,0 0,0 0,0 2.6,4.4 4.5,9.3 6.1,13.8 2.5,6.7 4.4,13.3 6,19.2 2.2,8.2 3.8,15.3 4.9,21.4 0,0 0,0 0,0 2.3,12.8 2.5,20.2 2.5,20.2 0,0 0,-7.4 -2.1,-20.3 0,0 0,0 0,0 -1,-6.1 -2.4,-13.3 -4.5,-21.5 -1.5,-5.9 -3.4,-12.6 -5.9,-19.4 -1.6,-4.4 -3.5,-9.4 -6.1,-13.9 0,0 0,0 0,0 -5.4,-9.3 -8.4,-12.7 -9.8,-12.2 -1.1,0.4 -0.7,2.6 0.3,5.1 0,0 0,0 0,0 z m -14.3,5.7 c -1.6,11.7 -5.9,23.1 -8.2,29.4 -2.6,6.9 -4.3,10.8 -4.3,10.8 0,0 1.9,-3.8 4.8,-10.7 2.6,-6.2 7,-17.4 8.7,-29.4 0,0 0,0 0,0 1,-7.3 2.3,-11.5 3.8,-14.2 0,0 0,0 0,0 0.1,-0.2 0.2,-0.4 0.4,-0.5 0.1,-0.1 0.2,-0.1 0.3,-0.1 0.6,0.1 1,0.7 1.4,1.3 0.8,1.1 1.4,2.5 1.9,3.8 0.8,2.1 1.4,4.3 1.9,6.4 1.7,7.6 2.5,15.2 2.9,21.4 1.6,21 0.6,33.7 0.6,33.7 0,0 1.4,-12.6 0.2,-33.7 -0.4,-6.3 -1,-14 -2.8,-21.6 -0.5,-2.1 -1.1,-4.4 -1.9,-6.6 -0.5,-1.3 -1.1,-2.7 -1.9,-4 -0.5,-0.7 -1.1,-1.4 -2.1,-1.7 -0.4,0 -0.7,0.1 -1.1,0.3 -0.3,0.2 -0.6,0.5 -0.7,0.9 0,0 0,0 0,0 -1.5,2.8 -2.9,7.1 -3.9,14.5 0,0 0,0 0,0 z m -18.9,11.4 c -14.2,8.2 -25.7,8.4 -25.7,8.4 0,0 11.7,0.9 26.2,-7.6 0,0 0,0 0,0 9.2,-5.4 10.8,-9.1 12.2,-9.2 0,0 0,0 0,0 0.1,0 0.1,0.1 0.2,0.1 0.1,0.1 0.1,0.3 0.2,0.5 0.2,0.8 0.1,1.7 0.1,2.5 -0.3,3.1 -0.9,6.2 -1.5,8.9 -1,4.1 -2,7.8 -2.8,10.7 0,0 0,0 0,0 -1.8,5.9 -3.1,9.2 -3.1,9.2 0,0 1.6,-3.2 3.6,-9.1 0,0 0,0 0,0 0.9,-2.8 2.1,-6.5 3.1,-10.6 0.7,-2.7 1.4,-5.8 1.6,-9 0.1,-0.9 0.2,-1.8 -0.1,-2.8 0,-0.3 -0.1,-0.6 -0.4,-0.9 -0.2,-0.3 -0.5,-0.5 -0.9,-0.5 0,0 0,0 0,0 -2,0.1 -3.5,4 -12.7,9.4 0,0 0,0 0,0 z"/>
      <path style="fill:none" d="m 336.3,312.9 c 4.7,3.4 11.1,2.3 13.9,-1.8 m -22,-35.7 c 2.3,-3.9 8.2,-4.7 12.2,-2.5"/>
    </g>
    <g id="leg_left">
      <path style="fill:#aaaaaa" d="m 189.3,398.5 c 6.1,-7.6 13.4,-7.6 18.8,-1.2 1.4,1.7 0,4.9 -1.2,6 -1.3,1.4 -4.6,2.4 -5.5,0.7 -2.1,-4.1 -4.8,-7.6 -12.1,-5.5 z m -13.6,19.3 c 2.4,-9.5 9,-12.5 16.7,-8.9 1.9,0.9 2,4.4 1.4,6 -0.7,1.7 -3.3,4.1 -4.8,2.9 -3.6,-2.9 -7.5,-5 -13.3,0 z m 51.6,65.4 c 9.6,1.9 15.2,-2.7 15.3,-11.2 0,-2.1 -3.1,-3.7 -4.8,-3.8 -1.9,-0.2 -5.1,1.1 -4.7,3 1,4.5 1.2,9 -5.8,12 z m -50.9,-37.6 c -4.5,-8.7 -1.5,-15.4 6.6,-17.7 2,-0.6 4.4,2 5,3.5 0.6,1.8 0.3,5.3 -1.6,5.4 -4.7,0.2 -9,1.2 -10,8.8 z m 163.4,11.6 c 9.3,-2.9 12,-9.7 8,-17.1 -1,-1.9 -4.5,-1.8 -6,-1.1 -1.7,0.8 -4,3.5 -2.7,4.9 3.1,3.5 5.4,7.3 0.7,13.3 z"/>
      <path d="m 316.2,326.1 c -20.5,23.4 -20,69.4 1.3,88.9 -1.8,2.1 -3.3,5 -3.1,8.1 -4.6,1.6 -7.6,5.9 -13.9,6.9 -7.6,1.1 -17.1,3.9 -34.1,4.4 -18.7,0.7 -36.5,-4.1 -53.2,-35.8 -0.4,-0.9 -1.8,-2 -2.6,-1.4 -3.3,2.4 -5.7,4.8 -7.9,8.3 -0.8,1.3 -1.1,3.9 0.1,4.8 8.7,6.4 12.8,9.5 21.4,15.9 -11,-1.9 -6.6,22.8 23.1,20 1.2,-0.2 1.8,0.1 2.6,0.3 7.6,1.7 14.8,3.3 18.3,3.7 13,1.6 47,3.6 65.9,-4.3 0.8,0.7 1.2,1.9 3.1,1.4 6,-1.5 12.1,-5.8 12.7,-8.2 0.1,-0.6 0.5,-1 1.4,-1.5 1.2,-0.6 1.7,-3.3 1.3,-4.4 -16.9,-47.8 41.1,-35.6 44.3,-68.9"/>
      <path d="m 227,426.5 c -9.6,-8 -19.7,-11.8 -28.2,-21.8 -0.9,-1 -3.3,-1.2 -4,0 -2.5,4.5 -3.8,8.7 -4.5,13.8 -0.2,1.5 0.2,3.9 1.7,4.1 12.6,2.3 20.6,5.5 31,9.8"/>
      <path d="m 222.5,431.3 c -10.7,-4.8 -19.6,-8.6 -35.7,-9.8 -1.3,-0.1 -2.2,1.3 -2.3,2.6 -0.3,4.6 0.5,10 2,14.4 0.5,1.6 1.1,2.9 3.3,1.8 21.4,-10.5 45.9,7.8 39.8,27.4 -0.4,1.3 -0.6,3.1 1.4,3.6 4.8,1 10,0.8 14.4,-1.2 1,-0.5 1.9,-1.8 0.6,-3.4 -7.9,-10.1 -3.4,-12.9 -2.6,-15.7 0.4,-1.6 2.6,-2.4 3.9,-4.8"/>
      <path style="fill:none" d="m 334.1,445.9 c 1.3,-0.6 2.5,-1.2 3.7,-1.8 m -105.8,-3.9 c 0.3,4.7 5.2,7.5 9.5,7.1 2,0 3.9,-0.7 5.8,-1.1 m 67.1,-23.1 c 0.1,1.2 0.4,2.4 1,3.5 m 2.1,-11.6 c 1.7,1.5 3.5,2.9 5.4,4.1 m 22.1,11.4 c 1.1,2.1 0.4,4.5 -1.6,5.8 m 61.5,-78 c 0.5,4.7 -1.7,11.8 -10.8,15.4 m -82.8,-54 c -3.6,3 -7,9.5 -3,18.5"/>
    </g>
    <g id="tail">
      <path d="m 242.7,68.19 c 3,0.16 0.8,-3.04 -1.6,-5.38 -2.4,-2.32 -5.1,-4.54 -2.9,-5.02 3.4,-0.76 7.6,1.19 12.2,3.16 4.6,1.99 9.7,3.95 15.2,3.29 3,-0.36 1.2,-2.95 -1.1,-5.53 -2.2,-2.55 -4.8,-5.05 -2.5,-5.32 3.6,-0.41 7.7,2 12.2,4.51 4.5,2.52 9.2,5.1 14.7,5.31 3.1,0.12 1.7,-2.69 -0.2,-5.57 -1.8,-2.84 -4.1,-5.67 -1.8,-5.59 3.8,0.16 7.6,3.19 11.6,6.42 4,3.26 8.2,6.7 13.6,8.13 0.2,0.1 0.4,0.1 0.5,0.1 2,0.3 1.9,-1.58 1.1,-3.98 -1.1,-3.6 -3.9,-8.14 -1.1,-7.45 1,0.23 1.9,0.67 2.8,1.25 3.3,2.06 6,5.79 8.8,9.63 2.9,3.89 5.6,7.69 9.8,10.68 0.4,0.31 0.8,0.5 1.1,0.56 0.9,0.2 1.4,-0.72 1.7,-2.18 0.3,-2.03 0,-4.41 -0.1,-6.6 -0.1,-1.99 0.1,-3.36 1.6,-2.33 1.1,0.79 2.1,1.86 3,3.12 4.1,6.34 3.8,16.28 7.7,24.55 0.3,0.47 0.5,0.93 0.8,1.4 0.8,1.67 1.8,1.44 2.8,0.24 1,-1.22 1.9,-3.22 2.7,-5.12 v 0 c 1,-2.5 1.9,-4.66 3,-2.69 0.1,0.26 0.3,0.52 0.4,0.79 1.7,3.73 1,8.87 -0.1,14.13 -1.1,5.2 -2.4,10.3 -2.2,16 0.1,5 -8,4.8 -8.1,0.1 -0.2,-4.7 -2.7,-8.2 -5.1,-10.1 -3.3,-2.5 -4.7,-6.3 -3.9,-9.11 -0.1,0 -0.1,-0.1 -0.2,-0.1 -3.6,-1.48 -5.6,-5.1 -5.4,-7.83 -3,-0.43 -5.2,-2.26 -6.4,-4.24 -0.4,-0.72 -0.7,-1.47 -0.9,-2.19 -4.1,0.32 -7.5,-2.15 -8.6,-4.81 -3.2,0.89 -6.5,-0.19 -8.4,-1.92 -0.5,-0.42 -0.9,-0.88 -1.2,-1.36 -3.8,1.63 -8.4,0.23 -10.2,-2.01 -3.7,2.1 -8.5,1.24 -10.5,-0.8 -3.6,2.53 -8.4,2.09 -10.8,0.21 -3.3,2.85 -8.3,2.77 -10.8,1.04 -3.2,3.09 -8.3,3.28 -10.9,1.68 -3.1,3.25 -8.3,3.71 -11,2.14 -8.1,7.88 -13,-11.83 -1.3,-11.21 z"/>
      <path style="fill:none" d="m 352.3,118.9 c -0.4,-7.5 -2.7,-14.9 -6.2,-21.65 -0.2,-0.43 -0.4,-0.87 -0.7,-1.3 -3.2,-5.85 -7.7,-11.06 -13,-15.16 v 0 c -0.3,-0.23 -0.6,-0.46 -0.9,-0.68 -6,-4.37 -12.8,-7.44 -20,-9.45 -0.1,0 -0.3,-0.1 -0.4,-0.12 m -65.1,5.17 c -0.4,1.49 -1.1,2.71 -2,3.69 m 13,-5.77 c -0.4,1.48 -1.1,2.68 -2,3.63 m 13.1,-5.2 c -0.5,1.45 -1.3,2.62 -2.2,3.52 m 13.3,-4.38 c -0.6,1.41 -1.5,2.5 -2.5,3.34 m 13.4,-3.31 c -0.7,1.34 -1.6,2.35 -2.7,3.1 m 13.5,-1.99 c -0.8,1.25 -1.9,2.16 -3,2.79 m 13.5,-0.41 c -0.4,0.5 -0.9,0.93 -1.3,1.3 v 0 c -0.7,0.47 -1.3,0.84 -1.9,1.11 m 13.2,1.41 c -1.2,0.96 -2.4,1.55 -3.6,1.88 m 12.5,3.67 c -0.2,0.11 -0.4,0.21 -0.7,0.3 v 0 c -1.1,0.49 -2.1,0.75 -3.2,0.83 m 11.3,6.2 c -1.5,0.37 -2.8,0.41 -4,0.24 m 9.6,8.64 c -1.6,0 -2.9,-0.3 -4,-0.72"/>
      <path d="m 348.3,118.8 c 0.1,2.8 -2.8,1.3 -5.6,0.1 -2.9,-1.2 -5.8,-2.1 -5.6,-0.7 0.2,1.9 2.4,3.8 4.5,6.6 2.6,3.4 4.9,8.7 2.1,13.6 -1.4,2.4 -3,-0.5 -4.7,-2.9 -1.8,-2.6 -3.9,-4.8 -4.4,-3.5 -1.1,2.1 0.8,6.4 0.3,11.3 -0.4,3.4 -2,7.1 -5.6,9 -2.5,1.2 -2.3,-2.1 -2.4,-5.1 -0.1,-3.1 -0.5,-6.1 -1.7,-5.4 -2.5,1.5 -3.4,7.9 -8.1,11.8 -2,1.6 -4.7,2.6 -7.5,2.3 -2.8,-0.3 -0.8,-2.9 0.8,-5.5 1.6,-2.6 2.8,-5.3 1.4,-5.4 -1.8,-0.1 -4.1,1.9 -7.4,3.5 -3.3,1.6 -7.6,2.8 -11.7,1.4 v 0 c -0.7,-0.3 -1.5,-0.7 -2.2,-1.2 -2.2,-1.6 1,-2.9 3.5,-4.4 2.6,-1.5 4.9,-3.4 3.9,-4 -1.2,-0.8 -3.6,-0.2 -6.8,-0.3 -3.1,-0.1 -6.9,-1 -9.5,-3.6 v 0 c -1,-1.1 -1.7,-2.4 -2.2,-3.9 -0.7,-2.7 2.5,-1.8 5.4,-1.3 3.1,0.5 6.1,0.5 5.6,-0.7 -1,-2.7 -7.6,-5.2 -10.5,-11.3 -0.9,-2.2 -1.4,-4.7 -0.9,-7.2 0.7,-2.8 3.1,-0.5 5.5,1.4 2.4,2 4.9,3.7 5.2,2.2 0.4,-2.8 -2.9,-6.8 -3.9,-12.1 -0.5,-3.3 -0.3,-7.03 2.2,-9.73 1.8,-1.93 2.8,1.29 4,3.95 1.2,2.78 2.8,5.28 3.5,4.38 0.8,-1.1 0.4,-3.13 0.6,-5.65 1.7,-4.88 3.9,-11.18 9.7,-13.69 2.7,-1.13 2.3,2.11 2,5.22 -0.3,3.18 -0.5,6.35 1.1,5.59 2.8,-1.37 4.2,-6.11 7.6,-10.08 2.4,-2.84 5.7,-5.24 9.9,-5.49 2.9,-0.16 1.4,2.76 0.1,5.57 -1.4,2.89 -2.6,5.77 -0.9,5.6 5.3,-0.49 12.2,-11.45 22.6,-9.86 2.9,0.46 0.9,3 -1.1,5.5 -2.1,2.53 -4.2,5.06 -2.2,5.3 1.7,0.22 3.7,-0.48 5.9,-1.51 v 0 c 5.1,-2.38 11.8,-6.53 19,-4.45 2.9,0.83 0.6,3.1 -1.7,5.3 -2.4,2.23 -4.9,4.42 -2.9,4.94 3.1,0.84 7.3,-1.19 12.2,-2.69 4.2,-1.31 9,-2.22 13.6,-0.43 2.8,1.09 0.3,3.14 -2.2,5.12 -2.6,2 -5.3,4.01 -3.4,4.61 4.4,1.6 11.3,-2.32 18.7,-2.28 2.4,0 4.8,0.45 7.2,1.68 2.6,1.4 -0.1,3.1 -2.9,4.8 -2.8,1.7 -5.6,3.4 -3.8,4.2 5.3,2.7 16.8,-3.4 25.4,2.8 2.4,1.7 -0.5,3.1 -3.5,4.4 -3,1.2 -6,2.5 -4.4,3.6 5,3.5 17.3,-1.1 25.3,6 2.2,2 -0.8,3 -3.9,4 -3.2,1 -6.4,1.9 -4.8,3.2 3.5,3 11.6,1.8 18.6,4.4 2.2,0.8 4.4,2.1 6.2,3.9 2.1,2.2 -1,3 -4.2,3.7 -3.2,0.7 -6.5,1.3 -5,2.8 4.4,4.5 17.3,2.1 24,10.3 0.3,0.3 0.5,0.6 0.7,0.9 0.5,1.3 -0.8,1.9 -2.7,2.2 -3.6,0.7 -9.3,0.7 -7.7,2.6 0.6,0.7 1.4,1.3 2.4,1.8 5.3,2.8 15.7,2.9 20.8,10.3 1.6,2.5 -1.6,2.8 -4.8,3 -3.2,0.1 -6.6,0.2 -5.4,1.9 0.9,1.2 2.3,2.1 4,2.9 5.3,2.3 13.7,4.2 17.4,11.4 1.4,2.7 -1.9,2.6 -5.1,2.4 -3.3,-0.3 -6.6,-0.6 -5.6,1.2 0.9,1.6 2.7,2.9 4.9,4.2 v 0 c 5.1,2.8 12.4,5.7 15.4,12.5 1.2,2.8 -2,2.5 -5.2,2.1 -3.2,-0.5 -6.6,-1.1 -5.7,0.8 1.5,3.1 5.8,5.2 10.2,7.9 3.8,2.5 6.6,4 8.5,8.6 1.1,2.9 -2,2.5 -5.3,1.9 -3.3,-0.6 -6.7,-1.3 -5.7,0.6 5.9,11.4 24.8,21.7 34.6,91.5 2.4,-56 -3.2,-87.6 -6.5,-103.2 -0.5,-2.2 -2.6,1 -4.5,3.9 -1.8,2.8 -3.8,5.4 -5,2.5 -1.9,-4.8 -0.3,-8.1 0.5,-12.7 1,-5.2 2.5,-10 1,-13.4 -0.9,-2 -2.5,1.1 -4.3,3.9 -1.9,2.8 -3.8,5.4 -5,2.6 -3.1,-7 -0.8,-14.6 -0.2,-20.9 v 0 c 0.3,-2.6 0.2,-5 -0.7,-6.9 -1.1,-2 -2.5,1.2 -4.1,4.2 -1.7,2.9 -3.4,5.6 -4.8,2.9 -3.8,-7.4 -1.6,-16 -2.2,-22.7 -0.1,-2.1 -0.6,-4 -1.5,-5.5 -1.3,-1.9 -2.3,1.6 -3.6,4.7 -1.2,3.1 -2.7,6 -4.4,3.5 -5.3,-7.9 -3.2,-18.1 -5.2,-24.5 -0.3,-1.1 -0.8,-2 -1.5,-2.8 -1.7,-2.2 -2.5,3.7 -3.8,7.2 -0.7,1.8 -1.6,3 -2.7,2.2 -0.2,-0.2 -0.4,-0.4 -0.6,-0.6 -7,-8.5 -3.9,-21.4 -8.8,-26.6 -1.5,-1.6 -2,1.9 -2.7,5.2 -0.8,3.3 -1.7,6.3 -3.8,4.1 -1.9,-2 -3.2,-4.3 -4.2,-6.7 -2.9,-7.1 -2.7,-15.6 -6.6,-19.1 -1.7,-1.5 -1.9,2 -2.3,5.3 -0.5,3.4 -1.2,6.5 -3.4,4.5 -8.3,-7.4 -7.5,-20.66 -13.4,-24.91 -1.9,-1.34 -1.7,2.22 -1.7,5.61 -0.1,3.4 -0.5,6.5 -3,4.8 -9,-6.53 -9.9,-19.8 -16.4,-23.31 -2.1,-1.1 -1.3,2.43 -0.9,5.78 0.3,3.4 0.4,6.56 -2.3,5.12 -2.5,-1.36 -4.6,-3.15 -6.4,-5.16 -5,-5.83 -7.9,-13.72 -12.8,-15.64 -2.1,-0.82 -1,2.56 -0.3,5.83 0.8,3.31 1.2,6.46 -1.6,5.36 -4.9,-1.88 -8.2,-5.6 -11.2,-9.31 -3.3,-4.18 -6.2,-8.35 -9.8,-9.4 -2.2,-0.63 -0.8,2.65 0.3,5.84 1,3.22 1.7,6.33 -1.2,5.49 -7.4,-2.13 -12.1,-8.78 -17.1,-13.03 v 0 c -2,-1.79 -4,-3.14 -6.1,-3.48 -2.4,-0.37 -0.5,2.73 1,5.79 1.5,3.1 2.6,6.08 -0.4,5.6 -11.1,-1.74 -18.7,-12.89 -26.7,-12.31 -2.5,0.19 0.2,2.74 2.4,5.36 2.2,2.69 3.8,5.35 0.8,5.53 -4.7,0.29 -9.1,-0.93 -13.4,-2.24 -6.2,-1.77 -12.4,-3.59 -16.7,-1.69 -2.3,1.03 1.1,2.52 4.1,4.25 3.1,1.79 5.5,3.74 2.6,4.95 -6.4,2.75 -13.2,2.09 -19.4,2.23 -4.6,0.73 -8.8,2.38 -11.3,5.25 -2.1,2.36 2.1,1.7 5.7,1.86 3.9,0.17 6.7,1.11 4.4,3.46 -3.4,3.59 -6.6,5.97 -10.3,8.73 -5.6,3.94 -11.3,8.24 -12.3,13.54 -0.5,2.7 2.8,0.5 5.9,-1 3.3,-1.6 6.2,-2.4 5.6,0.7 -0.7,3.1 -1.8,5.8 -3.2,8.6 -3.5,7.2 -8.6,14.8 -6.4,21.7 1,2.8 2.6,-0.9 4.7,-3.8 2.1,-3.1 4.3,-5.1 5.2,-2 0.6,2 0.9,3.9 1.2,5.8 v 0 c 0.7,4.8 1,9.7 2.1,14.4 1.1,4.6 3.1,8.9 6.5,11.2 2.6,1.7 1.4,-2.4 1.2,-6 -0.3,-3.8 0.3,-6.7 2.9,-4.7 1,0.7 1.9,1.4 2.8,2.2 v 0 c 3.9,3.3 6.9,7.5 10.3,11.1 3.5,3.6 7.4,6.6 11.5,6.9 2.9,0.2 0.1,-2.8 -1.8,-5.7 -2,-3.1 -3,-6 0.1,-5.6 3.7,0.4 6.9,1.3 10.3,2.3 7.5,2.4 15.8,5.2 21.6,1.9 2.6,-1.4 -1.4,-2.3 -4.6,-3.8 -3.4,-1.5 -5.8,-3.3 -3,-4.7 4.5,-2.3 8.9,-3.3 13.7,-4.7 6.4,-1.9 12.9,-4.4 15.4,-9.3 1.4,-2.7 -2.5,-1.2 -6,-0.6 -3.6,0.6 -6.6,0.4 -5.1,-2.4 3.4,-5.8 8.1,-10.1 11.9,-15.2 2.9,-4 5.1,-8.2 4.8,-12.1 -0.3,-2.9 -2.8,0.3 -5.4,2.6 -2.7,2.4 -5.4,3.9 -5.5,0.7"/>
      <path style="fill:none" d="m 533.2,256.7 c -2.5,-7.1 -5.2,-14.2 -8,-21.3 -1.6,-4.1 -3.3,-8.2 -5,-12.2 -1.2,-2.9 -2.4,-5.8 -3.7,-8.7 -2.5,-5.7 -5.1,-11.3 -7.9,-16.9 -0.6,-1.2 -1.2,-2.4 -1.8,-3.6 -3.1,-5.9 -6.3,-11.7 -9.9,-17.2 -0.5,-0.8 -1,-1.7 -1.6,-2.5 -4,-6 -8.5,-11.8 -13.1,-17.5 -0.1,-0.2 -0.3,-0.4 -0.5,-0.6 -4.8,-5.9 -9.8,-11.6 -15,-17 -1.8,-1.9 -3.6,-3.7 -5.4,-5.5 -3.6,-3.5 -7.2,-7 -11,-10.3 -5.6,-5.1 -11.5,-9.9 -17.6,-14.3 -6.2,-4.5 -12.6,-8.5 -19.2,-12.13 -2.3,-1.22 -4.6,-2.38 -7,-3.49 -4.5,-2.13 -9,-4.09 -13.7,-5.89 -4.1,-1.61 -8.3,-3.11 -12.6,-4.51 -2.9,-0.97 -5.9,-1.9 -8.9,-2.76 -6,-1.73 -12.1,-3.21 -18.2,-4.34 -1.3,-0.23 -2.6,-0.45 -4,-0.66 -7.5,-1.16 -15.1,-1.8 -22.6,-1.4 -4,0.24 -7.9,0.76 -11.8,1.63 -3.5,0.8 -6.9,1.94 -10.2,3.33 -5.1,2.2 -10,4.97 -14.7,8.03 -1.6,1.1 -3.1,2.39 -4.5,3.83 -2.6,2.75 -4.7,5.97 -6.4,9.36 -1.7,3.4 -2.9,7 -3.8,10.7 -0.5,2.6 -0.9,5.3 -1.1,8 -0.3,4.9 0.1,9.8 1.4,14.5 0.5,1.7 1.1,3.4 1.8,5 2.3,5.3 6,10 10.6,13.5 0.9,0.6 1.8,1.2 2.7,1.8 5.6,3.4 11.8,5.6 18.3,6.3 3,0.4 6,0.4 9,0 4.5,-0.5 9,-1.8 13,-3.9 3.6,-1.8 6.9,-4.1 9.8,-6.9 2.5,-2.5 4.7,-5.3 6.5,-8.4 2.5,-4.5 4.2,-9.5 4.9,-14.6 0.3,-2.4 0.4,-4.8 0.3,-7.2"/>
    </g>
  </g>
  <use id="shine" xlink:href="#shield" style="fill:url(#rg);stroke:#000000;stroke-width:3;"/>
</svg>
