<?xml version="1.0" encoding="UTF-8"?>
<svg xmlns="http://www.w3.org/2000/svg" xmlns:xlink="http://www.w3.org/1999/xlink" width="600" height="660">
<style id="style_css_sheet" type="text/css">
.lion {
  fill:#ffcc00;stroke:#cc0000;
}
.secondary {
  fill:#ff9900;
}
.detail {
  fill:#cc0000;stroke:none;
}
</style>
<defs>
  <radialGradient id="rg" gradientUnits="userSpaceOnUse" cx="220" cy="220" r="405">
    <stop style="stop-color:#ffffff;stop-opacity:.3" offset="0" />
    <stop style="stop-color:#ffffff;stop-opacity:.2" offset=".2" />
    <stop style="stop-color:#666666;stop-opacity:.1" offset=".6" />
    <stop style="stop-color:#000000;stop-opacity:.13" offset="1" />
  </radialGradient>
  <clipPath id="shield-clip">
    <path id="shield" d="m2,2v257c0,286 298,398 298,398c0,0 298-112 298-398V2z" />
  </clipPath>
  <g id="towers" style="stroke:#000044;stroke-width:2;stroke-linecap:round;stroke-linejoin:round;">
    <g id="tower">
      <path style="fill:#000088;" d="m 95.84,116.6 7.36,6.4 v 38 l -17.92,-10 z m 33.96,-8.3 4.8,7.2 v 37.9 l -15.2,-11 z m 86.4,8.3 -7.4,6.4 v 38 l 17.9,-10 z m -34,-8.3 -4.8,7.2 v 37.9 l 15.2,-11 z"/>
      <path style="fill:#1111dd;" d="m 147.5,106.2 v 20.8 l -17.7,1.8 v -20.5 c -5.5,0.8 -10.8,2.1 -17.6,3.5 v 21.6 l -16.36,4.4 v -21.2 c -5.44,2.1 -11.68,4.4 -17.12,6.6 v 45.1 l 11.36,9 c 7.04,68.5 -3.36,135.3 -18.4,195 l -18.72,18.7 v 42.1 c 32.64,12.3 60.64,19.2 87.54,21.3 h 15.5 15.5 c 26.9,-2.1 54.9,-9 87.5,-21.3 v -42.1 l -18.7,-18.7 c -15,-59.7 -25.4,-126.5 -18.4,-195 l 11.4,-9 v -45.1 c -5.5,-2.2 -11.7,-4.5 -17.1,-6.6 v 21.2 l -16.4,-4.4 v -21.6 c -6.8,-1.4 -12.1,-2.7 -17.6,-3.5 v 20.5 l -17.7,-1.8 v -20.8 c -2.7,-0.3 -5.5,-0.8 -8.5,-0.8 -3,0 -5.8,0.5 -8.5,0.8 z"/>
      <path style="fill:none;" d="m 259,413 c -25.7,10.4 -71,22.2 -103,22.2 -32,0 -77.28,-11.8 -103.04,-22.2 m 35.36,-127.9 c 22.28,3.5 46.08,5.6 67.68,5.6 21.6,0 45.4,-2.1 67.7,-5.6 m -133.14,-21.6 c 21.64,1.8 45.14,2.6 65.44,2.6 20.3,0 43.8,-0.8 65.4,-2.6 m -129.56,-21.6 c 21.46,-0.1 42.86,-0.1 64.16,-0.1 21.3,0 42.7,0 64.2,0.1 m -127.88,-21.6 c 21.28,-2.2 42.58,-3.3 63.68,-3.3 21.1,0 42.4,1.1 63.7,3.3 m -128.02,-21.6 c 21.72,-4.3 43.02,-6.4 64.32,-6.2 v 0 c 21.3,-0.2 42.6,1.9 64.3,6.2 m -135.02,108.2 c 23.82,5.4 47.52,8.3 70.72,8.5 23.2,-0.2 46.9,-3.1 70.7,-8.5 m -145.26,21.7 c 25.16,7.6 49.96,11.4 74.56,11.6 24.6,-0.2 49.4,-4 74.6,-11.6 m -153.64,21.5 c 26.44,9.4 52.94,14.5 79.04,14.5 26.1,0 52.6,-5.1 79,-14.5 m -163.32,22.2 c 25.44,9.6 57.42,17.3 84.32,17.3 26.9,0 58.9,-7.7 84.3,-17.3 m -161.58,-204 c 0,0 15.52,-9.3 38.28,-13.3 16.3,-2.4 23,-3.2 39,-3.3 v 0 c 16,0.1 22.7,0.9 39,3.3 22.8,4 38.3,13.3 38.3,13.3 m -143.22,9 c 21.72,-6.9 45.32,-10.9 65.92,-10.9 v 0 c 20.6,0 44.2,4 65.9,10.9 m -168.94,213.7 c 25.76,10.4 71.04,22.9 103.04,22.9 32,0 77.3,-12.5 103,-22.9"/>
      <path style="fill:none;" d="m 156,192.5 v 24.5 m 0,73.7 v 24.7 m 0,24.8 v 24.4 m 43.8,-169.4 0.4,23.2 m 1.4,23.4 1.3,23 m 1.3,23.2 1.7,22.9 m 1.9,23.7 2.6,23 m 6.1,22.7 12.6,21 v 21.7 m 16.8,-5.2 v 20.1 m -38.5,-9.3 v 20.4 m -25.6,-86 1.9,24.4 7.2,23 m -12.2,-96.2 1.3,24.7 m -4.2,-121.6 v 24.5 m 2.3,-74 -1.1,25.3 m -64.8,2.1 -0.4,23.2 m -1.4,23.4 -1.3,23 m -1.3,23.2 -1.7,22.9 m -1.9,23.7 -2.6,23 m -6.08,22.7 -12.64,21 v 21.7 m -16.8,-5.2 v 20.1 m 38.52,-9.3 v 20.4 m 25.6,-86 -1.9,24.4 -7.2,23 m 12.2,-96.2 -1.3,24.7 m 4.2,-121.6 v 24.5 m -2.3,-74 1.1,25.3 m 0.7,72.7 -1.2,24.3 m 21.5,-48.3 v 24.3 m 20.6,-0.3 1.3,24.3"/>
      <path style="fill:none;" d="m 221.6,174.6 c 0,0 5.9,-5.8 1.4,-8.2 -4.6,-2.6 -10.4,5.3 -10.4,5.3 m -2.5,-0.7 c 0,0 3.3,-8.4 -2.6,-9.7 -5.7,-1.3 -9.9,7.2 -9.9,7.2 m -1.9,-0.3 c 0,0 0.6,-9 -5.9,-10.3 -6.8,-1.1 -8,8 -8,8 m -2.1,-0.1 c 0,0 0.3,-9.2 -6.3,-10 -6.7,-0.6 -7.6,8.5 -7.6,8.5 m -2,0 c 0,0 -0.3,-9.1 -7.8,-9.1 -7.5,0 -7.8,9.1 -7.8,9.1 m -57.8,10.3 c 0,0 -5.92,-5.8 -1.44,-8.2 4.64,-2.6 10.4,5.3 10.4,5.3 m 2.54,-0.7 c 0,0 -3.34,-8.4 2.6,-9.7 5.7,-1.3 9.9,7.2 9.9,7.2 m 1.9,-0.3 c 0,0 -0.6,-9 5.9,-10.3 6.8,-1.1 8,8 8,8 m 2.1,-0.1 c 0,0 -0.3,-9.2 6.3,-10 6.7,-0.6 7.6,8.5 7.6,8.5"/>
      <path style="fill:#1111dd;" d="m 156,454.4 h 15.5 l 9.9,-0.6 c 0,0 0.8,-25.8 0.5,-46.9 -0.3,-21.1 -12.8,-27.5 -25.9,-27.5 -13.1,0 -25.6,6.4 -25.9,27.5 -0.3,21.1 0.5,46.9 0.5,46.9 l 9.9,0.6 h 15.5"/>
      <path style="fill:none;" d="m 156,379.4 v 9.4 m 13.8,10.2 9.7,-5.2 m -15,-2.3 5.4,-8.8 m 12,43.9 h -9.9 m 9.9,-9.6 h -9.9 m 9.9,-9.6 h -10.2 m 10.1,28.8 h -9.8 m 9.6,9.7 h -9.8 m -29.6,-46.9 -9.7,-5.2 m 15,-2.3 -5.4,-8.8 m -12,43.9 h 9.9 m -9.9,-9.6 h 9.9 m -9.9,-9.6 h 10.2 m -10.1,28.8 h 9.8 m -9.6,9.7 h 9.8"/>
      <path style="fill:#000033;" d="m 156,388.8 c -8.5,0 -15.7,5.6 -16,23.7 -0.2,18.2 0.3,41.9 0.3,41.9 h 31.4 c 0,0 0.5,-23.7 0.3,-41.9 -0.3,-18.1 -7.5,-23.7 -16,-23.7 z"/>
    </g>
    <use xlink:href="#tower" id="tower2" transform="translate(600)scale(-1,1)"/>
    <g id="bridge">
      <path style="fill:#1111dd;" d="m 220,282.7 -6.3,-11 c 1.7,-10 1.8,-24.5 1.9,-36.1 h 84.4 84.4 c 0.1,11.6 0.2,26.1 1.9,36.1 l -6.2,11 c -25.8,-8.9 -48.1,-16.5 -80.1,-16.5 -31.9,0 -54.2,7.6 -80,16.5 z"/>
      <path style="fill:none;" d="m 246.1,260.3 h -31.1 m 0.4,-11.2 h 84.6 84.6 m -30.7,11.2 h 31.1"/>
      <path style="fill:none;" d="m 226,249.1 v 11.2 m 21.1,-11.2 v 11 m 21.2,-11 v 6.6 m 21.1,-6.6 v 4.1 m -52.8,-15.6 v 11.5 m 21.1,-11.5 v 11.5 m 21.2,-11.5 v 11.5 m 95.1,0 v 11.2 m -21.1,-11.2 v 11 m -21.1,-11 v 6.6 m -21.2,-6.6 v 4.1 m 52.8,-15.6 v 11.5 m -21.1,-11.5 v 11.5 m -21.2,-11.5 v 11.5 m -21.1,-11.5 v 11.5"/>
      <path style="fill:none;" d="m 213.8,271.1 c 18.4,-8.1 54.3,-18.2 86.2,-18.2 32,0 67.8,10.1 86.2,18.2"/>
      <path style="fill:none;" d="m 291,264.5 c 0,0 0.4,-9.7 9,-9.7 8.6,0 9,9.7 9,9.7 m -87.7,15.7 c 0,0 -2.4,-8.6 3,-10.5 5.7,-2 10.8,5.6 10.8,5.6 m 2.9,-1.1 c 0,0 -2.5,-9.2 4.2,-10.8 6.6,-1.4 9.9,6.9 9.9,6.9 m 2.6,-0.9 c 0,0 -2,-8.9 5.5,-10.4 7.6,-1.3 9.9,7.7 9.9,7.7 m 2.9,-0.4 c 0,0 -0.7,-9 6.8,-9.8 7.6,-0.9 8.7,8.1 8.7,8.1 m 90.2,15.6 c 0,0 2.4,-8.6 -3,-10.5 -5.7,-2 -10.8,5.6 -10.8,5.6 m -2.9,-1.1 c 0,0 2.5,-9.2 -4.2,-10.8 -6.5,-1.4 -9.8,6.9 -9.8,6.9 m -2.7,-0.9 c 0,0 2.1,-8.9 -5.5,-10.4 -7.6,-1.3 -9.9,7.7 -9.9,7.7 m -2.9,-0.4 c 0,0 0.7,-9 -6.8,-9.8 -7.6,-0.9 -8.6,8.1 -8.6,8.1"/>
      <path style="fill:#1111dd;" d="m 389.2,237.6 v -18.2 h -19.8 v 8.6 h -19.9 v -8.6 h -19.7 v 8.6 h -19.9 v -8.6 h -19.8 v 8.6 h -19.9 v -8.6 h -19.7 v 8.6 h -19.9 v -8.6 h -19.8 v 18.2 z"/>
    </g>
  </g>
  <g class="lion" id="lion" transform="translate(300)scale(0.5)">
		<path d="m 208.4,467.3 c 0,0 -0.2,2.3 -1,3.4 -1.3,2.1 -3.4,4.7 -5.8,5.5 -3,1.6 -5.9,0.6 -8.7,0.3 -2.1,-1.5 -5.2,-4.8 -5.2,-4.8 0,0 -3.5,5.5 -6.6,6.8 -3,1.4 -7.1,1.5 -10.5,0.5 -3.8,-0.9 -7,-4.1 -8.4,-7.3 -0.8,-2.4 0.1,-6.3 0.1,-6.3 0,0 -4,1.3 -5.9,1 -2.9,0.3 -5.7,-0.6 -7.2,-2.5 -2.6,-3.2 -3.1,-6.1 -2.2,-10.1 0.4,-1.7 3.4,-4.3 3.4,-4.3 0,0 -1.9,-2.6 -2.3,-3.7 -0.8,-2.4 0.6,-5.2 0.6,-5.2 0,-2.3 3.2,-4.7 6.2,-4.5 7.4,-0.3 10.9,4.9 18.7,6.8 15.3,2.4 30,-3.4 41.6,-13 3.7,-3.6 6.7,-7.9 9,-12.9 2.1,-3.7 2.8,-10 2.9,-14.7 -1,-7.6 -5.4,-13.9 -7.4,-22.2 -0.7,-3.6 -1.3,-12.9 -1.3,-12.9 0,0 -5,2.9 -5.9,5.1 -0.8,2.3 -0.3,6.9 -1,9.7 -1,2.3 -2.8,3.6 -5.2,4 -2.4,1.5 -5.3,0 -7.6,1.6 -1.9,0.7 -4.1,4.6 -4.1,4.6 0,0 -0.7,-4.1 0.1,-5.7 1.6,-4 6.5,-5.7 7.4,-9.1 0.3,-3.4 -1.8,-4.8 -2.6,-7.8 -0.8,-2.3 -0.6,-4.1 -0.5,-5.8 1.1,-4 7.5,-8.4 7.5,-8.4 0,0 -1.2,-0.7 -2.2,-1.4 -1.1,-0.7 -4.7,0 -4.7,0 8.3,-11.3 12.1,-13.5 25.6,-10.3 0,0 0.4,-4 1.4,-7.4 0.9,-2.8 1.9,-6.1 4.4,-8.1 1.8,-0.9 4.9,-3 4.9,-3 0,0 2.2,-3.2 3,-4.8 1.5,-3.8 4.1,-6.4 7.8,-7.8 3.8,-2.4 7.2,-2.6 11.9,-2.1 14.6,2.4 28.8,5.1 43.8,0 l 7.9,77.3 c -10.3,-2.4 -21.8,-2.1 -31.3,-4.9 -3.4,-0.9 -9.8,-5.6 -13,-8.5 0,0 0.4,7.6 -1.4,13.3 -2.4,4.3 -6.3,9.7 -4.8,15 1,2.3 3.6,4.5 6.2,7.1 2.1,2.6 3.4,6.2 3.5,9.6 0.3,2.3 -0.1,5.8 -1.9,6.7 -7.5,4.3 -15.4,7.6 -17.7,13 -2.3,9.6 -1.4,17.2 -10.6,22 1.1,-4.6 0.2,-7.6 -1.7,-11.2 -1,8.4 -3.1,11.8 -8.8,16.8 0,-5.1 -0.1,-9.2 -1.3,-13.4 -2.2,9 -4.7,14.5 -13.2,17.6 2.3,-4.4 2.8,-8.4 1,-13.2 -2.7,3.8 -2.2,9 -6.9,9.6 z" />
		<path class="detail" d="m 154,448.2 c 1.7,-0.3 3.4,0.3 5.7,0.1 1.7,0.7 3.2,1.6 5.2,1.1 2.2,0.3 6.4,-0.9 6.4,-0.9 -1.4,2.1 -5.6,2.3 -6.6,2.1 -1.8,0.4 -3.4,-0.4 -5.7,-0.7 -1.7,-0.7 -3.4,-1.5 -5.1,-1.2 -0.6,0 -1.8,0.5 -2.4,0.3 -0.5,0.6 -1.1,0.5 -1.1,0.5 l -2.1,-2.5 c 0,0 1.4,1.9 2.8,1 0.6,-0.1 1.8,0.1 2.9,0.2 z m 22.8,7.3 c 0,0 -0.7,1.1 -1.3,1.6 -1.2,0.4 -1.8,1.1 -3.2,1.9 -1.1,0.5 -3.5,0.2 -4.6,0.6 -1.2,0.5 -2.4,1.5 -3.7,1.9 0,0.5 -0.9,1.7 -1,2.8 -0.7,1.1 -0.7,1.6 -0.7,1.6 l -4.6,0.7 c 0,0 3,-1.5 3.7,-2.5 0.1,-0.6 1.3,-1.6 2.1,-3.1 1.1,-0.5 2.4,-1.6 3.6,-2 1.9,-0.9 4.3,-0.7 5.4,-1.1 0.6,-0.5 1.9,-1 2.5,-1.5 z m 19.4,2.4 c -4.1,0 -6.7,2.6 -7.9,4.6 -1.7,2.8 -2,5.6 -0.1,9.4 l -1.3,1 c -1.8,-3.2 -1.4,-7.8 0.2,-10.4 4.2,-6.5 8.5,-4.8 9.1,-4.6 z m 11,5.1 c 1.1,0.8 0.9,2 1.5,2.5 -0.2,1.2 0.2,1.9 0.2,1.9 l -1,0.4 c 0,0 0.1,-1.1 -0.5,-1.8 0.1,-1.1 -0.3,-2.4 -0.8,-3 -0.4,-1.2 -3.7,-3.3 -3.7,-3.3 1.7,0.2 4.4,2.7 4.3,3.3 z" />
		<path class="detail" d="m 218.1,360.2 c 0,0 -2,1.1 -3.2,1.9 -1.3,1.1 -2.6,2.1 -3.8,2.6 -0.7,1.5 -2.2,3.7 -2.3,5.4 -0.7,1.2 -0.3,2.8 -0.5,4 0.4,1.8 0.3,3 0.1,4.7 -0.2,1.6 -1,3.3 -2.9,4.3 -0.6,0.5 -1.8,0.9 -2.4,0.9 -1.1,-0.2 -2.4,-0.3 -2.4,0.3 -1.9,0.9 -2.9,0.7 -3.6,1.9 -0.8,0.5 -0.9,1.7 -1.6,3.2 -0.1,1.2 -0.1,1.8 -0.1,1.8 l -1.4,0.4 c 0,0 0.2,-1.2 1,-2.3 0.2,-1.6 0.9,-3.3 1.5,-3.9 1.3,-1 2.5,-1.4 3.8,-2.3 0.6,0 1.8,0.1 2.3,0.2 1.1,0.1 1.7,0.2 2.4,-0.9 1.2,-0.9 2,-2.1 2.9,-4.2 0.1,-1.3 -0.4,-2.5 -0.2,-4.2 -0.4,-1.2 -0.2,-2.8 -0.1,-4 0.8,-1.6 1.6,-3.9 3,-6 1.4,-1 2.4,-1.5 3.8,-2.4 z" />
		<path class="secondary" d="m 203.9,471.5 c 0.2,-1.8 -3.2,-2.3 -5.5,-2 -1.9,1.1 -5.8,4 -4.2,5.8 3.6,4 3.5,9.3 3,13.8 6.3,-4 8.3,-10.7 6.7,-17.6 z m -40.3,-2.6 c 0.9,-1.5 4.3,-1.1 5.8,0.7 2.2,1.6 3.9,5.7 1.6,6.7 -5,2.3 -6.7,7.3 -8.4,11.7 -3.8,-6.3 -3.1,-13.1 1,-19.1 z m -15.6,-15 c 2,-1 3.5,1.5 3.8,3.9 0.8,2.4 -0.9,6.9 -3.1,6 -5,-1.2 -9.9,1.2 -13.8,3.7 0.9,-7.5 6.1,-12.1 13.1,-13.6 z m 3.8,-16.3 c 1.7,-0.4 3.1,2.7 2.8,4.9 -0.2,2.3 -3.1,6.5 -4.7,5.3 -4.5,-2.8 -9.7,-1.7 -14.3,0.1 2.8,-7.3 9,-10.6 16.2,-10.3 z" />
		<path d="m 165.4,102.2 c -5.2,-4.08 -14,-2 -18.6,3.9 -1,-4.9 -4.3,-7.48 -7.9,-8.18 -7,-1.9 -16.2,3.88 -13.7,12.88 0.7,2.5 5.6,4.3 5.1,6.8 0,0 -0.4,2.7 -0.5,4 0.1,1.2 0.4,2.9 0.4,2.9 0,0 -5.2,-2.7 -7.2,-2.3 -12.4,2.6 -9.8,21.7 2.4,22.2 2.2,0.1 4.3,0.3 6.7,0.2 3.1,-0.6 7.9,0.8 8.3,2.5 0.3,0.5 0.4,1.6 0.7,2.3 7.8,4.7 7.7,12 1.2,14.9 9.1,2.3 11.3,2.3 19.8,-0.4 l 0.2,0.3 c -1.7,5 -3.8,9.6 -7.8,12.2 7.5,3 16.6,-3.8 22.9,-4.5 0.6,3.4 0.3,6.9 1.6,9.9 1.1,2.7 2.7,5.2 5.5,7.3 1,-5 2.3,-7.8 7.5,-9.6 -3.8,11.2 -3.2,18.2 4.2,27.7 -0.7,-7.8 3.3,-5.6 8.6,-14.3 -2,9.9 -3.3,18.8 5.9,25.9 0.1,-4.5 0.5,-8.6 4.1,-11.6 -0.4,9.6 0.7,17.5 9.2,23.5 -0.1,-5.2 0.3,-9.2 4.9,-12.5 -0.2,9.4 2,16.4 10.3,21.7 -2.4,-7.4 2.8,-7.5 3.3,-15.1 0,0 9,18.6 14,22.9 7.1,6.3 17.5,17.7 17.5,17.7 l 19.2,-48 c -19,-14.4 -24,-29.6 -43.4,-43.4 -31.2,-4.1 -62.5,-23.9 -82.7,-48.6 -0.4,-2.7 -1,-8.6 0.3,-11.4 1,-2.1 2.5,-4.1 1.5,-6.6 -0.8,-2.2 -1.8,-4 -3.5,-5.2 z" />
		<path class="detail" d="m 130.5,124.1 c 0,0 3.6,1.8 4.9,2.5 l 8.3,3 c 0,0 -6.4,-0.9 -9,-2 -1.5,-0.8 -4.9,-2.8 -4.9,-2.8 z m 16.5,-17.9 c 0,0 1.6,1.7 2.1,5.3 0.4,4.1 0.7,7.3 3.2,10.7 1.1,1.7 4.6,4.6 4.6,4.6 -3.6,-1.8 -5.8,-4.2 -7.6,-7 -1.5,-2.7 -0.9,-6 -1.5,-8.5 -0.7,-3.7 -1.3,-4.1 -1.3,-4.1 z" />
		<path class="secondary" d="m 121.9,125 c 2,0.3 2.3,3.1 1.6,5.5 -0.8,2.2 -4.3,5.6 -5.8,4 -3.7,-3.8 -9,-3.8 -13.8,-3.2 4.1,-6 11,-8.2 18,-6.3 z m 14.8,-25.98 c 1.8,1.18 0.8,3.98 -1,5.68 -1.6,1.6 -6.1,3.1 -6.8,1.2 -1.7,-5 -6.3,-7.68 -11.1,-8.98 6.6,-3.7 13.5,-2.4 18.9,2.1 z m 28.9,6.68 c 0.2,2.1 -2.8,3.1 -5.1,2.7 -2.5,-0.2 -6.3,-2.9 -5,-4.7 2.7,-4.38 1.8,-9.68 0.4,-14.2 6.6,2.72 9.9,9.12 9.7,16.2 z" />
		<path id="groin" d="m 294.9,317.6 10.3,18 c 0,0 -3.4,10.5 -8.5,13.3 -0.2,-7.5 -6,-16.4 -9.2,-23.4 -1.2,-3.3 4.7,-6.2 7.4,-7.9 z" />
		<path d="m 423.1,446.4 c -3.4,-0.7 -5.6,-1.7 -8.6,-1.2 -4.9,-1.5 -10,-2.7 -14,-5.9 -8.3,-5.2 -13.6,-13.9 -17.8,-21.8 -6,-10.6 -8.9,-24.8 -13.7,-35.2 -3.6,-7.7 -7.7,-14 -10.9,-21 -2.7,-4.2 -8.1,-9.3 -8.1,-9.3 0,0 3.8,10.1 4.3,16.1 0.9,7.3 1.3,13.3 1.1,20.2 0.1,7.6 -1.8,16.7 -0.9,23.8 1.8,8 4.9,15.7 9.1,23.6 3.3,4.9 7.6,9.3 12,13.1 3.4,3.7 8.9,8.3 8.9,8.3 1.8,2.2 4.8,2.2 6.9,3.9 7.2,4.3 9.5,10.2 8.3,15.8 -2.7,-4.1 -6.3,-3.7 -10.7,-2.2 9.4,6 12.3,11.4 10.4,23.3 -2.3,-8.2 -10.4,-6.4 -15.5,-9.7 5,10.3 12.7,12.5 13.6,19.2 1.7,2.7 2.1,6.4 -1.3,14.3 -1.1,-3.1 -1.8,-4.9 -3.1,-7 -3.2,-2.4 -7.2,-2.2 -10.8,-7.6 0,0 -0.9,4.1 0.3,6.6 1.9,2.8 2.5,2.8 4.7,5.7 1.7,2.7 3.5,6 4.1,9 0.9,6.7 -2.8,16.5 -2.8,16.5 0,0 -2.3,-3.9 -3.7,-5.4 -2.1,-1.7 -5.7,-0.7 -8.4,-2.3 -2,-1.1 -4.7,-5.3 -4.7,-5.3 0,0 0,3.1 0.2,4.9 -0.2,1.1 -3.1,4 -3.1,4 0,0 6.3,0.1 9,4.3 2.9,2.8 3.2,7 1.3,10.1 -2.7,4.8 -7.8,6.6 -14.1,3.4 -2.4,0.2 -5.6,-1.5 -5.6,-1.5 0,0 0.6,2.9 -0.4,4.6 -0.2,1.7 -1.2,3.2 -2.9,5.2 -2.3,3.1 -6.5,3.3 -9.9,3.2 -3.5,-0.8 -6.8,-1.5 -8.4,-5.2 -1,-0.8 -2.5,-4.7 -2.5,-4.7 0,0 -3.8,4.6 -6.3,4.7 -4.7,0.1 -9,-1.9 -11.2,-4.8 -1.9,-2.8 -2.4,-5.8 -2.4,-8.7 -0.1,-2.5 1.4,-4.3 1.8,-6.1 0,0 -2,-0.9 -3.7,-1.4 -1.6,-1 -2.4,-2.9 -3.6,-5.4 -0.7,-2.5 -0.6,-5.4 0.7,-8.7 2.4,-3.6 5,-4.7 9,-3.9 2.8,-0.1 6.4,2.9 8.2,5.2 3.2,2.4 7.3,2.1 11,1 3.4,0.7 6,-3.4 9,-6.3 5.4,-9.4 6.4,-22.7 6.1,-32.2 -0.1,-11.1 0.3,-24 0.3,-24 0,0 -9.6,-7.3 -14.1,-11.2 -6.2,-7 -18.9,-22.1 -18.9,-22.1 2.9,5.4 4.2,8.6 4.1,11.6 0.5,5.9 -3.1,9.2 -4.8,14.1 -0.5,2.3 -0.2,3.5 0.2,4.8 -4.3,-2.1 -3.9,-3.8 -4.6,-6.2 -1,-3.8 0.4,-7.6 -2,-10.4 -0.4,5.1 -2.6,7.7 -6.9,10.8 0,0 1.6,-4.9 -0.8,-7.8 -2.2,-2.7 -6.1,-4.2 -7.6,-7.5 -3.1,-3 -4.4,-7.4 -1.1,-12.4 0,0 -4.7,-2.8 -5.6,-6.4 -1.6,-4 -0.2,-7.8 1,-11.1 2.6,-4.1 8.1,-10 8.1,-10 0,0 -10.8,-15.7 -14,-26.5 -1.6,-6.1 -2,-12.6 -1.3,-18.9 1.1,-5.2 2.7,-10.1 4.8,-14.3 3.2,-4.1 9.8,-10.4 9.8,-10.4 0,0 -4.9,-13.2 -8.6,-18.1 -3.1,-4.8 -6,-8.3 -9.9,-11.5 -4.5,-3.4 -10.1,-5 -14.9,-7.8 -6.3,-3.6 -10.4,-6.3 -15,-11.9 -3.5,-3.2 -4.3,-4.9 -10,-12.1 -4.2,-5.7 -25.9,-38.3 -17.6,-49.9 3.8,-5.4 14.1,-16.9 17.2,-23.3 5.3,-14.5 22.2,-31 22.2,-31 l 27.7,0.2 c 42.5,5.2 49.3,1.3 49.4,23.7 -6,42.1 -4.1,92.9 7.7,121.1 7.7,18.7 21.2,36.9 28.2,56.5 2.3,5.9 4.8,11 7.7,17.4 2.5,7.1 4.7,15.8 8.1,22.4 4,6.1 7.6,13.8 14,16.9 0,0 6.5,3.1 11.2,3.6 3.9,0.8 8.5,0.5 11.5,-2.3 5.8,-4.7 5.9,-9.3 7.1,-13.7 0.8,-9.6 -6.7,-18.9 -13.1,-28.9 -2.7,-4.1 -5.9,-9.9 -8,-13.7 -15,-29 -30.9,-58.4 -40.5,-89.7 -3,-9.8 -3.9,-19.5 -2.7,-28.9 2.9,-20.7 14.8,-33.4 25.9,-49.9 5.7,-9.7 4.1,-20.9 -7.9,-23.4 6,-5.5 13.8,-6.4 19.6,-3.8 5.3,2.1 8.1,5.7 9.6,9.9 3,9.1 -2.5,21 -8,30.4 4,-0.5 8.1,-1.8 10.8,-3.6 6.7,-6.1 6.5,-16.2 9.6,-25.3 3.4,-10.2 11.4,-17.3 22.3,-18.6 5.4,-0.7 14.5,1.2 18.8,5.6 2.7,2.6 3.4,5.6 3.5,9.6 -0.4,5.8 -3.9,11.2 -4.3,17 0.4,3.4 2.2,7.1 2.2,7.1 -0.2,0.3 -9.2,-0.2 -13.4,-6.9 -1.8,-3.2 -2.5,-10.3 -2.5,-10.3 -1.5,1.9 -2.5,2.8 -2.1,5 -2.1,9.8 1.2,18.2 -7.9,28.6 -4.9,5.8 -13.7,7.3 -24.2,7.8 -5.2,0 -6.7,2.7 -7.1,3.7 17.5,-0.8 30.3,12.3 28.9,24.7 -1.4,11.2 -12.2,18 -23.3,16.5 10,-9.6 7.3,-21.2 -5.2,-25.3 -8.3,-2.6 -15.7,-1.1 -20.5,2.4 -5.4,4.7 -8.4,13.5 -8.4,22.7 0.3,8.2 6,23.6 6,23.6 3.8,-9.7 16.2,-0.3 15.1,-17.4 9.7,12.7 2.6,20.8 -1.4,31 9.9,1.6 14.1,-2.9 16,-12.1 8,15.5 -1.2,21.2 -5.4,33.1 8.2,-0.4 11.2,-2.9 15.3,-9.8 5.4,10.8 -1.8,17.9 -9.4,25.9 6.4,-1.8 14.9,2.9 17.6,11.5 -6.1,-3.1 -8.6,-2.9 -10.9,-2 -2.2,2.3 -4.1,3.9 -3.3,6.8 1.8,7.5 6.1,12.3 9.6,17.5 6.6,8.3 12.2,15.5 11.1,30.6 -0.6,7.7 -0.9,13.8 -9.1,21.4 9.5,-0.3 13.2,4.6 14.8,8.4 -0.1,2.9 -2,6.1 -2.5,8.9 -0.2,1.1 2.3,5.7 2.3,5.7 -3.9,-0.8 -7,-2.6 -7.2,-7.9 -0.6,0.5 -1.5,1.4 -1.6,2 1.6,4.4 3.3,7.7 3.4,11.9 -0.1,3.5 -0.7,6.3 -4.7,9 -3.4,2.2 -7.7,0.2 -13,0.2 -2.5,1.2 -4.2,3.2 -5.7,5.3 -0.9,-4.4 0.5,-6.3 2.9,-8.2 2.4,-3.1 4.5,-2.6 6.8,-5.1 2.2,-1.9 2.6,-4.1 -0.2,-9.5 -2.6,6 -8.1,6.6 -11.8,5.3 -3.7,-2 -5.9,-5.4 -6,-10.7 2.4,2.9 5,4 7.5,3.4 2,-1.5 4.2,-3.2 2.1,-7.3 -0.9,-1.4 -2.9,-2.9 -3.9,-3.7 z" />
		<path class="detail" d="m 450,182.5 c 3.4,1 7.2,3.9 8.5,8.6 0.4,0.4 0.2,0.6 0.1,1 -0.1,0.3 -0.2,0.6 0.2,0.8 l -1.2,-0.1 c 0.1,-0.1 0.3,-0.4 0.3,-0.7 0.1,-0.2 -0.3,-0.7 -0.3,-0.7 -1.9,-6.2 -6.5,-8.5 -11.9,-8.8 -5.5,-0.3 -10.3,2.2 -13.1,6.1 -0.3,0.9 -0.7,1.9 -1.2,2.8 -0.6,-0.1 0.3,-2.3 0.1,-3.4 3.6,-3.9 8.3,-6.6 14,-6.5 1.7,0.1 2.9,0.4 4.5,0.9 z m 17.2,-10.4 c 2.1,1 3.4,2.7 5.1,6 1.1,3.2 1.5,6.9 -0.4,10.2 -0.1,-3.1 1.9,-4.6 -0.2,-8.9 -1.2,-3.1 -4.3,-6.5 -6.2,-7.4 z m -9.1,-0.5 c 0,0 1.1,0.3 1.7,0.4 3.4,1 5.9,2.5 6.9,6 1.1,1.9 1.2,4.9 0.8,7.4 0.1,2.7 -1.2,7 -0.1,9.3 l 1.1,8.2 c -1.9,-3.2 -2.3,-7.1 -2.7,-10.5 0.2,-1.8 1.2,-4.3 1,-7.1 0.5,-2.4 0.6,-4.2 -0.7,-6 -1.5,-3.5 -3.8,-5.5 -7.2,-6.5 -3.4,-1 -7.1,-1.1 -10.2,-0.7 l -0.3,-0.8 c 2.6,-0.1 5.7,-0.2 8,0.1 0.5,0 1.1,0.2 1.7,0.2 z m -6.3,3.5 c 2.9,0.4 6,1.8 8.3,4.1 0.8,0.9 1.3,2.9 1.3,4.2 l 0.5,3.5 c -0.5,-1.7 -1.1,-3.3 -1.3,-4.5 -0.2,-1 -0.6,-1.8 -1.5,-2.6 -2.1,-2.5 -6.6,-3.5 -10.2,-3.3 -4.5,-0.2 -9,1.9 -12.5,4.4 l 0.8,-2 c 3.6,-2.5 7.8,-3.9 12.1,-3.9 1.2,0 1.8,0 2.5,0.1 z m -0.8,8.2 1,0.5 c 0,0 -2.6,1.6 -4.2,4.1 -2.1,2.2 -3.4,5.2 -4.3,7.4 -1.8,2.9 -2,6.4 -1.6,10.3 0.4,3.7 0.5,7.6 -1.2,10.7 -0.9,2.3 -2,3.4 -3.7,4.3 -1.4,0.9 -1.8,1.7 -3.5,2.8 -3.7,1.3 -10.3,2.1 -15,3.4 -5.4,1 -10.3,2.1 -13.3,3.5 -2.3,1 -3.7,3.2 -5.6,4.5 -1.9,1.6 -2.5,3.2 -2.5,3.2 0.2,-2 1.6,-3.9 2,-5 0.6,-1.5 2.4,-2.6 4.6,-3.8 3.1,-1.3 9.1,-2.3 15.1,-3.2 4.7,-1.2 10.2,-2.3 12.5,-3.8 2.2,-0.8 3.5,-2 5,-2.8 0.9,-0.9 1.4,-1.7 2.7,-3.6 1.8,-2.9 2.2,-5.4 1.8,-9.1 -0.3,-3.7 -0.9,-8.6 1.2,-11.8 0.8,-2.4 3.1,-6.5 5.3,-8.7 2,-2.2 3.7,-2.9 3.7,-2.9 z m -9.6,-0.9 2.4,0.1 c 0,0 -3.3,1.8 -4.1,3.7 -1.9,1.8 -3.2,3.4 -3.3,5.3 -1.6,2.7 -1.6,6.9 -1.8,10.6 -0.2,3.7 -0.5,7.5 -1.9,10.6 -1.6,4.4 -5.4,5.9 -8.7,8.2 -3.6,1.2 -7.7,1.8 -11.7,2.5 -4.5,0.5 -8.4,1.2 -11.4,2.4 -3.1,1.5 -5.6,4.7 -8,7.2 -1.2,1.4 -1.1,2.7 -1.5,3.7 -1.4,3.6 -1.1,-1.9 1,-4.1 1.8,-2.8 4.3,-7.1 7.9,-8.6 3,-1.4 7.9,-1.3 11.4,-2.1 4.4,-0.4 8.9,-0.5 11.9,-1.7 3.3,-2.2 5.8,-4.1 8.1,-7.9 1.1,-2.8 1.4,-6.5 1.1,-10.4 0.8,-3.6 0.6,-8.9 2.5,-11.9 0.7,-1.9 1.7,-2.6 3.2,-4.6 1.1,-1.9 2.9,-3 2.9,-3 z m 14.6,5 0.5,0.6 c 0,0 -1,0.8 -1.8,3 -2,1.6 -3.6,4 -3.6,5.8 -1.9,2.8 -1.4,6.3 -2.1,9.5 0.4,3.5 0.9,7 -0.3,10.1 -1.3,3 -2.7,6.7 -5.9,8.4 -5.3,3.7 -13.4,3.8 -19.7,5.6 -4.4,1.7 -10.6,3.1 -14.2,6.2 -4.3,2.8 -9.8,8.5 -9.8,8.5 1.4,-3.4 7.3,-8.5 9.2,-10.1 3.8,-3.3 9.9,-4.3 14.6,-5.8 6,-2.2 13.8,-1.7 18.9,-5.2 2.6,-1.7 3.9,-5.1 5.2,-8.1 1.2,-2.9 0.8,-6.5 0.9,-9.9 0.1,-3.4 0.5,-7.3 1.7,-10.6 0.7,-1.8 2.9,-3.9 4.3,-5.8 1.5,-1.8 2.1,-2.2 2.1,-2.2 z m -53.6,-6.8 c 1.2,0.1 2.3,0.6 3.3,1 2.7,1.3 5.9,4 6.5,7 1.1,4.7 0.1,10.6 -2.2,14.7 -6.2,7.4 -12.5,12.3 -16.7,18 -2.7,3.7 -4.3,7.9 -6.6,11.9 0.7,-4.8 4.3,-10.6 5.8,-12.8 4.2,-5.7 10.1,-9.6 15.7,-17.1 2.6,-3.8 3.4,-9.9 2.6,-14.3 -1.3,-2.9 -3.3,-5.4 -5.9,-6.9 -2.3,-0.9 -5.7,-1.1 -8.8,-1.1 -3.1,0 -5.3,0.6 -5.3,0.6 l -0.2,-0.9 c 0,0 2.1,-0.5 5.7,-0.4 1.4,-0.2 3.2,-0.1 5.1,0.1 0,0 0.5,0.2 1,0.2 z m 9.4,36.4 -1.1,1.1 c -4.5,0.3 -8.4,0.8 -10.5,3.4 -0.9,0.5 -2.5,1.3 -3,2.5 0.9,-2.2 1.8,-2.7 2.7,-3.4 2.9,-2.7 7.4,-3.1 11.9,-3.6 z m 6.1,20.1 0.4,0.7 c -6.5,2.2 -11.8,4.5 -15.9,6.8 5.1,-3.1 10.3,-6.9 15.5,-7.5 z m 2.7,7.4 c 3.4,0.3 7.8,2.1 10.1,3.7 7,4.5 10.2,13.3 6.7,20.1 -1.7,4.3 -6.9,8 -14.1,10.7 l -0.3,-0.7 c 7.5,-3.3 11.7,-6.2 13.4,-10.4 3.2,-6.4 -0.2,-14.8 -7.1,-19.2 -7.1,-4.9 -20.2,-5.4 -32.5,2.3 10,-7.9 19.4,-6.7 22,-6.8 0.5,0.1 1.1,0.2 1.8,0.3 z" />
		<path class="detail" d="m 308.4,317.8 c 0,0 0.3,5.4 -0.3,8.3 -0.6,2.2 -1.3,4 -2.8,6 -0.7,0.9 -1.9,2.1 -3,2.8 -1.1,0.9 -2,1.7 -2,1.7 l -0.5,-0.8 c 0,0 0.8,-0.6 1.9,-1.4 1,-0.9 2.3,-2.1 2.9,-2.8 1,-1.2 1.6,-2.3 2.1,-3.8 0.3,-0.9 0.6,-1.9 0.7,-2.7 0.6,-1.4 0.9,-4.6 1,-7.3 z" />
		<path class="detail" d="m 304.6,420.6 c 0,0 1.4,1.4 0.7,3 -0.3,1.2 -1.1,2.1 -1.9,3.2 -0.8,0.4 -3,2.8 -3.8,3.9 l -1.2,3.2 c -0.6,0 -0.6,0 -0.6,-0.6 -0.5,-0.2 -0.5,-0.2 -0.5,-0.2 0,0 0.1,-0.6 0.2,-1.2 0.2,-0.5 1.5,-1.4 2.3,-2.4 0.8,-1 3,-3.5 3.2,-4 0,0 0.7,-0.5 1.4,-0.9 0.1,-0.6 0.3,-1.2 0.3,-1.8 0.9,-0.9 -0.1,-2.2 -0.1,-2.2 z m -3.6,0.5 c 0,0 -0.7,0.4 -1.3,0.3 -0.7,0.2 -1.2,0.2 -1.2,0.2 -1.4,1.4 -2.9,3 -3.1,4 -0.3,1.2 -0.4,1.8 -0.6,2.8 -0.2,0.6 0.5,3.2 0.5,3.2 l -1.5,-1.5 c 0,0 0.2,-0.6 0.4,-1.8 0.2,-1 -0.3,-1.7 0.5,-2.2 0.5,-2.2 1.4,-4.5 3.9,-4.9 z m 7,11.3 c 0,0 0.1,2.9 -0.3,4.7 0.2,1.7 1.1,3.1 1.8,4.4 0.4,1.3 2.2,1.7 2.9,3.6 1,1.3 1.2,2.6 2.1,3.9 -0.1,0.6 -0.3,1.2 -0.3,1.8 0,0 -0.2,0.5 -0.2,0.5 0,0 -0.1,0.5 -0.6,0.4 l 0.3,-1.1 c 0,0 0,0 0,0 0,0 0,0 0,0 0.1,-0.6 0.1,-0.6 -0.4,-1.2 0.3,-1.1 -1,-3.3 -1.4,-4.4 -1.1,-0.8 -3.1,-2.4 -3.8,-4.3 -0.5,-0.8 -1.7,-3.3 -1.4,-5 0.5,-2.3 1.1,-2.1 1.3,-3.3 z m -4.1,5.6 c 0,0 -0.2,1.1 -0.4,1.7 0.4,1.3 0.1,2.3 0.5,3.1 0.4,1.2 2.6,2.2 3.5,3.5 1.4,1.6 3,2.4 3.4,3.2 0.7,2.5 -0.2,4 0,5.8 -0.2,1.2 -1.1,2.2 -2,3.7 -0.2,1.1 -0.4,2.2 -0.4,2.2 l -1,-0.8 c 0,0 0.1,-0.6 0.8,-1.5 0.9,-1.6 1.2,-2.7 1.9,-3.2 -0.1,-2.3 0.2,-4 -0.1,-5.2 -0.5,-0.7 -1.9,-2.2 -3.3,-3.6 -1,-1.5 -3.1,-2.4 -3.4,-3.7 -0.5,-3.1 -0.3,-4.2 0.5,-5.2 z" />
		<path class="detail" d="m 442.7,454 c 0.7,1.9 1.4,3.9 1.8,5.1 0.9,1.9 1.9,5.1 1.4,7.4 0.1,2.2 -0.2,4 -1.7,5.4 -1.8,2.6 -3.4,2.2 -5.2,2.5 -1.3,0.9 -3.6,0.5 -5.6,1.2 -1.7,0.1 -3.6,0.4 -5.1,2.4 -0.8,0.4 -1.6,1.4 -1.2,2.7 -0.7,0.4 -0.9,1 -0.9,1 h -0.5 c 0,0 0.1,-0.6 0.4,-1.8 0.2,-1.2 1,-2.1 1.7,-2.5 1.3,-1 3.5,-2.8 5.1,-2.5 2.2,-1.4 3.8,-1 6.3,-1.7 1.8,-0.3 3,0 3.9,-1.5 1.6,-2 1.9,-3.7 2.3,-5.4 -0.1,-2.3 -1.5,-4.5 -1.6,-6.8 -0.3,-1.8 -1.4,-3.8 -1.6,-5.6 -1.3,-2.6 -4.5,-6.7 -4.5,-6.7 1.9,1.5 4.2,4.8 5,6.8 z" />
		<path class="detail" d="m 333.6,540.5 c 0,0 -0.1,0.6 -0.7,0.4 -0.1,0.6 -0.3,1.1 -0.3,1.1 -1.3,1 -2.4,1.3 -4.3,2 -2.6,0.7 -5,0.8 -6.6,0.4 -1.3,0.4 -2.5,0.7 -3.2,1.1 -0.2,0.6 -0.7,0.5 -0.7,0.5 0,0 0,0 0,0 0,0 0,0 0,0 0,0 0,0 0.1,-0.6 -0.2,1.2 -1.7,-0.3 -0.3,-1.2 0.6,0.1 2.5,-0.7 3.8,-1 1.8,-0.2 4,0.3 5.7,0.6 0,0 2.6,-1.2 3.3,-1.6 0.7,-0.5 3.2,-1.7 3.2,-1.7 z m 25.3,5.8 c -0.2,1.2 -1.3,3.8 -1.2,5.6 1.4,1.5 1.5,3.3 3.1,4.8 l -1.1,2.1 c -1.3,-2 -2,-4.5 -2.7,-6.5 -0.2,-1.7 0.8,-3.8 1.9,-6 z m -11.7,-0.6 c 0,0 -1.3,3.2 -2.8,4.7 -2,1.4 -5.8,2.8 -7.2,4.4 -0.4,1 -0.7,2.8 -0.9,3.9 -0.3,1.1 -0.5,2.2 -0.5,2.2 l -1.1,-0.3 c 0,0 0.3,-1.2 0.5,-2.2 0.2,-1 0.4,-2.8 1.4,-3.8 1.7,-2.6 6.7,-3.8 8.2,-5.4 z" />
		<path class="secondary" d="m 380.6,550.5 c -1.4,-1.7 -4.2,-0.4 -5.8,1.5 -1.5,1.8 -2.5,6.4 -0.4,6.8 5,1.5 8,5.9 10.1,10.1 2.9,-6.6 1.1,-13.5 -3.9,-18.4 z m -39.4,14.2 c -0.4,-2.2 2.4,-3.2 4.8,-3.1 2.4,-0.1 6.6,2.3 5.5,4 -2.3,4.8 -1.1,9.9 0.9,14.3 -6.9,-2.1 -10.8,-8.1 -11.2,-15.2 z m -22.2,-12 c 1.5,-1.5 4,0.2 5.2,2.4 1.4,2 1.5,6.7 -0.6,6.8 -5.1,0.6 -8.8,4.3 -11.4,8.6 -2,-7.1 0.9,-13.6 6.8,-17.8 z m -6.7,-26.3 c 2.1,-0.2 3,2.6 2.7,5.1 -0.2,2.4 -2.8,6.4 -4.7,5 -4.4,-2.5 -9.6,-1.7 -14.2,-0.1 2.7,-6.7 9,-10.2 16.2,-10 z" />
		<path d="m 234.3,228.4 c -8.5,23.3 -30.1,32.6 -35.9,35.9 -7.3,4.6 -34.6,11.3 -38.7,-0.3 -0.7,-2.3 0,-5.1 -0.4,-8 -0.5,-2.6 -1,-4.9 -3.1,-6.3 -9.3,-5.9 -18.2,3.4 -18.2,12.9 -4,-3 -8,-3.3 -11.2,-1.7 -6.7,3 -10.2,13.2 -2.6,18.9 2,1.4 6.9,-0.3 8,2.1 0,0 1.4,2.3 2.3,3.2 0.7,0.9 2.2,2.5 2.2,2.5 0,0 -5.9,1.1 -7.2,2.5 -8,9.8 6.9,23.3 16.9,16.6 1.7,-1.9 2.5,-3.2 4.4,-4.9 2.2,-2.2 10.3,-4.3 10.3,-4.3 -3.8,7.2 -0.9,9.1 -1.4,11.4 0.1,1.2 -1,3.2 -2.6,4.6 9.5,-1.2 13.7,-4.4 17.6,-13.4 0.9,5.2 1.6,9.2 -0.7,14.3 0,0 7.4,-1.9 10.5,-5.6 3.4,-2.3 8.1,-11.4 8.1,-11.4 2.1,4.3 1.6,7.7 -0.5,12.9 8,-4.5 12.6,-7.8 13.7,-16.8 0.4,-1.7 2.4,-2.7 2.4,-2.7 -0.3,7.1 5.8,5.9 2.6,13.4 9,-5.2 9.9,-6.4 14.9,-19.8 3.3,4.2 3.9,7.5 1.8,12.1 3.8,-1.4 11.9,-6 9.5,-14.8 4.9,1.9 5.8,4.3 6.3,7.4 2.5,-2 5.1,-7.2 1.9,-16.8" />
		<path class="detail" d="m 277.5,242.6 c 0,0 0.3,2.9 0.5,4.7 0.3,1.1 0.9,3.2 1.5,4.1 0.5,0.4 0.8,0.9 1.4,1.6 0.4,0.5 1,1 0.9,1.9 v 0 c 0.4,2.2 -0.6,3.8 -2.1,4.9 -1.8,1.2 -4.4,1.8 -6.9,2.4 -2.5,0.5 -4.8,0.7 -6.1,1.2 -3.8,1.2 -8.8,3.8 -11.3,7.4 v 0 c -0.1,0.1 -1.4,2.1 -2.1,3.8 -0.6,1.1 -0.7,2.4 -1,3.6 0,1.3 0,2.2 0,2.2 v 0.6 l -0.6,-0.1 c -1.5,-0.6 -2.7,-1.7 -3.7,-3.1 -0.8,-0.8 -1.4,-1.8 -2,-2.5 l -0.7,-1.6 -0.1,-1.5 0.9,1.3 c 0.6,1.2 1.5,2.6 2.6,3.9 0.8,1 1.7,1.9 2.8,2.3 -0.1,-0.3 0,-0.6 0.1,-1.6 0,-1.3 0.3,-2.8 0.8,-3.8 1,-1.8 2.3,-3.9 2.3,-3.9 v 0 0 c 2.6,-3.8 7.8,-6.6 11.7,-7.8 1.4,-0.5 3.8,-0.8 6.2,-1.3 2.6,-0.5 5,-1.2 6.5,-2.1 1.5,-1.1 2.1,-2.3 1.9,-4.1 v 0 c -0.1,-0.7 -0.3,-1.1 -0.7,-1.6 -0.6,-0.5 -1.1,-1 -1.4,-1.7 -0.9,-1.1 -1.5,-4.1 -1.5,-5.3 z" />
		<path class="detail" d="m 137,287.3 c 0,0 4.8,0.3 6.6,0 l 10.8,-0.9 c 0,0 -7.8,1.6 -11.2,2.1 -2,-0.2 -6.7,-0.4 -6.7,-0.4 z m 1.1,-25.2 c 0,0 2.5,0.9 5.1,4.3 3.2,4 5.6,7.2 10.1,9.4 2.3,1 6.9,1.7 6.9,1.7 -4.1,0.7 -7.5,-0.5 -10.9,-2.5 -2.9,-1.8 -4.9,-5.7 -7,-8 -3.1,-3.4 -4.1,-3.6 -4.1,-3.6 z" />
		<path class="secondary" d="m 129.2,293.7 c 1.8,-1.2 4.1,0.8 5.1,3 1.1,2.2 0.8,6.9 -1.5,6.8 -5.1,0 -9.2,3.2 -12.3,7.1 -1.2,-7.2 2.6,-13.3 8.7,-16.9 z m -3.6,-31 c 2.1,0.3 2.2,3.4 1.4,5.7 -0.7,2.2 -4.2,5.5 -5.7,3.8 -3.6,-3.7 -8.9,-4 -13.8,-3.6 4.3,-6 11.2,-7.8 18.1,-5.9 z m 25.6,-12.7 c 1.6,1.5 0.2,4.2 -1.8,5.7 -1.8,1.5 -6.4,2.5 -6.8,0.3 -1.3,-5 -5.6,-8.2 -10,-10.2 6.8,-2.9 13.6,-0.7 18.6,4.2 z" />
		<g id="head">
			<path class="secondary" d="m 260.7,77.72 c 11.6,-3.57 2.8,-18.56 37.6,-23.52 -5.9,5.33 -5.4,6.83 -6,10.34 8.4,-7.3 19.4,-10.75 31.7,-6.87 -11.9,3.45 -15.6,4.89 -18,9.48 9.1,-4.66 18.2,-4.4 32.7,-0.52 -4.4,1.95 -6.9,3.93 -8.4,6.73 32.8,3.68 8.6,41.14 44.5,60.74 -7.1,2.8 -16.3,0.6 -24,-5.4 7.7,6.4 13.9,19.3 11.7,28.5 -3.4,13.4 1.6,17.6 -1.5,29.3 -9.1,34.5 -18,45.5 -7.5,66.6 -26.2,-11.1 -22.2,-23 -24.4,-38.8 -9.5,17.6 -2.4,30.6 9.8,44.6 -19,-1.4 -28.2,-14.7 -35.9,-27.1 -6.9,20.1 4.7,23.8 -6.6,43.7 2.4,-25.5 -13.9,-19.9 -23.3,-43.2 7.3,24.6 -2.9,26.8 2,40.5 -11.9,-6.5 -8.6,-25.3 -19.9,-33.3 -1.2,9.9 0,18.6 2.5,26.7 -13.7,-9.2 -17.7,-9.6 -21.5,-32.3 -6.9,11 -6.9,21.9 -4.6,32.6 -10.7,-9.4 -15.1,-24.7 -9.7,-34 -5.3,-0.5 -9.2,10.4 -9.2,17.5 -23.2,-55.7 41.5,-65.8 45,-102.6 l 12.2,-4.3 5.1,-40.6 z" />
			<path id="mouth" style="fill:#552200;" d="m 258.4,117.1 c 4.6,3.9 3.2,20.4 0.2,34.4 0,0 11.5,-10.8 14.2,-13.3 2.2,-1.9 3.8,-5 4.4,-8.2 0.6,-3.2 0.2,-7 -1.5,-9.8 -1.7,-2.9 -4.6,-5 -7.7,-5.6 -3.2,-0.8 -9.6,2.5 -9.6,2.5 z" />
			<path id="tongue" style="fill:#ff5555;" d="m 219,129.9 c 0,0 -0.6,5.3 1.3,8.1 2.1,3.5 5.5,6.3 9.8,6.4 6.7,0.4 15.7,-6.5 22.5,-7.4 10,-1.7 27.5,4 27.5,4 l -4.3,-13.8 c 0,0 -15.7,-2.9 -24.4,-1.6 -7.4,1.4 -14.7,9.7 -22.1,11.6 -2.2,0.3 -3.5,-0.5 -5.4,-1.5 -2.4,-1.1 -4.9,-5.8 -4.9,-5.8 z" />
			<path id="teeth" style="fill:#ffffff;" d="m 253.3,117.2 c -0.4,4 -2,6.3 -0.9,11.3 -4.9,-1.6 -6.7,-4.9 -6.9,-10.9 z m -9.4,-1.5 c -0.8,4 -2.6,6 -1.8,11.3 -4.8,-1.9 -6.4,-5.5 -6.3,-11.3 z m 18,32.1 c -1.3,-3.6 -3.5,-5.3 -3.7,-10.6 -4.5,3 -5.4,6.8 -4,12.3 z" />
			<path id="face" d="m 324.7,118.1 c 7,-3.7 14.2,-14.9 10.4,-26.67 -2.6,-8.1 -12.9,-9.18 -23,-2.79 -4.7,-10.68 -34.4,-15.45 -51.4,-10.92 -4.1,1.28 -7.2,3.14 -7.6,7.09 -6.4,2.32 -19.6,3.25 -23.9,7.66 -2.5,2.67 -0.2,7.53 1.6,8.63 -3.8,4.4 -0.8,17 4.8,15.2 6.7,7.3 22.7,3.7 25.9,2.4 0,0 5.4,-1.4 7.8,-0.1 2.5,1.1 4.2,3.9 4.9,6.8 0.6,3.3 -3.5,11.7 -5.6,14.4 -2.1,2.5 -3.8,7.3 -7,7.4 -3.8,0 -3.7,-0.2 -9.4,-2 -3,-0.9 -8.9,-1.5 -11.2,0.5 -0.8,1 -0.8,3.1 -1.1,4 -1.2,3.3 -3,3.7 -3.8,6.3 -2,7.2 1.4,9.3 -3.6,11.5 6.9,2 13.9,-2.4 15.6,-6.8 0.3,1.1 1,2.5 0.3,5.1 5,0.5 5,-4.5 7.3,-7.1 -0.1,1.6 0.3,3.1 1.8,5.1 2,-2.4 3.5,-5.8 6.5,-7.2 13.5,1.8 11.6,-13.4 12.3,-18 3.5,4.9 9.3,7.3 15.8,7.5 6.8,0.2 8.1,-3.8 15.6,-1.2 1.2,-1.9 1.4,-3.9 0.3,-6.5 2.5,0.9 4.9,1.3 7.5,0.2 0.8,-2.3 0.2,-4.3 -0.5,-6.5 2.2,0.2 4.1,1.1 6.3,-0.3 -0.4,-2 0.4,-3.1 -1.3,-6.2 2.2,0.8 4.1,-0.1 6.4,-0.9 -0.5,-2.2 1.2,-3.2 -1.7,-6.6 z" />
			<path style="fill:#552200;stroke:none;" d="m 237.3,118.2 4.9,1.1 c -8.2,-4.2 -8.2,-15.7 -6.3,-17.7 l -1,0.4 c -1.9,1.4 -1.4,12.4 2.4,16.2 z" />
			<path class="detail" d="m 331.6,92.32 c -1.1,-2.32 -3.3,-2.94 -5,-3.23 -1.8,-0.34 -3.6,-0.11 -5.4,0.58 -4.2,1.41 -8.4,4.31 -12.5,12.03 l -0.8,1.6 1.4,-0.7 c 1.8,-0.7 3.6,-1.5 5.1,-1.7 -0.8,1.8 -1.5,3.5 -1.4,5.5 l 0.1,0.8 0.8,-0.3 c 1.2,-0.6 2.3,-1.1 3.8,-1.3 -0.9,1.6 -1.8,3.2 -1.9,5.2 v 0.7 l 0.6,-0.2 c 1.3,-0.1 2,-0.4 3.6,-0.5 -0.5,1.7 -0.7,2.7 0.3,3 0,-1.1 0.4,-2.3 1,-3.5 l 0.3,-1 -0.8,0.1 c -2.4,0.1 -2.7,0.4 -3.6,0.7 0.4,-1.6 1.2,-3.4 2,-5.2 l 0.4,-0.8 h -0.8 c -2,0 -3.2,0.5 -4.4,1.3 0.1,-1.7 0.7,-3.2 1.4,-4.9 l 0.3,-0.84 -0.6,-0.11 c -1.6,-0.24 -3.2,0.34 -4.9,1.15 3.7,-6.26 7.3,-8.81 10.9,-9.97 2.2,-0.7 6.9,-1.26 10.1,1.59 z m -19.3,-3.21 -0.5,-0.94 c -1.9,1.16 -3.5,2.43 -5,3.6 -1.7,1.63 -2.5,3.37 -3,5.34 1.8,-2.56 4.3,-5.34 8.5,-8 z m -46.8,18.79 c -0.2,-4.3 -2.7,-8.01 -6.4,-9.4 2.9,2.2 5.1,5.6 5.2,9.4 0,2.9 -1.2,6.5 -3.7,8.6 3.6,-1.4 4.9,-5.3 4.9,-8.6 z" />
			<path style="fill:#552200;stroke:none;" d="m 249.4,111.2 c -0.8,0 -1.4,0.5 -1.4,1.3 0,0.7 0.6,1.3 1.4,1.3 0.6,0 1.5,-0.6 1.5,-1.3 0,-0.8 -0.9,-1.3 -1.5,-1.3 z m 5.3,-0.4 c -0.7,0 -1.4,0.5 -1.4,1.3 0,0.7 0.7,1.4 1.4,1.4 0.7,0 1.3,-0.7 1.3,-1.4 0,-0.8 -0.6,-1.3 -1.3,-1.3 z m 3.6,-1.6 c -0.6,0 -1.4,0.6 -1.4,1.5 0,0.6 0.8,1.3 1.4,1.3 0.9,0 1.4,-0.7 1.4,-1.3 0,-0.9 -0.5,-1.5 -1.4,-1.5 z m -9,-2.6 c -0.8,0 -1.3,0.6 -1.3,1.3 0,0.8 0.5,1.4 1.3,1.4 0.7,0 1.3,-0.6 1.3,-1.4 0,-0.7 -0.6,-1.3 -1.3,-1.3 z m 5.1,-0.5 c -0.9,0 -1.4,0.5 -1.4,1.3 0,0.7 0.5,1.3 1.4,1.3 0.8,0 1.4,-0.6 1.4,-1.3 0,-0.8 -0.6,-1.3 -1.4,-1.3 z m 4.3,-2.4 c -0.8,0 -1.4,0.6 -1.4,1.3 0,0.9 0.6,1.5 1.4,1.5 0.6,0 1.4,-0.6 1.4,-1.5 0,-0.7 -0.8,-1.3 -1.4,-1.3 z m -29.6,-11.12 c -1.5,2.67 -0.6,5.69 1.2,8.02 0.9,0.7 1.3,1 2.2,0.8 0,0 0.5,2 0.8,2.7 0.6,1.5 1.5,2.4 1.5,2.4 0,0 0.6,-2.2 1,-3.2 0.5,-1.1 1.1,-1.8 2.4,-2.2 1.4,-0.9 3.5,0.1 4.7,-1 0.8,-0.55 1.8,-3.33 1.8,-3.33 0,0 -2.4,0 -5,-0.59 -1.9,-0.34 -6,1.86 -6,1.86 -2.2,-1.4 -4.2,-2.67 -4.6,-5.46 z" />
			<g id="eye">
				<path class="detail" d="m 258.7,90.34 c -1.4,-0.38 -1.3,-0.94 -1.3,-0.94 l -0.3,-0.92 1,0.27 v 0 0 c 0,0 3.5,1.07 9,0.55 2.3,-0.24 5.3,-1.75 8,-2.26 1.3,-0.2 2.8,-0.32 3.8,0.52 1.2,0.81 2,2.15 2.4,4.32 -1.2,-0.14 -1.5,-1.94 -3,-3.16 -0.7,-0.52 -1.6,-0.51 -2.8,-0.27 -2.4,0.48 -5.4,1.96 -8.2,2.27 -5.2,0.47 -7.3,0.1 -8.6,-0.38 z" />
				<path style="fill:#ffffff;" d="m 262.5,93.62 c 0.5,2.03 4.4,4.91 7.8,4.2 3.5,-0.67 5.3,-4.8 4.8,-6.91 -0.6,-2.06 -3.3,-1.05 -6.8,-0.29 -3.4,0.72 -6.3,0.87 -5.8,3 z" />
				<path style="fill:#552200;stroke:none;" d="m 264.4,94.53 a 3.006,2.752 63.05 0 0 3.2,2.71 3.006,2.752 63.05 0 0 2.4,-3.28 3.006,2.752 63.05 0 0 -3.3,-2.62 3.006,2.752 63.05 0 0 -2.3,3.19 z" />
				<path style="fill:#000000;stroke:none;" d="m 266.7,93.05 c 0.7,0 1.6,0.42 1.6,1.27 0.2,0.86 -0.3,1.49 -1.2,1.55 -0.8,0.12 -1.5,-0.47 -1.6,-1.23 -0.1,-0.82 0.5,-1.51 1.2,-1.59 z" />
				<path style="fill:#ffffff;stroke:none;" d="m 265.9,92.74 c 0.5,-0.1 1.1,0.3 1.2,0.9 0.1,0.61 -0.4,1.05 -0.9,1.1 -0.5,0.1 -1,-0.32 -1.1,-0.9 0,-0.61 0.4,-1.08 0.8,-1.1 z" />
			</g>
			<path style="fill:#ff9900;stroke:none;" d="m 316.8,78.84 -4.7,9.8 c -9,16.46 -7.7,23.76 12.6,29.46 12.7,1.6 10.9,23.6 9.5,26.4 -15,27.6 -55.7,11.5 -58.5,-7.7 23.1,-12.9 3.6,-24.1 -4.8,-25.5 14.6,0.2 43.8,-28.06 25.4,-28.48 -23.8,-0.54 -9.8,-7.32 -33.8,-4.84 4.7,-5.09 6.5,-4.34 9.1,-5.34 l 9,-2.78" />
		</g>
	</g>
</defs>
<use id="bg" xlink:href="#shield" style="fill:#cc0000;" />
<path style="fill:#bbbbbb;" d="M 2 2 L 2 259 C 2 273.0886 2.7323943 286.74845 4.1074219 300 L 300 300 L 300 2 L 2 2 z M 300 300 L 300 657 C 300 657 569.35441 555.75613 595.89258 300 L 300 300 z" />
<use xlink:href="#lion" />
<use xlink:href="#lion" transform="translate(-240,300)scale(0.95)" />
<use xlink:href="#towers" transform="translate(150,155)scale(0.53)translate(-300,-300)"/>
<use xlink:href="#towers" transform="translate(415,435)scale(0.4)translate(-300,-300)"/>
<use id="shine" xlink:href="#shield" style="fill:url(#rg);stroke:#000000;stroke-width:3;" />
</svg>
