<?xml version="1.0" encoding="UTF-8" standalone="no"?>
<svg
   width="600"
   height="660"
   version="1.1"
   id="svg65"
   xmlns:xlink="http://www.w3.org/1999/xlink"
   xmlns="http://www.w3.org/2000/svg"
   xmlns:svg="http://www.w3.org/2000/svg">
  <defs
     id="defs57">
    <radialGradient
       id="rg"
       gradientUnits="userSpaceOnUse"
       cx="220"
       cy="220"
       r="405">
      <stop
         style="stop-color:#fff;stop-opacity:.3"
         offset="0"
         id="stop2" />
      <stop
         style="stop-color:#fff;stop-opacity:.2"
         offset="0.2"
         id="stop4" />
      <stop
         style="stop-color:#666;stop-opacity:.1"
         offset="0.6"
         id="stop6" />
      <stop
         style="stop-color:#000;stop-opacity:.13"
         offset="1"
         id="stop8" />
    </radialGradient>
    <path
       id="shield"
       d="m 2 2 v 257 c 0 286 298 398 298 398 c 0 0 298 -112 298 -398 V 2 Z" />
  </defs>
  <use
     fill="#cc0000"
     xlink:href="#shield"
     id="use59" />
  <path
     id="bordure"
     style="fill:#ffcc00;stroke-width:32;stroke:none"
     d="M 2 2 L 2 259 C 2 545 300 657 300 657 C 300 657 598 545 598 259 L 598 2 L 2 2 z M 100 100 L 500 100 L 500 259 C 500 424.40588 365.1074 515.01826 300 549.1543 C 234.8926 515.01826 100 424.40588 100 259 L 100 100 z" />
  <g
     id="bell">
    <path
       style="fill:#9e7b26;fill-opacity:1;stroke:#72581c;stroke-width:1;stroke-linecap:round;stroke-linejoin:round;stroke-opacity:1"
       d="m 429.38732,402.50422 a 129.45198,25.942118 0 0 1 -129.45199,25.94211 129.45198,25.942118 0 0 1 -129.45197,-25.94211 129.45198,25.942118 0 0 1 129.45197,-25.94213 129.45198,25.942118 0 0 1 129.45199,25.94213 z"
       id="path884" />
    <path
       d="m 290.24196,420.83333 -0.0815,11.20471 c 0,1.5841 1.44534,2.85938 3.24064,2.85938 h 11.05629 c 1.79532,0 3.24065,-1.27528 3.24065,-2.85938 l -0.10797,-11.09746 c 7.20737,-3.2317 12.30806,-6.98598 12.30806,-15.51505 0,-8.38552 -4.9304,-13.23265 -12.12429,-16.72286 l -0.0758,-57.81184 c 0,-1.58409 -1.44532,-2.8594 -3.24064,-2.8594 h -11.05629 c -1.79531,0 -3.24065,1.27531 -3.24065,2.8594 l -0.0338,58.07816 c -7.19705,3.16718 -12.16616,8.03818 -12.16616,16.45654 0,8.50837 4.99456,12.12118 12.28145,15.4078 z"
       id="path886"
       style="fill:#cd9f32;stroke:#72581c;stroke-width:1;stroke-linecap:round;stroke-linejoin:round;stroke-opacity:1" />
    <path
       d="m 307.93805,432.85823 a 8.966387,3.9938283 0 0 1 -8.96639,3.99383 8.966387,3.9938283 0 0 1 -8.96638,-3.99383 8.966387,3.9938283 0 0 1 8.96638,-3.99385 8.966387,3.9938283 0 0 1 8.96639,3.99385 z"
       id="path888"
       style="fill:#cd9f32;stroke:#72581c;stroke-width:1;stroke-linecap:round;stroke-linejoin:round;stroke-opacity:1" />
    <path
       style="fill:none;stroke:#72581c;stroke-width:1;stroke-linecap:round;stroke-linejoin:round;stroke-opacity:1"
       d="m 290.21393,388.83753 c 8.0156,-2.64575 11.80271,-1.63395 17.59762,0"
       id="path890" />
    <path
       style="fill:none;stroke:#72581c;stroke-width:1;stroke-linecap:round;stroke-linejoin:round;stroke-opacity:1"
       d="m 290.21393,421.1538 c 8.0156,-2.64574 11.80271,-1.63394 17.59762,0"
       id="path892" />
    <path
       d="m 300.13929,160.55257 19.95955,-4.7876 c 3.6471,3.33512 -3.58174,30.45478 8.09211,3.49488 1.87327,-5.89469 7.61071,-11.64427 -2.39506,-12.507 l -25.6566,4.7876 -25.65663,-4.7876 c -10.00577,0.86273 -5.89272,4.71717 -4.01945,10.61188 0.25498,3.27252 6.45025,-1.27408 9.71649,-1.59976 z"
       id="path896"
       style="fill:#cd9f32;stroke:#72581c;stroke-width:1;stroke-linecap:round;stroke-linejoin:round;stroke-opacity:1" />
    <path
       d="m 300.13929,155.38026 19.95955,-4.78758 c 3.02692,-0.25662 1.68651,2.1586 0.2332,2.94296 -1.84904,1.68611 -2.49714,4.01883 -2.64484,6.01744 -0.0567,1.49742 -0.68355,4.90157 -0.8589,6.39266 2.04652,1.43419 4.58874,1.12273 2.96307,2.42772 0.47514,0.66756 4.0332,1.32499 6.28267,0.64694 1.50197,1.24146 2.75082,0.53984 4.05051,0.24611 -0.0941,-5.87483 2.02872,-10.31899 6.18838,-15.17896 1.87328,-5.8947 -0.51127,-11.64427 -10.51704,-12.507 l -25.6566,4.7876 -25.65663,-4.7876 c -10.00577,0.86273 -12.39032,6.6123 -10.51706,12.507 4.15969,4.85997 6.28251,9.30413 6.18839,15.17896 1.2997,0.29373 2.54856,0.99535 4.05053,-0.24611 2.24944,0.67805 5.80752,0.0206 6.28267,-0.64694 -1.62568,-1.30499 0.91655,-0.99353 2.96307,-2.42772 -0.17537,-1.49109 -0.80209,-4.89524 -0.8589,-6.39266 -0.14763,-1.99861 -0.7958,-4.33133 -2.64484,-6.01744 -1.45331,-0.78436 -2.79373,-3.19958 0.23318,-2.94296 z"
       id="path898"
       style="fill:#cd9f32;stroke:#72581c;stroke-width:1;stroke-linecap:round;stroke-linejoin:round;stroke-opacity:1" />
    <path
       d="m 300.90499,168.85595 c 3.21338,-1.74661 6.96983,-2.85333 9.57523,-5.5873 0.11579,-10.37754 -0.1398,-19.69885 0,-30.04466 -0.16399,-0.42704 -0.13233,-0.69704 -0.87217,-0.63526 -1.47565,0.10511 -1.34691,-1.82994 -2.83065,-1.65124 -1.2649,0.24752 -3.67848,0.23649 -3.40535,-1.40253 -0.24591,-1.47118 -1.64382,-2.41076 -3.2328,-2.19788 -1.589,-0.21288 -2.9869,0.7267 -3.2328,2.19788 0.27311,1.63902 -2.14047,1.65005 -3.40535,1.40253 -1.48376,-0.1787 -1.355,1.75643 -2.83065,1.65124 -0.73993,-0.0617 -0.70815,0.20822 -0.87217,0.63526 0.1398,10.34581 -0.11579,19.66712 0,30.04466 1.89249,4.08716 7.65857,4.79136 11.10671,5.5873 z"
       id="path902"
       style="fill:#cd9f32;stroke:#72581c;stroke-width:1;stroke-linecap:round;stroke-linejoin:round;stroke-opacity:1" />
    <path
       d="m 300.30563,127.21597 c 1.63778,0 2.95629,0.84516 2.95629,1.89495 v 36.50006 c 0,1.04981 -1.31851,1.89496 -2.95629,1.89496 -1.63779,0 -2.95632,-0.84515 -2.95632,-1.89496 v -36.50006 c 0,-1.04979 1.31853,-1.89495 2.95632,-1.89495 z"
       id="path904"
       style="fill:#cd9f32;stroke:#72581c;stroke-width:1;stroke-linecap:round;stroke-linejoin:round;stroke-opacity:1" />
    <path
       d="m 429.51522,401.02203 c 0,-14.32006 -58.1224,-24.45992 -129.57989,-24.45992 -71.45749,0 -129.45197,11.62207 -129.3759,24.45992 3.54823,-11.87216 9.44538,-20.10672 15.64013,-28.337 l 11.64828,-12.92351 c 4.34068,-0.0541 5.95797,-5.55485 8.42786,-9.3505 5.40237,-10.78556 7.43194,-22.75273 9.86156,-34.10077 5.72345,-33.97891 1.9869,-69.05987 5.37226,-103.86821 0.88144,-2.78907 0.61989,-7.28038 2.14664,-9.70545 10.6432,-13.23302 18.15969,-19.17041 25.84311,-25.49727 2.3334,-1.92143 3.86379,-4.72827 8.46698,-5.67127 12.01448,-2.86599 32.19579,-5.46271 42.17307,-5.34881 9.97728,-0.11383 30.15859,2.48282 42.17307,5.34881 4.60321,0.943 6.13359,3.74984 8.46698,5.67127 7.68342,6.32686 15.19993,12.26425 25.84312,25.49727 1.52674,2.42507 1.2652,6.91638 2.14664,9.70545 3.38535,34.80834 -0.3512,69.8893 5.37225,103.86821 2.42962,11.34804 4.45919,23.31521 9.86158,34.10077 2.46987,3.79565 4.08717,9.29645 8.42785,9.3505 l 11.64827,12.92351 c 6.19477,8.23028 11.96398,17.94706 15.43614,28.337 z"
       id="path910"
       style="fill:#cd9f32;stroke:#72581c;stroke-width:1;stroke-linecap:round;stroke-linejoin:round;stroke-opacity:1" />
    <path
       d="m 172.58048,404.6208 c -1.37399,-1.51391 -2.09457,-3.06372 -2.09457,-4.65669 0,-14.32004 57.99461,-25.93904 129.45211,-25.93904 71.45749,0 129.45211,11.619 129.45211,25.93904 0,1.26498 -0.47209,2.50487 -1.34651,3.72161 -10.9798,-12.09491 -63.83223,-21.28237 -127.33883,-21.28237 -65.13776,0 -119.09093,9.66251 -128.12431,22.21745 z"
       id="path912"
       style="fill:#cd9f32;stroke:#72581c;stroke-width:1;stroke-linecap:round;stroke-linejoin:round;stroke-opacity:1" />
    <path
       d="m 299.06182,216.64119 c -45.77218,0 -82.921,8.41827 -82.921,18.80077 0,1.5633 0.84542,3.09007 2.43245,4.54258 3.0964,-9.7348 38.30691,-17.42669 81.23281,-17.42669 41.35197,0 75.54133,7.13407 80.76084,16.35975 0.92756,-1.12566 1.4159,-2.28925 1.4159,-3.47564 0,-10.3825 -37.14882,-18.80079 -82.921,-18.80077 z"
       id="path914"
       style="fill:#cd9f32;stroke:#72581c;stroke-width:1;stroke-linecap:round;stroke-linejoin:round;stroke-opacity:1" />
    <path
       d="m 299.9597,230.57023 c -45.84657,0 -83.05574,8.4178 -83.05574,18.79972 0,1.56321 0.8468,3.08991 2.4364,4.54233 3.10143,-9.73425 38.36917,-17.42572 81.3648,-17.42572 41.41916,0 75.66407,7.13367 80.89206,16.35884 0.92905,-1.1256 1.41819,-2.28911 1.41819,-3.47545 0,-10.38192 -37.20917,-18.79973 -83.05571,-18.79972 z"
       id="path916"
       style="fill:#cd9f32;stroke:#72581c;stroke-width:1;stroke-linecap:round;stroke-linejoin:round;stroke-opacity:1" />
    <path
       d="m 299.86031,184.15742 c -44.06186,0 -79.82258,8.42908 -79.82256,18.82491 0,1.56531 0.81381,3.09403 2.34154,4.54842 2.9807,-9.7473 36.87553,-17.44907 78.19745,-17.44907 39.80681,0 72.71866,7.14323 77.74314,16.38077 0.89287,-1.12711 1.36299,-2.29219 1.36299,-3.48012 0,-10.39583 -35.76072,-18.82491 -79.82256,-18.82491 z"
       id="path918"
       style="fill:#cd9f32;stroke:#72581c;stroke-width:1;stroke-linecap:round;stroke-linejoin:round;stroke-opacity:1" />
    <path
       d="m 300.7796,164.8984 c -31.46468,0 -59.43893,7.03491 -59.43893,15.7093 0,1.0767 -0.42077,2.12585 0.32861,3.14186 4.01229,-7.59433 30.99871,-13.4464 59.65266,-13.4464 27.55859,0 51.11447,5.39825 56.40298,12.56743 0.38591,-0.73785 0.0569,-1.49572 0.0569,-2.26289 0,-8.67439 -25.53765,-15.7093 -57.00231,-15.7093 z"
       id="path920"
       style="fill:#cd9f32;stroke:#72581c;stroke-width:1;stroke-linecap:round;stroke-linejoin:round;stroke-opacity:1" />
    <path
       d="m 299.45271,336.01637 c -60.04978,0 -108.77649,11.65779 -108.77649,26.0213 0,1.33816 0.41188,2.64537 1.22763,3.92931 7.94038,-12.49762 53.09358,-22.09198 107.54886,-22.09198 54.45527,0 99.62709,9.59436 107.56745,22.09198 0.81576,-1.28394 1.22764,-2.59115 1.22764,-3.92931 0,-14.36351 -48.7453,-26.0213 -108.79509,-26.0213 z"
       id="path922"
       style="fill:#cd9f32;stroke:#72581c;stroke-width:1;stroke-linecap:round;stroke-linejoin:round;stroke-opacity:1" />
  </g>
  <use
     id="shine"
     fill="url(#rg)"
     stroke="#000"
     stroke-width="3"
     xlink:href="#shield" />
</svg>
