<?xml version="1.0" encoding="UTF-8"?>
<svg xmlns="http://www.w3.org/2000/svg" xmlns:xlink="http://www.w3.org/1999/xlink" width="600" height="660">
<defs>
  <radialGradient id="rg" gradientUnits="userSpaceOnUse" cx="220" cy="220" r="405">
    <stop style="stop-color:#fff;stop-opacity:.3" offset="0"/>
    <stop style="stop-color:#fff;stop-opacity:.2" offset=".2"/>
    <stop style="stop-color:#666;stop-opacity:.1" offset=".6"/>
    <stop style="stop-color:#000;stop-opacity:.13" offset="1"/>
  </radialGradient>
  <path id="shield" d="m2,2v257c0,286 298,398 298,398c0,0 298-112 298-398V2z"/>
</defs>
<use id="shine" xlink:href="#shield" fill="#884411"/>
<g id="boar" style="fill:#000000;stroke:#333333;stroke-width:2.5;">
    <g>
        <path d="m 223.45,196.22 c 5.92,-10.09 6.76,-22.49 14.68,-31.12 3.24,-3.56 8,-5.53 12.67,-6.69 4.1,-0.99 8.75,-0.33 12.89,-1.09 3.35,-0.64 9.58,-3.58 9.58,-3.58 0,0 -2,5.42 -3.8,7.58 -3.31,4 -8.7,5.49 -12.45,9.11 -3.49,3.39 -6.6,6.83 -8.89,11.12 -3.3,6.21 -7.56,20.45 -7.56,20.45 l -19.14,-2.89 c 0,0 1.47,-1.98 2.02,-2.89 z"/>
        <path d="m 238.42,200.99 c 5.93,-10.1 6.77,-22.49 14.69,-31.12 3.25,-3.56 8,-5.54 12.67,-6.69 4.1,-0.99 8.76,-0.32 12.89,-1.11 3.36,-0.63 9.58,-3.56 9.58,-3.56 0,0 -2,5.42 -3.8,7.58 -3.31,4 -8.7,5.49 -12.45,9.11 -3.48,3.39 -6.6,6.83 -8.89,11.12 -3.3,6.21 -7.56,20.45 -7.56,20.45 l -19.14,-2.89 c 0,0 1.48,-1.98 2.01,-2.89 z"/>
        <path style="fill:#ffffff;" d="m 252.05,207.12 c 5.93,-10.09 6.77,-22.49 14.69,-31.13 3.25,-3.56 8,-5.52 12.67,-6.69 4.1,-0.99 8.76,-0.32 12.89,-1.09 3.36,-0.63 9.58,-3.58 9.58,-3.58 0,0 -2,5.43 -3.8,7.58 -3.31,4 -8.7,5.49 -12.45,9.12 -3.48,3.38 -6.6,6.82 -8.89,11.11 -3.3,6.21 -7.56,20.46 -7.56,20.46 l -19.12,-2.89 c 0,0 1.46,-1.99 1.99,-2.89 z"/>
        <path style="fill:#ffffff;" d="m 267.69,211.89 c 5.94,-10.09 6.78,-22.49 14.7,-31.13 3.24,-3.56 8,-5.54 12.67,-6.69 4.1,-0.99 8.75,-0.32 12.89,-1.11 3.35,-0.63 9.58,-3.55 9.58,-3.55 0,0 -2,5.42 -3.8,7.57 -3.31,4 -8.7,5.49 -12.45,9.12 -3.49,3.38 -6.6,6.82 -8.89,11.11 -3.3,6.21 -7.56,20.46 -7.56,20.46 l -19.14,-2.89 c 0,0 1.47,-1.99 2,-2.89 z"/>
        <path d="m 281.32,217.33 c 5.94,-10.09 6.78,-22.49 14.7,-31.13 3.24,-3.56 8,-5.54 12.67,-6.69 4.1,-0.99 8.75,-0.32 12.89,-1.11 3.35,-0.63 9.58,-3.56 9.58,-3.56 0,0 -2,5.43 -3.8,7.58 -3.31,4 -8.7,5.49 -12.45,9.12 -3.49,3.38 -6.6,6.82 -8.89,11.11 -3.3,6.21 -7.56,20.46 -7.56,20.46 l -19.12,-2.89 c 0,0 1.45,-1.99 1.98,-2.89 z"/>
        <path d="m 294.96,223.47 c 5.91,-10.09 6.75,-22.49 14.67,-31.13 3.25,-3.56 8,-5.52 12.67,-6.69 4.11,-0.99 8.76,-0.32 12.9,-1.09 3.35,-0.63 9.57,-3.58 9.57,-3.58 0,0 -2,5.43 -3.79,7.58 -3.32,4 -8.71,5.49 -12.45,9.12 -3.49,3.38 -6.61,6.82 -8.9,11.11 -3.3,6.21 -7.56,20.46 -7.56,20.46 l -19.12,-2.89 c 0,0 1.46,-1.99 2.01,-2.89 z"/>
        <path style="fill:#ffffff;" d="m 309.83,227.81 c 6.38,-9.82 7.79,-22.16 16.08,-30.44 3.42,-3.39 8.26,-5.15 12.96,-6.09 4.16,-0.82 8.78,0 12.93,-0.51 3.39,-0.48 9.73,-3.13 9.73,-3.13 0,0 -2.24,5.32 -4.14,7.38 -3.48,3.85 -8.94,5.1 -12.84,8.54 -3.64,3.23 -6.91,6.53 -9.39,10.7 -3.57,6.06 -8.48,20.1 -8.48,20.1 l -18.98,-3.75 c 0,0 1.55,-1.91 2.13,-2.8 z"/>
        <path style="fill:#ffffff;" d="m 324.82,232.58 c 6.37,-9.83 7.78,-22.16 16.07,-30.44 3.4,-3.4 8.24,-5.17 12.96,-6.09 4.14,-0.82 8.76,0 12.93,-0.53 3.39,-0.48 9.73,-3.11 9.73,-3.11 0,0 -2.24,5.32 -4.13,7.37 -3.49,3.85 -8.95,5.1 -12.85,8.55 -3.64,3.22 -6.91,6.52 -9.39,10.71 -3.59,6.05 -8.48,20.09 -8.48,20.09 l -18.98,-3.76 c 0,0 1.55,-1.92 2.14,-2.79 z"/>
        <path d="m 338.38,238.02 c 6.38,-9.82 7.76,-22.16 16.07,-30.44 3.41,-3.39 8.25,-5.15 12.97,-6.09 4.13,-0.82 8.75,0.17 12.93,-0.51 3.38,-0.48 9.73,-3.13 9.73,-3.13 0,0 -2.24,5.33 -4.14,7.38 -3.49,3.85 -8.95,5.1 -12.85,8.56 -3.64,3.21 -6.91,6.51 -9.38,10.68 -3.6,6.06 -8.49,20.1 -8.49,20.1 l -18.98,-3.75 c 0,0 1.56,-1.91 2.14,-2.8 z"/>
        <path d="m 351.97,243.7 c 6.81,-9.53 8.78,-21.79 17.45,-29.69 3.55,-3.23 8.46,-4.77 13.22,-5.49 4.17,-0.63 8.75,0.48 12.94,0 3.39,-0.33 9.85,-2.69 9.85,-2.69 0,0 -2.48,5.22 -4.46,7.2 -3.66,3.68 -9.17,4.67 -13.22,7.96 -3.78,3.04 -7.2,6.19 -9.87,10.26 -3.85,5.88 -9.39,19.68 -9.39,19.68 l -18.77,-4.6 c 0,0 1.64,-1.85 2.25,-2.7 z"/>
        <path style="fill:#ffffff;" d="m 364.9,250.5 c 6.83,-9.52 8.78,-21.8 17.45,-29.69 3.55,-3.23 8.46,-4.77 13.22,-5.49 4.19,-0.63 8.75,0.47 12.94,0 3.41,-0.34 9.87,-2.68 9.87,-2.68 0,0 -2.5,5.22 -4.48,7.18 -3.66,3.7 -9.17,4.69 -13.22,7.96 -3.78,3.06 -7.2,6.2 -9.87,10.27 -3.85,5.89 -9.37,19.69 -9.37,19.69 l -18.8,-4.62 c 0,0 1.65,-1.83 2.26,-2.68 z"/>
        <path style="fill:#ffffff;" d="m 379.68,252.93 c 7.85,-8.69 11.2,-20.64 20.71,-27.48 3.92,-2.82 8.96,-3.78 13.77,-3.95 4.22,-0.17 8.63,1.45 12.86,1.54 3.4,0 10.09,-1.54 10.09,-1.54 0,0 -3.06,4.89 -5.25,6.63 -4.07,3.24 -9.65,3.61 -14.04,6.38 -4.11,2.6 -7.87,5.34 -10.98,9.08 -4.5,5.41 -11.56,18.49 -11.56,18.49 l -18.15,-6.72 c 0,0 1.85,-1.64 2.55,-2.43 z"/>
        <path d="m 390.52,256.8 c 9.1,-7.39 14.21,-18.71 24.66,-24.03 4.29,-2.19 9.44,-2.38 14.21,-1.81 4.19,0.49 8.32,2.77 12.47,3.47 3.35,0.58 10.21,0 10.21,0 0,0 -3.76,4.38 -6.21,5.76 -4.49,2.58 -10.07,2.1 -14.84,4.17 -4.47,1.95 -8.59,4.09 -12.23,7.31 -5.27,4.67 -14.25,16.52 -14.25,16.52 l -16.89,-9.41 c 0,0 2.07,-1.33 2.87,-2 z"/>
    </g>
    <g>
        <path style="fill:#111111;" d="m 203.61,396.08 c -7.16,8.51 -12.05,19.39 -28.73,29.02 5.46,1.62 11.55,2.73 17.46,0 -1.5,4.53 -8.45,10.79 -12.28,14.52 12.35,0.73 22.17,-0.21 29.71,-5.49 5.46,-3.82 12.86,-10.3 12.71,-18.37 -0.17,-6.26 0.54,-13.84 7.09,-14.06 z"/>
        <path style="fill:#333333;stroke:none;" d="m 198.23,408.97 c -1.05,5.75 -3.78,10.86 -7.41,15.41 -0.19,0.22 -0.77,0.72 -1.35,1.03 -0.63,0.3 -1.28,0.46 -1.49,0.7 h 3.83 l -0.36,2.15 c 3.95,-5.57 7.12,-12.36 6.76,-19.2 v 0 0 z"/>
        <path style="fill:#111111;" d="m 237.42,410.78 c -6.41,9.19 -10.24,20.42 -26.03,31.51 5.61,1.16 11.81,1.71 17.41,-1.53 -1.07,4.64 -7.45,11.51 -10.91,15.57 12.37,-0.38 22.07,-2.21 29.04,-8.16 5.1,-4.31 11.96,-11.41 11,-19.43 -0.67,-6.24 -0.7,-13.8 5.81,-14.66 z"/>
        <path style="fill:#333333;stroke:none;" d="m 233.18,424.11 c -0.48,5.88 -2.73,11.23 -5.98,16.05 -0.17,0.23 -0.7,0.77 -1.25,1.1 -0.55,0.39 -1.18,0.63 -1.42,0.87 l 3.8,-0.44 -0.18,2.17 c 3.43,-5.92 5.94,-12.96 4.96,-19.75 z"/>
        <path style="fill:#111111;" d="m 373.49,406.56 c -8.16,6.52 -14.66,15.65 -31.76,21.45 4.7,2.49 10.11,4.66 16.04,3.26 -2.22,3.9 -9.76,8.38 -13.97,11.12 11.18,2.96 20.38,3.95 28.3,0.46 5.73,-2.51 15.34,-7.03 15.07,-14.59 -0.24,-6.84 5.25,-8.16 9.13,-11.64 z"/>
        <path style="fill:#333333;stroke:none;" d="m 366.15,417.47 c -2,5.08 -5.49,9.32 -9.66,12.83 -0.21,0.19 -0.84,0.51 -1.42,0.68 -0.65,0.19 -1.27,0.19 -1.51,0.38 l 3.56,0.63 -0.73,1.92 c 4.66,-4.4 8.84,-10.06 9.76,-16.44 z"/>
        <path style="fill:#111111;" d="m 452.09,413.98 c -8.33,7.51 -14.57,17.6 -32.46,24.85 5.23,2.4 11.11,4.31 17.32,2.43 -2.08,4.28 -9.85,9.54 -14.14,12.71 12.16,2.41 22.01,2.82 30.15,-1.42 5.93,-3.05 11.89,-9.1 15.07,-16.47 1.95,-4.31 5.97,-8.02 8.96,-12.98 z"/>
        <path style="fill:#333333;stroke:none;" d="m 444.96,426 c -1.8,5.63 -5.19,10.33 -9.44,14.3 -0.21,0.21 -0.88,0.6 -1.47,0.79 -0.62,0.26 -1.29,0.36 -1.56,0.53 l 3.8,0.43 -0.6,2.08 c 4.65,-4.99 8.69,-11.3 9.27,-18.13 z"/>
    </g>
    <path style="fill:#888888;stroke-width:1;" d="m 92.519,280.07 c -3.575,-14.04 -5.866,-30.71 -6.089,-45.03 -0.222,-14.33 -2.052,-27.75 4.036,-41.16 -0.94,0.72 -1.949,1.38 -2.753,2.29 -17.119,19.48 -9.355,63.09 -9.731,87.82 l 5.558,-1.08 z"/>
    <path style="fill:#ee0000;stroke-width:1;" d="m 144.13,272.29 c -4.94,-4.89 -6.33,-6.48 -12.74,-9.35 -9.75,-4.33 -26.4,-7.13 -36.58,-4.57 -10.398,2.58 -18.247,4.4 -29.894,0.45 -4.429,-1.53 -7.2,-3.82 -7.2,-3.82 3.061,10.55 11.287,14.04 20.967,17 l 5.165,7.05 53.602,1.88 z"/>
    <path style="fill:#888888;stroke-width:1;" d="m 125.42,250.02 c -0.8,2.35 -2.03,8.86 -0.56,14.63 0.72,-2.04 5.51,-5.95 9.8,-8.02 z"/>
    <path style="fill:#888888;stroke-width:1;" d="m 112.07,275.03 c 1.07,-2.23 4.85,-7.68 9.95,-10.71 -0.94,1.93 -0.29,8.14 1.25,12.62 z"/>
    <path d="m 163.77,211.29 c -7.43,-29.11 6.79,-41.78 22.45,-57.16 4.79,-4.72 6.65,-6.02 7.85,-13.71 4.36,4.31 7.3,11.27 7.82,19.32 1.19,17.26 -8.42,39.53 -38.12,51.55 z"/>
    <path d="m 206.97,343.47 c 0.65,23.41 -7.12,54.83 -5.26,54.26 -3.93,8.9 7.24,14.22 21.33,13.22 0,0 1.44,-5.48 3.23,-7.54 1.68,-1.9 5.54,-1.52 6.49,-3.85 1.43,-3.43 -0.91,-7.57 -2.78,-10.79 -1.76,-3.01 -1.36,-5.25 -1.36,-5.25 3.66,3.47 4.44,2 9.3,8.25 3.1,-12.59 -3.04,-17.4 -4.52,-23.09 l 9.55,6.14 c 3.26,-11.77 -6.89,-18.59 -8.35,-25.43 3.08,1.42 6.62,3.83 11.08,8.34 0.69,-1.45 0.72,-3.81 0.18,-6.39 0,0 -0.69,-5.42 -1.75,-7.92 -1.35,-3.23 -5.81,-8.79 -5.81,-8.79 6.17,0 9.69,2.6 13.76,7.15 0,0 1.3,-7.32 1,-11 -0.43,-5.39 -2.6,-10.5 -4.01,-15.73 -1.88,-7.03 -5.88,-21.07 -5.88,-21.07 l -46.28,18.23 c 8.88,10.45 9.75,18.31 10.11,31.26 z" />
    <path d="m 352.78,363 c 8.75,4.79 22.02,3.58 29.19,9.25 5.2,4.14 6.17,10.18 4.96,15.21 -1.97,8.24 -16.2,20.5 -16.2,20.5 -6.8,4.57 4.31,11.34 18.85,13.92 0,0 3.22,-3.02 5.7,-3.88 2.29,-0.79 4.66,-0.6 6.37,-1.78 2.54,-1.78 1.36,-4.96 0.5,-7.35 -0.82,-2.24 0.36,-3.52 0.36,-3.52 2.58,2.95 3.85,2.24 6.75,7.16 7.15,-7.03 2.48,-11.37 2.81,-15.2 l 7.68,5.95 c 7.06,-6.5 -1.01,-13 -0.33,-17.53 2.69,1.57 5.48,3.86 8.55,7.64 2.09,-1.28 1.68,-9.09 -0.29,-12.14 -3.9,-6.04 -8.6,-9.28 -10.38,-15.65 -0.54,-1.93 -0.32,-3.38 0,-6.87 0.6,-6.76 1.2,-17.82 -0.37,-24.56 -1.73,-7.29 -4.67,-14.9 -11.38,-21.12 l -72.44,33.33 z" />
    <path style="stroke:none;" d="m 230.31,148.73 c 0,0 -1.73,8.47 -6.91,12.93 -8.09,6.99 -23.57,12.71 -30.46,20.9 -1.9,2.27 -3.37,4.48 -4.5,6.51 -40.55,-4.55 -42.6,14.04 -57.92,12.95 -3.8,-0.27 -6.84,-4.98 -6.84,-4.98 -1.28,1.1 -5.05,2.98 -2.24,12.03 -7.61,0 -22.696,-1.46 -39.268,0.46 -6.413,-0.38 -7.73,-5.2 -9.047,-8.59 -2.548,2.86 -12.177,12.67 -16.196,23.95 -2.428,6.78 -3.505,11.33 1.129,16.04 3.113,3.14 6.567,0.87 11.749,1.81 5.558,1.01 11.441,5.69 15.871,0.17 0,-0.17 0.171,-0.17 0.171,-0.26 12.399,1.56 31.961,4.96 41.851,11.65 4.85,3.28 10.04,8.45 10.14,14.31 0,3.7 -1.68,6.55 -4.96,8.25 -3.01,1.54 -6.7,0.99 -9.95,0 -3.89,-1.15 -6.14,-3.63 -10.04,-4.76 -2.43,-0.71 -6.83,-1.33 -9.36,-1.13 -4.324,0.36 -9.13,1.53 -13.457,1.87 -4.207,0.34 -13.322,-1.28 -13.322,-1.28 -2.001,12.77 -8.175,15.25 -14.263,19.71 3.762,0.71 16.298,3.99 22.027,-4 1.779,5.37 5.866,7.44 11.595,10.11 0,0 1.385,-9.25 5.56,-11.92 4.26,-2.74 10.24,-0.51 15.17,0.63 2.41,0.57 5.71,2.62 7.54,4.28 2.58,3.33 3.27,7.9 4.33,11.92 0,0 5.57,-4.38 7.26,-7.42 1.49,-2.69 2.95,-9.08 2.95,-9.08 0,0 5.32,1.79 7.74,3.89 3.53,3.03 9.41,11.55 9.41,11.55 l 1.28,-6.11 c 3.87,1.7 7.6,2.98 11.22,3.97 17.65,11.89 28.72,33.09 41.32,45 4.41,4.17 14.09,9.74 26.13,14 1.01,23.38 -2.12,55.22 -0.32,54.51 -3.1,9.21 8.46,13.51 22.4,11.22 0,0 0.94,-5.6 2.57,-7.8 1.47,-2.02 5.33,-1.99 6.08,-4.38 1.1,-3.54 -1.59,-7.51 -3.74,-10.54 -2.02,-2.82 -1.81,-5.08 -1.81,-5.08 3.93,3.13 4.6,1.56 9.98,7.34 1.97,-12.81 -4.58,-17.03 -6.56,-22.56 l 10.03,5.24 c 2.19,-12.03 -8.49,-17.91 -10.56,-24.58 3.19,1.11 6.91,3.22 11.75,7.32 0.58,-1.5 0.41,-3.85 -0.43,-6.36 20.86,-4.05 45.54,-15.89 66.17,-16.57 6.43,-0.21 -10.45,7.35 -15.67,12.93 5.57,1.01 11.97,0.75 22.76,-3.48 19.24,-8.56 50.28,-17.01 68.53,-16.99 0,0 7.05,8.24 10.89,10.91 8.86,6.12 21.09,2.49 28.6,10.21 5.45,5.61 7.2,14.67 6.79,22.49 -0.69,12.8 -12.25,33.34 -12.25,33.34 -5.71,7.87 4.06,15.45 18.01,17.43 0,0 2.57,-5.04 4.77,-6.67 2.02,-1.5 5.73,-0.34 7.15,-2.41 2.12,-3.06 0.72,-7.58 -0.43,-11.12 -1.06,-3.3 -0.2,-5.4 -0.2,-5.4 2.82,4.17 3.9,2.89 7.32,10 5.69,-11.64 0.72,-17.64 0.48,-23.51 l 8.02,8 c 5.68,-10.81 -2.79,-19.6 -2.79,-26.61 2.74,2.04 5.7,5.18 9.1,10.54 1.78,-2.23 0.29,-14.13 -1.98,-18.49 -4.52,-8.69 -9.36,-12.96 -11.93,-22.4 -0.78,-2.89 -0.8,-5.12 -1,-10.47 -0.41,-10.36 -1.42,-27.31 -3.85,-37.37 -1.85,-7.61 -5.97,-16.95 -7.01,-21.38 6.56,5.8 12.62,11.12 20.74,12.68 1.3,0.25 2.67,0.27 4,0.37 1.1,2.91 1.87,5.97 3.47,8.45 6.45,9.87 3.56,10.78 -2.18,32.17 -1.73,6.48 -1.03,17.53 3.84,25.7 3.97,6.64 16.34,10.59 20.32,16.35 6.76,9.8 2.26,16.76 2.34,22.51 11.62,-6.74 4.88,-30.3 6.09,-39.01 0.87,-6.19 1.99,-13.49 1.56,-19.51 -0.5,-7.13 -2.11,-14.64 -5.34,-21.38 -4.84,-10.07 -12.96,-15.65 -15.71,-21.75 -0.72,-1.59 -1.12,-3.25 -1.77,-4.86 3.34,-1.01 6.59,-2.38 9.46,-4.45 6.71,-4.82 11.43,-12.5 12.08,-21 0.7,-8.98 -3.53,-18.18 -12.25,-21.38 -1.86,-0.68 -3.71,-1.04 -5.56,-1.11 -5.5,-0.24 -10.6,2.07 -13.83,5.56 -4.31,4.64 -6.33,10.57 -6.95,16.25 -0.54,4.94 0,9.78 0.86,14.47 -3.58,-1.3 -7.71,-4.13 -12.25,-8.13 -5.28,-4.65 -10.79,-10.19 -17.85,-13.35 -5.2,-2.33 -10.35,-3.44 -15.02,-3.9 -3.26,-2.19 -6.73,-4.11 -10.57,-5.72 -25.15,-10.58 -40.07,-6.46 -81.73,-15.66 -45.71,-10.09 -78.43,-30.32 -119.16,-33.35 -1.9,-0.17 -3.95,-0.19 -6.16,-0.17 -1.2,0 -2.48,0.17 -3.73,0.17 7.01,-20.08 3.03,-39.22 -1.28,-46.65 z m 285.91,102.18 c 0.82,0 1.83,0.18 3.22,0.64 2.17,0.8 4.72,4.87 4.37,9.25 -0.32,4.26 -3.42,9.54 -7.11,12.19 -1.74,1.25 -4.04,2.14 -6.41,2.77 -1.1,-4.61 -1.7,-9.15 -1.22,-13.4 0.38,-3.56 2.02,-7.51 3.85,-9.46 0.91,-0.98 1.61,-1.63 2.57,-1.88 0.22,0 0.47,-0.17 0.73,-0.17 z"/>
    <path style="fill:#ffffff;stroke:none;" d="m 461.93,252.53 c -5.88,4.24 -11.72,8.45 -19.53,11.17 -7.81,2.71 -17.29,3.83 -26.17,8.05 -8.88,4.21 -16.87,11.41 -20.35,11.47 -3.48,0.1 -2.37,-7.01 3.78,-12.56 6.16,-5.55 17.32,-9.51 24.67,-13.79 7.34,-4.29 10.95,-8.95 14.54,-13.6 m -29.56,-6.82 c -2.67,4.24 -5.33,8.46 -9.03,12.79 -3.69,4.33 -8.28,8.63 -13.17,16.32 -4.89,7.7 -9.94,18.63 -16.32,27.4 -6.39,8.77 -14.07,15.34 -14,11.15 0.1,-4.19 7.87,-19.05 11.42,-30.49 3.54,-11.45 2.77,-19.32 3.22,-25.58 0.45,-6.26 2.14,-10.94 3.82,-15.61 m 102.02,44.27 c -8.89,2.31 -17.76,4.61 -26.02,7.03 -8.25,2.42 -15.64,4.88 -27.32,3.69 -11.68,-1.18 -27.41,-6.01 -28,-3.85 -0.59,2.17 13.98,11.32 26.57,14.32 12.59,3 23.04,-0.18 33.18,-0.58 10.14,-0.41 19.83,1.99 29.38,4.36 m -140.28,-76.54 c -3.17,7.43 -6.33,14.84 -6.76,23.1 -0.44,8.27 1.86,17.13 -4.97,29.23 -6.82,12.1 -22.69,27.22 -25.28,25.89 -2.59,-1.34 8.14,-19.13 10.35,-32.69 2.22,-13.55 -4.14,-22.79 -6.09,-31.19 -1.94,-8.4 0.48,-16.1 2.9,-23.77 m -28.18,-10.85 c -5.55,7.66 -11.09,15.31 -12.76,23.95 -1.66,8.64 0.57,18.03 -3.8,31.57 -4.37,13.55 -15.31,31.02 -17.65,29.42 -2.35,-1.61 3.94,-22.3 4.93,-35.99 0.99,-13.7 -3.35,-20.32 -4.3,-28.5 -0.95,-8.18 1.48,-18.08 3.89,-27.93 m 230.11,122.53 c -8.23,4.16 -16.43,8.31 -23.18,12.01 -6.76,3.69 -11.89,6.83 -22.28,3.49 -10.4,-3.34 -25.91,-13.14 -27.34,-12.76 -1.43,0.37 11.25,10.95 21.13,17.38 9.87,6.43 16.94,8.7 23.36,8.78 6.42,0.1 12.32,-2.03 17.24,-2.85 4.92,-0.82 8.82,-0.35 12.66,0.11 m -205.28,14.41 c 3.11,-10.9 6.21,-21.77 14.31,-29.75 8.09,-7.98 20.93,-12.86 31.63,-23.87 10.7,-11 19.04,-27.95 20.53,-26.47 1.48,1.48 -3.93,21.41 -11.05,33.36 -7.13,11.94 -15.96,15.82 -21.1,20.81 -5.14,4.98 -6.65,11.11 -8.19,17.31 m -120.86,-33.9 c 11.67,1.51 23.29,3.01 35.19,2.03 11.91,-0.98 23.78,-4.4 33.14,-13.38 9.37,-8.99 16.06,-23.45 18.01,-25.48 1.94,-2.02 -0.87,8.39 -4.53,18.27 -3.66,9.88 -8.19,19.24 -14.31,25.85 -6.13,6.61 -13.96,10.59 -22.48,12.82 -8.53,2.22 -17.71,2.66 -26.74,3.1 m -19.4,-66.59 c 8.42,-4.68 16.79,-12.56 22,-24.6 5.2,-12.04 7.51,-28.48 9.74,-27.86 2.23,0.62 4.4,18.56 3.28,30.44 -1.11,11.88 -5.68,18.5 -12.72,23.79 -7.03,5.29 -17.1,9.74 -25.84,10.76 -8.73,1.02 -20.78,-2.74 -20.43,-3.61 0.35,-0.87 15.56,-4.23 23.97,-8.92 z"/>
    <path style="fill:#ffffff;stroke:none;" d="m 511.71,303.95 c 0,0 2.27,1.35 3.31,0.87 1.56,-0.72 2.23,-4.65 2.23,-4.65 0,0 6.7,6.86 9.28,11.51 1.76,3.14 3.39,7.18 4.43,10.64 0.96,3.19 2.62,6.2 3.1,9.5 0.49,3.37 -0.22,10.2 -0.22,10.2 0,0 -1.56,-7.56 -3.1,-11.07 -1.92,-4.38 -7.52,-12.18 -7.52,-12.18 0,0 3.36,7.03 4.89,11.46 1.42,4.14 3.37,13.07 3.96,17.41 0.62,4.54 -0.59,7.15 -0.42,11.74 0.22,5.47 1.74,15.16 1.74,15.16 0,0 -4.21,-5.42 -5.76,-9.23 -1.25,-3.06 -4.38,-4.91 -5.06,-8.12 -0.6,-2.79 0.97,-7.7 0.66,-12.11 -0.37,-5.63 -1.35,-10.16 -1.35,-10.16 0,0 -0.68,6.05 -0.63,10.77 0,1.95 -3.34,6.42 -3.18,8.91 0.17,2.89 4.03,7.12 4.03,7.12 0,0 -4.73,-3.29 -6.58,-5.83 -1.93,-2.65 -3.4,-5.54 -3.81,-8.79 -0.45,-3.58 -0.62,-7.29 0,-10.85 0.68,-3.86 3.67,-7.15 3.98,-11.06 0.17,-1.58 -0.89,-4.65 -0.89,-4.65 0,0 0,3.16 -0.44,4.65 -0.77,2.7 -2.86,4.87 -3.77,7.52 -1,3 -1.47,6.16 -1.76,9.31 -0.27,2.92 0,8.84 0,8.84 0,0 -2.85,-7.39 -3.32,-11.29 -0.35,-2.92 -0.17,-5.95 0.45,-8.84 0.92,-4.48 3.59,-8.45 4.86,-12.84 0.73,-2.54 1.43,-5.12 1.55,-7.75 0.17,-2.07 -0.66,-6.19 -0.66,-6.19 z"/>
    <path style="fill:none;" d="m 230.31,148.73 c 0,0 -1.73,8.47 -6.91,12.93 -8.09,6.99 -23.57,12.71 -30.46,20.9 -1.9,2.27 -3.37,4.48 -4.5,6.51 -40.55,-4.55 -42.6,14.04 -57.92,12.95 -3.8,-0.27 -6.84,-4.98 -6.84,-4.98 -1.28,1.1 -5.05,2.98 -2.24,12.03 -7.61,0 -22.696,-1.46 -39.268,0.46 -6.413,-0.38 -7.73,-5.2 -9.047,-8.59 -2.548,2.86 -12.177,12.67 -16.196,23.95 -2.428,6.78 -3.505,11.33 1.129,16.04 3.113,3.14 6.567,0.87 11.749,1.81 5.558,1.01 11.441,5.69 15.871,0.17 0,-0.17 0.171,-0.17 0.171,-0.26 12.399,1.56 31.961,4.96 41.851,11.65 4.85,3.28 10.04,8.45 10.14,14.31 0,3.7 -1.68,6.55 -4.96,8.25 -3.01,1.54 -6.7,0.99 -9.95,0 -3.89,-1.15 -6.14,-3.63 -10.04,-4.76 -2.43,-0.71 -6.83,-1.33 -9.36,-1.13 -4.324,0.36 -9.13,1.53 -13.457,1.87 -4.207,0.34 -13.322,-1.28 -13.322,-1.28 -2.001,12.77 -8.175,15.25 -14.263,19.71 3.762,0.71 16.298,3.99 22.027,-4 1.779,5.37 5.866,7.44 11.595,10.11 0,0 1.385,-9.25 5.56,-11.92 4.26,-2.74 10.24,-0.51 15.17,0.63 2.41,0.57 5.71,2.62 7.54,4.28 2.58,3.33 3.27,7.9 4.33,11.92 0,0 5.57,-4.38 7.26,-7.42 1.49,-2.69 2.95,-9.08 2.95,-9.08 0,0 5.32,1.79 7.74,3.89 3.53,3.03 9.41,11.55 9.41,11.55 l 1.28,-6.11 c 3.87,1.7 7.6,2.98 11.22,3.97 17.65,11.89 28.72,33.09 41.32,45 4.41,4.17 14.09,9.74 26.13,14 1.01,23.38 -2.12,55.22 -0.32,54.51 -3.1,9.21 8.46,13.51 22.4,11.22 0,0 0.94,-5.6 2.57,-7.8 1.47,-2.02 5.33,-1.99 6.08,-4.38 1.1,-3.54 -1.59,-7.51 -3.74,-10.54 -2.02,-2.82 -1.81,-5.08 -1.81,-5.08 3.93,3.13 4.6,1.56 9.98,7.34 1.97,-12.81 -4.58,-17.03 -6.56,-22.56 l 10.03,5.24 c 2.19,-12.03 -8.49,-17.91 -10.56,-24.58 3.19,1.11 6.91,3.22 11.75,7.32 0.58,-1.5 0.41,-3.85 -0.43,-6.36 20.86,-4.05 45.54,-15.89 66.17,-16.57 6.43,-0.21 -10.45,7.35 -15.67,12.93 5.57,1.01 11.97,0.75 22.76,-3.48 19.24,-8.56 50.28,-17.01 68.53,-16.99 0,0 7.05,8.24 10.89,10.91 8.86,6.12 21.09,2.49 28.6,10.21 5.45,5.61 7.2,14.67 6.79,22.49 -0.69,12.8 -12.25,33.34 -12.25,33.34 -5.71,7.87 4.06,15.45 18.01,17.43 0,0 2.57,-5.04 4.77,-6.67 2.02,-1.5 5.73,-0.34 7.15,-2.41 2.12,-3.06 0.72,-7.58 -0.43,-11.12 -1.06,-3.3 -0.2,-5.4 -0.2,-5.4 2.82,4.17 3.9,2.89 7.32,10 5.69,-11.64 0.72,-17.64 0.48,-23.51 l 8.02,8 c 5.68,-10.81 -2.79,-19.6 -2.79,-26.61 2.74,2.04 5.7,5.18 9.1,10.54 1.78,-2.23 0.29,-14.13 -1.98,-18.49 -4.52,-8.69 -9.36,-12.96 -11.93,-22.4 -0.78,-2.89 -0.8,-5.12 -1,-10.47 -0.41,-10.36 -1.42,-27.31 -3.85,-37.37 -1.85,-7.61 -5.97,-16.95 -7.01,-21.38 6.56,5.8 12.62,11.12 20.74,12.68 1.3,0.25 2.67,0.27 4,0.37 1.1,2.91 1.87,5.97 3.47,8.45 6.45,9.87 3.56,10.78 -2.18,32.17 -1.73,6.48 -1.03,17.53 3.84,25.7 3.97,6.64 16.34,10.59 20.32,16.35 6.76,9.8 2.26,16.76 2.34,22.51 11.62,-6.74 4.88,-30.3 6.09,-39.01 0.87,-6.19 1.99,-13.49 1.56,-19.51 -0.5,-7.13 -2.11,-14.64 -5.34,-21.38 -4.84,-10.07 -12.96,-15.65 -15.71,-21.75 -0.72,-1.59 -1.12,-3.25 -1.77,-4.86 3.34,-1.01 6.59,-2.38 9.46,-4.45 6.71,-4.82 11.43,-12.5 12.08,-21 0.7,-8.98 -3.53,-18.18 -12.25,-21.38 -1.86,-0.68 -3.71,-1.04 -5.56,-1.11 -5.5,-0.24 -10.6,2.07 -13.83,5.56 -4.31,4.64 -6.33,10.57 -6.95,16.25 -0.54,4.94 0,9.78 0.86,14.47 -3.58,-1.3 -7.71,-4.13 -12.25,-8.13 -5.28,-4.65 -10.79,-10.19 -17.85,-13.35 -5.2,-2.33 -10.35,-3.44 -15.02,-3.9 -3.26,-2.19 -6.73,-4.11 -10.57,-5.72 -25.15,-10.58 -40.07,-6.46 -81.73,-15.66 -45.71,-10.09 -78.43,-30.32 -119.16,-33.35 -1.9,-0.17 -3.95,-0.19 -6.16,-0.17 -1.2,0 -2.48,0.17 -3.73,0.17 7.01,-20.08 3.03,-39.22 -1.28,-46.65 z m 285.91,102.18 c 0.82,0 1.83,0.18 3.22,0.64 2.17,0.8 4.72,4.87 4.37,9.25 -0.32,4.26 -3.42,9.54 -7.11,12.19 -1.74,1.25 -4.04,2.14 -6.41,2.77 -1.1,-4.61 -1.7,-9.15 -1.22,-13.4 0.38,-3.56 2.02,-7.51 3.85,-9.46 0.91,-0.98 1.61,-1.63 2.57,-1.88 0.22,0 0.47,-0.17 0.73,-0.17 z"/>
    <path style="fill:#333333;stroke:none;" d="m 191.93,181.75 c -1.95,2.33 -3.43,4.59 -4.6,6.67 0,0 0,0 0,0 -1.96,3.39 -3.64,6.88 -4.05,10.16 -0.58,4.55 -1.15,5.71 1.06,12.73 0.22,-9.82 1.06,-14.56 5.18,-21.66 v 0 c 1.1,-1.96 2.48,-4.1 4.33,-6.29 z m 38.86,11.92 c -3.13,9.6 -8.77,19.48 -18.18,28.43 9.92,-3.27 19.17,-21.31 20.64,-27.62 z m 46.65,38.96 c -2.39,0.87 0.72,7.07 1.56,7.53 6.58,3.74 8.7,8.65 10.94,12.34 1.13,1.85 2.35,3.49 4.38,4.13 1.54,0.46 3.42,0.17 5.56,-0.76 -0.31,1.34 -0.87,2.77 -2.02,4.07 -1.71,1.9 -4.12,3.32 -6.84,3.53 l -2.73,0.2 1.88,1.99 c 0,0 0.83,0.92 1.86,2.13 1.03,1.24 2.22,2.77 2.72,3.75 1.04,2 0.96,5.2 3.06,7.75 0.45,0.54 1.01,0.71 1.54,1.01 -0.34,0.17 -0.8,0.35 -0.96,0.37 -2.31,0.28 -5.5,-0.44 -7.97,-1.28 -1.84,-0.63 -4.38,-0.58 -4.38,-0.58 h -3.04 l 2.09,2.19 c 0,0 1.07,1.13 2.13,2.78 1.07,1.65 2.06,3.77 2.04,5.44 0,4.07 -0.97,4.42 -2.26,6.11 -0.63,0.84 -1.31,1.96 -1.71,3.68 -0.25,1.12 -0.17,3.06 -0.17,4.8 -3.95,-2.21 -4.5,-2.38 -8.87,-5.71 1.11,3.35 4.53,6.5 9.4,9.25 l 2.04,1.16 -0.17,-2.34 c -0.23,-3.2 -0.18,-5.27 0.2,-6.63 0.31,-1.36 0.72,-1.99 1.23,-2.67 1.05,-1.37 2.72,-3.01 2.79,-7.6 0,-2.6 -1.27,-5.04 -2.46,-6.89 -0.24,-0.37 -0.26,-0.31 -0.48,-0.63 0.31,0 0.53,0 0.75,0.17 2.65,0.89 6.02,1.74 9.08,1.39 1.03,-0.18 1.97,-0.57 2.77,-0.96 0.82,-0.41 1.46,-0.81 1.46,-0.81 l 2.39,-1.45 -2.67,-0.85 c 0,0 -0.58,-0.23 -1.28,-0.53 -0.7,-0.31 -1.49,-0.83 -1.61,-0.96 -1.31,-1.61 -1.35,-4.48 -2.77,-7.27 -0.72,-1.4 -1.93,-2.94 -2.99,-4.23 -0.36,-0.42 -0.36,-0.41 -0.65,-0.75 2.51,-0.7 4.8,-1.93 6.41,-3.73 2.09,-2.34 3.32,-5.21 3,-7.91 l -0.21,-1.87 -1.66,0.86 c -3.03,1.55 -4.75,1.76 -5.83,1.43 -1.06,-0.32 -1.9,-1.28 -2.94,-2.99 -2.07,-3.42 -4.59,-9.17 -11.85,-13.25 -2.76,-1.54 -2.84,-5.29 -2.84,-5.29 z m -49.17,11.65 c 2.83,13.58 -1.76,32.17 -11.21,42.33 -12.04,12.91 -32.65,19 -59.23,7.37 l -1.01,2.36 c 27.33,11.95 49.51,5.9 62.1,-7.97 4.28,-4.71 17.99,-23.38 9.35,-44.09 z m 178.99,55.8 c -0.53,7.48 11.84,18.83 13.74,19.93 6.8,3.91 16.88,14.31 39.59,6.84 -18.37,2.46 -30.03,-2.45 -38,-8.83 -7.96,-6.36 -12.01,-14.16 -15.33,-17.94 z m -29.29,9.56 c -6.65,0.17 -14.26,1.05 -16.3,4.76 0,0 13.37,-3.44 24.7,-1.99 3.86,0.5 7.62,2.69 10.94,5.18 3.64,2.76 8.47,8.15 12.25,12.83 3.78,4.7 6.56,8.67 6.56,8.67 v 0 0 c 0,0 1.82,2.07 4.07,4.48 2.26,2.43 4.98,5.17 7.12,6.64 l 1.43,-2.09 c -1.71,-1.18 -4.46,-3.93 -6.68,-6.31 -2.19,-2.32 -3.85,-4.27 -3.9,-4.33 0,0 0,0 0,0 0,0 -2.82,-3.98 -6.62,-8.7 -3.83,-4.75 -8.6,-10.24 -12.67,-13.31 -3.49,-2.63 -7.6,-5.07 -12.18,-5.67 -1.47,-0.17 -3.56,-0.17 -5.93,-0.21 -0.89,0 -1.83,0 -2.79,0 z m -107.8,1.18 c 1.36,10.47 4.13,16.28 6.26,21.69 1.92,4.85 3.13,9.85 3,17.65 -1.87,-1.44 -3.7,-2.93 -5.51,-3.7 -2.57,-1.09 -5.15,-1.47 -7.54,-0.65 l -2.52,0.93 2.24,1.38 c 1.42,0.89 3.24,3.11 4.78,5.82 1.52,2.72 2.77,5.88 3.47,8.67 l 2.51,-0.6 c -0.77,-3.06 -2.1,-6.43 -3.74,-9.36 -1.05,-1.84 -2.24,-3.37 -3.48,-4.7 1.01,0 2.09,0.36 3.25,0.86 2.18,0.94 4.55,2.58 7.07,4.77 l 1.96,1.71 0.17,-2.64 c 0.62,-9.93 -1,-15.63 -3.31,-21.1 -5.15,-12.23 -5.39,-19.03 -8.61,-20.73 z m -40.19,23.45 c 0.88,2.02 3.39,7.64 3.96,11.24 0.58,3.6 0.85,7.96 1.02,12.65 l 2.57,-0.17 c -0.17,-4.75 -0.52,-9.17 -1.08,-12.93 -0.82,-5.42 -4.17,-9.15 -6.47,-10.86 z m -0.83,-168.75 c -4.11,5.43 -10.54,9.63 -15.53,12.8 -5.01,3.16 -9.66,5.83 -11.97,9.93 l -1.44,2.57 2.82,-0.69 c 2.19,-0.51 4.79,-0.17 8.13,1.34 -2.47,0.39 -5.02,0.75 -7.65,1.96 -3.97,1.87 -7.44,6.06 -9.46,15.52 l -0.2,0.95 0.9,0.43 c 3.7,1.73 7.67,3.61 11.8,2.77 4.25,-0.84 10.95,-2.31 12.9,-8.07 -4.33,3.97 -9.46,5.35 -13.05,5.56 -3.23,0.2 -6.34,-0.79 -9.51,-2.19 1.92,-8.09 4.64,-11.19 7.7,-12.61 3.2,-1.5 7.13,-1.23 11.11,-2.66 l 2.47,-0.86 -2.21,-1.4 c -4.27,-2.75 -7.42,-3.32 -10.19,-3.3 2.17,-2.38 5.54,-4.19 9.18,-7.12 3.83,-3.07 12.57,-6.44 14.2,-14.93 z m -96.63,81.55 c 3.23,1.3 3.69,1.59 5.05,2.7 1.35,1.11 2.46,2.7 3.57,4.5 2.24,3.55 4.38,8.03 8.98,10.89 2.73,1.69 7.04,2.87 11.54,3.64 -5.11,2.81 -10.26,3.61 -14.41,3.53 h -3.32 l 2.41,2.24 c 11.17,10.65 8.82,14.84 9.93,21.65 l 2.52,-0.38 c -0.92,-5.64 0.22,-11.47 -8.98,-21.17 4.91,-0.24 10.6,-1.39 16.25,-5.46 l 2.72,-1.96 -3.32,-0.33 c -5.53,-0.56 -11.15,-2.12 -13.94,-3.85 -3.88,-2.39 -5.99,-6.34 -8.17,-10.15 -2.52,-4.33 -6.73,-6.54 -10.83,-5.8 z m 366.15,24.32 -2.56,0.32 c 0.68,6.14 2.41,11.99 4.48,17.48 l 2.41,-0.91 c -2.03,-5.35 -3.66,-11.05 -4.33,-16.89 z m 12.18,0.17 -2.56,0.37 c 0.87,5.49 2.75,11.12 5.02,16.61 l 2.36,-0.96 c -2.22,-5.37 -4,-10.82 -4.82,-16.02 z"/>
    <path style="fill:#888888;stroke-width:1;" d="m 97.41,251.24 c 6.12,4.54 9.54,4.94 13.9,5.28 10.85,0.87 15.77,-10.6 10.38,-18.95 -2.18,-3.33 -4.95,-5.01 -10.92,-5.93 2.99,3.96 4.08,6.39 4.37,8.74 0.52,4.03 -1.94,6.44 -5.81,5.96 -3.04,-0.39 -5.81,-2.71 -10.176,-5.26 z"/>
    <path style="fill:#888888;stroke-width:1;" d="m 104.2,271.06 c -1.76,-14.21 -2.5,-28.71 -0.63,-42.67 1.88,-13.97 6.29,-27.4 14.79,-39.45 -1.09,0.53 -2.26,1.07 -3.27,1.79 -25.359,17.53 -23.426,55.12 -27.462,82.11 h 4.651 z"/>
    <g>
        <path style="fill:#ffffff;stroke-width:1;" d="m 135.6,220.42 c -0.77,3.75 1.18,8.43 7.4,9.68 6.23,1.25 12.4,-3.9 13.16,-7.64 0.76,-3.71 -3.49,-6.84 -9.74,-8.09 -6.22,-1.25 -10.05,2.32 -10.82,6.05 z"/>
        <path style="fill:#884411;stroke:none;" d="m 137.69,220.15 a 5.9093,6.0579 45.03 0 0 3.79,7.45 5.9093,6.0579 45.03 0 0 7.56,-3.98 5.9093,6.0579 45.03 0 0 -3.8,-7.46 5.9093,6.0579 45.03 0 0 -7.55,3.99 z"/>
        <path style="fill:#000000;stroke:none;" d="m 144.39,219.09 c 1.52,0.46 2.6,2.03 2.07,3.67 -0.55,1.66 -2.36,2.33 -3.88,1.85 -1.56,-0.48 -2.57,-1.95 -2,-3.64 0.54,-1.69 2.25,-2.36 3.81,-1.88 z"/>
        <path style="fill:#ffffff;stroke:none;" d="m 142.73,218.06 c 1.04,0.33 1.76,1.44 1.39,2.6 -0.4,1.18 -1.65,1.68 -2.69,1.35 -1.06,-0.32 -1.74,-1.37 -1.35,-2.58 0.39,-1.2 1.57,-1.69 2.65,-1.37 z"/>
    </g>
    <g>
        <path style="fill:#111111;" d="m 85.627,242.91 c 2.035,-2.53 1.231,-8.05 0.427,-11.2 -1.83,-6.72 -7.439,-12.35 -9.782,-18.9 -1.881,-5.35 -3.13,-11.88 -3.13,-11.88 -2.548,2.85 -12.125,12.68 -16.195,23.96 -2.395,6.8 -3.472,11.35 1.111,16.05 3.13,3.17 6.55,0.89 11.783,1.83 5.524,1.01 11.356,5.66 15.786,0.17 z"/>
        <path style="fill:#000000;stroke:#111111;" d="m 72.475,220.27 c 0,0 -1.83,9.93 -0.752,13.73 0.393,1.47 1.539,3.16 2.993,2.92 3.283,-0.53 3.813,-2.59 3.198,-5.07 -0.838,-3.56 -4.071,-9.53 -5.439,-11.58 z m -5.883,-0.98 c 0,0 1.847,9.92 0.787,13.74 -0.462,1.47 -1.522,3.16 -2.976,2.92 -3.284,-0.51 -3.899,-2.58 -3.301,-5.08 0.838,-3.56 4.122,-9.53 5.49,-11.58 z"/>
    </g>
</g>
<use id="shine" xlink:href="#shield" fill="url(#rg)" stroke="#000" stroke-width="3"/>
</svg>
