<?xml version="1.0" encoding="UTF-8"?>
<svg xmlns="http://www.w3.org/2000/svg" xmlns:xlink="http://www.w3.org/1999/xlink" width="600" height="660">
<defs>
  <radialGradient id="rg" gradientUnits="userSpaceOnUse" cx="220" cy="220" r="405">
    <stop style="stop-color:#fff;stop-opacity:.3" offset="0"/>
    <stop style="stop-color:#fff;stop-opacity:.2" offset=".2"/>
    <stop style="stop-color:#666;stop-opacity:.1" offset=".6"/>
    <stop style="stop-color:#000;stop-opacity:.13" offset="1"/>
  </radialGradient>
  <path id="shield" d="m2,2v257c0,286 298,398 298,398c0,0 298-112 298-398V2z"/>
</defs>
<use xlink:href="#shield" fill="#0aa"/>
<g id="seahorse" style="fill:#dddddd;stroke:#00aaaa;stroke-width:1;stroke-linecap:round;stroke-linejoin:round;">
    <path d="m 329.65541,355.4452 c 11.8816,1.53523 7.89875,19.76835 10.80663,26.32823 2.71769,0.88401 5.6877,1.77241 8.61871,1.62912 3.24294,-0.15855 7.92151,-2.89718 10.67429,-3.15988 3.69879,-0.35297 5.97848,0.86368 9.2232,-0.89494 2.65145,-1.43707 4.02702,-5.12683 6.64646,-7.01239 2.31073,-1.66334 6.742,-0.87737 8.82695,-3.07196 2.07317,-2.1822 2.35269,-6.53534 4.30399,-9.07112 1.44018,-1.87157 5.77702,-4.07461 7.07006,-6.10084 1.65953,-2.60053 1.74669,-7.73035 3.22351,-10.40021 1.29979,-2.34982 4.47673,-3.7407 5.56616,-6.1242 2.54796,-5.57455 0.88599,-8.1305 2.60155,-13.45714 1.2281,-3.81316 4.01107,-6.79031 4.09296,-11.21917 0.0819,-4.43018 -2.26819,-11.61238 -2.46941,-16.05826 -0.18951,-4.18722 1.60736,-8.35956 0.95479,-12.4759 -0.68009,-4.28986 -3.94959,-9.45719 -4.79038,-13.45467 -0.85659,-4.07252 0.86502,-9.14972 -0.23268,-12.66943 -1.79303,-5.74923 -3.09403,-10.08104 -6.18551,-12.20318 -15.39995,0.62068 -16.45435,8.4127 -31.64219,13.28622"/>
    <path style="fill:none;" d="m 351.73528,290.43321 c 15.94148,7.41826 31.88661,14.82562 49.64852,16.7826 m -45.10324,-25.87317 c 11.32618,3.70675 23.09289,7.28763 47.20106,7.34239 m -44.40396,-14.33514 c 11.61682,1.16302 22.89015,3.0989 38.11049,-3.84601 m -38.11049,-2.09783 c 11.92289,-1.05145 23.87615,-2.4065 36.71194,-12.58694 m -44.7536,44.40395 c 13.47662,8.6406 28.66771,12.81723 46.15214,29.36955 m -50.34779,-18.53079 c 13.32856,9.38695 26.66794,18.84961 40.90758,34.61411 m -47.20105,-24.12499 c 9.99635,9.58117 24.81389,16.2152 39.15939,40.90759 m -43.0054,-31.11774 c 9.34273,10.1458 17.95367,13.33958 29.0199,39.85867 m -37.76084,-31.817 c 8.51737,5.90054 16.3443,14.28672 23.42571,35.66302"/>
    <path d="m 336.49414,10.820312 c 0.23995,22.528016 -15.50405,35.860103 -24.34827,34.518172 -9.19374,-1.394963 -9.24795,-8.173422 -13.11914,-22.082032 -4.48321,11.602319 -5.24384,27.481721 -4.85708,36.706775 0.28169,6.719063 -6.54064,14.515144 -23.37476,16.444506 -5.28104,0.605262 -9.1566,-8.023467 -12.68554,-20.886718 -3.86826,16.550715 1.37097,21.843113 0.78323,26.771954 -0.6509,5.458554 -7.51074,5.109016 -11.90967,16.915125 -2.59915,6.975736 -9.60592,11.318936 -8.43014,16.621986 1.4413,6.50057 -1.97354,6.51987 -5.89648,10.31445 -8.59673,8.31544 -57.38141,15.4678 -57.54992,27.42699 -0.0908,6.44645 10.96547,12.29804 17.80257,8.53655 20.99307,-11.54954 31.71408,-7.44558 0.79023,0.77753 -5.25417,1.39716 -1.0588,8.39255 7.4404,5.16444 8.7588,-3.32671 43.40889,-17.51713 52.69836,-18.73754 5.08992,-0.66869 10.28153,0.77761 15.39649,0.33984 6.10667,-0.52265 11.92232,-3.28991 18.04687,-3.52343 12.7019,-0.48431 11.09081,-0.54018 37.87305,4.43945 -3.07777,-5.85036 1.71286,-8.25659 4.67578,-7.72656 2.66013,0.47587 9.09737,4.49726 1.5332,7.96093 -7.72722,3.53833 -18.63193,10.18473 -31.92845,15.94308 -11.02654,4.77528 -24.3155,8.32228 -33.20827,14.57255 -7.54728,5.3046 -10.03733,11.85101 -16.49014,18.00425 -6.18712,5.89988 -16.37624,11.31868 -21.77548,20.39614 -5.48948,9.22919 -3.17721,20.40421 -3.70165,31.4473 -0.51858,10.91984 -3.90965,21.6997 -2.95656,32.27536 0.97688,10.83966 6.59407,18.46434 9.97803,28.88024 3.21085,9.88307 4.1154,22.57481 7.84229,32.20569 4.11349,10.62992 11.21025,17.85261 16.48512,27.97448 4.35628,8.35923 6.8412,19.63896 10.93089,28.11732 5.81039,12.04555 15.16601,22.10687 21.72963,33.91906 6.65039,11.96835 10.4871,25.69471 12.98717,39.01258 2.3389,12.45932 6.45022,20.40792 7.2459,33.90129 0.49774,8.44085 -2.13935,21.26679 -4.32336,30.58528 -2.86855,12.23923 -3.35733,20.08942 -9.72528,28.33179 -5.90061,7.63748 -18.0212,11.58119 -27.4082,9.33789 -13.27254,-3.17187 -27.27095,-14.09331 -27.60483,-26.94818 -0.19124,-7.36314 7.52826,-16.80702 14.9892,-16.23566 4.69522,0.35955 10.91256,5.45146 10.77579,10.15845 -0.0888,3.05558 -4.63241,7.39664 -7.61254,6.71598 -4.04187,-0.92315 -5.99729,-7.01399 -2.40024,-10.86516 -1.9839,-1.34768 -3.50004,-1.50596 -4.56565,-0.92832 -1.11212,0.60284 -1.51936,2.19935 -2.33695,2.68392 -1.47889,0.87653 -2.22368,0.74666 -2.84491,2.25431 -0.44665,1.08398 0.23333,2.74707 0.0294,3.93154 -0.2017,1.17179 -1.22575,2.24344 -1.09355,3.39962 0.13986,1.22306 1.41052,1.9306 1.8156,3.0472 0.37689,1.03889 1.10112,2.96614 1.66113,3.74333 0.82541,1.14552 2.53728,1.63554 3.68192,2.37038 1.22661,0.78745 1.91186,1.78269 3.5757,1.88775 1.36464,0.0862 3.29409,-0.70204 4.74407,-0.82813 1.55965,-0.13562 3.13664,0.30224 4.66209,-0.15248 1.34143,-0.39986 2.40702,-1.8603 3.6492,-2.37248 1.41235,-0.58235 3.20807,-0.38655 4.32854,-1.1115 2.07953,-1.34549 1.92317,-2.76732 3.26183,-4.32412 0.6296,-0.73221 2.51217,-1.32908 2.90477,-2.36835 0.34071,-0.90191 0.0129,-3.31987 0.26394,-4.27807 0.34698,-1.32455 1.29371,-2.4693 1.34608,-3.91823 0.0359,-0.99405 -1.20512,-3.46104 -1.24446,-4.41901 -0.0647,-1.57552 1.19351,-2.80071 0.59903,-4.16212 -0.4432,-1.01494 -0.95423,-2.03689 -1.41472,-3.16501 -0.38634,-0.94645 0.12484,-2.72183 -0.46539,-3.57447 -0.59759,-0.86325 -2.22887,-1.20844 -2.90021,-2.02146 -0.71994,-0.87189 -0.88672,-2.41696 -1.7313,-3.13097 -0.81863,-0.69207 -2.53104,-0.34284 -3.39202,-0.92246 -1.36942,-0.9219 -1.34777,-2.58889 -2.71345,-3.08277 -1.11258,-0.40235 -2.73791,-0.39366 -3.91888,-0.88156 -0.98875,-0.40848 -2.01262,-1.96661 -3.09029,-2.1682 -1.37989,-0.25813 -3.28195,0.65755 -4.71413,0.49788 -1.46065,-0.16285 -2.8319,-1.32184 -4.36222,-1.23635 -1.01182,0.0565 -3.13044,1.0195 -4.12525,1.15825 -1.31444,0.18332 -3.09095,-0.64556 -4.3238,-0.25253 -1.2036,0.38369 -1.7535,1.72116 -2.87324,2.28592 -1.10135,0.55547 -3.65142,-0.78162 -4.6262,0.33163 -1.01862,1.16333 -0.83571,3.5502 -2.14038,4.53102 -1.14129,0.85801 -3.46413,0.20553 -4.42049,1.27286 -0.89368,0.99737 -0.54042,3.22639 -1.41022,4.16857 -0.97838,1.05979 -2.51905,0.31895 -3.36279,1.47956 -0.59943,0.82454 0.17291,2.39945 -0.40221,3.2347 -0.65025,0.94437 -2.37505,0.80106 -2.94256,1.79187 -0.60741,1.06047 -0.0706,2.75288 -0.61154,3.83415 -0.58033,1.16 -1.85062,1.84134 -2.32073,3.02636 -0.40749,1.02716 0.69847,2.91847 0.35282,3.93745 -0.55839,1.64612 -2.12382,1.94179 -2.45755,3.58977 -0.23313,1.15122 1.06401,2.54416 0.92735,3.67831 -0.20468,1.69869 -1.88199,2.27493 -1.80331,3.93734 0.0516,1.09113 3.24257,4.38496 3.39398,5.42515 0.30911,2.12368 -1.52454,2.46778 -0.43178,4.93377 0.73792,1.66519 2.62634,1.91268 3.25017,3.69253 0.49555,1.41385 -0.87991,3.41331 -0.13609,4.71328 0.85324,1.49119 3.71735,1.50669 4.60369,3.00327 0.95898,1.61921 -0.57505,4.18352 0.59648,5.68303 0.97521,1.24822 4.69613,-0.0929 5.71175,1.16868 0.89361,1.11006 0.21458,4.29636 1.1744,5.34883 0.88421,0.96957 3.87509,0.8149 4.76341,1.75859 1.53808,1.63395 -1.31706,3.28579 2.42253,6.65358 1.54584,1.39214 4.06344,-1.08293 5.68453,0.11738 1.55727,1.15305 2.02421,3.20965 3.61441,4.17771 1.77872,1.08283 3.93706,-2.35351 5.71616,-1.41618 1.90671,1.00456 2.09327,3.5096 4.00414,4.28788 2.10868,0.85884 4.45405,-1.97169 6.5185,-1.3308 1.79497,0.55722 1.96888,3.72891 3.72244,4.06687 1.88848,0.36395 3.38903,-3.83179 7.00682,-3.26953 2.18263,0.33921 2.48313,3.73451 4.59297,3.52381 1.91809,-0.19155 2.82371,-3.43581 4.57534,-3.48047 2.01651,-0.0514 2.26202,2.75326 4.1031,2.43969 2.72509,-0.46414 2.8511,-3.78265 5.45951,-4.18609 2.40132,-0.37141 3.88747,3.29597 6.12437,2.55696 2.02531,-0.66911 1.91611,-5.94636 3.84801,-6.6683 1.78231,-0.66604 3.63464,2.05114 5.28772,1.22483 2.46516,-1.23222 1.52837,-5.52182 3.82846,-6.91674 1.57126,-0.95291 3.57311,2.11131 6.1141,-0.32568 1.64244,-1.57521 -0.85376,-3.96468 2.03438,-5.67972 1.38883,-0.82472 3.1428,0.40054 4.41659,-0.45263 4.03848,-2.70491 1.87438,-7.80199 3.87405,-10.13116 1.81047,-2.10879 2.47989,0.52936 4.89118,-0.56901 3.6732,-1.67319 0.56749,-4.41949 1.23176,-7.77713 0.43589,-2.20333 3.35537,-1.46049 4.61814,-2.95879 2.2791,-2.70418 -0.45576,-6.59916 0.79203,-9.69822 0.77728,-1.93048 3.42823,-0.44675 3.93945,-2.43038 0.88753,-3.44385 -2.53609,-7.23385 -1.57639,-10.38485 0.87736,-2.88067 3.99715,-1.8622 4.62214,-4.80048 0.81958,-3.85317 -1.13495,-7.05225 -0.41707,-10.68952 0.57807,-2.92891 3.16714,-1.42028 3.54903,-4.34057 0.60779,-4.64776 -3.32353,-2.81265 -2.29688,-13.75715 0.33933,-3.61733 5.43563,-1.7608 5.5886,-5.24562 0.18992,-4.32687 -5.8038,-6.28916 -5.72118,-10.35104 0.0519,-2.54957 4.4238,-0.52076 4.37457,-2.99023 -0.15255,-7.65087 -5.83919,-8.49199 -6.56884,-17.63655 -0.24942,-3.12579 4.339,-0.45893 4.2094,-3.49592 -0.18841,-4.41505 -5.40581,-5.01718 -5.46761,-14.33981 -0.0496,-7.4816 8.71329,-1.56713 3.60295,-8.45242 -6.192,-8.34264 -6.76166,-3.72024 -9.36597,-17.33743 -0.8279,-4.32885 7.1144,-3.01774 5.27565,-7.71607 -1.54635,-3.9512 -8.18621,-3.63762 -9.60622,-15.3077 -0.45857,-3.7687 8.60098,-3.58831 3.03997,-9.49956 -14.45923,-15.36988 3.00282,-9.27287 -4.79937,-16.67694 -4.56905,-4.3359 -4.41542,-10.21186 0.67481,-11.45996 1.37253,-0.33654 2.99034,-5.57882 -3.29635,-7.46598 -6.64719,-1.99539 1.98399,-15.86479 7.14128,-19.70727 3.93734,-2.93355 6.39486,-2.16217 7.58103,-4.9985 1.07737,-2.5762 -2.11746,-5.01839 -1.59562,-8.62502 0.96577,-6.67475 7.94342,-13.50105 10.21103,-14.435 3.28381,-1.3525 5.62937,-2.35832 3.53112,-5.72093 -1.67426,-2.68313 -5.16128,-7.74494 -2.47767,-13.06954 2.31895,-4.60108 3.60658,-8.91135 7.56935,-9.5353 7.19759,-1.13329 4.23161,-6.97726 1.44809,-9.99636 -1.94657,-2.11132 -0.75586,-8.88358 3.32158,-9.85015 3.03391,-0.71919 5.59553,-2.73144 2.84707,-6.74575 -3.36147,-4.90964 8.86523,-12.85452 14.31725,-12.95553 8.5727,-0.15883 7.25913,-4.43339 4.79897,-8.23947 -2.62287,-4.05781 1.9806,-14.32373 6.16946,-14.00932 5.99282,0.44981 6.56479,-5.52583 4.97768,-7.71918 -3.71825,-5.13853 1.42633,-18.70337 6.27318,-18.73382 7.43558,-0.0467 5.08873,-6.09512 1.69702,-10.95452 -3.79978,-5.44404 -1.44036,-19.54 3.13812,-20.69198 3.41655,-0.85963 5.474,-4.0536 4.14117,-6.55002 -2.49207,-4.6677 -5.5659,-2.36543 -7.4775,-8.96336 -1.83732,-6.34157 4.6181,-10.77252 8.61438,-8.81335 4.67738,2.29308 11.22136,3.69264 17.98464,-3.31018 -3.88135,2.10314 -9.5987,2.40009 -13.75067,0.68742 -5.80108,-2.39291 -8.82902,-5.66252 -12.80739,-8.74265 -7.19222,-5.56833 -4.06132,-9.71197 -10.91791,-14.96577 2.1798,-2.94182 1.49024,-5.45139 -0.19336,-8.74219 -2.78324,-5.44019 -6.28845,-2.06915 -5.82422,-10.531246 0.34786,-6.340853 15.1185,-4.735646 23.16015,-13.126953 -11.55286,3.15166 -30.44971,7.321126 -42.94921,-3.990234 2.91618,-0.764804 5.62187,-4.905345 -0.69922,-6.677735 -15.4664,-4.336659 -26.92946,-12.118313 -30.88305,-21.532291 -2.16004,-5.143332 0.92271,-12.856003 2.02,-23.202705 0.54903,-5.177012 -0.1111,-12.448748 -6.42796,-15.575554 z"/>
    <path d="m 345.02782,99.034591 c 10.0029,-5.474924 15.22808,-15.899849 22.67554,-15.880831 2.2329,1.082846 1.9839,3.448372 2.9682,5.668869 0.82177,1.853843 3.92333,5.406671 4.70735,7.53305 1.86623,5.061521 -0.33943,3.718541 -0.24674,10.670621 0.0656,4.91891 3.53708,5.41989 0.44746,11.37844 -1.29841,2.50408 -3.66934,3.58669 -4.72839,6.23213 -1.64299,4.1041 -3.48745,6.88547 -7.96581,8.51388 -6.75036,-2.5029 -7.95616,-10.30072 -18.1288,-11.84746"/>
    <path style="fill:none;" d="m 345.87619,115.59731 c 4.95376,1.41925 10.24437,3.51222 17.80063,10.13648 m -17.80063,-14.83387 c 6.76854,0.0494 14.33796,0.69941 23.73418,2.71954 m -24.22864,-6.42801 c 8.14291,-1.53437 16.42077,-3.33864 25.21756,-6.18077 m -25.21756,2.22508 c 8.29482,-3.310723 14.85626,-7.488143 20.52017,-12.114321"/>
    <path d="m 329.83012,142.8418 c 10.02398,-2.77985 29.82849,-23.10898 12.33761,-51.225898"/>
    <g id="eye">
        <path style="fill:#ffffff;" d="m 262.22178,121.10815 c 3.38504,4.02982 14.50732,6.6089 21.76099,1.28954 7.25366,-5.48054 7.57605,-17.0864 4.51339,-21.4386 -3.54624,-4.352201 -8.7044,1.12834 -15.79687,6.60889 -7.09247,5.64174 -13.70137,9.02678 -10.47751,13.54017 z"/>
        <path style="fill:#333333;stroke:none;" d="m 271.24856,119.01265 a 7.4084091,7.0973075 58.58 0 0 9.99394,2.74027 7.4084091,7.0973075 58.58 0 0 2.0955,-9.99393 7.4084091,7.0973075 58.58 0 0 -9.99394,-2.74028 7.4084091,7.0973075 58.58 0 0 -2.0955,9.99394 z"/>
        <path style="fill:#000000;stroke:none;" d="m 275.76195,112.08137 c 1.28954,-0.80596 3.70743,-0.64477 4.67458,1.12835 1.12835,2.0955 0.32239,4.19101 -1.12835,4.99697 -1.77311,1.12835 -4.02981,0.96715 -5.15816,-0.96716 -1.12834,-1.77311 -0.32238,-4.02981 1.61193,-5.15816 z"/>
        <path style="fill:#ffffff;stroke:none;" d="m 273.34406,112.56495 c 0.96716,-0.64477 2.57908,-0.32239 3.38504,0.96716 0.80597,1.28954 0.1612,2.74027 -0.80596,3.22385 -1.28954,0.80596 -2.74027,0.64477 -3.70743,-0.80597 -0.64477,-1.12834 -0.16119,-2.74027 1.12835,-3.38504 z"/>
    </g>
</g>
<use id="shine" xlink:href="#shield" fill="url(#rg)" stroke="#000" stroke-width="3"/>
</svg>
