<?xml version="1.0" encoding="UTF-8" standalone="no"?>
<svg xmlns:svg="http://www.w3.org/2000/svg" xmlns="http://www.w3.org/2000/svg" xmlns:xlink="http://www.w3.org/1999/xlink" version="1.1" height="660" width="600">
    <style type="text/css" id="style_css_sheet">
.wolf {
  fill:#ffffff;stroke:#666666;stroke-width:1;
}
.detail {
  fill:none;
}
.langued {
  fill:#cc0000;stroke:none;
}
.armed, .nose {
  fill:#000000;stroke:#000000;
}
</style>
    <defs>
        <radialGradient r="405" cy="220" cx="220" gradientUnits="userSpaceOnUse" id="rg">
            <stop id="stop3" offset="0" style="stop-color:#fff;stop-opacity:.3" />
            <stop id="stop5" offset="0.2" style="stop-color:#fff;stop-opacity:.2" />
            <stop id="stop7" offset="0.6" style="stop-color:#666;stop-opacity:.1" />
            <stop id="stop9" offset="1" style="stop-color:#000;stop-opacity:.13" />
        </radialGradient>
        <path d="m 2 2 v 257 c 0 286 298 398 298 398 c 0 0 298 -112 298 -398 V 2 Z" id="shield" />
        <g id="wolf" class="wolf" transform="scale(1.15)">
            <path id="right-ear" d="m -17.535243,-16.104359 c -0.04525,-4.502384 -1.334951,-7.879171 -0.86885,-9.27491 0.638061,-1.891 1.185618,-2.791479 2.253578,-2.746454 1.067966,0.04502 2.434594,0.855454 4.063687,1.98105 2.3983895,1.665882 4.4347593,3.106644 6.1543559,7.023717" />
            <path class="langued" d="m -40.034848,14.151659 c 0,0 0.638063,1.260667 1.520489,1.575834 1.113214,0.405215 2.520571,0.495262 4.117989,-0.13507 2.506994,-1.035549 4.534312,-2.791479 8.136422,-4.54741 3.588533,-1.7559279 7.367125,-3.3317638 12.136753,-3.3317638 l -2.674431,-2.4312844 c -2.914268,-0.180096 -6.24486,0.9905218 -10.444305,3.6469284 -2.629177,1.6658828 -5.756134,3.6469318 -8.394362,5.2227658 -0.737617,0.450237 -1.334952,0.450237 -2.140449,0.540286 -0.96388,0.135072 -2.258106,-0.540286 -2.258106,-0.540286 z" />
            <path class="armed" d="m -35.545787,10.05449 c 0.235313,0.855454 1.384729,1.936024 2.466268,2.296215 -0.488728,-0.990524 -0.583759,-1.350714 -0.470628,-2.656407"/>
            <path class="armed" d="m -30.943595,16.042661 c -0.796446,-0.585311 -1.077012,-1.440765 -1.162991,-2.56636 0.796446,1.035548 1.570265,1.800953 2.79661,1.981049"/>
            <path d="m -1.0480157,-23.879939 c -2.4424929,0.03737 -4.6127639,0.740431 -5.9703403,1.021831 -5.249306,0.04502 -12.291003,3.106468 -17.142085,9.274733 -1.420931,1.800954 -3.416393,5.5382828 -4.683469,7.3392373 -1.267072,1.8009528 -6.547879,4.7273268 -8.30368,5.44770725 -1.724125,0.67535773 -3.10461,2.07092195 -4.588896,3.19651705 -0.60186,0.4502391 -1.343827,0.8109562 -1.74205,1.4412895 -0.393697,0.6303334 1.647336,2.2058162 2.294449,3.2413659 0.61996,0.9905235 2.610972,3.016948 5.77413,3.061971 3.163159,0.09005 7.117886,-1.6664085 10.837651,-3.2422426 3.715239,-1.5758342 4.028117,-1.2151187 6.308849,-0.1345447 2.307884,1.0805724 -2.648019,4.0071223 -5.625643,5.8530973 -2.769462,1.710906 -6.294215,2.70108 -7.936884,3.466486 -1.678873,0.810428 -0.07711,1.530986 0.723865,2.206344 0.85075,0.72038 2.344122,0.720203 3.995843,0.269965 1.669821,-0.495261 9.028251,-5.672476 11.788661,-6.21276 2.77851,-0.585311 3.095207,-0.450415 5.131575,0.720204 2.036368,1.17062 3.348341,1.395389 4.8416755,2.566007 2.8580803,2.241448 3.5208391,6.272546 5.88019089,9.950972 l 0.002716,-0.001 c 0.001799,0.0041 0.005245,0.01262 0.007061,0.0167 0.81422551,1.26648 1.82766301,2.490651 3.20569041,3.585198 0.1268895,0.09972 0.2566797,0.196713 0.3844722,0.295469 0.4518438,-1.296164 0.6075622,-2.727296 -0.1582083,-4.301889 1.9458639,-0.04502 2.9419514,0.899951 4.1637716,1.710381 1.0860639,-1.665882 1.5833125,-3.511859 -0.3172976,-6.07822 3.4844513,-0.765403 4.2542733,0.765758 5.9738733,1.486138 0.452528,-1.575832 0.271163,-3.287265 -1.041163,-5.043195 2.715158,-0.540288 3.620034,0.135247 5.47539,1.530987 0.09051,-1.891003 -0.271338,-4.411987 -1.628917,-5.717678 2.850916,-1.035546 4.435111,0.584784 6.924003,1.710379 0.135758,-1.75593 -1.266896,-4.142015 -2.760232,-5.8979464 2.488894,-0.9455008 5.203346,1.0805724 6.515671,1.8009524 -0.36202,-2.2511898 -1.945862,-4.0973443 -2.262632,-6.0333687 1.629096,0.9455008 4.887639,1.8463302 6.245217,1.4861383 -1.855357,-1.5758341 -2.30753,-3.421987 -2.126519,-4.907774 0.90505,1.1255967 3.66546,1.5758358 5.20405,1.1255967 -0.995556,-1.1255967 -1.90061,-2.29621624 -1.58384,-4.0521447 2.669904,1.21564228 4.027129,1.1254195 5.520465,1.17044222 2.307884,0.0450261 3.755792,-0.13454461 5.249128,0.0905758 -1.674348,-2.20616752 -5.430314,-1.48631402 -8.597998,-5.04319692 1.40283,-0.2251187 5.068645,0.5856602 6.471475,0.3605432 -3.48445,-1.7559301 -8.914588,-5.1773899 -13.394598,-5.4925559 1.583842,-0.945503 3.348343,-0.900831 5.067941,-1.035901 -2.986672,-1.440763 -8.009714,-2.701607 -12.670733,-2.656582 1.53859,-0.810429 3.98223,-0.945325 4.751523,-1.170444 -2.669903,-1.891002 -7.3311,-1.215995 -10.136762,-1.035899 1.04081,-1.530812 3.711244,-1.530285 5.068824,-1.935499 -3.846474,-1.755929 -8.100573,-1.80148 -13.0331074,-0.540814 0.04525,-0.585307 1.5838404,-1.440409 3.8464704,-2.340887 -2.4436401,-0.81043 -4.6155897,-1.39609 -9.7743881,0.539935 0.8598,-1.575835 1.4928066,-1.935322 2.3978604,-2.205467 -1.5442454,-0.69224 -3.10749397,-0.90971 -4.5729907,-0.887283 z" />
            <path class="detail" d="m -10.955512,6.0923941 c 2.2626315,-0.6303367 4.5252618,-0.3151692 6.0638517,0.6303316 0.1810084,-0.9905236 -1.0860639,-2.1611431 -2.3531361,-2.6113821 1.583842,-0.4052147 3.1676841,0 5.1587984,0.7654065 0.090506,-0.9004764 -0.4525261,-2.0260732 -1.131316,-2.5663593 1.3575798,-0.5402862 2.66990422,-0.2701431 4.2537463,0 -0.271516,-1.1706212 -0.90505045,-1.53081146 -2.03636644,-1.98104882 1.62909245,-0.45023905 3.07717824,-0.0900488 4.61576814,0.81042762 -0.6335395,-1.21564226 -0.9050538,-2.11612036 -2.3531379,-2.8365008 1.3575782,-0.2701431 2.669906,-0.180096 4.0274825,0.2251187 -0.5882841,-1.4407609 -2.7151581,-2.0260715 -4.0727345,-2.2061675 0.995558,-0.3601919 3.2581882,-0.3601919 4.2989983,-0.3151658 -0.9050521,-1.4407626 -2.0816202,-2.9715723 -4.0274841,-3.6469318" />
            <path d="m -2.357514,-10.25126 c 0.6335378,-2.11612 0.3620219,-7.338886 -0.3167681,-9.27491 -1.4933361,-4.45736 -2.6699042,-6.078216 -4.3442522,-8.059267 -1.4028319,-1.620859 -2.9414202,-3.466836 -4.8420287,0.36019 -1.17657,2.476313 -1.17657,5.267791 -1.221822,7.83415" />
            <path class="detail" d="m -8.9643965,-24.793959 c 0.8597983,1.395738 1.1313143,3.196693 0.6335362,5.627981 0.724042,-0.04503 1.448084,-1.125595 3.0771799,-0.495264 -1.5838438,1.035548 -2.0363698,2.386265 -2.1268757,3.872051 1.1313177,-0.585311 1.8101059,-0.540287 2.2173799,-0.225119 -0.9050522,0.945501 -1.53859,1.936024 -0.814548,3.196691" />
            <g id="eye" style="stroke:none;">
                <path style="fill:#ffffff;stroke:#666666;" d="m -24.458894,-4.3981605 c 0.348445,0.855452 2.221904,1.8009529 3.647361,1.215644 1.497861,-0.5402879 1.977541,-2.4763123 1.579317,-3.3317643 -0.402749,-0.855452 -1.520488,-0.2251204 -2.995724,0.3601902 -1.420932,0.5853106 -2.706108,0.9004765 -2.230954,1.7559301 z" />
                <path style="fill:#111111;" d="m -26.237323,-5.56878 c -0.633536,-0.045024 -0.674264,-0.3151692 -0.674264,-0.3151692 l -0.162909,-0.4052146 0.429901,0.045026 v 0 0 c 0,0 1.597417,0.1800943 3.964127,-0.4052146 1.004611,-0.3151658 2.20833,-1.1706195 3.321544,-1.6208586 0.592809,-0.1800959 1.185618,-0.3601902 1.733175,-0.090047 0.552082,0.2701431 0.991033,0.8104276 1.312328,1.7109057 -0.484205,0.045023 -0.737619,-0.7203805 -1.561215,-1.1255951 -0.29867,-0.180096 -0.683317,-0.090049 -1.199197,0.090047 -1.009133,0.3601902 -2.190226,1.2606666 -3.398471,1.6208569 -2.240005,0.5853089 -3.18126,0.5853089 -3.765019,0.4952635 z" />
                <path style="fill:#333333;" d="m -23.504064,-4.3081116 a 1.32802,1.2172456 51.463607 0 0 1.647196,0.9454991 1.32802,1.2172456 51.463607 0 0 0.746669,-1.6208586 1.32802,1.2172456 51.463607 0 0 -1.620046,-0.9004781 1.32802,1.2172456 51.463607 0 0 -0.773819,1.5758376 z" />
                <path style="fill:#000000;" d="m -22.58091,-5.163567 c 0.280564,0 0.683315,0.1350715 0.773819,0.4952635 0.140283,0.3601919 -0.04978,0.6753577 -0.384647,0.7203804 -0.334868,0.1350716 -0.710467,-0.090049 -0.850748,-0.3601885 -0.09051,-0.3601919 0.126704,-0.7203839 0.461576,-0.8554554 z" />
                <path style="fill:#ffffff;" d="m -22.961032,-5.2085897 c 0.208162,-0.090049 0.484203,0.045023 0.574707,0.3151658 0.09503,0.2701431 -0.06788,0.450239 -0.298666,0.5402862 -0.208161,0.090049 -0.457051,-0.090047 -0.574709,-0.3151658 -0.0905,-0.2701448 0.09503,-0.4952635 0.298668,-0.5402862 z" />
            </g>
            <path class="nose" d="m -41.560983,2.2203436 c 0.588284,-0.2701448 1.425457,-0.1800959 1.624569,1.035548 0.194586,1.2156422 -0.475153,2.8365025 -1.267073,3.1516683 -0.629012,0.2251187 -1.488812,-0.5402879 -2.158551,-1.3957399 -0.384647,-0.4952618 -0.701415,-1.1255951 -0.0543,-1.6658813 0.995558,-0.8104293 0.986508,-0.7203804 1.855358,-1.1255951 z" />
        </g>
    </defs>
    <use style="fill:#666666" xlink:href="#shield" />
    <path id="bordure" style="fill:#000000;" d="M 2 2 L 2 259 C 2 545 300 657 300 657 C 300 657 598 545 598 259 L 598 2 L 2 2 z M 100 100 L 500 100 L 500 259 C 500 424.40588 365.1074 515.01826 300 549.1543 C 234.8926 515.01826 100 424.40588 100 259 L 100 100 z" />
    <use xlink:href="#wolf" x="159" y="160"/>
    <use xlink:href="#wolf" x="253" y="160"/>
    <use xlink:href="#wolf" x="347" y="160"/>
    <use xlink:href="#wolf" x="441" y="160"/>
    
    <use xlink:href="#wolf" x="206" y="260"/>
    <use xlink:href="#wolf" x="300" y="260"/>
    <use xlink:href="#wolf" x="394" y="260"/>
    
    <use xlink:href="#wolf" x="253" y="360"/>
    <use xlink:href="#wolf" x="347" y="360"/>
    
    <use xlink:href="#wolf" x="300" y="460"/>
    <use xlink:href="#shield" stroke-width="3" stroke="#000" fill="url(#rg)" id="shine" />
</svg>
