<svg xmlns="http://www.w3.org/2000/svg" width="600" height="660" xmlns:xlink="http://www.w3.org/1999/xlink">
<defs>
  <radialGradient id="rg" gradientUnits="userSpaceOnUse" cx="220" cy="220" r="405">
    <stop style="stop-color:#fff;stop-opacity:.3" offset="0" />
    <stop style="stop-color:#fff;stop-opacity:.2" offset="0.2" />
    <stop style="stop-color:#666;stop-opacity:.1" offset="0.6" />
    <stop style="stop-color:#000;stop-opacity:.13" offset="1" />
  </radialGradient>
  <clipPath id="clip-shield">
    <path id="shield" d="m 2 2 v 257 c 0 286 298 398 298 398 c 0 0 298 -112 298 -398 V 2 Z" />
  </clipPath>
  <linearGradient id="grad1" x1="0%" y1="0%" x2="100%" y2="0%">
    <stop style="stop-color:#210;" offset="0%" />
    <stop style="stop-color:#631;" offset="33%" />
    <stop style="stop-color:#210;" offset="100%" />
  </linearGradient>
</defs>
<use id="background" fill="#00c" xlink:href="#shield" />
<path fill="#999" d="m 500,2 v 98 h -100 v -98 z m -69.79883,444.5332 65.04883,73.73633 c -28.95863,32.16966 -60.49308,58.14548 -89.61719,78.47461 l -36.46679,-93.92187 c 20.64518,-15.97857 41.85395,-35.33163 61.03515,-58.28907 z m 67.60547,-151.68359 97.30664,12.0332 c -5.178,42.42263 -17.04879,80.51524 -33.20898,114.52539 l -86.74805,-45.8164 c 10.9838,-24.30301 19.005,-51.17887 22.65039,-80.74219 z m 100.19336,-194.84961 v 100 h -98 v -100 z m -398,-98 v 98 h 100 v -98 z m 30.83398,502.82227 -36.46679,93.92187 c 57.53921,40.16336 105.63281,58.25586 105.63281,58.25586 v -107.8457 c -18.85787,-9.8873 -43.57248,-24.52364 -69.16602,-44.33203 z m -105.99023,-129.23047 -86.748047,45.8164 c 18.012266,37.90796 41.343952,70.74448 66.654297,98.86133 l 65.04883,-73.73633 c -17.27034,-20.67037 -32.8934,-44.25346 -44.95508,-70.9414 z m -122.84375,-373.5918 v 98 h 98 v -98 z m 0,198 v 59 c 0,16.54136 1.0083422,32.49356 2.8867188,47.88281 l 97.3066412,-12.0332 c -1.42294,-11.53974 -2.19336,-23.4811 -2.19336,-35.84961 v -59 z" />
<path fill="#fff" d="m 400,2 v 98 h -100 v -98 z m -30.83398,502.82227 36.46679,93.92187 c -57.53921,40.16336 -105.63281,58.25586 -105.63281,58.25586 v -107.8457 c 18.85787,-9.8873 43.57248,-24.52364 69.16602,-44.33203 z m 105.99023,-129.23047 86.74805,45.8164 c -18.01227,37.90796 -41.34396,70.74448 -66.6543,98.86133 l -65.04883,-73.73633 c 17.27034,-20.67037 32.8934,-44.25346 44.95508,-70.9414 z m 122.84375,-373.5918 v 98 h -98 v -98 z m 0,198 v 59 c 0,16.54136 -1.00834,32.49356 -2.88672,47.88281 l -97.30664,-12.0332 c 1.42294,-11.53974 2.19336,-23.4811 2.19336,-35.84961 v -59 z m -498,-198 v 98 h 100 v -98 z m 69.79883,444.5332 -65.04883,73.73633 c 28.95863,32.16966 60.49308,58.14548 89.61719,78.47461 l 36.46679,-93.92187 c -20.64518,-15.97857 -41.85395,-35.33163 -61.03515,-58.28907 z m -67.60547,-151.68359 -97.3066412,12.0332 c 5.1780062,42.42263 17.0487892,80.51524 33.2089842,114.52539 l 86.748047,-45.8164 c -10.9838,-24.30301 -19.005,-51.17887 -22.65039,-80.74219 z m -100.19336,-194.84961 v 100 h 98 v -100 z" />
<g id="bucket" transform="translate(205 300) scale(0.5)">
  <path fill="url(#grad1)" stroke="#000" stroke-dasharray="none" stroke-linecap="round" stroke-linejoin="round" stroke-miterlimit="4" stroke-width="2" d="m 91.045 137.29 l 13.277 0.2371 c 7.1919 -14.276 13.91 -30.264 20.865 -50.027 c 7.2934 -20.726 28.407 -38.478 62.594 -37.936 c 34.186 0.54281 51.517 16.775 60.697 36.987 l 25.844 55.955 l 10.195 0.94839 l 0.94839 -9.2468 c -9.21 -17.32 -15.85 -39.622 -28.44 -60.936 c -12.82 -21.706 -36.4 -35.878 -68.52 -36.75 c -32.12 -0.873 -68.96 18.814 -79.19 58.563 c -4.46 17.333 -10.668 25.943 -17.543 35.323 c -8.1412 -3.3377 -4.8682 2.34 -0.71129 6.8758 Z" />
  <path fill="url(#grad1)" stroke="#000" stroke-dasharray="none" stroke-linecap="round" stroke-linejoin="round" stroke-miterlimit="4" stroke-width="2" d="m 87.616 129.7 l 4.4354 7.6446 c 3.9324 1.633 7.8649 1.7225 11.797 1.128 c 21.892 -4.1097 57.831 -8.0513 84.407 -8.2984 c 29.982 -0.27875 71.087 6.2969 93.44 17.874 c 1.5159 -5.6665 1.9829 -10.998 5.1923 -14.317 c 8.0397 -5.0689 5.5546 2.0445 1.741 11.34 c 0.95003 -0.16429 13.571 -1.1385 14.006 1.9712 c 0.54924 3.9329 -4.0578 4.7544 -9.1079 6.1477 c -0.83917 10.252 -1.5423 19.154 -5.4532 22.033 c -3.9311 23.942 -6.2417 44.472 -11.381 69.232 c -0.96298 12.314 0.0638 26.619 -8.0613 31.771 l -9.9581 58.326 c 3.5343 37.882 -54.742 37.63 -77.294 37.224 c -20.986 -0.37719 -62.699 1.5771 -64.727 -36.276 l -7.8242 -59.748 c -6.9691 -9.1093 -8.6562 -20.463 -6.4016 -29.637 l -9.9581 -75.634 c -15.778 -5.9356 -8.1552 -18.557 -7.5871 -29.163 c -4.086 0.22429 -13.793 3.9393 -13.515 -0.2371 c -0.96907 -8.1631 15.36 -5.2832 12.639 -10.059 c -2.8861 -5.0656 2.1439 -6.0094 3.6102 -1.3221 Z" />
  <path fill="#000" d="m 123.48 148.19 s 37.149 -4.9332 63.268 -5.0266 c 31.684 -0.11324 68.192 8.1536 68.192 8.1536 c -1.8752 -6.2568 -0.97886 -9.1281 3.5656 -13.058 c 11.201 0.54039 21.303 4.6118 24.736 5.4281 c 5.4759 32.884 -84.034 27.064 -112.64 26.559 c -24.692 -0.43607 -81.116 1.597 -80.014 -32.547 c 10.311 0.63028 25.027 0.0333 33.775 -2.0644 c -4.6993 8.7488 -1.1444 6.3983 -0.88083 12.555 Z" />
  <path fill="#000" transform="translate(3.675 97.4468)" d="m 112.38 169.06 c 0 1.1785 -1.0084 2.1339 -2.2524 2.1339 s -2.2524 -0.95536 -2.2524 -2.1339 s 1.0084 -2.1339 2.2524 -2.1339 s 2.2524 0.95537 2.2524 2.1339 Z m 25.132 9.2468 c 0 1.1785 -1.0084 2.1339 -2.2524 2.1339 s -2.2524 -0.95536 -2.2524 -2.1339 s 1.0084 -2.1339 2.2524 -2.1339 s 2.2524 0.95537 2.2524 2.1339 Z m 29.874 5.6903 c 0 1.1785 -1.0084 2.1339 -2.2524 2.1339 s -2.2524 -0.95536 -2.2524 -2.1339 s 1.0084 -2.1339 2.2524 -2.1339 s 2.2524 0.95537 2.2524 2.1339 Z m 34.853 -1.4226 c 0 1.1785 -1.0084 2.1339 -2.2524 2.1339 s -2.2524 -0.95536 -2.2524 -2.1339 s 1.0084 -2.1339 2.2524 -2.1339 s 2.2524 0.95537 2.2524 2.1339 Z m 25.844 -4.5048 c 0 1.1785 -1.0084 2.1339 -2.2524 2.1339 s -2.2524 -0.95536 -2.2524 -2.1339 s 1.0084 -2.1339 2.2524 -2.1339 s 2.2524 0.95537 2.2524 2.1339 Z m 24.421 -6.4016 c 0 1.1785 -1.0084 2.1339 -2.2524 2.1339 s -2.2524 -0.95536 -2.2524 -2.1339 s 1.0084 -2.1339 2.2524 -2.1339 s 2.2524 0.95537 2.2524 2.1339 Z m 10.906 -98.869 c 0 1.1785 -1.0084 2.1339 -2.2524 2.1339 s -2.2524 -0.95536 -2.2524 -2.1339 s 1.0084 -2.1339 2.2524 -2.1339 s 2.2524 0.95537 2.2524 2.1339 Z m -22.761 4.5048 c 0 1.1785 -1.0084 2.1339 -2.2524 2.1339 s -2.2524 -0.95536 -2.2524 -2.1339 s 1.0084 -2.1339 2.2524 -2.1339 s 2.2524 0.95537 2.2524 2.1339 Z m -32.008 3.7936 c 0 1.1785 -1.0084 2.1339 -2.2524 2.1339 s -2.2524 -0.95536 -2.2524 -2.1339 s 1.0084 -2.1339 2.2524 -2.1339 s 2.2524 0.95537 2.2524 2.1339 Z m -34.853 -0.71129 c 0 1.1785 -1.0084 2.1339 -2.2524 2.1339 s -2.2524 -0.95536 -2.2524 -2.1339 s 1.0084 -2.1339 2.2524 -2.1339 s 2.2524 0.95537 2.2524 2.1339 Z m -36.513 -2.6081 c 0 1.1785 -1.0084 2.1339 -2.2524 2.1339 s -2.2524 -0.95536 -2.2524 -2.1339 s 1.0084 -2.1339 2.2524 -2.1339 s 2.2524 0.95537 2.2524 2.1339 Z m -28.57 -6.1645 c 0 1.1785 -1.0084 2.1339 -2.2524 2.1339 s -2.2524 -0.95536 -2.2524 -2.1339 s 1.0084 -2.1339 2.2524 -2.1339 s 2.2524 0.95537 2.2524 2.1339 Z" />
  <path fill="none" stroke="#000" stroke-dasharray="none" stroke-linecap="round" stroke-linejoin="round" stroke-miterlimit="4" stroke-width="2" d="m 243.17 63.79 c 16.236 19.8 25.629 57.122 36.039 68.995 m -191.83 18.14 c 2.9772 1.8177 4.8067 4.821 5.4532 8.2984 m -8.4373 -27.405 c 0.93922 3.1659 1.8645 7.7638 0.17957 11.033 m 204.15 2.2405 c -0.22736 1.8073 -0.68109 8.6978 5.7955 8.041 m -14.144 -0.78568 c -4.9882 6.4852 -3.6582 18.821 -4.0306 24.184 m -147.48 -41.01 c -1.6688 3.8772 -1.2872 9.3372 -0.94838 12.803 m -28.342 8.1798 c -2.6172 6.4852 -1.2872 10.997 -1.6597 16.36 m 20.39 164.07 c 40.076 30.786 110.6 16.938 139.41 -1.8968 m -149.37 -59.74 c 54.529 26.979 135.36 15.968 164.07 -4.0306 m -168.57 -22.05 c 41.59 30.649 130.24 24.872 172.37 -2.8452 m -35.327 38.647 l -6.4016 60.223 m -21.339 -55.244 l -1.4226 61.645 m -23.236 -59.986 l 0.71129 63.068 m -27.503 -63.305 l 1.8968 61.645 m -29.637 -67.098 l 4.5048 61.645 m -16.12 -164.06 l 8.0613 77.768 m 124.48 -78.479 l -9.4839 76.819 m -22.998 -71.603 l -4.7419 78.479 m -29.4 -76.108 l 0 78.716 m -33.431 -79.665 l 4.0306 78.242 m -65.444 -95.79 c 48.264 24.4 122.07 21.47 194.18 3.55" />
  <path fill="none" stroke="#000" stroke-dasharray="none" stroke-linecap="round" stroke-linejoin="round" stroke-miterlimit="4" stroke-width="1" d="m 157.2 290.45 c 0.83713 4.8824 1.741 11.862 4.2678 19.205 m -7.8242 -18.731 c 0.26833 6.923 1.1926 14.283 5.2161 23.71 m -9.9581 6.8758 c 0.30339 3.972 0.5972 7.9297 2.1339 13.752 m -16.123 -42.203 c 1.8177 11.574 4.5839 18.253 6.4016 25.132 m -9.9581 4.7419 c 1.0313 5.698 3.2391 13.749 6.1645 23.236 m -7.1129 -53.584 c 0.35704 7.6585 2.4095 15.656 5.9274 23.947 m 100.05 -27.74 c -0.2197 3.0206 -0.35766 6.123 -1.1855 8.5355 m -9.0097 20.153 c 0.21658 2.7866 -0.62633 6.6328 -1.6597 10.669 m 4.979 -37.698 c -0.14327 8.2711 -0.96332 14.174 -2.371 18.019 m 3.7935 13.277 c -0.73062 8.4195 -1.7198 15.287 -3.0822 19.916 m 45.048 -128.27 c 0.33651 5.5662 -0.33668 9.4496 -1.8968 11.855 m 1.8968 -39.595 c -0.81158 12.227 -1.3929 24.991 -4.0306 32.956 m -1.8968 6.6387 c 0.95733 6.5668 2.5308 13.627 0.47421 17.782 m -30.11 -52.42 c -1.9758 16.889 -3.9516 24.912 -5.9274 36.75 m 7.5871 21.576 c -0.79032 5.5179 -1.5806 10.642 -2.371 13.04 m -87.252 -6.8758 c 0.39516 2.1352 0.79033 2.2444 1.1855 6.6387 m -51.453 -68.29 c 1.3095 3.9687 3.3776 7.558 3.5565 12.092 m 1.6597 4.979 c 0.32995 3.0496 0.16135 5.85 1.6597 9.4839 m -1.6597 4.0307 c 0.46777 4.571 0.8246 8.9202 1.8968 14.7 m 38.41 -47.656 l 1.4226 9.4839 m -26.318 18.494 c 0.88549 9.9994 1.2981 19.715 5.2161 31.534 m -11.144 -64.253 c 1.3332 11.037 3.0137 20.338 4.979 28.215 m 158.85 -32.245 l -1.6597 30.348 m -13.04 -30.348 c 2.0622 15.189 1.8674 25.864 2.1339 37.461 m 3.3194 -37.936 c 0.192 6.7968 1.4264 13.594 -0.71128 20.39 m -4.2678 29.874 c -0.71128 7.3248 -1.4226 10.827 -2.1339 14.463 m -0.71129 -36.987 c -1.8992 14.291 -3.4579 30.623 -5.9274 41.492 m -11.144 -27.977 c -0.60312 7.5705 -0.81938 16.495 -2.6081 19.916 m 6.6387 -45.523 c -0.55141 8.5391 -1.1493 16.985 -3.5564 21.813 m -1.4226 -28.926 c -0.33273 12.508 -1.2481 22.977 -2.8452 31.06 m -4.2678 7.5871 c -0.40491 7.7657 -0.65617 16.453 -1.6597 20.627 m -3.0823 -57.377 c -0.2806 6.8954 -1.6136 14.456 -3.7936 20.153 m -87.252 -19.679 l 3.0823 19.679 m 0 32.482 l 1.4226 11.144 m 0.94838 -37.224 c 0.86936 6.3338 1.5016 14.771 2.6081 22.761 m -12.803 -47.894 c 1.5458 12.369 1.9228 24.505 6.4016 37.461 m -13.277 -42.203 c 2.6081 24.024 5.2161 35.723 7.8242 53.584 m -26.318 -20.39 l 4.5048 28.215 m 1.1855 -31.297 c 0.87852 8.1083 1.0647 18.64 3.0823 22.761 m -10.906 -56.903 c 1.3956 10.698 3.2691 19.485 5.9274 25.132 m -14.925 -29.35 c 3.0694 5.8345 6.2016 14.769 8.7726 28.689 m 142.97 81.087 c -0.33581 16.444 -0.5297 33.136 -3.3194 45.286 m 10.906 -50.739 c -0.29648 11.687 -3.188 31.928 -4.7419 41.729 m -8.0613 -40.544 c -0.60522 12.335 -0.48401 22.007 -2.8452 40.781 m -17.08 -33.44 c -0.62601 6.604 -1.0956 13 -3.5564 22.05 m 11.618 -16.597 c -0.31612 4.1887 -0.63225 8.3774 -0.94838 12.566 m -105.75 6.1645 c 0.99917 6.7779 1.9424 13.519 6.6387 22.761 m -16.59 -28.69 c 1.4318 7.8723 2.6211 15.308 7.1129 28.689 m -7.8242 -60.697 c 1.1727 11.953 3.655 24.787 7.35 32.956 m -0.2371 -30.348 c 2.1103 10.804 4.7118 23.521 11.144 38.647 m 9.4839 1.8968 c -0.31318 7.2761 -0.28702 15.146 1.8968 26.792 m 9.4839 -27.74 c 0.32509 9.179 0.97268 18.761 3.7936 31.06 m -13.82 -65.2 c 1.0356 10.15 2.0902 20.255 4.979 26.081" />
</g>
<use x="-100" y="-170" xlink:href="#bucket" />
<use x="100" y="-170" xlink:href="#bucket" />
<use id="shine" fill="url(#rg)" stroke="#000" stroke-width="3" xlink:href="#shield" />
</svg>