<?xml version="1.0" encoding="UTF-8"?>
<svg xmlns="http://www.w3.org/2000/svg" xmlns:xlink="http://www.w3.org/1999/xlink" width="600" height="660">
<defs>
  <radialGradient id="rg" gradientUnits="userSpaceOnUse" cx="220" cy="220" r="405">
    <stop style="stop-color:#fff;stop-opacity:.3" offset="0"/>
    <stop style="stop-color:#fff;stop-opacity:.2" offset=".2"/>
    <stop style="stop-color:#666;stop-opacity:.1" offset=".6"/>
    <stop style="stop-color:#000;stop-opacity:.13" offset="1"/>
  </radialGradient>
  <path id="shield" d="m2,2v257c0,286 298,398 298,398c0,0 298-112 298-398V2z"/>
  <pattern id="fret" patternUnits="userSpaceOnUse" x="50" width="100" height="100">
    <path fill="#00c" d="M 39.394531 0 L 85.859375 46.464844 L 96.464844 35.859375 L 60.605469 0 L 39.394531 0 z M 35.859375 3.5351562 L 0 39.394531 L 0 60.605469 L 46.464844 14.140625 L 35.859375 3.5351562 z M 100 39.394531 L 53.535156 85.859375 L 64.140625 96.464844 L 100 60.605469 L 100 39.394531 z M 14.140625 53.535156 L 3.5351562 64.140625 L 39.394531 100 L 60.605469 100 L 14.140625 53.535156 z "/>
  </pattern>
</defs>
<use id="background" xlink:href="#shield" fill="#fff"/>
<use id="background" xlink:href="#shield" fill="url(#fret)"/>
<path fill="#00c" d="M 2 2 L 2 150 L 598 150 L 598 2 L 2 2 z"/>
<g id="fish" stroke="#666" stroke-width="1">
  <path fill="#999" d="m 273.80414,59.173942 c 1.08548,-3.041066 4.97123,-8.208973 13.64659,-13.140279 2.49801,5.134081 9.63813,10.483385 15.00355,15.617466" />
  <path fill="#999" d="m 285.72171,98.896606 c 8.72158,4.607804 13.84316,5.006134 19.50083,5.784044 0.11927,-7.614982 0.87547,-9.497666 1.77718,-10.070698" />
  <path fill="#999" d="m 316.47802,91.055588 c 19.8327,7.812079 12.40301,-0.48496 28.13358,-5.07327 -9.87503,-1.590255 -19.50712,-1.577066 -28.13358,5.07327 z"/>
  <path fill="#ccc" d="m 218.22946,70.677505 c 22.5649,-12.646849 49.08796,-11.523535 69.87568,-11.230275 19.06371,1.470514 52.86583,12.916969 60.55619,12.941087 3.7628,0.215793 8.44815,-0.285516 10.47214,-1.385789 9.72817,-8.102691 18.14016,-8.308382 26.80869,-10.053257 -0.29534,2.881178 -12.46296,12.986114 -15.26011,18.258442 2.67555,7.790078 11.21887,11.193358 13.92126,17.475617 -11.69456,0.04065 -20.03157,-6.30444 -29.61969,-9.774497 -44.54891,-6.103641 -40.3714,19.505317 -98.04118,10.070695" />
  <path fill="#999" d="m 245.62239,85.907499 c 8.9921,7.235743 14.85296,13.706969 15.17061,19.957931 -3.00696,1.4635 -13.75075,-8.044337 -22.93117,-16.624945" />
  <path fill="#ccc" d="m 247.16795,73.283773 c 4.83276,18.757199 -14.66072,20.749097 -30.19056,7.722645 -1.56259,-4.481638 1.5084,-3.538878 3.72142,-3.489791" />
  <path fill="none" d="m 241.54021,72.098987 c 1.6681,7.890826 -0.20117,13.128623 -7.99732,13.921257" />
  <path fill="#ccc" d="m 232.89949,83.334198 c -1.32467,-2.347484 -7.1201,-3.309029 -10.02279,-4.524232 -12.49377,-5.230468 -11.59061,-13.435939 1.78028,-4.933794"/>
  <path fill="#fff" d="m 235.51993,72.543291 a 3.75422,2.6416875 0 0 1 -7.50844,0 3.75422,2.6416875 0 1 1 7.50844,0 z" />
  <path fill="#666" d="m 232.51634,74.366557 c -1.06234,0.279747 -2.67294,-1.191118 -2.40258,-2.255888 0.28677,-1.129466 2.57631,-1.729735 3.38144,-0.887294 0.75818,0.793318 0.0823,2.863738 -0.97886,3.143182 z"/>
  <path fill="none" d="m 375.09733,86.111457 c -3.0607,-0.493662 -6.46577,-1.030366 -9.52647,-1.524032 m 16.69977,8.417531 c -5.52901,-0.531792 -11.9835,-3.119322 -17.51251,-4.911334 m 16.90987,-21.557806 c -4.60721,0.3287 -11.20305,2.924908 -18.09466,6.451759 m 13.03266,-0.974679 c -2.07587,0.02172 -6.67838,2.150882 -10.95928,3.936653 m 5.09991,3.29609 c -5.35465,-0.15248 -10.72468,-0.981575 -17.40182,-0.334124"/>
  <path fill="none" d="m 296.04043,56.104358 c -1.58127,1.580494 -2.2783,2.718866 -2.96196,3.850556 m -0.12402,-6.920146 c -2.44516,1.838123 -4.56915,4.030537 -6.09612,6.327755 m 2.96197,-9.774502 c -3.7831,3.05028 -7.07018,6.265898 -9.4783,9.774502"/>
  <path fill="none" d="M 246.57555,92.536575 260.71204,105.6871" />
  <path fill="none" d="m 302.26057,98.460514 3.25817,0.888589 m -8.58971,1.184787 c 2.52731,0.82959 5.30715,1.40665 8.29351,1.77718"/>
  <path fill="none" d="m 331.28787,89.278408 4.02274,1.24936 m -8.4657,0.231627 5.33155,2.36957"/>
  <path fill="none" d="m 343.25858,77.897718 c 2.63084,2.151328 0.49084,4.908106 0,4.77348 M 330.76817,74.67485 c 3.02847,2.47647 0.56504,5.649913 0,5.494939 m -9.60459,-1.908292 c 3.29355,2.693242 0.6145,6.144454 0,5.975914 m -7.30481,-1.878208 c 3.55863,2.910009 0.66395,6.63899 0,6.456887 m 0.17035,-18.466799 c 3.55864,2.910009 0.66395,6.638989 0,6.456887 m -8.85837,1.634899 c 3.55863,2.910009 0.66395,6.63899 0,6.456887 m -8.09179,0.953483 c 3.55864,2.910009 0.66395,6.638989 0,6.456887 m -0.15705,-23.989982 c 3.73158,3.051429 0.69621,6.961637 0,6.770688 m -7.89397,0.815192 c 4.0888,3.343546 0.76286,7.628066 0,7.418835 m -7.31501,0.677565 c 4.22134,3.451921 0.78759,7.875335 0,7.659319 m -1.36392,-24.071624 c 4.20719,3.440355 0.78496,7.848936 0,7.633647 m -6.94917,-12.02752 c 3.55864,2.910008 0.66396,6.63899 0,6.456887 m -2.896,19.436822 c 3.55863,2.910009 0.66395,6.63899 0,6.456887 m 3.15154,-17.529855 c 3.55863,2.910009 0.66395,6.638989 0,6.456887 m -7.18195,-12.51648 c 4.50985,3.687846 0.84143,8.413579 0,8.182801 m -5.50938,3.66881 c 3.55863,2.910007 0.66395,6.63899 0,6.456885 m -9.57036,-8.190991 c 3.16101,2.584859 0.58976,5.897182 0,5.735428 m 11.18872,-24.358553 c 3.55863,2.910008 0.66395,6.638989 0,6.456886 m -5.41654,4.357739 c 3.55863,2.910006 0.66395,6.638989 0,6.456884 m -3.90398,-14.722856 c 3.47216,2.839291 0.64782,6.477661 0,6.299984"/>
</g>
<use xlink:href="#fish" x="-180"/>
<use xlink:href="#fish" x="180"/>
<use id="shine" xlink:href="#shield" fill="url(#rg)" stroke="#000" stroke-width="3"/>
</svg>