<?xml version="1.0" encoding="UTF-8"?>
<svg xmlns="http://www.w3.org/2000/svg" xmlns:xlink="http://www.w3.org/1999/xlink" width="600" height="660">
<defs>
  <radialGradient id="rg" gradientUnits="userSpaceOnUse" cx="220" cy="220" r="405">
    <stop style="stop-color:#fff;stop-opacity:.3" offset="0"/>
    <stop style="stop-color:#fff;stop-opacity:.2" offset=".2"/>
    <stop style="stop-color:#666;stop-opacity:.1" offset=".6"/>
    <stop style="stop-color:#000;stop-opacity:.13" offset="1"/>
  </radialGradient>
  <path id="shield" d="m2,2v257c0,286 298,398 298,398c0,0 298-112 298-398V2z"/>
</defs>
<use id="background" xlink:href="#shield" fill="#c00"/>
<path fill="#800" d="m 146.75781,142.00586 c -21.5047,0.34042 -38.31185,6.26997 -60.113279,20.63281 -19.399014,12.78013 -31.106328,31.04792 -36.396484,56.79492 -2.440147,11.87612 -2.593133,15.9502 -1.105469,29.23243 0.95072,8.48824 3.145657,19.44565 4.878906,24.3496 5.383222,15.23096 20.542969,32.54299 35.113282,40.09961 4.347668,2.25484 9.415971,2.89565 23.701174,2.99805 17.32554,0.12412 18.57715,-0.0896 26.86328,-4.60937 10.56396,-5.76216 23.05351,-17.81434 26.15625,-25.24024 1.25714,-3.00877 2.28515,-9.40507 2.28515,-14.21289 0,-4.99751 0.70519,-8.74023 1.64454,-8.74023 0.9037,0 4.43084,1.422 7.83789,3.16015 7.76775,3.96281 12.21502,3.96281 26.07226,0 6.07799,-1.73815 11.82663,-3.16015 12.77539,-3.16015 2.60734,0 1.52339,23.08917 -1.51367,32.24804 -5.19738,15.67385 -2.98176,29.78516 6.44922,41.08203 9.18845,11.00633 29.22483,58.34768 32.96289,77.88477 1.75522,9.17366 1.83827,13.07271 0.39453,18.4707 -1.42566,5.3304 -1.38289,8.44498 0.19922,14.09571 1.69745,6.06267 4.50468,9.53651 17.0918,21.16015 8.28275,7.64875 16.55445,14.77063 18.38281,15.82617 4.21768,2.43499 28.82321,2.61709 35.57422,0.26368 3.59165,-1.25207 6.40778,-4.12812 9.66992,-9.875 2.53168,-4.46003 8.59162,-12.66313 13.46484,-18.22852 l 8.85938,-10.11914 -0.8457,-9.63281 c -0.46502,-5.29806 -1.30056,-12.97901 -1.85743,-17.07031 -1.61334,-11.85297 5.40296,-36.08092 17.53321,-60.54102 5.6121,-11.31651 10.20508,-21.56472 10.20508,-22.77344 0,-1.20871 1.73689,-5.164 3.86132,-8.78906 5.70867,-9.74112 8.25081,-25.62832 5.91211,-36.95117 -1.65293,-8.00271 -2.56359,-20.76175 -1.47851,-20.71485 0.21727,0.009 3.88611,1.07691 8.15234,2.3711 10.38469,3.15031 15.65946,2.96613 23.05469,-0.80664 3.40706,-1.73815 6.9342,-3.16016 7.83789,-3.16016 0.93936,0 1.64258,3.74273 1.64258,8.74024 0,4.80782 1.02997,11.20412 2.28711,14.21289 3.10274,7.4259 15.59229,19.47807 26.15625,25.24023 8.28613,4.51973 9.53774,4.73553 26.86328,4.61133 14.28519,-0.10235 19.3535,-0.74516 23.70117,-3 8.67015,-4.49661 18.12933,-12.86382 25.33984,-22.41406 13.18152,-17.45879 18.66861,-46.33079 13.54493,-71.26758 -5.29015,-25.74701 -16.99553,-44.01479 -36.39454,-56.79492 -24.92075,-16.41787 -43.31323,-21.8165 -69.64648,-20.44141 -9.55983,0.4992 -21.28915,1.65954 -26.06641,2.57812 -9.85139,1.89428 -35.14404,13.6867 -42.33593,19.73829 l -4.78321,4.02343 -9.23047,-2.54101 c -5.73099,-1.57757 -18.51972,-2.84585 -33.7246,-3.34571 l -24.49024,-0.80468 -17.11914,5.63867 -17.11719,5.64062 -9.74414,-6.15429 c -26.17571,-16.52955 -64.508,-27.5175 -102.97265,-29.51758 -3.2921,-0.17118 -6.46111,-0.23613 -9.53321,-0.1875 z m -6.97656,69.35937 c 1.03637,-0.0177 1.82418,0.0207 2.28711,0.125 2.22888,0.50203 1.06576,1.2585 -3.94922,2.57032 -3.91084,1.023 -9.95533,3.24484 -13.43164,4.9375 -3.4763,1.69267 -10.6894,4.17862 -16.0293,5.52343 -11.263104,2.83652 -11.623044,2.87205 -11.623044,1.14063 0,-2.07326 6.737094,-7.82707 11.060544,-9.44531 5.02255,-1.87991 24.43098,-4.72755 31.68555,-4.85157 z m 320.60352,4.74024 c 7.25457,0.12402 26.663,2.9736 31.68554,4.85351 4.32344,1.61824 11.06055,7.3701 11.06055,9.44336 0,0.71759 -0.88827,1.23635 -1.97461,1.15235 -4.07541,-0.3153 -21.14407,-5.56973 -26.46875,-8.14844 -3.04176,-1.47311 -8.7298,-3.53121 -12.64062,-4.57227 -5.03468,-1.34023 -6.18881,-2.09951 -3.95118,-2.60351 0.46293,-0.10427 1.2527,-0.14272 2.28907,-0.125 z M 119.82422,251.0957 c 2.36916,-0.0172 3.95768,0.89323 6.29492,3.23047 4.57407,4.57405 6.60053,13.32215 4.53125,19.56445 -1.28365,3.87237 -2.34971,4.47634 -8.45703,4.80079 -9.07196,0.48192 -15.5186,-2.49056 -21.72461,-10.01953 -2.756987,-3.3447 -5.010813,-6.45442 -5.007812,-6.90821 0.01004,-1.49936 16.489672,-9.37422 21.677732,-10.35937 1.01978,-0.19365 1.89583,-0.30285 2.68555,-0.3086 z m 360.73633,4.875 c 1.00915,-0.0445 2.07178,0.048 3.18164,0.28125 4.76935,1.00217 20.95389,8.9192 20.96289,10.25391 0.017,2.54486 -10.80233,13.32087 -15.23242,15.17187 -2.86158,1.19564 -8.08755,2.17383 -11.61328,2.17383 -5.42722,0 -6.64651,-0.62118 -7.95118,-4.05273 -2.1054,-5.53764 -1.93703,-9.32293 0.69532,-15.62305 2.18487,-5.22909 5.58404,-8.01211 9.95703,-8.20508 z"/>
<path fill="#fff" d="m 322.59987,478.29756 c 1.95542,-1.63127 3.55531,-3.38527 3.55531,-3.89777 0,-0.5125 -7.46614,-0.93182 -16.59144,-0.93182 -9.12529,0 -16.59143,0.41932 -16.59143,0.93182 0,0.5125 1.59988,2.2665 3.5553,3.89777 2.60911,2.17659 6.07854,2.96595 13.03613,2.96595 6.9576,0 10.42703,-0.78936 13.03613,-2.96595 z"/>
<path fill="#fd0" d="m 207.64491,234.26421 c 0,0 3.70213,2.1832 3.70213,2.1832 1.32217,1.0973 2.61842,1.2684 2.61842,0.38696 0,-0.86908 -1.06897,-2.4673 -2.37549,-3.55161 -3.00349,-2.49268 -2.7943,-15.73141 0.26716,-16.9062 1.15958,-0.44498 2.10833,-2.79008 2.10833,-5.21134 0,-3.89927 3.23613,-7.29811 5.13795,-5.39629 0.38859,0.38858 -0.25296,4.40539 -1.42564,8.92624 -2.57924,9.94321 -2.87848,17.45146 -0.55204,13.85156 0.84247,-1.30362 1.56176,-4.14786 1.59845,-6.32055 0.0727,-4.30548 8.44078,-15.5863 9.8473,-13.27493 1.54824,2.54426 -3.62537,13.14493 -5.97522,12.2432 -1.72508,-0.66197 -1.88479,0.16591 -0.77706,4.02829 0.83587,2.91453 0.80805,5.2238 -0.0695,5.76614 -2.34989,1.45231 -1.68458,5.45853 0.90648,5.45853 1.30361,0 2.3702,0.85327 2.3702,1.89617 0,1.43946 0.47254,1.42361 1.96196,-0.0658 1.56254,-1.56253 1.52131,-2.2343 -0.20243,-3.29964 -1.37647,-0.8507 -1.6681,-2.12103 -0.80106,-3.48951 0.74983,-1.18351 1.46312,-2.68513 1.58506,-3.33694 0.6179,-3.30283 0.9402,-3.25001 2.41033,0.39504 l 1.59327,3.95034 3.15678,-3.86595 c 2.60349,-3.18838 3.41023,-3.46533 4.60292,-1.58014 0.79538,1.2572 1.46793,3.70794 1.49454,5.44609 0.0371,2.42315 0.37102,2.65088 1.43159,0.97632 1.08544,-1.71382 1.61495,-1.45377 2.45977,1.20805 0.59212,1.8656 1.65827,3.03249 2.36924,2.59309 0.71095,-0.43939 3.68177,2.37254 6.60181,6.24875 5.29455,7.02824 8.87754,9.38662 7.05836,4.64593 -0.52753,-1.3747 -0.95912,-5.30785 -0.95912,-8.74035 0,-7.00754 -3.59595,-9.89102 -6.82607,-5.47359 -1.72592,2.36036 -2.43968,1.96102 -6.63966,-3.7148 -2.58821,-3.4977 -5.59468,-6.37626 -6.68102,-6.3968 -2.63779,-0.0499 -2.4924,-0.9773 0.7462,-4.7597 3.23102,-3.77355 5.17931,-4.07754 5.17931,-0.80813 0,3.59458 3.12528,2.84089 6.61469,-1.5952 1.71556,-2.18096 3.71037,-3.60003 4.43292,-3.15347 1.91656,1.1845 0.7448,8.85051 -1.57165,10.28216 -2.82416,1.74542 -0.43168,4.79764 2.82072,3.59854 3.84249,-1.41666 5.17638,-3.9575 3.27828,-6.24458 -1.98549,-2.39236 -0.19942,-5.75918 2.5047,-4.72151 1.07726,0.41338 2.95481,0.13594 4.17234,-0.61654 1.80159,-1.11344 1.83621,-1.74565 0.18595,-3.39591 -1.64232,-1.64232 -2.26453,-1.64466 -3.2734,-0.0123 -0.68622,1.11032 -2.43079,1.5607 -3.88454,1.00284 -2.96793,-1.13889 -3.58268,-3.8348 -0.87448,-3.8348 1.72725,0 1.41722,-2.49356 -1.06362,-8.55494 -0.87227,-2.13122 -0.69188,-2.68702 0.6108,-1.88191 1.01677,0.62839 1.85421,0.56727 1.86099,-0.13581 0.006,-0.7031 1.78443,-2.10029 3.95034,-3.10487 2.16591,-1.00457 3.93802,-1.18234 3.93802,-0.39503 0,0.78731 1.04158,1.43147 2.31461,1.43147 1.27304,0 3.08135,1.43267 4.01848,3.18372 1.78336,3.33224 1.13841,3.9432 -5.29873,5.01948 -2.77539,0.46404 -2.76031,0.685 0.31261,4.58236 2.13794,2.71153 2.90526,5.33135 2.27142,7.75521 -0.82351,3.14905 -0.48089,3.53583 2.4526,2.7687 6.24058,-1.63195 3.51696,1.50246 -3.70079,4.25894 -6.90614,2.63749 -7.86247,3.81277 -7.13989,8.77474 0.67936,4.66535 6.34982,6.35864 6.34982,1.89616 0,-3.28749 2.90555,-6.63657 5.75766,-6.63657 2.41703,0 -3.48227,14.14095 -6.96516,16.69588 -2.90204,2.12884 -1.95418,7.60054 1.42955,8.25218 1.63108,0.31412 2.91827,-0.95136 3.55723,-3.49721 0.55071,-2.1942 2.94768,-5.01286 5.3266,-6.26369 l 4.32529,-2.27424 -4.38785,-1.10794 c -3.51503,-0.88755 -4.02659,-1.54322 -2.57175,-3.29618 2.566,-3.09184 3.59554,-2.80446 9.40943,2.62654 5.1928,4.85081 9.4012,5.20969 9.4012,0.80171 0,-2.94246 -7.15369,-7.84482 -9.41133,-6.44952 -0.9073,0.56074 -1.64963,-0.089 -1.64963,-1.44393 0,-3.17559 3.25157,-3.12231 10.14781,0.16628 8.77864,4.18624 9.07425,8.88946 0.86359,13.73961 -2.57996,1.52403 -4.71347,3.97512 -4.7411,5.44686 -0.0439,2.34124 -0.34115,2.29128 -2.37613,-0.39944 -3.26341,-4.31499 -6.60384,-1.06064 -3.69398,3.59879 1.55499,2.48995 2.54063,2.85059 4.14705,1.51738 1.54555,-1.2827 2.59482,-1.26128 3.93644,0.0803 2.87011,2.87011 4.35741,2.16509 4.35741,-2.06556 0,-4.02469 5.09746,-8.10863 7.93335,-6.35596 0.85111,0.52602 1.54748,-0.19412 1.54748,-1.60032 0,-1.40619 0.71106,-2.11725 1.58013,-1.58014 0.86908,0.53712 1.58014,3.17801 1.58014,5.86864 0,4.79197 -0.0646,4.83354 -3.16027,2.03205 -3.15766,-2.85763 -4.0103,-1.68351 -2.20115,3.03104 1.184,3.08544 5.92447,3.25869 8.37492,0.30609 1.36187,-1.64095 1.36964,-3.18247 0.031,-6.12067 -2.08,-4.56507 0.27462,-10.64762 4.12178,-10.64762 2.71158,0 3.00152,1.84131 0.65884,4.184 -1.15429,1.15429 -1.07918,2.92131 0.248,5.83416 1.48102,3.25046 2.37508,3.78724 4.02599,2.4171 1.16721,-0.96869 2.1222,-2.63696 2.1222,-3.70725 0,-1.0703 1.59989,-3.67572 3.55531,-5.78984 1.95542,-2.11411 4.85649,-5.83495 6.4468,-8.26852 1.59033,-2.43357 3.26109,-4.05509 3.7128,-3.60338 1.34926,1.34927 -2.71545,11.97138 -5.08942,13.29992 -1.37413,0.76901 -1.84675,2.57512 -1.26047,4.81702 l 0.93795,3.58673 2.31143,-3.30003 c 1.7527,-2.50235 2.81781,-2.87976 4.40638,-1.56137 1.61132,1.33728 2.35556,0.91758 3.2238,-1.81799 l 1.12883,-3.55666 2.9544,3.64852 c 3.96916,4.90171 3.9094,1.04795 -0.12989,-8.37533 -1.96844,-4.59219 -2.50206,-7.55516 -1.47499,-8.18992 1.69147,-1.04538 6.00311,3.6179 6.08917,6.58575 0.0714,2.46493 6.42983,9.40797 8.1669,8.91787 0.79865,-0.22533 1.86392,0.6635 2.36725,1.97518 1.03289,2.69162 5.31747,3.27681 5.31747,0.72625 0,-4.44852 -5.47791,-11.45189 -10.6467,-13.61155 -4.35816,-1.82095 -5.16874,-2.71407 -3.45037,-3.80167 3.76213,-2.38113 6.31936,-1.6706 10.69786,2.97241 2.30411,2.4433 5.37844,4.88852 6.83186,5.43382 1.78431,0.66945 2.39051,2.17755 1.86645,4.64342 -0.69454,3.26807 -0.58518,3.35207 1.04028,0.79911 1.44887,-2.27562 2.27789,-2.46985 4.09725,-0.95993 3.37022,2.79704 4.47294,0.59861 2.31404,-4.6134 -1.04276,-2.51745 -2.11264,-7.69544 -2.3775,-11.50666 -0.26488,-3.81121 -1.00562,-8.17384 -1.64609,-9.69472 -0.80752,-1.91752 -0.44257,-2.76524 1.19046,-2.76524 2.64467,0 4.24995,4.59081 4.28212,12.24606 0.0247,5.86708 1.9858,6.58718 5.24955,1.92755 2.22145,-3.17158 2.17088,-4.12472 -1.19209,-22.46933 -0.43814,-2.38995 -0.15847,-4.34537 0.62148,-4.34537 2.49554,0 5.17851,11.07748 5.39933,22.29289 0.11772,5.98323 0.66647,10.88116 1.21925,10.88429 1.51695,0.009 6.10556,-10.32013 6.10556,-13.74328 0,-1.65026 -0.62015,-3.67599 -1.37811,-4.50161 -1.90871,-2.0791 -3.58158,-14.1863 -2.15699,-15.61089 0.64068,-0.64069 1.16489,-1.93521 1.16489,-2.87671 0,-0.9415 0.88883,-2.00809 1.97517,-2.37021 2.22842,-0.7428 2.72285,2.11665 0.59355,3.43263 -2.33279,1.44174 3.4523,26.19494 6.12203,26.19494 2.72794,0 4.86069,-11.81085 3.92078,-21.71254 -0.77406,-8.15448 -0.46631,-11.41007 1.30134,-13.76624 2.14682,-2.8616 2.30995,-2.57438 2.24362,3.95034 -0.0394,3.86998 0.57571,11.43148 1.3668,16.80335 l 1.43835,9.76703 5.78489,-5.31403 c 6.12442,-5.62595 7.16326,-7.71147 8.28976,-16.642 1.54532,-12.2509 4.16903,-18.90988 7.45068,-18.90988 2.34623,0 1.53366,5.81158 -1.12056,8.0144 -1.84898,1.53451 -2.23728,3.55582 -1.47902,7.69913 0.5655,3.09007 1.03323,7.92927 1.03941,10.75376 0.0142,6.67666 3.26535,6.71178 9.3038,0.10053 2.97491,-3.25712 4.97524,-7.54599 5.66514,-12.14659 0.65266,-4.35224 2.5496,-8.59481 4.88883,-10.93405 5.199,-5.199 5.82643,-3.77448 1.90887,4.33392 -1.80417,3.73421 -3.67435,9.21772 -4.15598,12.18557 -0.48161,2.96785 -2.17387,6.09087 -3.76057,6.94005 -3.7369,1.99993 -2.14341,6.23615 2.34579,6.23615 1.88656,0 4.62993,-1.24436 6.09638,-2.76524 1.46646,-1.52088 4.11041,-4.13108 5.87547,-5.80043 1.8118,-1.71357 4.03758,-7.04585 5.11165,-12.24596 2.45131,-11.86813 4.75749,-9.64314 3.40611,3.28621 -0.73445,7.02688 -1.98578,10.83387 -4.25627,12.94915 -3.20982,2.9904 -3.20691,2.99613 1.51242,2.99613 5.5838,0 14.01846,-7.86798 15.68498,-14.63119 1.17795,-4.78044 3.88459,-7.44669 3.88459,-3.82661 0,2.87077 -3.97594,11.8297 -7.31496,16.48263 -2.4333,3.39085 -2.38611,3.55531 1.02001,3.55531 1.97029,0 6.64533,-2.83351 10.42832,-6.32055 3.77133,-3.4763 8.03957,-6.32055 9.48497,-6.32055 1.68227,0 -0.0127,2.32491 -4.71175,6.46069 -4.03686,3.55338 -6.97449,7.05168 -6.52807,7.774 0.44642,0.72233 4.53803,-0.65655 9.09244,-3.06418 8.65732,-4.57657 19.91061,-8.08832 15.39137,-4.8031 -1.30361,0.94765 -5.45144,3.10255 -9.21738,4.78867 -6.78631,3.03841 -8.42918,7.4354 -2.46357,6.59351 1.6446,-0.23209 5.47892,-0.79288 8.52068,-1.2462 l 5.53048,-0.82421 -5.89679,2.58885 c -5.05533,2.21942 -5.66748,3.01733 -4.28979,5.59157 1.12669,2.10523 3.36151,3.01775 7.47693,3.05299 6.05507,0.0518 11.4004,2.88826 11.4004,6.04946 0,2.61514 -2.66577,2.2085 -3.7317,-0.56924 -1.09867,-2.86311 -8.70805,-3.17144 -9.74943,-0.39503 -0.40747,1.08634 -0.19143,5.17495 0.48008,9.08579 1.06519,6.20352 1.77075,7.1744 5.53086,7.6106 5.12558,0.59462 5.72476,3.01963 0.92297,3.73549 -2.39996,0.35779 -5.09232,3.82638 -9.23912,11.90282 -3.21871,6.26885 -6.75908,12.49064 -7.8675,13.8262 -2.50643,3.02009 -1.42775,3.04712 5.53302,0.13874 6.13258,-2.56235 7.10011,-1.24679 2.28673,3.10925 -3.59274,3.2514 -19.24705,6.96472 -29.98988,7.11386 l -7.11062,0.0988 5.8856,5.20263 c 15.31499,13.53781 35.17305,11.4862 50.65212,-5.23305 7.04527,-7.60975 9.04682,-11.16252 12.11917,-21.51177 3.20217,-10.7865 3.55419,-14.45971 2.71033,-28.28083 -1.44393,-23.64992 -5.1867,-33.87105 -18.61065,-50.82384 -9.08724,-11.47607 -19.72309,-19.10784 -37.07206,-26.60111 -23.49697,-10.14867 -34.75362,-11.87588 -56.71422,-8.70217 -25.01929,3.61574 -41.62972,11.1486 -55.30919,25.08282 -8.98206,9.14934 -13.48062,11.75426 -13.48062,7.80603 0,-0.99054 1.24324,-2.71005 2.76276,-3.82115 1.51951,-1.1111 2.34202,-2.44091 1.82779,-2.95513 -0.51422,-0.51422 -2.81071,0.80345 -5.1033,2.92816 -4.57551,4.24043 -6.66663,2.96554 -5.13638,-3.13147 0.78409,-3.12411 0.3698,-3.86054 -2.17185,-3.86054 -2.14264,0 -2.85174,0.75327 -2.23127,2.37021 1.37872,3.59284 -2.22865,2.83546 -4.22037,-0.88609 -1.76389,-3.29586 -5.81187,-3.37667 -5.08406,-0.10149 0.62049,2.79223 -2.43369,2.07727 -4.2188,-0.98758 -1.06901,-1.83537 -1.62677,-2.0442 -1.65866,-0.62101 -0.0275,1.2282 -1.039,1.76396 -2.36764,1.25411 -1.27579,-0.48956 -2.74706,-0.19851 -3.26947,0.64679 -1.50495,2.43506 -3.84357,0.0909 -2.90369,-2.91063 0.71369,-2.27916 0.45344,-2.22847 -1.62237,0.31599 -1.73684,2.12898 -1.99004,3.61188 -0.85102,4.9843 0.89177,1.07452 1.17005,3.752 0.61839,5.94996 -1.3504,5.3804 -5.79804,3.74781 -5.24501,-1.92527 0.45343,-4.65143 -2.58849,-11.24955 -5.18634,-11.24955 -1.00826,0 -0.69594,1.54197 0.76341,3.76923 3.03634,4.63405 1.96719,5.98055 -3.19137,4.01927 -5.05601,-1.9223 -6.24165,-1.07211 -7.4442,5.33802 -1.90587,10.15914 -13.06965,21.63271 -17.11374,17.58863 -1.16472,-1.16473 4.92268,-7.60136 9.44668,-9.98861 4.72454,-2.49307 4.59188,-7.76956 -0.24154,-9.60722 -4.88345,-1.85668 -7.47002,-5.63442 -3.07002,-4.48379 1.91249,0.50012 4.89485,-0.68905 7.75274,-3.09131 2.55454,-2.14725 3.57801,-3.55889 2.2744,-3.13697 -1.30361,0.42193 -8.27722,2.72571 -15.49689,5.11952 l -13.12668,4.35238 4.60805,2.80232 c 2.53441,1.54127 5.9527,3.08264 7.59619,3.42526 2.78714,0.58105 2.75682,0.75073 -0.45075,2.52231 -2.75579,1.52205 -4.32525,1.43507 -7.90069,-0.43783 -2.45396,-1.28545 -9.79473,-4.869 -16.31279,-7.96344 -6.51807,-3.09445 -16.82846,-8.41588 -22.91199,-11.82541 -14.32693,-8.02952 -31.22953,-13.65918 -55.07563,-18.34371 -38.47248,-7.55786 -50.17282,-6.8055 -77.46109,4.98092 -17.425943,7.52667 -28.051707,15.14487 -37.149993,26.63488 -13.42394,16.95279 -17.16671,27.17392 -18.610653,50.82384 -0.843847,13.82113 -0.491819,17.49433 2.710338,28.28084 9.589271,32.30156 41.232872,45.78387 62.771278,26.74481 l 5.88561,-5.20263 -7.11062,-0.0988 c -10.74282,-0.14916 -26.397127,-3.86245 -29.989871,-7.11385 -4.813383,-4.35605 -3.845844,-5.6716 2.286726,-3.10925 6.960765,2.90838 8.039454,2.88134 5.533018,-0.13874 -1.10842,-1.33556 -4.648794,-7.55735 -7.867499,-13.8262 -4.146807,-8.07644 -6.839172,-11.54504 -9.239127,-11.90283 -4.801782,-0.71586 -4.202602,-3.14087 0.922979,-3.73549 3.760108,-0.4362 4.465674,-1.40708 5.530854,-7.6106 0.671514,-3.91084 0.88755,-7.99945 0.480083,-9.08579 -1.041378,-2.7764 -8.650758,-2.46808 -9.74944,0.39503 -1.065917,2.77774 -3.731693,3.18438 -3.731693,0.56924 0,-3.1612 5.345335,-5.99762 11.400399,-6.04946 4.115424,-0.0352 6.350249,-0.94776 7.47693,-3.05298 1.377693,-2.57425 0.765552,-3.37215 -4.289781,-5.59158 l -5.896793,-2.58884 5.53048,0.8242 c 3.041763,0.45332 6.876072,1.01411 8.520685,1.2462 5.9656,0.84189 4.32273,-3.5551 -2.463578,-6.59351 -3.765947,-1.68612 -7.913768,-3.84102 -9.217381,-4.78866 -4.519244,-3.28522 6.734055,0.22652 15.391373,4.80309 4.554416,2.40763 8.646016,3.78651 9.092436,3.06419 0.44642,-0.72233 -2.49121,-4.22063 -6.52806,-7.77401 -4.698492,-4.13578 -6.394036,-6.46068 -4.711747,-6.46068 1.445387,0 5.713617,2.84424 9.484967,6.32054 3.78298,3.48704 8.45801,6.32055 10.42831,6.32055 3.40613,0 3.45332,-0.16446 1.02,-3.55531 -3.339,-4.65293 -7.31495,-13.61185 -7.31495,-16.48263 0,-3.62008 2.70666,-0.95383 3.8846,3.82661 1.66652,6.76322 10.10117,14.63119 15.68497,14.63119 4.71934,0 4.72223,-0.006 1.51242,-2.99613 -2.27049,-2.11528 -3.52181,-5.92227 -4.25627,-12.94915 -1.35138,-12.92935 0.9548,-15.15434 3.40612,-3.28621 1.07407,5.20011 3.29984,10.53239 5.11165,12.24596 1.76505,1.66936 4.40901,4.27955 5.87546,5.80043 1.46645,1.52088 4.20982,2.76524 6.09638,2.76524 4.48921,0 6.0827,-4.23622 2.34579,-6.23615 -1.5867,-0.84918 -3.27895,-3.9722 -3.76057,-6.94005 -0.48162,-2.96785 -2.35181,-8.45135 -4.15598,-12.18556 -3.91756,-8.10841 -3.29013,-9.53292 1.90887,-4.33392 2.32897,2.32897 4.23585,6.57965 4.88068,10.87965 1.2492,8.33027 9.59255,18.81603 14.9716,18.81603 3.33385,0 3.36197,-0.1375 0.82129,-4.01507 -2.12667,-3.24571 -2.28504,-4.77387 -0.8265,-7.97504 2.49062,-5.4663 2.25718,-10.94911 -0.56592,-13.29208 -2.54887,-2.11538 -3.26908,-7.90069 -0.98355,-7.90069 3.6703,0 8.29598,13.96848 7.28113,21.98733 -0.42953,3.39403 1.0885,6.06094 7.038,12.36448 l 7.58566,8.03706 1.199,-10.52851 c 0.65946,-5.79068 1.18915,-13.69485 1.17708,-17.56482 -0.0199,-6.37984 0.18227,-6.75708 2.16657,-4.04337 1.4698,2.01006 2.18851,7.53343 2.18851,16.81892 0,13.63145 1.53042,17.85452 5.15638,14.22856 2.75143,-2.75143 5.7319,-19.63271 3.88088,-21.98115 -0.8728,-1.10735 -1.17738,-2.42291 -0.6768,-2.92347 1.33796,-1.33796 4.47716,0.97029 3.49057,2.56662 -0.46289,0.74897 -0.11741,1.80935 0.76771,2.35639 1.80562,1.11593 0.43837,13.34174 -1.75982,15.73618 -2.24932,2.45013 -1.58492,7.6406 1.78217,13.92288 1.73815,3.24301 3.16028,7.05228 3.16028,8.46505 z"/>
<path fill="#fff" d="m 207.23935,239.18831 c 0,0 -4.1426,-2.84059 -4.1426,-2.84059 -8.31392,-6.0682 -31.255,-18.76451 -38.78782,-19.70567 -8.00992,-1.00078 -33.47197,2.75317 -36.03095,5.31215 -0.68305,0.68305 2.31701,2.38001 6.6668,3.77102 4.47831,1.4321 8.29311,1.90713 8.79494,1.09517 1.56454,-2.53149 17.54979,-1.54996 24.66579,1.51453 4.43283,1.90898 10.37045,6.92267 16.84197,14.22123 5.49745,6.20002 11.15039,11.27277 12.56209,11.27277 4.40112,0 -0.54811,3.66902 -8.79917,6.52309 -7.3881,2.55557 -7.4074,2.58079 -2.89045,3.77729 3.12774,0.82851 7.81394,0.14158 15.0113,-2.20061 5.75521,-1.87283 11.6538,-3.39485 13.108,-3.38225 1.45421,0.0126 4.65399,-1.64913 7.11061,-3.6927 8.19192,-6.8145 11.06774,-7.71978 17.5548,-5.52612 3.23042,1.09239 6.47834,2.48144 7.21763,3.08677 2.63325,2.15609 -5.60952,3.24759 -10.19173,1.34957 -3.9985,-1.65623 -5.10958,-1.52898 -7.7842,0.89152 -3.21725,2.91157 -4.63507,14.51758 -1.53981,12.60461 0.90517,-0.55943 1.58014,0.85529 1.58014,3.31192 0,4.08669 0.13889,4.16285 2.95034,1.61847 2.83138,-2.56235 2.94289,-2.43548 2.76524,3.1464 -0.10745,3.37876 0.6427,6.1059 1.79007,6.50714 1.08634,0.3799 1.97517,-0.43512 1.97517,-1.81116 0,-1.37604 0.75303,-2.50188 1.6734,-2.50188 0.92036,0 1.21468,0.7422 0.65403,1.64934 -1.50165,2.42973 1.9859,5.92939 12.65278,12.69667 5.23154,3.319 10.85587,7.84848 12.49848,10.06551 2.25017,3.03702 4.39309,4.02497 8.69076,4.00675 7.28057,-0.031 9.19851,-1.3215 9.88777,-6.65362 0.71237,-5.51097 -6.12256,-16.83801 -10.88825,-18.04431 -1.94942,-0.49345 -3.15181,-1.53239 -2.67198,-2.30876 0.47982,-0.77637 -1.34471,-1.41158 -4.05452,-1.41158 -2.88225,0 -4.52164,-0.65576 -3.95035,-1.58014 3.09045,-5.00044 19.2623,3.20809 23.39526,11.87498 4.22898,8.8683 3.55664,16.07586 -1.80559,19.35595 -9.23516,5.64917 -16.05919,12.09753 -16.05919,15.17515 0,3.08575 0.0896,3.07785 3.22184,-0.28416 4.73738,-5.08499 6.91073,-4.21179 2.92728,1.17612 -2.56195,3.46522 -3.17525,5.88959 -2.43113,9.61017 0.56245,2.81226 0.18114,6.46551 -0.87693,8.40179 -2.38207,4.3592 -3.05368,15.27699 -0.93977,15.27699 0.91932,0 1.17924,1.6828 0.61012,3.95034 -0.58623,2.33573 -0.3131,3.95034 0.66826,3.95034 0.91286,0 1.60154,2.31095 1.53042,5.13545 -0.0711,2.82449 0.34251,7.07773 0.9192,9.45162 1.12379,4.62602 -0.19445,12.27526 -2.11547,12.27526 -0.64151,0 -0.9119,-3.19978 -0.60085,-7.11062 0.3181,-3.99967 -0.11582,-7.11061 -0.99165,-7.11061 -0.85645,0 -2.06681,-4.08861 -2.6897,-9.08579 -0.62289,-4.99718 -1.6896,-9.44132 -2.37046,-9.87586 -0.68087,-0.43453 -0.65108,-4.34537 0.0662,-8.69075 2.81494,-17.05339 0.68367,-29.19338 -5.1298,-29.22021 -1.46959,-0.006 -3.13253,-0.7575 -3.69542,-1.66828 -0.6251,-1.01143 -3.6903,-1.25601 -7.87545,-0.62842 -13.44414,2.01608 -22.19253,-3.84877 -24.49053,-16.41825 l -1.05845,-5.7895 -1.2294,4.41391 c -2.18945,7.86077 2.85925,17.594 12.06396,23.25772 4.38326,2.69706 7.63523,5.23809 7.22658,5.64673 -1.40696,1.40695 -8.74273,-2.30438 -14.43692,-7.30393 -6.79951,-5.97006 -7.37122,-3.69117 -1.34446,5.35916 7.34977,11.03705 13.97021,24.59765 22.3277,45.73362 9.4246,23.83474 12.81416,34.71566 12.81416,41.13514 0,4.43337 0.22905,4.26702 4.20192,-3.05203 2.31105,-4.25756 5.52743,-10.40748 7.1475,-13.66651 1.62007,-3.25904 3.64005,-5.92552 4.48884,-5.92552 2.34375,0 1.85541,1.77696 -2.38838,8.69075 -7.28614,11.87025 -10.65643,20.5387 -12.32529,31.70101 -1.48046,9.90212 -1.32627,11.85779 1.36874,17.36026 3.5952,7.34038 20.27285,21.25483 25.47572,21.25483 1.99854,0 3.62679,-0.53329 3.61835,-1.1851 -0.008,-0.65181 -2.49714,-4.30719 -5.53048,-8.12306 -3.03332,-3.81587 -5.51513,-7.59091 -5.51513,-8.38898 0,-0.79806 -0.70961,-1.01245 -1.5769,-0.47644 -2.01826,1.24736 -11.0642,-4.03894 -11.0642,-6.46575 0,-2.96373 4.28353,-5.66725 8.09567,-5.10953 2.29713,0.33606 4.94781,3.08596 7.59263,7.87679 5.29799,9.59676 9.38369,13.97139 13.04866,13.97139 1.63073,0 3.37425,1.06659 3.87449,2.3702 1.06931,2.78656 13.99513,3.35885 15.64296,0.69261 0.57026,-0.92269 2.67571,-2.30071 4.67879,-3.06229 2.27269,-0.86407 4.36593,-3.64931 5.5676,-7.40817 3.83916,-12.00924 15.77792,-19.38163 17.04048,-10.5228 0.37658,2.64232 -0.90406,4.01415 -5.73854,6.14711 -6.25244,2.75857 -12.48512,11.80865 -10.42647,15.13963 1.72455,2.79036 4.68975,0.76987 14.81519,-10.09509 9.94737,-10.6739 9.96013,-10.69979 8.9502,-18.17157 -0.55626,-4.11534 -1.46057,-11.60639 -2.0096,-16.64678 l -0.99824,-9.16433 -4.22835,4.05101 c -6.98653,6.69352 -6.96523,2.35306 0.0234,-4.76784 3.56073,-3.62811 7.07161,-9.0043 7.80196,-11.9471 2.5508,-10.27785 11.10818,-32.23109 17.38832,-44.60827 3.48159,-6.86168 6.33017,-14.74 6.33017,-17.50738 0,-2.83246 1.99394,-8.17571 4.56211,-12.2253 2.50916,-3.95653 5.08621,-8.89542 5.72675,-10.97528 l 1.16464,-3.78158 -3.75158,3.25375 c -4.38415,3.80238 -11.45219,7.03182 -15.28192,6.98244 -1.47998,-0.0191 0.15946,-1.32959 3.64322,-2.91223 7.66356,-3.48148 16.59668,-13.23467 16.52763,-18.04488 -0.0491,-3.41791 -0.10492,-3.4281 -2.37021,-0.43307 -1.27597,1.68699 -2.31995,3.96176 -2.31995,5.05504 0,4.16555 -10.28941,10.04929 -17.5741,10.04929 -7.41211,0 -14.02864,-3.39595 -14.02864,-7.20021 0,-1.25435 -0.88883,-2.10285 -1.97518,-1.88558 -1.09212,0.21842 -2.19005,-1.45799 -2.4558,-3.74976 -0.37515,-3.23512 0.83864,-5.14252 5.53048,-8.69075 6.77525,-5.12385 15.14941,-9.38361 21.02241,-10.69371 2.17269,-0.48466 5.88007,-2.5601 8.23862,-4.61212 3.73974,-3.25367 4.16244,-4.52216 3.30469,-9.91668 -0.54096,-3.40218 -2.01916,-7.78567 -3.28489,-9.74109 -3.85668,-5.95815 1.6951,-4.51548 6.40963,1.66559 4.90691,6.43331 18.70465,11.70212 25.7566,9.83544 l 4.60926,-1.22009 -7.43775,-2.57275 c -8.25107,-2.85407 -13.2003,-6.52309 -8.79917,-6.52309 1.41169,0 7.00873,-4.99806 12.43786,-11.10681 10.33973,-11.63405 17.52324,-15.96985 29.67633,-17.91197 4.81822,-0.76997 7.93322,-0.44457 10.27089,1.07293 2.8844,1.87242 4.45243,1.80883 11.17326,-0.45311 4.2999,-1.44715 7.02957,-3.11847 6.06592,-3.71403 -4.21165,-2.60294 -28.54498,-6.02077 -36.12363,-5.07388 -10.23049,1.27821 -34.04755,12.75956 -43.33597,20.89071 -3.91084,3.42358 -10.35813,8.0125 -14.32731,10.19762 -6.25676,3.44446 -7.63668,3.69408 -10.37398,1.87657 -3.28673,-2.1823 -8.75276,-1.48274 -41.66447,5.33232 -21.35702,4.42244 -35.21044,4.39479 -52.93459,-0.10571 -11.93771,-3.03116 -16.65538,-5.00053 -19.29404,-8.05423 -4.95305,-5.73211 -9.91136,-6.42707 -24.70106,-6.42707 -13.5705,0 -17.49092,-3.67727 -21.98614,-5.90442 z"/>
<path fill="#800" d="m 129.82316,162.62933 c -2.38996,-0.36205 -4.34538,-1.24603 -4.34538,-1.9644 0,-1.90539 4.36218,-3.27033 7.0973,-2.22076 1.34567,0.51638 2.77411,-0.18285 3.32933,-1.62973 1.00397,-2.6163 8.53502,-3.62071 8.53502,-1.13831 0,0.76771 1.42212,1.76774 3.16027,2.22227 1.73815,0.45454 3.16027,1.60407 3.16027,2.5545 0,2.16324 -2.64363,2.26223 -3.95034,0.14793 -1.52753,-2.4716 -7.11061,-1.85126 -7.11061,0.79007 0,2.34412 -1.40988,2.52092 -9.87586,1.23843 z m 330.64367,3.64087 c 0,-2.76278 -5.53069,-3.48533 -7.11062,-0.92895 -1.30671,2.11429 -3.95034,2.0153 -3.95034,-0.14794 0,-0.95043 1.42212,-2.09996 3.16027,-2.5545 1.73815,-0.45453 3.16028,-1.45456 3.16028,-2.22227 0,-2.45176 7.52478,-1.4943 8.51392,1.08332 0.57297,1.49317 2.05419,2.13595 3.72435,1.6162 2.72136,-0.84687 8.13902,1.3833 6.67761,2.74882 -0.40937,0.38251 -3.76632,1.19473 -7.45989,1.80495 -5.54701,0.91641 -6.71558,0.67286 -6.71558,-1.39963 z m -360.982301,0.91756 c 2.158451,-1.88904 13.784931,-5.00679 18.670931,-5.00679 7.29578,0 4.47598,2.66095 -4.79224,4.52227 -10.62854,2.13452 -15.977378,2.32125 -13.878691,0.48452 z m 385.869461,4.1163 c -8.08212,-1.68442 -10.14066,-4.38268 -3.34361,-4.38268 4.88601,0 16.51248,3.11775 18.67093,5.00679 1.93555,1.69395 -5.6959,1.3832 -15.32732,-0.62411 z m -299.831,-0.0916 c 0,-3.52564 -9.13287,-7.62253 -17.41273,-7.81113 -4.46236,-0.10165 -8.69329,-1.09909 -9.67388,-2.28063 -0.95855,-1.15498 -2.72234,-2.09996 -3.91954,-2.09996 -1.1972,0 -2.17673,-1.00003 -2.17673,-2.22228 0,-2.37117 5.65067,-1.7201 7.2285,0.83287 0.47228,0.76418 3.26348,1.38941 6.20267,1.38941 2.93918,0 5.81338,0.75953 6.38712,1.68786 0.57374,0.92832 1.8973,1.3601 2.94124,0.95949 2.55325,-0.97977 12.00349,3.09607 12.00349,5.17705 0,0.91103 1.42212,1.65642 3.16027,1.65642 1.75571,0 3.16028,1.05342 3.16028,2.37021 0,1.47479 -1.49235,2.3702 -3.95035,2.3702 -2.17269,0 -3.95034,-0.91328 -3.95034,-2.02951 z m 221.21918,4.39972 c 0,-1.31678 1.40457,-2.37021 3.16027,-2.37021 1.73815,0 3.16028,-0.74539 3.16028,-1.65642 0,-2.08097 9.45023,-6.15682 12.00348,-5.17704 1.04395,0.4006 2.3675,-0.0312 2.94125,-0.9595 0.57373,-0.92832 3.44794,-1.68786 6.38712,-1.68786 2.93918,0 5.73038,-0.62523 6.20267,-1.3894 1.57783,-2.55298 7.22849,-3.20405 7.22849,-0.83287 0,1.22225 -0.97952,2.22227 -2.17673,2.22227 -1.19719,0 -2.96099,0.94498 -3.91953,2.09997 -0.98059,1.18153 -5.21153,2.17897 -9.67388,2.28062 -8.27987,0.1886 -17.41273,4.28549 -17.41273,7.81113 0,1.11623 -1.77766,2.02951 -3.95035,2.02951 -2.458,0 -3.95034,-0.89541 -3.95034,-2.3702 z m -180.53065,1.28097 c -1.52088,-0.39745 -2.76524,-1.38155 -2.76524,-2.1869 0,-0.80536 -1.28037,-1.46428 -2.84526,-1.46428 -5.51133,0 -11.3509,-3.83085 -11.36365,-7.45473 -0.0111,-2.99023 0.50931,-3.3023 3.54298,-2.12702 1.95542,0.75755 3.33743,2.27712 3.07113,3.37682 -0.38379,1.58481 0.0259,1.57618 1.97517,-0.0416 1.65955,-1.37732 2.45935,-1.4643 2.45935,-0.26747 0,0.97549 1.74843,1.77362 3.8854,1.77362 4.67451,0 14.64527,4.7488 15.75915,7.50565 0.80107,1.98263 -7.47684,2.51719 -13.71903,0.88594 z m -29.23254,-0.0653 c -3.44466,-1.20157 -2.13133,-3.5859 1.97517,-3.5859 2.17269,0 3.95035,0.63499 3.95035,1.41108 0,1.81903 -3.38444,3.0612 -5.92552,2.17482 z m 7.50565,2.73465 c 0,-0.86908 0.71107,-1.58014 1.58014,-1.58014 0.86908,0 1.58014,0.71106 1.58014,1.58014 0,0.86907 -0.71106,1.58014 -1.58014,1.58014 -0.86907,0 -1.58014,-0.71107 -1.58014,-1.58014 z m 194.75189,2.00576 c -3.44467,-1.20157 -2.13134,-3.5859 1.97517,-3.5859 2.17269,0 3.95034,0.63499 3.95034,1.41108 0,1.81903 -3.38443,3.0612 -5.92551,2.17482 z m -325.705877,6.19567 c 4.172543,-5.5502 11.537677,-12.94184 12.895435,-12.94184 0.776555,0 2.650283,-1.52932 4.163842,-3.39849 2.119863,-2.61792 3.735319,-3.15167 7.033492,-2.32388 5.068348,1.27208 4.048808,4.14223 -1.471419,4.14223 -2.375097,0 -3.857087,0.91069 -3.857087,2.37021 0,1.46017 -1.482426,2.3702 -3.861008,2.3702 -2.540146,0 -4.742758,1.49268 -6.438447,4.36326 -1.417592,2.39979 -4.353891,5.20161 -6.525109,6.22626 -3.58401,1.69138 -3.762697,1.61695 -1.939699,-0.80795 z M 351.05813,186.5449 c -5.05625,-4.6337 -5.42755,-5.40226 -2.6099,-5.40226 1.92421,0 3.61766,1.27207 4.08805,3.07084 0.48066,1.83806 2.43058,3.26533 4.8572,3.55531 3.34487,0.3997 3.66099,0.80759 1.80684,2.33142 -1.79387,1.4743 -3.4367,0.75694 -8.14219,-3.55531 z m 173.16928,6.73904 c -1.86739,-0.93054 -4.57407,-3.68748 -6.01485,-6.12653 -1.73362,-2.93477 -3.92546,-4.43464 -6.48062,-4.43464 -2.37858,0 -3.861,-0.91003 -3.861,-2.3702 0,-1.45952 -1.482,-2.37021 -3.85708,-2.37021 -5.52023,0 -6.53978,-2.87015 -1.47143,-4.14223 3.29817,-0.82779 4.91363,-0.29404 7.03349,2.32388 1.51357,1.86917 3.38729,3.39849 4.16385,3.39849 1.3648,0 8.69701,7.36751 12.97369,13.03613 2.31486,3.0683 2.30276,3.07164 -2.48605,0.68531 z M 269.13208,192.5047 c -3.34984,-3.56748 -5.27152,-8.81401 -2.60898,-7.12297 1.07639,0.68363 2.31261,1.32588 2.74715,1.42721 0.43454,0.10133 3.19515,1.10341 6.13468,2.22686 l 5.34462,2.04263 -3.76449,2.08671 c -4.69101,2.60032 -4.79971,2.59118 -7.85298,-0.66044 z m 78.74999,3.39279 c 3.49226,-1.40916 2.10397,-3.28029 -1.87016,-2.52059 -3.15692,0.60348 -3.70509,0.19879 -3.06199,-2.26047 0.43086,-1.64756 2.17663,-3.10051 3.87949,-3.22878 1.70287,-0.12828 2.71028,0.3911 2.23868,1.15417 -0.4716,0.76306 0.32392,2.04852 1.76784,2.85657 3.1068,1.73866 1.56538,5.09931 -2.25705,4.92085 -1.6452,-0.0768 -1.91297,-0.43102 -0.69681,-0.92175 z m -99.94368,-6.3671 c -6.93342,-8.13246 -7.8846,-11.02669 -3.36894,-10.25088 3.42185,0.58789 7.15148,4.02766 10.95459,10.10323 6.32859,10.11013 0.99645,10.21391 -7.58565,0.14765 z m 73.69896,12.37284 c -3.60241,-1.01111 -3.52271,-1.18076 2.37021,-5.04538 3.67585,-2.41065 6.00121,-5.12812 5.85439,-6.84157 -0.17914,-2.09056 0.57624,-2.6281 2.85554,-2.03205 2.67927,0.70064 2.82636,0.45266 1.08575,-1.83048 -1.10736,-1.45251 -1.39119,-2.1138 -0.63073,-1.46954 0.76046,0.64427 2.27359,0.43198 3.36253,-0.47176 6.03881,-5.01176 2.45831,9.37418 -3.92081,15.75331 -3.43751,3.43752 -4.78505,3.67536 -10.97688,1.93747 z m -102.93148,0.0905 c 0,-0.82639 1.14033,-2.44891 2.53406,-3.60561 1.8243,-1.51404 2.30901,-3.78113 1.73051,-8.09417 -0.91877,-6.84989 -0.59205,-7.10906 3.80168,-3.01569 3.129,2.91511 3.13561,3.09873 0.32649,9.06463 -2.58291,5.48546 -8.39274,9.39723 -8.39274,5.65084 z m 23.42986,-0.29497 c 0.33227,-3.48421 1.28343,-6.33492 2.11368,-6.33492 2.0139,0 0.98062,11.45876 -1.09454,12.13829 -0.99329,0.32526 -1.38882,-1.92702 -1.01914,-5.80337 z m 9.29517,6.30617 c 0.45454,-1.73815 1.38799,-3.16027 2.07434,-3.16027 0.68635,0 0.87603,1.42212 0.42149,3.16027 -0.45455,1.73816 -1.388,3.16028 -2.07434,3.16028 -0.68635,0 -0.87603,-1.42212 -0.42149,-3.16028 z m 43.12154,10.36415 c 0,-1.3549 0.71106,-2.46346 1.58014,-2.46346 0.86908,0 1.58014,0.6691 1.58014,1.48688 0,0.81779 -0.71106,1.92634 -1.58014,2.46346 -0.86908,0.53712 -1.58014,-0.13197 -1.58014,-1.48688 z m -8.94319,1.00189 c -0.45639,-1.74524 -2.36395,-3.6423 -4.23902,-4.21567 -2.33467,-0.71392 -2.73756,-1.31588 -1.27824,-1.90985 2.76232,-1.1243 9.72004,2.60088 9.72004,5.20413 0,3.49991 -3.33717,4.23152 -4.20278,0.92139 z m -58.16312,1.11907 c 1.41308,-4.4522 5.92714,-8.78518 10.46042,-10.04079 3.50198,-0.96996 3.46622,-0.83764 -0.63407,2.34601 -2.38996,1.85567 -4.34538,4.07649 -4.34538,4.93516 0,1.73532 -3.94638,6.07588 -5.5241,6.07588 -0.55518,0 -0.53577,-1.49231 0.0431,-3.31626 z m 102.36042,2.31688 c -0.54442,-1.41873 -0.12467,-3.96486 0.93274,-5.65806 1.64143,-2.62836 1.33129,-3.62654 -2.12083,-6.82586 -5.25871,-4.8736 -5.10198,-5.96194 0.67579,-4.69293 4.03216,0.88561 4.98927,0.4438 6.57418,-3.03472 1.97746,-4.34004 3.8606,-4.9518 7.66826,-2.4911 1.58014,1.02116 1.71181,1.53981 0.39503,1.55594 -1.08634,0.0133 -1.97517,0.81819 -1.97517,1.78863 0,1.00281 1.40309,1.39751 3.2505,0.9144 2.03185,-0.53134 3.02465,-0.17246 2.64811,0.95722 -0.33134,0.99399 -2.32363,2.21358 -4.42733,2.71019 -2.10368,0.49662 -4.08934,2.27615 -4.41258,3.95453 -0.32321,1.67838 -1.67993,3.85028 -3.01493,4.82645 -4.01732,2.93753 -0.71962,5.83292 5.34712,4.6948 2.99153,-0.56122 5.34952,-0.35004 5.34952,0.4791 0,4.04989 -15.36479,4.79711 -16.89041,0.82141 z m -25.73936,4.94973 c 0.0169,-3.6913 2.54628,-8.21741 3.85876,-6.90492 0.49733,0.49734 -0.17069,2.96546 -1.48448,5.48472 -1.90896,3.66049 -2.38583,3.94573 -2.37428,1.4202 z m 19.7142,5.52468 c -0.53908,-0.87227 -2.63666,-1.17018 -4.66128,-0.66204 -4.89706,1.22909 -5.9778,-0.97018 -2.64681,-5.38617 2.25933,-2.99525 3.3796,-3.34165 6.71089,-2.0751 2.19935,0.8362 5.20608,3.36285 6.68161,5.6148 2.63656,4.0239 2.6157,4.09444 -1.21073,4.09444 -2.14143,0 -4.33458,-0.71367 -4.87368,-1.58593 z m 45.90391,1.70948 c -0.58872,-0.95258 -0.5928,-3.23677 -0.009,-5.07598 0.68919,-2.17147 0.47426,-2.98118 -0.61295,-2.30924 -0.92087,0.56913 -5.26342,-0.90365 -9.65012,-3.27284 -8.14876,-4.40103 -9.87536,-7.88141 -5.88839,-11.86957 1.14808,-1.14842 3.20497,-5.36836 4.57089,-9.37763 2.72871,-8.00944 7.14704,-14.04226 10.28431,-14.04226 2.68751,0 2.5765,3.89079 -0.17619,6.17533 -1.20737,1.00203 -2.53294,3.58856 -2.94572,5.74785 l -0.7505,3.92599 5.41857,-4.13295 c 2.98022,-2.27312 8.63742,-7.26131 12.57157,-11.08486 4.06506,-3.95078 8.62519,-6.93116 10.56328,-6.90386 3.07588,0.0434 3.13913,0.20598 0.64504,1.65866 -1.52088,0.88583 -2.76524,2.62831 -2.76524,3.87218 0,1.24388 -1.71603,2.69229 -3.8134,3.21869 -2.21098,0.55492 -4.19895,2.49319 -4.73089,4.61262 -0.55263,2.20189 -2.79979,4.3117 -5.65106,5.30565 -3.00581,1.04783 -5.70872,3.69501 -7.40517,7.2525 -1.46937,3.08129 -3.96545,6.01301 -5.54683,6.51492 -4.46254,1.41636 -3.40591,4.60164 2.45335,7.39573 3.41815,1.63 5.71561,4.08297 6.40803,6.84177 1.13449,4.52017 -1.06497,8.62892 -2.96952,5.5473 z M 67.356705,247.26424 c 0.389375,-1.16934 1.975282,-2.37175 3.524236,-2.67202 1.801382,-0.3492 2.561156,0.22023 2.108326,1.58014 -0.389375,1.16934 -1.975282,2.37175 -3.524236,2.67202 -1.801382,0.3492 -2.561156,-0.22023 -2.108326,-1.58014 z m 460.200975,4.87941 c -0.57285,-0.92689 -0.64549,-2.08133 -0.1614,-2.56541 1.29988,-1.29988 5.75685,0.72926 5.75685,2.62095 0,2.14465 -4.2618,2.10235 -5.59545,-0.0555 z m -443.558494,10.1196 c 1.086345,-0.43834 2.863999,-0.43834 3.950343,0 1.086344,0.43835 0.197517,0.79701 -1.975171,0.79701 -2.172689,0 -3.061516,-0.35866 -1.975172,-0.79701 z m 293.089544,-1.50293 c 1.03487,-2.27127 2.15329,-3.3144 2.48539,-2.31809 0.83971,2.51916 -0.84868,6.44765 -2.77109,6.44765 -1.00149,0 -0.89508,-1.53799 0.2857,-4.12956 z m 135.12758,6.24334 c 1.08635,-0.43834 2.864,-0.43834 3.95035,0 1.08634,0.43835 0.19751,0.79701 -1.97517,0.79701 -2.17269,0 -3.06152,-0.35866 -1.97518,-0.79701 z M 363.2884,266.47002 c -0.53712,-0.86908 -0.22356,-1.58014 0.69681,-1.58014 0.92037,0 1.6734,0.71106 1.6734,1.58014 0,0.86907 -0.31356,1.58014 -0.69681,1.58014 -0.38325,0 -1.13628,-0.71107 -1.6734,-1.58014 z m 7.42688,-0.72696 c -1.07029,-2.34905 -1.19082,-4.26302 -0.303,-4.81172 0.81083,-0.50113 1.936,0.92872 2.50039,3.17743 1.37519,5.47921 0.0158,6.4906 -2.19739,1.63429 z m 6.00429,3.88723 c 0,-0.86907 0.62813,-1.58013 1.39584,-1.58013 0.76771,0 1.88217,-1.59989 2.47655,-3.55531 0.6087,-2.00249 1.42408,-2.73089 1.86692,-1.66774 0.95758,2.29905 -2.10132,8.38332 -4.21477,8.38332 -0.83849,0 -1.52454,-0.71106 -1.52454,-1.58014 z m -22.91199,0 c -3.01547,-1.29579 -2.99736,-1.3631 0.39503,-1.46907 1.95542,-0.0611 3.55531,0.6 3.55531,1.46907 0,0.86908 -0.17776,1.53016 -0.39503,1.46907 -0.21727,-0.061 -1.81716,-0.72215 -3.55531,-1.46907 z m -21.33185,14.45875 c 0,-0.77852 2.60329,-3.63917 5.78507,-6.35699 3.9803,-3.39989 7.30777,-4.8843 10.66593,-4.75819 3.32511,0.12483 3.87353,0.42699 1.72058,0.94782 -1.73815,0.42049 -4.5824,1.98438 -6.32055,3.47532 -5.17898,4.44241 -11.85103,8.20998 -11.85103,6.69204 z m -225.56456,5.03654 c -3.76856,-1.52064 -1.95055,-3.14297 2.74912,-2.45321 2.59836,0.38137 4.33405,1.3248 3.85709,2.09654 -0.93065,1.50581 -3.42463,1.64047 -6.60621,0.35667 z m 379.7373,4.38374 c -0.47697,-0.77174 1.25873,-1.71517 3.85708,-2.09654 4.99655,-0.73332 6.44531,0.92103 2.22485,2.54058 -3.44255,1.32102 -5.06423,1.20262 -6.08193,-0.44404 z m -129.68062,28.26549 c 0.53712,-0.86907 2.17898,-1.56925 3.64857,-1.55594 2.30269,0.0209 2.3444,0.2359 0.30178,1.55594 -3.0945,1.99982 -5.1863,1.99982 -3.95035,0 z m -103.49897,15.0113 c -1.0819,-1.30361 -2.92431,-2.3702 -4.09423,-2.3702 -1.22467,0 -1.74804,-0.9879 -1.2336,-2.32852 0.76654,-1.99756 1.42371,-1.94142 4.62367,0.39503 3.96501,2.89505 6.23456,6.6739 4.00832,6.6739 -0.73538,0 -2.22225,-1.06659 -3.30416,-2.37021 z m 96.38836,28.29124 c 0,-0.51772 1.24436,-3.10772 2.76524,-5.75557 1.96243,-3.41661 2.22532,-5.00537 0.90553,-5.47245 -1.39656,-0.49425 -1.33402,-1.90839 0.25108,-5.67825 1.4727,-3.50251 1.63601,-5.9072 0.54025,-7.95466 -0.8638,-1.61402 -1.141,-4.64602 -0.61602,-6.73775 0.5406,-2.15389 0.25624,-3.80317 -0.65571,-3.80317 -0.88563,0 -1.61023,-1.21897 -1.61023,-2.70881 0,-2.52541 0.17782,-2.53097 2.62677,-0.082 1.85375,1.85375 2.84164,6.33865 3.35694,15.2402 0.63752,11.01262 0.28779,13.32924 -2.75564,18.2536 -3.30114,5.34137 -4.80821,6.81416 -4.80821,4.69888 z m -8.51685,18.71784 c 0.56329,-2.38996 1.74018,-5.05644 2.61527,-5.92551 1.06656,-1.05922 1.26688,-0.27782 0.60765,2.3702 -0.54092,2.17269 -0.99318,4.83917 -1.00505,5.92552 -0.0126,1.08634 -0.74617,1.97517 -1.63181,1.97517 -0.95149,0 -1.19125,-1.7777 -0.58606,-4.34538 z m 1.26577,12.12482 c 2.24994,-2.67389 4.0908,-6.82175 4.0908,-9.21746 0,-4.62579 1.25914,-6.84757 3.20067,-5.64763 2.60164,1.6079 -6.43943,19.72674 -9.8434,19.72674 -0.84639,0 0.30198,-2.18774 2.55193,-4.86165 z m -1.31421,11.32046 c 2.38902,-2.53117 5.2358,-6.61978 6.32616,-9.08578 1.83624,-4.15295 1.99192,-4.21755 2.11079,-0.87567 0.0759,2.12998 -2.11563,5.85196 -5.34948,9.08579 -6.62676,6.62678 -9.20605,7.3583 -3.08747,0.87566 z m -15.34945,16.70945 c 0.96492,-1.16267 1.94082,-4.70854 2.16866,-7.8797 0.22782,-3.17118 1.30306,-6.10843 2.3894,-6.52723 2.74111,-1.05674 2.47751,-7.95746 -0.39503,-10.34146 -2.9311,-2.43259 -2.96004,-6.19972 -0.077,-10.00398 2.48101,-3.27365 3.14664,-21.59876 0.78454,-21.59876 -0.82374,0 -1.49772,-0.71107 -1.49772,-1.58014 0,-0.86908 1.16022,-1.58014 2.57827,-1.58014 2.07566,0 2.41403,-1.15509 1.73582,-5.92551 -0.46332,-3.25903 -1.38859,-7.34764 -2.05612,-9.08579 -1.19724,-3.1174 -1.1672,-3.11944 2.2145,-0.15011 l 3.42822,3.01014 0,-5.58191 c 0,-3.07005 -1.06659,-6.46709 -2.37021,-7.54899 -1.30361,-1.08191 -2.3702,-2.85956 -2.3702,-3.95035 0,-1.09078 -1.06659,-2.86843 -2.37021,-3.95034 -1.30361,-1.0819 -2.33291,-3.12439 -2.28732,-4.53885 0.0615,-1.90604 0.77723,-1.5714 2.76523,1.29281 1.4753,2.1255 3.97441,5.32528 5.55359,7.11061 2.86945,3.24406 2.87079,3.24363 2.17836,-0.70429 -0.38107,-2.17269 -1.21589,-5.19471 -1.85516,-6.71559 -0.82747,-1.96858 -0.43078,-2.76524 1.37693,-2.76524 3.01152,0 3.27243,-1.79505 0.6431,-4.42438 -1.47479,-1.47479 -1.29922,-1.89616 0.79007,-1.89616 1.78838,0 2.68623,-1.27841 2.68623,-3.82479 0,-2.96498 -1.06564,-4.05885 -4.74041,-4.86597 -3.63496,-0.79838 -4.74041,-1.91135 -4.74041,-4.77271 0,-2.05234 -0.71106,-4.17099 -1.58014,-4.70811 -2.8794,-1.77957 -1.63909,-7.48366 2.45162,-11.2748 4.96134,-4.59802 7.01686,-4.92767 2.99156,-0.47976 -2.23381,2.46833 -2.47142,3.55087 -0.98146,4.47171 1.08123,0.66822 1.55389,2.28856 1.05037,3.60072 -1.05455,2.74811 2.61628,6.37773 5.77758,5.71275 1.42125,-0.29898 1.99808,0.84022 1.71506,3.3872 -0.23454,2.11073 0.41781,4.35945 1.44967,4.99718 1.41689,0.87568 1.00572,5.93126 -1.67981,20.65444 -1.95577,10.72221 -4.09866,23.0138 -4.76198,27.31463 -0.66333,4.30082 -1.90078,8.05126 -2.74987,8.33429 -0.8491,0.28304 -1.23015,2.65169 -0.84679,5.26371 0.63992,4.35997 0.87184,4.51865 2.8307,1.9366 4.50132,-5.93342 0.43041,8.27162 -4.54793,15.86952 -2.74064,4.18275 -2.49984,7.39024 0.55481,7.39024 0.81779,0 1.48688,-1.02463 1.48688,-2.27695 0,-1.25232 0.64365,-2.67475 1.43033,-3.16095 2.53175,-1.5647 0.8989,11.16989 -1.99938,15.59323 -2.20474,3.36485 -2.40172,4.76049 -0.92332,6.54185 1.08993,1.31328 1.21485,2.26446 0.29742,2.26446 -0.87005,0 -2.46551,2.13318 -3.54546,4.74041 -1.07994,2.60723 -3.03094,4.74041 -4.33553,4.74041 -1.80147,0 -1.95,-0.50844 -0.61757,-2.11394 z m -57.21016,-2.62648 c 1.17302,-6.59923 3.27905,-11.06095 5.22106,-11.06095 0.77641,0 2.5629,-1.15125 3.96998,-2.55833 1.40708,-1.40706 3.03608,-2.08056 3.61998,-1.49664 0.58393,0.58393 -1.27088,2.88718 -4.1218,5.11835 -2.85278,2.23264 -4.82059,5.00233 -4.37641,6.15983 0.44389,1.15674 -0.56608,3.73782 -2.24439,5.73569 l -3.05145,3.63253 0.98303,-5.53048 z m 9.48002,3.16028 c 2.40324,-4.06838 5.27912,-6.27642 5.27912,-4.05321 0,3.16195 -3.57403,8.79362 -5.58071,8.79362 -2.21108,0 -2.17637,-0.54556 0.30159,-4.74041 z"/>
<path fill="#fff" d="m 254.18702,311.73086 c 1.8979,-2.04789 4.46817,-4.12493 5.71168,-4.61567 1.77514,-0.70054 1.70311,-0.91906 -0.33525,-1.01699 -1.4279,-0.0686 -3.02586,-1.24447 -3.55102,-2.61301 -0.83261,-2.16974 -1.48836,-2.06861 -5.12255,0.79006 -9.98402,7.85343 -19.5265,-0.33502 -12.34271,-10.59131 1.99162,-2.84344 2.04587,-3.51187 0.28497,-3.51187 -2.99212,0 -9.06531,7.27544 -9.06531,10.85989 0,2.81075 5.20743,10.77783 8.63628,13.21301 3.64165,2.58631 12.34122,1.2006 15.78391,-2.51411 z"/>
<path fill="#fd0" d="m 508.58508,310.91023 c 3.9526,-1.74842 7.18654,-3.46767 7.18654,-3.82055 0,-0.35289 -5.19015,-0.30852 -11.53367,0.0986 -10.08312,0.6471 -12.51754,0.23755 -19.35668,-3.25648 -19.06429,-9.73973 -26.68644,-26.14629 -20.41069,-43.93368 4.61501,-13.08035 15.43154,-20.25612 30.75926,-20.40595 7.4755,-0.0731 8.31249,-0.37234 5.98564,-2.14011 -1.48781,-1.13033 -7.59602,-2.978 -13.5738,-4.10592 -8.59431,-1.62163 -12.16151,-1.65207 -17.04662,-0.14549 -8.10245,2.49885 -16.42497,6.60073 -19.50709,9.61438 -2.77443,2.7128 -9.58279,15.94977 -9.58279,18.63108 0,0.95732 1.59989,3.28007 3.55531,5.1617 l 3.55531,3.42114 -4.26621,-0.75512 c -2.77442,-0.49109 -4.56625,0.0267 -5.12426,1.4809 -1.07249,2.79484 3.24311,11.37915 6.31282,12.55712 3.35656,1.28803 2.78768,3.69998 -0.87269,3.69998 -4.10607,0 -4.03599,3.4581 0.14679,7.24344 2.51631,2.27722 5.57451,2.96202 12.79001,2.86399 7.32112,-0.0996 8.81864,0.24466 6.56882,1.5095 -1.60278,0.90109 -5.40287,2.07036 -8.44463,2.59836 l -5.53048,0.96003 4.89334,2.59861 c 2.89948,1.53979 6.44063,2.19952 8.69075,1.61914 3.33685,-0.86067 3.54548,-0.67213 1.72022,1.55457 -1.76157,2.14899 -1.59607,2.7915 1.0892,4.22864 2.09561,1.12151 3.49755,1.15879 4.14563,0.11013 0.53858,-0.87141 2.09092,-1.5844 3.44965,-1.5844 2.11937,0 2.16226,0.37301 0.30177,2.62486 -2.00265,2.42394 -1.05567,2.55312 12.3717,1.68766 9.36272,-0.60347 17.09937,-2.06917 21.72688,-4.11614 z"/>
<path fill="#fd0" d="m 125.47778,308.34365 c -1.60587,-1.93496 -1.51344,-2.37021 0.50334,-2.37021 1.35873,0 2.91107,0.71299 3.44965,1.58441 0.64807,1.04861 2.05002,1.01133 4.14562,-0.11014 2.68528,-1.43713 2.85078,-2.07965 1.08921,-4.22864 -1.82527,-2.22669 -1.61663,-2.41523 1.72021,-1.55457 2.25012,0.58039 5.79126,-0.0793 8.69076,-1.61913 l 4.89334,-2.59861 -5.53048,-0.96003 c -3.04177,-0.52801 -6.84185,-1.69728 -8.44464,-2.59836 -2.2498,-1.26484 -0.7523,-1.60898 6.56882,-1.50951 7.21552,0.098 10.27371,-0.58677 12.79001,-2.86398 4.18275,-3.78535 4.25282,-7.24344 0.14676,-7.24344 -3.66037,0 -4.22925,-2.41196 -0.87268,-3.69999 3.0697,-1.17796 7.38529,-9.76228 6.31281,-12.55711 -0.55801,-1.45415 -2.34983,-1.972 -5.12426,-1.48091 l -4.26621,0.75512 3.55531,-3.42114 c 4.40782,-4.24148 4.40782,-5.16698 0,-14.13887 -4.21751,-8.58453 -6.67603,-11.1823 -13.92817,-14.71707 -11.83603,-5.76901 -17.1211,-6.58165 -28.65301,-4.40573 -5.97779,1.12793 -12.086,2.97559 -13.573814,4.10592 -2.326847,1.76778 -1.489858,2.06703 5.985644,2.14011 15.32773,0.14985 26.14425,7.32561 30.75926,20.40595 6.27576,17.78739 -1.3464,34.19395 -20.41069,43.93368 -6.83913,3.49403 -9.27355,3.90359 -19.356677,3.25649 -6.343521,-0.40709 -11.533676,-0.50971 -11.533676,-0.228 0,0.28169 2.18751,1.64338 4.861134,3.02596 6.4194,3.3196 15.783419,5.08281 28.120189,5.29492 8.78204,0.15106 9.81786,-0.12989 8.10224,-2.19707 z"/>
<path fill="#fff" d="m 373.4152,308.41817 c 7.75255,-4.009 10.55729,-16.64335 4.53296,-20.41942 -4.47404,-2.80433 -7.3001,1.2437 -3.66923,5.25578 2.67804,2.9592 2.69322,3.40731 0.24227,7.14795 -4.16083,6.35021 -13.603,4.58145 -13.603,-2.54819 0,-1.99053 1.14877,-2.66481 4.17281,-2.44921 2.29504,0.1636 4.48748,-0.59135 4.87208,-1.6777 1.28974,-3.64293 -7.45068,-2.1329 -11.58506,2.00148 -2.92801,2.92801 -3.69066,4.90724 -2.89215,7.50565 0.59648,1.94095 1.17393,3.60189 1.28324,3.691 4.99541,4.0719 10.67372,4.58108 16.64608,1.49266 z"/>
<path fill="#fff" d="m 246.35054,299.66541 c 0.53285,-0.86219 0.34365,-2.68478 -0.42048,-4.05019 -1.24037,-2.21641 -1.60294,-2.22517 -3.38182,-0.0817 -1.99914,2.4088 -1.16783,5.69953 1.43982,5.69953 0.76649,0 1.82961,-0.70543 2.36248,-1.56762 z"/>
<path fill="#ccc" d="m 421.46898,261.33865 -6.60503,-1.59156 7.97446,-8.09453 c 4.38595,-4.45199 9.13588,-8.12774 10.55538,-8.16833 1.4195,-0.0406 2.40315,-0.92942 2.18588,-1.97518 -0.42436,-2.04256 0.61257,-2.33879 8.93658,-2.55297 6.77744,-0.17439 8.74384,-4.08881 2.054,-4.08881 -8.38978,0 -16.7325,4.7571 -26.79195,15.27705 -5.43172,5.68037 -9.87586,10.5587 -9.87586,10.84076 0,1.02378 5.67246,1.95793 11.85103,1.95161 l 6.32055,-0.006 -6.60504,-1.59158 z"/>
<path fill="#fff" d="m 507.39426,257.53238 c 0.67249,-1.7525 -0.65716,-4.10157 -4.02486,-7.11062 -5.55542,-4.96375 -12.64872,-5.82379 -18.99843,-2.3035 -3.67998,2.04018 -3.62242,2.11052 3.16027,3.86113 3.79969,0.98071 9.04172,3.21548 11.64894,4.96618 5.76684,3.8723 6.92165,3.9548 8.21408,0.58681 z"/>
<path fill="#ccc" d="m 188.33317,257.22672 c 3.34163,-0.95378 2.77061,-1.85134 -7.94869,-12.49437 -11.5062,-11.42433 -17.38271,-14.60549 -26.98051,-14.60549 -7.58598,0 -3.90295,3.87029 4.58915,4.82249 4.27799,0.47968 6.71156,1.31217 5.40795,1.84998 -1.30361,0.53781 -3.4368,1.39434 -4.74041,1.90341 -1.30361,0.50906 0.62399,0.63679 4.28357,0.28384 4.2806,-0.41285 7.27229,0.10354 8.38795,1.44784 1.33995,1.61453 0.90497,2.24799 -1.91336,2.78643 -3.09015,0.59038 -2.94976,0.72976 0.91867,0.91206 2.51142,0.11835 5.4788,1.45954 6.59419,2.98043 1.73044,2.35953 1.52417,3.06697 -1.40594,4.82183 -3.15015,1.88664 -2.96757,1.98303 2.20955,1.16641 8.27105,-1.30464 9.1683,1.19518 1.19458,3.32823 l -6.83805,1.82926 6.32055,-0.003 c 3.47631,-0.001 7.94067,-0.46479 9.9208,-1.02996 z"/>
<path fill="#fff" d="m 102.28442,251.61363 c 3.63106,-2.08748 9.04039,-4.30517 12.02073,-4.9282 l 5.41881,-1.13277 -3.83867,-2.12643 c -6.43814,-3.56639 -13.50824,-2.73115 -19.088838,2.25512 -3.367706,3.00905 -4.697363,5.35812 -4.024863,7.11062 1.295831,3.37688 1.669881,3.33055 9.512831,-1.17834 z"/>
<use id="shine" xlink:href="#shield" fill="url(#rg)" stroke="#000" stroke-width="3"/>
</svg>