<?xml version="1.0" encoding="UTF-8"?>
<svg xmlns="http://www.w3.org/2000/svg" xmlns:xlink="http://www.w3.org/1999/xlink" width="600" height="600">
<defs>
  <radialGradient id="rg" gradientUnits="userSpaceOnUse" cx="220" cy="220" r="405">
    <stop style="stop-color:#fff;stop-opacity:.3" offset="0"/>
    <stop style="stop-color:#fff;stop-opacity:.2" offset=".2"/>
    <stop style="stop-color:#666;stop-opacity:.1" offset=".6"/>
    <stop style="stop-color:#000;stop-opacity:.13" offset="1"/>
  </radialGradient>
  <circle id="shield" cx="300" cy="300" r="298"/>
  <path id="tail2" fill="none" stroke="#fff" stroke-width="5" stroke-linecap="round" d="M110,300 A400,400 0,0,1 500,300"/>
  <path id="tail3" fill="none" stroke="#fff" stroke-width="5" stroke-linecap="round" d="M120,300 A400,400 0,0,1 500,300"/>
  <path id="tail4" fill="none" stroke="#fff" stroke-width="5" stroke-linecap="round" d="M130,300 A400,400 0,0,1 500,300"/>
</defs>
<use id="background" xlink:href="#shield" fill="#b378d4"/>
<g transform="rotate(45,300,300)">
<path id="tail" fill="none" stroke="#fff" stroke-width="5" stroke-linecap="round" d="M100,300 A400,400 0,0,1 500,300"/>
<use xlink:href="#tail4" transform="rotate(-3.3,500,300)"/>
<use xlink:href="#tail3" transform="rotate(-2.2,500,300)"/>
<use xlink:href="#tail2" transform="rotate(-1.1,500,300)"/>
<use xlink:href="#tail" transform="rotate(2,500,300)"/>
<use xlink:href="#tail" transform="rotate(4,500,300)"/>
<use xlink:href="#tail" transform="rotate(6,500,300)"/>
<path style="fill:#ffffff;stroke:#b378d4;stroke-width:2;" d="m 482.6,232.1 7,37.3 33.1,-19 -21.5,31.5 36.7,9.8 -37.3,7.1 19,33.1 -31.5,-21.5 -9.7,36.8 -7.2,-37.4 -33.1,19 21.6,-31.5 -36.8,-9.8 37.4,-7.2 -19.1,-33 31.5,21.5 z"/>
<path style="fill:#ffffff;stroke:#b378d4;stroke-width:2;" d="m 291.10457,519.24769 c 5.8891,23.9888 13.34312,23.9888 18.94394,0 5.60082,-23.98878 7.33048,-53.51661 1.15311,-77.5054 -6.17737,-23.98878 -16.22589,-23.98878 -22.40326,0 -6.17737,23.98879 -3.58288,53.51662 2.30621,77.5054 z"/>
<path style="fill:#ffffff;stroke:#b378d4;stroke-width:2;" d="m 281.17467,435.18441 37.65065,0 -5.45447,-350.77532 -13.37086,-30.322653 -13.37085,30.322653 -5.45447,350.77532 z"/>
<path fill="#b378d4" d="m 298.17384,432.01882 1.35957,-333.660396 4.09491,333.660396 -5.45448,0 z"/>
<path fill="#b378d4" d="m 293.68271,531.05933 c -0.22449,-0.54399 -0.4441,-1.0806 -0.64862,-1.62156 l 18.07137,-10.52212 c -0.18025,0.77121 -0.36947,1.53771 -0.55853,2.30622 l -16.86422,9.83746 z m -3.17105,-9.69332 c -0.15235,-0.57518 -0.30303,-1.15294 -0.45043,-1.72967 l 23.63873,-13.78326 c -0.12267,0.74645 -0.24708,1.48939 -0.37836,2.23415 l -22.80994,13.27878 z m -2.3963,-10.12574 c -0.12511,-0.59424 -0.25869,-1.18823 -0.37837,-1.78372 l 27.60255,-16.07146 c -0.069,0.71028 -0.13911,1.4166 -0.21621,2.12605 l -27.00797,15.72913 z m -1.90985,-10.43204 c -0.0936,-0.60616 -0.18245,-1.21268 -0.27026,-1.81975 l 30.17904,-17.58492 c -0.0205,0.67787 -0.0438,1.35829 -0.0721,2.03596 l -29.8367,17.36871 z m -1.33327,-10.75635 c -0.06,-0.62565 -0.12667,-1.24758 -0.18018,-1.8738 l 31.38619,-18.28758 c 0.0244,0.65588 0.0374,1.30766 0.054,1.96388 l -31.26007,18.1975 z m -0.73872,-11.09867 c -0.0219,-0.65268 -0.0394,-1.31103 -0.054,-1.96389 l 31.20602,-18.17949 c 0.0667,0.62843 0.12094,1.26263 0.18017,1.89182 l -31.33214,18.25156 z m 0,-11.53109 c 0.0231,-0.67902 0.0407,-1.35725 0.0721,-2.03596 l 29.54843,-17.20655 c 0.0463,0.20855 0.0975,0.42321 0.14414,0.63061 0.0679,0.39177 0.13345,0.77888 0.19819,1.17112 l -29.96283,17.44078 z m 0.84682,-12.01756 c 0.10815,-0.72245 0.21343,-1.45158 0.32431,-2.1801 l 26.05306,-15.18861 c 0.16354,0.5753 0.3186,1.14982 0.46845,1.72966 l -26.84582,15.63905 z"/>
<path style="fill:#ffffff;stroke:#b378d4;stroke-width:2;" d="m 253.33688,429.67151 93.32623,0 0,12.37312 -93.32623,0 z"/>
<path style="fill:#ffffff;stroke:#b378d4;stroke-width:2;" d="m 316.59862,528.07763 a 16.59863,16.59863 0 1 0 -33.19726,0 16.59863,16.59863 0 0 0 33.19726,0 z"/>
<path style="fill:#ffffff;stroke:#b378d4;stroke-width:2;" d="m 307.00562,528.07761 a 7.0056539,7.0056539 0 1 0 -14.0113,0 7.0056539,7.0056539 0 1 0 14.0113,0 z"/>
</g>
<use id="shine" xlink:href="#shield" fill="url(#rg)" stroke="#000" stroke-width="3"/>
</svg>
