<?xml version="1.0" encoding="UTF-8"?>
<svg xmlns="http://www.w3.org/2000/svg" xmlns:xlink="http://www.w3.org/1999/xlink" width="600" height="660">
<defs>
  <radialGradient id="rg" gradientUnits="userSpaceOnUse" cx="220" cy="220" r="405">
    <stop style="stop-color:#fff;stop-opacity:.3" offset="0"/>
    <stop style="stop-color:#fff;stop-opacity:.2" offset=".2"/>
    <stop style="stop-color:#666;stop-opacity:.1" offset=".6"/>
    <stop style="stop-color:#000;stop-opacity:.13" offset="1"/>
  </radialGradient>
  <path id="shield" d="m2,2v257c0,286 298,398 298,398c0,0 298-112 298-398V2z"/>
</defs>
<use xlink:href="#shield" fill="#6b1b1b"/>
<g id="pig" style="fill:#ffc0cb;stroke:#6b1b1b;stroke-width:1;stroke-linecap:round;stroke-linejoin:round;">
	<use xlink:href="#wing" transform="rotate(-8.2092,249.81,302.54)"/>
	<path d="m 343.99,437.39 c 0.17,-26.22 25.25,-57.65 43.95,-65.94"/>
	<path d="m 423.7,438.14 c -2.14,6.37 -5.15,9.58 -8.85,21.9 -0.77,2.58 -6.55,16.42 -3.53,20.86 -0.99,7.35 -4.07,12.85 -5.76,21.88 -2.68,2.14 -1.86,4.44 -1.59,6.36 1.01,3.19 -1,5.62 -2.65,9.64 -2.26,2.63 -7.02,1.09 -7.74,-1.03 -4.05,4.3 -4.09,4.69 -7.52,5.03 -4.86,2.26 -8.42,1.13 -12.63,-0.59 4.01,-5.65 8.52,-9.21 13.49,-13.59 3.34,-5.56 4.25,-7.46 4.75,-12.43 0.43,-4.46 -1.25,-11.01 -1.47,-16.84 -0.84,-7.82 -3.73,-15.77 -10.69,-19.33 -32.69,-16.72 -57.12,-26.68 -48.7,-56.39" />
	<path d="m 224.58,303.54 c 1.52,27.96 -16.11,65.25 -8.42,87.48 -2.84,8.44 -9.62,14.55 -6.32,21.58 -2.56,6.12 0.23,8.43 -2.02,13.98 -9.03,-2.98 -7.72,9.12 -15.46,10.28 -4.76,2.54 -9.6,-1.48 -13.89,-2.9 3.71,-5.87 8.01,-9.67 12.73,-14.34 6.27,-9.45 3.05,-19.09 1.67,-29.39 -5.56,-33.92 -31.45,-30.11 -41.4,-66.8" />
	<path d="m 484.21,362.45 c -0.63,-2.31 -0.85,-6.65 -1.04,-9.84 -0.85,-4.31 1.01,-8.45 4.5,-8.69 7.02,-1.61 12.64,7.3 9.16,13.23 -5.53,9.41 -19.98,5.48 -29.73,3.88 -7.98,-1.36 -15.63,-3.09 -19.06,-4.26 l -1.76,8.95 c 2.14,1.72 13.59,3.88 21.94,4.55 9.41,1.24 17.55,1.84 25.04,-0.3 7.06,-1.35 11.24,-6.3 12.54,-11.31 3.24,-12.49 -4.92,-24.16 -18.74,-23.74 -5.91,0.39 -11.2,4.39 -13.01,11.67 -0.39,3.01 0.22,10.93 1.4,15.51 m 11.76,8.95 c 0.62,3.27 6.93,8.32 7.84,7.87 2.66,0.16 7.07,5.85 2.29,9.17 -3.47,1.7 -7.68,0.13 -10.99,-2.34 -2.82,-2.19 -9.39,-9.55 -10.12,-14.49" />
	<path d="m 119.76,240.41 c -10.27,-3.01 -8.16,-10.51 -11.83,-22.19 -6.18,-16.27 0.23,-23.41 5.67,-32.73 3.66,8.08 14.93,17.45 23.87,27.27 4.85,5.3 8.34,13 5.1,19.41" />
	<path d="m 156.26,337.73 c -6.14,-8.36 -16.24,-19.19 -27.78,-24.66 -8.45,-4.91 -17.63,-2.16 -26.73,-3.54 -12.9,-2.18 -31.756,-7.42 -40.405,-18.56 -1.51,-1.95 -1.699,-4.25 -2.642,-6.61 11.445,1.61 25.387,2.74 25.682,0.74 0.956,-0.57 -10.889,1.32 -27.119,-4.27 -2.655,-0.92 -6.671,-3.73 -9.23,-4.37 -7.043,-1.74 -11.981,-7.33 -13.273,-15.63 -0.605,-4.36 1.404,-7.9 5.494,-10.19 5.699,-1.57 9.884,-0.78 13.463,-0.94 9.1,-0.48 15.561,-1.17 24.182,-4.09 12.991,-4.4 16.696,-4.91 24.388,-8.07 18.83,-29.52 60.43,-35.2 94.12,-24.83 33.7,10.37 61.51,11.05 116.9,37.84 55.39,26.8 79.07,37.4 104.19,60.9 25.12,23.5 43.2,52.86 42.39,78.37 -1.73,54.62 -12.16,57.09 -17.65,71.92 -5.43,14.65 1.41,31.86 5.64,44.43 1.05,3.99 0.83,2.82 2.02,9.21 3.08,3.01 6.2,7.67 3.79,12.11 -6.38,1.3 -7.64,-2.09 -10.76,0.64 2.24,6.57 -1.68,8.39 -5.17,10.64 -3.97,5.13 -8.43,5.88 -13.84,6.47 1.16,-8.3 4.01,-14.61 6.91,-22.08 0.49,-7.82 0.43,-10.39 -1.82,-15.99 -2,-5 -7.44,-11.1 -10.91,-17.24 -4.08,-4.73 -10.22,-11.84 -13.02,-18.81 -6.85,-16.97 -50.28,-26.33 -61.1,-33.87 -25.89,-9.56 -38.58,-8.56 -68.37,-26.84 -30.46,-18.69 -52.72,-29.84 -82.99,-36.83 -16.61,-7.05 -17.57,-18.32 -36.36,-35.85 z" />
	<path d="m 255.07,314.13 c -3.4,24.03 0.3,32.32 -10.2,51.98 -2.8,4.38 -3.97,8.55 -5.51,21.31 -0.33,2.66 1.19,6.1 3.33,8.61 -1.84,8.71 -7.86,15.54 -3.78,22.15 -0.16,3.38 -0.1,2.41 -0.69,7.73 1.68,3.15 2.97,7.61 -0.1,10.5 -5.36,-0.56 -5.5,-3.55 -8.65,-2.17 0.13,5.73 -3.42,6.18 -6.73,7.08 -4.4,3.04 -8.12,2.54 -12.54,1.64 2.97,-6.25 6.83,-10.51 10.96,-15.69 2.34,-6.04 2.93,-8.07 2.56,-13.04 -0.34,-4.45 -3.11,-10.64 -4.33,-16.34 -9.46,-33.07 -34.73,-26.37 -48.88,-61.68" />
	<path style="fill:#ffffff;" d="m 110.1,258.8 a 5.4998,4.8797 22.958 0 1 -7,2.29 5.4998,4.8797 22.958 0 1 -3.09,-6.66 5.4998,4.8797 22.958 0 1 7,-2.28 5.4998,4.8797 22.958 0 1 3.09,6.65 z"/>
	<path d="m 51.794,275.37 a 13.932,8.8433 59.497 0 1 -14.689,-7.44 13.932,8.8433 59.497 0 1 0.473,-16.52 13.932,8.8433 59.497 0 1 14.692,7.43 13.932,8.8433 59.497 0 1 -0.476,16.53 z" />
	<path d="m 124.82,247.79 c -10.55,1.89 -12,-5.77 -20.42,-14.62 -12.769,-11.78 -10.18,-21.01 -9.439,-31.74 6.879,5.58 21.149,8.92 33.549,13.71 6.69,2.59 13.25,7.91 13.18,15.07" />
	<path d="m 41.096,262.08 a 2.698,0.56027 79.191 0 1 -0.03,2.8 2.698,0.56027 79.191 0 1 -1.059,-2.49 2.698,0.56027 79.191 0 1 0.03,-2.81 2.698,0.56027 79.191 0 1 1.06,2.5 z" />
	<path d="m 47.342,263.78 a 2.698,0.56027 79.191 0 1 -0.02,2.8 2.698,0.56027 79.191 0 1 -1.059,-2.49 2.698,0.56027 79.191 0 1 0.02,-2.81 2.698,0.56027 79.191 0 1 1.059,2.5 z" />
	<path style="fill:#000000;stroke:none;" d="m 104.3,257.16 a 2.1848,1.6771 80.608 0 1 -2.19,1 2.1848,1.6771 80.608 0 1 -0.97,-2.9 2.1848,1.6771 80.608 0 1 2.19,-1 2.1848,1.6771 80.608 0 1 0.97,2.9 z" />
	<g id="wing" style="fill:#ffffff;">
		<path d="m 484.38,65.973 c 0,0 -4.03,13.65 -22.06,22.172 -25.65,12.135 -70.13,15.705 -109.23,29.395 -18.43,4.13 -35.42,21.52 -47.35,52.48 -9.24,24.01 -48.92,75.69 -57.64,66.44 0,0.84 0,1.73 0,2.6 0,5.76 0.78,7.8 4.38,12.23 9.27,6.64 4.53,11.02 1.56,19.49 -1.03,4.16 -0.13,7.56 2.02,11.11 0.54,0.9 0.76,1.93 0.76,2.99 0.28,-0.68 0.48,-1.58 0.53,-2.72 0.57,-11.04 92.89,12.17 98.91,-5.54 3.14,-3.53 4.14,-6.72 4.14,-6.72 14.69,-4.78 15.85,-15.52 15.85,-15.52 10.38,-4.54 13.98,-12.5 13.98,-12.5 14.02,-4.97 18.12,-17.18 18.12,-17.18 3.58,-0.85 6.7,-1.87 9.27,-3.12 15.49,-7.52 17.49,-24.16 17.49,-24.16 3.58,-1.74 6.61,-3.65 9.04,-5.65 13.04,-10.74 13.15,-21.35 13.15,-21.35 2.14,-1.64 4.06,-3.35 5.78,-5.15 10.52,-11.03 7.64,-18.31 7.64,-18.31 6.37,-7.24 5.66,-18.34 5.66,-18.34 8.91,-6.92 6.99,-24.27 6.99,-24.27 9.75,-14.367 2.13,-20.579 2.13,-20.579 4.46,-9.684 -1.09,-17.798 -1.09,-17.798 z"/>
		<path d="m 286.92,250.41 c 0,0 8.67,2.8 16.69,1.54 2.45,-0.38 4.83,-1.13 6.89,-2.46 0.42,-0.28 0.84,-0.56 1.22,-0.88 4.72,-3.84 6.18,-8.78 5.89,-12.07 -0.23,-2.75 -1.67,-4.36 -3.42,-3.24 m -22.01,2.35 c 0,0 12.34,4.15 22.01,-2.35 0.91,-0.61 1.79,-1.3 2.63,-2.11 2.12,-2.01 4.14,-7.05 4.63,-11.13 0.43,-3.84 -0.42,-6.91 -3.95,-5.82 m -23.23,2.18 c 0,0 15.3,2.36 23.23,-2.18 0.53,-0.31 1.03,-0.65 1.49,-1.03 3.49,-2.82 4.2,-7.44 3.99,-11.51 -0.24,-4.41 -1.56,-8.13 -1.56,-8.13 m -18.12,4.08 c 0,0 8.01,-1.38 18.12,-4.08 9.68,-2.61 21.31,-6.41 29.67,-11.39 9.5,-5.65 13.25,-13.42 14.71,-18.91 1.06,-3.91 0.93,-6.68 0.93,-6.68 m -46.59,18.66 c 0,0 23.43,0.16 39.32,-11.75 2.85,-2.15 5.26,-4.5 7.27,-6.91 2.92,-3.48 5.04,-7.09 6.56,-10.39 3.23,-7.01 3.79,-12.61 3.79,-12.61 m -46.46,19.8 c 0,0 20.11,-0.99 35.11,-10.64 4.54,-2.92 8.3,-6.1 11.35,-9.16 0.42,-0.43 0.84,-0.86 1.24,-1.28 6.8,-7.19 9.67,-13.37 9.67,-13.37 m 97.47,-35.169 c -18.74,24.579 -70.27,28.909 -97.47,35.169 -6.89,1.61 -13.23,3.31 -18.58,5.21 -15.88,5.63 -27.94,9.36 -38.79,29.24 -1.31,2.4 -2.6,5.02 -3.87,7.92 -2.31,5.25 -4.49,9.87 -6.61,13.94 -5.56,10.65 -10.73,17.58 -16.84,22.4 -3.55,2.79 -7.42,4.87 -11.86,6.55 0,0 5.82,2.74 4.31,8.86 -0.34,1.34 -0.87,2.44 -1.48,3.35 -2.19,3.24 -5.54,4 -5.54,4 0,0 6.66,4.58 4.83,11.93 -0.32,1.31 -0.81,2.41 -1.38,3.31 -1.91,3.09 -4.63,3.96 -4.63,3.96 0,0 2.62,5.17 -0.63,10.8 -0.82,1.45 -2.04,2.92 -3.78,4.34 0,0 3.22,4.05 1.54,9.48 -1.66,5.44 -9,6.21 -11.76,5.53 0,0 21.28,8.75 32.56,-4.46 4.12,-4.83 3.22,-14.28 -1.87,-13.35 m 179.72,-147.6 c -17.91,18.23 -78.22,25.68 -105.01,27.96 m 98.03,-3.69 c -12.07,9.36 -57.49,19.79 -103.06,17.58 m 97.4,0.76 c -30.89,20.51 -81.93,17.77 -104.89,16.31 m 91.46,7.15 c -10.93,8.36 -29.86,14.24 -52.18,15.51 -26.67,1.5 -45.04,-0.65 -54,-3.75 m 84,15.24 c -15.6,7.61 -44.06,12.28 -76.2,9.85 -18.45,-1.39 -35.9,-5.57 -35.9,-5.57 m 85.34,23 c -18.03,4.26 -51.15,3.13 -86.88,-4.64 m 68.76,21.82 c -17.2,3.86 -62.2,-2.77 -72.59,-5.34 m 58.6,17.84 c -21.15,6.67 -44.82,1.39 -65.71,-4.89 m 49.87,20.41 c -15.68,4.51 -39.91,1.76 -54.89,-4.6"/>
	</g>
</g>
<use id="shine" xlink:href="#shield" fill="url(#rg)" stroke="#000" stroke-width="3"/>
</svg>
