<?xml version="1.0" encoding="UTF-8"?>
<svg xmlns="http://www.w3.org/2000/svg" xmlns:xlink="http://www.w3.org/1999/xlink" width="600" height="660">
<defs>
  <radialGradient id="rg" gradientUnits="userSpaceOnUse" cx="220" cy="220" r="405">
    <stop style="stop-color:#ffffff;stop-opacity:.3" offset="0"/>
    <stop style="stop-color:#ffffff;stop-opacity:.2" offset=".2"/>
    <stop style="stop-color:#666666;stop-opacity:.1" offset=".6"/>
    <stop style="stop-color:#000000;stop-opacity:.13" offset="1"/>
  </radialGradient>
  <path id="shield" d="m2,2v257c0,286 298,398 298,398c0,0 298-112 298-398V2z"/>
  <clipPath id="clip-chief">
	<path d="M 0,0 H 600 V 200 H 0 z" />
  </clipPath>
</defs>
<use id="field" xlink:href="#shield" style="fill:#ffffff;"/>
<path style="fill:#0000cc;" d="m 85.71,2 v 495.7 c 26.59,33.8 56.69,61.7 85.69,84.2 v -579.9 z m 171.39,0 v 635 c 25.9,13.6 42.9,20 42.9,20 0,0 17,-6.4 42.9,-20 v -635 z m 171.5,0 v 579.9 c 29,-22.5 59.1,-50.4 85.7,-84.2 v -495.7 z"/>
<g id="chief" clip-path="url(#clip-chief)">
  <rect style="fill:#ffdd00;" x="0" y="0" width="600" height="220"/>
  <g transform="translate(0,15)">
    <path style="fill:#000000;" d="m 300,32 a 628,628 0 0 0 -300,77 v 111 h 600 v -111.6 a 628,628 0 0 0 -300,-76.4 z"/>
    <path style="fill:none;stroke:#ffdd00;stroke-width:2;" d="m 0,40 h 600 m -600,15 h 600 m -600,15 h 600 m -600,15 h 600 m -600,15 h 600 m -600,15 h 600 m -600,15 h 600 m -600,15 h 600 m -600,15 h 600 m -600,15 h 600 m -600,15 h 600 m -600,15 h 600"/>
    <path style="fill:none;stroke:#ffdd00;stroke-width:2;" d="m 565,205 v 15 m -180,-15 v 15 m -180,-15 v 15 m -180,-15 v 15 m 550,-30 v 15 m -180,-15 v 15 m -180,-15 v 15 m -180,-15 v 15 m 530,-30 v 15 m -180,-15 v 15 m -180,-15 v 15 m -180,-15 v 15 m 550,-30 v 15 m -180,-15 v 15 m -180,-15 v 15 m -180,-15 v 15 m 530,-30 v 15 m -180,-15 v 15 m -180,-15 v 15 m -180,-15 v 15 m 550,-30 v 15 m -180,-15 v 15 m -180,-15 v 15 m -180,-15 v 15 m 35,-30 v 15 m 495,-15 v 15 m -180,-15 v 15 m -180,-15 v 15 m -180,-15 v 15 m 505,-30 v 15 m -450,-15 v 15 m 495,-15 v 15 m -180,-15 v 15 m -180,-15 v 15 m -45,-15 v 15 m -135,-15 v 15 m 80,-30 v 15 m 45,-15 v 15 m 45,-15 v 15 m 270,-15 v 15 m -45,-15 v 15 m -45,-15 v 15 m 180,-15 v 15 m -495,-15 v 15 m 450,-15 v 15 m 10,-30 v 15 m -450,-15 v 15 m 270,-15 v 15 m -90,-15 v 15 m 135,-15 v 15 m 45,-15 v 15 m 45,-15 v 15 m -270,-15 v 15 m -45,-15 v 15 m -45,-15 v 15 m 45,-45 v 15 m 45,-15 v 15 m 225,-15 v 15 m -45,-15 v 15 m -135,-15 v 15 m 90,-15 v 15 m -45,-15 v 15 m -190,0 v 15 m 45,-15 v 15 m 45,-15 v 15 m 270,-15 v 15 m -45,-15 v 15 m -45,-15 v 15 m -135,-15 v 15 m 90,-15 v 15 m -45,-15 v 15 m -45,-45 v 15 m 90,-15 v 15 m -45,-15 v 15"/>
    <g id="left">
      <path style="fill:#ffdd00;stroke:#ffdd00;stroke-width:24;" d="m 75.71,220 v -60 a 52.86,52.86 0 0 1 105.69,0 v 60"/>
      <path style="fill:#000000;" d="m 128.6,97.15 -3.3,0.1 -3.1,0.24 -3.2,0.4 -3.1,0.55 -1.5,0.35 4.5,19.51 1,-0.3 2.1,-0.4 2.2,-0.2 2.2,-0.2 2.2,-0.1 v 0 0 l 2.2,0.1 2.2,0.2 2.1,0.2 2.1,0.4 1.1,0.3 4.4,-19.51 -1.5,-0.35 -3.1,-0.55 -3.1,-0.4 -3.2,-0.24 z m -16.6,2.22 -2.1,0.6 -2.9,1.03 -2.9,1.1 -2.8,1.2 -2.69,1.4 -2.64,1.6 -2.55,1.6 -2.46,1.7 -2.37,1.9 -2.28,2 -0.22,0.2 13.49,14.7 1.72,-1.5 1.6,-1.2 1.7,-1.3 1.7,-1 1.8,-1.1 1.9,-0.9 1.9,-0.9 1.9,-0.8 2,-0.6 1.6,-0.5 z m 33.2,0 -5.5,19.23 1.6,0.5 2,0.6 2,0.8 1.8,0.9 1.9,0.9 1.8,1.1 1.7,1 1.7,1.3 1.6,1.2 1.8,1.5 13.5,-14.7 -0.3,-0.2 -2.2,-2 -2.4,-1.9 -2.5,-1.7 -2.5,-1.6 -2.7,-1.6 -2.7,-1.4 -2.8,-1.2 -2.8,-1.1 -2.9,-1.03 z m -60.55,15.73 -0.52,0.5 -2.08,2.1 -1.98,2.3 -1.86,2.4 -1.75,2.5 -1.64,2.5 -1.51,2.6 -1.39,2.7 -1.26,2.8 -1.13,2.9 -0.58,1.7 18.95,6.4 0.42,-1.2 0.77,-2 0.86,-1.9 0.93,-1.8 1.03,-1.8 1.12,-1.8 1.2,-1.6 1.25,-1.6 1.36,-1.6 1.44,-1.5 0.17,-0.2 z m 87.85,0 -13.8,14.4 0.2,0.2 1.4,1.5 1.4,1.6 1.2,1.6 1.2,1.6 1.1,1.8 1.1,1.8 0.9,1.8 0.9,1.9 0.7,2 0.4,1.2 19,-6.4 -0.6,-1.7 -1.1,-2.9 -1.3,-2.8 -1.4,-2.7 -1.5,-2.6 -1.6,-2.5 -1.8,-2.5 -1.8,-2.4 -2,-2.3 -2.1,-2.1 z m -104.29,27.4 -0.51,1.8 -0.71,3 -0.55,3.1 -0.4,3.2 -0.24,3.2 -0.1,3.1 v 10.1 h 20 v -9.9 l 0.1,-2.3 0.17,-2.2 0.27,-2.1 0.38,-2.2 0.48,-2 0.38,-1.4 z m 120.69,0 -19.2,5.4 0.4,1.4 0.5,2 0.3,2.2 0.3,2.1 0.2,2.2 v 2.3 9.9 h 20 v -10.1 l -0.1,-3.1 -0.2,-3.2 -0.4,-3.2 -0.5,-3.1 -0.8,-3 z m -123.19,29.5 v 25 h 20 v -25 z m 105.69,0 v 25 h 20 v -25 z m -105.69,27 v 21 h 20 v -21 z m 105.69,0 v 21 h 20 v -21 z"/>
    </g>
    <g>
      <path style="fill:#ffdd00;stroke:#ffdd00;stroke-width:24;" d="m 247.1,220 v -90 a 52.9,52.9 0 0 1 105.8,0 v 90"/>
      <path style="fill:#000000;" d="m 300,67.15 -3.2,0.1 -3.2,0.24 -3.2,0.4 -3.1,0.55 -2.5,0.57 4.5,19.49 2.1,-0.47 2.1,-0.37 2.1,-0.27 2.2,-0.17 h 2.2 2.2 l 2.2,0.17 2.1,0.27 2.1,0.37 2.1,0.47 4.5,-19.49 -2.5,-0.57 -3.1,-0.55 -3.2,-0.4 -3.2,-0.24 z m -17.6,2.5 -1.1,0.32 -2.9,0.99 -2.9,1.13 -2.8,1.26 -2.7,1.39 -2.6,1.51 -2.5,1.63 -2.5,1.76 -2.4,1.86 -2.3,1.98 -0.9,0.88 13.8,14.48 0.6,-0.55 1.5,-1.36 1.7,-1.27 1.7,-1.22 1.7,-1.08 1.8,-1.04 1.8,-0.96 1.9,-0.85 2,-0.76 2,-0.68 0.6,-0.18 z m 35.2,0 -5.5,19.24 0.6,0.18 2,0.68 2,0.76 1.9,0.85 1.8,0.96 1.8,1.04 1.7,1.08 1.7,1.22 1.7,1.27 1.5,1.36 0.6,0.55 13.8,-14.48 -0.9,-0.88 -2.3,-1.98 -2.4,-1.86 -2.5,-1.76 -2.5,-1.63 -2.6,-1.51 -2.7,-1.39 -2.8,-1.26 -2.9,-1.13 -2.9,-0.99 z m -62.6,16.45 -1.5,1.64 -2,2.28 -1.9,2.37 -1.7,2.46 -1.6,2.55 -1.6,2.6 -1.4,2.7 -1.2,2.8 -1.1,2.9 -0.9,2.6 18.9,6.4 0.7,-2.1 0.8,-2 0.9,-1.9 0.9,-1.8 1.1,-1.8 1,-1.7 1.3,-1.7 1.2,-1.7 1.4,-1.5 1.2,-1.3 z m 90,0 -14.5,13.8 1.2,1.3 1.4,1.5 1.2,1.7 1.3,1.7 1,1.7 1.1,1.8 0.9,1.8 0.9,1.9 0.8,2 0.7,2.1 18.9,-6.4 -0.9,-2.6 -1.1,-2.9 -1.2,-2.8 -1.4,-2.7 -1.6,-2.6 -1.6,-2.55 -1.7,-2.46 -1.9,-2.37 -2,-2.28 z m -105.6,27.3 -0.3,0.9 -0.7,3 -0.5,3.1 -0.4,3.2 -0.3,3.2 -0.1,3.1 v 11.1 h 20 v -10.8 l 0.1,-2.4 0.2,-2.2 0.2,-2.1 0.4,-2.1 0.5,-2.1 0.1,-0.4 z m 121.2,0 -19.2,5.5 0.1,0.4 0.5,2.1 0.4,2.1 0.2,2.1 0.2,2.2 0.1,2.4 v 10.8 h 20 v -11.1 l -0.1,-3.1 -0.3,-3.2 -0.4,-3.2 -0.5,-3.1 -0.7,-3 z m -123.5,29.6 v 25 h 20 v -25 z m 105.8,0 v 25 h 20 v -25 z m -105.8,27 v 25 h 20 v -25 z m 105.8,0 v 25 h 20 v -25 z m -105.8,27 v 23 h 20 v -23 z m 105.8,0 v 23 h 20 v -23 z"/>
    </g>
    <use xlink:href="#left" x="342.857142857"/>
    <path style="fill:#000000;" d="m 299.9,10 -7.9,0.1 h -0.1 l -8,0.15 h -0.1 l -2,0.1 0.6,20 1.9,-0.1 v 0 l 7.8,-0.15 v 0 l 7.8,-0.1 h 0.1 0.1 l 7.8,0.1 v 0 l 7.8,0.15 4.1,0.12 0.6,-19.99 -4.2,-0.13 h -0.1 l -8,-0.15 h -0.1 l -7.9,-0.1 z m -20.1,0.33 -3.9,0.12 h -0.2 l -7.9,0.35 h -0.1 l -7.9,0.44 h -0.1 l -7.9,0.54 h -0.1 l -7.9,0.63 h -0.1 l -2.5,0.23 1.9,19.91 2.4,-0.22 7.7,-0.62 v 0 l 7.7,-0.53 h 0.1 v 0 l 7.8,-0.44 v 0 l 7.8,-0.34 v 0 l 3.8,-0.11 z m 42.6,0.1 -0.6,19.99 1.6,0.1 v 0 l 7.8,0.34 v 0 l 7.8,0.44 v 0 h 0.1 l 7.7,0.53 v 0 l 7.7,0.62 4.6,0.43 1.8,-19.92 -4.6,-0.43 h -0.1 l -7.9,-0.63 h -0.1 l -7.9,-0.54 h -0.1 l -7.9,-0.44 h -0.1 l -7.9,-0.35 h -0.2 z m -83.2,2.47 -3.4,0.31 h -0.1 l -7.8,0.82 h -0.2 l -7.8,0.92 h -0.1 l -7.8,1.01 h -0.1 l -7.8,1.12 h -0.1 l -3.1,0.47 3.1,19.77 3,-0.48 7.6,-1.07 7.8,-1.02 7.6,-0.9 v 0 h 0.1 l 7.7,-0.81 v 0 l 3.3,-0.31 z m 123.7,0.2 -1.8,19.91 1.1,0.11 v 0 l 7.7,0.81 h 0.1 v 0 l 7.6,0.9 7.8,1.02 7.6,1.07 5.1,0.81 3.1,-19.76 -5.2,-0.81 h -0.1 l -7.8,-1.12 h -0.1 l -7.8,-1.01 h -0.1 l -7.8,-0.92 h -0.2 l -7.8,-0.82 h -0.1 z m -163.9,4.85 -2.8,0.43 h -0.1 l -7.8,1.3 h -0.1 l -7.7,1.4 h -0.1 l -7.7,1.49 h -0.2 l -7.6,1.58 h -0.2 l -3.7,0.81 4.3,19.54 3.6,-0.79 h 0.1 v 0 l 7.6,-1.55 7.4,-1.45 7.6,-1.37 h 0.1 0.1 l 7.5,-1.27 v 0 h 0.1 l 2.6,-0.41 z m 204.2,0.33 -3.1,19.77 0.5,0.1 h 0.1 v 0 l 7.5,1.27 h 0.1 0.1 l 7.6,1.37 7.4,1.45 7.6,1.55 v 0 h 0.1 l 5.7,1.25 4.3,-19.53 -5.8,-1.28 h -0.2 l -7.6,-1.58 h -0.2 l -7.7,-1.49 h -0.1 l -7.7,-1.4 h -0.1 l -7.8,-1.3 h -0.1 z m -244.1,7.23 -2,0.43 h -0.1 l -7.7,1.77 h -0.1 l -7.6,1.86 h -0.1 l -7.6,1.95 h -0.1 l -7.5,2.05 h -0.2 l -4.5,1.28 5.5,19.24 4.4,-1.25 v 0 l 7.4,-2.01 h 0.1 v 0 l 7.4,-1.89 7.5,-1.84 7.5,-1.74 v 0 l 1.9,-0.42 z m 284.1,0.49 -4.5,19.49 7.4,1.73 7.5,1.84 7.4,1.89 v 0 h 0.1 l 7.4,2.01 v 0 l 6.5,1.84 5.4,-19.24 -6.5,-1.87 h -0.2 l -7.5,-2.05 h -0.1 l -7.6,-1.95 h -0.1 l -7.6,-1.86 h -0.1 z m -323.5,9.55 -1.1,0.31 h -0.1 l -7.5,2.23 h -0.1 l -7.5,2.31 h -0.1 l -7.41,2.41 h -0.11 l -7.4,2.49 h -0.12 l -5.3,1.87 6.63,18.87 5.29,-1.86 v 0 l 7.32,-2.45 7.2,-2.34 v 0 h 0.1 l 7.2,-2.24 7.4,-2.19 1.1,-0.31 z m 362.8,0.64 -5.7,19.17 6.5,1.93 7.2,2.24 h 0.1 v 0 l 7.2,2.34 7.3,2.45 v 0 l 7.4,2.57 6.6,-18.86 -7.4,-2.59 h -0.1 l -7.4,-2.49 h -0.1 l -7.4,-2.41 h -0.1 l -7.5,-2.31 h -0.1 z m -401.43,11.83 -0.18,0.1 h -0.11 l -7.33,2.68 h -0.12 l -7.3,2.77 h -0.11 l -7.27,2.86 h -0.11 l -7.23,2.95 h -0.11 l -6.07,2.56 7.76,18.43 5.96,-2.51 v 0 l 7.11,-2.9 h 0.1 v 0 l 7.04,-2.77 v 0 h 0.1 l 7.07,-2.68 h 0.1 0.1 l 7.1,-2.59 0.18,-0.1 z m 440.03,0.78 -6.9,18.79 5.4,1.95 v 0 h 0.1 l 7.1,2.68 h 0.1 v 0 l 7,2.77 v 0 h 0.1 l 7.1,2.9 v 0 l 7,2.94 0.9,0.38 8,-18.34 -0.9,-0.38 h -0.1 l -7.2,-3.03 h -0.1 l -7.2,-2.95 h -0.2 l -7.2,-2.86 h -0.1 l -7.3,-2.77 h -0.1 z m -477.92,14.13 -6.44,2.81 h -0.11 l -7.12,3.2 h -0.11 l -7.08,3.3 h -0.11 l -7.04,3.38 h -0.11 l -6.771,3.36 8.871,17.92 6.67,-3.3 0.1,-0.1 v 0 l 6.82,-3.28 v 0 h 0.1 l 6.85,-3.19 v 0 l 7,-3.16 h 0.1 v 0 l 6.33,-2.75 z m 515.62,0.87 -8,18.33 4.4,1.89 v 0 h 0.1 l 7,3.16 v 0 l 6.8,3.19 h 0.1 v 0 l 6.9,3.28 v 0 l 0.1,0.1 6.8,3.36 v 0 h 0.1 l 1.6,0.82 9.1,-17.82 -1.8,-0.87 h -0.1 l -7,-3.47 h -0.1 l -7,-3.38 h -0.1 l -7.1,-3.3 h -0.1 l -7.1,-3.2 h -0.1 z m -552.404,16.34 -5.398,2.75 -0.1074,0.1 -0.8906,0.47 v 22.64 l 3.383,-1.8 h 0.01 l 6.697,-3.5 5.4,-2.81 z m 589.104,0.98 -9.1,17.82 3.5,1.76 6.7,3.5 v 0 l 3.4,1.8 v -22.58 l -0.9,-0.47 -0.1,-0.1 z"/>
  </g>
</g>
<use id="shine" xlink:href="#shield" style="fill:url(#rg);stroke:#000000;stroke-width:3;"/>
</svg>