<?xml version="1.0" encoding="UTF-8" standalone="no"?>
<svg
   xmlns:dc="http://purl.org/dc/elements/1.1/"
   xmlns:cc="http://creativecommons.org/ns#"
   xmlns:rdf="http://www.w3.org/1999/02/22-rdf-syntax-ns#"
   xmlns:svg="http://www.w3.org/2000/svg"
   xmlns="http://www.w3.org/2000/svg"
   xmlns:xlink="http://www.w3.org/1999/xlink"
   xmlns:sodipodi="http://sodipodi.sourceforge.net/DTD/sodipodi-0.dtd"
   xmlns:inkscape="http://www.inkscape.org/namespaces/inkscape"
   width="600"
   height="660"
   id="svg2"
   version="1.1"
   inkscape:version="0.48.2 r9819"
   sodipodi:docname="House_Estermont.svg">
  <metadata
     id="metadata19">
    <rdf:RDF>
      <cc:Work
         rdf:about="">
        <dc:format>image/svg+xml</dc:format>
        <dc:type
           rdf:resource="http://purl.org/dc/dcmitype/StillImage" />
        <dc:title />
      </cc:Work>
    </rdf:RDF>
  </metadata>
  <defs
     id="defs17">
    <radialGradient
       inkscape:collect="always"
       xlink:href="#rg"
       id="radialGradient4153"
       gradientUnits="userSpaceOnUse"
       cx="220"
       cy="220"
       r="405" />
  </defs>
  <sodipodi:namedview
     pagecolor="#ffffff"
     bordercolor="#666666"
     borderopacity="1"
     objecttolerance="10"
     gridtolerance="10"
     guidetolerance="10"
     inkscape:pageopacity="0"
     inkscape:pageshadow="2"
     inkscape:window-width="1366"
     inkscape:window-height="715"
     id="namedview15"
     showgrid="false"
     inkscape:zoom="0.1767767"
     inkscape:cx="-1124.482"
     inkscape:cy="87.626775"
     inkscape:window-x="-8"
     inkscape:window-y="-8"
     inkscape:window-maximized="1"
     inkscape:current-layer="svg2"
     showguides="false" />
  <radialGradient
     id="rg"
     gradientUnits="userSpaceOnUse"
     cx="220"
     cy="220"
     r="405">
    <stop
       style="stop-color:#fff;stop-opacity:.3"
       offset="0"
       id="stop5" />
    <stop
       style="stop-color:#fff;stop-opacity:.2"
       offset=".2"
       id="stop7" />
    <stop
       style="stop-color:#666;stop-opacity:.1"
       offset=".6"
       id="stop9" />
    <stop
       style="stop-color:#000;stop-opacity:.13"
       offset="1"
       id="stop11" />
  </radialGradient>
  <path
     inkscape:connector-curvature="0"
     style="fill:#90ee90;fill-opacity:1;stroke:none;stroke-width:3"
     id="path7212"
     d="m 2,2 0,257 c 0,286 298,398 298,398 0,0 298,-112 298,-398 L 598,2 Z" />
  <path
     style="fill:#000000"
     d="m 213.68345,529.37367 c -4.08099,-0.9062 -12.78082,-7.30539 -19.91472,-14.64838 -7.33809,-7.5532 -13.03698,-15.56439 -18.11161,-25.4604 -2.59,-5.05074 -3.18123,-6.57678 -4.6271,-11.94318 -1.88875,-7.01018 -3.14819,-12.70512 -4.08192,-18.45764 -0.90758,-5.5914 -0.91553,-16.64659 -0.0159,-22.07679 1.77389,-10.7071 4.1287,-20.49985 6.93948,-28.85863 l 1.672,-4.97224 -1.65902,-3.47951 c -5.33286,-11.18483 -8.48581,-20.91396 -13.00803,-40.13933 -5.82352,-24.75756 -6.32615,-28.88236 -6.41673,-52.65857 -0.0588,-15.44049 0.15126,-20.45825 1.17944,-28.1695 0.24426,-1.8319 0.2717,-3.14695 0.0699,-3.34877 -0.31682,-0.31682 -1.44452,0.0693 -7.17039,2.45507 -1.19432,0.49763 -3.06723,1.27602 -4.16202,1.72974 -1.09479,0.45373 -2.80484,1.18824 -3.8001,1.63226 -0.99527,0.44402 -2.86818,1.25757 -4.16202,1.8079 -1.29384,0.55033 -4.14392,1.77191 -6.3335,2.71464 -10.1885,4.38668 -14.11103,5.69426 -19.55354,6.5182 -4.68477,0.70923 -8.22858,0.28026 -12.24344,-1.48203 -3.609479,-1.58434 -5.456256,-2.86015 -7.710434,-5.32658 -3.5242,-3.85603 -4.213897,-8.30045 -2.476624,-15.95936 2.971202,-13.09878 9.377618,-26.09845 18.962088,-38.47719 3.93656,-5.08424 6.62888,-7.78916 11.79267,-11.84788 12.31212,-9.67728 18.68108,-13.41224 30.5917,-17.9399 1.51232,-0.57489 9.64034,-2.50558 15.20041,-3.61063 8.05903,-1.6017 15.36878,-2.48402 23.70541,-2.86133 5.95228,-0.2694 8.18874,-0.51378 10.31456,-1.12706 2.71774,-0.78405 8.53918,-3.52296 13.00355,-6.11801 6.95531,-4.04299 15.24832,-7.24144 20.73352,-7.99651 4.86972,-0.67035 10.26602,0.0799 22.43008,3.1183 3.52214,0.87978 6.73866,1.59961 7.14781,1.59961 0.94169,0 0.94011,-0.52132 -0.0118,-3.91374 -1.33019,-4.74052 -3.72753,-10.54058 -8.42588,-20.3853 -1.10579,-2.31703 -2.32608,-5.00425 -2.71175,-5.97159 -0.38567,-0.96734 -1.22056,-3.06169 -1.85531,-4.65412 -1.1171,-2.80248 -2.33926,-6.75778 -3.24306,-10.49552 -0.78015,-3.2264 -1.05843,-12.24985 -0.50225,-16.28615 1.95378,-14.17896 5.6809,-26.892484 11.00865,-37.551497 8.7388,-17.483353 23.63359,-29.89092 40.77672,-33.967576 2.96645,-0.705422 3.00515,-0.705422 5.97159,0 17.14313,4.076656 32.0379,16.484223 40.77673,33.967576 5.32774,10.659013 9.05485,23.372537 11.00864,37.551497 0.55616,4.0363 0.27792,13.05975 -0.50226,16.28615 -0.90381,3.73774 -2.12596,7.69304 -3.24305,10.49552 -0.63476,1.59243 -1.46966,3.68678 -1.85532,4.65412 -0.38565,0.96734 -1.60596,3.65456 -2.71175,5.97159 -4.69834,9.84472 -7.0957,15.64478 -8.42588,20.3853 -0.9519,3.39242 -0.9535,3.91374 -0.0119,3.91374 0.40914,0 3.62566,-0.71983 7.14781,-1.59961 12.16406,-3.03844 17.56035,-3.78865 22.43009,-3.1183 5.48518,0.75507 13.7782,3.95352 20.73351,7.99651 4.46436,2.59505 10.28582,5.33396 13.00355,6.11801 2.12581,0.61328 4.36226,0.85766 10.31456,1.12706 8.33663,0.37731 15.64636,1.25963 23.70541,2.86133 5.56009,1.10505 13.68807,3.03574 15.20041,3.61063 11.9106,4.52766 18.27958,8.26262 30.59169,17.9399 5.1638,4.05872 7.85612,6.76364 11.7927,11.84788 9.58443,12.37874 15.99086,25.37841 18.96207,38.47719 1.73727,7.65891 1.04757,12.10333 -2.47661,15.95936 -2.25419,2.46643 -4.10096,3.74224 -7.71045,5.32658 -4.01486,1.76229 -7.55865,2.19126 -12.24346,1.48203 -5.4425,-0.82394 -9.36501,-2.13152 -19.55352,-6.5182 -2.18958,-0.94273 -5.03966,-2.16431 -6.3335,-2.71464 -1.29385,-0.55033 -3.16675,-1.36388 -4.16202,-1.8079 -0.99526,-0.44402 -2.70531,-1.17853 -3.8001,-1.63226 -1.09479,-0.45372 -2.9677,-1.23211 -4.16202,-1.72974 -5.72588,-2.38578 -6.85357,-2.77189 -7.17039,-2.45507 -0.20181,0.20182 -0.17437,1.51687 0.0699,3.34877 1.02817,7.71125 1.23826,12.72901 1.17945,28.1695 -0.0906,23.77621 -0.59322,27.90101 -6.41675,52.65857 -4.52223,19.22537 -7.67516,28.9545 -13.00804,40.13933 l -1.65902,3.47951 1.67201,4.97224 c 2.81078,8.35878 5.16561,18.15153 6.9395,28.85863 0.89964,5.4302 0.89168,16.48539 -0.0159,22.07679 -0.93374,5.75252 -2.19316,11.44746 -4.08192,18.45764 -1.44589,5.3664 -2.03711,6.89244 -4.62712,11.94318 -7.96002,15.5228 -18.8109,28.16954 -31.63925,36.87558 -3.87379,2.62895 -5.08881,3.12622 -8.24235,3.37344 -8.40301,0.65869 -17.05946,-6.79458 -19.63463,-16.90553 -1.21223,-4.75965 -1.4896,-8.88041 -1.49065,-22.14592 0,-7.99226 -0.13543,-13.00015 -0.35363,-13.135 -0.19391,-0.11986 -1.78181,0.7428 -3.52866,1.91703 -1.74682,1.17423 -5.0519,3.17631 -7.34463,4.44905 -2.29272,1.27278 -4.97994,2.77299 -5.97159,3.33381 -6.85031,3.87415 -16.66355,8.01058 -24.60363,10.37081 -2.18959,0.65087 -4.17823,1.3672 -4.4192,1.59188 -0.41964,0.39119 -2.25454,3.59113 -12.32268,21.48998 -2.49128,4.42893 -4.64771,8.0526 -4.79204,8.0526 -0.14434,0 -2.30076,-3.62367 -4.79204,-8.0526 -10.06813,-17.89885 -11.90303,-21.09879 -12.32266,-21.48998 -0.24098,-0.22468 -2.22963,-0.94101 -4.41921,-1.59188 -7.94006,-2.36023 -17.75331,-6.49666 -24.60363,-10.37081 -0.99167,-0.56082 -3.67888,-2.06103 -5.97159,-3.33381 -2.29272,-1.27274 -5.59781,-3.27482 -7.34465,-4.44905 -1.74684,-1.17423 -3.33474,-2.03689 -3.52866,-1.91703 -0.21817,0.13485 -0.35299,5.14274 -0.35362,13.135 -0.001,16.73005 -0.59234,21.50475 -3.39392,27.41854 -2.24153,4.7316 -7.68138,9.54575 -12.4511,11.01896 -2.13691,0.66002 -5.3391,0.87261 -7.13553,0.47371 z"
     id="path3273"
     inkscape:connector-curvature="0" />
  <path
     style="fill:#008800;fill-opacity:1"
     d="m 219.93731,518.76067 c 2.18096,-0.93823 4.87102,-3.61111 5.82757,-5.79038 2.00152,-4.55998 2.93803,-14.27854 2.93803,-30.48905 l 0,-11.56437 -7.07699,-6.89751 c -14.08787,-13.73057 -27.25697,-29.732 -36.70883,-44.60398 -2.91128,-4.58071 -3.17702,-4.88573 -3.62612,-4.16201 -0.18528,0.29858 -0.82332,2.57864 -1.41786,5.0668 -2.93342,12.27639 -3.80907,20.09216 -3.54755,31.6643 0.28339,12.54038 1.90868,20.6313 6.21654,30.94691 1.97556,4.7307 6.95419,12.91901 11.50751,18.92633 4.01378,5.29546 11.73282,12.71177 17.11367,16.44246 2.43871,1.69083 5.53618,1.8534 8.77403,0.4605 z"
     id="path3271"
     inkscape:connector-curvature="0" />
  <path
     style="fill:#008800;fill-opacity:1"
     d="m 387.71274,518.9421 c 1.97927,-0.93921 9.20765,-7.03833 12.78043,-10.78382 3.8908,-4.07885 6.54801,-7.51013 10.37559,-13.39804 5.37855,-8.27373 8.08318,-14.24985 10.36211,-22.89602 3.11081,-11.80211 3.38839,-29.00456 0.69734,-43.21661 -0.95755,-5.05704 -2.79825,-12.71616 -3.21905,-13.39424 -0.4491,-0.72372 -0.71481,-0.4187 -3.62609,4.16201 -9.45187,14.87198 -22.62096,30.87341 -36.70885,44.60398 l -7.07698,6.89751 0,11.56437 c 0,16.21207 0.93674,25.93139 2.93849,30.48905 2.31354,5.26756 8.85388,8.16566 13.47701,5.97181 z"
     id="path3269"
     inkscape:connector-curvature="0" />
  <path
     style="fill:#008800;fill-opacity:1"
     d="m 305.49303,510.41369 c 2.74552,-4.86402 4.99428,-9.05825 4.99721,-9.32049 0.004,-0.28269 -0.25247,-0.40307 -0.628,-0.29565 -0.34834,0.0996 -2.70983,0.67754 -5.24776,1.28433 l -4.61441,1.10322 -4.61441,-1.10322 c -2.53792,-0.60679 -4.89942,-1.18473 -5.24776,-1.28433 -0.3617,-0.10344 -0.63335,0.0127 -0.63335,0.27071 0,0.24853 1.6523,3.39458 3.67178,6.99125 5.85074,10.4201 6.49478,11.47457 6.92142,11.33238 0.22189,-0.074 2.64976,-4.11414 5.39528,-8.9782 z"
     id="path3267"
     inkscape:connector-curvature="0" />
  <path
     style="fill:#ffffff;fill-opacity:1"
     d="m 304.524,495.254 c 1.59243,-0.38566 4.27964,-1.21216 5.97159,-1.83665 1.69195,-0.62448 6.17065,-2.24611 9.95265,-3.60365 3.78201,-1.35751 7.28353,-2.64191 7.78117,-2.85428 0.49763,-0.21233 2.37054,-0.94948 4.16201,-1.63806 8.65153,-3.32545 13.10862,-5.63711 21.81574,-11.31468 27.62425,-18.01278 49.52435,-44.79789 65.20075,-79.74436 4.6358,-10.3344 8.20895,-20.00334 11.36824,-30.76273 2.31119,-7.87099 2.93459,-10.5151 4.18113,-17.73382 6.13767,-35.54341 4.40711,-67.98494 -5.17397,-96.99309 -5.42198,-16.41581 -16.903,-32.88929 -30.76161,-44.1381 -9.91765,-8.04997 -25.10207,-15.79419 -31.79832,-16.21746 -5.14689,-0.32534 -12.51877,0.76638 -27.63286,4.0922 -4.00263,0.88077 -11.00568,2.17532 -15.56233,2.87678 -4.55665,0.70146 -11.13238,1.76295 -14.61269,2.35887 -7.99281,1.36858 -10.83804,1.36858 -18.83085,0 -3.48032,-0.59592 -10.05604,-1.65741 -14.6127,-2.35887 -4.55665,-0.70146 -11.5597,-1.99601 -15.56232,-2.87678 -15.11411,-3.32582 -22.48599,-4.41754 -27.63286,-4.0922 -6.69624,0.42327 -21.88069,8.16749 -31.79831,16.21746 -13.85862,11.24881 -25.33965,27.72229 -30.76163,44.1381 -9.58109,29.00815 -11.31164,61.44968 -5.17397,96.99309 4.71922,27.32911 18.93937,60.68906 36.16331,84.8378 12.86123,18.03203 27.43549,32.21934 44.58683,43.40311 8.70709,5.67757 13.16418,7.98923 21.81572,11.31468 1.79148,0.68858 3.66439,1.42573 4.16202,1.63806 0.49763,0.21237 3.99915,1.49655 7.78116,2.85381 3.78201,1.35721 8.01641,2.89886 9.40978,3.42591 3.78925,1.43322 8.8159,2.68364 10.85743,2.70083 0.99527,0.008 3.11247,-0.30028 4.70489,-0.68597 z"
     id="path3265"
     inkscape:connector-curvature="0" />
  <path
     style="fill:#000000"
     d="m 296.19997,477.4474 c -18.34323,-5.22463 -32.50559,-11.4762 -47.41081,-20.9281 -11.17952,-7.08929 -18.1753,-12.82441 -25.25915,-20.70723 -24.61052,-27.38637 -35.79272,-47.48529 -43.54666,-78.2709 -1.98383,-7.87642 -2.57825,-11.13795 -3.74941,-20.57268 -1.96984,-15.86887 -2.20711,-26.33529 -0.87944,-38.79448 0.29695,-2.78674 0.70494,-6.61399 0.90663,-8.50499 0.69644,-6.52979 2.66818,-14.15353 6.85266,-26.49583 2.92737,-8.63441 4.37223,-11.92344 7.68789,-17.50037 5.366,-9.02562 14.34298,-19.51025 23.78656,-27.78143 7.3056,-6.39862 11.81599,-9.2069 17.3719,-10.8162 1.29384,-0.37477 3.16675,-0.9207 4.16202,-1.21318 2.5067,-0.73665 8.11855,-1.01484 11.58126,-0.57411 8.6861,1.10557 33.25095,3.61622 47.13937,4.8179 5.73211,0.49596 5.87995,0.48707 28.50077,-1.71395 12.49988,-1.21625 22.78542,-2.31892 28.95316,-3.10395 3.46269,-0.44073 9.07458,-0.16254 11.58127,0.57411 0.99526,0.29248 2.86817,0.83841 4.16202,1.21318 5.55589,1.6093 10.06629,4.41758 17.37189,10.8162 9.44358,8.27118 18.42055,18.75581 23.78658,27.78143 3.31565,5.57693 4.76052,8.86596 7.68786,17.50037 4.1845,12.3423 6.15624,19.96604 6.85268,26.49583 0.20169,1.891 0.60968,5.71825 0.90663,8.50499 1.32768,12.45919 1.09041,22.92561 -0.87946,38.79448 -1.17115,9.43473 -1.76556,12.69626 -3.74939,20.57268 -7.75395,30.78561 -18.93613,50.88453 -43.54668,78.2709 -5.74912,6.39756 -8.97552,9.27221 -16.75415,14.92738 -16.75291,12.17958 -35.34559,21.03733 -56.11984,26.73611 -3.30316,0.90612 -4.12696,0.90298 -7.39616,-0.0282 z"
     id="path3263"
     inkscape:connector-curvature="0" />
  <path
     style="fill:#008800;fill-opacity:1"
     d="m 306.51453,470.48442 c 8.68516,-2.07232 16.42521,-4.65227 24.24828,-8.08253 5.55575,-2.43612 11.21935,-5.44529 11.21935,-5.96109 0,-0.65605 -5.1144,-6.44364 -5.69411,-6.44364 -0.30198,0 -8.5903,2.04178 -18.41848,4.53725 l -17.8695,4.53725 -17.86947,-4.53725 c -9.82822,-2.49547 -18.11653,-4.53725 -18.41849,-4.53725 -0.74036,0 -5.82005,6.0262 -5.58845,6.62973 0.23164,0.60368 9.29713,5.11845 14.55186,7.24712 5.82008,2.35766 13.38441,4.79067 19.36243,6.22772 2.88627,0.69383 5.73635,1.41067 6.33351,1.593 1.31155,0.40043 1.52576,0.36861 8.14307,-1.21031 z"
     id="path3261"
     inkscape:connector-curvature="0" />
  <path
     style="fill:#008800;fill-opacity:1"
     d="m 256.02271,450.87509 c 1.69456,-1.5077 3.08102,-2.88912 3.08102,-3.0699 0,-0.52452 -2.60183,-4.66338 -8.00164,-12.72864 -6.6245,-9.89449 -6.94366,-10.34642 -7.45824,-10.56034 -0.24223,-0.10069 -1.23732,0.0536 -2.2113,0.3428 -0.97398,0.28924 -5.07141,1.41006 -9.1054,2.49066 -4.03399,1.08061 -7.50074,2.13095 -7.70388,2.3341 -0.47311,0.47309 11.34896,12.31664 15.59153,15.61983 2.84931,2.21843 11.88956,8.23055 12.4602,8.28654 0.14668,0.0145 1.65315,-1.20738 3.34771,-2.71505 z"
     id="path3259"
     inkscape:connector-curvature="0" />
  <path
     style="fill:#008800;fill-opacity:1"
     d="m 352.19647,450.56164 c 2.64285,-1.68004 6.18947,-4.1512 7.88142,-5.4914 4.35252,-3.44767 15.75938,-14.92608 15.29476,-15.39071 -0.20083,-0.20082 -3.66565,-1.24925 -7.69966,-2.32986 -4.03397,-1.0806 -8.13143,-2.20142 -9.10541,-2.49066 -0.97398,-0.28924 -1.96907,-0.44349 -2.2113,-0.3428 -0.51457,0.21392 -0.83374,0.66585 -7.45822,10.56034 -5.39981,8.06526 -8.00164,12.20412 -8.00164,12.72864 0,0.31501 5.98541,5.81112 6.32847,5.81112 0.0916,0 2.32877,-1.37459 4.97158,-3.05467 z"
     id="path3257"
     inkscape:connector-curvature="0" />
  <path
     style="fill:#008800;fill-opacity:1"
     d="m 318.1503,447.84688 c 9.58086,-2.17793 17.53878,-4.09155 17.68423,-4.25249 0.92336,-1.02158 16.70855,-21.93782 16.86616,-22.34855 0.10706,-0.27897 -0.005,-0.88637 -0.24834,-1.3498 -0.83841,-1.59467 -11.66827,-18.2153 -12.3296,-18.92234 -0.65575,-0.70103 -0.74525,-0.69144 -9.26356,0.99053 -4.73073,0.9341 -13.60937,2.43166 -19.73025,3.32791 l -11.12887,1.62959 -11.12887,-1.62959 c -6.12088,-0.89625 -14.9995,-2.39381 -19.73026,-3.32791 -8.5183,-1.68197 -8.60778,-1.69156 -9.26353,-0.99053 -0.66136,0.70704 -11.49119,17.32767 -12.32961,18.92234 -0.24364,0.46343 -0.3554,1.07083 -0.24836,1.3498 0.15776,0.4111 15.94429,21.32882 16.86703,22.34942 0.32189,0.35601 34.1529,8.13815 35.56548,8.18111 0.54922,0.0167 8.83746,-1.75156 18.41835,-3.92949 z"
     id="path3255"
     inkscape:connector-curvature="0" />
  <path
     style="fill:#008800;fill-opacity:1"
     d="m 229.6469,422.34447 c 4.96694,-0.66821 7.71652,-1.31994 10.35208,-2.45371 1.45544,-0.62611 2.20179,-1.29877 3.71031,-3.34395 2.37249,-3.21651 5.51411,-8.44267 8.69985,-14.47245 2.28532,-4.3255 2.43131,-4.73486 1.95813,-5.49043 -0.28121,-0.44906 -2.30123,-2.8816 -4.48892,-5.40563 -4.95253,-5.71398 -9.10796,-11.03264 -12.95624,-16.58314 -1.63429,-2.35722 -3.14842,-4.53743 -3.36473,-4.84495 -0.34816,-0.49492 -0.95047,-0.40911 -5.24776,0.74775 -8.3557,2.24938 -17.28647,3.97549 -29.26426,5.65615 -2.87558,0.4035 -5.36213,0.86744 -5.52567,1.03095 -0.62419,0.62419 8.66069,20.32599 13.84704,29.38236 2.74932,4.80083 9.5546,15.23624 10.75534,16.49251 0.6855,0.71725 0.85346,0.73057 3.92938,0.31169 1.7673,-0.24068 5.18525,-0.70292 7.59545,-1.02715 z"
     id="path3253"
     inkscape:connector-curvature="0" />
  <path
     style="fill:#008800;fill-opacity:1"
     d="m 383.47957,420.94411 c 3.01638,-4.22224 7.43173,-11.28616 10.45672,-16.72914 5.09258,-9.16335 13.11792,-26.45613 12.54414,-27.02991 -0.16351,-0.16351 -2.65008,-0.62745 -5.52564,-1.03095 -11.97781,-1.68066 -20.90856,-3.40677 -29.26426,-5.65615 -4.2973,-1.15686 -4.8996,-1.24267 -5.24776,-0.74775 -0.21632,0.30752 -1.73042,2.48773 -3.36472,4.84495 -3.84831,5.5505 -8.00371,10.86916 -12.95625,16.58314 -2.1877,2.52403 -4.20769,4.95657 -4.48894,5.40563 -0.47316,0.75557 -0.32717,1.16493 1.95814,5.49043 3.18575,6.02978 6.32735,11.25594 8.69985,14.47245 1.50853,2.04518 2.25487,2.71784 3.71031,3.34395 2.61053,1.12302 5.37559,1.78395 10.17114,2.43123 2.31064,0.3119 5.66696,0.77019 7.45844,1.01843 1.79148,0.24827 3.42009,0.3989 3.61915,0.33477 0.19905,-0.0641 1.20242,-1.29312 2.22968,-2.73108 z"
     id="path3251"
     inkscape:connector-curvature="0" />
  <path
     style="fill:#008800;fill-opacity:1"
     d="m 320.77766,397.34971 c 11.12909,-2.08032 20.35259,-3.91103 20.4967,-4.06825 0.14408,-0.15721 4.76399,-6.12642 10.26643,-13.26489 l 10.00444,-12.97902 -0.64319,-0.99066 c -0.35377,-0.54487 -5.83859,-7.36677 -12.18852,-15.15981 l -11.54533,-14.16917 -1.4836,0.003 c -0.81597,0.002 -8.56807,0.65176 -17.22688,1.44452 -8.6588,0.79276 -16.96474,1.44139 -18.45764,1.44139 -1.4929,0 -9.79883,-0.64863 -18.45764,-1.44139 -8.6588,-0.79276 -16.41091,-1.4428 -17.22689,-1.44452 l -1.4836,-0.003 -11.54532,14.16917 c -6.34993,7.79304 -11.83476,14.61494 -12.18851,15.15981 l -0.64319,0.99066 10.00444,12.97902 c 5.50245,7.13847 10.12303,13.10836 10.26796,13.26641 0.2728,0.2975 39.30659,7.75362 40.91084,7.81468 0.49763,0.0188 10.01041,-1.66763 21.1395,-3.74795 z"
     id="path3249"
     inkscape:connector-curvature="0" />
  <path
     style="fill:#008800;fill-opacity:1"
     d="m 197.90871,369.97909 c 19.85876,-3.30852 33.9733,-5.80309 34.77526,-6.14614 1.1405,-0.48786 25.84453,-31.2742 25.60066,-31.90372 -0.26677,-0.68865 -24.82178,-35.45458 -25.61472,-36.26633 -0.67749,-0.69354 -0.78331,-0.68186 -9.293,1.02555 -8.98444,1.80267 -43.75212,10.42736 -44.31875,10.99399 -0.5895,0.5895 1.81882,23.18371 3.53852,33.19749 1.12958,6.57754 5.79701,24.13673 7.91252,29.76747 0.21636,0.57588 -0.40603,0.63212 7.39951,-0.66831 z"
     id="path3247"
     inkscape:connector-curvature="0" />
  <path
     style="fill:#008800;fill-opacity:1"
     d="m 411.01475,365.85203 c 2.67498,-8.58581 5.41171,-19.28302 6.38873,-24.9721 1.71968,-10.01378 4.128,-32.60799 3.53851,-33.19749 -0.56664,-0.56663 -35.33433,-9.19132 -44.31875,-10.99399 -8.50969,-1.70741 -8.61552,-1.71909 -9.29302,-1.02555 -0.79292,0.81175 -25.34792,35.57768 -25.61472,36.26633 -0.21653,0.55897 24.38399,31.35241 25.45754,31.86619 0.41892,0.20046 7.01481,1.43477 14.65754,2.74284 7.64273,1.3081 16.66453,2.8567 20.04844,3.44137 3.3839,0.58464 6.46857,1.03515 6.85484,1.00109 0.57356,-0.0506 0.99157,-0.99049 2.28089,-5.12869 z"
     id="path3245"
     inkscape:connector-curvature="0" />
  <path
     style="fill:#008800;fill-opacity:1"
     d="m 315.20048,333.23318 c 5.87207,-0.69728 12.85948,-1.54207 15.52755,-1.87732 l 4.85106,-0.60954 13.5161,-19.15251 c 7.43387,-10.53389 13.5161,-19.2715 13.5161,-19.41692 0,-0.64474 -27.51358,-26.74576 -28.98994,-27.50158 -1.35385,-0.6931 -2.6199,-0.88392 -8.46822,-1.27633 -3.782,-0.25376 -10.98863,-0.74624 -16.01472,-1.0944 -8.70133,-0.60274 -9.57537,-0.60274 -18.27668,0 -5.02609,0.34816 -12.23271,0.84064 -16.01472,1.0944 -5.84831,0.39241 -7.11437,0.58323 -8.46821,1.27633 -2.08652,1.06819 -29.10143,27.07649 -28.83786,27.76333 0.22135,0.57683 26.14491,37.3893 26.75684,37.99576 0.34627,0.34319 21.02968,3.03928 31.48436,4.104 3.88489,0.39564 6.67273,0.20826 19.41834,-1.30522 z"
     id="path3243"
     inkscape:connector-curvature="0" />
  <path
     style="fill:#008800;fill-opacity:1"
     d="m 198.93621,296.53466 c 18.02213,-3.9957 23.38217,-5.27256 30.49053,-7.26336 3.03884,-0.85107 4.02662,-1.29846 4.93088,-2.23333 0.62192,-0.64298 5.95569,-6.34788 11.85282,-12.67756 l 10.72206,-11.50851 -0.52786,-0.97754 c -0.29033,-0.53765 -4.48407,-6.6777 -9.31943,-13.64455 l -8.79157,-12.66701 -17.55285,0.0923 c -9.65407,0.0507 -17.90389,0.17213 -18.33293,0.26974 -1.00582,0.22882 -7.77568,10.65396 -10.81083,16.64797 -5.24641,10.36093 -9.04177,23.95461 -11.01408,39.44868 -0.90017,7.07156 -0.93301,8.505 -0.19486,8.505 0.299,0 8.64566,-1.79631 18.54812,-3.9918 z"
     id="path3241"
     inkscape:connector-curvature="0" />
  <path
     style="fill:#008800;fill-opacity:1"
     d="m 420.15501,299.16928 c 0,-2.55326 -1.47397,-12.93357 -2.70842,-19.091 -2.15582,-10.75312 -5.10933,-19.73609 -9.04349,-27.5055 -3.03516,-5.99401 -9.80499,-16.41915 -10.81082,-16.64797 -0.42905,-0.0976 -8.67885,-0.21899 -18.33292,-0.26974 l -17.55286,-0.0923 -8.79155,12.66701 c -4.83536,6.96685 -9.02912,13.1069 -9.31945,13.64455 l -0.52785,0.97754 10.72204,11.50851 c 5.89715,6.32968 11.2309,12.03458 11.85285,12.67756 1.15331,1.19237 2.73947,1.7426 11.80724,4.09595 4.75599,1.23432 40.97376,9.32881 41.89161,9.36258 0.70516,0.0259 0.8142,-0.15199 0.81362,-1.32722 z"
     id="path3239"
     inkscape:connector-curvature="0" />
  <path
     style="fill:#008800;fill-opacity:1"
     d="m 279.00903,258.88682 c 3.48343,-0.19748 9.63145,-0.61327 13.66227,-0.92398 6.64161,-0.51195 8.01594,-0.51195 14.65754,0 15.06086,1.16094 30.9915,1.87549 31.61642,1.41811 0.33329,-0.24392 5.22297,-7.6421 14.4835,-21.91376 0.87026,-1.34123 1.58232,-2.54463 1.58232,-2.67423 0,-0.61936 -10.34286,-11.73834 -14.1345,-15.19509 -5.83196,-5.31693 -7.06385,-6.40462 -7.81572,-6.90088 -0.78623,-0.51891 -3.67257,-0.30504 -28.62733,2.12125 -3.42972,0.33346 -5.43721,0.33346 -8.86691,0 -24.95477,-2.42629 -27.84113,-2.64016 -28.62733,-2.12125 -0.75187,0.49626 -1.98375,1.58395 -7.81574,6.90088 -3.79161,3.45675 -14.13449,14.57573 -14.13449,15.19509 0,0.1296 0.71205,1.333 1.58234,2.67423 9.26051,14.27166 14.1502,21.66984 14.48347,21.91376 0.41727,0.3054 7.09069,0.12174 17.95416,-0.49413 z"
     id="path3237"
     inkscape:connector-curvature="0" />
  <path
     style="fill:#008800;fill-opacity:1"
     d="m 250.39199,221.58983 c 4.79146,-5.19697 8.71174,-9.58685 8.71174,-9.75529 0,-0.39983 -1.1733,-0.57712 -8.18921,-1.2374 -8.10939,-0.7632 -10.63778,-0.7075 -14.70372,0.32391 -6.49537,1.64768 -11.56719,4.29235 -17.82246,9.29339 -4.162,3.3275 -11.03839,9.63344 -11.03839,10.12268 0,0.19238 5.64625,0.37266 13.48132,0.43044 7.41472,0.0547 15.13904,0.1381 17.16515,0.18537 l 3.68383,0.0859 8.71174,-9.44903 z"
     id="path3235"
     inkscape:connector-curvature="0" />
  <path
     style="fill:#008800;fill-opacity:1"
     d="m 392.65019,230.40843 c 0.27879,-0.2716 -6.61825,-6.66067 -10.76956,-9.97635 -6.59361,-5.26639 -12.01147,-8.07518 -18.64262,-9.66495 -3.58693,-0.85994 -6.45521,-0.8944 -14.15237,-0.16999 -7.01593,0.66028 -8.18922,0.83757 -8.18922,1.2374 0,0.16844 3.90125,4.5377 8.66948,9.70946 l 8.66948,9.40321 17.11693,-0.18124 c 9.4143,-0.0997 17.19836,-0.26058 17.29788,-0.35754 z"
     id="path3233"
     inkscape:connector-curvature="0" />
  <path
     style="fill:#008800;fill-opacity:1"
     d="m 115.15998,282.09914 c 5.21758,-1.34778 11.77578,-3.78292 21.17391,-7.86214 7.89705,-3.42769 13.5012,-5.71187 16.05372,-6.5433 2.49926,-0.81407 4.92948,-2.8626 6.50045,-5.47951 0.87327,-1.45467 2.1271,-4.65127 3.40697,-8.68595 3.4432,-10.85439 4.82673,-14.50225 7.77467,-20.49885 4.57512,-9.30653 10.80733,-18.22966 18.24415,-26.12153 1.72119,-1.8265 2.99095,-3.40651 2.82169,-3.51112 -0.32937,-0.20355 -8.9662,0.55995 -13.90755,1.22945 -26.757,3.62529 -49.95419,15.16231 -62.94975,31.30777 -3.22913,4.01182 -8.72055,12.43431 -10.88892,16.70091 -3.72022,7.32014 -7.154886,17.53358 -7.139186,21.22933 0.01734,4.07689 3.140788,7.74345 7.954176,9.3372 1.59947,0.5296 6.57706,0.0288 10.95567,-1.10226 z"
     id="path3231"
     inkscape:connector-curvature="0" />
  <path
     style="fill:#008800;fill-opacity:1"
     d="m 497.86476,282.30906 c 3.7241,-1.90157 5.87054,-4.98151 5.88524,-8.44486 0.0156,-3.69575 -3.41897,-13.90919 -7.13917,-21.22933 -2.16837,-4.2666 -7.65981,-12.68909 -10.88892,-16.70091 -12.99555,-16.14546 -36.19276,-27.68248 -62.94975,-31.30777 -4.94136,-0.6695 -13.5782,-1.433 -13.90754,-1.22945 -0.16927,0.10461 1.10047,1.68462 2.82166,3.51112 7.43684,7.89187 13.66905,16.815 18.24415,26.12153 2.94794,5.9966 4.3315,9.64446 7.77469,20.49885 1.27987,4.03468 2.53369,7.23128 3.40695,8.68595 1.571,2.61691 4.00122,4.66544 6.50046,5.47951 2.50227,0.81506 7.97884,3.04895 16.8777,6.88441 9.66583,4.16603 15.76898,6.39717 20.81009,7.6076 2.09005,0.50184 4.12582,0.99708 4.52393,1.10052 0.3981,0.10345 1.94529,0.1428 3.43819,0.0875 2.08976,-0.0775 3.1488,-0.32245 4.60232,-1.06463 z"
     id="path3229"
     inkscape:connector-curvature="0" />
  <path
     style="fill:#008800;fill-opacity:1"
     d="m 314.7368,187.62983 c 7.64769,-0.88529 13.20915,-1.76399 13.59278,-2.14762 0.15845,-0.15844 1.08622,-2.63549 2.06169,-5.50456 0.97546,-2.86908 3.01474,-8.22943 4.53171,-11.91192 9.67079,-23.47593 9.77922,-23.78762 10.84625,-31.17109 0.78572,-5.43683 0.69354,-9.82294 -0.36198,-17.22343 -1.63072,-11.43318 -3.41945,-18.04007 -6.83751,-25.255084 -3.95591,-8.350277 -8.19899,-14.352499 -14.85033,-21.007181 -6.0629,-6.065967 -12.12834,-10.025873 -19.30745,-12.605198 -3.35427,-1.205121 -5.46951,-1.205121 -8.82377,0 -7.17913,2.579325 -13.24455,6.539231 -19.30746,12.605198 -6.65134,6.654682 -10.8944,12.656904 -14.85031,21.007181 -3.41808,7.215014 -5.20681,13.821904 -6.83752,25.255084 -1.05552,7.40049 -1.14771,11.7866 -0.362,17.22343 1.06703,7.38347 1.17548,7.69516 10.84625,31.17109 1.51698,3.68249 3.55626,9.04284 4.53173,11.91192 0.97548,2.86907 1.90822,5.35111 2.07275,5.51565 0.53668,0.53667 11.97809,2.07687 22.16589,2.98389 3.45375,0.30748 14.93705,-0.15833 20.88928,-0.84736 z"
     id="path3026-1"
     inkscape:connector-curvature="0" />
  <path
     style="fill:#96f996;fill-opacity:1"
     d="m 273.55222,101.27124 c 2.6246,-3.097008 4.85473,-5.846498 4.95584,-6.109972 0.10449,-0.272297 -0.53677,-1.069512 -1.48584,-1.847204 -1.43114,-1.172712 -1.74039,-1.295122 -2.16472,-0.85688 -1.72557,1.782118 -9.60123,11.380366 -9.60124,11.701266 -2e-5,0.4761 2.55349,2.71115 3.11915,2.73014 0.22263,0.007 2.55219,-2.52033 5.17681,-5.61735 z"
     id="path3160"
     inkscape:connector-curvature="0" />
  <path
     style="fill:#96f996;fill-opacity:1"
     d="m 333.31742,105.75586 c 0.78456,-0.63047 1.42645,-1.33585 1.42645,-1.56751 0,-0.34245 -7.79,-9.86056 -9.60123,-11.731166 -0.42435,-0.438242 -0.73357,-0.315832 -2.16472,0.85688 -0.94905,0.777692 -1.59033,1.574907 -1.48584,1.847204 0.29771,0.775757 9.69616,11.740912 10.06339,11.740912 0.18454,0 0.97743,-0.51584 1.76195,-1.14632 z"
     id="path3030-7"
     inkscape:connector-curvature="0" />
  <path
     inkscape:connector-curvature="0"
     style="fill:none;fill-opacity:1;stroke:none;stroke-width:3"
     id="path7200"
     d="m 2,2 0,257 c 0,286 298,398 298,398 0,0 298,-112 298,-398 L 598,2 Z" />
  <g
     transform="matrix(-0.809017,-0.58778525,0.58778525,-0.809017,290.02633,618.77786)"
     id="g4534" />
  <path
     id="path4147"
     d="m 2,2 0,257 c 0,286 298,398 298,398 0,0 298,-112 298,-398 L 598,2 Z"
     style="fill:url(#radialGradient4153);stroke:#000000;stroke-width:3"
     inkscape:connector-curvature="0" />
</svg>
