<?xml version="1.0" encoding="UTF-8" standalone="no"?>
<svg
   xmlns:dc="http://purl.org/dc/elements/1.1/"
   xmlns:cc="http://creativecommons.org/ns#"
   xmlns:rdf="http://www.w3.org/1999/02/22-rdf-syntax-ns#"
   xmlns:svg="http://www.w3.org/2000/svg"
   xmlns="http://www.w3.org/2000/svg"
   xmlns:xlink="http://www.w3.org/1999/xlink"
   xmlns:sodipodi="http://sodipodi.sourceforge.net/DTD/sodipodi-0.dtd"
   xmlns:inkscape="http://www.inkscape.org/namespaces/inkscape"
   width="600"
   height="660"
   id="svg2"
   version="1.1"
   inkscape:version="0.48.2 r9819"
   sodipodi:docname="House_Shett_(Gull_Tower).svg">
  <metadata
     id="metadata24">
    <rdf:RDF>
      <cc:Work
         rdf:about="">
        <dc:format>image/svg+xml</dc:format>
        <dc:type
           rdf:resource="http://purl.org/dc/dcmitype/StillImage" />
        <dc:title />
      </cc:Work>
    </rdf:RDF>
  </metadata>
  <sodipodi:namedview
     pagecolor="#ffffff"
     bordercolor="#666666"
     borderopacity="1"
     objecttolerance="10"
     gridtolerance="10"
     guidetolerance="10"
     inkscape:pageopacity="0"
     inkscape:pageshadow="2"
     inkscape:window-width="1366"
     inkscape:window-height="715"
     id="namedview22"
     showgrid="false"
     inkscape:zoom="0.71515153"
     inkscape:cx="234.56915"
     inkscape:cy="361.32022"
     inkscape:window-x="-8"
     inkscape:window-y="-8"
     inkscape:window-maximized="1"
     inkscape:current-layer="layer2" />
  <defs
     id="defs4">
    <radialGradient
       id="rg"
       gradientUnits="userSpaceOnUse"
       cx="220"
       cy="220"
       r="405">
      <stop
         style="stop-color:#fff;stop-opacity:.3"
         offset="0"
         id="stop7" />
      <stop
         style="stop-color:#fff;stop-opacity:.2"
         offset=".2"
         id="stop9" />
      <stop
         style="stop-color:#666;stop-opacity:.1"
         offset=".6"
         id="stop11" />
      <stop
         style="stop-color:#000;stop-opacity:.13"
         offset="1"
         id="stop13" />
    </radialGradient>
    <path
       id="shield"
       d="m2,2v257c0,286 298,398 298,398c0,0 298-112 298-398V2z" />
    <radialGradient
       inkscape:collect="always"
       xlink:href="#rg-7"
       id="radialGradient3055-1"
       gradientUnits="userSpaceOnUse"
       cx="220"
       cy="220"
       r="405" />
    <radialGradient
       id="rg-7"
       gradientUnits="userSpaceOnUse"
       cx="220"
       cy="220"
       r="405">
      <stop
         style="stop-color:#fff;stop-opacity:.3"
         offset="0"
         id="stop7-4" />
      <stop
         style="stop-color:#fff;stop-opacity:.2"
         offset=".2"
         id="stop9-0" />
      <stop
         style="stop-color:#666;stop-opacity:.1"
         offset=".6"
         id="stop11-9" />
      <stop
         style="stop-color:#000;stop-opacity:.13"
         offset="1"
         id="stop13-4" />
    </radialGradient>
    <radialGradient
       r="405"
       cy="220"
       cx="220"
       gradientUnits="userSpaceOnUse"
       id="radialGradient3074"
       xlink:href="#rg-7"
       inkscape:collect="always" />
    <inkscape:path-effect
       is_visible="true"
       id="path-effect10120-1"
       effect="spiro" />
    <inkscape:path-effect
       effect="spiro"
       id="path-effect10118-3"
       is_visible="true" />
    <inkscape:path-effect
       effect="spiro"
       id="path-effect10116-9"
       is_visible="true" />
    <inkscape:path-effect
       effect="spiro"
       id="path-effect10114-7"
       is_visible="true" />
    <inkscape:path-effect
       effect="spiro"
       id="path-effect10112-7"
       is_visible="true" />
    <inkscape:path-effect
       effect="spiro"
       id="path-effect10110-2"
       is_visible="true" />
    <linearGradient
       inkscape:collect="always"
       xlink:href="#linearGradient4719-5"
       id="linearGradient4039"
       gradientUnits="userSpaceOnUse"
       gradientTransform="matrix(2.3257341,0,0,2.2943177,447.69485,-1820.2799)"
       x1="-145.25935"
       y1="984.24286"
       x2="-64.14286"
       y2="984.14789" />
    <linearGradient
       inkscape:collect="always"
       id="linearGradient4719-5">
      <stop
         style="stop-color:#666666;stop-opacity:1;"
         offset="0"
         id="stop4721-5" />
      <stop
         id="stop4809-1"
         offset="0.39344174"
         style="stop-color:#666666;stop-opacity:0.74901961;" />
      <stop
         style="stop-color:#666666;stop-opacity:0;"
         offset="1"
         id="stop4723-7" />
    </linearGradient>
    <radialGradient
       inkscape:collect="always"
       xlink:href="#linearGradient4801-8"
       id="radialGradient4041"
       gradientUnits="userSpaceOnUse"
       gradientTransform="matrix(-0.72153181,1.2650715,-2.2729984,-1.2616144,1712.0113,1733.7841)"
       cx="-307.14288"
       cy="782.36218"
       fx="-307.14288"
       fy="782.36218"
       r="63" />
    <linearGradient
       inkscape:collect="always"
       id="linearGradient4801-8">
      <stop
         style="stop-color:#000000;stop-opacity:1;"
         offset="0"
         id="stop4803-2" />
      <stop
         style="stop-color:#000000;stop-opacity:0;"
         offset="1"
         id="stop4805-4" />
    </linearGradient>
    <inkscape:path-effect
       effect="spiro"
       id="path-effect10108-4"
       is_visible="true" />
    <linearGradient
       inkscape:collect="always"
       xlink:href="#linearGradient4719-5"
       id="linearGradient4044"
       gradientUnits="userSpaceOnUse"
       gradientTransform="matrix(-2.4055369,0,0,-1.6485021,142.06168,1726.5307)"
       x1="-145.25935"
       y1="984.24286"
       x2="-64.14286"
       y2="984.14789" />
    <radialGradient
       inkscape:collect="always"
       xlink:href="#linearGradient4801-8"
       id="radialGradient4046"
       gradientUnits="userSpaceOnUse"
       gradientTransform="matrix(0.74628962,-0.90897301,2.3509914,0.90648896,-1165.637,-827.11785)"
       cx="-307.14288"
       cy="782.36218"
       fx="-307.14288"
       fy="782.36218"
       r="63" />
    <inkscape:path-effect
       effect="spiro"
       id="path-effect10102-7"
       is_visible="true" />
    <linearGradient
       inkscape:collect="always"
       xlink:href="#linearGradient4719-5"
       id="linearGradient4049"
       gradientUnits="userSpaceOnUse"
       gradientTransform="matrix(2.334989,0,0,-1.6146975,449.44065,1692.189)"
       x1="-145.25935"
       y1="984.24286"
       x2="-64.14286"
       y2="984.14789" />
    <radialGradient
       inkscape:collect="always"
       xlink:href="#linearGradient4801-8"
       id="radialGradient4051"
       gradientUnits="userSpaceOnUse"
       gradientTransform="matrix(-0.72440295,-0.89033332,-2.2820431,0.88790031,1718.7881,-809.09364)"
       cx="-307.14288"
       cy="782.36218"
       fx="-307.14288"
       fy="782.36218"
       r="63" />
    <inkscape:path-effect
       is_visible="true"
       id="path-effect10096-8"
       effect="spiro" />
    <linearGradient
       inkscape:collect="always"
       xlink:href="#linearGradient4719-5"
       id="linearGradient4054"
       gradientUnits="userSpaceOnUse"
       gradientTransform="matrix(-2.409599,0,0,2.2818507,139.61083,-1810.8163)"
       x1="-145.25935"
       y1="984.24286"
       x2="-64.14286"
       y2="984.14789" />
    <radialGradient
       inkscape:collect="always"
       xlink:href="#linearGradient4801-8"
       id="radialGradient4056"
       gradientUnits="userSpaceOnUse"
       gradientTransform="matrix(0.74754985,1.2581972,2.3549614,-1.2547588,-1170.296,1723.935)"
       cx="-307.14288"
       cy="782.36218"
       fx="-307.14288"
       fy="782.36218"
       r="63" />
    <inkscape:path-effect
       is_visible="true"
       id="path-effect10090-3"
       effect="spiro" />
    <inkscape:path-effect
       effect="spiro"
       id="path-effect10084-1"
       is_visible="true" />
    <inkscape:path-effect
       effect="spiro"
       id="path-effect10082-1"
       is_visible="true" />
    <radialGradient
       inkscape:collect="always"
       xlink:href="#linearGradient4801-8"
       id="radialGradient4061"
       gradientUnits="userSpaceOnUse"
       gradientTransform="matrix(-0.76516322,1.2901254,-2.4104477,-1.2865998,1806.8444,1757.4704)"
       cx="-307.14288"
       cy="782.36218"
       fx="-307.14288"
       fy="782.36218"
       r="63" />
    <inkscape:path-effect
       effect="spiro"
       id="path-effect10080-4"
       is_visible="true" />
  </defs>
  <g
     inkscape:groupmode="layer"
     id="layer2"
     inkscape:label="Elements"
     style="display:inline">
    <path
       d="m 2,2 v 257 c 0,286 298,398 298,398 0,0 298,-112 298,-398 V 2 z"
       id="background"
       inkscape:connector-curvature="0"
       style="fill:#000000;display:inline" />
    <path
       style="fill:#ffffff;display:inline"
       d="m 2,2 0,82.25 74.875,0 L 76.875,2 2,2 z m 74.875,82.25 0,81.75 74.375,0 0,-81.75 -74.375,0 z m 74.375,0 74.375,0 0,-82.25 -74.375,0 0,82.25 z m 74.375,0 0,81.75 74.375,0 0,-81.75 -74.375,0 z m 74.375,0 74.375,0 0,-82.25 -74.375,0 0,82.25 z m 74.375,0 0,81.75 74.375,0 0,-81.75 -74.375,0 z m 74.375,0 74.375,0 0,-82.25 -74.375,0 0,82.25 z m 74.375,0 0,81.75 74.375,0 0,-81.75 -74.375,0 z m 0,81.75 -74.375,0 0,81.75 74.375,0 0,-81.75 z m 0,81.75 0,81.75 68.53125,0 c 0.5116,-2.77796 0.98425,-5.589 1.4375,-8.40625 0.45325,-2.81725 0.88796,-5.64319 1.28125,-8.5 0.006,-0.0407 -0.006,-0.0842 0,-0.125 0.33782,-2.46195 0.67686,-4.94626 0.96875,-7.4375 0.0415,-0.35378 0.0845,-0.70812 0.125,-1.0625 0.0522,-0.4555 0.10563,-0.91851 0.15625,-1.375 0.11013,-0.99501 0.20976,-2.00028 0.3125,-3 0.15972,-1.55097 0.32701,-3.09392 0.46875,-4.65625 0.12475,-1.37822 0.23315,-2.76918 0.34375,-4.15625 0.0225,-0.28119 0.0406,-0.5622 0.0625,-0.84375 0.0363,-0.46733 0.0598,-0.93916 0.0937,-1.40625 0.16093,-2.21004 0.31046,-4.42289 0.4375,-6.65625 0.0536,-0.94057 0.10919,-1.89917 0.15625,-2.84375 l 0,-31.28125 -74.375,0 z m 0,81.75 -74.375,0 0,81.75 74.375,0 0,-81.75 z m 0,81.75 0,74.8125 c 0.21664,-0.29518 0.44018,-0.57898 0.65625,-0.875 0.34255,-0.46915 0.69013,-0.93499 1.03125,-1.40625 0.67217,-0.92901 1.33356,-1.87525 2,-2.8125 1.20293,-1.69102 2.41011,-3.40716 3.59375,-5.125 0.0213,-0.0309 0.0412,-0.063 0.0625,-0.0937 0.34325,-0.49845 0.68968,-0.99929 1.03125,-1.5 0.85865,-1.25949 1.71475,-2.5074 2.5625,-3.78125 0.23352,-0.35064 0.45482,-0.71077 0.6875,-1.0625 0.94223,-1.42544 1.88444,-2.86914 2.8125,-4.3125 0.13424,-0.20862 0.27231,-0.416 0.40625,-0.625 1.02263,-1.59691 2.0579,-3.19367 3.0625,-4.8125 0.0366,-0.0589 0.0572,-0.1286 0.0937,-0.1875 0.94476,-1.52417 1.88431,-3.05012 2.8125,-4.59375 0.0939,-0.15606 0.1875,-0.31249 0.28125,-0.46875 0.0622,-0.10373 0.1254,-0.20869 0.1875,-0.3125 0.9589,-1.60167 1.90336,-3.22113 2.84375,-4.84375 2.99875,-5.17842 5.89065,-10.45116 8.6875,-15.84375 0.93423,-1.80015 1.83987,-3.61325 2.75,-5.4375 1.81666,-3.6429 3.59624,-7.32355 5.3125,-11.0625 0.60812,-1.32483 1.2175,-2.66307 1.8125,-4 0.2441,-0.54848 0.4769,-1.10572 0.71875,-1.65625 l -43.40625,0 z m -74.375,0 -74.375,0 0,81.75 74.375,0 0,-81.75 z m 0,81.75 0,72.46875 C 472.62278,545.06676 496.4986,520.99695 517.9375,493 l -69.1875,0 z m -74.375,0 -74.375,0 0,81.75 74.375,0 0,-81.75 z m 0,81.75 0,44.375 c 5.67746,-3.45167 11.54393,-7.14142 17.5625,-11.09375 1.50464,-0.98808 3.00908,-2.01145 4.53125,-3.03125 1.38638,-0.92883 2.78778,-1.85722 4.1875,-2.8125 0.1346,-0.092 0.27152,-0.18898 0.40625,-0.28125 1.8472,-1.26298 3.72587,-2.56575 5.59375,-3.875 1.2278,-0.86208 2.4825,-1.74255 3.71875,-2.625 0.78378,-0.55868 1.58826,-1.12071 2.375,-1.6875 0.77848,-0.56165 1.56237,-1.14904 2.34375,-1.71875 1.25469,-0.91363 2.52017,-1.84701 3.78125,-2.78125 0.32004,-0.23739 0.64829,-0.48001 0.96875,-0.71875 1.7327,-1.28937 3.47609,-2.60908 5.21875,-3.9375 1.44516,-1.10268 2.92356,-2.21381 4.375,-3.34375 0.62359,-0.48516 1.25052,-0.97859 1.875,-1.46875 0.10413,-0.0818 0.20834,-0.16808 0.3125,-0.25 0.46236,-0.36365 0.91318,-0.75823 1.375,-1.125 1.51491,-1.20299 3.03707,-2.39119 4.5625,-3.625 l -63.1875,0 z m -74.375,0 -74.375,0 0,44.375 c 5.33692,3.24464 10.51643,6.28369 15.46875,9.09375 9.90464,5.62011 18.93057,10.381 26.8125,14.3125 7.80993,3.89559 14.46336,6.97877 19.65625,9.28125 0.10878,0.0482 0.20501,0.0774 0.3125,0.125 2.31336,1.02329 4.25134,1.85322 5.9375,2.5625 0.15728,0.0662 0.41095,0.15529 0.5625,0.21875 1.98276,0.82818 2.83902,1.17295 3.75,1.53125 0.15695,0.0626 0.36351,0.16476 0.5,0.21875 0.0152,0.006 0.0793,0.0257 0.0937,0.0312 l 1.28125,0 0,-81.75 z m 0,81.75 0,0.5 c 0,0 0.94812,-0.37088 1.28125,-0.5 L 300,656.5 z m -74.375,-81.75 0,-81.75 -74.375,0 0,72.46875 c 3.73586,3.19272 7.46146,6.2673 11.1875,9.28125 l 63.1875,0 z M 151.25,493 l 0,-81.75 -74.375,0 0,74.8125 0,0.0312 c 0.286662,0.39044 0.587361,0.76728 0.875,1.15625 1.045662,1.41433 2.097973,2.82388 3.15625,4.21875 0.134575,0.17737 0.271478,0.35419 0.40625,0.53125 0.25129,0.33014 0.498026,0.67095 0.75,1 l 69.1875,0 z m -74.375,-81.75 0,-81.75 -68.53125,0 c 5.422684,29.44472 14.103633,56.6627 25.125,81.75 l 43.40625,0 z m 0,-81.75 74.375,0 0,-81.75 -74.375,0 0,81.75 z m 0,-81.75 0,-81.75 -74.875,0 0,81.75 74.875,0 z m 74.375,0 74.375,0 0,-81.75 -74.375,0 0,81.75 z m 74.375,0 0,81.75 74.375,0 0,-81.75 -74.375,0 z m 74.375,0 74.375,0 0,-81.75 -74.375,0 0,81.75 z m 74.375,0 0,81.75 74.375,0 0,-81.75 -74.375,0 z m 0,81.75 -74.375,0 0,81.75 74.375,0 0,-81.75 z M 300,411.25 l -74.375,0 0,81.75 74.375,0 0,-81.75 z m -74.375,0 0,-81.75 -74.375,0 0,81.75 74.375,0 z m 297.1875,75.28125 c -1.58313,2.1497 -3.20136,4.27016 -4.8125,6.375 1.61257,-2.10699 3.22865,-4.22347 4.8125,-6.375 z m -304.40625,128.125 c 1.29749,0.81438 2.56407,1.61662 3.84375,2.40625 -1.27727,-0.78842 -2.54818,-1.59286 -3.84375,-2.40625 z"
       id="path3113"
       inkscape:connector-curvature="0" />
    <g
       id="g3258"
       transform="matrix(0.9,0,0,0.9,-9.650617,-12.097439)">
      <g
         style="fill:#ffdd00"
         id="g15731"
         transform="matrix(0.57118619,0,0,0.57118619,24.86612,27.584705)">
        <path
           id="path10141"
           style="fill:#ffdd00;fill-opacity:1;fill-rule:evenodd;stroke:#000000;stroke-width:5.83581448;stroke-linecap:butt;stroke-linejoin:miter;stroke-miterlimit:4;stroke-opacity:1;stroke-dasharray:none"
           d="M 4.8163687,2.1972993 C 13.20148,-4.856133 102.70976,43.65584 138.34462,55.805318 c 35.60959,12.140864 92.58531,26.007997 122.74973,44.597512 29.64452,18.2691 41.06848,38.58998 49.95642,59.42321 8.55891,20.06198 8.10452,21.84586 13.46684,46.37045 5.36233,24.52459 7.98243,51.72792 7.98243,51.72792 0,0 -2.17269,34.03565 -13.74727,38.93221 -11.57459,4.89655 -30.20046,-2.02707 -31.80802,-9.24401 -8.67611,15.81981 -21.14585,8.40067 -21.59527,0.59401 -16.57629,7.69957 -31.33595,1.32019 -26.98024,-14.01964 -17.68919,11.66371 -30.23339,-6.9967 -21.02949,-19.12519 -20.70423,3.64403 -22.56859,-14.22375 -21.37748,-21.71842 -17.20699,-2.94384 -21.03058,-13.51303 -13.86103,-25.93054 -33.54901,-7.18607 -40.25704,-27.21165 -32.1858,-36.21938 C 114.66201,151.13792 95.8272,141.03369 104.61066,125.2131 56.991967,95.137823 48.748795,83.307113 53.8401,73.551819 31.609034,58.470192 16.957434,35.935166 22.291598,27.951612 4.3753443,18.276475 -3.5003015,9.1931599 4.8163687,2.1972993 z"
           inkscape:connector-curvature="0" />
        <path
           id="path11049"
           style="fill:#ffdd00;fill-opacity:0.75;fill-rule:evenodd;stroke:#000000;stroke-width:5.83581448;stroke-linecap:butt;stroke-linejoin:miter;stroke-miterlimit:4;stroke-opacity:1;stroke-dasharray:none"
           d="m 311.81408,164.65919 c 0.28322,0.74017 -3.46133,19.20387 -16.38783,16.42075 -12.92649,-2.78312 -30.24659,-19.11226 -41.023,-31.81891 -10.60536,-12.50496 -21.6143,-27.92727 -33.31801,-36.87221 -11.93846,-9.12436 -71.02545,-45.657313 -71.02545,-45.657313"
           inkscape:connector-curvature="0" />
        <path
           id="path11051"
           style="fill:#ffdd00;fill-opacity:0.75;fill-rule:evenodd;stroke:#000000;stroke-width:5.83581448;stroke-linecap:butt;stroke-linejoin:miter;stroke-miterlimit:4;stroke-opacity:1;stroke-dasharray:none"
           d="m 181.99233,207.2169 c 10.05805,1.71712 16.49014,-1.18582 28.64718,-5.66888 12.15705,-4.48305 19.981,-12.26332 19.981,-12.26332"
           inkscape:connector-curvature="0" />
        <path
           id="path11053"
           style="fill:#ffdd00;fill-opacity:0.75;fill-rule:evenodd;stroke:#000000;stroke-width:5.83581448;stroke-linecap:butt;stroke-linejoin:miter;stroke-miterlimit:4;stroke-opacity:1;stroke-dasharray:none"
           d="m 195.8779,233.3502 c 6.95529,-0.40476 15.94086,-5.61957 19.68848,-7.48429 3.84179,-1.91159 22.31015,-12.91715 26.22641,-20.86503"
           inkscape:connector-curvature="0" />
        <path
           id="path11055"
           style="fill:#ffdd00;fill-opacity:0.75;fill-rule:evenodd;stroke:#000000;stroke-width:5.83581448;stroke-linecap:butt;stroke-linejoin:miter;stroke-miterlimit:4;stroke-opacity:1;stroke-dasharray:none"
           d="m 217.15845,255.08343 c 5.09394,-0.52397 25.4275,-24.15872 28.62424,-28.83426 3.11175,-4.55122 6.37492,-12.52071 6.37492,-12.52071"
           inkscape:connector-curvature="0" />
        <path
           id="path11057"
           style="fill:#ffdd00;fill-opacity:0.75;fill-rule:evenodd;stroke:#000000;stroke-width:5.83581448;stroke-linecap:butt;stroke-linejoin:miter;stroke-miterlimit:4;stroke-opacity:1;stroke-dasharray:none"
           d="m 238.34031,274.27482 c 5.24799,-4.0966 18.91059,-22.06863 21.4714,-27.38059 2.51284,-5.21245 4.46034,-13.17949 4.46034,-13.17949"
           inkscape:connector-curvature="0" />
        <path
           id="path11059"
           style="fill:#ffdd00;fill-opacity:0.75;fill-rule:evenodd;stroke:#000000;stroke-width:5.83581448;stroke-linecap:butt;stroke-linejoin:miter;stroke-miterlimit:4;stroke-opacity:1;stroke-dasharray:none"
           d="m 265.38053,288.22849 c 6.39477,-4.23547 9.94194,-21.25962 12.22963,-28.56141 2.3492,-7.51733 2.8263,-21.33842 2.8263,-21.33842"
           inkscape:connector-curvature="0" />
        <path
           id="path11061"
           style="fill:#ffdd00;fill-opacity:0.75;fill-rule:evenodd;stroke:#000000;stroke-width:5.83581448;stroke-linecap:butt;stroke-linejoin:miter;stroke-miterlimit:4;stroke-opacity:1;stroke-dasharray:none"
           d="m 149.79633,171.14321 c 7.48235,4.00059 31.91554,8.22036 43.00394,8.37036 11.14489,0.15077 22.96595,-3.70138 22.96595,-3.70138"
           inkscape:connector-curvature="0" />
        <path
           id="path11063"
           style="fill:#ffdd00;fill-opacity:0.75;fill-rule:evenodd;stroke:#000000;stroke-width:5.83581448;stroke-linecap:butt;stroke-linejoin:miter;stroke-miterlimit:4;stroke-opacity:1;stroke-dasharray:none"
           d="m 104.57272,125.22096 c 31.648,17.07569 48.93386,20.46538 89.2982,30.12199"
           inkscape:connector-curvature="0" />
        <path
           id="path11065"
           style="fill:#ffdd00;fill-opacity:0.75;fill-rule:evenodd;stroke:#000000;stroke-width:5.83581448;stroke-linecap:butt;stroke-linejoin:miter;stroke-miterlimit:4;stroke-opacity:1;stroke-dasharray:none"
           d="M 53.801973,73.519447 C 75.233834,88.261844 118.86149,111.08802 181.48786,131.76117"
           inkscape:connector-curvature="0" />
        <path
           id="path11067"
           style="fill:#ffdd00;fill-opacity:0.75;fill-rule:evenodd;stroke:#000000;stroke-width:5.83581448;stroke-linecap:butt;stroke-linejoin:miter;stroke-miterlimit:4;stroke-opacity:1;stroke-dasharray:none"
           d="m 22.214905,27.932241 c 0,0 12.48886,6.861417 24.105888,14.792617 11.617017,7.93121 11.840248,10.632221 22.362211,16.932204 10.521952,6.299982 15.302886,6.957038 21.554743,9.943645 6.392815,3.053933 5.280515,4.886301 11.322383,7.682273 6.16389,2.852443 10.04676,0.312818 21.37911,4.783728 11.33235,4.4709 10.98504,7.998067 23.9503,13.099891 12.96524,5.101821 27.91071,7.307421 27.91071,7.307421"
           inkscape:connector-curvature="0" />
        <path
           id="path11069"
           style="fill:#ffdd00;fill-opacity:0.75;fill-rule:evenodd;stroke:#000000;stroke-width:5.83581448;stroke-linecap:butt;stroke-linejoin:miter;stroke-miterlimit:4;stroke-opacity:1;stroke-dasharray:none"
           d="m 305.08212,222.90114 c -0.13048,0.45725 -5.31417,10.68066 -12.12228,11.86918 -6.8081,1.18852 -13.10595,-2.29865 -15.11013,-7.11512 -2.00418,-4.81648 7.09343,-12.15078 7.09343,-12.15078"
           inkscape:connector-curvature="0" />
        <path
           id="path11071"
           style="fill:#ffdd00;fill-opacity:0.75;fill-rule:evenodd;stroke:#000000;stroke-width:5.83581448;stroke-linecap:butt;stroke-linejoin:miter;stroke-miterlimit:4;stroke-opacity:1;stroke-dasharray:none"
           d="m 280.18785,220.32826 c 0,0 -12.14722,10.29617 -19.62305,7.83263 -7.47585,-2.46355 -9.02828,-13.98587 -8.36484,-18.62353 0.66265,-4.63218 3.0407,-5.60171 7.38285,-8.68913"
           inkscape:connector-curvature="0" />
        <path
           id="path11073"
           style="fill:#ffdd00;fill-opacity:0.75;fill-rule:evenodd;stroke:#000000;stroke-width:5.83581448;stroke-linecap:butt;stroke-linejoin:miter;stroke-miterlimit:4;stroke-opacity:1;stroke-dasharray:none"
           d="m 268.84957,195.0869 c -10.12147,4.85804 -16.24172,13.45426 -23.63858,11.21931 -7.24446,-2.19146 -11.63778,-8.58441 -12.12952,-13.51693 -0.50633,-5.0788 2.65323,-9.29739 2.65323,-9.29739"
           inkscape:connector-curvature="0" />
        <path
           id="path11075"
           style="fill:#ffdd00;fill-opacity:0.75;fill-rule:evenodd;stroke:#000000;stroke-width:5.83581448;stroke-linecap:butt;stroke-linejoin:miter;stroke-miterlimit:4;stroke-opacity:1;stroke-dasharray:none"
           d="m 258.18877,179.02224 c -0.3483,0.0654 -14.92358,6.70289 -25.40411,3.54519 -10.39588,-3.1322 -15.25699,-16.3464 -13.35119,-22.51929 1.8623,-6.02049 8.04201,-6.52301 10.49103,-6.73054"
           inkscape:connector-curvature="0" />
        <path
           id="path11077"
           style="fill:#ffdd00;fill-opacity:0.75;fill-rule:evenodd;stroke:#000000;stroke-width:5.83581448;stroke-linecap:butt;stroke-linejoin:miter;stroke-miterlimit:4;stroke-opacity:1;stroke-dasharray:none"
           d="m 249.85483,154.22634 c -0.6966,0.13083 -14.84737,2.27669 -23.68604,-2.47524 -8.82348,-4.74378 -12.85958,-16.47034 -13.09004,-22.85684 -0.23589,-6.53697 4.49232,-10.83283 7.87733,-11.43253"
           inkscape:connector-curvature="0" />
      </g>
      <g
         transform="matrix(0.57118619,0,0,0.57118619,201.05255,212.16099)"
         id="g3086"
         style="fill:#ffdd00">
        <path
           inkscape:connector-curvature="0"
           d="M 4.8163687,2.1972993 C 13.20148,-4.856133 102.70976,43.65584 138.34462,55.805318 c 35.60959,12.140864 92.58531,26.007997 122.74973,44.597512 29.64452,18.2691 41.06848,38.58998 49.95642,59.42321 8.55891,20.06198 8.10452,21.84586 13.46684,46.37045 5.36233,24.52459 7.98243,51.72792 7.98243,51.72792 0,0 -2.17269,34.03565 -13.74727,38.93221 -11.57459,4.89655 -30.20046,-2.02707 -31.80802,-9.24401 -8.67611,15.81981 -21.14585,8.40067 -21.59527,0.59401 -16.57629,7.69957 -31.33595,1.32019 -26.98024,-14.01964 -17.68919,11.66371 -30.23339,-6.9967 -21.02949,-19.12519 -20.70423,3.64403 -22.56859,-14.22375 -21.37748,-21.71842 -17.20699,-2.94384 -21.03058,-13.51303 -13.86103,-25.93054 -33.54901,-7.18607 -40.25704,-27.21165 -32.1858,-36.21938 C 114.66201,151.13792 95.8272,141.03369 104.61066,125.2131 56.991967,95.137823 48.748795,83.307113 53.8401,73.551819 31.609034,58.470192 16.957434,35.935166 22.291598,27.951612 4.3753443,18.276475 -3.5003015,9.1931599 4.8163687,2.1972993 z"
           style="fill:#ffdd00;fill-opacity:1;fill-rule:evenodd;stroke:#000000;stroke-width:5.83581448;stroke-linecap:butt;stroke-linejoin:miter;stroke-miterlimit:4;stroke-opacity:1;stroke-dasharray:none"
           id="path3088" />
        <path
           inkscape:connector-curvature="0"
           d="m 311.81408,164.65919 c 0.28322,0.74017 -3.46133,19.20387 -16.38783,16.42075 -12.92649,-2.78312 -30.24659,-19.11226 -41.023,-31.81891 -10.60536,-12.50496 -21.6143,-27.92727 -33.31801,-36.87221 -11.93846,-9.12436 -71.02545,-45.657313 -71.02545,-45.657313"
           style="fill:#ffdd00;fill-opacity:0.75;fill-rule:evenodd;stroke:#000000;stroke-width:5.83581448;stroke-linecap:butt;stroke-linejoin:miter;stroke-miterlimit:4;stroke-opacity:1;stroke-dasharray:none"
           id="path3090" />
        <path
           inkscape:connector-curvature="0"
           d="m 181.99233,207.2169 c 10.05805,1.71712 16.49014,-1.18582 28.64718,-5.66888 12.15705,-4.48305 19.981,-12.26332 19.981,-12.26332"
           style="fill:#ffdd00;fill-opacity:0.75;fill-rule:evenodd;stroke:#000000;stroke-width:5.83581448;stroke-linecap:butt;stroke-linejoin:miter;stroke-miterlimit:4;stroke-opacity:1;stroke-dasharray:none"
           id="path3092" />
        <path
           inkscape:connector-curvature="0"
           d="m 195.8779,233.3502 c 6.95529,-0.40476 15.94086,-5.61957 19.68848,-7.48429 3.84179,-1.91159 22.31015,-12.91715 26.22641,-20.86503"
           style="fill:#ffdd00;fill-opacity:0.75;fill-rule:evenodd;stroke:#000000;stroke-width:5.83581448;stroke-linecap:butt;stroke-linejoin:miter;stroke-miterlimit:4;stroke-opacity:1;stroke-dasharray:none"
           id="path3094" />
        <path
           inkscape:connector-curvature="0"
           d="m 217.15845,255.08343 c 5.09394,-0.52397 25.4275,-24.15872 28.62424,-28.83426 3.11175,-4.55122 6.37492,-12.52071 6.37492,-12.52071"
           style="fill:#ffdd00;fill-opacity:0.75;fill-rule:evenodd;stroke:#000000;stroke-width:5.83581448;stroke-linecap:butt;stroke-linejoin:miter;stroke-miterlimit:4;stroke-opacity:1;stroke-dasharray:none"
           id="path3096" />
        <path
           inkscape:connector-curvature="0"
           d="m 238.34031,274.27482 c 5.24799,-4.0966 18.91059,-22.06863 21.4714,-27.38059 2.51284,-5.21245 4.46034,-13.17949 4.46034,-13.17949"
           style="fill:#ffdd00;fill-opacity:0.75;fill-rule:evenodd;stroke:#000000;stroke-width:5.83581448;stroke-linecap:butt;stroke-linejoin:miter;stroke-miterlimit:4;stroke-opacity:1;stroke-dasharray:none"
           id="path3098" />
        <path
           inkscape:connector-curvature="0"
           d="m 265.38053,288.22849 c 6.39477,-4.23547 9.94194,-21.25962 12.22963,-28.56141 2.3492,-7.51733 2.8263,-21.33842 2.8263,-21.33842"
           style="fill:#ffdd00;fill-opacity:0.75;fill-rule:evenodd;stroke:#000000;stroke-width:5.83581448;stroke-linecap:butt;stroke-linejoin:miter;stroke-miterlimit:4;stroke-opacity:1;stroke-dasharray:none"
           id="path3100" />
        <path
           inkscape:connector-curvature="0"
           d="m 149.79633,171.14321 c 7.48235,4.00059 31.91554,8.22036 43.00394,8.37036 11.14489,0.15077 22.96595,-3.70138 22.96595,-3.70138"
           style="fill:#ffdd00;fill-opacity:0.75;fill-rule:evenodd;stroke:#000000;stroke-width:5.83581448;stroke-linecap:butt;stroke-linejoin:miter;stroke-miterlimit:4;stroke-opacity:1;stroke-dasharray:none"
           id="path3102" />
        <path
           inkscape:connector-curvature="0"
           d="m 104.57272,125.22096 c 31.648,17.07569 48.93386,20.46538 89.2982,30.12199"
           style="fill:#ffdd00;fill-opacity:0.75;fill-rule:evenodd;stroke:#000000;stroke-width:5.83581448;stroke-linecap:butt;stroke-linejoin:miter;stroke-miterlimit:4;stroke-opacity:1;stroke-dasharray:none"
           id="path3104" />
        <path
           inkscape:connector-curvature="0"
           d="M 53.801973,73.519447 C 75.233834,88.261844 118.86149,111.08802 181.48786,131.76117"
           style="fill:#ffdd00;fill-opacity:0.75;fill-rule:evenodd;stroke:#000000;stroke-width:5.83581448;stroke-linecap:butt;stroke-linejoin:miter;stroke-miterlimit:4;stroke-opacity:1;stroke-dasharray:none"
           id="path3106" />
        <path
           inkscape:connector-curvature="0"
           d="m 22.214905,27.932241 c 0,0 12.48886,6.861417 24.105888,14.792617 11.617017,7.93121 11.840248,10.632221 22.362211,16.932204 10.521952,6.299982 15.302886,6.957038 21.554743,9.943645 6.392815,3.053933 5.280515,4.886301 11.322383,7.682273 6.16389,2.852443 10.04676,0.312818 21.37911,4.783728 11.33235,4.4709 10.98504,7.998067 23.9503,13.099891 12.96524,5.101821 27.91071,7.307421 27.91071,7.307421"
           style="fill:#ffdd00;fill-opacity:0.75;fill-rule:evenodd;stroke:#000000;stroke-width:5.83581448;stroke-linecap:butt;stroke-linejoin:miter;stroke-miterlimit:4;stroke-opacity:1;stroke-dasharray:none"
           id="path3108" />
        <path
           inkscape:connector-curvature="0"
           d="m 305.08212,222.90114 c -0.13048,0.45725 -5.31417,10.68066 -12.12228,11.86918 -6.8081,1.18852 -13.10595,-2.29865 -15.11013,-7.11512 -2.00418,-4.81648 7.09343,-12.15078 7.09343,-12.15078"
           style="fill:#ffdd00;fill-opacity:0.75;fill-rule:evenodd;stroke:#000000;stroke-width:5.83581448;stroke-linecap:butt;stroke-linejoin:miter;stroke-miterlimit:4;stroke-opacity:1;stroke-dasharray:none"
           id="path3110" />
        <path
           inkscape:connector-curvature="0"
           d="m 280.18785,220.32826 c 0,0 -12.14722,10.29617 -19.62305,7.83263 -7.47585,-2.46355 -9.02828,-13.98587 -8.36484,-18.62353 0.66265,-4.63218 3.0407,-5.60171 7.38285,-8.68913"
           style="fill:#ffdd00;fill-opacity:0.75;fill-rule:evenodd;stroke:#000000;stroke-width:5.83581448;stroke-linecap:butt;stroke-linejoin:miter;stroke-miterlimit:4;stroke-opacity:1;stroke-dasharray:none"
           id="path3112" />
        <path
           inkscape:connector-curvature="0"
           d="m 268.84957,195.0869 c -10.12147,4.85804 -16.24172,13.45426 -23.63858,11.21931 -7.24446,-2.19146 -11.63778,-8.58441 -12.12952,-13.51693 -0.50633,-5.0788 2.65323,-9.29739 2.65323,-9.29739"
           style="fill:#ffdd00;fill-opacity:0.75;fill-rule:evenodd;stroke:#000000;stroke-width:5.83581448;stroke-linecap:butt;stroke-linejoin:miter;stroke-miterlimit:4;stroke-opacity:1;stroke-dasharray:none"
           id="path3114" />
        <path
           inkscape:connector-curvature="0"
           d="m 258.18877,179.02224 c -0.3483,0.0654 -14.92358,6.70289 -25.40411,3.54519 -10.39588,-3.1322 -15.25699,-16.3464 -13.35119,-22.51929 1.8623,-6.02049 8.04201,-6.52301 10.49103,-6.73054"
           style="fill:#ffdd00;fill-opacity:0.75;fill-rule:evenodd;stroke:#000000;stroke-width:5.83581448;stroke-linecap:butt;stroke-linejoin:miter;stroke-miterlimit:4;stroke-opacity:1;stroke-dasharray:none"
           id="path3116" />
        <path
           inkscape:connector-curvature="0"
           d="m 249.85483,154.22634 c -0.6966,0.13083 -14.84737,2.27669 -23.68604,-2.47524 -8.82348,-4.74378 -12.85958,-16.47034 -13.09004,-22.85684 -0.23589,-6.53697 4.49232,-10.83283 7.87733,-11.43253"
           style="fill:#ffdd00;fill-opacity:0.75;fill-rule:evenodd;stroke:#000000;stroke-width:5.83581448;stroke-linecap:butt;stroke-linejoin:miter;stroke-miterlimit:4;stroke-opacity:1;stroke-dasharray:none"
           id="path3118" />
      </g>
      <g
         style="fill:#ffdd00"
         id="g3120"
         transform="matrix(0.57118619,0,0,0.57118619,377.23899,396.73727)">
        <path
           id="path3122"
           style="fill:#ffdd00;fill-opacity:1;fill-rule:evenodd;stroke:#000000;stroke-width:5.83581448;stroke-linecap:butt;stroke-linejoin:miter;stroke-miterlimit:4;stroke-opacity:1;stroke-dasharray:none"
           d="M 4.8163687,2.1972993 C 13.20148,-4.856133 102.70976,43.65584 138.34462,55.805318 c 35.60959,12.140864 92.58531,26.007997 122.74973,44.597512 29.64452,18.2691 41.06848,38.58998 49.95642,59.42321 8.55891,20.06198 8.10452,21.84586 13.46684,46.37045 5.36233,24.52459 7.98243,51.72792 7.98243,51.72792 0,0 -2.17269,34.03565 -13.74727,38.93221 -11.57459,4.89655 -30.20046,-2.02707 -31.80802,-9.24401 -8.67611,15.81981 -21.14585,8.40067 -21.59527,0.59401 -16.57629,7.69957 -31.33595,1.32019 -26.98024,-14.01964 -17.68919,11.66371 -30.23339,-6.9967 -21.02949,-19.12519 -20.70423,3.64403 -22.56859,-14.22375 -21.37748,-21.71842 -17.20699,-2.94384 -21.03058,-13.51303 -13.86103,-25.93054 -33.54901,-7.18607 -40.25704,-27.21165 -32.1858,-36.21938 C 114.66201,151.13792 95.8272,141.03369 104.61066,125.2131 56.991967,95.137823 48.748795,83.307113 53.8401,73.551819 31.609034,58.470192 16.957434,35.935166 22.291598,27.951612 4.3753443,18.276475 -3.5003015,9.1931599 4.8163687,2.1972993 z"
           inkscape:connector-curvature="0" />
        <path
           id="path3124"
           style="fill:#ffdd00;fill-opacity:0.75;fill-rule:evenodd;stroke:#000000;stroke-width:5.83581448;stroke-linecap:butt;stroke-linejoin:miter;stroke-miterlimit:4;stroke-opacity:1;stroke-dasharray:none"
           d="m 311.81408,164.65919 c 0.28322,0.74017 -3.46133,19.20387 -16.38783,16.42075 -12.92649,-2.78312 -30.24659,-19.11226 -41.023,-31.81891 -10.60536,-12.50496 -21.6143,-27.92727 -33.31801,-36.87221 -11.93846,-9.12436 -71.02545,-45.657313 -71.02545,-45.657313"
           inkscape:connector-curvature="0" />
        <path
           id="path3126"
           style="fill:#ffdd00;fill-opacity:0.75;fill-rule:evenodd;stroke:#000000;stroke-width:5.83581448;stroke-linecap:butt;stroke-linejoin:miter;stroke-miterlimit:4;stroke-opacity:1;stroke-dasharray:none"
           d="m 181.99233,207.2169 c 10.05805,1.71712 16.49014,-1.18582 28.64718,-5.66888 12.15705,-4.48305 19.981,-12.26332 19.981,-12.26332"
           inkscape:connector-curvature="0" />
        <path
           id="path3128"
           style="fill:#ffdd00;fill-opacity:0.75;fill-rule:evenodd;stroke:#000000;stroke-width:5.83581448;stroke-linecap:butt;stroke-linejoin:miter;stroke-miterlimit:4;stroke-opacity:1;stroke-dasharray:none"
           d="m 195.8779,233.3502 c 6.95529,-0.40476 15.94086,-5.61957 19.68848,-7.48429 3.84179,-1.91159 22.31015,-12.91715 26.22641,-20.86503"
           inkscape:connector-curvature="0" />
        <path
           id="path3130"
           style="fill:#ffdd00;fill-opacity:0.75;fill-rule:evenodd;stroke:#000000;stroke-width:5.83581448;stroke-linecap:butt;stroke-linejoin:miter;stroke-miterlimit:4;stroke-opacity:1;stroke-dasharray:none"
           d="m 217.15845,255.08343 c 5.09394,-0.52397 25.4275,-24.15872 28.62424,-28.83426 3.11175,-4.55122 6.37492,-12.52071 6.37492,-12.52071"
           inkscape:connector-curvature="0" />
        <path
           id="path3132"
           style="fill:#ffdd00;fill-opacity:0.75;fill-rule:evenodd;stroke:#000000;stroke-width:5.83581448;stroke-linecap:butt;stroke-linejoin:miter;stroke-miterlimit:4;stroke-opacity:1;stroke-dasharray:none"
           d="m 238.34031,274.27482 c 5.24799,-4.0966 18.91059,-22.06863 21.4714,-27.38059 2.51284,-5.21245 4.46034,-13.17949 4.46034,-13.17949"
           inkscape:connector-curvature="0" />
        <path
           id="path3134"
           style="fill:#ffdd00;fill-opacity:0.75;fill-rule:evenodd;stroke:#000000;stroke-width:5.83581448;stroke-linecap:butt;stroke-linejoin:miter;stroke-miterlimit:4;stroke-opacity:1;stroke-dasharray:none"
           d="m 265.38053,288.22849 c 6.39477,-4.23547 9.94194,-21.25962 12.22963,-28.56141 2.3492,-7.51733 2.8263,-21.33842 2.8263,-21.33842"
           inkscape:connector-curvature="0" />
        <path
           id="path3136"
           style="fill:#ffdd00;fill-opacity:0.75;fill-rule:evenodd;stroke:#000000;stroke-width:5.83581448;stroke-linecap:butt;stroke-linejoin:miter;stroke-miterlimit:4;stroke-opacity:1;stroke-dasharray:none"
           d="m 149.79633,171.14321 c 7.48235,4.00059 31.91554,8.22036 43.00394,8.37036 11.14489,0.15077 22.96595,-3.70138 22.96595,-3.70138"
           inkscape:connector-curvature="0" />
        <path
           id="path3138"
           style="fill:#ffdd00;fill-opacity:0.75;fill-rule:evenodd;stroke:#000000;stroke-width:5.83581448;stroke-linecap:butt;stroke-linejoin:miter;stroke-miterlimit:4;stroke-opacity:1;stroke-dasharray:none"
           d="m 104.57272,125.22096 c 31.648,17.07569 48.93386,20.46538 89.2982,30.12199"
           inkscape:connector-curvature="0" />
        <path
           id="path3140"
           style="fill:#ffdd00;fill-opacity:0.75;fill-rule:evenodd;stroke:#000000;stroke-width:5.83581448;stroke-linecap:butt;stroke-linejoin:miter;stroke-miterlimit:4;stroke-opacity:1;stroke-dasharray:none"
           d="M 53.801973,73.519447 C 75.233834,88.261844 118.86149,111.08802 181.48786,131.76117"
           inkscape:connector-curvature="0" />
        <path
           id="path3142"
           style="fill:#ffdd00;fill-opacity:0.75;fill-rule:evenodd;stroke:#000000;stroke-width:5.83581448;stroke-linecap:butt;stroke-linejoin:miter;stroke-miterlimit:4;stroke-opacity:1;stroke-dasharray:none"
           d="m 22.214905,27.932241 c 0,0 12.48886,6.861417 24.105888,14.792617 11.617017,7.93121 11.840248,10.632221 22.362211,16.932204 10.521952,6.299982 15.302886,6.957038 21.554743,9.943645 6.392815,3.053933 5.280515,4.886301 11.322383,7.682273 6.16389,2.852443 10.04676,0.312818 21.37911,4.783728 11.33235,4.4709 10.98504,7.998067 23.9503,13.099891 12.96524,5.101821 27.91071,7.307421 27.91071,7.307421"
           inkscape:connector-curvature="0" />
        <path
           id="path3144"
           style="fill:#ffdd00;fill-opacity:0.75;fill-rule:evenodd;stroke:#000000;stroke-width:5.83581448;stroke-linecap:butt;stroke-linejoin:miter;stroke-miterlimit:4;stroke-opacity:1;stroke-dasharray:none"
           d="m 305.08212,222.90114 c -0.13048,0.45725 -5.31417,10.68066 -12.12228,11.86918 -6.8081,1.18852 -13.10595,-2.29865 -15.11013,-7.11512 -2.00418,-4.81648 7.09343,-12.15078 7.09343,-12.15078"
           inkscape:connector-curvature="0" />
        <path
           id="path3146"
           style="fill:#ffdd00;fill-opacity:0.75;fill-rule:evenodd;stroke:#000000;stroke-width:5.83581448;stroke-linecap:butt;stroke-linejoin:miter;stroke-miterlimit:4;stroke-opacity:1;stroke-dasharray:none"
           d="m 280.18785,220.32826 c 0,0 -12.14722,10.29617 -19.62305,7.83263 -7.47585,-2.46355 -9.02828,-13.98587 -8.36484,-18.62353 0.66265,-4.63218 3.0407,-5.60171 7.38285,-8.68913"
           inkscape:connector-curvature="0" />
        <path
           id="path3148"
           style="fill:#ffdd00;fill-opacity:0.75;fill-rule:evenodd;stroke:#000000;stroke-width:5.83581448;stroke-linecap:butt;stroke-linejoin:miter;stroke-miterlimit:4;stroke-opacity:1;stroke-dasharray:none"
           d="m 268.84957,195.0869 c -10.12147,4.85804 -16.24172,13.45426 -23.63858,11.21931 -7.24446,-2.19146 -11.63778,-8.58441 -12.12952,-13.51693 -0.50633,-5.0788 2.65323,-9.29739 2.65323,-9.29739"
           inkscape:connector-curvature="0" />
        <path
           id="path3150"
           style="fill:#ffdd00;fill-opacity:0.75;fill-rule:evenodd;stroke:#000000;stroke-width:5.83581448;stroke-linecap:butt;stroke-linejoin:miter;stroke-miterlimit:4;stroke-opacity:1;stroke-dasharray:none"
           d="m 258.18877,179.02224 c -0.3483,0.0654 -14.92358,6.70289 -25.40411,3.54519 -10.39588,-3.1322 -15.25699,-16.3464 -13.35119,-22.51929 1.8623,-6.02049 8.04201,-6.52301 10.49103,-6.73054"
           inkscape:connector-curvature="0" />
        <path
           id="path3152"
           style="fill:#ffdd00;fill-opacity:0.75;fill-rule:evenodd;stroke:#000000;stroke-width:5.83581448;stroke-linecap:butt;stroke-linejoin:miter;stroke-miterlimit:4;stroke-opacity:1;stroke-dasharray:none"
           d="m 249.85483,154.22634 c -0.6966,0.13083 -14.84737,2.27669 -23.68604,-2.47524 -8.82348,-4.74378 -12.85958,-16.47034 -13.09004,-22.85684 -0.23589,-6.53697 4.49232,-10.83283 7.87733,-11.43253"
           inkscape:connector-curvature="0" />
      </g>
    </g>
  </g>
  <g
     inkscape:groupmode="layer"
     id="layer1"
     inkscape:label="Cover"
     style="display:inline"
     sodipodi:insensitive="true">
    <path
       d="m 2,2 v 257 c 0,286 298,398 298,398 0,0 298,-112 298,-398 V 2 z"
       id="shine"
       inkscape:connector-curvature="0"
       style="fill:url(#radialGradient3074);stroke:#000000;stroke-width:3" />
  </g>
</svg>
