<?xml version="1.0" encoding="UTF-8"?>
<svg xmlns="http://www.w3.org/2000/svg" xmlns:xlink="http://www.w3.org/1999/xlink" width="600" height="660">
<defs>
  <radialGradient id="rg" gradientUnits="userSpaceOnUse" cx="220" cy="220" r="405">
    <stop style="stop-color:#fff;stop-opacity:.3" offset="0"/>
    <stop style="stop-color:#fff;stop-opacity:.2" offset=".2"/>
    <stop style="stop-color:#666;stop-opacity:.1" offset=".6"/>
    <stop style="stop-color:#000;stop-opacity:.13" offset="1"/>
  </radialGradient>
  <path id="shield" d="m2,2v257c0,286 298,398 298,398c0,0 298-112 298-398V2z"/>
  <g id="bell" style="fill:#dddddd;stroke:#800080;stroke-width:1;stroke-linecap:round;stroke-linejoin:round;">
    <path style="fill:#bbbbbb;" d="M 72.744796,67.765678 A 72.781464,14.585373 0 0 1 -0.03666797,82.351051 72.781464,14.585373 0 0 1 -72.818132,67.765678 72.781464,14.585373 0 0 1 -0.03666797,53.180305 72.781464,14.585373 0 0 1 72.744796,67.765678 Z" />
    <g>
      <path d="m -5.4865505,78.070806 -0.045776,6.299604 c 0,0.890622 0.8126029,1.607625 1.8219771,1.607625 h 6.2161535 c 1.0093776,0 1.8219771,-0.717003 1.8219771,-1.607625 L 4.267056,78.131114 c 4.0521836,-1.81695 6.919934,-3.927715 6.919934,-8.722998 0,-4.714561 -2.7720127,-7.439755 -6.8166124,-9.402051 L 4.3277812,27.50266 c 0,-0.890622 -0.8125995,-1.607625 -1.8219771,-1.607625 h -6.2161535 c -1.0093742,0 -1.8219771,0.717003 -1.8219771,1.607625 l -0.019044,32.653139 c -4.0463762,1.780676 -6.8401505,4.519287 -6.8401505,9.252317 0,4.783648 2.8080775,6.814863 6.9049738,8.66269 z" />
      <path d="m 4.4626765,84.831535 a 5.0411496,2.2454402 0 0 1 -5.04114965,2.245441 5.0411496,2.2454402 0 0 1 -5.04114965,-2.245441 5.0411496,2.2454402 0 0 1 5.04114965,-2.24544 5.0411496,2.2454402 0 0 1 5.04114965,2.24544 z" />
      <path style="fill:none;" d="m -5.5023071,60.081887 c 4.50658934,-1.48751 6.6358025,-0.918643 9.8938719,0" />
      <path style="fill:none;" d="m -5.5023071,78.250987 c 4.50658934,-1.487511 6.6358025,-0.918644 9.8938719,0" />
    </g>
    <g>
      <g>
        <path d="M 0.07799525,-68.266197 11.299813,-70.957916 c 2.050494,1.875098 -2.0137519,17.122519 4.54961,1.964918 1.053202,-3.314165 4.278947,-6.546734 -1.346576,-7.031778 L 0.07799525,-73.333058 -14.34686,-76.024776 c -5.62552,0.485044 -3.313054,2.65212 -2.259852,5.966285 0.143364,1.8399 3.626515,-0.716317 5.462886,-0.899425 z" />
        <path d="M 0.07799525,-71.174205 11.299813,-73.865924 c 1.701819,-0.144279 0.948195,1.213625 0.131107,1.654616 -1.039579,0.947976 -1.40396,2.259496 -1.4869962,3.383164 -0.03193,0.841896 -0.3843135,2.755805 -0.4829044,3.594134 1.1506086,0.806338 2.5799216,0.631228 1.6659176,1.36493 0.267147,0.375323 2.267588,0.744953 3.532289,0.363732 0.844456,0.697976 1.546594,0.303511 2.277318,0.138371 -0.05291,-3.302991 1.140595,-5.801619 3.479281,-8.534029 1.053203,-3.314165 -0.287455,-6.546735 -5.912978,-7.03178 l -14.42485175,2.69172 -14.42485525,-2.69172 c -5.62552,0.485045 -6.966177,3.717615 -5.912975,7.03178 2.338686,2.73241 3.532194,5.231038 3.479278,8.534029 0.730728,0.16514 1.432866,0.559605 2.277322,-0.138371 1.2647,0.381221 3.265142,0.01161 3.532285,-0.363732 -0.914004,-0.733702 0.515309,-0.558592 1.6659211,-1.36493 -0.098594,-0.838329 -0.4509571,-2.752238 -0.4829044,-3.594134 -0.083036,-1.123668 -0.4474207,-2.435188 -1.4869957,-3.383164 -0.817088,-0.440991 -1.570712,-1.798895 0.131103,-1.654616 z" />
      </g>
      <g>
        <path d="m 0.50850196,-63.597809 c 1.80664434,-0.981989 3.91863054,-1.604224 5.38345364,-3.141326 0.065079,-5.834549 -0.078544,-11.075247 0,-16.891946 -0.092225,-0.240084 -0.074352,-0.391888 -0.4903605,-0.357154 -0.8296481,0.05913 -0.7572645,-1.028842 -1.591465,-0.928374 -0.7111554,0.139156 -2.0681381,0.132962 -1.9145823,-0.788543 -0.1382534,-0.827133 -0.92419477,-1.355394 -1.81756937,-1.235706 -0.89337798,-0.119688 -1.67931933,0.408573 -1.81757273,1.235706 0.1535558,0.921505 -1.2034236,0.927699 -1.914579,0.788543 -0.8342039,-0.100468 -0.7618168,0.987506 -1.591465,0.928374 -0.4160084,-0.03473 -0.3981388,0.11707 -0.4903638,0.357154 0.078548,5.816699 -0.065076,11.057397 0,16.891946 1.0640161,2.297903 4.3058578,2.693828 6.24450406,3.141326 z" />
        <path d="m 0.171519,-87.008949 c 0.9208133,0 1.6621159,0.475166 1.6621159,1.065394 v 20.52134 c 0,0.590226 -0.7413026,1.065392 -1.6621159,1.065392 -0.92081331,0 -1.6621159,-0.475166 -1.6621159,-1.065392 v -20.52134 c 0,-0.590228 0.74130259,-1.065394 1.6621159,-1.065394 z" />
      </g>
    </g>
    <g>
      <path d="m 72.816709,66.932348 c 0,-8.051129 -32.67801,-13.75204 -72.85337759,-13.75204 -40.17536741,0 -72.78146041,6.534247 -72.73868741,13.75204 1.994909,-6.674846 5.310443,-11.304548 8.793306,-15.931837 l 6.548982,-7.265948 c 2.440446,-0.03038 3.349739,-3.123093 4.738373,-5.257117 3.037362,-6.063934 4.178445,-12.79221 5.544449,-19.172384 3.217878,-19.10387899 1.11709,-38.827361 3.020427,-58.397574 0.495569,-1.568088 0.348517,-4.093232 1.206896,-5.456672 5.983899,-7.43997 10.20988,-10.778121 14.529711,-14.335264 1.3119,-1.080278 2.172328,-2.658358 4.760375,-3.188546 6.75487,-1.611337 18.101355,-3.071281 23.7108558,-3.007248 5.6095008,-0.06403 16.9559892,1.395911 23.7108592,3.007248 2.588047,0.530188 3.448475,2.108268 4.760375,3.188546 4.319831,3.557143 8.545812,6.895294 14.529711,14.335264 0.858379,1.36344 0.711327,3.888584 1.206896,5.456672 1.903337,19.570213 -0.197451,39.29369501 3.020427,58.397574 1.366004,6.380174 2.507087,13.10845 5.544449,19.172384 1.388634,2.134024 2.297927,5.226728 4.738373,5.257117 l 6.548981,7.265948 c 3.482865,4.627289 6.726484,10.090327 8.678619,15.931837 z" />
      <g>
        <path d="m -71.639073,68.955679 c -0.772497,-0.851162 -1.177627,-1.722508 -1.177627,-2.618117 0,-8.051125 32.606175,-14.583646 72.78154214,-14.583646 40.17536786,0 72.78154186,6.532521 72.78154186,14.583646 0,0.711213 -0.265423,1.408311 -0.757046,2.092391 -6.17315,-6.800095 -35.888234,-11.96553 -71.59340034,-11.96553 -36.62223866,0 -66.95619766,5.432527 -72.03501066,12.491256 z" />
        <path d="m -0.52777934,-36.731633 c -25.73438566,0 -46.62047166,4.732987 -46.62046866,10.570311 0,0.87893 0.475314,1.737319 1.367585,2.553963 1.740882,-5.473169 21.537203,-9.797761 45.67132138,-9.797761 23.24921962,0 42.47141962,4.010967 45.40597162,9.197898 0.521497,-0.632877 0.796059,-1.287075 0.796059,-1.9541 0,-5.837324 -20.886086,-10.570314 -46.62046834,-10.570311 z" />
        <path d="m -0.02297111,-28.900344 c -25.77619789,0 -46.69621689,4.732724 -46.69621389,10.569725 0,0.87888 0.476088,1.737225 1.369806,2.553822 1.743712,-5.472866 21.572195,-9.797219 45.74552527,-9.797219 23.28699173,0 42.54042273,4.010745 45.47974173,9.19739 0.522341,-0.632843 0.797351,-1.287005 0.797351,-1.953993 0,-5.837001 -20.920019,-10.569728 -46.69621011,-10.569725 z" />
        <path d="m -0.07885118,-54.994898 c -24.77279282,0 -44.87844582,4.739059 -44.87844182,10.58388 0,0.880061 0.457551,1.739553 1.316482,2.557244 1.675834,-5.480194 20.73244,-9.810345 43.96476202,-9.810345 22.38048098,0 40.88442698,4.016121 43.70932498,9.209715 0.502008,-0.633688 0.766312,-1.288728 0.766312,-1.956614 0,-5.844821 -20.105653,-10.583884 -44.87843918,-10.58388 z" />
        <path d="m 0.43799576,-65.82285 c -17.69030276,0 -33.41819176,3.955224 -33.41819176,8.832201 0,0.605354 -0.236579,1.19521 0.184746,1.76644 2.255815,-4.269739 17.428328,-7.559944 33.53836699,-7.559944 15.49420101,0 28.73796001,3.035057 31.71131301,7.065761 0.216969,-0.414841 0.03203,-0.84094 0.03203,-1.272257 0,-4.876977 -14.357972,-8.832201 -32.04827197,-8.832201 z" />
        <path d="m -0.30801063,30.38438 c -33.76163837,0 -61.15713837,6.554331 -61.15713837,14.629887 0,0.752355 0.23157,1.487299 0.690214,2.209171 4.464296,-7.026509 29.85067,-12.420716 60.46692437,-12.420716 30.61625463,0 56.01308563,5.394213 60.47737763,12.420716 0.458645,-0.721872 0.690214,-1.456816 0.690214,-2.209171 0,-8.075556 -27.405953,-14.629883 -61.16759163,-14.629887 z" />
      </g>
    </g>
  </g>
</defs>
<use id="background" xlink:href="#shield" fill="#800080"/>
<use xlink:href="#bell" transform="translate(100,115)"/>
<use xlink:href="#bell" transform="translate(300,115)"/>
<use xlink:href="#bell" transform="translate(500,115)"/>
<use xlink:href="#bell" transform="translate(200,315)"/>
<use xlink:href="#bell" transform="translate(400,315)"/>
<use xlink:href="#bell" transform="translate(300,515)"/>
<use id="shine" xlink:href="#shield" fill="url(#rg)" stroke="#000" stroke-width="3"/>
</svg>
