<?xml version="1.0" encoding="UTF-8" standalone="no"?>
<svg
   xmlns:dc="http://purl.org/dc/elements/1.1/"
   xmlns:cc="http://creativecommons.org/ns#"
   xmlns:rdf="http://www.w3.org/1999/02/22-rdf-syntax-ns#"
   xmlns:svg="http://www.w3.org/2000/svg"
   xmlns="http://www.w3.org/2000/svg"
   xmlns:xlink="http://www.w3.org/1999/xlink"
   xmlns:sodipodi="http://sodipodi.sourceforge.net/DTD/sodipodi-0.dtd"
   xmlns:inkscape="http://www.inkscape.org/namespaces/inkscape"
   width="600"
   height="660"
   id="svg2"
   version="1.1"
   inkscape:version="0.48.2 r9819"
   sodipodi:docname="House_Buckler.svg">
  <metadata
     id="metadata19">
    <rdf:RDF>
      <cc:Work
         rdf:about="">
        <dc:format>image/svg+xml</dc:format>
        <dc:type
           rdf:resource="http://purl.org/dc/dcmitype/StillImage" />
        <dc:title></dc:title>
      </cc:Work>
    </rdf:RDF>
  </metadata>
  <defs
     id="defs17">
    <clipPath
       clipPathUnits="userSpaceOnUse"
       id="clipPath5195">
      <path
         style="fill:#ffff00;stroke:none;stroke-width:3"
         id="path5197"
         d="m 2,2 0,257 c 0,286 298,398 298,398 0,0 298,-112 298,-398 L 598,2 Z"
         inkscape:connector-curvature="0" />
    </clipPath>
    <clipPath
       clipPathUnits="userSpaceOnUse"
       id="clipPath5277">
      <path
         style="fill:#1a1a1a;stroke:none;stroke-width:3"
         id="path5279"
         d="m 599.72861,332.73456 0,257 c 0,286 -298,398 -298,398 0,0 -298,-112 -298,-398 l 0,-257 z"
         inkscape:connector-curvature="0" />
    </clipPath>
    <clipPath
       clipPathUnits="userSpaceOnUse"
       id="clipPath5289">
      <path
         style="fill:#dc143c;fill-opacity:1;stroke:none;stroke-width:3"
         id="path5291"
         d="m 2,2 0,257 c 0,286 298,398 298,398 0,0 298,-112 298,-398 L 598,2 Z"
         inkscape:connector-curvature="0" />
    </clipPath>
    <clipPath
       clipPathUnits="userSpaceOnUse"
       id="clipPath5469">
      <path
         style="fill:#964b00;fill-opacity:1;stroke:none;stroke-width:3"
         id="path5471"
         d="m 2,2 0,257 c 0,286 298,398 298,398 0,0 298,-112 298,-398 L 598,2 Z"
         inkscape:connector-curvature="0" />
    </clipPath>
    <radialGradient
       inkscape:collect="always"
       xlink:href="#rg-7"
       id="radialGradient4153-1"
       gradientUnits="userSpaceOnUse"
       cx="220"
       cy="220"
       r="405" />
    <radialGradient
       id="rg-7"
       gradientUnits="userSpaceOnUse"
       cx="220"
       cy="220"
       r="405">
      <stop
         style="stop-color:#fff;stop-opacity:.3"
         offset="0"
         id="stop5-4" />
      <stop
         style="stop-color:#fff;stop-opacity:.2"
         offset=".2"
         id="stop7-0" />
      <stop
         style="stop-color:#666;stop-opacity:.1"
         offset=".6"
         id="stop9-9" />
      <stop
         style="stop-color:#000;stop-opacity:.13"
         offset="1"
         id="stop11-4" />
    </radialGradient>
    <radialGradient
       r="405"
       cy="220"
       cx="220"
       gradientUnits="userSpaceOnUse"
       id="radialGradient3253-8"
       xlink:href="#rg-7-8"
       inkscape:collect="always" />
    <radialGradient
       id="rg-7-8"
       gradientUnits="userSpaceOnUse"
       cx="220"
       cy="220"
       r="405">
      <stop
         style="stop-color:#fff;stop-opacity:.3"
         offset="0"
         id="stop5-4-2" />
      <stop
         style="stop-color:#fff;stop-opacity:.2"
         offset=".2"
         id="stop7-0-4" />
      <stop
         style="stop-color:#666;stop-opacity:.1"
         offset=".6"
         id="stop9-9-5" />
      <stop
         style="stop-color:#000;stop-opacity:.13"
         offset="1"
         id="stop11-4-5" />
    </radialGradient>
    <radialGradient
       r="405"
       cy="220"
       cx="220"
       gradientUnits="userSpaceOnUse"
       id="radialGradient3293"
       xlink:href="#rg-7-8"
       inkscape:collect="always" />
    <radialGradient
       r="405"
       cy="220"
       cx="220"
       gradientUnits="userSpaceOnUse"
       id="radialGradient3293-1"
       xlink:href="#rg-7-8-7"
       inkscape:collect="always" />
    <radialGradient
       id="rg-7-8-7"
       gradientUnits="userSpaceOnUse"
       cx="220"
       cy="220"
       r="405">
      <stop
         style="stop-color:#fff;stop-opacity:.3"
         offset="0"
         id="stop5-4-2-4" />
      <stop
         style="stop-color:#fff;stop-opacity:.2"
         offset=".2"
         id="stop7-0-4-0" />
      <stop
         style="stop-color:#666;stop-opacity:.1"
         offset=".6"
         id="stop9-9-5-9" />
      <stop
         style="stop-color:#000;stop-opacity:.13"
         offset="1"
         id="stop11-4-5-4" />
    </radialGradient>
  </defs>
  <sodipodi:namedview
     pagecolor="#ffffff"
     bordercolor="#666666"
     borderopacity="1"
     objecttolerance="10"
     gridtolerance="10"
     guidetolerance="10"
     inkscape:pageopacity="0"
     inkscape:pageshadow="2"
     inkscape:window-width="1366"
     inkscape:window-height="715"
     id="namedview15"
     showgrid="false"
     inkscape:zoom="0.45254834"
     inkscape:cx="326.42979"
     inkscape:cy="185.48857"
     inkscape:window-x="-8"
     inkscape:window-y="-8"
     inkscape:window-maximized="1"
     inkscape:current-layer="svg2" />
  <radialGradient
     id="rg"
     gradientUnits="userSpaceOnUse"
     cx="220"
     cy="220"
     r="405">
    <stop
       style="stop-color:#fff;stop-opacity:.3"
       offset="0"
       id="stop5" />
    <stop
       style="stop-color:#fff;stop-opacity:.2"
       offset=".2"
       id="stop7" />
    <stop
       style="stop-color:#666;stop-opacity:.1"
       offset=".6"
       id="stop9" />
    <stop
       style="stop-color:#000;stop-opacity:.13"
       offset="1"
       id="stop11" />
  </radialGradient>
  <path
     d="m 2,2 v 257 c 0,286 298,398 298,398 0,0 298,-112 298,-398 V 2 z"
     id="background-8"
     inkscape:connector-curvature="0"
     style="fill:#0000cc" />
  <g
     id="g3165"
     transform="translate(4.7468086,0)">
    <g
       transform="matrix(1.3532562,0,0,1.3532562,-641.45384,-298.3286)"
       id="g3101">
      <g
         style="display:inline"
         id="g8229"
         transform="translate(554.04365,368.54105)">
        <path
           id="path8197"
           d="m 143,75.46875 c -47.450128,1.203495 -85.562499,40.10529 -85.5625,87.84375 0,48.49622 39.347539,87.84375 87.84375,87.84375 48.49621,0 87.84376,-39.34753 87.84375,-87.84375 0,-48.49622 -39.34753,-87.843754 -87.84375,-87.84375 -0.75775,0 -1.52807,-0.0191 -2.28125,0 z m 2.28125,25.34375 c 34.5,0 62.5,28 62.5,62.5 0,34.50001 -28,62.5 -62.5,62.5 -34.49999,-1e-5 -62.5,-28 -62.5,-62.5 -10e-7,-34.49999 28,-62.5 62.5,-62.5 z"
           style="fill:#b5a642;fill-opacity:1;stroke:#000000;stroke-width:2.21687508;stroke-linecap:round;stroke-linejoin:round;stroke-miterlimit:4;stroke-opacity:1;stroke-dasharray:none"
           inkscape:connector-curvature="0" />
        <path
           sodipodi:nodetypes="cc"
           id="path8201"
           d="m 145.27739,75.745326 0,25.085944"
           style="fill:none;stroke:#000000;stroke-width:2.21687508;stroke-linecap:round;stroke-linejoin:round;stroke-miterlimit:4;stroke-opacity:1;stroke-dasharray:none"
           inkscape:connector-curvature="0" />
        <use
           height="660"
           width="600"
           transform="matrix(0.9659258,0.258819,-0.258819,0.9659258,47.094037,-32.052204)"
           id="use8203"
           xlink:href="#path8201"
           y="0"
           x="0" />
        <use
           height="660"
           width="600"
           transform="matrix(0.9659258,-0.258819,0.258819,0.9659258,-37.193616,43.148894)"
           id="use8205"
           xlink:href="#path8201"
           y="0"
           x="0" />
        <path
           id="rect8216"
           d="M 207.78125,150.78125 39.125,158.625 38.65625,163.3125 39.125,168 l 168.65625,7.84375 0,-12.53125 0,-12.53125 z"
           style="fill:#b5a642;fill-opacity:1;stroke:#000000;stroke-width:2.21687508;stroke-linecap:round;stroke-linejoin:round;stroke-miterlimit:4;stroke-opacity:1"
           inkscape:connector-curvature="0" />
        <rect
           y="163.3091"
           x="203.77739"
           height="17.110001"
           width="33.854061"
           id="rect8212"
           style="fill:#b5a642;fill-opacity:1;stroke:#000000;stroke-width:2.21687508;stroke-linecap:round;stroke-linejoin:round;stroke-miterlimit:4;stroke-opacity:1;stroke-dasharray:none" />
        <rect
           style="fill:#b5a642;fill-opacity:1;stroke:#000000;stroke-width:2.21687508;stroke-linecap:round;stroke-linejoin:round;stroke-miterlimit:4;stroke-opacity:1;stroke-dasharray:none"
           id="rect8214"
           width="33.854061"
           height="17.110001"
           x="203.77739"
           y="146.1991" />
        <use
           height="660"
           width="600"
           transform="matrix(1,0,0,-1,0,326.95297)"
           id="use8222"
           xlink:href="#path8201"
           y="0"
           x="0" />
        <use
           height="660"
           width="600"
           transform="matrix(1,0,0,-1,0,326.95297)"
           id="use8224"
           xlink:href="#use8203"
           y="0"
           x="0" />
        <use
           height="660"
           width="600"
           transform="matrix(1,0,0,-1,0,326.95297)"
           id="use8226"
           xlink:href="#use8205"
           y="0"
           x="0" />
      </g>
    </g>
    <g
       id="g3117"
       transform="matrix(1.3532562,0,0,1.3532562,-785.46852,-539.54768)">
      <g
         transform="translate(554.04365,368.54105)"
         id="g3119"
         style="display:inline">
        <path
           inkscape:connector-curvature="0"
           style="fill:#b5a642;fill-opacity:1;stroke:#000000;stroke-width:2.21687508;stroke-linecap:round;stroke-linejoin:round;stroke-miterlimit:4;stroke-opacity:1;stroke-dasharray:none"
           d="m 143,75.46875 c -47.450128,1.203495 -85.562499,40.10529 -85.5625,87.84375 0,48.49622 39.347539,87.84375 87.84375,87.84375 48.49621,0 87.84376,-39.34753 87.84375,-87.84375 0,-48.49622 -39.34753,-87.843754 -87.84375,-87.84375 -0.75775,0 -1.52807,-0.0191 -2.28125,0 z m 2.28125,25.34375 c 34.5,0 62.5,28 62.5,62.5 0,34.50001 -28,62.5 -62.5,62.5 -34.49999,-1e-5 -62.5,-28 -62.5,-62.5 -10e-7,-34.49999 28,-62.5 62.5,-62.5 z"
           id="path3121" />
        <path
           inkscape:connector-curvature="0"
           style="fill:none;stroke:#000000;stroke-width:2.21687508;stroke-linecap:round;stroke-linejoin:round;stroke-miterlimit:4;stroke-opacity:1;stroke-dasharray:none"
           d="m 145.27739,75.745326 0,25.085944"
           id="path3123"
           sodipodi:nodetypes="cc" />
        <use
           x="0"
           y="0"
           xlink:href="#path8201"
           id="use3125"
           transform="matrix(0.9659258,0.258819,-0.258819,0.9659258,47.094037,-32.052204)"
           width="600"
           height="660" />
        <use
           x="0"
           y="0"
           xlink:href="#path8201"
           id="use3127"
           transform="matrix(0.9659258,-0.258819,0.258819,0.9659258,-37.193616,43.148894)"
           width="600"
           height="660" />
        <path
           inkscape:connector-curvature="0"
           style="fill:#b5a642;fill-opacity:1;stroke:#000000;stroke-width:2.21687508;stroke-linecap:round;stroke-linejoin:round;stroke-miterlimit:4;stroke-opacity:1"
           d="M 207.78125,150.78125 39.125,158.625 38.65625,163.3125 39.125,168 l 168.65625,7.84375 0,-12.53125 0,-12.53125 z"
           id="path3129" />
        <rect
           style="fill:#b5a642;fill-opacity:1;stroke:#000000;stroke-width:2.21687508;stroke-linecap:round;stroke-linejoin:round;stroke-miterlimit:4;stroke-opacity:1;stroke-dasharray:none"
           id="rect3131"
           width="33.854061"
           height="17.110001"
           x="203.77739"
           y="163.3091" />
        <rect
           y="146.1991"
           x="203.77739"
           height="17.110001"
           width="33.854061"
           id="rect3133"
           style="fill:#b5a642;fill-opacity:1;stroke:#000000;stroke-width:2.21687508;stroke-linecap:round;stroke-linejoin:round;stroke-miterlimit:4;stroke-opacity:1;stroke-dasharray:none" />
        <use
           x="0"
           y="0"
           xlink:href="#path8201"
           id="use3135"
           transform="matrix(1,0,0,-1,0,326.95297)"
           width="600"
           height="660" />
        <use
           x="0"
           y="0"
           xlink:href="#use8203"
           id="use3137"
           transform="matrix(1,0,0,-1,0,326.95297)"
           width="600"
           height="660" />
        <use
           x="0"
           y="0"
           xlink:href="#use8205"
           id="use3139"
           transform="matrix(1,0,0,-1,0,326.95297)"
           width="600"
           height="660" />
      </g>
    </g>
    <g
       transform="matrix(1.3532562,0,0,1.3532562,-497.43915,-539.54768)"
       id="g3141">
      <g
         style="display:inline"
         id="g3143"
         transform="translate(554.04365,368.54105)">
        <path
           id="path3145"
           d="m 143,75.46875 c -47.450128,1.203495 -85.562499,40.10529 -85.5625,87.84375 0,48.49622 39.347539,87.84375 87.84375,87.84375 48.49621,0 87.84376,-39.34753 87.84375,-87.84375 0,-48.49622 -39.34753,-87.843754 -87.84375,-87.84375 -0.75775,0 -1.52807,-0.0191 -2.28125,0 z m 2.28125,25.34375 c 34.5,0 62.5,28 62.5,62.5 0,34.50001 -28,62.5 -62.5,62.5 -34.49999,-1e-5 -62.5,-28 -62.5,-62.5 -10e-7,-34.49999 28,-62.5 62.5,-62.5 z"
           style="fill:#b5a642;fill-opacity:1;stroke:#000000;stroke-width:2.21687508;stroke-linecap:round;stroke-linejoin:round;stroke-miterlimit:4;stroke-opacity:1;stroke-dasharray:none"
           inkscape:connector-curvature="0" />
        <path
           sodipodi:nodetypes="cc"
           id="path3147"
           d="m 145.27739,75.745326 0,25.085944"
           style="fill:none;stroke:#000000;stroke-width:2.21687508;stroke-linecap:round;stroke-linejoin:round;stroke-miterlimit:4;stroke-opacity:1;stroke-dasharray:none"
           inkscape:connector-curvature="0" />
        <use
           height="660"
           width="600"
           transform="matrix(0.9659258,0.258819,-0.258819,0.9659258,47.094037,-32.052204)"
           id="use3149"
           xlink:href="#path8201"
           y="0"
           x="0" />
        <use
           height="660"
           width="600"
           transform="matrix(0.9659258,-0.258819,0.258819,0.9659258,-37.193616,43.148894)"
           id="use3151"
           xlink:href="#path8201"
           y="0"
           x="0" />
        <path
           id="path3153"
           d="M 207.78125,150.78125 39.125,158.625 38.65625,163.3125 39.125,168 l 168.65625,7.84375 0,-12.53125 0,-12.53125 z"
           style="fill:#b5a642;fill-opacity:1;stroke:#000000;stroke-width:2.21687508;stroke-linecap:round;stroke-linejoin:round;stroke-miterlimit:4;stroke-opacity:1"
           inkscape:connector-curvature="0" />
        <rect
           y="163.3091"
           x="203.77739"
           height="17.110001"
           width="33.854061"
           id="rect3155"
           style="fill:#b5a642;fill-opacity:1;stroke:#000000;stroke-width:2.21687508;stroke-linecap:round;stroke-linejoin:round;stroke-miterlimit:4;stroke-opacity:1;stroke-dasharray:none" />
        <rect
           style="fill:#b5a642;fill-opacity:1;stroke:#000000;stroke-width:2.21687508;stroke-linecap:round;stroke-linejoin:round;stroke-miterlimit:4;stroke-opacity:1;stroke-dasharray:none"
           id="rect3157"
           width="33.854061"
           height="17.110001"
           x="203.77739"
           y="146.1991" />
        <use
           height="660"
           width="600"
           transform="matrix(1,0,0,-1,0,326.95297)"
           id="use3159"
           xlink:href="#path8201"
           y="0"
           x="0" />
        <use
           height="660"
           width="600"
           transform="matrix(1,0,0,-1,0,326.95297)"
           id="use3161"
           xlink:href="#use8203"
           y="0"
           x="0" />
        <use
           height="660"
           width="600"
           transform="matrix(1,0,0,-1,0,326.95297)"
           id="use3163"
           xlink:href="#use8205"
           y="0"
           x="0" />
      </g>
    </g>
  </g>
  <use
     id="background"
     xlink:href="#shield"
     style="fill:#0000cc"
     x="0"
     y="0"
     width="1"
     height="1" />
  <path
     id="path4147"
     d="m 2,2 0,257 c 0,286 298,398 298,398 0,0 298,-112 298,-398 L 598,2 z"
     style="fill:url(#radialGradient3293-1);stroke:#000000;stroke-width:3"
     inkscape:connector-curvature="0" />
</svg>
