<?xml version="1.0" encoding="UTF-8" standalone="no"?>
<svg
   xmlns:dc="http://purl.org/dc/elements/1.1/"
   xmlns:cc="http://creativecommons.org/ns#"
   xmlns:rdf="http://www.w3.org/1999/02/22-rdf-syntax-ns#"
   xmlns:svg="http://www.w3.org/2000/svg"
   xmlns="http://www.w3.org/2000/svg"
   xmlns:xlink="http://www.w3.org/1999/xlink"
   xmlns:sodipodi="http://sodipodi.sourceforge.net/DTD/sodipodi-0.dtd"
   xmlns:inkscape="http://www.inkscape.org/namespaces/inkscape"
   width="600"
   height="660"
   id="svg2"
   version="1.1"
   inkscape:version="0.48.2 r9819"
   sodipodi:docname="House_Broom.svg">
  <metadata
     id="metadata24">
    <rdf:RDF>
      <cc:Work
         rdf:about="">
        <dc:format>image/svg+xml</dc:format>
        <dc:type
           rdf:resource="http://purl.org/dc/dcmitype/StillImage" />
        <dc:title />
      </cc:Work>
    </rdf:RDF>
  </metadata>
  <sodipodi:namedview
     pagecolor="#ffffff"
     bordercolor="#666666"
     borderopacity="1"
     objecttolerance="10"
     gridtolerance="10"
     guidetolerance="10"
     inkscape:pageopacity="0"
     inkscape:pageshadow="2"
     inkscape:window-width="1366"
     inkscape:window-height="715"
     id="namedview22"
     showgrid="false"
     inkscape:zoom="0.71515153"
     inkscape:cx="234.56915"
     inkscape:cy="337.54904"
     inkscape:window-x="-8"
     inkscape:window-y="-8"
     inkscape:window-maximized="1"
     inkscape:current-layer="layer2" />
  <defs
     id="defs4">
    <radialGradient
       id="rg"
       gradientUnits="userSpaceOnUse"
       cx="220"
       cy="220"
       r="405">
      <stop
         style="stop-color:#fff;stop-opacity:.3"
         offset="0"
         id="stop7" />
      <stop
         style="stop-color:#fff;stop-opacity:.2"
         offset=".2"
         id="stop9" />
      <stop
         style="stop-color:#666;stop-opacity:.1"
         offset=".6"
         id="stop11" />
      <stop
         style="stop-color:#000;stop-opacity:.13"
         offset="1"
         id="stop13" />
    </radialGradient>
    <path
       id="shield"
       d="m2,2v257c0,286 298,398 298,398c0,0 298-112 298-398V2z" />
    <radialGradient
       inkscape:collect="always"
       xlink:href="#rg-7"
       id="radialGradient3055-1"
       gradientUnits="userSpaceOnUse"
       cx="220"
       cy="220"
       r="405" />
    <radialGradient
       id="rg-7"
       gradientUnits="userSpaceOnUse"
       cx="220"
       cy="220"
       r="405">
      <stop
         style="stop-color:#fff;stop-opacity:.3"
         offset="0"
         id="stop7-4" />
      <stop
         style="stop-color:#fff;stop-opacity:.2"
         offset=".2"
         id="stop9-0" />
      <stop
         style="stop-color:#666;stop-opacity:.1"
         offset=".6"
         id="stop11-9" />
      <stop
         style="stop-color:#000;stop-opacity:.13"
         offset="1"
         id="stop13-4" />
    </radialGradient>
    <radialGradient
       r="405"
       cy="220"
       cx="220"
       gradientUnits="userSpaceOnUse"
       id="radialGradient3074"
       xlink:href="#rg-7"
       inkscape:collect="always" />
    <inkscape:path-effect
       is_visible="true"
       id="path-effect10120-1"
       effect="spiro" />
    <inkscape:path-effect
       effect="spiro"
       id="path-effect10118-3"
       is_visible="true" />
    <inkscape:path-effect
       effect="spiro"
       id="path-effect10116-9"
       is_visible="true" />
    <inkscape:path-effect
       effect="spiro"
       id="path-effect10114-7"
       is_visible="true" />
    <inkscape:path-effect
       effect="spiro"
       id="path-effect10112-7"
       is_visible="true" />
    <inkscape:path-effect
       effect="spiro"
       id="path-effect10110-2"
       is_visible="true" />
    <linearGradient
       inkscape:collect="always"
       xlink:href="#linearGradient4719-5"
       id="linearGradient4039"
       gradientUnits="userSpaceOnUse"
       gradientTransform="matrix(2.3257341,0,0,2.2943177,447.69485,-1820.2799)"
       x1="-145.25935"
       y1="984.24286"
       x2="-64.14286"
       y2="984.14789" />
    <linearGradient
       inkscape:collect="always"
       id="linearGradient4719-5">
      <stop
         style="stop-color:#666666;stop-opacity:1;"
         offset="0"
         id="stop4721-5" />
      <stop
         id="stop4809-1"
         offset="0.39344174"
         style="stop-color:#666666;stop-opacity:0.74901961;" />
      <stop
         style="stop-color:#666666;stop-opacity:0;"
         offset="1"
         id="stop4723-7" />
    </linearGradient>
    <radialGradient
       inkscape:collect="always"
       xlink:href="#linearGradient4801-8"
       id="radialGradient4041"
       gradientUnits="userSpaceOnUse"
       gradientTransform="matrix(-0.72153181,1.2650715,-2.2729984,-1.2616144,1712.0113,1733.7841)"
       cx="-307.14288"
       cy="782.36218"
       fx="-307.14288"
       fy="782.36218"
       r="63" />
    <linearGradient
       inkscape:collect="always"
       id="linearGradient4801-8">
      <stop
         style="stop-color:#000000;stop-opacity:1;"
         offset="0"
         id="stop4803-2" />
      <stop
         style="stop-color:#000000;stop-opacity:0;"
         offset="1"
         id="stop4805-4" />
    </linearGradient>
    <inkscape:path-effect
       effect="spiro"
       id="path-effect10108-4"
       is_visible="true" />
    <linearGradient
       inkscape:collect="always"
       xlink:href="#linearGradient4719-5"
       id="linearGradient4044"
       gradientUnits="userSpaceOnUse"
       gradientTransform="matrix(-2.4055369,0,0,-1.6485021,142.06168,1726.5307)"
       x1="-145.25935"
       y1="984.24286"
       x2="-64.14286"
       y2="984.14789" />
    <radialGradient
       inkscape:collect="always"
       xlink:href="#linearGradient4801-8"
       id="radialGradient4046"
       gradientUnits="userSpaceOnUse"
       gradientTransform="matrix(0.74628962,-0.90897301,2.3509914,0.90648896,-1165.637,-827.11785)"
       cx="-307.14288"
       cy="782.36218"
       fx="-307.14288"
       fy="782.36218"
       r="63" />
    <inkscape:path-effect
       effect="spiro"
       id="path-effect10102-7"
       is_visible="true" />
    <linearGradient
       inkscape:collect="always"
       xlink:href="#linearGradient4719-5"
       id="linearGradient4049"
       gradientUnits="userSpaceOnUse"
       gradientTransform="matrix(2.334989,0,0,-1.6146975,449.44065,1692.189)"
       x1="-145.25935"
       y1="984.24286"
       x2="-64.14286"
       y2="984.14789" />
    <radialGradient
       inkscape:collect="always"
       xlink:href="#linearGradient4801-8"
       id="radialGradient4051"
       gradientUnits="userSpaceOnUse"
       gradientTransform="matrix(-0.72440295,-0.89033332,-2.2820431,0.88790031,1718.7881,-809.09364)"
       cx="-307.14288"
       cy="782.36218"
       fx="-307.14288"
       fy="782.36218"
       r="63" />
    <inkscape:path-effect
       is_visible="true"
       id="path-effect10096-8"
       effect="spiro" />
    <linearGradient
       inkscape:collect="always"
       xlink:href="#linearGradient4719-5"
       id="linearGradient4054"
       gradientUnits="userSpaceOnUse"
       gradientTransform="matrix(-2.409599,0,0,2.2818507,139.61083,-1810.8163)"
       x1="-145.25935"
       y1="984.24286"
       x2="-64.14286"
       y2="984.14789" />
    <radialGradient
       inkscape:collect="always"
       xlink:href="#linearGradient4801-8"
       id="radialGradient4056"
       gradientUnits="userSpaceOnUse"
       gradientTransform="matrix(0.74754985,1.2581972,2.3549614,-1.2547588,-1170.296,1723.935)"
       cx="-307.14288"
       cy="782.36218"
       fx="-307.14288"
       fy="782.36218"
       r="63" />
    <inkscape:path-effect
       is_visible="true"
       id="path-effect10090-3"
       effect="spiro" />
    <inkscape:path-effect
       effect="spiro"
       id="path-effect10084-1"
       is_visible="true" />
    <inkscape:path-effect
       effect="spiro"
       id="path-effect10082-1"
       is_visible="true" />
    <radialGradient
       inkscape:collect="always"
       xlink:href="#linearGradient4801-8"
       id="radialGradient4061"
       gradientUnits="userSpaceOnUse"
       gradientTransform="matrix(-0.76516322,1.2901254,-2.4104477,-1.2865998,1806.8444,1757.4704)"
       cx="-307.14288"
       cy="782.36218"
       fx="-307.14288"
       fy="782.36218"
       r="63" />
    <inkscape:path-effect
       effect="spiro"
       id="path-effect10080-4"
       is_visible="true" />
  </defs>
  <g
     inkscape:groupmode="layer"
     id="layer2"
     inkscape:label="Elements"
     style="display:inline">
    <path
       d="m 2,2 v 257 c 0,286 298,398 298,398 0,0 298,-112 298,-398 V 2 z"
       id="background"
       inkscape:connector-curvature="0"
       style="fill:#008800;display:inline" />
    <path
       style="fill:#000000;display:inline"
       d="m 2,2 0,82.25 74.875,0 L 76.875,2 2,2 z m 74.875,82.25 0,81.75 74.375,0 0,-81.75 -74.375,0 z m 74.375,0 74.375,0 0,-82.25 -74.375,0 0,82.25 z m 74.375,0 0,81.75 74.375,0 0,-81.75 -74.375,0 z m 74.375,0 74.375,0 0,-82.25 -74.375,0 0,82.25 z m 74.375,0 0,81.75 74.375,0 0,-81.75 -74.375,0 z m 74.375,0 74.375,0 0,-82.25 -74.375,0 0,82.25 z m 74.375,0 0,81.75 74.375,0 0,-81.75 -74.375,0 z m 0,81.75 -74.375,0 0,81.75 74.375,0 0,-81.75 z m 0,81.75 0,81.75 68.53125,0 c 0.5116,-2.77796 0.98425,-5.589 1.4375,-8.40625 0.45325,-2.81725 0.88796,-5.64319 1.28125,-8.5 0.006,-0.0407 -0.006,-0.0842 0,-0.125 0.33782,-2.46195 0.67686,-4.94626 0.96875,-7.4375 0.0415,-0.35378 0.0845,-0.70812 0.125,-1.0625 0.0522,-0.4555 0.10563,-0.91851 0.15625,-1.375 0.11013,-0.99501 0.20976,-2.00028 0.3125,-3 0.15972,-1.55097 0.32701,-3.09392 0.46875,-4.65625 0.12475,-1.37822 0.23315,-2.76918 0.34375,-4.15625 0.0225,-0.28119 0.0406,-0.5622 0.0625,-0.84375 0.0363,-0.46733 0.0598,-0.93916 0.0937,-1.40625 0.16093,-2.21004 0.31046,-4.42289 0.4375,-6.65625 0.0536,-0.94057 0.10919,-1.89917 0.15625,-2.84375 l 0,-31.28125 -74.375,0 z m 0,81.75 -74.375,0 0,81.75 74.375,0 0,-81.75 z m 0,81.75 0,74.8125 c 0.21664,-0.29518 0.44018,-0.57898 0.65625,-0.875 0.34255,-0.46915 0.69013,-0.93499 1.03125,-1.40625 0.67217,-0.92901 1.33356,-1.87525 2,-2.8125 1.20293,-1.69102 2.41011,-3.40716 3.59375,-5.125 0.0213,-0.0309 0.0412,-0.063 0.0625,-0.0937 0.34325,-0.49845 0.68968,-0.99929 1.03125,-1.5 0.85865,-1.25949 1.71475,-2.5074 2.5625,-3.78125 0.23352,-0.35064 0.45482,-0.71077 0.6875,-1.0625 0.94223,-1.42544 1.88444,-2.86914 2.8125,-4.3125 0.13424,-0.20862 0.27231,-0.416 0.40625,-0.625 1.02263,-1.59691 2.0579,-3.19367 3.0625,-4.8125 0.0366,-0.0589 0.0572,-0.1286 0.0937,-0.1875 0.94476,-1.52417 1.88431,-3.05012 2.8125,-4.59375 0.0939,-0.15606 0.1875,-0.31249 0.28125,-0.46875 0.0622,-0.10373 0.1254,-0.20869 0.1875,-0.3125 0.9589,-1.60167 1.90336,-3.22113 2.84375,-4.84375 2.99875,-5.17842 5.89065,-10.45116 8.6875,-15.84375 0.93423,-1.80015 1.83987,-3.61325 2.75,-5.4375 1.81666,-3.6429 3.59624,-7.32355 5.3125,-11.0625 0.60812,-1.32483 1.2175,-2.66307 1.8125,-4 0.2441,-0.54848 0.4769,-1.10572 0.71875,-1.65625 l -43.40625,0 z m -74.375,0 -74.375,0 0,81.75 74.375,0 0,-81.75 z m 0,81.75 0,72.46875 C 472.62278,545.06676 496.4986,520.99695 517.9375,493 l -69.1875,0 z m -74.375,0 -74.375,0 0,81.75 74.375,0 0,-81.75 z m 0,81.75 0,44.375 c 5.67746,-3.45167 11.54393,-7.14142 17.5625,-11.09375 1.50464,-0.98808 3.00908,-2.01145 4.53125,-3.03125 1.38638,-0.92883 2.78778,-1.85722 4.1875,-2.8125 0.1346,-0.092 0.27152,-0.18898 0.40625,-0.28125 1.8472,-1.26298 3.72587,-2.56575 5.59375,-3.875 1.2278,-0.86208 2.4825,-1.74255 3.71875,-2.625 0.78378,-0.55868 1.58826,-1.12071 2.375,-1.6875 0.77848,-0.56165 1.56237,-1.14904 2.34375,-1.71875 1.25469,-0.91363 2.52017,-1.84701 3.78125,-2.78125 0.32004,-0.23739 0.64829,-0.48001 0.96875,-0.71875 1.7327,-1.28937 3.47609,-2.60908 5.21875,-3.9375 1.44516,-1.10268 2.92356,-2.21381 4.375,-3.34375 0.62359,-0.48516 1.25052,-0.97859 1.875,-1.46875 0.10413,-0.0818 0.20834,-0.16808 0.3125,-0.25 0.46236,-0.36365 0.91318,-0.75823 1.375,-1.125 1.51491,-1.20299 3.03707,-2.39119 4.5625,-3.625 l -63.1875,0 z m -74.375,0 -74.375,0 0,44.375 c 5.33692,3.24464 10.51643,6.28369 15.46875,9.09375 9.90464,5.62011 18.93057,10.381 26.8125,14.3125 7.80993,3.89559 14.46336,6.97877 19.65625,9.28125 0.10878,0.0482 0.20501,0.0774 0.3125,0.125 2.31336,1.02329 4.25134,1.85322 5.9375,2.5625 0.15728,0.0662 0.41095,0.15529 0.5625,0.21875 1.98276,0.82818 2.83902,1.17295 3.75,1.53125 0.15695,0.0626 0.36351,0.16476 0.5,0.21875 0.0152,0.006 0.0793,0.0257 0.0937,0.0312 l 1.28125,0 0,-81.75 z m 0,81.75 0,0.5 c 0,0 0.94812,-0.37088 1.28125,-0.5 L 300,656.5 z m -74.375,-81.75 0,-81.75 -74.375,0 0,72.46875 c 3.73586,3.19272 7.46146,6.2673 11.1875,9.28125 l 63.1875,0 z M 151.25,493 l 0,-81.75 -74.375,0 0,74.8125 0,0.0312 c 0.286662,0.39044 0.587361,0.76728 0.875,1.15625 1.045662,1.41433 2.097973,2.82388 3.15625,4.21875 0.134575,0.17737 0.271478,0.35419 0.40625,0.53125 0.25129,0.33014 0.498026,0.67095 0.75,1 l 69.1875,0 z m -74.375,-81.75 0,-81.75 -68.53125,0 c 5.422684,29.44472 14.103633,56.6627 25.125,81.75 l 43.40625,0 z m 0,-81.75 74.375,0 0,-81.75 -74.375,0 0,81.75 z m 0,-81.75 0,-81.75 -74.875,0 0,81.75 74.875,0 z m 74.375,0 74.375,0 0,-81.75 -74.375,0 0,81.75 z m 74.375,0 0,81.75 74.375,0 0,-81.75 -74.375,0 z m 74.375,0 74.375,0 0,-81.75 -74.375,0 0,81.75 z m 74.375,0 0,81.75 74.375,0 0,-81.75 -74.375,0 z m 0,81.75 -74.375,0 0,81.75 74.375,0 0,-81.75 z M 300,411.25 l -74.375,0 0,81.75 74.375,0 0,-81.75 z m -74.375,0 0,-81.75 -74.375,0 0,81.75 74.375,0 z m 297.1875,75.28125 c -1.58313,2.1497 -3.20136,4.27016 -4.8125,6.375 1.61257,-2.10699 3.22865,-4.22347 4.8125,-6.375 z m -304.40625,128.125 c 1.29749,0.81438 2.56407,1.61662 3.84375,2.40625 -1.27727,-0.78842 -2.54818,-1.59286 -3.84375,-2.40625 z"
       id="path3113"
       inkscape:connector-curvature="0" />
    <g
       style="display:inline"
       id="g3494"
       transform="matrix(0.97424037,0,0,0.97424037,27.727885,-11.829555)">
      <g
         transform="matrix(0.96798565,0,0,0.96798565,-326.15579,-289.57657)"
         id="g4513"
         style="display:inline">
        <path
           style="fill:#579c25;fill-opacity:1;stroke:#325819;stroke-width:1.5;stroke-linecap:butt;stroke-linejoin:miter;stroke-miterlimit:4;stroke-opacity:1;stroke-dasharray:none"
           d="m 752.61183,497.4656 c 0,0 -18.11284,-9.17977 -27.9696,-10.90815 -7.44057,-1.3047 -15.39753,-1.53537 -22.65537,0.5594 -4.90053,1.4144 -13.14571,7.83148 -13.14571,7.83148 0,0 14.7252,-2.18259 21.81628,-0.55939 10.12094,2.31675 14.12599,8.98748 24.05386,12.02693 3.77064,1.15439 11.86912,1.8469 15.38328,3.63605 4.64452,2.36465 10.62845,11.46753 10.62845,11.46753 0,0 -6.33488,-0.49614 -9.22997,-1.67817 -3.23191,-1.31958 -3.63605,-1.39848 -3.63605,-1.39848 0,0 0.64602,0.81935 1.95787,3.91574 1.01902,2.4052 0.2797,6.71271 0.2797,6.71271 0,0 -6.52362,-1.66109 -9.78936,-4.47514 -3.40832,-2.93691 -8.02102,-11.7292 -10.90814,-12.30662 l 11.74723,24.61324 -7.2721,0.83909 c -4.02147,-13.66763 -5.79823,-20.92365 -12.02693,-27.9696 0.74813,7.08972 2.40308,14.90254 -5.59392,25.17265 l -6.9924,-2.51727 c 0,0 6.17729,-7.46183 6.9924,-12.02693 0.66547,-3.72701 0.27019,-8.12692 -1.95787,-11.18784 -2.23345,-3.06833 -6.33055,-6.05958 -10.06905,-6.7127 -5.93566,-1.03697 -12.53772,1.16848 -17.90055,3.91574 -5.3993,2.76594 -12.58632,13.14571 -12.58632,13.14571 0,0 8.78337,-3.75964 13.42541,-4.75483 5.27673,-1.13126 11.46753,0 11.46753,0 0,0 -14.02822,7.04687 -20.4178,12.30663 -3.31426,2.72822 -11.18784,7.83148 -11.18784,7.83148 0,0 8.10005,-2.36336 10.90814,-2.23757 4.45705,0.19965 13.14571,2.51727 13.14571,2.51727 0,0 -13.02894,4.08085 -19.01932,7.27209 -4.42885,2.35937 -12.30663,8.67058 -12.30663,8.67058 7.31585,-1.51072 13.8328,-1.82311 18.18024,1.11878 0,0 -11.57082,2.30121 -16.50206,5.31423 -5.85054,3.57472 -10.10266,9.32115 -14.54419,14.54419 -3.72116,4.37591 -10.06906,13.9848 -10.06906,13.9848 -2.14477,8.57835 -19.65745,7.14502 -19.57872,1.39848 0,0 13.46246,-12.77085 15.10358,-19.85842 0.75976,-3.28117 0.25395,-6.88336 -0.83908,-10.06905 -1.66167,-4.84299 -8.39088,-12.86602 -8.39088,-12.86602 6.41774,2.68522 13.02661,3.26794 18.73963,13.70511 5.38195,-16.03583 -9.76366,-23.72053 -13.9848,-26.29143 7.18062,-0.96575 14.82701,1.56176 23.49446,11.74723 -4.07737,-22.22625 -10.87553,-19.96543 -17.06145,-23.21476 7.73825,-2.80383 15.47651,0.30871 23.21476,6.433 -4.44559,-27.59207 -29.05846,-17.61739 -35.52139,-18.45993 l -1.95787,-5.03453 c 9.22997,-1.72238 28.52899,-8.40864 41.9544,9.78936 0.27708,-11.26059 -7.33419,-16.99935 -14.2645,-23.21477 l 3.91575,-2.79696 c 5.50069,2.93573 11.00137,4.22004 16.50206,21.53659 3.62015,-13.27843 1.77867,-22.61432 -2.79696,-34.40261 7.04527,4.75067 9.85281,10.46185 12.86602,17.90055 0.90778,-8.01894 1.48125,-14.06775 -1.11879,-24.89295 5.80638,6.08683 7.65511,11.94756 9.22997,18.73964 4.32065,-10.25552 4.12468,-20.51104 2.51727,-30.76656 6.38542,4.04976 6.01355,13.89149 7.55179,22.09598 4.29183,-9.94901 2.91775,-24.12568 -0.83909,-31.60565 10.62068,4.35115 10.77807,15.68358 11.46754,27.13052 0,0 6.29033,-7.66191 7.55179,-12.30663 1.22203,-4.49954 1.6627,-9.74613 -0.2797,-13.9848 -2.03531,-4.44143 -6.80119,-8.15176 -10.90814,-9.78936 -6.07754,-2.42335 -17.62085,1.39848 -17.62085,1.39848 l -1.11878,-8.95027 c 0,0 9.15443,-3.21693 13.14571,-2.79696 4.02559,0.42358 8.3159,0.92939 11.74723,3.07665 3.64323,2.27987 5.87362,4.75484 5.87362,4.75484 0,0 -1.37743,-8.04988 -5.03453,-13.70511 -3.50902,-5.42624 -14.2645,-15.94267 -14.2645,-15.94267 l 6.9924,-5.87362 c 0,0 10.66429,10.67807 13.14571,15.94268 2.7193,5.7693 3.63605,10.90814 3.63605,10.90814 0,0 0.39898,0.11181 1.11879,-2.79696 1.11463,-4.50424 5.31422,-12.86602 5.31422,-12.86602 l 8.11118,2.23757 c 0,0 -4.71657,8.14284 -6.15331,12.58632 -1.68818,5.2211 -2.79696,14.82389 -2.79696,14.82389 6.50349,-10.05603 14.51178,-11.93915 18.73963,-10.06906 -6.38694,4.50475 -12.59482,9.487 -16.78176,19.85843 5.60505,-2.20592 8.27156,-6.61574 19.29903,-4.75484 -17.06972,9.83495 -26.44154,20.11178 -33.00413,32.16504 9.78936,-0.35427 16.50206,-2.17059 26.29142,-15.94267 0.008,10.36391 -4.17049,13.19561 -9.78936,17.90054 11.40556,-0.545 20.55681,-11.40151 22.93508,-19.29902 2.24818,10.78513 -4.44418,18.94069 -14.82389,26.01173 l 16.50206,6.15331 z"
           id="path4324"
           inkscape:connector-curvature="0"
           sodipodi:nodetypes="cssccssccscscscscsssscccccccccccccccccscscscssscsscccccccccsssccsscsccscsccsccccccccccc" />
        <path
           style="fill:#00cc00;fill-opacity:1;stroke:none"
           d="m 702.88575,402.91859 -2.59375,2.1875 c 1.07873,1.07482 1.70478,1.65685 3.6875,3.75 3.17401,3.35078 6.76118,7.31372 8.78125,10.4375 4.14947,6.41661 5.46875,14.78125 5.46875,14.78125 0.19985,1.2002 -0.46922,2.49331 -1.56438,3.02345 -1.09517,0.53015 -2.52446,0.25281 -3.34187,-0.64845 0,0 -1.97791,-2.18283 -5.28125,-4.25 -2.70399,-1.69211 -6.56984,-2.26738 -10.5625,-2.6875 -1.01639,-0.10695 -4.3556,0.46289 -7.03125,1.1875 -1.47763,0.40017 -1.78948,0.55155 -2.6875,0.84375 l 0.40625,3.40625 c 1.25868,-0.34814 1.60488,-0.54368 3.625,-0.90625 3.86407,-0.69352 8.56444,-1.25656 12.65625,0.375 4.78462,1.90781 9.95403,5.83059 12.4375,11.25 2.37862,5.19058 1.76035,11.0355 0.4375,15.90625 -0.84063,3.09522 -2.85178,6.18063 -4.65625,8.78125 -1.80447,2.60062 -3.46875,4.59375 -3.46875,4.59375 -0.72203,0.87833 -2.00265,1.24987 -3.08265,0.89435 -1.08,-0.35553 -1.8895,-1.41513 -1.9486,-2.5506 -0.34733,-5.76655 -0.5793,-11.2776 -1.875,-15.5625 -0.34103,-1.1278 -0.77776,-2.14553 -1.25,-3.09375 1.40307,7.69096 1.16333,16.61585 -2.0625,24.09375 -0.48797,1.08785 -1.71869,1.79179 -2.90376,1.66088 -1.18508,-0.13091 -2.23247,-1.0865 -2.47124,-2.25463 -0.43098,-2.29873 -0.73723,-4.38888 -1.03125,-6.625 -0.34437,5.25352 -1.38974,10.53812 -3.625,15.84375 -0.44884,1.11423 -1.66674,1.86691 -2.86407,1.77001 -1.19732,-0.0969 -2.27835,-1.0356 -2.54218,-2.20751 -0.52276,-2.25456 -1.1057,-4.3056 -1.78125,-6.28125 0.0939,4.19467 -0.28296,7.96813 -0.75,12.09375 -0.15329,1.23075 -1.20213,2.29348 -2.43076,2.46295 -1.22862,0.16946 -2.526,-0.56965 -3.00674,-1.71295 -1.34231,-3.31376 -2.59822,-6.07158 -4.125,-8.5625 1.74444,7.7193 1.97992,15.42459 -0.5625,24.75 -0.30469,1.19001 -1.45892,2.10727 -2.687,2.13534 -1.22807,0.0281 -2.42301,-0.8355 -2.78175,-2.01034 -0.64451,-2.02895 -1.24368,-3.14505 -1.875,-4.71875 0.87212,2.51373 1.3576,5.30328 1.28125,8.40625 -0.0259,1.17546 -0.86065,2.2898 -1.98141,2.64517 -1.12076,0.35536 -2.44507,-0.0744 -3.14359,-1.02017 -6.22872,-8.44296 -13.36087,-10.85631 -20.40625,-11.21875 -5.64372,-0.29034 -10.83499,0.85097 -15.3125,1.8125 1.24391,-0.0704 2.73423,-0.19593 5.3125,-0.5 3.36707,-0.3971 7.42091,-0.74175 11.59375,-0.15625 4.17284,0.5855 8.54605,2.16902 12.09375,5.625 3.5477,3.45598 6.16257,8.66887 7.34375,16 0.16739,1.11658 -0.40431,2.30801 -1.38004,2.87608 -0.97574,0.56807 -2.2941,0.477 -3.18246,-0.21983 -3.39065,-2.68347 -6.59547,-4.55766 -9.71875,-5.6875 3.4079,3.32104 6.11241,8.94948 8.09375,19.75 0.20332,1.20856 -0.47602,2.51197 -1.58316,3.03751 -1.10715,0.52554 -2.5465,0.22785 -3.35434,-0.69376 -3.44093,-4.04357 -6.51942,-6.4858 -9.4375,-8.1875 0.27829,0.29666 0.57463,0.52981 0.84375,0.84375 4.08667,4.76741 6.92812,12.05803 3.9375,20.96875 -0.34624,1.04237 -1.34628,1.83483 -2.4402,1.93368 -1.09392,0.0988 -2.21981,-0.50151 -2.7473,-1.46493 -2.66487,-4.86849 -5.28937,-7.26831 -8.125,-8.8125 1.19914,1.85424 2.31518,3.78265 2.96875,5.6875 1.21785,3.54948 1.8632,7.62715 0.9375,11.625 -1.12174,4.84447 -5.13729,9.62458 -8.8125,13.8125 -2.90395,3.30907 -4.62309,4.87347 -5.65625,5.875 7.25343,-5.26652 12.42891,-4.67946 13.78125,-3.4375 0,0 6.26031,-9.55281 10.28125,-14.28125 4.35479,-5.12103 8.73606,-11.16403 15.21875,-15.125 1.1426,-0.69814 2.52746,-1.23327 3.90625,-1.78125 -1.14638,0.1618 -2.29986,0.30822 -3.53125,0.5625 -1.23721,0.25205 -2.60329,-0.43457 -3.13918,-1.57782 -0.5359,-1.14325 -0.18975,-2.63248 0.79543,-3.42218 0,0 7.69557,-6.27612 12.75,-8.96875 2.60158,-1.38593 6.12573,-2.78328 9.5,-4.03125 -0.77925,-0.1136 -1.83279,-0.38056 -2.40625,-0.40625 -0.48299,-0.0216 -3.40895,0.43962 -5.71875,1 -2.3098,0.56038 -4.3125,1.125 -4.3125,1.125 -1.28599,0.35504 -2.77893,-0.33888 -3.33658,-1.55084 -0.55765,-1.21197 -0.11341,-2.79722 0.99283,-3.54291 0,0 7.9823,-5.2236 10.9375,-7.65625 2.94411,-2.42352 7.08829,-4.96158 10.9375,-7.1875 -4.07209,0.96989 -12.46875,4.4375 -12.46875,4.4375 -1.12224,0.48664 -2.54748,0.14277 -3.32435,-0.80207 -0.77686,-0.94483 -0.83877,-2.40966 -0.1444,-3.41668 0,0 1.87074,-2.69573 4.4375,-5.75 2.56676,-3.05427 5.69022,-6.50491 9.21875,-8.3125 5.65882,-2.89889 12.73014,-5.40296 19.6875,-4.1875 4.82859,0.84356 9.15174,4.14545 11.84375,7.84375 2.89352,3.97514 3.23736,9.0391 2.46875,13.34375 -0.57896,3.24254 -2.48582,6.2499 -4.21875,8.8125 -0.51375,0.75971 -0.54451,0.72509 -1,1.34375 l 1.34375,0.5 c 6.00473,-8.63401 4.59971,-14.60095 3.875,-21.46875 -0.12009,-1.18225 0.589,-2.40293 1.67548,-2.88428 1.08648,-0.48135 2.46702,-0.18646 3.26202,0.69678 1.04995,1.18771 1.81442,2.43332 2.65625,3.65625 0.3771,-1.37554 1.91551,-2.31891 3.3125,-2.03125 1.93942,0.38788 2.92285,1.47699 3.96875,2.59375 1.0459,1.11676 2.00926,2.43337 3,3.78125 1.98147,2.69576 4.09731,5.59617 5.21875,6.5625 1.12306,0.96773 3.3642,2.04081 5.25,2.75 -0.0579,-0.66686 -0.0872,-1.51314 -0.1875,-1.75 -0.62419,-1.47329 -1.07698,-2.33333 -1.34375,-2.8125 -0.26677,-0.47917 -0.21875,-0.40625 -0.21875,-0.40625 -0.74303,-0.91103 -0.83123,-2.30032 -0.20939,-3.298 0.62184,-0.99768 1.90799,-1.53035 3.05314,-1.2645 0,0 0.42039,0.10876 0.96875,0.3125 0.54836,0.20374 1.46063,0.5832 3.09375,1.25 0.28945,0.11818 1.1103,0.21519 1.625,0.34375 -1.86896,-2.1771 -4.07093,-4.35197 -5.34375,-5 -1.09861,-0.55933 -3.95501,-1.2525 -6.84375,-1.78125 -2.88874,-0.52875 -5.84346,-0.95775 -8.125,-1.65625 -5.41881,-1.65899 -9.2189,-4.34007 -12.6875,-6.65625 -3.4686,-2.31618 -6.56393,-4.26844 -11.125,-5.3125 -2.85847,-0.65432 -8.26285,-0.61644 -12.71875,-0.28125 -4.4559,0.33519 -8.0625,0.875 -8.0625,0.875 -1.23496,0.18806 -2.55163,-0.54586 -3.04114,-1.69515 -0.48951,-1.14929 -0.1064,-2.60719 0.88489,-3.36735 0,0 2.14269,-1.65243 4.90625,-3.5 2.76356,-1.84757 6.0423,-3.90473 9.1875,-4.8125 7.84197,-2.26336 16.21292,-2.01075 23.9375,-0.65625 3.22097,0.5648 6.92898,1.80825 10.65625,3.21875 -0.5728,-1.21092 -0.1384,-2.8084 0.96875,-3.5625 3.97057,-2.7049 7.02217,-5.56172 9.40625,-8.5 -4.25736,3.74945 -9.65307,6.67443 -15.8125,6.96875 -1.18227,0.0553 -2.35829,-0.71224 -2.78362,-1.81673 -0.42534,-1.10449 -0.0679,-2.46256 0.84612,-3.21452 0.60889,-0.50985 1.04623,-0.91443 1.59375,-1.375 -0.59749,0.38637 -1.17799,0.83163 -1.78125,1.15625 -4.649,2.50164 -9.36016,3.09864 -14.40625,3.28125 -0.99289,0.0327 -1.98531,-0.49877 -2.50842,-1.34332 -0.52311,-0.84454 -0.55687,-1.9698 -0.0853,-2.84418 5.4845,-10.07318 13.23855,-19.03455 25.125,-27.40625 -0.0638,0.0258 -0.15558,0.0361 -0.21875,0.0625 -2.31168,0.96504 -4.39607,2.65443 -7.65625,3.9375 -1.02698,0.3971 -2.27814,0.12721 -3.0501,-0.65794 -0.77196,-0.78515 -1.0206,-2.04071 -0.60615,-3.06081 2.21694,-5.49157 5.04502,-9.63774 8.125,-12.96875 -1.68516,1.40952 -3.42186,3.19609 -5.09375,5.78125 -0.69875,1.04649 -2.14466,1.52183 -3.32806,1.09409 -1.1834,-0.42773 -1.99125,-1.71768 -1.85944,-2.96909 0,0 1.04859,-9.53309 2.9375,-15.375 1.0987,-3.398 3.07485,-7.15754 4.59375,-9.90625 l -2.3125,-0.625 c -1.16201,2.45902 -3.41642,7.29288 -4.125,10.15625 -0.39208,1.58442 -0.67761,2.44287 -1.125,3.21875 -0.22369,0.38794 -0.46549,0.78134 -1.0625,1.1875 -0.29851,0.20308 -0.72507,0.41872 -1.1875,0.5 -0.23121,0.0406 -0.45394,0.0479 -0.6875,0.0312 -0.23356,-0.0166 -0.65625,-0.125 -0.65625,-0.125 -0.99514,-0.30316 -1.78614,-1.19461 -1.96875,-2.21875 0,0 -0.82923,-4.78635 -3.375,-10.1875 -0.8866,-1.88102 -4.14245,-6.02065 -7.0625,-9.28125 -1.97593,-2.20637 -2.7677,-2.96227 -3.75,-3.96875 z m -49.34375,88.6875 c 2.21224,2.00416 4.39567,4.09411 6.28125,6.59375 1.44494,1.91551 2.67597,4.08338 3.5625,6.5 -1.93345,-4.72624 -3.80358,-8.17734 -5.53125,-9.96875 -1.38473,-1.43582 -2.82196,-2.31766 -4.3125,-3.125 z m 96.03125,1.3125 c 0.47328,0.23024 1.20669,0.55804 1.53125,0.71875 l 0.0312,-0.125 z m -15.21875,36.34375 c 0.50081,1.66931 1.01257,3.49241 1.5625,5.375 l 0.9375,-0.0937 -2.5,-5.28125 z"
           id="path4328"
           inkscape:connector-curvature="0"
           sodipodi:nodetypes="ccsscscsssccssssscscsccscccscccscccscccscscssscscccsccscsccsssccssccscsccscscsccscsssssscccscccsssccscscsscsssssscscsssccccsccscsccccscccscsccssscsccssccscscccccccccc" />
        <g
           id="g4129"
           transform="translate(1.4851357,0)">
          <path
             style="fill:#008800;fill-opacity:1;stroke:#325819;stroke-width:1.5;stroke-linecap:butt;stroke-linejoin:miter;stroke-miterlimit:4;stroke-opacity:1;stroke-dasharray:none"
             d="m 632.19189,503.29026 c -9.29852,40.43637 -52.38964,22.72585 -59.14001,36.98947 0,0 -2.95852,-12.60863 8.76654,-22.9629 13.65852,-12.06168 28.21038,-10.31349 48.51721,-15.32519 0.67346,-0.1662 1.17062,1.48248 1.85626,1.29862 z"
             id="path3878"
             inkscape:connector-curvature="0"
             sodipodi:nodetypes="ccssc" />
          <g
             transform="translate(1.7574768,-1.9332245)"
             id="g4109">
            <path
               sodipodi:type="arc"
               style="color:#000000;fill:#579c25;fill-opacity:1;fill-rule:nonzero;stroke:#325819;stroke-width:1.5;stroke-opacity:1;marker:none;visibility:visible;display:inline;overflow:visible;enable-background:accumulate"
               id="path4081"
               sodipodi:cx="60.041409"
               sodipodi:cy="170.28986"
               sodipodi:rx="6.7287784"
               sodipodi:ry="6.7287784"
               d="m 66.770187,170.28986 c 0,3.7162 -3.012577,6.72877 -6.728778,6.72877 -3.716202,0 -6.728779,-3.01257 -6.728779,-6.72877 0,-3.71621 3.012577,-6.72878 6.728779,-6.72878 3.716201,0 6.728778,3.01257 6.728778,6.72878 z"
               transform="translate(555.5226,344.52332)" />
            <path
               inkscape:connector-curvature="0"
               style="color:#000000;fill:#00cc00;fill-opacity:1;fill-rule:nonzero;stroke:none;stroke-width:1.5;marker:none;visibility:visible;display:inline;overflow:visible;enable-background:accumulate"
               d="m 60.03125,166.6875 c -2.032514,0 -3.59375,1.56124 -3.59375,3.59375 0,2.03251 1.57876,3.625 3.59375,3.625 2.01499,0 3.625,-1.61001 3.625,-3.625 0,-2.01499 -1.592486,-3.59375 -3.625,-3.59375 z"
               id="path4085"
               transform="translate(555.5226,344.52332)" />
          </g>
          <g
             transform="translate(-12.478085,4.3936919)"
             id="g4117">
            <path
               transform="translate(555.5226,344.52332)"
               d="m 66.770187,170.28986 c 0,3.7162 -3.012577,6.72877 -6.728778,6.72877 -3.716202,0 -6.728779,-3.01257 -6.728779,-6.72877 0,-3.71621 3.012577,-6.72878 6.728779,-6.72878 3.716201,0 6.728778,3.01257 6.728778,6.72878 z"
               sodipodi:ry="6.7287784"
               sodipodi:rx="6.7287784"
               sodipodi:cy="170.28986"
               sodipodi:cx="60.041409"
               id="path4119"
               style="color:#000000;fill:#579c25;fill-opacity:1;fill-rule:nonzero;stroke:#325819;stroke-width:1.5;stroke-opacity:1;marker:none;visibility:visible;display:inline;overflow:visible;enable-background:accumulate"
               sodipodi:type="arc" />
            <path
               inkscape:connector-curvature="0"
               transform="translate(555.5226,344.52332)"
               id="path4121"
               d="m 60.03125,166.6875 c -2.032514,0 -3.59375,1.56124 -3.59375,3.59375 0,2.03251 1.57876,3.625 3.59375,3.625 2.01499,0 3.625,-1.61001 3.625,-3.625 0,-2.01499 -1.592486,-3.59375 -3.625,-3.59375 z"
               style="color:#000000;fill:#00cc00;fill-opacity:1;fill-rule:nonzero;stroke:none;stroke-width:1.5;marker:none;visibility:visible;display:inline;overflow:visible;enable-background:accumulate" />
          </g>
          <g
             id="g4123"
             transform="translate(-27.768133,7.9086455)">
            <path
               sodipodi:type="arc"
               style="color:#000000;fill:#579c25;fill-opacity:1;fill-rule:nonzero;stroke:#325819;stroke-width:1.5;stroke-opacity:1;marker:none;visibility:visible;display:inline;overflow:visible;enable-background:accumulate"
               id="path4125"
               sodipodi:cx="60.041409"
               sodipodi:cy="170.28986"
               sodipodi:rx="6.7287784"
               sodipodi:ry="6.7287784"
               d="m 66.770187,170.28986 c 0,3.7162 -3.012577,6.72877 -6.728778,6.72877 -3.716202,0 -6.728779,-3.01257 -6.728779,-6.72877 0,-3.71621 3.012577,-6.72878 6.728779,-6.72878 3.716201,0 6.728778,3.01257 6.728778,6.72878 z"
               transform="translate(555.5226,344.52332)" />
            <path
               style="color:#000000;fill:#00cc00;fill-opacity:1;fill-rule:nonzero;stroke:none;stroke-width:1.5;marker:none;visibility:visible;display:inline;overflow:visible;enable-background:accumulate"
               d="m 60.03125,166.6875 c -2.032514,0 -3.59375,1.56124 -3.59375,3.59375 0,2.03251 1.57876,3.625 3.59375,3.625 2.01499,0 3.625,-1.61001 3.625,-3.625 0,-2.01499 -1.592486,-3.59375 -3.625,-3.59375 z"
               id="path4127"
               transform="translate(555.5226,344.52332)"
               inkscape:connector-curvature="0" />
          </g>
          <g
             id="g4113">
            <path
               style="fill:#579c25;fill-opacity:1;stroke:#325819;stroke-width:1.5;stroke-linecap:butt;stroke-linejoin:miter;stroke-miterlimit:4;stroke-opacity:1;stroke-dasharray:none"
               d="m 631.90066,502.3132 c -28.454,-25.17498 -48.42957,11.93599 -68.45241,8.71798 0,0 4.13106,9.08322 23.309,9.98675 18.80539,0.88597 25.38557,-8.77093 45.14341,-18.70473 z"
               id="path3108"
               inkscape:connector-curvature="0"
               sodipodi:nodetypes="ccsc" />
            <path
               style="fill:#00cc00;fill-opacity:1;stroke:none"
               d="m 611.78336,495.0274 c -7.82984,-0.14093 -15.612,4.27416 -23.5625,9 -5.00689,2.97614 -10.16854,5.95197 -15.625,7.53125 3.00606,1.46208 7.47762,2.81035 14.15625,3.125 8.70926,0.41032 14.03914,-1.45665 20.15625,-4.8125 4.87088,-2.67217 10.6298,-6.47991 17.71875,-10.46875 -4.69025,-3.13474 -8.85347,-4.30318 -12.84375,-4.375 z"
               id="path4076"
               inkscape:connector-curvature="0" />
          </g>
        </g>
        <g
           id="g4144"
           transform="matrix(-0.8755808,-0.4830717,-0.4830717,0.8755808,1528.8229,397.61464)">
          <path
             sodipodi:nodetypes="ccssc"
             inkscape:connector-curvature="0"
             id="path4146"
             d="m 632.19189,503.29026 c -9.29852,40.43637 -52.38964,22.72585 -59.14001,36.98947 0,0 -2.95852,-12.60863 8.76654,-22.9629 13.65852,-12.06168 28.21038,-10.31349 48.51721,-15.32519 0.67346,-0.1662 1.17062,1.48248 1.85626,1.29862 z"
             style="fill:#008800;fill-opacity:1;stroke:#325819;stroke-width:1.5;stroke-linecap:butt;stroke-linejoin:miter;stroke-miterlimit:4;stroke-opacity:1;stroke-dasharray:none" />
          <g
             id="g4148"
             transform="translate(1.7574768,-1.9332245)">
            <path
               transform="translate(555.5226,344.52332)"
               d="m 66.770187,170.28986 c 0,3.7162 -3.012577,6.72877 -6.728778,6.72877 -3.716202,0 -6.728779,-3.01257 -6.728779,-6.72877 0,-3.71621 3.012577,-6.72878 6.728779,-6.72878 3.716201,0 6.728778,3.01257 6.728778,6.72878 z"
               sodipodi:ry="6.7287784"
               sodipodi:rx="6.7287784"
               sodipodi:cy="170.28986"
               sodipodi:cx="60.041409"
               id="path4150"
               style="color:#000000;fill:#579c25;fill-opacity:1;fill-rule:nonzero;stroke:#325819;stroke-width:1.5;stroke-opacity:1;marker:none;visibility:visible;display:inline;overflow:visible;enable-background:accumulate"
               sodipodi:type="arc" />
            <path
               transform="translate(555.5226,344.52332)"
               id="path4152"
               d="m 60.03125,166.6875 c -2.032514,0 -3.59375,1.56124 -3.59375,3.59375 0,2.03251 1.57876,3.625 3.59375,3.625 2.01499,0 3.625,-1.61001 3.625,-3.625 0,-2.01499 -1.592486,-3.59375 -3.625,-3.59375 z"
               style="color:#000000;fill:#00cc00;fill-opacity:1;fill-rule:nonzero;stroke:none;stroke-width:1.5;marker:none;visibility:visible;display:inline;overflow:visible;enable-background:accumulate"
               inkscape:connector-curvature="0" />
          </g>
          <g
             id="g4154"
             transform="translate(-12.478085,4.3936919)">
            <path
               sodipodi:type="arc"
               style="color:#000000;fill:#579c25;fill-opacity:1;fill-rule:nonzero;stroke:#325819;stroke-width:1.5;stroke-opacity:1;marker:none;visibility:visible;display:inline;overflow:visible;enable-background:accumulate"
               id="path4156"
               sodipodi:cx="60.041409"
               sodipodi:cy="170.28986"
               sodipodi:rx="6.7287784"
               sodipodi:ry="6.7287784"
               d="m 66.770187,170.28986 c 0,3.7162 -3.012577,6.72877 -6.728778,6.72877 -3.716202,0 -6.728779,-3.01257 -6.728779,-6.72877 0,-3.71621 3.012577,-6.72878 6.728779,-6.72878 3.716201,0 6.728778,3.01257 6.728778,6.72878 z"
               transform="translate(555.5226,344.52332)" />
            <path
               style="color:#000000;fill:#00cc00;fill-opacity:1;fill-rule:nonzero;stroke:none;stroke-width:1.5;marker:none;visibility:visible;display:inline;overflow:visible;enable-background:accumulate"
               d="m 60.03125,166.6875 c -2.032514,0 -3.59375,1.56124 -3.59375,3.59375 0,2.03251 1.57876,3.625 3.59375,3.625 2.01499,0 3.625,-1.61001 3.625,-3.625 0,-2.01499 -1.592486,-3.59375 -3.625,-3.59375 z"
               id="path4158"
               transform="translate(555.5226,344.52332)"
               inkscape:connector-curvature="0" />
          </g>
          <g
             transform="translate(-27.768133,7.9086455)"
             id="g4160">
            <path
               transform="translate(555.5226,344.52332)"
               d="m 66.770187,170.28986 c 0,3.7162 -3.012577,6.72877 -6.728778,6.72877 -3.716202,0 -6.728779,-3.01257 -6.728779,-6.72877 0,-3.71621 3.012577,-6.72878 6.728779,-6.72878 3.716201,0 6.728778,3.01257 6.728778,6.72878 z"
               sodipodi:ry="6.7287784"
               sodipodi:rx="6.7287784"
               sodipodi:cy="170.28986"
               sodipodi:cx="60.041409"
               id="path4162"
               style="color:#000000;fill:#579c25;fill-opacity:1;fill-rule:nonzero;stroke:#325819;stroke-width:1.5;stroke-opacity:1;marker:none;visibility:visible;display:inline;overflow:visible;enable-background:accumulate"
               sodipodi:type="arc" />
            <path
               inkscape:connector-curvature="0"
               transform="translate(555.5226,344.52332)"
               id="path4164"
               d="m 60.03125,166.6875 c -2.032514,0 -3.59375,1.56124 -3.59375,3.59375 0,2.03251 1.57876,3.625 3.59375,3.625 2.01499,0 3.625,-1.61001 3.625,-3.625 0,-2.01499 -1.592486,-3.59375 -3.625,-3.59375 z"
               style="color:#000000;fill:#00cc00;fill-opacity:1;fill-rule:nonzero;stroke:none;stroke-width:1.5;marker:none;visibility:visible;display:inline;overflow:visible;enable-background:accumulate" />
          </g>
          <g
             id="g4166">
            <path
               sodipodi:nodetypes="ccsc"
               inkscape:connector-curvature="0"
               id="path4168"
               d="m 631.90066,502.3132 c -28.454,-25.17498 -48.42957,11.93599 -68.45241,8.71798 0,0 4.13106,9.08322 23.309,9.98675 18.80539,0.88597 25.38557,-8.77093 45.14341,-18.70473 z"
               style="fill:#579c25;fill-opacity:1;stroke:#325819;stroke-width:1.5;stroke-linecap:butt;stroke-linejoin:miter;stroke-miterlimit:4;stroke-opacity:1;stroke-dasharray:none" />
            <path
               inkscape:connector-curvature="0"
               id="path4170"
               d="m 611.78336,495.0274 c -7.82984,-0.14093 -15.612,4.27416 -23.5625,9 -5.00689,2.97614 -10.16854,5.95197 -15.625,7.53125 3.00606,1.46208 7.47762,2.81035 14.15625,3.125 8.70926,0.41032 14.03914,-1.45665 20.15625,-4.8125 4.87088,-2.67217 10.6298,-6.47991 17.71875,-10.46875 -4.69025,-3.13474 -8.85347,-4.30318 -12.84375,-4.375 z"
               style="fill:#00cc00;fill-opacity:1;stroke:none" />
          </g>
        </g>
        <g
           transform="matrix(-0.99726921,0.07385205,0.07385205,0.99726921,1335.6022,-60.158482)"
           id="g4172">
          <path
             style="fill:#008800;fill-opacity:1;stroke:#325819;stroke-width:1.5;stroke-linecap:butt;stroke-linejoin:miter;stroke-miterlimit:4;stroke-opacity:1;stroke-dasharray:none"
             d="m 632.19189,503.29026 c -9.29852,40.43637 -52.38964,22.72585 -59.14001,36.98947 0,0 -2.95852,-12.60863 8.76654,-22.9629 13.65852,-12.06168 28.21038,-10.31349 48.51721,-15.32519 0.67346,-0.1662 1.17062,1.48248 1.85626,1.29862 z"
             id="path4174"
             inkscape:connector-curvature="0"
             sodipodi:nodetypes="ccssc" />
          <g
             transform="translate(1.7574768,-1.9332245)"
             id="g4176">
            <path
               sodipodi:type="arc"
               style="color:#000000;fill:#579c25;fill-opacity:1;fill-rule:nonzero;stroke:#325819;stroke-width:1.5;stroke-opacity:1;marker:none;visibility:visible;display:inline;overflow:visible;enable-background:accumulate"
               id="path4178"
               sodipodi:cx="60.041409"
               sodipodi:cy="170.28986"
               sodipodi:rx="6.7287784"
               sodipodi:ry="6.7287784"
               d="m 66.770187,170.28986 c 0,3.7162 -3.012577,6.72877 -6.728778,6.72877 -3.716202,0 -6.728779,-3.01257 -6.728779,-6.72877 0,-3.71621 3.012577,-6.72878 6.728779,-6.72878 3.716201,0 6.728778,3.01257 6.728778,6.72878 z"
               transform="translate(555.5226,344.52332)" />
            <path
               inkscape:connector-curvature="0"
               style="color:#000000;fill:#00cc00;fill-opacity:1;fill-rule:nonzero;stroke:none;stroke-width:1.5;marker:none;visibility:visible;display:inline;overflow:visible;enable-background:accumulate"
               d="m 60.03125,166.6875 c -2.032514,0 -3.59375,1.56124 -3.59375,3.59375 0,2.03251 1.57876,3.625 3.59375,3.625 2.01499,0 3.625,-1.61001 3.625,-3.625 0,-2.01499 -1.592486,-3.59375 -3.625,-3.59375 z"
               id="path4180"
               transform="translate(555.5226,344.52332)" />
          </g>
          <g
             transform="translate(-12.478085,4.3936919)"
             id="g4182">
            <path
               transform="translate(555.5226,344.52332)"
               d="m 66.770187,170.28986 c 0,3.7162 -3.012577,6.72877 -6.728778,6.72877 -3.716202,0 -6.728779,-3.01257 -6.728779,-6.72877 0,-3.71621 3.012577,-6.72878 6.728779,-6.72878 3.716201,0 6.728778,3.01257 6.728778,6.72878 z"
               sodipodi:ry="6.7287784"
               sodipodi:rx="6.7287784"
               sodipodi:cy="170.28986"
               sodipodi:cx="60.041409"
               id="path4184"
               style="color:#000000;fill:#579c25;fill-opacity:1;fill-rule:nonzero;stroke:#325819;stroke-width:1.5;stroke-opacity:1;marker:none;visibility:visible;display:inline;overflow:visible;enable-background:accumulate"
               sodipodi:type="arc" />
            <path
               inkscape:connector-curvature="0"
               transform="translate(555.5226,344.52332)"
               id="path4186"
               d="m 60.03125,166.6875 c -2.032514,0 -3.59375,1.56124 -3.59375,3.59375 0,2.03251 1.57876,3.625 3.59375,3.625 2.01499,0 3.625,-1.61001 3.625,-3.625 0,-2.01499 -1.592486,-3.59375 -3.625,-3.59375 z"
               style="color:#000000;fill:#00cc00;fill-opacity:1;fill-rule:nonzero;stroke:none;stroke-width:1.5;marker:none;visibility:visible;display:inline;overflow:visible;enable-background:accumulate" />
          </g>
          <g
             id="g4188"
             transform="translate(-27.768133,7.9086455)">
            <path
               sodipodi:type="arc"
               style="color:#000000;fill:#579c25;fill-opacity:1;fill-rule:nonzero;stroke:#325819;stroke-width:1.5;stroke-opacity:1;marker:none;visibility:visible;display:inline;overflow:visible;enable-background:accumulate"
               id="path4190"
               sodipodi:cx="60.041409"
               sodipodi:cy="170.28986"
               sodipodi:rx="6.7287784"
               sodipodi:ry="6.7287784"
               d="m 66.770187,170.28986 c 0,3.7162 -3.012577,6.72877 -6.728778,6.72877 -3.716202,0 -6.728779,-3.01257 -6.728779,-6.72877 0,-3.71621 3.012577,-6.72878 6.728779,-6.72878 3.716201,0 6.728778,3.01257 6.728778,6.72878 z"
               transform="translate(555.5226,344.52332)" />
            <path
               style="color:#000000;fill:#00cc00;fill-opacity:1;fill-rule:nonzero;stroke:none;stroke-width:1.5;marker:none;visibility:visible;display:inline;overflow:visible;enable-background:accumulate"
               d="m 60.03125,166.6875 c -2.032514,0 -3.59375,1.56124 -3.59375,3.59375 0,2.03251 1.57876,3.625 3.59375,3.625 2.01499,0 3.625,-1.61001 3.625,-3.625 0,-2.01499 -1.592486,-3.59375 -3.625,-3.59375 z"
               id="path4192"
               transform="translate(555.5226,344.52332)"
               inkscape:connector-curvature="0" />
          </g>
          <g
             id="g4194">
            <path
               style="fill:#579c25;fill-opacity:1;stroke:#325819;stroke-width:1.5;stroke-linecap:butt;stroke-linejoin:miter;stroke-miterlimit:4;stroke-opacity:1;stroke-dasharray:none"
               d="m 631.90066,502.3132 c -28.454,-25.17498 -48.42957,11.93599 -68.45241,8.71798 0,0 4.13106,9.08322 23.309,9.98675 18.80539,0.88597 25.38557,-8.77093 45.14341,-18.70473 z"
               id="path4196"
               inkscape:connector-curvature="0"
               sodipodi:nodetypes="ccsc" />
            <path
               style="fill:#00cc00;fill-opacity:1;stroke:none"
               d="m 611.78336,495.0274 c -7.82984,-0.14093 -15.612,4.27416 -23.5625,9 -5.00689,2.97614 -10.16854,5.95197 -15.625,7.53125 3.00606,1.46208 7.47762,2.81035 14.15625,3.125 8.70926,0.41032 14.03914,-1.45665 20.15625,-4.8125 4.87088,-2.67217 10.6298,-6.47991 17.71875,-10.46875 -4.69025,-3.13474 -8.85347,-4.30318 -12.84375,-4.375 z"
               id="path4198"
               inkscape:connector-curvature="0" />
          </g>
        </g>
        <g
           id="g4241">
          <path
             sodipodi:nodetypes="ccssc"
             inkscape:connector-curvature="0"
             id="path4202"
             d="m 660.46261,498.31814 c 5.42467,-34.60345 -31.89642,-55.85567 -27.04679,-70.64686 0,0 -15.44422,4.78832 -14.51182,20.40301 1.08615,18.18954 28.55577,31.91585 39.32872,49.84426 0.35728,0.59458 1.87654,-0.21608 2.22989,0.39959 z"
             style="fill:#008800;fill-opacity:1;stroke:#325819;stroke-width:1.5;stroke-linecap:butt;stroke-linejoin:miter;stroke-miterlimit:4;stroke-opacity:1;stroke-dasharray:none" />
          <g
             id="g4204"
             transform="matrix(0.70543369,0.70877594,0.70877594,-0.70543369,-153.13988,399.72144)">
            <path
               transform="translate(555.5226,344.52332)"
               d="m 66.770187,170.28986 c 0,3.7162 -3.012577,6.72877 -6.728778,6.72877 -3.716202,0 -6.728779,-3.01257 -6.728779,-6.72877 0,-3.71621 3.012577,-6.72878 6.728779,-6.72878 3.716201,0 6.728778,3.01257 6.728778,6.72878 z"
               sodipodi:ry="6.7287784"
               sodipodi:rx="6.7287784"
               sodipodi:cy="170.28986"
               sodipodi:cx="60.041409"
               id="path4206"
               style="color:#000000;fill:#579c25;fill-opacity:1;fill-rule:nonzero;stroke:#325819;stroke-width:1.5;stroke-opacity:1;marker:none;visibility:visible;display:inline;overflow:visible;enable-background:accumulate"
               sodipodi:type="arc" />
            <path
               transform="translate(555.5226,344.52332)"
               id="path4208"
               d="m 60.03125,166.6875 c -2.032514,0 -3.59375,1.56124 -3.59375,3.59375 0,2.03251 1.57876,3.625 3.59375,3.625 2.01499,0 3.625,-1.61001 3.625,-3.625 0,-2.01499 -1.592486,-3.59375 -3.625,-3.59375 z"
               style="color:#000000;fill:#00cc00;fill-opacity:1;fill-rule:nonzero;stroke:none;stroke-width:1.5;marker:none;visibility:visible;display:inline;overflow:visible;enable-background:accumulate"
               inkscape:connector-curvature="0" />
          </g>
          <g
             id="g4210"
             transform="matrix(0.70543369,0.70877594,0.70877594,-0.70543369,-161.93678,385.74)">
            <path
               sodipodi:type="arc"
               style="color:#000000;fill:#579c25;fill-opacity:1;fill-rule:nonzero;stroke:#325819;stroke-width:1.5;stroke-opacity:1;marker:none;visibility:visible;display:inline;overflow:visible;enable-background:accumulate"
               id="path4212"
               sodipodi:cx="60.041409"
               sodipodi:cy="170.28986"
               sodipodi:rx="6.7287784"
               sodipodi:ry="6.7287784"
               d="m 66.770187,170.28986 c 0,3.7162 -3.012577,6.72877 -6.728778,6.72877 -3.716202,0 -6.728779,-3.01257 -6.728779,-6.72877 0,-3.71621 3.012577,-6.72878 6.728779,-6.72878 3.716201,0 6.728778,3.01257 6.728778,6.72878 z"
               transform="translate(555.5226,344.52332)" />
            <path
               style="color:#000000;fill:#00cc00;fill-opacity:1;fill-rule:nonzero;stroke:none;stroke-width:1.5;marker:none;visibility:visible;display:inline;overflow:visible;enable-background:accumulate"
               d="m 60.03125,166.6875 c -2.032514,0 -3.59375,1.56124 -3.59375,3.59375 0,2.03251 1.57876,3.625 3.59375,3.625 2.01499,0 3.625,-1.61001 3.625,-3.625 0,-2.01499 -1.592486,-3.59375 -3.625,-3.59375 z"
               id="path4214"
               transform="translate(555.5226,344.52332)"
               inkscape:connector-curvature="0" />
          </g>
          <g
             transform="matrix(0.70543369,0.70877594,0.70877594,-0.70543369,-170.80317,372.80427)"
             id="g4216">
            <path
               transform="translate(555.5226,344.52332)"
               d="m 66.770187,170.28986 c 0,3.7162 -3.012577,6.72877 -6.728778,6.72877 -3.716202,0 -6.728779,-3.01257 -6.728779,-6.72877 0,-3.71621 3.012577,-6.72878 6.728779,-6.72878 3.716201,0 6.728778,3.01257 6.728778,6.72878 z"
               sodipodi:ry="6.7287784"
               sodipodi:rx="6.7287784"
               sodipodi:cy="170.28986"
               sodipodi:cx="60.041409"
               id="path4218"
               style="color:#000000;fill:#579c25;fill-opacity:1;fill-rule:nonzero;stroke:#325819;stroke-width:1.5;stroke-opacity:1;marker:none;visibility:visible;display:inline;overflow:visible;enable-background:accumulate"
               sodipodi:type="arc" />
            <path
               inkscape:connector-curvature="0"
               transform="translate(555.5226,344.52332)"
               id="path4220"
               d="m 60.03125,166.6875 c -2.032514,0 -3.59375,1.56124 -3.59375,3.59375 0,2.03251 1.57876,3.625 3.59375,3.625 2.01499,0 3.625,-1.61001 3.625,-3.625 0,-2.01499 -1.592486,-3.59375 -3.625,-3.59375 z"
               style="color:#000000;fill:#00cc00;fill-opacity:1;fill-rule:nonzero;stroke:none;stroke-width:1.5;marker:none;visibility:visible;display:inline;overflow:visible;enable-background:accumulate" />
          </g>
          <g
             transform="matrix(0.56872771,0.82252588,0.82252588,-0.56872771,-139.38214,256.54254)"
             id="g4222">
            <path
               sodipodi:nodetypes="cscsc"
               inkscape:connector-curvature="0"
               id="path4224"
               d="m 661.80649,517.30076 c -14.39741,0.51288 -35.79609,-26.74695 -58.34425,-23.82678 -18.81358,2.43651 -26.45647,19.25301 -40.01399,17.5572 0,0 6.42262,10.91298 25.5208,8.94599 51.43618,-5.2976 47.31717,13.29293 72.83744,-2.67641 z"
               style="fill:#579c25;fill-opacity:1;stroke:#325819;stroke-width:1.5;stroke-linecap:butt;stroke-linejoin:miter;stroke-miterlimit:4;stroke-opacity:1;stroke-dasharray:none" />
            <path
               sodipodi:nodetypes="scsscss"
               inkscape:connector-curvature="0"
               id="path4226"
               d="m 585.46253,507.23226 c -5.13008,2.75838 -10.16854,5.95197 -15.625,7.53125 3.00606,1.46208 7.47752,3.43747 14.15625,3.125 9.4868,-0.44385 20.91652,-1.98244 30.79602,-1.68817 11.18688,0.3332 21.11116,6.4466 33.58659,4.41252 -17.56822,-13.89262 -29.66874,-19.05761 -39.06084,-19.90471 -9.87645,-0.89078 -16.87292,2.771 -23.85302,6.52411 z"
               style="fill:#00cc00;fill-opacity:1;stroke:none" />
          </g>
        </g>
        <g
           id="g4256"
           transform="matrix(-1,0,0,1,1382.9493,-80.487827)">
          <path
             style="fill:#008800;fill-opacity:1;stroke:#325819;stroke-width:1.5;stroke-linecap:butt;stroke-linejoin:miter;stroke-miterlimit:4;stroke-opacity:1;stroke-dasharray:none"
             d="m 660.46261,498.31814 c 5.42467,-34.60345 -31.89642,-55.85567 -27.04679,-70.64686 0,0 -15.44422,4.78832 -14.51182,20.40301 1.08615,18.18954 28.55577,31.91585 39.32872,49.84426 0.35728,0.59458 1.87654,-0.21608 2.22989,0.39959 z"
             id="path4258"
             inkscape:connector-curvature="0"
             sodipodi:nodetypes="ccssc" />
          <g
             transform="matrix(0.70543369,0.70877594,0.70877594,-0.70543369,-153.13988,399.72144)"
             id="g4260">
            <path
               sodipodi:type="arc"
               style="color:#000000;fill:#579c25;fill-opacity:1;fill-rule:nonzero;stroke:#325819;stroke-width:1.5;stroke-opacity:1;marker:none;visibility:visible;display:inline;overflow:visible;enable-background:accumulate"
               id="path4262"
               sodipodi:cx="60.041409"
               sodipodi:cy="170.28986"
               sodipodi:rx="6.7287784"
               sodipodi:ry="6.7287784"
               d="m 66.770187,170.28986 c 0,3.7162 -3.012577,6.72877 -6.728778,6.72877 -3.716202,0 -6.728779,-3.01257 -6.728779,-6.72877 0,-3.71621 3.012577,-6.72878 6.728779,-6.72878 3.716201,0 6.728778,3.01257 6.728778,6.72878 z"
               transform="translate(555.5226,344.52332)" />
            <path
               inkscape:connector-curvature="0"
               style="color:#000000;fill:#00cc00;fill-opacity:1;fill-rule:nonzero;stroke:none;stroke-width:1.5;marker:none;visibility:visible;display:inline;overflow:visible;enable-background:accumulate"
               d="m 60.03125,166.6875 c -2.032514,0 -3.59375,1.56124 -3.59375,3.59375 0,2.03251 1.57876,3.625 3.59375,3.625 2.01499,0 3.625,-1.61001 3.625,-3.625 0,-2.01499 -1.592486,-3.59375 -3.625,-3.59375 z"
               id="path4264"
               transform="translate(555.5226,344.52332)" />
          </g>
          <g
             transform="matrix(0.70543369,0.70877594,0.70877594,-0.70543369,-161.93678,385.74)"
             id="g4266">
            <path
               transform="translate(555.5226,344.52332)"
               d="m 66.770187,170.28986 c 0,3.7162 -3.012577,6.72877 -6.728778,6.72877 -3.716202,0 -6.728779,-3.01257 -6.728779,-6.72877 0,-3.71621 3.012577,-6.72878 6.728779,-6.72878 3.716201,0 6.728778,3.01257 6.728778,6.72878 z"
               sodipodi:ry="6.7287784"
               sodipodi:rx="6.7287784"
               sodipodi:cy="170.28986"
               sodipodi:cx="60.041409"
               id="path4268"
               style="color:#000000;fill:#579c25;fill-opacity:1;fill-rule:nonzero;stroke:#325819;stroke-width:1.5;stroke-opacity:1;marker:none;visibility:visible;display:inline;overflow:visible;enable-background:accumulate"
               sodipodi:type="arc" />
            <path
               inkscape:connector-curvature="0"
               transform="translate(555.5226,344.52332)"
               id="path4270"
               d="m 60.03125,166.6875 c -2.032514,0 -3.59375,1.56124 -3.59375,3.59375 0,2.03251 1.57876,3.625 3.59375,3.625 2.01499,0 3.625,-1.61001 3.625,-3.625 0,-2.01499 -1.592486,-3.59375 -3.625,-3.59375 z"
               style="color:#000000;fill:#00cc00;fill-opacity:1;fill-rule:nonzero;stroke:none;stroke-width:1.5;marker:none;visibility:visible;display:inline;overflow:visible;enable-background:accumulate" />
          </g>
          <g
             id="g4272"
             transform="matrix(0.70543369,0.70877594,0.70877594,-0.70543369,-170.80317,372.80427)">
            <path
               sodipodi:type="arc"
               style="color:#000000;fill:#579c25;fill-opacity:1;fill-rule:nonzero;stroke:#325819;stroke-width:1.5;stroke-opacity:1;marker:none;visibility:visible;display:inline;overflow:visible;enable-background:accumulate"
               id="path4274"
               sodipodi:cx="60.041409"
               sodipodi:cy="170.28986"
               sodipodi:rx="6.7287784"
               sodipodi:ry="6.7287784"
               d="m 66.770187,170.28986 c 0,3.7162 -3.012577,6.72877 -6.728778,6.72877 -3.716202,0 -6.728779,-3.01257 -6.728779,-6.72877 0,-3.71621 3.012577,-6.72878 6.728779,-6.72878 3.716201,0 6.728778,3.01257 6.728778,6.72878 z"
               transform="translate(555.5226,344.52332)" />
            <path
               style="color:#000000;fill:#00cc00;fill-opacity:1;fill-rule:nonzero;stroke:none;stroke-width:1.5;marker:none;visibility:visible;display:inline;overflow:visible;enable-background:accumulate"
               d="m 60.03125,166.6875 c -2.032514,0 -3.59375,1.56124 -3.59375,3.59375 0,2.03251 1.57876,3.625 3.59375,3.625 2.01499,0 3.625,-1.61001 3.625,-3.625 0,-2.01499 -1.592486,-3.59375 -3.625,-3.59375 z"
               id="path4276"
               transform="translate(555.5226,344.52332)"
               inkscape:connector-curvature="0" />
          </g>
          <g
             id="g4278"
             transform="matrix(0.56872771,0.82252588,0.82252588,-0.56872771,-139.38214,256.54254)">
            <path
               style="fill:#579c25;fill-opacity:1;stroke:#325819;stroke-width:1.5;stroke-linecap:butt;stroke-linejoin:miter;stroke-miterlimit:4;stroke-opacity:1;stroke-dasharray:none"
               d="m 661.80649,517.30076 c -14.39741,0.51288 -35.79609,-26.74695 -58.34425,-23.82678 -18.81358,2.43651 -26.45647,19.25301 -40.01399,17.5572 0,0 6.42262,10.91298 25.5208,8.94599 51.43618,-5.2976 47.31717,13.29293 72.83744,-2.67641 z"
               id="path4280"
               inkscape:connector-curvature="0"
               sodipodi:nodetypes="cscsc" />
            <path
               style="fill:#00cc00;fill-opacity:1;stroke:none"
               d="m 585.46253,507.23226 c -5.13008,2.75838 -10.16854,5.95197 -15.625,7.53125 3.00606,1.46208 7.47752,3.43747 14.15625,3.125 9.4868,-0.44385 20.91652,-1.98244 30.79602,-1.68817 11.18688,0.3332 21.11116,6.4466 33.58659,4.41252 -17.56822,-13.89262 -29.66874,-19.05761 -39.06084,-19.90471 -9.87645,-0.89078 -16.87292,2.771 -23.85302,6.52411 z"
               id="path4282"
               inkscape:connector-curvature="0"
               sodipodi:nodetypes="scsscss" />
          </g>
        </g>
        <g
           id="g4294">
          <path
             sodipodi:nodetypes="csscccccssscc"
             transform="translate(562.69825,345.91859)"
             inkscape:connector-curvature="0"
             id="path4284"
             d="m 128.37725,81.225433 c 0,0 -8.97007,-9.058089 -14.68994,-11.49647 -3.46207,-1.475883 -7.5563,-2.623317 -11.17712,-1.596732 -8.750487,2.480963 -11.205034,7.995467 -18.202743,6.546601 -0.237785,5.218409 2.206587,7.100634 5.588562,11.01745 -3.437071,2.523519 -6.324667,5.05969 -7.823987,8.622353 3.507745,4.554396 7.743145,5.347781 13.412549,5.588562 -6.570335,5.236363 -4.775142,12.587943 -0.159674,16.446343 0,0 1.720149,-3.57443 3.353138,-4.47085 3.649985,-2.00364 8.551095,0.49122 12.454505,-0.95804 5.38903,-2.00085 10.10997,-5.88959 13.89157,-10.21909 2.19358,-2.511396 4.7902,-8.782023 4.7902,-8.782023 -5.06462,-4.262101 -2.59093,-7.549331 -1.43706,-10.698104 z"
             style="fill:#f3c702;fill-opacity:1;stroke:#aa8800;stroke-width:1.5;stroke-linecap:butt;stroke-linejoin:miter;stroke-miterlimit:4;stroke-opacity:1;stroke-dasharray:none" />
          <path
             sodipodi:nodetypes="cccsssc"
             inkscape:connector-curvature="0"
             id="path4286"
             d="m 648.78997,422.3624 c 6.09054,11.59522 27.18504,9.17281 37.45675,8.82489 l 2.1572,-4.31439 c 0,0 -8.08151,-7.92699 -13.13928,-10.19765 -2.60833,-1.171 -5.60696,-2.00463 -8.43268,-1.56887 -4.3932,0.67748 -8.72717,5.25896 -12.94317,6.66769 -2.00807,0.67098 -5.09882,0.58833 -5.09882,0.58833 z"
             style="fill:#ffdd00;fill-opacity:1;stroke:none" />
          <path
             style="fill:#ffdd00;fill-opacity:1;stroke:none"
             d="m 657.13015,458.89234 c -8.31345,-10.75279 19.10616,-22.70101 30.84552,-22.70319 l 2.21353,2.24529 c -4.79467,5.95831 -9.9767,14.25431 -17.53539,15.5101 -7.28648,1.21056 -12.34166,-2.2759 -15.52366,4.9478 z"
             id="path4288"
             inkscape:connector-curvature="0"
             sodipodi:nodetypes="cccsc" />
          <path
             sodipodi:nodetypes="cccccc"
             transform="translate(562.69825,345.91859)"
             inkscape:connector-curvature="0"
             id="path4290"
             d="m 84.718954,93.505266 c 1.953638,-2.322482 4.58919,-4.474485 8.628782,-6.275478 9.872404,1.123208 19.711644,0.703085 29.612414,0 l 0,1.176652 c -9.17679,2.002303 -17.79805,4.164732 -26.082457,8.628782 -3.678132,0.02615 -10.298436,0.935611 -12.158739,-3.529956 z"
             style="fill:#ffdd00;fill-opacity:1;stroke:none" />
          <path
             sodipodi:nodetypes="csssscsssc"
             transform="translate(562.69825,345.91859)"
             inkscape:connector-curvature="0"
             id="path4292"
             d="m 124.07357,80.917874 c 0,0 -5.95511,-4.886342 -9.30176,-6.751282 -2.87987,-1.604826 -5.86217,-3.531955 -9.15174,-3.750713 -2.16646,-0.144071 -4.36832,0.661232 -6.301199,1.650314 -2.308573,1.181332 -3.576062,4.032219 -6.001141,4.95094 -1.357021,0.514096 -4.350826,0.150029 -4.350826,0.150029 0,0 2.641722,1.958228 4.200798,2.100399 3.940411,0.359324 7.478808,-2.787625 11.402168,-3.300627 2.28156,-0.298327 4.64299,-0.290987 6.90131,0.150028 4.41195,0.861586 12.60239,4.800912 12.60239,4.800912 z"
             style="fill:#ffff00;fill-opacity:1;stroke:none" />
        </g>
        <g
           id="g4307"
           transform="translate(1.5445929,-2.0594573)">
          <path
             sodipodi:nodetypes="ccssscscscsssc"
             transform="translate(562.69825,345.91859)"
             inkscape:connector-curvature="0"
             id="path4301"
             d="m 146.90791,184.36467 c 2.09069,1.53012 1.37467,4.74426 8.43589,3.29206 0,0 0.0293,3.5201 0.61726,5.14383 1.02986,2.844 3.15169,4.63893 3.70356,7.61288 0.66509,3.58412 -1.93091,7.16725 -1.02876,10.69917 0.31297,1.2253 2.46904,2.88055 2.46904,2.88055 0,0 -3.75833,2.8631 -5.96685,2.88055 -3.09913,0.0245 -8.43589,-3.90932 -8.43589,-3.90932 0,0 -1.8875,3.61222 -3.49781,4.73233 -2.63724,1.83444 -9.2589,2.67479 -9.2589,2.67479 0,0 -5.55534,-6.1726 -5.55534,-13.99123 0,-1.23452 1.30923,-7.50224 3.90931,-10.69917 2.75364,-3.38574 7.93827,-4.84995 11.31644,-7.61288 1.27856,-1.04571 3.29205,-3.70356 3.29205,-3.70356 z"
             style="fill:#f3c702;fill-opacity:1;stroke:#aa8800;stroke-width:1.5;stroke-linecap:butt;stroke-linejoin:miter;stroke-miterlimit:4;stroke-opacity:1;stroke-dasharray:none" />
          <path
             sodipodi:nodetypes="csscsssscc"
             transform="translate(562.69825,345.91859)"
             inkscape:connector-curvature="0"
             id="path4303"
             d="m 149.66522,189.82892 c 0,0 -1.54989,10.09277 -3.06594,15.37685 -0.73172,2.55034 -1.9696,5.2763 -3.76679,7.22816 -2.06645,2.2443 -7.32996,4.17401 -7.32996,4.17401 0,0 -3.46532,-5.02485 -3.9704,-7.94079 -0.57758,-3.3345 -0.089,-6.95864 1.22166,-10.0787 0.58907,-1.40233 1.68765,-2.58277 2.85055,-3.56318 2.25288,-1.89934 5.36779,-2.52398 7.73718,-4.27581 1.13855,-0.8418 3.05415,-2.95235 3.05415,-2.95235 0.90291,1.98586 2.14982,1.56373 3.26955,2.03181 z"
             style="fill:#ffdd00;fill-opacity:1;stroke:none" />
          <path
             sodipodi:nodetypes="cssscssscc"
             transform="translate(562.69825,345.91859)"
             inkscape:connector-curvature="0"
             id="path4305"
             d="m 150.95868,189.95859 c 0,0 -0.43195,5.2981 -1.14031,10.52385 -0.38224,2.81992 -1.80204,5.55496 -1.11012,7.56959 0.4273,1.24414 1.68859,2.07206 2.79053,2.79053 1.8064,1.17779 6.03115,2.34044 6.03115,2.34044 0,0 -1.61723,-2.01854 -1.80034,-3.24061 -0.42731,-2.85184 2.07973,-5.5915 1.80034,-8.46161 -0.32562,-3.34496 -3.13843,-6.01314 -3.96075,-9.27176 -0.16219,-0.6427 -0.18004,-1.98038 -0.18004,-1.98038 z"
             style="fill:#ffdd00;fill-opacity:1;stroke:none" />
        </g>
        <g
           id="g4312"
           transform="matrix(0.59794872,0.80153436,-0.80153436,0.59794872,635.91787,-407.99123)">
          <path
             style="fill:#f3c702;fill-opacity:1;stroke:#aa8800;stroke-width:1.5;stroke-linecap:butt;stroke-linejoin:miter;stroke-miterlimit:4;stroke-opacity:1;stroke-dasharray:none"
             d="m 128.37725,81.225433 c 0,0 -8.97007,-9.058089 -14.68994,-11.49647 -3.46207,-1.475883 -7.5563,-2.623317 -11.17712,-1.596732 -8.750487,2.480963 -11.205034,7.995467 -18.202743,6.546601 -0.237785,5.218409 2.206587,7.100634 5.588562,11.01745 -3.437071,2.523519 -6.324667,5.05969 -7.823987,8.622353 3.507745,4.554396 7.743145,5.347781 13.412549,5.588562 -6.570335,5.236363 -4.775142,12.587943 -0.159674,16.446343 0,0 1.720149,-3.57443 3.353138,-4.47085 3.649985,-2.00364 8.551095,0.49122 12.454505,-0.95804 5.38903,-2.00085 10.10997,-5.88959 13.89157,-10.21909 2.19358,-2.511396 4.7902,-8.782023 4.7902,-8.782023 -5.06462,-4.262101 -2.59093,-7.549331 -1.43706,-10.698104 z"
             id="path4314"
             inkscape:connector-curvature="0"
             transform="translate(562.69825,345.91859)"
             sodipodi:nodetypes="csscccccssscc" />
          <path
             style="fill:#ffdd00;fill-opacity:1;stroke:none"
             d="m 648.78997,422.3624 c 6.09054,11.59522 27.18504,9.17281 37.45675,8.82489 l 2.1572,-4.31439 c 0,0 -8.08151,-7.92699 -13.13928,-10.19765 -2.60833,-1.171 -5.60696,-2.00463 -8.43268,-1.56887 -4.3932,0.67748 -8.72717,5.25896 -12.94317,6.66769 -2.00807,0.67098 -5.09882,0.58833 -5.09882,0.58833 z"
             id="path4316"
             inkscape:connector-curvature="0"
             sodipodi:nodetypes="cccsssc" />
          <path
             sodipodi:nodetypes="cccsc"
             inkscape:connector-curvature="0"
             id="path4318"
             d="m 657.13015,458.89234 c -8.31345,-10.75279 19.10616,-22.70101 30.84552,-22.70319 l 2.21353,2.24529 c -4.79467,5.95831 -9.9767,14.25431 -17.53539,15.5101 -7.28648,1.21056 -12.34166,-2.2759 -15.52366,4.9478 z"
             style="fill:#ffdd00;fill-opacity:1;stroke:none" />
          <path
             style="fill:#ffdd00;fill-opacity:1;stroke:none"
             d="m 84.718954,93.505266 c 1.953638,-2.322482 4.58919,-4.474485 8.628782,-6.275478 9.872404,1.123208 19.711644,0.703085 29.612414,0 l 0,1.176652 c -9.17679,2.002303 -17.79805,4.164732 -26.082457,8.628782 -3.678132,0.02615 -10.298436,0.935611 -12.158739,-3.529956 z"
             id="path4320"
             inkscape:connector-curvature="0"
             transform="translate(562.69825,345.91859)"
             sodipodi:nodetypes="cccccc" />
          <path
             style="fill:#ffff00;fill-opacity:1;stroke:none"
             d="m 124.07357,80.917874 c 0,0 -5.95511,-4.886342 -9.30176,-6.751282 -2.87987,-1.604826 -5.86217,-3.531955 -9.15174,-3.750713 -2.16646,-0.144071 -4.36832,0.661232 -6.301199,1.650314 -2.308573,1.181332 -3.576062,4.032219 -6.001141,4.95094 -1.357021,0.514096 -4.350826,0.150029 -4.350826,0.150029 0,0 2.641722,1.958228 4.200798,2.100399 3.940411,0.359324 7.478808,-2.787625 11.402168,-3.300627 2.28156,-0.298327 4.64299,-0.290987 6.90131,0.150028 4.41195,0.861586 12.60239,4.800912 12.60239,4.800912 z"
             id="path4322"
             inkscape:connector-curvature="0"
             transform="translate(562.69825,345.91859)"
             sodipodi:nodetypes="csssscsssc" />
        </g>
        <path
           style="fill:#3c6a1c;fill-opacity:1;stroke:none"
           d="m 620.65497,589.41363 c 0,0 4.75913,-2.91139 7.41799,-3.61748 1.60332,-0.42578 3.54617,-1.18316 4.96602,-0.3253 0.66861,0.40396 1.1917,1.3978 0.95216,2.14132 -0.5026,1.56007 -2.64792,2.11259 -4.24483,2.48176 -2.96084,0.68447 -9.09134,-0.6803 -9.09134,-0.6803 z"
           id="path4331"
           inkscape:connector-curvature="0"
           sodipodi:nodetypes="cssssc" />
      </g>
      <g
         id="layer1-1"
         transform="matrix(0.55119241,0,0,0.55119241,113.31053,66.478216)">
        <g
           id="layer1-8"
           transform="matrix(0.66643418,0,0,0.66643418,44.703292,268.78857)">
          <g
             style="display:inline"
             id="g6128"
             transform="matrix(3.897337,0,0,3.897337,-109.5481,94.16507)">
            <path
               inkscape:connector-curvature="0"
               style="fill:none;stroke:#000000;stroke-width:3;stroke-linecap:butt;stroke-linejoin:miter;stroke-opacity:1;display:inline"
               id="path5195"
               d="m 76.516063,109.51467 c 10.340008,2.068 18.612015,2.068 22.058685,2.068 3.446672,0 11.718672,-1.37866 17.922682,-3.44667 6.204,-2.068 13.78668,-1.37866 18.61201,-6.204 4.82534,-4.825339 11.71868,-8.961342 13.78668,-14.476014 2.068,-5.514671 2.75734,-6.204005 3.44667,-11.029342 0.68934,-4.825337 -0.68933,-19.301349 -2.068,-25.505354 -1.37867,-6.204005 -8.27201,-16.544014 -13.78668,-18.612016 -5.51467,-2.068001 -14.47601,-3.446669 -18.61201,-3.446669 -4.13601,0 -13.78668,3.446669 -19.301352,5.514671 -5.514672,2.068002 -8.272007,4.825337 -11.029343,6.204005 -2.757335,1.378668 -4.136003,2.757336 -7.582673,2.757336 -3.446669,0 -11.718676,0 -15.854679,-2.757336 -4.136004,-2.757335 -6.893339,-1.378668 -7.582673,-6.893339 -0.689334,-5.514671 -1.378668,-6.204005 0,-9.650674 1.378668,-3.44667 3.446669,-6.204005 5.514671,-8.961341" />
            <g
               style="stroke:#000000;stroke-width:1;stroke-opacity:1"
               id="g3826"
               transform="translate(28.26269,14.47601)">
              <path
                 inkscape:connector-curvature="0"
                 style="fill:#000000;fill-rule:evenodd;stroke:#000000;stroke-width:1;stroke-linecap:butt;stroke-linejoin:miter;stroke-opacity:1;display:inline"
                 id="path3142"
                 d="m 38.237445,8.183567 -15.11041,7.79892 -4.3869,8.28636 -2.43716,8.28636 0.48743,10.23608 9.26122,19.98475 10.23609,17.06014 20.47217,21.447043 65.315985,-5.361763 c 0,0 7.79892,-42.89408 7.31149,-46.30611 C 128.89993,46.203317 100.62883,0.38464699 100.62883,0.38464699 L 58.222185,7.208707 38.237445,8.183567 z" />
              <path
                 inkscape:connector-curvature="0"
                 style="fill:#dddddd;fill-opacity:1;fill-rule:evenodd;stroke:#000000;stroke-width:1;stroke-linecap:butt;stroke-linejoin:miter;stroke-opacity:1"
                 id="path3631"
                 d="m 48.440135,91.38495 c 0,0 16.15617,4.258513 26.27907,1.250561 11.50295,-3.418025 18.56802,-3.232754 26.306265,-7.311353 4.82534,-2.543295 14.25637,-9.75909 18.31939,-20.25194 2.65435,-6.854931 0.0969,-20.815898 0.0969,-20.815898 C 119.9414,43.52158 118.66808,30.172146 106.19185,22.846143 97.605185,17.804057 82.105781,15.398106 58.185331,28.48431 50.045735,30.787498 40.361174,34.44763 27.406474,28.320059 20.49286,20.284417 25.274679,16.629751 26.366059,10.049319 31.372389,0.47953589 38.120145,-3.746624 42.821325,-8.467438 c 6.92152,-6.950433 19.838315,-15.925051 37.82153,-18.236195 21.190905,-2.723385 45.257905,0 57.442715,12.24623 12.18482,12.24622 18.34072,21.7390187 19.14755,35.86394 1.32814,23.251241 -1.90525,23.806208 -6.0924,35.863933 -7.74517,16.936011 -27.643,46.99016 -10.44415,61.23112 6.96277,5.24838 19.63944,11.55088 27.47255,10.67615 -17.35177,8.19425 -41.34306,47.99021 -58.80492,67.17484 -10.717014,8.74464 -18.411076,8.4109 -30.462035,0.87473 -13.815818,14.18858 -27.920634,27.19309 -48.73926,24.49244 -16.64268,-5.54575 -19.141506,-20.87624 -19.14758,-35.86394 0,-5.24838 0.87034,-8.7473 0.87034,-8.7473 -9.496624,-0.42248 -11.225079,-9.1444 -9.5737699,-18.36933 3.5163496,-18.54306 14.8641149,-12.70574 23.4992799,-15.74515 6.79105,-12.09121 20.484328,-12.49388 22.62896,-16.61987 2.703153,-11.55825 0,-21.5281 0,-34.98921 z" />
              <path
                 inkscape:connector-curvature="0"
                 style="fill:#aeaeae;fill-rule:evenodd;stroke:#000000;stroke-width:1;stroke-linecap:butt;stroke-linejoin:miter;stroke-opacity:1"
                 id="path3633"
                 d="M 91.031935,16.715462 C 82.871338,33.466019 114.77017,76.991758 106.56298,85.428537 96.784255,78.818085 70.737807,30.383542 82.291635,17.736132 c 2.69394,-2.150672 6.78289,-3.437354 8.7403,-1.02067 z" />
              <path
                 inkscape:connector-curvature="0"
                 style="fill:#aeaeae;fill-rule:evenodd;stroke:#000000;stroke-width:1;stroke-linecap:butt;stroke-linejoin:miter;stroke-opacity:1"
                 id="path3635"
                 d="m 68.304945,22.699152 c -7.065192,33.0217 23.648127,58.927113 20.33535,69.622724 C 72.109055,81.82922 50.005264,48.218411 59.975655,26.751851 c 1.54554,-3.319934 6.28214,-5.583954 8.32929,-4.052699 z" />
              <path
                 inkscape:connector-curvature="0"
                 style="fill:#aeaeae;fill-rule:evenodd;stroke:#000000;stroke-width:1;stroke-linecap:butt;stroke-linejoin:miter;stroke-opacity:1"
                 id="path3637"
                 d="m 39.869915,27.928293 c 1.09206,-1.365249 7.70239,-0.666254 8.34902,1.189858 -9.679266,34.893733 25.96896,54.566905 20.77534,66.650395 C 49.497512,87.443494 26.348115,45.553623 39.869915,27.928293 z" />
              <path
                 inkscape:connector-curvature="0"
                 style="fill:#aeaeae;fill-rule:evenodd;stroke:#000000;stroke-width:1;stroke-linecap:butt;stroke-linejoin:miter;stroke-opacity:1"
                 id="path3639"
                 d="M 31.770245,2.536136 C 23.514915,0.81908699 19.113345,17.328689 17.294235,24.422488 20.913832,13.820547 29.023675,7.984187 31.770245,2.536136 z" />
              <path
                 inkscape:connector-curvature="0"
                 style="fill:#aeaeae;fill-rule:evenodd;stroke:#000000;stroke-width:1;stroke-linecap:butt;stroke-linejoin:miter;stroke-opacity:1"
                 id="path3641"
                 d="M 35.906255,-2.633868 C 28.943988,-2.004394 26.59835,0.6405596 23.325905,7.18914 26.260187,2.1385998 33.662824,1.7906813 35.906255,-2.633868 z" />
              <path
                 inkscape:connector-curvature="0"
                 style="fill:#aeaeae;fill-rule:evenodd;stroke:#000000;stroke-width:1;stroke-linecap:butt;stroke-linejoin:miter;stroke-opacity:1;display:inline"
                 id="path3647"
                 d="M 27.978905,11.165635 C -1.4056627,32.788946 26.798432,78.978376 44.739175,90.588396 41.912131,67.415697 11.594038,51.258449 24.568404,18.274894 c 1.85004,-1.861857 4.688841,-7.720471 3.410501,-7.109259 z" />
              <path
                 inkscape:connector-curvature="0"
                 style="fill:#aeaeae;fill-rule:evenodd;stroke:#000000;stroke-width:1;stroke-linecap:butt;stroke-linejoin:miter;stroke-opacity:1;display:inline"
                 id="path3649"
                 d="m 25.797713,23.350259 c 0.981254,-1.11157 5.109765,2.183873 4.483655,3.655017 C 15.250062,43.989491 51.690213,94.969163 51.071595,95.079212 33.166467,81.671368 9.6436422,41.108493 25.797713,23.350259 z" />
              <path
                 inkscape:connector-curvature="0"
                 style="fill:none;stroke:#000000;stroke-width:1;stroke-linecap:butt;stroke-linejoin:miter;stroke-opacity:1"
                 id="path3651"
                 d="m 51.760935,97.147214 c 1.349834,12.791806 1.096603,28.448186 -1.37867,38.602696" />
              <path
                 inkscape:connector-curvature="0"
                 style="fill:#aeaeae;fill-rule:evenodd;stroke:#000000;stroke-width:1;stroke-linecap:butt;stroke-linejoin:miter;stroke-opacity:1"
                 id="path3653"
                 d="m 176.79014,126.72072 c -5.67354,0.19791 -9.90625,2.8125 -9.90625,2.8125 -19.07706,12.08071 -30.2907,23.6692 -39.625,40.6875 l 1.71875,0 c 12.83642,0.0116 25.89811,0.65782 42.85511,0.44603 18.7645,-6.97758 27.26707,-44.15185 4.95739,-43.94603 z" />
              <path
                 inkscape:connector-curvature="0"
                 style="fill:#aeaeae;fill-rule:evenodd;stroke:#000000;stroke-width:1;stroke-linecap:butt;stroke-linejoin:miter;stroke-opacity:1"
                 id="path3655"
                 d="m 166.57139,129.72072 c -36.17817,19.17016 -36.27438,37.93137 -53.74251,62.67818 10.25548,-12.66648 17.17819,-22.59145 18.39523,-23.37817 4.52723,-12.5388 37.54372,-45.38423 50.35198,-37.83706 5.77147,7.576 5.926,7.67616 3.91985,26.27425 5.97249,-9.85528 3.83723,-26.99231 -0.85792,-27.99982 -4.78776,-4.6272 -13.41944,-2.44717 -18.06663,0.26262 z" />
              <path
                 inkscape:connector-curvature="0"
                 style="fill:#aeaeae;fill-rule:evenodd;stroke:#000000;stroke-width:1;stroke-linecap:butt;stroke-linejoin:miter;stroke-opacity:1"
                 id="path3657"
                 d="m 31.900825,142.715 c 0.97487,6.33662 5.8492,14.62298 8.77379,17.54757" />
              <path
                 inkscape:connector-curvature="0"
                 style="fill:none;stroke:#000000;stroke-width:1;stroke-linecap:butt;stroke-linejoin:miter;stroke-opacity:1"
                 id="path3659"
                 d="m 54.086195,164.44757 c 14.710835,-0.65967 27.474662,-7.42864 38.54182,-14.05192" />
              <path
                 inkscape:connector-curvature="0"
                 style="fill:none;stroke:#000000;stroke-width:1;stroke-linecap:butt;stroke-linejoin:miter;stroke-opacity:1"
                 id="path3661"
                 d="m 107.4529,144.1773 c 11.50554,-8.71853 24.72339,-22.31019 37.53231,-22.42191" />
              <path
                 inkscape:connector-curvature="0"
                 style="fill:#aeaeae;fill-rule:evenodd;stroke:#000000;stroke-width:1;stroke-linecap:butt;stroke-linejoin:miter;stroke-opacity:1"
                 id="path3663"
                 d="m 168.86942,136.37837 c 5.98591,8.42036 5.00425,19.6691 -0.48744,27.78367" />
              <path
                 inkscape:connector-curvature="0"
                 style="fill:#aeaeae;fill-rule:evenodd;stroke:#000000;stroke-width:1;stroke-linecap:butt;stroke-linejoin:miter;stroke-opacity:1"
                 id="path3665"
                 d="m 162.53279,161.72487 c 4.338,-7.15241 4.96902,-18.99914 0.97487,-23.39677" />
              <path
                 inkscape:connector-curvature="0"
                 style="fill:#aeaeae;fill-opacity:1;fill-rule:nonzero;stroke:#000000;stroke-width:0.9999997;stroke-miterlimit:4;stroke-opacity:1;stroke-dasharray:none"
                 id="path3824"
                 transform="matrix(0.956334,0.292277,-0.292277,0.956334,139.9796,146.1726)"
                 d="m -77.205398,64.70797 a 7.5826731,14.476012 0 1 1 -15.165346,0 7.5826731,14.476012 0 1 1 15.165346,0 z" />
            </g>
            <path
               inkscape:connector-curvature="0"
               style="fill:none;stroke:#000000;stroke-width:1px;stroke-linecap:butt;stroke-linejoin:miter;stroke-opacity:1"
               id="path5203"
               d="m 68.93339,44.532703 c 5.170004,1.034001 5.859338,0.689334 5.859338,0.689334" />
            <path
               inkscape:connector-curvature="0"
               style="fill:none;stroke:#000000;stroke-width:1px;stroke-linecap:butt;stroke-linejoin:miter;stroke-opacity:1"
               id="path5205"
               d="m 89.419897,43.366853 c 1.723335,-1.034001 -0.457609,-0.481707 4.258924,-2.219159" />
            <path
               inkscape:connector-curvature="0"
               style="fill:none;stroke:#000000;stroke-width:1px;stroke-linecap:butt;stroke-linejoin:miter;stroke-opacity:1"
               id="path5207"
               d="m 112.70609,34.032609 c 2.068,0 2.068,-0.344667 4.82534,-0.344667" />
            <path
               inkscape:connector-curvature="0"
               style="fill:none;stroke:#000000;stroke-width:1px;stroke-linecap:butt;stroke-linejoin:miter;stroke-opacity:1"
               id="path5209"
               d="m 53.482513,40.177479 c 0.52566,1.072228 1.197674,1.378668 2.576342,2.412668" />
            <path
               inkscape:connector-curvature="0"
               style="fill:none;stroke:#000000;stroke-width:1px;stroke-linecap:butt;stroke-linejoin:miter;stroke-opacity:1"
               id="path5211"
               d="m 54.802045,26.794603 c -0.344667,1.723335 -1.042551,1.740436 -1.387218,3.808438" />
            <path
               inkscape:connector-curvature="0"
               style="fill:none;stroke:#000000;stroke-width:1px;stroke-linecap:butt;stroke-linejoin:miter;stroke-opacity:1"
               id="path5216"
               d="m 131.60682,31.372532 c 11.16885,4.324523 20.12744,15.596735 20.9596,25.833931" />
            <path
               inkscape:connector-curvature="0"
               style="fill:none;stroke:#000000;stroke-width:1px;stroke-linecap:butt;stroke-linejoin:miter;stroke-opacity:1"
               id="path5218"
               d="m 107.23519,111.31149 c 17.39192,-2.74086 27.33397,-6.81208 37.53231,-17.060144" />
            <path
               inkscape:connector-curvature="0"
               style="fill:none;stroke:#000000;stroke-width:1px;stroke-linecap:butt;stroke-linejoin:miter;stroke-opacity:1"
               id="path5222"
               d="M 60.441652,32.834829 C 67.17456,20.48129 77.994113,11.867253 87.737882,6.513465" />
            <path
               inkscape:connector-curvature="0"
               style="fill:none;stroke:#000000;stroke-width:1px;stroke-linecap:butt;stroke-linejoin:miter;stroke-opacity:1"
               id="path5224"
               d="M 78.514783,40.817824 C 88.974979,39.069669 98.1918,30.427043 112.63681,28.409814" />
          </g>
        </g>
      </g>
    </g>
  </g>
  <g
     inkscape:groupmode="layer"
     id="layer1"
     inkscape:label="Cover"
     style="display:inline"
     sodipodi:insensitive="true">
    <path
       d="m 2,2 v 257 c 0,286 298,398 298,398 0,0 298,-112 298,-398 V 2 z"
       id="shine"
       inkscape:connector-curvature="0"
       style="fill:url(#radialGradient3074);stroke:#000000;stroke-width:3" />
  </g>
</svg>
