<?xml version="1.0" encoding="UTF-8"?>
<svg xmlns="http://www.w3.org/2000/svg" xmlns:xlink="http://www.w3.org/1999/xlink" width="600" height="660">
<defs>
  <radialGradient id="rg" gradientUnits="userSpaceOnUse" cx="220" cy="220" r="405">
    <stop style="stop-color:#fff;stop-opacity:.3" offset="0"/>
    <stop style="stop-color:#fff;stop-opacity:.2" offset=".2"/>
    <stop style="stop-color:#666;stop-opacity:.1" offset=".6"/>
    <stop style="stop-color:#000;stop-opacity:.13" offset="1"/>
  </radialGradient>
  <path id="shield" d="m2,2v257c0,286 298,398 298,398c0,0 298-112 298-398V2z"/>
</defs>
<use id="shine" xlink:href="#shield" fill="#000"/>
<path id="bottom-left" fill="#ddd" d="M 2 2 L 2 259 C 2 545 300 657 300 657 C 300 657 419.2368 612.18412 506.86328 506.86328 L 2 2 z"/>
<g stroke="#222" stroke-width="1">
  <path fill="#ddd" d="m 293.39408,178.45784 c -1.47137,-25.06395 37.51637,-64.15702 63.79214,-81.737643 31.01528,-20.751764 48.95353,-17.101787 48.81129,-17.364277 -6.67264,-12.31361 -42.08305,-8.349812 -57.16853,-2.557434 -42.71259,16.400378 -91.56113,69.240484 -103.68142,90.484524 -0.60196,1.05509 0.26271,9.97301 5.43283,14.42347 5.90285,5.08117 6.72921,5.64393 10.37518,7.73877 0.77981,0.44804 5.72179,-5.01037 6.11792,-5.15141 0.269,-0.0958 -8.81949,-8.40281 -0.23663,-13.69949 7.49768,-4.62699 14.43512,9.23328 14.46605,9.17214 0.25677,-0.50741 12.12152,-0.79167 12.09117,-1.30865 z"/>
  <path fill="none" d="m 253.15416,169.3634 c 1.2018,-2.17007 61.39307,-85.29003 117.9696,-97.325062"/>
  <path fill="#aaa" d="m 266.40768,184.54113 c 0,0 105.81948,102.10751 105.9352,102.03422 2.98826,-1.89234 15.19289,-17.87004 23.44949,-21.84019 3.39482,-1.63239 8.21397,3.53826 7.5429,6.11823 -0.67384,2.59058 -21.96871,24.99343 -21.67875,25.29455 0.53515,3.90795 66.12884,69.65592 66.18469,69.67144 9.33818,2.59487 9.32111,12.3263 5.25402,15.77791 -3.22837,2.73982 -12.81199,3.46154 -16.00983,-8.22203 -0.37469,-1.36896 -41.24544,-43.32381 -62.2013,-64.86231 L 361.87238,295.91942 261.79633,194.36086 c 0,0 -2.28468,-1.10243 -4.36389,-2.77365 -2.07922,-1.67121 -1.43241,-2.47968 -3.95298,-3.91122 -2.52056,-1.43152 -4.45807,-0.5793 -6.12925,-1.81488 -1.67118,-1.23558 -0.55544,-3.12743 -0.55544,-3.12743 l 6.78747,1.34313 7.15646,5.60052 5.66898,-5.1362 z"/>
  <path fill="none" d="m 269.21547,187.81696 -7.01541,7.27491 m 7.69161,6.51987 7.19171,-7.0947 M 362.5458,295.8966 c 3.37073,-3.76682 9.0885,-9.26081 9.55739,-9.76259 m 1.89625,17.30591 c 0.38088,-0.38047 7.53986,-7.08842 7.43707,-7.15287 m -9.10884,-10.16064 c -0.44893,6.2211 7.28438,9.08446 7.50262,9.18449"/>
</g>
<g stroke="#000" stroke-width="1">
  <path fill="#333" d="m 306.60592,421.54216 c 1.47137,25.06395 -37.51637,64.15702 -63.79214,81.73764 -31.01528,20.75177 -48.95353,17.10179 -48.81129,17.36428 6.67264,12.31361 42.08305,8.34981 57.16853,2.55743 42.71259,-16.40037 91.56113,-69.24048 103.68142,-90.48452 0.60196,-1.05509 -0.26271,-9.97301 -5.43283,-14.42347 -5.90285,-5.08117 -6.72921,-5.64393 -10.37518,-7.73877 -0.77981,-0.44804 -5.72179,5.01037 -6.11792,5.15141 -0.269,0.0958 8.81949,8.40281 0.23663,13.69949 -7.49768,4.62699 -14.43512,-9.23328 -14.46605,-9.17214 -0.25677,0.50741 -12.12152,0.79167 -12.09117,1.30865 z"/>
  <path fill="none" d="m 346.84584,430.6366 c -1.2018,2.17007 -61.39307,85.29003 -117.9696,97.32506"/>
  <path fill="#111" d="m 333.59232,415.45887 c 0,0 -105.81948,-102.10751 -105.9352,-102.03422 -2.98826,1.89234 -15.19289,17.87004 -23.44949,21.84019 -3.39482,1.63239 -8.21397,-3.53826 -7.5429,-6.11823 0.67384,-2.59058 21.96871,-24.99343 21.67875,-25.29455 -0.53515,-3.90795 -66.12884,-69.65592 -66.18469,-69.67144 -9.33818,-2.59487 -9.32111,-12.3263 -5.25402,-15.77791 3.22837,-2.73982 12.81199,-3.46154 16.00983,8.22203 0.37469,1.36896 41.24544,43.32381 62.2013,64.86231 l 13.01172,12.59353 100.07605,101.55856 c 0,0 2.28468,1.10243 4.36389,2.77365 2.07922,1.67121 1.43241,2.47968 3.95298,3.91122 2.52056,1.43152 4.45807,0.5793 6.12925,1.81488 1.67118,1.23558 0.55544,3.12743 0.55544,3.12743 l -6.78747,-1.34313 -7.15646,-5.60052 -5.66898,5.1362 z"/>
  <path fill="none" d="m 330.78453,412.18304 7.01541,-7.27491 m -7.69161,-6.51987 -7.19171,7.0947 M 237.4542,304.1034 c -3.37073,3.76682 -9.0885,9.26081 -9.55739,9.76259 m -1.89625,-17.30591 c -0.38088,0.38047 -7.53986,7.08842 -7.43707,7.15287 m 9.10884,10.16064 c 0.44893,-6.2211 -7.28438,-9.08446 -7.50262,-9.18449"/>
</g>
<use id="shine" xlink:href="#shield" fill="url(#rg)" stroke="#000" stroke-width="3"/>
</svg>