<?xml version="1.0" encoding="UTF-8"?>
<svg xmlns="http://www.w3.org/2000/svg" xmlns:xlink="http://www.w3.org/1999/xlink" width="600" height="660">
<defs>
  <radialGradient id="rg" gradientUnits="userSpaceOnUse" cx="220" cy="220" r="405">
    <stop style="stop-color:#fff;stop-opacity:.3" offset="0"/>
    <stop style="stop-color:#fff;stop-opacity:.2" offset=".2"/>
    <stop style="stop-color:#666;stop-opacity:.1" offset=".6"/>
    <stop style="stop-color:#000;stop-opacity:.13" offset="1"/>
  </radialGradient>
  <clipPath id="clip-shield">
    <path id="shield" d="m2,2v257c0,286 298,398 298,398c0,0 298-112 298-398V2z"/>
  </clipPath>
</defs>
<use id="shine" xlink:href="#shield" style="fill:#000000;"/>
<g style="fill:none;stroke:#222222;stroke-width:10;clip-path:url(#clip-shield);">
	<path d="m 0,0 h 600 m -600,60 h 600 m -600,60 h 600 m -600,60 h 600 m -600,60 h 600 m -600,60 h 600 m -600,60 h 600 m -600,60 h 600 m -600,60 h 600 m -600,60 h 600 m -600,60 h 600 m -600,60 h 600"/>
	<path d="m 0,0 v 60 m 100,-60 v 60 m 100,-60 v 60 m 100,-60 v 60 m 100,-60 v 60 m 100,-60 v 60 m 100,-60 v 60"/>
	<path d="m 50,60 v 60 m 100,-60 v 60 m 100,-60 v 60 m 100,-60 v 60 m 100,-60 v 60 m 100,-60 v 60"/>
	<path d="m 0,120 v 60 m 100,-60 v 60 m 100,-60 v 60 m 100,-60 v 60 m 100,-60 v 60 m 100,-60 v 60 m 100,-60 v 60"/>
	<path d="m 50,180 v 60 m 100,-60 v 60 m 100,-60 v 60 m 100,-60 v 60 m 100,-60 v 60 m 100,-60 v 60"/>
	<path d="m 0,240 v 60 m 100,-60 v 60 m 100,-60 v 60 m 100,-60 v 60 m 100,-60 v 60 m 100,-60 v 60 m 100,-60 v 60"/>
	<path d="m 50,300 v 60 m 100,-60 v 60 m 100,-60 v 60 m 100,-60 v 60 m 100,-60 v 60 m 100,-60 v 60"/>
	<path d="m 0,360 v 60 m 100,-60 v 60 m 100,-60 v 60 m 100,-60 v 60 m 100,-60 v 60 m 100,-60 v 60 m 100,-60 v 60"/>
	<path d="m 50,420 v 60 m 100,-60 v 60 m 100,-60 v 60 m 100,-60 v 60 m 100,-60 v 60 m 100,-60 v 60"/>
	<path d="m 0,480 v 60 m 100,-60 v 60 m 100,-60 v 60 m 100,-60 v 60 m 100,-60 v 60 m 100,-60 v 60 m 100,-60 v 60"/>
	<path d="m 50,540 v 60 m 100,-60 v 60 m 100,-60 v 60 m 100,-60 v 60 m 100,-60 v 60 m 100,-60 v 60"/>
	<path d="m 0,600 v 60 m 100,-60 v 60 m 100,-60 v 60 m 100,-60 v 60 m 100,-60 v 60 m 100,-60 v 60 m 100,-60 v 60"/>
</g>
<g style="stroke:#000000;stroke-width:1;stroke-linejoin:round;">
	<path style="fill:#666666;" d="m 440,440 v -146.4 c 0,-55.6 -9.7,-98.4 -33.9,-130.6 -24.3,-32.2 -59.7,-47.9 -95.8,-57.5 -3.4,-1 -6.7,-1.5 -10.3,-1.5 -3.6,0 -6.9,0.5 -10.3,1.5 -36.1,9.6 -71.5,25.3 -95.8,57.5 -24.2,32.2 -33.9,75 -33.9,130.6 v 146.4 z"/>
	<path style="fill:#666666;" d="m 150,450 v -50 h 50 c 16.7,0 16.7,-50 0,-50 h -50 v -50 h 50 c 13.8,0 15.3,-39.1 1.7,-41.4 l -49.4,-8.5 c 2,-17.6 5.4,-33.9 10.5,-48.8 l 45.2,23 c 10.4,5.3 22.4,-23.8 14.1,-31.9 l -36.3,-35.3 0.1,-0.1 c 10.5,-13.9 22.8,-24.9 36.3,-33.7 l 24.1,44 c 5.6,10.2 33.3,-4.6 31,-16 l -10,-49.5 c 6.6,-2.27 13.2,-4.25 19.8,-6.01 4.3,-1.22 8.4,-1.88 12.9,-1.88 4.5,0 8.6,0.66 12.9,1.88 6.6,1.76 13.2,3.74 19.8,6.01 l -10,49.5 c -2.3,11.4 25.4,26.2 31,16 l 24.1,-44 c 13.5,8.8 25.8,19.8 36.3,33.7 l 0.1,0.1 -36.3,35.3 c -8.3,8.1 3.7,37.2 14.1,31.9 l 45.2,-23 c 5.1,14.9 8.5,31.2 10.5,48.8 l -49.4,8.5 c -13.6,2.3 -12.1,41.4 1.7,41.4 h 50 v 50 h -50 c -16.7,0 -16.7,50 0,50 h 50 v 50 z"/>
	<path style="fill:#666666;" d="m 188.5,460 v -40 h 223 v 40 z"/>
	<path style="fill:#deaa87;" d="m 300,420 h -100 v -126.4 c 0,-101.9 35.6,-132.3 100,-149.5 z"/>
	<path style="fill:#deaa87;" d="m 300,420 h 100 v -126.4 c 0,-101.9 -35.6,-132.3 -100,-149.5 z"/>
	<path style="fill:#000000;stroke:none;" d="m 249.8,203.8 a 10.38,10.38 0 0 0 -8.8,4.8 l -26.8,-1.6 c -2,4.6 -3.8,9.5 -5.4,14.7 l 32.2,-1.9 a 10.38,10.38 0 0 0 8.8,4.8 10.38,10.38 0 0 0 9.4,-5.9 l 29.6,-1.8 c 1.8,-0.1 1.8,-5.3 0,-5.4 l -29.6,-1.8 a 10.38,10.38 0 0 0 -9.4,-5.9 z m 0,80.2 a 10.38,10.38 0 0 0 -8.8,4.8 l -40.9,-2.4 c -0.1,2.4 -0.1,4.8 -0.1,7.2 v 8.8 l 41,-2.4 a 10.38,10.38 0 0 0 8.8,4.8 10.38,10.38 0 0 0 9.4,-5.9 l 29.6,-1.8 c 1.8,-0.1 1.8,-5.3 0,-5.4 l -29.6,-1.8 a 10.38,10.38 0 0 0 -9.4,-5.9 z m 0,80.2 a 10.38,10.38 0 0 0 -8.8,4.8 l -41,-2.4 v 16 l 41,-2.4 a 10.38,10.38 0 0 0 8.8,4.8 10.38,10.38 0 0 0 9.4,-5.9 l 29.6,-1.8 c 1.8,-0.1 1.8,-5.3 0,-5.4 l -29.6,-1.8 a 10.38,10.38 0 0 0 -9.4,-5.9 z m 100.4,-160.4 a 10.38,10.38 0 0 1 8.8,4.8 l 26.8,-1.6 c 2,4.6 3.8,9.5 5.4,14.7 l -32.2,-1.9 a 10.38,10.38 0 0 1 -8.8,4.8 10.38,10.38 0 0 1 -9.4,-5.9 l -29.6,-1.8 c -1.8,-0.1 -1.8,-5.3 0,-5.4 l 29.6,-1.8 a 10.38,10.38 0 0 1 9.4,-5.9 z m 0,80.2 a 10.38,10.38 0 0 1 8.8,4.8 l 40.9,-2.4 c 0.1,2.4 0.1,4.8 0.1,7.2 v 8.8 l -41,-2.4 a 10.38,10.38 0 0 1 -8.8,4.8 10.38,10.38 0 0 1 -9.4,-5.9 l -29.6,-1.8 c -1.8,-0.1 -1.8,-5.3 0,-5.4 l 29.6,-1.8 a 10.38,10.38 0 0 1 9.4,-5.9 z m 0,80.2 a 10.38,10.38 0 0 1 8.8,4.8 l 41,-2.4 v 16 l -41,-2.4 a 10.38,10.38 0 0 1 -8.8,4.8 10.38,10.38 0 0 1 -9.4,-5.9 l -29.6,-1.8 c -1.8,-0.1 -1.8,-5.3 0,-5.4 l 29.6,-1.8 a 10.38,10.38 0 0 1 9.4,-5.9 z"/>
</g>
<use id="shine" xlink:href="#shield" style="fill:url(#rg);stroke:#000000;stroke-width:3;"/>
</svg>
