<?xml version="1.0" encoding="UTF-8" standalone="no"?>
<svg
   xmlns:dc="http://purl.org/dc/elements/1.1/"
   xmlns:cc="http://creativecommons.org/ns#"
   xmlns:rdf="http://www.w3.org/1999/02/22-rdf-syntax-ns#"
   xmlns:svg="http://www.w3.org/2000/svg"
   xmlns="http://www.w3.org/2000/svg"
   xmlns:xlink="http://www.w3.org/1999/xlink"
   xmlns:sodipodi="http://sodipodi.sourceforge.net/DTD/sodipodi-0.dtd"
   xmlns:inkscape="http://www.inkscape.org/namespaces/inkscape"
   width="600"
   height="660"
   id="svg2"
   version="1.1"
   inkscape:version="0.48.2 r9819"
   sodipodi:docname="House_Ryswell1.svg">
  <metadata
     id="metadata24">
    <rdf:RDF>
      <cc:Work
         rdf:about="">
        <dc:format>image/svg+xml</dc:format>
        <dc:type
           rdf:resource="http://purl.org/dc/dcmitype/StillImage" />
        <dc:title />
      </cc:Work>
    </rdf:RDF>
  </metadata>
  <sodipodi:namedview
     pagecolor="#ffffff"
     bordercolor="#666666"
     borderopacity="1"
     objecttolerance="10"
     gridtolerance="10"
     guidetolerance="10"
     inkscape:pageopacity="0"
     inkscape:pageshadow="2"
     inkscape:window-width="1366"
     inkscape:window-height="715"
     id="namedview22"
     showgrid="false"
     inkscape:zoom="0.50568851"
     inkscape:cx="48.822704"
     inkscape:cy="229.34928"
     inkscape:window-x="-8"
     inkscape:window-y="-8"
     inkscape:window-maximized="1"
     inkscape:current-layer="layer2" />
  <defs
     id="defs4">
    <inkscape:path-effect
       is_visible="true"
       id="path-effect3136"
       effect="spiro" />
    <inkscape:path-effect
       effect="spiro"
       id="path-effect3132"
       is_visible="true" />
    <inkscape:path-effect
       effect="spiro"
       id="path-effect3101"
       is_visible="true" />
    <inkscape:path-effect
       is_visible="true"
       id="path-effect3085"
       effect="spiro" />
    <inkscape:path-effect
       is_visible="true"
       id="path-effect3083"
       effect="spiro" />
    <inkscape:path-effect
       is_visible="true"
       id="path-effect3081"
       effect="spiro" />
    <inkscape:path-effect
       is_visible="true"
       id="path-effect3079"
       effect="spiro" />
    <inkscape:path-effect
       is_visible="true"
       id="path-effect3077"
       effect="spiro" />
    <inkscape:path-effect
       is_visible="true"
       id="path-effect3075"
       effect="spiro" />
    <inkscape:path-effect
       effect="spiro"
       id="path-effect3049"
       is_visible="true" />
    <inkscape:path-effect
       is_visible="true"
       id="path-effect3045"
       effect="spiro" />
    <inkscape:path-effect
       effect="spiro"
       id="path-effect3041"
       is_visible="true" />
    <radialGradient
       id="rg"
       gradientUnits="userSpaceOnUse"
       cx="220"
       cy="220"
       r="405">
      <stop
         style="stop-color:#fff;stop-opacity:.3"
         offset="0"
         id="stop7" />
      <stop
         style="stop-color:#fff;stop-opacity:.2"
         offset=".2"
         id="stop9" />
      <stop
         style="stop-color:#666;stop-opacity:.1"
         offset=".6"
         id="stop11" />
      <stop
         style="stop-color:#000;stop-opacity:.13"
         offset="1"
         id="stop13" />
    </radialGradient>
    <path
       id="shield"
       d="m2,2v257c0,286 298,398 298,398c0,0 298-112 298-398V2z" />
    <radialGradient
       inkscape:collect="always"
       xlink:href="#rg-7"
       id="radialGradient3055-1"
       gradientUnits="userSpaceOnUse"
       cx="220"
       cy="220"
       r="405" />
    <radialGradient
       id="rg-7"
       gradientUnits="userSpaceOnUse"
       cx="220"
       cy="220"
       r="405">
      <stop
         style="stop-color:#fff;stop-opacity:.3"
         offset="0"
         id="stop7-4" />
      <stop
         style="stop-color:#fff;stop-opacity:.2"
         offset=".2"
         id="stop9-0" />
      <stop
         style="stop-color:#666;stop-opacity:.1"
         offset=".6"
         id="stop11-9" />
      <stop
         style="stop-color:#000;stop-opacity:.13"
         offset="1"
         id="stop13-4" />
    </radialGradient>
    <radialGradient
       r="405"
       cy="220"
       cx="220"
       gradientUnits="userSpaceOnUse"
       id="radialGradient3074"
       xlink:href="#rg-7"
       inkscape:collect="always" />
    <inkscape:path-effect
       is_visible="true"
       id="path-effect10120-1"
       effect="spiro" />
    <inkscape:path-effect
       effect="spiro"
       id="path-effect10118-3"
       is_visible="true" />
    <inkscape:path-effect
       effect="spiro"
       id="path-effect10116-9"
       is_visible="true" />
    <inkscape:path-effect
       effect="spiro"
       id="path-effect10114-7"
       is_visible="true" />
    <inkscape:path-effect
       effect="spiro"
       id="path-effect10112-7"
       is_visible="true" />
    <inkscape:path-effect
       effect="spiro"
       id="path-effect10110-2"
       is_visible="true" />
    <linearGradient
       inkscape:collect="always"
       xlink:href="#linearGradient4719-5"
       id="linearGradient4039"
       gradientUnits="userSpaceOnUse"
       gradientTransform="matrix(2.3257341,0,0,2.2943177,447.69485,-1820.2799)"
       x1="-145.25935"
       y1="984.24286"
       x2="-64.14286"
       y2="984.14789" />
    <linearGradient
       inkscape:collect="always"
       id="linearGradient4719-5">
      <stop
         style="stop-color:#666666;stop-opacity:1;"
         offset="0"
         id="stop4721-5" />
      <stop
         id="stop4809-1"
         offset="0.39344174"
         style="stop-color:#666666;stop-opacity:0.74901961;" />
      <stop
         style="stop-color:#666666;stop-opacity:0;"
         offset="1"
         id="stop4723-7" />
    </linearGradient>
    <radialGradient
       inkscape:collect="always"
       xlink:href="#linearGradient4801-8"
       id="radialGradient4041"
       gradientUnits="userSpaceOnUse"
       gradientTransform="matrix(-0.72153181,1.2650715,-2.2729984,-1.2616144,1712.0113,1733.7841)"
       cx="-307.14288"
       cy="782.36218"
       fx="-307.14288"
       fy="782.36218"
       r="63" />
    <linearGradient
       inkscape:collect="always"
       id="linearGradient4801-8">
      <stop
         style="stop-color:#000000;stop-opacity:1;"
         offset="0"
         id="stop4803-2" />
      <stop
         style="stop-color:#000000;stop-opacity:0;"
         offset="1"
         id="stop4805-4" />
    </linearGradient>
    <inkscape:path-effect
       effect="spiro"
       id="path-effect10108-4"
       is_visible="true" />
    <linearGradient
       inkscape:collect="always"
       xlink:href="#linearGradient4719-5"
       id="linearGradient4044"
       gradientUnits="userSpaceOnUse"
       gradientTransform="matrix(-2.4055369,0,0,-1.6485021,142.06168,1726.5307)"
       x1="-145.25935"
       y1="984.24286"
       x2="-64.14286"
       y2="984.14789" />
    <radialGradient
       inkscape:collect="always"
       xlink:href="#linearGradient4801-8"
       id="radialGradient4046"
       gradientUnits="userSpaceOnUse"
       gradientTransform="matrix(0.74628962,-0.90897301,2.3509914,0.90648896,-1165.637,-827.11785)"
       cx="-307.14288"
       cy="782.36218"
       fx="-307.14288"
       fy="782.36218"
       r="63" />
    <inkscape:path-effect
       effect="spiro"
       id="path-effect10102-7"
       is_visible="true" />
    <linearGradient
       inkscape:collect="always"
       xlink:href="#linearGradient4719-5"
       id="linearGradient4049"
       gradientUnits="userSpaceOnUse"
       gradientTransform="matrix(2.334989,0,0,-1.6146975,449.44065,1692.189)"
       x1="-145.25935"
       y1="984.24286"
       x2="-64.14286"
       y2="984.14789" />
    <radialGradient
       inkscape:collect="always"
       xlink:href="#linearGradient4801-8"
       id="radialGradient4051"
       gradientUnits="userSpaceOnUse"
       gradientTransform="matrix(-0.72440295,-0.89033332,-2.2820431,0.88790031,1718.7881,-809.09364)"
       cx="-307.14288"
       cy="782.36218"
       fx="-307.14288"
       fy="782.36218"
       r="63" />
    <inkscape:path-effect
       is_visible="true"
       id="path-effect10096-8"
       effect="spiro" />
    <linearGradient
       inkscape:collect="always"
       xlink:href="#linearGradient4719-5"
       id="linearGradient4054"
       gradientUnits="userSpaceOnUse"
       gradientTransform="matrix(-2.409599,0,0,2.2818507,139.61083,-1810.8163)"
       x1="-145.25935"
       y1="984.24286"
       x2="-64.14286"
       y2="984.14789" />
    <radialGradient
       inkscape:collect="always"
       xlink:href="#linearGradient4801-8"
       id="radialGradient4056"
       gradientUnits="userSpaceOnUse"
       gradientTransform="matrix(0.74754985,1.2581972,2.3549614,-1.2547588,-1170.296,1723.935)"
       cx="-307.14288"
       cy="782.36218"
       fx="-307.14288"
       fy="782.36218"
       r="63" />
    <inkscape:path-effect
       is_visible="true"
       id="path-effect10090-3"
       effect="spiro" />
    <inkscape:path-effect
       effect="spiro"
       id="path-effect10084-1"
       is_visible="true" />
    <inkscape:path-effect
       effect="spiro"
       id="path-effect10082-1"
       is_visible="true" />
    <radialGradient
       inkscape:collect="always"
       xlink:href="#linearGradient4801-8"
       id="radialGradient4061"
       gradientUnits="userSpaceOnUse"
       gradientTransform="matrix(-0.76516322,1.2901254,-2.4104477,-1.2865998,1806.8444,1757.4704)"
       cx="-307.14288"
       cy="782.36218"
       fx="-307.14288"
       fy="782.36218"
       r="63" />
    <inkscape:path-effect
       effect="spiro"
       id="path-effect10080-4"
       is_visible="true" />
    <inkscape:path-effect
       is_visible="true"
       id="path-effect3075-1"
       effect="spiro" />
    <inkscape:path-effect
       effect="spiro"
       id="path-effect3101-7"
       is_visible="true" />
    <linearGradient
       inkscape:collect="always"
       xlink:href="#grad1-7-7"
       id="linearGradient3085-8-8"
       gradientUnits="userSpaceOnUse"
       gradientTransform="matrix(0.77469594,0,0,0.30982404,152.68996,-13.619206)"
       x1="78.877235"
       y1="178.07356"
       x2="301.40585"
       y2="178.07356" />
    <linearGradient
       id="grad1-7-7"
       x1="78.877235"
       y1="178.07356"
       x2="301.40585"
       y2="178.07356"
       gradientTransform="scale(1.577772,0.63380513)"
       gradientUnits="userSpaceOnUse">
      <stop
         offset="0%"
         style="stop-color:#da0;"
         id="stop16-4-4" />
      <stop
         offset="40%"
         style="stop-color:#fd0;"
         id="stop18-0-0" />
      <stop
         offset="60%"
         style="stop-color:#fd0;"
         id="stop20-9-9" />
      <stop
         offset="100%"
         style="stop-color:#da0;"
         id="stop22-4-4" />
    </linearGradient>
    <linearGradient
       inkscape:collect="always"
       xlink:href="#grad1-7-7"
       id="linearGradient3081-8-8"
       gradientUnits="userSpaceOnUse"
       gradientTransform="matrix(0.77469594,0,0,0.30982404,-27.310046,-13.619206)"
       x1="78.877235"
       y1="178.07356"
       x2="301.40585"
       y2="178.07356" />
    <linearGradient
       id="linearGradient3093"
       x1="78.877235"
       y1="178.07356"
       x2="301.40585"
       y2="178.07356"
       gradientTransform="scale(1.577772,0.63380513)"
       gradientUnits="userSpaceOnUse">
      <stop
         offset="0%"
         style="stop-color:#da0;"
         id="stop3095" />
      <stop
         offset="40%"
         style="stop-color:#fd0;"
         id="stop3097" />
      <stop
         offset="60%"
         style="stop-color:#fd0;"
         id="stop3099" />
      <stop
         offset="100%"
         style="stop-color:#da0;"
         id="stop3101" />
    </linearGradient>
    <linearGradient
       y2="178.07356"
       x2="301.40585"
       y1="178.07356"
       x1="78.877235"
       gradientTransform="matrix(0.77469594,0,0,0.30982404,332.68995,-13.619206)"
       gradientUnits="userSpaceOnUse"
       id="linearGradient3128-1"
       xlink:href="#grad1-7-7"
       inkscape:collect="always" />
    <linearGradient
       id="linearGradient3104"
       x1="78.877235"
       y1="178.07356"
       x2="301.40585"
       y2="178.07356"
       gradientTransform="scale(1.577772,0.63380513)"
       gradientUnits="userSpaceOnUse">
      <stop
         offset="0%"
         style="stop-color:#da0;"
         id="stop3106" />
      <stop
         offset="40%"
         style="stop-color:#fd0;"
         id="stop3108" />
      <stop
         offset="60%"
         style="stop-color:#fd0;"
         id="stop3110" />
      <stop
         offset="100%"
         style="stop-color:#da0;"
         id="stop3112" />
    </linearGradient>
    <inkscape:path-effect
       is_visible="true"
       id="path-effect3061"
       effect="spiro" />
  </defs>
  <g
     inkscape:groupmode="layer"
     id="layer2"
     inkscape:label="Elements"
     style="display:inline">
    <path
       inkscape:connector-curvature="0"
       style="fill:#aa00aa;fill-opacity:1;stroke:none;display:inline"
       id="path7212"
       d="m 2,2 0,257 c 0,286 298,398 298,398 0,0 298,-112 298,-398 L 598,2 z" />
    <g
       style="display:inline"
       id="g3139"
       transform="matrix(1.44,0,0,1.44,694.55869,-437.13672)">
      <path
         sodipodi:nodetypes="csccccsc"
         id="path4190-3-6"
         class="fil1 str8"
         d="m -348.42982,368.27364 c 0.30592,0.5743 1.71533,10.67651 12.83968,11.22649 8.20615,0.4057 11.49317,-5.73268 22.84728,-8.14735 9.82583,-2.52263 24.14851,0.50295 34.07593,1.00405 l -0.24043,3.92171 c -7.64816,-0.40985 -23.80789,-3.18519 -30.43433,-1.76433 -13.81123,3.1867 -15.87841,12.00091 -28.75192,10.61975 -10.79101,-1.15775 -11.82227,-13.15485 -10.33621,-16.86032 z"
         inkscape:connector-curvature="0"
         style="fill:#ffdd00;fill-opacity:1;stroke:#000000;stroke-width:0.90277773;stroke-miterlimit:4;stroke-opacity:1;stroke-dasharray:none;display:inline" />
      <path
         sodipodi:nodetypes="ccccccccccccccccccccccccccccccc"
         id="path9871-5-2"
         d="m -252.5851,321.78134 c -4.55905,5.7268 -12.42726,8.5552 -22.18562,10.47695 -11.77503,1.85384 -14.31543,1.16617 -25.44644,1.84405 -10.40746,0.98127 -15.1145,3.36519 -21.30917,11.75921 4.42454,9.66366 15.7937,17.09159 28.64403,22.08259 4.03995,0.29113 8.37416,4.6444 7.45047,9.92254 l -5.59933,1.04195 c 0.69929,1.43341 3.53371,5.71324 4.5119,7.8864 0.92288,3.3436 0.52507,7.32773 -1.64114,11.27669 -2.58044,4.91226 -8.53078,11.43977 -17.68804,14.60287 2.32092,1.62131 6.62174,3.10249 12.38655,1.40666 -6.97333,4.38365 -14.10394,17.309 -22.26058,16.83949 2.87874,6.50582 11.89767,8.03868 15.9091,4.38457 -3.10132,12.96599 -12.91487,16.48732 -20.40627,22.6872 6.92164,0.11774 20.41814,1.93456 29.37234,-7.45641 2.45594,5.55868 1.18877,11.44312 -1.26735,17.43157 10.1411,-2.46173 15.05494,-10.40117 19.83053,-18.4855 3.3527,5.72156 9.76131,13.7702 21.24246,17.59572 -3.93872,-6.58788 -6.25065,-13.31807 -2.36499,-18.72263 5.79854,8.62922 16.43604,13.41092 24.31442,11.94258 -6.82391,-7.04391 -9.1071,-14.53449 -11.80325,-24.63066 0,0 6.9961,5.3493 14.21759,2.11895 -6.05653,-4.07655 -10.24949,-18.7939 -14.09107,-25.60588 3.20057,3.34373 10.83783,5.88711 15.89224,2.04947 -6.33634,-4.52558 -16.94055,-16.37111 -16.18432,-27.71668 3.0757,0.99536 10.57573,4.37402 15.11795,-6.16032 -15.03241,2.62177 -10.00542,-14.48919 -22.24377,-23.83521 3.36847,1.79601 13.04791,10.70744 18.32855,-4.40279 -16.93306,1.88636 -13.46982,-12.19983 -29.93395,-13.69221 3.65136,-2.15159 10.34451,-9.84467 7.20746,-16.64076 z"
         style="fill:#ffdd00;fill-opacity:1;stroke:#000000;stroke-width:0.90277773;stroke-miterlimit:4;stroke-opacity:1;stroke-dasharray:none;display:inline"
         inkscape:connector-curvature="0" />
      <path
         id="path4405-2-9"
         class="fil2 str6"
         d="m -291.0425,364.54302 c 4.66583,-0.24861 8.05587,0.52804 10.02259,2.35508 2.05769,1.92704 3.62414,3.96494 4.69892,6.11279 1.30652,3.06971 1.85587,5.85702 1.50693,8.29901 0.34894,-2.44199 -0.20041,-5.2293 -1.50693,-8.29901 -1.07478,-2.14785 -2.64083,-4.18579 -4.69892,-6.11279 -1.96672,-1.82704 -5.35676,-2.60372 -10.02259,-2.35508 z"
         inkscape:connector-curvature="0"
         style="fill:#e6e6e6;stroke:#000000;stroke-width:0.90277773;stroke-miterlimit:4;stroke-opacity:1;stroke-dasharray:none;display:inline" />
      <path
         id="path7730-2-1"
         class="fil1 str8"
         d="m -321.13166,345.75949 c -10.97379,2.54317 -28.01818,16.09315 -11.41412,23.86808 -0.21599,-1.89434 -0.0298,-3.4289 0.438,-4.64265 0.78264,-1.6789 2.16801,-2.81861 4.27554,-3.37849 3.85258,-1.58042 8.69794,0.54299 14.10654,3.69091 5.14899,3.33072 14.24528,1.90295 20.85074,2.64689 2.41487,-7.30341 -20.56758,-13.16952 -28.2567,-22.18474 z"
         inkscape:connector-curvature="0"
         style="fill:#ffdd00;fill-opacity:1;stroke:#000000;stroke-width:0.90277773;stroke-miterlimit:4;stroke-opacity:1;stroke-dasharray:none;display:inline" />
      <path
         id="path4205-8-46"
         class="fil6 str6"
         d="m -306.692,347.15042 c 4.2781,-1.68401 12.73954,1.21315 18.06736,-1.61024 -1.3884,3.20648 -2.06395,8.04003 -11.65476,8.54682 -4.96589,0.21433 -8.51054,-3.03455 -6.41261,-6.93662 z"
         inkscape:connector-curvature="0"
         style="fill:#ffffff;stroke:#000000;stroke-width:0.90277773;stroke-miterlimit:4;stroke-opacity:1;stroke-dasharray:none;display:inline" />
      <path
         id="path4211-7-5"
         class="fil2 str6"
         d="m -306.00969,346.93115 c -1.85852,0.30106 -3.20636,0.77451 -4.14947,1.38366"
         inkscape:connector-curvature="0"
         style="fill:#e6e6e6;stroke:#000000;stroke-width:0.90277773;stroke-miterlimit:4;stroke-opacity:1;stroke-dasharray:none;display:inline" />
      <path
         id="_38769760-00-9"
         class="fil4"
         d="m -302.41944,347.14263 c -1.68045,0.23027 -2.85701,1.7714 -2.62753,3.44232 0.22896,1.67045 1.77697,2.8379 3.45738,2.60714 1.68029,-0.23068 2.85683,-1.7719 2.6274,-3.44231 -0.22896,-1.67045 -1.77712,-2.83787 -3.45725,-2.60715 z"
         inkscape:connector-curvature="0"
         style="fill:#e6e6e6;stroke:#000000;stroke-width:0.90277773;stroke-miterlimit:4;stroke-opacity:1;stroke-dasharray:none;display:inline" />
      <path
         id="_38768336-4-15"
         class="fil0"
         d="m -303.30901,348.71451 c -0.86748,0.11903 -1.47504,0.91476 -1.35691,1.77706 0.11904,0.86275 0.91816,1.46533 1.78549,1.34627 0.8676,-0.11903 1.4746,-0.91474 1.3565,-1.77702 -0.11904,-0.86276 -0.91748,-1.46539 -1.78508,-1.34631 z"
         inkscape:connector-curvature="0"
         style="fill:#000000;stroke:#000000;stroke-width:0.90277773;stroke-miterlimit:4;stroke-opacity:1;stroke-dasharray:none;display:inline" />
      <path
         id="path4407-4-9"
         class="fil2 str6"
         d="m -268.74183,382.54495 c 2.08403,1.495 3.34447,3.08573 3.78269,4.77213 1.86899,-2.56443 2.12093,-5.40396 0.72467,-8.38997 1.39626,2.98601 1.14481,5.82498 -0.72467,8.38997 -0.43822,-1.6864 -1.69866,-3.27713 -3.78269,-4.77213 z"
         inkscape:connector-curvature="0"
         style="fill:#e6e6e6;stroke:#000000;stroke-width:0.90277773;stroke-miterlimit:4;stroke-opacity:1;stroke-dasharray:none;display:inline" />
      <path
         sodipodi:nodetypes="ccccc"
         id="path4409-6-1"
         class="fil2 str6"
         d="m -255.76899,395.49614 c 1.98363,1.61647 3.19375,3.46913 3.67117,5.62236 1.50888,-2.5998 1.97171,-5.2487 1.24441,-7.78504 0.7273,2.53634 0.26451,5.18523 -1.24441,7.78504 -0.47742,-2.15323 -1.68754,-4.00589 -3.67117,-5.62236 z"
         inkscape:connector-curvature="0"
         style="fill:#e6e6e6;stroke:#000000;stroke-width:0.90277773;stroke-miterlimit:4;stroke-opacity:1;stroke-dasharray:none;display:inline" />
      <path
         id="path4428-5-90"
         class="fil2 str6"
         d="m -284.84112,441.64394 c -2.45567,1.66152 -3.96254,3.45962 -4.52207,5.39442 -2.07816,-3.02327 -2.27851,-6.31191 -0.5705,-9.7175 -1.70801,3.40559 -1.50821,6.69428 0.5705,9.7175 0.55953,-1.9348 2.0664,-3.7329 4.52207,-5.39442 z"
         inkscape:connector-curvature="0"
         style="fill:#e6e6e6;stroke:#000000;stroke-width:0.90277773;stroke-miterlimit:4;stroke-opacity:1;stroke-dasharray:none;display:inline" />
      <path
         sodipodi:nodetypes="ccccc"
         id="path4430-3-77"
         class="fil2 str6"
         d="m -266.92773,438.95735 c 2.33378,1.21982 3.93582,2.8381 4.86234,4.90992 0.98416,-2.93256 0.9039,-5.69824 -0.35364,-8.10552 1.25754,2.40728 1.3378,5.17296 0.35364,8.10552 -0.92652,-2.07182 -2.52856,-3.6901 -4.86234,-4.90992 z"
         inkscape:connector-curvature="0"
         style="fill:#e6e6e6;stroke:#000000;stroke-width:0.90277773;stroke-miterlimit:4;stroke-opacity:1;stroke-dasharray:none;display:inline" />
      <path
         sodipodi:nodetypes="cccccc"
         id="path4442-3-9"
         class="fil2 str6"
         d="m -265.93038,407.48047 c -0.54056,2.18121 -3.12748,7.0756 1.59436,11.48853 0.28493,-1.56005 -0.42383,-1.99256 3.00584,-7.11918 m -4.6002,-4.36935 0,0 z"
         inkscape:connector-curvature="0"
         style="fill:none;stroke:#000000;stroke-width:0.90277773;stroke-miterlimit:4;stroke-opacity:1;stroke-dasharray:none;display:inline" />
      <path
         id="path4439-6-0"
         class="fil2 str6"
         d="m -260.57979,347.49821 c 2.11174,4.55494 1.64705,7.33932 -1.50995,8.56927 3.157,-1.22995 3.62169,-4.01433 1.50995,-8.56927 z"
         inkscape:connector-curvature="0"
         style="fill:#e6e6e6;stroke:#000000;stroke-width:0.90277773;stroke-miterlimit:4;stroke-opacity:1;stroke-dasharray:none;display:inline" />
      <path
         id="path4443-71-31"
         class="fil2 str6"
         d="m -267.30005,347.3357 c 3.41242,5.27269 3.0435,8.12034 -1.04801,8.43461 4.09151,-0.31418 4.46043,-3.16192 1.04801,-8.43461 z"
         inkscape:connector-curvature="0"
         style="fill:#e6e6e6;stroke:#000000;stroke-width:0.90277773;stroke-miterlimit:4;stroke-opacity:1;stroke-dasharray:none;display:inline" />
      <path
         id="path4470-0-1"
         class="fil2 str6"
         d="m -281.65282,414.70446 c -3.58076,2.83265 -5.07358,5.93451 -4.58211,9.35411 1.04255,-1.16236 2.29299,-1.74573 3.89014,-1.62636 -1.98224,2.27626 -2.70222,4.47734 -2.20819,6.54382 -0.49403,-2.06648 0.22649,-4.26761 2.20819,-6.54382 -1.59715,-0.11937 -2.8476,0.46393 -3.89014,1.62636 -0.49155,-3.41959 1.00135,-6.52146 4.58211,-9.35411 z"
         inkscape:connector-curvature="0"
         style="fill:#e6e6e6;stroke:#000000;stroke-width:0.90277773;stroke-miterlimit:4;stroke-opacity:1;stroke-dasharray:none;display:inline" />
      <path
         sodipodi:nodetypes="cccccc"
         id="path4442_27-4-88"
         class="fil2 str6"
         d="m -251.23748,416.93845 c 0.91106,2.05366 4.30861,6.42502 0.42523,11.59081 -0.55191,-1.48685 0.0709,-2.03636 -4.19668,-6.48906 m 3.77145,-5.10175 0,0 z"
         inkscape:connector-curvature="0"
         style="fill:none;stroke:#000000;stroke-width:0.90277773;stroke-miterlimit:4;stroke-opacity:1;stroke-dasharray:none;display:inline" />
      <path
         id="path4442_28-4-9"
         class="fil2 str6"
         d="m -281.18799,394.52039 c -0.42789,1.72474 -2.47323,5.5959 1.26101,9.0857 0.22541,-1.2336 -0.33541,-1.57584 2.37685,-5.63015 m -3.63786,-3.45555 0,0 0,0 z"
         inkscape:connector-curvature="0"
         style="fill:none;stroke:#000000;stroke-width:0.90277773;stroke-miterlimit:4;stroke-opacity:1;stroke-dasharray:none;display:inline" />
      <path
         id="path4442_30-5-8"
         class="fil2 str6"
         d="m -253.78786,364.11062 c 0.84746,1.90915 4.0051,5.97232 0.39539,10.7745 -0.51327,-1.38225 0.0657,-1.89266 -3.90121,-6.03197 m 3.50582,-4.74253 0,0 0,0 z"
         inkscape:connector-curvature="0"
         style="fill:none;stroke:#000000;stroke-width:0.90277773;stroke-miterlimit:4;stroke-opacity:1;stroke-dasharray:none;display:inline" />
      <path
         id="path7732-6-7"
         class="fil1 str9"
         d="m -317.13559,379.1917 c -1.09626,12.90779 23.14956,4.42378 30.60551,7.61325 l 2.03088,-8.87025 c -11.94412,-1.07945 -16.63971,7.05072 -32.63639,1.257 z"
         inkscape:connector-curvature="0"
         style="fill:#ffdd00;fill-opacity:1;stroke:#000000;stroke-width:0.90277773;stroke-linejoin:round;stroke-miterlimit:4;stroke-opacity:1;stroke-dasharray:none;display:inline" />
    </g>
    <path
       style="fill:#ffdd00;fill-opacity:1;display:inline"
       d="m 2,2 0,257 c 0,1.64195 0.01135,3.27575 0.03125,4.90625 0.007,0.58338 0.02225,1.16809 0.03125,1.75 0.017,1.04257 0.0376,2.08712 0.0625,3.125 0.0279,1.16403 0.05595,2.34187 0.09375,3.5 0.04557,1.39488 0.09645,2.76991 0.15625,4.15625 0.0286,0.6654 0.06185,1.33657 0.09375,2 0.06918,1.43864 0.13445,2.85183 0.21875,4.28125 0.0092,0.15663 0.02225,0.31223 0.03125,0.46875 0.0424,0.70514 0.0789,1.42211 0.125,2.125 0.0266,0.40565 0.06595,0.81384 0.09375,1.21875 0.11939,1.73769 0.26472,3.46356 0.40625,5.1875 0.17478,2.12891 0.35447,4.267 0.5625,6.375 0.08491,0.86045 0.19085,1.70553 0.28125,2.5625 0.045,0.42693 0.0786,0.85518 0.125,1.28125 0.16765,1.53973 0.3461,3.09651 0.53125,4.625 0.11162,0.92147 0.22584,1.8326 0.34375,2.75 0.05483,0.42642 0.10005,0.85571 0.15625,1.28125 0.0233,0.1767 0.0389,0.3547 0.0625,0.53125 0.16428,1.23085 0.35574,2.46402 0.53125,3.6875 0.0403,0.28096 0.0841,0.56318 0.125,0.84375 0.05429,0.37248 0.10095,0.7532 0.15625,1.125 0.0295,0.19869 0.06385,0.39525 0.09375,0.59375 0.27747,1.8445 0.57232,3.67234 0.875,5.5 0.09639,0.58208 0.18235,1.16962 0.28125,1.75 0.24451,1.43414 0.49019,2.85751 0.75,4.28125 0.27819,1.52511 0.5795,3.04929 0.875,4.5625 0.09313,0.47671 0.18645,0.96197 0.28125,1.4375 0.1946,0.97595 0.39203,1.93526 0.59375,2.90625 0.20837,1.00289 0.40911,2.0024 0.625,3 0.09659,0.4464 0.18315,0.89841 0.28125,1.34375 0.16569,0.75212 0.36132,1.50089 0.53125,2.25 0.15534,0.68496 0.30989,1.38006 0.46875,2.0625 0.21531,0.92493 0.43454,1.82969 0.65625,2.75 0.12068,0.50093 0.22119,1.00044 0.34375,1.5 0.14347,0.5847 0.29146,1.16717 0.4375,1.75 0.48171,1.92242 0.99072,3.8479 1.5,5.75 0.45801,1.71066 0.92638,3.43073 1.40625,5.125 0.05282,0.18646 0.10315,0.37624 0.15625,0.5625 0.06621,0.23235 0.15215,0.45545 0.21875,0.6875 0.45182,1.57368 0.90467,3.12799 1.375,4.6875 0.58359,1.93504 1.16973,3.86796 1.78125,5.78125 0.06284,0.19666 0.1244,0.39732 0.1875,0.59375 0.52774,1.64157 1.07714,3.28068 1.625,4.90625 0.35164,1.04336 0.70271,2.08821 1.0625,3.125 0.89579,2.58117 1.80483,5.14697 2.75,7.6875 0.0308,0.0829 0.06285,0.1671 0.09375,0.25 0.6327,1.69688 1.28339,3.3837 1.9375,5.0625 0.35305,0.90624 0.70332,1.81777 1.0625,2.71875 0.33767,0.84684 0.68823,1.68905 1.03125,2.53125 0.69842,1.71506 1.40481,3.42913 2.125,5.125 0.7406,1.74346 1.51821,3.46427 2.28125,5.1875 0.3447,0.77867 0.68206,1.5692 1.03125,2.34375 0.41324,0.91634 0.83055,1.83942 1.25,2.75 0.25584,0.55551 0.52313,1.10288 0.78125,1.65625 0.52263,1.12015 1.03064,2.23236 1.5625,3.34375 0.79575,1.66283 1.62158,3.32548 2.4375,4.96875 0.32401,0.65273 0.64162,1.3191 0.96875,1.96875 0.49472,0.98213 0.99825,1.96239 1.5,2.9375 0.72308,1.40553 1.45012,2.79653 2.1875,4.1875 0.96752,1.8248 1.94611,3.63769 2.9375,5.4375 0.29166,0.52957 0.58132,1.06634 0.875,1.59375 0.58396,1.04851 1.18943,2.08501 1.78125,3.125 0.71692,1.26006 1.42807,2.53367 2.15625,3.78125 0.17593,0.30136 0.35467,0.60562 0.53125,0.90625 0.35094,0.59758 0.70903,1.18654 1.0625,1.78125 0.56045,0.94277 1.1208,1.87693 1.6875,2.8125 0.92505,1.52718 1.87125,3.05446 2.8125,4.5625 0.69783,1.11813 1.38729,2.23612 2.09375,3.34375 1.19958,1.88064 2.40143,3.74327 3.625,5.59375 0.20653,0.31239 0.4178,0.62597 0.625,0.9375 0.76661,1.15245 1.53697,2.29676 2.3125,3.4375 0.23542,0.34633 0.48252,0.686 0.71875,1.03125 0.75298,1.10034 1.52025,2.19184 2.28125,3.28125 1.00037,1.43207 1.98628,2.86803 3,4.28125 0.15623,0.21782 0.31221,0.43887 0.46875,0.65625 0.18264,0.25359 0.37944,0.49702 0.5625,0.75 1.3127,1.81435 2.63523,3.62311 3.96875,5.40625 1.30564,1.74586 2.61306,3.47144 3.9375,5.1875 0.12181,0.15782 0.25304,0.31118 0.375,0.46875 0.09545,0.12331 0.18575,0.25184 0.28125,0.375 0.95518,1.23127 1.91069,2.44033 2.875,3.65625 1.06147,1.33843 2.14677,2.68012 3.21875,4 1.10505,1.3606 2.19689,2.72155 3.3125,4.0625 L 300,300 2,2 z"
       id="path3512" />
    <path
       style="fill:#ffdd00;fill-opacity:1;display:inline"
       d="m 300,300 206.875,206.875 c 1.11561,-1.34095 2.20745,-2.7019 3.3125,-4.0625 1.07198,-1.31988 2.15728,-2.66157 3.21875,-4 0.96431,-1.21592 1.91982,-2.42498 2.875,-3.65625 0.0955,-0.12316 0.1858,-0.25169 0.28125,-0.375 0.12196,-0.15757 0.25319,-0.31093 0.375,-0.46875 1.32444,-1.71606 2.63186,-3.44164 3.9375,-5.1875 1.33352,-1.78314 2.65605,-3.5919 3.96875,-5.40625 0.18306,-0.25298 0.37986,-0.49641 0.5625,-0.75 0.15654,-0.21738 0.31252,-0.43843 0.46875,-0.65625 1.01372,-1.41322 1.99963,-2.84918 3,-4.28125 0.761,-1.08941 1.52827,-2.18091 2.28125,-3.28125 0.23623,-0.34525 0.48333,-0.68492 0.71875,-1.03125 0.77553,-1.14074 1.54589,-2.28505 2.3125,-3.4375 0.2072,-0.31153 0.41847,-0.62511 0.625,-0.9375 1.22357,-1.85048 2.42542,-3.71311 3.625,-5.59375 0.70646,-1.10763 1.39592,-2.22562 2.09375,-3.34375 0.94125,-1.50804 1.88745,-3.03532 2.8125,-4.5625 0.5667,-0.93557 1.12705,-1.86973 1.6875,-2.8125 0.35347,-0.59471 0.71156,-1.18367 1.0625,-1.78125 0.17658,-0.30063 0.35532,-0.60489 0.53125,-0.90625 0.72818,-1.24758 1.43933,-2.52119 2.15625,-3.78125 0.59182,-1.03999 1.19729,-2.07649 1.78125,-3.125 0.29368,-0.52741 0.58334,-1.06418 0.875,-1.59375 0.99139,-1.79981 1.96998,-3.6127 2.9375,-5.4375 0.73738,-1.39097 1.46442,-2.78197 2.1875,-4.1875 0.50175,-0.97511 1.00528,-1.95537 1.5,-2.9375 0.32713,-0.64965 0.64474,-1.31602 0.96875,-1.96875 0.81592,-1.64327 1.64175,-3.30592 2.4375,-4.96875 0.53186,-1.11139 1.03987,-2.2236 1.5625,-3.34375 0.25812,-0.55337 0.52541,-1.10074 0.78125,-1.65625 0.41945,-0.91058 0.83676,-1.83366 1.25,-2.75 0.34919,-0.77455 0.68655,-1.56508 1.03125,-2.34375 0.76304,-1.72323 1.54065,-3.44404 2.28125,-5.1875 0.72019,-1.69587 1.42658,-3.40994 2.125,-5.125 0.34302,-0.8422 0.69358,-1.68441 1.03125,-2.53125 0.35918,-0.90098 0.70945,-1.81251 1.0625,-2.71875 0.65411,-1.6788 1.3048,-3.36562 1.9375,-5.0625 0.0309,-0.0829 0.063,-0.16709 0.0937,-0.25 0.94517,-2.54053 1.85421,-5.10633 2.75,-7.6875 0.35979,-1.03679 0.71086,-2.08164 1.0625,-3.125 0.54786,-1.62557 1.09726,-3.26468 1.625,-4.90625 0.0631,-0.19643 0.12466,-0.39709 0.1875,-0.59375 0.61152,-1.91329 1.19766,-3.84621 1.78125,-5.78125 0.47033,-1.55951 0.92318,-3.11382 1.375,-4.6875 0.0666,-0.23205 0.15254,-0.45515 0.21875,-0.6875 0.0531,-0.18626 0.10343,-0.37604 0.15625,-0.5625 0.47987,-1.69427 0.94824,-3.41434 1.40625,-5.125 0.50928,-1.9021 1.01829,-3.82758 1.5,-5.75 0.14604,-0.58283 0.29403,-1.1653 0.4375,-1.75 0.12256,-0.49956 0.22307,-0.99907 0.34375,-1.5 0.22171,-0.92031 0.44094,-1.82507 0.65625,-2.75 0.15886,-0.68244 0.31341,-1.37754 0.46875,-2.0625 0.16993,-0.74911 0.36556,-1.49788 0.53125,-2.25 0.0981,-0.44534 0.18466,-0.89735 0.28125,-1.34375 0.21589,-0.9976 0.41663,-1.99711 0.625,-3 0.20172,-0.97099 0.39915,-1.9303 0.59375,-2.90625 0.0948,-0.47553 0.18812,-0.96079 0.28125,-1.4375 0.2955,-1.51321 0.59681,-3.03739 0.875,-4.5625 0.25981,-1.42374 0.50549,-2.84711 0.75,-4.28125 0.0989,-0.58038 0.18486,-1.16792 0.28125,-1.75 0.30268,-1.82766 0.59753,-3.6555 0.875,-5.5 0.0299,-0.1985 0.0643,-0.39506 0.0937,-0.59375 0.0553,-0.3718 0.10196,-0.75252 0.15625,-1.125 0.0409,-0.28057 0.0847,-0.56279 0.125,-0.84375 0.17551,-1.22348 0.36697,-2.45665 0.53125,-3.6875 0.0236,-0.17655 0.0392,-0.35455 0.0625,-0.53125 0.0562,-0.42554 0.10142,-0.85483 0.15625,-1.28125 0.11791,-0.9174 0.23213,-1.82853 0.34375,-2.75 0.18515,-1.52849 0.3636,-3.08527 0.53125,-4.625 0.0464,-0.42607 0.08,-0.85432 0.125,-1.28125 0.0904,-0.85697 0.19634,-1.70205 0.28125,-2.5625 0.20803,-2.108 0.38772,-4.24609 0.5625,-6.375 0.14153,-1.72394 0.28686,-3.44981 0.40625,-5.1875 0.0278,-0.40491 0.0671,-0.8131 0.0937,-1.21875 0.0461,-0.70289 0.0826,-1.41986 0.125,-2.125 0.009,-0.15652 0.0222,-0.31212 0.0312,-0.46875 0.0843,-1.42942 0.14957,-2.84261 0.21875,-4.28125 0.0319,-0.66343 0.0652,-1.3346 0.0937,-2 0.0598,-1.38634 0.11068,-2.76137 0.15625,-4.15625 0.0378,-1.15813 0.0658,-2.33597 0.0937,-3.5 0.0249,-1.03788 0.0455,-2.08243 0.0625,-3.125 0.009,-0.58191 0.0244,-1.16662 0.0312,-1.75 C 597.989,262.27575 598,260.64195 598,259 L 598,2 300,300 z"
       id="background" />
    <use
       x="0"
       y="0"
       xlink:href="#g3139"
       id="use3233"
       transform="translate(17.219203,346.13703)"
       width="600"
       height="660" />
    <g
       transform="matrix(1.44,0,0,1.44,526.14578,-274.18178)"
       id="g3235"
       style="display:inline">
      <path
         style="fill:#aa00aa;fill-opacity:1;stroke:#000000;stroke-width:0.90277773;stroke-miterlimit:4;stroke-opacity:1;stroke-dasharray:none;display:inline"
         inkscape:connector-curvature="0"
         d="m -348.42982,368.27364 c 0.30592,0.5743 1.71533,10.67651 12.83968,11.22649 8.20615,0.4057 11.49317,-5.73268 22.84728,-8.14735 9.82583,-2.52263 24.14851,0.50295 34.07593,1.00405 l -0.24043,3.92171 c -7.64816,-0.40985 -23.80789,-3.18519 -30.43433,-1.76433 -13.81123,3.1867 -15.87841,12.00091 -28.75192,10.61975 -10.79101,-1.15775 -11.82227,-13.15485 -10.33621,-16.86032 z"
         class="fil1 str8"
         id="path3237"
         sodipodi:nodetypes="csccccsc" />
      <path
         inkscape:connector-curvature="0"
         style="fill:#aa00aa;fill-opacity:1;stroke:#000000;stroke-width:0.90277773;stroke-miterlimit:4;stroke-opacity:1;stroke-dasharray:none;display:inline"
         d="m -252.5851,321.78134 c -4.55905,5.7268 -12.42726,8.5552 -22.18562,10.47695 -11.77503,1.85384 -14.31543,1.16617 -25.44644,1.84405 -10.40746,0.98127 -15.1145,3.36519 -21.30917,11.75921 4.42454,9.66366 15.7937,17.09159 28.64403,22.08259 4.03995,0.29113 8.37416,4.6444 7.45047,9.92254 l -5.59933,1.04195 c 0.69929,1.43341 3.53371,5.71324 4.5119,7.8864 0.92288,3.3436 0.52507,7.32773 -1.64114,11.27669 -2.58044,4.91226 -8.53078,11.43977 -17.68804,14.60287 2.32092,1.62131 6.62174,3.10249 12.38655,1.40666 -6.97333,4.38365 -14.10394,17.309 -22.26058,16.83949 2.87874,6.50582 11.89767,8.03868 15.9091,4.38457 -3.10132,12.96599 -12.91487,16.48732 -20.40627,22.6872 6.92164,0.11774 20.41814,1.93456 29.37234,-7.45641 2.45594,5.55868 1.18877,11.44312 -1.26735,17.43157 10.1411,-2.46173 15.05494,-10.40117 19.83053,-18.4855 3.3527,5.72156 9.76131,13.7702 21.24246,17.59572 -3.93872,-6.58788 -6.25065,-13.31807 -2.36499,-18.72263 5.79854,8.62922 16.43604,13.41092 24.31442,11.94258 -6.82391,-7.04391 -9.1071,-14.53449 -11.80325,-24.63066 0,0 6.9961,5.3493 14.21759,2.11895 -6.05653,-4.07655 -10.24949,-18.7939 -14.09107,-25.60588 3.20057,3.34373 10.83783,5.88711 15.89224,2.04947 -6.33634,-4.52558 -16.94055,-16.37111 -16.18432,-27.71668 3.0757,0.99536 10.57573,4.37402 15.11795,-6.16032 -15.03241,2.62177 -10.00542,-14.48919 -22.24377,-23.83521 3.36847,1.79601 13.04791,10.70744 18.32855,-4.40279 -16.93306,1.88636 -13.46982,-12.19983 -29.93395,-13.69221 3.65136,-2.15159 10.34451,-9.84467 7.20746,-16.64076 z"
         id="path3239"
         sodipodi:nodetypes="ccccccccccccccccccccccccccccccc" />
      <path
         style="fill:#e6e6e6;stroke:#000000;stroke-width:0.90277773;stroke-miterlimit:4;stroke-opacity:1;stroke-dasharray:none;display:inline"
         inkscape:connector-curvature="0"
         d="m -291.0425,364.54302 c 4.66583,-0.24861 8.05587,0.52804 10.02259,2.35508 2.05769,1.92704 3.62414,3.96494 4.69892,6.11279 1.30652,3.06971 1.85587,5.85702 1.50693,8.29901 0.34894,-2.44199 -0.20041,-5.2293 -1.50693,-8.29901 -1.07478,-2.14785 -2.64083,-4.18579 -4.69892,-6.11279 -1.96672,-1.82704 -5.35676,-2.60372 -10.02259,-2.35508 z"
         class="fil2 str6"
         id="path3241" />
      <path
         style="fill:#aa00aa;fill-opacity:1;stroke:#000000;stroke-width:0.90277773;stroke-miterlimit:4;stroke-opacity:1;stroke-dasharray:none;display:inline"
         inkscape:connector-curvature="0"
         d="m -321.13166,345.75949 c -10.97379,2.54317 -28.01818,16.09315 -11.41412,23.86808 -0.21599,-1.89434 -0.0298,-3.4289 0.438,-4.64265 0.78264,-1.6789 2.16801,-2.81861 4.27554,-3.37849 3.85258,-1.58042 8.69794,0.54299 14.10654,3.69091 5.14899,3.33072 14.24528,1.90295 20.85074,2.64689 2.41487,-7.30341 -20.56758,-13.16952 -28.2567,-22.18474 z"
         class="fil1 str8"
         id="path3243" />
      <path
         style="fill:#ffffff;stroke:#000000;stroke-width:0.90277773;stroke-miterlimit:4;stroke-opacity:1;stroke-dasharray:none;display:inline"
         inkscape:connector-curvature="0"
         d="m -306.692,347.15042 c 4.2781,-1.68401 12.73954,1.21315 18.06736,-1.61024 -1.3884,3.20648 -2.06395,8.04003 -11.65476,8.54682 -4.96589,0.21433 -8.51054,-3.03455 -6.41261,-6.93662 z"
         class="fil6 str6"
         id="path3245" />
      <path
         style="fill:#e6e6e6;stroke:#000000;stroke-width:0.90277773;stroke-miterlimit:4;stroke-opacity:1;stroke-dasharray:none;display:inline"
         inkscape:connector-curvature="0"
         d="m -306.00969,346.93115 c -1.85852,0.30106 -3.20636,0.77451 -4.14947,1.38366"
         class="fil2 str6"
         id="path3247" />
      <path
         style="fill:#e6e6e6;stroke:#000000;stroke-width:0.90277773;stroke-miterlimit:4;stroke-opacity:1;stroke-dasharray:none;display:inline"
         inkscape:connector-curvature="0"
         d="m -302.41944,347.14263 c -1.68045,0.23027 -2.85701,1.7714 -2.62753,3.44232 0.22896,1.67045 1.77697,2.8379 3.45738,2.60714 1.68029,-0.23068 2.85683,-1.7719 2.6274,-3.44231 -0.22896,-1.67045 -1.77712,-2.83787 -3.45725,-2.60715 z"
         class="fil4"
         id="path3249" />
      <path
         style="fill:#000000;stroke:#000000;stroke-width:0.90277773;stroke-miterlimit:4;stroke-opacity:1;stroke-dasharray:none;display:inline"
         inkscape:connector-curvature="0"
         d="m -303.30901,348.71451 c -0.86748,0.11903 -1.47504,0.91476 -1.35691,1.77706 0.11904,0.86275 0.91816,1.46533 1.78549,1.34627 0.8676,-0.11903 1.4746,-0.91474 1.3565,-1.77702 -0.11904,-0.86276 -0.91748,-1.46539 -1.78508,-1.34631 z"
         class="fil0"
         id="path3251" />
      <path
         style="fill:#e6e6e6;stroke:#000000;stroke-width:0.90277773;stroke-miterlimit:4;stroke-opacity:1;stroke-dasharray:none;display:inline"
         inkscape:connector-curvature="0"
         d="m -268.74183,382.54495 c 2.08403,1.495 3.34447,3.08573 3.78269,4.77213 1.86899,-2.56443 2.12093,-5.40396 0.72467,-8.38997 1.39626,2.98601 1.14481,5.82498 -0.72467,8.38997 -0.43822,-1.6864 -1.69866,-3.27713 -3.78269,-4.77213 z"
         class="fil2 str6"
         id="path3253" />
      <path
         style="fill:#e6e6e6;stroke:#000000;stroke-width:0.90277773;stroke-miterlimit:4;stroke-opacity:1;stroke-dasharray:none;display:inline"
         inkscape:connector-curvature="0"
         d="m -255.76899,395.49614 c 1.98363,1.61647 3.19375,3.46913 3.67117,5.62236 1.50888,-2.5998 1.97171,-5.2487 1.24441,-7.78504 0.7273,2.53634 0.26451,5.18523 -1.24441,7.78504 -0.47742,-2.15323 -1.68754,-4.00589 -3.67117,-5.62236 z"
         class="fil2 str6"
         id="path3255"
         sodipodi:nodetypes="ccccc" />
      <path
         style="fill:#e6e6e6;stroke:#000000;stroke-width:0.90277773;stroke-miterlimit:4;stroke-opacity:1;stroke-dasharray:none;display:inline"
         inkscape:connector-curvature="0"
         d="m -284.84112,441.64394 c -2.45567,1.66152 -3.96254,3.45962 -4.52207,5.39442 -2.07816,-3.02327 -2.27851,-6.31191 -0.5705,-9.7175 -1.70801,3.40559 -1.50821,6.69428 0.5705,9.7175 0.55953,-1.9348 2.0664,-3.7329 4.52207,-5.39442 z"
         class="fil2 str6"
         id="path3257" />
      <path
         style="fill:#e6e6e6;stroke:#000000;stroke-width:0.90277773;stroke-miterlimit:4;stroke-opacity:1;stroke-dasharray:none;display:inline"
         inkscape:connector-curvature="0"
         d="m -266.92773,438.95735 c 2.33378,1.21982 3.93582,2.8381 4.86234,4.90992 0.98416,-2.93256 0.9039,-5.69824 -0.35364,-8.10552 1.25754,2.40728 1.3378,5.17296 0.35364,8.10552 -0.92652,-2.07182 -2.52856,-3.6901 -4.86234,-4.90992 z"
         class="fil2 str6"
         id="path3259"
         sodipodi:nodetypes="ccccc" />
      <path
         style="fill:none;stroke:#000000;stroke-width:0.90277773;stroke-miterlimit:4;stroke-opacity:1;stroke-dasharray:none;display:inline"
         inkscape:connector-curvature="0"
         d="m -265.93038,407.48047 c -0.54056,2.18121 -3.12748,7.0756 1.59436,11.48853 0.28493,-1.56005 -0.42383,-1.99256 3.00584,-7.11918 m -4.6002,-4.36935 0,0 z"
         class="fil2 str6"
         id="path3261"
         sodipodi:nodetypes="cccccc" />
      <path
         style="fill:#e6e6e6;stroke:#000000;stroke-width:0.90277773;stroke-miterlimit:4;stroke-opacity:1;stroke-dasharray:none;display:inline"
         inkscape:connector-curvature="0"
         d="m -260.57979,347.49821 c 2.11174,4.55494 1.64705,7.33932 -1.50995,8.56927 3.157,-1.22995 3.62169,-4.01433 1.50995,-8.56927 z"
         class="fil2 str6"
         id="path3263" />
      <path
         style="fill:#e6e6e6;stroke:#000000;stroke-width:0.90277773;stroke-miterlimit:4;stroke-opacity:1;stroke-dasharray:none;display:inline"
         inkscape:connector-curvature="0"
         d="m -267.30005,347.3357 c 3.41242,5.27269 3.0435,8.12034 -1.04801,8.43461 4.09151,-0.31418 4.46043,-3.16192 1.04801,-8.43461 z"
         class="fil2 str6"
         id="path3265" />
      <path
         style="fill:#e6e6e6;stroke:#000000;stroke-width:0.90277773;stroke-miterlimit:4;stroke-opacity:1;stroke-dasharray:none;display:inline"
         inkscape:connector-curvature="0"
         d="m -281.65282,414.70446 c -3.58076,2.83265 -5.07358,5.93451 -4.58211,9.35411 1.04255,-1.16236 2.29299,-1.74573 3.89014,-1.62636 -1.98224,2.27626 -2.70222,4.47734 -2.20819,6.54382 -0.49403,-2.06648 0.22649,-4.26761 2.20819,-6.54382 -1.59715,-0.11937 -2.8476,0.46393 -3.89014,1.62636 -0.49155,-3.41959 1.00135,-6.52146 4.58211,-9.35411 z"
         class="fil2 str6"
         id="path3267" />
      <path
         style="fill:none;stroke:#000000;stroke-width:0.90277773;stroke-miterlimit:4;stroke-opacity:1;stroke-dasharray:none;display:inline"
         inkscape:connector-curvature="0"
         d="m -251.23748,416.93845 c 0.91106,2.05366 4.30861,6.42502 0.42523,11.59081 -0.55191,-1.48685 0.0709,-2.03636 -4.19668,-6.48906 m 3.77145,-5.10175 0,0 z"
         class="fil2 str6"
         id="path3269"
         sodipodi:nodetypes="cccccc" />
      <path
         style="fill:none;stroke:#000000;stroke-width:0.90277773;stroke-miterlimit:4;stroke-opacity:1;stroke-dasharray:none;display:inline"
         inkscape:connector-curvature="0"
         d="m -281.18799,394.52039 c -0.42789,1.72474 -2.47323,5.5959 1.26101,9.0857 0.22541,-1.2336 -0.33541,-1.57584 2.37685,-5.63015 m -3.63786,-3.45555 0,0 0,0 z"
         class="fil2 str6"
         id="path3271" />
      <path
         style="fill:none;stroke:#000000;stroke-width:0.90277773;stroke-miterlimit:4;stroke-opacity:1;stroke-dasharray:none;display:inline"
         inkscape:connector-curvature="0"
         d="m -253.78786,364.11062 c 0.84746,1.90915 4.0051,5.97232 0.39539,10.7745 -0.51327,-1.38225 0.0657,-1.89266 -3.90121,-6.03197 m 3.50582,-4.74253 0,0 0,0 z"
         class="fil2 str6"
         id="path3273" />
      <path
         style="fill:#aa00aa;fill-opacity:1;stroke:#000000;stroke-width:0.90277773;stroke-linejoin:round;stroke-miterlimit:4;stroke-opacity:1;stroke-dasharray:none;display:inline"
         inkscape:connector-curvature="0"
         d="m -317.13559,379.1917 c -1.09626,12.90779 23.14956,4.42378 30.60551,7.61325 l 2.03088,-8.87025 c -11.94412,-1.07945 -16.63971,7.05072 -32.63639,1.257 z"
         class="fil1 str9"
         id="path3275" />
    </g>
    <use
       x="0"
       y="0"
       xlink:href="#g3235"
       id="use3508"
       transform="translate(358.04501,0)"
       width="600"
       height="660" />
  </g>
  <g
     inkscape:groupmode="layer"
     id="layer1"
     inkscape:label="Cover"
     style="display:inline"
     sodipodi:insensitive="true">
    <path
       d="m 2,2 v 257 c 0,286 298,398 298,398 0,0 298,-112 298,-398 V 2 z"
       id="shine"
       inkscape:connector-curvature="0"
       style="fill:url(#radialGradient3074);stroke:#000000;stroke-width:3" />
  </g>
</svg>
