<?xml version="1.0" encoding="UTF-8" standalone="no"?>
<svg
   xmlns:dc="http://purl.org/dc/elements/1.1/"
   xmlns:cc="http://creativecommons.org/ns#"
   xmlns:rdf="http://www.w3.org/1999/02/22-rdf-syntax-ns#"
   xmlns:svg="http://www.w3.org/2000/svg"
   xmlns="http://www.w3.org/2000/svg"
   xmlns:xlink="http://www.w3.org/1999/xlink"
   xmlns:sodipodi="http://sodipodi.sourceforge.net/DTD/sodipodi-0.dtd"
   xmlns:inkscape="http://www.inkscape.org/namespaces/inkscape"
   width="600"
   height="660"
   id="svg2"
   version="1.1"
   inkscape:version="0.48.2 r9819"
   sodipodi:docname="House_Lychester.svg">
  <metadata
     id="metadata24">
    <rdf:RDF>
      <cc:Work
         rdf:about="">
        <dc:format>image/svg+xml</dc:format>
        <dc:type
           rdf:resource="http://purl.org/dc/dcmitype/StillImage" />
        <dc:title />
      </cc:Work>
    </rdf:RDF>
  </metadata>
  <sodipodi:namedview
     pagecolor="#ffffff"
     bordercolor="#666666"
     borderopacity="1"
     objecttolerance="10"
     gridtolerance="10"
     guidetolerance="10"
     inkscape:pageopacity="0"
     inkscape:pageshadow="2"
     inkscape:window-width="1366"
     inkscape:window-height="715"
     id="namedview22"
     showgrid="false"
     inkscape:zoom="0.5056885"
     inkscape:cx="-154.65584"
     inkscape:cy="406.02029"
     inkscape:window-x="-8"
     inkscape:window-y="-8"
     inkscape:window-maximized="1"
     inkscape:current-layer="layer2" />
  <defs
     id="defs4">
    <radialGradient
       id="rg"
       gradientUnits="userSpaceOnUse"
       cx="220"
       cy="220"
       r="405">
      <stop
         style="stop-color:#fff;stop-opacity:.3"
         offset="0"
         id="stop7" />
      <stop
         style="stop-color:#fff;stop-opacity:.2"
         offset=".2"
         id="stop9" />
      <stop
         style="stop-color:#666;stop-opacity:.1"
         offset=".6"
         id="stop11" />
      <stop
         style="stop-color:#000;stop-opacity:.13"
         offset="1"
         id="stop13" />
    </radialGradient>
    <path
       id="shield"
       d="m2,2v257c0,286 298,398 298,398c0,0 298-112 298-398V2z" />
    <radialGradient
       inkscape:collect="always"
       xlink:href="#rg-7"
       id="radialGradient3055-1"
       gradientUnits="userSpaceOnUse"
       cx="220"
       cy="220"
       r="405" />
    <radialGradient
       id="rg-7"
       gradientUnits="userSpaceOnUse"
       cx="220"
       cy="220"
       r="405">
      <stop
         style="stop-color:#fff;stop-opacity:.3"
         offset="0"
         id="stop7-4" />
      <stop
         style="stop-color:#fff;stop-opacity:.2"
         offset=".2"
         id="stop9-0" />
      <stop
         style="stop-color:#666;stop-opacity:.1"
         offset=".6"
         id="stop11-9" />
      <stop
         style="stop-color:#000;stop-opacity:.13"
         offset="1"
         id="stop13-4" />
    </radialGradient>
    <radialGradient
       r="405"
       cy="220"
       cx="220"
       gradientUnits="userSpaceOnUse"
       id="radialGradient3074"
       xlink:href="#rg-7"
       inkscape:collect="always" />
  </defs>
  <g
     inkscape:groupmode="layer"
     id="layer2"
     inkscape:label="Elements"
     style="display:inline">
    <use
       height="1052.3622"
       width="744.09448"
       y="0"
       x="0"
       style="fill:#ff8800;display:inline"
       id="background"
       xlink:href="#shield"
       transform="matrix(-1,0,0,1,600,5e-5)" />
    <path
       inkscape:connector-curvature="0"
       style="fill:#ffffff;fill-opacity:1;fill-rule:evenodd;stroke:#000000;stroke-width:1px;stroke-linecap:butt;stroke-linejoin:miter;stroke-opacity:1;display:inline"
       d="m 1.5,2.18755 0,258.53125 c 0,13.11085 0.8296735,25.73873 2.03125,38.125 l 296.15625,0 L 3.03125,2.18755 1.5,2.18755 z m 298.21875,0 0,296.65625 0,0.0312 208.3125,208.28125 c 44.22126,-53.36474 80.08046,-122.16522 88.4375,-208.3125 l -296.71875,0 296.65625,-296.65625 -296.6875,0 z m 0,296.6875 -208,207.96875 c 87.49023,105.77256 206.95763,151.13764 208,151.53125 l 0,-359.5 z"
       id="path7059" />
    <g
       style="display:inline"
       transform="matrix(0.52718023,0,0,0.52718023,103.7867,60.619642)"
       id="g2996">
      <path
         d="m 209.79944,792.44401 c -36.07639,-16.47779 -49.21095,-59.15637 -30.02842,-93.783 -9.22447,-19.07259 0.37205,-64.46701 -26.66535,-30.19789 -12.40474,26.61313 -43.10916,29.09264 -67.000518,24.21539 C 69.550423,709.4405 59.779001,738.86083 75.726099,759.02159 77.507682,784.87918 22.851554,750.46767 24.371744,727.29901 11.266328,689.59795 35.363401,656.79523 41.082201,622.08416 57.344632,582.84003 2.5231564,629.80924 4.1211609,625.43054 -8.6952382,595.45357 9.7999581,556.4476 39.999897,544.52815 c 36.98119,-34.7327 70.515253,-81.01954 123.860023,-89.75951 37.29334,-7.56166 76.41108,-1.36561 114.30398,-4.23536 41.72821,2.41365 77.94948,-23.92766 110.05703,-47.42375 35.49844,-29.28448 77.98398,-54.35341 100.57983,-95.52464 21.37836,-43.95781 34.31516,-91.14581 47.76228,-137.87121 9.53667,-40.45649 6.89198,-83.171696 18.37409,-122.958887 4.02747,-25.127157 48.41555,-69.211763 63.98895,-33.078245 12.01429,46.549664 61.42841,64.003595 98.9918,85.422431 33.19982,14.740611 29.30206,55.981561 19.6758,84.798701 -8.74247,40.74747 -41.63916,68.96087 -63.09263,103.08109 -15.15948,29.34228 -56.30101,26.99262 -73.35496,54.88148 -22.30559,26.70225 -38.6092,58.14384 -55.64775,88.27682 -16.18112,26.99459 -20.82666,76.44871 25.4806,65.34163 32.33952,-3.06977 58.4562,15.12272 84.30718,31.45291 31.98075,13.30022 45.49479,47.18975 37.43698,79.71315 4.77634,22.82664 41.41044,32.82885 47.37135,59.25496 1.40024,22.4855 5.19611,54.62053 -19.39578,65.86822 -13.05566,5.87632 -11.34432,-30.94758 -30.86081,-35.34161 -31.00684,-25.48733 -77.50623,-1.48684 -109.09997,-26.87868 -32.2387,-19.31629 -58.85048,-48.23356 -78.964,-79.71315 -32.40947,0.75321 -61.50504,18.96772 -93.44645,23.77995 -27.98857,21.47494 -39.37272,66.2143 -75.80626,81.69085 -27.66904,24.35275 -80.73978,-3.24807 -99.55724,20.90437 -6.70728,25.3414 -22.78994,54.89107 -23.1645,76.23434 z"
         id="path3184"
         style="fill:#333333"
         inkscape:connector-curvature="0" />
      <path
         d="m 203.19328,766.88445 c 1.79462,-17.59068 16.19205,-30.87512 17.83849,-48.53896 2.31647,-8.56087 9.39569,-22.23498 -1.66077,-27.54317 -13.28322,-6.28302 -29.28251,3.85161 -32.04173,17.64887 -5.65619,15.44076 -7.88027,33.51211 -1.37143,49.00873 4.82155,4.6027 10.21118,13.16189 16.56561,13.91911 0.81386,-1.33973 0.63138,-3.01262 0.66983,-4.49458 z"
         id="path3182"
         style="fill:#000000;fill-opacity:1"
         inkscape:connector-curvature="0" />
      <path
         d="m 61.312731,754.16386 c -5.305209,-6.82155 -4.25883,-15.92674 -3.435512,-23.94485 1.000741,-17.43576 8.730444,-34.58976 21.870695,-46.22419 5.377672,-5.83609 3.307928,-14.33053 2.232896,-21.34794 -0.302124,-5.49235 -1.828685,-11.27226 -6.350752,-14.83446 -4.119044,-3.68058 -9.676347,-5.14751 -15.032783,-5.57314 -4.702983,-1.99548 -10.053156,0.35193 -12.734847,4.46486 -6.325683,9.44151 -11.424033,19.89938 -13.485665,31.15526 -2.298433,12.68404 -3.071429,25.80336 -1.143824,38.58859 1.758749,10.22438 5.425939,20.56317 12.469121,28.35023 4.921425,4.41925 10.64215,7.8461 16.48616,10.89521 -0.291832,-0.50984 -0.583658,-1.01973 -0.875489,-1.52957 z"
         id="path3180"
         style="fill:#000000;fill-opacity:1"
         inkscape:connector-curvature="0" />
      <path
         d="m 724.4107,716.19145 c 6.36458,-15.58463 8.42731,-33.35258 3.91001,-49.69513 -6.31946,-15.29517 -21.37825,-23.83868 -31.80495,-35.93702 -4.61837,-6.81266 -13.42261,-9.40192 -21.284,-8.1264 -8.20265,1.21793 -16.86774,5.13461 -20.50754,13.07886 -4.38417,8.60127 -4.17529,18.47171 -5.89178,27.75075 -0.69459,4.03587 0.70951,9.43294 5.39479,10.16809 8.70094,2.52669 18.45387,-0.1424 26.60375,4.57207 14.68414,5.62194 23.87089,19.06001 34.43158,29.9229 2.55879,3.03035 3.97752,9.39211 9.14814,8.26588 z"
         id="path3178"
         style="fill:#000000;fill-opacity:1"
         inkscape:connector-curvature="0" />
      <path
         d="m 285.73163,696.11002 c 32.94195,1.95455 61.31705,-19.12378 79.4143,-44.94216 16.67336,-30.7561 35.21342,-56.64189 74.04706,-56.73293 22.03396,-5.79531 47.03407,-20.74928 69.28727,-13.01993 23.82886,35.48499 53.93277,69.99189 94.03809,87.06916 21.17804,7.9583 45.38394,8.82901 37.8157,-20.8983 -5.54256,-32.50973 36.33086,-27.02546 42.11359,-44.88278 9.50615,-31.70669 -11.53964,-58.96431 -39.63365,-70.89107 -27.68855,-21.80052 -61.22403,-27.9323 -95.87913,-27.69604 -37.39951,-3.50217 -22.43025,-52.20531 -12.57413,-74.77015 14.13591,-29.34942 32.10927,-57.20127 50.15963,-84.31273 14.88625,-24.61117 40.60062,-36.64851 65.71194,-48.09669 22.07225,-17.76019 33.94121,-45.75844 52.80248,-66.94293 21.21487,-25.02526 29.56908,-59.4126 30.69884,-91.58972 -10.75694,-14.02468 -43.23886,-10.60108 -59.19705,-24.25768 -27.18956,-15.449247 -52.11954,-35.72023 -70.80024,-61.179893 11.80362,0.91169 37.82947,41.803266 61.94411,48.894453 14.80344,6.78407 58.7308,32.01417 58.4735,14.79189 -30.13005,-22.85125 -70.65627,-32.877017 -95.529,-63.476345 -19.26889,-9.789686 -13.9043,-62.3622093 -41.37063,-35.134958 -24.23665,17.681672 -28.26281,50.998693 -30.02485,78.967049 -4.11374,42.918104 -9.9943,85.836124 -25.62388,126.252094 -9.11538,35.85595 -23.22526,70.87465 -41.19407,103.02539 -31.42222,40.40964 -75.1131,68.75197 -115.20068,99.78433 -29.46337,18.63055 -61.61812,38.65741 -97.98583,34.88188 -36.38966,2.10383 -73.71862,-2.61567 -109.59682,4.07824 -30.55815,4.97425 -56.38587,22.62625 -77.203866,44.82002 -15.47236,14.71727 -53.051757,40.11356 -24.039409,56.00196 23.390934,-16.02777 43.053215,-37.61615 68.596685,-50.30816 17.58805,-7.21702 52.55853,6.47428 15.78086,7.90949 -30.59147,4.39448 -49.7185,33.25042 -74.887884,48.72182 -20.867221,13.23726 -40.231611,66.27091 -2.92011,62.316 32.924644,7.54487 5.002993,68.52386 50.639544,46.98618 15.83991,-16.82495 42.92755,-30.56989 52.90349,-49.7121 8.0548,-32.68874 41.23147,-48.14946 66.47284,-66.11214 30.97115,-14.27635 -17.01599,29.2095 -28.36876,31.83581 -27.10298,18.00633 -38.44765,55.02203 -27.63032,85.22436 9.2658,0.61114 44.17309,-13.90127 49.28891,12.36102 16.39638,1.80916 33.01241,1.8353 49.47147,1.03556 z"
         id="path3176"
         style="fill:#000000;fill-opacity:1"
         inkscape:connector-curvature="0" />
      <path
         d="m 17.361764,599.67376 c 8.297255,-4.5302 17.808563,-6.10115 27.060629,-5.47363 4.838106,-4.76756 5.16789,-12.73985 10.345715,-17.70787 3.118866,-6.25732 -4.511689,-9.83259 -6.715573,-14.94996 -2.022762,-5.96699 -7.501999,-7.60566 -11.829257,-2.56291 -6.602277,2.38342 -9.872707,9.13366 -15.018863,13.48562 -5.818019,7.24966 -6.680591,16.91166 -10.220706,25.25307 -1.2452764,7.32255 0.136407,8.63613 6.378055,1.95568 z"
         id="path3172"
         style="fill:#000000;fill-opacity:1"
         inkscape:connector-curvature="0" />
    </g>
  </g>
  <g
     inkscape:groupmode="layer"
     id="layer1"
     inkscape:label="Cover"
     style="display:inline"
     sodipodi:insensitive="true">
    <path
       d="m 2,2 v 257 c 0,286 298,398 298,398 0,0 298,-112 298,-398 V 2 z"
       id="shine"
       inkscape:connector-curvature="0"
       style="fill:url(#radialGradient3074);stroke:#000000;stroke-width:3" />
  </g>
</svg>
