<?xml version="1.0" encoding="UTF-8"?>
<svg xmlns="http://www.w3.org/2000/svg" xmlns:xlink="http://www.w3.org/1999/xlink" width="600" height="660">
<defs>
  <radialGradient id="rg" gradientUnits="userSpaceOnUse" cx="220" cy="220" r="405">
    <stop style="stop-color:#fff;stop-opacity:.3" offset="0"/>
    <stop style="stop-color:#fff;stop-opacity:.2" offset=".2"/>
    <stop style="stop-color:#666;stop-opacity:.1" offset=".6"/>
    <stop style="stop-color:#000;stop-opacity:.13" offset="1"/>
  </radialGradient>
  <path id="shield" d="m2,2v257c0,286 298,398 298,398c0,0 298-112 298-398V2z"/>
  <pattern id="drops" patternUnits="userSpaceOnUse" x="30" y="45" width="180" height="120">
    <path id="drop" transform="scale(1)" fill="#dd0000" d="M 7.728,10.7 C 7.728,15.41 4.714,20 0,20 -4.714,20 -7.728,15.41 -7.728,10.7 -7.728,2.679 0,-8.076 0,-20 0,-8.076 7.728,2.679 7.728,10.7 Z"/>
    <use xlink:href="#drop" x="90" y="60"/>
    <use xlink:href="#drop" x="0" y="120"/>
    <use xlink:href="#drop" x="180" y="0"/>
    <use xlink:href="#drop" x="180" y="120"/>
  </pattern>
</defs>
<use xlink:href="#shield" fill="#ff9999"/>
<use xlink:href="#shield" fill="url(#drops)"/>
<rect x="250" y="50" width="100" height="560" fill="#ff9999"/>
<g style="fill:#990000;" id="body">
    <path style="fill:#dd3333;" d="m 300,339.3 c -2.1,0 -2.9,15.3 -2.8,23.1 0.7,63.8 -5.2,128.5 0.2,186.4 1.6,17.1 1,34.2 0.2,49.2 -0.4,7.9 -20.3,-4.1 -20.8,-12 -0.9,-15.9 11.9,-33.3 5.2,-48.5 -24.1,-54.7 -7.7,-62.3 -16.3,-96 -11.9,-46.9 -16.2,-100.5 -14.4,-148.8 0.9,-26.4 3.1,-35 1.5,-53.6 -1.3,-15.8 -8.2,-20.5 -12.1,-44.9 -3.8,9.7 -35.4,41.2 -44.8,57.9 -12.3,21.8 -31.3,33.9 -47.7,52.7 -5.8,6.6 -8.4,20 -17.1,21.1 -8,1 -21,-16.1 -18.7,-24 3,-10.1 15.2,-2 24.2,-17.9 12.7,-22.5 14.5,-31.2 38.7,-54.1 17.5,-16.5 24.7,-48.9 42,-65.6 11.1,-10.6 30.9,-10.1 43.6,-18.5 9.9,-6.6 20.8,-11.4 22.2,-19.7 -4.9,-2.3 -9.9,-19.8 -10.7,-29.12 -3.5,4.32 -6,-2.92 -6.2,-5.88 -0.2,-2.81 -1.1,-10.27 4.7,-7.44 -1.5,-8.91 0.3,-14.8 4.3,-21.86 5.3,-9.53 17.1,-12.55 24.8,-12.55"/>
    <path d="m 298.3,283.8 c 0.5,10.3 1.4,37.4 -0.8,45.3 -2.8,10.2 -18.1,-16.8 -21.2,-26.8 -4.5,-14.8 -7.2,-26.2 1,-25.7 5.3,0.3 20.7,0.1 21,7.2 z"/>
    <path d="m 274.9,274.1 c 3.8,1.2 21.2,4.5 22.9,0.4 2.3,-5.2 1.2,-18.6 0.2,-23.2 -1,-4.5 -22.9,-2.3 -25.6,5.2 -1.7,4.7 -2.3,16.1 2.5,17.6 z"/>
    <path d="m 274.1,251.1 c 7.2,-4.6 19.5,-3.6 22.5,-3.1 3.6,0.6 3,-14 1.6,-17.5 -1.7,-4.3 -22.2,-2.3 -24.9,5.2 -1.7,4.7 -3.4,18.1 0.8,15.4 z"/>
    <path d="m 276,229.6 c 7.2,-4.6 17.8,-3.6 20.8,-2.9 2.6,0.6 2.3,-14 1.6,-17.5 -1,-4.5 -16.9,-3.2 -23.2,6.2 -2.8,4.2 -3.4,16.9 0.8,14.2 z"/>
    <path d="m 253.7,151.8 c -3.5,-10.9 35.5,0.4 43.6,12.9 2.4,3.7 0.4,19.7 0.4,29.7 0.1,3.1 -0.4,8.7 -4,9.3 -19.1,3.3 -50.1,-2.5 -45.6,-17.4 4.3,-14.4 12.3,-13.6 5.6,-34.5 z"/>
    <path d="m 269.6,241.2 c -0.6,2.5 -3.1,26.9 -0.3,32.5 4.1,8 -14.8,-4.8 -14.6,-13 0.2,-9.8 16.5,-26.7 14.9,-19.5 z"/>
    <path d="m 253.6,253.7 c -1.3,-0.8 -0.7,-17.6 4.4,-31 4.5,-11.7 19.4,-19.7 15.9,-11.8 -3.3,7.5 -4.1,14.7 -4.4,21.9 -0.2,4.2 -5.4,6.4 -7.9,9.7 -3.6,4.9 -6.8,12 -8,11.2 z"/>
    <path d="m 251.9,232.1 c -0.5,1.4 -6.5,-9.6 -8.5,-20.4 -1.5,-8.1 3.1,-19.4 6.5,-13.2 3.9,7.4 16.6,7.3 13.3,12 -4,5.7 -8.4,11.9 -11.3,21.6 z"/>
    <path d="m 254.5,266.7 c -1.3,0.8 2.4,18.9 7.9,32.2 9.2,22.2 25.7,27.8 19.4,20.3 -7.6,-9.2 -10.9,-27.7 -11.2,-34.9 -0.2,-4.2 -3.3,-5.7 -8.6,-9.5 -5,-3.5 -6.3,-8.9 -7.5,-8.1 z"/>
    <path d="m 278.6,139 c -1.9,-1.3 -0.5,-5.1 0.5,-7.2 0.7,-1.4 2.8,-1 4.4,0.4 2.8,2.2 8,5 10.9,10.4 4.5,8.2 4.4,18.1 1.4,16.1 -8.3,-6.4 -8.7,-13.7 -17.2,-19.7 z"/>
    <path d="m 262.6,144.7 c 1.5,-3.6 10.7,-8.1 15.1,-3.8 9.3,9 13.6,16.7 7.9,13.1 -8.8,-5.6 -11.1,-5.9 -17.5,-7.4 -2.3,-0.5 -5.9,-0.9 -5.5,-1.9 z" />
    <path d="m 243.2,152.9 c 7.2,-0.9 6.4,1 7.7,5.7 2.4,8.5 -7.6,19.1 -18.1,25 -6.3,3.6 -9.7,0.9 -22.4,2.5 -3,0.5 -4.5,-3.2 -3.4,-7.9 3.7,-14.6 21.3,-23.3 36.2,-25.3 z"/>
    <path d="m 180.6,237.6 c -0.9,3.8 2.2,6.8 5.4,4.9 4,-2.2 31.4,-30.7 41.1,-49.5 2.9,-5.6 -8.9,-6.1 -14,-5.4 -3,0.4 -7.8,0 -14.4,5.7 -8,6.9 -13.7,24.8 -18.1,44.3 z"/>
    <path d="m 137.6,283.3 c -0.9,8.5 20.5,-10.8 25.6,-18 2.6,-3.8 13.6,-14.2 15.8,-32.1 0.7,-5 -3.2,-5.5 -6.6,-2.8 -3.3,2.6 -11.9,12.7 -17.4,19.6 -5.9,7.7 -16.8,28.1 -17.4,33.3 z" />
    <path d="m 204.9,237.7 c 0.6,-5.8 -7.2,-1.1 -13.6,5 -6.3,6 -7.8,2.2 -20.4,18.4 -3.5,4.6 -10.4,11.1 -15.2,18.7 -5.4,8.7 -8,18.5 -6.1,19.8 2.4,1.7 24.1,-17.1 30.1,-23.5 6.5,-7.3 24.8,-33.2 25.2,-38.4 z"/>
    <path d="m 206,226.5 c -5.7,4.9 -8.3,8.3 3,6.6 10.6,-1.6 35,-34.6 33.4,-48.5 -0.5,-4.8 -10.7,8.9 -12.4,11.5 -3,5.1 -15.4,22.9 -24,30.4 z"/>
    <path d="m 131.9,323.1 c 4.7,3.2 7.7,-0.5 11.9,-8.7 3.1,-5.8 0.8,-12.3 4.8,-23.7 2.6,-7.7 1.3,-9.4 -3.1,-5.6 -4.2,3.6 -8.7,13.3 -9,20.7 -0.3,7.3 -7.2,15.6 -4.6,17.3 z"/>
    <path d="m 137.5,287.5 c -4.7,-1.6 -12.1,6.7 -16.3,7.1 -4.9,0.6 -4.8,4.2 -4,6 2.4,4.8 7.1,5 12.3,4.1 3.5,-0.6 4.4,-4.2 6.2,-7.3 0.9,-1.8 3.7,-9.4 1.8,-9.9 z"/>
    <path d="m 133.6,307 c -1.3,-2.2 -5.7,1.5 -9.7,0.2 -7.7,-2.6 -8.2,1.4 -5.7,4.9 3.1,4.1 7.2,9.2 10.7,7.4 2,-1 6.5,-9.3 4.7,-12.5 z" />
    <path d="m 115.5,299 c -0.8,-2.3 -6.6,1.3 -10.9,1.1 -3,-0.2 -5.11,-2.4 -5.2,0.8 -0.14,5.2 7.3,6.1 11.2,5.2 5.8,-1.3 6.1,-3.6 4.9,-7.1 z"/>
    <path d="m 118.9,315.5 c -2.1,-3 -8.1,4.3 -11.4,7 -2.4,2 -10.4,6.9 -9.16,10 2.06,4.8 12.86,-5.9 15.86,-8.5 6,-4.8 6.7,-5.3 4.7,-8.5 z" />
    <path d="m 114.6,308.9 c -1.6,-3.3 -6.5,3.2 -9.9,5.9 -2.4,2 -10.33,6.2 -9.1,9.3 2.02,4.8 11.2,-4.2 14.3,-6.7 6,-4.9 6.5,-4.8 4.7,-8.5 z"/>
    <path d="m 124.7,320.8 c -3.3,-1.6 -3.3,0.1 -9.9,6.4 -2.3,2.2 -10,6.8 -8,9.5 2.2,3 8.4,-3.6 11.4,-6.1 6,-4.9 10.2,-8.1 6.5,-9.8 z" />
    <path d="m 130.8,324.5 c -3.7,-0.7 -1.9,-1 -8.5,5.3 -2.2,2.2 -7.4,6.1 -5.7,7.5 2.3,1.9 5.4,-1.2 8.4,-3.8 7.4,-6.3 10.1,-8.3 5.8,-9 z"/>
    <path d="m 287.2,384.2 c 0.9,6.2 5.7,6 7,0.7 2.5,-10.5 1.9,-31 3.6,-42.2 0.7,-4.8 -1.4,-7.6 -5.8,-9.9 -8.3,-4.5 -16.1,-8.9 -23.9,-16 -6.6,-6.2 -5.4,1.5 -3.2,4.8 13.8,20.4 19.5,42.4 22.3,62.6 z"/>
    <path d="m 271.3,451.1 c 1.6,2 4.7,5.3 6.4,0.5 2.9,-8.1 11.9,-45 6.5,-65 -5.4,-20.1 -11.2,-45.4 -16.1,-54.2 -6.9,-12.4 -7.2,-8.1 -6.6,0.4 2.1,28.2 -3.8,41.7 -2.8,62 0.9,17.2 0.4,40.7 12.6,56.3 z"/>
    <path d="m 256.9,376 c 4.6,-43.5 -1.3,-43.3 3.7,-62.8 2.3,-8.9 -2.9,-12.9 -5.4,-22.4 -5.9,-22.8 -7.5,41.4 -6.2,53.4 1.1,10.7 6.2,47.7 7.9,31.8 z"/>
    <path d="m 283.2,542.2 c 7.4,14.8 9.7,10 6.6,-1 -3.2,-10.8 -3,-16.4 -4.8,-25.9 -1.8,-9.8 -5.9,-12.1 -8.5,-31.1 -1.8,-13.6 4.2,-40.2 -8.3,-18.5 -3.3,5.7 -2.8,26.3 0.2,41.7 3.5,17.8 8.7,22.8 14.8,34.8 z"/>
    <path d="m 281.1,492 c 5.3,14 5.8,12.4 7.9,2.9 2.3,-10 1.1,-25.8 -0.3,-37 -0.8,-7.1 -1,-23.7 -7.3,-7 -2.8,7.2 -3.3,33.2 -0.3,41.1 z"/>
    <path d="m 288,515.6 c 1.6,19.6 6.1,44.8 8.5,31 1.7,-10.1 1.1,-28.6 1.3,-40.7 0.3,-24.3 -4.5,-62.5 -7,-8.2 -0.4,7.7 -3.5,9.4 -2.8,17.9 z" />
    <path d="m 287.2,440.5 c 5.6,7.6 3.1,36 8.7,23.2 2.7,-6.3 2.5,-32.8 2,-44.9 -0.4,-9.7 -7.8,-49.2 -9.5,-13.2 -0.3,7.7 -6.3,28 -1.2,34.9 z"/>
    <path d="m 298.1,567.8 c 1.8,-2.6 0.7,-10.8 -0.1,-13.7 -1,-3.6 -3.5,1 -8.3,-0.8 -1.7,-0.6 -5.1,-6.1 -7.1,-1.2 -2.1,5 -0.9,7.3 5.7,10.6 6.6,3.3 8.1,7.4 9.8,5.1 z" />
    <path d="m 293.1,593.2 c 7.3,3.5 4.9,-3.7 5,-8.5 0.1,-12.7 -0.3,-12.8 -8.2,-18.2 -2.8,-1.9 -9.6,-7.4 -10.5,-2.2 -2.8,15.5 -5.4,16.7 3.8,23.4 6,4.3 7.3,4.3 9.9,5.5 z"/>
    <path d="m 292.7,594.3 c 1.7,0 3.7,0.4 4.5,1.6 1.2,1.8 1.9,10.2 -0.1,11.9 -1.3,1.1 -2.8,0.2 -4.3,-0.4 -2.7,-1.2 -3,-13.1 -0.1,-13.1 z"/>
    <path d="m 288.7,592.1 c 2.4,1.3 1.3,3.7 1.1,8.7 0,1.1 0.9,4.2 -1.3,3.3 -2.8,-1.1 -3.1,-6 -2.7,-10.1 0.3,-2.9 2,-2.4 2.9,-1.9 z"/>
    <path d="m 283.8,589 c 3.5,1.3 0.4,2.8 1.1,7.7 0.3,2.4 0.9,4.4 -1.3,3.5 -2.8,-1.2 -2.4,-3.9 -1.7,-8.9 0.4,-2.8 0.9,-2.7 1.9,-2.3 z" />
    <path d="m 280.7,587.5 c 2.4,1.3 0.4,1.7 0,6.7 -0.1,1.6 0.2,3.6 -1.6,2.5 -1.6,-0.9 -0.8,-4.1 -0.4,-8.2 0.3,-2.9 1.1,-1.5 2,-1 z"/>
    <path d="m 277.5,583.9 c 0.9,1.4 0.7,1.6 0.3,5.7 -0.1,1 0.1,2.6 -1.2,2.1 -1.6,-0.8 -1.4,-4.1 -1,-6.1 0.4,-1.3 0.9,-3.1 1.9,-1.7 z"/>
    <path d="m 300,130.5 c -7.1,0 -10.8,-1.6 -13.7,-1.8 -4.3,-0.3 -2.1,2.5 -0.3,3.4 11.7,6 11.9,14.5 14,14.5"/>
    <path d="m 295.2,124.7 c -0.1,6.5 -5.2,3.6 -11.3,1.9 -4.6,-1.2 -8.4,-11 -9.3,-16.3 -0.4,-2.7 1.3,-3.9 3.7,-2.6 16.3,9.3 17,5.2 16.9,17 z"/>
    <path d="m 300,86.7 c -2.6,0 -5.8,7.12 -5.1,11.88 0.4,2.92 2.5,3.72 5.1,3.72"/>
    <path d="m 300,104.4 c -2.6,0 -6.8,-0.2 -9.2,2.6 -2.2,2.6 1.7,1.3 3.8,1.3 1.6,0.1 4.3,0.3 5.4,0.3" />
    <path d="m 300,113.8 c -2.6,0 -5.9,0.4 -8.1,-2.5 -1.8,-2.4 5.5,-0.9 8.1,-0.9"/>
    <path d="m 300,115.7 c -5.5,0 -4.5,2.1 -3.8,6.9 0.4,2.9 1.2,6.4 3.8,6.4" />
    <path d="m 290.9,104.2 c -3.6,8.7 -6.8,3.1 -12.9,1.4 -4.6,-1.2 -5.1,-4.7 -6,-9.98 -0.4,-2.7 4.7,-3.07 7.3,-2.07 11.7,4.58 15.4,1.35 11.6,10.65 z" />
    <path d="m 275.9,66.24 c -1.4,-5.33 -6.5,4.9 -5.8,9.7 0.4,2.9 0.1,9.88 4.9,13.21 6.6,4.53 7.9,3.96 0.9,-22.91 z"/>
    <path d="m 269.9,85.29 c -1.1,-5.39 -7,-1.22 -3.8,6.9 1.1,2.72 1.3,7.27 3.8,6.4 2.5,-0.88 1,-8.58 0,-13.3 z"/>
    <path d="m 298.9,55.81 c 0.5,-7.86 -3.8,-7.1 -9.7,-5.06 -2.7,0.94 -12.6,4.76 -11.8,10.57 1.8,12.47 3.9,15.93 8.7,13.72 11.5,-5.24 11.9,-4.8 12.8,-19.23 z" />
    <path d="m 300,84.72 c -2.4,0 -2.6,-4.18 -3.9,-5.95 -1.7,-2.23 -4.2,-3.4 -2.6,-5.65 1.9,-2.72 3.9,-2.75 6.5,-2.75"/>
    <path d="m 289.5,93.77 c -2.6,-0.14 -4.8,-1.45 -7,-4.35 -1.8,-2.4 3.8,-1.75 6.4,-1.89 3.4,-0.18 7.5,-2.91 7.3,-0.39 -0.4,3.91 -4.3,6.77 -6.7,6.63 z" />
    <path d="m 288.6,77.56 c 4.4,-0.1 4.8,-0.39 6.7,4.27 1.1,2.77 -3.8,3.77 -6.4,3.94 -3.4,0.22 -6.5,0.89 -7.3,-1.51 -1.6,-4.86 3.3,-6.65 7,-6.7 z"/>
</g>
<use xlink:href="#body" transform="translate(600,0)scale(-1,1)"/>
<use id="shine" xlink:href="#shield" fill="url(#rg)" stroke="#000" stroke-width="3"/>
</svg>
