<?xml version="1.0" encoding="UTF-8"?>
<svg xmlns="http://www.w3.org/2000/svg" xmlns:xlink="http://www.w3.org/1999/xlink" width="600" height="600">
<defs>
  <radialGradient id="rg" gradientUnits="userSpaceOnUse" cx="220" cy="220" r="405">
    <stop style="stop-color:#fff;stop-opacity:.3" offset="0"/>
    <stop style="stop-color:#fff;stop-opacity:.2" offset=".2"/>
    <stop style="stop-color:#666;stop-opacity:.1" offset=".6"/>
    <stop style="stop-color:#000;stop-opacity:.13" offset="1"/>
  </radialGradient>
  <pattern id="bg" patternUnits="userSpaceOnUse" x="0" y="0" width="600" height="600">
    <rect style="fill:#cc0000;" width="600" height="600"/>
    <path style="fill:#000000;" d="M 0,0 V 300 H 600 V 600 z M 600,0 H 300 V 600 H 0 z"/>
  </pattern>
  <circle id="shield" cx="300" cy="300" r="298"/>
</defs>
<use id="background" xlink:href="#shield" style="fill:url(#bg);"/>
<g style="fill:#ffdd00;stroke:url(#bg);stroke-width:2;stroke-linecap:round;stroke-linejoin:round;">
  <path d="m 358.30167,253.61588 c 1.27776,-4.09401 3.11329,-14.99933 4.16166,-17.8921 2.66233,-7.34611 24.82047,-18.61536 31.0256,-16.54699 6.20513,2.06838 -2.06837,20.68374 -2.06837,28.95725 0,8.27349 10.34187,31.02559 10.34187,41.36747 0,10.34187 -2.31771,61.96811 -2.31771,76.44673 0,14.47861 -18.61538,25.39276 -22.75212,37.80302 -4.13675,12.41023 -16.29765,20.60062 -18.36603,37.1476 -4.30527,20.36382 -2.60512,21.1846 1.5147,44.79767 -1.10852,4.87719 -89.52415,20.24037 -127.8688,-2.18339 4.12669,-17.82526 4.49645,-27.50738 1.25635,-51.46899 -11.5311,-22.71206 -17.55075,-41.89476 -23.40098,-57.98294 -5.85025,-16.08817 -10.23792,-49.63108 -10.23792,-62.79413 0,-13.16304 3.10028,-69.224 0.48033,-82.20633 -6.75897,-33.49191 6.83247,-45.76777 14.14528,-45.76777 15.78306,5.6431 11.54677,26.89914 12.43175,43.14556 2.45242,12.73559 1.47045,19.97583 4.94153,49.80057 -2.19516,-16.42304 -0.55272,-27.53881 -1.03418,-44.85905 1.52342,-22.93499 -0.14693,-20.64184 1.4106,-40.92127 1.96115,-19.54153 -4.48059,-69.50458 19.6926,-74.44363 16.0946,-3.63189 17.61979,32.8947 17.40374,59.96501 2.01574,11.62922 2.08036,24.47749 1.46257,38.75787 0.75196,16.97435 0.60895,24.4433 0.73128,40.22044 0.45678,-16.33405 -1.20587,-30.15294 0.42837,-47.88812 1.75429,-20.51203 3.75206,-23.74243 2.74768,-45.91477 1.46255,-8.77536 -2.27627,-56.96639 22.86866,-56.53801 20.27763,6.72438 12.27214,33.88014 13.44442,57.46826 0,17.60485 0.90084,29.0795 0.30292,48.64092 0,0 -0.0882,21.33531 -1.76548,42.79961 1.69641,-22.11831 0.81778,-28.71263 1.50067,-43.4413 2.38544,-17.57863 2.55354,-17.21147 4.31134,-33.93123 -0.32824,-50.124 11.02821,-55.36874 19.05154,-55.01972 19.94122,0.86747 18.28201,30.71379 18.28201,59.96502 1.46256,10.59177 0.73127,22.37596 0,38.64183 0,9.17981 5.87412,33.87491 5.87412,33.87491 z"/>
  <path style="fill:none;stroke:#c00;" d="m 225.46384,276.97464 c -7.60666,4.56401 -10.64933,6.08534 -18.256,7.60666 m 56.28931,-23.07647 c -10.64931,1.52132 -16.73465,6.08532 -22.81999,7.60666 m 60.85334,-10.64933 c -9.12802,-1.52132 -12.17067,-1.52132 -19.77734,0 m 65.41731,1.77781 c -12.17067,-4.564 -19.77732,-6.08532 -28.90533,-4.564 m 31.37094,180.89341 c -13.09616,3.21139 -36.61912,-2.1273 -42.69116,-12.23524 m -30.61835,9.24787 c 0,0 -18.8786,2.25916 -31.14647,-2.73131"/>
  <path style="fill:none;stroke:#c00;" d="m 358.06214,253.77659 c -3.5897,14.90587 2.23508,26.22202 2.23508,34.49553 0,8.27348 -6.20511,45.50421 -6.20511,45.50421 l 2.06836,-14.47861 c 0,0 -28.95723,2.06838 -39.2991,10.34186 -10.34187,8.2735 -22.7521,47.5726 -18.61536,74.46147"/>
</g>
<use id="shine" xlink:href="#shield" fill="url(#rg)" stroke="#000" stroke-width="3"/>
</svg>
