<?xml version="1.0" encoding="UTF-8" standalone="no"?>
<svg
   xmlns:dc="http://purl.org/dc/elements/1.1/"
   xmlns:cc="http://creativecommons.org/ns#"
   xmlns:rdf="http://www.w3.org/1999/02/22-rdf-syntax-ns#"
   xmlns:svg="http://www.w3.org/2000/svg"
   xmlns="http://www.w3.org/2000/svg"
   xmlns:xlink="http://www.w3.org/1999/xlink"
   xmlns:sodipodi="http://sodipodi.sourceforge.net/DTD/sodipodi-0.dtd"
   xmlns:inkscape="http://www.inkscape.org/namespaces/inkscape"
   width="600"
   height="660"
   id="svg2"
   version="1.1"
   inkscape:version="0.48.2 r9819"
   sodipodi:docname="House_Rollingford.svg">
  <metadata
     id="metadata19">
    <rdf:RDF>
      <cc:Work
         rdf:about="">
        <dc:format>image/svg+xml</dc:format>
        <dc:type
           rdf:resource="http://purl.org/dc/dcmitype/StillImage" />
        <dc:title />
      </cc:Work>
    </rdf:RDF>
  </metadata>
  <defs
     id="defs17">
    <radialGradient
       inkscape:collect="always"
       xlink:href="#rg"
       id="radialGradient4153"
       gradientUnits="userSpaceOnUse"
       cx="220"
       cy="220"
       r="405" />
    <clipPath
       clipPathUnits="userSpaceOnUse"
       id="clipPath5195">
      <path
         style="fill:#ffff00;stroke:none;stroke-width:3"
         id="path5197"
         d="m 2,2 0,257 c 0,286 298,398 298,398 0,0 298,-112 298,-398 L 598,2 Z"
         inkscape:connector-curvature="0" />
    </clipPath>
    <clipPath
       clipPathUnits="userSpaceOnUse"
       id="clipPath5277">
      <path
         style="fill:#1a1a1a;stroke:none;stroke-width:3"
         id="path5279"
         d="m 599.72861,332.73456 0,257 c 0,286 -298,398 -298,398 0,0 -298,-112 -298,-398 l 0,-257 z"
         inkscape:connector-curvature="0" />
    </clipPath>
    <clipPath
       clipPathUnits="userSpaceOnUse"
       id="clipPath5289">
      <path
         style="fill:#dc143c;fill-opacity:1;stroke:none;stroke-width:3"
         id="path5291"
         d="m 2,2 0,257 c 0,286 298,398 298,398 0,0 298,-112 298,-398 L 598,2 Z"
         inkscape:connector-curvature="0" />
    </clipPath>
    <clipPath
       clipPathUnits="userSpaceOnUse"
       id="clipPath5469">
      <path
         style="fill:#964b00;fill-opacity:1;stroke:none;stroke-width:3"
         id="path5471"
         d="m 2,2 0,257 c 0,286 298,398 298,398 0,0 298,-112 298,-398 L 598,2 Z"
         inkscape:connector-curvature="0" />
    </clipPath>
    <pattern
       patternUnits="userSpaceOnUse"
       width="119.33141"
       height="238.66283"
       patternTransform="translate(1.8988578,1.8104371)"
       id="pattern7206">
      <rect
         transform="matrix(0.70710678,0.70710678,-0.70710678,0.70710678,0,0)"
         id="rect7202"
         height="84.380051"
         width="84.380051"
         y="-42.190025"
         x="42.190025"
         style="fill:#ff0000;stroke:none" />
      <rect
         transform="matrix(0.70710678,0.70710678,-0.70710678,0.70710678,0,0)"
         id="rect7204"
         height="84.380051"
         width="84.380051"
         y="42.190029"
         x="126.57008"
         style="fill:#ff0000;stroke:none" />
    </pattern>
    <radialGradient
       inkscape:collect="always"
       xlink:href="#rg-7"
       id="radialGradient4153-1"
       gradientUnits="userSpaceOnUse"
       cx="220"
       cy="220"
       r="405" />
    <radialGradient
       id="rg-7"
       gradientUnits="userSpaceOnUse"
       cx="220"
       cy="220"
       r="405">
      <stop
         style="stop-color:#fff;stop-opacity:.3"
         offset="0"
         id="stop5-4" />
      <stop
         style="stop-color:#fff;stop-opacity:.2"
         offset=".2"
         id="stop7-0" />
      <stop
         style="stop-color:#666;stop-opacity:.1"
         offset=".6"
         id="stop9-9" />
      <stop
         style="stop-color:#000;stop-opacity:.13"
         offset="1"
         id="stop11-4" />
    </radialGradient>
  </defs>
  <sodipodi:namedview
     pagecolor="#ffffff"
     bordercolor="#666666"
     borderopacity="1"
     objecttolerance="10"
     gridtolerance="10"
     guidetolerance="10"
     inkscape:pageopacity="0"
     inkscape:pageshadow="2"
     inkscape:window-width="1366"
     inkscape:window-height="715"
     id="namedview15"
     showgrid="false"
     inkscape:zoom="0.64"
     inkscape:cx="68.957467"
     inkscape:cy="327.98636"
     inkscape:window-x="-8"
     inkscape:window-y="-8"
     inkscape:window-maximized="1"
     inkscape:current-layer="svg2" />
  <radialGradient
     id="rg"
     gradientUnits="userSpaceOnUse"
     cx="220"
     cy="220"
     r="405">
    <stop
       style="stop-color:#fff;stop-opacity:.3"
       offset="0"
       id="stop5" />
    <stop
       style="stop-color:#fff;stop-opacity:.2"
       offset=".2"
       id="stop7" />
    <stop
       style="stop-color:#666;stop-opacity:.1"
       offset=".6"
       id="stop9" />
    <stop
       style="stop-color:#000;stop-opacity:.13"
       offset="1"
       id="stop11" />
  </radialGradient>
  <path
     inkscape:connector-curvature="0"
     style="fill:#7f7f7f;fill-opacity:1;stroke:none"
     id="path7212"
     d="m 2,2 0,257 c 0,286 298,398 298,398 0,0 298,-112 298,-398 L 598,2 z" />
  <path
     inkscape:connector-curvature="0"
     style="fill:none;stroke:none"
     id="path7200"
     d="m 2,2 0,257 c 0,286 298,398 298,398 0,0 298,-112 298,-398 L 598,2 z" />
  <g
     transform="matrix(0.97686188,0,0,0.97686188,52.377329,67.911725)"
     id="g3061"
     style="stroke:none">
    <path
       transform="matrix(0.87527424,0,0,0.87527424,157.4924,84.844792)"
       d="m -15.360168,-14.131356 c 0,45.130557 -36.585546,81.716102 -81.716103,81.716102 -45.130559,0 -81.716099,-36.585545 -81.716099,-81.716102 0,-45.130558 36.58554,-81.716103 81.716099,-81.716103 45.130557,0 81.716103,36.585545 81.716103,81.716103 z"
       sodipodi:ry="81.716103"
       sodipodi:rx="81.716103"
       sodipodi:cy="-14.131356"
       sodipodi:cx="-97.076271"
       id="path2994"
       style="fill:#0000cc;fill-opacity:1;fill-rule:evenodd;stroke:none"
       sodipodi:type="arc" />
    <path
       inkscape:connector-curvature="0"
       id="use1993"
       d="m 72.40625,7.59375 c -10.739249,-10e-6 -12.760751,12.625 -23.5,12.625 -6.658421,0 -9.960059,-4.842914 -14.0625,-8.53125 C 23.109526,18.97646 13.654811,29.561477 7.75,42.15625 13.925859,38.848279 16.963556,31 25.4375,31 36.176748,31 38.166996,43.59375 48.90625,43.59375 59.645502,43.59375 61.667001,31 72.40625,31 83.14551,31 85.13575,43.59375 95.875,43.59375 106.61424,43.59375 108.60451,31 119.34375,31 c 8.64174,0 11.63372,8.158309 18.0625,11.34375 -5.92749,-12.74075 -15.50108,-23.421362 -27.375,-30.75 -4.14885,3.698731 -7.44421,8.625 -14.15625,8.625 -10.73926,0 -12.72949,-12.625 -23.46875,-12.625 z m -46.96875,46 c -10.739256,-1e-5 -12.729501,12.625 -23.46875,12.625 -0.2382701,0 -0.4576222,-0.0191 -0.6875,-0.03125 C 1.1010262,68.258061 1,70.351433 1,72.46875 1,78.351389 1.7231994,84.061413 3.0625,89.53125 12.843155,88.699879 15.079277,77 25.4375,77 36.176748,77 38.166996,89.59375 48.90625,89.59375 59.645502,89.59375 61.667001,77 72.40625,77 83.14551,77 85.13575,89.59375 95.875,89.59375 106.61424,89.59375 108.60451,77 119.34375,77 c 10.44691,0 12.62886,11.913669 22.625,12.5625 1.34421,-5.479231 2.09375,-11.200002 2.09375,-17.09375 0,-2.117317 -0.10103,-4.210689 -0.28125,-6.28125 -0.31911,0.02389 -0.63315,0.03125 -0.96875,0.03125 -10.73923,0 -12.7295,-12.625 -23.46875,-12.625 -10.73924,-1e-5 -12.72949,12.625 -23.46875,12.625 -10.73926,0 -12.72949,-12.625 -23.46875,-12.625 -10.739249,-1e-5 -12.760751,12.625 -23.5,12.625 -10.739251,0 -12.729502,-12.625 -23.46875,-12.625 z m 0,46 c -6.96211,-6e-6 -10.249389,5.29888 -14.625,9.03125 3.178937,5.41377 7.027406,10.39956 11.46875,14.78125 C 23.247827,123.15089 24.293521,123 25.4375,123 c 10.739248,0 12.729496,12.59375 23.46875,12.59375 10.739252,0 12.760751,-12.59375 23.5,-12.59375 10.73926,0 12.7295,12.59375 23.46875,12.59375 10.73924,0 12.72951,-12.59375 23.46875,-12.59375 1.21688,0 2.32608,0.15075 3.34375,0.4375 4.42956,-4.36148 8.29113,-9.30005 11.46875,-14.6875 -4.46191,-3.73826 -7.76002,-9.15625 -14.8125,-9.15625 -10.73924,-1e-5 -12.72949,12.625 -23.46875,12.625 -10.73926,0 -12.72949,-12.625 -23.46875,-12.625 -10.739249,-1e-5 -12.760751,12.625 -23.5,12.625 -10.739251,0 -12.729502,-12.625 -23.46875,-12.625 z"
       style="fill:#ffffff;fill-opacity:1;fill-rule:evenodd;stroke:none" />
  </g>
  <g
     id="g3027"
     transform="matrix(0.97686188,0,0,0.97686188,140.76568,245.79329)"
     style="stroke:none">
    <path
       sodipodi:type="arc"
       style="fill:#0000cc;fill-opacity:1;fill-rule:evenodd;stroke:none"
       id="path3029"
       sodipodi:cx="-97.076271"
       sodipodi:cy="-14.131356"
       sodipodi:rx="81.716103"
       sodipodi:ry="81.716103"
       d="m -15.360168,-14.131356 c 0,45.130557 -36.585546,81.716102 -81.716103,81.716102 -45.130559,0 -81.716099,-36.585545 -81.716099,-81.716102 0,-45.130558 36.58554,-81.716103 81.716099,-81.716103 45.130557,0 81.716103,36.585545 81.716103,81.716103 z"
       transform="matrix(0.87527424,0,0,0.87527424,157.4924,84.844792)" />
    <path
       style="fill:#ffffff;fill-opacity:1;fill-rule:evenodd;stroke:none"
       d="m 72.40625,7.59375 c -10.739249,-10e-6 -12.760751,12.625 -23.5,12.625 -6.658421,0 -9.960059,-4.842914 -14.0625,-8.53125 C 23.109526,18.97646 13.654811,29.561477 7.75,42.15625 13.925859,38.848279 16.963556,31 25.4375,31 36.176748,31 38.166996,43.59375 48.90625,43.59375 59.645502,43.59375 61.667001,31 72.40625,31 83.14551,31 85.13575,43.59375 95.875,43.59375 106.61424,43.59375 108.60451,31 119.34375,31 c 8.64174,0 11.63372,8.158309 18.0625,11.34375 -5.92749,-12.74075 -15.50108,-23.421362 -27.375,-30.75 -4.14885,3.698731 -7.44421,8.625 -14.15625,8.625 -10.73926,0 -12.72949,-12.625 -23.46875,-12.625 z m -46.96875,46 c -10.739256,-1e-5 -12.729501,12.625 -23.46875,12.625 -0.2382701,0 -0.4576222,-0.0191 -0.6875,-0.03125 C 1.1010262,68.258061 1,70.351433 1,72.46875 1,78.351389 1.7231994,84.061413 3.0625,89.53125 12.843155,88.699879 15.079277,77 25.4375,77 36.176748,77 38.166996,89.59375 48.90625,89.59375 59.645502,89.59375 61.667001,77 72.40625,77 83.14551,77 85.13575,89.59375 95.875,89.59375 106.61424,89.59375 108.60451,77 119.34375,77 c 10.44691,0 12.62886,11.913669 22.625,12.5625 1.34421,-5.479231 2.09375,-11.200002 2.09375,-17.09375 0,-2.117317 -0.10103,-4.210689 -0.28125,-6.28125 -0.31911,0.02389 -0.63315,0.03125 -0.96875,0.03125 -10.73923,0 -12.7295,-12.625 -23.46875,-12.625 -10.73924,-1e-5 -12.72949,12.625 -23.46875,12.625 -10.73926,0 -12.72949,-12.625 -23.46875,-12.625 -10.739249,-1e-5 -12.760751,12.625 -23.5,12.625 -10.739251,0 -12.729502,-12.625 -23.46875,-12.625 z m 0,46 c -6.96211,-6e-6 -10.249389,5.29888 -14.625,9.03125 3.178937,5.41377 7.027406,10.39956 11.46875,14.78125 C 23.247827,123.15089 24.293521,123 25.4375,123 c 10.739248,0 12.729496,12.59375 23.46875,12.59375 10.739252,0 12.760751,-12.59375 23.5,-12.59375 10.73926,0 12.7295,12.59375 23.46875,12.59375 10.73924,0 12.72951,-12.59375 23.46875,-12.59375 1.21688,0 2.32608,0.15075 3.34375,0.4375 4.42956,-4.36148 8.29113,-9.30005 11.46875,-14.6875 -4.46191,-3.73826 -7.76002,-9.15625 -14.8125,-9.15625 -10.73924,-1e-5 -12.72949,12.625 -23.46875,12.625 -10.73926,0 -12.72949,-12.625 -23.46875,-12.625 -10.739249,-1e-5 -12.760751,12.625 -23.5,12.625 -10.739251,0 -12.729502,-12.625 -23.46875,-12.625 z"
       id="path3031"
       inkscape:connector-curvature="0" />
  </g>
  <g
     transform="matrix(0.97686188,0,0,0.97686188,229.15403,423.67484)"
     id="g3033"
     style="stroke:none">
    <path
       transform="matrix(0.87527424,0,0,0.87527424,157.4924,84.844792)"
       d="m -15.360168,-14.131356 c 0,45.130557 -36.585546,81.716102 -81.716103,81.716102 -45.130559,0 -81.716099,-36.585545 -81.716099,-81.716102 0,-45.130558 36.58554,-81.716103 81.716099,-81.716103 45.130557,0 81.716103,36.585545 81.716103,81.716103 z"
       sodipodi:ry="81.716103"
       sodipodi:rx="81.716103"
       sodipodi:cy="-14.131356"
       sodipodi:cx="-97.076271"
       id="path3035"
       style="fill:#0000cc;fill-opacity:1;fill-rule:evenodd;stroke:none"
       sodipodi:type="arc" />
    <path
       inkscape:connector-curvature="0"
       id="path3037"
       d="m 72.40625,7.59375 c -10.739249,-10e-6 -12.760751,12.625 -23.5,12.625 -6.658421,0 -9.960059,-4.842914 -14.0625,-8.53125 C 23.109526,18.97646 13.654811,29.561477 7.75,42.15625 13.925859,38.848279 16.963556,31 25.4375,31 36.176748,31 38.166996,43.59375 48.90625,43.59375 59.645502,43.59375 61.667001,31 72.40625,31 83.14551,31 85.13575,43.59375 95.875,43.59375 106.61424,43.59375 108.60451,31 119.34375,31 c 8.64174,0 11.63372,8.158309 18.0625,11.34375 -5.92749,-12.74075 -15.50108,-23.421362 -27.375,-30.75 -4.14885,3.698731 -7.44421,8.625 -14.15625,8.625 -10.73926,0 -12.72949,-12.625 -23.46875,-12.625 z m -46.96875,46 c -10.739256,-1e-5 -12.729501,12.625 -23.46875,12.625 -0.2382701,0 -0.4576222,-0.0191 -0.6875,-0.03125 C 1.1010262,68.258061 1,70.351433 1,72.46875 1,78.351389 1.7231994,84.061413 3.0625,89.53125 12.843155,88.699879 15.079277,77 25.4375,77 36.176748,77 38.166996,89.59375 48.90625,89.59375 59.645502,89.59375 61.667001,77 72.40625,77 83.14551,77 85.13575,89.59375 95.875,89.59375 106.61424,89.59375 108.60451,77 119.34375,77 c 10.44691,0 12.62886,11.913669 22.625,12.5625 1.34421,-5.479231 2.09375,-11.200002 2.09375,-17.09375 0,-2.117317 -0.10103,-4.210689 -0.28125,-6.28125 -0.31911,0.02389 -0.63315,0.03125 -0.96875,0.03125 -10.73923,0 -12.7295,-12.625 -23.46875,-12.625 -10.73924,-1e-5 -12.72949,12.625 -23.46875,12.625 -10.73926,0 -12.72949,-12.625 -23.46875,-12.625 -10.739249,-1e-5 -12.760751,12.625 -23.5,12.625 -10.739251,0 -12.729502,-12.625 -23.46875,-12.625 z m 0,46 c -6.96211,-6e-6 -10.249389,5.29888 -14.625,9.03125 3.178937,5.41377 7.027406,10.39956 11.46875,14.78125 C 23.247827,123.15089 24.293521,123 25.4375,123 c 10.739248,0 12.729496,12.59375 23.46875,12.59375 10.739252,0 12.760751,-12.59375 23.5,-12.59375 10.73926,0 12.7295,12.59375 23.46875,12.59375 10.73924,0 12.72951,-12.59375 23.46875,-12.59375 1.21688,0 2.32608,0.15075 3.34375,0.4375 4.42956,-4.36148 8.29113,-9.30005 11.46875,-14.6875 -4.46191,-3.73826 -7.76002,-9.15625 -14.8125,-9.15625 -10.73924,-1e-5 -12.72949,12.625 -23.46875,12.625 -10.73926,0 -12.72949,-12.625 -23.46875,-12.625 -10.739249,-1e-5 -12.760751,12.625 -23.5,12.625 -10.739251,0 -12.729502,-12.625 -23.46875,-12.625 z"
       style="fill:#ffffff;fill-opacity:1;fill-rule:evenodd;stroke:none" />
  </g>
  <g
     transform="matrix(0.97686188,0,0,0.97686188,405.93072,67.91174)"
     id="g3039"
     style="stroke:none">
    <path
       transform="matrix(0.87527424,0,0,0.87527424,157.4924,84.844792)"
       d="m -15.360168,-14.131356 c 0,45.130557 -36.585546,81.716102 -81.716103,81.716102 -45.130559,0 -81.716099,-36.585545 -81.716099,-81.716102 0,-45.130558 36.58554,-81.716103 81.716099,-81.716103 45.130557,0 81.716103,36.585545 81.716103,81.716103 z"
       sodipodi:ry="81.716103"
       sodipodi:rx="81.716103"
       sodipodi:cy="-14.131356"
       sodipodi:cx="-97.076271"
       id="path3041"
       style="fill:#0000cc;fill-opacity:1;fill-rule:evenodd;stroke:none"
       sodipodi:type="arc" />
    <path
       inkscape:connector-curvature="0"
       id="path3043"
       d="m 72.40625,7.59375 c -10.739249,-10e-6 -12.760751,12.625 -23.5,12.625 -6.658421,0 -9.960059,-4.842914 -14.0625,-8.53125 C 23.109526,18.97646 13.654811,29.561477 7.75,42.15625 13.925859,38.848279 16.963556,31 25.4375,31 36.176748,31 38.166996,43.59375 48.90625,43.59375 59.645502,43.59375 61.667001,31 72.40625,31 83.14551,31 85.13575,43.59375 95.875,43.59375 106.61424,43.59375 108.60451,31 119.34375,31 c 8.64174,0 11.63372,8.158309 18.0625,11.34375 -5.92749,-12.74075 -15.50108,-23.421362 -27.375,-30.75 -4.14885,3.698731 -7.44421,8.625 -14.15625,8.625 -10.73926,0 -12.72949,-12.625 -23.46875,-12.625 z m -46.96875,46 c -10.739256,-1e-5 -12.729501,12.625 -23.46875,12.625 -0.2382701,0 -0.4576222,-0.0191 -0.6875,-0.03125 C 1.1010262,68.258061 1,70.351433 1,72.46875 1,78.351389 1.7231994,84.061413 3.0625,89.53125 12.843155,88.699879 15.079277,77 25.4375,77 36.176748,77 38.166996,89.59375 48.90625,89.59375 59.645502,89.59375 61.667001,77 72.40625,77 83.14551,77 85.13575,89.59375 95.875,89.59375 106.61424,89.59375 108.60451,77 119.34375,77 c 10.44691,0 12.62886,11.913669 22.625,12.5625 1.34421,-5.479231 2.09375,-11.200002 2.09375,-17.09375 0,-2.117317 -0.10103,-4.210689 -0.28125,-6.28125 -0.31911,0.02389 -0.63315,0.03125 -0.96875,0.03125 -10.73923,0 -12.7295,-12.625 -23.46875,-12.625 -10.73924,-1e-5 -12.72949,12.625 -23.46875,12.625 -10.73926,0 -12.72949,-12.625 -23.46875,-12.625 -10.739249,-1e-5 -12.760751,12.625 -23.5,12.625 -10.739251,0 -12.729502,-12.625 -23.46875,-12.625 z m 0,46 c -6.96211,-6e-6 -10.249389,5.29888 -14.625,9.03125 3.178937,5.41377 7.027406,10.39956 11.46875,14.78125 C 23.247827,123.15089 24.293521,123 25.4375,123 c 10.739248,0 12.729496,12.59375 23.46875,12.59375 10.739252,0 12.760751,-12.59375 23.5,-12.59375 10.73926,0 12.7295,12.59375 23.46875,12.59375 10.73924,0 12.72951,-12.59375 23.46875,-12.59375 1.21688,0 2.32608,0.15075 3.34375,0.4375 4.42956,-4.36148 8.29113,-9.30005 11.46875,-14.6875 -4.46191,-3.73826 -7.76002,-9.15625 -14.8125,-9.15625 -10.73924,-1e-5 -12.72949,12.625 -23.46875,12.625 -10.73926,0 -12.72949,-12.625 -23.46875,-12.625 -10.739249,-1e-5 -12.760751,12.625 -23.5,12.625 -10.739251,0 -12.729502,-12.625 -23.46875,-12.625 z"
       style="fill:#ffffff;fill-opacity:1;fill-rule:evenodd;stroke:none" />
  </g>
  <g
     id="g3045"
     transform="matrix(0.97686188,0,0,0.97686188,317.54238,245.79327)"
     style="stroke:none">
    <path
       sodipodi:type="arc"
       style="fill:#0000cc;fill-opacity:1;fill-rule:evenodd;stroke:none"
       id="path3047"
       sodipodi:cx="-97.076271"
       sodipodi:cy="-14.131356"
       sodipodi:rx="81.716103"
       sodipodi:ry="81.716103"
       d="m -15.360168,-14.131356 c 0,45.130557 -36.585546,81.716102 -81.716103,81.716102 -45.130559,0 -81.716099,-36.585545 -81.716099,-81.716102 0,-45.130558 36.58554,-81.716103 81.716099,-81.716103 45.130557,0 81.716103,36.585545 81.716103,81.716103 z"
       transform="matrix(0.87527424,0,0,0.87527424,157.4924,84.844792)" />
    <path
       style="fill:#ffffff;fill-opacity:1;fill-rule:evenodd;stroke:none"
       d="m 72.40625,7.59375 c -10.739249,-10e-6 -12.760751,12.625 -23.5,12.625 -6.658421,0 -9.960059,-4.842914 -14.0625,-8.53125 C 23.109526,18.97646 13.654811,29.561477 7.75,42.15625 13.925859,38.848279 16.963556,31 25.4375,31 36.176748,31 38.166996,43.59375 48.90625,43.59375 59.645502,43.59375 61.667001,31 72.40625,31 83.14551,31 85.13575,43.59375 95.875,43.59375 106.61424,43.59375 108.60451,31 119.34375,31 c 8.64174,0 11.63372,8.158309 18.0625,11.34375 -5.92749,-12.74075 -15.50108,-23.421362 -27.375,-30.75 -4.14885,3.698731 -7.44421,8.625 -14.15625,8.625 -10.73926,0 -12.72949,-12.625 -23.46875,-12.625 z m -46.96875,46 c -10.739256,-1e-5 -12.729501,12.625 -23.46875,12.625 -0.2382701,0 -0.4576222,-0.0191 -0.6875,-0.03125 C 1.1010262,68.258061 1,70.351433 1,72.46875 1,78.351389 1.7231994,84.061413 3.0625,89.53125 12.843155,88.699879 15.079277,77 25.4375,77 36.176748,77 38.166996,89.59375 48.90625,89.59375 59.645502,89.59375 61.667001,77 72.40625,77 83.14551,77 85.13575,89.59375 95.875,89.59375 106.61424,89.59375 108.60451,77 119.34375,77 c 10.44691,0 12.62886,11.913669 22.625,12.5625 1.34421,-5.479231 2.09375,-11.200002 2.09375,-17.09375 0,-2.117317 -0.10103,-4.210689 -0.28125,-6.28125 -0.31911,0.02389 -0.63315,0.03125 -0.96875,0.03125 -10.73923,0 -12.7295,-12.625 -23.46875,-12.625 -10.73924,-1e-5 -12.72949,12.625 -23.46875,12.625 -10.73926,0 -12.72949,-12.625 -23.46875,-12.625 -10.739249,-1e-5 -12.760751,12.625 -23.5,12.625 -10.739251,0 -12.729502,-12.625 -23.46875,-12.625 z m 0,46 c -6.96211,-6e-6 -10.249389,5.29888 -14.625,9.03125 3.178937,5.41377 7.027406,10.39956 11.46875,14.78125 C 23.247827,123.15089 24.293521,123 25.4375,123 c 10.739248,0 12.729496,12.59375 23.46875,12.59375 10.739252,0 12.760751,-12.59375 23.5,-12.59375 10.73926,0 12.7295,12.59375 23.46875,12.59375 10.73924,0 12.72951,-12.59375 23.46875,-12.59375 1.21688,0 2.32608,0.15075 3.34375,0.4375 4.42956,-4.36148 8.29113,-9.30005 11.46875,-14.6875 -4.46191,-3.73826 -7.76002,-9.15625 -14.8125,-9.15625 -10.73924,-1e-5 -12.72949,12.625 -23.46875,12.625 -10.73926,0 -12.72949,-12.625 -23.46875,-12.625 -10.739249,-1e-5 -12.760751,12.625 -23.5,12.625 -10.739251,0 -12.729502,-12.625 -23.46875,-12.625 z"
       id="path3049"
       inkscape:connector-curvature="0" />
  </g>
  <g
     id="g3051"
     transform="matrix(0.97686188,0,0,0.97686188,229.15402,67.91174)"
     style="stroke:none">
    <path
       sodipodi:type="arc"
       style="fill:#0000cc;fill-opacity:1;fill-rule:evenodd;stroke:none"
       id="path3053"
       sodipodi:cx="-97.076271"
       sodipodi:cy="-14.131356"
       sodipodi:rx="81.716103"
       sodipodi:ry="81.716103"
       d="m -15.360168,-14.131356 c 0,45.130557 -36.585546,81.716102 -81.716103,81.716102 -45.130559,0 -81.716099,-36.585545 -81.716099,-81.716102 0,-45.130558 36.58554,-81.716103 81.716099,-81.716103 45.130557,0 81.716103,36.585545 81.716103,81.716103 z"
       transform="matrix(0.87527424,0,0,0.87527424,157.4924,84.844792)" />
    <path
       style="fill:#ffffff;fill-opacity:1;fill-rule:evenodd;stroke:none"
       d="m 72.40625,7.59375 c -10.739249,-10e-6 -12.760751,12.625 -23.5,12.625 -6.658421,0 -9.960059,-4.842914 -14.0625,-8.53125 C 23.109526,18.97646 13.654811,29.561477 7.75,42.15625 13.925859,38.848279 16.963556,31 25.4375,31 36.176748,31 38.166996,43.59375 48.90625,43.59375 59.645502,43.59375 61.667001,31 72.40625,31 83.14551,31 85.13575,43.59375 95.875,43.59375 106.61424,43.59375 108.60451,31 119.34375,31 c 8.64174,0 11.63372,8.158309 18.0625,11.34375 -5.92749,-12.74075 -15.50108,-23.421362 -27.375,-30.75 -4.14885,3.698731 -7.44421,8.625 -14.15625,8.625 -10.73926,0 -12.72949,-12.625 -23.46875,-12.625 z m -46.96875,46 c -10.739256,-1e-5 -12.729501,12.625 -23.46875,12.625 -0.2382701,0 -0.4576222,-0.0191 -0.6875,-0.03125 C 1.1010262,68.258061 1,70.351433 1,72.46875 1,78.351389 1.7231994,84.061413 3.0625,89.53125 12.843155,88.699879 15.079277,77 25.4375,77 36.176748,77 38.166996,89.59375 48.90625,89.59375 59.645502,89.59375 61.667001,77 72.40625,77 83.14551,77 85.13575,89.59375 95.875,89.59375 106.61424,89.59375 108.60451,77 119.34375,77 c 10.44691,0 12.62886,11.913669 22.625,12.5625 1.34421,-5.479231 2.09375,-11.200002 2.09375,-17.09375 0,-2.117317 -0.10103,-4.210689 -0.28125,-6.28125 -0.31911,0.02389 -0.63315,0.03125 -0.96875,0.03125 -10.73923,0 -12.7295,-12.625 -23.46875,-12.625 -10.73924,-1e-5 -12.72949,12.625 -23.46875,12.625 -10.73926,0 -12.72949,-12.625 -23.46875,-12.625 -10.739249,-1e-5 -12.760751,12.625 -23.5,12.625 -10.739251,0 -12.729502,-12.625 -23.46875,-12.625 z m 0,46 c -6.96211,-6e-6 -10.249389,5.29888 -14.625,9.03125 3.178937,5.41377 7.027406,10.39956 11.46875,14.78125 C 23.247827,123.15089 24.293521,123 25.4375,123 c 10.739248,0 12.729496,12.59375 23.46875,12.59375 10.739252,0 12.760751,-12.59375 23.5,-12.59375 10.73926,0 12.7295,12.59375 23.46875,12.59375 10.73924,0 12.72951,-12.59375 23.46875,-12.59375 1.21688,0 2.32608,0.15075 3.34375,0.4375 4.42956,-4.36148 8.29113,-9.30005 11.46875,-14.6875 -4.46191,-3.73826 -7.76002,-9.15625 -14.8125,-9.15625 -10.73924,-1e-5 -12.72949,12.625 -23.46875,12.625 -10.73926,0 -12.72949,-12.625 -23.46875,-12.625 -10.739249,-1e-5 -12.760751,12.625 -23.5,12.625 -10.739251,0 -12.729502,-12.625 -23.46875,-12.625 z"
       id="path3055"
       inkscape:connector-curvature="0" />
  </g>
  <path
     id="path4147"
     d="m 2,2 0,257 c 0,286 298,398 298,398 0,0 298,-112 298,-398 L 598,2 z"
     style="fill:url(#radialGradient4153-1);stroke:#000000;stroke-width:3"
     inkscape:connector-curvature="0" />
</svg>
