<svg xmlns="http://www.w3.org/2000/svg" width="600" height="660" xmlns:xlink="http://www.w3.org/1999/xlink">
<defs>
  <radialGradient id="rg" gradientUnits="userSpaceOnUse" cx="220" cy="220" r="405">
    <stop style="stop-color:#fff;stop-opacity:.3" offset="0" />
    <stop style="stop-color:#fff;stop-opacity:.2" offset="0.2" />
    <stop style="stop-color:#666;stop-opacity:.1" offset="0.6" />
    <stop style="stop-color:#000;stop-opacity:.13" offset="1" />
  </radialGradient>
  <path id="shield" d="m 2 2 v 257 c 0 286 298 398 298 398 c 0 0 298 -112 298 -398 V 2 Z" />
</defs>
<use id="background" fill="#654321" xlink:href="#shield" />
<path fill="#fff" d="m 400.9,2 h -200 c 17.83,36.003 17.61,71.997 -0.9,108 -18.85,36.67 -18.85,73.33 0,110 18.85,36.67 18.85,73.33 0,110 -18.85,36.67 -18.85,73.33 0,110 18.85,36.67 18.85,73.33 0,110 -7.37,14.34 -11.76,28.68 -13.37,43.03 6.43,4.64 12.89,9.34 19.08,13.45 8.73,5.8 17.17,11.06 25.17,15.81 8.01,4.76 15.57,9 22.56,12.74 6.98,3.74 13.39,6.99 19.06,9.75 5.67,2.76 10.62,5.04 14.7,6.85 8.14,3.62 12.8,5.37 12.8,5.37 0,0 4.66,-1.75 12.8,-5.37 4.08,-1.81 9.03,-4.09 14.7,-6.85 5.67,-2.76 12.08,-6.01 19.06,-9.75 6.99,-3.74 14.55,-7.98 22.56,-12.74 5.45,-3.24 11.34,-7.06 17.16,-10.78 -1.25,-20.5 3.18,-41 13.72,-61.51 18.85,-36.67 18.85,-73.33 0,-110 -18.85,-36.67 -18.85,-73.33 0,-110 18.85,-36.67 18.85,-73.33 0,-110 -18.85,-36.67 -18.85,-73.33 0,-110 18.51,-36.003 18.73,-71.997 0.9,-108 z"/>
<g id="mother" style="stroke-width:1;stroke-linecap:round;stroke-linejoin:round;">
	<path style="fill:#000080;stroke:#000040;" d="m 385,342.63 c -19.15,36.09 -45.04,50 -85,50 -39.96,0 -65.85,-13.91 -85,-50 0,-5.25 0.21,-9.57 8.5,-16.33 6.77,-5.51 14.67,-7.93 24.97,-13 l 2.85,-29.75 c -2.63,-2.54 -6.79,-7.32 -7.67,-9.9 -16.64,-51.88 0.44,-102.85 57.82,-103.33 65.48,-0.55 64.61,87.47 54.09,108.03 -2.84,5.9 -6.78,7.86 -11.38,11.14 l 2.19,24.34 c 7.22,4.94 20.88,10.68 30.66,17.89 4.36,3.22 7.97,5.57 7.97,10.91 z" />
	<g id="crease" style="fill:none;stroke:#000040;">
		<path d="m 281.76,380.16 c -16.43,-10.03 -50.59,-35.72 -58.26,-53.86" />
		<path d="m 250,334.56 c -8.98,-5.46 -18.18,-5.44 -26.5,-8.26" />
		<path d="m 294.56,365.72 c -22.86,-17.54 -36.88,-7.97 -58.64,-36.38" />
		<path d="m 303.24,392.49 c 14.62,-17.76 26.57,-36.17 33.05,-51.68" />
		<path d="m 323.49,390.53 c 16.34,-27.97 25.97,-56.27 22.88,-76.7" />
		<path d="m 350.4,381.17 c 10.27,-17.05 19.28,-33.94 26.63,-49.45" />
		<path d="m 354.03,240.95 c -1.75,-18.68 -11.17,-43.85 -28.69,-55.73" />
		<path d="m 339.58,218.4 c -5.48,-12.08 -11.61,-22.15 -25.63,-30.06" />
		<path d="m 246.5,243.83 c -0.44,-22.09 4.82,-45.22 26.28,-57.92" />
		<path d="m 262.7,215.93 c 4.38,-11.56 13.36,-19 22.56,-26.63" />
	</g>
	<path id="hair3" style="fill:#742700;" d="m 261.94,271.66 6.4,60.63 58.64,-3.34 14.66,-61.26 z" />
	<path id="neck" style="fill:#fdb380;" d="m 275.56,278.63 c 0.88,16.58 -5.93,30.24 -8.36,48.08 11.65,17.98 42.04,22.75 58.4,1.5 -2.28,-16.19 -6.06,-30.66 -4.38,-47.61 z"/>
	<path id="face" style="fill:#fdb380;stroke:#742700;" d="m 301.05,308.21 c 8.94,-0.28 13.54,-5.04 19.49,-12.97 9.88,-13 19.74,-34.94 19.34,-49.81 -0.43,-18.12 -1.29,-36.23 -40.34,-35.88 -37.25,0.31 -41.61,19.99 -40.38,36.38 1.29,17.15 9.22,34.82 21,49.48 5.45,6.8 12.15,12.98 20.89,12.8 z"/>
	<path id="nose" style="fill:none;stroke:#742700;" d="m 293.19,265.07 c -1.8,0.3 -2.5,1.87 -2.34,3.14 0.26,1.82 1.84,1.99 3.65,3.04 2,1.18 2.94,3.21 5.55,3.21 2.58,0 3.52,-2.03 5.54,-3.21 1.79,-1.05 3.39,-1.22 3.65,-3.04 0.14,-1.27 -0.57,-2.84 -2.36,-3.14" />
	<path id="mouth" style="fill:none;stroke:#742700;" d="m 289.34,283.53 c 6.44,0.91 13.44,1.21 21.44,0 0,0 -4.32,3.95 -11.04,3.89 -5.26,0 -10.4,-3.78 -10.4,-3.78 z"/>
	<g id="eye2">
		<path style="fill:#742700;" d="m 331.45,235.48 c -3.52,-1.94 -8.74,-3.49 -13.23,-3.62 -4.84,0 -10.9,1.13 -10.58,3.58 0.42,2.6 5.28,0 10.08,-0.79 3.88,-0.59 8.65,0.31 12.92,1.69 1.34,0.43 3.05,0.32 0.81,-0.86 z" />
		<path style="fill:#ffffff;stroke:#742700;" d="m 327.4,247.15 c -0.48,-0.26 -1.47,-0.3 -3.42,-0.24 -1.46,0.24 -4.14,0 -6.09,0 -1.94,-0.22 -4.4,-0.33 -5.62,-0.35 h -2.19 c 1.95,-0.54 4.16,-4.15 6.59,-4.35 0.96,-0.24 1.71,-1.07 1.95,-1.15 -1.71,-0.24 -5.37,-0.24 -5.37,0.8 -1.71,1.77 -2.19,2.65 -2.67,4.29 -0.74,1.59 0.96,-2.69 2.67,-4.37 0.48,-0.77 0.72,-0.81 3.42,-0.81 4.64,0 6.83,0.57 8.78,2.16 l 0.96,0.74 c 0.51,0.59 1.23,1.12 2.22,3.52 -0.27,0.24 -0.51,0.24 -1.23,-0.24 z" />
		<path style="fill:#000080;" d="m 322.27,244.18 c 0,1.68 -1.22,2.73 -2.93,2.73 -1.95,0 -3.15,-1.05 -3.15,-2.73 0,-0.7 0,-1.7 0.48,-1.9 0.48,-0.24 1.47,-0.7 2.43,-0.87 1.71,-0.29 3.17,1.07 3.17,2.77 z" />
		<path style="fill:#ffffff;stroke:#000000;" d="m 320.33,244.2 c 0,0.64 -0.49,1.14 -0.99,1.14 -0.72,0 -1.2,-0.5 -1.2,-1.14 0,-0.61 0.48,-1.13 1.2,-1.13 0.5,0 0.99,0.52 0.99,1.13 z" />
	</g>
	<g id="eye1">
		<path style="fill:#742700;" d="m 268.81,235.64 c 3.55,-1.95 8.72,-3.5 13.21,-3.63 4.84,0 10.95,1.14 10.56,3.58 -0.4,2.6 -5.26,0 -10.06,-0.83 -3.87,-0.54 -8.62,0.35 -12.92,1.73 -1.35,0.44 -3.04,0.33 -0.79,-0.85 z" />
		<path style="fill:#ffffff;stroke:#742700;" d="m 272.87,247.28 c 0.48,-0.26 1.46,-0.3 3.41,-0.24 1.47,0.24 4.14,0 6.09,0 1.95,-0.22 4.4,-0.33 5.63,-0.35 h 2.19 c -1.95,-0.54 -4.16,-4.15 -6.59,-4.35 -0.97,-0.24 -1.71,-1.07 -1.95,-1.15 1.71,-0.24 5.36,-0.24 5.36,0.81 1.71,1.76 2.19,2.64 2.68,4.28 0.74,1.59 -0.97,-2.69 -2.68,-4.37 -0.48,-0.77 -0.72,-0.81 -3.41,-0.81 -4.65,0 -6.84,0.57 -8.78,2.16 l -0.97,0.75 c -0.5,0.59 -1.22,1.11 -2.21,3.51 0.26,0.24 0.5,0.24 1.23,-0.24 z" />
		<path style="fill:#000080;" d="m 277.99,244.31 c 0,1.68 1.23,2.73 2.94,2.73 1.94,0 3.15,-1.05 3.15,-2.73 0,-0.7 0,-1.7 -0.48,-1.9 -0.48,-0.24 -1.47,-0.7 -2.43,-0.87 -1.71,-0.29 -3.18,1.07 -3.18,2.77 z" />
		<path style="fill:#ffffff;stroke:#000000;" d="m 279.94,244.33 c 0,0.64 0.48,1.14 0.99,1.14 0.72,0 1.2,-0.5 1.2,-1.14 0,-0.61 -0.48,-1.13 -1.2,-1.13 -0.51,0 -0.99,0.52 -0.99,1.13 z" />
	</g>
	<path style="fill:#ffdd00;stroke:#cc6600;" d="m 290.3,208.96 c -4.16,0 -8.1,0.22 -11.61,0.48 -5.47,0.48 -15.11,3.56 -15.99,6.49 -1.31,3.37 2.41,4.83 1.54,7.12 -1.75,3.32 -18.84,14.86 -17.74,20.78 0,4 5.25,6.45 5.47,10.18 0.22,4.48 -8.54,14.77 -8.32,19.64 0.22,3.85 4.82,6.86 9.42,11.52 3.94,4.01 5.91,9.11 6.35,15.09 0.88,7.89 -1.97,18 1.53,26.11 3.73,8.85 14.68,16.38 22.56,18.96 6.57,2.08 13.8,2.19 20.59,0.9 6.79,-1.38 21.46,-9.22 25.84,-14.97 4.16,-5.24 0,-21.12 4.82,-30.8 7.01,-13.48 17.74,-13.57 20.8,-22.11 4.38,-11.78 -9.19,-22.83 -8.32,-26.22 0.88,-3.54 7.23,-7.34 6.79,-11.18 -0.22,-4.26 -14.45,-12.94 -15.11,-16.32 -0.44,-3.13 1.09,-3.08 0.66,-6.23 -0.44,-2.99 -5.92,-6.47 -13.58,-7.51 -8.76,-1.16 -23,-2.08 -35.7,-1.93 z m 0.88,5.99 c 11.6,-0.22 24.74,0.79 32.63,1.77 2.19,0.3 8.76,1.22 9.2,3.95 0.22,2.89 -2.19,3.96 -0.66,6.38 2.19,3.56 14.89,11.78 15.11,14.95 0.44,3.38 -6.57,7.97 -6.79,10.88 -0.66,5.28 10.73,13.41 7.89,22.61 -2.41,7.95 -14.02,9.24 -20.37,21.56 -4.6,8.83 -1.1,25.01 -4.82,29.8 -4.16,5.26 -12.48,9.02 -18.83,10.27 -6.14,1.2 -12.71,1.29 -18.4,-0.59 -7.45,-2.34 -14.46,-6.12 -17.96,-14.2 -3.29,-7.43 -1.1,-17.13 -1.75,-24.34 -0.44,-5.46 -3.29,-13.07 -7.01,-16.71 -4.16,-4.26 -8.1,-4.77 -8.32,-8.26 -0.22,-4.46 8.32,-12.74 7.44,-20.45 -0.44,-3.63 -5.25,-5 -5.25,-8.65 -0.88,-5.4 16.86,-16.21 18.17,-19.29 1.1,-2.78 -2.62,-4.28 -0.87,-6.23 1.97,-2.07 4.82,-2.53 9.85,-2.97 3.29,-0.28 7.01,-0.46 10.74,-0.48 z"/>
	<path style="fill:#ffdd00;stroke:#cc6600;" d="m 323.37,326.85 c -6.79,11.21 -15.55,24.38 -28.03,38.34 -6.79,7.51 -14.3,16.06 -22.38,24.79 3.07,0.67 6.24,1.21 9.52,1.62 7.4,-7.87 13.68,-14.97 18.33,-19.9 11.39,-12.28 21.46,-26.94 29.13,-40.44" />
	<path id="hair2" style="fill:#742700;stroke:#cc6600;" d="m 298.99,214.98 c 2.81,8.65 31.65,21.36 40.46,21.38 -8.87,25.65 -3.05,39.59 -10.34,59.05 v 0 c 6.49,-10.82 17.15,-12.35 19.45,-19.93 2.84,-9.2 -8.55,-17.33 -7.89,-22.61 0.22,-2.91 7.23,-7.5 6.79,-10.88 -0.22,-3.17 -12.92,-11.39 -15.11,-14.95 -1.53,-2.42 0.88,-3.49 0.66,-6.38 -0.44,-2.73 -7.01,-3.65 -9.2,-3.95 -6.15,-0.76 -15.5,-1.54 -24.82,-1.74 z"/>
	<path id="hair1" style="fill:#742700;stroke:#cc6600;" d="m 291.18,214.95 c -3.73,0 -7.45,0.22 -10.74,0.48 -5.03,0.44 -7.88,0.9 -9.85,2.97 -1.75,1.95 1.97,3.45 0.87,6.23 -1.31,3.08 -19.05,13.89 -18.17,19.29 0,3.65 4.81,5.02 5.25,8.65 0.88,7.71 -7.66,15.99 -7.44,20.45 0.22,3.49 4.16,4 8.32,8.26 3.72,3.64 6.57,11.25 7.01,16.71 0.65,7.21 -1.54,16.91 1.75,24.34 1.81,14.93 -7.89,24.43 -0.93,40.23 -0.82,-11.59 4.97,-20.57 6.97,-32.11 1.82,-10.47 -1.49,-25.47 -4.81,-44.78 -2.72,-15.84 -6.4,-37.32 -10.25,-48.42 8.8,0 37.01,-13.61 39.83,-22.26 h -7.81 z"/>
</g>
<use id="shine" fill="url(#rg)" stroke="#000" stroke-width="3" xlink:href="#shield" />
</svg>
