<svg xmlns="http://www.w3.org/2000/svg" width="600" height="660" xmlns:xlink="http://www.w3.org/1999/xlink">
<defs>
  <radialGradient id="rg" gradientUnits="userSpaceOnUse" cx="220" cy="220" r="405">
    <stop style="stop-color:#fff;stop-opacity:.3" offset="0" />
    <stop style="stop-color:#fff;stop-opacity:.2" offset="0.2" />
    <stop style="stop-color:#666;stop-opacity:.1" offset="0.6" />
    <stop style="stop-color:#000;stop-opacity:.13" offset="1" />
  </radialGradient>
  <linearGradient id="red" gradientUnits="userSpaceOnUse" x1="0" x2="600" y1="0" y2="600">
    <stop style="stop-color:#ff0;stop-opacity:0" offset="0.44" />
    <stop style="stop-color:#f00;stop-opacity:1" offset="0.5" />
    <stop style="stop-color:#ff0;stop-opacity:0" offset="0.56" />
  </linearGradient>
  <linearGradient id="red2" gradientUnits="userSpaceOnUse" x1="0" x2="600" y1="600" y2="0">
    <stop style="stop-color:#ff0;stop-opacity:0" offset="0.44" />
    <stop style="stop-color:#f00;stop-opacity:1" offset="0.5" />
    <stop style="stop-color:#ff0;stop-opacity:0" offset="0.56" />
  </linearGradient>
  <radialGradient id="red3" gradientUnits="userSpaceOnUse" cx="300" cy="300" r="100">
    <stop style="stop-color:#f00;stop-opacity:1" offset="0" />
    <stop style="stop-color:#ff0;stop-opacity:0" offset="1" />
  </radialGradient>
  <path id="shield" d="m 2 2 v 257 c 0 286 298 398 298 398 c 0 0 298 -112 298 -398 V 2 Z"/>
  <path id="saltire" d="M 2 2 L 2 62.630859 C 2.9445445 64.087299 3.9801002 65.534935 5.1054688 66.972656 C 17.131709 82.336866 18.831101 98.769623 10.207031 116.27148 C 20.632651 106.66272 23.779684 95.076052 19.646484 81.513672 C 15.513274 67.951282 18.660308 56.366562 29.085938 46.757812 C 19.924948 61.906553 20.180296 76.893813 29.853516 91.720703 C 39.526746 106.54759 39.782094 121.53485 30.621094 136.68359 C 41.583934 129.42796 46.176534 119.28901 44.396484 106.26367 C 42.616444 93.238341 47.207092 83.097427 58.169922 75.841797 C 48.471772 88.637697 47.283166 102.18078 54.603516 116.4707 C 61.923856 130.76061 60.735249 144.30369 51.037109 157.09961 C 62.536809 152.1969 68.573694 143.50172 69.146484 131.01367 C 69.719264 118.52563 75.754206 109.83042 87.253906 104.92773 C 77.018566 115.37064 74.384242 127.4678 79.351562 141.2207 C 84.318883 154.97361 81.686512 167.07075 71.451172 177.51367 C 83.488042 174.96391 90.968781 167.7147 93.894531 155.76367 C 96.820281 143.81263 104.30103 136.56148 116.33789 134.01172 C 105.56558 142.1016 101.48722 152.75503 104.10156 165.9707 C 106.7159 179.18636 102.63753 189.83784 91.865234 197.92773 C 104.43928 197.73082 113.36391 191.92579 118.64258 180.51172 C 123.92125 169.09765 132.84783 163.2926 145.42188 163.0957 C 134.11246 168.83259 128.58827 178.04016 128.84961 190.71875 C 129.11096 203.39734 123.58677 212.60491 112.27734 218.3418 C 125.38838 220.49794 135.76092 216.13857 143.39258 205.26172 C 151.02425 194.38487 161.39483 190.02354 174.50586 192.17969 C 162.65923 195.56371 155.69119 203.32711 153.59961 215.46875 C 151.50803 227.61041 144.53805 235.37378 132.69141 238.75781 C 146.3395 243.26695 158.15598 240.35142 168.14062 230.01172 C 178.12526 219.67201 189.94175 216.75648 203.58984 221.26562 C 191.2061 222.29662 182.79227 228.61421 178.34766 240.21875 C 173.90306 251.82329 165.48922 258.14087 153.10547 259.17188 C 167.29076 266.03384 180.55115 264.56449 192.88867 254.76172 C 205.22619 244.95895 218.48856 243.48763 232.67383 250.34961 C 219.75313 249.02763 209.89323 253.89948 203.0957 264.9668 C 196.29818 276.03413 186.43829 280.90791 173.51758 279.58594 C 188.24004 288.80122 202.94783 288.7754 217.63867 279.50977 C 232.32951 270.24417 247.03536 270.2203 261.75781 279.43555 C 248.30009 275.76053 236.99622 279.18666 227.8457 289.7168 C 218.69517 300.24692 207.3913 303.67501 193.93359 300 C 203.08411 310.53014 214.38798 313.95822 227.8457 310.2832 C 241.30341 306.60819 252.60728 310.03432 261.75781 320.56445 C 246.59042 311.40771 231.59092 311.67531 216.75977 321.36719 C 201.92861 331.05908 186.92917 331.32849 171.76172 322.17188 C 178.94472 333.1513 189.04214 337.78563 202.05078 336.07812 C 215.05942 334.37061 225.15487 339.00705 232.33789 349.98633 C 219.13797 340.38058 205.34683 339.43962 190.96484 347.16406 C 176.58285 354.88851 162.79189 353.94772 149.5918 344.3418 C 154.80732 355.76994 163.69439 361.61518 176.25391 361.875 C 188.81341 362.13482 197.70231 367.97797 202.91797 379.40625 C 191.68543 369.35125 179.10103 367.202 165.16797 372.95898 C 151.2349 378.71597 138.65247 376.56674 127.41992 366.51172 C 130.6682 378.38936 138.34831 385.44258 150.45898 387.66992 C 162.56966 389.89726 170.24807 396.95036 173.49609 408.82812 C 164.23266 398.31777 152.85824 394.95958 139.37305 398.75586 C 125.88711 402.55193 114.51258 399.1939 105.25 388.68359 C 106.53082 401.01015 113.00068 409.27208 124.66211 413.4668 C 136.32353 417.66152 142.79536 425.9215 144.07617 438.24805 C 136.7785 427.29494 126.61098 422.72863 113.57617 424.55078 C 100.54134 426.37294 90.375803 421.80859 83.078125 410.85547 C 82.391398 423.6311 87.654917 433.09948 98.867188 439.26172 C 110.07945 445.42397 115.34103 454.89235 114.6543 467.66797 C 109.324 456.26575 100.36701 450.49289 87.78125 450.34766 C 75.195482 450.20242 66.236563 444.42955 60.90625 433.02734 C 58.252183 446.25216 62.307006 456.92896 73.070312 465.05859 C 83.830922 473.1862 87.886376 483.85986 85.236328 497.08008 C 94.001621 508.24781 103.14492 518.77895 112.50781 528.68359 C 117.24691 531.48774 122.85976 532.771 129.35742 532.51367 C 142.09131 532.00938 151.44796 537.38484 157.42773 548.63867 C 159.50567 535.54551 155.09781 525.22141 144.20312 517.66797 C 133.30844 510.11453 128.90058 499.79043 130.97852 486.69727 C 135.34922 498.31849 143.71728 504.68229 156.08398 505.78711 C 168.45068 506.89192 176.8191 513.25571 181.18945 524.87695 C 184.87623 511.41644 181.45709 500.10407 170.92969 490.94141 C 160.40229 481.77875 156.98082 470.46637 160.66797 457.00586 C 163.42962 468.99447 170.81105 476.34664 182.81055 479.06055 C 194.81005 481.77447 202.18971 489.12642 204.95117 501.11523 C 210.24735 487.28756 207.81636 474.98674 197.65625 464.21484 C 187.49613 453.44293 185.06458 441.14262 190.36133 427.31445 C 191.51404 439.67 197.90506 448.01081 209.53711 452.33398 C 221.16916 456.65717 227.56249 464.99572 228.71484 477.35156 C 235.62014 463.15644 234.17564 449.86909 224.38281 437.48828 C 214.58998 425.10747 213.1471 411.81999 220.05273 397.625 C 219.59635 410.34818 224.99893 419.67519 236.26367 425.60742 C 247.52841 431.53963 252.93328 440.86675 252.47656 453.58984 C 260.99093 439.02732 260.53501 424.75167 251.10938 410.76172 C 241.68374 396.77177 241.22782 382.49609 249.74219 367.93359 C 247.67638 381.02409 252.09268 391.3395 262.99023 398.88086 C 273.88778 406.42222 278.30416 416.73796 276.23828 429.82812 C 286.36184 414.89814 286.89404 399.63428 277.83594 384.03516 C 268.77784 368.43604 269.31184 353.17167 279.43555 338.24219 C 275.76059 351.70005 279.18666 363.00378 289.7168 372.1543 C 300.24692 381.30483 303.67501 392.6087 300 406.06641 C 310.53014 396.91589 313.95822 385.61202 310.2832 372.1543 C 306.60819 358.69659 310.03432 347.39272 320.56445 338.24219 C 311.50635 353.84133 312.04041 369.10553 322.16406 384.03516 C 332.28771 398.96477 332.81982 414.22901 323.76172 429.82812 C 334.65927 422.28677 339.07558 411.97136 337.00977 398.88086 C 334.94396 385.79036 339.36025 375.47301 350.25781 367.93164 C 340.83217 381.9216 340.37626 396.19921 348.89062 410.76172 C 357.40499 425.32423 356.94908 439.5999 347.52344 453.58984 C 358.78817 447.65763 364.19305 438.3305 363.73633 425.60742 C 363.27961 412.88433 368.68253 403.55527 379.94727 397.62305 C 370.15444 410.00388 368.70994 423.29318 375.61523 437.48828 C 382.52052 451.68338 381.07798 464.97075 371.28516 477.35156 C 382.91721 473.02839 389.3086 464.68982 390.46094 452.33398 C 391.61328 439.97815 398.00662 431.63764 409.63867 427.31445 C 399.47856 438.08637 397.04544 450.38695 402.3418 464.21484 C 407.63817 478.04272 405.20699 490.34139 395.04688 501.11328 C 407.04638 498.39936 414.42781 491.04916 417.18945 479.06055 C 419.9511 467.07195 427.33059 459.71977 439.33008 457.00586 C 428.80268 466.16853 425.38316 477.4809 429.07031 490.94141 C 432.75746 504.40192 429.33599 515.71234 418.80859 524.875 C 431.17527 523.77019 439.54531 517.40832 443.91602 505.78711 C 448.28672 494.16588 456.65477 487.80209 469.02148 486.69727 C 458.12679 494.25072 453.71893 504.57481 455.79688 517.66797 C 457.87482 530.76113 453.46695 541.08328 442.57227 548.63672 C 455.30616 549.14102 464.66281 543.76751 470.64258 532.51367 C 476.6211 521.26219 485.97523 515.88694 498.70508 516.38867 C 508.2825 505.50519 517.55105 493.93601 526.32422 481.65625 C 527.93412 476.65834 528.14632 471.13061 526.92773 465.05859 C 524.27366 451.83378 528.3285 441.15502 539.0918 433.02539 C 526.50603 433.17061 517.54905 438.94544 512.21875 450.34766 C 506.88845 461.74987 497.92952 467.52273 485.34375 467.66797 C 496.55602 461.50572 501.81954 452.03735 501.13281 439.26172 C 500.44608 426.48609 505.70766 417.01771 516.91992 410.85547 C 503.88511 409.03332 493.71954 413.59767 486.42188 424.55078 C 479.12421 435.5039 468.95865 440.07021 455.92383 438.24805 C 467.58526 434.05332 474.05512 425.79335 475.33594 413.4668 C 476.61675 401.14024 483.08858 392.87831 494.75 388.68359 C 481.2642 384.8875 469.88954 388.24556 460.62695 398.75586 C 451.36361 409.26639 439.98714 412.6244 426.50195 408.82812 C 438.61263 406.60077 446.29275 399.54756 449.54102 387.66992 C 452.78928 375.79229 460.46941 368.73905 472.58008 366.51172 C 458.64703 360.75473 446.06262 362.90398 434.83008 372.95898 C 423.59754 383.01399 411.01511 385.16324 397.08203 379.40625 C 409.64155 379.14642 418.53042 373.30328 423.74609 361.875 C 428.96176 350.44672 437.84869 344.60162 450.4082 344.3418 C 436.02621 336.61736 422.23509 337.55831 409.03516 347.16406 C 395.83524 356.76982 382.04411 357.71078 367.66211 349.98633 C 380.67076 351.69383 390.76619 347.0574 397.94922 336.07812 C 405.13225 325.09886 415.22965 320.46241 428.23828 322.16992 C 413.40713 312.47804 398.40763 312.21045 383.24023 321.36719 C 368.07282 330.52393 353.07336 330.25633 338.24219 320.56445 C 351.69991 324.23947 363.00378 320.81334 372.1543 310.2832 C 381.30483 299.75308 392.6087 296.32499 406.06641 300 C 396.91589 289.46986 385.61202 286.04178 372.1543 289.7168 C 358.69659 293.39181 347.39272 289.96568 338.24219 279.43555 C 352.93304 288.70114 367.63888 288.72502 382.36133 279.50977 C 397.08378 270.29448 411.79157 270.3203 426.48242 279.58594 C 419.6849 268.51862 409.825 263.64483 396.9043 264.9668 C 383.9836 266.28878 374.1237 261.41694 367.32617 250.34961 C 379.6637 260.15238 392.92605 261.62369 407.11133 254.76172 C 421.29661 247.89974 434.5574 249.36915 446.89453 259.17188 C 442.44953 247.56728 434.03608 241.24974 421.65234 240.21875 C 409.26859 239.18775 400.85452 232.86986 396.41016 221.26562 C 406.39507 231.60566 418.2113 234.52086 431.85938 230.01172 C 445.50745 225.50257 457.32396 228.4181 467.30859 238.75781 C 465.21701 226.61616 458.24702 218.85276 446.40039 215.46875 C 434.55375 212.08472 427.58533 204.32278 425.49414 192.18164 C 433.12621 203.05901 443.49639 207.41787 456.60742 205.26172 C 469.71846 203.10557 480.09086 207.46689 487.72266 218.34375 C 487.98414 205.66517 482.45981 196.45759 471.15039 190.7207 C 459.84096 184.98382 454.31669 175.77627 454.57812 163.09766 C 459.85688 174.51173 468.78338 180.31677 481.35742 180.51367 C 493.93147 180.71057 502.85806 186.51562 508.13672 197.92969 C 510.75107 184.71402 506.6727 174.06254 495.90039 165.97266 C 485.12809 157.88278 481.04778 147.22934 483.66211 134.01367 C 486.58787 145.96471 494.07056 153.21586 506.10742 155.76562 C 518.14428 158.31538 525.62503 165.5646 528.55078 177.51562 C 533.5181 163.76272 530.88378 151.66558 520.64844 141.22266 C 510.4131 130.77975 507.7785 118.68055 512.74609 104.92773 C 513.31917 117.41588 519.35579 126.11293 530.85547 131.01562 C 542.35517 135.91833 548.39206 144.6135 548.96484 157.10156 C 556.2852 142.81164 555.09659 129.26856 545.39844 116.47266 C 535.7003 103.67675 534.51158 90.133213 541.83203 75.84375 C 540.0521 88.869562 544.64263 99.00999 555.60547 106.26562 C 566.5683 113.52125 571.15896 123.66217 569.37891 136.6875 C 579.05213 121.86061 579.30943 106.87335 570.14844 91.724609 C 560.98745 76.575872 561.2428 61.586665 570.91602 46.759766 C 566.78282 60.32216 569.92985 71.908825 580.35547 81.517578 C 590.7811 91.126326 593.92618 102.71106 589.79297 116.27344 C 593.52183 111.50962 596.25641 106.64316 598 101.67383 L 598 74.548828 C 597.18219 72.046414 596.15187 69.522319 594.89648 66.974609 C 586.77689 50.496548 587.81454 34.966012 598 20.382812 L 598 2 L 537.36914 2 C 535.9127 2.9445445 534.46506 3.9801002 533.02734 5.1054688 C 517.66313 17.131709 501.23038 18.831101 483.72852 10.207031 C 493.33728 20.632651 504.92395 23.779684 518.48633 19.646484 C 532.04872 15.513274 543.63344 18.660308 553.24219 29.085938 C 538.09345 19.924947 523.10619 20.180296 508.2793 29.853516 C 493.45241 39.526739 478.46516 39.782087 463.31641 30.621094 C 470.57204 41.583934 480.71099 46.176534 493.73633 44.396484 C 506.76166 42.616444 516.90257 47.207092 524.1582 58.169922 C 511.3623 48.471772 497.81922 47.283166 483.5293 54.603516 C 469.23938 61.923856 455.69631 60.735249 442.90039 51.037109 C 447.8031 62.536809 456.49828 68.573694 468.98633 69.146484 C 481.47438 69.719264 490.16958 75.754206 495.07227 87.253906 C 484.62936 77.018566 472.5322 74.384242 458.7793 79.351562 C 445.02639 84.318883 432.92925 81.686512 422.48633 71.451172 C 425.03609 83.488042 432.2853 90.968781 444.23633 93.894531 C 456.18737 96.820281 463.43852 104.30103 465.98828 116.33789 C 457.8984 105.56558 447.24497 101.48722 434.0293 104.10156 C 420.81364 106.7159 410.16216 102.63754 402.07227 91.865234 C 402.26918 104.43929 408.07421 113.36391 419.48828 118.64258 C 430.90235 123.92125 436.7074 132.84784 436.9043 145.42188 C 431.16741 134.11246 421.95984 128.58827 409.28125 128.84961 C 396.60266 129.11096 387.39509 123.58677 381.6582 112.27734 C 379.50206 125.38838 383.86143 135.76092 394.73828 143.39258 C 405.61513 151.02425 409.97646 161.39483 407.82031 174.50586 C 404.43629 162.65923 396.67289 155.69119 384.53125 153.59961 C 372.38959 151.50803 364.62622 144.53805 361.24219 132.69141 C 356.73305 146.3395 359.64858 158.15598 369.98828 168.14062 C 380.32799 178.12526 383.24353 189.94175 378.73438 203.58984 C 377.70339 191.2061 371.38579 182.79227 359.78125 178.34766 C 348.17671 173.90306 341.85914 165.48922 340.82812 153.10547 C 333.96616 167.29076 335.43551 180.55115 345.23828 192.88867 C 355.04105 205.22619 356.51237 218.48856 349.65039 232.67383 C 350.97237 219.75313 346.10052 209.89323 335.0332 203.0957 C 323.96587 196.29818 319.09209 186.43829 320.41406 173.51758 C 311.19878 188.24004 311.2246 202.94783 320.49023 217.63867 C 329.75583 232.32951 329.7797 247.03536 320.56445 261.75781 C 324.23947 248.30009 320.81334 236.99622 310.2832 227.8457 C 299.75308 218.69517 296.32499 207.3913 300 193.93359 C 289.46986 203.08411 286.04178 214.38798 289.7168 227.8457 C 293.39181 241.30341 289.96568 252.60728 279.43555 261.75781 C 288.70114 247.06696 288.72502 232.36112 279.50977 217.63867 C 270.29448 202.91622 270.3203 188.20842 279.58594 173.51758 C 268.51862 180.3151 263.64483 190.175 264.9668 203.0957 C 266.28878 216.0164 261.41694 225.8763 250.34961 232.67383 C 260.15238 220.3363 261.62369 207.07395 254.76172 192.88867 C 247.89974 178.7034 249.36915 165.4426 259.17188 153.10547 C 247.56728 157.55047 241.24974 165.96392 240.21875 178.34766 C 239.18775 190.7314 232.86986 199.14548 221.26562 203.58984 C 231.60566 193.60493 234.52086 181.78869 230.01172 168.14062 C 225.50257 154.49255 228.4181 142.67604 238.75781 132.69141 C 226.61616 134.78299 218.85276 141.75298 215.46875 153.59961 C 212.08472 165.44625 204.32278 172.41467 192.18164 174.50586 C 203.05901 166.87379 207.41787 156.50361 205.26172 143.39258 C 203.10557 130.28154 207.46689 119.90914 218.34375 112.27734 C 205.66517 112.01586 196.45759 117.54019 190.7207 128.84961 C 184.98382 140.15904 175.77627 145.6833 163.09766 145.42188 C 174.51173 140.14312 180.31677 131.21662 180.51367 118.64258 C 180.71057 106.06853 186.51562 97.141941 197.92969 91.863281 C 184.71402 89.248931 174.06254 93.327295 165.97266 104.09961 C 157.88278 114.87191 147.22934 118.95222 134.01367 116.33789 C 145.96471 113.41213 153.21586 105.92944 155.76562 93.892578 C 158.31538 81.855718 165.56459 74.374972 177.51562 71.449219 C 163.76272 66.481899 151.66558 69.116223 141.22266 79.351562 C 130.77975 89.586902 118.68055 92.221499 104.92773 87.253906 C 117.41588 86.680832 126.11293 80.64422 131.01562 69.144531 C 135.91833 57.644831 144.6135 51.607936 157.10156 51.035156 C 142.81164 43.714796 129.26856 44.903413 116.47266 54.601562 C 103.67675 64.299702 90.133213 65.488421 75.84375 58.167969 C 88.869562 59.947906 99.00999 55.357371 106.26562 44.394531 C 113.52125 33.431701 123.66217 28.841044 136.6875 30.621094 C 121.86061 20.947874 106.87335 20.690573 91.724609 29.851562 C 76.575872 39.012552 61.586665 38.757204 46.759766 29.083984 C 60.32216 33.217184 71.908825 30.070151 81.517578 19.644531 C 91.126326 9.2189013 102.71106 6.0738222 116.27344 10.207031 C 111.50962 6.4781748 106.64316 3.7435936 101.67383 2 L 74.548828 2 C 72.046414 2.817808 69.522319 3.8481254 66.974609 5.1035156 C 50.496548 13.223111 34.966012 12.185457 20.382812 2 L 2 2 z" />
	<g id="skull" style="fill:#ffffff;stroke:#000000;stroke-width:1">
		<path style="fill:#000000;stroke:none;" d="m 24.094095,-18.80811 c -1.316117,-1.623295 -13.230809,8.613889 -14.577375,7.140209 -1.647132,-1.80469 -4.391908,-0.499169 -6.485246,-0.508438 -4.288631,-0.01986 -8.438234,-0.345579 -12.737456,0.02117 -6.566742,-7.623362 -15.897452,-4.191469 -18.282147,-1.91801 -3.042117,3.493675 -7.984705,15.7414075 1.364639,19.563749 -1.087052,1.89076 0.234359,5.1784 1.300228,6.86525 1.506777,2.38595 5.408781,2.22839 7.962892,2.08804 2.372717,-0.13241 3.947024,-0.5561 5.751714,0.9136 0.691161,0.56405 1.943723,1.2711 2.293272,2.12379 0.414431,1.00364 -0.304533,2.42833 -0.248921,3.57894 0.109897,2.33961 0.04502,5.81527 2.828192,6.57528 3.222758,0.87917 4.618319,-1.75836 6.332977,-3.50347 1.264476,1.34392 2.004624,3.40549 3.96291,3.90863 3.310149,0.84872 3.968207,-2.78052 4.010575,-5.25387 0.01986,-1.2327 -0.824887,-3.83051 -0.361468,-4.88313 0.71367,-1.62462 4.003958,-1.68023 5.44983,-1.83515 3.598796,-0.38397 7.492853,0.30983 11.03074,-0.57994 5.555756,-1.39953 3.839776,-8.38527 3.402835,-12.48985 9.597187,-6.4243782 9.417478,-11.151025 -2.998191,-21.8068 z" />
		<path d="m 30.399786,16.10955 c -1.848388,1.25388 -1.729221,1.90532 -1.612703,4.17211 0.266133,5.10822 0.909629,10.40049 0.418402,15.46369 -2.143652,22.06943 -31.864819,17.54512 -46.820074,13.32269 -8.790432,-2.48261 -10.430944,-13.90395 -11.416041,-21.69074 -0.402517,-3.19099 -0.0079,-6.33563 -1.746438,-9.2287 -1.448522,-2.40582 -4.516362,-5.70273 -7.312782,-6.44155 -7.78282,-2.05229 -3.22673,14.20849 -2.48791,16.82615 1.30817,4.65539 2.88646,9.185 3.96424,13.90792 1.11618,4.88049 0.19331,11.11946 4.26877,14.69045 2.178075,1.90929 5.02348,2.96854 7.510065,4.48591 2.957947,1.80602 5.902657,3.71399 8.876493,5.38627 1.983444,1.11486 4.345565,2.54882 6.56469,2.95133 4.552116,0.82886 9.596784,-0.18669 14.217752,-0.28864 2.268113,-0.0503 4.372047,-0.25157 6.638837,0.007 1.909294,0.21715 3.572311,0.37339 5.423348,-0.17875 3.781515,-1.12677 6.967199,-4.19462 9.41274,-7.1155 3.680886,-4.39985 8.574608,-7.90198 10.813595,-13.35181 0.904331,-2.20854 1.972848,-4.31379 2.193966,-6.72623 0.193313,-2.1026 0.105926,-3.98144 0.589206,-6.04565 1.169146,-4.997 1.163848,-10.4892 1.688176,-15.61199 0.199934,-1.96226 1.032767,-5.42732 0.606422,-7.29557 -0.41708,-1.82588 -1.939751,-1.56901 -3.618658,-1.17179 -2.86791,0.67527 -5.743772,2.2893 -8.172096,3.93378 z" />
		<path d="m -40.847656,-47.921875 c -1.96359,1.418071 -3.085752,5.327986 -3.763672,7.572266 -0.55612,1.832498 -1.048878,3.90264 -1.398438,5.80664 -0.50843,2.763311 -0.813963,5.695474 -1.158203,8.470703 -0.21053,1.693475 -0.101015,3.572717 0.01563,5.271485 0.535324,3.608364 0.939402,3.911338 1.582032,6.396484 0.749409,2.698434 1.389549,5.2011384 1.53125,7.9882814 0.144329,2.863943 0.248292,5.67634935 0.195312,8.5058594 -0.053,2.97649 -0.332332,4.1725937 2.429688,5.9335937 3.68616,2.3528505 1.457546,-1.5106569 1.466796,-3.8105469 0.0197,-3.83447998 -0.387518,-7.9638615 0.169922,-11.8671875 0.1973,-1.380994 1.048107,-2.9885711 1.091797,-4.3046871 0.0079,-0.23684 -0.01474,-0.471883 -0.05078,-0.705078 0.295033,-0.325278 0.610469,-0.774296 0.951172,-1.369141 -0.56009,-0.676593 -2.307648,-5.717807 -3.267578,-5.460938 -0.153254,0.04103 -0.288333,0.09175 -0.414063,0.150391 -0.222446,-0.591978 -0.327241,-1.234052 -0.294922,-1.875 -0.1417,-0.05296 -0.27116,0.0488 -0.36914,0.0039 -1.69481,-0.775898 -2.310532,-5.777548 -1.488282,-7.294922 0.1602,0.125788 0.508878,0.294505 0.679688,0.4375 -0.13376,-0.560075 -0.191357,-1.220942 -0.154297,-1.833984 0.12974,-0.0278 0.261478,-0.05423 0.392578,-0.08203 0.12843,-0.757364 -0.272279,-1.185598 -0.380859,-1.888672 -0.3919,-2.542193 0.196937,-5.335122 0.335937,-7.894531 0.14432,-2.707703 0.261888,-5.84785 1.898438,-8.150391 z" />
		<path d="M 42.021484 -47.458984 C 41.505118 -46.475208 41.898409 -45.256544 41.585938 -44.15625 C 41.359525 -43.364462 40.672114 -42.928003 40.541016 -42.048828 C 40.306662 -40.417585 40.841733 -38.374183 40.726562 -36.658203 C 40.631208 -35.237486 40.215301 -33.993051 40.306641 -32.568359 C 40.38742 -31.291969 40.886787 -30.095775 40.960938 -28.796875 C 41.08012 -26.662488 40.134049 -25.994452 39.589844 -24.289062 C 39.21926 -23.121305 39.225224 -21.81027 39.259766 -20.492188 C 38.854967 -20.287711 38.456283 -20.073627 38.371094 -19.990234 C 37.813664 -19.448693 37.490987 -18.671459 37.25 -17.951172 C 36.733635 -16.387457 36.477977 -12.387475 38.236328 -11.361328 C 38.293238 -11.328228 38.3493 -11.298578 38.40625 -11.273438 C 38.811802 -11.092379 39.163113 -11.153238 39.470703 -11.34375 C 39.5298 -10.972663 39.601751 -10.596324 39.699219 -10.208984 C 40.72937 -6.1202874 41.619044 -0.9063625 39.9375 3.1796875 C 38.645196 6.3190275 42.224922 8.107605 44.128906 5.390625 C 45.008102 4.131455 44.371274 2.5768669 44.322266 1.1230469 C 44.318166 1.0674469 44.317606 1.011375 44.316406 0.953125 C 44.280786 -0.780075 44.503142 -2.5115748 44.46875 -4.2460938 C 44.39988 -7.6634918 45.423963 -11.2024 46.201172 -14.501953 C 46.457594 -15.593741 47.175064 -18.493497 46.552734 -20.083984 C 47.445668 -24.784368 47.492357 -30.32727 46.830078 -34.699219 C 46.460655 -37.120923 45.430058 -39.259227 44.583984 -41.527344 C 43.864995 -43.448552 43.51236 -45.941611 42.021484 -47.458984 z " />
		<path d="m -0.76171875,-70.277344 c -1.59797605,0.01208 -3.16608655,0.120416 -4.67187505,0.357422 -4.1125369,0.647467 -7.7742722,0.999428 -11.7265622,2.289063 -3.564401,1.165175 -6.941905,2.904838 -10.050782,4.990234 -6.224429,4.173435 -11.884705,10.023204 -14.634765,17.097656 -0.85533,2.201913 -1.797523,4.472027 -1.876953,6.863281 -0.0847,2.481288 0.451089,5.011958 0.417968,7.507813 -0.0213,1.549149 -0.606754,3.251178 -0.490234,4.984375 0.16684,2.490557 0.653455,4.438263 2.078125,6.392578 0.99969,1.371724 2.028386,2.378119 2.791016,3.876953 0.38134,0.745446 -0.968378,3.570503 -1.148438,4.421875 -0.223137,1.047321 -0.625951,2.1353164 -0.804687,3.2011721 -0.0092,0.020058 -0.05116,0.086903 -0.05664,0.1015625 -0.74679,1.998008 -1.354188,4.2267459 -1.080078,6.3730469 0.13769,1.052633 0.338332,1.6212325 0.351563,2.6328125 0.0225,1.7557 1.045804,3.8073544 0.677734,5.4902344 -0.52963,-1.06322 -1.377862,0.1650781 -2.107422,0.1425781 -0.34158,-0.0106 -2.599339,-1.392755 -2.537109,-1.578125 -0.45679,1.33465 -0.631735,2.8510244 -0.970703,4.1777344 1.909269,0.74147 3.783949,6.3161971 4.71875,8.0546871 0.83944,1.5624 2.35203,5.521015 3.77539,6.333985 0.0501,-0.02223 0.09721,-0.0336 0.146484,-0.05273 0.176691,1.773032 4.575093,3.204013 5.652344,3.617188 2.501127,0.95994 5.081489,1.001851 7.546875,1.832031 4.332316,1.46044 2.312045,6.321637 1.751953,9.654297 -0.316443,1.88678 0.643063,3.200301 0.927735,4.900391 0.115212,0.10195 0.519569,0.329744 0.671875,0.427734 -0.884478,-0.56273 3.269041,-1.603766 3.375,-1.628906 1.629916,-0.39986 3.251155,-0.850528 4.90625,-1.148438 3.1605042,-0.56802 6.37675,-0.700304 9.566406,-1.027344 1.7553519,-0.183568 3.64874153,-0.280071 4.52539062,-1.623046 0.0162784,0.0932 0.0199129,0.189206 0.0410156,0.28125 -0.26084378,-1.13339 4.6247918,1.026985 4.9492188,1.166015 2.049616,0.89639 4.5111,0.780406 6.705078,1.066407 2.17146,0.284669 4.355363,0.771503 6.558594,0.652343 1.063232,-0.0583 3.935184,0.660813 4.740234,0.189453 1.306839,-0.76796 0.987248,-4.441005 1.009766,-5.759765 0.04102,-2.41508 -0.742914,-5.16541 0.398437,-7.4375 1.109538,-2.2125 3.63234,-3.30593 5.855469,-4.09375 0.425552,-0.149965 1.540802,-0.609768 2.492188,-1.195313 0.563007,0.36217 4.950043,-2.623285 5.248047,-2.90625 1.280349,-1.21416 1.946512,-2.496895 3.363281,-3.546875 1.848384,-1.3704 2.065879,-2.134444 2.488281,-4.271484 0.593173,-2.9857503 2.584765,-5.7826232 2.068359,-8.8769532 -0.440908,-2.6282601 -1.804122,-1.9859932 -3.130859,-1.0644532 -0.357468,0.2476 -0.517734,0.69308 -0.941406,0.90625 -0.519026,0.26084 -1.421708,-0.011954 -1.746094,0.1601563 -0.64083,0.34293 -1.230502,1.1701337 -1.740234,1.9023437 1.353186,-1.93313 2.448135,-4.90958596 2.511718,-7.296875 0.05957,-2.276059 0.206258,-4.7750802 -0.375,-6.9902344 -0.128437,-0.4899 -0.852019,-1.8500742 -0.236328,-2.3320312 -0.21864,0.171474 -0.386288,0.405928 -0.546875,0.648438 -0.08742,-0.792911 -0.988064,-1.543732 -1.367187,-2.269532 -1.178404,-2.248255 -0.703134,-4.582274 -0.19336,-7.078125 0.180105,0.0041 0.200348,0.139339 0.367188,0.177735 1.234044,0.27408 2.811349,-5.847165 2.998047,-6.857422 0.529589,-2.848053 0.724864,-5.772832 -0.544922,-8.476563 0.304529,0.242301 0.79385,0.378528 1.132812,0.636719 0.05826,-1.363782 -0.974065,-2.577523 -0.890625,-3.908203 0.313783,0.221117 0.652496,0.261692 0.878907,0.380859 0.01474,-1.007608 -0.289147,-2.082724 -0.638672,-3.021484 0.460766,0.271436 1.090739,0.279506 1.585937,0.423828 0.304529,-1.5849 -0.433323,-3.339314 -1.078125,-4.744141 -2.036391,-4.452809 -4.426136,-8.180947 -7.386719,-12.027343 -1.576936,-2.053616 -3.577613,-3.119608 -5.648437,-4.542969 -5.03542,-3.463741 -10.329825,-5.716185 -16.347656,-6.890625 -4.4498417,-0.86792 -9.5107597,-1.702261 -14.30468775,-1.666016 z m 19.71874975,54.777344 c 0.501831,0.02121 0.995808,0.04204 1.603516,0.01953 0.887139,3.760331 5.318064,5.5590934 7.611328,8.3925784 0.209175,-0.120489 0.504238,-0.2446149 0.681641,-0.3730469 0.04107,0.619658 -0.137406,1.2715901 -0.488282,1.8144531 0.785193,-0.307182 2.379815,-0.7095937 3.150391,-1.3398437 0.210464,0.6623615 -0.130019,1.3024464 -0.371094,2.0097656 -0.05334,0.088747 -0.108363,0.1646132 -0.160156,0.2597656 -0.129746,0.238334 -0.250023,0.4828698 -0.365234,0.7304688 -0.455443,0.979804 -1.017901,2.22668 -2.292969,1.984375 0.0556,0.360148 -0.130142,0.8508612 -0.05469,1.20703122 -0.258182,-0.18669999 -0.791297,-0.19912562 -1.009765,-0.32226562 0.06354,0.28997 -0.110286,0.723005 -0.05469,1.015625 -1.461765,0.32306 -1.352041,1.1345513 -1.558593,2.3632813 -0.0728,0.4462099 -0.01868,1.3372531 -0.382813,1.6894531 -0.105918,0.10063 -1.16321,0.5200362 -1.017578,0.2539062 -0.303219,0.54816 -0.713932,0.9396944 -0.769531,1.5527344 -0.501831,0.0344 -6.254868,-0.8957638 -6.158204,-1.3710937 -1.783334,-0.630246 -1.475008,0.017705 -0.144531,2.5917968 -1.931783,-1.06454 -1.533455,-3.0903906 -2.615234,-4.7441406 -0.833218,-1.2743 -1.996646,-1.99690685 -3.162109,-2.74804688 -0.01822,-0.0734 -0.03288,-0.14194687 -0.05274,-0.21679687 -0.297528,-1.12153805 -1.112067,-3.51832835 -2.6035155,-3.49023435 0.0056,-0.167933 0.011101,-0.3346308 0.019531,-0.5117188 0.04041,-0.827715 -0.057264,-1.607464 -0.140625,-2.40625 -0.01912,0.420097 -0.2821768,0.720643 -0.5742188,1.015625 0.0051,-0.2097508 0.023421,-0.4185921 0.035156,-0.6289062 0.5821609,-0.9220748 1.3586654,-1.8470251 1.9179688,-2.4316407 2.555417,-2.6904912 6.551217,-3.7040342 8.957031,-6.3164062 z m -36.050781,0.46875 c -0.0041,0.0025 5.108542,4.069186 5.785156,4.568359 1.4937119,1.103305 3.2056526,2.0916385 4.5332034,3.4394535 -0.167138,-0.014141 -0.3317887,-0.017437 -0.4707032,-0.017578 -0.268295,-2.66e-4 -0.5804376,0.1755811 -0.9316406,0.5996094 -0.485741,0.5869698 -0.7505941,1.1851581 -0.8457031,1.8300781 -0.272881,0.690763 -0.6273046,1.4131325 -0.9003906,2.1484375 -0.2306689,0.118217 -0.4573529,0.2517845 -0.6621099,0.4296875 -1.39822,1.21415791 -1.961773,2.2207545 -2.658203,3.8652343 -0.672642,1.5915202 -0.621633,3.4890732 -1.53125,4.9707032 -0.11255,-0.28865 -1.623142,-1.7909219 -1.8125,-1.4824219 -0.438248,0.71632 -1.058879,1.4577925 -1.59375,2.0390625 -0.02661,-0.1046 -0.05347,-0.20922 -0.08008,-0.3125 -0.63821,0.45283 -1.398,1.5586487 -1.779297,2.2617188 -0.143011,-0.002 -0.124608,-0.1310432 -0.267578,-0.1269532 -0.10858,0.0516 -0.150454,0.2636475 -0.265625,0.3046875 -0.09888,-0.040217 -0.205873,-0.056631 -0.316406,-0.064453 0.637912,-0.5387531 1.235777,-1.234504 1.435547,-1.9707031 -1.014225,-0.0768 -1.6768,0.9870106 -2.673828,1.1816406 -0.884437,0.17081 -2.096528,0.023784 -2.986328,-0.041016 -0.25024,-0.52566 -0.45488,-7.3294988 0.4375,-7.0117188 -0.08868,-0.0318 -0.571825,-0.172048 -0.636719,-0.085937 0.115212,-0.14962 0.194407,-0.49421435 0.328125,-0.64648435 -1.125424,0.16551005 -0.886637,-0.5054525 -1.441406,-0.8828125 -0.247619,-0.16815 -0.468128,-0.31604813 -0.701172,-0.45507813 -0.252901,-0.14960999 -0.521122,-0.29178624 -0.857422,-0.44140624 -0.292615,-0.12975998 -1.213955,-0.51580488 -1.384766,-0.77929688 -0.286024,-0.443557 0.474083,-0.7327109 0.308594,-1.0292969 -0.367168,-0.659392 -1.333525,-0.9302519 -1.951172,-1.359375 0.100765,0.054711 0.189189,0.1115524 0.292969,0.1660156 2.236354,1.171795 1.886723,0.7111223 3.728515,-1.3398437 1.745087,-1.94107 3.975915,-3.7947108 5.388672,-5.9648435 -0.202583,-0.04502 -0.414539,-0.05045 -0.621093,-0.07031 1.235313,-0.794438 2.390543,-1.762991 3.533203,-2.941406 0.07681,0.148297 0.134065,0.297911 0.214844,0.431641 0.377365,-0.459447 0.899529,-0.921598 1.382812,-1.212891 z m 19.3339844,17.0449219 c 0.6156207,-0.09353 1.04362,0.5872118 0.9648437,1.2753906 -0.00323,0.042846 0.4781667,0.097232 0.9082031,0.1054687 0.1347058,0.6729229 0.3457787,1.3216875 0.6796876,1.9433594 1.298897,2.41375 0.5027183,4.7145944 0.5371093,7.2792974 0.01986,1.586218 0.3829755,3.153734 0.8847657,4.677734 0.446231,1.36378 1.0900326,2.652743 1.0859374,4.001953 0,0.23701 -0.02012,0.475827 -0.0625,0.716797 -0.2846719,1.53592 -1.4024343,3.043371 -3.0058593,3.175781 -1.6549713,0.136018 -2.6946434,-1.41911 -3.4199219,-2.910156 0.4539421,-2.320969 0.5151165,-4.4294 0.3574219,-6.964844 -0.161339,-2.58769 0.5658062,-5.7085699 -0.29296878,-8.0937499 -0.574983,0.29568 -0.59682825,0.7738231 -0.69140624,1.4082031 l 0.001953,-0.4804687 c -0.150212,2.1181695 -0.36067875,3.9188235 -0.49609375,5.9707035 -0.103869,1.53576 -0.58055744,3.347313 -0.95898435,4.777343 0.75597928,0.781998 0.6094988,2.280853 0.77148435,3.515625 -0.17272345,0.667256 -0.38959065,1.309241 -0.82812505,1.789063 -1.0248279,1.11486 -3.0159546,1.038507 -4.3691406,0.679687 -5.5292656,-1.46177 -0.038932,-9.171982 0.7460938,-12.107421 0.505761,-1.884143 -0.3490478,-3.8298111 0.2070312,-5.6503911 0.1235972,-0.4053378 0.2158415,-0.8070169 0.2988282,-1.2089844 0.3041349,-0.4450252 0.5801503,-0.9178495 0.8457031,-1.3730469 0.10858,-0.18537 1.6063926,-2.242285 1.8261719,-1.765625 0.156236,0.34426 0.3425117,0.5958557 0.4179687,0.9785156 0.74064506,-0.3642965 1.25970483,-0.1457778 1.7421875,-0.3144531 -0.00719,0.063523 -0.007748,0.1324143 -0.015625,0.1953125 1.200921,0.48196 1.3104935,-0.69973 1.5898438,-1.53125 0.094669,-0.047169 0.1874446,-0.076482 0.2753906,-0.089844 z" />
		<g style="stroke-width:0.5">
			<path d="m -20.11044,50.19746 c 0.488578,0.42238 1.942396,1.07911 2.630903,0.60113 0.815621,-0.56802 1.497512,-2.55411 0.893743,-3.43991 -2.017869,-2.96324 -6.40845,0.33499 -3.524646,2.83878 z" />
			<path d="m -15.731777,47.11638 c -0.338958,-0.71499 -1.300227,-1.47501 -2.127762,-1.46044 -0.376035,0.007 -1.625944,0.45283 -1.764972,0.86594 -0.431643,1.29625 -0.05561,3.26115 0.720286,4.47399 0.25422,0.39722 0.634226,0.85137 1.065869,1.03939 0.740152,0.32175 0.659381,0.10195 1.18371,-0.45018 0.331015,-0.35088 1.122803,-0.83681 1.277717,-1.29096 0.184044,-0.53624 -0.101951,-2.6468 -0.354848,-3.17774 z" />
			<path d="m -15.325289,46.028 c -0.965241,-0.14697 -1.563716,-0.99702 -2.158219,0.002 -0.315125,0.5283 -0.274081,1.40482 -0.207877,2.0086 0.115196,1.06586 0.954649,3.63719 2.035081,4.12047 1.384966,0.61701 2.657389,-0.58259 2.678573,-1.98609 0.0053,-0.40384 -0.460774,-1.28831 -0.541541,-1.761 -0.07944,-0.46872 -0.04502,-1.13075 -0.234358,-1.56107 -0.414431,-0.93213 -1.49619,-0.70572 -2.163513,-1.29625" />
			<path d="m -14.273987,51.28452 c 0.664679,0.76398 2.176754,2.34358 2.23766,2.30386 2.362124,-1.52796 1.938424,-7.96554 -1.478974,-8.10589 -2.523658,-0.10328 -1.803367,4.10459 -1.05395,5.43129 0.03443,0.0596 0.141673,0.19199 0.295264,0.37074 z" />
			<path d="m -7.051242,47.13889 c 0.09533,0.14697 0.164183,0.31115 0.19464,0.49387 0.170803,0.98113 -0.517708,2.73419 -0.779875,3.70737 -0.234358,0.87123 -0.460769,2.0801 -1.27639,2.58721 -1.230052,-1.03806 -3.355169,-7.15787 -0.799735,-7.67822 0.881824,-0.18007 2.158219,0.12049 2.66136,0.88977 z" />
			<path d="m -3.396837,47.14815 c 1.163848,0.62893 -0.374709,6.58853 -1.659046,6.84672 -1.264477,0.25289 -1.775564,-3.60674 -1.835148,-4.42766 -0.174775,-2.43097 1.224758,-3.64514 3.494194,-2.41906 z" />
			<path d="m 0.789839,46.84494 c 0.799735,0.2529 0.222444,3.52333 0.09269,4.09929 -0.169477,0.7534 -0.243628,2.51837 -1.02482,2.92618 -1.697446,0.88977 -2.277382,-2.56338 -2.374039,-3.50611 -0.0715,-0.68587 -0.431643,-1.61668 -0.402517,-2.27474 0.08077,-1.81528 2.499826,-1.6233 3.708691,-1.24462 z" />
			<path d="m 23.012858,50.33517 c -0.493875,0.41575 -1.956959,1.05262 -2.637527,0.56537 -0.810323,-0.57861 -1.465733,-2.57397 -0.847397,-3.45182 2.056265,-2.93412 6.401826,0.42105 3.484924,2.88645 z" />
			<path d="m 18.672591,47.19715 c 0.350876,-0.71102 1.321411,-1.45912 2.150273,-1.43131 0.374708,0.0119 1.62065,0.47401 1.753053,0.88844 0.414431,1.30288 0.01458,3.26248 -0.77987,4.46473 -0.259517,0.39324 -0.64614,0.8421 -1.07911,1.02482 -0.745445,0.31248 -0.660703,0.0927 -1.177088,-0.46607 -0.328366,-0.35484 -1.112208,-0.85137 -1.261828,-1.30684 -0.176101,-0.54154 0.137702,-2.6468 0.39457,-3.17377 z" />
			<path d="m 18.281993,46.10215 c 0.96789,-0.13373 1.574307,-0.97716 2.160864,0.0318 0.304533,0.53227 0.254219,1.4088 0.180073,2.01257 -0.132404,1.06454 -1.002314,3.62395 -2.089367,4.09267 -1.391586,0.59847 -2.649442,-0.61702 -2.652091,-2.02184 0,-0.40384 0.480635,-1.28302 0.565373,-1.75438 0.08739,-0.47004 0.05826,-1.13207 0.25422,-1.55842 0.426349,-0.92552 1.508104,-0.68586 2.180725,-1.26713" />
			<path d="m 17.161838,51.3441 c -0.67527,0.75472 -2.208533,2.31578 -2.270761,2.27473 -2.340937,-1.55841 -1.82985,-7.98937 1.590193,-8.08603 2.524985,-0.0688 1.74776,4.12842 0.982453,5.44586 -0.03443,0.0583 -0.144322,0.18934 -0.301885,0.36544 z" />
			<path d="m 9.99735,47.10446 c -0.0993,0.14432 -0.169476,0.30718 -0.202578,0.48858 -0.184044,0.98113 0.483279,2.74345 0.730878,3.71928 0.221118,0.87388 0.431643,2.0854 1.240644,2.6031 1.244619,-1.02217 3.4505,-7.11284 0.903008,-7.66762 -0.88182,-0.18935 -2.160864,0.094 -2.671952,0.85666 z" />
			<path d="m 6.338974,47.06474 c -1.171791,0.61171 0.288644,6.59249 1.571659,6.8679 1.259182,0.27011 1.820584,-3.58423 1.890759,-4.4025 0.20655,-2.43098 -1.174444,-3.6597 -3.462418,-2.4654 z" />
			<path d="m 2.409166,47.10711 c -0.794437,0.26481 -0.166832,3.52597 -0.0278,4.09929 0.180072,0.75074 0.284676,2.51571 1.071166,2.91161 1.710683,0.86328 2.236338,-2.59913 2.318427,-3.54451 0.05958,-0.68719 0.406488,-1.62198 0.366766,-2.28003 -0.11122,-1.81661 -2.526308,-1.58623 -3.728551,-1.18636 z" />
			<path d="m -19.711899,41.04954 c -0.231711,-0.15359 -0.483282,-0.26349 -0.754714,-0.31116 -0.90963,1.76762 -0.90963,5.10293 -0.312479,7.05194 0.121814,0.3906 2.160866,-0.96921 2.293272,-1.13074 0.512411,-0.61437 0.631576,-1.12678 0.606419,-1.91592 -0.03045,-1.03276 -0.677918,-2.92485 -1.832498,-3.69412 z" />
			<path d="m -17.557654,47.34279 c 3.518026,-1.38496 1.412771,-8.84604 -0.643494,-6.07876 -0.54154,0.72691 -1.023498,6.7355 0.643494,6.07876 z" />
			<path d="m -12.371313,45.62946 c 0.857991,-2.25355 -0.848722,-6.53159 -3.036068,-4.64878 -1.038063,0.8911 -1.067193,5.42335 0.470041,5.81792 1.403503,0.35882 2.208531,-0.22774 2.566027,-1.16914 z" />
			<path d="m -10.313724,39.62352 c -0.794436,-0.12446 -1.659047,0.21715 -2.127764,1.12281 -0.611715,1.17576 -0.01324,2.63885 0.474014,3.80667 0.168155,0.40384 1.90797,2.57397 1.861628,2.72094 0.587882,-1.78483 1.951663,-4.15622 1.473678,-6.09597 -0.21847,-0.88712 -0.917573,-1.43528 -1.681556,-1.55445 z" />
			<path d="m -5.329963,45.44409 c 1.016878,-0.85137 0.732205,-4.50313 0.177424,-5.53192 -0.940082,-1.74114 -2.715647,-0.53095 -3.148614,0.93743 -0.432968,1.45912 -0.40781,3.49552 -0.06091,4.96787 1.489567,0.30322 2.446862,0.11652 3.032097,-0.37338 z" />
			<path d="m 1.310196,44.49606 c -0.214498,-3.26645 -0.967888,-8.16415 -3.159206,-6.8957 -2.356826,1.36113 -2.777878,4.95993 -2.675925,7.22539 0.07547,1.70275 0.317774,1.9477 2.192643,2.19265 0.259516,0.0344 3.694126,0.15624 3.698099,0.09 0.02913,-0.31512 0.02913,-1.33995 -0.05561,-2.61237 z" />
			<path d="m 22.297866,40.10416 c 0.223766,-0.16551 0.471365,-0.28865 0.737501,-0.34955 0.999665,1.71863 1.165173,5.04864 0.672622,7.02546 -0.101952,0.39722 -2.205883,-0.858 -2.348882,-1.01291 -0.542864,-0.58788 -0.685862,-1.09367 -0.703075,-1.88281 -0.02118,-1.03145 0.529624,-2.95266 1.641834,-3.78019 z" />
			<path d="m 20.469339,46.49937 c -3.585553,-1.2049 -1.864275,-8.76263 0.332339,-6.10392 0.575966,0.69778 1.363782,6.67194 -0.332339,6.10392 z" />
			<path d="m 15.200906,45.05085 c -0.973184,-2.20721 0.515059,-6.56602 2.796414,-4.7984 1.081757,0.83813 1.341272,5.36112 -0.174776,5.83513 -1.380994,0.43032 -2.2178,-0.11386 -2.621638,-1.03673 z" />
			<path d="m 12.838784,39.15745 c 0.787815,-0.16153 1.668315,0.13373 2.184698,1.01423 0.669974,1.14267 0.146971,2.63488 -0.279377,3.82521 -0.149618,0.41179 -1.776888,2.66666 -1.722601,2.81231 -0.677919,-1.75306 -2.156894,-4.05295 -1.782185,-6.01256 0.172128,-0.89771 0.842103,-1.4803 1.599465,-1.63919 z" />
			<path d="m 8.158233,45.22562 c -1.059248,-0.79973 -0.959944,-4.46208 -0.459449,-5.51736 0.850046,-1.78748 2.685193,-0.66997 3.193632,0.77458 0.505791,1.4366 0.58391,3.47301 0.30983,4.96125 -1.47103,0.37736 -2.437594,0.23965 -3.044013,-0.21847 z" />
			<path d="m 1.478352,44.61788 c 0.04767,-3.27308 0.550808,-8.20388 2.804358,-7.0493 2.423029,1.23932 3.025476,4.81296 3.038717,7.07975 0.01059,1.70407 -0.217146,1.96093 -2.078774,2.30254 -0.256867,0.0477 -3.676913,0.34426 -3.68883,0.27938 -0.04369,-0.31513 -0.09401,-1.3373 -0.075471,-2.61237 z" />
		</g>
		<path style="opacity:0.65;fill:#000000;stroke:none;" d="m 31.553051,5.62432 c 2.846722,-2.36874 4.488552,-6.07082 4.556066,-10.45345 0.0477,-3.099623 -2.468047,-7.249226 -4.561348,-9.282985 -4.587878,-4.468699 -11.782844,-5.060554 -17.722557,-4.287304 -4.213174,0.548161 -8.393226,0.807678 -8.613004,6.469356 -0.299248,7.626584 3.51007,15.514003 10.377988,18.841373 2.807009,1.36113 5.975456,1.73319 9.039337,1.46043 2.746086,-0.24495 5.085697,-1.21946 6.923518,-2.74742 z" />
		<path style="opacity:0.65;fill:#000000;stroke:none;" d="m -6.205185,-4.602719 c 0.952033,-3.524646 3.511422,-12.291245 -1.840441,-13.762276 -2.184684,-0.599797 -4.378663,-0.113869 -6.584515,-0.341606 -2.166178,-0.22244 -3.749747,-1.354513 -5.880183,-0.92287 -3.25717,0.658058 -7.803983,0.920221 -10.138312,3.50214 -2.944694,3.25586 -5.034064,7.887424 -5.774224,12.187969 -0.51239,2.983102 0.96657,8.323042 2.61106,10.973802 1.79143,2.88645 6.246902,3.47169 9.324007,3.2466 9.088345,-0.66468 15.92052,-6.12642 18.282608,-14.883759 z" />
	</g>
</defs>
<use id="background" fill="#000" xlink:href="#shield" />
<use fill="#ff0" xlink:href="#saltire"/>
<use fill="url(#red)" xlink:href="#saltire"/>
<use fill="url(#red2)" xlink:href="#saltire"/>
<use fill="url(#red3)" xlink:href="#saltire"/>
<use xlink:href="#skull" x="300" y="90"/>
<use xlink:href="#skull" x="80" y="300"/>
<use xlink:href="#skull" x="520" y="300"/>
<use xlink:href="#skull" x="300" y="530"/>
<use id="shine" fill="url(#rg)" stroke="#000" stroke-width="3" xlink:href="#shield" />
</svg>