<?xml version="1.0" encoding="UTF-8"?>
<svg xmlns="http://www.w3.org/2000/svg" xmlns:xlink="http://www.w3.org/1999/xlink" width="600" height="660">
<defs>
  <radialGradient id="rg" gradientUnits="userSpaceOnUse" cx="220" cy="220" r="405">
    <stop style="stop-color:#fff;stop-opacity:.3" offset="0"/>
    <stop style="stop-color:#fff;stop-opacity:.2" offset=".2"/>
    <stop style="stop-color:#666;stop-opacity:.1" offset=".6"/>
    <stop style="stop-color:#000;stop-opacity:.13" offset="1"/>
  </radialGradient>
  <path id="shield" d="m2,2v257c0,286 298,398 298,398c0,0 298-112 298-398V2z"/>
</defs>
<use xlink:href="#shield" style="fill:#994400"/>
<g style="stroke-width:1;stroke-linecap:round;stroke-linejoin:round;">
  <path style="fill:#ffdd00;stroke:#937f00;" d="m 85.396127,343.71647 -30.258682,-173.63828 79.138095,150.36237 -11.17244,-174.56932 74.48291,168.05207 14.43106,-185.27624 52.60356,181.08657 35.37938,-186.67279 35.37938,186.67279 52.60356,-181.08657 14.43106,185.27624 74.48291,-168.05207 -11.17244,174.56932 79.1381,-150.36237 -30.25868,173.63828 z"/>
  <path style="fill:#e3c500;stroke:#937f00;" d="m 292.55172,121.6643 -29.79317,155.01755 -43.29319,-150.36237 c -1.39655,-3.72414 -4.65518,-6.05174 -8.37933,-5.58622 -3.72414,0.46552 -6.51725,3.25863 -6.98277,6.98278 l -12.10347,155.01755 -61.91392,-140.12097 c -1.39655,-3.25863 -5.1207,-5.1207 -8.84484,-4.18967 -3.72415,0.93104 -6.05174,4.18967 -6.05174,7.91381 l 8.84484,138.2589 -61.913912,-118.24162 c -1.862073,-3.25862 -6.051737,-5.12069 -9.775882,-3.72414 -3.258627,1.39655 -5.586218,5.1207 -4.655182,8.84484 19.551763,38.1725 0.465518,0.46552 24.672464,48.41389 l 54.931142,103.81056 c 1.86208,3.25863 5.58622,5.1207 9.31037,4.18966 3.25862,-0.93103 5.58621,-4.65518 5.58621,-7.91381 l -8.37933,-131.27613 56.32771,128.48302 c 3.72414,8.84485 15.3621,6.51726 14.89658,-2.32759 l 11.17244,-143.3796 40.96559,140.58649 c 1.86208,6.51726 4.18967,8.37933 8.37933,8.37933 3.25863,-0.93103 5.1207,-2.79311 6.51726,-9.31036 l 27.93109,-146.63823 27.93109,146.63823 c 1.39656,6.51725 3.25863,8.37933 6.51726,9.31036 4.18966,0 6.51725,-1.86207 8.37933,-8.37933 l 40.96559,-140.58649 11.17244,143.3796 c -0.46552,8.84485 11.17244,11.17244 14.89658,2.32759 l 56.32771,-128.48302 -8.37933,131.27613 c 0,3.25863 2.32759,6.98278 5.58621,7.91381 3.72415,0.93104 7.44829,-0.93103 9.31037,-4.18966 l 54.93115,-103.81056 c 24.20694,-47.94837 5.1207,-10.24139 24.67246,-48.41389 0.93104,-3.72414 -1.39655,-7.44829 -4.65518,-8.84484 -3.72415,-1.39655 -7.91381,0.46552 -9.77588,3.72414 l -61.91392,118.24162 8.84484,-138.2589 c 0,-3.72414 -2.32759,-6.98277 -6.05174,-7.91381 -3.72414,-0.93103 -7.44829,0.93104 -8.84484,4.18967 l -61.91392,140.12097 -12.10347,-155.01755 c -0.46552,-3.72415 -3.25863,-6.51726 -6.98277,-6.98278 -3.72415,-0.46552 -6.98278,1.86208 -8.37933,5.58622 l -43.29319,150.36237 -29.79317,-155.01755 c -0.46551,-3.72415 -3.72414,-6.05174 -7.44829,-6.05174 -3.72415,0 -6.98278,2.32759 -7.44829,6.05174 z"/>
  <path style="fill:#ffdd00;stroke:#937f00;" d="m 91.447863,401.44072 -13.500027,-65.17254 c 74.017384,-7.91381 148.500294,-12.10347 222.052174,-12.10347 73.55188,0 148.03479,4.18966 222.05218,12.10347 l -13.50003,65.17254 c -73.55187,-6.51725 -134.47994,-8.84484 -208.55215,-8.84484 -74.07221,0 -135.00028,2.32759 -208.552147,8.84484 z"/>
  <path style="fill:#e3c500;stroke:#937f00;" d="m 267.41373,401.90624 c -33.51731,0.46552 -67.03462,0.93104 -100.55192,3.25863 -24.67247,1.86207 -52.60356,3.72415 -76.344984,7.44829 -6.517254,-3.25863 -6.051736,-7.44829 -2.793109,-12.10347 25.137983,-3.25863 53.534593,-5.58622 77.741533,-7.44829 h 0.46552 v 0 c 33.51731,-1.86208 67.50014,-2.79311 101.48296,-3.25863 21.72419,0 43.44837,0 65.17256,0 33.98282,0.46552 67.96565,1.39655 101.48296,3.25863 v 0 h 0.46552 c 24.20694,1.86207 52.60355,4.18966 77.74154,7.44829 3.25862,4.65518 3.72414,8.84484 -2.79311,12.10347 -23.74143,-3.72414 -51.67252,-5.58622 -76.34499,-7.44829 -33.5173,-2.32759 -67.03461,-2.79311 -100.55192,-3.25863 -21.72419,0 -43.44837,0 -65.17256,0 z"/>
  <path style="fill:#e3c500;stroke:#937f00;" d="m 265.08614,333.94059 c -36.31042,0.46552 -72.15532,1.86207 -108.00021,3.72414 -26.53454,2.3276 -56.79322,4.18967 -82.396722,7.91381 -6.982772,-3.25862 -6.517254,-7.44829 -2.793109,-12.10347 26.534534,-3.72415 57.258741,-5.58622 83.793271,-7.44829 v 0 0 c 36.31042,-2.32759 72.62084,-3.72415 109.39677,-4.18966 23.27591,0 46.55183,0 69.82774,0 36.77593,0.46551 73.08635,1.86207 109.39677,4.18966 v 0 0 c 26.53453,1.86207 57.25874,3.72414 83.79328,7.44829 3.72414,4.65518 4.18966,8.84485 -2.79311,12.10347 -25.60351,-3.72414 -55.86219,-5.58621 -82.39673,-7.91381 -35.84489,-1.86207 -71.68979,-3.25862 -108.00021,-3.72414 -23.27591,0 -46.55183,0 -69.82774,0 z"/>
  <g>
    <path style="fill:#e3c500;stroke:#937f00;" d="m 86.310489,391.07139 c 0,0 3.260689,1.30947 3.260689,1.30947 0,0 4.723608,-11.76497 4.723608,-11.76497 0,0 -3.874091,-18.70251 -3.874091,-18.70251 0,0 -9.008451,-8.92047 -9.008451,-8.92047 0,0 -2.473207,2.49217 -2.473207,2.49217 0,0 7.371452,35.58631 7.371452,35.58631"/>
    <path style="fill:#00b100;stroke:none;" d="m 78.991641,369.84716 c 0,0 1.661101,8.01911 1.661101,8.01911 0,0 9.987647,2.42321 9.987647,2.42321 0,0 -3.444724,-16.6297 -3.444724,-16.6297 0,0 -8.204024,6.18738 -8.204024,6.18738"/>
    <path style="fill:#00dd00;stroke:none;" d="m 75.702776,366.41971 c 0,0 3.288865,3.42745 3.288865,3.42745 0,0 1.661101,8.01911 1.661101,8.01911 0,0 -1.654907,4.46062 -1.654907,4.46062 0,0 -3.295059,-15.90718 -3.295059,-15.90718"/>
    <path style="fill:#009b00;stroke:none;" d="m 78.997838,382.32691 c 0,0 1.654904,-4.46064 1.654904,-4.46064 0,0 9.987644,2.4232 9.987644,2.4232 0,0 -4.3299,10.78191 -4.3299,10.78191 0,0 -7.312648,-8.74447 -7.312648,-8.74447 m -3.295059,-15.90718 c 0,0 3.288862,3.42743 3.288862,3.42743 0,0 8.204024,-6.18738 8.204024,-6.18738 0,0 -8.256628,-8.1747 -8.256628,-8.1747 0,0 -3.236258,10.93465 -3.236258,10.93465"/>
    <path style="fill:none;stroke:#007200;" d="m 78.997842,382.32692 c 0,0 1.6549,-4.46065 1.6549,-4.46065 0,0 -1.661101,-8.01911 -1.661101,-8.01911 0,0 -3.288865,-3.42745 -3.288865,-3.42745 m 3.295066,15.90721 c 0,0 7.312648,8.74448 7.312648,8.74448 0,0 4.3299,-10.78191 4.3299,-10.78191 0,0 -3.444724,-16.62971 -3.444724,-16.62971 0,0 -8.256627,-8.1747 -8.256627,-8.1747 0,0 -3.236256,10.93466 -3.236256,10.93466 0,0 3.295059,15.90718 3.295059,15.90718 m 1.6549,-4.46065 c 0,0 9.987647,2.42321 9.987647,2.42321 m -11.648748,-10.44232 c 0,0 8.204024,-6.18738 8.204024,-6.18738"/>
  </g>
  <g>
    <path style="fill:#e3c500;stroke:#937f00;" d="m 203.49639,385.47108 c 0,0 1.05738,-1.13057 1.05738,-1.13057 0,0 1.40986,-1.50742 1.40986,-1.50742 0,0 8.86133,-9.47462 8.86133,-9.47462 0,0 -0.66291,-19.81924 -0.66291,-19.81924 0,0 -12.11262,-11.32856 -12.11262,-11.32856 0,0 -47.49448,2.55278 -47.49448,2.55278 0,0 -11.00535,12.40692 -11.00535,12.40692 0,0 1.18502,19.7948 1.18502,19.7948 0,0 12.40693,11.00533 12.40693,11.00533 0,0 46.35484,-2.49942 46.35484,-2.49942"/>
    <path style="fill:#00b100;stroke:none;" d="m 201.82434,381.78779 c 0,0 9.21379,-9.85146 9.21379,-9.85146 0,0 -0.55941,-16.72501 -0.55941,-16.72501 0,0 -9.85148,-9.21378 -9.85148,-9.21378 0,0 -44.30376,2.40393 -44.30376,2.40393 0,0 -8.9509,10.09083 -8.9509,10.09083 0,0 1.00001,16.70437 1.00001,16.70437 0,0 10.09085,8.9509 10.09085,8.9509 0,0 43.3609,-2.35978 43.3609,-2.35978"/>
    <path style="fill:#00dd00;stroke:none;" d="m 197.36554,371.96553 c 0,0 -35.37708,1.98739 -35.37708,1.98739 0,0 -3.91462,-3.4724 -3.91462,-3.4724 0,0 -0.50666,-8.46322 -0.50666,-8.46322 0,0 3.4724,-3.91462 3.4724,-3.91462 0,0 35.79516,-2.00697 35.79516,-2.00697 0,0 3.82176,3.57438 3.82176,3.57438 0,0 0.28341,8.47368 0.28341,8.47368 0,0 -3.57438,3.82176 -3.57438,3.82176"/>
    <path style="fill:#009b00;stroke:none;" d="m 196.83474,356.09582 c 0,0 3.79251,-10.09821 3.79251,-10.09821 0,0 9.85147,9.21378 9.85147,9.21378 0,0 -9.82222,4.45881 -9.82222,4.45881 0,0 -3.82176,-3.57438 -3.82176,-3.57438 m -49.46216,2.39654 c 0,0 10.19461,3.52504 10.19461,3.52504 0,0 3.47239,-3.91462 3.47239,-3.91462 0,0 -4.71609,-9.70125 -4.71609,-9.70125 0,0 -8.95091,10.09083 -8.95091,10.09083 m 11.09086,25.65516 c 0,0 3.52502,-10.19461 3.52502,-10.19461 0,0 -3.91462,-3.4724 -3.91462,-3.4724 0,0 -9.70124,4.71611 -9.70124,4.71611 0,0 10.09084,8.9509 10.09084,8.9509 m 43.36091,-2.35977 c 0,0 -4.4588,-9.82222 -4.4588,-9.82222 0,0 3.57438,-3.82176 3.57438,-3.82176 0,0 10.09821,3.79252 10.09821,3.79252 0,0 -9.21379,9.85146 -9.21379,9.85146"/>
    <path style="fill:none;stroke:#007200;" d="m 201.82434,381.78776 c 0,0 9.21379,-9.85146 9.21379,-9.85146 0,0 -0.55941,-16.72501 -0.55941,-16.72501 0,0 -9.85148,-9.21378 -9.85148,-9.21378 0,0 -44.30376,2.40393 -44.30376,2.40393 0,0 -8.95091,10.09083 -8.95091,10.09083 0,0 1.00002,16.70437 1.00002,16.70437 0,0 10.09084,8.95089 10.09084,8.95089 0,0 43.36091,-2.35977 43.36091,-2.35977 m -4.45879,-9.82221 c 0,0 -35.37708,1.98738 -35.37708,1.98738 0,0 -3.91462,-3.47239 -3.91462,-3.47239 0,0 -0.50666,-8.46323 -0.50666,-8.46323 0,0 3.4724,-3.91463 3.4724,-3.91463 0,0 35.79515,-2.00696 35.79515,-2.00696 0,0 3.82177,3.57438 3.82177,3.57438 0,0 0.28341,8.47368 0.28341,8.47368 0,0 -3.57438,3.82177 -3.57438,3.82177 m 13.67261,-0.0293 c 0,0 -10.09821,-3.79252 -10.09821,-3.79252 m 0.88442,13.64398 c 0,0 -4.45881,-9.82222 -4.45881,-9.82222 m 13.11317,-16.75426 c 0,0 -9.82222,4.45882 -9.82222,4.45882 m -0.0293,-13.67261 c 0,0 -3.7925,10.09821 -3.7925,10.09821 m -40.51126,-7.69428 c 0,0 4.71609,9.70124 4.71609,9.70124 m -13.667,0.38959 c 0,0 10.19463,3.52505 10.19463,3.52505 m -9.19462,13.17935 c 0,0 9.70127,-4.71611 9.70127,-4.71611 m 0.38959,13.667 c 0,0 3.52502,-10.19461 3.52502,-10.19461"/>
  </g>
  <g>
    <path style="fill:#e3c500;stroke:#937f00;" d="m 276.50155,340.71227 -1.09462,1.09463 -1.45949,1.45948 -9.17335,9.17333 v 19.83086 l 11.72746,11.72744 h 46.99689 l 11.72746,-11.72744 v -19.83086 l -11.72746,-11.72744 z"/>
    <path style="fill:#00b100;stroke:none;" d="m 278.04957,344.44954 -9.53821,9.5382 v 16.7348 l 9.53821,9.5382 h 43.90085 l 9.53822,-9.5382 v -16.7348 l -9.53822,-9.5382 z"/>
    <path style="fill:#00dd00;stroke:none;" d="m 282.17764,354.41559 h 35.64471 l 3.70023,3.70023 v 8.47864 l -3.70023,3.70024 h -35.64471 l -3.70023,-3.70024 v -8.47864 z"/>
    <path style="fill:#009b00;stroke:none;" d="m 278.04957,344.44954 4.12807,9.96605 -3.70023,3.70023 -9.96605,-4.12808 z m 43.90085,0 -4.12806,9.96605 3.70022,3.70023 9.96605,-4.12808 z m 9.53822,26.273 -9.96605,-4.12808 -3.70023,3.70024 4.12806,9.96604 z m -49.31099,-0.42785 -4.12807,9.96605 -9.53821,-9.5382 9.96605,-4.12808 z"/>
    <path style="fill:none;stroke:#007200;" d="m 321.95042,344.44954 -4.12806,9.96605 m 13.66628,-0.42785 -9.96606,4.12808 m 9.96606,12.60672 -9.96606,-4.12808 m 0.42784,13.66628 -4.12806,-9.96604 m -39.77278,9.96604 4.12807,-9.96604 m -13.66629,0.42784 9.96605,-4.12808 m -0.42784,-22.14493 4.12806,9.96605 m -13.66628,-0.42784 9.96605,4.12807 m 3.70023,-3.70023 h 35.64471 l 3.70024,3.70023 v 8.47864 l -3.70024,3.70024 h -35.64471 l -3.70023,-3.70024 v -8.47864 z m -4.12806,-9.96605 -9.53822,9.53821 v 16.73479 l 9.53822,9.5382 h 43.90083 l 9.53822,-9.5382 v -16.73479 l -9.53822,-9.53821 z"/>
  </g>
  <g>
    <path style="fill:#e3c500;stroke:#937f00;" d="m 396.50363,385.47108 c 0,0 -1.05738,-1.13057 -1.05738,-1.13057 0,0 -1.40986,-1.50742 -1.40986,-1.50742 0,0 -8.86133,-9.47462 -8.86133,-9.47462 0,0 0.66291,-19.81924 0.66291,-19.81924 0,0 12.11262,-11.32856 12.11262,-11.32856 0,0 47.49448,2.55278 47.49448,2.55278 0,0 11.00535,12.40692 11.00535,12.40692 0,0 -1.18502,19.7948 -1.18502,19.7948 0,0 -12.40693,11.00533 -12.40693,11.00533 0,0 -46.35484,-2.49942 -46.35484,-2.49942"/>
    <path style="fill:#00b100;stroke:none;" d="m 398.17568,381.78779 c 0,0 -9.21379,-9.85146 -9.21379,-9.85146 0,0 0.55941,-16.72501 0.55941,-16.72501 0,0 9.85148,-9.21378 9.85148,-9.21378 0,0 44.30376,2.40393 44.30376,2.40393 0,0 8.9509,10.09083 8.9509,10.09083 0,0 -1.00001,16.70437 -1.00001,16.70437 0,0 -10.09085,8.9509 -10.09085,8.9509 0,0 -43.3609,-2.35978 -43.3609,-2.35978"/>
    <path style="fill:#00dd00;stroke:none;" d="m 402.63448,371.96553 c 0,0 35.37708,1.98739 35.37708,1.98739 0,0 3.91462,-3.4724 3.91462,-3.4724 0,0 0.50666,-8.46322 0.50666,-8.46322 0,0 -3.4724,-3.91462 -3.4724,-3.91462 0,0 -35.79516,-2.00697 -35.79516,-2.00697 0,0 -3.82176,3.57438 -3.82176,3.57438 0,0 -0.28341,8.47368 -0.28341,8.47368 0,0 3.57438,3.82176 3.57438,3.82176"/>
    <path style="fill:#009b00;stroke:none;" d="m 403.16528,356.09582 c 0,0 -3.79251,-10.09821 -3.79251,-10.09821 0,0 -9.85147,9.21378 -9.85147,9.21378 0,0 9.82222,4.45881 9.82222,4.45881 0,0 3.82176,-3.57438 3.82176,-3.57438 m 49.46216,2.39654 c 0,0 -10.19461,3.52504 -10.19461,3.52504 0,0 -3.47239,-3.91462 -3.47239,-3.91462 0,0 4.71609,-9.70125 4.71609,-9.70125 0,0 8.95091,10.09083 8.95091,10.09083 m -11.09086,25.65516 c 0,0 -3.52502,-10.19461 -3.52502,-10.19461 0,0 3.91462,-3.4724 3.91462,-3.4724 0,0 9.70124,4.71611 9.70124,4.71611 0,0 -10.09084,8.9509 -10.09084,8.9509 m -43.36091,-2.35977 c 0,0 4.4588,-9.82222 4.4588,-9.82222 0,0 -3.57438,-3.82176 -3.57438,-3.82176 0,0 -10.09821,3.79252 -10.09821,3.79252 0,0 9.21379,9.85146 9.21379,9.85146"/>
    <path style="fill:none;stroke:#007200;" d="m 398.17568,381.78776 c 0,0 -9.21379,-9.85146 -9.21379,-9.85146 0,0 0.55941,-16.72501 0.55941,-16.72501 0,0 9.85148,-9.21378 9.85148,-9.21378 0,0 44.30376,2.40393 44.30376,2.40393 0,0 8.95091,10.09083 8.95091,10.09083 0,0 -1.00002,16.70437 -1.00002,16.70437 0,0 -10.09084,8.95089 -10.09084,8.95089 0,0 -43.36091,-2.35977 -43.36091,-2.35977 m 4.45879,-9.82221 c 0,0 35.37708,1.98738 35.37708,1.98738 0,0 3.91462,-3.47239 3.91462,-3.47239 0,0 0.50666,-8.46323 0.50666,-8.46323 0,0 -3.4724,-3.91463 -3.4724,-3.91463 0,0 -35.79515,-2.00696 -35.79515,-2.00696 0,0 -3.82177,3.57438 -3.82177,3.57438 0,0 -0.28341,8.47368 -0.28341,8.47368 0,0 3.57438,3.82177 3.57438,3.82177 m -13.67261,-0.0293 c 0,0 10.09821,-3.79252 10.09821,-3.79252 m -0.88442,13.64398 c 0,0 4.45881,-9.82222 4.45881,-9.82222 m -13.11317,-16.75426 c 0,0 9.82222,4.45882 9.82222,4.45882 m 0.0293,-13.67261 c 0,0 3.7925,10.09821 3.7925,10.09821 m 40.51126,-7.69428 c 0,0 -4.71609,9.70124 -4.71609,9.70124 m 13.667,0.38959 c 0,0 -10.19463,3.52505 -10.19463,3.52505 m 9.19462,13.17935 c 0,0 -9.70127,-4.71611 -9.70127,-4.71611 m -0.38959,13.667 c 0,0 -3.52502,-10.19461 -3.52502,-10.19461"/>
  </g>
  <g>
    <path style="fill:#e3c500;stroke:#937f00;" d="m 513.68953,391.07139 c 0,0 -3.26069,1.30947 -3.26069,1.30947 0,0 -4.72361,-11.76497 -4.72361,-11.76497 0,0 3.87409,-18.70251 3.87409,-18.70251 0,0 9.00846,-8.92047 9.00846,-8.92047 0,0 2.4732,2.49217 2.4732,2.49217 0,0 -7.37145,35.58631 -7.37145,35.58631"/>
    <path style="fill:#00b100;stroke:none;" d="m 521.00838,369.84716 c 0,0 -1.6611,8.01911 -1.6611,8.01911 0,0 -9.98765,2.42321 -9.98765,2.42321 0,0 3.44472,-16.6297 3.44472,-16.6297 0,0 8.20403,6.18738 8.20403,6.18738"/>
    <path style="fill:#00dd00;stroke:none;" d="m 524.29724,366.41971 c 0,0 -3.28886,3.42745 -3.28886,3.42745 0,0 -1.6611,8.01911 -1.6611,8.01911 0,0 1.6549,4.46062 1.6549,4.46062 0,0 3.29506,-15.90718 3.29506,-15.90718"/>
    <path style="fill:#009b00;stroke:none;" d="m 521.00218,382.32691 c 0,0 -1.6549,-4.46064 -1.6549,-4.46064 0,0 -9.98765,2.4232 -9.98765,2.4232 0,0 4.3299,10.78191 4.3299,10.78191 0,0 7.31265,-8.74447 7.31265,-8.74447 m 3.29506,-15.90718 c 0,0 -3.28886,3.42743 -3.28886,3.42743 0,0 -8.20403,-6.18738 -8.20403,-6.18738 0,0 8.25663,-8.1747 8.25663,-8.1747 0,0 3.23626,10.93465 3.23626,10.93465"/>
    <path style="fill:none;stroke:#007200;" d="m 521.00218,382.32692 c 0,0 -1.6549,-4.46065 -1.6549,-4.46065 0,0 1.6611,-8.01911 1.6611,-8.01911 0,0 3.28886,-3.42745 3.28886,-3.42745 m -3.29506,15.90721 c 0,0 -7.31265,8.74448 -7.31265,8.74448 0,0 -4.3299,-10.78191 -4.3299,-10.78191 0,0 3.44472,-16.62971 3.44472,-16.62971 0,0 8.25663,-8.1747 8.25663,-8.1747 0,0 3.23626,10.93466 3.23626,10.93466 0,0 -3.29506,15.90718 -3.29506,15.90718 m -1.6549,-4.46065 c 0,0 -9.98765,2.42321 -9.98765,2.42321 m 11.64875,-10.44232 c 0,0 -8.20403,-6.18738 -8.20403,-6.18738"/>
  </g>
  <g>
    <path style="fill:#e3c500;stroke:#937f00;" d="m 111.7372,346.4412 c 0,0 -4.67104,5.56771 -4.67104,5.56771 0,0 0.7866,8.98194 0.7866,8.98194 0,0 5.56771,4.67105 5.56771,4.67105 0,0 8.98194,-0.7866 8.98194,-0.7866 0,0 4.67105,-5.56771 4.67105,-5.56771 0,0 -0.7866,-8.98194 -0.7866,-8.98194 0,0 -5.56771,-4.67105 -5.56771,-4.67105 0,0 -8.98195,0.7866 -8.98195,0.7866"/>
    <path style="fill:#00b100;stroke:none;" d="m 121.17875,362.52511 c 0,0 -6.96166,0.60966 -6.96166,0.60966 0,0 -4.01405,-3.36759 -4.01405,-3.36759 0,0 -0.60967,-6.96166 -0.60967,-6.96166 0,0 3.3676,-4.01404 3.3676,-4.01404 0,0 6.96166,-0.60967 6.96166,-0.60967 0,0 4.01404,3.36759 4.01404,3.36759 0,0 0.60967,6.96166 0.60967,6.96166 0,0 -3.36759,4.01405 -3.36759,4.01405"/>
    <path style="fill:#00dd00;stroke:none;" d="m 119.13957,358.60804 c 0,0 -3.59452,0.31479 -3.59452,0.31479 0,0 -1.4246,-1.19518 -1.4246,-1.19518 0,0 -0.31479,-3.59453 -0.31479,-3.59453 0,0 1.19518,-1.4246 1.19518,-1.4246 0,0 3.59452,-0.31479 3.59452,-0.31479 0,0 1.42461,1.19519 1.42461,1.19519 0,0 0.31478,3.59452 0.31478,3.59452 0,0 -1.19518,1.4246 -1.19518,1.4246"/>
    <path style="fill:#009b00;stroke:none;" d="m 124.5463,358.51101 c 0,0 -4.21194,-1.32761 -4.21194,-1.32761 0,0 -1.19517,1.4246 -1.19517,1.4246 0,0 2.03951,3.91706 2.03951,3.91706 0,0 3.3676,-4.01405 3.3676,-4.01405 m -10.32925,4.62372 c 0,0 1.32761,-4.21193 1.32761,-4.21193 0,0 -1.4246,-1.19518 -1.4246,-1.19518 0,0 -3.91706,2.03952 -3.91706,2.03952 0,0 4.01405,3.36759 4.01405,3.36759 m -4.62373,-10.32925 c 0,0 4.21194,1.32761 4.21194,1.32761 0,0 1.19518,-1.4246 1.19518,-1.4246 0,0 -2.03952,-3.91706 -2.03952,-3.91706 0,0 -3.3676,4.01405 -3.3676,4.01405 m 10.32926,-4.62372 c 0,0 -1.32762,4.21193 -1.32762,4.21193 0,0 1.42461,1.19519 1.42461,1.19519 0,0 3.91706,-2.03953 3.91706,-2.03953 0,0 -4.01405,-3.36759 -4.01405,-3.36759"/>
    <path style="fill:none;stroke:#007200;" d="m 121.17907,362.52508 c 0,0 -6.96166,0.60967 -6.96166,0.60967 0,0 -4.01404,-3.36759 -4.01404,-3.36759 0,0 -0.60968,-6.96167 -0.60968,-6.96167 0,0 3.3676,-4.01404 3.3676,-4.01404 0,0 6.96166,-0.60967 6.96166,-0.60967 0,0 4.01405,3.36759 4.01405,3.36759 0,0 0.60966,6.96166 0.60966,6.96166 0,0 -3.36759,4.01405 -3.36759,4.01405 m -2.03952,-3.9171 c 0,0 -3.59452,0.31478 -3.59452,0.31478 0,0 -1.4246,-1.19518 -1.4246,-1.19518 0,0 -0.31479,-3.59452 -0.31479,-3.59452 0,0 1.19517,-1.42461 1.19517,-1.42461 0,0 3.59453,-0.31478 3.59453,-0.31478 0,0 1.42461,1.19517 1.42461,1.19517 0,0 0.31478,3.59453 0.31478,3.59453 0,0 -1.19518,1.42461 -1.19518,1.42461 m 5.40673,-0.097 c 0,0 -4.21194,-1.32761 -4.21194,-1.32761 m 3.60227,-5.63405 c 0,0 -3.91706,2.03952 -3.91706,2.03952 m -0.097,-5.40707 c 0,0 -1.32761,4.21194 -1.32761,4.21194 m -5.63405,-3.60226 c 0,0 2.03952,3.91706 2.03952,3.91706 m -5.40709,0.097 c 0,0 4.21194,1.32762 4.21194,1.32762 m -3.60227,5.63404 c 0,0 3.91706,-2.03952 3.91706,-2.03952 m 0.097,5.40709 c 0,0 1.32761,-4.21193 1.32761,-4.21193 m 5.63404,3.60227 c 0,0 -2.03951,-3.91706 -2.03951,-3.91706"/>
  </g>
  <g>
    <path style="fill:#e3c500;stroke:#937f00;" d="m 114.09307,373.34215 c 0,0 -4.67104,5.56771 -4.67104,5.56771 0,0 0.7866,8.98194 0.7866,8.98194 0,0 5.5677,4.67104 5.5677,4.67104 0,0 8.98195,-0.7866 8.98195,-0.7866 0,0 4.67105,-5.56771 4.67105,-5.56771 0,0 -0.7866,-8.98193 -0.7866,-8.98193 0,0 -5.56771,-4.67105 -5.56771,-4.67105 0,0 -8.98195,0.7866 -8.98195,0.7866"/>
    <path style="fill:#00b100;stroke:none;" d="m 123.53458,389.42592 c 0,0 -6.96167,0.60968 -6.96167,0.60968 0,0 -4.01404,-3.3676 -4.01404,-3.3676 0,0 -0.60967,-6.96166 -0.60967,-6.96166 0,0 3.36759,-4.01404 3.36759,-4.01404 0,0 6.96166,-0.60967 6.96166,-0.60967 0,0 4.01405,3.36759 4.01405,3.36759 0,0 0.60967,6.96166 0.60967,6.96166 0,0 -3.36759,4.01404 -3.36759,4.01404"/>
    <path style="fill:#00dd00;stroke:none;" d="m 121.49545,385.50892 c 0,0 -3.59453,0.31479 -3.59453,0.31479 0,0 -1.4246,-1.19518 -1.4246,-1.19518 0,0 -0.31479,-3.59452 -0.31479,-3.59452 0,0 1.19518,-1.42461 1.19518,-1.42461 0,0 3.59452,-0.31479 3.59452,-0.31479 0,0 1.4246,1.19518 1.4246,1.19518 0,0 0.31479,3.59452 0.31479,3.59452 0,0 -1.19518,1.42461 -1.19518,1.42461"/>
    <path style="fill:#009b00;stroke:none;" d="m 126.90217,385.41196 c 0,0 -4.21194,-1.32761 -4.21194,-1.32761 0,0 -1.19518,1.4246 -1.19518,1.4246 0,0 2.03952,3.91706 2.03952,3.91706 0,0 3.3676,-4.01405 3.3676,-4.01405 m -10.32926,4.62372 c 0,0 1.32762,-4.21193 1.32762,-4.21193 0,0 -1.42461,-1.19518 -1.42461,-1.19518 0,0 -3.91706,2.03952 -3.91706,2.03952 0,0 4.01405,3.36759 4.01405,3.36759 m -4.62372,-10.32925 c 0,0 4.21194,1.32762 4.21194,1.32762 0,0 1.19518,-1.42461 1.19518,-1.42461 0,0 -2.03952,-3.91706 -2.03952,-3.91706 0,0 -3.3676,4.01405 -3.3676,4.01405 m 10.32925,-4.62372 c 0,0 -1.32761,4.21194 -1.32761,4.21194 0,0 1.4246,1.19517 1.4246,1.19517 0,0 3.91706,-2.03952 3.91706,-2.03952 0,0 -4.01405,-3.36759 -4.01405,-3.36759"/>
    <path style="fill:none;stroke:#007200;" d="m 123.53494,389.426 c 0,0 -6.96166,0.60967 -6.96166,0.60967 0,0 -4.01404,-3.36759 -4.01404,-3.36759 0,0 -0.60967,-6.96166 -0.60967,-6.96166 0,0 3.36759,-4.01405 3.36759,-4.01405 0,0 6.96166,-0.60967 6.96166,-0.60967 0,0 4.01405,3.36759 4.01405,3.36759 0,0 0.60967,6.96166 0.60967,6.96166 0,0 -3.3676,4.01405 -3.3676,4.01405 m -2.03952,-3.91698 c 0,0 -3.59452,0.31479 -3.59452,0.31479 0,0 -1.4246,-1.19518 -1.4246,-1.19518 0,0 -0.31479,-3.59452 -0.31479,-3.59452 0,0 1.19517,-1.4246 1.19517,-1.4246 0,0 3.59453,-0.31479 3.59453,-0.31479 0,0 1.4246,1.19518 1.4246,1.19518 0,0 0.31479,3.59452 0.31479,3.59452 0,0 -1.19518,1.42461 -1.19518,1.42461 m 5.40673,-0.097 c 0,0 -4.21195,-1.32762 -4.21195,-1.32762 m 3.60227,-5.63404 c 0,0 -3.91706,2.03952 -3.91706,2.03952 m -0.097,-5.40711 c 0,0 -1.32762,4.21194 -1.32762,4.21194 m -5.63404,-3.60224 c 0,0 2.03952,3.91706 2.03952,3.91706 m -5.4071,0.097 c 0,0 4.21194,1.32762 4.21194,1.32762 m -3.60227,5.63405 c 0,0 3.91707,-2.03952 3.91707,-2.03952 m 0.097,5.40709 c 0,0 1.32762,-4.21194 1.32762,-4.21194 m 5.63404,3.60225 c 0,0 -2.03952,-3.91706 -2.03952,-3.91706"/>
  </g>
  <g>
    <path style="fill:#e3c500;stroke:#937f00;" d="m 234.63105,339.62555 c 0,0 -4.96433,5.30792 -4.96433,5.30792 0,0 0.30142,9.01132 0.30142,9.01132 0,0 5.30791,4.96434 5.30791,4.96434 0,0 9.01133,-0.30142 9.01133,-0.30142 0,0 5.17572,-5.21797 5.17572,-5.21797 0,0 -0.0916,-9.01597 -0.0916,-9.01597 0,0 -5.72912,-5.04963 -5.72912,-5.04963 0,0 -9.01133,0.30142 -9.01133,0.30142"/>
    <path style="fill:#00b100;stroke:none;" d="m 243.19214,356.19494 c 0,0 -6.98444,0.23364 -6.98444,0.23364 0,0 -3.82675,-3.57905 -3.82675,-3.57905 0,0 -0.23359,-6.98443 -0.23359,-6.98443 0,0 3.57904,-3.82675 3.57904,-3.82675 0,0 6.98444,-0.23359 6.98444,-0.23359 0,0 4.22309,3.6079 4.22309,3.6079 0,0 0.071,6.98803 0.071,6.98803 0,0 -3.81275,3.7943 -3.81275,3.7943"/>
    <path style="fill:#00dd00;stroke:none;" d="m 241.36702,352.17369 c 0,0 -3.60628,0.12062 -3.60628,0.12062 0,0 -1.35813,-1.27023 -1.35813,-1.27023 0,0 -0.12062,-3.60628 -0.12062,-3.60628 0,0 1.27022,-1.35813 1.27022,-1.35813 0,0 3.60628,-0.12062 3.60628,-0.12062 0,0 1.35813,1.27022 1.35813,1.27022 0,0 0.12062,3.60628 0.12062,3.60628 0,0 -1.27022,1.35814 -1.27022,1.35814"/>
    <path style="fill:#009b00;stroke:none;" d="m 247.00486,352.40065 c 0,0 -4.36801,-1.58514 -4.36801,-1.58514 0,0 -1.27022,1.35814 -1.27022,1.35814 0,0 1.82547,4.02129 1.82547,4.02129 0,0 3.81276,-3.79429 3.81276,-3.79429 m -10.79719,4.02791 c 0,0 1.55268,-4.13429 1.55268,-4.13429 0,0 -1.35813,-1.27023 -1.35813,-1.27023 0,0 -4.0213,1.82547 -4.0213,1.82547 0,0 3.82675,3.57905 3.82675,3.57905 m -4.06037,-10.56348 c 0,0 4.1343,1.55268 4.1343,1.55268 0,0 1.27022,-1.35813 1.27022,-1.35813 0,0 -1.82547,-4.0213 -1.82547,-4.0213 0,0 -3.57905,3.82675 -3.57905,3.82675 m 10.56348,-4.06036 c 0,0 -1.55268,4.13429 -1.55268,4.13429 0,0 1.35813,1.27022 1.35813,1.27022 0,0 4.41764,-1.79661 4.41764,-1.79661 0,0 -4.22309,-3.6079 -4.22309,-3.6079"/>
    <path style="fill:none;stroke:#007200;" d="m 243.19246,356.19492 c 0,0 -6.98444,0.23363 -6.98444,0.23363 0,0 -3.82674,-3.57904 -3.82674,-3.57904 0,0 -0.23359,-6.98444 -0.23359,-6.98444 0,0 3.57904,-3.82674 3.57904,-3.82674 0,0 6.98443,-0.23359 6.98443,-0.23359 0,0 4.22309,3.6079 4.22309,3.6079 0,0 0.071,6.98803 0.071,6.98803 0,0 -3.81276,3.79429 -3.81276,3.79429 m -1.82549,-4.02135 c 0,0 -3.60629,0.12063 -3.60629,0.12063 0,0 -1.35812,-1.27023 -1.35812,-1.27023 0,0 -0.12062,-3.60628 -0.12062,-3.60628 0,0 1.27021,-1.35813 1.27021,-1.35813 0,0 3.60629,-0.12062 3.60629,-0.12062 0,0 1.35813,1.27022 1.35813,1.27022 0,0 0.12062,3.60628 0.12062,3.60628 0,0 -1.27022,1.35813 -1.27022,1.35813 m 5.63784,0.22701 c 0,0 -4.36801,-1.58514 -4.36801,-1.58514 m 4.29702,-5.40288 c 0,0 -4.41764,1.79662 -4.41764,1.79662 m 0.19455,-5.40448 c 0,0 -1.55268,4.13429 -1.55268,4.13429 m -5.43175,-3.90067 c 0,0 1.82547,4.0213 1.82547,4.0213 m -5.4045,-0.19456 c 0,0 4.1343,1.55269 4.1343,1.55269 m -3.90068,5.43175 c 0,0 4.0213,-1.82547 4.0213,-1.82547 m -0.19455,5.40449 c 0,0 1.55268,-4.13429 1.55268,-4.13429 m 5.43175,3.90068 c 0,0 -1.82547,-4.0213 -1.82547,-4.0213"/>
  </g>
  <g>
    <path style="fill:#e3c500;stroke:#937f00;" d="m 235.53376,366.61452 c 0,0 -4.96433,5.30791 -4.96433,5.30791 0,0 0.30142,9.01133 0.30142,9.01133 0,0 5.30791,4.96433 5.30791,4.96433 0,0 9.01133,-0.30142 9.01133,-0.30142 0,0 4.54733,-5.20407 4.54733,-5.20407 0,0 -0.0916,-9.01597 -0.0916,-9.01597 0,0 -5.10072,-5.06353 -5.10072,-5.06353 0,0 -9.01133,0.30141 -9.01133,0.30141"/>
    <path style="fill:#00b100;stroke:none;" d="m 244.09482,383.18386 c 0,0 -6.98444,0.23359 -6.98444,0.23359 0,0 -3.82675,-3.57904 -3.82675,-3.57904 0,0 -0.23359,-6.98444 -0.23359,-6.98444 0,0 3.57904,-3.82674 3.57904,-3.82674 0,0 6.98444,-0.23364 6.98444,-0.23364 0,0 3.59469,3.6218 3.59469,3.6218 0,0 0.071,6.98803 0.071,6.98803 0,0 -3.18436,3.78039 -3.18436,3.78039"/>
    <path style="fill:#00dd00;stroke:none;" d="m 242.26974,379.16257 c 0,0 -3.60628,0.12062 -3.60628,0.12062 0,0 -1.35814,-1.27022 -1.35814,-1.27022 0,0 -0.12062,-3.60628 -0.12062,-3.60628 0,0 1.27022,-1.35814 1.27022,-1.35814 0,0 3.60628,-0.12062 3.60628,-0.12062 0,0 1.35814,1.27023 1.35814,1.27023 0,0 0.12062,3.60628 0.12062,3.60628 0,0 -1.27022,1.35813 -1.27022,1.35813"/>
    <path style="fill:#009b00;stroke:none;" d="m 247.27919,379.40351 c 0,0 -3.73962,-1.59904 -3.73962,-1.59904 0,0 -1.27022,1.35813 -1.27022,1.35813 0,0 1.82547,4.0213 1.82547,4.0213 0,0 3.18437,-3.78039 3.18437,-3.78039 m -10.16881,4.014 c 0,0 1.55269,-4.13429 1.55269,-4.13429 0,0 -1.35814,-1.27022 -1.35814,-1.27022 0,0 -4.0213,1.82547 -4.0213,1.82547 0,0 3.82675,3.57904 3.82675,3.57904 m -4.06036,-10.56347 c 0,0 4.13429,1.55268 4.13429,1.55268 0,0 1.27022,-1.35813 1.27022,-1.35813 0,0 -1.82546,-4.0213 -1.82546,-4.0213 0,0 -3.57905,3.82675 -3.57905,3.82675 m 10.56348,-4.06036 c 0,0 -1.55268,4.13429 -1.55268,4.13429 0,0 1.35813,1.27022 1.35813,1.27022 0,0 3.78925,-1.78272 3.78925,-1.78272 0,0 -3.5947,-3.62179 -3.5947,-3.62179"/>
    <path style="fill:none;stroke:#007200;" d="m 244.09519,383.18393 c 0,0 -6.98444,0.23359 -6.98444,0.23359 0,0 -3.82675,-3.57904 -3.82675,-3.57904 0,0 -0.23359,-6.98444 -0.23359,-6.98444 0,0 3.57904,-3.82674 3.57904,-3.82674 0,0 6.98444,-0.23364 6.98444,-0.23364 0,0 3.59469,3.6218 3.59469,3.6218 0,0 0.071,6.98803 0.071,6.98803 0,0 -3.18437,3.7804 -3.18437,3.7804 m -1.8255,-4.02122 c 0,0 -3.60628,0.12062 -3.60628,0.12062 0,0 -1.35813,-1.27022 -1.35813,-1.27022 0,0 -0.12062,-3.60628 -0.12062,-3.60628 0,0 1.27022,-1.35814 1.27022,-1.35814 0,0 3.60628,-0.12062 3.60628,-0.12062 0,0 1.35813,1.27023 1.35813,1.27023 0,0 0.12063,3.60628 0.12063,3.60628 0,0 -1.27023,1.35813 -1.27023,1.35813 m 5.00945,0.24094 c 0,0 -3.73962,-1.59904 -3.73962,-1.59904 m 3.66863,-5.389 c 0,0 -3.78925,1.78271 -3.78925,1.78271 m 0.19455,-5.40447 c 0,0 -1.55267,4.13429 -1.55267,4.13429 m -5.43176,-3.90069 c 0,0 1.82547,4.02129 1.82547,4.02129 m -5.40449,-0.19455 c 0,0 4.13429,1.55269 4.13429,1.55269 m -3.90068,5.43175 c 0,0 4.0213,-1.82547 4.0213,-1.82547 m -0.19455,5.40449 c 0,0 1.55269,-4.13429 1.55269,-4.13429 m 5.43175,3.90066 c 0,0 -1.82547,-4.0213 -1.82547,-4.0213"/>
  </g>
  <g>
    <path style="fill:#e3c500;stroke:#937f00;" d="m 365.36897,339.62555 c 0,0 4.96433,5.30792 4.96433,5.30792 0,0 -0.30142,9.01132 -0.30142,9.01132 0,0 -5.30791,4.96434 -5.30791,4.96434 0,0 -9.01133,-0.30142 -9.01133,-0.30142 0,0 -5.17572,-5.21797 -5.17572,-5.21797 0,0 0.0916,-9.01597 0.0916,-9.01597 0,0 5.72912,-5.04963 5.72912,-5.04963 0,0 9.01133,0.30142 9.01133,0.30142"/>
    <path style="fill:#00b100;stroke:none;" d="m 356.80788,356.19494 c 0,0 6.98444,0.23364 6.98444,0.23364 0,0 3.82675,-3.57905 3.82675,-3.57905 0,0 0.23359,-6.98443 0.23359,-6.98443 0,0 -3.57904,-3.82675 -3.57904,-3.82675 0,0 -6.98444,-0.23359 -6.98444,-0.23359 0,0 -4.22309,3.6079 -4.22309,3.6079 0,0 -0.071,6.98803 -0.071,6.98803 0,0 3.81275,3.7943 3.81275,3.7943"/>
    <path style="fill:#00dd00;stroke:none;" d="m 358.633,352.17369 c 0,0 3.60628,0.12062 3.60628,0.12062 0,0 1.35813,-1.27023 1.35813,-1.27023 0,0 0.12062,-3.60628 0.12062,-3.60628 0,0 -1.27022,-1.35813 -1.27022,-1.35813 0,0 -3.60628,-0.12062 -3.60628,-0.12062 0,0 -1.35813,1.27022 -1.35813,1.27022 0,0 -0.12062,3.60628 -0.12062,3.60628 0,0 1.27022,1.35814 1.27022,1.35814"/>
    <path style="fill:#009b00;stroke:none;" d="m 352.99516,352.40065 c 0,0 4.36801,-1.58514 4.36801,-1.58514 0,0 1.27022,1.35814 1.27022,1.35814 0,0 -1.82547,4.02129 -1.82547,4.02129 0,0 -3.81276,-3.79429 -3.81276,-3.79429 m 10.79719,4.02791 c 0,0 -1.55268,-4.13429 -1.55268,-4.13429 0,0 1.35813,-1.27023 1.35813,-1.27023 0,0 4.0213,1.82547 4.0213,1.82547 0,0 -3.82675,3.57905 -3.82675,3.57905 m 4.06037,-10.56348 c 0,0 -4.1343,1.55268 -4.1343,1.55268 0,0 -1.27022,-1.35813 -1.27022,-1.35813 0,0 1.82547,-4.0213 1.82547,-4.0213 0,0 3.57905,3.82675 3.57905,3.82675 m -10.56348,-4.06036 c 0,0 1.55268,4.13429 1.55268,4.13429 0,0 -1.35813,1.27022 -1.35813,1.27022 0,0 -4.41764,-1.79661 -4.41764,-1.79661 0,0 4.22309,-3.6079 4.22309,-3.6079"/>
    <path style="fill:none;stroke:#007200;" d="m 356.80756,356.19492 c 0,0 6.98444,0.23363 6.98444,0.23363 0,0 3.82674,-3.57904 3.82674,-3.57904 0,0 0.23359,-6.98444 0.23359,-6.98444 0,0 -3.57904,-3.82674 -3.57904,-3.82674 0,0 -6.98443,-0.23359 -6.98443,-0.23359 0,0 -4.22309,3.6079 -4.22309,3.6079 0,0 -0.071,6.98803 -0.071,6.98803 0,0 3.81276,3.79429 3.81276,3.79429 m 1.82549,-4.02135 c 0,0 3.60629,0.12063 3.60629,0.12063 0,0 1.35812,-1.27023 1.35812,-1.27023 0,0 0.12062,-3.60628 0.12062,-3.60628 0,0 -1.27021,-1.35813 -1.27021,-1.35813 0,0 -3.60629,-0.12062 -3.60629,-0.12062 0,0 -1.35813,1.27022 -1.35813,1.27022 0,0 -0.12062,3.60628 -0.12062,3.60628 0,0 1.27022,1.35813 1.27022,1.35813 m -5.63784,0.22701 c 0,0 4.36801,-1.58514 4.36801,-1.58514 m -4.29702,-5.40288 c 0,0 4.41764,1.79662 4.41764,1.79662 m -0.19455,-5.40448 c 0,0 1.55268,4.13429 1.55268,4.13429 m 5.43175,-3.90067 c 0,0 -1.82547,4.0213 -1.82547,4.0213 m 5.4045,-0.19456 c 0,0 -4.1343,1.55269 -4.1343,1.55269 m 3.90068,5.43175 c 0,0 -4.0213,-1.82547 -4.0213,-1.82547 m 0.19455,5.40449 c 0,0 -1.55268,-4.13429 -1.55268,-4.13429 m -5.43175,3.90068 c 0,0 1.82547,-4.0213 1.82547,-4.0213"/>
  </g>
  <g>
    <path style="fill:#e3c500;stroke:#937f00;" d="m 364.46626,366.61452 c 0,0 4.96433,5.30791 4.96433,5.30791 0,0 -0.30142,9.01133 -0.30142,9.01133 0,0 -5.30791,4.96433 -5.30791,4.96433 0,0 -9.01133,-0.30142 -9.01133,-0.30142 0,0 -4.54733,-5.20407 -4.54733,-5.20407 0,0 0.0916,-9.01597 0.0916,-9.01597 0,0 5.10072,-5.06353 5.10072,-5.06353 0,0 9.01133,0.30141 9.01133,0.30141"/>
    <path style="fill:#00b100;stroke:none;" d="m 355.9052,383.18386 c 0,0 6.98444,0.23359 6.98444,0.23359 0,0 3.82675,-3.57904 3.82675,-3.57904 0,0 0.23359,-6.98444 0.23359,-6.98444 0,0 -3.57904,-3.82674 -3.57904,-3.82674 0,0 -6.98444,-0.23364 -6.98444,-0.23364 0,0 -3.59469,3.6218 -3.59469,3.6218 0,0 -0.071,6.98803 -0.071,6.98803 0,0 3.18436,3.78039 3.18436,3.78039"/>
    <path style="fill:#00dd00;stroke:none;" d="m 357.73028,379.16257 c 0,0 3.60628,0.12062 3.60628,0.12062 0,0 1.35814,-1.27022 1.35814,-1.27022 0,0 0.12062,-3.60628 0.12062,-3.60628 0,0 -1.27022,-1.35814 -1.27022,-1.35814 0,0 -3.60628,-0.12062 -3.60628,-0.12062 0,0 -1.35814,1.27023 -1.35814,1.27023 0,0 -0.12062,3.60628 -0.12062,3.60628 0,0 1.27022,1.35813 1.27022,1.35813"/>
    <path style="fill:#009b00;stroke:none;" d="m 352.72083,379.40351 c 0,0 3.73962,-1.59904 3.73962,-1.59904 0,0 1.27022,1.35813 1.27022,1.35813 0,0 -1.82547,4.0213 -1.82547,4.0213 0,0 -3.18437,-3.78039 -3.18437,-3.78039 m 10.16881,4.014 c 0,0 -1.55269,-4.13429 -1.55269,-4.13429 0,0 1.35814,-1.27022 1.35814,-1.27022 0,0 4.0213,1.82547 4.0213,1.82547 0,0 -3.82675,3.57904 -3.82675,3.57904 m 4.06036,-10.56347 c 0,0 -4.13429,1.55268 -4.13429,1.55268 0,0 -1.27022,-1.35813 -1.27022,-1.35813 0,0 1.82546,-4.0213 1.82546,-4.0213 0,0 3.57905,3.82675 3.57905,3.82675 m -10.56348,-4.06036 c 0,0 1.55268,4.13429 1.55268,4.13429 0,0 -1.35813,1.27022 -1.35813,1.27022 0,0 -3.78925,-1.78272 -3.78925,-1.78272 0,0 3.5947,-3.62179 3.5947,-3.62179"/>
    <path style="fill:none;stroke:#007200;" d="m 355.90483,383.18393 c 0,0 6.98444,0.23359 6.98444,0.23359 0,0 3.82675,-3.57904 3.82675,-3.57904 0,0 0.23359,-6.98444 0.23359,-6.98444 0,0 -3.57904,-3.82674 -3.57904,-3.82674 0,0 -6.98444,-0.23364 -6.98444,-0.23364 0,0 -3.59469,3.6218 -3.59469,3.6218 0,0 -0.071,6.98803 -0.071,6.98803 0,0 3.18437,3.7804 3.18437,3.7804 m 1.8255,-4.02122 c 0,0 3.60628,0.12062 3.60628,0.12062 0,0 1.35813,-1.27022 1.35813,-1.27022 0,0 0.12062,-3.60628 0.12062,-3.60628 0,0 -1.27022,-1.35814 -1.27022,-1.35814 0,0 -3.60628,-0.12062 -3.60628,-0.12062 0,0 -1.35813,1.27023 -1.35813,1.27023 0,0 -0.12063,3.60628 -0.12063,3.60628 0,0 1.27023,1.35813 1.27023,1.35813 m -5.00945,0.24094 c 0,0 3.73962,-1.59904 3.73962,-1.59904 m -3.66863,-5.389 c 0,0 3.78925,1.78271 3.78925,1.78271 m -0.19455,-5.40447 c 0,0 1.55267,4.13429 1.55267,4.13429 m 5.43176,-3.90069 c 0,0 -1.82547,4.02129 -1.82547,4.02129 m 5.40449,-0.19455 c 0,0 -4.13429,1.55269 -4.13429,1.55269 m 3.90068,5.43175 c 0,0 -4.0213,-1.82547 -4.0213,-1.82547 m 0.19455,5.40449 c 0,0 -1.55269,-4.13429 -1.55269,-4.13429 m -5.43175,3.90066 c 0,0 1.82547,-4.0213 1.82547,-4.0213"/>
  </g>
  <g>
    <path style="fill:#e3c500;stroke:#937f00;" d="m 488.26283,346.4412 c 0,0 4.67104,5.56771 4.67104,5.56771 0,0 -0.7866,8.98194 -0.7866,8.98194 0,0 -5.56771,4.67105 -5.56771,4.67105 0,0 -8.98194,-0.7866 -8.98194,-0.7866 0,0 -4.67105,-5.56771 -4.67105,-5.56771 0,0 0.7866,-8.98194 0.7866,-8.98194 0,0 5.56771,-4.67105 5.56771,-4.67105 0,0 8.98195,0.7866 8.98195,0.7866"/>
    <path style="fill:#00b100;stroke:none;" d="m 478.82128,362.52511 c 0,0 6.96166,0.60966 6.96166,0.60966 0,0 4.01405,-3.36759 4.01405,-3.36759 0,0 0.60967,-6.96166 0.60967,-6.96166 0,0 -3.3676,-4.01404 -3.3676,-4.01404 0,0 -6.96166,-0.60967 -6.96166,-0.60967 0,0 -4.01404,3.36759 -4.01404,3.36759 0,0 -0.60967,6.96166 -0.60967,6.96166 0,0 3.36759,4.01405 3.36759,4.01405"/>
    <path style="fill:#00dd00;stroke:none;" d="m 480.86046,358.60804 c 0,0 3.59452,0.31479 3.59452,0.31479 0,0 1.4246,-1.19518 1.4246,-1.19518 0,0 0.31479,-3.59453 0.31479,-3.59453 0,0 -1.19518,-1.4246 -1.19518,-1.4246 0,0 -3.59452,-0.31479 -3.59452,-0.31479 0,0 -1.42461,1.19519 -1.42461,1.19519 0,0 -0.31478,3.59452 -0.31478,3.59452 0,0 1.19518,1.4246 1.19518,1.4246"/>
    <path style="fill:#009b00;stroke:none;" d="m 475.45373,358.51101 c 0,0 4.21194,-1.32761 4.21194,-1.32761 0,0 1.19517,1.4246 1.19517,1.4246 0,0 -2.03951,3.91706 -2.03951,3.91706 0,0 -3.3676,-4.01405 -3.3676,-4.01405 m 10.32925,4.62372 c 0,0 -1.32761,-4.21193 -1.32761,-4.21193 0,0 1.4246,-1.19518 1.4246,-1.19518 0,0 3.91706,2.03952 3.91706,2.03952 0,0 -4.01405,3.36759 -4.01405,3.36759 m 4.62373,-10.32925 c 0,0 -4.21194,1.32761 -4.21194,1.32761 0,0 -1.19518,-1.4246 -1.19518,-1.4246 0,0 2.03952,-3.91706 2.03952,-3.91706 0,0 3.3676,4.01405 3.3676,4.01405 m -10.32926,-4.62372 c 0,0 1.32762,4.21193 1.32762,4.21193 0,0 -1.42461,1.19519 -1.42461,1.19519 0,0 -3.91706,-2.03953 -3.91706,-2.03953 0,0 4.01405,-3.36759 4.01405,-3.36759"/>
    <path style="fill:none;stroke:#007200;" d="m 478.82096,362.52508 c 0,0 6.96166,0.60967 6.96166,0.60967 0,0 4.01404,-3.36759 4.01404,-3.36759 0,0 0.60968,-6.96167 0.60968,-6.96167 0,0 -3.3676,-4.01404 -3.3676,-4.01404 0,0 -6.96166,-0.60967 -6.96166,-0.60967 0,0 -4.01405,3.36759 -4.01405,3.36759 0,0 -0.60966,6.96166 -0.60966,6.96166 0,0 3.36759,4.01405 3.36759,4.01405 m 2.03952,-3.9171 c 0,0 3.59452,0.31478 3.59452,0.31478 0,0 1.4246,-1.19518 1.4246,-1.19518 0,0 0.31479,-3.59452 0.31479,-3.59452 0,0 -1.19517,-1.42461 -1.19517,-1.42461 0,0 -3.59453,-0.31478 -3.59453,-0.31478 0,0 -1.42461,1.19517 -1.42461,1.19517 0,0 -0.31478,3.59453 -0.31478,3.59453 0,0 1.19518,1.42461 1.19518,1.42461 m -5.40673,-0.097 c 0,0 4.21194,-1.32761 4.21194,-1.32761 m -3.60227,-5.63405 c 0,0 3.91706,2.03952 3.91706,2.03952 m 0.097,-5.40707 c 0,0 1.32761,4.21194 1.32761,4.21194 m 5.63405,-3.60226 c 0,0 -2.03952,3.91706 -2.03952,3.91706 m 5.40709,0.097 c 0,0 -4.21194,1.32762 -4.21194,1.32762 m 3.60227,5.63404 c 0,0 -3.91706,-2.03952 -3.91706,-2.03952 m -0.097,5.40709 c 0,0 -1.32761,-4.21193 -1.32761,-4.21193 m -5.63404,3.60227 c 0,0 2.03951,-3.91706 2.03951,-3.91706"/>
  </g>
  <g>
    <path style="fill:#e3c500;stroke:#937f00;" d="m 485.90696,373.34215 c 0,0 4.67104,5.56771 4.67104,5.56771 0,0 -0.7866,8.98194 -0.7866,8.98194 0,0 -5.5677,4.67104 -5.5677,4.67104 0,0 -8.98195,-0.7866 -8.98195,-0.7866 0,0 -4.67105,-5.56771 -4.67105,-5.56771 0,0 0.7866,-8.98193 0.7866,-8.98193 0,0 5.56771,-4.67105 5.56771,-4.67105 0,0 8.98195,0.7866 8.98195,0.7866"/>
    <path style="fill:#00b100;stroke:none;" d="m 476.46545,389.42592 c 0,0 6.96167,0.60968 6.96167,0.60968 0,0 4.01404,-3.3676 4.01404,-3.3676 0,0 0.60967,-6.96166 0.60967,-6.96166 0,0 -3.36759,-4.01404 -3.36759,-4.01404 0,0 -6.96166,-0.60967 -6.96166,-0.60967 0,0 -4.01405,3.36759 -4.01405,3.36759 0,0 -0.60967,6.96166 -0.60967,6.96166 0,0 3.36759,4.01404 3.36759,4.01404"/>
    <path style="fill:#00dd00;stroke:none;" d="m 478.50458,385.50892 c 0,0 3.59453,0.31479 3.59453,0.31479 0,0 1.4246,-1.19518 1.4246,-1.19518 0,0 0.31479,-3.59452 0.31479,-3.59452 0,0 -1.19518,-1.42461 -1.19518,-1.42461 0,0 -3.59452,-0.31479 -3.59452,-0.31479 0,0 -1.4246,1.19518 -1.4246,1.19518 0,0 -0.31479,3.59452 -0.31479,3.59452 0,0 1.19518,1.42461 1.19518,1.42461"/>
    <path style="fill:#009b00;stroke:none;" d="m 473.09786,385.41196 c 0,0 4.21194,-1.32761 4.21194,-1.32761 0,0 1.19518,1.4246 1.19518,1.4246 0,0 -2.03952,3.91706 -2.03952,3.91706 0,0 -3.3676,-4.01405 -3.3676,-4.01405 m 10.32926,4.62372 c 0,0 -1.32762,-4.21193 -1.32762,-4.21193 0,0 1.42461,-1.19518 1.42461,-1.19518 0,0 3.91706,2.03952 3.91706,2.03952 0,0 -4.01405,3.36759 -4.01405,3.36759 m 4.62372,-10.32925 c 0,0 -4.21194,1.32762 -4.21194,1.32762 0,0 -1.19518,-1.42461 -1.19518,-1.42461 0,0 2.03952,-3.91706 2.03952,-3.91706 0,0 3.3676,4.01405 3.3676,4.01405 m -10.32925,-4.62372 c 0,0 1.32761,4.21194 1.32761,4.21194 0,0 -1.4246,1.19517 -1.4246,1.19517 0,0 -3.91706,-2.03952 -3.91706,-2.03952 0,0 4.01405,-3.36759 4.01405,-3.36759"/>
    <path style="fill:none;stroke:#007200;" d="m 476.46509,389.426 c 0,0 6.96166,0.60967 6.96166,0.60967 0,0 4.01404,-3.36759 4.01404,-3.36759 0,0 0.60967,-6.96166 0.60967,-6.96166 0,0 -3.36759,-4.01405 -3.36759,-4.01405 0,0 -6.96166,-0.60967 -6.96166,-0.60967 0,0 -4.01405,3.36759 -4.01405,3.36759 0,0 -0.60967,6.96166 -0.60967,6.96166 0,0 3.3676,4.01405 3.3676,4.01405 m 2.03952,-3.91698 c 0,0 3.59452,0.31479 3.59452,0.31479 0,0 1.4246,-1.19518 1.4246,-1.19518 0,0 0.31479,-3.59452 0.31479,-3.59452 0,0 -1.19517,-1.4246 -1.19517,-1.4246 0,0 -3.59453,-0.31479 -3.59453,-0.31479 0,0 -1.4246,1.19518 -1.4246,1.19518 0,0 -0.31479,3.59452 -0.31479,3.59452 0,0 1.19518,1.42461 1.19518,1.42461 m -5.40673,-0.097 c 0,0 4.21195,-1.32762 4.21195,-1.32762 m -3.60227,-5.63404 c 0,0 3.91706,2.03952 3.91706,2.03952 m 0.097,-5.40711 c 0,0 1.32762,4.21194 1.32762,4.21194 m 5.63404,-3.60224 c 0,0 -2.03952,3.91706 -2.03952,3.91706 m 5.4071,0.097 c 0,0 -4.21194,1.32762 -4.21194,1.32762 m 3.60227,5.63405 c 0,0 -3.91707,-2.03952 -3.91707,-2.03952 m -0.097,5.40709 c 0,0 -1.32762,-4.21194 -1.32762,-4.21194 m -5.63404,3.60225 c 0,0 2.03952,-3.91706 2.03952,-3.91706"/>
  </g>
</g>
<use id="shine" xlink:href="#shield" fill="url(#rg)" stroke="#000" stroke-width="3"/>
</svg>
