<?xml version="1.0" encoding="UTF-8"?>
<svg xmlns="http://www.w3.org/2000/svg" xmlns:xlink="http://www.w3.org/1999/xlink" width="600" height="660">
<defs>
  <radialGradient id="rg" gradientUnits="userSpaceOnUse" cx="220" cy="220" r="405">
    <stop style="stop-color:#ffffff;stop-opacity:.3" offset="0"/>
    <stop style="stop-color:#ffffff;stop-opacity:.2" offset=".2"/>
    <stop style="stop-color:#666666;stop-opacity:.1" offset=".6"/>
    <stop style="stop-color:#000000;stop-opacity:.13" offset="1"/>
  </radialGradient>
  <pattern id="ermine" patternUnits="userSpaceOnUse" x="0" y="0" width="133.3" height="188.6">
    <rect width="133.3" height="188.6" style="fill:#ffffff;"/>
    <path transform="translate(33.3,47.15)scale(0.9)" id="ermine-unit" d="m 0.40009,-18.332585 c -4.60101,20.84701 -13.10288,35.56792 -22.40493,46.1743 3.90086,-1.09721 8.20181,-4.02311 12.40273,-6.6747 -2.60057,5.48605 -5.20114,10.1492 -7.70169,14.99522 1.50033,-0.54861 6.4014,-5.39463 13.00285,-12.5265 1.00022,9.78347 2.40053,14.44662 4.50099,21.12132 1.70038,-6.6747 2.90064,-11.15498 4.20093,-21.21275 4.00088,4.48028 7.80171,9.05199 13.2029,12.89223 l -7.50165,-15.54383 c 3.90086,2.46873 8.2018,5.76036 12.40272,7.13188 C 12.70279,16.869605 4.40097,2.514425 0.40009,-18.332585 Z m -11.70257,-5.66893 c -5.20115,0.27431 -10.9024,7.31474 -16.50363,1.37152 3.30072,8.13765 9.20202,4.20597 9.70213,5.48605 5.9013,9.8749 14.70323,1.82869 12.70279,-2.83446 -1.90042,-3.10876 -3.80083,-4.11454 -5.90129,-4.02311 z m 21.80479,-0.0914 c -1.8004,0.18287 -3.50077,1.28008 -5.10112,4.02311 -2.00044,4.66314 6.80149,12.70936 12.80281,2.83446 0.40009,-1.18865 6.30138,2.65159 9.60211,-5.48606 -5.60123,5.8518 -11.30248,-1.09721 -16.50363,-1.37151 -0.30006,0 -0.50011,0 -0.80017,0 z m -11.8026,-20.66414 c 7.00154,8.77769 -12.60277,12.25219 -2.00044,20.48127 4.50099,2.83446 15.10332,-3.29163 5.80128,-10.78924 -1.20026,-0.64004 4.20092,-5.02889 -3.80084,-9.69203 z"/>
    <use xlink:href="#ermine-unit" transform="translate(66.6,94.3)" />
  </pattern>
  <path id="shield" d="m2,2v257c0,286 298,398 298,398c0,0 298-112 298-398V2z"/>
</defs>
<use id="field" xlink:href="#shield" style="fill:url(#ermine);"/>
<g style="fill:#dd0000;stroke:#550000;stroke-width:1.5;stroke-linecap:round;stroke-linejoin:round;">
    <path d="m 383.5,301.57 c 1.67,21.47 34.44,37.69 38.69,48.47 4.48,7.74 8.5,16.37 5.74,24.59 -1.29,17.83 -9,33.83 -18.07,49.48 -2.49,4.31 -5.08,8.61 -7.69,12.88 -2.97,7.85 8.79,11.02 14.4,13.3 3.29,-8.56 12.71,-6.56 13.77,-7.13 1.56,-3.96 2.49,-9.86 2.19,-14.72 1.99,-7.85 1.74,-14.82 4.05,-21.04 4.23,-11.79 11.58,-23.79 16.11,-35.48 0.99,-8.66 7.97,-8.31 11.02,-15.7 3.38,-8.45 -2,-25.76 2.85,-33.53 6.07,-9.73 21.91,-9.6 29.7,-32.13" />
    <path style="fill:#990000;" d="m 387.78,454.44 c 8.24,4.82 17.33,4.78 25.43,0.65 4.76,-3.03 8.74,-7.92 5.16,-12.57 -5.56,-2.18 -10.82,-3.85 -16.91,-4.03 -4.19,5.36 -10.22,10.23 -13.68,15.95 z" />
    <path style="fill:#990000;" d="m 393.42,459.36 c 8.75,4.38 17.65,3.15 25.14,-2.59 4.28,-4.03 7.43,-10.1 3.13,-14.87 -5.78,-1.77 -11.14,-2.97 -17.26,-2.39 -3.25,6.62 -8.46,12.91 -11.01,19.85 z" />
    <path d="m 128.51,213.45 c 0,10.21 -5.97,17.36 -18.53,24.63" />
    <path d="m 228.79,308.09 c -9.37,12.69 -13.47,26.87 -16.47,41.92 -4.72,17.62 -11.1,30.43 -16.56,46.14 -4.12,14.94 -9.21,25.99 -8.45,41.33 0.84,6.47 -10.57,2.65 -7.49,9.71 0.57,3.87 -0.4,3.56 -3.95,6.4 -5.94,-1.3 -13.64,0.23 -18.45,-3.86 -2.4,3.77 -6.11,1.85 -4.22,-2.33 11.98,-9.5 12.33,-20.64 15.6,-32 1.21,-14.4 -1.97,-27.59 0.97,-41.85 -0.14,-6.12 -1.47,-11.64 -2.33,-18.3 -7.4,-20.08 -3.78,-24.7 -9.63,-36.06 -0.63,-1.36 -1.25,-2.75 -1.69,-4.18" />
    <path style="fill:#990000;" d="m 142.2,465.3 c 8.9,3.5 17.9,2 25.2,-3.3 4.3,-3.8 7.4,-9.2 3.2,-13.3 -5.9,-1.3 -11.3,-2.1 -17.4,-1.3 -3.3,5.9 -8.5,11.7 -11,17.9 z" />
    <path style="fill:#990000;" d="m 148.5,469.3 c 9.4,2.9 18,0.3 24.5,-6.5 3.6,-4.7 5.7,-11.2 0.7,-15.2 -5.9,-0.9 -11.4,-1.2 -17.4,0.3 -2.2,7.1 -6.3,14.1 -7.8,21.4 z" />
    <path style="fill:#990000;" d="m 21.213,114.41 c 3.928,11.59 12.792,13.72 21.412,14.06 8.94,0.36 18.033,0.53 26.959,-0.6 19.317,-2.46 51.016,6.37 44.816,30.62 -1.21,4.76 -8.37,6.19 -13.09,6.65 -5.177,0.52 -3.754,-6.51 -4.602,-9.92 -5.274,-21.48 -26.666,-14.81 -44.745,-15.27 -14.855,-0.38 -34.571,-6.95 -30.75,-25.54 z" />
    <path d="m 537.83,355.52 c -1.83,6.21 3.66,14.67 7.33,26.09 3.06,8.96 -3.81,18.98 -7.95,29.71 -6.11,-26.53 -2.13,-8.96 -5.49,-26.13 1.22,11.72 1.99,20.11 -6.11,31.44 -6.13,-27.15 -5.51,-43.91 2.59,-61.83 30.57,-90.13 18.95,-139.24 -25.06,-136.35 10.85,17.14 17.87,39.84 16.66,50.78 1.37,23.82 -13.3,29.77 -15.13,41.08 -1.53,9.05 10.08,22.96 10.23,32.06 0,7.98 -6.57,10.36 -4.12,18.73 0.3,12.53 -2.15,25.28 -1.53,37.81 0.3,6.63 3.36,14.1 4.58,22.11 2.14,4.38 3.52,10.18 3.68,14.44 -0.78,0.93 -10.25,2.71 -9.95,11.87 -6.11,0 -18.18,1.63 -18.49,-6.74 0.77,-4.97 1.53,-9.92 2.15,-14.86 2.44,-17.93 3.36,-35.67 -2.29,-52.63 -0.62,-8.65 -7.6,-15.06 -14.71,-20.48 -8.06,-8.35 -25.95,-9.86 -32.29,-20.82 -2.29,-4.9 -7.14,-12.1 -9.96,-15.49 -26.36,3.63 -40.2,6.65 -42.21,7.14 -8.58,21.97 -19.89,22.63 -32.65,11.48 -31.07,8.94 -45.94,1.87 -112.4,15.27 -36.54,6.91 -80.55,7.6 -107.59,-22.24 -7.08,-3.01 -25.74,-53.01 -26.55,-80.4 -13.37,7.67 -7.52,-7.89 -16.562,-6.39 -6.711,0.43 -13.512,0 -20.252,-0.15 -7.549,-0.25 -9.597,5.11 -16.658,5.68 -6.893,0.59 -13.251,2.68 -18.86,1.44 -6.265,-1.4 -11.599,-6.46 -15.649,-12.5 -3.668,-5.46 3.79,-12.77 6.908,-18.84 l 11.4,-22.25 c 4.846,-9.47 3.562,-18.05 5.946,-28.77 3.515,-15.82 16.521,-17.37 20.327,-22.15 4.538,-5.7 9.001,-9.07 15.145,-13.27 12.258,-8.34 26.975,-8.17 39.125,-0.33 27.83,-0.85 52.58,4.38 75.97,30.14 v 0 c 19.46,0 77.73,33.13 85.85,36.37 2.78,1.12 15.14,8.04 30.71,7.37 29.8,-1.29 71.3,-11.69 79.82,-12.77 27.96,-2.39 65,-9.27 88.13,4.8 37.42,7.54 68.44,16.17 73.02,54.51 3.37,31.14 -7.34,74.19 -17.11,105.07 z" />
    <path d="m 249.1,300.22 c -6.71,14.28 -7.94,28.98 -7.94,44.32 -1.2,18.21 -4.94,32.01 -7.2,48.49 -1.13,15.46 0.96,26.71 4.73,41.62 2.08,6.17 -9.86,4.65 -5.46,10.98 1.32,3.7 0.31,3.57 -2.62,7.04 -6.07,-0.15 -13.31,2.89 -18.85,-0.15 -1.62,4.15 -5.62,2.99 -4.58,-1.48 9.88,-11.67 8.05,-22.65 9.03,-34.44 -1.63,-14.37 -14.74,-25.79 -14.62,-40.36 -1.35,-5.98 -3.74,-11.1 -5.89,-17.5 -11.17,-18.22 -8.53,-23.46 -16.49,-33.46 -0.91,-1.2 -1.75,-2.43 -2.49,-3.76" />
    <path style="fill:#990000;" d="m 196.6,469.2 c 9,3.3 17.9,1.6 25.1,-4 4.2,-3.8 7.2,-9.3 2.8,-13.3 -5.8,-1.1 -11.3,-1.8 -17.3,-0.9 -3.2,6.1 -8.2,11.9 -10.6,18.2 z" />
    <path style="fill:#990000;" d="m 203.1,473 c 9.4,2.7 17.9,-0.1 24.2,-7.1 3.5,-4.8 5.5,-11.3 0.4,-15.2 -6,-0.7 -11.5,-0.9 -17.4,0.8 -2,7.1 -6,14.2 -7.2,21.5 z" />
    <path d="m 395.3,277.24 c 1.03,1.06 2.15,2.02 3.33,2.9 17.88,11.22 26.48,24.62 33.54,36.61" />
    <path style="fill:#990000;" d="m 40.469,89.838 c 2.034,12.062 10.439,15.612 18.891,17.302 8.773,1.77 17.713,3.42 26.699,3.73 19.471,0.66 49.351,14.43 39.351,37.37 -1.95,4.52 -9.25,4.76 -13.98,4.49 -5.2,-0.33 -2.66,-7.04 -2.95,-10.55 -1.78,-22.04 -23.965,-18.87 -41.738,-22.22 -14.596,-2.75 -33.012,-12.39 -26.273,-30.122 z" />
    <path d="m 150.88,241.2 c -9.19,35.87 2.68,61.3 14.87,81.34" />
    <path d="m 116.15,172.77 c 1.43,8.74 -0.43,19.68 -6.94,33.71" />
    <path style="fill:#ffffff;" d="m 58.033,182.13 c 3.285,-3.24 3.512,-3.25 6.187,-3.71 10.728,-1.8 17.407,13.17 26.653,-0.87 -1.711,-3.68 -10.835,-9.32 -17.392,-4.41 -1.559,1.2 -2.015,5.24 -6.785,4.88 -1.661,-0.12 -4.516,0.57 -5.654,1.45" />
    <path d="m 75.483,172.12 c 9.4,-1.43 14.382,-0.35 20.399,-5.06" />
    <path style="fill:#000000;stroke:none;" d="m 76.961,175.7 a 4.3395,5.3315 18.77 0 1 5.826,-3.65 4.3395,5.3315 18.77 0 1 2.397,6.44 4.3395,5.3315 18.77 0 1 -5.826,3.64 4.3395,5.3315 18.77 0 1 -2.397,-6.43 z" />
    <path d="m 103.62,155.97 c 0.95,-3.37 3.91,-4.56 9.31,-7.06 6.49,-3.05 16.38,0.41 25.69,-2.12 8.97,-2.43 17.6,-8.55 23.87,-13.48 -0.83,8.22 -15.04,44.89 -43.11,31.53 -4.33,-2.08 -9.94,5.19 -14.54,2.2" />
    <path d="m 44.535,221.84 c -3.485,6.98 -18.31,11.19 0.352,14.67 0.978,0.18 5.288,-5.38 4.524,-6.63" />
    <path d="m 51.122,247.47 c 3.072,-0.83 5.961,-0.3 8.712,-1.5 8.604,-3.76 15.878,-11.48 23.321,-23.72" />
    <path style="fill:#990000;" d="m 475.3,457.1 c 8.3,4.7 17.4,4.6 25.5,0.4 4.7,-3.1 8.6,-8 5.1,-12.6 -5.7,-2.2 -10.9,-3.8 -17,-3.9 -4.1,5.4 -10.2,10.3 -13.6,16.1 z" />
    <path style="fill:#990000;" d="m 480.9,460.9 c 8.8,4.4 17.7,3.1 25.2,-2.7 4.3,-4.1 7.3,-10.2 2.9,-14.9 -5.7,-1.8 -11.2,-2.9 -17.3,-2.3 -3.2,6.7 -8.3,13 -10.8,19.9 z" />
    <path d="m 109.9,166.28 c 2.24,-15.64 29.42,-6.79 51.21,-29.45" />
</g>
<use id="shine" xlink:href="#shield" style="fill:url(#rg);stroke:#000000;stroke-width:3;"/>
</svg>
