<?xml version="1.0" encoding="UTF-8" standalone="no"?>
<svg
   xmlns:dc="http://purl.org/dc/elements/1.1/"
   xmlns:cc="http://creativecommons.org/ns#"
   xmlns:rdf="http://www.w3.org/1999/02/22-rdf-syntax-ns#"
   xmlns:svg="http://www.w3.org/2000/svg"
   xmlns="http://www.w3.org/2000/svg"
   xmlns:xlink="http://www.w3.org/1999/xlink"
   width="600"
   height="660"
   version="1.1">
  <title>House Volmark</title>
  <metadata>
    <rdf:RDF>
      <cc:Work rdf:about="">
        <dc:format>image/svg+xml</dc:format>
        <dc:type rdf:resource="http://purl.org/dc/dcmitype/StillImage" />
        <dc:title>House Targaryen</dc:title>
        <dc:date>27 September 2020</dc:date>
        <dc:creator>
          <cc:Agent>
            <dc:title>Abjiklam (abjiklam@gmail.com)</dc:title>
          </cc:Agent>
        </dc:creator>
        <dc:description>
          The sigil of House Volmark.
          A black leviathan on grey.
        </dc:description>
        <cc:license rdf:resource="http://creativecommons.org/licenses/by-nc-sa/4.0/" />
      </cc:Work>
      <cc:License rdf:about="http://creativecommons.org/licenses/by-nc-sa/4.0/">
        <cc:permits rdf:resource="http://creativecommons.org/ns#Reproduction" />
        <cc:permits rdf:resource="http://creativecommons.org/ns#Distribution" />
        <cc:requires rdf:resource="http://creativecommons.org/ns#Notice" />
        <cc:requires rdf:resource="http://creativecommons.org/ns#Attribution" />
        <cc:prohibits rdf:resource="http://creativecommons.org/ns#CommercialUse" />
        <cc:permits rdf:resource="http://creativecommons.org/ns#DerivativeWorks" />
        <cc:requires rdf:resource="http://creativecommons.org/ns#ShareAlike" />
      </cc:License>
    </rdf:RDF>
  </metadata>
  <defs>
    <radialGradient id="rg" gradientUnits="userSpaceOnUse" cx="220" cy="220" r="405">
      <stop style="stop-color:#fff;stop-opacity:.3" offset="0"/>
      <stop style="stop-color:#fff;stop-opacity:.2" offset=".2"/>
      <stop style="stop-color:#666;stop-opacity:.1" offset=".6"/>
      <stop style="stop-color:#000;stop-opacity:.13" offset="1"/>
    </radialGradient>
    <clipPath id="clip-shield">
      <path id="shield" d="m 1.5,1.5 v 258.9 c 0,286 298.5,398 298.5,398 0,0 298.5,-112 298.5,-398 V 1.5 z"/>
    </clipPath>
  </defs>
  <use id="background" xlink:href="#shield" style="fill:#999999;"/>
  <g id="leviathan" style="fill:#000000;stroke:#666666;stroke-width:1;stroke-linecap:round;stroke-linejoin:round;">
    <path style="fill:#ffffff;" d="m 49.838554,304.30219 -12.427007,6.18565 c -1.707629,5.18365 0.757294,15.60741 3.612696,23.83016 l 10.824164,7.1438 m 0.864885,-36.88085 -12.328698,6.21526 c -1.639433,5.16726 0.841401,15.50809 3.807476,23.72919 l 11.021454,7.09636 m 0.374505,-36.76206 -12.230387,6.24488 c -1.571239,5.15087 0.925506,15.40876 4.002256,23.62822 l 11.218744,7.04892 m -0.115875,-36.64326 -12.132078,6.27449 c -1.503043,5.13449 1.009613,15.30944 4.197036,23.52725 l 11.416034,7.00148 m -0.606255,-36.52446 -12.033768,6.3041 c -1.434848,5.1181 1.093719,15.21012 4.391816,23.42629 l 11.613324,6.95403 m -1.096634,-36.40566 -11.935459,6.33371 c -1.366652,5.10171 1.177826,15.1108 4.586597,23.32532 l 11.810613,6.90659 m -1.587013,-36.28687 -11.837149,6.36333 c -1.298457,5.08532 1.261931,15.01147 4.781376,23.22435 l 12.007904,6.85915 m -2.077394,-36.16807 -11.738839,6.39294 c -1.230262,5.06893 1.346038,14.91215 4.976157,23.12338 l 12.205193,6.8117 m -2.567773,-36.04926 -11.64053,6.42255 c -1.162066,5.05255 1.430145,14.81283 5.170937,23.02241 l 12.402483,6.76426 m -3.058153,-35.93047 -11.54222,6.45217 c -1.09387,5.03616 1.514251,14.71351 5.365717,22.92144 l 12.599773,6.71682 m -3.548532,-35.81167 -11.44391,6.48178 c -1.025676,5.01977 1.598357,14.61418 5.560497,22.82047 l 12.797063,6.66938 m -4.038913,-35.69287 -11.3456,6.51139 c -0.95748,5.00338 1.682463,14.51486 5.755277,22.7195 l 12.994353,6.62194 m -4.529292,-35.57407 -11.247291,6.541 c -0.889285,4.98699 1.76657,14.41554 5.950057,22.61854 l 13.191643,6.57449 m -5.019671,-35.45528 -11.148982,6.57062 c -0.821089,4.97061 1.850676,14.31622 6.144838,22.51757 l 13.388932,6.52705 m -5.510051,-35.33648 -11.050671,6.60023 c -0.752894,4.95422 1.934782,14.21689 6.339617,22.4166 l 13.586223,6.47961 m -6.000431,-35.21768 -10.952362,6.62984 c -0.684699,4.93783 2.018888,14.11757 6.534397,22.31563 l 13.783517,6.43217 m -6.490815,-35.09889 -10.854052,6.65946 c -0.616503,4.92144 2.102995,14.01825 6.729178,22.21466 l 13.980799,6.38473 m -6.981187,-34.98009 -10.755743,6.68907 c -0.548308,4.90505 2.187102,13.91893 6.923958,22.11369 l 14.178092,6.33729 m -7.47157,-34.86129 -10.657432,6.71868 c -0.480113,4.88867 2.271207,13.8196 7.118737,22.01272 l 14.375385,6.28985 m -7.96195,-34.74249 -10.559125,6.74829 c -0.411917,4.87228 2.355314,13.72028 7.313515,21.91175 l 14.57267,6.24241 m -8.45232,-34.6237 -10.460818,6.77792 c -0.343722,4.85588 2.43942,13.62095 7.508298,21.81078 l 14.76996,6.19495 m -8.94271,-34.50489 -10.362501,6.80753 c -0.275526,4.83949 2.523531,13.52163 7.703081,21.70981 l 14.96725,6.14751 m -9.43309,-34.38609 -10.26419,6.83714 c -0.20733,4.82311 2.60763,13.4223 7.89785,21.60884 l 15.16455,6.10007 m -9.92347,-34.26729 -10.16589,6.86675 c -0.13913,4.80672 2.69174,13.32298 8.09264,21.50787 l 15.36183,6.05263 m -10.41384,-34.1485 -10.06758,6.89637 c -0.0709,4.79033 2.77585,13.22366 8.28742,21.4069 l 15.55912,6.00519 m -10.90423,-34.0297 -9.96926,6.92598 c -0.003,4.77394 2.85995,13.12434 8.4822,21.30593 l 15.75641,5.95775 m -11.39461,-33.9109 -9.87095,6.95559 c 0.0654,4.75755 2.94405,13.02501 8.67697,21.20496 l 15.95371,5.91031 m -11.88499,-33.79211 -9.77265,6.98521 c 0.13365,4.74117 3.02817,12.92569 8.87176,21.10399 l 16.15099,5.86287 m -12.37536,-33.67331 -9.67434,7.01482 c 0.20184,4.72478 3.11227,12.82637 9.06654,21.00303 l 16.34828,5.81542 m -12.86575,-33.55451 -9.57602,7.04443 c 0.27003,4.70839 3.19637,12.72705 9.26132,20.90206 l 16.54557,5.76798 m -13.35613,-33.43571 -9.47772,7.07404 c 0.33824,4.692 3.28049,12.62772 9.4561,20.80109 l 16.74286,5.72054 m -13.8465,-33.31692 -9.37941,7.10366 c 0.40643,4.67561 3.36459,12.5284 9.65088,20.70012 l 16.94015,5.6731 m -14.33688,-33.19812 -9.2811,7.13327 c 0.47462,4.65923 3.4487,12.42908 9.84566,20.59915 l 17.13744,5.62566 m -14.82727,-33.07932 -9.18278,7.16288 c 0.54281,4.64284 3.5328,12.32976 10.04044,20.49818 l 17.33473,5.57821 m -15.31765,-32.96052 -9.08448,7.1925 c 0.61102,4.62645 3.61691,12.23043 10.23522,20.39721 l 17.53202,5.53077 m -15.80802,-32.84172 -8.98617,7.22211 c 0.67921,4.61006 3.70102,12.13111 10.43,20.29624 l 17.72931,5.48333 m -16.2984,-32.72292 -8.88786,7.25172 c 0.7474,4.59367 3.78512,12.03179 10.62478,20.19528 l 17.9266,5.43588 m -16.78879,-32.60412 -8.78954,7.28133 c 0.81559,4.57729 3.86922,11.93247 10.81956,20.09431 l 18.12389,5.38844 m -17.27917,-32.48533 -8.69124,7.31095 c 0.8838,4.5609 3.95334,11.83314 11.01434,19.99334 l 18.32118,5.341 m -17.76954,-32.36653 -8.59293,7.34056 c 0.95199,4.54451 4.03744,11.73382 11.20912,19.89237 l 18.51847,5.29356"/>
    <path d="m 208.3578,357.20993 c -10.19597,1.62559 -21.78373,7.92589 -22.86757,26.89391 -0.96943,16.96573 1.66234,24.66695 -2.55278,37.85062 -7.6203,23.83408 -31.40166,17.5939 -27.29162,22.85487 4.24469,5.4333 23.23479,10.62381 37.04942,7.43041 13.81462,-3.1934 26.47803,-7.64016 34.09112,-38.34438 3.55905,-14.35394 14.21693,-18.24172 26.24551,-19.20149 9.93946,-0.79308 15.75258,0.52746 19.74218,-10.33442"/>
    <path d="m 208.3578,357.20993 c -10.19597,1.62559 -21.78373,7.92589 -22.86757,26.89391 -0.96943,16.96573 1.66234,24.66695 -2.55278,37.85062 -7.6203,23.83408 -31.40166,17.5939 -27.29162,22.85487 4.24469,5.4333 23.23479,10.62381 37.04942,7.43041 13.81462,-3.1934 26.47803,-7.64016 34.09112,-38.34438 3.55905,-14.35394 14.21693,-18.24172 26.24551,-19.20149 9.93946,-0.79308 15.75258,0.52746 19.74218,-10.33442"/>
    <path d="m 444.83032,213.95537 c 0,0 3.14194,-19.15577 19.58729,-20.34938 16.44535,-1.19361 50.66799,12.66853 74.69378,0.0844 15.83769,-8.29544 18.71775,-18.16678 20.80952,-42.93965 1.42218,-16.84299 11.07797,-34.5045 29.08061,-32.87898 -15.97359,-6.42825 -21.86684,-3.6677 -40.08353,10.20008 -13.70387,10.43229 -20.31095,13.46018 -39.89059,10.00438 -12.07695,-2.13158 -30.03692,-6.55021 -42.75254,1.14678 -8.50188,5.14633 -14.81964,19.87372 -17.05313,19.46461 -5.82872,-1.06767 3.71476,-17.28793 -6.68009,-29.58077 -12.07554,-14.28042 -22.64967,-2.75304 -40.65433,-5.46575 -20.12204,-3.03173 -22.93539,-10.8615 -39.63515,-14.06452 -16.75618,-3.21384 -26.268,1.30299 -35.93939,9.62343 18.14805,-7.31764 34.97997,7.06307 39.67468,20.97126 9.13349,27.05817 6.65522,36.96779 32.73618,39.0671 13.23961,1.06569 22.4827,9.13624 22.66466,30.09895"/>
    <path d="m 160.52722,339.44607 c 0.58063,-4.35986 -7.59703,-10.04617 -20.8848,-12.61656 -13.44789,-2.60137 -6.44625,-5.79717 -47.968735,-8.01607 -36.274268,-1.93843 -66.97415,-0.39301 -55.741789,-12.28448 3.029338,-3.20709 33.199645,-8.48658 48.250726,-11.05035 15.051078,-2.56376 58.762688,-9.42333 68.413378,-10.23225 51.33898,-4.30319 56.67775,2.89625 117.33447,-9.09524 25.5334,-5.0478 51.96438,-43.3846 69.41201,-44.89084 16.81112,-1.45129 0.74499,20.15629 -0.20577,29.18018 -0.95075,9.02387 0.96733,22.09449 22.51191,18.0906 21.54458,-4.00388 44.27004,-10.12704 55.0711,-31.38236 7.33819,-14.44076 5.18248,-27.10653 4.66857,-37.81142 -0.3001,-6.25112 -0.0403,-11.83357 2.99666,-16.71036 3.93313,-6.3158 16.16306,-16.75163 19.95284,-14.58245 4.00854,2.29438 1.96742,15.02467 0.66445,31.32008 -1.35127,16.8996 12.36756,58.22472 0.78576,88.81355 -11.26827,29.76076 -40.34243,63.4777 -89.07462,78.20629 -38.39807,17.566 -197.41445,1.36314 -196.18616,-36.93832 z"/>
    <path style="fill:none;" d="m 206.75557,285.88327 a 3.7533345,2.3196883 0 0 1 -1.07372,2.79995 3.7533345,2.3196883 0 0 1 -4.6559,0 3.7533345,2.3196883 0 0 1 -1.07373,-2.79995"/>
    <g style="fill:#111111;">
      <path d="m 147.02942,332.2521 c -4.34744,-0.84524 -8.82815,-0.5832 -7.0279,3.55985 9.6995,22.32207 93.29572,39.86388 116.52354,47.13187 70.36214,-2.24905 9.74159,-4.22106 54.0348,-17.78409 -31.42376,-0.0821 -38.89075,-5.7277 -70.07783,-9.36535 -77.8219,-9.0771 -75.67875,-20.08664 -93.45261,-23.54228 z"/>
      <path d="m 126.46449,330.25429 c -4.36331,-0.75913 -8.82815,-0.5832 -7.02789,3.55985 9.69949,22.32209 93.2209,40.9084 116.44872,48.17639 70.36214,-2.24905 9.74159,-4.22106 54.0348,-17.78408 -31.42376,-0.0821 -31.11907,-1.03785 -62.30615,-4.67549 -77.8219,-9.07711 -83.39195,-26.18717 -101.14948,-29.27667 z"/>
      <path d="m 107.87406,327.35592 c -4.3922,-0.56866 -8.828155,-0.5832 -7.02791,3.55984 9.69949,22.32209 93.09793,41.85404 116.32575,49.12203 70.36215,-2.24904 51.87757,-4.21887 96.17078,-17.7819 -31.42376,-0.0821 -67.51726,4.80558 -98.6952,1.09041 -80.53864,-9.597 -91.54391,-34.01861 -106.77342,-35.99038 z"/>
      <path d="m 92.54871,325.35267 c -4.306185,-1.03518 -8.828154,-0.5832 -7.027901,3.55984 9.699487,22.32209 51.028421,48.7106 74.256241,55.97859 70.36215,-2.24905 86.74685,-4.64291 136.19464,-15.77904 -31.42376,-0.0821 -68.31483,4.01994 -99.09411,-2.18509 -35.41837,-7.14027 -53.0975,-13.69084 -66.96606,-19.68806 -16.11617,-6.96916 -30.57015,-20.25334 -37.36281,-21.88624 z"/>
      <path d="m 77.608924,323.78626 c -4.38961,-0.58833 -8.734567,-1.06618 -6.934314,3.07686 9.699491,22.32208 50.94366,49.46544 74.17147,56.73343 139.6229,3.65201 134.25751,-1.1096 136.30154,-7.0008 -31.42376,-0.0821 -67.86149,-0.10051 -100.67107,-7.08172 -35.33978,-7.51958 -60.07768,-19.64232 -75.1372,-27.99463 -14.956889,-8.29539 -20.480146,-16.7614 -27.730426,-17.73314 z"/>
      <path d="m 62.04969,321.89862 c -4.365822,-0.74456 -8.147791,0.10563 -5.935896,2.82089 15.371666,18.86974 49.699906,49.97196 72.927716,57.23994 42.37671,13.25969 74.72281,8.58237 119.05042,11.16461 33.36352,1.94354 51.77936,-7.53447 80.32108,-15.98879 -41.53009,6.97982 -32.59457,5.03788 -64.38445,4.9548 -31.42376,-0.0821 -73.92131,-2.51011 -104.34613,-9.94418 -35.09838,-8.57602 -61.897435,-25.88628 -76.461961,-35.07457 -9.346928,-5.89669 -13.097341,-13.7958 -21.170779,-15.1727 z"/>
      <path d="m 48.71128,320.83823 c -3.527569,-0.23293 -6.287274,1.08071 -5.240583,3.47299 7.763839,17.74478 49.175764,49.55007 72.403583,56.81806 42.37671,13.25968 74.72281,8.58237 119.05042,11.16461 33.36352,1.94354 69.64591,-1.70888 99.17934,-5.43475 -51.64669,0.20812 -54.84245,-0.28052 -86.63234,-0.3636 -31.42375,-0.0821 -73.25002,-3.18564 -103.67483,-10.6197 -65.249969,-15.94333 -82.647908,-54.21638 -95.08559,-55.03761 z"/>
      <path d="m 39.734781,333.66237 c 17.666066,20.21488 47.468186,45.04461 70.695999,52.3126 42.37671,13.25969 114.29584,11.1496 147.16026,10.34041 36.09616,-0.88876 59.42762,-5.11279 76.513,-9.45624 -49.98278,3.01855 -77.50007,4.77182 -109.28996,4.68873 -31.42375,-0.0821 -62.83328,-1.34375 -101.37697,-12.18279 -37.834372,-10.63956 -63.572582,-36.66784 -79.413637,-55.00333 -6.31519,-7.30961 -16.772818,-4.9847 -4.288692,9.30062 z"/>
    </g>
    <path d="m 312.56314,345.82867 c 13.72349,6.54758 28.51153,19.39182 26.55671,42.89335 -1.74847,21.02065 -6.76567,29.18414 -3.36465,47.07218 6.14856,32.33888 34.23758,27.50374 35.39876,36.09979 1.06324,7.87103 -35.9014,6.34253 -54.31551,-3.73115 -18.4141,-10.07368 -35.01775,-21.15158 -39.90862,-61.82322 -2.28642,-19.01361 -16.23413,-28.51335 -32.59823,-35.07537 -13.52201,-5.42234 -21.75445,-6.42851 -25.26709,-21.39816"/>
    <path style="fill:#ffffff;stroke:none;" d="m 172.32989,333.18364 c 2.46327,-2.58605 4.61057,-3.20371 7.51083,-3.21677 3.73511,-0.0168 5.61161,0.98131 9.56634,3.23837 -3.06769,1.84699 -6.05497,2.68328 -9.48689,2.69875 -3.26322,0.0147 -5.60511,-0.9297 -7.59028,-2.72035 z"/>
    <path style="fill:#111111;stroke:none;" d="m 179.16941,329.84438 a 3.083153,3.083153 0 0 1 2.76338,3.35672 3.083153,3.083153 0 0 1 -3.34099,2.78238 3.083153,3.083153 0 0 1 -2.80129,-3.32516 3.083153,3.083153 0 0 1 3.30922,-2.82009"/>
    <path style="fill:#ffffff;stroke:none;" d="m 179.94573,330.67246 a 0.97028011,0.97028011 0 0 1 0.86965,1.05637 0.97028011,0.97028011 0 0 1 -1.05142,0.87562 0.97028011,0.97028011 0 0 1 -0.88158,-1.04644 0.97028011,0.97028011 0 0 1 1.04142,-0.88749"/>
    <path style="fill:none;" d="m 172.32989,333.18364 c 2.46327,-2.58605 4.61057,-3.20371 7.51083,-3.21677 3.73511,-0.0168 5.61161,0.98131 9.56634,3.23837 -3.06769,1.84699 -6.05497,2.68328 -9.48689,2.69875 -3.26322,0.0147 -5.60511,-0.9297 -7.59028,-2.72035 z"/>
  </g>
  <use id="shine" xlink:href="#shield" style="fill:url(#rg);stroke:#000000;stroke-width:3;"/>
</svg>
