<?xml version="1.0" encoding="UTF-8"?>
<svg xmlns="http://www.w3.org/2000/svg" xmlns:xlink="http://www.w3.org/1999/xlink" width="600" height="660">
<defs>
  <radialGradient id="rg" gradientUnits="userSpaceOnUse" cx="220" cy="220" r="405">
    <stop style="stop-color:#fff;stop-opacity:.3" offset="0"/>
    <stop style="stop-color:#fff;stop-opacity:.2" offset=".2"/>
    <stop style="stop-color:#666;stop-opacity:.1" offset=".6"/>
    <stop style="stop-color:#000;stop-opacity:.13" offset="1"/>
  </radialGradient>
  <path id="shield" d="m2,2v257c0,286 298,398 298,398c0,0 298-112 298-398V2z"/>
</defs>
<use id="shine" xlink:href="#shield" fill="#000"/>
<g stroke="#222" stroke-width="1">
  <path fill="#eee" d="m 203.9541,243.36596 c -1.70652,-29.06978 43.51241,-74.41089 73.98769,-94.80133 35.97229,-24.0684 56.77752,-19.83507 56.61254,-20.13951 -7.73909,-14.28163 -48.80895,-9.68432 -66.30546,-2.96618 -49.53912,19.02156 -106.19485,80.30682 -120.25227,104.94617 -0.69817,1.22372 0.3047,11.56695 6.30114,16.7287 6.84626,5.89326 7.80469,6.54597 12.03338,8.97561 0.90445,0.51966 6.63627,-5.81114 7.09572,-5.97472 0.31199,-0.11108 -10.22906,-9.7458 -0.27445,-15.88901 8.69599,-5.3665 16.7422,10.70899 16.77808,10.63808 0.2978,-0.58851 14.05883,-0.9182 14.02363,-1.51781 z"/>
  <path fill="none" d="m 157.28286,232.818 c 1.39387,-2.5169 71.20518,-98.92147 136.82404,-112.87999"/>
  <path fill="#aaa" d="m 172.65461,250.42151 c 0,0 122.73203,118.42679 122.86625,118.34179 3.46586,-2.19478 17.62109,-20.72611 27.19729,-25.33079 3.9374,-1.89329 9.52677,4.10376 8.74844,7.09608 -0.78153,3.00461 -25.47984,28.98799 -25.14354,29.33724 0.62068,4.53253 76.69785,80.78864 76.76263,80.80664 10.83065,3.0096 10.81085,14.29635 6.09374,18.29962 -3.74434,3.1777 -14.85966,4.01478 -18.5686,-9.53612 -0.43457,-1.58775 -47.83747,-50.24802 -72.14259,-75.2289 L 283.37692,379.60079 167.30626,261.81067 c 0,0 -2.64983,-1.27862 -5.06135,-3.21694 -2.41153,-1.93831 -1.66135,-2.876 -4.58477,-4.53633 -2.9234,-1.66032 -5.17057,-0.67189 -7.10884,-2.10495 -1.93828,-1.43305 -0.64422,-3.62726 -0.64422,-3.62726 l 7.87227,1.55779 8.30024,6.49562 6.57502,-5.95709 z"/>
  <path fill="none" d="m 175.91115,254.2209 -8.13664,8.43762 m 8.92092,7.5619 8.34112,-8.22861 m 99.12142,117.58251 c 3.90945,-4.36885 10.54106,-10.74091 11.08489,-11.3229 m 2.19932,20.07182 c 0.44175,-0.44127 8.74492,-8.22132 8.62569,-8.29607 m -10.56465,-11.78456 c -0.52068,7.21539 8.4486,10.53638 8.70172,10.6524"/>
</g>
<path id="bordure" fill="#eee" d="M 2 2 L 2 259 C 2 545 300 657 300 657 C 300 657 598 545 598 259 L 598 2 L 2 2 z M 75 75 L 125 75 L 125 100 L 175 100 L 175 75 L 225 75 L 225 100 L 275 100 L 275 75 L 325 75 L 325 100 L 375 100 L 375 75 L 425 75 L 425 100 L 475 100 L 475 75 L 525 75 L 525 125 L 500 125 L 500 181 L 525 181 L 525 237 L 500 237 L 500 258.83398 L 499.96875 263.17969 L 499.96875 263.24219 L 499.89258 267.0293 L 499.75586 271.13672 L 499.57031 275.06445 L 499.32617 279.11133 L 499.04102 282.96875 L 498.70703 286.79688 L 498.33984 290.42578 L 523.21484 292.9375 C 521.15726 312.26109 517.38112 330.52546 512.2207 347.76562 L 488.24219 340.69727 L 488.125 341.09375 L 485.9707 347.91211 L 483.67383 354.58789 L 481.24414 361.10156 L 478.66211 367.5332 L 475.96094 373.80859 L 473.13281 379.96875 L 470.16406 386.04883 L 469.08789 388.12891 L 491.28906 399.62109 C 482.53489 416.6677 472.47386 432.45046 461.57031 447.00586 L 441.64258 431.91016 L 438.53516 436.01172 L 434.64062 440.95312 L 430.56445 445.93164 L 426.49609 450.71875 L 422.24219 455.54492 L 418.06445 460.12109 L 413.82031 464.61719 L 409.50781 469.0332 L 407.14062 471.38281 L 424.75 489.12891 C 410.86119 502.89018 396.55217 515.11268 382.5293 525.86133 L 367.30664 506.0293 L 365.29102 507.57617 L 365.21484 507.63477 L 360.94531 510.82617 L 356.53125 514.04883 L 352.32422 517.04492 L 352.24219 517.10156 L 347.85352 520.15234 L 347.78516 520.19922 L 343.74609 522.94141 L 343.69531 522.97461 L 339.5293 525.74023 L 339.48828 525.76758 L 335.36719 528.43945 L 335.32422 528.4668 L 331.23438 531.05859 L 323.16602 536.00781 L 336.23828 557.32031 C 322.42487 565.61854 310.00937 572.18552 300 577.10938 C 289.99063 572.18553 277.57513 565.61854 263.76172 557.32031 L 276.83398 536.00781 L 268.76562 531.05859 L 264.67578 528.4668 L 264.63281 528.43945 L 260.51172 525.76758 L 260.4707 525.74023 L 256.30469 522.97461 L 256.25391 522.94141 L 252.21484 520.19922 L 252.14648 520.15234 L 247.75781 517.10156 L 247.67578 517.04492 L 243.46875 514.04883 L 239.05469 510.82617 L 234.78516 507.63477 L 234.70898 507.57617 L 232.69336 506.0293 L 217.4707 525.86133 C 203.44783 515.11268 189.13881 502.89019 175.25 489.12891 L 192.85938 471.38281 L 190.49219 469.0332 L 186.17969 464.61719 L 181.93555 460.12109 L 177.75781 455.54492 L 173.50391 450.71875 L 169.43555 445.93164 L 165.35938 440.95312 L 161.46484 436.01172 L 158.35742 431.91016 L 138.42969 447.00586 C 127.52614 432.45046 117.46511 416.6677 108.71094 399.62109 L 130.91211 388.12891 L 129.83594 386.04883 L 126.86719 379.96875 L 124.03906 373.80859 L 121.33789 367.5332 L 118.75586 361.10156 L 116.32617 354.58789 L 114.0293 347.91211 L 111.875 341.09375 L 111.75781 340.69727 L 87.779297 347.76562 C 82.618883 330.52546 78.842738 312.26109 76.785156 292.9375 L 101.6582 290.42578 L 101.29102 286.79688 L 100.95703 282.96875 L 100.67188 279.11133 L 100.42773 275.06445 L 100.24219 271.13672 L 100.10547 267.0293 L 100.0293 263.24219 L 100.0293 263.17969 L 100 258.83398 L 100 237 L 75 237 L 75 181 L 100 181 L 100 125 L 75 125 L 75 75 z "/>
<use id="shine" xlink:href="#shield" fill="url(#rg)" stroke="#000" stroke-width="3"/>
</svg>