<?xml version="1.0" encoding="UTF-8"?>
<svg xmlns="http://www.w3.org/2000/svg" xmlns:xlink="http://www.w3.org/1999/xlink" width="600" height="660">
<defs>
  <radialGradient id="rg" gradientUnits="userSpaceOnUse" cx="220" cy="220" r="405">
    <stop style="stop-color:#fff;stop-opacity:.3" offset="0"/>
    <stop style="stop-color:#fff;stop-opacity:.2" offset=".2"/>
    <stop style="stop-color:#666;stop-opacity:.1" offset=".6"/>
    <stop style="stop-color:#000;stop-opacity:.13" offset="1"/>
  </radialGradient>
  <clipPath id="clip-shield">/home/sophian/Documents/stuff/sigils/cross.svg
    <path id="shield" d="m2,2v257c0,286 298,398 298,398c0,0 298-112 298-398V2z"/>
  </clipPath>
</defs>
<use id="background" xlink:href="#shield" style="fill:#ffa500;"/>
<g id="haystack" style="fill:#ffff00;stroke:#505000;stroke-width:1;stroke-linecap:round;stroke-linejoin:round;">
  <path d="m 451.7,209.5 c 2.8,10.6 -0.1,0.5 4.5,13.7 0.8,2.3 1.6,6.2 3,8.5 0.2,0.3 0.8,0.1 1,0.5 1.8,3.5 -0.3,1.7 0.9,2.7 0.4,0.3 -1.1,0.1 -1.5,-0.1 -0.5,-0.3 -1.2,-1.5 -1.5,-1 -0.5,0.7 -0.2,1.7 0,2.6 0.9,4.5 1.6,4.7 3.4,8.3 0.4,0.9 -2,0.5 -2.1,0.5 -0.2,0 1,4.1 1,4.3 1.2,2.4 3.3,3.7 5,5.5 2.2,2.1 5.3,8.4 6,11 0.2,0.5 0,1 0,1.5 0.1,0.3 0.8,1.8 0.5,2.4 -0.8,1.6 -4,-1.1 -3.4,1.7 0.6,2.9 2.6,5 4,7.5 2.9,5.1 5.6,10.2 8,15.5 0.5,1 0.8,2.1 1.1,3.1 1.4,5.1 1,4.9 -2.3,2.5 -1,-0.8 -0.1,2.9 0.5,4.4 1.6,3.6 4.4,6.8 6.5,10 1.2,1.7 2,3.7 3,5.5 0.8,1.2 4.9,6.5 5.1,7.5 0.1,0.7 -2.3,0.2 -2.3,0.4 0,0.1 2.9,6.8 2.9,6.9 2.4,4.3 5.7,7.7 7.6,12.2 0.5,1 1.5,1.9 1.6,3 0,0.3 -0.4,0.5 -0.5,0.9 -0.4,1.9 -0.2,4 0,5.9 0.1,1.3 1.4,6.4 3,6.5 0.8,0.1 -0.5,-1.8 0,-0.9 1.6,3 4.6,5.3 6.5,8 1,1.5 2.4,3 2.4,3 -0.9,0 -3.7,-2.3 -4.8,-1.5 -2,1.4 -1.5,4 -1.5,6 0,1.1 0.1,2.4 0,2.4 -0.8,0.1 -8.7,-6.4 -9.2,-5.8 -1.2,1.7 1.1,6.2 2,7.5 0.6,0.8 1.7,1.1 2,2 0.3,0.6 0.2,1.4 0.5,2 0.4,0.6 1.1,0.9 1.5,1.5 1.6,2.1 3.3,4.8 4.6,7.1 0.2,0.4 0.2,1 0.5,1.5 0.1,0.1 0.4,-0.2 0.5,0 0.2,0.4 0.2,1.3 0.5,1.8 0.7,1.6 3.1,2 4.2,3.4 1.6,1.9 3.5,4.4 5,5.9 0.2,0.2 0.6,0.3 0.5,0.4 -0.5,0.5 -3.9,-2.4 -5.2,-2.8 0,0 0,-0.1 0,0 0.2,1.7 8.5,5.8 10,7 1.2,0.9 2.1,2.2 2.9,3.4 0.4,0.6 3.5,3.8 2,4.7 -1.8,1.1 -13.1,-2.6 -13.5,-2.5 -0.7,0.2 -5.5,3.1 -5.7,3.3 -1.3,1.3 -1.7,3.5 -3.4,4.5 -0.8,0.4 -16,-8.1 -17.4,-8.8 -0.2,-0.1 -3,3 -3.9,3.5 -1.5,0.9 -2,-0.4 -3.4,-1.1 -0.6,-0.3 -1.3,0.1 -2,0 -2.9,-0.5 -7.6,-4.7 -9.2,-6.3 -0.4,-0.3 -0.7,-1.9 -1.5,-1.9 -0.8,0 -0.4,1.1 -0.5,1.5 -0.4,1.3 -0.8,1.9 -1.4,3.3 -0.3,0.6 -0.3,1.3 -0.5,2 -0.3,1 -0.6,2 -1,3 -2.4,6 -2.1,-2.2 -5.2,-0.5 -0.9,0.5 -1.1,4.4 -1.9,4.3 -0.5,0 -1.9,-2.4 -2,-2.5 -0.6,-0.8 -1.4,-1.6 -2,-2.5 -0.3,-0.4 -0.1,-1.2 -0.4,-1.7 -0.1,-0.1 -0.4,0.2 -0.5,0 -1.3,-1.6 -2,-3.5 -3.6,-2 -1,1.1 4.5,5.1 -1.5,4.4 0,0.3 -3.8,5.1 -4.1,5.2 -0.3,0 -0.4,-0.4 -0.5,-0.5 -0.5,-0.4 -1.2,-0.6 -1.5,-1 -3,-3.5 -7.7,-12.7 -12.2,-13.8 -1.1,-0.2 -3.1,11.3 -5,13.2 -1.7,1.8 -11.4,-9 -11.4,-9 -0.6,-0.7 -2.8,1.7 -3.4,2.1 -5.7,3.8 -7.4,7.3 -10.6,13.4 -0.7,1.4 -1.5,2.8 -2.4,4.1 -0.7,1 -8.5,-7.9 -9.4,-8.5 -0.9,-0.6 -11,8.6 -13.1,9.6 -2,1.1 -7.2,-9.9 -9.3,-11.2 -0.4,-0.3 -0.7,0.6 -1,1 -2.7,2.6 -3.8,6.6 -7.4,8.4 -0.8,0.4 -1.5,-1.5 -1.5,-1.5 -0.9,-0.6 -2,-0.9 -3,-1.5 -2.1,-1.3 -2.5,-3 -3.8,-0.9 0,0.1 -1.9,3 -2,3 -0.8,1.7 -1.3,4.5 -2.5,6 -1,1.3 -2.6,1.9 -3.9,3 -0.1,0.1 -0.2,0.4 -0.4,0.4 -0.4,0 -2.8,-6.6 -3.8,-5.5 -0.2,0.2 -0.1,1.1 -0.2,1.3 -2.1,3.1 -5.7,5.8 -9,7.5 -0.8,0.4 -0.7,-1.5 -1.8,-1.4 0,0 -3.1,4.2 -4,5.5 0,0.1 0.2,0.4 0,0.4 -0.8,-0.1 -0.3,-1.2 -0.5,-1.5 -0.2,-0.5 -0.8,-0.9 -1,-1.5 -0.6,-1.6 -0.7,-3.5 -1.5,-5.1 -0.6,-1.3 -1.7,-2.3 -2.5,-3.5 -0.2,-0.3 -0.2,-0.8 -0.5,-0.9 0,0 -2.7,1.7 -3.4,2 -0.6,0.2 -1.8,0 -2.4,0 -4.3,0 -2.5,0 -3.7,-3.8 -0.4,-1.1 -1.1,-2 -1.5,-3 -1.6,-3.6 -3.4,-7 -5.1,-10.6 -0.2,-0.5 -0.1,-1.1 -0.3,-1.5 -0.6,-1.1 -3.4,-5.5 -5.1,-4.1 -0.7,0.6 -1,1.6 -1.7,2.3 -2.7,2.7 -5.6,5.2 -8.4,7.7 -1.5,1.4 -3.1,2.9 -4.7,4.3 -0.8,0.6 -1.6,1.3 -2.4,1.9 -1,0.7 -5.6,-8.4 -6.7,-8.2 -3.3,0.7 -11.2,10.3 -13.5,12.6 -0.9,0.9 -3.9,3.8 -4.3,2.9 -0.2,-0.4 0.2,-1.1 0,-1.5 -1.2,-2.3 -2.1,-5.2 -3.4,-7.4 -1.5,-2.4 -7.4,10.2 -10,8.3 -0.5,-0.4 -0.6,-1.1 -1,-1.5 -4.3,-5.4 -1.7,-10.1 -3.5,-15.6 -0.3,-1 -2.3,-5.9 -2.4,-5.9 -0.3,0.1 0.1,0.7 0,1 -0.1,0.2 -0.4,-0.1 -0.5,0 -1.1,1.1 -1.6,2.8 -2.5,4 -1.1,1.4 -2.4,2.7 -3.5,4 -1.9,2.3 -4.3,4.7 -6.5,6.5 -0.4,0.3 -2.3,-5.3 -3.3,-3.8 -0.6,0.9 -1.3,3.8 -2,5 -1.4,2.3 -3.3,4.1 -5,6 -1.2,1.4 -3,-9 -3.3,-9.5 -0.9,-2.2 -8,7.8 -9.6,3.9 -0.3,-0.8 -6,-13.8 -6.2,-13.8 -1.4,0.1 -5.6,3.9 -6.4,4.5 -1.3,0.9 -1.2,-2.1 -1.4,-2.4 -0.3,-0.4 -1,-0.5 -1.4,-0.9 -0.1,-0.1 0.1,-0.5 0,-0.5 -1.1,0.7 -2.7,2.6 -3.4,3.4 -1.6,2.1 -4.1,3.2 -5.9,5 -1.8,1.7 -2.6,2.7 -5.3,3.8 -1.7,0.7 -2.2,-3.4 -4.1,-2.8 -1.4,0.5 -4.6,2.9 -5.3,3.9 -0.5,0.8 -1.4,2 -1.4,1.9 -1.2,-2.9 1.2,-7.4 0.5,-10.7 -0.1,-0.6 -0.8,-0.9 -0.9,-1.5 -0.5,-1.4 0.1,-3.6 -1,-4.8 -0.2,-0.2 -2.3,0 -2.4,0 -1.4,0.5 -3,3.1 -4.3,4 -0.9,0.7 -2.8,1.4 -4,2 -0.5,0.3 -2.4,1.5 -2.9,1 -0.2,-0.2 -1.3,-1.3 -1.4,-1.5 -0.1,-0.1 0,-7.9 0,-8.4 0,-0.6 0.4,-1.4 0,-1.9 -0.3,-0.2 -3.7,1.8 -4.5,2 -5.2,1.5 -8.5,7 -14.5,7 -0.8,0 -1.3,-3.2 -2.4,-2.7 -1.6,0.8 -3.9,3.1 -5.5,3.6 -1,0.4 -2.2,0.2 -3.2,0.5 -1.6,0.6 -3.3,2 -5,2.5 0,0.1 -6.83,0.1 -6.93,0 -0.59,-0.6 -1.48,-3.2 -2.86,-2.9 -1.26,0.3 -2.92,4.3 -7.21,4.8 -1.54,0.2 -13.35,-0.3 -13.54,-1 -0.1,-0.3 0.4,-0.6 0.5,-1 0.11,-0.4 -0.21,-0.9 0,-1.3 1.14,-1.9 3.26,-3.1 4.49,-5 0.62,-0.9 1.24,-2.2 2,-3 0.12,-0.1 0.4,0.2 0.5,0 0.71,-1 0.87,-2.4 1.5,-3.5 0.6,-1 1.56,-1.8 2,-3 0.45,-1.1 0,-3.3 0,-4.5 0,-0.7 0.26,-2.2 0,-2.9 -0.31,-0.9 -5.21,1.9 -5.76,2 -3.85,1 -0.36,-1.9 -0.83,-2.2 -0.63,-0.4 -4.11,-0.3 -5.01,-0.5 -1.07,-0.2 -2.07,-0.7 -3.13,-1 -0.77,-0.2 -1.56,-0.4 -2.35,-0.5 -0.1,0 -0.31,0.1 -0.31,0 1.08,-3 13.59,-11.1 16.02,-13.5 1.56,-1.6 4,-4.2 4,-6.5 0,-1.4 -0.5,-2.6 -0.5,-3.9 0,-0.2 -0.45,-0.2 -0.32,-0.2 0.79,0 7.99,-7 9.04,-8.6 1.07,-1.6 1.93,-3.4 3,-5 0.9,-1.3 -1.04,-5.5 -0.79,-6.1 0.69,-1.5 1.79,-3.5 2.49,-5.2 0.5,-1.4 0.5,-3.2 1,-4.5 0.6,-2 2.1,-6.2 3,-8 0.2,-0.4 0.7,-0.6 1,-1 1.6,-2.5 5.6,-11.6 6.5,-14.5 1.1,-4.2 -1.1,-2.1 -3.4,-3.2 -0.3,-0.2 1,-4.2 1,-4.5 0.3,-2 1.4,-4.6 1,-6.5 -0.2,-1.3 -0.8,-3 -0.5,-4.4 0.1,-0.4 0.4,-0.7 0.5,-1 0.2,-0.2 0.4,-0.3 0.5,-0.5 0.1,-0.3 -0.1,-0.7 0,-1 0.2,-0.4 0.8,-0.6 1,-1 1.1,-1.7 2,-3.7 3,-5.5 0.7,-1.2 3.8,-9.5 4,-10.8 0.6,-2.7 1.3,-3.7 2,-6 0.9,-2.7 0.9,-5.8 2,-8.5 0.2,-0.5 1.1,-2.8 0.5,-3.4 -0.5,-0.4 -2.7,0.6 -3.1,0 -0.2,-0.2 0.4,-0.3 0.5,-0.5 1.2,-1.8 2.5,-4 3.5,-6 1.2,-2.4 2.7,-5.1 3.5,-7.5 0.4,-1.1 -0.4,-2.1 -0.4,-2.6 0.1,-1.2 6.4,-13.3 7.1,-14.6 0.4,-1 1,-9.2 1.5,-10.2 l 92.4,-47.3 163.1,6.9 z"/>
  <path style="fill:none;" d="m 331.4,413.6 c 7.1,-11.1 23.2,-22 34.1,-14.5 6.8,-5.3 8.8,-14.5 14.9,-20.4 m -260.4,-80.6 c 14.2,-11 31,-0.1 46.6,-6 2.9,-3.2 8.6,-6.1 11.9,-1.5 m -62.8,60.2 c 6.1,7 5.9,-14.7 12.8,-5.5 6.1,-3.4 13.1,-10.9 18.5,-3.1 2.6,-1.9 4.8,-4.8 8.3,-4.8 m 30.9,68.2 c 8.1,-7.1 16.3,-10.4 21.6,-1.1 7.9,-11.9 20,-2.4 24.5,-19.9 m -126.8,6.1 c 3,-6.9 10,-25 15.3,-14.4 9.9,-10.2 16,1.1 20.5,4.8 7.9,-9.8 13,4.3 21.6,-5.9 6.6,-3 10.6,5.1 17.9,-2.6 2.2,-0.6 4.6,-1 6.8,-1.7 m 165.5,-7.3 c -1.1,10.5 -9.7,18.2 -15.2,6.1 -8.1,13.6 -14,-13.7 -21.9,3.4 -11.9,7.4 -33,14.6 -40.4,-2.4 -0.9,12.5 -3.3,-10.7 -8,4.5 -2.8,5.9 -17.4,30.1 -22.5,15 m 155.1,3.1 c 2.4,-11.6 8.3,11.6 13.5,-3.7 6.6,-5.9 10.2,-29.2 15.1,-8.5 2.6,-7.3 11,8 13.6,-5.4 10.7,13.6 14.7,-21.8 19.1,-2 1.7,1.8 4,-9.3 5.9,-11.4 m 0.8,-42.2 c 0.9,12.5 -11.4,8.2 -16.4,7.8 -5.6,15.7 -13,-8.1 -19.7,6.5 -6.2,3.6 -14.3,9.3 -18.3,-0.8 m -140.5,2.2 c 11.7,-3.6 36.7,-19.7 40.6,-2.6 9.3,-0.2 15.7,8.7 18.8,19.1 8.6,-7 17.8,-7.1 26,-15.3 3.2,6.9 5.4,15.4 10.3,3.2 5.6,-6.2 8.5,-13.7 12.7,-7.8 4.3,-6.5 6.7,-13.9 11.2,-3.9 2.1,-0.7 4.7,-1.7 5.4,-4.1 m -239.7,28.4 c 7,-10.4 16.9,-15 24.3,-4.8 7.2,-5.4 15.5,-3.9 16.7,0.6 5.7,-6.7 9.3,5.1 15.7,-4.2 4.6,4.8 16.5,-6.9 22.9,-2.8 l 1.2,-1 1.2,-0.5 m -97,-31.5 c 6.7,-1.5 12.5,-2.5 11.1,6.1 10.7,-0.5 20.8,-5.6 30.9,-4.2 -1.5,12.1 11.8,-3.6 14.8,6.7 5.1,0.9 9.6,-2.5 14.7,-1.9 m 94.6,-6.7 c -5.7,13.6 -12.4,-5.9 -21,3.6 -10.3,4.2 -28.6,7 -32.1,2.2 -8.1,11.8 -4.6,-9.5 -9.3,-4.7 m 199,-23.6 c -8.3,6.7 -11.8,-14 -20.1,-0.9 -8.4,13.4 -14.3,-4.8 -24.2,2.9 -3.3,0.9 -5.1,-3.6 -8.3,-2.2 m -42.1,25.6 c 3.3,-13.5 20.3,-22.5 26.1,-5.6 8,-6.1 13.7,-3.2 19.9,0.6 5.4,-4.4 12.4,-6.1 19.3,-6 m -118.4,-37.1 c 9.1,-6.4 18.9,-9.9 22.4,4.4 5.1,3.6 16,-3.9 20,5 3.3,0.2 6.8,1 9.7,-0.6 m 81.3,-16.3 c -7,7.7 -15,-6.1 -21.1,7.1 -7.5,14.6 -12.7,-9.5 -16.5,4.2 -5.7,7.8 -10.2,-5.7 -11.8,9.1 m -182.7,-19.1 c 9.6,-7.2 16.8,-2.6 17.7,9.8 2.3,17.1 14.3,-7.8 18.5,9.1 6.9,9.5 19.8,-10 20.5,8.3 7.8,-4.5 21.4,-13.9 24.9,0.7 7.8,0.1 17.4,7.1 22.2,-2.2 0,1.4 -1,5.8 1.7,3.3 m -150.4,-28.5 c -0.1,9.8 2.8,6.3 5.4,1.8 1.6,15.6 15.9,10.4 22.1,8.9 -0.1,11.4 6.4,-2.7 8.9,7"/>
  <path d="m 321.2,65.06 c 5.8,-0.43 11.2,2.12 16.6,3.19 3.1,0.6 5.9,3.22 8.9,4.12 0.8,0.25 1.7,0.24 2.5,0.5 2.5,0.84 4.6,2.97 7.3,2.97 0.2,0 -3.5,0.12 -3.3,0.46 0.4,0.69 1.8,1.96 2.4,2.4 1.5,0.96 3.1,1.58 4.5,2.5 3.2,2.03 6.8,5.59 9,8.5 0.4,0.49 1.8,0.38 1.9,0.97 0.1,0.64 -1.3,-0.2 -1.8,-0.5 -0.3,-0.11 -0.5,-0.73 -0.5,-0.5 -0.2,1.56 8,8.87 9.6,10.14 1.1,0.89 2.4,1.49 3.5,1.99 1.3,0.6 2.2,2.3 3.5,3 0.8,0.4 2.5,0.6 3.3,1.4 1.3,1.2 -3.8,3.1 -4.3,4.4 -0.3,1 0.2,2.1 0.5,2.9 0.3,0.6 0.1,1.5 0.5,2 1.5,1.5 4.2,2.8 5.5,4.5 1,1.3 1.3,2.7 2.4,4.1 2.5,3.4 5.4,6.6 8,9.9 0.3,0.5 6.4,7.7 6.7,8.9 0.1,0.4 -3.7,-0.7 -3.8,-0.2 0,0.4 0.7,0.6 0.9,0.9 0.6,0.8 1,1.7 1.5,2.5 2.7,3.8 4,3.1 6.5,5.6 1.4,1.4 2.3,3.5 3.5,5 1.1,1.3 2.8,2.4 3.5,4 0.8,1.5 -1.1,-0.8 0.4,1.2 2.2,2.8 5.8,4.1 8.1,6.5 0.8,0.8 -1.6,0.2 -0.8,1.2 2.8,2.9 -0.7,-0.9 1.4,1.9 1.7,2.2 3.5,5 5.5,7 2.3,2.3 7.8,5.8 10.7,7.6 0.1,0.1 -0.2,0.3 0,0.5 0.4,0.7 0.8,1.4 1.4,1.9 1.7,1.8 3.4,3.2 5.5,4.1 1.2,0.5 2,2.2 3,2.9 0.8,0.6 2.9,1.6 3.8,1.9 0.9,0.2 2.8,-0.3 3.5,0.5 0.1,0.1 -0.1,0.7 0,0.9 1,1.5 2.1,3.1 3.4,4.4 2.6,2.9 6.1,4.8 8.8,7.5 0.6,0.6 0.8,1.6 1.5,2 0.6,0.3 1.6,0.7 2,1.4 0.9,1.9 -6.3,0.1 -7.3,1.4 -0.1,0.2 0.1,0.6 0,0.9 -0.2,1.3 -0.7,2.4 -0.2,3.7 0.2,0.7 2.9,4.6 0.2,2.9 -1.1,-0.8 0.1,-0.4 -1,-1.5 -0.6,-0.6 -2.1,-0.6 -2.6,-0.9 -1,0 -3.2,-0.3 -4,-1.1 0,0 -1.2,-2 -1.3,-1.4 -0.3,1.8 0.3,9.7 -2.9,9.6 -0.4,0 -6.7,-5.8 -8.4,-4 -0.5,0.4 -1.3,2.4 -1.5,3.4 -0.6,3.1 0.6,5.2 -1.5,8 -0.6,0.8 -1.4,2.4 -2.3,1.9 -2.8,-1.6 -5.6,-8.3 -7.8,-9 -2.6,-0.8 -5.3,10.7 -8.9,8.1 -1.1,-0.7 -7.1,-6.4 -7.9,-7.4 -0.2,-0.3 -0.1,-0.9 -0.5,-0.9 -2,0.1 -3,2.8 -4.4,4.4 -0.1,0.2 -0.3,0.6 -0.4,0.5 -1,-1.1 -3.6,-6.9 -4.9,-5.5 -0.6,0.6 -0.9,1.8 -1.5,2.5 -1.1,1.4 -2.6,2.3 -3.5,4 -0.6,1.1 -0.6,2.3 -1,3.4 -0.8,2.6 -3.4,6.5 -5.5,8.2 -2.2,1.7 -5.5,-3 -7.3,-1.5 -2.7,2.1 -5.7,7.3 -8.8,8.3 -0.8,0.3 -4.5,-5.3 -5.5,-5.9 -0.8,-0.5 -1.7,0.9 -2.4,1.5 -4.2,3.7 -1.7,3.8 -5.4,-0.6 -0.3,-0.3 -0.7,-0.6 -1,-0.9 -0.1,0 -0.3,0.1 -0.4,0 -0.9,-1 -3.9,-12.6 -5.5,-12.1 -2.4,0.8 -7.5,5.9 -9.4,5.8 -0.3,0 -0.4,-0.3 -0.5,-0.5 -1.3,-1.3 -2.5,-2.8 -3.7,-4.2 -0.3,-0.3 -0.5,-0.8 -0.9,-0.9 -0.6,-0.1 -1.1,0.7 -1.6,1 -3.5,2.8 -4.3,3.8 -7.5,7.5 -0.3,0.5 -0.8,1.6 -1.2,1.2 -4.6,-4.6 -8.8,-16 -15.8,-9 -3.6,3.5 -1.8,1.3 -5.4,7.4 -0.2,0.5 -0.4,1.6 -0.9,1.4 -1.8,-1.1 -1.4,-6 -3.9,-3.5 -3,3 -5.5,7.9 -5.5,6.8 0,-2.2 -1.4,-4.3 -1.9,-6.2 -1.1,-4.3 -0.7,-7.4 -3.5,-11.4 -0.4,-0.6 -3.3,2.8 -4.1,1.9 -1.3,-1.3 -2.9,-8 -4.4,-9.3 -0.1,-0.1 0.1,0.4 0,0.5 -0.2,0.6 -0.7,1 -1,1.5 -2.1,4.4 -2.9,5.8 -5.8,9.8 -0.1,0.2 0.1,0.4 0,0.5 -0.3,0.2 -0.7,-0.1 -1,0 -0.4,0.1 -0.6,0.3 -0.9,0.5 0,0.2 0.1,0.4 0,0.5 -1,0.6 -3.3,1.2 -4,1.9 -3.2,3.2 -0.1,0.8 -2.5,3.9 -0.1,0.1 -0.3,-0.1 -0.4,0 -2.8,2.9 -4.1,7.6 -8.4,9 -1.1,0.3 -3.2,-5 -6.5,-5 -1.2,0 -7.7,0.7 -8.4,0 -1.8,-1.9 -1.8,-5.7 -4.4,-6.9 -1.8,-0.9 -12.3,4.5 -12.4,4.4 -1.1,-1.3 -4.3,-9.5 -4.9,-9.5 -0.1,0 -10.7,5.9 -12.5,6.8 -0.9,0.4 -2.2,1.7 -2.9,1 -1.7,-1.8 -4.7,-10.6 -5.7,-10.5 -0.8,0 -8.1,7.5 -8.7,6.5 -2,-3 -1.3,-14.3 -3.9,-15.6 -0.2,-0.1 -7.7,5 -8.7,5.7 -0.4,0.2 -4,3.4 -5.3,2.9 -0.9,-0.3 -0.5,-2.3 -1.8,-1.8 -3.9,1.5 -7.7,3.3 -11.6,5 -1.4,0.6 -2.7,0.6 -4,1 -3.9,1.3 -7.5,3.8 -11.2,5.6 -0.7,0.4 -2.2,-4.4 -2.5,-4.9 -0.2,-0.4 -0.9,0 -1.4,0 -3.1,0 -6,0.4 -8.9,1 -0.8,0.1 -1.8,1 -2.4,0.4 -1,-1 -1.7,-6.4 -1.9,-6.5 -0.4,-0.3 -2.5,1.2 -3,1.5 -3.9,1.9 -9.4,2.5 -13.8,2.5 -0.2,0 0.4,0.1 0.5,0 0.3,-0.3 0.3,-0.7 0.5,-1 0.7,-1.1 1.9,-1.9 2.5,-3 1.7,-2.9 2.5,-4.8 2.5,-8 0,-1.3 0.2,-2.7 0,-4 0,-0.2 -0.8,-0.2 -0.6,-0.3 4,-2.7 8.4,-5 11.9,-8.9 2.3,-2.5 3.6,-4.2 4,-7.6 0.1,-0.7 -1.1,-3.3 -0.7,-3.7 3.5,-3.3 8.6,-5.8 11.1,-10 0.6,-1 1,-2.2 1.6,-3.1 0.9,-1.5 2.5,-2.5 3,-4.1 0.1,-0.2 0.2,-3 0,-3.4 -0.1,-0.2 -1.8,-0.3 -1.4,-0.9 1.7,-3.2 6.5,-4.6 9,-7 4.7,-4.8 -1.9,0.5 3.5,-3.6 1.4,-1.3 2.5,-5.9 1.5,-7.8 0,-0.1 -1,0.2 -0.4,-0.5 1.6,-1.8 5.6,-3.6 7.8,-5.2 2.6,-1.9 6.6,-5.6 8.5,-8.4 2.4,-3.4 -0.2,-5.7 1,-8 0.3,-0.7 1.5,-1.4 2,-2 3.9,-5 10.9,-5.4 14.6,-10.6 0.7,-1.1 3,-4.4 2.1,-6.1 -0.3,-0.4 -1.7,-0.4 -1,-1.8 1.2,-2.4 4.9,-3.6 7,-5 1.6,-1.2 3.7,-3 5,-4.6 2.3,-2.6 0,-5.26 0.1,-5.39 0.6,-1.13 12.5,-10.27 14,-11.01 1.9,-0.93 4.8,-2.27 6.7,-3.58 3.6,-2.56 -2.7,0.85 3,-2 1,-0.71 0.9,-0.67 0.9,-1.44 0,-0.21 -0.6,-0.43 -0.4,-0.43 2.3,0 4.5,-3.96 5.9,-5.39 0.4,-0.34 1,0.1 1.4,0 1.7,-0.33 5.6,-1.99 7.1,-2.5 7.6,-2.73 15.2,-5.32 23.3,-5.91 1.4,0.97 2,-2.64 2.7,-2.49 0.7,0.14 2.2,2.2 2.7,2.68 0.5,0.58 2.8,-3.6 3.2,-4 0.5,-0.62 2.7,0.99 3.4,0.99 0.5,0 2.5,-2.67 2.7,-2.48 0.5,0.58 3.7,4.48 4.3,4.1 1.1,-0.68 5,-4.29 5.9,-3.72 0.7,0.43 5.3,4.06 5.7,3.89 1,-0.52 0.6,-0.66 1.7,-1.54 0.2,-0.14 1.6,-1.17 2,-1 0.8,0.39 3.8,2.6 4.2,2.3 0.3,-0.24 3.1,-2.85 3.2,-2.49 0.1,0.41 0.1,0.85 0.2,1.27 z"/>
  <path style="fill:none;" d="m 284.3,81.55 c 6.3,-7.88 13.9,-2.15 19,1.35 0.8,9.78 6.1,2.66 10.7,1.03 m -63.1,28.47 c -8.7,5 -9,13.4 -14,4.4 -3.1,0.2 -4.6,3.7 -7.6,4.2 m 45.1,-44.07 c -9.6,1.8 -18.1,2.45 -25.3,8.04 -5.3,4.32 -8.9,9.62 -12.3,12.21 m 90.2,-22.53 c 10.6,-1.87 14.1,6.05 15.9,12.88 13,-2.8 1.6,16.37 15.6,15.87 7.4,-2.2 13.1,4.1 5.1,9 m 27.8,95.8 c 11.2,-7.6 19.3,-0.2 27.5,4.1 6.3,-4.9 11,1.4 15.7,-0.1 m -97.9,8.4 c 6.8,-3.8 15.6,-15.1 17.2,-0.5 9.1,-16.5 18.9,13.1 29.6,4.1 l -0.2,-1.9 m 9.5,-38.7 c 8.8,-6.2 8.8,13.4 20.1,5.8 8.6,7 26.2,-0.1 29.4,8.6 5.9,-5.3 4.7,7.7 11.5,4.2 m -309.3,13.9 c 13.6,-6.2 24.9,-14.3 35.1,-23.1 1.9,-1.9 3.5,-4.5 6.3,-4.9 m -9,23.3 c 12.3,-5.5 23.5,-17.1 34.6,-13.5 4.3,-7.1 8,2.3 10,-5 m 1.4,26.3 c 10.5,-5.1 21,-3.1 28.7,-11.9 3,9 4.8,8 9.7,0.8 m 60.1,-1.9 c -3.5,-4.5 -5.7,-18.8 -8.1,-8.9 -2.7,-12.5 -15,3.5 -20.2,-4.1 -5.1,7.8 -15.3,9.6 -14,20.8 l -0.7,-1.3 -0.6,-2.6 m 99,-11.4 c -8.7,4.8 -15.7,3.9 -18.5,-6.5 -2.7,9 -9.9,-0.9 -12.7,-3.5 1.2,-5.2 -5.6,-5.1 -6.4,-9.4 m 8.4,-5.2 c 5.2,-11.5 12.7,-12.4 14.5,-5.9 5.7,1.6 6.7,-2.2 10.1,-7.2 2.3,9.2 7.7,-2.5 12.5,5.4 3.5,0 11.4,-5.7 11.8,1 m -66.1,-29.9 c 2.9,-11.7 8.4,11.9 14,-1.7 5.6,-2.2 9.2,7.3 12.1,-3.4 3.6,-0.7 5.6,-4.4 6.6,-7.6 m -87.5,34.3 c 13.8,-6.9 25.5,3.8 34.6,0.3 2,-1.5 3.8,-3.2 5.6,-4.9 m -95.6,28 c 8.6,-2.5 19.9,-15.6 26,-2.1 2.4,-2.1 2.1,-5.3 3.5,-6.9 m -69.7,1.8 c 8.5,-6.7 21.2,-22 29.2,-11.9 9.5,-18.7 26.3,5 37.1,-7.5 l 0.6,1.1 h 2.5 m -48.4,-21.5 c 6.7,5 7.7,-7.7 14.6,-3.8 2.5,-0.7 3.4,-3.5 5.9,-4.3 m 19.2,6.4 c 14.9,-1.2 21.6,-5.3 35.5,-5 m 13.8,-13.2 c 12.4,12.6 19.3,-10 25.6,-8.2 4.3,-10.09 -0.6,2.6 3.6,-7.93 4.7,2.93 9.3,12.13 10.8,0.83 m -78.1,-2.68 c 7.1,-8.91 6.1,7.68 13.8,-0.31 5.2,14.79 19.5,0.4 24.6,-6.03"/>
</g>
<use id="shine" xlink:href="#shield" style="fill:url(#rg);stroke:#000000;stroke-width:3;"/>
</svg>
