<?xml version="1.0" encoding="UTF-8"?>
<svg xmlns="http://www.w3.org/2000/svg" xmlns:xlink="http://www.w3.org/1999/xlink" width="600" height="660">
<defs>
  <radialGradient id="rg" gradientUnits="userSpaceOnUse" cx="220" cy="220" r="405">
    <stop style="stop-color:#fff;stop-opacity:.3" offset="0"/>
    <stop style="stop-color:#fff;stop-opacity:.2" offset=".2"/>
    <stop style="stop-color:#666;stop-opacity:.1" offset=".6"/>
    <stop style="stop-color:#000;stop-opacity:.13" offset="1"/>
  </radialGradient>
  <pattern id="paly" patternUnits="userSpaceOnUse" width="150" height="660">
    <path fill="#000" d="m0,0 h75 v660 h-75z"/>
  </pattern>
  <clipPath id="clip-shield">
    <path id="shield" d="m2,2v257c0,286 298,398 298,398c0,0 298-112 298-398V2z"/>
  </clipPath>
</defs>
<use id="background" xlink:href="#shield" fill="#666"/>
<use id="background" xlink:href="#shield" fill="url(#paly)"/>
<path id="pall" fill="#fff" d="M 225 2 L 225 268.93359 L 49.828125 444.10547 C 76.245639 491.3178 110.69904 529.84669 145.55664 560.50977 L 300 406.06641 L 454.44336 560.50977 C 489.30096 529.84669 523.75436 491.3178 550.17188 444.10547 L 375 268.93359 L 375 2 L 225 2 z"/>
<g style="fill:#666;stroke:#fff;stroke-width:1;stroke-linecap:round;stroke-linejoin:round;">
  <path d="m 329.15084,276.80794 c 0.63887,-2.047 1.55664,-7.49967 2.08083,-8.94605 1.33116,-3.67306 12.41023,-9.30768 15.51279,-8.2735 3.10257,1.0342 -1.03418,10.34188 -1.03418,14.47863 0,4.13674 5.17093,15.51279 5.17093,20.68374 0,5.17093 -1.15885,30.98405 -1.15885,38.22336 0,7.23931 -9.30769,12.69638 -11.37606,18.90151 -2.06838,6.20511 -8.14882,10.30031 -9.18302,18.5738 -2.15263,10.18191 -1.30256,10.5923 0.75735,22.39883 -0.55426,2.4386 -44.76207,10.12019 -63.93439,-1.09169 2.06334,-8.91263 2.24822,-13.75369 0.62817,-25.7345 -5.76555,-11.35603 -8.77537,-20.94737 -11.70049,-28.99146 -2.92513,-8.04409 -5.11896,-24.81555 -5.11896,-31.39707 0,-6.58152 1.55014,-34.612 0.24016,-41.10316 -3.37948,-16.74596 3.41624,-22.88389 7.07264,-22.88389 7.89154,2.82155 5.77339,13.44957 6.21588,21.57278 1.22621,6.3678 0.73522,9.98792 2.47076,24.90028 -1.09758,-8.21151 -0.27635,-13.7694 -0.51709,-22.42952 0.76171,-11.46749 -0.0735,-10.32092 0.7053,-20.46064 0.98058,-9.77076 -2.24029,-34.75228 9.8463,-37.22181 8.0473,-1.81594 8.8099,16.44735 8.70187,29.98251 1.00787,5.81461 1.04018,12.23874 0.73129,19.37893 0.37598,8.48718 0.30448,12.22165 0.36564,20.11022 0.22839,-8.16702 -0.60294,-15.07647 0.21419,-23.94406 0.87714,-10.25601 1.87602,-11.87121 1.37383,-22.95738 0.73128,-4.38768 -1.13813,-28.4832 11.43433,-28.26901 10.13882,3.36219 6.13607,16.94007 6.72221,28.73413 0,8.80242 0.45042,14.53975 0.15146,24.32046 0,0 -0.0441,10.66766 -0.88274,21.39981 0.84821,-11.05916 0.40889,-14.35632 0.75034,-21.72065 1.19272,-8.78932 1.27677,-8.60574 2.15567,-16.96562 -0.16412,-25.062 5.5141,-27.68437 9.52577,-27.50986 9.97061,0.43373 9.141,15.35689 9.141,29.98251 0.73128,5.29589 0.36564,11.18798 0,19.32092 0,4.5899 2.93706,16.93745 2.93706,16.93745 z"/>
  <path fill="none" d="m 262.73192,288.48732 c -3.80333,2.282 -5.32466,3.04267 -9.128,3.80333 m 28.14466,-11.53824 c -5.32466,0.76066 -8.36733,3.04266 -11.41,3.80333 m 30.42667,-5.32466 c -4.56401,-0.76066 -6.08533,-0.76066 -9.88867,0 m 32.70865,0.8889 c -6.08533,-2.282 -9.88865,-3.04266 -14.45266,-2.282 m 15.68547,90.44671 c -6.54808,1.60569 -18.30956,-1.06365 -21.34558,-6.11762 m -15.30917,4.62393 c 0,0 -9.4393,1.12958 -15.57324,-1.36565"/>
  <path d="m 329.03107,276.88829 c -1.79485,7.45294 1.11754,13.11101 1.11754,17.24777 0,4.13674 -3.10255,22.7521 -3.10255,22.7521 l 1.03418,-7.2393 c 0,0 -14.47862,1.03419 -19.64956,5.17093 -5.17093,4.13675 -11.37605,23.7863 -9.30768,37.23073"/>
</g>
<use id="shine" xlink:href="#shield" fill="url(#rg)" stroke="#000" stroke-width="3"/>
</svg>
