<?xml version="1.0" encoding="UTF-8"?>
<svg xmlns="http://www.w3.org/2000/svg" xmlns:xlink="http://www.w3.org/1999/xlink" width="600" height="660">
<defs>
  <radialGradient id="rg" gradientUnits="userSpaceOnUse" cx="220" cy="220" r="405">
    <stop style="stop-color:#fff;stop-opacity:.3" offset="0"/>
    <stop style="stop-color:#fff;stop-opacity:.2" offset=".2"/>
    <stop style="stop-color:#666;stop-opacity:.1" offset=".6"/>
    <stop style="stop-color:#000;stop-opacity:.13" offset="1"/>
  </radialGradient>
  <path id="shield" d="m2,2v257c0,286 298,398 298,398c0,0 298-112 298-398V2z"/>
</defs>
<use id="field" xlink:href="#shield" fill="#a0a"/>
<path fill="#fff" d="M 417.00977 319.37891 C 415.36688 319.38491 413.70153 320.58507 412.12109 323.47266 C 404.89622 336.67306 404.88889 352.85417 404.41602 362.77344 C 403.94315 372.69271 397.02768 391.61088 390.8418 381.14062 C 384.65592 370.67036 391.31094 358.52313 390.91406 347.08594 C 390.76972 342.92638 390.50531 337.5595 389.91406 332.26367 A 180 180 0 0 1 230 430 A 180 180 0 0 1 124.625 395.7168 A 200 200 0 0 0 300 500 A 200 200 0 0 0 491.22266 357.97656 C 491.41355 353.90582 491.6576 350.04663 491.79688 346.63867 C 492.25499 335.42885 487.35298 312.5494 475.80078 327.66992 C 464.24858 342.79044 470.2036 370.69312 466.92578 385.90234 C 463.64796 401.11156 452.51265 395.80692 453.14453 384.20898 C 453.77641 372.61104 452.69613 356.37589 451.0918 347.63477 C 449.48747 338.89365 446.02705 322.10927 441.82031 335.84961 C 437.61357 349.58995 434.4875 365.15026 431.92578 379.07812 C 429.36406 393.00599 428.56198 410.41415 432.69531 428.36914 C 436.82864 446.32413 415.01513 441.57854 414.95703 417.45117 C 414.89897 393.3238 419.84538 390.92569 422.57422 377.36328 C 425.30306 363.80087 429.44518 352.73137 428.89258 342.5332 C 428.46086 334.56588 422.87721 319.35747 417.00977 319.37891 z "/>
<path fill="#f00" d="M 333.80664 103.0918 A 180 180 0 0 1 410 250 A 180 180 0 0 1 389.91406 332.26367 C 390.50531 337.5595 390.76972 342.92638 390.91406 347.08594 C 391.31094 358.52313 384.65592 370.67036 390.8418 381.14062 C 397.02768 391.61088 403.94315 372.69271 404.41602 362.77344 C 404.88889 352.85417 404.89622 336.67306 412.12109 323.47266 C 419.34596 310.27226 428.33998 332.33503 428.89258 342.5332 C 429.44518 352.73137 425.30306 363.80087 422.57422 377.36328 C 419.84538 390.92569 414.89897 393.3238 414.95703 417.45117 C 415.01513 441.57854 436.82864 446.32413 432.69531 428.36914 C 428.56198 410.41415 429.36406 393.00599 431.92578 379.07812 C 434.4875 365.15026 437.61357 349.58995 441.82031 335.84961 C 446.02705 322.10927 449.48747 338.89365 451.0918 347.63477 C 452.69613 356.37589 453.77641 372.61104 453.14453 384.20898 C 452.51265 395.80692 463.64796 401.11156 466.92578 385.90234 C 470.2036 370.69312 464.24858 342.79044 475.80078 327.66992 C 487.35298 312.5494 492.25499 335.42885 491.79688 346.63867 C 491.6576 350.04663 491.41355 353.90582 491.22266 357.97656 A 200 200 0 0 0 500 300 A 200 200 0 0 0 333.80664 103.0918 z "/>
<use id="shine" xlink:href="#shield" fill="url(#rg)" stroke="#000" stroke-width="3"/>
</svg>