<?xml version="1.0" encoding="UTF-8" standalone="no"?>
<svg xmlns="http://www.w3.org/2000/svg" xmlns:xlink="http://www.w3.org/1999/xlink" width="600" height="660" version="1.1">
<defs>
	<path id="drop" d="m 3.043394,-24.639105 c -1.4905225,6.988169 -1.2706766,10.691237 0.8398687,15.9380054 2.6994819,6.637634 9.5226713,13.482538 8.7647273,20.6529976 -0.868321,8.099203 -7.8153425,13.401768 -15.0888888,12.725853 -8.0992032,-0.868321 -13.2223112,-6.94549 -11.8696062,-17.5336404 1.330489,-10.4012865 9.9980565,-23.0408606 17.353899,-31.7832156 z" />
	<radialGradient id="rg" gradientUnits="userSpaceOnUse" cx="220" cy="220" r="405">
		<stop style="stop-color:#fff;stop-opacity:.3" offset="0" />
		<stop style="stop-color:#fff;stop-opacity:.2" offset=".2" />
		<stop style="stop-color:#666;stop-opacity:.1" offset=".6" />
	<stop style="stop-color:#000;stop-opacity:.13" offset="1" />
	</radialGradient>
	<path id="shield" d="m2,2v257c0,286 298,398 298,398c0,0 298-112 298-398V2z" />
</defs>
<use xlink:href="#shield" style="fill:#ffffff" />
<g style="fill:#cc0000;stroke:#ffffff;">
	<use xlink:href="#drop" transform="translate(300,135)" />
	<use xlink:href="#drop" transform="translate(140,135)" />
	<use xlink:href="#drop" transform="translate(460,135)" />
	<use xlink:href="#drop" transform="translate(300,495)" />
	<use xlink:href="#drop" transform="translate(140,315)" />
	<use xlink:href="#drop" transform="translate(460,315)" />
	<use xlink:href="#drop" transform="translate(300,315)" />
	<use xlink:href="#drop" transform="translate(220,180)" />
	<use xlink:href="#drop" transform="translate(140,225)" />
	<use xlink:href="#drop" transform="translate(220,270)" />
	<use xlink:href="#drop" transform="translate(300,225)" />
	<use xlink:href="#drop" transform="translate(380,180)" />
	<use xlink:href="#drop" transform="translate(380,270)" />
	<use xlink:href="#drop" transform="translate(460,225)" />
	<use xlink:href="#drop" transform="translate(300,405)" />
	<use xlink:href="#drop" transform="translate(380,360)" />
	<use xlink:href="#drop" transform="translate(380,450)" />
	<use xlink:href="#drop" transform="translate(460,405)" />
	<use xlink:href="#drop" transform="translate(220,360)" />
	<use xlink:href="#drop" transform="translate(220,450)" />
	<use xlink:href="#drop" transform="translate(140,405)" />
</g>
<path id="background" style="fill:#cc0000;stroke:#ffffff;stroke-width:2" d="M 2 2 L 2 259 C 2 545 300 657 300 657 C 300 657 598 545 598 259 L 598 2 L 2 2 z M 300 83.42 C 314.5 83.42 328.9 88.93 340 100 C 362.1 122.1 397.9 122.1 420 100 C 442.1 77.9 477.9 77.92 500 100 C 511 111 516.5 125.5 516.5 140 C 516.5 154.5 511 169 500 180 C 477.9 202.1 478.2 237.6 500 260 C 523.2 284 518.1 325.4 488.3 340.3 C 463.6 352.7 451.8 379 459.4 405.6 C 468.4 437.1 442.7 469.7 409.9 468.8 C 381.6 468.1 357.7 487.5 354.9 515.4 C 353.9 525.9 347.8 535.5 340 543.3 C 328.9 554.4 314.5 559.9 300 559.9 C 285.5 559.9 271.1 554.4 260 543.3 C 252.2 535.5 246.1 525.9 245.1 515.4 C 242.3 487.5 218.4 468.1 190.1 468.8 C 157.3 469.7 131.6 437.1 140.6 405.6 C 148.2 379 136.4 352.7 111.7 340.3 C 81.87 325.4 76.73 284 100 260 C 121.8 237.6 122.1 202.1 100 180 C 88.98 169 83.43 154.5 83.43 140 C 83.43 125.5 88.98 111 100 100 C 111 88.96 125.5 83.44 140 83.44 C 154.5 83.43 169 88.95 180 100 C 202.1 122.1 237.9 122.1 260 100 C 271.1 88.93 285.5 83.42 300 83.42 z " />
<path style="fill:#1a1a1a;stroke:#ffffff;" d="m 323.5,284.5 a 114,114 0 0 0 -39.6,39.4 c 52,35 110.3,77.3 151.1,111.6 -34.3,-40.8 -76.5,-99 -111.5,-151 z" />
<path style="fill:#333333;stroke:#ffffff;" d="m 435,435.5 -133.8,-133.8" />
<path style="fill:#cc0000;stroke:#ffffff;stroke-width:2;" d="m 292,241.1 c -30.4,0.6 -58.1,22 -61.1,58.8 -3.1,39.4 25.6,94.9 107.5,138.3 81.9,-43.4 110.6,-98.9 107.4,-138.3 -2.8,-36.8 -30.6,-58.2 -60.9,-58.8 -24.2,0 -38.3,12.2 -46.5,22.3 -8,-10.1 -22.3,-22.3 -46.4,-22.3 z" />
<path style="fill:#1a1a1a;stroke:#ffffff;" d="M 248.1 225.4 L 236.5 237 L 225 248.6 L 231.5 283.9 C 243 291.3 255.3 299.4 267.9 307.9 A 114 114 0 0 1 307.5 268.5 C 299 255.8 290.8 243.5 283.4 231.9 L 248.1 225.4 z " />
<path style="fill:#000000;stroke:#ffffff;" d="M 285.2 285.7 L 236.5 237 " />
<path style="fill:#000000;stroke:#ffffff;" d="m 147.2,165.6 c 0,0 9.1,10.3 17.3,20.1 8.7,10.3 19.9,21.5 26.4,27.2 7.3,6 23.7,17.2 23.5,26.3 -0.4,8.6 25.8,14.5 33.1,8.8 5.7,-7.3 -0.2,-33.5 -8.7,-33.1 -9.2,0.2 -20.3,-16.3 -26.4,-23.6 -5.7,-6.5 -16.9,-17.6 -27.2,-26.4 -9.8,-8.1 -20.1,-17.2 -20.1,-17.2 l -9,8.9 z" />
<path style="fill:#000000;stroke:#ffffff;" d="m 137.1,137.5 c -7.1,7.2 -6.9,18.7 0.2,25.8 7.1,7.1 18.4,7.1 25.5,0 7.1,-7.1 7.1,-18.4 0,-25.6 -7.1,-7.1 -18.6,-7.3 -25.7,-0.2 z" />
<path style="fill:#000000;stroke:#ffffff;" d="m 162.4,183.2 20.3,-20.3 m -14.6,26.8 21.1,-21.1 m -15.6,27.4 21.9,-21.9 m -16,27.8 21.9,-21.9 m -15.8,28 21.9,-21.9 m -15.8,27.6 21.5,-21.5 m -14.8,26.5 19.9,-19.8 m -13.4,25.5 19,-19.1 m -66.9,-28.4 19.4,-19.5 m 34.1,73.1 19.5,-19.5" />
<path style="fill:#000000;stroke:#ffffff;" d="m 191.5,272.7 29.8,-29.8 m -53,43.6 c -4,4.1 -4.4,11 1.2,16.7 5.9,5.9 14.7,7.3 21.6,0.4 6.9,-6.9 4.4,-17.5 0.4,-21.5 l 33.5,-33.5 c -4.3,-4.7 -4.1,-8.9 -8,-10.8 z m 23.2,-13.8 c -8.8,8.8 -6.5,12.2 -5.3,15.9 1.2,3.6 3,6.7 -0.6,10.3 -3.1,3.1 -7.3,2.9 -10.2,0 -3.6,-3.6 -1.2,-8.9 3.1,-13.2 z m 80.8,-80.8 -29.9,29.9 m 43.7,-53 c 4,-4.1 10.9,-4.5 16.6,1.2 5.9,5.9 7.3,14.6 0.4,21.5 -6.9,6.9 -17.4,4.5 -21.5,0.4 l -33.5,33.5 c -4.7,-4.2 -8.9,-4 -10.8,-7.9 z m -13.8,23.1 c 8.7,-8.7 12.1,-6.4 15.8,-5.2 3.6,1.2 6.7,3 10.3,-0.6 3.1,-3.1 2.9,-7.3 0,-10.2 -3.6,-3.6 -8.9,-1.2 -13.2,3.1 z" />
<path style="fill:#000000;stroke:#ffffff;" d="m 225,248.6 22.9,-23" />
<use id="shine" xlink:href="#shield" style="fill:url(#rg);stroke:#000000;stroke-width:3" />
</svg>
