<svg xmlns="http://www.w3.org/2000/svg" width="600" height="660" xmlns:xlink="http://www.w3.org/1999/xlink">
<style id="style_css_sheet" type="text/css">
.lion {
  fill:#202020;stroke:#000000;stroke-width:0.5;
}
.secondary {
  fill:#000000;
}
.detail {
  fill:#000000;stroke:none;
}
</style>
<defs>
	<radialGradient id="rg" gradientUnits="userSpaceOnUse" cx="220" cy="220" r="405">
		<stop style="stop-color:#fff;stop-opacity:.3" offset="0" />
		<stop style="stop-color:#fff;stop-opacity:.2" offset="0.2" />
		<stop style="stop-color:#666;stop-opacity:.1" offset="0.6" />
		<stop style="stop-color:#000;stop-opacity:.13" offset="1" />
	</radialGradient>
	<path id="shield" d="m 2 2 v 257 c 0 286 298 398 298 398 c 0 0 298 -112 298 -398 V 2 Z" />
	<g class="lion" id="lion">
		<path class="secondary" d="m 260.7,77.72 c 11.6,-3.57 2.8,-18.56 37.6,-23.52 -5.9,5.33 -5.4,6.83 -6,10.34 8.4,-7.3 19.4,-10.75 31.7,-6.87 -11.9,3.45 -15.6,4.89 -18,9.48 9.1,-4.66 18.2,-4.4 32.7,-0.52 -4.4,1.95 -6.9,3.93 -8.4,6.73 32.8,3.68 8.6,41.14 44.5,60.74 -7.1,2.8 -16.3,0.6 -24,-5.4 7.7,6.4 13.9,19.3 11.7,28.5 -3.4,13.4 1.6,17.6 -1.5,29.3 -9.1,34.5 -18,45.5 -7.5,66.6 -26.2,-11.1 -22.2,-23 -24.4,-38.8 -9.5,17.6 -2.4,30.6 9.8,44.6 -19,-1.4 -28.2,-14.7 -35.9,-27.1 -6.9,20.1 4.7,23.8 -6.6,43.7 2.4,-25.5 -13.9,-19.9 -23.3,-43.2 7.3,24.6 -2.9,26.8 2,40.5 -11.9,-6.5 -8.6,-25.3 -19.9,-33.3 -1.2,9.9 0,18.6 2.5,26.7 -13.7,-9.2 -17.7,-9.6 -21.5,-32.3 -6.9,11 -6.9,21.9 -4.6,32.6 -10.7,-9.4 -15.1,-24.7 -9.7,-34 -5.3,-0.5 -9.2,10.4 -9.2,17.5 -23.2,-55.7 41.5,-65.8 45,-102.6 l 12.2,-4.3 5.1,-40.6 z" />
		<path id="mouth" style="fill:#552200;" d="m 258.4,117.1 c 4.6,3.9 3.2,20.4 0.2,34.4 0,0 11.5,-10.8 14.2,-13.3 2.2,-1.9 3.8,-5 4.4,-8.2 0.6,-3.2 0.2,-7 -1.5,-9.8 -1.7,-2.9 -4.6,-5 -7.7,-5.6 -3.2,-0.8 -9.6,2.5 -9.6,2.5 z" />
		<path id="tongue" style="fill:#cc0000;" d="m 219,129.9 c 0,0 -0.6,5.3 1.3,8.1 2.1,3.5 5.5,6.3 9.8,6.4 6.7,0.4 15.7,-6.5 22.5,-7.4 10,-1.7 27.5,4 27.5,4 l -4.3,-13.8 c 0,0 -15.7,-2.9 -24.4,-1.6 -7.4,1.4 -14.7,9.7 -22.1,11.6 -2.2,0.3 -3.5,-0.5 -5.4,-1.5 -2.4,-1.1 -4.9,-5.8 -4.9,-5.8 z" />
		<path id="teeth" style="fill:#ffffff;" d="m 253.3,117.2 c -0.4,4 -2,6.3 -0.9,11.3 -4.9,-1.6 -6.7,-4.9 -6.9,-10.9 z m -9.4,-1.5 c -0.8,4 -2.6,6 -1.8,11.3 -4.8,-1.9 -6.4,-5.5 -6.3,-11.3 z m 18,32.1 c -1.3,-3.6 -3.5,-5.3 -3.7,-10.6 -4.5,3 -5.4,6.8 -4,12.3 z" />
		<path id="face" d="m 324.7,118.1 c 7,-3.7 14.2,-14.9 10.4,-26.67 -2.6,-8.1 -12.9,-9.18 -23,-2.79 -4.7,-10.68 -34.4,-15.45 -51.4,-10.92 -4.1,1.28 -7.2,3.14 -7.6,7.09 -6.4,2.32 -19.6,3.25 -23.9,7.66 -2.5,2.67 -0.2,7.53 1.6,8.63 -3.8,4.4 -0.8,17 4.8,15.2 6.7,7.3 22.7,3.7 25.9,2.4 0,0 5.4,-1.4 7.8,-0.1 2.5,1.1 4.2,3.9 4.9,6.8 0.6,3.3 -3.5,11.7 -5.6,14.4 -2.1,2.5 -3.8,7.3 -7,7.4 -3.8,0 -3.7,-0.2 -9.4,-2 -3,-0.9 -8.9,-1.5 -11.2,0.5 -0.8,1 -0.8,3.1 -1.1,4 -1.2,3.3 -3,3.7 -3.8,6.3 -2,7.2 1.4,9.3 -3.6,11.5 6.9,2 13.9,-2.4 15.6,-6.8 0.3,1.1 1,2.5 0.3,5.1 5,0.5 5,-4.5 7.3,-7.1 -0.1,1.6 0.3,3.1 1.8,5.1 2,-2.4 3.5,-5.8 6.5,-7.2 13.5,1.8 11.6,-13.4 12.3,-18 3.5,4.9 9.3,7.3 15.8,7.5 6.8,0.2 8.1,-3.8 15.6,-1.2 1.2,-1.9 1.4,-3.9 0.3,-6.5 2.5,0.9 4.9,1.3 7.5,0.2 0.8,-2.3 0.2,-4.3 -0.5,-6.5 2.2,0.2 4.1,1.1 6.3,-0.3 -0.4,-2 0.4,-3.1 -1.3,-6.2 2.2,0.8 4.1,-0.1 6.4,-0.9 -0.5,-2.2 1.2,-3.2 -1.7,-6.6 z" />
		<path style="fill:#000000;stroke:none;" d="m 237.3,118.2 4.9,1.1 c -8.2,-4.2 -8.2,-15.7 -6.3,-17.7 l -1,0.4 c -1.9,1.4 -1.4,12.4 2.4,16.2 z" />
		<path class="detail" d="m 331.6,92.32 c -1.1,-2.32 -3.3,-2.94 -5,-3.23 -1.8,-0.34 -3.6,-0.11 -5.4,0.58 -4.2,1.41 -8.4,4.31 -12.5,12.03 l -0.8,1.6 1.4,-0.7 c 1.8,-0.7 3.6,-1.5 5.1,-1.7 -0.8,1.8 -1.5,3.5 -1.4,5.5 l 0.1,0.8 0.8,-0.3 c 1.2,-0.6 2.3,-1.1 3.8,-1.3 -0.9,1.6 -1.8,3.2 -1.9,5.2 v 0.7 l 0.6,-0.2 c 1.3,-0.1 2,-0.4 3.6,-0.5 -0.5,1.7 -0.7,2.7 0.3,3 0,-1.1 0.4,-2.3 1,-3.5 l 0.3,-1 -0.8,0.1 c -2.4,0.1 -2.7,0.4 -3.6,0.7 0.4,-1.6 1.2,-3.4 2,-5.2 l 0.4,-0.8 h -0.8 c -2,0 -3.2,0.5 -4.4,1.3 0.1,-1.7 0.7,-3.2 1.4,-4.9 l 0.3,-0.84 -0.6,-0.11 c -1.6,-0.24 -3.2,0.34 -4.9,1.15 3.7,-6.26 7.3,-8.81 10.9,-9.97 2.2,-0.7 6.9,-1.26 10.1,1.59 z m -19.3,-3.21 -0.5,-0.94 c -1.9,1.16 -3.5,2.43 -5,3.6 -1.7,1.63 -2.5,3.37 -3,5.34 1.8,-2.56 4.3,-5.34 8.5,-8 z m -46.8,18.79 c -0.2,-4.3 -2.7,-8.01 -6.4,-9.4 2.9,2.2 5.1,5.6 5.2,9.4 0,2.9 -1.2,6.5 -3.7,8.6 3.6,-1.4 4.9,-5.3 4.9,-8.6 z" />
		<path style="fill:#000000;stroke:none;" d="m 249.4,111.2 c -0.8,0 -1.4,0.5 -1.4,1.3 0,0.7 0.6,1.3 1.4,1.3 0.6,0 1.5,-0.6 1.5,-1.3 0,-0.8 -0.9,-1.3 -1.5,-1.3 z m 5.3,-0.4 c -0.7,0 -1.4,0.5 -1.4,1.3 0,0.7 0.7,1.4 1.4,1.4 0.7,0 1.3,-0.7 1.3,-1.4 0,-0.8 -0.6,-1.3 -1.3,-1.3 z m 3.6,-1.6 c -0.6,0 -1.4,0.6 -1.4,1.5 0,0.6 0.8,1.3 1.4,1.3 0.9,0 1.4,-0.7 1.4,-1.3 0,-0.9 -0.5,-1.5 -1.4,-1.5 z m -9,-2.6 c -0.8,0 -1.3,0.6 -1.3,1.3 0,0.8 0.5,1.4 1.3,1.4 0.7,0 1.3,-0.6 1.3,-1.4 0,-0.7 -0.6,-1.3 -1.3,-1.3 z m 5.1,-0.5 c -0.9,0 -1.4,0.5 -1.4,1.3 0,0.7 0.5,1.3 1.4,1.3 0.8,0 1.4,-0.6 1.4,-1.3 0,-0.8 -0.6,-1.3 -1.4,-1.3 z m 4.3,-2.4 c -0.8,0 -1.4,0.6 -1.4,1.3 0,0.9 0.6,1.5 1.4,1.5 0.6,0 1.4,-0.6 1.4,-1.5 0,-0.7 -0.8,-1.3 -1.4,-1.3 z m -29.6,-11.12 c -1.5,2.67 -0.6,5.69 1.2,8.02 0.9,0.7 1.3,1 2.2,0.8 0,0 0.5,2 0.8,2.7 0.6,1.5 1.5,2.4 1.5,2.4 0,0 0.6,-2.2 1,-3.2 0.5,-1.1 1.1,-1.8 2.4,-2.2 1.4,-0.9 3.5,0.1 4.7,-1 0.8,-0.55 1.8,-3.33 1.8,-3.33 0,0 -2.4,0 -5,-0.59 -1.9,-0.34 -6,1.86 -6,1.86 -2.2,-1.4 -4.2,-2.67 -4.6,-5.46 z" />
		<g id="eye">
			<path style="fill:#000000;stroke:none;" d="m 258.7,90.34 c -1.4,-0.38 -1.3,-0.94 -1.3,-0.94 l -0.3,-0.92 1,0.27 v 0 0 c 0,0 3.5,1.07 9,0.55 2.3,-0.24 5.3,-1.75 8,-2.26 1.3,-0.2 2.8,-0.32 3.8,0.52 1.2,0.81 2,2.15 2.4,4.32 -1.2,-0.14 -1.5,-1.94 -3,-3.16 -0.7,-0.52 -1.6,-0.51 -2.8,-0.27 -2.4,0.48 -5.4,1.96 -8.2,2.27 -5.2,0.47 -7.3,0.1 -8.6,-0.38 z" />
			<path style="fill:#ffffff;stroke:none;" d="m 262.5,93.62 c 0.5,2.03 4.4,4.91 7.8,4.2 3.5,-0.67 5.3,-4.8 4.8,-6.91 -0.6,-2.06 -3.3,-1.05 -6.8,-0.29 -3.4,0.72 -6.3,0.87 -5.8,3 z" />
			<path style="fill:#111111;stroke:none;" d="m 264.4,94.53 a 3.006,2.752 63.05 0 0 3.2,2.71 3.006,2.752 63.05 0 0 2.4,-3.28 3.006,2.752 63.05 0 0 -3.3,-2.62 3.006,2.752 63.05 0 0 -2.3,3.19 z" />
			<path style="fill:#000000;stroke:none;" d="m 266.7,93.05 c 0.7,0 1.6,0.42 1.6,1.27 0.2,0.86 -0.3,1.49 -1.2,1.55 -0.8,0.12 -1.5,-0.47 -1.6,-1.23 -0.1,-0.82 0.5,-1.51 1.2,-1.59 z" />
			<path style="fill:#ffffff;stroke:none;" d="m 265.9,92.74 c 0.5,-0.1 1.1,0.3 1.2,0.9 0.1,0.61 -0.4,1.05 -0.9,1.1 -0.5,0.1 -1,-0.32 -1.1,-0.9 0,-0.61 0.4,-1.08 0.8,-1.1 z" />
		</g>
		<path style="fill:#000000;stroke:none;" d="m 316.8,78.84 -4.7,9.8 c -9,16.46 -7.7,23.76 12.6,29.46 12.7,1.6 10.9,23.6 9.5,26.4 -15,27.6 -55.7,11.5 -58.5,-7.7 23.1,-12.9 3.6,-24.1 -4.8,-25.5 14.6,0.2 43.8,-28.06 25.4,-28.48 -23.8,-0.54 -9.8,-7.32 -33.8,-4.84 4.7,-5.09 6.5,-4.34 9.1,-5.34 l 9,-2.78" />
	</g>
</defs>
<use id="bg" xlink:href="#shield" style="fill:#ffffff;"/>
<path style="fill:#800020;" d="M 2 2 L 2 259 C 2 351.23953 33.000175 425.37438 75 483.49609 L 75 2 L 2 2 z M 150 2 L 150 564.37891 C 176.01789 586.7548 202.07421 604.77713 225 618.75391 L 225 2 L 150 2 z M 300 2 L 300 657 C 300 657 331.98726 644.97675 375 618.75391 L 375 2 L 300 2 z M 450 2 L 450 564.37891 C 476.11118 541.92278 502.17843 515.07786 525 483.49609 L 525 2 L 450 2 z"/>
<path style="fill:#ffdd00;" d="m 2,2 v 257 c 0,105.1 40.24,186.7 91.14,247.9 l 206.86,-206.9 z m 298,298 206.9,206.9 c 50.9,-61.2 91.1,-142.8 91.1,-247.9 v -257 z"/>
<use xlink:href="#lion" transform="translate(-175,130)" />
<use xlink:href="#lion" transform="translate(200,130)" />
<use id="shine" fill="url(#rg)" stroke="#000" stroke-width="3" xlink:href="#shield" />
</svg>
