<svg xmlns="http://www.w3.org/2000/svg" xmlns:xlink="http://www.w3.org/1999/xlink" width="600" height="660">
<defs>
  <radialGradient id="rg" gradientUnits="userSpaceOnUse" cx="220" cy="220" r="405">
    <stop style="stop-color:#fff;stop-opacity:.3" offset="0"/>
    <stop style="stop-color:#fff;stop-opacity:.2" offset=".2"/>
    <stop style="stop-color:#666;stop-opacity:.1" offset=".6"/>
    <stop style="stop-color:#000;stop-opacity:.13" offset="1"/>
  </radialGradient>
  <path id="shield" d="m2,2v257c0,286 298,398 298,398c0,0 298-112 298-398V2z"/>
  <g id="bird">
    <g id="leg">
      <path fill="#666" d="m 71.21791,80.203003 -9.94705,6.533519 c 0,0 -5.2013,0.31967 -8.01043,1.063597 -0.5656,0.149785 -1.9097,0.08883 -2.17998,0.607768 -0.29707,0.570374 0.26525,1.671366 0.26525,1.671366 0,0 1.41266,0.153486 1.98941,0 0.53174,-0.141508 1.59153,-0.911654 1.59153,-0.911654 l 6.2116,-0.455827 c 0,0 5.64908,-0.935964 7.93575,0.60777 1.32834,0.903375 3.08436,2.816032 4.22991,0.455826 0.1476,-0.50493 -0.97692,-1.096835 -1.29022,-1.519423 -0.28755,-0.387848 -1.32627,-0.911654 -1.32627,-0.911654 l -3.48695,-0.303885 -3.6363,-0.151942 9.90842,-6.381577 -2.25467,-0.303884 z"/>
      <path fill="#000" d="m 52.14405,87.989405 -0.62159,1.116227 c 0,0 -1.52044,-0.840587 -2.23769,-0.781359 -0.91725,0.07574 -2.61065,1.451094 -2.61065,1.451094 0,0 1.34729,-1.713458 2.2377,-2.009206 0.91212,-0.302965 3.23223,0.223244 3.23223,0.223244 z"/>
      <path fill="#000" d="m 71.89655,89.041016 0.62158,1.116226 c 0,0 1.52044,-0.840586 2.23769,-0.781358 0.91725,0.07574 2.61065,1.451093 2.61065,1.451093 0,0 -1.34729,-1.713457 -2.2377,-2.009206 -0.91212,-0.302965 -3.23222,0.223245 -3.23222,0.223245 z"/>
    </g>
    <path fill="#000" d="m 34.882533,31.358001 c 3.72582,-3.663237 8.60379,-5.676102 13.83573,-4.80015 8.94226,1.185251 10.51523,6.985235 15.36304,14.015387 0,0 15.71007,11.929143 21.9087,17.891488 5.83565,5.613202 15.050817,19.372303 15.947217,20.115166 3.20137,2.653026 16.39993,12.80601 22.30556,17.501035 1.48527,1.180804 2.40731,1.914439 2.40731,1.914439 l -1.12944,0 -0.56473,2.258894 -1.97653,0 -17.78879,-12.706278 c 0,0 -16.362347,-6.44155 -23.718377,-7.906127 -2.33211,-0.46432 -7.69349,-1.663279 -7.29836,-0.108897 0.96429,3.793381 -13.89675,-1.345442 -18.67892,-4.12653 -6.12391,-3.561377 -12.86842,-11.22356 -15.5299,-17.788788 -1.211,-2.987247 -0.66,-8.15999 -1.41181,-11.294468 -0.77833,-3.245091 -3.6707,-9.600299 -3.6707,-9.600299 l 1.69417,0 0.56473,-1.694171 c -2.39863,-0.937365 -3.39884,-2.117932 -2.2589,-3.670701 z"/>
    <path fill="#444" d="m 39.456853,35.976821 c 0,0 6.04643,-2.067185 8.22933,-2.056967 2.82811,0.01324 6.41182,3.552613 2.15223,6.661345 -4.29606,3.13535 -4.77911,4.109427 -4.40511,7.197676 0.47932,3.95794 4.0027,8.272423 6.98284,11.602027 4.35263,4.863041 12.53529,8.69397 18.26514,11.818617 7.70029,4.199195 26.64211,12.036995 26.64211,12.036995 l 7.014307,3.674963 c -3.39702,-1.315179 -16.491467,-6.000665 -22.864177,-7.269464 -2.33211,-0.464316 -8.27958,-1.513488 -7.29752,0.652123 0.9005,1.985726 -13.89855,-2.107569 -18.68073,-4.888657 -6.12391,-3.561374 -12.86957,-11.685867 -15.53104,-18.251095 -1.21101,-2.987252 -0.65892,-8.160032 -1.41072,-11.29451 C 37.775173,42.614787 34.880393,36.722 34.880393,36.722 l 1.69461,0 0.56778,-1.694613 -0.083,-0.135394 1.6029,-1.292798 c -1e-5,-3e-6 -0.56656,1.256541 0.79415,2.377626 z"/>
    <path fill="#000" d="m 36.883153,35.402925 c -0.0373,-0.0373 0.15796,4.108215 1.67036,6.686807 0.7963,1.357668 2.02624,3.228679 2.11826,4.799948 0.0337,0.575094 -0.17614,1.407893 -0.56341,1.834375 -0.21645,0.238359 -0.7572,0.437612 -1.17051,0.563416 -0.0734,-1.083036 -0.17749,-2.10316 -0.38434,-2.965574 -0.71647,-2.987141 -3.13047,-8.392995 -3.52462,-9.267962 l 1.07005,-0.331935 0.47606,0 0.0568,-0.165967 0.25137,-1.153108 z"/>
    <path fill="#444" d="m 64.271793,40.734188 c 2.9435,1.677628 16.5728,12.780656 21.71779,17.729526 5.26565,5.064929 13.13406,15.944582 15.207157,19.103951 -3.871827,-3.719146 -11.549267,-7.063189 -3.488997,0.424088 7.131197,6.624261 -22.81786,-17.243152 -31.09122,-22.37019 -4.37936,-2.713905 -11.67227,-3.544714 -11.67227,-3.544714 l -8.31188,-0.254658 c -1.17921,-5.519535 6.33921,-6.339824 11.82848,-7.898084 1.78203,-0.504229 3.94148,-2.356167 5.81094,-3.189919 z"/>
    <path fill="#444" d="m 56.222353,55.645433 c 0,0 3.41274,2.261943 4.70535,3.181676 1.2926,0.919733 4.2872,1.934815 4.2872,1.934815 0,0 -3.46531,-2.326853 -5.47993,-3.422643 -0.77097,-0.419341 -3.51262,-1.693848 -3.51262,-1.693848 z m 2.716,-0.552266 c 0,0 4.07409,2.93363 5.11763,3.701387 0.93338,0.686702 3.74321,2.010417 3.74321,2.010417 0,0 -3.37859,-2.622199 -5.01486,-3.609633 -1.10128,-0.66459 -3.84598,-2.102171 -3.84598,-2.102171 z m 2.67168,0.04907 c 0,0 3.14675,2.774355 3.86921,3.293722 0.64619,0.464534 2.88468,1.168977 2.88468,1.168977 l -2.84096,-2.005818 -3.91293,-2.456881 z m 2.08585,-0.303886 c 0,0 1.55616,1.30304 2.90656,2.357348 0.7874,0.614755 3.37904,1.420971 3.37904,1.420971 l -2.83267,-1.862505 -3.45293,-1.915814 z"/>
    <path fill="#444" d="m 99.365393,79.451151 25.464457,20.114081 0.42976,-1.719031 0.64463,0 -17.66294,-13.972181 -4.76807,-4.098314 c 1.75682,2.721397 -1.63548,1.476191 -4.107837,-0.324555 z"/>
    <path fill="#000" d="m 93.323413,66.795643 c 3.96775,4.113491 13.228577,12.397834 13.116997,14.220635 0,0 -1.75069,-0.542731 -4.65889,-2.665815 -2.853577,-2.0832 -6.183767,-3.995719 -7.608647,-6.676918 -1.98441,-3.734045 -4.34713,-5.708853 -4.34713,-5.449236 1.16489,0.420203 2.33278,0.909456 3.49767,0.571334 z"/>
    <path fill="#444" d="m 61.163673,62.997085 18.17805,9.152976 c 0,0 9.78215,4.698937 14.58646,4.254384 0.83693,-0.07744 -0.60777,-1.823308 -0.60777,-1.823308 0,0 -1.92248,0.02881 -2.73496,0.151942 -4.88753,0.740722 -29.42178,-11.735994 -29.42178,-11.735994 z m 5.37691,-1.9768 c 6.11036,3.760196 9.50933,5.160602 14.28258,7.445174 0,0 -5.76161,-2.471881 -8.18223,-3.74826 -1.74587,-0.920595 -6.10035,-3.696914 -6.10035,-3.696914 z m -1.55741,0.341871 c 7.63796,4.489213 11.88666,6.161126 17.85322,8.888624 0,0 -7.20201,-2.951122 -10.22778,-4.474963 -2.18234,-1.099076 -7.62544,-4.413661 -7.62544,-4.413661 z m -2.46906,-0.07597 c 9.62057,5.371707 14.97213,7.372287 22.48746,10.635962 0,0 -9.07147,-3.531259 -12.88265,-5.354657 -2.74883,-1.315134 -9.60481,-5.281305 -9.60481,-5.281305 z m -1.01322,0.537995 c 10.95315,5.908878 16.12192,7.647493 24.67823,11.237535 0,0 -10.32799,-3.884385 -14.66707,-5.890122 -3.12957,-1.446648 -10.01116,-5.347413 -10.01116,-5.347413 z m 33.02811,13.839295 c 3.42722,1.352337 7.293397,6.849809 1.51942,5.176472 -5.914,-1.713918 -29.75288,-12.895427 -36.46615,-16.66724 0,0 16.90351,8.117578 22.6394,10.206794 5.87025,2.13815 9.58855,3.13187 12.61122,3.807836 3.02266,0.675967 -1.54302,-3.012805 -0.30389,-2.523862 z m 3.19774,2.260394 5.773807,5.317981 c 7.8755,7.253754 -36.894167,-13.545437 -44.063267,-18.385021 0,0 22.53879,11.87522 33.73119,15.802002 2.60819,0.915066 5.30142,1.342311 6.07769,0.303884 0.793357,-1.061278 -1.51942,-3.038846 -1.51942,-3.038846 z"/>
    <path fill="#444" d="m 103.12069,84.685302 19.98041,15.498118 c 0,0 -1.49982,-0.89906 -1.89927,-1.215541 -6.35123,-5.031991 -18.08114,-14.282577 -18.08114,-14.282577 z m 0.37986,-0.151944 19.98041,15.498112 c 0,0 -1.49982,-0.899054 -1.89928,-1.215535 -6.35123,-5.031991 -18.08113,-14.282577 -18.08113,-14.282577 z m 0.75971,0.07597 19.98041,15.498122 c 0,0 -1.49982,-0.899064 -1.89928,-1.215545 C 115.99017,93.859916 104.26026,84.60933 104.26026,84.60933 Z m 0.5318,0 19.98041,15.498122 c 0,0 -1.49983,-0.899064 -1.89928,-1.215545 C 116.52196,93.859916 104.79206,84.60933 104.79206,84.60933 Z m 0.22791,-0.303884 19.98041,15.498115 c 0,0 -1.49982,-0.899057 -1.89928,-1.215539 -6.35122,-5.03199 -18.08113,-14.282576 -18.08113,-14.282576 z"/>
    <g id="beak">
      <path fill="#666" d="m 36.59217,37.85232 c 0,0 -1.60194,-0.968781 -4.26507,-1.27956 -2.85152,-0.332762 -6.16959,-0.537561 -7.19299,-1.335554 1.57547,-0.220464 12.43279,-0.30587 12.43279,-0.30587 0,0 -0.66724,0.884699 -0.83548,1.402072 -0.15723,0.483504 -0.13925,1.518912 -0.13925,1.518912 z"/>
      <path fill="#444" d="m 35.30514,30.95459 c -0.3541,0.186209 -1.45579,1.740004 -3.67765,2.293358 -2.20531,0.549232 -5.8373,0.647718 -6.62749,2.032573 0.68218,0.08437 5.04789,-0.200475 6.80642,-0.233679 1.58756,-0.02998 5.89972,0.0013 5.89972,0.0013 0,0 -1.4714,-1.09602 -2.17853,-2.163528 -0.31168,-0.47053 -0.44746,-1.441479 -0.22247,-1.93006 z"/>
    </g>
    <g id="eye">
      <path fill="#ccc" d="m 39.23993,33.944168 c 0,1.052623 0.94814,1.90594 2.11772,1.90594 1.16958,0 2.11771,-0.853317 2.11771,-1.90594 0,-1.052622 -0.94813,-1.905942 -2.11771,-1.905942 -1.16958,0 -2.11772,0.85332 -2.11772,1.905942 z"/>
      <path fill="#444" d="m 39.63701,33.884609 c 0,0.822361 0.79998,1.489016 1.78682,1.489016 0.98683,0 1.78682,-0.666655 1.78682,-1.489016 0,-0.822362 -0.79999,-1.489018 -1.78682,-1.489018 -0.98684,0 -1.78682,0.666656 -1.78682,1.489018 l 0,0 z"/>
      <path fill="#000" d="m 40.35174,33.884609 c -1.4e-4,0.538909 0.47986,0.975869 1.07209,0.975869 0.59223,0 1.07228,-0.43696 1.07209,-0.975869 1.4e-4,-0.538908 -0.47986,-0.97587 -1.07209,-0.97587 -0.59223,0 -1.07228,0.436962 -1.07209,0.97587 z"/>
      <path fill="#fff" d="m 40.7091,33.165772 c 0,0.141787 0.13333,0.256728 0.2978,0.256728 0.16447,0 0.2978,-0.114941 0.2978,-0.256728 0,-0.141785 -0.13333,-0.256727 -0.2978,-0.256727 -0.16447,0 -0.2978,0.114942 -0.2978,0.256727 l 0,0 z"/>
    </g>
  </g>
  <pattern id="bird-pattern" patternUnits="userSpaceOnUse" x="-10" width="240" height="108">
    <use xlink:href="#bird"/>
  </pattern>
  <pattern id="bird-pattern2" patternUnits="userSpaceOnUse" x="110" y="54" width="240" height="108">
    <use xlink:href="#bird"/>
  </pattern>
</defs>
<use xlink:href="#shield" fill="#ff0"/>
<use xlink:href="#shield" fill="url(#bird-pattern)"/>
<use xlink:href="#shield" fill="url(#bird-pattern2)"/>
<use id="shine" xlink:href="#shield" fill="url(#rg)" stroke="#000" stroke-width="3"/>
</svg>
