<svg xmlns="http://www.w3.org/2000/svg" width="600" height="660" xmlns:xlink="http://www.w3.org/1999/xlink">
<defs>
  <radialGradient id="rg" gradientUnits="userSpaceOnUse" cx="220" cy="220" r="405">
    <stop style="stop-color:#fff;stop-opacity:.3" offset="0" />
    <stop style="stop-color:#fff;stop-opacity:.2" offset="0.2" />
    <stop style="stop-color:#666;stop-opacity:.1" offset="0.6" />
    <stop style="stop-color:#000;stop-opacity:.13" offset="1" />
  </radialGradient>
  <path id="shield" d="m 2 2 v 257 c 0 286 298 398 298 398 c 0 0 298 -112 298 -398 V 2 Z" />
</defs>
<use id="background" fill="#fff" xlink:href="#shield" />
<g style="fill:#080;stroke:#fff;stroke-width:2;stroke-linejoin:round;stroke-linecap:round;">
  <path d="m 358.302 253.616 c 1.27776 -4.09401 3.11329 -14.9993 4.16166 -17.8921 c 2.66233 -7.34611 24.8205 -18.6154 31.0256 -16.547 c 6.20513 2.06838 -2.06837 20.6837 -2.06837 28.9573 c 0 8.27349 10.3419 31.0256 10.3419 41.3675 c 0 10.3419 -2.31771 61.9681 -2.31771 76.4467 c 0 14.4786 -18.6154 25.3928 -22.7521 37.803 c -4.13675 12.4102 -16.2976 20.6006 -18.366 37.1476 c -4.30527 20.3638 -2.60512 21.1846 1.5147 44.7977 c -1.10852 4.87719 -89.5241 20.2404 -127.869 -2.18339 c 4.12669 -17.8253 4.49645 -27.5074 1.25635 -51.469 c -11.5311 -22.7121 -17.5508 -41.8948 -23.401 -57.9829 c -5.85025 -16.0882 -10.2379 -49.6311 -10.2379 -62.7941 c 0 -13.163 3.10028 -69.224 0.48033 -82.2063 c -6.75897 -33.4919 6.83247 -45.7678 14.1453 -45.7678 c 15.7831 5.6431 11.5468 26.8991 12.4318 43.1456 c 2.45242 12.7356 1.47045 19.9758 4.94153 49.8006 c -2.19516 -16.423 -0.55272 -27.5388 -1.03418 -44.8591 c 1.52342 -22.935 -0.14693 -20.6418 1.4106 -40.9213 c 1.96115 -19.5415 -4.48059 -69.5046 19.6926 -74.4436 c 16.0946 -3.63189 17.6198 32.8947 17.4037 59.965 c 2.01574 11.6292 2.08036 24.4775 1.46257 38.7579 c 0.75196 16.9743 0.60895 24.4433 0.73128 40.2204 c 0.45678 -16.334 -1.20587 -30.1529 0.42837 -47.8881 c 1.75429 -20.512 3.75206 -23.7424 2.74768 -45.9148 c 1.46255 -8.77536 -2.27627 -56.9664 22.8687 -56.538 c 20.2776 6.72438 12.2721 33.8801 13.4444 57.4683 c 0 17.6049 0.90084 29.0795 0.30292 48.6409 c 0 0 -0.0882 21.3353 -1.76548 42.7996 c 1.69641 -22.1183 0.81778 -28.7126 1.50067 -43.4413 c 2.38544 -17.5786 2.55354 -17.2115 4.31134 -33.9312 c -0.32824 -50.124 11.0282 -55.3687 19.0515 -55.0197 c 19.9412 0.86747 18.282 30.7138 18.282 59.965 c 1.46256 10.5918 0.73127 22.376 0 38.6418 c 0 9.17981 5.87412 33.8749 5.87412 33.8749 Z" />
  <path fill="none" d="m 225.464 276.975 c -7.60666 4.56401 -10.6493 6.08534 -18.256 7.60666 m 56.2893 -23.0765 c -10.6493 1.52132 -16.7346 6.08532 -22.82 7.60666 m 60.8533 -10.6493 c -9.12802 -1.52132 -12.1707 -1.52132 -19.7773 0 m 65.4173 1.77781 c -12.1707 -4.564 -19.7773 -6.08532 -28.9053 -4.564 m 31.3709 180.893 c -13.0962 3.21139 -36.6191 -2.1273 -42.6912 -12.2352 m -30.6183 9.24787 c 0 0 -18.8786 2.25916 -31.1465 -2.73131" />
  <path d="m 358.062 253.777 c -3.5897 14.9059 2.23508 26.222 2.23508 34.4955 c 0 8.27348 -6.20511 45.5042 -6.20511 45.5042 l 2.06836 -14.4786 c 0 0 -28.9572 2.06838 -39.2991 10.3419 c -10.3419 8.2735 -22.7521 47.5726 -18.6154 74.4615" />
</g>
<use id="shine" fill="url(#rg)" stroke="#000" stroke-width="3" xlink:href="#shield" />
</svg>