<?xml version="1.0" encoding="UTF-8"?>
<svg xmlns="http://www.w3.org/2000/svg" xmlns:xlink="http://www.w3.org/1999/xlink" width="600" height="660">
<defs>
  <radialGradient id="rg" gradientUnits="userSpaceOnUse" cx="220" cy="220" r="405">
    <stop style="stop-color:#fff;stop-opacity:.3" offset="0"/>
    <stop style="stop-color:#fff;stop-opacity:.2" offset=".2"/>
    <stop style="stop-color:#666;stop-opacity:.1" offset=".6"/>
    <stop style="stop-color:#000;stop-opacity:.13" offset="1"/>
  </radialGradient>
  <path id="shield" d="m2,2v257c0,286 298,398 298,398c0,0 298-112 298-398V2z"/>
</defs>
<use id="field" xlink:href="#shield" fill="#ffffff"/>
<g id="triskelion">
  <path fill="#008000" d="m 360.12947,262.0157 c -8.74444,3.78364 -19.37521,6.77604 -28.80966,8.12529 -9.28639,1.32915 -20.15616,1.45575 -29.469,0.32681 -9.16452,-1.11149 -19.52643,-3.76937 -28.08713,-7.22318 -8.42185,-3.39811 -17.58708,-8.57187 -24.83717,-14.04118 -7.13025,-5.37936 -14.51277,-12.63496 -20.00043,-19.6824 -5.39607,-6.9301 -10.55152,-15.70567 -13.96092,-23.79943 -3.35176,-7.95607 -6.00348,-17.60287 -7.17213,-26.15692 -1.14747,-8.40568 -1.20013,-18.23671 -0.12288,-26.65182 1.0569,-8.26707 3.51876,-17.60658 6.68892,-25.31399 3.11406,-7.56928 7.83312,-15.79712 12.80857,-22.29618 4.88401,-6.380246 11.45855,-12.975806 17.83367,-17.866016 6.2574,-4.79935 14.17095,-9.37154 21.46089,-12.3774 7.15258,-2.94932 15.81531,-5.26002 23.48865,-6.247 7.5256,-0.96797 16.31756,-0.94558 23.83528,0.0789 7.37037,1.00372 15.68672,3.26816 22.54091,6.15645 6.71631,2.8293 14.00747,7.09327 19.75621,11.57447 5.62955,4.38907 11.43776,10.28183 15.73093,15.985346 4.203,5.58542 8.19043,12.6359 10.79353,19.12344 2.5472,6.34799 4.51729,14.02736 5.32257,20.81998 0.78771,6.64412 0.69035,14.39881 -0.2817,21.01843 -0.94951,6.47221 -3.01756,13.76686 -5.62219,19.76776 -2.54596,5.86413 -6.35522,12.21788 -10.34186,17.21522 -3.89404,4.88064 -9.10541,9.9008 -14.13771,13.59621 -4.91234,3.60698 -11.10118,7.01043 -16.78492,9.20996 -5.5441,2.14547 -12.23941,3.77454 -18.15132,4.39815 -5.76373,0.60712 -12.47967,0.43581 -18.20228,-0.48416 -5.57513,-0.89562 -11.84701,-2.76694 -16.9943,-5.08901 -5.01116,-2.2612 -10.42861,-5.61609 -14.67493,-9.10886 -4.13065,-3.3987 -8.36416,-7.92792 -11.46071,-12.28868 -3.01136,-4.23995 -5.83081,-9.56716 -7.62685,-14.44706 -1.74374,-4.74022 -3.0318,-10.45145 -3.47302,-15.48304 -0.42763,-4.88367 -0.18127,-10.56053 0.6859,-15.38574 0.84174,-4.67807 2.51634,-9.92716 4.55654,-14.22123 1.97607,-4.1589 4.87658,-8.64006 7.87556,-12.13354 2.90296,-3.38137 6.75001,-6.82824 10.43995,-9.32632 3.56648,-2.41604 8.03204,-4.65152 12.10851,-6.04331 3.93667,-1.34311 8.66383,-2.29017 12.81548,-2.54828 4.00282,-0.24955 8.64171,0.0722 12.5685,0.88804 3.78131,0.78675 8.00872,2.26495 11.44847,4.02298 3.30664,1.69092 6.85148,4.13707 9.59326,6.64255 2.63168,2.40653 5.29198,5.57322 7.19121,8.59162 1.82111,2.89373 3.47336,6.49723 4.45906,9.77036 0.94279,3.13201 1.54961,6.87652 1.62386,10.14681 0.0712,3.12307 -0.32485,6.72432 -1.09088,9.75165 -0.73029,2.88558 -2.0121,6.0913 -3.48871,8.67532 -1.40462,2.45651 -3.39707,5.06546 -5.41027,7.05335 -1.90964,1.88453 -4.39527,3.75787 -6.74329,5.05612 -2.2191,1.22789 -4.96238,2.29692 -7.4318,2.87552 -2.32762,0.54537 -5.09025,0.81055 -7.47816,0.69943 -2.24358,-0.10435 -4.80755,-0.57532 -6.93549,-1.29333 -1.99089,-0.67234 -4.17602,-1.75807 -5.90186,-2.95553 -1.60811,-1.11646 -3.28187,-2.65485 -4.51236,-4.17766 -1.14091,-1.41082 -2.22843,-3.21751 -2.92204,-4.89348 -0.6395,-1.54645 -1.12458,-3.42991 -1.29166,-5.09435 -0.15201,-1.5256 -0.0774,-3.30809 0.22531,-4.81059 0.27541,-1.36718 0.82232,-2.89717 1.49617,-4.11864 0.60843,-1.10211 1.50084,-2.27001 2.42237,-3.12839 0.82506,-0.769 1.91396,-1.51096 2.94395,-1.97168 0.91374,-0.40927 2.04683,-0.71299 3.04514,-0.78694 0.87981,-0.0654 1.91315,0.0328 2.7562,0.29258 0.73969,0.22706 1.55098,0.64943 2.14153,1.14903 0.52054,0.44035 1.02247,1.07744 1.30249,1.69862 0.25103,0.55795 0.39485,1.27824 0.35564,1.88881 -0.0377,0.57295 -0.25281,1.23169 -0.56861,1.71095 -0.31581,0.47925 -0.53204,1.13768 -0.56971,1.71063 -0.0392,0.61056 0.10461,1.33086 0.35564,1.8888 0.28002,0.62119 0.78234,1.25898 1.30249,1.69862 0.59055,0.4996 1.40223,0.9227 2.14192,1.14974 0.84337,0.25874 1.876,0.35726 2.75582,0.29187 0.9983,-0.0739 2.13178,-0.37696 3.04552,-0.78622 1.0296,-0.46144 2.11887,-1.20272 2.94357,-1.97239 0.92153,-0.85838 1.81395,-2.02627 2.42236,-3.1284 0.67493,-1.22115 1.22076,-2.75145 1.49617,-4.11864 0.30272,-1.50249 0.37732,-3.28497 0.22531,-4.81058 -0.16598,-1.66412 -0.65216,-3.5479 -1.29127,-5.09365 -0.69329,-1.67706 -1.78152,-3.48335 -2.92173,-4.89457 -1.23081,-1.52172 -2.90494,-3.06081 -4.51267,-4.17656 -1.72622,-1.19817 -3.91135,-2.2839 -5.90186,-2.95554 -2.12794,-0.71801 -4.69191,-1.18898 -6.93479,-1.29371 -2.389,-0.11143 -5.15124,0.15445 -7.47924,0.69911 -2.46943,0.5786 -5.21272,1.6476 -7.43182,2.87552 -2.34799,1.29829 -4.83363,3.17159 -6.74289,5.05682 -2.01358,1.98719 -4.00604,4.59614 -5.40995,7.05226 -1.47732,2.5844 -2.75912,5.79013 -3.48942,8.67571 -0.76565,3.02804 -1.16164,6.62928 -1.09087,9.75165 0.0742,3.27028 0.68107,7.0148 1.62385,10.14681 0.98574,3.27311 2.63833,6.87734 4.45906,9.77036 1.89923,3.01839 4.55953,6.18508 7.19193,8.59123 2.74143,2.5066 6.28629,4.95273 9.59363,6.64326 3.43866,1.7577 7.66607,3.2359 11.44809,4.02228 3.92646,0.81695 8.56568,1.13758 12.56818,0.88913 4.15126,-0.25883 8.87952,-1.20557 12.81509,-2.54899 4.07685,-1.39108 8.54202,-3.62727 12.1089,-6.0426 3.68955,-2.49879 7.53698,-5.94496 10.43995,-9.32632 2.99898,-3.49348 5.89949,-7.97465 7.87588,-12.13463 2.03988,-4.29298 3.71409,-9.54279 4.55582,-14.22084 0.86757,-4.82451 1.11463,-10.50177 0.6863,-15.38504 -0.4416,-5.0323 -1.72967,-10.74353 -3.47341,-15.48375 -1.79603,-4.87991 -4.61549,-10.2071 -7.62646,-14.44635 -3.09694,-4.36148 -7.33045,-8.89069 -11.46071,-12.28867 -4.24561,-3.49317 -9.66417,-6.848376 -14.67493,-9.108876 -5.14768,-2.32277 -11.41917,-4.19338 -16.99468,-5.08971 -5.72223,-0.91926 -12.43784,-1.09167 -18.2019,-0.48346 -5.9123,0.6229 -12.6076,2.25198 -18.15171,4.39745 -5.68372,2.19957 -11.87256,5.603006 -16.78489,9.209996 -5.0323,3.6954 -10.24329,8.71626 -14.13662,13.59652 -3.98703,4.99663 -7.797,11.35078 -10.34258,17.2156 -2.60502,6.00019 -4.67235,13.29447 -5.62257,19.76707 -0.97166,6.62032 -1.0687,14.37391 -0.28132,21.01913 0.80529,6.79262 2.77499,14.47129 5.32258,20.81999 2.60272,6.48682 6.59052,13.53802 10.79315,19.12272 4.29316,5.70352 10.10138,11.59629 15.73092,15.98534 5.74875,4.48121 13.0399,8.74518 19.75659,11.57519 6.85381,2.88758 15.17125,5.15234 22.54053,6.15574 7.51772,1.02446 16.31077,1.04717 23.83567,0.0796 7.67334,-0.98697 16.33607,-3.29768 23.48826,-6.24771 7.28994,-3.00587 15.20388,-7.57733 21.46089,-12.37739 6.37622,-4.88989 12.95005,-11.48507 17.83406,-17.86532 4.97545,-6.49906 9.69412,-14.72761 12.80818,-22.29688 3.17015,-7.70742 5.63202,-17.04693 6.69001,-25.31367 1.07615,-8.41544 1.02422,-18.24685 -0.12396,-26.65214 -1.16866,-8.55405 -3.82038,-18.20086 -7.17214,-26.15693 -3.40939,-8.09375 -8.56485,-16.869326 -13.96054,-23.798716 -5.48765,-7.04744 -12.87057,-14.30375 -20.00081,-19.6831 -7.25007,-5.46929 -16.41531,-10.64304 -24.83715,-14.04115 -8.5607,-3.45381 -18.92262,-6.11169 -28.08713,-7.22318 -9.31284,-1.12895 -20.18261,-1.00235 -29.469,0.3268 -9.43445,1.34925 -20.06532,4.34197 -28.82488,8.09617 -8.89687,3.81255 -18.53518,9.55166 -26.13689,15.54479 -7.71974,6.08509 -15.65712,14.25496 -21.53181,22.1352 -5.96318,8.001116 -11.59203,18.103036 -15.2738,27.378166 -3.73676,9.4136 -6.59136,20.79829 -7.75674,30.85989 -1.18174,10.21024 -0.98049,22.11837 0.52855,32.28554 1.53164,10.31476 4.86536,21.92971 9.0213,31.49315 4.21538,9.70107 10.53956,20.20135 17.12833,28.47543 6.68214,8.39135 15.63969,17.01043 24.25176,23.40784 l 48.4513,22.19892 c 10.39978,2.30648 20.80859,3.44543 31.22671,3.38137 z"/>
  <path fill="#ff0000" d="m 237.00187,267.29591 c 7.64894,5.68109 15.55583,13.39141 21.44153,20.88725 5.79428,7.37767 11.3388,16.72788 15.01753,25.3575 3.61968,8.49245 6.49884,18.79507 7.7881,27.93576 1.26808,8.99259 1.37009,19.5168 0.25857,28.53022 -1.09354,8.86464 -3.68581,18.8859 -7.04524,27.16206 -3.30361,8.1382 -8.32575,16.99074 -13.63045,23.99024 -5.21428,6.88075 -12.2428,14.0006 -19.0665,19.28971 -6.70579,5.19658 -15.19338,10.15769 -23.01971,13.43232 -7.68794,3.21823 -17.00713,5.75595 -25.26701,6.86423 -8.11222,1.08778 -17.59727,1.11488 -25.71335,0.0555 -7.96746,-1.03956 -16.96665,-3.43549 -24.38927,-6.5114 -7.28506,-3.0194 -15.20145,-7.58664 -21.44958,-12.39698 -6.13047,-4.71965 -12.46297,-11.06645 -17.15438,-17.21827 -4.6011,-6.03338 -8.97768,-13.65863 -11.84934,-20.68139 -2.81594,-6.8848 -5.01305,-15.21918 -5.93881,-22.59923 -0.90791,-7.23114 -0.86078,-15.67745 0.14568,-22.89662 0.98627,-7.06986 3.18544,-15.0463 5.97825,-21.61605 2.73561,-6.43262 6.8478,-13.41107 11.16462,-18.90919 4.22392,-5.37994 9.88941,-10.92577 15.36935,-15.01948 5.36012,-4.00424 12.12456,-7.79726 18.34334,-10.26525 6.07985,-2.4138 13.43123,-4.27015 19.93048,-5.01493 6.35146,-0.72719 13.75861,-0.60515 20.07975,0.34871 6.17378,0.93202 13.12705,2.93512 18.84352,5.44552 5.5799,2.45071 11.62179,6.10869 16.36851,9.93118 4.63009,3.7286 9.38856,8.71237 12.88458,13.52043 3.40764,4.68798 6.61725,10.58981 8.68184,16.00572 2.01193,5.27602 3.52726,11.64328 4.08994,17.262 0.54732,5.47039 0.35063,11.83949 -0.55105,17.26329 -0.87803,5.2766 -2.68369,11.20753 -4.91194,16.06961 -2.16624,4.72788 -5.37,9.83321 -8.6981,13.82857 -3.23329,3.88023 -7.53533,7.85135 -11.6722,10.74925 -4.01556,2.81216 -9.05506,5.43725 -13.6674,7.09886 -4.47219,1.61006 -9.85533,2.78436 -14.59421,3.16453 -4.58974,0.36812 -9.92079,0.0968 -14.44573,-0.75366 -4.37983,-0.82336 -9.28844,-2.43157 -13.29681,-4.3781 -3.87559,-1.88065 -8.04435,-4.63019 -11.28791,-7.46463 -3.1315,-2.7377 -6.31526,-6.35801 -8.61461,-9.82439 -2.21753,-3.34177 -4.25836,-7.52003 -5.51519,-11.32866 -1.2093,-3.66808 -2.04285,-8.06823 -2.24023,-11.92615 -0.18894,-3.7091 0.15703,-8.0021 0.95599,-11.62928 0.76827,-3.48238 2.18056,-7.36961 3.84495,-10.52359 1.59548,-3.02399 3.89009,-6.25663 6.23185,-8.74684 2.24101,-2.38248 5.18044,-4.78026 7.97547,-6.4797 2.66909,-1.62316 5.98585,-3.08084 8.99061,-3.9311 2.86414,-0.81034 6.28127,-1.30312 9.25741,-1.31635 2.82971,-0.0118 6.08535,0.40922 8.81351,1.15876 2.58687,0.71153 5.45204,1.92748 7.75037,3.3118 2.17294,1.30786 4.47039,3.14909 6.20618,4.99837 1.63611,1.74309 3.24708,4.00301 4.3448,6.12655 1.03142,1.99518 1.90554,4.45113 2.34769,6.65298 0.41318,2.06034 0.56548,4.49558 0.39136,6.58893 -0.16281,1.9509 -0.65823,4.1696 -1.36178,5.99664 -0.65135,1.69347 -1.67222,3.53865 -2.77685,4.9773 -1.01952,1.32706 -2.4081,2.68888 -3.76601,3.6658 -1.24521,0.89444 -2.82619,1.72107 -4.27874,2.21016 -1.32173,0.44508 -2.92019,0.73644 -4.31493,0.7636 -1.25868,0.0242 -2.71631,-0.16475 -3.92046,-0.53363 -1.0785,-0.33003 -2.2655,-0.90207 -3.17949,-1.5637 -0.81131,-0.58669 -1.64089,-1.41611 -2.20408,-2.2437 -0.49653,-0.72925 -0.92822,-1.67321 -1.12472,-2.53323 -0.17321,-0.75411 -0.21307,-1.66791 -0.0757,-2.42913 0.12108,-0.67098 0.42185,-1.42421 0.8198,-1.9773 0.35768,-0.49638 0.90957,-0.98107 1.45794,-1.2524 0.51502,-0.25386 1.19308,-0.39691 1.76603,-0.36304 0.57295,0.0339 1.25128,-0.10808 1.7663,-0.36194 0.54837,-0.27133 1.10026,-0.75602 1.45794,-1.2524 0.39795,-0.55309 0.69914,-1.30701 0.8198,-1.9773 0.13739,-0.76122 0.0979,-1.6757 -0.0753,-2.42982 -0.19761,-0.85975 -0.62861,-1.80329 -1.12514,-2.53254 -0.56319,-0.82759 -1.39235,-1.6577 -2.20366,-2.24439 -0.91441,-0.66094 -2.10101,-1.23364 -3.17992,-1.56301 -1.20414,-0.36887 -2.66177,-0.55779 -3.92045,-0.53363 -1.39501,0.026 -2.99321,0.31852 -4.31493,0.7636 -1.45255,0.48909 -3.03354,1.31572 -4.27874,2.21016 -1.35818,0.97581 -2.74649,2.33874 -3.76559,3.66511 -1.10574,1.43893 -2.12592,3.28452 -2.77796,4.97757 -0.70245,1.82677 -1.19828,4.04616 -1.36067,5.99637 -0.17454,2.09404 -0.0222,4.52928 0.39135,6.58893 0.44216,2.20185 1.31628,4.6578 2.34701,6.65256 1.09799,2.12465 2.70938,4.38388 4.34507,6.12766 1.73579,1.84928 4.03322,3.69055 6.20618,4.99838 2.29835,1.38428 5.16349,2.60026 7.75079,3.31111 2.72774,0.75022 5.98338,1.17126 8.8124,1.15902 2.97683,-0.0128 6.39396,-0.50559 9.2581,-1.31593 3.00518,-0.85095 6.32194,-2.30863 8.99061,-3.9311 2.79503,-1.69944 5.73446,-4.09722 7.97547,-6.4797 2.34172,-2.49023 4.63679,-5.72354 6.23184,-8.74684 1.6644,-3.15398 3.07668,-7.04121 3.84427,-10.52401 0.80007,-3.62745 1.14604,-7.92045 0.95641,-11.62996 -0.19711,-3.85682 -1.03066,-8.25696 -2.24065,-11.92547 -1.25572,-3.8089 -3.29766,-7.98689 -5.51408,-11.32893 -2.29977,-3.46568 -5.4838,-7.08711 -8.61503,-9.8237 -3.24314,-2.83512 -7.41232,-5.58398 -11.28749,-7.46531 -4.00879,-1.94585 -8.91698,-3.55475 -13.29681,-4.37811 -4.52494,-0.85045 -9.85599,-1.12178 -14.44684,-0.75339 -4.73777,0.3799 -10.12134,1.55489 -14.59352,3.16496 -4.61193,1.66092 -9.65211,4.28558 -13.66698,7.09817 -4.1373,2.89858 -8.43934,6.8697 -11.67262,10.74993 -3.32811,3.99536 -6.53187,9.10069 -8.69768,13.82788 -2.22867,4.86277 -4.03433,10.7937 -4.91194,16.06961 -0.90237,5.42338 -1.09879,11.7936 -0.55105,17.2633 0.56226,5.6194 2.07801,11.98598 4.08952,17.26269 2.06501,5.41521 5.27351,11.31732 8.68226,16.00502 3.4956,4.80876 8.25407,9.79252 12.88415,13.52112 4.74675,3.82246 10.78864,7.48044 16.36854,9.93115 5.71647,2.5104 12.67016,4.51281 18.84325,5.44441 6.32072,0.95455 13.72856,1.07701 20.08044,0.34913 6.49882,-0.74409 13.84952,-2.60086 19.93006,-5.01424 6.2192,-2.46868 12.98253,-6.26143 18.34376,-10.26594 5.47994,-4.09371 11.14501,-9.63885 15.36935,-15.01948 4.3164,-5.49743 8.42901,-12.47657 11.1642,-18.9085 2.79281,-6.56975 4.99198,-14.54619 5.97824,-21.61605 1.00647,-7.21917 1.0536,-15.66548 0.14611,-22.89731 -0.92618,-7.37936 -3.12356,-15.71485 -5.93923,-22.59854 -2.87166,-7.02276 -7.24851,-14.64912 -11.84892,-20.68208 -4.69141,-6.15182 -11.02391,-12.49862 -17.1548,-17.21758 -6.24813,-4.81034 -14.1641,-9.37827 -21.44958,-12.39698 -7.42289,-3.07702 -16.42139,-5.47253 -24.38885,-6.51209 -8.11609,-1.05934 -17.60155,-1.03155 -25.71377,0.0562 -8.25988,1.10828 -17.57907,3.646 -25.26728,6.86312 -7.82606,3.27574 -16.31434,8.23643 -23.01945,13.43343 -6.82369,5.28911 -13.85221,12.40896 -19.06649,19.28971 -5.3047,6.9995 -10.32684,15.85204 -13.63003,23.98955 -3.35943,8.27616 -5.95212,18.29811 -7.04566,27.16275 -1.1115,9.01339 -1.00949,19.5376 0.25859,28.53019 1.28926,9.14068 4.16842,19.4433 7.7881,27.93576 3.67873,8.62962 9.22325,17.97982 15.01753,25.35749 5.8857,7.49585 13.7929,15.20609 21.42392,20.915 7.7502,5.79863 17.53957,11.2761 26.53063,14.86281 9.12971,3.64295 20.17372,6.43198 29.93555,7.5795 9.91076,1.1637 21.4737,0.98747 31.34709,-0.46159 10.0208,-1.47067 21.30753,-4.69086 30.60382,-8.71241 9.43318,-4.0817 19.64531,-10.21006 27.69582,-16.60051 8.16703,-6.48382 16.559,-15.17838 22.76322,-23.55925 6.29368,-8.50115 12.2251,-19.2282 16.09628,-29.07128 3.92605,-9.98258 6.91184,-22.04934 8.14612,-32.70631 l -5.00104,-53.05976 c -3.20242,-10.15972 -7.42046,-19.74349 -12.685,-28.73381 z"/>
  <path fill="#0000ff" d="m 303.13843,371.28675 c 1.09549,-9.46471 3.81938,-20.16744 7.36812,-29.01253 3.49211,-8.70683 8.81737,-18.18363 14.45148,-25.68431 5.54484,-7.38096 13.02758,-15.0257 20.29902,-20.71257 7.15377,-5.59449 16.217,-10.94493 24.57861,-14.48904 8.22378,-3.48529 18.19857,-6.25094 27.04566,-7.47968 8.69969,-1.20808 18.87728,-1.28505 27.59138,-0.1908 8.56604,1.07533 18.24627,3.60228 26.23863,6.86721 7.85326,3.20911 16.39351,8.07902 23.14259,13.21951 6.63103,5.04882 13.48836,11.85062 18.57809,18.44976 4.99815,6.48149 9.76415,14.68223 12.90477,22.24063 3.08346,7.4198 5.50811,16.4113 6.5556,24.37743 1.02766,7.81874 1.0305,16.95817 -0.0113,24.77437 -1.02211,7.66897 -3.35235,16.32647 -6.33427,23.46527 -2.92451,7.00135 -7.33988,14.60421 -11.98595,20.60252 -4.55443,5.88107 -10.67366,11.95102 -16.60209,16.44278 -5.8084,4.40185 -13.14669,8.58418 -19.9019,11.32215 -6.61581,2.68079 -14.6232,4.76447 -21.70917,5.6307 -6.93861,0.8472 -15.03823,0.77517 -21.95815,-0.21424 -6.77112,-0.96806 -14.40669,-3.1016 -20.69192,-5.80051 -6.14784,-2.63989 -12.81492,-6.60155 -18.06165,-10.75318 -5.13033,-4.0584 -10.41367,-9.49671 -14.30829,-14.75283 -3.80549,-5.13693 -7.40338,-11.61273 -9.73788,-17.56393 -2.27974,-5.81266 -4.02164,-12.83592 -4.7058,-19.04173 -0.66758,-6.05769 -0.52062,-13.11911 0.4164,-19.14114 0.91402,-5.87407 2.85085,-12.48691 5.26674,-17.91859 2.35608,-5.29509 5.86242,-11.02561 9.52046,-15.52153 3.5632,-4.3804 8.31974,-8.87634 12.90435,-12.173 4.46385,-3.20918 10.07799,-6.22339 15.22599,-8.15442 5.00868,-1.8779 11.04785,-3.27963 16.37265,-3.78094 5.17759,-0.48793 11.20081,-0.26605 16.32495,0.61849 4.97702,0.85999 10.56713,2.60011 15.14522,4.73379 4.44319,2.0715 9.23633,5.12329 12.98149,8.28689 3.63045,3.068 7.339,7.14279 10.03767,11.05669 2.61368,3.79077 5.04422,8.54327 6.57018,12.8872 1.47686,4.20473 2.53842,9.25981 2.85686,13.70443 0.3091,4.29668 0.0123,9.28171 -0.8206,13.50793 -0.80518,4.0808 -2.34858,8.64818 -4.20087,12.37267 -1.7853,3.59132 -4.38336,7.44786 -7.05331,10.44062 -2.57201,2.88133 -5.96587,5.80327 -9.20824,7.90318 -3.1177,2.01817 -7.00854,3.86505 -10.54925,4.98672 -3.39996,1.07585 -7.47254,1.79638 -11.03617,1.93196 -3.41659,0.13028 -7.36344,-0.24059 -10.6909,-1.02351 -3.1838,-0.74953 -6.73005,-2.09626 -9.59933,-3.66711 -2.74024,-1.49992 -5.66101,-3.64348 -7.89974,-5.82054 -2.13384,-2.07525 -4.26917,-4.78819 -5.76869,-7.35898 -1.42509,-2.4447 -2.68828,-5.47468 -3.40325,-8.2121 -0.67722,-2.59607 -1.05676,-5.68535 -1.00708,-8.36792 0.0462,-2.53575 0.492,-5.44602 1.22563,-7.8739 0.6915,-2.28845 1.84318,-4.81355 3.13335,-6.82598 1.21216,-1.89083 2.90202,-3.87581 4.5878,-5.35965 1.57773,-1.38799 3.61055,-2.73751 5.5105,-3.6334 1.77094,-0.83444 3.9401,-1.51475 5.87414,-1.81898 1.79227,-0.28265 3.90067,-0.32113 5.69889,-0.0838 1.65902,0.21941 3.53269,0.74104 5.05768,1.42857 1.39721,0.63116 2.90359,1.58701 4.05343,2.60041 1.04631,0.92211 2.09787,2.16075 2.81876,3.35505 0.65026,1.07797 1.21547,2.43476 1.49809,3.66202 0.25344,1.09902 0.35154,2.41303 0.23554,3.53538 -0.10243,0.99596 -0.40594,2.12911 -0.84106,3.03064 -0.38328,0.79463 -0.98495,1.64045 -1.63147,2.24064 -0.56648,0.52706 -1.33793,1.01848 -2.06586,1.28011 -0.64162,0.23063 -1.44432,0.34678 -2.1223,0.27868 -0.60871,-0.0616 -1.30441,-0.29717 -1.81357,-0.63641 -0.47737,-0.31907 -0.94027,-0.83478 -1.19742,-1.34791 -0.25715,-0.51311 -0.71923,-1.02959 -1.1966,-1.34869 -0.50914,-0.33927 -1.20486,-0.57483 -1.81357,-0.63641 -0.67797,-0.0681 -1.48147,0.048 -2.12229,0.27868 -0.72794,0.26163 -1.50019,0.75304 -2.06666,1.28009 -0.64577,0.60101 -1.2474,1.44604 -1.63068,2.24067 -0.43512,0.90153 -0.73943,2.03466 -0.84187,3.03062 -0.11519,1.12237 -0.0179,2.43635 0.23636,3.53539 0.28262,1.22726 0.84783,2.58406 1.49808,3.66203 0.72007,1.19509 1.77245,2.43293 2.81876,3.35504 1.14985,1.0134 2.65622,1.96926 4.05344,2.60042 1.52416,0.68832 3.39865,1.20916 5.05687,1.42854 1.79901,0.23813 3.90743,0.19884 5.69968,-0.083 1.93325,-0.30505 4.10322,-0.98534 5.87334,-1.81981 1.90076,-0.89586 3.93359,-2.24539 5.5105,-3.63339 1.68579,-1.48385 3.37564,-3.46883 4.58779,-5.35885 1.29098,-2.01322 2.44186,-4.53833 3.13417,-6.82677 0.73363,-2.42787 1.1795,-5.33814 1.22563,-7.8739 0.0497,-2.68256 -0.32985,-5.77184 -1.00789,-8.36793 -0.71416,-2.7374 -1.97735,-5.76739 -3.40246,-8.21128 -1.49949,-2.5716 -3.63483,-5.28453 -5.76867,-7.35978 -2.23954,-2.17709 -5.16031,-4.32065 -7.89973,-5.82055 -2.86928,-1.57085 -6.41554,-2.91757 -9.59933,-3.66711 -3.32746,-0.78287 -7.27512,-1.1538 -10.69091,-1.02351 -3.56362,0.13558 -7.63621,0.85612 -11.03618,1.93277 -3.54151,1.12084 -7.43234,2.96773 -10.55006,4.9867 -3.24155,2.09912 -6.63541,5.02106 -9.20743,7.9032 -2.67075,2.99194 -5.26802,6.84931 -7.05411,10.43979 -1.85148,3.72452 -3.3957,8.29267 -4.20005,12.37269 -0.83372,4.22621 -1.12971,9.21125 -0.82141,13.50792 0.31924,4.44463 1.37999,9.4997 2.85686,13.70442 1.52595,4.34394 3.9565,9.09643 6.57096,12.88803 2.69789,3.91307 6.40724,7.98789 10.03769,11.05588 3.74436,3.16359 8.53748,6.21618 12.98069,8.28687 4.57889,2.13371 10.169,3.87383 15.14603,4.73382 5.12413,0.88454 11.14736,1.10641 16.32413,0.61846 5.32561,-0.50129 11.36478,-1.90302 16.37266,-3.78093 5.14797,-1.93022 10.76295,-4.94523 15.22598,-8.15443 4.58541,-3.29663 9.34116,-7.7926 12.90517,-12.17297 3.65721,-4.49596 7.16433,-10.22565 9.51966,-15.52156 2.4167,-5.43165 4.35353,-12.04449 5.26755,-17.91856 0.93698,-6.02203 1.08393,-13.08344 0.41636,-19.14114 -0.68416,-6.20581 -2.42687,-13.22908 -4.70663,-19.04094 -2.33369,-5.95118 -5.93156,-12.42778 -9.73786,-17.56473 -3.89381,-5.2561 -9.17717,-10.6936 -14.30749,-14.75282 -5.24754,-4.15164 -11.91383,-8.11249 -18.06244,-10.7532 -6.28524,-2.69891 -13.92,-4.83243 -20.69193,-5.80051 -6.91911,-0.98939 -15.01954,-1.06145 -21.95734,-0.21421 -7.08598,0.86623 -15.09336,2.94991 -21.70917,5.6307 -6.75521,2.73796 -14.0935,6.9203 -19.90271,11.32212 -5.92762,4.49178 -12.04768,10.56252 -16.60129,16.4428 -4.64606,5.99831 -9.06226,13.60196 -11.98675,20.60251 -2.98192,7.13879 -5.31216,15.79629 -6.33346,23.46528 -1.04187,7.81618 -1.03982,16.95558 -0.0114,24.77434 1.04667,7.96691 3.47134,16.9576 6.55479,24.37741 3.14063,7.5584 7.90743,15.75917 12.90558,22.24065 5.08974,6.59914 11.94706,13.40094 18.57727,18.45056 6.74991,5.13969 15.29014,10.01042 23.14342,13.21871 7.99235,3.26494 17.67258,5.79189 26.23862,6.86721 8.7141,1.09425 18.8917,1.01728 27.59057,-0.19083 8.84709,-1.22872 18.82269,-3.99435 27.04648,-7.47965 8.36156,-3.5441 17.42479,-8.89455 24.57857,-14.48903 7.27143,-5.68688 14.75418,-13.33162 20.29902,-20.71258 5.63411,-7.50068 10.95936,-16.97749 14.45148,-25.68431 3.54873,-8.84509 6.27239,-19.54805 7.40095,-29.01116 1.14666,-9.61119 0.9956,-20.82777 -0.39375,-30.4076 -1.40996,-9.72804 -4.51659,-20.68695 -8.40374,-29.7147 -3.94757,-9.16482 -9.88166,-19.09051 -16.07329,-26.91659 -6.28403,-7.94293 -14.71616,-16.10743 -22.84707,-22.14747 -8.25145,-6.12853 -18.66483,-11.90831 -28.22437,-15.68503 -9.69867,-3.83094 -21.42437,-6.75132 -31.78452,-7.9339 -10.50906,-1.19991 -22.76466,-0.97315 -33.22461,0.59585 -10.60819,1.59123 -22.55121,5.03883 -32.39756,9.29841 l -43.45057,30.86091 c -7.19737,7.85323 -13.38776,16.29793 -18.54133,25.35231 z"/>
</g>
<use id="shine" xlink:href="#shield" fill="url(#rg)" stroke="#000" stroke-width="3"/>
</svg>
