<svg xmlns="http://www.w3.org/2000/svg" width="600" height="660" xmlns:xlink="http://www.w3.org/1999/xlink">
<defs>
  <radialGradient id="rg" gradientUnits="userSpaceOnUse" cx="220" cy="220" r="405">
    <stop style="stop-color:#fff;stop-opacity:.3" offset="0" />
    <stop style="stop-color:#fff;stop-opacity:.2" offset="0.2" />
    <stop style="stop-color:#666;stop-opacity:.1" offset="0.6" />
    <stop style="stop-color:#000;stop-opacity:.13" offset="1" />
  </radialGradient>
  <path id="shield" d="m 2 2 v 257 c 0 286 298 398 298 398 c 0 0 298 -112 298 -398 V 2 Z" />
</defs>
<use id="shine" fill="#fff" xlink:href="#shield" />
<path fill="#c00" d="M 2 2 L 2 259 C 2 545 300 657 300 657 C 300 657 598 545 598 259 L 598 2 L 2 2 Z M 75 75 L 125 75 L 125 100 L 175 100 L 175 75 L 225 75 L 225 100 L 275 100 L 275 75 L 325 75 L 325 100 L 375 100 L 375 75 L 425 75 L 425 100 L 475 100 L 475 75 L 525 75 L 525 125 L 500 125 L 500 181 L 525 181 L 525 237 L 500 237 L 500 258.834 L 499.969 263.18 L 499.969 263.242 L 499.893 267.029 L 499.756 271.137 L 499.57 275.064 L 499.326 279.111 L 499.041 282.969 L 498.707 286.797 L 498.34 290.426 L 523.215 292.938 C 521.157 312.261 517.381 330.525 512.221 347.766 L 488.242 340.697 L 488.125 341.094 L 485.971 347.912 L 483.674 354.588 L 481.244 361.102 L 478.662 367.533 L 475.961 373.809 L 473.133 379.969 L 470.164 386.049 L 469.088 388.129 L 491.289 399.621 C 482.535 416.668 472.474 432.45 461.57 447.006 L 441.643 431.91 L 438.535 436.012 L 434.641 440.953 L 430.564 445.932 L 426.496 450.719 L 422.242 455.545 L 418.064 460.121 L 413.82 464.617 L 409.508 469.033 L 407.141 471.383 L 424.75 489.129 C 410.861 502.89 396.552 515.113 382.529 525.861 L 367.307 506.029 L 365.291 507.576 L 365.215 507.635 L 360.945 510.826 L 356.531 514.049 L 352.324 517.045 L 352.242 517.102 L 347.854 520.152 L 347.785 520.199 L 343.746 522.941 L 343.695 522.975 L 339.529 525.74 L 339.488 525.768 L 335.367 528.439 L 335.324 528.467 L 331.234 531.059 L 323.166 536.008 L 336.238 557.32 C 322.425 565.619 310.009 572.186 300 577.109 C 289.991 572.186 277.575 565.619 263.762 557.32 L 276.834 536.008 L 268.766 531.059 L 264.676 528.467 L 264.633 528.439 L 260.512 525.768 L 260.471 525.74 L 256.305 522.975 L 256.254 522.941 L 252.215 520.199 L 252.146 520.152 L 247.758 517.102 L 247.676 517.045 L 243.469 514.049 L 239.055 510.826 L 234.785 507.635 L 234.709 507.576 L 232.693 506.029 L 217.471 525.861 C 203.448 515.113 189.139 502.89 175.25 489.129 L 192.859 471.383 L 190.492 469.033 L 186.18 464.617 L 181.936 460.121 L 177.758 455.545 L 173.504 450.719 L 169.436 445.932 L 165.359 440.953 L 161.465 436.012 L 158.357 431.91 L 138.43 447.006 C 127.526 432.45 117.465 416.668 108.711 399.621 L 130.912 388.129 L 129.836 386.049 L 126.867 379.969 L 124.039 373.809 L 121.338 367.533 L 118.756 361.102 L 116.326 354.588 L 114.029 347.912 L 111.875 341.094 L 111.758 340.697 L 87.7793 347.766 C 82.6189 330.525 78.8427 312.261 76.7852 292.938 L 101.658 290.426 L 101.291 286.797 L 100.957 282.969 L 100.672 279.111 L 100.428 275.064 L 100.242 271.137 L 100.105 267.029 L 100.029 263.242 L 100.029 263.18 L 100 258.834 L 100 237 L 75 237 L 75 181 L 100 181 L 100 125 L 75 125 L 75 75 Z" />
<g id="castle" style="fill:#dd0000;stroke:#660000;stroke-width:2;stroke-linecap:butt;stroke-linejoin:round;" transform="translate(300,300)scale(0.6)translate(-300,-300)">
  <g id="towers">
    <g id="tower">
	  <path d="m 259.4,63.97 v 186.23 l 22.7,-16.8 v -173.45 z" />
	  <path d="m 342.5,63.97 v 186.23 l -22.6,-16.8 v -173.45 z" />
	  <path d="m 331.2,242.6 v -180.39 h -60.4 v 180.39 z" />
	  <path d="m 270.8,62.21 -11.4,6.67 -13.8,-10.95 13.8,-6.92 z" />
	  <path d="m 259.4,28.47 -13.8,8.56 v 20.9 l 13.8,-6.92 z" />
	  <path d="m 331.2,62.21 11.3,-11.2 h -83.1 l 11.4,11.2 z" />
	  <path d="m 342.5,51.01 v -22.54 h -16.3 v 10.45 h -16.4 v -10.45 h -17.6 v 10.45 h -16.4 v -10.45 h -16.4 v 22.54 z" />
	  <path style="fill:none;" d="m 259.4,166.6 11.4,-6.2 h 60.4 l 11.3,6.2 m -83.1,39.1 11.4,-6 h 60.4 l 11.3,6 m -83.1,-19.5 11.4,-6.1 h 60.4 l 11.3,6.1 m -83.1,-97.8 11.4,-6.55 h 60.4 l 11.3,6.55 m -83.1,19.6 11.4,-6.5 h 60.4 l 11.3,6.5 m -83.1,19.6 11.4,-6.5 h 60.4 l 11.3,6.5 m -83.1,19.5 11.4,-6.3 h 60.4 l 11.3,6.3" />
	  <path d="m 331.2,62.21 11.3,6.67 13.9,-10.95 -13.9,-6.92 z" />
	  <path d="m 342.5,28.47 13.9,8.56 v 20.9 l -13.9,-6.92 z" />
	  <path style="fill:none;" d="m 301,160.4 v 19.7 m 0,-98.25 v 19.65 m 0,19.6 v 19.7 m 10.1,19.6 v -19.6 m 0,-58.95 v -19.64 m 0,137.49 v -19.6 m -20.2,-19.7 v -19.6 m 0,-58.95 v -19.64 m 0,137.49 v -19.6" />
	  <path style="fill:#440000" d="m 313.6,133.6 c 0,0 1.2,-22.3 1.2,-33 0,-10.69 -6.3,-13.84 -13.8,-13.84 -7.6,0 -13.9,3.15 -13.9,13.84 0,10.7 1.3,33 1.3,33 z" />  	
	</g>
    <use xlink:href="#tower" transform="translate(104.4,44.82)"/>
    <use xlink:href="#tower" transform="translate(-104.4,44.82)"/>
  </g>
  <g id="base">
    <path d="m 459.6,207.1 -9.3,2.2 v 15.3 l 13.4,-3 v -9.9 z" />
    <path d="m 141.9,207.1 9.3,2.2 v 15.3 l -13.4,-3 v -9.9 z" />
    <path d="m 179,193 -18.5,7.1 v 13.8 l -18.6,5.4 v -12.2 l -18.5,7.1 v 36.7 l 16.3,14.3 v 160.9 l -26.4,22.6 v 51.3 l 59.4,29.3 h 256.1 l 59.4,-29.3 v -51.3 l -26.4,-22.6 v -160.9 l 16.3,-14.3 v -36.7 l -18.5,-7.1 v 12.2 l -18.6,-5.4 v -13.8 l -18.5,-7.1 h -49.1 v 18.5 h -48.6 v -18.5 h -48.1 v 18.5 h -48.6 v -18.5 z" />
    <path d="m 342.4,529.3 c 0,0 1.5,-27.8 1,-59.8 -0.5,-32 -21.6,-43.1 -42.7,-43.1 -21,0 -42.1,11.1 -42.6,43.1 -0.5,32 1,59.8 1,59.8 z" />
    <path style="fill:none;" d="m 341.4,454.6 -17.4,5.1 m 19,55.2 h -17.1 m 17.5,-44.1 h -17.7 m 17.8,14.7 h -17.6 m 17.5,14.7 h -17.5 m -18,-57.9 4.7,-14.6 m 6.4,21.8 12.8,-11.6 m -71.7,16.7 17.4,5.1 m -19.1,55.2 h 17.2 m -17.5,-44.1 h 17.7 m -17.9,14.7 h 17.7 m -17.5,14.7 h 17.5 m 18,-57.9 -4.7,-14.6 m -6.4,21.8 -12.9,-11.6" />
    <path style="fill:none;" d="m 123.5,250.9 55.4,-12.8 h 243.7 l 55.4,12.8 m -16.2,175.2 -58.7,13.2 h -69.9 m 155,9.4 -59.4,29 h -85.3 m -0.2,25.8 h 85.6 l 58.9,-29.2 m -26,-101.9 -58.7,5.6 h -204.7 l -58.7,-5.6 m 322.1,-80.4 -58.7,-6.1 h -204.7 l -58.7,6.1 m 0,-26.8 58.7,-10 h 204.7 l 58.7,10 m -322.1,160.9 58.7,13.2 h 69.9 m -155,9.4 59.4,29 h 85.2 m -144.2,-3.4 58.9,29.2 h 85.6 m -118.5,-104.3 58.7,9.4 h 204.7 l 58.7,-9.4 m -322.1,-53.6 58.7,1.6 h 204.7 l 58.7,-1.6 m -322.1,-26.8 58.7,-2.3 h 204.7 l 58.7,2.3" />
    <path style="fill:none;" d="m 422.5,193 v 45.1 l -19.4,17.1 v 184.1 l 25.7,38.4 v 51.6 m 3.6,-154.1 v 28.7 m 0,-86.2 v 28.3 m 0,86.6 26.1,30.6 m -26.1,-203.1 v 28.9 m -63.4,27.5 v -30.6 m -34.3,0 v -30.7 m 34.3,122.8 v -30.8 m -34.3,0 v -30.7 m 30.3,187 v -25.8 m 42.5,25.8 v -25.8 m -24.7,51.6 v -25.8 m 0,-26.1 -13.8,-38.1 v -30.7 m -34.3,0 v -30.6 m -102.2,-61.5 v -30.6 m 34.3,0 v -30.7 m -34.3,122.8 v -30.8 m 34.3,0 v -30.7 m -30.3,187 v -25.8 m -42.5,25.8 v -25.8 m 24.7,51.6 v -25.8 m 0,-26.1 13.8,-38.1 v -30.7 m 34.3,0 v -30.6 m 206.6,77.9 -0.3,25.7 m -25.9,-80.1 v 27.8 m 0,-82.9 v 27.4 m 0,-83.3 v 27.8 m -3.6,152.1 v 25.8 m -25.8,-90 v 29.8 m 0,-89.1 v 29.7 m 0,-89.2 v 29.8 m 40.6,197.5 v -25.8 m -289.3,-113.7 v 28.7 m 0,-86.2 v 28.3 m -26,168.7 v -25.8 m 26,-56.3 -26.1,30.6 m 26.1,-203.1 v 28.9 m -41,166.9 0.3,25.7 m 25.9,-80.1 v 27.8 m 0,-82.9 v 27.4 m 0,-83.3 v 27.8 m 3.5,152.1 v 25.8 m 25.9,-90 v 29.8 m 0,-89.1 v 29.7 m 0,-89.2 v 29.8 m -11,212.1 v -51.6 l 25.7,-38.4 v -184.1 l -19.4,-17.1 v -45.1" />
    <path style="fill:none;" d="m 432.8,258.4 a 8.024,19.36 58.89 0 0 -21.3,-4.2 m 46.5,9.1 a 8.024,19.36 58.89 0 0 -21.3,-4.2 m -104.2,-5.6 a 14.6,11.96 0 0 0 -29.2,0 m 63.9,0 a 14.6,11.96 0 0 0 -29.2,0 m 64,0 a 14.6,11.96 0 0 0 -29.2,0 m -204.1,4.9 a 19.36,8.024 31.11 0 1 21.3,-4.2 m -46.5,9.1 a 19.36,8.024 31.11 0 1 21.3,-4.2 m 104.2,-5.6 a 14.6,11.96 0 0 1 29.2,0 m -63.9,0 a 14.6,11.96 0 0 1 29.2,0 m -64,0 a 14.6,11.96 0 0 1 29.2,0" />
	<g style="fill:#440000">
	  <path d="m 386.2,369.5 c 0,0 0.7,-35.5 0.4,-52.7 -0.2,-17.1 -8.8,-22.4 -17.7,-22.2 -9,0.3 -17.2,4.4 -17.5,22.7 -0.5,18.1 0,52.2 0,52.2 z" />
      <path d="m 215.3,369.5 c 0,0 -0.7,-35.5 -0.4,-52.7 0.2,-17.1 8.8,-22.4 17.7,-22.2 9,0.3 17.2,4.4 17.5,22.7 0.5,18.1 0,52.2 0,52.2 z" />
      <path d="m 275.7,529.3 c 0,0 -0.3,-31.3 0,-56 0.4,-24.6 12.6,-31.8 25,-31.8 12.5,0 24.7,7.2 25.1,31.8 0.2,24.7 0,56 0,56 z" />
	</g>
  </g>
</g>
<use id="shine" fill="url(#rg)" stroke="#000" stroke-width="3" xlink:href="#shield" />
</svg>
