<?xml version="1.0" encoding="UTF-8"?>
<svg xmlns="http://www.w3.org/2000/svg" xmlns:xlink="http://www.w3.org/1999/xlink" width="600" height="660">
<defs>
  <radialGradient id="rg" gradientUnits="userSpaceOnUse" cx="220" cy="220" r="405">
    <stop style="stop-color:#fff;stop-opacity:.3" offset="0"/>
    <stop style="stop-color:#fff;stop-opacity:.2" offset=".2"/>
    <stop style="stop-color:#666;stop-opacity:.1" offset=".6"/>
    <stop style="stop-color:#000;stop-opacity:.13" offset="1"/>
  </radialGradient>
  <path id="shield" d="m2,2v257c0,286 298,398 298,398c0,0 298-112 298-398V2z"/>
</defs>
<use id="background" xlink:href="#shield" fill="#888"/>
<path id="bordure" fill="#000" d="M 2 2 L 2 259 C 2 545 300 657 300 657 C 300 657 598 545 598 259 L 598 2 L 2 2 z M 100 100 L 500 100 L 500 259 C 500 424.40588 365.1074 515.01826 300 549.1543 C 234.8926 515.01826 100 424.40588 100 259 L 100 100 z"/>
<g id="candle">
  <path fill="#fff" stroke="#999" stroke-width="0.5" d="m 307.50391,442.62299 c -0.26253,-27.73147 0.22021,-27.78497 -1.07064,-29.84151 -1.02895,-1.63929 -1.58967,-2.96985 -0.85201,-1.70211 0.56496,0.97093 2.29806,1.15509 2.64605,0.33422 0.35637,-0.84064 -0.79977,-1.84355 -1.05741,-2.20412 -1.22461,-1.71381 -1.28908,-1.56096 0.23681,-0.92011 1.03787,0.43588 1.29566,-1.95251 -0.13532,-3.52284 -1.06531,-1.16906 -1.6343,-2.6084 -1.17009,-2.01842 0.17416,0.22135 1.19309,0.74215 1.90132,0.37691 0.84232,-0.43439 0.19024,-1.57292 -1.58753,-3.77206 -1.21467,-1.50257 -2.24826,-3.35847 -2.24826,-3.97235 0,-0.61389 -0.13517,-1.46841 -0.3004,-1.89893 -0.33271,-0.86706 -2.17397,-1.08772 -2.17397,-0.26053 0,0.28723 -1.22055,1.08103 -2.71234,1.764 -1.49179,0.68296 -2.83157,1.43467 -2.97731,1.67047 -0.48055,0.77754 0.71475,1.91717 1.7766,1.26979 0.9126,-0.5564 0.9574,-0.40177 1.28917,-0.008 1.32674,1.57318 0.51883,2.36399 0.5091,1.67907 -0.0215,-1.54405 -1.35646,-2.15639 -2.56048,-1.06676 -0.9957,0.90107 -1.0105,2.71592 -0.57149,4.42051 0.20686,0.80319 1.2112,1.55554 1.6422,0.52818 0.41566,-0.99078 0.63531,-1.39214 0.63531,-0.53227 0,0.50324 -0.35636,1.86034 0.0426,2.6474 0.72456,1.42935 3.78489,-0.046 3.40122,-1.798 -0.13533,-0.61798 -0.56326,-1.73614 -0.17627,-0.77357 0.84758,2.10819 -2.08761,4.3386 -3.2416,2.48559 -0.58328,-0.93658 0.16982,-2.69613 -0.13425,-3.13719 -0.17185,-0.24929 -1.05996,2.85729 -1.18753,3.1956 -0.0661,0.17542 -0.1982,11.30167 -0.0239,25.11482 0.17439,13.81314 0.31996,28.51088 0.32347,32.66163 l 0.007,7.54681 5.01902,0 5.01901,0 -0.26759,-28.26585 z"/>
  <path fill="#ddd" d="m 342.89258,466.04928 c -5.72105,-0.10863 -12.20329,2.45264 -13.5957,7.21289 -1.12962,3.86185 0.14819,8.51857 5.93554,10.11914 l -69.41211,0 c 3.07155,8.82995 18.29759,17.08008 31.73828,17.08008 l 5.16602,0 5.16601,0 c 5.98226,0 12.31111,-1.61992 17.77149,-4.18946 6.73616,0.62422 25.57755,-5.6831 28.93945,-15.79101 1.56642,-4.70962 -1.88988,-11.473 -6.45703,-13.41602 -1.52129,-0.64721 -3.34494,-0.97941 -5.25195,-1.01562 z m -46.81055,2.67383 0,4.42773 c 0,0 2.21289,1.51905 2.21289,5.16797 0,2.09633 -0.50644,3.32942 -1.03515,4.0625 l 10.92968,0 c -0.52871,-0.73308 -1.03711,-1.96617 -1.03711,-4.0625 0,-3.64892 2.21485,-5.16797 2.21485,-5.16797 l 0,-4.42773 -6.64258,0 z m 45.47656,3.54492 c 3.02868,0.0549 6.16633,1.9244 6.33399,6.72266 0.17128,4.90215 -7.17979,8.87666 -13.06055,11.27148 2.28554,-2.11699 3.97728,-4.52471 4.79688,-6.88086 l -2.13477,0 c -5.10676,-4.68253 -2.68587,-8.39482 0.29297,-10.16797 1.04208,-0.62029 2.39482,-0.97026 3.77148,-0.94531 z"/>
  <path fill="#c00" d="m 304.58871,390.65363 c 3.79799,-3.22844 -0.15771,-11.10221 -3.41228,-13.74146 -0.0899,3.79227 -0.62343,4.87226 -1.75834,6.90877 -1.28961,2.30255 -1.85069,5.92617 0.73098,7.41669 1.18824,0.68603 1.49213,1.49735 1.97532,1.50659 1.21939,0.0233 0.94398,-0.79823 2.46432,-2.09059 z"/>
  <path fill="#f30" d="m 303.12476,391.21676 c 1.82815,-2.08535 0.58326,-4.66671 -1.03959,-7.92482 -0.0849,2.47036 -0.71566,2.99359 -1.24288,4.22576 -0.46613,1.08937 -0.4827,2.59635 0.42242,3.5282 0.90571,0.93247 0.68389,1.69293 0.90536,1.69852 0.55888,0.0134 0.26408,-0.73989 0.95469,-1.52766 z"/>
</g>
<use xlink:href="#candle" y="-250"/>
<use xlink:href="#candle" x="-130" y="-250"/>
<use xlink:href="#candle" x="130" y="-250"/>
<use xlink:href="#candle" x="75" y="-125"/>
<use xlink:href="#candle" x="-75" y="-125"/>
<use id="shine" xlink:href="#shield" fill="url(#rg)" stroke="#000" stroke-width="3"/>
</svg>