<?xml version="1.0" encoding="UTF-8"?>
<svg xmlns="http://www.w3.org/2000/svg" xmlns:xlink="http://www.w3.org/1999/xlink" width="600" height="660">
<style id="style_css_sheet" type="text/css">
.badger {
  fill:#ffffff;stroke:#555555;stroke-width:1;
}
.claw {
  fill:#333333;stroke:none;
}
</style>
<defs>
  <radialGradient id="rg" gradientUnits="userSpaceOnUse" cx="220" cy="220" r="405">
    <stop style="stop-color:#fff;stop-opacity:.3" offset="0"/>
    <stop style="stop-color:#fff;stop-opacity:.2" offset=".2"/>
    <stop style="stop-color:#666;stop-opacity:.1" offset=".6"/>
    <stop style="stop-color:#000;stop-opacity:.13" offset="1"/>
  </radialGradient>
  <path id="shield" d="m2,2v257c0,286 298,398 298,398c0,0 298-112 298-398V2z"/>
</defs>
<use id="shine" xlink:href="#shield" fill="#8b4513"/>
<path style="fill:#008000" d="M 2,2 V 259 C 2,545 300,657 300,657 V 2 Z"/>
<g id="badger" class="badger">
  <g id="head">
    <path d="m 119.3,145.1 c -0.5,-13.4 12.6,-16.5 20.2,-14.5 9,2.4 14.5,12.5 9.8,18.8 -11.2,-5 -20.5,-5.4 -30,-4.3 z"/>
    <path style="fill:#000000;" d="m 177.6,264.5 c -20.3,-11.2 -53.3,-33.6 -60.7,-33.6 -22.14,0 -49.16,16.8 -57.49,12.5 -5.23,-2 -7.61,-1.2 -4.52,-4.2 10.24,-2.5 17.49,-9.2 25.82,-11.8 -11.66,3 -28.56,10.4 -33.79,8.1 -6.19,0.5 -9.76,-2.8 -12.62,-5.6 -4.76,-5.1 -9.04,-7.6 -5.71,-13.1 5,-8.4 20.71,-12.2 29.75,-19.5 10.47,-8.3 13.09,-16.1 20.47,-25.7 15.71,-18.6 39.99,-31.5 62.39,-29.2 27.8,2.8 39.5,24.1 66.1,30.7 -9,5.6 -22.3,1.2 -25.2,-0.6 l 33.1,35.1"/>
    <path d=""/>
    <path d=""/>
    <path d=""/>
  </g>
  <g id="hind-right">
    <path d="m 448.2,248.5 c 0,0 -2.9,20.5 -9.8,30.1 -5,6.7 -12.3,6.6 -16.9,13.5 -4,5.6 -1.9,11.7 -5.9,17.5 -4.8,6.4 -15,10.2 -19.1,17.1 -15.4,26.2 -16.1,42.8 -27.8,52.6 -18.6,11.2 -19.5,-2.9 -35.9,9.5 -6.7,4.3 -5.8,9.1 -3.4,11.2 21.9,-8.8 41.7,19.5 63.1,10.2 5.7,-2.6 3.6,-10.4 8.6,-14.5 11.1,-8.8 19,-14.5 28.5,-25.2 1.9,-2.2 3.4,-4.3 4.8,-6.2 0.9,-1.4 2.6,-6.7 3.3,-7.9 1,-1.6 1.2,0.3 2.2,-1.1 4.2,-8.1 7.8,-15.5 15.4,-22.7 6,-5.2 13.6,-3.8 18.8,-10 7.2,-8.5 10,-27.7 10,-27.7"/>
    <path d="m 442.7,234.3 c -3.1,2.8 -9,-8.8 -28.8,7.4 11.2,2.9 15.5,6 15,7.7 -21.9,-0.9 -26.4,9.3 -30.9,16.4 11.6,-4 20.9,-0.3 15.7,1.5 -17.6,6.3 -23.6,16.7 -23.6,23.8 -0.2,6.6 4.5,39.2 3.3,46.8 -0.2,1.6 5.3,-12.2 9.3,-13.8 4.1,12.8 -3.1,15 -7.8,23.8 -0.5,1.4 10,-4.3 13.8,-1.7 4.7,7.4 -0.7,12.1 -4.1,26.7 7.6,-9.1 15.5,-9.1 16.7,-11.2 3.3,5.9 3.1,11.4 3.6,18.1 0,1.2 0.2,2.6 0.2,3.8 3.3,-4.5 5.5,-8.6 6.9,-12.4 2.1,-4.8 3.3,-9.3 5.7,-13.3 1.7,-3.6 7.9,-4.1 11.4,-7.9 11,-5.2 30.7,-17.6 37.4,-34"/>
    <path class="claw" d="m 326.9,394.3 c 0.9,-1.1 2.8,-0.2 3.8,1.2 0.9,1.5 1.4,4.8 -0.3,4.8 -3.5,0.7 -5.7,3.6 -7.4,6.4 -1.6,-4.7 0,-9.3 3.9,-12.4 z"/>
    <path d="m 341.1,392.9 c 0,0 -9.1,3.3 -11.9,7.8 -0.5,2.6 2.8,7.1 5.2,7.6 10,-10.7 13.4,-10.7 13.4,-10.7"/>
    <path class="claw" d="m 329.4,402.5 c 0.7,-1.2 2.6,-0.9 4,-0.2 1.4,0.9 3.1,3.8 1.7,4.5 -2.9,1.9 -3.8,5.2 -4.3,8.6 -3.3,-3.8 -3.6,-8.6 -1.4,-12.9 z"/>
    <path d="m 348.5,396.2 c 0,0 -10.3,5.5 -12.9,10.7 -1.9,3.8 4.1,7.4 8.3,7.9 7.9,-6.5 11.5,-12.9 11.5,-12.9"/>
    <path class="claw" d="m 336.5,409.5 c 0.7,-1.4 2.6,-1.2 4,-0.2 1.5,0.9 3.1,3.5 2,4.5 -3.1,1.9 -4.1,5.5 -4.6,8.8 -3.3,-3.8 -3.5,-8.8 -1.4,-13.1 z"/>
    <path d="m 355.6,401.7 c 0,0 -14.5,6.9 -10.9,13.1 4.2,5.2 10,3.3 16.1,0.9 7.4,-2.6 12.7,-16.4 12.7,-16.4"/>
    <path class="claw" d="m 346.2,413.3 c 0.8,-1.4 2.7,-1.2 4.1,-0.2 1.4,0.9 3.1,3.6 1.9,4.5 -3.1,1.9 -4.1,5.5 -4.5,8.8 -3.4,-3.8 -3.6,-8.8 -1.5,-13.1 z"/>
  </g>
  <g id="fore-right">
    <path d="m 115.5,330.7 c 2.2,-1 6.8,-0.3 9.2,0 14.3,1.7 21.4,1.7 35.7,0.7 17,-0.9 27.7,-9.3 44.8,-8.3 8,0.5 12.4,6.8 20.3,6.1 11.2,-0.9 26.9,-12.3 26.9,-12.3 l 7.4,-58.5 c 0,0 -16.7,12.5 -28.3,14.4 -8.1,1.2 -13.2,-4.1 -21.4,-2.4 -6.9,1.1 -9.8,6.8 -16.7,8 -7.8,1.3 -17.8,-3.3 -25.6,-1.3 -6.7,1.7 -5.7,1.7 -10.8,3.4 -0.2,0.1 -3.2,1 -4.4,1.5 -4.1,1.8 -12.9,5.6 -14.3,6.3 -2.9,1.3 -7.4,2.4 -8.8,3.3 -12.8,7.5 -21.7,19.6 -21.5,30.1 -2.9,21.6 -14.53,13.7 -14.89,34.3 -0.81,7.8 3.62,10 6.61,9.5 5.58,-18.3 29.48,-20.6 41.08,-32.6 0.7,-0.6 6.6,-1 11.3,-1"/>
    <path class="claw" d="m 93.69,363 c -0.19,-1.5 1.73,-2.3 3.63,-2.1 1.41,0.1 4.18,1.9 3.28,3.2 -1.49,3.1 -0.83,6.6 0.3,9.8 -4.64,-1.7 -7.08,-6 -7.21,-10.9 z"/>
    <path d="m 101.6,352 c 0,0 -3.26,9.1 -1.5,14.2 1.8,2 7.6,2.2 9.4,0.5 -2.2,-14.4 -0.2,-16.8 -0.2,-16.8"/>
    <path class="claw" d="m 101.4,366 c -0.3,-1.5 1.4,-2.6 2.9,-2.8 1.7,-0.2 4.7,0.6 4,2.2 -0.7,3.2 0.7,6.7 2.5,9.2 -4.9,-0.5 -8.1,-4 -9.4,-8.6 z"/>
    <path d="m 108.7,348.2 c 0,0 -2,11.3 0.5,16.7 1.6,3.7 8.1,1.6 11.1,-1.6 0,-10.1 -2.6,-17 -2.6,-17"/>
    <path class="claw" d="m 111.4,365.9 c -0.9,-1.4 0.6,-2.7 2.2,-3.4 1.4,-0.3 4.9,0.1 4.6,1.6 -0.4,3.6 1.8,6.3 4.1,8.8 -5.2,0.4 -9.1,-2.7 -10.9,-7 z"/>
    <path d="m 117.4,346.2 c 0,0 -3.7,15.6 3.4,16.5 6.8,0.2 8.9,-5.7 11,-12.1 2.3,-7.2 -3.7,-16.1 -3.7,-16.1"/>
    <path class="claw" d="m 120.7,361.2 c -0.9,-1.4 0.6,-2.7 2.3,-3.4 1.5,-0.4 4.8,0.2 4.5,1.5 -0.3,3.6 1.7,6.5 4.1,8.9 -5.2,0.4 -9.1,-2.7 -10.9,-7 z"/>
  </g>
  <path id="body" d="m 123.8,158 c -20,6.2 -21.9,5.8 -46.89,29.7 -7.62,9.3 -7.14,13.4 -13.57,18.8 -5,4.4 -16.66,14 -16.66,20.3 0.24,2.3 1.19,3 2.86,3.6 0.71,0.4 1.66,1 2.61,1.5 2.86,1.8 4.53,0.9 6.91,0.3 2.14,-0.6 4.76,-1.2 6.18,-2.1 2.62,-0.9 1.43,-2.2 -0.23,-2.4 -1.67,-0.3 -3.81,-0.3 -5.48,-0.3 -2.14,0 -1.66,-0.2 -0.71,-1.5 15.23,-17.6 17.13,-7.7 27.61,-12.7 8.09,-4.5 9.04,-11.6 16.67,-17.2 8.8,-6.3 18.3,-10.8 28.3,-11.9 6.7,-1 13.6,2 18.8,-1.6 4.8,-3.5 7.9,-9.7 5.2,-14.2 6.9,-1.3 27.2,15.7 33.8,34.1 3.9,9.2 10,21.1 -2.8,26.6 -12.2,2 -13.3,-30.1 -35.2,-25.8 -8.1,1.8 -4.6,2.1 0,5.6 10,7.2 11.6,11 7.6,16.8 -12.9,18.5 -26.2,5.3 -41.9,5.3 2.8,0.9 7.1,3.4 9,4.8 3.6,2.3 5.5,5.1 6.7,7 1.7,3.1 7.6,19.5 22.6,54.2 1.2,5.5 20.2,20.5 35,26.9 1.9,1.2 -0.7,-9 1.2,-7.8 9,5.9 6.6,12.1 20.9,18.5 16,7.2 28.1,10.3 44.5,15 6.9,1.9 16.9,5.3 21,3.8 1.9,-0.9 2.6,-0.2 -0.3,-1.9 -1.6,-1.6 -3.3,-4.5 -0.4,-6.4 2.6,3.3 6.2,4.8 13.3,4.8 0.5,0.7 -4.8,-6 -0.5,-9.8 3.8,2.4 8,8.1 15.2,6.9 1.8,-0.3 -2.6,-2.4 -3.3,-3.5 -2.6,-3.6 -1.2,-5.8 -1.2,-5.8 8.6,6.5 11.7,6.2 17.4,6.5 1.2,-0.2 -5.2,-5.8 -3.3,-12.9 1.5,1.8 7.8,11.7 15.9,8.1 0.5,0.2 -6.4,-4.8 -3.6,-11.7 2.2,0.8 8.6,10 17.2,6.9 1.9,-0.2 -6.7,-6.4 -2.9,-10.7 0,0 4.5,7.2 16,7.4 1.6,0.7 -5.3,-4.3 -2.4,-11.2 0.5,-1.4 4,8.6 16.4,6.9 0.5,-0.2 -7.1,-5.9 -2.6,-11.4 -0.5,-0.9 4.8,8.2 15.5,7 2.1,-0.4 -5.7,-8.7 -1.2,-11 1.4,3.3 5,6.9 13.3,6.9 -2.1,-8.4 -1.9,-9.1 1.7,-11.7 1.4,14 62.8,17.8 101.4,22.8 -0.3,3.9 -3.1,12.7 -2.4,18.8 1.9,15 10,33.1 17.1,37.2 -1.7,-9.3 0.5,-7.9 1,-16.4 6.4,3.3 4.7,15.4 6.4,21.9 2.4,-5.3 2.1,-15.5 4,-16.5 3.6,6.7 2.9,13.1 4.3,18.1 6.7,-5.7 4.3,-16.4 5,-20.9 4.1,5.2 6.9,10.2 9.8,16.6 4,-16.9 -5.3,-31.1 -7.9,-38.3 4.8,1 3.6,3.3 8.1,6 0,-14.8 -5.7,-27.9 -12.1,-39.3 -13.8,-31.2 -7.6,-40.4 -11,-65.8 -1.9,-14 -10.2,-16.1 -19.2,-27.4 5.4,1.8 6.4,3.1 9.9,-0.9 -5.2,-1.2 -11.1,-6.4 -18.3,-11.7 -6.6,-5 -12.4,-11.6 -20.7,-13.9 -44.3,-20 -116.6,-7.3 -128.7,-9 -26.5,-3.6 -58.1,-6.7 -81,-4.2 -4,0.5 -9,2.2 -12.3,3 -2.7,0.5 -5.5,1.9 -2.7,-0.6 2.2,-2.5 1.2,-2.1 -1.1,-1.5 -13.4,3.8 -19.3,3.9 -22.4,2.7 -1.7,0.3 4.5,-1.1 5.9,-4.8 1,-2.8 0.5,-2.3 -1.4,-2.1 -5.9,1 -14,2.6 -22.6,-0.4 -3.3,-0.6 0,-0.9 0,-1.3 1.9,-0.7 3.3,-1.6 4.5,-2.7 1.9,-1.8 2.6,-3.8 0.3,-2.1 -5.8,4.3 -25,0.5 -29.1,-3.1 -22.1,-19 -37.4,-18.3 -59,-12.9 z"/>
  <g id="hind-left">
    <path d="m 459.1,363.3 c -0.2,3.4 -1.2,6.7 -3.3,10 -4.3,6.7 -6.4,13.1 -11.7,17.4 -18.8,10.7 -19.5,-3.3 -36.1,8.8 -6.7,4.1 -6,8.8 -3.6,11 22.1,-8.4 41.4,20.2 62.8,11.4 5.7,-2.4 3.8,-10.2 8.8,-14.3 4.1,-3.1 12.2,-15.9 15.5,-28.8 l -4,-21.6"/>
    <path d="m 418.7,253.4 c -0.7,4.1 -12.6,-1.4 -18.4,23.5 10.8,-4.5 15.8,-4.7 16.5,-3.1 -17.9,12.6 -14.8,19.5 -14.1,27.7 6.9,-10.1 16,-8.8 12.9,-4.2 -10.3,15.6 -8.6,27.5 -4.3,33.2 3.8,5.2 12.6,14 16.7,20.9 0.7,1.5 0.2,-6.9 2.3,-10.4 14.3,7.8 19.6,14.5 23.4,35 0.2,2.8 0,-10.8 6.1,-13.1 12.2,6.6 14.3,8.1 18.4,23.1 0.7,-11.7 1.2,-16.2 0.9,-18.6 6,2.8 9.5,7.4 13.8,12.4 0.7,0.9 1.7,1.9 2.6,2.8 -0.4,-5.5 -1.1,-10.2 -2.1,-14 -1.4,-5 -2.9,-9.3 -3.8,-14.1 -0.5,-3.8 3.8,-8.1 4.5,-13.1 5.7,-10.9 13.8,-32.6 9.1,-49.7"/>
    <path class="claw" d="m 403.1,405 c 0.9,-1.1 2.8,-0.2 3.8,1.2 1,1.5 1.4,4.8 -0.2,4.8 -3.6,0.7 -5.8,3.6 -7.4,6.4 -1.7,-4.7 0,-9.3 3.8,-12.4 z"/>
    <path d="m 416.3,403.8 c 0,0 -9,2.9 -12.1,7.4 -0.5,2.6 2.6,7.4 5.2,7.8 10.2,-10.7 13.3,-10.4 13.3,-10.4"/>
    <path d="m 423.7,407.1 c 0,0 -10.3,5.3 -13.1,10.5 -1.9,3.6 3.8,7.4 8.1,7.9 8.1,-6.2 11.6,-12.4 11.6,-12.4"/>
    <path d="m 430.6,412.8 c 0,0 -14.5,6.5 -11.2,12.7 4,5.4 10,3.5 16.2,1.4 7.3,-2.6 12.8,-16.2 12.8,-16.2"/>
    <path class="claw" d="m 404.6,412.8 c 0.7,-1.2 2.6,-0.9 4,-0.2 1.5,0.9 3.1,3.8 1.7,4.5 -2.8,1.9 -3.8,5.2 -4.3,8.6 -3.3,-3.8 -3.5,-8.6 -1.4,-12.9 z"/>
    <path class="claw" d="m 411,419.7 c 0.8,-1.4 2.7,-1.2 4.1,-0.2 1.4,0.9 3.1,3.5 1.9,4.5 -3.1,1.9 -4.1,5.4 -4.5,8.8 -3.4,-3.8 -3.6,-8.8 -1.5,-13.1 z"/>
    <path class="claw" d="m 420.4,423.7 c 0.7,-1.5 2.6,-1.2 4,-0.3 1.4,1 3.1,3.6 1.9,4.5 -3.1,1.9 -4,5.5 -4.5,8.8 -3.3,-3.8 -3.6,-8.8 -1.4,-13 z"/>
  </g>
  <g id="face">
    <path d="m 154.5,155 c -8.3,-9.5 -40.9,-1.9 -33.6,12.5 4.1,-4.1 9.3,-7.3 13.6,-8.2 2.6,-0.6 1.9,0.5 -1.4,8.8 6.9,-5.9 10,-3.6 9.5,-2.2 -1,2.8 -5.2,4.9 -8.8,8.9 13.1,6.5 27.8,-11.9 20.7,-19.8 z"/>
    <g style="stroke:none;">
      <path style="fill:#000000;" d="m 95.23,195.9 c -9.76,-3 -10.95,-4.9 -17.37,-2.3 -6.19,2.6 -3.1,5.1 -9.76,13.4 7.85,0 10.23,4.5 15.95,2.4 6.18,-2.3 6.42,-7.5 11.18,-13.5 z"/>
      <path style="fill:#ffffff;" d="m 74.05,201.1 c 0.71,2.5 5.47,5.7 9.76,4.4 4.04,-1.2 6.19,-6.5 5.23,-9 -0.95,-2.6 -4.04,-1 -8.33,0.3 -4.04,1.3 -7.61,1.8 -6.66,4.3 z"/>
      <path style="fill:#333333;" d="m 76.67,202.2 c 0.47,2 2.38,3.3 4.28,3 1.91,-0.4 2.86,-2.2 2.62,-4.2 -0.48,-2 -2.38,-3.3 -4.28,-3 -1.91,0.3 -3.1,2.3 -2.62,4.2 zz"/>
      <path style="fill:#000000;" d="m 79.52,199.9 c 0.96,-0.2 1.91,0.4 2.15,1.4 0.23,1 -0.48,1.8 -1.43,2 -0.95,0.3 -1.91,-0.3 -2.14,-1.4 -0.24,-1 0.47,-1.8 1.42,-2 z"/>
      <path style="fill:#ffffff;" d="m 80.39,199.7 c 0.71,-0.2 1.43,0.3 1.43,1 0.24,0.7 -0.24,1.3 -0.72,1.4 -0.71,0.3 -1.42,-0.2 -1.66,-0.9 0,-0.8 0.24,-1.4 0.95,-1.5 z"/>
      <path style="fill:#333333;" d="m 28.79,216.3 c 3.62,-1.5 8.75,2 10.23,5.6 1.03,2.5 0.29,7 -2.3,7.7 -4.08,1.2 -8.42,-4.3 -9.54,-8.4 -0.45,-1.7 0,-4.3 1.61,-4.9 z"/>
      <path style="fill:#000000;" d="m 29.68,220.6 c 0,0.8 0.95,1.5 2.38,1.7 1.43,0.2 2.62,-0.3 2.62,-1.1 0.23,-0.8 -0.96,-1.5 -2.38,-1.6 -1.43,-0.3 -2.62,0.2 -2.62,1 0,0 0,0 0,0 z"/>
    </g>
  </g>
  <g id="fore-left">
    <path d="m 221.1,321.7 c -4.3,2.9 -8.8,5.9 -11.4,9.8 -15.7,25.9 -16.9,42.6 -28.6,52.1 -18.8,10.9 -19.5,-3.4 -36.1,8.8 -6.7,4 -6,9 -3.6,11.2 22.1,-8.4 41.4,20.2 62.8,11.4 5.7,-2.4 3.8,-10.5 8.8,-14.3 11.5,-8.8 19.6,-14.3 29.1,-24.7 11.6,-12.7 10,-18.8 22.8,-30 6.2,-5.5 15.7,-7.2 21.2,-13.1"/>
    <path class="claw" d="m 139.2,398.1 c 1.2,-1.2 2.9,-0.2 4,1.2 0.8,1.4 1.5,4.5 -0.2,4.8 -3.6,0.7 -5.7,3.5 -7.4,6.6 -1.6,-4.7 0,-9.5 3.6,-12.6 z"/>
    <path d="m 153.3,396.7 c 0,0 -9,3.1 -12.1,7.6 -0.5,2.6 2.6,7.1 5.2,7.6 10.2,-10.5 13.3,-10.5 13.3,-10.5"/>
    <path class="claw" d="m 141.5,405.2 c 0.6,-1.4 2.8,-0.8 4.1,0 1.1,1.1 2.7,3.9 1.2,4.4 -3.2,1.8 -4.5,5.1 -5.2,8.3 -3.1,-4 -2.7,-9 -0.1,-12.7 z"/>
    <path d="m 160.7,400.2 c 0,0 -10.3,5.3 -13.1,10.3 -1.9,3.8 3.8,7.6 8.1,8.1 8.1,-6.5 11.6,-12.7 11.6,-12.7"/>
    <path class="claw" d="m 148.8,413.3 c 0.7,-1.4 2.6,-1.2 4,-0.2 1.5,0.7 3.4,3.6 1.9,4.3 -3.1,2.1 -3.8,5.7 -4.3,9 -3.3,-3.8 -3.8,-8.8 -1.6,-13.1 z"/>
    <path d="m 167.6,405.7 c 0,0 -14.5,6.7 -11.2,12.9 4,5.4 10,3.3 16.2,1.4 7.4,-2.6 12.8,-16.4 12.8,-16.4"/>
    <path class="claw" d="m 158.2,416.8 c 0.7,-1.5 2.6,-1.2 4.1,-0.3 1.4,0.7 3.3,3.6 1.9,4.3 -3.1,2.1 -3.8,5.7 -4.3,9 -3.3,-3.8 -3.8,-8.8 -1.7,-13 z"/>
  </g>
</g>
<use id="shine" xlink:href="#shield" fill="url(#rg)" stroke="#000" stroke-width="3"/>
</svg>
