<?xml version="1.0" encoding="UTF-8" standalone="no"?>
<svg
   xmlns:dc="http://purl.org/dc/elements/1.1/"
   xmlns:cc="http://creativecommons.org/ns#"
   xmlns:rdf="http://www.w3.org/1999/02/22-rdf-syntax-ns#"
   xmlns:svg="http://www.w3.org/2000/svg"
   xmlns="http://www.w3.org/2000/svg"
   xmlns:xlink="http://www.w3.org/1999/xlink"
   xmlns:sodipodi="http://sodipodi.sourceforge.net/DTD/sodipodi-0.dtd"
   xmlns:inkscape="http://www.inkscape.org/namespaces/inkscape"
   width="600"
   height="660"
   id="svg2"
   version="1.1"
   inkscape:version="0.48.2 r9819"
   sodipodi:docname="House_Dondarrion.svg">
  <metadata
     id="metadata24">
    <rdf:RDF>
      <cc:Work
         rdf:about="">
        <dc:format>image/svg+xml</dc:format>
        <dc:type
           rdf:resource="http://purl.org/dc/dcmitype/StillImage" />
        <dc:title />
      </cc:Work>
    </rdf:RDF>
  </metadata>
  <sodipodi:namedview
     pagecolor="#ffffff"
     bordercolor="#666666"
     borderopacity="1"
     objecttolerance="10"
     gridtolerance="10"
     guidetolerance="10"
     inkscape:pageopacity="0"
     inkscape:pageshadow="2"
     inkscape:window-width="1366"
     inkscape:window-height="715"
     id="namedview22"
     showgrid="false"
     inkscape:zoom="0.71515152"
     inkscape:cx="285.60474"
     inkscape:cy="372.97228"
     inkscape:window-x="-8"
     inkscape:window-y="-8"
     inkscape:window-maximized="1"
     inkscape:current-layer="layer2" />
  <defs
     id="defs4">
    <inkscape:path-effect
       effect="spiro"
       id="path-effect7615"
       is_visible="true" />
    <inkscape:path-effect
       effect="spiro"
       id="path-effect3576"
       is_visible="true" />
    <inkscape:path-effect
       is_visible="true"
       id="path-effect3572"
       effect="spiro" />
    <inkscape:path-effect
       effect="spiro"
       id="path-effect3568"
       is_visible="true" />
    <inkscape:path-effect
       is_visible="true"
       id="path-effect3136"
       effect="spiro" />
    <inkscape:path-effect
       effect="spiro"
       id="path-effect3132"
       is_visible="true" />
    <inkscape:path-effect
       effect="spiro"
       id="path-effect3101"
       is_visible="true" />
    <inkscape:path-effect
       is_visible="true"
       id="path-effect3085"
       effect="spiro" />
    <inkscape:path-effect
       is_visible="true"
       id="path-effect3083"
       effect="spiro" />
    <inkscape:path-effect
       is_visible="true"
       id="path-effect3081"
       effect="spiro" />
    <inkscape:path-effect
       is_visible="true"
       id="path-effect3079"
       effect="spiro" />
    <inkscape:path-effect
       is_visible="true"
       id="path-effect3077"
       effect="spiro" />
    <inkscape:path-effect
       is_visible="true"
       id="path-effect3075"
       effect="spiro" />
    <inkscape:path-effect
       effect="spiro"
       id="path-effect3049"
       is_visible="true" />
    <inkscape:path-effect
       is_visible="true"
       id="path-effect3045"
       effect="spiro" />
    <inkscape:path-effect
       effect="spiro"
       id="path-effect3041"
       is_visible="true" />
    <radialGradient
       id="rg"
       gradientUnits="userSpaceOnUse"
       cx="220"
       cy="220"
       r="405">
      <stop
         style="stop-color:#fff;stop-opacity:.3"
         offset="0"
         id="stop7" />
      <stop
         style="stop-color:#fff;stop-opacity:.2"
         offset=".2"
         id="stop9" />
      <stop
         style="stop-color:#666;stop-opacity:.1"
         offset=".6"
         id="stop11" />
      <stop
         style="stop-color:#000;stop-opacity:.13"
         offset="1"
         id="stop13" />
    </radialGradient>
    <path
       id="shield"
       d="m2,2v257c0,286 298,398 298,398c0,0 298-112 298-398V2z" />
    <radialGradient
       inkscape:collect="always"
       xlink:href="#rg-7"
       id="radialGradient3055-1"
       gradientUnits="userSpaceOnUse"
       cx="220"
       cy="220"
       r="405" />
    <radialGradient
       id="rg-7"
       gradientUnits="userSpaceOnUse"
       cx="220"
       cy="220"
       r="405">
      <stop
         style="stop-color:#fff;stop-opacity:.3"
         offset="0"
         id="stop7-4" />
      <stop
         style="stop-color:#fff;stop-opacity:.2"
         offset=".2"
         id="stop9-0" />
      <stop
         style="stop-color:#666;stop-opacity:.1"
         offset=".6"
         id="stop11-9" />
      <stop
         style="stop-color:#000;stop-opacity:.13"
         offset="1"
         id="stop13-4" />
    </radialGradient>
    <radialGradient
       r="405"
       cy="220"
       cx="220"
       gradientUnits="userSpaceOnUse"
       id="radialGradient3074"
       xlink:href="#rg-7"
       inkscape:collect="always" />
    <inkscape:path-effect
       is_visible="true"
       id="path-effect10120-1"
       effect="spiro" />
    <inkscape:path-effect
       effect="spiro"
       id="path-effect10118-3"
       is_visible="true" />
    <inkscape:path-effect
       effect="spiro"
       id="path-effect10116-9"
       is_visible="true" />
    <inkscape:path-effect
       effect="spiro"
       id="path-effect10114-7"
       is_visible="true" />
    <inkscape:path-effect
       effect="spiro"
       id="path-effect10112-7"
       is_visible="true" />
    <inkscape:path-effect
       effect="spiro"
       id="path-effect10110-2"
       is_visible="true" />
    <linearGradient
       inkscape:collect="always"
       xlink:href="#linearGradient4719-5"
       id="linearGradient4039"
       gradientUnits="userSpaceOnUse"
       gradientTransform="matrix(2.3257341,0,0,2.2943177,447.69485,-1820.2799)"
       x1="-145.25935"
       y1="984.24286"
       x2="-64.14286"
       y2="984.14789" />
    <linearGradient
       inkscape:collect="always"
       id="linearGradient4719-5">
      <stop
         style="stop-color:#666666;stop-opacity:1;"
         offset="0"
         id="stop4721-5" />
      <stop
         id="stop4809-1"
         offset="0.39344174"
         style="stop-color:#666666;stop-opacity:0.74901961;" />
      <stop
         style="stop-color:#666666;stop-opacity:0;"
         offset="1"
         id="stop4723-7" />
    </linearGradient>
    <radialGradient
       inkscape:collect="always"
       xlink:href="#linearGradient4801-8"
       id="radialGradient4041"
       gradientUnits="userSpaceOnUse"
       gradientTransform="matrix(-0.72153181,1.2650715,-2.2729984,-1.2616144,1712.0113,1733.7841)"
       cx="-307.14288"
       cy="782.36218"
       fx="-307.14288"
       fy="782.36218"
       r="63" />
    <linearGradient
       inkscape:collect="always"
       id="linearGradient4801-8">
      <stop
         style="stop-color:#000000;stop-opacity:1;"
         offset="0"
         id="stop4803-2" />
      <stop
         style="stop-color:#000000;stop-opacity:0;"
         offset="1"
         id="stop4805-4" />
    </linearGradient>
    <inkscape:path-effect
       effect="spiro"
       id="path-effect10108-4"
       is_visible="true" />
    <linearGradient
       inkscape:collect="always"
       xlink:href="#linearGradient4719-5"
       id="linearGradient4044"
       gradientUnits="userSpaceOnUse"
       gradientTransform="matrix(-2.4055369,0,0,-1.6485021,142.06168,1726.5307)"
       x1="-145.25935"
       y1="984.24286"
       x2="-64.14286"
       y2="984.14789" />
    <radialGradient
       inkscape:collect="always"
       xlink:href="#linearGradient4801-8"
       id="radialGradient4046"
       gradientUnits="userSpaceOnUse"
       gradientTransform="matrix(0.74628962,-0.90897301,2.3509914,0.90648896,-1165.637,-827.11785)"
       cx="-307.14288"
       cy="782.36218"
       fx="-307.14288"
       fy="782.36218"
       r="63" />
    <inkscape:path-effect
       effect="spiro"
       id="path-effect10102-7"
       is_visible="true" />
    <linearGradient
       inkscape:collect="always"
       xlink:href="#linearGradient4719-5"
       id="linearGradient4049"
       gradientUnits="userSpaceOnUse"
       gradientTransform="matrix(2.334989,0,0,-1.6146975,449.44065,1692.189)"
       x1="-145.25935"
       y1="984.24286"
       x2="-64.14286"
       y2="984.14789" />
    <radialGradient
       inkscape:collect="always"
       xlink:href="#linearGradient4801-8"
       id="radialGradient4051"
       gradientUnits="userSpaceOnUse"
       gradientTransform="matrix(-0.72440295,-0.89033332,-2.2820431,0.88790031,1718.7881,-809.09364)"
       cx="-307.14288"
       cy="782.36218"
       fx="-307.14288"
       fy="782.36218"
       r="63" />
    <inkscape:path-effect
       is_visible="true"
       id="path-effect10096-8"
       effect="spiro" />
    <linearGradient
       inkscape:collect="always"
       xlink:href="#linearGradient4719-5"
       id="linearGradient4054"
       gradientUnits="userSpaceOnUse"
       gradientTransform="matrix(-2.409599,0,0,2.2818507,139.61083,-1810.8163)"
       x1="-145.25935"
       y1="984.24286"
       x2="-64.14286"
       y2="984.14789" />
    <radialGradient
       inkscape:collect="always"
       xlink:href="#linearGradient4801-8"
       id="radialGradient4056"
       gradientUnits="userSpaceOnUse"
       gradientTransform="matrix(0.74754985,1.2581972,2.3549614,-1.2547588,-1170.296,1723.935)"
       cx="-307.14288"
       cy="782.36218"
       fx="-307.14288"
       fy="782.36218"
       r="63" />
    <inkscape:path-effect
       is_visible="true"
       id="path-effect10090-3"
       effect="spiro" />
    <inkscape:path-effect
       effect="spiro"
       id="path-effect10084-1"
       is_visible="true" />
    <inkscape:path-effect
       effect="spiro"
       id="path-effect10082-1"
       is_visible="true" />
    <radialGradient
       inkscape:collect="always"
       xlink:href="#linearGradient4801-8"
       id="radialGradient4061"
       gradientUnits="userSpaceOnUse"
       gradientTransform="matrix(-0.76516322,1.2901254,-2.4104477,-1.2865998,1806.8444,1757.4704)"
       cx="-307.14288"
       cy="782.36218"
       fx="-307.14288"
       fy="782.36218"
       r="63" />
    <inkscape:path-effect
       effect="spiro"
       id="path-effect10080-4"
       is_visible="true" />
    <inkscape:path-effect
       is_visible="true"
       id="path-effect3075-1"
       effect="spiro" />
    <inkscape:path-effect
       effect="spiro"
       id="path-effect3101-7"
       is_visible="true" />
    <linearGradient
       inkscape:collect="always"
       xlink:href="#grad1-7-7"
       id="linearGradient3085-8-8"
       gradientUnits="userSpaceOnUse"
       gradientTransform="matrix(0.77469594,0,0,0.30982404,152.68996,-13.619206)"
       x1="78.877235"
       y1="178.07356"
       x2="301.40585"
       y2="178.07356" />
    <linearGradient
       id="grad1-7-7"
       x1="78.877235"
       y1="178.07356"
       x2="301.40585"
       y2="178.07356"
       gradientTransform="scale(1.577772,0.63380513)"
       gradientUnits="userSpaceOnUse">
      <stop
         offset="0%"
         style="stop-color:#da0;"
         id="stop16-4-4" />
      <stop
         offset="40%"
         style="stop-color:#fd0;"
         id="stop18-0-0" />
      <stop
         offset="60%"
         style="stop-color:#fd0;"
         id="stop20-9-9" />
      <stop
         offset="100%"
         style="stop-color:#da0;"
         id="stop22-4-4" />
    </linearGradient>
    <linearGradient
       inkscape:collect="always"
       xlink:href="#grad1-7-7"
       id="linearGradient3081-8-8"
       gradientUnits="userSpaceOnUse"
       gradientTransform="matrix(0.77469594,0,0,0.30982404,-27.310046,-13.619206)"
       x1="78.877235"
       y1="178.07356"
       x2="301.40585"
       y2="178.07356" />
    <linearGradient
       id="linearGradient3093"
       x1="78.877235"
       y1="178.07356"
       x2="301.40585"
       y2="178.07356"
       gradientTransform="scale(1.577772,0.63380513)"
       gradientUnits="userSpaceOnUse">
      <stop
         offset="0%"
         style="stop-color:#da0;"
         id="stop3095" />
      <stop
         offset="40%"
         style="stop-color:#fd0;"
         id="stop3097" />
      <stop
         offset="60%"
         style="stop-color:#fd0;"
         id="stop3099" />
      <stop
         offset="100%"
         style="stop-color:#da0;"
         id="stop3101" />
    </linearGradient>
    <linearGradient
       y2="178.07356"
       x2="301.40585"
       y1="178.07356"
       x1="78.877235"
       gradientTransform="matrix(0.77469594,0,0,0.30982404,332.68995,-13.619206)"
       gradientUnits="userSpaceOnUse"
       id="linearGradient3128-1"
       xlink:href="#grad1-7-7"
       inkscape:collect="always" />
    <linearGradient
       id="linearGradient3104"
       x1="78.877235"
       y1="178.07356"
       x2="301.40585"
       y2="178.07356"
       gradientTransform="scale(1.577772,0.63380513)"
       gradientUnits="userSpaceOnUse">
      <stop
         offset="0"
         style="stop-color:#ffffff;stop-opacity:1;"
         id="stop3110" />
      <stop
         offset="1"
         style="stop-color:#ffffff;stop-opacity:0;"
         id="stop3112" />
    </linearGradient>
    <inkscape:path-effect
       is_visible="true"
       id="path-effect3061"
       effect="spiro" />
    <clipPath
       clipPathUnits="userSpaceOnUse"
       id="clipPath10110">
      <path
         style="fill:#ffff00;fill-opacity:1;stroke:none"
         id="path10112"
         d="M 598,2 V 259 C 598,545 300,657 300,657 300,657 2,545 2,259 V 2 z"
         inkscape:connector-curvature="0" />
    </clipPath>
    <filter
       id="filter3085"
       inkscape:label="Fancy blur"
       inkscape:menu="Blurs"
       inkscape:menu-tooltip="Smooth colorized contour which allows desaturation and hue rotation"
       color-interpolation-filters="sRGB">
      <feGaussianBlur
         id="feGaussianBlur3087"
         stdDeviation="5"
         result="result1" />
      <feComposite
         id="feComposite3089"
         in2="result1"
         operator="arithmetic"
         k2="2"
         in="result1" />
    </filter>
    <filter
       id="filter3476"
       inkscape:label="Evanescent"
       inkscape:menu="Blurs"
       inkscape:menu-tooltip="Blur the contents of objects, preserving the outline and adding progressive transparency at edges"
       color-interpolation-filters="sRGB">
      <feGaussianBlur
         id="feGaussianBlur3478"
         result="result6"
         stdDeviation="3"
         in="SourceGraphic" />
      <feColorMatrix
         id="feColorMatrix3480"
         values="1 0 0 0 0 0 1 0 0 0 0 0 1 0 0 0 0 0 1 0 "
         result="result7"
         in="SourceGraphic" />
      <feComposite
         id="feComposite3482"
         in2="result7"
         operator="in"
         in="result6" />
    </filter>
  </defs>
  <g
     inkscape:groupmode="layer"
     id="layer2"
     inkscape:label="Elements"
     style="display:inline">
    <path
       inkscape:connector-curvature="0"
       d="M 598,2 V 259 C 598,545 300,657 300,657 300,657 2,545 2,259 V 2 z"
       id="path13"
       style="fill:#000000;fill-opacity:1;stroke:none;display:inline" />
    <path
       inkscape:connector-curvature="0"
       style="fill:#ffffff;fill-opacity:1;fill-rule:evenodd;stroke:none;display:inline"
       d="m 66.446505,8.15678 -11.53125,35.03125 -35.03125,11.531257 35.03125,11.53125 11.53125,35.031253 L 77.977755,66.250537 113.009,54.719287 77.977755,43.18803 66.446505,8.15678 z"
       id="path3116" />
    <path
       inkscape:connector-curvature="0"
       style="fill:#ffffff;fill-opacity:1;fill-rule:evenodd;stroke:none;display:inline"
       d="m 181.50953,33.77469 -11.53125,35.03125 -35.03125,11.53125 35.03125,11.53125 11.53125,35.03125 11.53125,-35.03125 35.03125,-11.53125 -35.03125,-11.53125 -11.53125,-35.03125 z"
       id="path3114" />
    <path
       inkscape:connector-curvature="0"
       style="fill:#ffffff;fill-opacity:1;fill-rule:evenodd;stroke:none;display:inline"
       d="m 526.28631,38.450616 -11.53125,35.03125 -35.03125,11.53125 35.03125,11.53125 11.53125,35.031254 11.53125,-35.031254 35.03125,-11.53125 -35.03125,-11.53125 -11.53125,-35.03125 z"
       id="path3112" />
    <path
       inkscape:connector-curvature="0"
       style="fill:#ffffff;fill-opacity:1;fill-rule:evenodd;stroke:none;display:inline"
       d="m 436.84471,139.07037 -11.53125,35.03125 -35.03125,11.53125 35.03125,11.53125 11.53125,35.03125 11.53125,-35.03125 35.03125,-11.53125 -35.03125,-11.53125 -11.53125,-35.03125 z"
       id="path3110" />
    <path
       inkscape:connector-curvature="0"
       style="fill:#ffffff;fill-opacity:1;fill-rule:evenodd;stroke:none;display:inline"
       d="m 181.43143,161.01055 -11.53125,35.03125 -34.875,11.46875 c 0.0101,0.0419 0.0211,0.0832 0.0312,0.125 l 34.84375,11.46875 11.53125,35.03125 11.53125,-35.03125 35.03125,-11.53125 -35.03125,-11.53125 -11.53125,-35.03125 z"
       id="path3108" />
    <path
       inkscape:connector-curvature="0"
       style="fill:#ffffff;fill-opacity:1;fill-rule:evenodd;stroke:none;display:inline"
       d="m 250.28335,292.61926 -11.53125,35.03125 -35.03125,11.53125 35.03125,11.53125 11.53125,35.03125 11.53125,-35.03125 35.03125,-11.53125 -35.03125,-11.53125 -11.53125,-35.03125 z"
       id="path3106" />
    <path
       inkscape:connector-curvature="0"
       style="fill:#ffffff;fill-opacity:1;fill-rule:evenodd;stroke:none;display:inline"
       d="m 408.33298,319.35672 -11.53125,35.03125 -35.03125,11.53125 35.03125,11.53125 11.53125,35.03125 11.53125,-35.03125 35.03125,-11.53125 -35.03125,-11.53125 -11.53125,-35.03125 z"
       id="path3104" />
    <path
       inkscape:connector-curvature="0"
       style="fill:#ffffff;fill-opacity:1;fill-rule:evenodd;stroke:none;display:inline"
       d="m 188.41586,462.21124 -11.53125,35.03125 -35.03125,11.53125 35.03125,11.53125 11.53125,35.03125 11.53125,-35.03125 35.03125,-11.53125 -35.03125,-11.53125 -11.53125,-35.03125 z"
       id="path3100" />
    <path
       inkscape:connector-curvature="0"
       style="fill:#ffffff;fill-opacity:1;fill-rule:evenodd;stroke:none;display:inline"
       d="m 349.54979,503.41155 -11.53125,35.03125 -35.03125,11.53125 35.03125,11.53125 11.53125,35.03125 11.53125,-35.03125 35.03125,-11.53125 -35.03125,-11.53125 -11.53125,-35.03125 z"
       id="path3929" />
    <path
       style="fill:#ffffff;fill-opacity:1;fill-rule:evenodd;stroke:none;display:inline"
       d="m 75.411548,262.61281 -11.5,35.03125 -35.062501,11.53125 35.062501,11.53125 11.5,35.0625 11.53125,-35.0625 35.062502,-11.53125 -35.062502,-11.53125 -11.53125,-35.03125 z"
       id="path3117"
       inkscape:connector-curvature="0" />
    <path
       style="fill:#ffffff;fill-opacity:1;fill-rule:evenodd;stroke:none;display:inline"
       d="m 406.27953,21.237095 -11.53125,35.03125 -35.03125,11.53125 35.03125,11.53125 11.53125,35.062505 11.53125,-35.062505 35.0625,-11.53125 -35.0625,-11.53125 -11.53125,-35.03125 z"
       id="path3115"
       inkscape:connector-curvature="0" />
    <path
       style="fill:#ffffff;fill-opacity:1;fill-rule:evenodd;stroke:none;display:inline"
       d="m 131.90589,362.40422 -11.5,35.03125 -35.062497,11.53125 35.062497,11.53125 11.5,35.0625 11.53125,-35.0625 35.0625,-11.53125 -35.0625,-11.53125 -11.53125,-35.03125 z"
       id="path3107"
       inkscape:connector-curvature="0" />
    <path
       style="fill:#ffffff;fill-opacity:1;fill-rule:evenodd;stroke:none;display:inline"
       d="m 320.51113,383.90231 -11.53125,35.03125 -35.03125,11.53125 35.03125,11.53125 11.53125,35.0625 11.53125,-35.0625 35.0625,-11.53125 -35.0625,-11.53125 -11.53125,-35.03125 z"
       id="path3105"
       inkscape:connector-curvature="0" />
    <path
       style="fill:#ffffff;fill-opacity:1;fill-rule:evenodd;stroke:none;display:inline"
       d="m 439.00309,431.11664 -11.53125,35.03125 -35.03125,11.53125 35.03125,11.53125 11.53125,35.0625 11.53125,-35.0625 35.03125,-11.53125 -35.03125,-11.53125 -11.53125,-35.03125 z"
       id="path3899"
       inkscape:connector-curvature="0" />
    <path
       style="fill:#aa00aa;stroke:none;display:inline;"
       d="m 280.65625,2 c -2.55408,6.2511739 -5.35752,17.381885 -11.75,42.6875 -1.49017,5.89909 -3.4974,13.741944 -4.46875,17.4375 -2.01822,7.678446 -6.00011,22.925687 -10.25,39.25 -2.04286,7.84688 -2.51579,11.60921 -1.59375,12.53125 1.01003,1.01004 4.90202,-4.8e-4 16.6875,-4.34375 17.61305,-6.49098 19.06945,-6.82705 18.96875,-4.25 -12.13092,23.00985 -28.48241,45.55776 -41.5625,66.34375 -10.46782,16.64549 -10.80277,17.3253 -10.34375,20.34375 0.36098,2.37378 2.87401,5.66366 13.09375,17.15625 11.22217,12.61988 31.63651,35.17491 37.8125,41.78125 1.27923,1.36833 1.95685,3.02844 1.59375,3.84375 -0.64137,1.44008 -3.55174,1.68676 -46.96875,4.28125 l -21.125,1.28125 -14.5625,8.71875 c -8.00763,4.80967 -18.23154,11.09795 -22.75,13.96875 -4.51846,2.8708 -9.65107,6.03282 -11.375,7.03125 -1.72392,0.99844 -5.22455,3.2162 -7.8125,4.90625 -2.58796,1.69004 -5.7303,3.51426 -6.96875,4.0625 -1.23847,0.54823 -3.13455,1.88455 -4.21875,2.96875 -1.08419,1.08419 -4.54282,3.28472 -7.6875,4.875 -3.14468,1.59026 -6.0246,3.52573 -6.375,4.3125 -0.41503,0.93189 0.73607,3.12606 3.28125,6.28125 6.21943,7.71003 20.17638,23.69572 30.09375,34.5 5.60022,6.10103 52.18692,58.9207 53.53125,61.0625 1.34433,2.14182 5.94046,7.70838 10.21875,12.375 15.51312,16.92123 27.93432,31.51902 28.5625,33.59375 0.61833,2.04223 0.11748,8.49387 -1.75,22.34375 -1.59711,11.84461 -5.40757,45.75507 -6.125,54.5 -0.82619,10.07057 -0.24375,16.65631 1.75,19.75 0.78769,1.22224 1.96492,3.27803 2.625,4.5625 0.66009,1.28446 2.22727,4.14755 3.5,6.375 1.27273,2.22745 3.67724,6.53086 5.3125,9.5625 1.63526,3.03165 5.31448,9.86218 8.1875,15.15625 2.87302,5.29407 6.28735,11.70383 7.59375,14.25 1.3064,2.54616 4.16188,6.69718 6.34375,9.21875 3.79283,4.38336 3.93085,4.43652 3.1875,1.65625 -0.42762,-1.59936 -2.49983,-5.87397 -4.59375,-9.53125 -2.09392,-3.65726 -6.15249,-11.62136 -9.03125,-17.6875 -2.87876,-6.06614 -6.01688,-12.33337 -6.96875,-13.9375 -0.95188,-1.60414 -2.9104,-5.7251 -4.34375,-9.125 -1.43336,-3.3999 -3.59225,-8.28441 -4.8125,-10.875 -1.99265,-4.23041 -2.0235,-6.14601 -0.21875,-18.875 1.10518,-7.79487 2.34325,-16.74589 2.75,-19.875 0.40676,-3.12911 1.2942,-9.10653 1.96875,-13.28125 3.70245,-22.91431 6.48849,-46.74637 5.65625,-48.5625 -1.16976,-2.55265 -7.4948,-10.6213 -31.1875,-39.75 -10.11767,-12.43903 -20.95424,-25.7954 -24.0625,-29.6875 -3.10826,-3.8921 -11.52518,-14.21705 -18.71875,-22.96875 -7.19356,-8.75169 -17.20886,-21.01278 -22.25,-27.25 -5.04113,-6.23722 -10.25402,-12.70242 -11.59375,-14.34375 -1.33973,-1.64132 -2.4375,-3.32503 -2.4375,-3.75 0,-0.81558 19.0696,-15.15813 32.375,-24.34375 2.30074,-1.58835 7.88071,-5.48748 12.375,-8.65625 6.0952,-4.29751 9.19278,-5.86145 12.1875,-6.1875 5.37995,-0.58576 15.7773,-0.81025 65.25,-1.40625 23.05677,-0.27776 43.14242,-0.75505 44.625,-1.0625 1.61878,-0.33569 2.6875,-1.07112 2.6875,-1.84375 0,-0.72269 -17.26869,-18.94222 -39.4375,-41.5625 -21.70643,-22.14848 -39.59146,-40.71079 -39.71875,-41.25 -0.42619,-1.80536 1.45088,-2.61354 11.34375,-4.8125 5.40912,-1.20233 13.09111,-3.07182 17.0625,-4.15625 3.9714,-1.08441 8.37739,-2.06696 9.8125,-2.1875 1.4351,-0.12052 5.58488,-1.06071 9.21875,-2.09375 3.63385,-1.03304 11.12746,-2.79234 16.625,-3.90625 5.49753,-1.11391 13.90501,-3.2162 18.6875,-4.65625 9.81464,-2.95527 12.87501,-3.34373 14.3125,-1.90625 0.54784,0.54785 1.41547,6.95332 1.90625,14.25 0.49078,7.29669 1.14522,15.65498 1.46875,18.5625 0.32353,2.90752 0.71656,8.39052 0.875,12.1875 0.15844,3.79699 0.74069,11.46613 1.28125,17.0625 0.54056,5.59638 1.17007,13.89208 1.40625,18.40625 0.23617,4.51417 0.83882,13.05035 1.34375,19 0.50493,5.94965 1.46362,18.82383 2.125,28.59375 0.76815,11.3475 1.72961,17.99355 2.65625,18.40625 1.17544,0.52349 40.25048,-8.46923 41.28125,-9.5 0.16366,-0.16366 3.75586,-1.13642 8,-2.15625 7.17663,-1.72447 35.81038,-9.24459 47.46875,-12.46875 9.27108,-2.56395 10.4229,-2.60778 11.53125,-0.46875 0.56185,1.08433 0.41939,7.2549 -0.3125,13.6875 -0.73188,6.43261 -1.86441,16.99148 -2.5,23.46875 -0.6356,6.47728 -1.54153,15.33993 -2.03125,19.71875 -0.94416,8.44199 -1.57312,14.95679 -2.46875,25.25 -0.30281,3.48011 -0.9084,7.39059 -1.3125,8.71875 -1.60979,5.29098 -0.18786,6.56502 11.28125,10.25 5.8624,1.88357 13.37161,4.68354 16.6875,6.1875 6.2975,2.85631 8.40447,2.8888 7.1875,0.15625 -0.76855,-1.72567 -18.89046,-12.25234 -23.9375,-13.90625 -3.9378,-1.29041 -4.60417,-4.1287 -3.03125,-13.0625 0.6309,-3.5834 2.50452,-14.5562 4.15625,-24.375 1.65171,-9.8188 3.5389,-20.92763 4.1875,-24.6875 0.6486,-3.75987 1.8932,-11.0527 2.78125,-16.21875 1.76614,-10.27414 3.83458,-21.57933 5.1875,-28.5 0.47697,-2.43984 0.38701,-4.92549 -0.1875,-5.5 -1.08743,-1.08743 -7.00249,-0.0258 -22.1875,3.96875 -4.92656,1.29598 -18.67605,4.73291 -30.5625,7.625 -11.88645,2.89208 -28.506,6.96221 -36.90625,9.0625 -16.96611,4.24198 -22.95513,5.32611 -23.96875,4.3125 -0.67175,-0.67176 -1.37638,-34.08452 -2.375,-111.625 -0.2816,-21.86603 -1.07721,-40.32721 -1.75,-41 -1.62709,-1.62709 -2.08066,-1.54291 -23.78125,3.5625 -20.86311,4.90837 -27.99699,6.56934 -30.59375,7.125 -0.96108,0.20565 -6.28485,1.58978 -11.8125,3.0625 -16.95935,4.51841 -21.05072,5.23096 -21.96875,3.875 -0.97441,-1.43925 0.39205,-3.8798 10.46875,-18.9375 1.7151,-2.56289 4.10855,-6.21769 5.3125,-8.125 4.71805,-7.47439 7.31919,-11.50067 11.96875,-18.40625 2.66031,-3.95113 5.66845,-8.57794 6.6875,-10.28125 5.84839,-9.775431 14.62354,-23.560254 17.53125,-27.5625 7.85546,-10.812447 11.31016,-17.158595 10.0625,-18.40625 -1.00845,-1.008454 -8.86977,1.750217 -30.3125,10.5625 -24.255,9.968032 -26.78332,10.810428 -28.03125,9.5625 -1.09882,-1.098822 0.63485,-10.990802 4.21875,-24.0625 1.17159,-4.273142 3.19352,-12.431116 4.5,-18.125 1.30647,-5.693884 2.90985,-12.683717 3.5625,-15.53125 0.65265,-2.847533 2.18938,-9.100357 3.40625,-13.90625 C 303.82174,4.8919298 304.12349,3.3991972 304.40625,2 l -23.75,0 z"
       id="path3757"
       inkscape:connector-curvature="0" />
    <path
       id="path3188"
       d="m 72.039728,135.3926 -11.531253,35.03125 -35.03125,11.53126 35.03125,11.53125 11.531253,35.03125 11.53125,-35.03125 35.031242,-11.53125 -35.031242,-11.53126 -11.53125,-35.03125 z"
       style="fill:#ffffff;fill-opacity:1;fill-rule:evenodd;stroke:none;display:inline"
       inkscape:connector-curvature="0" />
    <path
       id="path3201"
       d="m 531.97186,304.52545 -11.53125,35.03125 -35.03125,11.53125 35.03125,11.53125 11.53125,35.03125 11.53125,-35.03125 35.03125,-11.53125 -35.03125,-11.53125 -11.53125,-35.03125 z"
       style="fill:#ffffff;fill-opacity:1;fill-rule:evenodd;stroke:none;display:inline"
       inkscape:connector-curvature="0" />
    <path
       inkscape:connector-curvature="0"
       style="fill:#ffffff;fill-opacity:1;fill-rule:evenodd;stroke:none;display:inline"
       d="m 534.93811,170.99364 -11.53125,35.03125 -35.03125,11.53125 35.03125,11.53125 11.53125,35.03125 11.53125,-35.03125 35.03125,-11.53125 -35.03125,-11.53125 -11.53125,-35.03125 z"
       id="path3203" />
  </g>
  <g
     inkscape:groupmode="layer"
     id="layer1"
     inkscape:label="Cover"
     style="display:inline"
     sodipodi:insensitive="true">
    <path
       d="m 2,2 v 257 c 0,286 298,398 298,398 0,0 298,-112 298,-398 V 2 z"
       id="shine"
       inkscape:connector-curvature="0"
       style="fill:url(#radialGradient3074);stroke:#000000;stroke-width:3" />
  </g>
</svg>
