<?xml version="1.0" encoding="UTF-8"?>
<svg xmlns="http://www.w3.org/2000/svg" xmlns:xlink="http://www.w3.org/1999/xlink" width="600" height="660">
<defs>
  <radialGradient id="rg" gradientUnits="userSpaceOnUse" cx="220" cy="220" r="405">
    <stop style="stop-color:#fff;stop-opacity:.3" offset="0"/>
    <stop style="stop-color:#fff;stop-opacity:.2" offset=".2"/>
    <stop style="stop-color:#666;stop-opacity:.1" offset=".6"/>
    <stop style="stop-color:#000;stop-opacity:.13" offset="1"/>
  </radialGradient>
  <path id="shield" d="m2,2v257c0,286 298,398 298,398c0,0 298-112 298-398V2z"/>
</defs>
<use id="background" style="fill:#777777;" xlink:href="#shield"/>
<path style="fill:#e7ac55;" d="m 2,195 v 64 c 0,92.24 31,166.37 73,224.5 v -288.5 z m 148,0 v 369.38 c 26.02,22.37 52.07,40.4 75,54.37 v -423.75 z m 150,0 v 462 c 0,0 31.99,-12.02 75,-38.25 v -423.75 z m 150,0 v 369.38 c 26.11,-22.46 52.18,-49.3 75,-80.88 v -288.5 z"/>
<path style="fill:#935416;" d="m 15.84,195 c 1.516,16.95 1.352,33.36 0.363,49.51 1.137,-15.57 1.997,-31.04 2.094,-46.51 -0.02,-1 -0.07,-2 -0.102,-3 z m 0.363,49.51 c -0.434,5.94 -0.903,11.91 -1.396,17.9 0.55,-5.94 1.029,-11.91 1.396,-17.9 z m -1.396,17.9 c -2.031,21.92 -5.0035,43.56 -6.7132,65.67 0.518,2.87 1.0672,5.73 1.6464,8.56 0.8128,-25.33 3.0658,-49.95 5.0668,-74.23 z m 17.584,-67.41 c -0.07,2.36 -0.15,4.74 -0.252,7.13 -8.747,58 -11.28,109.76 -9.227,169.28 -0.389,3.01 -0.782,6.28 -1.17,9.64 1.105,3.26 2.238,6.51 3.422,9.7 0.08,-4.11 0.16,-7.51 0.229,-9.18 0.16,-4.51 0.185,-10.11 0.265,-14.78 -6.64,-54.93 1.386,-106.63 8.293,-162.02 0.124,-3.25 0.225,-6.5 0.313,-9.77 z m 20.013,0 c -0.04,1.56 -0.07,3.21 -0.105,4.63 -0.06,2.46 -0.1,4.92 -0.143,7.37 0.08,-1.66 0.156,-3.31 0.248,-4.97 0.114,-2.23 0.236,-4.64 0.36,-7.03 z m -0.248,12 c -0.1,2.16 -0.194,4.32 -0.285,6.49 -0.134,3.84 -0.216,7.71 -0.266,11.57 -1.357,10.09 -1.391,19.41 -0.623,28.28 -0.01,-6.84 0.308,-13.6 0.993,-20.14 0,-3.71 10e-4,-7.5 0.03,-11.2 0,-4.98 0.06,-9.98 0.15,-15 z m -1.174,46.34 c 0.05,21.64 3.545,43.99 10.274,62.23 0.969,3.43 2.038,6.91 3.193,10.41 -0.105,-2.05 -0.261,-4.07 -0.47,-6.04 -0.453,-4.29 -1.093,-8.42 -1.893,-12.48 -4.012,-17.9 -9.442,-34.94 -11.104,-54.12 z m 13.467,72.64 c 0.122,2.39 0.172,4.82 0.115,7.3 -0.187,4.66 -0.586,9.35 -1.146,14.02 -0.36,3.09 -0.796,6.16 -1.277,9.22 0.95,-4.99 1.712,-10.01 2.234,-15.03 0.32,-4.93 0.538,-9.47 0.508,-14.16 -0.152,-0.45 -0.286,-0.9 -0.434,-1.35 z m -2.308,30.54 c -1.528,8 -3.549,15.91 -5.899,23.55 -1.067,5.71 -1.946,11.36 -2.906,17.31 -0.64,5.47 -1.147,10.91 -1.441,16.4 -0.07,1.48 -0.15,15.22 -0.221,33.57 0.511,0.89 1.022,1.78 1.539,2.67 0.03,-17.01 0.06,-29.21 0.1,-30.59 0.134,-5.33 0.4,-10.64 0.774,-15.97 0.373,-5.28 0.825,-10.59 1.332,-15.84 2.657,-9.87 5.03,-20.36 6.723,-31.1 z m 98.689,-161.52 c -0.14,0.64 -0.28,1.29 -0.43,1.92 -1.1,5.01 -2.5,9.84 -3.9,14.59 -2.81,4.2 -4.93,8.48 -6.5,12.82 v 9.86 c 2.7,-11.88 6.79,-23.23 10.4,-33.8 0.48,-1.78 0.91,-3.58 1.32,-5.39 z m 18.33,0 c 0,6.18 0,12.34 0,18.48 0,4.82 -0.1,10.13 -0.1,15.45 0,-0.28 0.1,-0.57 0.1,-0.84 0.1,-6.21 0.2,-12.4 0.2,-18.53 0,-4.89 0,-9.75 -0.11,-14.56 z m 0,33.93 c -1.24,11.68 -2.02,25.15 -2.31,39.77 -0.2,4.99 -0.2,10.11 -0.3,15.34 -6.34,3.16 -17.16,9.46 -26.49,16.65 9.32,-5.51 21.16,-7.09 29.09,-15.27 v -14.9 -39.04 c 0,-0.85 0,-1.7 0,-2.55 z m -29.1,71.76 c 0,0 0,0 0,0 v 0 c 0,0 0,0 0,0 z m 63.55,-105.69 c 0,1.18 0,2.38 -0.1,3.55 -1.5,11.25 -2.7,22.26 -3.5,33.14 -0.4,5.44 -0.9,11.17 -1.2,16.85 -1.6,10.75 -2.4,23.98 -2.7,38.59 -0.1,4.88 -0.1,9.92 -0.1,15.07 -5.1,5.84 -18.1,3.25 -15.5,5.84 14.2,22.22 25.17,46.03 23.23,70.52 3.88,-21.54 -2.03,-42.14 -18.03,-62.76 -2.6,-5.18 2.6,-7.76 8.7,-6.59 4,0 4.1,-4.83 4.1,-9.68 0.1,-19.36 0.4,-36.88 1.3,-49.92 0.3,-5.84 0.8,-11.71 1.2,-17.31 0.9,-11.17 2.3,-22.39 4.2,-33.57 0,-1.18 0,-2.49 0,-3.73 z m 0.17,183.56 c -0.51,2.83 -1.18,5.67 -2.03,8.54 -1.05,3.87 -1.4,6.6 -1.74,9.22 2.09,-5.95 3.3,-11.87 3.77,-17.76 z m -3.77,17.76 c -0.36,1.03 -0.75,2.05 -1.16,3.07 0.2,5.2 0.3,10.27 0.4,15.18 0.3,14.74 0.3,28.1 -0.2,39.04 -0.1,5.3 -0.1,10.56 -0.1,15.81 0,8.65 0.19,17.23 0.38,25.78 0,-13.66 0.26,-27.27 0.82,-41.03 0.2,-4.94 0.4,-10.16 0.6,-15.2 -0.2,-10.86 -0.5,-25.26 -0.9,-41.47 0,-0.39 0.1,-0.78 0.16,-1.18 z m -0.68,98.88 c 0,13.03 0.26,26.12 0.77,39.43 -0.13,-13.02 -0.48,-26.18 -0.77,-39.43 z m 0.77,39.43 c 0,4.04 0.1,8.06 0,12.07 -0.1,6 -0.3,11.97 -0.5,17.94 -0.2,5.95 -0.4,11.87 -0.7,17.79 -0.1,6.75 -0.1,13.49 -0.2,20.24 0.2,2.04 0.36,4.07 0.52,6.1 0.38,0.25 0.76,0.49 1.14,0.74 -0.1,-4.6 -0.1,-9.09 -0.1,-13.51 0.1,-6.24 0.1,-12.48 0.1,-18.69 v -17.15 -17.04 c -0.13,-2.84 -0.24,-5.66 -0.35,-8.49 z m 98.93,-339.63 c 1.96,46.96 -0.2,103.04 -0.86,134 0,5.6 -0.1,11.2 -0.3,16.8 -5.02,38.4 -7.04,77.43 -7.82,117.99 v 91.51 c 0.18,-8.18 0.36,-14.65 0.52,-16.98 0.4,-5.25 0.8,-10.53 1.1,-15.84 -3.9,-60.66 0.5,-119.33 8.7,-176.34 0.3,-4.58 0.4,-9.12 0.5,-13.62 0.4,-6.51 0.6,-12.46 0.7,-18.51 2.08,-27.75 1.76,-75.99 -1.45,-119.01 z m 36.96,0 c -2.21,49.49 -1.95,103.5 -2.32,139.2 -0.6,6.05 -1,12.13 -1.4,18.18 -1,18.11 -0.8,36.03 2.7,53.89 0.48,4.3 1.28,9.44 2.14,14.54 0,-0.41 -0.1,-0.82 -0.14,-1.23 -0.9,-7.33 -1.5,-13.89 -1.9,-20.64 -2.8,-17.68 -2.6,-35.01 -1.3,-52.37 0.5,-5.79 1,-11.57 1.7,-17.36 0.42,-34.19 -0.48,-86.67 1.1,-134.21 z m 1.12,225.81 c 1.63,15.44 4.51,30.98 8.48,46.95 -2.51,-14.92 -5.52,-29.02 -7.82,-43.09 -0.22,-1.27 -0.44,-2.57 -0.66,-3.86 z m 8.48,46.95 c 0.44,2.58 0.86,5.18 1.26,7.82 0.2,5.73 0.2,11.38 -0.1,17.04 -0.78,16.51 -3.66,32.86 -9.63,49.86 7.44,-16.98 10.13,-33.9 10.43,-51.2 0.1,-5.76 -0.1,-11.59 -0.4,-17.43 -0.54,-2.04 -1.05,-4.07 -1.56,-6.09 z m -8.47,74.72 c 0,0 0,0.1 -0.1,0.11 0,0 0,0 0,0 0,0 0,-0.1 0.1,-0.14 z m -0.1,0.14 c -0.14,0.38 -0.26,0.76 -0.4,1.14 -0.2,2.13 -0.88,4.63 -4.06,8.56 -0.26,0.24 -0.5,0.5 -0.75,0.75 -0.38,0.33 -0.76,0.66 -1.13,1 0.14,-0.1 0.27,-0.19 0.41,-0.28 -9.6,10 -14.71,22.52 -14.37,35.23 0.1,-0.45 0.19,-0.89 0.3,-1.34 5.1,-15.54 10.3,-31.09 24.48,-39.25 3.9,-5.09 5,-9.31 5.9,-13.55 4.5,-21.04 5.1,-42.4 4.4,-64.21 -0.5,-5.68 -0.8,-11.09 -1.3,-16.58 -3.3,-14.99 -5.4,-29.68 -6.2,-44.4 -0.5,-5.52 -0.8,-10.67 -1,-15.95 -2.38,-16.99 -2,-33.39 -0.7,-49.7 0.4,-5.44 1,-10.88 1.5,-16.32 0,-2.26 -0.1,-4.72 -0.11,-7.14 -0.31,4.62 -0.58,9.41 -0.99,13.78 -1.9,21.59 -3.38,42.82 -2.48,64.61 0.2,5.04 0.4,9.94 0.98,15.25 1.1,14.16 3.8,28.43 8.2,43.49 0.5,5.92 1.1,12.43 1.2,18.19 0.4,19.2 -1.2,38.02 -6.5,57.76 -1,3.94 -2.2,7.92 -3.58,11.94 -2.51,1.71 -4.84,3.57 -6.99,5.53 2.65,-3.77 2.93,-6.23 3.19,-8.51 z m 6.97,-222.04 c 0.1,-1.09 0.13,-2.21 0.21,-3.26 -0.15,-2.72 -0.29,-5.67 -0.44,-8.72 0.1,4.17 0.16,8.16 0.23,11.98 z m -0.23,-11.98 c -0.67,-32.49 -1.82,-74.58 -0.8,-113.6 h -0.7 c -1.13,40.53 0.1,84.26 1.5,113.6 z m -27.04,280.42 c -0.31,1.47 -0.53,2.92 -0.63,4.34 -0.85,-14.71 4.39,-29.83 14.59,-39.29 -14.05,9.3 -18.76,29.01 -16.36,43.96 2.69,15.5 12.94,28.42 28.43,33.63 2.8,-1.54 5.69,-3.18 8.63,-4.87 -10.16,-0.9 -20.03,-3.31 -26.66,-13.21 -5.2,-7.83 -7.77,-16.23 -8,-24.56 z m 44.27,-394.02 c 0,7.92 0,15.92 0.1,23.86 0.26,-2.51 0.56,-5.05 0.93,-7.62 0.1,-1.68 0.18,-8.18 0.27,-16.24 z m 0.1,23.86 c -2.11,20.47 -0.74,39.23 0.33,60.27 0.1,5.31 0.1,10.67 0,15.97 0,5.34 0,10.59 0.4,15.58 1.3,7.04 1.2,13.94 0.8,22.18 0.1,3.68 0,7.36 -0.1,11.07 0,3.68 -0.2,7.36 -0.3,11.04 -0.2,3.7 -0.4,7.41 -0.7,11.09 -3.1,27.57 -5.2,51.73 -2.8,80.24 0.2,5.63 0.3,11.25 0.5,16.91 0,0.1 0,0.13 0,0.19 0,-2.48 -0.1,-4.97 -0.1,-7.45 0,-5.73 -0.1,-11.57 -0.1,-17.33 -2.7,-24.29 1.3,-44.96 3.9,-67.52 0.5,-5.09 1,-10.21 1.5,-15.39 0.1,-4.82 0.37,-10.08 0.6,-15.47 v -19.5 c -0.25,-3.57 -0.68,-7.06 -1.4,-10.38 -0.5,-5.2 -0.5,-10.67 -0.5,-16.22 0.1,-5.54 0,-11.25 0,-16.72 -1.2,-12.39 -1.81,-34.81 -2.03,-58.56 z m -1.87,244.54 c 0.33,23.38 0.82,46.74 0.1,70.68 0,1.94 -0.16,3.9 -0.47,5.87 0.12,-0.1 0.25,-0.16 0.37,-0.24 0.2,-4.29 0.4,-8.59 0.5,-12.85 0.7,-21.33 0,-42.4 -0.5,-63.46 z m -0.37,76.55 c -5.1,3.27 -10.26,7.33 -15.03,11.95 1.12,-0.84 2.29,-1.64 3.5,-2.38 6.1,-3.54 10,-6.32 11.4,-8.72 0.1,-0.28 0.1,-0.56 0.13,-0.85 z m -15.03,11.95 c -7.6,5.69 -13.13,13.49 -16.55,22.09 3.91,-8.01 9.84,-15.59 16.55,-22.09 z m -16.55,22.09 c -4.4,9.02 -6.25,18.56 -3.74,27.65 -1.03,-9.12 0.23,-18.81 3.74,-27.65 z m -3.74,27.65 c 0.26,2.3 0.66,4.56 1.21,6.76 4.01,9.59 9.26,13.51 15.12,14.18 -0.7,-0.37 -1.41,-0.77 -2.12,-1.25 -7.82,-6.01 -12.29,-12.72 -14.21,-19.69 z m 16.33,20.94 c 9.34,4.94 17.74,0.75 25.16,-4.86 v -3.83 c -8.53,4.8 -17.39,9.59 -25.16,8.69 z m 129.28,-427.58 c 1.14,118.99 5.8,268.71 11.01,298.1 0.1,5.47 0.2,11.71 0.3,17.98 -0.2,4.9 -0.6,10.16 -1,15.14 -0.1,0.18 -0.1,0.37 -0.15,0.55 0.73,-0.78 1.45,-1.57 2.18,-2.35 0.21,-1.88 0.42,-3.75 0.67,-5.69 0.2,-4.21 0.5,-8.37 0.6,-12.56 0,-3.68 0.1,-77.52 0.1,-127.9 0,-12.6 0.1,-23.3 0.1,-31.2 3.5,-9.9 0.9,-20.3 -3,-31.8 -0.9,-7.4 -1.7,-16.1 -2.5,-25.4 -2.46,-26.51 -4.68,-60.48 -6.14,-94.87 z m 37.23,0 c 0.5,10.18 1.01,20.49 1.47,30.57 0.5,12.6 1.1,24.7 1.5,35.6 -2.2,34.5 3,70.8 3.3,104.5 -0.3,9.9 -1.5,20.8 -1.6,32.9 -0.45,30.42 -1.23,64.7 -2.11,93.12 0.84,-1.11 1.68,-2.22 2.52,-3.34 0.39,-18.56 0.72,-40.07 0.89,-61.78 0.1,-12.61 0.2,-25.3 0.2,-37.3 5,-34 -5.4,-70.3 -2.4,-105 0.2,-7.7 0.6,-17.6 0.2,-28.4 -0.71,-18.06 -1.67,-39.68 -2.66,-60.87 z m -366.35,81.02 v 6.88 c 0.32,-0.34 0.68,-0.71 1,-1.05 -0.35,-2 -0.68,-3.95 -1,-5.83 z m 19.19,52.74 c -6.23,0 -12.76,1.22 -19.19,2.83 v 2.56 c 12.29,-0.99 32.26,-7.67 43.1,7.56 17.87,22.36 8.75,48.55 -7.06,66.16 19.38,-17.25 25.42,-48.08 7.06,-68.74 -6.45,-7.77 -14.85,-10.37 -23.91,-10.37 z m 16.85,79.11 c -2.48,2.2 -5.16,4.19 -8.04,5.9 0,4.98 -0.1,9.86 -0.1,14.58 -0.15,7.03 -0.27,13.71 -0.39,19.98 0.23,-5.65 0.41,-11.52 0.49,-17.66 0,-4.9 0.1,-9.97 0.1,-15.12 2.76,-2.31 5.43,-4.89 7.94,-7.68 z m -8.53,40.46 c -0.32,7.9 -0.77,15.33 -1.41,22.02 -0.5,4.8 -1,9.55 -1.6,14.27 -1.8,14.18 -4.2,28.13 -6.8,41.7 -1.9,10.35 -0.2,17.28 1.9,28.24 0.6,4.14 1.3,8.46 1.9,12.67 0.7,4.24 1.3,8.37 2,12.11 -0.1,1.34 -0.1,2.69 -0.12,4.03 0.27,0.21 0.55,0.43 0.83,0.64 -0.1,-2.82 -0.15,-6.8 -0.21,-9.18 -0.8,-5.2 -1.3,-10.4 -1.8,-15.71 -0.4,-5.3 -0.6,-10.72 -0.6,-16.32 0.1,-20.8 2.3,-41.04 4.3,-61.33 0.4,-5.09 0.9,-10.18 1.3,-15.46 0.1,-5.39 0.2,-11.32 0.31,-17.68 z m -3.77,-108.32 c -3.09,0.1 -6.22,1.37 -9.14,4.29 -4.17,6.3 -9.22,12.17 -14.6,15.54 v 6.28 c 6.14,-5.14 9.17,-16.99 17.2,-21.82 15.6,-10.37 25.9,10.35 28.5,23.31 0.24,1.89 0.32,3.74 0.27,5.55 0.44,-6.11 -0.41,-12.38 -2.87,-18.51 -3.74,-7.44 -11.45,-14.89 -19.36,-14.64 z m 22.23,33.15 c -0.36,4.99 -1.58,9.87 -3.52,14.47 2.09,-4.46 3.37,-9.29 3.52,-14.47 z m -3.52,14.47 c -5.16,11.01 -15.24,19.82 -25.45,26.35 -0.85,0.47 -1.56,0.92 -2.21,1.36 12.29,-5.17 22.49,-15.46 27.66,-27.71 z m -27.66,27.71 c -1.34,0.57 -2.7,1.08 -4.09,1.52 -0.1,1.17 -0.14,2.31 -0.21,3.47 0.5,-1.53 1.6,-3.14 4.3,-4.99 z m -4.3,4.99 c -0.21,0.65 -0.31,1.28 -0.39,1.92 -0.2,5.9 -0.4,11.79 -0.56,17.64 0.16,-2.92 0.32,-5.91 0.46,-9.03 0.1,-3.39 0.28,-6.93 0.49,-10.53 z m -0.95,19.56 c -0.32,5.48 -0.68,10.64 -1.14,15.26 -0.4,5.23 -0.9,10.54 -1.5,15.66 -2.3,20.5 -6,40.82 -6.7,60.87 -0.1,10.03 0,21.07 1.5,31.12 0.1,1.06 0.12,2.12 0.18,3.18 0.67,0.57 1.34,1.13 2,1.7 -0.29,-3.55 -0.6,-7.16 -0.98,-10.93 -1.8,-11.39 -2,-23.01 -1,-34.96 2,-13.89 4.3,-27.92 6,-41.97 0.6,-4.69 1.1,-9.39 1.5,-14.11 -0.24,-8.38 -0.11,-17.05 0.14,-25.82 z m 215.46,105.89 c -1.54,0.67 -3.3,1.35 -5.3,2.06 -16.8,6.16 -29.78,21.71 -32.38,39.84 0,10.35 5.2,25.9 15.58,23.31 4.31,-0.62 8.47,-3 12.59,-5.92 -4.44,1.29 -8.69,1.86 -12.59,0.75 -32.9,-11.75 -1.93,-44.81 22.1,-59.75 z m -9.51,59.29 c 3.1,-0.9 6.29,-2.16 9.51,-3.44 v -3.69 c -3.18,2.33 -6.33,4.88 -9.51,7.13 z m -33.39,9.37 c 4.91,7.12 12.21,12.75 19.64,16.66 -3.22,-1.14 -6.31,-2.63 -9.22,-4.57 -4.37,-3.4 -7.82,-7.52 -10.42,-12.09 z"/>
<path style="fill:#ae612a;" d="m 25.541,195 c -0.03,1.42 -0.05,2.83 -0.1,4.25 -7.051,53.75 -8.158,108.78 -8.226,167.48 0.616,2.1 1.249,4.18 1.898,6.26 -3.613,-59.63 0.757,-117.31 8.862,-173.36 0.08,-1.56 0.135,-3.09 0.195,-4.63 z m 10.186,0 c -0.04,0.93 -0.09,1.95 -0.122,2.84 -0.133,3.81 -0.373,7.92 -0.56,11.81 -9.866,53.95 -6.906,109.25 -4.266,166.18 -0.427,4.91 -0.879,9.79 -1.306,14.67 -0.145,1.59 -0.292,5.33 -0.44,10.22 0.469,1.16 0.932,2.33 1.41,3.48 0.363,-11.41 0.729,-19.8 1.082,-23.06 0.507,-4.61 0.934,-9.47 1.387,-14.13 -2.853,-54.99 -5.867,-106.85 3.787,-161.44 0.14,-3.49 0.27,-7.04 0.403,-10.57 z m 20.964,0 c -0.04,0.96 -0.08,2.02 -0.127,2.92 -0.587,11.09 -0.852,22.24 -0.478,33.44 0.133,3.73 0.32,7.46 0.586,11.2 1.892,7.83 2.705,16.45 3.496,25.43 -0.299,-4.17 -0.475,-8.42 -0.83,-12.23 -0.453,-3.6 -0.801,-7.2 -1.094,-10.8 -1.147,-14.35 -1.118,-28.56 -0.478,-42.75 0.1,-2.39 0.219,-4.79 0.349,-7.21 z m 3.477,72.99 c 0.118,1.65 0.253,3.29 0.434,4.88 -0.147,-1.64 -0.292,-3.26 -0.434,-4.88 z m 0.434,4.88 c 0.556,6.2 1.184,12.54 2.228,18.89 0.64,3.7 1.335,7.41 2.108,11.12 0.527,2.55 1.101,5.1 1.697,7.66 -1.113,-5.95 -2.082,-11.82 -2.897,-17.64 -0.56,-3.78 -1.039,-7.57 -1.439,-11.33 -0.832,-2.57 -1.341,-5.55 -1.697,-8.7 z m 6.033,37.67 c 1.071,5.74 2.275,11.54 3.609,17.46 -0.03,5.62 -0.213,11.19 -0.613,16.79 -0.385,5.63 -0.983,11.26 -1.766,16.87 1.383,-6.88 2.225,-13.6 2.623,-20.25 0.183,-5.44 0.102,-10.91 -0.03,-15.87 -1.406,-5.06 -2.671,-10.05 -3.822,-15 z m 1.23,51.12 c -1.765,8.8 -4.411,17.86 -8.15,27.4 -0.586,4.45 -1.039,8.8 -1.545,13.39 -0.32,4.18 -0.535,8.37 -0.668,12.53 0.01,1.34 0,26.84 -0.02,42.19 2.034,3.32 4.099,6.61 6.207,9.85 -1.127,-18.31 -2.323,-32.04 -3.55,-38.97 -0.107,-5.47 -0.268,-11.68 -0.321,-17.95 0.16,-4.91 0.559,-10.16 0.959,-15.15 3.209,-11.06 5.538,-22.16 7.088,-33.29 z m 2.188,-166.66 c -1.606,19.14 -2.72,38.06 -1.914,57.42 0.16,5.07 0.424,9.98 0.984,15.26 0.882,11.43 2.84,22.93 5.877,34.83 v -11.36 c -1.507,-9.37 -2.509,-18.69 -3.049,-28.01 -0.533,-5.52 -0.8,-10.64 -1.013,-15.92 -2.374,-16.98 -2,-33.41 -0.694,-49.73 0.06,-0.83 0.15,-1.66 0.221,-2.49 z m 125.477,0 c -0.5,11.73 -1.18,23.38 -1.93,34.98 -0.5,7.12 -1,13.31 -1.4,19.34 -2,11.28 -3.2,24.88 -3.8,39.84 -0.2,2.4 -2,4.13 -6.4,4.82 -10.35,0.78 -26.12,4.82 -32,14.26 v 14.92 c 5.02,-2.29 10.55,-3.03 16.08,-2.62 -4.48,-2.3 -8.58,-4.63 -11.78,-7.3 -7.8,-7.79 18.1,-15.55 32.1,-18.88 3,-1.07 4.4,-2.88 4.6,-5.28 0.3,-14.99 1.1,-28.64 2.6,-39.98 0.3,-5.97 0.6,-12.1 1.1,-19.09 0.54,-11.61 1.13,-23.27 1.67,-35.01 z m -29.45,125.54 c 13.1,6.72 29.65,13.15 37.79,26.64 -1.97,-4.78 -4.68,-9.26 -8.17,-13.25 -6.81,-6.84 -18.2,-12.54 -29.62,-13.39 z m 37.79,26.64 c 8.24,20.01 3.28,45.33 -13.67,62.83 -0.2,2.72 -0.2,5.3 -0.2,7.86 0.4,14.8 0.6,28.19 0.4,39.2 -0.2,5.68 -0.4,12.59 -0.4,19.49 -1.1,29.2 -1.8,58.46 0.1,87.66 0,6.64 -0.1,13.25 -0.1,19.92 0.22,3.46 0.39,7.48 0.54,11.9 0.41,0.3 0.82,0.59 1.23,0.88 0.1,-4.85 0.21,-9.16 0.33,-12.78 0.1,-6.62 0.1,-13.26 0.2,-19.92 -3.9,-29.2 -3.3,-58.46 -1.7,-87.66 0.2,-6.79 0.4,-13.57 0.8,-19.3 0.9,-12.85 1,-29.01 0.9,-46.8 0.4,-1.63 1.3,-3.57 2.8,-6.11 11,-13.44 13.6,-26.4 13.6,-41.92 -0.5,-5.96 -2.24,-10.96 -4.83,-15.25 z m 4.47,-152.18 c -0.28,4.5 -0.55,8.99 -0.82,13.49 0.55,-3.01 1.17,-6.01 1.88,-9.01 0,-1.45 0.1,-2.99 0.12,-4.48 z m -0.82,13.49 c -1.63,8.87 -2.62,17.79 -3.22,26.77 -0.3,6 -0.7,12.78 -0.9,19.02 -0.8,10.24 -1.2,23.06 -1.2,37.36 -0.2,4.64 -0.2,9.49 -5.2,10.16 -5.97,0.97 -12.95,-1.11 -18.08,2.56 4.56,-0.76 18.28,-0.18 23.58,-4.67 0.2,-5.39 0.5,-10.67 0.7,-15.71 0.8,-15.14 1.6,-28.26 2.1,-36.32 0.3,-5.54 0.6,-11.12 0.9,-16.66 0.41,-7.5 0.86,-15.01 1.32,-22.51 z m -28.6,95.87 c -1.29,0.21 -1.89,0.52 -1.32,1.09 0.42,-0.42 0.87,-0.77 1.32,-1.09 z m -1.32,1.09 c 15.5,25.89 46.6,51.78 28.8,85.94 -2.1,4.83 -3.1,8.22 -3.9,11.34 0.85,7.3 1.82,14.38 2.56,21.43 -0.1,-2.7 -0.1,-5.41 -0.16,-8.23 -0.1,-4.72 -0.3,-9.63 -0.4,-14.64 22.3,-36.27 -1,-69.95 -26.9,-95.84 z m 27.46,118.71 c 0.2,10.8 0.3,20.57 0.14,28.59 -0.1,4.64 -0.17,9.28 -0.19,13.93 0.29,-4.64 0.62,-9.29 0.89,-13.9 0.75,-9.76 0.16,-19.15 -0.84,-28.62 z m -0.1,42.52 c 0,0.6 -0.1,1.19 -0.11,1.78 -1.8,26.16 -3.6,52.58 -1.3,79.06 -0.1,4.83 0.1,11.42 0,17.28 -0.1,6 -0.2,11.98 -0.3,17.92 -0.1,6.75 -0.2,13.52 -0.3,20.3 0,0.51 0,1.13 0.1,1.68 0.69,0.46 1.37,0.91 2.06,1.37 -0.1,-1 -0.19,-2 -0.31,-3 0.1,-6.8 0.2,-13.55 0.2,-20.32 0.3,-5.95 0.6,-11.92 0.8,-17.89 0.2,-6 0.4,-11.98 0.5,-18 -0.8,-26.08 -1.5,-52.35 -1.3,-78.48 0,-0.57 0,-1.13 0,-1.7 z m 94.99,-271.68 v 5.39 c 0.98,6.57 1.8,13.2 2.47,19.89 -0.22,-8.61 -0.47,-17.09 -0.78,-25.28 z m 2.47,25.28 c 1.04,40.9 1.41,84.32 4.05,108.58 0.37,4.13 0.63,8.26 0.78,12.36 -0.1,-4.63 -0.22,-9.25 -0.48,-13.85 -1.05,-36.26 -0.87,-72.39 -4.35,-107.09 z m 4.83,120.94 c 0,0.83 0,1.65 0,2.47 -0.17,2.99 -0.37,5.98 -0.57,8.96 0.23,-2.36 0.45,-4.72 0.67,-7.07 0,-1.45 -0.1,-2.9 -0.12,-4.36 z m -0.55,11.43 c -2.13,22.33 -4.61,44.82 -6.75,67.47 v 9.38 c 2.26,-25.57 5.02,-51.13 6.75,-76.85 z m 14.1,-157.65 c 1.9,47.27 1.05,98.7 -2.13,130.96 -0.2,5.89 -0.5,12.72 -0.7,18.42 -0.2,3.79 -0.4,7.89 -0.6,11.81 -9.9,53.92 -6.9,109.23 -4.3,166.16 -0.4,4.91 -0.8,9.81 -1.3,14.69 -0.4,4.72 -0.8,25.79 -1.3,52.67 0,3.07 -0.3,7.31 -0.4,11.97 -1.3,4.14 1.3,11.9 0.3,18.19 -0.3,1.7 -0.4,4.98 -0.4,8.24 -0.1,8.71 -0.18,16.2 -0.27,24.85 0.32,-0.14 0.59,-0.26 0.93,-0.41 0.1,-3.03 0.1,-5.88 0.14,-8.95 0.1,-3.04 0.1,-6.08 0.1,-9.15 0.2,-3.92 0.2,-7.62 0.7,-9.57 -0.2,-11.3 -0.2,-24.26 -0.1,-33.78 0.4,-3.87 0.4,-6.7 0.5,-9.42 0.6,-27.01 1.3,-48.24 1.9,-54 0.5,-4.61 0.9,-9.49 1.4,-14.16 -2.9,-54.98 -5.9,-106.82 3.8,-161.43 0.2,-5.33 0.4,-10.67 0.6,-16.13 2.64,-35.79 4.65,-91.51 2.86,-140.96 z m 5.85,0 c -0.15,50.46 -1.37,104.04 -2.08,137.78 v 15.84 c -0.1,4.13 -0.21,8.64 -0.32,13 0.23,-1.5 0.47,-3.01 0.72,-4.52 0.1,-5.52 0.3,-11.04 0.4,-16.58 2.41,-36.96 3.03,-93.03 2.41,-145.52 z m -2.4,166.62 c -1.79,11.81 -2.95,23.36 -3.6,34.74 1.14,-10.26 2.49,-20.66 3.52,-31.37 0,-1.1 0.1,-2.24 0.1,-3.37 z m -3.6,34.74 c -2.62,23.54 -4.14,46.34 1.8,70.41 -2.21,-23.35 -3.15,-46.52 -1.8,-70.41 z m 1.8,70.41 c 0.83,8.75 1.83,17.53 2.97,26.39 0.39,-5.88 0.57,-11.54 -0.35,-17.18 -1.01,-3.1 -1.87,-6.16 -2.62,-9.21 z m 2.97,26.39 c -0.33,4.92 -0.81,9.98 -0.95,15.38 -0.4,4.56 -0.9,9.06 -1.4,13.6 -0.5,5.09 -1,15.73 -1.5,29.86 -0.1,4.7 -0.3,9.79 -0.5,15.2 -2.4,4.27 -3.9,8.62 -5.1,14.16 -12.4,24.46 18.7,39.97 5.7,63.97 -1.23,0.21 -1.73,1.49 -1.99,3.14 4.12,-1.92 8.79,-4.16 13.96,-6.76 -8.16,-22.13 -24.4,-42.15 -13.67,-66.24 2.6,-6.43 3.4,-9.97 3.6,-12.67 0.2,-2.61 0.2,-5.04 0.3,-7.36 0.5,-18.58 1,-32.8 1.4,-39.17 0.3,-5.89 0.4,-12.19 0.9,-17.28 -0.26,-1.95 -0.5,-3.89 -0.75,-5.83 z m 10.97,-298.16 c -2.21,49.12 -3.01,102.07 -2.72,136.5 -0.2,6.03 -0.4,12.62 -0.5,18.43 0,3.86 -0.1,7.73 -0.1,11.6 0.1,3.86 0.1,7.7 0.2,11.54 -0.49,8.26 -0.31,16.31 0.26,24.22 -0.1,-4.64 -0.1,-9.28 -0.1,-13.9 -0.1,-4.34 -0.2,-8.64 -0.2,-13.04 -0.1,-4.21 -0.1,-8.4 0,-12.61 0,-5.6 0.1,-11.17 0.4,-16.74 0.76,-36.88 0.65,-94.66 2.78,-146 z m -2.86,202.29 c 0.35,22.52 2.11,44.98 6.84,65.17 0.6,4 1.4,8.16 2.1,12.19 0,5.38 -0.2,10.58 -0.4,16.34 -1.2,14.45 -3.5,28.85 -6.3,42.59 -0.4,5.25 -0.8,10.53 -1.1,15.78 -0.1,1.3 -0.13,2.6 -0.35,4.03 0.25,-0.41 0.49,-0.84 0.75,-1.25 0.5,-5.1 1.1,-10.22 1.8,-15.31 2.3,-13.68 5.4,-27.04 7.4,-40.19 0.7,-4.37 1.3,-8.72 1.7,-13.03 -0.6,-4.19 -1.1,-8.32 -1.7,-12.43 -0.6,-4.13 -1.2,-8.21 -1.8,-12.27 -2.92,-20.15 -7.41,-40.35 -8.94,-61.62 z m 0.79,156.1 c -2.17,3.57 -4.21,7.45 -6.55,12.3 1.48,-2.42 3.21,-4.87 5.2,-7.34 0.71,-1.87 1.11,-3.48 1.35,-4.96 z m -6.55,12.3 c -16.28,26.64 -2.79,50.42 16.07,70.76 0.6,-0.32 1.19,-0.63 1.8,-0.96 -18.27,-18.93 -33.22,-41.26 -18.27,-68.98 0.14,-0.29 0.26,-0.54 0.4,-0.82 z m 131.93,-370.69 c 0.81,13.17 1.59,26.18 2.35,39.29 -0.6,-13.42 -1.14,-25.78 -1.74,-39.29 z m 2.35,39.29 c 1.87,41.84 3.62,80.96 3.83,92.78 0,1.08 0,11.72 0,22.23 0.1,-7.93 0.13,-14.03 0.18,-14.83 0.65,-14.11 -1.42,-55.38 -4.03,-100.18 z m 3.85,115.01 c -0.34,40.46 -0.89,154.35 -1.22,157.54 -0.46,5.88 -0.8,11.71 -1.06,17.51 0.5,-7.38 1.19,-14.8 2.16,-22.26 0,-4.5 0.12,-108.58 0.12,-152.79 z m -2.28,175.05 c -0.65,9.65 -0.97,19.25 -1.06,28.81 0.13,-0.12 0.26,-0.23 0.39,-0.35 0.1,-9.41 0.24,-18.88 0.67,-28.46 z m 8.92,-329.35 c 2.97,120.79 11.17,284.66 14.34,313.33 0,5.22 -0.79,11.46 -1.3,16.76 0.14,-0.38 0.26,-0.75 0.4,-1.13 0.4,-4.43 1,-9.36 1.2,-13.66 0,-6.05 0.1,-11.54 0,-16.93 -3.78,-26.34 -9.58,-181.7 -11.81,-298.37 z m 13.04,330.09 c 0,0.1 0,0.13 -0.1,0.19 0,0 0,-0.1 0.1,-0.15 0,0 0,0 0,0 z m -0.1,0.19 c -1.33,3.03 -2.51,6.06 -3.56,9.08 0.3,-0.3 0.6,-0.6 0.89,-0.91 0.81,-2.71 1.7,-5.43 2.67,-8.17 z m 4.01,-330.28 c 0.64,17.85 1.43,35.65 2.35,52.27 0.6,11.8 1.4,23 2.1,33.1 1.16,15 2.98,30.02 4.24,44.99 -0.55,-12.8 -1.52,-25.71 -3.24,-38.29 -0.7,-9.1 -1.4,-19.1 -2,-29.6 -1.19,-19.42 -2.29,-40.85 -3.15,-62.47 z m 8.69,130.36 c 0.72,17.01 0.67,33.83 0.56,49.41 0,12.6 -0.1,26.7 -0.1,40.74 -0.1,40.68 -0.19,78.61 -0.19,83.85 0.1,-4.32 0.19,-44.87 0.29,-86.01 0.1,-14.08 0.1,-28.08 0.1,-40.68 1.38,-15.64 0.67,-31.44 -0.66,-47.31 z m 0.27,174 c 0,0.11 0,0.78 0,0.84 -0.2,5.12 -0.6,10.24 -1.1,15.36 -0.1,0.84 -0.15,1.67 -0.22,2.51 0.26,-0.29 0.52,-0.57 0.77,-0.86 0.27,-4.91 0.46,-9.79 0.55,-14.69 0,-0.1 0,-2.96 0,-3.16 z m 15.01,-304.36 c 1.03,20.15 2.06,40.48 2.87,57.47 0.5,10.1 0.7,19 0.5,26.1 -2.3,35.3 5.4,74.1 1.7,111.4 -0.2,12.7 -0.4,26.07 -0.7,39.43 -0.48,23.14 -1.13,46.07 -1.84,65.99 0.33,-0.42 0.65,-0.85 0.98,-1.27 0.44,-20.7 0.86,-46.57 1.16,-72.51 0.1,-12.74 0.3,-25.54 0.9,-37.24 3.2,-36.9 -2,-70.5 -1.4,-105.8 0.2,-7.1 0,-16 -0.5,-26.1 -0.81,-16.99 -1.86,-37.32 -2.94,-57.47 z m -288.55,53.44 c -0.68,27.51 -1.27,62.16 -1.6,72.88 -0.2,5.41 -0.3,10.79 -0.3,16.18 0.1,23.73 3.5,44.51 0.7,69.49 -0.2,6.06 -0.3,12.11 -0.4,18.14 -0.5,4.93 -0.8,9.86 -1,14.8 -0.2,4.93 -0.3,9.84 -0.3,14.74 -0.8,10.3 -0.5,20.24 0,30.03 0.2,4.9 0.6,9.76 0.9,14.66 1.21,9.65 1.79,19.09 2,28.43 v -24.45 c -0.1,-1.32 -0.19,-2.63 -0.3,-3.95 -0.1,-4.88 -0.3,-9.76 -0.4,-14.67 -0.3,-9.78 -0.5,-19.73 -0.3,-30.02 0.2,-4.75 0.2,-9.79 0.3,-14.72 0.1,-4.93 0.3,-9.87 0.4,-14.83 0.1,-3.18 0.21,-6.36 0.3,-9.55 z m -150,125.71 c -1.569,8.16 -3.706,16.43 -6.568,24.91 -0.56,5.44 -0.801,10.35 -0.881,15.17 1.017,8.4 2.418,32.42 3.953,64.35 0.808,1.15 1.625,2.29 2.441,3.43 -1.111,-30.59 -1.989,-54.9 -2.207,-63.38 -0.03,-6.18 -0.03,-11.92 0.16,-17.68 1.201,-4.11 2.218,-8.23 3.102,-12.37 z m 150,170.79 c -0.52,23.77 -2.79,47.2 -3.32,71.75 0.26,0.16 0.52,0.32 0.78,0.48 0.98,-11.18 1.87,-22.14 2.54,-32.99 z"/>
<path style="fill:#dc8740;" d="m 2,195 v 30.07 c 0.091,0.71 0.1866,1.41 0.2793,2.13 1.0619,15.68 0.8371,31.07 0,46.4 0.1235,3.43 0.2757,6.84 0.4844,10.22 1.0451,-16.96 1.282,-33.99 0.2324,-51.14 0.6621,5.01 1.2995,9.99 1.8145,14.97 0.024,-15.26 -0.5787,-30.63 -2.1934,-46.24 -0.036,-2.11 -0.1081,-4.25 -0.205,-6.41 z m 2.8125,52.65 c -0.023,14.66 -0.6346,29.22 -1.4961,43.78 0.1055,1.3 0.2239,2.59 0.3418,3.88 0.4109,-3.7 0.7675,-7.44 1.041,-11.23 1.8301,-12.63 1.3396,-24.56 0.1133,-36.43 z m 7.1385,-52.65 c -0.04,0.95 -0.07,1.88 -0.105,2.84 0.449,42.28 -2.005,84.54 -4.3421,127 0.1156,0.68 0.2482,1.34 0.3672,2.01 1.8966,-35.26 6.3359,-69.5 7.1449,-104.61 0.1,9.52 0.234,19.14 0.08,28.82 0.968,-14.93 1.77,-29.91 2.086,-45.04 0.04,-3.74 0,-7.5 -0.08,-11.02 h -2.032 c 0,2.16 -0.01,4.32 -0.04,6.48 -0.05,-2.21 -0.118,-4.34 -0.207,-6.48 z m 3.143,56.06 c -0.607,9.36 -1.272,18.72 -1.944,28.07 0.27,-1.76 0.546,-3.53 0.854,-5.32 0.679,-7.59 0.968,-15.18 1.09,-22.75 z m -1.944,28.07 c -2.824,18.52 -3.6408,36.15 -4.1324,53.96 0.2296,1.18 0.4787,2.35 0.7187,3.53 0.7077,-19.36 2.0467,-38.44 3.4137,-57.49 z m 11.789,-84.13 c 0.01,0.72 0.02,1.43 0.03,2.15 -0.173,3.04 -0.376,6.07 -0.58,9.1 0.23,-2.39 0.464,-4.79 0.685,-7.18 -0.03,-1.36 -0.08,-2.71 -0.131,-4.07 z m -0.552,11.25 c -4.535,47.15 -10.573,95.03 -11.696,143.61 0.383,1.58 0.765,3.15 1.166,4.71 -0.01,-17.85 0.92,-35.63 2.27,-53.39 -1.181,19.82 -1.647,39.46 -0.789,58.93 0.83,3.03 1.684,6.05 2.582,9.03 -4.163,-58.49 5.506,-109.69 8.459,-169.27 0,-1.63 -0.01,-3.25 -0.03,-4.87 h -1.063 c 0.02,1.63 0.03,3.26 0.02,4.92 -0.584,6.25 -1.205,12.47 -1.826,18.68 0.325,-4.11 0.623,-8.23 0.901,-12.35 z m 6.504,-11.25 c 0,1.93 0.01,3.87 0,5.8 -0.962,7.2 -1.871,14.38 -2.721,21.56 0.896,-6.81 1.939,-13.61 3.148,-20.41 0.08,-2.32 0.151,-4.64 0.206,-6.95 z m -2.727,27.36 c -0.973,7.4 -1.764,14.81 -2.424,22.23 0.739,-7.41 1.547,-14.82 2.424,-22.23 z m -2.424,22.23 c -4.108,41.19 -5.948,82.61 -3.842,125.91 -0.207,2.85 -0.408,5.98 -0.609,9.21 0.244,0.73 0.489,1.45 0.736,2.18 0.301,-5.16 0.597,-10.34 0.862,-14.91 -0.119,-40.79 -0.769,-81.69 2.853,-122.39 z m 11.944,-49.59 c -0.1,2.53 -0.196,5.06 -0.291,7.45 -8.453,54.29 -10.962,106.08 -5.122,163.36 -0.533,5.46 -1.039,11.46 -1.626,16.9 -0.35,3.23 -0.691,10.27 -1.014,19.49 0.794,1.94 1.602,3.87 2.424,5.79 0.666,-17.63 1.359,-31.09 2.004,-36.24 0.377,-4.15 0.767,-8.22 1.074,-12.37 0.232,3.29 0.471,6.57 0.713,9.84 -0.4,5.71 -0.854,11.36 -1.307,17.07 -0.329,3.99 -0.664,13.09 -0.988,25.19 0.338,0.76 0.688,1.52 1.031,2.29 0.804,-20.27 1.654,-36.02 2.41,-42.68 0.507,-6 1.04,-11.82 1.387,-17.71 -5.947,-48.44 -7.421,-90.92 0.246,-139.47 0.02,-0.11 0.05,-0.21 0.07,-0.31 0,-0.1 0,-0.15 0.01,-0.22 0.222,-1.4 0.452,-2.8 0.689,-4.21 -0.221,1.14 -0.437,2.28 -0.646,3.42 0.198,-3.62 0.409,-7.39 0.531,-10.88 0.07,-2.15 0.148,-4.44 0.225,-6.71 z m 1.716,14.17 c 0.226,-1.15 0.448,-2.31 0.686,-3.47 0,-0.19 0.01,-0.39 0.02,-0.58 -0.241,1.35 -0.479,2.71 -0.707,4.05 z m 0.707,-4.05 c 0.07,-0.37 0.126,-0.73 0.192,-1.1 0.118,-2.96 0.218,-6.01 0.324,-9.02 h -0.15 c -0.119,3.38 -0.234,6.78 -0.366,10.12 z m 0.727,-10.12 c -0.164,4.12 -0.334,8.33 -0.482,12.04 -9.573,49.73 -8.321,94.64 -0.694,143.51 -0.294,6.14 -0.826,12.32 -1.306,18.7 -0.815,7.41 -1.744,24.77 -2.627,47.05 0.36,0.79 0.72,1.58 1.086,2.37 0.967,-23.46 1.973,-41.88 2.847,-49.26 0.586,-5.92 1.174,-11.6 1.574,-17.34 -7.36,-50.37 -6.774,-95.27 -0.535,-146.71 0.103,-3.43 0.206,-6.9 0.309,-10.36 z m 1.42,0 c -0.01,2.35 -0.02,4.76 -0.03,7.08 -0.02,4.3 -0.2,8.97 -0.338,13.48 0.252,-1.66 0.514,-3.32 0.791,-4.98 0.125,-5.18 0.228,-10.38 0.349,-15.58 z m -0.373,20.56 c -1.749,11.49 -2.893,22.73 -3.543,33.82 1.128,-10.12 2.443,-20.38 3.455,-30.93 0.02,-0.94 0.06,-1.93 0.09,-2.89 z m -3.543,33.82 c -2.638,23.67 -4.208,46.58 1.744,70.75 -2.22,-23.45 -3.152,-46.74 -1.744,-70.75 z m 1.744,70.75 c 0.835,8.83 1.852,17.69 2.998,26.62 0.397,-5.92 0.58,-11.62 -0.355,-17.31 -1.017,-3.13 -1.884,-6.22 -2.643,-9.31 z m 2.998,26.62 c -0.328,4.88 -0.797,9.9 -0.941,15.27 -0.426,4.53 -0.881,9.07 -1.334,13.57 -0.708,6.99 -1.426,24.57 -2.067,47.14 0.788,1.64 1.588,3.27 2.395,4.89 0.62,-27.28 1.271,-49.57 1.805,-57.89 0.32,-5.9 0.427,-12.16 0.88,-17.28 -0.255,-1.91 -0.494,-3.8 -0.738,-5.7 z m 5.834,-151.75 c -0.09,4.2 -0.164,8.36 -0.219,12.49 -0.05,4.03 -0.08,8.03 -0.105,12.05 -0.134,4.3 -0.215,8.43 -0.295,12.62 -1.066,31.73 -3.307,62.77 9.199,83.6 0.747,5.06 0.88,10.42 0.613,15.44 -0.266,4.98 -0.771,9.78 -0.771,14.21 -0.64,5.65 -1.521,11.28 -2.561,16.8 -1.04,5.52 -2.24,10.96 -3.546,16.18 -0.747,5.55 -1.386,11.07 -1.973,16.59 -1.146,11.07 -1.974,22.13 -1.867,33.09 0.01,0.63 0.03,8.25 0.05,11.67 0.694,1.28 1.387,2.56 2.093,3.83 0,-5.36 0,-22.05 0,-22.62 -0.05,-8.66 0.292,-17.38 0.932,-26.24 0.347,-4.4 0.749,-8.85 1.229,-13.36 1.547,-5.73 2.985,-11.46 4.265,-17.17 1.254,-5.73 2.374,-11.44 3.254,-17.12 0.13,-0.25 0.245,-0.53 0.365,-0.8 -1.24,13.84 -3.496,27.62 -6.177,40.8 -0.4,5.25 -0.748,10.51 -1.041,15.76 -0.294,5.28 -0.507,10.53 -0.614,15.81 0,0.1 0,1.82 0,2 0.216,-5.03 0.578,-10.04 1.047,-15.01 0.48,-5.12 1.067,-10.21 1.707,-15.33 2.373,-13.66 5.468,-27.04 7.522,-40.16 0.693,-4.38 1.252,-8.75 1.625,-13.07 -0.44,-3.43 -0.916,-6.85 -1.399,-10.25 -0.145,-2.86 -0.488,-5.48 -1.002,-7.51 -0.04,-0.16 -0.09,-0.33 -0.13,-0.49 -0.304,-2.14 -0.615,-4.29 -0.909,-6.41 -2.959,-20.35 -7.522,-40.73 -9.017,-62.2 0.243,16 1.215,31.97 3.424,47.14 -7.184,-21.76 -5.282,-49.36 -4.7,-70.49 -0.106,-3.89 -0.159,-7.79 -0.185,-11.68 0,-3.89 -0,-7.79 0.05,-11.7 0.01,-2.68 0.05,-5.57 0.09,-8.47 z m 2.26,55.2 c -0.07,-4.45 -0.08,-8.91 -0.05,-13.35 -0.11,-4.35 -0.19,-8.64 -0.16,-13.04 -0.08,-4.21 -0.11,-8.4 -0.08,-12.59 0.05,-5.43 0.205,-10.84 0.385,-16.22 h -0.245 c -0.07,2.87 -0.131,5.72 -0.168,8.39 -0.05,3.86 -0.08,7.73 -0.08,11.59 0.03,3.87 0.08,7.71 0.188,11.55 -0.48,8.06 -0.33,15.94 0.209,23.67 z m 0.556,170.43 c 0,0.12 -0.01,0.23 -0.02,0.35 -0.05,1.2 -0.109,11.6 -0.162,26.15 0.02,0 0.04,0.1 0.07,0.12 0.04,-14.98 0.08,-24.14 0.113,-26.62 z m 1.825,-225.63 c -0.08,3.33 -0.142,6.64 -0.19,9.93 -0.107,7.39 -0.107,14.83 0.03,22.27 0.08,3.73 0.132,7.54 0.265,11.3 0.92,25.1 2.442,48.95 7.336,68.78 -3.046,-22.93 -6.356,-46.97 -7.017,-70.32 -0.08,-3.74 -0.134,-7.47 -0.188,-11.2 -0.05,-7.5 0.05,-15.02 0.295,-22.56 0.08,-2.64 0.155,-5.41 0.244,-8.2 z m 7.441,112.28 c 0.02,0.18 0.05,0.37 0.07,0.56 0.64,3.84 1.308,7.73 2.055,11.68 0.711,3.74 1.453,7.53 2.236,11.36 0.02,-1.15 0.03,-2.31 0.03,-3.47 -1.6,-6.64 -2.988,-13.04 -4.188,-19.25 -0.07,-0.29 -0.139,-0.59 -0.211,-0.88 z m 4.365,23.6 c -0.02,1.2 -0.05,2.4 -0.09,3.61 0.06,-1.01 0.143,-2.07 0.198,-3.05 -0.04,-0.19 -0.07,-0.37 -0.11,-0.56 z m -0.09,3.61 c -0.247,3.92 -0.547,7.99 -0.949,12.12 -1.787,14.66 -4.747,29.68 -7.707,45.17 -0.741,4.02 -1.352,8 -1.826,11.99 0.05,-0.35 0.101,-0.71 0.15,-1.06 1.04,-6 2.267,-12.26 2.987,-17.57 3.173,-14.32 5.733,-28.56 6.986,-42.67 0.154,-2.75 0.276,-5.38 0.359,-7.98 z m -10.482,69.28 c -0.727,5.18 -1.472,10.37 -2.195,15.61 -0.24,1.29 -0.406,12.52 -0.506,28.7 1.582,2.75 3.191,5.47 4.826,8.16 -1.124,-15.68 -2.222,-27.45 -3.23,-33.53 -0.05,-5.12 0.211,-10.26 0.718,-15.41 0.115,-1.18 0.247,-2.35 0.387,-3.53 z m 5.834,-208.77 c -0.285,3.62 -0.547,7.24 -0.754,10.84 -1.013,18.1 -0.774,36.05 2.613,53.89 0.56,4.73 1.449,10.43 2.411,16 -0.1,-0.9 -0.212,-1.8 -0.303,-2.69 -0.933,-7.34 -1.52,-13.87 -2,-20.64 -2.746,-17.66 -2.534,-35.02 -1.201,-52.35 0.124,-1.68 0.282,-3.37 0.427,-5.05 z m 4.27,80.73 c 1.667,15.03 4.487,30.13 8.322,45.63 -2.53,-14.97 -5.558,-29.11 -7.906,-43.23 -0.141,-0.79 -0.278,-1.6 -0.416,-2.4 z m 8.322,45.63 c 0.429,2.53 0.846,5.09 1.24,7.68 0.16,5.73 0.134,11.38 -0.133,17.03 -0.748,16.4 -3.582,32.61 -9.492,49.47 6.586,-15.09 9.437,-30.15 10.168,-45.43 v -17.43 c -0.07,-1.79 -0.161,-3.58 -0.275,-5.38 -0.521,-1.99 -1.019,-3.97 -1.508,-5.94 z m -8.385,74.18 c -0.07,0.17 -0.14,0.34 -0.215,0.51 0,0.1 -0.01,0.1 -0.02,0.15 0.08,-0.22 0.153,-0.44 0.23,-0.66 z m -0.23,0.66 c -0.121,0.34 -0.235,0.68 -0.358,1.02 -0.427,4.4 -0.986,9.33 -1.226,13.65 -0.03,6.06 -0.08,11.55 0.03,16.94 0.963,6.76 2.061,22.15 3.199,43.07 0.365,0.55 0.724,1.11 1.092,1.65 -1.626,-29.05 -3.082,-50.92 -4.055,-59.71 0.05,-5.15 0.759,-11.35 1.317,-16.62 z m 3.22,-201.2 c -0.186,2.09 -0.366,4.18 -0.511,6.28 -1.066,14.98 -1.12,30.08 0.96,45.68 0.347,5.46 0.747,10.96 1.44,16.82 0.917,12.6 2.708,25.39 5.289,38.56 v -9.39 c -1.69,-8.81 -3.01,-17.55 -3.85,-26.29 -0.667,-5.49 -1.066,-10.56 -1.386,-15.76 -0.257,-1.31 -0.483,-2.62 -0.692,-3.92 0.373,5.51 0.828,10.92 1.52,16.8 0.756,9.75 1.951,19.6 3.459,29.65 -1.603,-8.04 -2.786,-16.09 -3.514,-24.15 -0.64,-5.79 -1.253,-11.9 -1.359,-17.04 0.07,-1.7 -0.02,-3.63 -0.174,-5.65 0,0 0,0 0,0 -0.341,-4.59 -1.052,-9.8 -1.395,-14.97 -0.102,-2.98 -0.11,-5.93 -0.03,-8.85 0.1,-1.2 0.238,-2.38 0.453,-3.5 1.408,-8.09 2.795,-16.18 4.074,-24.25 z m 1.25,51.98 c 0,0 0,0 0,0 -0.02,-0.1 -0.04,-0.2 -0.06,-0.31 0.02,0.11 0.04,0.22 0.06,0.33 z m 80.93,-51.98 v 3.7 c 0.4,-1.23 0.79,-2.46 1.17,-3.7 z m 3.15,0 c -0.94,5.33 -2.02,11.05 -3.15,16.9 v 0.14 c 1.27,-6.18 2.48,-11.91 3.61,-17.04 z m 2.42,0 c -1.68,6.47 -3.62,12.94 -5.57,19.36 v 0.76 c 2,-6.48 4,-13.12 5.64,-20.12 z m 0.62,0 c -1.85,8.12 -4.06,16.12 -6.19,24.19 v 5.81 c 0.32,-1.62 0.66,-3.23 1,-4.83 1.8,-8.52 3.8,-16.86 5.48,-25.17 z m 9.24,0 c -1.65,14.46 -6.7,29.34 -9.53,44.42 -0.8,4 -1.4,8 -1.7,12.08 1.2,6.7 2.4,14.24 3.5,22.4 0.53,3.58 0.89,7.28 1.18,11.09 0.96,-0.73 1.94,-1.49 2.82,-2.13 -0.1,-4.69 -0.2,-9.41 -0.3,-13.86 0,-5.1 0,-9.88 0,-14.05 0.78,7.44 1.62,15.52 2.46,24.64 0.1,-1.01 0.1,-2.01 0,-3.01 0.14,1.56 0.29,3.08 0.42,4.68 0.1,1.41 -0.28,2.82 -1.46,4.25 -0.12,0.15 -0.25,0.29 -0.39,0.44 -0.1,0.1 -0.12,0.13 -0.19,0.2 -0.64,0.65 -1.46,1.31 -2.56,1.97 -0.81,0.74 -1.65,1.47 -2.5,2.19 1.23,-0.66 2.47,-1.27 3.7,-1.84 -0.2,0.13 -0.39,0.26 -0.6,0.39 -1.11,0.52 -2.21,1.06 -3.31,1.62 -0.72,0.6 -1.46,1.18 -2.21,1.76 2.83,-1.57 5.68,-2.81 8.42,-3.62 6.6,-3.89 6.6,-8.4 6.5,-12.8 -0.6,-13.22 -1.3,-25.3 -2.1,-35.54 0,-5.23 0.1,-10.35 0.3,-15.52 0.17,-4.29 0.44,-8.59 0.78,-12.92 -0.62,4.51 -1.24,9.04 -1.78,13.53 -0.6,4.13 -1,8.21 -1.4,12.24 0.6,12.51 1.4,27.76 2.2,44.53 -0.63,0.7 -1.26,1.41 -1.9,2.13 0.43,-1.22 0.6,-2.44 0.6,-3.67 -0.9,-12.96 -1.7,-24.64 -2.6,-34.43 0.4,-4.83 0.8,-10.13 1.2,-15.55 0.63,-5.49 1.33,-11.01 1.96,-16.53 0.17,-0.87 0.35,-1.73 0.51,-2.6 0,0 0,0 0,0 0.29,-1.59 0.57,-3.19 0.82,-4.78 0,0 0,0 0,0 0.26,-1.59 0.49,-3.17 0.7,-4.75 0,0 0,0 0,0 0.2,-1.58 0.37,-3.16 0.51,-4.72 0.11,-0.74 0.2,-1.49 0.29,-2.24 h -1.35 c -0.11,1.17 -0.22,2.32 -0.34,3.47 -0.3,7.55 -1.26,14.68 -2.35,21.55 0.26,-1.25 0.53,-2.49 0.79,-3.74 -0.26,1.25 -0.53,2.49 -0.79,3.75 -0.41,1.92 -0.81,3.84 -1.21,5.74 0,0 0,0 0,0 -0.68,3.14 -1.34,6.24 -1.94,9.28 -0.4,2.03 -0.8,4.03 -1.15,5.99 0,0.18 -0.1,0.36 -0.1,0.54 0,-0.45 0,-0.87 0,-1.33 1,-13.14 4.4,-26.9 5,-43.17 0.1,-0.68 0.16,-1.38 0.24,-2.08 z m 3.25,16.84 c 0.78,-5.69 1.56,-11.34 2.2,-16.84 h -0.46 c -0.72,5.67 -1.3,11.27 -1.74,16.84 z m -13.9,80.4 c -1.61,0.9 -3.2,1.91 -4.78,3.01 v 0.58 c 1.62,-1.18 3.22,-2.37 4.78,-3.59 z m 2.21,-1.76 c 0.1,-0.1 0.14,-0.12 0.21,-0.17 -0.98,0.51 -1.95,1.06 -2.92,1.62 0.9,-0.49 1.8,-0.98 2.71,-1.45 z m -2.71,1.45 c -1.45,0.81 -2.88,1.64 -4.28,2.52 v 0.2 c 1.41,-0.96 2.84,-1.87 4.28,-2.72 z m 7.98,-5.78 c 0.1,-0.1 0.13,-0.13 0.19,-0.2 0.14,-0.15 0.27,-0.29 0.39,-0.44 1.04,-1.32 1.32,-2.63 1.26,-3.95 -0.1,-0.68 -0.12,-1.3 -0.19,-1.97 -0.21,2.76 -1.31,5.56 -5.01,8.34 -3.09,1.49 -6.07,3.13 -8.9,4.91 v 0.82 c 3.41,-2.48 6.9,-4.53 10.3,-5.94 0.79,-0.53 1.44,-1.05 1.96,-1.57 z m -3.38,-1.16 c -1.12,0.86 -2.23,1.71 -3.42,2.68 1.16,-0.4 2.34,-0.76 3.54,-1.07 0,-0.54 -0.1,-1.07 -0.12,-1.61 z m -3.42,2.68 c -1.88,0.63 -3.7,1.38 -5.46,2.21 v 2.41 c 1.86,-1.64 3.7,-3.2 5.46,-4.62 z m 29.16,-92.67 c -0.12,6.02 -0.22,12.08 -0.32,18.16 -0.1,5.97 -0.3,12.8 -0.4,19.54 -0.34,7.89 -0.58,16.74 -0.77,26.18 0,-0.25 0,-0.5 0.1,-0.76 -0.1,3.48 -0.13,7.05 -0.18,10.72 -0.1,4.61 -0.2,9.38 -0.2,14.24 0,0 0,0.1 0,0.1 0,0.68 0,1.36 0,2.04 0.22,-0.23 0.45,-0.46 0.66,-0.7 0.1,-4.91 0.2,-9.74 0.3,-14.43 0.35,-12.54 0.8,-24.1 1.46,-34.4 0.1,-0.66 0.15,-1.35 0.24,-2 0.3,-5.47 0.5,-10.85 0.7,-16.21 0.25,-6.61 0.4,-13.26 0.45,-19.95 0,-0.84 0,-1.69 0,-2.53 z m -1.88,90.22 c -0.23,0.24 -0.44,0.48 -0.68,0.71 0,0.66 0,1.31 -0.1,1.97 -0.99,0.56 -2.06,1.12 -3.18,1.68 0.72,-0.78 1.37,-1.61 1.96,-2.48 -1.87,1.6 -4.07,3.1 -6.47,4.53 0.76,-0.32 1.49,-0.63 2.21,-0.93 -1.01,0.48 -2.05,0.97 -3.12,1.46 -1.21,0.7 -2.46,1.38 -3.75,2.05 2.12,-0.7 4.21,-1.33 6.27,-1.93 0.95,-0.78 1.85,-1.59 2.67,-2.45 1.51,-0.64 2.92,-1.25 4.11,-1.79 0,-0.95 0,-1.88 0,-2.82 z m -6.82,7.06 c -0.98,0.8 -2.03,1.56 -3.13,2.28 2.7,-0.76 5.25,-1.37 7.54,-1.84 -1.22,0.45 -2.71,0.81 -4.53,1.05 -1.06,0.3 -2.23,0.67 -3.44,1.08 -1.25,0.79 -2.55,1.54 -3.9,2.26 3.86,-1.49 7.4,-2.73 9.84,-3.66 2.67,-0.45 4.52,-1.21 5.83,-2.17 0.42,-0.31 0.77,-0.64 1.08,-0.99 0.1,-0.11 0.19,-0.22 0.28,-0.33 0,0 0,0 0,-0.1 1.52,-1.97 1.7,-4.43 1.86,-6.85 0.5,-13.49 1.4,-25.76 2.8,-36.05 0.1,-6.03 0.4,-12.16 0.6,-19.18 0.32,-10.99 0.58,-21.92 0.82,-32.82 h -0.73 c -0.21,10.87 -0.58,21.79 -1.09,32.74 -0.4,7.12 -0.7,13.31 -1,19.34 -0.85,6.28 -1.47,13.39 -1.94,21.03 0.16,-7.7 0.4,-14.84 0.74,-21.09 0.1,-6.18 0.3,-12.5 0.5,-19.75 0.25,-10.78 0.58,-21.54 0.95,-32.27 h -1.35 c -0.17,11.7 -0.4,23.36 -0.6,34.96 -0.3,7.86 -0.4,14.61 -0.6,20.96 -0.8,7.28 -1.3,15.62 -1.7,24.77 -0.1,4.56 -0.3,9.31 -0.5,14.13 -2.58,0.8 -5.43,1.6 -8.38,2.46 z m -7.46,4.83 c -4.55,1.75 -9.53,3.85 -13.74,6.27 4.47,-1.94 9.3,-3.91 13.74,-6.27 z m -13.74,6.27 c -1.23,0.53 -2.45,1.07 -3.61,1.6 -0.38,0.27 -0.75,0.54 -1.11,0.81 v 0.73 c 1.38,-1.1 2.98,-2.14 4.72,-3.14 z m -3.61,1.6 c 6.11,-4.25 14.59,-7.91 21.25,-10.13 0.15,-0.1 0.29,-0.19 0.43,-0.29 -8.05,2.28 -17.12,5.77 -22.79,10.1 v 0.85 c 0.37,-0.18 0.74,-0.35 1.11,-0.53 z m 18.54,-10.77 c -1.03,0.33 -2.07,0.69 -3.1,1.05 2.35,-1.05 4.64,-2.08 6.85,-3.1 0.31,-0.17 0.61,-0.35 0.91,-0.53 -3.59,1.51 -7.56,3.2 -11.55,5.08 -3.44,1.41 -6.74,3.05 -9.68,5.03 -0.1,0 -0.15,0.1 -0.23,0.14 0,0 0.1,-0.1 0.13,-0.1 -0.88,0.59 -1.73,1.22 -2.54,1.88 5.78,-3.18 12.83,-6.17 19.21,-9.47 z m -19.21,9.47 c -0.15,0.1 -0.29,0.16 -0.44,0.24 v 0.13 c 0.15,-0.12 0.29,-0.25 0.44,-0.37 z m 2.41,-1.8 c -0.98,0.53 -1.93,1.07 -2.85,1.62 v 0.14 c 0.92,-0.6 1.87,-1.19 2.85,-1.76 z m 27.93,-14.78 c 0.44,-0.39 0.88,-0.77 1.28,-1.17 0,-0.39 0,-0.77 0,-1.16 -0.38,0.81 -0.83,1.58 -1.32,2.33 z m 1.32,-2.33 c 0.24,-0.52 0.47,-1.05 0.66,-1.59 0,-3.5 0.1,-6.97 0.14,-10.34 0.1,-4.81 0.15,-9.43 0.23,-13.96 -0.28,4.59 -0.53,9.27 -0.73,14.14 -0.1,3.85 -0.17,7.78 -0.3,11.75 z m 16.22,-89.77 c -0.19,4.18 -0.37,8.36 -0.55,12.52 0.15,-1.83 0.3,-3.66 0.44,-5.49 0.14,-2.36 0.26,-4.68 0.39,-7.03 z m -0.11,7.03 c -0.1,1.58 -0.17,3.18 -0.25,4.77 0.29,-3.96 0.61,-7.88 0.93,-11.8 h -0.1 c -0.19,2.33 -0.38,4.69 -0.58,7.03 z m -0.25,4.77 c -0.13,1.65 -0.25,3.3 -0.37,4.95 0,0.1 0,0.17 0,0.25 0,-0.1 0,-0.17 0,-0.26 0.1,-0.68 0.13,-1.38 0.2,-2.07 0,-0.95 0.1,-1.92 0.16,-2.87 z m -0.16,2.87 c -0.16,2.84 -0.31,5.67 -0.47,8.51 0.1,-2.06 0.16,-4.12 0.25,-6.18 0,0.35 -0.1,0.7 -0.1,1.05 0,-0.43 0.1,-0.87 0.1,-1.3 0.1,-1.41 0.12,-2.82 0.18,-4.23 -0.39,4.81 -0.78,9.53 -1.17,14.38 -0.2,2.79 -0.4,5.68 -0.6,8.51 -2.3,13.57 -3.6,30.67 -4.3,49.52 -0.1,3.19 -0.2,6.42 -0.36,9.65 0,0 0,-0.1 0.1,-0.1 0,0.1 0,0.15 -0.1,0.22 0,0.22 0,0.44 0,0.66 -0.1,0.11 -0.21,0.21 -0.31,0.32 -0.88,2.03 -2.62,3.68 -6.21,4.42 1.08,-0.56 2.12,-1.19 3.08,-1.93 -1.24,0.79 -2.61,1.48 -4.06,2.1 -0.26,0 -0.51,0.1 -0.8,0.12 -3.7,0.79 -7.99,1.63 -12.23,2.93 -6.79,1.52 -13.1,3.44 -16.28,6.23 -0.86,0.69 -1.5,1.47 -1.81,2.38 -0.48,1.17 -0.47,2.47 0.15,3.91 -0.36,0.65 -0.69,1.33 -0.98,2.03 0.31,-0.69 0.65,-1.34 1,-1.96 0.32,0.73 0.8,1.49 1.45,2.3 0.1,0.1 0.12,0.14 0.18,0.21 -0.92,-0.1 -1.84,-0.18 -2.77,-0.24 0,0 0,0 0,0 1,0.12 1.98,0.26 2.96,0.42 0,0 0.1,0.1 0.1,0.12 0,0 0,-0.1 0,-0.1 0,0 0,0 0,0 0,0 0,0 0,0 0,0 0,0 0,-0.1 0,0 0,0.1 0.1,0.1 5.99,0.99 11.66,2.75 16.91,5.15 -4.32,-1.57 -8.94,-2.57 -13.81,-2.91 3.21,2.1 6.93,4.04 10.89,5.98 5.32,1.71 11.13,3.07 16.68,5.41 0.82,0.66 1.61,1.34 2.39,2.03 -4.79,-2.28 -9.78,-3.75 -14.51,-5.24 1.32,0.63 2.61,1.25 3.94,1.9 -4.2,-0.67 -8.47,-0.79 -12.5,-0.95 1.13,0.11 2.25,0.25 3.37,0.41 3.59,0.26 7.24,0.6 10.76,1.36 0.61,0.3 1.22,0.61 1.83,0.92 0.66,0.29 1.32,0.61 1.97,1 0.1,0 0.12,0.1 0.18,0.11 0.18,0.1 0.36,0.19 0.54,0.28 0,0 -0.1,0 -0.12,0 0.67,0.39 1.32,0.8 1.96,1.21 -1.45,-0.69 -2.98,-1.21 -4.56,-1.58 0.47,0.18 0.94,0.37 1.4,0.56 -5.76,-1.77 -11.97,-1.4 -17.92,-0.77 7.24,-0.33 15,-0.4 21.42,2.45 1.11,0.59 2.19,1.2 3.24,1.88 1.58,1.23 3.02,2.53 4.34,3.88 0,0 0,0 0,0 1.22,1.25 2.34,2.55 3.35,3.9 -1.34,-1.84 -2.84,-3.59 -4.52,-5.22 0.33,0.34 0.66,0.69 0.98,1.07 -0.37,-0.43 -0.74,-0.81 -1.12,-1.2 -0.47,-0.46 -0.95,-0.91 -1.45,-1.35 0,0 0,0 0.1,0 0.38,0.31 0.75,0.65 1.11,1 -0.35,-0.34 -0.71,-0.66 -1.07,-0.97 3.28,2.36 6.19,5.21 8.59,8.59 2.18,3.46 3.97,7.12 5.34,10.92 0.85,3.13 1.36,6.32 1.54,9.56 0,-1.43 -0.1,-2.85 -0.19,-4.26 0.1,0.33 0.13,0.65 0.19,0.98 1.37,10.96 -0.91,21.18 -5.13,30.18 -1.26,2.98 -2.72,5.9 -4.37,8.73 -0.21,0.3 -0.4,0.55 -0.61,0.84 0.31,-0.72 0.62,-1.44 0.93,-2.16 -0.47,0.73 -0.95,1.45 -1.44,2.17 -0.41,0.83 -0.85,1.65 -1.29,2.47 -3.46,4.73 -6.3,8.51 -6.79,10.86 0,0.1 0,0.11 0,0.17 -0.48,0.69 -0.96,1.36 -1.45,2.03 -0.1,1.2 -0.1,2.4 -0.15,3.59 0.1,15.01 0,28.72 -0.5,40.11 -0.4,5.6 -0.7,12.4 -1.1,19.19 0,0.17 0,0.33 0,0.5 0.1,-0.79 0.15,-1.57 0.23,-2.36 0.5,-7.17 1.1,-13.47 1.6,-19.65 0.7,-10.88 1.1,-24.35 1.2,-39.31 0.1,-0.68 0.11,-1.37 0.21,-2.09 0.16,21.16 -0.16,40.33 -1.61,55 -0.4,5.97 -0.8,11.78 -1.2,17.62 -1.5,23.33 -2.4,46.67 0.1,70.11 0.6,4.02 1.3,10.66 1.2,16.48 0,5.86 -0.1,11.81 -0.26,18.23 0.27,0.19 0.53,0.38 0.79,0.57 0.16,-6.63 0.18,-12.76 0.27,-18.8 0.3,-5.82 0,-12.4 -0.4,-16.51 -1.6,-23.39 -0.1,-46.72 1.5,-70.05 0.3,-5.84 0.7,-12.35 1,-18.77 0.1,-10.56 -0.1,-23.04 -0.3,-36.72 -0.1,-4.56 -0.2,-9.23 -0.3,-14.03 2.04,-5.52 4.62,-11.3 7.18,-17.22 8.42,-12.72 13.2,-27.6 10.72,-42.46 1.57,6.17 2.04,12.63 1.21,19.14 0.23,-1.05 0.43,-2.11 0.61,-3.18 0.39,-6.71 -0.54,-13.47 -2.62,-19.91 -0.23,-1.13 -0.51,-2.25 -0.85,-3.37 -0.31,-0.72 -0.63,-1.45 -0.97,-2.17 -1.03,-2.63 -2.31,-5.25 -3.87,-7.84 -0.52,-0.78 -1.08,-1.55 -1.68,-2.31 0.19,0.18 0.38,0.37 0.57,0.55 -0.1,-0.11 -0.13,-0.21 -0.2,-0.32 -1.19,-1.68 -2.52,-3.11 -3.95,-4.34 -1.21,-1.43 -2.49,-2.81 -3.84,-4.11 -0.2,-0.12 -0.41,-0.24 -0.62,-0.35 -0.74,-0.71 -1.5,-1.4 -2.28,-2.07 0.17,0.1 0.35,0.16 0.53,0.25 -1.81,-1.56 -3.71,-3 -5.72,-4.31 -8.08,-5.69 -17.51,-9.54 -27.58,-10.71 3.7,-12.4 18.71,-13.39 29.24,-17.31 4.03,-0.38 6.35,-1.61 8.72,-2.73 0.1,-1.72 0.17,-3.32 0.25,-5 0.27,-1.42 0.36,-2.94 0.45,-4.44 0.3,-7.31 0.64,-14.24 1.07,-20.69 0.44,-5.63 0.92,-10.6 1.43,-14.59 0.3,-5.92 0.7,-11.92 1.3,-18.72 0.68,-11.6 1.51,-23.28 2.37,-35.01 h -0.47 c -0.47,4.92 -0.93,9.81 -1.4,14.67 z m -9.66,118.84 c 0.81,0.7 1.6,1.42 2.37,2.17 3.74,2.06 7.29,4.74 10.39,8.45 -3.62,-5.05 -8.05,-8.29 -12.76,-10.62 z m 12.76,10.62 c 2.7,4.06 4.61,8.21 5.87,12.38 -1.81,-4.72 -4.7,-8.66 -8.27,-12.06 0.38,0.58 0.76,1.17 1.11,1.76 2.22,3.26 3.79,6.61 4.84,10.01 2.28,5.39 3.74,11.06 4.21,16.85 -0.12,2.15 -0.38,4.3 -0.74,6.43 0,0.56 -0.1,1.11 -0.12,1.67 0.42,-1.85 0.76,-3.69 1,-5.54 0,0.68 0,1.37 0,2.06 0.25,-2.06 0.37,-4.16 0.35,-6.29 0.4,-8.92 -1.74,-17.93 -8.27,-27.27 z m 7.92,33.56 c -0.34,2.9 -0.94,5.72 -1.72,8.47 0.32,-1.65 0.55,-3.32 0.7,-4.99 -0.2,0.87 -0.41,1.74 -0.64,2.62 -0.35,2.31 -0.87,4.63 -1.55,6.94 -1.18,3.17 -2.61,6.24 -4.21,9.19 1.88,-4.17 3.55,-8.47 4.8,-12.86 -1.34,4.29 -3.02,8.6 -4.84,12.94 -2.17,4 -4.64,7.8 -7.26,11.38 -0.34,2.29 -0.52,4.38 -0.58,6.37 0.1,-1.27 0.15,-2.58 0.61,-4.2 0,-0.32 0,-0.64 0,-0.97 0.21,-0.22 0.4,-0.45 0.61,-0.67 0.45,-1.14 1.07,-2.42 1.99,-3.94 0.79,-0.94 1.53,-1.91 2.24,-2.88 0.8,-1.59 1.57,-3.2 2.31,-4.83 -0.54,1.28 -1.11,2.58 -1.67,3.87 -0.13,0.21 -0.28,0.43 -0.41,0.64 0.12,-0.18 0.24,-0.36 0.36,-0.54 -0.58,1.36 -1.16,2.71 -1.76,4.07 7.57,-9.66 10.95,-20.22 11.05,-30.61 z m -11.05,30.61 c -0.5,0.64 -1.02,1.28 -1.56,1.91 -0.4,0.73 -0.81,1.45 -1.22,2.17 0.14,-0.43 0.31,-0.87 0.5,-1.34 -0.25,0.3 -0.52,0.58 -0.78,0.87 -0.24,0.58 -0.43,1.13 -0.58,1.64 0,0.94 0.1,1.86 0.11,2.79 0,-0.69 0.11,-1.41 0.27,-2.2 0.1,0.43 0.14,0.86 0.2,1.29 1.01,-2.4 2.03,-4.77 3.06,-7.13 z m -3.06,7.13 c -0.15,0.38 -0.31,0.76 -0.47,1.14 0,-0.1 0,-0.15 0,-0.23 0,0.1 0,0.2 0,0.29 -0.24,0.58 -0.47,1.15 -0.71,1.72 0,0 0,0.1 0,0.11 0,0 0,-0.1 0,-0.1 -0.14,0.32 -0.28,0.65 -0.41,0.98 0,4.88 0.1,9.66 0.2,14.27 0.2,13.89 0.2,26.53 -0.1,37.12 -0.4,5.76 -0.8,11.52 -1.2,17.25 -1.3,22 -2.24,43.71 -0.45,64.9 0.27,4.58 0.63,9.18 1.15,13.82 0.4,5.57 0.3,11.55 0.3,17.52 -0.1,5.93 -0.11,11.96 -0.31,18.34 0.47,0.33 0.94,0.67 1.41,0.99 0,-2.66 0.1,-5.43 0.12,-8.19 0.1,1.59 0.14,3.29 0.2,5.05 0,-3.3 0,-6.5 0,-9.58 0,-2.74 0,-5.48 0,-8.22 0.28,-5.56 0.47,-11.09 0.66,-16.65 0.15,3.56 0.2,7.63 0.2,11.35 0,6.35 -0.1,12.67 -0.1,18.99 0.15,1.09 0.29,2.25 0.42,3.45 0.1,-4.87 0.1,-9.6 0.1,-14.36 0,-5.7 -0.1,-11.44 -0.1,-17.17 -0.23,-1.56 -0.43,-3.13 -0.63,-4.7 0.1,0.77 0.1,1.57 0.13,2.42 -0.23,-2.27 -0.42,-4.56 -0.61,-6.84 -0.1,-0.95 -0.18,-1.89 -0.26,-2.84 0,0.37 0.1,0.75 0.13,1.12 -0.44,-5.88 -0.75,-11.79 -0.95,-17.74 0,-6.75 0,-13.5 0.19,-20.24 0.48,-13.03 1.48,-26.2 2.4,-39.39 0.4,-6.69 0.7,-13.31 1,-19.2 1.6,-12.91 0.6,-24.56 -0.9,-36 -0.41,-3.13 -0.89,-6.26 -1.39,-9.39 z m -0.35,141.96 c 0,0.57 0.1,1.15 0.13,1.72 0.15,1.47 0.31,2.95 0.48,4.42 -0.1,-0.86 -0.1,-1.74 -0.17,-2.47 -0.16,-1.22 -0.3,-2.45 -0.44,-3.67 z m 1.26,42.37 c 0,1.58 -0.1,3.17 -0.1,4.79 0.19,0.13 0.39,0.27 0.58,0.4 -0.15,-1.8 -0.3,-3.59 -0.48,-5.19 z m -1.2,0.66 c 0,1.09 0,2.26 0,3.38 0,0 0.1,0 0.1,0.1 0,-1.21 -0.1,-2.3 -0.11,-3.44 z m -0.91,-182.05 c 0,0 0,0 0,0 0,-0.2 0,-0.4 0,-0.6 0,0.12 0,0.26 0,0.38 0,0.1 0,0.15 0,0.24 z m 1.98,-7.33 c 0.25,-0.27 0.49,-0.55 0.72,-0.83 0.9,-1.62 1.78,-3.26 2.64,-4.94 -0.53,0.81 -1.07,1.62 -1.65,2.43 -0.73,1.25 -1.29,2.36 -1.71,3.34 z m 3.36,-5.77 c 0.11,-0.17 0.21,-0.33 0.32,-0.5 -0.1,0.1 -0.16,0.21 -0.23,0.32 0,0.1 -0.1,0.12 -0.1,0.18 z m 7.35,-18.21 c 0.34,-1.09 0.66,-2.18 0.96,-3.27 0.1,-0.37 0.1,-0.74 0.15,-1.11 -0.33,1.47 -0.69,2.93 -1.11,4.38 z m -22.03,96.44 c -2.61,25.57 -4.74,50.89 -1.38,75.97 -1.97,-25.67 -0.39,-50.75 1.38,-75.97 z m -1.38,75.97 c 0.25,3.23 0.54,6.47 0.91,9.72 0.5,6.43 0.3,13.63 0.3,19.73 0.1,2.26 0.19,4.87 0.28,7.62 0.19,0.14 0.37,0.27 0.56,0.41 -0.1,-3.38 -0.15,-6.77 -0.24,-9.49 0.1,-6.64 0.1,-13.28 -0.5,-19.63 -0.52,-2.78 -0.94,-5.57 -1.31,-8.36 z m 3.16,-139.36 c 0,-0.7 0.1,-1.41 0.12,-2.12 -0.51,0.66 -1.03,1.3 -1.55,1.93 -0.11,0.33 -0.22,0.66 -0.32,0.98 0,0.52 0,0.97 0,1.48 0.58,-0.74 1.15,-1.5 1.72,-2.27 z m -1.72,2.27 c -0.24,0.31 -0.48,0.63 -0.73,0.93 0,0.83 -0.1,1.66 -0.1,2.47 0,13.71 0,26.08 -0.2,36.4 -0.1,1.81 -0.17,3.67 -0.27,5.54 0,3.59 -0.1,7.35 -0.13,10.62 -0.3,5.44 -0.7,10.9 -1.1,16.32 -0.38,4.86 -0.76,9.71 -1.12,14.57 0.96,-8.69 2.07,-17.42 3.02,-26.31 0.6,-5.99 1.1,-12.07 1.5,-17.19 -0.19,-12.4 -0.57,-27.23 -0.87,-43.35 z m -3.65,86.85 c 0,0.25 -0.1,0.49 -0.1,0.73 0,0.22 0,0.45 0,0.67 0,-0.46 0.1,-0.93 0.1,-1.4 z m -0.1,1.4 c -1.1,14.75 -1.94,29.6 -1.54,44.89 -0.37,-4.78 -0.51,-9.5 -0.49,-14.19 -0.1,1.94 -0.12,3.87 -0.15,5.81 0.1,11.76 0.7,22.56 2,33.01 0,4.19 -0.1,8.68 -0.15,13.35 0.96,0.71 1.92,1.42 2.87,2.12 0,-3.35 0,-7.94 0,-10.62 0,-6.02 -0.2,-11.94 -1,-17.46 -2.06,-19.13 -2.16,-38.06 -1.52,-56.91 z m -2.03,30.7 c 0.17,-6.04 0.44,-12.06 0.77,-18.06 -0.46,5.98 -0.75,11.99 -0.77,18.06 z m 0.77,-18.06 c 0.35,-4.44 0.8,-8.88 1.28,-13.31 0.17,-4.72 0.36,-9.43 0.6,-14.13 0,-0.35 0,-0.74 0.1,-1.1 -0.7,9.47 -1.39,18.98 -1.93,28.54 z m 1.93,-28.54 c 0.43,-5.7 0.85,-11.39 1.25,-17.08 0.19,-3.55 0.37,-6.78 0.53,-9.93 0.1,-8.9 0.17,-18.38 0.17,-28.82 v -15.07 c 0.14,-0.17 0.27,-0.35 0.4,-0.52 0,-0.78 0.1,-1.56 0.16,-2.36 -0.22,0.26 -0.44,0.52 -0.66,0.78 v 15.01 c 0,14.67 -0.3,28.24 -1.1,39.95 -0.19,6.19 -0.47,12.4 -0.75,18.04 z m 2.51,-73.78 c 0.29,-0.34 0.58,-0.68 0.86,-1.03 0.39,-1.1 0.89,-2.27 1.65,-3.6 0,0.56 -0.1,1.11 -0.1,1.67 2.25,-2.89 4.4,-5.99 6.36,-9.24 -1.01,1.28 -2.05,2.51 -3.11,3.7 -0.93,1.16 -1.89,2.29 -2.88,3.39 0.17,-0.29 0.36,-0.58 0.55,-0.89 -0.26,0.27 -0.52,0.56 -0.79,0.83 0,0.12 0,0.24 0,0.36 -0.72,0.79 -1.44,1.57 -2.18,2.33 -0.16,0.85 -0.26,1.67 -0.34,2.48 z m 3.33,-6 c 0.79,-0.81 1.56,-1.64 2.33,-2.5 1.36,-1.7 2.64,-3.46 3.85,-5.26 -0.6,0.73 -1.22,1.45 -1.87,2.14 -1.92,2.21 -3.29,4.03 -4.31,5.62 z m 6.18,-7.76 c 0.21,-0.26 0.42,-0.52 0.63,-0.78 0.21,-0.38 0.42,-0.77 0.63,-1.15 -0.41,0.65 -0.83,1.29 -1.26,1.93 z m 1.26,-1.93 c 1.65,-2.63 3.14,-5.35 4.43,-8.15 3.06,-7.57 5.12,-15.46 5.59,-23.16 0.22,-10.86 -3.05,-21.92 -11.16,-32.19 15.6,19.77 11.77,43.99 1.14,63.5 z m 10.02,-31.31 c -0.17,7.97 -2.2,15.82 -5.59,23.16 -0.82,2.02 -1.7,4.02 -2.65,5.99 0.43,-0.65 0.85,-1.31 1.25,-1.98 3.08,-7.35 5.9,-14.87 7.43,-22.33 0.87,-8.21 -0.12,-16.57 -3.22,-24.13 2.37,6.06 3.18,12.6 2.78,19.29 z m -2.78,-19.29 c -1.13,-2.88 -2.6,-5.64 -4.48,-8.26 1.81,2.6 3.3,5.37 4.48,8.26 z m -4.48,-8.26 c -0.18,-0.25 -0.37,-0.5 -0.55,-0.74 0.18,0.24 0.38,0.49 0.55,0.74 z m 7.7,32.39 c -0.84,7.88 -3.4,15.61 -7.43,22.33 -0.18,0.43 -0.36,0.86 -0.54,1.29 1.49,-2.36 2.84,-4.84 4.05,-7.41 3.68,-8.71 5.63,-17.94 5.13,-26.9 0,3.54 -0.47,7.1 -1.21,10.69 z m -8.68,24.31 c -0.76,1.14 -1.57,2.24 -2.41,3.31 -0.45,0.79 -0.9,1.57 -1.37,2.34 1.06,-1.34 2.07,-2.74 3.05,-4.17 0.25,-0.49 0.49,-0.99 0.73,-1.48 z m -4.51,-63.1 c 0.1,0.1 0.19,0.21 0.28,0.31 0.1,0 0.1,0.1 0.14,0.13 -0.14,-0.15 -0.28,-0.3 -0.42,-0.44 z m -27.42,-6.46 c -1.88,0.1 -3.75,0.17 -5.51,0.25 -0.86,0.21 -1.71,0.41 -2.53,0.59 2.57,-0.22 5.28,-0.54 8.04,-0.84 z m -8.04,0.84 c -2.19,0.18 -4.3,0.29 -6.24,0.16 v 0.41 c 1.87,0.2 3.97,-0.1 6.24,-0.57 z m 2.53,-0.59 c 0.31,-0.1 0.64,-0.16 0.95,-0.25 -3.01,0.24 -5.88,0.4 -8.37,0.24 2.22,0.18 4.74,0.12 7.42,0 z m -7.42,0 c -0.46,0 -0.91,-0.1 -1.35,-0.14 v 0 c 0.44,0 0.89,0.1 1.35,0.12 z m 8.37,-0.24 c 6.77,-0.51 14.4,-1.37 21.08,0.21 -0.73,-0.29 -1.47,-0.55 -2.22,-0.81 1.63,0.33 3.24,0.71 4.82,1.18 -0.14,-0.1 -0.27,-0.17 -0.42,-0.25 -0.71,-0.38 -1.43,-0.75 -2.15,-1.11 -2.78,-1.22 -5.64,-1.61 -8.5,-1.53 -1.34,-0.29 -2.71,-0.54 -4.09,-0.75 -3.42,-0.24 -6.77,-0.42 -9.9,-0.77 -0.19,0 -0.37,0 -0.56,0 3.48,0.85 7.33,1.33 11.28,1.82 -3.22,0.44 -6.36,1.26 -9.34,2.02 z m -1.94,-3.84 c -0.16,0 -0.32,-0.1 -0.48,-0.12 0.35,0.1 0.69,0.1 1.04,0.13 0.36,0 0.71,0 1.06,0 -1.11,-0.11 -2.18,-0.26 -3.19,-0.45 -2.28,-0.67 -4.38,-1.53 -6.21,-2.73 v 3.47 c 2.6,-0.23 5.2,-0.34 7.78,-0.32 z m 1.62,0 c 1.72,0.17 3.58,0.26 5.47,0.34 -1.81,-0.18 -3.63,-0.29 -5.47,-0.34 z m 14.03,-0.61 c -1.53,-0.73 -3.08,-1.48 -4.56,-2.2 -4.16,-1.35 -8.02,-2.91 -11.19,-5.37 4.13,3.72 9.73,5.67 15.75,7.57 z m -15.75,-7.57 c -0.24,-0.22 -0.49,-0.44 -0.72,-0.67 0,0 -0.1,0 -0.1,0 0.27,0.23 0.54,0.46 0.82,0.68 z m -0.82,-0.68 c -0.75,-0.64 -1.45,-1.33 -2.1,-2.09 -0.18,0.64 -0.34,1.31 -0.46,2.02 0.86,0 1.71,0 2.56,0.1 z m 0.1,0 c 0.34,0 0.68,0 1.02,0.1 -1.1,-0.73 -2.13,-1.47 -3.1,-2.24 0,0 -0.1,0 -0.1,0 0,0 0,0 0,0 0.52,0.7 1.2,1.41 2.11,2.13 0,0 0,0 0.1,0.1 z m -5.25,-2.67 c 0,-0.1 0.1,-0.2 0.14,-0.31 0,0.11 -0.1,0.2 -0.15,0.31 0,0 0,0 0,0 z m 36.15,-20.01 c 1.16,-0.74 2.21,-1.57 3.13,-2.49 0.14,-0.32 0.25,-0.65 0.34,-0.98 0,-0.1 0,-0.1 0,-0.15 -1.01,1.43 -2.18,2.62 -3.48,3.62 z m 21.85,-98.2 c -0.39,4.63 -0.77,9.26 -1.14,13.9 0.57,-4.63 1.22,-9.27 1.99,-13.9 z m -1.14,13.9 c -1.33,10.91 -2.15,21.82 -2.57,32.68 -0.1,1.14 -0.14,2.26 -0.2,3.37 0.18,-2.08 0.38,-4.18 0.6,-6.3 0.65,-9.95 1.38,-19.86 2.17,-29.75 z m -2.77,36.05 c -0.32,3.57 -0.57,7.05 -0.7,10.26 -2.4,10.03 -3.7,22.53 -4.1,36.43 -0.3,4.53 -0.5,9.22 -6.5,9.38 -4,7.02 -22.1,-0.74 -16.9,4.43 14.06,17.59 31.7,39.96 34.56,62.19 -1.63,-21.93 -11.34,-42.47 -26.76,-59.6 -5.2,-2.59 10.3,0 12.9,-3.92 5.3,0.13 5.3,-4.59 5.3,-9.15 0,-13.95 0.4,-26.51 1.7,-36.64 0.1,-4.3 0.23,-8.72 0.5,-13.38 z m 6.36,122.69 c 0.28,3.65 0.32,7.34 0.13,11.06 0.43,-3.67 0.35,-7.36 -0.13,-11.06 z m 0.13,11.06 c -0.79,6.73 -3.24,13.38 -7.89,19.79 0.3,4.9 0.5,9.68 0.7,14.32 0.5,13.86 0.7,26.34 0.1,36.34 -0.3,5.04 -0.5,10.4 -0.7,15.84 -1.4,25.47 -2.3,51.04 1.1,75.65 0.2,5.18 0.2,10.78 0.1,16.38 -0.1,5.73 -0.2,11.49 -0.3,17.28 0,6.29 0,12.56 -0.1,18.85 0,4.27 0,8.67 0.12,13.13 0.33,0.22 0.67,0.45 1.01,0.67 0,-3.48 0,-6.92 0.1,-10.23 0,-6.29 0.1,-12.61 0.2,-18.93 0.3,-5.79 0.6,-11.52 0.8,-17.28 0.1,-5.73 0.1,-11.89 0.4,-17.17 -1.7,-24.16 -1.1,-49.55 -0.3,-75.04 0.2,-5.09 0.4,-10.21 0.6,-15.31 0.7,-10.08 0.7,-22.58 0.4,-36.53 -0.2,-4.64 -0.3,-9.44 -0.6,-14.35 2.51,-7.88 3.9,-15.71 4.29,-23.41 z m 6.76,-183.7 c 0,0.8 0,1.9 -0.1,2.64 -1.5,17.25 -2.6,34.32 -3.1,51.25 -0.1,4.69 -0.4,47.84 -0.4,65.33 0,2.67 -0.1,4.48 -0.1,5.73 0.1,-0.1 0.19,-0.1 0.28,-0.15 0,-0.96 0.1,-3.44 0.1,-6.96 0.2,-17.6 0.5,-60.83 0.7,-65.6 1,-17.15 2.4,-34.05 3.7,-50.21 -0.16,-0.68 -0.29,-1.36 -0.42,-2.03 z m -3.63,124.95 c -0.48,0.26 -0.99,0.47 -1.54,0.61 0.56,0.3 1.08,0.54 1.52,0.57 0,-0.22 0,-0.79 0,-1.18 z m -1.54,0.61 c -1.5,-0.79 -3.36,-2.15 -5.18,-2.15 0.1,0.86 0.24,1.72 0.37,2.59 1.65,0 3.33,0 4.81,-0.44 z m -4.81,0.44 c -0.12,0 -0.25,0 -0.37,0 0.44,3.23 1.23,6.38 2.18,9.48 -0.72,-3.17 -1.34,-6.33 -1.81,-9.48 z m 1.81,9.48 c 3.13,14 7.73,28.3 6.63,43.95 1.27,-3.78 1.83,-7.41 1.88,-10.92 0.47,4.63 0.31,9.14 -1.19,13.43 -0.1,2.69 -0.1,5.07 -0.1,7.2 0.5,12.64 0.8,25.23 0.7,37.55 -0.2,5.12 -0.1,10.56 -0.3,15.92 -0.1,9.06 -0.2,17.78 -0.3,26.48 -0.1,4.34 -0.2,8.66 -0.2,13.03 -0.1,7.66 -0.2,14.06 -0.3,20.48 -0.1,6.4 -0.2,12.78 -0.5,20.38 0,22.8 -0.3,43.52 -1.1,68.56 -0.2,6 -0.3,11.97 -0.3,17.92 -0.1,2.83 -0.1,5.65 -0.13,8.48 0.35,0.22 0.71,0.45 1.06,0.67 0.1,-5.3 0.18,-10.63 0.27,-15.93 1.6,-25.81 1.9,-46.53 0.6,-72.4 v -14.56 c 0.2,-14.66 0.4,-29.62 0.7,-42.87 0.1,-4.72 0.2,-9.5 0.3,-14.3 0.1,-4.8 0.2,-9.6 0.4,-14.45 0.2,-5.84 0.3,-11.76 0.6,-17.49 1.9,-13.58 1.9,-26.43 1.2,-38.94 -0.2,-4.24 -0.5,-8.4 -0.4,-14.88 -1.4,-15.73 -6.6,-31.27 -2.2,-46.45 v -6.69 c 0,-17.17 0.1,-59.97 0.2,-64.35 0.3,-15.7 1.2,-31.75 3,-48.85 v -6.45 h -0.28 c 0,0.94 0,1.92 0,2.83 -1.6,17.17 -2.5,34.21 -2.8,51.11 -0.1,4.7 -0.3,47.84 -0.3,65.31 v 6.91 c -4.12,7.96 -3.37,16.45 -1.78,24.94 -1.7,-5.21 -3.75,-10.35 -5.34,-15.62 z m 6.63,43.95 c 0,0 0,0 0,0 -0.21,1.68 -0.34,3.03 -0.44,4.27 0.2,-1.44 0.35,-2.88 0.45,-4.3 z m -0.45,4.3 c -0.24,1.76 -0.55,3.53 -0.96,5.33 0.3,4.29 0.6,8.53 0.8,12.75 0.4,8.4 0.5,16.74 0,24.98 -0.1,4.99 -0.1,10 -0.1,15.07 -0.4,24.69 -0.8,48.88 -1.2,73.22 -0.1,5.87 -0.2,11.74 -0.3,17.6 0,16.54 -0.2,33.79 -0.8,49.82 -0.1,6.26 -0.2,12.5 -0.2,18.74 -0.1,5.23 -0.11,10.46 -0.17,15.7 0.2,0.13 0.41,0.27 0.61,0.4 0.1,-5.37 0.16,-10.73 0.16,-16.1 0.1,-24.4 0.3,-45.12 0.7,-68.53 0.1,-5.87 0.2,-11.76 0.2,-17.6 0.1,-5.87 0.1,-11.68 0.2,-17.52 0.1,-5.87 0.2,-11.68 0.3,-17.52 0.2,-13.14 0.5,-26.34 0.8,-39.68 0,-4.56 0.1,-9.06 0.3,-13.54 1.3,-12.38 0.7,-24.99 -0.4,-37.74 -0.13,-1.41 -0.11,-3.11 0.1,-5.38 z m 83.9,-183.73 c 0.14,1.51 0.3,2.75 0.46,3.36 4.7,39.07 6,77.06 5.6,116.53 0.3,6.16 0.3,13.2 0.5,19.28 0.1,4.05 0.2,8.13 0.2,12.29 -2.52,27.11 -5.57,53.9 -7.72,80.4 v 31.91 c 1.85,-36.82 6.75,-72.74 8.72,-112.36 0,-4.11 0,-8.19 -0.1,-12.24 -0.2,-6.05 -0.2,-12.77 -0.4,-19.23 1,-39.49 -0.3,-80.95 -6.5,-116.39 -0.18,-0.64 -0.34,-1.94 -0.51,-3.55 z m 12.42,0 c 2.11,47.69 -0.35,102.79 -0.16,135.54 0.1,5.66 0.1,11.2 0.1,16.78 -0.88,6.59 -1.72,13.17 -2.51,19.74 0.84,-6.19 1.8,-12.39 2.91,-18.57 0.1,-4.43 0.2,-8.77 0.3,-13.15 0.3,-6.34 0.3,-12.1 0.5,-18.05 2.4,-29.21 2.31,-78.29 -0.56,-122.29 z m -2.57,172.06 c -1.2,8.76 -2.13,17.54 -2.88,26.32 0.86,-8.78 1.82,-17.55 2.88,-26.32 z m -2.88,26.32 c -3.97,40.46 -5.74,81.16 -3.71,123.66 -0.3,5.47 -0.7,11.98 -1.1,18.24 0,0.49 -0.1,1.55 -0.13,2.3 -1.12,12.46 -2.17,68.16 -2.67,119.3 0.4,-0.16 2.2,-0.85 5.59,-2.27 0.75,-54.7 1.41,-116.18 1.81,-126.5 0.2,-4.51 0.2,-10.13 0.3,-14.8 -6.6,-54.9 1.4,-106.61 8.3,-162 0.2,-5.62 0.4,-11.22 0.5,-16.9 2.12,-34.57 2.53,-90.72 -0.31,-139.41 h -1.49 c 2.61,43.49 2.27,93.1 0.4,122.77 -0.1,5.89 -0.2,11.6 -0.5,17.92 -0.1,4.32 -0.2,8.61 -0.4,12.99 -4.71,31.02 -7.6,60.27 -8.96,89.88 0.37,-15.08 1.09,-30.14 2.37,-45.18 z m 14.4,-198.38 c 2.45,48.44 2.55,101.7 -1.81,135.12 -0.2,6.18 -0.5,12.85 -0.8,18.88 -8.4,54.26 -10.9,106.05 -5.1,163.35 -0.5,5.47 -1,11.44 -1.6,16.88 -0.7,6.77 -1.5,29.07 -2,57.15 0,2.82 -0.1,5.73 -0.5,10.58 0.9,8.86 0.9,19.2 0.1,25.89 -0.2,2.62 -0.2,5.71 -0.3,8.8 -0.1,7.03 -0.12,14.1 -0.16,21.13 0.62,-0.27 1.08,-0.46 1.75,-0.76 0.1,-3.64 0.13,-7.27 0.21,-10.95 0,-3.18 0.1,-6.35 0.1,-9.52 1.16,-4.06 1.82,-8.13 2.17,-12.19 0.3,5.75 0.7,11.45 1.33,17.09 -0.15,0.43 -0.28,0.93 -0.4,1.45 0.4,-0.18 0.85,-0.34 1.33,-0.48 -0.25,0.67 -0.51,1.35 -0.83,2.02 -0.1,2.99 -0.2,5.95 -0.3,8.88 0,0.71 0,1.4 0,2.11 0.34,-0.16 0.63,-0.29 0.98,-0.45 0,-0.86 0,-1.7 0.1,-2.57 0.2,-3.06 0.3,-6.29 1.8,-7.01 3.5,-0.93 6,-0.93 8.7,-0.93 -10.4,-20.72 -15.6,-38.85 -9.3,-62.53 0.7,-2.83 1.2,-5.12 1.3,-6.7 1,-25.92 2.1,-46.37 3,-54.29 0.6,-5.92 1.2,-11.63 1.6,-17.33 -7.4,-50.37 -6.8,-95.28 -0.6,-146.75 0.2,-5.3 0.4,-10.61 0.5,-16.07 2.22,-29.56 2.9,-76.85 2.43,-122.08 0,-6.3 -0.1,-12.55 -0.13,-18.72 h -1.03 c 0.23,15.09 0.22,30.71 0.1,46.14 -0.2,-15.32 -0.65,-30.95 -1.32,-46.14 z m -7.01,442.9 c -0.26,0.12 -0.5,0.25 -0.7,0.39 0,2 0,4.01 -0.1,6.01 0.19,-2.35 0.38,-4.62 0.76,-6.4 z m -0.76,6.4 c -0.1,0.6 -0.1,1.18 -0.14,1.78 -0.1,1.61 -0.1,3.24 -0.1,4.86 0.1,0 0.1,0 0.14,-0.1 0,-0.87 0,-1.72 0,-2.59 0,-1.32 0,-2.65 0,-3.99 z m 19.67,-449.3 c -1.27,39.67 -1.39,82.5 -1.61,114.55 1.18,-33.29 1.7,-74.91 2.52,-114.55 z m -1.61,114.55 c -0.34,9.51 -0.73,18.37 -1.2,26.25 -0.2,6.21 -0.3,12.21 -0.4,18.23 v 12.03 c -0.2,4.29 -0.3,8.45 -0.3,12.64 -1.1,31.71 -3.4,62.77 9.1,83.57 0.8,5.1 0.9,10.46 0.7,15.44 -0.3,5.02 -0.8,9.81 -0.8,14.24 -0.7,5.65 -1.5,11.25 -2.6,16.77 -1,5.52 -2.2,10.96 -3.5,16.22 -0.7,5.54 -1.4,11.06 -2,16.58 -0.3,2.78 -0.5,5.52 -0.8,8.3 -0.2,2.74 -0.4,5.52 -0.6,8.26 -18.16,27.32 -11.54,57.57 9.88,80.35 1.12,-0.58 2.25,-1.17 3.4,-1.78 -17.45,-20.69 -33.11,-41.98 -16.67,-69.77 -1.58,3.1 -2.82,6.35 -3.7,9.7 0.93,-2.61 2.12,-5.24 3.62,-7.88 0.43,-0.88 0.88,-1.75 1.37,-2.64 2.35,-3.59 3.96,-6.35 5.01,-8.56 -1.26,1.44 -2.41,2.96 -3.46,4.54 -0.49,0.92 -1.05,1.91 -1.75,3.06 -0.38,0.59 -0.74,1.19 -1.09,1.78 0.85,-1.67 1.79,-3.28 2.84,-4.84 2,-3.78 2.37,-5.85 2.45,-7.61 0.1,-4.35 0.4,-8.75 0.7,-13.17 0.3,-4.43 0.7,-8.86 1.3,-13.36 1.5,-5.74 2.9,-11.47 4.2,-17.2 1.3,-5.74 2.4,-11.44 3.2,-17.1 3.7,-7.01 3.8,-20.82 2.1,-27.75 -1.4,-5.2 -2.8,-10.43 -4.2,-15.66 -10,-22.5 -7.8,-53.57 -7.2,-76.8 0,-3.89 -0.1,-7.78 -0.1,-11.68 v -11.7 c 0,-5.87 0.1,-12.59 0.3,-18.67 0.1,-6.44 0.15,-13.79 0.2,-21.79 z m 0.51,247.95 c 0.67,-0.77 1.38,-1.52 2.11,-2.25 0.93,-2.21 1.07,-3.75 1.18,-5.25 0.4,-5.3 0.9,-10.58 1.4,-15.84 2.72,-10.11 5.16,-20.91 6.86,-31.95 -1.54,8.3 -3.64,16.5 -6.06,24.41 -1.1,5.7 -1.9,11.33 -2.9,17.3 -0.3,2.72 -0.6,5.44 -0.9,8.19 -0.1,1.39 -0.6,3.09 -1.69,5.39 z m 11.55,-55.29 c 0.87,-4.7 1.57,-9.44 2.04,-14.18 0.27,-4.41 0.53,-8.51 0.58,-12.69 0.16,0.79 0.31,1.58 0.47,2.37 0,-1.25 0.1,-2.51 0.1,-3.76 -0.46,-1.9 -0.9,-3.78 -1.32,-5.65 0.13,1.34 0.23,2.69 0.3,4.06 -0.1,-0.22 -0.14,-0.43 -0.22,-0.65 0.1,0.45 0.18,0.9 0.27,1.35 0.1,2.21 0.12,4.47 0.1,6.76 -0.2,4.66 -0.6,9.36 -1.1,14 -0.32,2.81 -0.71,5.61 -1.14,8.39 z m 1.9,-30.5 c -0.37,-1.9 -0.73,-3.79 -1.06,-5.68 -0.8,-3.92 -1.4,-7.81 -2.1,-11.68 -0.1,-0.37 -0.1,-0.75 -0.15,-1.12 0.12,0.48 0.23,0.97 0.35,1.44 0.86,4.45 1.82,8.99 2.88,13.63 -0.1,-0.6 -0.11,-1.21 -0.18,-1.81 -0.4,-4.3 -1.1,-8.46 -1.9,-12.48 -0.76,-3.43 -1.57,-6.82 -2.4,-10.2 -2.63,-19.85 -5.11,-40.31 -5.7,-60.31 0,-3.73 -0.1,-7.47 -0.1,-11.23 -0.1,-7.46 0,-15.01 0.2,-22.53 0.2,-5.65 0.4,-11.86 0.6,-17.7 -0.1,-35.12 0.83,-87.84 2.94,-137.04 h -1.5 c -1.22,26.72 -1.98,54.43 -2.33,79.87 0,-17.58 0.11,-36.24 0.46,-54.97 -1.8,39.81 -2.42,80.18 -1.47,107.71 -0.2,5.84 -0.3,12.93 -0.5,18.56 0,2.95 -0.1,5.9 -0.15,8.85 0.1,-2.16 0.19,-4.31 0.25,-6.48 0.4,-5.73 0.7,-12.29 1.1,-18.18 0.1,-2.97 0.1,-6.15 0.13,-9.41 0,4.8 0.1,9.43 0.17,13.7 -0.2,5.71 -0.3,11.25 -0.4,16.8 -0.1,7.41 -0.1,14.82 0.1,22.26 0,3.74 0.1,7.55 0.2,11.31 0.62,17.44 1.56,34.28 3.73,49.58 -2.76,-11.26 -5.34,-22.61 -6.4,-34.84 0,21.67 3.49,44.08 10.27,62.35 0.9,3.17 1.87,6.37 2.96,9.6 z m -13.23,-71.95 c 0,-6.79 0.3,-13.52 0.97,-20.02 v -11.2 c 0,-4.48 0.1,-9 0.15,-13.52 -0.1,1.67 -0.16,3.34 -0.25,5.01 -0.1,3.84 -0.2,7.71 -0.3,11.58 -1.32,10.04 -1.34,19.32 -0.57,28.15 z m 3.24,-179.86 c 0.37,-8.38 0.81,-16.7 1.29,-24.9 h -0.66 c -0.28,8.2 -0.48,16.54 -0.63,24.9 z m 11.18,257.81 c 0,0.77 0,1.54 -0.1,2.31 0,-0.67 0.1,-1.38 0.13,-2.04 0,-0.1 0,-0.18 -0.1,-0.27 z m -0.1,2.31 c -0.26,4.21 -0.54,8.65 -0.97,13.13 -1.8,14.67 -4.8,29.68 -7.7,45.17 -0.78,4.06 -1.38,8.11 -1.89,12.15 0.1,-0.41 0.13,-0.81 0.19,-1.21 1,-6 2.3,-12.3 3,-17.6 3.1,-14.3 5.7,-28.56 7,-42.67 0.12,-3.08 0.26,-6.04 0.37,-8.97 z m -10.56,70.45 c -0.21,1.22 -0.56,2.56 -1.33,4.24 0.2,-0.19 0.4,-0.39 0.6,-0.58 -0.33,0.46 -0.66,0.92 -0.98,1.38 -0.66,1.28 -1.59,2.8 -2.88,4.6 0.77,-1.15 1.36,-2.16 1.84,-3.06 -0.76,1.16 -1.49,2.33 -2.17,3.52 -0.1,0.15 -0.18,0.27 -0.29,0.42 -2.02,2.59 -3.73,5.15 -5.17,7.71 -2.44,4.91 -4.02,9.66 -4.88,14.23 0.29,-2.14 0.7,-4.26 1.26,-6.35 -7.83,21.95 3.71,42.16 20.2,57.9 0.5,0.49 1,0.98 1.52,1.47 4.2,-2.24 8.65,-4.68 13.27,-7.29 -3.7,0.31 -7.3,0.15 -10.75,-0.78 -1.7,-0.74 -3.36,-1.57 -4.97,-2.54 -11.73,-9.73 -16.13,-24.7 -14.51,-39.38 2.57,-12.91 9.95,-25.18 19.12,-34.16 -9.64,8.77 -16.67,21.14 -19.09,33.87 1.81,-15.63 10.44,-30.87 24.39,-39.03 0,0 0.1,-0.1 0.1,-0.1 0.1,-0.58 0.16,-1.15 0.24,-1.72 -2.08,1.64 -4.19,3.55 -6.83,5.88 -13.15,11.53 -20.15,29.58 -18.88,46.6 -0.11,-3.21 0.11,-6.42 0.64,-9.61 -0.72,4.78 -0.79,9.57 -0.1,14.22 0.36,2.19 0.86,4.35 1.52,6.46 1.17,3.59 2.87,7.03 5.14,10.24 -0.53,-0.59 -1.05,-1.21 -1.56,-1.86 0.1,0.11 0.12,0.22 0.18,0.33 -0.22,-0.31 -0.44,-0.6 -0.66,-0.92 -12.9,-20.72 -7.8,-49.2 10.3,-66.96 0.3,-2.66 0.5,-5.22 0.7,-7.73 3.28,-11.11 5.6,-22.29 7.14,-33.49 -1.77,8.87 -4.41,18 -8.14,27.62 -0.6,4.46 -1.1,8.8 -1.6,13.36 -1.35,1.54 -2.6,3.12 -3.78,4.72 0.12,-1.07 0.25,-2.14 0.39,-3.21 z m 13.13,-42.49 c 1.36,-6.81 2.21,-13.46 2.64,-20.06 0.1,-5.41 0,-10.87 -0.1,-15.83 -1.32,-4.89 -2.56,-9.73 -3.69,-14.53 1.05,5.58 2.21,11.23 3.49,16.98 0,5.6 -0.2,11.2 -0.6,16.8 -0.39,5.55 -0.98,11.1 -1.74,16.64 z m -1.15,-50.42 c -1.14,-6.11 -2.15,-12.14 -2.99,-18.11 -0.6,-3.79 -1,-7.58 -1.5,-11.34 -0.84,-2.63 -1.35,-5.69 -1.69,-8.92 0.57,6.27 1.22,12.69 2.29,19.11 0.6,3.71 1.3,7.39 2.1,11.12 0.54,2.7 1.15,5.42 1.79,8.14 z m -6.18,-38.37 c -0.11,-1.23 -0.22,-2.44 -0.33,-3.66 0.1,1.24 0.2,2.46 0.33,3.66 z m -0.33,-3.66 c -0.33,-4.5 -0.48,-9.13 -0.88,-13.26 -0.4,-3.57 -0.8,-7.17 -1.1,-10.8 -1.2,-14.34 -1.1,-28.56 -0.5,-42.71 0.2,-5.31 0.5,-10.64 0.9,-16.11 -1.41,-34.77 -0.3,-88.34 2.64,-137.65 h -3.24 c -1.91,47.81 -0.16,101.56 -0.6,131.22 -0.4,5.74 -0.6,12.67 -0.9,18.22 -0.6,11.11 -0.8,22.26 -0.4,33.46 0.1,3.73 0.3,7.47 0.5,11.2 1.95,8.11 2.75,17.09 3.58,26.43 z m -10.48,200.63 c 0.15,0.21 0.32,0.39 0.48,0.59 -1.48,-2.68 -2.68,-5.48 -3.58,-8.38 -0.68,-2.11 -1.19,-4.27 -1.52,-6.46 -0.26,-1.52 -0.44,-3.06 -0.56,-4.61 0.24,6.42 1.83,12.82 5.18,18.86 z m 20.53,-71.34 c 0.45,-0.36 0.92,-0.7 1.38,-1.03 0.52,-2.55 1.01,-5.08 1.37,-7.57 0.86,-5.79 1.56,-11.54 2.14,-17.28 -1.16,5.25 -2.33,10.52 -3.34,15.92 -0.6,3.26 -1.1,6.6 -1.55,9.96 z m 4.89,-25.88 c 1.01,-4.51 2,-9.01 2.87,-13.53 -0.34,5.58 -0.86,11.2 -1.62,16.88 1,-6.8 1.75,-13.59 2.26,-20.39 1.39,-7.84 2.33,-15.81 2.25,-24.21 0,-4.86 -0.4,-9.87 -1.3,-15.04 -0.19,-0.66 -0.37,-1.32 -0.56,-1.97 0,-1 -0.1,-2.04 -0.14,-3.02 -3.6,-15.01 -6.4,-29.76 -7.8,-44.48 -0.7,-5.47 -1.1,-10.53 -1.4,-15.76 -0.29,-1.52 -0.55,-3.03 -0.78,-4.54 -0.33,-4.42 -0.99,-9.4 -1.33,-14.37 -0.11,-3.09 -0.12,-6.15 0,-9.19 0.1,-1.21 0.24,-2.41 0.46,-3.55 1.98,-11.47 3.88,-22.96 5.58,-34.4 0.8,-5.73 1.4,-11.89 1.9,-17.63 -1.45,-29.79 -4.28,-75.91 -4.26,-118.74 h -0.14 c -0.25,3.07 -0.49,6.1 -0.72,9.09 0,2.1 0,4.19 0,6.31 0,-1.53 -0.1,-3.06 -0.1,-4.59 -1.27,17.46 -1.88,33.07 -0.76,42.55 0.41,6.6 0.82,12.93 1.18,19.15 0.1,24.56 -0.18,47.44 -2.06,65.3 -0.5,5.01 -1,10 -1.3,15.01 -1.1,14.99 -1.2,30.05 0.9,45.65 0.4,5.5 0.78,10.96 1.48,16.86 1.1,14.98 3.4,30.26 6.8,46.16 0.19,1.78 0.35,3.55 0.52,5.32 0.14,4.1 0.24,8.19 0.38,12.46 -0.1,14.93 -0.73,29.74 -2.26,44.67 z m -4.88,-313.13 c 0,-0.57 0.1,-1.14 0.12,-1.72 0,-3.05 0,-6.08 0.1,-9.09 h -0.35 c 0,3.58 0.1,7.19 0.15,10.81 z m 6.13,316.48 c -0.87,5.88 -1.94,11.77 -3.23,17.67 0.58,-2.37 1.06,-4.72 1.54,-7.05 0.66,-3.57 1.22,-7.11 1.69,-10.62 z m -3.23,17.67 c -0.16,0.69 -0.35,1.38 -0.53,2.08 0.15,-0.45 0.27,-0.89 0.37,-1.32 0.1,-0.25 0.11,-0.51 0.16,-0.76 z m -0.53,2.08 c -0.15,0.46 -0.34,0.93 -0.58,1.42 0.1,-0.1 0.17,-0.12 0.25,-0.18 0.12,-0.42 0.22,-0.83 0.33,-1.24 z m -0.58,1.42 c -0.14,0.11 -0.28,0.22 -0.42,0.33 0,0.24 -0.1,0.48 -0.15,0.72 0.21,-0.36 0.41,-0.71 0.57,-1.05 z m -0.57,1.05 c -0.39,0.63 -0.87,1.3 -1.47,2.03 0,0 0,0 0,0.1 0,0 -0.1,0 -0.1,0 -0.58,0.69 -1.26,1.42 -2.09,2.22 -1.09,0.93 -2.16,1.92 -3.21,2.94 2.03,-1.84 4.16,-3.53 6.39,-5.02 0.17,-0.76 0.31,-1.51 0.48,-2.27 z m -19.5,12.54 c 0.34,-0.52 0.68,-1.03 1.04,-1.54 0.14,-0.28 0.26,-0.54 0.38,-0.8 -0.19,0.18 -0.38,0.36 -0.56,0.54 -0.23,0.55 -0.51,1.15 -0.86,1.8 z m 32.25,-362.05 c -0.11,34.92 1.04,73.53 2.77,92.9 0.1,5.98 0,11.76 -0.2,17.58 0,26 1.5,53.65 -5.7,81.49 -0.5,4.58 -0.8,9.22 -0.9,13.86 -0.39,13.66 0.85,27.7 3.43,42.25 0.25,4.75 0.57,9.53 0.97,14.34 0.1,5.76 0.2,11.49 0.3,17.23 0.18,10.71 0.34,21.4 0.37,32.05 -0.52,7.5 -1.08,14.98 -1.57,22.56 -0.24,2.99 -0.41,6.01 -0.58,9.05 0.33,-0.29 0.64,-0.58 0.98,-0.87 0.3,-4.32 0.6,-8.61 0.9,-12.88 0.1,-1.35 0.15,-2.68 0.23,-4.02 0,2.54 -0.1,5.08 -0.13,7.62 0,3.52 -0.1,7.04 -0.3,10.56 -1.9,2.14 -4,4.19 -7,6.48 -0.93,0.46 -1.85,0.97 -2.75,1.5 -0.78,0.6 -1.55,1.21 -2.45,1.89 -2.83,1.95 -5.46,4.18 -7.87,6.61 1.61,-1.75 3.33,-3.38 5.17,-4.85 0.48,-0.44 0.98,-0.87 1.47,-1.3 -11.88,8.37 -20.73,22.08 -22.41,36.3 -0.89,5.92 -0.68,11.99 0.76,17.85 1.09,3.25 2.86,6.27 5.09,8.93 1.47,2.31 3.23,4.53 5.31,6.62 7.97,7.99 14.95,7.93 21.82,4.92 -0.37,0.1 -0.75,0.18 -1.14,0.25 -3.6,0.4 -6.88,0.1 -9.86,-0.88 -3.1,-0.34 -6.12,-1.6 -9.01,-4.21 2.02,1.53 4.03,2.5 6.05,3.02 -1.02,-0.5 -1.99,-1.06 -2.91,-1.7 1.97,0.96 4.02,1.69 6.1,2.16 4.69,0.18 9.38,-1.72 14.07,-4.16 -8.93,0.72 -17.87,0.11 -25.12,-7.16 -9.09,-10.63 -10.19,-24.81 -6.01,-37.56 0.83,-2.13 1.8,-4.21 2.9,-6.24 3.11,-5.24 7.12,-10.06 11.78,-14.37 -1.12,0.81 -2.21,1.65 -3.25,2.54 3.53,-3.78 7.56,-7.09 11.96,-9.73 3.4,-2.72 5.87,-4.98 8.21,-7.09 -0.18,0.82 -0.42,1.65 -0.81,2.5 -0.1,0.15 -0.18,0.31 -0.28,0.46 0.53,-0.29 1.05,-0.58 1.58,-0.86 0,-0.87 0.1,-1.75 0.1,-2.62 0.22,-0.2 0.48,-0.43 0.7,-0.63 0.2,-4.48 0.4,-8.96 0.5,-13.41 0.8,-22.32 0.8,-44.45 0.8,-66.4 -0.1,-5.87 -0.1,-11.71 -0.1,-17.52 -2.5,-22.24 -0.3,-46.4 2.1,-66.51 0.5,-4.8 1.1,-9.6 1.7,-14.37 0.33,-3.26 0.51,-6.43 0.6,-9.55 v -9.44 c -0.36,-13.12 -1.94,-25.71 -1.8,-39.99 0.1,-5.34 0.1,-10.67 0.2,-16 0.4,-25.2 -2.9,-52.88 -0.4,-77.31 0,-0.86 0,-8.43 0,-11.89 h -2.41 c 0,3.3 -0.1,5.95 -0.12,7.98 0,-2.54 0.1,-4.22 0.1,-7.98 z m 0.39,346.5 c -5.76,3.17 -11.12,6.98 -15.83,11.32 1.92,-1.37 3.96,-2.62 6.11,-3.7 5.22,-3.03 8.42,-5.48 9.72,-7.62 z m 0.62,76.65 c 0.97,-0.1 1.93,-0.17 2.89,-0.27 0.62,-0.35 1.23,-0.7 1.85,-1.07 -0.24,0.32 -0.46,0.63 -0.68,0.94 0.52,-0.1 1.04,-0.12 1.56,-0.18 0.61,-0.71 1.18,-1.46 1.74,-2.21 v -1.79 c -0.31,0.35 -0.61,0.69 -0.9,1.04 -2.15,1.2 -4.31,2.42 -6.46,3.54 z m 5.62,-0.58 c -0.77,0.92 -1.6,1.77 -2.47,2.55 1.38,-0.87 2.79,-1.8 4.19,-2.74 -0.57,0.1 -1.14,0.13 -1.72,0.19 z m 1.72,-0.19 c 0,0 0,0 0,0 v 0 c 0,0 0,0 0,0 z m -4.19,2.74 c -2.16,1.37 -4.3,2.61 -6.45,3.55 2.52,-0.64 4.62,-1.91 6.45,-3.55 z m 0.91,-2.37 c -0.39,0 -0.78,0.1 -1.17,0.13 -4.17,2.39 -8.39,4.36 -12.53,5.02 4.61,0.17 9.14,-1.07 13,-4.15 0.22,-0.33 0.46,-0.67 0.7,-1 z m -13.7,5.15 c -1.47,-0.1 -2.96,-0.26 -4.43,-0.59 -1.06,0 -2.13,-0.19 -3.19,-0.46 0.95,0.46 1.93,0.87 2.96,1.19 1.54,0.17 3.1,0.11 4.66,-0.14 z m -4.23,-73.85 c 1.2,-0.84 2.43,-1.62 3.68,-2.35 3.27,-2.56 5.61,-4.52 7.95,-6.14 0,-0.75 0.1,-1.5 0.12,-2.25 -1.89,1.69 -3.6,3.39 -5.22,5.05 -1.74,1.7 -4.16,3.63 -6.53,5.69 z m 96.46,-354.05 c 0.52,9.59 1.03,19.1 1.52,28.25 0.26,12.82 0.52,25.97 0.77,39.41 -0.2,-3.87 -1.05,-19.88 -1.58,-29.98 0.74,28.92 1.45,59.89 2.03,90.2 -0.6,22.59 -1.18,51.05 -1.73,79.23 -0.3,-24.39 -0.73,-51.51 -1.24,-79.57 v 70.81 c 0.25,17.94 0.4,34.17 0.46,48.57 -0.16,7.8 -0.32,16.05 -0.46,22.64 v 84.91 c 0.24,4.74 0.5,9.49 0.76,14.24 1.32,-1.14 2.65,-2.28 3.96,-3.44 -0.76,-16.32 -1.44,-32.62 -1.19,-48.93 0.1,-4.56 0.2,-9.12 0.4,-14 0.26,-5.92 0.68,-23.02 1.15,-45.05 0.13,21.5 0.1,37.13 -0.15,42.87 -0.1,4.8 -0.3,10.16 -0.5,14.05 0,16.99 0.53,33.74 0.96,50.47 0.28,-0.25 0.56,-0.51 0.84,-0.76 -0.44,-18.26 -0.8,-36.52 -0.4,-54.83 0.7,-5.81 1.6,-169.82 2,-175.52 0.34,-4.91 0.32,-14.25 0.1,-26.12 0.23,-13.61 0.46,-27.51 0.52,-31.88 -0.23,-4.2 -2.23,-38.89 -4.39,-75.57 z m 0.71,37.68 c -0.31,-12.03 -0.63,-23.54 -0.94,-34.64 v 16.92 c 0.39,7.35 0.62,11.75 0.94,17.72 z m 8.21,-37.68 c 1.86,87.87 4.61,205.47 5.94,264.42 0.22,-50.68 0.47,-127.54 0.54,-131.45 0.1,-9.2 -0.83,-34.19 -2.09,-63.92 -0.97,-21.58 -2.07,-45.22 -3.16,-69.05 z m 4.39,69.05 c 1.32,29.29 2.36,53.93 2.49,63.92 0.1,5.12 -0.17,153.11 -0.19,168.47 0,-0.94 0,-1.89 0,-2.8 -0.1,-4.95 -0.37,-17.95 -0.74,-34.22 -0.1,23.15 -0.2,42.13 -0.26,43.92 -1.3,16.77 -2,33.43 -2.4,49.99 0.26,-0.24 0.53,-0.49 0.79,-0.73 0.1,-3.31 0.2,-6.62 0.33,-9.92 -0.1,3.23 -0.1,6.48 -0.12,9.73 0.75,-0.69 1.51,-1.39 2.26,-2.1 0.93,-12.63 1.83,-25.37 2.13,-38.83 -1.28,12.57 -2.2,24.79 -2.89,36.85 0.15,-13.57 0.65,-27.04 1.8,-40.32 -0.1,-4.91 0.3,-169.74 0.3,-175.84 -0.17,-16.62 -3.14,-80.04 -5.69,-137.17 h -0.85 c 1.07,23.58 2.13,47.33 3.05,69.05 z m 4.28,247.43 c 0.26,-2.51 0.53,-5.04 0.81,-7.58 0,-5.33 0.3,-168.83 0.1,-174.13 -0.19,-6.67 -0.88,-20.7 -1.77,-37.58 0.67,16.83 1.19,30.83 1.27,37.48 0,5.2 -0.3,168.69 -0.3,174.02 0,2.63 -0.1,5.22 -0.11,7.79 z m -0.86,-219.29 c -1.07,-26.92 -2.63,-62.3 -4.11,-97.19 h -1.16 c 1.89,34.87 3.86,70.25 5.27,97.19 z m 0.68,-97.19 c 1.64,64.74 4.33,145.74 7.09,209.2 -0.71,-18.88 -1.43,-39.37 -2.14,-60.83 0.8,21.23 1.62,41.49 2.45,60.2 0.43,11.84 0.82,22.77 1.19,33.1 0.47,9.52 0.94,18.58 1.4,26.53 -0.37,-8.77 -0.77,-18.64 -1.18,-29.66 1.58,31.7 3.1,55.42 4.38,63.35 0,2.15 0,4.41 -0.1,6.66 0.1,0.39 0.11,0.8 0.16,1.13 0,1.68 0,3.41 -0.1,5.16 -0.1,-0.57 -0.14,-1.14 -0.21,-1.71 -0.1,1.47 -0.1,2.87 -0.1,4.22 0.1,-0.44 0.17,-0.88 0.27,-1.32 -0.11,3.22 -0.29,6.56 -0.59,10.07 -0.56,4.66 -1.33,9.2 -2.2,13.66 1.1,-4.18 2.35,-8.4 3.8,-12.67 0.5,-5.41 0.8,-10.32 0.9,-15.17 -3.17,-25.9 -9.89,-195.89 -13.25,-311.92 z m 10.39,339.76 c -0.43,1.62 -0.83,3.23 -1.21,4.84 0.1,-0.1 0.19,-0.19 0.28,-0.29 0.32,-1.51 0.63,-3.02 0.93,-4.55 z m 2.52,-22.41 c 0,0.11 0,0.22 -0.1,0.33 0,0.15 0,0.31 0.1,0.46 0,-0.25 0,-0.53 0,-0.79 z m 0,0.79 c 0,0.17 0,0.36 0,0.52 -0.31,1.08 -0.59,2.16 -0.88,3.25 0.27,-1.41 0.55,-2.82 0.83,-4.23 -0.49,-4.19 -0.78,-9.12 -1.05,-13.82 -0.1,-0.63 -0.11,-1.56 -0.17,-2.37 0,-0.1 0,-0.19 0,-0.29 -0.56,-4.93 -1.27,-17.04 -2.05,-33.24 0.67,18.42 1.19,33.48 1.35,39.58 0,6.16 0,11.9 -0.2,17.66 -2.2,7.58 -3.83,15.19 -5.02,22.85 0.89,-0.86 1.78,-1.74 2.67,-2.62 0.91,-7.35 2.04,-14.74 3.43,-22.21 0.39,-1.41 0.79,-2.83 1.22,-4.26 0,-0.26 -0.1,-0.55 -0.1,-0.82 z m -3.36,-50.18 c -0.28,-7.94 -0.6,-16.66 -0.95,-26.29 -0.5,-10.16 -1,-20.93 -1.5,-32.47 0.86,22.9 1.69,42.94 2.45,58.76 z m 2.08,33.53 c 0.41,3.91 0.89,7.78 1.38,11.64 0,-1.5 0.1,-3.03 0.13,-4.58 -0.96,-6.62 -2.03,-20.95 -3.14,-40.35 0.64,15.28 1.21,27.13 1.63,33.29 z m 3.57,-301.49 c 0.35,20.2 0.82,41.36 1.4,62.87 l 1.2,39.6 c 0.5,13.2 0.9,26.6 1.4,39.2 0.5,12.6 1,25.2 1.5,37.2 2.7,60.44 5.7,109.55 8.2,124.59 0.1,5.1 -0.2,10.24 -0.7,15.42 -0.15,1.56 -0.33,3.13 -0.52,4.7 0,0 0,-0.1 0,-0.12 0.46,-3.15 0.91,-6.31 1.35,-9.48 -0.15,2.91 -0.33,5.81 -0.55,8.71 0,0.57 -0.1,1.14 -0.11,1.7 0.5,-0.56 1.01,-1.11 1.51,-1.68 0.32,-3.44 0.61,-6.87 0.8,-10.31 0.2,-2.75 0.3,-45.02 0.4,-87.33 v -40.8 c 0.88,-9.67 0.76,-19.03 0.17,-28.22 -0.3,-8.44 -1.16,-16.69 -2.22,-24.8 0.1,1.45 0.19,2.91 0.26,4.37 -0.59,-5.03 -1.18,-10.04 -1.75,-15.05 -0.27,-1.85 -0.54,-3.69 -0.81,-5.52 0.13,0.58 0.26,1.16 0.38,1.74 -0.81,-7.51 -1.45,-15.02 -1.63,-22.62 -0.9,-9.4 -1.7,-19.6 -2.5,-30.3 -1.51,-19.95 -2.82,-41.84 -3.8,-63.87 h -0.38 c 1.3,30.53 3.21,60.97 5.28,85.67 0.84,9.55 1.43,18.61 2.24,26.54 -1.04,-7.17 -2.01,-14.27 -2.64,-21.34 -0.9,-9.2 -1.7,-19.4 -2.4,-30.2 -1.33,-18.87 -2.4,-39.65 -3.2,-60.67 z m 11.93,116.79 c 0.13,1.26 0.29,2.52 0.43,3.78 0.52,3.54 1.02,7.09 1.49,10.68 -0.36,-4.91 -0.96,-9.75 -1.92,-14.46 z m 0.55,206.79 c -0.12,0.67 -0.24,1.34 -0.37,2.02 0,-0.1 0.1,-0.1 0.13,-0.14 0.1,-0.63 0.16,-1.25 0.24,-1.88 z m -3.87,-323.58 c 0.74,18.62 1.67,37.2 2.69,54.47 0.7,11.9 1.4,23.2 2.2,33.4 0.1,31 7.89,59.4 4.29,91.4 0.1,12.4 0.1,26.3 0.1,40.25 v 85.68 c 0,4.7 -0.1,9.43 -0.27,14.18 0.58,-0.67 1.16,-1.33 1.74,-2 0.44,-6.45 0.69,-12.89 0.63,-19.3 -0.1,-3.2 -0.1,-45.97 -0.3,-88.71 0,-14.2 -0.1,-28.5 0.2,-40.6 -1.1,-21.5 1.5,-42.2 -3.39,-63.5 -0.7,-7.5 -1,-16.5 -1.7,-26.1 -1.51,-22.44 -2.79,-50.57 -3.72,-79.17 z m 16.19,0 c 1.24,24.15 2.58,50.28 3.29,64.47 0.3,7.6 0.5,12.6 0.5,13.5 -4.6,33.1 3.2,69.3 0,103.8 -0.5,10.5 -0.7,22.3 -0.8,34.18 -0.44,32.6 -1.09,66.54 -1.75,93.45 0.85,-1.03 1.71,-2.07 2.55,-3.12 0.64,-21.76 1.19,-48.6 1.6,-75.51 0.2,-13.25 0.4,-26.5 0.5,-39.2 3.6,-39.1 -1.5,-75.3 -0.5,-113.5 0,-1 -0.2,-5.9 -0.7,-13.6 -0.77,-14.68 -2.13,-39.46 -3.52,-64.47 z m 3.24,0 c 1.25,22.69 2.6,47.4 3.35,60.57 0.4,7.4 0.7,12.1 0.7,12.7 -0.1,8 0.1,16.04 0.36,24.11 0.1,-5.01 0.39,-10.08 1.04,-15.21 0.2,-7.1 -0.2,-15.8 -0.7,-25.9 -0.83,-16.63 -1.88,-36.5 -2.94,-56.27 z m 4.41,97.38 c -0.13,7.81 0.3,15.5 0.93,23.15 -0.35,-7.73 -0.69,-15.45 -0.93,-23.15 z m 0.93,23.15 c 1.14,25.08 2.35,50.29 0.51,75.24 -0.2,12.7 -0.5,26.15 -0.9,39.56 -0.63,23.98 -1.41,47.77 -2.23,68.23 0.42,-0.53 0.84,-1.07 1.26,-1.6 0.95,-25.79 1.82,-56.88 2.37,-86.57 0.3,-11.92 0.5,-23.62 1.3,-34.22 2.34,-20.85 -0.65,-40.6 -2.31,-60.64 z m 2.25,-120.53 c 0.58,11.27 1.15,22.77 1.66,33.97 0.6,12.6 1.1,24.7 1.6,35.6 -0.63,13.87 -0.29,27.74 0.31,41.62 -0.4,-12.54 -0.4,-25.09 0.69,-37.82 0.2,-11 -0.3,-23.1 -0.8,-35.5 -0.53,-12.48 -1.11,-25.39 -1.71,-37.87 z m 3.57,111.19 c 0.37,11.54 1.07,23.1 1.61,34.76 -0.44,-11.61 -1.11,-23.19 -1.61,-34.76 z m 1.61,34.76 c 0.71,18.7 0.82,37.46 -1.42,56.32 -0.2,11.57 -0.4,23.76 -0.6,35.97 -0.33,19.9 -0.71,39.13 -1.11,56.35 0.46,-0.61 0.91,-1.23 1.37,-1.85 0.38,-22.82 0.74,-51.41 1.04,-78.15 0.2,-13.22 0.6,-25.72 1.4,-36.52 0.18,-10.88 -0.19,-21.55 -0.68,-32.12 z m -298.64,-132.21 c -0.1,1.21 -0.15,2.43 -0.2,3.62 -2.3,19.12 -2.7,94.4 -2.5,114.29 0.1,4.96 0.2,9.94 0.3,14.9 0.1,3.28 0.1,6.48 0.2,9.87 0.1,3.39 0.1,6.77 0.1,10.16 0.1,13.57 -0.1,27.57 -0.2,41.97 -0.1,6.11 -0.3,12.16 -0.5,18.19 0,5.81 -0.1,11.65 -0.2,17.55 -0.1,5.84 -0.1,11.73 -0.2,17.62 -0.2,14.32 -0.3,29.28 -0.5,44 0.1,5.12 0,10.11 0.1,15.04 1.3,28.35 -0.9,55.95 -1.8,82.08 -0.29,5.81 -0.39,11.48 -0.39,17.12 0.86,0.54 1.72,1.07 2.58,1.6 1.08,-16.82 2.34,-33.04 3.21,-49.09 v -64.23 c -0.1,-1.36 -0.19,-2.72 -0.3,-4.09 -0.1,-4.91 -0.3,-9.82 -0.4,-14.75 -0.3,-9.86 -0.5,-19.92 -0.4,-30.4 0.1,-4.96 0.2,-9.97 0.4,-15.01 0.1,-5.04 0.2,-10.11 0.3,-15.23 l 0.4,-12.34 v -55.91 c -0.14,-1.56 -0.26,-3.07 -0.3,-4.49 -0.1,-5.63 -0.1,-11.15 0.1,-16.67 0.1,-1.21 0.13,-3.14 0.2,-4.65 z m -186.834,7.08 c -6.391,36.75 -6.717,73.77 -5.02,110.38 -2.474,-37.28 -3.578,-74.37 5.02,-110.38 z m 330.514,6.17 c -0.28,7.17 0.1,14.3 0.68,21.39 0,-6.76 0.25,-13.48 0.72,-20.24 -0.13,13.05 0.69,26.71 1.19,40.16 0.79,8.68 1.3,17.28 0.73,25.75 -0.1,5.69 -0.19,11.39 -0.28,17.06 0,0.76 0,1.52 0,2.28 0.1,1.53 0.19,3.06 0.28,4.59 -0.1,-0.71 -0.14,-1.41 -0.22,-2.12 0,1.15 0.1,2.29 0.1,3.44 -0.18,3.03 -0.32,6.25 -0.44,9.56 -0.21,-4.69 -0.69,-9.34 -1.66,-13.74 -0.3,-5.68 -0.3,-11.92 0,-17.82 0.26,-22.7 -3.52,-46.3 -1.12,-70.31 z m 3.15,88.87 c 0,-0.83 0,-1.65 -0.1,-2.47 0,-0.41 0,-0.81 -0.1,-1.21 0,-0.35 0,-0.71 0,-1.07 -0.1,-2.27 -0.13,-4.55 -0.22,-6.82 0,-4.99 0,-10.16 0.1,-15.15 0.11,-6.8 -0.1,-13.8 -0.33,-20.84 -0.6,-6.59 -1.35,-13.23 -1.91,-19.92 0,11.61 0.67,23.36 2.04,35.7 0.1,5.33 0.1,10.66 0,15.97 0,5.33 0,10.56 0.4,15.57 0,0.1 0,0.16 0,0.24 z m -46.32,-48.64 c -0.1,28.51 -0.67,54.78 -2.09,74.08 -0.2,5.98 -0.5,11.95 -0.7,17.25 -9.6,49.74 -8.3,94.67 -0.7,143.52 -0.3,6.16 -0.8,12.32 -1.3,18.72 -0.9,8.24 -2,28.69 -2.9,54.56 -0.1,2.67 -0.3,5.41 -2,11.44 -1.26,2.47 -2.03,4.98 -2.46,7.51 0,-0.19 0,-0.39 -0.1,-0.59 -0.1,0.49 -0.11,0.78 -0.19,1.29 0,0.22 0,0.44 0,0.67 -0.47,3.97 -0.13,7.99 0.55,12.02 0.1,1.66 0.13,3.3 0.19,4.95 -1.91,-6.66 -2.83,-13.25 -0.66,-20.04 0,-0.52 -0.1,-1.05 -0.11,-1.57 0.4,-3.87 0.5,-6.83 0.6,-9.71 0.8,-28.34 1.8,-50.9 2.7,-58.02 0.41,-4.15 0.76,-8.21 1.09,-12.34 0.23,3.27 0.47,6.53 0.71,9.78 -0.4,5.73 -0.9,11.38 -1.3,17.06 -0.4,4.27 -0.7,14.08 -1.1,27.39 -0.1,4.43 -0.2,9.25 -0.3,14.4 -0.56,3.08 -1.11,6.89 -1.84,11.71 0.35,-0.94 0.76,-1.88 1.24,-2.83 1.3,-5.87 1.4,-8.91 1.6,-11.89 0.9,-25.76 2,-46.08 2.8,-53.95 0.6,-6.03 1.1,-11.81 1.4,-17.71 -5.91,-48.47 -7.42,-90.99 0.24,-139.55 0,-0.1 0,-0.15 0.1,-0.23 0,-0.1 0,-0.12 0,-0.18 0.2,-1.23 0.4,-2.48 0.61,-3.73 -0.19,1.02 -0.38,2.04 -0.57,3.06 0.27,-3.67 0.46,-7.53 0.55,-11.04 0.2,-5.76 0.5,-12.16 0.6,-18.05 0.47,-4.48 0.88,-9.45 1.23,-14.77 -0.17,7.42 -0.33,14.45 -0.43,20.55 -0.1,5.26 -0.37,10.41 -0.57,15.56 0.1,-0.32 0.11,-0.64 0.17,-0.97 0.3,-5.39 0.4,-10.75 0.6,-16.29 0.89,-18.34 1.78,-44.13 2.29,-72.06 z m -3.06,89.32 c -0.28,1.57 -0.55,3.14 -0.81,4.69 0.25,-1.32 0.51,-2.65 0.78,-3.98 0,-0.23 0,-0.47 0,-0.71 z m -8.77,234.76 c -0.16,0.44 -0.31,0.87 -0.45,1.3 0,0.37 0.1,0.74 0.1,1.11 0.14,-0.91 0.25,-1.58 0.37,-2.41 z m -150.36,-315.88 c 0.13,1.34 0.26,2.71 0.38,4.08 -0.12,-1.41 -0.25,-2.71 -0.38,-4.08 z m -13.32,3.96 v 10.05 c 0.57,-0.44 1.13,-0.88 1.7,-1.3 -0.55,-3.08 -1.1,-6 -1.7,-8.75 z m 41.18,18.26 c 0,0.53 -0.1,1.05 -0.1,1.58 -1.23,0.32 -2.67,0.62 -4.18,0.93 1.97,-0.55 3.32,-1.42 4.26,-2.51 z m 108.82,36.94 v 37.59 c 0.35,-7.55 0.58,-15.09 0.62,-22.63 -0.1,-4.45 -0.3,-8.9 -0.5,-13.36 0,-0.53 -0.1,-1.07 -0.12,-1.6 z m -130.2,1.76 c -7.44,0 -14.04,6.87 -19.8,11.22 v 1.35 c 0.1,0 0.12,-0.1 0.19,-0.12 8.19,-6.52 14.55,-15.37 27.41,-9.86 0.19,0.1 0.37,0.18 0.55,0.27 0.55,0.1 1.1,0.21 1.64,0.36 -3.14,-1.53 -6.49,-2.64 -9.99,-3.22 z m 9.99,3.22 c 0.82,0.4 1.62,0.83 2.41,1.28 2.82,1.26 5.6,3.17 8.3,5.88 -3.37,-3.94 -6.98,-6.17 -10.71,-7.16 z m 10.71,7.16 c 1.47,1.67 2.73,3.4 3.84,5.16 0.99,1.38 1.9,2.83 2.7,4.33 -1.65,-3.27 -3.8,-6.45 -6.54,-9.49 z m 6.54,9.49 c 3.11,6.16 4.39,12.63 4.23,19.04 0.1,-2.52 0,-5.13 -0.37,-7.82 -0.66,-3.95 -1.99,-7.73 -3.86,-11.22 z m 4.23,19.04 c 0,0.48 0,0.96 -0.1,1.44 0,-0.48 0.1,-0.96 0.1,-1.44 z m -0.1,1.44 c 0,0.1 0,0.12 0,0.19 0,-0.1 0,-0.13 0,-0.19 z m 0,0.19 c -1.08,15.69 -10.1,28.31 -22.9,40 12.45,-9.21 21.9,-24.34 22.9,-40 z m -22.9,40 c -0.34,0.26 -0.68,0.51 -1.03,0.75 -0.12,0.1 -0.24,0.21 -0.36,0.31 -3.05,2.94 -4.26,5.3 -5.32,7.59 0,-0.57 0,-1.1 0,-1.67 0.84,-1.55 2.28,-3.28 4.31,-5.31 -0.1,0.1 -0.2,0.14 -0.3,0.21 1.05,-1.06 2.09,-2.14 3.11,-3.25 0.33,-0.24 0.65,-0.49 0.97,-0.74 -0.28,0.2 -0.55,0.4 -0.82,0.59 4.62,-5.02 8.81,-10.53 12.15,-16.39 -6.13,9.99 -15.31,18.51 -25.32,23.45 -0.1,4.61 -0.2,9.12 -0.3,13.49 -0.4,13.12 -1.2,25.07 -2.3,35.12 -0.6,5.42 -1.2,10.8 -1.9,16.19 -2.1,16.16 -4.6,32.32 -6,48.08 -0.4,11.41 0.4,22.42 2.8,33.38 0.19,2.63 0.36,5.25 0.5,7.85 0.73,0.6 1.45,1.19 2.18,1.78 0,-0.72 0,-1.44 -0.1,-2.16 -0.43,-4.47 -0.76,-8.91 -0.98,-13.37 0.57,4.62 1.2,9.2 1.88,13.48 0.1,0.93 0.1,1.87 0.11,2.81 1.33,1.08 2.65,2.15 3.98,3.2 -0.28,-4.6 -0.64,-9.29 -1.19,-14.15 -0.3,-30.69 1.2,-59.78 5.2,-88.58 0.9,-6.4 1.8,-12.24 2.7,-17.81 0.2,-10.27 0.2,-22.35 0.2,-35.6 0.2,-2.27 0.8,-4.67 4.7,-8.24 0.37,-0.33 0.73,-0.67 1.09,-1.01 z m 12.73,-17.91 c 4.42,-7.2 7.25,-15.18 7.63,-23.14 -0.1,2.35 -0.3,4.72 -0.68,7.06 -1.5,7.3 -4.51,14.5 -8.62,20.93 2.34,-3.44 4.39,-7.11 6.07,-10.92 -0.57,1.59 -1.23,3.14 -1.94,4.66 1.47,-2.9 2.69,-5.92 3.65,-9.01 4.26,-12.13 4.39,-25.25 -2.79,-36.67 -3.22,-4.47 -7.37,-8.27 -12.14,-11.04 -0.94,-0.42 -1.89,-0.77 -2.84,-1.04 2.56,1.32 4.83,2.81 6.85,4.45 -3.07,-2.21 -6.71,-4 -10.96,-5.24 -0.34,0 -0.68,-0.1 -1.03,-0.1 0.23,0 0.46,0 0.69,0 -1.9,-0.26 -3.65,-0.2 -5.29,0.1 -0.79,-0.1 -1.6,-0.1 -2.42,-0.1 -2.38,0.6 -4.33,1.62 -6.05,2.89 -3.71,1.71 -7.3,4.08 -10.68,6.79 2.76,-1.78 5.67,-3.56 8.67,-5.11 -1.9,1.79 -3.52,3.87 -5.15,5.94 0.4,-0.14 0.8,-0.28 1.2,-0.43 -1.77,1.98 -3.47,3.95 -5.19,5.68 16.42,-9.18 34.78,-16.95 45.7,4.96 1.61,3.6 2.53,7.33 2.86,11.1 0,0.15 0,0.3 0,0.45 0,0.17 0,0.35 0,0.52 0,0.96 0,1.91 0,2.87 0,-0.12 0,-0.24 0,-0.36 0,0.53 0,1.06 0,1.59 0,-0.41 0,-0.82 0,-1.23 -0.4,8.48 -3.28,16.72 -7.65,24.38 z m -37.03,-49.53 c -1.34,0.49 -2.67,0.96 -3.99,1.36 v 3.31 c 1.43,-1.45 2.72,-3.05 3.99,-4.67 z m -3.52,-0.83 c -0.1,0.1 -0.19,0.12 -0.28,0.18 -0.1,0 -0.13,0.1 -0.19,0.14 v 0.1 c 0.16,-0.12 0.31,-0.25 0.47,-0.37 z m 24.44,-9.69 c 0,0 0.1,0 0.1,0 0.1,0 0.17,0.1 0.25,0.1 1.37,0.12 2.75,0.39 4.11,0.79 -0.39,-0.21 -0.8,-0.41 -1.21,-0.6 -1.07,-0.19 -2.15,-0.28 -3.24,-0.28 z m 18.57,58.64 c -2.26,4.45 -5.08,8.58 -8.39,12.17 1.53,-1.87 2.94,-3.85 4.26,-5.91 -1.87,2.76 -3.91,5.37 -6.08,7.78 -1.09,1.06 -2.21,2.09 -3.39,3.02 0.79,-0.58 1.55,-1.19 2.29,-1.83 -0.12,0.13 -0.24,0.27 -0.37,0.4 -2.36,2.02 -4.3,3.78 -5.89,5.36 0.45,-0.3 0.9,-0.6 1.35,-0.92 2.22,-1.83 4.33,-3.88 6.28,-6.09 4.14,-3.93 7.47,-8.72 9.94,-13.98 z m -6.08,-51.13 c 2.99,2.18 5.78,5.58 8.3,10.63 -2.03,-4.04 -4.85,-7.68 -8.3,-10.63 z m -15,0.29 c -10.42,1.73 -15.01,15.16 -22.4,20.64 v 4.84 c 2.79,-1.27 5.57,-2.89 8.31,-4.71 -0.57,0.76 -1.15,1.51 -1.75,2.21 0.89,-0.89 1.76,-1.84 2.64,-2.8 5.57,-3.8 10.95,-8.37 15.8,-12.43 5.2,-5.17 15.5,7.79 18.1,18.14 2.6,20.72 -12.9,38.85 -33.6,46.61 -5.2,2.59 -7.8,5.17 -6,10.4 0,4.32 0,8.64 0.1,12.88 0,4.27 0,8.48 0.2,12.64 -0.1,5.11 -0.29,10.2 -0.58,15.29 -0.89,7.36 -2.06,14.69 -3.22,22.06 v 17.11 c 0.11,-0.93 0.21,-1.86 0.32,-2.79 -0.1,1.06 -0.21,2.1 -0.32,3.15 v 17.53 c 2.11,-18.25 5.07,-36.65 6.5,-55.2 0.4,-5.18 0.8,-10.75 1,-16.06 -0.2,-8.21 -0.2,-18.24 -0.2,-29.44 1.8,-2.37 3.6,-4.77 8,-7.54 8.6,-3.95 16.19,-10.91 21.43,-19.29 -7.35,10.55 -19.29,18.3 -30.56,24.78 0,-0.14 0,-0.28 0,-0.43 13.95,-6.74 27.69,-18.49 34.26,-31.51 1.43,-3.36 2.5,-6.84 3.11,-10.39 -0.25,2.2 -0.71,4.3 -1.32,6.33 1.94,-5.12 2.72,-10.37 1.88,-15.54 -0.34,-6.43 -2.28,-12.82 -6.23,-18.72 -2.5,-2.59 -10.3,-7.76 -15.5,-7.76 z m 19.85,42.02 c -0.52,1.36 -1.11,2.72 -1.79,4.06 -1.05,2.47 -2.3,4.87 -3.73,7.16 2.38,-3.43 4.29,-7.15 5.52,-11.22 z m -9.72,-34.99 c 3.38,2.2 6.47,6.32 8.54,10.71 -1.41,-2.53 -3.28,-5 -5.67,-7.4 -1.01,-1.29 -1.96,-2.37 -2.87,-3.31 z m -2.5,5.4 c -1.62,-0.1 -3.32,0.82 -5.03,3.08 0,0 0,0 0,0 -3.27,-1.08 -6.14,2.44 -9.65,6.65 3.05,-2.58 6.02,-4.9 9.04,-6.05 -3.69,3.62 -7.79,6.93 -12.11,9.6 -1.61,1.75 -3.37,3.43 -5.38,4.81 8.93,-5.72 16.11,-14.13 23.31,-9.82 20.7,15.52 -5.2,44.03 -27.3,51.55 -0.64,0.26 -1.21,0.52 -1.76,0.79 -0.38,0.12 -0.76,0.24 -1.14,0.35 v 5.87 c 6,-5.51 12.74,-9.78 19,-14.22 -0.98,0.62 -1.97,1.2 -2.98,1.77 19.84,-13.01 34.22,-39.23 9.45,-51.07 1.55,-0.44 3.12,-0.56 4.73,-0.24 7.7,0 10.3,15.55 7.7,25.92 -1.84,6.53 -5.38,12.04 -10.04,16.65 6.58,-6 11.52,-13.3 12.64,-24.43 0,-8.09 -4.7,-20.92 -10.47,-21.22 z m -2.17,45.65 c -2.72,2.49 -5.73,4.75 -8.86,6.97 3.24,-2.04 6.23,-4.36 8.86,-6.97 z m -20.97,-27.55 c -0.71,0.46 -1.43,0.9 -2.17,1.31 0.76,-0.39 1.48,-0.83 2.17,-1.31 z m -2.17,1.31 c -1.45,0.76 -3.01,1.35 -4.72,1.68 v 0.5 c 1.63,-0.57 3.2,-1.32 4.72,-2.18 z m 7.55,-6.12 c 1.1,-1.2 2.1,-2.38 3.07,-3.55 -2.14,1.82 -4.31,3.76 -6.6,5.56 1.19,-0.62 2.37,-1.29 3.53,-2.01 z m -3.53,2.01 c -2.86,1.5 -5.79,2.68 -8.74,3.47 v 1.85 c 3.12,-1.2 6,-3.15 8.74,-5.32 z m 161.87,-7.59 c -6.38,36.67 -6.78,73.64 -5.12,110.19 -2.47,-37.2 -3.52,-74.24 5.12,-110.19 z m -164.07,2.85 c -2.06,2.06 -4.18,3.81 -6.54,4.97 v 0.15 c 2.47,-1.05 4.62,-2.88 6.54,-5.12 z m 297.21,2.95 c 0.96,64.54 0.98,118.3 -1.12,129.44 -0.3,7.1 -0.4,13.71 -0.4,21.2 0.51,12.14 1.06,24.47 1.51,36.9 -0.77,-13.03 -1.9,-26.02 -3.31,-38.95 0,-7.49 0.1,-14.32 0.5,-21.87 0.46,-4.36 0.68,-15.19 0.72,-30.37 0.79,-25.85 1.62,-61.93 2.1,-96.35 z m -378.752,5.63 c -1.929,8.7 -3.847,17.49 -4.941,26.78 -0.322,3.54 -0.509,6.89 -0.625,10.14 0.106,-0.52 0.204,-1.03 0.308,-1.55 -0.02,1.44 -0.06,2.95 -0.111,4.52 -0.08,-0.65 -0.155,-1.32 -0.233,-1.97 -0.06,1.79 -0.1,3.56 -0.115,5.29 0.07,0.41 0.135,0.9 0.203,1.38 -0.06,2.17 -0.114,4.34 -0.09,6.41 1.202,7.4 2.624,28.59 4.101,57.09 0.03,0 0.06,0.1 0.09,0.12 -0.283,-7.4 -0.553,-14.19 -0.812,-20.5 0.359,6.37 0.724,13.58 1.089,20.89 0.09,0.13 0.183,0.26 0.276,0.39 -1.166,-27.77 -2.226,-48.5 -3.022,-56.33 -0.09,-1.41 -0.175,-2.69 -0.254,-3.66 -0.339,-4.67 -0.622,-9.58 -1.087,-13.77 0.255,-1.28 0.509,-2.55 0.75,-3.82 -0.251,0.93 -0.494,1.87 -0.756,2.81 0,0.25 -0.01,0.54 -0.02,0.8 -0.04,-0.35 -0.07,-0.74 -0.117,-1.09 0.421,-1.4 0.81,-2.79 1.195,-4.19 1.782,-9.64 3.157,-19.17 4.174,-28.64 z m -4.174,29.74 c -0.102,0.56 -0.201,1.11 -0.306,1.67 1.602,-5.99 2.966,-11.97 4.103,-17.94 -1.016,5.36 -2.276,10.78 -3.797,16.27 z m 3.797,-16.27 c 0.07,-0.37 0.135,-0.73 0.203,-1.1 -0.07,0.37 -0.133,0.73 -0.203,1.1 z m 0.203,-1.1 c 0.06,-0.32 0.116,-0.63 0.174,-0.95 v 0 c -0.06,0.33 -0.113,0.67 -0.174,1 z m -5.428,25.55 c 0.01,-0.33 0.02,-0.67 0.04,-1 -0.03,0.16 -0.06,0.32 -0.1,0.48 0.02,0.17 0.04,0.35 0.06,0.52 z m 281.944,-18.03 c 0,0.11 0,0.21 0.1,0.32 0.4,5.49 0.8,10.93 1.5,16.8 0.77,9.72 1.95,19.51 3.47,29.49 -1.58,-7.99 -2.75,-15.98 -3.47,-24 -0.7,-5.76 -1.3,-11.86 -1.4,-17.01 0.1,-1.69 0,-3.6 -0.16,-5.6 z m -158.82,11.86 c -1.35,2.35 -2.78,4.62 -4.26,6.8 0.48,-1.24 1.21,-2.65 2.34,-4.31 0.66,-0.82 1.29,-1.65 1.92,-2.49 z m 1.06,11 c 0.46,12.49 0.83,23.96 1.02,33.54 0,1.44 -0.1,2.96 -0.15,4.43 0,-0.75 0,-1.53 0.1,-2.27 -0.28,-9.81 -0.57,-22.27 -0.92,-35.7 z m -24.3,3.59 c -0.34,0.58 -0.65,1.16 -0.98,1.74 -0.24,13.28 -0.77,25.52 -1.5,36.23 0.47,-7.22 0.85,-15.03 1.1,-23.41 0.2,-4.42 0.3,-9.01 0.4,-13.7 0.33,-0.28 0.65,-0.58 0.98,-0.86 z m -14.2,25.18 c 0,0.2 0,0.41 0,0.61 0,0.22 0,0.44 0,0.66 0,-0.42 0,-0.85 0,-1.27 z m -5.08,1.47 v 10.6 c 0.13,-3.07 0.2,-6.14 0.2,-9.19 -0.1,-0.47 -0.13,-0.94 -0.2,-1.41 z m 219.3,12.71 c 0,0.1 0,0.16 0,0.24 0.35,22.24 0.62,44.16 -0.25,66 0.24,-12.7 0.11,-25.54 -0.1,-38.4 0,-1.57 0.1,-3.15 0.1,-4.72 0,1.04 -0.1,2.08 -0.12,3.11 -0.11,-6.87 -0.23,-13.75 -0.33,-20.63 0,-0.14 0,-0.27 0,-0.41 0.23,2.55 0.44,5.07 0.61,7.57 0,-3.39 0.1,-6.77 0.1,-10.17 0,-0.86 0,-1.73 0,-2.59 z m -0.1,12.76 c 0,3.45 -0.1,6.91 -0.15,10.36 0.11,-2.98 0.2,-5.97 0.25,-9.01 0,-0.45 -0.1,-0.9 -0.1,-1.35 z m -204.89,9.1 c 0,0.27 -0.1,0.54 -0.11,0.81 -1.66,13.3 -3.56,26.53 -4.69,39.84 0.65,-11.69 2.24,-23.2 3.89,-34.59 0.32,-2.02 0.61,-4.04 0.91,-6.06 z m 135.69,30.57 v 17.75 c 0.19,-3.8 0.34,-7.78 0.42,-11.49 -0.16,-2.1 -0.3,-4.18 -0.42,-6.26 z m 5.23,3.55 c 0,1 0.1,1.98 0.1,2.98 -0.18,1.25 -0.35,2.55 -0.52,3.88 0.13,-2.38 0.28,-4.65 0.43,-6.86 z m -143.06,8.85 c -0.73,11.5 -0.83,23.18 0.33,35.09 0.4,3.36 0.69,6.68 0.9,10.07 -1.54,-8.83 -2.4,-17.89 -2.4,-27.59 0.19,-5.92 0.62,-11.77 1.17,-17.57 z m 314.84,3.97 c -1,4.6 -1.87,9.18 -2.61,13.77 0.7,-4.55 1.57,-9.13 2.61,-13.77 z m -317.45,4.72 c -0.25,7.08 -0.13,14.16 0.54,21.25 0.75,4.35 1.57,8.8 1.94,14.19 -1.22,-4.6 -2.07,-9.25 -2.58,-14 -0.16,-4.63 -0.19,-9.3 -0.1,-14.08 -0.1,-1.81 -0.14,-3.62 -0.17,-5.42 0.11,-0.64 0.22,-1.29 0.33,-1.94 z m 215.44,7.5 c -2.37,2.17 -5.36,4.59 -10.2,7.46 -13.92,8.29 -29.64,26.27 -28.48,43.42 -0.1,7.57 2.33,14.98 8.45,20.42 -1.14,-1.32 -2.18,-3.06 -3.1,-5.27 -1.52,-2.23 -2.74,-4.7 -3.55,-7.3 0.69,1.68 1.58,3.34 2.7,4.97 -0.32,-0.96 -0.62,-1.98 -0.9,-3.09 -3.28,-10.89 -1.49,-21.78 3.53,-31.2 4.53,-7.31 11.11,-13.57 18.56,-18.51 -4.71,2.78 -8.97,5.98 -12.65,9.77 6.42,-7.65 15.09,-13.62 24.59,-16.78 0.39,-0.41 0.73,-0.82 1.05,-1.23 z m -1.05,3.89 c -0.3,0.31 -0.61,0.62 -0.95,0.93 -3.77,1.72 -7.47,3.75 -10.98,6.08 4.02,-2.36 8.37,-4.4 12.98,-6.21 v -1.14 c -0.35,0.11 -0.7,0.22 -1.05,0.34 z m -33.13,59.81 c 0.27,0.82 0.55,1.61 0.85,2.33 2.66,3.89 6.21,7.02 10.02,8.75 0.9,0.1 1.82,0 2.76,-0.18 -1.83,-0.41 -3.76,-1.35 -5.83,-2.92 -0.64,-0.43 -1.25,-0.92 -1.81,-1.45 -2.46,-2.09 -4.44,-4.28 -5.99,-6.53 z m 5.99,6.53 c 0.3,0.25 0.6,0.5 0.91,0.75 0.31,0.26 0.6,0.47 0.9,0.7 1.26,0.84 2.68,1.49 4.28,1.89 7.7,0 13.24,-4.66 18.24,-9.85 1.18,-1.91 2.47,-3.73 3.86,-5.37 v -1.17 c -6.13,5.42 -11.97,12.28 -19.6,13.8 -4.06,0 -8.17,-1.66 -11,-3.64 0.7,1.05 1.5,2.03 2.41,2.89 z m -2.41,-2.89 c -3.42,-5.13 -4.48,-12.15 -4.48,-17.08 -0.44,-3.49 -0.28,-6.91 0.38,-10.21 -2.44,8.02 -2.46,16.42 2.22,25.76 0.52,0.52 1.17,1.03 1.88,1.53 z m -4.1,-27.29 c 1.62,-5.34 4.3,-10.51 7.42,-15.68 6.69,-9.04 17.42,-14.13 27.28,-18.2 v -1.14 c -17.1,6.2 -31.6,19.33 -34.7,35.02 z m 30.84,23.67 c -0.73,1.17 -1.42,2.35 -2.07,3.55 0.7,-0.49 1.4,-0.98 2.1,-1.48 1.16,-2.03 2.43,-4.03 3.83,-5.86 v -0.34 c -1.27,1.37 -2.54,2.76 -3.86,4.13 z m 0,2.07 c -0.42,0.73 -0.8,1.44 -1.19,2.17 1.63,-1.38 3.3,-2.81 5.02,-4.16 v -0.79 c -1.27,0.93 -2.55,1.86 -3.83,2.78 z m -1.19,2.17 c -0.76,0.64 -1.52,1.27 -2.28,1.87 -0.66,1.28 -1.29,2.53 -1.88,3.71 0.9,-0.71 1.76,-1.55 2.58,-2.56 0.5,-0.99 1.04,-2.01 1.58,-3.02 z m -4.16,5.58 c -4.3,3.38 -9.41,3.39 -14.13,1.24 -0.66,0 -1.31,-0.11 -1.94,-0.27 5.02,2.16 11.49,3.59 16.05,-0.94 0,0 0,0 0,0 z m -16.07,0.97 c -0.71,-0.3 -1.39,-0.62 -2.03,-0.94 -1.07,-0.71 -2.04,-1.47 -2.95,-2.27 1.5,1.72 3.17,2.75 4.98,3.21 z m 17.95,-4.68 c 0.44,-0.85 0.89,-1.7 1.37,-2.56 -5.05,3.51 -10.09,6.54 -14.62,7.33 4.87,1.09 9.04,-1.4 13.25,-4.77 z m 7.3,-59.25 c -8.25,2.89 -16.55,6.31 -22.1,13.79 -0.11,0.22 -0.24,0.49 -0.35,0.73 0.86,-1.15 1.8,-2.26 2.85,-3.32 6.56,-4.91 13.12,-7.75 19.6,-10.19 z m -22.45,14.52 c -3.06,4.09 -4.92,8.72 -5.56,13.58 1.35,-4.65 3.59,-9.6 5.56,-13.58 z m -5.56,13.58 c -1.68,5.82 -1.92,11.1 1.69,13.2 -0.34,-0.51 -0.67,-1.04 -0.96,-1.62 -0.98,-3.91 -1.22,-7.81 -0.73,-11.58 z m 1.69,13.2 c 2.78,4.06 7.3,5.85 11.92,3.55 1.84,-1.58 3.77,-2.97 5.76,-4.18 -4.54,0.89 -9.06,1.6 -13.46,1.6 -1.78,0 -3.16,-0.35 -4.22,-0.97 z m 17.68,-0.63 c 2.88,-0.56 5.77,-1.17 8.64,-1.74 v -2.24 c -2.95,0.95 -5.85,2.28 -8.64,3.98 z m -216.36,-33.62 v 6.74 c 0.23,0.2 0.45,0.38 0.68,0.58 0,-0.94 -0.1,-1.86 -0.1,-2.8 -0.24,-1.49 -0.43,-3 -0.6,-4.52 z m 182.16,3.03 c -7.2,12.66 -9.73,26.87 -7.84,42.56 2.27,8.29 6.74,14.38 12.12,19.36 1.07,1.37 2.22,2.68 3.48,3.94 2.33,2 4.71,3.35 7.11,4.2 0.27,0.19 0.54,0.37 0.82,0.55 -4.08,-1.71 -8.12,-3.67 -11.82,-6.36 -14.79,-17.98 -21.52,-39.53 -4.81,-62.89 0.35,-0.49 0.63,-0.92 0.94,-1.36 z m -17.54,46.71 c 0.58,2.69 1.23,5.38 1.82,8.07 -0.61,-1.74 -1.2,-3.48 -1.75,-5.2 0,-0.96 0,-1.92 -0.1,-2.87 z"/>
<path style="fill:#ffffff;" d="m 2,2 v 198 h 596 v -198 z"/>
<g id="hand" style="fill:#008800;stroke:#ffffff;stroke-width:1;">
  <path d="m 319.65,85.422 c 0.41,-1.375 1.03,-5.037 1.4,-6.01 0.89,-2.467 8.35,-6.252 10.44,-5.558 2.08,0.696 -0.69,6.949 -0.69,9.727 0,2.779 3.48,10.422 3.48,13.896 0,3.473 -0.78,20.813 -0.78,25.683 0,4.86 -6.27,8.53 -7.67,12.7 -1.39,4.17 -5.48,6.92 -6.18,12.48 -1.44,6.83 -0.87,7.11 0.51,15.04 -0.38,1.63 -30.14,6.79 -43.05,-0.73 1.39,-5.99 1.51,-9.25 0.42,-17.29 -3.89,-7.63 -5.91,-14.07 -7.87,-19.48 -1.98,-5.4 -3.45,-16.67 -3.45,-21.09 0,-4.42 1.03,-23.256 0.16,-27.615 -2.27,-11.251 2.3,-15.373 4.75,-15.373 5.32,1.895 3.89,9.036 4.19,14.491 0.82,4.279 0.5,6.71 1.67,16.728 -0.74,-5.515 -0.18,-9.25 -0.34,-15.069 0.51,-7.702 0,-6.932 0.47,-13.744 0.66,-6.564 -1.51,-23.347 6.62,-25.006 5.43,-1.22 5.94,11.049 5.87,20.143 0.67,3.907 0.71,8.221 0.49,13.018 0.25,5.703 0.2,8.211 0.24,13.51 0.16,-5.486 -0.41,-10.128 0.15,-16.086 0.59,-6.889 1.26,-7.974 0.93,-15.423 0.48,-2.946 -0.77,-19.134 7.7,-18.99 6.81,2.259 4.12,11.381 4.52,19.303 0,5.913 0.3,9.769 0.14,16.339 0,0 0,7.166 -0.59,14.376 0.56,-7.43 0.27,-9.645 0.51,-14.591 0.8,-5.905 0.85,-5.781 1.44,-11.397 -0.14,-16.838 3.72,-18.6 6.42,-18.482 6.72,0.292 6.16,10.317 6.16,20.142 0.48,3.557 0.25,7.516 0,12.981 0,3.083 1.98,11.377 1.98,11.377 z"/>
  <path style="fill:none;" d="m 274.93,93.269 c -2.58,1.533 -3.6,2.043 -6.16,2.555 m 18.95,-7.752 c -3.58,0.511 -5.63,2.044 -7.68,2.555 m 20.48,-3.577 c -3.06,-0.511 -4.09,-0.511 -6.64,0 m 22.01,0.597 c -4.09,-1.533 -6.65,-2.043 -9.72,-1.533 m 10.56,60.756 c -4.41,1.09 -12.34,-0.7 -14.38,-4.11 m -10.31,3.12 c 0,0 -6.36,0.76 -10.48,-0.93"/>
  <path d="m 319.57,85.476 c -1.22,5.008 0.74,8.809 0.74,11.588 0,2.779 -2.09,15.286 -2.09,15.286 l 0.7,-4.86 c 0,0 -9.75,0.69 -13.22,3.47 -3.49,2.78 -7.67,15.98 -6.28,25.02"/>
</g>
<use xlink:href="#hand" x="-250"/>
<use xlink:href="#hand" x="-167"/>
<use xlink:href="#hand" x="-83"/>
<use xlink:href="#hand" x="83"/>
<use xlink:href="#hand" x="167"/>
<use xlink:href="#hand" x="250"/>
<use id="shine" xlink:href="#shield" fill="url(#rg)" stroke="#000" stroke-width="3"/>
</svg>
