<svg xmlns="http://www.w3.org/2000/svg" width="600" height="660" xmlns:xlink="http://www.w3.org/1999/xlink">
<defs>
  <radialGradient id="rg" gradientUnits="userSpaceOnUse" cx="220" cy="220" r="405">
    <stop style="stop-color:#fff;stop-opacity:.3" offset="0" />
    <stop style="stop-color:#fff;stop-opacity:.2" offset="0.2" />
    <stop style="stop-color:#666;stop-opacity:.1" offset="0.6" />
    <stop style="stop-color:#000;stop-opacity:.13" offset="1" />
  </radialGradient>
  <path id="shield" d="m 2 2 v 257 c 0 286 298 398 298 398 c 0 0 298 -112 298 -398 V 2 Z" />
</defs>
<use id="background" xlink:href="#shield" style="fill:#0000ff;"/>
<g id="maiden" style="stroke:#000000;stroke-width:1;stroke-linecap:round;">
	<path style="fill:#ffffff;stroke:#666666;" d="M 212.6,79.41 C 194,65.05 188.2,55.37 153.8,50.44 124.1,49.3 93.23,54.28 68.22,63.5 81.96,67.27 91.79,93.91 88.64,101.2 102.8,89.47 134.6,68.87 161.4,66.24 c 17.5,-1.72 24.3,-0.87 51.2,13.17 z" />
	<path style="fill:#ffffff;stroke:#666666;" d="m 373.4,347.3 c 0,0 17.9,-10.9 53.4,3.3 35.5,14.1 43.8,91.3 44.3,101.2 -9.9,-1.9 -36,18.9 -41,25.2 3.6,-18.1 12.3,-75.6 -7.1,-104.8 -10.2,-15.4 -18.1,-21.3 -49.6,-24.9 z" />
	<path style="fill:#ffffff;stroke:#666666;" d="m 168.5,381.7 c -13.7,-10.8 -21.4,-21.4 -20.8,-34.9 0.7,-16.7 15.9,-30.7 29.3,-40.7 13.1,-9.8 30.2,-13.1 46.3,-16.3 64.7,-13 139.8,20.7 197.6,-11.1 16.7,-9.2 29.5,-30 33.3,-46.6 16.6,-72.1 -7.4,-90.5 -18.6,-107.8 9.6,22.2 11.3,39.3 3.6,56.5 -9.8,22.1 -33.9,37.2 -56.8,45 -54.9,18.7 -116.6,-11.3 -173.8,-2.3 -21.5,3.3 -44.1,8.2 -61.8,20.8 -20.5,14.6 -37.8,36.1 -46,59.9 -4.38,12.5 -3.26,29.6 -0.5,39.7 8.7,30.2 31.3,43.3 68.2,37.8 z" />
	<path style="fill:#ffffff;stroke:#666666;" d="M 312.8,68.26 C 345,71.6 377.5,83.28 404,102 c 20.4,14.5 39.2,34.4 48,57.8 8.5,22.6 6.6,53.8 2.2,72.3 C 469.6,197 480,151.6 470.7,112.5 465.3,90.01 449.7,69.36 431.2,55.49 411.7,40.9 386.1,35.41 362,32.43 c -21.9,-2.7 -44.8,-1.18 -65.9,5.01 -26.5,7.76 -45.4,37.45 -72.9,39.27 -24.7,1.63 -21.5,-19.61 -69.4,-26.27 29.6,8.9 30.5,18.63 42.8,23.04 12.3,4.41 18.8,7.26 28.7,7.85 29.4,1.75 58.2,-16.1 87.5,-13.07 z" />
	<path style="fill:#d35f5f;stroke:#692f2f;" d="m 365.6,109.4 c -0.9,-3.3 -10.2,-4.8 -13.2,-3.2 -5.7,2.9 -5.7,14.7 -12.1,15 -6.2,0.3 -4.6,-9 -12.3,-11.4 -5.9,-1.8 -10.6,4.4 -13.9,4.5 -3.8,0.1 -11.3,-14.59 -20,-14.1 -8.1,-2.69 -17.3,1.2 -21.2,6.3 -7.4,0 -12.1,3.1 -15.2,10 -2.9,6.5 2.6,18.1 -2,23.6 -12.8,15.3 -3.8,32.3 -15.5,42.9 -9,8.1 -28.3,13.7 -15.3,42 17.9,38.7 23.4,85.2 17.2,83.2 25.8,-12.6 25.5,-23.5 28.5,-36.7 0.4,19.2 6.3,35.3 18.8,47.5 -1.7,-14.9 3.4,-26.8 13.8,-33.1 11.8,8.1 14.3,26 20.8,36.5 3.9,6.3 18,11.7 24.7,7.9 -17.3,-13.5 -17,-34.5 -17.4,-46.1 13.9,4.9 17.4,14.7 25.3,28.3 3.1,-20.5 -10.1,-36 -22.1,-46.8 21.5,-0.7 31.2,18.2 41.1,27.8 2.7,-16.8 -7.7,-41.7 -20,-58.2 6.8,9.1 13.4,17.1 24.1,15 12.8,-2.5 17.3,3.2 26.1,22.4 -1.6,-12.5 -3.5,-26.2 -17.6,-33.8 10.5,6 32.9,-1.7 43.7,-16.6 -5,5.1 -37.7,15.3 -51.8,4.2 -15.1,-11.9 -8.7,-34.9 -18.6,-51.4 -5.3,-8.9 -24.1,-5.8 -26.7,-15.8 9,6.7 15.8,4 21.3,0.2 3.6,-2.5 7.7,-2.8 12,-2.5 13.6,1 24.3,15.9 35,-1.8 -7,3.3 -19.4,1.9 -24.3,-3.3 -6,-6.4 -6.2,-11.6 -14.6,-14.1 -10.6,-3.2 -10.5,1.8 -21.5,0.9 -8.6,-0.7 -11.3,-1.4 -14.9,-9.2 8.6,2.4 14,2.8 19.9,-1.4 3.3,-2.4 4.9,-8.9 7.1,-12.3 1.6,-2.5 3.1,-6.7 10.8,-6.4 z" />
	<path style="fill:#ff8080;stroke:#692f2f;" d="m 357.1,517.7 c -2.5,-7.6 1.1,-17.2 -3.5,-23.7 -2.9,-4.1 -10.9,0.5 -14.8,-2.5 -5.7,-4.4 -8.8,-11.4 -11.6,-18 -8.2,-19.7 -24.7,-31.1 -27.7,-33.2 -2.4,-3.3 1.5,-14.3 2.7,-19.8 6.4,-30.4 13.8,-57.2 12.9,-87.9 -0.4,-14.5 -7.6,-28 -10.3,-42.3 -0.9,-4.9 -2.1,-8.6 -0.4,-13.3 4.4,-11.9 10.8,-19.1 18.1,-35.5 1.5,13.2 10.5,22.6 16.4,34.3 7.8,15.4 7.8,12.9 13.7,29.1 2.7,7.3 12,17.6 11.9,20.1 -0.1,2.2 -0.9,24.6 6.4,26.1 l 25.5,-10.5 c 1.9,-0.8 0.1,-4.7 -1.4,-6.1 -5.4,-5.1 -12.8,-13 -18.9,-18.6 -2,-9.9 -7.5,-30.3 -13.1,-44.9 -2.5,-6.5 -8.5,-11.4 -10.9,-18 -6.4,-17.4 -8.2,-37 -16.4,-53.6 -2.9,-5.9 -10.9,-10.3 -15.5,-15 -4.1,-4.2 -11.32,-7.58 -12.9,-13.19 -2.42,-8.59 3.3,-15.61 1.7,-24.41 -3.65,-6.3 -4.54,-9.7 -5.25,-12.58 -9.3,-6.1 -7.75,-10.32 -9.85,-14.62 -7.4,1.1 -13.53,0.77 -18.93,-1.63 -0.9,3.8 -3.87,7.23 -8.77,12.33 -0.4,8.6 1.4,8.1 3.9,13.3 1,5 0.7,9 10,17.6 0.3,2.9 -0.3,4.7 -0.4,7.7 -9.3,-12.4 -20.2,-18.3 -40.6,-16 -10.1,-5.6 -24.2,-5.8 -32.5,-5.8 3.1,-11 2.4,-23.2 3.1,-34.8 0.3,-4.1 2.8,-9.6 4.7,-13.49 9,-5.8 11.3,-16.74 10.6,-21.23 -0.6,-4.15 1.5,-7.19 -1.3,-6.92 -2.5,0.24 -2.7,2.45 -3.4,5.68 -7.8,-0.73 -11.8,-3.58 -19.6,-4.31 -1.5,3.95 -3.8,8.75 -3.6,13.92 0.1,3.67 -0.3,5.86 0.6,10.36 -6.6,19.89 -12.5,41.99 -11,59.89 -1.3,2.5 1.9,5.3 3.4,5 17,10.2 35.1,15.3 51.2,17.9 2.9,2.6 3.5,3.8 9.2,5.8 -2.6,23 -8.6,24.6 -11.9,29.6 -2.9,-0.3 -4.6,3.6 -2.1,5.9 -2.3,11.4 4.8,15.6 8.4,17 -0.9,7.2 -0.4,16.6 -2.3,23.5 -2.7,10.1 -9.6,15.3 -11,25.6 -3.5,24.4 -10.5,29.7 -2.6,76.5 4.1,24.4 5.5,30.9 13.4,54.4 3.4,10 10.5,16 14.1,25.9 6.6,18.1 1.1,6 8.1,24 4.1,10.5 8.2,17.7 10.9,28.7 4,16 22.1,46.3 20.5,56.8 -0.7,4.8 0.3,14.5 0.8,30.7 0.1,2.4 -2.1,5 -5.6,7.5 0,0 -1.3,0.5 -2.3,1.1 -0.4,0.3 -1.5,1 -0.3,1.8 0.5,0.7 2.7,-0.6 5.3,-0.6 -1.2,0 -3.6,0.2 -4.8,1.4 -0.6,0.5 0,2.1 1.1,2.2 1.9,0.1 3.6,-1.1 5.5,-1.6 -1.9,0.9 -3.8,1.2 -5.4,2.3 -0.9,0.7 -0.2,2.7 1.9,2.6 2.2,-0.2 3.9,-0.6 5.8,-1.8 -1.7,1.6 -5.6,1.5 -6.8,2.4 -1.5,1.2 0.2,3.6 1.4,3.8 1.4,0.2 5.1,-1.1 7.2,-2 -1.2,1.1 -5.8,1.7 -7.6,2.6 -1.6,0.9 0,5 1.7,5.5 3.1,0.9 7.5,-0.3 8.9,-1.4 3.4,-2.8 8.3,-3.7 9.7,-7.9 2.6,-7.8 -1.6,-16.7 0.7,-24.6 1.6,-5.5 8.7,-8.2 10.5,-13.6 1,-3.2 -1.2,-7 -3.1,-9.7 -2.2,-3.1 -8.6,-3.3 -9.1,-7.1 -2.7,-20.7 -6.3,-41.1 -6.6,-61.2 7,6.5 17.7,13.5 25,22.1 3.9,4.6 5,11.2 8.2,16.3 2.5,4 6.5,6.9 8.5,11.1 2.1,4.5 1.3,9.9 3.3,14.4 0.5,1.4 -0.2,2 1.2,2.7 1.8,0.8 3.7,0.3 4.6,-1.5 1.2,-2.2 -0.7,-5.3 -2,-7.9 1.1,1.1 1.6,3.3 2.9,4.6 2.1,1.8 2.2,-4.7 0.4,-7.3 0.8,1.3 1.5,4.5 2.9,4.8 2.1,0.5 1.3,-5.3 0,-7.8 0.8,0.9 1.1,4.3 2.7,4.4 1.7,0.2 1.3,-4.2 0,-6.6 0.6,1.3 1.1,5.2 2.2,4.4 1.7,-1.2 1.4,-3.8 1.4,-5.9 1.3,-5.8 -7.3,-9.7 -9.1,-15.3 z" />
	<path style="fill:none;stroke:#692f2f;" d="m 304.9,485.2 c -3.3,-3.6 -19.5,-14.8 -27.4,-23.1 -1.9,-2 -6.3,-5.6 -8.1,-14.2 -1.5,-6.8 -0.3,-13.8 -2.5,-22.8 -7.1,-29.5 -4.4,-38.3 -4.4,-73.1 -7.5,-5 -14.5,-7.1 -23.7,-21.7" />
	<path style="fill:none;stroke:#692f2f;" d="m 270.5,341.2 c 4.3,-1.6 6.8,-3.8 8.8,-6.3" />
	<path style="fill:#ffffff;stroke:#666666;" d="m 100.3,343.9 c 8.8,21.8 25.4,29.3 43.1,31.9 33,4.9 61.7,-26.9 94.5,-33.4 17.9,-3.5 36.5,-4.3 54.7,-2.8 23.2,1.9 45.3,18.9 68.2,14.8 6,-1.1 9.8,-7.9 15.6,-9.9 6.4,-2.2 13.5,-2.5 20.2,-1.9 10.4,0.8 22.4,4.4 30.2,8 -10.4,-2.3 -31.5,-6.5 -47.9,1.1 -5.5,2.5 -9.1,8.5 -14.8,10.3 -27.5,8.4 -58,-6.3 -86.2,-0.7 -41,8.2 -73.6,46.3 -115.3,49 -12.5,0.8 -26.6,-2.1 -36.1,-10.2 -15.8,-13.4 -26.2,-56.2 -26.2,-56.2 z" />
	<path style="fill:none;stroke:#692f2f;" d="m 254.3,238.8 c -3.2,0.1 -7,-0.4 -9.4,-1.4" />
	<path style="fill:none;stroke:#692f2f;" d="m 272.4,239 c 5.2,7.3 12.1,10.4 19.5,10.9 5.2,0.4 11.1,-1.7 14.5,-5.6 6.9,-7.7 2.9,-13.3 5.4,-18.4 1.4,-1.4 4.7,-2.4 7,-1.8 4,0.9 7.1,3.8 9.3,8.1" />
	<path style="fill:#d35f5f;stroke:#692f2f;" d="m 293.8,231.1 c -0.4,0.9 -1.9,1 -2.8,0.7 -1,-0.4 -2.1,-1.5 -1.8,-2.5 0.3,-0.9 1.7,-1.4 2.6,-1.1 1.1,0.3 2.4,1.8 2,2.9 z" />
	<path style="fill:none;stroke:#692f2f;" d="m 255.6,286.6 c 1,1 2.4,0.8 3.5,0.2 -1.4,0.5 -1.7,1.3 -1.6,3.2" />
	<path style="fill:none;stroke:#692f2f;" d="m 208,91.11 c 0,0 1.6,-5.68 4.7,-7.52 2.2,-1.29 5.8,-1.35 6.1,-1.31 1.4,-2.67 0.9,-4.32 1.5,-5.94" />
	<path style="fill:#ff8080;stroke:#692f2f;" d="m 201.2,70.3 c 0.7,-1.72 2.4,-3.82 4,-3.89 2.1,-0.1 1.3,4.68 0.5,6.79 -0.7,1.89 -2.5,4.95 -4.4,4.16 -2.2,-0.91 -1,-4.88 -0.1,-7.06 z" />
	<path style="fill:#ff8080;stroke:#692f2f;" d="m 210,65.94 c 2.6,0.66 1.9,5.57 1.1,8.2 -0.9,2.74 -3.2,7.31 -5.9,6.3 -2,-0.77 -0.8,-4.45 -0.2,-6.56 0.8,-3.02 0.8,-8.89 5,-7.94 z" />
	<path style="fill:#ff8080;stroke:#692f2f;" d="m 219.5,69.32 c 1.9,1.13 1.4,4.44 0.9,6.58 -0.7,2.77 -2.4,7.74 -5.1,6.89 -2.2,-0.68 -0.8,-4.59 -0.2,-6.76 0.7,-2.57 1.6,-8.49 4.4,-6.71 z" />
	<path style="fill:#ff8080;stroke:#692f2f;" d="m 214.7,66.87 c 4.5,1.34 1.3,5.94 0.5,8.76 -0.7,2.55 -1.9,7.39 -4.4,6.59 -3.2,-0.99 -0.8,-6.73 0.2,-9.86 0.7,-2.1 0.5,-6.48 3.7,-5.49 z" />
	<path style="fill:none;stroke:#692f2f;" d="m 238.3,166.9 c 3.3,5.3 12.6,7.6 12.2,18" />
	<path style="fill:none;stroke:#692f2f;" d="m 280.1,161.2 c 0,0 3.34,1.92 6.12,3.35 3.85,1.99 6.55,2.69 10.06,1.1 3.79,-1.71 4.54,-4.33 7.44,-11.53" />
	<path style="fill:none;stroke:#692f2f;" d="m 277.5,175.5 c 1.7,5.6 7.1,3.4 10.1,11.2" />
	<path style="fill:none;stroke:#692f2f;" d="m 294.4,184.1 c 6.4,-0.4 10.9,1.8 15,4.7" />
	<path style="fill:#ff8080;stroke:#692f2f;" d="m 371.7,338.4 c 0.7,3.1 0.7,4.3 3.3,6.5 2.3,1.9 3.1,5 3,8.3 -0.1,1.7 1.6,2.5 3.7,2.1 2.7,-0.5 1.9,-8.4 1,-11.4 0.8,2.7 1.8,6.5 0.7,10.2 -0.5,1.6 4.3,1 5,-0.6 1.4,-3.2 -0.4,-10.6 -0.4,-10.6 0,0 1.1,5.5 0.7,9.5 -0.1,1.3 3.3,1 3.9,-0.3 0.9,-2.2 -0.1,-9.9 -0.1,-9.9 0,0 1,5.9 0.5,9 -0.1,1 2.2,0.7 2.6,-0.2 2.7,-5.2 1.5,-11.3 1.5,-12.7" />
	<path style="fill:none;stroke:#692f2f;" d="m 283.69,147.63 c 0.7,1.2 0.54,2.84 1.94,2.84 2.2,0 2.5,-2.37 3.99,-1.64" />
	<path style="fill:none;stroke:#692f2f;" d="m 292.37,128.9 c -4.13,0.79 -8.42,2.5 -8.48,4.9" />
	<path style="fill:none;stroke:#692f2f;" d="m 277.2,136.9 c -3.9,-0.7 -6.4,0.4 -7.8,2.8" />
	<path style="fill:#ffffff;stroke:#692f2f;" d="m 272.34,143.08 c 2.99,0.43 5.64,-1.91 6.59,-3.04 -2.88,-1.54 -7.01,-0.12 -6.59,3.04 z" />
	<path style="fill:#d35f5f;stroke:#d35f5f;" d="m 286.13,158.26 c 5.07,2.27 8.56,0.5 10.07,-5.06 0,0 -2.7,0 -4.06,0.47 -0.69,0.26 -0.75,1.07 -1.4,1.39 -0.58,0.29 -1.15,0.1 -1.74,0.33 -1.14,0.48 -2.87,2.87 -2.87,2.87 z" />
	<path style="fill:none;stroke:#692f2f;" d="m 303.75,134.22 c 8,6.8 17.5,5.5 22.1,11.1" />
	<path style="fill:none;stroke:#692f2f;" d="m 355.6,235.3 c -10.2,-14.2 -6.7,-19.7 -14.5,-28.1" />
	<path style="fill:none;stroke:#692f2f;" d="m 322.5,241.5 c -0.8,-5.1 -0.7,-6.9 -0.4,-9.2" />
	<path style="fill:#ffffff;stroke:#692f2f;" d="m 287.05,136.62 c 3.21,0.46 5.72,-1.31 6.95,-3.38 -2.66,-1.68 -6.46,-0.47 -6.95,3.38 z" />
	<circle style="fill:#ffffff;stroke:#2a1212;" r="1" cx="275.72" cy="140.77" />
	<circle style="fill:#ffffff;stroke:#2a1212;" r="1" cx="290.51" cy="134.34" />
	<path style="fill:none;stroke:#692f2f;" d="m 286.13,158.26 c 5.08,-0.52 7.43,-2.86 10.07,-5.06" />
</g>
<use style="fill:url(#rg);stroke:#000000;stroke-width:3" xlink:href="#shield" />
</svg>
