<?xml version="1.0" encoding="UTF-8" standalone="no"?>
<svg
   xmlns:dc="http://purl.org/dc/elements/1.1/"
   xmlns:cc="http://creativecommons.org/ns#"
   xmlns:rdf="http://www.w3.org/1999/02/22-rdf-syntax-ns#"
   xmlns:svg="http://www.w3.org/2000/svg"
   xmlns="http://www.w3.org/2000/svg"
   xmlns:xlink="http://www.w3.org/1999/xlink"
   xmlns:sodipodi="http://sodipodi.sourceforge.net/DTD/sodipodi-0.dtd"
   xmlns:inkscape="http://www.inkscape.org/namespaces/inkscape"
   width="600"
   height="660"
   id="svg2"
   version="1.1"
   inkscape:version="0.48.2 r9819"
   sodipodi:docname="House_Justman.svg">
  <metadata
     id="metadata25">
    <rdf:RDF>
      <cc:Work
         rdf:about="">
        <dc:format>image/svg+xml</dc:format>
        <dc:type
           rdf:resource="http://purl.org/dc/dcmitype/StillImage" />
        <dc:title />
      </cc:Work>
    </rdf:RDF>
  </metadata>
  <sodipodi:namedview
     pagecolor="#ffffff"
     bordercolor="#666666"
     borderopacity="1"
     objecttolerance="10"
     gridtolerance="10"
     guidetolerance="10"
     inkscape:pageopacity="0"
     inkscape:pageshadow="2"
     inkscape:window-width="1366"
     inkscape:window-height="715"
     id="namedview23"
     showgrid="false"
     inkscape:zoom="1.011377"
     inkscape:cx="314.06048"
     inkscape:cy="479.22017"
     inkscape:window-x="-8"
     inkscape:window-y="-8"
     inkscape:window-maximized="1"
     inkscape:current-layer="svg2" />
  <defs
     id="defs4">
    <radialGradient
       id="rg"
       gradientUnits="userSpaceOnUse"
       cx="220"
       cy="220"
       r="405">
      <stop
         style="stop-color:#fff;stop-opacity:.3"
         offset="0"
         id="stop7" />
      <stop
         style="stop-color:#fff;stop-opacity:.2"
         offset=".2"
         id="stop9" />
      <stop
         style="stop-color:#666;stop-opacity:.1"
         offset=".6"
         id="stop11" />
      <stop
         style="stop-color:#000;stop-opacity:.13"
         offset="1"
         id="stop13" />
    </radialGradient>
    <clipPath
       id="clip-shield">
      <path
         id="shield"
         d="m2,2v257c0,286 298,398 298,398c0,0 298-112 298-398V2z" />
    </clipPath>
    <radialGradient
       id="rg-1"
       gradientUnits="userSpaceOnUse"
       cx="220"
       cy="220"
       r="405">
      <stop
         style="stop-color:#fff;stop-opacity:.3"
         offset="0"
         id="stop7-7" />
      <stop
         style="stop-color:#fff;stop-opacity:.2"
         offset=".2"
         id="stop9-4" />
      <stop
         style="stop-color:#666;stop-opacity:.1"
         offset=".6"
         id="stop11-0" />
      <stop
         style="stop-color:#000;stop-opacity:.13"
         offset="1"
         id="stop13-9" />
    </radialGradient>
    <radialGradient
       id="radialGradient3038"
       gradientUnits="userSpaceOnUse"
       cx="220"
       cy="220"
       r="405">
      <stop
         style="stop-color:#fff;stop-opacity:.3"
         offset="0"
         id="stop3040" />
      <stop
         style="stop-color:#fff;stop-opacity:.2"
         offset=".2"
         id="stop3042" />
      <stop
         style="stop-color:#666;stop-opacity:.1"
         offset=".6"
         id="stop3044" />
      <stop
         style="stop-color:#000;stop-opacity:.13"
         offset="1"
         id="stop3046" />
    </radialGradient>
  </defs>
  <use
     height="1052.3622"
     width="744.09448"
     y="0"
     x="0"
     style="fill:#ffffff"
     id="background"
     xlink:href="#shield" />
  <path
     style="fill:#0000cc"
     inkscape:connector-curvature="0"
     id="path20"
     d="m 85.333984,85.333984 0,16.666016 0,157 c 0,96.17322 42.247936,166.53737 92.505856,217.96094 39.5448,40.46198 83.89829,68.1339 114.31836,84.35547 l 7.8418,4.18164 7.8418,-4.18164 C 338.26187,545.09483 382.61536,517.42292 422.16016,476.96094 472.41808,425.53737 514.66602,355.17322 514.66602,259 l 0,-173.666016 z M 102,102 l 396,0 0,157 c 0,91.37269 -39.47772,156.91064 -87.75977,206.3125 C 372.41066,504.01947 329.38708,530.93865 300,546.60938 270.61292,530.93866 227.58934,504.01947 189.75977,465.3125 141.47772,415.91064 102,350.37269 102,259 z M 52,52 52,259 C 52,471.45202 241.33706,575.39518 300,602.53711 358.66294,575.39518 548,471.45202 548,259 L 548,52 52,52 z m 16.666016,16.666016 462.667964,0 0,190.333984 c 0,101.27495 -44.71511,175.854 -97.2539,229.61133 C 385.37228,538.44881 330.27501,569.3752 300,584.03906 269.72499,569.3752 214.62772,538.44881 165.91992,488.61133 113.38113,434.854 68.666016,360.27495 68.666016,259 l 0,-190.333984 z" />
  <g
     transform="matrix(1.662023,0,0,1.4921792,129.87957,124.12452)"
     id="g4682"
     style="fill:#eac102;fill-opacity:1;fill-rule:evenodd;stroke:#000000;stroke-width:1.26999211;stroke-miterlimit:4;stroke-opacity:1;stroke-dasharray:none;display:inline">
    <path
       inkscape:connector-curvature="0"
       d="m 3.6768,153.27 c 26.074,14.61 59.096,13.79 84.945,0 2.136,-1.29 -28.239,-4.64 -42.613,-4.64 -25.686,0 -42.799,2.55 -42.332,4.64 l 0,0 z"
       id="path5582"
       style="fill:#7f7f7f;fill-opacity:1;fill-rule:evenodd;stroke:#000000;stroke-width:1.26999211;stroke-linecap:butt;stroke-linejoin:miter;stroke-miterlimit:4;stroke-opacity:1;stroke-dasharray:none" />
    <path
       inkscape:connector-curvature="0"
       d="m 64.55,189.23 c 0,0 -0.236,-4.02 5.885,-4.11 6.121,-0.08 59.625,0 63.615,0 4,0 4.99,2.74 4.96,4.13 -0.09,3.41 -27.61,10.52 -27.62,10.37 L 74.928,196.7 c -3.459,-2.49 -8.357,-2.44 -10.378,-7.47 z"
       id="path4189"
       style="fill:#ffdd00;fill-opacity:1;fill-rule:evenodd;stroke:#000000;stroke-width:1.26999211000000000;stroke-linecap:butt;stroke-linejoin:miter;stroke-miterlimit:4;stroke-opacity:1;stroke-dasharray:none" />
    <path
       inkscape:connector-curvature="0"
       d="m 64.575,188.76 0,7.8 c -0.263,8.23 74.425,8.64 74.405,0 l 0,-7.8 c 0.08,8.68 -74.555,8.7 -74.405,0 l 0,0 z"
       id="path2220"
       style="fill:#ffdd00;fill-opacity:1;fill-rule:evenodd;stroke:#000000;stroke-width:1.26999211000000000;stroke-linecap:butt;stroke-linejoin:miter;stroke-miterlimit:4;stroke-opacity:1;stroke-dasharray:none" />
    <path
       inkscape:connector-curvature="0"
       d="m 69.433,183.4 c 0.098,-1.43 10.074,-5.11 31.327,-5.11 21.36,0 33.37,2.93 33.37,5.21 0,0.56 -6.57,5.04 -6.57,5.04 l -27.48,2.64 -30.233,-4.91 -0.414,-2.87 0,0 z"
       id="path5269"
       style="fill:#ffdd00;fill-opacity:1;fill-rule:evenodd;stroke:#000000;stroke-width:1.26999211000000000;stroke-linecap:butt;stroke-linejoin:miter;stroke-miterlimit:4;stroke-opacity:1;stroke-dasharray:none" />
    <path
       inkscape:connector-curvature="0"
       d="m 69.443,183.2 0,5.66 c 0.119,5.19 64.687,5.92 64.677,0 l 0,-5.66 c -0.03,5.61 -64.634,5.53 -64.677,0 z"
       id="path5263"
       style="fill:#ffdd00;fill-opacity:1;fill-rule:evenodd;stroke:#000000;stroke-width:1.26999211000000000;stroke-linecap:butt;stroke-linejoin:miter;stroke-miterlimit:4;stroke-opacity:1;stroke-dasharray:none" />
    <path
       inkscape:connector-curvature="0"
       d="m 116.3,183.77 c 0,0 -9.13,-0.96 -11.3,-2.41 -2.16,-1.44 -1.68,-1.56 -3.9,-1.56 -2.223,0 -1.742,0.12 -3.904,1.56 -2.163,1.45 -11.293,2.41 -11.293,2.41"
       id="path5271"
       style="fill:#ffdd00;fill-opacity:1;stroke:#000000;stroke-width:1.26999211000000000;stroke-linecap:round;stroke-linejoin:miter;stroke-miterlimit:4;stroke-opacity:1;stroke-dasharray:none" />
    <path
       inkscape:connector-curvature="0"
       d="m 93.93,175.23 15.7,0.02 c 0.11,0.61 -5.01,5.12 -6.67,5.03 l -3.219,-0.01 c -1.89,0.05 -5.829,-4.79 -5.811,-5.04 l 0,0 z"
       id="path5293"
       style="fill:#ffdd00;fill-opacity:1;fill-rule:evenodd;stroke:#000000;stroke-width:1.26999211000000000;stroke-linecap:butt;stroke-linejoin:round;stroke-miterlimit:4;stroke-opacity:1;stroke-dasharray:none" />
    <g
       transform="matrix(0.96104,0,0,0.96104,5.90997,4.0595)"
       id="g5493"
       style="fill:#eac102;fill-opacity:1;stroke:#000000;stroke-width:1.3214767;stroke-miterlimit:4;stroke-opacity:1;stroke-dasharray:none">
      <path
         inkscape:connector-curvature="0"
         d="m 99.521,19.373 c -0.263,0 -0.53,0.012 -0.781,0.031 -0.298,0.023 -0.57,0.078 -0.844,0.125 -1.631,0.283 -2.781,0.959 -2.781,1.782 l 0,4.343 c -4.936,-2.862 -11.038,-4.406 -15.406,-4.406 -5.834,0 -8.871,0.688 -15.875,4.563 -5.824,3.221 -7.434,4.602 -11.5,3.718 -4.066,-0.883 -6.004,-2.98 -8.125,-3.687 -2.121,-0.707 -5.301,1.572 -5.5,2.25 -0.221,0.751 -0.917,-0.189 -1.094,-0.719 -0.177,-0.53 -4.177,1.742 -4,3.156 0.177,1.415 3.616,5.29 4.125,3.625 0.486,-1.591 1.163,-1.743 1.781,-1.125 0.625,0.625 2.928,1.901 3.282,4.375 0.353,2.475 -0.898,3.176 -1.782,2.469 -0.883,-0.707 -1.229,-1.043 -1.406,-1.75 -0.177,-0.707 -3.874,1.064 -3.344,1.594 0.531,0.53 1.576,3.865 2.813,4.219 1.237,0.353 1.25,1.949 1.25,2.656 0,0.707 2.125,0.552 2.125,0.375 0,-0.177 0.156,-2.5 0.156,-2.5 0,0 4.083,-0.342 3.906,-5.469 -0.176,-5.126 -3.018,-6.709 -1.781,-7.062 1.238,-0.354 7.416,2.823 12.719,3 5.303,0.176 12.485,-5.125 22.031,-5.125 7.083,0 13.02,3.292 15.625,5 l 0,1.718 c 0,0.824 1.15,1.499 2.781,1.782 0.274,0.047 0.546,0.102 0.844,0.125 0.251,0.019 0.518,0.031 0.781,0.031 l 0.125,0 0.219,0 c 0.345,0 0.685,0 1.005,-0.031 2.01,-0.18 3.53,-0.964 3.53,-1.907 l 0,-1.718 c 2.6,-1.708 8.54,-5 15.62,-5 9.55,0 16.73,5.301 22.03,5.125 5.31,-0.177 11.48,-3.354 12.72,-3 1.24,0.353 -1.6,1.936 -1.78,7.062 -0.18,5.127 3.91,5.469 3.91,5.469 0,0 0.15,2.323 0.15,2.5 0,0.177 2.13,0.332 2.13,-0.375 0,-0.707 0.01,-2.303 1.25,-2.656 1.24,-0.354 2.28,-3.689 2.81,-4.219 0.53,-0.53 -3.17,-2.301 -3.34,-1.594 -0.18,0.707 -0.53,1.043 -1.41,1.75 -0.88,0.707 -2.13,0.006 -1.78,-2.469 0.35,-2.474 2.66,-3.75 3.28,-4.375 0.62,-0.618 1.26,-0.466 1.75,1.125 0.51,1.665 3.98,-2.21 4.16,-3.625 0.17,-1.414 -3.83,-3.686 -4,-3.156 -0.18,0.53 -0.88,1.47 -1.1,0.719 -0.2,-0.678 -3.38,-2.957 -5.5,-2.25 -2.12,0.707 -4.06,2.804 -8.12,3.687 -4.07,0.884 -5.68,-0.497 -11.5,-3.718 -7.01,-3.875 -10.07,-4.563 -15.91,-4.563 -4.37,0 -10.44,1.544 -15.37,4.406 l 0,-4.343 c 0,-0.943 -1.52,-1.727 -3.53,-1.907 -0.04,-0.002 -0.07,0.003 -0.1,0 -0.25,-0.022 -0.52,-0.028 -0.78,-0.031 l -0.125,0 -0.344,0 0,0 z"
         id="rect5433"
         style="fill:#ffdd00;fill-opacity:1;stroke:#000000;stroke-width:1.32147670000000010;stroke-linecap:round;stroke-linejoin:round;stroke-miterlimit:4;stroke-opacity:1;stroke-dasharray:none" />
      <path
         inkscape:connector-curvature="0"
         d="m 41.896,28.395 c 0,0 6.806,3.712 13.523,3.712 6.718,0 14.496,-6.541 23.511,-6.541 7.781,0 14.618,4.699 18.582,7.173"
         id="path5473"
         style="fill:none;stroke:#000000;stroke-width:1.3214767;stroke-linecap:butt;stroke-linejoin:miter;stroke-miterlimit:4;stroke-opacity:1;stroke-dasharray:none" />
      <use
         transform="matrix(-1,0,0,1,199.512,5.0894e-7)"
         id="use5491"
         style="fill:none;stroke:#000000;stroke-width:1.3214767;stroke-miterlimit:4;stroke-opacity:1;stroke-dasharray:none"
         x="0"
         y="0"
         width="204"
         height="208"
         xlink:href="#path5473" />
    </g>
    <path
       inkscape:connector-curvature="0"
       d="m 98.466,23.147 0,-3.436 c 2.384,-1.039 4.234,-2.315 6.624,0 l 0,3.101 -6.624,0.335 z"
       id="path5460"
       style="fill:#ffdd00;fill-opacity:1;fill-rule:evenodd;stroke:#000000;stroke-width:1.26999211000000000;stroke-linecap:butt;stroke-linejoin:miter;stroke-miterlimit:4;stroke-opacity:1;stroke-dasharray:none" />
    <path
       inkscape:connector-curvature="0"
       d="m 101.55,22.338 c -0.27,0 -0.53,0.012 -0.78,0.031 -0.3,0.023 -0.57,0.078 -0.846,0.125 -1.627,0.282 -2.774,0.955 -2.774,1.775 l 0,4.329 0,9.126 0,1.713 c 0,0.82 1.147,1.493 2.774,1.775 0.276,0.047 0.546,0.102 0.846,0.124 0.25,0.019 0.51,0.032 0.78,0.032 l 0.12,0 0.22,0 c 0.34,0 0.68,0 1,-0.032 2.01,-0.178 3.52,-0.96 3.52,-1.899 l 0,-1.713 0,-9.126 0,-4.329 c 0,-0.939 -1.51,-1.721 -3.52,-1.9 -0.03,-0.002 -0.07,0.003 -0.1,0 -0.25,-0.022 -0.52,-0.028 -0.78,-0.031 l -0.12,0 -0.34,0 z"
       id="path5471"
       style="fill:#ffdd00;fill-opacity:1;stroke:#000000;stroke-width:1.26999211000000000;stroke-linecap:round;stroke-linejoin:round;stroke-miterlimit:4;stroke-opacity:1;stroke-dasharray:none" />
    <path
       inkscape:connector-curvature="0"
       d="m 97.766,172.44 0,-125.16 8.024,-0.042 -0.04,126.06 -7.984,-0.85 0,-0.008 z"
       id="path5400"
       style="fill:#ffdd00;fill-opacity:1;fill-rule:evenodd;stroke:#000000;stroke-width:1.26999211000000000;stroke-linecap:butt;stroke-linejoin:miter;stroke-miterlimit:4;stroke-opacity:1;stroke-dasharray:none" />
    <use
       transform="matrix(1,0,0,-1,0,350.452)"
       id="use5398"
       style="fill:#ffdd00;fill-opacity:1;stroke:#000000;stroke-width:1.26999211000000000;stroke-miterlimit:4;stroke-opacity:1;stroke-dasharray:none"
       x="0"
       y="0"
       width="204"
       height="208"
       xlink:href="#path5293" />
    <path
       inkscape:connector-curvature="0"
       d="m 97.575,47.087 8.405,0 c 0,0 -1.51,-2.27 -4.31,-2.27 -2.802,0 -4.095,2.158 -4.095,2.27 z"
       id="path5424"
       style="fill:#ffdd00;fill-opacity:1;fill-rule:evenodd;stroke:#000000;stroke-width:1.26999211000000000;stroke-linecap:round;stroke-linejoin:round;stroke-miterlimit:4;stroke-opacity:1;stroke-dasharray:none" />
    <use
       transform="matrix(1,0,0,1.06307,0,-7.42759)"
       id="use5426"
       style="fill:#ffdd00;fill-opacity:1;stroke:#000000;stroke-width:1.23174286000000000;stroke-miterlimit:4;stroke-opacity:1;stroke-dasharray:none"
       x="0"
       y="0"
       width="204"
       height="208"
       xlink:href="#path5424" />
    <use
       transform="matrix(1,0,0,-1,0,85.1257)"
       id="use5428"
       style="fill:#ffdd00;fill-opacity:1;stroke:#000000;stroke-width:1.26999211000000000;stroke-miterlimit:4;stroke-opacity:1;stroke-dasharray:none"
       x="0"
       y="0"
       width="204"
       height="208"
       xlink:href="#use5426" />
    <path
       inkscape:connector-curvature="0"
       d="m 99.472,14.616 0,2.553 c 0,0 -0.159,0.082 -0.18,0.09 -0.006,0.003 -0.053,-0.003 -0.06,0 -0.99,0.176 -2.376,0.521 -2.823,1.021 -0.18,0.201 -0.133,0.336 0,0.511 0.263,0.349 2.587,1.441 5.191,1.441 0.05,0 0.11,0.002 0.15,0 0.06,0.002 0.13,0 0.18,0 2.61,0 4.93,-1.092 5.2,-1.441 0.22,-0.277 0.15,-0.327 0,-0.511 -0.28,-0.346 -1.84,-0.847 -2.82,-1.021 -0.01,-0.001 -0.03,0.002 -0.03,0 -0.03,-0.01 -0.21,-0.09 -0.21,-0.09 l 0,-2.553 -0.33,0 -3.908,0 -0.36,0 0,0 z"
       id="path5455"
       style="fill:#ffdd00;fill-opacity:1;fill-rule:evenodd;stroke:#000000;stroke-width:1.26999211000000000;stroke-linecap:butt;stroke-linejoin:round;stroke-miterlimit:4;stroke-opacity:1;stroke-dasharray:none" />
    <path
       inkscape:connector-curvature="0"
       d="m 105,6.875 c 0,2.8994949 -2.35051,5.25 -5.25,5.25 -2.899495,0 -5.25,-2.3505051 -5.25,-5.25 0,-2.8994949 2.350505,-5.25 5.25,-5.25 2.89949,0 5.25,2.3505051 5.25,5.25 z"
       transform="matrix(1.05534,0,0,1.05534,-3.49122,3.34079)"
       id="path5437"
       style="fill:#ffdd00;fill-opacity:1;stroke:#000000;stroke-width:1.20339608000000010;stroke-miterlimit:4;stroke-opacity:1;stroke-dasharray:none" />
    <path
       inkscape:connector-curvature="0"
       d="m 157,42.411 c -0.18,1.622 -0.22,3.244 0,4.865 0,0 -3.06,-0.042 -3.06,0.661 0,0.703 0.38,13.442 -0.72,14.716 -1.11,1.274 -1.81,1.01 -2.32,0.33 -0.51,-0.679 -2.02,-0.58 -2.19,-0.24 -0.17,0.34 -0.54,2.423 0.54,3.123 1.51,0.978 5.28,0.95 5.62,-2.703 0.34,-3.652 0.33,-6.787 1.74,-6.787 0.51,0 0.48,1.74 0.48,3.694 0,1.954 -0.17,2.459 -0.51,2.883 -0.34,0.425 -0.26,4.505 0,4.505 l 2.55,0 c 0.26,0 0.34,-4.08 0,-4.505 -0.34,-0.424 -0.51,-0.929 -0.51,-2.883 0,-1.954 -0.24,-3.694 0.27,-3.694 1.53,0 1.34,2.804 1.68,6.457 0.34,3.653 3.86,3.748 5.56,3.154 1.7,-0.595 0.87,-3.047 0.72,-3.394 -0.23,-0.52 -1.23,-0.079 -1.86,0.3 -0.73,0.438 -1.45,0.944 -2.55,-0.33 -1.11,-1.274 -1.21,-13.923 -1.21,-14.626 0,-0.703 -2.79,-0.661 -2.79,-0.661 -0.07,-1.621 -0.3,-3.243 0,-4.865 -0.73,0.399 -1.1,0.232 -1.44,0 l 0,0 z m 0.78,5.856 c 0.82,0 1.47,0.144 1.47,0.331 l 0,2.282 c 0,0.187 -0.65,0.331 -1.47,0.331 -0.81,0 -1.47,-0.144 -1.47,-0.331 l 0,-2.282 c 0,-0.187 0.66,-0.331 1.47,-0.331 l 0,0 z"
       id="path5502"
       style="fill:#ffdd00;fill-opacity:1;fill-rule:evenodd;stroke:#000000;stroke-width:1.26999211000000000;stroke-linecap:butt;stroke-linejoin:miter;stroke-miterlimit:4;stroke-opacity:1;stroke-dasharray:none" />
    <path
       inkscape:connector-curvature="0"
       d="m 116,153.27 c 26.07,14.61 59.1,13.79 84.94,0 2.14,-1.29 -28.24,-4.64 -42.61,-4.64 -25.69,0 -42.8,2.55 -42.33,4.64 l 0,0 z"
       id="path5566"
       style="fill:#7f7f7f;fill-opacity:1;fill-rule:evenodd;stroke:#000000;stroke-width:1.26999211;stroke-linecap:butt;stroke-linejoin:miter;stroke-miterlimit:4;stroke-opacity:1;stroke-dasharray:none" />
    <path
       inkscape:connector-curvature="0"
       d="m 159.32,62.774 c 1.51,6.885 -1.28,4.115 -1.38,5.447 l -0.15,94.959"
       id="use5532"
       style="fill:#ffdd00;fill-opacity:1;stroke:#000000;stroke-width:1.26999211000000000;stroke-linecap:round;stroke-linejoin:miter;stroke-miterlimit:4;stroke-opacity:1;stroke-dasharray:none" />
    <use
       transform="matrix(-1,0,0,1,315.813,0)"
       id="use5572"
       style="fill:#ffdd00;fill-opacity:1;stroke:#000000;stroke-width:1.26999211000000000;stroke-miterlimit:4;stroke-opacity:1;stroke-dasharray:none"
       x="0"
       y="0"
       width="204"
       height="208"
       xlink:href="#use5570" />
    <use
       transform="matrix(-1,0,0,1,203.568,0)"
       id="use5512"
       style="fill:#ffdd00;fill-opacity:1;stroke:#000000;stroke-width:1.26999211000000000;stroke-miterlimit:4;stroke-opacity:1;stroke-dasharray:none"
       x="0"
       y="0"
       width="204"
       height="208"
       xlink:href="#path5502" />
    <path
       inkscape:connector-curvature="0"
       d="m 163.53,63.391 c -0.21,0.065 -0.25,0.593 -0.11,1.158 0.15,0.565 0.46,1.167 0.75,2.126 10.11,30.411 21.17,60.505 31.81,90.735"
       id="use5570"
       style="fill:#ffdd00;fill-opacity:1;stroke:#000000;stroke-width:1.26999211000000000;stroke-linecap:round;stroke-linejoin:miter;stroke-miterlimit:4;stroke-opacity:1;stroke-dasharray:none" />
    <path
       inkscape:connector-curvature="0"
       d="m 116,153.5 c 28.45,12.58 59.1,10.06 84.94,0 -0.58,2.94 -15.18,20.96 -43.63,20.95 -28.06,0 -41.31,-18.91 -41.31,-20.95 z"
       id="path5536"
       style="fill:#ffdd00;fill-opacity:1;fill-rule:evenodd;stroke:#000000;stroke-width:1.26999211000000000;stroke-linecap:butt;stroke-linejoin:miter;stroke-miterlimit:4;stroke-opacity:1;stroke-dasharray:none" />
    <path
       inkscape:connector-curvature="0"
       d="m 44.353,62.774 c -1.505,6.885 1.282,4.115 1.381,5.447 l 0.15,94.959"
       id="path5578"
       style="fill:#ffdd00;fill-opacity:1;stroke:#000000;stroke-width:1.26999211000000000;stroke-linecap:round;stroke-linejoin:miter;stroke-miterlimit:4;stroke-opacity:1;stroke-dasharray:none" />
    <use
       transform="matrix(-1,0,0,1,203.491,0)"
       id="use5580"
       style="fill:#ffdd00;fill-opacity:1;stroke:#000000;stroke-width:1.26999211000000000;stroke-miterlimit:4;stroke-opacity:1;stroke-dasharray:none"
       x="0"
       y="0"
       width="204"
       height="208"
       xlink:href="#use5570" />
    <path
       inkscape:connector-curvature="0"
       d="m 51.21,63.391 c -0.214,0.065 -0.255,0.593 -0.11,1.158 0.144,0.565 0.454,1.167 0.749,2.126 10.112,30.411 21.172,60.505 31.814,90.735"
       id="path5584"
       style="fill:#ffdd00;fill-opacity:1;stroke:#000000;stroke-width:1.26999211000000000;stroke-linecap:round;stroke-linejoin:miter;stroke-miterlimit:4;stroke-opacity:1;stroke-dasharray:none" />
    <path
       inkscape:connector-curvature="0"
       d="m 3.6768,153.5 c 28.452,12.58 59.096,10.06 84.945,0 -0.582,2.94 -15.183,20.96 -43.633,20.95 -28.063,0 -41.312,-18.91 -41.312,-20.95 l 0,0 z"
       id="path5586"
       style="fill:#ffdd00;fill-opacity:1;fill-rule:evenodd;stroke:#000000;stroke-width:1.26999211000000000;stroke-linecap:butt;stroke-linejoin:miter;stroke-miterlimit:4;stroke-opacity:1;stroke-dasharray:none" />
  </g>
  <use
     style="fill:url(#rg-1);stroke:#000000;stroke-width:3"
     id="shine"
     xlink:href="#shield"
     x="0"
     y="0"
     width="1"
     height="1" />
</svg>
