<?xml version="1.0" encoding="UTF-8"?>
<svg xmlns="http://www.w3.org/2000/svg" xmlns:xlink="http://www.w3.org/1999/xlink" width="600" height="660">
<style id="style_css_sheet" type="text/css">
.lion {
  fill:#ffcc00;stroke:#cc0000;
}
.secondary {
  fill:#ff9900;
}
.lion-detail {
  fill:#cc0000;stroke:none;
}
</style>
<defs>
  <radialGradient id="rg" gradientUnits="userSpaceOnUse" cx="220" cy="220" r="405">
    <stop style="stop-color:#fff;stop-opacity:.3" offset="0"/>
    <stop style="stop-color:#fff;stop-opacity:.2" offset=".2"/>
    <stop style="stop-color:#666;stop-opacity:.1" offset=".6"/>
    <stop style="stop-color:#000;stop-opacity:.13" offset="1"/>
  </radialGradient>
  <path id="shield" d="m2,2v257c0,286 298,398 298,398c0,0 298-112 298-398V2z"/>
</defs>
<use id="shine" xlink:href="#shield" fill="#ffff00"/>
<path style="fill:#ffffff" d="M 2 2 L 2 200 L 598 200 L 598 2 L 2 2 z " />
<g id="castle" style="fill:#dd0000;stroke:#660000;stroke-width:2;stroke-linecap:butt;stroke-linejoin:round;" transform="matrix(0.24948982,0,0,0.24948982,-12.17731,27.421032)">
  <g id="towers">
    <g id="tower">
	  <path d="m 259.4,63.97 v 186.23 l 22.7,-16.8 v -173.45 z" />
	  <path d="m 342.5,63.97 v 186.23 l -22.6,-16.8 v -173.45 z" />
	  <path d="m 331.2,242.6 v -180.39 h -60.4 v 180.39 z" />
	  <path d="m 270.8,62.21 -11.4,6.67 -13.8,-10.95 13.8,-6.92 z" />
	  <path d="m 259.4,28.47 -13.8,8.56 v 20.9 l 13.8,-6.92 z" />
	  <path d="m 331.2,62.21 11.3,-11.2 h -83.1 l 11.4,11.2 z" />
	  <path d="m 342.5,51.01 v -22.54 h -16.3 v 10.45 h -16.4 v -10.45 h -17.6 v 10.45 h -16.4 v -10.45 h -16.4 v 22.54 z" />
	  <path style="fill:none;" d="m 259.4,166.6 11.4,-6.2 h 60.4 l 11.3,6.2 m -83.1,39.1 11.4,-6 h 60.4 l 11.3,6 m -83.1,-19.5 11.4,-6.1 h 60.4 l 11.3,6.1 m -83.1,-97.8 11.4,-6.55 h 60.4 l 11.3,6.55 m -83.1,19.6 11.4,-6.5 h 60.4 l 11.3,6.5 m -83.1,19.6 11.4,-6.5 h 60.4 l 11.3,6.5 m -83.1,19.5 11.4,-6.3 h 60.4 l 11.3,6.3" />
	  <path d="m 331.2,62.21 11.3,6.67 13.9,-10.95 -13.9,-6.92 z" />
	  <path d="m 342.5,28.47 13.9,8.56 v 20.9 l -13.9,-6.92 z" />
	  <path style="fill:none;" d="m 301,160.4 v 19.7 m 0,-98.25 v 19.65 m 0,19.6 v 19.7 m 10.1,19.6 v -19.6 m 0,-58.95 v -19.64 m 0,137.49 v -19.6 m -20.2,-19.7 v -19.6 m 0,-58.95 v -19.64 m 0,137.49 v -19.6" />
	  <path style="fill:#440000" d="m 313.6,133.6 c 0,0 1.2,-22.3 1.2,-33 0,-10.69 -6.3,-13.84 -13.8,-13.84 -7.6,0 -13.9,3.15 -13.9,13.84 0,10.7 1.3,33 1.3,33 z" />  	
	</g>
    <use xlink:href="#tower" transform="translate(104.4,44.82)"/>
    <use xlink:href="#tower" transform="translate(-104.4,44.82)"/>
  </g>
  <g id="base">
    <path d="m 459.6,207.1 -9.3,2.2 v 15.3 l 13.4,-3 v -9.9 z" />
    <path d="m 141.9,207.1 9.3,2.2 v 15.3 l -13.4,-3 v -9.9 z" />
    <path d="m 179,193 -18.5,7.1 v 13.8 l -18.6,5.4 v -12.2 l -18.5,7.1 v 36.7 l 16.3,14.3 v 160.9 l -26.4,22.6 v 51.3 l 59.4,29.3 h 256.1 l 59.4,-29.3 v -51.3 l -26.4,-22.6 v -160.9 l 16.3,-14.3 v -36.7 l -18.5,-7.1 v 12.2 l -18.6,-5.4 v -13.8 l -18.5,-7.1 h -49.1 v 18.5 h -48.6 v -18.5 h -48.1 v 18.5 h -48.6 v -18.5 z" />
    <path d="m 342.4,529.3 c 0,0 1.5,-27.8 1,-59.8 -0.5,-32 -21.6,-43.1 -42.7,-43.1 -21,0 -42.1,11.1 -42.6,43.1 -0.5,32 1,59.8 1,59.8 z" />
    <path style="fill:none;" d="m 341.4,454.6 -17.4,5.1 m 19,55.2 h -17.1 m 17.5,-44.1 h -17.7 m 17.8,14.7 h -17.6 m 17.5,14.7 h -17.5 m -18,-57.9 4.7,-14.6 m 6.4,21.8 12.8,-11.6 m -71.7,16.7 17.4,5.1 m -19.1,55.2 h 17.2 m -17.5,-44.1 h 17.7 m -17.9,14.7 h 17.7 m -17.5,14.7 h 17.5 m 18,-57.9 -4.7,-14.6 m -6.4,21.8 -12.9,-11.6" />
    <path style="fill:none;" d="m 123.5,250.9 55.4,-12.8 h 243.7 l 55.4,12.8 m -16.2,175.2 -58.7,13.2 h -69.9 m 155,9.4 -59.4,29 h -85.3 m -0.2,25.8 h 85.6 l 58.9,-29.2 m -26,-101.9 -58.7,5.6 h -204.7 l -58.7,-5.6 m 322.1,-80.4 -58.7,-6.1 h -204.7 l -58.7,6.1 m 0,-26.8 58.7,-10 h 204.7 l 58.7,10 m -322.1,160.9 58.7,13.2 h 69.9 m -155,9.4 59.4,29 h 85.2 m -144.2,-3.4 58.9,29.2 h 85.6 m -118.5,-104.3 58.7,9.4 h 204.7 l 58.7,-9.4 m -322.1,-53.6 58.7,1.6 h 204.7 l 58.7,-1.6 m -322.1,-26.8 58.7,-2.3 h 204.7 l 58.7,2.3" />
    <path style="fill:none;" d="m 422.5,193 v 45.1 l -19.4,17.1 v 184.1 l 25.7,38.4 v 51.6 m 3.6,-154.1 v 28.7 m 0,-86.2 v 28.3 m 0,86.6 26.1,30.6 m -26.1,-203.1 v 28.9 m -63.4,27.5 v -30.6 m -34.3,0 v -30.7 m 34.3,122.8 v -30.8 m -34.3,0 v -30.7 m 30.3,187 v -25.8 m 42.5,25.8 v -25.8 m -24.7,51.6 v -25.8 m 0,-26.1 -13.8,-38.1 v -30.7 m -34.3,0 v -30.6 m -102.2,-61.5 v -30.6 m 34.3,0 v -30.7 m -34.3,122.8 v -30.8 m 34.3,0 v -30.7 m -30.3,187 v -25.8 m -42.5,25.8 v -25.8 m 24.7,51.6 v -25.8 m 0,-26.1 13.8,-38.1 v -30.7 m 34.3,0 v -30.6 m 206.6,77.9 -0.3,25.7 m -25.9,-80.1 v 27.8 m 0,-82.9 v 27.4 m 0,-83.3 v 27.8 m -3.6,152.1 v 25.8 m -25.8,-90 v 29.8 m 0,-89.1 v 29.7 m 0,-89.2 v 29.8 m 40.6,197.5 v -25.8 m -289.3,-113.7 v 28.7 m 0,-86.2 v 28.3 m -26,168.7 v -25.8 m 26,-56.3 -26.1,30.6 m 26.1,-203.1 v 28.9 m -41,166.9 0.3,25.7 m 25.9,-80.1 v 27.8 m 0,-82.9 v 27.4 m 0,-83.3 v 27.8 m 3.5,152.1 v 25.8 m 25.9,-90 v 29.8 m 0,-89.1 v 29.7 m 0,-89.2 v 29.8 m -11,212.1 v -51.6 l 25.7,-38.4 v -184.1 l -19.4,-17.1 v -45.1" />
    <path style="fill:none;" d="m 432.8,258.4 a 8.024,19.36 58.89 0 0 -21.3,-4.2 m 46.5,9.1 a 8.024,19.36 58.89 0 0 -21.3,-4.2 m -104.2,-5.6 a 14.6,11.96 0 0 0 -29.2,0 m 63.9,0 a 14.6,11.96 0 0 0 -29.2,0 m 64,0 a 14.6,11.96 0 0 0 -29.2,0 m -204.1,4.9 a 19.36,8.024 31.11 0 1 21.3,-4.2 m -46.5,9.1 a 19.36,8.024 31.11 0 1 21.3,-4.2 m 104.2,-5.6 a 14.6,11.96 0 0 1 29.2,0 m -63.9,0 a 14.6,11.96 0 0 1 29.2,0 m -64,0 a 14.6,11.96 0 0 1 29.2,0" />
	<g style="fill:#440000">
	  <path d="m 386.2,369.5 c 0,0 0.7,-35.5 0.4,-52.7 -0.2,-17.1 -8.8,-22.4 -17.7,-22.2 -9,0.3 -17.2,4.4 -17.5,22.7 -0.5,18.1 0,52.2 0,52.2 z" />
      <path d="m 215.3,369.5 c 0,0 -0.7,-35.5 -0.4,-52.7 0.2,-17.1 8.8,-22.4 17.7,-22.2 9,0.3 17.2,4.4 17.5,22.7 0.5,18.1 0,52.2 0,52.2 z" />
      <path d="m 275.7,529.3 c 0,0 -0.3,-31.3 0,-56 0.4,-24.6 12.6,-31.8 25,-31.8 12.5,0 24.7,7.2 25.1,31.8 0.2,24.7 0,56 0,56 z" />
	</g>
  </g>
</g>
<g id="serpent" style="fill:#24b856;stroke:#003000;stroke-width:0.5;stroke-linecap:round;stroke-linejoin:round;" transform="matrix(0.58623535,0,0,0.58623535,123.37505,74.261255)">
  <g id="body-1">
    <path d="m 147.67637,-23.12669 c 0.3535,1.225812 0.63855,2.470737 0.84391,3.730099 0.97114,5.484763 0.38588,11.3840028 -2.13437,16.9024291 -1.56575,3.42850323 -3.96846,6.3880443 -6.98122,8.6398277 0.0597,0.5750587 0.2698,1.0827017 0.70974,1.354622 -0.98743,-0.00125 -1.87225,0.9703339 -2.3748,2.0008465 -0.50456,1.0345637 -0.69222,2.2739207 -0.008,2.9095347 -1.84959,-0.373 -4.31635,2.995625 -3.19927,4.41454 -0.54235,-0.202121 -1.15892,-0.07488 -1.7325,0.224911 -1.38989,0.711308 -2.73864,2.520681 -2.07344,3.653615 -1.69534,-0.91151 -4.9974,1.671332 -4.30498,3.328891 -1.56041,-1.133762 -5.1693,0.988195 -4.7127,2.715741 -1.38741,-1.332835 -5.24155,0.26935 -5.03613,2.034549 -0.61157,-0.782536 -1.927,-0.86494 -3.05471,-0.58853 -1.12742,0.276348 -2.18584,0.941161 -2.21796,1.871221 -0.50007,-0.886651 -1.8453,-1.159512 -3.02815,-1.036395 -1.16517,0.122289 -2.23243,0.681368 -2.33465,1.590558 -0.82777,-1.828087 -5.12855,-1.416808 -5.3174,0.468598 -0.852924,-1.826306 -5.15324,-1.343183 -5.307713,0.54576 -0.887867,-1.816072 -5.179918,-1.238467 -5.288234,0.653323 -0.932607,-1.796994 -5.206897,-1.099697 -5.25713,0.794614 -0.986965,-1.768761 -5.236171,-0.930411 -5.216329,0.966421 -1.050605,-1.731134 -5.267978,-0.72908 -5.165745,1.170549 -1.123214,-1.683723 -5.300865,-0.49658 -5.103522,1.406485 -1.723508,-1.644089 -5.191294,0.126403 -5.008877,1.704632 -1.32176,-1.563755 -5.325924,0.185302 -4.873443,2.052672 -1.42654,-1.467956 -5.301317,0.55257 -4.721768,2.384557 -1.523857,-1.366575 -5.251297,0.913454 -4.548067,2.701468 -1.613724,-1.259375 -5.176557,1.269835 -4.352969,3.005497 -1.696003,-1.146317 -5.077246,1.620798 -4.136475,3.295816 -1.770467,-1.027214 -4.954154,1.965703 -3.899259,3.571964 -1.837042,-0.902015 -4.805526,2.305014 -3.639366,3.834452 -2.309128,-0.674884 -4.421063,2.817686 -3.288053,4.091736 -0.972855,-0.266678 -2.054993,0.522631 -2.676208,1.606135 -0.621265,1.08353 -0.716587,2.344272 0.04152,2.903703 -1.002794,-0.109496 -1.947428,0.839917 -2.389725,2.00797 -0.442435,1.168354 -0.335937,2.426776 0.502312,2.856392 -1.11402,0.05895 -1.944819,1.382291 -2.09287,2.741666 -0.103977,1.10277 0.249319,2.112299 1.056488,2.365067 -0.980519,0.222842 -1.549983,1.43142 -1.569173,2.682704 -0.01919,1.25121 0.512033,2.40277 1.447323,2.529072 -0.929195,0.385216 -1.290505,1.67251 -1.103159,2.909547 0.187385,1.237287 0.900649,2.28477 1.843991,2.252987 -0.738938,0.463757 -0.949037,1.527018 -0.731764,2.586755 0.28277,1.383758 1.249742,2.595672 2.300937,2.395532 -1.584299,1.378691 0.418655,5.343397 2.27954,4.710781 -1.374903,1.58327 1.154846,5.232545 2.914727,4.352305 -1.147521,1.75577 1.859531,5.02226 3.483778,3.91288 -0.431573,0.90908 0.158135,2.10487 1.110282,2.90304 0.952449,0.79846 2.177783,1.12591 2.87779,0.49067 -0.374267,1.18783 0.864977,2.57528 2.256863,3.08325 0.848283,0.32789 1.690948,0.29517 2.151857,-0.26057 -0.165886,0.99721 0.724239,2.00162 1.855656,2.5239 1.13099,0.52207 2.394679,0.514 2.888776,-0.28908 -0.02383,1.01182 0.998743,1.88141 2.192044,2.24066 0.729218,0.21953 1.478566,0.23529 2.037771,0.0183 -0.405422,-0.57228 -0.590097,-1.21454 -0.385642,-1.79018 -0.719059,0.60848 -1.92484,0.22768 -2.837604,-0.62481 -0.912425,-0.8523 -1.431645,-2.08532 -0.947569,-2.96851 -0.807759,0.48625 -1.939113,-0.0815 -2.705394,-1.06752 -0.766318,-0.98602 -1.083492,-2.28489 -0.466014,-3.07934 -0.874334,0.35185 -1.900984,-0.38758 -2.499911,-1.48232 -0.599065,-1.09512 -0.703067,-2.42597 0.03437,-3.10853 -0.918608,0.20518 -1.81079,-0.68972 -2.221217,-1.86863 -0.410602,-1.179438 -0.290006,-2.509264 0.554151,-3.056654 -0.913291,0.0449 -1.628524,-0.929558 -1.852395,-2.123988 -0.233427,-1.274476 0.133001,-2.627179 1.094718,-3.013248 -0.934137,-0.134643 -1.448339,-1.294192 -1.394181,-2.553705 0.01831,-0.425803 0.105858,-0.839917 0.245669,-1.213319 -0.331121,-0.77733 -0.622582,-1.568834 -0.858794,-2.374172 -0.804285,-2.757131 -1.042654,-5.694786 -0.509462,-8.367619 0.506238,-2.979308 2.10298,-5.977493 4.27389,-8.630082 7.326696,-8.790036 17.39719,-15.701527 28.758378,-19.376427 11.501073,-3.814648 24.122213,-4.86874 37.722921,-6.031676 12.94299,-1.103221 25.26351,-7.21404 34.16846,-16.945211 4.24741,-4.585481 7.70157,-10.140305 9.78188,-16.425389 2.04288,-6.2616164 2.45019,-13.0774586 0.99167,-19.6991813 -1.11004,-5.1446237 -3.46526,-10.0163867 -6.86326,-14.1179927 z"/>
    <path style="fill:none;" d="m 144.39157,0.9870447 c -0.16401,2.153601 -0.58342,4.284726 -1.24056,6.3201019 -1.4708,4.6019624 -4.14029,8.8369074 -7.42457,12.4282494 -6.83767,7.476967 -15.80768,12.444303 -28.15063,13.625501 -12.34291,1.181222 -26.087464,2.284669 -39.035184,6.492359 -13.533126,4.444793 -25.135944,12.626006 -33.596791,22.794094 -3.244881,3.876268 -5.567542,8.513776 -6.514547,13.508078 -0.822446,4.535098 -0.460647,9.12946 0.82508,13.344751 2.547823,8.363568 8.258838,15.299921 15.338473,19.529371 0.656672,0.40164 1.326188,0.78072 2.004722,1.14075 m -22.565958,-133.287307 0.01819,0.01129 0.0013,-0.0088 c -0.0063,-0.001 -0.01292,-0.0025 -0.01944,-0.0038 z m 10.055393,5.834647 c -0.155401,0.175845 -0.353383,0.293568 -0.578821,0.366202 l 0.560007,0.366201 c -0.04829,-0.255715 -0.05017,-0.50388 0.01894,-0.732403 z"/>
  </g>
  <g id="body-2">
    <path d="m 133.41387,-17.360111 c -0.25988,-1.25146 -0.094,-2.685062 0.62806,-3.228426 -0.92046,0.127243 -1.787,-0.786424 -2.32363,-1.770743 -0.53425,-0.979954 -0.86328,-2.248873 -0.34416,-3.077415 -0.4796,0.231897 -1.04467,0.129689 -1.58019,-0.123794 -1.22108,-0.606916 -2.78125,-2.303019 -2.50704,-3.63287 -0.63476,0.66485 -1.86929,0.480991 -2.89853,0.03374 -1.03106,-0.448091 -2.08307,-1.25955 -2.1888,-2.244546 -0.23031,0.477353 -0.73064,0.740343 -1.30537,0.856863 -1.36023,0.29555 -3.34451,-0.26649 -3.93684,-1.40779 -0.18354,0.08504 -0.36722,0.170113 -0.54768,0.259917 -0.22122,0.192652 -0.50887,0.333115 -0.82771,0.43491 -2.92229,1.614401 -5.40135,3.858019 -7.22631,6.454281 -2.87577,4.091283 -4.25,8.761627 -4.04541,13.375705 0.20458,4.6140658 1.66755,8.8600481 4.16563,12.4470127 2.45186,3.5986039 5.98931,6.4998853 10.31368,8.214438 4.80737,1.7597683 9.88737,1.7671053 14.47685,0.189416 5.91224,-2.090663 10.59937,-6.3958332 13.11959,-11.9142595 2.52025,-5.5184262 3.10511,-11.4182312 2.13393,-16.9029932 -0.95862,-5.878934 -3.55151,-11.469981 -7.59081,-16.0483 -4.55039,-5.04806 -10.59476,-8.413424 -17.14433,-9.698774 -5.1307,-1.090554 -10.87545,-1.476974 -16.85454,-0.33363 -4.56508,0.91585 -8.967145,3.02263 -12.674593,6.301314 -6.691672,6.514158 -9.241225,14.845291 -10.864017,22.25014 -1.38648,6.326774 -3.27531,13.9421847 -10.525823,15.8141702 -7.979017,2.06007196 -12.758229,-2.3521856 -15.629208,-6.0243259 -1.51292,-1.9350866 -2.791484,-4.8806803 -4.587162,-8.4153303 -1.777942,-3.837337 -4.463844,-7.892035 -8.549446,-11.346614 -5.911156,-4.449822 -12.511494,-6.415713 -18.509518,-7.10477 l -1.920061,13.580687 c 0.163002,0.984971 1.323392,1.666114 2.528671,1.891339 1.186189,0.221675 2.434627,0.0063 2.820708,-0.854354 0.121788,1.02325 1.216568,1.802952 2.258419,2.215523 1.021808,0.404619 2.21916,0.554828 2.808931,-0.112631 -0.500331,1.657773 2.420404,4.308669 3.919616,3.922036 -0.819123,1.231405 0.743039,4.6481306 2.39424,4.7520698 -0.99118,1.0745617 1.065343,5.0776345 2.512792,4.6727016 -0.428764,0.628201 -0.173237,1.9494852 0.439236,3.00445561 0.620325,1.06841589 1.589141,1.79852433 2.430024,1.4047918 -0.261334,0.39839832 -0.307302,0.92307399 -0.194132,1.47519259 0.424637,1.6437505 2.540887,3.1405913 3.644861,2.4873054 -0.388967,0.8221825 0.266903,1.9037805 1.258446,2.6523389 0.986075,0.7444319 2.212225,1.1073978 2.788124,0.6879282 -0.181327,0.7514432 0.677217,1.6513387 1.782382,2.2335591 1.098204,0.578546 2.325759,0.79938 2.738643,0.408181 -0.133138,1.062007 3.793965,2.994798 4.778999,1.844769 0.190821,0.563419 1.331657,1.114735 2.549328,1.333551 1.214874,0.218301 2.400524,0.08679 2.622137,-0.379435 0.296666,0.525491 1.520571,0.840746 2.758046,0.815385 1.234027,-0.02534 2.373847,-0.38543 2.50247,-0.873594 0.916213,0.959522 4.832166,0.131658 4.976554,-1.186328 0.487124,0.351114 1.733266,0.127507 2.845067,-0.421263 1.109316,-0.547515 1.980465,-1.366173 1.881379,-1.8705178 1.215175,0.1959507 4.021874,-1.3506962 3.998721,-3.1746064 0.591326,0.1072379 1.680425,-0.6059884 2.497941,-1.5324489 0.820176,-0.9294706 1.289916,-1.9987018 0.874861,-2.4619069 0.711533,0.045404 1.732438,-0.8055889 2.401051,-1.83834662 0.670382,-1.03547942 0.932142,-2.18543378 0.357573,-2.62824488 0.811948,-0.013797 1.748329,-0.9791262 2.263862,-2.0937109 0.516836,-1.1173565 0.57265,-2.3217074 -0.142295,-2.7368374 0.892421,-0.070112 1.728525,-1.1264623 2.086487,-2.298529 0.358902,-1.1751392 0.212055,-2.4074852 -0.624677,-2.7876972 0.905628,-0.117773 1.602586,-1.13992 1.836666,-2.278034 0.324687,-1.211751 0.160293,-2.546607 -0.730936,-2.944365 1.000875,-0.122665 1.754902,-1.218286 2.086486,-2.341788 0.329039,-1.114999 0.274153,-2.363512 -0.515532,-2.853758 0.35455,0.0025 0.693409,-0.121286 1.003499,-0.322705 0.71978,-0.467194 1.3274,-1.381375 1.65241,-2.241386 0.32021,-0.847317 0.41825,-1.769877 -0.0872,-2.327803 1.8755,0.311053 4.69163,-1.837794 4.34565,-3.566533 0.86639,0.834788 2.74163,0.585858 3.95388,9.91e-4 0.71246,-0.357522 1.31327,-0.875927 1.36926,-1.555915 0.44657,0.8645 1.70137,1.227491 2.83216,1.239808 1.14655,0.01254 2.35698,-0.339273 2.64609,-1.238165 0.33185,1.37272 2.58042,2.07807 4.07252,1.75386 0.57474,-0.116519 1.07547,-0.379183 1.30577,-0.856536 0.10573,0.984996 1.15747,1.796016 2.18853,2.244107 1.02925,0.447289 2.26384,0.631362 2.8986,-0.03349 -0.27424,1.329851 1.286,3.025615 2.50709,3.632531 0.53551,0.253483 1.10028,0.355942 1.57991,0.124045 -0.51911,0.828529 -0.18962,2.097386 0.34466,3.07734 0.53664,0.984319 1.40304,1.898036 2.3235,1.770793 -1.37516,1.034865 -0.7496,5.306634 1.03906,5.377436 -1.24421,0.432727 -2.02546,4.526444 -0.83853,5.4460944 -1.85963,0.235798 -3.62452,3.495643 -2.92892,4.6955539 -1.80376,-0.8157608 -4.88752,0.3538099 -5.28044,1.923259 -0.83766,-1.5380177 -3.88425,-3.131034 -5.21794,-2.4250196 0.54902,-1.7776663 -1.10955,-4.8335957 -2.34902,-5.0309017 1.21544,-0.695654 1.33451,-4.61838 0.93274,-5.339031 1.11257,0.187547 3.96434,-2.226862 4.01051,-3.568578 0.9617,1.109217 4.61436,0.891204 5.46938,-0.360131 0.0977,1.64582 3.1063,2.911014 4.53506,2.509669 z m -47.295492,124.900811 c 0.764224,-0.99875 1.011323,-2.24144 0.329302,-2.88791 0.976141,0.23026 2.019911,-0.60631 2.578451,-1.73161 0.558979,-1.12618 0.559569,-2.39011 -0.236801,-2.88828 1.002756,0.0337 1.863845,-0.99074 2.186901,-2.207483 0.323395,-1.217897 0.06397,-2.457204 -0.824816,-2.77883 0.172295,-0.03048 0.334206,-0.09143 0.484866,-0.17883 0.790073,-0.46165 1.227153,-1.633277 1.193075,-2.766563 -0.03412,-1.133574 -0.531825,-2.109778 -1.380535,-2.238476 0.937448,-0.369111 1.321435,-1.654048 1.14263,-2.899914 -0.178868,-1.24618 -0.894804,-2.289624 -1.835174,-2.246804 1.522277,-0.976843 0.666293,-4.312332 -0.947469,-4.874986 v 0 c -0.238168,-0.08027 -0.482683,-0.09482 -0.726421,-0.03223 0.719648,-0.703531 0.554126,-2.033031 -0.131984,-3.099038 -0.686072,-1.065908 -1.785367,-1.707341 -2.623454,-1.272018 0.541019,-0.848158 0.08479,-2.109627 -0.818219,-2.998285 -0.903432,-0.889171 -2.114857,-1.27203 -2.83359,-0.659394 0.3139,-0.882135 -0.288739,-1.925403 -1.252877,-2.605844 -1.112365,-0.78004 -2.517056,-0.955396 -3.1208,-0.146634 0.11815,-1.000674 -0.835741,-1.940981 -2.024664,-2.358883 -1.18836,-0.417701 -2.446079,-0.258111 -2.843474,0.597472 -0.09031,-1.003521 -1.215839,-1.730945 -2.463738,-1.90215 -1.24786,-0.171229 -2.449339,0.234494 -2.66912,1.152137 -0.287912,-0.966195 -1.53551,-1.456743 -2.792075,-1.377424 -1.257192,0.07939 -2.352361,0.715772 -2.38373,1.657798 -0.474782,-0.888206 -1.794485,-1.118799 -3.00956,-0.784631 -1.216179,0.334507 -2.15552,1.185149 -1.987301,2.114431 -0.332814,-0.393381 -0.847781,-0.575334 -1.433865,-0.57334 -1.755504,0.01003 -3.71486,1.624974 -3.169125,2.94439 -0.800096,-0.613389 -2.099468,-0.277326 -3.071922,0.526845 -0.972428,0.804184 -1.484474,1.962542 -0.95374,2.739748 -0.909578,-0.436026 -2.115999,0.155965 -2.906136,1.139744 -0.7905,0.984244 -1.055095,2.220453 -0.373865,2.869988 -0.961642,-0.23349 -2.001536,0.555656 -2.579718,1.652957 -0.572149,1.156502 -0.561099,2.470912 0.261535,2.972861 -1.004023,-0.02258 -1.842184,1.018961 -2.141673,2.243393 -0.299464,1.224431 -0.02195,2.46444 0.865993,2.783344 -0.98852,0.180925 -1.60606,1.369285 -1.660281,2.628333 -0.05418,1.259488 0.460245,2.419275 1.394406,2.553906 -0.961742,0.386082 -1.328107,1.738346 -1.094654,3.012859 0.22387,1.19443 0.939078,2.168915 1.852369,2.124013 -0.844132,0.54739 -0.964953,1.877053 -0.554364,3.056488 0.410439,1.1789 1.302897,2.07388 2.221493,1.86869 -0.737445,0.68256 -0.633569,2.01359 -0.03449,3.1087 0.598889,1.09471 1.625438,1.83424 2.499772,1.48239 -0.617477,0.79445 -0.300191,2.09328 0.466153,3.07932 0.766281,0.98596 1.897497,1.55393 2.70523,1.06766 -0.484038,0.88319 0.03499,2.11623 0.947432,2.96852 0.912764,0.85253 2.118821,1.23303 2.837867,0.62454 -0.336953,0.94864 0.371582,2.08245 1.409445,2.77622 1.038364,0.6941 2.289222,0.87178 2.897644,0.15301 -0.380939,1.52845 2.814237,3.74091 4.740606,2.15668 -0.0063,1.00627 1.033849,1.84357 2.232267,2.17055 1.198218,0.32693 2.445226,0.11527 2.811315,-0.75337 0.130655,0.99757 1.273221,1.68849 2.504024,1.85336 1.230816,0.16485 2.438353,-0.20974 2.685251,-1.11934 0.262626,0.9716 1.48707,1.50561 2.728885,1.50631 1.241966,0 2.388546,-0.53066 2.511299,-1.46516 0.453636,1.07865 2.108486,1.39219 3.469116,1.01453 0.978462,-0.27719 1.730344,-0.88803 1.729717,-1.68046 0.508696,0.86706 1.82761,1.05835 3.022579,0.73874 1.194493,-0.31948 2.170044,-1.12269 2.057714,-2.05836 1.25659,1.65399 5.35042,-0.004 4.901915,-1.89868 1.436198,1.50229 5.318662,-0.59724 4.6687,-2.42856 0.458954,0.38587 1.111211,0.45261 1.786233,0.29193 1.602272,-0.37905 3.176352,-1.98146 2.616092,-3.18611 1.69742,1.1709 5.08935,-1.60783 4.12458,-3.27966 1.79065,1.01496 4.93018,-2.04471 3.82443,-3.62958 1.87042,0.85728 4.73959,-2.45863 3.50394,-3.94603 1.93653,0.69726 4.51766,-2.849109 3.16301,-4.229017 1.98872,0.534447 4.26474,-3.21577 2.8017,-4.478669 2.02666,0.368622 3.98113,-3.558193 2.42,-4.694852 1.11015,0.108116 2.13526,-1.070987 2.52782,-2.359297 0.31267,-1.003521 0.25934,-2.055695 -0.43085,-2.530978 1.98086,0.122665 3.73384,-3.744887 2.31683,-4.882976 1.94907,0.260908 4.00427,-3.400358 2.74893,-4.65814 1.86017,0.455667 4.37361,-2.861158 3.31767,-4.286206 1.09772,0.344303 2.43204,-0.502388 3.07756,-1.137888 0.76572,-0.772113 1.3049,-1.79416 0.92948,-2.587056 0.83206,0.538096 2.11161,0.209434 3.10119,-0.31114 0.97851,-0.529568 1.89455,-1.379946 1.77919,-2.294854 0.99463,1.217959 4.03722,0.837421 5.07233,-0.146722 0.2027,-0.194797 0.3601,-0.426155 0.43002,-0.698539 0.44647,1.322488 3.04478,2.329195 4.28461,2.339781 0.38077,-0.0075 0.74501,-0.08993 1.0325,-0.31691 -0.29848,0.892082 0.23206,2.094012 0.88073,2.965925 0.68367,0.918998 1.6796,1.694071 2.57145,1.387935 -0.0745,0.08905 -0.13745,0.185239 -0.18955,0.287059 -0.79455,1.564081 0.81679,4.908587 2.49271,4.629706 -1.43298,1.235682 -0.21321,5.282879 1.66268,5.142379 -1.60643,1.138591 -0.5231,5.300438 1.3825,5.187443 -0.15525,0.105357 -0.28577,0.237216 -0.39312,0.389769 -0.53654,0.745699 -0.47037,1.998175 0.0322,3.019218 0.50278,1.021307 1.36924,1.675697 2.18438,1.419304 -0.68791,0.74467 -0.46619,2.075963 0.28117,3.109825 0.74826,1.03504 1.88894,1.592615 2.68558,1.086916 -0.5012,0.948761 0.15993,2.268765 1.26413,3.054224 0.98307,0.682133 2.13036,0.826284 2.72009,0.16255 -0.20674,0.987191 0.67631,2.002728 1.8589,2.489387 1.18249,0.486622 2.45104,0.36052 2.86993,-0.487525 0.0903,1.461638 2.34703,2.300028 3.92044,1.812078 0.62113,-0.19141 1.06481,-0.57261 1.17074,-1.112234 0.32451,0.957884 1.60052,1.394034 2.8669,1.224864 1.26738,-0.16931 2.30216,-0.911366 2.23904,-1.854859 0.46678,0.702239 1.48435,0.887278 2.51066,0.626282 1.02695,-0.261171 1.93911,-0.940708 2.21432,-1.708883 0.10448,-0.291399 0.11326,-0.587639 0.01,-0.873293 0.76957,0.655568 2.0995,0.37014 3.09495,-0.470242 0.99885,-0.843229 1.43762,-2.04985 0.84732,-2.791234 0.94015,0.380563 2.10096,-0.324686 2.73632,-1.4664 0.63919,-1.148562 0.58161,-2.430112 0.0726,-2.771593 -1.15969,1.621902 -3.84976,4.247312 -8.0307,5.59994 -2.56923,0.835302 -5.77499,1.213846 -9.16555,0.537908 -2.6756,-0.54428 -5.55774,-1.798512 -7.74321,-3.933751 -2.0615,-1.948431 -3.56525,-4.829745 -4.12742,-8.102772 -0.83955,-4.948711 -1.9428,-11.353399 -4.79639,-17.439434 -1.2106,-2.619578 -3.03522,-5.359714 -5.76304,-7.678499 -2.74639,-2.2162 -6.16963,-3.564489 -9.83242,-3.746768 -3.91653,-0.190256 -7.93953,0.577981 -11.66361,2.348774 -3.48047,1.682896 -6.54652,4.012831 -9.15743,6.732623 -5.04966,5.254809 -8.80727,11.544872 -11.76162,18.332381 -4.14506,9.223202 -11.24056,18.21083 -20.886307,23.85603 -4.180837,2.43649 -8.832918,4.26171 -13.581188,4.81504 -4.530583,0.56176 -9.358799,-0.006 -13.737355,-1.77896 -6.009751,-2.3903 -11.348682,-8.58147 -12.104641,-15.248178 -0.339323,-2.862425 -0.01267,-5.853046 1.232822,-8.126102 1.116655,-2.36321 3.530787,-4.38874 6.306594,-5.64089 3.409288,-1.567229 8.299388,-1.122223 11.637034,1.07998 1.630154,1.066509 3.025753,2.646356 3.778061,4.386156 1.014484,2.030046 1.152425,4.802604 0.824465,7.698053 -0.352405,4.086957 -4.074953,8.318261 -8.404794,9.942541 -3.14961,1.38791 -6.980675,1.3548 -10.880373,0.37902 2.120075,2.4507 4.792143,4.40809 7.611234,5.52936 4.378556,1.77268 9.206269,2.34094 13.736853,1.77915 1.3224,-0.15408 2.636861,-0.41082 3.936196,-0.74795 0.122163,-0.44675 0.08755,-0.87932 -0.159954,-1.22759 0.913103,0.41334 2.096182,-0.20976 2.860105,-1.20824 z"/>
    <path style="fill:none;" d="m 195.9912,89.402774 c -1.71862,3.222481 -4.14737,5.858502 -7.21391,7.391077 -2.45663,1.227454 -6.04798,2.313053 -10.35598,1.937946 -2.89619,-0.249695 -6.67799,-1.261168 -10.03981,-3.957105 -2.71759,-2.198603 -5.20047,-5.662112 -6.28393,-10.204561 -1.04307,-4.280298 -2.45983,-10.777587 -5.18763,-15.812051 -1.0986,-2.014166 -2.50809,-4.074238 -4.39139,-5.478892 -1.66485,-1.278213 -3.86921,-2.065026 -6.18717,-2.101914 -2.75192,-0.05029 -5.67883,0.591841 -8.38872,1.983827 -2.50496,1.275454 -4.81734,3.166454 -6.97088,5.497568 -4.0335,4.367318 -7.11324,9.863782 -9.85518,16.437254 -4.18014,10.111898 -11.85233,20.880387 -23.595883,28.146127 -4.85409,3.00686 -10.573597,5.38277 -16.843792,6.28525 -5.891088,0.83355 -12.237541,0.24874 -18.256361,-2.0563 -8.861629,-3.41567 -16.55765,-11.74132 -18.193925,-22.427235 -0.682522,-4.500757 -0.141667,-9.386555 2.023649,-13.805623 2.30253,-4.543088 6.232894,-8.157545 10.962463,-10.255696 6.551999,-2.895324 14.58037,-2.432131 20.991443,1.64804 3.20763,2.045987 5.874268,5.015336 7.53322,8.607456 1.868172,4.176133 2.339053,8.788907 1.725828,13.206771 -0.976354,6.804757 -5.156903,12.911797 -11.231298,16.480837 m 55.883976,-132.675141 c -2.70198,-1.235983 -5.98272,-1.653973 -8.4341,-1.081611 -2.47346,0.577517 -4.83549,2.309278 -6.50147,4.587413 -1.31516,1.810565 -2.0049,4.193354 -1.90188,6.494906 0.0849,2.260287 0.90122,4.5749331 2.23731,6.5135315 1.32527,1.8822827 3.16479,3.4479064 5.21427,4.2025478 2.10521,0.84886037 4.69816,0.80378281 7.02422,0.032234 l 6e-5,-2.51e-5 c 2.85707,-0.9166021 5.38989,-3.2923173 6.71691,-6.1542656 1.4663,-3.0525186 1.75894,-6.8041146 1.1923,-10.4604146 -0.64019,-3.854256 -2.35339,-7.607559 -4.96238,-10.524543 -2.76885,-3.152344 -6.77822,-5.359213 -11.0565,-6.210393 -4.28524,-0.807257 -8.59104,-1.203273 -12.49584,-0.349395 -2.80735,0.593057 -5.49661,1.831385 -7.52663,3.697438 -4.179562,3.515774 -6.071879,9.657346 -7.413858,16.090217 -1.23444,7.188579 -4.417739,14.64853862 -10.470235,20.0287973 -2.763164,2.3982164 -6.175525,4.1295383 -9.936591,4.8375344 l -1.38e-4,2.51e-5 c -4.205759,0.7170392 -8.397696,0.1621742 -12.148753,-1.2346284 -4.890401,-1.7308328 -9.587535,-4.7064157 -13.087781,-9.09153145 -2.631933,-3.46295735 -4.228549,-7.09930145 -5.784991,-10.32863095 -1.56156,-3.057497 -3.251329,-5.875873 -5.54597,-7.607697 -3.30713,-2.790556 -8.115114,-3.988586 -13.202143,-4.809125"/>
  </g>
  <g id="head">
    <path id="tooth" style="fill:#ffffff;stroke:#444444;" d="m -7.3198245,-21.854609 c 0.5499738,2.589865 1.5151905,5.341816 4.8591075,6.024376 -1.6901576,-1.29127 -2.9380434,-3.949166 -1.6965919,-6.697304"/>
    <path id="tongue" style="fill:#ff0000;stroke:#990000;" d="m -7.2025902,-8.5441371 c -2.1683384,0.6829488 -5.1163028,0.1587874 -7.0232818,-1.2174955 -0.976455,-1.0353794 -1.191119,-2.4854364 -1.023225,-3.7976904 -1.150745,1.008325 -0.829871,2.997545 -0.436678,3.9221492 -0.882775,0.3752825 -2.111032,0.6319387 -3.675665,0.2420065 0.85103,1.5254501 3.545499,1.2756798 4.567245,0.7946142 2.280229,1.5571324 5.4080775,2.135565 7.9884604,1.3228269 4.9202017,-1.5496947 9.0061173,-6.6131438 16.9984416,-6.9889778 1.881417,-0.08842 3.95876,0.27572 5.991966,0.418892 0.884468,0.06309 0.977684,-1.264191 0.09306,-1.325285 -1.933569,-0.136161 -2.232719,-1.292424 -9.3628999,-0.267568 -5.2592366,0.755933 -9.8355118,5.5478635 -14.1174283,6.8965279 z"/>
    <path d="m 35.808136,-23.156553 c -7.814974,2.45171 -3.892838,6.513256 -14.606572,9.101252 -6.016725,1.453393 -10.600914,5.7973324 -13.6172728,8.3601558 -0.7683127,0.6527843 -4.2921636,1.2546838 -2.514234,-0.5024379 2.5601018,-2.5301629 5.1731578,-5.3286469 7.2253528,-7.9755299 0.637408,-0.822107 -0.94718,-7.962472 -2.270521,-8.365436 -2.5480238,-0.775888 -5.9429509,-0.120408 -8.8000202,0.56298 -1.00389759,0.240113 -2.3235763,0.181477 -5.9339702,0.966546 -1.8254028,0.396944 -2.4904284,0.650615 -3.5178807,0.366779 -0.3806006,-0.105106 -1.7002793,-0.492517 -2.0950779,-1.134753 -0.820703,-1.335068 -2.177131,-3.506241 -2.112336,-4.257847 0.12141,-1.408881 0.713025,-1.788415 2.014806,-2.340747 2.4815107,-1.052876 4.3659131,-1.000913 7.0222406,-2.044444 3.39125214,-1.332247 5.6793458,-2.943939 7.6740842,-4.622231 0.8028923,-0.675536 1.9820956,-0.804648 3.6224095,-1.377575 0.7735179,-0.270164 1.8066519,-0.50975 2.5902037,-0.391688 0.988533,0.148942 1.262548,0.475861 3.357764,0.554439 5.943615,0.222942 6.016198,-2.096721 11.792623,0.977784 5.009416,2.666261 5.892153,0.765378 13.772724,5.413835"/>
    <path id="nostril" style="fill:#003000;stroke:none;" d="m -8.2373171,-25.343128 c 0.5711204,-0.174278 1.0148095,-0.486585 1.6479648,-0.349558 0.8793134,0.190294 0.9099546,-1.172054 0.034115,-1.140309 -0.5130865,0.01856 -1.1903661,0.24331 -1.7209619,0.34868 -0.5305957,0.105356 -0.6642605,1.355763 0.038882,1.141187 z"/>
    <g id="eye">
      <path style="fill:#ffffff;" d="m 10.313884,-33.270762 c 0.499561,0.817531 0.214386,2.867742 -1.1543937,3.749892 -1.390386,0.854266 -3.3904093,0.173227 -3.917892,-0.622679 -0.4933491,-0.866964 0.7541616,-1.38745 2.1445487,-2.241721 1.411998,-0.826366 2.4065338,-1.730872 2.927737,-0.885492 z"/>
      <path style="fill:#003000;stroke:none;" d="m 8.5834048,-31.52498 a 1.3362789,1.2802038 52.229438 0 1 -0.1827548,1.837004 1.3362789,1.2802038 52.229438 0 1 -1.8244448,-0.281717 1.3362789,1.2802038 52.229438 0 1 0.1827481,-1.836995 1.3362789,1.2802038 52.229438 0 1 1.8244515,0.281708 z"/>
      <path style="fill:#000000;stroke:none;" d="m 7.1631015,-31.227531 c -0.2508963,0.194407 -0.3505895,0.583969 -0.1129752,0.890619 0.2376189,0.306652 0.6397204,0.307391 0.8906233,0.112976 0.3066488,-0.237617 0.4063434,-0.627164 0.1687302,-0.933819 -0.2376235,-0.306652 -0.639725,-0.307392 -0.9463783,-0.06978 z"/>
      <path style="fill:#ffffff;stroke:none;" d="m 7.3617517,-31.604535 c -0.1672512,0.129636 -0.204923,0.426483 -0.053717,0.621624 0.1727711,0.223047 0.4480831,0.232811 0.6153513,0.103196 0.223044,-0.172769 0.2822822,-0.441802 0.1094728,-0.664829 -0.1512165,-0.195139 -0.4480835,-0.232798 -0.6711074,-0.05999 z"/>
    </g>
  </g>
</g>
<g id="wheel" transform="matrix(0.26596861,0,0,0.26596861,214.75695,21.249369)">
	<path style="fill:#000000;stroke:#888888;stroke-width:2;" id="spoke" d="m 465.4,273.5 c -13.1,49 -89.6,-9.1 -126.9,24.2 v 4.6 c 37.3,33.3 113.8,-24.8 126.9,24.2 v -20.5 -12 z"/>
	<use xlink:href="#spoke" transform="rotate(45,300,300)"/>
	<use xlink:href="#spoke" transform="rotate(90,300,300)"/>
	<use xlink:href="#spoke" transform="rotate(135,300,300)"/>
	<use xlink:href="#spoke" transform="rotate(180,300,300)"/>
	<use xlink:href="#spoke" transform="rotate(225,300,300)"/>
	<use xlink:href="#spoke" transform="rotate(270,300,300)"/>
	<use xlink:href="#spoke" transform="rotate(315,300,300)"/>
	<circle style="fill:none;stroke:#888888;stroke-width:40;" cx="300" cy="300" r="180"/>
	<circle style="fill:none;stroke:#000000;stroke-width:36;" cx="300" cy="300" r="180"/>
	<circle style="fill:none;stroke:#888888;stroke-width:34;" cx="300" cy="300" r="35"/>
	<circle style="fill:none;stroke:#000000;stroke-width:30;" cx="300" cy="300" r="35"/>
	<path style="fill:#ffffff" d="m 326.86192,123.64298 41.23284,13.33333 -27.64992,-2.62623 16.88849,16.31659 -4.48705,78.4696 -6.48181,14.73139 18.62048,-14.96709 -6.59966,10.25304 8.01387,-2.35702 -8.72098,12.72792 26.63436,-11.078 75.18256,40.65112 2.34314,-26.78798 11.58291,31.63028 -3.38765,-46.14213 7.13114,23.42114 0.7071,-32.96362 9.69611,31.1254 9.07344,-54.83755 -91.7665,-104.843599 -69.37479,12.300429 20,10.33333 z"/>
</g>
<g id="unicorn" style="fill:#9a009a;stroke:#510051;stroke-width:1;stroke-linecap:round;stroke-linejoin:round;" transform="matrix(0.26895972,0,0,0.26895972,338.70409,15.539842)">
  <g id="front-right">
    <g id="hoof">
      <path style="fill:#670067;" d="m 64.80843,317.89588 c 0.356981,11.04567 3.951219,22.52693 -2.233265,40.63403 4.720561,-2.69496 10.133782,-5.95452 13.309933,-12.19426 1.437696,4.5925 0.498613,13.81243 0.311373,18.76872 9.979537,-7.55811 14.203407,-13.69114 16.190209,-22.80435 2.564018,-9.58371 1.381476,-21.87792 -4.227674,-37.48119 z"/>
      <path style="fill:#510051;stroke:none;" d="m 69.698732,331.20289 c 2.485414,4.69922 4.393612,9.86894 4.561431,15.49655 -0.222157,1.14182 -0.222157,1.14182 -0.328871,2.18954 -0.577216,0.4705 -1.363977,0.91966 -0.893474,1.49687 l 2.740567,-3.00248 1.296064,1.82575 c -0.544222,-6.08939 -3.171267,-13.55536 -7.375717,-18.00623 z"/>
    </g>
    <path d="m 178.20526,271.64843 c -8.3999,16.04985 -13.14181,-3.88009 -21.83354,-13.33315 -4.34443,-4.72497 -10.96902,-29.21278 -23.65641,-30.25794 -19.03336,-1.56788 -27.4747,15.83182 -30.0934,18.42281 -14.656167,14.50122 -10.748013,9.69207 -29.414187,26.51463 -8.852957,7.97856 -9.741272,16.88238 -6.628837,24.6285 2.80975,6.99281 -5.139757,12.90165 -4.759396,20.25588 0.171939,3.32408 3.401293,7.07039 3.102424,11.58829 11.008247,-3.62252 30.930668,-13.76504 28.620167,-22.24992 -1.937841,-4.24378 4.55486,-7.20081 10.602619,-2.23598 2.01935,-5.78234 -3.95807,-9.74172 -3.37928,-14.97479 3.56178,0.91472 3.30851,1.75296 7.39081,6.17236 0.67688,-9.08072 -4.19902,-10.12923 -4.097,-13.22257 0.18154,-5.5047 3.27927,-2.78093 5.92517,-2.08952 4.60018,-6.73962 -0.63112,-9.13075 3.57093,-14.15912 5.73269,-6.85999 8.45799,-1.99338 12.01921,-2.31908 9.73029,-0.88995 12.2571,7.71594 14.12686,15.69842 5.81968,24.84544 14.72614,63.16325 50.99223,62.10439"/>
  </g>
  <g id="rear-right">
    <use xlink:href="#hoof" transform="rotate(41.462915,-101.19681,688.00228)"/>
    <path d="m 325.55672,397.23566 c -3.01637,11.92529 1.36113,22.32852 5.14975,31.27451 2.87336,6.78485 3.92597,13.10198 9.69685,16.47427 5.59221,3.2679 11.62717,6.90957 11.84237,11.90287 0.30743,7.13342 1.25082,10.21357 -1.19163,13.9956 -3.87849,6.00572 -11.81702,7.58481 -13.99425,9.41861 -2.8176,2.37319 -12.47953,10.08671 -15.90851,11.43316 -4.994,1.96096 -18.31391,5.4417 -23.45243,6.98471 -4.14776,1.2455 -11.03347,6.20555 -14.64639,8.59342 -7.71399,5.0984 -13.41865,3.75178 -17.54601,9.85047 -1.86556,2.75659 -1.5453,7.6923 -4.50586,11.11804 10.96843,3.7413 24.23295,1.93279 36.37209,-0.56969 6.14039,-2.352 11.47033,0.32294 21.73045,-0.77446 -4.41466,-4.85785 -0.63926,-8.00134 2.90733,-10.75706 1.69268,4.89883 6.81222,5.67495 11.04777,7.26827 -5.42607,-7.77355 -0.0815,-11.36939 3.19805,-14.24582 3.14958,0.72682 5.00725,3.61989 6.25071,7.26827 5.46589,-6.03634 3.5168,-9.38776 7.55901,-14.24582 3.35822,-3.75855 7.60656,-6.08445 12.38781,-7.67942 7.77723,-2.59438 20.72759,-2.14542 26.61366,-7.85249 7.87544,-7.63586 4.6835,-21.20428 3.15454,-28.36849 -2.41951,-11.33713 -16.78923,-34.25156 -12.59086,-51.46901"/>
  </g>
  <path id="body" d="m 393.01556,417.84616 c -53.12146,2.93066 -67.16456,-12.13583 -104.84476,-23.84706 -35.18335,-10.93519 -62.70948,-17.85677 -85.93159,-46.46062 -14.54718,-17.91849 -32.72815,-41.36122 -30.63114,-64.34589 2.22199,-24.35447 2.48483,-10.43705 8.83575,-34.05364 10.36298,-38.53581 28.31831,-30.22959 28.97259,-65.86882 0.24351,-13.26424 -3.59982,-21.80788 -2.65824,-35.04089 1.32291,-18.59206 17.59688,-37.91919 35.56873,-42.86161 19.32001,-5.31315 45.9186,5.30401 56.73952,21.38012 12.63225,18.76706 17.24263,29.00062 16.69314,51.49424 -0.44466,18.20237 -12.85485,43.36596 -12.78717,61.57365 0.062,16.65042 9.40856,26.69488 21.79128,37.82633 19.6858,17.69658 51.89247,31.97987 96.62164,43.99369 21.37394,5.74083 20.95495,33.22316 17.26856,53.86143 -3.59587,20.13153 -25.23294,41.22331 -45.63831,42.34907 z"/>
  <path id="tail" style="fill:#670067;" d="m 455.83804,337.93704 c 14.1726,-2.26499 15.79944,-6.77865 20.16229,-15.67482 2.46248,5.93512 13.43346,2.2203 20.91828,-5.672 5.87729,-6.19726 8.84685,-15.53893 8.97121,-20.97307 11.12347,9.88146 2.97842,30.90195 -12.46695,36.05829 9.59659,-2.61714 19.84732,-7.36729 22.37435,-19.42856 5.42374,9.3638 -3.60933,25.9406 -19.58311,28.26525 8.68302,1.86889 14.94198,-2.18385 19.84288,-10.25296 1.28361,13.72547 -12.53176,24.88442 -34.75809,21.40059 -7.87198,-1.23388 -15.18628,5.46441 -24.15522,3.86831"/>
  <g id="front-left">
    <use xlink:href="#hoof" transform="rotate(-42.21843,243.02931,284.76741)"/>
    <path d="m 185.49452,262.18865 c -13.99507,11.26084 -17.37434,16.22029 -15.3811,35.79547 1.09122,10.71676 6.0522,15.69956 6.35252,25.41897 0.30926,10.00892 -11.54764,2.76231 -14.7342,2.27162 -6.34389,-0.97692 -32.94361,-10.86869 -42.7901,-2.79969 -12.76049,10.45697 -11.27522,20.85408 -10.45518,24.44553 4.39429,19.24523 5.57369,13.25409 1.50185,38.05017 -1.93118,11.7602 4.58044,17.41864 11.84899,21.52447 6.56168,3.70653 5.48251,18.11717 10.37256,23.62321 2.21029,2.48872 7.07212,3.39771 9.6603,7.11281 6.33496,-9.70424 15.55988,-30.06781 8.45626,-35.25145 -4.16384,-2.10412 -0.93988,-8.46847 6.88413,-8.36803 -2.0342,-5.77715 -9.17532,-5.13625 -11.99154,-9.58474 3.35301,-1.51007 3.67872,-0.69723 9.62706,0.20474 -5.14261,-7.51472 -9.6055,-5.28842 -11.45774,-7.76801 -3.29613,-4.41251 0.8243,-4.21992 3.32254,-5.33242 -0.61644,-8.13658 -5.68871,-4.30379 -9.25209,-10.81714 -7.25844,-13.26742 7.14077,-9.36833 10.70053,-9.02694 8.20643,0.78705 19.82621,5.14674 26.65188,9.68833 10.37703,6.90455 38.6766,16.42556 45.20479,9.84322 9.20999,-9.28637 16.76958,-19.09597 17.87649,-27.19298"/>
  </g>
  <g id="rear-left">
    <use xlink:href="#hoof" transform="rotate(44.084046,-67.073684,797.1573)"/>
    <path d="m 385.06802,381.70465 c -8.91576,11.82305 -18.80718,28.93146 -14.82729,45.06331 4.35666,17.65899 19.0761,25.88114 34.74237,41.57457 5.8522,5.86233 14.42906,5.40857 20.49656,11.04777 2.78929,2.59241 6.7411,9.03862 5.52388,12.64681 -1.82451,5.40839 -5.73157,9.1824 -10.03022,12.93754 -4.23183,3.69678 -10.4494,6.47959 -14.68192,10.17558 -2.77481,2.42309 -3.56525,5.31209 -6.68682,7.26829 -4.54628,2.84899 -10.35256,3.93119 -15.11801,6.39608 -3.84664,1.98964 -6.94675,6.23225 -10.90244,7.9951 -5.24277,2.33647 -10.63451,-1.33553 -15.118,4.50634 -2.02653,2.64052 -2.00101,7.58652 -5.16049,10.82974 10.72598,4.38835 24.07469,3.37358 36.3414,1.59901 1.98667,-0.53261 3.17382,-1.38317 5.59658,-4.28828 4.20484,4.45254 7.90733,6.39335 11.3385,6.97755 -0.75308,-4.41077 0.8144,-7.2745 2.32586,-10.1756 2.71026,3.88128 6.81223,5.67497 11.04778,7.26829 -0.35951,-6.58142 0.84555,-11.15128 3.19805,-14.24584 3.14958,0.72684 2.77366,3.27904 6.25071,4.94244 -0.0707,-4.1875 2.08284,-5.71122 2.03513,-9.15802 -0.039,-2.82514 -1.37214,-6.83851 -0.29074,-9.44878 1.92912,-4.65648 5.17141,-8.2545 9.15804,-11.33851 6.48466,-5.01645 16.96993,-5.89803 20.6419,-13.22827 4.91303,-9.80772 11.70455,-13.33232 10.1756,-20.49653 -2.41952,-11.33714 -14.42634,-15.4417 -19.479,-25.87508 -2.63545,-5.44206 -5.38029,-12.98834 -2.03511,-18.02532 10.09031,-15.19348 28.43726,-24.86202 30.57665,-51.58591 1.26612,-15.81528 -7.98586,-27.05148 -16.86377,-40.20095 -6.75075,-9.99886 -16.80741,-18.51104 -27.85841,-23.35103 -14.64577,-6.41438 -27.77283,-5.23517 -40.80463,-3.5797"/>
  </g>
  <path id="head" d="m 251.16629,179.53391 c -9.12943,16.0417 -21.15644,11.1295 -30.58976,10.6086 -6.2896,-0.34731 -8.29116,-0.69298 -17.61341,-2.45577 -7.63806,-1.44432 -15.71531,-5.28414 -26.13142,-5.50347 -12.09473,-0.25469 -19.52331,-6.73281 -14.72183,-8.9681 3.81343,-1.77531 21.53703,-5.42025 27.4128,-3.19156 12.61488,4.78485 8.57673,-2.87972 1.77048,-5.05347 -5.45107,-1.74094 -11.3196,-0.026 -16.76633,0.97316 -13.67239,2.50821 -14.5957,4.05343 -17.27858,-3.88596 -1.79153,-5.30165 -0.98318,-6.64652 1.01172,-10.89866 0.58907,-1.25561 5.53113,-6.4467 13.48569,-8.86201 9.25935,-2.81151 12.54158,-12.24265 20.2528,-17.77872 17.63173,-12.65823 17.56326,-11.76893 37.00539,-12.12569 13.19043,-0.24204 3.76627,-3.24642 12.22989,-4.35917"/>
  <path id="nose" style="fill:#510051;stroke:none;" d="m 175.9865,153.27516 c 0.97367,-0.69489 1.8962,-1.79216 0.2367,-2.45351 -1.32473,-0.52795 -4.32178,-0.077 -6.32714,0.27326 -1.93712,0.33837 -3.99188,2.25911 -6.01291,1.96009 -2.37406,-0.35126 -0.39801,-2.33239 2.70794,-3.11863 4.33283,-1.09681 4.86452,-1.25949 9.563,-1.26414 5.90815,-0.006 4.95769,4.65078 -0.65935,8.48504 -4.10124,2.79956 -5.22064,0.34224 -3.18122,-1.11324 1.06996,-0.76361 2.60302,-2.00526 3.67298,-2.76887 z"/>
  <g id="eye">
    <path style="fill:#ffffff;" d="m 222.48215,130.00547 c 0.0348,2.88686 4.0473,7.66253 8.95401,7.72101 4.91718,-0.0473 8.93054,-4.98972 9.00165,-7.86612 -0.12985,-3.00307 -4.14763,-2.3328 -9.06482,-2.28551 -4.92764,0.15313 -8.91502,-0.56199 -8.89084,2.43062 z"/>
    <path style="fill:#510051;stroke:none;" d="m 227.08422,132.06287 a 3.8577522,4.0267281 5.6524808 0 0 3.40952,4.39561 3.8577522,4.0267281 5.6524808 0 0 4.20501,-3.64197 3.8577522,4.0267281 5.6524808 0 0 -3.40949,-4.3956 3.8577522,4.0267281 5.6524808 0 0 -4.20504,3.64196 z"/>
    <path style="fill:#000000;stroke:none;" d="m 231.18567,130.54653 c 0.9518,0.0942 1.83036,0.92872 1.71521,2.09204 -0.11516,1.16333 -1.14022,1.80943 -2.09205,1.71522 -1.16332,-0.11516 -2.04186,-0.94964 -1.92672,-2.11297 0.11517,-1.16334 1.14023,-1.80944 2.30356,-1.69429 z"/>
    <path style="fill:#ffffff;stroke:none;" d="m 230.07467,129.9026 c 0.63455,0.0629 1.20628,0.76016 1.13301,1.50045 -0.0836,0.84606 -0.77061,1.31206 -1.40517,1.24924 -0.84605,-0.0836 -1.42826,-0.67532 -1.34453,-1.52139 0.0733,-0.7403 0.77063,-1.31203 1.61669,-1.2283 z"/>
  </g>
  <path id="beard" style="fill:#670067;" d="m 164.37022,179.04173 c 6.87627,7.38662 -0.3557,13.36991 -2.8368,23.21795 -1.05969,4.20615 -0.27409,8.26289 0.65929,12.49994 1.44757,6.57122 -6.53294,11.37782 -4.45831,22.82847 0.71767,-8.42355 5.68631,-14.62351 4.74332,-9.72317 -2.01062,10.4484 -3.45782,21.78898 0.36858,29.49406 -0.54953,-12.97879 3.34742,-17.92354 3.81864,-27.09541 4.47641,2.56939 -0.0883,17.87798 2.96385,21.13309 -0.0543,-10.08313 5.85674,-9.60384 4.93909,-21.88225 -0.43755,-5.85453 -2.17359,-21.80971 3.6794,-16.0693 1.53887,-4.0042 -0.59375,-8.81425 -0.62725,-14.15027 -0.0345,-5.49333 2.08975,-7.83233 3.34569,-4.05565 5.31227,-2.56809 3.88061,-10.79821 12.39404,-10.84984 1.92956,-0.0117 -33.95519,-10.68181 -28.98954,-5.34762 z"/>
  <g id="mane">
    <path style="fill:#670067;" d="m 275.70712,124.82631 c 2.39404,7.14668 1.84282,37.86533 -21.96315,36.49068 -25.00545,14.22204 -12.36322,27.88312 -45.66106,26.55884 -3.24053,31.16644 -28.8267,40.13708 -29.90885,51.63011 14.19217,-3.2203 -11.34948,29.43203 -16.55789,48.36903 20.78823,-7.70774 -3.57779,20.9235 -7.4165,37.28223 -3.11776,13.28637 0.77347,19.14499 -7.72166,38.2904 21.21896,-8.04329 21.02164,-31.79314 35.15865,-36.72737 3.14558,16.91457 -17.36082,28.9327 -12.64591,50.84719 15.08134,-23.43996 18.81866,-7.47192 33.57991,-29.80693 -2.53039,13.43736 -0.44882,41.9606 9.98704,51.91746 -3.68684,-21.7646 11.60837,-20.74163 11.3324,-37.61624 10.38943,11.01346 14.97793,21.96188 11.76352,40.13932 16.04724,-13.48015 14.28446,-28.52031 28.2145,-37.61797 11.83258,8.55594 -5.07266,21.36791 5.61755,35.97156 3.21034,-16.34149 14.06385,-18.43113 16.79773,-34.66008 10.08052,10.79001 -3.35657,16.57572 13.63059,36.62183 2.40383,-27.27646 15.42612,-36.9607 17.50375,-19.834 10.7413,-4.09788 9.4827,-25.28391 4.52208,-36.94984 -4.70041,-11.05397 0.43957,-18.89748 6.97091,-15.4635 2.68851,1.41353 5.67491,3.39304 7.69103,11.15142 6.10896,-10.84939 -13.29925,-33.85231 -5.20162,-36.05139 5.58539,-1.51683 8.53461,9.67813 17.35128,9.45106 -7.81913,-6.68892 -8.8396,-27.52622 -14.04031,-32.67064 -9.97186,-9.86393 -25.1104,-66.5743 -7.1318,-44.03584 7.40713,-7.93319 0.12627,-21.85122 -1.08925,-28.5062 -1.4165,-7.75538 -9.61929,-26.14785 -0.90177,-24.42686 5.98158,1.18087 6.55842,4.44501 13.80236,0.5149 -12.85826,-6.10828 -18.5306,-16.69125 -17.00448,-29.21973 0.86764,-7.12276 -0.47585,-14.91701 -9.43738,-22.92809 -9.26357,-8.28108 -7.27465,-23.77534 -0.25642,-18.20279 -2.53773,-10.83616 -18.71394,-10.83037 -35.05639,-15.04018 -11.53908,-2.972467 -11.89,-9.981467 -25.45372,-6.676817 7.74264,6.490407 -21.08143,8.397457 -24.16309,10.091697 -6.28524,-0.0767 -20.23218,1.95253 -8.697,9.82043 8.05715,5.4956 24.03643,0.56856 41.06612,5.74684 0.40986,-6.50036 15.76139,0.83492 15.31879,5.53947 z"/>
    <path style="fill:#670067;" d="m 270.4459,190.47826 c -6.59712,19.65021 14.19775,39.38275 -3.70782,59.32506 30.40678,-9.64536 9.27561,-33.66266 30.4041,-63.77444 m -60.80819,109.75136 c 2.44216,17.48016 -6.65169,32.68806 1.55848,48.24555 2.79481,-24.89574 22.33661,-25.62929 26.12655,-49.72868 m -44.98817,-67.23506 c -8.35939,18.00816 5.03967,28.85991 -4.44938,49.93192 24.17585,-9.81377 8.19124,-33.28735 25.70752,-51.90943"/>
  </g>
  <g id="ear">
    <path d="m 260.38833,119.28683 c -0.65795,-14.29306 16.40127,-18.87422 27.01992,-30.196609 4.2955,-4.514902 8.55,10.674918 5.02837,20.096419 -3.41041,9.1239 -8.64871,14.23748 -16.7295,15.63967"/>
    <path style="fill:#510051;stroke:none;" d="m 267.29467,117.04549 c -0.62733,-0.10567 -0.67087,-1.08182 -0.86036,-1.6938 -0.1822,-0.58839 -0.27739,-1.21183 -0.23258,-1.82542 0.067,-0.91584 0.40458,-1.80097 0.94523,-2.54862 0.3022,-0.41792 0.62891,-0.82088 1.00357,-1.17217 0.64121,-0.6012 1.38033,-1.10646 2.16851,-1.49474 0.74783,-0.36844 1.5355,-0.65873 2.34605,-0.86181 0.59146,-0.14812 1.20076,-0.24303 1.8081,-0.28472 0.54292,-0.0373 1.05988,0.17427 1.57577,0.3171 0.52232,0.14454 1.24763,0.0505 1.54636,0.50274 0.2151,0.32565 -0.14651,0.92443 -0.51711,1.04978 -1.2057,0.40773 -2.52972,0.28311 -3.79167,0.4465 -0.85116,0.11015 -1.72958,0.23056 -2.48093,0.68031 -0.40209,0.24068 -0.74568,0.56595 -1.00189,0.96074 -0.58462,0.90091 -0.69302,2.00786 -0.72826,3.05409 -0.0161,0.47258 0.10262,0.95929 0.009,1.41876 -0.14042,0.68756 -0.31502,1.41047 -0.73995,1.96835 -0.13862,0.18205 -0.45968,0.096 -0.66257,0.009 -0.20015,-0.0858 -0.17248,-0.48996 -0.38715,-0.5261 z m 4.00965,4.71311 c -0.53661,-0.57897 -0.8492,-1.48229 -0.43212,-2.2195 0.61004,-1.07831 1.78494,-1.62788 2.81747,-2.21735 0.5552,-0.31697 1.25446,-0.45983 1.68534,-0.92523 1.59339,-1.72098 2.73054,-3.83094 3.69327,-5.97013 1.0437,-2.3191 1.66186,-4.80521 2.04634,-7.3139 0.13558,-0.88463 0.0774,-1.79892 0.29382,-2.66651 0.0663,-0.26634 0.37449,-0.64896 0.6526,-0.585701 0.26867,0.06107 0.61858,0.02113 0.67883,0.408911 0.29592,1.90442 0.48449,3.82668 0.42666,5.7472 -0.0845,2.80585 -0.60248,5.60847 -1.62778,8.2305 -0.71394,1.82571 -1.69193,3.58867 -3.09497,4.96779 -0.93338,0.91747 -2.02438,1.68032 -3.24862,2.1601 -1.1598,0.45451 -2.40521,0.74312 -3.64645,0.67374 -0.12627,-0.007 -0.15851,-0.19722 -0.24439,-0.28992 z"/>
  </g>
  <g id="horn">
    <path d="m 195.66515,18.702161 c -0.5957,0.309764 0.47656,3.776736 0.83398,4.44392 -0.23828,0.845893 -0.47656,1.870497 0.83398,2.930842 -0.71484,1.644131 -0.5957,3.145294 1.31053,4.015016 -0.5957,3.145294 1.1914,3.705252 1.7871,4.908565 -0.35742,2.108777 -0.11914,3.979274 2.26366,5.671061 -1.07226,3.824391 1.07226,4.860909 3.09764,5.96891 -0.5957,3.085724 -0.11914,5.551921 2.85936,6.874374 -0.47656,3.264434 0.71484,5.587663 3.09764,7.231794 -0.5957,3.264434 1.31054,5.337469 3.69333,7.16031 -0.5957,3.026154 -0.11914,5.420866 3.21678,7.589213 -0.95312,5.325555 2.14452,5.492351 3.81248,7.207966 -1.42968,5.825942 1.54882,5.825942 3.21678,7.470074 -1.7871,5.349382 1.42968,5.706802 3.5742,6.80289 -1.42968,4.670284 1.31054,5.337464 3.33591,6.445474 -3.87902,6.3005 6.48356,8.03933 17.75185,4.82516 0.71484,-0.19062 3.33592,-5.1945 -2.74021,-5.1945 0.47656,-2.16834 2.02537,-4.980047 -3.09764,-5.897425 -0.23828,-2.049206 1.31054,-4.908565 -3.93162,-6.135706 0.23828,-2.347057 1.7871,-5.218329 -3.5742,-6.790976 -0.47656,-2.287487 1.31054,-4.789425 -3.81248,-7.16031 -0.47656,-2.347056 0.5957,-4.717941 -4.28903,-6.898202 0.71484,-4.360521 -1.54882,-5.825942 -3.93162,-7.279449 0,-3.073811 -1.31054,-5.456609 -4.28904,-6.850546 0,-2.883187 -0.5957,-5.528093 -4.28904,-6.600353 0.5957,-3.204864 -0.47656,-5.349382 -3.45505,-6.56461 -0.23828,-2.037292 0,-4.336693 -3.69334,-5.647232 0.5957,-3.264434 -0.83398,-4.50349 -3.45506,-5.051533 0,-1.513078 0.5957,-3.324004 -2.9785,-4.277124 0.47656,-2.120691 -0.83398,-3.002326 -2.50194,-3.383574 -0.11914,-1.691787 -0.47656,-2.406626 -2.02538,-2.311315 -0.35742,-0.655269 -2.62107,-3.502713 -2.62107,-3.502714 z"/>
    <path style="fill:none;" d="m 197.33311,26.076923 5.48043,1.822841 m -4.1699,2.192175 7.1484,2.084949 m -5.3613,2.823616 8.81636,2.227917 m -6.5527,3.443144 10.24604,2.204088 m -7.1484,3.764822 10.60345,2.799788 m -7.74409,4.074586 12.03313,2.525767 m -8.93549,4.706027 13.22453,2.144519 m -9.5312,5.015791 13.46282,2.263658 m -10.24604,5.325555 14.53507,1.572647 m -10.72259,5.635319 14.53507,1.524991 m -11.31829,5.945083 14.89249,0.845893 m -11.31829,5.956997 15.24991,0.178709 m -11.914,6.266765 15.01164,-0.36934"/>
  </g>
</g>
<g class="lion" transform="matrix(0.27318867,0,0,0.27318867,453.84849,15.968558)">
	<path d="m 208.4,467.3 c 0,0 -0.2,2.3 -1,3.4 -1.3,2.1 -3.4,4.7 -5.8,5.5 -3,1.6 -5.9,0.6 -8.7,0.3 -2.1,-1.5 -5.2,-4.8 -5.2,-4.8 0,0 -3.5,5.5 -6.6,6.8 -3,1.4 -7.1,1.5 -10.5,0.5 -3.8,-0.9 -7,-4.1 -8.4,-7.3 -0.8,-2.4 0.1,-6.3 0.1,-6.3 0,0 -4,1.3 -5.9,1 -2.9,0.3 -5.7,-0.6 -7.2,-2.5 -2.6,-3.2 -3.1,-6.1 -2.2,-10.1 0.4,-1.7 3.4,-4.3 3.4,-4.3 0,0 -1.9,-2.6 -2.3,-3.7 -0.8,-2.4 0.6,-5.2 0.6,-5.2 0,-2.3 3.2,-4.7 6.2,-4.5 7.4,-0.3 10.9,4.9 18.7,6.8 15.3,2.4 30,-3.4 41.6,-13 3.7,-3.6 6.7,-7.9 9,-12.9 2.1,-3.7 2.8,-10 2.9,-14.7 -1,-7.6 -5.4,-13.9 -7.4,-22.2 -0.7,-3.6 -1.3,-12.9 -1.3,-12.9 0,0 -5,2.9 -5.9,5.1 -0.8,2.3 -0.3,6.9 -1,9.7 -1,2.3 -2.8,3.6 -5.2,4 -2.4,1.5 -5.3,0 -7.6,1.6 -1.9,0.7 -4.1,4.6 -4.1,4.6 0,0 -0.7,-4.1 0.1,-5.7 1.6,-4 6.5,-5.7 7.4,-9.1 0.3,-3.4 -1.8,-4.8 -2.6,-7.8 -0.8,-2.3 -0.6,-4.1 -0.5,-5.8 1.1,-4 7.5,-8.4 7.5,-8.4 0,0 -1.2,-0.7 -2.2,-1.4 -1.1,-0.7 -4.7,0 -4.7,0 8.3,-11.3 12.1,-13.5 25.6,-10.3 0,0 0.4,-4 1.4,-7.4 0.9,-2.8 1.9,-6.1 4.4,-8.1 1.8,-0.9 4.9,-3 4.9,-3 0,0 2.2,-3.2 3,-4.8 1.5,-3.8 4.1,-6.4 7.8,-7.8 3.8,-2.4 7.2,-2.6 11.9,-2.1 14.6,2.4 28.8,5.1 43.8,0 l 7.9,77.3 c -10.3,-2.4 -21.8,-2.1 -31.3,-4.9 -3.4,-0.9 -9.8,-5.6 -13,-8.5 0,0 0.4,7.6 -1.4,13.3 -2.4,4.3 -6.3,9.7 -4.8,15 1,2.3 3.6,4.5 6.2,7.1 2.1,2.6 3.4,6.2 3.5,9.6 0.3,2.3 -0.1,5.8 -1.9,6.7 -7.5,4.3 -15.4,7.6 -17.7,13 -2.3,9.6 -1.4,17.2 -10.6,22 1.1,-4.6 0.2,-7.6 -1.7,-11.2 -1,8.4 -3.1,11.8 -8.8,16.8 0,-5.1 -0.1,-9.2 -1.3,-13.4 -2.2,9 -4.7,14.5 -13.2,17.6 2.3,-4.4 2.8,-8.4 1,-13.2 -2.7,3.8 -2.2,9 -6.9,9.6 z" />
	<path class="lion-detail" d="m 154,448.2 c 1.7,-0.3 3.4,0.3 5.7,0.1 1.7,0.7 3.2,1.6 5.2,1.1 2.2,0.3 6.4,-0.9 6.4,-0.9 -1.4,2.1 -5.6,2.3 -6.6,2.1 -1.8,0.4 -3.4,-0.4 -5.7,-0.7 -1.7,-0.7 -3.4,-1.5 -5.1,-1.2 -0.6,0 -1.8,0.5 -2.4,0.3 -0.5,0.6 -1.1,0.5 -1.1,0.5 l -2.1,-2.5 c 0,0 1.4,1.9 2.8,1 0.6,-0.1 1.8,0.1 2.9,0.2 z m 22.8,7.3 c 0,0 -0.7,1.1 -1.3,1.6 -1.2,0.4 -1.8,1.1 -3.2,1.9 -1.1,0.5 -3.5,0.2 -4.6,0.6 -1.2,0.5 -2.4,1.5 -3.7,1.9 0,0.5 -0.9,1.7 -1,2.8 -0.7,1.1 -0.7,1.6 -0.7,1.6 l -4.6,0.7 c 0,0 3,-1.5 3.7,-2.5 0.1,-0.6 1.3,-1.6 2.1,-3.1 1.1,-0.5 2.4,-1.6 3.6,-2 1.9,-0.9 4.3,-0.7 5.4,-1.1 0.6,-0.5 1.9,-1 2.5,-1.5 z m 19.4,2.4 c -4.1,0 -6.7,2.6 -7.9,4.6 -1.7,2.8 -2,5.6 -0.1,9.4 l -1.3,1 c -1.8,-3.2 -1.4,-7.8 0.2,-10.4 4.2,-6.5 8.5,-4.8 9.1,-4.6 z m 11,5.1 c 1.1,0.8 0.9,2 1.5,2.5 -0.2,1.2 0.2,1.9 0.2,1.9 l -1,0.4 c 0,0 0.1,-1.1 -0.5,-1.8 0.1,-1.1 -0.3,-2.4 -0.8,-3 -0.4,-1.2 -3.7,-3.3 -3.7,-3.3 1.7,0.2 4.4,2.7 4.3,3.3 z" />
	<path class="lion-detail" d="m 218.1,360.2 c 0,0 -2,1.1 -3.2,1.9 -1.3,1.1 -2.6,2.1 -3.8,2.6 -0.7,1.5 -2.2,3.7 -2.3,5.4 -0.7,1.2 -0.3,2.8 -0.5,4 0.4,1.8 0.3,3 0.1,4.7 -0.2,1.6 -1,3.3 -2.9,4.3 -0.6,0.5 -1.8,0.9 -2.4,0.9 -1.1,-0.2 -2.4,-0.3 -2.4,0.3 -1.9,0.9 -2.9,0.7 -3.6,1.9 -0.8,0.5 -0.9,1.7 -1.6,3.2 -0.1,1.2 -0.1,1.8 -0.1,1.8 l -1.4,0.4 c 0,0 0.2,-1.2 1,-2.3 0.2,-1.6 0.9,-3.3 1.5,-3.9 1.3,-1 2.5,-1.4 3.8,-2.3 0.6,0 1.8,0.1 2.3,0.2 1.1,0.1 1.7,0.2 2.4,-0.9 1.2,-0.9 2,-2.1 2.9,-4.2 0.1,-1.3 -0.4,-2.5 -0.2,-4.2 -0.4,-1.2 -0.2,-2.8 -0.1,-4 0.8,-1.6 1.6,-3.9 3,-6 1.4,-1 2.4,-1.5 3.8,-2.4 z" />
	<path class="secondary" d="m 203.9,471.5 c 0.2,-1.8 -3.2,-2.3 -5.5,-2 -1.9,1.1 -5.8,4 -4.2,5.8 3.6,4 3.5,9.3 3,13.8 6.3,-4 8.3,-10.7 6.7,-17.6 z m -40.3,-2.6 c 0.9,-1.5 4.3,-1.1 5.8,0.7 2.2,1.6 3.9,5.7 1.6,6.7 -5,2.3 -6.7,7.3 -8.4,11.7 -3.8,-6.3 -3.1,-13.1 1,-19.1 z m -15.6,-15 c 2,-1 3.5,1.5 3.8,3.9 0.8,2.4 -0.9,6.9 -3.1,6 -5,-1.2 -9.9,1.2 -13.8,3.7 0.9,-7.5 6.1,-12.1 13.1,-13.6 z m 3.8,-16.3 c 1.7,-0.4 3.1,2.7 2.8,4.9 -0.2,2.3 -3.1,6.5 -4.7,5.3 -4.5,-2.8 -9.7,-1.7 -14.3,0.1 2.8,-7.3 9,-10.6 16.2,-10.3 z" />
	<path d="m 165.4,102.2 c -5.2,-4.08 -14,-2 -18.6,3.9 -1,-4.9 -4.3,-7.48 -7.9,-8.18 -7,-1.9 -16.2,3.88 -13.7,12.88 0.7,2.5 5.6,4.3 5.1,6.8 0,0 -0.4,2.7 -0.5,4 0.1,1.2 0.4,2.9 0.4,2.9 0,0 -5.2,-2.7 -7.2,-2.3 -12.4,2.6 -9.8,21.7 2.4,22.2 2.2,0.1 4.3,0.3 6.7,0.2 3.1,-0.6 7.9,0.8 8.3,2.5 0.3,0.5 0.4,1.6 0.7,2.3 7.8,4.7 7.7,12 1.2,14.9 9.1,2.3 11.3,2.3 19.8,-0.4 l 0.2,0.3 c -1.7,5 -3.8,9.6 -7.8,12.2 7.5,3 16.6,-3.8 22.9,-4.5 0.6,3.4 0.3,6.9 1.6,9.9 1.1,2.7 2.7,5.2 5.5,7.3 1,-5 2.3,-7.8 7.5,-9.6 -3.8,11.2 -3.2,18.2 4.2,27.7 -0.7,-7.8 3.3,-5.6 8.6,-14.3 -2,9.9 -3.3,18.8 5.9,25.9 0.1,-4.5 0.5,-8.6 4.1,-11.6 -0.4,9.6 0.7,17.5 9.2,23.5 -0.1,-5.2 0.3,-9.2 4.9,-12.5 -0.2,9.4 2,16.4 10.3,21.7 -2.4,-7.4 2.8,-7.5 3.3,-15.1 0,0 9,18.6 14,22.9 7.1,6.3 17.5,17.7 17.5,17.7 l 19.2,-48 c -19,-14.4 -24,-29.6 -43.4,-43.4 -31.2,-4.1 -62.5,-23.9 -82.7,-48.6 -0.4,-2.7 -1,-8.6 0.3,-11.4 1,-2.1 2.5,-4.1 1.5,-6.6 -0.8,-2.2 -1.8,-4 -3.5,-5.2 z" />
	<path class="lion-detail" d="m 130.5,124.1 c 0,0 3.6,1.8 4.9,2.5 l 8.3,3 c 0,0 -6.4,-0.9 -9,-2 -1.5,-0.8 -4.9,-2.8 -4.9,-2.8 z m 16.5,-17.9 c 0,0 1.6,1.7 2.1,5.3 0.4,4.1 0.7,7.3 3.2,10.7 1.1,1.7 4.6,4.6 4.6,4.6 -3.6,-1.8 -5.8,-4.2 -7.6,-7 -1.5,-2.7 -0.9,-6 -1.5,-8.5 -0.7,-3.7 -1.3,-4.1 -1.3,-4.1 z" />
	<path class="secondary" d="m 121.9,125 c 2,0.3 2.3,3.1 1.6,5.5 -0.8,2.2 -4.3,5.6 -5.8,4 -3.7,-3.8 -9,-3.8 -13.8,-3.2 4.1,-6 11,-8.2 18,-6.3 z m 14.8,-25.98 c 1.8,1.18 0.8,3.98 -1,5.68 -1.6,1.6 -6.1,3.1 -6.8,1.2 -1.7,-5 -6.3,-7.68 -11.1,-8.98 6.6,-3.7 13.5,-2.4 18.9,2.1 z m 28.9,6.68 c 0.2,2.1 -2.8,3.1 -5.1,2.7 -2.5,-0.2 -6.3,-2.9 -5,-4.7 2.7,-4.38 1.8,-9.68 0.4,-14.2 6.6,2.72 9.9,9.12 9.7,16.2 z" />
	<path id="groin" d="m 294.9,317.6 10.3,18 c 0,0 -3.4,10.5 -8.5,13.3 -0.2,-7.5 -6,-16.4 -9.2,-23.4 -1.2,-3.3 4.7,-6.2 7.4,-7.9 z" />
	<path d="m 423.1,446.4 c -3.4,-0.7 -5.6,-1.7 -8.6,-1.2 -4.9,-1.5 -10,-2.7 -14,-5.9 -8.3,-5.2 -13.6,-13.9 -17.8,-21.8 -6,-10.6 -8.9,-24.8 -13.7,-35.2 -3.6,-7.7 -7.7,-14 -10.9,-21 -2.7,-4.2 -8.1,-9.3 -8.1,-9.3 0,0 3.8,10.1 4.3,16.1 0.9,7.3 1.3,13.3 1.1,20.2 0.1,7.6 -1.8,16.7 -0.9,23.8 1.8,8 4.9,15.7 9.1,23.6 3.3,4.9 7.6,9.3 12,13.1 3.4,3.7 8.9,8.3 8.9,8.3 1.8,2.2 4.8,2.2 6.9,3.9 7.2,4.3 9.5,10.2 8.3,15.8 -2.7,-4.1 -6.3,-3.7 -10.7,-2.2 9.4,6 12.3,11.4 10.4,23.3 -2.3,-8.2 -10.4,-6.4 -15.5,-9.7 5,10.3 12.7,12.5 13.6,19.2 1.7,2.7 2.1,6.4 -1.3,14.3 -1.1,-3.1 -1.8,-4.9 -3.1,-7 -3.2,-2.4 -7.2,-2.2 -10.8,-7.6 0,0 -0.9,4.1 0.3,6.6 1.9,2.8 2.5,2.8 4.7,5.7 1.7,2.7 3.5,6 4.1,9 0.9,6.7 -2.8,16.5 -2.8,16.5 0,0 -2.3,-3.9 -3.7,-5.4 -2.1,-1.7 -5.7,-0.7 -8.4,-2.3 -2,-1.1 -4.7,-5.3 -4.7,-5.3 0,0 0,3.1 0.2,4.9 -0.2,1.1 -3.1,4 -3.1,4 0,0 6.3,0.1 9,4.3 2.9,2.8 3.2,7 1.3,10.1 -2.7,4.8 -7.8,6.6 -14.1,3.4 -2.4,0.2 -5.6,-1.5 -5.6,-1.5 0,0 0.6,2.9 -0.4,4.6 -0.2,1.7 -1.2,3.2 -2.9,5.2 -2.3,3.1 -6.5,3.3 -9.9,3.2 -3.5,-0.8 -6.8,-1.5 -8.4,-5.2 -1,-0.8 -2.5,-4.7 -2.5,-4.7 0,0 -3.8,4.6 -6.3,4.7 -4.7,0.1 -9,-1.9 -11.2,-4.8 -1.9,-2.8 -2.4,-5.8 -2.4,-8.7 -0.1,-2.5 1.4,-4.3 1.8,-6.1 0,0 -2,-0.9 -3.7,-1.4 -1.6,-1 -2.4,-2.9 -3.6,-5.4 -0.7,-2.5 -0.6,-5.4 0.7,-8.7 2.4,-3.6 5,-4.7 9,-3.9 2.8,-0.1 6.4,2.9 8.2,5.2 3.2,2.4 7.3,2.1 11,1 3.4,0.7 6,-3.4 9,-6.3 5.4,-9.4 6.4,-22.7 6.1,-32.2 -0.1,-11.1 0.3,-24 0.3,-24 0,0 -9.6,-7.3 -14.1,-11.2 -6.2,-7 -18.9,-22.1 -18.9,-22.1 2.9,5.4 4.2,8.6 4.1,11.6 0.5,5.9 -3.1,9.2 -4.8,14.1 -0.5,2.3 -0.2,3.5 0.2,4.8 -4.3,-2.1 -3.9,-3.8 -4.6,-6.2 -1,-3.8 0.4,-7.6 -2,-10.4 -0.4,5.1 -2.6,7.7 -6.9,10.8 0,0 1.6,-4.9 -0.8,-7.8 -2.2,-2.7 -6.1,-4.2 -7.6,-7.5 -3.1,-3 -4.4,-7.4 -1.1,-12.4 0,0 -4.7,-2.8 -5.6,-6.4 -1.6,-4 -0.2,-7.8 1,-11.1 2.6,-4.1 8.1,-10 8.1,-10 0,0 -10.8,-15.7 -14,-26.5 -1.6,-6.1 -2,-12.6 -1.3,-18.9 1.1,-5.2 2.7,-10.1 4.8,-14.3 3.2,-4.1 9.8,-10.4 9.8,-10.4 0,0 -4.9,-13.2 -8.6,-18.1 -3.1,-4.8 -6,-8.3 -9.9,-11.5 -4.5,-3.4 -10.1,-5 -14.9,-7.8 -6.3,-3.6 -10.4,-6.3 -15,-11.9 -3.5,-3.2 -4.3,-4.9 -10,-12.1 -4.2,-5.7 -25.9,-38.3 -17.6,-49.9 3.8,-5.4 14.1,-16.9 17.2,-23.3 5.3,-14.5 22.2,-31 22.2,-31 l 27.7,0.2 c 42.5,5.2 49.3,1.3 49.4,23.7 -6,42.1 -4.1,92.9 7.7,121.1 7.7,18.7 21.2,36.9 28.2,56.5 2.3,5.9 4.8,11 7.7,17.4 2.5,7.1 4.7,15.8 8.1,22.4 4,6.1 7.6,13.8 14,16.9 0,0 6.5,3.1 11.2,3.6 3.9,0.8 8.5,0.5 11.5,-2.3 5.8,-4.7 5.9,-9.3 7.1,-13.7 0.8,-9.6 -6.7,-18.9 -13.1,-28.9 -2.7,-4.1 -5.9,-9.9 -8,-13.7 -15,-29 -30.9,-58.4 -40.5,-89.7 -3,-9.8 -3.9,-19.5 -2.7,-28.9 2.9,-20.7 14.8,-33.4 25.9,-49.9 5.7,-9.7 4.1,-20.9 -7.9,-23.4 6,-5.5 13.8,-6.4 19.6,-3.8 5.3,2.1 8.1,5.7 9.6,9.9 3,9.1 -2.5,21 -8,30.4 4,-0.5 8.1,-1.8 10.8,-3.6 6.7,-6.1 6.5,-16.2 9.6,-25.3 3.4,-10.2 11.4,-17.3 22.3,-18.6 5.4,-0.7 14.5,1.2 18.8,5.6 2.7,2.6 3.4,5.6 3.5,9.6 -0.4,5.8 -3.9,11.2 -4.3,17 0.4,3.4 2.2,7.1 2.2,7.1 -0.2,0.3 -9.2,-0.2 -13.4,-6.9 -1.8,-3.2 -2.5,-10.3 -2.5,-10.3 -1.5,1.9 -2.5,2.8 -2.1,5 -2.1,9.8 1.2,18.2 -7.9,28.6 -4.9,5.8 -13.7,7.3 -24.2,7.8 -5.2,0 -6.7,2.7 -7.1,3.7 17.5,-0.8 30.3,12.3 28.9,24.7 -1.4,11.2 -12.2,18 -23.3,16.5 10,-9.6 7.3,-21.2 -5.2,-25.3 -8.3,-2.6 -15.7,-1.1 -20.5,2.4 -5.4,4.7 -8.4,13.5 -8.4,22.7 0.3,8.2 6,23.6 6,23.6 3.8,-9.7 16.2,-0.3 15.1,-17.4 9.7,12.7 2.6,20.8 -1.4,31 9.9,1.6 14.1,-2.9 16,-12.1 8,15.5 -1.2,21.2 -5.4,33.1 8.2,-0.4 11.2,-2.9 15.3,-9.8 5.4,10.8 -1.8,17.9 -9.4,25.9 6.4,-1.8 14.9,2.9 17.6,11.5 -6.1,-3.1 -8.6,-2.9 -10.9,-2 -2.2,2.3 -4.1,3.9 -3.3,6.8 1.8,7.5 6.1,12.3 9.6,17.5 6.6,8.3 12.2,15.5 11.1,30.6 -0.6,7.7 -0.9,13.8 -9.1,21.4 9.5,-0.3 13.2,4.6 14.8,8.4 -0.1,2.9 -2,6.1 -2.5,8.9 -0.2,1.1 2.3,5.7 2.3,5.7 -3.9,-0.8 -7,-2.6 -7.2,-7.9 -0.6,0.5 -1.5,1.4 -1.6,2 1.6,4.4 3.3,7.7 3.4,11.9 -0.1,3.5 -0.7,6.3 -4.7,9 -3.4,2.2 -7.7,0.2 -13,0.2 -2.5,1.2 -4.2,3.2 -5.7,5.3 -0.9,-4.4 0.5,-6.3 2.9,-8.2 2.4,-3.1 4.5,-2.6 6.8,-5.1 2.2,-1.9 2.6,-4.1 -0.2,-9.5 -2.6,6 -8.1,6.6 -11.8,5.3 -3.7,-2 -5.9,-5.4 -6,-10.7 2.4,2.9 5,4 7.5,3.4 2,-1.5 4.2,-3.2 2.1,-7.3 -0.9,-1.4 -2.9,-2.9 -3.9,-3.7 z" />
	<path class="lion-detail" d="m 450,182.5 c 3.4,1 7.2,3.9 8.5,8.6 0.4,0.4 0.2,0.6 0.1,1 -0.1,0.3 -0.2,0.6 0.2,0.8 l -1.2,-0.1 c 0.1,-0.1 0.3,-0.4 0.3,-0.7 0.1,-0.2 -0.3,-0.7 -0.3,-0.7 -1.9,-6.2 -6.5,-8.5 -11.9,-8.8 -5.5,-0.3 -10.3,2.2 -13.1,6.1 -0.3,0.9 -0.7,1.9 -1.2,2.8 -0.6,-0.1 0.3,-2.3 0.1,-3.4 3.6,-3.9 8.3,-6.6 14,-6.5 1.7,0.1 2.9,0.4 4.5,0.9 z m 17.2,-10.4 c 2.1,1 3.4,2.7 5.1,6 1.1,3.2 1.5,6.9 -0.4,10.2 -0.1,-3.1 1.9,-4.6 -0.2,-8.9 -1.2,-3.1 -4.3,-6.5 -6.2,-7.4 z m -9.1,-0.5 c 0,0 1.1,0.3 1.7,0.4 3.4,1 5.9,2.5 6.9,6 1.1,1.9 1.2,4.9 0.8,7.4 0.1,2.7 -1.2,7 -0.1,9.3 l 1.1,8.2 c -1.9,-3.2 -2.3,-7.1 -2.7,-10.5 0.2,-1.8 1.2,-4.3 1,-7.1 0.5,-2.4 0.6,-4.2 -0.7,-6 -1.5,-3.5 -3.8,-5.5 -7.2,-6.5 -3.4,-1 -7.1,-1.1 -10.2,-0.7 l -0.3,-0.8 c 2.6,-0.1 5.7,-0.2 8,0.1 0.5,0 1.1,0.2 1.7,0.2 z m -6.3,3.5 c 2.9,0.4 6,1.8 8.3,4.1 0.8,0.9 1.3,2.9 1.3,4.2 l 0.5,3.5 c -0.5,-1.7 -1.1,-3.3 -1.3,-4.5 -0.2,-1 -0.6,-1.8 -1.5,-2.6 -2.1,-2.5 -6.6,-3.5 -10.2,-3.3 -4.5,-0.2 -9,1.9 -12.5,4.4 l 0.8,-2 c 3.6,-2.5 7.8,-3.9 12.1,-3.9 1.2,0 1.8,0 2.5,0.1 z m -0.8,8.2 1,0.5 c 0,0 -2.6,1.6 -4.2,4.1 -2.1,2.2 -3.4,5.2 -4.3,7.4 -1.8,2.9 -2,6.4 -1.6,10.3 0.4,3.7 0.5,7.6 -1.2,10.7 -0.9,2.3 -2,3.4 -3.7,4.3 -1.4,0.9 -1.8,1.7 -3.5,2.8 -3.7,1.3 -10.3,2.1 -15,3.4 -5.4,1 -10.3,2.1 -13.3,3.5 -2.3,1 -3.7,3.2 -5.6,4.5 -1.9,1.6 -2.5,3.2 -2.5,3.2 0.2,-2 1.6,-3.9 2,-5 0.6,-1.5 2.4,-2.6 4.6,-3.8 3.1,-1.3 9.1,-2.3 15.1,-3.2 4.7,-1.2 10.2,-2.3 12.5,-3.8 2.2,-0.8 3.5,-2 5,-2.8 0.9,-0.9 1.4,-1.7 2.7,-3.6 1.8,-2.9 2.2,-5.4 1.8,-9.1 -0.3,-3.7 -0.9,-8.6 1.2,-11.8 0.8,-2.4 3.1,-6.5 5.3,-8.7 2,-2.2 3.7,-2.9 3.7,-2.9 z m -9.6,-0.9 2.4,0.1 c 0,0 -3.3,1.8 -4.1,3.7 -1.9,1.8 -3.2,3.4 -3.3,5.3 -1.6,2.7 -1.6,6.9 -1.8,10.6 -0.2,3.7 -0.5,7.5 -1.9,10.6 -1.6,4.4 -5.4,5.9 -8.7,8.2 -3.6,1.2 -7.7,1.8 -11.7,2.5 -4.5,0.5 -8.4,1.2 -11.4,2.4 -3.1,1.5 -5.6,4.7 -8,7.2 -1.2,1.4 -1.1,2.7 -1.5,3.7 -1.4,3.6 -1.1,-1.9 1,-4.1 1.8,-2.8 4.3,-7.1 7.9,-8.6 3,-1.4 7.9,-1.3 11.4,-2.1 4.4,-0.4 8.9,-0.5 11.9,-1.7 3.3,-2.2 5.8,-4.1 8.1,-7.9 1.1,-2.8 1.4,-6.5 1.1,-10.4 0.8,-3.6 0.6,-8.9 2.5,-11.9 0.7,-1.9 1.7,-2.6 3.2,-4.6 1.1,-1.9 2.9,-3 2.9,-3 z m 14.6,5 0.5,0.6 c 0,0 -1,0.8 -1.8,3 -2,1.6 -3.6,4 -3.6,5.8 -1.9,2.8 -1.4,6.3 -2.1,9.5 0.4,3.5 0.9,7 -0.3,10.1 -1.3,3 -2.7,6.7 -5.9,8.4 -5.3,3.7 -13.4,3.8 -19.7,5.6 -4.4,1.7 -10.6,3.1 -14.2,6.2 -4.3,2.8 -9.8,8.5 -9.8,8.5 1.4,-3.4 7.3,-8.5 9.2,-10.1 3.8,-3.3 9.9,-4.3 14.6,-5.8 6,-2.2 13.8,-1.7 18.9,-5.2 2.6,-1.7 3.9,-5.1 5.2,-8.1 1.2,-2.9 0.8,-6.5 0.9,-9.9 0.1,-3.4 0.5,-7.3 1.7,-10.6 0.7,-1.8 2.9,-3.9 4.3,-5.8 1.5,-1.8 2.1,-2.2 2.1,-2.2 z m -53.6,-6.8 c 1.2,0.1 2.3,0.6 3.3,1 2.7,1.3 5.9,4 6.5,7 1.1,4.7 0.1,10.6 -2.2,14.7 -6.2,7.4 -12.5,12.3 -16.7,18 -2.7,3.7 -4.3,7.9 -6.6,11.9 0.7,-4.8 4.3,-10.6 5.8,-12.8 4.2,-5.7 10.1,-9.6 15.7,-17.1 2.6,-3.8 3.4,-9.9 2.6,-14.3 -1.3,-2.9 -3.3,-5.4 -5.9,-6.9 -2.3,-0.9 -5.7,-1.1 -8.8,-1.1 -3.1,0 -5.3,0.6 -5.3,0.6 l -0.2,-0.9 c 0,0 2.1,-0.5 5.7,-0.4 1.4,-0.2 3.2,-0.1 5.1,0.1 0,0 0.5,0.2 1,0.2 z m 9.4,36.4 -1.1,1.1 c -4.5,0.3 -8.4,0.8 -10.5,3.4 -0.9,0.5 -2.5,1.3 -3,2.5 0.9,-2.2 1.8,-2.7 2.7,-3.4 2.9,-2.7 7.4,-3.1 11.9,-3.6 z m 6.1,20.1 0.4,0.7 c -6.5,2.2 -11.8,4.5 -15.9,6.8 5.1,-3.1 10.3,-6.9 15.5,-7.5 z m 2.7,7.4 c 3.4,0.3 7.8,2.1 10.1,3.7 7,4.5 10.2,13.3 6.7,20.1 -1.7,4.3 -6.9,8 -14.1,10.7 l -0.3,-0.7 c 7.5,-3.3 11.7,-6.2 13.4,-10.4 3.2,-6.4 -0.2,-14.8 -7.1,-19.2 -7.1,-4.9 -20.2,-5.4 -32.5,2.3 10,-7.9 19.4,-6.7 22,-6.8 0.5,0.1 1.1,0.2 1.8,0.3 z" />
	<path class="lion-detail" d="m 308.4,317.8 c 0,0 0.3,5.4 -0.3,8.3 -0.6,2.2 -1.3,4 -2.8,6 -0.7,0.9 -1.9,2.1 -3,2.8 -1.1,0.9 -2,1.7 -2,1.7 l -0.5,-0.8 c 0,0 0.8,-0.6 1.9,-1.4 1,-0.9 2.3,-2.1 2.9,-2.8 1,-1.2 1.6,-2.3 2.1,-3.8 0.3,-0.9 0.6,-1.9 0.7,-2.7 0.6,-1.4 0.9,-4.6 1,-7.3 z" />
	<path class="lion-detail" d="m 304.6,420.6 c 0,0 1.4,1.4 0.7,3 -0.3,1.2 -1.1,2.1 -1.9,3.2 -0.8,0.4 -3,2.8 -3.8,3.9 l -1.2,3.2 c -0.6,0 -0.6,0 -0.6,-0.6 -0.5,-0.2 -0.5,-0.2 -0.5,-0.2 0,0 0.1,-0.6 0.2,-1.2 0.2,-0.5 1.5,-1.4 2.3,-2.4 0.8,-1 3,-3.5 3.2,-4 0,0 0.7,-0.5 1.4,-0.9 0.1,-0.6 0.3,-1.2 0.3,-1.8 0.9,-0.9 -0.1,-2.2 -0.1,-2.2 z m -3.6,0.5 c 0,0 -0.7,0.4 -1.3,0.3 -0.7,0.2 -1.2,0.2 -1.2,0.2 -1.4,1.4 -2.9,3 -3.1,4 -0.3,1.2 -0.4,1.8 -0.6,2.8 -0.2,0.6 0.5,3.2 0.5,3.2 l -1.5,-1.5 c 0,0 0.2,-0.6 0.4,-1.8 0.2,-1 -0.3,-1.7 0.5,-2.2 0.5,-2.2 1.4,-4.5 3.9,-4.9 z m 7,11.3 c 0,0 0.1,2.9 -0.3,4.7 0.2,1.7 1.1,3.1 1.8,4.4 0.4,1.3 2.2,1.7 2.9,3.6 1,1.3 1.2,2.6 2.1,3.9 -0.1,0.6 -0.3,1.2 -0.3,1.8 0,0 -0.2,0.5 -0.2,0.5 0,0 -0.1,0.5 -0.6,0.4 l 0.3,-1.1 c 0,0 0,0 0,0 0,0 0,0 0,0 0.1,-0.6 0.1,-0.6 -0.4,-1.2 0.3,-1.1 -1,-3.3 -1.4,-4.4 -1.1,-0.8 -3.1,-2.4 -3.8,-4.3 -0.5,-0.8 -1.7,-3.3 -1.4,-5 0.5,-2.3 1.1,-2.1 1.3,-3.3 z m -4.1,5.6 c 0,0 -0.2,1.1 -0.4,1.7 0.4,1.3 0.1,2.3 0.5,3.1 0.4,1.2 2.6,2.2 3.5,3.5 1.4,1.6 3,2.4 3.4,3.2 0.7,2.5 -0.2,4 0,5.8 -0.2,1.2 -1.1,2.2 -2,3.7 -0.2,1.1 -0.4,2.2 -0.4,2.2 l -1,-0.8 c 0,0 0.1,-0.6 0.8,-1.5 0.9,-1.6 1.2,-2.7 1.9,-3.2 -0.1,-2.3 0.2,-4 -0.1,-5.2 -0.5,-0.7 -1.9,-2.2 -3.3,-3.6 -1,-1.5 -3.1,-2.4 -3.4,-3.7 -0.5,-3.1 -0.3,-4.2 0.5,-5.2 z" />
	<path class="lion-detail" d="m 442.7,454 c 0.7,1.9 1.4,3.9 1.8,5.1 0.9,1.9 1.9,5.1 1.4,7.4 0.1,2.2 -0.2,4 -1.7,5.4 -1.8,2.6 -3.4,2.2 -5.2,2.5 -1.3,0.9 -3.6,0.5 -5.6,1.2 -1.7,0.1 -3.6,0.4 -5.1,2.4 -0.8,0.4 -1.6,1.4 -1.2,2.7 -0.7,0.4 -0.9,1 -0.9,1 h -0.5 c 0,0 0.1,-0.6 0.4,-1.8 0.2,-1.2 1,-2.1 1.7,-2.5 1.3,-1 3.5,-2.8 5.1,-2.5 2.2,-1.4 3.8,-1 6.3,-1.7 1.8,-0.3 3,0 3.9,-1.5 1.6,-2 1.9,-3.7 2.3,-5.4 -0.1,-2.3 -1.5,-4.5 -1.6,-6.8 -0.3,-1.8 -1.4,-3.8 -1.6,-5.6 -1.3,-2.6 -4.5,-6.7 -4.5,-6.7 1.9,1.5 4.2,4.8 5,6.8 z" />
	<path class="lion-detail" d="m 333.6,540.5 c 0,0 -0.1,0.6 -0.7,0.4 -0.1,0.6 -0.3,1.1 -0.3,1.1 -1.3,1 -2.4,1.3 -4.3,2 -2.6,0.7 -5,0.8 -6.6,0.4 -1.3,0.4 -2.5,0.7 -3.2,1.1 -0.2,0.6 -0.7,0.5 -0.7,0.5 0,0 0,0 0,0 0,0 0,0 0,0 0,0 0,0 0.1,-0.6 -0.2,1.2 -1.7,-0.3 -0.3,-1.2 0.6,0.1 2.5,-0.7 3.8,-1 1.8,-0.2 4,0.3 5.7,0.6 0,0 2.6,-1.2 3.3,-1.6 0.7,-0.5 3.2,-1.7 3.2,-1.7 z m 25.3,5.8 c -0.2,1.2 -1.3,3.8 -1.2,5.6 1.4,1.5 1.5,3.3 3.1,4.8 l -1.1,2.1 c -1.3,-2 -2,-4.5 -2.7,-6.5 -0.2,-1.7 0.8,-3.8 1.9,-6 z m -11.7,-0.6 c 0,0 -1.3,3.2 -2.8,4.7 -2,1.4 -5.8,2.8 -7.2,4.4 -0.4,1 -0.7,2.8 -0.9,3.9 -0.3,1.1 -0.5,2.2 -0.5,2.2 l -1.1,-0.3 c 0,0 0.3,-1.2 0.5,-2.2 0.2,-1 0.4,-2.8 1.4,-3.8 1.7,-2.6 6.7,-3.8 8.2,-5.4 z" />
	<path class="secondary" d="m 380.6,550.5 c -1.4,-1.7 -4.2,-0.4 -5.8,1.5 -1.5,1.8 -2.5,6.4 -0.4,6.8 5,1.5 8,5.9 10.1,10.1 2.9,-6.6 1.1,-13.5 -3.9,-18.4 z m -39.4,14.2 c -0.4,-2.2 2.4,-3.2 4.8,-3.1 2.4,-0.1 6.6,2.3 5.5,4 -2.3,4.8 -1.1,9.9 0.9,14.3 -6.9,-2.1 -10.8,-8.1 -11.2,-15.2 z m -22.2,-12 c 1.5,-1.5 4,0.2 5.2,2.4 1.4,2 1.5,6.7 -0.6,6.8 -5.1,0.6 -8.8,4.3 -11.4,8.6 -2,-7.1 0.9,-13.6 6.8,-17.8 z m -6.7,-26.3 c 2.1,-0.2 3,2.6 2.7,5.1 -0.2,2.4 -2.8,6.4 -4.7,5 -4.4,-2.5 -9.6,-1.7 -14.2,-0.1 2.7,-6.7 9,-10.2 16.2,-10 z" />
	<path d="m 234.3,228.4 c -8.5,23.3 -30.1,32.6 -35.9,35.9 -7.3,4.6 -34.6,11.3 -38.7,-0.3 -0.7,-2.3 0,-5.1 -0.4,-8 -0.5,-2.6 -1,-4.9 -3.1,-6.3 -9.3,-5.9 -18.2,3.4 -18.2,12.9 -4,-3 -8,-3.3 -11.2,-1.7 -6.7,3 -10.2,13.2 -2.6,18.9 2,1.4 6.9,-0.3 8,2.1 0,0 1.4,2.3 2.3,3.2 0.7,0.9 2.2,2.5 2.2,2.5 0,0 -5.9,1.1 -7.2,2.5 -8,9.8 6.9,23.3 16.9,16.6 1.7,-1.9 2.5,-3.2 4.4,-4.9 2.2,-2.2 10.3,-4.3 10.3,-4.3 -3.8,7.2 -0.9,9.1 -1.4,11.4 0.1,1.2 -1,3.2 -2.6,4.6 9.5,-1.2 13.7,-4.4 17.6,-13.4 0.9,5.2 1.6,9.2 -0.7,14.3 0,0 7.4,-1.9 10.5,-5.6 3.4,-2.3 8.1,-11.4 8.1,-11.4 2.1,4.3 1.6,7.7 -0.5,12.9 8,-4.5 12.6,-7.8 13.7,-16.8 0.4,-1.7 2.4,-2.7 2.4,-2.7 -0.3,7.1 5.8,5.9 2.6,13.4 9,-5.2 9.9,-6.4 14.9,-19.8 3.3,4.2 3.9,7.5 1.8,12.1 3.8,-1.4 11.9,-6 9.5,-14.8 4.9,1.9 5.8,4.3 6.3,7.4 2.5,-2 5.1,-7.2 1.9,-16.8" />
	<path class="lion-detail" d="m 277.5,242.6 c 0,0 0.3,2.9 0.5,4.7 0.3,1.1 0.9,3.2 1.5,4.1 0.5,0.4 0.8,0.9 1.4,1.6 0.4,0.5 1,1 0.9,1.9 v 0 c 0.4,2.2 -0.6,3.8 -2.1,4.9 -1.8,1.2 -4.4,1.8 -6.9,2.4 -2.5,0.5 -4.8,0.7 -6.1,1.2 -3.8,1.2 -8.8,3.8 -11.3,7.4 v 0 c -0.1,0.1 -1.4,2.1 -2.1,3.8 -0.6,1.1 -0.7,2.4 -1,3.6 0,1.3 0,2.2 0,2.2 v 0.6 l -0.6,-0.1 c -1.5,-0.6 -2.7,-1.7 -3.7,-3.1 -0.8,-0.8 -1.4,-1.8 -2,-2.5 l -0.7,-1.6 -0.1,-1.5 0.9,1.3 c 0.6,1.2 1.5,2.6 2.6,3.9 0.8,1 1.7,1.9 2.8,2.3 -0.1,-0.3 0,-0.6 0.1,-1.6 0,-1.3 0.3,-2.8 0.8,-3.8 1,-1.8 2.3,-3.9 2.3,-3.9 v 0 0 c 2.6,-3.8 7.8,-6.6 11.7,-7.8 1.4,-0.5 3.8,-0.8 6.2,-1.3 2.6,-0.5 5,-1.2 6.5,-2.1 1.5,-1.1 2.1,-2.3 1.9,-4.1 v 0 c -0.1,-0.7 -0.3,-1.1 -0.7,-1.6 -0.6,-0.5 -1.1,-1 -1.4,-1.7 -0.9,-1.1 -1.5,-4.1 -1.5,-5.3 z" />
	<path class="lion-detail" d="m 137,287.3 c 0,0 4.8,0.3 6.6,0 l 10.8,-0.9 c 0,0 -7.8,1.6 -11.2,2.1 -2,-0.2 -6.7,-0.4 -6.7,-0.4 z m 1.1,-25.2 c 0,0 2.5,0.9 5.1,4.3 3.2,4 5.6,7.2 10.1,9.4 2.3,1 6.9,1.7 6.9,1.7 -4.1,0.7 -7.5,-0.5 -10.9,-2.5 -2.9,-1.8 -4.9,-5.7 -7,-8 -3.1,-3.4 -4.1,-3.6 -4.1,-3.6 z" />
	<path class="secondary" d="m 129.2,293.7 c 1.8,-1.2 4.1,0.8 5.1,3 1.1,2.2 0.8,6.9 -1.5,6.8 -5.1,0 -9.2,3.2 -12.3,7.1 -1.2,-7.2 2.6,-13.3 8.7,-16.9 z m -3.6,-31 c 2.1,0.3 2.2,3.4 1.4,5.7 -0.7,2.2 -4.2,5.5 -5.7,3.8 -3.6,-3.7 -8.9,-4 -13.8,-3.6 4.3,-6 11.2,-7.8 18.1,-5.9 z m 25.6,-12.7 c 1.6,1.5 0.2,4.2 -1.8,5.7 -1.8,1.5 -6.4,2.5 -6.8,0.3 -1.3,-5 -5.6,-8.2 -10,-10.2 6.8,-2.9 13.6,-0.7 18.6,4.2 z" />
	<g id="head">
		<path class="secondary" d="m 260.7,77.72 c 11.6,-3.57 2.8,-18.56 37.6,-23.52 -5.9,5.33 -5.4,6.83 -6,10.34 8.4,-7.3 19.4,-10.75 31.7,-6.87 -11.9,3.45 -15.6,4.89 -18,9.48 9.1,-4.66 18.2,-4.4 32.7,-0.52 -4.4,1.95 -6.9,3.93 -8.4,6.73 32.8,3.68 8.6,41.14 44.5,60.74 -7.1,2.8 -16.3,0.6 -24,-5.4 7.7,6.4 13.9,19.3 11.7,28.5 -3.4,13.4 1.6,17.6 -1.5,29.3 -9.1,34.5 -18,45.5 -7.5,66.6 -26.2,-11.1 -22.2,-23 -24.4,-38.8 -9.5,17.6 -2.4,30.6 9.8,44.6 -19,-1.4 -28.2,-14.7 -35.9,-27.1 -6.9,20.1 4.7,23.8 -6.6,43.7 2.4,-25.5 -13.9,-19.9 -23.3,-43.2 7.3,24.6 -2.9,26.8 2,40.5 -11.9,-6.5 -8.6,-25.3 -19.9,-33.3 -1.2,9.9 0,18.6 2.5,26.7 -13.7,-9.2 -17.7,-9.6 -21.5,-32.3 -6.9,11 -6.9,21.9 -4.6,32.6 -10.7,-9.4 -15.1,-24.7 -9.7,-34 -5.3,-0.5 -9.2,10.4 -9.2,17.5 -23.2,-55.7 41.5,-65.8 45,-102.6 l 12.2,-4.3 5.1,-40.6 z" />
		<path id="mouth" style="fill:#552200;" d="m 258.4,117.1 c 4.6,3.9 3.2,20.4 0.2,34.4 0,0 11.5,-10.8 14.2,-13.3 2.2,-1.9 3.8,-5 4.4,-8.2 0.6,-3.2 0.2,-7 -1.5,-9.8 -1.7,-2.9 -4.6,-5 -7.7,-5.6 -3.2,-0.8 -9.6,2.5 -9.6,2.5 z" />
		<path id="tongue" style="fill:#ff5555;" d="m 219,129.9 c 0,0 -0.6,5.3 1.3,8.1 2.1,3.5 5.5,6.3 9.8,6.4 6.7,0.4 15.7,-6.5 22.5,-7.4 10,-1.7 27.5,4 27.5,4 l -4.3,-13.8 c 0,0 -15.7,-2.9 -24.4,-1.6 -7.4,1.4 -14.7,9.7 -22.1,11.6 -2.2,0.3 -3.5,-0.5 -5.4,-1.5 -2.4,-1.1 -4.9,-5.8 -4.9,-5.8 z" />
		<path id="teeth" style="fill:#ffffff;" d="m 253.3,117.2 c -0.4,4 -2,6.3 -0.9,11.3 -4.9,-1.6 -6.7,-4.9 -6.9,-10.9 z m -9.4,-1.5 c -0.8,4 -2.6,6 -1.8,11.3 -4.8,-1.9 -6.4,-5.5 -6.3,-11.3 z m 18,32.1 c -1.3,-3.6 -3.5,-5.3 -3.7,-10.6 -4.5,3 -5.4,6.8 -4,12.3 z" />
		<path id="face" d="m 324.7,118.1 c 7,-3.7 14.2,-14.9 10.4,-26.67 -2.6,-8.1 -12.9,-9.18 -23,-2.79 -4.7,-10.68 -34.4,-15.45 -51.4,-10.92 -4.1,1.28 -7.2,3.14 -7.6,7.09 -6.4,2.32 -19.6,3.25 -23.9,7.66 -2.5,2.67 -0.2,7.53 1.6,8.63 -3.8,4.4 -0.8,17 4.8,15.2 6.7,7.3 22.7,3.7 25.9,2.4 0,0 5.4,-1.4 7.8,-0.1 2.5,1.1 4.2,3.9 4.9,6.8 0.6,3.3 -3.5,11.7 -5.6,14.4 -2.1,2.5 -3.8,7.3 -7,7.4 -3.8,0 -3.7,-0.2 -9.4,-2 -3,-0.9 -8.9,-1.5 -11.2,0.5 -0.8,1 -0.8,3.1 -1.1,4 -1.2,3.3 -3,3.7 -3.8,6.3 -2,7.2 1.4,9.3 -3.6,11.5 6.9,2 13.9,-2.4 15.6,-6.8 0.3,1.1 1,2.5 0.3,5.1 5,0.5 5,-4.5 7.3,-7.1 -0.1,1.6 0.3,3.1 1.8,5.1 2,-2.4 3.5,-5.8 6.5,-7.2 13.5,1.8 11.6,-13.4 12.3,-18 3.5,4.9 9.3,7.3 15.8,7.5 6.8,0.2 8.1,-3.8 15.6,-1.2 1.2,-1.9 1.4,-3.9 0.3,-6.5 2.5,0.9 4.9,1.3 7.5,0.2 0.8,-2.3 0.2,-4.3 -0.5,-6.5 2.2,0.2 4.1,1.1 6.3,-0.3 -0.4,-2 0.4,-3.1 -1.3,-6.2 2.2,0.8 4.1,-0.1 6.4,-0.9 -0.5,-2.2 1.2,-3.2 -1.7,-6.6 z" />
		<path style="fill:#552200;stroke:none;" d="m 237.3,118.2 4.9,1.1 c -8.2,-4.2 -8.2,-15.7 -6.3,-17.7 l -1,0.4 c -1.9,1.4 -1.4,12.4 2.4,16.2 z" />
		<path class="lion-detail" d="m 331.6,92.32 c -1.1,-2.32 -3.3,-2.94 -5,-3.23 -1.8,-0.34 -3.6,-0.11 -5.4,0.58 -4.2,1.41 -8.4,4.31 -12.5,12.03 l -0.8,1.6 1.4,-0.7 c 1.8,-0.7 3.6,-1.5 5.1,-1.7 -0.8,1.8 -1.5,3.5 -1.4,5.5 l 0.1,0.8 0.8,-0.3 c 1.2,-0.6 2.3,-1.1 3.8,-1.3 -0.9,1.6 -1.8,3.2 -1.9,5.2 v 0.7 l 0.6,-0.2 c 1.3,-0.1 2,-0.4 3.6,-0.5 -0.5,1.7 -0.7,2.7 0.3,3 0,-1.1 0.4,-2.3 1,-3.5 l 0.3,-1 -0.8,0.1 c -2.4,0.1 -2.7,0.4 -3.6,0.7 0.4,-1.6 1.2,-3.4 2,-5.2 l 0.4,-0.8 h -0.8 c -2,0 -3.2,0.5 -4.4,1.3 0.1,-1.7 0.7,-3.2 1.4,-4.9 l 0.3,-0.84 -0.6,-0.11 c -1.6,-0.24 -3.2,0.34 -4.9,1.15 3.7,-6.26 7.3,-8.81 10.9,-9.97 2.2,-0.7 6.9,-1.26 10.1,1.59 z m -19.3,-3.21 -0.5,-0.94 c -1.9,1.16 -3.5,2.43 -5,3.6 -1.7,1.63 -2.5,3.37 -3,5.34 1.8,-2.56 4.3,-5.34 8.5,-8 z m -46.8,18.79 c -0.2,-4.3 -2.7,-8.01 -6.4,-9.4 2.9,2.2 5.1,5.6 5.2,9.4 0,2.9 -1.2,6.5 -3.7,8.6 3.6,-1.4 4.9,-5.3 4.9,-8.6 z" />
		<path style="fill:#552200;stroke:none;" d="m 249.4,111.2 c -0.8,0 -1.4,0.5 -1.4,1.3 0,0.7 0.6,1.3 1.4,1.3 0.6,0 1.5,-0.6 1.5,-1.3 0,-0.8 -0.9,-1.3 -1.5,-1.3 z m 5.3,-0.4 c -0.7,0 -1.4,0.5 -1.4,1.3 0,0.7 0.7,1.4 1.4,1.4 0.7,0 1.3,-0.7 1.3,-1.4 0,-0.8 -0.6,-1.3 -1.3,-1.3 z m 3.6,-1.6 c -0.6,0 -1.4,0.6 -1.4,1.5 0,0.6 0.8,1.3 1.4,1.3 0.9,0 1.4,-0.7 1.4,-1.3 0,-0.9 -0.5,-1.5 -1.4,-1.5 z m -9,-2.6 c -0.8,0 -1.3,0.6 -1.3,1.3 0,0.8 0.5,1.4 1.3,1.4 0.7,0 1.3,-0.6 1.3,-1.4 0,-0.7 -0.6,-1.3 -1.3,-1.3 z m 5.1,-0.5 c -0.9,0 -1.4,0.5 -1.4,1.3 0,0.7 0.5,1.3 1.4,1.3 0.8,0 1.4,-0.6 1.4,-1.3 0,-0.8 -0.6,-1.3 -1.4,-1.3 z m 4.3,-2.4 c -0.8,0 -1.4,0.6 -1.4,1.3 0,0.9 0.6,1.5 1.4,1.5 0.6,0 1.4,-0.6 1.4,-1.5 0,-0.7 -0.8,-1.3 -1.4,-1.3 z m -29.6,-11.12 c -1.5,2.67 -0.6,5.69 1.2,8.02 0.9,0.7 1.3,1 2.2,0.8 0,0 0.5,2 0.8,2.7 0.6,1.5 1.5,2.4 1.5,2.4 0,0 0.6,-2.2 1,-3.2 0.5,-1.1 1.1,-1.8 2.4,-2.2 1.4,-0.9 3.5,0.1 4.7,-1 0.8,-0.55 1.8,-3.33 1.8,-3.33 0,0 -2.4,0 -5,-0.59 -1.9,-0.34 -6,1.86 -6,1.86 -2.2,-1.4 -4.2,-2.67 -4.6,-5.46 z" />
		<g id="eye">
			<path class="lion-detail" d="m 258.7,90.34 c -1.4,-0.38 -1.3,-0.94 -1.3,-0.94 l -0.3,-0.92 1,0.27 v 0 0 c 0,0 3.5,1.07 9,0.55 2.3,-0.24 5.3,-1.75 8,-2.26 1.3,-0.2 2.8,-0.32 3.8,0.52 1.2,0.81 2,2.15 2.4,4.32 -1.2,-0.14 -1.5,-1.94 -3,-3.16 -0.7,-0.52 -1.6,-0.51 -2.8,-0.27 -2.4,0.48 -5.4,1.96 -8.2,2.27 -5.2,0.47 -7.3,0.1 -8.6,-0.38 z" />
			<path style="fill:#ffffff;" d="m 262.5,93.62 c 0.5,2.03 4.4,4.91 7.8,4.2 3.5,-0.67 5.3,-4.8 4.8,-6.91 -0.6,-2.06 -3.3,-1.05 -6.8,-0.29 -3.4,0.72 -6.3,0.87 -5.8,3 z" />
			<path style="fill:#552200;stroke:none;" d="m 264.4,94.53 a 3.006,2.752 63.05 0 0 3.2,2.71 3.006,2.752 63.05 0 0 2.4,-3.28 3.006,2.752 63.05 0 0 -3.3,-2.62 3.006,2.752 63.05 0 0 -2.3,3.19 z" />
			<path style="fill:#000000;stroke:none;" d="m 266.7,93.05 c 0.7,0 1.6,0.42 1.6,1.27 0.2,0.86 -0.3,1.49 -1.2,1.55 -0.8,0.12 -1.5,-0.47 -1.6,-1.23 -0.1,-0.82 0.5,-1.51 1.2,-1.59 z" />
			<path style="fill:#ffffff;stroke:none;" d="m 265.9,92.74 c 0.5,-0.1 1.1,0.3 1.2,0.9 0.1,0.61 -0.4,1.05 -0.9,1.1 -0.5,0.1 -1,-0.32 -1.1,-0.9 0,-0.61 0.4,-1.08 0.8,-1.1 z" />
		</g>
		<path style="fill:#ff9900;stroke:none;" d="m 316.8,78.84 -4.7,9.8 c -9,16.46 -7.7,23.76 12.6,29.46 12.7,1.6 10.9,23.6 9.5,26.4 -15,27.6 -55.7,11.5 -58.5,-7.7 23.1,-12.9 3.6,-24.1 -4.8,-25.5 14.6,0.2 43.8,-28.06 25.4,-28.48 -23.8,-0.54 -9.8,-7.32 -33.8,-4.84 4.7,-5.09 6.5,-4.34 9.1,-5.34 l 9,-2.78" />
	</g>
</g>
<g id="lance" style="stroke:#000088;stroke-width:0.5;">
	<path style="fill:#0000ff;" d="m 264.5,364.9 9.1,22.2 c 13.6,-16.5 26.4,-11.1 36.3,-27.8 -13.8,7.6 -29.2,-3.4 -45.4,5.6 z" />
	<path style="fill:#0000ff;stroke:none;" d="m 275.1,387.2 c -3.4,-8.1 -7,-16.5 -10.3,-24.6 l -2.6,1.1 c 3.4,8.2 6.9,16.4 10.3,24.6 z m -20.5,-49.3 c -3.5,-8.5 -7,-16.7 -10.3,-24.8 l -3,1.2 c 3.4,8 6.9,16.3 10.4,24.7 z m -20.5,-49.6 c -3.6,-8.6 -7,-16.9 -10.3,-24.7 l -3.4,1.4 c 3.3,7.7 6.8,16 10.4,24.7 z"/>
	<path style="fill:#ffffff;stroke:none;" d="m 278,397.9 -2.7,-10.1 c -0.1,-0.1 -0.1,-0.4 -0.2,-0.6 l -2.6,1.1 c 0,0.1 0.1,0.4 0.2,0.6 z m -13.2,-35.3 c -3.5,-8.4 -6.9,-16.6 -10.2,-24.7 l -2.9,1.1 c 3.5,8.1 6.9,16.3 10.5,24.7 z m -20.5,-49.5 c -3.5,-8.6 -7,-16.9 -10.2,-24.8 l -3.3,1.4 c 3.5,7.8 6.9,16.1 10.5,24.6 z m -20.5,-49.5 c -2.4,-6.2 -4.8,-12.1 -7,-17.5 l -1.1,-1.1 1.2,4.7 -2.5,-3.5 0.6,2.5 -1.2,-1.8 0.8,3.4 -0.5,-0.1 c 2,4.8 4.1,9.6 6.3,14.8 z"/>
	<path style="fill:none;" d="m 278,397.9 -2.7,-10.1 c -22.4,-53.8 -44.1,-106.1 -58.5,-141.7 l -1.1,-1.1 1.2,4.7 -2.5,-3.5 0.6,2.5 -1.2,-1.8 0.8,3.4 -0.5,-0.1 c 15.1,35.3 36.6,86.1 58.6,138.7 z" />
	<path style="fill:#0000ff;" d="m 328.4,311 c 1.6,-2.1 4.4,-6.2 4,-6.7 -0.3,-0.3 -6.3,0.1 -10.5,5.3 -4.1,5.3 -3,11.1 -2.6,11.3 0.6,0.4 3.9,-3.2 5.6,-5.5 l 1.7,-2.2 z"/>
	<path style="fill:#ffffff;stroke:none;" d="m 310.3,304.8 c 4.8,3.6 8.6,6 12.9,9.3 3.5,2.6 10.7,8 10.7,8 9.4,7.3 8.8,7.5 9.1,9.6 l 2.7,-3.4 2.8,-3.5 c -2.2,0.2 -2.3,0.9 -11.6,-6.7 0,0 -6.9,-5.6 -10.2,-8.5 -4.2,-3.4 -7.5,-6.4 -12.2,-10.2 z" />
	<path style="fill:#0000ff;stroke:none;" d="m 226.9,237.6 c 3.5,2.7 6.7,5.3 9.6,7.7 3.7,2.9 7.5,5.9 11.3,9 l 3,-3.8 c -3.9,-3 -7.8,-5.9 -11.5,-8.7 -3,-2.3 -6.2,-4.9 -9.7,-7.6 z m 41.7,33.5 c 7.8,6.4 14.6,11.8 20.8,17 l 3.9,-5 c -6.3,-4.8 -13.3,-10.2 -21.3,-16.4 z"/>
	<path style="fill:#ffffff;stroke:none;" d="m 218.9,229.4 3.3,3.6 -1.5,-0.5 c 2.1,1.8 4.2,3.4 6.2,5.1 l 2.7,-3.4 c -2.8,-2.1 -5.6,-4.3 -8.6,-6.5 l -0.4,0.1 2.3,2.6 -1.9,-1 1.8,1.9 z m 28.9,24.9 c 6.9,5.6 14.1,11.3 20.8,16.8 l 3.4,-4.4 c -7,-5.3 -14,-10.7 -21.2,-16.2 z m 41.6,33.8 c 9.3,7.3 16.6,13.4 17.9,14.5 1.1,0.6 2,1.5 3,2.2 l 4.2,-5.4 c -0.9,-0.7 -1.9,-1.5 -2.9,-2.3 -1.4,-1 -8.9,-6.8 -18.3,-14 z" />
	<path style="fill:none;" d="m 218.9,229.4 3.3,3.6 -1.5,-0.5 c 5.9,4.7 11.2,9 15.8,12.8 28.7,23 67.3,54.4 70.8,57.3 6.4,4.8 10.6,7.6 15.9,11.5 3.5,2.6 10.7,8 10.7,8 9.4,7.3 8.8,7.5 9.1,9.6 l 2.7,-3.4 2.8,-3.5 c -2.2,0.2 -2.3,0.9 -11.6,-6.7 0,0 -6.9,-5.6 -10.2,-8.5 -5,-4.1 -8.8,-7.6 -15.1,-12.5 -3.5,-2.8 -43,-32.9 -72.3,-55.3 -5.3,-4.1 -11.6,-9 -18.3,-14.1 l -0.4,0.1 2.3,2.6 -1.9,-1 1.8,1.9 z" />
	<path style="fill:#0000ff;" d="m 332.4,304.3 c -4.4,-3 -17.3,-4.5 -20.8,-7.2 -0.7,0.5 -1.5,1.4 -2.3,2.6 -0.7,0.8 -1.6,1.9 -2,2.9 3.6,2.6 8.1,14.8 12,18.3 -0.1,-2.6 2.9,-6.8 5.1,-9.4 2,-2.7 5.4,-6.7 8,-7.2 z" />
	<path style="fill:#0000ff;" d="m 373.7,354.3 -13.5,-10.6 c -12.2,-9.6 -14.1,-11.3 -16.3,-10.6 -1.9,1 -2.4,1.2 -1.5,-1.7 0.3,-1.7 1.7,-3 2.3,-3.9 0.6,-0.8 1.9,-2.5 3.3,-3.3 2.7,-1.4 2.4,-1 2,1.2 -0.2,2.2 2,3.8 14.2,13.3 l 13.4,10.8 c 0,0 0.3,0 -1.7,2.5 -2,2.6 -2.2,2.3 -2.2,2.3 z" />
</g>
<use xlink:href="#lance" transform="translate(-170,0)"/>
<use xlink:href="#lance" transform="translate(170,0)"/>
<use xlink:href="#lance" transform="translate(-85,180)"/>
<use xlink:href="#lance" transform="translate(85,180)"/>
<use id="shine" xlink:href="#shield" fill="url(#rg)" stroke="#000" stroke-width="3"/>
</svg>
