<?xml version="1.0" encoding="UTF-8" standalone="no"?>
<svg
   xmlns:dc="http://purl.org/dc/elements/1.1/"
   xmlns:cc="http://creativecommons.org/ns#"
   xmlns:rdf="http://www.w3.org/1999/02/22-rdf-syntax-ns#"
   xmlns:svg="http://www.w3.org/2000/svg"
   xmlns="http://www.w3.org/2000/svg"
   xmlns:xlink="http://www.w3.org/1999/xlink"
   xmlns:sodipodi="http://sodipodi.sourceforge.net/DTD/sodipodi-0.dtd"
   xmlns:inkscape="http://www.inkscape.org/namespaces/inkscape"
   width="600"
   height="660"
   id="svg2"
   version="1.1"
   inkscape:version="0.48.2 r9819"
   sodipodi:docname="House_Roote.svg">
  <metadata
     id="metadata24">
    <rdf:RDF>
      <cc:Work
         rdf:about="">
        <dc:format>image/svg+xml</dc:format>
        <dc:type
           rdf:resource="http://purl.org/dc/dcmitype/StillImage" />
        <dc:title></dc:title>
      </cc:Work>
    </rdf:RDF>
  </metadata>
  <sodipodi:namedview
     pagecolor="#ffffff"
     bordercolor="#666666"
     borderopacity="1"
     objecttolerance="10"
     gridtolerance="10"
     guidetolerance="10"
     inkscape:pageopacity="0"
     inkscape:pageshadow="2"
     inkscape:window-width="1366"
     inkscape:window-height="715"
     id="namedview22"
     showgrid="false"
     inkscape:zoom="0.71515153"
     inkscape:cx="303.42226"
     inkscape:cy="400.66457"
     inkscape:window-x="-8"
     inkscape:window-y="-8"
     inkscape:window-maximized="1"
     inkscape:current-layer="layer2" />
  <defs
     id="defs4">
    <inkscape:path-effect
       is_visible="true"
       id="path-effect3136"
       effect="spiro" />
    <inkscape:path-effect
       effect="spiro"
       id="path-effect3132"
       is_visible="true" />
    <inkscape:path-effect
       effect="spiro"
       id="path-effect3101"
       is_visible="true" />
    <inkscape:path-effect
       is_visible="true"
       id="path-effect3085"
       effect="spiro" />
    <inkscape:path-effect
       is_visible="true"
       id="path-effect3083"
       effect="spiro" />
    <inkscape:path-effect
       is_visible="true"
       id="path-effect3081"
       effect="spiro" />
    <inkscape:path-effect
       is_visible="true"
       id="path-effect3079"
       effect="spiro" />
    <inkscape:path-effect
       is_visible="true"
       id="path-effect3077"
       effect="spiro" />
    <inkscape:path-effect
       is_visible="true"
       id="path-effect3075"
       effect="spiro" />
    <inkscape:path-effect
       effect="spiro"
       id="path-effect3049"
       is_visible="true" />
    <inkscape:path-effect
       is_visible="true"
       id="path-effect3045"
       effect="spiro" />
    <inkscape:path-effect
       effect="spiro"
       id="path-effect3041"
       is_visible="true" />
    <radialGradient
       id="rg"
       gradientUnits="userSpaceOnUse"
       cx="220"
       cy="220"
       r="405">
      <stop
         style="stop-color:#fff;stop-opacity:.3"
         offset="0"
         id="stop7" />
      <stop
         style="stop-color:#fff;stop-opacity:.2"
         offset=".2"
         id="stop9" />
      <stop
         style="stop-color:#666;stop-opacity:.1"
         offset=".6"
         id="stop11" />
      <stop
         style="stop-color:#000;stop-opacity:.13"
         offset="1"
         id="stop13" />
    </radialGradient>
    <path
       id="shield"
       d="m2,2v257c0,286 298,398 298,398c0,0 298-112 298-398V2z" />
    <radialGradient
       inkscape:collect="always"
       xlink:href="#rg-7"
       id="radialGradient3055-1"
       gradientUnits="userSpaceOnUse"
       cx="220"
       cy="220"
       r="405" />
    <radialGradient
       id="rg-7"
       gradientUnits="userSpaceOnUse"
       cx="220"
       cy="220"
       r="405">
      <stop
         style="stop-color:#fff;stop-opacity:.3"
         offset="0"
         id="stop7-4" />
      <stop
         style="stop-color:#fff;stop-opacity:.2"
         offset=".2"
         id="stop9-0" />
      <stop
         style="stop-color:#666;stop-opacity:.1"
         offset=".6"
         id="stop11-9" />
      <stop
         style="stop-color:#000;stop-opacity:.13"
         offset="1"
         id="stop13-4" />
    </radialGradient>
    <radialGradient
       r="405"
       cy="220"
       cx="220"
       gradientUnits="userSpaceOnUse"
       id="radialGradient3074"
       xlink:href="#rg-7"
       inkscape:collect="always" />
    <inkscape:path-effect
       is_visible="true"
       id="path-effect10120-1"
       effect="spiro" />
    <inkscape:path-effect
       effect="spiro"
       id="path-effect10118-3"
       is_visible="true" />
    <inkscape:path-effect
       effect="spiro"
       id="path-effect10116-9"
       is_visible="true" />
    <inkscape:path-effect
       effect="spiro"
       id="path-effect10114-7"
       is_visible="true" />
    <inkscape:path-effect
       effect="spiro"
       id="path-effect10112-7"
       is_visible="true" />
    <inkscape:path-effect
       effect="spiro"
       id="path-effect10110-2"
       is_visible="true" />
    <linearGradient
       inkscape:collect="always"
       xlink:href="#linearGradient4719-5"
       id="linearGradient4039"
       gradientUnits="userSpaceOnUse"
       gradientTransform="matrix(2.3257341,0,0,2.2943177,447.69485,-1820.2799)"
       x1="-145.25935"
       y1="984.24286"
       x2="-64.14286"
       y2="984.14789" />
    <linearGradient
       inkscape:collect="always"
       id="linearGradient4719-5">
      <stop
         style="stop-color:#666666;stop-opacity:1;"
         offset="0"
         id="stop4721-5" />
      <stop
         id="stop4809-1"
         offset="0.39344174"
         style="stop-color:#666666;stop-opacity:0.74901961;" />
      <stop
         style="stop-color:#666666;stop-opacity:0;"
         offset="1"
         id="stop4723-7" />
    </linearGradient>
    <radialGradient
       inkscape:collect="always"
       xlink:href="#linearGradient4801-8"
       id="radialGradient4041"
       gradientUnits="userSpaceOnUse"
       gradientTransform="matrix(-0.72153181,1.2650715,-2.2729984,-1.2616144,1712.0113,1733.7841)"
       cx="-307.14288"
       cy="782.36218"
       fx="-307.14288"
       fy="782.36218"
       r="63" />
    <linearGradient
       inkscape:collect="always"
       id="linearGradient4801-8">
      <stop
         style="stop-color:#000000;stop-opacity:1;"
         offset="0"
         id="stop4803-2" />
      <stop
         style="stop-color:#000000;stop-opacity:0;"
         offset="1"
         id="stop4805-4" />
    </linearGradient>
    <inkscape:path-effect
       effect="spiro"
       id="path-effect10108-4"
       is_visible="true" />
    <linearGradient
       inkscape:collect="always"
       xlink:href="#linearGradient4719-5"
       id="linearGradient4044"
       gradientUnits="userSpaceOnUse"
       gradientTransform="matrix(-2.4055369,0,0,-1.6485021,142.06168,1726.5307)"
       x1="-145.25935"
       y1="984.24286"
       x2="-64.14286"
       y2="984.14789" />
    <radialGradient
       inkscape:collect="always"
       xlink:href="#linearGradient4801-8"
       id="radialGradient4046"
       gradientUnits="userSpaceOnUse"
       gradientTransform="matrix(0.74628962,-0.90897301,2.3509914,0.90648896,-1165.637,-827.11785)"
       cx="-307.14288"
       cy="782.36218"
       fx="-307.14288"
       fy="782.36218"
       r="63" />
    <inkscape:path-effect
       effect="spiro"
       id="path-effect10102-7"
       is_visible="true" />
    <linearGradient
       inkscape:collect="always"
       xlink:href="#linearGradient4719-5"
       id="linearGradient4049"
       gradientUnits="userSpaceOnUse"
       gradientTransform="matrix(2.334989,0,0,-1.6146975,449.44065,1692.189)"
       x1="-145.25935"
       y1="984.24286"
       x2="-64.14286"
       y2="984.14789" />
    <radialGradient
       inkscape:collect="always"
       xlink:href="#linearGradient4801-8"
       id="radialGradient4051"
       gradientUnits="userSpaceOnUse"
       gradientTransform="matrix(-0.72440295,-0.89033332,-2.2820431,0.88790031,1718.7881,-809.09364)"
       cx="-307.14288"
       cy="782.36218"
       fx="-307.14288"
       fy="782.36218"
       r="63" />
    <inkscape:path-effect
       is_visible="true"
       id="path-effect10096-8"
       effect="spiro" />
    <linearGradient
       inkscape:collect="always"
       xlink:href="#linearGradient4719-5"
       id="linearGradient4054"
       gradientUnits="userSpaceOnUse"
       gradientTransform="matrix(-2.409599,0,0,2.2818507,139.61083,-1810.8163)"
       x1="-145.25935"
       y1="984.24286"
       x2="-64.14286"
       y2="984.14789" />
    <radialGradient
       inkscape:collect="always"
       xlink:href="#linearGradient4801-8"
       id="radialGradient4056"
       gradientUnits="userSpaceOnUse"
       gradientTransform="matrix(0.74754985,1.2581972,2.3549614,-1.2547588,-1170.296,1723.935)"
       cx="-307.14288"
       cy="782.36218"
       fx="-307.14288"
       fy="782.36218"
       r="63" />
    <inkscape:path-effect
       is_visible="true"
       id="path-effect10090-3"
       effect="spiro" />
    <inkscape:path-effect
       effect="spiro"
       id="path-effect10084-1"
       is_visible="true" />
    <inkscape:path-effect
       effect="spiro"
       id="path-effect10082-1"
       is_visible="true" />
    <radialGradient
       inkscape:collect="always"
       xlink:href="#linearGradient4801-8"
       id="radialGradient4061"
       gradientUnits="userSpaceOnUse"
       gradientTransform="matrix(-0.76516322,1.2901254,-2.4104477,-1.2865998,1806.8444,1757.4704)"
       cx="-307.14288"
       cy="782.36218"
       fx="-307.14288"
       fy="782.36218"
       r="63" />
    <inkscape:path-effect
       effect="spiro"
       id="path-effect10080-4"
       is_visible="true" />
    <inkscape:path-effect
       is_visible="true"
       id="path-effect3075-1"
       effect="spiro" />
    <inkscape:path-effect
       effect="spiro"
       id="path-effect3101-7"
       is_visible="true" />
    <linearGradient
       inkscape:collect="always"
       xlink:href="#grad1-7-7"
       id="linearGradient3085-8-8"
       gradientUnits="userSpaceOnUse"
       gradientTransform="matrix(0.77469594,0,0,0.30982404,152.68996,-13.619206)"
       x1="78.877235"
       y1="178.07356"
       x2="301.40585"
       y2="178.07356" />
    <linearGradient
       id="grad1-7-7"
       x1="78.877235"
       y1="178.07356"
       x2="301.40585"
       y2="178.07356"
       gradientTransform="scale(1.577772,0.63380513)"
       gradientUnits="userSpaceOnUse">
      <stop
         offset="0%"
         style="stop-color:#da0;"
         id="stop16-4-4" />
      <stop
         offset="40%"
         style="stop-color:#fd0;"
         id="stop18-0-0" />
      <stop
         offset="60%"
         style="stop-color:#fd0;"
         id="stop20-9-9" />
      <stop
         offset="100%"
         style="stop-color:#da0;"
         id="stop22-4-4" />
    </linearGradient>
    <linearGradient
       inkscape:collect="always"
       xlink:href="#grad1-7-7"
       id="linearGradient3081-8-8"
       gradientUnits="userSpaceOnUse"
       gradientTransform="matrix(0.77469594,0,0,0.30982404,-27.310046,-13.619206)"
       x1="78.877235"
       y1="178.07356"
       x2="301.40585"
       y2="178.07356" />
    <linearGradient
       id="linearGradient3093"
       x1="78.877235"
       y1="178.07356"
       x2="301.40585"
       y2="178.07356"
       gradientTransform="scale(1.577772,0.63380513)"
       gradientUnits="userSpaceOnUse">
      <stop
         offset="0%"
         style="stop-color:#da0;"
         id="stop3095" />
      <stop
         offset="40%"
         style="stop-color:#fd0;"
         id="stop3097" />
      <stop
         offset="60%"
         style="stop-color:#fd0;"
         id="stop3099" />
      <stop
         offset="100%"
         style="stop-color:#da0;"
         id="stop3101" />
    </linearGradient>
    <linearGradient
       y2="178.07356"
       x2="301.40585"
       y1="178.07356"
       x1="78.877235"
       gradientTransform="matrix(0.77469594,0,0,0.30982404,332.68995,-13.619206)"
       gradientUnits="userSpaceOnUse"
       id="linearGradient3128-1"
       xlink:href="#grad1-7-7"
       inkscape:collect="always" />
    <linearGradient
       id="linearGradient3104"
       x1="78.877235"
       y1="178.07356"
       x2="301.40585"
       y2="178.07356"
       gradientTransform="scale(1.577772,0.63380513)"
       gradientUnits="userSpaceOnUse">
      <stop
         offset="0%"
         style="stop-color:#da0;"
         id="stop3106" />
      <stop
         offset="40%"
         style="stop-color:#fd0;"
         id="stop3108" />
      <stop
         offset="60%"
         style="stop-color:#fd0;"
         id="stop3110" />
      <stop
         offset="100%"
         style="stop-color:#da0;"
         id="stop3112" />
    </linearGradient>
  </defs>
  <g
     inkscape:groupmode="layer"
     id="layer2"
     inkscape:label="Elements"
     style="display:inline">
    <path
       inkscape:connector-curvature="0"
       style="fill:#008800;fill-opacity:1;stroke:none;display:inline;stroke-width:4;stroke-miterlimit:4;stroke-dasharray:none"
       id="path7212"
       d="m 2,2 0,257 c 0,286 298,398 298,398 0,0 298,-112 298,-398 L 598,2 z" />
    <path
       inkscape:connector-curvature="0"
       style="color:#000000;fill:#ffffff;fill-opacity:1;fill-rule:nonzero;stroke:none;stroke-width:3.15410781000000020;stroke-linecap:butt;stroke-linejoin:miter;stroke-miterlimit:4;stroke-opacity:1;stroke-dasharray:none;stroke-dashoffset:0;marker:none;visibility:visible;display:inline;overflow:visible;enable-background:accumulate"
       d="m 211.28086,101.57705 c -70.68287,33.32029 -119.599822,105.1943 -119.599822,188.51708 0,115.05433 93.254772,208.32882 208.309102,208.32882 115.05433,0 208.32882,-93.27449 208.32882,-208.32882 0,-83.32058 -48.91999,-155.19562 -119.59982,-188.51708 l -88.729,153.64448 -88.70928,-153.64448 z"
       id="path3171" />
    <path
       id="path3392"
       d="m 298.48745,190.06053 c -7.96241,0.42762 -19.25808,16.6278 -29.37889,31.62068 -10.73005,15.89539 -12.09129,19.93085 -13.7612,32.34786 -1.44242,10.72543 1.00263,17.38531 0,25.85014 -7.44813,1.73738 -14.04013,-0.87237 -22.34746,5.20756 -0.37999,-9.55582 -10.08771,-19.10922 -16.31387,-28.66504 l 16.31387,-13.04236 c 5.40407,-0.65982 4.34854,-3.95177 2.94718,-5.79399 -1.55027,-2.03797 -6.74451,-1.68415 -6.63694,2.13463 l -13.48273,8.89038 c 3.38773,-10.71411 4.28358,-21.4461 5.15175,-32.1602 3.10609,-1.46521 1.1663,-4.67071 -0.67298,-5.51251 -1.8278,-0.83653 -4.7829,0.47757 -3.62015,2.90873 -1.23437,8.01426 -1.27916,16.50993 -5.15175,23.45748 -2.35561,5.88321 -5.13615,3.08772 -7.75082,3.4717 -0.15689,-4.40758 1.30095,-8.5634 -0.64978,-13.23001 -1.78968,-7.23926 -6.65144,-14.48237 -11.27815,-21.72163 2.0495,-3.19979 -0.70495,-5.28872 -4.01465,-3.3075 -3.90768,2.33917 -1.88113,4.53037 0.25527,5.37176 6.92306,8.83004 9.20365,20.70692 9.74655,28.407 -4.35692,-7.99913 -9.48044,-10.55633 -14.22532,-15.81034 0.72832,-2.94487 -2.17171,-3.88652 -4.08427,-1.68893 -1.82155,2.09301 -0.50649,4.5058 1.09068,4.62112 0.14402,-0.0437 6.45585,5.71193 9.37526,14.70784 2.98207,9.18902 1.82539,2.06957 7.17067,19.25859 5.80627,16.80458 10.81823,33.73767 23.80944,49.4249 12.92219,2.65924 34.31352,-5.23747 37.36178,-1.12596 5.69477,7.68115 2.08746,2.02543 -0.85863,12.17444 -3.88419,13.38066 -4.71083,41.94197 -4.71083,41.94197 0,-10e-6 -25.70098,-12.03094 -32.65095,-5.20756 -9.69642,9.5198 -4.29312,39.08015 -4.29312,39.08015 -2.74775,-16.40854 -7.83722,-31.19766 -6.4745,-49.56565 0.87246,-0.32492 2.31607,-4.19524 -1.5316,-4.50383 -4.37735,-0.35108 -2.91415,3.72194 -2.32061,3.87048 l 1.83328,31.08116 c -5.27327,-10.96853 -10.71658,-21.91885 -15.61768,-32.88738 0.3543,-1.4619 1.12525,-6.34687 -3.94504,-4.01123 -4.06906,1.87443 -1.80345,5.46595 -0.41771,5.48905 4.75449,9.31742 8.49577,18.62041 10.41953,27.93785 -3.09106,3.40772 -13.15164,-6.97911 -20.02684,-10.74352 -0.32179,-3.76891 -3.87308,-3.81248 -4.9429,-1.50128 -1.65295,3.57103 2.76946,4.76959 3.34168,4.48038 0,-10e-6 15.38549,10.16138 21.62806,19.07093 8.72254,12.44902 -1.07761,17.55403 9.72335,36.68749 12.40549,21.97584 28.57239,42.08619 44.41643,48.43969 5.86107,2.35032 12.76164,0.48234 14.94471,-13.91028 2.47772,-16.33524 -7.81234,-42.39846 -15.03754,-55.0547 -0.8351,-1.3027 -1.66957,-2.63177 -2.48305,-4.01123 0.75693,1.09697 1.60765,2.47779 2.48305,4.01123 10.47531,16.34068 22.84908,26.84333 42.21185,35.96031 2.00835,0.94564 3.17614,1.81448 4.2003,2.34575 l 0,0.25803 c 0.69336,0.22006 1.25156,0.28648 1.76366,0.25803 0.51211,0.0285 1.07031,-0.038 1.76367,-0.25803 l 0,-0.25803 c 1.02416,-0.53127 2.19195,-1.40011 4.2003,-2.34575 19.38522,-9.12755 31.77522,-19.63399 42.25826,-36.00723 0.86341,-1.50952 1.68911,-2.88097 2.43664,-3.96431 -0.80165,1.35939 -1.61403,2.6795 -2.43664,3.96431 -7.22677,12.63466 -17.5654,38.74179 -15.08395,55.10162 2.18306,14.39262 9.06043,16.2606 14.92151,13.91028 15.84404,-6.3535 32.03413,-26.46385 44.43963,-48.43969 10.80096,-19.13346 1.00082,-24.23847 9.72335,-36.68749 6.24257,-8.90955 21.62805,-19.07094 21.62806,-19.07093 0.57222,0.28921 4.99464,-0.90935 3.34168,-4.48038 -1.06982,-2.3112 -4.64431,-2.26763 -4.96611,1.50128 -6.87519,3.76441 -16.91257,14.15124 -20.00363,10.74352 1.92376,-9.31744 5.64182,-18.62043 10.39632,-27.93785 1.38575,-0.0231 3.67456,-3.61462 -0.3945,-5.48905 -5.07029,-2.33564 -4.29935,2.54933 -3.94504,4.01123 -4.9011,10.96853 -10.34441,21.91885 -15.61769,32.88738 l 1.81008,-31.08116 c 0.59354,-0.14854 2.07996,-4.22156 -2.2974,-3.87048 -3.84767,0.30859 -2.40406,4.17891 -1.5316,4.50383 1.36272,18.36799 -3.72674,33.15711 -6.4745,49.56565 0,0 5.40331,-29.56035 -4.29312,-39.08015 -6.94997,-6.82338 -32.67416,5.20755 -32.67416,5.20756 0,0 -0.80343,-28.56131 -4.68762,-41.94197 -2.94609,-10.14901 -6.5534,-4.49329 -0.85863,-12.17444 3.04826,-4.11151 24.43958,3.7852 37.36178,1.12596 12.99121,-15.68723 18.00317,-32.62032 23.80944,-49.4249 5.34528,-17.18902 4.18861,-10.06957 7.17067,-19.25859 2.91941,-8.99591 9.23124,-14.75151 9.37526,-14.70784 1.59717,-0.11532 2.91223,-2.52811 1.09068,-4.62112 -1.91256,-2.19759 -4.8126,-1.25594 -4.08427,1.68893 -4.74488,5.25401 -9.8916,7.81121 -14.24853,15.81034 0.5429,-7.70008 2.82348,-19.57696 9.74656,-28.407 2.13639,-0.84139 4.18616,-3.03259 0.27847,-5.37176 -3.3097,-1.98122 -6.08737,0.10771 -4.03786,3.3075 -4.6267,7.23926 -9.48846,14.48237 -11.27815,21.72163 -1.95072,4.66661 -0.4929,8.82243 -0.64977,13.23001 -2.61468,-0.38398 -5.37202,2.41151 -7.72763,-3.4717 -3.87258,-6.94755 -3.91737,-15.44322 -5.15174,-23.45748 1.16275,-2.43116 -1.79236,-3.74526 -3.62015,-2.90873 -1.83928,0.8418 -3.77907,4.0473 -0.67298,5.51251 0.86817,10.7141 1.76403,21.44609 5.15175,32.1602 l -13.50594,-8.89038 c 0.10758,-3.81878 -5.08666,-4.1726 -6.63693,-2.13463 -1.40137,1.84222 -2.45689,5.13417 2.94717,5.79399 l 16.33708,13.04236 c -6.22616,9.55582 -15.95708,19.10922 -16.33708,28.66504 -8.30733,-6.07993 -14.89933,-3.47018 -22.34745,-5.20756 -1.00264,-8.46483 1.44241,-15.12471 0,-25.85014 -1.66992,-12.41701 -3.00796,-16.45247 -13.738,-32.34786 -10.77495,-15.96192 -22.89092,-33.26851 -30.88729,-31.47994 -0.48586,-0.10881 -0.99329,-0.1684 -1.50839,-0.14074 z"
       style="fill:#000000;fill-opacity:1;stroke:#333333;stroke-width:3.99999976;stroke-linecap:round;stroke-linejoin:round;stroke-miterlimit:4;stroke-opacity:1;stroke-dasharray:none"
       inkscape:connector-curvature="0" />
    <path
       id="path3394"
       d="m 321.64021,224.49423 c 0.62853,13.80832 8.24701,19.03917 15.4692,25.62696 2.65312,-2.68186 4.04349,-12.17581 1.07426,-18.89446 -2.74712,-6.21605 -12.14415,-8.69874 -16.54346,-6.7325 z m -43.29771,0 c -0.62853,13.80832 -8.247,19.03917 -15.4692,25.62696 -2.65312,-2.68186 -4.04349,-12.17581 -1.07425,-18.89446 2.74711,-6.21605 12.14414,-8.69874 16.54345,-6.7325 z"
       style="fill:#ffffff;stroke:#333333;stroke-width:5.29152012000000040;stroke-linecap:round;stroke-linejoin:round;stroke-opacity:1"
       inkscape:connector-curvature="0" />
    <path
       id="path3396"
       d="m 332.81241,257.72241 c -3.65605,10.52608 -1.05972,19.29658 5.5861,26.93002 m -28.57415,-51.77355 c -3.8371,14.64561 7.65343,24.02273 17.01526,23.95658 m -59.66932,0.88695 c 3.65605,10.52608 1.05972,19.29658 -5.5861,26.93002 m 28.57415,-51.77355 c 3.8371,14.64561 -7.65343,24.02273 -17.01525,23.95658"
       inkscape:connector-curvature="0"
       style="fill:#000000;stroke:#333333;stroke-width:5.03954315;stroke-linecap:round;stroke-linejoin:round;stroke-opacity:1" />
    <path
       id="path3398"
       d="m 371.27058,372.3922 c -9.09021,6.13268 -15.36774,14.16079 -21.05531,22.58647 m 33.94632,-1.30306 c -2.90228,15.34601 -10.31755,27.36118 -18.26227,39.30915 M 319.06202,413.113 c 9.97296,-14.32416 20.11393,-28.39357 26.74883,-47.77908 M 308.53436,198.21573 c 1.45745,8.60383 3.39581,16.99933 8.80885,23.88954 M 228.71213,372.3922 c 9.09021,6.13268 15.36774,14.16079 21.05531,22.58647 m -33.94631,-1.30306 c 2.90227,15.34601 10.31754,27.36118 18.26226,39.30915 M 280.9207,413.113 c -9.97297,-14.32416 -20.11394,-28.39357 -26.74883,-47.77908 m 37.27648,-167.11819 c -1.45745,8.60383 -3.39581,16.99933 -8.80885,23.88954"
       inkscape:connector-curvature="0"
       style="fill:#000000;stroke:#333333;stroke-width:5.03954315;stroke-linecap:round;stroke-linejoin:round;stroke-opacity:1" />
  </g>
  <g
     inkscape:groupmode="layer"
     id="layer1"
     inkscape:label="Cover"
     style="display:inline"
     sodipodi:insensitive="true">
    <path
       d="m 2,2 v 257 c 0,286 298,398 298,398 0,0 298,-112 298,-398 V 2 z"
       id="shine"
       inkscape:connector-curvature="0"
       style="fill:url(#radialGradient3074);stroke:#000000;stroke-width:3" />
  </g>
</svg>
