<?xml version="1.0" encoding="UTF-8"?>
<svg xmlns="http://www.w3.org/2000/svg" xmlns:xlink="http://www.w3.org/1999/xlink" width="600" height="660">
<defs>
  <radialGradient id="rg" gradientUnits="userSpaceOnUse" cx="220" cy="220" r="405">
    <stop style="stop-color:#fff;stop-opacity:.3" offset="0"/>
    <stop style="stop-color:#fff;stop-opacity:.2" offset=".2"/>
    <stop style="stop-color:#666;stop-opacity:.1" offset=".6"/>
    <stop style="stop-color:#000;stop-opacity:.13" offset="1"/>
  </radialGradient>
  <clipPath id="clip-shield">/home/sophian/Documents/stuff/sigils/cross.svg
    <path id="shield" d="m2,2v257c0,286 298,398 298,398c0,0 298-112 298-398V2z"/>
  </clipPath>
</defs>
<use id="background" xlink:href="#shield" style="fill:#88bb88;"/>
<g id="tree" style="fill:#ffffff;stroke:#666666;stroke-width:1;stroke-linecap:round;stroke-linejoin:round;">
  <g id="half">
    <path d="m 239.6,381.4 c -2.4,-2.5 -4.2,-7.6 -1.8,-10 1,-1 2.9,-2.3 3.6,-2.8 2.8,-1.9 8.2,0.3 10.4,2.7 2.8,3 5.6,8.7 2.9,11.8 -0.7,0.7 -2.5,2.3 -3.4,2.6 -4,1.1 -8.9,-1.3 -11.7,-4.3 z"/>
    <path d="m 168.2,510.7 c 3.7,2.5 8.2,7.2 11.2,7.7 3.6,0.7 18.3,-2.9 27,-3.5 -7.8,-1 -20.3,-3.7 -22.2,-4.5 -2,-0.8 -7.4,-4 -10.1,-6.5 z"/>
    <path d="m 142.4,476.4 c 5.5,12 11.5,25.7 20.8,36.7 1.3,1.6 8.5,0.1 11.9,-1.6 1.5,-0.9 3.4,-5.9 2.4,-7.2 -9.7,-12.1 -16.6,-23.5 -21.4,-34.8 -1.3,-2.8 -5.9,-0.1 -8.6,1.3 -1.9,0.9 -6,3.6 -5.1,5.6 z"/>
    <path d="m 148,448.6 c -5.1,-0.5 -8.3,1.9 -8.9,10 -0.5,6.9 2.4,13.7 -1.5,21 7.9,-1.4 13.9,0 16.9,0 1,-3.3 2.8,-7.3 3.6,-10.4 -5.6,-4.6 -0.7,-19.7 -10.1,-20.6 z"/>
    <path d="m 143,448.2 c 7.1,2.1 11.2,5.8 12.6,12.7 22.3,-24.4 49.9,-46.5 76.4,-63.1 -2.5,-6 -5.5,-9 -8.8,-10.6 -24.8,21.1 -50.4,41.9 -80.2,61 z"/>
    <path d="m 250,389.8 c -3.3,2.7 -10.3,5.5 -15.5,9.4 -2.7,2.1 -7.5,-0.9 -9.6,-3.5 -2.5,-3 -5.2,-8.4 -2.7,-11.4 2.8,-3.3 5.8,-8.4 7.7,-11 3.1,-4.2 9.1,0.3 13.1,3.6 3.2,2.7 10.2,10.3 7,12.9 z"/>
    <path d="m 213.1,346.5 c -0.7,-3.3 0.3,-8.7 3.7,-9.5 1.3,-0.3 3.6,-0.6 4.5,-0.5 3.3,-0.2 6.8,4.4 7.6,7.7 0.8,4 0.2,10.3 -3.7,11.5 -1.1,0.3 -3.4,0.7 -4.3,0.5 -4,-1.2 -6.9,-5.7 -7.8,-9.7 z"/>
    <path d="m 85.2,420.3 c 1.87,4 3.31,10.4 5.59,12.4 2.74,2.4 17.11,6.9 24.81,10.9 -6,-4.9 -15.3,-13.7 -16.64,-15.3 -1.31,-1.7 -4.14,-7.3 -5.2,-10.9 z"/>
    <path d="m 80.82,377.6 c -1.44,13.1 -3.41,28 -1.2,42.1 0.28,2.2 7.27,4.5 11,4.8 1.74,0.1 6.08,-3.3 5.84,-4.9 -2.04,-15.4 -2.1,-28.7 -0.34,-40.8 0.38,-3.2 -5,-3.2 -8.05,-3.4 -2.12,-0.2 -7.02,0.1 -7.25,2.2 z"/>
    <path d="m 99.97,356.6 c -4.11,-3 -8.01,-2.6 -12.75,4.1 -4.06,5.5 -5.04,12.9 -12.16,17 7.46,2.9 11.89,7.2 14.49,8.9 2.52,-2.3 6.17,-4.8 8.42,-7.1 -2.47,-6.8 9.53,-17.2 2,-22.9 z"/>
    <path d="m 95.96,353.6 c 4.84,5.7 6.44,10.9 4.24,17.5 31.6,-9.3 66.7,-14 97.9,-14.4 1.1,-6.5 -0.1,-10.7 -2,-13.7 -32.2,5.2 -64.8,9.8 -100.14,10.6 z"/>
    <path d="m 218.9,358.8 c -4.1,0.7 -11.6,-0.6 -18,0.1 -3.4,0.4 -6,-4.6 -6.5,-8 -0.6,-3.9 -0.1,-9.7 3.7,-11.1 4,-1.5 9.3,-4.3 12.2,-5.4 4.9,-2 7.7,5 9.4,9.8 1.3,3.9 3.4,14.1 -0.8,14.6 z"/>
    <path d="m 206.7,304.3 c 0.3,-3.4 2.9,-8.1 6.3,-8 1.4,0.1 3.6,0.5 4.5,0.9 3.2,0.7 5.2,6.1 5.1,9.5 -0.4,4.2 -2.9,10 -7,10 -1.1,-0.1 -3.5,-0.4 -4.3,-0.9 -3.4,-2.2 -5,-7.4 -4.6,-11.5 z"/>
    <path d="m 44.13,329.5 c 1.61,4.1 2.67,10.6 4.83,12.8 2.57,2.5 16.57,7.8 24.04,12.4 -5.69,-5.3 -14.38,-14.7 -15.63,-16.3 -1.21,-1.9 -3.7,-7.6 -4.5,-11.2 z"/>
    <path d="m 42.33,286.6 c -2.23,13 -5.08,27.8 -3.75,42 0.12,2.2 7.02,5 10.68,5.4 1.74,0.2 6.29,-2.8 6.13,-4.5 -1.09,-15.5 -0.32,-28.8 2.15,-40.8 0.57,-3.1 -4.77,-3.4 -7.82,-3.9 -2.08,-0.2 -7,-0.2 -7.39,1.8 z"/>
    <path d="m 62.79,266.8 c -3.92,-3.2 -7.86,-3 -13.05,3.3 -4.34,5.4 -5.79,12.6 -13.15,16.3 7.28,3.3 11.43,7.9 13.91,9.7 2.65,-2.1 6.47,-4.4 8.86,-6.5 -2.05,-6.9 10.51,-16.7 3.43,-22.8 z"/>
    <path d="m 55.21,263.5 c 9.39,6 6.58,12.8 6.18,19.9 31.91,5.6 102.01,19.3 133.91,27.7 2.8,-5.9 2.3,-12.9 1.3,-16.3 -44.5,-5.1 -107.49,-21.6 -141.39,-31.3 z"/>
    <path d="m 207.9,318.3 c -4,-0.8 -10.3,-5.1 -16.6,-6.8 -3.3,-1 -3.8,-6.6 -2.9,-9.9 1,-3.8 3.5,-9 7.6,-9 4.1,0.2 10.3,-0.1 13.4,-0.1 5.3,0.1 5.3,7.6 4.8,12.6 -0.1,4.1 -2.1,14.4 -6.3,13.2 z"/>
    <path d="m 227.9,263.1 c 1.4,-3 5.6,-6.4 8.8,-5 1.2,0.6 3.1,1.8 3.9,2.4 2.7,1.8 2.5,7.6 1.1,10.6 -2,3.8 -6.3,8.3 -10.1,6.9 -1.1,-0.6 -3.1,-1.8 -3.7,-2.3 -2.4,-3.5 -1.8,-8.9 0,-12.6 z"/>
    <path d="m 38.14,215.9 c 0,4.3 -1.37,10.9 -0.16,13.6 1.49,3.3 12.57,13.3 17.84,20.3 -3.35,-7 -8.03,-18.9 -8.57,-20.8 -0.46,-2.2 -0.67,-8.5 -0.1,-12.1 z"/>
    <path d="m 52.2,175.2 c -6.84,11.2 -14.91,24.1 -18.86,37.8 -0.68,2 4.71,7.1 7.96,8.9 1.55,0.8 6.9,-0.3 7.36,-2 4.65,-14.8 10.19,-26.9 16.94,-37.1 1.64,-2.7 -3.2,-4.9 -5.89,-6.6 -1.86,-0.9 -6.41,-2.7 -7.51,-1 z"/>
    <path d="m 78.53,164.2 c -2.54,-4.3 -6.28,-5.6 -13.42,-1.6 -6,3.4 -9.99,9.6 -18.18,10.3 5.54,5.8 7.72,11.5 9.39,14.2 3.24,-0.9 7.63,-1.7 10.64,-2.8 0.59,-7.2 15.81,-11.7 11.57,-20.1 z"/>
    <path d="m 72.63,158.4 c 6.53,9.1 1.43,14.4 -1.55,20.9 27.6,16.9 117.12,66.6 143.52,86 4.9,-4.5 7.1,-11.1 7.3,-14.7 -39.5,-21 -121.3,-70.7 -149.27,-92.2 z"/>
    <path d="m 224,276.5 c -3.7,-2 -8.5,-8 -13.7,-11.8 -2.9,-1.8 -1.6,-7.3 0.4,-10.2 2,-3.3 6.2,-7.4 10.1,-6.1 3.9,1.6 9.8,3 12.6,4.2 5,1.7 2.6,8.8 0.7,13.5 -1.6,3.9 -6.6,12.9 -10.1,10.4 z"/>
    <path d="m 276.9,199.6 c 7,6.8 14,12.2 19.2,20.6 l -7.4,4.8 c -4.9,-12.4 -10.4,-15 -11.8,-25.4 z"/>
    <path d="m 262.3,222.7 c 0.2,4.8 2.1,12.3 3.6,18.4 0.9,3.8 7.9,2.5 11.2,0.4 3.9,-2.6 10.7,-10.2 6.6,-12.3 -3.7,-2 -7.6,-9.6 -10.6,-11.7 -2.6,-1.9 -10.9,1.2 -10.8,5.2 z"/>
    <path d="m 279.1,213.7 c 3.4,2.7 5.4,8.9 11.5,11.6 l -7.4,4.8 c -1.9,-5 -5.3,-7.3 -4.1,-16.4 z"/>
    <path d="m 249.3,236.1 c 2,-2.7 6.8,-5.3 9.6,-3.3 1.1,0.8 2.8,2.4 3.3,3 2.4,2.4 1.2,8.1 -0.9,10.8 -2.6,3.3 -7.8,6.9 -11.2,4.8 -1,-0.8 -2.7,-2.3 -3.1,-3.1 -1.8,-3.7 -0.2,-9 2.3,-12.2 z"/>
    <path d="m 274.3,92 c -11.1,3.7 -23,3.4 -39.6,4.7 -10.4,0.8 -11.6,-4.1 -17.5,-6.1 -39.3,-13.17 -73.4,-19.2 -106.1,-23.17 l -0.5,-13.37 c 36.9,7.55 114,26.14 132.9,25.04 2.9,10.9 4.4,9.5 30.8,12.9 z"/>
    <path d="m 106.8,107.7 c -4.6,2.1 -8.97,-1.5 -11.13,-9.4 -3.39,-12.4 5.33,-42.93 1.44,-46.48 12.59,-1.86 21.99,0.84 22.99,1.33 0,3.27 -0.2,16.88 0.9,19.88 -6.7,5.27 -6.6,31.37 -14.2,34.67 z"/>
    <path d="m 117.7,97.7 c -8.6,2 -15.6,6.3 -19.75,12.1 21.75,17.5 114.85,99.7 137.95,125.8 5.7,-3.5 9.1,-9.6 9.9,-13 -34.6,-28.3 -104.8,-98.4 -128.1,-124.9 z"/>
    <path d="m 242.8,248.4 c -3.1,-2.7 -6.6,-9.4 -11.1,-14.2 -2.4,-2.3 0,-7.5 2.4,-9.9 2.6,-2.9 7.5,-6.1 11,-4.1 3.6,2.3 9.1,4.9 11.7,6.6 4.5,2.6 0.8,9.2 -2,13.4 -2.3,3.5 -9,11.3 -12,8.2 z"/>
    <path d="m 278.5,89.6 c 0,-2.3 -0.1,-3.2 -4.7,-5.7 -3.9,-2.1 -25.4,-7.45 -36.1,-6.65 -9.6,0.72 -7.2,9.45 -4.4,15.05 9.2,-9.3 27.3,-6.8 45.2,-2.7 z"/>
    <path id="eye" style="fill:#000000;" d="m 262,218.6 c -1.3,2.5 1.3,2.2 4.3,7.6 0.9,1.6 6.1,0.3 5.6,-1.5 -1.4,-5.5 1.7,-7.3 -0.2,-8.9 -2.7,-2.2 -8.1,-0.2 -9.7,2.8 z"/>
  </g>
  <use xlink:href="#half" transform="matrix(-1,0,0,1,600,0)"/>
  <path id="mouth" d="m 307.5,223.3 c -3.2,-5.2 -3.1,-12.1 -7.5,-16 -4.4,3.9 -4.3,10.8 -7.5,16 5,0 10,0 15,0 z"/>
  <path id="body" d="m 356.7,372.1 c 15.1,-12.9 24.3,-30.4 24.8,-50.3 0.6,-22.7 -10.6,-47.7 -27.2,-59.4 -3.5,-18 -15.1,-24.3 -26.7,-25.4 -3.9,-11.4 -9.6,-21.8 -27.6,-21.8 -18,0 -23.7,10.4 -27.6,21.8 -11.6,1.1 -23.2,7.4 -26.7,25.4 -16.6,11.7 -27.8,36.7 -27.2,59.4 0.5,19.9 9.7,37.4 24.8,50.3 13.9,11.8 35.9,17.6 56.7,22.5 20.8,-4.9 42.8,-10.7 56.7,-22.5 z"/>
  <path id="texture" style="fill:none;" d="m 288,222.4 c 2.1,5.9 8.8,8.2 7.8,14 -1.4,8.6 -11.1,12.2 -11.3,21 -0.2,7.6 5.7,15.9 13,18.8 m -29.3,-29.6 c -0.6,16.3 18.4,39.6 31.8,39.6 m -66.4,13.1 c -3.1,29 4,54.8 31.6,74.1 m -14.7,-104.4 c 16.5,1.7 43.2,30.7 42.8,45.8 -0.4,14.8 -10.6,20.6 -11,34.1 -0.5,14.9 12.1,24.5 12.3,36.8"/>
  <use xlink:href="#texture" transform="matrix(-1,0,0,1,600,0)"/>
</g>
<use id="shine" xlink:href="#shield" style="fill:url(#rg);stroke:#000000;stroke-width:3;"/>
</svg>
