<?xml version="1.0" encoding="UTF-8" standalone="no"?>
<svg
   xmlns:dc="http://purl.org/dc/elements/1.1/"
   xmlns:cc="http://creativecommons.org/ns#"
   xmlns:rdf="http://www.w3.org/1999/02/22-rdf-syntax-ns#"
   xmlns:svg="http://www.w3.org/2000/svg"
   xmlns="http://www.w3.org/2000/svg"
   xmlns:xlink="http://www.w3.org/1999/xlink"
   id="svg29"
   version="1.1"
   height="660"
   width="600">
  <metadata
     id="metadata33">
    <rdf:RDF>
      <cc:Work
         rdf:about="">
        <dc:format>image/svg+xml</dc:format>
        <dc:type
           rdf:resource="http://purl.org/dc/dcmitype/StillImage" />
        <dc:title></dc:title>
      </cc:Work>
    </rdf:RDF>
  </metadata>
  <defs
     id="defs17">
    <radialGradient
       r="405"
       cy="220"
       cx="220"
       gradientUnits="userSpaceOnUse"
       id="rg">
      <stop
         id="stop2"
         offset="0"
         style="stop-color:#ffffff;stop-opacity:.3" />
      <stop
         id="stop4"
         offset="0.2"
         style="stop-color:#ffffff;stop-opacity:.2" />
      <stop
         id="stop6"
         offset="0.6"
         style="stop-color:#666666;stop-opacity:.1" />
      <stop
         id="stop8"
         offset="1"
         style="stop-color:#000000;stop-opacity:.13" />
    </radialGradient>
    <path
       d="m 2 2 v 257 c 0 286 298 398 298 398 c 0 0 298 -112 298 -398 V 2 Z"
       id="shield" />
  </defs>
  <use
     xlink:href="#shield"
     style="fill:#000000"
     id="bg" />
  <path
     d="m 265.14089,314.40439 c 9.2452,3.82958 16.59063,11.17515 20.42007,20.42066 9.24503,-3.82942 19.63264,-3.8295 28.87774,0 3.82958,-9.2452 11.17515,-16.59063 20.42091,-20.42007 -3.82917,-9.24503 -3.82925,-19.63263 0,-28.87773 -9.24545,-3.82959 -16.59088,-11.17516 -20.42032,-20.42092 -9.24503,3.82917 -19.63264,3.82925 -28.87774,0 -3.82958,9.24546 -11.17515,16.59088 -20.42066,20.42032 3.82943,9.24503 3.82951,19.63264 0,28.87774 z m 11.6688,-70.42452 c 14.84849,6.15053 31.53211,6.15057 46.38062,0 6.15044,14.8482 17.94742,26.64513 32.79576,32.79552 -6.15052,14.84848 -6.15057,31.5321 0,46.38061 -14.8482,6.15044 -26.64513,17.94743 -32.79551,32.79587 -14.84849,-6.1504 -31.53211,-6.15045 -46.38061,0 -6.15045,-14.84831 -17.94743,-26.64524 -32.79588,-32.79562 6.15041,-14.84848 6.15045,-31.53211 0,-46.38061 14.84831,-6.15044 26.64524,-17.94743 32.79562,-32.79577 z m -9.62585,-23.23959 c 21.01192,8.70342 44.62066,8.70342 65.63258,0 8.70342,21.01192 25.39733,37.70582 46.40925,46.40925 -8.70343,21.01193 -8.70343,44.62066 0,65.63259 -21.01193,8.70341 -37.70583,25.39732 -46.40926,46.40924 -21.01192,-8.70343 -44.62066,-8.70343 -65.63258,0 -8.70342,-21.01193 -25.39733,-37.70583 -46.40924,-46.40926 8.70342,-21.01192 8.70342,-44.62066 0,-65.63258 21.01192,-8.70342 37.70582,-25.39733 46.40925,-46.40924 z m -10.94129,-26.40749 c 28.01649,11.6056 59.49587,11.60597 87.51263,1e-5 11.60487,28.0137 33.86293,50.27124 61.87796,61.87544 -11.60558,28.0165 -11.60596,59.49587 0,87.51263 -28.0137,11.60487 -50.27124,33.86294 -61.87544,61.879 -28.01649,-11.60454 -59.49587,-11.60492 -87.51263,0 -11.60487,-28.01474 -33.86293,-50.27228 -61.879,-61.87648 11.60454,-28.01649 11.60492,-59.49586 1e-5,-87.51263 28.01474,-11.60489 50.27227,-33.86296 61.87647,-61.87797 z m -12.25164,-29.57744 c 35.861,14.85496 76.15441,14.85537 112.01569,0 14.85418,35.85796 43.34459,64.34781 79.20399,79.20126 -14.85495,35.86099 -14.85536,76.1544 0,112.01569 -35.85796,14.85417 -64.34781,43.34458 -79.20125,79.20511 -35.86099,-14.85382 -76.1544,-14.85423 -112.01569,0 -14.85418,-35.85909 -43.34459,-64.34894 -79.20512,-79.20238 14.85382,-35.86099 14.85423,-76.1544 0,-112.01569 35.85909,-14.85418 64.34894,-43.34459 79.20238,-79.20399 z m -14.00178,-33.80284 c 44.82613,18.56847 95.19267,18.56888 140.01909,-3e-5 18.56766,44.82295 54.18078,80.43546 99.00521,99.00235 -18.56847,44.82612 -18.56888,95.19266 2e-5,140.01909 -44.82293,18.56765 -80.43545,54.18077 -99.00233,99.00637 -44.82613,-18.56729 -95.19267,-18.5677 -140.01909,3e-5 -18.56766,-44.82411 -54.18077,-80.43663 -99.00637,-99.00351 18.56728,-44.82613 18.5677,-95.19267 -4e-5,-140.01909 44.82411,-18.56765 80.43663,-54.18077 99.00351,-99.00521 z m -17.50155,-42.253813 c 56.03236,23.210123 118.99004,23.210483 175.02267,0 23.20942,56.029673 67.72605,100.545783 123.757,123.754573 -23.21013,56.03236 -23.21049,118.99005 0,175.02267 -56.02968,23.20943 -100.54579,67.72605 -123.75458,123.758 -56.03236,-23.20911 -118.99004,-23.20948 -175.02267,0 -23.20942,-56.03068 -67.72605,-100.54679 -123.758001,-123.75557 23.209111,-56.03237 23.209481,-118.99005 0,-175.02268 56.030681,-23.20942 100.546791,-67.72605 123.755581,-123.756993 z m -176.5726,320.659773 c 70.04006,29.01069 125.68548,84.65505 154.69749,154.6925 70.0415,-29.01207 148.73942,-29.01124 218.78031,10e-5 v -0.002 c 29.01069,-70.038 84.65505,-125.68341 154.69032,-154.69542 -29.01424,-70.0415 -29.01342,-148.73942 1e-4,-218.78031 -70.038,-29.01069 -125.6834,-84.65505 -154.69542,-154.690437 -70.04147,29.014196 -148.73938,29.013456 -218.78031,7e-6 -29.01068,70.038 -84.65505,125.68341 -154.692497,154.69543 29.012132,70.04147 29.011391,148.73938 7e-6,218.7803 z"
     style="opacity:1;fill:none;fill-opacity:1;stroke:#dddddd;stroke-width:5;stroke-miterlimit:4;stroke-dasharray:none;stroke-opacity:1"
     id="path655" />
  <path
     id="path68"
     d="m 176.56445,2 123.43555,298 123.43555,-298 m 174.56445,174.56445 -298,123.43555 266.85938,110.53711 m -147.27735,178.1582 -119.58203,-288.69531 -119.58203,288.69531 m -147.277345,-178.1582 266.859375,-110.53711 -298,-123.43555"
     style="fill:none;stroke:#dddddd;stroke-width:5;stroke-linecap:butt;stroke-linejoin:miter;stroke-miterlimit:4;stroke-dasharray:none;stroke-opacity:1" />
  <g
     id="g1708">
    <path
       style="fill:#ee0000;stroke:none;stroke-width:2;stroke-miterlimit:4;stroke-dasharray:none;fill-opacity:1"
       d="m 336.53592,279.52234 c 0,0 20.6743,15.47321 18.20851,23.71281 15.63698,11.10622 30.45204,72.02551 25.10441,84.37477 6.22029,5.6622 8.51866,21.20278 14.29754,36.19541 7.94533,20.50769 13.09509,36.27151 12.45073,41.18788 11.11637,10.69525 25.51538,36.2157 32.51702,53.09066 5.83977,14.06415 10.70032,28.39721 11.52225,32.10097 0.82193,3.69869 -2.8869,5.75859 -4.94173,0.82193 -2.06498,-4.94173 -10.69525,-31.27904 -10.69525,-31.27904 0,0 -26.33731,-35.80981 -30.87823,-48.14892 -7.40752,-4.94174 -31.69,-67.09393 -31.69,-79.84908 -3.57693,-3.77987 -6.66678,-20.89836 -11.26858,-44.87135 -3.77987,-19.909 -12.85662,-34.46022 -11.77594,-37.4486 -6.17766,-1.88052 -15.54347,-11.83673 -19.52257,-18.93851 0,0 6.27103,-3.13044 6.67184,-10.94893 z"
       id="path2" />
    <path
       style="fill:#ee0000;stroke:none;stroke-width:2;stroke-miterlimit:4;stroke-dasharray:none;fill-opacity:1"
       d="m 336.35327,264.9194 c 4.23193,-1.18559 22.06263,4.43272 24.14975,9.5624 17.69181,2.88184 45.27216,38.68657 46.91603,51.44172 10.69525,7.4126 32.10097,55.98264 31.69508,63.80113 7.81342,7.40753 22.62847,39.09754 22.62847,39.09754 0,0 7.82864,21.41079 9.06153,26.74827 1.2329,5.3527 -2.87675,6.99656 -4.53076,1.2329 -1.64387,-5.76367 -8.64043,-25.50523 -8.64043,-25.50523 0,0 -15.22602,-23.88166 -23.05465,-38.28575 -9.05139,-5.76367 -31.69001,-54.74467 -33.74484,-62.1522 -10.70032,-4.11472 -12.96825,-17.50916 -25.51538,-28.39721 -6.17463,-5.35269 -16.46399,-13.17119 -17.69688,-18.92978 -7.74884,1.71635 -16.46907,-0.40589 -21.08527,-6.01085 0,0 0.53274,-7.26039 -0.18265,-12.60294 z"
       id="path4" />
    <path
       style="fill:#ee0000;stroke:none;stroke-width:2;stroke-miterlimit:4;stroke-dasharray:none;fill-opacity:1"
       d="m 332.45306,249.64142 c 6.1163,-2.78013 23.01192,-4.52916 27.22803,-1.09611 17.69181,-11.10114 70.78247,10.29444 70.78247,10.29444 0,0 18.92978,-54.32863 27.16938,-62.97413 -6.58559,-14.81505 -13.18134,-39.09753 -15.64713,-48.981 -1.64386,-11.11129 -4.1198,-31.69001 -4.94173,-35.39377 -0.82193,-3.70376 4.1198,-4.11473 4.94173,-0.41097 0.83208,3.70377 4.94174,34.57184 4.94174,34.57184 0,0 19.07184,48.84909 17.70195,53.09573 -6.1797,19.34075 -23.46562,67.91586 -31.27904,68.73779 -7.82356,0.82193 -64.61798,-2.06497 -72.84744,-7.82356 -7.64611,3.05329 -19.3623,4.19962 -24.65062,2.61312 0,0 -0.0457,-6.77839 -3.39934,-12.63338 z"
       id="path6" />
    <path
       style="fill:#ee0000;stroke:none;stroke-width:2;stroke-miterlimit:4;stroke-dasharray:none;fill-opacity:1"
       d="m 326.56762,236.39958 c 4.19161,-3.66766 13.20291,-10.59201 18.4354,-9.72071 9.88854,-18.51882 72.85252,-18.92978 72.85252,-18.92978 0,0 -4.11473,-21.81162 4.1198,-72.03059 -11.52225,-18.10785 -25.10441,-35.804734 -32.50686,-47.332064 -1.11621,-15.824709 -4.11981,-33.754982 -4.94681,-38.280677 -0.82193,-4.530768 3.70376,-4.931586 4.94681,0 1.22782,4.93666 4.52569,36.636815 4.52569,36.636815 0,0 35.81489,44.445156 35.81489,50.208826 0,5.76366 -2.47087,67.50489 -4.94174,73.67445 -2.47086,6.17463 -4.94173,7.40752 -12.34926,9.05646 -7.41767,1.64386 -52.27887,15.23109 -61.75137,13.17119 -1.77061,7.91346 -13.47436,12.85068 -19.25733,15.4793 0,0 -3.91686,-6.62619 -4.94174,-11.93322 z"
       id="path8" />
    <path
       style="fill:#ee0000;stroke:none;stroke-width:2;stroke-miterlimit:4;stroke-dasharray:none;fill-opacity:1"
       d="m 322.23678,223.82574 5.18274,-16.97443 c 0,0 -10.80357,-15.56621 -12.87362,-22.97374 -2.04975,-7.41767 2.06498,-9.46742 7.40753,-2.0599 5.35777,7.40753 11.52225,19.75679 11.94337,24.69345 0.40589,4.93666 -6.47477,26.80234 -7.60619,29.1007 -0.88281,-10.08134 -4.05384,-11.78608 -4.05384,-11.78608 z"
       id="path10" />
  </g>
  <use
     height="100%"
     width="100%"
     transform="matrix(-1,0,0,1,600,0)"
     id="use1710"
     xlink:href="#g1708"
     y="0"
     x="0" />
  <path
     id="path24"
     d="M 300 214.6543 C 289.06596 214.6543 276.03435 217.29176 274.90039 222.56836 C 269.03525 249.82399 260.49678 248.90712 261.72461 276.89844 C 262.65816 297.93379 271.15058 302.51054 281.89648 299.375 C 291.38191 296.60725 296.87065 296.6302 300 296.49414 C 303.12935 296.6302 308.61809 296.60725 318.10352 299.375 C 328.84942 302.51054 337.34184 297.93379 338.27539 276.89844 C 339.50322 248.90712 330.96475 249.82399 325.09961 222.56836 C 323.96565 217.29176 310.93404 214.6543 300 214.6543 z "
     style="fill:#ee0000;stroke:none;stroke-width:2;stroke-miterlimit:4;stroke-dasharray:none;fill-opacity:1" />
  <path
     id="path22"
     d="M 300 292.94531 C 293.54929 292.94531 262.13656 292.94654 252.66406 321.34375 C 243.20678 349.74604 232.90548 402.00798 262.13477 423.00781 C 285.44898 439.95002 290.12738 439.06641 300 439.06641 C 309.87262 439.06641 314.55102 439.95002 337.86523 423.00781 C 367.09452 402.00798 356.79322 349.74604 347.33594 321.34375 C 337.86344 292.94654 306.45071 292.94531 300 292.94531 z "
     style="fill:#ee0000;stroke:none;stroke-width:2;stroke-miterlimit:4;stroke-dasharray:none;fill-opacity:1" />
  <g
     id="g1956">
    <ellipse
       style="opacity:1;fill:#ffffff;fill-opacity:1;stroke-width:2;stroke-miterlimit:4;stroke-dasharray:none"
       id="path1712"
       cx="318.70926"
       cy="289.82141"
       rx="5.6853185"
       ry="2.7190652"
       transform="rotate(-6.0675921)" />
    <ellipse
       transform="rotate(-32.181868)"
       ry="2.7190652"
       rx="5.6853185"
       cy="380.55652"
       cx="161.6691"
       id="ellipse1714"
       style="opacity:1;fill:#ffffff;fill-opacity:1;stroke-width:2;stroke-miterlimit:4;stroke-dasharray:none" />
    <ellipse
       style="opacity:1;fill:#ffffff;fill-opacity:1;stroke-width:2;stroke-miterlimit:4;stroke-dasharray:none"
       id="ellipse1716"
       cx="422.08069"
       cy="136.04367"
       rx="5.6853185"
       ry="2.7190652"
       transform="rotate(20.506742)" />
    <ellipse
       transform="rotate(51.181224)"
       ry="2.7190652"
       rx="5.6853185"
       cy="-82.222832"
       cx="446.12552"
       id="ellipse1718"
       style="opacity:1;fill:#ffffff;fill-opacity:1;stroke-width:2;stroke-miterlimit:4;stroke-dasharray:none" />
    <ellipse
       style="opacity:1;fill:#ffffff;fill-opacity:1;stroke-width:2;stroke-miterlimit:4;stroke-dasharray:none"
       id="ellipse1732"
       cx="302.2413"
       cy="300.05234"
       rx="5.6853185"
       ry="2.7190652"
       transform="rotate(-13.012237)" />
    <ellipse
       ry="3.5449054"
       rx="7.4120755"
       cy="299.22556"
       cx="324.54376"
       id="ellipse1734"
       style="opacity:1;fill:#ffffff;fill-opacity:1;stroke-width:2.60744405;stroke-miterlimit:4;stroke-dasharray:none"
       transform="rotate(-13.012237)" />
    <ellipse
       ry="2.7190652"
       rx="5.6853185"
       cy="300.05234"
       cx="348.0358"
       id="ellipse1736"
       style="opacity:1;fill:#ffffff;fill-opacity:1;stroke-width:2;stroke-miterlimit:4;stroke-dasharray:none"
       transform="rotate(-13.012237)" />
    <ellipse
       transform="rotate(-0.9960001)"
       ry="2.7190652"
       rx="5.6853185"
       cy="260.56586"
       cx="365.76071"
       id="ellipse1743"
       style="opacity:1;fill:#ffffff;fill-opacity:1;stroke-width:2;stroke-miterlimit:4;stroke-dasharray:none" />
    <ellipse
       style="opacity:1;fill:#ffffff;fill-opacity:1;stroke-width:2.63375711;stroke-miterlimit:4;stroke-dasharray:none"
       id="ellipse1745"
       cx="423.8877"
       cy="204.09779"
       rx="7.4868741"
       ry="3.5806787"
       transform="rotate(7.3521524)" />
    <ellipse
       style="opacity:1;fill:#ffffff;fill-opacity:1;stroke-width:2;stroke-miterlimit:4;stroke-dasharray:none"
       id="ellipse1747"
       cx="446.06421"
       cy="205.12798"
       rx="5.6853185"
       ry="2.7190652"
       transform="rotate(7.3521524)" />
    <ellipse
       transform="rotate(36.701934)"
       style="opacity:1;fill:#ffffff;fill-opacity:1;stroke-width:2;stroke-miterlimit:4;stroke-dasharray:none"
       id="ellipse1751"
       cx="465.88916"
       cy="9.1265697"
       rx="5.6853185"
       ry="2.7190652" />
    <ellipse
       ry="3.2931757"
       rx="6.8857317"
       cy="-75.586388"
       cx="482.74472"
       id="ellipse1753"
       style="opacity:1;fill:#ffffff;fill-opacity:1;stroke-width:2.42228532;stroke-miterlimit:4;stroke-dasharray:none"
       transform="rotate(46.993554)" />
    <ellipse
       transform="rotate(60.731217)"
       ry="2.7190652"
       rx="5.6853185"
       cy="-190.17062"
       cx="473.76526"
       id="ellipse1755"
       style="opacity:1;fill:#ffffff;fill-opacity:1;stroke-width:2;stroke-miterlimit:4;stroke-dasharray:none" />
    <ellipse
       ry="2.7190652"
       rx="5.6853185"
       cy="-153.47243"
       cx="454.77686"
       id="ellipse1759"
       style="opacity:1;fill:#ffffff;fill-opacity:1;stroke-width:2;stroke-miterlimit:4;stroke-dasharray:none"
       transform="rotate(60.191744)" />
    <ellipse
       transform="rotate(74.636055)"
       style="opacity:1;fill:#ffffff;fill-opacity:1;stroke-width:2.42228532;stroke-miterlimit:4;stroke-dasharray:none"
       id="ellipse1761"
       cx="431.11975"
       cy="-263.26495"
       rx="6.8857317"
       ry="3.2931757" />
    <ellipse
       style="opacity:1;fill:#ffffff;fill-opacity:1;stroke-width:2;stroke-miterlimit:4;stroke-dasharray:none"
       id="ellipse1763"
       cx="412.33524"
       cy="-334.38156"
       rx="5.6853185"
       ry="2.7190652"
       transform="rotate(84.221027)" />
    <ellipse
       style="opacity:1;fill:#ffffff;fill-opacity:1;stroke-width:2.67255735;stroke-miterlimit:4;stroke-dasharray:none"
       id="ellipse1792"
       cx="454.59457"
       cy="-45.347809"
       rx="7.5971694"
       ry="3.6334288"
       transform="rotate(51.181224)" />
    <ellipse
       transform="rotate(26.75324)"
       ry="3.6334288"
       rx="7.5971694"
       cy="166.36694"
       cx="444.91245"
       id="ellipse1794"
       style="opacity:1;fill:#ffffff;fill-opacity:1;stroke-width:2.67255735;stroke-miterlimit:4;stroke-dasharray:none" />
    <ellipse
       style="opacity:1;fill:#ffffff;fill-opacity:1;stroke-width:2.67255735;stroke-miterlimit:4;stroke-dasharray:none"
       id="ellipse1796"
       cx="402.11768"
       cy="286.54236"
       rx="7.5971694"
       ry="3.6334288"
       transform="rotate(13.334029)" />
    <ellipse
       transform="rotate(-14.074854)"
       ry="3.6334288"
       rx="7.5971694"
       cy="457.79651"
       cx="220.48068"
       id="ellipse1798"
       style="opacity:1;fill:#ffffff;fill-opacity:1;stroke-width:2.67255735;stroke-miterlimit:4;stroke-dasharray:none" />
    <ellipse
       style="opacity:1;fill:#ffffff;fill-opacity:1;stroke-width:2.67255735;stroke-miterlimit:4;stroke-dasharray:none"
       id="ellipse1800"
       cx="-6.9162078"
       cy="-520.67316"
       rx="7.5971694"
       ry="3.6334288"
       transform="rotate(142.70359)" />
    <ellipse
       style="opacity:1;fill:#ffffff;fill-opacity:1;stroke-width:3.97117114;stroke-miterlimit:4;stroke-dasharray:none"
       id="ellipse1802"
       cx="-288.96078"
       cy="290.40372"
       rx="11.288687"
       ry="5.3989367"
       transform="rotate(-93.927661)" />
    <ellipse
       style="opacity:1;fill:#ffffff;fill-opacity:1;stroke-width:2.28836322;stroke-miterlimit:4;stroke-dasharray:none"
       id="ellipse1804"
       cx="308.86731"
       cy="222.96379"
       rx="5.9465981"
       ry="4.7865467" />
    <ellipse
       style="opacity:1;fill:#ee0000;fill-opacity:1;stroke-width:0.95443493;stroke-miterlimit:4;stroke-dasharray:none"
       id="ellipse1806"
       cx="309.28845"
       cy="222.30835"
       rx="4.0241237"
       ry="1.2304453" />
  </g>
  <use
     height="100%"
     width="100%"
     transform="matrix(-1,0,0,1,600,0)"
     id="use1958"
     xlink:href="#g1956"
     y="0"
     x="0" />
  <use
     xlink:href="#shield"
     style="fill:url(#rg);stroke:#000000;stroke-width:3;"
     id="shine" />
</svg>
