<?xml version="1.0" encoding="UTF-8" standalone="no"?>
<svg
   xmlns:dc="http://purl.org/dc/elements/1.1/"
   xmlns:cc="http://creativecommons.org/ns#"
   xmlns:rdf="http://www.w3.org/1999/02/22-rdf-syntax-ns#"
   xmlns:svg="http://www.w3.org/2000/svg"
   xmlns="http://www.w3.org/2000/svg"
   xmlns:xlink="http://www.w3.org/1999/xlink"
   xmlns:sodipodi="http://sodipodi.sourceforge.net/DTD/sodipodi-0.dtd"
   xmlns:inkscape="http://www.inkscape.org/namespaces/inkscape"
   width="600"
   height="660"
   id="svg2"
   version="1.1"
   inkscape:version="0.48.2 r9819"
   sodipodi:docname="House_Yarwyck.svg">
  <metadata
     id="metadata24">
    <rdf:RDF>
      <cc:Work
         rdf:about="">
        <dc:format>image/svg+xml</dc:format>
        <dc:type
           rdf:resource="http://purl.org/dc/dcmitype/StillImage" />
        <dc:title />
      </cc:Work>
    </rdf:RDF>
  </metadata>
  <sodipodi:namedview
     pagecolor="#ffffff"
     bordercolor="#666666"
     borderopacity="1"
     objecttolerance="10"
     gridtolerance="10"
     guidetolerance="10"
     inkscape:pageopacity="0"
     inkscape:pageshadow="2"
     inkscape:window-width="1366"
     inkscape:window-height="715"
     id="namedview22"
     showgrid="false"
     inkscape:zoom="0.50568848"
     inkscape:cx="16.246907"
     inkscape:cy="281.30848"
     inkscape:window-x="-8"
     inkscape:window-y="-8"
     inkscape:window-maximized="1"
     inkscape:current-layer="layer2" />
  <defs
     id="defs4">
    <inkscape:path-effect
       effect="spiro"
       id="path-effect6448"
       is_visible="true" />
    <inkscape:path-effect
       effect="spiro"
       id="path-effect6374"
       is_visible="true" />
    <inkscape:path-effect
       is_visible="true"
       id="path-effect3136"
       effect="spiro" />
    <inkscape:path-effect
       effect="spiro"
       id="path-effect3132"
       is_visible="true" />
    <inkscape:path-effect
       effect="spiro"
       id="path-effect3101"
       is_visible="true" />
    <inkscape:path-effect
       is_visible="true"
       id="path-effect3085"
       effect="spiro" />
    <inkscape:path-effect
       is_visible="true"
       id="path-effect3083"
       effect="spiro" />
    <inkscape:path-effect
       is_visible="true"
       id="path-effect3081"
       effect="spiro" />
    <inkscape:path-effect
       is_visible="true"
       id="path-effect3079"
       effect="spiro" />
    <inkscape:path-effect
       is_visible="true"
       id="path-effect3077"
       effect="spiro" />
    <inkscape:path-effect
       is_visible="true"
       id="path-effect3075"
       effect="spiro" />
    <inkscape:path-effect
       effect="spiro"
       id="path-effect3049"
       is_visible="true" />
    <inkscape:path-effect
       is_visible="true"
       id="path-effect3045"
       effect="spiro" />
    <inkscape:path-effect
       effect="spiro"
       id="path-effect3041"
       is_visible="true" />
    <radialGradient
       id="rg"
       gradientUnits="userSpaceOnUse"
       cx="220"
       cy="220"
       r="405">
      <stop
         style="stop-color:#fff;stop-opacity:.3"
         offset="0"
         id="stop7" />
      <stop
         style="stop-color:#fff;stop-opacity:.2"
         offset=".2"
         id="stop9" />
      <stop
         style="stop-color:#666;stop-opacity:.1"
         offset=".6"
         id="stop11" />
      <stop
         style="stop-color:#000;stop-opacity:.13"
         offset="1"
         id="stop13" />
    </radialGradient>
    <path
       id="shield"
       d="m2,2v257c0,286 298,398 298,398c0,0 298-112 298-398V2z" />
    <radialGradient
       inkscape:collect="always"
       xlink:href="#rg-7"
       id="radialGradient3055-1"
       gradientUnits="userSpaceOnUse"
       cx="220"
       cy="220"
       r="405" />
    <radialGradient
       id="rg-7"
       gradientUnits="userSpaceOnUse"
       cx="220"
       cy="220"
       r="405">
      <stop
         style="stop-color:#fff;stop-opacity:.3"
         offset="0"
         id="stop7-4" />
      <stop
         style="stop-color:#fff;stop-opacity:.2"
         offset=".2"
         id="stop9-0" />
      <stop
         style="stop-color:#666;stop-opacity:.1"
         offset=".6"
         id="stop11-9" />
      <stop
         style="stop-color:#000;stop-opacity:.13"
         offset="1"
         id="stop13-4" />
    </radialGradient>
    <radialGradient
       r="405"
       cy="220"
       cx="220"
       gradientUnits="userSpaceOnUse"
       id="radialGradient3074"
       xlink:href="#rg-7"
       inkscape:collect="always" />
    <inkscape:path-effect
       is_visible="true"
       id="path-effect10120-1"
       effect="spiro" />
    <inkscape:path-effect
       effect="spiro"
       id="path-effect10118-3"
       is_visible="true" />
    <inkscape:path-effect
       effect="spiro"
       id="path-effect10116-9"
       is_visible="true" />
    <inkscape:path-effect
       effect="spiro"
       id="path-effect10114-7"
       is_visible="true" />
    <inkscape:path-effect
       effect="spiro"
       id="path-effect10112-7"
       is_visible="true" />
    <inkscape:path-effect
       effect="spiro"
       id="path-effect10110-2"
       is_visible="true" />
    <linearGradient
       inkscape:collect="always"
       xlink:href="#linearGradient4719-5"
       id="linearGradient4039"
       gradientUnits="userSpaceOnUse"
       gradientTransform="matrix(2.3257341,0,0,2.2943177,447.69485,-1820.2799)"
       x1="-145.25935"
       y1="984.24286"
       x2="-64.14286"
       y2="984.14789" />
    <linearGradient
       inkscape:collect="always"
       id="linearGradient4719-5">
      <stop
         style="stop-color:#666666;stop-opacity:1;"
         offset="0"
         id="stop4721-5" />
      <stop
         id="stop4809-1"
         offset="0.39344174"
         style="stop-color:#666666;stop-opacity:0.74901961;" />
      <stop
         style="stop-color:#666666;stop-opacity:0;"
         offset="1"
         id="stop4723-7" />
    </linearGradient>
    <radialGradient
       inkscape:collect="always"
       xlink:href="#linearGradient4801-8"
       id="radialGradient4041"
       gradientUnits="userSpaceOnUse"
       gradientTransform="matrix(-0.72153181,1.2650715,-2.2729984,-1.2616144,1712.0113,1733.7841)"
       cx="-307.14288"
       cy="782.36218"
       fx="-307.14288"
       fy="782.36218"
       r="63" />
    <linearGradient
       inkscape:collect="always"
       id="linearGradient4801-8">
      <stop
         style="stop-color:#000000;stop-opacity:1;"
         offset="0"
         id="stop4803-2" />
      <stop
         style="stop-color:#000000;stop-opacity:0;"
         offset="1"
         id="stop4805-4" />
    </linearGradient>
    <inkscape:path-effect
       effect="spiro"
       id="path-effect10108-4"
       is_visible="true" />
    <linearGradient
       inkscape:collect="always"
       xlink:href="#linearGradient4719-5"
       id="linearGradient4044"
       gradientUnits="userSpaceOnUse"
       gradientTransform="matrix(-2.4055369,0,0,-1.6485021,142.06168,1726.5307)"
       x1="-145.25935"
       y1="984.24286"
       x2="-64.14286"
       y2="984.14789" />
    <radialGradient
       inkscape:collect="always"
       xlink:href="#linearGradient4801-8"
       id="radialGradient4046"
       gradientUnits="userSpaceOnUse"
       gradientTransform="matrix(0.74628962,-0.90897301,2.3509914,0.90648896,-1165.637,-827.11785)"
       cx="-307.14288"
       cy="782.36218"
       fx="-307.14288"
       fy="782.36218"
       r="63" />
    <inkscape:path-effect
       effect="spiro"
       id="path-effect10102-7"
       is_visible="true" />
    <linearGradient
       inkscape:collect="always"
       xlink:href="#linearGradient4719-5"
       id="linearGradient4049"
       gradientUnits="userSpaceOnUse"
       gradientTransform="matrix(2.334989,0,0,-1.6146975,449.44065,1692.189)"
       x1="-145.25935"
       y1="984.24286"
       x2="-64.14286"
       y2="984.14789" />
    <radialGradient
       inkscape:collect="always"
       xlink:href="#linearGradient4801-8"
       id="radialGradient4051"
       gradientUnits="userSpaceOnUse"
       gradientTransform="matrix(-0.72440295,-0.89033332,-2.2820431,0.88790031,1718.7881,-809.09364)"
       cx="-307.14288"
       cy="782.36218"
       fx="-307.14288"
       fy="782.36218"
       r="63" />
    <inkscape:path-effect
       is_visible="true"
       id="path-effect10096-8"
       effect="spiro" />
    <linearGradient
       inkscape:collect="always"
       xlink:href="#linearGradient4719-5"
       id="linearGradient4054"
       gradientUnits="userSpaceOnUse"
       gradientTransform="matrix(-2.409599,0,0,2.2818507,139.61083,-1810.8163)"
       x1="-145.25935"
       y1="984.24286"
       x2="-64.14286"
       y2="984.14789" />
    <radialGradient
       inkscape:collect="always"
       xlink:href="#linearGradient4801-8"
       id="radialGradient4056"
       gradientUnits="userSpaceOnUse"
       gradientTransform="matrix(0.74754985,1.2581972,2.3549614,-1.2547588,-1170.296,1723.935)"
       cx="-307.14288"
       cy="782.36218"
       fx="-307.14288"
       fy="782.36218"
       r="63" />
    <inkscape:path-effect
       is_visible="true"
       id="path-effect10090-3"
       effect="spiro" />
    <inkscape:path-effect
       effect="spiro"
       id="path-effect10084-1"
       is_visible="true" />
    <inkscape:path-effect
       effect="spiro"
       id="path-effect10082-1"
       is_visible="true" />
    <radialGradient
       inkscape:collect="always"
       xlink:href="#linearGradient4801-8"
       id="radialGradient4061"
       gradientUnits="userSpaceOnUse"
       gradientTransform="matrix(-0.76516322,1.2901254,-2.4104477,-1.2865998,1806.8444,1757.4704)"
       cx="-307.14288"
       cy="782.36218"
       fx="-307.14288"
       fy="782.36218"
       r="63" />
    <inkscape:path-effect
       effect="spiro"
       id="path-effect10080-4"
       is_visible="true" />
    <inkscape:path-effect
       is_visible="true"
       id="path-effect3075-1"
       effect="spiro" />
    <inkscape:path-effect
       effect="spiro"
       id="path-effect3101-7"
       is_visible="true" />
    <linearGradient
       inkscape:collect="always"
       xlink:href="#grad1-7-7"
       id="linearGradient3085-8-8"
       gradientUnits="userSpaceOnUse"
       gradientTransform="matrix(0.77469594,0,0,0.30982404,152.68996,-13.619206)"
       x1="78.877235"
       y1="178.07356"
       x2="301.40585"
       y2="178.07356" />
    <linearGradient
       id="grad1-7-7"
       x1="78.877235"
       y1="178.07356"
       x2="301.40585"
       y2="178.07356"
       gradientTransform="scale(1.577772,0.63380513)"
       gradientUnits="userSpaceOnUse">
      <stop
         offset="0%"
         style="stop-color:#da0;"
         id="stop16-4-4" />
      <stop
         offset="40%"
         style="stop-color:#fd0;"
         id="stop18-0-0" />
      <stop
         offset="60%"
         style="stop-color:#fd0;"
         id="stop20-9-9" />
      <stop
         offset="100%"
         style="stop-color:#da0;"
         id="stop22-4-4" />
    </linearGradient>
    <linearGradient
       inkscape:collect="always"
       xlink:href="#grad1-7-7"
       id="linearGradient3081-8-8"
       gradientUnits="userSpaceOnUse"
       gradientTransform="matrix(0.77469594,0,0,0.30982404,-27.310046,-13.619206)"
       x1="78.877235"
       y1="178.07356"
       x2="301.40585"
       y2="178.07356" />
    <linearGradient
       id="linearGradient3093"
       x1="78.877235"
       y1="178.07356"
       x2="301.40585"
       y2="178.07356"
       gradientTransform="scale(1.577772,0.63380513)"
       gradientUnits="userSpaceOnUse">
      <stop
         offset="0%"
         style="stop-color:#da0;"
         id="stop3095" />
      <stop
         offset="40%"
         style="stop-color:#fd0;"
         id="stop3097" />
      <stop
         offset="60%"
         style="stop-color:#fd0;"
         id="stop3099" />
      <stop
         offset="100%"
         style="stop-color:#da0;"
         id="stop3101" />
    </linearGradient>
    <linearGradient
       y2="178.07356"
       x2="301.40585"
       y1="178.07356"
       x1="78.877235"
       gradientTransform="matrix(0.77469594,0,0,0.30982404,332.68995,-13.619206)"
       gradientUnits="userSpaceOnUse"
       id="linearGradient3128-1"
       xlink:href="#grad1-7-7"
       inkscape:collect="always" />
    <linearGradient
       id="linearGradient3104"
       x1="78.877235"
       y1="178.07356"
       x2="301.40585"
       y2="178.07356"
       gradientTransform="scale(1.577772,0.63380513)"
       gradientUnits="userSpaceOnUse">
      <stop
         offset="0%"
         style="stop-color:#da0;"
         id="stop3106" />
      <stop
         offset="40%"
         style="stop-color:#fd0;"
         id="stop3108" />
      <stop
         offset="60%"
         style="stop-color:#fd0;"
         id="stop3110" />
      <stop
         offset="100%"
         style="stop-color:#da0;"
         id="stop3112" />
    </linearGradient>
    <inkscape:path-effect
       is_visible="true"
       id="path-effect3061"
       effect="spiro" />
  </defs>
  <g
     inkscape:groupmode="layer"
     id="layer2"
     inkscape:label="Elements"
     style="display:inline">
    <path
       inkscape:connector-curvature="0"
       d="M 598,2 V 259 C 598,545 300,657 300,657 300,657 2,545 2,259 V 2 z"
       id="path13"
       style="fill:#ffffff;fill-opacity:1;stroke:none;display:inline" />
    <g
       id="g6626"
       transform="matrix(0.99862954,-0.05233596,0.05233596,0.99862954,-14.325168,14.133005)">
      <path
         inkscape:connector-curvature="0"
         id="path6573"
         d="M 540.65625,38.46875 528.25,46.75 519.28125,57.875 499.46875,71.46875 496.625,83.3125 480.75,100.53125 c -2.10363,-1.762966 -6.1948,3.98446 -9.4375,8.1875 L 458.25,99.28125 455.5,91.25 l -16.84375,-7.71875 -7.46875,-6.5 -12.25,-5.375 7.5,10.1875 7.875,6.40625 10.59375,15.28125 8.71875,1.28125 11.59375,11.625 c -3.1511,4.01283 -8.1625,9.86888 -5.78125,11.25 l 8.125,6.5625 c 2.00781,1.66996 7.1821,-5.08919 12.75,-11.6875 5.2875,-6.40527 11.53774,-12.63974 9.71875,-14.3125 L 504.375,89.1875 515.40625,84.09375 524.90625,63 534.5625,51.625 540.65625,38.46875 z m -92.28125,90.3125 c -4.21547,-0.0811 -7.486,3.29684 -11.375,8.09375 -2.59864,3.06033 -2.79574,8.91662 -8.6875,12.78125 l -5.34375,3.59375 c 1.77936,0.5933 7.94264,-0.0325 14.9375,-4.875 -4.13835,3.29262 -6.78738,7.93087 -8.78125,11.28125 l 3.1875,-0.875 -148.4375,176.90625 -63.5625,75.78125 -0.0312,0 -36.3125,43.3125 -0.0312,-0.0312 -53.5625,63.84375 c 0.005,0.006 -0.005,0.0257 0,0.0312 2.69082,2.9587 5.65432,5.66341 8.8125,8.125 l 22.875,-27.34375 0.0625,0.0625 63.46875,-75.875 0.125,0.0937 60.84375,-72.71875 0.15625,0.125 151.90625,-181.5625 0.4375,-2.25 c -1.03487,6.62547 -1.86797,13.22149 -2.78125,15.3125 3.28191,-1.55957 6.30726,-5.73205 7.46875,-10.1875 1.79686,12.91028 0.0622,22.37533 2.5625,31.78125 3.58532,-6.56887 5.45585,-12.94539 8.03125,-23.9375 0.20647,7.55135 0.7773,14.37121 2.3125,22.375 3.21889,-5.808 3.97218,-13.39357 3.8125,-24.15625 1.15057,7.53735 5.84263,12.28119 10.96875,14.09375 -3.21496,-6.65685 -3.37673,-18.16072 -3.5,-26.46875 -0.098,-6.60866 2.03702,-20.253 -3.34375,-26.5 l -9.75,-8.34375 c -2.44463,-1.67528 -4.55263,-2.43189 -6.46875,-2.46875 z"
         style="fill:#ddaa22;stroke:#000000;stroke-width:3;stroke-miterlimit:4;stroke-opacity:1;stroke-dasharray:none" />
      <path
         style="fill:#ddaa22;stroke:#000000;stroke-width:1.88839674;stroke-linecap:round;stroke-linejoin:round"
         d="m 539.25376,68.649234 c 10.11026,28.424585 11.95574,58.614876 -2.93684,90.375526 -14.88174,31.85492 -43.07652,51.72585 -69.63752,62.6961 11.30504,-14.52112 21.17854,-30.05973 12.54611,-58.16629 9.84969,-17.14357 4.40028,-28.01663 -3.08132,-35.83777 l 8.35108,-9.94473 c 7.82561,5.5497 16.35665,1.36263 17.25088,-8.37695 15.12683,-0.69657 39.09893,-13.677549 37.50751,-40.745972 z"
         id="path6425"
         inkscape:connector-curvature="0" />
      <path
         style="fill:#ddaa22;stroke:#000000;stroke-width:1.88839674;stroke-linecap:round;stroke-linejoin:round"
         d="m 458.25263,99.275454 -22.11364,-13.87422 17.47441,19.419996 m 27.13249,-4.27418 9.36839,7.69872 m 6.52337,-24.941378 25.76062,-23.545929 -18.02466,29.418034 m -39.16158,27.276433 6.11757,-7.73961 m -38.26134,49.76581 6.19461,-2.5471 m 6.78516,-20.02544 c -11.4961,8.00828 -4.66334,23.01574 -6.99472,31.36019 m 4.69162,-8.37948 0.0213,14.16423 m 16.7029,5.60685 c -0.0653,-10.76406 -2.0347,-16.2118 -2.21958,-28.67385 -2.36977,12.12223 -4.51094,20.55829 -3.80021,30.27405 m -9.4995,8.92295 c 3.65873,-7.98642 5.18721,-19.52958 3.15251,-35.74139"
         id="path6427"
         inkscape:connector-curvature="0" />
      <rect
         style="fill:#ddaa22;stroke:#000000;stroke-width:1.88829374;stroke-linecap:round;stroke-linejoin:round"
         rx="2.9639249"
         transform="matrix(-0.75994327,-0.64998941,-0.64461122,0.76451054,0,0)"
         height="5.9306359"
         width="21.087286"
         y="-201.64241"
         x="-449.1424"
         id="rect6429" />
    </g>
    <path
       id="path6328"
       d="M 221.08903,325.49998 149.92176,221.95195 78.754491,325.49998 149.92176,429.04801 z"
       style="fill:#cc0000;display:inline"
       inkscape:connector-curvature="0" />
    <path
       inkscape:connector-curvature="0"
       style="fill:#cc0000;display:inline"
       d="m 378.91097,325.49998 71.16727,-103.54803 71.16727,103.54803 -71.16727,103.54803 z"
       id="path6516" />
    <path
       inkscape:connector-curvature="0"
       style="fill:#cc0000;display:inline"
       d="M 371.16727,132.08199 300,28.53396 228.83273,132.08199 300,235.63003 z"
       id="path6663" />
    <path
       id="path6665"
       d="M 371.16727,518.918 300,415.36997 228.83273,518.918 300,622.46604 z"
       style="fill:#cc0000;display:inline"
       inkscape:connector-curvature="0" />
    <g
       transform="matrix(-0.99862954,-0.05233596,-0.05233596,0.99862954,614.32517,14.133005)"
       id="g3106">
      <path
         style="fill:#ddaa22;stroke:#000000;stroke-width:3;stroke-miterlimit:4;stroke-opacity:1;stroke-dasharray:none"
         d="M 540.65625,38.46875 528.25,46.75 519.28125,57.875 499.46875,71.46875 496.625,83.3125 480.75,100.53125 c -2.10363,-1.762966 -6.1948,3.98446 -9.4375,8.1875 L 458.25,99.28125 455.5,91.25 l -16.84375,-7.71875 -7.46875,-6.5 -12.25,-5.375 7.5,10.1875 7.875,6.40625 10.59375,15.28125 8.71875,1.28125 11.59375,11.625 c -3.1511,4.01283 -8.1625,9.86888 -5.78125,11.25 l 8.125,6.5625 c 2.00781,1.66996 7.1821,-5.08919 12.75,-11.6875 5.2875,-6.40527 11.53774,-12.63974 9.71875,-14.3125 L 504.375,89.1875 515.40625,84.09375 524.90625,63 534.5625,51.625 540.65625,38.46875 z m -92.28125,90.3125 c -4.21547,-0.0811 -7.486,3.29684 -11.375,8.09375 -2.59864,3.06033 -2.79574,8.91662 -8.6875,12.78125 l -5.34375,3.59375 c 1.77936,0.5933 7.94264,-0.0325 14.9375,-4.875 -4.13835,3.29262 -6.78738,7.93087 -8.78125,11.28125 l 3.1875,-0.875 -148.4375,176.90625 -63.5625,75.78125 -0.0312,0 -36.3125,43.3125 -0.0312,-0.0312 -53.5625,63.84375 c 0.005,0.006 -0.005,0.0257 0,0.0312 2.69082,2.9587 5.65432,5.66341 8.8125,8.125 l 22.875,-27.34375 0.0625,0.0625 63.46875,-75.875 0.125,0.0937 60.84375,-72.71875 0.15625,0.125 151.90625,-181.5625 0.4375,-2.25 c -1.03487,6.62547 -1.86797,13.22149 -2.78125,15.3125 3.28191,-1.55957 6.30726,-5.73205 7.46875,-10.1875 1.79686,12.91028 0.0622,22.37533 2.5625,31.78125 3.58532,-6.56887 5.45585,-12.94539 8.03125,-23.9375 0.20647,7.55135 0.7773,14.37121 2.3125,22.375 3.21889,-5.808 3.97218,-13.39357 3.8125,-24.15625 1.15057,7.53735 5.84263,12.28119 10.96875,14.09375 -3.21496,-6.65685 -3.37673,-18.16072 -3.5,-26.46875 -0.098,-6.60866 2.03702,-20.253 -3.34375,-26.5 l -9.75,-8.34375 c -2.44463,-1.67528 -4.55263,-2.43189 -6.46875,-2.46875 z"
         id="path3108"
         inkscape:connector-curvature="0" />
      <path
         inkscape:connector-curvature="0"
         id="path3110"
         d="m 539.25376,68.649234 c 10.11026,28.424585 11.95574,58.614876 -2.93684,90.375526 -14.88174,31.85492 -43.07652,51.72585 -69.63752,62.6961 11.30504,-14.52112 21.17854,-30.05973 12.54611,-58.16629 9.84969,-17.14357 4.40028,-28.01663 -3.08132,-35.83777 l 8.35108,-9.94473 c 7.82561,5.5497 16.35665,1.36263 17.25088,-8.37695 15.12683,-0.69657 39.09893,-13.677549 37.50751,-40.745972 z"
         style="fill:#ddaa22;stroke:#000000;stroke-width:1.88839674;stroke-linecap:round;stroke-linejoin:round" />
      <path
         inkscape:connector-curvature="0"
         id="path3112"
         d="m 458.25263,99.275454 -22.11364,-13.87422 17.47441,19.419996 m 27.13249,-4.27418 9.36839,7.69872 m 6.52337,-24.941378 25.76062,-23.545929 -18.02466,29.418034 m -39.16158,27.276433 6.11757,-7.73961 m -38.26134,49.76581 6.19461,-2.5471 m 6.78516,-20.02544 c -11.4961,8.00828 -4.66334,23.01574 -6.99472,31.36019 m 4.69162,-8.37948 0.0213,14.16423 m 16.7029,5.60685 c -0.0653,-10.76406 -2.0347,-16.2118 -2.21958,-28.67385 -2.36977,12.12223 -4.51094,20.55829 -3.80021,30.27405 m -9.4995,8.92295 c 3.65873,-7.98642 5.18721,-19.52958 3.15251,-35.74139"
         style="fill:#ddaa22;stroke:#000000;stroke-width:1.88839674;stroke-linecap:round;stroke-linejoin:round" />
      <rect
         id="rect3114"
         x="-449.1424"
         y="-201.64241"
         width="21.087286"
         height="5.9306359"
         transform="matrix(-0.75994327,-0.64998941,-0.64461122,0.76451054,0,0)"
         rx="2.9639249"
         style="fill:#ddaa22;stroke:#000000;stroke-width:1.88829374;stroke-linecap:round;stroke-linejoin:round" />
    </g>
  </g>
  <g
     inkscape:groupmode="layer"
     id="layer1"
     inkscape:label="Cover"
     style="display:inline"
     sodipodi:insensitive="true">
    <path
       d="m 2,2 v 257 c 0,286 298,398 298,398 0,0 298,-112 298,-398 V 2 z"
       id="shine"
       inkscape:connector-curvature="0"
       style="fill:url(#radialGradient3074);stroke:#000000;stroke-width:3" />
  </g>
</svg>
