<svg xmlns="http://www.w3.org/2000/svg" width="600" height="660" xmlns:xlink="http://www.w3.org/1999/xlink">
<defs>
  <radialGradient id="rg" gradientUnits="userSpaceOnUse" cx="220" cy="220" r="405">
    <stop style="stop-color:#ffffff;stop-opacity:.3" offset="0" />
    <stop style="stop-color:#ffffff;stop-opacity:.2" offset="0.2" />
    <stop style="stop-color:#666666;stop-opacity:.1" offset="0.6" />
    <stop style="stop-color:#000000;stop-opacity:.13" offset="1" />
  </radialGradient>
  <path id="shield" d="m 2 2 v 257 c 0 286 298 398 298 398 c 0 0 298 -112 298 -398 V 2 Z" />
  <path id="nail" style="fill:#b87333;" d="m 0,-72.202 c -10.379,0 -18.766,5.357 -18.766,11.939 18.16759,5.965 12.6446,95.147 18.766,132.465 6.1312,-37.327 0.60822,-126.5 18.786,-132.465 0,-6.582 -8.436,-11.939 -18.786,-11.939 z"/>
  <pattern id="nails" patternUnits="userSpaceOnUse" y="10" width="100" height="165">
    <use xlink:href="#nail" />
    <use xlink:href="#nail" transform="translate(50,82.5)"/>
    <use xlink:href="#nail" transform="translate(0,165)"/>
    <use xlink:href="#nail" transform="translate(100,0)"/>
    <use xlink:href="#nail" transform="translate(100,165)"/>
  </pattern>
</defs>
<use id="bg" style="fill:#0000dd;" xlink:href="#shield" />
<use style="fill:url(#nails);" xlink:href="#shield" />
<path style="fill:#b87333;stroke:#0000dd;stroke-width:2;stroke-linejoin:miter;stroke-miterlimit:10;" d="m 2,2 v 257 c 0,286 298,398 298,398 0,0 298,-112 298,-398 v -257 z m 23,23 c 12.118,19.186 29.145,31.686 51.08,37.5 21.935,5.814 38.96,18.314 51.08,37.5 -2.95,-15.587 -10.81,-28.087 -23.58,-37.5 -12.768,-9.413 -20.629,-21.913 -23.58,-37.5 9.353,18.1 23.61,30.6 42.79,37.5 19.17,6.9 33.43,19.4 42.78,37.5 -0.19,-14.501 -5.28,-27.001 -15.28,-37.5 -10.01,-10.499 -15.1,-22.999 -15.29,-37.5 6.59,17.015 18.08,29.515 34.49,37.5 16.4,7.985 27.9,20.485 34.49,37.5 2.58,-13.415 0.25,-25.915 -6.99,-37.5 -7.24,-11.585 -9.57,-24.085 -6.99,-37.5 3.82,15.929 12.55,28.429 26.19,37.5 13.64,9.071 22.37,21.571 26.2,37.5 5.34,-12.329 5.78,-24.829 1.3,-37.5 -4.47,-12.671 -4.03,-25.171 1.31,-37.5 1.06,14.843 7.02,27.343 17.9,37.5 10.87,10.157 16.84,22.657 17.89,37.5 8.11,-11.243 11.32,-23.743 9.61,-37.5 -1.71,-13.757 1.49,-26.257 9.6,-37.5 -1.71,13.757 1.49,26.257 9.6,37.5 8.11,11.243 11.31,23.743 9.61,37.5 10.87,-10.157 16.83,-22.657 17.89,-37.5 1.06,-14.843 7.03,-27.343 17.9,-37.5 -4.47,12.671 -4.04,25.171 1.31,37.5 5.34,12.329 5.78,24.829 1.3,37.5 13.64,-9.071 22.37,-21.571 26.2,-37.5 3.82,-15.929 12.55,-28.429 26.19,-37.5 -7.24,11.585 -9.57,24.085 -6.99,37.5 2.58,13.415 0.25,25.915 -6.99,37.5 16.41,-7.985 27.9,-20.485 34.49,-37.5 6.59,-17.015 18.09,-29.515 34.49,-37.5 -10,10.499 -15.1,22.999 -15.28,37.5 -0.19,14.501 -5.28,27.001 -15.29,37.5 19.17,-6.9 33.43,-19.4 42.79,-37.5 9.35,-18.1 23.61,-30.6 42.78,-37.5 -12.77,9.413 -20.63,21.913 -23.58,37.5 -2.95,15.587 -10.81,28.086 -23.58,37.5 21.93,-5.813 38.96,-18.314 51.08,-37.5 12.12,-19.186 29.14,-31.686 51.08,-37.5 -19.19,12.118 -31.69,29.145 -37.5,51.08 -5.81,21.935 -18.31,38.96 -37.5,51.08 15.59,-2.95 28.09,-10.81 37.5,-23.58 9.41,-12.769 21.91,-20.629 37.5,-23.58 -18.22,9.645 -30.72,24.2 -37.5,43.66 -6.78,19.46 -19.28,34.02 -37.5,43.66 14.56,-0.35 27.06,-5.6 37.5,-15.77 10.44,-10.16 22.94,-15.42 37.5,-15.77 -17.19,7.04 -29.69,19 -37.5,35.85 -7.81,16.86 -20.31,28.81 -37.5,35.85 13.54,2.26 26.04,-0.39 37.5,-7.95 11.46,-7.57 23.96,-10.22 37.5,-7.96 -16.17,4.43 -28.67,13.78 -37.5,28.04 -8.83,14.25 -21.33,23.6 -37.5,28.04 12.52,4.86 25.02,4.81 37.5,-0.15 12.48,-4.96 24.98,-5.01 37.49,-0.14 -15.38,1.73 -28.12,8.47 -38.2,20.2 -10.09,11.74 -22.82,18.47 -38.2,20.21 11.31,7.37 23.62,9.92 36.92,7.63 13.31,-2.29 25.62,0.25 36.92,7.63 -15.02,-1.23 -28.45,2.82 -40.29,12.15 -11.84,9.32 -25.28,13.37 -40.3,12.14 9.63,9.63 21.26,14.69 34.87,15.19 13.6,0.49 25.23,5.55 34.86,15.18 -14.19,-4.07 -27.88,-2.77 -41.05,3.9 -13.17,6.68 -26.85,7.97 -41.05,3.9 7.54,11.51 17.99,18.91 31.34,22.21 13.36,3.3 23.8,10.71 31.35,22.22 -12.84,-6.65 -26.23,-8.05 -40.17,-4.19 -13.94,3.86 -27.34,2.46 -40.18,-4.2 5.12,12.97 13.96,22.47 26.54,28.49 12.57,6.03 21.42,15.52 26.53,28.5 -11.01,-8.87 -23.58,-12.81 -37.68,-11.81 -14.11,0.99 -26.67,-2.94 -37.69,-11.81 2.46,14 9.35,25.3 20.68,33.89 11.33,8.59 18.23,19.88 20.68,33.89 -8.81,-10.65 -20.07,-16.87 -33.77,-18.68 -13.7,-1.8 -24.95,-8.03 -33.77,-18.67 -0.33,14.63 4.35,27.43 14.07,38.39 9.71,10.95 14.4,23.75 14.06,38.38 -6.34,-11.98 -15.91,-20.2 -28.71,-24.66 -12.8,-4.46 -22.37,-12.68 -28.71,-24.66 -3.2,14.9 -0.91,28.9 6.88,42 7.79,13.1 10.08,27.1 6.88,42 -3.7,-12.89 -11.29,-22.81 -22.78,-29.74 -11.48,-6.93 -19.08,-16.85 -22.77,-29.75 -6.1,14.82 -6.35,29.73 -0.74,44.74 5.62,15 5.37,29.91 -0.73,44.73 -0.95,-13.42 -6.34,-24.73 -16.17,-33.91 -9.83,-9.18 -15.22,-20.49 -16.18,-33.91 -9.17,14.32 -12.24,29.84 -9.21,46.57 3.02,16.73 -0.1,32.25 -9.22,46.57 3.02,-16.73 -0.1,-32.25 -9.22,-46.57 -9.16,-14.32 -12.24,-29.84 -9.21,-46.57 -9.83,9.19 -15.22,20.49 -16.18,33.91 -0.95,13.42 -6.34,24.72 -16.17,33.91 5.61,-15.01 5.37,-29.92 -0.73,-44.73 -6.1,-14.82 -6.35,-29.73 -0.74,-44.74 -11.48,6.94 -19.07,16.85 -22.77,29.75 -3.7,12.89 -11.29,22.81 -22.78,29.74 7.79,-13.1 10.09,-27.1 6.88,-42 -3.21,-14.9 -0.91,-28.9 6.88,-42 -12.8,4.46 -22.37,12.68 -28.71,24.66 -6.34,11.98 -15.91,20.2 -28.71,24.66 9.71,-10.95 14.4,-23.75 14.06,-38.38 -0.33,-14.64 4.35,-27.44 14.07,-38.39 -13.7,1.8 -24.96,8.03 -33.77,18.67 -8.82,10.65 -20.07,16.87 -33.77,18.68 11.33,-8.59 18.22,-19.89 20.68,-33.89 2.45,-14 9.35,-25.3 20.68,-33.89 -14.11,-1 -26.67,2.94 -37.69,11.81 -11.01,8.87 -23.573,12.8 -37.679,11.8 12.576,-6.02 21.419,-15.52 26.539,-28.49 5.11,-12.97 13.96,-22.47 26.53,-28.49 -13.94,-3.86 -27.33,-2.46 -40.178,4.19 -12.844,6.66 -26.237,8.06 -40.172,4.2 13.361,-3.31 23.808,-10.71 31.348,-22.22 7.539,-11.5 17.982,-18.91 31.342,-22.21 -13.17,-6.67 -26.858,-7.97 -41.051,-3.9 -14.194,4.07 -27.877,2.77 -41.049,-3.9 13.609,-0.5 25.231,-5.56 34.865,-15.19 9.634,-9.62 21.254,-14.68 34.865,-15.18 -11.844,-9.32 -25.275,-13.37 -40.297,-12.14 -15.021,1.22 -28.454,-2.83 -40.297,-12.15 13.306,2.29 25.612,-0.25 36.92,-7.63 11.308,-7.38 23.616,-9.92 36.924,-7.63 -10.091,-11.74 -22.827,-18.48 -38.207,-20.21 -15.38,-1.74 -28.114,-8.47 -38.203,-20.21 12.481,4.96 24.98,5.01 37.5,0.15 12.52,-4.86 25.02,-4.81 37.5,0.15 -8.829,-14.26 -21.329,-23.6 -37.5,-28.04 -16.171,-4.44 -28.671,-13.79 -37.5,-28.04 11.458,7.56 23.958,10.21 37.5,7.96 13.542,-2.26 26.042,0.39 37.5,7.95 -7.807,-16.85 -20.307,-28.81 -37.5,-35.85 -17.193,-7.04 -29.693,-18.99 -37.5,-35.85 10.436,10.17 22.936,15.42 37.5,15.77 14.564,0.35 27.064,5.61 37.5,15.77 -6.785,-19.46 -19.285,-34.01 -37.5,-43.66 -18.215,-9.64 -30.715,-24.197 -37.5,-43.66 9.413,12.768 21.913,20.63 37.5,23.58 15.587,2.95 28.087,10.81 37.5,23.58 -5.814,-21.94 -18.314,-38.962 -37.5,-51.08 -19.186,-12.118 -31.686,-29.144 -37.5,-51.08 z" />
<use id="shine" style="fill:url(#rg);stroke:#000000;stroke-width:3;" xlink:href="#shield" />
</svg>
