<svg xmlns="http://www.w3.org/2000/svg" width="600" height="600" xmlns:xlink="http://www.w3.org/1999/xlink">
<defs>
  <radialGradient id="rg" gradientUnits="userSpaceOnUse" cx="220" cy="220" r="405">
    <stop style="stop-color:#fff;stop-opacity:.3" offset="0" />
    <stop style="stop-color:#fff;stop-opacity:.2" offset="0.2" />
    <stop style="stop-color:#666;stop-opacity:.1" offset="0.6" />
    <stop style="stop-color:#000;stop-opacity:.13" offset="1" />
  </radialGradient>
  <circle id="shield" r="298" cx="300" cy="300"/>
</defs>
<use id="background" xlink:href="#shield"  fill="#ffff00" />
<g id="baby" style="fill:#e9c6af;stroke:#c77037;stroke-width:1;stroke-linecap:round;">
	<path d="m 337.57344,371.66186 c 15.64579,2.39802 12.98547,30.61274 -2.91051,36.0369 6.05439,7.3805 26.60855,-2.19383 31.62179,-4.02346 5.01324,-1.82962 10.04388,9.73325 10.59056,17.14626 0.54665,7.41297 -4.48717,6.03137 -12.72843,-4.35606 -12.7707,9.4975 -36.36175,23.04888 -41.32983,13.69313 -5.83146,-10.98169 -5.76517,-21.09504 2.02769,-32.11973" />
	<path d="m 271.73342,405.44667 c 1.45496,3.51789 10.52987,9.50601 21.30226,10.56816 1.00473,12.84948 9.59666,19.7638 8.724,23.11002 -1.75198,6.71812 -2.91613,13.33517 3.73061,12.55688 6.64676,-0.77831 12.95498,1.4074 10.1392,-8.64286 -2.81578,-10.05025 -5.80948,-8.4464 -7.20547,-13.0498 -1.39598,-4.60337 -2.13292,-18.76412 -6.82559,-23.5278 -4.69266,-4.76371 -27.34768,-11.89099 -27.34768,-11.89099" />
	<path d="m 269.07471,403.55905 c 16.9712,12.36651 30.62129,10.01586 47.26863,4.03928 14.58399,-5.23584 26.41025,-11.72753 27.11563,-20.58149 0.7054,-8.85393 -3.01992,-23.91689 -37.5499,-19.23568 -22.91146,3.1061 -18.65729,-2.76155 -38.11501,4.41026 -11.42954,4.21275 -9.60126,23.43825 1.28065,31.36763 z" />
	<path d="m 303.05928,392.40738 c -8.2432,15.93161 -12.4041,25.13776 -3.45683,29.02139 8.67465,3.76531 34.32302,-7.56055 34.32302,-7.56055 0,0 0.80633,12.08694 5.20186,12.30066 4.39555,0.21372 4.87528,-19.68303 3.14875,-20.53242 -10.03569,-4.93724 -23.42141,-4.6192 -31.18357,-2.60119" />
	<path d="m 255.61467,417.4686 c 7.99154,-2.82421 14.61442,-2.56314 13.55325,-13.28041 -1.06115,-10.71721 -7.36601,-12.85491 -8.43303,-19.60538 -1.06701,-6.75049 -8.25268,-15.82721 -21.65583,-14.21296 -7.53974,0.9081 -18.82276,9.44308 -20.52796,21.61002 -1.70519,12.16706 4.3145,19.8223 11.18677,21.39402 6.8722,1.57171 8.26568,-2.21327 11.96302,1.158 3.6973,3.37118 5.9222,5.76092 13.91378,2.93671 z" />
	<path d="m 275.9227,373.09346 c 6.99561,4.9382 15.50714,19.09241 15.16589,27.50986 -0.37888,9.34676 0.25407,22.09259 -0.80869,28.20733 -1.06279,6.11473 2.36378,15.40841 -0.58816,18.72623 -2.95197,3.31779 -10.54856,4.88525 -12.61151,0.47457 -2.06292,-4.41067 2.22738,-10.87268 1.63468,-15.97099 -0.59268,-5.0983 -3.61411,-20.87716 -2.23417,-24.86412 1.37993,-3.98696 -7.08481,-10.48838 -8.7472,-14.45683 -1.66236,-3.96844 -5.19551,-7.69146 -1.09046,-13.82471" />
	<path d="m 245.11688,410.11201 c 0.69331,0.12498 2.33459,-0.37147 2.5261,-1.90816 0.16509,-1.32415 -0.4678,-2.48163 -0.88536,-2.71246" />
	<path style="fill:#000000;stroke:none;" d="m 262.87477,408.30139 c -0.73583,3.24624 -2.39791,5.27799 -5.69866,4.84836 -2.79265,-0.36349 -3.14831,-4.73231 -2.48463,-7.4692 0.87361,-3.60284 5.64603,-6.29653 8.52485,-3.96061 3.75419,3.0462 0.12213,4.5356 -0.34156,6.58145 z" />
	<path style="fill:#ffffff;" d="m 240.25945,401.34857 c -3.36705,-2.99134 -0.86938,-7.05896 2.95283,-7.9491 1.482,3.34427 1.66259,6.56416 -2.95283,7.9491 z" />
	<path style="fill:#ffffff;" d="m 239.51065,406.23916 c -4.11141,0.48817 -4.27462,5.05964 -1.71854,6.60845 2.63398,-0.45814 4.46054,-2.64598 1.71854,-6.60845 z" />
	<path d="m 232.94265,395.86664 c 1.51117,-5.99619 4.97314,-4.96069 7.47614,-8.87995" />
	<path d="m 229.49646,412.83426 c -0.80664,-3.06009 -2.758,-4.33999 0.007,-8.53307" />
	<path d="m 250.37286,382.23949 c -2.24797,-0.42682 -4.2002,-5.43383 -0.19472,-5.66726 2.56197,-0.14932 6.97944,5.08705 5.2571,6.83604" />
	<circle style="fill:#000080;stroke:#000080;stroke-width:1" r="1.35" cx="241.35954" cy="397.79095" />
	<circle style="fill:#000080;stroke:#000080;stroke-width:1" r="1.35" cy="410.0278" cx="238.25409" />
	<circle style="fill:#ffffff;stroke:#000000;stroke-width:0.7" r="1" cx="238.25409" cy="410.0278" />
	<circle style="fill:#ffffff;stroke:#000000;stroke-width:0.7" r="1" cx="241.35954" cy="397.79095" />
	<path style="fill:#d38d5f;stroke:none;" d="m 218.26408,398.82119 c 1.33956,2.74449 2.6791,3.1555 4.01865,4.57992 -0.41966,-1.54879 -1.87197,-2.90394 -0.78907,-4.73443 l 2.85653,2.50916 c -0.82489,-2.58932 -1.23431,-5.23404 -0.48932,-8.03267 l 2.43261,2.36256 c -0.75905,-3.34397 -1.55821,-3.41333 -1.51278,-10.51149 -4.12503,1.34159 -9.38674,7.94663 -6.51662,13.82695 z" />
</g>
<g id="vulture" style="fill:#000000;stroke:#ffff00;stroke-width:0.5;stroke-linecap:round;">
  <g id="wing1">
    <g>
      <path  d="m 311.9221,294.77113 c 0,0 -7.93032,22.25997 -9.80093,23.37468 -1.87345,1.11594 -12.87534,-3.57992 -6.66504,-20.06787 6.21226,-16.4872 9.45728,-15.86719 9.45728,-15.86719 l 7.57437,12.0351" />
      <path  d="m 327.06446,300.47041 c 0,0 -5.29347,17.64461 -8.35459,18.25249 -3.05846,0.60657 -9.27956,-1.28275 -10.56315,-18.29092 -1.28619,-17.00682 -0.19008,-10.41447 -0.19008,-10.41447 6.71809,-1.43835 17.63803,-26.89569 19.73368,-1.91074 l 0.0544,10.74216" />
      <path  d="m 344.5946,304.3802 c 0,0 -4.9581,18.93571 -8.80137,18.06117 -3.84119,-0.87377 -11.4699,-10.7062 -11.31,-23.20205 0.37981,-29.68257 20.53824,-9.65493 20.30638,-2.43102 z" />
      <path d="m 360.56675,302.52217 c 0,0 0.19762,19.60392 -4.35135,19.57606 -4.54955,-0.0258 -13.27424,-6.81262 -15.33981,-25.30315 -2.06616,-18.48843 8.63969,-6.55607 8.63969,-6.55607 z"  />
      <path d="m 376.63498,295.98541 c 0,0 3.73863,20.35003 0.84088,21.41049 -2.89983,1.0597 -18.27448,1.76817 -24.57154,-25.03511 -6.29403,-26.79979 21.19523,-11.23901 21.19523,-11.23901 z"  />
      <path d="m 393.81312,287.62483 c 0,0 7.73197,25.88398 3.36895,27.08475 -4.36018,1.19954 -22.06726,-6.7412 -27.5558,-31.28456 -5.48853,-24.54337 16.32223,-22.81122 16.32223,-22.81122"  />
      <path d="m 413.12253,283.81022 c 0,0 7.48817,25.20441 4.77505,27.49073 -2.70991,2.28984 -22.82742,-7.4455 -32.2913,-32.539 -9.46447,-25.09142 6.93906,-25.745 6.93906,-25.745 z"  />
      <path d="m 439.28845,297.087 4.36997,17.17503 c 0,0 -7.98568,11.51976 -31.62928,-25.75061 -23.64437,-37.26835 -22.67777,-34.56014 -22.67777,-34.56014 l 19.20522,4.37082 31.43757,37.91821"  />
      <path d="m 454.63922,295.59969 c 0,0 11.34589,19.77126 8.88097,20.63292 -2.46301,0.86236 -33.98055,-16.80357 -52.55472,-46.93222 l 7.71188,-10.86996 36.53152,36.64551"  />
      <path d="m 483.45424,304.64948 c 0,0 11.79762,17.85739 7.98297,17.76117 -3.81785,-0.0997 -20.36485,5.0858 -67.42537,-53.28206 l -5.64305,-6.61947 15.32326,-11.44714 z"  />
      <path d="m 501.48324,305.01442 c 0,0 35.22408,34.06006 4.45869,21.04142 0,0 -54.90162,-39.65021 -76.26478,-78.73987 l 13.43119,-8.43806 58.28633,64.89624"  />
      <path d="m 525.55171,308.16607 c 0,0 17.54099,22.45749 17.24293,28.35252 -0.29409,5.89654 -65.65638,-40.37804 -91.82605,-86.71774 l 20.24929,-1.88633 z"  />
      <path d="m 547.07897,317.63836 18.66625,22.50961 c 0,0 3.97672,7.00948 -7.68431,-0.65021 -11.66122,-7.65973 -35.26498,-27.32778 -74.05054,-79.79361 -17.53457,-23.72185 -25.01396,-26.07667 -25.01396,-26.07667 3.57943,-6.90996 17.76003,3.06666 31.99792,13.13454 z"  />
      <path d="m 557.16346,314.75089 18.66625,22.50961 c 0,0 3.97691,7.00953 -7.68638,-0.65099 -11.65914,-7.65895 -35.26273,-27.32694 -74.04846,-79.79285 -14.93854,-15.88655 -0.49695,-10.78386 1.51908,-5.82741 z"  />
      <path d="m 591.79797,342.7389 c 0,0 -26.39672,-16.04349 -33.86667,-27.53045 0,0 0.5779,3.95475 -10.91251,-7.63481 0,0 0.73745,14.2051 -28.25825,-27.25348 -30.41189,-30.44895 -20.70207,-32.03225 -20.70207,-32.03225 l 12.30254,10.46996 c 0,0 50.92955,46.73679 56.56067,51.74047 5.63302,5.00443 24.87629,32.24056 24.87629,32.24056 z"  />
    </g>
    <g>
      <path d="m 326.98771,266.15902 c 0,0 -2.477,27.64935 -11.9539,29.34551 -9.47669,1.69622 -3.30917,-29.73671 -0.88353,-36.35545 2.42435,-6.62154 12.83743,7.00994 12.83743,7.00994 z" />
      <path d="m 337.27422,253.91631 c 0,0 -4.18649,48.8396 -10.7801,41.88059 -6.5936,-6.95904 -7.53231,-46.04845 -6.1406,-53.718 1.39247,-7.67157 16.9207,11.83741 16.9207,11.83741 z" />
      <path d="m 342.47849,243.46128 c 0,0 8.02436,55.65822 -3.12431,52.65664 -11.14262,-2.99928 -17.61329,-44.83877 -17.85303,-54.08388 -0.24094,-9.24789 20.97734,1.42724 20.97734,1.42724 z" />
      <path d="m 351.50849,240.64312 c 0,0 5.78202,48.61976 0.81844,53.74109 -9.71341,10.02629 -15.23812,-33.26543 -15.86632,-49.68241 -0.69874,-18.36784 15.04788,-4.05868 15.04788,-4.05868 z" />
      <path d="m 364.23927,228.24152 c 0,0 7.12812,63.46476 0.0595,66.96166 -7.06729,3.49969 -20.22851,-53.22532 -18.79846,-60.18452 1.43419,-6.95763 19.39484,-7.66581 19.39484,-7.66581" />
      <path d="m 375.01886,209.94255 c 0,0 9.15624,78.92668 4.9839,81.35557 -4.17708,2.42942 -16.33462,-6.20671 -17.28384,-26.51408 -0.95152,-20.31277 1.45146,-45.30172 1.45146,-45.30172 z" />
      <path d="m 390.62399,241.55891 c 0,0 6.19108,45.14321 2.314,47.70024 -3.87614,2.55507 -14.30532,-16.05954 -18.22558,-28.45229 -3.92102,-12.39074 -4.37015,-28.41215 -4.37015,-28.41215" />
      <path d="m 401.58842,237.90929 c 0,0 6.19108,45.1432 2.314,47.70023 -3.87614,2.55507 -14.30531,-16.05954 -18.22558,-28.45229 -3.92102,-12.39074 -4.37015,-28.41215 -4.37015,-28.41215" />
      <path d="m 408.51559,241.27184 c 0,0 19.26569,35.59209 12.25464,36.42463 -7.01447,0.83587 -16.67863,-7.88371 -27.09907,-30.70456 -10.41854,-22.82013 14.84443,-5.72007 14.84443,-5.72007 z" />
      <path d="m 433.75034,248.40716 c 0,0 12.98439,25.06433 9.51775,26.64656 -3.47079,1.58065 -24.76326,-12.86749 -32.17559,-24.45283 -7.41233,-11.58532 -11.20217,-24.26844 -11.20217,-24.26844 l 23.73118,3.58784 z" />
      <path d="m 421.45938,210.11479 27.72711,34.93261 c 0,0 21.40984,31.72155 17.62251,32.40086 -3.79336,0.677 -24.10349,-15.26423 -37.05907,-30.36591 -12.95446,-15.09892 -24.62649,-41.46419 -24.62649,-41.46419" />
      <path d="m 459.65376,237.64703 c 0,0 35.24364,42.22076 29.09882,42.66046 -6.14482,0.43972 -34.97164,-20.2885 -47.27013,-37.7856 -12.29979,-17.4999 -16.99085,-26.39142 -16.99085,-26.39142 l 22.24169,2.98613 z" />
      <path d="m 460.40503,229.16601 c 0,0 50.49817,46.81826 45.96547,51.77359 -4.53287,4.95526 -55.21492,-43.09087 -62.14734,-53.32222 -6.92958,-10.23261 15.42722,0.84179 15.42722,0.84179" />
    </g>
    <g>
      <path d="m 324.40506,223.05214 c 0,0 7.71201,19.81293 4.08832,27.44303 -3.62369,7.63013 -15.61359,-19.05446 -15.93236,-23.32245 -0.31834,-4.26321 11.84404,-4.12058 11.84404,-4.12058 z" />
      <path d="m 337.71392,226.49129 c 0,0 1.98056,20.36773 -2.5768,24.54624 -4.55752,4.17843 -9.37004,-8.59421 -11.0837,-16.21359 -1.7161,-7.62493 13.6605,-8.33265 13.6605,-8.33265 z" />
      <path d="m 344.44726,221.21677 c 0,0 4.60671,20.75771 0.59137,29.48071 -4.01114,8.71766 -11.62996,-19.06986 -11.44292,-23.68701 0.18378,-4.6207 10.85155,-5.7937 10.85155,-5.7937 z" />
      <path d="m 358.8756,224.02626 c 0,0 3.49225,24.93384 -1.61568,26.76533 -9.99662,3.58423 -13.47764,-18.67144 -13.35245,-26.90276 0.13715,-9.20874 14.96813,0.13743 14.96813,0.13743 z" />
      <path d="m 370.14413,221.11142 c 0,0 1.98055,20.36774 -2.57871,24.54553 -4.55468,4.17719 -12.88482,-15.73715 -14.5977,-23.35854 -1.78513,-13.49547 17.088,-8.58446 17.17641,-1.18699 z" />
      <path d="m 379.72932,215.01099 c 0,0 4.14047,32.7727 -0.40453,32.74635 -4.54482,-0.0263 -8.07002,-9.18782 -11.04779,-19.64436 -9.00522,-30.12713 10.06625,-17.62686 11.45232,-13.10199 z" />
      <path d="m 388.01538,203.88021 c 0,0 11.88404,42.95328 3.80763,41.84466 -8.07546,-1.11058 -6.63901,-6.57633 -6.63901,-6.57633 0,0 -12.93737,-25.1644 -12.55616,-30.14485 0.38008,-4.9832 14.82757,-5.8305 14.82757,-5.8305" />
      <path d="m 400.56061,207.21477 c 0,0 8.12867,36.82757 1.53338,35.32808 -6.59719,-1.50023 -21.69539,-30.77107 -20.61444,-34.26103 4.1909,-20.40091 19.36038,-2.58779 19.08106,-1.06705 z" />
      <path d="m 409.49965,213.33157 c 0,0 10.31296,23.89204 3.62621,28.11853 -6.68355,4.23003 -19.58179,-32.72293 -21.43464,-37.49856 -0.35748,-11.79739 22.02364,-0.55594 19.90613,9.39168" />
      <path d="m 410.05703,205.29948 10.72755,19.24785 c 0,0 10.9303,15.33478 7.46366,16.91701 -3.46682,1.58215 -22.41996,-17.61032 -24.67783,-23.93115 -2.25935,-6.32369 -1.09256,-14.52639 -1.09256,-14.52639 z" />
      <path d="m 426.59773,213.06385 c 0,0 13.29595,25.71644 9.09516,27.36708 -4.20096,1.65058 -24.05804,-28.20392 -26.72482,-33.55397 -2.66564,-5.34732 17.62966,6.18689 17.62966,6.18689 z" />
    </g>
    <path d="m 286.41166,208.99321 c 0,0 24.49489,2.09647 28.58078,4.6465 0,0 29.86795,-0.31093 33.50833,-1.43199 3.64245,-1.12028 12.06292,-3.93357 12.06292,-3.93357 0,0 7.02694,-31.86764 37.61003,-16.76827 30.58574,15.09808 70.88115,34.88063 78.82352,39.39208 7.9403,4.51065 35.56391,24.99307 41.46958,31.23588 5.90565,6.24282 44.94808,45.44456 53.26533,52.60169 4.92616,4.23709 14.53936,16.89263 21.55892,26.51205 4.83592,6.62324 -0.64928,1.11543 -0.64928,1.11543 0,0 -60.96674,-69.45857 -85.89313,-85.10645 -6.23806,-3.91615 -2.46816,7.9064 -2.46816,7.9064 0,0 -14.91269,-13.56203 -20.98463,-19.36624 -6.07402,-5.80504 -11.60196,-9.40341 -18.59875,-11.55677 -6.99756,-2.15131 -11.7231,-5.44318 -15.24311,-8.2803 -3.52269,-2.83582 -26.09438,-12.39433 -29.94603,-14.35622 -3.85257,-1.95995 -6.7357,-4.05397 -6.7357,-4.05397 l 0.61111,3.23456 -10.58735,-6.01588 -5.03926,3.59357 c 0,0 -11.67848,-1.92639 -11.15652,-5.73233 0.52515,-3.80241 -12.40204,13.31522 -17.37151,17.93619 -4.97023,4.62301 -15.41725,0.65995 -19.95997,2.94382 -4.54004,2.28256 -7.37931,3.70734 -9.31556,3.9742 -1.94004,0.26545 -11.80071,2.03108 -14.61591,0.96376 -2.81324,-1.06658 -40.16185,-8.91232 -40.16185,-8.91232 l -1.76726,-8.67766 3.00344,-1.86417 z" />
  </g>
  <g id="wing2">
    <g>
      <path d="m 299.93912,279.73446 c 0,0 12.58045,21.25474 17.09426,20.15037 4.51664,-1.1034 7.48942,-11.68652 4.62517,-17.33999 -2.86424,-5.65346 -16.47002,-15.33686 -16.47002,-15.33686 l -6.01679,11.73277" />
      <path d="m 286.01509,280.86918 c 0,0 9.50953,21.62567 11.45698,22.61386 1.94839,0.9853 12.6233,-4.42298 5.24128,-20.4169 -7.37926,-15.99773 -10.58065,-15.16331 -10.58065,-15.16331 l -6.72482,12.48404" />
      <path d="m 270.87768,286.76218 c 0,0 6.94116,17.99341 10.04461,18.39352 3.10438,0.40205 9.19065,-1.89153 9.26948,-18.90301 0.0807,-17.01243 -0.54618,-10.38019 -0.54618,-10.38019 l -19.87092,-0.58957 z" />
      <path d="m 250.55408,284.5628 c 0,0 8.94625,24.81151 12.84534,23.92166 3.90004,-0.88791 9.98101,-13.20568 6.78999,-29.52253 -3.191,-16.31685 -22.21415,-4.5031 -22.21415,-4.5031 l 1.27768,9.6752" />
      <path d="m 237.91853,291.81735 c 0,0 1.1922,19.52487 5.73857,19.19636 4.54349,-0.32947 12.78857,-7.66405 13.54664,-26.20456 0.75618,-18.53956 -7.40964,-5.32304 -7.40964,-5.32304 z" />
      <path d="m 221.38649,286.37644 c 0,0 -2.29706,20.50271 0.67594,21.3663 2.97388,0.8607 18.40114,0.54427 22.79575,-26.54828 4.39937,-27.09252 -21.99045,-9.77767 -21.99045,-9.77767 z" />
      <path d="m 201.48218,262.79142 c 0,0 -3.76683,42.68466 0.67872,43.58972 4.44744,0.9041 32.6231,-16.26182 23.59006,-57.46076" />
      <path d="m 184.13091,277.23045 c 0,0 -5.79894,25.04167 -2.92583,27.13593 2.87692,2.09717 22.3015,-8.92892 29.99035,-34.53312 7.68887,-25.6042 -8.76103,-25.16221 -8.76103,-25.16221 l -18.49055,31.46926" />
      <path d="m 158.42483,291.24148 -2.76933,17.78213 c 0,0 8.80032,10.93314 29.80768,-27.73093 21.0064,-38.666 20.23298,-35.90434 20.23298,-35.90434 l -18.90039,5.62835 z" />
      <path d="m 142.56955,291.07813 c 0,0 -8.96055,20.90792 -6.40689,21.47752 2.55464,0.57153 31.82808,-20.56439 46.76192,-52.57001 l -8.95419,-9.89318 -32.03046,40.53411" />
      <path d="m 114.18687,302.3247 c 0,0 -8.88765,19.44134 -5.13113,18.757 3.75938,-0.68338 20.93875,1.87802 58.40095,-62.96651 l 4.54761,-7.3998 -16.93287,-8.93797 z" />
      <path d="m 94.490346,305.66067 c 0,0 -33.447384,36.29547 -3.337335,21.79666 0,0 52.835439,-42.22056 72.116829,-82.21278 l -13.90674,-7.73541 z" />
      <path d="m 65.692995,315.12432 c 0,0 -16.887721,22.84022 -16.405726,28.70714 0.478209,5.86884 64.574791,-41.97462 89.366091,-88.83892 l -20.36494,-1.34003 z" />
      <path d="m 46.026566,324.60097 -15.813303,19.57716 c 0,0 -2.572441,6.40153 9.60721,0.61131 12.179668,-5.79022 35.340782,-21.70191 66.147947,-68.11023 13.92849,-20.98476 20.9544,-37.81821 20.9544,-37.81821 l -18.71017,2.12747 z" />
      <path d="M 80.920449,265.21573 C 42.204406,305.51685 11.632305,362.21094 11.632305,362.21094 15.44886,358.30249 108.16406,252.40905 108.16406,252.40905" />
      <path d="m 94.418063,282.76122 34.667097,-53.02594 -5.67599,-4.12959 c 0,0 -72.985732,87.14547 -78.910568,92.94105 -5.925762,5.7985 -26.997026,36.73366 -26.997026,36.73366 0,0 27.837262,-18.12816 35.655582,-31.73565 0,0 -0.579082,4.79314 11.502572,-8.71837 0,0 -0.621652,16.92786 29.758333,-32.06516 z" />
    </g>
    <g>
      <path d="m 286.79314,253.30937 c 0,0 4.43522,27.35383 14.03148,28.4117 9.59914,1.05885 1.20685,-29.81732 -1.68803,-36.24279 -2.89393,-6.42835 -12.34345,7.83109 -12.34345,7.83109 z" />
      <path d="m 279.55485,252.27569 c 0,0 4.4352,27.35382 14.03434,28.41267 9.59627,1.05788 1.20397,-29.81828 -1.69091,-36.24375 -2.89391,-6.42836 -12.34343,7.83108 -12.34343,7.83108 z" />
      <path d="m 270.82946,253.03979 c 0,0 4.4352,27.35384 14.03149,28.41169 9.59914,1.05885 1.20494,-29.81635 -1.68804,-36.24278 -2.89395,-6.42834 -12.34345,7.83109 -12.34345,7.83109 z" />
      <path d="m 263.35456,256.12535 c 0,0 10.6569,32.87888 16.16699,26.84513 5.50818,-6.03276 -2.25514,-30.92506 -4.64509,-35.95134 -2.39201,-5.03009 -11.5219,9.10621 -11.5219,9.10621 z" />
      <path d="m 259.93638,253.33495 c 0,0 1.31213,34.06827 8.36641,30.09936 7.04862,-3.96605 6.35469,-29.66547 5.40819,-35.10564 -0.94369,-5.44399 -13.7746,5.00628 -13.7746,5.00628 z" />
      <path d="m 248.35433,258.33962 c 0,0 5.20962,24.59407 10.651,24.59964 10.64429,0.0132 6.33608,-22.06198 3.41237,-29.75224 -3.27271,-8.60384 -14.06337,5.1526 -14.06337,5.1526 z" />
      <path d="m 237.33959,260.26358 c 0,0 3.76425,25.32635 9.20563,25.33192 10.64615,0.0123 7.78146,-22.79424 4.85584,-30.48356 -3.27273,-8.60383 -14.06147,5.15164 -14.06147,5.15164 z" />
      <path d="m 226.81742,221.31192 c 0,0 1.13643,63.95927 8.58557,66.49991 7.45102,2.53971 12.7229,-55.3905 10.83897,-62.24092 -3.31643,-12.04676 -20.19103,-5.05556 -20.19103,-5.05556" />
      <path d="m 212.7986,225.90644 c 0,0 -1.30947,52.95196 3.03626,55.0925 4.34661,2.13767 15.89491,-7.26299 15.40977,-27.54105 -0.48987,-20.27808 -6.49475,-30.47331 -6.49475,-30.47331 z" />
      <path d="m 199.36042,228.84739 c 0,0 -2.99481,45.34185 1.06117,47.62677 4.05885,2.28588 13.16811,-16.93337 16.21388,-29.52589 3.04477,-12.59444 2.36056,-28.56995 2.36056,-28.56995" />
      <path d="m 189.4964,220.85207 c 0,0 -20.61197,49.8936 -13.53782,50.25686 7.06752,0.36417 24.8271,-25.15416 33.62774,-48.55927" />
      <path d="m 160.90158,242.82183 c 0,0 -11.20971,25.80811 -7.63234,27.153 3.583,1.34205 23.8531,-14.4522 30.44653,-26.47472 6.59433,-12.02539 8.72157,-17.84033 8.72157,-17.84033 l -22.71527,-1.91088 z" />
      <path d="m 170.858,207.38674 -25.63103,33.11447 c 0,0 -19.16791,32.99735 -15.32959,33.42011 3.8393,0.42469 23.02632,-16.79571 34.91173,-32.68422 11.88539,-15.88852 22.79837,-37.994 22.79837,-37.994" />
      <path d="m 134.23522,233.83326 c 0,0 -32.25319,44.36401 -26.07882,44.39318 6.17439,0.0292 33.53727,-22.5183 44.59779,-40.75127 11.06239,-18.23391 15.12101,-27.39475 15.12101,-27.39475 l -22.02975,4.45144 z" />
      <path d="m 132.88214,225.44175 c 0,0 -47.181938,49.95262 -42.301981,54.58486 4.883718,4.63031 52.167381,-46.55872 58.373121,-57.20234 6.21048,-10.6436 -15.36596,1.86527 -15.36596,1.86527" />
    </g>
    <g>
      <path d="m 273.5868,233.40753 c 0,0 0.29906,17.65155 5.51597,22.39328 5.2124,4.74319 6.0516,-19.53275 4.949,-22.91787 -1.10254,-3.37908 -10.46497,0.52459 -10.46497,0.52459 z" />
      <path d="m 264.85031,231.65008 c 0,0 -0.53853,20.40172 4.3155,24.25714 4.854,3.85545 8.76231,-9.17407 9.93702,-16.87382 1.17471,-7.69973 -14.25252,-7.38332 -14.25252,-7.38332 z" />
      <path d="m 255.81291,234.49848 c 0,0 -0.36806,17.64878 4.66554,22.58466 5.02748,4.93861 6.78696,-19.28956 5.81179,-22.71258 -0.97068,-3.42129 -10.47733,0.12792 -10.47733,0.12792 z" />
      <path d="m 241.60706,235.89753 c 0,0 2.63314,25.00153 8.04468,25.5709 10.58758,1.11534 8.58802,-21.28669 6.4769,-29.23851 -2.36358,-8.89662 -14.52158,3.66761 -14.52158,3.66761 z" />
      <path d="m 265.11444,216.68474 c 0,0 0.29906,17.65155 5.51597,22.39328 5.2124,4.74319 6.0516,-19.53275 4.949,-22.91786 -1.10254,-3.37909 -10.46497,0.52458 -10.46497,0.52458 z" />
      <path d="m 256.37795,214.9273 c 0,0 -0.53853,20.40171 4.3155,24.25713 4.854,3.85545 8.76231,-9.17407 9.93702,-16.87382 1.17472,-7.69973 -14.25252,-7.38331 -14.25252,-7.38331 z" />
      <path d="m 247.34055,217.77569 c 0,0 -0.36806,17.64878 4.66555,22.58466 5.02747,4.93861 6.78695,-19.28956 5.81178,-22.71258 -0.97068,-3.42129 -10.47733,0.12792 -10.47733,0.12792 z" />
      <path d="m 233.1347,219.17474 c 0,0 2.63315,25.00154 8.04468,25.5709 10.58758,1.11535 8.58803,-21.28669 6.4769,-29.23851 -2.36358,-8.89662 -14.52158,3.66761 -14.52158,3.66761 z" />
      <path d="m 222.1978,215.71424 c 0,0 -0.53852,20.4017 4.3155,24.25715 4.85215,3.85639 8.76231,-9.17409 9.93704,-16.87383 1.17471,-7.69975 -14.25254,-7.38332 -14.25254,-7.38332 z" />
      <path d="m 212.56179,205.99203 c 0,0 -1.82289,32.89422 2.72249,32.56378 4.54634,-0.3285 7.42019,-9.67901 9.65708,-20.28671 2.23887,-10.60384 -12.37957,-12.27707 -12.37957,-12.27707 z" />
      <path d="m 203.1911,203.23998 c 0,0 -7.30103,35.66723 -0.73894,34.31749 6.56486,-1.35357 5.07242,-5.72721 5.07242,-5.72721 0,0 9.18038,-21.22768 8.58297,-25.26725 -0.59552,-4.04052 -12.50003,-3.92895 -12.50003,-3.92895" />
      <path d="m 191.84487,201.80384 c 0,0 -6.02985,35.0256 0.27523,33.09368 6.30785,-1.93575 19.46215,-30.47371 18.24012,-33.6395 -1.22113,-3.16867 -18.51535,0.54582 -18.51535,0.54582 z" />
      <path d="m 181.53824,209.86788 c 0,0 -9.72821,22.29516 -3.14537,25.27472 6.58475,2.97858 18.65069,-31.15784 20.39032,-35.58908 1.73954,-4.43604 -19.296,10.56355 -19.296,10.56355" />
      <path d="m 169.64377,217.86888 c 0,0 -7.30843,16.33204 -3.73106,17.67693 3.5821,1.34493 21.17589,-19.01553 22.98468,-25.45907 1.81164,-6.44257 -0.86367,-11.00686 -0.86367,-11.00686 z" />
      <path d="m 162.35386,215.64251 c 0,0 -8.27459,18.00641 -3.95856,19.37208 4.31412,1.36659 19.64297,-20.60872 21.92944,-26.10937 2.28649,-5.50065 -17.97088,6.73729 -17.97088,6.73729 z" />
      <path d="m 157.14182,213.94088 c 0,0 -17.08736,22.07631 -11.35908,21.93654 5.72636,-0.13882 22.01062,-20.22839 24.4168,-22.63235 2.40997,-2.40588 -13.05772,0.69581 -13.05772,0.69581 z" />
    </g>
    <path d="m 273.14025,208.95072 c 0,0 -6.72412,1.03929 -11.04996,3.23091 0,0 -17.78218,-3.62022 -25.18276,-1.05574 -7.39866,2.56352 -1.56657,-0.58749 -1.56657,-0.58749 0,0 -9.07534,-16.12466 -11.73078,-16.35676 0,0 -9.7459,-16.37615 -21.05302,-12.22504 -11.30998,4.15018 -34.13756,18.47778 -39.25859,19.09986 -5.12201,0.62014 -21.18058,1.80649 -42.84574,21.31222 -22.172039,19.96122 -61.217655,68.26326 -63.494324,70.20665 -2.278557,1.94433 51.320394,-42.72514 64.517224,-58.88552 0,0 16.38051,-9.87641 20.77747,-14.07648 0,0 -14.54974,19.21079 1.26306,6.06972 15.8137,-13.14396 13.84384,-7.01378 13.84384,-7.01378 0,0 0.33734,4.95884 9.3192,-2.35405 8.98276,-7.31577 10.09739,-5.1157 10.09739,-5.1157 0,0 13.60555,-1.76331 19.841,-11.63203 0,0 12.73061,13.68153 19.61296,12.95462 0,0 14.29102,11.20446 30.14449,6.72481 0,0 9.31094,1.38419 11.2306,1.59653 l 9.50268,-1.45355 5.26535,-11.23576" />
  </g>
  <g id="tail">
    <path d="m 304.60936,316.8946 c 0,0 21.78871,50.59897 14.26118,55.61846 0,0 -22.10678,-39.27874 -41.50871,-54.14697 -10.09014,-9.51323 -16.22388,0.0846 -17.52457,-8.28213 -1.29812,-8.36932 26.54933,-20.37116 26.54933,-20.37116 l 17.82713,25.08947" />
    <path d="m 380.35895,356.28066 c 0,0 31.66682,55.12972 23.36352,55.77696 -8.3033,0.6499 -42.16295,-70.29646 -42.16295,-70.29646 l 11.54342,1.97608 z" />
    <path d="m 366.93966,327.71553 7.58182,12.34 c 0,0 33.0994,54.24207 24.81938,55.11651 -8.2826,0.87708 -43.99116,-69.11822 -43.99116,-69.11822" />
    <path d="m 359.20267,319.01599 8.62395,11.60292 c 0,0 37.68935,51.01902 29.51535,52.64639 -8.17141,1.62473 -49.83011,-64.85165 -49.83011,-64.85165" />
    <path d="m 347.66185,311.35732 10.08755,10.29786 c 0,0 44.12822,45.31003 36.2516,48.05489 -7.87921,2.74486 -58.00152,-57.32244 -58.00152,-57.32244" />
    <path d="m 347.36188,293.7231 8.81272,11.45498 c 0,0 38.51165,50.37706 30.36611,52.13916 -8.14556,1.7621 -50.87481,-63.99834 -50.87481,-63.99834" />
    <path d="m 357.37186,336.86683 8.62395,11.60293 c 0,0 37.68935,51.01903 29.51535,52.6464 -8.17141,1.62472 -49.83011,-64.85166 -49.83011,-64.85166" />
    <path d="m 344.78892,338.38588 c 0,0 22.06281,41.53223 19.54416,43.24942 -2.52382,1.71718 -29.31624,-23.68401 -42.55599,-48.39834 -13.23976,-24.71433 23.95826,4.11862 23.95826,4.11862" />
    <path d="m 322.89418,329.14741 c 0,0 21.78872,50.59898 14.2612,55.61845 0,0 -27.33028,-30.52634 -34.46734,-54.78099" />
    <path d="m 342.42541,334.26463 c 0,0 21.78872,50.59899 14.26119,55.61846 -4.98325,-1.91664 -27.90377,-33.68056 -35.04083,-57.93521" />
    <path d="m 343.65631,319.54435 10.08496,10.29786 c 0,0 44.1308,45.31004 36.25419,48.0549 -7.87662,2.74486 -58.00411,-57.32244 -58.00411,-57.32244" />
    <path d="m 340.14724,325.68397 10.08757,10.29786 c 0,0 44.1308,45.31003 36.25418,48.0549 -7.8818,2.74486 -58.00411,-57.32245 -58.00411,-57.32245" />
    <path d="m 336.64337,332.84597 10.08755,10.29786 c 0,0 44.12823,45.31003 36.2516,48.05489 -7.87662,2.74486 -58.00152,-57.32244 -58.00152,-57.32244" />
    <path d="m 338.1265,274.20072 c 0,0 38.08875,48.61422 33.36433,55.82377 -4.7296,7.20956 -34.6768,-19.2246 -44.1334,-37.75704 -9.4566,-18.53508 10.45618,-19.43785 10.45618,-19.43785" />
    <path d="m 344.48637,325.41978 c 0,0 28.10087,53.78239 20.85003,50.69409 -7.25083,-3.09094 -35.737,-43.53736 -38.88919,-52.46147 -3.1548,-8.9241 -2.092,-18.24976 -2.092,-18.24976" />
    <path d="m 344.28985,307.73009 c 0,0 -23.31956,-42.87163 0.16291,8.07344 23.47988,50.94505 32.26414,42.53346 32.26414,42.53346 1.81013,-2.89809 -20.41818,-37.41624 -20.41818,-37.41624 0,0 -17.92506,-30.71757 -21.67871,-29.38807" />
    <path d="m 319.28428,302.03695 c 0,0 -25.93389,-42.57575 0.0621,8.084 25.99854,50.65974 36.1404,42.09757 36.1404,42.09757 2.10751,-2.93507 -22.71187,-37.15999 -22.71187,-37.15999 0,0 -18.41671,-26.34169 -22.88772,-28.80916" />
    <path d="m 318.28871,304.96409 c 0,0 26.18215,55.72942 20.19322,59.84804 0,0 -22.43091,-24.87617 -27.42336,-44.96396 -3.42326,-13.7739 -3.44412,-19.81566 -7.27152,-37.19434" />
    <path d="m 291.31529,292.55013 c 0,0 26.18215,55.72942 20.19581,59.84803 0,0 -21.75112,-25.05742 -27.42596,-44.9666 -4.5592,-15.52567 -4.41395,-16.41588 -7.26893,-37.19433" />
    <path d="m 328.79777,284.06721 c 0,0 32.78393,41.87566 28.0595,49.08521 -4.7296,7.20956 -34.67679,-19.2246 -44.13339,-37.75704 -9.4566,-18.53508 15.761,-12.69928 15.761,-12.69928" />
    <path d="m 304.21897,296.85136 c 0,0 26.18214,55.72941 20.19581,59.84802 0,0 -21.75112,-25.05742 -27.42596,-44.9666 -4.5592,-15.52566 -4.41395,-16.41587 -7.26893,-37.19432" />
  </g>
  <path d="m 346.97496,273.86871 c 0,0 -2.26163,-10.2284 -3.88026,-11.63989 -1.61645,-1.41149 0.64745,-2.82081 0.64745,-2.82081 0,0 -4.20195,-10.23055 -6.78954,-11.9922 -2.5876,-1.76382 0.3216,-3.17531 0.3216,-3.17531 0,0 -4.52563,-7.05527 -7.75853,-9.16925 -3.23288,-2.11831 0,-2.47064 0,-2.47064 0,0 -3.37887,-9.47185 -11.25797,-13.81222 0,0 -5.22387,-5.49462 -10.55137,-7.00772 -5.33387,-1.51524 -18.54681,-2.92022 -34.52086,-2.62842 -16.82883,0.30694 -23.96323,11.97061 -23.96323,11.97061 l -1.07478,13.53339 2.42465,-1.65143 -3.55872,16.84703 c -0.56279,3.85403 3.01709,10.55047 3.21597,18.60437 0.0614,2.54845 0.22004,5.21578 0.5078,7.94798 0.76592,7.22602 2.45639,14.89949 5.73795,21.96771 0.26023,0.55768 0.49933,2.19613 0.81246,1.66438 0.82305,-1.41364 2.66799,4.77053 4.32886,6.98827 0,0 0.99652,8.40837 1.79207,5.29144 0.30888,-1.21047 3.0086,4.76186 4.67585,8.50782 0.60508,1.36391 3.78931,10.61963 3.66873,6.40462 -0.13327,-4.61054 2.79705,9.82205 2.79705,11.89279 l 3.88033,-5.64377 1.94012,6.35059 4.62994,-5.11157 2.38894,5.90282 c 0,0 4.29626,-2.55506 4.62209,-5.37803 0.31947,-2.8208 0.64531,-4.93696 0.64531,-4.93696 l 2.90919,-2.82295 4.52776,-7.05526 c 0,0 11.31936,8.81906 12.60997,11.99437 1.29271,3.17313 2.5897,5.9961 2.5897,5.9961 l 2.90917,-2.82297 2.58548,6.34843 1.61855,-3.17313 1.56989,4.40738 0.13751,-0.27021 1.0346,2.90729 c 0.78072,0.73275 2.59183,1.10237 5.98552,-4.57598 4.84935,-8.11226 4.52987,-14.46069 4.84935,-15.87218 0.3237,-1.41148 2.26386,2.46848 2.26386,2.46848 0,0 4.20408,-7.75993 3.55664,-12.69688 -0.64743,-4.93911 2.58959,-3.17531 2.58959,-3.17531 0,0 0.64542,-13.05135 0,-16.22449 -0.64947,-3.1753 2.25979,-2.46847 2.25979,-2.46847 0,0 -0.96913,-15.51985 -1.9403,-17.28367 -0.97099,-1.76382 2.26182,-2.11615 2.26182,-2.11615 z" />
  <path style="fill:#dcddde;stroke:none;" d="m 247.79775,241.51864 c 0,0 -1.17377,-11.86601 2.1528,-13.14636 0,0 1.1763,-10.87632 15.66913,-9.3839 0,0 4.89501,-8.10356 12.72705,-3.8384 0,0 7.44244,-3.62369 11.7506,-1.49242 4.31068,2.1339 9.59525,5.7576 9.98732,6.61115 0,0 6.26356,-1.28033 9.20314,1.06566 2.93957,2.34596 1.56846,10.02274 1.56846,10.02274 0,0 7.04778,5.39627 7.63467,10.16153 0.5869,4.76525 0.5869,6.68442 -0.98154,7.96215 0,0 3.13432,2.56068 2.54746,6.18437 -0.58946,3.62633 -3.52648,8.88382 -4.11336,8.88382 -0.58691,0 0.39211,9.45458 -2.73968,12.65413 -3.13432,3.1995 -6.07135,3.83837 -7.43988,4.26516 -1.37112,0.42678 -4.89758,5.54289 -8.22669,6.18436 -3.32913,0.63885 -7.83204,-5.11873 -8.22417,-6.82585 -0.39211,-1.7045 -4.89498,-3.62367 -4.89498,-3.62367 0,0 -10.1847,10.87631 -17.03518,9.16917 -6.85557,-1.70449 -10.1847,-7.46469 -10.76899,-8.53032 -0.58947,-1.06563 -2.54747,-8.95451 -2.54747,-8.95451 0,0 -7.63724,-4.47985 -7.05036,-8.74241 0.58692,-4.26516 3.72127,-9.3839 3.72127,-9.3839 z" />
  <path style="fill:#333333;stroke:#333333;" d="m 288.44004,225.59928 c -2.0016,-2.74571 -3.09746,-44.26062 -1.56019,-51.47487 0.67525,-3.16901 2.9227,-18.2547 1.94163,-21.64193 -0.98105,-3.38722 -0.80003,-11.39995 -6.45461,-13.06559 -5.65457,-1.66561 -8.87974,-5.76371 -10.73089,-6.25471 -1.85117,-0.49102 -6.74725,-4.38601 -8.65238,-3.61751 -1.90276,0.76743 -6.1404,2.77088 -4.93668,5.06431 1.20485,2.29564 -1.14714,9.68039 -2.17114,10.20926 -1.70852,0.88178 8.9038,12.92533 12.06021,18.85585 5.6888,10.69454 -5.67967,44.83847 -7.22184,63.05776 -0.83869,9.92046 7.50666,27.84132 12.31413,30.92711 4.80731,3.08077 9.80702,4.86192 15.10576,1.44516 5.29873,-3.41678 5.20728,-10.60364 4.55462,-13.97845 -0.93051,-4.81143 -3.17317,-15.45697 -4.24858,-19.52639 z" />
  <g id="talon1" style="stroke:none;">
    <path style="fill:#000000;" d="m 298.00839,372.04118 -2.45795,-3.66503 0.98828,-2.55515 3.16303,-0.90593 1.52054,0.26427 c 0,0 4.15307,5.1253 2.75673,8.7921 0,0 -1.84663,-3.02807 -3.05417,-3.18313 0,0 -2.46658,0.27779 -2.91646,1.25295" />
    <path style="fill:#000000;" d="m 270.24068,387.15068 c 0,0 -2.42181,8.69324 4.40236,10.83977 0,0 -2.27049,-6.86791 1.86481,-9.61185 z" />
    <path style="fill:#000000;" d="m 257.32163,385.47734 c 0,0 2.08578,8.77993 9.09673,7.35736 0,0 -5.3095,-4.91246 -3.01766,-9.31443 z" />
    <path style="fill:#666666;" d="m 274.70583,373.38267 c 0,0 -5.55417,7.39195 -5.64419,10.18254 -0.088,2.79007 0.36914,5.32745 0.36914,5.32745 0,0 6.10351,-2.49499 6.28739,1.19773 0,0 2.37223,0.61777 3.55484,-7.83408 1.17799,-8.45285 3.36183,-12.55986 5.7301,-12.97206 2.36715,-0.41637 5.92323,1.02197 7.83751,2.1935 1.91892,1.17249 4.28442,1.78986 6.65224,0.34451 0,0 -3.8278,-3.3721 -2.37057,-4.73798 1.4572,-1.36586 4.1,-1.90493 4.1,-1.90493 0,0 -3.55841,-4.5331 -8.38693,-4.004 -4.82911,0.52703 -8.38592,0.11771 -7.84071,-2.19707 0.54729,-2.31538 4.44267,-25.89938 4.44267,-25.89938 -1.11967,-0.87267 -3.54343,4.05884 -4.77468,-8.17985 -1.57491,5.79953 -4.43806,6.73023 -7.35575,7.45483 0,0 1.11753,14.21645 1.57469,15.72278 0.45672,1.50421 -2.26737,16.17306 -2.90615,17.15526 -0.6362,0.9837 -15.96586,11.72935 -17.49153,13.28519 -2.40414,2.45168 -2.19073,4.61161 -0.6281,9.22545 0,0 1.27309,-2.99642 3.2771,-2.5533 2.00399,0.44307 1.82463,0.86886 1.82463,0.86886 0,0 2.5473,-2.90221 2.82254,-4.0581 0.27215,-1.15948 0.45588,-1.07321 0.45588,-1.07321 0,0 3.87104,-0.80337 7.09471,-5.76674" />
  </g>
  <g id="talon2" style="stroke:none;">
    <path style="fill:#000000;" d="m 338.26458,378.37929 c 0,0 4.89708,5.44897 4.43124,7.33432 0,0 4.45059,-5.01282 -1.98929,-11.42437 z" />
    <path style="fill:#666666;" d="m 315.79971,334.80605 c 0,0 -0.13245,16.08341 0.009,18.63662 0.14115,2.55536 0.057,6.4026 -1.2857,8.71739 -1.34047,2.3168 -2.73813,3.67558 -5.08306,3.80511 -2.34703,0.12965 -8.52066,0.15029 -9.56971,2.44883 -1.0532,2.30093 -1.86144,3.62718 -1.86144,3.62718 0,0 3.68967,-2.44657 4.39834,-0.24296 0.70856,2.20146 -1.23474,4.23116 -1.23474,4.23116 0,0 3.55479,0.44447 6.67056,-1.65005 3.12013,-2.09255 4.86222,-2.50916 6.33043,-2.59027 1.46823,-0.0812 2.72879,1.44908 2.72879,1.44908 0,0 1.14337,4.7406 1.00644,7.63173 -0.13497,2.88884 -0.40253,8.67075 2.82332,8.49254 0,0 1.01152,-2.93943 2.16846,-3.32375 1.15484,-0.38417 4.55703,2.62969 4.02476,3.62027 0,0 0.25006,-6.09917 -1.11637,-9.54587 -1.36643,-3.44669 -2.16544,-7.2473 -2.16544,-7.2473 0,0 10.1653,2.96283 11.11458,4.18981 0.95152,1.22903 3.41993,3.33543 4.28112,2.96746 0.86117,-0.36796 -0.17644,-3.1942 1.54603,-3.92798 1.72659,-0.73616 2.69342,0.81024 2.69342,0.81024 0,0 -3.30241,-6.54154 -7.82426,-8.53453 -4.52174,-1.99082 -7.45407,-1.83103 -9.31956,-3.64818 -1.86562,-1.81931 -2.28475,-4.03675 -2.6977,-6.25672 -0.41727,-2.2197 2.37358,-23.75484 2.37358,-23.75484 -2.37094,1.50407 -3.56986,-3.59011 -4.86896,-8.12029 -0.3818,7.77703 -2.9534,7.27083 -5.14148,8.21532 z" />
    <path style="fill:#000000;" d="m 299.80772,370.0519 2.75055,-0.15195 1.18746,2.50841 -0.25956,2.3978 -2.31418,1.22322 c 0,0 -3.96963,-0.78085 -2.74903,3.82344 0,0 -2.30837,-8.4539 1.38476,-9.80092" />
    <path style="fill:#000000;" d="m 320.28634,388.13142 2.66603,-3.2928 3.14181,1.44576 c 0,0 -0.80855,8.3403 -1.25403,8.98407 -0.44544,0.64375 -0.52892,0.74358 -0.51581,0.981 0.013,0.23742 -0.56819,-1.54028 -1.54076,-2.53651 -0.97243,-0.99406 -2.18567,-5.5035 -2.49724,-5.58152" />
  </g>
  <g id="beak">
    <path style="fill:#666666;stroke:#333333;" d="m 261.18132,128.56548 c 2.13118,0.35631 4.36574,3.76363 0.29448,5.17483 -0.20614,2.20241 -1.11629,3.39745 -1.87504,4.66992 0,0 -7.27028,-0.40866 -14.39617,-10.47462 0,0 -3.99243,-4.10236 -7.95634,-2.30325 0,0 8.18962,-13.03216 23.93311,2.93312 z" />
    <path style="fill:#666666;stroke:#333333;" d="m 249.37475,140.77812 c 5.78377,1.27087 5.71787,3.60694 6.33741,4.7218 0,0 3.42586,-2.68607 3.88856,-7.08969 0,0 -7.76341,-1.23383 -11.75343,-3.70281 -3.98611,-2.46449 -5.6579,-5.04102 -9.87453,-3.1586 0,0 4.34581,7.67977 11.40199,9.2293 z" />
    <path style="fill:#4d4d4d;stroke:none;" d="m 258.31096,130.58055 c -3.53194,-2.10968 -6.1235,-6.98796 -10.92359,-5.70616 -0.067,0.0172 -0.2884,0.16336 -0.2576,0.15601 4.78237,-1.27592 7.37005,3.62138 10.87178,5.71304 0.0717,0.0371 0.27892,-0.18135 0.3096,-0.16239" />
    <path style="fill:#000000;stroke:none;" d="m 261.48108,131.80469 c -0.35755,0.39369 -1.19903,0.3275 -1.59522,-0.0271 -0.46636,-0.41766 -0.71822,-1.46093 -0.23834,-1.86298 0.44931,-0.37646 1.30495,0.0732 1.67827,0.52523 0.29161,0.35307 0.46315,1.02602 0.15542,1.36502 z" />
  </g>
  <g id="eye" style="stroke:none;">
    <path style="fill:#111111;" d="m 267.79774,138.70439 c -0.58863,-0.64772 -0.37088,-0.95721 -0.37088,-0.95721 l 0.22498,-0.56102 0.38551,0.45409 v 0 0 c 0,0 1.42045,1.69994 4.33964,3.36464 1.30289,0.63977 3.32085,0.92756 4.86116,1.53528 0.76321,0.38342 1.52642,0.76684 1.81407,1.55838 0.2921,0.79587 0.21324,1.75479 -0.3273,2.96273 -0.5258,-0.41546 -0.0467,-1.42351 -0.48043,-2.61296 -0.12567,-0.46452 -0.59521,-0.74019 -1.28167,-1.05045 -1.35046,-0.59896 -3.38891,-0.8201 -4.93789,-1.60844 -2.79287,-1.5442 -3.73129,-2.43953 -4.22719,-3.08504 z" />
    <path style="fill:#ffffff;" d="m 268.45165,141.56908 c -0.47044,1.18866 0.49346,3.91817 2.47412,4.68761 2.00989,0.88336 4.33905,-0.60037 4.75987,-1.83638 0.41632,-1.24032 -1.30069,-1.6719 -3.33108,-2.48864 -1.97625,-0.76508 -3.55887,-1.67173 -3.903,-0.36253 z" />
    <path style="fill:#333333;" d="m 269.31754,142.56755 a 1.6805134,1.8357817 6.723573 0 0 0.73831,2.51428 1.6805134,1.8357817 6.723573 0 0 2.29403,-0.91396 1.6805134,1.8357817 6.723573 0 0 -0.75429,-2.44333 1.6805134,1.8357817 6.723573 0 0 -2.27805,0.84301 z" />
    <path style="fill:#000000;" d="m 271.05577,142.58845 c 0.27976,0.26686 0.55212,0.78533 0.29801,1.23235 -0.2045,0.49436 -0.69532,0.62938 -1.07226,0.35592 -0.46299,-0.18318 -0.62216,-0.76607 -0.50376,-1.1702 0.25413,-0.44703 0.81505,-0.60137 1.27805,-0.41817 z" />
    <path style="fill:#ffffff;" d="m 270.71982,142.18175 c 0.29356,0.10782 0.43981,0.50566 0.27173,0.86246 -0.16351,0.3611 -0.49807,0.38667 -0.81426,0.25739 -0.29357,-0.10782 -0.36956,-0.525 -0.27173,-0.86247 0.16804,-0.35678 0.56824,-0.40587 0.81426,-0.25738 z" />
  </g>
</g>
<use id="shine" xlink:href="#shield" style="fill:url(#rg);stroke:#000000;stroke-width:3;" />
</svg>
