<?xml version="1.0" encoding="UTF-8"?>
<svg xmlns="http://www.w3.org/2000/svg" xmlns:xlink="http://www.w3.org/1999/xlink" width="600" height="660">
<defs>
  <radialGradient id="rg" gradientUnits="userSpaceOnUse" cx="220" cy="220" r="405">
    <stop style="stop-color:#fff;stop-opacity:.3" offset="0"/>
    <stop style="stop-color:#fff;stop-opacity:.2" offset=".2"/>
    <stop style="stop-color:#666;stop-opacity:.1" offset=".6"/>
    <stop style="stop-color:#000;stop-opacity:.13" offset="1"/>
  </radialGradient>
  <path id="shield" d="m2,2v257c0,286 298,398 298,398c0,0 298-112 298-398V2z"/>
  <g id="wavy-ray" style="stroke-width:1;stroke-linecap:round;stroke-linejoin:round;">
    <path id="wavy-ray1" style="fill:#aa0000;stroke:none;" d="m 330.46794,284.38723 c -3.60485,-8.37348 -8.77008,-17.39754 -8.83053,-22.69862 -1.56615,-6.81556 1.57439,-17.21075 4.50884,-32.78363 3.53396,-14.92204 5.36752,-31.99714 3.05631,-49.535 -2.90283,-17.45097 -9.21149,-31.54555 -14.4319,-43.05129 0,0 -1e-5,-1e-5 -1e-5,-1e-5 -6.10281,-13.8338 -10.29735,-24.63776 -12.38351,-36.17693 -1.99032,-10.56752 -2.15623,-22.657551 -2.24509,-28.944025 -0.10163,-7.188564 -0.12263,-11.298323 -0.12263,-11.298323 0,0 -1.61896,3.750957 -4.30269,10.476448 -2.38477,5.976283 -6.7925,17.205125 -9.21187,29.482399 -2.48155,13.197661 -2.69547,27.571441 -1.27552,43.823041 0,0 0,2e-5 0,2e-5 0.9165,13.14114 2.36127,26.69187 0.2801,36.94871 -1.5238,9.64131 -6.37028,19.49065 -11.65569,30.465 -6.48769,12.08882 -13.44166,26.83452 -16.40516,47.21637 -1.66479,24.48836 4.61799,43.98481 11.9905,57.11875 -1e-5,0 0.0613,0.10904 0.0613,0.10903 3.61966,8.39991 8.81547,17.45738 8.87993,22.77315 0,0 0,0 0,0 1.56921,6.81952 -1.57045,17.22359 -4.50184,32.79112 -3.53202,14.92471 -5.36226,31.99623 -3.04971,49.52567 2.90411,17.4477 9.21549,31.54227 14.43473,43.04368 0,10e-6 0,10e-6 0,2e-5 6.10879,13.84425 10.30143,24.64736 12.38778,36.18612 1.9825,10.52698 2.15432,22.54409 2.24482,28.80251 0.1034,7.15075 0.12332,11.23796 0.12332,11.23796 0,0 1.61096,-3.72999 4.279,-10.42169 2.37246,-5.95038 6.74882,-17.1166 9.15828,-29.33664 2.48132,-13.18569 2.69878,-27.55295 1.27979,-43.81385 -10e-6,0 -10e-6,-1e-5 -10e-6,-1e-5 -0.91516,-13.13536 -2.35955,-26.69351 -0.27727,-36.95632 1.52535,-9.6463 6.37281,-19.49655 11.66229,-30.47433 6.48765,-12.08516 13.4452,-26.82807 16.41216,-47.20888 0,0 -10e-6,-2e-5 -10e-6,-2e-5 1.67298,-24.53985 -4.6367,-44.07738 -12.03406,-57.22683 -10e-6,-4e-5 -0.0316,-0.0736 -0.0317,-0.0736 z"/>
    <path id="wavy-ray2" style="fill:#d40000;stroke:none;" d="m 324.23669,287.55682 c -4.54776,-10.11975 -9.30437,-19.08155 -9.47118,-26.22977 -1.35482,-8.35063 2.00816,-20.58716 4.47868,-34.77279 3.33738,-15.83795 4.23389,-31.87381 1.50695,-46.94055 -3.53051,-17.22673 -11.87388,-32.56636 -16.10559,-40.77153 -5.66086,-11.05076 -8.63344,-18.01709 -8.63344,-18.01709 0,0 -0.92849,7.51041 -0.65766,20.33273 0.13643,8.98325 1.15158,27.17895 -1.39359,39.22847 -2.02412,10.78024 -6.93076,20.73906 -13.20505,33.05946 -6.183,11.27293 -13.58726,25.65887 -16.43532,45.2272 -1.66581,21.0168 3.63285,39.60802 11.34985,53.5876 10e-6,2e-5 0.0583,0.10542 0.0583,0.10543 4.56656,10.15049 9.35177,19.13858 9.5239,26.30791 -10e-6,0 0,1e-5 0,1e-5 1.35896,8.3551 -2.00174,20.60073 -4.46828,34.78153 -3.33433,15.84377 -4.22521,31.87468 -1.49624,46.92973 3.5347,17.22862 11.89533,32.58748 16.11261,40.76115 5.60725,10.94061 8.55558,17.82608 8.55558,17.82608 0,0 0.90795,-7.42817 0.64319,-20.1187 -0.13402,-8.94264 -1.14739,-27.17993 1.4006,-39.23885 2.02663,-10.78479 6.93428,-20.74397 13.21576,-33.07027 6.1841,-11.2693 13.5932,-25.65231 16.44572,-45.21847 0,0 0,-10e-6 0,-10e-6 1.67488,-21.06178 -3.64654,-39.69353 -11.39009,-53.69205 -3e-5,-8e-5 -0.0347,-0.0772 -0.0347,-0.0772 z"/>
    <path id="wavy-ray3" style="fill:#ff2a2a;stroke:none;" d="m 316.90895,291.28414 c -5.57052,-11.86608 -9.87399,-21.45363 -9.9734,-30.36905 -0.91694,-10.0087 3.04419,-24.93679 5.11908,-36.80948 3.61657,-18.24179 3.08123,-32.84616 0.31532,-44.2502 -3.25417,-12.87135 -7.39893,-18.98748 -7.39893,-18.98748 0,0 -0.0313,7.47872 -2.62897,19.27666 -2.31334,10.88445 -6.47475,20.36642 -14.39668,35.7498 -5.4129,10.04479 -13.28454,24.6085 -15.79492,43.19052 -1.49601,17.66337 2.90688,34.74901 10.84763,49.44832 2e-5,2e-5 0.0547,0.10113 0.0547,0.10116 5.59437,11.90189 9.92255,21.51063 10.02724,30.45134 0.92148,10.01294 -3.03616,24.95371 -5.10558,36.81857 -3.61444,18.26775 -3.06312,32.8638 -0.29702,44.23893 3.22622,12.73327 7.31119,18.78791 7.31119,18.78791 0,0 0.0462,-7.39275 2.62191,-19.07437 2.31631,-10.87804 6.47292,-20.35324 14.41498,-35.76107 5.41369,-10.03832 13.29291,-24.60061 15.80842,-43.18143 1.50444,-17.6992 -2.91636,-34.82326 -10.88676,-49.54866 2.3e-4,4.8e-4 -0.0385,-0.0819 -0.0382,-0.0815 z"/>
    <path id="wavy-ray4" style="fill:#ff5555;stroke:none;" d="m 308.19054,295.71885 c -6.96093,-14.18486 -10.49118,-24.99834 -10.35968,-35.28279 -0.2139,-10.68919 5.69757,-35.16793 6.36223,-39.00796 1.32452,-7.2976 1.50878,-12.37293 1.43163,-15.53213 -0.0771,-3.15764 -0.39286,-4.45157 -0.39286,-4.45157 0,0 -0.75946,1.09051 -2.27961,3.79386 -1.43386,2.54989 -3.90835,7.15399 -7.14534,13.33364 -3.04451,5.72397 -12.56818,22.73253 -14.55177,40.99204 -1.1331,13.87872 2.24535,28.87905 10.46135,44.53459 2e-5,3e-5 0.0505,0.0961 0.0505,0.0961 6.99338,14.23029 10.54005,25.06199 10.41231,35.36986 0.15689,7.71076 -1.5424,15.99639 -2.84682,22.0975 -1.59507,7.46062 -2.52665,11.29434 -3.49523,16.92025 -1.30307,7.21839 -1.48587,12.23871 -1.41125,15.36532 0.0746,3.12509 0.38465,4.40742 0.38465,4.40742 0,0 0.75459,-1.07869 2.26422,-3.75214 1.4304,-2.53312 3.87389,-7.06333 7.0879,-13.18506 1.98765,-3.72896 5.07155,-9.61084 7.67661,-15.77136 2.63907,-6.24092 5.78218,-14.99022 6.89534,-25.21089 1.13912,-13.90132 -2.24995,-28.93464 -10.50169,-44.63014 4e-5,7e-5 -0.0425,-0.0866 -0.0425,-0.0865 z"/>
  </g>
  <circle id="disk" style="fill:#cd9f32;stroke:none;stroke-width:1;stroke-linecap:round;stroke-linejoin:round;" cx="300" cy="300" r="80"/>
</defs>
<use id="background" xlink:href="#shield" style="fill:#ffffff;"/>
<use xlink:href="#wavy-rays1" transform="rotate(22.5,300,300)"/>
<use xlink:href="#wavy-rays1" transform="rotate(-22.5,300,300)"/>
<use xlink:href="#wavy-rays1" transform="rotate(45,300,300)"/>
<g id="wavy-rays1">
  <use xlink:href="#wavy-ray1" transform="rotate(90,300,300)"/>
  <use xlink:href="#wavy-ray1" transform="rotate(0,300,300)"/>
</g>

<use xlink:href="#wavy-rays2" transform="rotate(22.5,300,300)"/>
<use xlink:href="#wavy-rays2" transform="rotate(-22.5,300,300)"/>
<use xlink:href="#wavy-rays2" transform="rotate(45,300,300)"/>
<g id="wavy-rays2">
  <use xlink:href="#wavy-ray2" transform="rotate(90,300,300)"/>
  <use xlink:href="#wavy-ray2" transform="rotate(0,300,300)"/>
</g>

<use xlink:href="#wavy-rays3" transform="rotate(22.5,300,300)"/>
<use xlink:href="#wavy-rays3" transform="rotate(-22.5,300,300)"/>
<use xlink:href="#wavy-rays3" transform="rotate(45,300,300)"/>
<g id="wavy-rays3">
  <use xlink:href="#wavy-ray3" transform="rotate(90,300,300)"/>
  <use xlink:href="#wavy-ray3" transform="rotate(0,300,300)"/>
</g>

<use xlink:href="#wavy-rays4" transform="rotate(22.5,300,300)"/>
<use xlink:href="#wavy-rays4" transform="rotate(-22.5,300,300)"/>
<use xlink:href="#wavy-rays4" transform="rotate(45,300,300)"/>
<g id="wavy-rays4">
  <use xlink:href="#wavy-ray4" transform="rotate(90,300,300)"/>
  <use xlink:href="#wavy-ray4" transform="rotate(0,300,300)"/>
</g>
<use xlink:href="#disk"/>
<use id="shine" xlink:href="#shield" style="fill:url(#rg);stroke:#000000;stroke-width:3;"/>
</svg>
