<?xml version="1.0" encoding="UTF-8"?>
<svg xmlns="http://www.w3.org/2000/svg" xmlns:xlink="http://www.w3.org/1999/xlink" width="600" height="660">
<defs>
  <radialGradient id="rg" gradientUnits="userSpaceOnUse" cx="220" cy="220" r="405">
    <stop style="stop-color:#ffffff;stop-opacity:.3" offset="0"/>
    <stop style="stop-color:#ffffff;stop-opacity:.2" offset=".2"/>
    <stop style="stop-color:#666666;stop-opacity:.1" offset=".6"/>
    <stop style="stop-color:#000000;stop-opacity:.13" offset="1"/>
  </radialGradient>
  <pattern id="stars" patternUnits="userSpaceOnUse" x="30" y="30" width="120" height="120">
    <g id="star" style="fill:#ffffff;">
      <path d="m -16,-16 l 16,13 l 16,-13 l -13,16 l 13,16 l -16,-13 l -16,13 l 13,-16 z"/>
      <path style="fill:#000000;fill-opacity:0.2;" d="m 16,-16 -13,16 h -6 l -13,16 z m -32,0 16,13 v 6 l 16,13 z"/>
      <path d="m0,-30 l3,27 l27,3 l-27,3 l-3,27 l-3,-27 l-27,-3 l27,-3z"/>
      <path style="fill:#000000;fill-opacity:0.2;" d="m -30,0 27,-3 6,6 27,-3 z m 30,-30 3,27 -6,6 3,27 z"/>
    </g>
    <use xlink:href="#star" transform="translate(120,0)"/>
    <use xlink:href="#star" transform="translate(60,60)"/>
    <use xlink:href="#star" transform="translate(0,120)"/>
    <use xlink:href="#star" transform="translate(120,120)"/>
  </pattern>
  <g id="straight-ray" style="stroke-width:1;stroke-linecap:round;stroke-linejoin:round;">
    <path style="fill:#ff6600;stroke:none;" d="m 300,75 15.30733,151.08964 h -45.922 z"/>
    <path style="fill:#cc5500;stroke:none;" d="m 300,75 30.61467,151.08964 h -30.61467 z"/>
  </g>
  <g id="wavy-ray" style="stroke-width:1;stroke-linecap:round;stroke-linejoin:round;">
    <path style="fill:#ff6600;stroke:none;" d="m 319.70309,203.07786 -23.39187,-99.32032 3.68878,-28.75754 c -4.42888,11.67284 -9.13127,23.372841 -11.30585,36.6052 -2.1836,13.28725 -1.42323,27.05334 0.0108,39.90764 1.43399,12.8543 2.96026,24.49667 1.16267,33.13384 -1.79759,8.63717 -6.58433,17.16555 -12.01844,26.63371 -1.70265,2.96661 -6.54949,11.22621 -8.46381,14.80925 -4.69864,8.79449 -6.51353,14.78742 -9.26427,29.53138 l 34.70713,1.0022 z"/>
    <path style="fill:#cc5500;stroke:none;" d="m 300,75 c -2.522,12.0833 -5.20645,24.3253 -5.43945,36.4082 -0.233,12.084 2.18545,24.167 5.43945,36.25 3.254,12.084 6.82613,24.167 7.20312,36.25 0.376,12.084 -2.75612,24.167 -7.20312,36.25 -4.447,12.084 -9.55323,24.167 -10.24023,36.25 -10e-4,0.0228 10e-4,0.0456 0,0.0684 l 39.77539,1.14844 c -3.14367,-4.45043 -1.07868,-17.69804 1.08007,-31.53516 2.18888,-14.03028 3.58908,-27.35723 0.28516,-43.64648 -3.21456,-15.84869 -9.96161,-27.8548 -15.68555,-38.76172 -5.52864,-10.53477 -10.37165,-20.98378 -12.75,-32.19531 -2.40401,-11.33253 -2.37572,-24.001853 -2.46484,-36.48633 z"/>
  </g>
  <g id="sun">
    <g id="wavy-rays" transform="rotate(22.5,300,300)">
      <use xlink:href="#wavy-ray" transform="rotate(0,300,300)"/>
      <use xlink:href="#wavy-ray" transform="rotate(45,300,300)"/>
      <use xlink:href="#wavy-ray" transform="rotate(90,300,300)"/>
      <use xlink:href="#wavy-ray" transform="rotate(135,300,300)"/>
      <use xlink:href="#wavy-ray" transform="rotate(180,300,300)"/>
      <use xlink:href="#wavy-ray" transform="rotate(225,300,300)"/>
      <use xlink:href="#wavy-ray" transform="rotate(270,300,300)"/>
      <use xlink:href="#wavy-ray" transform="rotate(315,300,300)"/>
    </g>
    <g id="straight-rays">
      <use xlink:href="#straight-ray" transform="rotate(0,300,300)"/>
      <use xlink:href="#straight-ray" transform="rotate(45,300,300)"/>
      <use xlink:href="#straight-ray" transform="rotate(90,300,300)"/>
      <use xlink:href="#straight-ray" transform="rotate(135,300,300)"/>
      <use xlink:href="#straight-ray" transform="rotate(180,300,300)"/>
      <use xlink:href="#straight-ray" transform="rotate(225,300,300)"/>
      <use xlink:href="#straight-ray" transform="rotate(270,300,300)"/>
      <use xlink:href="#straight-ray" transform="rotate(315,300,300)"/>
    </g>
    <circle id="disk" style="fill:#ff6600;stroke:#cc5500;stroke-width:1;stroke-linecap:round;stroke-linejoin:round;" cx="300" cy="300" r="80"/>
  </g>
  <path id="shield" d="m2,2v257c0,286 298,398 298,398c0,0 298-112 298-398V2z"/>
</defs>
<use id="field" xlink:href="#shield" style="fill:#330088;"/>
<use xlink:href="#shield" style="fill:url(#stars);"/>
<path style="fill:#ffff00;" d="m 300,2 0,655 c 0,0 298,-112 298,-398 L 598,2 300,2 z"/>
<use xlink:href="#sun" transform="translate(450,300)scale(0.6)translate(-300,-300)"/>
<use id="shine" xlink:href="#shield" style="fill:url(#rg);stroke:#000000;stroke-width:3;"/>
</svg>
