<?xml version="1.0" encoding="UTF-8"?>
<svg xmlns="http://www.w3.org/2000/svg" xmlns:xlink="http://www.w3.org/1999/xlink" width="600" height="660">
<defs>
  <radialGradient id="rg" gradientUnits="userSpaceOnUse" cx="220" cy="220" r="405">
    <stop style="stop-color:#fff;stop-opacity:.3" offset="0"/>
    <stop style="stop-color:#fff;stop-opacity:.2" offset=".2"/>
    <stop style="stop-color:#666;stop-opacity:.1" offset=".6"/>
    <stop style="stop-color:#000;stop-opacity:.13" offset="1"/>
  </radialGradient>
  <path id="shield" d="m2,2v257c0,286 298,398 298,398c0,0 298-112 298-398V2z"/>
</defs>
<use id="shine" xlink:href="#shield" fill="#eeeeee"/>
<g style="stroke:#888888;stroke-width:1;stroke-linecap:round;stroke-linejoin:round;">
  <g>
    <g>
      <path style="fill:#050505;" d="m 515.89888,109.69462 c -13.3116,-6.27549 -26.34696,-13.083708 -37.81501,-21.648629 -6.51828,-4.860769 -12.49631,-10.369155 -17.42698,-16.606125 -3.44347,-4.314841 -6.74445,-9.608099 -11.09791,-14.976054 l -7e-5,-8.7e-5 c -2.19415,-2.697586 -4.65356,-5.279406 -7.40422,-7.653169 l -9e-5,-7.7e-5 c -3.26837,-2.794862 -6.76206,-5.163293 -10.3519,-7.170384 l -1.1e-4,-5.5e-5 c -7.82027,-4.371427 -16.418,-7.129917 -25.21211,-8.270874 -8.37331,-1.054734 -16.41917,-0.908816 -24.06379,-0.69326 l -10e-5,3e-6 c -8.41204,0.196705 -16.63193,0.385425 -24.51592,-0.281416 -9.51739,-0.782107 -18.97926,-2.748884 -28.06543,-5.882422 l -5.02189,14.570942 c 0.30975,2.263182 3.62748,4.389762 7.26337,5.371091 3.63254,0.980424 7.34353,0.755591 8.2927,-1.073416 0.5883,2.207234 4.14354,3.908482 7.87203,4.435071 3.72545,0.526158 7.38015,-0.152697 8.09639,-2.084808 0.068,0.168445 0.15463,0.331686 0.25834,0.489542 v 1e-6 c 1.25523,1.906718 4.94486,2.958138 8.52681,2.963811 3.56553,0.0056 6.87816,-1.018296 7.4038,-2.916218 1.21066,2.36212 6.17427,3.227775 10.33871,2.727611 l -1e-5,-0.0094 v 0 c 2.94042,-0.351374 5.45207,-1.389928 5.88357,-3.023157 2.01823,3.472979 13.22019,5.170929 16.53904,0.807461 0.7683,3.530882 12.82928,7.994903 16.01133,4.831307 -0.95226,3.470428 9.07401,11.729288 13.52803,9.59785 -2.02767,5.219299 5.28168,14.524313 10.04148,13.015426 -0.81026,1.557187 -0.15004,4.149057 1.35522,6.596414 v 10e-7 c 2.40856,3.882512 6.6844,7.009951 8.91791,5.785066 -0.74432,2.161714 1.27786,5.544977 4.12787,8.030509 2.84451,2.480732 6.2929,3.880395 7.93897,2.640196 -0.14605,0.773439 0.0536,1.651709 0.51479,2.559259 2.23974,4.40304 10.24857,8.95011 12.81971,6.59383 -0.19831,2.26886 2.54422,5.08763 5.79693,6.92209 3.24671,1.83108 6.87881,2.61557 8.2928,1.12359 -0.0351,2.27785 2.89622,4.9059 6.24229,6.53963 3.34059,1.63107 7.00465,2.23093 8.34237,0.67623 z"/>
      <path style="fill:none;" d="m 510.41266,121.37877 c -13.548,-6.33838 -27.3847,-13.5963 -40.0323,-22.976406 -7.24322,-5.37611 -14.0344,-11.65648 -19.83117,-18.937476 -4.02771,-5.080811 -7.29729,-10.336324 -10.99051,-14.844279 -1.78873,-2.18722 -3.71946,-4.22757 -5.8171,-6.025117 l -1.2e-4,-1.02e-4 c -2.49043,-2.147881 -5.28596,-4.028528 -8.26358,-5.707854 -6.23705,-3.518474 -13.27864,-5.769233 -20.56084,-6.72494 -7.05598,-0.942892 -14.40578,-0.764452 -22.07314,-0.589374 -8.3924,0.213384 -17.10007,0.391714 -25.892,-0.322033 -10.52706,-0.86686 -21.04043,-3.040234 -31.20942,-6.543224"/>
      <g>
        <path style="fill:#ffffff;stroke:#333333" d="m 275.97317,40.557516 c 0.75655,3.562629 2.0843,7.348224 6.68421,8.287156 -2.32499,-1.776276 -4.04159,-5.432488 -2.33384,-9.212838"/>
        <path style="fill:#ff0000;stroke:#990000;" d="m 276.13444,58.867455 c -2.98278,0.939467 -7.03801,0.218428 -9.66126,-1.674792 -1.34321,-1.424272 -1.6385,-3.418976 -1.40755,-5.224118 -1.58297,1.387056 -1.14157,4.123435 -0.60069,5.395324 -1.21435,0.51624 -2.90395,0.869298 -5.05626,0.332905 1.17068,2.098416 4.8772,1.754831 6.28272,1.093075 3.13669,2.141997 7.43937,2.937692 10.98895,1.819686 6.76825,-2.131766 12.38886,-9.097067 23.38313,-9.614066 2.58808,-0.121631 5.44568,0.379281 8.24257,0.576229 1.21668,0.08679 1.34491,-1.739026 0.12801,-1.823067 -2.65982,-0.187304 -3.07133,-1.777864 -12.87964,-0.368068 -7.23462,1.039865 -13.52977,7.631664 -19.41999,9.486892 z"/>
        <path style="fill:#050505;" d="m 335.30017,38.766557 c -10.75031,3.372582 -5.35501,8.959661 -20.09286,12.519719 -8.27663,1.999293 -14.58266,7.974833 -18.73198,11.500263 -1.05689,0.897973 -5.90432,1.725949 -3.45859,-0.691155 3.52169,-3.480502 7.11622,-7.330108 9.93923,-10.971171 0.87682,-1.130894 -1.30295,-10.953208 -3.12334,-11.507527 -3.50507,-1.067315 -8.17515,-0.165634 -12.10535,0.774437 -1.38096,0.330301 -3.19632,0.249641 -8.16279,1.329585 -2.51103,0.546038 -3.42584,0.894989 -4.83921,0.504543 -0.52356,-0.144585 -2.33891,-0.677509 -2.882,-1.560971 -1.12896,-1.836525 -2.99487,-4.823199 -2.90573,-5.857112 0.16701,-1.938062 0.98084,-2.46015 2.77157,-3.21994 3.41358,-1.448341 6.00577,-1.37686 9.65982,-2.812346 4.66502,-1.832644 7.81253,-4.049694 10.5565,-6.358359 1.10447,-0.92927 2.72658,-1.106877 4.983,-1.894998 1.06406,-0.371639 2.48524,-0.701214 3.5631,-0.538808 1.35983,0.204886 1.73677,0.654597 4.61895,0.762689 8.17606,0.30668 8.27591,-2.884258 16.22198,1.345044 6.89097,3.667719 8.63277,4.421621 19.18181,7.498399"/>
        <path style="fill:#888888;stroke:none;" d="m 274.71106,35.758696 c 0.78564,-0.239738 1.39598,-0.669349 2.26695,-0.480854 1.20959,0.26177 1.25174,-1.612282 0.0469,-1.568613 -0.7058,0.02553 -1.63747,0.334698 -2.36736,0.479645 -0.72989,0.144928 -0.91376,1.864993 0.0535,1.569822 z"/>
        <g>
          <path style="fill:#ffffff;stroke:none;" d="m 300.23017,24.853411 c 0.6872,1.124599 0.29491,3.944877 -1.58799,5.158366 -1.91262,1.175132 -4.66386,0.238292 -5.38947,-0.85656 -0.67865,-1.192599 1.03743,-1.908581 2.95005,-3.08372 1.94235,-1.136752 3.31044,-2.380994 4.02741,-1.218086 z"/>
          <path style="fill:#333333;stroke:none;" d="m 297.84972,27.254915 a 1.8381906,1.7610535 52.229438 0 1 -0.2514,2.52699 1.8381906,1.7610535 52.229438 0 1 -2.50972,-0.387531 1.8381906,1.7610535 52.229438 0 1 0.25139,-2.526977 1.8381906,1.7610535 52.229438 0 1 2.50973,0.387518 z"/>
          <path style="fill:#000000;stroke:none;" d="m 295.89594,27.664087 c -0.34513,0.267427 -0.48227,0.803311 -0.15541,1.22514 0.32687,0.421831 0.88,0.422848 1.22515,0.15541 0.42182,-0.326867 0.55896,-0.86273 0.2321,-1.284565 -0.32687,-0.421832 -0.88001,-0.42285 -1.30184,-0.09599 z"/>
          <path style="fill:#ffffff;stroke:none;" d="m 296.16921,27.145479 c -0.23008,0.178328 -0.2819,0.586672 -0.0739,0.855109 0.23767,0.306824 0.61639,0.320255 0.84648,0.141957 0.30682,-0.237662 0.38831,-0.607745 0.15059,-0.914542 -0.20801,-0.268434 -0.61638,-0.320238 -0.92318,-0.08252 z"/>
        </g>
      </g>
    </g>
    <g>
      <path style="fill:#050505;" d="m 516.02363,109.73431 c -15.96329,-7.79136 -32.36249,-15.726606 -49.11779,-23.025495 -11.16346,-4.876608 -22.81432,-9.626699 -35.10424,-13.18034 -8.77465,-2.553123 -18.09429,-4.354631 -27.77026,-4.604587 l -1.2e-4,-3e-6 c -8.77746,-0.167842 -17.35438,0.998227 -25.56599,2.933071 -8.34201,1.990478 -15.79917,5.062629 -22.82912,7.839795 l -9e-5,3.8e-5 c -8.79593,3.424377 -17.51726,6.698739 -26.27769,9.068349 -10.5264,2.858944 -21.38155,4.593352 -32.27232,4.898724 -13.52222,0.404554 -27.24293,-1.359815 -40.70708,-4.743493 l -3.77031,14.943851 c 0.46547,2.21394 3.81273,4.04273 7.35954,4.76012 3.54602,0.71724 7.12027,0.28982 7.96308,-1.58279 0.65934,2.16625 4.15736,3.68975 7.75741,4.07927 3.59943,0.38945 7.1153,-0.37356 7.77531,-2.31729 0.70482,1.71202 3.27237,2.82403 6.18873,3.18143 2.924,0.35833 6.07704,-0.0566 7.92381,-1.16669 0.79911,-0.48175 1.33886,-1.0865 1.50117,-1.79997 1.0736,1.99463 4.80484,2.78428 8.41523,2.42668 3.60683,-0.35725 6.88919,-1.83691 7.13186,-3.87598 1.27754,1.86995 5.07125,2.26807 8.62433,1.54604 3.54987,-0.72136 6.6686,-2.51983 6.70733,-4.5725 0.79372,0.94397 2.29781,1.38593 4.07639,1.41216 4.76661,0.0661 11.11276,-2.8661 10.92724,-5.87141 1.59291,1.60356 5.38974,1.32194 8.75605,0.0631 3.35766,-1.255576 6.20998,-3.449828 5.99884,-5.484559 0.51937,0.478539 1.24852,0.765733 2.10794,0.892738 3e-5,7.4e-5 0.0199,0.0507 0.0199,0.05077 v 10e-7 0 c 2.33782,0.313595 5.53796,-0.532309 8.11847,-1.830798 2.55614,-1.286227 4.57254,-3.04186 4.47143,-4.729673 1.51736,1.494221 5.00467,1.380321 8.1976,0.752368 3.5938,-0.726155 7.14008,-2.376589 7.38176,-4.480187 1.89705,2.662038 9.82705,2.606797 13.62301,1.146319 -10e-6,-0.01343 0,-0.02702 4e-5,-0.04075 v 0 c 1.15417,-0.472161 2.02049,-1.117396 2.31471,-1.985239 0.88161,2.018362 4.4561,3.322249 7.84771,3.859988 3.42312,0.542734 7.00752,0.344935 7.99373,-1.439364 0.39257,1.697899 2.4836,3.201471 4.94942,4.250386 v 0 c 3.86314,1.65487 8.90938,2.333743 10.31152,0.292746 0.2831,2.219248 3.40517,4.395045 6.69237,5.658407 3.29683,1.267074 6.86603,1.651629 8.11831,0.03704 0.16919,2.52717 3.97958,5.190017 7.69491,6.471807 2.86567,0.99246 5.70709,1.17768 6.83239,-0.19904 0.17894,4.46371 11.75165,9.67042 14.37386,6.57757 0.0972,4.47707 11.60069,9.85907 14.26806,6.78513 0.0442,4.49016 11.51216,9.96893 14.20338,6.89832 z"/>
      <path style="fill:none;" d="m 510.35955,121.33097 c -15.72638,-7.67085 -32.08618,-15.59491 -48.61142,-22.789304 -10.90227,-4.73923 -22.07241,-9.325942 -33.51928,-12.610061 -8.02382,-2.293527 -16.26449,-3.938819 -24.48947,-4.104647 -7.36533,-0.179786 -14.85984,0.867585 -22.35025,2.599528 -6.95536,1.593886 -13.78338,4.467183 -21.06257,7.29141 -8.8521,3.461044 -18.03397,6.891979 -27.58278,9.497344 -11.36306,3.09416 -23.2257,4.99374 -35.28858,5.34392 -14.77841,0.41544 -29.66746,-1.4482 -44.23245,-5.13114"/>
      <g>
        <path style="fill:#ffffff;stroke:#333333" d="m 206.489,104.51607 c 0.75655,3.56263 2.0843,7.34823 6.68421,8.28716 -2.32499,-1.77628 -4.04159,-5.43249 -2.33384,-9.21284"/>
        <path style="fill:#ff0000;stroke:#990000;" d="m 206.65027,122.82601 c -2.98278,0.93947 -7.03801,0.21843 -9.66126,-1.67479 -1.34321,-1.42427 -1.6385,-3.41898 -1.40755,-5.22412 -1.58297,1.38706 -1.14157,4.12344 -0.60069,5.39533 -1.21435,0.51624 -2.90395,0.86929 -5.05626,0.3329 1.17068,2.09842 4.8772,1.75483 6.28272,1.09307 3.13669,2.142 7.43937,2.9377 10.98895,1.81969 6.76825,-2.13177 12.38886,-9.09707 23.38313,-9.61407 2.58808,-0.12163 5.44568,0.37929 8.24257,0.57623 1.21668,0.0868 1.34491,-1.73902 0.12801,-1.82306 -2.65982,-0.18731 -3.07133,-1.77787 -12.87964,-0.36807 -7.23462,1.03986 -13.52977,7.63166 -19.41999,9.48689 z"/>
        <path style="fill:#050505;" d="m 265.816,102.72511 c -10.75031,3.37259 -5.35501,8.95966 -20.09286,12.51972 -8.27663,1.99929 -14.58266,7.97484 -18.73198,11.50027 -1.05689,0.89797 -5.90432,1.72594 -3.45859,-0.69116 3.52169,-3.4805 7.11622,-7.33011 9.93923,-10.97117 0.87682,-1.13089 -1.30295,-10.95321 -3.12334,-11.50753 -3.50507,-1.06731 -8.17515,-0.16563 -12.10535,0.77444 -1.38096,0.3303 -3.19632,0.24964 -8.16279,1.32958 -2.51103,0.54604 -3.42584,0.89499 -4.83921,0.50455 -0.52356,-0.14459 -2.33891,-0.67751 -2.882,-1.56097 -1.12896,-1.83653 -2.99487,-4.823203 -2.90573,-5.857116 0.16701,-1.938062 0.98084,-2.46015 2.77157,-3.21994 3.41358,-1.448341 6.00577,-1.37686 9.65982,-2.812346 4.66502,-1.832644 7.81253,-4.049694 10.5565,-6.358359 1.10447,-0.92927 2.72658,-1.106877 4.983,-1.894998 1.06406,-0.371639 2.48524,-0.701214 3.5631,-0.538808 1.35983,0.204886 1.73677,0.654597 4.61895,0.762689 8.17606,0.30668 8.27591,-2.884258 16.22198,1.345044 6.89097,3.667719 10.93169,3.975497 20.14701,6.021598"/>
        <path style="fill:#888888;stroke:none;" d="m 205.22689,99.717252 c 0.78564,-0.239738 1.39598,-0.669349 2.26695,-0.480854 1.20959,0.26177 1.25174,-1.612282 0.0469,-1.568613 -0.7058,0.02553 -1.63747,0.334698 -2.36736,0.479645 -0.72989,0.144928 -0.91376,1.86499 0.0535,1.569822 z"/>
        <g>
          <path style="fill:#ffffff;stroke:none;" d="m 230.746,88.811967 c 0.6872,1.124599 0.29491,3.944877 -1.58799,5.158366 -1.91262,1.175132 -4.66386,0.238292 -5.38947,-0.85656 -0.67865,-1.192599 1.03743,-1.908581 2.95005,-3.08372 1.94235,-1.136752 3.31044,-2.380994 4.02741,-1.218086 z"/>
          <path style="fill:#333333;stroke:none;" d="m 228.36555,91.213471 a 1.8381906,1.7610535 52.229438 0 1 -0.2514,2.52699 1.8381906,1.7610535 52.229438 0 1 -2.50972,-0.387531 1.8381906,1.7610535 52.229438 0 1 0.25139,-2.526977 1.8381906,1.7610535 52.229438 0 1 2.50973,0.387518 z"/>
          <path style="fill:#000000;stroke:none;" d="m 226.41177,91.622643 c -0.34513,0.267427 -0.48227,0.803311 -0.15541,1.22514 0.32687,0.421831 0.88,0.422848 1.22515,0.15541 0.42182,-0.326867 0.55896,-0.86273 0.2321,-1.284565 -0.32687,-0.421832 -0.88001,-0.42285 -1.30184,-0.09599 z"/>
          <path style="fill:#ffffff;stroke:none;" d="m 226.68504,91.104035 c -0.23008,0.178328 -0.2819,0.586672 -0.0739,0.855109 0.23767,0.306824 0.61639,0.320255 0.84648,0.141957 0.30682,-0.237662 0.38831,-0.607745 0.15059,-0.914542 -0.20801,-0.268434 -0.61638,-0.320238 -0.92318,-0.08252 z"/>
        </g>
      </g>
    </g>
    <g>
      <path style="fill:#050505;" d="m 506.00535,357.68323 c 19.58048,-18.58513 36.2462,-41.05806 48.26784,-66.39676 10.48605,-22.05002 17.50841,-46.5001 18.92357,-71.90031 1.26182,-21.69771 -1.94297,-44.55501 -11.99556,-65.16771 -4.64959,-9.45049 -10.82631,-18.2755 -18.4446,-25.8814 l -7e-5,-7e-5 c -7.77598,-7.73273 -16.92762,-14.04 -26.90934,-18.64716 -6.80963,-3.1701 -14.12788,-5.82663 -21.91533,-7.4208 -6.21008,-1.25818 -12.65109,-1.71547 -19.11749,-1.2278 l -1.1e-4,1e-5 c -5.84472,0.46743 -11.46841,1.64877 -16.81611,3.25691 -5.41376,1.62231 -10.50618,3.55978 -15.41747,5.45649 l -8e-5,4e-5 c -11.14569,4.2556 -22.15539,8.27653 -33.20243,10.17842 -15.69616,2.82471 -32.21978,2.11539 -48.68555,-0.61858 l -2.55796,15.19828 c 0.64157,2.16931 4.1322,3.73501 7.73377,4.18265 3.60166,0.44766 7.14656,-0.2435 7.8488,-2.17471 0.82353,2.11259 4.4392,3.3747 8.07071,3.49722 3.6319,0.12254 7.09034,-0.90007 7.60223,-2.88709 1.02123,2.02306 4.73807,2.92798 8.36516,2.68015 3.6273,-0.24783 6.95379,-1.63327 7.24539,-3.66469 1.1117,1.71156 4.31258,2.28869 7.57562,1.89111 v 0 c 3.92205,-0.58221 7.71526,-2.60199 7.85438,-4.55525 3.67947,1.97547 12.11687,0.82142 15.14207,-4.20802 3.32369,1.46983 12.20126,-0.95448 14.76909,-5.29086 2.53418,1.92191 14.60661,-0.30866 14.93466,-5.53626 2.0231,2.56568 14.17487,1.63576 15.99562,-1.66958 0.99179,2.75346 13.14848,6.11537 15.91679,2.21251 0.27993,1.61104 2.06085,3.15846 4.21562,4.38477 2.1522,1.22486 4.82153,2.20606 6.97819,2.4573 h 10e-6 c 1.5904,0.18962 2.96229,0.007 3.70464,-0.80622 -0.004,2.2232 2.77038,4.85143 5.66905,6.71628 2.9023,1.8672 6.24994,3.17518 7.88098,1.99145 -0.44685,2.1558 1.69353,5.25419 4.10038,7.66737 -5e-4,-4.1e-4 -9.4e-4,-8.8e-4 -9.7e-4,-9.7e-4 v 0 c 2.45255,2.41894 5.4478,4.40308 7.29542,3.58804 -0.89754,2.02675 0.57733,5.54997 2.48488,8.42422 1.91457,2.88485 4.46977,5.41545 6.44234,4.96664 -0.6158,0.88065 -0.74811,2.18424 -0.58248,3.63744 0.53017,4.49357 3.97335,11.23707 6.91604,11.09341 -1.56639,1.5653 -1.4294,5.3645 -0.60068,8.73 0.83132,3.37607 2.43387,6.59583 4.45585,6.802 -1.7963,1.31818 -2.22307,5.11359 -1.86131,8.59607 0.36268,3.49147 1.54742,6.90353 3.53623,7.36413 -3.00513,1.66381 -3.6243,9.89972 -2.06948,13.82912 0.43035,1.09517 1.04451,1.90171 1.86891,2.1883 -2.06277,0.86662 -3.34158,4.46031 -3.75163,7.93974 -0.41065,3.48458 0.0291,7.04931 1.86986,7.90669 -2.13823,0.65233 -3.77025,4.09792 -4.51758,7.52813 -0.7483,3.43464 -0.64551,7.02966 1.11039,8.05729 -2.19326,0.44947 -4.13873,3.73354 -5.19268,7.09241 -1.05519,3.36277 -1.26401,6.95818 0.39914,8.13541 -2.22764,0.25793 -4.4472,3.3673 -5.77694,6.6326 -1.33119,3.26885 -1.82651,6.83498 -0.26385,8.14105 -1.04462,0.0362 -2.12816,0.68636 -3.14499,1.68006 -3.32564,3.24364 -6.23242,10.40392 -4.04087,12.54964 -2.23888,-0.0987 -4.91794,2.61764 -6.74227,5.63185 -1.82572,3.01649 -2.87104,6.45855 -1.53104,7.9907 -2.22486,-0.27163 -5.1056,2.23051 -7.15619,5.09752 -2.05204,2.86906 -3.35644,6.22253 -2.13652,7.85262 -2.1983,-0.44028 -5.26101,1.8366 -7.52293,4.54147 -2.26346,2.70671 -3.81651,5.95304 -2.72263,7.67051 -4.69605,-0.24018 6.16334,5.42421 -11.13189,11.40808 z"/>
      <path style="fill:none;" d="m 497.1723,348.37578 c 18.12154,-17.23761 33.99074,-38.37873 45.46394,-62.61224 9.66497,-20.44066 16.40562,-43.31698 17.67814,-67.08425 1.02821,-19.71557 -1.64774,-40.5375 -10.69233,-58.75705 -4.05374,-8.20903 -9.39984,-15.90063 -15.97813,-22.44321 -6.61358,-6.59383 -14.5225,-12.05484 -23.21466,-16.07421 -6.14975,-2.82926 -12.5218,-5.18207 -19.05088,-6.48478 -5.11628,-1.02767 -10.37902,-1.41646 -15.57746,-1.01143 l -1.5e-4,1e-5 c -4.68942,0.35114 -9.41061,1.36287 -14.12206,2.75769 -4.78877,1.42084 -9.55034,3.24424 -14.46731,5.13195 -11.19951,4.32584 -23.05004,8.59603 -35.58942,10.83934 -17.41481,3.05058 -35.36931,2.40298 -53.07298,-0.60272"/>
      <g>
        <path style="fill:#ffffff;stroke:#333333" d="m 311.61238,133.43351 c 0.75655,3.56263 2.0843,7.34823 6.68421,8.28716 -2.32499,-1.77628 -4.04159,-5.43249 -2.33384,-9.21284"/>
        <path style="fill:#ff0000;stroke:#990000;" d="m 311.77365,151.74345 c -2.98278,0.93947 -7.03801,0.21843 -9.66126,-1.67479 -1.34321,-1.42427 -1.6385,-3.41898 -1.40755,-5.22412 -1.58297,1.38706 -1.14157,4.12344 -0.60069,5.39533 -1.21435,0.51624 -2.90395,0.86929 -5.05626,0.3329 1.17068,2.09842 4.8772,1.75483 6.28272,1.09307 3.13669,2.142 7.43937,2.9377 10.98895,1.81969 6.76825,-2.13177 12.38886,-9.09707 23.38313,-9.61407 2.58808,-0.12163 5.44568,0.37929 8.24257,0.57623 1.21668,0.0868 1.34491,-1.73902 0.12801,-1.82306 -2.65982,-0.18731 -3.07133,-1.77787 -12.87964,-0.36807 -7.23462,1.03986 -13.52977,7.63166 -19.41999,9.48689 z"/>
        <path style="fill:#050505;" d="m 370.93938,131.64255 c -10.75031,3.37259 -5.35501,8.95966 -20.09286,12.51972 -8.27663,1.99929 -14.58266,7.97484 -18.73198,11.50027 -1.05689,0.89797 -5.90432,1.72594 -3.45859,-0.69116 3.52169,-3.4805 7.11622,-7.33011 9.93923,-10.97117 0.87682,-1.13089 -1.30295,-10.95321 -3.12334,-11.50753 -3.50507,-1.06731 -8.17515,-0.16563 -12.10535,0.77444 -1.38096,0.3303 -3.19632,0.24964 -8.16279,1.32958 -2.51103,0.54604 -3.42584,0.89499 -4.83921,0.50455 -0.52356,-0.14459 -2.33891,-0.67751 -2.882,-1.56097 -1.12896,-1.83653 -2.99487,-4.8232 -2.90573,-5.85712 0.16701,-1.93806 0.98084,-2.46015 2.77157,-3.21994 3.41358,-1.44834 6.00577,-1.37686 9.65982,-2.81234 4.66502,-1.83265 7.81253,-4.0497 10.5565,-6.35836 1.10447,-0.92927 2.72658,-1.10688 4.983,-1.895 1.06406,-0.37164 2.48524,-0.70121 3.5631,-0.53881 1.35983,0.20489 1.73677,0.6546 4.61895,0.76269 8.17606,0.30668 8.27591,-2.88426 16.22198,1.34505 6.89097,3.66771 10.33188,5.33057 19.98698,6.33582"/>
        <path style="fill:#888888;stroke:none;" d="m 310.35027,128.63469 c 0.78564,-0.23974 1.39598,-0.66935 2.26695,-0.48085 1.20959,0.26177 1.25174,-1.61228 0.0469,-1.56862 -0.7058,0.0255 -1.63747,0.3347 -2.36736,0.47965 -0.72989,0.14493 -0.91376,1.86499 0.0535,1.56982 z"/>
        <g>
          <path style="fill:#ffffff;stroke:none;" d="m 335.86938,117.72941 c 0.6872,1.1246 0.29491,3.94487 -1.58799,5.15836 -1.91262,1.17513 -4.66386,0.23829 -5.38947,-0.85656 -0.67865,-1.1926 1.03743,-1.90858 2.95005,-3.08372 1.94235,-1.13675 3.31044,-2.38099 4.02741,-1.21808 z"/>
          <path style="fill:#333333;stroke:none;" d="m 333.48893,120.13091 a 1.8381906,1.7610535 52.229438 0 1 -0.2514,2.52699 1.8381906,1.7610535 52.229438 0 1 -2.50972,-0.38753 1.8381906,1.7610535 52.229438 0 1 0.25139,-2.52698 1.8381906,1.7610535 52.229438 0 1 2.50973,0.38752 z"/>
          <path style="fill:#000000;stroke:none;" d="m 331.53515,120.54008 c -0.34513,0.26743 -0.48227,0.80331 -0.15541,1.22514 0.32687,0.42183 0.88,0.42285 1.22515,0.15541 0.42182,-0.32686 0.55896,-0.86273 0.2321,-1.28456 -0.32687,-0.42183 -0.88001,-0.42285 -1.30184,-0.096 z"/>
          <path style="fill:#ffffff;stroke:none;" d="m 331.80842,120.02148 c -0.23008,0.17832 -0.2819,0.58667 -0.0739,0.8551 0.23767,0.30683 0.61639,0.32026 0.84648,0.14196 0.30682,-0.23766 0.38831,-0.60774 0.15059,-0.91454 -0.20801,-0.26843 -0.61638,-0.32024 -0.92318,-0.0825 z"/>
        </g>
      </g>
    </g>
  </g>
  <g>
    <g>
      <path style="fill:#050505;" d="m 158.6615,140.79744 c 6.9865,2.7542 13.91846,5.08744 20.85743,6.44813 4.60394,0.91138 9.23961,1.38891 13.80899,1.32951 h 1e-4 c 3.49093,-0.0253 7.32183,-0.42982 11.47498,-0.72188 4.18949,-0.32317 8.66629,-0.36702 13.34869,0.23327 l 1.2e-4,2e-5 c 8.18512,1.15962 15.77641,4.29309 22.28938,8.72217 5.92108,4.05102 10.78996,8.58552 15.3152,12.52728 l 7e-5,7e-5 c 4.50682,3.7987 8.69586,7.18503 13.06104,8.97394 4.80011,2.18618 10.60236,2.65489 16.30176,1.94627 l 2.02567,15.2998 c -7.50778,-3.32368 -14.06008,4.57017 -15.64599,-0.40826 -1.09934,2.19343 -5.99746,2.09679 -10.00797,-0.02 v 0 c -2.65947,-1.60637 -4.64267,-3.88788 -4.69444,-5.50246 -1.10025,1.03838 -3.57607,0.34178 -6.09019,-1.35852 -2.70043,-2.26002 -7.62824,-3.89936 -6.79287,-7.89693 -4.46391,-0.0418 -12.80508,-6.04381 -12.27449,-10.8975 -4.47754,1.19568 -13.53247,-1.66503 -15.56302,-6.03049 -9.7e-4,0.003 0.008,-0.0807 0.008,-0.0778 0.006,-0.0408 -0.0312,0.20951 -0.0254,0.16873 -2.12851,3.47166 -13.7075,4.3557 -16.40658,0.16923 -0.35561,1.71602 -2.97556,2.9184 -6.11299,3.21612 v 0 c -9.7e-4,0.003 -9.7e-4,0.005 -0.002,0.008 -4.20669,0.35591 -8.82271,-0.98362 -9.72159,-3.42959 -0.74611,1.87703 -4.26378,2.46853 -7.88999,1.79918 -3.76491,-0.70177 -7.31332,-2.66615 -7.75541,-4.95291 -1.06601,1.76495 -4.75763,1.74065 -8.29306,0.54096 -3.52916,-1.19758 -6.70105,-3.49542 -6.89763,-5.75984 z"/>
      <path style="fill:none;" d="m 286.82051,193.04947 c -7.63572,1.04444 -15.7261,0.27345 -23.15572,-2.90821 -6.29382,-2.79884 -11.57747,-6.86641 -16.35013,-11.04624 -4.79533,-4.13106 -9.28457,-8.37765 -14.0924,-11.59237 -5.08116,-3.41069 -10.84475,-5.85543 -16.7994,-6.6311 l -1.7e-4,-2e-5 c -3.38807,-0.47519 -6.97664,-0.40463 -10.69888,-0.15032 -3.87021,0.28028 -7.97319,0.69645 -12.24876,0.75348 -5.53249,0.0598 -11.05589,-0.49711 -16.47336,-1.5771 -7.97401,-1.59665 -15.64649,-4.14268 -23.09857,-7.11012"/>
      <g>
        <path style="fill:#ffffff;stroke:#333333" d="m 100.42734,153.50561 c 0.75655,3.56263 2.0843,7.34823 6.68421,8.28716 -2.32499,-1.77628 -4.04159,-5.43249 -2.33384,-9.21284"/>
        <path style="fill:#ff0000;stroke:#990000;" d="m 100.58861,171.81555 c -2.982777,0.93947 -7.038008,0.21843 -9.661256,-1.67479 -1.343216,-1.42427 -1.638508,-3.41898 -1.407553,-5.22412 -1.582969,1.38706 -1.141574,4.12344 -0.600696,5.39533 -1.214349,0.51624 -2.903944,0.86929 -5.056259,0.3329 1.17068,2.09842 4.877202,1.75483 6.28272,1.09307 3.136692,2.142 7.439373,2.9377 10.988954,1.81969 6.76825,-2.13177 12.38886,-9.09707 23.38313,-9.61407 2.58808,-0.12163 5.44568,0.37929 8.24257,0.57623 1.21668,0.0868 1.34491,-1.73902 0.12801,-1.82306 -2.65982,-0.18731 -3.07133,-1.77787 -12.87964,-0.36807 -7.23462,1.03986 -13.52977,7.63166 -19.41999,9.48689 z"/>
        <path style="fill:#050505;" d="m 159.75434,151.71465 c -10.75031,3.37259 -5.35501,8.95966 -20.09286,12.51972 -8.27663,1.99929 -14.58266,7.97484 -18.73198,11.50027 -1.05689,0.89797 -5.90432,1.72594 -3.45859,-0.69116 3.52169,-3.4805 7.11622,-7.33011 9.93923,-10.97117 0.87682,-1.13089 -1.30295,-10.95321 -3.12334,-11.50753 -3.50507,-1.06731 -8.17515,-0.16563 -12.10535,0.77444 -1.38096,0.3303 -3.19632,0.24964 -8.16279,1.32958 -2.51103,0.54604 -3.42584,0.89499 -4.839209,0.50455 -0.523556,-0.14459 -2.338911,-0.67751 -2.881998,-1.56097 -1.128962,-1.83653 -2.99487,-4.8232 -2.905738,-5.85712 0.167012,-1.93806 0.98084,-2.46015 2.771575,-3.21994 3.413576,-1.44834 6.00577,-1.37686 9.65982,-2.81234 4.66502,-1.83265 7.81253,-4.0497 10.5565,-6.35836 1.10447,-0.92927 2.72658,-1.10688 4.983,-1.895 1.06406,-0.37164 2.48524,-0.70121 3.5631,-0.53881 1.35983,0.20489 1.73677,0.6546 4.61895,0.76269 8.17606,0.30668 8.27591,-2.88426 16.22198,1.34505 6.89097,3.66771 14.59826,6.13283 21.20981,8.81094"/>
        <path style="fill:#888888;stroke:none;" d="m 99.165234,148.70679 c 0.785635,-0.23974 1.395976,-0.66935 2.266946,-0.48085 1.20959,0.26177 1.25174,-1.61228 0.0469,-1.56862 -0.7058,0.0255 -1.637473,0.3347 -2.367363,0.47965 -0.729889,0.14493 -0.913759,1.86499 0.05349,1.56982 z"/>
        <g>
          <path style="fill:#ffffff;stroke:none;" d="m 124.68434,137.80151 c 0.6872,1.1246 0.29491,3.94487 -1.58799,5.15836 -1.91262,1.17513 -4.66386,0.23829 -5.38947,-0.85656 -0.67865,-1.1926 1.03743,-1.90858 2.95005,-3.08372 1.94235,-1.13675 3.31044,-2.38099 4.02741,-1.21808 z"/>
          <path style="fill:#333333;stroke:none;" d="m 122.30389,140.20301 a 1.8381906,1.7610535 52.229438 0 1 -0.2514,2.52699 1.8381906,1.7610535 52.229438 0 1 -2.50972,-0.38753 1.8381906,1.7610535 52.229438 0 1 0.25139,-2.52698 1.8381906,1.7610535 52.229438 0 1 2.50973,0.38752 z"/>
          <path style="fill:#000000;stroke:none;" d="m 120.35011,140.61218 c -0.34513,0.26743 -0.48227,0.80331 -0.15541,1.22514 0.32687,0.42183 0.88,0.42285 1.22515,0.15541 0.42182,-0.32686 0.55896,-0.86273 0.2321,-1.28456 -0.32687,-0.42183 -0.88001,-0.42285 -1.30184,-0.096 z"/>
          <path style="fill:#ffffff;stroke:none;" d="m 120.62338,140.09358 c -0.23008,0.17832 -0.2819,0.58667 -0.0739,0.8551 0.23767,0.30683 0.61639,0.32026 0.84648,0.14196 0.30682,-0.23766 0.38831,-0.60774 0.15059,-0.91454 -0.20801,-0.26843 -0.61638,-0.32024 -0.92318,-0.0825 z"/>
        </g>
      </g>
    </g>
    <g>
      <path style="fill:#050505;" d="m 287.22397,195.54119 c -8.43125,-3.70687 -13.0359,5.855 -15.48134,1.9991 -0.30844,2.02381 -3.60138,3.4027 -7.14404,3.74168 -3.54615,0.3393 -7.25856,-0.37295 -8.38108,-2.32779 -0.39568,2.00845 -3.74489,3.24008 -7.30407,3.40598 -3.56287,0.16607 -7.23096,-0.74255 -8.24383,-2.75732 -0.52238,2.05236 -4.1539,3.09777 -7.85151,2.97154 -3.46415,-0.12311 -6.84962,-1.28832 -7.6814,-3.30414 -0.64937,1.94509 -4.13365,2.72661 -7.69964,2.37866 -3.56766,-0.34811 -7.05722,-1.81245 -7.74394,-3.96434 -0.91651,2.13934 -5.32704,2.47702 -9.24034,1.43433 v 0 c -2.97259,-0.79322 -5.57999,-2.34571 -6.07309,-4.226 -0.62913,1.25838 -2.49936,1.78751 -4.71982,1.81135 v 0 c -9.7e-4,0.007 -0.002,0.0129 -0.003,0.0188 v 0 c -2.926,0.0174 -6.63033,-0.84797 -8.83789,-2.0882 v 0 c 9.8e-4,-0.0154 0.003,-0.0309 0.004,-0.0466 -0.90591,-0.5395 -1.62492,-1.17089 -1.98556,-1.92566 -0.57257,1.88811 -3.96943,2.92839 -7.28725,3.35893 -3.3589,0.43587 -7.14295,0.28751 -8.59581,-1.41625 -0.0276,1.21936 -1.13594,2.36175 -2.6994,3.30163 v 0 c 0.002,0.009 0.005,0.0168 0.008,0.0246 v 0 c -3.5426,2.12431 -9.91683,3.74847 -12.24189,1.86637 0.40556,2.51616 -4.04613,5.79357 -7.96806,7.37523 -2.22603,0.89265 -4.43416,1.28581 -5.83165,0.48593 0.53193,1.56492 -0.85976,3.70546 -2.96973,5.51868 -2.13705,1.83648 -4.9925,3.31143 -7.36747,3.52295 -1.05926,0.10184 -1.98056,-0.0721 -2.64954,-0.55319 0.50818,2.00489 -2.06327,4.54152 -5.57301,5.83542 -3.51932,1.29743 -7.32901,1.09304 -8.61998,-0.78178 -0.11159,1.17947 -1.23903,2.20675 -2.95794,2.85974 -2.12807,0.76341 -4.917068,0.86974 -7.376654,0.27082 -2.437996,-0.59366 -4.317077,-1.82364 -4.74838,-3.35897 -0.0958,0.21082 -0.225891,0.40293 -0.387443,0.57645 -1.368502,1.46601 -4.860854,1.5628 -8.147569,0.5477 -3.274099,-1.01121 -6.075495,-3.03637 -6.296545,-5.1531 l 5.182115,-14.51471 c 4.088077,1.44544 8.079906,2.64664 11.993683,3.30725 2.95223,0.48966 5.785463,0.73467 8.408403,0.50956 4.01361,-0.20144 8.2264,-1.94702 12.31426,-4.32192 4.79799,-2.856 9.72033,-6.65503 15.50356,-10.22717 7.71833,-4.75168 16.04901,-8.47107 24.74378,-10.99801 l 1.1e-4,-4e-5 c 8.40242,-2.48474 17.44405,-3.90045 26.76443,-3.30971 l 1.3e-4,1e-5 c 3.84817,0.28117 7.51013,0.84963 10.98378,1.51331 l 1.2e-4,3e-5 c 3.78825,0.71586 7.40771,1.50266 10.89653,2.17114 9.68956,1.85938 19.48942,2.89127 29.25976,3.07708 17.22651,0.3506 34.62342,-1.44019 51.85272,-3.90243 z"/>
      <path style="fill:none;" d="m 286.86401,193.02523 c -17.39785,2.51165 -35.55541,4.37447 -53.93896,4.0293 -10.46041,-0.20343 -20.98806,-1.30316 -31.44101,-3.30776 -3.69003,-0.70818 -7.29769,-1.49296 -10.85854,-2.16454 -3.21419,-0.60231 -6.38381,-1.10779 -9.49698,-1.3216 l -1.8e-4,-2e-5 c -7.28708,-0.54836 -14.81646,0.69814 -22.26526,2.83084 -7.51907,2.17607 -14.79438,5.41993 -21.57205,9.59224 -5.00947,3.07749 -9.96999,6.8995 -15.63385,10.30547 -5.27204,3.2008 -11.36428,5.55446 -17.95847,6.11881 -3.957719,0.29139 -7.852742,-0.002 -11.594802,-0.66064 -4.898285,-0.85593 -9.602495,-2.24259 -14.135794,-3.87087"/>
      <g>
        <path style="fill:#ffffff;stroke:#333333" d="m 30.94316,217.46417 c 0.756546,3.56263 2.084302,7.34823 6.684208,8.28716 -2.324988,-1.77628 -4.041584,-5.43249 -2.333839,-9.21284"/>
        <path style="fill:#ff0000;stroke:#990000;" d="m 31.104428,235.77411 c -2.982775,0.93947 -7.038006,0.21843 -9.661254,-1.67479 -1.343216,-1.42427 -1.638508,-3.41898 -1.407553,-5.22412 -1.582969,1.38706 -1.141574,4.12344 -0.600696,5.39533 -1.214349,0.51624 -2.903944,0.86929 -5.056259,0.3329 1.17068,2.09842 4.877202,1.75483 6.28272,1.09307 3.136692,2.142 7.439373,2.9377 10.988958,1.81969 6.768249,-2.13177 12.388851,-9.09707 23.383125,-9.61407 2.588084,-0.12163 5.445686,0.37929 8.242572,0.57623 1.216678,0.0868 1.344906,-1.73902 0.128014,-1.82306 -2.659826,-0.18731 -3.071338,-1.77787 -12.879643,-0.36807 -7.234627,1.03986 -13.529769,7.63166 -19.419991,9.48689 z"/>
        <path style="fill:#050505;" d="m 90.270155,215.67321 c -10.750309,3.37259 -5.355003,8.95966 -20.092859,12.51972 -8.276631,1.99929 -14.582659,7.97484 -18.731975,11.50027 -1.056894,0.89797 -5.904317,1.72594 -3.45859,-0.69116 3.521686,-3.4805 7.116217,-7.33011 9.939224,-10.97117 0.876821,-1.13089 -1.302944,-10.95321 -3.123338,-11.50753 -3.505071,-1.06731 -8.175147,-0.16563 -12.105343,0.77444 -1.380965,0.3303 -3.19632,0.24964 -8.162793,1.32958 -2.511031,0.54604 -3.425843,0.89499 -4.83921,0.50455 -0.523556,-0.14459 -2.338911,-0.67751 -2.881998,-1.56097 -1.128962,-1.83653 -2.99487,-4.8232 -2.905738,-5.85712 0.167012,-1.93806 0.98084,-2.46015 2.771575,-3.21994 3.413576,-1.44834 6.005768,-1.37686 9.659823,-2.81234 4.66502,-1.83265 7.81253,-4.0497 10.5565,-6.35836 1.104462,-0.92927 2.726579,-1.10688 4.983001,-1.895 1.064055,-0.37164 2.485238,-0.70121 3.563095,-0.53881 1.35983,0.20489 1.736766,0.6546 4.618954,0.76269 8.17606,0.30668 8.275906,-2.88426 16.221979,1.34505 6.890973,3.66771 12.907802,5.60554 19.981106,7.02831"/>
        <path style="fill:#888888;stroke:none;" d="m 29.681054,212.66535 c 0.785635,-0.23974 1.395976,-0.66935 2.266947,-0.48085 1.209587,0.26177 1.251737,-1.61228 0.04693,-1.56862 -0.705803,0.0255 -1.637472,0.3347 -2.367362,0.47965 -0.729889,0.14493 -0.913759,1.86499 0.05349,1.56982 z"/>
        <g>
          <path style="fill:#ffffff;stroke:none;" d="m 55.20016,201.76007 c 0.687198,1.1246 0.29491,3.94487 -1.587989,5.15836 -1.91262,1.17513 -4.66386,0.23829 -5.389467,-0.85656 -0.678653,-1.1926 1.037427,-1.90858 2.950049,-3.08372 1.94235,-1.13675 3.310438,-2.38099 4.027407,-1.21808 z"/>
          <path style="fill:#333333;stroke:none;" d="m 52.819706,204.16157 a 1.8381906,1.7610535 52.229438 0 1 -0.251398,2.52699 1.8381906,1.7610535 52.229438 0 1 -2.509714,-0.38753 1.8381906,1.7610535 52.229438 0 1 0.251389,-2.52698 1.8381906,1.7610535 52.229438 0 1 2.509723,0.38752 z"/>
          <path style="fill:#000000;stroke:none;" d="m 50.865931,204.57074 c -0.345134,0.26743 -0.482272,0.80331 -0.155409,1.22514 0.326869,0.42183 0.880002,0.42285 1.225145,0.15541 0.421827,-0.32686 0.558968,-0.86273 0.232106,-1.28456 -0.326876,-0.42183 -0.880008,-0.42285 -1.301842,-0.096 z"/>
          <path style="fill:#ffffff;stroke:none;" d="m 51.139195,204.05214 c -0.230071,0.17832 -0.281893,0.58667 -0.07389,0.8551 0.237664,0.30683 0.616385,0.32026 0.846479,0.14196 0.306821,-0.23766 0.388309,-0.60774 0.150592,-0.91454 -0.208014,-0.26843 -0.616386,-0.32024 -0.923178,-0.0825 z"/>
        </g>
      </g>
    </g>
    <g>
      <path style="fill:#050505;" d="m 505.8167,357.86534 c 12.03776,-10.66825 23.43218,-23.2011 31.86436,-38.14551 6.38693,-11.26527 10.73943,-24.31591 11.09075,-38.15799 0.18717,-12.40901 -3.12306,-24.68283 -9.27844,-35.41278 -6.76912,-11.69445 -16.18572,-21.36527 -26.67742,-29.15608 -12.48567,-9.3231 -26.37189,-16.39894 -40.75111,-21.9146 -16.98198,-6.53773 -34.69827,-11.05051 -52.72929,-14.11362 -43.69176,-7.41869 -88.91086,-6.81299 -134.22281,-0.70353 -8.11737,1.06247 -16.35859,3.08748 -24.27312,6.53105 -6.19132,2.71385 -12.02881,6.35065 -17.22629,10.85679 -4.42551,3.86901 -8.24486,8.19969 -11.56366,12.73518 -2.97185,4.05752 -5.50807,8.1079 -7.95866,11.94221 l -6e-5,9e-5 c -2.18977,3.36681 -4.15321,6.44285 -6.32391,8.81851 -1.89399,2.0119 -3.79167,3.67194 -5.69259,4.35439 -2.11743,1.018 -5.08619,1.09381 -8.30168,0.8227 -5.07548,-0.50779 -10.38466,-2.47926 -15.98209,-4.81611 l -6.07422,14.16443 c 0.0853,2.26247 3.09954,4.62514 6.58715,5.79252 3.50125,1.17195 7.10742,1.01083 8.07161,-0.8203 0.39097,1.70954 2.55408,3.1419 5.29522,3.82674 h 10e-6 c 4.56106,1.1636 9.55009,-0.38413 9.76315,-2.95739 1.17262,1.67253 4.41685,2.04318 7.68157,0.96344 v 0 c 4.02608,-1.51181 6.83313,-4.86554 5.9143,-6.99107 1.61122,0.81141 4.19628,-0.0958 6.39958,-2.16338 v 0 c 2.98987,-3.03887 4.73064,-7.92602 3.96888,-9.12728 1.0021,-0.0282 2.19762,-0.97983 3.34969,-2.47567 0.003,0.003 0.006,0.007 0.009,0.01 v 0 c 1.52554,-1.6907 3.24878,-3.87281 4.30414,-5.87969 1.06189,-2.01929 1.46844,-3.93108 0.5855,-5.04813 0.61033,0.0744 1.30116,-0.0804 2.04055,-0.38202 v 0 c 1.84604,-0.75312 3.91475,-2.59542 5.56777,-4.51241 1.64156,-1.9037 3.03857,-4.06439 3.25906,-5.71227 0.0681,-0.52179 0.024,-1.00732 -0.16806,-1.43258 1.72789,0.73423 4.50867,-0.217 7.04781,-1.53507 2.52565,-1.31108 5.177,-3.18094 6.26659,-4.89726 0.40549,-0.64227 0.61813,-1.28856 0.54233,-1.91188 1.66668,1.42622 5.46422,1.08692 8.74828,0.19561 3.32338,-0.90197 6.53725,-2.50134 6.74355,-4.52569 0.71012,0.96794 2.11718,1.53176 3.77982,1.79944 4.60251,0.75519 11.50605,-0.88794 11.96282,-3.832 2.41324,3.75017 15.03521,2.44346 15.77263,-1.51418 2.29933,3.82117 14.95198,2.9006 15.81603,-1.02222 2.17246,3.8902 14.83933,3.38907 15.83762,-0.49208 2.03275,3.95714 14.6972,3.90901 15.83746,0.0762 0.95125,2.03471 4.59698,3.12311 8.12907,3.26626 3.53272,0.14317 7.02828,-0.65624 7.68641,-2.58352 0.86892,2.069 4.46588,3.30155 7.98612,3.58898 3.5209,0.28749 7.04641,-0.36413 7.78562,-2.26154 0.78034,2.10281 4.321,3.48724 7.82456,3.9275 3.50419,0.44034 7.05732,-0.0535 7.88164,-1.91719 0.59406,1.85103 3.27773,3.25234 6.2398,3.98694 v 0 c 3.8771,0.96105 8.34273,0.81043 9.37747,-1.25376 0.5831,2.16846 3.98402,3.87902 7.4267,4.65783 3.44223,0.77872 7.03032,0.64984 8.04435,-1.11655 0.46063,2.19542 3.75631,4.09624 7.13718,5.08067 3.38068,0.98436 6.96722,1.08787 8.09404,-0.60644 0.38958,2.73156 5.14104,5.35239 9.16259,6.26604 2.48405,0.56854 4.77882,0.49449 5.7321,-0.73194 0.15295,2.23863 3.15062,4.58833 6.33762,6.06522 3.18383,1.47543 6.7097,2.15309 8.09698,0.67106 -0.0485,2.23692 2.71265,4.85111 5.70678,6.63871 2.99169,1.78615 6.41034,2.86536 7.96015,1.5614 -0.21942,1.57052 0.93277,3.48115 2.56778,5.22268 2.95109,3.16528 7.77717,6.09344 9.96419,4.73219 -0.61844,2.15071 1.35444,5.41441 3.65056,7.97401 2.28842,2.55101 5.15012,4.69673 7.02927,4.01089 -0.86041,1.64437 -0.14195,4.39781 1.00526,6.98676 v 1e-5 c 1.60503,3.56871 4.27508,7.44014 6.57732,7.25873 -1.50777,1.61431 -1.31991,5.4313 -0.65982,8.73579 0.66021,3.30504 1.90202,6.66529 3.84033,7.11821 -0.90558,0.51121 -1.58485,1.56791 -2.10715,2.85477 -0.81218,2.08049 -1.30714,5.10793 -1.36707,7.55801 -0.0615,2.51597 0.31943,4.82562 1.67406,5.62232 -2.14754,0.45425 -4.1695,3.68608 -5.43017,6.8793 -1.2714,3.22038 -1.89825,6.76648 -0.39948,8.14023 -1.10118,-0.008 -2.277,0.65418 -3.39391,1.6593 -3.37612,3.01999 -6.86842,9.60745 -5.03582,11.92303 -2.1908,-0.37246 -5.20608,1.94292 -7.44543,4.60772 -2.24784,2.6749 -3.8583,5.88493 -2.79562,7.62505 -4.67564,-0.33645 -1.29589,11.93184 -11.42536,11.10609 z"/>
      <path style="fill:none;" d="m 497.30452,348.32478 c 11.16669,-10.02256 21.75061,-21.49701 29.18018,-34.87091 5.44365,-9.82728 9.28422,-20.89419 9.43347,-32.13181 0.19508,-9.84372 -2.52827,-19.90763 -7.60189,-28.78563 -5.53513,-9.73934 -13.76158,-18.09678 -23.23564,-25.23503 -11.17163,-8.39043 -23.97835,-14.89778 -37.6631,-20.18982 -15.87062,-6.12507 -32.71624,-10.42852 -50.25691,-13.42497 -41.23127,-7.04537 -84.91042,-6.70629 -130.33593,-0.6344 -7.17861,0.97632 -14.27313,2.67257 -20.79894,5.5557 -5.03963,2.21589 -9.78838,5.1582 -13.95014,8.78113 -3.55312,3.0758 -6.72821,6.70414 -9.63428,10.6417 -2.59398,3.51674 -4.96541,7.32597 -7.48927,11.25817 l -1e-4,1.6e-4 c -2.18158,3.43065 -4.55934,7.05459 -7.56206,10.44816 -2.72237,3.10837 -6.17701,5.87978 -10.37238,7.67782 -4.85323,1.93875 -9.95961,2.32152 -14.71596,1.72286 -7.014,-0.84501 -13.52693,-3.12972 -19.60601,-5.781"/>
      <g>
        <path style="fill:#ffffff;stroke:#333333" d="m 136.06655,246.3816 c 0.75655,3.56263 2.0843,7.34823 6.68421,8.28716 -2.32499,-1.77628 -4.04159,-5.43249 -2.33384,-9.21284"/>
        <path style="fill:#ff0000;stroke:#990000;" d="m 136.22782,264.69154 c -2.98278,0.93947 -7.03801,0.21843 -9.66126,-1.67479 -1.34321,-1.42427 -1.6385,-3.41898 -1.40755,-5.22412 -1.58297,1.38706 -1.14157,4.12344 -0.60069,5.39533 -1.21435,0.51624 -2.90395,0.86929 -5.05626,0.3329 1.17068,2.09842 4.8772,1.75483 6.28272,1.09307 3.13669,2.142 7.43937,2.9377 10.98895,1.81969 6.76825,-2.13177 12.38886,-9.09707 23.38313,-9.61407 2.58808,-0.12163 5.44568,0.37929 8.24257,0.57623 1.21668,0.0868 1.34491,-1.73902 0.12801,-1.82306 -2.65982,-0.18731 -3.07133,-1.77787 -12.87964,-0.36807 -7.23462,1.03986 -13.52977,7.63166 -19.41999,9.48689 z"/>
        <path style="fill:#050505;" d="m 195.39355,244.59064 c -10.75031,3.37259 -5.35501,8.95966 -20.09286,12.51972 -8.27663,1.99929 -14.58266,7.97484 -18.73198,11.50027 -1.05689,0.89797 -5.90432,1.72594 -3.45859,-0.69116 3.52169,-3.4805 7.11622,-7.33011 9.93923,-10.97117 0.87682,-1.13089 -1.30295,-10.95321 -3.12334,-11.50753 -3.50507,-1.06731 -8.17515,-0.16563 -12.10535,0.77444 -1.38096,0.3303 -3.19632,0.24964 -8.16279,1.32958 -2.51103,0.54604 -3.42584,0.89499 -4.83921,0.50455 -0.52356,-0.14459 -2.33891,-0.67751 -2.882,-1.56097 -1.12896,-1.83653 -2.99487,-4.8232 -2.90573,-5.85712 0.16701,-1.93806 0.98084,-2.46015 2.77157,-3.21994 3.41358,-1.44834 6.00577,-1.37686 9.65982,-2.81234 4.66502,-1.83265 7.81253,-4.0497 10.5565,-6.35836 1.10447,-0.92927 2.72658,-1.10688 4.983,-1.895 1.06406,-0.37164 2.48524,-0.70121 3.5631,-0.53881 1.35983,0.20489 1.73677,0.6546 4.61895,0.76269 8.17606,0.30668 8.27591,-2.88426 16.22198,1.34505 6.89097,3.66771 13.90449,6.46852 18.13996,7.68286"/>
        <path style="fill:#888888;stroke:none;" d="m 134.80444,241.58278 c 0.78564,-0.23974 1.39598,-0.66935 2.26695,-0.48085 1.20959,0.26177 1.25174,-1.61228 0.0469,-1.56862 -0.7058,0.0255 -1.63747,0.3347 -2.36736,0.47965 -0.72989,0.14493 -0.91376,1.86499 0.0535,1.56982 z"/>
        <g>
          <path style="fill:#ffffff;stroke:none;" d="m 160.32355,230.6775 c 0.6872,1.1246 0.29491,3.94487 -1.58799,5.15836 -1.91262,1.17513 -4.66386,0.23829 -5.38947,-0.85656 -0.67865,-1.1926 1.03743,-1.90858 2.95005,-3.08372 1.94235,-1.13675 3.31044,-2.38099 4.02741,-1.21808 z"/>
          <path style="fill:#333333;stroke:none;" d="m 157.9431,233.079 a 1.8381906,1.7610535 52.229438 0 1 -0.2514,2.52699 1.8381906,1.7610535 52.229438 0 1 -2.50972,-0.38753 1.8381906,1.7610535 52.229438 0 1 0.25139,-2.52698 1.8381906,1.7610535 52.229438 0 1 2.50973,0.38752 z"/>
          <path style="fill:#000000;stroke:none;" d="m 155.98932,233.48817 c -0.34513,0.26743 -0.48227,0.80331 -0.15541,1.22514 0.32687,0.42183 0.88,0.42285 1.22515,0.15541 0.42182,-0.32686 0.55896,-0.86273 0.2321,-1.28456 -0.32687,-0.42183 -0.88001,-0.42285 -1.30184,-0.096 z"/>
          <path style="fill:#ffffff;stroke:none;" d="m 156.26259,232.96957 c -0.23008,0.17832 -0.2819,0.58667 -0.0739,0.8551 0.23767,0.30683 0.61639,0.32026 0.84648,0.14196 0.30682,-0.23766 0.38831,-0.60774 0.15059,-0.91454 -0.20801,-0.26843 -0.61638,-0.32024 -0.92318,-0.0825 z"/>
        </g>
      </g>
    </g>
  </g>
  <g>
    <g>
      <path style="fill:#050505;" d="m 458.29408,250.25524 c -6.10252,-0.007 -11.94563,-0.45767 -16.94363,-2.28888 -3.34602,-1.11458 -6.66374,-3.13221 -10.03056,-5.54005 -3.24654,-2.3882 -6.9115,-5.3181 -11.46142,-7.9651 -5.71917,-3.21865 -11.91228,-5.20899 -18.15534,-6.10465 l -10e-5,-1e-5 c -6.96776,-1.02509 -14.10348,-1.32564 -21.25216,-0.78566 -5.75342,0.45366 -11.07362,1.34496 -16.03432,1.92085 l -9e-5,1e-5 c -5.42191,0.61977 -10.82341,0.81731 -16.08609,0.3644 -7.82513,-0.62781 -15.75801,-2.50524 -23.7984,-4.89474 l -4.42776,14.7623 c 0.38344,2.23746 3.71856,4.24846 7.31592,5.13473 3.60318,0.8877 7.2618,0.59376 8.16937,-1.25532 0.82267,2.92761 6.71097,4.75723 11.2302,4.28884 2.3176,-0.25123 4.1169,-1.09237 4.53328,-2.43032 0.81124,1.78765 3.72707,2.81476 6.93949,2.91476 3.21609,0.10013 6.50685,-0.73493 8.05264,-2.19257 v 0 c -2e-5,-1.7e-4 -0.009,-0.0741 -0.009,-0.0743 v 0 0 c 0.42696,-0.42716 0.69917,-0.90153 0.77488,-1.41393 1.03693,1.56512 3.82804,2.14274 6.80387,2.02788 2.92071,-0.11273 6.08218,-0.88711 7.83959,-2.05232 0.77248,-0.51588 1.31238,-1.12479 1.47265,-1.83278 1.08658,1.85782 4.66155,2.75034 8.05579,2.972 3.40615,0.22246 6.98203,-0.21201 8.12351,-1.82444 0.007,-0.0413 0.0282,-0.18213 0.0346,-0.22334 v 0 c 0.0252,-0.0455 0.0487,-0.0921 0.0703,-0.13943 0.93461,2.72375 7.78374,5.45574 11.52249,6.32495 1.65386,0.34452 3.1231,0.39514 4.01407,-0.34082 -0.26838,2.21204 2.28189,5.56284 5.42416,7.70338 2.96363,2.07509 6.29226,2.86823 7.67801,1.45826 -0.14034,2.47264 3.20382,5.34454 7.11456,6.573 3.358,0.9801 6.59159,0.65456 7.46977,-1.0379 0.55277,2.21646 4.09537,3.85014 7.87897,4.14757 3.76682,0.2961 7.30272,-0.75866 7.80814,-2.75503 z"/>
      <path style="fill:none;" d="m 458.41237,263.16206 c -6.93509,0.1005 -14.24725,-0.58162 -21.32832,-3.01498 -4.92917,-1.75464 -9.35887,-4.35046 -13.36397,-7.29045 -3.61148,-2.61693 -6.89403,-5.30107 -10.25169,-7.18419 l -1.2e-4,-7e-5 c -4.08645,-2.3488 -8.76979,-3.82357 -13.64164,-4.54969 -6.0609,-0.88819 -12.24624,-1.16059 -18.39458,-0.68719 -4.95894,0.37158 -10.10829,1.24551 -15.53481,1.87202 -6.09049,0.7084 -12.3469,0.92378 -18.64322,0.40388 -9.03974,-0.7706 -17.83898,-2.80244 -26.43107,-5.39497"/>
      <g>
        <path style="fill:#ffffff;stroke:#333333" d="m 275.97317,239.74231 c 0.75655,3.56263 2.0843,7.34823 6.68421,8.28716 -2.32499,-1.77628 -4.04159,-5.43249 -2.33384,-9.21284"/>
        <path style="fill:#ff0000;stroke:#990000;" d="m 276.13444,258.05225 c -2.98278,0.93947 -7.03801,0.21843 -9.66126,-1.67479 -1.34321,-1.42427 -1.6385,-3.41898 -1.40755,-5.22412 -1.58297,1.38706 -1.14157,4.12344 -0.60069,5.39533 -1.21435,0.51624 -2.90395,0.86929 -5.05626,0.3329 1.17068,2.09842 4.8772,1.75483 6.28272,1.09307 3.13669,2.142 7.43937,2.9377 10.98895,1.81969 6.76825,-2.13177 12.38886,-9.09707 23.38313,-9.61407 2.58808,-0.12163 5.44568,0.37929 8.24257,0.57623 1.21668,0.0868 1.34491,-1.73902 0.12801,-1.82306 -2.65982,-0.18731 -3.07133,-1.77787 -12.87964,-0.36807 -7.23462,1.03986 -13.52977,7.63166 -19.41999,9.48689 z"/>
        <path style="fill:#050505;" d="m 335.30017,237.95135 c -10.75031,3.37259 -5.35501,8.95966 -20.09286,12.51972 -8.27663,1.99929 -14.58266,7.97484 -18.73198,11.50027 -1.05689,0.89797 -5.90432,1.72594 -3.45859,-0.69116 3.52169,-3.4805 7.11622,-7.33011 9.93923,-10.97117 0.87682,-1.13089 -1.30295,-10.95321 -3.12334,-11.50753 -3.50507,-1.06731 -8.17515,-0.16563 -12.10535,0.77444 -1.38096,0.3303 -3.19632,0.24964 -8.16279,1.32958 -2.51103,0.54604 -3.42584,0.89499 -4.83921,0.50455 -0.52356,-0.14459 -2.33891,-0.67751 -2.882,-1.56097 -1.12896,-1.83653 -2.99487,-4.8232 -2.90573,-5.85712 0.16701,-1.93806 0.98084,-2.46015 2.77157,-3.21994 3.41358,-1.44834 6.00577,-1.37686 9.65982,-2.81234 4.66502,-1.83265 7.81253,-4.0497 10.5565,-6.35836 1.10447,-0.92927 2.72658,-1.10688 4.983,-1.895 1.06406,-0.37164 2.48524,-0.70121 3.5631,-0.53881 1.35983,0.20489 1.73677,0.6546 4.61895,0.76269 8.17606,0.30668 8.27591,-2.88426 16.22198,1.34505 6.89097,3.66771 14.78117,6.70411 20.11558,7.72638"/>
        <path style="fill:#888888;stroke:none;" d="m 274.71106,234.94349 c 0.78564,-0.23974 1.39598,-0.66935 2.26695,-0.48085 1.20959,0.26177 1.25174,-1.61228 0.0469,-1.56862 -0.7058,0.0255 -1.63747,0.3347 -2.36736,0.47965 -0.72989,0.14493 -0.91376,1.86499 0.0535,1.56982 z"/>
        <g>
          <path style="fill:#ffffff;stroke:none;" d="m 300.23017,224.03821 c 0.6872,1.1246 0.29491,3.94487 -1.58799,5.15836 -1.91262,1.17513 -4.66386,0.23829 -5.38947,-0.85656 -0.67865,-1.1926 1.03743,-1.90858 2.95005,-3.08372 1.94235,-1.13675 3.31044,-2.38099 4.02741,-1.21808 z"/>
          <path style="fill:#333333;stroke:none;" d="m 297.84972,226.43971 a 1.8381906,1.7610535 52.229438 0 1 -0.2514,2.52699 1.8381906,1.7610535 52.229438 0 1 -2.50972,-0.38753 1.8381906,1.7610535 52.229438 0 1 0.25139,-2.52698 1.8381906,1.7610535 52.229438 0 1 2.50973,0.38752 z"/>
          <path style="fill:#000000;stroke:none;" d="m 295.89594,226.84888 c -0.34513,0.26743 -0.48227,0.80331 -0.15541,1.22514 0.32687,0.42183 0.88,0.42285 1.22515,0.15541 0.42182,-0.32686 0.55896,-0.86273 0.2321,-1.28456 -0.32687,-0.42183 -0.88001,-0.42285 -1.30184,-0.096 z"/>
          <path style="fill:#ffffff;stroke:none;" d="m 296.16921,226.33028 c -0.23008,0.17832 -0.2819,0.58667 -0.0739,0.8551 0.23767,0.30683 0.61639,0.32026 0.84648,0.14196 0.30682,-0.23766 0.38831,-0.60774 0.15059,-0.91454 -0.20801,-0.26843 -0.61638,-0.32024 -0.92318,-0.0825 z"/>
        </g>
      </g>
    </g>
    <g>
      <path style="fill:#050505;" d="m 258.36843,290.04692 c 3.05224,0.97389 6.07725,1.58136 8.9302,1.55897 2.46601,0.0206 5.01978,-0.41701 7.51892,-1.18994 5.36442,-1.55673 10.80663,-5.13431 16.95161,-8.77493 7.27941,-4.45536 15.06749,-8.81944 23.79286,-11.97708 11.4322,-4.03035 23.4354,-5.51053 35.11655,-4.99329 11.00673,0.43735 21.63245,0.59018 31.78236,-0.81185 5.82806,-0.7635 11.72054,-2.34723 17.66709,-4.24904 6.67467,-2.16034 13.58921,-4.25458 20.90606,-5.70522 12.50663,-2.42419 24.99151,-3.28848 37.06143,-3.66964 l 0.50138,15.45133 c -5.54885,-7.65059 -13.57415,5.07136 -16.46614,0.91743 -0.39384,2.00738 -3.87296,3.32427 -7.49248,3.7911 -3.60473,0.46493 -7.53533,0.11796 -8.90899,-1.65779 -0.0759,0.7646 -0.59372,1.47326 -1.38984,2.10575 -1.69266,1.3348 -4.77409,2.4307 -7.64113,2.90956 -2.90321,0.4849 -5.74762,0.36177 -7.04501,-0.95719 0.0366,1.50845 -1.65368,3.01773 -3.94635,4.16163 -4.02428,2.02111 -9.8204,2.65288 -11.70163,0.41336 -0.10497,2.4397 -4.64795,4.46405 -9.09727,4.66739 v 0 0 c 0,-0.003 -9.7e-4,-0.006 -0.002,-0.009 v 0 c -3.03423,0.10256 -5.80872,-0.61123 -6.78489,-2.18416 -0.38369,2.02425 -3.88342,3.29863 -7.64277,3.44301 -3.75261,0.14412 -7.5872,-0.84202 -8.61454,-2.87866 -0.78465,2.74743 -7.29589,3.49302 -11.94961,2.26003 -2.06668,-0.54193 -3.81498,-1.40223 -4.48202,-2.65815 -0.54823,1.95782 -4.11317,3.04534 -7.68184,3.4269 -3.54739,0.37929 -7.4883,0.11217 -8.91509,-1.58616 -0.13749,2.08674 -3.62052,3.96877 -7.1064,5.15896 v 0 c 9.7e-4,-9.7e-4 9.7e-4,-0.002 0.002,-0.003 -3.23333,1.0393 -6.83997,1.62629 -8.57169,0.34947 0.3096,1.74686 -1.76516,3.89611 -4.38863,5.61242 -2.6413,1.728 -5.96709,3.08933 -8.33592,2.96021 -0.65523,-0.0292 -1.23604,-0.178 -1.70724,-0.4679 0.54927,1.97308 -1.97399,4.74934 -5.26906,6.59245 -3.33083,1.86312 -7.20444,2.61191 -8.95927,1.13126 0.2161,1.60795 -1.56151,3.43257 -4.20864,4.66332 -4.23712,1.89834 -9.71986,1.62181 -11.10523,-0.87856 -0.18176,0.81493 -0.87443,1.49531 -1.93121,1.98014 -2.10896,0.94816 -5.37089,1.00365 -8.3079,0.11353 -2.91077,-0.88216 -5.11564,-2.57527 -5.36724,-4.36805 z"/>
      <path style="fill:none;" d="m 458.51703,263.13551 c -11.6575,0.39648 -23.5148,1.17729 -35.01,3.43793 -6.43709,1.24897 -12.8363,3.20727 -19.42694,5.32384 -6.34145,2.04914 -12.98353,3.80726 -19.89713,4.75262 -11.35211,1.51483 -22.69543,1.40753 -34.05169,0.91354 -10.1905,-0.4172 -20.58629,0.79881 -30.24562,4.25672 -7.32266,2.57764 -14.29518,6.5464 -21.4263,10.85139 -5.88848,3.61903 -12.2928,7.63989 -19.78545,10.05454 -3.63621,1.14478 -7.48605,1.78164 -11.40804,1.77958 -4.4647,-0.0271 -8.8174,-0.8446 -12.91258,-2.1998"/>
      <g>
        <path style="fill:#ffffff;stroke:#333333" d="m 206.489,303.70087 c 0.75655,3.56263 2.0843,7.34823 6.68421,8.28716 -2.32499,-1.77628 -4.04159,-5.43249 -2.33384,-9.21284"/>
        <path style="fill:#ff0000;stroke:#990000;" d="m 206.65027,322.01081 c -2.98278,0.93947 -7.03801,0.21843 -9.66126,-1.67479 -1.34321,-1.42427 -1.6385,-3.41898 -1.40755,-5.22412 -1.58297,1.38706 -1.14157,4.12344 -0.60069,5.39533 -1.21435,0.51624 -2.90395,0.86929 -5.05626,0.3329 1.17068,2.09842 4.8772,1.75483 6.28272,1.09307 3.13669,2.142 7.43937,2.9377 10.98895,1.81969 6.76825,-2.13177 12.38886,-9.09707 23.38313,-9.61407 2.58808,-0.12163 5.44568,0.37929 8.24257,0.57623 1.21668,0.0868 1.34491,-1.73902 0.12801,-1.82306 -2.65982,-0.18731 -3.07133,-1.77787 -12.87964,-0.36807 -7.23462,1.03986 -13.52977,7.63166 -19.41999,9.48689 z"/>
        <path style="fill:#050505;" d="m 265.816,301.90991 c -10.75031,3.37259 -5.35501,8.95966 -20.09286,12.51972 -8.27663,1.99929 -14.58266,7.97484 -18.73198,11.50027 -1.05689,0.89797 -5.90432,1.72594 -3.45859,-0.69116 3.52169,-3.4805 7.11622,-7.33011 9.93923,-10.97117 0.87682,-1.13089 -1.30295,-10.95321 -3.12334,-11.50753 -3.50507,-1.06731 -8.17515,-0.16563 -12.10535,0.77444 -1.38096,0.3303 -3.19632,0.24964 -8.16279,1.32958 -2.51103,0.54604 -3.42584,0.89499 -4.83921,0.50455 -0.52356,-0.14459 -2.33891,-0.67751 -2.882,-1.56097 -1.12896,-1.83653 -2.99487,-4.8232 -2.90573,-5.85712 0.16701,-1.93806 0.98084,-2.46015 2.77157,-3.21994 3.41358,-1.44834 6.00577,-1.37686 9.65982,-2.81234 4.66502,-1.83265 7.81253,-4.0497 10.5565,-6.35836 1.10447,-0.92927 2.72658,-1.10688 4.983,-1.895 1.06406,-0.37164 2.48524,-0.70121 3.5631,-0.53881 1.35983,0.20489 1.73677,0.6546 4.61895,0.76269 8.17606,0.30668 8.27591,-2.88426 16.22198,1.34505 6.89097,3.66771 13.35071,6.27956 20.09758,5.91658"/>
        <path style="fill:#888888;stroke:none;" d="m 205.22689,298.90205 c 0.78564,-0.23974 1.39598,-0.66935 2.26695,-0.48085 1.20959,0.26177 1.25174,-1.61228 0.0469,-1.56862 -0.7058,0.0255 -1.63747,0.3347 -2.36736,0.47965 -0.72989,0.14493 -0.91376,1.86499 0.0535,1.56982 z"/>
        <g>
          <path style="fill:#ffffff;stroke:none;" d="m 230.746,287.99677 c 0.6872,1.1246 0.29491,3.94487 -1.58799,5.15836 -1.91262,1.17513 -4.66386,0.23829 -5.38947,-0.85656 -0.67865,-1.1926 1.03743,-1.90858 2.95005,-3.08372 1.94235,-1.13675 3.31044,-2.38099 4.02741,-1.21808 z"/>
          <path style="fill:#333333;stroke:none;" d="m 228.36555,290.39827 a 1.8381906,1.7610535 52.229438 0 1 -0.2514,2.52699 1.8381906,1.7610535 52.229438 0 1 -2.50972,-0.38753 1.8381906,1.7610535 52.229438 0 1 0.25139,-2.52698 1.8381906,1.7610535 52.229438 0 1 2.50973,0.38752 z"/>
          <path style="fill:#000000;stroke:none;" d="m 226.41177,290.80744 c -0.34513,0.26743 -0.48227,0.80331 -0.15541,1.22514 0.32687,0.42183 0.88,0.42285 1.22515,0.15541 0.42182,-0.32686 0.55896,-0.86273 0.2321,-1.28456 -0.32687,-0.42183 -0.88001,-0.42285 -1.30184,-0.096 z"/>
          <path style="fill:#ffffff;stroke:none;" d="m 226.68504,290.28884 c -0.23008,0.17832 -0.2819,0.58667 -0.0739,0.8551 0.23767,0.30683 0.61639,0.32026 0.84648,0.14196 0.30682,-0.23766 0.38831,-0.60774 0.15059,-0.91454 -0.20801,-0.26843 -0.61638,-0.32024 -0.92318,-0.0825 z"/>
        </g>
      </g>
    </g>
    <g>
      <path style="fill:#050505;" d="m 361.31031,317.85546 c 7.56027,1.8186 14.81865,3.15687 21.56918,2.61244 4.3523,-0.39235 8.41673,-1.34033 11.28925,-3.39034 2.55282,-1.585 4.73551,-4.30141 6.62845,-7.41282 2.0453,-3.41989 3.5946,-7.53987 5.21331,-11.97989 1.66758,-4.67925 3.2773,-9.64363 5.37377,-14.77744 2.05465,-5.11357 4.73566,-10.33298 8.47445,-15.2139 4.02064,-5.16621 9.19348,-9.39363 15.14109,-12.28302 7.61147,-3.56136 15.58535,-4.97924 23.09543,-5.14878 15.70962,-0.67721 32.24765,1.39002 47.15574,9.00407 11.11962,5.73033 20.33313,15.36476 24.89056,27.56957 4.18319,12.16345 3.43613,25.0439 -0.56539,36.27094 -4.87331,13.78655 -13.57002,25.45406 -23.69947,34.64822 -4.77816,4.2793 -9.94584,7.23423 -14.78448,9.51666 -6.6549,3.23209 -13.42521,5.78149 -20.06362,7.99356 -17.3553,5.79907 -34.98075,9.90614 -52.07534,13.37938 -19.9611,4.06704 -39.80696,7.28169 -59.24344,9.9178 -18.64594,2.53113 -36.97691,4.54811 -55.15244,5.91059 -14.92875,1.11858 -29.56203,2.88564 -43.85182,5.25491 -15.79565,2.63282 -30.84983,5.8513 -45.15962,10.55657 -6.45152,2.12569 -12.59332,4.47152 -18.29812,7.34324 -4.85093,2.48011 -9.24534,5.08549 -12.69718,8.28702 -2.71045,2.63002 -4.92775,5.24812 -5.61393,7.85955 l -1e-5,2e-5 c -0.38546,1.18234 -0.56788,2.45168 -0.53048,3.68178 0.0145,1.37223 0.36452,2.8838 0.90242,4.43321 0.5239,1.75074 2.00727,3.56242 3.80806,5.37293 2.31756,2.25037 5.3622,4.13772 8.68724,5.93747 9.02471,4.83336 19.44594,7.81366 29.81713,10.46496 13.29325,3.34318 26.90836,5.75767 39.98386,7.85781 14.50967,2.32581 29.58968,4.37409 43.31772,6.28057 10.55942,1.46327 20.62401,2.92769 30.74357,4.88621 8.84906,1.69282 17.51379,3.71891 25.99102,6.93202 3.51363,1.32704 7.02857,2.94048 10.4262,5.00624 2.91335,1.74246 5.75839,3.99117 8.25964,6.8614 2.29475,2.64745 4.01839,5.86283 4.95135,9.45613 0.91197,3.9216 0.80897,7.72325 0.013,11.12608 -0.85912,3.78056 -2.44578,7.18812 -4.49858,10.10292 -2.24611,3.17699 -4.86024,5.79778 -7.55192,7.95505 -6.57748,5.26482 -13.79889,8.80374 -20.39364,11.54213 -8.17138,3.44266 -16.49347,6.1792 -23.89903,8.53255 -8.89113,2.83327 -15.55924,4.80022 -23.23624,7.47225 -7.24657,2.59148 -13.18877,5.7579 -17.45485,10.21457 -3.58825,3.76652 -5.79489,8.11453 -5.98667,12.28641 v 2e-5 c -0.43675,5.0248 2.02363,10.0697 4.61801,13.63094 5.22184,7.11247 14.99516,13.01001 17.13961,13.72847 -0.76624,1.12354 -4.38156,1.34486 -7.88455,-0.082 -3.5057,-1.42803 -6.15521,-4.21481 -5.81825,-6.48059 -1.65485,1.47233 -5.4422,0.0595 -8.18715,-2.91674 -2.30154,-2.62803 -3.23941,-6.08757 -2.4228,-7.75481 -1.12867,0.35413 -2.56453,-0.75987 -3.55833,-2.8367 -1.02081,-2.13328 -1.39112,-4.84625 -1.16664,-7.29793 h 1e-5 c 0.003,-0.005 0.007,-0.01 0.0112,-0.0133 0.1494,-2.07434 0.84055,-3.51131 1.69264,-3.87593 -0.97016,-0.73751 -1.20745,-4.04263 0.0151,-7.36528 1.23684,-3.3615 3.71942,-5.88113 6.09566,-5.93388 0.29989,-0.008 0.58717,0.0258 0.85864,0.10384 -1.16675,-1.72396 0.44097,-4.9504 3.35398,-7.30117 2.90082,-2.34095 6.58412,-3.40044 8.45935,-2.09461 -0.5824,-2.18777 2.48997,-4.97351 6.28168,-6.29909 3.07869,-1.10994 6.36572,-1.32217 7.8682,0.0859 -0.20445,-2.04138 2.64669,-4.19556 5.97813,-5.432 3.32169,-1.2325 7.09506,-1.54833 8.71648,0.005 -0.068,-0.78826 0.32081,-1.58953 1.01366,-2.34766 2.87073,-3.14381 11.04073,-5.60034 13.70128,-3.22128 -0.30492,-2.58354 4.36647,-5.51923 8.5264,-6.6751 2.33484,-0.6656 4.61508,-0.75819 5.90259,0.20108 -0.3755,-1.83524 1.75833,-4.02608 4.30584,-5.78252 2.47539,-1.70671 5.68921,-3.264 7.8532,-3.24872 0.43776,0.004 0.85,0.0706 1.22198,0.21356 -0.85917,-1.72304 0.7489,-4.41259 2.20086,-6.96141 0.47501,-0.8302 2.57932,-4.32463 2.95001,-4.92792 0.65915,-1.13844 1.53329,-2.20202 2.40472,-2.68041 -0.97482,-0.30531 -1.64691,-1.26258 -2.49222,-2.2186 -1.00342,-1.30476 -1.44854,-1.69708 -2.77579,-3.19555 -1.33074,-1.48214 -3.15828,-3.09467 -4.19589,-4.69729 -0.57728,-0.87997 -0.95632,-1.75797 -0.9534,-2.59645 -1.27553,1.37092 -4.5773,1.01402 -7.63627,0.005 -3.39163,-1.11233 -6.92854,-3.11643 -7.40251,-5.39868 -1.00948,1.7488 -4.57492,1.91137 -7.98686,1.2154 -3.43383,-0.70044 -6.8558,-2.31085 -7.48166,-4.47236 -0.0642,0.13648 -0.14302,0.26504 -0.23538,0.38586 -2.36016,3.08745 -13.97115,1.26938 -15.31689,-2.79372 -1.43372,3.37383 -11.85477,2.468 -14.88879,-0.88451 -0.31453,-0.34748 -0.54982,-0.72153 -0.68766,-1.12015 -1.54281,3.78451 -14.0987,2.32627 -15.55817,-1.9399 -1.55906,3.7931 -14.11436,2.25293 -15.53548,-2.03733 -1.14099,2.70382 -7.89696,2.62007 -12.15255,0.74276 -1.68236,-0.74158 -2.96437,-1.75853 -3.34651,-2.97663 -1.66459,3.77993 -14.18804,1.83792 -15.43981,-2.54067 -0.87031,1.85117 -4.42272,2.23681 -7.91891,1.56279 -3.49979,-0.67469 -6.87175,-2.3992 -7.40865,-4.5909 -0.89609,1.73466 -4.18568,2.03947 -7.50452,1.33993 -3.64918,-0.7537 -7.22407,-2.70573 -7.65669,-5.03539 -1.04022,1.76849 -4.6253,1.82237 -8.05236,0.7301 -3.43895,-1.09606 -6.52753,-3.29094 -6.70974,-5.54837 -1.66326,2.27407 -7.59858,0.79792 -11.23336,-2.14814 -1.72926,-1.38974 -2.80086,-3.03592 -2.65934,-4.48571 -1.93019,1.87091 -7.0412,-0.31083 -9.96001,-3.95947 h -1e-5 c -1.67034,-2.04419 -2.29729,-4.2859 -1.55422,-5.72762 -2.19067,0.9422 -5.60711,-2.06698 -6.9216,-6.27328 v 0 c -0.95047,-3.17369 -0.47565,-6.22208 1.17516,-7.28557 -1.07962,-0.12513 -2.00576,-1.10992 -2.57489,-2.65878 -0.91001,-2.83718 0.16029,-6.52621 1.67576,-9.33061 v 0 c 0.006,-0.002 0.0114,-0.004 0.0172,-0.005 0.73778,-1.49641 1.63669,-2.42922 2.43586,-2.57596 -0.69345,-0.88029 -0.12035,-3.92397 1.58452,-6.79308 1.73943,-2.9273 4.3797,-5.1057 6.7793,-5.10765 0.46039,-0.007 0.88716,0.0685 1.26808,0.23302 -0.918,-1.85996 1.05885,-4.86385 4.07836,-6.96571 3.00986,-2.09515 6.69908,-3.0482 8.54387,-1.72483 -0.27574,-1.12843 0.42107,-2.42893 1.70503,-3.62146 3.28227,-3.08234 9.93577,-5.0909 12.35941,-2.85623 -0.27957,-2.48439 3.94398,-5.11583 8.14256,-5.98437 v 0 c 2.73184,-0.5666 5.3606,-0.38103 6.57365,0.92475 -0.0666,-2.04841 2.92874,-3.99792 6.37363,-4.94988 3.44381,-0.95165 7.23116,-0.87729 8.67025,0.85916 0.0507,-2.04793 3.15102,-3.8261 6.6357,-4.59847 3.4833,-0.77206 7.26459,-0.52024 8.62439,1.27863 0.20231,-2.87585 6.35179,-4.90601 10.96889,-4.55565 1.97579,0.14825 3.6484,0.72957 4.42697,1.83504 0.43327,-4.13141 12.97221,-6.03398 15.47504,-2.2339 0.56175,-4.11493 13.15331,-5.62654 15.53778,-1.75144 0.42896,-2.55279 5.60032,-3.99019 9.96621,-3.67503 v 0 c 2.53336,0.18442 4.78648,0.92857 5.64102,2.35229 0.7265,-3.97817 13.27135,-5.25158 15.64189,-1.46508 0.65185,-3.99526 13.17505,-5.49297 15.61091,-1.74349 0.58492,-4.01043 13.08604,-5.70586 15.57875,-1.99025 0.11088,-0.84859 0.74729,-1.59783 1.70527,-2.21915 3.60328,-2.33803 11.82787,-2.90667 13.84271,0.003 0.46623,-4.02619 12.90991,-6.08845 15.51437,-2.45785 0.39926,-4.02908 12.80199,-6.30717 15.47118,-2.72797 0.27132,-3.36807 8.89704,-5.65938 13.33405,-4.31153 0.89398,0.27112 1.62255,0.69169 2.0836,1.28504 0.24472,-4.04009 12.5471,-6.79838 15.3619,-3.35186 0.14897,-4.02143 12.34632,-7.13387 15.26806,-3.81554 9.7e-4,-2.03864 3.03659,-3.91228 6.40072,-4.91399 3.35999,-1.00047 7.13913,-1.16037 8.70166,0.44496 -0.0529,-1.08903 0.76229,-2.17139 2.02908,-3.1226 v 0 c 3.42665,-2.57714 10.40497,-4.36186 12.83074,-2.26969 -0.24452,-1.84956 2.05101,-3.89315 4.79228,-5.41733 3.19101,-1.84237 7.42915,-2.95963 9.41153,-1.90689 -0.41281,-1.20873 0.30399,-2.72402 1.26108,-4.30431 2.25507,-3.50237 7.25193,-7.68457 10.16743,-7.0312 -1.17799,-1.65362 0.17992,-4.95316 2.04745,-7.79842 1.85051,-2.81935 4.43765,-5.57944 6.62451,-5.62878 -1.352,-1.17218 -1.09405,-4.07202 -0.35282,-6.93541 0.89259,-3.54997 2.74688,-7.70934 5.02691,-8.49229 -1.86334,-0.81015 -2.49257,-4.35272 -2.72195,-7.61534 -0.22271,-3.16775 -0.17494,-6.97926 1.2744,-8.49436 -0.31728,0.0159 -0.63724,-0.0413 -0.95681,-0.1556 -1.7181,-0.64597 -3.77516,-3.40223 -5.35657,-5.85166 -1.62581,-2.51818 -3.21821,-5.48724 -2.68484,-7.47552 -2.0335,1.29628 -6.77733,-1.13919 -10.00024,-3.57539 v 0 c -1.97099,-1.49843 -3.64343,-3.22102 -3.78507,-4.87364 -1.20297,1.5713 -4.73062,1.32644 -7.98108,0.5037 -3.26791,-0.82717 -6.72759,-2.37194 -7.45796,-4.48766 -0.78126,1.85295 -4.30492,2.46361 -7.77201,2.27957 -3.48602,-0.18504 -7.16407,-1.19751 -8.19568,-3.20398 -0.27141,1.06254 -1.3809,1.85419 -2.87278,2.3817 v 0 c -2.01697,0.77577 -4.80504,1.14779 -7.22063,1.15558 -2.38788,0.008 -4.72218,-0.32584 -5.84761,-1.46068 0.0369,1.34496 -1.23098,2.67801 -2.76389,3.96378 -1.44847,1.14616 -3.73713,2.69198 -5.44683,3.67362 -1.84866,1.06142 -3.75183,1.91394 -5.21581,1.61868 0.11443,0.16117 0.20519,0.33818 0.27507,0.52815 0.50652,1.39474 -0.1151,3.64478 -1.03575,5.82627 -0.93414,2.21348 -2.32607,4.67035 -3.87114,6.2203 -0.91386,0.92684 -1.88968,1.5582 -2.86883,1.64949 1.20804,0.89188 1.39064,3.07561 0.95954,5.4739 -0.43383,2.41348 -1.50268,5.1015 -2.92515,6.97894 -0.99264,1.32965 -2.14789,2.22038 -3.31641,2.3233 1.27584,0.91964 1.41724,3.25294 0.6975,5.8012 -0.72707,2.57419 -2.28741,5.19782 -4.14762,6.73932 -1.09561,0.91834 -2.24283,1.37506 -3.25754,1.22204 1.2511,1.41179 0.41805,4.42161 -1.79856,7.02571 -2.22821,2.61773 -5.44291,4.31513 -7.70679,3.94099 -0.40655,-0.0741 -0.77277,-0.2116 -1.08987,-0.41474 0.6281,1.96759 -1.8529,4.58857 -5.39713,5.9235 -3.54383,1.3348 -7.38415,1.08628 -8.6824,-0.80125 -0.12964,1.3836 -1.67835,2.53964 -3.91531,3.10521 -4.361,1.13422 -10.27976,-0.0565 -11.32493,-2.92445 -0.72447,1.93163 -4.25561,2.55507 -7.84467,1.91236 -3.57936,-0.64098 -6.90621,-2.48331 -7.35134,-4.69872"/>
      <path style="fill:none;" d="m 303.89177,628.26866 c -3.61187,-1.40676 -6.92497,-2.95947 -9.8833,-4.68965 -2.86806,-1.67738 -6.41682,-4.10662 -9.62745,-7.57891 -2.81074,-3.03671 -6.71705,-8.62615 -6.86797,-15.84714 -0.0553,-5.05203 1.85647,-10.9323 6.42172,-16.15276 4.53463,-5.19601 10.92291,-9.49058 19.3309,-12.78825 7.5446,-2.98941 13.86447,-5.12029 23.15462,-8.42195 6.84069,-2.43318 15.17002,-5.42639 22.96727,-8.96922 5.97427,-2.72902 12.58959,-6.06588 18.02382,-10.7043 2.13094,-1.81837 4.13732,-3.86762 5.68214,-6.19652 1.36662,-2.05657 2.4245,-4.37593 2.90468,-6.80831 0.43979,-2.26626 0.51776,-4.63017 -0.0737,-6.76006 -0.49757,-1.93118 -1.56899,-3.79335 -2.99662,-5.4296 -1.58855,-1.82702 -3.6565,-3.35744 -5.97697,-4.74631 -2.6892,-1.59607 -5.65109,-2.88286 -8.82473,-4.0442 -7.53922,-2.75449 -15.52599,-4.48509 -24.37862,-6.08322 -9.71086,-1.74359 -19.42462,-3.03268 -30.25347,-4.40711 -13.20601,-1.67458 -28.73053,-3.61522 -43.63357,-5.86086 -12.88575,-1.93982 -27.00066,-4.30892 -41.052,-7.72156 -10.4986,-2.53089 -21.91753,-5.75602 -32.55892,-11.26273 -3.9142,-2.01734 -7.85898,-4.50206 -11.37288,-7.75493 -2.86674,-2.62752 -5.40155,-5.96939 -6.93375,-10.00288 -0.9473,-2.54755 -1.55685,-5.30921 -1.66815,-8.19013 -0.0898,-2.62026 0.26804,-5.25842 1.07009,-7.7861 1.75033,-5.28008 5.06328,-9.69522 8.9516,-13.18592 4.63208,-4.22163 9.92102,-7.49186 15.41143,-10.25066 6.38414,-3.22869 13.06624,-5.83777 19.95813,-8.12053 14.93817,-4.95235 30.51167,-8.39394 46.97516,-11.16488 14.45254,-2.43839 29.4561,-4.30669 44.96486,-5.5014 17.62131,-1.35766 35.64723,-3.35847 54.38685,-5.92878 18.8741,-2.58991 38.51149,-5.77266 58.39979,-9.84575 16.56771,-3.39789 33.82388,-7.39188 50.55227,-13.01053 6.30115,-2.1195 12.57037,-4.46364 18.50485,-7.36722 4.34721,-2.16169 8.50764,-4.42928 11.71048,-7.43041 0,0 8e-5,-6e-5 8e-5,-6e-5 8.75796,-8.10639 16.35549,-18.02767 20.2251,-29.37463 3.0289,-8.93423 3.82122,-18.98411 0.60413,-27.69761 -2.99789,-8.63083 -10.12009,-15.91246 -18.7407,-20.49007 -11.83455,-6.31751 -26.13719,-7.93157 -40.73043,-7.53164 -6.30545,0.25152 -12.57193,1.24147 -17.91869,3.87626 -4.07157,1.95043 -7.72019,4.94212 -10.56282,8.58865 -2.75728,3.49602 -4.84992,7.69513 -6.71706,12.18419 -1.86066,4.51728 -3.38628,9.2598 -5.15994,14.21747 -1.64033,4.6394 -3.52698,9.48975 -6.22554,14.14886 -2.55265,4.43494 -6.06867,8.57275 -10.64688,11.65918 -5.3711,3.47492 -11.50989,5.13885 -17.52535,5.50135 -8.80491,0.56115 -17.38925,-0.88017 -25.58163,-2.96804"/>
      <g>
        <path style="fill:#ffffff;stroke:#333333" d="m 311.61238,332.6183 c 0.75655,3.56263 2.0843,7.34823 6.68421,8.28716 -2.32499,-1.77628 -4.04159,-5.43249 -2.33384,-9.21284"/>
        <path style="fill:#ff0000;stroke:#990000;" d="m 311.77365,350.92824 c -2.98278,0.93947 -7.03801,0.21843 -9.66126,-1.67479 -1.34321,-1.42427 -1.6385,-3.41898 -1.40755,-5.22412 -1.58297,1.38706 -1.14157,4.12344 -0.60069,5.39533 -1.21435,0.51624 -2.90395,0.86929 -5.05626,0.3329 1.17068,2.09842 4.8772,1.75483 6.28272,1.09307 3.13669,2.142 7.43937,2.9377 10.98895,1.81969 6.76825,-2.13177 12.38886,-9.09707 23.38313,-9.61407 2.58808,-0.12163 5.44568,0.37929 8.24257,0.57623 1.21668,0.0868 1.34491,-1.73902 0.12801,-1.82306 -2.65982,-0.18731 -3.07133,-1.77787 -12.87964,-0.36807 -7.23462,1.03986 -13.52977,7.63166 -19.41999,9.48689 z"/>
        <path style="fill:#050505;" d="m 370.93938,330.82734 c -10.75031,3.37259 -5.35501,8.95966 -20.09286,12.51972 -8.27663,1.99929 -14.58266,7.97484 -18.73198,11.50027 -1.05689,0.89797 -5.90432,1.72594 -3.45859,-0.69116 3.52169,-3.4805 7.11622,-7.33011 9.93923,-10.97117 0.87682,-1.13089 -1.30295,-10.95321 -3.12334,-11.50753 -3.50507,-1.06731 -8.17515,-0.16563 -12.10535,0.77444 -1.38096,0.3303 -3.19632,0.24964 -8.16279,1.32958 -2.51103,0.54604 -3.42584,0.89499 -4.83921,0.50455 -0.52356,-0.14459 -2.33891,-0.67751 -2.882,-1.56097 -1.12896,-1.83653 -2.99487,-4.8232 -2.90573,-5.85712 0.16701,-1.93806 0.98084,-2.46015 2.77157,-3.21994 3.41358,-1.44834 6.00577,-1.37686 9.65982,-2.81234 4.66502,-1.83265 7.81253,-4.0497 10.5565,-6.35836 1.10447,-0.92927 2.72658,-1.10688 4.983,-1.895 1.06406,-0.37164 2.48524,-0.70121 3.5631,-0.53881 1.35983,0.20489 1.73677,0.6546 4.61895,0.76269 8.17606,0.30668 8.27591,-2.88426 16.22198,1.34505 6.89097,3.66771 13.23773,5.56039 19.41524,6.31536"/>
        <path style="fill:#888888;stroke:none;" d="m 310.35027,327.81948 c 0.78564,-0.23974 1.39598,-0.66935 2.26695,-0.48085 1.20959,0.26177 1.25174,-1.61228 0.0469,-1.56862 -0.7058,0.0255 -1.63747,0.3347 -2.36736,0.47965 -0.72989,0.14493 -0.91376,1.86499 0.0535,1.56982 z"/>
        <g>
          <path style="fill:#ffffff;stroke:none;" d="m 335.86938,316.9142 c 0.6872,1.1246 0.29491,3.94487 -1.58799,5.15836 -1.91262,1.17513 -4.66386,0.23829 -5.38947,-0.85656 -0.67865,-1.1926 1.03743,-1.90858 2.95005,-3.08372 1.94235,-1.13675 3.31044,-2.38099 4.02741,-1.21808 z"/>
          <path style="fill:#333333;stroke:none;" d="m 333.48893,319.3157 a 1.8381906,1.7610535 52.229438 0 1 -0.2514,2.52699 1.8381906,1.7610535 52.229438 0 1 -2.50972,-0.38753 1.8381906,1.7610535 52.229438 0 1 0.25139,-2.52698 1.8381906,1.7610535 52.229438 0 1 2.50973,0.38752 z"/>
          <path style="fill:#000000;stroke:none;" d="m 331.53515,319.72487 c -0.34513,0.26743 -0.48227,0.80331 -0.15541,1.22514 0.32687,0.42183 0.88,0.42285 1.22515,0.15541 0.42182,-0.32686 0.55896,-0.86273 0.2321,-1.28456 -0.32687,-0.42183 -0.88001,-0.42285 -1.30184,-0.096 z"/>
          <path style="fill:#ffffff;stroke:none;" d="m 331.80842,319.20627 c -0.23008,0.17832 -0.2819,0.58667 -0.0739,0.8551 0.23767,0.30683 0.61639,0.32026 0.84648,0.14196 0.30682,-0.23766 0.38831,-0.60774 0.15059,-0.91454 -0.20801,-0.26843 -0.61638,-0.32024 -0.92318,-0.0825 z"/>
        </g>
      </g>
    </g>
  </g>
</g>
<use id="shine" xlink:href="#shield" fill="url(#rg)" stroke="#000" stroke-width="3"/>
</svg>
