<?xml version="1.0" encoding="UTF-8"?>
<svg xmlns="http://www.w3.org/2000/svg" xmlns:xlink="http://www.w3.org/1999/xlink" width="600" height="660">
<defs>
  <radialGradient id="rg" gradientUnits="userSpaceOnUse" cx="220" cy="220" r="405">
    <stop style="stop-color:#ffffff;stop-opacity:.3" offset="0"/>
    <stop style="stop-color:#ffffff;stop-opacity:.2" offset=".2"/>
    <stop style="stop-color:#666666;stop-opacity:.1" offset=".6"/>
    <stop style="stop-color:#000000;stop-opacity:.13" offset="1"/>
  </radialGradient>
  <path id="shield" d="m2,2v257c0,286 298,398 298,398c0,0 298-112 298-398V2z"/>
</defs>
<use id="bg" xlink:href="#shield" style="fill:#dd2200;"/>
<path id="pile" style="fill:#000000;" d="m 300,517 -298,-515 h 596 z" />
<path style="fill:#ee0000" d="m 246.3,115.2 c -1.7,-10.1 4.6,-14.3 -0.3,-24.06 4,1.46 7.4,4.09 9.3,6.65 2.6,-10.64 4.3,-21.89 3,-31.81 6,1.05 10.1,8.9 12.5,12.67 6.7,-15.08 8.4,-28.6 3.8,-36.69 6,0.48 12.6,6.18 15.1,23.76 11.2,-16.96 -6.5,-30.64 11.6,-42.36 -5.1,24.47 12.3,15.21 14.2,41.58 8,-5.91 6.6,-12.78 5.9,-18.47 8.2,3.58 15.3,16.74 19.2,35.67 3.6,-1.3 5.3,-6.68 6.6,-12.7 7.8,8.42 10.7,18.95 6.6,31.36 -2,3.5 -3.3,7.1 -2.7,11.2 3.3,-1.7 4.6,-5.3 6.4,-8.3 1.5,4.5 2.9,9.8 1.6,13.6 -3.9,22.5 -38.5,26.4 -60.1,26.1 -12.1,-0.1 -48.4,-5.1 -52.7,-28.2 z"/>
<path style="fill:#ffbb00" d="m 259.2,125.8 c -1,-6.5 4.2,-10.4 -4.7,-17.7 9.3,-1 17.4,7.8 18.6,9.4 1.7,-6.9 -11.4,-17 -7.6,-33.62 3.6,10.42 9.5,18.12 16.5,21.82 -8.6,-19.13 3.6,-25.23 -1.5,-37.93 9.1,5 3.4,21.92 14.6,28.62 9,-14.54 -5.5,-29.2 7.5,-41.8 -1.1,24.5 7.9,18.11 8,45.17 11.1,-6.94 12.1,-16.75 8.6,-27.42 11.2,13.5 9.9,25.45 7.4,37.26 4.9,-3.1 4,-13.79 15.8,-16.46 -10.7,14.76 -3.2,13.16 -8.2,29.86 2.2,-1 11.5,-8.4 10.5,-17.7 6.5,7.9 -3.8,24.1 -4.6,26.5 -2.6,14.7 -25.8,11.9 -39.7,11.6 -7.9,-0.1 -38.4,-2.6 -41.2,-17.6 z"/>
<g id="tower" style="stroke:#444400;stroke-width:1;stroke-linecap:round;stroke-linejoin:round;" transform="translate(300,240)scale(1.2)">
	<path style="fill:#ffff00;" d="m -37.6,-102.1 4.6,4 v 23.7 l -11.2,-6.2 z m 21.2,-5.2 3,4.5 v 23.7 l -9.5,-6.9 z m 54,5.2 -4.6,4 v 23.7 l 11.2,-6.2 z m -21.2,-5.2 -3,4.5 v 23.7 l 9.5,-6.9 z"/>
	<path style="fill:#ffff00;" d="m -5.3,-108.6 v 13 l -11.1,1.1 v -12.8 c -3.4,0.5 -6.7,1.3 -11,2.2 v 13.5 l -10.2,2.7 v -13.2 c -3.4,1.3 -7.3,2.7 -10.7,4.1 v 28.2 l 7.1,5.6 c 4.4,42.8 -2.1,84.6 -11.5,121.9 l -11.7,11.7 v 26.3 c 20.4,7.7 37.9,12 54.7,13.3 h 9.7 9.7 c 16.8,-1.3 34.3,-5.6 54.7,-13.3 v -26.3 l -11.7,-11.7 c -9.4,-37.3 -15.9,-79.1 -11.5,-121.9 l 7.1,-5.6 v -28.2 c -3.4,-1.4 -7.3,-2.8 -10.7,-4.1 v 13.2 l -10.2,-2.7 v -13.5 c -4.3,-0.9 -7.6,-1.7 -11,-2.2 v 12.8 l -11.1,-1.1 v -13 c -1.7,-0.2 -3.4,-0.5 -5.3,-0.5 -1.9,0 -3.6,0.3 -5.3,0.5 z"/>
	<path style="fill:none;" d="m 64.4,83.1 c -16.1,6.5 -44.4,13.9 -64.4,13.9 -20,0 -48.3,-7.4 -64.4,-13.9 m 22.1,-79.9 c 13.9,2.2 28.8,3.5 42.3,3.5 13.5,0 28.4,-1.3 42.3,-3.5 m -83.2,-13.5 c 13.5,1.1 28.2,1.6 40.9,1.6 12.7,0 27.4,-0.5 40.9,-1.6 m -81,-13.5 c 13.4,-0.1 26.8,-0.1 40.1,-0.1 13.3,0 26.7,0 40.1,0.1 m -79.9,-13.5 c 13.3,-1.4 26.6,-2.1 39.8,-2.1 13.2,0 26.5,0.7 39.8,2.1 m -80,-13.5 c 13.6,-2.7 26.9,-4 40.2,-3.9 v 0 c 13.3,-0.1 26.6,1.2 40.2,3.9 m -84.4,67.6 c 14.9,3.4 29.7,5.2 44.2,5.3 14.5,-0.1 29.3,-1.9 44.2,-5.3 m -90.8,13.6 c 15.7,4.7 31.2,7.1 46.6,7.2 15.4,-0.1 30.9,-2.5 46.6,-7.2 m -96,13.4 c 16.5,5.9 33.1,9.1 49.4,9.1 16.3,0 32.9,-3.2 49.4,-9.1 m -102.1,13.9 c 15.9,6 35.9,10.8 52.7,10.8 16.8,0 36.8,-4.8 52.7,-10.8 m -101,-127.5 c 0,0 9.7,-5.8 23.9,-8.3 10.2,-1.5 14.4,-2 24.4,-2.1 v 0 c 10,0.1 14.2,0.6 24.4,2.1 14.2,2.5 23.9,8.3 23.9,8.3 m -89.5,5.6 c 13.6,-4.3 28.3,-6.8 41.2,-6.8 v 0 c 12.9,0 27.6,2.5 41.2,6.8 m -105.6,133.6 c 16.1,6.5 44.4,14.3 64.4,14.3 20,0 48.3,-7.8 64.4,-14.3"/>
	<path style="fill:none;" d="m 0,-54.7 v 15.3 m 0,15.5 v 15.2 m 0,15.4 v 15.4 m 0,15.5 v 15.3 m 27.4,-105.9 0.2,14.5 m 0.9,14.6 0.8,14.4 m 0.8,14.5 1.1,14.3 m 1.2,14.8 1.6,14.4 m 3.8,14.2 7.9,13.1 v 13.6 m 10.5,-3.3 v 12.6 m -24.1,-5.8 v 12.7 m -16,-53.7 1.2,15.2 4.5,14.4 m -7.6,-60.1 0.8,15.4 m -2.6,-76 v 15.3 m 1.4,-46.2 -0.7,15.8 m -40.5,1.3 -0.2,14.5 m -0.9,14.6 -0.8,14.4 m -0.8,14.5 -1.1,14.3 m -1.2,14.8 -1.6,14.4 m -3.8,14.2 -7.9,13.1 v 13.6 m -10.5,-3.3 v 12.6 m 24.1,-5.8 v 12.7 m 16,-53.7 -1.2,15.2 -4.5,14.4 m 7.6,-60.1 -0.8,15.4 m 2.6,-76 v 15.3 m -1.4,-46.2 0.7,15.8"/>
	<path style="fill:none;" d="m 41,-65.9 c 0,0 3.7,-3.6 0.9,-5.1 -2.9,-1.6 -6.5,3.3 -6.5,3.3 m -1.6,-0.4 c 0,0 2.1,-5.3 -1.6,-6.1 -3.6,-0.8 -6.2,4.5 -6.2,4.5 m -1.2,-0.2 c 0,0 0.4,-5.6 -3.7,-6.4 -4.2,-0.7 -5,5 -5,5 m -1.3,-0.1 c 0,0 0.2,-5.7 -3.9,-6.2 -4.2,-0.4 -4.8,5.3 -4.8,5.3 m -1.2,0 c 0,0 -0.2,-5.7 -4.9,-5.7 -4.7,0 -4.9,5.7 -4.9,5.7 m -36.1,6.4 c 0,0 -3.7,-3.6 -0.9,-5.1 2.9,-1.6 6.5,3.3 6.5,3.3 m 1.6,-0.4 c 0,0 -2.1,-5.3 1.6,-6.1 3.6,-0.8 6.2,4.5 6.2,4.5 m 1.2,-0.2 c 0,0 -0.4,-5.6 3.7,-6.4 4.2,-0.7 5,5 5,5 m 1.3,-0.1 c 0,0 -0.2,-5.7 3.9,-6.2 4.2,-0.4 4.8,5.3 4.8,5.3"/>
	<path style="fill:#ffff00;" d="m 0,109 h 9.7 l 6.2,-0.4 c 0,0 0.5,-16.1 0.3,-29.3 -0.2,-13.2 -8,-17.2 -16.2,-17.2 -8.2,0 -16,4 -16.2,17.2 -0.2,13.2 0.3,29.3 0.3,29.3 l 6.2,0.4 h 9.7"/>
	<path style="fill:none;" d="m 0,62.1 v 5.9 m 8.6,6.4 6.1,-3.3 m -9.4,-1.4 3.4,-5.5 m 7.5,27.4 h -6.2 m 6.2,-6 h -6.2 m 6.2,-6 h -6.4 m 6.3,18 h -6.1 m 6,6.1 h -6.1 m -18.5,-29.3 -6.1,-3.3 m 9.4,-1.4 -3.4,-5.5 m -7.5,27.4 h 6.2 m -6.2,-6 h 6.2 m -6.2,-6 h 6.4 m -6.3,18 h 6.1 m -6,6.1 h 6.1"/>
	<path style="fill:#222200;" d="m 0,68 c -5.3,0 -9.8,3.5 -10,14.8 -0.1,11.4 0.2,26.2 0.2,26.2 h 19.6 c 0,0 0.3,-14.8 0.2,-26.2 -0.2,-11.3 -4.7,-14.8 -10,-14.8 z"/>
	<path style="fill:#222200;" d="m -18.8,-26.2 c -3.3,0.2 -6.3,2.8 -6.4,10.3 -0.1,7.9 0.1,23.5 0.1,23.5 l 13.9,0.9 c 0,0 0.2,-15.8 0,-24.2 -0.1,-8.4 -3.4,-10.3 -7,-10.5 -0.2,0 -0.4,0 -0.6,0 z m 37.6,0 c 3.3,0.2 6.3,2.8 6.4,10.3 0.1,7.9 -0.1,23.5 -0.1,23.5 l -13.9,0.9 c 0,0 -0.2,-15.8 0,-24.2 0.1,-8.4 3.4,-10.3 7,-10.5 0.2,0 0.4,0 0.6,0 z"/>
</g>
<path style="fill:#ee0000" d="m 280.8,364.4 c -0.6,-4 1.6,-5.6 -0.1,-9.4 1.4,0.5 2.6,1.5 3.2,2.5 0.9,-4.1 1.5,-8.5 1.1,-12.4 2.1,0.4 3.5,3.5 4.4,4.9 2.3,-5.9 2.9,-11.1 1.3,-14.3 2.1,0.2 4.4,2.4 5.3,9.3 3.9,-6.7 -2.3,-12 4.1,-16.6 -1.8,9.6 4.3,6 5,16.3 2.8,-2.3 2.3,-5 2,-7.3 2.9,1.5 5.4,6.6 6.8,14 1.2,-0.5 1.8,-2.6 2.3,-4.9 2.7,3.3 3.8,7.3 2.3,12.3 -0.7,1.3 -1.1,2.7 -0.9,4.3 1.1,-0.7 1.6,-2 2.2,-3.2 0.5,1.8 1,3.9 0.6,5.3 -1.4,8.8 -13.5,10.4 -21.1,10.3 -4.3,-0.1 -17,-2 -18.5,-11.1 z"/>
<path style="fill:#ffbb00" d="m 285.3,368.6 c -0.4,-2.6 1.5,-4.2 -1.7,-6.9 3.3,-0.5 6.2,3 6.6,3.6 0.6,-2.8 -4,-6.7 -2.7,-13.1 1.3,4 3.3,7 5.8,8.4 -3,-7.4 1.3,-9.8 -0.5,-14.8 3.2,2 1.2,8.6 5.1,11.3 3.2,-5.8 -1.9,-11.5 2.6,-16.4 -0.4,9.6 2.8,7 2.8,17.6 3.9,-2.7 4.3,-6.6 3.1,-10.7 3.9,5.2 3.4,9.9 2.6,14.6 1.7,-1.2 1.4,-5.5 5.5,-6.5 -3.7,5.8 -1.1,5.2 -2.9,11.8 0.8,-0.5 4.1,-3.4 3.7,-7 2.3,3.2 -1.3,9.4 -1.6,10.4 -0.9,5.8 -9.1,4.7 -13.9,4.6 -2.8,-0.1 -13.5,-1.1 -14.5,-6.9 z"/>
<path style="fill:#ee0000" d="m 268.1,242.6 c -0.2,-2.6 0.8,-3.7 0,-6.1 0.7,0.3 1.4,0.9 1.7,1.6 0.3,-2.6 0.7,-5.5 0.5,-8 1,0.3 1.7,2.3 2.2,3.2 1.1,-3.8 1.4,-7.1 0.6,-9.2 1.1,0.2 2.2,1.6 2.7,6 1.9,-4.3 -1.2,-7.7 2.1,-10.6 -1,6.1 2.1,3.8 2.5,10.4 1.4,-1.5 1.1,-3.2 0.9,-4.6 1.5,0.9 2.7,4.2 3.5,8.9 0.6,-0.3 0.9,-1.6 1.1,-3.2 1.4,2.2 1.9,4.7 1.2,7.9 -0.3,0.9 -0.6,1.8 -0.4,2.8 0.5,-0.4 0.8,-1.2 1.1,-2.1 0.2,1.2 0.5,2.6 0.3,3.4 -0.7,5.7 -6.8,6.7 -10.7,6.6 -2.2,0 -8.5,-1.2 -9.3,-7 z"/>
<path style="fill:#ffbb00" d="m 270.4,245.2 c -0.2,-1.7 0.7,-2.6 -0.9,-4.4 1.7,-0.3 3.2,1.9 3.3,2.3 0.4,-1.8 -1.9,-4.3 -1.3,-8.4 0.7,2.6 1.7,4.5 2.9,5.4 -1.5,-4.8 0.7,-6.3 -0.2,-9.5 1.6,1.3 0.6,5.5 2.5,7.2 1.6,-3.7 -0.9,-7.4 1.3,-10.4 -0.1,6.1 1.5,4.4 1.5,11.2 1.9,-1.7 2.1,-4.2 1.5,-6.8 2,3.3 1.7,6.3 1.3,9.3 0.8,-0.7 0.8,-3.5 2.8,-4.1 -1.9,3.7 -0.6,3.3 -1.4,7.5 0.3,-0.3 2,-2.2 1.8,-4.5 1.2,2.1 -0.7,6.1 -0.8,6.7 -0.4,3.7 -4.6,3 -7,2.9 -1.4,0 -6.8,-0.6 -7.3,-4.4 z"/>
<path style="fill:#ee0000" d="m 311.5,243.1 c -0.2,-2.6 0.8,-3.7 0,-6.1 0.7,0.3 1.4,0.9 1.7,1.6 0.3,-2.6 0.7,-5.5 0.5,-8 1,0.3 1.7,2.3 2.2,3.2 1.1,-3.8 1.4,-7.1 0.6,-9.2 1.1,0.2 2.2,1.6 2.7,6 1.9,-4.3 -1.2,-7.7 2.1,-10.6 -1,6.1 2.1,3.8 2.5,10.4 1.4,-1.5 1.1,-3.2 0.9,-4.6 1.5,0.9 2.7,4.2 3.5,8.9 0.6,-0.3 0.9,-1.6 1.1,-3.2 1.4,2.2 1.9,4.7 1.2,7.9 -0.3,0.9 -0.6,1.8 -0.4,2.8 0.5,-0.4 0.8,-1.2 1.1,-2.1 0.2,1.2 0.8,2.1 0.6,2.9 -0.4,2.9 -2.1,4.6 -4.2,5.5 -2.1,1 -4.6,1.2 -6.5,1.1 -2.2,0 -8.8,-0.7 -9.6,-6.5 z"/>
<path style="fill:#ffbb00" d="m 313.8,245.7 c -0.2,-1.7 0.7,-2.6 -0.9,-4.4 1.7,-0.3 3.2,1.9 3.3,2.3 0.4,-1.8 -1.9,-4.3 -1.3,-8.4 0.7,2.6 1.7,4.5 2.9,5.4 -1.5,-4.8 0.7,-6.3 -0.2,-9.5 1.6,1.3 0.6,5.5 2.5,7.2 1.6,-3.7 -0.9,-7.4 1.3,-10.4 -0.1,6.1 1.5,4.4 1.5,11.2 1.9,-1.7 2.1,-4.2 1.5,-6.8 2,3.3 1.7,6.3 1.3,9.3 0.8,-0.7 0.8,-3.5 2.8,-4.1 -1.9,3.7 -0.6,3.3 -1.4,7.5 0.3,-0.3 2,-2.2 1.8,-4.5 1.2,2.1 -0.7,6.1 -0.8,6.7 -1.5,2.5 -5.2,2.4 -7.6,2.3 -1.4,0 -6.2,0 -6.7,-3.8 z"/>
<use id="shine" xlink:href="#shield" style="fill:url(#rg);stroke:#000000;stroke-width:3;"/>
</svg>
