<?xml version="1.0" encoding="UTF-8"?>
<svg xmlns="http://www.w3.org/2000/svg" xmlns:xlink="http://www.w3.org/1999/xlink" width="600" height="660">
<defs>
  <radialGradient id="rg" gradientUnits="userSpaceOnUse" cx="220" cy="220" r="405">
    <stop style="stop-color:#ffffff;stop-opacity:.3" offset="0"/>
    <stop style="stop-color:#ffffff;stop-opacity:.2" offset=".2"/>
    <stop style="stop-color:#666666;stop-opacity:.1" offset=".6"/>
    <stop style="stop-color:#000000;stop-opacity:.13" offset="1"/>
  </radialGradient>
  <pattern id="ermine" patternUnits="userSpaceOnUse" x="0" y="0" width="133.3" height="188.6">
    <rect width="133.3" height="188.6" style="fill:#ffffff;"/>
    <path transform="translate(33.3,47.15)scale(0.9)" id="ermine-unit" d="m 0.40009,-18.332585 c -4.60101,20.84701 -13.10288,35.56792 -22.40493,46.1743 3.90086,-1.09721 8.20181,-4.02311 12.40273,-6.6747 -2.60057,5.48605 -5.20114,10.1492 -7.70169,14.99522 1.50033,-0.54861 6.4014,-5.39463 13.00285,-12.5265 1.00022,9.78347 2.40053,14.44662 4.50099,21.12132 1.70038,-6.6747 2.90064,-11.15498 4.20093,-21.21275 4.00088,4.48028 7.80171,9.05199 13.2029,12.89223 l -7.50165,-15.54383 c 3.90086,2.46873 8.2018,5.76036 12.40272,7.13188 C 12.70279,16.869605 4.40097,2.514425 0.40009,-18.332585 Z m -11.70257,-5.66893 c -5.20115,0.27431 -10.9024,7.31474 -16.50363,1.37152 3.30072,8.13765 9.20202,4.20597 9.70213,5.48605 5.9013,9.8749 14.70323,1.82869 12.70279,-2.83446 -1.90042,-3.10876 -3.80083,-4.11454 -5.90129,-4.02311 z m 21.80479,-0.0914 c -1.8004,0.18287 -3.50077,1.28008 -5.10112,4.02311 -2.00044,4.66314 6.80149,12.70936 12.80281,2.83446 0.40009,-1.18865 6.30138,2.65159 9.60211,-5.48606 -5.60123,5.8518 -11.30248,-1.09721 -16.50363,-1.37151 -0.30006,0 -0.50011,0 -0.80017,0 z m -11.8026,-20.66414 c 7.00154,8.77769 -12.60277,12.25219 -2.00044,20.48127 4.50099,2.83446 15.10332,-3.29163 5.80128,-10.78924 -1.20026,-0.64004 4.20092,-5.02889 -3.80084,-9.69203 z"/>
    <use xlink:href="#ermine-unit" transform="translate(66.6,94.3)" />
  </pattern>
  <path id="shield" d="m2,2v257c0,286 298,398 298,398c0,0 298-112 298-398V2z"/>
</defs>
<use id="field" xlink:href="#shield" style="fill:url(#ermine);"/>
<g id="flower" style="fill:#26619c;">
    <path d="m 306.86,68.2 c -13.96,0 -13.96,0 -13.96,0 -26.28,-36.13 6.94,-30.85 6.98,-47.44 -0,16.67 33.4,11.35 6.98,47.44 z"/>
    <path d="m 292.84,68.46 c -4.31,13.27 -4.31,13.27 -4.31,13.27 -42.47,13.84 -27.2,-16.13 -42.97,-21.3 15.84,5.19 21.13,-28.25 47.28,8.03 z" />
    <path d="m 288.63,81.29 c 11.29,8.2 11.29,8.2 11.29,8.2 0,44.67 -23.75,20.88 -33.53,34.28 9.83,-13.46 -20.35,-28.82 22.24,-42.48 z" />
    <path d="m 299.72,89.63 c 11.29,-8.19 11.29,-8.19 11.29,-8.19 42.49,13.76 12.52,29.03 22.24,42.47 -9.76,-13.5 -33.7,10.45 -33.53,-34.28 z" />
    <path d="m 311.48,81.67 c -4.31,-13.26 -4.31,-13.26 -4.31,-13.26 26.22,-36.16 31.49,-2.94 47.27,-8.03 -15.86,5.12 -0.48,35.28 -42.96,21.29 z" />
    <path style="fill:#173b5e;"  d="m 311.58,77.69 a 11.386,11.343 0 1 1 -22.77,0 11.386,11.343 0 1 1 22.77,0 z" />
</g>
<use xlink:href="#flower" transform="rotate(25.7,300,300)" />
<use xlink:href="#flower" transform="rotate(51.4,300,300)" />
<use xlink:href="#flower" transform="rotate(77.2,300,300)" />
<use xlink:href="#flower" transform="rotate(102.8,300,300)" />
<use xlink:href="#flower" transform="rotate(128.6,300,300)" />
<use xlink:href="#flower" transform="rotate(154.3,300,300)" />
<use xlink:href="#flower" transform="rotate(180,300,300)" />
<use xlink:href="#flower" transform="rotate(-154.3,300,300)" />
<use xlink:href="#flower" transform="rotate(-128.6,300,300)" />
<use xlink:href="#flower" transform="rotate(-102.8,300,300)" />
<use xlink:href="#flower" transform="rotate(-77.2,300,300)" />
<use xlink:href="#flower" transform="rotate(-51.4,300,300)" />
<use xlink:href="#flower" transform="rotate(-25.7,300,300)" />
<g id="fox" style="stroke-linecap:round;">
    <path style="fill:#cd4500;" d="m 140.91,117.55 c -11.04,-0.2 -11.68,26.33 -6.74,52.77 9.22,49.42 20.69,75.49 39.57,92.47 -21.65,20.26 -17.98,50.82 -17.98,62.3 29.32,76.45 54.51,59.86 82.26,81.37 l 25.55,22.03 36.44,7.38 36.42,-7.38 25.56,-22.03 c 27.75,-21.51 52.93,-4.92 82.26,-81.37 0,-11.48 3.68,-42.04 -17.98,-62.3 18.88,-16.98 30.36,-43.05 39.56,-92.47 5.27,-28.2 4.21,-56.52 -9.07,-52.37 -38.79,12.12 -71.92,34.41 -99.12,59.52 -20.22,-12.22 -43.13,-12.4 -57.63,-12.4 -14.52,0 -37.41,0.18 -57.65,12.4 -27.21,-25.11 -60.31,-47.4 -99.12,-59.52 -0.82,-0.26 -1.6,-0.39 -2.33,-0.4 z" />
    <path style="fill:none;stroke:#ffc167;stroke-width:2;" d="m 187.51,244.73 c 7.35,-10.66 10.04,-20.66 -1.35,-32.7 6.46,-3.67 14.57,-4.51 23.58,2.01 -4.57,-10.28 -12.32,-20.31 -26.97,-22.91 14.35,-12.05 34.13,-6.7 44.99,0.48 -11.11,-22.19 -50.61,-51.56 -78.71,-44.11 m 263.43,97.23 c -7.33,-10.66 -10.04,-20.66 1.38,-32.7 -6.47,-3.67 -14.58,-4.51 -23.59,2.01 4.58,-10.28 12.31,-20.31 26.95,-22.91 -14.34,-12.05 -34.13,-6.7 -44.96,0.48 11.11,-22.19 50.61,-51.56 78.7,-44.11" />
    <path style="fill:#ffc167;" d="m 155.76,325.09 c 0,14.5 8.34,47.39 26.25,57.51 21.39,12.07 29.78,13.17 45.54,30.89 22.35,25.14 21.85,48.36 72.46,48.36 50.59,0 50.1,-23.22 72.45,-48.36 15.77,-17.72 24.15,-18.82 45.54,-30.89 17.92,-10.12 26.25,-43.01 26.25,-57.51 -11.02,10.84 -17.28,9.45 -39.2,19.24 -38.64,17.23 -40.28,21.58 -44.94,33.18 -1.73,4.29 -0.76,11.55 -1.06,16.43 -0.41,6.37 -2,9.88 -4.42,9.55 -1.96,-0.29 0.98,-13.74 -0.16,-22.09 -1.01,-7.41 -6.77,-12.46 -15.48,-6.85 -8.79,5.64 0.89,36.98 -38.98,36.98 -39.89,0 -30.2,-31.34 -38.98,-36.98 -8.71,-5.61 -14.47,-0.56 -15.49,6.85 -1.15,8.35 1.8,21.8 -0.16,22.09 -2.42,0.33 -4.01,-3.18 -4.41,-9.55 -0.32,-4.88 0.66,-12.14 -1.08,-16.43 -4.65,-11.6 -6.29,-15.95 -44.93,-33.18 -21.92,-9.79 -28.2,-8.4 -39.2,-19.24 z" />
    <path style="fill:none;stroke:#812b00;stroke-width:2;" d="m 244.36,423.99 c 19.21,4.5 15.23,19.48 40.29,25.78 9.11,2.3 15.36,-4.03 15.36,-13.9 0,9.87 6.24,16.2 15.36,13.9 25.04,-6.3 21.06,-21.28 40.29,-25.78" />
    <path style="fill:#000000;" d="m 300,400.78 c -13.85,0 -25.23,1.83 -25.23,14.16 0,10.94 3.52,20.93 25.23,20.93 21.71,0 25.22,-9.99 25.22,-20.93 0,-12.33 -11.39,-14.16 -25.22,-14.16 z" />
    <path style="fill:#ffffff;" d="m 340.01,329.11 c -2.92,-4.68 -0.99,-11.54 4.01,-16.08 14.4,-13.09 23.38,-7.84 24.43,0.23 1.25,9.84 -2.99,16.67 -9.61,19.9 -5.76,2.82 -15.44,1.41 -18.83,-4.05 z" />
    <path style="fill:#173b5e;" d="m 363.91,321.26 a 10.67,10.673 0 0 1 -10.66,10.67 10.67,10.673 0 0 1 -10.68,-10.67 10.67,10.673 0 0 1 10.68,-10.67 10.67,10.673 0 0 1 10.66,10.67 z" />
    <path style="fill:#000000;" d="m 357.4,321.26 a 4.1446,4.1459 0 0 1 -4.15,4.15 4.1446,4.1459 0 0 1 -4.15,-4.15 4.1446,4.1459 0 0 1 4.15,-4.13 4.1446,4.1459 0 0 1 4.15,4.13 z" />
    <path style="fill:#ffffff;" d="m 357.3,318.58 a 2.2074,2.2081 0 0 1 -2.22,2.22 2.2074,2.2081 0 0 1 -2.2,-2.22 2.2074,2.2081 0 0 1 2.2,-2.2 2.2074,2.2081 0 0 1 2.22,2.2 z" />
    <path style="fill:#ffffff;" d="m 260,329.11 c 2.93,-4.68 1,-11.54 -4.01,-16.08 -14.4,-13.09 -23.4,-7.84 -24.42,0.23 -1.27,9.84 2.99,16.67 9.6,19.9 5.77,2.82 15.43,1.41 18.83,-4.05 z" />
    <path style="fill:#173b5e;" d="m 236.1,321.26 a 10.67,10.673 0 0 0 10.67,10.67 10.67,10.673 0 0 0 10.66,-10.67 10.67,10.673 0 0 0 -10.66,-10.67 10.67,10.673 0 0 0 -10.67,10.67 z" />
    <path style="fill:#000000;" d="m 242.62,321.26 a 4.1446,4.1459 0 0 0 4.15,4.15 4.1446,4.1459 0 0 0 4.15,-4.15 4.1446,4.1459 0 0 0 -4.15,-4.13 4.1446,4.1459 0 0 0 -4.15,4.13 z" />
    <path style="fill:#ffffff;l" d="m 250.82,318.58 a 2.2074,2.2081 0 0 1 -2.22,2.22 2.2074,2.2081 0 0 1 -2.2,-2.22 2.2074,2.2081 0 0 1 2.2,-2.2 2.2074,2.2081 0 0 1 2.22,2.2 z" />
</g>
<use id="shine" xlink:href="#shield" style="fill:url(#rg);stroke:#000000;stroke-width:3;"/>
</svg>
