<?xml version="1.0" encoding="UTF-8"?>
<svg xmlns="http://www.w3.org/2000/svg" xmlns:xlink="http://www.w3.org/1999/xlink" width="600" height="600">
<defs>
  <radialGradient id="rg" gradientUnits="userSpaceOnUse" cx="220" cy="220" r="405">
    <stop style="stop-color:#fff;stop-opacity:.3" offset="0"/>
    <stop style="stop-color:#fff;stop-opacity:.2" offset=".2"/>
    <stop style="stop-color:#666;stop-opacity:.1" offset=".6"/>
    <stop style="stop-color:#000;stop-opacity:.13" offset="1"/>
  </radialGradient>
  <circle id="shield" cx="300" cy="300" r="298"/>
  <g id="scorpion" transform="translate(0,20)">
    <path fill="#111" stroke="#000" stroke-width="2" d="m 283.22233,258.1365 -8.04984,7.73018 -7.24954,5.30007 -0.68745,3.84105 c 0.85064,7.2945 1.00497,16.33891 3.48539,19.54417 -8.28613,0.52991 -13.76239,2.34933 -19.04186,4.25929 -1.27633,-1.01416 -2.14322,-1.84459 -4.46833,-2.73056 -3.41168,-1.3 -4.88492,-3.68902 -7.1101,-5.23518 -2.64976,-5.81404 -5.6963,-8.73635 -8.7085,-11.91014 -1.75986,-3.00365 -3.53043,-5.09647 -5.31922,-5.70869 -0.8243,-4.04317 -2.98709,-5.17452 -5.18717,-6.22068 1.11339,1.92906 3.13047,4.32177 2.37484,5.28806 -4.57172,-1.36313 -5.61151,-0.60779 -6.16298,0.43987 2.13855,-0.0181 4.27623,0.034 6.39853,1.35806 -0.60414,3.90214 4.2537,5.69662 6.69659,8.42243 1.65587,2.55342 3.33131,5.03078 4.63915,8.90797 -2.48695,0.19347 6.79123,8.58799 12.03267,12.97738 1.66535,0.49389 2.42197,0.056 3.46607,-0.0865 0.33339,1.40395 4.58574,1.08212 8.58593,0.87254 4.77575,-1.1854 8.39627,-2.84716 11.47505,-4.73522 1.11056,2.09312 2.29004,3.99111 2.37004,9.057 0.1606,1.70921 0.2337,3.36687 1.06478,4.0718 -2.40117,2.06394 -6.26857,3.94478 -11.74433,5.62937 -3.11127,-0.88551 -6.22721,-1.35995 -9.35497,-0.88214 -2.54344,-1.87709 -5.09943,-2.83341 -7.66772,-2.65844 -0.92608,-0.93169 -2.0396,-0.72747 -4.86018,-2.49501 -2.45076,-1.53582 -4.06455,-2.27748 -5.72793,-2.37962 -3.11077,-3.14977 -5.85407,-3.91797 -8.66284,-5.11018 -1.55299,-2.44004 -3.13465,-2.52423 -4.71114,-3.00698 0.94085,1.22662 2.79683,2.23639 2.51906,3.7521 -2.50602,-1.01847 -3.7074,1.11286 -4.99481,1.65613 -1.00657,0.47141 4.30527,-1.07632 6.12937,0.15384 1.56677,2.43326 5.07297,3.60666 8.66752,4.72319 1.11954,1.55317 3.48515,3.12172 6.99946,4.70396 0.33154,2.6553 2.73763,2.6133 5.10065,2.62721 5.47737,3.03498 10.71266,5.13585 15.21508,4.41792 6.27718,1.7576 9.85561,-1.24298 13.89801,-3.42521 0.48488,3.18843 0.96251,6.3761 2.44449,9.91029 -2.52486,5.53508 -4.35622,10.04689 -8.77336,14.77531 -4.89538,-0.57383 -10.32671,-1.83142 -13.97726,-0.81003 -3.96068,-3.19678 -7.92875,-6.4852 -11.59284,-6.68219 -4.75249,-3.1 -9.47656,-8.57445 -14.26573,-8.64115 -3.18597,-1.78107 -6.37452,-3.45533 -9.59298,-2.55509 -5.0502,0.41638 -5.29658,2.37516 -6.08126,4.16074 0.99119,-0.61148 1.99025,-1.76921 2.96605,-1.11772 -0.53239,1.4905 -0.41781,2.98721 0.0746,4.49005 0.59934,-1.87714 1.30181,-3.31311 2.2258,-3.82183 2.40166,-0.55333 4.79631,-0.55131 7.17729,0.60092 3.26006,4.54003 8.60414,6.03407 13.10952,8.75413 1.68639,3.63997 8.61004,6.03922 14.13602,8.76856 3.34275,1.95716 9.3861,2.9854 17.53711,3.29061 5.76399,-2.30271 11.31507,-5.03464 11.51591,-18.46492 0.56968,-1.13467 1.12164,-0.80584 1.67532,-0.62015 -0.24293,-6.1435 0.14817,-12.907 -3.40122,-15.8233 0.68906,-1.70238 0.44169,-3.41593 -0.57927,-5.13902 1.87456,-7.19141 -0.54655,-11.87483 -3.78334,-16.0829 1.42659,-2.36862 1.52234,-5.56082 1.26439,-8.96806 -1.56837,-2.91633 -1.10207,-4.78415 -1.45429,-7.07398 -1.12114,-2.78469 -2.26173,-4.09085 -3.39875,-5.55726 2.57851,-0.88735 3.79848,-2.47535 5.05253,-4.04536 2.52793,0.44545 4.73047,-0.12606 6.93695,-0.68505 0.0935,-4.24805 0.44784,-8.14098 1.54548,-11.01599 l -2.17042,-0.7956 z m 33.55742,0.40622 -2.19208,0.74273 c 1.02774,2.9006 1.28815,6.80053 1.2788,11.04964 2.19232,0.61223 4.37984,1.23739 6.91774,0.8533 1.21628,1.59959 2.39736,3.2159 4.95384,4.16553 -1.17234,1.43832 -2.34259,2.71917 -3.53093,5.47555 -0.4076,2.28063 0.0137,4.15806 -1.62486,7.03552 -0.34016,3.39997 -0.32342,6.59192 1.04558,8.99449 -3.33784,4.12846 -5.87044,8.75212 -4.17039,15.98676 -1.06244,1.69788 -1.35189,3.40605 -0.70419,5.1246 -3.6188,2.82958 -3.3894,9.60093 -3.781,15.73678 0.55823,-0.17214 1.11647,-0.48716 1.65858,0.661 -0.12418,13.43125 5.35762,16.29506 11.06401,18.73654 8.15605,-0.10793 14.22254,-0.98947 17.61157,-2.86517 5.59058,-2.59479 12.57097,-4.8243 14.34511,-8.42243 4.56986,-2.61031 9.9473,-3.97463 13.31627,-8.43444 2.40831,-1.0943 4.80418,-1.03907 7.19169,-0.42785 0.91169,0.53093 1.58068,1.98355 2.13448,3.8747 0.5287,-1.49048 0.67884,-2.98474 0.18276,-4.48764 0.99118,-0.62777 1.95874,0.55443 2.93479,1.18982 -0.74124,-1.80411 -0.93913,-3.76645 -5.97788,-4.30497 -3.19569,-0.97782 -6.4224,0.61606 -9.6507,2.31954 -4.78942,-0.0491 -9.64394,5.30849 -14.47003,8.29263 -3.66778,0.1083 -7.71694,3.30099 -11.75393,6.40095 -3.62483,-1.1094 -9.08139,0.0183 -13.98932,0.47353 -4.30084,-4.8344 -6.02489,-9.38991 -8.41523,-14.98443 1.56702,-3.49727 2.12304,-6.67209 2.68496,-9.8478 3.9885,2.27938 7.49346,5.36453 13.81137,3.75932 4.48384,0.82672 9.767,-1.14623 15.31612,-4.04776 2.36277,0.0432 4.76751,0.14196 5.16317,-2.50462 3.55148,-1.49667 5.9556,-3.00759 7.11244,-4.5333 3.62064,-1.02917 7.15305,-2.11699 8.77815,-4.51168 1.8534,-1.1856 3.68846,-0.82717 5.52598,-0.70426 2.63167,1.60867 -1.4794,-1.843 -4.35068,-1.07684 -0.24109,-1.52193 1.6427,-2.48611 2.61284,-3.68963 -1.58782,0.44446 -3.17194,0.48986 -4.78326,2.89161 -2.83695,1.12393 -5.59674,1.82519 -8.78296,4.89866 -1.66535,0.0619 -3.29857,0.76412 -5.78564,2.24021 -2.8628,1.69876 -3.97201,1.46818 -4.92037,2.37722 -2.56324,-0.23709 -5.13978,0.65839 -7.72777,2.47338 -3.11545,-0.55339 -6.24235,-0.15372 -9.37417,0.65619 -5.43331,-1.81656 -9.25431,-3.79402 -11.60489,-5.91541 0.84793,-0.68457 0.9614,-2.33813 1.16335,-4.04296 0.2022,-5.06242 1.42525,-6.93125 2.58627,-8.9969 3.03213,1.96198 6.61413,3.71102 11.35974,5.01163 3.99403,0.30634 8.23789,0.72957 8.60512,-0.66581 1.04029,0.16772 1.7846,0.62404 3.46127,0.17066 5.34618,-4.26136 14.82434,-12.42826 12.34281,-12.68172 1.40124,-3.84448 3.13576,-6.28007 4.85304,-8.79259 2.50787,-2.66623 7.41063,-4.34097 6.90088,-8.25657 2.15393,-1.27241 4.29235,-1.27646 6.42979,-1.20664 -0.52587,-1.06066 -1.55004,-1.83867 -6.15338,-0.58649 -0.73262,-0.9838 1.34242,-3.32882 2.50221,-5.23037 -2.22481,0.99265 -4.41172,2.07116 -5.33374,6.09328 -1.80319,0.56879 -3.62422,2.61873 -5.45632,5.57889 -3.08813,3.09996 -6.20494,5.94803 -8.99451,11.69622 -2.2621,1.49184 -3.79294,3.84502 -7.23501,5.06211 -2.34604,0.82946 -3.23274,1.63938 -4.53332,2.6224 -5.23172,-2.03719 -10.66268,-3.99055 -18.93355,-4.7208 2.55721,-3.14425 2.92949,-12.181 3.95637,-19.45283 l -0.59368,-3.85788 -7.1197,-5.47313 -7.85761,-7.92247 z"/>
    <path fill="#111" stroke="#000" stroke-width="2" d="m 302.24499,382.8088 c 1.04423,-0.37973 1.52271,0.88307 3.20849,-1.36014 3.15976,-5.5644 3.06475,-11.16807 2.51243,-16.77741 -1.08263,0.41454 -2.08994,0.47432 -2.81283,-0.8038 2.8623,-2.09111 4.91556,-5.75587 4.78424,-13.67068 l -1.66448,-0.27672 c 2.26751,-3.08035 3.85102,-7.75146 4.78744,-13.92722 2.42702,-8.31888 4.11452,-16.27898 5.16514,-23.93023 1.53564,-6.95263 2.02286,-13.9179 2.56215,-20.88259 0.24675,-15.68296 -1.55004,-19.70309 -3.85374,-20.8319 -0.0738,-3.5506 0.21131,-7.0969 -1.15388,-10.6631 4.68826,1.77351 9.1556,6.3498 13.43983,13.24956 0.83723,-0.722 1.30328,-0.37363 1.79752,-0.10646 4.24841,7.06325 14.31238,9.48621 21.24255,4.6194 4.86314,-2.34669 9.15536,-5.1949 11.6636,-9.61002 0.26053,-3.67488 1.11671,-7.34253 3.08407,-10.99679 l -4.76517,1.48203 -3.94321,7.77875 c -2.97109,1.65918 -5.93985,3.12756 -8.93076,6.43548 -6.28973,1.90319 -11.5388,-0.46592 -16.77286,-2.89738 -2.77763,-4.73805 -4.84209,-9.46752 -9.194,-14.22463 2.19528,0.1309 4.11537,-0.0765 4.64309,-1.99667 1.53933,2.09381 2.71683,1.84169 3.95354,1.97242 6.54793,7.42895 14.27127,7.68625 22.663,3.86671 7.35721,-0.0383 22.56688,-4.72625 23.90351,-13.82415 -1.95148,-1.98293 -1.41614,-6.39311 -1.80478,-9.90132 0.66567,-2.65863 -0.18817,-2.85307 -0.46495,-3.98298 0.49559,-10.52936 1.2623,-21.03843 -14.23029,-32.76142 -5.14742,-8.64111 -11.13108,-12.97959 -16.97445,-18.03963 -2.76176,-1.06662 -3.63184,-0.67836 -2.32622,1.38318 l 8.74,9.34367 c 1.93069,3.4311 0.11938,2.32994 -1.55655,1.39245 l -11.31495,-8.60494 c 0,0 -6.64343,-2.79294 -1.22846,2.67954 5.7203,4.31056 11.21268,9.89319 16.20159,18.28688 -3.28111,18.11007 -1.24766,31.86469 4.09974,42.90312 l -1.40801,-0.27369 c -0.69706,-0.40103 -1.64837,-0.30825 -2.69407,-0.0326 -6.27004,-3.13215 -12.21396,-2.11743 -18.19934,-1.63151 -1.10441,-1.43056 -1.74867,-0.4063 -2.56264,-0.2877 0.43099,-1.66941 -1.02515,-2.52739 -3.68611,-2.86722 -1.48173,-0.84459 -1.93856,-0.11076 -2.82231,-0.0342 -1.43447,1.92114 -2.83006,0.61137 -4.23795,0.33364 -0.62961,-0.46145 -1.71359,-0.59057 -3.72033,-0.045 l -1.94754,1.90101 c -1.53834,-0.11297 -3.0821,0.23163 -4.63694,1.48352 -0.69742,-2.71564 -2.15995,-3.58462 -3.53597,-4.6617 0.59737,-3.16494 -2.00809,-4.38157 -4.03378,-5.95081 -1.63618,-0.42262 -2.72976,-0.36873 -3.20751,0.22618 -1.07007,2.41035 0.80757,4.37045 2.30875,6.30661 l -0.13599,0.20604 c -0.80757,1.2908 -4.39807,1.07536 -5.612,-0.21973 l 0.048,-0.20457 c 2.39194,-1.5861 3.33993,-3.94456 1.79248,-6.2259 -0.51208,-0.49574 -1.56382,-0.54035 -3.09478,-0.18418 -2.06298,1.51979 -4.69711,2.67297 -4.17641,5.85139 -1.40187,1.04349 -2.88483,1.87678 -3.64785,4.57486 -1.52419,-1.28917 -3.05908,-1.67106 -4.59964,-1.59533 l -1.90103,-1.94758 c -1.99295,-0.59403 -3.07976,-0.49107 -3.7202,-0.0449 -1.41442,0.24357 -2.84114,1.51916 -4.22885,-0.43607 -0.88153,-0.098 -1.32051,-0.84274 -2.82218,-0.0342 -2.66847,0.27529 -4.14503,1.09779 -3.75454,2.77717 -0.81077,-0.13824 -1.43017,-1.17777 -2.56879,0.22562 -5.97185,-0.63061 -11.88942,-1.78893 -18.23355,1.19062 -1.03857,-0.30081 -1.98754,-0.41665 -2.69395,-0.0326 l -1.41429,0.23954 c 5.61299,-10.90584 7.97859,-24.60717 5.13684,-42.79129 5.19049,-8.27049 10.81627,-13.71868 16.63921,-17.88958 5.77679,-4.84911 1.59028,-3.2041 0.0332,-2.69392 l -11.51985,8.32865 c -1.69821,0.89661 -3.53549,1.95358 -1.52235,-1.42985 l 8.96337,-9.12944 c 1.35522,-2.02926 0.49486,-2.43852 -2.29188,-1.43894 -5.9641,4.91712 -12.05114,9.10952 -17.40605,17.62349 -15.7717,11.34477 -15.2595,21.86926 -15.01878,32.40749 -0.3041,1.12293 -1.15929,1.29939 -0.56131,3.9706 -0.47344,3.4978 -0.0455,7.91963 -2.04378,9.85468 1.1161,9.12759 16.20774,14.18228 23.562,14.39858 8.29684,4.02146 16.02424,3.95105 22.75,-3.31719 1.23929,-0.1008 2.4104,0.17976 4.00007,-1.87624 0.48107,1.93242 2.39612,2.18571 4.59337,2.10842 -4.46575,4.65046 -6.64405,9.32862 -9.53552,13.99811 -5.29128,2.30402 -10.59623,4.54538 -16.83796,2.4906 -2.91006,-3.3793 -5.84251,-4.91912 -8.7725,-6.64968 l -3.7538,-7.87187 -4.728,-1.59692 c 1.87837,3.70079 2.64558,7.38808 2.81713,11.06825 2.40068,4.47446 6.62263,7.42579 11.42767,9.88939 6.81031,5.03303 16.93003,2.85433 21.34802,-4.10405 0.50052,-0.25508 0.97495,-0.59203 1.79445,0.15003 4.45,-6.79409 9.02675,-11.26094 13.75661,-12.92053 -1.45122,3.53219 -1.25234,7.0843 -1.41171,10.63215 -2.33016,1.07268 -4.22392,5.04814 -4.35659,20.73249 0.37056,6.97567 0.68918,13.95075 2.05621,20.93847 0.86517,7.67447 2.35933,15.67308 4.58451,24.04822 0.78665,6.19662 5.08195,10.68212 7.27427,13.81652 l -1.67076,0.23637 c -0.32268,7.90933 1.64147,11.62266 4.45221,13.78245 -0.75354,1.26027 -1.75913,1.17616 -2.83154,0.73556 -0.68782,5.59422 -3.64341,12.25307 -0.61915,17.89223 l 0.77963,1.66262 c -1.38992,2.5757 -1.51434,0.90118 -3.60993,2.3913 0.30077,9.56116 5.45865,13.09601 10.93589,14.35102 0.59774,0.72358 1.13653,1.46073 -0.87747,2.79084 6.76367,5.1966 13.32452,12.41641 18.36462,9.37583 2.5443,1.067 0.2566,2.48544 -0.29105,3.77728 6.24001,2.94381 12.91679,4.98475 19.62606,1.78777 l 0.0382,-1.92843 c 2.12217,0.0982 2.55783,1.81624 2.06212,4.42889 4.39018,0.33318 19.01158,-0.29916 19.93975,-6.61237 1.21653,-0.42683 2.90354,-1.85493 3.75652,1.05479 7.01546,-1.34682 12.52703,-5.29372 14.6913,-10.2413 0.44329,-1.01335 -1.02232,-2.26561 -1.45909,-3.56567 9.51607,-2.27215 6.83098,-6.4647 4.22564,-10.64471 1.51903,-5.6336 4.90646,-10.13015 7.20302,-15.29056 0.5186,-0.27863 1.72824,-4.65459 -1.36703,-1.43269 -3.52835,4.4107 -5.96582,9.48542 -10.27183,13.42291 -4.90965,-0.39353 -9.86706,-0.85216 -7.51339,8.64384 -1.1817,2.39352 -2.22666,1.67853 -3.28283,0.70548 -3.28122,-2.68819 -8.56291,1.42839 -10.18309,5.98136 2.14248,2.14549 1.3551,3.07854 0.3964,3.94068 -5.88915,-2.67721 -10.38751,-2.13164 -14.58202,-0.88221 0.0382,2.65906 -0.6877,4.27618 -2.79486,4.00695 l 0.29438,-1.90604 c -4.8752,-3.17726 -9.91235,-4.49045 -15.26012,-2.22698 -0.35579,1.3573 0.3308,3.35092 -2.33545,2.64015 -2.89073,-8.32305 -5.55551,-12.38987 -10.08895,-14.69256 -1.04017,0.44262 -2.03541,1.80862 -3.16751,0.37317 -0.64413,-3.02375 0.15334,-7.66192 -5.85013,-11.23452 z"/>
    <path fill="#600" stroke="#000" stroke-width="1.5" d="m 304.67594,346.82858 c -3.30842,1.74958 -7.38441,1.21281 -9.33922,0.03 -2.73591,-2.55137 -4.31807,-5.85067 -4.16251,-10.82741 -0.74973,-1.14667 -0.57017,-2.29643 -0.374,-3.44612 -1.54991,-1.1327 -2.45237,-2.48349 -2.91584,-3.98228 -0.11445,-0.96729 -0.40058,-1.93396 0.17217,-2.90348 -0.30705,-1.45055 -0.42187,-2.9016 0.3489,-4.35563 -2.69998,-0.9961 -3.17317,-5.35567 -2.7572,-11.05879 -0.52193,-0.4921 -1.0035,-1.14981 -1.43029,-2.02884 -0.35468,-0.73051 -0.83095,-3.98751 -0.75084,-4.63068 0.2897,-2.32304 0.89975,-4.51001 3.04752,-6.04378 -2.21177,-1.14158 -2.65862,-3.5753 -3.64673,-5.61286 -0.54901,-3.38996 1.08853,-3.6061 1.98003,-4.90512 -1.96883,-1.76065 -3.72648,-3.57586 0.34065,-6.89575 -1.00755,-2.39736 -1.67999,-4.86283 0.88153,-7.98604 1.31104,3.59375 5.76251,4.43895 11.04408,4.55771 l 0.75932,-0.0143 c 7.12179,0.11975 13.94059,-0.0223 15.58871,-4.63142 2.58146,3.10654 1.9249,5.57636 0.93285,7.9802 4.0883,3.29365 2.34247,5.12013 0.38496,6.89333 0.89974,1.2933 2.53876,1.49892 2.01153,4.89237 -0.97494,2.04386 -1.40616,4.48044 -3.61055,5.63611 2.06298,1.45333 2.72385,3.51269 3.0442,5.71955 0.10707,0.74024 -0.1595,3.70158 -0.39652,4.2937 -0.48563,1.2141 -1.06085,2.07482 -1.69969,2.68431 0.45277,5.70029 0.0123,10.06279 -2.68595,11.07628 0.78013,1.44895 0.67454,2.90079 0.37684,4.35322 0.57903,0.96584 0.29967,1.93442 0.19075,2.90241 -0.45375,1.50164 -1.34747,2.85831 -2.88999,4.00093 0.20355,1.14844 0.39061,2.2969 -0.35185,3.44836 0.18755,4.9757 -1.37331,8.28511 -4.09286,10.85402 z"/>
    <path fill="none" stroke="#000" stroke-width="1.5" d="m 314.39507,280.07398 c -0.99217,2.40385 -28.19894,2.49133 -29.20649,0.0939 m 29.59145,6.79945 c -1.95739,1.77331 -27.96327,1.85695 -29.9321,0.0964 m 28.33308,10.43219 c -2.20438,1.15575 -24.45461,1.2273 -26.66638,0.0858 m 27.61437,12.61176 c -0.95033,0.90692 -27.52441,0.99218 -28.48076,0.0916 m 25.79481,10.98475 c -2.69345,1.01347 -20.33763,1.07023 -23.03761,0.0741 m 20.71521,11.18252 c -1.54265,1.14262 -16.77053,1.19156 -18.32044,0.0588 m 17.96859,3.38949 c -0.74235,1.15155 -16.84474,1.2033 -17.59459,0.0566"/>
    <path fill="#900" stroke="#000" stroke-width="1.5" d="m 294.85639,331.11088 c 2.3832,0.2537 7.817,0.23624 10.19848,-0.0327 2.38135,-0.26901 4.80714,-1.22116 5.10496,-4.69502 -0.0972,-3.49254 -1.90779,-3.64928 -3.92807,-1.65442 -1.72787,1.02937 -3.17932,0.59706 -4.82769,0.78277 -1.64824,0.18578 -1.28347,0.18456 -2.93294,0.01 -1.64948,-0.17514 -3.09798,0.26655 -4.83262,-0.75168 -2.03307,-1.98192 -3.84302,-1.81346 -3.91723,1.67963 0.3201,3.47178 2.75191,4.40844 5.13536,4.66178 z m -1.42992,-10.7159 c 3.03534,0.29085 9.95591,0.26856 12.98928,-0.0417 3.03336,-0.31029 6.12322,-1.40649 6.50387,-5.40201 -0.12184,-4.01692 -2.42825,-4.19648 -5.0022,-1.90125 -2.20131,1.18459 -4.04966,0.68791 -6.14919,0.90215 -2.09941,0.21436 -1.63471,0.21283 -3.73559,0.0123 -2.10076,-0.20078 -3.94591,0.30775 -6.15473,-0.86263 -2.5886,-2.27858 -4.8939,-2.08425 -4.98989,1.93335 0.40637,3.99302 3.50324,5.0693 6.53845,5.36006 z m -0.94233,-12.19706 c 3.38473,0.2892 11.10253,0.26441 14.48529,-0.0465 3.38275,-0.31097 6.82901,-1.40655 7.25507,-5.39596 -0.13439,-4.01059 -2.70638,-4.18899 -5.57766,-1.89638 -2.4552,1.18357 -4.51633,0.68833 -6.85769,0.90302 -2.34136,0.21478 -1.82312,0.21313 -4.16583,0.0134 -2.34272,-0.19962 -4.40053,0.30876 -6.86335,-0.85894 -2.88606,-2.27409 -5.45681,-2.07909 -5.56524,1.93222 0.45154,3.98656 3.90469,5.05998 7.28941,5.34918 z m 9.21763,-11.81319 c -4.89882,0.16484 1.18428,0.14534 -3.71553,0.0123 -4.89968,-0.13334 -10.14728,0.73492 -13.53471,-3.38759 -1.16902,-1.039 -0.8264,-3.00032 0.30964,-3.81631 0.732,-0.27678 1.70116,0.41642 2.66638,1.1375 1.72725,1.26224 3.49474,1.75323 5.65999,1.84195 1.2623,0.13838 2.50775,0.21717 3.74371,0.26113 1.23585,0.0438 4.76444,0.0325 6.00003,-0.0193 1.2356,-0.0518 2.48055,-0.13873 3.74187,-0.2852 2.16463,-0.10264 3.92893,-0.60492 5.64806,-1.87828 0.96066,-0.72724 1.92527,-1.42669 2.65887,-1.15456 1.14145,0.80867 1.49662,2.76774 0.33438,3.81424 -3.36098,4.14416 -8.61411,3.30963 -13.51269,3.47458 z m -3.76906,-9.57508 c 3.4561,0.0492 0.30533,0.0945 3.76082,-0.0541 3.45511,-0.20894 7.01373,-0.30458 10.11466,-0.90107 1.20422,-0.2211 2.4013,-0.42601 3.17601,-1.05624 1.16225,-1.07268 0.81101,-1.79919 -0.33032,-2.58242 -1.31079,-0.45687 -3.13834,0.38497 -4.58377,0.75114 -2.48067,0.58371 -4.87938,0.86469 -7.24326,1.01695 -2.364,0.15217 -3.68057,0.17118 -6.04532,0.087 -2.36461,-0.0841 -4.76492,-0.29581 -7.24904,-0.80797 -1.44764,-0.32448 -3.28048,-1.11361 -4.5882,-0.61888 -1.13616,0.81598 -1.48284,1.55241 -0.3137,2.59159 0.77865,0.60798 1.97708,0.77828 3.18253,0.96462 3.1045,0.50709 6.66336,0.50011 10.11959,0.60934 z m 0.13968,-6.17835 c 3.16296,0.0892 0.27936,0.0986 3.44183,-0.0111 3.16222,-0.17011 6.4192,-0.22516 9.25701,-0.78905 1.10207,-0.20838 2.19761,-0.40052 2.90636,-1.0253 1.06342,-1.06489 0.74173,-1.79943 -0.30287,-2.59994 -1.20003,-0.47456 -2.87227,0.35075 -4.195,0.70223 -2.27023,0.55817 -4.4655,0.81288 -6.62903,0.93866 -2.1634,0.12575 -3.36836,0.12965 -5.53262,0.0177 -2.16426,-0.11175 -4.36114,-0.35239 -6.63481,-0.89604 -1.32507,-0.343 -3.0026,-1.15742 -4.19943,-0.6752 -1.03955,0.80724 -1.35645,1.54381 -0.28638,2.60188 0.71293,0.62019 1.80971,0.8053 2.91313,1.00663 2.84138,0.5456 6.09861,0.57968 9.26181,0.72947 z"/>
    <path fill="none" stroke="#000" stroke-width="1.5" d="m 370.70893,402.80387 -1.23549,1.14505 -5.02504,4.91929 c -0.33808,0.71629 -0.43417,1.50765 0.31939,2.55888 m 8.13889,-8.28426 -2.09215,-0.31177 -2.16999,-2.332 m -4.53931,11.09937 c -1.4878,-2.18815 -3.18326,-3.60144 -5.2245,-3.72212 m 9.64036,-9.02835 0.36202,2.12876 -6.04764,6.44416 c -1.6836,0.44712 -2.53847,0.0242 -3.68623,-0.0912 m -2.53835,-1.73062 c 0.52682,2.37653 1.23676,4.71894 3.49317,6.77244 m -4.0553,-3.58354 c -0.47885,2.38677 -0.77674,4.8162 0.45686,7.60664 m -0.19213,-0.17026 c -0.94967,-0.3884 -1.83309,-0.94462 -2.4848,-2.03192 l -9.77988,0.5873 c -1.06507,0.7304 -2.03239,1.45497 -2.4599,2.14705 m -0.43402,0.0482 c 0.32929,-1.96992 -0.0976,-4.08123 -0.43516,-6.1758 0.60666,0.62994 0.71857,1.28969 1.93095,1.88342 l 10.49335,-0.81195 c 0.93634,-1.54828 1.90569,-2.56858 2.89398,-3.26375 m 21.99224,-19.70309 c -0.29921,0.66988 -4.83355,2.53984 -5.3009,2.24206 m -2.27743,5.24204 c 0.62663,0.86143 0.44161,2.49204 0.61433,3.78358 l 1.07107,0.68237 c 1.43003,-0.44341 2.75607,-0.72402 3.91074,-0.7353 m 0.83785,-7.73037 c -1.58499,0.91583 -2.47853,-0.41845 -7.29172,2.32754 m 10.13281,-2.29661 c -0.10809,1.79567 0.38304,3.97303 1.13759,6.31828 m -3.97909,-3.86883 c -0.55407,1.48103 1.05007,3.21098 1.36161,4.49984 m -41.718,16.39225 c -0.87449,-0.29154 -1.75977,-0.28087 -2.57622,-2.19372 l -8.91525,-0.70842 c -0.96706,1.104 -1.98549,1.32947 -2.99309,1.73851 0.93234,-2.0799 0.78811,-4.15581 0.65233,-6.23199 0.82315,0.47642 1.67559,0.68138 2.38894,2.18111 l 8.97529,1.02098 c 1.07322,-1.27501 2.1352,-2.09494 3.17353,-1.91855 -0.68331,2.13481 -0.76258,4.13831 -0.70544,6.11189 z m -20.50617,-3.86837 c -0.56319,-0.72988 -1.30362,-1.21494 -0.91399,-3.25782 l -7.00311,-5.56239 c -1.41851,0.37621 -2.38951,-0.005 -3.4539,-0.22735 1.93431,-1.2057 2.97276,-3.00919 4.0186,-4.80776 0.41741,0.8548 1.01036,1.5004 0.76534,3.14311 l 6.87861,5.85524 c 1.60198,-0.45944 2.94075,-0.54712 3.704,0.17841 -1.75815,1.39051 -2.94188,3.0088 -3.99555,4.67856 z m -20.9093,-32.56197 c 0.3706,-0.84402 0.44225,-1.72637 2.42207,-2.36262 l 1.52881,-8.81169 c -1.00975,-1.06517 -1.14054,-2.09987 -1.45477,-3.14094 1.9848,1.12047 4.06543,1.16849 6.14515,1.22497 -0.55064,0.77553 -0.83336,1.60553 -2.39267,2.17712 l -1.84518,8.8429 c 1.17056,1.18615 1.88877,2.31947 1.61735,3.33689 -2.06269,-0.87735 -4.05027,-1.14145 -6.02076,-1.26663 z m 5.7653,19.50985 c -0.21262,-0.89695 -0.68758,-1.64418 0.50908,-3.34506 l -4.09079,-7.95311 c -1.44761,-0.24141 -2.17551,-0.98826 -3.0537,-1.62972 2.25922,-0.30194 3.94827,-1.5176 5.64201,-2.72591 0.0283,0.95082 0.30278,1.78346 -0.59709,3.17933 l 3.85659,8.16864 c 1.64898,0.24114 2.90514,0.7127 3.30173,1.68808 -2.17471,0.54306 -3.92007,1.53006 -5.56782,2.61773 z m -6.37432,-49.43618 c 4.44799,0.91306 8.92812,0.84155 13.4206,0.39332 m -0.14207,0.17684 c -2.21654,2.04542 -4.43245,4.09081 -5.64782,6.16885 m -7.37359,-6.27681 c 1.95406,2.18048 3.95975,4.3512 4.40622,6.81531 m 0.40745,1.42022 c 0.4455,2.57791 -0.54657,3.64276 -1.47076,5.00129 l 6.92556,0.31415 c -1.88518,-3.25168 -2.76938,-3.32531 -3.00405,-5.32103 m -7.52167,-8.6922 c 4.44799,0.91306 8.92813,0.84155 13.4206,0.39332 m -0.14207,0.17684 c -2.21653,2.04542 -4.43244,4.09081 -5.64782,6.16885 m -7.37358,-6.27681 c 1.95405,2.18048 3.95975,4.3512 4.40622,6.81531 m 0.40745,1.42022 c 0.44549,2.57791 -0.54657,3.64276 -1.47077,5.00129 l 6.92557,0.31415 c -1.88519,-3.25168 -2.76938,-3.32531 -3.00405,-5.32103 M 305.8302,240.9309 c -1.0565,-1.47942 -2.27294,-2.73399 -3.9342,-4.22073 m -2.7855,0.0401 c -1.32564,1.20569 -2.35924,2.37095 -3.80308,4.3397 m -9.22285,13.74514 c -0.014,1.15455 -0.69424,4.35391 -0.69424,4.35391 m -4.02904,-6.33564 -3.23203,2.01374 m 35.86842,0.30576 c -0.0138,1.15459 1.99373,4.89974 1.99373,4.89974 m 2.77604,-6.76665 4.97844,2.11321 m -77.98478,2.39218 c 2.02119,-1.47241 2.03839,-2.96901 1.33715,-4.47446 -1.32966,-3.209 -2.68087,-4.65506 -4.02591,-6.5922 -3.59915,-0.6247 -8.63505,-0.17193 -8.03535,-3.94621 -2.84564,0.13651 -4.06943,-2.87497 -5.58088,-5.32799 -1.62177,-2.32382 -2.87852,-2.70102 -4.19309,-3.38667 l 0.43447,-4.10051 c 3.17783,2.46613 6.39363,1.7904 9.52367,8.19846 0.54907,2.89986 0.11806,3.26053 0.0722,4.61973 m 33.85734,11.82872 c -1.20709,-5.17713 -2.65609,-7.82289 -4.25447,-8.90439 m 2.57188,-0.48213 c 1.99747,1.04102 3.99217,2.31596 5.94089,7.3852 m -26.99988,-5.97211 c 2.15427,2.58258 3.21749,4.87829 4.01978,7.10541 -0.17343,1.66585 0.32981,3.3399 -1.08685,4.99067 m 1.44246,-66.18729 c -3.71811,2.92891 -6.93657,3.50799 -10.32335,4.87891 m 47.90338,49.20678 c -0.57265,2.67961 -1.04793,5.31203 -2.2817,8.31219 -1.66824,0.0307 -3.332,-0.31737 -4.97981,-1.98484 -0.1452,-3.23734 1.71781,-5.44008 2.79176,-8.04935 m 92.22806,-13.12574 c -3.23648,2.38845 -7.58962,1.62109 -10.87366,7.95162 -0.61921,2.88574 -0.19688,3.25669 -0.18417,4.6167 m -10.82788,14.75213 c -1.9849,-1.52082 -1.9658,-3.0175 -1.22837,-4.50539 1.40658,-3.17614 2.79261,-4.58885 4.18419,-6.49295 3.61331,-0.53742 8.63666,0.0372 8.1286,-3.75069 2.84145,0.20529 4.13783,-2.77559 5.70817,-5.1914 1.67737,-2.28383 4.09749,-2.61659 5.42828,-3.27026 m -44.6272,19.34714 c 1.33205,-5.14651 1.94512,-7.63894 3.56927,-8.68149 m -2.5594,-0.54412 c -2.0222,0.99232 -2.89569,2.48912 -4.96652,7.50975 m 25.98492,-5.58756 c -2.21619,2.52954 -3.33442,4.79905 -4.19043,7.00604 0.13311,1.66953 -0.41049,3.33093 0.96581,5.0156 m 1.0575,-66.19207 c 3.66235,1.67123 7.11402,3.02562 10.45884,5.13044 m -50.23466,48.01929 c 0.50763,2.69261 0.91924,5.3358 2.07996,8.36493 1.66703,0.0709 3.33874,-0.23669 5.02642,-1.86375 0.22347,-3.23299 -1.58562,-5.48012 -2.59617,-8.11451 m -17.63302,9.60082 c -0.75363,-1.89926 -0.75394,-3.73806 0.0875,-5.72824 -4.33033,-2.38494 -9.12633,3.84083 -9.77852,6.3214 -0.31187,1.52069 -0.0281,2.7914 0.46081,4.10099 1.36725,0.61032 2.07401,1.65027 3.03266,1.2159 m 5.68563,2.88204 c -0.37269,2.28373 0.64891,6.7456 -2.5974,4.53987 l -5.14036,-4.16471 m -0.39727,-19.69692 c 0.29898,1.47427 1.67504,2.22304 2.71566,3.19767 m -6.10825,5.78682 c 2.11964,-2.30048 3.34319,-5.45641 7.17167,-6.12559 2.09477,-0.42627 3.58046,-1.24802 4.99166,-2.11812 0.91722,-1.06145 1.88003,-0.94104 2.8733,-0.0138 m -0.1165,9.83752 c 0.79965,-1.88043 0.84413,-3.71872 0.051,-5.72877 4.3866,-2.27934 9.03067,4.06047 9.62273,6.55624 0.27498,1.52771 -0.0395,2.79123 -0.55992,4.08858 -1.38152,0.5772 -2.11348,1.59967 -3.06126,1.14224 m 3.08719,-1.25206 c 1.28857,2.26949 0.67559,3.69039 -1.10843,4.59954 1.4655,0.51421 1.86511,1.54297 1.71378,2.78431 -9.7e-4,1.45074 -0.5187,2.09057 -1.42067,3.00994 -1.24718,1.24889 -2.73078,2.34098 -6.64574,1.82181 -0.40801,-0.0834 -0.82719,0.083 -1.25706,-0.55168 -0.32486,-0.47943 -1.02132,-0.2781 -1.58858,-0.64062 -0.56736,-0.36263 -0.36189,-0.36013 -0.93776,-0.0111 -0.5759,0.34878 -1.2672,0.13079 -1.60348,0.60213 -0.44559,0.62388 -0.86027,0.44745 -1.27021,0.52105 -3.92643,0.42419 -5.38287,-0.70353 -6.59969,-1.98214 -0.87578,-0.94257 -1.37784,-1.59482 -1.3435,-3.04505 -0.12159,-1.24468 0.30301,-2.26353 1.78064,-2.74212 -1.76158,-0.95205 -2.34018,-2.38734 -0.99694,-4.62489 m 12.43303,4.25294 c 0.31728,2.29217 -0.81194,6.72797 2.48671,4.60149 l 5.23973,-4.03914 m 0.87374,-19.68156 c -0.33463,1.46666 -1.72837,2.18181 -2.79207,3.13116 m 5.96645,5.93299 c -2.06303,-2.35146 -3.21023,-5.53569 -7.02138,-6.29737 -2.08378,-0.47685 -3.54909,-1.33421 -4.93884,-2.23826 -0.89163,-1.08313 -1.8568,-0.98619 -2.87205,-0.0833"/>
    <path fill="none" stroke="#000" stroke-width="1.5" d="m 218.74311,327.53839 c -0.17574,0.77232 -0.50052,1.39207 -0.0345,2.82227 l 0,0.25655 m 9.76048,-0.78007 c -0.69853,1.18908 -1.73107,1.68982 -3.09736,1.50218 m 17.10637,7.13545 c -1.3898,1.75337 -2.75129,1.17401 -4.12226,1.36138 m 16.10177,5.32702 c 0.0332,1.9243 -0.78099,3.19736 -2.10211,4.08035 m 16.20736,-3.39642 c 1.21,0.47636 2.74318,0.9106 1.64751,1.68792 -1.36408,1.29377 -1.20483,2.82411 -0.18263,4.48837 m 0.57029,-57.72984 c 1.15339,0.10732 2.29927,0.83992 3.42792,2.9925 m -48.3308,-24.44927 -2.32782,1.5114 m 7.90253,4.32967 c -0.0898,1.83072 -0.56599,2.86509 -1.32322,3.31988 m 49.41909,29.97959 c -1.99185,1.9975 -3.95699,1.84054 -5.92435,1.85288 m 8.10252,19.60024 c -0.82997,-2.54727 -2.7321,-2.33752 -4.5919,-2.23672 m -36.85119,-40.0918 c -1.81389,1.44797 -3.60132,0.72702 -5.39122,0.19132 m 17.10182,7.52032 c 0.63688,2.27494 -0.6077,3.77087 -1.60467,5.3693 m -24.65706,1.88278 -0.53965,2.17464 m 9.71716,2.81202 -1.17948,2.03851 m 11.38645,2.70395 c -1.24446,1.52621 -2.57039,2.52178 -4.13002,2.0028 m 21.28291,1.28404 c 0.33475,0.82999 1.86497,1.2775 0.35222,2.69862 -2.11134,0.95811 -2.23896,1.94021 -2.3448,2.92265 m 14.66484,-3.15848 c 2.16673,-0.69235 3.52342,-2.63213 5.05586,-4.30117 m -4.49196,-21.09619 c -1.68394,1.32265 -3.36651,2.53096 -5.05426,4.17285 m 1.23953,-28.21189 0.23014,2.18397 m 4.32816,-7.77417 1.1065,3.99086 m 7.15342,-7.99666 -4.36176,-0.0528 m -37.36353,2.2423 c -1.85795,1.56184 -3.69558,1.45181 -5.53335,1.34436 m 14.81584,5.56807 c -2.13227,4.75267 -3.50631,4.2046 -3.51481,4.19153 m 19.84279,-6.9449 c 0.91426,0.93358 1.60824,2.01039 1.496,3.61058 m 109.85506,57.01316 c 0.15692,0.77648 0.46655,1.40377 -0.0344,2.82227 l 0,0.25654 m -9.73882,-1.01593 c 0.66973,1.20557 1.68971,1.73111 3.06019,1.57664 m -17.27399,6.71941 c 1.34697,1.78653 2.72212,1.24024 4.08805,1.46079 m -16.22595,4.93586 c -0.08,1.92291 0.70333,3.21526 2.0028,4.1299 m -16.12049,-3.78756 c -1.22107,0.44697 -2.76434,0.84392 -1.68787,1.64753 1.33246,1.32649 1.13616,2.85247 0.0738,4.49149 m 0.8269,-57.72664 c -1.15561,0.0794 -2.31896,0.78396 -3.49943,2.90864 m 48.90873,-23.27276 2.29054,1.56739 m -8.0048,4.13721 c 0.0455,1.8323 0.49657,2.87787 1.24248,3.35093 m -50.13017,28.77496 c 1.94262,2.0454 3.91121,1.9357 5.87782,1.99567 m -8.57448,19.39846 c 0.89138,-2.5265 2.78797,-2.27069 4.64469,-2.12499 m 37.81063,-39.18834 c 1.77821,1.49148 3.58262,0.81396 5.38482,0.32177 m -17.27867,7.10418 c -0.69164,2.25894 0.51627,3.78452 1.47422,5.40668 m 24.60439,2.47882 0.48673,2.18708 m -9.78226,2.57596 1.12976,2.06657 m -11.44848,2.42759 c 1.20693,1.55612 2.50849,2.58329 4.08031,2.10217 m -21.30778,0.76861 c -0.35468,0.82166 -1.89536,1.23207 -0.41745,2.68936 2.08747,1.00885 2.1911,1.99414 2.27355,2.97852 m -14.58423,-3.51242 c -2.14937,-0.74459 -3.45857,-2.71654 -4.95039,-4.42223 m 5.00109,-20.98133 c 1.65157,1.36301 3.30436,2.61166 4.95187,4.29395 m 0.6018,-28.47618 -1.70338,2.93043 m -3.60538,-9.53814 -1.47324,5.11431 m -5.93161,-8.15493 4.36164,0.0528 m 37.29694,3.274 c 1.81956,1.60635 3.65941,1.54084 5.49915,1.47792 m -15.20437,5.33309 c 2.01671,4.80289 3.40355,4.28809 3.41241,4.27525 M 332.311,269.12291 c -0.93692,0.91093 -1.65674,1.97054 -1.5829,3.57331"/>
    <path fill="#f00" stroke="#000" stroke-width="1" d="m 298.9968,260.03189 c -0.20657,0.94142 -0.56695,1.39785 -1.16342,1.50094 -1.20131,0.19402 -1.21085,-0.79223 -1.29083,-1.90219 -0.0389,-1.13496 0.43842,-1.73673 1.38888,-2.08967 1.43734,0.004 1.21828,1.24411 1.06537,2.49092 z m 2.34971,0.0284 c 0.18353,0.94613 0.53296,1.41115 1.12659,1.52858 1.19641,0.22307 1.2297,-0.76267 1.33663,-1.87032 0.0663,-1.13366 -0.39635,-1.74682 -1.33795,-2.12261 -1.437,-0.0309 -1.24784,1.2143 -1.12527,2.46435 z"/>
  </g>
</defs>
<use id="background" xlink:href="#shield" fill="#c00"/>
<use xlink:href="#scorpion" transform="translate(0,-160)"/>
<use xlink:href="#scorpion" transform="rotate(-120,300,300)translate(0,-160)rotate(120,300,300)"/>
<use xlink:href="#scorpion" transform="rotate(120,300,300)translate(0,-160)rotate(-120,300,300)translate(600)scale(-1,1)"/>
<use id="shine" xlink:href="#shield" fill="url(#rg)" stroke="#000" stroke-width="3"/>
</svg>