<?xml version="1.0" encoding="UTF-8" standalone="no"?>
<svg
   xmlns:dc="http://purl.org/dc/elements/1.1/"
   xmlns:cc="http://creativecommons.org/ns#"
   xmlns:rdf="http://www.w3.org/1999/02/22-rdf-syntax-ns#"
   xmlns:svg="http://www.w3.org/2000/svg"
   xmlns="http://www.w3.org/2000/svg"
   xmlns:xlink="http://www.w3.org/1999/xlink"
   xmlns:sodipodi="http://sodipodi.sourceforge.net/DTD/sodipodi-0.dtd"
   xmlns:inkscape="http://www.inkscape.org/namespaces/inkscape"
   width="600"
   height="660"
   id="svg2"
   version="1.1"
   inkscape:version="0.48.2 r9819"
   sodipodi:docname="House_Woolfield.svg">
  <metadata
     id="metadata24">
    <rdf:RDF>
      <cc:Work
         rdf:about="">
        <dc:format>image/svg+xml</dc:format>
        <dc:type
           rdf:resource="http://purl.org/dc/dcmitype/StillImage" />
        <dc:title />
      </cc:Work>
    </rdf:RDF>
  </metadata>
  <sodipodi:namedview
     pagecolor="#ffffff"
     bordercolor="#666666"
     borderopacity="1"
     objecttolerance="10"
     gridtolerance="10"
     guidetolerance="10"
     inkscape:pageopacity="0"
     inkscape:pageshadow="2"
     inkscape:window-width="1366"
     inkscape:window-height="715"
     id="namedview22"
     showgrid="false"
     inkscape:zoom="0.5056885"
     inkscape:cx="182.04322"
     inkscape:cy="354.416"
     inkscape:window-x="-8"
     inkscape:window-y="-8"
     inkscape:window-maximized="1"
     inkscape:current-layer="layer2" />
  <defs
     id="defs4">
    <radialGradient
       id="rg"
       gradientUnits="userSpaceOnUse"
       cx="220"
       cy="220"
       r="405">
      <stop
         style="stop-color:#fff;stop-opacity:.3"
         offset="0"
         id="stop7" />
      <stop
         style="stop-color:#fff;stop-opacity:.2"
         offset=".2"
         id="stop9" />
      <stop
         style="stop-color:#666;stop-opacity:.1"
         offset=".6"
         id="stop11" />
      <stop
         style="stop-color:#000;stop-opacity:.13"
         offset="1"
         id="stop13" />
    </radialGradient>
    <path
       id="shield"
       d="m2,2v257c0,286 298,398 298,398c0,0 298-112 298-398V2z" />
    <radialGradient
       inkscape:collect="always"
       xlink:href="#rg-7"
       id="radialGradient3055-1"
       gradientUnits="userSpaceOnUse"
       cx="220"
       cy="220"
       r="405" />
    <radialGradient
       id="rg-7"
       gradientUnits="userSpaceOnUse"
       cx="220"
       cy="220"
       r="405">
      <stop
         style="stop-color:#fff;stop-opacity:.3"
         offset="0"
         id="stop7-4" />
      <stop
         style="stop-color:#fff;stop-opacity:.2"
         offset=".2"
         id="stop9-0" />
      <stop
         style="stop-color:#666;stop-opacity:.1"
         offset=".6"
         id="stop11-9" />
      <stop
         style="stop-color:#000;stop-opacity:.13"
         offset="1"
         id="stop13-4" />
    </radialGradient>
    <radialGradient
       r="405"
       cy="220"
       cx="220"
       gradientUnits="userSpaceOnUse"
       id="radialGradient3074"
       xlink:href="#rg-7"
       inkscape:collect="always" />
  </defs>
  <g
     inkscape:groupmode="layer"
     id="layer2"
     inkscape:label="Elements"
     style="display:inline">
    <path
       d="M 598,2 V 259 C 598,545 300,657 300,657 300,657 2,545 2,259 V 2 z"
       id="background"
       inkscape:connector-curvature="0"
       style="fill:#ffffff;display:inline" />
    <path
       inkscape:connector-curvature="0"
       style="fill:#aa00aa;display:inline"
       d="m 100,100 0,159 C 100,424.40588 234.8926,515.02021 300,549.15625 365.1074,515.02021 500,424.40588 500,259 l 0,-159 -400,0 z"
       id="path3454" />
    <g
       style="fill:#ffffff;stroke:#000000;display:inline"
       id="g3477"
       transform="matrix(-1.2083651,-0.74468114,0.74468114,-1.2083651,761.28628,836.60655)">
      <path
         inkscape:transform-center-y="8.9694394"
         inkscape:transform-center-x="-4.1224352"
         inkscape:connector-curvature="0"
         sodipodi:nodetypes="ccccccccccccc"
         d="m 583.14489,121.55366 0,0 0,0 0,0 0,0 c 6.86887,-4.41686 11.97909,-13.29714 7.41277,-20.43768 -8.60472,3.40092 -10.63369,13.15605 -8.16467,20.22419 l 0,0 0,0 0,0 0,0 0.37595,0.10674 0.37595,0.10675 z"
         style="fill:#ffffff;fill-opacity:1;stroke:#000000;stroke-width:0.7926712;stroke-linecap:butt;stroke-linejoin:miter;stroke-miterlimit:4;stroke-opacity:1;stroke-dasharray:none"
         id="path3479" />
      <path
         inkscape:transform-center-y="7.7517791"
         inkscape:transform-center-x="-3.8816903"
         inkscape:connector-curvature="0"
         sodipodi:nodetypes="ccccccccccccc"
         d="m 539.10629,240.80112 0,0 0,0 0,0 0,0 c 6.46773,-3.81725 11.27952,-11.49198 6.97987,-17.66314 -8.10221,2.93923 -10.01269,11.37004 -7.68786,17.47863 l 0,0 0,0 0,0 0,0 0.35399,0.0922 0.354,0.0923 z"
         style="fill:#ffffff;fill-opacity:1;stroke:#000000;stroke-width:0.71506345;stroke-linecap:butt;stroke-linejoin:miter;stroke-miterlimit:4;stroke-opacity:1;stroke-dasharray:none;display:inline"
         id="path3481" />
      <path
         inkscape:transform-center-y="3.5421086"
         inkscape:transform-center-x="6.8003449"
         inkscape:connector-curvature="0"
         sodipodi:nodetypes="ccccccccccccc"
         d="m 489.98363,162.43598 0,0 0,0 0,0 0,0 c 3.31337,5.9649 9.97504,10.40258 15.33162,6.43721 -2.55125,-7.4723 -9.8692,-9.23425 -15.17146,-7.09016 l 0,0 0,0 0,0 0,0 -0.0801,0.32648 -0.0801,0.32647 z"
         style="fill:#ffffff;fill-opacity:1;stroke:#000000;stroke-width:0.63977885;stroke-linecap:butt;stroke-linejoin:miter;stroke-miterlimit:4;stroke-opacity:1;stroke-dasharray:none;display:inline"
         id="path3483" />
      <path
         inkscape:transform-center-y="3.5032462"
         inkscape:transform-center-x="9.2844811"
         inkscape:connector-curvature="0"
         sodipodi:nodetypes="ccccccccccccc"
         d="m 622.85545,176.22697 0,0 0,0 0,0 0,0 c 4.52374,5.89945 13.61893,10.28845 20.93226,6.36658 -3.48323,-7.39031 -13.47442,-9.13294 -20.71359,-7.01238 l 0,0 0,0 0,0 0,0 -0.10934,0.3229 -0.10933,0.3229 z"
         style="fill:#ffffff;fill-opacity:1;stroke:#000000;stroke-width:0.74344414;stroke-linecap:butt;stroke-linejoin:miter;stroke-miterlimit:4;stroke-opacity:1;stroke-dasharray:none;display:inline"
         id="path3485" />
      <g
         transform="matrix(2.0510784,0,0,2.0729578,422.85885,-620.66988)"
         id="g3487"
         style="fill:#ffffff;stroke:#000000;stroke-width:0.43947107;stroke-miterlimit:4;stroke-dasharray:none">
        <rect
           ry="6.1668625"
           transform="matrix(0.85819884,-0.51331739,0.60247325,0.79813907,0,0)"
           y="346.9212"
           x="-200.07394"
           height="37.4548"
           width="47.090694"
           id="rect3489"
           style="fill:#ffffff;fill-opacity:1;stroke:#000000;stroke-width:0.44074622;stroke-opacity:1" />
      </g>
    </g>
    <g
       transform="matrix(-1.2083651,-0.74468114,0.74468114,-1.2083651,951.93834,836.60655)"
       id="g3491"
       style="fill:#ffffff;stroke:#000000;display:inline">
      <path
         id="path3493"
         style="fill:#ffffff;fill-opacity:1;stroke:#000000;stroke-width:0.7926712;stroke-linecap:butt;stroke-linejoin:miter;stroke-miterlimit:4;stroke-opacity:1;stroke-dasharray:none"
         d="m 583.14489,121.55366 0,0 0,0 0,0 0,0 c 6.86887,-4.41686 11.97909,-13.29714 7.41277,-20.43768 -8.60472,3.40092 -10.63369,13.15605 -8.16467,20.22419 l 0,0 0,0 0,0 0,0 0.37595,0.10674 0.37595,0.10675 z"
         sodipodi:nodetypes="ccccccccccccc"
         inkscape:connector-curvature="0"
         inkscape:transform-center-x="-4.1224352"
         inkscape:transform-center-y="8.9694394" />
      <path
         id="path3495"
         style="fill:#ffffff;fill-opacity:1;stroke:#000000;stroke-width:0.71506345;stroke-linecap:butt;stroke-linejoin:miter;stroke-miterlimit:4;stroke-opacity:1;stroke-dasharray:none;display:inline"
         d="m 539.10629,240.80112 0,0 0,0 0,0 0,0 c 6.46773,-3.81725 11.27952,-11.49198 6.97987,-17.66314 -8.10221,2.93923 -10.01269,11.37004 -7.68786,17.47863 l 0,0 0,0 0,0 0,0 0.35399,0.0922 0.354,0.0923 z"
         sodipodi:nodetypes="ccccccccccccc"
         inkscape:connector-curvature="0"
         inkscape:transform-center-x="-3.8816903"
         inkscape:transform-center-y="7.7517791" />
      <path
         id="path3497"
         style="fill:#ffffff;fill-opacity:1;stroke:#000000;stroke-width:0.63977885;stroke-linecap:butt;stroke-linejoin:miter;stroke-miterlimit:4;stroke-opacity:1;stroke-dasharray:none;display:inline"
         d="m 489.98363,162.43598 0,0 0,0 0,0 0,0 c 3.31337,5.9649 9.97504,10.40258 15.33162,6.43721 -2.55125,-7.4723 -9.8692,-9.23425 -15.17146,-7.09016 l 0,0 0,0 0,0 0,0 -0.0801,0.32648 -0.0801,0.32647 z"
         sodipodi:nodetypes="ccccccccccccc"
         inkscape:connector-curvature="0"
         inkscape:transform-center-x="6.8003449"
         inkscape:transform-center-y="3.5421086" />
      <path
         id="path3499"
         style="fill:#ffffff;fill-opacity:1;stroke:#000000;stroke-width:0.74344414;stroke-linecap:butt;stroke-linejoin:miter;stroke-miterlimit:4;stroke-opacity:1;stroke-dasharray:none;display:inline"
         d="m 622.85545,176.22697 0,0 0,0 0,0 0,0 c 4.52374,5.89945 13.61893,10.28845 20.93226,6.36658 -3.48323,-7.39031 -13.47442,-9.13294 -20.71359,-7.01238 l 0,0 0,0 0,0 0,0 -0.10934,0.3229 -0.10933,0.3229 z"
         sodipodi:nodetypes="ccccccccccccc"
         inkscape:connector-curvature="0"
         inkscape:transform-center-x="9.2844811"
         inkscape:transform-center-y="3.5032462" />
      <g
         style="fill:#ffffff;stroke:#000000;stroke-width:0.43947107;stroke-miterlimit:4;stroke-dasharray:none"
         id="g3501"
         transform="matrix(2.0510784,0,0,2.0729578,422.85885,-620.66988)">
        <rect
           style="fill:#ffffff;fill-opacity:1;stroke:#000000;stroke-width:0.44074622;stroke-opacity:1"
           id="rect3503"
           width="47.090694"
           height="37.4548"
           x="-200.07394"
           y="346.9212"
           transform="matrix(0.85819884,-0.51331739,0.60247325,0.79813907,0,0)"
           ry="6.1668625" />
      </g>
    </g>
    <g
       transform="matrix(-1.2083651,-0.74468114,0.74468114,-1.2083651,856.6123,1033.1733)"
       id="g3505"
       style="fill:#ffffff;stroke:#000000;display:inline">
      <path
         id="path3507"
         style="fill:#ffffff;fill-opacity:1;stroke:#000000;stroke-width:0.7926712;stroke-linecap:butt;stroke-linejoin:miter;stroke-miterlimit:4;stroke-opacity:1;stroke-dasharray:none"
         d="m 583.14489,121.55366 0,0 0,0 0,0 0,0 c 6.86887,-4.41686 11.97909,-13.29714 7.41277,-20.43768 -8.60472,3.40092 -10.63369,13.15605 -8.16467,20.22419 l 0,0 0,0 0,0 0,0 0.37595,0.10674 0.37595,0.10675 z"
         sodipodi:nodetypes="ccccccccccccc"
         inkscape:connector-curvature="0"
         inkscape:transform-center-x="-4.1224352"
         inkscape:transform-center-y="8.9694394" />
      <path
         id="path3509"
         style="fill:#ffffff;fill-opacity:1;stroke:#000000;stroke-width:0.71506345;stroke-linecap:butt;stroke-linejoin:miter;stroke-miterlimit:4;stroke-opacity:1;stroke-dasharray:none;display:inline"
         d="m 539.10629,240.80112 0,0 0,0 0,0 0,0 c 6.46773,-3.81725 11.27952,-11.49198 6.97987,-17.66314 -8.10221,2.93923 -10.01269,11.37004 -7.68786,17.47863 l 0,0 0,0 0,0 0,0 0.35399,0.0922 0.354,0.0923 z"
         sodipodi:nodetypes="ccccccccccccc"
         inkscape:connector-curvature="0"
         inkscape:transform-center-x="-3.8816903"
         inkscape:transform-center-y="7.7517791" />
      <path
         id="path3511"
         style="fill:#ffffff;fill-opacity:1;stroke:#000000;stroke-width:0.63977885;stroke-linecap:butt;stroke-linejoin:miter;stroke-miterlimit:4;stroke-opacity:1;stroke-dasharray:none;display:inline"
         d="m 489.98363,162.43598 0,0 0,0 0,0 0,0 c 3.31337,5.9649 9.97504,10.40258 15.33162,6.43721 -2.55125,-7.4723 -9.8692,-9.23425 -15.17146,-7.09016 l 0,0 0,0 0,0 0,0 -0.0801,0.32648 -0.0801,0.32647 z"
         sodipodi:nodetypes="ccccccccccccc"
         inkscape:connector-curvature="0"
         inkscape:transform-center-x="6.8003449"
         inkscape:transform-center-y="3.5421086" />
      <path
         id="path3513"
         style="fill:#ffffff;fill-opacity:1;stroke:#000000;stroke-width:0.74344414;stroke-linecap:butt;stroke-linejoin:miter;stroke-miterlimit:4;stroke-opacity:1;stroke-dasharray:none;display:inline"
         d="m 622.85545,176.22697 0,0 0,0 0,0 0,0 c 4.52374,5.89945 13.61893,10.28845 20.93226,6.36658 -3.48323,-7.39031 -13.47442,-9.13294 -20.71359,-7.01238 l 0,0 0,0 0,0 0,0 -0.10934,0.3229 -0.10933,0.3229 z"
         sodipodi:nodetypes="ccccccccccccc"
         inkscape:connector-curvature="0"
         inkscape:transform-center-x="9.2844811"
         inkscape:transform-center-y="3.5032462" />
      <g
         style="fill:#ffffff;stroke:#000000;stroke-width:0.43947107;stroke-miterlimit:4;stroke-dasharray:none"
         id="g3515"
         transform="matrix(2.0510784,0,0,2.0729578,422.85885,-620.66988)">
        <rect
           style="fill:#ffffff;fill-opacity:1;stroke:#000000;stroke-width:0.44074622;stroke-opacity:1"
           id="rect3517"
           width="47.090694"
           height="37.4548"
           x="-200.07394"
           y="346.9212"
           transform="matrix(0.85819884,-0.51331739,0.60247325,0.79813907,0,0)"
           ry="6.1668625" />
      </g>
    </g>
  </g>
  <g
     inkscape:groupmode="layer"
     id="layer1"
     inkscape:label="Cover"
     style="display:inline"
     sodipodi:insensitive="true">
    <path
       d="m 2,2 v 257 c 0,286 298,398 298,398 0,0 298,-112 298,-398 V 2 z"
       id="shine"
       inkscape:connector-curvature="0"
       style="fill:url(#radialGradient3074);stroke:#000000;stroke-width:3" />
  </g>
</svg>
