<?xml version="1.0" encoding="UTF-8"?>
<svg xmlns="http://www.w3.org/2000/svg" xmlns:xlink="http://www.w3.org/1999/xlink" width="600" height="660">
<defs>
  <radialGradient id="rg" gradientUnits="userSpaceOnUse" cx="220" cy="220" r="405">
    <stop style="stop-color:#fff;stop-opacity:.3" offset="0"/>
    <stop style="stop-color:#fff;stop-opacity:.2" offset=".2"/>
    <stop style="stop-color:#666;stop-opacity:.1" offset=".6"/>
    <stop style="stop-color:#000;stop-opacity:.13" offset="1"/>
  </radialGradient>
  <clipPath id="clip-shield">
    <path id="shield" d="m2,2v257c0,286 298,398 298,398c0,0 298-112 298-398V2z"/>
  </clipPath>
</defs>
<use id="background" xlink:href="#shield" fill="#fff"/>
<g id="star" transform="translate(300,500)scale(75)">
	<path style="fill:#ffdd00;" d="M0,-1 L-0.43388,0.90097 L0.78183,-0.62349 L-0.97493,0.22252 L0.97493,0.22252 L-0.78183,-0.62349 L0.43388,0.90097z"/>
	<path id="triangle" style="fill:#000000;opacity:0.08;" d="m 0,0 0.1543,-0.3223 -0.1543,-0.6777"/>
	<use xlink:href="#triangle" transform="rotate(51.428571429)"/>
	<use xlink:href="#triangle" transform="rotate(102.857142857)"/>
	<use xlink:href="#triangle" transform="rotate(154.285714286)"/>
	<use xlink:href="#triangle" transform="rotate(-154.285714286)"/>
	<use xlink:href="#triangle" transform="rotate(-102.857142857)"/>
	<use xlink:href="#triangle" transform="rotate(-51.428571429)"/>
</g>
<use xlink:href="#star" transform="rotate(51.43,300,300)"/>
<use xlink:href="#star" transform="rotate(102.86,300,300)"/>
<use xlink:href="#star" transform="rotate(154.29,300,300)"/>
<use xlink:href="#star" transform="rotate(-154.29,300,300)"/>
<use xlink:href="#star" transform="rotate(-102.86,300,300)"/>
<use xlink:href="#star" transform="rotate(-51.43,300,300)"/>
<use id="shine" xlink:href="#shield" fill="url(#rg)" stroke="#000" stroke-width="3"/>
</svg>
