<?xml version="1.0" encoding="UTF-8" standalone="no"?>
<svg
   xmlns:dc="http://purl.org/dc/elements/1.1/"
   xmlns:cc="http://creativecommons.org/ns#"
   xmlns:rdf="http://www.w3.org/1999/02/22-rdf-syntax-ns#"
   xmlns:svg="http://www.w3.org/2000/svg"
   xmlns="http://www.w3.org/2000/svg"
   xmlns:xlink="http://www.w3.org/1999/xlink"
   xmlns:sodipodi="http://sodipodi.sourceforge.net/DTD/sodipodi-0.dtd"
   xmlns:inkscape="http://www.inkscape.org/namespaces/inkscape"
   width="600"
   height="660"
   id="svg2"
   version="1.1"
   inkscape:version="0.48.2 r9819"
   sodipodi:docname="House_Cordwayner.svg">
  <metadata
     id="metadata24">
    <rdf:RDF>
      <cc:Work
         rdf:about="">
        <dc:format>image/svg+xml</dc:format>
        <dc:type
           rdf:resource="http://purl.org/dc/dcmitype/StillImage" />
        <dc:title></dc:title>
      </cc:Work>
    </rdf:RDF>
  </metadata>
  <sodipodi:namedview
     pagecolor="#ffffff"
     bordercolor="#666666"
     borderopacity="1"
     objecttolerance="10"
     gridtolerance="10"
     guidetolerance="10"
     inkscape:pageopacity="0"
     inkscape:pageshadow="2"
     inkscape:window-width="1366"
     inkscape:window-height="715"
     id="namedview22"
     showgrid="false"
     inkscape:zoom="0.71515152"
     inkscape:cx="19.333184"
     inkscape:cy="328.11869"
     inkscape:window-x="-8"
     inkscape:window-y="-8"
     inkscape:window-maximized="1"
     inkscape:current-layer="layer2" />
  <defs
     id="defs4">
    <inkscape:path-effect
       is_visible="true"
       id="path-effect3136"
       effect="spiro" />
    <inkscape:path-effect
       effect="spiro"
       id="path-effect3132"
       is_visible="true" />
    <inkscape:path-effect
       effect="spiro"
       id="path-effect3101"
       is_visible="true" />
    <inkscape:path-effect
       is_visible="true"
       id="path-effect3085"
       effect="spiro" />
    <inkscape:path-effect
       is_visible="true"
       id="path-effect3083"
       effect="spiro" />
    <inkscape:path-effect
       is_visible="true"
       id="path-effect3081"
       effect="spiro" />
    <inkscape:path-effect
       is_visible="true"
       id="path-effect3079"
       effect="spiro" />
    <inkscape:path-effect
       is_visible="true"
       id="path-effect3077"
       effect="spiro" />
    <inkscape:path-effect
       is_visible="true"
       id="path-effect3075"
       effect="spiro" />
    <inkscape:path-effect
       effect="spiro"
       id="path-effect3049"
       is_visible="true" />
    <inkscape:path-effect
       is_visible="true"
       id="path-effect3045"
       effect="spiro" />
    <inkscape:path-effect
       effect="spiro"
       id="path-effect3041"
       is_visible="true" />
    <radialGradient
       id="rg"
       gradientUnits="userSpaceOnUse"
       cx="220"
       cy="220"
       r="405">
      <stop
         style="stop-color:#fff;stop-opacity:.3"
         offset="0"
         id="stop7" />
      <stop
         style="stop-color:#fff;stop-opacity:.2"
         offset=".2"
         id="stop9" />
      <stop
         style="stop-color:#666;stop-opacity:.1"
         offset=".6"
         id="stop11" />
      <stop
         style="stop-color:#000;stop-opacity:.13"
         offset="1"
         id="stop13" />
    </radialGradient>
    <path
       id="shield"
       d="m2,2v257c0,286 298,398 298,398c0,0 298-112 298-398V2z" />
    <radialGradient
       inkscape:collect="always"
       xlink:href="#rg-7"
       id="radialGradient3055-1"
       gradientUnits="userSpaceOnUse"
       cx="220"
       cy="220"
       r="405" />
    <radialGradient
       id="rg-7"
       gradientUnits="userSpaceOnUse"
       cx="220"
       cy="220"
       r="405">
      <stop
         style="stop-color:#fff;stop-opacity:.3"
         offset="0"
         id="stop7-4" />
      <stop
         style="stop-color:#fff;stop-opacity:.2"
         offset=".2"
         id="stop9-0" />
      <stop
         style="stop-color:#666;stop-opacity:.1"
         offset=".6"
         id="stop11-9" />
      <stop
         style="stop-color:#000;stop-opacity:.13"
         offset="1"
         id="stop13-4" />
    </radialGradient>
    <radialGradient
       r="405"
       cy="220"
       cx="220"
       gradientUnits="userSpaceOnUse"
       id="radialGradient3074"
       xlink:href="#rg-7"
       inkscape:collect="always" />
    <inkscape:path-effect
       is_visible="true"
       id="path-effect10120-1"
       effect="spiro" />
    <inkscape:path-effect
       effect="spiro"
       id="path-effect10118-3"
       is_visible="true" />
    <inkscape:path-effect
       effect="spiro"
       id="path-effect10116-9"
       is_visible="true" />
    <inkscape:path-effect
       effect="spiro"
       id="path-effect10114-7"
       is_visible="true" />
    <inkscape:path-effect
       effect="spiro"
       id="path-effect10112-7"
       is_visible="true" />
    <inkscape:path-effect
       effect="spiro"
       id="path-effect10110-2"
       is_visible="true" />
    <linearGradient
       inkscape:collect="always"
       xlink:href="#linearGradient4719-5"
       id="linearGradient4039"
       gradientUnits="userSpaceOnUse"
       gradientTransform="matrix(2.3257341,0,0,2.2943177,447.69485,-1820.2799)"
       x1="-145.25935"
       y1="984.24286"
       x2="-64.14286"
       y2="984.14789" />
    <linearGradient
       inkscape:collect="always"
       id="linearGradient4719-5">
      <stop
         style="stop-color:#666666;stop-opacity:1;"
         offset="0"
         id="stop4721-5" />
      <stop
         id="stop4809-1"
         offset="0.39344174"
         style="stop-color:#666666;stop-opacity:0.74901961;" />
      <stop
         style="stop-color:#666666;stop-opacity:0;"
         offset="1"
         id="stop4723-7" />
    </linearGradient>
    <radialGradient
       inkscape:collect="always"
       xlink:href="#linearGradient4801-8"
       id="radialGradient4041"
       gradientUnits="userSpaceOnUse"
       gradientTransform="matrix(-0.72153181,1.2650715,-2.2729984,-1.2616144,1712.0113,1733.7841)"
       cx="-307.14288"
       cy="782.36218"
       fx="-307.14288"
       fy="782.36218"
       r="63" />
    <linearGradient
       inkscape:collect="always"
       id="linearGradient4801-8">
      <stop
         style="stop-color:#000000;stop-opacity:1;"
         offset="0"
         id="stop4803-2" />
      <stop
         style="stop-color:#000000;stop-opacity:0;"
         offset="1"
         id="stop4805-4" />
    </linearGradient>
    <inkscape:path-effect
       effect="spiro"
       id="path-effect10108-4"
       is_visible="true" />
    <linearGradient
       inkscape:collect="always"
       xlink:href="#linearGradient4719-5"
       id="linearGradient4044"
       gradientUnits="userSpaceOnUse"
       gradientTransform="matrix(-2.4055369,0,0,-1.6485021,142.06168,1726.5307)"
       x1="-145.25935"
       y1="984.24286"
       x2="-64.14286"
       y2="984.14789" />
    <radialGradient
       inkscape:collect="always"
       xlink:href="#linearGradient4801-8"
       id="radialGradient4046"
       gradientUnits="userSpaceOnUse"
       gradientTransform="matrix(0.74628962,-0.90897301,2.3509914,0.90648896,-1165.637,-827.11785)"
       cx="-307.14288"
       cy="782.36218"
       fx="-307.14288"
       fy="782.36218"
       r="63" />
    <inkscape:path-effect
       effect="spiro"
       id="path-effect10102-7"
       is_visible="true" />
    <linearGradient
       inkscape:collect="always"
       xlink:href="#linearGradient4719-5"
       id="linearGradient4049"
       gradientUnits="userSpaceOnUse"
       gradientTransform="matrix(2.334989,0,0,-1.6146975,449.44065,1692.189)"
       x1="-145.25935"
       y1="984.24286"
       x2="-64.14286"
       y2="984.14789" />
    <radialGradient
       inkscape:collect="always"
       xlink:href="#linearGradient4801-8"
       id="radialGradient4051"
       gradientUnits="userSpaceOnUse"
       gradientTransform="matrix(-0.72440295,-0.89033332,-2.2820431,0.88790031,1718.7881,-809.09364)"
       cx="-307.14288"
       cy="782.36218"
       fx="-307.14288"
       fy="782.36218"
       r="63" />
    <inkscape:path-effect
       is_visible="true"
       id="path-effect10096-8"
       effect="spiro" />
    <linearGradient
       inkscape:collect="always"
       xlink:href="#linearGradient4719-5"
       id="linearGradient4054"
       gradientUnits="userSpaceOnUse"
       gradientTransform="matrix(-2.409599,0,0,2.2818507,139.61083,-1810.8163)"
       x1="-145.25935"
       y1="984.24286"
       x2="-64.14286"
       y2="984.14789" />
    <radialGradient
       inkscape:collect="always"
       xlink:href="#linearGradient4801-8"
       id="radialGradient4056"
       gradientUnits="userSpaceOnUse"
       gradientTransform="matrix(0.74754985,1.2581972,2.3549614,-1.2547588,-1170.296,1723.935)"
       cx="-307.14288"
       cy="782.36218"
       fx="-307.14288"
       fy="782.36218"
       r="63" />
    <inkscape:path-effect
       is_visible="true"
       id="path-effect10090-3"
       effect="spiro" />
    <inkscape:path-effect
       effect="spiro"
       id="path-effect10084-1"
       is_visible="true" />
    <inkscape:path-effect
       effect="spiro"
       id="path-effect10082-1"
       is_visible="true" />
    <radialGradient
       inkscape:collect="always"
       xlink:href="#linearGradient4801-8"
       id="radialGradient4061"
       gradientUnits="userSpaceOnUse"
       gradientTransform="matrix(-0.76516322,1.2901254,-2.4104477,-1.2865998,1806.8444,1757.4704)"
       cx="-307.14288"
       cy="782.36218"
       fx="-307.14288"
       fy="782.36218"
       r="63" />
    <inkscape:path-effect
       effect="spiro"
       id="path-effect10080-4"
       is_visible="true" />
    <inkscape:path-effect
       is_visible="true"
       id="path-effect3075-1"
       effect="spiro" />
    <inkscape:path-effect
       effect="spiro"
       id="path-effect3101-7"
       is_visible="true" />
    <linearGradient
       inkscape:collect="always"
       xlink:href="#grad1-7-7"
       id="linearGradient3085-8-8"
       gradientUnits="userSpaceOnUse"
       gradientTransform="matrix(0.77469594,0,0,0.30982404,152.68996,-13.619206)"
       x1="78.877235"
       y1="178.07356"
       x2="301.40585"
       y2="178.07356" />
    <linearGradient
       id="grad1-7-7"
       x1="78.877235"
       y1="178.07356"
       x2="301.40585"
       y2="178.07356"
       gradientTransform="scale(1.577772,0.63380513)"
       gradientUnits="userSpaceOnUse">
      <stop
         offset="0%"
         style="stop-color:#da0;"
         id="stop16-4-4" />
      <stop
         offset="40%"
         style="stop-color:#fd0;"
         id="stop18-0-0" />
      <stop
         offset="60%"
         style="stop-color:#fd0;"
         id="stop20-9-9" />
      <stop
         offset="100%"
         style="stop-color:#da0;"
         id="stop22-4-4" />
    </linearGradient>
    <linearGradient
       inkscape:collect="always"
       xlink:href="#grad1-7-7"
       id="linearGradient3081-8-8"
       gradientUnits="userSpaceOnUse"
       gradientTransform="matrix(0.77469594,0,0,0.30982404,-27.310046,-13.619206)"
       x1="78.877235"
       y1="178.07356"
       x2="301.40585"
       y2="178.07356" />
    <linearGradient
       id="linearGradient3093"
       x1="78.877235"
       y1="178.07356"
       x2="301.40585"
       y2="178.07356"
       gradientTransform="scale(1.577772,0.63380513)"
       gradientUnits="userSpaceOnUse">
      <stop
         offset="0%"
         style="stop-color:#da0;"
         id="stop3095" />
      <stop
         offset="40%"
         style="stop-color:#fd0;"
         id="stop3097" />
      <stop
         offset="60%"
         style="stop-color:#fd0;"
         id="stop3099" />
      <stop
         offset="100%"
         style="stop-color:#da0;"
         id="stop3101" />
    </linearGradient>
    <linearGradient
       y2="178.07356"
       x2="301.40585"
       y1="178.07356"
       x1="78.877235"
       gradientTransform="matrix(0.77469594,0,0,0.30982404,332.68995,-13.619206)"
       gradientUnits="userSpaceOnUse"
       id="linearGradient3128-1"
       xlink:href="#grad1-7-7"
       inkscape:collect="always" />
    <linearGradient
       id="linearGradient3104"
       x1="78.877235"
       y1="178.07356"
       x2="301.40585"
       y2="178.07356"
       gradientTransform="scale(1.577772,0.63380513)"
       gradientUnits="userSpaceOnUse">
      <stop
         offset="0%"
         style="stop-color:#da0;"
         id="stop3106" />
      <stop
         offset="40%"
         style="stop-color:#fd0;"
         id="stop3108" />
      <stop
         offset="60%"
         style="stop-color:#fd0;"
         id="stop3110" />
      <stop
         offset="100%"
         style="stop-color:#da0;"
         id="stop3112" />
    </linearGradient>
    <inkscape:path-effect
       is_visible="true"
       id="path-effect3061"
       effect="spiro" />
  </defs>
  <g
     inkscape:groupmode="layer"
     id="layer2"
     inkscape:label="Elements"
     style="display:inline">
    <path
       inkscape:connector-curvature="0"
       d="m 2,2 v 257 c 0,286 298,398 298,398 0,0 298,-112 298,-398 V 2 z"
       id="path13"
       style="fill:#008800;fill-opacity:1;stroke:none;display:inline" />
    <path
       inkscape:connector-curvature="0"
       style="fill:#ffdd00;display:inline"
       d="M 48,2 2,48 2,52 49.9375,99.9375 2,147.84375 l 0,4 L 49.90625,199.75 2,247.65625 l 0,4 47.9375,47.90625 -39.65625,39.65625 c 1.98762,9.38306 4.287477,18.54786 6.90625,27.46875 l 32.75,32.75 -15.03125,15.03125 C 45.272654,437.47618 57.593032,458.67517 71.1875,478.125 L 100,449.34375 50.0625,399.4375 100,349.5 50.0625,299.5625 100,249.65625 50.09375,199.75 100,149.84375 50.0625,99.9375 100,50 52,2 48,2 z M 100,50 149.9375,99.9375 100,149.84375 149.90625,199.75 100,249.65625 149.9375,299.5625 100,349.5 149.9375,399.4375 100,449.34375 149.9375,499.25 116.40625,532.78125 c 17.24873,17.82044 35.15634,33.51984 52.71875,47.28125 L 200,549.1875 150.0625,499.25 200,449.34375 150.0625,399.4375 200,349.5 150.0625,299.5625 200,249.65625 150.09375,199.75 200,149.84375 150.0625,99.9375 200,50 152,2 148,2 100,50 z M 200,50 249.9375,99.9375 200,149.84375 249.90625,199.75 200,249.65625 249.9375,299.5625 200,349.5 249.9375,399.4375 200,449.34375 249.9375,499.25 200,549.1875 l 49.90625,49.90625 -21.625,21.625 c 30.88416,18.55555 55.48499,29.56067 66.03125,33.96875 L 300,649 250.09375,599.09375 300,549.1875 250.0625,499.25 300,449.34375 250.0625,399.4375 300,349.5 250.0625,299.5625 300,249.65625 250.09375,199.75 300,149.84375 250.0625,99.9375 300,50 252,2 248,2 200,50 z M 300,50 349.9375,99.9375 300,149.84375 349.90625,199.75 300,249.65625 349.9375,299.5625 300,349.5 349.9375,399.4375 300,449.34375 349.9375,499.25 300,549.1875 349.90625,599.09375 300,649 l 5.6875,5.6875 c 10.54626,-4.40808 35.14709,-15.4132 66.03125,-33.96875 l -21.625,-21.625 49.875,-49.90625 L 350.0625,499.28125 400,449.375 449.90625,499.28125 400,549.1875 l 30.875,30.875 c 17.5572,-13.75733 35.4435,-29.46732 52.6875,-47.28125 L 450.0625,499.25 499.96875,449.34375 450.0625,399.4375 499.96875,349.5 450.0625,299.5625 499.96875,249.65625 450.0625,199.75 499.96875,149.84375 450.0625,99.9375 499.96875,50 l -48,-48 -4,0 L 400,50 399.96875,50 352,2 348,2 300,50 z M 499.96875,50 549.875,99.9375 499.96875,149.84375 549.875,199.75 499.96875,249.65625 549.875,299.5625 499.96875,349.5 l 49.90625,49.9375 -49.90625,49.90625 28.8125,28.8125 c 13.60434,-19.45962 25.93974,-40.66597 36.3125,-63.6875 l -15.03125,-15.03125 32.75,-32.75 c 2.61598,-8.91139 4.92004,-18.06493 6.90625,-27.4375 L 550.0625,299.5625 598,251.625 598,247.6875 550.0625,199.75 598,151.8125 598,147.875 550.0625,99.9375 598,51.96875 598,48.03125 551.96875,2 l -4,0 -48,48 z m -100,0.03125 L 449.875,99.9375 400,149.8125 350.09375,99.90625 l 49.875,-49.875 z M 400,149.875 449.875,199.75 400,249.625 350.09375,199.75 400,149.875 z m 0,99.8125 49.90625,49.90625 L 400,349.5 l -0.0312,0 L 350.0625,299.59375 400,249.6875 z m -0.0312,99.84375 49.90625,49.90625 -49.875,49.875 -49.90625,-49.90625 49.875,-49.875 z"
       id="path3031" />
    <g
       id="g3169"
       transform="matrix(1.2728777,0,0,1.2723488,-158.14967,-143.84208)"
       style="fill:#000000;stroke:#333333;stroke-width:0.78578472">
      <g
         transform="matrix(-1.6370416,0,0,1.6370416,607.98042,-1219.8739)"
         id="g3229"
         style="fill:#000000;stroke:#333333;stroke-width:0.78578472;display:inline">
        <path
           style="opacity:0.98999999;color:#000000;fill:#000000;fill-opacity:1;fill-rule:nonzero;stroke:#333333;stroke-width:1.55482399;stroke-linecap:square;stroke-linejoin:miter;stroke-miterlimit:4;stroke-opacity:1;stroke-dasharray:none;stroke-dashoffset:0;marker:none;visibility:visible;display:inline;overflow:visible;enable-background:accumulate"
           d="m 90.578272,933.90424 c 0.08703,3.42036 -0.962901,5.70376 0.385514,8.84346 4.979535,-1.41355 26.158584,-0.12851 29.036214,-1.34931 1.90732,-3.64784 0,-6.02414 0,-9.03621 -9.68892,-2.03339 -21.732932,0.57525 -29.421728,1.54206 z"
           id="path3205"
           inkscape:connector-curvature="0"
           sodipodi:nodetypes="ccccc" />
        <path
           style="opacity:0.98999999;color:#000000;fill:#000000;fill-opacity:1;fill-rule:nonzero;stroke:#333333;stroke-width:1.55482399;stroke-linecap:square;stroke-linejoin:miter;stroke-miterlimit:4;stroke-opacity:1;stroke-dasharray:none;stroke-dashoffset:0;marker:none;visibility:visible;display:inline;overflow:visible;enable-background:accumulate"
           d="m 83.419121,912.36218 c -0.375538,7.31223 -0.654249,12.17872 5,22.50584 5.403452,3.35778 21.580879,-2.50584 32.439789,0.0951 6.96943,1.66935 14.14109,2.39902 22.56021,2.39902 27.04106,0.312 58.98183,3.87375 75,-5 5.19672,-3.98292 2.88201,-7.02692 0,-10 -22.07976,5.73486 -40.59147,-6.66667 -60,-10 -11.84556,-13.12523 -12.35665,-14.03711 -14.22897,-20.18107 -1.0287,-2.18653 -0.0685,-5.3847 -0.33889,-7.33234 -0.91638,-4.324 -7.52545,-3.22364 -7.51177,-4.22436 1.8191,-0.42903 8.66694,-0.39603 7.27164,-6.56133 -0.75779,-3.78744 0.76349,-9.25654 0.96453,-14.77333 l -56.156539,-1.92757 c -0.149769,7.75831 -0.738462,18.17613 1.06111,28.82651 0.694675,4.7303 -0.230059,7.02974 -0.759618,9.77386 -5.458664,6.15938 -4.073271,9.0303 -5.301492,16.39963 z"
           id="path3207"
           inkscape:connector-curvature="0"
           sodipodi:nodetypes="ccsccccccccccccc" />
        <path
           style="opacity:0.98999999;color:#000000;fill:#000000;fill-opacity:1;fill-rule:nonzero;stroke:#333333;stroke-width:1.55482399;stroke-linecap:square;stroke-linejoin:miter;stroke-miterlimit:4;stroke-opacity:1;stroke-dasharray:none;stroke-dashoffset:0;marker:none;visibility:visible;display:inline;overflow:visible;enable-background:accumulate"
           d="m 83.419121,827.36218 c -4.594709,1.54839 0.716629,6.67624 0.303717,12.06112 -0.573908,7.48447 1.303736,10.44749 6.467842,8.46908 -3.01478,1.03351 -1.127695,0.20796 -5.39855,2.06561 -2.803717,0.76672 -2.496915,9.80885 -1.373009,12.40419 6.183741,1.92946 11.596454,-0.50023 17.394679,-0.79195 11.31883,-0.56948 18.01149,-1.64999 29.33032,-1.07224 4.54961,0.23223 16.61674,5.84338 18.275,1.86419 1.40404,-3.07227 1.74536,-3.25464 1.9121,-14.32976 0.11326,-2.95497 0.44229,-3.76074 -1.75911,-4.92697 -1.53494,-0.81317 -4.6708,-1.28865 -5.15865,-1.62273 -1.05182,-0.72028 4.78268,0.56608 6.40635,-2.15596 -0.33743,-3.75516 2.07111,-7.38648 -1.40069,-11.96458 -6.63621,-1.24636 -10.28832,0.11264 -15.25804,-0.24263 -14.67745,-1.04925 -29.07856,-3.6006 -49.741959,0.24263 z"
           id="path3209"
           inkscape:connector-curvature="0"
           sodipodi:nodetypes="csccccccccccccc" />
        <path
           style="opacity:0.98999999;color:#000000;fill:#000000;fill-opacity:1;fill-rule:nonzero;stroke:#333333;stroke-width:1.55482399;stroke-linecap:square;stroke-linejoin:miter;stroke-miterlimit:4;stroke-opacity:1;stroke-dasharray:none;stroke-dashoffset:0;marker:none;visibility:visible;display:inline;overflow:visible;enable-background:accumulate"
           d="m 138.60019,880.23017 c -7.59439,1.00383 -5.98974,0.11296 -10.94042,0.9521"
           id="path3211"
           inkscape:connector-curvature="0"
           sodipodi:nodetypes="cc" />
        <path
           style="opacity:0.98999999;color:#000000;fill:#000000;fill-opacity:1;fill-rule:nonzero;stroke:#333333;stroke-width:1.55482399;stroke-linecap:square;stroke-linejoin:miter;stroke-miterlimit:4;stroke-opacity:1;stroke-dasharray:none;stroke-dashoffset:0;marker:none;visibility:visible;display:inline;overflow:visible;enable-background:accumulate"
           d="m 100.2687,893.3026 c -5.570898,2.72698 -5.249914,0.92268 -9.795564,2.10865"
           id="path3213"
           inkscape:connector-curvature="0"
           sodipodi:nodetypes="cc" />
        <path
           style="opacity:0.98999999;color:#000000;fill:#000000;fill-opacity:1;fill-rule:nonzero;stroke:#333333;stroke-width:1.55482399;stroke-linecap:square;stroke-linejoin:miter;stroke-miterlimit:4;stroke-opacity:1;stroke-dasharray:none;stroke-dashoffset:0;marker:none;visibility:visible;display:inline;overflow:visible;enable-background:accumulate"
           d="m 88.28271,456.25584 c 3.693693,-1.42097 7.261407,-2.89202 9.05958,-2.89135"
           id="path3227"
           inkscape:connector-curvature="0"
           transform="translate(0,392.36218)"
           sodipodi:nodetypes="cc" />
      </g>
      <g
         style="fill:#000000;stroke:#333333;stroke-width:0.78578472;display:inline"
         id="g3155"
         transform="matrix(-1.6370416,0,0,1.6370416,607.98042,-993.34846)">
        <path
           sodipodi:nodetypes="ccccc"
           inkscape:connector-curvature="0"
           id="path3157"
           d="m 90.578272,933.90424 c 0.08703,3.42036 -0.962901,5.70376 0.385514,8.84346 4.979535,-1.41355 26.158584,-0.12851 29.036214,-1.34931 1.90732,-3.64784 0,-6.02414 0,-9.03621 -9.68892,-2.03339 -21.732932,0.57525 -29.421728,1.54206 z"
           style="opacity:0.98999999;color:#000000;fill:#000000;fill-opacity:1;fill-rule:nonzero;stroke:#333333;stroke-width:1.55482399;stroke-linecap:square;stroke-linejoin:miter;stroke-miterlimit:4;stroke-opacity:1;stroke-dasharray:none;stroke-dashoffset:0;marker:none;visibility:visible;display:inline;overflow:visible;enable-background:accumulate" />
        <path
           sodipodi:nodetypes="ccsccccccccccccc"
           inkscape:connector-curvature="0"
           id="path3159"
           d="m 83.419121,912.36218 c -0.375538,7.31223 -0.654249,12.17872 5,22.50584 5.403452,3.35778 21.580879,-2.50584 32.439789,0.0951 6.96943,1.66935 14.14109,2.39902 22.56021,2.39902 27.04106,0.312 58.98183,3.87375 75,-5 5.19672,-3.98292 2.88201,-7.02692 0,-10 -22.07976,5.73486 -40.59147,-6.66667 -60,-10 -11.84556,-13.12523 -12.35665,-14.03711 -14.22897,-20.18107 -1.0287,-2.18653 -0.0685,-5.3847 -0.33889,-7.33234 -0.91638,-4.324 -7.52545,-3.22364 -7.51177,-4.22436 1.8191,-0.42903 8.66694,-0.39603 7.27164,-6.56133 -0.75779,-3.78744 0.76349,-9.25654 0.96453,-14.77333 l -56.156539,-1.92757 c -0.149769,7.75831 -0.738462,18.17613 1.06111,28.82651 0.694675,4.7303 -0.230059,7.02974 -0.759618,9.77386 -5.458664,6.15938 -4.073271,9.0303 -5.301492,16.39963 z"
           style="opacity:0.98999999;color:#000000;fill:#000000;fill-opacity:1;fill-rule:nonzero;stroke:#333333;stroke-width:1.55482399;stroke-linecap:square;stroke-linejoin:miter;stroke-miterlimit:4;stroke-opacity:1;stroke-dasharray:none;stroke-dashoffset:0;marker:none;visibility:visible;display:inline;overflow:visible;enable-background:accumulate" />
        <path
           sodipodi:nodetypes="csccccccccccccc"
           inkscape:connector-curvature="0"
           id="path3161"
           d="m 83.419121,827.36218 c -4.594709,1.54839 0.716629,6.67624 0.303717,12.06112 -0.573908,7.48447 1.303736,10.44749 6.467842,8.46908 -3.01478,1.03351 -1.127695,0.20796 -5.39855,2.06561 -2.803717,0.76672 -2.496915,9.80885 -1.373009,12.40419 6.183741,1.92946 11.596454,-0.50023 17.394679,-0.79195 11.31883,-0.56948 18.01149,-1.64999 29.33032,-1.07224 4.54961,0.23223 16.61674,5.84338 18.275,1.86419 1.40404,-3.07227 1.74536,-3.25464 1.9121,-14.32976 0.11326,-2.95497 0.44229,-3.76074 -1.75911,-4.92697 -1.53494,-0.81317 -4.6708,-1.28865 -5.15865,-1.62273 -1.05182,-0.72028 4.78268,0.56608 6.40635,-2.15596 -0.33743,-3.75516 2.07111,-7.38648 -1.40069,-11.96458 -6.63621,-1.24636 -10.28832,0.11264 -15.25804,-0.24263 -14.67745,-1.04925 -29.07856,-3.6006 -49.741959,0.24263 z"
           style="opacity:0.98999999;color:#000000;fill:#000000;fill-opacity:1;fill-rule:nonzero;stroke:#333333;stroke-width:1.55482399;stroke-linecap:square;stroke-linejoin:miter;stroke-miterlimit:4;stroke-opacity:1;stroke-dasharray:none;stroke-dashoffset:0;marker:none;visibility:visible;display:inline;overflow:visible;enable-background:accumulate" />
        <path
           sodipodi:nodetypes="cc"
           inkscape:connector-curvature="0"
           id="path3163"
           d="m 138.60019,880.23017 c -7.59439,1.00383 -5.98974,0.11296 -10.94042,0.9521"
           style="opacity:0.98999999;color:#000000;fill:#000000;fill-opacity:1;fill-rule:nonzero;stroke:#333333;stroke-width:1.55482399;stroke-linecap:square;stroke-linejoin:miter;stroke-miterlimit:4;stroke-opacity:1;stroke-dasharray:none;stroke-dashoffset:0;marker:none;visibility:visible;display:inline;overflow:visible;enable-background:accumulate" />
        <path
           sodipodi:nodetypes="cc"
           inkscape:connector-curvature="0"
           id="path3165"
           d="m 100.2687,893.3026 c -5.570898,2.72698 -5.249914,0.92268 -9.795564,2.10865"
           style="opacity:0.98999999;color:#000000;fill:#000000;fill-opacity:1;fill-rule:nonzero;stroke:#333333;stroke-width:1.55482399;stroke-linecap:square;stroke-linejoin:miter;stroke-miterlimit:4;stroke-opacity:1;stroke-dasharray:none;stroke-dashoffset:0;marker:none;visibility:visible;display:inline;overflow:visible;enable-background:accumulate" />
        <path
           sodipodi:nodetypes="cc"
           transform="translate(0,392.36218)"
           inkscape:connector-curvature="0"
           id="path3167"
           d="m 88.28271,456.25584 c 3.693693,-1.42097 7.261407,-2.89202 9.05958,-2.89135"
           style="opacity:0.98999999;color:#000000;fill:#000000;fill-opacity:1;fill-rule:nonzero;stroke:#333333;stroke-width:1.55482399;stroke-linecap:square;stroke-linejoin:miter;stroke-miterlimit:4;stroke-opacity:1;stroke-dasharray:none;stroke-dashoffset:0;marker:none;visibility:visible;display:inline;overflow:visible;enable-background:accumulate" />
      </g>
    </g>
  </g>
  <g
     inkscape:groupmode="layer"
     id="layer1"
     inkscape:label="Cover"
     style="display:inline"
     sodipodi:insensitive="true">
    <path
       d="m 2,2 v 257 c 0,286 298,398 298,398 0,0 298,-112 298,-398 V 2 z"
       id="shine"
       inkscape:connector-curvature="0"
       style="fill:url(#radialGradient3074);stroke:#000000;stroke-width:3" />
  </g>
</svg>
