<svg xmlns="http://www.w3.org/2000/svg" width="600" height="660" xmlns:xlink="http://www.w3.org/1999/xlink">
<defs>
  <radialGradient id="rg" gradientUnits="userSpaceOnUse" cx="220" cy="220" r="405">
    <stop style="stop-color:#ffffff;stop-opacity:.3" offset="0" />
    <stop style="stop-color:#ffffff;stop-opacity:.2" offset="0.2" />
    <stop style="stop-color:#666666;stop-opacity:.1" offset="0.6" />
    <stop style="stop-color:#000000;stop-opacity:.13" offset="1" />
  </radialGradient>
  <path id="shield" d="m 2 2 v 257 c 0 286 298 398 298 398 c 0 0 298 -112 298 -398 V 2 Z" />
</defs>
<use id="bg" style="fill:#cc0000;" xlink:href="#shield" />
<path style="fill:#009900;" d="m 334.60761,572.84966 c 9.83026,9.18457 15.22225,20.48657 16.17565,33.9063 6.09873,-14.81413 6.34259,-29.7243 0.73125,-44.73023 -5.61134,-15.00594 -5.36748,-29.91611 0.73158,-44.73052 3.69879,12.89571 11.29091,22.81 22.77636,29.74288 11.48544,6.93288 19.07756,16.84717 22.77638,29.74326 3.20528,-14.9003 0.91264,-28.90065 -6.87792,-42.00069 -7.79056,-13.10005 -10.0832,-27.1004 -6.87794,-42.00107 6.341,11.97854 15.91028,20.19925 28.7078,24.66211 12.79751,4.46287 22.36679,12.68358 28.7079,24.66227 0.33759,-14.63656 -4.34988,-27.43252 -14.06229,-38.3877 -9.71241,-10.9552 -14.39988,-23.75116 -14.0624,-38.38786 8.81191,10.64529 20.06835,16.8702 33.76929,18.67473 13.70094,1.80452 24.95738,8.02944 33.76954,18.67481 -2.45661,-14.00318 -9.34952,-25.29957 -20.67852,-33.88914 -11.329,-8.58957 -18.22192,-19.88598 -20.67969,-33.88965 11.01453,8.86853 23.57575,12.80474 37.6827,11.80818 14.10694,-0.99657 26.66816,2.93964 37.6836,11.80863 -5.11514,-12.9714 -13.96011,-22.46942 -26.53493,-28.49403 -12.57482,-6.02462 -21.41979,-15.52264 -26.5364,-28.49456 12.84208,6.65865 26.23532,8.0583 40.17819,4.19845 13.94286,-3.85985 27.3361,-2.4602 40.17227,4.19364 -7.54678,-11.51127 -17.99351,-18.91481 -31.3476,-22.21594 -13.35409,-3.30113 -23.80083,-10.70468 -31.3402,-22.21063 14.19375,4.07264 27.87674,2.77198 41.04896,-3.90196 13.17223,-6.67393 26.85522,-7.97458 41.04861,-3.90201 -9.63412,-9.62505 -21.25547,-14.68636 -34.86439,-15.18398 -13.60891,-0.49763 -25.23026,-5.55894 -34.86345,-15.18411 15.02201,1.22632 28.45375,-2.8218 40.2958,-12.14454 11.84204,-9.32273 25.27378,-13.37085 40.29521,-12.14436 -11.30786,-7.37708 -23.61481,-9.92125 -36.92084,-7.6325 -13.30604,2.28874 -25.61299,-0.25542 -36.9208,-7.6328 15.37659,-1.73515 28.10848,-8.4698 38.19567,-20.20423 10.08719,-11.7344 22.81908,-18.46905 38.2041,-20.20782 -12.51107,-4.86288 -25.01107,-4.81314 -37.49153,0.14533 -12.48047,4.95847 -24.98047,5.00821 -37.5,0.14923 16.17059,-4.43838 28.67059,-13.78549 37.5,-28.04133 8.8294,-14.25584 21.3294,-23.60295 37.5,-28.04127 -13.54186,-2.25558 -26.04187,0.39749 -37.5,7.9593 -11.45814,7.56181 -23.95815,10.21489 -37.5,7.95924 17.19284,-7.04153 29.69284,-18.99181 37.5,-35.85081 7.80715,-16.85899 20.30715,-28.80926 37.5,-35.85076 -14.56425,0.34788 -27.06425,5.60446 -37.5,15.76975 -10.43576,10.1653 -22.93576,15.42187 -37.5,15.76971 18.21519,-9.64491 30.71519,-24.19856 37.5,-43.66093 6.78481,-19.46236 19.2848,-34.016 37.5,-43.66113 -15.58664,2.95117 -28.08665,10.81127 -37.5,23.58009 -9.41335,12.76882 -21.91336,20.62892 -37.5,23.58008 19.18632,-12.11814 31.68633,-29.1448 37.5,-51.080184 5.81366,-21.935373 18.31367,-38.962036 37.50034,-51.080081 -21.93504,5.813545 -38.9617,18.313555 -51.07962,37.499885 -12.11792,19.18635 -29.14459,31.68634 -51.07974,37.49979 12.76873,-9.41367 20.62852,-21.91368 23.57959,-37.50021 2.95106,-15.58652 10.81086,-28.08653 23.58013,-37.5 -19.16954,6.89951 -33.4311,19.39952 -42.78391,37.5 -9.35283,18.10048 -23.61438,30.60049 -42.78466,37.5 10.00352,-10.49928 15.09832,-22.99928 15.28438,-37.5 0.18607,-14.50071 5.28086,-27.00071 15.28454,-37.5 -16.40495,7.98541 -27.9013,20.48541 -34.48892,37.5 -6.58763,17.0146 -18.08398,29.5146 -34.48906,37.5 7.23833,-11.58516 9.56793,-24.08517 6.98881,-37.5 -2.57913,-13.41482 -0.24952,-25.91483 6.98893,-37.5 -13.63976,9.0713 -22.37091,21.571302 -26.19333,37.5 -3.82242,15.928712 -12.55359,28.42871 -26.19346,37.5 4.47309,-12.67106 4.03745,-25.17107 -1.30691,-37.5 -5.34436,-12.32892 -5.78,-24.82893 -1.3067,-37.5 -10.87446,10.157186 -16.84041,22.657192 -17.89762,37.5 -1.05722,14.842816 -7.02316,27.342822 -17.89783,37.5 1.70788,-13.756968 -1.49298,-26.256963 -9.60255,-37.5 -8.10958,-11.243029 -11.31044,-23.743024 -9.60198,-37.5 -8.109,11.243037 -11.30985,23.743039 -9.60197,37.5 1.70787,13.756968 -1.49298,26.256971 -9.60256,37.5 -1.05721,-14.842808 -7.02315,-27.342814 -17.89783,-37.5 -10.87467,-10.157178 -16.84061,-22.657184 -17.89762,-37.5 -5.34415,12.328933 -5.77978,24.82893 -1.3067,37.500001 4.47309,12.671079 4.03746,25.171076 -1.30691,37.499999 -3.82242,-15.9287 -12.55357,-28.428703 -26.19345,-37.5 -13.63988,-9.071288 -22.37103,-21.571291 -26.19334,-37.5 -2.57899,13.414835 -0.24939,25.914833 6.98894,37.499998 7.23833,11.585173 9.56794,24.085171 6.98918,37.500002 -6.58725,-17.014593 -18.0836,-29.514593 -34.48868,-37.499999 -16.40508,-7.985397 -27.90143,-20.485396 -34.48906,-37.500001 0.18607,14.500719 5.28087,27.000715 15.28439,37.5 10.00352,10.499277 15.09831,22.999288 15.28465,37.5 -9.35255,-18.100473 -23.6141,-30.600477 -42.78438,-37.5 -19.17027,-6.899511 -33.431834,-19.399515 -42.784399,-37.5 2.951328,15.586528 10.811122,28.086528 23.579649,37.5 12.76852,9.413481 20.62832,21.913481 23.57938,37.5 -12.11792,-19.186322 -29.144584,-31.68633 -51.07997,-37.5 -21.935372,-5.813657 -38.962035,-18.313666 -51.079642,-37.499885 5.813979,21.935501 18.313988,38.962164 37.500322,51.080081 19.186347,12.117929 31.68634,29.144594 37.5,51.079824 -9.41335,-12.76898 -21.91336,-20.62907 -37.5,-23.58044 -15.58664,-2.95137 -28.08665,-10.81147 -37.5,-23.579877 6.784818,19.462794 19.284814,34.016437 37.5,43.661347 18.215186,9.64493 30.71519,24.19856 37.5,43.66093 -10.43575,-10.16529 -22.93575,-15.42187 -37.5,-15.76971 -14.56424,-0.34784 -27.06425,-5.60441 -37.5,-15.76975 7.807156,16.85895 20.307156,28.80923 37.5,35.85076 17.192854,7.04154 29.692854,18.99181 37.5,35.85081 -11.45822,-7.56158 -23.95822,-10.21443 -37.5,-7.95856 -13.54177,2.25587 -26.04177,-0.39698 -37.5,-7.95931 8.829406,14.2551 21.329412,23.60222 37.5,28.0406 16.170597,4.43838 28.670603,13.78549 37.5,28.04133 -12.48046,-4.95847 -24.98046,-5.00822 -37.5,-0.14923 -12.51953,4.85899 -25.01953,4.80924 -37.500275,-0.1491 10.089345,11.73695 22.824145,18.47285 38.204105,20.20782 15.37997,1.73496 28.11477,8.47086 38.20432,20.20801 -13.306094,-2.28843 -25.613044,0.25573 -36.920904,7.63281 -11.30785,7.37708 -23.6148,9.92124 -36.920633,7.63253 11.842397,9.32287 25.274297,13.37104 40.295897,12.14453 15.02161,-1.22652 28.45351,2.82164 40.29569,12.1445 -13.60891,0.49762 -25.23026,5.55893 -34.86404,15.18393 -9.63377,9.62498 -21.25512,14.68629 -34.864256,15.18359 13.172004,6.67361 26.854991,7.97425 41.048744,3.90162 14.193757,-4.07263 27.876752,-2.77197 41.048832,3.90235 -13.35424,3.30151 -23.80097,10.70506 -31.34034,22.21102 -7.53938,11.50596 -17.98611,18.9095 -31.34765,22.21555 13.9354,3.86477 27.32864,2.46512 40.17223,-4.19403 12.84358,-6.65915 26.23682,-8.0588 40.17969,-4.19895 -12.57483,6.02462 -21.41979,15.52264 -26.5349,28.49406 -5.11511,12.97142 -13.96008,22.46945 -26.53617,28.49513 14.10567,0.99764 26.66689,-2.93856 37.68236,-11.80753 11.01546,-8.86897 23.57668,-12.80518 37.6827,-11.80818 -11.32993,8.59 -18.22285,19.88641 -20.67969,33.88965 -2.45685,14.00324 -9.34977,25.29965 -20.67851,33.88913 13.70117,-1.80459 24.95761,-8.02951 33.76953,-18.6748 8.81191,-10.64529 20.06835,-16.8702 33.76929,-18.67473 -9.71242,10.95519 -14.39989,23.75115 -14.0624,38.38786 0.33748,14.63671 -4.34999,27.43267 -14.06229,38.3877 12.79761,-4.46302 22.36689,-12.68373 28.7079,-24.66227 6.341,-11.97853 15.91028,-20.19924 28.70781,-24.66221 -7.79055,13.09995 -10.0832,27.10031 -6.87793,42.00098 3.20526,14.90068 0.91262,28.90104 -6.87793,42.00078 11.48545,-6.93315 19.07757,-16.84744 22.77637,-29.74316 3.69879,-12.8957 11.29091,-22.80999 22.77636,-29.74288 -5.61133,15.00594 -5.36748,29.91612 0.73158,44.73052 6.09906,14.81441 6.34291,29.72459 0.73125,44.73023 9.82994,-9.18487 15.22193,-20.48687 16.17565,-33.9063 0.95371,-13.41943 6.3457,-24.72143 16.17574,-33.90536 -3.02364,16.72893 0.0484,32.25087 9.21582,46.5664 9.16744,14.31556 12.23946,29.83748 9.21605,46.56576 9.16745,-14.31554 12.23946,-29.83747 9.21605,-46.56576 -3.02341,-16.7283 0.0486,-32.25023 9.21582,-46.56626 0.95349,13.41892 6.34547,24.72092 16.17574,33.90551 z" />
<path style="fill:#ffcc00;" d="m 150 150 h 300 v 109 c 0 122.457 -90.1292 196.92 -150 232.979 c -59.8708 -36.0582 -150 -110.522 -150 -232.979 Z" />
<g style="fill:#009900;stroke:#003300;stroke-width:1;stroke-linecap:round;stroke-linejoin:round;">
  <path d="m 329.151 276.808 c 0.63887 -2.047 1.55664 -7.49967 2.08083 -8.94605 c 1.33116 -3.67306 12.4102 -9.30768 15.5128 -8.2735 c 3.10257 1.0342 -1.03418 10.3419 -1.03418 14.4786 c 0 4.13674 5.17093 15.5128 5.17093 20.6837 c 0 5.17093 -1.15885 30.9841 -1.15885 38.2234 c 0 7.23931 -9.30769 12.6964 -11.3761 18.9015 c -2.06838 6.20511 -8.14882 10.3003 -9.18302 18.5738 c -2.15263 10.1819 -1.30256 10.5923 0.75735 22.3988 c -0.55426 2.4386 -44.7621 10.1202 -63.9344 -1.09169 c 2.06334 -8.91263 2.24822 -13.7537 0.62817 -25.7345 c -5.76555 -11.356 -8.77537 -20.9474 -11.7005 -28.9915 c -2.92513 -8.04409 -5.11896 -24.8155 -5.11896 -31.3971 c 0 -6.58152 1.55014 -34.612 0.24016 -41.1032 c -3.37948 -16.746 3.41624 -22.8839 7.07264 -22.8839 c 7.89154 2.82155 5.77339 13.4496 6.21588 21.5728 c 1.22621 6.3678 0.73522 9.98792 2.47076 24.9003 c -1.09758 -8.21151 -0.27635 -13.7694 -0.51709 -22.4295 c 0.76171 -11.4675 -0.0735 -10.3209 0.7053 -20.4606 c 0.98058 -9.77076 -2.24029 -34.7523 9.8463 -37.2218 c 8.0473 -1.81594 8.8099 16.4473 8.70187 29.9825 c 1.00787 5.81461 1.04018 12.2387 0.73129 19.3789 c 0.37598 8.48718 0.30448 12.2217 0.36564 20.1102 c 0.22839 -8.16702 -0.60294 -15.0765 0.21419 -23.9441 c 0.87714 -10.256 1.87602 -11.8712 1.37383 -22.9574 c 0.73128 -4.38768 -1.13813 -28.4832 11.4343 -28.269 c 10.1388 3.36219 6.13607 16.9401 6.72221 28.7341 c 0 8.80242 0.45042 14.5398 0.15146 24.3205 c 0 0 -0.0441 10.6677 -0.88274 21.3998 c 0.84821 -11.0592 0.40889 -14.3563 0.75034 -21.7206 c 1.19272 -8.78932 1.27677 -8.60574 2.15567 -16.9656 c -0.16412 -25.062 5.5141 -27.6844 9.52577 -27.5099 c 9.97061 0.43373 9.141 15.3569 9.141 29.9825 c 0.73128 5.29589 0.36564 11.188 0 19.3209 c 0 4.5899 2.93706 16.9375 2.93706 16.9375 Z" />
  <path fill="none" d="m 262.732 288.487 c -3.80333 2.282 -5.32466 3.04267 -9.128 3.80333 m 28.1447 -11.5382 c -5.32466 0.76066 -8.36733 3.04266 -11.41 3.80333 m 30.4267 -5.32466 c -4.56401 -0.76066 -6.08533 -0.76066 -9.88867 0 m 32.7086 0.8889 c -6.08533 -2.282 -9.88865 -3.04266 -14.4527 -2.282 m 15.6855 90.4467 c -6.54808 1.60569 -18.3096 -1.06365 -21.3456 -6.11762 m -15.3092 4.62393 c 0 0 -9.4393 1.12958 -15.5732 -1.36565" />
  <path d="m 329.031 276.888 c -1.79485 7.45294 1.11754 13.111 1.11754 17.2478 c 0 4.13674 -3.10255 22.7521 -3.10255 22.7521 l 1.03418 -7.2393 c 0 0 -14.4786 1.03419 -19.6496 5.17093 c -5.17093 4.13675 -11.376 23.7863 -9.30768 37.2307" />
</g>
<use id="shine" style="fill:url(#rg);stroke:#000000;stroke-width:3;" xlink:href="#shield" />
</svg>
