<svg xmlns="http://www.w3.org/2000/svg" width="600" height="660" xmlns:xlink="http://www.w3.org/1999/xlink">
<defs>
    <radialGradient id="rg" gradientUnits="userSpaceOnUse" cx="220" cy="220" r="405">
        <stop style="stop-color:#fff;stop-opacity:.3" offset="0" />
        <stop style="stop-color:#fff;stop-opacity:.2" offset="0.2" />
        <stop style="stop-color:#666;stop-opacity:.1" offset="0.6" />
        <stop style="stop-color:#000;stop-opacity:.13" offset="1" />
    </radialGradient>
    <path id="shield" d="m 2 2 v 257 c 0 286 298 398 298 398 c 0 0 298 -112 298 -398 V 2 Z" />
</defs>
<use xlink:href="#shield" style="fill:#ffffff;"/>
<path style="fill:#ffdd00;" d="m 566.67,2 v 31.334 h -33.34 v -31.334 z m -33.34,31.334 v 33.332 h -33.33 v -33.332 z m -33.33,0 h -33.33 v -31.334 h 33.33 z m -33.33,0 v 33.332 h -33.34 v -33.332 z m -33.34,0 h -33.33 v -31.334 h 33.33 z m -33.33,0 v 33.332 h -33.33 v -33.332 z m -33.33,0 h -33.34 v -31.334 h 33.34 z m -33.34,0 v 33.332 h -33.33 v -33.332 z m -33.33,0 h -33.33 v -31.334 h 33.33 z m -33.33,0 v 33.332 h -33.34 v -33.332 z m -33.34,0 h -33.33 v -31.334 h 33.33 z m -33.33,0 v 33.332 h -33.33 v -33.332 z m -33.33,0 h -33.34 v -31.334 h 33.34 z m -33.34,0 v 33.332 h -33.33 v -33.332 z m -33.33,0 h -33.334 v -31.334 h 33.334 z m -33.334,0 v 33.332 h -33.332 v -33.332 z m -33.332,0 h -31.334 v -31.334 h 31.334 z m 0,33.332 v 33.334 h -31.334 v -33.334 z m 0,33.334 h 33.332 v 33.33 h -33.332 z m 0,33.33 v 33.34 h -31.334 v -33.34 z m 0,33.34 h 33.332 v 33.33 h -33.332 z m 0,33.33 v 33.33 h -31.334 v -33.33 z m 33.332,0 h 33.334 c 11.11,0 11.11,33.33 0,33.33 h -33.334 z m 0,-33.33 v -33.34 h 33.334 c 11.11,0 11.11,33.34 0,33.34 z m 0,-66.67 v -33.334 h 33.334 v 33.334 z m 66.664,-33.334 h 33.34 v 33.334 c 0,11.11 -33.34,11.11 -33.34,0 z m 66.67,0 h 33.33 v 33.334 c 0,11.11 -33.33,11.11 -33.33,0 z m 66.67,0 h 33.33 v 33.334 c 0,11.11 -33.33,11.11 -33.33,0 z m 66.66,0 h 33.34 v 33.334 c 0,11.11 -33.34,11.11 -33.34,0 z m 66.67,0 h 33.33 v 33.334 c 0,11.11 -33.33,11.11 -33.33,0 z m 66.67,0 h 33.33 v 33.334 c 0,11.11 -33.33,11.11 -33.33,0 z m 33.33,33.334 h 33.33 v 33.33 h -33.33 c -11.11,0 -11.11,-33.33 0,-33.33 z m 33.33,33.33 h 33.34 v 33.34 h -33.34 z m 0,33.34 v 33.33 h -33.33 c -11.11,0 -11.11,-33.33 0,-33.33 z m 0,33.33 h 33.34 v 33.33 h -33.34 z m 33.34,0 v -33.33 h 31.33 v 33.33 z m 0,-66.67 v -33.33 h 31.33 v 33.33 z m 0,-33.33 h -33.34 v -33.334 h 33.34 z m 0,-33.334 v -33.332 h 31.33 v 33.332 z m 31.33,166.664 v 25.67 c 0,2.57 0,5.12 -0.1,7.67 h -31.34 c 0,-2.54 0.1,-5.1 0.1,-7.67 v -25.67 z m -564.578,33.34 c 0.255,12.48 1.129,24.61 2.564,36.37 l -31.0993,3.84 c -1.5864,-12.99 -2.5472,-26.39 -2.8066,-40.21 z m 530.588,36.37 31.1,3.84 c -1.65,13.53 -3.97,26.62 -6.9,39.27 l -30.42,-7.57 c 2.63,-11.46 4.73,-23.31 6.22,-35.54 z m -521.795,35.54 c 2.758,12 6.098,23.57 9.955,34.74 l -29.254,11.18 c -4.307,-12.32 -8.047,-25.1 -11.121,-38.35 z m 505.615,34.74 29.25,11.18 c -4.47,12.8 -9.57,25.1 -15.18,36.91 l -27.66,-14.61 c 5.02,-10.73 9.58,-21.88 13.59,-33.48 z m -482.072,33.48 c 5.193,11.09 10.879,21.72 16.967,31.89 l -25.643,17.85 c -6.809,-11.19 -13.174,-22.9 -18.986,-35.13 z m 451.522,31.89 25.64,17.85 c -7.02,11.53 -14.51,22.52 -22.35,32.97 l -23.32,-20.77 c 7.02,-9.55 13.74,-19.55 20.03,-30.05 z m -414.53,30.05 c 7.26,9.86 14.85,19.23 22.67,28.1 l -20.67,23.43 c -8.721,-9.69 -17.207,-19.93 -25.322,-30.76 z m 371.83,28.1 20.67,23.43 c -9.08,10.09 -18.42,19.56 -27.86,28.45 l -17.81,-25.83 c 8.49,-8.17 16.87,-16.84 25,-26.05 z m -324.16,26.05 c 8.9,8.57 17.92,16.58 26.91,24.02 l -14.77,27.94 c -9.97,-8.07 -20.01,-16.77 -29.95,-26.13 z m 272.25,24.02 14.77,27.94 c -10.76,8.69 -21.44,16.65 -31.81,23.89 l -11.57,-29.79 c 9.38,-6.72 18.98,-14.06 28.61,-22.04 z m -216.73,22.04 c 10.36,7.43 20.44,14.1 30.01,20.04 l -8.26,31.38 c -10.51,-6.33 -21.72,-13.53 -33.32,-21.63 z m 158.11,20.04 8.26,31.38 c -12.82,7.72 -24.59,14.17 -34.75,19.38 l -4.79,-32.71 c 9.43,-5.03 19.97,-11.02 31.28,-18.05 z m -96.82,18.05 c 13.81,7.37 25.2,12.69 32.77,16.01 v 33.95 c 0,0 -14.71,-5.53 -37.56,-17.25 z m -200.564,-373.71 v 25.67 c 0,2.57 0.04,5.13 0.09,7.67 h -33.338 c -0.05,-2.54 -0.09,-5.1 -0.09,-7.67 v -25.67 z m 499.914,33.34 c -0.26,12.48 -1.13,24.61 -2.57,36.37 l -33.09,-4.1 c 1.28,-10.45 2.07,-21.2 2.32,-32.27 z m -497.498,32.27 c 1.333,10.86 3.199,21.38 5.533,31.58 l -32.4,8.06 c -2.637,-11.46 -4.736,-23.31 -6.229,-35.54 z m 456.298,31.58 32.41,8.06 c -2.76,11.99 -6.1,23.57 -9.96,34.74 l -31.22,-11.94 c 3.39,-9.93 6.34,-20.22 8.77,-30.86 z m -441.985,30.86 c 3.521,10.31 7.535,20.23 11.947,29.79 l -29.584,15.63 c -5.022,-10.73 -9.581,-21.88 -13.588,-33.48 z m 421.265,29.79 29.58,15.63 c -5.19,11.09 -10.88,21.72 -16.96,31.89 l -27.48,-19.12 c 5.33,-9.08 10.31,-18.54 14.86,-28.4 z m -394.46,28.4 c 5.51,9.37 11.38,18.35 17.55,26.91 l -25,22.26 c -7.022,-9.55 -13.743,-19.55 -20.025,-30.05 z m 362.05,26.91 25,22.26 c -7.26,9.86 -14.85,19.23 -22.67,28.1 l -22.21,-25.18 c 6.87,-7.98 13.53,-16.37 19.88,-25.18 z m -324.62,25.18 c 7.12,8.26 14.45,16.1 21.91,23.48 l -19.12,27.75 c -8.49,-8.17 -16.87,-16.84 -25,-26.05 z m 282.83,23.48 19.12,27.75 c -8.9,8.57 -17.92,16.58 -26.91,24.02 l -15.88,-30.03 c 7.94,-6.78 15.87,-14.02 23.67,-21.74 z m -237.25,21.73 c 8.43,7.21 16.86,13.89 25.16,20.05 l -12.43,32.03 c -9.38,-6.72 -18.98,-14.06 -28.61,-22.04 z m 188.42,20.05 12.43,32.03 c -10.36,7.43 -20.44,14.1 -30.01,20.04 l -8.86,-33.72 c 8.53,-5.52 17.4,-11.63 26.44,-18.35 z m -136.82,18.35 c 9.74,6.31 19.02,11.86 27.55,16.67 l -5.13,35.1 c -9.43,-5.03 -19.97,-11.02 -31.28,-18.05 z m 82.83,16.67 5.13,35.1 c -13.81,7.37 -25.2,12.69 -32.77,16.01 v -36.66 c 7.73,-3.72 17.13,-8.53 27.64,-14.45 z m 205.69,-338.61 v 25.67 c 0,2.57 0,5.13 -0.1,7.67 h -33.34 c -10.93,0 -11.22,-33.34 0.1,-33.34 z m -433.23,33.34 c 9.65,0 11.23,27.05 2.09,28.18 l -33.108,4.09 c -1.283,-10.45 -2.071,-21.2 -2.322,-32.27 z m 397.71,28.18 33.11,4.09 c -1.34,10.86 -3.2,21.38 -5.54,31.58 l -32.39,-8.06 c -8.89,-2.21 -4.66,-28.78 4.82,-27.61 z m -390.8,27.61 c 9.25,-2.3 16.15,23.73 7.57,27.01 l -31.185,11.91 c -3.396,-9.93 -6.345,-20.22 -8.78,-30.86 z m 378.41,27.01 31.19,11.91 c -3.53,10.31 -7.54,20.23 -11.95,29.79 l -29.5,-15.58 c -8.15,-4.3 1.38,-29.51 10.26,-26.12 z m -360.58,26.12 c 8.37,-4.42 20.33,19.66 12.77,24.92 l -27.41,19.06 c -5.33,-9.08 -10.311,-18.54 -14.858,-28.4 z m 337.55,24.92 27.41,19.06 c -5.51,9.37 -11.38,18.35 -17.55,26.91 l -24.95,-22.23 c -6.91,-6.16 7.29,-29.17 15.09,-23.74 z m -309.69,23.74 c 7.09,-6.32 23.21,15.36 17.1,22.28 l -22.17,25.13 c -6.87,-7.98 -13.53,-16.37 -19.88,-25.18 z m 277.5,22.28 22.17,25.13 c -7.12,8.26 -14.45,16.1 -21.91,23.48 l -19.13,-27.74 c -5.24,-7.59 12.56,-28.02 18.87,-20.87 z m -241.53,20.87 c 5.45,-7.9 24.71,11.3 20.42,19.42 l -15.88,30.05 c -7.94,-6.77 -15.87,-14.01 -23.67,-21.73 z m 202.24,19.42 15.88,30.05 c -8.43,7.21 -16.86,13.89 -25.16,20.05 l -12.46,-32.1 c -3.3,-8.5 17.22,-26.56 21.74,-18 z m -160.08,18 c 3.55,-9.14 25.17,7.89 22.88,16.6 l -8.9,33.85 c -8.53,-5.52 -17.4,-11.63 -26.44,-18.35 z m 115.46,16.6 8.9,33.85 c -9.74,6.31 -19.02,11.86 -27.55,16.67 l -5.18,-35.38 c -1.27,-8.71 21.28,-24.83 23.83,-15.14 z m -68.75,15.14 c 1.36,-9.31 22.46,4.92 22.46,12.59 v 37.24 c -7.73,-3.72 -17.13,-8.53 -27.64,-14.45 z" />
<path style="fill:#800020;" d="m 100,100 h 400 v 159 c 0,165.41 -134.89,256.02 -200,290.15 -65.11,-34.13 -200,-124.74 -200,-290.15 z"/>
<g style="fill:#ffdd00;stroke:#800020;stroke-width:2;stroke-linecap:round;">
  <path d="m 363.34,274.49 c 3.12,-21.23 28.67,-63.19 28.85,-94.61 0.16,-22.96 -17.79,-43.25 -42.93,-42.39 -16.78,0.59 -27.43,11.76 -50.21,11.66 -27.03,-0.16 -52.62,-28.36 -89.68,3.53 24.32,-2.27 50.43,13.2 50.81,66.47 0.39,54.91 -36.09,99.9 -38.6,151.42 -1.58,32.25 9.08,69.7 33.46,94.66 h 80.24 c 25.41,-27.28 35.04,-61.27 33.47,-94.66 -2.27,-48.13 -37.82,-97.19 -38.61,-151.23 -0.59,-40.57 8.26,-54.91 22.28,-55.57 11.38,-0.52 17.25,8.95 18.7,17.34 3.72,21.59 -28.4,76.67 -25.74,101.61 1.88,17.69 21.95,21.7 31.16,9.94 5.79,-7.38 1.68,-22.21 -13.2,-18.17 z"/>
  <path d="m 353.79,352.53 c 9.02,40.74 -2.03,71.6 -18.68,95.39 m -1.52,-287.86 c -14.16,12.41 -15.62,36.58 -14.63,56.77 m 44.38,57.66 c -4.91,2.98 -5.81,8.73 -1.39,12.08"/>
</g>
<use id="shine" fill="url(#rg)" stroke="#000" stroke-width="3" xlink:href="#shield" />
</svg>
