<?xml version="1.0" encoding="UTF-8"?>
<svg xmlns="http://www.w3.org/2000/svg" xmlns:xlink="http://www.w3.org/1999/xlink" width="600" height="660">
<defs>
  <radialGradient id="rg" gradientUnits="userSpaceOnUse" cx="220" cy="220" r="405">
    <stop style="stop-color:#ffffff;stop-opacity:.3" offset="0"/>
    <stop style="stop-color:#ffffff;stop-opacity:.2" offset=".2"/>
    <stop style="stop-color:#666666;stop-opacity:.1" offset=".6"/>
    <stop style="stop-color:#000000;stop-opacity:.13" offset="1"/>
  </radialGradient>
  <path id="shield" d="m2,2v257c0,286 298,398 298,398c0,0 298-112 298-398V2z"/>
</defs>
<use id="bg" xlink:href="#shield" style="fill:#ffffff;"/>
<path id="pile" style="fill:#00c;" d="m 300,517 -298,-515 h 596 z" />
<g style="stroke:#00c;stroke-width:1;stroke-linejoin:round;stroke-linecap:round;">
<path style="fill:#fff;" d="m 269.40448,297.73361 44.48303,2.02402 c -0.36309,-31.70939 -0.72575,-63.41918 0.64187,-92.23451 1.36847,-28.8153 4.46727,-54.73699 7.56647,-80.65823 -4.85713,-15.1393 -9.71468,-30.279056 -10.73961,-48.048309 -1.02448,-17.769667 1.7832,-38.168404 4.59092,-58.568013 -13.75682,16.130312 -27.51451,32.260584 -35.09913,55.200917 -7.58463,22.940341 -8.99713,52.691555 -8.34015,77.897465 0.6574,25.20639 3.38376,45.86873 4.52679,60.8462 1.14256,14.97789 0.70136,24.27131 0.26015,33.56474 z"/>
<path style="fill:none;" d="m 313.92845,125.0857 c -10.7622,51.12599 -8.60849,98.51019 -9.39314,164.13267"/>
<path style="fill:#ddd;" d="m 281.37839,297.37734 -2.12285,44.71364 c 0.98148,18.67534 1.96384,37.35072 0.28083,53.11666 -1.6826,15.76642 -6.03014,28.62386 -5.46569,36.10479 0.56486,7.48139 6.04036,9.58665 14.3419,10.90341 8.30155,1.3168 19.42912,1.84509 25.99812,0.29716 6.56899,-1.54793 8.58031,-5.1729 10.59159,-8.79702 -3.52321,-3.88731 -7.04602,-7.77415 -9.37229,-17.19897 -2.3258,-9.42523 -3.45467,-24.38709 -3.40028,-44.90249 0.0544,-20.51538 1.29206,-46.58432 2.52967,-72.65236 z"/>
<path style="fill:#fff;" d="m 302.56864,320.79059 c 0.14629,-3.08151 -2.22494,-5.69777 -5.29628,-5.84358 -3.07134,-0.14581 -5.67977,2.23403 -5.82606,5.31554 -0.1463,3.0815 2.22492,5.69776 5.29627,5.84357 3.07134,0.14583 5.67977,-2.23402 5.82607,-5.31553 z m 0.0659,50.26559 c 0.1463,-3.08151 -2.22492,-5.69778 -5.29627,-5.84359 -3.07136,-0.14582 -5.67977,2.23402 -5.82607,5.31553 -0.14629,3.08151 2.22493,5.69778 5.29628,5.84358 3.07135,0.14582 5.67975,-2.23402 5.82606,-5.31552 z m 0.67339,50.38227 c 0.1463,-3.08149 -2.22492,-5.69776 -5.29626,-5.84357 -3.07136,-0.14581 -5.67978,2.23403 -5.82607,5.31554 -0.14631,3.0815 2.22491,5.69775 5.29625,5.84358 3.07136,0.14583 5.67979,-2.23403 5.82608,-5.31555 z"/>
</g>
<use id="shine" xlink:href="#shield" style="fill:url(#rg);stroke:#000000;stroke-width:3;"/>
</svg>
