<?xml version="1.0" encoding="UTF-8"?>
<svg xmlns="http://www.w3.org/2000/svg" xmlns:xlink="http://www.w3.org/1999/xlink" width="600" height="660">
<defs>
  <radialGradient id="rg" gradientUnits="userSpaceOnUse" cx="220" cy="220" r="405">
    <stop style="stop-color:#ffffff;stop-opacity:.3" offset="0"/>
    <stop style="stop-color:#ffffff;stop-opacity:.2" offset=".2"/>
    <stop style="stop-color:#666666;stop-opacity:.1" offset=".6"/>
    <stop style="stop-color:#000000;stop-opacity:.13" offset="1"/>
  </radialGradient>
  <pattern id="vair" patternUnits="userSpaceOnUse" x="0" width="150" height="264">
    <path style="fill:#0000aa;" d="m75,0 l37.5,37.5 v57 l37.5,37.5 v132 h-75 l37.5,-37.5 v-57 l37.5,-37.5 H0 l37.5,37.5 v57 l37.5,37.5 H0 v-132 l37.5,-37.5 v-57z"/>
  </pattern>
  <path id="bend" d="M 2 2 L 2 108.06641 L 454.44336 560.50977 C 489.30096 529.84669 523.75436 491.3178 550.17188 444.10547 L 108.06641 2 L 2 2 z"/>
  <clipPath id="clip-shield">
    <path id="shield" d="m2,2v257c0,286 298,398 298,398c0,0 298-112 298-398V2z"/>
  </clipPath>
</defs>
<use id="field" xlink:href="#shield" style="fill:#ffffff;"/>
<use xlink:href="#shield" style="fill:url(#vair);"/>
<g id="design" clip-path="url(#clip-shield)">
  <use xlink:href="#bend" stroke="#0000aa" stroke-width="7" />
  <use xlink:href="#bend" fill="#fff" />
</g>
<g id="head" transform="translate(285,285)rotate(-45)scale(0.5)">
  <g id="antlers" style="fill:#aa0000;stroke:#330000;stroke-width:2;">
    <path d="m -70.516556,19.416756 c 0.39948,-1.348885 -2.000498,-6.491522 11.94797,-26.3317018 C -90.791308,-40.20681 -102.85001,-85.867262 -78.056668,-118.53664 l -1.836481,-3.74248 -17.630229,16.46692 h -9.917002 c -5.94029,-3.58299 -9.49503,-10.81201 -13.58997,-17.21542 -2.08706,2.39674 -4.56465,4.16818 0,17.21542 20.42446,18.837166 18.03522,37.674332 19.83401,56.511493 -11.06329,3.094001 -21.10526,-10.462455 -31.2202,-22.829145 -4.07723,-7.228365 -9.77902,-8.663171 -15.79375,-8.981958 11.81065,22.482447 21.98765,46.80467 51.788803,49.026524 L -68.874254,4.5910432 C -90.298331,8.524077 -115.53541,4.147031 -128.00898,-12.250131 c -2.55873,-0.43806 -4.26798,-0.828596 -2.93838,3.1905164 21.69128,26.8228506 29.30975,30.1157296 57.590698,30.1295086 4.218708,0.0019 2.48723,-0.461616 2.840106,-1.653138 z m 11.44642,-1.965302 c 1.261784,-0.287638 3.99295,-0.958129 5.255034,-1.258714 1.70972,2.121843 2.893101,4.377763 0.734595,7.484964 -4.203908,2.23231 -4.803714,-1.655901 -6.244042,-4.116732 0.332258,-5.726462 5.830636,-12.7652003 9.917004,-20.20940638 9.533287,-18.03313962 5.30305,-24.37959062 3.672967,-32.93384462 -1.346347,-1.495329 -0.942044,-3.340512 -1.836481,-2.993985 -3.287175,17.943299 -12.247002,31.9043716 -18.823946,42.2900483 -3.75723,7.0890167 -9.459379,21.7370987 5.96857,29.9398627 8.644063,0.820043 15.08739,0.03839 16.895633,-4.116731 5.294566,-1.932342 9.141474,-0.914569 12.488081,1.122746 l 9.917005,-11.601697 C -31.35995,15.758242 -41.675435,8.4414364 -50.041491,1.287369" />
    <path d="M 70.516568,19.416756 C 70.117088,18.067871 72.517066,12.925234 58.568598,-6.9149458 90.79132,-40.20681 102.85002,-85.867262 78.05668,-118.53664 l 1.836481,-3.74248 17.630229,16.46692 h 9.917 c 5.94029,-3.58299 9.49503,-10.81201 13.58998,-17.21542 2.08705,2.39674 4.56464,4.16818 0,17.21542 -20.42447,18.837166 -18.03523,37.674332 -19.83401,56.511493 11.06329,3.094001 21.10525,-10.462455 31.22019,-22.829145 4.07723,-7.228365 9.77902,-8.663171 15.79375,-8.981958 -11.81065,22.482447 -21.98765,46.80467 -51.788801,49.026524 L 68.874266,4.5910432 C 90.298343,8.524077 115.53542,4.147031 128.00899,-12.250131 c 2.55873,-0.43806 4.26799,-0.828596 2.93838,3.1905164 -21.69128,26.8228506 -29.30975,30.1157296 -57.590696,30.1295086 -4.218708,0.0019 -2.48723,-0.461616 -2.840106,-1.653138 z m -11.44642,-1.965302 c -1.261784,-0.287638 -3.99295,-0.958129 -5.255034,-1.258714 -1.70972,2.121843 -2.893101,4.377763 -0.734595,7.484964 4.203909,2.23231 4.803714,-1.655901 6.244043,-4.116732 C 58.992303,13.83451 53.49392,6.7957717 49.407557,-0.64843438 39.87427,-18.681574 44.104507,-25.028025 45.73459,-33.582279 c 1.346348,-1.495329 0.942045,-3.340512 1.836481,-2.993985 3.287175,17.943299 12.247003,31.9043716 18.823946,42.2900483 3.757231,7.0890167 9.459379,21.7370987 -5.96857,29.9398627 -8.644063,0.820043 -15.08739,0.03839 -16.895633,-4.116731 -5.294566,-1.932342 -9.141474,-0.914569 -12.488081,1.122746 L 21.125729,21.057965 C 31.359962,15.758242 41.675442,8.4414364 50.041499,1.287369" />
  </g>
  <g id="ears" style="fill:#ff0000;stroke:#330000;stroke-width:2;">
    <path d="m -32.61001,39.7449 c -7.59223,-2.47531 -11.42421,-6.71822 -17.72192,-8.9175 -6.297729,-2.19927 -11.876452,1.75002 -15.585232,0.10277 -3.708753,-1.64723 1.962026,9.83948 8.085059,12.85798 6.12306,3.01848 20.865993,4.59966 25.066133,3.78226 1.32963,-4.19857 -0.0187,-7.0063 0.15596,-7.82551 z" />
    <path d="m 32.15806,40.6363 c 7.50119,-2.73876 11.18275,-7.11284 17.39987,-9.53057 6.21714,-2.41773 11.93031,1.33445 15.57932,-0.44123 3.64901,-1.77567 -1.61742,9.90196 -7.63136,13.13232 -6.01399,3.23034 -21.12599,5.28161 -25.35211,4.6113 0.1962,-4.14961 0.20743,-6.95919 0.004,-7.77182 z" />
  </g>
  <path id="face" style="fill:#ff0000;stroke:#330000;stroke-width:2" d="m -2.35438,17.56456 c -7.35188,-0.0473 -13.80503,3.15689 -18.69631,4.82149 -3.65397,0.81754 -6.5567,4.16329 -10.26928,10.23267 -1.04711,12.9687 -1.6801,22.00774 0.46247,28.65571 2.41627,15.78154 7.66727,22.14021 12.26929,31.25047 3.47001,6.86929 3.52176,17.3432 5.0701,24.64992 4.81069,9.21645 8.78828,7.64058 12.7459,5.91748 3.91818,1.811 7.84482,3.47508 12.86002,-5.63169 1.71104,-7.27034 1.35411,-17.85981 4.97657,-24.64993 C 21.8686,83.80539 27.90262,77.68481 30.67051,61.96112 32.96091,55.36264 32.52984,46.31171 31.77242,33.32288 28.19623,27.17214 25.36888,23.76245 21.73408,22.86356 16.39236,20.91158 9.13631,17.61346 0.84803,17.61535 c -0.3201,-0.009 -2.46191,-0.046 -3.20241,-0.0508 z" />
  <path id="nose" style="fill:#330000;stroke:#330000;" d="m -9.19061,105.68772 1.93633,7.69181 6.22182,5.91987 0.15191,3.58115 0.20662,0.002 0.2318,-3.57685 6.35238,-5.77954 2.1075,-7.64668 -8.63035,2.24986 z" />
  <g id="face-lines" style="fill:none;stroke:#330000;stroke-width:1.5;">
    <path style="fill:#ffaaaa;stroke-width:0.5;" d="m -18.23997,24.11787 c 6.24624,2.49779 14.03282,24.692 17.45409,31.13659 C 2.1308,48.43719 9.55341,27.32645 16.91016,24.45741 12.17215,26.01281 2.6909,36.07372 -0.61533,41.67852 -4.91402,37.23703 -12.46953,26.04214 -18.23997,24.11787 Z" />
    <path d="M 4.61503,63.78645 C 8.43688,48.04923 19.72268,46.68463 26.47341,44.01256" />
    <path d="M 7.12573,102.42944 C 3.55124,84.44387 4.64738,68.30991 4.64738,68.30991" />
    <path d="M -6.29655,63.59884 C -10.11841,47.86163 -21.40421,46.49702 -28.15494,43.82495" />
    <path d="M -8.80726,102.24183 C -5.23276,84.25627 -6.3289,68.12231 -6.3289,68.12231" />
  </g>
  <g id="hair" style="fill:#ff0000;stroke:#330000;">
    <path d="m -18.26062,22.92085 -4.35632,-4.3476 -0.34183,4.90889 -7.08307,-2.30453 3.14899,6.01916 -7.57264,0.37587 4.17886,3.4358 -6.95632,1.99673 7.00701,2.37623" />
    <path d="m 19.28329,23.36618 4.35631,-4.3476 0.34183,4.90888 7.08307,-2.30452 -3.14898,6.01916 7.57264,0.37587 -4.17887,3.4358 6.95632,1.99672 -7.00701,2.37624" />
    <path d="m -13.91462,20.6357 -4.13686,-2.36391 7.97823,0.59098 -2.65941,-2.06843 6.20529,0.29549 V 15.0214 l 5.61432,1.18196 0.59097,1.18196 0.88647,-1.18196 6.79628,-0.59097 -1.18196,2.06842 6.20529,-0.88647 -0.88647,2.36392 h 7.09176 l -0.59098,2.65941" />
  </g>
  <g id="left-eye">
    <path style="fill:#ffffff;stroke:#330000;stroke-width:1.5;" d="m -12.71207,61.30428 -2.17915,-3.42306 c -4.01195,-6.22489 -7.39175,-8.31693 -13.22782,-8.76964 0.74707,3.80305 -3.12632,17.36136 12.49442,12.30611 z" />
    <path style="fill:#330000;" d="m -25.25345,56.80419 c 0.56615,2.58845 2.62779,4.33639 4.60334,3.9029 1.97555,-0.43348 3.11593,-2.88404 2.54632,-5.47172 -0.56616,-2.58845 -2.6278,-4.33639 -4.60335,-3.9029 -1.97555,0.43348 -3.11593,2.88403 -2.54631,5.47172 z" />
  </g>
  <g id="right-eye">
    <path style="fill:#ffffff;stroke:#330000;stroke-width:1.5;" d="m 11.19169,61.30428 2.17915,-3.42306 c 4.01195,-6.22489 7.39175,-8.31693 13.22782,-8.76964 -0.74707,3.80305 3.12632,17.36136 -12.49442,12.30611 z" />
    <path style="fill:#330000;" d="m 23.73307,56.80419 c -0.56615,2.58845 -2.62779,4.33639 -4.60334,3.9029 -1.97555,-0.43348 -3.11593,-2.88404 -2.54632,-5.47172 0.56616,-2.58845 2.6278,-4.33639 4.60335,-3.9029 1.97555,0.43348 3.11593,2.88403 2.54631,5.47172 z" />
  </g>
</g>
<use xlink:href="#head" transform="translate(-150,-150)"/>
<use xlink:href="#head" transform="translate(150,150)"/>
<use id="shine" xlink:href="#shield" style="fill:url(#rg);stroke:#000000;stroke-width:3;"/>
</svg>
