<?xml version="1.0" encoding="UTF-8" standalone="no"?>
<svg
   xmlns:dc="http://purl.org/dc/elements/1.1/"
   xmlns:cc="http://creativecommons.org/ns#"
   xmlns:rdf="http://www.w3.org/1999/02/22-rdf-syntax-ns#"
   xmlns:svg="http://www.w3.org/2000/svg"
   xmlns="http://www.w3.org/2000/svg"
   xmlns:xlink="http://www.w3.org/1999/xlink"
   xmlns:sodipodi="http://sodipodi.sourceforge.net/DTD/sodipodi-0.dtd"
   xmlns:inkscape="http://www.inkscape.org/namespaces/inkscape"
   width="600"
   height="660"
   id="svg2"
   version="1.1"
   inkscape:version="0.48.2 r9819"
   sodipodi:docname="House_Cargyll.svg">
  <metadata
     id="metadata24">
    <rdf:RDF>
      <cc:Work
         rdf:about="">
        <dc:format>image/svg+xml</dc:format>
        <dc:type
           rdf:resource="http://purl.org/dc/dcmitype/StillImage" />
        <dc:title />
      </cc:Work>
    </rdf:RDF>
  </metadata>
  <sodipodi:namedview
     pagecolor="#ffffff"
     bordercolor="#666666"
     borderopacity="1"
     objecttolerance="10"
     gridtolerance="10"
     guidetolerance="10"
     inkscape:pageopacity="0"
     inkscape:pageshadow="2"
     inkscape:window-width="1366"
     inkscape:window-height="715"
     id="namedview22"
     showgrid="false"
     inkscape:zoom="0.70710678"
     inkscape:cx="129.3279"
     inkscape:cy="343.87673"
     inkscape:window-x="-8"
     inkscape:window-y="-8"
     inkscape:window-maximized="1"
     inkscape:current-layer="layer2" />
  <defs
     id="defs4">
    <inkscape:path-effect
       effect="spiro"
       id="path-effect4919"
       is_visible="true" />
    <inkscape:path-effect
       is_visible="true"
       id="path-effect4915"
       effect="spiro" />
    <inkscape:path-effect
       effect="spiro"
       id="path-effect4868"
       is_visible="true" />
    <inkscape:path-effect
       is_visible="true"
       id="path-effect4864"
       effect="spiro" />
    <inkscape:path-effect
       is_visible="true"
       id="path-effect4862"
       effect="spiro" />
    <inkscape:path-effect
       is_visible="true"
       id="path-effect4860"
       effect="spiro" />
    <inkscape:path-effect
       is_visible="true"
       id="path-effect4858"
       effect="spiro" />
    <inkscape:path-effect
       is_visible="true"
       id="path-effect4856"
       effect="spiro" />
    <inkscape:path-effect
       is_visible="true"
       id="path-effect4854"
       effect="spiro" />
    <inkscape:path-effect
       effect="spiro"
       id="path-effect4840"
       is_visible="true" />
    <inkscape:path-effect
       is_visible="true"
       id="path-effect4836"
       effect="spiro" />
    <inkscape:path-effect
       effect="spiro"
       id="path-effect4832"
       is_visible="true" />
    <inkscape:path-effect
       is_visible="true"
       id="path-effect3136"
       effect="spiro" />
    <inkscape:path-effect
       effect="spiro"
       id="path-effect3132"
       is_visible="true" />
    <inkscape:path-effect
       effect="spiro"
       id="path-effect3101"
       is_visible="true" />
    <inkscape:path-effect
       is_visible="true"
       id="path-effect3085"
       effect="spiro" />
    <inkscape:path-effect
       is_visible="true"
       id="path-effect3083"
       effect="spiro" />
    <inkscape:path-effect
       is_visible="true"
       id="path-effect3081"
       effect="spiro" />
    <inkscape:path-effect
       is_visible="true"
       id="path-effect3079"
       effect="spiro" />
    <inkscape:path-effect
       is_visible="true"
       id="path-effect3077"
       effect="spiro" />
    <inkscape:path-effect
       is_visible="true"
       id="path-effect3075"
       effect="spiro" />
    <inkscape:path-effect
       effect="spiro"
       id="path-effect3049"
       is_visible="true" />
    <inkscape:path-effect
       is_visible="true"
       id="path-effect3045"
       effect="spiro" />
    <inkscape:path-effect
       effect="spiro"
       id="path-effect3041"
       is_visible="true" />
    <radialGradient
       id="rg"
       gradientUnits="userSpaceOnUse"
       cx="220"
       cy="220"
       r="405">
      <stop
         style="stop-color:#fff;stop-opacity:.3"
         offset="0"
         id="stop7" />
      <stop
         style="stop-color:#fff;stop-opacity:.2"
         offset=".2"
         id="stop9" />
      <stop
         style="stop-color:#666;stop-opacity:.1"
         offset=".6"
         id="stop11" />
      <stop
         style="stop-color:#000;stop-opacity:.13"
         offset="1"
         id="stop13" />
    </radialGradient>
    <path
       id="shield"
       d="m2,2v257c0,286 298,398 298,398c0,0 298-112 298-398V2z" />
    <radialGradient
       inkscape:collect="always"
       xlink:href="#rg-7"
       id="radialGradient3055-1"
       gradientUnits="userSpaceOnUse"
       cx="220"
       cy="220"
       r="405" />
    <radialGradient
       id="rg-7"
       gradientUnits="userSpaceOnUse"
       cx="220"
       cy="220"
       r="405">
      <stop
         style="stop-color:#fff;stop-opacity:.3"
         offset="0"
         id="stop7-4" />
      <stop
         style="stop-color:#fff;stop-opacity:.2"
         offset=".2"
         id="stop9-0" />
      <stop
         style="stop-color:#666;stop-opacity:.1"
         offset=".6"
         id="stop11-9" />
      <stop
         style="stop-color:#000;stop-opacity:.13"
         offset="1"
         id="stop13-4" />
    </radialGradient>
    <radialGradient
       r="405"
       cy="220"
       cx="220"
       gradientUnits="userSpaceOnUse"
       id="radialGradient3074"
       xlink:href="#rg-7"
       inkscape:collect="always" />
    <inkscape:path-effect
       is_visible="true"
       id="path-effect10120-1"
       effect="spiro" />
    <inkscape:path-effect
       effect="spiro"
       id="path-effect10118-3"
       is_visible="true" />
    <inkscape:path-effect
       effect="spiro"
       id="path-effect10116-9"
       is_visible="true" />
    <inkscape:path-effect
       effect="spiro"
       id="path-effect10114-7"
       is_visible="true" />
    <inkscape:path-effect
       effect="spiro"
       id="path-effect10112-7"
       is_visible="true" />
    <inkscape:path-effect
       effect="spiro"
       id="path-effect10110-2"
       is_visible="true" />
    <linearGradient
       inkscape:collect="always"
       xlink:href="#linearGradient4719-5"
       id="linearGradient4039"
       gradientUnits="userSpaceOnUse"
       gradientTransform="matrix(2.3257341,0,0,2.2943177,447.69485,-1820.2799)"
       x1="-145.25935"
       y1="984.24286"
       x2="-64.14286"
       y2="984.14789" />
    <linearGradient
       inkscape:collect="always"
       id="linearGradient4719-5">
      <stop
         style="stop-color:#666666;stop-opacity:1;"
         offset="0"
         id="stop4721-5" />
      <stop
         id="stop4809-1"
         offset="0.39344174"
         style="stop-color:#666666;stop-opacity:0.74901961;" />
      <stop
         style="stop-color:#666666;stop-opacity:0;"
         offset="1"
         id="stop4723-7" />
    </linearGradient>
    <radialGradient
       inkscape:collect="always"
       xlink:href="#linearGradient4801-8"
       id="radialGradient4041"
       gradientUnits="userSpaceOnUse"
       gradientTransform="matrix(-0.72153181,1.2650715,-2.2729984,-1.2616144,1712.0113,1733.7841)"
       cx="-307.14288"
       cy="782.36218"
       fx="-307.14288"
       fy="782.36218"
       r="63" />
    <linearGradient
       inkscape:collect="always"
       id="linearGradient4801-8">
      <stop
         style="stop-color:#000000;stop-opacity:1;"
         offset="0"
         id="stop4803-2" />
      <stop
         style="stop-color:#000000;stop-opacity:0;"
         offset="1"
         id="stop4805-4" />
    </linearGradient>
    <inkscape:path-effect
       effect="spiro"
       id="path-effect10108-4"
       is_visible="true" />
    <linearGradient
       inkscape:collect="always"
       xlink:href="#linearGradient4719-5"
       id="linearGradient4044"
       gradientUnits="userSpaceOnUse"
       gradientTransform="matrix(-2.4055369,0,0,-1.6485021,142.06168,1726.5307)"
       x1="-145.25935"
       y1="984.24286"
       x2="-64.14286"
       y2="984.14789" />
    <radialGradient
       inkscape:collect="always"
       xlink:href="#linearGradient4801-8"
       id="radialGradient4046"
       gradientUnits="userSpaceOnUse"
       gradientTransform="matrix(0.74628962,-0.90897301,2.3509914,0.90648896,-1165.637,-827.11785)"
       cx="-307.14288"
       cy="782.36218"
       fx="-307.14288"
       fy="782.36218"
       r="63" />
    <inkscape:path-effect
       effect="spiro"
       id="path-effect10102-7"
       is_visible="true" />
    <linearGradient
       inkscape:collect="always"
       xlink:href="#linearGradient4719-5"
       id="linearGradient4049"
       gradientUnits="userSpaceOnUse"
       gradientTransform="matrix(2.334989,0,0,-1.6146975,449.44065,1692.189)"
       x1="-145.25935"
       y1="984.24286"
       x2="-64.14286"
       y2="984.14789" />
    <radialGradient
       inkscape:collect="always"
       xlink:href="#linearGradient4801-8"
       id="radialGradient4051"
       gradientUnits="userSpaceOnUse"
       gradientTransform="matrix(-0.72440295,-0.89033332,-2.2820431,0.88790031,1718.7881,-809.09364)"
       cx="-307.14288"
       cy="782.36218"
       fx="-307.14288"
       fy="782.36218"
       r="63" />
    <inkscape:path-effect
       is_visible="true"
       id="path-effect10096-8"
       effect="spiro" />
    <linearGradient
       inkscape:collect="always"
       xlink:href="#linearGradient4719-5"
       id="linearGradient4054"
       gradientUnits="userSpaceOnUse"
       gradientTransform="matrix(-2.409599,0,0,2.2818507,139.61083,-1810.8163)"
       x1="-145.25935"
       y1="984.24286"
       x2="-64.14286"
       y2="984.14789" />
    <radialGradient
       inkscape:collect="always"
       xlink:href="#linearGradient4801-8"
       id="radialGradient4056"
       gradientUnits="userSpaceOnUse"
       gradientTransform="matrix(0.74754985,1.2581972,2.3549614,-1.2547588,-1170.296,1723.935)"
       cx="-307.14288"
       cy="782.36218"
       fx="-307.14288"
       fy="782.36218"
       r="63" />
    <inkscape:path-effect
       is_visible="true"
       id="path-effect10090-3"
       effect="spiro" />
    <inkscape:path-effect
       effect="spiro"
       id="path-effect10084-1"
       is_visible="true" />
    <inkscape:path-effect
       effect="spiro"
       id="path-effect10082-1"
       is_visible="true" />
    <radialGradient
       inkscape:collect="always"
       xlink:href="#linearGradient4801-8"
       id="radialGradient4061"
       gradientUnits="userSpaceOnUse"
       gradientTransform="matrix(-0.76516322,1.2901254,-2.4104477,-1.2865998,1806.8444,1757.4704)"
       cx="-307.14288"
       cy="782.36218"
       fx="-307.14288"
       fy="782.36218"
       r="63" />
    <inkscape:path-effect
       effect="spiro"
       id="path-effect10080-4"
       is_visible="true" />
    <inkscape:path-effect
       is_visible="true"
       id="path-effect3075-1"
       effect="spiro" />
    <inkscape:path-effect
       effect="spiro"
       id="path-effect3101-7"
       is_visible="true" />
    <linearGradient
       inkscape:collect="always"
       xlink:href="#grad1-7-7"
       id="linearGradient3085-8-8"
       gradientUnits="userSpaceOnUse"
       gradientTransform="matrix(0.77469594,0,0,0.30982404,152.68996,-13.619206)"
       x1="78.877235"
       y1="178.07356"
       x2="301.40585"
       y2="178.07356" />
    <linearGradient
       id="grad1-7-7"
       x1="78.877235"
       y1="178.07356"
       x2="301.40585"
       y2="178.07356"
       gradientTransform="scale(1.577772,0.63380513)"
       gradientUnits="userSpaceOnUse">
      <stop
         offset="0%"
         style="stop-color:#da0;"
         id="stop16-4-4" />
      <stop
         offset="40%"
         style="stop-color:#fd0;"
         id="stop18-0-0" />
      <stop
         offset="60%"
         style="stop-color:#fd0;"
         id="stop20-9-9" />
      <stop
         offset="100%"
         style="stop-color:#da0;"
         id="stop22-4-4" />
    </linearGradient>
    <linearGradient
       inkscape:collect="always"
       xlink:href="#grad1-7-7"
       id="linearGradient3081-8-8"
       gradientUnits="userSpaceOnUse"
       gradientTransform="matrix(0.77469594,0,0,0.30982404,-27.310046,-13.619206)"
       x1="78.877235"
       y1="178.07356"
       x2="301.40585"
       y2="178.07356" />
    <linearGradient
       id="linearGradient3093"
       x1="78.877235"
       y1="178.07356"
       x2="301.40585"
       y2="178.07356"
       gradientTransform="scale(1.577772,0.63380513)"
       gradientUnits="userSpaceOnUse">
      <stop
         offset="0%"
         style="stop-color:#da0;"
         id="stop3095" />
      <stop
         offset="40%"
         style="stop-color:#fd0;"
         id="stop3097" />
      <stop
         offset="60%"
         style="stop-color:#fd0;"
         id="stop3099" />
      <stop
         offset="100%"
         style="stop-color:#da0;"
         id="stop3101" />
    </linearGradient>
    <linearGradient
       y2="178.07356"
       x2="301.40585"
       y1="178.07356"
       x1="78.877235"
       gradientTransform="matrix(0.77469594,0,0,0.30982404,332.68995,-13.619206)"
       gradientUnits="userSpaceOnUse"
       id="linearGradient3128-1"
       xlink:href="#grad1-7-7"
       inkscape:collect="always" />
    <linearGradient
       id="linearGradient3104"
       x1="78.877235"
       y1="178.07356"
       x2="301.40585"
       y2="178.07356"
       gradientTransform="scale(1.577772,0.63380513)"
       gradientUnits="userSpaceOnUse">
      <stop
         offset="0%"
         style="stop-color:#da0;"
         id="stop3106" />
      <stop
         offset="40%"
         style="stop-color:#fd0;"
         id="stop3108" />
      <stop
         offset="60%"
         style="stop-color:#fd0;"
         id="stop3110" />
      <stop
         offset="100%"
         style="stop-color:#da0;"
         id="stop3112" />
    </linearGradient>
    <clipPath
       clipPathUnits="userSpaceOnUse"
       id="clipPath6566">
      <path
         d="m 2,2 0,257 c 0,286 298,398 298,398 0,0 298,-112 298,-398 L 598,2 z"
         id="path6568"
         style="fill:#90ee90;fill-opacity:1;stroke:none;display:inline"
         inkscape:connector-curvature="0" />
    </clipPath>
    <inkscape:path-effect
       effect="spiro"
       id="path-effect4868-1"
       is_visible="true" />
  </defs>
  <g
     inkscape:groupmode="layer"
     id="layer2"
     inkscape:label="Elements"
     style="display:inline">
    <path
       inkscape:connector-curvature="0"
       style="fill:#000000;fill-opacity:1;stroke:none;display:inline"
       id="path7212"
       d="m 2,2 0,257 c 0,286 298,398 298,398 0,0 298,-112 298,-398 L 598,2 z" />
    <path
       style="fill:#cc0000;stroke:none;stroke-width:1px;stroke-linecap:butt;stroke-linejoin:miter;stroke-opacity:1"
       d="M 131.46875 2 L 2 131.46875 L 2 257.21875 L 257.21875 2 L 131.46875 2 z M 382.9375 2 L 17.4375 367.53125 C 26.906687 399.50405 40.24191 428.51001 56 454.71875 L 508.6875 2 L 382.9375 2 z M 598 38.4375 L 110.21875 526.25 C 131.74123 549.34182 154.47958 569.10229 176.46875 585.75 L 598 164.1875 L 598 38.4375 z M 596.6875 291.25 L 253.09375 634.84375 C 281.21873 649.93711 300 657 300 657 C 300 657 372.16545 629.84931 445.46875 568.21875 L 506.96875 506.75 C 507.00196 506.71005 507.0293 506.66497 507.0625 506.625 C 552.53697 451.88757 589.44247 380.81901 596.6875 291.25 z "
       id="path4842" />
    <g
       id="g3145"
       transform="translate(0,-1.5)">
      <path
         id="path3252"
         d="m 286.79494,435.97253 c 0,0 3.09278,15.07733 0.51546,20.61858 -6.08709,13.08724 -23.19591,32.47427 -23.19591,32.47427 l -13.40208,-15.46394 c 0,0 16.49486,-7.6031 18.04126,-18.55673 1.5464,-10.95361 -5.33405,-21.49882 -11.85568,-25.25776"
         style="fill:#ffdd00;fill-opacity:1;fill-rule:evenodd;stroke:#000000;stroke-width:1.99999988;stroke-miterlimit:4;stroke-opacity:1;stroke-dasharray:none;display:inline"
         inkscape:connector-curvature="0" />
      <path
         d="m 251.6577,473.68289 c -14.52021,0.74037 -38.85501,-9.32507 -42.1518,-7.57876 -4.64889,2.46251 1.20939,8.87044 -0.91121,11.29915 -1.96101,2.2459 -10.35079,-1.43007 -10.11456,4.0701 0.24245,5.6451 12.67763,5.27203 13.5772,7.59351 1.45834,3.76355 -4.43365,5.44514 -2.00469,9.65896 1.57975,2.74058 40.72393,-1.2062 54.12654,-9.84119 L 251.6577,473.68289 z"
         style="fill:#ffdd00;fill-opacity:1;fill-rule:evenodd;stroke:#000000;stroke-width:1.99999988;stroke-miterlimit:4;stroke-opacity:1;stroke-dasharray:none"
         id="path3811"
         inkscape:connector-curvature="0" />
    </g>
    <path
       style="fill:#ffdd00;fill-opacity:1;fill-rule:evenodd;stroke:#000000;stroke-width:1.99999988;stroke-miterlimit:4;stroke-opacity:1;stroke-dasharray:none;display:inline"
       d="m 159.99064,223.47741 c 7.75126,-33.71668 5.02578,-33.24748 2.06186,-39.17533 -9.36477,-18.72952 -43.29903,-32.98973 -43.29903,-32.98973 l -9.27836,-35.05159 c 0,0 14.12768,-9.9869 35.56705,-10.3093 16.62373,-0.25773 38.98756,19.59818 45.36089,31.95881 6.26162,12.14396 9.69515,37.66951 7.73196,68.5568 -1.93297,30.4124 -6.36057,41.26993 -3.09278,55.15471 3.59066,15.25661 14.24842,24.31712 26.28869,29.89695 25.41511,11.77814 54.07604,-1.23672 81.19229,5.78904 29.76318,7.71157 52.03337,31.21242 81.27185,36.05639 19.37076,3.20918 41.84764,3.5033 58.67018,-5.24744 -8.73644,19.12509 -22.53027,30.19726 -38.65985,38.65983 14.63851,15.61144 41.16467,33.94299 97.42281,14.94848 -52.29998,56.412 -117.361,51.3497 -158.24763,56.7011 4.08053,13.01525 4.30202,22.33312 3.09278,29.89695 -2.38463,14.91622 -11.85568,29.89694 -11.85568,29.89694 l -10.30928,-14.94846 c 8.12142,-6.28485 6.37931,-15.85755 6.70104,-24.74231 -1.92327,-9.7606 -9.20402,-14.16371 -16.49488,-18.55672 C 170.12459,423.64303 132.39974,335.4686 159.99064,223.47741 z"
       id="path2897"
       inkscape:connector-curvature="0"
       sodipodi:nodetypes="cscccsssssaccccsccccc" />
    <path
       inkscape:connector-curvature="0"
       id="path3813"
       style="fill:#ffdd00;fill-opacity:1;fill-rule:evenodd;stroke:#000000;stroke-width:1.99999988;stroke-miterlimit:4;stroke-opacity:1;stroke-dasharray:none"
       d="m 324.53329,483.2036 c -13.90201,6.34191 -36.99505,-4.71453 -39.94275,-1.80033 -5.35579,5.29491 4.10048,5.55845 1.45796,8.74773 -2.64255,3.18928 -9.7596,2.42733 -8.64649,7.54288 1.22292,5.62026 9.38603,2.77341 11.1979,5.57871 1.53358,2.3744 -4.46117,5.49406 0.72897,9.65894 2.10944,1.69273 45.03644,-15.15755 45.03644,-15.15755 l -9.83203,-14.57038 z" />
    <path
       inkscape:connector-curvature="0"
       id="path2899"
       style="color:#000000;fill:#000000;fill-opacity:1;fill-rule:evenodd;stroke:none;stroke-width:1.11030793;marker:none;visibility:visible;display:inline;overflow:visible"
       d="m 149.29476,122.05973 c 0.004,3.2752 -5.42062,5.93129 -12.11341,5.93129 -6.69281,0 -12.1173,-2.65609 -12.11341,-5.93129 -0.004,-3.2752 5.4206,-5.93127 12.11341,-5.93127 6.69279,0 12.11731,2.65607 12.11341,5.93127 z" />
    <path
       inkscape:connector-curvature="0"
       id="path2901"
       style="color:#000000;fill:#ffffff;fill-opacity:1;fill-rule:evenodd;stroke:none;stroke-width:1.11030793;marker:none;visibility:visible;display:inline;overflow:visible"
       d="m 137.8251,122.05973 c 0.001,2.70523 -2.22052,4.8988 -4.96133,4.8988 -2.74082,0 -4.96239,-2.19357 -4.96132,-4.8988 -0.001,-2.70521 2.2205,-4.89879 4.96132,-4.89879 2.74081,0 4.96237,2.19358 4.96133,4.89879 z" />
    <path
       inkscape:connector-curvature="0"
       id="path2903"
       style="fill:#ffdd00;fill-opacity:1;fill-rule:evenodd;stroke:#000000;stroke-width:1.99999988;stroke-miterlimit:4;stroke-opacity:1;stroke-dasharray:none"
       d="m 109.45382,116.36803 c -15.94727,4.823 -46.055853,12.76671 -46.682021,17.94837 0.641605,6.49605 38.212331,13.02957 56.158701,17.22477 6.81438,-9.82472 12.03061,-19.95383 -9.47668,-35.17314 z" />
    <path
       inkscape:connector-curvature="0"
       id="path2905"
       style="fill:none;stroke:#000000;stroke-width:1.99999988;stroke-linecap:butt;stroke-linejoin:miter;stroke-miterlimit:4;stroke-opacity:1;stroke-dasharray:none"
       d="m 62.825567,134.17316 c 20.215743,1.56295 40.265913,3.73313 61.469143,1.67525" />
    <path
       inkscape:connector-curvature="0"
       id="path3795"
       style="fill:none;stroke:#000000;stroke-width:1.99999988;stroke-linecap:butt;stroke-linejoin:miter;stroke-miterlimit:4;stroke-opacity:1;stroke-dasharray:none"
       d="m 235.0201,300.98147 c 0,0 7.83651,5.19397 8.01874,11.66363 0.21683,7.69716 -25.69642,10.84351 -18.22442,24.42072 7.47202,13.5772 29.95005,24.73227 48.11249,29.88807 43.59573,12.37558 99.90408,5.33643 135.95421,-0.3645"
       sodipodi:nodetypes="cssac" />
    <path
       inkscape:connector-curvature="0"
       id="path3799"
       style="fill:none;stroke:#000000;stroke-width:1.99999988;stroke-linecap:butt;stroke-linejoin:miter;stroke-miterlimit:4;stroke-opacity:1;stroke-dasharray:none"
       d="m 264.54367,318.47692 c 0,0 28.05061,-1.59981 40.82271,2.9159 12.11957,4.28499 65.07178,21.42769 75.81361,20.41136" />
    <path
       inkscape:connector-curvature="0"
       id="path3801"
       style="fill:none;stroke:#000000;stroke-width:1.99999988;stroke-linecap:butt;stroke-linejoin:miter;stroke-miterlimit:4;stroke-opacity:1;stroke-dasharray:none"
       d="m 263.81468,328.3181 c 0,0 26.95715,0.58715 39.72925,5.10284 12.11957,4.28501 70.90361,18.14729 81.64544,17.13096" />
    <path
       inkscape:connector-curvature="0"
       id="path3803"
       style="fill:none;stroke:#000000;stroke-width:1.99999988;stroke-linecap:butt;stroke-linejoin:miter;stroke-miterlimit:4;stroke-opacity:1;stroke-dasharray:none"
       d="m 259.44083,344.72009 c 0,0 28.05062,-1.59979 40.82271,2.91591 12.11958,4.28499 80.38029,13.77343 91.12212,12.75709" />
    <path
       inkscape:connector-curvature="0"
       id="path3805"
       style="fill:none;stroke:#000000;stroke-width:1.99999988;stroke-linecap:butt;stroke-linejoin:miter;stroke-miterlimit:4;stroke-opacity:1;stroke-dasharray:none"
       d="m 315.27409,440.71268 c -8.5541,-7.8906 -12.05673,-18.65857 -13.48606,-27.33663" />
    <path
       inkscape:connector-curvature="0"
       id="path3807"
       style="fill:none;stroke:#000000;stroke-width:1.99999988;stroke-linecap:butt;stroke-linejoin:miter;stroke-miterlimit:4;stroke-opacity:1;stroke-dasharray:none"
       d="m 343.68142,440.77921 c -5.05395,-13.73381 -4.70945,-25.30824 -5.10284,-37.17782" />
  </g>
  <g
     inkscape:groupmode="layer"
     id="layer1"
     inkscape:label="Cover"
     style="display:inline"
     sodipodi:insensitive="true">
    <path
       d="m 2,2 v 257 c 0,286 298,398 298,398 0,0 298,-112 298,-398 V 2 z"
       id="shine"
       inkscape:connector-curvature="0"
       style="fill:url(#radialGradient3074);stroke:#000000;stroke-width:3" />
  </g>
</svg>
