<?xml version="1.0" encoding="UTF-8" standalone="no"?>
<svg
   xmlns:dc="http://purl.org/dc/elements/1.1/"
   xmlns:cc="http://creativecommons.org/ns#"
   xmlns:rdf="http://www.w3.org/1999/02/22-rdf-syntax-ns#"
   xmlns:svg="http://www.w3.org/2000/svg"
   xmlns="http://www.w3.org/2000/svg"
   xmlns:xlink="http://www.w3.org/1999/xlink"
   xmlns:sodipodi="http://sodipodi.sourceforge.net/DTD/sodipodi-0.dtd"
   xmlns:inkscape="http://www.inkscape.org/namespaces/inkscape"
   width="600"
   height="660"
   id="svg2"
   version="1.1"
   inkscape:version="0.48.2 r9819"
   sodipodi:docname="House_Morrigen.svg">
  <metadata
     id="metadata24">
    <rdf:RDF>
      <cc:Work
         rdf:about="">
        <dc:format>image/svg+xml</dc:format>
        <dc:type
           rdf:resource="http://purl.org/dc/dcmitype/StillImage" />
        <dc:title />
      </cc:Work>
    </rdf:RDF>
  </metadata>
  <sodipodi:namedview
     pagecolor="#ffffff"
     bordercolor="#666666"
     borderopacity="1"
     objecttolerance="10"
     gridtolerance="10"
     guidetolerance="10"
     inkscape:pageopacity="0"
     inkscape:pageshadow="2"
     inkscape:window-width="1366"
     inkscape:window-height="715"
     id="namedview22"
     showgrid="false"
     inkscape:zoom="0.5056885"
     inkscape:cx="-98.476204"
     inkscape:cy="370.89208"
     inkscape:window-x="-8"
     inkscape:window-y="-8"
     inkscape:window-maximized="1"
     inkscape:current-layer="layer2" />
  <defs
     id="defs4">
    <inkscape:path-effect
       is_visible="true"
       id="path-effect3136"
       effect="spiro" />
    <inkscape:path-effect
       effect="spiro"
       id="path-effect3132"
       is_visible="true" />
    <inkscape:path-effect
       effect="spiro"
       id="path-effect3101"
       is_visible="true" />
    <inkscape:path-effect
       is_visible="true"
       id="path-effect3085"
       effect="spiro" />
    <inkscape:path-effect
       is_visible="true"
       id="path-effect3083"
       effect="spiro" />
    <inkscape:path-effect
       is_visible="true"
       id="path-effect3081"
       effect="spiro" />
    <inkscape:path-effect
       is_visible="true"
       id="path-effect3079"
       effect="spiro" />
    <inkscape:path-effect
       is_visible="true"
       id="path-effect3077"
       effect="spiro" />
    <inkscape:path-effect
       is_visible="true"
       id="path-effect3075"
       effect="spiro" />
    <inkscape:path-effect
       effect="spiro"
       id="path-effect3049"
       is_visible="true" />
    <inkscape:path-effect
       is_visible="true"
       id="path-effect3045"
       effect="spiro" />
    <inkscape:path-effect
       effect="spiro"
       id="path-effect3041"
       is_visible="true" />
    <radialGradient
       id="rg"
       gradientUnits="userSpaceOnUse"
       cx="220"
       cy="220"
       r="405">
      <stop
         style="stop-color:#fff;stop-opacity:.3"
         offset="0"
         id="stop7" />
      <stop
         style="stop-color:#fff;stop-opacity:.2"
         offset=".2"
         id="stop9" />
      <stop
         style="stop-color:#666;stop-opacity:.1"
         offset=".6"
         id="stop11" />
      <stop
         style="stop-color:#000;stop-opacity:.13"
         offset="1"
         id="stop13" />
    </radialGradient>
    <path
       id="shield"
       d="m2,2v257c0,286 298,398 298,398c0,0 298-112 298-398V2z" />
    <radialGradient
       inkscape:collect="always"
       xlink:href="#rg-7"
       id="radialGradient3055-1"
       gradientUnits="userSpaceOnUse"
       cx="220"
       cy="220"
       r="405" />
    <radialGradient
       id="rg-7"
       gradientUnits="userSpaceOnUse"
       cx="220"
       cy="220"
       r="405">
      <stop
         style="stop-color:#fff;stop-opacity:.3"
         offset="0"
         id="stop7-4" />
      <stop
         style="stop-color:#fff;stop-opacity:.2"
         offset=".2"
         id="stop9-0" />
      <stop
         style="stop-color:#666;stop-opacity:.1"
         offset=".6"
         id="stop11-9" />
      <stop
         style="stop-color:#000;stop-opacity:.13"
         offset="1"
         id="stop13-4" />
    </radialGradient>
    <radialGradient
       r="405"
       cy="220"
       cx="220"
       gradientUnits="userSpaceOnUse"
       id="radialGradient3074"
       xlink:href="#rg-7"
       inkscape:collect="always" />
    <inkscape:path-effect
       is_visible="true"
       id="path-effect10120-1"
       effect="spiro" />
    <inkscape:path-effect
       effect="spiro"
       id="path-effect10118-3"
       is_visible="true" />
    <inkscape:path-effect
       effect="spiro"
       id="path-effect10116-9"
       is_visible="true" />
    <inkscape:path-effect
       effect="spiro"
       id="path-effect10114-7"
       is_visible="true" />
    <inkscape:path-effect
       effect="spiro"
       id="path-effect10112-7"
       is_visible="true" />
    <inkscape:path-effect
       effect="spiro"
       id="path-effect10110-2"
       is_visible="true" />
    <linearGradient
       inkscape:collect="always"
       xlink:href="#linearGradient4719-5"
       id="linearGradient4039"
       gradientUnits="userSpaceOnUse"
       gradientTransform="matrix(2.3257341,0,0,2.2943177,447.69485,-1820.2799)"
       x1="-145.25935"
       y1="984.24286"
       x2="-64.14286"
       y2="984.14789" />
    <linearGradient
       inkscape:collect="always"
       id="linearGradient4719-5">
      <stop
         style="stop-color:#666666;stop-opacity:1;"
         offset="0"
         id="stop4721-5" />
      <stop
         id="stop4809-1"
         offset="0.39344174"
         style="stop-color:#666666;stop-opacity:0.74901961;" />
      <stop
         style="stop-color:#666666;stop-opacity:0;"
         offset="1"
         id="stop4723-7" />
    </linearGradient>
    <radialGradient
       inkscape:collect="always"
       xlink:href="#linearGradient4801-8"
       id="radialGradient4041"
       gradientUnits="userSpaceOnUse"
       gradientTransform="matrix(-0.72153181,1.2650715,-2.2729984,-1.2616144,1712.0113,1733.7841)"
       cx="-307.14288"
       cy="782.36218"
       fx="-307.14288"
       fy="782.36218"
       r="63" />
    <linearGradient
       inkscape:collect="always"
       id="linearGradient4801-8">
      <stop
         style="stop-color:#000000;stop-opacity:1;"
         offset="0"
         id="stop4803-2" />
      <stop
         style="stop-color:#000000;stop-opacity:0;"
         offset="1"
         id="stop4805-4" />
    </linearGradient>
    <inkscape:path-effect
       effect="spiro"
       id="path-effect10108-4"
       is_visible="true" />
    <linearGradient
       inkscape:collect="always"
       xlink:href="#linearGradient4719-5"
       id="linearGradient4044"
       gradientUnits="userSpaceOnUse"
       gradientTransform="matrix(-2.4055369,0,0,-1.6485021,142.06168,1726.5307)"
       x1="-145.25935"
       y1="984.24286"
       x2="-64.14286"
       y2="984.14789" />
    <radialGradient
       inkscape:collect="always"
       xlink:href="#linearGradient4801-8"
       id="radialGradient4046"
       gradientUnits="userSpaceOnUse"
       gradientTransform="matrix(0.74628962,-0.90897301,2.3509914,0.90648896,-1165.637,-827.11785)"
       cx="-307.14288"
       cy="782.36218"
       fx="-307.14288"
       fy="782.36218"
       r="63" />
    <inkscape:path-effect
       effect="spiro"
       id="path-effect10102-7"
       is_visible="true" />
    <linearGradient
       inkscape:collect="always"
       xlink:href="#linearGradient4719-5"
       id="linearGradient4049"
       gradientUnits="userSpaceOnUse"
       gradientTransform="matrix(2.334989,0,0,-1.6146975,449.44065,1692.189)"
       x1="-145.25935"
       y1="984.24286"
       x2="-64.14286"
       y2="984.14789" />
    <radialGradient
       inkscape:collect="always"
       xlink:href="#linearGradient4801-8"
       id="radialGradient4051"
       gradientUnits="userSpaceOnUse"
       gradientTransform="matrix(-0.72440295,-0.89033332,-2.2820431,0.88790031,1718.7881,-809.09364)"
       cx="-307.14288"
       cy="782.36218"
       fx="-307.14288"
       fy="782.36218"
       r="63" />
    <inkscape:path-effect
       is_visible="true"
       id="path-effect10096-8"
       effect="spiro" />
    <linearGradient
       inkscape:collect="always"
       xlink:href="#linearGradient4719-5"
       id="linearGradient4054"
       gradientUnits="userSpaceOnUse"
       gradientTransform="matrix(-2.409599,0,0,2.2818507,139.61083,-1810.8163)"
       x1="-145.25935"
       y1="984.24286"
       x2="-64.14286"
       y2="984.14789" />
    <radialGradient
       inkscape:collect="always"
       xlink:href="#linearGradient4801-8"
       id="radialGradient4056"
       gradientUnits="userSpaceOnUse"
       gradientTransform="matrix(0.74754985,1.2581972,2.3549614,-1.2547588,-1170.296,1723.935)"
       cx="-307.14288"
       cy="782.36218"
       fx="-307.14288"
       fy="782.36218"
       r="63" />
    <inkscape:path-effect
       is_visible="true"
       id="path-effect10090-3"
       effect="spiro" />
    <inkscape:path-effect
       effect="spiro"
       id="path-effect10084-1"
       is_visible="true" />
    <inkscape:path-effect
       effect="spiro"
       id="path-effect10082-1"
       is_visible="true" />
    <radialGradient
       inkscape:collect="always"
       xlink:href="#linearGradient4801-8"
       id="radialGradient4061"
       gradientUnits="userSpaceOnUse"
       gradientTransform="matrix(-0.76516322,1.2901254,-2.4104477,-1.2865998,1806.8444,1757.4704)"
       cx="-307.14288"
       cy="782.36218"
       fx="-307.14288"
       fy="782.36218"
       r="63" />
    <inkscape:path-effect
       effect="spiro"
       id="path-effect10080-4"
       is_visible="true" />
    <inkscape:path-effect
       is_visible="true"
       id="path-effect3075-1"
       effect="spiro" />
    <inkscape:path-effect
       effect="spiro"
       id="path-effect3101-7"
       is_visible="true" />
    <linearGradient
       inkscape:collect="always"
       xlink:href="#grad1-7-7"
       id="linearGradient3085-8-8"
       gradientUnits="userSpaceOnUse"
       gradientTransform="matrix(0.77469594,0,0,0.30982404,152.68996,-13.619206)"
       x1="78.877235"
       y1="178.07356"
       x2="301.40585"
       y2="178.07356" />
    <linearGradient
       id="grad1-7-7"
       x1="78.877235"
       y1="178.07356"
       x2="301.40585"
       y2="178.07356"
       gradientTransform="scale(1.577772,0.63380513)"
       gradientUnits="userSpaceOnUse">
      <stop
         offset="0%"
         style="stop-color:#da0;"
         id="stop16-4-4" />
      <stop
         offset="40%"
         style="stop-color:#fd0;"
         id="stop18-0-0" />
      <stop
         offset="60%"
         style="stop-color:#fd0;"
         id="stop20-9-9" />
      <stop
         offset="100%"
         style="stop-color:#da0;"
         id="stop22-4-4" />
    </linearGradient>
    <linearGradient
       inkscape:collect="always"
       xlink:href="#grad1-7-7"
       id="linearGradient3081-8-8"
       gradientUnits="userSpaceOnUse"
       gradientTransform="matrix(0.77469594,0,0,0.30982404,-27.310046,-13.619206)"
       x1="78.877235"
       y1="178.07356"
       x2="301.40585"
       y2="178.07356" />
    <linearGradient
       id="linearGradient3093"
       x1="78.877235"
       y1="178.07356"
       x2="301.40585"
       y2="178.07356"
       gradientTransform="scale(1.577772,0.63380513)"
       gradientUnits="userSpaceOnUse">
      <stop
         offset="0%"
         style="stop-color:#da0;"
         id="stop3095" />
      <stop
         offset="40%"
         style="stop-color:#fd0;"
         id="stop3097" />
      <stop
         offset="60%"
         style="stop-color:#fd0;"
         id="stop3099" />
      <stop
         offset="100%"
         style="stop-color:#da0;"
         id="stop3101" />
    </linearGradient>
    <linearGradient
       y2="178.07356"
       x2="301.40585"
       y1="178.07356"
       x1="78.877235"
       gradientTransform="matrix(0.77469594,0,0,0.30982404,332.68995,-13.619206)"
       gradientUnits="userSpaceOnUse"
       id="linearGradient3128-1"
       xlink:href="#grad1-7-7"
       inkscape:collect="always" />
    <linearGradient
       id="linearGradient3104"
       x1="78.877235"
       y1="178.07356"
       x2="301.40585"
       y2="178.07356"
       gradientTransform="scale(1.577772,0.63380513)"
       gradientUnits="userSpaceOnUse">
      <stop
         offset="0%"
         style="stop-color:#da0;"
         id="stop3106" />
      <stop
         offset="40%"
         style="stop-color:#fd0;"
         id="stop3108" />
      <stop
         offset="60%"
         style="stop-color:#fd0;"
         id="stop3110" />
      <stop
         offset="100%"
         style="stop-color:#da0;"
         id="stop3112" />
    </linearGradient>
  </defs>
  <g
     inkscape:groupmode="layer"
     id="layer2"
     inkscape:label="Elements"
     style="display:inline">
    <path
       inkscape:connector-curvature="0"
       style="fill:#00aaaa;fill-opacity:1;stroke:none;display:inline"
       id="path7212"
       d="m 2,2 0,257 c 0,286 298,398 298,398 0,0 298,-112 298,-398 L 598,2 z" />
    <path
       inkscape:connector-curvature="0"
       style="fill:none;stroke:none;display:inline"
       id="path7200"
       d="m 2,2 0,257 c 0,286 298,398 298,398 0,0 298,-112 298,-398 L 598,2 z" />
    <path
       inkscape:connector-curvature="0"
       id="path21"
       d="m 363.80435,282.9391 c 2.13892,1.80438 2.31543,3.52251 3.76133,4.41467 4.20852,2.5979 32.50098,4.91208 36.16396,5.23535 3.66294,0.32329 25.95127,2.33711 29.80514,2.492 3.86434,0.1532 16.36977,3.86692 16.40703,9.09277 0.0358,5.22692 -2.80776,8.19574 -4.67547,10.03803 0,0 1.38544,7.25946 -0.75054,9.39 1.39389,1.82403 2.90876,12.91637 -9.33044,17.25496 -3.45797,5.61886 -13.39214,13.6836 -27.64592,15.64363 -9.54629,7.73066 -18.63289,13.34939 -35.85304,-2.23766 -4.30031,-3.89089 -31.54147,-35.62333 -38.60247,-33.35906 -4.16067,1.33789 -3.56905,6.88086 -16.54774,9.4901 -1.31167,0.26162 -0.84595,1.76148 -0.37381,2.92087 0.63418,1.54999 5.63184,-0.98509 5.9077,-0.55981 0.72799,1.12266 -4.51664,7.57018 -10.72932,9.03246 5.24925,5.02132 -5.21799,11.09107 -7.62959,12.3586 0.95443,5.28959 -7.16424,10.9024 -12.22689,12.24158 -0.10744,7.25733 -7.631,12.35967 -14.52474,13.76824 0.80423,5.24768 -8.64836,12.82924 -16.74087,14.57366 -3.2797,9.77003 -12.19696,9.17216 -14.94839,8.48031 -6.34818,7.34507 -10.25475,16.07958 -14.19113,19.18574 -3.93654,3.10718 -8.01887,-2.63521 -10.45016,-5.01534 1.32252,3.57646 7.93726,22.73929 9.12025,31.20967 1.1908,8.46997 -2.60166,19.14217 -6.84343,21.17367 -4.23771,2.03026 -7.91709,-11.56986 -7.91709,-11.56986 1.46408,8.17135 2.67637,20.29497 1.49679,24.28256 -1.17946,3.98663 -4.79067,9.84401 -6.58883,10.00204 -1.80215,0.15917 -16.3158,-42.94522 -16.3158,-42.94522 -1.0905,4.84513 -0.47799,20.74323 -1.79551,33.88063 -1.30826,13.13488 -10.70274,17.92383 -12.16498,18.25316 -0.7151,0.16738 -1.33918,-12.71004 -2.62185,-26.04859 -1.34341,-13.98426 -3.32639,-28.46212 -3.32639,-28.46212 0.85806,8.98495 -1.45187,15.75325 -3.8089,31.24713 -2.35238,15.48753 -13.01866,21.72917 -14.62838,21.71791 -0.6432,-0.005 0.37283,-7.11786 0.86631,-15.54591 0.73841,-12.61051 1.28459,-28.25648 1.28459,-28.25648 -0.26977,5.54962 -2.569,13.29321 -6.09293,19.71474 -3.71173,6.74514 -8.69054,12.01904 -10.24898,10.89009 -1.6767,-1.21214 -0.58538,-15.22936 1.9688,-29.62358 3.48103,-19.69089 8.9151,-40.26072 5.94794,-30.67862 -5.1394,16.59194 -13.12257,22.28297 -14.67651,21.68083 -0.75382,-0.29064 2.63377,-18.24822 9.58805,-37.88307 7.3959,-20.89387 18.44882,-43.65049 20.24922,-47.73354 3.47696,-7.9159 13.07905,-30.11834 17.14738,-33.93614 4.07068,-3.81591 39.6668,-27.10168 42.63495,-29.27268 2.96039,-2.1706 17.33582,-17.25422 14.91074,-17.62089 -2.41331,-0.36833 -5.70722,-7.00093 -10.95871,-9.92814 -3.53281,-1.97826 -13.11227,-6.51211 -14.60935,-7.28785 -1.49903,-0.77056 -1.08155,-0.16887 -9.2758,-3.14729 -4.84284,-1.76247 -21.12865,-0.47102 -18.28159,-4.22394 6.85146,-9.03069 25.95438,-8.65278 28.64821,-8.82414 2.69243,-0.17037 2.36384,-1.22239 10.66946,-3.35166 8.31532,-2.13486 35.42196,0.0353 35.42196,0.0353 3.57021,-0.76957 8.24824,-1.41846 12.64635,-5.36522 4.39358,-3.95161 20.75484,-30.30959 22.53691,-49.53787 0.39338,-4.25421 5.73341,-10.1949 15.9082,-17.28619 0,0 57.6371,-43.42634 70.20471,-51.99136 12.56413,-8.55771 34.95329,-23.401404 37.78391,-24.164834 2.82298,-0.764052 -9.53662,14.707674 -15.22073,18.319554 -5.68282,3.61181 -24.47438,15.7235 -26.84218,17.61736 24.83033,-14.43009 86.40212,-50.324129 97.69287,-54.414059 3.65118,-1.32426 -11.65602,15.477581 -16.55488,19.321555 -4.8843,3.840164 -27.76505,17.047194 -36.83024,20.072254 13.0921,-3.83788 75.74648,-35.207579 76.2567,-34.225879 0.514,0.97136 -1.33594,8.46806 -19.44998,19.257699 -18.11208,10.79459 -35.17333,19.27677 -40.24498,20.8185 11.64986,-3.33402 68.82477,-26.796704 71.49362,-25.164232 2.66809,1.628432 -8.9096,13.240982 -19.79755,18.448222 -10.88536,5.20711 -30.28228,13.34736 -36.87364,17.29205 7.74386,-1.61854 18.98272,-3.02078 25.25994,-4.55043 6.27678,-1.53679 33.01966,-8.1104 34.74615,-5.84271 1.7278,2.26763 -13.40528,11.31208 -26.16417,15.12034 0,0 -26.30379,9.60432 -33.15321,11.19842 -6.86213,1.59381 -19.68598,4.01415 -22.62857,5.37796 -2.94551,1.36555 -8.23628,9.89929 -9.6159,11.17177 2.51474,0.16502 17.26969,0.50732 16.68185,4.1827 -0.58573,3.67932 -10.73622,7.72687 -10.54979,10.65092 0.19648,2.92553 -1.26616,9.9115 -5.52268,14.38602 0.96185,1.56637 0.92698,3.4956 -0.79561,5.83606 -1.72512,2.34057 -9.38564,9.38868 -9.97644,9.46934 1.29645,2.18562 3.89281,8.34794 -0.86823,10.23905 0,0 -1.15619,4.38955 -7.04205,6.55675 0.26669,3.09857 -1.97278,13.32705 -11.51713,16.95398 0,0 0.15097,9.03106 -11.48912,11.77138 1.05175,3.80183 -6.75203,17.21146 -24.71792,10.16521 0,0 0.098,4.53112 2.18403,7.65742 0.98493,1.47069 3.14312,2.48705 5.73172,2.38011 4.20733,-0.17036 -2.80821,1.05675 -6.97559,1.32145 0.6727,0.65533 4.59215,2.66112 7.0794,4.76815 z"
       style="fill:#000000;display:inline" />
  </g>
  <g
     inkscape:groupmode="layer"
     id="layer1"
     inkscape:label="Cover"
     style="display:inline"
     sodipodi:insensitive="true">
    <path
       d="m 2,2 v 257 c 0,286 298,398 298,398 0,0 298,-112 298,-398 V 2 z"
       id="shine"
       inkscape:connector-curvature="0"
       style="fill:url(#radialGradient3074);stroke:#000000;stroke-width:3" />
  </g>
</svg>
