<svg xmlns="http://www.w3.org/2000/svg" width="600" height="660" xmlns:xlink="http://www.w3.org/1999/xlink">
<defs>
  <radialGradient id="rg" gradientUnits="userSpaceOnUse" cx="220" cy="220" r="405">
    <stop style="stop-color:#ffffff;stop-opacity:.3" offset="0" />
    <stop style="stop-color:#ffffff;stop-opacity:.2" offset="0.2" />
    <stop style="stop-color:#666666;stop-opacity:.1" offset="0.6" />
    <stop style="stop-color:#000000;stop-opacity:.13" offset="1" />
  </radialGradient>
  <path id="shield" d="m 2 2 v 257 c 0 286 298 398 298 398 c 0 0 298 -112 298 -398 V 2 Z" />
</defs>
<use id="bg" style="fill:#ffffff;" xlink:href="#shield" />
<path id="tressure" style="fill:#ffcc00;" d="M 50 50 L 50 259 C 50 473.573 241.969 578.03 300 604.738 C 358.031 578.03 550 473.573 550 259 L 550 50 L 50 50 Z M 75 75 L 525 75 L 525 259 C 525 447.837 363.758 545.745 300 577.109 C 236.242 545.745 75 447.837 75 259 L 75 75 Z" />
<g transform="translate(300,280)scale(0.8)translate(-300,-300)" style="fill:#cc0000;stroke:#660000;stroke-width:1.5;">
<path d="m 423.488 202.462 c 25.9474 2.56303 41.3424 -2.43786 62.0277 3.32898 c 2.32331 2.60958 1.55243 4.9315 3.57269 7.54908 c 2.02026 2.61759 6.83164 5.53084 8.54463 8.14613 c 1.71299 2.61528 0.9164 6.10958 2.3179 8.71228 c 1.4015 2.6027 5.00109 4.31381 6.08688 6.89364 c 1.08579 2.57982 -0.48925 5.43988 0.27628 7.98654 c 0.76586 2.54666 3.8727 4.77992 4.31435 7.28313 c 0.44178 2.5032 -1.63472 5.42347 -1.52144 7.87293 c 0.11341 2.44945 2.41423 4.42811 2.19664 6.81353 c -0.21957 2.38542 -2.66651 4.00065 -3.22296 6.31175 c -0.55651 2.31109 0.77853 5.31806 -0.11868 7.54454 c -0.89735 2.22648 -4.02687 2.20126 -5.26959 4.33284 c -1.24272 2.13158 -0.59871 6.41994 -2.19084 8.44632 c -1.59225 2.02638 -4.83215 2.37925 -6.77823 4.29014 c -1.94608 1.9109 -2.59827 5.3798 -4.90238 7.16492 c -2.30412 1.78512 -5.96569 1.5922 -8.632 3.24125 c -2.66638 1.64908 -4.33743 5.14007 -7.37029 6.64276 Z" />
<path style="fill:none;" d="m 466.575 283.813 c 10.5998 1.4628 19.0144 2.88398 30.8057 6.44988 m -32.0546 -16.4368 c 20.1975 2.53133 22.0539 0.37859 36.8419 5.40958 M 463.036 262.591 c 22.5247 2.99354 23.6229 -0.79586 41.213 3.32897 M 459.081 251.98 c 19.4366 1.51627 27.4113 -3.21126 43.2944 -0.20808 M 452.004 240.329 c 17.1803 0.66645 27.5441 -5.79687 47.0411 -1.87255 m -53.91 -10.6111 c 16.8582 -1.4973 30.2292 -6.51048 47.6656 -2.91285 m -56.824 -9.98691 c 19.3952 2.60167 27.8861 -5.20383 47.2492 -1.87254 m 1.66512 87.1774 c -4.13685 -3.01346 -8.7284 -5.48151 -15.611 -5.20152" />

<path style="fill:#aa0000;" d="m 279.591 264.703 c -12.5663 -7.80842 -23.2157 -5.03838 -38.2891 80.948 c 0.34438 1.55106 1.27462 2.33678 2.64915 2.47216 c 1.37447 0.13537 2.46577 -1.65867 4.58686 -2.70893 c 2.12111 -1.05032 4.08258 -0.17346 6.66684 -2.17935 c 1.29214 -1.00298 2.24325 -3.07901 3.59796 -4.27772 c 1.35476 -1.19869 4.30237 -2.7035 5.68426 -4.06926 c 1.38188 -1.36575 2.04122 -4.0869 3.41486 -5.59089 c 1.37364 -1.50399 3.46167 -1.79094 4.79165 -3.40442 c 1.32999 -1.61348 1.79138 -4.15241 3.04226 -5.84671 c 1.25081 -1.69425 3.29103 -2.5439 4.4273 -4.29016 c 1.13653 -1.74619 1.16868 -4.4442 2.15437 -6.21383 c 0.98634 -1.76953 4.40735 -3.28235 5.20815 -5.04638 c 1.60172 -3.52801 1.60135 -6.30168 1.96383 -9.67794 c 3.70973 -16.9895 1.85662 -22.8102 -9.89838 -30.1146 Z" />
<path style="fill:none;" d="m 285.598 276.364 c -2.01037 7.58878 -3.75466 17.0026 -6.14581 29.3839 m -9.44105 15.2536 c 3.08075 -21.4594 7.34274 -38.2003 10.2971 -48.4415 m -21.1124 59.8128 c 4.32579 -28.3817 11.7034 -51.3409 15.6996 -64.0112 m -25.6803 71.836 c 4.7965 -25.5972 11.2437 -51.5971 19.5521 -72.1375" />

<path style="fill:#aa0000;" d="m 348.162 332.452 c -12.231 -8.32333 -22.9863 -5.99775 -41.6192 79.2887 c 0.27964 1.56401 1.17643 2.38767 2.54416 2.58 c 1.36766 0.19231 2.53255 -1.55488 4.69545 -2.51618 c 2.16291 -0.96137 4.08626 -0.004 6.75163 -1.90072 c 1.33269 -0.94847 2.36923 -2.98323 3.77257 -4.12467 c 1.4034 -1.14142 4.41099 -2.52257 5.84842 -3.82979 c 1.43743 -1.30721 2.20926 -3.99863 3.64419 -5.44431 c 1.43494 -1.44567 3.53309 -1.6457 4.92896 -3.20258 c 1.39588 -1.55687 1.96236 -4.07445 3.28255 -5.71536 c 1.32011 -1.64087 3.39388 -2.4051 4.60172 -4.10268 c 1.2081 -1.69751 1.35231 -4.39185 2.41067 -6.11904 c 1.05901 -1.72705 4.53992 -3.09656 5.41331 -4.82582 c 1.74692 -3.45848 1.86178 -6.22977 2.36421 -9.58808 c 4.41239 -16.8208 2.8027 -22.7135 -8.63868 -30.4995 Z" />
<path style="fill:none;" d="m 353.679 344.352 c -2.32393 7.49877 -4.45782 16.8321 -7.3613 29.1034 m -10.0666 14.8485 c 3.96964 -21.313 8.92347 -37.8625 12.3008 -47.9722 m -23.5792 58.8848 c 5.5012 -28.1776 13.8264 -50.8108 18.3455 -63.3042 m -28.6427 70.708 c 5.85584 -25.376 13.3776 -51.0858 22.5323 -71.2636" />

<path d="m 170.697 112.698 c -2.9469 0.12727 -6.02899 0.34821 -9.25956 0.50204 c -24.5476 1.16919 -34.124 8.25683 -17.4889 19.5671 c 34.3389 23.3471 22.7931 44.7467 49.9553 60.3362 c -32.1146 -12.9831 -60.3381 -8.86158 -79.0992 -29.9686 c -6.55168 -7.37092 -15.3792 14.8449 18.7381 34.9504 c 51.8456 30.553 33.9321 24.8923 57.9657 43.4853 c 17.9768 13.9073 30.6046 25.5036 49.775 36.2377 c 31.8421 17.8295 82.7333 54.5784 113.484 86.5844 c 22.794 23.7241 14.5653 85.346 -13.4322 89.5324 c -59.0874 8.83507 -96.9454 -45.3876 -103.542 -52.5866 c -2.74179 -2.99199 -2.08105 3.36116 -2.76885 7.06736 c -0.42965 2.3149 -1.91077 3.34791 -2.03479 6.11469 c -0.12403 2.76678 1.65831 4.18016 2.13781 7.44067 c 0.47957 3.26045 -0.43677 6.3407 0.48939 9.28148 c 0.9261 2.94078 3.27976 5.32238 4.4688 8.04566 c 1.18905 2.72328 1.21713 5.78527 2.48554 8.39327 c 1.26842 2.608 3.35611 4.56257 4.52032 7.15746 c 1.16421 2.59482 1.40306 5.82514 2.27947 8.50907 c 0.87642 2.684 2.59561 6.27756 3.00067 9.15276 c 0.40505 2.8752 -0.50996 5.03152 -0.75982 8.20022 c -0.29811 3.77969 0.34993 7.96295 -0.46361 11.0065 c -0.81356 3.04347 -3.0913 4.95414 -4.24987 7.505 c -1.15857 2.55086 -1.61604 6.37477 -2.94916 8.67649 c -1.33313 2.30165 -3.53082 3.07208 -4.86803 5.36806 c -1.33721 2.29598 -0.97983 5.4861 -2.1507 8.01997 c -1.17085 2.5338 -3.87945 4.4125 -4.71349 7.4277 c -0.83402 3.0152 0.41692 5.0909 0.0901 8.8309 c -0.16346 1.8701 -2.12025 5.0864 -2.12494 7.1833 c -0.005 2.0969 1.9498 5.3568 2.12494 7.711 c 0.30377 4.0832 -0.90846 5.3975 0.12877 6.3978 c 6.14706 5.9282 25.2624 -35.758 58.3907 -47.7462 c 21.5257 -7.7896 37.7552 -3.75022 55.4029 -7.85261 c 85.0447 -15.4567 133.954 -108.096 126.376 -196.791 c -5.8888 -68.9224 -49.365 -116.203 -104.753 -145.17 c -28.5368 -14.9241 -59.5504 -24.9525 -97.5281 -32.865 c -37.9777 -7.91251 -38.3907 -10.9531 -91.1791 -15.6279 c -2.6896 -0.2382 -5.50133 -0.20452 -8.44824 -0.0773 Z" />
<path style="fill:none;" d="m 171.527 222.956 c 8.81608 6.31765 36.1629 14.0255 62.4439 7.49017 c 34.0974 -8.47906 41.5252 -51.495 10.3033 -71.4688" />
<path style="fill:none;" d="m 355.074 364.783 c 32.0769 31.9324 33.9774 77.1482 2.90382 126.642" />
<path style="fill:none;" d="m 296.79 481.991 c -21.4263 7.7867 -22.2878 0.60572 -43.3694 13.0494 M 301.015 484.758 c -28.503 13.2933 -30.5565 11.5747 -54.8799 27.9048 m 57.7939 -21.2053 c -38.919 19.0164 -48.0176 21.5193 -66.2447 40.4302 m 68.2845 -33.4393 c -32.6583 16.6549 -49.623 20.9382 -69.5958 50.625 m 59.9795 -71.0149 c -22.2515 -5.18404 -21.9757 0.41787 -39.4044 -7.96901 m 44.0668 1.26943 c -18.5961 -7.78921 -31.1686 -3.80816 -52.1555 -22.7288 m 55.0695 16.0293 c -24.4094 -13.6447 -45.9467 -13.6425 -61.139 -32.2559 m 63.1788 25.2651 c -23.5352 -11.8969 -46.9416 -12.492 -66.9171 -42.1803" />

<path d="m 283.853 265.511 c -6.54076 -13.2667 -17.0463 -16.54 -75.2989 48.4993 c -0.52757 1.49872 -0.15317 2.65714 0.94221 3.49811 c 1.09535 0.84092 2.97024 -0.10577 5.32622 0.12294 c 2.35602 0.22866 3.55774 2.00915 6.81212 1.67118 c 1.62722 -0.169 3.53216 -1.42915 5.31596 -1.73128 c 1.78385 -0.30208 5.08182 -0.0227 6.97701 -0.45232 c 1.89518 -0.42959 3.89345 -2.39153 5.85471 -2.94285 c 1.96126 -0.55131 3.88566 0.30797 5.86774 -0.35935 c 1.98208 -0.66732 3.71596 -2.57912 5.67361 -3.35684 c 1.95755 -0.77772 4.13882 -0.42142 6.02664 -1.30379 c 1.888 -0.88217 3.34155 -3.15576 5.11388 -4.13751 c 1.77282 -0.98131 5.47694 -0.4587 7.08933 -1.53335 c 3.22487 -2.1492 4.69081 -4.5042 6.78336 -7.17914 c 12.1307 -12.4643 13.6346 -18.3849 7.51607 -30.7951 Z" />
<path style="fill:none;" d="m 282.788 278.584 c -5.71847 5.38088 -12.1758 12.4517 -20.7511 21.7003 m -16.0789 7.96329 c 13.9597 -16.5915 26.4279 -28.553 34.35 -35.6871 m -49.5433 39.6286 c 18.6761 -21.8107 37.0767 -37.4059 47.1673 -46.052 m -59.7773 47.4233 c 17.6038 -19.1981 36.8217 -37.8662 54.7339 -50.9162" />

<path d="m 349.036 341.367 c -14.1884 -4.19611 -23.721 1.29882 -15.4324 88.2013 c 0.74371 1.40415 1.84915 1.91502 3.21036 1.68104 c 1.36115 -0.23398 1.93718 -2.25314 3.70351 -3.82826 c 1.76633 -1.57519 3.89024 -1.24993 5.8495 -3.86926 c 0.97964 -1.30971 1.34565 -3.56357 2.33366 -5.07859 c 0.98807 -1.51501 3.43066 -3.74758 4.40053 -5.43087 c 0.96988 -1.68328 0.88337 -4.48176 1.8086 -6.29614 c 0.92523 -1.81437 2.86228 -2.64478 3.71636 -4.55314 c 0.85409 -1.90837 0.62509 -4.47867 1.38146 -6.44398 c 0.7563 -1.96524 2.49791 -3.3255 3.12998 -5.31052 c 0.63234 -1.98501 -0.0528 -4.59486 0.42794 -6.56248 c 0.48134 -1.96768 3.37824 -4.33353 3.68214 -6.24671 c 0.60794 -3.82635 -0.12858 -6.50053 -0.6752 -9.85193 c -0.93242 -17.3644 -4.26404 -22.4852 -17.5364 -26.4104 Z" />
<path style="fill:none;" d="m 357.922 351.017 c 0.0758 7.84998 0.8926 17.389 1.87328 29.9608 m -5.05423 17.2107 c -2.72526 -21.5074 -3.05923 -38.7786 -2.92888 -49.4363 m -4.48077 63.2683 c -3.36209 -28.5118 -2.3425 -52.6048 -1.85238 -65.8808 m -5.6939 76.0721 c -2.16921 -25.952 -2.85377 -52.7298 -0.29474 -74.7375" />

<path style="fill:#eeeeee;" d="m 188.283 136.715 c 3.47527 -5.04143 12.0266 -4.23897 17.1394 -0.86793 c 5.25649 3.46573 7.41858 10.5152 3.82852 15.6864 c -3.68067 5.3017 -11.4801 3.67432 -16.7083 -0.11146 c -4.80077 -3.4762 -7.62316 -9.82765 -4.25961 -14.707 Z" />
<path style="fill:#000000;stroke:none;" d="m 198.794 143.113 c 0.8134 0.51726 2.36095 0.31024 3.01655 -0.46764 c 0.64836 -0.76932 -1.85536 -1.96155 -0.0508 -3.0174 c 1.5668 -0.91659 3.86839 2.08781 3.79866 3.90114 c -0.0968 2.5165 -3.15589 4.86442 -5.67199 4.99345 c -2.89373 0.14837 -6.27126 -2.26336 -7.07698 -5.04547 c -0.62515 -2.15875 0.49559 -5.32834 2.5498 -6.24182 c 1.44878 -0.64427 4.38183 0.0303 4.47515 1.61247 c 0.13253 2.24691 -1.2502 0.94863 -1.87333 1.50844 c -0.71421 0.64164 0.0224 2.24159 0.8326 2.75681 Z" />

<path style="fill:#aa0000;stroke:none;" d="m 444.04 268.285 c 2.84458 0.32208 5.07602 4.29497 5.36646 7.36658 c 0.29861 3.1579 -1.60883 5.81106 -4.5341 5.46949 c -2.99909 -0.3502 -4.71106 -4.18938 -4.88578 -7.41189 c -0.16047 -2.95901 1.30036 -5.73591 4.05346 -5.42421 Z m -2.89234 -24.1389 c 2.84115 -0.35107 5.93862 2.99091 6.93829 5.90978 c 1.02776 3.00087 -0.2074 6.02609 -3.13156 6.37705 c -2.99795 0.35981 -5.55909 -2.97346 -6.48147 -6.06609 c -0.847 -2.83973 -0.075 -5.88098 2.67477 -6.22078 Z m -24.2009 -10.7036 c 2.80549 -0.56977 6.15217 2.52262 7.3746 5.35544 c 1.25679 2.91238 0.25931 6.02407 -2.62894 6.60015 c -2.96114 0.59061 -5.77242 -2.53458 -6.93124 -5.54661 c -1.06409 -2.76571 -0.52968 -5.85756 2.18562 -6.40902 Z m 0.98285 -21.7334 c 2.66556 -1.0441 6.49452 1.42617 8.18625 4.00633 c 1.73927 2.65264 1.29221 5.88956 -1.4538 6.95413 c -2.81531 1.09142 -6.1225 -1.50331 -7.78241 -4.27095 c -1.52421 -2.54131 -1.52989 -5.67901 1.04998 -6.68955 Z m -28.6542 -4.69264 c 2.33622 -1.65453 6.64689 -0.17762 8.90951 1.91994 c 2.32617 2.15649 2.67072 5.40592 0.26134 7.09966 c -2.4702 1.73647 -6.30435 0.0133 -8.58116 -2.27393 c -2.09066 -2.10014 -2.85078 -5.14438 -0.58967 -6.74572 Z m -7.30047 -21.858 c 2.28572 -1.72362 6.63861 -0.37624 8.96291 1.65275 c 2.3896 2.08598 2.83113 5.32367 0.47346 7.08867 c -2.41719 1.80954 -6.30114 0.20173 -8.6453 -2.01639 c -2.1525 -2.03671 -3.00329 -5.05686 -0.79106 -6.72508 Z m -29.2707 5.37679 c 1.84643 -2.18771 6.38976 -1.83948 9.10624 -0.37663 c 2.79279 1.50394 3.94152 4.56302 2.03411 6.80704 c -1.95556 2.30065 -6.0994 1.59446 -8.8772 -0.0484 c -2.55067 -1.50849 -4.05021 -4.26467 -2.26315 -6.38206 Z m -6.17969 -20.5166 c 1.84643 -2.18771 6.38976 -1.83948 9.10624 -0.37663 c 2.79279 1.50394 3.94152 4.56302 2.03411 6.80704 c -1.95556 2.30065 -6.0994 1.59446 -8.8772 -0.0484 c -2.55067 -1.50849 -4.05021 -4.26467 -2.26315 -6.38206 Z" />
</g>
<use id="shine" style="fill:url(#rg);stroke:#000000;stroke-width:3;" xlink:href="#shield" />
</svg>
