<?xml version="1.0" encoding="UTF-8" standalone="no"?>
<svg
   xmlns:dc="http://purl.org/dc/elements/1.1/"
   xmlns:cc="http://creativecommons.org/ns#"
   xmlns:rdf="http://www.w3.org/1999/02/22-rdf-syntax-ns#"
   xmlns:svg="http://www.w3.org/2000/svg"
   xmlns="http://www.w3.org/2000/svg"
   xmlns:xlink="http://www.w3.org/1999/xlink"
   xmlns:sodipodi="http://sodipodi.sourceforge.net/DTD/sodipodi-0.dtd"
   xmlns:inkscape="http://www.inkscape.org/namespaces/inkscape"
   width="600"
   height="660"
   id="svg2"
   version="1.1"
   inkscape:version="0.48.2 r9819"
   sodipodi:docname="House_Condon.svg">
  <metadata
     id="metadata24">
    <rdf:RDF>
      <cc:Work
         rdf:about="">
        <dc:format>image/svg+xml</dc:format>
        <dc:type
           rdf:resource="http://purl.org/dc/dcmitype/StillImage" />
        <dc:title></dc:title>
      </cc:Work>
    </rdf:RDF>
  </metadata>
  <sodipodi:namedview
     pagecolor="#ffffff"
     bordercolor="#666666"
     borderopacity="1"
     objecttolerance="10"
     gridtolerance="10"
     guidetolerance="10"
     inkscape:pageopacity="0"
     inkscape:pageshadow="2"
     inkscape:window-width="1366"
     inkscape:window-height="715"
     id="namedview22"
     showgrid="false"
     inkscape:zoom="0.5056885"
     inkscape:cx="377.01415"
     inkscape:cy="306.79769"
     inkscape:window-x="-8"
     inkscape:window-y="-8"
     inkscape:window-maximized="1"
     inkscape:current-layer="layer2" />
  <defs
     id="defs4">
    <radialGradient
       id="rg"
       gradientUnits="userSpaceOnUse"
       cx="220"
       cy="220"
       r="405">
      <stop
         style="stop-color:#fff;stop-opacity:.3"
         offset="0"
         id="stop7" />
      <stop
         style="stop-color:#fff;stop-opacity:.2"
         offset=".2"
         id="stop9" />
      <stop
         style="stop-color:#666;stop-opacity:.1"
         offset=".6"
         id="stop11" />
      <stop
         style="stop-color:#000;stop-opacity:.13"
         offset="1"
         id="stop13" />
    </radialGradient>
    <path
       id="shield"
       d="m2,2v257c0,286 298,398 298,398c0,0 298-112 298-398V2z" />
    <radialGradient
       inkscape:collect="always"
       xlink:href="#rg-7"
       id="radialGradient3055-1"
       gradientUnits="userSpaceOnUse"
       cx="220"
       cy="220"
       r="405" />
    <radialGradient
       id="rg-7"
       gradientUnits="userSpaceOnUse"
       cx="220"
       cy="220"
       r="405">
      <stop
         style="stop-color:#fff;stop-opacity:.3"
         offset="0"
         id="stop7-4" />
      <stop
         style="stop-color:#fff;stop-opacity:.2"
         offset=".2"
         id="stop9-0" />
      <stop
         style="stop-color:#666;stop-opacity:.1"
         offset=".6"
         id="stop11-9" />
      <stop
         style="stop-color:#000;stop-opacity:.13"
         offset="1"
         id="stop13-4" />
    </radialGradient>
    <radialGradient
       r="405"
       cy="220"
       cx="220"
       gradientUnits="userSpaceOnUse"
       id="radialGradient3074"
       xlink:href="#rg-7"
       inkscape:collect="always" />
  </defs>
  <g
     inkscape:groupmode="layer"
     id="layer2"
     inkscape:label="Elements"
     style="display:inline">
    <path
       inkscape:connector-curvature="0"
       d="M 300.00001,658.5 C 300.00001,658.5 1.5,546.17969 1.5,260.72817 1.5,-24.72335 1.5,2.17648 1.5,2.17648 l 597.00001,0 0,258.55169 c 0,285.45152 -298.5,397.77183 -298.5,397.77183 z"
       style="fill:#cc0000;fill-opacity:1;fill-rule:evenodd;stroke:none"
       id="path2855" />
    <path
       style="fill:#e6e6e6;fill-opacity:1;stroke:none"
       d="M 268.47512,71.829265 259.76268,338.33646 355.4439,336.31393 350.9321,119.43651 268.47512,71.829265 z"
       id="rect13090-6"
       inkscape:connector-curvature="0" />
    <path
       d="M 303.32178,92.600559 301.85501,326.95717"
       id="rect13090-2-5-1"
       style="fill:none;stroke:#000000;stroke-width:4;stroke-miterlimit:4;stroke-opacity:1;stroke-dasharray:none;display:inline"
       inkscape:connector-curvature="0" />
    <path
       style="fill:#f9f9f9;fill-opacity:1;stroke:none;display:inline"
       d="M 252.36044,60.160824 244.89264,345.33753 300.90115,343.315 302.61253,89.254137 252.36044,60.160824 z"
       id="rect13090-2-4-8"
       inkscape:connector-curvature="0" />
    <path
       style="fill:none;stroke:#000000;stroke-width:4;stroke-miterlimit:4;stroke-opacity:1;stroke-dasharray:none;display:inline"
       d="m 251.49962,60.627562 -4.35622,260.128448 -0.62232,8.71244 6.06759,2.02253 100.81533,7.15664 -2.17811,-220.45575 -99.72627,-57.564308 z"
       id="rect13090-2-5"
       inkscape:connector-curvature="0" />
    <path
       inkscape:connector-curvature="0"
       style="fill:#888888;fill-opacity:1;fill-rule:evenodd;stroke:#333333;stroke-width:4;stroke-linecap:round;stroke-linejoin:miter;stroke-miterlimit:4;stroke-opacity:1;stroke-dasharray:none;stroke-dashoffset:0;marker:none;visibility:visible;display:inline;overflow:visible;enable-background:accumulate"
       id="path3278"
       d="m 300.42552,290.86693 c 17.10968,1.28137 46.43898,45.67611 33.95709,57.70809 -12.48183,12.03202 -4.9038,52.00906 -3.60008,69.33053 0.6618,8.79159 1.01856,21.37344 0.89191,34.94498 -0.12297,13.16768 -0.70058,27.26694 -1.89593,39.74021 -2.42763,25.32909 -2.29704,53.23921 -2.29714,53.23911 l -52.5793,0.15832 c 0,0 -0.0349,-27.91037 -2.61687,-53.22448 -2.57968,-25.31405 -2.65257,-57.34883 -1.45284,-74.67782 1.19973,-17.32894 8.53739,-57.35083 -4.01653,-69.30768 -12.55397,-11.9568 16.50807,-56.52678 33.60969,-57.91101 z" />
    <path
       inkscape:connector-curvature="0"
       style="fill:#aeaeae;fill-opacity:1;fill-rule:evenodd;stroke:none;stroke-width:0.80344921;marker:none;visibility:visible;display:inline;overflow:visible;enable-background:accumulate"
       id="path3280"
       d="m 300.7907,299.49811 c 14.72013,8.32715 28.81536,26.68167 27.46822,43.60092 -20.68811,30.66185 -1.00089,70.01851 -4.91895,104.12511 0.44857,30.1749 -4.26252,60.09201 -4.17569,90.25895 -22.88374,2.4112 -45.0301,4.41546 -36.93122,-25.51629 -6.73412,-47.90336 -1.82717,-95.95872 -0.0687,-143.87881 2.24413,-15.30362 -17.22722,-24.82641 -6.91991,-39.47839 5.50546,-11.25114 13.53006,-24.60945 25.54785,-29.11258 z" />
    <path
       inkscape:connector-curvature="0"
       style="fill:#dddddd;fill-opacity:1;fill-rule:evenodd;stroke:#333333;stroke-width:4;stroke-linecap:round;stroke-linejoin:miter;stroke-miterlimit:4;stroke-opacity:1;stroke-dasharray:none;stroke-dashoffset:0;marker:none;visibility:visible;display:inline;overflow:visible;enable-background:accumulate"
       id="path3282"
       d="m 326.10152,346.56603 135.66368,-0.40774 c 11.92663,-0.0349 21.72822,-9.44314 21.68037,-25.38147 -0.0498,-15.93828 -10.47364,-29.52645 -29.64637,-29.46884 -19.17299,0.0577 -30.63328,16.91357 -30.19089,29.69845 l -93.75482,0.28179 c 0.0398,12.52345 -6.70629,17.59513 -3.75197,25.27776 z" />
    <path
       inkscape:connector-curvature="0"
       style="fill:#dddddd;fill-opacity:1;fill-rule:evenodd;stroke:none;stroke-width:0.80344921;marker:none;visibility:visible;display:inline;overflow:visible;enable-background:accumulate"
       id="path3284"
       d="m 300.95135,309.43791 c 12.66569,9.53803 26.05422,27.91893 13.46953,42.85916 -11.3655,38.37674 6.48912,77.91049 0.0906,117.18933 -2.0643,19.65611 -1.73059,42.32213 -4.65772,60.43987 -9.59229,2.45372 -26.8361,0.65358 -20.05185,-13.54212 -5.18295,-51.84223 -0.45006,-104.74852 0.31365,-156.82041 -4.06293,-11.97607 -16.13867,-23.9816 -2.98393,-35.43567 3.45396,-5.20834 7.9327,-13.19546 13.81991,-14.69016 z" />
    <path
       inkscape:connector-curvature="0"
       style="fill:#333333;fill-opacity:1;fill-rule:evenodd;stroke:none;stroke-width:0.80344921000000002;marker:none;visibility:visible;display:inline;overflow:visible;enable-background:accumulate"
       id="path3288"
       d="m 325.95868,362.98066 c -0.31813,2.16003 -0.44657,4.43074 -0.57681,6.80307 l -48.94607,0.1618 c -0.14437,-2.37217 -0.40326,-4.64025 -0.73319,-6.79874 l 50.25607,-0.16578 z m -0.66846,16.87444 c 0.0523,2.13769 0.13143,4.25167 0.25589,6.40783 l -49.18414,0.1623 c 0.11252,-2.15601 0.17923,-4.27338 0.22055,-6.40937 l 48.70784,-0.16081 z m 0.99864,16.73799 c 0.20063,2.1919 0.40227,4.20711 0.61256,6.27604 l -51.8042,0.17076 c 0.19915,-2.06848 0.27133,-4.08832 0.45902,-6.27957 l 50.73242,-0.16728 z m 1.59428,16.86702 c 0.12595,1.36143 0.40824,3.27508 0.48839,4.44514 0.0299,0.40226 -0.0199,1.02035 0.004,1.43845 l -54.66227,0.18022 c 0.0249,-0.4187 -0.0299,-1.03444 -0.004,-1.43845 0.0737,-1.17035 0.3465,-3.08609 0.464,-4.44837 l 53.70968,-0.17724 z m 0.99889,16.86872 c 0.0577,1.83912 0.0951,3.52496 0.13392,5.49292 l -55.85314,0.18421 c 0.0299,-1.95005 0.0568,-3.66983 0.10406,-5.49357 l 55.61521,-0.18371 z m 0.28477,17.00215 c 0.001,1.70988 0.0249,3.21942 0.0149,4.97007 l -56.09131,0.1847 c -0.0199,-1.74811 -0.005,-3.26243 -0.0149,-4.97017 l 56.09151,-0.1847 z m -0.31265,16.34996 c -0.0448,1.83802 -0.0398,3.65285 -0.10405,5.49351 l -55.13872,0.18172 c -0.0742,-1.84455 -0.0772,-3.65071 -0.13392,-5.49272 l 55.37689,-0.18271 z m -0.66936,16.48208 c -0.11451,2.03334 -0.20164,4.03162 -0.34103,6.01761 l -53.35232,0.17574 c -0.14986,-1.98977 -0.24794,-3.97815 -0.37389,-6.01527 l 54.06694,-0.17823 z m -1.14606,16.48348 c -0.16529,2.14217 -0.20363,4.27223 -0.33954,6.40982 l -50.85135,0.16777 c -0.14886,-2.13584 -0.19765,-4.26645 -0.37489,-6.40757 l 51.56588,-0.17027 z m -0.90749,16.48274 c -0.11102,2.42813 -0.1384,4.51677 -0.21955,6.80192 l -49.1842,0.1623 c -0.0936,-2.2848 -0.13242,-4.37299 -0.25689,-6.80033 l 49.66049,-0.16379 z" />
    <path
       inkscape:connector-curvature="0"
       style="fill:#dddddd;fill-opacity:1;fill-rule:evenodd;stroke:#333333;stroke-width:4;stroke-linecap:round;stroke-linejoin:miter;stroke-miterlimit:4;stroke-opacity:1;stroke-dasharray:none;stroke-dashoffset:0;marker:none;visibility:visible;display:inline;overflow:visible;enable-background:accumulate"
       id="path3286"
       d="m 420.53835,334.93533 c 3.58664,-0.0199 7.01072,-2.38422 9.50104,-5.08324 2.49061,-2.69826 3.73674,-6.33304 3.72543,-10.08382 -0.0199,-7.09601 2.85265,-15.27659 21.76944,-15.33339 6.5764,-0.0199 9.96554,1.9833 12.49055,4.82042 2.52472,2.83736 4.26845,7.18447 4.28508,12.61794 0.0349,11.21749 -3.54024,12.91696 -8.72095,12.93239 l -136.56883,0.41024" />
    <path
       inkscape:connector-curvature="0"
       style="fill:#aeaeae;fill-opacity:1;fill-rule:nonzero;stroke:#333333;stroke-width:4;stroke-linecap:round;stroke-linejoin:miter;stroke-miterlimit:4;stroke-opacity:1;stroke-dasharray:none"
       id="path3290"
       d="m 266.28686,563.37475 a 35.983527,35.983527 0 1 0 71.96671,-0.21607 35.983527,35.983527 0 1 0 -71.96671,0.21607 z" />
    <path
       inkscape:connector-curvature="0"
       style="fill:#dddddd;fill-opacity:1;fill-rule:evenodd;stroke:#333333;stroke-width:4;stroke-linecap:round;stroke-linejoin:miter;stroke-miterlimit:4;stroke-opacity:1;stroke-dasharray:none;stroke-dashoffset:0;marker:none;visibility:visible;display:inline;overflow:visible;enable-background:accumulate"
       id="path3294"
       d="m 274.05044,346.72236 -135.66349,0.40774 c -11.92672,0.0348 -21.78467,-9.31255 -21.83251,-25.25088 -0.0498,-15.93823 10.29595,-29.58873 29.46884,-29.64643 19.17274,-0.0577 30.73419,16.72932 30.36866,29.51659 l 93.75483,-0.28179 c 0.0398,12.52351 6.81188,17.55457 3.90367,25.25477 z" />
    <path
       inkscape:connector-curvature="0"
       style="fill:#dddddd;fill-opacity:1;fill-rule:evenodd;stroke:#333333;stroke-width:4;stroke-linecap:round;stroke-linejoin:miter;stroke-miterlimit:4;stroke-opacity:1;stroke-dasharray:none;stroke-dashoffset:0;marker:none;visibility:visible;display:inline;overflow:visible;enable-background:accumulate"
       id="path3296"
       d="m 179.5456,335.65935 c -3.58669,10e-4 -7.02506,-2.34215 -9.53161,-5.02583 -2.50614,-2.68393 -3.77467,-6.31044 -3.78597,-10.06122 -0.0199,-7.09595 -2.94446,-15.25911 -21.86125,-15.2023 -6.57624,0.0199 -9.95348,2.04309 -12.46137,4.89544 -2.50749,2.8527 -4.22543,7.20967 -4.20915,12.64334 0.0348,11.21763 3.61775,12.89545 8.79856,12.87977 l 132.51481,-0.68062" />
    <path
       inkscape:connector-curvature="0"
       style="fill:#dddddd;fill-opacity:1;fill-rule:nonzero;stroke:none"
       id="path3298"
       d="m 307.74815,533.14748 c 28.22142,1.37751 33.3292,45.65356 6.17741,53.60612 -26.55426,10.91479 -50.00101,-27.27983 -28.38895,-45.82248 5.72806,-5.93775 14.14098,-8.58095 22.21124,-7.78344 z" />
  </g>
  <g
     inkscape:groupmode="layer"
     id="layer1"
     inkscape:label="Cover"
     style="display:inline"
     sodipodi:insensitive="true">
    <path
       d="m 2,2 v 257 c 0,286 298,398 298,398 0,0 298,-112 298,-398 V 2 z"
       id="shine"
       inkscape:connector-curvature="0"
       style="fill:url(#radialGradient3074);stroke:#000000;stroke-width:3" />
  </g>
</svg>
