<?xml version="1.0" encoding="UTF-8" standalone="no"?>
<svg
   xmlns:dc="http://purl.org/dc/elements/1.1/"
   xmlns:cc="http://creativecommons.org/ns#"
   xmlns:rdf="http://www.w3.org/1999/02/22-rdf-syntax-ns#"
   xmlns:svg="http://www.w3.org/2000/svg"
   xmlns="http://www.w3.org/2000/svg"
   xmlns:xlink="http://www.w3.org/1999/xlink"
   id="svg9045"
   version="1.1"
   height="660"
   width="600">
  <metadata
     id="metadata9049">
    <rdf:RDF>
      <cc:Work
         rdf:about="">
        <dc:format>image/svg+xml</dc:format>
        <dc:type
           rdf:resource="http://purl.org/dc/dcmitype/StillImage" />
        <dc:title></dc:title>
      </cc:Work>
    </rdf:RDF>
  </metadata>
  <style
     type="text/css"
     id="style_css_sheet">
.fawn {
  fill:#ffffff;stroke:#008000;stroke-width:1;
}
.detail {
  fill:#008000;stroke:none;
}
</style>
  <defs
     id="defs8981">
    <radialGradient
       r="405"
       cy="220"
       cx="220"
       gradientUnits="userSpaceOnUse"
       id="rg">
      <stop
         id="stop8971"
         offset="0"
         style="stop-color:#fff;stop-opacity:.3" />
      <stop
         id="stop8973"
         offset="0.2"
         style="stop-color:#fff;stop-opacity:.2" />
      <stop
         id="stop8975"
         offset="0.6"
         style="stop-color:#666;stop-opacity:.1" />
      <stop
         id="stop8977"
         offset="1"
         style="stop-color:#000;stop-opacity:.13" />
    </radialGradient>
    <path
       d="m 2 2 v 257 c 0 286 298 398 298 398 c 0 0 298 -112 298 -398 V 2 Z"
       id="shield" />
  </defs>
  <use
     xlink:href="#shield"
     fill="#008000"
     id="shine" />
  <g
     id="fawn"
     class="fawn">
    <path
       d="m 435.5 114.7 c -5.3 -15.54 -11.6 -20.17 -29 -25.61 c 4.8 16.21 9.2 23.41 22.8 29.71"
       id="back-ear" />
    <g
       id="hooves">
      <g
         id="g8989">
        <path
           id="path8985"
           d="m 578.3 248.2 c -0.5 5.9 -2.7 12 0.2 21.7 c -2.5 -1.5 -5.3 -3.3 -7.1 -6.6 c -0.8 2.3 -0.4 7.4 -0.4 10 c -5 -4.4 -7.2 -7.8 -8.1 -12.7 c -1.2 -5.2 -0.2 -11.7 3.1 -20 Z" />
        <path
           id="path8987"
           d="m 575 255 c -1.5 2.5 -2.6 5.2 -2.9 8.1 c 0.1 0.7 0.1 0.7 0.2 1.3 c 0.4 0.3 0.7 0.5 0.4 0.9 l -1.4 -1.7 l -0.6 1 c 0.5 -3.5 2 -7.3 4.3 -9.6 Z"
           class="detail" />
      </g>
      <g
         transform="translate(39.7733,10.05191)"
         id="g8995">
        <path
           id="path8991"
           d="m 507.4,308.4 c -5,3.3 -11,5.5 -16.8,13.9 -0.7,-3 -0.8,-6.3 0.9,-9.7 -2.5,0.9 -6.5,4.1 -8.4,5.9 -0.1,-6.8 1.2,-10.6 4.3,-14.3 3.5,-4.3 9.5,-7.5 18.1,-10.1 z" />
        <path
           style="fill:#008000;stroke:none"
           id="path8993"
           d="m 500.7,310.2 c -2.8,0.4 -5.9,1.1 -8.1,2.7 -0.6,0.5 -0.6,0.5 -1.2,0.9 0.2,-0.4 0,0 0.3,-1.2 h -1.3 c 3.1,-1.7 7.2,-2.8 10.3,-2.4 z"
           class="detail" />
      </g>
      <g
         transform="rotate(11.090428,217.99597,155.66419)"
         id="g9001">
        <path
           id="path8997"
           d="m 478.47576,408.45677 c 5.1,4.2 9,9.8 19.5,13.4 -3.1,1 -6.1,2.5 -10.2,1.8 1.4,2.4 6.2,5.1 8.8,6.8 -7,2.2 -11.5,2 -16.2,-0.3 -5.5,-2 -10.7,-6.8 -16.1,-14.8 z" />
        <path
           style="fill:#008000;stroke:none"
           id="path8999"
           d="m 482.67576,415.45677 c 1.7,3.1 3.2,5.9 5.9,7.8 0.5,0.1 0.5,0.1 1,0.3 0.4,0 1,0 0.8,0.4 l -2.2,0.3 0.5,1.2 c -2.8,-2.6 -5.3,-6.4 -6,-10 z"
           class="detail" />
      </g>
      <g
         id="g9007">
        <path
           id="path9003"
           d="m 347 473.4 c 2.2 5.7 2.9 12.8 10.4 21.2 c -3.6 0.1 -7 -0.9 -9.7 -3.5 c -0.3 2.9 2.3 7.8 4 10.5 c -7.4 -1.8 -11.2 -4.2 -14.2 -8.7 c -3.5 -4.5 -5.9 -11.6 -6.7 -21.6 Z" />
        <path
           id="path9005"
           d="m 347.3 481.3 c -0.2 3.2 0.3 6.7 1.3 10.1 c 0 0 0.3 0.6 0.3 0.6 c 0.5 0.1 0.9 0.6 0.9 0.6 l -2.4 -0.5 l -0.1 1 c -1 -3.6 -1.3 -7.8 0 -11.8 Z"
           class="detail" />
      </g>
    </g>
    <path
       d="m 548.4 228.9 c -5 -4.5 -9.7 -8.2 -15.3 -9.3 c -3.3 -1.1 -5.5 -0.8 -8 1 c -13.4 8.1 -34 32.5 -34 32.5 L 461.9 242.9 L 459 221.8 c 0 0 33.3 -7.9 48.7 -15.2 c 8.7 -3.6 17.7 -11.8 26.9 -6.4 c 13.7 8.3 36.5 31.4 36.5 31.4 c 0 0 5.4 5.3 6.9 8.4 c 2.9 5.3 0.1 13.5 -0.4 13.1 c -3 -4.6 -7.1 -7.2 -14.3 -5.7 l -2.6 -6.4 c -0.1 -0.9 -2.1 -1.8 -3.2 -1.5 c -0.6 0.1 -1.8 0.6 -2.5 1.5 c -1 1.8 -1 2.9 -2.2 0.6 c -0.3 -0.7 -0.7 -1.7 -1 -2.3 c -0.3 -1.4 -0.8 -3.5 -1.1 -5.4 c -0.5 -2.3 -0.8 -4 -2.3 -5 Z"
       id="upper-limb" />
    <path
       d="m 372.85185,393.1084 c 0.10997,-3.46524 1.58844,-7.31416 4.34255,-8.8024 1.81206,-1.53834 6.7056,-4.606 6.7056,-4.606 0,0 3.08673,-5.75962 4.816,-9.84737 1.93356,-4.68629 -5.08304,-28.53018 -5.08304,-28.53018 0,0 1.87252,-6.83674 -1.32207,-10.73688 -5.14476,-6.21882 1.53474,-20.95465 1.53474,-20.95465 -2.23506,-20.80085 5.89871,-12.43472 15.85592,-2.33477 8.49021,6.34877 31.50548,32.54144 31.50548,32.54144 0,0 0.81633,2.57001 1.72398,3.29687 1.68045,2.34981 1.66974,4.41372 2.30257,7.91983 0.5668,3.68494 1.14634,7.22496 -0.4822,11.21342 -0.81214,1.69425 -4.72563,3.5663 -4.72563,3.5663 0,0 -2.84138,5.77985 -4.05851,8.1712 -4.56209,8.66761 -12.83075,10.27951 -20.61166,16.66991 -3.21354,2.14317 -5.10989,6.06539 -5.30173,9.47321 -0.75757,3.86601 2.23675,4.66393 3.34769,8.13037 3.88068,10.6621 6.17534,27.71183 15.43411,35.61659 3.16083,2.3789 6.78962,4.58162 8.98661,7.40884 0.61242,1.11577 1.96114,3.27933 1.78959,4.58338 l 0.16582,5.15195 c -5.52937,-3.90207 -7.35355,-4.43343 -9.91324,-3.51253 -3.47969,0.86123 -4.54615,5.2376 -6.42914,8.12625 0,0 -2.86906,-3.02298 -4.4136,-4.51444 -1.5771,-3.16745 -0.57867,-7.6678 -2.98354,-10.13895 -2.25667,-1.9072 -4.39918,-2.96556 -6.80995,-0.74786 -1.68862,1.01415 -2.00144,2.50485 -3.03513,3.97844 -1.50414,4.93026 -2.74679,2.34843 -3.78416,-0.70015 -1.3074,-3.36016 -2.39365,-6.68733 -1.92322,-10.14403 0.009,-1.58111 -0.16006,-3.77682 0.12101,-6.267 -0.16987,-2.19571 0.36657,-6.09472 -0.25292,-9.21661 -1.64098,-5.67074 -3.11088,-9.31768 -6.15213,-15.60424 -1.68375,-3.86847 -6.72592,-5.93017 -8.54773,-10.99485 -1.16934,-2.16394 -2.64903,-5.27851 -2.80176,-8.19512 z"
       id="lower-limb" />
    <path
       d="m 395.2,116 c -8.4,-5.8 -12.9,-13.7 -17.9,-26.8 16.7,3.49 26.2,8.24 32.9,19 6.2,-4.5 21.1,-7.9 35.7,2.1 12.7,11.2 28,26.3 37.8,35.5 1.1,0.9 1.8,2.1 2.1,2.8 -1.1,8.1 -6.5,11.1 -11.3,12 -7.9,1.8 -20.5,-3.5 -30.4,-6.9 -5.3,-1.6 -14,-0.2 -18.4,0.5 5.5,8.2 9.1,12.4 16.1,20 1.5,1.5 4.3,2.9 4.3,2.9 -0.5,0.5 -1.5,1.1 -3.4,0.6 -0.1,0.5 5,2.4 7.4,4.1 2.6,2.4 5.6,5.8 8.2,8.1 1.6,1.3 6.5,3.4 6.5,3.4 -1.5,0.9 -3.4,1.3 -4,1.4 0,0 9.3,4.2 12.8,8.8 1.6,2.4 2.6,6.4 4.2,8.7 1.4,2 5.9,4.6 5.9,4.6 -2,0.6 -3.6,-0.1 -4.5,-0.3 2.6,2.3 5.2,5.9 5.3,8.2 1.5,5.5 -1.1,10.6 5,16.2 -1.8,-0.4 -3.4,-0.2 -5.3,-1.8 0.1,1.8 -0.4,3.5 -0.4,5.2 0,0 18.6,-3.1 27.2,-2.6 4.3,0.2 8.1,1.4 12.6,2 3.7,0.4 9.3,0.1 9.3,0.1 0,0 4.01387,0.67392 5.92608,0.4655 5.54436,-0.37419 11.30003,5.2687 11.30003,5.2687 1.8375,0.92931 2.80177,3.7789 2.47082,7.74759 -0.57106,8.96291 -1.39546,24.86167 -0.74331,34.20376 0.3982,5.04494 3.10662,11.18208 2.50598,16.179 -0.19746,3.2743 -1.04398,5.0557 -3.29791,7.79062 -1.07088,1.45025 -3.88839,2.99674 -3.88839,2.99674 -1.13543,-7.20283 -3.29621,-10.57048 -9.87688,-11.5476 0,0 0.11467,-3.21821 -0.11507,-4.27046 -0.72647,-0.71571 -1.83749,-0.9293 -2.86573,-1.19899 -1.16711,-0.29639 -3.65616,0.6652 -3.60814,-0.33365 l 0.62754,-1.39147 c 0.67019,-3.11141 4.2862,-5.44045 5.79503,-7.67057 1.20706,-1.7841 1.82653,-4.2572 2.09084,-6.00653 0.84632,-5.52573 0.54812,-11.8033 -0.31083,-19.35726 -0.35417,-3.11469 -6.03981,-5.80501 -7.46404,-6.63155 -1.21395,-0.70451 -3.10343,-1.45008 -4.84602,-2.04383 -1.15543,-0.39368 -1.2,0 -3.4,0.4 -3.5,1 -9.1,2.8 -14.8,5.8 -8.6,4.1 -16,10.1 -25.5,13.1 -6.3,2.1 -14.2,3.9 -19.4,2.5 -2.2,-0.3 -3.8,-5.4 -3.8,-5.4 -12.9,19.9 -47.4,33.8 -61.9,58.5 4.8,6.5 6.8,17.1 4.8,27.3 -2.5,10 -9.2,20.5 -22.7,25.5 0,0 -16.3,3.8 -24.6,7 -3.5,1.6 -7.1,3.2 -10.3,6.1 -4.1,3.4 -5.7,6.2 -8.3,10.7 -6.1,12 -8.7,29.9 -2.9,42.4 2.7,5.8 10.7,12.9 13.9,18.4 1.7,2.8 1.3,8.3 1.3,8.3 -4.3,-2.1 -7.7,-3.3 -10.9,-3.2 -2.5,0.8 -4.3,2.7 -5.8,6.4 0,0 -4.1,-2.4 -5,-3.9 -0.9,-2.1 -0.4,-3.9 0,-5.7 -0.8,-4 -2.4,-5.6 -4,-6.5 -1.6,-0.9 -5.1,-1.8 -6.6,-1.3 -3.1,1.2 -5.1,5.5 -6.7,4.4 -5.9,-2.3 -0.3,-20.9 0.4,-25.9 0.8,-5.4 3.6,-11.2 4.4,-16 1.5,-9.5 1.7,-17.8 2.1,-27.4 0.5,-5.1 -2.9,-14.7 1.9,-16.9 4.4,-2.2 9.3,-1.9 14,-3.9 5.9,-6.5 12.7,-13.2 22.3,-18.7 -0.9,-3.5 -1.9,-7 -3,-10 0.4,0.2 0.3,0.5 0.2,0.9 -3.2,10.8 -14.6,11.8 -19.6,9.7 1.4,-0.3 2.4,-0.9 3.9,-2.4 -6.5,-0.2 -11.9,-1.5 -17.5,-5.2 2,-0.5 4.1,0.4 5.7,-1.9 -4.6,-0.6 -7.2,-2.8 -9.1,-5 -1.9,-3.3 -1.6,-8.3 0.5,-12.6 3.3,12.1 13.7,11.9 21,5.3 4.1,-4 3.6,-7.5 5.5,-13 0.6,-2.3 3.9,-6.7 7.3,-7.5 1.2,-3.6 2.3,-7.1 4.5,-10.4 24.7,-35.2 37.6,-48.3 39,-63.2 1.6,-10.2 6.3,-19.5 10.1,-22 -0.5,-7.2 -9.8,-9 -12.7,-25.1 0.1,-2.5 1.5,-8.3 1.5,-8.3 -3.2,3.3 -4.2,2 -6.5,1.7 0,0 2.4,-2.1 1.7,-5.2 -0.2,-3.1 -3.6,-9.8 -4.2,-13.2 -0.5,-3.2 1.5,-9.4 1.5,-9.4 -2.5,0.7 -4,2.4 -6.8,0.9 0,0 2.5,-2.8 3.1,-6.8 0,0 1.4,-9.5 2.2,-14.4 0.8,-3.4 1.7,-7 2.9,-10.2 4.7,-11.2 10.5,-15.6 10.5,-15.6 z"
       id="fawn-body" />
    <path
       id="path9013"
       d="m 476.1 245.6 l 0.5 0.5 l 7.4 -2 l 0.7 0.6 l -8.5 2 h -0.1 h 0.1 l -0.6 -0.6 h 0.1 v -0.2 c -0.5 -2.3 -2.6 -8.6 -5.9 -12.3 c 3.7 1.7 5.6 9.5 6.3 12 Z"
       class="detail" />
    <path
       id="path9015"
       d="m 452 260.2 c 1.5 1.5 3.7 2.2 5 3.8 c 1.8 1.4 3.1 3.3 3.4 5.3 c 0.3 1 0.5 2.4 0.2 3.4 c -0.3 1.1 -0.5 1.9 -0.5 1.9 l -0.5 0.1 c 0 0 0.2 -0.9 0.1 -2.1 c 0.2 -0.9 0.5 -2.2 0.3 -3.2 c -0.6 -1.9 -1.9 -3.6 -3 -4.9 c -1.5 -1.3 -3.7 -2.3 -5.6 -3.8 c -0.4 -0.3 -0.9 -1.4 -1.7 -2.3 c -0.2 -0.8 -0.9 -1.7 -0.9 -1.7 c 1.3 0.4 1.9 2.8 3.2 3.5 Z"
       class="detail" />
    <path
       id="path9017"
       d="m 466.8 155.7 c 3.8 1.7 7.8 4 11.9 2.9 l -0.2 0.8 c -5 1.3 -9 -1.6 -12.4 -3.2 c -1.6 -0.7 -3.9 -0.7 -4.1 -1.3 l -0.7 -0.9 c 1.8 0.2 3.9 0.9 5.5 1.7 Z"
       class="detail" />
    <g
       id="front-ear"
       class="detail">
      <path
         id="path9019"
         d="m 392.2 98.23 c 7.6 2.47 14.4 9.27 18.1 18.47 v 0.3 l -0.1 0.2 c -1.5 0.8 -3.9 0.8 -5.6 0.4 c -1.9 -0.4 -3.5 -1.3 -5 -2.4 c -3.2 -2.2 -5.8 -5 -8.1 -7.1 c 2.5 1.5 7.1 5.7 8.7 6.6 c 1.5 1.1 3.3 1.9 4.5 2.2 c 1.7 0.4 3.3 0.4 4.9 -0.3 c -1.6 -3.4 -5.6 -9.7 -10.3 -13.5 c -5.1 -4.15 -10.7 -5.52 -10.7 -5.63 c 1.4 0.15 2.8 0.51 3.6 0.76 Z" />
      <path
         id="path9021"
         d="m 409.6 106.6 c 2.1 2.9 4 6.4 6.1 10.8 c -0.2 0.8 -0.6 0.8 -1 0.5 c -1.7 -4.2 -3.6 -8 -5.6 -10.9 Z m -14.3 9.1 c 3.5 2.5 7.7 4.5 12.7 6.5 c 0.5 0.3 0.5 0.6 -0.5 0.6 c -5.1 -1.9 -9.2 -4.1 -12.4 -6.5 Z" />
    </g>
    <g
       id="fawn-eye">
      <path
         id="path9024"
         d="m 453.4 128.5 c 0.4 -1.8 -1.8 -5.5 -5 -6.1 c -3.5 -0.7 -6.6 1.9 -6.9 3.8 c -0.3 2 2.5 2 5.5 2.6 c 3.5 0.7 5.7 1.5 6.4 -0.3 Z"
         style="fill:#ffffff;" />
      <g
         id="g9032"
         style="stroke:none;">
        <path
           id="path9026"
           d="m 452.1 126.3 a 3.2 3.156 80.09 0 1 -3.5 2.9 a 3.2 3.156 80.09 0 1 -2.9 -3.5 a 3.2 3.156 80.09 0 1 3.5 -2.9 a 3.2 3.156 80.09 0 1 2.9 3.5 Z"
           style="fill:#333333;" />
        <path
           id="path9028"
           d="m 448.9 124.4 c -0.8 0 -1.6 0.5 -1.7 1.4 c -0.1 0.9 0.6 1.6 1.4 1.7 c 0.9 0.1 1.7 -0.4 1.8 -1.3 c 0.1 -0.9 -0.6 -1.7 -1.5 -1.8 Z"
           style="fill:#000000;" />
        <path
           id="path9030"
           d="m 449.7 124.4 c -0.6 0 -1.1 0.4 -1.2 1 c -0.1 0.6 0.4 1.1 0.9 1.2 c 0.7 0.1 1.2 -0.3 1.3 -1 c 0.1 -0.6 -0.4 -1.1 -1 -1.2 Z"
           style="fill:#ffffff;" />
      </g>
    </g>
    <g
       id="fawn-nose"
       class="detail">
      <path
         id="path9035"
         d="m 484.4 154.4 c -4.7 -0.3 -9.8 -7.2 -3 -10.5 c 0 0 2.1 1.6 3 2.6 c 0.7 0.8 1.6 1.5 1.7 2.5 c 0.3 1.9 -1.7 5.4 -1.7 5.4 Z"
         style="fill:#333333;" />
      <path
         id="path9037"
         d="m 483.4 152.8 c 0 0 -0.4 -2.3 -1.1 -3.3 c -0.4 -0.5 -1.1 -1.4 -1.5 -1.2 c -0.7 0.3 -0.5 1 -0.4 1.5 c 0.4 1.4 3 3 3 3 Z" />
    </g>
  </g>
  <use
     id="use9041"
     xlink:href="#fawn"
     transform="translate(600) scale(-1, 1)" />
  <use
     xlink:href="#shield"
     stroke-width="3"
     stroke="#000"
     fill="url(#rg)"
     id="use9043" />
</svg>
