<?xml version="1.0" encoding="UTF-8" standalone="no"?>
<svg
   width="600"
   height="660"
   version="1.1"
   id="svg25"
   xmlns:xlink="http://www.w3.org/1999/xlink"
   xmlns="http://www.w3.org/2000/svg"
   xmlns:svg="http://www.w3.org/2000/svg">
  <defs>
    <radialGradient id="rg" gradientUnits="userSpaceOnUse" cx="220" cy="220" r="405">
      <stop style="stop-color:#fff;stop-opacity:.3" offset="0"/>
      <stop style="stop-color:#fff;stop-opacity:.2" offset=".2"/>
      <stop style="stop-color:#666;stop-opacity:.1" offset=".6"/>
      <stop style="stop-color:#000;stop-opacity:.13" offset="1"/>
    </radialGradient>
    <clipPath id="clip-shield">
      <path id="shield" d="m 1.5,1.5 v 258.9 c 0,286 298.5,398 298.5,398 0,0 298.5,-112 298.5,-398 V 1.5 z"/>
    </clipPath>
    <g id="key" style="fill:#ddaa22;stroke:#58440e;stroke-width:1;stroke-linecap:round;stroke-linejoin:round;">
      <path id="teeth" d="m 750,75 h -8 v 18 h -8 v -9 h -8 v 9 h -16 v -9 h 8 v -9 h -8 v -9 h 16 v 9 h 8 v -9 h 8 v -9 h -8 v -9 h -8 v 9 h -16 v -9 h 8 v -9 h -8 v -9 l 16,0.1 v 8.91 h 8 v -8.87 l 8,0.1 v 17.82 h 8"/>
      <path id="neck" d="m 764,464 v -440 c 0,-3.4 -1,-7.97 -7,-8 -6,0 -7,4.98 -7,8 v 440"/>
      <path id="handle" d="m 750,495 c -6.8,-3.8 -18,-2.9 -18,7 0,9.9 11.2,10.8 18,7 -3.8,6.8 -2.9,18 7,18 9.9,0 10.8,-11.2 7,-18 6.8,3.8 18,2.9 18,-7 0,-9.9 -11.2,-10.8 -18,-7 3.8,-6.8 2.9,-18 -7,-18 -9.9,0 -10.8,11.2 -7,18 z m 14,-25 c 3.3,4.4 7.6,9 11.8,13.2 4.2,4.2 8.8,8.5 13.2,11.8 v 14 c -4.4,3.3 -9,7.6 -13.2,11.8 -4.2,4.2 -8.5,8.8 -11.8,13.2 h -14 c -3.3,-4.4 -7.6,-9 -11.8,-13.2 -4.2,-4.2 -8.8,-8.5 -13.2,-11.8 v -14 c 4.4,-3.3 9,-7.6 13.2,-11.8 4.2,-4.2 8.5,-8.8 11.8,-13.2 z"/>
      <path id="handle1" d="m 795,495 c 3.9,0 7,3.1 7,7 0,3.9 -3.1,7 -7,7"/>
      <use xlink:href="#handle1" transform="matrix(-1,0,0,1,1514,0)"/>
      <use xlink:href="#handle1" transform="matrix(0,1,1,0,255,-255)"/>
      <path id="handle2" d="m 764,470 h -7 -7 c -2,0 -2,-6 0,-6 h 14 c 2,0 2,6 0,6 z"/>
      <use xlink:href="#handle2" transform="rotate(90,757,502)"/>
      <use xlink:href="#handle2" transform="translate(0,70)"/>
      <use xlink:href="#handle2" transform="rotate(90,722,467)"/>
    </g>
  </defs>
  <use id="background" xlink:href="#shield" style="fill:#aa00aa;"/>
  <path style="fill:#ffffff" d="m 199.5,2 v 600.3 c 55.2,37.7 100.5,54.7 100.5,54.7 0,0 45.3,-17 100.5,-54.7 v -600.3 z"/>
  <use id="key1" xlink:href="#key" transform="rotate(17,400,-1185)"/>
  <use id="key2" xlink:href="#key1" transform="matrix(-1,0,0,1,600,0)"/>
  <use id="shine" xlink:href="#shield" style="fill:url(#rg);stroke:#000000;stroke-width:3;"/>
</svg>
