<?xml version="1.0" encoding="UTF-8"?>
<svg xmlns="http://www.w3.org/2000/svg" xmlns:xlink="http://www.w3.org/1999/xlink" width="600" height="660">
<defs>
  <radialGradient id="rg" gradientUnits="userSpaceOnUse" cx="220" cy="220" r="405">
    <stop style="stop-color:#fff;stop-opacity:.3" offset="0"/>
    <stop style="stop-color:#fff;stop-opacity:.2" offset=".2"/>
    <stop style="stop-color:#666;stop-opacity:.1" offset=".6"/>
    <stop style="stop-color:#000;stop-opacity:.13" offset="1"/>
  </radialGradient>
  <path id="shield" d="m2,2v257c0,286 298,398 298,398c0,0 298-112 298-398V2z"/>
</defs>
<use id="shine" xlink:href="#shield" fill="#884411"/>
<g style="fill:#000000;stroke:#884411;stroke-width:1;stroke-linecap:round;">
    <path d="m 450.96,159.24 1.53,-7.76 c -6.94,0.19 -10.61,0.19 -13.25,-1.23 -3.13,-1.68 0.52,-5.39 -1.2,-7.83 2.51,-1 1.75,-1.06 -0.48,-1.84 1.07,-1.55 -0.45,-2.51 -0.24,-3.63 -1.56,-0.35 -1.84,-0.94 -3.73,-0.79 -7.69,0.62 5.5,-9.47 4.08,-13.21 -1.43,-3.74 0.38,-9.04 0.9,-11.68 0.61,-3.12 6.5,-10.12 28.15,-6.16 21.65,3.96 21.56,3.8 23.27,9.52 1.7,5.72 -3.18,20.15 -7.46,25.66 -4.27,5.5 5.79,17.53 5.79,17.53 l -7.24,10.5 h -28.49 z" />
    <path d="m 459.09,115.82 c -5.98,5.85 1.84,6.14 0.89,11.95 l 2.01,0.22 c 1.02,-2.47 2.64,-3.01 5.79,-1.81 0.83,0.31 3.61,2.38 0.41,4.75 -2.28,1.68 0.55,3.27 -0.69,5.38 4.61,4.16 6.18,1.6 7.22,4.15 1.46,2.29 3.99,4.12 6.79,4.21 -1.52,-3.51 6.66,-8.5 8.25,-23.63 z" />
    <path d="m 440.63,121.57 c 0,0 1.64,-0.72 9.03,0.6" />
    <path d="m 439.78,141.41 c 0,0 3.71,0.28 6.95,0.22" />
    <path d="m 462.1,127.91 c 1.96,-5 10.46,-0.51 6.69,2.48 -5.13,4.07 -3.35,6.13 -6.83,6.13" />
    <path d="m 469.33,454.91 h 23.67 c 18.84,43.75 -45.27,41.59 -23.67,0 z"/>
    <path d="m 469.37,425.59 c 6.05,3.43 16.94,21.5 1.46,23.22 -10.72,3.41 -71.91,6.34 -72.91,-3.48 1.83,-12.99 41.65,-8.84 55.89,-18.64 z" />
    <path d="m 471.01,346.67 1.8,88.14 c 0.2,9.57 -41.6,4.42 -34.62,-5.7 5.99,-8.7 -6.46,-64.8 0.51,-82.44 z" />
    <path d="m 497.69,368.11 c 9.14,35.19 -4.19,56.35 -2.33,83.21 0.91,13.03 -30.73,13.43 -28.99,2.1 3.81,-24.78 -13.74,-58.4 -6.77,-82.98 z" />
    <path d="m 426.27,285.9 h 93.46 c 11.62,26.15 -10,69.37 -14.1,84.14 -2.88,10.38 -44.86,13.7 -49.97,-0.36 -9.94,2.49 -21.48,-0.69 -23.57,-6.57 -6.28,-17.68 -3.59,-54.03 -4.1,-59.37 z" />
    <path d="m 544.3,209.17 -17.34,-37.54 c -8.73,-3.89 -17.35,-6.28 -39.64,-15.95 -13.65,9.41 -23.4,10.32 -36.19,5.57 -1.69,-0.26 -8.55,2.5 -14.79,6.68 -22.4,19.77 -9.6,73.47 -19.99,115.59 -3.82,15.48 62.05,11.81 96.28,9.33 l 20.68,-56.25 z" />
    <path d="m 471.37,295.91 c -10.63,-19.13 -14.79,-37.99 -17.3,-41.91 -11.5,-17.93 -22.5,-58.69 -19.44,-83.37 0.19,-6.61 9.75,-10.81 9.86,-6.4 0.8,32.3 2.06,45.93 14.61,65.45 6.67,10.39 46.39,50.53 67.7,-20.4 3.76,29.55 22.89,64.33 9.31,89.91 -9.41,17.71 -49.93,23.36 -64.74,-3.28 z" />
    <path d="m 455.56,369.42 c -3.43,-4.27 -1.71,-56.2 -7.21,-65.16" />
    <path d="m 466.23,453.26 c 13.54,3.56 27.96,-8.48 29.58,-18.41" />
    <path d="m 466.1,432.27 c 10.79,-1.96 25.23,-6.61 33.19,-20.07" />
    <path d="m 500.47,384.47 c -8.54,13.21 -23.07,17.2 -39.83,19.07" />
    <path d="m 457.89,385.63 c 10.9,18.63 27.53,19.84 42.19,19.73" />
    <path d="m 460.21,402.97 c 4.49,7.49 6.11,19.42 35.98,27.7" />
    <path d="m 465.98,435.22 c 4.07,6.37 8.25,16.52 28.8,19.04" />
    <path d="m 438.5,429.43 c 10.04,0.47 20.32,-2.7 24.69,-10.09" />
    <path d="m 465.34,430.71 c -8.61,-1.81 -19.1,-5.09 -25.58,-15.51" />
    <path d="m 439.7,407.81 c 8.49,-1.38 18.21,-2.77 19.8,-8.86" />
    <path d="m 461.43,411.64 c -7.4,-2.63 -14.24,-8.78 -22.93,-16.77" />
    <path d="m 437.92,387.32 c 5.52,1.01 15.45,-1.84 20.23,-5.87" />
    <path d="m 457.87,386.72 c -7.73,-1.42 -16.63,-2.36 -20.83,-10.86" />
    <path d="m 331.54,374.28 c -3.83,73.11 -20.62,89.23 -39.48,96.3 11.37,-16.18 18.47,-35.25 15.92,-60.93 l 10,1.65 c 2.16,-12.84 3.38,-25.11 2.39,-36.06 z" />
    <path d="m 396.73,364.36 -12.96,-4.39 c 12.87,53.23 -18.88,85.13 -60.19,112.5 58.04,-2.07 91.38,-25.83 107.28,-64.87 -11.2,8.78 -24.97,8.24 -37.87,6.68 6.62,-19.25 7.01,-35.19 3.74,-49.92 z" />
    <path d="m 151.01,365.5 v 47 l 33.11,-33.23 4.85,4.88 -33.08,33.26 h 46.79 v 6.94 h -46.73 l 33.02,33.17 -4.85,4.91 -33.11,-33.26 v 47 h -6.85 v -47 l -33.08,33.26 -4.88,-4.91 33.02,-33.17 h -46.725 v -6.94 h 46.815 l -33.11,-33.26 4.88,-4.88 33.08,33.23 v -47 z" />
    <path d="m 130.36,420.87 a 17.243,17.324 0 1 0 34.48,0 17.243,17.324 0 1 0 -34.48,0 z" />
    <path d="m 150.77,358.52 c 32.81,1.69 58.85,28.93 58.85,62.32 0,34.43 -27.75,62.4 -62.02,62.4 -34.27,0 -62.109,-27.97 -62.109,-62.4 0,-34.44 27.839,-62.32 62.109,-62.32 1.05,0 2.13,0 3.17,0 z m -3.17,12.69 c -27.3,0 -49.388,22.2 -49.388,49.63 0,27.42 22.088,49.71 49.388,49.71 27.3,0 49.39,-22.29 49.39,-49.71 0,-27.43 -22.09,-49.63 -49.39,-49.63 z" />
    <path d="m 412.78,295.46 c -24.91,11.31 -34.84,46.16 -41.7,60.87 -6.88,14.7 -17.78,30.79 -8.98,31.18 8.8,0.4 13.83,-11.69 19.46,-25.89 5.63,-14.16 13.35,-31.24 26.07,-44.84 12.09,-12.93 37.27,-10.37 39.9,-15.58 5.57,-10.91 -22.27,-11.42 -34.75,-5.74 z" />
    <path d="m 445.79,374.4 c -20.44,-6.19 -42.14,-7.4 -63,-8.15 -23.47,-0.81 -47.51,5.42 -80.73,5.42 -76.96,0.63 -228.064,0 -228.064,0 -7.213,0 -7.183,10.49 0,10.49 h 245.214 c 21.64,0 42.65,-1.35 65.94,0.48 19.07,1.54 37.06,6.23 55.59,9.45 6.73,1.17 15.41,-14.56 5.14,-17.69 z" />
    <path transform="scale(-1,1)" d="m -180.43,296.54 c 1.63,0 2.95,1.05 2.95,2.35 v 15.91 c 0,1.3 -1.32,2.35 -2.95,2.35 -1.63,0 -2.94,-1.05 -2.94,-2.35 v -15.91 c 0,-1.3 1.31,-2.35 2.94,-2.35 z" />
    <path d="m 181.46,309.87 c 17.54,0 31.61,14.13 31.61,31.75 v 79.25 h -13.56 v -79.25 c 0,-10.31 -7.79,-18.22 -18.05,-18.22 h -2.07 c -10.27,0 -18.14,7.91 -18.14,18.22 v 30.08 h -13.47 v -30.08 c 0,-17.62 14.07,-31.75 31.61,-31.75 z" />
    <path d="m 219.44,352.81 v 57.8 l 40.68,-40.9 5.99,6.02 -40.68,40.89 h 57.53 v 8.55 h -57.44 l 40.59,40.77 -5.99,6.02 -40.68,-40.87 v 57.8 h -8.41 v -57.8 l -40.71,40.87 -5.99,-6.02 40.59,-40.77 h -57.41 v -8.55 h 57.53 l -40.71,-40.89 5.99,-6.02 40.71,40.9 v -57.8 z" />
    <path d="m 215.22,344.24 c 42.15,0 76.33,34.25 76.33,76.6 0,42.34 -34.18,76.68 -76.33,76.68 -42.15,0 -76.33,-34.34 -76.33,-76.68 0,-42.35 34.18,-76.6 76.33,-76.6 z m 0,15.61 c -33.55,0 -60.7,27.27 -60.7,60.99 0,33.71 27.15,61.07 60.7,61.07 33.56,0 60.79,-27.36 60.79,-61.07 0,-33.72 -27.23,-60.99 -60.79,-60.99 z" />
    <path d="m 194.06,420.87 a 21.199,21.298 0 1 0 42.38,0 21.199,21.298 0 1 0 -42.38,0 z" />
    <path d="m 200.88,420.87 a 14.37,14.437 0 1 0 28.74,0 14.37,14.437 0 1 0 -28.74,0 z" />
    <path d="m 208.19,420.87 a 7.069,7.102 0 1 0 14.12,0 7.069,7.102 0 1 0 -14.12,0 z" />
    <path d="m 215.25,344.21 v 15.61" />
    <path d="m 215.25,497.52 v -15.61" />
    <path d="m 138.95,420.87 h 15.54" />
    <path d="m 291.55,420.87 h -15.54" />
    <path d="m 147.6,358.49 v 12.69" />
    <path d="m 147.6,483.21 v -12.69" />
    <path d="m 85.521,420.87 h 12.631" />
    <path d="m 363.66,451.72 c 12.84,-9.11 23.71,-20.9 29.36,-37.44" />
    <path d="m 357.64,445.8 17.36,17.11" />
    <path d="m 470.34,298.71 c -30.32,7.7 -48.49,44.96 -59.18,60.14 -10.71,15.19 -26.19,31.1 -16.37,33.33 9.85,2.22 17.93,-10.35 27.12,-25.21 9.19,-14.85 21.28,-32.53 38.34,-45.29 16.23,-12.11 44.06,-4.15 48.1,-9.47 8.45,-11.19 -22.8,-17.35 -38.01,-13.5 z" />
    <path d="m 440.47,317.84 c -2.67,2.79 -5.24,5.74 -7.58,8.75 h -33.79 c -2.99,0 -5.42,-2.02 -5.42,-4.42 0,-2.44 2.43,-4.33 5.42,-4.33 z m -20.12,26.79 c -2,3.13 -3.83,5.98 -5.51,8.63 h -29.9 c -3.02,0 -5.45,-1.89 -5.45,-4.33 0,-2.41 2.43,-4.3 5.45,-4.3 z" />
    <path d="m 463.34,243.83 c 25.55,27.15 41.8,13.86 59.46,6.72" />
    <path d="m 525.95,289.8 c 0,0 -4.71,18.41 -13.85,26.56 -1.03,0.92 -3.38,2.66 -5.26,0.4 -1.58,2.42 -5.51,1.97 -6.06,0.48 -1.75,2.31 -5.98,1.97 -5.82,-1.11 -2.01,1.59 -5.5,-0.66 -4.64,-2.13 2.45,-4.14 10.17,-13.66 8.18,-16.11 -1.98,-2.45 -10.71,2.97 -11.37,-0.82 -0.67,-3.79 5.35,-5.95 11.29,-7.54 5.95,-1.58 6.6,-6.72 6.6,-6.72 0,0 14.54,3.07 20.93,6.99 z" />
    <path d="m 526.67,171.52 c 11.33,4.68 34.02,56.9 32.19,64.72 -1.84,7.81 -0.48,19.03 -26.92,54.3 0,0 -24.14,6.62 -27.83,-8.21 0,0 11.98,-32.19 13.19,-43.52 0.57,-5.34 -19.52,-19.98 -20.87,-40.67" />
    <path d="m 441.99,122.82 c 4.02,0.4 5.12,1.32 5.67,2.01 -0.81,0.4 -1.93,0.79 -5.68,1.19" />
    <path d="m 443.1,124.55 c 0,0.13 0,0.23 0,0.23 0,0 0,-0.1 0,-0.23 0,-0.13 0,-0.23 0,-0.23 0,0 0,0.1 0,0.23 z" />
    <path d="m 452.02,151.58 c 3.32,-0.37 9.03,-0.32 13.05,-3.85" />
    <path d="m 460.24,122.47 c -23.59,-7.68 -49.95,-17.61 -56.2,-24.541 0.78,-2.108 8.33,-3.344 11.36,-3.403 23.81,-0.464 43.43,7.084 59.66,12.144 9.13,2.85 23.13,2.39 46.54,18.47 3.08,2.12 10.01,5.61 7.28,9.64 -22.71,-0.29 -47.12,-5.31 -68.64,-12.31 z" />
    <path d="m 440.12,103.53 c -3.59,4.84 50.31,20.62 51.2,16.45 3.46,-16.28 -4.82,-18.77 -15.54,-22.908 -14.29,-5.513 -28.65,-3.012 -35.66,6.458 z" />
    <path d="m 495.08,316.37 6.92,-10.82" />
    <path d="m 501.16,316.89 6.1,-9.85" />
    <path d="m 506.98,316.58 5.55,-8.85" />
</g>
<use id="shine" xlink:href="#shield" fill="url(#rg)" stroke="#000" stroke-width="3"/>
</svg>
