<?xml version="1.0" encoding="UTF-8" standalone="no"?>
<svg
   xmlns:dc="http://purl.org/dc/elements/1.1/"
   xmlns:cc="http://creativecommons.org/ns#"
   xmlns:rdf="http://www.w3.org/1999/02/22-rdf-syntax-ns#"
   xmlns:svg="http://www.w3.org/2000/svg"
   xmlns="http://www.w3.org/2000/svg"
   xmlns:xlink="http://www.w3.org/1999/xlink"
   xmlns:sodipodi="http://sodipodi.sourceforge.net/DTD/sodipodi-0.dtd"
   xmlns:inkscape="http://www.inkscape.org/namespaces/inkscape"
   width="600"
   height="660"
   id="svg2"
   version="1.1"
   inkscape:version="0.48.2 r9819"
   sodipodi:docname="House_Frey.svg">
  <metadata
     id="metadata51">
    <rdf:RDF>
      <cc:Work
         rdf:about="">
        <dc:format>image/svg+xml</dc:format>
        <dc:type
           rdf:resource="http://purl.org/dc/dcmitype/StillImage" />
        <dc:title></dc:title>
      </cc:Work>
    </rdf:RDF>
  </metadata>
  <sodipodi:namedview
     pagecolor="#ffffff"
     bordercolor="#666666"
     borderopacity="1"
     objecttolerance="10"
     gridtolerance="10"
     guidetolerance="10"
     inkscape:pageopacity="0"
     inkscape:pageshadow="2"
     inkscape:window-width="1366"
     inkscape:window-height="715"
     id="namedview49"
     showgrid="false"
     inkscape:zoom="0.71515151"
     inkscape:cx="222.36765"
     inkscape:cy="297.55283"
     inkscape:window-x="-8"
     inkscape:window-y="-8"
     inkscape:window-maximized="1"
     inkscape:current-layer="svg2" />
  <defs
     id="defs4">
    <radialGradient
       id="rg"
       gradientUnits="userSpaceOnUse"
       cx="220"
       cy="220"
       r="405">
      <stop
         style="stop-color:#fff;stop-opacity:.3"
         offset="0"
         id="stop7" />
      <stop
         style="stop-color:#fff;stop-opacity:.2"
         offset=".2"
         id="stop9" />
      <stop
         style="stop-color:#666;stop-opacity:.1"
         offset=".6"
         id="stop11" />
      <stop
         style="stop-color:#000;stop-opacity:.13"
         offset="1"
         id="stop13" />
    </radialGradient>
    <clipPath
       id="clip-shield">
      <path
         id="shield"
         d="m2,2v257c0,286 298,398 298,398c0,0 298-112 298-398V2z" />
    </clipPath>
    <radialGradient
       id="rg-1"
       gradientUnits="userSpaceOnUse"
       cx="220"
       cy="220"
       r="405">
      <stop
         style="stop-color:#fff;stop-opacity:.3"
         offset="0"
         id="stop7-7" />
      <stop
         style="stop-color:#fff;stop-opacity:.2"
         offset=".2"
         id="stop9-4" />
      <stop
         style="stop-color:#666;stop-opacity:.1"
         offset=".6"
         id="stop11-0" />
      <stop
         style="stop-color:#000;stop-opacity:.13"
         offset="1"
         id="stop13-9" />
    </radialGradient>
    <radialGradient
       id="radialGradient3027"
       gradientUnits="userSpaceOnUse"
       cx="220"
       cy="220"
       r="405">
      <stop
         style="stop-color:#fff;stop-opacity:.3"
         offset="0"
         id="stop3029" />
      <stop
         style="stop-color:#fff;stop-opacity:.2"
         offset=".2"
         id="stop3031" />
      <stop
         style="stop-color:#666;stop-opacity:.1"
         offset=".6"
         id="stop3033" />
      <stop
         style="stop-color:#000;stop-opacity:.13"
         offset="1"
         id="stop3035" />
    </radialGradient>
    <radialGradient
       r="405"
       cy="220"
       cx="220"
       gradientUnits="userSpaceOnUse"
       id="radialGradient3485"
       xlink:href="#rg-7-8"
       inkscape:collect="always"
       gradientTransform="translate(2,0)" />
    <radialGradient
       id="rg-7-8"
       gradientUnits="userSpaceOnUse"
       cx="220"
       cy="220"
       r="405">
      <stop
         style="stop-color:#fff;stop-opacity:.3"
         offset="0"
         id="stop5-4-2" />
      <stop
         style="stop-color:#fff;stop-opacity:.2"
         offset=".2"
         id="stop7-0-4" />
      <stop
         style="stop-color:#666;stop-opacity:.1"
         offset=".6"
         id="stop9-9-5" />
      <stop
         style="stop-color:#000;stop-opacity:.13"
         offset="1"
         id="stop11-4-5" />
    </radialGradient>
    <radialGradient
       r="405"
       cy="220"
       cx="220"
       gradientTransform="translate(2,0)"
       gradientUnits="userSpaceOnUse"
       id="radialGradient3094"
       xlink:href="#rg-7-8"
       inkscape:collect="always" />
    <radialGradient
       r="405"
       cy="220"
       cx="220"
       gradientTransform="translate(2,0)"
       gradientUnits="userSpaceOnUse"
       id="radialGradient3094-1"
       xlink:href="#rg-7-8-7"
       inkscape:collect="always" />
    <radialGradient
       id="rg-7-8-7"
       gradientUnits="userSpaceOnUse"
       cx="220"
       cy="220"
       r="405">
      <stop
         style="stop-color:#fff;stop-opacity:.3"
         offset="0"
         id="stop5-4-2-4" />
      <stop
         style="stop-color:#fff;stop-opacity:.2"
         offset=".2"
         id="stop7-0-4-0" />
      <stop
         style="stop-color:#666;stop-opacity:.1"
         offset=".6"
         id="stop9-9-5-9" />
      <stop
         style="stop-color:#000;stop-opacity:.13"
         offset="1"
         id="stop11-4-5-4" />
    </radialGradient>
  </defs>
  <use
     id="shine"
     xlink:href="#shield"
     style="fill:#cc0000"
     x="0"
     y="0"
     width="1"
     height="1"
     transform="translate(2,0)" />
  <g
     transform="matrix(1.1025,0,0,1.1025,67.432995,85.38217)"
     id="layer1">
    <g
       transform="translate(-137.0242,-167.2398)"
       id="g13490">
      <path
         inkscape:connector-curvature="0"
         d="m 252.7381,375.33836 c 115.94292,155.12889 220.90013,109.1777 294.64287,-28.80953 l 17.02381,7.85714 C 486.36653,585.00589 296.24864,587.09669 154.52381,446.05264 l 98.21429,-70.71428 z"
         style="fill:#000000;fill-opacity:1;fill-rule:evenodd;stroke:#333333;stroke-width:2.72108841000000010;stroke-linecap:butt;stroke-linejoin:miter;stroke-miterlimit:4;stroke-opacity:1;stroke-dasharray:none"
         id="path6357" />
      <path
         inkscape:connector-curvature="0"
         d="m 247.5,394.9812 a 62.202381,37.976192 0 1 1 -124.40476,0 62.202381,37.976192 0 1 1 124.40476,0 z"
         transform="matrix(0.820837,-0.546036,0.551573,0.812595,-171.4394,185.081)"
         style="fill:#000000;fill-opacity:1;fill-rule:evenodd;stroke:#333333;stroke-width:2.76543260000000000;stroke-linejoin:miter;stroke-miterlimit:4;stroke-opacity:1;stroke-dasharray:none"
         id="path1900" />
      <path
         inkscape:connector-curvature="0"
         d="m 247.5,394.9812 a 62.202381,37.976192 0 1 1 -124.40476,0 62.202381,37.976192 0 1 1 124.40476,0 z"
         transform="matrix(0.717109,-0.478464,0.481871,0.712036,-124.5977,212.2483)"
         style="fill:#000000;fill-opacity:1;fill-rule:evenodd;stroke:#333333;stroke-width:3.16071320000000000;stroke-linejoin:miter;stroke-miterlimit:4;stroke-opacity:1;stroke-dasharray:none"
         id="path4561" />
      <path
         inkscape:connector-curvature="0"
         d="m 281.52978,411.37794 c 7.2719,14.11542 0.0764,38.37125 -17.96728,57.37206 -16.98743,17.88859 -39.84341,26.54272 -54.51047,22.12353 0.75628,1.04656 8.81253,7.19718 12.10874,8.15879 14.3669,4.19131 35.79149,-4.66759 52.37048,-22.12607 16.92307,-17.82081 24.54736,-40.27163 18.88737,-54.25781 -1.15709,-2.85924 -8.88624,-10.34156 -10.88884,-11.2705 z"
         style="fill:#ffd700;fill-opacity:1;fill-rule:evenodd;stroke:#000000;stroke-width:2.72108841000000010;stroke-linecap:butt;stroke-linejoin:miter;stroke-miterlimit:4;stroke-opacity:1;stroke-dasharray:none"
         id="path2789" />
      <path
         inkscape:connector-curvature="0"
         d="m 486.8125,430.78125 c -3.7144,3.60382 -7.47515,6.985 -11.28125,10.15625 14.66398,4.03063 23.95764,13.41028 23.65625,32.40625 3.59826,-4.08082 7.14048,-8.34682 10.59375,-12.8125 -2.0044,-13.75297 -8.8414,-24.2233 -22.96875,-29.75 z"
         style="fill:#ffd700;fill-opacity:1;fill-rule:evenodd;stroke:#000000;stroke-width:2.72108841000000010;stroke-linecap:butt;stroke-linejoin:miter;stroke-miterlimit:4;stroke-opacity:1;stroke-dasharray:none"
         id="path8141" />
      <path
         inkscape:connector-curvature="0"
         d="m 378.65625,175 c -81.67167,24.26465 -59.39228,102.45489 -26.0625,145.46875 29.85905,38.53469 80.62612,86.47708 94.375,101.46875 l 33.6875,14.5625 c 1.4995,-1.34159 2.98387,-2.71519 4.46875,-4.125 l -13.34375,-16.65625 -68.96875,-68.9375 -14.5,-15.18974 C 361.00496,296.4641 327.0226,246.58902 351.78125,207.4375 c 24.99243,-28.04438 50.80668,-37.70266 77.25,0 6.78193,17.67239 13.64527,35.26598 0.6875,65.5 -9.6725,16.94775 -20.19991,33.78786 -40.71875,57.96651 l 14.15737,15.87724 C 435.72218,316.71372 476.04059,247.91384 439.20256,195 422.18896,174.48927 393.83827,171.6591 378.65625,175 z M 373,345.15625 314.53125,388.125 l -25.9375,29.21875 c 1.97757,1.99484 3.93675,3.96365 5.90625,5.84375 l 33.8125,-12.28125 c 12.84787,-10.67045 46.40213,-38.23372 59.25,-49.0625 L 373,345.15625 z"
         style="fill:#ffd700;fill-opacity:1;fill-rule:evenodd;stroke:#000000;stroke-width:2.72108841000000010;stroke-linecap:butt;stroke-linejoin:miter;stroke-miterlimit:4;stroke-opacity:1;stroke-dasharray:none"
         id="path9034" />
      <path
         inkscape:connector-curvature="0"
         d="m 557.96875,324.5625 -8.59375,22.875 12.4375,5.75 8.9375,-23.84375 -12.78125,-4.78125 z"
         style="fill:#000000;fill-opacity:1;fill-rule:evenodd;stroke:#333333;stroke-width:2.72108983999999990;stroke-linejoin:miter;stroke-miterlimit:4;stroke-opacity:1;stroke-dasharray:none"
         id="rect11697" />
    </g>
  </g>
  <path
     id="path4147"
     d="m 4,2 0,257 c 0,286 298,398 298,398 0,0 298,-112 298,-398 L 600,2 z"
     style="fill:url(#radialGradient3094-1);stroke:#000000;stroke-width:3"
     inkscape:connector-curvature="0" />
</svg>
