<?xml version="1.0" encoding="UTF-8"?>
<svg xmlns="http://www.w3.org/2000/svg" xmlns:xlink="http://www.w3.org/1999/xlink" width="600" height="660">
<defs>
  <radialGradient id="rg" gradientUnits="userSpaceOnUse" cx="220" cy="220" r="405">
    <stop style="stop-color:#fff;stop-opacity:.3" offset="0"/>
    <stop style="stop-color:#fff;stop-opacity:.2" offset=".2"/>
    <stop style="stop-color:#666;stop-opacity:.1" offset=".6"/>
    <stop style="stop-color:#000;stop-opacity:.13" offset="1"/>
  </radialGradient>
  <path id="shield" d="m2,2v257c0,286 298,398 298,398c0,0 298-112 298-398V2z"/>
  <g id="unicorn" style="fill:#eeeeee;stroke:#777777;stroke-width:2;stroke-linecap:round;stroke-linejoin:round;" transform="translate(300,500)scale(0.25)translate(-300,-300)">
    <g id="front-right">
      <g id="hoof">
        <path style="fill:#bbbbbb;" d="m 64.80843,317.89588 c 0.356981,11.04567 3.951219,22.52693 -2.233265,40.63403 4.720561,-2.69496 10.133782,-5.95452 13.309933,-12.19426 1.437696,4.5925 0.498613,13.81243 0.311373,18.76872 9.979537,-7.55811 14.203407,-13.69114 16.190209,-22.80435 2.564018,-9.58371 1.381476,-21.87792 -4.227674,-37.48119 z"/>
        <path style="fill:#777777;stroke:none;" d="m 69.698732,331.20289 c 2.485414,4.69922 4.393612,9.86894 4.561431,15.49655 -0.222157,1.14182 -0.222157,1.14182 -0.328871,2.18954 -0.577216,0.4705 -1.363977,0.91966 -0.893474,1.49687 l 2.740567,-3.00248 1.296064,1.82575 c -0.544222,-6.08939 -3.171267,-13.55536 -7.375717,-18.00623 z"/>
      </g>
      <path d="m 178.20526,271.64843 c -8.3999,16.04985 -13.14181,-3.88009 -21.83354,-13.33315 -4.34443,-4.72497 -10.96902,-29.21278 -23.65641,-30.25794 -19.03336,-1.56788 -27.4747,15.83182 -30.0934,18.42281 -14.656167,14.50122 -10.748013,9.69207 -29.414187,26.51463 -8.852957,7.97856 -9.741272,16.88238 -6.628837,24.6285 2.80975,6.99281 -5.139757,12.90165 -4.759396,20.25588 0.171939,3.32408 3.401293,7.07039 3.102424,11.58829 11.008247,-3.62252 30.930668,-13.76504 28.620167,-22.24992 -1.937841,-4.24378 4.55486,-7.20081 10.602619,-2.23598 2.01935,-5.78234 -3.95807,-9.74172 -3.37928,-14.97479 3.56178,0.91472 3.30851,1.75296 7.39081,6.17236 0.67688,-9.08072 -4.19902,-10.12923 -4.097,-13.22257 0.18154,-5.5047 3.27927,-2.78093 5.92517,-2.08952 4.60018,-6.73962 -0.63112,-9.13075 3.57093,-14.15912 5.73269,-6.85999 8.45799,-1.99338 12.01921,-2.31908 9.73029,-0.88995 12.2571,7.71594 14.12686,15.69842 5.81968,24.84544 14.72614,63.16325 50.99223,62.10439"/>
    </g>
    <g id="rear-right">
      <use xlink:href="#hoof" transform="rotate(41.462915,-101.19681,688.00228)"/>
      <path d="m 325.55672,397.23566 c -3.01637,11.92529 1.36113,22.32852 5.14975,31.27451 2.87336,6.78485 3.92597,13.10198 9.69685,16.47427 5.59221,3.2679 11.62717,6.90957 11.84237,11.90287 0.30743,7.13342 1.25082,10.21357 -1.19163,13.9956 -3.87849,6.00572 -11.81702,7.58481 -13.99425,9.41861 -2.8176,2.37319 -12.47953,10.08671 -15.90851,11.43316 -4.994,1.96096 -18.31391,5.4417 -23.45243,6.98471 -4.14776,1.2455 -11.03347,6.20555 -14.64639,8.59342 -7.71399,5.0984 -13.41865,3.75178 -17.54601,9.85047 -1.86556,2.75659 -1.5453,7.6923 -4.50586,11.11804 10.96843,3.7413 24.23295,1.93279 36.37209,-0.56969 6.14039,-2.352 11.47033,0.32294 21.73045,-0.77446 -4.41466,-4.85785 -0.63926,-8.00134 2.90733,-10.75706 1.69268,4.89883 6.81222,5.67495 11.04777,7.26827 -5.42607,-7.77355 -0.0815,-11.36939 3.19805,-14.24582 3.14958,0.72682 5.00725,3.61989 6.25071,7.26827 5.46589,-6.03634 3.5168,-9.38776 7.55901,-14.24582 3.35822,-3.75855 7.60656,-6.08445 12.38781,-7.67942 7.77723,-2.59438 20.72759,-2.14542 26.61366,-7.85249 7.87544,-7.63586 4.6835,-21.20428 3.15454,-28.36849 -2.41951,-11.33713 -16.78923,-34.25156 -12.59086,-51.46901"/>
    </g>
    <path id="body" d="m 393.01556,417.84616 c -53.12146,2.93066 -67.16456,-12.13583 -104.84476,-23.84706 -35.18335,-10.93519 -62.70948,-17.85677 -85.93159,-46.46062 -14.54718,-17.91849 -32.72815,-41.36122 -30.63114,-64.34589 2.22199,-24.35447 2.48483,-10.43705 8.83575,-34.05364 10.36298,-38.53581 28.31831,-30.22959 28.97259,-65.86882 0.24351,-13.26424 -3.59982,-21.80788 -2.65824,-35.04089 1.32291,-18.59206 17.59688,-37.91919 35.56873,-42.86161 19.32001,-5.31315 45.9186,5.30401 56.73952,21.38012 12.63225,18.76706 17.24263,29.00062 16.69314,51.49424 -0.44466,18.20237 -12.85485,43.36596 -12.78717,61.57365 0.062,16.65042 9.40856,26.69488 21.79128,37.82633 19.6858,17.69658 51.89247,31.97987 96.62164,43.99369 21.37394,5.74083 20.95495,33.22316 17.26856,53.86143 -3.59587,20.13153 -25.23294,41.22331 -45.63831,42.34907 z"/>
    <path id="tail" style="fill:#bbbbbb;" d="m 455.83804,337.93704 c 14.1726,-2.26499 15.79944,-6.77865 20.16229,-15.67482 2.46248,5.93512 13.43346,2.2203 20.91828,-5.672 5.87729,-6.19726 8.84685,-15.53893 8.97121,-20.97307 11.12347,9.88146 2.97842,30.90195 -12.46695,36.05829 9.59659,-2.61714 19.84732,-7.36729 22.37435,-19.42856 5.42374,9.3638 -3.60933,25.9406 -19.58311,28.26525 8.68302,1.86889 14.94198,-2.18385 19.84288,-10.25296 1.28361,13.72547 -12.53176,24.88442 -34.75809,21.40059 -7.87198,-1.23388 -15.18628,5.46441 -24.15522,3.86831"/>
    <g id="front-left">
      <use xlink:href="#hoof" transform="rotate(-42.21843,243.02931,284.76741)"/>
      <path d="m 185.49452,262.18865 c -13.99507,11.26084 -17.37434,16.22029 -15.3811,35.79547 1.09122,10.71676 6.0522,15.69956 6.35252,25.41897 0.30926,10.00892 -11.54764,2.76231 -14.7342,2.27162 -6.34389,-0.97692 -32.94361,-10.86869 -42.7901,-2.79969 -12.76049,10.45697 -11.27522,20.85408 -10.45518,24.44553 4.39429,19.24523 5.57369,13.25409 1.50185,38.05017 -1.93118,11.7602 4.58044,17.41864 11.84899,21.52447 6.56168,3.70653 5.48251,18.11717 10.37256,23.62321 2.21029,2.48872 7.07212,3.39771 9.6603,7.11281 6.33496,-9.70424 15.55988,-30.06781 8.45626,-35.25145 -4.16384,-2.10412 -0.93988,-8.46847 6.88413,-8.36803 -2.0342,-5.77715 -9.17532,-5.13625 -11.99154,-9.58474 3.35301,-1.51007 3.67872,-0.69723 9.62706,0.20474 -5.14261,-7.51472 -9.6055,-5.28842 -11.45774,-7.76801 -3.29613,-4.41251 0.8243,-4.21992 3.32254,-5.33242 -0.61644,-8.13658 -5.68871,-4.30379 -9.25209,-10.81714 -7.25844,-13.26742 7.14077,-9.36833 10.70053,-9.02694 8.20643,0.78705 19.82621,5.14674 26.65188,9.68833 10.37703,6.90455 38.6766,16.42556 45.20479,9.84322 9.20999,-9.28637 16.76958,-19.09597 17.87649,-27.19298"/>
    </g>
    <g id="rear-left">
      <use xlink:href="#hoof" transform="rotate(44.084046,-67.073684,797.1573)"/>
      <path d="m 385.06802,381.70465 c -8.91576,11.82305 -18.80718,28.93146 -14.82729,45.06331 4.35666,17.65899 19.0761,25.88114 34.74237,41.57457 5.8522,5.86233 14.42906,5.40857 20.49656,11.04777 2.78929,2.59241 6.7411,9.03862 5.52388,12.64681 -1.82451,5.40839 -5.73157,9.1824 -10.03022,12.93754 -4.23183,3.69678 -10.4494,6.47959 -14.68192,10.17558 -2.77481,2.42309 -3.56525,5.31209 -6.68682,7.26829 -4.54628,2.84899 -10.35256,3.93119 -15.11801,6.39608 -3.84664,1.98964 -6.94675,6.23225 -10.90244,7.9951 -5.24277,2.33647 -10.63451,-1.33553 -15.118,4.50634 -2.02653,2.64052 -2.00101,7.58652 -5.16049,10.82974 10.72598,4.38835 24.07469,3.37358 36.3414,1.59901 1.98667,-0.53261 3.17382,-1.38317 5.59658,-4.28828 4.20484,4.45254 7.90733,6.39335 11.3385,6.97755 -0.75308,-4.41077 0.8144,-7.2745 2.32586,-10.1756 2.71026,3.88128 6.81223,5.67497 11.04778,7.26829 -0.35951,-6.58142 0.84555,-11.15128 3.19805,-14.24584 3.14958,0.72684 2.77366,3.27904 6.25071,4.94244 -0.0707,-4.1875 2.08284,-5.71122 2.03513,-9.15802 -0.039,-2.82514 -1.37214,-6.83851 -0.29074,-9.44878 1.92912,-4.65648 5.17141,-8.2545 9.15804,-11.33851 6.48466,-5.01645 16.96993,-5.89803 20.6419,-13.22827 4.91303,-9.80772 11.70455,-13.33232 10.1756,-20.49653 -2.41952,-11.33714 -14.42634,-15.4417 -19.479,-25.87508 -2.63545,-5.44206 -5.38029,-12.98834 -2.03511,-18.02532 10.09031,-15.19348 28.43726,-24.86202 30.57665,-51.58591 1.26612,-15.81528 -7.98586,-27.05148 -16.86377,-40.20095 -6.75075,-9.99886 -16.80741,-18.51104 -27.85841,-23.35103 -14.64577,-6.41438 -27.77283,-5.23517 -40.80463,-3.5797"/>
    </g>
    <path id="head" d="m 251.16629,179.53391 c -9.12943,16.0417 -21.15644,11.1295 -30.58976,10.6086 -6.2896,-0.34731 -8.29116,-0.69298 -17.61341,-2.45577 -7.63806,-1.44432 -15.71531,-5.28414 -26.13142,-5.50347 -12.09473,-0.25469 -19.52331,-6.73281 -14.72183,-8.9681 3.81343,-1.77531 21.53703,-5.42025 27.4128,-3.19156 12.61488,4.78485 8.57673,-2.87972 1.77048,-5.05347 -5.45107,-1.74094 -11.3196,-0.026 -16.76633,0.97316 -13.67239,2.50821 -14.5957,4.05343 -17.27858,-3.88596 -1.79153,-5.30165 -0.98318,-6.64652 1.01172,-10.89866 0.58907,-1.25561 5.53113,-6.4467 13.48569,-8.86201 9.25935,-2.81151 12.54158,-12.24265 20.2528,-17.77872 17.63173,-12.65823 17.56326,-11.76893 37.00539,-12.12569 13.19043,-0.24204 3.76627,-3.24642 12.22989,-4.35917"/>
    <path id="nose" style="fill:#777777;stroke:none;" d="m 175.9865,153.27516 c 0.97367,-0.69489 1.8962,-1.79216 0.2367,-2.45351 -1.32473,-0.52795 -4.32178,-0.077 -6.32714,0.27326 -1.93712,0.33837 -3.99188,2.25911 -6.01291,1.96009 -2.37406,-0.35126 -0.39801,-2.33239 2.70794,-3.11863 4.33283,-1.09681 4.86452,-1.25949 9.563,-1.26414 5.90815,-0.006 4.95769,4.65078 -0.65935,8.48504 -4.10124,2.79956 -5.22064,0.34224 -3.18122,-1.11324 1.06996,-0.76361 2.60302,-2.00526 3.67298,-2.76887 z"/>
    <g id="eye">
      <path style="fill:#ffffff;" d="m 222.48215,130.00547 c 0.0348,2.88686 4.0473,7.66253 8.95401,7.72101 4.91718,-0.0473 8.93054,-4.98972 9.00165,-7.86612 -0.12985,-3.00307 -4.14763,-2.3328 -9.06482,-2.28551 -4.92764,0.15313 -8.91502,-0.56199 -8.89084,2.43062 z"/>
      <path style="fill:#777777;stroke:none;" d="m 227.08422,132.06287 a 3.8577522,4.0267281 5.6524808 0 0 3.40952,4.39561 3.8577522,4.0267281 5.6524808 0 0 4.20501,-3.64197 3.8577522,4.0267281 5.6524808 0 0 -3.40949,-4.3956 3.8577522,4.0267281 5.6524808 0 0 -4.20504,3.64196 z"/>
      <path style="fill:#000000;stroke:none;" d="m 231.18567,130.54653 c 0.9518,0.0942 1.83036,0.92872 1.71521,2.09204 -0.11516,1.16333 -1.14022,1.80943 -2.09205,1.71522 -1.16332,-0.11516 -2.04186,-0.94964 -1.92672,-2.11297 0.11517,-1.16334 1.14023,-1.80944 2.30356,-1.69429 z"/>
      <path style="fill:#ffffff;stroke:none;" d="m 230.07467,129.9026 c 0.63455,0.0629 1.20628,0.76016 1.13301,1.50045 -0.0836,0.84606 -0.77061,1.31206 -1.40517,1.24924 -0.84605,-0.0836 -1.42826,-0.67532 -1.34453,-1.52139 0.0733,-0.7403 0.77063,-1.31203 1.61669,-1.2283 z"/>
    </g>
    <path id="beard" style="fill:#bbbbbb;" d="m 164.37022,179.04173 c 6.87627,7.38662 -0.3557,13.36991 -2.8368,23.21795 -1.05969,4.20615 -0.27409,8.26289 0.65929,12.49994 1.44757,6.57122 -6.53294,11.37782 -4.45831,22.82847 0.71767,-8.42355 5.68631,-14.62351 4.74332,-9.72317 -2.01062,10.4484 -3.45782,21.78898 0.36858,29.49406 -0.54953,-12.97879 3.34742,-17.92354 3.81864,-27.09541 4.47641,2.56939 -0.0883,17.87798 2.96385,21.13309 -0.0543,-10.08313 5.85674,-9.60384 4.93909,-21.88225 -0.43755,-5.85453 -2.17359,-21.80971 3.6794,-16.0693 1.53887,-4.0042 -0.59375,-8.81425 -0.62725,-14.15027 -0.0345,-5.49333 2.08975,-7.83233 3.34569,-4.05565 5.31227,-2.56809 3.88061,-10.79821 12.39404,-10.84984 1.92956,-0.0117 -33.95519,-10.68181 -28.98954,-5.34762 z"/>
    <g id="mane">
      <path style="fill:#bbbbbb;" d="m 275.70712,124.82631 c 2.39404,7.14668 1.84282,37.86533 -21.96315,36.49068 -25.00545,14.22204 -12.36322,27.88312 -45.66106,26.55884 -3.24053,31.16644 -28.8267,40.13708 -29.90885,51.63011 14.19217,-3.2203 -11.34948,29.43203 -16.55789,48.36903 20.78823,-7.70774 -3.57779,20.9235 -7.4165,37.28223 -3.11776,13.28637 0.77347,19.14499 -7.72166,38.2904 21.21896,-8.04329 21.02164,-31.79314 35.15865,-36.72737 3.14558,16.91457 -17.36082,28.9327 -12.64591,50.84719 15.08134,-23.43996 18.81866,-7.47192 33.57991,-29.80693 -2.53039,13.43736 -0.44882,41.9606 9.98704,51.91746 -3.68684,-21.7646 11.60837,-20.74163 11.3324,-37.61624 10.38943,11.01346 14.97793,21.96188 11.76352,40.13932 16.04724,-13.48015 14.28446,-28.52031 28.2145,-37.61797 11.83258,8.55594 -5.07266,21.36791 5.61755,35.97156 3.21034,-16.34149 14.06385,-18.43113 16.79773,-34.66008 10.08052,10.79001 -3.35657,16.57572 13.63059,36.62183 2.40383,-27.27646 15.42612,-36.9607 17.50375,-19.834 10.7413,-4.09788 9.4827,-25.28391 4.52208,-36.94984 -4.70041,-11.05397 0.43957,-18.89748 6.97091,-15.4635 2.68851,1.41353 5.67491,3.39304 7.69103,11.15142 6.10896,-10.84939 -13.29925,-33.85231 -5.20162,-36.05139 5.58539,-1.51683 8.53461,9.67813 17.35128,9.45106 -7.81913,-6.68892 -8.8396,-27.52622 -14.04031,-32.67064 -9.97186,-9.86393 -25.1104,-66.5743 -7.1318,-44.03584 7.40713,-7.93319 0.12627,-21.85122 -1.08925,-28.5062 -1.4165,-7.75538 -9.61929,-26.14785 -0.90177,-24.42686 5.98158,1.18087 6.55842,4.44501 13.80236,0.5149 -12.85826,-6.10828 -18.5306,-16.69125 -17.00448,-29.21973 0.86764,-7.12276 -0.47585,-14.91701 -9.43738,-22.92809 -9.26357,-8.28108 -7.27465,-23.77534 -0.25642,-18.20279 -2.53773,-10.83616 -18.71394,-10.83037 -35.05639,-15.04018 -11.53908,-2.972467 -11.89,-9.981467 -25.45372,-6.676817 7.74264,6.490407 -21.08143,8.397457 -24.16309,10.091697 -6.28524,-0.0767 -20.23218,1.95253 -8.697,9.82043 8.05715,5.4956 24.03643,0.56856 41.06612,5.74684 0.40986,-6.50036 15.76139,0.83492 15.31879,5.53947 z"/>
      <path style="fill:#bbbbbb;" d="m 270.4459,190.47826 c -6.59712,19.65021 14.19775,39.38275 -3.70782,59.32506 30.40678,-9.64536 9.27561,-33.66266 30.4041,-63.77444 m -60.80819,109.75136 c 2.44216,17.48016 -6.65169,32.68806 1.55848,48.24555 2.79481,-24.89574 22.33661,-25.62929 26.12655,-49.72868 m -44.98817,-67.23506 c -8.35939,18.00816 5.03967,28.85991 -4.44938,49.93192 24.17585,-9.81377 8.19124,-33.28735 25.70752,-51.90943"/>
    </g>
    <g id="ear">
      <path d="m 260.38833,119.28683 c -0.65795,-14.29306 16.40127,-18.87422 27.01992,-30.196609 4.2955,-4.514902 8.55,10.674918 5.02837,20.096419 -3.41041,9.1239 -8.64871,14.23748 -16.7295,15.63967"/>
      <path style="fill:#777777;stroke:none;" d="m 267.29467,117.04549 c -0.62733,-0.10567 -0.67087,-1.08182 -0.86036,-1.6938 -0.1822,-0.58839 -0.27739,-1.21183 -0.23258,-1.82542 0.067,-0.91584 0.40458,-1.80097 0.94523,-2.54862 0.3022,-0.41792 0.62891,-0.82088 1.00357,-1.17217 0.64121,-0.6012 1.38033,-1.10646 2.16851,-1.49474 0.74783,-0.36844 1.5355,-0.65873 2.34605,-0.86181 0.59146,-0.14812 1.20076,-0.24303 1.8081,-0.28472 0.54292,-0.0373 1.05988,0.17427 1.57577,0.3171 0.52232,0.14454 1.24763,0.0505 1.54636,0.50274 0.2151,0.32565 -0.14651,0.92443 -0.51711,1.04978 -1.2057,0.40773 -2.52972,0.28311 -3.79167,0.4465 -0.85116,0.11015 -1.72958,0.23056 -2.48093,0.68031 -0.40209,0.24068 -0.74568,0.56595 -1.00189,0.96074 -0.58462,0.90091 -0.69302,2.00786 -0.72826,3.05409 -0.0161,0.47258 0.10262,0.95929 0.009,1.41876 -0.14042,0.68756 -0.31502,1.41047 -0.73995,1.96835 -0.13862,0.18205 -0.45968,0.096 -0.66257,0.009 -0.20015,-0.0858 -0.17248,-0.48996 -0.38715,-0.5261 z m 4.00965,4.71311 c -0.53661,-0.57897 -0.8492,-1.48229 -0.43212,-2.2195 0.61004,-1.07831 1.78494,-1.62788 2.81747,-2.21735 0.5552,-0.31697 1.25446,-0.45983 1.68534,-0.92523 1.59339,-1.72098 2.73054,-3.83094 3.69327,-5.97013 1.0437,-2.3191 1.66186,-4.80521 2.04634,-7.3139 0.13558,-0.88463 0.0774,-1.79892 0.29382,-2.66651 0.0663,-0.26634 0.37449,-0.64896 0.6526,-0.585701 0.26867,0.06107 0.61858,0.02113 0.67883,0.408911 0.29592,1.90442 0.48449,3.82668 0.42666,5.7472 -0.0845,2.80585 -0.60248,5.60847 -1.62778,8.2305 -0.71394,1.82571 -1.69193,3.58867 -3.09497,4.96779 -0.93338,0.91747 -2.02438,1.68032 -3.24862,2.1601 -1.1598,0.45451 -2.40521,0.74312 -3.64645,0.67374 -0.12627,-0.007 -0.15851,-0.19722 -0.24439,-0.28992 z"/>
    </g>
    <g id="horn">
      <path d="m 195.66515,18.702161 c -0.5957,0.309764 0.47656,3.776736 0.83398,4.44392 -0.23828,0.845893 -0.47656,1.870497 0.83398,2.930842 -0.71484,1.644131 -0.5957,3.145294 1.31053,4.015016 -0.5957,3.145294 1.1914,3.705252 1.7871,4.908565 -0.35742,2.108777 -0.11914,3.979274 2.26366,5.671061 -1.07226,3.824391 1.07226,4.860909 3.09764,5.96891 -0.5957,3.085724 -0.11914,5.551921 2.85936,6.874374 -0.47656,3.264434 0.71484,5.587663 3.09764,7.231794 -0.5957,3.264434 1.31054,5.337469 3.69333,7.16031 -0.5957,3.026154 -0.11914,5.420866 3.21678,7.589213 -0.95312,5.325555 2.14452,5.492351 3.81248,7.207966 -1.42968,5.825942 1.54882,5.825942 3.21678,7.470074 -1.7871,5.349382 1.42968,5.706802 3.5742,6.80289 -1.42968,4.670284 1.31054,5.337464 3.33591,6.445474 -3.87902,6.3005 6.48356,8.03933 17.75185,4.82516 0.71484,-0.19062 3.33592,-5.1945 -2.74021,-5.1945 0.47656,-2.16834 2.02537,-4.980047 -3.09764,-5.897425 -0.23828,-2.049206 1.31054,-4.908565 -3.93162,-6.135706 0.23828,-2.347057 1.7871,-5.218329 -3.5742,-6.790976 -0.47656,-2.287487 1.31054,-4.789425 -3.81248,-7.16031 -0.47656,-2.347056 0.5957,-4.717941 -4.28903,-6.898202 0.71484,-4.360521 -1.54882,-5.825942 -3.93162,-7.279449 0,-3.073811 -1.31054,-5.456609 -4.28904,-6.850546 0,-2.883187 -0.5957,-5.528093 -4.28904,-6.600353 0.5957,-3.204864 -0.47656,-5.349382 -3.45505,-6.56461 -0.23828,-2.037292 0,-4.336693 -3.69334,-5.647232 0.5957,-3.264434 -0.83398,-4.50349 -3.45506,-5.051533 0,-1.513078 0.5957,-3.324004 -2.9785,-4.277124 0.47656,-2.120691 -0.83398,-3.002326 -2.50194,-3.383574 -0.11914,-1.691787 -0.47656,-2.406626 -2.02538,-2.311315 -0.35742,-0.655269 -2.62107,-3.502713 -2.62107,-3.502714 z"/>
      <path style="fill:none;" d="m 197.33311,26.076923 5.48043,1.822841 m -4.1699,2.192175 7.1484,2.084949 m -5.3613,2.823616 8.81636,2.227917 m -6.5527,3.443144 10.24604,2.204088 m -7.1484,3.764822 10.60345,2.799788 m -7.74409,4.074586 12.03313,2.525767 m -8.93549,4.706027 13.22453,2.144519 m -9.5312,5.015791 13.46282,2.263658 m -10.24604,5.325555 14.53507,1.572647 m -10.72259,5.635319 14.53507,1.524991 m -11.31829,5.945083 14.89249,0.845893 m -11.31829,5.956997 15.24991,0.178709 m -11.914,6.266765 15.01164,-0.36934"/>
    </g>
  </g>
</defs>
<use xlink:href="#shield" fill="#000000"/>
<g id="maze" transform="translate(300,300)scale(0.7)translate(-300,-300)" style="fill:none;stroke:#eeeeee;stroke-width:6;stroke-linecap:round;stroke-linejoin:round;">
  <path d="m 300,400 c -55.22847,0 -100,-44.77153 -100,-100 0,-55.22847 44.77153,-100 100,-100 55.22847,0 100,44.77153 100,100 v 0 c 0,47.51039 -33.45174,88.46201 -80,97.975 v 40.586 C 388.87187,428.61091 440,369.58692 440,300 v 0 0 c 0,-77.31986 -62.68014,-140 -140,-140 -77.31986,0 -140,62.68014 -140,140 0,61.90709 40.6757,116.46411 100,134.15915"/>
  <path d="M 340.04114,413.12253 C 387.96545,396.15912 420,350.83794 420,300 v 0 0 c 0,-66.27417 -53.72583,-120 -120,-120 -66.27417,0 -120,53.72583 -120,120 0,58.54847 42.27213,108.41937 100,118.18751 V 458.742 C 200.00975,448.65289 140,380.62395 140,300 c 0,-88.36556 71.63444,-160 160,-160 88.36556,0 160,71.63444 160,160 v 0 0 c 0,88.36556 -71.63444,160 -160,160 V 320 c -11.04569,0 -20,-8.95431 -20,-20 0,-11.04569 8.95431,-20 20,-20 11.04569,0 20,8.95431 20,20 v 56.562 c 23.96271,-8.48139 40,-31.14261 40,-56.562 v 0 c 0,-33.13708 -26.86292,-60 -60,-60 -33.13708,0 -60,26.86292 -60,60 0,17.05312 7.30058,33.30061 20,44.68188"/>
  <path d="m 300,380 c 44.18278,0 80,-35.81722 80,-80 v 0 c 0,-44.18278 -35.81722,-80 -80,-80 -44.18278,0 -80,35.81722 -80,80 0,36.47035 24.69065,68.32413 60,77.453 V 334.631 C 267.63418,327.48295 260,314.28314 260,300 c 0,-22.09139 17.90861,-40 40,-40 22.09139,0 40,17.90861 40,40 0,10.58583 -1.26299,15.3066 -3.55929,23.50446"/>
</g>
<g transform="translate(2,-7)">
  <use xlink:href="#unicorn" transform="rotate(-3,300,300)rotate(3,300,500)"/>
  <use xlink:href="#unicorn" transform="rotate(38,300,300)rotate(-38,300,500)"/>
  <use xlink:href="#unicorn" transform="rotate(82,300,300)rotate(-82,300,500)"/>
  <use xlink:href="#unicorn" transform="rotate(120,300,300)rotate(-120,300,500)"/>
  <use xlink:href="#unicorn" transform="rotate(160,300,300)rotate(-160,300,500)"/>
  <use xlink:href="#unicorn" transform="rotate(-42,300,300)rotate(42,300,500)"/>
  <use xlink:href="#unicorn" transform="rotate(-78,300,300)rotate(78,300,500)"/>
  <use xlink:href="#unicorn" transform="rotate(-120,300,300)rotate(120,300,500)"/>
  <use xlink:href="#unicorn" transform="rotate(-160,300,300)rotate(160,300,500)"/>
</g>
<use id="shine" xlink:href="#shield" fill="url(#rg)" stroke="#000" stroke-width="3"/>
</svg>
