<?xml version="1.0" encoding="UTF-8"?>
<svg xmlns="http://www.w3.org/2000/svg" xmlns:xlink="http://www.w3.org/1999/xlink" width="600" height="660">
<defs>
  <radialGradient id="rg" gradientUnits="userSpaceOnUse" cx="220" cy="220" r="405">
    <stop style="stop-color:#ffffff;stop-opacity:.3" offset="0"/>
    <stop style="stop-color:#ffffff;stop-opacity:.2" offset=".2"/>
    <stop style="stop-color:#666666;stop-opacity:.1" offset=".6"/>
    <stop style="stop-color:#000000;stop-opacity:.13" offset="1"/>
  </radialGradient>
  <pattern id="vair" patternUnits="userSpaceOnUse" x="0" width="150" height="264">
    <rect style="fill:#ffffff;" width="150" height="264"/>
    <path style="fill:#0000aa;" d="m75,0 l37.5,37.5 v57 l37.5,37.5 v132 h-75 l37.5,-37.5 v-57 l37.5,-37.5 H0 l37.5,37.5 v57 l37.5,37.5 H0 v-132 l37.5,-37.5 v-57z"/>
  </pattern>
  <path id="shield" d="m2,2v257c0,286 298,398 298,398c0,0 298-112 298-398V2z"/>
</defs>
<use xlink:href="#shield" style="fill:url(#vair);"/>
<g style="fill:#ffcc00;stroke:#0000aa;stroke-width:2;stroke-linecap:round;stroke-linejoin:round;">
  <path style="fill:#cc6600;" d="m 296.35721,362.1428 c 17.82657,0 17.00716,9.45359 30.19997,9.45359 14.85757,0 10.80615,-9.11635 25.32558,-9.11635 14.52032,0 51.51349,20.25796 51.51349,87.45468 0,58.75577 -13.84314,85.09397 -50.31122,110.75679 -29.7679,20.95034 -32.07763,-5.40218 -51.66199,-5.40218 -19.58615,0 -21.89587,26.35252 -51.66378,5.40218 -36.46897,-25.66282 -50.31391,-52.00102 -50.31391,-110.75679 0,-67.19583 24.31206,-87.45468 38.83237,-87.45468 14.51943,0 10.46802,9.11635 25.32558,9.11635 14.85577,0 13.50501,-9.45359 32.75391,-9.45359 z"/>
  <path d="m 167.06894,75.970325 c 4.74469,-4.662389 9.88209,-9.18344 15.33168,-13.65529 28.43771,-23.333415 39.97381,-36.878675 48.7887,-36.668456 0,0 -2.9878,15.939073 -16.9356,32.874674 -13.94602,16.935601 -78.69884,79.695367 -78.69884,163.375947 0,77.59139 44.5378,156.89762 98.67143,182.32071 0,0 2.86166,-14.50512 21.09168,-14.50512 18.23001,0 36.45823,30.62399 38.64541,37.1864 2.18717,6.56242 -5.83336,4.37524 -5.83336,13.85299 0,9.48043 -8.01963,43.02244 -26.9778,43.02244 -18.95818,0 -31.42283,-15.39609 -31.42283,-34.35426 -9.39276,-5.99437 -20.93065,-13.92187 -32.9677,-23.70913 -4.60335,-3.74279 -7.4185,-4.59172 -15.40056,3.04505 -7.09645,6.78784 -17.27642,27.76411 -17.27642,42.26386 0,23.75475 19.12635,41.03206 19.12635,56.45588 0,16.9687 -9.56183,28.99948 -17.89277,28.99948 -2.77668,0 3.39303,-13.88161 -12.3403,-33.31658 -15.73422,-19.43765 -35.32127,-63.30723 -18.81863,-102.42406 8.32915,-19.74449 26.27112,-28.97534 19.9225,-37.16225 -1.03231,-1.33109 -1.95638,-2.75521 -3.07009,-4.02726 -3.75442,-4.28399 -10.21038,-3.48248 -22.93713,7.03921 -12.01737,9.93754 -39.055112,13.17402 -52.459033,3.46637 -13.403922,-9.70585 -13.63561,-19.64161 -12.017371,-20.33488 1.618239,-0.69328 15.714542,10.86072 31.891565,3.003 25.494649,-12.38235 34.475019,-24.75217 29.139039,-39.29933 -0.69149,-1.88481 -1.38834,-3.7741 -2.02168,-5.68843 -4.8243,-14.60083 -8.91597,-29.80637 -12.28126,-45.29549 -0.7729,-3.55762 -2.2498,-5.45496 -13.428079,-10.51632 -11.177389,-5.06135 -35.009962,-15.18675 -35.009962,-51.67272 0,-20.88056 -2.109347,-38.59621 -4.218693,-42.6029 -2.108452,-4.00668 13.708962,-5.06135 21.301894,15.81831 7.592931,20.87967 1.631657,32.61526 17.505428,44.71135 4.428912,3.37513 7.994582,2.31509 7.687752,-4.85382 -0.86055,-20.12736 0.56446,-40.47834 5.64461,-60.4733 1.38028,-5.43707 3.48516,-9.64592 -8.24059,-18.06452 -11.723958,-8.41771 -41.517805,-33.61984 -38.783169,-66.444416 0.300569,-3.607716 10.131662,12.043316 24.653769,22.849466 12.92802,9.62087 34.87936,25.09657 40.44077,15.25385 2.17644,-3.85283 4.37882,-7.77006 6.97659,-11.50301 2.19075,-3.14971 4.29652,-9.16286 -3.82062,-16.378295 -8.11982,-7.214537 -60.595853,-51.221873 -52.616477,-75.162686 1.202274,-3.607716 5.110558,10.222905 31.268957,24.3532 26.15661,14.130295 37.88236,23.150927 42.99381,26.458075 5.11056,3.306252 9.53232,6.532891 14.38703,1.762261 z"/>
  <path d="m 252.40176,462.62927 c 0,0 -9.13245,-4.56667 -22.67324,-13.20891 m 4.49779,-45.20245 c 4.24643,1.99484 8.55368,3.6587 12.90208,4.96206"/>
  <path d="m 461.63944,95.730911 c -8.46333,-9.251425 -16.59478,-17.441021 -24.77811,-23.752958 -21.94776,-16.931128 -37.62383,-26.33731 -48.28507,-39.50686 -10.66123,-13.169549 -15.05168,-17.558207 -16.30494,-15.67697 -2.1997,3.299991 -3.1345,31.354835 33.23607,62.708776 36.37057,31.354831 62.07991,70.860801 62.07991,134.823731 0,63.96383 -26.03317,128.97428 -114.12835,191.88791 0,0 -8.15202,-15.67697 -20.06831,-12.54158 -11.91539,3.1345 -26.06089,26.68261 -19.43855,43.89731 3.1345,8.15202 7.80673,8.93833 3.76337,15.67518 -1.88303,3.13629 -8.50895,15.90955 11.28652,23.82989 6.269,2.50921 10.65945,9.40708 18.81147,9.40708 8.15203,0 27.82674,-12.44676 20.30179,-40.6653 2.02705,-2.22922 4.40297,-4.56847 7.29058,-6.99359 3.84745,-3.232 12.20254,-9.52873 23.01585,-18.52521 4.24553,-3.53079 27.8652,-10.17371 33.77101,16.76921 5.90581,26.94292 -7.01327,56.10164 -15.13219,75.2924 -8.11893,19.19255 -4.49064,51.57432 15.87109,56.10164 3.32146,0.7371 -5.53637,-21.0398 5.90581,-39.12221 11.44038,-18.08509 31.00328,-62.74456 31.00328,-88.57913 0,-25.83726 -12.91819,-50.56438 -35.43219,-52.41162 -3.67749,-0.30057 2.44748,-5.33241 2.44748,-5.33241 5.96128,-6.7279 12.38593,-13.69286 17.6745,-21.84488 1.28457,-1.98143 5.34493,-5.30289 14.57131,7.61619 9.22638,12.91907 25.46691,35.06184 43.55201,31.74217 10.39555,-1.90986 20.51737,-12.66502 17.71654,-14.76364 -1.47601,-1.10745 -14.76364,-1.47779 -22.51401,-16.97853 -7.61619,-15.23149 -21.7769,-32.10984 -27.68182,-35.80075 -5.90402,-3.69001 -3.18996,-7.83804 -0.85608,-12.77684 8.68697,-18.3803 15.81384,-38.56669 18.99664,-60.73182 1.05199,-7.32099 27.62636,-12.11846 39.43709,-32.04811 12.36982,-20.8752 2.95112,-45.02802 0.73711,-45.02802 -2.21401,0 -3.26332,15.81384 -14.02474,26.57347 -8.48927,8.48927 -22.40219,18.45007 -22.8271,0.73532 -0.2621,-10.88666 -0.74606,-21.19365 -2.82141,-30.66961 -0.5573,-2.54589 13.48622,-9.17807 24.17161,-26.90535 16.23964,-26.94292 27.34278,-61.514552 11.81073,-86.365122 -1.84635,-2.952906 -5.53637,-0.369449 -5.53637,9.595826 0,18.085097 -7.75037,33.955286 -16.60819,47.612366 -8.85961,13.65619 -20.94318,25.49286 -25.14846,15.73959 -1.05735,-2.45285 11.49138,-19.43139 11.49138,-45.266859 0,-32.109835 -16.60641,-53.517286 -21.77511,-59.422204 -5.16781,-5.904917 -6.27437,-12.918181 -9.22638,-13.286735 -2.95201,-0.368554 -2.34819,18.982329 5.90581,44.290013 5.53458,16.975855 -2.74716,41.098265 -12.26158,30.698236 z"/>
  <path d="m 353.45985,406.21454 c -4.39045,3.13629 -3.13629,11.28831 -3.13629,11.28831 m -18.81147,38.87978 c 0,0 5.01395,13.79395 16.30315,10.03237 9.20938,-3.0683 11.32141,-10.72922 20.30179,-20.59699"/>
</g>
<use id="shine" xlink:href="#shield" style="fill:url(#rg);stroke:#000000;stroke-width:3;"/>
</svg>
