<?xml version="1.0" encoding="UTF-8" standalone="no"?>
<!-- Created with Inkscape (http://www.inkscape.org/) -->

<svg
   xmlns:dc="http://purl.org/dc/elements/1.1/"
   xmlns:cc="http://creativecommons.org/ns#"
   xmlns:rdf="http://www.w3.org/1999/02/22-rdf-syntax-ns#"
   xmlns:svg="http://www.w3.org/2000/svg"
   xmlns="http://www.w3.org/2000/svg"
   xmlns:xlink="http://www.w3.org/1999/xlink"
   xmlns:sodipodi="http://sodipodi.sourceforge.net/DTD/sodipodi-0.dtd"
   xmlns:inkscape="http://www.inkscape.org/namespaces/inkscape"
   width="158.48541mm"
   height="174.12294mm"
   viewBox="0 0 158.48541 174.12294"
   version="1.1"
   id="svg8"
   inkscape:version="0.92.5 (2060ec1f9f, 2020-04-08)"
   sodipodi:docname="House Lorch.svg">
  <defs
     id="defs2">
    <clipPath
       clipPathUnits="userSpaceOnUse"
       id="clipPath828">
      <ellipse
         style="opacity:1;fill:#282828;fill-opacity:1;fill-rule:evenodd;stroke:none;stroke-width:1;stroke-linejoin:round;stroke-miterlimit:4;stroke-dasharray:none;stroke-opacity:1"
         id="ellipse830"
         cx="52.018974"
         cy="138.20276"
         rx="16.6782"
         ry="19.135044" />
    </clipPath>
    <radialGradient
       id="rg"
       gradientUnits="userSpaceOnUse"
       cx="220"
       cy="220"
       r="405">
      <stop
         style="stop-color:#fff;stop-opacity:.3"
         offset="0"
         id="stop3024" />
      <stop
         style="stop-color:#fff;stop-opacity:.2"
         offset=".2"
         id="stop3026" />
      <stop
         style="stop-color:#666;stop-opacity:.1"
         offset=".6"
         id="stop3028" />
      <stop
         style="stop-color:#000;stop-opacity:.13"
         offset="1"
         id="stop3030" />
    </radialGradient>
    <clipPath
       id="clip-shield">
      <path
         id="shield"
         d="m 2,2 v 257 c 0,286 298,398 298,398 0,0 298,-112 298,-398 V 2 Z"
         inkscape:connector-curvature="0" />
    </clipPath>
    <radialGradient
       id="rg-9"
       gradientUnits="userSpaceOnUse"
       cx="220"
       cy="220"
       r="405">
      <stop
         style="stop-color:#fff;stop-opacity:.3"
         offset="0"
         id="stop2609" />
      <stop
         style="stop-color:#fff;stop-opacity:.2"
         offset=".2"
         id="stop2611" />
      <stop
         style="stop-color:#666;stop-opacity:.1"
         offset=".6"
         id="stop2613" />
      <stop
         style="stop-color:#000;stop-opacity:.13"
         offset="1"
         id="stop2615" />
    </radialGradient>
    <circle
       id="shield-2"
       cx="300"
       cy="300"
       r="298" />
    <path
       style="fill:none;stroke:#ffffff;stroke-width:5;stroke-linecap:round"
       inkscape:connector-curvature="0"
       id="tail2"
       d="m 110,300 a 400,400 0 0 1 390,0" />
    <path
       style="fill:none;stroke:#ffffff;stroke-width:5;stroke-linecap:round"
       inkscape:connector-curvature="0"
       id="tail3"
       d="m 120,300 a 400,400 0 0 1 380,0" />
    <path
       style="fill:none;stroke:#ffffff;stroke-width:5;stroke-linecap:round"
       inkscape:connector-curvature="0"
       id="tail4"
       d="m 130,300 a 400,400 0 0 1 370,0" />
    <radialGradient
       r="405"
       cy="220"
       cx="220"
       gradientUnits="userSpaceOnUse"
       id="rg-8">
      <stop
         id="stop955"
         offset="0"
         style="stop-color:#fff;stop-opacity:.3" />
      <stop
         id="stop957"
         offset=".2"
         style="stop-color:#fff;stop-opacity:.2" />
      <stop
         id="stop959"
         offset=".6"
         style="stop-color:#666;stop-opacity:.1" />
      <stop
         id="stop961"
         offset="1"
         style="stop-color:#000;stop-opacity:.13" />
    </radialGradient>
    <path
       d="m 2,2 v 257 c 0,286 298,398 298,398 0,0 298,-112 298,-398 V 2 Z"
       id="shield-0"
       inkscape:connector-curvature="0" />
  </defs>
  <sodipodi:namedview
     id="base"
     pagecolor="#ffffff"
     bordercolor="#666666"
     borderopacity="1.0"
     inkscape:pageopacity="0.0"
     inkscape:pageshadow="2"
     inkscape:zoom="0.49497475"
     inkscape:cx="359.12846"
     inkscape:cy="109.45981"
     inkscape:document-units="mm"
     inkscape:current-layer="layer1"
     showgrid="false"
     inkscape:window-width="1920"
     inkscape:window-height="1001"
     inkscape:window-x="-9"
     inkscape:window-y="-9"
     inkscape:window-maximized="1"
     inkscape:pagecheckerboard="false" />
  <metadata
     id="metadata5">
    <rdf:RDF>
      <cc:Work
         rdf:about="">
        <dc:format>image/svg+xml</dc:format>
        <dc:type
           rdf:resource="http://purl.org/dc/dcmitype/StillImage" />
        <dc:title></dc:title>
      </cc:Work>
    </rdf:RDF>
  </metadata>
  <g
     inkscape:label="Layer 1"
     inkscape:groupmode="layer"
     id="layer1"
     transform="translate(682.0689,-90.057414)">
    <use
       height="100%"
       width="100%"
       y="0"
       x="0"
       style="fill:#ffffff"
       id="background-6"
       xlink:href="#shield-0"
       transform="matrix(0.26458333,0,0,0.26458333,-682.20119,89.925122)" />
    <path
       style="fill:#aa0000;stroke-width:0.26458332"
       inkscape:connector-curvature="0"
       id="chief"
       d="m -681.67202,90.454289 v 52.387501 h 157.69166 V 90.454289 Z" />
    <g
       id="g953"
       transform="translate(-112.89693,-175.23314)">
      <circle
         r="20.613165"
         cy="291.8869"
         cx="-539.1134"
         id="path941"
         style="opacity:1;fill:#000000;fill-opacity:1;fill-rule:evenodd;stroke:none;stroke-width:1.04931974;stroke-linejoin:round;stroke-miterlimit:4;stroke-dasharray:none;stroke-opacity:1" />
      <circle
         style="opacity:1;fill:#000000;fill-opacity:1;fill-rule:evenodd;stroke:none;stroke-width:1.04931974;stroke-linejoin:round;stroke-miterlimit:4;stroke-dasharray:none;stroke-opacity:1"
         id="circle945"
         cx="-489.88873"
         cy="291.87546"
         r="20.613165" />
      <circle
         r="20.613165"
         cy="291.88687"
         cx="-440.74512"
         id="circle947"
         style="opacity:1;fill:#000000;fill-opacity:1;fill-rule:evenodd;stroke:none;stroke-width:1.04931974;stroke-linejoin:round;stroke-miterlimit:4;stroke-dasharray:none;stroke-opacity:1" />
      <path
         sodipodi:nodetypes="cccsscscccssccsccccccccsccccsscsscccccsscscccssccccccccccccccscsscsscscccsscscccsccccccsccccccccscssccscs"
         inkscape:connector-curvature="0"
         id="path933"
         d="m -533.82055,311.49217 c 2.79278,-0.73359 6.3082,-2.68719 8.47236,-4.70828 4.38654,-4.09654 6.53268,-9.04436 6.51705,-15.02476 -0.0296,-11.31314 -8.84245,-20.10833 -20.14879,-20.10833 -9.34318,0 -17.03379,5.87751 -19.63261,15.00413 -0.83337,2.92666 -0.82851,7.56281 0.011,10.51319 2.15818,7.58447 8.42904,13.32115 16.06955,14.70065 1.84386,0.33291 6.83112,0.11731 8.71141,-0.3766 z m -6.31446,0.16823 c -0.0927,-0.14998 0.71946,-0.33117 1.97543,-0.44073 4.05256,-0.35351 7.38602,-1.61791 10.52396,-3.99181 3.28837,-2.4877 6.09073,-6.77617 7.08258,-10.83852 0.61907,-2.53557 0.6107,-7.08837 -0.0175,-9.525 -1.22335,-4.74491 -4.23522,-8.93307 -8.42672,-11.7178 -1.38521,-0.9203 -1.03269,-1.05416 0.46487,-0.17653 1.60947,0.94321 3.85594,3.01214 5.2755,4.85857 6.37128,8.28713 5.00985,20.54211 -3.02302,27.21187 -2.05149,1.70338 -5.819,3.60264 -8.20208,4.13482 -2.39118,0.53398 -5.46004,0.79734 -5.653,0.48513 z m -1.01119,-0.23826 c 0.19099,-0.0764 0.41919,-0.067 0.50711,0.0209 0.0879,0.0879 -0.0684,0.15045 -0.34726,0.13896 -0.30823,-0.0127 -0.37092,-0.0754 -0.15985,-0.15985 z m -8.58268,-8.21841 c -3.34673,-3.21569 -4.8982,-6.91086 -4.88529,-11.63538 0.018,-6.57743 4.21849,-12.34921 10.54677,-14.49192 2.10262,-0.71193 4.29372,-1.04183 4.29372,-0.64647 0,0.14912 -0.14883,0.2419 -0.33073,0.20619 -0.66238,-0.13004 -3.28699,0.65038 -5.15034,1.53144 -6.72837,3.18142 -10.18785,11.27001 -7.90658,18.48633 0.78013,2.46778 1.7729,4.13083 3.65203,6.11773 1.6987,1.79613 1.5351,2.11806 -0.21958,0.43208 z m 65.12083,8.28844 c 2.79278,-0.73359 6.30821,-2.68719 8.47236,-4.70828 4.38655,-4.09654 6.53268,-9.04436 6.51705,-15.02476 -0.0296,-11.31314 -8.84245,-20.10833 -20.14879,-20.10833 -9.34318,0 -17.03379,5.87751 -19.63261,15.00413 -0.83337,2.92666 -0.82851,7.56281 0.011,10.51319 2.15818,7.58447 8.42905,13.32115 16.06955,14.70065 1.84386,0.33291 6.83113,0.11731 8.71141,-0.3766 z m -6.31445,0.16823 c -0.0927,-0.14998 0.71945,-0.33117 1.97542,-0.44073 4.05256,-0.35351 7.38602,-1.61791 10.52396,-3.99181 3.28837,-2.4877 6.09073,-6.77617 7.08258,-10.83852 0.61907,-2.53557 0.6107,-7.08837 -0.0175,-9.525 -1.22335,-4.74491 -4.23522,-8.93307 -8.42672,-11.7178 -1.3852,-0.9203 -1.03269,-1.05416 0.46487,-0.17653 1.60947,0.94321 3.85595,3.01214 5.2755,4.85857 6.37128,8.28713 5.00985,20.54211 -3.02302,27.21187 -2.05149,1.70338 -5.819,3.60264 -8.20208,4.13482 -2.39117,0.53398 -5.46004,0.79734 -5.65299,0.48513 z m -1.0112,-0.23826 c 0.19099,-0.0764 0.4192,-0.067 0.50712,0.0209 0.0879,0.0879 -0.0684,0.15045 -0.34727,0.13896 -0.30823,-0.0127 -0.37092,-0.0754 -0.15985,-0.15985 z m -8.58268,-8.21841 c -3.34672,-3.21569 -4.8982,-6.91086 -4.88529,-11.63538 0.018,-6.57743 4.21849,-12.34921 10.54677,-14.49192 2.10262,-0.71193 4.29372,-1.04183 4.29372,-0.64647 0,0.14912 -0.14882,0.2419 -0.33073,0.20619 -0.66238,-0.13004 -3.28699,0.65038 -5.15034,1.53144 -6.72837,3.18142 -10.18785,11.27001 -7.90658,18.48633 0.78013,2.46778 1.7729,4.13083 3.65203,6.11773 1.6987,1.79613 1.5351,2.11806 -0.21958,0.43208 z m 65.12083,8.28844 c 2.79278,-0.73359 6.30821,-2.68719 8.47236,-4.70828 4.38655,-4.09654 6.53269,-9.04436 6.51706,-15.02476 -0.0296,-11.31314 -8.84246,-20.10833 -20.14879,-20.10833 -9.34319,0 -17.0338,5.87751 -19.63262,15.00413 -0.83337,2.92666 -0.8285,7.56281 0.011,10.51319 2.15818,7.58447 8.42904,13.32115 16.06955,14.70065 1.84385,0.33291 6.83112,0.11731 8.7114,-0.3766 z m -6.31445,0.16823 c -0.0927,-0.14998 0.71945,-0.33117 1.97543,-0.44073 4.05255,-0.35351 7.38601,-1.61791 10.52396,-3.99181 3.28836,-2.4877 6.09072,-6.77617 7.08257,-10.83852 0.61908,-2.53557 0.6107,-7.08837 -0.0175,-9.525 -1.22336,-4.74491 -4.23522,-8.93307 -8.42673,-11.7178 -1.3852,-0.9203 -1.03269,-1.05416 0.46487,-0.17653 1.60947,0.94321 3.85595,3.01214 5.27551,4.85857 6.37127,8.28713 5.00984,20.54211 -3.02302,27.21187 -2.0515,1.70338 -5.819,3.60264 -8.20209,4.13482 -2.39117,0.53398 -5.46003,0.79734 -5.65299,0.48513 z m -1.0112,-0.23826 c 0.19099,-0.0764 0.4192,-0.067 0.50712,0.0209 0.0879,0.0879 -0.0684,0.15045 -0.34727,0.13896 -0.30822,-0.0127 -0.37092,-0.0754 -0.15985,-0.15985 z m -8.58268,-8.21841 c -3.34672,-3.21569 -4.8982,-6.91086 -4.88529,-11.63538 0.018,-6.57743 4.2185,-12.34921 10.54678,-14.49192 2.10262,-0.71193 4.29372,-1.04183 4.29372,-0.64647 0,0.14912 -0.14883,0.2419 -0.33073,0.20619 -0.66239,-0.13004 -3.287,0.65038 -5.15034,1.53144 -6.72838,3.18142 -10.18786,11.27001 -7.90659,18.48633 0.78013,2.46778 1.77291,4.13083 3.65203,6.11773 1.69871,1.79613 1.5351,2.11806 -0.21958,0.43208 z"
         style="fill:#ffcc00;stroke-width:0.26458332" />
    </g>
    <g
       id="g851"
       transform="matrix(3.1199569,0,0,3.1199569,-620.08034,-265.25782)">
      <path
         sodipodi:nodetypes="cscsccscccccccscsccccccccccsccccccccccccccccccccccccccscccccccccccccsccccccccsssccsccccccccccscccccccccscccsccccscccsscccccsccccsscccscccscccsccccscsscccccccsccccscsccccsccccccscscscccccccscccc"
         style="fill:#2a2a2a;stroke-width:0.08466667"
         d="m -2.1816726,161.84842 c -0.144954,-0.31662 -0.220591,-0.62845 -0.220591,-0.90943 0,-0.27569 -0.04882,-0.48155 -0.137421,-0.57946 -0.176816,-0.19538 -0.348315,-0.92146 -0.456677,-1.93345 -0.04723,-0.44108 -0.121174,-0.91733 -0.16432,-1.05833 -0.04315,-0.141 -0.115348,-0.66746 -0.16045,-1.16991 -0.08714,-0.97074 -0.167076,-1.16079 -0.488254,-1.16079 -0.278601,0 -0.845815,-0.53319 -0.91032,-0.85571 -0.02999,-0.14994 0.0098,-0.49585 0.09276,-0.80736 0.221947,-0.83294 0.262409,-0.80297 -1.585317,-1.1743 -0.62865,-0.12634 -1.228344,-0.26975 -1.332655,-0.31869 -0.104309,-0.0489 -0.2652,-0.24504 -0.357536,-0.43578 -0.154805,-0.31979 -0.158597,-0.37972 -0.04868,-0.76931 0.164123,-0.58171 0.381505,-1.16392 0.477983,-1.28017 0.101451,-0.12224 1.144887,-0.62401 1.297634,-0.62401 0.0626,0 0.489512,-0.19717 0.948698,-0.43815 1.076908,-0.56515 2.311686,-1.00119 2.835192,-1.00119 0.245297,0 0.430905,-0.0442 0.471986,-0.11227 0.03724,-0.0617 0.305189,-0.27834 0.595446,-0.48132 0.448448,-0.31361 0.60419,-0.37459 1.036564,-0.40587 0.38199,-0.0276 0.563149,-0.001 0.72676,0.106 0.134936,0.0884 0.256083,0.11442 0.318103,0.0683 0.05509,-0.041 0.560291,-0.0811 1.122664,-0.0891 1.001323,-0.0143 1.030764,-0.009 1.421676,0.23853 0.368198,0.2335 0.416974,0.24403 0.628502,0.13564 0.352879,-0.18081 1.35314,-0.25083 1.938392,-0.13569 0.489438,0.0963 0.524995,0.0913 0.859563,-0.11987 0.191953,-0.12117 0.451201,-0.22032 0.576108,-0.22032 0.124907,0 0.414572,-0.12029 0.643698,-0.26732 0.307116,-0.19708 0.526632,-0.2712 0.835322,-0.28207 0.343032,-0.0121 0.468038,-0.0624 0.691486,-0.27871 0.336164,-0.32535 0.7997806,-0.52586 1.2225356,-0.52875 0.288443,-0.002 0.335169,-0.0346 0.470861,-0.32925 0.124769,-0.27089 0.13315,-0.36546 0.04879,-0.55059 -0.08687,-0.19067 -0.07713,-0.25664 0.06626,-0.44869 0.288405,-0.38629 0.585008,-0.55012 1.101804,-0.60859 0.272343,-0.0308 0.48935,-0.0928 0.482238,-0.13786 -0.0071,-0.045 -0.100609,-0.47284 -0.207772,-0.95074 -0.170923,-0.76225 -0.181999,-0.91693 -0.09023,-1.26005 0.05754,-0.21512 0.173067,-0.47816 0.256736,-0.58453 0.114565,-0.14564 0.140034,-0.28063 0.103159,-0.54676 -0.04361,-0.3147 -0.103915,-0.3919 -0.551142,-0.70556 -0.638943,-0.44811 -0.925069,-0.96937 -0.932241,-1.69833 -0.0055,-0.55581 -0.110469,-0.65827 -0.59758,-0.58314 -0.38954,0.0601 -2.0486346,-0.63302 -2.6669996,-1.11416 -0.06985,-0.0543 -0.231805,-0.14348 -0.359899,-0.19807 -0.219094,-0.0934 -0.244783,-0.0805 -0.433402,0.21646 -0.452086,0.71186 -1.508709,1.79796 -2.355485,2.42119 -0.480084,0.35335 -0.964891,0.71302 -1.077347,0.79927 l -0.204466,0.15681 0.282781,0.41656 c 0.155529,0.2291 0.65634,0.7785 1.112912,1.22088 0.489726,0.47451 0.882915,0.93342 0.958852,1.11912 0.260031,0.63589 0.08979,1.7454 -0.31982,2.08434 -0.234932,0.1944 -0.328505,0.0368 -0.267591,-0.45077 0.03081,-0.24661 0.03128,-0.52634 0.001,-0.62163 -0.09328,-0.29391 -0.550711,-0.38012 -1.664272,-0.31365 -0.957325,0.0571 -1.023627,0.0502 -1.469042,-0.15372 -0.356509,-0.16322 -0.528455,-0.30963 -0.729427,-0.62112 -0.250965,-0.38898 -0.261101,-0.43846 -0.222249,-1.0849 0.0234,-0.38927 0.113028,-0.85874 0.210756,-1.10389 0.102742,-0.25772 0.151557,-0.52328 0.123329,-0.67094 -0.03767,-0.19706 -7.62e-4,-0.28107 0.190756,-0.43375 0.234464,-0.18696 0.236046,-0.19446 0.124809,-0.59176 l -0.112666,-0.4024 0.303387,-0.2613 c 0.166862,-0.14371 0.426527,-0.50894 0.577031,-0.81163 0.452853,-0.91074 1.068287,-1.74819 1.625554,-2.21195 0.54791,-0.45598 1.579716,-1.00538 1.888151,-1.00538 0.09797,0 0.267613,-0.0952 0.376981,-0.21167 0.231066,-0.24595 0.394626,-0.26468 0.66397,-0.076 0.106506,0.0746 0.202715,0.12223 0.213798,0.10584 0.01108,-0.0164 0.08818,-0.13838 0.17134,-0.27108 0.125908,-0.20093 0.188872,-0.23158 0.376541,-0.18332 0.123943,0.0319 0.739701,0.0853 1.368351,0.11865 1.0550426,0.056 1.1876096,0.0822 1.7227016,0.33973 0.318836,0.15346 0.785964,0.46582 1.038063,0.69412 0.355984,0.32238 0.521418,0.41509 0.740676,0.41509 0.278763,0 0.562559,0.20625 0.562559,0.40884 0,0.0545 0.07408,0.0992 0.164613,0.0992 0.322955,0 0.582579,0.37533 1.020425,1.4752 0.268386,0.67418 0.547042,1.2244 0.725942,1.4334 0.159694,0.18657 0.290354,0.41865 0.290354,0.51573 0,0.0971 0.08047,0.32666 0.178827,0.51017 0.141826,0.26462 0.158945,0.36549 0.08273,0.48753 -0.06705,0.10735 -0.06992,0.20279 -0.0095,0.31569 0.105615,0.19734 0.112872,0.64072 0.01366,0.83468 -0.0413,0.0807 -0.03792,0.44468 0.0078,0.839 0.06894,0.59474 0.05562,0.80292 -0.09126,1.426 -0.09459,0.40127 -0.221923,0.7974 -0.282954,0.88029 -0.06103,0.0829 -0.272889,0.36349 -0.470797,0.62356 -0.326106,0.42853 -0.360081,0.51883 -0.362481,0.9633 -0.0018,0.33132 -0.0636,0.61408 -0.1905,0.87145 -0.255609,0.51843 -1.249876,1.69334 -1.432984,1.69334 -0.128532,0 -0.135037,0.029 -0.04894,0.21794 0.07627,0.1674 0.07585,0.25548 -0.0018,0.37985 -0.15263,0.2444 -0.126312,0.33955 0.174052,0.62926 0.733858,0.70783 1.248913,1.3274 1.249905,1.50354 5.93e-4,0.10472 0.208918,0.44861 0.462954,0.7642 0.254035,0.31558 0.507018,0.72444 0.562183,0.90856 0.103601,0.34579 0.140244,0.36975 0.709458,0.46385 0.654797,0.10825 0.940839,0.47156 0.502488,0.63823 -0.364151,0.13844 -0.70167,0.0942 -1.306822,-0.17143 -0.665903,-0.29227 -0.677333,-0.29452 -0.677333,-0.13357 0,0.0662 0.133367,0.16445 0.296371,0.21825 0.208554,0.0688 0.312829,0.16338 0.351915,0.31911 0.05788,0.23063 0.329389,0.56822 0.939214,1.16784 0.197908,0.19459 0.359833,0.41812 0.359833,0.49672 0,0.0786 0.111063,0.28355 0.246806,0.45544 0.135744,0.1719 0.382093,0.57043 0.547443,0.88562 0.439662,0.8381 0.868646,1.31921 1.234045,1.38399 0.58564,0.10384 1.083128,0.53081 0.968011,0.8308 -0.04107,0.10703 -0.196365,0.13313 -0.792215,0.13313 -0.633428,0 -0.78283,-0.0283 -1.028108,-0.19454 -0.15784,-0.107 -0.439382,-0.28139 -0.625648,-0.38754 -0.186267,-0.10615 -0.491067,-0.38564 -0.677334,-0.62109 -0.186266,-0.23545 -0.519641,-0.58138 -0.740833,-0.76872 -0.221192,-0.18734 -0.402167,-0.41161 -0.402167,-0.49838 0,-0.48528 -1.312533,-1.74947 -1.756035,-1.69135 -0.110145,0.0144 -0.259822,-0.0232 -0.332616,-0.0836 -0.174759,-0.14503 -0.60381,-0.30456 -1.398286,-0.51989 -0.585833,-0.15878 -0.685951,-0.16467 -1.005645,-0.0592 -0.345899,0.11416 -0.360108,0.11129 -0.551835,-0.11161 -0.222033,-0.25812 -0.289589,-0.28321 -0.289589,-0.10755 0,0.178 -0.4384706,0.46004 -0.9496056,0.61081 -0.246066,0.0726 -0.458468,0.14232 -0.472002,0.15496 -0.01353,0.0126 0.05068,0.15161 0.142687,0.30882 0.09201,0.15721 0.213296,0.47634 0.26952,0.70917 0.05622,0.23284 0.17299,0.57337 0.25948,0.75674 0.08649,0.18337 0.157254,0.41227 0.157254,0.50867 0,0.0964 0.08941,0.34642 0.198689,0.5556 0.1892736,0.3623 0.4381646,1.04633 0.7842676,2.15541 0.159083,0.50977 0.41801,0.81757 1.096022,1.30289 0.473599,0.33901 0.60498,0.94369 0.205037,0.94369 -0.400346,0 -1.395778,-0.51837 -1.838321,-0.95731 -0.2438186,-0.24183 -0.4438436,-0.4699 -0.4444996,-0.50682 -6.78e-4,-0.0369 -0.150361,-0.26552 -0.332675,-0.508 -0.37652,-0.50077 -0.93852,-1.58054 -0.93852,-1.80317 0,-0.0816 -0.05027,-0.20851 -0.111723,-0.28203 -0.06145,-0.0735 -0.184263,-0.36227 -0.272924,-0.64167 -0.08866,-0.2794 -0.228887,-0.59886 -0.311611,-0.70992 -0.08272,-0.11105 -0.150409,-0.28795 -0.150409,-0.3931 0,-0.20821 -0.119683,-0.28045 -0.631394,-0.38109 -0.250402,-0.0493 -0.437924,-0.0254 -0.742169,0.0946 -0.223909,0.0883 -0.682732,0.22296 -1.019605,0.29935 -0.336874,0.0764 -0.703362,0.21005 -0.814416,0.29704 -0.111055,0.087 -0.27298,0.15816 -0.359834,0.15816 -0.08685,0 -0.157503,0.01 -0.156999,0.0212 0.0034,0.0774 0.261505,0.83833 0.372503,1.09795 0.07402,0.17313 0.134581,0.41259 0.134581,0.53214 0,0.11955 0.05883,0.30715 0.130722,0.41687 0.0719,0.10973 0.221981,0.49529 0.333519,0.8568 0.191323,0.6201 0.240212,0.6922 0.864111,1.27426 l 0.661315,0.61697 -0.142494,0.23776 c -0.250297,0.41762 -0.345031,0.42775 -1.008867,0.10784 -0.382909,-0.18453 -0.703848,-0.41126 -0.864764,-0.61092 -0.140736,-0.17463 -0.307884,-0.3175 -0.371441,-0.3175 -0.121904,0 -0.28698,-0.33451 -0.220603,-0.44703 0.02142,-0.0363 -0.09962,-0.27478 -0.268977,-0.52993 -0.169359,-0.25515 -0.403369,-0.67239 -0.520022,-0.92719 -0.116653,-0.25481 -0.247737,-0.48531 -0.291298,-0.51223 -0.04356,-0.0269 -0.0792,-0.15184 -0.0792,-0.27759 0,-0.13694 -0.06791,-0.27104 -0.169333,-0.33438 -0.11135,-0.0695 -0.169334,-0.19745 -0.169334,-0.37354 0,-0.14728 -0.06297,-0.33737 -0.139943,-0.42242 -0.07697,-0.085 -0.205259,-0.34757 -0.285088,-0.58338 l -0.145145,-0.42874 -0.27236,0.34388 c -0.256165,0.32343 -0.298662,0.34388 -0.714729,0.34388 -0.257888,0 -0.510908,-0.0518 -0.606719,-0.12431 -0.09039,-0.0684 -0.225307,-0.12552 -0.299812,-0.127 -0.07451,-0.001 -0.299255,-0.12134 -0.499445,-0.26636 -0.356783,-0.25845 -0.369594,-0.26099 -0.647704,-0.12837 -0.156046,0.0744 -0.286612,0.18354 -0.290146,0.2425 -0.0304,0.50732 0.03922,1.32309 0.127952,1.49925 0.06933,0.13764 0.127427,0.74964 0.15934,1.67857 0.03844,1.11889 0.08092,1.50577 0.181012,1.64867 0.09366,0.13372 0.130787,0.39628 0.130787,0.92489 0,0.40599 -0.02857,0.75507 -0.0635,0.77573 -0.03493,0.0207 -0.221409,0.0637 -0.414409,0.0956 l -0.35091,0.058 z m 16.8032456,-9.8382 c -0.04663,-0.0815 -0.555431,-0.63948 -1.130661,-1.23997 -1.039776,-1.08543 -1.047672,-1.09146 -1.354476,-1.0339 -0.256528,0.0481 -0.347512,0.12712 -0.539198,0.46812 -0.179759,0.31978 -0.329753,0.45885 -0.680382,0.63081 -0.247382,0.12133 -0.449786,0.25409 -0.449786,0.29503 0,0.11165 0.889287,0.32832 1.608666,0.39193 0.887809,0.0785 1.419498,0.20153 1.862667,0.43099 0.477028,0.24699 0.807681,0.27457 0.68317,0.057 z"
         id="path838"
         inkscape:connector-curvature="0" />
      <path
         sodipodi:nodetypes="cccccccscccccccscccccccccscccsccccsccccccsccccccsccsccccccscccsccccccccccccccscccccccscccccsccccccccccccccscssccccccssccccssscccccccccccccsccscscccscccsscccccscccscscccscscccccccccsscccscssscccccscsccccccscccccccccccsccccccccccccccscscccscsscccccccccccccccccccccccccccsccccscsccccccccccccccccccccscccsccsccccccccccccccccccccsccccscccccccccsccscccccccccccscscsccccccccsssssccsscccscscccccscscsscccccccccccscccscscccccccscccccccscccccccccscscccccscccccccccccccccscccccccsccsssscsccccscccccccscscccccccccccscscscccsccsccccccccccsccccccccscccccccccsccccscccccccccccccccccccccscscsscccscccsssscsccccccsccsccccsccssssscccccccccccccccccccsccssssscscsccssccscccccccsccccscsssscscccccccccscccccccccccccccsccccccccccccscccccccssccccsscccccsscccccscscccccccscsscccccsscccccccccccscccssssscsccsccccccccsscsccccccccccccscscss"
         style="fill:#0d0a0a;stroke-width:0.08466667"
         d="m -2.0796006,161.74902 c -0.100677,-0.22469 -0.184376,-0.59237 -0.188407,-0.82764 -0.0043,-0.2498 -0.06681,-0.51087 -0.152533,-0.63689 -0.178012,-0.26169 -0.36681,-1.15546 -0.44514,-2.10729 -0.03223,-0.3917 -0.108271,-0.79175 -0.168971,-0.889 -0.06165,-0.0988 -0.129523,-0.55056 -0.153766,-1.02348 -0.05512,-1.07534 -0.14096,-1.26985 -0.612776,-1.38866 -0.441504,-0.11117 -0.802403,-0.50231 -0.802403,-0.86964 0,-0.1406 0.06118,-0.4661 0.135961,-0.72333 0.102023,-0.35095 0.11353,-0.51693 0.0461,-0.66492 -0.1003,-0.22014 -0.162427,-0.23966 -1.875392,-0.58932 -1.212973,-0.24759 -1.457323,-0.37966 -1.575789,-0.85166 -0.05953,-0.23721 0.328644,-1.41631 0.550988,-1.67365 0.228148,-0.26406 0.748636,-0.49014 1.682079,-0.73062 0.19852,-0.0512 0.489948,-0.20626 0.64762,-0.3447 0.391703,-0.34392 1.978185,-0.9265 2.523039,-0.9265 0.358973,0 0.472768,-0.0455 0.813539,-0.32556 0.638784,-0.5249 0.969217,-0.68773 1.436915,-0.70808 0.32351,-0.0141 0.474211,0.0215 0.609435,0.14388 0.137534,0.12446 0.213269,0.1416 0.323077,0.0731 0.197935,-0.12345 2.096715,-0.13915 2.329512,-0.0193 0.101522,0.0523 0.269695,0.17256 0.373718,0.26729 0.178383,0.16243 0.207259,0.16482 0.508,0.0419 0.638399,-0.26082 1.228361,-0.31759 1.886014,-0.18148 0.609139,0.12608 0.609962,0.126 0.937614,-0.0908 0.180368,-0.11936 0.430198,-0.21702 0.555177,-0.21702 0.12498,0 0.41902,-0.12307 0.653421,-0.27348 0.331215,-0.21254 0.530388,-0.27746 0.893812,-0.29134 0.394831,-0.0151 0.492537,-0.052 0.627638,-0.23751 0.238015,-0.32675 0.7450776,-0.55234 1.2414746,-0.55234 0.335709,0 0.438961,-0.0323 0.473367,-0.14817 0.0242,-0.0815 0.09627,-0.2509 0.16014,-0.37647 0.09003,-0.17698 0.09544,-0.29575 0.02408,-0.52827 -0.07891,-0.2571 -0.06893,-0.32553 0.06984,-0.47886 0.258136,-0.28524 0.587344,-0.41556 1.04975,-0.41556 0.321016,0 0.44375,-0.0353 0.483601,-0.13918 0.02937,-0.0765 -0.03345,-0.49946 -0.139613,-0.93982 -0.223672,-0.92781 -0.20346,-1.51784 0.06441,-1.88014 0.129721,-0.17546 0.174027,-0.35453 0.166751,-0.67396 -0.0092,-0.40469 -0.03102,-0.44757 -0.31292,-0.61544 -0.79074,-0.47086 -1.270267,-1.24775 -1.166157,-1.88931 0.0739,-0.45538 -0.115482,-0.63549 -0.668206,-0.63549 -0.308089,0 -0.639927,-0.0739 -0.9900316,-0.22056 -0.470094,-0.1969 -0.800123,-0.37374 -1.906271,-1.02145 -0.172523,-0.10102 -0.355909,-0.18674 -0.407524,-0.1905 -0.05162,-0.004 -0.237246,0.20915 -0.412511,0.47312 -0.442227,0.66605 -1.997762,2.19644 -2.711111,2.66729 -0.32604,0.21521 -0.663006,0.46886 -0.748811,0.56368 -0.152565,0.16858 -0.149921,0.18139 0.11979,0.58024 0.15169,0.22432 0.681855,0.8079 1.178144,1.29685 0.972172,0.9578 1.12367,1.24185 1.058267,1.98419 -0.03164,0.35915 -0.277691,0.97914 -0.388579,0.97914 -0.03737,0 -0.0792,-0.25681 -0.09297,-0.57069 -0.02363,-0.5388 -0.03923,-0.57784 -0.279035,-0.6985 -0.194961,-0.0981 -0.499994,-0.12228 -1.312333,-0.10401 -0.582083,0.0131 -1.182973,0.002 -1.33531,-0.0254 -0.324522,-0.0576 -0.818349,-0.465 -1.007911,-0.83157 -0.181069,-0.35015 -0.153334,-1.21282 0.05836,-1.81512 0.09251,-0.26321 0.168198,-0.59683 0.168198,-0.74139 0,-0.17772 0.07149,-0.32499 0.220778,-0.45479 0.229707,-0.19973 0.22762,-0.16633 0.05719,-0.91561 -0.0327,-0.14378 0.01106,-0.21256 0.185934,-0.29224 0.159177,-0.0725 0.332809,-0.31136 0.571149,-0.78563 0.855433,-1.70222 1.933237,-2.74687 3.240612,-3.14094 0.2794,-0.0842 0.560272,-0.22251 0.62416,-0.30731 0.142782,-0.18952 0.293381,-0.19486 0.560429,-0.0199 0.236801,0.15516 0.359403,0.10482 0.473109,-0.19425 0.07153,-0.18815 0.11267,-0.20552 0.354611,-0.14975 0.15053,0.0347 0.603795,0.0561 1.007256,0.0475 1.2351226,-0.0262 2.1901266,0.30845 3.0267086,1.06061 0.336952,0.30295 0.538905,0.41695 0.800515,0.45187 0.317181,0.0423 0.352265,0.0712 0.375428,0.30872 0.02017,0.20684 -0.05749,0.36397 -0.368732,0.74605 -0.563261,0.69146 -0.374788,0.70858 0.2632,0.0239 0.462021,-0.49583 0.560389,-0.56437 0.701535,-0.48883 0.103571,0.0554 0.33098,0.51186 0.616117,1.23661 0.296461,0.75354 0.561824,1.28172 0.771307,1.53522 0.193037,0.2336 0.319356,0.47584 0.319356,0.61241 0,0.12427 0.06301,0.31591 0.140029,0.42586 0.112508,0.16063 0.120265,0.23157 0.03947,0.36095 -0.05531,0.0886 -0.07193,0.20711 -0.03694,0.26342 0.121998,0.19632 0.09866,2.6132 -0.03078,3.18748 -0.162981,0.72308 -0.282492,0.92548 -1.01073,1.71174 -0.0962,0.10387 -0.115516,0.23558 -0.07458,0.50856 0.08277,0.55194 -0.186907,1.18172 -0.80341,1.87623 -0.279982,0.31541 -0.509059,0.61452 -0.509059,0.66468 0,0.0559 -0.09701,0.0718 -0.250718,0.0411 -0.325191,-0.065 -0.388369,0.0513 -0.200557,0.3692 0.124154,0.21018 0.132594,0.28566 0.04722,0.42236 -0.05717,0.0916 -0.10387,0.21459 -0.103775,0.27343 8.4e-5,0.0588 0.362044,0.48126 0.804333,0.93871 0.583503,0.60351 0.804161,0.89035 0.804161,1.04535 0,0.1304 0.136365,0.36708 0.350073,0.6076 0.358965,0.404 0.660764,0.95749 0.664067,1.21788 0.0011,0.0902 0.09132,0.16628 0.234693,0.19789 1.15435,0.25452 1.436412,0.47817 0.666144,0.52821 -0.560014,0.0364 -1.372362,-0.36795 -1.899696,-0.94554 -0.217955,-0.23873 -0.784552,-0.83003 -1.259105,-1.314 -0.823113,-0.83946 -0.875718,-0.87748 -1.143,-0.82613 -0.291145,0.0559 -0.518982,0.27011 -0.759987,0.7144 -0.09262,0.17075 -0.284453,0.32185 -0.558027,0.43954 -0.301401,0.12965 -0.454276,0.25775 -0.551872,0.46241 -0.159485,0.33444 -0.118296,0.40734 0.158823,0.28108 0.144485,-0.0658 0.260313,-0.0666 0.40076,-0.003 0.108647,0.0495 0.461072,0.11462 0.783167,0.14469 1.141067,0.10654 1.7772,0.24019 2.287159,0.48054 0.28391,0.1338 0.560951,0.24328 0.615648,0.24328 0.0547,0 0.142848,0.0952 0.195891,0.21167 0.05913,0.12977 0.166528,0.21167 0.277586,0.21167 0.206532,0 0.384342,0.14802 0.384342,0.31995 0,0.11594 0.795999,1.10191 0.990654,1.22708 0.206652,0.13289 0.364241,0.33144 0.319946,0.4031 -0.02509,0.0406 0.09441,0.25661 0.265553,0.48001 0.171146,0.22341 0.362267,0.52757 0.424713,0.67593 0.131035,0.31131 0.375353,0.68154 0.786704,1.19215 0.204364,0.25367 0.391728,0.38691 0.635,0.45156 0.443523,0.11786 0.89543,0.39483 0.89543,0.54879 0,0.0944 -0.1558,0.12009 -0.726992,0.12009 -0.660509,0 -0.759229,-0.0221 -1.0795,-0.24143 -0.19388,-0.1328 -0.456885,-0.30486 -0.584457,-0.38238 -0.127573,-0.0775 -0.388578,-0.33908 -0.580013,-0.58126 -0.191433,-0.24219 -0.496631,-0.55452 -0.678216,-0.69408 -0.242209,-0.18615 -0.330155,-0.31577 -0.330155,-0.48658 0,-0.17614 -0.142521,-0.37273 -0.585301,-0.80738 -0.858576,-0.84281 -1.006182,-0.95555 -1.251016,-0.95555 -0.121922,0 -0.422406,-0.095 -0.667741,-0.21102 -0.912709,-0.43178 -1.695133,-0.57698 -2.3039,-0.42754 -0.258997,0.0636 -0.28523,0.0499 -0.378394,-0.1969 -0.123505,-0.3272 -0.287644,-0.33974 -0.423597,-0.0324 -0.1432846,0.32394 -0.2761756,0.4122 -0.9297576,0.6175 -0.313889,0.0986 -0.594737,0.21815 -0.624108,0.26567 -0.02937,0.0475 0.02888,0.16829 0.129453,0.26837 0.100569,0.10007 0.281079,0.50581 0.401133,0.90162 0.120054,0.39582 0.247636,0.75777 0.283515,0.80434 0.03588,0.0466 0.09175,0.24547 0.124162,0.442 0.03241,0.19654 0.125505,0.44419 0.206877,0.55034 0.185048,0.24138 0.5862956,1.41091 0.8272566,2.41123 0.02467,0.10242 0.329277,0.42437 0.676896,0.71544 0.607487,0.50866 0.789189,0.71888 0.789189,0.91309 0,0.14872 -0.230256,0.10425 -0.872474,-0.16848 -0.428602,-0.18201 -0.715864,-0.3746 -0.969026,-0.64966 -0.1979086,-0.21503 -0.3598336,-0.40505 -0.3598336,-0.42226 0,-0.0172 -0.149092,-0.22969 -0.331316,-0.47217 -0.377406,-0.5022 -1.02335,-1.71443 -1.02335,-1.9205 0,-0.0756 -0.03387,-0.1737 -0.07526,-0.21793 -0.04139,-0.0442 -0.16191,-0.34714 -0.267812,-0.6731 -0.105901,-0.32597 -0.243482,-0.65282 -0.305736,-0.72634 -0.06225,-0.0735 -0.113188,-0.2313 -0.113188,-0.35064 0,-0.17429 -0.06696,-0.24376 -0.340381,-0.35316 -0.416088,-0.16649 -0.944987,-0.17536 -1.251324,-0.021 -0.125746,0.0634 -0.514379,0.18252 -0.863629,0.26477 -0.34925,0.0823 -0.753797,0.22092 -0.898993,0.30812 -0.145196,0.0872 -0.364271,0.15856 -0.486833,0.15856 -0.276908,0 -0.275318,0.0442 0.03349,0.93133 0.137785,0.39582 0.250777,0.78761 0.251092,0.87065 3.38e-4,0.083 0.09068,0.33069 0.200804,0.55033 0.110126,0.21965 0.249439,0.60891 0.309584,0.86502 0.09698,0.41297 0.184513,0.53892 0.773437,1.11293 0.365245,0.35599 0.664082,0.68346 0.664082,0.72771 0,0.17106 -0.326239,0.37605 -0.507108,0.31865 -0.379184,-0.12035 -1.076187,-0.57791 -1.230828,-0.808 -0.08877,-0.13208 -0.248404,-0.27979 -0.354735,-0.32824 -0.124774,-0.0569 -0.193329,-0.16166 -0.193329,-0.29558 0,-0.11412 -0.155213,-0.44117 -0.344917,-0.72678 -0.189705,-0.2856 -0.385482,-0.64072 -0.435062,-0.78915 -0.04958,-0.14843 -0.165886,-0.35366 -0.258461,-0.45606 -0.09457,-0.10461 -0.145915,-0.24457 -0.117191,-0.31942 0.02918,-0.0761 -0.02073,-0.20508 -0.116289,-0.30064 -0.09208,-0.0921 -0.167413,-0.26134 -0.167413,-0.37614 0,-0.1148 -0.1143,-0.38896 -0.254,-0.60925 -0.1397,-0.22028 -0.254,-0.5051 -0.254,-0.63294 0,-0.3852 -0.166406,-0.37271 -0.570284,0.0428 -0.430828,0.44323 -0.647171,0.48698 -1.147282,0.23201 -0.17272,-0.0881 -0.400961,-0.18192 -0.507202,-0.20859 -0.106243,-0.0267 -0.318255,-0.16016 -0.471139,-0.29665 l -0.277972,-0.24818 -0.386359,0.21594 -0.38636,0.21595 0.05936,0.80866 c 0.03265,0.44477 0.08938,0.86746 0.126068,0.93932 0.03669,0.0719 0.09173,0.79573 0.122307,1.60861 0.03786,1.00652 0.09166,1.53316 0.168643,1.651 0.147152,0.22525 0.233318,1.48948 0.104144,1.52799 -0.528235,0.15751 -0.556153,0.14726 -0.744594,-0.27331 z m 0.608671,-0.65532 c 0,-0.28092 -0.04017,-0.39952 -0.156363,-0.46171 -0.196552,-0.10519 -0.351637,0.0324 -0.351637,0.31189 0,0.29357 0.15163,0.52784 0.341645,0.52784 0.140522,0 0.166355,-0.0587 0.166355,-0.37802 z m 6.641046,-0.81316 c -0.222545,-0.24591 -0.462477,-0.36459 -0.553351,-0.27372 -0.09881,0.0988 0.144646,0.44141 0.377197,0.5308 0.266473,0.10242 0.367746,-0.0454 0.176154,-0.25708 z m 5.6779536,-0.0788 c -0.08428,-0.0931 -0.191345,-0.16934 -0.237912,-0.16934 -0.04657,0 -0.01571,0.0762 0.06858,0.16934 0.08429,0.0931 0.191345,0.16933 0.237912,0.16933 0.04657,0 0.01571,-0.0762 -0.06858,-0.16933 z m -12.7050096,-1.3335 c -0.02645,-0.54716 -0.06544,-1.08056 -0.08665,-1.18534 -0.04654,-0.22992 -0.294169,-0.25189 -0.477099,-0.0423 -0.113983,0.13057 -0.116128,0.26127 -0.01807,1.10074 0.0612,0.52392 0.134794,0.99065 0.163548,1.03717 0.02875,0.0465 0.145448,0.0846 0.259322,0.0846 h 0.207043 z m 11.811147,-0.0271 c -0.258743,-0.94708 -0.408233,-1.29101 -0.633234,-1.45686 -0.196866,-0.14512 -0.210072,-0.14441 -0.374403,0.0199 -0.147403,0.1474 -0.156711,0.20186 -0.06912,0.40442 0.2186,0.50554 1.1368766,1.77338 1.2224536,1.6878 0.0144,-0.0144 -0.05116,-0.30928 -0.1456946,-0.65528 z m -5.705578,0.42185 c 0.08725,-0.14118 -0.108984,-0.30307 -0.225782,-0.18627 -0.0977,0.0977 -0.03655,0.27831 0.09422,0.27831 0.04107,0 0.100271,-0.0414 0.131559,-0.092 z m -0.619511,-1.95378 c -0.100894,-0.10089 -0.544366,0.0928 -0.501204,0.21891 0.01718,0.0502 0.110037,0.0799 0.206358,0.066 0.09632,-0.0139 0.207033,0.0242 0.246026,0.0847 0.0507,0.0786 0.079,0.0529 0.09933,-0.0904 0.01564,-0.11014 -0.0071,-0.23579 -0.05051,-0.27922 z m 14.0636596,-0.0497 c 0.02147,-0.0349 -0.05163,-0.2159 -0.162452,-0.40217 -0.110817,-0.18626 -0.295221,-0.51371 -0.409786,-0.72765 -0.114565,-0.21395 -0.309136,-0.45506 -0.432378,-0.53581 -0.212594,-0.1393 -0.23239,-0.1393 -0.386252,-6e-5 -0.08919,0.0807 -0.162174,0.18303 -0.162174,0.22735 0,0.0443 0.180975,0.25831 0.402167,0.47554 0.221192,0.21722 0.520658,0.53701 0.665482,0.71063 0.255181,0.30592 0.404626,0.38356 0.485393,0.25217 z m -20.1076756,-0.45278 0.266634,-0.093 v -0.88338 c 0,-0.97956 -0.07404,-1.10788 -0.50011,-0.86681 -0.216913,0.12273 -0.219184,0.13437 -0.188605,0.96666 0.02796,0.76099 0.05607,0.96943 0.130744,0.96943 0.01359,0 0.144688,-0.0418 0.291337,-0.093 z m 11.277506,-0.20556 c 0.262981,-0.13599 0.328162,-0.33064 0.13548,-0.40458 -0.06326,-0.0243 -0.136359,-0.22684 -0.163673,-0.45356 -0.0641,-0.5321 -0.24486,-1.06505 -0.375773,-1.10796 -0.05689,-0.0187 -0.197309,0.06 -0.312051,0.17472 l -0.208624,0.20863 0.197647,0.70779 c 0.314071,1.12473 0.293009,1.09938 0.726994,0.87496 z m -5.690822,-0.0107 c 0.174593,-0.0468 0.191201,-0.0877 0.142008,-0.34989 -0.03064,-0.16333 -0.116617,-0.38991 -0.191062,-0.50353 -0.07444,-0.11362 -0.159004,-0.34617 -0.18791,-0.51679 -0.04682,-0.27637 -0.07838,-0.30836 -0.289237,-0.29325 -0.130175,0.009 -0.290495,0.0616 -0.356265,0.1162 -0.172992,0.14357 -0.146768,0.61978 0.04693,0.85229 l 0.166516,0.19988 0.0028,-0.22783 c 0.0054,-0.43993 0.275933,-0.34851 0.360695,0.1219 0.02306,0.128 -0.0087,0.29945 -0.07061,0.381 -0.207594,0.27348 -0.08701,0.34402 0.376116,0.22002 z m -2.255501,-1.34426 c 0.08839,-0.194 0.06666,-0.24585 -0.230665,-0.55034 -0.375396,-0.38444 -0.591296,-0.42738 -0.665344,-0.13235 -0.02813,0.11209 -0.07379,0.26279 -0.101459,0.3349 -0.07747,0.20189 0.332742,0.56196 0.640219,0.56196 0.195624,0 0.283732,-0.0528 0.357249,-0.21417 z m 3.116118,-0.0308 c 0,-0.17359 0.186759,-0.28355 0.365268,-0.21504 0.129289,0.0496 1.072492,-0.18191 1.180303,-0.28972 0.08261,-0.0826 -0.68391,-0.60496 -0.887758,-0.60496 -0.165161,0 -0.269502,0.25284 -0.152588,0.36975 0.109344,0.10935 0.11495,0.39225 0.0078,0.39225 -0.04382,0 -0.102188,-0.0364 -0.129712,-0.081 -0.02752,-0.0445 -0.107518,-0.0589 -0.177767,-0.032 -0.08775,0.0337 -0.159049,-0.034 -0.227809,-0.21613 -0.05504,-0.14584 -0.139223,-0.25234 -0.187063,-0.23667 -0.103451,0.0339 -0.161849,0.5939 -0.09126,0.87516 0.05943,0.23677 0.300612,0.2675 0.300612,0.0383 z m 12.1022906,-0.30002 0.193808,-0.2063 -0.451884,-0.51337 c -0.444521,-0.505 -0.604515,-0.60027 -0.713089,-0.42459 -0.03785,0.0612 -0.09009,0.0596 -0.168426,-0.005 -0.08739,-0.0725 -0.136734,-0.0509 -0.214144,0.0937 -0.09164,0.17123 -0.05261,0.23529 0.438595,0.71997 0.29655,0.29262 0.580166,0.53435 0.630257,0.53719 0.05009,0.003 0.178289,-0.0877 0.284883,-0.20114 z m -17.4399756,-0.43366 c 0.340836,-0.45144 0.349883,-0.47894 0.22184,-0.67436 -0.156338,-0.2386 -0.17366,-0.55898 -0.03758,-0.69506 0.106145,-0.10614 0.04237,-0.36129 -0.09031,-0.36129 -0.04641,0 -0.214235,0.11402 -0.372949,0.25337 l -0.288571,0.25337 0.02376,0.75798 c 0.02087,0.66608 0.06747,0.93661 0.161318,0.93661 0.01494,0 0.187062,-0.21178 0.382492,-0.47062 z m 2.884343,0.0436 c 0.07795,-0.14565 0.05371,-0.20934 -0.153061,-0.40217 -0.242414,-0.22607 -0.811898,-0.53888 -1.181898,-0.64921 -0.270609,-0.0807 -0.174376,0.11787 0.171572,0.354 0.151408,0.10335 0.425244,0.34147 0.608524,0.52917 0.38202,0.39122 0.428043,0.40517 0.554863,0.16821 z m 5.790016,-0.40856 c 0.128728,-0.18575 0.221212,-0.40711 0.205521,-0.49189 -0.04155,-0.22454 -0.544317,-0.43828 -1.467913,-0.62408 -0.446742,-0.0899 -0.881257,-0.20032 -0.965586,-0.24545 -0.124129,-0.0664 -0.173017,-0.0388 -0.256714,0.14485 l -0.103386,0.2269 -0.163896,-0.20919 -0.163897,-0.20919 0.02243,0.4514 0.02243,0.4514 0.455811,0.16011 c 0.250696,0.0881 0.549069,0.22121 0.663052,0.29589 0.376325,0.24658 1.243558,0.53335 1.384948,0.45797 0.07323,-0.039 0.238468,-0.22297 0.367196,-0.40872 z m -11.069774,0.037 c -0.02853,-0.0744 -0.149705,-0.13269 -0.27561,-0.13269 -0.201814,0 -0.212859,0.0151 -0.10849,0.14817 0.06391,0.0815 0.153982,0.17515 0.200159,0.20814 0.119645,0.0855 0.244364,-0.0662 0.183941,-0.22362 z m 1.234933,0.0212 c 0.178697,0.007 0.232834,-0.0304 0.232834,-0.15939 0,-0.24659 -0.536264,-1.26965 -0.80791,-1.5413 -0.212461,-0.21246 -0.250966,-0.22319 -0.411735,-0.11472 -0.205756,0.13883 -0.203744,0.1866 0.04978,1.18162 l 0.19052,0.74776 0.25684,-0.0613 c 0.141262,-0.0337 0.361615,-0.0574 0.489673,-0.0527 z m 4.8895,-0.14676 c 0,-0.0891 -0.496795,-0.48698 -0.931333,-0.7458 -0.289215,-0.17226 -1.104853,-0.44664 -1.3277,-0.44664 -0.240272,0 -0.09329,0.148 0.2482,0.24993 0.501687,0.14974 1.058448,0.49045 1.270779,0.77764 0.134494,0.18191 0.249226,0.24243 0.459643,0.24243 0.154227,0 0.280411,-0.0349 0.280411,-0.0776 z m 0.812604,-0.0719 c 0.05862,-0.0392 0.07813,-0.26001 0.05285,-0.59787 -0.03957,-0.5288 -0.04294,-0.53497 -0.26227,-0.4811 -0.122203,0.03 -0.311512,0.11238 -0.420687,0.18303 l -0.1985,0.12846 0.171694,0.18331 c 0.09443,0.10081 0.211388,0.28808 0.259905,0.41614 0.08766,0.23139 0.219177,0.28705 0.397005,0.16803 z m 0.62673,-0.48553 c 0,-0.0644 -0.0381,-0.14056 -0.08467,-0.16934 -0.04821,-0.0298 -0.08467,0.0431 -0.08467,0.16934 0,0.12621 0.03646,0.19912 0.08467,0.16933 0.04657,-0.0288 0.08467,-0.10498 0.08467,-0.16933 z m 5.194283,-0.0529 c 0.409434,-0.10617 0.410472,-0.10735 0.360764,-0.40778 -0.02742,-0.16572 -0.05027,-0.40608 -0.05078,-0.53414 -0.0012,-0.30032 -0.125951,-0.29932 -0.934197,0.007 -0.348187,0.13216 -0.706358,0.26686 -0.795935,0.29932 -0.146041,0.0529 -0.124175,0.0986 0.211667,0.44257 0.403606,0.41333 0.374858,0.40875 1.208483,0.19257 z m -0.156617,-0.24342 c 0.02878,-0.0466 0.08818,-0.0847 0.131997,-0.0847 0.04382,0 0.07967,0.0381 0.07967,0.0847 0,0.0466 -0.0594,0.0847 -0.131997,0.0847 -0.0726,0 -0.10845,-0.0381 -0.07967,-0.0847 z m 4.8750246,0.0389 c 0.138755,-0.0718 0.290931,-0.10658 0.33817,-0.0774 0.108508,0.0671 0.332472,-0.11361 0.332472,-0.2682 0,-0.0642 -0.07972,-0.11663 -0.177146,-0.11663 -0.09743,0 -0.271578,-0.0743 -0.386997,-0.16507 -0.411214,-0.32346 -2.439684,-0.72459 -2.675305,-0.52904 -0.08447,0.0701 -0.137099,0.0524 -0.214925,-0.0722 -0.164328,-0.26314 -0.27096,-0.19261 -0.27096,0.1792 0,0.47891 0.112039,0.65924 0.378002,0.6084 0.118066,-0.0226 0.214664,-0.003 0.214664,0.0431 0,0.0463 0.295275,0.13037 0.656167,0.18683 0.360892,0.0564 0.770467,0.15326 0.910167,0.21514 0.34402,0.15236 0.595188,0.15118 0.895691,-0.004 z m -15.4355856,-0.83329 c 0.197025,-0.13425 0.358228,-0.30665 0.358228,-0.38311 0,-0.0765 0.17145,-0.30036 0.381,-0.49755 0.343017,-0.32279 0.381,-0.39688 0.381,-0.74312 0,-0.21153 -0.07104,-0.52549 -0.157867,-0.6977 -0.08683,-0.17221 -0.265074,-0.54171 -0.396106,-0.82111 -0.368635,-0.78604 -0.393988,-0.80433 -1.114898,-0.80433 -0.526043,0 -0.708801,0.0408 -1.138566,0.254 -0.281568,0.1397 -0.574706,0.25414 -0.651418,0.25432 -0.07671,1.7e-4 -0.264965,0.0768 -0.418339,0.17033 -0.199807,0.12182 -0.320941,0.1475 -0.427298,0.0906 -0.295792,-0.1583 -1.81476,0.35907 -2.153311,0.73344 -0.192497,0.21286 -0.493843,1.05888 -0.408307,1.14631 0.03586,0.0367 0.169137,0.0271 0.296168,-0.0212 0.127032,-0.0483 0.44756,-0.087 0.712287,-0.0859 0.543157,0.002 0.968236,0.16732 1.768113,0.68722 0.391059,0.25418 0.572684,0.32591 0.712728,0.28146 0.17845,-0.0566 0.170123,-0.0745 -0.164958,-0.35278 -0.194092,-0.16123 -0.352895,-0.34139 -0.352895,-0.40037 0,-0.059 -0.112517,-0.27478 -0.25004,-0.47954 -0.137867,-0.20528 -0.217656,-0.40469 -0.177856,-0.44449 0.141952,-0.14195 0.433743,0.0476 0.608514,0.3953 0.244927,0.48726 0.404375,0.65001 0.636838,0.65001 0.25153,0 0.25547,-0.10421 0.008,-0.21276 -0.124469,-0.0546 -0.1905,-0.15695 -0.1905,-0.29524 0,-0.18946 0.03064,-0.20918 0.291988,-0.1879 0.160593,0.0131 0.351093,-0.004 0.423333,-0.0371 0.07224,-0.0335 0.206155,-0.0632 0.297588,-0.0661 0.126192,-0.004 0.183297,-0.0909 0.237025,-0.36105 0.120916,-0.60787 0.858001,-1.05671 0.872539,-0.53133 0.0032,0.11541 0.0346,0.27327 0.0698,0.35081 0.04198,0.0925 -0.04011,0.33715 -0.23864,0.71126 -0.166448,0.31365 -0.302633,0.61597 -0.302633,0.67182 0,0.0558 -0.111315,0.2552 -0.247366,0.44301 l -0.247366,0.34148 0.209315,0.30804 c 0.134752,0.1983 0.246062,0.28477 0.312471,0.24272 0.05674,-0.0359 0.264359,-0.17515 0.461384,-0.30939 z m -0.450524,-0.39817 c -0.06069,-0.0982 0.730878,-0.92418 0.885688,-0.92418 0.120495,0 0.117433,0.0264 -0.04174,0.36021 -0.07378,0.15471 -0.257109,0.36556 -0.407405,0.46854 -0.311011,0.21311 -0.357526,0.22328 -0.43654,0.0954 z m 1.90453,0.30884 c -0.06518,-0.0639 -0.139028,-0.0322 -0.254667,0.1093 -0.22329,0.27326 -0.11025,0.40978 0.142609,0.17223 0.145767,-0.13694 0.177698,-0.21716 0.112058,-0.28153 z m 2.966226,0.0158 c 0.0011,-0.0349 -0.144288,-0.0635 -0.32308,-0.0635 -0.266188,0 -0.342876,0.0391 -0.423333,0.21565 -0.05404,0.11861 -0.09826,0.23048 -0.09826,0.2486 0,0.0624 0.842679,-0.33736 0.844671,-0.40075 z m 3.341899,0.113 c 0.06312,-0.10213 -0.346643,-0.58412 -0.657114,-0.77293 -0.236558,-0.14386 -0.255809,-0.14313 -0.532649,0.0202 -0.275085,0.1623 -0.315894,0.32222 -0.08223,0.32222 0.06082,0 0.211994,0.0798 0.335937,0.17726 0.335312,0.26376 0.844428,0.40149 0.936054,0.25324 z m 1.365181,-0.22965 c 0.665617,-0.21986 0.68287,-0.26727 0.294588,-0.8095 -0.37725,-0.52682 -0.534607,-0.62689 -0.690482,-0.43907 -0.05822,0.0702 -0.209092,0.18094 -0.335269,0.24619 -0.167339,0.0865 -0.238654,0.19779 -0.263569,0.41121 -0.0565,0.48395 0.05678,0.63822 0.529065,0.72055 0.02663,0.005 0.23618,-0.0536 0.465667,-0.12938 z m -6.864084,-0.11618 c 0.02878,-0.0466 0.135804,-0.086 0.23783,-0.0877 0.102027,-0.002 0.293856,-0.0917 0.426287,-0.20002 l 0.240784,-0.19698 -0.139955,-0.68618 c -0.165584,-0.81184 -0.148851,-1.41145 0.03939,-1.41145 0.08696,0 0.142136,0.12012 0.175011,0.381 0.02641,0.20955 0.120549,0.60471 0.209206,0.87813 0.136627,0.42135 0.206733,0.51762 0.459989,0.63165 0.164337,0.074 0.36891,0.19268 0.454608,0.26375 0.141097,0.11702 0.166891,0.11408 0.273094,-0.0312 0.100645,-0.13764 0.09935,-0.1735 -0.0091,-0.25287 -0.06954,-0.0509 -0.150111,-0.29251 -0.179055,-0.53699 -0.04827,-0.40767 -0.03837,-0.4445 0.119443,-0.4445 0.206643,0 0.273956,0.15056 0.277544,0.62076 0.0025,0.32869 0.01122,0.34163 0.127,0.18856 0.06837,-0.0904 0.124307,-0.23327 0.124307,-0.3175 0,-0.0842 0.04953,-0.15315 0.110067,-0.15315 0.157062,0 0.313267,0.17731 0.313267,0.3556 0,0.0838 0.03453,0.1524 0.07674,0.1524 0.04221,0 0.05681,-0.0762 0.03246,-0.16933 -0.0334,-0.12772 -0.0026,-0.16934 0.125312,-0.16934 0.135962,0 0.180868,-0.0752 0.226433,-0.37902 0.06096,-0.40652 0.189593,-0.56153 0.309225,-0.37266 0.103588,0.16355 0.09448,0.72921 -0.01503,0.93383 -0.126504,0.23638 -0.02908,0.29996 0.175674,0.11466 0.129668,-0.11735 0.169852,-0.26078 0.169852,-0.60626 0,-0.53969 0.184201,-0.62425 0.338881,-0.15556 0.114099,0.34572 0.351506,0.50134 0.65037,0.42633 0.152144,-0.0382 0.19653,-0.092 0.158197,-0.19192 -0.03466,-0.0903 0.02273,-0.20004 0.164246,-0.31396 l 0.217526,-0.1751 -0.190184,-0.44791 c -0.15654,-0.36866 -0.171979,-0.47705 -0.08728,-0.61268 0.0566,-0.0906 0.102908,-0.22245 0.102908,-0.29293 0,-0.27775 0.233989,-0.0979 0.714663,0.54928 0.493831,0.6649 0.72467,0.83087 0.72467,0.52103 0,-0.0859 0.07428,-0.22344 0.165073,-0.3056 0.10816,-0.0979 0.17384,-0.28459 0.1905,-0.54153 0.01822,-0.28096 0.06433,-0.39952 0.162647,-0.41817 0.08009,-0.0152 0.155805,0.045 0.181859,0.14468 0.03262,0.12474 0.109648,0.16764 0.286114,0.15933 0.132811,-0.006 0.317674,0.0169 0.410807,0.0515 0.150683,0.0559 0.153015,0.0523 0.02117,-0.0324 -0.22196,-0.14272 -0.19164,-0.35497 0.04233,-0.29636 0.104775,0.0262 0.261249,-0.004 0.347719,-0.0674 0.152609,-0.11172 0.152703,-0.12781 0.0032,-0.54875 -0.145489,-0.40964 -0.145991,-0.44254 -0.0091,-0.59385 0.07973,-0.0881 0.14497,-0.24426 0.14497,-0.34701 0,-0.16121 -0.02344,-0.17426 -0.171083,-0.0952 -0.226062,0.12099 -0.336917,0.041 -0.336917,-0.243 0,-0.44912 -0.344123,-0.56036 -0.8255,-0.26686 -0.21408,0.13053 -0.275167,0.22537 -0.275167,0.42722 0,0.1427 -0.05935,0.37423 -0.131897,0.51451 -0.176969,0.34222 -0.404832,0.29519 -0.460769,-0.0951 -0.05558,-0.38779 -0.327836,-0.44348 -0.582897,-0.11923 -0.09851,0.12523 -0.179103,0.2738 -0.179103,0.33016 0,0.14899 -0.355907,0.44634 -0.396423,0.33121 -0.115699,-0.32879 -0.247691,-0.3923 -0.689139,-0.33159 -0.363201,0.05 -0.469447,0.10601 -0.620781,0.32751 -0.309972,0.45369 -0.414766,0.50425 -0.628689,0.30328 l -0.18653,-0.17524 -0.43103,0.21842 c -0.526219,0.26666 -0.728494,0.54418 -0.657037,0.90147 0.04306,0.2153 0.02694,0.25431 -0.09545,0.23102 -0.115987,-0.0221 -0.152676,-0.13215 -0.172778,-0.51836 -0.02868,-0.55109 -0.139542,-0.65584 -0.509044,-0.481 -0.125089,0.0592 -0.378305,0.13675 -0.562704,0.17235 -0.265783,0.0513 -0.356591,0.0357 -0.438142,-0.0753 -0.09553,-0.13006 -0.13283,-0.12948 -0.522761,0.008 -0.230938,0.0815 -0.537621,0.14816 -0.681516,0.14816 -0.204088,0 -0.29004,0.0549 -0.390804,0.2498 -0.165943,0.3209 -0.162915,0.64765 0.01362,1.46915 0.114068,0.53082 0.123933,0.73512 0.04904,1.0157 -0.111816,0.41892 -0.0964,0.453 0.238195,0.52649 0.142312,0.0313 0.279302,0.11039 0.304421,0.17585 0.05334,0.139 0.164664,0.15498 0.23922,0.0344 z m 0.257877,-0.5563 c -0.224516,-0.34266 -0.384877,-0.87168 -0.384877,-1.26968 0,-0.70659 0.195587,-0.50994 0.426665,0.42898 0.0573,0.23283 0.156196,0.50771 0.219761,0.61085 0.258147,0.41885 0.0069,0.63961 -0.261549,0.22985 z m -3.62537,0.16625 c -0.02981,-0.0298 -0.121454,-0.0284 -0.20365,0.003 -0.126755,0.0486 -0.130631,0.069 -0.02552,0.13393 0.129795,0.0802 0.327948,-0.0383 0.229175,-0.13707 z m 18.0017986,0.0244 c -0.38396,-0.66049 -0.791306,-1.03399 -0.791306,-0.72556 0,0.1506 0.685319,0.92697 0.771334,0.87381 0.04295,-0.0265 0.05194,-0.0933 0.01997,-0.14825 z m -5.6601306,-0.43374 c 0.209821,-0.20685 0.381492,-0.42461 0.381492,-0.48392 0,-0.15578 -0.77392,-0.91857 -0.928151,-0.91481 -0.0716,0.002 -0.282558,0.13355 -0.468795,0.29288 l -0.338613,0.28971 0.156646,0.29087 c 0.08615,0.15998 0.13436,0.36156 0.10712,0.44795 -0.03819,0.12113 0.02284,0.18913 0.266633,0.29711 0.173887,0.077 0.344514,0.1437 0.379168,0.14817 0.03466,0.004 0.23468,-0.16111 0.4445,-0.36796 z m 1.2068726,-1.04207 c 0.31993,-0.20905 0.615495,-0.49283 0.605337,-0.58121 -0.0047,-0.0412 -0.194563,-0.24164 -0.421834,-0.44535 l -0.413219,-0.3704 -0.257116,0.27525 c -0.240854,0.25783 -0.250974,0.29465 -0.160004,0.58206 0.243934,0.77069 0.265592,0.78876 0.646836,0.53965 z m 3.241014,0.0183 c 0.08734,-0.10524 0.08704,-0.16868 -0.0016,-0.33429 -0.178312,-0.33318 -0.569146,-0.66394 -0.717331,-0.60708 -0.28184,0.10815 -0.242947,0.3165 0.130027,0.69653 0.410053,0.41782 0.436289,0.42872 0.5889,0.24484 z M 6.9957364,150.0841 c 0,-0.0643 -0.0381,-0.14055 -0.08467,-0.16933 -0.04821,-0.0298 -0.08467,0.0431 -0.08467,0.16933 0,0.12621 0.03646,0.19913 0.08467,0.16933 0.04657,-0.0288 0.08467,-0.10498 0.08467,-0.16933 z m 5.2898716,-1.14113 c 0.189504,-0.1978 0.249856,-0.35225 0.280088,-0.71681 0.03601,-0.43423 0.02423,-0.4712 -0.179765,-0.56415 -0.194978,-0.0888 -0.250661,-0.071 -0.521193,0.16648 -0.166592,0.14627 -0.33879,0.26594 -0.382662,0.26594 -0.04387,0 -0.145326,0.10006 -0.225452,0.22234 -0.145416,0.22194 -0.144996,0.22294 0.230881,0.54781 0.207111,0.17901 0.417061,0.3266 0.466558,0.32799 0.0495,0.001 0.198691,-0.11093 0.331545,-0.2496 z m -12.9098716,-0.34553 c 0,-0.0438 -0.0381,-0.0797 -0.08467,-0.0797 -0.04657,0 -0.08467,0.0594 -0.08467,0.13199 0,0.0726 0.0381,0.10845 0.08467,0.0797 0.04657,-0.0288 0.08467,-0.0882 0.08467,-0.13199 z m 10.8827556,-0.21825 c 0.192349,-0.25218 0.217408,-0.33584 0.138463,-0.46225 -0.07513,-0.12031 -0.06999,-0.16912 0.02331,-0.22133 0.06583,-0.0368 0.112819,-0.14315 0.104417,-0.23625 -0.01292,-0.14318 0.02816,-0.16503 0.266603,-0.14178 0.286322,0.0279 0.86018,-0.27298 0.859769,-0.45081 -8.5e-5,-0.0466 -0.09391,-0.27517 -0.20844,-0.508 -0.114535,-0.23284 -0.209437,-0.48867 -0.210893,-0.56852 -0.0061,-0.33423 -0.516224,-0.40747 -1.026145,-0.14732 -0.3621916,0.18477 -0.4728046,0.34377 -0.3626476,0.52128 0.1667086,0.26864 0.4450646,1.21184 0.3775586,1.27934 -0.04209,0.0421 -0.156093,0.0299 -0.2648416,-0.0283 -0.185467,-0.0993 -0.188882,-0.094 -0.119065,0.18266 0.03953,0.15667 0.06989,0.46582 0.06745,0.68701 -0.0024,0.22119 0.02348,0.40217 0.05759,0.40217 0.03411,0 0.1677026,-0.13856 0.2968726,-0.30791 z m -14.2270886,0.13858 c 0.02878,-0.0466 0.01198,-0.0847 -0.03734,-0.0847 -0.04931,0 -0.08966,0.0381 -0.08966,0.0847 0,0.0466 0.0168,0.0847 0.03734,0.0847 0.02053,0 0.06088,-0.0381 0.08966,-0.0847 z m 2.728214,-0.39531 c 0.05017,-0.15051 -1.426212,-0.26988 -1.639495,-0.13256 -0.05314,0.0342 0.179451,0.0667 0.516866,0.0723 0.337414,0.006 0.685691,0.0519 0.773948,0.1031 0.179924,0.10431 0.304748,0.089 0.348681,-0.0428 z m 2.090766,-0.27902 c 0.418567,-0.17942 0.461067,-0.25653 0.254972,-0.46263 -0.20243,-0.20243 -0.421593,-0.16035 -0.663759,0.12745 -0.413976,0.49199 -0.2571,0.62061 0.408787,0.33518 z m 10.2710896,-0.13883 c -0.02813,-0.0281 -0.10116,-0.0311 -0.162278,-0.007 -0.06754,0.027 -0.04748,0.0471 0.05115,0.0512 0.08925,0.004 0.139259,-0.0163 0.111125,-0.0445 z m -7.9841176,-0.16656 c 0.219381,-0.21938 0.150754,-0.36182 -0.280926,-0.58308 -0.221446,-0.11351 -0.391809,-0.134 -0.74608,-0.0897 -0.52351,0.0654 -0.60318,0.17111 -0.410231,0.54423 0.131388,0.25407 0.152201,0.26164 0.719745,0.26164 0.418424,0 0.622239,-0.0378 0.717492,-0.13305 z m -4.269619,-0.12095 c 0,-0.0466 -0.05715,-0.0847 -0.127,-0.0847 -0.06985,0 -0.127,0.0381 -0.127,0.0847 0,0.0466 0.05715,0.0847 0.127,0.0847 0.06985,0 0.127,-0.0381 0.127,-0.0847 z m 5.482167,-0.0212 c -0.0194,-0.0582 -0.08608,-0.10583 -0.148167,-0.10583 -0.06209,0 -0.128763,0.0476 -0.148166,0.10583 -0.02099,0.063 0.03904,0.10584 0.148166,0.10584 0.109126,0 0.169153,-0.0429 0.148167,-0.10584 z m -4.299812,-0.22726 c 0.144971,-0.27088 0.101977,-0.34424 -0.201763,-0.34424 -0.534432,0 -0.706663,0.16425 -0.409092,0.39014 0.216384,0.16426 0.510195,0.14218 0.610855,-0.0459 z M 12.49907,146.94641 c 0,-0.0671 -0.05715,-0.12201 -0.127,-0.12201 -0.127528,0 -0.174048,0.17873 -0.07286,0.27992 0.07901,0.079 0.199858,-0.0165 0.199858,-0.15791 z m 1.296863,-0.86284 c 0.285078,-0.41287 0.546726,-1.01344 0.580964,-1.3335 0.02497,-0.23336 0.0078,-0.25195 -0.211489,-0.22872 -0.155863,0.0165 -0.373856,-0.0643 -0.628349,-0.23283 -0.214328,-0.14196 -0.414397,-0.25812 -0.444599,-0.25812 -0.153779,0 -0.750211,0.62195 -0.886706,0.92465 l -0.156176,0.34633 0.538673,0.50469 c 0.744685,0.69771 0.893868,0.73199 1.207682,0.2775 z m -0.534863,-0.64141 c 0,-0.0617 0.09525,-0.20172 0.211666,-0.31109 0.181386,-0.1704 0.211667,-0.17777 0.211667,-0.0515 0,0.22196 -0.159407,0.47486 -0.299312,0.47486 -0.06821,0 -0.124021,-0.0505 -0.124021,-0.11224 z m -0.677334,-0.18011 c 0,-0.21197 0.191408,-0.55431 0.309924,-0.55431 0.147733,0 0.143311,0.11992 -0.01577,0.42753 -0.136848,0.26464 -0.294159,0.33244 -0.294159,0.12678 z m -0.516005,-0.9653 c -0.125129,-0.043 -0.188692,0.0442 -0.11689,0.16039 0.04552,0.0737 0.07985,0.0696 0.132765,-0.0155 0.04192,-0.0675 0.03537,-0.12725 -0.01588,-0.14486 z m 0.637493,-0.34892 c 0.319857,-0.12161 0.297129,-0.42543 -0.03182,-0.42543 -0.290687,0 -0.353557,0.0709 -0.287371,0.32398 0.0558,0.21338 0.03892,0.20801 0.319195,0.10145 z m 2.812118,-1.59188 c 0.143509,-0.46269 0.174232,-1.18663 0.09872,-2.32605 -0.02787,-0.42043 -0.07464,-0.45506 -0.471155,-0.3488 -0.162922,0.0437 -0.190415,0.10784 -0.18991,0.44334 3.39e-4,0.21576 0.09558,0.67217 0.211667,1.01424 0.255321,0.75231 0.258608,0.85797 0.04002,1.28643 -0.199283,0.39063 -0.389072,0.45665 -0.29455,0.10246 0.111831,-0.41904 0.07727,-0.81463 -0.132355,-1.51503 l -0.206374,-0.68952 -0.608888,-0.009 c -0.539059,-0.008 -0.624019,0.0124 -0.740833,0.1792 -0.169486,0.24197 -0.168795,0.84425 0.0018,1.59443 0.136094,0.59836 0.322979,0.84227 0.645353,0.84227 0.08183,0 0.301668,0.0612 0.48853,0.13594 0.301399,0.12059 0.334403,0.16121 0.292394,0.35983 -0.04237,0.20033 -0.0072,0.18133 0.333956,-0.18056 0.261789,-0.27769 0.428418,-0.55634 0.5316,-0.889 z m -1.697795,-0.2597 c -0.02932,-0.0474 -0.07379,-0.30228 -0.09884,-0.56631 -0.06019,-0.63451 0.144212,-0.60138 0.246762,0.04 0.06851,0.42847 -0.01805,0.73644 -0.147919,0.52631 z m -9.5331436,-0.41426 c 0.02328,-0.025 -0.01482,-0.0642 -0.08467,-0.0871 -0.217109,-0.0712 -0.969491,-0.89226 -1.131813,-1.23513 -0.119165,-0.25171 -0.131414,-0.34847 -0.05359,-0.42333 0.07656,-0.0737 0.134655,-0.0465 0.240976,0.11262 0.311469,0.46614 0.654729,0.78583 1.063806,0.99076 0.534791,0.26789 0.728362,0.43393 0.673272,0.57749 -0.04278,0.11147 0.440964,0.27636 0.534973,0.18235 0.08162,-0.0816 -0.315749,-0.55872 -0.720373,-0.86491 -0.466714,-0.35318 -1.222851,-1.21759 -1.409927,-1.61182 -0.180863,-0.38114 -0.517596,-0.62654 -0.859742,-0.62654 -0.271639,0 -0.284915,0.0145 -0.284915,0.31045 0,0.17074 0.02507,0.28537 0.05571,0.25473 0.135533,-0.13553 0.282985,0.15946 0.283429,0.56702 6.77e-4,0.59291 0.124086,0.98951 0.426376,1.36989 0.31524,0.39668 0.221587,0.55731 -0.188245,0.32287 -0.373253,-0.21352 -0.746603,-0.94365 -0.746603,-1.46007 0,-0.48039 -0.137812,-0.37566 -0.242409,0.18422 -0.0609,0.32598 -0.04499,0.45891 0.08681,0.7253 0.335062,0.67722 0.749113,0.87564 1.679599,0.8049 0.34925,-0.0265 0.65405,-0.0687 0.677333,-0.0937 z m 9.7004166,-2.95407 c 0.714433,-0.23599 0.784224,-0.46206 0.245435,-0.79505 -0.377439,-0.23327 -0.801852,-0.72696 -0.801852,-0.93275 0,-0.2347 0.124764,-0.20673 0.353697,0.0793 0.108149,0.13512 0.377774,0.36653 0.599165,0.51425 0.460794,0.30745 0.573272,0.47783 0.600937,0.91027 0.0216,0.33767 0.128754,0.41886 0.377271,0.28585 0.150824,-0.0807 0.154562,-0.11738 0.05219,-0.51202 -0.06065,-0.2338 -0.223378,-0.56862 -0.361627,-0.74405 -0.138249,-0.17543 -0.365315,-0.60471 -0.50459,-0.95396 -0.424411,-1.06426 -0.599806,-1.43934 -0.673075,-1.43934 -0.03853,0 -0.239906,0.1737 -0.447509,0.386 -0.207605,0.21229 -0.573023,0.49828 -0.812042,0.63553 -0.568148,0.32625 -0.626464,0.40707 -0.646214,0.89567 -0.02567,0.63502 0.260299,1.13945 0.854008,1.50643 0.553785,0.34229 0.603072,0.34923 1.164203,0.16389 z m -1.204301,-0.82297 c -0.417496,-0.41749 -0.452783,-0.48348 -0.452783,-0.84666 0,-0.49477 0.216002,-0.55553 0.304169,-0.0856 0.03722,0.19837 0.205586,0.47147 0.472144,0.76581 0.382612,0.42249 0.453073,0.6192 0.221806,0.6192 -0.05091,0 -0.296306,-0.20376 -0.545336,-0.45279 z m -9.2581156,0.2519 c 0,-0.20912 0.206773,-0.41969 1.328664,-1.35302 0.339933,-0.2828 0.864176,-0.85518 1.221015,-1.33312 0.595519,-0.79763 0.836988,-1.00072 0.836988,-0.70398 0,0.13299 -0.391485,0.74687 -0.710751,1.11451 -0.275437,0.31717 -0.07491,0.21323 0.245026,-0.127 0.164205,-0.17463 0.436592,-0.54055 0.605303,-0.81317 0.303802,-0.49091 0.305768,-0.50004 0.204798,-0.95122 -0.05607,-0.25056 -0.07805,-0.49423 -0.04883,-0.5415 0.09365,-0.15152 -0.656883,-0.0911 -1.042524,0.0839 -0.293856,0.13335 -0.355745,0.19833 -0.314048,0.32971 0.03932,0.12388 -0.0438,0.24245 -0.342257,0.48822 -0.59264,0.48801 -1.446544,1.58582 -1.760328,2.26312 -0.153257,0.33081 -0.34427,0.65537 -0.424471,0.72123 -0.129382,0.10626 -0.151374,0.0985 -0.195077,-0.0686 l -0.04926,-0.18836 -0.236841,0.22691 c -0.203816,0.19527 -0.225078,0.25796 -0.152485,0.4496 0.205155,0.54159 0.835077,0.84545 0.835077,0.40281 z m 1.566333,-0.98445 c 0.02878,-0.0466 0.01423,-0.0847 -0.03234,-0.0847 -0.04657,0 -0.108213,0.0381 -0.136993,0.0847 -0.02878,0.0466 -0.01423,0.0847 0.03234,0.0847 0.04657,0 0.108213,-0.0381 0.136993,-0.0847 z m 6.5914206,-1.54516 c 0.498038,-0.45498 0.99553,-1.41817 0.73249,-1.41817 -0.04643,0 -0.237361,-0.13817 -0.424284,-0.30704 -0.310371,-0.28041 -0.386026,-0.30796 -0.871902,-0.3175 -0.588797,-0.0116 -0.990058,-0.2023 -0.990058,-0.47059 0,-0.14537 -0.08651,-0.1628 -0.9524996,-0.19194 -0.523875,-0.0176 -0.976976,-0.0115 -1.006892,0.0137 -0.02992,0.0251 -0.08118,0.45487 -0.113914,0.95492 l -0.05952,0.90919 0.240915,0.0913 c 0.132503,0.0502 0.317227,0.16274 0.410497,0.25008 0.238362,0.22321 1.113125,0.6108 1.290919,0.57199 0.09334,-0.0204 -0.110307,-0.16401 -0.550335,-0.38815 -0.402796,-0.20518 -0.6985,-0.40917 -0.6985,-0.48186 0,-0.0693 0.05574,-0.12606 0.123865,-0.12606 0.206541,0 0.995099,0.33542 1.4075466,0.59872 0.213627,0.13637 0.46352,0.24795 0.555318,0.24795 0.0918,0 0.240862,0.0559 0.331254,0.1243 0.22661,0.1714 0.333262,0.16013 0.575103,-0.0608 z m -0.749421,-0.90067 c -0.232833,-0.0814 -0.573092,-0.22999 -0.756131,-0.33025 -0.1830386,-0.10027 -0.5498486,-0.20686 -0.8151336,-0.23687 -0.540881,-0.0612 -0.721743,-0.14071 -0.635919,-0.27958 0.12103,-0.19583 1.127401,-0.10838 1.7855616,0.15516 0.342423,0.13712 0.786919,0.29324 0.987771,0.34695 0.476156,0.12732 0.610206,0.23522 0.482862,0.38866 -0.127841,0.15404 -0.530601,0.13712 -1.049011,-0.0441 z m 2.243667,-0.1677 c 0,-0.0372 -0.02507,-0.0926 -0.05571,-0.12329 -0.0771,-0.0771 -0.282957,0.10659 -0.282957,0.2525 0,0.0934 0.03714,0.0997 0.169334,0.029 0.09313,-0.0498 0.169333,-0.12103 0.169333,-0.1582 z"
         id="path834"
         inkscape:connector-curvature="0" />
    </g>
    <use
       height="100%"
       width="100%"
       y="0"
       x="0"
       id="shine-1"
       xlink:href="#shield-0"
       style="fill:url(#rg-8);stroke:#000000;stroke-width:3"
       transform="matrix(0.26458333,0,0,0.26458333,-682.20119,89.925122)" />
  </g>
</svg>
