<?xml version="1.0" encoding="UTF-8"?>
<svg xmlns="http://www.w3.org/2000/svg" xmlns:xlink="http://www.w3.org/1999/xlink" width="600" height="660">
<defs>
  <radialGradient id="rg" gradientUnits="userSpaceOnUse" cx="220" cy="220" r="405">
    <stop style="stop-color:#fff;stop-opacity:.3" offset="0"/>
    <stop style="stop-color:#fff;stop-opacity:.2" offset=".2"/>
    <stop style="stop-color:#666;stop-opacity:.1" offset=".6"/>
    <stop style="stop-color:#000;stop-opacity:.13" offset="1"/>
  </radialGradient>
  <clipPath id="clip-shield">/home/sophian/Documents/stuff/sigils/cross.svg
    <path id="shield" d="m2,2v257c0,286 298,398 298,398c0,0 298-112 298-398V2z"/>
  </clipPath>
</defs>
<use id="background" xlink:href="#shield" style="fill:#ffffff;"/>
<path clip-path="url(#clip-shield)" style="fill:#008800;"
    d="m 250,-24.542
       a 20.35,20.35 0 0 1 0,35.25
       a 20.35,20.35 0 0 1 0,35.25
       a 20.35,20.35 0 0 1 0,35.25
       a 20.35,20.35 0 0 1 0,35.25
       a 20.35,20.35 0 0 1 0,35.25
       a 20.35,20.35 0 0 1 0,35.25
       a 20.35,20.35 0 0 1 0,35.25
       a 20.35,20.35 0 0 1 0,35.25
       
       a 20.35,20.35 0 0 1 -15.45,37.28       
       
       a 20.35,20.35 0 0 1 -24.93,24.93
       a 20.35,20.35 0 0 1 -24.93,24.93
       a 20.35,20.35 0 0 1 -24.93,24.93
       a 20.35,20.35 0 0 1 -24.93,24.93
       a 20.35,20.35 0 0 1 -24.93,24.93
       a 20.35,20.35 0 0 1 -24.93,24.93
       a 20.35,20.35 0 0 1 -24.93,24.93
       a 20.35,20.35 0 0 1 -24.93,24.93
       
       l 70.7,70.7
       
       a 20.35,20.35 0 0 1 24.93,-24.93
       a 20.35,20.35 0 0 1 24.93,-24.93
       a 20.35,20.35 0 0 1 24.93,-24.93
       a 20.35,20.35 0 0 1 24.93,-24.93
       a 20.35,20.35 0 0 1 24.93,-24.93
       a 20.35,20.35 0 0 1 24.93,-24.93
       a 20.35,20.35 0 0 1 24.93,-24.93
       
       a 20.35,20.35 0 1 1 39.35,0
       
       a 20.35,20.35 0 0 1 24.93,24.93
       a 20.35,20.35 0 0 1 24.93,24.93
       a 20.35,20.35 0 0 1 24.93,24.93
       a 20.35,20.35 0 0 1 24.93,24.93
       a 20.35,20.35 0 0 1 24.93,24.93
       a 20.35,20.35 0 0 1 24.93,24.93
       a 20.35,20.35 0 0 1 24.93,24.93
       
       l 70.7,-70.7
       
       a 20.35,20.35 0 0 1 -24.93,-24.93
       a 20.35,20.35 0 0 1 -24.93,-24.93
       a 20.35,20.35 0 0 1 -24.93,-24.93
       a 20.35,20.35 0 0 1 -24.93,-24.93
       a 20.35,20.35 0 0 1 -24.93,-24.93
       a 20.35,20.35 0 0 1 -24.93,-24.93
       a 20.35,20.35 0 0 1 -24.93,-24.93
       a 20.35,20.35 0 0 1 -24.93,-24.93
       
       a 20.35,20.35 0 0 1 -15.45,-37.28
       
       a 20.35,20.35 0 0 1 0,-35.25
       a 20.35,20.35 0 0 1 0,-35.25
       a 20.35,20.35 0 0 1 0,-35.25
       a 20.35,20.35 0 0 1 0,-35.25
       a 20.35,20.35 0 0 1 0,-35.25
       a 20.35,20.35 0 0 1 0,-35.25
       a 20.35,20.35 0 0 1 0,-35.25
       a 20.35,20.35 0 0 1 0,-35.25 z"/>
<g id="trees" style="stroke-width:1;stroke-linejoin:round;stroke-linecap:round;">
    <path id="bare" style="fill:#800000;stroke:#330000;" d="m 311.51,511.82 c 0,0 -0.23,-4.5 1.55,-6.55 2.75,-3.15 13.68,-13.38 22.1,-17.19 6.47,-2.93 25.1,-2.84 29.11,-4.15 l -0.97,-2.87 c -1.11,-1.07 -19.68,0.72 -23.22,-0.64 -4.55,-1.76 7.65,-14.23 9.09,-15.63 l -3.59,-1.36 c -8.91,4.07 -15.91,19.42 -17.67,20.9 -5.01,4.21 -13.47,9.18 -16.09,9.17 0.26,-4.73 -0.19,-8.04 0.65,-10.77 2.6,-8.4 14.83,-24.87 20.27,-30 l -3.41,-2.91 c -3.29,2.05 -6.28,7.84 -11.03,11.89 -0.85,-0.3 -3.03,-5.18 -4.43,-6.74 l -3.36,1.66 c 0,1.4 2.89,10.29 2.75,11.29 -2.49,3.57 -4.74,7.06 -6.11,9.58 -1.57,2.89 -4.74,9.52 -6.76,14.58 -1.4,3.54 -3.08,7.17 -2.85,11.82 -0.23,-4.67 1.5,-8.28 2.85,-11.82 -2.17,-2.01 -5.73,-5 -7.77,-7.82 -0.76,-1.06 0,-11.74 0.77,-12.78 1.3,-1.85 0.98,-7.47 1.72,-13.79 0.37,-3.18 11.93,-10.76 12.56,-11.26 l -1.78,-2.61 c -3.29,0.12 -12.81,5.93 -15.87,10.12 -1.24,0.14 -12.06,-7.61 -14.58,-10.12 l -2.58,1.62 c 1.94,2.23 4.05,4.02 6.05,5.75 1.82,1.57 9.81,8.36 8.98,11.09 -1.83,6.09 -2.77,16.85 -3.35,17.86 -3.24,-1.16 -14.41,-8.11 -19.91,-9.26 -3.18,-4.74 -6.38,-14.38 -10.04,-18.47 l -3.26,1.07 c 1.76,6.22 3.58,11.85 6.29,17.88 l 5.55,6.92 c 8.99,3.26 19.86,9.56 21.13,19.07 0.66,4.88 1.3,8.15 1.13,11.39 0.65,2.52 1.63,3.64 2.52,6.6 0.67,2.2 1.21,6.78 0.99,10.88 -0.24,4.7 0.75,17 0.22,21.98 -1.94,3.33 -0.58,11.24 -0.87,14.35 -1.28,13.63 -4.19,13.19 -23.68,16.1 -2.58,0.39 -10.28,3.26 -19.94,3 14.79,3.88 18.63,2.01 22.37,1.74 7.52,-0.55 7.08,2.52 15.78,0 -7.85,7.67 -2.07,4.58 -9.83,5.57 -5.55,0.73 -11.2,9.39 -22.59,4.56 3.02,2.71 5.81,4.97 7.45,5.27 7.02,1.29 13.85,-6.78 19.95,-4.53 -5.6,8.48 -8.33,13.82 -2.15,20.65 -3.11,-4.86 2.03,-12.75 6,-18.8 2.1,-3.21 5.81,-7.24 8.85,-10.25 -0.27,-2.09 1.03,-4.39 2.11,-6.23 -1.04,1.81 -2.36,4.13 -2.11,6.23 0.21,1.61 0.81,3.61 2.55,5.6 1.95,2.25 5.86,6.47 1.09,8.38 -13.46,5.39 -1.7,17.04 0.44,20.92 -0.42,-5.39 -5.58,-11.22 0.12,-14.42 5,-2.83 11.41,-3.83 8.43,-9.3 -4.79,-8.72 -2.21,-9.24 -2.69,-14.43 1.47,2.78 2.29,5.41 3.59,7.13 11.74,15.3 3.42,18.47 2.24,31.02 15.98,-25.66 2.25,-23.51 2.61,-37.22 8.93,7.87 22.43,19.91 14.23,31.96 9.66,-4.49 5.37,-11.47 5.51,-16.37 6.56,2.27 11.27,1.65 15.47,0.4 -19.7,-3.45 -14.82,-4.1 -25.53,-13.8 -1.62,-1.47 -3.41,-3.24 -4.49,-4.87 1.4,2.01 3.69,4.23 4.49,4.87 2.95,-0.12 5.83,0 9.92,0.22 5.67,0.29 5.22,-2.65 9.17,-1.93 11.48,2.08 15.7,1.18 18.53,-2.41 -5.76,1.59 -10.94,1.22 -16.51,-1.31 -3.66,-1.66 -7.62,1.37 -13.68,-0.47 -11.74,-3.57 -13.01,-6.68 -13.43,-17.32 -0.14,-3.43 0.48,-13.96 0.12,-16.08 -1.19,-6.08 -0.42,-17.26 -0.82,-20.24 -0.37,-2.71 -1.08,-8.03 -0.26,-14.4 z" />
    <g id="green">
        <path style="fill:#800000;stroke:#330000;" d="m 136.11,207.28 c 0,0 -0.22,-4.5 1.56,-6.55 2.74,-3.15 13.68,-13.38 22.09,-17.19 6.47,-2.93 25.11,-2.84 29.11,-4.15 l -0.97,-2.87 c -1.1,-1.07 -19.68,0.72 -23.22,-0.64 -4.54,-1.76 7.66,-14.23 9.1,-15.63 l -3.6,-1.36 c -8.91,4.07 -15.9,19.42 -17.66,20.9 -5.02,4.21 -13.48,9.18 -16.09,9.17 0.25,-4.73 -0.19,-8.04 0.64,-10.77 2.6,-8.4 14.84,-24.87 20.28,-30 l -3.41,-2.91 c -3.3,2.05 -6.29,7.84 -11.03,11.89 -0.86,-0.3 -3.04,-5.18 -4.43,-6.74 l -3.37,1.66 c 0,1.4 2.9,10.29 2.76,11.29 -2.5,3.57 -4.75,7.06 -6.12,9.58 -1.57,2.89 -4.73,9.52 -6.75,14.58 -1.41,3.54 -3.08,7.17 -2.86,11.82 -0.22,-4.67 1.5,-8.28 2.86,-11.82 -2.18,-2.01 -5.73,-5 -7.77,-7.82 -0.76,-1.06 0,-11.74 0.76,-12.78 1.3,-1.85 0.99,-7.47 1.72,-13.79 0.38,-3.18 11.94,-10.76 12.57,-11.26 l -1.78,-2.61 c -3.3,0.12 -12.81,5.93 -15.87,10.12 -1.24,0.14 -12.06,-7.61 -14.58,-10.12 l -2.58,1.62 c 1.934,2.23 4.04,4.02 6.05,5.75 1.81,1.57 9.81,8.36 8.97,11.09 -1.82,6.09 -2.76,16.85 -3.35,17.86 -3.23,-1.16 -14.401,-8.11 -19.909,-9.26 -3.177,-4.74 -6.376,-14.38 -10.033,-18.47 l -3.258,1.07 c 1.758,6.22 3.575,11.85 6.282,17.88 l 5.555,6.92 c 8.99,3.26 19.853,9.56 21.133,19.07 0.65,4.88 1.3,8.15 1.12,11.39 0.66,2.52 1.63,3.64 2.52,6.6 0.67,2.2 1.21,6.78 1,10.88 -0.25,4.7 0.75,17 0.21,21.98 -1.93,3.33 -0.57,11.24 -0.87,14.35 -1.27,13.63 -4.18,13.19 -23.671,16.1 -2.579,0.39 -10.279,3.26 -19.948,3 14.791,3.88 18.635,2.01 22.374,1.74 7.524,-0.55 7.079,2.52 15.775,0 -7.841,7.67 -2.06,4.58 -9.821,5.57 -5.556,0.73 -11.205,9.39 -22.597,4.56 3.024,2.71 5.814,4.97 7.454,5.27 7.021,1.29 13.853,-6.78 19.944,-4.53 -5.598,8.48 -8.329,13.82 -2.14,20.65 -3.118,-4.86 2.03,-12.75 6,-18.8 2.1,-3.21 5.8,-7.24 8.85,-10.25 -0.27,-2.09 1.03,-4.39 2.11,-6.23 -1.05,1.81 -2.37,4.13 -2.11,6.23 0.21,1.61 0.81,3.61 2.54,5.6 1.96,2.25 5.86,6.47 1.09,8.38 -13.45,5.39 -1.7,17.04 0.45,20.92 -0.43,-5.39 -5.58,-11.22 0.11,-14.42 5.01,-2.83 11.42,-3.83 8.43,-9.3 -4.78,-8.72 -2.2,-9.24 -2.68,-14.43 1.46,2.78 2.28,5.41 3.58,7.13 11.75,15.3 3.43,18.47 2.24,31.02 15.99,-25.66 2.25,-23.51 2.62,-37.22 8.93,7.87 22.43,19.91 14.22,31.96 9.66,-4.49 5.37,-11.47 5.51,-16.37 6.56,2.27 11.28,1.65 15.47,0.4 -19.7,-3.45 -14.81,-4.1 -25.52,-13.8 -1.62,-1.47 -3.41,-3.24 -4.49,-4.87 1.39,2.01 3.69,4.23 4.49,4.87 2.95,-0.12 5.82,0 9.91,0.22 5.67,0.29 5.23,-2.65 9.18,-1.93 11.47,2.08 15.69,1.18 18.53,-2.41 -5.77,1.59 -10.95,1.22 -16.52,-1.31 -3.65,-1.66 -7.61,1.37 -13.67,-0.47 -11.75,-3.57 -13.01,-6.68 -13.43,-17.32 -0.15,-3.43 0.48,-13.96 0.11,-16.08 -1.18,-6.08 -0.42,-17.26 -0.82,-20.24 -0.36,-2.71 -1.08,-8.03 -0.26,-14.4 z" />
        <g style="fill:#006600;stroke:#003300;">
            <path d="m 69.906,148.79 c -1.992,-0.53 -3.985,3.63 -5.626,0.12 -3.281,-2.1 -2.109,8.18 -5.625,3.77 -0.703,-3.69 -3.399,-1.53 -5.391,-0.3 -1.407,-0.46 1.523,-3.26 -1.876,-2 -4.219,2.35 -1.875,-4.7 -5.742,-2.67 -3.399,1.19 -0.235,-5.41 -4.923,-4.12 -4.805,1.13 -4.336,-5.21 -9.259,-4.27 -4.453,0.12 2.344,-6.49 -3.164,-4.32 -3.164,1.58 -3.516,-0.92 -3.282,-3.09 -1.289,-1.49 -5.742,-3.3 -1.172,-4.25 4.571,-1.3 -0.234,-2.85 -1.875,-4.33 1.055,-1.03 6.915,-2.07 2.344,-2.69 -1.055,-1.13 1.407,-4.65 -1.406,-2.5 -5.04,1.09 0,-6.24 -3.751,-5.35 -4.57,-0.99 -1.875,-4.63 0.586,-5.37 -2.109,0.58 -7.852,0 -4.219,-2.52 2.813,-1.54 0.117,-1.98 -1.055,-2.32 -1.406,-3.225 8.908,-3.565 2.462,-3.202 -4.806,-3.012 2.812,-4.91 5.742,-3.926 2.11,-0.304 0.235,-2.391 3.048,-2.086 0.937,-1.148 -4.923,-2.215 -1.172,-4.032 2.109,0.364 4.336,-1.3 1.523,-2.543 -4.805,0.809 2.579,-4.805 -2.344,-4.336 -3.633,0.293 -3.75,-1.641 -0.586,-2.579 2.579,-2.543 6.446,-3.492 8.556,-0.234 2.109,1.887 7.501,-1.289 4.688,-2.133 -3.751,1.559 -1.875,-1.629 -2.579,-2.907 -3.867,2.274 -5.156,-4.207 -0.82,-3.844 3.047,-0.457 -0.234,-3.985 3.282,-2.262 1.992,1.325 5.039,0.211 5.625,-0.633 1.993,4.501 7.853,-0.937 9.259,3.235 -1.055,3.118 4.219,3.188 2.93,-0.129 2.93,-1.324 -1.992,-4.16 1.524,-3.434 3.281,-0.34 -1.758,-4.852 2.226,-2.93 1.758,1.196 4.102,4.571 3.751,0.352 1.992,-2.59 5.274,3.41 7.969,0.387 3.985,0.82 0.352,12.962 5.626,8.122" />
            <path d="m 18.221,105.47 c 1.289,2.42 -6.681,-0.82 -3.985,3.01 2.696,6.35 -4.8052,-1.1 -5.86,3.44 3.399,4.07 1.992,5.25 0,6.8 0.586,0.66 1.2892,0.92 2.344,1.37 -1.172,1.09 -2.344,2.12 -2.344,3.04 0,1.86 2.461,2.86 3.75,4.2 -3.0468,2.19 -0.586,3.9 1.758,4.88 1.172,3.4 -1.992,8.45 1.993,10.61 1.641,2.57 -1.993,8.19 2.695,7.1 5.743,-0.86 -3.75,6.1 1.758,6.65 3.282,0.25 2.462,9.23 5.509,4.16 2.813,-5.38 2.695,4.25 4.219,3.93 1.289,-1.49 3.516,-5.88 2.93,-1.04 0.469,2.15 5.508,0.24 1.992,3.1 -1.406,3.95 4.806,3.89 4.923,4.23 -1.407,5.45 2.93,7.61 5.391,3.51 -0.82,1.61 -2.696,8.56 1.172,6.95 2.461,-2.96 1.875,0.11 2.344,2.01 2.461,3.07 5.743,-7.5 3.868,-1.56 -0.352,2.13 0.234,5.48 1.172,5.48 1.758,0 4.102,-4.62 3.633,-7.3 0.234,-2.27 1.289,-4.33 2.227,-2.34 0.82,-2.11 1.992,-3.79 1.992,-0.21 1.055,3.98 3.516,1.23 3.75,-1.42 3.751,0.14 -0.117,6.46 3.868,4.49 4.571,-2.22 -0.938,5.7 2.696,6.78 2.226,-2.03 7.852,-5.86 4.219,-9.77 -0.938,-3.41 0.703,-8.07 3.633,-5.64 -1.641,1.58 -1.992,4.73 0.82,3.7 2.93,0.36 -2.344,3.94 1.29,4.86 2.578,4.36 3.398,-5.87 5.977,-0.81 1.406,-1.09 -1.289,-8.84 2.695,-7.26 -0.937,-2.84 -2.93,-5.53 -0.117,-7.53 1.993,-4.81 -4.102,-3.29 -3.047,-8.15 1.992,1.81 5.391,-0.6 6.329,2.91 0.351,-3.93 2.109,-2.88 3.633,-0.18 2.461,-1.44 -4.571,-9.36 0.234,-6.54 4.458,1.77 -1.758,-7.3 2.227,-7.71 0.121,-4.41 -5.039,-4.49 -5.743,-6.83 0.704,-0.63 1.524,-0.98 2.227,-1.74" />
            <path d="m 219.92,115.17 c -0.23,1.96 10.08,-1.04 8.56,2.54 -0.59,4.77 6.33,-3.18 7.5,1.02 -2.93,2.27 -1.64,3.73 2.11,3.85 3.4,0.54 -4.57,1.34 -0.24,2.47 5.16,1.24 -3.04,4.89 3.75,5.43 -2.46,1.8 -5.15,4.19 -1.87,6.55 2.46,2.49 -2.46,5.15 1.87,7.58 -0.93,1.95 -9.02,1.88 0,5.73 -1.29,2.04 -6.09,2.32 -3.28,5.77 -0.82,2.48 -7.85,-3.05 -5.62,1.94 1.99,4.57 -3.99,0.12 -4.69,0.97 3.05,2.52 -2.58,2.36 -1.88,3.68 5.86,0.86 -1.4,5.01 -2.11,4.78 3.05,2.49 0.36,6.36 -3.63,4.04 -2.58,0.11 5.98,3.55 0.94,4.52 -2.7,-0.55 -4.92,-0.35 -1.99,1.84 -1.88,2.69 -6.57,-1.13 -6.57,-0.49 4.69,2.16 -0.11,5.27 -3.04,2.6 -1.88,-1.21 -3.52,-4.7 -4.58,-2.05 -2.57,-1.62 -3.04,-1.21 -1.99,1.23 -1.87,4.03 -5.62,-3.44 -6.44,1.5 3.04,4.19 -1.18,1.94 -0.94,6.67 -1.52,-0.25 -4.92,-3.61 -6.45,-2.78 -3.4,-0.54 -0.47,-2.88 -3.75,-4.56 -1.52,-2.32 -6.91,0.72 -1.87,1.43 1.4,1.61 -5.98,1.78 -1.41,3.11 1.64,0.87 -0.35,2.52 -2.23,2.8 -1.75,-1.67 -3.28,-1.29 -5.27,0 -0.35,-3.34 -2.34,-4.08 -5.04,-3.75 0.35,-2.09 0.82,-4.56 -2.7,-4.87 -3.86,-2.41 3.52,-3.9 0.24,-6.3 -1.99,2.32 -5.74,0.68 -5.51,3.68 -1.52,-1.61 -3.4,-2.08 -3.87,0.51 -2.46,1.84 -0.82,-5.6 -1.17,-4.79 -2.23,1.34 -4.45,2.78 -4.22,-0.69 0.12,-2.29 -1.29,-2.32 -2.93,-3.21 -1.17,-2.89 9.5,-5.46 9.14,-7.22 -1.05,-0.21 -6.09,-1.8 -7.03,-2.09" />
            <path d="m 139.52,153.43 c 2.35,-0.48 -0.35,4.5 3.75,2.76 5.86,-1.01 -3.04,4.67 1.64,6.08 2.35,-2.23 4.69,-2.59 5.04,0.91 0.82,3.13 1.64,-3.96 3.29,-0.12 1.75,3.59 5.86,-4.13 6.56,0.99 2.34,-0.36 3.75,-4.55 6.91,-1.72 3.64,2.8 6.92,-2.73 10.55,0.66 2.93,1.39 2.11,-7.05 4.92,-2.28 2.58,4.31 3.99,-3.36 8.32,-1.67 3.76,-0.29 -4.1,-5.69 1.29,-4.82 2.58,0 4.81,0 2.35,-2.16 -1.88,-2.02 -1.06,-2 1.52,-1.44 1.06,-0.72 1.29,-4.49 2.58,-1.38 2.58,2.69 4.92,-3.31 5.04,-3.37 3.28,2.17 7.73,-0.54 4.57,-3.48 -0.23,-2.37 4.81,4.48 5.51,0.12 -0.82,-2.04 -0.82,-4 2.11,-1.89 3.16,-1.82 -1.88,-5.16 -1.17,-5.26 3.04,3.51 6.44,-0.81 2.93,-2.84 -1.64,-1.39 -6.1,-2.22 -2.93,-3.48 -2.11,-1.86 -1.76,-2.33 1.29,-1.8 4.45,-1.81 -4.58,-4.97 1.64,-5.15 3.86,2.66 0.82,-5.8 5.39,-2.35 5.04,2.75 0.82,-3.63 0.35,-5.44 -0.94,-2.83 -5.51,1.03 -7.85,-1.5 -2.93,-0.82 0.23,-5.72 1.52,-1.72 2.11,0.98 1.76,-5.22 3.87,-1.33 2.11,0.57 5.74,-2.17 2.34,-3.73 -2.93,-1.38 3.87,-3.21 -0.94,-3.45 -2.46,-0.58 -4.92,-0.71 -3.63,-3.145 -2.69,0.493 -5.51,1.375 -6.33,-1.558 -3.51,-2.755 -3.87,3.153 -7.5,1.218 2.35,-1.734 0.24,-4.992 3.63,-4.934 0.24,-1.054 -3.75,-2.32 0,-3.129 3.99,-2.426 -6.44,-0.41 -5.39,-0.586 1.53,-2.004 3.05,-4.043 -1.17,-3.399 -2.69,0.446 -2.93,-0.691 -4.1,-1.98 -3.63,-0.539 -4.81,3.926 -7.03,3.902 -0.35,-0.785 -0.35,-1.629 -0.82,-2.379" />
            <path d="m 156.63,64.64 c 1.53,0.586 1.18,-3.926 3.52,-2.32 3.75,1.066 -0.23,-3.891 3.05,-5.321 1.17,1.453 2.34,2.989 3.86,-0.27 1.88,-3.316 -0.11,3.27 2.47,-0.152 2.34,-3.188 2.57,3.727 4.8,-0.457 1.64,-0.692 0.94,4.149 3.87,1.723 3.51,-2.649 4.1,2.121 7.27,0 3.98,-2.684 -0.24,5.649 3.28,2.098 2.22,-2.661 2.58,-0.809 3.16,0.984 1.41,0.739 4.57,0.317 1.64,2.79 -3.98,3 2.46,1.511 2.11,2.824 -1.17,1.266 -4.45,3.762 -1.05,2.578 1.29,0.118 -0.47,4.466 1.75,1.149 2.82,-1.828 2.11,3.411 2.23,3.328 3.87,-2.004 4.69,1.407 1.76,3.88 1.05,-0.821 5.51,-3.422 3.98,0.117 -2.11,2.156 -0.58,1.875 1.06,1.465 1.76,1.653 -5.74,6.036 -1.52,3.563 3.98,-1.711 0.93,4.008 -1.65,4.149 -1.17,0.562 -3.16,1.547 -1.52,2.133 -1.76,1.195 -2.69,2.156 -0.12,1.687 2.11,0.762 -0.11,2.79 -1.87,3.259 0,1.957 1.99,1.207 3.05,0.843 -0.71,1.911 -1.41,4.466 1.75,2.637 3.99,-1.828 -1.05,3.263 -1.75,4.703 -1.53,2.92 -3.64,-0.92 -6.22,1.27 -2.11,0.34 -1.99,5.09 0.24,1.83 2.34,-1.64 -0.47,4.61 2.46,1.1 2.11,-0.77 2.93,2.64 0.12,3.57 -2,1.16 1.87,2.63 -1.41,2.78 -1.99,0.39 -3.87,0.48 -3.75,2.66 -1.64,-0.22 -3.4,-1.69 -4.69,0.97 -2.11,1.38 -3.16,0.5 -3.16,-1.22 -1.06,-0.34 -3.17,0 -1.76,1.28 -0.94,1.71 -0.23,3.4 0.7,3.61 -3.4,1.04 -1.05,2.21 -0.7,3.42 -1.99,1.18 -5.39,-2.65 -4.22,0.88 0.24,3.24 -4.69,-0.32 -5.51,2.95 -3.04,0.75 -2.22,-4.19 -4.1,-3.4 -0.35,0.61 -0.7,1.28 -1.17,1.84" />
            <path d="m 89.83,152.73 c 2.344,-0.47 -0.469,4.5 3.75,2.76 5.86,-1.02 -3.047,4.67 1.524,6.07 2.461,-2.21 4.805,-2.59 5.156,0.92 0.82,3.14 1.52,-3.95 3.17,-0.12 1.75,3.6 5.86,-4.14 6.68,0.99 2.22,-0.37 3.75,-9.53 6.79,-6.71 3.64,2.82 5.28,-2.72 8.91,0.68 2.81,1.37 5.51,-5.31 8.44,-0.54 2.58,4.32 2.23,-0.13 6.56,1.57 3.75,-0.29 -4.22,-5.7 1.29,-4.83 2.46,0 4.81,0 2.35,-2.15 -2,-2.03 -1.06,-2.02 1.52,-1.45 0.94,-0.72 1.29,-4.48 2.46,-1.38 2.7,2.69 4.92,-3.31 5.04,-3.36 3.28,2.16 7.85,-0.55 4.69,-3.49 -0.35,-2.36 4.69,4.49 5.51,0.13 -0.82,-2.05 -0.94,-4 1.99,-1.9 3.16,-1.82 -1.88,-5.16 -1.06,-5.26 2.93,3.51 6.33,-0.8 2.82,-2.84 -1.53,-1.38 -5.98,-2.23 -2.82,-3.48 -2.22,-1.86 -1.75,-2.32 1.29,-1.81 4.34,-1.8 -4.57,-4.97 1.64,-5.13 3.75,2.65 0.71,-5.81 5.28,-2.37 5.04,2.76 0.94,-3.62 0.35,-5.42 -13.6,-0.85 -4.1,-6.71 -2.34,-4.56 2.1,0.57 5.62,-2.17 2.34,-3.73 -2.93,-1.38 3.75,-3.21 -1.06,-3.46 -2.34,-0.57 -4.8,-0.69 -3.51,-3.138 -2.81,0.504 -5.63,1.368 -6.45,-1.559 -3.4,-2.742 -3.87,3.157 -7.5,1.231 2.46,-1.746 0.24,-4.993 3.75,-4.946 0.12,-1.043 -3.87,-2.32 -0.12,-3.129 4.11,-2.426 -6.32,-0.41 -5.27,-0.586 1.41,-1.992 2.93,-4.032 -1.17,-3.399 -2.81,0.445 -2.93,-0.691 -4.22,-1.969 -3.52,-0.551 -4.81,3.915 -6.92,3.903 -0.35,-0.785 -0.46,-1.641 -0.93,-2.391" />
            <path d="m 25.136,113.4 0.82,0.56 -3.399,1.67 3.165,3.73 c -3.399,-0.53 -6.095,0.14 -7.618,2.24 l 4.805,1.44 -3.868,3.74 3.751,-0.66 -1.641,3.46 4.805,1.45 -1.992,2.45 5.274,0.85 0.703,5.35 4.102,1.82 0.351,4.32 5.86,-0.93 -1.875,4.36 5.04,0.56 2.695,3.18 3.634,-4.02 3.398,4.02 2.696,-3.95 0.938,2.55 3.984,-0.83 -1.875,2.47 c 2.11,1.75 4.337,1.75 6.798,0.46 0.234,2.18 0.586,4.18 2.93,4.6 l 4.102,-3.44 c -0.235,1.82 -2.227,3.74 0.586,5.37 l 4.102,-2.76 v 2.63 l 3.047,-0.32 2.11,-4.07 -0.586,2.96 1.523,1.5 3.282,-1.96 0.469,-5.58 1.758,1.06 1.172,-2.84 1.523,2.67 2.813,0.12 0.469,-3.21 2.93,0.82 -0.117,2.34 4.8,-1.6 0.83,4.91 3.98,-3.47 2.58,-2.78 -3.05,-2.3 -0.47,-3.9 3.75,-1.13 -1.29,3.29 4.57,-0.7 -1.4,2.55 4.22,1.35 2.11,-3.62 2.93,0.83 -1.64,-5.31 2.81,-0.6 -3.63,-3.13 1.75,-2.01 -0.58,-2.75 -3.28,0.12 -1.76,-2.52 c 2.22,0.58 4.22,0.62 5.62,-1.21 l 2.23,1.88 0.7,-2.97 4.11,1.81 c -1.18,-1.72 -1.06,-3.76 -4.93,-4.81 l 5.28,-0.32 -2.93,-4.65 1.87,-1.28 -1.87,-1.34 c -1.88,-1.61 -4.46,-1.15 -6.92,-1.16 l 2.82,-2.52 c 0,0 0,0 0,0" />
            <path d="m 60.53,69.34 c -0.938,-8.884 -5.04,-8.005 -6.212,-8.052 -1.289,0 -2.461,0 -1.64,1.958 0.351,4.781 -4.454,-2.438 -7.384,0.117 1.172,2.332 3.282,4.559 -1.641,4.36 -4.453,0.211 4.219,1.746 -0.351,2.59 -5.157,0.879 3.984,5.227 -1.993,5.239 -1.406,1.558 5.157,3.352 1.407,5.309 -2.813,2.039 -1.641,4.114 -0.469,6.504 -1.993,2.075 -3.985,4.126 0.469,4.806 5.625,1.336 -6.681,2.695 -0.938,4.84 3.516,1.266 -0.586,6.949 4.571,4.619 5.743,-3.201 -0.235,6.01 4.336,3.57 2.11,-0.84 4.102,-1.65 2.227,0.77 -0.352,1.53 5.743,1.8 1.289,2.63 -3.516,1.85 3.516,4.41 3.516,4.51 -3.047,2.38 -0.234,6.34 3.633,4.16 2.696,0.15 -5.977,3.33 -0.82,4.49 2.578,-0.47 4.922,-0.21 1.992,1.88 1.876,2.76 6.564,-0.89 6.564,-0.27 -4.571,2.02 0.234,5.27 3.164,2.69 1.875,-1.13 3.399,-4.58 4.571,-1.89 2.461,-1.53 3.047,-1.12 1.992,1.29 1.758,4.09 5.509,-3.24 6.329,1.71 -4.571,2.82 6.915,1.74 1.758,5.12 -3.516,3.48 4.688,0.78 6.798,0.69 3.398,-0.42 -0.586,-4.55 2.695,-6.13 1.407,-2.26 6.917,0.94 1.875,1.47 -1.406,1.58 6.212,2.06 1.172,3.3 -0.937,1.63 1.99,4.85 4.22,2.38 2.11,-2.25 3.52,3.48 4.34,-0.4 1.05,-1.91 1.52,-3.83 4.22,-2.53 0,-1.92 -1.18,-4.78 2.46,-4.76 4.1,-2.39 -3.05,-3.89 -0.24,-6.49 1.29,1.45 4.22,2.12 5.28,1.98 -0.36,3.34 1.4,0.7 3.16,0.58 0.7,1.62 2.34,4.02 2.46,0.73 0.82,-1.92 -2.11,-5.26 1.41,-2.65 4.22,3.14 1.17,-5.03 5.62,-4.52 1.06,-2.85 -4.22,-4.42 -3.86,-6.18 0.93,-0.16 4.45,-7.12 5.39,-7.39" />
            <path d="m 158.74,80.568 c -1.52,-1.336 4.57,-2.168 1.18,-4.067 -3.4,-3.446 5.27,-0.785 5.5,-4.407 -2.57,-0.855 -5.27,-1.558 -1.75,-3.879 3.39,-2.766 -4.22,0.879 -1.06,-2.485 2.93,-3.223 -6.33,-1.64 -1.99,-4.887 0.12,-1.852 -5.98,0.117 -4.34,-3.41 1.76,-4.102 -4.92,-3.481 -3.75,-7.196 1.53,-4.571 -7.26,1.804 -4.45,-2.661 2.34,-2.895 -0.35,-2.778 -3.05,-2.895 -1.64,-1.207 -2.81,-4.43 -4.45,-0.844 -1.88,4.7 -3.4,-2.027 -4.92,-1.336 -1.06,1.418 -2.58,5.345 -2.82,1.723 -0.82,-1.312 -5.62,1.664 -2.46,-1.477 0.94,-3.246 -5.62,-1.148 -5.62,-1.336 0.58,-4.336 -4.34,-4.242 -5.98,-0.656 0.47,-1.289 1.76,-4.196 -0.47,-4.606 -2.23,2.45 -4.1,2.438 -4.45,0 -2.93,0.117 -4.22,6.341 -5.75,0 -2.22,0.938 -3.75,2.532 -2.58,5.192 -0.11,1.324 -0.35,3.528 -1.99,2.039 -0.58,2.086 -1.4,3.2 -2.22,0.539 -2.114,-1.851 -3.638,0.844 -3.286,2.673 -2.578,0.515 -2.578,-1.571 -2.696,-2.743 -2.226,1.149 -5.156,2.555 -4.453,-1.02 0.351,-4.453 -3.751,1.852 -5.274,2.977 -3.047,2.286 3.164,3.305 1.523,6.388 0.704,2.215 -5.625,3.317 -2.461,0.328 0.938,-2.719 -5.86,1.641 -2.813,-2.18 0,-2.227 -5.039,-2.203 -4.688,0.844 -0.468,2.309 -4.453,-1.114 -2.93,2.145 0.469,2.039 1.407,3.902 -1.64,4.324 1.172,1.606 4.102,2.954 1.289,4.981 -0.703,2.391 0.937,3.153 3.164,2.708 1.055,0.984 1.758,3.199 -0.703,2.074 -1.758,1.465 -4.336,1.231 -5.157,0.316 0.469,3.669 -2.344,1.548 -4.102,1.583 -0.469,2.332 6.329,4.664 1.055,4.406 -4.454,0.551 2.93,4.559 -1.055,6.235 0.586,3.118 6.798,1.102 6.681,3.083 -0.586,0.586 -1.29,1.019 -1.758,1.676" />
            <path d="m 162.61,102.24 c -1.41,-1.34 4.1,-2.17 1.06,-4.057 -3.05,-3.446 4.8,-0.797 4.92,-4.418 -2.35,-0.856 -4.69,-1.559 -1.53,-3.88 3.17,-2.766 -3.86,0.879 -0.93,-2.484 2.69,-3.223 -5.75,-1.629 -1.76,-4.888 0,-1.84 -5.51,0.118 -3.99,-3.41 1.53,-4.102 -4.45,-3.481 -3.39,-7.196 1.28,-4.559 -6.68,1.805 -4.11,-2.661 2.11,-2.894 -0.35,-2.777 -2.69,-2.894 -1.64,-1.208 -2.58,-4.431 -4.22,-0.844 -1.64,4.699 -2.93,-2.028 -4.34,-1.325 -1.05,1.407 -2.46,5.333 -2.58,1.711 -0.82,-1.312 -5.15,1.676 -2.22,-1.476 0.82,-3.247 -5.16,-1.149 -5.16,-1.336 0.59,-4.337 -3.87,-4.243 -5.39,-0.657 0.47,-1.289 1.41,-6.375 -1.99,-3.938 -1.64,2.591 -2,1.079 -2.35,-0.644 -2.81,-1.371 -4.45,7.243 -3.51,2.449 0.11,-4.465 -5.28,0.117 -4.22,2.719 -0.12,1.325 -0.35,3.54 -1.76,2.04 -0.59,2.097 -1.41,3.199 -1.99,0.539 -2,-1.852 -3.4,0.844 -3.05,2.672 -2.34,0.516 -2.46,-1.571 -2.46,-2.743 -1.99,1.149 -4.69,2.555 -3.99,-1.019 0.24,-4.454 -3.512,1.852 -4.801,2.988 -2.813,2.274 2.813,3.294 1.406,6.376 0.586,2.215 -5.157,3.317 -2.344,0.328 0.938,-2.719 -5.274,1.641 -2.461,-2.18 -0.117,-2.227 -4.571,-2.203 -4.336,0.844 -0.469,2.309 -4.102,-1.113 -2.696,2.145 0.469,2.039 1.289,3.903 -1.406,4.336 1.054,1.606 3.633,2.942 1.054,4.97 -0.586,2.402 0.938,3.152 2.93,2.707 0.938,0.984 1.641,3.199 -0.586,2.074 -1.64,1.465 -3.984,1.231 -4.688,0.317 0.352,3.668 -2.226,1.559 -3.75,1.582 -0.469,2.332 5.743,4.665 0.938,4.407 -4.102,0.551 2.578,4.559 -0.938,6.236 0.586,3.12 6.094,1.1 6.094,3.08 -0.586,0.59 -1.289,1.02 -1.64,1.69" />
        </g>
    </g>
    <g>
        <path style="fill:#800000;stroke:#330000;" d="m 486.11,207.28 c 0,0 -0.22,-4.5 1.56,-6.55 2.74,-3.15 13.68,-13.38 22.09,-17.19 6.47,-2.93 25.11,-2.84 29.11,-4.15 l -0.97,-2.87 c -1.1,-1.07 -19.68,0.72 -23.22,-0.64 -4.54,-1.76 7.66,-14.23 9.1,-15.63 l -3.6,-1.36 c -8.91,4.07 -15.9,19.42 -17.66,20.9 -5.02,4.21 -13.48,9.18 -16.09,9.17 0.25,-4.73 -0.19,-8.04 0.64,-10.77 2.6,-8.4 14.84,-24.87 20.28,-30 l -3.41,-2.91 c -3.3,2.05 -6.29,7.84 -11.03,11.89 -0.86,-0.3 -3.04,-5.18 -4.43,-6.74 l -3.37,1.66 c 0,1.4 2.9,10.29 2.76,11.29 -2.5,3.57 -4.75,7.06 -6.12,9.58 -1.57,2.89 -4.73,9.52 -6.75,14.58 -1.41,3.54 -3.08,7.17 -2.86,11.82 -0.22,-4.67 1.5,-8.28 2.86,-11.82 -2.18,-2.01 -5.73,-5 -7.77,-7.82 -0.76,-1.06 0,-11.74 0.76,-12.78 1.3,-1.85 0.99,-7.47 1.72,-13.79 0.38,-3.18 11.94,-10.76 12.57,-11.26 l -1.78,-2.61 c -3.3,0.12 -12.81,5.93 -15.87,10.12 -1.24,0.14 -12.06,-7.61 -14.58,-10.12 l -2.58,1.62 c 1.93,2.23 4.04,4.02 6.05,5.75 1.81,1.57 9.81,8.36 8.97,11.09 -1.82,6.09 -2.76,16.85 -3.35,17.86 -3.23,-1.16 -14.4,-8.11 -19.91,-9.26 -3.18,-4.74 -6.38,-14.38 -10.03,-18.47 l -3.26,1.07 c 1.76,6.22 3.57,11.85 6.28,17.88 l 5.56,6.92 c 8.99,3.26 19.85,9.56 21.13,19.07 0.65,4.88 1.3,8.15 1.12,11.39 0.66,2.52 1.63,3.64 2.52,6.6 0.67,2.2 1.21,6.78 1,10.88 -0.25,4.7 0.75,17 0.21,21.98 -1.93,3.33 -0.57,11.24 -0.87,14.35 -1.27,13.63 -4.18,13.19 -23.67,16.1 -2.58,0.39 -10.28,3.26 -19.95,3 14.79,3.88 18.64,2.01 22.37,1.74 7.53,-0.55 7.08,2.52 15.78,0 -7.84,7.67 -2.06,4.58 -9.82,5.57 -5.56,0.73 -11.21,9.39 -22.6,4.56 3.03,2.71 5.82,4.97 7.46,5.27 7.02,1.29 13.85,-6.78 19.94,-4.53 -5.6,8.48 -8.33,13.82 -2.14,20.65 -3.12,-4.86 2.03,-12.75 6,-18.8 2.1,-3.21 5.8,-7.24 8.85,-10.25 -0.27,-2.09 1.03,-4.39 2.11,-6.23 -1.05,1.81 -2.37,4.13 -2.11,6.23 0.21,1.61 0.81,3.61 2.54,5.6 1.96,2.25 5.86,6.47 1.09,8.38 -13.45,5.39 -1.7,17.04 0.45,20.92 -0.43,-5.39 -5.58,-11.22 0.11,-14.42 5.01,-2.83 11.42,-3.83 8.43,-9.3 -4.78,-8.72 -2.2,-9.24 -2.68,-14.43 1.46,2.78 2.28,5.41 3.58,7.13 11.75,15.3 3.43,18.47 2.24,31.02 15.99,-25.66 2.25,-23.51 2.62,-37.22 8.93,7.87 22.43,19.91 14.22,31.96 9.66,-4.49 5.37,-11.47 5.51,-16.37 6.56,2.27 11.28,1.65 15.47,0.4 -19.7,-3.45 -14.81,-4.1 -25.52,-13.8 -1.62,-1.47 -3.41,-3.24 -4.49,-4.87 1.39,2.01 3.69,4.23 4.49,4.87 2.95,-0.12 5.82,0 9.91,0.22 5.67,0.29 5.23,-2.65 9.18,-1.93 11.47,2.08 15.69,1.18 18.53,-2.41 -5.77,1.59 -10.95,1.22 -16.52,-1.31 -3.65,-1.66 -7.61,1.37 -13.67,-0.47 -11.75,-3.57 -13.01,-6.68 -13.43,-17.32 -0.15,-3.43 0.48,-13.96 0.11,-16.08 -1.18,-6.08 -0.42,-17.26 -0.82,-20.24 -0.36,-2.71 -1.08,-8.03 -0.26,-14.4 z" />
        <g style="fill:#cc0000;stroke:#880000;">
            <path d="m 419.91,148.79 c -2,-0.53 -3.99,3.63 -5.63,0.12 -3.28,-2.1 -2.11,8.18 -5.63,3.77 -0.7,-3.69 -3.39,-1.53 -5.39,-0.3 -1.4,-0.46 1.53,-3.26 -1.87,-2 -4.22,2.35 -1.88,-4.7 -5.74,-2.67 -3.4,1.19 -0.24,-5.41 -4.93,-4.12 -4.8,1.13 -4.33,-5.21 -9.26,-4.27 -4.45,0.12 2.35,-6.49 -3.16,-4.32 -3.16,1.58 -3.52,-0.92 -3.28,-3.09 -1.29,-1.49 -5.74,-3.3 -1.17,-4.25 4.57,-1.3 -0.24,-2.85 -1.88,-4.33 1.06,-1.03 6.92,-2.07 2.35,-2.69 -1.06,-1.13 1.4,-4.65 -1.41,-2.5 -5.04,1.09 0,-6.24 -3.75,-5.35 -4.57,-0.99 -1.88,-4.63 0.58,-5.37 -2.11,0.58 -7.85,0 -4.21,-2.52 2.81,-1.54 0.11,-1.98 -1.06,-2.32 -1.41,-3.225 8.91,-3.565 2.46,-3.202 -4.8,-3.012 2.81,-4.91 5.74,-3.926 2.11,-0.304 0.24,-2.391 3.05,-2.086 0.94,-1.148 -4.92,-2.215 -1.17,-4.032 2.11,0.364 4.34,-1.3 1.52,-2.543 -4.8,0.809 2.58,-4.805 -2.34,-4.336 -3.63,0.293 -3.75,-1.641 -0.59,-2.579 2.58,-2.543 6.45,-3.492 8.56,-0.234 2.11,1.887 7.5,-1.289 4.69,-2.133 -3.75,1.559 -1.88,-1.629 -2.58,-2.907 -3.87,2.274 -5.16,-4.207 -0.82,-3.844 3.05,-0.457 -0.24,-3.985 3.28,-2.262 1.99,1.325 5.04,0.211 5.63,-0.633 1.99,4.501 7.85,-0.937 9.25,3.235 -1.05,3.118 4.22,3.188 2.93,-0.129 2.93,-1.324 -1.99,-4.16 1.53,-3.434 3.28,-0.34 -1.76,-4.852 2.22,-2.93 1.76,1.196 4.11,4.571 3.75,0.352 2,-2.59 5.28,3.41 7.97,0.387 3.99,0.82 0.36,12.962 5.63,8.122" />
            <path d="m 368.22,105.47 c 1.29,2.42 -6.68,-0.82 -3.98,3.01 2.69,6.35 -4.81,-1.1 -5.86,3.44 3.39,4.07 1.99,5.25 0,6.8 0.58,0.66 1.29,0.92 2.34,1.37 -1.17,1.09 -2.34,2.12 -2.34,3.04 0,1.86 2.46,2.86 3.75,4.2 -3.05,2.19 -0.59,3.9 1.75,4.88 1.18,3.4 -1.99,8.45 2,10.61 1.64,2.57 -2,8.19 2.69,7.1 5.75,-0.86 -3.75,6.1 1.76,6.65 3.28,0.25 2.46,9.23 5.51,4.16 2.81,-5.38 2.69,4.25 4.22,3.93 1.29,-1.49 3.51,-5.88 2.93,-1.04 0.47,2.15 5.51,0.24 1.99,3.1 -1.41,3.95 4.81,3.89 4.92,4.23 -1.4,5.45 2.93,7.61 5.39,3.51 -0.82,1.61 -2.69,8.56 1.18,6.95 2.46,-2.96 1.87,0.11 2.34,2.01 2.46,3.07 5.74,-7.5 3.87,-1.56 -0.35,2.13 0.23,5.48 1.17,5.48 1.76,0 4.1,-4.62 3.63,-7.3 0.24,-2.27 1.29,-4.33 2.23,-2.34 0.82,-2.11 1.99,-3.79 1.99,-0.21 1.06,3.98 3.52,1.23 3.75,-1.42 3.75,0.14 -0.11,6.46 3.87,4.49 4.57,-2.22 -0.94,5.7 2.7,6.78 2.22,-2.03 7.85,-5.86 4.21,-9.77 -0.93,-3.41 0.71,-8.07 3.64,-5.64 -1.64,1.58 -1.99,4.73 0.82,3.7 2.93,0.36 -2.35,3.94 1.29,4.86 2.58,4.36 3.4,-5.87 5.97,-0.81 1.41,-1.09 -1.28,-8.84 2.7,-7.26 -0.94,-2.84 -2.93,-5.53 -0.12,-7.53 2,-4.81 -4.1,-3.29 -3.04,-8.15 1.99,1.81 5.39,-0.6 6.32,2.91 0.36,-3.93 2.11,-2.88 3.64,-0.18 2.46,-1.44 -4.57,-9.36 0.23,-6.54 4.46,1.77 -1.76,-7.3 2.23,-7.71 0.12,-4.41 -5.04,-4.49 -5.74,-6.83 0.7,-0.63 1.52,-0.98 2.22,-1.74" />
            <path d="m 569.92,115.17 c -0.23,1.96 10.08,-1.04 8.56,2.54 -0.59,4.77 6.33,-3.18 7.5,1.02 -2.93,2.27 -1.64,3.73 2.11,3.85 3.4,0.54 -4.57,1.34 -0.24,2.47 5.16,1.24 -3.04,4.89 3.75,5.43 -2.46,1.8 -5.15,4.19 -1.87,6.55 2.46,2.49 -2.46,5.15 1.87,7.58 -0.93,1.95 -9.02,1.88 0,5.73 -1.29,2.04 -6.09,2.32 -3.28,5.77 -0.82,2.48 -7.85,-3.05 -5.62,1.94 1.99,4.57 -3.99,0.12 -4.69,0.97 3.05,2.52 -2.58,2.36 -1.88,3.68 5.86,0.86 -1.4,5.01 -2.11,4.78 3.05,2.49 0.36,6.36 -3.63,4.04 -2.58,0.11 5.98,3.55 0.94,4.52 -2.7,-0.55 -4.92,-0.35 -1.99,1.84 -1.88,2.69 -6.57,-1.13 -6.57,-0.49 4.69,2.16 -0.11,5.27 -3.04,2.6 -1.88,-1.21 -3.52,-4.7 -4.58,-2.05 -2.57,-1.62 -3.04,-1.21 -1.99,1.23 -1.87,4.03 -5.62,-3.44 -6.44,1.5 3.04,4.19 -1.18,1.94 -0.94,6.67 -1.52,-0.25 -4.92,-3.61 -6.45,-2.78 -3.4,-0.54 -0.47,-2.88 -3.75,-4.56 -1.52,-2.32 -6.91,0.72 -1.87,1.43 1.4,1.61 -5.98,1.78 -1.41,3.11 1.64,0.87 -0.35,2.52 -2.23,2.8 -1.75,-1.67 -3.28,-1.29 -5.27,0 -0.35,-3.34 -2.34,-4.08 -5.04,-3.75 0.35,-2.09 0.82,-4.56 -2.7,-4.87 -3.86,-2.41 3.52,-3.9 0.24,-6.3 -1.99,2.32 -5.74,0.68 -5.51,3.68 -1.52,-1.61 -3.4,-2.08 -3.87,0.51 -2.46,1.84 -0.82,-5.6 -1.17,-4.79 -2.23,1.34 -4.45,2.78 -4.22,-0.69 0.12,-2.29 -1.29,-2.32 -2.93,-3.21 -1.17,-2.89 9.5,-5.46 9.14,-7.22 -1.05,-0.21 -6.09,-1.8 -7.03,-2.09" />
            <path d="m 489.52,153.43 c 2.35,-0.48 -0.35,4.5 3.75,2.76 5.86,-1.01 -3.04,4.67 1.64,6.08 2.35,-2.23 4.69,-2.59 5.04,0.91 0.82,3.13 1.64,-3.96 3.29,-0.12 1.75,3.59 5.86,-4.13 6.56,0.99 2.34,-0.36 3.75,-4.55 6.91,-1.72 3.64,2.8 6.92,-2.73 10.55,0.66 2.93,1.39 2.11,-7.05 4.92,-2.28 2.58,4.31 3.99,-3.36 8.32,-1.67 3.76,-0.29 -4.1,-5.69 1.29,-4.82 2.58,0 4.81,0 2.35,-2.16 -1.88,-2.02 -1.06,-2 1.52,-1.44 1.06,-0.72 1.29,-4.49 2.58,-1.38 2.58,2.69 4.92,-3.31 5.04,-3.37 3.28,2.17 7.73,-0.54 4.57,-3.48 -0.23,-2.37 4.81,4.48 5.51,0.12 -0.82,-2.04 -0.82,-4 2.11,-1.89 3.16,-1.82 -1.88,-5.16 -1.17,-5.26 3.04,3.51 6.44,-0.81 2.93,-2.84 -1.64,-1.39 -6.1,-2.22 -2.93,-3.48 -2.11,-1.86 -1.76,-2.33 1.29,-1.8 4.45,-1.81 -4.58,-4.97 1.64,-5.15 3.86,2.66 0.82,-5.8 5.39,-2.35 5.04,2.75 0.82,-3.63 0.35,-5.44 -0.94,-2.83 -5.51,1.03 -7.85,-1.5 -2.93,-0.82 0.23,-5.72 1.52,-1.72 2.11,0.98 1.76,-5.22 3.87,-1.33 2.11,0.57 5.74,-2.17 2.34,-3.73 -2.93,-1.38 3.87,-3.21 -0.94,-3.45 -2.46,-0.58 -4.92,-0.71 -3.63,-3.145 -2.69,0.493 -5.51,1.375 -6.33,-1.558 -3.51,-2.755 -3.87,3.153 -7.5,1.218 2.35,-1.734 0.24,-4.992 3.63,-4.934 0.24,-1.054 -3.75,-2.32 0,-3.129 3.99,-2.426 -6.44,-0.41 -5.39,-0.586 1.53,-2.004 3.05,-4.043 -1.17,-3.399 -2.69,0.446 -2.93,-0.691 -4.1,-1.98 -3.63,-0.539 -4.81,3.926 -7.03,3.902 -0.35,-0.785 -0.35,-1.629 -0.82,-2.379" />
            <path d="m 506.63,64.64 c 1.53,0.586 1.18,-3.926 3.52,-2.32 3.75,1.066 -0.23,-3.891 3.05,-5.321 1.17,1.453 2.34,2.989 3.86,-0.27 1.88,-3.316 -0.11,3.27 2.47,-0.152 2.34,-3.188 2.57,3.727 4.8,-0.457 1.64,-0.692 0.94,4.149 3.87,1.723 3.51,-2.649 4.1,2.121 7.27,0 3.98,-2.684 -0.24,5.649 3.28,2.098 2.22,-2.661 2.58,-0.809 3.16,0.984 1.41,0.739 4.57,0.317 1.64,2.79 -3.98,3 2.46,1.511 2.11,2.824 -1.17,1.266 -4.45,3.762 -1.05,2.578 1.29,0.118 -0.47,4.466 1.75,1.149 2.82,-1.828 2.11,3.411 2.23,3.328 3.87,-2.004 4.69,1.407 1.76,3.88 1.05,-0.821 5.51,-3.422 3.98,0.117 -2.11,2.156 -0.58,1.875 1.06,1.465 1.76,1.653 -5.74,6.036 -1.52,3.563 3.98,-1.711 0.93,4.008 -1.65,4.149 -1.17,0.562 -3.16,1.547 -1.52,2.133 -1.76,1.195 -2.69,2.156 -0.12,1.687 2.11,0.762 -0.11,2.79 -1.87,3.259 0,1.957 1.99,1.207 3.05,0.843 -0.71,1.911 -1.41,4.466 1.75,2.637 3.99,-1.828 -1.05,3.263 -1.75,4.703 -1.53,2.92 -3.64,-0.92 -6.22,1.27 -2.11,0.34 -1.99,5.09 0.24,1.83 2.34,-1.64 -0.47,4.61 2.46,1.1 2.11,-0.77 2.93,2.64 0.12,3.57 -2,1.16 1.87,2.63 -1.41,2.78 -1.99,0.39 -3.87,0.48 -3.75,2.66 -1.64,-0.22 -3.4,-1.69 -4.69,0.97 -2.11,1.38 -3.16,0.5 -3.16,-1.22 -1.06,-0.34 -3.17,0 -1.76,1.28 -0.94,1.71 -0.23,3.4 0.7,3.61 -3.4,1.04 -1.05,2.21 -0.7,3.42 -1.99,1.18 -5.39,-2.65 -4.22,0.88 0.24,3.24 -4.69,-0.32 -5.51,2.95 -3.04,0.75 -2.22,-4.19 -4.1,-3.4 -0.35,0.61 -0.7,1.28 -1.17,1.84" />
            <path d="m 439.83,152.73 c 2.34,-0.47 -0.47,4.5 3.75,2.76 5.86,-1.02 -3.05,4.67 1.52,6.07 2.47,-2.21 4.81,-2.59 5.16,0.92 0.82,3.14 1.52,-3.95 3.17,-0.12 1.75,3.6 5.86,-4.14 6.68,0.99 2.22,-0.37 3.75,-9.53 6.79,-6.71 3.64,2.82 5.28,-2.72 8.91,0.68 2.81,1.37 5.51,-5.31 8.44,-0.54 2.58,4.32 2.23,-0.13 6.56,1.57 3.75,-0.29 -4.22,-5.7 1.29,-4.83 2.46,0 4.81,0 2.35,-2.15 -2,-2.03 -1.06,-2.02 1.52,-1.45 0.94,-0.72 1.29,-4.48 2.46,-1.38 2.7,2.69 4.92,-3.31 5.04,-3.36 3.28,2.16 7.85,-0.55 4.69,-3.49 -0.35,-2.36 4.69,4.49 5.51,0.13 -0.82,-2.05 -0.94,-4 1.99,-1.9 3.16,-1.82 -1.88,-5.16 -1.06,-5.26 2.93,3.51 6.33,-0.8 2.82,-2.84 -1.53,-1.38 -5.98,-2.23 -2.82,-3.48 -2.22,-1.86 -1.75,-2.32 1.29,-1.81 4.34,-1.8 -4.57,-4.97 1.64,-5.13 3.75,2.65 0.71,-5.81 5.28,-2.37 5.04,2.76 0.94,-3.62 0.35,-5.42 -13.6,-0.85 -4.1,-6.71 -2.34,-4.56 2.1,0.57 5.62,-2.17 2.34,-3.73 -2.93,-1.38 3.75,-3.21 -1.06,-3.46 -2.34,-0.57 -4.8,-0.69 -3.51,-3.138 -2.81,0.504 -5.63,1.368 -6.45,-1.559 -3.4,-2.742 -3.87,3.157 -7.5,1.231 2.46,-1.746 0.24,-4.993 3.75,-4.946 0.12,-1.043 -3.87,-2.32 -0.12,-3.129 4.11,-2.426 -6.32,-0.41 -5.27,-0.586 1.41,-1.992 2.93,-4.032 -1.17,-3.399 -2.81,0.445 -2.93,-0.691 -4.22,-1.969 -3.52,-0.551 -4.81,3.915 -6.92,3.903 -0.35,-0.785 -0.46,-1.641 -0.93,-2.391" />
            <path d="m 375.14,113.4 0.82,0.56 -3.4,1.67 3.16,3.73 c -3.4,-0.53 -6.09,0.14 -7.62,2.24 l 4.81,1.44 -3.87,3.74 3.75,-0.66 -1.64,3.46 4.81,1.45 -2,2.45 5.28,0.85 0.7,5.35 4.1,1.82 0.35,4.32 5.86,-0.93 -1.87,4.36 5.04,0.56 2.69,3.18 3.64,-4.02 3.4,4.02 2.69,-3.95 0.94,2.55 3.98,-0.83 -1.87,2.47 c 2.11,1.75 4.34,1.75 6.8,0.46 0.23,2.18 0.58,4.18 2.93,4.6 l 4.1,-3.44 c -0.24,1.82 -2.23,3.74 0.58,5.37 l 4.11,-2.76 v 2.63 l 3.04,-0.32 2.11,-4.07 -0.58,2.96 1.52,1.5 3.28,-1.96 0.47,-5.58 1.76,1.06 1.17,-2.84 1.53,2.67 2.81,0.12 0.47,-3.21 2.93,0.82 -0.12,2.34 4.8,-1.6 0.83,4.91 3.98,-3.47 2.58,-2.78 -3.05,-2.3 -0.47,-3.9 3.75,-1.13 -1.29,3.29 4.57,-0.7 -1.4,2.55 4.22,1.35 2.11,-3.62 2.93,0.83 -1.64,-5.31 2.81,-0.6 -3.63,-3.13 1.75,-2.01 -0.58,-2.75 -3.28,0.12 -1.76,-2.52 c 2.22,0.58 4.22,0.62 5.62,-1.21 l 2.23,1.88 0.7,-2.97 4.11,1.81 c -1.18,-1.72 -1.06,-3.76 -4.93,-4.81 l 5.28,-0.32 -2.93,-4.65 1.87,-1.28 -1.87,-1.34 c -1.88,-1.61 -4.46,-1.15 -6.92,-1.16 l 2.82,-2.52 c 0,0 0,0 0,0" />
            <path d="m 410.53,69.34 c -0.94,-8.884 -5.04,-8.005 -6.21,-8.052 -1.29,0 -2.46,0 -1.64,1.958 0.35,4.781 -4.46,-2.438 -7.39,0.117 1.18,2.332 3.29,4.559 -1.64,4.36 -4.45,0.211 4.22,1.746 -0.35,2.59 -5.16,0.879 3.99,5.227 -1.99,5.239 -1.41,1.558 5.16,3.352 1.41,5.309 -2.82,2.039 -1.65,4.114 -0.47,6.504 -2,2.075 -3.99,4.126 0.47,4.806 5.62,1.336 -6.68,2.695 -0.94,4.84 3.51,1.266 -0.59,6.949 4.57,4.619 5.74,-3.201 -0.24,6.01 4.34,3.57 2.1,-0.84 4.1,-1.65 2.22,0.77 -0.35,1.53 5.74,1.8 1.29,2.63 -3.51,1.85 3.52,4.41 3.52,4.51 -3.05,2.38 -0.24,6.34 3.63,4.16 2.7,0.15 -5.98,3.33 -0.82,4.49 2.58,-0.47 4.92,-0.21 1.99,1.88 1.88,2.76 6.57,-0.89 6.57,-0.27 -4.58,2.02 0.23,5.27 3.16,2.69 1.88,-1.13 3.4,-4.58 4.57,-1.89 2.46,-1.53 3.05,-1.12 1.99,1.29 1.76,4.09 5.51,-3.24 6.33,1.71 -4.57,2.82 6.92,1.74 1.76,5.12 -3.52,3.48 4.69,0.78 6.8,0.69 3.4,-0.42 -0.59,-4.55 2.69,-6.13 1.41,-2.26 6.92,0.94 1.88,1.47 -1.41,1.58 6.21,2.06 1.17,3.3 -0.94,1.63 1.99,4.85 4.22,2.38 2.11,-2.25 3.52,3.48 4.34,-0.4 1.05,-1.91 1.52,-3.83 4.22,-2.53 0,-1.92 -1.18,-4.78 2.46,-4.76 4.1,-2.39 -3.05,-3.89 -0.24,-6.49 1.29,1.45 4.22,2.12 5.28,1.98 -0.36,3.34 1.4,0.7 3.16,0.58 0.7,1.62 2.34,4.02 2.46,0.73 0.82,-1.92 -2.11,-5.26 1.41,-2.65 4.22,3.14 1.17,-5.03 5.62,-4.52 1.06,-2.85 -4.22,-4.42 -3.86,-6.18 0.93,-0.16 4.45,-7.12 5.39,-7.39" />
            <path d="m 508.74,80.568 c -1.52,-1.336 4.57,-2.168 1.18,-4.067 -3.4,-3.446 5.27,-0.785 5.5,-4.407 -2.57,-0.855 -5.27,-1.558 -1.75,-3.879 3.39,-2.766 -4.22,0.879 -1.06,-2.485 2.93,-3.223 -6.33,-1.64 -1.99,-4.887 0.12,-1.852 -5.98,0.117 -4.34,-3.41 1.76,-4.102 -4.92,-3.481 -3.75,-7.196 1.53,-4.571 -7.26,1.804 -4.45,-2.661 2.34,-2.895 -0.35,-2.778 -3.05,-2.895 -1.64,-1.207 -2.81,-4.43 -4.45,-0.844 -1.88,4.7 -3.4,-2.027 -4.92,-1.336 -1.06,1.418 -2.58,5.345 -2.82,1.723 -0.82,-1.312 -5.62,1.664 -2.46,-1.477 0.94,-3.246 -5.62,-1.148 -5.62,-1.336 0.58,-4.336 -4.34,-4.242 -5.98,-0.656 0.47,-1.289 1.76,-4.196 -0.47,-4.606 -2.23,2.45 -4.1,2.438 -4.45,0 -2.93,0.117 -4.22,6.341 -5.75,0 -2.22,0.938 -3.75,2.532 -2.58,5.192 -0.11,1.324 -0.35,3.528 -1.99,2.039 -0.58,2.086 -1.4,3.2 -2.22,0.539 -2.11,-1.851 -3.64,0.844 -3.29,2.673 -2.57,0.515 -2.57,-1.571 -2.69,-2.743 -2.23,1.149 -5.16,2.555 -4.46,-1.02 0.36,-4.453 -3.75,1.852 -5.27,2.977 -3.05,2.286 3.17,3.305 1.52,6.388 0.71,2.215 -5.62,3.317 -2.46,0.328 0.94,-2.719 -5.86,1.641 -2.81,-2.18 0,-2.227 -5.04,-2.203 -4.69,0.844 -0.47,2.309 -4.45,-1.114 -2.93,2.145 0.47,2.039 1.41,3.902 -1.64,4.324 1.17,1.606 4.1,2.954 1.29,4.981 -0.7,2.391 0.94,3.153 3.17,2.708 1.05,0.984 1.75,3.199 -0.71,2.074 -1.76,1.465 -4.33,1.231 -5.15,0.316 0.46,3.669 -2.35,1.548 -4.11,1.583 -0.47,2.332 6.33,4.664 1.06,4.406 -4.46,0.551 2.93,4.559 -1.06,6.235 0.59,3.118 6.8,1.102 6.68,3.083 -0.58,0.586 -1.29,1.019 -1.75,1.676" />
            <path d="m 512.61,102.24 c -1.41,-1.34 4.1,-2.17 1.06,-4.057 -3.05,-3.446 4.8,-0.797 4.92,-4.418 -2.35,-0.856 -4.69,-1.559 -1.53,-3.88 3.17,-2.766 -3.86,0.879 -0.93,-2.484 2.69,-3.223 -5.75,-1.629 -1.76,-4.888 0,-1.84 -5.51,0.118 -3.99,-3.41 1.53,-4.102 -4.45,-3.481 -3.39,-7.196 1.28,-4.559 -6.68,1.805 -4.11,-2.661 2.11,-2.894 -0.35,-2.777 -2.69,-2.894 -1.64,-1.208 -2.58,-4.431 -4.22,-0.844 -1.64,4.699 -2.93,-2.028 -4.34,-1.325 -1.05,1.407 -2.46,5.333 -2.58,1.711 -0.82,-1.312 -5.15,1.676 -2.22,-1.476 0.82,-3.247 -5.16,-1.149 -5.16,-1.336 0.59,-4.337 -3.87,-4.243 -5.39,-0.657 0.47,-1.289 1.41,-6.375 -1.99,-3.938 -1.64,2.591 -2,1.079 -2.35,-0.644 -2.81,-1.371 -4.45,7.243 -3.51,2.449 0.11,-4.465 -5.28,0.117 -4.22,2.719 -0.12,1.325 -0.35,3.54 -1.76,2.04 -0.59,2.097 -1.41,3.199 -1.99,0.539 -2,-1.852 -3.4,0.844 -3.05,2.672 -2.34,0.516 -2.46,-1.571 -2.46,-2.743 -1.99,1.149 -4.69,2.555 -3.99,-1.019 0.24,-4.454 -3.51,1.852 -4.8,2.988 -2.81,2.274 2.81,3.294 1.41,6.376 0.58,2.215 -5.16,3.317 -2.35,0.328 0.94,-2.719 -5.27,1.641 -2.46,-2.18 -0.12,-2.227 -4.57,-2.203 -4.34,0.844 -0.47,2.309 -4.1,-1.113 -2.69,2.145 0.47,2.039 1.29,3.903 -1.41,4.336 1.06,1.606 3.63,2.942 1.06,4.97 -0.59,2.402 0.93,3.152 2.93,2.707 0.93,0.984 1.64,3.199 -0.59,2.074 -1.64,1.465 -3.98,1.231 -4.69,0.317 0.35,3.668 -2.22,1.559 -3.75,1.582 -0.47,2.332 5.74,4.665 0.94,4.407 -4.1,0.551 2.58,4.559 -0.94,6.236 0.59,3.12 6.1,1.1 6.1,3.08 -0.59,0.59 -1.29,1.02 -1.64,1.69" />
        </g>
    </g>
</g>
<use id="shine" xlink:href="#shield" fill="url(#rg)" stroke="#000" stroke-width="3"/>
</svg>
