<?xml version="1.0" encoding="UTF-8"?>
<svg xmlns="http://www.w3.org/2000/svg" xmlns:xlink="http://www.w3.org/1999/xlink" width="600" height="660">
<defs>
  <radialGradient id="rg" gradientUnits="userSpaceOnUse" cx="220" cy="220" r="405">
    <stop style="stop-color:#ffffff;stop-opacity:.3" offset="0"/>
    <stop style="stop-color:#ffffff;stop-opacity:.2" offset=".2"/>
    <stop style="stop-color:#666666;stop-opacity:.1" offset=".6"/>
    <stop style="stop-color:#000000;stop-opacity:.13" offset="1"/>
  </radialGradient>
  <path id="shield" d="m2,2v257c0,286 298,398 298,398c0,0 298-112 298-398V2z"/>
</defs>
<use id="field" xlink:href="#shield" style="fill:#cc0000;"/>
<g id="hand" style="fill:#ffffff;stroke:#cc0000;stroke-width:2;" >
    <path d="m 187.24,469.17 c -1.05,1.24 -1.9,2.8 -2.88,3.85 -1.75,1.96 -2.41,3.57 -3.32,5.91 -1.5,4.02 -1.67,9.33 -0.26,13.54 1.08,3.24 7.88,5.77 7.27,9.02 2.45,1.52 2.52,4.91 5.57,6.33 4.88,2.2 11.65,-0.82 15.76,-3.65 5.71,-4 5.73,-9.68 2.48,-15.14 -1.6,-2.68 -1.94,-4.22 -2.54,-7.19 -1.38,-6.76 -15.04,-20.61 -22.08,-12.67 z" id="path2123" />
    <path d="m 254.66,526.48 c 2.15,4.48 -6.41,14.42 -9.18,18.07 -2.51,3.24 -5.04,9.75 -8.56,11.96 -3.3,2.06 -9.67,-2.46 -12.81,-4.39 -8.37,-5.22 -13.48,-15.11 -19.13,-22.94 -4.05,-5.6 -8.8,-11.79 -10.3,-18.66 -0.69,-3.22 -1.36,-11.84 3.8,-11.83 3.39,-0.23 4.69,2.62 7.61,0.13 0.78,-0.71 1.78,-2.08 2.27,-2.96 0.59,-1.1 -0.1,-2.29 1.43,-3.24 2.37,-1.6 5.92,0.25 8.1,1.19 11.72,5.78 24.8,11.98 33.89,21.71 4.3,4.53 1.5,6.68 3.3,11.06" id="path2129" />
    <path id="path2139" d="m 277.73,561.43 c -2.59,1.57 -4.81,2.62 -7.89,3.04 -5.42,1.04 -11.97,1.49 -17.53,0.39 -3.49,-0.68 -10.34,-2.03 -11.55,-6.05 -1.26,-4.22 3.1,-10.66 4.46,-14.75 1.62,-4.87 2.91,-8.42 6,-12.69 2.35,-3.22 5.49,-5.01 8.06,-7.8 3.78,-4.19 0.62,-7.87 7.54,-8.3 6.81,-0.48 16.2,3.77 20.02,9.69 3.4,5.25 3.27,14 2.43,19.94 -1.09,7.58 -5.03,12.63 -11.54,16.53 z" />
    <path d="m 223.65,509.67 c -2.42,-1.79 -4.75,-3.72 -6.98,-5.73 -1.23,-1.07 -2.87,-2.13 -3.98,-3.29 -1.89,-1.97 -3.29,-4.87 -4.82,-7.12 -1.74,-2.41 -4.01,-5.39 -4.37,-8.49 -0.31,-2.73 0.95,-5.62 1.83,-8.16 -3.15,-1.02 -2.3,-4.81 -0.75,-6.8 2.22,-2.89 7.5,-3.93 11.28,-5.7 4.31,-1.99 6.56,-3.45 11.5,-3.28 6.73,0.19 13.58,0.94 20.29,1.05 1.92,13.84 11.08,24.5 14.78,37.8 1.47,5.32 5.18,11.26 4.07,16.96 -0.28,1.57 -1.37,3.29 -1.86,4.76 -0.59,1.68 -0.14,2.69 -1.86,3.91 -7.25,5.08 -16.68,-3 -22.41,-6.32 -4.12,-2.44 -8.69,-4.29 -12.67,-6.82 -1.38,-0.88 -2.73,-1.83 -4.05,-2.77 z" id="path2149" />
    <path d="m 287.66,521.31 c -1.1,0.73 -3.8,0.26 -4.59,1.29 -1.79,1.76 -0.47,6.69 -0.68,9.18 -0.51,6.84 -0.23,10.47 2.31,16.62 3.51,8.5 10.81,8.72 18.89,9.12 4.96,0.31 9.37,1.17 14.26,-0.35 5.85,-2.1 10.77,-6.04 14.22,-11.05 1.97,-2.87 2.87,-6.39 5.46,-8.86 2.98,-2.89 7.54,-2.63 10.51,-5.24 0.87,-0.71 1.18,-2.37 2.17,-3.09 1.59,-1.09 4.24,-0.96 6.09,-1.8 4.24,-2.38 3.63,-7.43 3.32,-11.72 -0.4,-5.65 -2.25,-6.7 -7.48,-8.75 -5.17,-2.04 -9.97,-4.84 -15.1,-7.09 -5.85,-2.54 -13.91,-5.81 -20.46,-4.97 -6.02,1.08 -8.47,8.29 -11.17,12.79 -3.73,6.15 -11.19,11.36 -17.72,14.24 z" id="path2255" />
    <path d="m 354.38,470.34 c -2.72,-1.71 -4.12,-4.34 -6.22,-6.73 -2.51,-2.96 -5.28,-3.1 -8.45,-4.77 -3.54,4.95 -8.15,9.96 -10.97,15.52 -2.17,4.19 -5.82,8.89 -7.18,13.37 -1.29,4.26 -1.23,9.28 -2.36,13.47 4.71,0.33 9.22,-0.64 13.82,0.86 2.05,0.57 3.99,1.35 5.54,2.75 1.14,0.96 1.65,2.29 2.96,2.98 5.36,2.96 13.27,1.29 18.7,1.89 1.58,-6.31 7.84,-6.61 12.38,-9.61 6.22,-4.09 0.76,-13.64 0,-19.19 -1.21,-8.92 -11.83,-6.55 -18.23,-10.54 z" id="path2265" />
    <path d="m 308.17,520.7 c 3.52,-4.22 2.84,-12.47 2.43,-17.65 -0.28,-3.96 -1.29,-7.75 -2.53,-11.52 -1.77,-5.42 -4.45,-10.5 -7.09,-15.55 -1.79,-3.47 -3.76,-7.25 -1.72,-11.04 -2.15,0.93 -3.59,4.04 -5.41,5.66 0.92,-2.35 5.37,-7.23 2.04,-9.47 -2.33,-1.6 -6.3,1.09 -9.49,-0.96 -2.9,-1.7 -5.36,-4.66 -8.36,-6.41 -4.04,-2.32 -10.2,-2.22 -14.86,-2.47 -7.3,-0.48 -13.46,7.14 -15.23,13.46 -2.45,8.79 3.57,15.93 8.32,22.65 3.91,5.53 7.85,13.1 8.71,19.75 0.32,2.73 -0.1,4.52 1.43,6.63 1.46,1.99 4.18,3.29 5.52,5.81 1.83,3.4 0.97,3.33 4.4,4.98 6.84,3.44 9.28,8.09 17.49,5.43 5.97,-1.91 13.41,-6.41 16.17,-12.3" id="path2277" />
    <path d="m 334.58,473.04 c -1.8,-4.11 -5.03,-6.69 -8.7,-8.72 -4.35,-2.37 -7.09,-6.04 -10.8,-9.11 -7.38,-6.01 -13.31,4.79 -17.95,9.88 -2.66,2.99 -3.96,4.59 -2.55,8.73 1.03,3 2.3,6.22 3.32,9.16 1.15,3.32 3.19,6.7 5.58,9.33 1.15,1.3 2.92,3.59 4.39,4.46 2.13,1.35 3.63,0.85 6.19,1.27 7.3,1.12 16.88,8.09 22.57,-0.53 1.31,-2 0.41,-8.72 0.37,-11.2 -0.1,-4.43 -0.64,-9.15 -2.42,-13.27 z" id="path2283" />
    <path d="m 481.01,302.11 c -0.98,0.19 -1.59,-0.39 -2.32,0.4 0.1,-4.77 4.53,-8.53 7.88,-11.29 3.47,-2.8 8.47,-1.48 11.97,0.74 3.36,2.26 6.43,4.7 6.11,8.84 -0.36,1.78 -0.31,5.08 -0.9,6.57 -0.86,1.93 -3.44,2.67 -4.72,4.46 0,0 -0.74,-0.53 -0.74,-0.53 1.73,4.27 -6.11,4.38 -8.79,5.39 0.75,-1.01 1.6,-1.88 2.48,-2.83 -1.82,3.96 -5.82,6.31 -7.45,10.3 -0.5,1.27 -1.25,3.06 -1.2,4.5 0.27,1.48 1.33,2.29 0.73,4.05 0.59,-1.16 0.82,-2.46 1.12,-3.72 1.48,0.49 2.43,2.1 1.92,3.72 -0.44,1.33 -1.43,0.92 -1.95,1.72 -0.54,0.75 -0.37,1.66 -0.57,2.49 -0.97,3.79 -4.38,6.64 -8.46,6.37 -4.08,-0.29 -8.46,-6.39 -10.88,-9.28 -1.36,-1.67 -2.95,-3.63 -4.09,-5.56 -0.88,-1.29 -1.77,-5.63 -3.5,-4.55 -1.09,-2.5 -0.32,-6.93 2.34,-8.21 1.93,-0.98 2.04,0.33 3.98,0.18 1.41,-0.25 2.52,-1.11 3.74,-1.37 2.58,-1.41 5.81,-2.63 7.93,-4.51 2.41,-2.08 3.51,-5.24 5.44,-7.43 0.64,-0.16 0.17,0.63 0.17,0.7" id="path2157" />
    <path d="m 459.33,385.53 c 1.48,-4.21 3.78,-8.05 4.7,-12.42 0.94,-4.91 2.41,-8.91 4.77,-13.37 1.29,-2.5 3.64,-4.76 4.51,-7.34 0.48,-1.29 0.19,-2.75 0.86,-4.02 0.71,-1.4 2.09,-2.47 2.96,-3.85 2.17,-3.35 1.15,-5.13 -1.57,-7.85 -0.92,-0.94 -2.18,-2.55 -3.49,-3.15 -1.12,-0.58 -2.62,-0.14 -3.7,-0.59 -0.91,-0.48 -0.25,-1.28 -1.19,-1.95 -1.29,-1.42 -2.74,-3.04 -4.54,-3.82 -2.69,-1.18 -6.49,-0.89 -9.05,0.29 -8.66,3.84 -3.17,12.72 -2.99,19.32 0.28,8.38 -5.37,16.27 -10.06,22.72 -4.71,6.39 -8.99,11.22 -15.65,14.73 -3.98,2.07 -7.74,11.11 -3.2,14.59 1.89,1.49 4.98,1 7.25,1.47 2.58,0.56 4.86,1.68 6.91,3.29 1.51,1.22 2.34,1.71 4.28,2.44 2.24,0.89 6.94,4.14 9.34,3.92 3.38,-0 6.84,-8.33 7.28,-11.14 0.75,-4.53 1.02,-8.84 2.53,-13.26 z" id="path2163" />
    <path d="m 387.73,277.48 c -3.68,-8.89 -6.35,-18.58 -7.22,-28.09 -0.35,-3.39 -0.41,-7.43 -0.19,-10.87 0.33,-4.3 -0.27,-8.8 0.31,-13.09 0.51,-3.64 1.99,-7.13 2.09,-10.79 0,-2.93 -1.41,-5.42 -1.86,-8.16 -0.41,-2.87 1.08,-4.1 1.45,-6.83 0.36,-2.52 -1.77,-5.41 -1.47,-8.03 0.31,-2.52 1.88,-3.41 1.24,-6.28 -0.69,-3.08 -2.18,-6.22 -2.9,-9.36 -0.92,-4.11 -2.21,-8.42 -7.3,-8.23 -7.04,0.61 -15.64,5.4 -22.22,0.82 -0.15,0.84 -0.35,1.62 0.1,2.6 -3.28,1.33 -3.06,1.59 -3.97,5.22 -0.55,2.22 -2.64,5.5 -2.3,7.59 0.43,2.42 2.77,4.28 3.36,6.76 0.71,3 -0.4,6.17 0.28,9.17 0.36,1.57 1.89,3.03 1.74,4.72 -0.16,1.76 -1.41,2.2 -1.35,4.22 0.1,2.54 1.62,5.68 2.08,8.29 2.69,15.21 3.53,32.54 -3.76,46.77 -2.07,3.94 -7.28,8.31 -7.71,12.92 -0.31,3.18 4.02,12.62 7.03,13.97 1.44,0.67 3.24,-0.62 4.94,-0.59 2.36,0 4.78,0.71 7.01,1.32 5.49,1.51 10.32,1.89 16.02,1.26 2.78,-0.61 5.35,-1.55 8.12,-1.85 2.35,0 3.4,0 4.69,-2.15 0.92,-1.56 1.38,-5 1.88,-6.74 0.54,-2.02 0.81,-2.47 -0.1,-4.64 z" id="path2175" />
    <path d="m 349.95,106.23 c 4.67,-0.55 13.69,-2.64 17.21,1.52 2.63,2.94 3.64,8.21 3.43,11.98 -0.13,2.34 -1.55,4.41 -1.56,6.75 0,3.67 1.34,7.78 1.83,11.44 0.73,5.39 0.59,13.86 4.58,17.91 1.33,1.3 3,2.76 3.55,4.69 0.27,0.98 0.25,1.94 -0.15,2.99 -0.38,1.26 -0.45,2.45 -0.9,3.66 -0.67,1.78 -2.41,2.1 -3.77,3.13 -2.2,1.71 -3.8,3.84 -6.26,5.29 -1.91,1.15 -3.89,1.49 -6.14,1 -3.73,-0.85 -6.22,-3.58 -9.25,-5.58 -3.19,-1.98 -7.28,-2.5 -7.09,-7.32 0.14,-2.6 2,-4.08 2.89,-6.3 1.74,-4.49 1.03,-10.12 2.19,-14.83 2.07,-8.31 -0.34,-13.84 -3.83,-21.13 0,0 0.1,-0.64 -0.15,-0.64 -0.26,0 -0.58,0 -0.89,0.61 -0.36,-1.91 -0.49,-3.88 -0.92,-5.72 -0.25,0 -0.25,0 -0.53,0.62 -0.33,-1.39 0.61,-1.86 0.85,-2.96 0.17,-1.04 -0,-2.16 0.26,-3.11 0.88,-2.83 2.23,-3.09 4.52,-3.36 z" id="path2183" />
    <path d="m 364.71,83.838 c -1.17,3.19 0.69,6.869 1.71,9.785 1.33,3.857 2.75,4.99 5.78,7.347 7.55,5.78 -7.38,10.68 -12.13,10.51 -4.62,-0 -13.85,-2.9 -15.89,-7.66 -1.21,-2.86 1.92,-3.82 3.42,-5.66 1.9,-2.268 2.09,-5.97 2.68,-8.648 0.55,-2.896 0.64,-5.274 0.37,-8.166 -0.95,0.384 -1.67,1.037 -2.39,1.554 -0.7,-1.394 -1.13,-3.991 -1.38,-5.498 -0.28,-1.617 -0.66,-3.923 -0.39,-5.544 1.26,-0.543 1.03,-2.802 1.66,-4.108 0.94,-1.613 2.79,-3.198 4.58,-3.869 3.49,-1.19 6.54,-0.07 9.52,1.311 -0.26,0.598 0.17,0.806 0.2,1.214 0,-1.514 3.28,1.055 3.26,1.738 0.99,1.409 1.17,3.25 1.65,4.842 0.5,1.591 2.62,6.8 -0.86,6.623 1.96,0.635 2.01,2.645 0.87,4.123 -0.39,0.549 -3.37,2.131 -2.71,0.351 z" id="path2191" />
    <path d="m 192.75,224.77 c -1.11,2.7 -4.64,4.19 -5.5,7.25 -0.32,1.19 0.31,2.72 0,3.98 -0.4,1.67 -1.66,3.12 -2.14,4.79 -1.2,4.12 -0.73,9.11 -0.66,13.56 0.13,8.21 2.2,14.26 3.29,22.33 0.84,6.35 0.25,12.66 1.21,18.92 0.48,3.29 0.73,7.77 -3.92,8.1 0.78,11.24 -15.12,-0.31 -20.37,-0.65 -2.19,-0.51 -5.46,1.04 -7.49,0.53 -3.1,-0.64 -1.2,0.1 -2.4,-2.9 -1.33,-3.37 -4.42,-6.23 -4.25,-9.89 0.17,-4.84 4.84,-10 6.98,-14.2 2.46,-4.87 3.73,-10.11 4.87,-15.28 1.03,-4.71 0.68,-9.65 1.65,-14.28 0.82,-3.91 2.15,-7.2 2.31,-11.33 0.34,-8.24 -0.89,-16.45 2.64,-24.2 2.08,-4.58 4.99,-3.23 9.69,-3.87 3.53,-0.25 9.33,0.64 11.49,3.55 1.92,2.69 3.92,10.63 2.66,13.73 z" id="path2201" />
    <path d="m 190.15,215.11 c 5.2,-4.87 5.58,-7.25 4.02,-13.79 -1.38,-5.72 -1.56,-12.36 -1.28,-18.26 0.1,-2.29 0.1,-5.55 0.82,-7.76 0.68,-1.82 3.1,-3.02 3.58,-4.62 1.01,-3.21 -1.81,-9.33 -3.18,-12.05 -3.43,1.08 -5.03,-1.02 -8.11,-1.65 -2.87,-0.65 -5.12,1.34 -7.88,0.55 -2.02,3.41 -3.87,6.35 -5.07,10.08 5.95,5.46 2.65,15.95 0.71,22.67 -1,3.4 -1.79,5.08 -4.27,7.21 -2.78,2.43 -4.59,2.67 -4.92,6.35 -0.54,6.11 5.44,10.4 10.59,11.79 2.49,0.67 6.79,-0.47 9.6,-0.67 3.22,-0.23 6.55,0.83 7.95,-4.16" id="path2209" />
    <path d="m 192.54,129.51 c 0.37,0.62 -1.38,9.03 -1.16,10.51 0.53,3.82 3.4,4.47 4.89,7.69 0.76,1.57 -1.19,8.44 -2.57,6.65 3.75,4.82 -2.65,3.44 -4.55,3.96 -1.51,0.76 -5.33,5.66 -6.11,0.43 -5.92,1.53 -8.06,-1.78 -9.88,-6.15 -0.31,-0.64 -1.75,-0.86 -2.2,-1.94 -0.17,-0.64 0.4,-3.94 0.55,-4.47 0.65,-2.33 1.33,-4.22 3.18,-5.97 3.75,4.63 11.4,-14.25 5.02,-17.91 2.01,-5.5 2.07,-14.51 9.79,-11.79 8.18,2.96 9.02,12.88 6.39,20.04 -1.38,-0.54 -2.33,-0.47 -3.37,-1.31 z" id="path2217" />
    <path d="m 253.13,282.49 c -0.76,-3.4 -3.37,-6.62 -4.5,-10 -1.44,-4.4 -1.8,-8.68 -2.2,-13.23 -0.77,-9.27 -0.36,-17.58 0.18,-26.84 0.39,-7 1.52,-14.07 1.65,-21.05 0.1,-3.8 -1.99,-6.52 -2.29,-10.36 5.69,0.26 6.54,-10.11 6.85,-14.17 0.24,-2.97 1.04,-6.41 -0.45,-9.05 -1.17,-2.14 -7.18,-7.79 -9.52,-8.6 -4.34,-1.53 -9.96,0.7 -14.43,1.01 -2.79,0.2 -7.01,-1.4 -9.39,0 -3.81,2.28 -5.19,7.87 -5.58,11.93 -0.62,6.58 2.9,8.16 4.7,13.71 0.93,2.81 -0.11,7.91 -0.34,10.86 -0.47,6.03 -0.77,11.94 -1.16,18.04 -0.78,11.66 -1.33,23.25 -4.32,34.76 -3.57,0.25 -3.01,3.86 -3.87,6.54 -1.05,3.46 -3.12,6.41 -4.9,9.54 -2.04,3.54 -1.82,2.87 -1.4,6.89 0.52,4.46 0.4,5.65 4.24,9.03 6.36,5.56 13.47,3.24 21.69,2.92 5.81,-0.4 12.06,2.88 17.87,2.01 5.62,-1.04 8.35,-8.62 7.15,-13.88 z" id="path2225" />
    <path d="m 226.89,132.59 c -2.05,7.44 -5.73,14.95 -7.54,22.12 -2.05,8.11 0.42,10.74 5.18,17.07 8.16,10.78 20.92,3.76 31.19,1.79 0.84,-3.19 2.99,-5.16 3.45,-8.14 0.7,-4.49 -2.41,-11.39 -3.35,-15.82 -2.44,-11.44 -3.86,-21.73 0.96,-32.05 2.15,-4.58 5.02,-18.815 1.06,-22.728 -3.17,-3.166 -8.72,-0.36 -12.33,-0.368 -3.78,0.265 -10.52,-4.28 -13.91,-3.064 -3.66,1.359 -4.89,8.88 -4.78,12.27 0.18,4.23 2.89,7.95 2.75,12.21 -0.13,2.89 -1.09,6.02 -1.28,8.97 -0.15,2.56 -0.67,5.14 -1.4,7.74 z" id="path2237" />
    <path d="m 254.49,78.435 c 0.53,2.18 1.04,4.759 2.02,6.714 0.68,1.317 2.65,2.556 3.03,3.893 0.78,2.619 -2.45,4.409 -4.75,6.265 -2.4,2.002 -5.39,3.064 -8.56,3.607 -5.47,1.046 -11.06,-0.979 -14.9,-4.819 -2.43,-2.381 -5.75,-3.98 -3.77,-7.643 1.79,-3.185 5.28,-5.716 6.99,-9.36 1.75,-3.705 1.73,-7.752 2.52,-11.663 0.4,-1.983 1.37,-4.075 0.41,-5.9 -0.67,1.025 -1.67,1.162 -2.42,1.671 -2.74,-7.51 2.9,-24.223 12.15,-20.433 1.09,0.577 1.39,1.926 2.35,2.446 0.56,0.613 2.01,-0.141 2.89,0.515 0.94,0.587 2.86,3.716 3.52,4.845 1.83,2.939 0.81,5.164 1.26,7.873 0.35,2.129 3.66,6.927 0.37,7.873 0.18,0.772 -0.1,1.837 -0.34,2.572 -3.46,-0.611 -4.6,-2.555 -4.76,2.482 -0.12,3.011 1.21,6.182 1.96,9.064 z" id="path2249" />
    <path d="m 318.98,292.58 c 1.44,-1.02 0.2,-2.82 0.46,-3.88 0.74,-3.06 3.32,-3.69 4.27,-6.77 0.96,-3.06 2.01,-8.56 0.85,-11.68 -0.72,-1.83 -2.5,-3.68 -3.37,-5.57 -1.37,-2.91 -3.41,-6.48 -3.91,-9.64 -0.58,-3.49 0.1,-7.52 -0.2,-11.02 -0.62,-8.84 -1.9,-17.62 -2.17,-26.41 -0.28,-8.53 -3.65,-17.05 -1.94,-25.79 0.83,-4.16 3.41,-7.14 4.41,-11.13 1.23,-4.92 1.71,-10.24 0.21,-15.09 -0.77,-2.5 -2.26,-6.77 -4.33,-8.25 -2.78,-2.09 -9.13,0.64 -12.33,0.2 -6.22,-0.2 -23.18,-4.64 -20.28,6.72 -0.91,-0.59 -1.72,0.12 -2.65,-0.47 -1.08,2.88 -0.35,8.84 0.27,11.34 0.45,1.73 0.66,3.74 0.95,5.16 0.39,1.73 1.92,2.99 2.6,4.71 1.56,3.81 0.42,7.87 0.15,11.67 -0.79,9.38 -0.37,19.15 -0.2,28.54 0.14,8.47 -1.04,16.52 -1.7,24.86 -0.3,4.13 -0.8,6.96 -2.66,10.82 -1.77,3.58 -4.03,7.08 -4.5,11.09 -0.39,3.48 -0,8.61 1.35,11.78 0.86,1.89 3.84,7.24 5.83,7.88 0.66,-0 3.06,-0.87 3.92,-0.93 1.65,-0.11 3,-0.21 4.74,0.32 2.89,0.46 6.22,0.74 8.91,0.62 3.72,-0.26 7.37,-1.31 11.1,-1.43 2.8,-0.2 7.83,3.62 10.11,2.1 z" id="path2289" />
    <path d="m 313.41,97.822 c 0.18,2.618 -1.7,6.678 -2.34,9.458 -1.03,4.5 -0.51,9.29 -0.38,13.93 0.18,4.9 0.2,9.66 1.13,14.47 0.72,4.01 1.98,7.74 3.52,11.49 1.07,2.66 1.68,4.84 0.17,7.56 -4.04,7.4 -14.57,9.88 -22.38,8.33 -6.65,-1.36 -16.23,-8.54 -14.66,-16.14 0.44,-2.21 2.23,-4.71 3.05,-6.81 1.4,-3.51 2.32,-7.11 2.99,-10.86 1.03,-5.68 2.26,-11.28 2.34,-17.08 0,-4.04 -0.22,-6.73 -2.17,-10.17 -1.77,-3.152 -2.49,-4.114 -0.93,-7.601 1.16,-2.619 1.24,-5.617 3.47,-7.184 3.16,-2.303 5.96,-1.044 9.61,-0.674 2.89,0.162 5.47,-0.543 8.24,-0.463 5.35,0.306 8,7.116 8.32,11.695 z" id="path2297" />
    <path d="m 311.34,88.564 c -2.37,2.452 -4.07,5.458 -7.34,6.389 -5.47,1.626 -7.87,-2.756 -11.76,-5.22 -2.92,-1.869 -6.27,-0.222 -9.12,-3.914 -2.47,-3.078 -2.72,-6.984 0.1,-9.363 0.83,-0.707 2.11,-0.853 3.14,-1.858 0.67,-0.695 1.97,-2.413 2.6,-3.367 2.2,-3.44 2.57,-9.096 2.72,-13.117 0,-1.044 0.75,-4.538 -0.74,-5.044 -2.35,-0.795 -1.78,2.938 -3.41,3.209 -3.83,0.719 -2.41,-9.596 -1.79,-11.203 0.37,-0.899 1.28,-2.04 1.81,-2.935 0.21,-0.644 1.09,-0.678 1.22,-1 0.28,-0.641 -0.1,-1.507 0.1,-2.082 0.81,-1.926 1.36,-3.796 3.54,-4.699 1.92,-0.782 10.98,-1.837 10.12,2.108 4.26,-1.417 5.71,4.17 7.19,6.372 1.1,1.666 5.2,3.759 1.36,5.911 1.91,1.888 2.65,5.885 1.25,8.314 -2.7,4.724 -2.21,-1.644 -4.57,-2.236 -1.18,7.049 0.76,14.6 3.63,21.097 1.26,2.902 5.09,4.669 6,7.823 0.68,2.295 0.56,1.246 -0.34,2.594 0.41,-0.643 -2.85,1.914 -2.4,1.742 -1.4,0.679 -1.37,1.71 -3.26,0.529 z" id="path2309" />
    <path d="m 377.28,497.57 c -1.68,-0.32 -3.9,-1.73 -4.91,-3.12 -1.84,-2.55 -1.31,-6.59 -2.86,-9.06 -1.4,-2.25 -4.12,-2.03 -5.71,-3.57 -0.73,-0.65 -1.31,-2 -1.79,-2.69 -0.86,-1.36 -1.34,-0.8 -1.3,-3.14 0.1,-3.15 1.64,-4.98 3.73,-6.98 3.07,-2.93 6.09,-4.81 9.73,-7 2.51,-1.49 4.47,-4 6.5,-6 4.54,-4.42 10.34,-6.91 14.56,-11.53 4.86,-5.3 8.19,-12.14 12.44,-17.76 3.14,-4.21 5.65,-9.97 4.59,-15.26 -1.08,-5.36 -2.75,-7.74 2.08,-11.84 2.52,-2.09 4.45,-3.93 7.9,-4.03 6.19,-0.23 14.53,3.01 18.85,7.6 2.18,2.27 3.88,5.79 4.3,8.96 0.92,4.6 -0.63,7.1 -3.33,10.89 -2.68,3.85 -5.5,8.73 -8.93,11.8 -3.66,3.34 -5.55,6.83 -7.96,11.37 -3.46,6.59 -7.18,11.91 -11.64,17.84 -1.95,2.59 -3.51,3.36 -5.64,5.51 -4.79,4.8 -6.33,12.3 -10.2,17.77 -1.27,1.78 -2.66,3.87 -4.22,5.36 -3.3,3.33 -11.56,5.7 -16.19,4.88 z" id="path2317" />
    <path d="m 364.24,463.85 c 0.77,-1.94 1.61,-2.96 3,-4.6 4.72,-5.54 2.49,-11.54 -0.18,-17.66 -3.69,-8.25 -5.99,-16.35 -6.09,-25.45 -0.1,-8.07 1.75,-16.33 2.85,-24.36 1.19,-8.55 2.08,-17.21 3.72,-25.68 1.84,-9.7 3.58,-20.1 8.22,-28.68 2.17,-4.08 3.8,-7.91 3.46,-12.73 -0.15,-2.19 -0.59,-2.39 0.82,-3.77 1.48,-1.42 2.27,-0.71 3.02,-2.72 1.33,-4.28 -1.23,-10.18 -2.58,-14.12 -1.55,-5.04 -3.08,-9.34 -7,-12.83 -5.21,-4.67 -10.34,-4.39 -17.03,-5.11 -4.7,-0.53 -10.93,-1.48 -14.34,2.5 -2.72,3.22 -3.09,7.69 -4.8,11.41 -1.11,2.47 -4,6.82 -4.13,9.52 -0.1,2.07 2.04,5.03 2.61,7.3 1.25,5.22 2.99,10.4 3.81,15.73 2.1,13.67 2.11,27.68 2.14,41.57 0,8.86 -2.28,17.06 -3.21,25.72 -0.82,8.09 -1.92,15.51 -4.11,23.41 -1.11,3.88 -3.44,7.19 -4.66,10.82 -0.48,1.53 -0.11,3.05 -0.57,4.61 -0.6,1.82 -2.03,2.88 -2.66,4.65 -0.73,2.06 -0.39,4.47 -1.41,6.75 -1.08,2.45 -1.68,3.32 -1.85,5.89 -0.15,2.71 -0.52,13.58 2.85,14.46 2.71,0.67 7.13,-4.18 9.99,-4.58 3.17,-0.35 7.95,0.21 10.99,0.84 3.02,0.63 5.46,2.47 8.28,3.65 5.24,2.13 6.91,-2.14 8.84,-6.54 z" id="path2323" />
    <path d="m 195.46,472.22 c -2.29,0.16 -5.24,1.6 -7.3,0.51 -1.68,-0.99 -2.5,-4.39 -4.09,-5.71 -1.6,-1.33 -3.62,-1.59 -5.08,-3.18 -4.19,-4.47 -1.25,-9.44 -2.08,-14.48 -0.35,-2.26 -1.81,-3.65 -2.5,-5.83 -0.76,-2.42 -0.52,-5.56 -0.7,-8.1 -0.6,-8.65 -1.42,-17.39 -3.92,-25.77 -1.68,-5.56 -3.07,-9.45 -3.19,-14.92 -0.2,-8.54 -3.99,-17.53 -6.41,-25.65 -2.42,-8.12 -5.08,-16.1 -7.65,-24.14 -1.29,-4.08 -3.4,-7.79 -2.42,-12.03 0.91,-3.99 2.39,-7.81 2.85,-11.96 0.4,-3.8 -0.68,-7.78 0.55,-11.52 4.82,-0.34 8.82,-4.72 13.58,-5.91 7.06,-1.74 13.57,1.6 19.09,5.45 4.39,3.08 8.67,7.09 7.77,12.77 -0.85,5.41 -5.73,8.5 -6.77,13.52 -1.57,7.62 1.33,17.14 2.2,24.85 1.04,9.39 2.26,18.77 4.35,28.09 2.49,11.05 4.22,22.28 6.94,33.45 1.77,7.33 2.87,15.66 7.36,21.87 4.31,5.89 8.49,9.01 7.55,16.96 -0.51,4.09 -3.71,7.57 -5.28,11.33 -0.28,0.68 -13.78,0.33 -14.89,0.4 z" id="path2335" />
    <path d="m 219.11,439.89 c 1.16,-3.86 2.38,-7.48 3.3,-11.39 1.62,-6.77 -0.65,-13.93 -1.66,-20.84 -2.52,-17.38 -6.37,-34.8 -8.15,-52.29 -0.37,-3.44 -0.69,-6.94 -1.81,-10.18 -0.65,-1.85 -12.1,-24.69 -5.09,-22.95 1.49,-7.88 -0.4,-15.57 3.97,-22.6 4.05,-6.49 9.85,-9.18 17.24,-8.39 7.15,0.74 12.1,2.22 17.34,7.4 7.34,7.33 13.25,23.87 7.11,33.44 -2.57,4.04 -4.1,5.84 -4.88,10.84 -2.68,17.17 -3.09,36.12 -1.91,53.47 0.38,5.46 1.43,11.13 3.3,16.29 1.22,3.37 3.43,5.76 4.94,8.97 1.93,4.05 1.36,8.92 3.13,13.05 1.37,3.16 3.73,6.77 5.92,9.04 -0.58,5.07 1.34,7.8 -1.12,12.88 -1.07,2.1 -2.74,5.27 -3.05,7.12 -0.32,1.78 0.11,4.3 -0.26,6.35 -2.08,0.8 -4.32,0.3 -6.25,1.09 -1.84,0.79 -2.2,2.05 -4.51,2.21 -2.54,0.18 -5.6,-1.76 -8.04,-2.31 -2.97,-0.71 -5.75,-0.51 -8.68,-0.18 -2.37,0.17 -4.38,0.31 -6.58,-0.19 -3.43,-0.54 -3.67,-0.52 -4.35,-3.67 -0.7,-3.35 0.31,-6.74 -0.91,-10.05 -1.95,-5.42 -0.8,-11.5 0.97,-17.3 z" id="path2343" />
    <path d="m 280.61,398.9 c 0.51,-10.96 1.08,-22.66 0.49,-33.67 -0.74,-13.69 -2.66,-27.43 -5.7,-40.75 -0.87,-3.69 -2.49,-6.25 -3.83,-9.7 -1.52,-3.92 1.43,-12.25 2.26,-16.36 1.18,-5.99 3.39,-11.46 8.32,-15.31 7.32,-5.61 19.85,-3.21 26.63,2.56 2.29,1.93 4.25,4.63 5.4,7.31 2.24,5.21 3.51,12.42 2.71,18.03 2.68,1.1 -3.79,7.85 -4.62,9.79 -2.87,6.99 -4.77,15.25 -6.49,22.62 -2.72,11.85 -0.4,24.14 -1.78,36.07 -1.35,11.72 -0.29,24.65 3.01,35.99 0.93,3.16 1.5,6.49 2.48,9.58 0.58,2.02 1.74,3.12 2.01,5.26 0.45,3.48 -0.23,8.05 -0.82,11.59 -0.75,4.83 -0.49,5.38 1.82,9.41 2.13,3.8 0.59,6.75 -1.17,11.19 -1.46,3.53 -3.11,7.62 -7.31,7.95 -3.66,0.48 -5.85,-2.19 -8.49,-4.36 -4.85,-3.91 -10.31,-6.09 -16.46,-7.07 -1.27,-0.49 -6.13,0.14 -6.87,-0.37 -1.01,-0.91 -0.12,-5.02 -0.25,-6.46 -0.44,-4.61 1.19,-8.17 0.57,-12.88 -0.26,-1.94 -0.23,-4.77 0.48,-6.62 0.98,-2.37 2.66,-3.76 3.07,-6.37 0.36,-2.4 -0.63,-4.84 -0.11,-7.2 0.91,-3.8 3.9,-6.95 4.65,-10.71 0.56,-2.84 -0.12,-6.55 0,-9.52 z" id="path2349" />
</g>
<use id="shine" xlink:href="#shield" style="fill:url(#rg);stroke:#000000;stroke-width:3;"/>
</svg>
