<?xml version="1.0" encoding="UTF-8" standalone="no"?>
<svg xmlns:dc="http://purl.org/dc/elements/1.1/" xmlns:cc="http://creativecommons.org/ns#" xmlns:rdf="http://www.w3.org/1999/02/22-rdf-syntax-ns#" xmlns:svg="http://www.w3.org/2000/svg" xmlns="http://www.w3.org/2000/svg" xmlns:xlink="http://www.w3.org/1999/xlink" id="svg17" version="1.1" height="660" width="600">
<defs id="defs12">
    <radialGradient r="405" cy="220" cx="220" gradientUnits="userSpaceOnUse" id="rg">
        <stop offset="0" style="stop-color:#ffffff;stop-opacity:.3"/>
        <stop offset="0.2" style="stop-color:#ffffff;stop-opacity:.2"/>
        <stop offset="0.6" style="stop-color:#666666;stop-opacity:.1"/>
        <stop offset="1" style="stop-color:#000000;stop-opacity:.13"/>
    </radialGradient>
    <path d="m 2 2 v 257 c 0 286 298 398 298 398 c 0 0 298 -112 298 -398 V 2 Z" id="shield"/>
	<circle id="pea2" style="fill:#080;" r="12" cx="0" cy="0"/>
	<g id="pea">
		<path style="fill:#080;" d="M 0 -14 C -5.9284932 -14 -7.7809516 -12.824518 -10.314453 -10.291016 C -12.847956 -7.7575134 -14 -3.8659932 -14 0 C -14 3.8659932 -12.308028 5.9077627 -10.337891 8.9003906 C -7.9293884 12.558893 -3.8659932 14 0 14 C 3.865993 14 7.9293884 12.558893 10.337891 8.9003906 C 12.308028 5.9077627 14 3.8659932 14 0 C 14 -3.8659932 12.847956 -7.7575134 10.314453 -10.291016 C 7.7809516 -12.824518 5.9284932 -14 0 -14 z"/>
		<path style="fill:none;stroke:#050;stroke-width:1;stroke-linejoin:round;stroke-linecap:round;" d="m 4.9375,-8.9999986 c -0.3322934,2.558762 -2.7056215,2.625 -4.9375,2.625 -2.2318785,0 -4.6052066,-0.066238 -4.9375,-2.625"/>
	</g>
</defs>
<use xlink:href="#shield" style="fill:#ffffff;opacity:1" id="bg"/>
<g id="half">
    <use xlink:href="#pea" x="16.666666" y="16.666666"/>
    <use xlink:href="#pea" x="50" y="16.666666"/>
    <use xlink:href="#pea" x="83.333333" y="16.666666"/>
    <use xlink:href="#pea" x="116.66666" y="16.666666"/>
    <use xlink:href="#pea" x="150" y="16.666666"/>
    <use xlink:href="#pea" x="183.33333" y="16.666666"/>
    <use xlink:href="#pea" x="216.66666" y="16.666666"/>
    <use xlink:href="#pea" x="250" y="16.666666"/>
    <use xlink:href="#pea" x="283.33333" y="16.666666"/>
	
    <use xlink:href="#pea" x="16.666666" y="50"/>
    <use xlink:href="#pea" x="50" y="50"/>
    <use xlink:href="#pea" x="83.333333" y="50"/>
    <use xlink:href="#pea" x="116.66666" y="50"/>
    <use xlink:href="#pea" x="150" y="50"/>
    <use xlink:href="#pea" x="183.33333" y="50"/>
    <use xlink:href="#pea" x="216.66666" y="50"/>
    <use xlink:href="#pea" x="250" y="50"/>
    <use xlink:href="#pea" x="283.33333" y="50"/>
	
    <use xlink:href="#pea" x="16.666666" y="83.333333"/>
    <use xlink:href="#pea" x="50" y="83.333333"/>
    <use xlink:href="#pea" x="83.333333" y="83.333333"/>
    <use xlink:href="#pea" x="116.66666" y="83.333333"/>
    <use xlink:href="#pea" x="150" y="83.333333"/>
    <use xlink:href="#pea" x="183.33333" y="83.333333"/>
    <use xlink:href="#pea" x="216.66666" y="83.333333"/>
    <use xlink:href="#pea" x="250" y="83.333333"/>
    <use xlink:href="#pea" x="283.33333" y="83.333333"/>
	
    <use xlink:href="#pea" x="16.666666" y="116.66666"/>
    <use xlink:href="#pea" x="16.666666" y="150"/>
    <use xlink:href="#pea" x="16.666666" y="183.33333"/>
    <use xlink:href="#pea" x="16.666666" y="216.66666"/>
    <use xlink:href="#pea" x="16.666666" y="250"/>
    <use xlink:href="#pea" x="17.447639" y="284.13776"/>
    <use xlink:href="#pea" x="21.379896" y="318.2157"/>
    <use xlink:href="#pea" x="28.306673" y="351.72461"/>
    <use xlink:href="#pea" x="38.571838" y="384.37366"/>
    <use xlink:href="#pea" x="51.683643" y="415.87653"/>
    <use xlink:href="#pea" x="67.770325" y="446.19373"/>
    <use xlink:href="#pea" x="86.862206" y="474.56638"/>
    <use xlink:href="#pea" x="108.25219" y="501.25964"/>
    <use xlink:href="#pea" x="131.05638" y="526.5387"/>
    <use xlink:href="#pea" x="155.98189" y="550.04999"/>
    <use xlink:href="#pea" x="182.38234" y="571.7807"/>
    <use xlink:href="#pea" x="210.00734" y="591.9057"/>
    <use xlink:href="#pea" x="238.88234" y="610.4057"/>
    <use xlink:href="#pea" x="268.80676" y="626.93433"/>
	
    <use xlink:href="#pea" x="50" y="116.66666"/>
    <use xlink:href="#pea" x="50" y="150"/>
    <use xlink:href="#pea" x="50" y="183.33333"/>
    <use xlink:href="#pea" x="50" y="216.66666"/>
    <use xlink:href="#pea" x="50" y="250"/>
    <use xlink:href="#pea" x="50.68166" y="282.72354"/>
    <use xlink:href="#pea" x="54.570747" y="315.604"/>
    <use xlink:href="#pea" x="61.7757" y="347.51218"/>
    <use xlink:href="#pea" x="71.958122" y="378.68448"/>
    <use xlink:href="#pea" x="85.203812" y="408.94363"/>
    <use xlink:href="#pea" x="101.51631" y="437.44363"/>
    <use xlink:href="#pea" x="119.99208" y="464.64578"/>
    <use xlink:href="#pea" x="141.11708" y="489.89578"/>
    <use xlink:href="#pea" x="164.21049" y="513.38562"/>
    <use xlink:href="#pea" x="188.7025" y="535.38129"/>
    <use xlink:href="#pea" x="214.86545" y="555.35706"/>
    <use xlink:href="#pea" x="241.99844" y="573.55591"/>
    <use xlink:href="#pea" x="270.65143" y="590.06567"/>
	
    <use xlink:href="#pea" x="83.333333" y="116.66666"/>
    <use xlink:href="#pea" x="83.333333" y="150"/>
    <use xlink:href="#pea" x="83.333333" y="183.33333"/>
    <use xlink:href="#pea" x="83.333333" y="216.66666"/>
    <use xlink:href="#pea" x="83.333333" y="250"/>
    <use xlink:href="#pea" x="84.21199" y="283.88776"/>
    <use xlink:href="#pea" x="88.941643" y="317.4151"/>
    <use xlink:href="#pea" x="97.264862" y="350.32669"/>
    <use xlink:href="#pea" x="109.38618" y="381.88"/>
    <use xlink:href="#pea" x="124.98803" y="412.0748"/>
    <use xlink:href="#pea" x="143.58162" y="440.31851"/>
    <use xlink:href="#pea" x="164.97008" y="466.78537"/>
    <use xlink:href="#pea" x="188.65816" y="491.00381"/>
    <use xlink:href="#pea" x="214.37917" y="513.27765"/>
    <use xlink:href="#pea" x="241.66342" y="533.23572"/>
    <use xlink:href="#pea" x="269.91342" y="551.73572"/>
</g>
<use xlink:href="#pea" x="300" y="567.78906"/>
<use xlink:href="#pea" x="300" y="604.73828"/>
<use xlink:href="#pea" x="300" y="641.10742"/>
<use transform="matrix(-1,0,0,1,600,0)" xlink:href="#half"/>

<g style="fill:#070;">
    <path d="m 226.80942,121.24415 c -21.77508,64.21579 6.27186,110.55926 6.27186,110.55926 l 107.81867,165.94501 c 0,0 22.07294,27.49837 29.12679,7.80455 5.28799,-14.76361 5.92834,-44.85801 4.49755,-76.45952 -1.43073,-31.60145 -37.45778,-53.43753 -79.63351,-123.36763 -42.17565,-69.93008 -69.01831,-86.25956 -69.01831,-86.25956"/>
    <path style="fill:#0c0;" d="m 224.93729,123.20444 c -21.55468,63.87664 6.19002,112.19359 6.19002,112.19359 l 106.60014,160.54318 c 0,0 21.32519,27.1753 28.30135,7.58336 5.2298,-14.68724 3.4103,-40.97244 2.19687,-72.33825 -1.21339,-31.36576 -36.15048,-52.84051 -76.79896,-122.0281 -40.6484,-69.18756 -66.67869,-85.24742 -66.67869,-85.24742"/>
	<g style="fill:#070;stroke:#0c0;stroke-width:1;stroke-linejoin:round;stroke-linecap:round;">
		<path style="stroke:none;" d="m 241.23384,179.76499 a 18.019085,19.49003 15 1 1 -34.81019,-9.32736 18.019085,19.49003 15 1 1 34.81019,9.32736 z"/>
		<path d="m 257.00125,206.46017 a 19.555207,19.555207 0 1 1 -37.77775,-10.12252 19.555207,19.555207 0 1 1 37.77775,10.12252 z"/>
		<path d="m 273.94397,230.86439 a 20.640884,20.640884 0 1 1 -39.87512,-10.6845 20.640884,20.640884 0 1 1 39.87512,10.6845 z"/>
		<path d="m 292.80961,258.26315 a 21.772561,21.772561 0 1 1 -42.06136,-11.27031 21.772561,21.772561 0 1 1 42.06136,11.27031 z"/>
		<path d="m 310.67106,285.39286 a 22.904239,22.904239 0 1 1 -44.24759,-11.85611 22.904239,22.904239 0 1 1 44.24759,11.85611 z"/>
		<path d="m 327.12503,311.87624 a 23.809581,23.809581 0 1 1 -45.99657,-12.32475 23.809581,23.809581 0 1 1 45.99657,12.32475 z"/>
		<path d="m 348.36785,340.45035 a 24.941258,24.941258 0 1 1 -48.18281,-12.91054 24.941258,24.941258 0 1 1 48.18281,12.91054 z"/>
	</g>
    <path style="fill:#090;" d="m 141.97666,163.15096 c 7.01777,52.83619 70.68625,109.49128 70.68625,109.49128 l 76.45931,77.11054 c 0,0 10.41735,35.26725 31.24088,32.03047 19.04465,14.16209 56.44663,31.92422 56.53705,31.04027 -3.2239,10.76666 -108.63154,-125.55696 -117.65174,-155.01865 -10.51727,-34.35143 -76.76464,-74.86992 -117.27175,-94.65391 z"/>
    <path d="m 378.12351,421.37701 c 7.57171,9.09322 8.62146,13.89639 8.21514,21.58377 -0.17767,3.36119 0.35807,8.71039 -4.56676,9.00599 -4.92484,0.29561 -7.53507,-2.01901 -7.53507,-2.01901 l -1.82193,10.81828 c 0,0 11.28706,6.13615 20.2712,-8.56683 4.71245,-7.71217 4.2604,-14.75868 2.48082,-24.10182 -2.32947,-12.23117 -11.02281,-15.81208 -15.96755,-18.73562 -5.67417,-3.3548 -13.17056,-5.8372 -13.17056,-5.8372 l -5.90526,4.64922"/>
    <path d="m 386.4468,368.00208 c -73.56271,-22.82919 -22.92409,41.48954 -22.92409,41.48954 l 14.6008,11.88539 c 0,0 -57.0709,-34.13426 11.63273,-30.35497 23.97667,1.31892 -0.85843,-15.9529 -3.30944,-23.01996 z"/>
    <path d="m 310.21256,378.75785 c 36.24041,5.40337 46.41209,15.66651 46.41209,15.66651 l 24.36206,21.60308 c 0,0 -8.64794,4.14363 -29.40476,-6.80217 -20.75682,-10.94581 -42.17699,-27.45339 -41.36939,-30.46742 z"/>
</g>

<use xlink:href="#shield" style="fill:url(#rg);stroke:#000000;stroke-width:3;opacity:1" id="shine"/>
</svg>
