<?xml version="1.0" encoding="UTF-8"?>
<svg xmlns="http://www.w3.org/2000/svg" xmlns:xlink="http://www.w3.org/1999/xlink" width="600" height="660">
<defs>
    <radialGradient id="rg" gradientUnits="userSpaceOnUse" cx="220" cy="220" r="405">
        <stop style="stop-color:#fff;stop-opacity:.3" offset="0"/>
        <stop style="stop-color:#fff;stop-opacity:.2" offset=".2"/>
        <stop style="stop-color:#666;stop-opacity:.1" offset=".6"/>
        <stop style="stop-color:#000;stop-opacity:.13" offset="1"/>
    </radialGradient>
    <path id="shield" d="m2,2v257c0,286 298,398 298,398c0,0 298-112 298-398V2z"/>
</defs>
<use xlink:href="#shield" fill="#177b59"/>
<g style="fill:#ffeeee;stroke-width:1;stroke:#177b59;stroke-linecap:round;stroke-linejoin:round;">
    <path style="fill:#c8ab37;" d="m 274.74293,110.88491 c 0,0 -7.66264,-4.32568 -11.37037,-12.235506 -3.70773,-7.90983 -7.14833,-23.629407 -5.39196,-29.054823 4.64668,-14.353561 3.38158,-15.463483 8.04921,-21.545489 7.54279,-9.828405 23.74659,-10.679219 30.26748,-21.570848 2.41381,1.448093 3.37928,4.958815 3.0769,6.822194 -0.36471,2.247518 -0.71477,3.056173 -3.97398,6.621374 3.89074,-2.114929 6.93117,-3.195601 8.46009,-4.732219 2.37775,-2.389718 4.11169,-3.894712 2.83895,-10.14325 6.49584,3.615582 13.63685,11.138983 14.2222,19.038793 0.48039,6.483318 -0.32595,11.854838 -9.24173,17.174636 4.52737,-2.746359 7.42521,-5.049131 9.03639,-10.182931 3.40928,4.676294 6.11616,21.954064 5.41649,27.621069 -2.34857,19.022324 -9.99618,27.78314 -11.81204,29.52433 -2.94518,2.82407 -9.79218,4.02217 -9.79218,4.02217"/>
    <path d="m 307.67188,114.40495 -31.61915,0.71289 c 0.88942,7.04217 -0.0865,11.67627 -5.33007,15.87109 -5.24353,4.19482 -35.96704,6.47697 -42.58399,17.64258 -4.64732,7.84201 -7.14589,19.40135 -7.56055,23.98047 -0.43539,4.80812 -6.76195,41.04893 -7.75,47.37305 -1.0937,7.00039 -8.74052,28.87574 -11.1875,35.16797 -2.44698,6.29223 -1.74613,36.80937 -2.0957,43.45117 -0.34957,6.6418 -1.057,18.48706 -4.68923,28.9016 -1.56249,4.48007 -3.71973,18.31013 -3.66951,21.94062 0.0561,4.05481 1.15076,17.67983 2.99351,17.9859 2.09842,0.34853 1.60461,-1.35105 1.51953,-5.62109 -0.0831,-4.17084 -0.16258,-5.88843 0.50906,-10.55072 -0.33422,4.06597 -0.49473,6.28294 -0.39969,10.68744 0.11255,5.21552 1.25618,9.79358 3.0918,9.3789 1.80532,-0.40784 0.79122,-5.39699 0.99414,-9.375 0.0769,-1.50747 0.50391,-8.44065 0.71788,-10.05073 -0.1317,1.3772 -0.47821,8.13657 -0.53624,9.84175 -0.16438,4.83014 -0.14501,12.12187 2.57813,11.52539 2.24735,-0.49227 1.33984,-6.84301 2.00195,-11.71875 0.6456,-4.75412 0.7209,-6.99508 1.49609,-9.53125 -0.77214,3.36857 -2.37861,18.14436 -0.5039,20.0918 1.74366,1.81132 3.36431,-0.6522 3.73047,-3.74219 0.49643,-4.18933 -0.0483,-17.15705 5.59375,-21.67383 1.78991,6.11906 1.47623,11.29403 3.33398,14.07422 1.20017,1.79611 5.03942,2.87461 4.28125,0 -0.72339,-2.74277 -2.4392,-12.69686 -3.14648,-19.48828 -1.00052,-9.60719 -3.94536,-8.87212 -4.29493,-17.61133 -0.34956,-8.73921 8.59604,-49.81887 9.87305,-55.4082 1.80899,-7.91776 0.93287,-17.77373 1.70508,-23.2207 0.79118,-5.58082 2.59241,-10.90362 7.83594,-21.74024 5.24352,-10.83661 6.33041,-20.77027 9.53125,-38.91992 -2.74777,28.09455 2.2025,52.31816 2.7207,56.88672 1.44068,12.7014 0.39245,20.99891 -0.65625,28.33984 -1.04871,7.34094 -2.82227,7.38763 -3.21289,22.82031 31.90931,0.7258 59.89979,18.61998 99.29687,-8.10937 -0.98854,-14.78244 -5.20095,-25.14143 -5.33398,-28.98438 -0.56917,-16.44183 -1.28714,-13.02289 -0.36133,-28.22461 0.679,-11.14913 2.27213,-18.25973 4.00586,-47.88476 1.16584,12.00906 4.66736,26.12724 6.90234,32.01953 2.57421,6.7866 10.07429,30.37306 11.19727,33.14062 2.03743,5.0212 2.01978,16.67652 4.11719,22.96876 2.09741,6.29223 15.19401,43.69995 15.93554,52.54882 0.4087,4.87686 -2.93451,11.15786 -4.31445,13.51368 -4.81956,8.22785 -5.1588,22.11222 -7.47265,26.87304 -0.76402,1.57201 4.78048,2.25479 6.24804,-1.48633 1.18728,-3.02663 1.15782,-13.2084 7.16602,-12.27929 4.31599,5.04086 5.52734,16.75347 5.59375,21.67382 0.042,3.11134 1.98681,5.55351 3.73047,3.74219 1.87471,-1.94744 0.27018,-16.72322 -0.50196,-20.09179 0.77519,2.53617 0.84854,4.77908 1.49414,9.5332 0.66211,4.87574 -0.24539,11.22648 2.00196,11.71875 2.72314,0.59648 2.9897,-7.25141 2.8253,-12.08155 -0.0581,-1.70629 -1.14177,-9.67678 -1.14177,-9.67678 0,0 1.09199,8.09766 1.16892,9.60573 0.20291,3.97801 -0.90387,9.8014 0.90145,10.20924 1.83562,0.41468 2.97924,-4.16339 3.0918,-9.37891 0.095,-4.4045 -0.70736,-11.14675 -0.70736,-11.14675 0,0 0.76875,5.85603 0.68565,10.02687 -0.0851,4.27004 -0.4478,6.95474 1.65062,6.60621 1.84275,-0.30607 2.19782,-5.15808 2.2539,-9.21289 0.0502,-3.63049 -0.19668,-7.7038 -0.79883,-12.41016 -1.10995,-8.67549 -7.01769,-22.42253 -8.0664,-28.01562 -1.0487,-5.59309 -4.74227,-39.09112 -5.44141,-49.92774 -0.69914,-10.83662 -9.85124,-28.1688 -11.28906,-32.96289 -1.28135,-4.27237 -8.00812,-36.56379 -14.06445,-48.90625 -2.63588,-5.37179 -0.70271,-29.87872 -12.57618,-38.73242 -11.85703,-8.84145 -19.98583,-7.91162 -33.09179,-12.625 -5.07735,-1.826 -11.51756,-7.78728 -10.37695,-20.06445 z"/>
    <path d="m 292.51846,129.45027 c 10.7358,0 14.51245,-5.75373 17.64252,-14.0572 3.18615,-8.45226 7.64819,-15.546236 7.93665,-24.574456 0.30671,-9.599151 0.77512,-21.897699 -4.58304,-28.715401 -2.83881,-3.612096 -4.42056,-0.89627 -10.74835,0.782603 -8.49096,2.252796 -17.12042,1.936734 -23.63111,-0.274379 -4.95876,-1.684058 -8.0807,-1.535184 -10.80571,2.236446 -2.53242,3.505077 -3.45019,5.187726 -3.33703,10.16422 0.58265,25.625767 3.23752,30.251767 8.17431,38.488547 5.342,8.91285 8.96062,15.94962 19.35176,15.94962 z"/>
    <path d="m 242.12367,324.08162 c -4.98454,6.3174 -8.98852,21.95681 -11.46034,33.32718 -2.47182,11.37038 -4.30584,44.97998 -4.32933,52.54226 -0.0303,9.73673 -2.2807,19.20182 -4.48804,26.00381 -1.39962,4.31295 2.55532,17.00638 6.43551,19.75124 5.48942,3.88323 7.66265,25.33616 15.81966,41.403 5.21975,10.28132 24.22385,39.54914 25.21258,47.95333 0.98872,8.40419 -2.93877,13.15504 -6.65892,20.57565 -2.98073,5.94567 -4.22623,9.90039 -6.80115,16.96346 -0.56593,1.55237 -1.45606,2.63704 -2.43666,4.57772 -0.53139,1.05166 -0.40328,3.08331 -0.0582,3.10761 0.60925,0.0429 1.42971,-1.27808 2.94492,-2.96883 -2.95751,2.90102 -3.17184,3.79623 -2.43805,5.6516 1.02064,2.58068 3.1729,-2.97582 4.8362,-4.03197 -1.85294,1.94696 -4.96122,6.05767 -3.21653,8.61405 1.45536,2.13247 3.31206,-2.7295 5.57094,-5.43183 -2.70964,5.24382 -5.49449,7.05567 -3.15389,9.30312 2.42474,2.32824 2.10347,-0.69755 6.38932,-5.2168 -1.86873,1.84453 -3.86819,4.4478 -4.44158,7.64826 -0.62945,3.5134 5.79948,3.07166 7.38377,2.20198 4.18713,-2.2985 10.6553,-14.89605 13.12549,-23.23513 1.90393,-6.42744 11.07844,-18.12676 14.80609,-20.86568 3.42706,-2.51806 1.71271,-9.91214 -1.74784,-12.38396 -3.46055,-2.47182 -9.29781,-19.87393 -9.29781,-27.2894 0,-7.41546 -3.78908,-38.23884 -8.00494,-47.50439 -4.32868,-9.51351 -11.0748,-26.89015 -14.33271,-35.74417 1.98025,-4.1809 23.23872,-63.65309 24.33995,-104.07609 z"/>
    <path d="m 295.82982,327.04781 c -1.31835,27.49799 4.66042,43.83743 5.40803,66.70404 0.29621,9.06 0.50307,21.63555 1.01871,30.68571 0.6164,10.81873 4.5862,20.80081 4.94364,27.19003 0.96647,17.27574 -1.40556,19.28524 -0.98873,36.58296 0.27961,11.60331 4.38908,21.43107 4.44928,43.75123 0.0262,9.69869 -5.55077,21.69407 -5.438,31.39214 0.0576,4.95702 1.5765,7.78239 3.70772,11.12319 4.29906,6.73899 5.5238,22.29705 5.00362,30.27359 -0.47094,7.22152 1.3066,14.01665 7.88296,12.08141 2.93638,-0.86409 1.17695,-7.78408 1.32474,-10.23955 1.19649,2.83175 0.77103,9.58238 2.87847,8.98137 2.17386,-0.61996 2.58974,-3.4857 1.4948,-9.90627 1.25703,1.46695 1.13403,8.03525 3.92379,6.40957 0.88594,-0.51627 1.78756,-4.93737 0.87896,-8.3002 0.89865,2.18713 0.0471,9.4581 3.31678,6.44884 0.57772,-0.5317 1.2787,-2.15082 0.87992,-8.38213 0.46335,2.83851 0.8019,6.45087 2.32656,5.76547 1.13848,-0.5118 2.2053,-3.21314 2.19914,-4.81732 -0.0846,-22.0199 -11.41198,-33.6583 -11.73343,-45.36005 -3.79357,-30.27352 10.3858,-65.56475 13.48749,-95.91696 1.5445,-15.114 -3.41284,-30.29537 -2.96619,-45.48151 0.5457,-18.55387 5.34282,-26.42549 5.43801,-44.98714 0.0708,-13.79683 -1.90301,-36.78737 -4.94364,-51.41389 z"/>
    <path d="m 313.80268,450.27959 c 4.16336,5.01981 9.13196,6.81867 16.08015,0.69913"/>
    <path d="m 273.98445,83.119623 c 5.24287,-2.73557 7.51673,-2.071462 12.79699,-0.624249"/>
    <path d="m 299.05822,82.495376 c 7.06238,-2.34488 7.37696,-0.47573 11.44445,0.520198"/>
    <path d="m 292.29559,91.234774 c 0,0 -1.06782,5.55941 1.22108,9.512946 2.28888,3.95354 2.6167,4.67226 1.18754,5.59078 -3.12122,0.62424 -3.44687,0.061 -4.48727,-0.35522"/>
    <g style="opacity:0.1;fill:#000000;fill-stroke:none;">
        <ellipse ry="4.1983991" rx="5.6701999" cy="90.880966" cx="280.1366"/>
        <ellipse cx="304.16943" cy="90.531395" rx="5.6701999" ry="4.1983991"/>
        <path d="m 299.25847,114.70404 c 0,1.07423 -2.8877,1.5518 -6.77327,1.5518 -3.88557,0 -6.54347,-0.30441 -6.54347,-1.37864 0,-0.53711 2.25799,-2.5278 3.57866,-2.55354 2.36558,-0.0461 1.93963,0.6538 2.92111,0.6538 0.89409,0 1.16369,-0.3998 2.48415,-0.43531 1.53533,-0.0413 4.33282,1.62478 4.33282,2.16189 z"/>
    </g>
    <g style="fill:none;">
        <path d="m 274.65789,91.418524 c 3.88279,1.74915 6.91612,1.3365 10.58714,0.17478"/>
        <path d="m 298.82028,91.460124 c 2.82119,2.26957 8.36702,0.80229 10.63703,-0.78652"/>
        <path d="m 285.94173,114.8772 c 4.25645,-1.59755 4.27868,-0.079 6.72169,-0.2921 2.85953,-0.24939 2.8872,-0.72221 6.09385,0.12772"/>
    </g>
    <path d="m 268.0139,100.81539 c 0,0 -1.3505,-0.0122 -2.21113,-0.74991 -0.86063,-0.737676 -1.85192,-1.593806 -2.46087,-4.659766 -1.72126,-4.54904 -2.82522,-5.64657 -1.34985,-8.22846 1.47536,-2.58188 4.66814,0.98551 4.66814,0.98551"/>
    <path d="m 315.13224,102.19563 c 0,0 0.45972,0.61846 1.75734,-0.25608 1.05987,-0.71432 1.88134,-2.451246 2.64214,-5.398246 1.8095,-4.78222 4.30351,-7.30775 1.84953,-9.31011 -2.11727,-1.72761 -4.77549,-0.8214 -4.77549,-0.8214"/>
    <path d="m 290.88823,122.09544 c 2.15532,-1.05908 2.93592,-0.28521 3.97266,0.14714"/>
    <path style="fill:#c8ab37;" d="m 318.04097,76.124871 c 0.80235,3.074354 -3.10203,14.748483 -3.51688,15.553443 -0.16223,0.60837 1.18614,1.60313 1.52049,0.92385 2.25643,-4.58433 4.7282,-6.12145 6.54109,-7.68334"/>
    <path style="fill:#c8ab37;" d="m 265.15803,78.26469 c 0.33375,3.686099 3.36421,13.350214 3.77906,14.155174 0.16223,0.60837 -1.18614,1.60313 -1.52049,0.92385 -2.25643,-4.58433 -5.07777,-8.21886 -6.89066,-9.78075"/>
    <path d="m 236.80047,177.74767 c 1.64788,-1.02993 4.12919,-0.60401 4.99484,1.02235 3.57092,6.70893 2.23367,10.01275 7.00441,16.75719 5.28884,7.47687 28.17098,10.00214 39.72179,5.16599"/>
    <path d="m 347.89691,174.78148 c -1.64788,-1.02993 -3.80311,0.0192 -5.06724,1.3595 -5.66833,6.00979 -3.14636,11.09873 -7.9171,18.33753 -5.03975,7.64698 -26.07357,11.05084 -37.62438,6.21469"/>
    <path d="m 285.6847,140.62719 c 4.37298,0.91752 4.15165,2.8728 4.71917,5.68048"/>
    <path d="m 298.83136,140.80197 c -4.37298,0.91752 -4.15165,2.8728 -4.71917,5.68048"/>
    <path d="m 263.24896,137.2098 c 0,0 1.96085,2.70291 4.82005,3.08978 2.71568,0.36745 10.77452,0.64005 12.11193,1.97746"/>
    <path d="m 319.48289,138.32212 c 0,0 -2.04432,2.85181 -5.43801,2.84259 -4.46035,-0.0121 -11.27822,1.30223 -10.38164,2.34824"/>
    <circle cy="193.19353" cx="260.03513" r="1"/>
    <circle cx="325.6666" cy="192.66917" r="1"/>
    <path d="m 291.12979,272.27961 c -0.71292,1.9023 2.46689,4.12411 -1.32512,3.22107 0.98914,0.18847 1.40446,1.21214 3.37456,-0.77539"/>
    <path d="m 237.50271,454.4259 c 1.3916,-2.11933 3.91642,-0.64585 6.89533,-4.46533"/>
    <path d="m 284.19904,548.39862 c 3.31587,4.46778 3.13477,6.31285 2.79655,8.04007"/>
    <path d="m 262.7271,600.75541 c 3.06868,0.85274 0.47317,3.44557 -0.40532,4.22647"/>
    <path d="m 316.54761,612.07756 c 2.14836,-1.29514 3.56976,-1.00416 4.82005,-0.33987"/>
    <path d="m 311.82025,555.44196 c -0.72619,2.70186 -2.50606,6.4618 -0.37078,8.52778"/>
    <g id="tunic" style="fill:#ffffff;">
        <path d="m 240.01385,318.3943 c -1.09381,4.59399 -3.07886,9.74433 3.70772,9.6401 6.49914,-0.0998 14.81337,2.67917 21.2401,4.16226 6.42674,1.48309 17.32032,6.96094 24.4886,6.96094 7.16828,0 3.61308,0.0424 11.07564,-2.07727 4.15847,-1.18116 18.5814,-3.68753 25.26483,-3.31061 5.6976,0.32132 17.98988,2.10422 18.28678,-3.0781 0.24718,-4.31452 0.49436,-4.6814 0.74154,-13.40964 0.11896,-4.20042 1.23591,-16.19043 -1.73027,-18.41507 -2.96619,-2.22464 -17.79711,6.42674 -27.93158,9.14574 -10.13447,2.719 -31.14495,7.66265 -42.76251,8.65138 -11.61756,0.98872 -30.98666,-4.12532 -32.38085,1.73027 z"/>
        <path d="m 339.87542,282.30571 c 2.719,-2.22464 3.46055,1.48309 3.46055,6.67392 0,5.19082 2.40442,8.84845 0,10.62883 -10.36566,7.67535 -33.86395,12.23552 -45.72869,15.57247 -11.27442,3.17093 -30.4034,4.69647 -40.78506,4.69646 -13.37983,-10e-6 -15.57247,-1.73027 -16.31401,-4.94364 -0.74155,-3.21337 0,-20.51612 2.47182,-23.23512 2.47182,-2.719 29.43601,0.3839 37.3245,-0.24718 9.26933,-0.74155 24.8418,3.33696 38.06605,0.49436 12.99144,-2.79256 19.56537,-8.05326 21.50484,-9.6401 z"/>
        <path d="m 277.4647,291.36609 c -0.74396,5.09012 3.68603,42.706 6.72297,47.24399 4.25129,6.35255 1.9403,8.32437 7.72929,8.06642 6.1104,-0.27227 3.23268,-1.78541 6.96395,-8.718 1.93665,-3.59824 7.63037,-40.57284 6.90397,-45.11295 -0.34957,-2.1848 -9.32356,-1.8205 -14.56706,-1.83781 -5.24352,-0.0173 -13.49094,-1.43549 -13.75312,0.35835 z"/>
    </g>
    <g id="fish" transform="matrix(1.3567968,0,0,1.3567968,303.73319,-209.46288)">
        <path style="fill:#dddddd;" d="m 90.518565,409.49061 c 0.957024,0.5372 0.455009,1.0744 2.921047,1.6116 5.176858,-0.38199 6.314285,-1.20579 8.940058,-2.22555 -1.23944,-1.37271 -1.74182,-1.08703 -2.567998,-1.52989"/>
        <path style="fill:#dddddd;" d="m 80.488104,398.43551 c -0.830816,-0.99698 -0.984703,-1.72588 -0.917617,-3.84524 4.602016,-1.06623 11.398957,-0.72472 16.560799,0.83022 5.379514,1.62051 7.166154,5.54939 7.166154,5.54939"/>
        <path style="fill:#cccccc;" d="m 87.893696,396.57005 c 10.069239,0.0807 14.147874,4.125 20.124894,4.2595 5.19654,0.11693 9.10396,-1.54765 10.31984,-2.96619 0.70926,2.42048 0.16498,4.06704 -1.35949,5.4998 1.71108,2.22037 1.87701,2.86065 1.97745,5.31442 -2.24678,-1.49786 -5.70818,-3.90844 -11.18499,-3.27517 -7.13775,0.82532 -10.858884,4.00354 -19.664902,4.17832 -11.862405,0.23545 -16.939251,-4.54909 -16.939251,-4.54909 2.840943,-1.48527 2.431927,-0.71537 4.174329,-0.33645 -1.943444,-1.00789 -2.212778,-0.44226 -3.359417,-0.71178 -0.906537,-0.21312 -1.623432,-1.38852 -1.906027,-2.28868 2.057176,-1.70659 10.443014,-5.1838 17.817564,-5.12468 z"/>
        <path style="fill:#dddddd;" d="m 83.053194,406.32935 c 0,0 2.621109,6.32468 4.294788,6.8284 6.36494,1.91567 -0.432568,-6.61212 -0.432568,-6.61212"/>
        <circle style="fill:#cccccc;" cx="75.498688" cy="401.67923" r="0.4"/>
    </g>
    <use xlink:href="#fish" transform="matrix(-0.93064217,-0.36593054,-0.36593054,0.93064217,878.61908,160.25799)"/>
    <use xlink:href="#fish" transform="matrix(-0.81567051,0.57851673,0.57851673,0.81567051,518.09561,-142.47207)"/>
    <use xlink:href="#fish" transform="rotate(65.906117,299.8094,209.50599)"/>
    <use xlink:href="#fish" transform="rotate(-33.851239,300.39116,642.41283)"/>
    <use xlink:href="#fish" transform="rotate(-14.093977,1386.3374,719.47102)"/>
    <use xlink:href="#fish" transform="matrix(-0.94835309,-0.31721668,-0.31721668,0.94835309,804.03125,411.64319)"/>
    <use xlink:href="#fish" transform="rotate(13.886583,-471.01932,-36.438703)"/>
</g>
<use id="shine" xlink:href="#shield" fill="url(#rg)" stroke="#000" stroke-width="3"/>
</svg>
