<?xml version="1.0" encoding="UTF-8"?>
<svg xmlns="http://www.w3.org/2000/svg" xmlns:xlink="http://www.w3.org/1999/xlink" width="600" height="660">
<defs>
  <radialGradient id="rg" gradientUnits="userSpaceOnUse" cx="220" cy="220" r="405">
    <stop style="stop-color:#fff;stop-opacity:.3" offset="0"/>
    <stop style="stop-color:#fff;stop-opacity:.2" offset=".2"/>
    <stop style="stop-color:#666;stop-opacity:.1" offset=".6"/>
    <stop style="stop-color:#000;stop-opacity:.13" offset="1"/>
  </radialGradient>
  <path id="shield" d="m2,2v257c0,286 298,398 298,398c0,0 298-112 298-398V2z"/>
</defs>
<use id="background" xlink:href="#shield" fill="#686"/>
<g stroke="#686" fill="#000">
  <path id="tongue" d="M 191.21822,402.58162 C 175.92597,399.94502 141.499,374.8476 120.89341,358.37264 99.050641,340.9085 64.918798,313.24518 61.260669,289.07172 c -4.45425,-29.43433 1.676464,-49.07048 24.530317,-58.64399 23.771194,-9.95778 36.723774,-1.50898 41.804354,-9.62577 5.66432,-9.04938 -18.81878,-24.15267 -35.307204,-34.25848 16.284744,5.28191 52.771564,18.61636 48.054314,37.66428 -4.7828,19.31264 -33.00157,2.77036 -57.492874,22.81242 -16.328203,13.36192 -17.0668,42.80033 3.905317,71.57831 18.826187,25.83334 51.656097,44.47371 70.204857,48.32635 l 19.57627,-2.09746 25.16949,25.16949"/>
  <path id="bottom-teeth" d="m 59.819436,323.82466 c 1.568916,-3.87387 1.750247,-8.5954 11.123449,-9.14595 -5.63663,4.74605 -5.173366,9.17104 -4.696567,13.59533 4.202192,-3.44727 8.404383,-4.37199 12.606575,-1.23594 -4.778963,2.47188 -7.086049,6.0973 -6.921257,10.87626 2.533435,-3.3735 5.959701,-5.18455 11.123449,-3.955 -5.078526,4.37746 -3.529816,9.93095 -1.483127,15.57282 0.789389,-3.92213 0.524163,-8.20402 6.426882,-10.38188 -1.68964,9.11561 2.325526,12.05102 4.202192,17.30314 0.160002,-5.68771 1.647827,-10.71151 6.921257,-13.84251 -2.026815,8.59263 1.352591,13.32366 3.707811,18.78627 2.40626,-3.60865 5.98444,-11.48349 11.74142,-11.74142 -3.73053,7.00816 -2.61777,12.59637 -2.47188,17.17955 L 75.392264,353.24 Z"/>
  <path id="top-teeth" d="m 88.617585,278.65683 c -8.423648,-0.91058 -11.754168,3.6964 -14.682203,8.73941 8.176096,-2.43853 14.837296,-2.2801 19.751059,0.87394 -3.818983,3.66606 -11.695888,8.50144 -11.186441,14.6822 7.979772,-4.6548 13.891035,-3.51778 19.57627,-1.74788 -4.531444,2.89169 -8.877141,6.03104 -10.662075,12.58475 7.779705,-4.48949 12.572485,-3.00513 17.653605,-2.09746 -4.85042,1.64695 -9.907054,2.98652 -11.885596,8.91419 7.298296,-3.80253 10.201386,-3.20985 12.934326,-2.44703 -3.27377,1.13207 -6.64544,1.97047 -8.56462,7.16631 5.81247,-2.36807 9.61794,-1.72564 13.63347,-1.3983 -4.36818,2.27529 -9.91477,2.19376 -11.7108,9.61335 6.78073,-3.80475 10.19263,-1.99478 14.33262,-1.39831 -5.34519,2.05417 -10.73573,4.06299 -11.53601,10.66208 6.05932,-5.09382 12.11864,-4.55072 18.17796,-4.71928 l -7.69068,-35.30721 z"/>
  <path id="front-right" d="m 200.65678,452.74581 c 1.1885,0.19808 -12.40917,9.71293 -28.84004,8.04026 -11.84497,-1.20582 -18.72962,0.87145 -27.26695,12.23517 -1.28022,5.91376 -0.73079,10.10347 4.4209,17.98197 -8.97528,-3.16378 -21.11587,-4.98737 -18.68113,-24.50033 -14.95439,1.36653 -19.48595,8.40447 -26.81498,16.13171 -2.14414,-12.15199 4.12054,-21.158 10.4785,-25.2419 -6.88999,-7.31853 -12.50146,-3.2051 -25.037113,2.86023 8.894769,-27.50308 31.877263,-14.03808 39.327323,-9.74572 7.60478,-11.40078 16.24091,-9.57411 36.75671,-9.82177"/>
  <path id="back-right" d="m 377.4257,469.66136 c 1.85505,13.55191 -0.41747,24.1205 -5.85132,27.96371 -6.87347,4.86141 -3.1436,18.72265 -3.1436,18.72265 -8.9166,-5.45387 -7.8947,-8.97538 -9.14338,-13.55292 -7.97533,1.63099 -12.21203,10.82551 -14.46049,15.69021 -5.21365,-8.66234 -2.26518,-13.24823 2.30952,-17.03218 -5.32699,-2.89648 -13.40748,1.00883 -17.80995,4.37441 -0.15641,-10.48981 8.8369,-10.87274 12.79636,-12.11841 7.62697,-4.91175 7.47961,-11.08386 13.33315,-17.36933"/>
  <path id="body" d="m 178.45869,344.02759 c 1.04873,2.09746 9.78813,1.92267 10.83686,3.32098 1.04873,1.3983 -5.59322,6.29237 -3.14619,8.38983 2.44704,2.09746 10.48729,-1.92267 11.8856,0.17479 1.3983,2.09745 -3.67055,7.69068 -2.27225,9.61334 1.39831,1.92267 11.36123,2.44704 12.23517,4.71928 0.87394,2.27225 -5.76801,5.9428 -4.71928,7.34111 1.04873,1.3983 9.78814,0 11.71081,1.74788 1.92267,1.74788 -5.59322,8.04025 -4.02013,9.26377 1.57309,1.22352 10.66208,-3.49576 12.06038,-2.62182 1.39831,0.87394 -0.52436,8.21504 1.04873,8.7394 1.57309,0.52437 9.43856,-5.59322 10.66208,-5.06885 1.22351,0.52436 -1.04873,9.26377 0.87394,9.96292 1.92267,0.69915 9.96292,-6.11758 11.53601,-5.41843 1.5731,0.69915 1.5731,7.86547 2.79661,8.04025 1.22352,0.17479 7.69068,-6.99152 9.26378,-6.99152 1.57309,0 2.09745,7.86546 4.02012,8.04025 1.92267,0.17479 8.73941,-7.16631 9.96293,-6.81674 1.22351,0.34958 2.97139,7.51589 5.06885,7.16632 2.09746,-0.34958 5.59322,-7.3411 7.3411,-7.69068 1.74789,-0.34958 4.5445,7.86547 6.99153,7.51589 2.44703,-0.34958 6.64195,-7.69068 8.21504,-7.51589 1.5731,0.17479 2.79661,6.81674 4.02013,6.81674 1.22352,0 6.29237,-9.43856 8.73941,-9.61335 2.44703,-0.17479 2.44703,7.69068 5.24364,7.86547 2.79661,0.17478 8.21504,-6.46716 9.43856,-6.46716 1.22352,0 3.67055,6.99152 5.41843,6.81673 1.74788,-0.17479 6.11759,-8.38983 7.3411,-8.38983 1.22352,0 4.71928,8.21504 5.9428,7.69068 1.22352,-0.52436 7.3411,-8.91419 8.56462,-8.91419 1.22352,0 4.89407,6.64194 6.11758,6.46716 1.22352,-0.17479 5.06886,-9.61335 6.46716,-9.26377 1.39831,0.34957 4.5445,7.51588 6.46717,6.81673 1.92266,-0.69915 4.89406,-9.08898 6.64194,-9.61335 1.74789,-0.52436 4.5445,5.24365 5.9428,5.24365 1.39831,0 4.89407,-9.43856 5.9428,-9.78814 1.04873,-0.34957 5.24364,7.16632 7.69068,6.29238 2.44703,-0.87394 3.67055,-10.13772 5.59322,-10.66208 1.92267,-0.52436 5.06885,5.24364 6.64195,4.19492 1.57309,-1.04873 2.09745,-10.48729 4.3697,-11.8856 2.27224,-1.3983 5.9428,6.64195 7.69068,5.06886 1.74788,-1.5731 1.92267,-11.36123 3.84534,-12.06038 1.92267,-0.69916 6.64194,4.19491 7.69067,3.14618 1.04873,-1.04873 -1.04873,-9.96292 0.87394,-11.18644 1.92267,-1.22351 7.34111,3.67055 9.43856,2.27225 2.09746,-1.39831 0.34958,-10.66208 1.74789,-12.23517 1.3983,-1.57309 6.11758,3.49576 7.51588,1.92267 1.39831,-1.5731 -2.62182,-8.04026 -0.69915,-11.36123 1.92267,-3.32098 1.92267,-3.14619 1.92267,-3.14619 0,0 6.46716,5.06886 7.3411,3.32098 0.87394,-1.74788 -3.49576,-10.3125 -2.62182,-12.58475 0.87394,-2.27224 7.69068,0.69915 8.21504,-1.22352 0.52437,-1.92266 -5.24364,-8.7394 -4.54449,-10.66207 0.69915,-1.92267 8.73941,-1.22352 9.26377,-2.44704 0.52437,-1.22351 -5.94279,-9.96292 -5.06885,-11.88559 0.87394,-1.92267 6.46716,0.69915 7.3411,-1.3983 0.87394,-2.09746 -5.9428,-8.73941 -4.89407,-10.48729 1.04873,-1.74788 8.21504,-2.27225 8.56462,-3.49576 0.34958,-1.22352 -6.99153,-7.86547 -6.64195,-10.3125 0.34958,-2.44704 7.16631,-1.39831 7.51589,-3.32098 0.34958,-1.92267 -7.51589,-7.16631 -7.16631,-8.73941 0.34957,-1.57309 6.64195,-2.97139 6.64195,-4.54449 0,-1.57309 -7.69068,-6.64195 -7.34111,-8.91419 0.34958,-2.27225 6.29238,-3.32098 6.11759,-5.24365 -0.17479,-1.92267 -9.43856,-6.11758 -8.9142,-7.86546 0.52437,-1.74788 7.51589,-4.89407 7.16632,-6.29238 -0.34958,-1.3983 -9.43856,-6.11758 -9.43856,-7.51589 0,-1.3983 6.46716,-3.49576 5.76801,-5.06885 -0.69916,-1.57309 -10.3125,-4.89407 -10.3125,-6.64195 0,-1.74788 6.81673,-6.11759 5.94279,-6.99153 -0.87394,-0.87394 -9.61334,-2.09745 -10.13771,-3.49576 -0.52436,-1.3983 4.19492,-6.46716 2.9714,-8.21504 -1.22352,-1.74788 -9.96292,-0.17479 -10.48729,-1.74788 -0.52436,-1.5731 2.9714,-7.3411 2.27225,-8.38983 -0.69915,-1.04873 -11.53602,-2.27225 -12.06038,-3.84534 -0.52437,-1.5731 5.24364,-5.9428 4.54449,-7.51589 -0.69915,-1.5731 -11.36123,-0.87394 -11.71081,-2.44704 -0.34957,-1.57309 4.02013,-6.99152 2.9714,-8.21504 -1.04873,-1.22352 -11.36123,-3.14618 -12.06038,-4.54449 -0.69915,-1.3983 4.02013,-5.9428 3.49576,-6.81674 -0.52436,-0.87394 -10.3125,-1.57309 -11.18644,-2.44703 -0.87394,-0.87394 4.02013,-7.69068 2.79661,-8.9142 -1.22351,-1.22351 -11.18644,0.34958 -12.06038,-1.57309 -0.87394,-1.92267 2.62182,-6.99152 1.74788,-8.21504 -0.87394,-1.22352 -9.08898,1.22352 -10.83686,0.17479 -1.74788,-1.04873 1.74788,-7.34111 0.52436,-8.21505 -1.22351,-0.87394 -11.53601,2.62183 -12.58474,1.92267 -1.04873,-0.69915 1.57309,-6.11758 -0.34958,-7.16631 -1.92267,-1.04873 -9.96292,4.71928 -11.18644,4.3697 -1.22352,-0.34957 0.17479,-7.51589 -1.74788,-8.38983 -1.92267,-0.87394 -8.21504,3.14619 -9.61335,2.62182 -1.3983,-0.52436 0.17479,-7.86546 -1.92267,-8.739404 -2.09746,-0.873941 -8.21504,5.068854 -9.96292,4.369704 -1.74788,-0.69915 -0.87394,-8.040255 -2.44704,-8.564619 -1.57309,-0.524365 -8.56462,5.068859 -10.66207,4.194915 -2.09746,-0.873941 -1.74788,-8.564619 -2.9714,-9.088983 -1.22352,-0.524364 -9.08898,6.117585 -10.13771,5.768009 -1.04873,-0.349577 -0.87394,-7.690678 -2.62183,-8.215043 -1.74788,-0.524364 -9.78813,6.991526 -10.66207,6.641949 -0.87394,-0.349576 -1.92267,-7.690678 -3.67055,-8.38983 -1.74788,-0.699153 -6.81674,7.341102 -8.73941,7.166313 -1.92267,-0.174788 -2.9714,-7.341101 -4.89407,-7.166313 -1.92267,0.174788 -6.46716,8.040254 -8.21504,8.215042 -1.74788,0.174788 -4.54449,-6.641949 -5.41843,-6.467161 -0.87394,0.174788 -5.41843,8.040254 -6.99153,8.215043 -1.57309,0.174788 -4.02012,-6.117585 -6.11758,-5.768009 -2.09746,0.349576 -5.41843,8.564619 -7.51589,9.263767 -2.09746,0.69916 -4.71928,-5.418428 -6.11759,-5.068852 -1.3983,0.349577 -4.02012,9.962922 -5.94279,10.137712 -1.92267,0.17479 -6.11759,-6.467161 -7.51589,-5.942796 -1.39831,0.524364 -5.24365,8.739406 -6.81674,9.088986 -1.57309,0.34957 -5.06886,-5.59322 -6.29237,-5.41844 -1.22352,0.17479 -3.32098,9.43857 -4.71928,9.78814 -1.39831,0.34958 -7.51589,-5.76801 -8.56462,-5.76801 -1.04873,0 -4.54449,9.43856 -6.46716,9.61335 -1.92267,0.17479 -4.71928,-5.76801 -6.64195,-5.59322 -1.92267,0.17479 -3.14619,9.43856 -4.36971,10.13771 -1.22351,0.69916 -7.86546,-5.06885 -9.08898,-4.89407 -1.22352,0.17479 -2.9714,11.01166 -4.3697,12.06039 -1.39831,1.04872 -6.81674,-4.02013 -7.69068,-2.9714 -0.87394,1.04873 1.04873,9.26377 -0.17479,10.13771 -1.22351,0.87394 -9.26377,-2.09746 -10.13771,-1.04873 -0.87394,1.04873 0.34958,9.96292 -0.34958,11.53602 -0.69915,1.57309 -6.99152,-1.92267 -8.21504,-0.87394 -1.22352,1.04873 2.62182,10.66207 1.39831,11.53601 -1.22352,0.87394 -9.43856,-1.04872 -10.3125,0.17479 -0.87394,1.22352 0.52436,11.18644 -0.34958,12.40996 -0.87394,1.22352 -6.81674,-2.09746 -7.3411,-0.52436 -0.52437,1.57309 3.14619,10.13771 1.57309,11.18644 -1.57309,1.04873 -8.21504,0.34957 -8.21504,0.34957 -5.31103,3.3736 -8.502,8.66764 -21.84852,8.04026 22.7559,-53.40512 83.48909,-144.468202 207.47352,-139.655725 148.34589,5.758072 215.33262,118.200555 213.24152,226.525425 -1.38993,72.00269 -70.26483,205.57951 -205.90042,208.34745 -41.09148,0.83857 -74.89651,-5.8718 -99.43874,-11.54504 -28.38526,-6.56161 -35.35521,-19.14434 -44.12172,-19.17921 -16.33499,0.52436 -24.8318,-7.956 -30.89846,-17.79752 -6.58971,-10.69003 -25.32405,-21.30493 -25.64755,-40.67117 -15.58406,-5.15426 -23.00613,-13.01168 -32.821142,-21.6677 -17.25033,-15.21335 -22.933023,-15.48377 -30.766091,-25.41278 -5.044625,-6.39445 -11.744334,-18.37004 -8.651572,-23.23565 4.364558,-6.86643 12.50415,3.0764 17.158343,11.99739 7.323444,14.03732 14.933981,16.47003 24.526421,17.50277 9.493121,1.02206 18.731441,18.20707 22.674011,18.03228 2.71641,-0.12043 4.39854,-0.86151 8.31442,2.39948 9.9376,8.27564 17.93279,5.42737 26.32914,3.69026 8.40271,-1.73843 12.26682,-0.74972 19.89497,1.2535 4.57322,1.20097 14.48131,9.06975 15.57283,10.62907 1.17691,-1.76537 -11.20736,-12.70491 -14.26449,-17.44794 -2.96235,-4.596 -19.87747,0.29322 -27.26305,-2.82145 -17.31882,-7.30373 -13.59146,-17.80427 -19.03346,-23.48284 -5.81103,-6.06364 -13.36156,-5.57093 -17.27315,-10.12228 -6.64373,-7.73034 -5.37384,-19.45299 -12.43694,-25.21315 -9.859895,-8.04103 -16.688804,-26.94346 -16.441617,-32.38159 0.247188,-5.43814 4.750647,-12.22855 11.400625,-11.90742 5.597102,0.27028 9.862162,6.49611 9.055982,10.57424 -0.85761,4.33831 1.22352,10.21952 6.90883,13.43296 5.68532,3.21344 19.34063,20.60654 21.56532,22.83123 2.22469,2.22469 12.48715,11.85302 17.98472,11.28068 5.61292,-0.58434 12.60658,4.69656 14.83127,3.70781 2.22469,-0.98875 7.33445,-0.45196 11.05983,2.45946 4.11665,3.98657 4.1716,8.94821 1.28869,13.78847 z"/>
  <g id="front-left">
    <path d="m 238.78337,438.0254 c -12.96034,6.91409 -18.39001,14.20191 5.31453,20.39299 17.58404,4.59254 34.90321,22.2814 33.74113,33.86472 -1.59041,15.85273 -14.90228,10.01143 -26.69627,10.01111 -8.63205,-2.4e-4 -15.23479,7.26666 -18.78627,11.86501 -1.09224,8.50404 1.22387,11.89361 5.31453,17.92111 -16.27537,-4.13944 -19.55997,-11.72766 -17.79751,-24.2244 -9.59308,1.11723 -16.21932,4.33212 -26.3255,17.55033 -3.7266,-9.708 1.49645,-21.95472 10.0111,-26.32549 -3.58111,-3.58733 -9.20106,-7.97849 -25.83111,3.08985 8.85897,-27.27804 33.28787,-14.5783 39.79722,-10.75268 16.64043,-16.56822 29.3558,-14.75945 42.02192,-14.33688 -10.87739,-0.71083 -20.88655,-0.42556 -26.57268,3.33703 -15.69867,0.76766 -23.07034,-3.29336 -27.98342,-10.14348 -7.95756,-11.09494 -0.7999,-16.34921 3.51183,-21.92913"/>
    <path fill="none" d="m 235.43962,500.98734 c 16.30889,-10.1278 22.83611,-7.82351 27.09216,-4.71928"/>
  </g>
  <g id="tail" fill="none">
    <path d="m 234.33399,441.48603 c 55.21227,17.98679 173.36827,31.18995 235.80256,-62.72145 72.59835,-109.1998 42.1267,-242.49869 -73.937,-298.921511 C 292.37099,29.368196 184.39174,77.580748 126.27053,179.70693"/>
    <path d="m 219.5339,406.42696 c -0.46252,-0.46252 6.76693,-5.81782 10.48729,-3.49576 1.51213,0.94379 0.21602,9.37432 2.09745,9.43856 2.09536,0.0715 9.14464,-8.35513 11.22885,-5.30363 1.80867,2.64808 -1.48531,10.26099 0.65675,10.19769 2.54384,-0.0752 6.99152,-4.89406 9.78813,-5.94279 2.79661,-1.04873 2.47918,8.7556 4.54449,8.38983 1.78188,-0.31558 6.80965,-7.87256 9.78814,-6.99153 1.70928,0.5056 2.94213,9.2211 5.24364,8.38983 1.72159,-0.62181 3.83936,-7.89557 8.38984,-7.3411 2.64274,0.32201 2.20141,9.25695 4.54449,7.69068 2.52848,-1.69021 7.49145,-8.3694 8.92661,-8.53464 2.32963,-0.26823 1.91025,8.53464 4.00771,8.53464 2.09746,0 8.73941,-8.38983 11.53602,-9.08898 2.79661,-0.69916 2.79661,10.83686 4.89406,9.43855 2.09746,-1.3983 5.9428,-10.48728 8.04026,-10.13771 2.09746,0.34958 3.49576,10.13771 5.94279,9.43856 2.44704,-0.69915 7.34111,-9.43856 9.78814,-9.43856 2.44703,0 1.74788,6.29238 4.54449,7.3411 2.79661,1.04873 5.32847,-7.17873 8.12508,-8.22746 2.79661,-1.04873 4.45967,8.57704 5.85797,8.57704 1.39831,0 5.30363,-10.13771 8.10024,-10.13771 2.79661,0 4.48451,6.64195 6.93154,6.99152 2.44704,0.34958 3.49576,-11.18644 5.59322,-11.18644 2.09746,0 4.89407,8.73941 6.99153,8.38983 2.09746,-0.34957 4.54449,-10.48728 6.99152,-10.48728 2.44704,0 4.89407,6.29237 6.99153,6.29237 2.09746,0 2.44703,-11.53602 4.89407,-11.88559 2.44703,-0.34958 4.54449,8.38983 7.69067,7.3411 3.14619,-1.04873 3.84534,-9.43856 5.9428,-11.53602 2.09746,-2.09746 5.24365,4.19492 7.69068,4.19492 2.44703,0 1.3983,-10.83687 3.84534,-12.23517 2.44703,-1.39831 6.64195,7.3411 8.38983,5.94279 1.74788,-1.3983 1.3983,-12.23517 3.14618,-13.98305 1.74789,-1.74788 6.64195,5.24365 8.04026,3.49576 1.3983,-1.74788 0.34958,-12.23516 2.09746,-13.28389 1.74788,-1.04873 8.04025,5.24364 9.43856,2.79661 1.3983,-2.44704 -0.69916,-11.53602 0.69915,-13.63348 1.3983,-2.09746 8.04025,5.24365 9.08898,3.14619 1.04873,-2.09746 -2.79661,-11.18644 -0.69915,-13.2839 2.09746,-2.09746 6.99152,3.14619 8.38983,0 1.3983,-3.14619 -3.14619,-11.18644 -1.74788,-13.98305 1.3983,-2.79661 7.3411,1.04873 7.69068,-1.04873 0.34957,-2.09746 -5.9428,-8.73941 -4.5445,-11.18644 1.39831,-2.44703 9.78814,-1.04873 9.78814,-3.84534 0,-2.79661 -4.89407,-9.08898 -4.54449,-11.53602 0.34958,-2.44703 6.29237,0.69916 7.3411,-2.44703 1.04873,-3.14619 -5.59322,-9.78814 -5.24364,-12.23517 0.34957,-2.44703 7.3411,-0.69915 7.69067,-2.79661 0.34958,-2.09746 -6.29237,-8.73941 -5.94279,-11.53602 0.34957,-2.79661 7.69068,-2.79661 7.69068,-5.24364 0,-2.44703 -8.04026,-6.29237 -7.69068,-8.73941 0.34957,-2.44703 7.69068,-2.09746 6.99152,-4.89407 -0.69915,-2.79661 -8.38983,-8.38983 -8.04025,-10.83686 0.34958,-2.44703 7.3411,-3.14619 6.99152,-5.24364 -0.34957,-2.09746 -9.43855,-5.24365 -9.43855,-7.69068 0,-2.44704 8.04025,-3.84534 6.99152,-6.64195 -1.04873,-2.79661 -8.73941,-7.3411 -9.08898,-9.78814 -0.34958,-2.44703 6.29237,-3.84534 5.94279,-5.94279 -0.34957,-2.09746 -8.7394,-2.44704 -9.78813,-5.59322 -1.04873,-3.14619 5.9428,-6.99153 5.59322,-8.73941 -0.34958,-1.74788 -10.13771,-1.04873 -11.18644,-4.19492 -1.04873,-3.14618 3.84534,-5.94279 3.14618,-8.7394 -0.69915,-2.79661 -12.23516,0.34957 -12.23516,-3.14619 0,-3.49576 5.24364,-5.59322 3.84533,-8.38983 -1.3983,-2.79661 -12.23517,-1.04873 -12.23517,-3.84534 0,-2.79661 6.99153,-6.99152 4.19492,-9.43856 -2.79661,-2.44703 -12.23517,0.69915 -12.23517,-1.74788 0,-2.44703 6.29237,-9.78813 4.19492,-10.13771 -2.09746,-0.34958 -11.53602,-1.04873 -12.23517,-3.14619 -0.69916,-2.09746 4.19491,-5.94279 2.79661,-8.04025 -1.39831,-2.09746 -10.48729,-1.74788 -11.53602,-2.79661 -1.04873,-1.04873 5.59322,-9.08899 3.14619,-10.13771 -2.44704,-1.04873 -10.13772,0.69915 -12.23517,-1.39831 -2.09746,-2.09746 1.3983,-8.38983 1.04873,-9.43856 -0.34958,-1.04873 -9.78814,2.44704 -11.18645,1.04873 -1.3983,-1.3983 4.19492,-8.38983 1.04873,-9.43856 -3.14618,-1.04873 -10.48728,3.49576 -12.23517,2.44703 -1.74788,-1.04873 -0.34957,-8.739404 -2.44703,-9.438556 -2.09746,-0.699153 -6.99153,5.942796 -9.43856,5.068856 -2.44703,-0.87394 -0.34958,-7.51589 -2.44703,-8.914196 -2.09746,-1.398305 -8.9142,4.020128 -10.3125,3.320975 -1.39831,-0.699153 0.34957,-7.865466 -1.74788,-9.263771 -2.09746,-1.398305 -9.08899,5.243644 -11.01166,4.020127 -1.92267,-1.223517 0.69916,-8.739407 -1.57309,-9.613348 -2.27225,-0.87394 -9.78814,5.418433 -11.36123,4.894068 -1.57309,-0.524364 -0.52436,-8.914195 -2.79661,-9.613347 -2.27225,-0.699153 -8.04025,6.117585 -9.78814,5.942796 -1.74788,-0.174788 -1.92266,-8.215042 -3.67055,-8.739406 -1.74788,-0.524365 -7.16631,7.166313 -10.3125,6.467161 -3.14618,-0.699153 -3.14618,-8.739407 -4.54449,-8.739407 -1.3983,0 -7.51589,8.215042 -8.56462,8.040254 -1.04872,-0.174788 -2.62182,-9.088983 -4.71928,-8.739407 -2.09745,0.349577 -6.64194,8.739407 -8.91419,9.088983 -2.27225,0.349577 -2.9714,-7.341101 -5.41843,-6.641949 -2.44704,0.699153 -5.59322,9.788136 -7.16632,9.613348 -1.57309,-0.174788 -5.06885,-8.040255 -6.81673,-7.341102 -1.74789,0.699152 -6.29238,9.788136 -8.21505,10.137712 -1.92267,0.349576 -3.49576,-6.467161 -5.59322,-5.942797 -2.09745,0.524365 -3.14618,11.011653 -6.29237,10.836865 -3.14619,-0.174788 -5.06886,-6.117585 -6.46716,-5.942797 -1.39831,0.174788 -5.41843,10.662076 -7.51589,10.3125 -2.09746,-0.349576 -4.19492,-6.816737 -6.11759,-6.292373 -1.92266,0.524365 -4.89406,10.137712 -6.64194,10.3125 -1.74789,0.174788 -5.41844,-5.243644 -6.99153,-5.243644 -1.57309,0 -6.11758,8.739405 -6.11758,8.739405"/>
  </g>
  <g id="back-left">
    <path d="m 387.5904,413.55381 c -5.18354,25.06133 -2.94347,36.65038 2.22469,43.25786 13.40353,14.41271 30.54283,13.51503 34.64912,13.69013 -4.89799,5.56679 -5.54186,11.89283 -10.74069,16.2403 -11.05201,1.46168 -16.90909,8.14725 -17.12924,15.55615 7.54106,-6.76555 16.46035,-8.03615 23.07203,-6.20498 -7.12101,5.94435 -8.40403,12.90399 -4.80667,20.7124 3.6786,-7.74223 10.55677,-16.86743 16.95445,-18.00319 -0.36778,9.48577 4.81856,11.45394 10.74947,15.29397 -1.19684,-10.00032 -1.25224,-14.29165 2.70921,-19.31409 10.66569,-14.60714 10.48025,-21.288 5.68062,-38.36599 -1.5311,-5.44792 -0.41056,-10.03792 -2.58093,-15.58097 -1.53471,-3.9196 -6.07455,-6.91183 -10.26599,-7.31628 -13.49326,-1.30202 -15.10148,5.26274 -18.52755,2.9714 -6.85686,-4.58584 -3.16582,-10.82018 -0.69915,-17.56621"/>
    <path fill="none" d="m 424.11239,470.46879 c 7.31072,0.27741 9.2604,-0.20346 13.40993,-1.05055"/>
    <path fill="none" d="m 437.66949,477.21615 c -3.39627,6.53152 -3.5959,11.97585 -1.3983,16.60488"/>
  </g>
  <g id="face" fill="none">
    <path d="m 92.695407,272.03882 c 2.823191,1.39335 6.321628,4.29188 8.157193,6.79767 0.96623,-4.51651 -2.43552,-9.48338 -8.157193,-6.79767 z"/>
    <path d="m 157.04714,332.57897 c -10.21563,1.70534 -25.14866,-13.34517 -32.4232,-23.68379"/>
    <path d="m 172.04268,348.29625 c 5.21596,8.08948 8.09327,17.47853 14.08969,20.57838 6.48193,3.35084 7.89631,0.0138 7.66283,-1.79211"/>
    <path d="m 150.96992,335.44248 c -0.21934,4.28838 7.42879,7.87996 11.67963,16.00541 6.65024,-0.69052 6.26301,-0.24362 10.62906,7.35384 2.02531,3.52428 4.0472,3.66051 5.80892,2.84265"/>
    <path d="m 139.90827,348.17265 c 6.72978,19.42798 20.34623,16.34082 29.41534,14.46049"/>
    <path d="m 94.302128,289.09478 c 12.940962,6.11875 25.835422,22.93586 31.516432,45.60614"/>
    <path d="m 142.50374,389.82379 c 0,0 8.6379,8.95824 15.44923,7.53922 11.86502,-2.47187 9.2736,-5.94859 13.22455,-4.94375 3.8337,0.97501 10.08755,4.97948 13.34814,9.88751"/>
    <path d="m 94.549315,362.01516 c 13.248325,4.71903 17.385535,11.45304 20.516585,17.55034"/>
    <path d="m 128.976,394.1499 c 15.81124,13.45929 26.75437,17.04929 36.39517,21.89126 16.30785,8.19041 23.9454,-4.64741 22.52608,-10.00832"/>
    <path d="m 185.48351,452.59402 c 17.43614,1.51579 27.26012,-12.45611 31.01632,-26.08343"/>
  </g>
  <g id="eye">
    <path stroke="none" fill="#aca" d="m 156.96422,332.59982 c 2.39246,-0.71773 11.03274,-1.9757 14.33689,1.73032 3.91298,4.38888 2.47188,11.88887 0.74156,13.96611 -3.55871,0.25739 -6.55097,-0.4051 -10.50547,-4.32579 -3.43261,-3.40327 -4.78322,-9.47849 -4.57298,-11.37064 z"/>
    <path stroke="none" fill="#000" d="m 161.97288,344.64712 c 1.70175,-5.14707 5.33729,-8.43404 9.8301,-10.09228 -1.06977,-0.85097 -1.90623,-1.79527 -4.08609,-2.2022 -2.8013,1.56789 -5.80344,3.8376 -8.37569,8.84135 0.61965,1.30559 1.43099,2.49617 2.63168,3.45313 z"/>
    <path fill="none" d="m 156.96422,332.59982 c 2.39246,-0.71773 11.03274,-1.9757 14.33689,1.73032 3.91298,4.38888 2.47188,11.88887 0.74156,13.96611 -3.55871,0.25739 -6.55097,-0.4051 -10.50547,-4.32579 -3.43261,-3.40327 -4.78322,-9.47849 -4.57298,-11.37064 z"/>
  </g>
</g>
<use id="shine" xlink:href="#shield" fill="url(#rg)" stroke="#000" stroke-width="3"/>
</svg>