<?xml version="1.0" encoding="UTF-8"?>
<svg xmlns="http://www.w3.org/2000/svg" xmlns:xlink="http://www.w3.org/1999/xlink" width="600" height="660">
<defs>
  <radialGradient id="rg" gradientUnits="userSpaceOnUse" cx="220" cy="220" r="405">
    <stop style="stop-color:#fff;stop-opacity:.3" offset="0"/>
    <stop style="stop-color:#fff;stop-opacity:.2" offset=".2"/>
    <stop style="stop-color:#666;stop-opacity:.1" offset=".6"/>
    <stop style="stop-color:#000;stop-opacity:.13" offset="1"/>
  </radialGradient>
  <path id="shield" d="m2,2v257c0,286 298,398 298,398c0,0 298-112 298-398V2z"/>
</defs>
<use xlink:href="#shield" fill="#ff0000"/>
<path id="inescutcheon" style="fill:#000000;" d="m 150,150 v 109 c 0,122.45655 90.12925,196.92036 150,232.97852 C 359.87075,455.92036 450,381.45655 450,259 V 150 Z"/>
<g id="tree">
    <path style="fill:#ffffff;stroke:none;" d="m 247.61,158.24 c -7.19,5.84 -11.67,11.68 -21.74,17.52 -7.59,-3.15 -17.13,-1.9 -22.36,-10.37 l -1.84,1.86 c 5.56,5.1 12.81,9.58 21.03,10.52 -0.65,7.68 3.72,12.12 5.92,18.98 -9.47,3.59 -22.09,-4.45 -32.17,-9.57 l -1.22,1.72 c 10.85,4.17 17.89,13.74 33.39,12.12 2.79,10.42 10.15,18.46 15.33,27.63 l -4.59,2.42 0.29,3.69 6.44,-0.78 c 9.59,1.55 15.1,4.86 21.74,7.7 l 6.73,17.01 c 6.44,9.92 8.11,14.51 13.08,18.12 1.8,10.81 5.63,15.39 4.68,25.23 -6.05,-1.85 -10.46,-5.81 -14.39,-10.39 l 3.07,-3.46 -4.9,-1.85 c -5.16,-7.17 -10.51,-14.15 -12.56,-24.45 l 1.83,-2.13 -0.91,-4.24 -5.53,2.38 c -11.65,-5.79 -25.31,-3.74 -37.99,-5.59 -0.59,-5.73 -8.94,-9.96 -13.78,-14.88 -10,-6.13 -18.4,-10.66 -21.51,-22.17 l -2.69,1.71 c 3.86,10.74 10.84,17.07 21.45,24.71 -7.1,2.32 -14.61,0.35 -21.24,7.61 l 1.03,2.49 c 9.68,-8.22 18.29,-5.55 26.94,-3.99 3.65,3.12 6.97,6.26 6.44,9.83 l 2.79,1.07 c 6.52,0.8 17.19,-2 18.99,2.92 l 2.13,0.28 c 13.84,-2.83 14.13,5.55 17.44,11.42 0.35,6.81 5.01,11.74 8.29,17.27 -2.8,2.59 -5.38,5.32 -19.91,0.28 l -12.88,-0.78 -3.07,-6.41 c -6.78,0.87 -13.25,-2.2 -19.28,-9.83 l -2.46,1.87 6.15,6.89 c -11.33,0.24 -22.66,4.48 -33.99,-2.38 v 2.13 c 9.85,4.47 20.31,4.97 30.91,4.24 -0.53,6.77 -14.12,7.88 -21.45,11.71 l 3.99,1.6 c 7.88,-3.66 19.15,-4.82 22.35,-11.96 11,0.63 13.09,4.11 9.8,9.29 l 6.76,1.07 c 1.27,-1.36 3.52,-2.39 14.41,-0.53 -1.91,4.89 -7.1,5.96 -11.04,8.51 h 4.89 c 6.63,-0.79 8.34,-3.42 9.8,-6.13 7.97,3 14.33,1.17 20.85,-0.25 3.49,3.72 6.95,7.47 12.54,9.83 0.11,3.93 0.89,7.7 3.08,11.17 -2,6.61 -0.38,12.03 1.84,17.27 -2.84,4.08 -5.5,8.16 -5.21,12.23 5.06,11.17 2.04,22.34 -1.22,33.5 -6.88,9.14 -20.69,8.9 -31.88,12.21 -7.91,2.03 -16.26,4.01 -27.85,5.59 -3.94,2.73 -6.07,4.59 -1.56,3.2 7.36,-1.52 14.71,-2.88 22.07,-3.48 10.37,-2.51 19.68,-3.5 28.46,-3.71 l 10.42,-5.84 c -7.68,5.36 -16.37,10.44 -22.64,16.2 -2.15,3.2 -0.73,7.1 -4.93,10.64 -12.91,4.88 -16.41,9.75 -24.48,14.62 l -0.62,2.93 c 10.46,-7.29 21.56,-12.35 33.07,-15.95 2.17,-2.19 5.69,-3.23 4.91,-7.97 2.98,-6.56 17.73,-8.26 22.37,-17.3 3.59,2 1.54,3.51 0,5.05 0,2.54 -6.66,5.75 -9.92,8.29 -2.1,1.63 -3.45,2.58 -1.74,4.21 -0.43,5.29 1.24,9.97 3.98,14.35 -0.18,7.67 -8.34,11.89 -12.55,17.82 l 0.94,1.32 c 5.5,-5.93 14.67,-10.75 18.29,-16.84 0.69,-1.17 0.41,-3.21 0.7,-4.4 -2.46,-3.46 -6.25,-6.34 -3.68,-11.97 6.22,-3.75 12.44,-11.77 18.66,-11.17 -2.31,6 -1.03,11.47 -0.29,17.01 4.68,2.32 6.45,6.17 8.57,9.83 l 22.69,11.95 c 2.18,1.18 2.9,0.81 2.42,-0.78 l -21.42,-13.82 c -1.76,-5.48 -2.63,-10.98 -5.82,-16.47 1.87,-4.43 8.11,-7.58 5.5,-13.31 1.51,8.12 5.86,13.29 14.74,16 3.16,0.96 6.01,3.47 7,6.6 9.98,3.66 23.57,4.87 38.3,5.31 3.33,-0.1 4.38,-0.66 1.85,-2.11 -11.44,-2.48 -24.16,-0.51 -34.32,-7.47 -4.89,-6.4 -5.86,-9.31 -17.16,-18.87 14.66,7.24 28.4,4.01 42.58,5.85 v -1.33 c -10.41,-2.21 -17.57,-1.13 -31.25,-6.64 -5.81,-2.13 -12.53,-3.46 -13.79,-9.55 l -6.39,-22.89 c 3.28,-9.29 4.73,-18.59 0.6,-27.9 0.83,-3.31 1.65,-6.64 0.91,-13.56 -1.41,-3.76 2.29,-7.04 5.51,-10.35 4.38,1.5 7.67,0.12 11.03,-1.07 0.16,-3.89 -0.98,-7.65 3.69,-11.96 l 15,-4.78 c 13.97,-2.1 24.22,-1.47 27.57,4.24 h 4.88 c 10.9,-8.13 23.19,-11.73 37.09,-10.08 l 0.6,-1.88 c -7.26,-0.73 -13.68,-2.06 -22.67,-1.6 8.51,-3.91 9.18,-10.17 12.36,-15.94 l -2.66,-0.47 c -1.35,9.91 -13.08,13.43 -19.8,20.15 -13.98,-3.34 -27.97,-6.76 -41.96,0.25 l -2.17,-4.78 -3.65,-1.31 1.23,4.77 c -9.51,1.89 -17.49,7.28 -25.43,12.78 6.88,-8.68 15.43,-16.87 15.92,-27.4 22.05,-2.45 39.95,-9.54 47.78,-27.91 l 18.99,-1.07 2.76,-2.39 c 0,0 -2.22,0.46 -1.2,-0.52 2.81,-2.76 17.95,-11.28 16.29,-11.52 l 1,-1.69 c -15.06,7.36 -16.53,14.75 -39.36,12.14 -0.18,-7.73 -1.01,-15.54 6.44,-22.32 3.08,-0.1 5.29,-1.43 6.12,-4.78 0.67,-2.81 -0.79,-1.56 -1.91,-0.95 -2.34,3.29 -5.95,3.76 -9.41,4.12 -4.45,7.4 -7.33,14.89 -6.15,22.6 l -5.51,-1.85 0.62,4.77 c 4.92,18.36 -16.81,20.3 -37.07,23.14 l -9.81,4.77 c 0,6.67 -4.13,11.27 -8.58,15.69 l -4.27,1.86 v 4.26 l -7.05,13.03 c -0.34,-12.03 -1.67,-19.15 -5.4,-30.85 9.51,-5.53 7.63,-19.1 11.52,-26.31 10.59,-1.61 21.51,-7.87 32.48,-14.62 l 1.52,2.12 3.36,-1.31 -0.61,-3.2 11.13,-17.8 1.13,0.78 c -0.87,-5.64 -2.69,-10.89 0,-18.08 1.48,-4.25 3.7,-8.49 7.05,-12.74 l -1.37,-0.5 c -5.22,4.93 -6.03,8.91 -8.54,13.24 l -1.77,15.7 c -6.59,13.52 -16.02,20.42 -27.82,25.52 1.23,-6.55 0.48,-12.81 -0.5,-19.03 l -2.57,-0.12 c 1.15,5.33 1.81,10.78 0,16.77 0.6,6.33 -8.43,5.43 -12.88,7.96 0.93,-9.54 2.02,-18.78 -3.83,-26.83 8.01,-9.33 8.8,-19.79 14.57,-30.04 l -0.93,-3.74 c -1.37,2.86 -1.57,9 -4.27,8.09 -1.75,-4.56 -1.09,-9.11 -5.83,-13.67 -3.65,-2.83 -6.99,-6.28 -9.89,-10.74 l -2.09,0.91 c 1.99,4.87 4.76,9.18 8.61,12.75 6.15,5.51 4.16,11.04 6.15,16.56 -2.96,2.94 -3.29,7.49 -5.85,11.09 0.84,3.13 -3.47,6.9 -5.21,10.36 v 0.53 c 7.43,9.22 1.76,18.19 2.98,27.41 -3.19,-0.29 -3.46,2.02 -4.83,3.95 1.68,9.69 -1.35,12.8 -11.07,18.03 -2.84,-3.29 -10.86,-4.4 -12.2,-12.69 -0.27,-1.25 -0.66,-2.76 -1.77,-3.37 -4.79,-2.62 -0.68,-7.88 -1.29,-11.27 7.39,-3.51 9.53,-13.06 12.52,-20.82 -1.74,-9.69 -3.71,-19.56 -2.49,-30.21 h -2.07 c -0.56,8.95 -0.82,17.89 1.23,26.84 -2.51,11.02 -7.53,19.87 -17.48,24.46 -5.31,-2.22 -11.67,-2.58 -15.91,-6.63 -4.41,-4.72 -9.36,-9.29 -10.71,-14.88 4.76,-2.97 10.02,-5.87 17.77,-8.51 3.07,-4.36 7.16,-9.23 12.87,-14.9 l -0.94,-2.12 -10.71,11.15 c -7.25,2.94 -14.5,10.59 -21.74,8.51 -7.2,-6.02 -6.3,-12.04 -9.22,-18.06 5.71,2.95 9.99,-0.93 14.72,-2.67 l 0.29,-2.12 c -5.09,0.78 -9.24,6 -15.3,2.12 -0.98,-3.8 -4.2,-7.6 -1.86,-11.41 8.4,-5.18 13.14,-11.17 19.62,-16.77 z" />
    <path style="fill:none;stroke:#000000;stroke-width:1;stroke-linecap:round;" d="m 291.62,268.33 c 4.19,3.26 7.24,6.53 6.21,9.79 m 27.93,23.99 c 1.94,-1.6 2.95,-3.68 8.46,-3.43 m -36.95,14.7 0.84,11.99 c -1.05,5.17 0.12,9.58 2.83,13.46 -1.88,2.45 -3.76,6.63 -5.65,11.02 3.58,11.43 4.6,22.5 3.66,33.28 -0.17,2.03 -1.6,3.78 -4.79,5.15 m 19.18,-70.75 c 0.61,4.7 2.46,9.14 0.29,14.45 2.77,9.92 -0.56,18.8 -1.13,28.14 -1.66,10.19 3.57,18.39 5.92,27.42 v 0 h 0.57" />
</g>
<g id="crow" transform="translate(93.625,48.936)" style="fill:#000000;stroke:#ff0000;stroke-width:0.5;stroke-linecap:round;stroke-linejoin:round">
    <path d="m 195.69,572.49 c -0.61,0.38 -0.96,1 -1.24,1.79 -0.1,0.2 -0.13,0.44 -0.13,0.74 0,0.51 0.24,1.05 0.58,1.53 0.34,0.49 1.23,0.71 2.69,0.74 -0.76,-1.25 -0.81,-2.25 -0.34,-2.81 0.47,-0.54 1.12,-1.04 1.95,-1.3 0.25,-0.1 0.58,-0.2 0.95,-0.56 0.37,-0.38 0.93,-0.96 1.47,-1.54 0.26,-0.28 0.62,-0.59 0.9,-0.88 l -0.42,-0.47 c -0.77,0.44 -1.52,0.69 -2.38,0.86 -0.93,0.2 -1.73,0.55 -2.42,0.98 -0.56,0.18 -1.08,0.55 -1.61,0.92 z" />
    <path d="m 198.96,574.72 c -0.14,0.6 -0.2,1.4 0.2,2.17 0.29,0.93 0.66,1.27 1.24,1.07 0.63,-0.1 1.33,-0.25 2.23,-0.4 -1.11,-0.82 -1.48,-1.7 -1.07,-2.45 0.39,-0.74 0.76,-1.37 1.02,-1.82 0.32,-0.49 0.58,-0.94 1.07,-1.31 0.12,-0.17 0.25,-0.46 0.28,-0.78 0,0.32 -0.16,0.61 -0.28,0.78 -0.22,0.33 -0.24,0.88 0,1.71 0.12,0.79 0.59,1.31 1.1,1.37 0.64,0.1 1.39,0.25 2.54,0.2 -0.93,-1.25 -1.32,-2.22 -1.14,-2.97 0.13,-0.71 0.53,-1.45 1.01,-2.02 0.6,-0.52 1.29,-0.89 2.15,-1.13 0.23,-0.11 0.53,0.1 0.74,0.49 0.47,0.72 0.67,1.48 0.47,2.23 0,0.21 -0.1,0.38 -0.1,0.59 0.23,-0.12 0.43,-0.33 0.54,-0.49 0.63,-0.66 1.03,-1.4 1.47,-2.06 0.39,-0.74 0.44,-1.41 0.16,-2.13 -0.4,-0.97 -1.01,-1.39 -1.89,-1.38 -0.19,0 -0.38,0 -0.62,0.1 -0.81,0.32 -1.67,0.55 -2.49,0.86 -0.74,0.28 -1.58,0.17 -2.4,-0.47 -0.97,-2.85 -1.47,-5.7 -1.65,-8.3 -0.1,-1.25 -0.1,-2.88 0.1,-4.64 -1.11,0.47 -2.18,0.69 -3.3,0.41 -0.1,0.45 -0.31,0.91 -0.72,1.23 l 0.1,0.1 3.03,12.84 c 0.1,0.16 0,0.33 0,0.54 -2.16,2.13 -3.32,4.23 -3.7,5.66 z" />
    <path d="m 207.5,573.46 c -0.61,0.39 -0.97,1 -1.25,1.8 -0.1,0.2 -0.13,0.44 -0.12,0.74 0,0.51 0.23,1.04 0.58,1.53 0.33,0.49 1.23,0.71 2.69,0.74 -0.76,-1.26 -0.81,-2.25 -0.35,-2.81 0.47,-0.54 1.12,-1.04 1.95,-1.31 0.25,-0.1 0.58,-0.19 0.95,-0.55 0.37,-0.39 0.93,-0.96 1.48,-1.54 0.26,-0.29 0.62,-0.6 0.89,-0.88 l -0.42,-0.47 c -0.77,0.44 -1.51,0.69 -2.37,0.86 -0.93,0.19 -1.73,0.55 -2.42,0.97 -0.57,0.18 -1.09,0.55 -1.61,0.92 z" />
    <path d="m 210.77,575.7 c -0.15,0.59 -0.2,1.4 0.2,2.16 0.28,0.93 0.65,1.28 1.23,1.08 0.63,-0.1 1.33,-0.26 2.24,-0.4 -1.12,-0.82 -1.48,-1.71 -1.07,-2.45 0.39,-0.74 0.75,-1.37 1.01,-1.83 0.33,-0.49 0.58,-0.94 1.09,-1.3 0.1,-0.17 0.24,-0.46 0.26,-0.78 0,0.32 -0.16,0.61 -0.26,0.78 -0.24,0.33 -0.25,0.87 0,1.71 0.11,0.79 0.56,1.31 1.08,1.37 0.64,0.1 1.39,0.25 2.55,0.2 -0.95,-1.25 -1.34,-2.22 -1.15,-2.97 0.13,-0.71 0.53,-1.45 1.01,-2.02 0.61,-0.53 1.31,-0.89 2.16,-1.13 0.22,-0.11 0.53,0.1 0.73,0.48 0.47,0.73 0.67,1.49 0.47,2.24 0,0.21 -0.1,0.37 -0.1,0.59 0.23,-0.12 0.42,-0.33 0.53,-0.49 0.64,-0.66 1.03,-1.4 1.48,-2.06 0.39,-0.74 0.44,-1.41 0.17,-2.13 -0.41,-0.98 -1.03,-1.4 -1.9,-1.38 -0.2,0 -0.39,0 -0.62,0.1 -0.82,0.32 -1.69,0.54 -2.5,0.86 -0.74,0.28 -1.56,0.16 -2.4,-0.48 -0.97,-2.84 -1.48,-5.69 -1.65,-8.29 -0.1,-1.25 -0.1,-2.88 0.1,-4.65 -1.13,0.48 -2.19,0.69 -3.32,0.42 -0.1,0.45 -0.3,0.91 -0.71,1.23 l 0.1,0.1 3.03,12.84 c 0.1,0.16 0,0.32 0,0.54 -2.17,2.13 -3.32,4.22 -3.69,5.66 z" />
    <path d="m 207.16,472.42 c -1.57,0.76 -3.13,1.43 -4.59,2.19 -1.58,0.67 -3.06,1.44 -4.44,2.3 -1.56,0.86 -3.04,1.82 -4.43,2.96 -1.39,0.96 -2.69,2.11 -3.65,3.35 -1.21,1.43 -2,2.96 -2.51,4.78 -0.44,1.81 -0.69,3.62 -0.69,5.54 -0.1,1.81 0,3.72 0.25,5.63 0.35,1.92 0.61,3.73 1.05,5.26 0.17,0.1 0.26,0.19 0.42,0.28 0.88,0.67 1.66,1.43 2.44,2.2 0.25,0.58 0.61,1.06 0.88,1.62 1.12,1.06 2.24,1.63 3.2,1.73 1.04,0 1.56,-0.38 1.66,-1.14 -0.27,-1.15 -0.62,-2.3 -1.14,-3.34 -0.86,-1.44 -1.64,-3.07 -2.26,-4.79 -0.69,-1.91 -0.69,-3.63 0.17,-5.25 0.7,-1.62 1.83,-2.97 3.23,-4.02 1.55,-1.05 3.11,-2.11 4.68,-2.95 1.56,-0.96 3.12,-1.83 4.59,-2.39 1.66,-0.77 3.22,-1.45 4.79,-1.92 1.64,-0.67 3.38,-1.15 5.03,-1.52 1.81,-0.49 3.55,-0.87 5.21,-1.25 1.73,-0.29 3.29,-0.66 4.94,-0.86 1.83,-0.19 3.56,-0.48 5.38,-0.75 1.65,-0.21 3.39,-0.49 5.13,-0.69 0,0 0,0 0.1,0 1.31,-0.38 2.43,-1.23 3.48,-2.57 0.96,-1.43 1.56,-2.97 2.09,-4.59 -0.53,0.47 -1.13,0.86 -1.91,1.06 -1.65,0.48 -3.31,0.95 -5.04,1.43 -1.73,0.47 -3.48,0.85 -5.2,0.96 -1.74,0.1 -3.57,0.19 -5.39,0.1 0.7,-0.1 1.3,-0.27 1.91,-0.47 1.65,-0.76 3.22,-1.62 4.69,-2.48 1.39,-0.76 2.69,-1.91 3.82,-3.24 1.13,-1.54 2.26,-2.97 3.29,-4.4 0.96,-1.43 1.4,-3.25 1.3,-5.55 -0.86,0.87 -1.9,1.54 -3.29,2.11 -1.47,0.76 -3.13,1.34 -4.86,2.01 -1.73,0.66 -3.21,1.14 -4.51,1.62 -1.31,0.48 -2.96,1.06 -4.78,1.72 -1.82,0.67 -3.57,1.24 -5.12,1.91 -1.56,0.58 -3.21,1.06 -4.95,1.53 -1.74,0.48 -3.47,1.15 -4.94,1.91" />
    <path d="m 233.37,485.8 c -1.56,1.34 -2.68,2.2 -3.56,2.77 0.18,0 0.52,0 0.88,0 1.12,0.1 2.5,0.1 4.16,0 1.55,0 3.2,0 5.03,0.27 1.82,0.29 1.9,1.25 0.26,2.88 -0.17,0 -0.36,0.19 -0.36,0.29 -0.51,0.28 -0.85,0.68 -1.29,1.04 -0.87,0.58 -1.74,1.15 -2.69,1.83 -1.04,0.57 -2.09,0.95 -3.21,1.04 l -0.1,0.39 c 0.86,0.1 1.81,0.19 2.87,0.38 1.47,0.29 1.81,1.05 1.12,2.39 2.77,0 4.43,0.19 5.03,0.47 1.66,0.88 3.3,1.44 4.95,1.82 1.82,0.29 3.65,0.57 5.46,0.85 1.92,0.2 3.57,-0.28 5.04,-1.23 1.4,-0.96 2.52,-2.2 3.39,-3.82 -1.56,0 -3.22,0 -4.69,-0.19 -1.82,-0.1 -3.48,-0.48 -5.12,-1.06 -1.73,-0.66 -3.38,-1.43 -4.95,-2.19 -1.56,-0.77 -3.47,-1.25 -5.47,-1.34 0.87,0 1.74,0 2.7,0 1.82,0 3.64,0 5.55,0 1.65,-0.1 3.38,-0.1 5.2,-0.19 1.83,0 3.56,-0.48 5.05,-1.24 1.54,-0.87 2.86,-2.12 3.72,-3.73 0.88,-1.53 0.78,-2.38 -0.43,-2.38 -1.82,-0.1 -3.55,-0.2 -5.38,-0.1 -1.83,0 -3.65,-0.1 -5.46,-0.39 -0.78,0 -1.4,0.1 -2.09,0.2 -0.52,0 -1.04,0 -1.48,0 -9.46,0.29 -14.23,0.66 -14.15,1.24" />
    <path d="m 265.74,552.11 c 2.96,0.56 5.22,-0.28 6.77,-2.49 0.97,-1.63 1.58,-2.78 1.74,-3.54 -2.94,0 -5.63,-0.19 -8.25,-0.66 -3.03,-0.68 -5.89,-1.33 -8.68,-2.2 -0.69,0.67 -1.47,1.24 -2.33,1.52 -1.05,0.39 -2.17,0.77 -3.31,1.07 l -0.42,1.33 c 6.06,3.15 10.92,4.77 14.48,4.97" />
    <path d="m 236.5,499.08 c -0.18,0.1 -0.27,0.19 -0.35,0.28 -1.48,0.95 -2.86,1.83 -3.99,2.39 -1.13,0.67 -1.74,0.96 -1.91,0.96 -0.87,1.63 -2,3.07 -3.39,3.92 -0.18,0.1 -0.44,0.28 -0.61,0.38 0.87,1.15 1.83,2.11 2.95,3.25 1.39,1.23 2.96,1.91 4.77,2 1.83,0.1 3.57,0.1 5.3,0 -1.22,-0.86 -2.35,-2.19 -3.29,-3.63 -1.13,-1.42 -2.01,-2.96 -2.61,-4.58 0.87,0.57 1.82,1.33 2.78,2.09 1.39,1.07 2.86,2.02 4.51,2.69 1.74,0.76 3.47,1.05 5.39,1.14 1.91,-0.1 3.55,-0.66 4.86,-1.81 -0.96,-0.48 -2,-1.34 -2.95,-2.3 -1.31,-1.24 -2.61,-2.48 -4,-3.92 -1.31,-1.33 -3.82,-2.29 -7.46,-2.86" />
    <path d="m 230.25,502.71 c -1.57,0.29 -3.13,0.38 -4.69,0.29 -0.43,0 -1.92,-0.1 -4.26,-0.38 -0.34,0.38 -0.69,0.67 -1.12,0.95 -1.48,1.24 -2.87,2.29 -4.34,3.15 -0.61,0.38 -1.13,0.77 -1.83,1.05 0.7,0.47 1.57,0.86 2.61,0.76 1.74,-0.1 3.47,-0.29 5.2,-0.29 h 0.69 c 1.22,-0.1 2.53,-0.56 3.65,-1.23 -0.1,-0.18 0.1,0 0.1,0 0.17,-0.1 0.43,-0.29 0.61,-0.38 1.39,-0.85 2.52,-2.29 3.39,-3.92" />
    <path d="m 220.79,510.07 c -0.61,0.57 -1.22,1.05 -1.74,1.62 -1.04,0.95 -2.17,1.52 -3.47,1.91 0.26,0.76 0.26,1.43 0.16,2.2 -0.1,0.96 -0.51,2.01 -1.29,3.07 -1.14,1.51 -2.61,2.19 -4.26,1.71 0.35,0.56 0.95,1.04 1.83,1.63 1.22,0.85 2.51,1.42 3.82,1.8 0.34,0 0.6,0 0.95,0.1 0.52,0.1 0.86,0.1 1.31,0.1 1.47,-0.1 2.69,-0.58 3.55,-1.53 -1.12,-0.47 -2.08,-1.15 -2.95,-2.3 -1.22,-1.51 -2.18,-3.05 -2.86,-4.58 0.68,0.96 1.56,1.72 2.59,2.49 1.58,1.05 3.31,1.53 5.21,1.53 2.09,0.1 3.48,-0.68 4.09,-2.4 -1.48,-0.47 -2.69,-1.53 -3.74,-2.95 -0.77,-1.07 -1.48,-2.21 -2.25,-3.16 -0.26,-0.29 -0.61,-0.76 -0.95,-1.24" />
    <path d="m 219.05,511.69 c 0.52,-0.57 1.13,-1.05 1.74,-1.62 0.51,-0.67 1.13,-1.24 1.72,-1.83 -0.25,0 -0.51,0 -0.69,0 -1.73,0 -3.46,0.2 -5.2,0.29 -1.04,0.1 -1.91,-0.29 -2.61,-0.76 -0.52,0.1 -1.04,0.2 -1.56,0.39 0.1,2 -0.69,3.63 -2.26,4.77 -0.43,0.19 -0.86,0.47 -1.3,0.77 1.74,0.38 3.56,0.38 5.38,0.19 0.44,-0.1 0.88,-0.19 1.31,-0.29 1.3,-0.39 2.43,-0.96 3.47,-1.91" />
    <path d="m 221.74,511.31 c 0.43,0.57 1.04,1.05 1.74,1.62 1.03,0.58 2.17,1.15 3.38,1.54 1.73,0.47 3.47,0.66 5.11,0.37 -1.11,-0.95 -2.24,-1.91 -3.12,-3.24 -1.12,-1.53 -1.99,-3.07 -2.69,-4.59 -1.12,0.67 -2.43,1.15 -3.65,1.23 -0.59,0.59 -1.21,1.16 -1.72,1.83 0.34,0.48 0.69,0.95 0.95,1.24" />
    <path d="m 234.59,542.74 c -0.79,0.19 -1.65,0.19 -2.53,0.1 -0.1,0 -0.1,0 -0.17,0 -0.17,-0.1 -0.25,-0.1 -0.35,-0.1 -0.17,0.1 -0.51,0.28 -0.85,0.48 -0.44,0.28 -0.96,0.48 -1.4,0.67 -0.44,0.1 -1.04,0.28 -1.47,0.38 -0.1,0.47 -0.18,0.86 -0.35,1.15 -0.17,0.29 -0.44,0.58 -0.69,0.77 0.86,0.37 1.73,0.85 2.42,1.52 0.96,0.67 1.91,1.43 2.77,2.2 0.88,0.67 1.74,1.44 2.62,2.2 0.78,0.86 1.56,1.71 2.33,2.67 0.27,0.48 0.79,0.86 1.23,1.24 0.51,0.29 0.95,0.57 1.47,0.86 1.13,0.29 2.26,0.48 3.56,0.48 0.87,-0.1 1.56,-0.48 2.26,-1.14 -0.87,-0.48 -1.65,-0.96 -2.34,-1.44 -0.96,-0.76 -1.84,-1.53 -2.69,-2.29 -0.88,-0.86 -1.75,-1.72 -2.61,-2.48 -0.88,-0.77 -1.74,-1.44 -2.61,-2.02 -1.13,-0.57 -2.07,-1.15 -3.13,-1.8 -0.85,-0.58 -1.73,-1.06 -2.6,-1.54 0.87,0.48 1.75,0.96 2.6,1.54 1.06,0.65 2,1.23 3.13,1.8 0.87,0.58 1.73,1.25 2.61,2.02 0.86,0.76 1.73,1.62 2.61,2.48 0.85,0.76 1.73,1.53 2.69,2.29 0.69,0.48 1.47,0.96 2.34,1.44 0.16,0.1 0.26,0.1 0.43,0.18 1.04,0.58 2.17,0.86 3.46,0.96 1.23,0 2.35,-0.1 3.31,-0.48 0.35,0 0.61,-0.1 0.88,-0.18 -0.1,-0.11 -0.1,-0.11 -0.1,-0.11 -1.04,-0.57 -1.99,-1.33 -2.77,-2.09 -0.79,-0.76 -1.57,-1.63 -2.43,-2.39 -0.88,-0.76 -1.83,-1.53 -2.7,-2.29 -0.88,-0.58 -1.73,-1.34 -2.61,-2.02 -0.86,-0.76 -1.82,-1.43 -2.77,-1.99 -0.96,-0.76 -2.09,-1.35 -3.04,-2.02 -0.78,-0.47 -1.65,-0.77 -2.51,-1.05" />
    <path d="m 226.78,546.19 c -0.62,0.47 -1.39,0.65 -2.44,0.65 0.79,0.39 3.3,4.21 7.63,11.38 0.62,0.67 1.67,0.87 3.05,0.76 1.3,-0.28 2.17,-0.76 2.69,-1.81 0.1,-0.29 0.27,-0.77 0.44,-1.15 -0.44,-0.38 -0.96,-0.76 -1.23,-1.24 -0.77,-0.96 -1.55,-1.81 -2.33,-2.67 -0.88,-0.76 -1.74,-1.53 -2.62,-2.2 -0.86,-0.77 -1.81,-1.53 -2.77,-2.2 -0.69,-0.67 -1.56,-1.15 -2.42,-1.52" />
    <path d="m 237.1,543.79 c 0.95,0.67 2.08,1.26 3.04,2.02 0.95,0.56 1.91,1.23 2.77,1.99 0.88,0.68 1.73,1.44 2.61,2.02 0.87,0.76 1.82,1.53 2.7,2.29 0.86,0.76 1.64,1.63 2.43,2.39 0.78,0.76 1.73,1.52 2.77,2.09 0,0 0,0 0.1,0.11 2.6,0.75 5.12,0.56 7.29,-0.77 2.16,-1.34 3.81,-2.59 4.93,-3.82 -3.56,-0.2 -8.42,-1.82 -14.48,-4.97 -0.88,-0.48 -1.66,-0.86 -2.53,-1.33 -2.6,-1.54 -5.46,-3.16 -8.59,-5.09 -2.34,1.07 -3.91,1.64 -4.51,1.84 -0.35,0 -0.7,0.1 -1.04,0.18 0.86,0.28 1.73,0.58 2.51,1.05" />
    <path style="fill:#000000;stroke:none;" d="m 158.03,500.61 c -0.78,0.96 -1.13,1.91 -1.06,2.77 0.79,0.96 1.67,1.14 2.79,0.48 0.26,-0.1 0.36,-0.29 0.53,-0.57 0.16,-0.67 0.25,-1.63 0.1,-2.68 -0.85,0.29 -1.65,0.29 -2.33,0 z" />
    <path style="fill:#ffffff;stroke:none;" d="m 159.76,503.86 c -1.12,0.66 -2,0.48 -2.79,-0.48 0,0.57 0.19,1.14 0.53,1.72 0.88,0.28 2.01,0.47 3.21,0.28 1.05,-0.1 1.91,-0.67 2.7,-1.52 0.43,-0.57 0.69,-1.34 0.86,-2.2 -1.12,-0.2 -2.08,-0.67 -2.86,-1.43 -0.17,0.1 -0.34,0.2 -0.52,0.28 -0.26,0 -0.35,0.1 -0.52,0.1 0.17,1.05 0.1,2.01 -0.1,2.68 -0.17,0.28 -0.27,0.47 -0.53,0.57 z" />
    <path d="m 192.49,541.88 c -0.87,-0.19 -1.48,-0.28 -2,-0.57 0.17,1.05 0.61,2.1 1.3,3.05 0.61,0.97 1.31,1.83 2.08,2.68 0.71,0.87 1.4,1.82 2,2.87 0.7,1.05 1.04,2.2 1.13,3.43 0.1,1.34 0,2.59 -0.35,3.83 -0.35,1.05 -0.87,1.72 -1.65,2.11 1.3,0.18 2.44,0.18 3.48,0 0.35,0 0.69,-0.3 0.96,-0.58 0.25,-0.19 0.34,-0.39 0.51,-0.68 0,-0.19 0.1,-0.37 0.18,-0.66 0.86,0.29 1.81,0.77 3.03,1.34 0.43,0.28 0.95,0.47 1.49,0.67 0.6,0.1 1.11,0.28 1.73,0.38 0.78,0 1.38,-0.1 1.81,-0.29 0.1,-0.37 0.26,-0.76 0.44,-1.24 0.17,-0.57 0.35,-1.05 0.43,-1.72 -0.87,0 -1.64,-0.48 -2.26,-1.43 -0.69,-1.05 -1.29,-1.92 -1.81,-2.76 1.03,0 2.08,0 3.03,-0.12 -0.95,-0.28 -1.73,-1.14 -2.51,-2.18 -0.61,-1.06 -0.86,-2.3 -0.52,-3.73 -0.26,-0.2 -0.52,-0.28 -0.69,-0.47 -1.14,-0.59 -2.18,-1.24 -3.21,-1.83 -0.63,-0.48 -1.31,-0.85 -1.92,-1.33 -0.34,0 -0.61,0 -0.95,0 -1.92,0 -3.74,-0.2 -5.73,-0.77" />
    <path d="m 221.05,481.69 c -1.66,0.38 -3.4,0.76 -5.21,1.25 -1.65,0.37 -3.39,0.85 -5.03,1.52 -1.57,0.47 -3.13,1.15 -4.79,1.92 -1.47,0.56 -3.03,1.43 -4.59,2.39 -1.57,0.84 -3.13,1.9 -4.68,2.95 -1.4,1.05 -2.53,2.4 -3.23,4.02 -0.86,1.62 -0.86,3.34 -0.17,5.25 0.62,1.72 1.4,3.35 2.26,4.79 0.52,1.04 0.87,2.19 1.14,3.34 0.16,0.66 0,1.8 -0.36,3.33 -0.43,1.63 -1.64,2.49 -3.9,2.68 2.26,-0.19 3.47,-1.05 3.9,-2.68 0.36,-1.53 0.52,-2.67 0.36,-3.33 -0.1,0.76 -0.62,1.14 -1.66,1.14 -0.96,-0.1 -2.08,-0.67 -3.2,-1.73 -0.27,-0.56 -0.63,-1.04 -0.88,-1.62 -0.78,-0.77 -1.56,-1.53 -2.44,-2.2 -0.16,-0.1 -0.25,-0.19 -0.42,-0.28 -0.35,-0.19 -0.61,-0.38 -0.87,-0.38 -0.95,-0.48 -1.91,-0.96 -3.04,-1.43 -0.95,-0.48 -2.17,-0.68 -3.48,-0.58 0.35,-0.1 0.71,-0.38 0.96,-0.58 0.52,-0.67 0.78,-1.33 0.96,-1.99 -0.61,0.28 -1.92,0.28 -3.83,0 -2.86,-0.39 -4.67,-0.77 -5.73,-1.06 1.13,-0.38 1.57,-1.24 1.57,-2.67 -0.1,-1.44 -0.77,-2.2 -1.99,-2.49 0,0.38 -0.1,0.68 -0.19,0.95 -0.25,1.15 -0.95,1.83 -2.07,1.91 -1.12,0.11 -2.34,0.11 -3.56,0 -1.13,-0.1 -2.26,-0.19 -3.47,-0.19 -1.22,0 -2.34,0.11 -3.48,0.3 -1.22,0.1 -2.17,0.66 -3.03,1.52 -0.26,0.57 -0.35,1.05 -0.35,1.53 0,0.57 0.35,1.04 0.95,1.24 0.18,0.1 0.26,0.1 0.53,0.1 0.68,0.29 1.48,0.29 2.34,0 0.17,0 0.26,-0.1 0.52,-0.1 0.18,-0.1 0.35,-0.2 0.52,-0.28 0.26,-0.2 0.52,-0.39 0.7,-0.48 0.6,-0.48 1.3,-0.96 1.99,-1.15 -0.69,0.19 -1.39,0.67 -1.99,1.15 -0.18,0.1 -0.44,0.28 -0.7,0.48 0.78,0.76 1.74,1.23 2.86,1.43 h 0.44 c 1.04,0.28 2.17,0.2 3.39,0 0.52,-0.1 0.95,-0.2 1.38,-0.29 -0.43,0.1 -0.86,0.2 -1.38,0.29 -1.22,0.2 -2.35,0.28 -3.39,0 h -0.44 c -0.17,0.86 -0.43,1.63 -0.86,2.2 -0.79,0.85 -1.65,1.43 -2.7,1.52 -1.2,0.19 -2.33,0 -3.21,-0.28 0.18,0.19 0.26,0.28 0.44,0.57 1.3,1.54 1.74,3.92 1.22,6.97 0.96,0.76 1.91,1.54 2.77,2.3 0.87,0.86 1.83,1.44 2.78,2.01 1.13,0.47 2.26,0.76 3.39,1.05 1.13,0.18 2.25,0.47 3.21,1.05 0.51,0.18 0.69,0.66 0.69,1.53 v 0.67 c 0.96,-0.19 1.48,-0.87 1.3,-2.11 0.52,0.96 1.21,2 2,2.96 0.17,0.2 0.26,0.48 0.26,0.87 0.1,1.33 0,2.57 -0.26,3.63 -0.1,0.28 -0.17,0.67 -0.43,0.76 1.38,0.39 2.43,0.1 3.12,-0.67 0.1,-0.28 0.17,-0.57 0.26,-0.86 0.6,0.86 0.79,2.01 0.53,3.44 -0.27,1.24 -0.79,2.29 -1.66,3.16 1.04,0.29 2.09,0.48 3.3,0.29 0.34,-0.11 0.69,-0.4 1.12,-0.68 0.36,-0.48 0.79,-0.96 1.14,-1.62 0.1,1.62 0.34,2.86 0.7,4.11 0.33,1.05 0.86,2 1.55,2.77 0.79,0.76 1.57,1.44 2.26,2.2 0.79,0.66 1.38,1.15 1.91,1.34 0.26,0.1 0.69,0.28 1.39,0.47 0.52,0.29 1.13,0.38 2,0.57 1.99,0.57 3.81,0.77 5.73,0.77 h 0.95 c -0.26,-0.2 -0.52,-0.48 -0.79,-0.77 -0.86,-0.76 -1.63,-1.72 -2.16,-2.86 -0.61,-1.06 -1.04,-2.2 -1.47,-3.44 -0.43,-1.05 -0.62,-2.3 -0.62,-3.54 0,-1.34 0.45,-2.38 1.31,-3.06 -0.86,0.68 -1.31,1.72 -1.31,3.06 0,1.24 0.19,2.49 0.62,3.54 0.43,1.24 0.86,2.38 1.47,3.44 0.53,1.14 1.3,2.1 2.16,2.86 0.27,0.29 0.53,0.57 0.79,0.77 0.61,0.48 1.29,0.85 1.92,1.33 1.03,0.59 2.07,1.24 3.21,1.83 0.17,0.19 0.43,0.27 0.69,0.47 0.69,0.48 1.39,1.14 1.98,1.71 0.88,0.96 1.41,1.92 1.66,3.06 0.26,1.26 0.43,2.49 0.53,3.73 0,0.57 0,1.15 -0.1,1.72 -0.1,0.67 -0.26,1.15 -0.43,1.72 -0.18,0.48 -0.35,0.87 -0.44,1.24 -0.1,0.29 -0.17,0.39 -0.25,0.58 1.04,0.19 2.08,0.1 3.2,-0.19 l 0.1,-0.1 c 0.52,-0.1 0.95,-0.38 1.21,-0.77 0.86,0.77 1.92,1.06 3.13,1.14 0.77,0.11 1.38,0 2.17,-0.1 0.43,0 0.95,-0.19 1.38,-0.29 0.96,-0.38 2.43,0.18 4.35,1.62 -2.35,-3.15 -3.74,-4.87 -4.17,-5.26 -0.88,-0.76 -1.56,-1.61 -2.08,-2.48 -0.18,-0.18 -0.27,-0.48 -0.27,-0.85 1.05,0.47 2.09,0.76 3.39,0.67 h 2.09 c -0.79,-0.48 -1.65,-1.06 -2.6,-1.73 -1.06,-0.67 -1.66,-1.53 -1.92,-2.77 -0.1,-0.47 -0.27,-0.85 -0.44,-1.24 0.95,0 2,0.1 3.13,0 -0.87,-0.29 -1.65,-0.87 -2.43,-1.63 -0.87,-0.75 -1.56,-1.51 -2.18,-2.47 -0.68,-0.96 -1.02,-2.01 -1.02,-3.25 -0.1,-1.15 -0.1,-2.49 0,-3.73 v -1.34 1.34 c -0.1,1.24 -0.1,2.58 0,3.73 0,1.24 0.34,2.29 1.02,3.25 0.7,0.1 1.31,0.28 1.84,0.48 1.12,0.48 2.17,0.84 3.21,1.33 1.12,0.47 2.25,0.95 3.29,1.42 1.05,0 1.82,-0.18 2.44,-0.65 0.25,-0.19 0.52,-0.48 0.69,-0.77 0.17,-0.29 0.26,-0.68 0.35,-1.15 -1.31,0.3 -2.43,0.1 -3.39,-0.38 -1.04,-0.57 -1.99,-1.15 -2.95,-1.63 -1.04,-0.66 -2.43,-1.14 -4.17,-1.61 1.74,0.47 3.13,0.95 4.17,1.61 0.96,0.48 1.91,1.06 2.95,1.63 0.96,0.48 2.08,0.68 3.39,0.38 0.43,-0.1 1.03,-0.29 1.47,-0.38 0.44,-0.19 0.96,-0.39 1.4,-0.67 0.34,-0.2 0.68,-0.38 0.85,-0.48 -0.95,-0.1 -1.81,-0.38 -2.69,-0.66 -1.03,-0.48 -2.07,-1.07 -3.12,-1.43 -1.22,-0.49 -2.51,-1.15 -3.99,-1.91 1.48,0.76 2.77,1.42 3.99,1.91 1.05,0.36 2.09,0.95 3.12,1.43 0.88,0.28 1.74,0.57 2.69,0.66 0.1,0 0.18,0 0.35,0.1 h 0.17 c 0.88,0.1 1.74,0.1 2.53,-0.1 0.34,-0.1 0.69,-0.18 1.04,-0.18 0.6,-0.2 2.17,-0.77 4.51,-1.83 l 1.74,-0.67 c -2.35,-0.56 -6.77,-1.99 -10.6,-3.62 -2.43,-1.05 -4.33,-1.91 -5.63,-2.69 1.3,0.78 3.2,1.64 5.63,2.69 3.83,1.63 6.71,2.58 9.04,3.14 0.76,0.24 1.04,0.39 1.56,0.48 -0.62,0.19 -1.22,0.48 -1.74,0.67 3.13,1.92 5.99,3.54 8.59,5.08 0.96,0.19 2,0.19 2.95,0 1.14,-0.3 2.26,-0.68 3.31,-1.07 0.86,-0.28 1.64,-0.85 2.33,-1.52 0.44,-0.38 0.79,-0.86 1.13,-1.34 h -2.17 c -1.82,-0.19 -3.64,-0.47 -5.46,-0.76 -1.74,-0.39 -3.39,-0.96 -5.04,-1.82 -1.56,-0.76 -3.04,-1.52 -4.69,-2.1 -1.56,-0.67 -3.11,-1.43 -4.69,-2.19 -1.64,-0.77 -3.21,-1.62 -4.94,-2.4 -1.56,-0.77 -3.13,-1.43 -4.6,-2 -0.35,-0.1 -0.7,-0.29 -0.87,-0.29 -3.82,-2 -5.98,-3.44 -6.68,-4.3 -0.44,-0.67 -0.88,-1.15 -1.21,-1.81 -0.45,0 -0.79,0 -1.31,-0.1 -0.35,-0.1 -0.61,-0.1 -0.95,-0.1 -0.69,0.86 -1.65,1.53 -2.78,1.82 -0.44,0 -0.78,0 -1.13,0.1 -0.17,1.24 -0.95,2 -2.17,2.48 -1.13,0.38 -2.25,0.77 -3.38,1.06 -1.13,0.28 -2.35,0.37 -3.56,0.37 -0.88,-0.1 -1.66,-0.18 -2.26,-0.18 0.6,0 1.38,0.1 2.26,0.18 1.21,0 2.43,-0.1 3.56,-0.37 1.13,-0.29 2.25,-0.68 3.38,-1.06 1.22,-0.48 2,-1.24 2.17,-2.48 -0.87,0.19 -1.64,0.19 -2.52,0.19 -1.22,0 -2.34,-0.1 -3.47,-0.47 l -3.37,-0.87 3.37,0.87 c 1.13,0.37 2.25,0.47 3.47,0.47 0.88,0 1.65,0 2.52,-0.19 0.35,-0.1 0.69,-0.1 1.13,-0.1 1.13,-0.29 2.09,-0.96 2.78,-1.82 -1.31,-0.38 -2.6,-0.95 -3.82,-1.8 -0.88,-0.59 -1.48,-1.07 -1.83,-1.63 -1.91,0 -3.73,0 -5.46,-0.28 -0.35,-0.11 -0.62,-0.11 -0.96,-0.11 0.34,0 0.61,0 0.96,0.11 1.73,0.28 3.55,0.28 5.46,0.28 1.65,0.48 3.12,-0.2 4.26,-1.71 0.78,-1.06 1.22,-2.11 1.29,-3.07 0.1,-0.77 0.1,-1.44 -0.16,-2.2 -0.43,0.1 -0.87,0.2 -1.31,0.29 -1.82,0.19 -3.64,0.19 -5.38,-0.19 -1.04,0.48 -1.99,0.85 -3.21,1.24 -1.13,0.37 -2.26,0.37 -3.38,0.37 1.12,0 2.25,0 3.38,-0.37 1.22,-0.39 2.17,-0.76 3.21,-1.24 0.44,-0.3 0.87,-0.58 1.3,-0.77 1.57,-1.14 2.35,-2.77 2.26,-4.77 -0.52,0.1 -1.04,0.1 -1.64,0.1 -1.75,0 -3.39,-0.1 -4.79,-0.37 1.4,0.29 3.04,0.37 4.79,0.37 0.6,0 1.12,0 1.64,-0.1 0.52,-0.19 1.04,-0.29 1.56,-0.39 0.7,-0.28 1.22,-0.67 1.83,-1.05 1.47,-0.86 2.86,-1.91 4.34,-3.15 0.43,-0.28 0.78,-0.57 1.12,-0.95 0.79,-1.05 1.04,-2.11 0.79,-3.26 0.25,1.15 0,2.21 -0.79,3.26 2.34,0.28 3.83,0.38 4.26,0.38 1.56,0.1 3.12,0 4.69,-0.29 0.17,0 0.78,-0.29 1.91,-0.96 1.13,-0.56 2.51,-1.44 3.99,-2.39 0.1,-0.1 0.17,-0.19 0.35,-0.28 0.69,-1.34 0.34,-2.1 -1.13,-2.39 -1.05,-0.19 -2,-0.29 -2.87,-0.38 -0.44,-0.1 -0.78,-0.1 -1.22,0 -1.29,0 -1.99,0 -2.34,-0.1 h -0.1 c -0.34,0 -0.77,-0.11 -1.12,-0.11 h -1.39 c -0.18,0.11 -0.43,0.11 -0.69,0.11 h -0.7 c -0.17,0 -0.35,0 -0.44,0.1 -0.1,0.1 -0.26,0.19 -0.34,0.29 -0.87,0.76 -1.65,1.43 -2.52,2 -0.6,0.48 -1.21,0.87 -1.81,1.24 -1.66,0.95 -3.32,1.53 -4.96,1.62 -1.39,0 -2.86,0 -4.34,0.11 1.48,-0.11 2.95,-0.11 4.34,-0.11 1.64,-0.1 3.3,-0.67 4.96,-1.62 0.6,-0.37 1.21,-0.76 1.81,-1.24 0.87,-0.57 1.65,-1.24 2.52,-2 0.1,-0.1 0.26,-0.2 0.34,-0.29 0.1,-0.1 0.27,-0.28 0.36,-0.48 0.95,-1.24 1.12,-2.58 0.69,-4.3 -0.1,0.1 -0.17,0.19 -0.26,0.19 -1.48,1.14 -3.13,2.01 -4.86,2.48 -1.74,0.48 -3.48,0.68 -5.21,0.76 h -1.92 1.92 c 1.73,-0.1 3.47,-0.28 5.21,-0.76 1.73,-0.47 3.38,-1.34 4.86,-2.48 0.1,0 0.17,-0.1 0.26,-0.19 0.95,-0.86 2.26,-1.72 3.9,-2.68 -1.64,0.96 -2.95,1.82 -3.9,2.68 0.43,1.72 0.26,3.06 -0.69,4.3 l 0.1,0.39 h 0.7 c 0.25,0 0.51,0 0.69,-0.11 h 1.39 c 0.35,0 0.78,0.11 1.21,0.11 1.22,-0.19 2.43,-0.3 3.65,-0.3 1.12,-0.1 2.17,-0.47 3.21,-1.04 0.95,-0.68 1.82,-1.25 2.69,-1.83 0.44,-0.36 0.78,-0.76 1.29,-1.04 0,-0.1 0.19,-0.29 0.36,-0.29 1.64,-1.63 1.56,-2.59 -0.26,-2.87 -1.83,-0.28 -3.48,-0.28 -5.03,-0.28 -1.66,0.1 -3.04,0.1 -4.16,0 h -0.88 c 0.88,-0.57 2,-1.43 3.56,-2.77 -6.51,-0.87 -10.67,-0.87 -12.58,-0.1 1.91,-0.77 6.07,-0.77 12.58,0.1 -0.1,-0.58 4.68,-0.95 14.14,-1.24 h 1.48 c 0.7,-0.1 1.31,-0.2 2.1,-0.2 0.34,0 0.77,0 1.11,-0.1 1.74,-0.2 3.48,-0.49 5.3,-0.87 1.56,-0.38 3.04,-0.96 4.33,-1.91 1.14,-0.86 2.01,-2.01 2.62,-3.63 h -1.91 -5.48 c -1.81,-0.1 -3.64,0 -5.38,0.19 -1.73,0 -3.46,0.19 -5.12,0.29 -1.65,0 -3.29,0.19 -5.03,0.38 -1.65,0.2 -3.29,0.39 -4.95,0.67 h -0.1 c -1.74,0.2 -3.48,0.48 -5.12,0.68 -1.82,0.28 -3.56,0.56 -5.39,0.76 -1.65,0.19 -3.21,0.56 -4.94,0.85" />
    <path d="m 158.03,500.61 c -0.27,0 -0.35,0 -0.53,-0.1 -0.6,-0.2 -0.95,-0.67 -0.95,-1.24 -7.55,-0.67 -13.53,1.63 -18.05,6.87 7.38,-0.66 13.37,0.58 17.79,3.45 -1.99,0.38 -13.6,1.09 -16.11,1.37 0.35,0.58 10.03,1.01 10.21,1.78 3.12,0.3 6.07,0.3 8.77,-0.1 0.52,-3.05 0.1,-5.43 -1.22,-6.97 -0.18,-0.29 -0.26,-0.38 -0.44,-0.57 -0.34,-0.58 -0.53,-1.15 -0.53,-1.72 -0.1,-0.86 0.28,-1.81 1.06,-2.77" />
</g>
<g id="crows">
    <use xlink:href="#crow" transform="translate(-80,-490)" />
    <use xlink:href="#crow" transform="translate(-225,-490)" />
    <use xlink:href="#crow" transform="translate(-225,-345)" />
    <use xlink:href="#crow" transform="translate(-205,-200)" />
    <use xlink:href="#crow" transform="translate(-130,-75)" />
</g>
<use transform="matrix(-1,0,0,1,600,0)" xlink:href="#crows" />
<use id="shine" xlink:href="#shield" fill="url(#rg)" stroke="#000" stroke-width="3"/>
</svg>
