<?xml version="1.0" encoding="UTF-8" standalone="no"?>
<svg
   xmlns:dc="http://purl.org/dc/elements/1.1/"
   xmlns:cc="http://creativecommons.org/ns#"
   xmlns:rdf="http://www.w3.org/1999/02/22-rdf-syntax-ns#"
   xmlns:svg="http://www.w3.org/2000/svg"
   xmlns="http://www.w3.org/2000/svg"
   xmlns:xlink="http://www.w3.org/1999/xlink"
   xmlns:sodipodi="http://sodipodi.sourceforge.net/DTD/sodipodi-0.dtd"
   xmlns:inkscape="http://www.inkscape.org/namespaces/inkscape"
   width="600"
   height="660"
   id="svg2"
   version="1.1"
   inkscape:version="0.48.2 r9819"
   sodipodi:docname="House_Lipps.svg">
  <metadata
     id="metadata24">
    <rdf:RDF>
      <cc:Work
         rdf:about="">
        <dc:format>image/svg+xml</dc:format>
        <dc:type
           rdf:resource="http://purl.org/dc/dcmitype/StillImage" />
        <dc:title />
      </cc:Work>
    </rdf:RDF>
  </metadata>
  <sodipodi:namedview
     pagecolor="#ffffff"
     bordercolor="#666666"
     borderopacity="1"
     objecttolerance="10"
     gridtolerance="10"
     guidetolerance="10"
     inkscape:pageopacity="0"
     inkscape:pageshadow="2"
     inkscape:window-width="1366"
     inkscape:window-height="715"
     id="namedview22"
     showgrid="false"
     inkscape:zoom="0.5056885"
     inkscape:cx="38.891275"
     inkscape:cy="575.25538"
     inkscape:window-x="-8"
     inkscape:window-y="-8"
     inkscape:window-maximized="1"
     inkscape:current-layer="layer2" />
  <defs
     id="defs4">
    <inkscape:path-effect
       is_visible="true"
       id="path-effect3136"
       effect="spiro" />
    <inkscape:path-effect
       effect="spiro"
       id="path-effect3132"
       is_visible="true" />
    <inkscape:path-effect
       effect="spiro"
       id="path-effect3101"
       is_visible="true" />
    <inkscape:path-effect
       is_visible="true"
       id="path-effect3085"
       effect="spiro" />
    <inkscape:path-effect
       is_visible="true"
       id="path-effect3083"
       effect="spiro" />
    <inkscape:path-effect
       is_visible="true"
       id="path-effect3081"
       effect="spiro" />
    <inkscape:path-effect
       is_visible="true"
       id="path-effect3079"
       effect="spiro" />
    <inkscape:path-effect
       is_visible="true"
       id="path-effect3077"
       effect="spiro" />
    <inkscape:path-effect
       is_visible="true"
       id="path-effect3075"
       effect="spiro" />
    <inkscape:path-effect
       effect="spiro"
       id="path-effect3049"
       is_visible="true" />
    <inkscape:path-effect
       is_visible="true"
       id="path-effect3045"
       effect="spiro" />
    <inkscape:path-effect
       effect="spiro"
       id="path-effect3041"
       is_visible="true" />
    <radialGradient
       id="rg"
       gradientUnits="userSpaceOnUse"
       cx="220"
       cy="220"
       r="405">
      <stop
         style="stop-color:#fff;stop-opacity:.3"
         offset="0"
         id="stop7" />
      <stop
         style="stop-color:#fff;stop-opacity:.2"
         offset=".2"
         id="stop9" />
      <stop
         style="stop-color:#666;stop-opacity:.1"
         offset=".6"
         id="stop11" />
      <stop
         style="stop-color:#000;stop-opacity:.13"
         offset="1"
         id="stop13" />
    </radialGradient>
    <path
       id="shield"
       d="m2,2v257c0,286 298,398 298,398c0,0 298-112 298-398V2z" />
    <radialGradient
       inkscape:collect="always"
       xlink:href="#rg-7"
       id="radialGradient3055-1"
       gradientUnits="userSpaceOnUse"
       cx="220"
       cy="220"
       r="405" />
    <radialGradient
       id="rg-7"
       gradientUnits="userSpaceOnUse"
       cx="220"
       cy="220"
       r="405">
      <stop
         style="stop-color:#fff;stop-opacity:.3"
         offset="0"
         id="stop7-4" />
      <stop
         style="stop-color:#fff;stop-opacity:.2"
         offset=".2"
         id="stop9-0" />
      <stop
         style="stop-color:#666;stop-opacity:.1"
         offset=".6"
         id="stop11-9" />
      <stop
         style="stop-color:#000;stop-opacity:.13"
         offset="1"
         id="stop13-4" />
    </radialGradient>
    <radialGradient
       r="405"
       cy="220"
       cx="220"
       gradientUnits="userSpaceOnUse"
       id="radialGradient3074"
       xlink:href="#rg-7"
       inkscape:collect="always" />
    <inkscape:path-effect
       is_visible="true"
       id="path-effect10120-1"
       effect="spiro" />
    <inkscape:path-effect
       effect="spiro"
       id="path-effect10118-3"
       is_visible="true" />
    <inkscape:path-effect
       effect="spiro"
       id="path-effect10116-9"
       is_visible="true" />
    <inkscape:path-effect
       effect="spiro"
       id="path-effect10114-7"
       is_visible="true" />
    <inkscape:path-effect
       effect="spiro"
       id="path-effect10112-7"
       is_visible="true" />
    <inkscape:path-effect
       effect="spiro"
       id="path-effect10110-2"
       is_visible="true" />
    <linearGradient
       inkscape:collect="always"
       xlink:href="#linearGradient4719-5"
       id="linearGradient4039"
       gradientUnits="userSpaceOnUse"
       gradientTransform="matrix(2.3257341,0,0,2.2943177,447.69485,-1820.2799)"
       x1="-145.25935"
       y1="984.24286"
       x2="-64.14286"
       y2="984.14789" />
    <linearGradient
       inkscape:collect="always"
       id="linearGradient4719-5">
      <stop
         style="stop-color:#666666;stop-opacity:1;"
         offset="0"
         id="stop4721-5" />
      <stop
         id="stop4809-1"
         offset="0.39344174"
         style="stop-color:#666666;stop-opacity:0.74901961;" />
      <stop
         style="stop-color:#666666;stop-opacity:0;"
         offset="1"
         id="stop4723-7" />
    </linearGradient>
    <radialGradient
       inkscape:collect="always"
       xlink:href="#linearGradient4801-8"
       id="radialGradient4041"
       gradientUnits="userSpaceOnUse"
       gradientTransform="matrix(-0.72153181,1.2650715,-2.2729984,-1.2616144,1712.0113,1733.7841)"
       cx="-307.14288"
       cy="782.36218"
       fx="-307.14288"
       fy="782.36218"
       r="63" />
    <linearGradient
       inkscape:collect="always"
       id="linearGradient4801-8">
      <stop
         style="stop-color:#000000;stop-opacity:1;"
         offset="0"
         id="stop4803-2" />
      <stop
         style="stop-color:#000000;stop-opacity:0;"
         offset="1"
         id="stop4805-4" />
    </linearGradient>
    <inkscape:path-effect
       effect="spiro"
       id="path-effect10108-4"
       is_visible="true" />
    <linearGradient
       inkscape:collect="always"
       xlink:href="#linearGradient4719-5"
       id="linearGradient4044"
       gradientUnits="userSpaceOnUse"
       gradientTransform="matrix(-2.4055369,0,0,-1.6485021,142.06168,1726.5307)"
       x1="-145.25935"
       y1="984.24286"
       x2="-64.14286"
       y2="984.14789" />
    <radialGradient
       inkscape:collect="always"
       xlink:href="#linearGradient4801-8"
       id="radialGradient4046"
       gradientUnits="userSpaceOnUse"
       gradientTransform="matrix(0.74628962,-0.90897301,2.3509914,0.90648896,-1165.637,-827.11785)"
       cx="-307.14288"
       cy="782.36218"
       fx="-307.14288"
       fy="782.36218"
       r="63" />
    <inkscape:path-effect
       effect="spiro"
       id="path-effect10102-7"
       is_visible="true" />
    <linearGradient
       inkscape:collect="always"
       xlink:href="#linearGradient4719-5"
       id="linearGradient4049"
       gradientUnits="userSpaceOnUse"
       gradientTransform="matrix(2.334989,0,0,-1.6146975,449.44065,1692.189)"
       x1="-145.25935"
       y1="984.24286"
       x2="-64.14286"
       y2="984.14789" />
    <radialGradient
       inkscape:collect="always"
       xlink:href="#linearGradient4801-8"
       id="radialGradient4051"
       gradientUnits="userSpaceOnUse"
       gradientTransform="matrix(-0.72440295,-0.89033332,-2.2820431,0.88790031,1718.7881,-809.09364)"
       cx="-307.14288"
       cy="782.36218"
       fx="-307.14288"
       fy="782.36218"
       r="63" />
    <inkscape:path-effect
       is_visible="true"
       id="path-effect10096-8"
       effect="spiro" />
    <linearGradient
       inkscape:collect="always"
       xlink:href="#linearGradient4719-5"
       id="linearGradient4054"
       gradientUnits="userSpaceOnUse"
       gradientTransform="matrix(-2.409599,0,0,2.2818507,139.61083,-1810.8163)"
       x1="-145.25935"
       y1="984.24286"
       x2="-64.14286"
       y2="984.14789" />
    <radialGradient
       inkscape:collect="always"
       xlink:href="#linearGradient4801-8"
       id="radialGradient4056"
       gradientUnits="userSpaceOnUse"
       gradientTransform="matrix(0.74754985,1.2581972,2.3549614,-1.2547588,-1170.296,1723.935)"
       cx="-307.14288"
       cy="782.36218"
       fx="-307.14288"
       fy="782.36218"
       r="63" />
    <inkscape:path-effect
       is_visible="true"
       id="path-effect10090-3"
       effect="spiro" />
    <inkscape:path-effect
       effect="spiro"
       id="path-effect10084-1"
       is_visible="true" />
    <inkscape:path-effect
       effect="spiro"
       id="path-effect10082-1"
       is_visible="true" />
    <radialGradient
       inkscape:collect="always"
       xlink:href="#linearGradient4801-8"
       id="radialGradient4061"
       gradientUnits="userSpaceOnUse"
       gradientTransform="matrix(-0.76516322,1.2901254,-2.4104477,-1.2865998,1806.8444,1757.4704)"
       cx="-307.14288"
       cy="782.36218"
       fx="-307.14288"
       fy="782.36218"
       r="63" />
    <inkscape:path-effect
       effect="spiro"
       id="path-effect10080-4"
       is_visible="true" />
    <inkscape:path-effect
       is_visible="true"
       id="path-effect3075-1"
       effect="spiro" />
    <inkscape:path-effect
       effect="spiro"
       id="path-effect3101-7"
       is_visible="true" />
  </defs>
  <g
     inkscape:groupmode="layer"
     id="layer2"
     inkscape:label="Elements"
     style="display:inline">
    <path
       d="M 598,2 V 259 C 598,545 300,657 300,657 300,657 2,545 2,259 V 2 z"
       id="background"
       inkscape:connector-curvature="0"
       style="fill:#000088;display:inline" />
    <g
       id="g3062"
       transform="translate(7.9750625,0)">
      <path
         inkscape:connector-curvature="0"
         id="path3887"
         d="m 201.05145,231.48651 c -4.61099,0.10157 -9.29936,0.72714 -14.67812,1.71875 -0.11746,0.0216 -0.16225,0.0387 -0.1375,0.0344 -1.77076,0.32815 -3.50835,0.67497 -5.25937,1.06562 -17.25929,3.74511 -34.48516,11.0588 -55.6875,23.58125 -13.14939,7.76624 -20.64741,11.7627 -29.87188,14.95312 -4.394049,1.39625 -9.624758,2.7576 -16.84375,4.57188 -2.115014,0.53154 -4.165293,1.10746 -6.084375,1.61562 l 0,-0.0344 c -3.059045,0.7173 -5.449917,1.33508 -7.253125,1.85625 -1.788534,0.51693 -2.945833,0.93525 -3.678125,1.375 -0.0055,0.004 -0.02838,-0.004 -0.03432,0 -0.0055,0.002 -0.01518,0.005 -0.06875,0.0344 -0.239943,0.13427 -0.457897,0.27834 -0.61875,0.51562 -0.136136,0.20083 -0.10769,0.49894 -0.03432,0.75625 l -0.06875,0.0344 c 0.0088,0.035 0.05786,0.0362 0.06875,0.0688 0.0055,0.0163 0.02838,0.0187 0.03432,0.0344 0.178233,0.4643 0.556886,0.73115 1.065625,0.9625 0.560351,0.25482 1.319626,0.46755 2.26875,0.72188 2.900216,0.77712 7.712408,1.79379 13.2,2.78437 0.225709,0.0428 0.377586,0.0641 0.584375,0.10313 0.779009,0.13948 1.494603,0.27214 2.303125,0.41249 1.571713,0.2932 3.096654,0.59562 4.915625,0.92813 6.847533,1.25177 12.931886,2.11149 19.009375,2.6125 0.011,8.9e-4 0.0235,-8.9e-4 0.0343,0 2.60347,0.30663 4.98422,0.54163 6.7375,0.65312 9.1212,0.58004 16.598,0.17468 39.66875,-2.85312 5.07648,-0.63833 10.54777,-1.36001 16.67187,-2.23437 3.54474,-0.5061 6.53979,-0.91426 9.65938,-1.34063 4.22589,-0.58026 8.07317,-1.10468 11.48125,-1.54688 20.08049,-2.47239 29.88125,-2.62151 39.01562,-0.6875 0.011,0.002 0.0237,-0.002 0.0343,0 0.0905,0.0233 0.1928,0.0671 0.34375,0.10313 5.26245,1.26055 18.66357,5.83182 29.63124,10.14063 0.15437,0.0612 0.28541,0.0936 0.30938,0.10312 1.23558,0.49209 2.66726,1.05704 4.22813,1.65 9.62997,3.70717 19.18859,7.15328 22.65312,8.14687 0.35064,0.10055 0.59238,0.1799 0.92813,0.27501 0.0115,0.003 0.0227,-0.003 0.0344,0 1.51052,0.50565 2.83744,0.96286 3.85,1.27187 0.51036,0.15575 0.93826,0.28983 1.27188,0.37812 0.33361,0.0883 0.51009,0.1291 0.75624,0.1375 l 0.0344,0 c 0.17213,0.004 0.17295,-0.0205 0.275,-0.0344 0.0684,-0.009 0.13042,-0.0208 0.20625,-0.0344 0.0778,0.0142 0.1382,0.0251 0.20625,0.0344 0.10145,0.0137 0.14751,0.0396 0.30937,0.0344 0.25016,-0.009 0.41579,-0.0814 0.75626,-0.17187 0.34046,-0.0905 0.78548,-0.2189 1.30624,-0.37812 1.03332,-0.31594 2.3901,-0.75976 3.91875,-1.27188 0.0116,-0.003 0.023,0.003 0.0344,0 0.29531,-0.0834 0.50699,-0.14943 0.825,-0.24063 3.56263,-1.02173 13.57443,-4.63019 23.47813,-8.45625 1.22791,-0.46972 2.40265,-0.94216 3.40312,-1.34062 0.0231,-0.009 0.15469,-0.0418 0.30937,-0.10312 10.95411,-4.30348 24.32085,-8.87344 29.59688,-10.14063 0.0108,-0.002 0.0236,0.002 0.0344,0 9.25458,-2.02687 19.04909,-1.92478 39.42812,0.58437 3.22615,0.41868 6.87598,0.90208 10.82813,1.44375 3.29028,0.44804 6.50357,0.90484 10.27812,1.44376 6.01615,0.85895 11.4287,1.56894 16.43125,2.2 23.2557,3.05583 30.75736,3.46949 39.90938,2.88749 1.7556,-0.11164 4.16219,-0.34566 6.77187,-0.65312 0.0108,-8.9e-4 0.0236,8.9e-4 0.0344,0 6.07056,-0.50133 12.13558,-1.36221 18.975,-2.6125 1.81896,-0.33251 3.3439,-0.63493 4.91562,-0.92813 0.80852,-0.14035 1.52411,-0.27301 2.30313,-0.41249 0.26244,-0.0496 0.42328,-0.10037 0.61875,-0.1375 5.46867,-0.98771 10.30241,-1.97359 13.2,-2.75 0.94912,-0.25433 1.70839,-0.46706 2.26874,-0.72188 0.50874,-0.23135 0.8874,-0.4982 1.06563,-0.9625 l 0.0343,0 c 0.002,-0.008 -0.002,-0.0266 0,-0.0344 0.011,-0.0326 0.0603,-0.0338 0.0688,-0.0688 l -0.0688,-0.0344 c 0.0734,-0.25729 0.10175,-0.5554 -0.0343,-0.75625 -0.16085,-0.2373 -0.37877,-0.38135 -0.61875,-0.51562 -0.0362,-0.0194 -0.0561,-0.0284 -0.0688,-0.0344 -0.005,-0.004 -0.0284,0.004 -0.0343,0 -0.75759,-0.45499 -1.96358,-0.87224 -3.85,-1.40938 -1.90129,-0.54136 -4.43808,-1.19937 -7.7,-1.95937 l 0,0.0344 c -1.75614,-0.46267 -3.58365,-0.9965 -5.5,-1.47812 -6.71498,-1.68761 -11.71404,-2.96419 -15.91562,-4.2625 -9.64686,-3.24383 -17.19133,-7.24529 -30.76563,-15.2625 -21.28923,-12.57376 -38.56266,-19.91894 -55.89375,-23.65 -0.51685,-0.11454 -1.01772,-0.20523 -1.5125,-0.30937 -1.18626,-0.24095 -2.37886,-0.47821 -3.575,-0.6875 0.0224,0.004 -0.0153,-0.0133 -0.1375,-0.0344 -16.05173,-2.95924 -25.78999,-2.37429 -46.2,4.5375 -4.87568,1.63192 -10.38891,3.58506 -16.775,5.98125 -9.78219,3.67046 -16.54643,6.15944 -21.82813,7.80313 -0.30909,0.0934 -0.63879,0.17997 -0.96249,0.275 -0.53852,0.16287 -1.05625,0.34074 -1.54688,0.48124 -0.25254,0.0699 -0.52123,0.13409 -0.79063,0.20626 -0.38948,0.10782 -0.80569,0.20557 -1.20312,0.30937 l 0,-0.0344 c -6.02006,1.52156 -10.4801,1.95938 -16.19062,1.95938 -0.0842,1.3e-4 -0.1541,0 -0.24063,0 -5.61145,0 -10.02187,-0.40051 -15.88125,-1.85625 l 0,0.0344 c -0.22869,-0.0586 -0.47678,-0.11588 -0.6875,-0.17188 -1.29689,-0.33425 -2.67635,-0.75438 -4.15937,-1.20312 -5.27768,-1.64368 -12.06322,-4.13914 -21.82813,-7.80313 -4.44406,-1.6675 -8.45937,-3.10906 -12.13438,-4.4 -1.47835,-0.52584 -2.88929,-1.01102 -4.2625,-1.47813 -0.15095,-0.0507 -0.25767,-0.0743 -0.34375,-0.10312 -12.60535,-4.27028 -21.12264,-6.1629 -29.59687,-6.25625 -0.65138,-0.007 -1.29456,-0.0146 -1.95938,0 z"
         style="font-size:medium;font-style:normal;font-variant:normal;font-weight:normal;font-stretch:normal;text-indent:0;text-align:start;text-decoration:none;line-height:normal;letter-spacing:normal;word-spacing:normal;text-transform:none;direction:ltr;block-progression:tb;writing-mode:lr-tb;text-anchor:start;baseline-shift:baseline;color:#000000;fill:#ff7777;fill-opacity:1;fill-rule:nonzero;stroke:none;stroke-width:1;marker:none;visibility:visible;display:inline;overflow:visible;enable-background:accumulate;font-family:Sans;-inkscape-font-specification:Sans" />
      <path
         inkscape:connector-curvature="0"
         id="path3883"
         d="m 372.58271,290.54276 c -2.04383,-0.0176 -3.84955,0.0611 -5.60313,0.20625 0.0161,-10e-4 -0.0657,-0.005 -0.17188,0 -0.0212,9.4e-4 -0.008,-0.002 -0.0344,0 -12.09402,0.36026 -19.12587,2.62429 -49.67188,14.05938 -13.86974,5.19226 -20.83155,7.42103 -25.05937,8.00937 -4.22782,-0.58834 -11.18963,-2.81711 -25.05938,-8.00937 -17.02758,-6.37439 -26.75735,-9.89595 -34.13437,-11.82501 -7.36449,-1.92577 -12.4011,-2.25204 -19.97188,-2.26875 -0.011,-4.4e-4 -0.0239,4.5e-4 -0.0343,0 -11.06513,-0.46552 -25.65082,0.97989 -50.42812,4.60626 -19.24885,2.81723 -31.5087,4.32693 -41.35313,4.77812 -0.0117,1.4e-4 -0.0227,-1.3e-4 -0.0343,0 -10.22092,0.11676 -19.16123,-0.88206 -31.65937,-2.95625 -5.087555,-0.84433 -9.795346,-1.5488 -13.26875,-1.99375 -1.736702,-0.22247 -3.163259,-0.3652 -4.19375,-0.44688 -0.515251,-0.0408 -0.921701,-0.0691 -1.2375,-0.0687 -0.157894,1.8e-4 -0.287815,0.0183 -0.4125,0.0344 -0.124685,0.0161 -0.23749,-0.0375 -0.48125,0.20625 -0.147653,0.14766 -0.174922,0.34077 -0.171875,0.44688 0.0033,0.1061 0.01485,0.15015 0.03432,0.20624 0.03905,0.11219 0.08426,0.18432 0.1375,0.27501 0.02453,0.0419 0.07502,0.0932 0.10307,0.13749 -0.07876,0.0813 -0.200849,0.1295 -0.240625,0.24063 -0.142296,0.39753 0.02816,0.69568 0.171875,0.92812 0.07095,0.11477 0.140008,0.17236 0.20625,0.24063 0.06622,0.0683 0.145079,0.1515 0.240625,0.24062 0.191092,0.17825 0.447359,0.38333 0.75625,0.65313 0.60324,0.52691 1.412774,1.24296 2.3375,2.02813 7.9607,9.0873 27.22762,29.25209 38.87813,40.35624 7.85383,7.48553 13.73003,11.88982 21.69062,16.32813 21.33517,11.8951 42.25902,19.62712 67.20312,24.37187 12.79835,2.72234 27.05392,4.50225 43.62188,5.67188 9.19207,0.64891 14.04679,0.70597 20.59063,0.10307 0.013,-2.7e-4 0.0213,2.8e-4 0.0343,0 10.18596,-0.21453 17.66587,-1.4017 23.61563,-3.74688 1.30838,-0.5157 2.25107,-0.87891 3.05938,-1.13437 0.80817,0.25552 1.75193,0.61904 3.05937,1.13437 5.94976,2.34518 13.42967,3.53235 23.61563,3.74688 0.013,2.8e-4 0.0214,-2.7e-4 0.0344,0 6.53137,0.60035 11.41008,0.54492 20.59063,-0.10307 16.55965,-1.16904 30.79435,-2.95192 43.58749,-5.67188 24.95497,-4.74432 45.89515,-12.47275 67.23751,-24.37187 7.96058,-4.43831 13.83679,-8.8426 21.69062,-16.32813 11.6505,-11.10415 30.91742,-31.26894 38.87813,-40.35624 0.92473,-0.78517 1.73427,-1.50122 2.3375,-2.02813 0.30887,-0.2698 0.56515,-0.47488 0.75624,-0.65313 0.0956,-0.0891 0.17439,-0.17235 0.24063,-0.24062 0.0662,-0.0683 0.13532,-0.12587 0.20625,-0.24063 0.14367,-0.23245 0.31416,-0.5306 0.17188,-0.92812 -0.0398,-0.11113 -0.16191,-0.15937 -0.24063,-0.24063 0.0282,-0.0443 0.0785,-0.0956 0.10307,-0.13749 0.0532,-0.0907 0.0985,-0.16279 0.1375,-0.27501 0.0196,-0.0561 0.0313,-0.10012 0.0343,-0.20624 0.003,-0.10613 -0.0243,-0.29929 -0.17188,-0.44688 -0.24375,-0.24376 -0.35656,-0.19016 -0.48124,-0.20625 -0.12469,-0.0161 -0.25461,-0.0342 -0.4125,-0.0344 -0.3158,-3.8e-4 -0.72225,0.0279 -1.2375,0.0687 -1.0305,0.0817 -2.45705,0.22441 -4.19375,0.44688 -3.47341,0.44495 -8.1812,1.14942 -13.26875,1.99375 -12.6386,2.09751 -21.63752,3.10037 -32.00313,2.95625 -0.01,-4.7e-4 -0.0246,4.7e-4 -0.0344,0 -9.78382,-0.47096 -21.98848,-1.99429 -41.00921,-4.77812 -21.72007,-3.17892 -35.60759,-4.6955 -46.16562,-4.70938 -0.0255,-0.001 -0.0155,3e-4 -0.0344,0 -0.0566,-9e-4 -0.11467,-5.9e-4 -0.10313,0 -0.96371,-0.0399 -1.90624,-0.0612 -2.78437,-0.0688 z"
         style="font-size:medium;font-style:normal;font-variant:normal;font-weight:normal;font-stretch:normal;text-indent:0;text-align:start;text-decoration:none;line-height:normal;letter-spacing:normal;word-spacing:normal;text-transform:none;direction:ltr;block-progression:tb;writing-mode:lr-tb;text-anchor:start;baseline-shift:baseline;color:#000000;fill:#ff7777;fill-opacity:1;fill-rule:nonzero;stroke:none;stroke-width:1;marker:none;visibility:visible;display:inline;overflow:visible;enable-background:accumulate;font-family:Sans;-inkscape-font-specification:Sans" />
    </g>
  </g>
  <g
     inkscape:groupmode="layer"
     id="layer1"
     inkscape:label="Cover"
     style="display:inline"
     sodipodi:insensitive="true">
    <path
       d="m 2,2 v 257 c 0,286 298,398 298,398 0,0 298,-112 298,-398 V 2 z"
       id="shine"
       inkscape:connector-curvature="0"
       style="fill:url(#radialGradient3074);stroke:#000000;stroke-width:3" />
  </g>
</svg>
