<?xml version="1.0" encoding="UTF-8" standalone="no"?>
<svg
   xmlns:dc="http://purl.org/dc/elements/1.1/"
   xmlns:cc="http://creativecommons.org/ns#"
   xmlns:rdf="http://www.w3.org/1999/02/22-rdf-syntax-ns#"
   xmlns:svg="http://www.w3.org/2000/svg"
   xmlns="http://www.w3.org/2000/svg"
   xmlns:xlink="http://www.w3.org/1999/xlink"
   xmlns:sodipodi="http://sodipodi.sourceforge.net/DTD/sodipodi-0.dtd"
   xmlns:inkscape="http://www.inkscape.org/namespaces/inkscape"
   width="600"
   height="660"
   id="svg2"
   version="1.1"
   inkscape:version="0.48.2 r9819"
   sodipodi:docname="House_Harlaw_(Harridan_Hill).svg">
  <metadata
     id="metadata31">
    <rdf:RDF>
      <cc:Work
         rdf:about="">
        <dc:format>image/svg+xml</dc:format>
        <dc:type
           rdf:resource="http://purl.org/dc/dcmitype/StillImage" />
        <dc:title />
      </cc:Work>
    </rdf:RDF>
  </metadata>
  <sodipodi:namedview
     pagecolor="#ffffff"
     bordercolor="#666666"
     borderopacity="1"
     objecttolerance="10"
     gridtolerance="10"
     guidetolerance="10"
     inkscape:pageopacity="0"
     inkscape:pageshadow="2"
     inkscape:window-width="1366"
     inkscape:window-height="715"
     id="namedview29"
     showgrid="false"
     inkscape:zoom="0.35757576"
     inkscape:cx="300"
     inkscape:cy="282.45763"
     inkscape:window-x="-8"
     inkscape:window-y="-8"
     inkscape:window-maximized="1"
     inkscape:current-layer="svg2" />
  <defs
     id="defs4">
    <radialGradient
       id="rg"
       gradientUnits="userSpaceOnUse"
       cx="220"
       cy="220"
       r="405">
      <stop
         style="stop-color:#fff;stop-opacity:.3"
         offset="0"
         id="stop7" />
      <stop
         style="stop-color:#fff;stop-opacity:.2"
         offset=".2"
         id="stop9" />
      <stop
         style="stop-color:#666;stop-opacity:.1"
         offset=".6"
         id="stop11" />
      <stop
         style="stop-color:#000;stop-opacity:.13"
         offset="1"
         id="stop13" />
    </radialGradient>
    <path
       id="shield"
       d="m2,2v257c0,286 298,398 298,398c0,0 298-112 298-398V2z" />
    <radialGradient
       id="rg-1"
       gradientUnits="userSpaceOnUse"
       cx="220"
       cy="220"
       r="405">
      <stop
         style="stop-color:#fff;stop-opacity:.3"
         offset="0"
         id="stop7-7" />
      <stop
         style="stop-color:#fff;stop-opacity:.2"
         offset=".2"
         id="stop9-4" />
      <stop
         style="stop-color:#666;stop-opacity:.1"
         offset=".6"
         id="stop11-0" />
      <stop
         style="stop-color:#000;stop-opacity:.13"
         offset="1"
         id="stop13-9" />
    </radialGradient>
    <radialGradient
       id="radialGradient3009"
       gradientUnits="userSpaceOnUse"
       cx="220"
       cy="220"
       r="405">
      <stop
         style="stop-color:#fff;stop-opacity:.3"
         offset="0"
         id="stop3011" />
      <stop
         style="stop-color:#fff;stop-opacity:.2"
         offset=".2"
         id="stop3013" />
      <stop
         style="stop-color:#666;stop-opacity:.1"
         offset=".6"
         id="stop3015" />
      <stop
         style="stop-color:#000;stop-opacity:.13"
         offset="1"
         id="stop3017" />
    </radialGradient>
  </defs>
  <use
     height="1052.3622"
     width="744.09448"
     y="0"
     x="0"
     id="shine"
     xlink:href="#shield"
     style="fill:#00ccff" />
  <g
     style="stroke:#222222;stroke-width:1"
     id="g17">
    <path
       style="fill:#dddddd"
       inkscape:connector-curvature="0"
       d="M 217.44294,229.20829 C 215.30978,192.87106 271.83345,136.19468 309.92755,110.70663 354.89291,80.621123 380.89944,85.912789 380.69322,85.532237 371.01936,67.680202 319.68203,73.42684 297.81139,81.824518 235.8875,105.60147 165.06783,182.20804 147.49606,213.00723 c -0.87271,1.52965 0.38087,14.45869 7.87642,20.91087 8.55783,7.36658 9.75587,8.18246 15.04173,11.21952 1.13056,0.64957 8.29534,-7.26393 8.86965,-7.46841 0.38999,-0.13885 -12.78633,-12.18224 -0.34306,-19.86126 10.86999,-6.70812 20.92775,13.38624 20.9726,13.2976 0.37225,-0.73564 17.57354,-1.14775 17.52954,-1.89726 z"
       id="path19" />
    <path
       style="fill:none"
       inkscape:connector-curvature="0"
       d="M 159.10388,216.02334 C 160.84622,212.87722 248.11036,92.371505 330.13393,74.923347"
       id="path21" />
    <path
       style="fill:#aaaaaa"
       inkscape:connector-curvature="0"
       d="m 178.31857,238.02773 c 0,0 153.41504,148.03349 153.58281,147.92724 4.33233,-2.74348 22.02637,-25.90764 33.99662,-31.66349 4.92175,-2.36661 11.90846,5.1297 10.93555,8.8701 -0.97691,3.75576 -31.84981,36.23499 -31.42943,36.67155 0.77585,5.66566 95.87231,100.9858 95.95329,101.0083 13.53831,3.762 13.51356,17.87044 7.61717,22.87452 -4.68042,3.97213 -18.57457,5.01847 -23.21074,-11.92015 -0.54322,-1.98469 -59.79684,-62.81002 -90.17824,-94.03612 L 316.72146,399.50182 171.63313,252.26418 c 0,0 -3.31228,-1.59828 -6.32668,-4.02118 -3.01441,-2.42289 -2.07669,-3.595 -5.73096,-5.67041 -3.65425,-2.0754 -6.46322,-0.83987 -8.88606,-2.63119 -2.42285,-1.79131 -0.80527,-4.53408 -0.80527,-4.53408 l 9.84034,1.94724 10.3753,8.11953 8.21877,-7.44636 z"
       id="path23" />
    <path
       style="fill:none"
       inkscape:connector-curvature="0"
       d="m 182.38925,242.77696 -10.1708,10.54703 m 11.15115,9.45238 10.4264,-10.28577 m 123.90177,146.97814 c 4.88681,-5.46106 13.17633,-13.42614 13.85611,-14.15362 m 2.74916,25.08977 c 0.55218,-0.55159 10.93114,-10.27665 10.78211,-10.37009 m -13.20582,-14.7307 c -0.65084,9.01924 10.56076,13.17048 10.87716,13.3155"
       id="path25" />
  </g>
  <use
     height="1052.3622"
     width="744.09448"
     y="0"
     x="0"
     style="fill:url(#rg-1);stroke:#000000;stroke-width:3"
     id="use27"
     xlink:href="#shield" />
</svg>
