<?xml version="1.0" encoding="UTF-8" standalone="no"?>
<svg xmlns:svg="http://www.w3.org/2000/svg" xmlns="http://www.w3.org/2000/svg" xmlns:xlink="http://www.w3.org/1999/xlink" width="600" height="660" version="1.1">
    <defs id="defs12">
        <radialGradient id="rg" gradientUnits="userSpaceOnUse" cx="220" cy="220" r="405">
            <stop style="stop-color:#ffffff;stop-opacity:.3" offset="0" id="stop2" />
            <stop style="stop-color:#ffffff;stop-opacity:.2" offset=".2" id="stop4" />
            <stop style="stop-color:#666666;stop-opacity:.1" offset=".6" id="stop6" />
            <stop style="stop-color:#000000;stop-opacity:.13" offset="1" id="stop8" />
        </radialGradient>
        <path id="shield" d="m2,2v257c0,286 298,398 298,398c0,0 298-112 298-398V2z" />
    </defs>
    <use id="bg" xlink:href="#shield" style="fill:#008800;fill-opacity:1" />
    <g id="lamb" style="fill:#ffffff;stroke:#008800;stroke-width:1;">
        <path id="fore-right" d="m 152.1,268.9 c -3.2,-0.3 -14.4,2.4 -21.2,18.9 -3.8,2.6 -7.2,0 -10.3,11.9 -7,-0.3 -10.4,4.5 -10.4,11.7 -6.3,6.5 -28.06,16.6 -12.78,27.6 l 7.88,5.6 21.2,-11.3 -4.6,-6 c 7.1,0.2 7,7.2 17.1,3 4.7,-0.9 9.5,0.6 14,-7.2 8.5,1.3 11.4,-3 14.1,-7.2 6.3,0.6 11.1,-0.3 11.5,-10.2 12.1,-0.9 13.7,-6.7 14.6,-14.6 7.2,-9.4 10.4,-35.5 6.8,-47.4"/>
        <g id="hind-right">
            <path d="m 385.2,349.8 c -0.7,4 -5.7,7.9 2.7,11.9 1,5.9 1.2,11.9 0.4,19.8 -1.5,11.9 -8.7,37.6 -12.6,45.5 -3.8,7.9 -11.5,15.9 -17.1,21.8 -4.5,5.9 -11,9.9 -11.4,15.8 -8.4,11.9 -20.1,21.8 -14.1,27.8 h 31.9 c 8.9,0 6.6,-17.9 9.3,-27.8 5.9,4 16.6,8 16.4,-7.9 -0.2,-9.9 15.3,-55.4 22.9,-65.3 12.8,-17.8 16.6,-15.9 11.8,-35.7 9.4,-9.9 -0.4,-9.9 -0.8,-13.8 13.6,-17.8 11.4,-37.6 14.3,-67.3 l -74.7,23.7 c 1.6,11.9 1.9,29.7 14.3,35.7 -3,7.9 1.1,11.8 6.7,15.8 z"/>
            <path style="fill:none" d="m 344.6,492.4 c -6.2,-4 1.8,-13.9 7.3,-21.8 m -4.7,-6 c -0.4,8 18.2,8 25.7,8" />
        </g>
        <g id="goblet" style="fill:#ffdd00;" transform="rotate(-18.57,155.1,365.9)">
            <path d="m 126.4,299.3 c 15.8,25.5 27.3,60.8 5.3,78.1 l 33.7,-17.8 33.9,-17.6 c -26.3,8.3 -49.3,-21.5 -61.4,-48.8 l -5.7,3 z"/>
            <path d="m 146.4,235.8 6.5,12.6 c 10.8,20.3 3.2,44.9 -17,55.3 -19.9,10.7 -44.64,2.7 -55.13,-17.5 l -6.51,-12.6 z"/>
            <path d="m 133.3,376.4 64.8,-33.8 c 1.5,-0.8 3.6,-0.2 4.4,1.4 l 0.3,0.7 c 1,1.6 0.4,3.7 -1.4,4.4 l -64.5,33.8 c -1.5,0.8 -3.6,0.2 -4.4,-1.3 l -0.5,-0.8 c -0.8,-1.6 -0.2,-3.6 1.3,-4.4 z"/>
            <path d="m 129.7,306.6 12.9,-6.7 c 1.5,-0.8 3.3,-0.3 4.1,1.3 0.8,1.5 0.1,3.2 -1.2,4.1 l -12.9,6.7 c -1.6,0.8 -3.4,0.3 -4.2,-1.3 -0.8,-1.5 -0.3,-3.3 1.3,-4.1 z"/>
        </g>
        <g id="body">
            <path id="tail" d="m 458.3,207.2 c 6.4,0 11.6,0 17.1,4 2.5,-2 5,0 8.2,7.9 2.6,4 8,4 6.4,13.9 3.6,2 4.9,5.9 5.1,11.9 7.2,5.9 6.1,9.9 5.9,13.8 3.1,0 3.7,6 3.4,11.9 3.4,4 6.4,9.9 4.1,21.8 1,3.9 5.3,3.9 -0.7,15.8 0.7,2 2.1,6 -2.4,7.9 1.2,6 -3.7,8 -8.4,8 -1,1.9 -7.6,3.9 -9.3,-4 -3.1,-2 -4.8,-5.9 -4.4,-7.9 -3.9,-11.9 -11.3,-31.7 -13,-69.3 z"/>
            <path id="face" d="m 126.7,104.3 c -3.7,-2 -22.6,3.9 -24.2,5.9 -1.8,2 -5.36,4 -8.34,6 -4.17,3.9 -7.94,7.9 -8.34,9.9 -1.19,1.9 -1.99,3.9 -2.98,5.9 -1.39,2 -2.58,5.9 -5.56,9.9 -8.94,15.8 -21.65,33.7 -19.26,39.6 1.39,4 0.79,7.9 5.16,9.9 2.78,0 5.16,-2 7.74,-4 l 12.52,-5.9 c -7.15,5.9 -16.09,7.9 -13.31,13.9 2.18,3.9 8.94,3.9 19.46,-2 8.54,-6 14.51,-2 23.61,-2 5.2,0 13.9,-4 17.1,-5.9 1.6,-2 5.6,-4 10.9,-6 2,-2 20.7,-27.7 20.5,-27.7"/>
            <path id="ear-right" d="m 147.2,96.36 c 12.3,-1.98 21.2,-7.92 36.9,-5.94 12.5,0 22.9,5.94 10.8,15.88 l -18.9,13.8 c -11.9,7.9 -24.2,-2 -35,-5.9"/>
            <path id="main" d="m 147.4,167.6 c -1.2,9.9 -12.3,13.9 -17.1,17.9 -2.2,7.9 2.8,13.8 2.6,17.8 -8.2,9.9 -0.2,11.9 3.8,19.8 -9.2,9.9 0.8,13.8 4.9,19.8 -4.3,9.9 4.4,9.9 9.8,15.8 -3.4,4 -1.6,13.9 3.3,15.9 -3.5,5.9 -1.2,9.9 2,13.8 0.4,6 1.6,9.9 8.2,11.9 1.6,9.9 7.1,7.9 9.3,9.9 1.6,11.9 7.1,13.9 12.3,11.9 6.6,9.9 14.7,7.9 23.4,9.9 11.2,2 23.1,5.9 35.4,7.9 4.6,0 3.4,5.9 14.3,0 5.4,5.9 10.7,4 16.1,2 3.2,3.9 8.5,5.9 17.7,0 15.1,9.9 12.5,0 18.6,0 7,5.9 13.7,7.9 20.7,-2 7.3,5.9 12.3,2 16.5,-2 7.3,0 15.7,2 15.2,-3.9 8.9,1.9 12.5,-2 15.7,-6 12.8,0 12.3,-3.9 15.4,-5.9 11.4,2 11.4,-4 14,-7.9 -0.7,5.9 0.8,7.9 5.5,7.9 -1,5.9 2.8,9.9 7.8,7.9 5,11.9 8.1,7.9 13.5,9.9 2.7,11.9 9.7,7.9 14,9.9 -1.3,9.9 6.8,7.9 10,11.9 -0.4,5.9 1.6,11.9 5.7,17.8 1.5,11.9 0.4,37.6 -1.3,47.5 -1.7,9.9 -4.2,15.9 -8.3,21.8 -3.2,5.9 -9.2,11.9 -7.9,17.8 -3.6,4 -22.6,17.8 -17.8,25.8 h 34.3 c 8.9,0 6.9,-17.9 7,-29.7 7,3.9 18.4,5.9 14.4,-9.9 -2.7,-9.9 1.1,-57.5 6.5,-69.3 8.2,-17.9 9.3,-17.9 -0.1,-35.7 1,-7.9 -2.8,-11.9 -6.7,-15.8 1.8,-7.9 0,-13.9 -4.4,-19.8 7.4,-9.9 -0.2,-9.9 -1.7,-15.9 4.5,-5.9 1.4,-9.9 -0.5,-13.8 5.1,-6 5.2,-9.9 0.2,-13.9 5.3,-2 5.7,-7.9 0.2,-19.8 2.7,-3.9 4.2,-9.9 -2.4,-15.8 2.7,-9.9 -1.6,-13.9 -8.1,-17.8 -0.2,-8 -4.4,-11.9 -12.4,-11.9 -3.3,-4 -2.1,-9.9 -14.2,-6 -5,-9.9 -13.1,-7.9 -18,-3.9 -8.6,-7.9 -15.4,-4 -18.1,-2 -5.6,-2 -9.3,-5.9 -19,0 -5.7,-2 -11.3,-4 -16.9,0 -8.1,-4 -21.4,-7.9 -20.6,0 -12.8,-4 -21.1,-4 -25.3,4 -3.3,-4 -8.1,-4 -19.4,1.9 -5.6,-1.9 -7.4,-7.9 -20.3,2 -5.1,-2 -10.5,-7.9 -15.7,2 -5.5,-5.9 -19.4,-5.9 -19.6,0 -1.4,-4 -7.8,-5.9 -14.7,-5.9 -2.2,-8 -14.3,-8 -14.3,-11.9 1.6,-9.9 -5.6,-13.9 -11.9,-19.8 1.9,-9.9 -5.4,-13.9 -11.2,-17.8 1.8,-11.9 -6.5,-21.8 -11.1,-31.7 -4.6,-13.9 -16.3,-13.9 -23,-15.86 -3,-7.92 -15.7,-11.88 -23.5,-3.96 -3.3,-3.96 -8.9,-5.94 -11.9,0 -9.3,-3.96 -16.9,0 -14.5,5.92 -9.7,-1.96 -12.3,2 -15.07,7.9 -6.56,9.9 9.17,13.9 17.67,13.9 1.6,4 -1,13.9 12.3,7.9 -1.4,7.9 -2.6,17.8 6.8,17.8" />
            <path style="fill:none;" d="m 409.5,314.2 c -2.9,-2 -9.7,-2 -5.2,-9.9 -2.8,-2 -8,-4 -6.2,-13.9 -5,-2 -5.1,-5.9 -3,-9.9 -5.7,-4 -4.5,-7.9 -2.6,-13.9" />
            <path style="fill:none;" d="m 445.1,492.4 c -6.9,-2 2.4,-15.9 7.8,-21.8 m -4.4,-4 c 3.7,6 15.5,6 23.2,6" />
            <path id="eyeball" style="fill:none;" d="m 91.78,145.9 c 1.59,5.9 12.32,9.9 13.52,-4" />
            <path id="eyebrow" style="fill:none;" d="m 108.3,139.9 c -8.98,4 -15.33,0 -19.7,9.9" />
            <path id="nostril" style="fill:none;" d="m 70.13,173.6 c -0.2,2 -6.16,5.9 -6.95,3.9 -0.8,0 -0.8,-1.9 -0.6,-3.9" />
            <path id="ear-left" d="m 169,116.2 c 11.8,3.9 22.1,3.9 35.2,11.8 10.7,8 16.9,17.9 2.2,19.8 l -23.3,4 c -10.1,0 -20.6,-13.9 -28.6,-21.8" />
            <ellipse id="pupil" style="fill:#000000;stroke:none;" cx="97.34" cy="145.9" rx="3.015" ry="2.752" />
        </g>
        <path d="m 97.42,339 c 19.08,13.3 45.68,45.7 56.88,45.5 9.9,-0.2 19.4,4.2 23,-0.9 10.4,-3.9 26.1,-5.2 25.2,-14 l -21.4,-17.7 c -4.5,-3.8 -10.4,10 -20.3,14.2 -0.2,-4.4 3,-4.8 -13,-13.4 -9.2,-5.6 -16.2,-17.5 -25.9,-25.4" />
        <path style="fill:none;" d="m 196.4,364.9 c -2.1,6.1 -11.2,8 -19.2,12.1 m 0.1,6.6 c 4.3,-5.8 -8.4,-15.1 -12.2,-20" />
        <g id="fore-left">
            <path d="m 198.8,304.3 c -2.2,3.9 -6.5,7.9 -0.2,15.8 -1,4 -4.5,11.9 3.6,13.9 -5.8,5.9 0.2,7.9 3,9.9 0.6,3.9 -3.8,7.9 4.7,13.8 -0.7,4 -3.1,9.9 4.6,11.9 0,7.9 2,7.9 3.4,7.9 -1.8,7.9 0.8,11.9 3.2,13.9 1.6,17.8 6.7,41.6 -2,57.4 -3,5.9 -9.8,9.9 -9.9,15.8 -7.4,11.9 -17.7,21.8 -12.6,27.8 h 28 c 7.8,0 5.8,-17.9 8.2,-27.8 5.1,4 13.3,2 13.1,-13.8 -0.2,-9.9 -4,-53.5 1,-65.4 2,0 6.3,0 3.6,-11.8 1,-2 6.5,-2 1.5,-9.9 2.6,-6 8.4,-9.9 1.4,-15.9 1,-3.9 4.8,-3.9 0.2,-15.8 1.2,-4 6.4,-7.9 -1,-11.9 2,-7.9 -0.8,-7.9 -2.1,-9.9" />
            <path style="fill:none;" d="m 206.8,492.4 c -5.4,-4 1.6,-13.9 6.3,-21.8 m -3.9,-6 c -0.4,8 15.8,8 22.4,8" />
        </g>
    </g>
    <use id="shine" xlink:href="#shield" style="fill:url(#rg);stroke:#000000;stroke-width:3;" />
</svg>
