<?xml version="1.0" encoding="UTF-8"?>
<svg xmlns="http://www.w3.org/2000/svg" xmlns:xlink="http://www.w3.org/1999/xlink" width="600" height="660">
<defs>
  <filter id="stone" style="color-interpolation-filters:sRGB;" width="1.3" x="-0.15" height="1.3" y="-0.15">
    <feTurbulence result="result4" seed="0" numOctaves="5" baseFrequency="0.04" type="fractalNoise" />
    <feDisplacementMap result="result3" in="SourceGraphic" in2="result4" scale="0" xChannelSelector="R" yChannelSelector="G" />
    <feDiffuseLighting result="result1" in="result4" surfaceScale="2" diffuseConstant="1" lighting-color="rgb(233,230,215)">
      <feDistantLight elevation="40" azimuth="235" />
    </feDiffuseLighting>
    <feComposite result="result2" in2="result1" in="result3" operator="in" />
    <feComposite result="result5" k1="1.7" operator="arithmetic" in2="result1" />
    <feBlend in="result5" in2="result5" mode="multiply" />
  </filter>
  <radialGradient id="rg" gradientUnits="userSpaceOnUse" cx="220" cy="220" r="405">
    <stop style="stop-color:#fff;stop-opacity:.3" offset="0"/>
    <stop style="stop-color:#fff;stop-opacity:.2" offset=".2"/>
    <stop style="stop-color:#666;stop-opacity:.1" offset=".6"/>
    <stop style="stop-color:#000;stop-opacity:.13" offset="1"/>
  </radialGradient>
  <path id="shield" d="m2,2v257c0,286 298,398 298,398c0,0 298-112 298-398V2z"/>
</defs>
<use xlink:href="#shield" style="fill:#000000;"/>
<g id="tree">
    <path style="fill:#888888;stroke:none;" d="m 197.3,29.53 c -13.7,11.18 -22.2,22.16 -41.1,33.34 -14.4,-6.07 -32.6,-3.6 -42.5,-19.7 l -3.4,3.6 c 10.4,9.66 24.3,17.99 39.8,19.88 -1.3,14.59 7,22.92 11.2,35.95 -18,6.7 -41.9,-8.48 -60.8,-18.14 l -2.49,3.22 c 20.69,7.95 33.89,25.92 63.29,22.92 5.3,19.7 19.3,35 29.1,52.5 l -8.7,4.5 0.6,7 12.1,-1.5 c 18.2,2.8 28.6,9.1 41.1,14.6 l 12.9,32.2 c 12.1,18.7 15.3,27.4 24.6,34.3 3.4,20.4 10.8,29.1 8.9,47.7 -11.3,-3.4 -19.7,-11 -27.3,-19.5 l 5.9,-6.6 -9.3,-3.6 c -9.8,-13.5 -19.9,-26.8 -23.8,-46.3 l 3.6,-3.9 -1.7,-8.2 -10.6,4.6 c -22,-11 -48,-7 -72,-10.6 -1,-10.8 -16.9,-18.8 -26,-28.3 -18.9,-11.5 -34.81,-20 -40.68,-41.8 l -5.12,3.2 c 7.2,20.3 20.46,32.2 40.5,46.8 -13.4,4.3 -27.62,0.5 -40.12,14.4 l 1.89,4.7 c 18.38,-15.5 34.63,-10.6 50.93,-7.6 7,5.9 13.3,12 12.3,18.6 l 5.3,2.1 c 12.3,1.5 32.6,-3.8 36,5.5 l 4,0.5 c 26.1,-5.3 26.7,10.5 33,21.6 0.7,12.9 9.4,22.4 15.7,32.8 -5.3,4.9 -10.3,10 -37.7,0.6 l -24.4,-1.6 -5.7,-12.1 c -12.9,1.5 -25.2,-4.1 -36.6,-18.7 l -4.7,3.6 11.7,13 c -21.6,0.4 -42.97,8.6 -64.37,-4.5 v 4.2 c 18.56,8.3 38.47,9.2 58.57,7.9 -1,12.9 -26.8,15 -40.77,22.2 l 7.58,3 c 14.99,-7 36.39,-9.1 42.39,-22.7 20.9,1.3 24.8,7.9 18.6,17.6 l 12.7,2.1 c 2.4,-2.7 6.8,-4.6 27.4,-1 -3.7,9.3 -13.4,11.2 -21,16.1 h 9.3 c 12.5,-1.5 15.7,-6.4 18.6,-11.5 15.1,5.7 27.1,2.1 39.6,-0.6 6.4,7 13,14.2 23.6,18.6 0.2,7.5 1.7,14.6 5.9,21.2 -3.8,12.5 -0.8,22.7 3.4,32.8 -5.3,7.7 -10.4,15.3 -9.8,23.1 9.6,21.2 3.7,42.2 -2.3,63.4 -13.1,17.2 -39.2,16.9 -60.4,23.1 -15,3.8 -30.9,7.6 -52.7,10.6 -7.6,5.1 -11.5,8.7 -3,6.1 14,-2.9 27.8,-5.5 41.8,-6.6 19.5,-4.8 37.2,-6.7 53.8,-7.1 l 19.7,-10.9 c -14.4,10 -30.8,19.7 -42.8,30.6 -4,6.1 -1.3,13.5 -9.3,20.1 -24.4,9.3 -31,18.6 -46.4,27.7 l -1.1,5.7 c 19.7,-13.9 40.7,-23.5 62.5,-30.4 4.2,-4.1 10.8,-6 9.5,-15.1 5.5,-12.3 33.5,-15.5 42.2,-32.8 6.8,3.8 3,6.8 0,9.7 0,4.7 -12.5,10.8 -18.7,15.7 -4,3 -6.5,4.9 -3.3,8 -0.9,10 2.3,18.9 7.4,27 -0.2,14.6 -15.7,22.6 -23.6,34 l 1.7,2.4 c 10.4,-11.2 27.8,-20.4 34.6,-32 1.3,-2.1 0.8,-6.1 1.3,-8.3 -4.5,-6.5 -11.7,-12 -7,-22.6 12,-7.2 23.7,-22.3 35.5,-21.2 -4.4,11.4 -1.9,21.8 -0.6,32.2 8.9,4.4 12.3,11.8 16.3,18.6 l 43,22.7 c 4.1,2.3 5.5,1.5 4.5,-1.5 l -40.5,-26.1 c -3.4,-10.5 -5.1,-20.9 -11,-31.3 3.4,-8.3 15.3,-14.4 10.4,-25.2 2.9,15.4 11,25.2 27.9,30.3 6,1.9 11.3,6.6 13.2,12.5 19,7 44.7,9.3 72.6,10.1 6.2,-0.2 8.3,-1.2 3.4,-4 -21.6,-4.8 -45.7,-1 -65,-14.2 -9.3,-12.1 -11,-17.6 -32.4,-35.6 27.7,13.6 53.8,7.5 80.5,11 v -2.5 c -19.7,-4.2 -33.1,-2.1 -59.1,-12.5 -11,-4.2 -23.7,-6.6 -26.1,-18.2 l -12.1,-43.4 c 6.2,-17.6 8.9,-35.2 1.1,-52.8 1.5,-6.3 3.2,-12.5 1.7,-25.6 -2.7,-7.2 4.4,-13.4 10.4,-19.7 8.3,2.9 14.6,0.2 21,-2.1 0.2,-7.3 -1.9,-14.4 7,-22.5 l 28.5,-9.1 c 26.3,-4 45.8,-2.8 52,8 h 9.3 c 20.7,-15.4 44,-22.2 70.3,-19 l 1.1,-3.6 c -13.8,-1.5 -25.9,-3.9 -43,-3 16.1,-7.4 17.5,-19.3 23.5,-30.3 l -5.1,-0.8 c -2.5,18.8 -24.8,25.4 -37.5,38.1 -26.5,-6.2 -52.8,-12.7 -79.4,0.6 l -4.1,-9.1 -7,-2.5 2.4,8.9 c -18,3.6 -33.1,13.8 -48.3,24.3 13.1,-16.5 29.4,-31.9 30.3,-51.9 41.7,-4.6 75.6,-18 90.4,-52.9 l 36,-2.1 5.3,-4.3 c 0,0 -4.2,0.7 -2.3,-1.1 5.3,-5.2 33.9,-21.3 30.9,-21.8 l 1.9,-3.2 c -28.6,14 -31.3,28 -74.7,23.1 -0.3,-14.8 -1.9,-29.6 12.3,-42.5 5.7,-0.2 10.1,-2.6 11.6,-8.9 1.3,-5.3 -1.5,-3 -3.6,-1.9 -4.5,6.3 -11.4,7.2 -17.8,7.8 -8.5,14 -14,28.2 -11.7,42.8 l -10.5,-3.4 1.2,9.1 c 9.3,34.6 -31.8,38.4 -70.1,43.7 l -18.8,9.1 c 0,12.5 -7.7,21.2 -16.1,29.8 l -8.1,3.4 v 8.1 l -13.4,24.6 c -0.6,-22.7 -3.1,-36.1 -10.3,-58.3 18.2,-10.6 14.6,-36.2 22,-50 20.1,-3 40.7,-14.8 61.4,-27.6 l 3,3.9 6.2,-2.4 -1.1,-6.1 21,-33.7 2.3,1.5 c -1.7,-10.6 -5.1,-20.6 0,-34.27 2.8,-7.96 7,-16.1 13.3,-24.06 l -2.5,-0.94 c -10,9.28 -11.6,16.85 -16.3,25 l -3.4,29.77 c -12.3,25.7 -30.3,38.8 -52.6,48.4 2.4,-12.5 0.9,-24.4 -1,-36.1 l -4.7,-0.2 c 2.1,10 3.4,20.4 0,31.8 1.1,11.9 -16.1,10.2 -24.5,15 1.7,-18 3.8,-35.5 -7.3,-50.8 15.3,-17.6 16.6,-37.49 27.6,-56.81 l -1.7,-7.2 c -2.7,5.49 -3,17.05 -8.1,15.34 -3.3,-8.52 -2.1,-17.23 -11,-25.95 -7,-5.3 -13.3,-11.74 -18.8,-20.26 l -4,1.7 c 3.8,9.28 9.1,17.43 16.3,24.25 11.8,10.41 8,20.83 11.8,31.25 -5.7,5.68 -6.3,14.18 -11.2,20.98 1.7,5.9 -6.6,13.1 -9.9,19.7 v 1 c 14.1,17.4 3.5,34.5 5.7,51.9 -6,-0.6 -6.6,3.8 -9.1,7.6 3.1,18.3 -2.6,24.2 -21,34 -5.5,-6.2 -20.6,-8.3 -23.1,-24 -0.6,-2.3 -1.3,-5.3 -3.4,-6.4 -9.1,-5 -1.3,-14.8 -2.5,-21.3 14.1,-6.6 18.2,-24.8 23.7,-39.5 -3.2,-18.2 -7,-37 -4.5,-57.24 h -4 c -1.1,17.04 -1.5,33.94 2.3,50.94 -4.8,20.8 -14.2,37.5 -33.2,46.2 -10,-4.1 -22,-4.7 -30.1,-12.5 -8.3,-8.9 -17.6,-17.6 -20.3,-28.2 9.1,-5.5 19,-11 33.8,-16.1 5.8,-8.1 13.4,-17.4 24.4,-28.22 l -1.9,-3.98 -20.3,21 c -13.6,5.7 -27.4,20.1 -41.1,16.3 -13.6,-11.5 -11.9,-22.9 -17.6,-34.27 11,5.5 18.9,-1.7 28,-5.11 l 0.6,-3.98 c -9.7,1.52 -17.6,11.37 -29,3.98 -1.9,-7.2 -7.9,-14.4 -3.6,-21.59 15.9,-9.85 24.8,-21.22 37.2,-31.82 z" />
    <path style="fill:none;stroke:#333333;stroke-width:1.5;stroke-linecap:round;" d="m 280.6,238.1 c 7.9,6.2 13.8,12.5 11.7,18.5 m 53.1,45.5 c 3.6,-3.1 5.5,-7 15.9,-6.5 m -69.9,27.9 1.5,22.7 c -1.9,9.7 0.2,18.2 5.3,25.4 -3.4,4.7 -7,12.7 -10.6,20.8 6.8,21.8 8.7,42.6 7,63.1 -0.4,4 -3.2,7.2 -9.1,9.8 m 36.2,-134.1 c 1.3,8.9 4.7,17.5 0.6,27.5 5.3,18.8 -1,35.6 -2.1,53.2 -3.2,19.3 6.8,34.9 11.1,51.9 v 0 h 1.2" />
</g>
<use style="opacity:0.5;filter:url(#stone);" xlink:href="#tree"/>
<use id="shine" xlink:href="#shield" fill="url(#rg)" stroke="#000" stroke-width="3"/>
</svg>
