<?xml version="1.0" encoding="UTF-8"?>
<svg xmlns="http://www.w3.org/2000/svg" xmlns:xlink="http://www.w3.org/1999/xlink" width="600" height="660">
<defs>
  <radialGradient id="rg" gradientUnits="userSpaceOnUse" cx="220" cy="220" r="405">
    <stop style="stop-color:#fff;stop-opacity:.3" offset="0"/>
    <stop style="stop-color:#fff;stop-opacity:.2" offset=".2"/>
    <stop style="stop-color:#666;stop-opacity:.1" offset=".6"/>
    <stop style="stop-color:#000;stop-opacity:.13" offset="1"/>
  </radialGradient>
  <path id="shield" d="m2,2v257c0,286 298,398 298,398c0,0 298-112 298-398V2z"/>
</defs>
<use xlink:href="#shield" fill="#ffffff"/>
<g id="crow" style="fill:#000000;stroke:#ffffff;stroke-width:0.5;stroke-linecap:round;stroke-linejoin:round">
	<path style="fill:#cc0000;" d="m 242.46,543.53 c -13.02,11.53 -17.05,31.25 -4.67,48.28 13.27,18.29 46.47,31.73 98.22,20.17 19.41,-49.35 11.25,-84.2 -4.76,-100.17 -14.91,-14.84 -35,-13.87 -48.42,-2.83 -10.49,8.97 -12.12,19.6 -11.87,26.99 -7.27,-1.38 -18.02,-1.42 -28.5,7.56 z"/>
	<path d="m 277.49,504.44 c -1.05,0.67 -1.67,1.76 -2.15,3.13 -0.18,0.34 -0.23,0.76 -0.23,1.28 0,0.89 0.42,1.83 1.01,2.66 0.6,0.86 2.15,1.25 4.68,1.3 -1.32,-2.18 -1.41,-3.92 -0.59,-4.9 0.82,-0.94 1.95,-1.81 3.4,-2.25 0.44,-0.18 1.01,-0.36 1.66,-0.99 0.64,-0.66 1.61,-1.67 2.55,-2.68 0.45,-0.48 1.08,-1.02 1.58,-1.53 l -0.74,-0.82 c -1.34,0.77 -2.65,1.21 -4.15,1.49 -1.61,0.36 -3,0.97 -4.21,1.71 -0.98,0.32 -1.89,0.96 -2.81,1.6 z"/>
	<path d="m 283.2,508.33 c -0.25,1.05 -0.36,2.44 0.34,3.78 0.51,1.62 1.15,2.22 2.16,1.86 1.1,-0.16 2.31,-0.43 3.88,-0.69 -1.94,-1.43 -2.58,-2.96 -1.86,-4.27 0.67,-1.28 1.32,-2.38 1.78,-3.17 0.56,-0.85 1.01,-1.64 1.86,-2.28 0.21,-0.3 0.43,-0.8 0.49,-1.36 0,0.56 -0.28,1.06 -0.49,1.36 -0.39,0.57 -0.41,1.53 0,2.98 0.21,1.37 1.03,2.28 1.92,2.38 1.11,0.18 2.41,0.44 4.42,0.35 -1.62,-2.17 -2.31,-3.86 -1.99,-5.17 0.23,-1.24 0.93,-2.53 1.76,-3.52 1.05,-0.9 2.25,-1.54 3.75,-1.96 0.39,-0.2 0.91,0.17 1.29,0.85 0.82,1.25 1.17,2.58 0.82,3.87 0,0.38 -0.17,0.67 -0.17,1.04 0.39,-0.22 0.74,-0.58 0.93,-0.86 1.1,-1.15 1.79,-2.43 2.56,-3.58 0.68,-1.29 0.77,-2.46 0.28,-3.72 -0.69,-1.69 -1.76,-2.41 -3.29,-2.39 -0.33,0 -0.67,0 -1.09,0.17 -1.41,0.55 -2.9,0.95 -4.32,1.49 -1.29,0.49 -2.76,0.3 -4.19,-0.82 -1.69,-4.96 -2.55,-9.92 -2.87,-14.45 -0.18,-2.17 -0.18,-5.02 0.18,-8.08 -1.93,0.82 -3.81,1.2 -5.76,0.72 -0.17,0.78 -0.54,1.57 -1.25,2.13 l 0.17,0.18 5.29,22.36 c 0.17,0.28 0,0.58 0,0.95 -3.77,3.7 -5.79,7.36 -6.45,9.85 z"/>
	<path d="m 298.07,506.14 c -1.06,0.68 -1.69,1.74 -2.17,3.13 -0.19,0.35 -0.25,0.77 -0.23,1.29 0,0.89 0.41,1.81 1.02,2.67 0.58,0.86 2.14,1.24 4.68,1.28 -1.32,-2.2 -1.41,-3.91 -0.61,-4.89 0.82,-0.94 1.95,-1.81 3.41,-2.28 0.42,-0.17 1,-0.33 1.65,-0.96 0.64,-0.68 1.62,-1.67 2.57,-2.68 0.46,-0.5 1.08,-1.05 1.55,-1.53 l -0.73,-0.82 c -1.34,0.76 -2.63,1.2 -4.12,1.49 -1.62,0.34 -3.02,0.96 -4.22,1.69 -0.99,0.32 -1.9,0.97 -2.8,1.61 z"/>
	<path d="m 303.76,510.04 c -0.26,1.02 -0.34,2.44 0.35,3.77 0.48,1.61 1.13,2.22 2.14,1.87 1.09,-0.17 2.32,-0.45 3.9,-0.69 -1.95,-1.43 -2.58,-2.98 -1.86,-4.27 0.68,-1.29 1.3,-2.39 1.75,-3.19 0.59,-0.85 1.02,-1.63 1.91,-2.26 0.17,-0.3 0.42,-0.81 0.45,-1.37 0,0.56 -0.28,1.07 -0.45,1.37 -0.42,0.57 -0.44,1.51 0,2.98 0.19,1.37 0.97,2.27 1.87,2.38 1.12,0.17 2.43,0.43 4.45,0.35 -1.66,-2.18 -2.34,-3.87 -2.01,-5.17 0.23,-1.24 0.92,-2.53 1.77,-3.52 1.06,-0.92 2.27,-1.55 3.76,-1.97 0.38,-0.19 0.92,0.17 1.26,0.83 0.82,1.28 1.17,2.6 0.82,3.9 0,0.37 -0.17,0.65 -0.17,1.04 0.4,-0.21 0.72,-0.57 0.92,-0.85 1.12,-1.16 1.8,-2.45 2.58,-3.59 0.68,-1.29 0.77,-2.45 0.3,-3.71 -0.72,-1.72 -1.79,-2.45 -3.32,-2.41 -0.34,0 -0.67,0 -1.07,0.17 -1.43,0.56 -2.95,0.94 -4.35,1.5 -1.3,0.49 -2.73,0.28 -4.19,-0.84 -1.69,-4.94 -2.57,-9.9 -2.86,-14.43 -0.18,-2.18 -0.18,-5.02 0.17,-8.1 -1.98,0.84 -3.82,1.2 -5.78,0.72 -0.18,0.79 -0.53,1.59 -1.24,2.16 l 0.17,0.17 5.27,22.36 c 0.19,0.28 0,0.56 0,0.94 -3.77,3.71 -5.77,7.35 -6.41,9.86 z"/>
	<path d="m 297.47,330.15 c -2.74,1.34 -5.45,2.5 -7.99,3.82 -2.76,1.17 -5.33,2.5 -7.73,4.01 -2.72,1.5 -5.29,3.17 -7.73,5.15 -2.41,1.67 -4.68,3.68 -6.35,5.84 -2.1,2.49 -3.48,5.15 -4.37,8.32 -0.76,3.15 -1.2,6.31 -1.2,9.64 -0.17,3.16 0,6.48 0.44,9.82 0.6,3.34 1.06,6.5 1.82,9.16 0.29,0.17 0.45,0.32 0.73,0.48 1.53,1.17 2.9,2.49 4.25,3.84 0.44,1.01 1.07,1.84 1.54,2.82 1.94,1.84 3.9,2.83 5.58,3.01 1.81,0 2.71,-0.66 2.88,-1.99 -0.47,-2 -1.07,-4 -1.98,-5.81 -1.5,-2.51 -2.85,-5.35 -3.94,-8.35 -1.21,-3.32 -1.21,-6.32 0.3,-9.13 1.22,-2.83 3.18,-5.18 5.62,-7.01 2.7,-1.82 5.41,-3.67 8.15,-5.14 2.72,-1.67 5.43,-3.18 8,-4.16 2.89,-1.33 5.6,-2.53 8.34,-3.35 2.85,-1.16 5.88,-1.99 8.76,-2.64 3.15,-0.85 6.18,-1.52 9.08,-2.18 3.01,-0.5 5.73,-1.15 8.59,-1.5 3.2,-0.33 6.21,-0.84 9.38,-1.31 2.87,-0.36 5.9,-0.84 8.93,-1.2 0,0 0,0 0.18,0 2.27,-0.66 4.22,-2.13 6.06,-4.47 1.67,-2.49 2.71,-5.17 3.64,-8 -0.93,0.82 -1.97,1.51 -3.32,1.85 -2.88,0.84 -5.77,1.65 -8.8,2.49 -3,0.82 -6.05,1.48 -9.05,1.67 -3.02,0.18 -6.22,0.34 -9.38,0.18 1.21,-0.18 2.26,-0.48 3.32,-0.82 2.88,-1.33 5.61,-2.82 8.17,-4.33 2.42,-1.31 4.69,-3.32 6.66,-5.63 1.97,-2.68 3.93,-5.17 5.73,-7.66 1.67,-2.5 2.44,-5.66 2.26,-9.67 -1.5,1.52 -3.31,2.68 -5.73,3.67 -2.56,1.33 -5.45,2.33 -8.46,3.5 -3.02,1.14 -5.59,1.99 -7.86,2.82 -2.28,0.84 -5.15,1.85 -8.33,3 -3.16,1.16 -6.22,2.16 -8.91,3.33 -2.72,1.01 -5.6,1.84 -8.62,2.66 -3.04,0.84 -6.05,2.01 -8.6,3.33"/>
	<path d="m 343.12,353.46 c -2.72,2.33 -4.67,3.83 -6.2,4.82 0.31,0 0.9,0 1.53,0 1.95,0.18 4.36,0.18 7.24,0 2.71,0 5.58,0 8.77,0.47 3.16,0.51 3.3,2.19 0.45,5.02 -0.29,0 -0.62,0.33 -0.62,0.51 -0.9,0.48 -1.49,1.18 -2.25,1.81 -1.52,1 -3.03,2 -4.68,3.18 -1.82,1 -3.65,1.66 -5.59,1.81 l -0.18,0.68 c 1.5,0.18 3.15,0.34 5,0.67 2.56,0.5 3.15,1.82 1.94,4.16 4.82,0 7.72,0.33 8.77,0.82 2.89,1.53 5.75,2.5 8.61,3.16 3.18,0.51 6.36,0.99 9.51,1.5 3.35,0.34 6.22,-0.51 8.79,-2.16 2.44,-1.67 4.39,-3.82 5.9,-6.65 -2.72,0 -5.61,0 -8.17,-0.33 -3.17,-0.18 -6.05,-0.83 -8.91,-1.85 -3.01,-1.14 -5.9,-2.49 -8.63,-3.81 -2.71,-1.34 -6.04,-2.17 -9.52,-2.33 1.51,0 3.02,0 4.69,0 3.18,0 6.34,0 9.68,0 2.87,-0.18 5.87,-0.18 9.05,-0.34 3.18,0 6.2,-0.83 8.8,-2.15 2.67,-1.51 4.98,-3.7 6.48,-6.5 1.52,-2.66 1.36,-4.15 -0.75,-4.15 -3.18,-0.18 -6.18,-0.34 -9.37,-0.18 -3.19,0 -6.36,-0.16 -9.51,-0.67 -1.36,0 -2.44,0.17 -3.64,0.35 -0.9,0 -1.81,0 -2.59,0 -16.46,0.5 -24.77,1.15 -24.63,2.16"/>
	<path d="m 396.18,467.92 c 5.15,0.97 9.09,-0.5 11.78,-4.34 1.7,-2.84 2.76,-4.85 3.04,-6.17 -5.12,0 -9.81,-0.33 -14.37,-1.14 -5.27,-1.19 -10.26,-2.33 -15.11,-3.85 -1.2,1.18 -2.57,2.17 -4.07,2.66 -1.82,0.67 -3.77,1.33 -5.77,1.86 l -0.72,2.31 c 10.56,5.49 19.02,8.31 25.22,8.67"/>
	<path d="m 348.57,376.59 c -0.31,0.18 -0.46,0.33 -0.6,0.49 -2.59,1.65 -4.99,3.19 -6.95,4.16 -1.98,1.17 -3.04,1.67 -3.34,1.67 -1.51,2.84 -3.48,5.35 -5.9,6.83 -0.32,0.18 -0.76,0.49 -1.06,0.66 1.52,2.01 3.19,3.67 5.14,5.66 2.42,2.14 5.16,3.33 8.3,3.49 3.2,0.17 6.22,0.17 9.23,0 -2.12,-1.5 -4.08,-3.83 -5.72,-6.32 -1.98,-2.47 -3.51,-5.17 -4.55,-7.99 1.52,0.99 3.17,2.32 4.85,3.64 2.41,1.88 4.97,3.53 7.85,4.69 3.03,1.32 6.05,1.83 9.38,1.99 3.33,-0.18 6.19,-1.16 8.47,-3.15 -1.67,-0.84 -3.49,-2.34 -5.14,-4.01 -2.28,-2.17 -4.55,-4.32 -6.96,-6.84 -2.29,-2.31 -6.66,-3.98 -13,-4.97"/>
	<path d="m 337.68,382.91 c -2.73,0.51 -5.44,0.67 -8.16,0.51 -0.75,0 -3.34,-0.17 -7.43,-0.66 -0.58,0.66 -1.19,1.16 -1.94,1.66 -2.59,2.15 -5,3.98 -7.56,5.48 -1.06,0.66 -1.96,1.34 -3.19,1.82 1.23,0.83 2.74,1.51 4.55,1.33 3.03,-0.18 6.05,-0.5 9.05,-0.5 h 1.2 c 2.14,-0.18 4.41,-0.98 6.36,-2.15 -0.18,-0.31 0.18,0 0.18,0 0.29,-0.17 0.74,-0.5 1.06,-0.66 2.42,-1.48 4.39,-3.99 5.9,-6.83"/>
	<path d="m 321.21,395.72 c -1.06,1.01 -2.12,1.84 -3.02,2.84 -1.82,1.65 -3.79,2.64 -6.05,3.32 0.45,1.32 0.45,2.5 0.28,3.83 -0.18,1.67 -0.89,3.5 -2.26,5.35 -1.98,2.63 -4.53,3.81 -7.41,2.98 0.61,0.97 1.66,1.8 3.19,2.83 2.12,1.49 4.36,2.48 6.65,3.14 0.59,0 1.05,0 1.65,0.18 0.91,0.17 1.5,0.17 2.28,0.17 2.57,-0.17 4.69,-1.01 6.19,-2.67 -1.95,-0.82 -3.62,-2 -5.15,-4 -2.11,-2.63 -3.78,-5.31 -4.97,-7.98 1.19,1.67 2.72,2.99 4.51,4.34 2.76,1.83 5.77,2.66 9.08,2.66 3.63,0.18 6.06,-1.18 7.12,-4.18 -2.58,-0.82 -4.69,-2.66 -6.52,-5.14 -1.33,-1.86 -2.58,-3.84 -3.91,-5.49 -0.46,-0.52 -1.06,-1.33 -1.66,-2.18"/>
	<path d="m 318.19,398.56 c 0.9,-1 1.96,-1.83 3.02,-2.84 0.88,-1.16 1.97,-2.15 2.99,-3.17 -0.43,0 -0.88,0 -1.2,0 -3,0 -6.02,0.34 -9.05,0.5 -1.81,0.18 -3.32,-0.5 -4.55,-1.33 -0.91,0.18 -1.81,0.35 -2.72,0.69 0.18,3.47 -1.19,6.32 -3.93,8.3 -0.76,0.33 -1.5,0.82 -2.27,1.35 3.04,0.65 6.2,0.65 9.37,0.32 0.78,-0.18 1.54,-0.32 2.29,-0.5 2.26,-0.68 4.23,-1.67 6.05,-3.32"/>
	<path d="m 322.87,397.9 c 0.74,0.99 1.81,1.82 3.03,2.81 1.79,1.01 3.77,2 5.88,2.68 3.01,0.83 6.04,1.15 8.9,0.65 -1.93,-1.66 -3.9,-3.33 -5.43,-5.64 -1.95,-2.68 -3.47,-5.35 -4.69,-8 -1.95,1.17 -4.22,2.01 -6.36,2.15 -1.02,1.02 -2.11,2.01 -2.99,3.17 0.6,0.85 1.2,1.66 1.66,2.18"/>
	<path d="m 345.24,452.63 c -1.37,0.33 -2.87,0.33 -4.4,0.17 -0.17,0 -0.17,0 -0.3,0 -0.29,-0.17 -0.43,-0.17 -0.6,-0.17 -0.3,0.17 -0.9,0.49 -1.49,0.83 -0.77,0.49 -1.67,0.84 -2.44,1.18 -0.76,0.18 -1.81,0.48 -2.55,0.66 -0.18,0.82 -0.32,1.49 -0.61,2.01 -0.3,0.5 -0.78,1 -1.21,1.33 1.5,0.64 3.02,1.48 4.22,2.65 1.66,1.17 3.32,2.5 4.82,3.83 1.53,1.16 3.03,2.51 4.56,3.84 1.36,1.49 2.73,2.97 4.07,4.64 0.46,0.83 1.37,1.49 2.13,2.16 0.89,0.51 1.65,0.99 2.57,1.51 1.96,0.5 3.93,0.83 6.2,0.83 1.52,-0.18 2.72,-0.83 3.93,-1.99 -1.51,-0.84 -2.87,-1.68 -4.07,-2.51 -1.68,-1.32 -3.21,-2.66 -4.68,-3.98 -1.54,-1.51 -3.06,-3 -4.55,-4.32 -1.53,-1.35 -3.03,-2.51 -4.55,-3.52 -1.97,-1 -3.6,-2.01 -5.45,-3.14 -1.49,-1.01 -3.02,-1.85 -4.53,-2.68 1.51,0.83 3.04,1.67 4.53,2.68 1.85,1.13 3.48,2.14 5.45,3.14 1.52,1.01 3.02,2.17 4.55,3.52 1.49,1.32 3.01,2.81 4.55,4.32 1.47,1.32 3,2.66 4.68,3.98 1.2,0.83 2.56,1.67 4.07,2.51 0.28,0.18 0.46,0.18 0.75,0.32 1.81,1 3.78,1.49 6.03,1.67 2.13,0 4.08,-0.18 5.76,-0.83 0.62,0 1.06,-0.18 1.54,-0.32 -0.18,-0.2 -0.18,-0.2 -0.18,-0.2 -1.81,-0.99 -3.47,-2.32 -4.83,-3.63 -1.37,-1.33 -2.73,-2.85 -4.22,-4.16 -1.54,-1.33 -3.2,-2.68 -4.71,-4 -1.53,-1.01 -3.01,-2.33 -4.55,-3.51 -1.49,-1.33 -3.16,-2.49 -4.82,-3.47 -1.68,-1.33 -3.64,-2.35 -5.29,-3.52 -1.36,-0.82 -2.88,-1.34 -4.38,-1.83"/>
	<path d="m 331.64,458.64 c -1.08,0.82 -2.42,1.13 -4.24,1.13 1.37,0.68 5.74,7.33 13.28,19.83 1.09,1.16 2.91,1.51 5.31,1.31 2.27,-0.48 3.78,-1.31 4.69,-3.14 0.18,-0.5 0.47,-1.34 0.76,-2.01 -0.76,-0.67 -1.67,-1.33 -2.13,-2.16 -1.34,-1.67 -2.71,-3.15 -4.07,-4.64 -1.53,-1.33 -3.03,-2.68 -4.56,-3.84 -1.5,-1.33 -3.16,-2.66 -4.82,-3.83 -1.2,-1.17 -2.72,-2.01 -4.22,-2.65"/>
	<path d="m 349.62,454.46 c 1.65,1.17 3.61,2.19 5.29,3.52 1.66,0.98 3.33,2.14 4.82,3.47 1.54,1.18 3.02,2.5 4.55,3.51 1.51,1.32 3.17,2.67 4.71,4 1.49,1.31 2.85,2.83 4.22,4.16 1.36,1.31 3.02,2.64 4.83,3.63 0,0 0,0 0.18,0.2 4.52,1.31 8.91,0.97 12.7,-1.35 3.76,-2.33 6.63,-4.51 8.58,-6.64 -6.2,-0.36 -14.66,-3.18 -25.22,-8.67 -1.53,-0.83 -2.89,-1.49 -4.4,-2.31 -4.54,-2.68 -9.52,-5.5 -14.97,-8.86 -4.07,1.85 -6.8,2.85 -7.85,3.2 -0.61,0 -1.23,0.17 -1.82,0.31 1.5,0.49 3.02,1.01 4.38,1.83"/>
	<path style="fill:#000000;stroke:none;" d="m 211.9,379.25 c -1.35,1.67 -1.95,3.34 -1.83,4.83 1.37,1.67 2.9,1.99 4.84,0.84 0.46,-0.18 0.63,-0.5 0.93,-1 0.29,-1.16 0.45,-2.84 0.17,-4.67 -1.48,0.5 -2.87,0.5 -4.05,0 z"/>
	<path style="fill:#ffffff;stroke:none;" d="m 214.91,384.92 c -1.94,1.15 -3.47,0.83 -4.84,-0.84 0,0.99 0.32,1.99 0.92,2.99 1.53,0.49 3.5,0.82 5.58,0.49 1.83,-0.17 3.33,-1.17 4.7,-2.64 0.75,-1 1.21,-2.33 1.5,-3.84 -1.94,-0.35 -3.61,-1.17 -4.97,-2.49 -0.3,0.18 -0.59,0.35 -0.91,0.49 -0.46,0 -0.6,0.17 -0.91,0.17 0.31,1.83 0.18,3.51 -0.18,4.67 -0.29,0.5 -0.47,0.82 -0.92,1 z"/>
	<path d="m 271.92,451.13 c -1.51,-0.32 -2.58,-0.48 -3.48,-0.98 0.3,1.82 1.06,3.65 2.26,5.31 1.07,1.69 2.28,3.18 3.63,4.66 1.23,1.51 2.43,3.17 3.48,5 1.22,1.83 1.81,3.84 1.97,5.97 0.17,2.34 0,4.51 -0.61,6.68 -0.62,1.83 -1.52,2.99 -2.87,3.66 2.25,0.32 4.24,0.32 6.06,0 0.6,0 1.2,-0.52 1.67,-1 0.44,-0.33 0.59,-0.68 0.88,-1.19 0,-0.32 0.18,-0.64 0.32,-1.14 1.49,0.5 3.15,1.34 5.28,2.33 0.74,0.48 1.65,0.82 2.59,1.16 1.04,0.18 1.93,0.49 3.02,0.66 1.35,0 2.4,-0.17 3.15,-0.5 0.17,-0.64 0.45,-1.32 0.77,-2.15 0.28,-1 0.6,-1.83 0.74,-3 -1.51,0 -2.85,-0.84 -3.93,-2.49 -1.21,-1.83 -2.25,-3.34 -3.15,-4.81 1.79,0 3.62,0 5.27,-0.2 -1.65,-0.5 -3.01,-2 -4.37,-3.8 -1.06,-1.85 -1.5,-4.01 -0.9,-6.5 -0.46,-0.35 -0.91,-0.49 -1.21,-0.82 -1.98,-1.03 -3.79,-2.16 -5.59,-3.18 -1.1,-0.85 -2.28,-1.49 -3.34,-2.32 -0.6,0 -1.06,0 -1.66,0 -3.35,0 -6.51,-0.36 -9.98,-1.35"/>
	<path d="m 321.67,346.3 c -2.9,0.66 -5.93,1.33 -9.08,2.18 -2.88,0.65 -5.91,1.48 -8.76,2.64 -2.74,0.82 -5.45,2.02 -8.34,3.35 -2.57,0.98 -5.28,2.49 -8,4.16 -2.74,1.47 -5.45,3.32 -8.15,5.14 -2.44,1.83 -4.4,4.18 -5.62,7.01 -1.51,2.81 -1.51,5.81 -0.3,9.13 1.09,3 2.44,5.84 3.94,8.35 0.91,1.81 1.51,3.81 1.98,5.81 0.28,1.15 0,3.15 -0.63,5.8 -0.74,2.84 -2.85,4.35 -6.79,4.67 3.94,-0.32 6.05,-1.83 6.79,-4.67 0.63,-2.65 0.91,-4.65 0.63,-5.8 -0.17,1.33 -1.07,1.99 -2.88,1.99 -1.68,-0.18 -3.64,-1.17 -5.58,-3.01 -0.47,-0.98 -1.1,-1.81 -1.54,-2.82 -1.35,-1.35 -2.72,-2.67 -4.25,-3.84 -0.28,-0.17 -0.44,-0.32 -0.73,-0.48 -0.61,-0.33 -1.06,-0.67 -1.51,-0.67 -1.66,-0.82 -3.33,-1.66 -5.3,-2.48 -1.65,-0.83 -3.78,-1.2 -6.06,-1.02 0.61,-0.18 1.24,-0.66 1.68,-1.01 0.9,-1.16 1.36,-2.31 1.67,-3.46 -1.07,0.49 -3.35,0.49 -6.67,0 -4.99,-0.68 -8.14,-1.34 -9.98,-1.84 1.96,-0.66 2.74,-2.17 2.74,-4.65 -0.18,-2.51 -1.35,-3.85 -3.48,-4.35 0,0.66 -0.17,1.19 -0.33,1.66 -0.44,2 -1.65,3.19 -3.6,3.33 -1.94,0.18 -4.08,0.18 -6.2,0 -1.96,-0.18 -3.93,-0.34 -6.05,-0.34 -2.11,0 -4.06,0.2 -6.06,0.52 -2.12,0.18 -3.77,1.15 -5.26,2.65 -0.46,1 -0.62,1.84 -0.62,2.67 0,1 0.62,1.81 1.66,2.16 0.31,0.17 0.45,0.17 0.91,0.17 1.19,0.5 2.59,0.5 4.08,0 0.31,0 0.45,-0.17 0.91,-0.17 0.32,-0.17 0.61,-0.35 0.91,-0.49 0.44,-0.35 0.9,-0.67 1.22,-0.83 1.04,-0.84 2.25,-1.67 3.46,-2.01 -1.21,0.34 -2.42,1.17 -3.46,2.01 -0.32,0.18 -0.78,0.48 -1.22,0.83 1.36,1.32 3.03,2.14 4.97,2.49 h 0.78 c 1.81,0.48 3.77,0.35 5.89,0 0.9,-0.17 1.66,-0.35 2.41,-0.51 -0.75,0.18 -1.51,0.35 -2.41,0.51 -2.12,0.35 -4.08,0.48 -5.89,0 h -0.78 c -0.29,1.51 -0.75,2.84 -1.5,3.84 -1.37,1.47 -2.87,2.48 -4.7,2.64 -2.08,0.33 -4.05,0 -5.58,-0.49 0.31,0.33 0.45,0.49 0.76,0.99 2.26,2.7 3.02,6.83 2.12,12.15 1.67,1.32 3.34,2.67 4.83,4.01 1.51,1.49 3.18,2.51 4.85,3.49 1.96,0.82 3.92,1.33 5.89,1.83 1.98,0.31 3.93,0.81 5.59,1.84 0.89,0.31 1.21,1.15 1.21,2.66 v 1.16 c 1.67,-0.33 2.58,-1.51 2.26,-3.67 0.91,1.68 2.11,3.48 3.48,5.15 0.3,0.35 0.46,0.83 0.46,1.52 0.17,2.32 0,4.48 -0.46,6.32 -0.17,0.49 -0.29,1.17 -0.75,1.33 2.41,0.68 4.24,0.18 5.44,-1.18 0.18,-0.48 0.3,-0.98 0.46,-1.49 1.04,1.49 1.37,3.51 0.92,5.99 -0.48,2.16 -1.38,4 -2.89,5.51 1.81,0.5 3.64,0.84 5.74,0.5 0.59,-0.19 1.2,-0.7 1.96,-1.18 0.62,-0.83 1.37,-1.68 1.98,-2.83 0.17,2.83 0.59,4.99 1.22,7.16 0.57,1.84 1.49,3.49 2.69,4.83 1.38,1.32 2.74,2.5 3.95,3.82 1.37,1.16 2.39,2.02 3.31,2.34 0.46,0.18 1.22,0.49 2.43,0.83 0.9,0.5 1.97,0.66 3.48,0.98 3.47,0.99 6.63,1.35 9.98,1.35 h 1.66 c -0.46,-0.36 -0.9,-0.84 -1.38,-1.35 -1.5,-1.32 -2.84,-2.99 -3.77,-4.98 -1.05,-1.84 -1.8,-3.83 -2.55,-5.98 -0.75,-1.84 -1.08,-4.01 -1.08,-6.17 0,-2.34 0.78,-4.15 2.28,-5.34 -1.5,1.19 -2.28,3 -2.28,5.34 0,2.16 0.33,4.33 1.08,6.17 0.75,2.15 1.5,4.14 2.55,5.98 0.93,1.99 2.27,3.66 3.77,4.98 0.48,0.51 0.92,0.99 1.38,1.35 1.06,0.83 2.24,1.47 3.34,2.32 1.8,1.02 3.61,2.15 5.59,3.18 0.3,0.33 0.75,0.47 1.21,0.82 1.19,0.84 2.42,1.98 3.45,2.98 1.52,1.67 2.45,3.34 2.89,5.32 0.44,2.2 0.74,4.34 0.92,6.5 0,0.99 0,2 -0.18,3 -0.18,1.17 -0.46,2 -0.74,3 -0.32,0.83 -0.62,1.51 -0.77,2.15 -0.18,0.5 -0.3,0.68 -0.44,1.01 1.81,0.33 3.62,0.18 5.58,-0.33 l 0.18,-0.18 c 0.9,-0.17 1.65,-0.66 2.09,-1.34 1.5,1.34 3.35,1.85 5.46,1.99 1.34,0.19 2.4,0 3.77,-0.18 0.75,0 1.65,-0.33 2.42,-0.5 1.67,-0.66 4.22,0.31 7.57,2.83 -4.09,-5.49 -6.52,-8.48 -7.26,-9.17 -1.54,-1.33 -2.73,-2.8 -3.63,-4.31 -0.31,-0.32 -0.47,-0.84 -0.47,-1.48 1.83,0.82 3.65,1.32 5.9,1.16 h 3.64 c -1.37,-0.84 -2.87,-1.84 -4.52,-3.02 -1.85,-1.16 -2.9,-2.65 -3.35,-4.82 -0.18,-0.81 -0.47,-1.47 -0.76,-2.16 1.65,0 3.48,0.18 5.45,0 -1.52,-0.5 -2.87,-1.51 -4.24,-2.83 -1.51,-1.31 -2.71,-2.63 -3.79,-4.31 -1.18,-1.67 -1.78,-3.5 -1.78,-5.65 -0.17,-2.02 -0.17,-4.35 0,-6.5 v -2.34 2.34 c -0.17,2.15 -0.17,4.48 0,6.5 0,2.15 0.6,3.98 1.78,5.65 1.22,0.17 2.28,0.49 3.2,0.85 1.96,0.83 3.79,1.45 5.6,2.31 1.94,0.81 3.92,1.65 5.73,2.47 1.82,0 3.16,-0.32 4.24,-1.14 0.43,-0.32 0.91,-0.83 1.21,-1.33 0.29,-0.51 0.45,-1.19 0.61,-2.01 -2.29,0.53 -4.24,0.18 -5.91,-0.66 -1.81,-1 -3.47,-2 -5.14,-2.84 -1.81,-1.15 -4.22,-1.98 -7.26,-2.8 3.04,0.82 5.45,1.65 7.26,2.8 1.67,0.84 3.33,1.84 5.14,2.84 1.67,0.84 3.62,1.19 5.91,0.66 0.74,-0.16 1.79,-0.5 2.55,-0.66 0.77,-0.33 1.67,-0.68 2.44,-1.17 0.59,-0.35 1.19,-0.66 1.49,-0.83 -1.66,-0.18 -3.16,-0.66 -4.69,-1.15 -1.79,-0.84 -3.61,-1.86 -5.44,-2.49 -2.12,-0.86 -4.36,-2.01 -6.94,-3.33 2.58,1.32 4.82,2.47 6.94,3.33 1.83,0.63 3.65,1.65 5.44,2.49 1.53,0.49 3.03,0.99 4.69,1.15 0.17,0 0.31,0 0.6,0.17 h 0.3 c 1.53,0.17 3.03,0.17 4.4,-0.17 0.59,-0.18 1.21,-0.32 1.82,-0.32 1.05,-0.34 3.78,-1.33 7.85,-3.18 l 3.03,-1.16 c -4.09,-0.99 -11.79,-3.47 -18.46,-6.32 -4.23,-1.82 -7.54,-3.32 -9.81,-4.68 2.27,1.36 5.58,2.86 9.81,4.68 6.67,2.85 11.68,4.5 15.75,5.47 1.32,0.43 1.81,0.69 2.71,0.85 -1.08,0.32 -2.12,0.83 -3.03,1.16 5.45,3.34 10.43,6.16 14.97,8.85 1.66,0.33 3.47,0.33 5.12,0 2,-0.52 3.95,-1.19 5.77,-1.87 1.5,-0.48 2.87,-1.48 4.07,-2.65 0.76,-0.66 1.37,-1.49 1.96,-2.33 h -3.78 c -3.17,-0.33 -6.34,-0.81 -9.51,-1.32 -3.03,-0.68 -5.91,-1.68 -8.77,-3.18 -2.72,-1.32 -5.31,-2.65 -8.17,-3.65 -2.72,-1.17 -5.42,-2.49 -8.17,-3.82 -2.86,-1.34 -5.59,-2.82 -8.6,-4.17 -2.72,-1.35 -5.46,-2.5 -8.02,-3.49 -0.61,-0.18 -1.22,-0.5 -1.52,-0.5 -6.65,-3.49 -10.4,-6 -11.62,-7.5 -0.77,-1.16 -1.54,-1.99 -2.12,-3.14 -0.78,0 -1.37,0 -2.28,-0.18 -0.6,-0.18 -1.06,-0.18 -1.65,-0.18 -1.2,1.51 -2.88,2.67 -4.84,3.17 -0.77,0 -1.36,0 -1.97,0.18 -0.29,2.16 -1.65,3.49 -3.79,4.32 -1.95,0.66 -3.9,1.34 -5.87,1.84 -1.98,0.49 -4.1,0.65 -6.2,0.65 -1.54,-0.18 -2.9,-0.32 -3.94,-0.32 1.04,0 2.4,0.18 3.94,0.32 2.1,0 4.22,-0.18 6.2,-0.65 1.97,-0.5 3.92,-1.18 5.87,-1.84 2.14,-0.83 3.5,-2.16 3.79,-4.32 -1.51,0.33 -2.86,0.33 -4.39,0.33 -2.12,0 -4.07,-0.18 -6.04,-0.82 l -5.87,-1.51 5.87,1.51 c 1.97,0.64 3.92,0.82 6.04,0.82 1.53,0 2.88,0 4.39,-0.33 0.61,-0.18 1.2,-0.18 1.97,-0.18 1.96,-0.5 3.64,-1.66 4.84,-3.17 -2.29,-0.66 -4.53,-1.65 -6.65,-3.13 -1.53,-1.03 -2.58,-1.86 -3.19,-2.84 -3.33,0 -6.49,0 -9.51,-0.49 -0.61,-0.18 -1.08,-0.18 -1.67,-0.18 0.59,0 1.06,0 1.67,0.18 3.02,0.49 6.18,0.49 9.51,0.49 2.88,0.84 5.43,-0.35 7.41,-2.98 1.37,-1.84 2.14,-3.67 2.26,-5.34 0.17,-1.34 0.17,-2.52 -0.28,-3.84 -0.75,0.18 -1.51,0.35 -2.29,0.5 -3.17,0.34 -6.33,0.34 -9.37,-0.32 -1.81,0.83 -3.46,1.47 -5.59,2.16 -1.97,0.64 -3.93,0.64 -5.87,0.64 1.94,0 3.9,0 5.87,-0.64 2.13,-0.69 3.78,-1.33 5.59,-2.16 0.77,-0.52 1.51,-1.01 2.27,-1.34 2.74,-1.99 4.09,-4.83 3.93,-8.31 -0.9,0.18 -1.81,0.18 -2.85,0.18 -3.05,0 -5.9,-0.18 -8.34,-0.65 2.44,0.51 5.29,0.65 8.34,0.65 1.04,0 1.95,0 2.85,-0.18 0.91,-0.33 1.81,-0.51 2.72,-0.68 1.23,-0.49 2.13,-1.17 3.19,-1.82 2.56,-1.51 4.97,-3.34 7.56,-5.49 0.75,-0.49 1.36,-1 1.94,-1.65 1.38,-1.84 1.81,-3.69 1.38,-5.69 0.43,2 0,3.85 -1.38,5.69 4.09,0.48 6.68,0.65 7.43,0.65 2.72,0.18 5.43,0 8.16,-0.5 0.3,0 1.36,-0.51 3.34,-1.68 1.96,-0.97 4.36,-2.5 6.95,-4.16 0.17,-0.17 0.29,-0.33 0.6,-0.48 1.2,-2.34 0.6,-3.67 -1.97,-4.17 -1.82,-0.33 -3.48,-0.51 -4.99,-0.66 -0.77,-0.17 -1.36,-0.17 -2.13,0 -2.25,0 -3.47,0 -4.07,-0.17 h -0.18 c -0.59,0 -1.34,-0.2 -1.95,-0.2 h -2.42 c -0.32,0.2 -0.75,0.2 -1.2,0.2 h -1.22 c -0.3,0 -0.61,0 -0.77,0.17 -0.17,0.17 -0.45,0.33 -0.59,0.5 -1.51,1.32 -2.88,2.5 -4.39,3.5 -1.04,0.83 -2.11,1.51 -3.15,2.15 -2.9,1.65 -5.78,2.66 -8.63,2.82 -2.44,0 -4.99,0 -7.56,0.19 2.57,-0.19 5.12,-0.19 7.56,-0.19 2.85,-0.17 5.73,-1.17 8.63,-2.82 1.04,-0.64 2.11,-1.32 3.15,-2.15 1.51,-1 2.88,-2.18 4.39,-3.5 0.18,-0.17 0.46,-0.35 0.59,-0.5 0.18,-0.17 0.47,-0.49 0.63,-0.83 1.65,-2.17 1.95,-4.51 1.2,-7.49 -0.17,0.17 -0.29,0.33 -0.45,0.33 -2.57,1.98 -5.45,3.49 -8.47,4.32 -3.03,0.83 -6.06,1.19 -9.07,1.32 h -3.34 3.34 c 3.01,-0.17 6.04,-0.49 9.07,-1.32 3.02,-0.83 5.9,-2.34 8.47,-4.32 0.17,0 0.3,-0.18 0.45,-0.33 1.66,-1.5 3.94,-2.99 6.79,-4.67 -2.85,1.68 -5.13,3.17 -6.79,4.67 0.75,2.98 0.45,5.32 -1.2,7.49 l 0.17,0.68 h 1.22 c 0.44,0 0.89,0 1.21,-0.2 h 2.42 c 0.61,0 1.35,0.2 2.11,0.2 2.11,-0.34 4.23,-0.53 6.35,-0.53 1.95,-0.17 3.77,-0.82 5.59,-1.8 1.66,-1.19 3.17,-2.19 4.68,-3.2 0.76,-0.63 1.36,-1.33 2.26,-1.81 0,-0.18 0.32,-0.5 0.62,-0.5 2.85,-2.84 2.71,-4.52 -0.45,-5 -3.2,-0.5 -6.07,-0.5 -8.77,-0.5 -2.88,0.18 -5.29,0.18 -7.24,0 h -1.53 c 1.53,-0.98 3.48,-2.48 6.2,-4.82 -11.34,-1.52 -18.58,-1.52 -21.91,-0.16 3.33,-1.36 10.57,-1.36 21.91,0.16 -0.18,-1.01 8.14,-1.66 24.62,-2.16 h 2.58 c 1.22,-0.17 2.29,-0.34 3.66,-0.34 0.59,0 1.34,0 1.94,-0.18 3.03,-0.35 6.05,-0.85 9.23,-1.51 2.71,-0.66 5.29,-1.67 7.54,-3.33 1.97,-1.5 3.49,-3.5 4.56,-6.32 h -3.33 -9.54 c -3.16,-0.17 -6.34,0 -9.38,0.33 -3.01,0 -6.01,0.33 -8.91,0.51 -2.87,0 -5.73,0.32 -8.76,0.66 -2.87,0.34 -5.73,0.67 -8.62,1.17 h -0.18 c -3.03,0.34 -6.06,0.83 -8.91,1.18 -3.17,0.48 -6.2,0.97 -9.39,1.31 -2.87,0.34 -5.59,0.99 -8.6,1.5"/>
	<path d="m 211.9,379.25 c -0.46,0 -0.6,0 -0.91,-0.17 -1.04,-0.35 -1.66,-1.16 -1.66,-2.16 -13.15,-1.17 -23.57,2.83 -31.44,11.96 12.86,-1.15 23.28,1.02 30.99,6.01 -3.47,0.67 -23.7,1.91 -28.07,2.39 0.62,1.02 17.47,1.76 17.79,3.1 5.43,0.52 10.57,0.52 15.27,-0.17 0.9,-5.32 0.18,-9.45 -2.12,-12.15 -0.31,-0.5 -0.45,-0.66 -0.76,-0.99 -0.6,-1 -0.92,-2 -0.92,-2.99 -0.18,-1.49 0.48,-3.16 1.83,-4.83"/>
</g>
<use xlink:href="#crow" transform="translate(-150,-275)"/>
<use xlink:href="#crow" transform="translate(150,-275)"/>
<use id="shine" xlink:href="#shield" fill="url(#rg)" stroke="#000" stroke-width="3"/>
</svg>
