<?xml version="1.0" encoding="UTF-8"?>
<svg xmlns="http://www.w3.org/2000/svg" xmlns:xlink="http://www.w3.org/1999/xlink" width="600" height="600">
<defs>
  <radialGradient id="rg" gradientUnits="userSpaceOnUse" cx="220" cy="220" r="405">
    <stop style="stop-color:#fff;stop-opacity:.3" offset="0"/>
    <stop style="stop-color:#fff;stop-opacity:.2" offset=".2"/>
    <stop style="stop-color:#666;stop-opacity:.1" offset=".6"/>
    <stop style="stop-color:#000;stop-opacity:.13" offset="1"/>
  </radialGradient>
  <circle id="shield" cx="300" cy="300" r="298"/>
</defs>
<use id="background" xlink:href="#shield" fill="#dddddd"/>
<g id="falcon" style="fill:#0000dd;stroke:#000033;stroke-width:1;stroke-linejoin:round;stroke-linecap:round;">
  <g id="beak">
    <path style="fill:#0055ff" d="m 179.3,159.7 c -5.5,-10.7 -19.3,-15.9 -30.3,-14.7 -9.7,1 -4.2,-6.2 -4.2,-10.3 l 49.7,1.4 z"/>
    <path style="fill:#0055ff" d="m 142.1,152.6 c -8.3,-11.4 -5.6,-24.5 16.5,-36.4 l 35.9,4.2 -9.7,26.3 c -9.6,-5.4 -16.5,-13.4 -34.5,-9.5 -11,2.3 -6.9,9.9 -8.2,15.4 z"/>
    <path style="fill:#000088" d="m 158.6,126.4 c 1.4,-0.5 2.8,-0.5 2.8,0.2 1.3,1.2 2.7,2.7 2.7,4.2 -2.7,0.2 -4.1,0.2 -5.5,-0.4 -1.4,-0.5 -2.8,-2.5 0,-4 z"/>
  </g>
  <g id="right-talon">
    <path style="fill:#0055ff;" d="m 260.4,410.7 -10.6,52.4 c -2.1,8.4 -13,10.2 -21.2,11.2 -5.5,0.9 -9.7,0.1 -14.1,-1 l -8.8,-4.2 -2.2,6.8 c 0.8,3.9 -0.1,5.1 11.8,4.5 -5.9,0.5 -14.1,0.3 -14.8,3.4 l -0.2,7.5 c 3.6,1.3 6.3,1.2 7.3,-2.5 5.6,0 10.9,-3 14.9,-5.4 1.3,-0.7 5.4,-1.5 4.3,1.8 l -2.4,4.2 2,7.1 c 5.8,3.1 6.7,-2.4 7.7,-6.5 7.2,2.7 9.4,-3.3 14.6,-7.8 3.8,-3.4 7.7,-6.5 13.4,-4.5 l 10.2,5.9 c 2.8,0.3 5.7,1.2 7.8,-5.5 l -2,-7.2 h -11 c -1.4,-0.2 -2.9,-1 -2.2,-9.1 l 4.4,-44.4 z"/>
    <path d="m 190.3,495.9 c 2.8,-3.6 3,-5.4 10,-4.6 0.8,-1.8 2.2,-3.3 0.2,-7.5 -15.4,-0.3 -11.4,7.1 -10.2,12.1 z"/>
    <path d="m 205.7,469.1 c 1.1,2.9 0,5.1 -2.2,6.8 -1.5,-1.7 -4.9,-0.5 -9.2,1.9 -0.6,-5.2 5.7,-12.4 11.4,-8.7 z"/>
    <path d="m 224.4,489.4 c 2.9,1.9 3.1,4.2 2,7.1 -5.6,-0.1 -6.6,3.5 -8.3,6.4 -3.7,-5.3 -5.7,-13 6.3,-13.5 z"/>
    <path d="m 278.1,470.9 c 6.6,-4.3 11.5,4.9 10.7,10.8 -4.5,-4.1 -7.4,-5 -8.7,-3.6 -2.9,-2 -3.1,-4.6 -2,-7.2 z"/>
  </g>
  <g id="left-talon">
    <path style="fill:#0055ff;" d="m 291.4,422.1 -6.9,52 c -1.4,8.4 -13.8,9 -22.1,9.3 -5.5,0.4 -9.6,-0.7 -13.9,-2.2 l -8.4,-5 -2.8,6.6 c 0.4,4 -0.1,5.7 12,4.7 -3.3,1.2 -16.4,0 -15.7,2.9 l -0.8,7.4 c 3.4,1.7 6.2,1.8 7.4,-1.7 5.7,0.4 11.2,-2.1 15.3,-4.2 1.4,-0.5 5.5,-0.9 4.2,2.2 l -2.8,4 1.4,7.2 c 5.5,3.6 6.9,-1.8 8.2,-5.8 6.9,3.3 9.7,-2.5 15.2,-6.5 4.2,-3 8.3,-5.8 13.8,-3.3 l 9.7,6.8 c 2.7,0.5 5.5,1.6 8.2,-4.9 l -1.3,-7.3 -11.1,-0.9 c -1.4,-0.3 -1.4,-1 -1.4,-9.3 v -44.5 z"/>
    <path d="m 222.6,502.3 c 3,-3.3 3.3,-5.8 10.2,-4.5 0.9,-2 2.2,-3.9 0.8,-7.4 -15.3,-1.7 -11.9,6.8 -11,11.9 z"/>
    <path d="m 240.1,476.2 c 0.9,5.4 -1.4,5.2 -2.8,6.6 -1.4,-1.8 -4.8,-0.9 -9.4,1.1 -0.1,-5.2 4.2,-11.8 12.2,-7.7 z"/>
    <path d="m 256.9,498.4 c 2.8,1.9 1.4,4.7 1.4,7.3 -6.9,-2.1 -6.9,2.8 -8.9,5.5 -3.1,-5.5 -4.5,-13.4 7.5,-12.8 z"/>
    <path d="m 312.1,484.3 c 6.9,-3.7 11,6 9.6,11.8 -4.1,-4.6 -6.9,-5.7 -8.3,-4.5 -1.3,-1.9 -2.7,-4.1 -1.3,-7.3 z"/>
  </g>
  <path id="right-leg" d="m 220.7,325.3 8.2,33.8 c 1.4,6.2 0,12.9 5.5,18 11.1,15.9 6.9,31.9 8.3,47.7 l 4.2,-21.1 c 1.3,-0.1 0,29.1 -5.6,42.2 9.7,-6.4 17.1,-25.7 18,-28.1 -1.8,10.6 2.7,20.4 6.9,30.6 2.7,-6.7 4.1,-13.6 1.3,-20.5 6.9,6 9.7,16.8 12.5,28.1 4.1,-8.7 11,-17.4 11,-26 l -2.8,-70.9 z"/>
  <g id="tail">
    <path d="m 322,392.2 c 23.4,32.7 46.8,67.7 73,111.6 5.6,8.9 18,-3.2 15.2,-12.6 12.4,9.3 26.2,11.9 31.7,1.1 6.9,4 27.6,14 29,-7.1 12.4,9.6 41.4,6.9 22,-7.6 -52.4,-39.9 -110.3,-73.5 -150.3,-123.6 z"/>
    <path style="fill:none;" d="m 410.2,491.2 -56.5,-78.2 m 88.2,79.3 -71.7,-77.2 m 100.7,70.1 -82.8,-66.5" />
  </g>
  <path id="body" d="m 173.8,190.8 c -4.2,11.1 -8.3,22 -9.7,32.9 l 1.4,4.9 c -1.4,54.8 23.4,68 31.7,93.8 l -2.7,-24.1 c 1.3,32.5 23.4,28.6 42.7,63.3 0,-7.6 -5.5,-15.2 -9.6,-22.8 12.4,23.4 30.3,36.7 42.7,49 l -1.4,-12 c 5.5,12.8 0,34.3 6.9,47.5 -1.4,-17.6 1.4,-34.4 2.8,-51.1 l -2.8,64 8.3,-17.8 -6.9,37.6 c 6.9,-4.4 10.9,-12.2 16.5,-26.3 -4.4,12.6 0,17.9 1.4,26.3 4.2,-5.6 4.2,-11.3 4.2,-16.9 8.2,8 15.1,16.1 13.8,26.8 6.8,-18.8 5.5,-40.1 8.2,-60.4 l 6.9,0.6 c -1.4,-3.9 -5.5,-8 -2.7,-11.6 5.5,-9.2 15.1,-16 16.5,-28.7 l -106.2,-184.2 z"/>
  <g id="wing">
    <path d="m 242.4,184.3 c -13.3,13.9 -12.3,22.7 -19.9,30.6 -11.6,11.8 -15.4,27.8 -11.6,41.6 4.3,15.3 9.7,30.1 34.2,51.6 13.4,11.4 31.3,24.7 57.5,41 5.6,3.5 6.9,1.3 9.7,-1.3 2.8,4.8 5.5,7.3 12.4,10.1 40,16 64.8,29.2 95.2,36.9 8.2,2.1 11,3.5 15.1,5 8.3,3.3 16.6,4.3 23.5,3 6.9,-1.3 5.5,-2.9 6.9,-5.5 11,4.7 22,5.4 31.7,4.3 8.3,-1.1 2.7,-4.6 1.4,-6.8 -9.7,-9.6 -22.1,-18.4 -34.5,-26.2 -46.9,-30.3 -80,-59.9 -115.8,-89.7 -2.8,-2.7 -4.2,-6 -8.3,-7.6 -1.4,-2.1 1.4,-2.8 -5.5,-7.1 -9.7,-11.7 -23.5,-21.7 -35.9,-32.4 -5.5,-2.3 -8.3,-4.6 -9.6,-7.1 -5.6,-6 -12.5,-10.2 -18,-15.1 -2.7,-2.4 -5.5,-5.5 -12.4,-5.8 -5.5,-5.6 -13.4,-8.2 -16.1,-19.5 z"/>
    <path style="fill:none;" d="m 312.3,312.8 c 15.2,10.3 34.5,26.5 57.9,39 4.2,2.5 11,2.8 16.6,-0.7 v -8.1 c 0,-5.4 -2.8,-9.8 -8.3,-13.1 -16.6,-12.6 -45.5,-24.7 -57.9,-37 m 144.8,104.4 c -9.7,-4 -19.3,-8.9 -29,-14.5 -16.5,-10 -33.1,-21.7 -49.6,-31.7 m -81.4,-19.8 c 31.7,17.2 71.7,42 107.6,51 6.9,1.6 20.6,5.9 23.4,0.5 m -131,-51.5 c -4.1,-4.3 -8.3,-8.2 -15.2,-13.1 -13.8,-9.1 -15.1,-10.7 -22,-20 m 44.1,14.6 c -5.5,-5 -8.3,-7.2 -12.4,-10.9 -5.5,-3.6 -8.3,-4 -11,-6.9 -2.8,-3.2 -5.6,-8.1 -11.1,-12.3 m 42.8,10.2 c -4.2,-2.7 -5.5,-5.3 -8.3,-7.7 -1.4,-1.5 -5.5,-3.2 -11,-6.9 -6.9,-5 -9.7,-9.4 -13.8,-14.1 m 44.1,14.9 c 0,0 -9.6,-11.3 -13.8,-15.3 -1.4,-0.8 -2.7,-1.2 -4.1,-2.2 -4.2,-6 -13.8,-14 -15.2,-14.5 m 2.8,100.6 v 0 c 12.4,7.7 19.3,-6.5 4.1,-16.4 5.5,1.9 24.8,-2.4 6.9,-18.5 11,3.7 22.1,-0.4 8.3,-19.9 8.2,2.8 22,0.2 11,-13.8 12.4,4.6 11,-5.6 2.8,-14.9 m -83.3,34 c -7.1,-8.9 -13.3,-14.2 -21.4,-27.2 m 28.8,15.9 c -10.3,-9.4 -16.3,-19.6 -22.3,-29.7 m 30.6,18.6 c -8.3,-8.7 -15.9,-18.7 -22.6,-28.9 m 29.5,14.7 c -2.8,-0.7 -22.9,-25.2 -23.6,-26.2 m 27.7,11.5 c -5.5,-7.3 -15.1,-12.2 -23.4,-22.1 m 30.3,10.6 c -12.4,-7.6 -13.8,-16 -28.9,-26.2 m -10.7,98.9 c 5.3,3.9 14.8,5.9 6,-9.9 4.7,4.4 17.1,8.4 7.4,-11.3 8.3,8.8 16.6,4.7 8.3,-11.1 13.8,8.4 9.6,-5.6 6.9,-14.2 9.6,5.4 13.8,-0.4 4.1,-14.7 8.3,3.8 20.7,3.7 6.9,-11.5 6.9,5.3 12.4,0.9 4.2,-10.7" />
  </g>
  <g id="hood" style="fill:#000088;">
    <path d="m 193.1,99.66 c 0,-10.2 -5.5,-17.79 -20.7,-22.2 23.5,-5.1 22.1,8.55 22.1,8.55 0,0 1.4,-26.34 4.1,-26.2 1.4,0.14 5.5,26.61 5.5,26.61 0,0 0,-16.13 23.5,-8.96 -20.7,3.17 -23.5,22.2 -23.5,22.2 z"/>
    <path d="m 171,183.2 c -1.4,9.8 0,15.6 12.4,14.5 19.3,-1.8 38.6,-0.8 57.9,-8.1 11.1,-3.7 11.1,-9.5 8.3,-19.5 -2.7,-16.9 -4.1,-34.8 -12.4,-50.7 -4.1,-9.4 -11,-17.1 -26.2,-20 -13.8,-2.2 -26.2,0.14 -38.6,3.6 -8.3,2.2 -13.8,5.5 -13.8,13.2 42.8,20 17.9,44.8 12.4,67 z"/>
  </g>
</g>
<use id="shine" xlink:href="#shield" fill="url(#rg)" stroke="#000" stroke-width="3"/>
</svg>
