<svg xmlns="http://www.w3.org/2000/svg" width="600" height="660" xmlns:xlink="http://www.w3.org/1999/xlink">
<defs>
  <radialGradient id="rg" gradientUnits="userSpaceOnUse" cx="220" cy="220" r="405">
    <stop style="stop-color:#fff;stop-opacity:.3" offset="0" />
    <stop style="stop-color:#fff;stop-opacity:.2" offset="0.2" />
    <stop style="stop-color:#666;stop-opacity:.1" offset="0.6" />
    <stop style="stop-color:#000;stop-opacity:.13" offset="1" />
  </radialGradient>
  <path id="shield" d="m 2 2 v 257 c 0 286 298 398 298 398 c 0 0 298 -112 298 -398 V 2 Z" />
</defs>
<use id="shine" fill="#fff" xlink:href="#shield" />
<path fill="#c00" d="M 2 2 L 2 259 C 2 545 300 657 300 657 C 300 657 598 545 598 259 L 598 2 L 2 2 Z M 75 75 L 125 75 L 125 100 L 175 100 L 175 75 L 225 75 L 225 100 L 275 100 L 275 75 L 325 75 L 325 100 L 375 100 L 375 75 L 425 75 L 425 100 L 475 100 L 475 75 L 525 75 L 525 125 L 500 125 L 500 181 L 525 181 L 525 237 L 500 237 L 500 258.834 L 499.969 263.18 L 499.969 263.242 L 499.893 267.029 L 499.756 271.137 L 499.57 275.064 L 499.326 279.111 L 499.041 282.969 L 498.707 286.797 L 498.34 290.426 L 523.215 292.938 C 521.157 312.261 517.381 330.525 512.221 347.766 L 488.242 340.697 L 488.125 341.094 L 485.971 347.912 L 483.674 354.588 L 481.244 361.102 L 478.662 367.533 L 475.961 373.809 L 473.133 379.969 L 470.164 386.049 L 469.088 388.129 L 491.289 399.621 C 482.535 416.668 472.474 432.45 461.57 447.006 L 441.643 431.91 L 438.535 436.012 L 434.641 440.953 L 430.564 445.932 L 426.496 450.719 L 422.242 455.545 L 418.064 460.121 L 413.82 464.617 L 409.508 469.033 L 407.141 471.383 L 424.75 489.129 C 410.861 502.89 396.552 515.113 382.529 525.861 L 367.307 506.029 L 365.291 507.576 L 365.215 507.635 L 360.945 510.826 L 356.531 514.049 L 352.324 517.045 L 352.242 517.102 L 347.854 520.152 L 347.785 520.199 L 343.746 522.941 L 343.695 522.975 L 339.529 525.74 L 339.488 525.768 L 335.367 528.439 L 335.324 528.467 L 331.234 531.059 L 323.166 536.008 L 336.238 557.32 C 322.425 565.619 310.009 572.186 300 577.109 C 289.991 572.186 277.575 565.619 263.762 557.32 L 276.834 536.008 L 268.766 531.059 L 264.676 528.467 L 264.633 528.439 L 260.512 525.768 L 260.471 525.74 L 256.305 522.975 L 256.254 522.941 L 252.215 520.199 L 252.146 520.152 L 247.758 517.102 L 247.676 517.045 L 243.469 514.049 L 239.055 510.826 L 234.785 507.635 L 234.709 507.576 L 232.693 506.029 L 217.471 525.861 C 203.448 515.113 189.139 502.89 175.25 489.129 L 192.859 471.383 L 190.492 469.033 L 186.18 464.617 L 181.936 460.121 L 177.758 455.545 L 173.504 450.719 L 169.436 445.932 L 165.359 440.953 L 161.465 436.012 L 158.357 431.91 L 138.43 447.006 C 127.526 432.45 117.465 416.668 108.711 399.621 L 130.912 388.129 L 129.836 386.049 L 126.867 379.969 L 124.039 373.809 L 121.338 367.533 L 118.756 361.102 L 116.326 354.588 L 114.029 347.912 L 111.875 341.094 L 111.758 340.697 L 87.7793 347.766 C 82.6189 330.525 78.8427 312.261 76.7852 292.938 L 101.658 290.426 L 101.291 286.797 L 100.957 282.969 L 100.672 279.111 L 100.428 275.064 L 100.242 271.137 L 100.105 267.029 L 100.029 263.242 L 100.029 263.18 L 100 258.834 L 100 237 L 75 237 L 75 181 L 100 181 L 100 125 L 75 125 L 75 75 Z" />
<path fill="#c00" d="M 150 150 L 150 259 C 150 381.457 240.129 455.92 300 491.979 C 359.871 455.92 450 381.457 450 259 L 450 150 L 150 150 Z" />
<g id="rose" transform="translate(300 300) scale(0.8)">
	<g transform="rotate(36)">
		<path id="leaf" fill="#900" d="m 0 0 c -15 18 -24 43 -24 72 c 0 29 9 54 24 72 c 15 -18 24 -43 24 -72 c 0 -29 -9 -54 -24 -72 Z" />
		<use transform="rotate(72)" xlink:href="#leaf" />
		<use transform="rotate(144)" xlink:href="#leaf" />
		<use transform="rotate(216)" xlink:href="#leaf" />
		<use transform="rotate(288)" xlink:href="#leaf" />
		<g id="petals">
			<g id="g1">
				<path style="fill:#fff;stroke:#000;stroke-width:0.2" d="M 0 -115 C -53 -115 -59.73 -86.15 -52 -75 L 0 0 L 52 -75 C 59.73 -86.15 53 -115 0 -115 Z" />
				<path fill="#333" d="m 0 -100 c 14 0 24 -4 32 -2 c 17 4 18 14 18 21 c 0 -8 -1 -18 -18 -22 c -8 -2 -18 1 -32 1 c -14 0 -24 -3 -32 -1 c -17 4 -18 14 -18 22 c 0 -7 1 -17 18 -21 c 8 -2 18 2 32 2 Z" />
				<path fill="#aaa" d="M 0 -99 C 14 -99 24 -103 32 -101 C 49 -97 50 -86 50 -79 C 50 -85 49 -94 32 -98 C 24 -100 14 -92 0 -92 C -14 -92 -24 -100 -32 -98 C -49 -94 -50 -85 -50 -79 C -50 -86 -49 -97 -32 -101 C -24 -103 -14 -99 0 -99 Z" />
				<path fill="#333" d="M 0 -84 L -6 -68 C 0 -72 0 -72 6 -68 Z" />
				<path fill="#aaa" d="M -5 -63 C -5 -65 -3 -67 0 -67 C 3 -67 5 -65 5 -63 C 5 -60 2 -56 0 -53 C -2 -56 -5 -60 -5 -63 Z" />
			</g>
			<use transform="rotate(72)" xlink:href="#g1" />
			<use transform="rotate(144)" xlink:href="#g1" />
			<use transform="rotate(216)" xlink:href="#g1" />
			<use transform="rotate(288)" xlink:href="#g1" />
		</g>
		<use transform="rotate(36) scale(0.55)" xlink:href="#petals" />
		<circle style="fill:#ddd;stroke:#330;stroke-width:1.5;stroke-opacity:0.4" r="20" />
		<circle style="fill:#eee;stroke:#330;stroke-width:1.5;stroke-opacity:0.4" r="10" />
		<g id="g2" style="fill:#eee;stroke:#330;stroke-width:1.25;stroke-opacity:0.4">
			<circle cy="25" r="4" />
			<circle cy="-25" r="4" />
		</g>
		<use transform="rotate(20)" xlink:href="#g2" />
		<use transform="rotate(40)" xlink:href="#g2" />
		<use transform="rotate(60)" xlink:href="#g2" />
		<use transform="rotate(80)" xlink:href="#g2" />
		<use transform="rotate(100)" xlink:href="#g2" />
		<use transform="rotate(120)" xlink:href="#g2" />
		<use transform="rotate(140)" xlink:href="#g2" />
		<use transform="rotate(160)" xlink:href="#g2" />
	</g>
</g>
<use id="shine" fill="url(#rg)" stroke="#000" stroke-width="3" xlink:href="#shield" />
</svg>