<?xml version="1.0" encoding="UTF-8"?>
<svg xmlns="http://www.w3.org/2000/svg" xmlns:xlink="http://www.w3.org/1999/xlink" width="600" height="660">
<defs>
  <radialGradient id="rg" gradientUnits="userSpaceOnUse" cx="220" cy="220" r="405">
    <stop style="stop-color:#fff;stop-opacity:.3" offset="0"/>
    <stop style="stop-color:#fff;stop-opacity:.2" offset=".2"/>
    <stop style="stop-color:#666;stop-opacity:.1" offset=".6"/>
    <stop style="stop-color:#000;stop-opacity:.13" offset="1"/>
  </radialGradient>
  <path id="shield" d="m2,2v257c0,286 298,398 298,398c0,0 298-112 298-398V2z"/>
</defs>
<use id="background" xlink:href="#shield" fill="#fff"/>
<path id="tressure" fill="#841" d="M 50 50 L 50 259 C 50 473.57263 241.96889 578.02974 300 604.73828 C 358.03111 578.02974 550 473.57263 550 259 L 550 50 L 50 50 z M 66.666016 66.666016 L 533.33398 66.666016 L 533.33398 259 C 533.33398 361.31605 487.98051 436.54263 434.86914 490.64258 C 385.64053 540.7875 330.09422 571.75317 300 586.25586 C 269.90578 571.75317 214.35947 540.7875 165.13086 490.64258 C 112.01949 436.54263 66.666016 361.31605 66.666016 259 L 66.666016 66.666016 z M 83.333984 83.333984 L 83.333984 100 L 83.333984 259 C 83.333984 346.23359 119.24674 414.48395 163.07031 464.31055 C 206.89389 514.13714 258.52915 546.22796 292.26172 563.91406 L 300 567.97266 L 307.73828 563.91406 C 341.47085 546.22796 393.10611 514.13714 436.92969 464.31055 C 480.75326 414.48395 516.66602 346.23359 516.66602 259 L 516.66602 83.333984 L 83.333984 83.333984 z M 100 100 L 500 100 L 500 259 C 500 424.40588 365.1074 515.01826 300 549.1543 C 234.8926 515.01826 100 424.40588 100 259 L 100 100 z"/>
<path id="tressure" fill="#841" d="m 173.08835,264.05163 c 6.96086,-2.79355 13.91305,-5.63913 21.78426,-2.97058 -8.34207,-12.69794 -9.69175,-33.78677 -13.86271,-51.49005 -3.98972,17.47894 -9.2479,34.32365 -7.92155,54.46063 z m 48.25434,-60.3132 c 9.6581,-4.65119 16.73122,-3.89739 22.77445,-0.9902 -5.13811,-15.27825 -8.72041,-31.5937 -9.90193,-49.50967 -6.3173,14.80683 -10.84338,31.40488 -12.87252,50.49987 z m 185.66126,40.47415 c 7.62427,-2.14319 14.81868,0.0121 21.78426,4.45587 1.41533,-15.95611 1.18631,-32.24108 -3.96078,-49.50967 -4.22164,14.15818 -3.90173,26.04557 -17.82348,45.0538 z M 354.56006,202.7005 c 10.79498,-2.99669 15.96181,0.61366 22.19019,2.97781 0.49101,-18.3783 -2.65485,-36.42584 -9.42523,-54.14372 -2.27238,18.38742 -4.26328,36.96396 -12.76496,51.16591 z m -57.46757,-68.52316 c -5.12038,15.17859 -9.6841,30.91384 -10.89214,50.00477 8.80113,-4.35359 16.09146,-3.51664 23.26955,-0.99019 -1.52797,-16.9377 -6.60487,-33.05641 -12.37741,-49.01458 z m -83.39094,164.82551 a 34.658538,21.508018 79.025022 0 1 -14.51634,38.11935 34.658538,21.508018 79.025022 0 1 -27.71296,-29.92995 34.658538,21.508018 79.025022 0 1 14.51635,-38.11935 34.658538,21.508018 79.025022 0 1 27.71295,29.92995 z m 45.02658,-54.92275 a 36.759055,20.758209 83.628886 0 1 -16.55094,38.83553 36.759055,20.758209 83.628886 0 1 -24.70908,-34.22854 36.759055,20.758209 83.628886 0 1 16.55093,-38.83553 36.759055,20.758209 83.628886 0 1 24.70909,34.22854 z m 165.93933,52.66228 a 21.553935,37.459226 16.850435 0 1 -31.48698,29.60297 21.553935,37.459226 16.850435 0 1 -9.77005,-42.09884 21.553935,37.459226 16.850435 0 1 31.48698,-29.60297 21.553935,37.459226 16.850435 0 1 9.77005,42.09884 z m -46.18784,-46.49119 a 21.35526,37.459226 10.434286 0 1 -27.78627,32.97217 21.35526,37.459226 10.434286 0 1 -14.21796,-40.70737 21.35526,37.459226 10.434286 0 1 27.78627,-32.97218 21.35526,37.459226 10.434286 0 1 14.21796,40.70738 z m -57.06099,-24.87277 a 23.105691,36.058884 0 0 1 -23.10569,36.05889 23.105691,36.058884 0 0 1 -23.10569,-36.05889 23.105691,36.058884 0 0 1 23.10569,-36.05888 23.105691,36.058884 0 0 1 23.10569,36.05888 z m -26.49703,51.04459 c 54.60595,2.1704 41.61682,27.87017 63.59202,48.44911 17.4063,16.30034 63.31791,12.18252 55.23119,60.47217 -4.62057,27.59155 -45.07515,42.22085 -69.41307,28.42559 -40.74741,-23.09653 -56.24423,-17.47775 -90.99826,-2.68056 -21.46515,9.13919 -58.95995,6.70348 -67.57342,-22.00391 -8.1694,-27.2274 23.82065,-33.29146 41.36847,-51.22918 18.79102,-19.20855 13.0493,-63.6091 67.79307,-61.43322 z"/>
<use id="shine" xlink:href="#shield" fill="url(#rg)" stroke="#000" stroke-width="3"/>
</svg>