<?xml version="1.0" encoding="UTF-8"?>
<svg xmlns="http://www.w3.org/2000/svg" xmlns:xlink="http://www.w3.org/1999/xlink" width="600" height="660">
<defs>
  <radialGradient id="rg" gradientUnits="userSpaceOnUse" cx="220" cy="220" r="405">
    <stop style="stop-color:#fff;stop-opacity:.3" offset="0"/>
    <stop style="stop-color:#fff;stop-opacity:.2" offset=".2"/>
    <stop style="stop-color:#666;stop-opacity:.1" offset=".6"/>
    <stop style="stop-color:#000;stop-opacity:.13" offset="1"/>
  </radialGradient>
  <clipPath id="clip-shield">
    <path id="shield" d="m2,2v257c0,286 298,398 298,398c0,0 298-112 298-398V2z"/>
  </clipPath>
</defs>
<use id="background" xlink:href="#shield" fill="#742"/>
<path id="bend" fill="#fd0" d="M 491.93359 2 L 49.828125 444.10547 C 76.245639 491.3178 110.69904 529.84669 145.55664 560.50977 L 598 108.06641 L 598 2 L 491.93359 2 z"/>
<path id="bend" fill="#000" d="m 433.68286,169.33739 c 3.88802,3.88378 4.53823,9.49347 1.45686,12.57829 l -297.8435,298.17959 c -3.08151,3.08434 -8.69178,2.442 -12.58004,-1.44153 -3.88798,-3.88374 -4.53826,-9.49382 -1.45707,-12.57848 L 421.1026,167.89568 c 3.08171,-3.08454 8.69204,-2.44178 12.58026,1.44171 z"/>
<path id="bend" fill="#222" d="m 467.08812,58.799906 c -1.06678,-0.550719 -2.13088,1.003131 -2.91618,2.363079 -15.48137,26.808947 -39.51641,48.885645 -60.10683,67.231635 -3.02065,2.69142 -9.48426,12.90913 -4.51667,19.73863 9.04525,12.43534 18.54089,20.57554 2.67796,36.45783 l 16.22499,16.20519 c 15.71669,-15.73593 23.85669,-6.55439 36.30302,2.47568 6.83556,4.95924 16.91972,-1.63265 19.77877,-4.49517 22.58762,-22.6152 52.4668,-51.55383 58.66604,-71.35466 0.38499,-1.22962 0.2424,-3.2366 -1.30214,-3.89212 -1.10507,-0.46902 -2.41478,0.84477 -2.9626,2.31671 -6.40781,17.21726 -36.78514,46.44446 -59.92125,67.41702 -4.5631,4.1364 -14.89202,-6.64188 -10.76263,-10.74991 21.86281,-21.74982 53.90524,-52.11212 58.71177,-71.30914 0.31201,-1.25026 0.2888,-3.19026 -1.25576,-3.8458 -1.10508,-0.46902 -2.41479,0.84475 -2.96259,2.31674 -6.40768,17.21676 -36.77726,46.45349 -59.92125,67.41699 -4.34977,3.93996 -14.43354,-7.09841 -10.76264,-10.74991 21.86408,-21.74854 53.90525,-52.11211 58.71178,-71.309137 0.312,-1.250265 0.28877,-3.190289 -1.25576,-3.845803 -1.10509,-0.469018 -2.41478,0.844783 -2.96261,2.316717 -6.40766,17.216803 -36.77982,46.450643 -59.92123,67.417023 -4.41761,4.00244 -14.65611,-6.87678 -10.76264,-10.74991 21.86345,-21.74919 53.90524,-52.112124 58.71179,-71.309142 0.31201,-1.250258 0.24236,-3.236617 -1.30216,-3.892124 -1.10509,-0.469026 -2.3684,0.891098 -2.91623,2.363032 -6.40766,17.216808 -36.77758,46.453124 -59.92122,67.417034 -4.35902,3.94845 -14.63174,-6.99359 -10.80903,-10.7963 21.86381,-21.74884 54.01139,-52.050814 58.75818,-71.262785 0.46281,-1.873353 0.70468,-2.85621 -1.30208,-3.8922 z"/>
<use id="shine" xlink:href="#shield" fill="url(#rg)" stroke="#000" stroke-width="3"/>
</svg>