<?xml version="1.0" encoding="UTF-8"?>
<svg xmlns="http://www.w3.org/2000/svg" xmlns:xlink="http://www.w3.org/1999/xlink" width="600" height="660">
<defs>
  <radialGradient id="rg" gradientUnits="userSpaceOnUse" cx="220" cy="220" r="405">
    <stop style="stop-color:#ffffff;stop-opacity:.3" offset="0"/>
    <stop style="stop-color:#ffffff;stop-opacity:.2" offset=".2"/>
    <stop style="stop-color:#666666;stop-opacity:.1" offset=".6"/>
    <stop style="stop-color:#000000;stop-opacity:.13" offset="1"/>
  </radialGradient>
  <clipPath id="clip-shield">
    <path id="shield" d="m2,2v257c0,286 298,398 298,398c0,0 298-112 298-398V2z"/>
  </clipPath>
</defs>
<use id="bg" xlink:href="#shield" style="fill:#111111;"/>
<path id="outer-tressure" style="fill:#cc0000;" d="M 50 50 L 50 259 C 50 473.57263 241.96889 578.02974 300 604.73828 C 358.03111 578.02974 550 473.57263 550 259 L 550 50 L 50 50 z M 66.666016 66.666016 L 533.33398 66.666016 L 533.33398 259 C 533.33398 455.93072 362.5864 556.23117 300 586.39258 C 237.4136 556.23117 66.666016 455.93072 66.666016 259 L 66.666016 66.666016 z"/>
<path id="inner-tressure" style="fill:#cc0000;" d="M 83.333984 83.333984 L 83.333984 259 C 83.333984 440.00543 235.51918 535.4254 300 567.78906 C 364.48082 535.4254 516.66602 440.00543 516.66602 259 L 516.66602 83.333984 L 83.333984 83.333984 z M 100 100 L 500 100 L 500 259 C 500 424.40588 365.1074 515.01826 300 549.1543 C 234.8926 515.01826 100 424.40588 100 259 L 100 100 z "/>
  <g id="dragon" transform="translate(300,300)scale(0.65)translate(-300,-300)" style="stroke:#888888;stroke-width:1;stroke-linecap:round;stroke-linejoin:round;">
    <g>
      <path style="fill:#888888;" d="m 185.9,120.9 c -1.4,-2.2 -4.8,-1.5 -7.4,0.2 -2.6,1.8 -4.3,5.1 -3.7,8.2 0.3,1.6 3.1,2.2 4.3,1 1.4,-1.2 0.5,-4.1 1.4,-5.8 1.1,-1.9 2.6,-3.1 5.4,-3.6 z" />
      <path style="fill:#ffffff;" d="m 191.3,254.8 c 85.5,-32.4 111.7,-68.1 200.6,-32.7 10.8,-25.7 48.7,-52.7 84.6,-40.3 -23.1,-65.9 -94.3,-87.29 -87.5,-106.12 l -13.3,-4.98 -22.6,-4.18 -37.6,3.14 -61.8,16.44 -35.9,21.1 -30.7,18.3 c -2.6,1.8 -4.9,5.4 -7.2,4.8 l -2.5,7.5 -2.3,1.5 c -1.2,19.3 45.9,59.8 -3.1,84.7 z" />
      <path style="fill:#cccccc;" d="m 209.6,263.6 c 22.2,-17.2 25.9,-33 47,-54.1 3.7,3.5 3.1,-1.1 2,-6.5 -0.6,-3.1 -1.7,-6.4 -3.5,-9 -3.7,-5.1 -15.9,-15.3 -21,-19.2 -5.5,-3.9 -12.3,-8.3 -17.7,-10.8 -6.3,-2.8 -12.5,-6.7 -16.5,-10.5 -1.7,-1.4 -2.9,-3.8 -5.2,-2.5 0.3,-1 -0.2,-2.9 -1.7,-3.2 1.2,-1.8 4.6,-1.8 5.4,-3.1 14.9,-1.9 67.9,8.2 78.7,11.7 9.1,-0.1 70.9,24.1 90.9,41.7 5.7,2.6 17.3,14.5 25.3,25.8 -4,-9.7 -14.2,-23.1 -21.6,-29.8 -28.5,-20.4 -81.2,-39.7 -92.9,-42.8 -26.2,-5.2 -56.1,-11 -81.5,-12.4 -0.3,0.1 -0.6,0.2 -0.6,0.2 -2.5,1 -3.1,3.6 -5.4,4.8 1.2,-2.5 2,-3.4 4.3,-5.6 0.3,-0.2 0.3,-0.5 0.6,-0.8 19.9,-7 66.6,-21.6 94.3,-26.2 33.6,-5.6 55.5,-10.7 89.1,-6.8 18.3,5.6 58.7,32.9 71.6,47.9 8.2,7.2 18.5,19.2 26.2,31 -3.5,-9.9 -15.4,-25.6 -22.8,-34 -23.1,-20.6 -44.5,-37.1 -73.2,-49.3 -19.7,-3.01 -54.2,0 -85.8,4.9 -26.5,4.1 -70.7,19.2 -102,26.6 -0.6,0.1 -0.9,0.5 -1.1,0.9 -2,2.9 -2,5.4 -4,8 0.3,-0.9 0.3,-2.1 0.5,-3.4 0.6,-2.8 1.8,-5.6 1.5,-7.2 0.3,-0.1 0.3,-0.1 0.5,-0.2 8.6,-8.9 49.9,-34.75 62.4,-39.77 12.6,-8.07 84.6,-23.28 98.3,-20.81 11.4,-0.59 25.1,2.57 38.8,7.21 -8.3,-5.95 -27.1,-10.85 -38.2,-11.94 -34.5,1.07 -67.8,7.35 -100.3,19.59 -23.9,14.02 -58.4,35.62 -64.9,41.52 -0.9,0.2 -1.5,0.4 -2.3,1 -1.5,1.4 1.1,4.3 0.8,10.4 -0.5,1.6 -2.3,5.7 -1.4,7.2 -2.6,-2.3 -2.3,-7 -4.3,-7.3 0.3,-0.9 -0.5,-2.2 -0.5,-3 0,-1.5 1.1,-1.6 0.2,-4.3 -0.2,-1.4 -3.4,-1.3 -4.5,-0.6 v 0 h 0.3 c -0.3,0.2 -0.6,0.4 -0.6,0.5 -0.3,1.9 0.6,2.9 0.9,4.8 0,1.7 -1.5,3.8 -0.6,5.1 0.3,0.2 0.3,0.4 0.6,0.4 -0.6,1.8 2.5,3.5 3.4,4.9 1.4,1.8 1.4,4.5 3.1,4.3 -0.6,1.4 0,3 0.6,4.1 1.7,2.3 2.5,3.5 3.7,5.8 0.6,0.9 1.7,1.3 2.5,1.8 7.5,2.8 15.1,7.8 25.1,16.5 9.1,7.9 12.8,15.6 14.8,17.7 -13.6,7.4 -29.3,24.2 -38.7,30.1 -15.7,9.4 0.6,4.8 -8,14.7" />
    </g>
    <g>
      <path style="fill:#888888;" d="m 225.2,417.9 c 2.9,0.8 5.2,-2.3 5.7,-4.9 0.9,-3.1 0,-6.5 -2.5,-8.8 -1.7,-0.6 -3.7,0.8 -4,1.7 0,2.6 2.3,4 2.8,5.4 0.6,2 -0.3,4.3 -2,6.6 z" />
      <path style="fill:#cccccc;" d="m 239.8,293.6 c -37.4,6.8 -49,14.7 -58.4,38.9 -2.6,7 -0.9,14.8 3.7,18.3 13.1,11 3.7,22.6 19,44 -4.5,3.4 -1.1,11.9 -23.6,37.3 -5.4,5.7 21.4,16.5 22.2,10.5 2.9,-13.9 14.3,-25 21.1,-32.4 4.3,-5.2 4.8,-1.2 4.6,-10 -0.9,-17.7 8.2,-23.7 -3.5,-44.1 -3.4,-6.1 10,-2.1 16,-2.4 29.3,-1.9 31.6,-14.7 34.2,-37.3" />
      <path style="fill:#cccccc;" d="m 180.5,432.1 c -11.7,-3.4 -9.4,6.3 -20.8,-0.6 -4.8,-2.5 -8.3,9.4 -1.7,9.7 14.8,1.2 20.8,0.9 29.9,1.2" />
      <path style="fill:#cccccc;" d="m 185.6,436.9 c -3.4,-2.2 -5.7,-0.2 -8.2,-0.2 -4.9,-0.3 -7.4,3.7 -15.4,1.7 -5.4,-1.5 -7.1,9.1 -0.6,8.8 14,0 23.7,0.9 33.1,-0.8" />
      <path style="fill:#cccccc;" d="m 193.9,442.1 c -3.4,-1.4 -4.9,0.5 -9.1,0.5 -6.9,-0.5 -6,4 -15.7,1.8 -5.7,-1.2 -7.1,10.5 -1.7,10.2 18.2,-7.7 27.1,-0.6 35.3,-12" />
      <path style="fill:#888888;" d="m 146.3,436.4 c -0.6,1.4 2.9,0.3 5.4,0.8 2.9,0 4,0.9 4.9,0.6 2,-0.6 4.5,-3.1 2.8,-4.6 -2.5,-2.2 -11.4,-0.8 -13.1,3.2 z" />
      <path style="fill:#888888;" d="m 149.4,446.1 c -0.5,1.1 2.9,-0.6 5.2,-0.6 3.1,-0.6 4.2,0.3 5.4,-0.3 1.4,-1.1 3.1,-4.3 1.4,-5.1 -3.4,-1.4 -11.1,1.4 -12,6 z" />
      <path style="fill:#888888;" d="m 155.4,452.3 c -0.5,1.5 2.9,-0.3 5.4,0 2.9,-0.5 4.3,0.6 5.2,0 1.7,-1.1 3.4,-4.5 2,-5.1 -3.2,-2 -11.1,0.9 -12.6,5.1 z" />
    </g>
    <g>
      <path style="fill:#888888;" d="m 191.4,204.4 c 9.1,-1.4 16.3,7.3 12.3,7.5 -5.4,-0.3 -6,2.5 -8.6,4.9 z m -4,-13.3 c 9.2,-1.4 16.3,7.3 12.3,7.5 -5.4,-0.3 -6,2.5 -8.6,4.9 z m -4,-12.4 c 9.2,-1.4 16.3,7.3 12.3,7.5 -5.4,-0.3 -6,2.5 -8.5,4.9 z m -85.42,-46.9 c 0.57,-9.4 10.52,-14.6 9.72,-10.5 -1.5,5.2 1.1,6.6 3.1,9.5 z m 13.42,-0.7 c 1.7,-9.2 12.2,-13.2 10.8,-9.2 -2,5 0.6,6.7 2,9.8 z m 39.6,7.2 c 5.4,-7.4 16.5,-6.2 13.9,-3.4 -4,3.7 -2.3,6.2 -2.5,9.7 z m -11.4,-3.2 c 3.1,-8.6 14.2,-10.4 12.5,-7 -2.8,4.6 -0.6,6.5 0,10 z m 22.2,8.6 c 7.7,-5 17.7,0.3 14.2,2 -5.1,1.9 -4.5,4.8 -5.9,8 z m 8.3,11.4 c 7.6,-4.7 17.6,0.9 14.2,2.5 -5.4,1.7 -4.8,4.6 -6.3,7.8 z m 7.6,11.5 c 8.9,-2.6 17.1,5.1 13.2,5.8 -5.5,0.4 -5.7,3.3 -8,6.1 z m -52.1,-34.3 c 2.9,-8.9 13.7,-11.5 12,-7.7 -2.6,4.6 -0.3,6.6 0.5,9.9 z m 49.6,85.4 c 0,0 0.3,0.1 0.3,0.2 -0.3,0 -0.3,0 -0.3,0 0,-0.1 0,-0.2 0,-0.2 z m 256.7,116.4 c 4.8,-11.3 19.4,-14 15.9,-8.9 -3.1,5.8 -1.1,8.7 -0.3,13.4 z m -19.4,-7.5 c 5.7,-11 20.5,-12.5 16.8,-7.7 -3.7,5.6 -2.3,8.6 -1.4,13.3 z m -19.1,-7.4 c 6,-11 20.5,-12.5 17.1,-7.7 -3.7,5.6 -2.6,8.6 -1.7,13.3 z m -123.3,-68.2 c 6.8,-10.2 21.9,-9.5 18.2,-5.1 -5.4,5.1 -3.4,8.4 -3.7,13.1 z m 30.7,18.3 c 9.1,-9.1 23.7,-5.6 18.8,-1.8 -5.1,3.7 -5.4,7 -5.4,11.7 z m -15.6,-10 c 7.6,-9.5 22.5,-7.4 18.5,-3.7 -5.2,4.4 -3.7,7.8 -4,12.4 z m 32.1,23.2 c 8,-9.9 22.8,-7.3 18.9,-3.3 -5.5,4 -5.2,7.9 -5.2,11.9 z m 18,11.1 c 7.4,-10 23.4,-8.2 19.1,-4.5 -5.4,5.1 -4.6,8.4 -4.6,13.1 z m 38.7,18.3 c 6,-10.9 20.8,-12.4 17.1,-7.6 -3.7,5.6 -2.2,8.5 -1.7,13.3 z m -18.5,-7.7 c 6,-11.3 21.1,-11.7 18,-7.5 -4.9,5.7 -3.4,8.7 -2.9,13.5 z m -115.1,-33.1 c 0,0 -0.3,0.2 -0.3,0.3 v -0.1 c 0,-0.1 0.3,-0.2 0.3,-0.2 z m 276.4,98.6 c 8.5,-8.9 23.3,-6 18.2,-2.6 -5.1,4.3 -4.5,7.7 -5.1,12.6 z m -15.7,-8.9 c 6.8,-10.2 21.9,-9.9 17.4,-5.7 -4.3,5.2 -3.1,8.3 -2.9,13.1 z m -16.2,-8.5 c 6.8,-10.3 21.9,-9.8 17.3,-5.6 -4.2,5 -3.1,8.1 -2.8,13 z m -16,-7.3 c 6.9,-10.2 22,-9.7 17.4,-5.5 -4.3,5.1 -3.1,8.2 -2.9,13.1 z m -17.6,-5.5 c 5.9,-10.9 20.8,-12.2 16.8,-7.5 -3.5,5.5 -2.3,8.6 -1.5,13.4 z" />
      <path style="fill:#cccccc;" d="m 81.17,169.8 c 7.69,-8.5 21.93,-15.6 33.33,-15.7 19.7,-0.2 27.6,8 33.3,23.1 17.7,47.4 -2.8,67.5 7.2,102.3 19.3,67.6 124.2,59.2 180.6,65.3 37.9,4.2 104.5,22.6 161.2,37.2 17.7,4.5 44.2,18.8 37.6,38.7 -11.4,33.6 -37.3,34.8 -61.5,39 -48.1,8 -111.1,-15.9 -137,-26.5 14.5,10 43.6,21.4 59.8,25.7 26.2,6.8 58.4,11.1 85.5,7.7 29.3,-4 49.3,-15.1 60.9,-33.1 10.3,-15.1 4.9,-37 -5.4,-50.4 -15.9,-20.6 -74.1,-41.1 -98.3,-51.3 -30.2,-12.6 -41,-12.3 -92.6,-34.1 -33.3,-14 -37.6,-30.1 -74.3,-47 -25.7,-12 -44.5,-24.5 -74.1,-31.8 -10,-28.2 -6,-33.5 -19.9,-56.7 -5.7,-9.2 -12.6,-19.6 -24,-25 -12.2,-5.6 -31.6,-8.4 -44.1,-8.1 -22.53,0.7 -25.38,9.4 -47.61,10.7 l -7.97,17.8" />
    </g>
    <g>
      <path style="fill:#ffffff;" d="m 225.2,258.7 c 67.8,-5.5 125.1,-32.7 180.4,45.5 23,-15.6 69.5,-17.6 92.8,12.5 16.6,-67.9 -31.3,-124.7 -15.3,-136.7 l -8.6,-11.5 -16.5,-15.8 -33.3,-18 -60.7,-19.9 -41.6,-1.9 -35.9,-1.6 c -3.2,0.2 -6.9,2 -8.6,0.1 l -6.2,5 -2.6,0.1 c -10.5,26.4 -10.8,83.6 -82.6,108.7" />
      <path style="fill:#cccccc;" d="m 207.6,261.3 c 2.5,4.3 13.4,3.5 17.6,-2.6 42.5,-6.3 54.7,-21.4 72.7,-42.2 1.7,1.9 4.3,-1.1 4.3,-2.2 0.5,-3 1.1,-4.6 2.2,-7.2 2.6,-5.8 -3.1,-22.6 -5.4,-28.8 -2.3,-6.1 -5.7,-13.6 -8.8,-18.6 -3.7,-5.8 -6.9,-12.4 -8.3,-17.9 -0.5,-2 -0.3,-4.7 -2.8,-4.9 0.8,-0.6 1.4,-2.4 0.3,-3.6 2,-0.9 4.8,1 6.2,0.3 13.4,6.6 52.4,44 59.6,52.9 7.7,4.8 46.1,58.9 53.2,84.4 3.5,5.4 6.9,21.8 7.2,35.5 2,-10.2 0.8,-27 -1.7,-36.7 -12.9,-32.7 -46.5,-77.7 -54.5,-86.6 -19,-18.6 -41,-39.8 -61.5,-54.8 -0.3,-0.2 -0.6,-0.2 -0.6,-0.2 -2.8,-0.7 -4.5,1.3 -7.1,1.1 2.3,-1.5 3.4,-1.8 6.6,-2.4 0.3,-0.1 0.5,-0.2 0.8,-0.4 20.5,5 67.8,18.4 93.5,29.6 31,13.5 52.4,21.4 78.3,42.9 12.3,14.7 31.1,59.6 33.6,79.2 3.2,10.6 5.2,26.2 5.2,40.3 2.5,-10.2 1.1,-29.8 -0.6,-41 -8,-29.7 -16.8,-55.2 -34.5,-81.2 -14.8,-13.3 -45.3,-29.5 -74.3,-42.7 -24.5,-11.1 -69.8,-22.6 -100,-33.4 -0.6,-0.2 -1.2,-0.1 -1.5,0.2 -3.4,1.2 -4.5,3.4 -7.7,4.5 0.6,-0.8 1.5,-1.6 2.3,-2.5 2,-2.1 4.6,-3.8 5.2,-5.4 0.2,0.1 0.2,0.1 0.5,0.1 12,-2.7 60.7,-1.8 74.1,0.9 14.8,0 83.5,26.6 93.7,36.2 9.7,5.6 19.4,15.7 28.5,27.2 -3.7,-9.5 -16.8,-23.9 -25.6,-31 -29.4,-17.8 -60.7,-30.7 -94.6,-38.2 -27.6,-1.3 -68.4,-2 -77.2,-0.8 -0.9,-0.2 -1.4,-0.4 -2.3,-0.2 -2,0.4 -1.4,4.2 -5.1,9 -1.2,1.2 -4.9,3.6 -5.2,5.2 -0.8,-3.3 2,-7 0.6,-8.2 0.6,-0.8 0.6,-2.3 1.2,-2.9 0.8,-1.3 1.7,-0.8 2.5,-3.5 0.6,-1.3 -2.3,-3 -3.4,-2.9 v 0 0 c -0.3,0 -0.6,0.1 -0.6,0.2 -1.4,1.3 -1.1,2.8 -2,4.5 -0.8,1.4 -3.1,2.4 -3.1,4 0,0.2 0,0.4 0.3,0.6 -1.4,1.2 0,4.3 0,5.9 0.3,2.3 -1.2,4.6 0.3,5.4 -1.2,0.9 -1.7,2.4 -1.7,3.7 0.2,2.9 0.2,4.3 0,6.9 0,1.1 0.5,2 1.1,2.9 4.6,6.3 9.1,19.9 12.8,32.7 3.4,11.6 2.6,29.2 4.6,31.5 -29.9,11.4 -52.2,1.6 -85.8,16.6 -10.5,-0.7 -24.2,-0.5 -24.5,9.3" />
      <path style="fill:#888888;" d="m 288.2,107 c 0,-2.7 -3.4,-4.1 -6.3,-3.9 -3.1,0.1 -6.5,1.9 -7.7,4.8 -0.5,1.6 1.5,3.5 3.2,3.3 1.7,-0.3 2.5,-3.3 4.2,-4.2 2,-0.9 3.7,-1.3 6.6,0 z" />
    </g>
    <g>
      <path style="fill:#cccccc;" d="m 256.9,295.5 c -21.7,25.9 -14.9,49 -17.4,74.8 -0.6,7.4 2.5,10 7.7,12.2 15.6,7.2 9.7,20.8 29.9,37.4 -3.4,4.5 2.3,11.9 -12.8,42.1 -3.7,7.1 24.7,10.6 24.2,4.6 -1.2,-14.3 7.1,-27.9 11.7,-37.1 2.8,-5.9 4.5,-2.2 1.7,-10.8 -5.4,-16.8 -2.6,-27.6 -19.4,-44.5 -4.9,-4.9 -2,-9.3 2,-13.8 14.8,-16.8 24.5,-32.5 21.1,-55" />
      <path style="fill:#cccccc;" d="m 264.3,462 c -12.3,0 -7.4,8.6 -20.3,5.1 -5.4,-1.4 -5.7,11.2 0.9,9.7 14.5,-2.8 20.2,-4.5 29,-6.8" />
      <path style="fill:#cccccc;" d="m 270.2,465.4 c -3.7,-1.1 -5.4,1.2 -7.9,2 -4.9,0.9 -6.3,5.4 -14.3,5.7 -5.7,0 -4.5,10.6 1.7,8.6 13.4,-3.7 23.1,-5.4 31.7,-9.4" />
      <path style="fill:#cccccc;" d="m 279.6,468.3 c -3.7,-0.6 -4.5,1.7 -8.5,2.8 -6.8,1.5 -4.8,5.4 -14.8,6 -5.7,0.3 -4,12 1.1,10.3 15.7,-12.3 25.9,-7.7 31.1,-20.8" />
      <path style="fill:#888888;" d="m 232.3,475.1 c -0.2,1.7 2.9,-0.3 5.5,-0.5 2.8,-0.6 4,0 4.8,-0.6 1.7,-1.2 3.4,-4.3 1.4,-5.1 -3.1,-1.8 -11.1,2 -11.7,6.2 z" />
      <path style="fill:#888888;" d="m 303.6,436.7 c 2.8,0 4.2,-3.5 4.2,-6.3 0,-3.1 -1.7,-6.3 -4.8,-7.7 -1.7,-0.3 -3.4,1.7 -3.4,2.6 0.6,2.5 3.4,3.4 4.3,4.5 0.8,1.7 0.8,4.3 -0.3,6.9 z" />
      <path style="fill:#888888;" d="m 237.8,483.7 c 0,1.4 2.8,-1.2 4.8,-1.7 2.9,-1.5 4.3,-0.9 5.1,-1.7 1.2,-1.5 2,-5.2 0,-5.5 -3.7,-0.5 -10.2,4.3 -9.9,8.9 z" />
      <path style="fill:#888888;" d="m 245.2,488.2 c 0,1.5 2.8,-1.1 5.4,-1.4 2.5,-1.4 4.3,-0.6 4.8,-1.4 1.5,-1.4 2.3,-5.1 0.6,-5.4 -3.4,-1.2 -10.5,3.7 -10.8,8.2 z" />
    </g>
    <g>
      <path style="fill:#888888;stroke:none;" d="m 52.86,188.1 c -3.42,-3.6 -2.56,-9.4 -0.85,-7.6 1.71,2.4 3.13,2 5.13,2.4 z m -3.7,4.5 c -3.42,-3.7 -2.57,-9.5 -0.86,-7.6 1.71,2.4 3.14,2 5.13,2.4 z m -3.42,4.6 c -3.42,-3.7 -2.56,-9.5 -0.85,-7.6 1.7,2.4 3.13,2 5.12,2.4 z m -4.27,4.6 c -3.42,-3.7 -2.57,-9.5 -0.86,-7.6 1.71,2.3 3.14,2 5.13,2.3 z m -3.71,4.8 c -3.42,-3.7 -2.56,-9.5 -0.85,-7.7 1.71,2.4 3.13,2 5.13,2.4 z m -3.99,4.4 c -3.41,-3.7 -2.56,-9.5 -0.85,-7.7 1.71,2.4 3.13,2 5.13,2.4 z m 12.82,-34.4 c 3.14,4.1 9.12,4.1 7.41,2.2 -1.99,-2.2 -1.42,-3.3 -1.42,-5.4 z m -5.41,3.4 c 3.14,4.1 9.12,4.1 7.41,2.2 -2,-2.2 -1.43,-3.3 -1.43,-5.4 z m -5.7,3.5 c 3.14,4 9.12,3.9 7.41,2.1 -1.99,-2.2 -1.42,-3.4 -1.42,-5.4 z m -5.98,4 c 3.42,3.8 9.4,3.2 7.69,1.5 -2.28,-2 -1.71,-3.2 -1.99,-5.2 z m -5.7,4.3 c 3.71,3.5 9.69,2.3 7.98,0.8 -2.56,-1.8 -2.28,-3 -2.56,-5 z m -4.84,5.4 c 4.27,2.7 9.97,0.5 7.98,-0.7 -2.85,-1.3 -2.85,-2.5 -3.42,-4.5 z" />
      <path style="fill:#cccccc;" d="m 67.96,148.5 c 0,-6.2 30.2,-15.9 35.94,-37.9 -11.15,15.3 -27.96,17.3 -44.48,28 -1.71,1.1 -2.28,3.6 -3.71,4.9 -1.71,1.7 -4.84,2.3 -8.26,5.4 -5.41,4.9 0.28,7.5 -9.69,16.4 -6.55,5.8 -9.68,9.6 -16.24,15.3 -7.96,7.8 -11.988,8.5 -11.51,18.2 0.22,4.4 5.59,13.1 11.05,13.1 -3.91,-2.9 -4.52,-8.5 -1.72,-12.4 7.72,-10.6 33.4,-21.8 40.93,-31.2 -9.69,11.2 -6.55,12.2 -13.68,24.3 -3.98,7 -11.11,15 -14.81,18.4 -0.7,0.7 -5.1,0.9 -7.04,-2.9 -1.63,8.6 5.37,8 9.03,5.6 29.42,-16.3 12.06,-11.8 24.51,-24.3 3.41,-3.5 8.54,-10.8 16.52,-14.2 11.68,2.9 11.4,-4.2 23.65,-1 0,-4.4 -5.13,-8.8 -11.68,-8.9 2.84,-2.1 8.83,-1.8 15.13,1.2 -0.6,-6.6 -11.72,-10.4 -15.42,-10.3 3.7,-2.3 12.25,-4.4 18.52,-3.9 -10.83,-6.2 -19.09,-4.1 -25.93,-1.9" />
      <path style="fill:#888888;" d="m 22.09,184.4 c 1.14,1.3 0.57,2.8 0,4 -0.57,1.3 -2.56,2.8 -3.99,2.6 0,-1.4 0.29,-2.7 0.86,-3.9 0.57,-1.1 1.14,-2 3.13,-2.7 z" />
      <g>
        <path style="fill:#888888;stroke:none;" d="m 45.17,166.7 c -1.14,0.6 -1.42,0.2 -1.42,0.2 l -0.86,-0.4 0.86,-0.4 v 0 0 c 0,0 2.84,-1.4 5.98,-5 1.14,-1.6 1.99,-4.3 3.42,-6.2 0.57,-0.9 1.42,-1.9 2.56,-1.9 1.43,-0.3 2.57,0.1 4.28,1.2 -0.86,0.6 -2.28,-0.3 -3.99,-0.2 -0.57,0.1 -1.14,0.7 -1.71,1.5 -1.14,1.8 -2.28,4.4 -3.71,6.3 -2.85,3.4 -4.27,4.4 -5.41,4.9 z" />
        <path style="fill:#ffffff;" d="m 49.44,166.4 c 1.43,1 5.7,0.4 7.13,-2 1.71,-2.6 0.57,-6.1 -1.14,-7.1 -1.43,-0.9 -2.57,1.3 -4.28,3.8 -1.71,2.5 -3.42,4.3 -1.71,5.3 z" />
        <path style="fill:#333333;stroke:none;" d="m 50.87,164.9 a 2.57,2.352 18.71 0 0 3.7,-0.3 2.57,2.352 18.71 0 0 -0.57,-3.4 2.57,2.352 18.71 0 0 -3.42,0.3 2.57,2.352 18.71 0 0 0.29,3.4 z" />
        <path style="fill:#000000;stroke:none;" d="m 51.44,162.6 c 0.57,-0.4 1.42,-0.7 1.71,-0.2 0.85,0.4 0.85,1.1 0.28,1.7 -0.28,0.5 -1.14,0.6 -1.71,0.2 -0.57,-0.5 -0.57,-1.2 -0.28,-1.7 z" />
        <path style="fill:#ffffff;stroke:none;" d="m 51.15,162 c 0.29,-0.3 0.86,-0.4 1.14,-0.1 0.57,0.3 0.57,0.9 0.29,1.2 -0.29,0.3 -0.86,0.4 -1.43,0.1 -0.28,-0.4 -0.28,-0.9 0,-1.2 z" />
      </g>
      <path style="fill:#cccccc;" d="m 60.27,148.5 c 6.55,-8.6 21.08,-1.7 33.62,-12.4 -10.83,13.7 -10.83,19.9 -22.51,20.1" />
      <path style="fill:none;" d="m 65.97,151.6 c 6.55,-5.4 6.27,-0.2 13.1,-3.8" />
    </g>
  </g>
<use id="shine" xlink:href="#shield" style="fill:url(#rg);stroke:#000000;stroke-width:3;"/>
</svg>
