<?xml version="1.0" encoding="UTF-8" standalone="no"?>
<svg
   xmlns:dc="http://purl.org/dc/elements/1.1/"
   xmlns:cc="http://creativecommons.org/ns#"
   xmlns:rdf="http://www.w3.org/1999/02/22-rdf-syntax-ns#"
   xmlns:svg="http://www.w3.org/2000/svg"
   xmlns="http://www.w3.org/2000/svg"
   xmlns:xlink="http://www.w3.org/1999/xlink"
   xmlns:sodipodi="http://sodipodi.sourceforge.net/DTD/sodipodi-0.dtd"
   xmlns:inkscape="http://www.inkscape.org/namespaces/inkscape"
   width="600"
   height="660"
   id="svg2"
   version="1.1"
   inkscape:version="0.48.2 r9819"
   sodipodi:docname="House_Bettley.svg">
  <metadata
     id="metadata24">
    <rdf:RDF>
      <cc:Work
         rdf:about="">
        <dc:format>image/svg+xml</dc:format>
        <dc:type
           rdf:resource="http://purl.org/dc/dcmitype/StillImage" />
        <dc:title />
      </cc:Work>
    </rdf:RDF>
  </metadata>
  <sodipodi:namedview
     pagecolor="#ffffff"
     bordercolor="#666666"
     borderopacity="1"
     objecttolerance="10"
     gridtolerance="10"
     guidetolerance="10"
     inkscape:pageopacity="0"
     inkscape:pageshadow="2"
     inkscape:window-width="1366"
     inkscape:window-height="715"
     id="namedview22"
     showgrid="false"
     inkscape:zoom="0.71515152"
     inkscape:cx="186.43064"
     inkscape:cy="340.00428"
     inkscape:window-x="-8"
     inkscape:window-y="-8"
     inkscape:window-maximized="1"
     inkscape:current-layer="layer2" />
  <defs
     id="defs4">
    <inkscape:path-effect
       is_visible="true"
       id="path-effect3136"
       effect="spiro" />
    <inkscape:path-effect
       effect="spiro"
       id="path-effect3132"
       is_visible="true" />
    <inkscape:path-effect
       effect="spiro"
       id="path-effect3101"
       is_visible="true" />
    <inkscape:path-effect
       is_visible="true"
       id="path-effect3085"
       effect="spiro" />
    <inkscape:path-effect
       is_visible="true"
       id="path-effect3083"
       effect="spiro" />
    <inkscape:path-effect
       is_visible="true"
       id="path-effect3081"
       effect="spiro" />
    <inkscape:path-effect
       is_visible="true"
       id="path-effect3079"
       effect="spiro" />
    <inkscape:path-effect
       is_visible="true"
       id="path-effect3077"
       effect="spiro" />
    <inkscape:path-effect
       is_visible="true"
       id="path-effect3075"
       effect="spiro" />
    <inkscape:path-effect
       effect="spiro"
       id="path-effect3049"
       is_visible="true" />
    <inkscape:path-effect
       is_visible="true"
       id="path-effect3045"
       effect="spiro" />
    <inkscape:path-effect
       effect="spiro"
       id="path-effect3041"
       is_visible="true" />
    <radialGradient
       id="rg"
       gradientUnits="userSpaceOnUse"
       cx="220"
       cy="220"
       r="405">
      <stop
         style="stop-color:#fff;stop-opacity:.3"
         offset="0"
         id="stop7" />
      <stop
         style="stop-color:#fff;stop-opacity:.2"
         offset=".2"
         id="stop9" />
      <stop
         style="stop-color:#666;stop-opacity:.1"
         offset=".6"
         id="stop11" />
      <stop
         style="stop-color:#000;stop-opacity:.13"
         offset="1"
         id="stop13" />
    </radialGradient>
    <path
       id="shield"
       d="m2,2v257c0,286 298,398 298,398c0,0 298-112 298-398V2z" />
    <radialGradient
       inkscape:collect="always"
       xlink:href="#rg-7"
       id="radialGradient3055-1"
       gradientUnits="userSpaceOnUse"
       cx="220"
       cy="220"
       r="405" />
    <radialGradient
       id="rg-7"
       gradientUnits="userSpaceOnUse"
       cx="220"
       cy="220"
       r="405">
      <stop
         style="stop-color:#fff;stop-opacity:.3"
         offset="0"
         id="stop7-4" />
      <stop
         style="stop-color:#fff;stop-opacity:.2"
         offset=".2"
         id="stop9-0" />
      <stop
         style="stop-color:#666;stop-opacity:.1"
         offset=".6"
         id="stop11-9" />
      <stop
         style="stop-color:#000;stop-opacity:.13"
         offset="1"
         id="stop13-4" />
    </radialGradient>
    <radialGradient
       r="405"
       cy="220"
       cx="220"
       gradientUnits="userSpaceOnUse"
       id="radialGradient3074"
       xlink:href="#rg-7"
       inkscape:collect="always" />
    <inkscape:path-effect
       is_visible="true"
       id="path-effect10120-1"
       effect="spiro" />
    <inkscape:path-effect
       effect="spiro"
       id="path-effect10118-3"
       is_visible="true" />
    <inkscape:path-effect
       effect="spiro"
       id="path-effect10116-9"
       is_visible="true" />
    <inkscape:path-effect
       effect="spiro"
       id="path-effect10114-7"
       is_visible="true" />
    <inkscape:path-effect
       effect="spiro"
       id="path-effect10112-7"
       is_visible="true" />
    <inkscape:path-effect
       effect="spiro"
       id="path-effect10110-2"
       is_visible="true" />
    <linearGradient
       inkscape:collect="always"
       xlink:href="#linearGradient4719-5"
       id="linearGradient4039"
       gradientUnits="userSpaceOnUse"
       gradientTransform="matrix(2.3257341,0,0,2.2943177,447.69485,-1820.2799)"
       x1="-145.25935"
       y1="984.24286"
       x2="-64.14286"
       y2="984.14789" />
    <linearGradient
       inkscape:collect="always"
       id="linearGradient4719-5">
      <stop
         style="stop-color:#666666;stop-opacity:1;"
         offset="0"
         id="stop4721-5" />
      <stop
         id="stop4809-1"
         offset="0.39344174"
         style="stop-color:#666666;stop-opacity:0.74901961;" />
      <stop
         style="stop-color:#666666;stop-opacity:0;"
         offset="1"
         id="stop4723-7" />
    </linearGradient>
    <radialGradient
       inkscape:collect="always"
       xlink:href="#linearGradient4801-8"
       id="radialGradient4041"
       gradientUnits="userSpaceOnUse"
       gradientTransform="matrix(-0.72153181,1.2650715,-2.2729984,-1.2616144,1712.0113,1733.7841)"
       cx="-307.14288"
       cy="782.36218"
       fx="-307.14288"
       fy="782.36218"
       r="63" />
    <linearGradient
       inkscape:collect="always"
       id="linearGradient4801-8">
      <stop
         style="stop-color:#000000;stop-opacity:1;"
         offset="0"
         id="stop4803-2" />
      <stop
         style="stop-color:#000000;stop-opacity:0;"
         offset="1"
         id="stop4805-4" />
    </linearGradient>
    <inkscape:path-effect
       effect="spiro"
       id="path-effect10108-4"
       is_visible="true" />
    <linearGradient
       inkscape:collect="always"
       xlink:href="#linearGradient4719-5"
       id="linearGradient4044"
       gradientUnits="userSpaceOnUse"
       gradientTransform="matrix(-2.4055369,0,0,-1.6485021,142.06168,1726.5307)"
       x1="-145.25935"
       y1="984.24286"
       x2="-64.14286"
       y2="984.14789" />
    <radialGradient
       inkscape:collect="always"
       xlink:href="#linearGradient4801-8"
       id="radialGradient4046"
       gradientUnits="userSpaceOnUse"
       gradientTransform="matrix(0.74628962,-0.90897301,2.3509914,0.90648896,-1165.637,-827.11785)"
       cx="-307.14288"
       cy="782.36218"
       fx="-307.14288"
       fy="782.36218"
       r="63" />
    <inkscape:path-effect
       effect="spiro"
       id="path-effect10102-7"
       is_visible="true" />
    <linearGradient
       inkscape:collect="always"
       xlink:href="#linearGradient4719-5"
       id="linearGradient4049"
       gradientUnits="userSpaceOnUse"
       gradientTransform="matrix(2.334989,0,0,-1.6146975,449.44065,1692.189)"
       x1="-145.25935"
       y1="984.24286"
       x2="-64.14286"
       y2="984.14789" />
    <radialGradient
       inkscape:collect="always"
       xlink:href="#linearGradient4801-8"
       id="radialGradient4051"
       gradientUnits="userSpaceOnUse"
       gradientTransform="matrix(-0.72440295,-0.89033332,-2.2820431,0.88790031,1718.7881,-809.09364)"
       cx="-307.14288"
       cy="782.36218"
       fx="-307.14288"
       fy="782.36218"
       r="63" />
    <inkscape:path-effect
       is_visible="true"
       id="path-effect10096-8"
       effect="spiro" />
    <linearGradient
       inkscape:collect="always"
       xlink:href="#linearGradient4719-5"
       id="linearGradient4054"
       gradientUnits="userSpaceOnUse"
       gradientTransform="matrix(-2.409599,0,0,2.2818507,139.61083,-1810.8163)"
       x1="-145.25935"
       y1="984.24286"
       x2="-64.14286"
       y2="984.14789" />
    <radialGradient
       inkscape:collect="always"
       xlink:href="#linearGradient4801-8"
       id="radialGradient4056"
       gradientUnits="userSpaceOnUse"
       gradientTransform="matrix(0.74754985,1.2581972,2.3549614,-1.2547588,-1170.296,1723.935)"
       cx="-307.14288"
       cy="782.36218"
       fx="-307.14288"
       fy="782.36218"
       r="63" />
    <inkscape:path-effect
       is_visible="true"
       id="path-effect10090-3"
       effect="spiro" />
    <inkscape:path-effect
       effect="spiro"
       id="path-effect10084-1"
       is_visible="true" />
    <inkscape:path-effect
       effect="spiro"
       id="path-effect10082-1"
       is_visible="true" />
    <radialGradient
       inkscape:collect="always"
       xlink:href="#linearGradient4801-8"
       id="radialGradient4061"
       gradientUnits="userSpaceOnUse"
       gradientTransform="matrix(-0.76516322,1.2901254,-2.4104477,-1.2865998,1806.8444,1757.4704)"
       cx="-307.14288"
       cy="782.36218"
       fx="-307.14288"
       fy="782.36218"
       r="63" />
    <inkscape:path-effect
       effect="spiro"
       id="path-effect10080-4"
       is_visible="true" />
    <inkscape:path-effect
       is_visible="true"
       id="path-effect3075-1"
       effect="spiro" />
    <inkscape:path-effect
       effect="spiro"
       id="path-effect3101-7"
       is_visible="true" />
    <linearGradient
       inkscape:collect="always"
       xlink:href="#grad1-7-7"
       id="linearGradient3085-8-8"
       gradientUnits="userSpaceOnUse"
       gradientTransform="matrix(0.77469594,0,0,0.30982404,152.68996,-13.619206)"
       x1="78.877235"
       y1="178.07356"
       x2="301.40585"
       y2="178.07356" />
    <linearGradient
       id="grad1-7-7"
       x1="78.877235"
       y1="178.07356"
       x2="301.40585"
       y2="178.07356"
       gradientTransform="scale(1.577772,0.63380513)"
       gradientUnits="userSpaceOnUse">
      <stop
         offset="0%"
         style="stop-color:#da0;"
         id="stop16-4-4" />
      <stop
         offset="40%"
         style="stop-color:#fd0;"
         id="stop18-0-0" />
      <stop
         offset="60%"
         style="stop-color:#fd0;"
         id="stop20-9-9" />
      <stop
         offset="100%"
         style="stop-color:#da0;"
         id="stop22-4-4" />
    </linearGradient>
    <linearGradient
       inkscape:collect="always"
       xlink:href="#grad1-7-7"
       id="linearGradient3081-8-8"
       gradientUnits="userSpaceOnUse"
       gradientTransform="matrix(0.77469594,0,0,0.30982404,-27.310046,-13.619206)"
       x1="78.877235"
       y1="178.07356"
       x2="301.40585"
       y2="178.07356" />
    <linearGradient
       id="linearGradient3093"
       x1="78.877235"
       y1="178.07356"
       x2="301.40585"
       y2="178.07356"
       gradientTransform="scale(1.577772,0.63380513)"
       gradientUnits="userSpaceOnUse">
      <stop
         offset="0%"
         style="stop-color:#da0;"
         id="stop3095" />
      <stop
         offset="40%"
         style="stop-color:#fd0;"
         id="stop3097" />
      <stop
         offset="60%"
         style="stop-color:#fd0;"
         id="stop3099" />
      <stop
         offset="100%"
         style="stop-color:#da0;"
         id="stop3101" />
    </linearGradient>
    <linearGradient
       y2="178.07356"
       x2="301.40585"
       y1="178.07356"
       x1="78.877235"
       gradientTransform="matrix(0.77469594,0,0,0.30982404,332.68995,-13.619206)"
       gradientUnits="userSpaceOnUse"
       id="linearGradient3128-1"
       xlink:href="#grad1-7-7"
       inkscape:collect="always" />
    <linearGradient
       id="linearGradient3104"
       x1="78.877235"
       y1="178.07356"
       x2="301.40585"
       y2="178.07356"
       gradientTransform="scale(1.577772,0.63380513)"
       gradientUnits="userSpaceOnUse">
      <stop
         offset="0%"
         style="stop-color:#da0;"
         id="stop3106" />
      <stop
         offset="40%"
         style="stop-color:#fd0;"
         id="stop3108" />
      <stop
         offset="60%"
         style="stop-color:#fd0;"
         id="stop3110" />
      <stop
         offset="100%"
         style="stop-color:#da0;"
         id="stop3112" />
    </linearGradient>
    <inkscape:path-effect
       is_visible="true"
       id="path-effect3061"
       effect="spiro" />
  </defs>
  <g
     inkscape:groupmode="layer"
     id="layer2"
     inkscape:label="Elements"
     style="display:inline">
    <path
       inkscape:connector-curvature="0"
       d="m 2,2 v 257 c 0,286 298,398 298,398 0,0 298,-112 298,-398 V 2 z"
       id="path13"
       style="fill:#ffdd00;fill-opacity:1;stroke:none;display:inline" />
    <g
       style="display:inline"
       id="g3468">
      <g
         transform="matrix(1.2521127,0,0,1.2521127,567.39749,-197.89562)"
         id="g3304"
         style="display:inline">
        <path
           style="fill:#0000cc;stroke:#333333;stroke-width:0.79865015"
           inkscape:connector-curvature="0"
           d="m -145.35872,248.50015 c -6.404,-15.157 -7.206,-24.397 -7.271,-34.395 2.817,-0.708 3.535,-3.011 3.907,-4.222 0,0 0.081,-0.23 0.151,-0.432 0.687,-0.26 1.178,-0.905 1.178,-1.671 0,-0.995 -0.823,-1.802 -1.838,-1.802 -2.131,0 -2.725,1.936 -3.011,2.866 -0.407,1.327 -0.576,1.875 -2.231,1.875 -1.655,0 -1.823,-0.549 -2.23,-1.875 -0.286,-0.93 -0.88,-2.866 -3.011,-2.866 -1.015,0 -1.838,0.807 -1.838,1.802 0,0.766 0.491,1.411 1.178,1.671 0.07,0.202 0.151,0.432 0.151,0.432 0.372,1.212 1.091,3.52 3.919,4.225 0.064,10.402 0.888,20.003 7.55,35.771 0.389,0.919 1.464,1.355 2.402,0.975 0.937,-0.38 1.383,-1.434 0.994,-2.354 z"
           id="path2791" />
        <path
           style="fill:#0000cc;stroke:#333333;stroke-width:0.79865015"
           inkscape:connector-curvature="0"
           d="m -148.76772,309.74615 c -0.855,-0.536 -1.992,-0.291 -2.539,0.548 -2.731,4.188 -5.921,7.777 -8.735,10.944 -4.553,5.123 -8.529,9.612 -9.215,14.927 -2.919,0.671 -3.652,3.024 -4.029,4.251 -0.041,0.132 -0.088,0.288 -0.134,0.421 -0.696,0.257 -1.195,0.91 -1.195,1.682 0,0.996 0.823,1.802 1.838,1.802 2.131,0 2.726,-1.936 3.011,-2.866 0.407,-1.327 0.576,-1.875 2.23,-1.875 1.654,0 1.824,0.549 2.231,1.875 0.286,0.93 0.88,2.866 3.011,2.866 1.015,0 1.838,-0.806 1.838,-1.802 0,-0.772 -0.498,-1.425 -1.194,-1.682 -0.045,-0.133 -0.094,-0.289 -0.134,-0.421 -0.366,-1.191 -1.064,-3.442 -3.771,-4.188 0.706,-4.086 4.102,-7.916 8.285,-12.623 2.898,-3.261 6.183,-6.956 9.062,-11.37 0.546,-0.838 0.295,-1.952 -0.56,-2.489 z"
           id="path2793" />
        <path
           style="fill:#0000cc;stroke:#333333;stroke-width:0.79865015"
           inkscape:connector-curvature="0"
           d="m -139.95672,353.48615 c 0.257,-0.963 -0.332,-1.948 -1.313,-2.199 -0.983,-0.251 -1.987,0.325 -2.244,1.288 -2.104,7.897 -4.672,13.694 -6.938,18.809 -2.472,5.582 -4.458,10.109 -4.817,15.131 -2.885,0.685 -3.613,3.02 -3.988,4.242 -0.041,0.132 -0.089,0.287 -0.134,0.421 -0.696,0.256 -1.195,0.91 -1.195,1.682 0,0.995 0.823,1.802 1.838,1.802 2.131,0 2.725,-1.936 3.011,-2.866 0.407,-1.326 0.576,-1.875 2.231,-1.875 1.655,0 1.823,0.549 2.23,1.875 0.286,0.931 0.88,2.866 3.011,2.866 1.015,0 1.838,-0.807 1.838,-1.802 0,-0.772 -0.499,-1.426 -1.195,-1.682 -0.045,-0.134 -0.093,-0.289 -0.134,-0.421 -0.369,-1.2 -1.076,-3.475 -3.834,-4.204 0.37,-4.359 2.22,-8.562 4.51,-13.733 2.204,-4.976 4.946,-11.168 7.123,-19.334 z"
           id="path2795" />
        <path
           style="fill:#0000cc;stroke:#333333;stroke-width:0.79865015"
           inkscape:connector-curvature="0"
           d="m -59.30172,248.50015 c 6.403,-15.157 7.206,-24.397 7.27,-34.395 -2.817,-0.708 -3.535,-3.011 -3.907,-4.222 0,0 -0.081,-0.23 -0.15,-0.432 -0.687,-0.26 -1.178,-0.905 -1.178,-1.671 0,-0.995 0.823,-1.802 1.838,-1.802 2.131,0 2.726,1.936 3.011,2.866 0.407,1.327 0.577,1.875 2.231,1.875 1.655,0 1.823,-0.549 2.23,-1.875 0.286,-0.93 0.88,-2.866 3.011,-2.866 1.016,0 1.838,0.807 1.838,1.802 0,0.766 -0.491,1.411 -1.178,1.671 -0.07,0.202 -0.151,0.432 -0.151,0.432 -0.371,1.212 -1.091,3.52 -3.919,4.225 -0.064,10.402 -0.888,20.003 -7.549,35.771 -0.389,0.919 -1.464,1.355 -2.402,0.975 -0.939,-0.38 -1.384,-1.434 -0.995,-2.354 z"
           id="path2799" />
        <path
           style="fill:#0000cc;stroke:#333333;stroke-width:0.79865015"
           inkscape:connector-curvature="0"
           d="m -55.89272,309.74615 c 0.855,-0.536 1.992,-0.291 2.539,0.548 2.731,4.188 5.921,7.777 8.735,10.944 4.553,5.123 8.529,9.612 9.215,14.927 2.919,0.671 3.652,3.024 4.029,4.251 0.041,0.132 0.088,0.288 0.134,0.421 0.696,0.257 1.194,0.91 1.194,1.682 0,0.996 -0.823,1.802 -1.837,1.802 -2.131,0 -2.726,-1.936 -3.011,-2.866 -0.407,-1.327 -0.576,-1.875 -2.23,-1.875 -1.655,0 -1.824,0.549 -2.231,1.875 -0.286,0.93 -0.88,2.866 -3.011,2.866 -1.016,0 -1.838,-0.806 -1.838,-1.802 0,-0.772 0.499,-1.425 1.195,-1.682 0.045,-0.133 0.094,-0.289 0.134,-0.421 0.366,-1.191 1.064,-3.442 3.771,-4.188 -0.707,-4.086 -4.102,-7.916 -8.286,-12.623 -2.897,-3.261 -6.183,-6.956 -9.062,-11.37 -0.546,-0.838 -0.295,-1.952 0.56,-2.489 z"
           id="path2801" />
        <path
           style="fill:#0000cc;stroke:#333333;stroke-width:0.79865015"
           inkscape:connector-curvature="0"
           d="m -64.70372,353.48615 c -0.257,-0.963 0.332,-1.948 1.313,-2.199 0.983,-0.251 1.987,0.325 2.244,1.288 2.104,7.897 4.672,13.694 6.938,18.809 2.472,5.582 4.458,10.109 4.817,15.131 2.884,0.685 3.613,3.02 3.988,4.242 0.041,0.132 0.089,0.287 0.134,0.421 0.696,0.256 1.194,0.91 1.194,1.682 0,0.995 -0.823,1.802 -1.837,1.802 -2.131,0 -2.726,-1.936 -3.011,-2.866 -0.407,-1.326 -0.577,-1.875 -2.231,-1.875 -1.655,0 -1.823,0.549 -2.23,1.875 -0.286,0.931 -0.88,2.866 -3.011,2.866 -1.016,0 -1.838,-0.807 -1.838,-1.802 0,-0.772 0.499,-1.426 1.195,-1.682 0.045,-0.134 0.093,-0.289 0.134,-0.421 0.369,-1.2 1.076,-3.475 3.834,-4.204 -0.37,-4.359 -2.219,-8.562 -4.51,-13.733 -2.204,-4.976 -4.946,-11.168 -7.123,-19.334 z"
           id="path2803" />
        <path
           style="fill:#0000cc;stroke:#333333;stroke-width:0.79865015"
           inkscape:connector-curvature="0"
           d="m -127.62672,261.36015 c -13.544,-3.437 -13.423,-9.009 -14.995,-13.276 -1.572,-4.267 -4.837,-0.948 -4.837,-0.948 -5.926,-2.252 -7.74,4.03 -7.74,4.03 4.233,-1.778 5.321,0 9.191,5.216 3.87,5.216 8.646,5.986 17.717,9.661 l 0.664,-4.683 z"
           id="path2809" />
        <path
           style="fill:#0000cc;stroke:#333333;stroke-width:0.79865015"
           inkscape:connector-curvature="0"
           d="m -129.35972,278.39115 c -10.602,0 -12.537,13.473 -18.342,23.43 -5.805,9.957 -9.554,10.155 -7.014,12.644 0.847,0.83 3.386,0.237 3.386,0.237 0,0 -0.363,4.386 5.381,5.275 0,0 -2.54,-6.875 1.451,-13.869 3.991,-6.994 7.8,-20.448 15.177,-20.448 l -0.039,-7.269 z"
           id="path2811" />
        <path
           style="fill:#0000cc;stroke:#333333;stroke-width:0.79865015"
           inkscape:connector-curvature="0"
           d="m -129.31972,306.40515 c -9.433,0 -12.818,12.328 -12.818,26.552 0,14.224 -1.371,16.595 -2.661,19.598 -1.29,3.003 0.806,6.006 2.741,4.11 0,0 1.128,3.635 6.289,0 0,0 -3.427,-0.948 -2.621,-6.48 0.807,-5.532 -0.604,-33.666 9.07,-29.082 l 0,-14.698 z"
           id="path2813" />
        <path
           style="fill:#0000cc;stroke:#333333;stroke-width:0.79865015"
           inkscape:connector-curvature="0"
           d="m -77.03372,261.36015 c 13.544,-3.438 13.423,-9.009 14.996,-13.276 1.572,-4.267 4.837,-0.948 4.837,-0.948 5.926,-2.252 7.74,4.03 7.74,4.03 -4.233,-1.778 -5.321,0 -9.191,5.216 -3.87,5.216 -8.647,5.986 -17.717,9.661 l -0.665,-4.683 z"
           id="path2817" />
        <path
           style="fill:#0000cc;stroke:#333333;stroke-width:0.79865015"
           inkscape:connector-curvature="0"
           d="m -75.30072,278.39115 c 10.602,0 12.537,13.473 18.342,23.43 5.805,9.957 9.554,10.155 7.014,12.644 -0.847,0.83 -3.386,0.237 -3.386,0.237 0,0 0.363,4.386 -5.381,5.275 0,0 2.54,-6.875 -1.451,-13.869 -3.991,-6.994 -7.8,-20.448 -15.177,-20.448 l 0.039,-7.269 z"
           id="path2819" />
        <path
           style="fill:#0000cc;stroke:#333333;stroke-width:0.79865015"
           inkscape:connector-curvature="0"
           d="m -75.34072,306.40515 c 9.433,0 12.818,12.328 12.818,26.552 0,14.224 1.371,16.595 2.661,19.598 1.29,3.003 -0.807,6.006 -2.742,4.11 0,0 -1.128,3.635 -6.289,0 0,0 3.427,-0.948 2.621,-6.48 -0.807,-5.532 0.604,-33.666 -9.07,-29.082 l 0,-14.698 10e-4,0 z"
           id="path2821" />
        <path
           style="fill:#0000cc;stroke:#333333;stroke-width:0.79865015"
           inkscape:connector-curvature="0"
           id="path2825"
           d="m -103.49872,231.74315 c -4.981,-3.921 -10.316,-6.226 -14.603,-8.077 -5.355,-2.313 -8.56,-3.826 -9.467,-6.412 4.324,-0.667 6.133,-3.619 6.133,-9.711 0,-0.996 -0.823,-1.802 -1.838,-1.802 -1.015,0 -1.838,0.806 -1.838,1.802 0,3.123 -0.456,4.684 -1.306,5.469 l 0,-5.447 c 0,-0.786 -0.649,-1.824 -1.451,-1.824 -0.801,0 -1.451,1.039 -1.451,1.824 l 0,6.233 c -0.119,0.001 -0.238,0.002 -0.363,0.002 -0.124,0 -0.243,-0.001 -0.363,-0.002 l 0,-6.233 c 0,-0.786 -0.649,-1.824 -1.451,-1.824 -0.801,0 -1.451,1.039 -1.451,1.824 l 0,5.447 c -0.85,-0.785 -1.306,-2.346 -1.306,-5.469 0,-0.996 -0.823,-1.802 -1.838,-1.802 -1.015,0 -1.838,0.806 -1.838,1.802 0,6.293 1.938,9.231 6.578,9.765 0.936,4.961 5.989,7.16 11.768,9.655 4.302,1.858 9.179,3.964 13.783,7.589 0.792,0.623 1.949,0.499 2.584,-0.276 0.636,-0.776 0.51,-1.91 -0.282,-2.533 z" />
        <path
           style="fill:#0000cc;stroke:#333333;stroke-width:0.79865015"
           inkscape:connector-curvature="0"
           id="path2827"
           d="m -101.16172,231.74315 c 4.981,-3.921 10.316,-6.226 14.603,-8.077 5.355,-2.313 8.56,-3.826 9.467,-6.412 -4.323,-0.667 -6.133,-3.619 -6.133,-9.711 0,-0.996 0.823,-1.802 1.838,-1.802 1.015,0 1.838,0.806 1.838,1.802 0,3.123 0.456,4.684 1.306,5.469 l 0,-5.447 c 0,-0.786 0.649,-1.824 1.452,-1.824 0.801,0 1.451,1.039 1.451,1.824 l 0,6.233 c 0.119,0.001 0.238,0.002 0.363,0.002 0.124,0 0.243,-0.001 0.363,-0.002 l 0,-6.233 c 0,-0.786 0.649,-1.824 1.451,-1.824 0.801,0 1.451,1.039 1.451,1.824 l 0,5.447 c 0.849,-0.785 1.306,-2.346 1.306,-5.469 0,-0.996 0.823,-1.802 1.838,-1.802 1.015,0 1.837,0.806 1.837,1.802 0,6.293 -1.938,9.231 -6.577,9.765 -0.936,4.961 -5.989,7.16 -11.769,9.655 -4.302,1.858 -9.178,3.964 -13.783,7.589 -0.792,0.623 -1.948,0.499 -2.584,-0.276 -0.636,-0.776 -0.51,-1.91 0.282,-2.533 z" />
        <path
           inkscape:connector-curvature="0"
           style="fill:#0000cc;stroke:#333333;stroke-width:2.39595056;stroke-linecap:round;stroke-linejoin:round"
           d="m -72.92372,280.72115 c 0,-13.819 -12.131,-9.963 -29.406,-9.963 -17.275,0 -29.406,-3.856 -29.406,9.963 0,12.884 -3.163,87.088 23.202,101.031 l -0.015,0.003 c 5.706,2.888 4.029,15.662 6.22,15.662 2.191,0 0.514,-12.774 6.22,-15.662 l -0.015,-0.003 c 26.363,-13.943 23.2,-88.147 23.2,-101.031 z"
           id="path2831" />
        <path
           inkscape:connector-curvature="0"
           id="path2837"
           d="m -72.92372,280.72115 c 0,-13.819 -12.131,-9.963 -29.406,-9.963 -17.275,0 -29.406,-3.856 -29.406,9.963 0,6.236 -0.741,26.838 1.482,48.021 1.43,10.915 5.574,25.282 16.713,10.906 9.181,-11.847 11.21,-29.07 11.21,-36.913 0,7.843 2.029,25.066 11.21,36.913 11.144,14.38 15.286,0 16.715,-10.916 0,-10e-4 0,-0.002 0,-0.003 2.222,-21.178 1.482,-41.773 1.482,-48.008 z"
           style="fill:#000000;stroke:#000000;stroke-width:2.39595056;stroke-linecap:round;stroke-linejoin:round" />
        <path
           inkscape:connector-curvature="0"
           style="fill:#0000cc;stroke:#333333;stroke-width:0.79865015;display:inline"
           d="m -72.92372,280.72115 c 0,-13.819 -12.131,-9.963 -29.406,-9.963 -17.275,0 -29.406,-3.856 -29.406,9.963 0,6.236 -0.741,26.838 1.482,48.021 1.43,10.915 5.574,25.282 16.713,10.906 9.181,-11.847 11.21,-29.07 11.21,-36.913 0,7.843 2.029,25.066 11.21,36.913 11.144,14.38 15.286,0 16.715,-10.916 0,-10e-4 0,-0.002 0,-0.003 2.222,-21.178 1.482,-41.773 1.482,-48.008 z m -52.365,35.957 c 0,0.786 -0.65,1.422 -1.451,1.422 -0.802,0 -1.451,-0.637 -1.451,-1.422 l 0,-37.924 c 0,-0.786 0.649,-1.423 1.451,-1.423 0.801,0 1.451,0.637 1.451,1.423 l 0,37.924 z m 6.282,21.18 c 0,0.786 -0.649,1.422 -1.451,1.422 -0.802,0 -1.451,-0.637 -1.451,-1.422 l 0,-56.475 c 0,-0.785 0.649,-1.422 1.451,-1.422 0.802,0 1.451,0.637 1.451,1.422 l 0,56.475 z m 6.283,-8.219 c 0,0.786 -0.649,1.422 -1.451,1.422 -0.802,0 -1.451,-0.637 -1.451,-1.422 l 0,-46.932 c 0,-0.786 0.649,-1.423 1.451,-1.423 0.802,0 1.451,0.637 1.451,1.423 l 0,46.932 z m 6.282,-15.806 c 0,0.786 -0.649,1.423 -1.451,1.423 -0.802,0 -1.451,-0.637 -1.451,-1.423 l 0,-30.5 c 0,-0.786 0.649,-1.422 1.451,-1.422 0.802,0 1.451,0.637 1.451,1.422 l 0,30.5 z m 11.125,0 c 0,0.786 -0.649,1.423 -1.451,1.423 -0.801,0 -1.451,-0.637 -1.451,-1.423 l 0,-30.5 c 0,-0.786 0.65,-1.422 1.451,-1.422 0.802,0 1.451,0.637 1.451,1.422 l 0,30.5 z m 6.282,15.806 c 0,0.786 -0.65,1.422 -1.451,1.422 -0.802,0 -1.451,-0.637 -1.451,-1.422 l 0,-46.932 c 0,-0.786 0.649,-1.423 1.451,-1.423 0.801,0 1.451,0.637 1.451,1.423 l 0,46.932 z m 6.283,8.219 c 0,0.786 -0.65,1.422 -1.451,1.422 -0.802,0 -1.451,-0.637 -1.451,-1.422 l 0,-56.475 c 0,-0.785 0.649,-1.422 1.451,-1.422 0.801,0 1.451,0.637 1.451,1.422 l 0,56.475 z m 6.282,-21.18 c 0,0.786 -0.649,1.422 -1.451,1.422 -0.801,0 -1.451,-0.637 -1.451,-1.422 l 0,-37.924 c 0,-0.786 0.65,-1.423 1.451,-1.423 0.802,0 1.451,0.637 1.451,1.423 l 0,37.924 z"
           id="path2833" />
        <line
           id="line2839"
           y2="276.84915"
           x2="-102.32972"
           y1="302.73416"
           x1="-102.32972"
           style="fill:none;stroke:#333333;stroke-width:2.39595056;stroke-linecap:round;stroke-linejoin:round" />
        <path
           inkscape:connector-curvature="0"
           id="path2845"
           d="m -102.32972,230.89615 c -4.617,0 -10.543,5.927 -5.827,13.869 l 11.653,0 c 4.716,-7.942 -1.209,-13.869 -5.826,-13.869 z"
           style="fill:#0000cc;stroke:#333333;stroke-width:2.39595056;stroke-linecap:round;stroke-linejoin:round" />
        <path
           inkscape:connector-curvature="0"
           id="path2847"
           d="m -102.32972,243.02615 c -17.799,0 -28.118,17.069 -28.118,24.656 0,2.845 6.735,9.167 28.118,9.167 21.383,0 28.118,-6.322 28.118,-9.167 -0.001,-7.587 -10.32,-24.656 -28.118,-24.656 z"
           style="fill:#0000cc;stroke:#333333;stroke-width:2.39595056;stroke-linecap:round;stroke-linejoin:round" />
        <path
           inkscape:connector-curvature="0"
           style="fill:#ffffff;stroke:#333333;stroke-width:0.79865015;stroke-linecap:round;stroke-linejoin:round"
           d="m -87.50772,361.18515 c 1.074,-3.629 0.644,-6.942 -0.959,-7.398 -1.604,-0.456 -3.776,2.117 -4.851,5.747 -1.075,3.63 -0.645,6.942 0.959,7.398 1.604,0.456 3.776,-2.117 4.851,-5.747 z"
           id="path2851" />
        <path
           inkscape:connector-curvature="0"
           style="fill:#ffffff;stroke:#333333;stroke-width:0.79865015;stroke-linecap:round;stroke-linejoin:round"
           d="m -112.08972,249.53015 c -3.31,1.604 -5.887,3.824 -7.743,5.839 -3.861,4.191 -6.01,9.084 -6.221,11.86 0.914,1.113 4.813,3.704 14.098,4.822 2.541,-9.947 1.604,-17.401 -0.134,-22.521 z"
           id="path2853" />
        <path
           inkscape:connector-curvature="0"
           style="fill:#ffffff;stroke:#333333;stroke-width:0.79865015;stroke-linecap:round;stroke-linejoin:round"
           d="m -123.28772,345.41115 c 2.978,14.871 7.206,23.508 11.556,28.372 -3.662,-10.618 -5.13,-21.34 -5.622,-30.068 -2.356,1.931 -4.312,2.331 -5.934,1.696 z"
           id="path2855" />
        <path
           inkscape:connector-curvature="0"
           style="fill:#ffffff;stroke:#333333;stroke-width:0.79865015;stroke-linecap:round;stroke-linejoin:round"
           d="m -106.64472,243.38015 c 0.889,-0.144 1.796,-0.253 2.729,-0.307 0.724,-0.881 1.199,-2.372 1.199,-4.063 0,-2.706 -1.218,-4.9 -2.72,-4.9 -1.502,0 -2.72,2.194 -2.72,4.9 0,1.921 0.619,3.567 1.512,4.37 z"
           id="path2857" />
      </g>
      <g
         style="display:inline"
         id="g3367"
         transform="matrix(1.2521127,0,0,1.2521127,288.86169,-197.89562)">
        <path
           id="path3370"
           d="m -145.35872,248.50015 c -6.404,-15.157 -7.206,-24.397 -7.271,-34.395 2.817,-0.708 3.535,-3.011 3.907,-4.222 0,0 0.081,-0.23 0.151,-0.432 0.687,-0.26 1.178,-0.905 1.178,-1.671 0,-0.995 -0.823,-1.802 -1.838,-1.802 -2.131,0 -2.725,1.936 -3.011,2.866 -0.407,1.327 -0.576,1.875 -2.231,1.875 -1.655,0 -1.823,-0.549 -2.23,-1.875 -0.286,-0.93 -0.88,-2.866 -3.011,-2.866 -1.015,0 -1.838,0.807 -1.838,1.802 0,0.766 0.491,1.411 1.178,1.671 0.07,0.202 0.151,0.432 0.151,0.432 0.372,1.212 1.091,3.52 3.919,4.225 0.064,10.402 0.888,20.003 7.55,35.771 0.389,0.919 1.464,1.355 2.402,0.975 0.937,-0.38 1.383,-1.434 0.994,-2.354 z"
           inkscape:connector-curvature="0"
           style="fill:#0000cc;stroke:#333333;stroke-width:0.79865015" />
        <path
           id="path3372"
           d="m -148.76772,309.74615 c -0.855,-0.536 -1.992,-0.291 -2.539,0.548 -2.731,4.188 -5.921,7.777 -8.735,10.944 -4.553,5.123 -8.529,9.612 -9.215,14.927 -2.919,0.671 -3.652,3.024 -4.029,4.251 -0.041,0.132 -0.088,0.288 -0.134,0.421 -0.696,0.257 -1.195,0.91 -1.195,1.682 0,0.996 0.823,1.802 1.838,1.802 2.131,0 2.726,-1.936 3.011,-2.866 0.407,-1.327 0.576,-1.875 2.23,-1.875 1.654,0 1.824,0.549 2.231,1.875 0.286,0.93 0.88,2.866 3.011,2.866 1.015,0 1.838,-0.806 1.838,-1.802 0,-0.772 -0.498,-1.425 -1.194,-1.682 -0.045,-0.133 -0.094,-0.289 -0.134,-0.421 -0.366,-1.191 -1.064,-3.442 -3.771,-4.188 0.706,-4.086 4.102,-7.916 8.285,-12.623 2.898,-3.261 6.183,-6.956 9.062,-11.37 0.546,-0.838 0.295,-1.952 -0.56,-2.489 z"
           inkscape:connector-curvature="0"
           style="fill:#0000cc;stroke:#333333;stroke-width:0.79865015" />
        <path
           id="path3374"
           d="m -139.95672,353.48615 c 0.257,-0.963 -0.332,-1.948 -1.313,-2.199 -0.983,-0.251 -1.987,0.325 -2.244,1.288 -2.104,7.897 -4.672,13.694 -6.938,18.809 -2.472,5.582 -4.458,10.109 -4.817,15.131 -2.885,0.685 -3.613,3.02 -3.988,4.242 -0.041,0.132 -0.089,0.287 -0.134,0.421 -0.696,0.256 -1.195,0.91 -1.195,1.682 0,0.995 0.823,1.802 1.838,1.802 2.131,0 2.725,-1.936 3.011,-2.866 0.407,-1.326 0.576,-1.875 2.231,-1.875 1.655,0 1.823,0.549 2.23,1.875 0.286,0.931 0.88,2.866 3.011,2.866 1.015,0 1.838,-0.807 1.838,-1.802 0,-0.772 -0.499,-1.426 -1.195,-1.682 -0.045,-0.134 -0.093,-0.289 -0.134,-0.421 -0.369,-1.2 -1.076,-3.475 -3.834,-4.204 0.37,-4.359 2.22,-8.562 4.51,-13.733 2.204,-4.976 4.946,-11.168 7.123,-19.334 z"
           inkscape:connector-curvature="0"
           style="fill:#0000cc;stroke:#333333;stroke-width:0.79865015" />
        <path
           id="path3376"
           d="m -59.30172,248.50015 c 6.403,-15.157 7.206,-24.397 7.27,-34.395 -2.817,-0.708 -3.535,-3.011 -3.907,-4.222 0,0 -0.081,-0.23 -0.15,-0.432 -0.687,-0.26 -1.178,-0.905 -1.178,-1.671 0,-0.995 0.823,-1.802 1.838,-1.802 2.131,0 2.726,1.936 3.011,2.866 0.407,1.327 0.577,1.875 2.231,1.875 1.655,0 1.823,-0.549 2.23,-1.875 0.286,-0.93 0.88,-2.866 3.011,-2.866 1.016,0 1.838,0.807 1.838,1.802 0,0.766 -0.491,1.411 -1.178,1.671 -0.07,0.202 -0.151,0.432 -0.151,0.432 -0.371,1.212 -1.091,3.52 -3.919,4.225 -0.064,10.402 -0.888,20.003 -7.549,35.771 -0.389,0.919 -1.464,1.355 -2.402,0.975 -0.939,-0.38 -1.384,-1.434 -0.995,-2.354 z"
           inkscape:connector-curvature="0"
           style="fill:#0000cc;stroke:#333333;stroke-width:0.79865015" />
        <path
           id="path3378"
           d="m -55.89272,309.74615 c 0.855,-0.536 1.992,-0.291 2.539,0.548 2.731,4.188 5.921,7.777 8.735,10.944 4.553,5.123 8.529,9.612 9.215,14.927 2.919,0.671 3.652,3.024 4.029,4.251 0.041,0.132 0.088,0.288 0.134,0.421 0.696,0.257 1.194,0.91 1.194,1.682 0,0.996 -0.823,1.802 -1.837,1.802 -2.131,0 -2.726,-1.936 -3.011,-2.866 -0.407,-1.327 -0.576,-1.875 -2.23,-1.875 -1.655,0 -1.824,0.549 -2.231,1.875 -0.286,0.93 -0.88,2.866 -3.011,2.866 -1.016,0 -1.838,-0.806 -1.838,-1.802 0,-0.772 0.499,-1.425 1.195,-1.682 0.045,-0.133 0.094,-0.289 0.134,-0.421 0.366,-1.191 1.064,-3.442 3.771,-4.188 -0.707,-4.086 -4.102,-7.916 -8.286,-12.623 -2.897,-3.261 -6.183,-6.956 -9.062,-11.37 -0.546,-0.838 -0.295,-1.952 0.56,-2.489 z"
           inkscape:connector-curvature="0"
           style="fill:#0000cc;stroke:#333333;stroke-width:0.79865015" />
        <path
           id="path3380"
           d="m -64.70372,353.48615 c -0.257,-0.963 0.332,-1.948 1.313,-2.199 0.983,-0.251 1.987,0.325 2.244,1.288 2.104,7.897 4.672,13.694 6.938,18.809 2.472,5.582 4.458,10.109 4.817,15.131 2.884,0.685 3.613,3.02 3.988,4.242 0.041,0.132 0.089,0.287 0.134,0.421 0.696,0.256 1.194,0.91 1.194,1.682 0,0.995 -0.823,1.802 -1.837,1.802 -2.131,0 -2.726,-1.936 -3.011,-2.866 -0.407,-1.326 -0.577,-1.875 -2.231,-1.875 -1.655,0 -1.823,0.549 -2.23,1.875 -0.286,0.931 -0.88,2.866 -3.011,2.866 -1.016,0 -1.838,-0.807 -1.838,-1.802 0,-0.772 0.499,-1.426 1.195,-1.682 0.045,-0.134 0.093,-0.289 0.134,-0.421 0.369,-1.2 1.076,-3.475 3.834,-4.204 -0.37,-4.359 -2.219,-8.562 -4.51,-13.733 -2.204,-4.976 -4.946,-11.168 -7.123,-19.334 z"
           inkscape:connector-curvature="0"
           style="fill:#0000cc;stroke:#333333;stroke-width:0.79865015" />
        <path
           id="path3382"
           d="m -127.62672,261.36015 c -13.544,-3.437 -13.423,-9.009 -14.995,-13.276 -1.572,-4.267 -4.837,-0.948 -4.837,-0.948 -5.926,-2.252 -7.74,4.03 -7.74,4.03 4.233,-1.778 5.321,0 9.191,5.216 3.87,5.216 8.646,5.986 17.717,9.661 l 0.664,-4.683 z"
           inkscape:connector-curvature="0"
           style="fill:#0000cc;stroke:#333333;stroke-width:0.79865015" />
        <path
           id="path3384"
           d="m -129.35972,278.39115 c -10.602,0 -12.537,13.473 -18.342,23.43 -5.805,9.957 -9.554,10.155 -7.014,12.644 0.847,0.83 3.386,0.237 3.386,0.237 0,0 -0.363,4.386 5.381,5.275 0,0 -2.54,-6.875 1.451,-13.869 3.991,-6.994 7.8,-20.448 15.177,-20.448 l -0.039,-7.269 z"
           inkscape:connector-curvature="0"
           style="fill:#0000cc;stroke:#333333;stroke-width:0.79865015" />
        <path
           id="path3386"
           d="m -129.31972,306.40515 c -9.433,0 -12.818,12.328 -12.818,26.552 0,14.224 -1.371,16.595 -2.661,19.598 -1.29,3.003 0.806,6.006 2.741,4.11 0,0 1.128,3.635 6.289,0 0,0 -3.427,-0.948 -2.621,-6.48 0.807,-5.532 -0.604,-33.666 9.07,-29.082 l 0,-14.698 z"
           inkscape:connector-curvature="0"
           style="fill:#0000cc;stroke:#333333;stroke-width:0.79865015" />
        <path
           id="path3388"
           d="m -77.03372,261.36015 c 13.544,-3.438 13.423,-9.009 14.996,-13.276 1.572,-4.267 4.837,-0.948 4.837,-0.948 5.926,-2.252 7.74,4.03 7.74,4.03 -4.233,-1.778 -5.321,0 -9.191,5.216 -3.87,5.216 -8.647,5.986 -17.717,9.661 l -0.665,-4.683 z"
           inkscape:connector-curvature="0"
           style="fill:#0000cc;stroke:#333333;stroke-width:0.79865015" />
        <path
           id="path3390"
           d="m -75.30072,278.39115 c 10.602,0 12.537,13.473 18.342,23.43 5.805,9.957 9.554,10.155 7.014,12.644 -0.847,0.83 -3.386,0.237 -3.386,0.237 0,0 0.363,4.386 -5.381,5.275 0,0 2.54,-6.875 -1.451,-13.869 -3.991,-6.994 -7.8,-20.448 -15.177,-20.448 l 0.039,-7.269 z"
           inkscape:connector-curvature="0"
           style="fill:#0000cc;stroke:#333333;stroke-width:0.79865015" />
        <path
           id="path3392"
           d="m -75.34072,306.40515 c 9.433,0 12.818,12.328 12.818,26.552 0,14.224 1.371,16.595 2.661,19.598 1.29,3.003 -0.807,6.006 -2.742,4.11 0,0 -1.128,3.635 -6.289,0 0,0 3.427,-0.948 2.621,-6.48 -0.807,-5.532 0.604,-33.666 -9.07,-29.082 l 0,-14.698 10e-4,0 z"
           inkscape:connector-curvature="0"
           style="fill:#0000cc;stroke:#333333;stroke-width:0.79865015" />
        <path
           d="m -103.49872,231.74315 c -4.981,-3.921 -10.316,-6.226 -14.603,-8.077 -5.355,-2.313 -8.56,-3.826 -9.467,-6.412 4.324,-0.667 6.133,-3.619 6.133,-9.711 0,-0.996 -0.823,-1.802 -1.838,-1.802 -1.015,0 -1.838,0.806 -1.838,1.802 0,3.123 -0.456,4.684 -1.306,5.469 l 0,-5.447 c 0,-0.786 -0.649,-1.824 -1.451,-1.824 -0.801,0 -1.451,1.039 -1.451,1.824 l 0,6.233 c -0.119,0.001 -0.238,0.002 -0.363,0.002 -0.124,0 -0.243,-0.001 -0.363,-0.002 l 0,-6.233 c 0,-0.786 -0.649,-1.824 -1.451,-1.824 -0.801,0 -1.451,1.039 -1.451,1.824 l 0,5.447 c -0.85,-0.785 -1.306,-2.346 -1.306,-5.469 0,-0.996 -0.823,-1.802 -1.838,-1.802 -1.015,0 -1.838,0.806 -1.838,1.802 0,6.293 1.938,9.231 6.578,9.765 0.936,4.961 5.989,7.16 11.768,9.655 4.302,1.858 9.179,3.964 13.783,7.589 0.792,0.623 1.949,0.499 2.584,-0.276 0.636,-0.776 0.51,-1.91 -0.282,-2.533 z"
           id="path3394"
           inkscape:connector-curvature="0"
           style="fill:#0000cc;stroke:#333333;stroke-width:0.79865015" />
        <path
           d="m -101.16172,231.74315 c 4.981,-3.921 10.316,-6.226 14.603,-8.077 5.355,-2.313 8.56,-3.826 9.467,-6.412 -4.323,-0.667 -6.133,-3.619 -6.133,-9.711 0,-0.996 0.823,-1.802 1.838,-1.802 1.015,0 1.838,0.806 1.838,1.802 0,3.123 0.456,4.684 1.306,5.469 l 0,-5.447 c 0,-0.786 0.649,-1.824 1.452,-1.824 0.801,0 1.451,1.039 1.451,1.824 l 0,6.233 c 0.119,0.001 0.238,0.002 0.363,0.002 0.124,0 0.243,-0.001 0.363,-0.002 l 0,-6.233 c 0,-0.786 0.649,-1.824 1.451,-1.824 0.801,0 1.451,1.039 1.451,1.824 l 0,5.447 c 0.849,-0.785 1.306,-2.346 1.306,-5.469 0,-0.996 0.823,-1.802 1.838,-1.802 1.015,0 1.837,0.806 1.837,1.802 0,6.293 -1.938,9.231 -6.577,9.765 -0.936,4.961 -5.989,7.16 -11.769,9.655 -4.302,1.858 -9.178,3.964 -13.783,7.589 -0.792,0.623 -1.948,0.499 -2.584,-0.276 -0.636,-0.776 -0.51,-1.91 0.282,-2.533 z"
           id="path3396"
           inkscape:connector-curvature="0"
           style="fill:#0000cc;stroke:#333333;stroke-width:0.79865015" />
        <path
           id="path3398"
           d="m -72.92372,280.72115 c 0,-13.819 -12.131,-9.963 -29.406,-9.963 -17.275,0 -29.406,-3.856 -29.406,9.963 0,12.884 -3.163,87.088 23.202,101.031 l -0.015,0.003 c 5.706,2.888 4.029,15.662 6.22,15.662 2.191,0 0.514,-12.774 6.22,-15.662 l -0.015,-0.003 c 26.363,-13.943 23.2,-88.147 23.2,-101.031 z"
           style="fill:#0000cc;stroke:#333333;stroke-width:2.39595056;stroke-linecap:round;stroke-linejoin:round"
           inkscape:connector-curvature="0" />
        <path
           style="fill:#000000;stroke:#000000;stroke-width:2.39595056;stroke-linecap:round;stroke-linejoin:round"
           d="m -72.92372,280.72115 c 0,-13.819 -12.131,-9.963 -29.406,-9.963 -17.275,0 -29.406,-3.856 -29.406,9.963 0,6.236 -0.741,26.838 1.482,48.021 1.43,10.915 5.574,25.282 16.713,10.906 9.181,-11.847 11.21,-29.07 11.21,-36.913 0,7.843 2.029,25.066 11.21,36.913 11.144,14.38 15.286,0 16.715,-10.916 0,-10e-4 0,-0.002 0,-0.003 2.222,-21.178 1.482,-41.773 1.482,-48.008 z"
           id="path3400"
           inkscape:connector-curvature="0" />
        <path
           id="path3402"
           d="m -72.92372,280.72115 c 0,-13.819 -12.131,-9.963 -29.406,-9.963 -17.275,0 -29.406,-3.856 -29.406,9.963 0,6.236 -0.741,26.838 1.482,48.021 1.43,10.915 5.574,25.282 16.713,10.906 9.181,-11.847 11.21,-29.07 11.21,-36.913 0,7.843 2.029,25.066 11.21,36.913 11.144,14.38 15.286,0 16.715,-10.916 0,-10e-4 0,-0.002 0,-0.003 2.222,-21.178 1.482,-41.773 1.482,-48.008 z m -52.365,35.957 c 0,0.786 -0.65,1.422 -1.451,1.422 -0.802,0 -1.451,-0.637 -1.451,-1.422 l 0,-37.924 c 0,-0.786 0.649,-1.423 1.451,-1.423 0.801,0 1.451,0.637 1.451,1.423 l 0,37.924 z m 6.282,21.18 c 0,0.786 -0.649,1.422 -1.451,1.422 -0.802,0 -1.451,-0.637 -1.451,-1.422 l 0,-56.475 c 0,-0.785 0.649,-1.422 1.451,-1.422 0.802,0 1.451,0.637 1.451,1.422 l 0,56.475 z m 6.283,-8.219 c 0,0.786 -0.649,1.422 -1.451,1.422 -0.802,0 -1.451,-0.637 -1.451,-1.422 l 0,-46.932 c 0,-0.786 0.649,-1.423 1.451,-1.423 0.802,0 1.451,0.637 1.451,1.423 l 0,46.932 z m 6.282,-15.806 c 0,0.786 -0.649,1.423 -1.451,1.423 -0.802,0 -1.451,-0.637 -1.451,-1.423 l 0,-30.5 c 0,-0.786 0.649,-1.422 1.451,-1.422 0.802,0 1.451,0.637 1.451,1.422 l 0,30.5 z m 11.125,0 c 0,0.786 -0.649,1.423 -1.451,1.423 -0.801,0 -1.451,-0.637 -1.451,-1.423 l 0,-30.5 c 0,-0.786 0.65,-1.422 1.451,-1.422 0.802,0 1.451,0.637 1.451,1.422 l 0,30.5 z m 6.282,15.806 c 0,0.786 -0.65,1.422 -1.451,1.422 -0.802,0 -1.451,-0.637 -1.451,-1.422 l 0,-46.932 c 0,-0.786 0.649,-1.423 1.451,-1.423 0.801,0 1.451,0.637 1.451,1.423 l 0,46.932 z m 6.283,8.219 c 0,0.786 -0.65,1.422 -1.451,1.422 -0.802,0 -1.451,-0.637 -1.451,-1.422 l 0,-56.475 c 0,-0.785 0.649,-1.422 1.451,-1.422 0.801,0 1.451,0.637 1.451,1.422 l 0,56.475 z m 6.282,-21.18 c 0,0.786 -0.649,1.422 -1.451,1.422 -0.801,0 -1.451,-0.637 -1.451,-1.422 l 0,-37.924 c 0,-0.786 0.65,-1.423 1.451,-1.423 0.802,0 1.451,0.637 1.451,1.423 l 0,37.924 z"
           style="fill:#0000cc;stroke:#333333;stroke-width:0.79865015;display:inline"
           inkscape:connector-curvature="0" />
        <line
           style="fill:none;stroke:#333333;stroke-width:2.39595056;stroke-linecap:round;stroke-linejoin:round"
           x1="-102.32972"
           y1="302.73416"
           x2="-102.32972"
           y2="276.84915"
           id="line3404" />
        <path
           style="fill:#0000cc;stroke:#333333;stroke-width:2.39595056;stroke-linecap:round;stroke-linejoin:round"
           d="m -102.32972,230.89615 c -4.617,0 -10.543,5.927 -5.827,13.869 l 11.653,0 c 4.716,-7.942 -1.209,-13.869 -5.826,-13.869 z"
           id="path3406"
           inkscape:connector-curvature="0" />
        <path
           style="fill:#0000cc;stroke:#333333;stroke-width:2.39595056;stroke-linecap:round;stroke-linejoin:round"
           d="m -102.32972,243.02615 c -17.799,0 -28.118,17.069 -28.118,24.656 0,2.845 6.735,9.167 28.118,9.167 21.383,0 28.118,-6.322 28.118,-9.167 -0.001,-7.587 -10.32,-24.656 -28.118,-24.656 z"
           id="path3408"
           inkscape:connector-curvature="0" />
        <path
           id="path3410"
           d="m -87.50772,361.18515 c 1.074,-3.629 0.644,-6.942 -0.959,-7.398 -1.604,-0.456 -3.776,2.117 -4.851,5.747 -1.075,3.63 -0.645,6.942 0.959,7.398 1.604,0.456 3.776,-2.117 4.851,-5.747 z"
           style="fill:#ffffff;stroke:#333333;stroke-width:0.79865015;stroke-linecap:round;stroke-linejoin:round"
           inkscape:connector-curvature="0" />
        <path
           id="path3412"
           d="m -112.08972,249.53015 c -3.31,1.604 -5.887,3.824 -7.743,5.839 -3.861,4.191 -6.01,9.084 -6.221,11.86 0.914,1.113 4.813,3.704 14.098,4.822 2.541,-9.947 1.604,-17.401 -0.134,-22.521 z"
           style="fill:#ffffff;stroke:#333333;stroke-width:0.79865015;stroke-linecap:round;stroke-linejoin:round"
           inkscape:connector-curvature="0" />
        <path
           id="path3414"
           d="m -123.28772,345.41115 c 2.978,14.871 7.206,23.508 11.556,28.372 -3.662,-10.618 -5.13,-21.34 -5.622,-30.068 -2.356,1.931 -4.312,2.331 -5.934,1.696 z"
           style="fill:#ffffff;stroke:#333333;stroke-width:0.79865015;stroke-linecap:round;stroke-linejoin:round"
           inkscape:connector-curvature="0" />
        <path
           id="path3416"
           d="m -106.64472,243.38015 c 0.889,-0.144 1.796,-0.253 2.729,-0.307 0.724,-0.881 1.199,-2.372 1.199,-4.063 0,-2.706 -1.218,-4.9 -2.72,-4.9 -1.502,0 -2.72,2.194 -2.72,4.9 0,1.921 0.619,3.567 1.512,4.37 z"
           style="fill:#ffffff;stroke:#333333;stroke-width:0.79865015;stroke-linecap:round;stroke-linejoin:round"
           inkscape:connector-curvature="0" />
      </g>
      <g
         transform="matrix(1.2521127,0,0,1.2521127,428.12958,83.323458)"
         id="g3418"
         style="display:inline">
        <path
           style="fill:#0000cc;stroke:#333333;stroke-width:0.79865015"
           inkscape:connector-curvature="0"
           d="m -145.35872,248.50015 c -6.404,-15.157 -7.206,-24.397 -7.271,-34.395 2.817,-0.708 3.535,-3.011 3.907,-4.222 0,0 0.081,-0.23 0.151,-0.432 0.687,-0.26 1.178,-0.905 1.178,-1.671 0,-0.995 -0.823,-1.802 -1.838,-1.802 -2.131,0 -2.725,1.936 -3.011,2.866 -0.407,1.327 -0.576,1.875 -2.231,1.875 -1.655,0 -1.823,-0.549 -2.23,-1.875 -0.286,-0.93 -0.88,-2.866 -3.011,-2.866 -1.015,0 -1.838,0.807 -1.838,1.802 0,0.766 0.491,1.411 1.178,1.671 0.07,0.202 0.151,0.432 0.151,0.432 0.372,1.212 1.091,3.52 3.919,4.225 0.064,10.402 0.888,20.003 7.55,35.771 0.389,0.919 1.464,1.355 2.402,0.975 0.937,-0.38 1.383,-1.434 0.994,-2.354 z"
           id="path3420" />
        <path
           style="fill:#0000cc;stroke:#333333;stroke-width:0.79865015"
           inkscape:connector-curvature="0"
           d="m -148.76772,309.74615 c -0.855,-0.536 -1.992,-0.291 -2.539,0.548 -2.731,4.188 -5.921,7.777 -8.735,10.944 -4.553,5.123 -8.529,9.612 -9.215,14.927 -2.919,0.671 -3.652,3.024 -4.029,4.251 -0.041,0.132 -0.088,0.288 -0.134,0.421 -0.696,0.257 -1.195,0.91 -1.195,1.682 0,0.996 0.823,1.802 1.838,1.802 2.131,0 2.726,-1.936 3.011,-2.866 0.407,-1.327 0.576,-1.875 2.23,-1.875 1.654,0 1.824,0.549 2.231,1.875 0.286,0.93 0.88,2.866 3.011,2.866 1.015,0 1.838,-0.806 1.838,-1.802 0,-0.772 -0.498,-1.425 -1.194,-1.682 -0.045,-0.133 -0.094,-0.289 -0.134,-0.421 -0.366,-1.191 -1.064,-3.442 -3.771,-4.188 0.706,-4.086 4.102,-7.916 8.285,-12.623 2.898,-3.261 6.183,-6.956 9.062,-11.37 0.546,-0.838 0.295,-1.952 -0.56,-2.489 z"
           id="path3422" />
        <path
           style="fill:#0000cc;stroke:#333333;stroke-width:0.79865015"
           inkscape:connector-curvature="0"
           d="m -139.95672,353.48615 c 0.257,-0.963 -0.332,-1.948 -1.313,-2.199 -0.983,-0.251 -1.987,0.325 -2.244,1.288 -2.104,7.897 -4.672,13.694 -6.938,18.809 -2.472,5.582 -4.458,10.109 -4.817,15.131 -2.885,0.685 -3.613,3.02 -3.988,4.242 -0.041,0.132 -0.089,0.287 -0.134,0.421 -0.696,0.256 -1.195,0.91 -1.195,1.682 0,0.995 0.823,1.802 1.838,1.802 2.131,0 2.725,-1.936 3.011,-2.866 0.407,-1.326 0.576,-1.875 2.231,-1.875 1.655,0 1.823,0.549 2.23,1.875 0.286,0.931 0.88,2.866 3.011,2.866 1.015,0 1.838,-0.807 1.838,-1.802 0,-0.772 -0.499,-1.426 -1.195,-1.682 -0.045,-0.134 -0.093,-0.289 -0.134,-0.421 -0.369,-1.2 -1.076,-3.475 -3.834,-4.204 0.37,-4.359 2.22,-8.562 4.51,-13.733 2.204,-4.976 4.946,-11.168 7.123,-19.334 z"
           id="path3424" />
        <path
           style="fill:#0000cc;stroke:#333333;stroke-width:0.79865015"
           inkscape:connector-curvature="0"
           d="m -59.30172,248.50015 c 6.403,-15.157 7.206,-24.397 7.27,-34.395 -2.817,-0.708 -3.535,-3.011 -3.907,-4.222 0,0 -0.081,-0.23 -0.15,-0.432 -0.687,-0.26 -1.178,-0.905 -1.178,-1.671 0,-0.995 0.823,-1.802 1.838,-1.802 2.131,0 2.726,1.936 3.011,2.866 0.407,1.327 0.577,1.875 2.231,1.875 1.655,0 1.823,-0.549 2.23,-1.875 0.286,-0.93 0.88,-2.866 3.011,-2.866 1.016,0 1.838,0.807 1.838,1.802 0,0.766 -0.491,1.411 -1.178,1.671 -0.07,0.202 -0.151,0.432 -0.151,0.432 -0.371,1.212 -1.091,3.52 -3.919,4.225 -0.064,10.402 -0.888,20.003 -7.549,35.771 -0.389,0.919 -1.464,1.355 -2.402,0.975 -0.939,-0.38 -1.384,-1.434 -0.995,-2.354 z"
           id="path3426" />
        <path
           style="fill:#0000cc;stroke:#333333;stroke-width:0.79865015"
           inkscape:connector-curvature="0"
           d="m -55.89272,309.74615 c 0.855,-0.536 1.992,-0.291 2.539,0.548 2.731,4.188 5.921,7.777 8.735,10.944 4.553,5.123 8.529,9.612 9.215,14.927 2.919,0.671 3.652,3.024 4.029,4.251 0.041,0.132 0.088,0.288 0.134,0.421 0.696,0.257 1.194,0.91 1.194,1.682 0,0.996 -0.823,1.802 -1.837,1.802 -2.131,0 -2.726,-1.936 -3.011,-2.866 -0.407,-1.327 -0.576,-1.875 -2.23,-1.875 -1.655,0 -1.824,0.549 -2.231,1.875 -0.286,0.93 -0.88,2.866 -3.011,2.866 -1.016,0 -1.838,-0.806 -1.838,-1.802 0,-0.772 0.499,-1.425 1.195,-1.682 0.045,-0.133 0.094,-0.289 0.134,-0.421 0.366,-1.191 1.064,-3.442 3.771,-4.188 -0.707,-4.086 -4.102,-7.916 -8.286,-12.623 -2.897,-3.261 -6.183,-6.956 -9.062,-11.37 -0.546,-0.838 -0.295,-1.952 0.56,-2.489 z"
           id="path3428" />
        <path
           style="fill:#0000cc;stroke:#333333;stroke-width:0.79865015"
           inkscape:connector-curvature="0"
           d="m -64.70372,353.48615 c -0.257,-0.963 0.332,-1.948 1.313,-2.199 0.983,-0.251 1.987,0.325 2.244,1.288 2.104,7.897 4.672,13.694 6.938,18.809 2.472,5.582 4.458,10.109 4.817,15.131 2.884,0.685 3.613,3.02 3.988,4.242 0.041,0.132 0.089,0.287 0.134,0.421 0.696,0.256 1.194,0.91 1.194,1.682 0,0.995 -0.823,1.802 -1.837,1.802 -2.131,0 -2.726,-1.936 -3.011,-2.866 -0.407,-1.326 -0.577,-1.875 -2.231,-1.875 -1.655,0 -1.823,0.549 -2.23,1.875 -0.286,0.931 -0.88,2.866 -3.011,2.866 -1.016,0 -1.838,-0.807 -1.838,-1.802 0,-0.772 0.499,-1.426 1.195,-1.682 0.045,-0.134 0.093,-0.289 0.134,-0.421 0.369,-1.2 1.076,-3.475 3.834,-4.204 -0.37,-4.359 -2.219,-8.562 -4.51,-13.733 -2.204,-4.976 -4.946,-11.168 -7.123,-19.334 z"
           id="path3430" />
        <path
           style="fill:#0000cc;stroke:#333333;stroke-width:0.79865015"
           inkscape:connector-curvature="0"
           d="m -127.62672,261.36015 c -13.544,-3.437 -13.423,-9.009 -14.995,-13.276 -1.572,-4.267 -4.837,-0.948 -4.837,-0.948 -5.926,-2.252 -7.74,4.03 -7.74,4.03 4.233,-1.778 5.321,0 9.191,5.216 3.87,5.216 8.646,5.986 17.717,9.661 l 0.664,-4.683 z"
           id="path3432" />
        <path
           style="fill:#0000cc;stroke:#333333;stroke-width:0.79865015"
           inkscape:connector-curvature="0"
           d="m -129.35972,278.39115 c -10.602,0 -12.537,13.473 -18.342,23.43 -5.805,9.957 -9.554,10.155 -7.014,12.644 0.847,0.83 3.386,0.237 3.386,0.237 0,0 -0.363,4.386 5.381,5.275 0,0 -2.54,-6.875 1.451,-13.869 3.991,-6.994 7.8,-20.448 15.177,-20.448 l -0.039,-7.269 z"
           id="path3434" />
        <path
           style="fill:#0000cc;stroke:#333333;stroke-width:0.79865015"
           inkscape:connector-curvature="0"
           d="m -129.31972,306.40515 c -9.433,0 -12.818,12.328 -12.818,26.552 0,14.224 -1.371,16.595 -2.661,19.598 -1.29,3.003 0.806,6.006 2.741,4.11 0,0 1.128,3.635 6.289,0 0,0 -3.427,-0.948 -2.621,-6.48 0.807,-5.532 -0.604,-33.666 9.07,-29.082 l 0,-14.698 z"
           id="path3436" />
        <path
           style="fill:#0000cc;stroke:#333333;stroke-width:0.79865015"
           inkscape:connector-curvature="0"
           d="m -77.03372,261.36015 c 13.544,-3.438 13.423,-9.009 14.996,-13.276 1.572,-4.267 4.837,-0.948 4.837,-0.948 5.926,-2.252 7.74,4.03 7.74,4.03 -4.233,-1.778 -5.321,0 -9.191,5.216 -3.87,5.216 -8.647,5.986 -17.717,9.661 l -0.665,-4.683 z"
           id="path3438" />
        <path
           style="fill:#0000cc;stroke:#333333;stroke-width:0.79865015"
           inkscape:connector-curvature="0"
           d="m -75.30072,278.39115 c 10.602,0 12.537,13.473 18.342,23.43 5.805,9.957 9.554,10.155 7.014,12.644 -0.847,0.83 -3.386,0.237 -3.386,0.237 0,0 0.363,4.386 -5.381,5.275 0,0 2.54,-6.875 -1.451,-13.869 -3.991,-6.994 -7.8,-20.448 -15.177,-20.448 l 0.039,-7.269 z"
           id="path3440" />
        <path
           style="fill:#0000cc;stroke:#333333;stroke-width:0.79865015"
           inkscape:connector-curvature="0"
           d="m -75.34072,306.40515 c 9.433,0 12.818,12.328 12.818,26.552 0,14.224 1.371,16.595 2.661,19.598 1.29,3.003 -0.807,6.006 -2.742,4.11 0,0 -1.128,3.635 -6.289,0 0,0 3.427,-0.948 2.621,-6.48 -0.807,-5.532 0.604,-33.666 -9.07,-29.082 l 0,-14.698 10e-4,0 z"
           id="path3442" />
        <path
           style="fill:#0000cc;stroke:#333333;stroke-width:0.79865015"
           inkscape:connector-curvature="0"
           id="path3444"
           d="m -103.49872,231.74315 c -4.981,-3.921 -10.316,-6.226 -14.603,-8.077 -5.355,-2.313 -8.56,-3.826 -9.467,-6.412 4.324,-0.667 6.133,-3.619 6.133,-9.711 0,-0.996 -0.823,-1.802 -1.838,-1.802 -1.015,0 -1.838,0.806 -1.838,1.802 0,3.123 -0.456,4.684 -1.306,5.469 l 0,-5.447 c 0,-0.786 -0.649,-1.824 -1.451,-1.824 -0.801,0 -1.451,1.039 -1.451,1.824 l 0,6.233 c -0.119,0.001 -0.238,0.002 -0.363,0.002 -0.124,0 -0.243,-0.001 -0.363,-0.002 l 0,-6.233 c 0,-0.786 -0.649,-1.824 -1.451,-1.824 -0.801,0 -1.451,1.039 -1.451,1.824 l 0,5.447 c -0.85,-0.785 -1.306,-2.346 -1.306,-5.469 0,-0.996 -0.823,-1.802 -1.838,-1.802 -1.015,0 -1.838,0.806 -1.838,1.802 0,6.293 1.938,9.231 6.578,9.765 0.936,4.961 5.989,7.16 11.768,9.655 4.302,1.858 9.179,3.964 13.783,7.589 0.792,0.623 1.949,0.499 2.584,-0.276 0.636,-0.776 0.51,-1.91 -0.282,-2.533 z" />
        <path
           style="fill:#0000cc;stroke:#333333;stroke-width:0.79865015"
           inkscape:connector-curvature="0"
           id="path3446"
           d="m -101.16172,231.74315 c 4.981,-3.921 10.316,-6.226 14.603,-8.077 5.355,-2.313 8.56,-3.826 9.467,-6.412 -4.323,-0.667 -6.133,-3.619 -6.133,-9.711 0,-0.996 0.823,-1.802 1.838,-1.802 1.015,0 1.838,0.806 1.838,1.802 0,3.123 0.456,4.684 1.306,5.469 l 0,-5.447 c 0,-0.786 0.649,-1.824 1.452,-1.824 0.801,0 1.451,1.039 1.451,1.824 l 0,6.233 c 0.119,0.001 0.238,0.002 0.363,0.002 0.124,0 0.243,-0.001 0.363,-0.002 l 0,-6.233 c 0,-0.786 0.649,-1.824 1.451,-1.824 0.801,0 1.451,1.039 1.451,1.824 l 0,5.447 c 0.849,-0.785 1.306,-2.346 1.306,-5.469 0,-0.996 0.823,-1.802 1.838,-1.802 1.015,0 1.837,0.806 1.837,1.802 0,6.293 -1.938,9.231 -6.577,9.765 -0.936,4.961 -5.989,7.16 -11.769,9.655 -4.302,1.858 -9.178,3.964 -13.783,7.589 -0.792,0.623 -1.948,0.499 -2.584,-0.276 -0.636,-0.776 -0.51,-1.91 0.282,-2.533 z" />
        <path
           inkscape:connector-curvature="0"
           style="fill:#0000cc;stroke:#333333;stroke-width:2.39595056;stroke-linecap:round;stroke-linejoin:round"
           d="m -72.92372,280.72115 c 0,-13.819 -12.131,-9.963 -29.406,-9.963 -17.275,0 -29.406,-3.856 -29.406,9.963 0,12.884 -3.163,87.088 23.202,101.031 l -0.015,0.003 c 5.706,2.888 4.029,15.662 6.22,15.662 2.191,0 0.514,-12.774 6.22,-15.662 l -0.015,-0.003 c 26.363,-13.943 23.2,-88.147 23.2,-101.031 z"
           id="path3448" />
        <path
           inkscape:connector-curvature="0"
           id="path3450"
           d="m -72.92372,280.72115 c 0,-13.819 -12.131,-9.963 -29.406,-9.963 -17.275,0 -29.406,-3.856 -29.406,9.963 0,6.236 -0.741,26.838 1.482,48.021 1.43,10.915 5.574,25.282 16.713,10.906 9.181,-11.847 11.21,-29.07 11.21,-36.913 0,7.843 2.029,25.066 11.21,36.913 11.144,14.38 15.286,0 16.715,-10.916 0,-10e-4 0,-0.002 0,-0.003 2.222,-21.178 1.482,-41.773 1.482,-48.008 z"
           style="fill:#000000;stroke:#000000;stroke-width:2.39595056;stroke-linecap:round;stroke-linejoin:round" />
        <path
           inkscape:connector-curvature="0"
           style="fill:#0000cc;stroke:#333333;stroke-width:0.79865015;display:inline"
           d="m -72.92372,280.72115 c 0,-13.819 -12.131,-9.963 -29.406,-9.963 -17.275,0 -29.406,-3.856 -29.406,9.963 0,6.236 -0.741,26.838 1.482,48.021 1.43,10.915 5.574,25.282 16.713,10.906 9.181,-11.847 11.21,-29.07 11.21,-36.913 0,7.843 2.029,25.066 11.21,36.913 11.144,14.38 15.286,0 16.715,-10.916 0,-10e-4 0,-0.002 0,-0.003 2.222,-21.178 1.482,-41.773 1.482,-48.008 z m -52.365,35.957 c 0,0.786 -0.65,1.422 -1.451,1.422 -0.802,0 -1.451,-0.637 -1.451,-1.422 l 0,-37.924 c 0,-0.786 0.649,-1.423 1.451,-1.423 0.801,0 1.451,0.637 1.451,1.423 l 0,37.924 z m 6.282,21.18 c 0,0.786 -0.649,1.422 -1.451,1.422 -0.802,0 -1.451,-0.637 -1.451,-1.422 l 0,-56.475 c 0,-0.785 0.649,-1.422 1.451,-1.422 0.802,0 1.451,0.637 1.451,1.422 l 0,56.475 z m 6.283,-8.219 c 0,0.786 -0.649,1.422 -1.451,1.422 -0.802,0 -1.451,-0.637 -1.451,-1.422 l 0,-46.932 c 0,-0.786 0.649,-1.423 1.451,-1.423 0.802,0 1.451,0.637 1.451,1.423 l 0,46.932 z m 6.282,-15.806 c 0,0.786 -0.649,1.423 -1.451,1.423 -0.802,0 -1.451,-0.637 -1.451,-1.423 l 0,-30.5 c 0,-0.786 0.649,-1.422 1.451,-1.422 0.802,0 1.451,0.637 1.451,1.422 l 0,30.5 z m 11.125,0 c 0,0.786 -0.649,1.423 -1.451,1.423 -0.801,0 -1.451,-0.637 -1.451,-1.423 l 0,-30.5 c 0,-0.786 0.65,-1.422 1.451,-1.422 0.802,0 1.451,0.637 1.451,1.422 l 0,30.5 z m 6.282,15.806 c 0,0.786 -0.65,1.422 -1.451,1.422 -0.802,0 -1.451,-0.637 -1.451,-1.422 l 0,-46.932 c 0,-0.786 0.649,-1.423 1.451,-1.423 0.801,0 1.451,0.637 1.451,1.423 l 0,46.932 z m 6.283,8.219 c 0,0.786 -0.65,1.422 -1.451,1.422 -0.802,0 -1.451,-0.637 -1.451,-1.422 l 0,-56.475 c 0,-0.785 0.649,-1.422 1.451,-1.422 0.801,0 1.451,0.637 1.451,1.422 l 0,56.475 z m 6.282,-21.18 c 0,0.786 -0.649,1.422 -1.451,1.422 -0.801,0 -1.451,-0.637 -1.451,-1.422 l 0,-37.924 c 0,-0.786 0.65,-1.423 1.451,-1.423 0.802,0 1.451,0.637 1.451,1.423 l 0,37.924 z"
           id="path3452" />
        <line
           id="line3454"
           y2="276.84915"
           x2="-102.32972"
           y1="302.73416"
           x1="-102.32972"
           style="fill:none;stroke:#333333;stroke-width:2.39595056;stroke-linecap:round;stroke-linejoin:round" />
        <path
           inkscape:connector-curvature="0"
           id="path3456"
           d="m -102.32972,230.89615 c -4.617,0 -10.543,5.927 -5.827,13.869 l 11.653,0 c 4.716,-7.942 -1.209,-13.869 -5.826,-13.869 z"
           style="fill:#0000cc;stroke:#333333;stroke-width:2.39595056;stroke-linecap:round;stroke-linejoin:round" />
        <path
           inkscape:connector-curvature="0"
           id="path3458"
           d="m -102.32972,243.02615 c -17.799,0 -28.118,17.069 -28.118,24.656 0,2.845 6.735,9.167 28.118,9.167 21.383,0 28.118,-6.322 28.118,-9.167 -0.001,-7.587 -10.32,-24.656 -28.118,-24.656 z"
           style="fill:#0000cc;stroke:#333333;stroke-width:2.39595056;stroke-linecap:round;stroke-linejoin:round" />
        <path
           inkscape:connector-curvature="0"
           style="fill:#ffffff;stroke:#333333;stroke-width:0.79865015;stroke-linecap:round;stroke-linejoin:round"
           d="m -87.50772,361.18515 c 1.074,-3.629 0.644,-6.942 -0.959,-7.398 -1.604,-0.456 -3.776,2.117 -4.851,5.747 -1.075,3.63 -0.645,6.942 0.959,7.398 1.604,0.456 3.776,-2.117 4.851,-5.747 z"
           id="path3460" />
        <path
           inkscape:connector-curvature="0"
           style="fill:#ffffff;stroke:#333333;stroke-width:0.79865015;stroke-linecap:round;stroke-linejoin:round"
           d="m -112.08972,249.53015 c -3.31,1.604 -5.887,3.824 -7.743,5.839 -3.861,4.191 -6.01,9.084 -6.221,11.86 0.914,1.113 4.813,3.704 14.098,4.822 2.541,-9.947 1.604,-17.401 -0.134,-22.521 z"
           id="path3462" />
        <path
           inkscape:connector-curvature="0"
           style="fill:#ffffff;stroke:#333333;stroke-width:0.79865015;stroke-linecap:round;stroke-linejoin:round"
           d="m -123.28772,345.41115 c 2.978,14.871 7.206,23.508 11.556,28.372 -3.662,-10.618 -5.13,-21.34 -5.622,-30.068 -2.356,1.931 -4.312,2.331 -5.934,1.696 z"
           id="path3464" />
        <path
           inkscape:connector-curvature="0"
           style="fill:#ffffff;stroke:#333333;stroke-width:0.79865015;stroke-linecap:round;stroke-linejoin:round"
           d="m -106.64472,243.38015 c 0.889,-0.144 1.796,-0.253 2.729,-0.307 0.724,-0.881 1.199,-2.372 1.199,-4.063 0,-2.706 -1.218,-4.9 -2.72,-4.9 -1.502,0 -2.72,2.194 -2.72,4.9 0,1.921 0.619,3.567 1.512,4.37 z"
           id="path3466" />
      </g>
    </g>
  </g>
  <g
     inkscape:groupmode="layer"
     id="layer1"
     inkscape:label="Cover"
     style="display:inline"
     sodipodi:insensitive="true">
    <path
       d="m 2,2 v 257 c 0,286 298,398 298,398 0,0 298,-112 298,-398 V 2 z"
       id="shine"
       inkscape:connector-curvature="0"
       style="fill:url(#radialGradient3074);stroke:#000000;stroke-width:3" />
  </g>
</svg>
