<?xml version="1.0" encoding="UTF-8" standalone="no"?>
<svg
   xmlns:dc="http://purl.org/dc/elements/1.1/"
   xmlns:cc="http://creativecommons.org/ns#"
   xmlns:rdf="http://www.w3.org/1999/02/22-rdf-syntax-ns#"
   xmlns:svg="http://www.w3.org/2000/svg"
   xmlns="http://www.w3.org/2000/svg"
   xmlns:xlink="http://www.w3.org/1999/xlink"
   xmlns:sodipodi="http://sodipodi.sourceforge.net/DTD/sodipodi-0.dtd"
   xmlns:inkscape="http://www.inkscape.org/namespaces/inkscape"
   width="600"
   height="660"
   id="svg2"
   version="1.1"
   inkscape:version="0.48.2 r9819"
   sodipodi:docname="House_Costayne1.svg">
  <metadata
     id="metadata31">
    <rdf:RDF>
      <cc:Work
         rdf:about="">
        <dc:format>image/svg+xml</dc:format>
        <dc:type
           rdf:resource="http://purl.org/dc/dcmitype/StillImage" />
        <dc:title />
      </cc:Work>
    </rdf:RDF>
  </metadata>
  <sodipodi:namedview
     pagecolor="#ffffff"
     bordercolor="#666666"
     borderopacity="1"
     objecttolerance="10"
     gridtolerance="10"
     guidetolerance="10"
     inkscape:pageopacity="0"
     inkscape:pageshadow="2"
     inkscape:window-width="1366"
     inkscape:window-height="715"
     id="namedview29"
     showgrid="false"
     inkscape:zoom="0.50568849"
     inkscape:cx="228.01573"
     inkscape:cy="506.7804"
     inkscape:window-x="-8"
     inkscape:window-y="-8"
     inkscape:window-maximized="1"
     inkscape:current-layer="svg2" />
  <defs
     id="defs4">
    <radialGradient
       id="rg"
       gradientUnits="userSpaceOnUse"
       cx="220"
       cy="220"
       r="405">
      <stop
         style="stop-color:#fff;stop-opacity:.3"
         offset="0"
         id="stop7" />
      <stop
         style="stop-color:#fff;stop-opacity:.2"
         offset=".2"
         id="stop9" />
      <stop
         style="stop-color:#666;stop-opacity:.1"
         offset=".6"
         id="stop11" />
      <stop
         style="stop-color:#000;stop-opacity:.13"
         offset="1"
         id="stop13" />
    </radialGradient>
    <path
       id="shield"
       d="m2,2v257c0,286 298,398 298,398c0,0 298-112 298-398V2z" />
    <path
       id="sun"
       transform="scale(0.5)"
       d="m 300,75 c -13.62764,18.187994 -14.7587,37.358523 -11.35338,57.255633 3.37716,19.73229 1.86698,38.88973 -10.26314,55.75188 -6.02002,-22.34209 -17.30287,-37.32697 -32.10528,-47.33082 -17.67053,-11.94222 -27.0654,-27.58421 -32.36843,-48.533841 -5.63006,22.018581 0.63056,40.138661 11.391,57.218041 10.66568,16.929 16.61987,35.2056 11.87969,55.41354 -14.11046,-18.33078 -30.28137,-27.85151 -47.78196,-31.42856 -20.8955,-4.27099 -35.57979,-15.11806 -48.49623,-32.44361 3.22465,22.49705 15.96628,36.83477 32.44361,48.49621 16.34177,11.5655 28.83456,26.18881 32.18044,46.69175 -20.05693,-11.54286 -38.62376,-14.18274 -56.16541,-10.78948 -20.93937,4.0505 -38.65458,-0.32715 -57.218047,-11.39098 11.588457,19.55055 28.848127,27.90026 48.533857,32.36842 19.51603,4.42963 36.61848,13.17924 47.55637,30.82706 -22.93117,-2.98029 -41.07684,1.69827 -55.97743,11.54141 -17.79541,11.75533 -35.871343,14.47109 -57.255647,11.35336 18.187968,13.62766 37.358527,14.75873 57.255647,11.35339 19.73227,-3.37714 38.88973,-1.86699 55.75186,10.26312 -22.34207,6.02003 -37.32695,17.30286 -47.3308,32.10527 -11.94225,17.67055 -27.58422,27.06539 -48.533856,32.36845 22.018576,5.63009 40.138666,-0.63059 57.218046,-11.39099 16.92898,-10.66568 35.20559,-16.6199 55.41352,-11.8797 -18.33076,14.11046 -27.85152,30.28137 -31.42855,47.78196 -4.27097,20.89547 -15.11804,35.57987 -32.44361,48.49612 22.49705,-3.22449 36.83479,-15.96607 48.49623,-32.4435 11.5655,-16.34179 26.1888,-28.83459 46.69172,-32.18044 -11.54287,20.05693 -14.18274,38.62386 -10.78945,56.16536 4.0505,20.9394 -0.32714,38.65456 -11.391,57.21799 19.55055,-11.58837 27.90025,-28.84804 32.36843,-48.53369 4.43327,-19.53206 13.18767,-36.65734 30.8647,-47.59403 -2.9915,22.95001 1.6553,41.14403 11.50372,56.0526 11.75533,17.7954 14.47108,35.83378 11.35338,57.218 13.62765,-18.18792 14.75879,-37.32085 11.35337,-57.218 -3.37714,-19.73237 -1.83139,-38.92522 10.30078,-55.78946 6.02097,22.32989 17.27086,37.36821 32.06766,47.36846 17.67052,11.9423 27.06541,27.54657 32.36842,48.49612 5.63009,-22.01847 -0.6305,-40.10101 -11.39096,-57.18042 -10.6719,-16.93874 -16.59857,-35.2641 -11.8421,-55.48867 14.10915,18.33209 30.24374,27.88914 47.74437,31.46618 20.89548,4.27082 35.57982,15.11806 48.49622,32.4435 -3.22465,-22.49707 -15.96624,-36.83471 -32.44361,-48.49612 -16.34175,-11.56544 -28.79901,-26.22437 -32.14285,-46.72935 20.0466,11.53229 38.59349,14.21895 56.1278,10.82709 20.93937,-4.05056 38.65467,0.32718 57.21804,11.39099 -11.58846,-19.55061 -28.84807,-27.9003 -48.53383,-32.36845 -19.51602,-4.42962 -36.58198,-13.21415 -47.51878,-30.86468 22.91491,2.97174 41.0849,-1.66597 55.97745,-11.50371 17.79536,-11.75534 35.83378,-14.4711 57.21803,-11.35339 -18.18798,-13.62768 -37.32091,-14.75877 -57.21803,-11.35336 -19.73227,3.37716 -38.92532,1.83138 -55.7895,-10.30079 22.32977,-6.02102 37.36835,-17.27087 47.36843,-32.06768 11.94223,-17.67051 27.54665,-27.06541 48.49623,-32.36842 -22.01853,-5.63007 -40.10106,0.63052 -57.18041,11.39098 -16.93885,10.67188 -35.26417,16.59858 -55.48875,11.84209 18.33205,-14.10913 27.88915,-30.24376 31.46617,-47.74436 4.27096,-20.89551 15.1181,-35.5798 32.44361,-48.49621 -22.49706,3.22464 -36.8348,15.96624 -48.49622,32.44361 -11.56551,16.34174 -26.22441,28.79898 -46.72936,32.14286 11.53224,-20.04663 14.21895,-38.59353 10.82709,-56.12784 -4.05052,-20.9394 0.32717,-38.65464 11.39096,-57.218041 -19.55052,11.588441 -27.90026,28.848091 -32.36842,48.533841 -4.42738,19.50608 -13.19462,36.58129 -30.82705,47.5188 2.97039,-22.91361 -1.70361,-41.04732 -11.54139,-55.93986 -11.75533,-17.79538 -14.47112,-35.871328 -11.35337,-57.255633 z" />
    <radialGradient
       id="rg-1"
       gradientUnits="userSpaceOnUse"
       cx="220"
       cy="220"
       r="405">
      <stop
         style="stop-color:#fff;stop-opacity:.3"
         offset="0"
         id="stop7-7" />
      <stop
         style="stop-color:#fff;stop-opacity:.2"
         offset=".2"
         id="stop9-4" />
      <stop
         style="stop-color:#666;stop-opacity:.1"
         offset=".6"
         id="stop11-0" />
      <stop
         style="stop-color:#000;stop-opacity:.13"
         offset="1"
         id="stop13-9" />
    </radialGradient>
    <radialGradient
       id="radialGradient4508"
       gradientUnits="userSpaceOnUse"
       cx="220"
       cy="220"
       r="405">
      <stop
         style="stop-color:#fff;stop-opacity:.3"
         offset="0"
         id="stop4510" />
      <stop
         style="stop-color:#fff;stop-opacity:.2"
         offset=".2"
         id="stop4512" />
      <stop
         style="stop-color:#666;stop-opacity:.1"
         offset=".6"
         id="stop4514" />
      <stop
         style="stop-color:#000;stop-opacity:.13"
         offset="1"
         id="stop4516" />
    </radialGradient>
    <radialGradient
       id="rg-1-1"
       gradientUnits="userSpaceOnUse"
       cx="220"
       cy="220"
       r="405">
      <stop
         style="stop-color:#fff;stop-opacity:.3"
         offset="0"
         id="stop7-7-7" />
      <stop
         style="stop-color:#fff;stop-opacity:.2"
         offset=".2"
         id="stop9-4-4" />
      <stop
         style="stop-color:#666;stop-opacity:.1"
         offset=".6"
         id="stop11-0-0" />
      <stop
         style="stop-color:#000;stop-opacity:.13"
         offset="1"
         id="stop13-9-9" />
    </radialGradient>
    <radialGradient
       id="radialGradient3248"
       gradientUnits="userSpaceOnUse"
       cx="220"
       cy="220"
       r="405">
      <stop
         style="stop-color:#fff;stop-opacity:.3"
         offset="0"
         id="stop3250" />
      <stop
         style="stop-color:#fff;stop-opacity:.2"
         offset=".2"
         id="stop3252" />
      <stop
         style="stop-color:#666;stop-opacity:.1"
         offset=".6"
         id="stop3254" />
      <stop
         style="stop-color:#000;stop-opacity:.13"
         offset="1"
         id="stop3256" />
    </radialGradient>
  </defs>
  <use
     height="1052.3622"
     width="744.09448"
     y="0"
     x="0"
     id="bg"
     xlink:href="#shield"
     style="fill:#000000;fill-opacity:1" />
  <g
     id="g3247"
     style="fill:#ffdd00;fill-opacity:1">
    <path
       inkscape:connector-curvature="0"
       d="m 300,2 0,298 295.89258,0 C 597.26761,286.74845 598,273.0886 598,259 L 598,2 300,2 z"
       id="top-right"
       style="fill:#ffdd00;fill-opacity:1" />
    <path
       inkscape:connector-curvature="0"
       d="M 4.1074219,300 C 30.645587,555.75613 300,657 300,657 l 0,-357 -295.8925781,0 z"
       id="bottom-left"
       style="fill:#ffdd00;fill-opacity:1" />
  </g>
  <g
     id="g3453"
     transform="matrix(1.1111111,0,0,1.1111111,244.44445,-313.33333)">
    <path
       style="fill:#333333;fill-opacity:1"
       inkscape:connector-curvature="0"
       d="m 185.00001,427.68923 c -17.65795,4.46632 -34.74095,16.0764 -47.99158,34.31434 -13.25063,18.23792 -19.01355,38.07254 -17.80466,56.24641 17.65794,-4.46632 34.74095,-16.07641 47.99158,-34.31433 13.25063,-18.23793 19.01354,-38.07256 17.80466,-56.24642 z"
       id="path3455" />
    <path
       id="use3457"
       d="m 185.00001,427.68923 c -9.70433,-15.41353 -26.02511,-28.07272 -47.46509,-35.03899 -21.43997,-6.96627 -42.084646,-6.31789 -58.995462,0.44786 9.704329,15.41353 26.025122,28.07272 47.465092,35.03899 21.43997,6.96627 42.08465,6.31789 58.99546,-0.44786 z"
       inkscape:connector-curvature="0"
       style="fill:#333333;fill-opacity:1" />
    <path
       id="use3459"
       d="m 185,427.68923 c 11.66034,-13.99241 18.65654,-33.4263 18.65654,-55.96963 0,-22.54331 -6.9962,-41.97721 -18.65654,-55.96962 -11.66034,13.99241 -18.65654,33.42631 -18.65654,55.96963 0,22.54331 6.9962,41.97722 18.65654,55.96962 z"
       inkscape:connector-curvature="0"
       style="fill:#333333;fill-opacity:1" />
    <path
       id="use3461"
       d="m 185,427.68923 c 16.91081,6.76575 37.55549,7.41413 58.99546,0.44786 21.43997,-6.96627 37.76076,-19.62545 47.46509,-35.03899 -16.91081,-6.76574 -37.5555,-7.41413 -58.99547,-0.44786 C 211.02512,399.61651 194.70432,412.2757 185,427.68923 z"
       inkscape:connector-curvature="0"
       style="fill:#333333;fill-opacity:1" />
    <path
       id="use3463"
       d="m 185,427.68923 c -1.20888,18.17387 4.55403,38.00848 17.80466,56.24642 13.25063,18.23792 30.33364,29.84801 47.99158,34.31433 1.20888,-18.17387 -4.55403,-38.00849 -17.80466,-56.24642 C 219.74095,443.76564 202.65794,432.15555 185,427.68923 z"
       inkscape:connector-curvature="0"
       style="fill:#333333;fill-opacity:1" />
    <g
       transform="matrix(0.6288941,0.45691831,-0.45691831,0.6288941,185.00001,427.68923)"
       id="g3465">
      <g
         id="g3467">
        <path
           inkscape:connector-curvature="0"
           id="path3469"
           d="m 0,-115 c -53,0 -59.73,28.85 -52,40 L 0,0 52,-75 c 7.73,-11.15 1,-40 -52,-40 z"
           style="fill:#000000;stroke:#000000;stroke-width:0.2315542" />
        <path
           style="fill:#b2beb5;fill-opacity:1"
           inkscape:connector-curvature="0"
           id="path3471"
           d="m 0,-100 c 14,0 24,-4 32,-2 17,4 18,14 18,21 0,-8 -1,-18 -18,-22 -8,-2 -18,1 -32,1 -14,0 -24,-3 -32,-1 -17,4 -18,14 -18,22 0,-7 1,-17 18,-21 8,-2 18,2 32,2 z" />
        <path
           style="fill:#333333"
           inkscape:connector-curvature="0"
           id="path3473"
           d="m 0,-99 c 14,0 24,-4 32,-2 17,4 18,15 18,22 0,-6 -1,-15 -18,-19 -8,-2 -18,6 -32,6 -14,0 -24,-8 -32,-6 -17,4 -18,13 -18,19 0,-7 1,-18 18,-22 8,-2 18,2 32,2 z" />
        <path
           style="fill:#b2beb5;fill-opacity:1"
           inkscape:connector-curvature="0"
           id="path3475"
           d="m 0,-84 -6,16 c 6,-4 6,-4 12,0 z" />
        <path
           style="fill:#333333"
           inkscape:connector-curvature="0"
           id="path3477"
           d="m -5,-63 c 0,-2 2,-4 5,-4 3,0 5,2 5,4 0,3 -3,7 -5,10 -2,-3 -5,-7 -5,-10 z" />
      </g>
      <g
         id="use3479"
         transform="matrix(0.30901699,0.95105652,-0.95105652,0.30901699,0,0)">
        <path
           style="fill:#000000;stroke:#000000;stroke-width:0.23155418"
           d="m 0,-115 c -53,0 -59.73,28.85 -52,40 L 0,0 52,-75 c 7.73,-11.15 1,-40 -52,-40 z"
           id="path4159"
           inkscape:connector-curvature="0" />
        <path
           d="m 0,-100 c 14,0 24,-4 32,-2 17,4 18,14 18,21 0,-8 -1,-18 -18,-22 -8,-2 -18,1 -32,1 -14,0 -24,-3 -32,-1 -17,4 -18,14 -18,22 0,-7 1,-17 18,-21 8,-2 18,2 32,2 z"
           id="path4161"
           inkscape:connector-curvature="0"
           style="fill:#b2beb5;fill-opacity:1" />
        <path
           d="m 0,-99 c 14,0 24,-4 32,-2 17,4 18,15 18,22 0,-6 -1,-15 -18,-19 -8,-2 -18,6 -32,6 -14,0 -24,-8 -32,-6 -17,4 -18,13 -18,19 0,-7 1,-18 18,-22 8,-2 18,2 32,2 z"
           id="path4163"
           inkscape:connector-curvature="0"
           style="fill:#333333" />
        <path
           d="m 0,-84 -6,16 c 6,-4 6,-4 12,0 z"
           id="path4165"
           inkscape:connector-curvature="0"
           style="fill:#b2beb5;fill-opacity:1" />
        <path
           d="m -5,-63 c 0,-2 2,-4 5,-4 3,0 5,2 5,4 0,3 -3,7 -5,10 -2,-3 -5,-7 -5,-10 z"
           id="path4167"
           inkscape:connector-curvature="0"
           style="fill:#333333" />
      </g>
      <g
         id="use3481"
         transform="matrix(-0.80901699,0.58778525,-0.58778525,-0.80901699,0,0)">
        <path
           style="fill:#000000;stroke:#000000;stroke-width:0.23155418"
           d="m 0,-115 c -53,0 -59.73,28.85 -52,40 L 0,0 52,-75 c 7.73,-11.15 1,-40 -52,-40 z"
           id="path4171"
           inkscape:connector-curvature="0" />
        <path
           d="m 0,-100 c 14,0 24,-4 32,-2 17,4 18,14 18,21 0,-8 -1,-18 -18,-22 -8,-2 -18,1 -32,1 -14,0 -24,-3 -32,-1 -17,4 -18,14 -18,22 0,-7 1,-17 18,-21 8,-2 18,2 32,2 z"
           id="path4173"
           inkscape:connector-curvature="0"
           style="fill:#b2beb5;fill-opacity:1" />
        <path
           d="m 0,-99 c 14,0 24,-4 32,-2 17,4 18,15 18,22 0,-6 -1,-15 -18,-19 -8,-2 -18,6 -32,6 -14,0 -24,-8 -32,-6 -17,4 -18,13 -18,19 0,-7 1,-18 18,-22 8,-2 18,2 32,2 z"
           id="path4175"
           inkscape:connector-curvature="0"
           style="fill:#333333" />
        <path
           d="m 0,-84 -6,16 c 6,-4 6,-4 12,0 z"
           id="path4177"
           inkscape:connector-curvature="0"
           style="fill:#b2beb5;fill-opacity:1" />
        <path
           d="m -5,-63 c 0,-2 2,-4 5,-4 3,0 5,2 5,4 0,3 -3,7 -5,10 -2,-3 -5,-7 -5,-10 z"
           id="path4179"
           inkscape:connector-curvature="0"
           style="fill:#333333" />
      </g>
      <g
         id="use3483"
         transform="matrix(-0.80901699,-0.58778525,0.58778525,-0.80901699,0,0)">
        <path
           style="fill:#000000;stroke:#000000;stroke-width:0.23155418"
           d="m 0,-115 c -53,0 -59.73,28.85 -52,40 L 0,0 52,-75 c 7.73,-11.15 1,-40 -52,-40 z"
           id="path4183"
           inkscape:connector-curvature="0" />
        <path
           d="m 0,-100 c 14,0 24,-4 32,-2 17,4 18,14 18,21 0,-8 -1,-18 -18,-22 -8,-2 -18,1 -32,1 -14,0 -24,-3 -32,-1 -17,4 -18,14 -18,22 0,-7 1,-17 18,-21 8,-2 18,2 32,2 z"
           id="path4185"
           inkscape:connector-curvature="0"
           style="fill:#b2beb5;fill-opacity:1" />
        <path
           d="m 0,-99 c 14,0 24,-4 32,-2 17,4 18,15 18,22 0,-6 -1,-15 -18,-19 -8,-2 -18,6 -32,6 -14,0 -24,-8 -32,-6 -17,4 -18,13 -18,19 0,-7 1,-18 18,-22 8,-2 18,2 32,2 z"
           id="path4187"
           inkscape:connector-curvature="0"
           style="fill:#333333" />
        <path
           d="m 0,-84 -6,16 c 6,-4 6,-4 12,0 z"
           id="path4189"
           inkscape:connector-curvature="0"
           style="fill:#b2beb5;fill-opacity:1" />
        <path
           d="m -5,-63 c 0,-2 2,-4 5,-4 3,0 5,2 5,4 0,3 -3,7 -5,10 -2,-3 -5,-7 -5,-10 z"
           id="path4191"
           inkscape:connector-curvature="0"
           style="fill:#333333" />
      </g>
      <g
         id="use3485"
         transform="matrix(0.30901699,-0.95105652,0.95105652,0.30901699,0,0)">
        <path
           style="fill:#000000;stroke:#000000;stroke-width:0.23155418"
           d="m 0,-115 c -53,0 -59.73,28.85 -52,40 L 0,0 52,-75 c 7.73,-11.15 1,-40 -52,-40 z"
           id="path4195"
           inkscape:connector-curvature="0" />
        <path
           d="m 0,-100 c 14,0 24,-4 32,-2 17,4 18,14 18,21 0,-8 -1,-18 -18,-22 -8,-2 -18,1 -32,1 -14,0 -24,-3 -32,-1 -17,4 -18,14 -18,22 0,-7 1,-17 18,-21 8,-2 18,2 32,2 z"
           id="path4197"
           inkscape:connector-curvature="0"
           style="fill:#b2beb5;fill-opacity:1" />
        <path
           d="m 0,-99 c 14,0 24,-4 32,-2 17,4 18,15 18,22 0,-6 -1,-15 -18,-19 -8,-2 -18,6 -32,6 -14,0 -24,-8 -32,-6 -17,4 -18,13 -18,19 0,-7 1,-18 18,-22 8,-2 18,2 32,2 z"
           id="path4199"
           inkscape:connector-curvature="0"
           style="fill:#333333" />
        <path
           d="m 0,-84 -6,16 c 6,-4 6,-4 12,0 z"
           id="path4201"
           inkscape:connector-curvature="0"
           style="fill:#b2beb5;fill-opacity:1" />
        <path
           d="m -5,-63 c 0,-2 2,-4 5,-4 3,0 5,2 5,4 0,3 -3,7 -5,10 -2,-3 -5,-7 -5,-10 z"
           id="path4203"
           inkscape:connector-curvature="0"
           style="fill:#333333" />
      </g>
    </g>
    <g
       id="use3487"
       transform="matrix(0.1321189,0.40662015,-0.40662015,0.1321189,185.00001,427.68923)">
      <g
         id="g4041">
        <path
           style="fill:#000000;stroke:#000000;stroke-width:0.23155418"
           d="m 0,-115 c -53,0 -59.73,28.85 -52,40 L 0,0 52,-75 c 7.73,-11.15 1,-40 -52,-40 z"
           id="path4043"
           inkscape:connector-curvature="0" />
        <path
           d="m 0,-100 c 14,0 24,-4 32,-2 17,4 18,14 18,21 0,-8 -1,-18 -18,-22 -8,-2 -18,1 -32,1 -14,0 -24,-3 -32,-1 -17,4 -18,14 -18,22 0,-7 1,-17 18,-21 8,-2 18,2 32,2 z"
           id="path4045"
           inkscape:connector-curvature="0"
           style="fill:#b2beb5;fill-opacity:1" />
        <path
           d="m 0,-99 c 14,0 24,-4 32,-2 17,4 18,15 18,22 0,-6 -1,-15 -18,-19 -8,-2 -18,6 -32,6 -14,0 -24,-8 -32,-6 -17,4 -18,13 -18,19 0,-7 1,-18 18,-22 8,-2 18,2 32,2 z"
           id="path4047"
           inkscape:connector-curvature="0"
           style="fill:#333333" />
        <path
           d="m 0,-84 -6,16 c 6,-4 6,-4 12,0 z"
           id="path4049"
           inkscape:connector-curvature="0"
           style="fill:#b2beb5;fill-opacity:1" />
        <path
           d="m -5,-63 c 0,-2 2,-4 5,-4 3,0 5,2 5,4 0,3 -3,7 -5,10 -2,-3 -5,-7 -5,-10 z"
           id="path4051"
           inkscape:connector-curvature="0"
           style="fill:#333333" />
      </g>
      <g
         id="use4053"
         transform="matrix(0.30901699,0.95105652,-0.95105652,0.30901699,0,0)">
        <path
           style="fill:#000000;stroke:#000000;stroke-width:0.23155418"
           d="m 0,-115 c -53,0 -59.73,28.85 -52,40 L 0,0 52,-75 c 7.73,-11.15 1,-40 -52,-40 z"
           id="path4303"
           inkscape:connector-curvature="0" />
        <path
           d="m 0,-100 c 14,0 24,-4 32,-2 17,4 18,14 18,21 0,-8 -1,-18 -18,-22 -8,-2 -18,1 -32,1 -14,0 -24,-3 -32,-1 -17,4 -18,14 -18,22 0,-7 1,-17 18,-21 8,-2 18,2 32,2 z"
           id="path4305"
           inkscape:connector-curvature="0"
           style="fill:#b2beb5;fill-opacity:1" />
        <path
           d="m 0,-99 c 14,0 24,-4 32,-2 17,4 18,15 18,22 0,-6 -1,-15 -18,-19 -8,-2 -18,6 -32,6 -14,0 -24,-8 -32,-6 -17,4 -18,13 -18,19 0,-7 1,-18 18,-22 8,-2 18,2 32,2 z"
           id="path4307"
           inkscape:connector-curvature="0"
           style="fill:#333333" />
        <path
           d="m 0,-84 -6,16 c 6,-4 6,-4 12,0 z"
           id="path4309"
           inkscape:connector-curvature="0"
           style="fill:#b2beb5;fill-opacity:1" />
        <path
           d="m -5,-63 c 0,-2 2,-4 5,-4 3,0 5,2 5,4 0,3 -3,7 -5,10 -2,-3 -5,-7 -5,-10 z"
           id="path4311"
           inkscape:connector-curvature="0"
           style="fill:#333333" />
      </g>
      <g
         id="use4055"
         transform="matrix(-0.80901699,0.58778525,-0.58778525,-0.80901699,0,0)">
        <path
           style="fill:#000000;stroke:#000000;stroke-width:0.23155418"
           d="m 0,-115 c -53,0 -59.73,28.85 -52,40 L 0,0 52,-75 c 7.73,-11.15 1,-40 -52,-40 z"
           id="path4315"
           inkscape:connector-curvature="0" />
        <path
           d="m 0,-100 c 14,0 24,-4 32,-2 17,4 18,14 18,21 0,-8 -1,-18 -18,-22 -8,-2 -18,1 -32,1 -14,0 -24,-3 -32,-1 -17,4 -18,14 -18,22 0,-7 1,-17 18,-21 8,-2 18,2 32,2 z"
           id="path4317"
           inkscape:connector-curvature="0"
           style="fill:#b2beb5;fill-opacity:1" />
        <path
           d="m 0,-99 c 14,0 24,-4 32,-2 17,4 18,15 18,22 0,-6 -1,-15 -18,-19 -8,-2 -18,6 -32,6 -14,0 -24,-8 -32,-6 -17,4 -18,13 -18,19 0,-7 1,-18 18,-22 8,-2 18,2 32,2 z"
           id="path4319"
           inkscape:connector-curvature="0"
           style="fill:#333333" />
        <path
           d="m 0,-84 -6,16 c 6,-4 6,-4 12,0 z"
           id="path4321"
           inkscape:connector-curvature="0"
           style="fill:#b2beb5;fill-opacity:1" />
        <path
           d="m -5,-63 c 0,-2 2,-4 5,-4 3,0 5,2 5,4 0,3 -3,7 -5,10 -2,-3 -5,-7 -5,-10 z"
           id="path4323"
           inkscape:connector-curvature="0"
           style="fill:#333333" />
      </g>
      <g
         id="use4057"
         transform="matrix(-0.80901699,-0.58778525,0.58778525,-0.80901699,0,0)">
        <path
           style="fill:#000000;stroke:#000000;stroke-width:0.23155418"
           d="m 0,-115 c -53,0 -59.73,28.85 -52,40 L 0,0 52,-75 c 7.73,-11.15 1,-40 -52,-40 z"
           id="path4327"
           inkscape:connector-curvature="0" />
        <path
           d="m 0,-100 c 14,0 24,-4 32,-2 17,4 18,14 18,21 0,-8 -1,-18 -18,-22 -8,-2 -18,1 -32,1 -14,0 -24,-3 -32,-1 -17,4 -18,14 -18,22 0,-7 1,-17 18,-21 8,-2 18,2 32,2 z"
           id="path4329"
           inkscape:connector-curvature="0"
           style="fill:#b2beb5;fill-opacity:1" />
        <path
           d="m 0,-99 c 14,0 24,-4 32,-2 17,4 18,15 18,22 0,-6 -1,-15 -18,-19 -8,-2 -18,6 -32,6 -14,0 -24,-8 -32,-6 -17,4 -18,13 -18,19 0,-7 1,-18 18,-22 8,-2 18,2 32,2 z"
           id="path4331"
           inkscape:connector-curvature="0"
           style="fill:#333333" />
        <path
           d="m 0,-84 -6,16 c 6,-4 6,-4 12,0 z"
           id="path4333"
           inkscape:connector-curvature="0"
           style="fill:#b2beb5;fill-opacity:1" />
        <path
           d="m -5,-63 c 0,-2 2,-4 5,-4 3,0 5,2 5,4 0,3 -3,7 -5,10 -2,-3 -5,-7 -5,-10 z"
           id="path4335"
           inkscape:connector-curvature="0"
           style="fill:#333333" />
      </g>
      <g
         id="use4059"
         transform="matrix(0.30901699,-0.95105652,0.95105652,0.30901699,0,0)">
        <path
           style="fill:#000000;stroke:#000000;stroke-width:0.23155418"
           d="m 0,-115 c -53,0 -59.73,28.85 -52,40 L 0,0 52,-75 c 7.73,-11.15 1,-40 -52,-40 z"
           id="path4339"
           inkscape:connector-curvature="0" />
        <path
           d="m 0,-100 c 14,0 24,-4 32,-2 17,4 18,14 18,21 0,-8 -1,-18 -18,-22 -8,-2 -18,1 -32,1 -14,0 -24,-3 -32,-1 -17,4 -18,14 -18,22 0,-7 1,-17 18,-21 8,-2 18,2 32,2 z"
           id="path4341"
           inkscape:connector-curvature="0"
           style="fill:#b2beb5;fill-opacity:1" />
        <path
           d="m 0,-99 c 14,0 24,-4 32,-2 17,4 18,15 18,22 0,-6 -1,-15 -18,-19 -8,-2 -18,6 -32,6 -14,0 -24,-8 -32,-6 -17,4 -18,13 -18,19 0,-7 1,-18 18,-22 8,-2 18,2 32,2 z"
           id="path4343"
           inkscape:connector-curvature="0"
           style="fill:#333333" />
        <path
           d="m 0,-84 -6,16 c 6,-4 6,-4 12,0 z"
           id="path4345"
           inkscape:connector-curvature="0"
           style="fill:#b2beb5;fill-opacity:1" />
        <path
           d="m -5,-63 c 0,-2 2,-4 5,-4 3,0 5,2 5,4 0,3 -3,7 -5,10 -2,-3 -5,-7 -5,-10 z"
           id="path4347"
           inkscape:connector-curvature="0"
           style="fill:#333333" />
      </g>
    </g>
    <circle
       transform="matrix(0.6288941,0.45691831,-0.45691831,0.6288941,185.00001,427.68923)"
       sodipodi:ry="20"
       sodipodi:rx="20"
       sodipodi:cy="0"
       sodipodi:cx="0"
       cy="0"
       cx="0"
       d="m 20,0 c 0,11.045695 -8.954305,20 -20,20 -11.045695,0 -20,-8.954305 -20,-20 0,-11.045695 8.954305,-20 20,-20 11.045695,0 20,8.954305 20,20 z"
       id="circle3489"
       style="fill:#f6f6f6;fill-opacity:1;stroke:#7f7f7f;stroke-width:1.73665631;stroke-opacity:0.4"
       r="20" />
    <circle
       transform="matrix(0.6288941,0.45691831,-0.45691831,0.6288941,185.00001,427.68923)"
       sodipodi:ry="10"
       sodipodi:rx="10"
       sodipodi:cy="0"
       sodipodi:cx="0"
       cy="0"
       cx="0"
       d="M 10,0 C 10,5.5228475 5.5228475,10 0,10 -5.5228475,10 -10,5.5228475 -10,0 c 0,-5.5228475 4.4771525,-10 10,-10 5.5228475,0 10,4.4771525 10,10 z"
       id="circle3491"
       style="fill:#f6f6f6;fill-opacity:1;stroke:#7f7f7f;stroke-width:1.73665631;stroke-opacity:0.4"
       r="10" />
    <g
       transform="matrix(0.6288941,0.45691831,-0.45691831,0.6288941,185.00001,427.68923)"
       style="fill:#b2beb5;fill-opacity:1;stroke:#333300;stroke-width:1.44721365;stroke-opacity:0.4"
       id="g3493">
      <circle
         style="fill:#b2beb5;fill-opacity:1;stroke-width:1.44721365"
         sodipodi:ry="4"
         sodipodi:rx="4"
         sodipodi:cy="25"
         sodipodi:cx="0"
         cx="0"
         d="m 4,25 c 0,2.209139 -1.790861,4 -4,4 -2.209139,0 -4,-1.790861 -4,-4 0,-2.209139 1.790861,-4 4,-4 2.209139,0 4,1.790861 4,4 z"
         id="circle3495"
         cy="25"
         r="4" />
      <circle
         style="fill:#b2beb5;fill-opacity:1;stroke-width:1.44721365"
         sodipodi:ry="4"
         sodipodi:rx="4"
         sodipodi:cy="-25"
         sodipodi:cx="0"
         cx="0"
         d="m 4,-25 c 0,2.209139 -1.790861,4 -4,4 -2.209139,0 -4,-1.790861 -4,-4 0,-2.209139 1.790861,-4 4,-4 2.209139,0 4,1.790861 4,4 z"
         id="circle3497"
         cy="-25"
         r="4" />
    </g>
    <g
       id="use3499"
       style="fill:#b2beb5;fill-opacity:1;stroke:#333300;stroke-width:1.44721365;stroke-opacity:0.4"
       transform="matrix(0.43469188,0.64445721,-0.64445721,0.43469188,185.00001,427.68923)">
      <circle
         r="4"
         cy="25"
         id="circle4447"
         d="m 4,25 c 0,2.209139 -1.790861,4 -4,4 -2.209139,0 -4,-1.790861 -4,-4 0,-2.209139 1.790861,-4 4,-4 2.209139,0 4,1.790861 4,4 z"
         cx="0"
         sodipodi:cx="0"
         sodipodi:cy="25"
         sodipodi:rx="4"
         sodipodi:ry="4"
         style="fill:#b2beb5;fill-opacity:1;stroke-width:1.44721365" />
      <circle
         r="4"
         cy="-25"
         id="circle4449"
         d="m 4,-25 c 0,2.209139 -1.790861,4 -4,4 -2.209139,0 -4,-1.790861 -4,-4 0,-2.209139 1.790861,-4 4,-4 2.209139,0 4,1.790861 4,4 z"
         cx="0"
         sodipodi:cx="0"
         sodipodi:cy="-25"
         sodipodi:rx="4"
         sodipodi:ry="4"
         style="fill:#b2beb5;fill-opacity:1;stroke-width:1.44721365" />
    </g>
    <g
       id="use3501"
       style="fill:#b2beb5;fill-opacity:1;stroke:#333300;stroke-width:1.44721365;stroke-opacity:0.4"
       transform="matrix(0.18805939,0.75426507,-0.75426507,0.18805939,185,427.68923)">
      <circle
         r="4"
         cy="25"
         id="circle4453"
         d="m 4,25 c 0,2.209139 -1.790861,4 -4,4 -2.209139,0 -4,-1.790861 -4,-4 0,-2.209139 1.790861,-4 4,-4 2.209139,0 4,1.790861 4,4 z"
         cx="0"
         sodipodi:cx="0"
         sodipodi:cy="25"
         sodipodi:rx="4"
         sodipodi:ry="4"
         style="fill:#b2beb5;fill-opacity:1;stroke-width:1.44721365" />
      <circle
         r="4"
         cy="-25"
         id="circle4455"
         d="m 4,-25 c 0,2.209139 -1.790861,4 -4,4 -2.209139,0 -4,-1.790861 -4,-4 0,-2.209139 1.790861,-4 4,-4 2.209139,0 4,1.790861 4,4 z"
         cx="0"
         sodipodi:cx="0"
         sodipodi:cy="-25"
         sodipodi:rx="4"
         sodipodi:ry="4"
         style="fill:#b2beb5;fill-opacity:1;stroke-width:1.44721365" />
    </g>
    <g
       id="use3503"
       style="fill:#b2beb5;fill-opacity:1;stroke:#333300;stroke-width:1.44721365;stroke-opacity:0.4"
       transform="matrix(-0.08125581,0.77309742,-0.77309742,-0.08125581,185.00001,427.68923)">
      <circle
         r="4"
         cy="25"
         id="circle4459"
         d="m 4,25 c 0,2.209139 -1.790861,4 -4,4 -2.209139,0 -4,-1.790861 -4,-4 0,-2.209139 1.790861,-4 4,-4 2.209139,0 4,1.790861 4,4 z"
         cx="0"
         sodipodi:cx="0"
         sodipodi:cy="25"
         sodipodi:rx="4"
         sodipodi:ry="4"
         style="fill:#b2beb5;fill-opacity:1;stroke-width:1.44721365" />
      <circle
         r="4"
         cy="-25"
         id="circle4461"
         d="m 4,-25 c 0,2.209139 -1.790861,4 -4,4 -2.209139,0 -4,-1.790861 -4,-4 0,-2.209139 1.790861,-4 4,-4 2.209139,0 4,1.790861 4,4 z"
         cx="0"
         sodipodi:cx="0"
         sodipodi:cy="-25"
         sodipodi:rx="4"
         sodipodi:ry="4"
         style="fill:#b2beb5;fill-opacity:1;stroke-width:1.44721365" />
    </g>
    <g
       id="use3505"
       style="fill:#b2beb5;fill-opacity:1;stroke:#333300;stroke-width:1.44721365;stroke-opacity:0.4"
       transform="matrix(-0.34077038,0.69868282,-0.69868282,-0.34077038,185,427.68923)">
      <circle
         r="4"
         cy="25"
         id="circle4465"
         d="m 4,25 c 0,2.209139 -1.790861,4 -4,4 -2.209139,0 -4,-1.790861 -4,-4 0,-2.209139 1.790861,-4 4,-4 2.209139,0 4,1.790861 4,4 z"
         cx="0"
         sodipodi:cx="0"
         sodipodi:cy="25"
         sodipodi:rx="4"
         sodipodi:ry="4"
         style="fill:#b2beb5;fill-opacity:1;stroke-width:1.44721365" />
      <circle
         r="4"
         cy="-25"
         id="circle4467"
         d="m 4,-25 c 0,2.209139 -1.790861,4 -4,4 -2.209139,0 -4,-1.790861 -4,-4 0,-2.209139 1.790861,-4 4,-4 2.209139,0 4,1.790861 4,4 z"
         cx="0"
         sodipodi:cx="0"
         sodipodi:cy="-25"
         sodipodi:rx="4"
         sodipodi:ry="4"
         style="fill:#b2beb5;fill-opacity:1;stroke-width:1.44721365" />
    </g>
    <g
       id="use3507"
       style="fill:#b2beb5;fill-opacity:1;stroke:#333300;stroke-width:1.44721365;stroke-opacity:0.4"
       transform="matrix(-0.55918301,0.53999675,-0.53999675,-0.55918301,185,427.68923)">
      <circle
         r="4"
         cy="25"
         id="circle4471"
         d="m 4,25 c 0,2.209139 -1.790861,4 -4,4 -2.209139,0 -4,-1.790861 -4,-4 0,-2.209139 1.790861,-4 4,-4 2.209139,0 4,1.790861 4,4 z"
         cx="0"
         sodipodi:cx="0"
         sodipodi:cy="25"
         sodipodi:rx="4"
         sodipodi:ry="4"
         style="fill:#b2beb5;fill-opacity:1;stroke-width:1.44721365" />
      <circle
         r="4"
         cy="-25"
         id="circle4473"
         d="m 4,-25 c 0,2.209139 -1.790861,4 -4,4 -2.209139,0 -4,-1.790861 -4,-4 0,-2.209139 1.790861,-4 4,-4 2.209139,0 4,1.790861 4,4 z"
         cx="0"
         sodipodi:cx="0"
         sodipodi:cy="-25"
         sodipodi:rx="4"
         sodipodi:ry="4"
         style="fill:#b2beb5;fill-opacity:1;stroke-width:1.44721365" />
    </g>
    <g
       id="use3509"
       style="fill:#b2beb5;fill-opacity:1;stroke:#333300;stroke-width:1.44721365;stroke-opacity:0.4"
       transform="matrix(-0.71014991,0.31617911,-0.31617911,-0.71014991,185.00001,427.68923)">
      <circle
         r="4"
         cy="25"
         id="circle4477"
         d="m 4,25 c 0,2.209139 -1.790861,4 -4,4 -2.209139,0 -4,-1.790861 -4,-4 0,-2.209139 1.790861,-4 4,-4 2.209139,0 4,1.790861 4,4 z"
         cx="0"
         sodipodi:cx="0"
         sodipodi:cy="25"
         sodipodi:rx="4"
         sodipodi:ry="4"
         style="fill:#b2beb5;fill-opacity:1;stroke-width:1.44721365" />
      <circle
         r="4"
         cy="-25"
         id="circle4479"
         d="m 4,-25 c 0,2.209139 -1.790861,4 -4,4 -2.209139,0 -4,-1.790861 -4,-4 0,-2.209139 1.790861,-4 4,-4 2.209139,0 4,1.790861 4,4 z"
         cx="0"
         sodipodi:cx="0"
         sodipodi:cy="-25"
         sodipodi:rx="4"
         sodipodi:ry="4"
         style="fill:#b2beb5;fill-opacity:1;stroke-width:1.44721365" />
    </g>
    <g
       id="use3511"
       style="fill:#b2beb5;fill-opacity:1;stroke:#333300;stroke-width:1.44721365;stroke-opacity:0.4"
       transform="matrix(-0.77546225,0.05422561,-0.05422561,-0.77546225,185.00001,427.68924)">
      <circle
         r="4"
         cy="25"
         id="circle4483"
         d="m 4,25 c 0,2.209139 -1.790861,4 -4,4 -2.209139,0 -4,-1.790861 -4,-4 0,-2.209139 1.790861,-4 4,-4 2.209139,0 4,1.790861 4,4 z"
         cx="0"
         sodipodi:cx="0"
         sodipodi:cy="25"
         sodipodi:rx="4"
         sodipodi:ry="4"
         style="fill:#b2beb5;fill-opacity:1;stroke-width:1.44721365" />
      <circle
         r="4"
         cy="-25"
         id="circle4485"
         d="m 4,-25 c 0,2.209139 -1.790861,4 -4,4 -2.209139,0 -4,-1.790861 -4,-4 0,-2.209139 1.790861,-4 4,-4 2.209139,0 4,1.790861 4,4 z"
         cx="0"
         sodipodi:cx="0"
         sodipodi:cy="-25"
         sodipodi:rx="4"
         sodipodi:ry="4"
         style="fill:#b2beb5;fill-opacity:1;stroke-width:1.44721365" />
    </g>
    <g
       id="use3513"
       style="fill:#b2beb5;fill-opacity:1;stroke:#333300;stroke-width:1.44721365;stroke-opacity:0.4"
       transform="matrix(-0.7472424,-0.21426831,0.21426831,-0.7472424,185.00001,427.68924)">
      <circle
         r="4"
         cy="25"
         id="circle4489"
         d="m 4,25 c 0,2.209139 -1.790861,4 -4,4 -2.209139,0 -4,-1.790861 -4,-4 0,-2.209139 1.790861,-4 4,-4 2.209139,0 4,1.790861 4,4 z"
         cx="0"
         sodipodi:cx="0"
         sodipodi:cy="25"
         sodipodi:rx="4"
         sodipodi:ry="4"
         style="fill:#b2beb5;fill-opacity:1;stroke-width:1.44721365" />
      <circle
         r="4"
         cy="-25"
         id="circle4491"
         d="m 4,-25 c 0,2.209139 -1.790861,4 -4,4 -2.209139,0 -4,-1.790861 -4,-4 0,-2.209139 1.790861,-4 4,-4 2.209139,0 4,1.790861 4,4 z"
         cx="0"
         sodipodi:cx="0"
         sodipodi:cy="-25"
         sodipodi:rx="4"
         sodipodi:ry="4"
         style="fill:#b2beb5;fill-opacity:1;stroke-width:1.44721365" />
    </g>
  </g>
  <g
     id="g3421">
    <path
       id="path3154"
       d="m 185.00001,427.68923 c -17.65795,4.46632 -34.74095,16.0764 -47.99158,34.31434 -13.25063,18.23792 -19.01355,38.07254 -17.80466,56.24641 17.65794,-4.46632 34.74095,-16.07641 47.99158,-34.31433 13.25063,-18.23793 19.01354,-38.07256 17.80466,-56.24642 z"
       inkscape:connector-curvature="0"
       style="fill:#333333;fill-opacity:1" />
    <path
       id="use3156"
       d="m 185.00001,427.68923 c -9.70433,-15.41353 -26.02511,-28.07272 -47.46509,-35.03899 -21.43997,-6.96627 -42.084646,-6.31789 -58.995462,0.44786 9.704329,15.41353 26.025122,28.07272 47.465092,35.03899 21.43997,6.96627 42.08465,6.31789 58.99546,-0.44786 z"
       inkscape:connector-curvature="0"
       style="fill:#333333;fill-opacity:1" />
    <path
       id="use3158"
       d="m 185,427.68923 c 11.66034,-13.99241 18.65654,-33.4263 18.65654,-55.96963 0,-22.54331 -6.9962,-41.97721 -18.65654,-55.96962 -11.66034,13.99241 -18.65654,33.42631 -18.65654,55.96963 0,22.54331 6.9962,41.97722 18.65654,55.96962 z"
       inkscape:connector-curvature="0"
       style="fill:#333333;fill-opacity:1" />
    <path
       id="use3160"
       d="m 185,427.68923 c 16.91081,6.76575 37.55549,7.41413 58.99546,0.44786 21.43997,-6.96627 37.76076,-19.62545 47.46509,-35.03899 -16.91081,-6.76574 -37.5555,-7.41413 -58.99547,-0.44786 C 211.02512,399.61651 194.70432,412.2757 185,427.68923 z"
       inkscape:connector-curvature="0"
       style="fill:#333333;fill-opacity:1" />
    <path
       id="use3162"
       d="m 185,427.68923 c -1.20888,18.17387 4.55403,38.00848 17.80466,56.24642 13.25063,18.23792 30.33364,29.84801 47.99158,34.31433 1.20888,-18.17387 -4.55403,-38.00849 -17.80466,-56.24642 C 219.74095,443.76564 202.65794,432.15555 185,427.68923 z"
       inkscape:connector-curvature="0"
       style="fill:#333333;fill-opacity:1" />
    <g
       id="g3164"
       transform="matrix(0.6288941,0.45691831,-0.45691831,0.6288941,185.00001,427.68923)">
      <g
         id="g3166">
        <path
           style="fill:#000000;stroke:#000000;stroke-width:0.25728244"
           d="m 0,-115 c -53,0 -59.73,28.85 -52,40 L 0,0 52,-75 c 7.73,-11.15 1,-40 -52,-40 z"
           id="path3168"
           inkscape:connector-curvature="0" />
        <path
           d="m 0,-100 c 14,0 24,-4 32,-2 17,4 18,14 18,21 0,-8 -1,-18 -18,-22 -8,-2 -18,1 -32,1 -14,0 -24,-3 -32,-1 -17,4 -18,14 -18,22 0,-7 1,-17 18,-21 8,-2 18,2 32,2 z"
           id="path3170"
           inkscape:connector-curvature="0"
           style="fill:#b2beb5;fill-opacity:1" />
        <path
           d="m 0,-99 c 14,0 24,-4 32,-2 17,4 18,15 18,22 0,-6 -1,-15 -18,-19 -8,-2 -18,6 -32,6 -14,0 -24,-8 -32,-6 -17,4 -18,13 -18,19 0,-7 1,-18 18,-22 8,-2 18,2 32,2 z"
           id="path3172"
           inkscape:connector-curvature="0"
           style="fill:#333333" />
        <path
           d="m 0,-84 -6,16 c 6,-4 6,-4 12,0 z"
           id="path3174"
           inkscape:connector-curvature="0"
           style="fill:#b2beb5;fill-opacity:1" />
        <path
           d="m -5,-63 c 0,-2 2,-4 5,-4 3,0 5,2 5,4 0,3 -3,7 -5,10 -2,-3 -5,-7 -5,-10 z"
           id="path3176"
           inkscape:connector-curvature="0"
           style="fill:#333333" />
      </g>
      <g
         id="use3178"
         transform="matrix(0.30901699,0.95105652,-0.95105652,0.30901699,0,0)">
        <path
           style="fill:#000000;stroke:#000000;stroke-width:0.23155418"
           d="m 0,-115 c -53,0 -59.73,28.85 -52,40 L 0,0 52,-75 c 7.73,-11.15 1,-40 -52,-40 z"
           id="path4099"
           inkscape:connector-curvature="0" />
        <path
           d="m 0,-100 c 14,0 24,-4 32,-2 17,4 18,14 18,21 0,-8 -1,-18 -18,-22 -8,-2 -18,1 -32,1 -14,0 -24,-3 -32,-1 -17,4 -18,14 -18,22 0,-7 1,-17 18,-21 8,-2 18,2 32,2 z"
           id="path4101"
           inkscape:connector-curvature="0"
           style="fill:#b2beb5;fill-opacity:1" />
        <path
           d="m 0,-99 c 14,0 24,-4 32,-2 17,4 18,15 18,22 0,-6 -1,-15 -18,-19 -8,-2 -18,6 -32,6 -14,0 -24,-8 -32,-6 -17,4 -18,13 -18,19 0,-7 1,-18 18,-22 8,-2 18,2 32,2 z"
           id="path4103"
           inkscape:connector-curvature="0"
           style="fill:#333333" />
        <path
           d="m 0,-84 -6,16 c 6,-4 6,-4 12,0 z"
           id="path4105"
           inkscape:connector-curvature="0"
           style="fill:#b2beb5;fill-opacity:1" />
        <path
           d="m -5,-63 c 0,-2 2,-4 5,-4 3,0 5,2 5,4 0,3 -3,7 -5,10 -2,-3 -5,-7 -5,-10 z"
           id="path4107"
           inkscape:connector-curvature="0"
           style="fill:#333333" />
      </g>
      <g
         id="use3180"
         transform="matrix(-0.80901699,0.58778525,-0.58778525,-0.80901699,0,0)">
        <path
           style="fill:#000000;stroke:#000000;stroke-width:0.23155418"
           d="m 0,-115 c -53,0 -59.73,28.85 -52,40 L 0,0 52,-75 c 7.73,-11.15 1,-40 -52,-40 z"
           id="path4087"
           inkscape:connector-curvature="0" />
        <path
           d="m 0,-100 c 14,0 24,-4 32,-2 17,4 18,14 18,21 0,-8 -1,-18 -18,-22 -8,-2 -18,1 -32,1 -14,0 -24,-3 -32,-1 -17,4 -18,14 -18,22 0,-7 1,-17 18,-21 8,-2 18,2 32,2 z"
           id="path4089"
           inkscape:connector-curvature="0"
           style="fill:#b2beb5;fill-opacity:1" />
        <path
           d="m 0,-99 c 14,0 24,-4 32,-2 17,4 18,15 18,22 0,-6 -1,-15 -18,-19 -8,-2 -18,6 -32,6 -14,0 -24,-8 -32,-6 -17,4 -18,13 -18,19 0,-7 1,-18 18,-22 8,-2 18,2 32,2 z"
           id="path4091"
           inkscape:connector-curvature="0"
           style="fill:#333333" />
        <path
           d="m 0,-84 -6,16 c 6,-4 6,-4 12,0 z"
           id="path4093"
           inkscape:connector-curvature="0"
           style="fill:#b2beb5;fill-opacity:1" />
        <path
           d="m -5,-63 c 0,-2 2,-4 5,-4 3,0 5,2 5,4 0,3 -3,7 -5,10 -2,-3 -5,-7 -5,-10 z"
           id="path4095"
           inkscape:connector-curvature="0"
           style="fill:#333333" />
      </g>
      <g
         id="use3182"
         transform="matrix(-0.80901699,-0.58778525,0.58778525,-0.80901699,0,0)">
        <path
           style="fill:#000000;stroke:#000000;stroke-width:0.23155418"
           d="m 0,-115 c -53,0 -59.73,28.85 -52,40 L 0,0 52,-75 c 7.73,-11.15 1,-40 -52,-40 z"
           id="path4075"
           inkscape:connector-curvature="0" />
        <path
           d="m 0,-100 c 14,0 24,-4 32,-2 17,4 18,14 18,21 0,-8 -1,-18 -18,-22 -8,-2 -18,1 -32,1 -14,0 -24,-3 -32,-1 -17,4 -18,14 -18,22 0,-7 1,-17 18,-21 8,-2 18,2 32,2 z"
           id="path4077"
           inkscape:connector-curvature="0"
           style="fill:#b2beb5;fill-opacity:1" />
        <path
           d="m 0,-99 c 14,0 24,-4 32,-2 17,4 18,15 18,22 0,-6 -1,-15 -18,-19 -8,-2 -18,6 -32,6 -14,0 -24,-8 -32,-6 -17,4 -18,13 -18,19 0,-7 1,-18 18,-22 8,-2 18,2 32,2 z"
           id="path4079"
           inkscape:connector-curvature="0"
           style="fill:#333333" />
        <path
           d="m 0,-84 -6,16 c 6,-4 6,-4 12,0 z"
           id="path4081"
           inkscape:connector-curvature="0"
           style="fill:#b2beb5;fill-opacity:1" />
        <path
           d="m -5,-63 c 0,-2 2,-4 5,-4 3,0 5,2 5,4 0,3 -3,7 -5,10 -2,-3 -5,-7 -5,-10 z"
           id="path4083"
           inkscape:connector-curvature="0"
           style="fill:#333333" />
      </g>
      <g
         id="use3184"
         transform="matrix(0.30901699,-0.95105652,0.95105652,0.30901699,0,0)">
        <path
           style="fill:#000000;stroke:#000000;stroke-width:0.23155418"
           d="m 0,-115 c -53,0 -59.73,28.85 -52,40 L 0,0 52,-75 c 7.73,-11.15 1,-40 -52,-40 z"
           id="path4063"
           inkscape:connector-curvature="0" />
        <path
           d="m 0,-100 c 14,0 24,-4 32,-2 17,4 18,14 18,21 0,-8 -1,-18 -18,-22 -8,-2 -18,1 -32,1 -14,0 -24,-3 -32,-1 -17,4 -18,14 -18,22 0,-7 1,-17 18,-21 8,-2 18,2 32,2 z"
           id="path4065"
           inkscape:connector-curvature="0"
           style="fill:#b2beb5;fill-opacity:1" />
        <path
           d="m 0,-99 c 14,0 24,-4 32,-2 17,4 18,15 18,22 0,-6 -1,-15 -18,-19 -8,-2 -18,6 -32,6 -14,0 -24,-8 -32,-6 -17,4 -18,13 -18,19 0,-7 1,-18 18,-22 8,-2 18,2 32,2 z"
           id="path4067"
           inkscape:connector-curvature="0"
           style="fill:#333333" />
        <path
           d="m 0,-84 -6,16 c 6,-4 6,-4 12,0 z"
           id="path4069"
           inkscape:connector-curvature="0"
           style="fill:#b2beb5;fill-opacity:1" />
        <path
           d="m -5,-63 c 0,-2 2,-4 5,-4 3,0 5,2 5,4 0,3 -3,7 -5,10 -2,-3 -5,-7 -5,-10 z"
           id="path4071"
           inkscape:connector-curvature="0"
           style="fill:#333333" />
      </g>
    </g>
    <g
       id="use3186"
       transform="matrix(0.1321189,0.40662015,-0.40662015,0.1321189,185.00001,427.68923)">
      <g
         id="g3997">
        <path
           style="fill:#000000;stroke:#000000;stroke-width:0.23155418"
           d="m 0,-115 c -53,0 -59.73,28.85 -52,40 L 0,0 52,-75 c 7.73,-11.15 1,-40 -52,-40 z"
           id="path3999"
           inkscape:connector-curvature="0" />
        <path
           d="m 0,-100 c 14,0 24,-4 32,-2 17,4 18,14 18,21 0,-8 -1,-18 -18,-22 -8,-2 -18,1 -32,1 -14,0 -24,-3 -32,-1 -17,4 -18,14 -18,22 0,-7 1,-17 18,-21 8,-2 18,2 32,2 z"
           id="path4001"
           inkscape:connector-curvature="0"
           style="fill:#b2beb5;fill-opacity:1" />
        <path
           d="m 0,-99 c 14,0 24,-4 32,-2 17,4 18,15 18,22 0,-6 -1,-15 -18,-19 -8,-2 -18,6 -32,6 -14,0 -24,-8 -32,-6 -17,4 -18,13 -18,19 0,-7 1,-18 18,-22 8,-2 18,2 32,2 z"
           id="path4003"
           inkscape:connector-curvature="0"
           style="fill:#333333" />
        <path
           d="m 0,-84 -6,16 c 6,-4 6,-4 12,0 z"
           id="path4005"
           inkscape:connector-curvature="0"
           style="fill:#b2beb5;fill-opacity:1" />
        <path
           d="m -5,-63 c 0,-2 2,-4 5,-4 3,0 5,2 5,4 0,3 -3,7 -5,10 -2,-3 -5,-7 -5,-10 z"
           id="path4007"
           inkscape:connector-curvature="0"
           style="fill:#333333" />
      </g>
      <g
         id="use4009"
         transform="matrix(0.30901699,0.95105652,-0.95105652,0.30901699,0,0)">
        <path
           style="fill:#000000;stroke:#000000;stroke-width:0.23155418"
           d="m 0,-115 c -53,0 -59.73,28.85 -52,40 L 0,0 52,-75 c 7.73,-11.15 1,-40 -52,-40 z"
           id="path4207"
           inkscape:connector-curvature="0" />
        <path
           d="m 0,-100 c 14,0 24,-4 32,-2 17,4 18,14 18,21 0,-8 -1,-18 -18,-22 -8,-2 -18,1 -32,1 -14,0 -24,-3 -32,-1 -17,4 -18,14 -18,22 0,-7 1,-17 18,-21 8,-2 18,2 32,2 z"
           id="path4209"
           inkscape:connector-curvature="0"
           style="fill:#b2beb5;fill-opacity:1" />
        <path
           d="m 0,-99 c 14,0 24,-4 32,-2 17,4 18,15 18,22 0,-6 -1,-15 -18,-19 -8,-2 -18,6 -32,6 -14,0 -24,-8 -32,-6 -17,4 -18,13 -18,19 0,-7 1,-18 18,-22 8,-2 18,2 32,2 z"
           id="path4211"
           inkscape:connector-curvature="0"
           style="fill:#333333" />
        <path
           d="m 0,-84 -6,16 c 6,-4 6,-4 12,0 z"
           id="path4213"
           inkscape:connector-curvature="0"
           style="fill:#b2beb5;fill-opacity:1" />
        <path
           d="m -5,-63 c 0,-2 2,-4 5,-4 3,0 5,2 5,4 0,3 -3,7 -5,10 -2,-3 -5,-7 -5,-10 z"
           id="path4215"
           inkscape:connector-curvature="0"
           style="fill:#333333" />
      </g>
      <g
         id="use4011"
         transform="matrix(-0.80901699,0.58778525,-0.58778525,-0.80901699,0,0)">
        <path
           style="fill:#000000;stroke:#000000;stroke-width:0.23155418"
           d="m 0,-115 c -53,0 -59.73,28.85 -52,40 L 0,0 52,-75 c 7.73,-11.15 1,-40 -52,-40 z"
           id="path4219"
           inkscape:connector-curvature="0" />
        <path
           d="m 0,-100 c 14,0 24,-4 32,-2 17,4 18,14 18,21 0,-8 -1,-18 -18,-22 -8,-2 -18,1 -32,1 -14,0 -24,-3 -32,-1 -17,4 -18,14 -18,22 0,-7 1,-17 18,-21 8,-2 18,2 32,2 z"
           id="path4221"
           inkscape:connector-curvature="0"
           style="fill:#b2beb5;fill-opacity:1" />
        <path
           d="m 0,-99 c 14,0 24,-4 32,-2 17,4 18,15 18,22 0,-6 -1,-15 -18,-19 -8,-2 -18,6 -32,6 -14,0 -24,-8 -32,-6 -17,4 -18,13 -18,19 0,-7 1,-18 18,-22 8,-2 18,2 32,2 z"
           id="path4223"
           inkscape:connector-curvature="0"
           style="fill:#333333" />
        <path
           d="m 0,-84 -6,16 c 6,-4 6,-4 12,0 z"
           id="path4225"
           inkscape:connector-curvature="0"
           style="fill:#b2beb5;fill-opacity:1" />
        <path
           d="m -5,-63 c 0,-2 2,-4 5,-4 3,0 5,2 5,4 0,3 -3,7 -5,10 -2,-3 -5,-7 -5,-10 z"
           id="path4227"
           inkscape:connector-curvature="0"
           style="fill:#333333" />
      </g>
      <g
         id="use4013"
         transform="matrix(-0.80901699,-0.58778525,0.58778525,-0.80901699,0,0)">
        <path
           style="fill:#000000;stroke:#000000;stroke-width:0.23155418"
           d="m 0,-115 c -53,0 -59.73,28.85 -52,40 L 0,0 52,-75 c 7.73,-11.15 1,-40 -52,-40 z"
           id="path4231"
           inkscape:connector-curvature="0" />
        <path
           d="m 0,-100 c 14,0 24,-4 32,-2 17,4 18,14 18,21 0,-8 -1,-18 -18,-22 -8,-2 -18,1 -32,1 -14,0 -24,-3 -32,-1 -17,4 -18,14 -18,22 0,-7 1,-17 18,-21 8,-2 18,2 32,2 z"
           id="path4233"
           inkscape:connector-curvature="0"
           style="fill:#b2beb5;fill-opacity:1" />
        <path
           d="m 0,-99 c 14,0 24,-4 32,-2 17,4 18,15 18,22 0,-6 -1,-15 -18,-19 -8,-2 -18,6 -32,6 -14,0 -24,-8 -32,-6 -17,4 -18,13 -18,19 0,-7 1,-18 18,-22 8,-2 18,2 32,2 z"
           id="path4235"
           inkscape:connector-curvature="0"
           style="fill:#333333" />
        <path
           d="m 0,-84 -6,16 c 6,-4 6,-4 12,0 z"
           id="path4237"
           inkscape:connector-curvature="0"
           style="fill:#b2beb5;fill-opacity:1" />
        <path
           d="m -5,-63 c 0,-2 2,-4 5,-4 3,0 5,2 5,4 0,3 -3,7 -5,10 -2,-3 -5,-7 -5,-10 z"
           id="path4239"
           inkscape:connector-curvature="0"
           style="fill:#333333" />
      </g>
      <g
         id="use4015"
         transform="matrix(0.30901699,-0.95105652,0.95105652,0.30901699,0,0)">
        <path
           style="fill:#000000;stroke:#000000;stroke-width:0.23155418"
           d="m 0,-115 c -53,0 -59.73,28.85 -52,40 L 0,0 52,-75 c 7.73,-11.15 1,-40 -52,-40 z"
           id="path4243"
           inkscape:connector-curvature="0" />
        <path
           d="m 0,-100 c 14,0 24,-4 32,-2 17,4 18,14 18,21 0,-8 -1,-18 -18,-22 -8,-2 -18,1 -32,1 -14,0 -24,-3 -32,-1 -17,4 -18,14 -18,22 0,-7 1,-17 18,-21 8,-2 18,2 32,2 z"
           id="path4245"
           inkscape:connector-curvature="0"
           style="fill:#b2beb5;fill-opacity:1" />
        <path
           d="m 0,-99 c 14,0 24,-4 32,-2 17,4 18,15 18,22 0,-6 -1,-15 -18,-19 -8,-2 -18,6 -32,6 -14,0 -24,-8 -32,-6 -17,4 -18,13 -18,19 0,-7 1,-18 18,-22 8,-2 18,2 32,2 z"
           id="path4247"
           inkscape:connector-curvature="0"
           style="fill:#333333" />
        <path
           d="m 0,-84 -6,16 c 6,-4 6,-4 12,0 z"
           id="path4249"
           inkscape:connector-curvature="0"
           style="fill:#b2beb5;fill-opacity:1" />
        <path
           d="m -5,-63 c 0,-2 2,-4 5,-4 3,0 5,2 5,4 0,3 -3,7 -5,10 -2,-3 -5,-7 -5,-10 z"
           id="path4251"
           inkscape:connector-curvature="0"
           style="fill:#333333" />
      </g>
    </g>
    <circle
       r="20"
       style="fill:#f6f6f6;fill-opacity:1;stroke:#7f7f7f;stroke-width:1.92961812;stroke-opacity:0.4"
       id="circle3188"
       d="m 20,0 c 0,11.045695 -8.954305,20 -20,20 -11.045695,0 -20,-8.954305 -20,-20 0,-11.045695 8.954305,-20 20,-20 11.045695,0 20,8.954305 20,20 z"
       cx="0"
       cy="0"
       sodipodi:cx="0"
       sodipodi:cy="0"
       sodipodi:rx="20"
       sodipodi:ry="20"
       transform="matrix(0.6288941,0.45691831,-0.45691831,0.6288941,185.00001,427.68923)" />
    <circle
       r="10"
       style="fill:#f6f6f6;fill-opacity:1;stroke:#7f7f7f;stroke-width:1.92961812;stroke-opacity:0.4"
       id="circle3190"
       d="M 10,0 C 10,5.5228475 5.5228475,10 0,10 -5.5228475,10 -10,5.5228475 -10,0 c 0,-5.5228475 4.4771525,-10 10,-10 5.5228475,0 10,4.4771525 10,10 z"
       cx="0"
       cy="0"
       sodipodi:cx="0"
       sodipodi:cy="0"
       sodipodi:rx="10"
       sodipodi:ry="10"
       transform="matrix(0.6288941,0.45691831,-0.45691831,0.6288941,185.00001,427.68923)" />
    <g
       id="g3192"
       style="fill:#b2beb5;fill-opacity:1;stroke:#333300;stroke-width:1.60801518;stroke-opacity:0.4"
       transform="matrix(0.6288941,0.45691831,-0.45691831,0.6288941,185.00001,427.68923)">
      <circle
         r="4"
         cy="25"
         id="circle3194"
         d="m 4,25 c 0,2.209139 -1.790861,4 -4,4 -2.209139,0 -4,-1.790861 -4,-4 0,-2.209139 1.790861,-4 4,-4 2.209139,0 4,1.790861 4,4 z"
         cx="0"
         sodipodi:cx="0"
         sodipodi:cy="25"
         sodipodi:rx="4"
         sodipodi:ry="4"
         style="fill:#b2beb5;fill-opacity:1;stroke-width:1.60801518" />
      <circle
         r="4"
         cy="-25"
         id="circle3196"
         d="m 4,-25 c 0,2.209139 -1.790861,4 -4,4 -2.209139,0 -4,-1.790861 -4,-4 0,-2.209139 1.790861,-4 4,-4 2.209139,0 4,1.790861 4,4 z"
         cx="0"
         sodipodi:cx="0"
         sodipodi:cy="-25"
         sodipodi:rx="4"
         sodipodi:ry="4"
         style="fill:#b2beb5;fill-opacity:1;stroke-width:1.60801518" />
    </g>
    <g
       id="use3198"
       style="fill:#b2beb5;fill-opacity:1;stroke:#333300;stroke-width:1.44721365;stroke-opacity:0.4"
       transform="matrix(0.43469188,0.64445721,-0.64445721,0.43469188,185.00001,427.68923)">
      <circle
         r="4"
         cy="25"
         id="circle4393"
         d="m 4,25 c 0,2.209139 -1.790861,4 -4,4 -2.209139,0 -4,-1.790861 -4,-4 0,-2.209139 1.790861,-4 4,-4 2.209139,0 4,1.790861 4,4 z"
         cx="0"
         sodipodi:cx="0"
         sodipodi:cy="25"
         sodipodi:rx="4"
         sodipodi:ry="4"
         style="fill:#b2beb5;fill-opacity:1;stroke-width:1.44721365" />
      <circle
         r="4"
         cy="-25"
         id="circle4395"
         d="m 4,-25 c 0,2.209139 -1.790861,4 -4,4 -2.209139,0 -4,-1.790861 -4,-4 0,-2.209139 1.790861,-4 4,-4 2.209139,0 4,1.790861 4,4 z"
         cx="0"
         sodipodi:cx="0"
         sodipodi:cy="-25"
         sodipodi:rx="4"
         sodipodi:ry="4"
         style="fill:#b2beb5;fill-opacity:1;stroke-width:1.44721365" />
    </g>
    <g
       id="use3200"
       style="fill:#b2beb5;fill-opacity:1;stroke:#333300;stroke-width:1.44721365;stroke-opacity:0.4"
       transform="matrix(0.18805939,0.75426507,-0.75426507,0.18805939,185,427.68923)">
      <circle
         r="4"
         cy="25"
         id="circle4387"
         d="m 4,25 c 0,2.209139 -1.790861,4 -4,4 -2.209139,0 -4,-1.790861 -4,-4 0,-2.209139 1.790861,-4 4,-4 2.209139,0 4,1.790861 4,4 z"
         cx="0"
         sodipodi:cx="0"
         sodipodi:cy="25"
         sodipodi:rx="4"
         sodipodi:ry="4"
         style="fill:#b2beb5;fill-opacity:1;stroke-width:1.44721365" />
      <circle
         r="4"
         cy="-25"
         id="circle4389"
         d="m 4,-25 c 0,2.209139 -1.790861,4 -4,4 -2.209139,0 -4,-1.790861 -4,-4 0,-2.209139 1.790861,-4 4,-4 2.209139,0 4,1.790861 4,4 z"
         cx="0"
         sodipodi:cx="0"
         sodipodi:cy="-25"
         sodipodi:rx="4"
         sodipodi:ry="4"
         style="fill:#b2beb5;fill-opacity:1;stroke-width:1.44721365" />
    </g>
    <g
       id="use3202"
       style="fill:#b2beb5;fill-opacity:1;stroke:#333300;stroke-width:1.44721365;stroke-opacity:0.4"
       transform="matrix(-0.08125581,0.77309742,-0.77309742,-0.08125581,185.00001,427.68923)">
      <circle
         r="4"
         cy="25"
         id="circle4381"
         d="m 4,25 c 0,2.209139 -1.790861,4 -4,4 -2.209139,0 -4,-1.790861 -4,-4 0,-2.209139 1.790861,-4 4,-4 2.209139,0 4,1.790861 4,4 z"
         cx="0"
         sodipodi:cx="0"
         sodipodi:cy="25"
         sodipodi:rx="4"
         sodipodi:ry="4"
         style="fill:#b2beb5;fill-opacity:1;stroke-width:1.44721365" />
      <circle
         r="4"
         cy="-25"
         id="circle4383"
         d="m 4,-25 c 0,2.209139 -1.790861,4 -4,4 -2.209139,0 -4,-1.790861 -4,-4 0,-2.209139 1.790861,-4 4,-4 2.209139,0 4,1.790861 4,4 z"
         cx="0"
         sodipodi:cx="0"
         sodipodi:cy="-25"
         sodipodi:rx="4"
         sodipodi:ry="4"
         style="fill:#b2beb5;fill-opacity:1;stroke-width:1.44721365" />
    </g>
    <g
       id="use3204"
       style="fill:#b2beb5;fill-opacity:1;stroke:#333300;stroke-width:1.44721365;stroke-opacity:0.4"
       transform="matrix(-0.34077038,0.69868282,-0.69868282,-0.34077038,185,427.68923)">
      <circle
         r="4"
         cy="25"
         id="circle4375"
         d="m 4,25 c 0,2.209139 -1.790861,4 -4,4 -2.209139,0 -4,-1.790861 -4,-4 0,-2.209139 1.790861,-4 4,-4 2.209139,0 4,1.790861 4,4 z"
         cx="0"
         sodipodi:cx="0"
         sodipodi:cy="25"
         sodipodi:rx="4"
         sodipodi:ry="4"
         style="fill:#b2beb5;fill-opacity:1;stroke-width:1.44721365" />
      <circle
         r="4"
         cy="-25"
         id="circle4377"
         d="m 4,-25 c 0,2.209139 -1.790861,4 -4,4 -2.209139,0 -4,-1.790861 -4,-4 0,-2.209139 1.790861,-4 4,-4 2.209139,0 4,1.790861 4,4 z"
         cx="0"
         sodipodi:cx="0"
         sodipodi:cy="-25"
         sodipodi:rx="4"
         sodipodi:ry="4"
         style="fill:#b2beb5;fill-opacity:1;stroke-width:1.44721365" />
    </g>
    <g
       id="use3206"
       style="fill:#b2beb5;fill-opacity:1;stroke:#333300;stroke-width:1.44721365;stroke-opacity:0.4"
       transform="matrix(-0.55918301,0.53999675,-0.53999675,-0.55918301,185,427.68923)">
      <circle
         r="4"
         cy="25"
         id="circle4369"
         d="m 4,25 c 0,2.209139 -1.790861,4 -4,4 -2.209139,0 -4,-1.790861 -4,-4 0,-2.209139 1.790861,-4 4,-4 2.209139,0 4,1.790861 4,4 z"
         cx="0"
         sodipodi:cx="0"
         sodipodi:cy="25"
         sodipodi:rx="4"
         sodipodi:ry="4"
         style="fill:#b2beb5;fill-opacity:1;stroke-width:1.44721365" />
      <circle
         r="4"
         cy="-25"
         id="circle4371"
         d="m 4,-25 c 0,2.209139 -1.790861,4 -4,4 -2.209139,0 -4,-1.790861 -4,-4 0,-2.209139 1.790861,-4 4,-4 2.209139,0 4,1.790861 4,4 z"
         cx="0"
         sodipodi:cx="0"
         sodipodi:cy="-25"
         sodipodi:rx="4"
         sodipodi:ry="4"
         style="fill:#b2beb5;fill-opacity:1;stroke-width:1.44721365" />
    </g>
    <g
       id="use3208"
       style="fill:#b2beb5;fill-opacity:1;stroke:#333300;stroke-width:1.44721365;stroke-opacity:0.4"
       transform="matrix(-0.71014991,0.31617911,-0.31617911,-0.71014991,185.00001,427.68923)">
      <circle
         r="4"
         cy="25"
         id="circle4363"
         d="m 4,25 c 0,2.209139 -1.790861,4 -4,4 -2.209139,0 -4,-1.790861 -4,-4 0,-2.209139 1.790861,-4 4,-4 2.209139,0 4,1.790861 4,4 z"
         cx="0"
         sodipodi:cx="0"
         sodipodi:cy="25"
         sodipodi:rx="4"
         sodipodi:ry="4"
         style="fill:#b2beb5;fill-opacity:1;stroke-width:1.44721365" />
      <circle
         r="4"
         cy="-25"
         id="circle4365"
         d="m 4,-25 c 0,2.209139 -1.790861,4 -4,4 -2.209139,0 -4,-1.790861 -4,-4 0,-2.209139 1.790861,-4 4,-4 2.209139,0 4,1.790861 4,4 z"
         cx="0"
         sodipodi:cx="0"
         sodipodi:cy="-25"
         sodipodi:rx="4"
         sodipodi:ry="4"
         style="fill:#b2beb5;fill-opacity:1;stroke-width:1.44721365" />
    </g>
    <g
       id="use3210"
       style="fill:#b2beb5;fill-opacity:1;stroke:#333300;stroke-width:1.44721365;stroke-opacity:0.4"
       transform="matrix(-0.77546225,0.05422561,-0.05422561,-0.77546225,185.00001,427.68924)">
      <circle
         r="4"
         cy="25"
         id="circle4357"
         d="m 4,25 c 0,2.209139 -1.790861,4 -4,4 -2.209139,0 -4,-1.790861 -4,-4 0,-2.209139 1.790861,-4 4,-4 2.209139,0 4,1.790861 4,4 z"
         cx="0"
         sodipodi:cx="0"
         sodipodi:cy="25"
         sodipodi:rx="4"
         sodipodi:ry="4"
         style="fill:#b2beb5;fill-opacity:1;stroke-width:1.44721365" />
      <circle
         r="4"
         cy="-25"
         id="circle4359"
         d="m 4,-25 c 0,2.209139 -1.790861,4 -4,4 -2.209139,0 -4,-1.790861 -4,-4 0,-2.209139 1.790861,-4 4,-4 2.209139,0 4,1.790861 4,4 z"
         cx="0"
         sodipodi:cx="0"
         sodipodi:cy="-25"
         sodipodi:rx="4"
         sodipodi:ry="4"
         style="fill:#b2beb5;fill-opacity:1;stroke-width:1.44721365" />
    </g>
    <g
       id="use3212"
       style="fill:#b2beb5;fill-opacity:1;stroke:#333300;stroke-width:1.44721365;stroke-opacity:0.4"
       transform="matrix(-0.7472424,-0.21426831,0.21426831,-0.7472424,185.00001,427.68924)">
      <circle
         r="4"
         cy="25"
         id="circle4351"
         d="m 4,25 c 0,2.209139 -1.790861,4 -4,4 -2.209139,0 -4,-1.790861 -4,-4 0,-2.209139 1.790861,-4 4,-4 2.209139,0 4,1.790861 4,4 z"
         cx="0"
         sodipodi:cx="0"
         sodipodi:cy="25"
         sodipodi:rx="4"
         sodipodi:ry="4"
         style="fill:#b2beb5;fill-opacity:1;stroke-width:1.44721365" />
      <circle
         r="4"
         cy="-25"
         id="circle4353"
         d="m 4,-25 c 0,2.209139 -1.790861,4 -4,4 -2.209139,0 -4,-1.790861 -4,-4 0,-2.209139 1.790861,-4 4,-4 2.209139,0 4,1.790861 4,4 z"
         cx="0"
         sodipodi:cx="0"
         sodipodi:cy="-25"
         sodipodi:rx="4"
         sodipodi:ry="4"
         style="fill:#b2beb5;fill-opacity:1;stroke-width:1.44721365" />
    </g>
  </g>
  <g
     id="g7691"
     transform="matrix(0.89499919,0,0,1.0215786,482.80423,27.760281)"
     style="stroke-width:1.30726249;stroke-miterlimit:4;stroke-dasharray:none">
    <line
       style="fill:none;stroke:#000000;stroke-width:1.30726249;stroke-miterlimit:4;stroke-opacity:1;stroke-dasharray:none"
       y2="479.48608"
       x2="-108.89526"
       y1="486.01974"
       x1="-108.91689"
       class="fil2 str0"
       id="_87549680-5" />
    <line
       style="fill:none;stroke:#000000;stroke-width:1.30726249;stroke-miterlimit:4;stroke-opacity:1;stroke-dasharray:none"
       y2="479.48608"
       x2="-64.939522"
       y1="486.01974"
       x1="-64.961105"
       class="fil2 str0"
       id="_59633600-1" />
    <path
       inkscape:connector-curvature="0"
       sodipodi:nodetypes="czccsssssssssccccsssscsssssssscssssssscssssssscsssssccssssssscccccscc"
       id="path28356-7"
       d="m -99.312964,428.56645 c 0,0 -0.833196,5.66198 -4.679956,10.63302 -3.93434,5.08418 -9.4043,8.16207 -9.4043,8.16207 l -0.0178,0.0216 c -6.65761,4.00332 -14.00191,5.11982 -19.91276,6.66945 -1.04285,0.27344 -2.03491,0.55746 -2.97711,0.87646 -0.4711,0.1595 -0.93109,0.3139 -1.37268,0.49164 -0.44159,0.1778 -0.87437,0.37659 -1.28354,0.57721 -0.40362,0.19839 -0.7896,0.41614 -1.15876,0.64127 -0.37386,0.228 -0.73398,0.46679 -1.06962,0.72683 -1.00692,0.77992 -1.83157,1.71436 -2.4423,2.86446 -0.30536,0.57505 -0.55711,1.21174 -0.74874,1.90249 -0.0639,0.23023 -0.12776,0.46118 -0.17826,0.7054 -0.0586,0.28318 -0.0844,0.56956 -0.0891,0.85509 l 0,0.14963 c 0.002,0.0929 -0.007,0.18506 0,0.27788 l 0,9.46984 c 1.7232,1.91603 3.29419,3.42984 5.93639,4.36082 0.26422,0.0931 0.53334,0.17525 0.82005,0.25651 0.29194,0.0832 0.59135,0.14322 0.90917,0.21375 0.3116,0.0692 0.62374,0.13577 0.96266,0.19245 1.02123,0.17159 2.16248,0.29069 3.47626,0.34201 0.44712,0.40202 0.88705,0.77253 1.33703,1.13297 0.004,0 0.0139,0 0.0178,0 0.44579,0.35659 0.8878,0.7086 1.33703,1.02603 0.004,0 0.0135,0 0.0178,0 4.07725,2.8774 8.30545,4.19138 12.92457,4.53182 0.006,4.6e-4 0.0119,-3.9e-4 0.0178,0 1.02201,0.0748 2.07516,0.0978 3.13755,0.0856 0.53423,-0.007 1.07687,-0.017 1.62226,-0.0425 1.09079,-0.051 2.19436,-0.1378 3.33365,-0.25658 5.44112,4.35396 14.622485,6.38588 23.567298,6.11375 3.156988,-0.0961 6.292338,-0.48203 9.216563,-1.15435 0.974738,-0.22408 1.911474,-0.48144 2.83449,-0.76958 0.0055,0 0.01228,0 0.01781,0 2.301079,-0.71952 4.418931,-1.63978 6.25728,-2.75759 0.0046,0 0.01314,0 0.01781,0 0.727077,-0.4428 1.417542,-0.92699 2.050105,-1.43223 0.0041,0 0.0137,0.007 0.01781,0 1.133046,0.11786 2.230739,0.20559 3.315818,0.25658 0.0058,2.6e-4 0.01198,-3.3e-4 0.01781,0 0.539277,0.0248 1.076072,0.0366 1.604429,0.0425 0.0059,6e-5 0.01197,-7e-5 0.01781,0 0.528103,0.007 1.050959,0.015 1.568777,0 0.0059,-2e-4 0.01192,1.3e-4 0.01781,0 6.277029,-0.18297 11.824962,-1.95662 17.185232,-6.77639 0.0041,-0.007 0.01385,0.007 0.01781,0 1.759874,-0.0687 3.219437,-0.25278 4.474576,-0.53446 0.141091,-0.0314 0.274174,-0.073 0.410024,-0.10688 0.148768,-0.0373 0.30292,-0.0663 0.445676,-0.10687 0.29263,-0.0819 0.568555,-0.16238 0.837868,-0.25651 0.01132,-0.007 0.02436,0.007 0.03567,0 2.642169,-0.93098 4.23106,-2.44479 5.954217,-4.36082 l 0,-9.89735 c -0.0046,-0.28553 -0.04841,-0.57191 -0.106961,-0.85509 -0.810595,-3.91945 -3.367744,-5.99523 -6.916879,-7.41766 -0.431057,-0.17349 -0.877818,-0.33554 -1.337023,-0.49164 -0.952218,-0.3224 -1.957879,-0.60041 -3.012765,-0.87646 -0.510323,-0.13375 -1.038487,-0.27671 -1.568772,-0.40614 -0.01111,0 -0.02456,0 -0.03567,0 -1.073347,-0.2616 -2.177881,-0.5204 -3.315823,-0.79096 -4.801417,-1.14206 -10.072872,-2.54088 -14.974679,-5.49372 l 0.03567,0.0425 c -5.520522,-3.30583 -10.57266,-8.60018 -13.958544,-17.76397 l 0.01781,-0.0425 c 3.371159,9.15052 8.403994,14.4501 13.905066,17.76397 0,0 -7.843085,-4.99882 -9.727884,-8.3019 -1.892492,-3.31662 -5.302134,-10.7314 -5.302134,-10.7314 l -24.09933,0.23821 z"
       style="fill:#f6f6f6;fill-opacity:1;fill-rule:evenodd;stroke:#000000;stroke-width:1.30726249;stroke-miterlimit:4;stroke-opacity:1;stroke-dasharray:none" />
    <line
       style="fill:none;stroke:#000000;stroke-width:1.30726249;stroke-miterlimit:4;stroke-opacity:1;stroke-dasharray:none"
       y2="479.48608"
       x2="-108.89526"
       y1="486.01974"
       x1="-108.91689"
       class="fil2 str0"
       id="_85481600-1" />
    <path
       inkscape:connector-curvature="0"
       style="fill:none;stroke:#000000;stroke-width:1.30726249;stroke-miterlimit:4;stroke-opacity:1;stroke-dasharray:none"
       d="m -41.177307,473.01081 c -5.447,-9.62745 -31.047593,-15.10999 -33.335393,-43.64582 -10.389853,2.05657 -18.220314,2.05618 -24.79484,0 -2.28771,28.53583 -27.88862,34.01844 -33.33567,43.64582 m 91.465573,0 c 6.820588,-0.0431 12.974043,-5.04915 12.036951,-9.57953 -3.232726,-15.63144 -34.204271,-2.01107 -45.372385,-34.06629 m -34.381559,50.12145 c -9.1144,0.94994 -16.59512,-0.0432 -23.74891,-6.47569 m 23.74891,6.47569 c 10.24197,8.19561 33.726309,8.19561 43.968231,0 m -67.717141,-6.47569 c -6.82044,-0.0425 -12.97406,-5.04915 -12.03695,-9.57954 3.23275,-15.63144 34.20447,-2.011 45.372717,-34.06628 m 34.381562,50.12164 c 9.114259,0.95 16.594939,-0.0431 23.748716,-6.47563"
       class="fil2 str0"
       id="_86065184-1" />
    <line
       style="fill:none;stroke:#000000;stroke-width:1.30726249;stroke-miterlimit:4;stroke-opacity:1;stroke-dasharray:none"
       y2="479.48608"
       x2="-64.939522"
       y1="486.01974"
       x1="-64.961105"
       class="fil2 str0"
       id="_59310632-5" />
    <path
       inkscape:connector-curvature="0"
       style="fill:#ffd42a;fill-opacity:1;fill-rule:evenodd;stroke:#000000;stroke-width:1.30726249;stroke-miterlimit:4;stroke-opacity:1;stroke-dasharray:none"
       d="m -103.06011,389.07286 c 7.416476,2.14723 24.837937,2.14782 32.254644,3.9e-4 0.816882,-0.23631 1.512107,-0.49896 2.059401,-0.7873 4.651415,-2.45185 5.816166,-7.5787 3.682447,-11.60686 -6.954961,1.53192 -14.290033,2.35175 -21.869265,2.35175 -7.57871,0 -14.913647,-0.81983 -21.868567,-2.35175 -2.13371,4.02813 -0.96863,9.15501 3.68245,11.60686 0.54715,0.28834 1.24238,0.5506 2.05894,0.78691 l -5e-5,0 z"
       class="fil1 str1"
       id="_84934632-7" />
    <path
       inkscape:connector-curvature="0"
       style="fill:#f6f6f6;fill-opacity:1;fill-rule:evenodd;stroke:#000000;stroke-width:1.30726249;stroke-miterlimit:4;stroke-opacity:1;stroke-dasharray:none"
       d="m -75.515073,409.65337 c -5.479897,1.85287 -17.355907,1.85287 -22.83557,0 0.726397,2.73352 0.920925,6.48687 0.470692,10.45711 0.002,3.9e-4 0.0046,3.9e-4 0.007,5.8e-4 6.711278,1.97139 15.16945,1.97139 21.880815,0 0.002,-1.9e-4 0.0041,-1.9e-4 0.0064,-5.8e-4 -0.450187,-3.97024 -0.255704,-7.72359 0.470692,-10.45711 l 0,0 z"
       class="fil1 str1"
       id="_88497576-6" />
    <path
       inkscape:connector-curvature="0"
       style="fill:#ffd42a;fill-opacity:1;fill-rule:evenodd;stroke:#000000;stroke-width:1.30726249;stroke-miterlimit:4;stroke-opacity:1;stroke-dasharray:none"
       d="m -73.934093,401.61994 c -4.758072,2.7749 -21.24128,2.7749 -25.999154,0 -2.072303,2.12285 -2.345203,5.41495 0,7.34294 0.435187,0.25382 0.968451,0.48425 1.581767,0.69147 5.479709,1.85281 17.355718,1.85281 22.83557,0 0.613315,-0.20722 1.146391,-0.43765 1.581766,-0.69147 2.345023,-1.92799 2.072117,-5.22009 0,-7.34294 l 5.1e-5,0 z"
       class="fil1 str1"
       id="_86233272-1" />
    <path
       inkscape:connector-curvature="0"
       style="fill:#f6f6f6;fill-opacity:1;fill-rule:evenodd;stroke:#000000;stroke-width:1.30726249;stroke-miterlimit:4;stroke-opacity:1;stroke-dasharray:none"
       d="m -99.932643,401.61994 c 4.757879,2.7749 21.241087,2.7749 25.999154,0 0.06057,-3.01403 -0.0964,-7.97624 3.127744,-12.54917 -7.416798,2.14782 -24.838169,2.14723 -32.254645,0 3.224199,4.573 3.067175,9.53521 3.127747,12.54917 l 0,0 z"
       class="fil1 str1"
       id="_86233152-4" />
    <path
       inkscape:connector-curvature="0"
       style="fill:#f6f6f6;fill-opacity:1;fill-rule:evenodd;stroke:#000000;stroke-width:1.30726249;stroke-miterlimit:4;stroke-opacity:1;stroke-dasharray:none"
       d="m -7.9205711,303.00897 c 1.2227192,4.37593 1.6534311,8.13281 1.6534311,12.79528 0,34.91303 -36.122352,63.2259 -80.665277,63.2259 -44.542413,0 -80.664793,-28.31287 -80.664793,-63.2259 0,-4.9037 0.59303,-9.26727 1.94153,-13.85084 23.5587,6.1942 51.28148,9.76638 80.948259,9.76638 27.937872,0 54.151862,-3.16884 76.7868499,-8.71082 l 0,0 z"
       class="fil2 str0"
       id="_84606216-6" />
    <path
       inkscape:connector-curvature="0"
       style="fill:#f6f6f6;fill-opacity:1;fill-rule:evenodd;stroke:#000000;stroke-width:1.30726249;stroke-miterlimit:4;stroke-opacity:1;stroke-dasharray:none"
       d="m -108.80205,376.6777 c -2.13372,4.02813 -0.96864,9.15496 3.6825,11.60688 6.065761,3.19633 30.307156,3.19731 36.372927,0 4.651415,-2.45186 5.816166,-7.57872 3.682447,-11.60688"
       class="fil2 str0"
       id="_84910840-1" />
    <path
       inkscape:connector-curvature="0"
       style="fill:#ffd42a;fill-opacity:1;fill-rule:evenodd;stroke:#000000;stroke-width:1.30726249;stroke-miterlimit:4;stroke-opacity:1;stroke-dasharray:none"
       d="m -73.934093,401.61994 c 2.072117,2.12285 2.345018,5.41495 0,7.34294 -4.758072,2.77497 -21.24128,2.77497 -25.999154,0 -2.345203,-1.92799 -2.072303,-5.22009 0,-7.34294"
       class="fil2 str0"
       id="_59631008-8" />
    <path
       inkscape:connector-curvature="0"
       style="fill:#ffd42a;fill-opacity:1;fill-rule:evenodd;stroke:#000000;stroke-width:1.30726249;stroke-miterlimit:4;stroke-opacity:1;stroke-dasharray:none"
       d="m -99.932643,401.61994 c 4.757879,2.7749 21.241087,2.7749 25.999154,0"
       class="fil2 str0"
       id="_88432624-9" />
    <path
       inkscape:connector-curvature="0"
       style="fill:#f6f6f6;fill-opacity:1;fill-rule:evenodd;stroke:#000000;stroke-width:1.30726249;stroke-miterlimit:4;stroke-opacity:1;stroke-dasharray:none"
       d="m -73.934093,401.61994 c 2.072117,2.12285 2.345018,5.41495 0,7.34294 -4.758072,2.77497 -21.24128,2.77497 -25.999154,0 -2.345203,-1.92799 -2.072303,-5.22009 0,-7.34294"
       class="fil2 str0"
       id="_57529600-3" />
    <path
       inkscape:connector-curvature="0"
       style="fill:none;stroke:#000000;stroke-width:1.30726249;stroke-miterlimit:4;stroke-opacity:1;stroke-dasharray:none"
       d="m -99.932643,401.61994 c 4.757879,2.7749 21.241087,2.7749 25.999154,0"
       class="fil2 str0"
       id="_87085016-1" />
    <path
       inkscape:connector-curvature="0"
       style="fill:none;stroke:#000000;stroke-width:1.30726249;stroke-miterlimit:4;stroke-opacity:1;stroke-dasharray:none"
       d="m -114.12118,350.55735 c -0.3556,-5.40604 -14.09696,-6.01551 -14.01293,-2.65003 0.1596,6.40639 2.86976,26.35672 40.721529,31.3787"
       class="fil2 str0"
       id="_59588584-2" />
    <path
       inkscape:connector-curvature="0"
       style="fill:none;stroke:#000000;stroke-width:1.30726249;stroke-miterlimit:4;stroke-opacity:1;stroke-dasharray:none"
       d="m -128.06883,348.21597 c -0.74693,-4.18479 -11.5167,-4.21043 -11.18461,-1.44206 0.2422,5.68262 4.17743,28.62642 51.840786,32.51207"
       class="fil2 str0"
       id="_58800400-7" />
    <path
       inkscape:connector-curvature="0"
       style="fill:none;stroke:#000000;stroke-width:1.30726249;stroke-miterlimit:4;stroke-opacity:1;stroke-dasharray:none"
       d="m -87.412654,379.28589 c -16.140016,-3.6183 -25.997246,-15.8546 -26.708566,-28.72868 -0.29133,-5.27673 15.35777,-4.25434 15.156231,-0.13507"
       class="fil2 str0"
       id="_59495888-5" />
    <path
       inkscape:connector-curvature="0"
       style="fill:none;stroke:#000000;stroke-width:1.30726249;stroke-miterlimit:4;stroke-opacity:1;stroke-dasharray:none"
       d="m -87.412654,379.28589 c -46.282826,-2.045 -61.504156,-20.98269 -60.763716,-34.49795 0.11698,-2.13348 8.46861,-1.50424 8.90314,1.60755"
       class="fil2 str0"
       id="_59891336-4" />
    <path
       inkscape:connector-curvature="0"
       style="fill:none;stroke:#000000;stroke-width:1.30726249;stroke-miterlimit:4;stroke-opacity:1;stroke-dasharray:none"
       d="m -87.412654,379.28589 c -11.541542,-12.52943 -12.228044,-25.69113 -11.441408,-29.55087 0.638053,-3.13101 22.246263,-3.13149 22.884198,0 0.786899,3.85975 0.100132,17.02144 -11.441403,29.55087"
       class="fil2 str0"
       id="_85080480-3" />
    <path
       inkscape:connector-curvature="0"
       style="fill:none;stroke:#000000;stroke-width:1.30726249;stroke-miterlimit:4;stroke-opacity:1;stroke-dasharray:none"
       d="m -60.702751,350.55735 c 0.355751,-5.40604 14.096995,-6.01551 14.013094,-2.65003 -0.159722,6.40639 -2.869874,26.35672 -40.721536,31.3787"
       class="fil2 str0"
       id="_59861128-3" />
    <path
       inkscape:connector-curvature="0"
       style="fill:none;stroke:#000000;stroke-width:1.30726249;stroke-miterlimit:4;stroke-opacity:1;stroke-dasharray:none"
       d="m -46.755055,348.21597 c 0.746912,-4.18479 11.516803,-4.21043 11.184592,-1.44206 -0.242089,5.68262 -4.17741,28.62642 -51.840661,32.51207"
       class="fil2 str0"
       id="_59840824-4" />
    <path
       inkscape:connector-curvature="0"
       style="fill:none;stroke:#000000;stroke-width:1.30726249;stroke-miterlimit:4;stroke-opacity:1;stroke-dasharray:none"
       d="m -87.411267,379.28589 c 16.140053,-3.6183 25.997095,-15.8546 26.708442,-28.72868 0.29133,-5.27673 -15.357503,-4.25434 -15.155961,-0.13507"
       class="fil2 str0"
       id="_59696312-1" />
    <path
       inkscape:connector-curvature="0"
       style="fill:none;stroke:#000000;stroke-width:1.30726249;stroke-miterlimit:4;stroke-opacity:1;stroke-dasharray:none"
       d="m -87.411267,379.28589 c 46.282703,-2.045 61.504172,-20.98269 60.763741,-34.49795 -0.116996,-2.13348 -8.468628,-1.50424 -8.903151,1.60755"
       class="fil2 str0"
       id="_84952168-3" />
    <path
       inkscape:connector-curvature="0"
       sodipodi:nodetypes="ccc"
       style="fill:none;stroke:#000000;stroke-width:1.30726249;stroke-miterlimit:4;stroke-opacity:1;stroke-dasharray:none"
       d="m -26.68035,346.79265 c -0.275607,-5.53309 12.939438,-4.71214 11.121667,-1.5457 -5.200135,8.69929 -28.759874,34.41851 -71.678526,33.74388"
       class="fil2 str0"
       id="_84639112-8" />
    <path
       inkscape:connector-curvature="0"
       style="fill:none;stroke:#000000;stroke-width:1.30726249;stroke-miterlimit:4;stroke-opacity:1;stroke-dasharray:none"
       d="m -108.89528,479.48605 c 11.729055,-15.80062 16.076342,-24.99101 17.347425,-48.69203"
       class="fil2 str0"
       id="_84639088-4" />
    <line
       style="fill:none;stroke:#000000;stroke-width:1.30726249;stroke-miterlimit:4;stroke-opacity:1;stroke-dasharray:none"
       y2="473.0108"
       x2="-132.64374"
       y1="479.54456"
       x1="-132.6653"
       class="fil2 str0"
       id="_84934664-2" />
    <line
       style="fill:none;stroke:#000000;stroke-width:1.30726249;stroke-miterlimit:4;stroke-opacity:1;stroke-dasharray:none"
       y2="473.0108"
       x2="-132.64374"
       y1="479.54456"
       x1="-132.6653"
       class="fil2 str0"
       id="_59401208-7" />
    <path
       inkscape:connector-curvature="0"
       style="fill:none;stroke:#000000;stroke-width:1.30726249;stroke-miterlimit:4;stroke-opacity:1;stroke-dasharray:none"
       d="m -64.970616,479.48605 c -11.729053,-15.80062 -16.07635,-24.99101 -17.347428,-48.69203 2.79623,-0.20258 5.362153,-0.67931 7.760659,-1.42948 2.287709,28.53582 27.888485,34.01843 33.335485,43.64581 -7.153778,6.43249 -14.634411,7.42563 -23.748762,6.47563 l 4.6e-5,7e-5 z"
       class="fil1 str1"
       id="_58172112-7" />
    <line
       style="fill:none;stroke:#000000;stroke-width:1.30726249;stroke-miterlimit:4;stroke-opacity:1;stroke-dasharray:none"
       y2="473.0108"
       x2="-41.188507"
       y1="479.54456"
       x1="-41.21183"
       class="fil2 str0"
       id="_84548632-9" />
    <line
       style="fill:none;stroke:#000000;stroke-width:1.30726249;stroke-miterlimit:4;stroke-opacity:1;stroke-dasharray:none"
       y2="473.0108"
       x2="-41.188507"
       y1="479.54456"
       x1="-41.21183"
       class="fil2 str0"
       id="_59864792-3" />
    <path
       inkscape:connector-curvature="0"
       style="fill:none;stroke:#000000;stroke-width:1.30726249;stroke-miterlimit:4;stroke-opacity:1;stroke-dasharray:none"
       d="m -108.89528,479.48605 c 11.729055,-15.80062 16.195249,-25.2047 17.466331,-48.90578"
       class="fil2 str0"
       id="_86272528-1" />
    <path
       inkscape:connector-curvature="0"
       sodipodi:nodetypes="ccsscscc"
       style="fill:#f6f6f6;fill-opacity:1;fill-rule:evenodd;stroke:#000000;stroke-width:1.30726249;stroke-miterlimit:4;stroke-opacity:1;stroke-dasharray:none"
       d="m -99.615438,429.8933 c 8.220649,2.60305 16.712637,2.60305 24.661943,0 4.127798,-1.43817 3.297896,-10.89677 -1.423596,-10.50136 -0.002,3.9e-4 -0.0041,3.9e-4 -0.0064,6.6e-4 -6.687109,2.23744 -15.114775,2.23744 -21.801884,0 -0.0025,-2.7e-4 -0.0046,-2.7e-4 -0.0069,-6.6e-4 -4.721035,-0.39456 -5.550565,9.06319 -1.423083,10.50136 -2e-5,0 -3.6e-5,0 -5.1e-5,0 z"
       class="fil1"
       id="_88408648-9" />
    <path
       transform="matrix(0.51481375,0,0,0.36392402,280.82491,-29.380452)"
       d="m -560.71428,913.11871 c 0,13.60988 -68.75627,24.64286 -153.57143,24.64286 -84.81515,0 -153.57142,-11.03298 -153.57142,-24.64286 0,-13.60987 68.75627,-24.64285 153.57142,-24.64285 84.81516,0 153.57143,11.03298 153.57143,24.64285 z"
       sodipodi:ry="24.642857"
       sodipodi:rx="153.57143"
       sodipodi:cy="913.11871"
       sodipodi:cx="-714.28571"
       id="path26472-2"
       style="fill:#f6f6f6;fill-opacity:1;stroke:#000000;stroke-width:3.02017681;stroke-miterlimit:4;stroke-opacity:1;stroke-dasharray:none"
       sodipodi:type="arc" />
    <path
       inkscape:connector-curvature="0"
       sodipodi:nodetypes="ccc"
       style="fill:none;stroke:#000000;stroke-width:1.30726249;stroke-miterlimit:4;stroke-opacity:1;stroke-dasharray:none"
       d="m -148.17126,346.99691 c 0.27561,-5.53309 -12.0919,-5.13591 -10.27413,-1.96947 3.58982,7.08898 27.06481,34.41851 70.915743,34.16765"
       class="fil2 str0"
       id="_84639112-8-8" />
    <path
       transform="matrix(0.47995008,0,0,0.29110651,256.37329,36.753873)"
       d="m -560.71428,913.11871 c 0,13.60988 -68.75627,24.64286 -153.57143,24.64286 -84.81515,0 -153.57142,-11.03298 -153.57142,-24.64286 0,-13.60987 68.75627,-24.64285 153.57142,-24.64285 84.81516,0 153.57143,11.03298 153.57143,24.64285 z"
       sodipodi:ry="24.642857"
       sodipodi:rx="153.57143"
       sodipodi:cy="913.11871"
       sodipodi:cx="-714.28571"
       id="path26472-2-6"
       style="fill:#f6f6f6;fill-opacity:1;stroke:#000000;stroke-width:3.49734765;stroke-miterlimit:4;stroke-opacity:1;stroke-dasharray:none"
       sodipodi:type="arc" />
  </g>
  <g
     style="stroke-width:1.17337439;stroke-miterlimit:4;stroke-dasharray:none"
     transform="matrix(0.99712325,0,0,1.138146,236.6821,-297.02324)"
     id="g3324">
    <line
       id="line3326"
       class="fil2 str0"
       x1="-108.91689"
       y1="486.01974"
       x2="-108.89526"
       y2="479.48608"
       style="fill:none;stroke:#000000;stroke-width:1.17337439;stroke-miterlimit:4;stroke-opacity:1;stroke-dasharray:none" />
    <line
       id="line3328"
       class="fil2 str0"
       x1="-64.961105"
       y1="486.01974"
       x2="-64.939522"
       y2="479.48608"
       style="fill:none;stroke:#000000;stroke-width:1.17337439;stroke-miterlimit:4;stroke-opacity:1;stroke-dasharray:none" />
    <path
       style="fill:#f6f6f6;fill-opacity:1;fill-rule:evenodd;stroke:#000000;stroke-width:1.17337439;stroke-miterlimit:4;stroke-opacity:1;stroke-dasharray:none"
       d="m -99.312964,428.56645 c 0,0 -0.833196,5.66198 -4.679956,10.63302 -3.93434,5.08418 -9.4043,8.16207 -9.4043,8.16207 l -0.0178,0.0216 c -6.65761,4.00332 -14.00191,5.11982 -19.91276,6.66945 -1.04285,0.27344 -2.03491,0.55746 -2.97711,0.87646 -0.4711,0.1595 -0.93109,0.3139 -1.37268,0.49164 -0.44159,0.1778 -0.87437,0.37659 -1.28354,0.57721 -0.40362,0.19839 -0.7896,0.41614 -1.15876,0.64127 -0.37386,0.228 -0.73398,0.46679 -1.06962,0.72683 -1.00692,0.77992 -1.83157,1.71436 -2.4423,2.86446 -0.30536,0.57505 -0.55711,1.21174 -0.74874,1.90249 -0.0639,0.23023 -0.12776,0.46118 -0.17826,0.7054 -0.0586,0.28318 -0.0844,0.56956 -0.0891,0.85509 l 0,0.14963 c 0.002,0.0929 -0.007,0.18506 0,0.27788 l 0,9.46984 c 1.7232,1.91603 3.29419,3.42984 5.93639,4.36082 0.26422,0.0931 0.53334,0.17525 0.82005,0.25651 0.29194,0.0832 0.59135,0.14322 0.90917,0.21375 0.3116,0.0692 0.62374,0.13577 0.96266,0.19245 1.02123,0.17159 2.16248,0.29069 3.47626,0.34201 0.44712,0.40202 0.88705,0.77253 1.33703,1.13297 0.004,0 0.0139,0 0.0178,0 0.44579,0.35659 0.8878,0.7086 1.33703,1.02603 0.004,0 0.0135,0 0.0178,0 4.07725,2.8774 8.30545,4.19138 12.92457,4.53182 0.006,4.6e-4 0.0119,-3.9e-4 0.0178,0 1.02201,0.0748 2.07516,0.0978 3.13755,0.0856 0.53423,-0.007 1.07687,-0.017 1.62226,-0.0425 1.09079,-0.051 2.19436,-0.1378 3.33365,-0.25658 5.44112,4.35396 14.622485,6.38588 23.567298,6.11375 3.156988,-0.0961 6.292338,-0.48203 9.216563,-1.15435 0.974738,-0.22408 1.911474,-0.48144 2.83449,-0.76958 0.0055,0 0.01228,0 0.01781,0 2.301079,-0.71952 4.418931,-1.63978 6.25728,-2.75759 0.0046,0 0.01314,0 0.01781,0 0.727077,-0.4428 1.417542,-0.92699 2.050105,-1.43223 0.0041,0 0.0137,0.007 0.01781,0 1.133046,0.11786 2.230739,0.20559 3.315818,0.25658 0.0058,2.6e-4 0.01198,-3.3e-4 0.01781,0 0.539277,0.0248 1.076072,0.0366 1.604429,0.0425 0.0059,6e-5 0.01197,-7e-5 0.01781,0 0.528103,0.007 1.050959,0.015 1.568777,0 0.0059,-2e-4 0.01192,1.3e-4 0.01781,0 6.277029,-0.18297 11.824962,-1.95662 17.185232,-6.77639 0.0041,-0.007 0.01385,0.007 0.01781,0 1.759874,-0.0687 3.219437,-0.25278 4.474576,-0.53446 0.141091,-0.0314 0.274174,-0.073 0.410024,-0.10688 0.148768,-0.0373 0.30292,-0.0663 0.445676,-0.10687 0.29263,-0.0819 0.568555,-0.16238 0.837868,-0.25651 0.01132,-0.007 0.02436,0.007 0.03567,0 2.642169,-0.93098 4.23106,-2.44479 5.954217,-4.36082 l 0,-9.89735 c -0.0046,-0.28553 -0.04841,-0.57191 -0.106961,-0.85509 -0.810595,-3.91945 -3.367744,-5.99523 -6.916879,-7.41766 -0.431057,-0.17349 -0.877818,-0.33554 -1.337023,-0.49164 -0.952218,-0.3224 -1.957879,-0.60041 -3.012765,-0.87646 -0.510323,-0.13375 -1.038487,-0.27671 -1.568772,-0.40614 -0.01111,0 -0.02456,0 -0.03567,0 -1.073347,-0.2616 -2.177881,-0.5204 -3.315823,-0.79096 -4.801417,-1.14206 -10.072872,-2.54088 -14.974679,-5.49372 l 0.03567,0.0425 c -5.520522,-3.30583 -10.57266,-8.60018 -13.958544,-17.76397 l 0.01781,-0.0425 c 3.371159,9.15052 8.403994,14.4501 13.905066,17.76397 0,0 -7.843085,-4.99882 -9.727884,-8.3019 -1.892492,-3.31662 -5.302134,-10.7314 -5.302134,-10.7314 l -24.09933,0.23821 z"
       id="path3330"
       sodipodi:nodetypes="czccsssssssssccccsssscsssssssscssssssscssssssscsssssccssssssscccccscc"
       inkscape:connector-curvature="0" />
    <line
       id="line3332"
       class="fil2 str0"
       x1="-108.91689"
       y1="486.01974"
       x2="-108.89526"
       y2="479.48608"
       style="fill:none;stroke:#000000;stroke-width:1.17337439;stroke-miterlimit:4;stroke-opacity:1;stroke-dasharray:none" />
    <path
       id="path3334"
       class="fil2 str0"
       d="m -41.177307,473.01081 c -5.447,-9.62745 -31.047593,-15.10999 -33.335393,-43.64582 -10.389853,2.05657 -18.220314,2.05618 -24.79484,0 -2.28771,28.53583 -27.88862,34.01844 -33.33567,43.64582 m 91.465573,0 c 6.820588,-0.0431 12.974043,-5.04915 12.036951,-9.57953 -3.232726,-15.63144 -34.204271,-2.01107 -45.372385,-34.06629 m -34.381559,50.12145 c -9.1144,0.94994 -16.59512,-0.0432 -23.74891,-6.47569 m 23.74891,6.47569 c 10.24197,8.19561 33.726309,8.19561 43.968231,0 m -67.717141,-6.47569 c -6.82044,-0.0425 -12.97406,-5.04915 -12.03695,-9.57954 3.23275,-15.63144 34.20447,-2.011 45.372717,-34.06628 m 34.381562,50.12164 c 9.114259,0.95 16.594939,-0.0431 23.748716,-6.47563"
       style="fill:none;stroke:#000000;stroke-width:1.17337439;stroke-miterlimit:4;stroke-opacity:1;stroke-dasharray:none"
       inkscape:connector-curvature="0" />
    <line
       id="line3336"
       class="fil2 str0"
       x1="-64.961105"
       y1="486.01974"
       x2="-64.939522"
       y2="479.48608"
       style="fill:none;stroke:#000000;stroke-width:1.17337439;stroke-miterlimit:4;stroke-opacity:1;stroke-dasharray:none" />
    <path
       id="path3338"
       class="fil1 str1"
       d="m -103.06011,389.07286 c 7.416476,2.14723 24.837937,2.14782 32.254644,3.9e-4 0.816882,-0.23631 1.512107,-0.49896 2.059401,-0.7873 4.651415,-2.45185 5.816166,-7.5787 3.682447,-11.60686 -6.954961,1.53192 -14.290033,2.35175 -21.869265,2.35175 -7.57871,0 -14.913647,-0.81983 -21.868567,-2.35175 -2.13371,4.02813 -0.96863,9.15501 3.68245,11.60686 0.54715,0.28834 1.24238,0.5506 2.05894,0.78691 l -5e-5,0 z"
       style="fill:#ffd42a;fill-opacity:1;fill-rule:evenodd;stroke:#000000;stroke-width:1.17337439;stroke-miterlimit:4;stroke-opacity:1;stroke-dasharray:none"
       inkscape:connector-curvature="0" />
    <path
       id="path3340"
       class="fil1 str1"
       d="m -75.515073,409.65337 c -5.479897,1.85287 -17.355907,1.85287 -22.83557,0 0.726397,2.73352 0.920925,6.48687 0.470692,10.45711 0.002,3.9e-4 0.0046,3.9e-4 0.007,5.8e-4 6.711278,1.97139 15.16945,1.97139 21.880815,0 0.002,-1.9e-4 0.0041,-1.9e-4 0.0064,-5.8e-4 -0.450187,-3.97024 -0.255704,-7.72359 0.470692,-10.45711 l 0,0 z"
       style="fill:#f6f6f6;fill-opacity:1;fill-rule:evenodd;stroke:#000000;stroke-width:1.17337439;stroke-miterlimit:4;stroke-opacity:1;stroke-dasharray:none"
       inkscape:connector-curvature="0" />
    <path
       id="path3342"
       class="fil1 str1"
       d="m -73.934093,401.61994 c -4.758072,2.7749 -21.24128,2.7749 -25.999154,0 -2.072303,2.12285 -2.345203,5.41495 0,7.34294 0.435187,0.25382 0.968451,0.48425 1.581767,0.69147 5.479709,1.85281 17.355718,1.85281 22.83557,0 0.613315,-0.20722 1.146391,-0.43765 1.581766,-0.69147 2.345023,-1.92799 2.072117,-5.22009 0,-7.34294 l 5.1e-5,0 z"
       style="fill:#ffd42a;fill-opacity:1;fill-rule:evenodd;stroke:#000000;stroke-width:1.17337439;stroke-miterlimit:4;stroke-opacity:1;stroke-dasharray:none"
       inkscape:connector-curvature="0" />
    <path
       id="path3344"
       class="fil1 str1"
       d="m -99.932643,401.61994 c 4.757879,2.7749 21.241087,2.7749 25.999154,0 0.06057,-3.01403 -0.0964,-7.97624 3.127744,-12.54917 -7.416798,2.14782 -24.838169,2.14723 -32.254645,0 3.224199,4.573 3.067175,9.53521 3.127747,12.54917 l 0,0 z"
       style="fill:#f6f6f6;fill-opacity:1;fill-rule:evenodd;stroke:#000000;stroke-width:1.17337439;stroke-miterlimit:4;stroke-opacity:1;stroke-dasharray:none"
       inkscape:connector-curvature="0" />
    <path
       id="path3346"
       class="fil2 str0"
       d="m -7.9205711,303.00897 c 1.2227192,4.37593 1.6534311,8.13281 1.6534311,12.79528 0,34.91303 -36.122352,63.2259 -80.665277,63.2259 -44.542413,0 -80.664793,-28.31287 -80.664793,-63.2259 0,-4.9037 0.59303,-9.26727 1.94153,-13.85084 23.5587,6.1942 51.28148,9.76638 80.948259,9.76638 27.937872,0 54.151862,-3.16884 76.7868499,-8.71082 l 0,0 z"
       style="fill:#f6f6f6;fill-opacity:1;fill-rule:evenodd;stroke:#000000;stroke-width:1.17337439;stroke-miterlimit:4;stroke-opacity:1;stroke-dasharray:none"
       inkscape:connector-curvature="0" />
    <path
       id="path3348"
       class="fil2 str0"
       d="m -108.80205,376.6777 c -2.13372,4.02813 -0.96864,9.15496 3.6825,11.60688 6.065761,3.19633 30.307156,3.19731 36.372927,0 4.651415,-2.45186 5.816166,-7.57872 3.682447,-11.60688"
       style="fill:#f6f6f6;fill-opacity:1;fill-rule:evenodd;stroke:#000000;stroke-width:1.17337439;stroke-miterlimit:4;stroke-opacity:1;stroke-dasharray:none"
       inkscape:connector-curvature="0" />
    <path
       id="path3350"
       class="fil2 str0"
       d="m -73.934093,401.61994 c 2.072117,2.12285 2.345018,5.41495 0,7.34294 -4.758072,2.77497 -21.24128,2.77497 -25.999154,0 -2.345203,-1.92799 -2.072303,-5.22009 0,-7.34294"
       style="fill:#ffd42a;fill-opacity:1;fill-rule:evenodd;stroke:#000000;stroke-width:1.17337439;stroke-miterlimit:4;stroke-opacity:1;stroke-dasharray:none"
       inkscape:connector-curvature="0" />
    <path
       id="path3352"
       class="fil2 str0"
       d="m -99.932643,401.61994 c 4.757879,2.7749 21.241087,2.7749 25.999154,0"
       style="fill:#ffd42a;fill-opacity:1;fill-rule:evenodd;stroke:#000000;stroke-width:1.17337439;stroke-miterlimit:4;stroke-opacity:1;stroke-dasharray:none"
       inkscape:connector-curvature="0" />
    <path
       id="path3354"
       class="fil2 str0"
       d="m -73.934093,401.61994 c 2.072117,2.12285 2.345018,5.41495 0,7.34294 -4.758072,2.77497 -21.24128,2.77497 -25.999154,0 -2.345203,-1.92799 -2.072303,-5.22009 0,-7.34294"
       style="fill:#f6f6f6;fill-opacity:1;fill-rule:evenodd;stroke:#000000;stroke-width:1.17337439;stroke-miterlimit:4;stroke-opacity:1;stroke-dasharray:none"
       inkscape:connector-curvature="0" />
    <path
       id="path3356"
       class="fil2 str0"
       d="m -99.932643,401.61994 c 4.757879,2.7749 21.241087,2.7749 25.999154,0"
       style="fill:none;stroke:#000000;stroke-width:1.17337439;stroke-miterlimit:4;stroke-opacity:1;stroke-dasharray:none"
       inkscape:connector-curvature="0" />
    <path
       id="path3358"
       class="fil2 str0"
       d="m -114.12118,350.55735 c -0.3556,-5.40604 -14.09696,-6.01551 -14.01293,-2.65003 0.1596,6.40639 2.86976,26.35672 40.721529,31.3787"
       style="fill:none;stroke:#000000;stroke-width:1.17337439;stroke-miterlimit:4;stroke-opacity:1;stroke-dasharray:none"
       inkscape:connector-curvature="0" />
    <path
       id="path3360"
       class="fil2 str0"
       d="m -128.06883,348.21597 c -0.74693,-4.18479 -11.5167,-4.21043 -11.18461,-1.44206 0.2422,5.68262 4.17743,28.62642 51.840786,32.51207"
       style="fill:none;stroke:#000000;stroke-width:1.17337439;stroke-miterlimit:4;stroke-opacity:1;stroke-dasharray:none"
       inkscape:connector-curvature="0" />
    <path
       id="path3362"
       class="fil2 str0"
       d="m -87.412654,379.28589 c -16.140016,-3.6183 -25.997246,-15.8546 -26.708566,-28.72868 -0.29133,-5.27673 15.35777,-4.25434 15.156231,-0.13507"
       style="fill:none;stroke:#000000;stroke-width:1.17337439;stroke-miterlimit:4;stroke-opacity:1;stroke-dasharray:none"
       inkscape:connector-curvature="0" />
    <path
       id="path3364"
       class="fil2 str0"
       d="m -87.412654,379.28589 c -46.282826,-2.045 -61.504156,-20.98269 -60.763716,-34.49795 0.11698,-2.13348 8.46861,-1.50424 8.90314,1.60755"
       style="fill:none;stroke:#000000;stroke-width:1.17337439;stroke-miterlimit:4;stroke-opacity:1;stroke-dasharray:none"
       inkscape:connector-curvature="0" />
    <path
       id="path3366"
       class="fil2 str0"
       d="m -87.412654,379.28589 c -11.541542,-12.52943 -12.228044,-25.69113 -11.441408,-29.55087 0.638053,-3.13101 22.246263,-3.13149 22.884198,0 0.786899,3.85975 0.100132,17.02144 -11.441403,29.55087"
       style="fill:none;stroke:#000000;stroke-width:1.17337439;stroke-miterlimit:4;stroke-opacity:1;stroke-dasharray:none"
       inkscape:connector-curvature="0" />
    <path
       id="path3368"
       class="fil2 str0"
       d="m -60.702751,350.55735 c 0.355751,-5.40604 14.096995,-6.01551 14.013094,-2.65003 -0.159722,6.40639 -2.869874,26.35672 -40.721536,31.3787"
       style="fill:none;stroke:#000000;stroke-width:1.17337439;stroke-miterlimit:4;stroke-opacity:1;stroke-dasharray:none"
       inkscape:connector-curvature="0" />
    <path
       id="path3370"
       class="fil2 str0"
       d="m -46.755055,348.21597 c 0.746912,-4.18479 11.516803,-4.21043 11.184592,-1.44206 -0.242089,5.68262 -4.17741,28.62642 -51.840661,32.51207"
       style="fill:none;stroke:#000000;stroke-width:1.17337439;stroke-miterlimit:4;stroke-opacity:1;stroke-dasharray:none"
       inkscape:connector-curvature="0" />
    <path
       id="path3372"
       class="fil2 str0"
       d="m -87.411267,379.28589 c 16.140053,-3.6183 25.997095,-15.8546 26.708442,-28.72868 0.29133,-5.27673 -15.357503,-4.25434 -15.155961,-0.13507"
       style="fill:none;stroke:#000000;stroke-width:1.17337439;stroke-miterlimit:4;stroke-opacity:1;stroke-dasharray:none"
       inkscape:connector-curvature="0" />
    <path
       id="path3374"
       class="fil2 str0"
       d="m -87.411267,379.28589 c 46.282703,-2.045 61.504172,-20.98269 60.763741,-34.49795 -0.116996,-2.13348 -8.468628,-1.50424 -8.903151,1.60755"
       style="fill:none;stroke:#000000;stroke-width:1.17337439;stroke-miterlimit:4;stroke-opacity:1;stroke-dasharray:none"
       inkscape:connector-curvature="0" />
    <path
       id="path3376"
       class="fil2 str0"
       d="m -26.68035,346.79265 c -0.275607,-5.53309 12.939438,-4.71214 11.121667,-1.5457 -5.200135,8.69929 -28.759874,34.41851 -71.678526,33.74388"
       style="fill:none;stroke:#000000;stroke-width:1.17337439;stroke-miterlimit:4;stroke-opacity:1;stroke-dasharray:none"
       sodipodi:nodetypes="ccc"
       inkscape:connector-curvature="0" />
    <path
       id="path3378"
       class="fil2 str0"
       d="m -108.89528,479.48605 c 11.729055,-15.80062 16.076342,-24.99101 17.347425,-48.69203"
       style="fill:none;stroke:#000000;stroke-width:1.17337439;stroke-miterlimit:4;stroke-opacity:1;stroke-dasharray:none"
       inkscape:connector-curvature="0" />
    <line
       id="line3380"
       class="fil2 str0"
       x1="-132.6653"
       y1="479.54456"
       x2="-132.64374"
       y2="473.0108"
       style="fill:none;stroke:#000000;stroke-width:1.17337439;stroke-miterlimit:4;stroke-opacity:1;stroke-dasharray:none" />
    <line
       id="line3382"
       class="fil2 str0"
       x1="-132.6653"
       y1="479.54456"
       x2="-132.64374"
       y2="473.0108"
       style="fill:none;stroke:#000000;stroke-width:1.17337439;stroke-miterlimit:4;stroke-opacity:1;stroke-dasharray:none" />
    <path
       id="path3384"
       class="fil1 str1"
       d="m -64.970616,479.48605 c -11.729053,-15.80062 -16.07635,-24.99101 -17.347428,-48.69203 2.79623,-0.20258 5.362153,-0.67931 7.760659,-1.42948 2.287709,28.53582 27.888485,34.01843 33.335485,43.64581 -7.153778,6.43249 -14.634411,7.42563 -23.748762,6.47563 l 4.6e-5,7e-5 z"
       style="fill:none;stroke:#000000;stroke-width:1.17337439;stroke-miterlimit:4;stroke-opacity:1;stroke-dasharray:none"
       inkscape:connector-curvature="0" />
    <line
       id="line3386"
       class="fil2 str0"
       x1="-41.21183"
       y1="479.54456"
       x2="-41.188507"
       y2="473.0108"
       style="fill:none;stroke:#000000;stroke-width:1.17337439;stroke-miterlimit:4;stroke-opacity:1;stroke-dasharray:none" />
    <line
       id="line3388"
       class="fil2 str0"
       x1="-41.21183"
       y1="479.54456"
       x2="-41.188507"
       y2="473.0108"
       style="fill:none;stroke:#000000;stroke-width:1.17337439;stroke-miterlimit:4;stroke-opacity:1;stroke-dasharray:none" />
    <path
       id="path3390"
       class="fil2 str0"
       d="m -108.89528,479.48605 c 11.729055,-15.80062 16.195249,-25.2047 17.466331,-48.90578"
       style="fill:none;stroke:#000000;stroke-width:1.17337439;stroke-miterlimit:4;stroke-opacity:1;stroke-dasharray:none"
       inkscape:connector-curvature="0" />
    <path
       id="path3392"
       class="fil1"
       d="m -99.615438,429.8933 c 8.220649,2.60305 16.712637,2.60305 24.661943,0 4.127798,-1.43817 3.297896,-10.89677 -1.423596,-10.50136 -0.002,3.9e-4 -0.0041,3.9e-4 -0.0064,6.6e-4 -6.687109,2.23744 -15.114775,2.23744 -21.801884,0 -0.0025,-2.7e-4 -0.0046,-2.7e-4 -0.0069,-6.6e-4 -4.721035,-0.39456 -5.550565,9.06319 -1.423083,10.50136 -2e-5,0 -3.6e-5,0 -5.1e-5,0 z"
       style="fill:#f6f6f6;fill-opacity:1;fill-rule:evenodd;stroke:#000000;stroke-width:1.17337439;stroke-miterlimit:4;stroke-opacity:1;stroke-dasharray:none"
       sodipodi:nodetypes="ccsscscc"
       inkscape:connector-curvature="0" />
    <path
       sodipodi:type="arc"
       style="fill:#f6f6f6;fill-opacity:1;stroke:#000000;stroke-width:2.71085429;stroke-miterlimit:4;stroke-opacity:1;stroke-dasharray:none"
       id="path3394"
       sodipodi:cx="-714.28571"
       sodipodi:cy="913.11871"
       sodipodi:rx="153.57143"
       sodipodi:ry="24.642857"
       d="m -560.71428,913.11871 c 0,13.60988 -68.75627,24.64286 -153.57143,24.64286 -84.81515,0 -153.57142,-11.03298 -153.57142,-24.64286 0,-13.60987 68.75627,-24.64285 153.57142,-24.64285 84.81516,0 153.57143,11.03298 153.57143,24.64285 z"
       transform="matrix(0.51481375,0,0,0.36392402,280.82491,-29.380452)" />
    <path
       id="path3396"
       class="fil2 str0"
       d="m -148.17126,346.99691 c 0.27561,-5.53309 -12.0919,-5.13591 -10.27413,-1.96947 3.58982,7.08898 27.06481,34.41851 70.915743,34.16765"
       style="fill:none;stroke:#000000;stroke-width:1.17337439;stroke-miterlimit:4;stroke-opacity:1;stroke-dasharray:none"
       sodipodi:nodetypes="ccc"
       inkscape:connector-curvature="0" />
    <path
       sodipodi:type="arc"
       style="fill:#f6f6f6;fill-opacity:1;stroke:#000000;stroke-width:3.13915392;stroke-miterlimit:4;stroke-opacity:1;stroke-dasharray:none"
       id="path3398"
       sodipodi:cx="-714.28571"
       sodipodi:cy="913.11871"
       sodipodi:rx="153.57143"
       sodipodi:ry="24.642857"
       d="m -560.71428,913.11871 c 0,13.60988 -68.75627,24.64286 -153.57143,24.64286 -84.81515,0 -153.57142,-11.03298 -153.57142,-24.64286 0,-13.60987 68.75627,-24.64285 153.57142,-24.64285 84.81516,0 153.57143,11.03298 153.57143,24.64285 z"
       transform="matrix(0.47995008,0,0,0.29110651,256.37329,36.753873)" />
  </g>
  <use
     style="fill:url(#rg-1-1);stroke:#000000;stroke-width:3"
     id="shine"
     xlink:href="#shield"
     x="0"
     y="0"
     width="1"
     height="1" />
</svg>
