<?xml version="1.0" encoding="UTF-8"?>
<svg xmlns="http://www.w3.org/2000/svg" xmlns:xlink="http://www.w3.org/1999/xlink" width="600" height="660">
<defs>
  <radialGradient id="rg" gradientUnits="userSpaceOnUse" cx="220" cy="220" r="405">
    <stop style="stop-color:#fff;stop-opacity:.3" offset="0"/>
    <stop style="stop-color:#fff;stop-opacity:.2" offset=".2"/>
    <stop style="stop-color:#666;stop-opacity:.1" offset=".6"/>
    <stop style="stop-color:#000;stop-opacity:.13" offset="1"/>
  </radialGradient>
  <path id="shield" d="m2,2v257c0,286 298,398 298,398c0,0 298-112 298-398V2z"/>
</defs>
<use id="background" xlink:href="#shield" style="fill:#000000;"/>
<path style="fill:#cd7f32;" d="m 120.7,79.293 a 41.407,41.407 0 0 0 -41.407,41.407 41.407,41.407 0 0 0 20.707,35.8 v 0.1 a 41.407,41.407 0 0 0 -20.707,35.82 41.407,41.407 0 0 0 20.707,35.8 v 0.1 a 41.407,41.407 0 0 0 -20.707,35.82 41.407,41.407 0 0 0 20.757,35.83 41.407,41.407 0 0 0 -11.507,28.62 41.407,41.407 0 0 0 30.847,40.02 41.407,41.407 0 0 0 -5.66,20.79 41.407,41.407 0 0 0 39.41,41.34 41.407,41.407 0 0 0 -2.93,15.26 41.407,41.407 0 0 0 41.41,41.41 41.407,41.407 0 0 0 9.12,-1.06 41.407,41.407 0 0 0 -0.28,3.86 41.407,41.407 0 0 0 40.71,42.09 41.407,41.407 0 0 0 17.54,-3.63 41.407,41.407 0 0 0 41.29,38.36 41.407,41.407 0 0 0 41.25,-38.37 41.407,41.407 0 0 0 17.58,3.64 41.407,41.407 0 0 0 40.71,-42.09 41.407,41.407 0 0 0 -0.28,-3.86 41.407,41.407 0 0 0 9.12,1.06 41.407,41.407 0 0 0 41.41,-41.41 41.407,41.407 0 0 0 -2.93,-15.26 41.407,41.407 0 0 0 39.41,-41.34 41.407,41.407 0 0 0 -5.66,-20.79 41.407,41.407 0 0 0 30.85,-40.02 41.407,41.407 0 0 0 -11.51,-28.62 41.407,41.407 0 0 0 20.76,-35.83 41.407,41.407 0 0 0 -20.71,-35.82 v -0.1 a 41.407,41.407 0 0 0 20.71,-35.8 41.407,41.407 0 0 0 -20.71,-35.82 v -0.1 a 41.407,41.407 0 0 0 20.71,-35.8 41.407,41.407 0 0 0 -41.41,-41.407 41.407,41.407 0 0 0 -35.82,20.707 h -0.1 a 41.407,41.407 0 0 0 -35.8,-20.707 41.407,41.407 0 0 0 -35.82,20.707 h -0.1 a 41.407,41.407 0 0 0 -35.8,-20.707 41.407,41.407 0 0 0 -35.82,20.707 h -0.1 a 41.407,41.407 0 0 0 -35.8,-20.707 41.407,41.407 0 0 0 -35.82,20.707 h -0.1 a 41.407,41.407 0 0 0 -35.8,-20.707 41.407,41.407 0 0 0 -35.82,20.707 h -0.1 a 41.407,41.407 0 0 0 -35.82,-20.707 z"/>
<g id="horse"  style="fill:#333333;stroke:#1a1a1a;stroke-width:1;stroke-linecap:round;stroke-linejoin:round;">
  <path id="neck" d="M 279.39648 160.36914 C 272.96753 160.28058 266.70553 160.98352 260.85742 162.5918 C 231.84395 170.57077 228.14545 210.23918 226.00977 240.25391 C 224.48969 261.61709 251.78252 272.51432 246.03711 293.14648 C 240.46606 313.15259 203.6439 315.55205 186.91406 377.76367 C 186.41082 379.63504 185.84004 381.32269 185.26367 382.99414 C 216.971 434.62926 263.95859 470.27197 300 491.97852 C 324.49046 477.22873 354.01488 455.99148 380.38867 427.73047 C 367.51536 414.22029 358.83745 399.98582 358.76172 379.64258 C 358.65246 350.24836 378.68839 309.62586 379.40625 280.24023 C 380.29334 243.92688 372.85034 227.40662 352.45703 197.10938 C 338.26336 176.02255 307.25528 160.75292 279.39648 160.36914 z " />
  <path id="head" d="m 308.24929,259.97849 c -8.29186,23.78047 -28.54269,29.36095 -45.99646,27.69175 -18.4708,-1.76648 -21.38915,-10.85163 -39.89493,-12.20315 -10.14228,-0.74074 -23.26125,2.54953 -32.38528,7.04026 -11.25936,5.54174 -10.67332,19.22792 -22.99823,21.59022 -5.77736,1.10732 -14.30948,1.74765 -17.55816,-3.62429 -2.9914,-4.94653 -8.98529,-3.50629 -10.13358,-6.70148 -2.62339,-7.29946 5.99048,-13.42715 12.67248,-17.36601 8.73974,-5.15186 12.99735,-8.348 22.9364,-10.38269 24.72601,-5.06183 4.7914,-6.9339 -1.92457,-4.91149 -8.98961,2.70704 -17.31501,9.5472 -26.64404,10.60067 -7.04315,0.7953 -10.30755,-3.49754 -15.4886,-5.16289 -3.5809,-1.15097 -9.4764,-2.69093 -9.79947,-6.43833 -0.72672,-8.43013 5.1789,-11.18955 8.11646,-19.12464 3.13648,-8.47244 -1.86942,-9.17394 1.35112,-16.03851 0.95099,-2.02705 5.65703,-7.6288 16.40975,-7.95775 8.31579,-0.25445 37.85063,-19.56255 47.79221,-21.92947 9.87073,-2.3501 20.65817,-18.93373 28.36932,-21.24854 15.06686,-4.52294 18.00592,2.07139 31.66946,0.27498"/>
  <path id="nose" style="fill:#1a1a1a;stroke:none;" d="m 148.91074,236.57997 c 0.0307,-1.4611 0.47151,-2.92941 0.23767,-4.3796 -0.18649,-1.15769 -1.4182,-1.71822 -2.28944,-2.47146 -0.90956,-0.7864 -0.71779,-2.38848 -0.2183,-3.44009 0.48826,-1.02772 1.90168,-1.08862 2.93237,-0.71611 2.62562,0.94884 4.69325,1.69826 6.07543,4.07707 1.96941,3.38945 -2.11799,8.04546 -4.93666,8.65522 -1.74936,0.37842 -1.83306,-0.2021 -1.80116,-1.72498 z" />
  <path id="mane" style="fill:#ee0000;stroke:#aa0000;" d="m 286.06498,139.73223 c 6.79184,1.68284 8.07655,-5.63262 16.89001,-9.56987 11.45768,-5.11855 8.29468,-4.95706 10.01055,-17.58086 5.9659,4.22144 9.95036,10.84044 14.427,23.25941 13.94697,-11.71526 33.13039,-9.34311 47.08316,5.94487 -11.75691,1.60822 -21.6767,14.5353 -11.00673,12.59547 8.43272,-1.53308 14.00488,-1.89864 22.48422,-0.97937 8.06876,0.8963 13.82657,8.50553 26.68392,4.34232 2.99828,12.06962 -16.47278,15.63725 -22.71514,21.75117 3.64926,4.57913 11.58511,4.38806 21.10026,0.0299 12.02923,-5.50963 19.87112,13.91004 39.47767,-2.24026 4.95455,11.71156 -11.09262,19.22627 -22.87496,22.9177 -7.89589,1.71344 -16.25337,11.48069 -16.25337,11.48069 0,0 16.87431,-8.52294 30.30212,1.86454 11.80579,9.13276 14.20148,19.1194 33.68868,17.95344 -11.29656,17.38341 -33.43815,-1.8601 -52.82486,19.30914 35.02127,3.10408 30.04634,40.24339 60.35085,30.89483 -5.50795,21.12306 -38.25881,1.70789 -43.63178,19.13866 14.89031,-2.1317 13.43723,17.68864 33.87404,10.34797 -13.63314,26.43686 -38.23545,10.40612 -45.64558,36.0334 16.83241,0.84252 33.28848,-9.19814 39.06421,15.82301 -24.22349,-13.81114 -30.44276,11.78885 -49.44331,8.76642 21.55656,7.19948 9.52871,16.94983 27.53329,14.61389 -8.64422,14.02214 -32.40852,9.42765 -41.05953,8.57558 9.85561,2.4285 18.49416,19.44955 17.82379,28.07045 -5.10639,-13.16366 -21.13775,-7.72847 -27.15987,-10.12414 4.95658,15.32358 -8.20067,26.51058 2.19694,42.6422 -24.10851,-3.76939 -27.95833,-39.64693 -35.45349,-39.89406 -12.87223,-0.4244 -11.98531,20.42254 -21.67224,16.40231 0.18101,-27.03329 -10.3964,-36.96233 8.28844,-60.88683 7.25147,-9.28493 7.83358,-30.13572 -3.34181,-28.04906 1.04085,-11.5104 17.59188,-27.58559 16.95004,-41.58401 -2.75982,-60.19162 1.08263,-44.73243 -9.72651,-71.12475 -4.67168,-11.40667 -11.56175,-19.30471 -18.14058,-11.69084 -2.29432,-10.39486 -8.44752,-8.2789 -8.03806,-23.95543 0.35657,-13.65165 -13.1348,-24.91901 -25.31734,-16.42571 -4.28329,2.98617 -1.58063,4.77041 -15.01648,7.20349 0.10199,-6.45713 -2.51748,-11.35322 -11.15179,-13.19927 -6.69861,-1.43221 -20.20623,4.87824 -26.70089,5.94613 -20.2479,3.32923 -25.57313,-1.01827 -34.62385,-16.38045 39.87078,-0.16452 44.6456,-13.68786 23.37823,-16.71927 16.12572,-16.31954 39.16162,-8.23539 50.19075,-5.50268 z" />
  <g id="ear">
    <path d="m 290.01558,185.06368 c -1.06219,-23.07451 26.47795,-30.47025 43.62054,-48.74895 6.93459,-7.28879 13.80298,17.23342 8.11772,32.44335 -5.50571,14.72949 -13.96234,22.98477 -27.00785,25.24844" />
    <path style="fill:#1a1a1a;stroke:none;" d="m 301.16507,181.44528 c -1.01276,-0.1706 -1.08305,-1.74647 -1.38896,-2.73444 -0.29414,-0.94989 -0.44781,-1.95636 -0.37547,-2.94693 0.10816,-1.47852 0.65315,-2.90746 1.52596,-4.11445 0.48787,-0.67468 1.01531,-1.32522 1.62015,-1.89234 1.03516,-0.97056 2.22839,-1.78626 3.50081,-2.41309 1.20729,-0.59479 2.47889,-1.06343 3.78743,-1.39129 0.95484,-0.23911 1.93849,-0.39233 2.91897,-0.45964 0.87648,-0.0601 1.71105,0.28133 2.5439,0.51192 0.84322,0.23334 2.01415,0.0815 2.49642,0.81162 0.34725,0.52572 -0.23653,1.49237 -0.83482,1.69474 -1.94646,0.65823 -4.08394,0.45705 -6.12121,0.72083 -1.3741,0.17782 -2.79221,0.37221 -4.00518,1.09828 -0.64913,0.38855 -1.20381,0.91365 -1.61743,1.55101 -0.9438,1.45441 -1.1188,3.24144 -1.17569,4.93046 -0.026,0.76293 0.16566,1.54867 0.0145,2.29044 -0.22669,1.10998 -0.50856,2.27704 -1.19456,3.17766 -0.22379,0.29391 -0.7421,0.15498 -1.06964,0.0145 -0.32312,-0.1385 -0.27845,-0.79098 -0.62501,-0.84933 z m 6.47311,7.60878 c -0.86629,-0.93468 -1.37093,-2.39299 -0.69761,-3.58313 0.98484,-1.7408 2.88158,-2.62803 4.54848,-3.57965 0.89631,-0.51172 2.02519,-0.74234 2.72079,-1.49368 2.57235,-2.77832 4.40814,-6.18461 5.96236,-9.63809 1.68493,-3.74391 2.68288,-7.75745 3.30358,-11.80745 0.21888,-1.42813 0.12495,-2.90414 0.47434,-4.30476 0.10703,-0.42999 0.60457,-1.04768 1.05354,-0.94555 0.43374,0.0986 0.99863,0.0341 1.0959,0.66013 0.47773,3.07447 0.78215,6.17774 0.68879,9.2782 -0.13642,4.52971 -0.97263,9.05422 -2.62786,13.28719 -1.15258,2.94739 -2.73143,5.7935 -4.99647,8.01991 -1.50684,1.48116 -3.26813,2.7127 -5.24453,3.48725 -1.87236,0.73375 -3.88293,1.19967 -5.88677,1.08767 -0.20385,-0.0113 -0.25589,-0.31838 -0.39454,-0.46804 z" />
  </g>
  <g id="eye">
    <path style="fill:#ffffff;" d="m 228.82043,202.36767 c 0.0562,4.66051 6.5339,12.37027 14.45521,12.46468 7.93822,-0.0764 14.41733,-8.05532 14.53213,-12.69894 -0.20963,-4.84811 -6.69587,-3.76603 -14.63411,-3.68969 -7.9551,0.24721 -14.39227,-0.90727 -14.35323,3.92395 z"/>
    <path style="fill:#ee0000;stroke:none;" d="m 236.24994,205.68911 a 6.2278954,6.5006874 5.6524808 0 0 5.50427,7.0962 6.2278954,6.5006874 5.6524808 0 0 6.78851,-5.87954 6.2278954,6.5006874 5.6524808 0 0 -5.50423,-7.09618 6.2278954,6.5006874 5.6524808 0 0 -6.78855,5.87952 z" />
    <path style="fill:#000000;stroke:none;" d="m 242.87126,203.24115 c 1.53657,0.15208 2.9549,1.49931 2.769,3.37736 -0.18591,1.87806 -1.84075,2.92112 -3.37737,2.76903 -1.87804,-0.18592 -3.29635,-1.53309 -3.11047,-3.41115 0.18593,-1.87808 1.84077,-2.92113 3.71884,-2.73524 z" />
    <path style="fill:#ffffff;stroke:none;" d="m 241.07767,202.2016 c 1.02441,0.10155 1.9474,1.22719 1.82912,2.42231 -0.13496,1.36586 -1.24406,2.11817 -2.26849,2.01675 -1.36585,-0.13496 -2.30576,-1.09023 -2.17058,-2.45611 0.11833,-1.19513 1.24409,-2.11812 2.60995,-1.98295 z" />
  </g>
</g>
<use id="shine" xlink:href="#shield" style="fill:url(#rg);stroke:#000000;stroke-width:3;"/>
</svg>
