<?xml version="1.0" encoding="UTF-8"?>
<svg xmlns="http://www.w3.org/2000/svg" xmlns:xlink="http://www.w3.org/1999/xlink" width="600" height="660">
<defs>
  <radialGradient id="rg" gradientUnits="userSpaceOnUse" cx="220" cy="220" r="405">
    <stop style="stop-color:#ffffff;stop-opacity:.3" offset="0"/>
    <stop style="stop-color:#ffffff;stop-opacity:.2" offset=".2"/>
    <stop style="stop-color:#666666;stop-opacity:.1" offset=".6"/>
    <stop style="stop-color:#000000;stop-opacity:.13" offset="1"/>
  </radialGradient>
  <path id="shield" d="m2,2v257c0,286 298,398 298,398c0,0 298-112 298-398V2z"/>
</defs>
<use id="bg" xlink:href="#shield" style="fill:#ffffff;"/>
<path id="bordure" style="fill:#cc0000;" d="m 2,2 v 257 c 0,286 298,398 298,398 0,0 298,-112 298,-398 v -257 z m 98,98 h 400 v 159 c 0,165.4 -134.9,256 -200,290.2 -65.1,-34.2 -200,-124.8 -200,-290.2 z" />
<path id="noose" style="fill:#000000;stroke-width:1;stroke:none" d="m 296.7,523.6 c -9.7,-2.6 -18.2,-11.7 -20.6,-22.3 -3.2,-13.1 0.9,-24.4 13.9,-39 2.1,-2.6 4.3,-5.4 4.8,-6.5 1,-2 1.5,-2 4.1,-0.6 l 1.9,0.9 -1.7,2.7 c -1,1.7 -3.6,5.3 -5.8,7.9 -5,5.3 -9,11.3 -11.2,16 -1.3,3.2 -1.5,4.3 -1.5,10.5 0,7.5 1,10.9 4.9,16.1 4,6 11.3,10 17.8,10 10.4,0 17.7,-8.7 16.4,-20.1 -0.7,-7.4 -3,-13.1 -11,-27.5 -5.1,-9.4 -7.6,-14.8 -7.1,-15.1 0.1,0 1.4,0.7 3.2,1 l 3.3,1.8 5.6,10.3 c 9.1,16.7 11.1,22.7 11.1,31.9 0,6.4 -1.1,10.3 -4.3,14.6 -4.8,6.8 -14.8,9.9 -23.8,7.4 z m 4.9,-68.1 c -5,-2.3 -9.2,-4.5 -9.7,-4.8 -0.9,-0.8 -0.1,-3.4 1.2,-4.1 0.8,-0.1 4.2,1.1 10.4,4.1 5,2.2 9.6,4.5 10,4.8 0.8,0.6 0.8,2.8 0,3.6 -1.3,1.2 -2.8,0.6 -11.9,-3.6 z m 0.2,-6.5 c -7.9,-3.7 -9.9,-4.9 -10.2,-6 -0.4,-1.4 0.6,-3.1 2.2,-3.1 1.1,0 16.9,7 19.1,8.5 1.6,1.1 1.5,3 -0.2,4.3 -1,0.5 -2,0.2 -10.9,-3.7 z m -0.1,-6.8 c -5,-2.3 -9.2,-4.3 -9.7,-4.9 -1,-0.8 -0.4,-3.3 1,-3.9 0.8,-0.3 4.6,1.2 11,4.2 8.2,3.7 9.8,4.9 9.9,5.7 0.2,1.7 -0.7,3.2 -2.2,3.2 -1,0 -5.3,-2 -10,-4.3 z m -0.3,-6.6 c -7.7,-3.7 -9.5,-4.8 -9.8,-5.9 -0.4,-1.5 0.6,-3.1 2.1,-3.1 1.1,0 18.4,8 19.6,8.8 1.5,1.3 0.3,4.8 -1.6,4.5 -0.4,0 -5.1,-2 -10.3,-4.3 z m 4.5,-9 v -4.6 l 2.3,-1.1 c 3.2,-1.1 8.1,-0.5 12.9,1.8 3.1,1.7 3.8,2.1 3.9,3.6 0.1,0.8 -0.2,1.7 -1,1.9 -1,0.7 -1.9,0.7 -4.8,-0.8 -6.6,-2.9 -10.8,-2.2 -11.8,1.9 -0.8,3.6 -1.5,2.1 -1.5,-2.7 z m -4.1,2.3 -2.3,-1.2 v -9.9 -9.9 h 2.7 2.6 v 11.1 c 0,6.2 -0.3,11 -0.5,11 -0.3,0 -1.4,-0.3 -2.5,-1.1 z"/>
<use xlink:href="#noose" transform="translate(-156,-288)" />
<use xlink:href="#noose" transform="translate(-52,-288)" />
<use xlink:href="#noose" transform="translate(52,-288)"/>
<use xlink:href="#noose" transform="translate(156,-288)"/>
<use xlink:href="#noose" transform="translate(-104,-192)"/>
<use xlink:href="#noose" transform="translate(0,-192)"/>
<use xlink:href="#noose" transform="translate(104,-192)"/>
<use xlink:href="#noose" transform="translate(-52,-96)"/>
<use xlink:href="#noose" transform="translate(52,-96)"/>
<use id="shine" xlink:href="#shield" style="fill:url(#rg);stroke:#000000;stroke-width:3;"/>
</svg>
