<?xml version="1.0" encoding="UTF-8" standalone="no"?>
<svg xmlns="http://www.w3.org/2000/svg" xmlns:xlink="http://www.w3.org/1999/xlink" width="600" height="660" version="1.1">
<defs>
	<path id="drop" d="m 3.043394,-24.639105 c -1.4905225,6.988169 -1.2706766,10.691237 0.8398687,15.9380054 2.6994819,6.637634 9.5226713,13.482538 8.7647273,20.6529976 -0.868321,8.099203 -7.8153425,13.401768 -15.0888888,12.725853 -8.0992032,-0.868321 -13.2223112,-6.94549 -11.8696062,-17.5336404 1.330489,-10.4012865 9.9980565,-23.0408606 17.353899,-31.7832156 z" />
	<radialGradient id="rg" gradientUnits="userSpaceOnUse" cx="220" cy="220" r="405">
		<stop style="stop-color:#fff;stop-opacity:.3" offset="0" />
		<stop style="stop-color:#fff;stop-opacity:.2" offset=".2" />
		<stop style="stop-color:#666;stop-opacity:.1" offset=".6" />
	<stop style="stop-color:#000;stop-opacity:.13" offset="1" />
	</radialGradient>
	<g id="apple" style="fill:#dd0000;stroke:#330000;stroke-width:0.25;">
      	<path d="m 1.0089644,-4.8747038 c 16.7751736,-6.3372332 8.7326223,19.2872298 0.2730495,13.5978695 -0.1638297,-0.1092198 -0.36241123,-0.139007 -0.64042536,0 -11.29283454,5.6595733 -15.49630854,-20.0418397 0.36737586,-13.5978695 z" />
      	<path style="fill:#550000;" d="m 1.5699572,-3.4101651 c -0.4120567,-1.8468082 -0.94326227,-3.8624106 -0.72978714,-5.7092187 -0.064539,-0.2134752 -0.15390067,-0.4120567 -0.62553178,-0.4418439 -0.19858152,2.030496 0.0297872,4.0758857 0.59574456,6.1063817" />
      	<path style="fill:none;" d="m 0.21463828,-9.5612277 c 0.0893617,0.1836879 0.1836879,0.3475176 0.62553178,0.4418439" />
      	<path style="fill:none;" d="m -0.54990058,-3.8222218 c 0.79432608,0.3673758 2.41276548,0.6255318 3.20709158,0.1687943" />
    </g>
    <clipPath id="clip-shield">
		<path id="shield" d="m2,2v257c0,286 298,398 298,398c0,0 298-112 298-398V2z" />
    </clipPath>
</defs>
<use xlink:href="#shield" style="fill:#ffffff" />
<path style="fill:#ffff00;" d="m 2,2 v 257 c 0,14.0886 0.7323943,27.74845 2.1074219,41 h 295.8925781 v -298 z m 298,298 v 357 c 0,0 269.35441,-101.24387 295.89258,-357 z" />
<g clip-path="url(#clip-shield)">
	<g id="tree" style="stroke:#330000;stroke-width:0.5;stroke-linejoin:round;stroke-linecap:round;">
		<path style="fill:#800000;" d="m 160.09886,181.74549 c 0,0 -0.20793,-4.16484 1.44333,-6.06073 2.53804,-2.91722 12.66576,-12.39055 20.45114,-15.91935 5.99345,-2.70929 23.24605,-2.62979 26.9522,-3.84071 l -0.89901,-2.66036 c -1.01522,-0.99075 -18.21889,0.66662 -21.49694,-0.59323 -4.20154,-1.62679 7.09429,-13.17337 8.42753,-14.46992 l -3.33309,-1.25984 c -8.25018,3.77343 -14.72678,17.98036 -16.35358,19.3503 -4.64798,3.90186 -12.48229,8.50092 -14.89802,8.4948 0.2324,-4.37889 -0.17736,-7.44901 0.59323,-9.97482 2.40962,-7.77315 13.74214,-23.02588 18.77542,-27.77784 l -3.15574,-2.69093 c -3.05788,1.89588 -5.82221,7.25942 -10.21334,11.00838 -0.79505,-0.27521 -2.81325,-4.79476 -4.10368,-6.23808 l -3.11904,1.53506 c 0,1.29654 2.68482,9.52837 2.55639,10.45185 -2.31176,3.30863 -4.39724,6.53776 -5.6632,8.86787 -1.45556,2.67871 -4.3789,8.81894 -6.25032,13.50362 -1.30878,3.27806 -2.85607,6.63562 -2.64813,10.94112 -0.20794,-4.32385 1.38828,-7.66306 2.64813,-10.94112 -2.01821,-1.86531 -5.30849,-4.62964 -7.19827,-7.24107 -0.70331,-0.98464 0,-10.87384 0.70943,-11.83402 1.19869,-1.71241 0.91125,-6.91694 1.5901,-12.76973 0.3486,-2.94169 11.0512,-9.96259 11.63832,-10.42128 l -1.65126,-2.41573 c -3.05177,0.11009 -11.85848,5.48585 -14.69009,9.36937 -1.14976,0.12843 -11.16739,-7.04537 -13.4975,-9.36937 l -2.39127,1.49837 c 1.79192,2.06101 3.74285,3.71839 5.60205,5.32072 1.67572,1.45555 9.08192,7.74257 8.30521,10.26838 -1.68795,5.63874 -2.55639,15.60134 -3.10069,16.53705 -2.99061,-1.07638 -13.33238,-7.51017 -18.43294,-8.57431 -2.94168,-4.38501 -5.90783,-13.31404 -9.28986,-17.0997 l -3.01507,0.99075 c 1.62679,5.76106 3.30863,10.9717 5.8161,16.5554 l 5.14336,6.40321 c 8.32357,3.02119 18.3779,8.85564 19.56436,17.66235 0.59934,4.51344 1.2048,7.54075 1.03356,10.54359 0.61158,2.33011 1.5106,3.36979 2.33623,6.10966 0.61769,2.03655 1.11918,6.27478 0.92348,10.07267 -0.2324,4.35443 0.6972,15.742 0.1957,20.35329 -1.7858,3.08235 -0.52595,10.40293 -0.80728,13.28346 -1.17423,12.62295 -3.86517,12.2132 -21.91281,14.91025 -2.39127,0.36083 -9.51614,3.01508 -18.469631,2.77656 13.693211,3.58996 17.252591,1.8592 20.714121,1.60845 6.96586,-0.50761 6.55611,2.33622 14.60446,0 -7.25942,7.10041 -1.90812,4.23823 -9.08804,5.15559 -5.14948,0.67886 -10.37846,8.69663 -20.92205,4.226 2.79491,2.50747 5.38188,4.59906 6.89859,4.88039 6.50107,1.19257 12.82477,-6.2809 18.46352,-4.19542 -5.18006,7.84653 -7.71199,12.79419 -1.98152,19.1179 -2.88664,-4.50121 1.88366,-11.80344 5.55924,-17.40548 1.94482,-2.97227 5.36965,-6.70289 8.19514,-9.49168 -0.25075,-1.93259 0.94794,-4.06699 1.95093,-5.76718 -0.97241,1.67573 -2.19556,3.82236 -1.95093,5.76718 0.18958,1.49225 0.74612,3.34532 2.34845,5.18617 1.81639,2.07936 5.42469,5.98734 1.0091,7.7548 -12.45171,4.99047 -1.57175,15.77869 0.41588,19.37477 -0.39753,-4.99047 -5.16783,-10.3907 0.10397,-13.35073 4.63575,-2.62367 10.57416,-3.54715 7.80372,-8.61101 -4.42782,-8.07894 -2.03655,-8.55597 -2.483,-13.36296 1.35158,2.57474 2.10994,5.00881 3.31475,6.59892 10.87995,14.17024 3.1802,17.10581 2.07324,28.72578 14.80629,-23.75978 2.08548,-21.77215 2.42796,-34.46238 8.26853,7.28389 20.76916,18.43294 13.16726,29.58811 8.94126,-4.15873 4.97212,-10.61698 5.10055,-15.15489 6.07297,2.10383 10.44574,1.52895 14.32314,0.37307 -18.23723,-3.19855 -13.71156,-3.7979 -23.62523,-12.78197 -1.50447,-1.3577 -3.16185,-2.99673 -4.15872,-4.50732 1.28431,1.85919 3.4126,3.91409 4.15872,4.50732 2.72764,-0.11008 5.388,0 9.17366,0.20794 5.24734,0.26909 4.84369,-2.45854 8.50093,-1.79192 10.61698,1.92647 14.52495,1.09472 17.15474,-2.22614 -5.34519,1.46778 -10.13995,1.1253 -15.29555,-1.21704 -3.38202,-1.53506 -7.04537,1.27208 -12.65965,-0.43422 -10.87384,-3.30252 -12.04195,-6.18305 -12.43336,-16.03556 -0.14066,-3.17408 0.44645,-12.92262 0.10397,-14.88578 -1.09473,-5.63263 -0.39141,-15.98052 -0.75836,-18.73873 -0.33637,-2.51358 -1.00299,-7.43678 -0.24463,-13.33238 z" />
		<g id="leaves" style="fill:#00b400;">
			<path d="m 98.800483,127.59033 c -1.840847,-0.48926 -3.68781,3.36367 -5.210638,0.11008 -3.033422,-1.9387 -1.950931,7.57745 -5.204521,3.49211 -0.654388,-3.4126 -3.149623,-1.41274 -4.99047,-0.27521 -1.30266,-0.4281 1.406627,-3.02119 -1.73688,-1.85308 -3.907978,2.17722 -1.736879,-4.35443 -5.320721,-2.47077 -3.143507,1.10084 -0.214052,-5.00882 -4.55625,-3.81624 -4.446166,1.04579 -4.011947,-4.82535 -8.574312,-3.95079 -4.122031,0.11008 2.171099,-6.0118 -2.929455,-3.99972 -2.929455,1.46167 -3.253591,-0.8562 -3.039539,-2.86218 -1.192575,-1.38216 -5.314606,-3.05788 -1.082491,-3.93855 4.232114,-1.1987 -0.214052,-2.6359 -1.73688,-4.00583 0.978524,-0.95407 6.403214,-1.91424 2.171099,-2.48912 -0.978523,-1.0458 1.30266,-4.305507 -1.302659,-2.317881 -4.666334,1.009101 0,-5.773289 -3.473758,-4.953776 -4.232115,-0.917365 -1.73688,-4.287156 0.544303,-4.972122 -1.950931,0.538188 -7.271653,0 -3.907978,-2.330109 2.605319,-1.424975 0.110084,-1.834732 -0.972408,-2.146636 -1.302659,-2.990613 8.244061,-3.302517 2.275067,-2.96615 -4.446166,-2.788792 2.605319,-4.544018 5.320722,-3.638884 1.950931,-0.281325 0.214052,-2.207794 2.819371,-1.926468 0.868439,-1.064144 -4.55625,-2.054899 -1.082492,-3.736737 1.950931,0.336368 4.011947,-1.204807 1.406628,-2.354572 -4.446166,0.75224 2.391267,-4.446166 -2.171099,-4.011946 -3.363675,0.269094 -3.467643,-1.522827 -0.538188,-2.391267 2.385151,-2.354572 5.962877,-3.229128 7.919924,-0.214052 1.950932,1.749111 6.941401,-1.192576 4.342198,-1.975394 -3.473758,1.443322 -1.736879,-1.510596 -2.391266,-2.69094 -3.577727,2.103825 -4.770302,-3.895747 -0.758356,-3.559379 2.819371,-0.421989 -0.214052,-3.687811 3.039539,-2.091594 1.840847,1.223154 4.666333,0.195704 5.204521,-0.587114 1.846964,4.16484 7.271653,-0.86844 8.574313,2.996728 -0.978524,2.886644 3.907978,2.947802 2.715402,-0.122316 2.709287,-1.223154 -1.846963,-3.852936 1.406628,-3.180201 3.039539,-0.311904 -1.626795,-4.488977 2.061015,-2.709287 1.632911,1.106955 3.797894,4.232114 3.473758,0.324136 1.846964,-2.397383 4.886502,3.155738 7.381737,0.354715 3.687813,0.764471 0.324136,12.00526 5.210633,7.522399" />
			<path d="m 50.944568,87.483098 c 1.198691,2.238373 -6.183045,-0.758356 -3.687811,2.788792 2.495235,5.877257 -4.446166,-1.021334 -5.424689,3.186317 3.149622,3.767316 1.846963,4.855923 0,6.293129 0.544304,0.611574 1.192575,0.850094 2.171099,1.265964 -1.088608,1.0091 -2.171099,1.96316 -2.171099,2.81937 0,1.71853 2.281183,2.64813 3.473758,3.88352 -2.819371,2.03043 -0.544303,3.61442 1.626796,4.51955 1.082491,3.14963 -1.846964,7.82819 1.846963,9.82805 1.516711,2.37903 -1.846963,7.57744 2.495235,6.56834 5.314605,-0.79505 -3.473759,5.65097 1.626795,6.15858 3.039539,0.2324 2.275067,8.54373 5.100554,3.85294 2.605319,-4.98436 2.495235,3.93244 3.901862,3.63888 1.198691,-1.38216 3.259707,-5.44304 2.715403,-0.96629 0.43422,1.99374 5.100554,0.22628 1.846963,2.87441 -1.302659,3.65723 4.446166,3.60219 4.55625,3.91409 -1.302659,5.04552 2.709287,7.04537 4.99047,3.24748 -0.758356,1.49225 -2.495235,7.92604 1.082492,6.43991 2.281183,-2.73987 1.736879,0.0978 2.171099,1.85919 2.281183,2.84384 5.320721,-6.9414 3.583842,-1.44332 -0.324136,1.96928 0.214052,5.06997 1.082492,5.06997 1.626795,0 3.797894,-4.27492 3.363674,-6.75792 0.220168,-2.09771 1.192576,-4.00583 2.061015,-2.16499 0.764472,-1.95093 1.846963,-3.51045 1.846963,-0.1957 0.978524,3.68781 3.253591,1.13753 3.473759,-1.31489 3.473758,0.12843 -0.110084,5.98122 3.577726,4.15872 4.232111,-2.0549 -0.868439,5.27791 2.501351,6.27478 2.0549,-1.87754 7.26554,-5.42468 3.90186,-9.04522 -0.86844,-3.15574 0.65439,-7.46736 3.36368,-5.22287 -1.51671,1.46778 -1.84085,4.38501 0.75835,3.43095 2.71541,0.33025 -2.1711,3.645 1.19869,4.49509 2.38516,4.03641 3.14351,-5.43081 5.53478,-0.74612 1.29654,-1.00911 -1.19869,-8.18902 2.49523,-6.72124 -0.86844,-2.62978 -2.7154,-5.12501 -0.11008,-6.97198 1.84696,-4.45228 -3.7979,-3.04565 -2.81937,-7.54686 1.84085,1.67572 4.99047,-0.55654 5.85891,2.69094 0.32413,-3.63889 1.95093,-2.66648 3.36367,-0.16513 2.27507,-1.33323 -4.23211,-8.66605 0.21405,-6.05461 4.12815,1.63903 -1.62679,-6.75793 2.06102,-7.13711 0.1162,-4.08533 -4.66633,-4.15872 -5.31461,-6.3237 0.64828,-0.58712 1.41275,-0.91125 2.06102,-1.61457" />
			<use xlink:href="#apple" transform="translate(102.15977,143.84065)" />
			<path d="m 237.69578,96.467167 c -0.21405,1.810268 9.33267,-0.966292 7.92604,2.348456 -0.55042,4.415587 5.85891,-2.941686 6.9414,0.947945 -2.7154,2.097712 -1.51671,3.449292 1.95093,3.559382 3.14962,0.50149 -4.226,1.2415 -0.22017,2.2873 4.77642,1.14976 -2.81325,4.53178 3.47376,5.02716 -2.28118,1.66961 -4.7703,3.88352 -1.73076,6.06685 2.27507,2.30564 -2.28118,4.7703 1.73076,7.0209 -0.86232,1.80416 -8.35414,1.73688 0,5.30238 -1.19257,1.88977 -5.63874,2.14663 -3.03954,5.33907 -0.75835,2.29953 -7.26553,-2.81938 -5.20452,1.79803 1.84696,4.23212 -3.69392,0.11009 -4.3422,0.89902 2.82549,2.33623 -2.38515,2.18333 -1.73688,3.40649 5.42469,0.79505 -1.29654,4.64187 -1.95704,4.42781 2.82548,2.30565 0.33636,5.88949 -3.35756,3.73674 -2.39127,0.10397 5.53477,3.29029 0.86844,4.18931 -2.50135,-0.51373 -4.55625,-0.32414 -1.84085,1.70018 -1.74299,2.48912 -6.08519,-1.0458 -6.08519,-0.45257 4.3422,1.99986 -0.0978,4.88039 -2.81326,2.40962 -1.74299,-1.11919 -3.2597,-4.35443 -4.23823,-1.90201 -2.37903,-1.49836 -2.81937,-1.11918 -1.84696,1.14365 -1.73076,3.73062 -5.19841,-3.18632 -5.96288,1.38828 2.81937,3.8774 -1.08861,1.79192 -0.86844,6.17081 -1.40663,-0.22628 -4.55625,-3.33921 -5.96899,-2.56862 -3.14962,-0.50149 -0.43422,-2.66648 -3.47376,-4.226 -1.40663,-2.14663 -6.3971,0.66662 -1.73076,1.32712 1.29654,1.48614 -5.53478,1.64515 -1.30878,2.88053 1.52283,0.80117 -0.32413,2.33011 -2.06101,2.58697 -1.62068,-1.54117 -3.03954,-1.19257 -4.88039,0 -0.32414,-3.08846 -2.16498,-3.77343 -4.66633,-3.46764 0.32413,-1.9387 0.75835,-4.226 -2.50135,-4.51344 -3.57161,-2.22614 3.2597,-3.6083 0.22628,-5.82833 -1.84696,2.14664 -5.31461,0.62993 -5.10667,3.40649 -1.40663,-1.49225 -3.14351,-1.92647 -3.57773,0.47091 -2.28118,1.7063 -0.76447,-5.18617 -1.0886,-4.43393 -2.06102,1.2415 -4.11592,2.57474 -3.90187,-0.64216 0.11009,-2.11606 -1.19869,-2.14664 -2.7154,-2.97226 -1.08249,-2.6726 8.79448,-5.05163 8.46423,-6.68454 -0.97241,-0.18959 -5.63874,-1.66349 -6.5133,-1.93259" />
			<use xlink:href="#apple" transform="translate(173.38493,146.21028)" />
			<use xlink:href="#apple" transform="translate(204.88493,140.71028)" />
			<use xlink:href="#apple" transform="translate(228.88493,126.71028)" />
			<path d="m 163.2546,131.88972 c 2.17722,-0.44645 -0.32413,4.16484 3.47376,2.55639 5.42469,-0.93571 -2.81937,4.32385 1.51671,5.62651 2.17722,-2.06713 4.3422,-2.39738 4.66634,0.84398 0.75835,2.89887 1.51671,-3.66947 3.04565,-0.11009 1.62068,3.32087 5.42469,-3.82847 6.07296,0.91737 2.16499,-0.33637 3.47376,-4.21377 6.3971,-1.59622 3.36979,2.59309 6.40933,-2.52581 9.76689,0.61158 2.7154,1.28431 1.95704,-6.52553 4.55625,-2.10994 2.39126,3.98748 3.69392,-3.11293 7.70587,-1.54729 3.47987,-0.2691 -3.79789,-5.26568 1.19258,-4.46452 2.39126,0 4.45228,0 2.17721,-1.99985 -1.74299,-1.86531 -0.98464,-1.84697 1.40663,-1.33324 0.97852,-0.66662 1.19257,-4.15261 2.39127,-1.2782 2.38515,2.49524 4.55013,-3.064 4.66633,-3.11904 3.03342,2.01209 7.15545,-0.49538 4.226,-3.22301 -0.20794,-2.18945 4.4584,4.15261 5.10667,0.1162 -0.76447,-1.88978 -0.76447,-3.70616 1.95093,-1.75523 2.92334,-1.68184 -1.743,-4.77642 -1.08249,-4.86815 2.81325,3.25359 5.96287,-0.74613 2.70928,-2.62979 -1.51671,-1.28431 -5.64485,-2.0549 -2.70928,-3.22301 -1.95705,-1.71853 -1.63291,-2.15275 1.19257,-1.66349 4.12203,-1.67572 -4.23823,-4.60517 1.51671,-4.7703 3.57773,2.46466 0.76448,-5.369648 4.99047,-2.17721 4.66634,2.55027 0.76448,-3.357563 0.32414,-5.033285 -0.86844,-2.623666 -5.10055,0.95406 -7.26554,-1.38828 -2.7154,-0.758356 0.21405,-5.296259 1.40663,-1.596217 1.95705,0.91125 1.63291,-4.831459 3.58384,-1.22927 1.95093,0.525957 5.31461,-2.005973 2.16499,-3.455411 -2.70929,-1.278196 3.58384,-2.972265 -0.86844,-3.192433 -2.27507,-0.538188 -4.55625,-0.654387 -3.36368,-2.911107 -2.48912,0.458683 -5.10055,1.27208 -5.85891,-1.443322 -3.24747,-2.550277 -3.58384,2.917223 -6.9414,1.125302 2.1711,-1.602333 0.22017,-4.617408 3.35756,-4.562366 0.22628,-0.978524 -3.46764,-2.152752 0,-2.898876 3.69393,-2.244488 -5.96288,-0.379178 -4.99047,-0.544304 1.41886,-1.853079 2.82549,-3.742852 -1.08249,-3.143507 -2.48912,0.409757 -2.70929,-0.642156 -3.7979,-1.834731 -3.35755,-0.501493 -4.45228,3.632768 -6.50718,3.614421 -0.32413,-0.727777 -0.32413,-1.510596 -0.75835,-2.207794" />
			<use xlink:href="#apple" transform="translate(213.38493,99.710275)" />
			<path d="m 179.09445,49.681512 c 1.41886,0.544304 1.09473,-3.638884 3.25971,-2.146636 3.47376,0.984639 -0.21405,-3.60219 2.82549,-4.929312 1.08249,1.34547 2.16498,2.770445 3.57161,-0.250747 1.74299,-3.070117 -0.0979,3.027307 2.28729,-0.140663 2.16499,-2.947802 2.37904,3.449296 4.44617,-0.421988 1.51671,-0.642156 0.86844,3.840705 3.58384,1.596217 3.24748,-2.452425 3.79178,1.963162 6.72735,0 3.68781,-2.483004 -0.22017,5.228985 3.03954,1.938699 2.0549,-2.45854 2.38515,-0.746124 2.92334,0.91125 1.30878,0.684967 4.23211,0.293557 1.52283,2.586972 -3.68781,2.77656 2.27506,1.400512 1.95093,2.611434 -1.08249,1.174229 -4.12203,3.48599 -0.97241,2.391267 1.19258,0.103968 -0.43422,4.134262 1.62068,1.064145 2.61143,-1.694069 1.95093,3.155738 2.06713,3.076233 3.57773,-1.853079 4.3422,1.302659 1.6268,3.596074 0.9724,-0.764472 5.10055,-3.16797 3.68781,0.110084 -1.95705,1.993741 -0.53819,1.730763 0.97852,1.351585 1.6268,1.535059 -5.31461,5.589816 -1.40663,3.302517 3.6817,-1.583985 0.86233,3.706158 -1.52894,3.840705 -1.08249,0.51984 -2.92334,1.43109 -1.40663,1.975394 -1.62679,1.106955 -2.48912,1.993742 -0.11008,1.559522 1.95093,0.703314 -0.10397,2.580856 -1.73076,3.015076 0,1.816384 1.84084,1.119186 2.81937,0.782818 -0.65439,1.767458 -1.30266,4.134262 1.62068,2.440193 3.69392,-1.687953 -0.97241,3.021192 -1.62068,4.35443 -1.41275,2.703171 -3.36979,-0.850092 -5.75495,1.180344 -1.95704,0.311904 -1.84084,4.709144 0.22017,1.694069 2.16499,-1.522828 -0.43422,4.268808 2.28119,1.015218 1.95093,-0.70943 2.70928,2.446309 0.11008,3.308632 -1.85308,1.07026 1.73076,2.434078 -1.30878,2.568625 -1.84084,0.366946 -3.58384,0.446451 -3.46764,2.464656 -1.52283,-0.201821 -3.14962,-1.565638 -4.3422,0.899018 -1.95704,1.278196 -2.92945,0.464799 -2.92945,-1.131418 -0.97852,-0.311904 -2.93557,0 -1.6268,1.18646 -0.87455,1.583985 -0.21405,3.149625 0.64828,3.345325 -3.14963,0.96018 -0.97241,2.04267 -0.64828,3.16186 -1.84696,1.09472 -4.99047,-2.45243 -3.90798,0.81951 0.22017,2.99673 -4.34219,-0.29967 -5.10055,2.72763 -2.81937,0.6972 -2.0549,-3.8774 -3.79789,-3.14962 -0.32414,0.56877 -0.64827,1.18646 -1.08249,1.7063" />
			<use xlink:href="#apple" transform="translate(180.38493,124.71027)" />
			<use xlink:href="#apple" transform="translate(183.88493,62.710277)" />
			<path d="m 117.24565,131.24145 c 2.1711,-0.43422 -0.43422,4.16484 3.47376,2.55639 5.42469,-0.94795 -2.81937,4.32385 1.41274,5.62039 2.27507,-2.04878 4.44617,-2.4035 4.7703,0.8501 0.76448,2.90499 1.40663,-3.65724 2.93558,-0.11009 1.62068,3.3331 5.42469,-3.83459 6.18916,0.91737 2.0549,-0.34249 3.46764,-8.82506 6.28089,-6.21363 3.37591,2.61144 4.89262,-2.5197 8.25018,0.62993 2.60532,1.26596 5.10667,-4.91708 7.81596,-0.5015 2.39126,3.99972 2.06713,-0.12231 6.07296,1.45556 3.47376,-0.2691 -3.90798,-5.27791 1.19869,-4.47675 2.27507,0 4.45228,0 2.1711,-1.98762 -1.84696,-1.87754 -0.97852,-1.87143 1.40663,-1.34547 0.87455,-0.66662 1.19869,-4.1465 2.28118,-1.2782 2.50135,2.49524 4.55625,-3.064 4.66633,-3.10681 3.03343,1.99986 7.26554,-0.50761 4.3422,-3.23524 -0.32413,-2.18334 4.3422,4.15872 5.10056,0.12231 -0.75836,-1.89589 -0.86844,-3.70004 1.84084,-1.76134 2.92946,-1.68184 -1.73688,-4.77642 -0.97852,-4.86816 2.70929,3.25359 5.85891,-0.74 2.61143,-2.62978 -1.41886,-1.27819 -5.54089,-2.06101 -2.61143,-3.22301 -2.0549,-1.71853 -1.62068,-2.14664 1.19257,-1.67572 4.01807,-1.66349 -4.23211,-4.59906 1.51672,-4.74584 3.47375,2.45242 0.6605,-5.381879 4.89261,-2.19556 4.66634,2.55639 0.86844,-3.351445 0.32414,-5.021051 -12.59237,-0.782819 -3.79789,-6.207508 -2.1711,-4.219883 1.94482,0.525957 5.20452,-2.005973 2.1711,-3.455411 -2.7154,-1.278196 3.46764,-2.972265 -0.98464,-3.198548 -2.16498,-0.532073 -4.44005,-0.642156 -3.24747,-2.904992 -2.60532,0.464799 -5.21064,1.265965 -5.97511,-1.443322 -3.14351,-2.544161 -3.58385,2.917223 -6.94141,1.137533 2.27507,-1.614563 0.22017,-4.623523 3.47376,-4.580713 0.11009,-0.966292 -3.58384,-2.146636 -0.1162,-2.898876 3.81013,-2.244488 -5.84667,-0.379178 -4.87427,-0.538188 1.30266,-1.846963 2.70929,-3.736736 -1.08249,-3.149622 -2.60532,0.409757 -2.7154,-0.642156 -3.90798,-1.8225 -3.2597,-0.507609 -4.45839,3.626653 -6.40933,3.614421 -0.32413,-0.727777 -0.4281,-1.522827 -0.86232,-2.213909" />
			<use xlink:href="#apple" transform="translate(73.465855,131.99312)" />
			<use xlink:href="#apple" transform="translate(138.38493,133.21028)" />
			<path d="m 57.347781,94.82814 0.758356,0.513725 -3.143507,1.54729 2.929455,3.455415 c -3.149623,-0.489265 -5.644858,0.12843 -7.051485,2.07324 l 4.446166,1.33324 -3.577727,3.46153 3.467643,-0.61158 -1.516711,3.20467 4.446166,1.34547 -1.840848,2.26895 4.880386,0.78282 0.654388,4.95377 3.797894,1.68795 0.324136,3.99972 5.42469,-0.86233 -1.736879,4.03641 4.666334,0.51984 2.495235,2.94169 3.363674,-3.71839 3.149623,3.71839 2.495235,-3.65723 0.868439,2.36069 3.687811,-0.76447 -1.736879,2.28118 c 1.957047,1.62068 4.018062,1.62068 6.293129,0.4281 0.220168,2.01821 0.544304,3.87129 2.715403,4.2627 l 3.797892,-3.18632 c -0.22017,1.68184 -2.061013,3.46153 0.54431,4.97212 l 3.79789,-2.55639 v 2.43408 l 2.81937,-0.29356 1.95093,-3.77343 -0.53819,2.74598 1.40663,1.38828 3.03954,-1.81638 0.43422,-5.16783 1.6268,0.98464 1.0886,-2.62978 1.40663,2.47077 2.60532,0.11008 0.43422,-2.97226 2.7154,0.75835 -0.11008,2.16498 4.44616,-1.48001 0.76448,4.55013 3.68781,-3.21689 2.38515,-2.57474 -2.81937,-2.12829 -0.44034,-3.60831 3.47376,-1.04579 -1.19258,3.04565 4.23212,-0.64827 -1.29655,2.36069 3.90798,1.24761 1.95093,-3.35144 2.71541,0.77059 -1.52283,-4.91708 2.60532,-0.55654 -3.36368,-2.89887 1.62068,-1.8592 -0.53819,-2.54416 -3.03342,0.11008 -1.63291,-2.33622 c 2.0549,0.53819 3.90798,0.57488 5.20452,-1.11919 l 2.06713,1.743 0.64828,-2.7521 3.80401,1.67572 c -1.09473,-1.5901 -0.97853,-3.47987 -4.56237,-4.45228 l 4.8865,-0.29356 -2.7154,-4.3055 1.73688,-1.18646 -1.73688,-1.241502 c -1.73688,-1.492248 -4.12815,-1.064144 -6.40321,-1.076376 l 2.61143,-2.330109 c 0,0 0,0 0,0" />
			<use xlink:href="#apple" transform="translate(96.884932,111.71027)" />
			<use xlink:href="#apple" transform="translate(73.384931,86.210271)" />
			<use xlink:href="#apple" transform="translate(148.88493,106.71028)" />
			<path d="m 90.122203,54.029826 c -0.86844,-8.225713 -4.666334,-7.4062 -5.754942,-7.455126 -1.192575,0 -2.275067,0 -1.516711,1.816384 0.324136,4.427819 -4.12203,-2.25672 -6.837433,0.110084 1.082492,2.158867 3.039539,4.219883 -1.516711,4.036409 -4.128147,0.195705 3.901862,1.614564 -0.330252,2.397383 -4.770302,0.813398 3.693926,4.837576 -1.840848,4.849807 -1.302659,1.443322 4.770303,3.100696 1.30266,4.917081 -2.605319,1.883657 -1.522827,3.80401 -0.43422,6.017919 -1.846963,1.920353 -3.693926,3.822358 0.43422,4.452282 5.204522,1.235386 -6.189161,2.495235 -0.86844,4.476745 3.253591,1.174228 -0.544303,6.439908 4.232114,4.281041 5.314606,-2.96615 -0.220167,5.565352 4.011947,3.302516 1.957047,-0.776703 3.797894,-1.528943 2.061015,0.715546 -0.324136,1.412743 5.320722,1.66349 1.192575,2.434077 -3.25359,1.712416 3.259707,4.085336 3.259707,4.177072 -2.825487,2.201678 -0.220168,5.871144 3.363674,3.852936 2.495235,0.134547 -5.534773,3.082348 -0.758355,4.152608 2.385151,-0.43422 4.55625,-0.1957 1.840847,1.743 1.736879,2.55639 6.079077,-0.82563 6.079077,-0.25075 -4.232114,1.87143 0.214052,4.88039 2.929453,2.48912 1.73688,-1.0458 3.14962,-4.23823 4.23212,-1.74911 2.28118,-1.41886 2.81937,-1.03357 1.84696,1.19257 1.62679,3.79178 5.10055,-2.99672 5.85891,1.58399 -4.23212,2.61143 6.40321,1.61456 1.62679,4.73972 -3.25359,3.22301 4.3422,0.72166 6.29313,0.64216 3.14351,-0.39141 -0.5443,-4.21377 2.49524,-5.67544 1.30266,-2.09159 6.40321,0.86844 1.73688,1.3577 -1.30266,1.46779 5.74882,1.90812 1.08249,3.05789 -0.86844,1.51059 1.84085,4.48898 3.90798,2.20168 1.95704,-2.07937 3.2597,3.22301 4.01806,-0.36695 0.97241,-1.76746 1.40663,-3.54715 3.90798,-2.34234 0,-1.77969 -1.09473,-4.42782 2.27506,-4.40947 3.7979,-2.21391 -2.81937,-3.60219 -0.22016,-6.00569 1.19257,1.33935 3.90798,1.95705 4.8865,1.82862 -0.33025,3.09458 1.29654,0.64827 2.92945,0.53818 0.64828,1.49837 2.16499,3.72451 2.27507,0.67885 0.75836,-1.77968 -1.95093,-4.874265 1.30878,-2.45854 3.90797,2.91111 1.08249,-4.654098 5.1984,-4.183183 0.98464,-2.635898 -3.90186,-4.091452 -3.57161,-5.718247 0.86233,-0.152895 4.12203,-6.592802 4.99047,-6.843549" />
			<path d="m 181.0515,64.426638 c -1.40663,-1.235386 4.23211,-2.005973 1.08861,-3.767316 -3.14351,-3.186317 4.88038,-0.721661 5.09443,-4.079219 -2.37903,-0.788935 -4.88038,-1.443323 -1.62067,-3.589958 3.13739,-2.562509 -3.90798,0.813397 -0.97853,-2.299531 2.70929,-2.984496 -5.86502,-1.516711 -1.84696,-4.525671 0.11008,-1.712416 -5.53478,0.110084 -4.01806,-3.155738 1.63291,-3.797895 -4.55625,-3.223012 -3.46765,-6.666192 1.41275,-4.232114 -6.72735,1.669606 -4.12203,-2.45854 2.16499,-2.684824 -0.32413,-2.57474 -2.82548,-2.684824 -1.51671,-1.11307 -2.59921,-4.097567 -4.12203,-0.782819 -1.73688,4.35443 -3.14351,-1.871426 -4.55014,-1.235385 -0.98464,1.31489 -2.39126,4.947659 -2.61143,1.596216 -0.75836,-1.217039 -5.20452,1.541175 -2.28119,-1.369933 0.87456,-3.002844 -5.20452,-1.058028 -5.20452,-1.235386 0.53819,-4.011946 -4.01806,-3.926325 -5.53477,-0.605461 0.43422,-1.192576 1.63291,-3.883515 -0.43422,-4.262693 -2.06713,2.268951 -3.79789,2.25672 -4.12203,0 -2.70929,0.103968 -3.90798,5.871141 -5.32072,0 -2.0549,0.868439 -3.47376,2.34234 -2.39127,4.806996 -0.0978,1.223155 -0.32413,3.265823 -1.84085,1.883658 -0.53818,1.932584 -1.29654,2.96615 -2.0549,0.501493 -1.95704,-1.712416 -3.36979,0.782819 -3.04565,2.476888 -2.38515,0.47703 -2.38515,-1.455554 -2.49524,-2.544161 -2.06101,1.064144 -4.7703,2.366804 -4.12203,-0.941829 0.32414,-4.12203 -3.47375,1.712416 -4.88038,2.758213 -2.82549,2.116057 2.92945,3.057886 1.40663,5.913952 0.65438,2.048783 -5.20453,3.070117 -2.27507,0.299672 0.86844,-2.513582 -5.42469,1.522828 -2.60532,-2.018204 0,-2.061015 -4.66633,-2.036552 -4.3422,0.782819 -0.43422,2.14052 -4.12203,-1.033566 -2.7154,1.987625 0.43422,1.883658 1.30877,3.614422 -1.51671,3.999715 1.08861,1.492249 3.79789,2.739866 1.19257,4.611292 -0.64827,2.21391 0.86844,2.923339 2.92946,2.507467 0.97852,0.91125 1.63291,2.966149 -0.64827,1.920352 -1.6268,1.357701 -4.01195,1.143649 -4.776421,0.293557 0.434221,3.400369 -2.171099,1.437207 -3.797895,1.467785 -0.43422,2.158868 5.858906,4.317735 0.978524,4.07922 -4.122031,0.507609 2.709287,4.219883 -0.978524,5.773289 0.544304,2.886644 6.293126,1.021334 6.189166,2.856065 -0.54431,0.538188 -1.1987,0.941829 -1.6268,1.547291" />
			<use xlink:href="#apple" transform="translate(114.13493,75.460279)" />
			<path d="m 184.63534,84.492486 c -1.30877,-1.241502 3.79178,-2.005974 0.97853,-3.755084 -2.82549,-3.192433 4.44616,-0.740009 4.55625,-4.091452 -2.17722,-0.79505 -4.3422,-1.443322 -1.41886,-3.589958 2.93557,-2.562508 -3.57161,0.813398 -0.86233,-2.29953 2.49524,-2.984497 -5.32072,-1.510596 -1.62679,-4.525671 0,-1.706301 -5.10056,0.110084 -3.69393,-3.161854 1.41886,-3.797895 -4.12203,-3.223012 -3.13739,-6.660076 1.18034,-4.219883 -6.18916,1.669606 -3.80401,-2.464656 1.95093,-2.678708 -0.32414,-2.568624 -2.49524,-2.678708 -1.51671,-1.119186 -2.38515,-4.103683 -3.90797,-0.782819 -1.51671,4.35443 -2.70929,-1.877542 -4.01807,-1.223154 -0.9724,1.302659 -2.27506,4.935428 -2.38515,1.583985 -0.75835,-1.217039 -4.7703,1.54729 -2.0549,-1.369933 0.75836,-3.002844 -4.77641,-1.064145 -4.77641,-1.235386 0.5443,-4.018062 -3.58385,-3.926326 -4.99047,-0.605462 0.43422,-1.198691 1.30266,-5.907835 -1.84697,-3.651115 -1.51671,2.403498 -1.85308,1.002986 -2.17721,-0.59323 -2.5992,-1.272081 -4.11592,6.702886 -3.24748,2.268951 0.10397,-4.134262 -4.8865,0.103968 -3.90797,2.513582 -0.11009,1.22927 -0.32414,3.278054 -1.6268,1.889774 -0.55042,1.944815 -1.30878,2.960033 -1.84085,0.501493 -1.85308,-1.718532 -3.14962,0.776703 -2.82548,2.470772 -2.16499,0.47703 -2.28119,-1.455554 -2.28119,-2.538045 -1.84084,1.064144 -4.3422,2.366803 -3.69392,-0.941829 0.22628,-4.128146 -3.24748,1.712416 -4.44005,2.764329 -2.60532,2.103825 2.5992,3.05177 1.29654,5.90172 0.5443,2.054899 -4.7703,3.070117 -2.16498,0.305788 0.86844,-2.519698 -4.88651,1.516712 -2.28119,-2.018205 -0.11008,-2.061015 -4.23211,-2.042667 -4.01194,0.782819 -0.43422,2.134405 -3.7979,-1.033565 -2.50135,1.98151 0.43422,1.889774 1.19869,3.614421 -1.29655,4.018062 0.97241,1.486133 3.36368,2.721519 0.97241,4.599061 -0.5443,2.226141 0.86844,2.917223 2.7154,2.507466 0.86844,0.91125 1.51671,2.960034 -0.5443,1.920353 -1.51671,1.357701 -3.68781,1.137533 -4.3422,0.293557 0.33025,3.394253 -2.06101,1.443322 -3.46764,1.467785 -0.43422,2.158868 5.3146,4.317735 0.86844,4.07922 -3.7979,0.507609 2.38515,4.219883 -0.86844,5.773289 0.53819,2.886644 5.63874,1.015218 5.63874,2.849949 -0.5443,0.544304 -1.19257,0.941829 -1.51671,1.565638" />
		</g>
	</g>
	<g id="castle" style="stroke:#4d4d4d;stroke-width:0.5;stroke-linejoin:round;">
		<g id="gate">
			<path style="fill:#b3b3b3;" d="m 428.95075,139.54692 c -0.79943,0.088 -1.40312,0.76585 -1.39837,1.57011 v 7.77693 h -10.18117 c -0.56623,-0.008 -1.09292,0.28949 -1.37838,0.77858 -0.28545,0.48908 -0.28545,1.09398 0,1.58306 0.28546,0.48909 0.81215,0.78659 1.37838,0.77858 h 10.18117 v 5.20098 h -10.18117 c -0.56623,-0.008 -1.09292,0.28949 -1.37838,0.77858 -0.28545,0.48908 -0.28545,1.09398 0,1.58306 0.28546,0.48909 0.81215,0.78658 1.37838,0.77858 h 10.18117 v 5.20098 h -10.18117 c -0.56623,-0.008 -1.09292,0.28949 -1.37838,0.77857 -0.28545,0.48909 -0.28545,1.09399 0,1.58307 0.28546,0.48908 0.81215,0.78658 1.37838,0.77857 h 10.18117 v 5.22552 h -10.18117 c -0.56623,-0.008 -1.09292,0.28949 -1.37838,0.77857 -0.28545,0.48909 -0.28545,1.09398 0,1.58307 0.28546,0.48908 0.81215,0.78658 1.37838,0.77857 h 10.18117 v 5.20098 h -10.18117 c -0.56623,-0.008 -1.09292,0.28949 -1.37838,0.77858 -0.28545,0.48908 -0.28545,1.09398 0,1.58306 0.28546,0.48909 0.81215,0.78659 1.37838,0.77858 h 10.18117 v 5.20098 h -10.18117 c -0.56623,-0.008 -1.09292,0.28949 -1.37838,0.77858 -0.28545,0.48908 -0.28545,1.09398 0,1.58306 0.28546,0.48909 0.81215,0.78658 1.37838,0.77858 h 10.18117 v 3.70447 c -0.008,0.56623 0.28949,1.09292 0.77858,1.37838 0.48908,0.28545 1.09398,0.28545 1.58306,0 0.48908,-0.28546 0.78658,-0.81215 0.77857,-1.37838 v -3.70447 h 5.22552 v 3.70447 c -0.008,0.56623 0.28949,1.09292 0.77857,1.37838 0.48909,0.28545 1.09398,0.28545 1.58307,0 0.48908,-0.28546 0.78658,-0.81215 0.77857,-1.37838 v -3.70447 h 5.20098 v 3.70447 c -0.008,0.56623 0.28949,1.09292 0.77858,1.37838 0.48908,0.28545 1.09398,0.28545 1.58306,0 0.48909,-0.28546 0.78659,-0.81215 0.77858,-1.37838 v -3.70447 h 5.20098 v 3.70447 c -0.008,0.56623 0.28949,1.09292 0.77858,1.37838 0.48908,0.28545 1.09398,0.28545 1.58306,0 0.48909,-0.28546 0.78658,-0.81215 0.77858,-1.37838 v -3.70447 h 5.20098 v 3.70447 c -0.008,0.56623 0.28949,1.09292 0.77857,1.37838 0.48909,0.28545 1.09398,0.28545 1.58307,0 0.48908,-0.28546 0.78658,-0.81215 0.77857,-1.37838 v -3.70447 h 5.22552 v 3.70447 c -0.008,0.56623 0.28949,1.09292 0.77857,1.37838 0.48908,0.28545 1.09398,0.28545 1.58306,0 0.48909,-0.28546 0.78659,-0.81215 0.77858,-1.37838 v -3.70447 h 10.18117 c 0.56623,0.008 1.09292,-0.28949 1.37838,-0.77858 0.28545,-0.48908 0.28545,-1.09398 0,-1.58306 -0.28546,-0.48909 -0.81215,-0.78659 -1.37838,-0.77858 h -10.18117 v -5.20098 h 10.18117 c 0.56623,0.008 1.09292,-0.28949 1.37838,-0.77858 0.28545,-0.48908 0.28545,-1.09398 0,-1.58306 -0.28546,-0.48909 -0.81215,-0.78658 -1.37838,-0.77858 h -10.18117 v -5.20098 h 10.18117 c 0.56623,0.008 1.09292,-0.28949 1.37838,-0.77857 0.28545,-0.48909 0.28545,-1.09398 0,-1.58307 -0.28546,-0.48908 -0.81215,-0.78658 -1.37838,-0.77857 h -10.18117 v -5.22552 h 10.18117 c 0.56623,0.008 1.09292,-0.28949 1.37838,-0.77857 0.28545,-0.48908 0.28545,-1.09398 0,-1.58307 -0.28546,-0.48908 -0.81215,-0.78658 -1.37838,-0.77857 h -10.18117 v -5.20098 h 10.18117 c 0.56623,0.008 1.09292,-0.28949 1.37838,-0.77858 0.28545,-0.48908 0.28545,-1.09398 0,-1.58306 -0.28546,-0.48909 -0.81215,-0.78659 -1.37838,-0.77858 h -10.18117 v -5.20098 h 10.18117 c 0.56623,0.008 1.09292,-0.28949 1.37838,-0.77858 0.28545,-0.48908 0.28545,-1.09398 0,-1.58306 -0.28546,-0.48909 -0.81215,-0.78658 -1.37838,-0.77858 h -10.18117 v -7.77693 c 0.008,-0.56624 -0.28949,-1.09293 -0.77858,-1.37839 -0.48908,-0.28545 -1.09398,-0.28545 -1.58306,0 -0.48908,0.28546 -0.78658,0.81215 -0.77857,1.37839 v 7.77693 h -5.22552 v -7.77693 c 0.008,-0.56624 -0.28949,-1.09293 -0.77857,-1.37839 -0.48909,-0.28545 -1.09398,-0.28545 -1.58307,0 -0.48908,0.28546 -0.78658,0.81215 -0.77857,1.37839 v 7.77693 h -5.20098 v -7.77693 c 0.008,-0.56624 -0.28949,-1.09293 -0.77858,-1.37839 -0.48908,-0.28545 -1.09398,-0.28545 -1.58306,0 -0.48909,0.28546 -0.78659,0.81215 -0.77858,1.37839 v 7.77693 h -5.20098 v -7.77693 c 0.008,-0.56624 -0.28949,-1.09293 -0.77858,-1.37839 -0.48908,-0.28545 -1.09398,-0.28545 -1.58306,0 -0.48909,0.28546 -0.78658,0.81215 -0.77858,1.37839 v 7.77693 h -5.20098 v -7.77693 c 0.008,-0.56624 -0.28949,-1.09293 -0.77857,-1.37839 -0.48909,-0.28545 -1.09398,-0.28545 -1.58307,0 -0.48908,0.28546 -0.78658,0.81215 -0.77857,1.37839 v 7.77693 h -5.22552 v -7.77693 c 0.002,-0.44794 -0.18616,-0.87569 -0.51888,-1.17561 -0.33272,-0.29991 -0.77769,-0.44346 -1.22296,-0.3945 z m 1.74184,12.48726 h 5.22552 v 5.20098 h -5.22552 z m 8.36573,0 h 5.20098 v 5.20098 h -5.20098 z m 8.3412,0 h 5.20098 v 5.20098 h -5.20098 z m 8.3412,0 h 5.20098 v 5.20098 h -5.20098 z m 8.34119,0 h 5.22552 v 5.20098 h -5.22552 z m -33.38932,8.3412 h 5.22552 v 5.20098 h -5.22552 z m 8.36573,0 h 5.20098 v 5.20098 h -5.20098 z m 8.3412,0 h 5.20098 v 5.20098 h -5.20098 z m 8.3412,0 h 5.20098 v 5.20098 h -5.20098 z m 8.34119,0 h 5.22552 v 5.20098 h -5.22552 z m -33.38932,8.34119 h 5.22552 v 5.22552 h -5.22552 z m 8.36573,0 h 5.20098 v 5.22552 h -5.20098 z m 8.3412,0 h 5.20098 v 5.22552 h -5.20098 z m 8.3412,0 h 5.20098 v 5.22552 h -5.20098 z m 8.34119,0 h 5.22552 v 5.22552 h -5.22552 z m -33.38932,8.36573 h 5.22552 v 5.20098 h -5.22552 z m 8.36573,0 h 5.20098 v 5.20098 h -5.20098 z m 8.3412,0 h 5.20098 v 5.20098 h -5.20098 z m 8.3412,0 h 5.20098 v 5.20098 h -5.20098 z m 8.34119,0 h 5.22552 v 5.20098 h -5.22552 z m -33.38932,8.3412 h 5.22552 v 5.20098 h -5.22552 z m 8.36573,0 h 5.20098 v 5.20098 h -5.20098 z m 8.3412,0 h 5.20098 v 5.20098 h -5.20098 z m 8.3412,0 h 5.20098 v 5.20098 h -5.20098 z m 8.34119,0 h 5.22552 v 5.20098 h -5.22552 z" />
			<path style="fill:#999999;" d="m 360.75228,109.10768 v 128.32256 h 59.18876 v -59.83275 c 2.55338,-19.30107 14.77886,-34.90188 30.05897,-40.14354 15.28011,5.24166 27.50559,20.84247 30.05897,40.14354 v 59.83275 h 59.18876 v -128.32256 z" />
			<path style="fill:#808080;" d="m 356.94047,101.80147 c 0,4.53416 1.78385,5.27365 3.81641,7.30621 h 178.48626 c 2.03256,-2.03256 3.81641,-2.77205 3.81641,-7.30621 z" />
			<path style="fill:#808080;" d="m 354.61904,86.413189 0.12267,8.555862 0.12266,8.557389 c 63.42376,0 126.84752,0 190.27128,0 l 0.12266,-8.557389 0.12267,-8.555862 h -11.22228 v 8.555862 h -11.22075 v -8.555862 h -11.22075 v 8.555862 h -11.22075 v -8.555862 h -11.22229 v 8.555862 h -11.22074 v -8.555862 h -11.22075 v 8.555862 h -11.22229 v -8.555862 c -3.74025,0 -7.48049,0 -11.22074,0 v 8.555862 h -11.22229 v -8.555862 h -11.22075 v 8.555862 h -11.22074 v -8.555862 h -11.22229 v 8.555862 h -11.22075 v -8.555862 h -11.22075 v 8.555862 h -11.22075 v -8.555862 z" />
			<path style="fill:#ffffff;" d="m 480.05893,181.28896 h 59.18884 m -59.93583,-8.02011 h 59.93583 m -62.29914,-8.02012 h 62.29914 m -66.14397,-8.02011 h 66.14397 m -71.99907,-8.02012 h 71.99907 m -59.18884,80.20114 h 59.18884 m 0,-40.10056 h -59.18884 m 59.18884,8.02011 h -59.18884 m 59.18884,8.02011 h -59.18884 m 59.18884,8.02011 h -59.18884 m 59.18884,8.02012 h -59.18884 m 59.18884,-104.26147 h -178.49552 m 178.49552,8.02011 h -178.49552 m 178.49552,8.02011 h -178.49552 m 96.99732,8.02011 h 81.4982 m -119.30668,40.10057 h -59.18884 m 59.93583,-8.02011 h -59.93583 m 62.29914,-8.02012 h -62.29914 m 66.14397,-8.02011 h -66.14397 m 71.99907,-8.02012 h -71.99907 m 59.18884,80.20114 h -59.18884 m 0,-40.10056 h 59.18884 m -59.18884,8.02011 h 59.18884 m -59.18884,8.02011 h 59.18884 m -59.18884,8.02011 h 59.18884 m -59.18884,8.02012 h 59.18884 m 22.30936,-80.20114 h -81.4982" />
			<path style="fill:none;" d="m 530.31836,229.40965 -6e-5,8.02012 m -17.84846,-8.02012 -1.9e-4,8.02012 m -17.84833,-8.02012 -3.2e-4,8.02012 m 26.77297,-16.04024 1.4e-4,8.02012 m -17.84878,-8.02012 2.5e-4,8.02012 m -17.84891,-8.02012 3.9e-4,8.02012 m 44.6213,-16.04024 -6e-5,8.02012 m -17.84846,-8.02012 -1.9e-4,8.02012 m -17.84833,-8.02012 -3.2e-4,8.02012 m 26.77297,-16.04023 1.4e-4,8.02011 m -17.84878,-8.02011 2.5e-4,8.02011 m -17.84891,-8.02011 3.9e-4,8.02011 m 44.6213,-16.04022 -6e-5,8.02012 m -17.84846,-8.02012 -1.9e-4,8.02012 m -17.84833,-8.02012 -3.2e-4,8.02012 m 26.77297,-16.04023 1.4e-4,8.02011 m -17.84878,-8.02011 2.5e-4,8.02011 m -17.84891,-8.02011 3.9e-4,8.02011 m 44.6213,-16.04022 -6e-5,8.02011 m -17.84846,-8.02011 -1.9e-4,8.02011 m -17.84833,-8.02011 -3.2e-4,8.02011 m 26.77297,-16.04023 1.4e-4,8.02012 m -17.84878,-8.02012 2.5e-4,8.02012 m -17.84891,-8.02012 3.9e-4,8.02012 m 44.6213,-16.04023 -6e-5,8.02012 m -17.84846,-8.02012 -1.9e-4,8.02012 m -17.84833,-8.02012 -3.2e-4,8.02012 m 26.77297,-16.04024 1.4e-4,8.02012 m -17.84878,-8.02012 2.5e-4,8.02012 m -17.84891,-8.02012 3.9e-4,8.02012 m 44.6213,-16.04023 -6e-5,8.02012 m -17.84846,-8.02012 -1.9e-4,8.02012 m -17.84833,-8.02012 -3.2e-4,8.02012 m 26.77297,-16.04024 1.4e-4,8.02012 m -17.84878,-8.02012 2.5e-4,8.02012 m -17.84891,-8.02012 3.9e-4,8.02012 m 44.6213,-16.04022 -6e-5,8.02011 m -17.84846,-8.02011 -1.9e-4,8.02011 m -35.69686,-8.02011 -4.4e-4,8.02011 m 17.84897,-8.02011 -3.2e-4,8.02011 m 26.77297,-16.04023 1.4e-4,8.02012 m -17.84878,-8.02012 2.5e-4,8.02012 m -35.69755,-8.02012 5e-4,8.02012 m 17.84814,-8.02012 3.9e-4,8.02012 m -26.77279,-16.04023 -5.7e-4,8.02012 m 71.39466,-8.02012 -6e-5,8.02012 m -17.84846,-8.02012 -1.9e-4,8.02012 m -35.69686,-8.02012 -4.4e-4,8.02012 m 17.84897,-8.02012 -3.2e-4,8.02012 m 26.77297,-16.04024 1.4e-4,8.02012 m -17.84878,-8.02012 2.5e-4,8.02012 m -35.69755,-8.02012 5e-4,8.02012 m 17.84814,-8.02012 3.9e-4,8.02012 m -35.69705,8.02011 v 8.02011 m -80.31835,96.24137 6e-5,8.02012 m 17.84846,-8.02012 1.9e-4,8.02012 m 17.84833,-8.02012 3.2e-4,8.02012 m -26.77297,-16.04024 -1.4e-4,8.02012 m 17.84878,-8.02012 -2.5e-4,8.02012 m 17.84891,-8.02012 -3.9e-4,8.02012 m -44.6213,-16.04024 6e-5,8.02012 m 17.84846,-8.02012 1.9e-4,8.02012 m 17.84833,-8.02012 3.2e-4,8.02012 m -26.77297,-16.04023 -1.4e-4,8.02011 m 17.84878,-8.02011 -2.5e-4,8.02011 m 17.84891,-8.02011 -3.9e-4,8.02011 m -44.6213,-16.04022 6e-5,8.02012 m 17.84846,-8.02012 1.9e-4,8.02012 m 17.84833,-8.02012 3.2e-4,8.02012 m -26.77297,-16.04023 -1.4e-4,8.02011 m 17.84878,-8.02011 -2.5e-4,8.02011 m 17.84891,-8.02011 -3.9e-4,8.02011 m -44.6213,-16.04022 6e-5,8.02011 m 17.84846,-8.02011 1.9e-4,8.02011 m 17.84833,-8.02011 3.2e-4,8.02011 m -26.77297,-16.04023 -1.4e-4,8.02012 m 17.84878,-8.02012 -2.5e-4,8.02012 m 17.84891,-8.02012 -3.9e-4,8.02012 m -44.6213,-16.04023 6e-5,8.02012 m 17.84846,-8.02012 1.9e-4,8.02012 m 17.84833,-8.02012 3.2e-4,8.02012 m -26.77297,-16.04024 -1.4e-4,8.02012 m 17.84878,-8.02012 -2.5e-4,8.02012 m 17.84891,-8.02012 -3.9e-4,8.02012 m -44.6213,-16.04023 6e-5,8.02012 m 17.84846,-8.02012 1.9e-4,8.02012 m 17.84833,-8.02012 3.2e-4,8.02012 m -26.77297,-16.04024 -1.4e-4,8.02012 m 17.84878,-8.02012 -2.5e-4,8.02012 m 17.84891,-8.02012 -3.9e-4,8.02012 m -44.6213,-16.04022 6e-5,8.02011 m 17.84846,-8.02011 1.9e-4,8.02011 m 35.69686,-8.02011 4.4e-4,8.02011 m -17.84897,-8.02011 3.2e-4,8.02011 m -26.77297,-16.04023 -1.4e-4,8.02012 m 17.84878,-8.02012 -2.5e-4,8.02012 m 35.69755,-8.02012 -5e-4,8.02012 m -17.84814,-8.02012 -3.9e-4,8.02012 m 26.77279,-16.04023 5.7e-4,8.02012 m -71.39466,-8.02012 6e-5,8.02012 m 17.84846,-8.02012 1.9e-4,8.02012 m 35.69686,-8.02012 4.4e-4,8.02012 m -17.84897,-8.02012 3.2e-4,8.02012 m 44.62099,-16.04024 v 8.02012 m -71.39396,-8.02012 -1.4e-4,8.02012 m 17.84878,-8.02012 -2.5e-4,8.02012 m 35.69755,-8.02012 -5e-4,8.02012 m -17.84814,-8.02012 -3.9e-4,8.02012" />
			<path style="fill:#808080;" d="m 450.00001,131.53998 c -21.73274,4.9923 -35.7685,31.27392 -35.94688,45.66959 v 60.22067 h 11.77581 v -59.31295 c 2.23687,-16.24432 12.29155,-29.27844 24.17107,-34.32464 11.87952,5.0462 21.9342,18.08032 24.17107,34.32464 v 59.31295 h 11.77581 v -60.22067 c -0.17838,-14.39567 -14.21414,-40.67729 -35.94688,-45.66959 z" />
			<path style="fill:#808080;" d="m 412.17252,238.99986 h 15.32815 c -0.33543,-3.52778 -0.35629,-8.68637 -1.67169,-10.23911 h -11.77581 c -1.83697,1.29539 -1.56721,6.93056 -1.88065,10.23911 z" />
			<path style="fill:#808080;" d="m 487.8275,238.99986 h -15.32815 c 0.33543,-3.52778 0.35629,-8.68637 1.67169,-10.23911 h 11.77581 c 1.83697,1.29539 1.56721,6.93056 1.88065,10.23911 z" />
			<path style="fill:none;" d="m 471.67155,168.25816 11.30367,-4.31418 m -15.72188,-4.75165 9.69023,-6.87885 m -16.10273,-1.09875 7.63052,-9.0455 m 17.47549,46.07675 h -11.77581 m 11.77581,10.12869 h -11.77581 m 11.77581,10.12869 h -11.77581 m 11.77581,10.12869 h -11.77581 m 11.77581,-41.42248 -11.77581,0.90772 m -45.84257,-9.85913 -11.30367,-4.31418 m 15.72188,-4.75165 -9.69023,-6.87885 m 16.10273,-1.09875 -7.63052,-9.0455 m -17.47549,46.07675 h 11.77581 m -11.77581,10.12869 h 11.77581 m -11.77581,10.12869 h 11.77581 m -11.77581,10.12869 h 11.77581 m -11.77581,-41.42248 11.77581,0.90772" />
			<path style="fill:#808080;" d="m 450.00001,129.59268 c -2.94602,0.87963 -5.71296,1.99993 -8.30286,3.31961 l 6.49509,13.47472 c 0.59029,-0.31492 1.20706,-0.60834 1.80777,-0.88012 0.60071,0.27178 1.21748,0.5652 1.80777,0.88012 l 6.49509,-13.47472 c -2.5899,-1.31968 -5.35684,-2.43998 -8.30286,-3.31961 z" />
		</g>
		<g id="tower">
			<path style="fill:#999999;" d="m 324.89395,80.689103 v 128.321027 l -2.29383,2.52383 -3.60481,16.28373 h -2.2279 v 14.1877 h 82.52419 v -14.1877 h -2.2279 l -3.60328,-16.28373 -2.29383,-2.52383 v -128.321027 z" />
			<path style="fill:#808080;" d="m 321.07754,73.38289 c 0,4.534164 1.78385,5.273654 3.81641,7.306213 h 66.27264 c 2.03256,-2.032559 3.81641,-2.772049 3.81641,-7.306213 z" />
			<path style="fill:#808080;" d="m 318.75611,57.994611 0.12114,8.555853 0.12266,8.557393 h 78.05919 l 0.12266,-8.557393 0.12267,-8.555853 h -11.22075 v 8.555853 h -11.22228 v -8.555853 h -11.22075 v 8.555853 h -11.22075 v -8.555853 h -11.22229 v 8.555853 h -11.22075 v -8.555853 z" />
			<path style="fill:none;" d="m 387.62638,216.96185 0.97038,5.42792 m -20.70158,-5.42786 0.32326,5.42793 m -20.05393,-5.42801 -0.32375,5.42787 m -19.40743,-5.42793 -0.97088,5.42796 m 50.94492,-2e-5 0.64645,5.42797 m -21.02439,-5.42791 -4.3e-4,5.42791 m -20.3776,-5.42786 -0.64769,5.42786 m 40.75724,-10.85576 -0.64644,-5.42797 -1.23642,-2.52313 m -35.69667,0 -1.23465,2.52313 -0.64768,5.42784 m 19.73085,-7.95097 3.7e-4,2.52313 -4.4e-4,5.4279 m 33.33658,10.85583 7.2e-4,14.1877 m -22.22603,-14.1877 5.6e-4,14.1877 m -22.2254,-14.1877 7.1e-4,14.1877 m -22.22603,-14.1877 5.7e-4,14.1877 m 60.1108,-41.01467 5.7e-4,8.02012 m -17.8491,-8.02012 4.5e-4,8.02012 m 8.92433,-16.04024 -5e-4,8.02012 m 8.92424,-16.04023 5.8e-4,8.02012 m -17.8491,-8.02012 4.4e-4,8.02012 m -17.84857,8.02011 5.7e-4,8.02012 m -17.84909,-8.02012 4.5e-4,8.02012 m 26.77232,-16.04024 v 8.02011 m -17.84801,-8.02011 -5e-4,8.02012 m 8.92425,-16.04023 5.7e-4,8.02012 m -17.8491,-8.02012 4.6e-4,8.02012 m 44.62098,-16.04024 -5e-4,8.02012 m 8.92425,-16.04023 5.7e-4,8.02012 m -17.8491,-8.02012 4.5e-4,8.02012 m 8.92432,-16.04023 -5e-4,8.02011 m 8.92425,-16.04022 5.7e-4,8.02011 m -17.8491,-8.02011 4.5e-4,8.02011 m -8.92431,16.04022 v 8.02011 m -17.84801,-8.02011 -5.1e-4,8.02012 m 8.92425,-16.04023 5.8e-4,8.02012 m -17.8491,-8.02012 4.5e-4,8.02012 m 26.77233,-16.04023 v 8.02011 m -17.84801,-8.02011 -5e-4,8.02011 m 8.92424,-16.04022 5.8e-4,8.02011 m -17.8491,-8.02011 4.5e-4,8.02011 m 44.62099,-16.04023 -5e-4,8.02012 m 8.92425,-16.04023 5.7e-4,8.02012 m -17.8491,-8.02012 4.5e-4,8.02012 m 8.92432,-16.04024 -5e-4,8.02012 m 8.92425,-16.04023 5.7e-4,8.02012 m -17.8491,-8.02012 4.5e-4,8.02012 m -8.92431,16.04022 v 8.02011 m -17.84801,-8.02011 -5e-4,8.02012 m 8.92424,-16.04023 5.8e-4,8.02012 m -17.8491,-8.02012 4.5e-4,8.02012 m 26.77233,-16.04024 v 8.02012 m -17.84801,-8.02012 -5e-4,8.02012 m 8.92425,-16.04023 5.7e-4,8.02012 m -17.8491,-8.02012 4.5e-4,8.02012 m 44.62099,-16.04024 -5.1e-4,8.02012 m 8.92425,-16.04022 5.8e-4,8.02011 m -17.84911,-8.02011 4.5e-4,8.02011 m 8.92433,-16.040232 -5e-4,8.020122 m 8.92424,-16.040232 5.8e-4,8.020118 m -17.8491,-8.020118 4.4e-4,8.020118 m 8.92433,-16.040235 -5e-4,8.020117 m -17.84814,24.060332 v 8.02011 m -17.84801,-8.02011 -5e-4,8.02012 m 8.92425,-16.04022 5.7e-4,8.02011 m -17.84909,-8.02011 4.5e-4,8.02011 m 26.77233,-16.040232 v 8.020112 m -17.84801,-8.020112 -5.1e-4,8.020122 m 8.92425,-16.040232 5.7e-4,8.020118 m -17.8491,-8.020118 4.6e-4,8.020118 m 26.77234,-16.040235 v 8.020117 m -17.84802,-8.020117 -5e-4,8.020117" />
			<path style="fill:none;" d="m 321.39852,216.96187 h 73.26299 m -74.4646,5.42791 h 75.6657 m -76.8673,5.42791 h 78.06839 m -74.46358,-16.28373 h 70.8603 m -2.29419,-122.824842 h -66.27264 m 66.27264,8.02011 h -66.27264 m 66.27264,8.020122 h -66.27264 m 66.27264,8.0201 h -66.27264 m 66.27264,8.02012 h -66.27264 m 66.27264,8.02011 h -66.27264 m 66.27264,8.02012 h -66.27264 m 66.27264,8.02011 h -66.27264 m 66.27264,8.02012 h -66.27264 m 66.27264,8.02011 h -66.27264 m 66.27264,8.02011 h -66.27264 m 66.27264,8.02011 h -66.27264 m 66.27264,8.02012 h -66.27264 m 66.27264,8.02011 h -66.27264 m 66.27264,8.02012 h -66.27264 m 66.27264,8.02012 h -66.27264" />
			<path style="fill:#808080;" d="m 351.99298,118.49072 v 18.33908 h 12.07386 v -18.33908 c -0.18672,-7.25383 -1.96956,-16.577 -6.03693,-21.761492 -3.86323,5.402902 -6.03707,14.564542 -6.03693,21.761492 z" />
			<path style="fill:#4d4d4d;" d="m 355.02154,118.49072 c 0.0418,-6.05875 0.62718,-9.89349 3.00837,-14.93255 1.86775,4.07969 3.08755,8.76034 3.00835,14.93255 v 15.52438 h -6.01672 z" />
		</g>
		<use xlink:href="#tower" transform="translate(183.94101)" />
	</g>
	<use xlink:href="#castle" transform="translate(175,430)scale(0.85)translate(-450,-150)" />
	<use xlink:href="#tree" transform="translate(425,430)scale(0.85)translate(-150,-150)" />
</g>
<use id="shine" xlink:href="#shield" style="fill:url(#rg);stroke:#000000;stroke-width:3" />
</svg>
