<?xml version="1.0" encoding="UTF-8"?>
<svg xmlns="http://www.w3.org/2000/svg" xmlns:xlink="http://www.w3.org/1999/xlink" width="600" height="660">
<defs>
  <radialGradient id="rg" gradientUnits="userSpaceOnUse" cx="220" cy="220" r="405">
    <stop style="stop-color:#fff;stop-opacity:.3" offset="0"/>
    <stop style="stop-color:#fff;stop-opacity:.2" offset=".2"/>
    <stop style="stop-color:#666;stop-opacity:.1" offset=".6"/>
    <stop style="stop-color:#000;stop-opacity:.13" offset="1"/>
  </radialGradient>
  <path id="shield" d="m2,2v257c0,286 298,398 298,398c0,0 298-112 298-398V2z"/>
</defs>
<use id="background" xlink:href="#shield" fill="#86df86"/>
<g style="stroke:#222222;stroke-width:3;stroke-linecap:round;stroke-linejoin:round;">
	<path style="fill:#444444;stroke-width:2;" d="m 419.1,480.4 c 5.3,-12.1 -0.6,-37.8 3.3,-62.8 18.8,9.9 19.5,-34 25.9,-47.8 27.8,-60.7 29.3,-95.1 -11,-69.4 -13.8,-76.5 -37.7,-86.5 -37.7,-86.5 l -99.6,-4 -99.6,4 c 0,0 -23.9,10 -37.7,86.5 -40.3,-25.7 -38.8,8.7 -11,69.4 6.4,13.8 7.1,57.7 25.9,47.8 3.9,25 -2,50.7 3.3,62.8 10.4,24.1 68.1,77.7 119.1,77.7 51,0 108.7,-53.6 119.1,-77.7 z" />
	<path style="fill:#666666;stroke-width:2;" d="m 388.8,104.5 c 38.8,21.6 64.6,76.3 69.3,97.6 l 1.4,159.9 c 0,0 -18.1,6.7 -22.9,16 -18.9,36.6 -3.2,123.5 -3.2,123.5 l -91,55.4 5.3,-124.1 c 0,0 12.6,-10.7 15.8,-16.9 8.8,-17.3 6.4,-56.2 6.4,-56.2 l 45.7,-14.1 1.8,-78.2 -101.7,42.7 c 0,0 0.3,19.3 3.4,33.2 2.6,11.6 12.9,41.2 12.9,41.2 -18.4,7.1 -32,28.5 -32,28.5 0,0 -13.6,-21.4 -32,-28.5 0,0 10.3,-29.6 12.9,-41.2 3.1,-13.9 3.4,-33.2 3.4,-33.2 l -101.7,-42.7 1.8,78.2 45.7,14.1 c 0,0 -2.4,38.9 6.4,56.2 3.2,6.2 15.8,16.9 15.8,16.9 l 5.3,124.1 -91,-55.4 c 0,0 15.7,-86.9 -3.2,-123.5 -4.8,-9.3 -22.9,-16 -22.9,-16 l 1.4,-159.9 c 4.7,-21.3 30.5,-76 69.3,-97.6 45,-25 57.8,-32.58 88.8,-77.32 31,44.74 43.8,52.32 88.8,77.32 z" />
	<path style="fill:none;" d="m 257.4,469.5 c 27.1,-3.6 19.8,2.6 42.6,2.6 22.8,0 15.5,-6.2 42.6,-2.6 m -64.5,-9.8 c -5.6,3.2 -12.7,9.8 -20.7,9.8 8.1,-6.2 15.5,-19.8 23.6,-22.4 10.3,-3.3 12.2,2.1 19,2.1 6.8,0 8.7,-5.4 19,-2.1 8.1,2.6 15.5,16.2 23.6,22.4 -8,0 -15.1,-6.6 -20.7,-9.8 -11.6,-6.7 -13.3,0.2 -21.9,0 -8.6,0.2 -10.3,-6.7 -21.9,0 z m 18.7,-45.2 c 0,8.9 -8.2,25.6 3.2,25.6 11.4,0 3.2,-16.7 3.2,-25.6 m 24.1,-92.9 c 10,-1.7 24.9,-14.6 33.5,-20 22.4,-14.3 30.7,-12.5 41.2,-12.1 m -70.8,43 c 16.9,-9.4 15.1,-16.1 33,-23.2 17.3,-6.9 24.7,0.8 35.3,10.1 m -83,83.8 c 11.6,14 23,30 25.8,48.6 m -12.9,66.6 c -5.3,-9.3 -18,-15.2 -29.4,-15.2 -11.4,0 -24.1,5.9 -29.4,15.2 m 2.1,-196.8 c -10,-1.7 -24.9,-14.6 -33.5,-20 -22.4,-14.3 -30.7,-12.5 -41.2,-12.1 m 70.8,43 c -16.9,-9.4 -15.1,-16.1 -33,-23.2 -17.3,-6.9 -24.7,0.8 -35.3,10.1 m 83,83.8 c -11.6,14 -23,30 -25.8,48.6" />
	<path style="fill:#ee0000;stroke:none;" d="m 219.1,259.6 c -7.7,8 2.3,17.5 -1,29.5 -3.3,-12.2 -7,-16.1 -10.1,-16.7 3.1,5.9 3.8,15.1 2.5,25.6 -1.8,-2.5 -4.6,-8 -7.7,-8.9 1.8,7 2,15 2.4,22.3 -1.2,-2 -3.5,-3.7 -5.5,-4.4 2.9,6 1.4,9.1 2.4,15 6.6,10.7 14.7,19.2 25.5,20.3 13.1,1.3 22.6,-9.5 41.2,-9.8 -6.4,-2.4 -10.4,-4 -10.5,-7.5 0.3,-2.2 -1.3,-6.1 -2.3,-9.5 0.1,4 -4.2,5.9 -5.8,5.6 2,-2.9 2.9,-5.1 3.4,-7.5 0.6,-9 -2,-15.8 -6.9,-21.9 0.2,4.4 -0.1,8 -1.6,8.8 -4.4,-13 -9.2,-22.2 -13.9,-24.8 1.4,3.9 2.8,8.7 -0.3,12.8 -4.1,-18.3 -11.7,-11.9 -11.8,-28.9 z" />
	<path style="fill:#ffbb00;stroke:none;" d="m 223.1,281.5 c -4.8,8.5 3.8,18.7 1.2,29.1 -6.1,-4.8 -5.4,-16.5 -10.4,-20.1 4,8.9 -1.4,13.1 4.9,26.5 -3.6,-2.5 -7.4,-7.8 -10.5,-15.1 0.2,11.4 7.8,18.4 7.5,23.4 -0.5,-1.1 -5.6,-7.3 -10.3,-6.4 5.3,4.9 3.2,7.5 4.6,12.2 0.3,1 0.7,2 1.2,2.8 4.7,4.6 10,7.8 16.3,8.4 10.8,1.1 14.7,-3.5 22.9,-6.8 l 10.6,-2.7 c -3.7,-2.2 -5.6,-3.5 -4.9,-6.1 0.5,-2 0.3,-3.9 -0.8,-5.6 -0.9,2.9 -1.8,2.6 -5.2,4.2 -3.4,1.6 -3,3.3 -3.4,3.9 0.3,-11.7 -3.2,-10.6 0.5,-20.9 -5.3,1.7 -4.1,9.4 -6,11.4 -0.3,-8.3 -0.8,-16.6 -7.9,-25.8 2.9,7.2 3.5,14.1 -1,18.9 -3.1,-18.9 -6.9,-14.3 -9.3,-31.3 z" />
	<path style="fill:none;" d="m 200.5,319.4 c 7,11.9 15.4,21.7 27.1,22.9 16.5,1.7 16.9,-10 41.2,-9.8" />
	<path style="fill:#ee0000;stroke:none;" d="m 380.9,259.6 c 7.7,8 -2.3,17.5 1,29.5 3.3,-12.2 7,-16.1 10.1,-16.7 -3.1,5.9 -3.8,15.1 -2.5,25.6 1.8,-2.5 4.6,-8 7.7,-8.9 -1.8,7 -2,15 -2.4,22.3 1.2,-2 3.5,-3.7 5.5,-4.4 -2.9,6 -1.4,9.1 -2.4,15 -6.6,10.7 -14.7,19.2 -25.5,20.3 -13.1,1.3 -22.6,-9.5 -41.2,-9.8 6.4,-2.4 10.4,-4 10.5,-7.5 -0.3,-2.2 1.3,-6.1 2.3,-9.5 -0.1,4 4.2,5.9 5.8,5.6 -2,-2.9 -2.9,-5.1 -3.4,-7.5 -0.6,-9 2,-15.8 6.9,-21.9 -0.2,4.4 0.1,8 1.6,8.8 4.4,-13 9.2,-22.2 13.9,-24.8 -1.4,3.9 -2.8,8.7 0.3,12.8 4.1,-18.3 11.7,-11.9 11.8,-28.9 z" />
	<path style="fill:#ffbb00;stroke:none;" d="m 376.9,281.5 c 4.8,8.5 -3.8,18.7 -1.2,29.1 6.1,-4.8 5.4,-16.5 10.4,-20.1 -4,8.9 1.4,13.1 -4.9,26.5 3.6,-2.5 7.4,-7.8 10.5,-15.1 -0.2,11.4 -7.8,18.4 -7.5,23.4 0.5,-1.1 5.6,-7.3 10.3,-6.4 -5.3,4.9 -3.2,7.5 -4.6,12.2 -0.3,1 -0.7,2 -1.2,2.8 -4.7,4.6 -10,7.8 -16.3,8.4 -10.8,1.1 -14.7,-3.5 -22.9,-6.8 l -10.6,-2.7 c 3.7,-2.2 5.6,-3.5 4.9,-6.1 -0.5,-2 -0.3,-3.9 0.8,-5.6 0.9,2.9 1.8,2.6 5.2,4.2 3.4,1.6 3,3.3 3.4,3.9 -0.3,-11.7 3.2,-10.6 -0.5,-20.9 5.3,1.7 4.1,9.4 6,11.4 0.3,-8.3 0.8,-16.6 7.9,-25.8 -2.9,7.2 -3.5,14.1 1,18.9 3.1,-18.9 6.9,-14.3 9.3,-31.3 z" />
	<path style="fill:none;" d="m 399.5,319.4 c -7,11.9 -15.4,21.7 -27.1,22.9 -16.5,1.7 -16.9,-10 -41.2,-9.8" />
	<path style="fill:none;" d="m 300,396 v -139.4 m 141.8,-49.5 c -27.9,6.6 -63.6,19.3 -129.5,45.5 m -154.1,-45.5 c 27.9,6.6 63.6,19.3 129.5,45.5" />
</g>
<use id="shine" xlink:href="#shield" fill="url(#rg)" stroke="#000" stroke-width="3"/>
</svg>
