<svg xmlns="http://www.w3.org/2000/svg" width="600" height="660" xmlns:xlink="http://www.w3.org/1999/xlink">
<defs>
  <radialGradient id="rg" gradientUnits="userSpaceOnUse" cx="220" cy="220" r="405">
    <stop style="stop-color:#fff;stop-opacity:.3" offset="0" />
    <stop style="stop-color:#fff;stop-opacity:.2" offset="0.2" />
    <stop style="stop-color:#666;stop-opacity:.1" offset="0.6" />
    <stop style="stop-color:#000;stop-opacity:.13" offset="1" />
  </radialGradient>
  <clipPath id="clip-shield">
    <path id="shield" d="m 2 2 v 257 c 0 286 298 398 298 398 c 0 0 298 -112 298 -398 V 2 Z" />
  </clipPath>
</defs>
<use xlink:href="#shield" style="fill:#0000cc;" />
<path style="fill:#cc0000" d="m 200,2 v 600.6 c 55,37.5 100,54.4 100,54.4 0,0 298,-112 298,-398 v -257 z" />
<path style="fill:#006600" d="m 400,2 v 600.6 c 86.6,-58.9 198,-168.7 198,-343.6 v -257 z" />
<path style="fill:#000000;" d="m 4.107,300 c 26.543,255.8 295.893,357 295.893,357 0,0 269.4,-101.2 295.9,-357 z" />
<g transform="matrix(0.7266,0,0,0.7266,80.89,234.2)" style="fill:#ffffff;stroke:#000000;stroke-width:0.5;stroke-linecap:round;stroke-linejoin:round;">
  <g>
    <g>
      <path style="fill:#dddddd;" d="m 239,235 c 2.1,-4.8 8.4,-9.8 12,-12.5 4.1,-3 11.8,-3.9 15.9,-7 6.3,-4.7 9.2,-11.9 11.8,-19.2 3.4,-9.4 1,-17.7 -2.4,-25.4 -4.7,-11.2 -11.5,-15.4 -21.3,-13.4 -14.5,2.9 -30,17.4 -37.1,30.4 -4.5,8.4 -11.4,29.3 -27.2,37.7" />
      <path style="fill:none;stroke:#999999;" d="m 232.3,173 c -2.6,18 -15.1,23.8 -28.4,52.1 m 45.4,-64.3 c -7.4,23 -24,34.1 -36.8,65.2 v 0 m 48.7,-67.8 c -10.2,28.9 -30.2,38.9 -42.8,67.7 m 53.8,-59.7 c -9.2,17.7 -36.2,40.3 -48.9,62.4 m 55.6,-45.9 c -13,18.2 -36,28 -49,46.6 m 45.9,-28.9 c -11.5,12.9 -25.5,10.7 -41.3,29.9" />
    </g>
    <g>
      <path style="fill:#dddddd;" d="m 309.7,322.2 c 0,0 16.2,-2.9 21.7,2.9 8.4,9.1 16.5,20.6 33.2,28.4 24.8,11.7 54.5,9.8 77.5,-13.9 8.1,-8.4 13.9,-33.4 1.9,-38.3 -8.1,-3.4 -15.7,2.1 -25.9,-3.3" />
      <path style="fill:none;stroke:#999999;" d="m 354.9,346.1 c -11.7,-11.3 -9.4,-19.6 -22.4,-27 m 37.8,35.4 c -13.8,-7.2 -18.8,-29.3 -31.8,-36.7 m 45.7,40.1 c -16.7,-8.2 -27.7,-33.2 -36.9,-41.2 m 50.2,42 c -15.7,-6.4 -32.1,-25.1 -41.3,-44.3 m 50.4,43.1 c -19.6,-10.4 -34.4,-24.8 -43.6,-44 m 51.4,41.4 c -21.6,-9.5 -39.9,-30 -45.1,-42.2 m 52.7,39.2 c -21.6,-9.6 -41.5,-28.3 -46.7,-40.5 m 52.2,36.4 c -14.1,-5.2 -38.6,-22.3 -46.7,-37.9 m 53,34.3 c -11.3,-3.9 -37.4,-19.8 -47.8,-35.4 m 53.5,30 c -16.2,-5.8 -37.3,-16.4 -49.9,-31.3 m 55.1,25.4 c -27.1,-6.3 -36.8,-14.9 -51.4,-26.7 m 53,20.3 c -23.2,-4.6 -33.7,-12.1 -47,-22.2 m 49.4,15.7 c -19.6,-2.5 -35,-9.3 -44.2,-16.8 m 44.7,9.7 c -16.5,-1.6 -29.8,-5.3 -41.3,-11.2 m 38.9,4.3 c -10.2,0.8 -24.5,-2.3 -32.6,-5.8" />
    </g>
    <g>
      <path style="fill:#dddddd;" d="m 476.6,248.6 c 14.1,-6.8 58.5,-15.6 89.3,-13.7 14.3,1 12.5,5.2 14.3,23.2 0.8,7 -4.7,17.5 -4.4,24.5 0,17 7.3,25.6 5,37.9 -1.6,8.8 -18,13.1 -26.9,12 -30.3,-3.8 -70.8,-20.7 -77.8,-27.3" />
      <path style="fill:none;stroke:#999999;" d="m 574.2,271 c -19.8,-0.5 -33.6,3 -52.2,2 m 54.3,-10.5 c -18.5,-2.9 -36,4.1 -55.8,3.1 m 55.6,-11.7 c -24.1,-1.2 -41.8,4.8 -60.1,3.2 m 58.8,-11.1 c -26.9,-2.6 -38.4,4.8 -65.3,5.3 m 60.6,-12.5 c -23.8,-1.1 -40.2,5.1 -68.2,7.1 m 71.8,34.3 c -17,-0.3 -34.2,-0.7 -51.2,-1.1 m 50.4,10.3 c -19.8,0.5 -32.1,-5.2 -50.6,-4.1 m 53.2,14 c -21.1,-0.9 -34.9,-8.7 -54.8,-7.7 m 58,18.3 c -25.6,-3.2 -40.7,-11.3 -60.3,-11.7 m 60.3,24.6 c -25.9,-4.8 -37.6,-15.7 -64,-19 m 54.6,25.3 c -25.1,-5.1 -35,-17.1 -58.5,-20.9 m 44.4,23.2 c -27.2,-5.8 -34,-16.2 -54.1,-19.6" />
    </g>
  </g>
  <path d="m 70.4,299.2 c 10.1,8.1 11.72,11.3 15.17,19.9 3.16,8 1.93,20 7.73,35.1 4.28,11.2 13.7,28.3 31.5,24.1 -14,-1.3 -20.7,-7.9 -24.1,-13.8 -10.95,-18.7 -4.32,-28.4 -12.23,-48.1 -3.58,-8.9 -6.58,-13.4 -11.18,-19" />
  <path d="m 60.19,253.2 c 4.15,-5.3 -3.42,-17.9 -3.28,-29.2 0.1,-6 1.95,-13.7 8.48,-17.2 -5.25,4.6 -6.23,11.2 -6.17,17 0.1,6.1 5.28,26 10.13,28.4" />
  <path d="m 66.33,276.3 c -6.77,-2.2 -19.12,-0.9 -24.63,-1.7 -3.63,-0.5 -4.23,-2.9 -7.49,-2.9 -3.76,0 -1.59,8.1 0.7,11 2.41,3.1 8.33,4.2 9.07,8 -0.1,3.4 -4.44,10.8 -8.96,15.1 -6.11,5.8 -14.01,11.5 -24.65,7.9 3.44,2.9 8,3 11.86,1.9 11.54,-3 20.34,-15.9 26.05,-23.4 -2.22,6.4 1,18 5.07,26.1 1.98,4 5.27,7 9.53,10.5 2.37,2 2.61,2.5 4.65,7.1 -0.13,-4.7 -1.44,-5.8 -3.95,-8.8 -3.08,-3.7 -5.92,-6.7 -8.01,-11 -3.5,-7.3 -6.61,-15.8 -3.94,-23.9 8.74,6.2 14.09,6.5 24.28,10.9 10.1,4.4 14.25,9.5 25.69,9.9 12.3,7.6 20.3,4.9 31.5,8.7 13.7,4.7 26.5,11.3 46.1,12.3 58.3,2.6 143.6,-10 200.5,-22.5 20.7,-4.5 59,-21.5 78.9,-14.6 17.2,6 24.8,18.1 41.5,13.4 13.8,-3.8 17.7,-14.2 19.1,-28.4 0.7,-13.3 -11,-29.4 -23.3,-34.7 -13.3,-5.8 -28.2,7 -42.8,6.8 -11.8,-0.2 -25.3,-2.3 -39.2,-5.8 6.8,-2.1 18.6,2.7 17.8,-6.3 -0.5,-4.4 -11.5,-8.6 -20.1,-9.8 -8.1,-1 -27.4,0.4 -42.3,3.9 -15.4,-3.5 -31.1,-6 -46.5,-5.8 -47,0.7 -77.7,-6.7 -114,-11 -22,-2.5 -54.1,9.8 -77.2,14.1 -10.2,1.9 -19.1,-0.2 -33.6,4.9 -16.27,5.7 -41.94,10 -60,17.8 -2.98,1.3 -5.96,4.4 -5.17,7.6 2.87,11.4 30.13,7.2 33.5,12.7 z" />
  <path d="m 59.17,270.9 c 2.82,6.6 1.25,14.9 3.06,28.1 1.64,12.3 5.27,25.8 9.97,33.8 4.31,7.4 11.67,13.8 16.01,21.1 6.13,10.5 11.54,20.9 9.87,32.8 -2.38,-10.3 -3.11,-16.1 -6.61,-22.8 -5.67,-10.8 -16.06,-18.6 -22.04,-29.2 -4.67,-8.4 -7.67,-17.6 -10.52,-26.7 -2.79,-9 -1.98,-19.1 -6.4,-27.4 -2.22,-4.1 -5.45,-9 -9.34,-9.5" />
  <path d="m 50.64,255.2 c 5.61,-5.3 -3.37,-13.4 -4.16,-31 -0.28,-6.1 2.17,-13.8 5.25,-17.9 -2.98,4.9 -3.75,13.3 -3.26,19.1 0.88,10.3 7.83,27.1 13.13,27" />
  <path d="m 101.6,313 c 31.3,1.9 58.3,-27.4 55.2,-52.5" />
  <path style="fill:#999999;stroke:none;" d="m 48.62,258.1 c 0.32,-0.8 1.52,-0.7 2.35,-0.4 0.97,0.4 2.3,1.4 1.88,2.4 -0.36,0.8 -2.92,1.7 -3.5,1.1 -0.6,-0.7 -1.01,-2.3 -0.73,-3.1 z" />
  <g>
    <path style="fill:#dddddd;" d="m 262,326.8 c 4.1,3.3 6.5,5.5 11.2,11.5 5.2,6.9 12.5,15.2 23.2,21.6 8.6,5.1 22.2,8.2 30.6,2.3 6,-4.3 5.5,-12.9 3.9,-20.2 -1.3,-6.5 -6.3,-13.1 -12.5,-15.1 -8.9,-2.8 -18.8,-0.5 -28.8,-1.1 -4.4,-0.3 -11.7,-2.7 -16.1,-2.8 -5.3,-0.2 -15.5,0.7 -11.5,3.8 z" />
    <path style="fill:none;stroke:#999999;" d="m 326.2,334 c -12.5,4.7 -33.9,-6.7 -50.9,-10.1 m 55.1,19.5 c -20.9,3.7 -34.5,-10.8 -59.6,-19 m 60.1,29.4 c -21.2,-0.4 -36.3,-16.3 -62.4,-28.2 v 0 0 m 56.7,35.7 c -25.6,-9.8 -37.1,-22.4 -57.2,-34.1 m 46.2,36.9 c -19.6,-8.9 -28,-20.1 -45.7,-34.3" />
  </g>
  <g>
    <path style="fill:#dddddd;" d="m 227.4,277.6 c -16.3,-7.7 -32.8,-3.6 -44.7,1.9 -8.8,4.1 -15.5,6 -25.1,9.2 -3.6,1.2 -3.7,11.4 0.1,11.5 12.5,0 19.3,0.6 27.9,2.6 6.3,1.5 9.9,5 16.3,5.6 6.2,0.6 14.1,-2.2 18.6,-6.5 3.9,-3.7 1.3,-6.8 3.4,-11.8 1.3,-3.2 8.7,-10.1 3.5,-12.5 z" />
    <path style="fill:none;stroke:#999999;" d="m 169.9,293.8 c 27.1,-4 37.9,-9 54.5,-8.6 m -49.6,9.1 c 20.9,-0.9 30.1,-4.8 46.3,-2.2 m -43.6,3 c 22.5,1.8 28.3,-2 42.8,2.9 m -39.8,-1.6 c 17.4,2.5 26.1,0.8 35.4,6 m -35.4,-4 c 9.7,2.2 23.9,3 29.7,7.5 m -33.7,-6.6 c 7.5,0.7 21,4.6 24,7.7 m -37.9,-13.6 c 32.7,-6.7 40.6,-13.8 64.4,-14 m -11.3,-3 c -23.5,1.1 -32.3,9.6 -56.1,16.9" />
  </g>
  <g>
    <path style="fill:#dddddd;" d="m 87.33,260.6 a 5.444,4.885 0 0 1 -5.44,4.9 5.444,4.885 0 0 1 -5.44,-4.9 5.444,4.885 0 0 1 5.44,-4.9 5.444,4.885 0 0 1 5.44,4.9 z" />
    <path style="fill:#000000;stroke:none;" d="m 84.1,260.5 a 2.369,2.024 0 0 1 -2.37,2 2.369,2.024 0 0 1 -2.37,-2 2.369,2.024 0 0 1 2.37,-2 2.369,2.024 0 0 1 2.37,2 z" />
    <path style="fill:#ffffff;stroke:none;" d="m 85,259.1 a 1.357,1.308 0 0 1 -1.36,1.3 1.357,1.308 0 0 1 -1.36,-1.3 1.357,1.308 0 0 1 1.36,-1.3 1.357,1.308 0 0 1 1.36,1.3 z" />
  </g>
</g>
<use xlink:href="#shield" style="fill:url(#rg);stroke:#000000;stroke-width:3;" />
</svg>
