<?xml version="1.0" encoding="UTF-8"?>
<svg xmlns="http://www.w3.org/2000/svg" xmlns:xlink="http://www.w3.org/1999/xlink" width="600" height="660">
<defs>
  <radialGradient id="rg" gradientUnits="userSpaceOnUse" cx="220" cy="220" r="405">
    <stop style="stop-color:#fff;stop-opacity:.3" offset="0"/>
    <stop style="stop-color:#fff;stop-opacity:.2" offset=".2"/>
    <stop style="stop-color:#666;stop-opacity:.1" offset=".6"/>
    <stop style="stop-color:#000;stop-opacity:.13" offset="1"/>
  </radialGradient>
  <path id="shield" d="m2,2v257c0,286 298,398 298,398c0,0 298-112 298-398V2z"/>
  <g id="bird" transform="scale(1)translate(-75,-75)">
    <g id="head">
      <path fill="#ddd" d="m 36.097554,16.391525 c 1.574935,-0.809343 1.461558,-2.871339 2.319885,-4.240622 1.303885,-2.080079 3.623834,-3.1489079 5.976271,-3.5665381 2.333938,-0.4143458 4.750754,-0.4128605 7.012777,0.1667269 3.040841,0.77914 5.571048,2.8872432 7.755307,5.1200612 1.397237,1.4283 2.555589,3.074045 3.423115,4.843398 0.860862,1.755761 1.659862,3.525147 2.026978,5.492285 0.289648,1.552037 0.803806,3.02651 1.146982,4.579218 0.427175,1.932757 0.88629,3.979198 2.323712,5.456437 1.060198,0.642453 1.387854,1.225157 -0.0033,1.860257 L 57.070286,41.128587 C 49.783279,44.455264 46.603511,28.998661 41.475181,22.844671 Z"/>
      <path fill="#555" d="m 36.635316,16.391525 c -1.82734,-0.322784 -3.555905,0.02812 -5.539254,0.241634 -2.030047,0.21855 -4.222892,0.09824 -6.034476,1.08755 -0.843289,0.460521 0.08267,1.720355 0.951771,1.880606 4.029619,0.743002 8.16729,1.345704 11.902634,3.1215 0.778542,0.370121 1.230662,1.158511 1.826052,1.794142 0.689949,0.73658 2.78539,-2.049479 2.90987,-2.778462 0.199222,-1.166688 1.1999,-3.444092 -0.800562,-3.647288 -1.820698,-0.184937 -3.415209,-1.381582 -5.216035,-1.699682 z"/>
      <path fill="#fff" d="m 41.475176,40.590825 c 0,-2.242317 0.6432,-4.393155 0.252728,-6.609539 -0.399233,-2.26611 -0.502009,-4.59985 -1.244786,-6.783524 -0.573815,-1.686942 -0.522694,-3.413465 -0.210604,-5.266768 0.252216,-1.497755 2.418312,-2.240612 1.602112,-3.183156 -1.153679,-1.332265 -6.189523,-0.707146 -4.813591,-2.130499 0.75837,-0.784507 1.965212,-0.578274 2.906709,-1.24294 1.579959,-1.1154 3.165244,-2.508767 5.245555,-2.498674 2.29397,0.01113 4.478807,0.814979 6.577652,1.69639 1.439559,0.604543 3.876983,2.18912 2.60549,3.480077 1.360897,0.945609 2.797205,2.117692 3.350657,3.766658 0.631313,1.880947 0.79387,3.971799 0.369883,5.862281 -0.404747,1.804691 -0.21216,3.355784 -0.221022,5.087993 -0.0078,1.51973 0.301421,3.490289 -1.456337,4.317663 -2.228176,1.048801 -4.043494,2.92959 -6.36025,3.772919 -1.598631,0.581922 -3.368763,-0.198652 -5.037244,-0.270753 -1.187922,-0.05133 -3.566952,1.190869 -3.566952,0.0019 z"/>
      <path fill="#888" d="m 48.466085,16.122644 c 0.775263,-0.06424 1.529794,-0.167871 2.274024,-0.02379 0.741097,0.143476 1.742559,0.197989 2.091994,0.867096 0.169665,0.32488 0.357323,1.140144 -0.234914,1.074156 0.598688,0.405956 1.612101,0.660594 1.736198,1.391889 0.165797,0.977036 -0.87118,1.824387 -1.576304,2.520728 -0.656178,0.648004 -1.473734,1.196573 -2.363957,1.437366 -0.674386,0.182413 -1.806017,0.110546 -2.095525,-0.03767 0.523451,-0.230082 1.068291,-0.456193 1.53275,-0.79649 0.810411,-0.593768 1.805243,-1.18088 2.131188,-2.131189 0.10426,-0.303973 0.05203,-0.685028 -0.119782,-0.9566 -0.429011,-0.678114 -1.443308,-0.746276 -2.030326,-1.293357 -0.496313,-0.462547 -0.901794,-1.031833 -1.211549,-1.635429 -0.06661,-0.129795 -0.161465,-0.265196 -0.133797,-0.416713 z"/>
      <path fill="#aaa" d="m 55.994756,20.962504 c -0.781487,0.606576 -1.681891,1.043069 -2.448998,1.664052 -0.699307,0.566098 -1.227139,1.330158 -1.94861,1.867723 -0.40877,0.304573 -1.277799,0.348495 -1.329793,0.755227 0.817717,0.05573 1.679774,-0.04333 2.479363,-0.271037 0.870693,-0.247947 1.798538,-0.543132 2.450295,-1.171463 0.53591,-0.51665 0.956871,-1.238035 1.036311,-1.978182 0.03196,-0.297812 -0.01069,-0.405973 -0.238568,-0.86632 z"/>
      <path fill="#888" d="m 56.801399,23.382434 c -0.06406,1.010365 -0.877485,1.690719 -1.632751,2.207814 -0.753322,0.515765 -1.732007,0.649211 -2.642086,0.721774 -1.090537,0.08695 -2.192747,-0.125742 -3.263031,-0.352289 -0.850826,-0.180093 -1.795438,-0.210567 -2.484959,-0.794999 -0.416499,0.135219 0.442996,0.716407 0.77264,0.962634 0.711527,0.531475 1.596682,0.826129 2.465635,1.009588 1.224056,0.25843 2.534634,0.392786 3.751697,0.103205 0.855991,-0.203669 1.713378,-0.618916 2.323217,-1.253186 0.52124,-0.542122 0.992059,-1.274161 0.992339,-2.026217 8e-5,-0.214574 -0.08031,-0.460813 -0.282701,-0.578324 z"/>
      <path fill="#aaa" d="m 56.801399,26.877888 c -0.389436,1.017172 -1.536999,1.358269 -2.406779,1.891961 -0.577576,0.354398 -1.697337,0.194206 -1.844011,0.855779 -0.129687,0.584958 0.588011,1.189835 1.157888,1.374863 0.791293,0.256918 1.785838,-0.065 2.422562,-0.600473 0.600302,-0.504846 0.865514,-1.373214 0.949371,-2.153086 0.04979,-0.463061 -0.0234,-0.873553 -0.279031,-1.369044 z"/>
      <g id="eye">        
        <path fill="#555" d="m 46.315036,19.886979 c 0.759154,-0.01263 1.632564,-0.335163 2.066393,-0.958272 0.426845,-0.613076 0.558847,-1.5909 0.178681,-2.233964 -0.345703,-0.58477 -1.17977,-0.801837 -1.858178,-0.83688 -0.76416,-0.03947 -1.6079,0.212779 -2.179042,0.72199 -0.37107,0.330833 -0.639631,0.855847 -0.627784,1.35284 0.0107,0.448744 0.294376,0.888847 0.624393,1.193106 0.477944,0.44064 1.145555,0.77199 1.795537,0.76118 z"/>
        <path fill="#fff" d="m 46.66442,19.166811 c 0.472587,-0.108139 0.993704,-0.3473 1.235361,-0.76758 0.193828,-0.337097 0.214796,-0.822001 0.03362,-1.166063 -0.281854,-0.535254 -0.925912,-0.901719 -1.525315,-0.983289 -0.529002,-0.07199 -1.12767,0.124558 -1.529104,0.476519 -0.31156,0.273166 -0.580448,0.718029 -0.521849,1.128219 0.07353,0.514693 0.563815,0.93563 1.025001,1.175677 0.381287,0.19846 0.863272,0.232397 1.282287,0.136517 z"/>
        <path fill="#000" d="m 44.869088,18.282081 c -0.07046,-0.825881 1.268002,-1.583326 2.07073,-1.376759 0.224021,0.05765 0.307796,0.384475 0.320645,0.615438 0.01531,0.275194 -0.08463,0.597122 -0.298353,0.771153 -0.394178,0.320966 -0.999921,0.314396 -1.504237,0.250663 -0.212918,-0.02691 -0.570542,-0.04666 -0.588785,-0.260495 z"/>
      </g>
    </g>
    <g id="legs" fill="#888">
      <path d="m 68.559812,84.114597 -0.191803,1.187077 -1.221812,0.777039 -3.872316,16.427287 0.681138,1.81535 -0.226538,2.15591 -0.444772,1.99886 -0.558804,-1.06475 -0.209934,-2.47005 -1.684714,-0.88124 -1.658282,0.46289 -1.256547,1.74588 -1.038311,1.90296 0.462903,1.65827 -1.309412,-0.94241 -0.497637,-0.68943 0.820076,-2.06002 1.727752,-2.40059 -1.754184,1.05645 -0.567106,1.24824 -0.750607,0.12233 -0.497638,-0.68944 1.038312,-1.90295 1.63185,-1.80705 1.658282,-0.4629 1.815351,-0.68113 4.396386,-14.3937 0.06947,-1.937685 -0.0876,-1.719449 1.003576,-0.934108 1.370578,1.317714 1.152342,1.160645"/>
      <path d="m 82.272727,76.504219 -4.51133,12.735696 -1.455766,1.193023 -1.929525,0.190725 -2.079665,1.704318 -0.491002,1.097662 0.852159,1.039835 -0.150139,1.513582 0.814625,1.418231 1.135195,0.112608 -0.22826,-1.55113 -0.09536,-0.96476 1.247799,-1.022591 1.588662,-0.606658 1.418231,-0.814621 1.346213,3.763687 1.039832,-0.852161 -0.739554,-2.175024 -0.228261,-1.551128 1.077367,-1.230558 -0.05783,-1.343161 -0.05783,-1.343161 3.416721,-9.40518 -1.912284,-1.909234"/>
    </g>
    <path fill="#ddd" d="M 64.867832,84.418445 C 63.775541,77.015765 58.042988,71.58452 52.698925,66.876131 45.840405,61.131701 40.283242,52.781367 40.423526,43.552756 c 0.202738,-3.315199 2.202866,-7.306281 5.93159,-7.479454 3.247255,0.343781 7.505725,1.648549 10.627265,0.890832 3.569434,1.153372 3.682558,-3.872274 6.99698,-3.862272 3.799506,-0.105668 6.371413,3.202723 9.226606,5.206081 12.065316,10.128055 19.382496,24.351994 27.852663,37.336884 1.6606,1.41658 3.79414,6.14715 -0.23183,5.429546 -2.390228,1.079056 -4.639943,3.222904 -7.450638,1.762806 -3.626066,-0.989482 -7.397423,-0.758003 -11.083301,-1.387022 -3.323994,-0.396464 -6.645349,-0.818532 -9.955846,-1.316378 -2.144854,1.760525 -4.069157,6.013442 -7.469183,4.284666 z"/>
    <g fill="none" stroke="#000" stroke-width="0.5">
      <path d="m 60.565735,39.784181 c 0.405494,1.461091 -1.710578,1.631307 -2.804083,1.726304 -0.343177,0.02981 -0.616202,-0.324635 -0.960253,-0.381898 m 21.241608,2.957692 c 0.989025,1.165282 0.664642,3.218891 -0.396605,4.079172 -0.106839,0.08661 -0.273465,-0.02964 -0.410039,-0.04591 M 75.354196,42.20416 c 0.85379,0.781392 1.37931,2.676152 0,3.226577 m -1.613287,-4.033216 c 0.202735,0.778047 0.685416,2.254217 -0.537762,2.41993 m -2.41993,-5.646504 c 0.870531,0.897164 0.772109,2.783317 -0.537762,3.226533 m -1.344406,-4.839859 c 0.311704,1.088592 0.07589,2.863141 -1.344401,2.957695 m -7.424286,4.701225 c 0.984478,1.180604 2.00445,0.347762 2.60776,-0.285213 0.305989,-0.321035 0.160026,-1.26873 0.08105,-1.328033 m -2.255434,4.171852 c 1.521445,0.891279 3.250544,0.47924 3.793227,-0.957675 m 1.315501,2.570933 c 1.266663,0.456752 3.290008,0.521182 3.764375,-1.075524 m -0.806643,1.344405 c 0.919409,0.98275 3.169498,0.112718 2.688808,-1.344408 m -5.108741,3.764336 c 1.665976,0.641657 3.705322,1.803535 5.264854,0.939897 0.718047,-0.39764 1.443571,-1.444561 0.919416,-2.284305 m -16.401748,0.806643 c 1.230026,0.713975 3.077486,0.312262 3.857008,-0.739422 0.174428,-0.235328 0.12823,-0.642418 -0.09269,-0.873868 m -4.033216,-0.537763 c 1.359683,1.03188 3.616022,0.460205 4.468195,-0.78933 0.157859,-0.231468 0.09058,-0.640905 -0.166054,-0.823953 m -5.377622,-0.537762 c 1.543727,1.014602 4.201504,0.365852 4.571044,-1.613279 m -9.410839,-0.806644 c 1.204849,1.196111 3.184867,2.382053 4.64158,1.629238 0.501903,-0.259379 0.927703,-1.120666 0.467161,-1.629238"/>
      <path d="m 63.523427,41.666349 c 6.529976,2.588659 11.265745,8.046773 15.701724,13.251632 7.105178,8.336702 13.190951,18.742154 20.257513,27.114088"/>
      <path d="M 64.061189,80.65411 C 63.806388,80.153733 63.498608,79.676021 63.289421,79.154067 62.91834,78.22816 62.63922,77.26189 62.441821,76.284119 62.285705,75.510834 62.035128,74.734071 62.179086,73.932088"/>
      <path d="m 70.514336,81.191872 c 0.511472,-0.93569 1.070838,-1.848157 1.531356,-2.810529 0.232396,-0.485651 0.611193,-0.930801 0.619664,-1.491576"/>
    </g>
    <g id="wings">
      <path fill="#555" d="m 40.998343,48.995456 c 1.946001,2.746679 5.19012,1.851061 5.980008,-0.04352 2.836402,0.728256 5.242956,2.425142 8.061165,3.305755 5.754926,1.798256 11.795417,2.649687 17.386546,4.899749 2.882501,1.160017 6.24399,0.811644 4.385375,-2.179993 -0.571006,-0.919094 -1.425902,-2.758719 -1.425902,-2.758719 5.452285,4.358056 9.73252,11.636917 13.967897,17.702499 2.175737,3.115923 4.603841,6.132515 6.70957,9.222904 1.28288,1.882767 3.488554,5.695086 -0.07659,5.380345 C 92.966711,84.257886 90.75908,83.580336 87.123551,82.335665 75.641309,78.404571 64.594401,73.19724 54.553251,66.399497 50.451897,63.622928 46.284457,60.515925 43.702603,56.222209 42.366367,54.000001 40.491251,51.87143 40.998343,48.995456 Z"/>
      <path fill="#fff" d="m 55.994756,66.403411 c 6.763304,3.171824 13.403108,6.619795 20.392802,9.294125 4.621944,1.768406 9.581986,3.685017 14.555686,2.830533 0.921616,-0.158334 2.709578,-3.097261 2.26484,-0.809989 -0.477816,2.457388 -3.517698,2.331202 -5.530556,2.020759 -7.154328,-1.10341 -13.732656,-4.25376 -20.222565,-7.260763 -3.923969,-1.818112 -7.633171,-4.06313 -11.460207,-6.074665 z m -5.108041,-5.377973 c 4.179993,2.084916 11.569971,6.093909 15.754752,8.171466 2.473343,1.227904 4.900177,1.804022 7.476506,2.947888 4.783826,2.123977 9.786653,4.502787 15.070295,4.309801 1.954581,-0.07139 3.452815,-3.346224 1.067822,-2.18816 -2.462507,1.195702 -5.174263,0.741665 -7.506264,-0.09803 C 71.857733,70.246432 61.793643,65.168468 50.886715,61.025438 Z m -0.807343,-3.226223 c 10.220928,4.698845 20.297038,9.997949 31.220622,12.855974 2.082819,0.544945 4.554264,1.779887 6.503361,0.443601 2.00552,-1.374968 2.449364,1.803971 0.149054,1.844791 -2.347863,0.04167 -4.524868,-0.566862 -6.747769,-1.044388 C 74.604223,70.481285 68.532978,67.34271 62.387567,64.622791 58.094858,62.722865 53.975908,60.423608 50.079372,57.799215 Z m 1.075524,-1.344405 c 10.304603,4.786253 20.688141,9.685173 31.762596,12.534135 1.660764,0.42724 3.688305,-1.793111 4.240306,-0.945457 1.170576,1.797542 -2.383606,2.366466 -3.871447,2.108455 -4.19959,-0.728264 -8.20952,-2.241771 -12.109669,-3.942386 C 67.480894,64.59805 63.736324,63.103566 60.157231,61.234483 57.145855,59.661874 54.12597,58.102209 51.154896,56.45481 Z m -0.537762,-2.957692 c 7.467272,3.095686 14.927327,6.216075 22.483464,9.086987 2.992828,1.137108 5.989485,2.442555 9.126138,3.020609 0.885496,0.163188 4.263258,-0.142693 2.923141,0.835873 -1.967057,1.436363 -4.667731,-0.04842 -6.82376,-0.678323 -9.372151,-2.738131 -18.360845,-6.85394 -26.862564,-11.681604 -0.29802,-0.16923 -0.56846,-0.383054 -0.846419,-0.583542 z m 22.586013,5.377622 c 5.786832,1.548871 5.588991,0.828864 6.90617,0.628442 0.873369,-0.132892 1.054222,0.929451 -0.342572,1.352921 -0.779661,0.236373 -3.903306,-0.494468 -6.563598,-1.981363 z M 49.272728,51.61495 c 6.344007,1.693826 12.260808,4.598648 18.449598,6.752507 4.142552,1.441715 8.217425,3.152826 12.522167,4.040699 1.714127,0.353546 1.127987,-2.395754 1.894784,-1.245558 0.798217,1.197327 -0.04623,3.194696 -2.815267,2.321376 C 77.150473,62.798468 74.897687,62.19078 72.757892,61.336622 69.601558,60.076683 66.372878,58.997681 63.225847,57.722331 58.520266,55.815369 54.004878,53.462072 49.272728,51.61495 Z"/>
      <path fill="#555" d="m 80.731818,45.699566 c 0.887004,2.611178 2.046868,5.247508 1.915054,8.064579 -0.400439,1.730197 -3.154313,-0.0435 -3.154313,-0.0435 0,0 13.022463,16.656999 19.027823,24.716241 1.509158,2.076141 2.641488,4.648265 4.787088,6.05956 1.94335,1.27827 2.26035,-2.111716 1.27578,-3.450936 -1.65257,-2.24784 -2.89401,-4.770518 -4.26199,-7.203366 C 97.568846,69.226684 95.093498,64.449846 92.389476,59.809882 88.616151,54.476731 84.923395,49.454075 80.731818,45.699566 Z"/>
      <path fill="#fff" d="m 96.595803,70.705509 c 1.035343,1.345207 2.421967,3.182096 3.192963,4.694216 0.655914,1.286419 1.201604,2.148364 0.644264,2.982422 -1.171219,1.752707 0.98105,2.243873 1.46459,1.020111 0.61965,-1.568221 -0.92695,-3.126258 -1.7365,-4.496335 -0.915384,-1.549182 -2.307829,-2.911016 -3.565317,-4.200414 z m -2.968895,-5.6353 c 0.514527,1.574511 1.238541,3.078943 1.677621,4.675955 0.365821,1.330561 0.03124,2.294389 -0.510679,2.239154 0.882996,1.139036 1.927506,-0.121685 1.460533,-1.354359 -0.741248,-1.956684 -1.630161,-3.774741 -2.627475,-5.56075 z M 89.2912,58.213741 c 0.857794,1.603508 1.454497,3.324947 2.18327,4.97266 0.848347,1.918061 1.662845,3.017783 0.304786,3.777762 -1.253955,0.701723 1.210066,1.79581 1.371029,0.29695 0.154672,-1.44027 -0.04556,-2.647049 -0.842314,-4.287796 C 91.505003,61.31977 90.459626,59.642501 89.2912,58.213741 Z m -1.781338,-2.005405 c 0.63818,1.538135 1.670807,2.719634 1.397825,4.351056 -0.148045,0.884765 -0.371962,0.775843 -1.159349,1.430034 -1.448157,1.203182 2.04619,1.097396 1.991458,-0.628858 -0.05065,-1.597649 -1.222977,-3.881729 -2.229934,-5.152232 z m -2.151048,-2.677608 c 0.786558,1.231075 1.457118,2.796291 1.273377,4.209253 -0.10853,0.83459 -1.106089,0.05184 -1.683598,0.638897 -0.514505,0.523008 1.306764,1.681305 2.385869,0.579859 0.808233,-0.824965 0.02774,-3.081806 -1.248258,-4.676111 -0.218087,-0.27249 -0.915126,-1.04573 -0.72739,-0.751898 z m -2.744828,-4.604589 c 0.742395,1.475488 1.548002,2.97618 1.780934,4.621717 0.132149,0.933555 -0.707032,1.078552 -1.11893,2.058002 -0.555216,1.320245 0.763612,1.010256 1.659878,-0.431899 0.912394,-1.468108 -1.19151,-4.935901 -2.321882,-6.24782 z"/>
    </g>
    <g id="tail">
      <path fill="#555" d="m 124.82832,136.58138 -1.61329,-0.26888 -0.53776,1.07552 -0.80664,1.07553 -1.61329,0.53776 -1.3444,-0.26888 -1.07553,0 -1.88217,-0.53776 -1.88216,-2.41993 1.07552,1.61328 -1.61329,-0.26888 -1.3444,-0.80664 -1.34441,-2.41993 -1.61328,0 -0.80665,-0.80664 -0.53776,-1.88217 -1.88217,-0.80665 -1.3444,-0.80664 -0.53777,-1.88217 -2.41993,-0.80664 -14.519576,-44.903145 2.688811,0.806644 4.806307,-0.28799 2.436707,-0.02284 2.436706,-1.033579 4.570975,7.528671 7.25979,11.561886 14.78847,27.69476 1.07552,2.15104 0,1.34441 -0.53776,1.34441 -0.80665,1.07552 0,1.34441 -1.07552,1.07552"/>
      <path fill="#fff" d="M 95.251398,84.687326 119.98846,138.73243 M 98.746852,82.805159 126.44161,132.54816 M 97.940209,83.611802 125.90384,135.50586 125.63496,133.62369 97.940209,83.611802 m -1.613287,1.075524 26.350348,52.162934 0.80664,-1.07552 L 96.326922,84.687326 M 94.175873,84.149564 114.34196,136.3125 m -3.76434,-2.41993 -18.015033,-49.743006 20.703843,52.431816 -2.68881,-2.68881 M 90.9493,83.342921 l 16.13287,46.785309 1.07552,0.80665 L 90.9493,83.342921 m -1.882168,-0.268881 14.250698,43.55874 1.34441,1.07552 -15.595108,-44.63426"/>
    </g>
  </g>
  <pattern id="bird-field" patternUnits="userSpaceOnUse" x="60" y="33" width="240" height="132">
    <use xlink:href="#bird"/>
    <use xlink:href="#bird" transform="translate(120,66)"/>
    <use xlink:href="#bird" transform="translate(0,132)"/>
    <use xlink:href="#bird" transform="translate(240,0)"/>
    <use xlink:href="#bird" transform="translate(240,132)"/>
  </pattern>
</defs>
<use xlink:href="#shield" fill="#0a0"/>
<use xlink:href="#shield" fill="url(#bird-field)"/>
<use xlink:href="#shield" fill="url(#rg)" stroke="#000" stroke-width="3"/>
</svg>
