<svg xmlns="http://www.w3.org/2000/svg" width="600" height="660" xmlns:xlink="http://www.w3.org/1999/xlink">
<defs>
  <radialGradient id="rg" gradientUnits="userSpaceOnUse" cx="220" cy="220" r="405">
    <stop style="stop-color:#fff;stop-opacity:.3" offset="0" />
    <stop style="stop-color:#fff;stop-opacity:.2" offset="0.2" />
    <stop style="stop-color:#666;stop-opacity:.1" offset="0.6" />
    <stop style="stop-color:#000;stop-opacity:.13" offset="1" />
  </radialGradient>
  <clipPath id="clip-shield">
  	<path id="shield" d="m 2 2 v 257 c 0 286 298 398 298 398 c 0 0 298 -112 298 -398 V 2 Z" />
  </clipPath>
  <g id="serpent" style="fill:#24b856;stroke:#003000;stroke-width:1;stroke-linecap:round;stroke-linejoin:round;">
    <g id="body-1">
      <path d="m 147.67637,-23.12669 c 0.3535,1.225812 0.63855,2.470737 0.84391,3.730099 0.97114,5.484763 0.38588,11.3840028 -2.13437,16.9024291 -1.56575,3.42850323 -3.96846,6.3880443 -6.98122,8.6398277 0.0597,0.5750587 0.2698,1.0827017 0.70974,1.354622 -0.98743,-0.00125 -1.87225,0.9703339 -2.3748,2.0008465 -0.50456,1.0345637 -0.69222,2.2739207 -0.008,2.9095347 -1.84959,-0.373 -4.31635,2.995625 -3.19927,4.41454 -0.54235,-0.202121 -1.15892,-0.07488 -1.7325,0.224911 -1.38989,0.711308 -2.73864,2.520681 -2.07344,3.653615 -1.69534,-0.91151 -4.9974,1.671332 -4.30498,3.328891 -1.56041,-1.133762 -5.1693,0.988195 -4.7127,2.715741 -1.38741,-1.332835 -5.24155,0.26935 -5.03613,2.034549 -0.61157,-0.782536 -1.927,-0.86494 -3.05471,-0.58853 -1.12742,0.276348 -2.18584,0.941161 -2.21796,1.871221 -0.50007,-0.886651 -1.8453,-1.159512 -3.02815,-1.036395 -1.16517,0.122289 -2.23243,0.681368 -2.33465,1.590558 -0.82777,-1.828087 -5.12855,-1.416808 -5.3174,0.468598 -0.852924,-1.826306 -5.15324,-1.343183 -5.307713,0.54576 -0.887867,-1.816072 -5.179918,-1.238467 -5.288234,0.653323 -0.932607,-1.796994 -5.206897,-1.099697 -5.25713,0.794614 -0.986965,-1.768761 -5.236171,-0.930411 -5.216329,0.966421 -1.050605,-1.731134 -5.267978,-0.72908 -5.165745,1.170549 -1.123214,-1.683723 -5.300865,-0.49658 -5.103522,1.406485 -1.723508,-1.644089 -5.191294,0.126403 -5.008877,1.704632 -1.32176,-1.563755 -5.325924,0.185302 -4.873443,2.052672 -1.42654,-1.467956 -5.301317,0.55257 -4.721768,2.384557 -1.523857,-1.366575 -5.251297,0.913454 -4.548067,2.701468 -1.613724,-1.259375 -5.176557,1.269835 -4.352969,3.005497 -1.696003,-1.146317 -5.077246,1.620798 -4.136475,3.295816 -1.770467,-1.027214 -4.954154,1.965703 -3.899259,3.571964 -1.837042,-0.902015 -4.805526,2.305014 -3.639366,3.834452 -2.309128,-0.674884 -4.421063,2.817686 -3.288053,4.091736 -0.972855,-0.266678 -2.054993,0.522631 -2.676208,1.606135 -0.621265,1.08353 -0.716587,2.344272 0.04152,2.903703 -1.002794,-0.109496 -1.947428,0.839917 -2.389725,2.00797 -0.442435,1.168354 -0.335937,2.426776 0.502312,2.856392 -1.11402,0.05895 -1.944819,1.382291 -2.09287,2.741666 -0.103977,1.10277 0.249319,2.112299 1.056488,2.365067 -0.980519,0.222842 -1.549983,1.43142 -1.569173,2.682704 -0.01919,1.25121 0.512033,2.40277 1.447323,2.529072 -0.929195,0.385216 -1.290505,1.67251 -1.103159,2.909547 0.187385,1.237287 0.900649,2.28477 1.843991,2.252987 -0.738938,0.463757 -0.949037,1.527018 -0.731764,2.586755 0.28277,1.383758 1.249742,2.595672 2.300937,2.395532 -1.584299,1.378691 0.418655,5.343397 2.27954,4.710781 -1.374903,1.58327 1.154846,5.232545 2.914727,4.352305 -1.147521,1.75577 1.859531,5.02226 3.483778,3.91288 -0.431573,0.90908 0.158135,2.10487 1.110282,2.90304 0.952449,0.79846 2.177783,1.12591 2.87779,0.49067 -0.374267,1.18783 0.864977,2.57528 2.256863,3.08325 0.848283,0.32789 1.690948,0.29517 2.151857,-0.26057 -0.165886,0.99721 0.724239,2.00162 1.855656,2.5239 1.13099,0.52207 2.394679,0.514 2.888776,-0.28908 -0.02383,1.01182 0.998743,1.88141 2.192044,2.24066 0.729218,0.21953 1.478566,0.23529 2.037771,0.0183 -0.405422,-0.57228 -0.590097,-1.21454 -0.385642,-1.79018 -0.719059,0.60848 -1.92484,0.22768 -2.837604,-0.62481 -0.912425,-0.8523 -1.431645,-2.08532 -0.947569,-2.96851 -0.807759,0.48625 -1.939113,-0.0815 -2.705394,-1.06752 -0.766318,-0.98602 -1.083492,-2.28489 -0.466014,-3.07934 -0.874334,0.35185 -1.900984,-0.38758 -2.499911,-1.48232 -0.599065,-1.09512 -0.703067,-2.42597 0.03437,-3.10853 -0.918608,0.20518 -1.81079,-0.68972 -2.221217,-1.86863 -0.410602,-1.179438 -0.290006,-2.509264 0.554151,-3.056654 -0.913291,0.0449 -1.628524,-0.929558 -1.852395,-2.123988 -0.233427,-1.274476 0.133001,-2.627179 1.094718,-3.013248 -0.934137,-0.134643 -1.448339,-1.294192 -1.394181,-2.553705 0.01831,-0.425803 0.105858,-0.839917 0.245669,-1.213319 -0.331121,-0.77733 -0.622582,-1.568834 -0.858794,-2.374172 -0.804285,-2.757131 -1.042654,-5.694786 -0.509462,-8.367619 0.506238,-2.979308 2.10298,-5.977493 4.27389,-8.630082 7.326696,-8.790036 17.39719,-15.701527 28.758378,-19.376427 11.501073,-3.814648 24.122213,-4.86874 37.722921,-6.031676 12.94299,-1.103221 25.26351,-7.21404 34.16846,-16.945211 4.24741,-4.585481 7.70157,-10.140305 9.78188,-16.425389 2.04288,-6.2616164 2.45019,-13.0774586 0.99167,-19.6991813 -1.11004,-5.1446237 -3.46526,-10.0163867 -6.86326,-14.1179927 z"/>
      <path style="fill:none;" d="m 144.39157,0.9870447 c -0.16401,2.153601 -0.58342,4.284726 -1.24056,6.3201019 -1.4708,4.6019624 -4.14029,8.8369074 -7.42457,12.4282494 -6.83767,7.476967 -15.80768,12.444303 -28.15063,13.625501 -12.34291,1.181222 -26.087464,2.284669 -39.035184,6.492359 -13.533126,4.444793 -25.135944,12.626006 -33.596791,22.794094 -3.244881,3.876268 -5.567542,8.513776 -6.514547,13.508078 -0.822446,4.535098 -0.460647,9.12946 0.82508,13.344751 2.547823,8.363568 8.258838,15.299921 15.338473,19.529371 0.656672,0.40164 1.326188,0.78072 2.004722,1.14075 m -22.565958,-133.287307 0.01819,0.01129 0.0013,-0.0088 c -0.0063,-0.001 -0.01292,-0.0025 -0.01944,-0.0038 z m 10.055393,5.834647 c -0.155401,0.175845 -0.353383,0.293568 -0.578821,0.366202 l 0.560007,0.366201 c -0.04829,-0.255715 -0.05017,-0.50388 0.01894,-0.732403 z"/>
    </g>
    <g id="body-2">
      <path d="m 133.41387,-17.360111 c -0.25988,-1.25146 -0.094,-2.685062 0.62806,-3.228426 -0.92046,0.127243 -1.787,-0.786424 -2.32363,-1.770743 -0.53425,-0.979954 -0.86328,-2.248873 -0.34416,-3.077415 -0.4796,0.231897 -1.04467,0.129689 -1.58019,-0.123794 -1.22108,-0.606916 -2.78125,-2.303019 -2.50704,-3.63287 -0.63476,0.66485 -1.86929,0.480991 -2.89853,0.03374 -1.03106,-0.448091 -2.08307,-1.25955 -2.1888,-2.244546 -0.23031,0.477353 -0.73064,0.740343 -1.30537,0.856863 -1.36023,0.29555 -3.34451,-0.26649 -3.93684,-1.40779 -0.18354,0.08504 -0.36722,0.170113 -0.54768,0.259917 -0.22122,0.192652 -0.50887,0.333115 -0.82771,0.43491 -2.92229,1.614401 -5.40135,3.858019 -7.22631,6.454281 -2.87577,4.091283 -4.25,8.761627 -4.04541,13.375705 0.20458,4.6140658 1.66755,8.8600481 4.16563,12.4470127 2.45186,3.5986039 5.98931,6.4998853 10.31368,8.214438 4.80737,1.7597683 9.88737,1.7671053 14.47685,0.189416 5.91224,-2.090663 10.59937,-6.3958332 13.11959,-11.9142595 2.52025,-5.5184262 3.10511,-11.4182312 2.13393,-16.9029932 -0.95862,-5.878934 -3.55151,-11.469981 -7.59081,-16.0483 -4.55039,-5.04806 -10.59476,-8.413424 -17.14433,-9.698774 -5.1307,-1.090554 -10.87545,-1.476974 -16.85454,-0.33363 -4.56508,0.91585 -8.967145,3.02263 -12.674593,6.301314 -6.691672,6.514158 -9.241225,14.845291 -10.864017,22.25014 -1.38648,6.326774 -3.27531,13.9421847 -10.525823,15.8141702 -7.979017,2.06007196 -12.758229,-2.3521856 -15.629208,-6.0243259 -1.51292,-1.9350866 -2.791484,-4.8806803 -4.587162,-8.4153303 -1.777942,-3.837337 -4.463844,-7.892035 -8.549446,-11.346614 -5.911156,-4.449822 -12.511494,-6.415713 -18.509518,-7.10477 l -1.920061,13.580687 c 0.163002,0.984971 1.323392,1.666114 2.528671,1.891339 1.186189,0.221675 2.434627,0.0063 2.820708,-0.854354 0.121788,1.02325 1.216568,1.802952 2.258419,2.215523 1.021808,0.404619 2.21916,0.554828 2.808931,-0.112631 -0.500331,1.657773 2.420404,4.308669 3.919616,3.922036 -0.819123,1.231405 0.743039,4.6481306 2.39424,4.7520698 -0.99118,1.0745617 1.065343,5.0776345 2.512792,4.6727016 -0.428764,0.628201 -0.173237,1.9494852 0.439236,3.00445561 0.620325,1.06841589 1.589141,1.79852433 2.430024,1.4047918 -0.261334,0.39839832 -0.307302,0.92307399 -0.194132,1.47519259 0.424637,1.6437505 2.540887,3.1405913 3.644861,2.4873054 -0.388967,0.8221825 0.266903,1.9037805 1.258446,2.6523389 0.986075,0.7444319 2.212225,1.1073978 2.788124,0.6879282 -0.181327,0.7514432 0.677217,1.6513387 1.782382,2.2335591 1.098204,0.578546 2.325759,0.79938 2.738643,0.408181 -0.133138,1.062007 3.793965,2.994798 4.778999,1.844769 0.190821,0.563419 1.331657,1.114735 2.549328,1.333551 1.214874,0.218301 2.400524,0.08679 2.622137,-0.379435 0.296666,0.525491 1.520571,0.840746 2.758046,0.815385 1.234027,-0.02534 2.373847,-0.38543 2.50247,-0.873594 0.916213,0.959522 4.832166,0.131658 4.976554,-1.186328 0.487124,0.351114 1.733266,0.127507 2.845067,-0.421263 1.109316,-0.547515 1.980465,-1.366173 1.881379,-1.8705178 1.215175,0.1959507 4.021874,-1.3506962 3.998721,-3.1746064 0.591326,0.1072379 1.680425,-0.6059884 2.497941,-1.5324489 0.820176,-0.9294706 1.289916,-1.9987018 0.874861,-2.4619069 0.711533,0.045404 1.732438,-0.8055889 2.401051,-1.83834662 0.670382,-1.03547942 0.932142,-2.18543378 0.357573,-2.62824488 0.811948,-0.013797 1.748329,-0.9791262 2.263862,-2.0937109 0.516836,-1.1173565 0.57265,-2.3217074 -0.142295,-2.7368374 0.892421,-0.070112 1.728525,-1.1264623 2.086487,-2.298529 0.358902,-1.1751392 0.212055,-2.4074852 -0.624677,-2.7876972 0.905628,-0.117773 1.602586,-1.13992 1.836666,-2.278034 0.324687,-1.211751 0.160293,-2.546607 -0.730936,-2.944365 1.000875,-0.122665 1.754902,-1.218286 2.086486,-2.341788 0.329039,-1.114999 0.274153,-2.363512 -0.515532,-2.853758 0.35455,0.0025 0.693409,-0.121286 1.003499,-0.322705 0.71978,-0.467194 1.3274,-1.381375 1.65241,-2.241386 0.32021,-0.847317 0.41825,-1.769877 -0.0872,-2.327803 1.8755,0.311053 4.69163,-1.837794 4.34565,-3.566533 0.86639,0.834788 2.74163,0.585858 3.95388,9.91e-4 0.71246,-0.357522 1.31327,-0.875927 1.36926,-1.555915 0.44657,0.8645 1.70137,1.227491 2.83216,1.239808 1.14655,0.01254 2.35698,-0.339273 2.64609,-1.238165 0.33185,1.37272 2.58042,2.07807 4.07252,1.75386 0.57474,-0.116519 1.07547,-0.379183 1.30577,-0.856536 0.10573,0.984996 1.15747,1.796016 2.18853,2.244107 1.02925,0.447289 2.26384,0.631362 2.8986,-0.03349 -0.27424,1.329851 1.286,3.025615 2.50709,3.632531 0.53551,0.253483 1.10028,0.355942 1.57991,0.124045 -0.51911,0.828529 -0.18962,2.097386 0.34466,3.07734 0.53664,0.984319 1.40304,1.898036 2.3235,1.770793 -1.37516,1.034865 -0.7496,5.306634 1.03906,5.377436 -1.24421,0.432727 -2.02546,4.526444 -0.83853,5.4460944 -1.85963,0.235798 -3.62452,3.495643 -2.92892,4.6955539 -1.80376,-0.8157608 -4.88752,0.3538099 -5.28044,1.923259 -0.83766,-1.5380177 -3.88425,-3.131034 -5.21794,-2.4250196 0.54902,-1.7776663 -1.10955,-4.8335957 -2.34902,-5.0309017 1.21544,-0.695654 1.33451,-4.61838 0.93274,-5.339031 1.11257,0.187547 3.96434,-2.226862 4.01051,-3.568578 0.9617,1.109217 4.61436,0.891204 5.46938,-0.360131 0.0977,1.64582 3.1063,2.911014 4.53506,2.509669 z m -47.295492,124.900811 c 0.764224,-0.99875 1.011323,-2.24144 0.329302,-2.88791 0.976141,0.23026 2.019911,-0.60631 2.578451,-1.73161 0.558979,-1.12618 0.559569,-2.39011 -0.236801,-2.88828 1.002756,0.0337 1.863845,-0.99074 2.186901,-2.207483 0.323395,-1.217897 0.06397,-2.457204 -0.824816,-2.77883 0.172295,-0.03048 0.334206,-0.09143 0.484866,-0.17883 0.790073,-0.46165 1.227153,-1.633277 1.193075,-2.766563 -0.03412,-1.133574 -0.531825,-2.109778 -1.380535,-2.238476 0.937448,-0.369111 1.321435,-1.654048 1.14263,-2.899914 -0.178868,-1.24618 -0.894804,-2.289624 -1.835174,-2.246804 1.522277,-0.976843 0.666293,-4.312332 -0.947469,-4.874986 v 0 c -0.238168,-0.08027 -0.482683,-0.09482 -0.726421,-0.03223 0.719648,-0.703531 0.554126,-2.033031 -0.131984,-3.099038 -0.686072,-1.065908 -1.785367,-1.707341 -2.623454,-1.272018 0.541019,-0.848158 0.08479,-2.109627 -0.818219,-2.998285 -0.903432,-0.889171 -2.114857,-1.27203 -2.83359,-0.659394 0.3139,-0.882135 -0.288739,-1.925403 -1.252877,-2.605844 -1.112365,-0.78004 -2.517056,-0.955396 -3.1208,-0.146634 0.11815,-1.000674 -0.835741,-1.940981 -2.024664,-2.358883 -1.18836,-0.417701 -2.446079,-0.258111 -2.843474,0.597472 -0.09031,-1.003521 -1.215839,-1.730945 -2.463738,-1.90215 -1.24786,-0.171229 -2.449339,0.234494 -2.66912,1.152137 -0.287912,-0.966195 -1.53551,-1.456743 -2.792075,-1.377424 -1.257192,0.07939 -2.352361,0.715772 -2.38373,1.657798 -0.474782,-0.888206 -1.794485,-1.118799 -3.00956,-0.784631 -1.216179,0.334507 -2.15552,1.185149 -1.987301,2.114431 -0.332814,-0.393381 -0.847781,-0.575334 -1.433865,-0.57334 -1.755504,0.01003 -3.71486,1.624974 -3.169125,2.94439 -0.800096,-0.613389 -2.099468,-0.277326 -3.071922,0.526845 -0.972428,0.804184 -1.484474,1.962542 -0.95374,2.739748 -0.909578,-0.436026 -2.115999,0.155965 -2.906136,1.139744 -0.7905,0.984244 -1.055095,2.220453 -0.373865,2.869988 -0.961642,-0.23349 -2.001536,0.555656 -2.579718,1.652957 -0.572149,1.156502 -0.561099,2.470912 0.261535,2.972861 -1.004023,-0.02258 -1.842184,1.018961 -2.141673,2.243393 -0.299464,1.224431 -0.02195,2.46444 0.865993,2.783344 -0.98852,0.180925 -1.60606,1.369285 -1.660281,2.628333 -0.05418,1.259488 0.460245,2.419275 1.394406,2.553906 -0.961742,0.386082 -1.328107,1.738346 -1.094654,3.012859 0.22387,1.19443 0.939078,2.168915 1.852369,2.124013 -0.844132,0.54739 -0.964953,1.877053 -0.554364,3.056488 0.410439,1.1789 1.302897,2.07388 2.221493,1.86869 -0.737445,0.68256 -0.633569,2.01359 -0.03449,3.1087 0.598889,1.09471 1.625438,1.83424 2.499772,1.48239 -0.617477,0.79445 -0.300191,2.09328 0.466153,3.07932 0.766281,0.98596 1.897497,1.55393 2.70523,1.06766 -0.484038,0.88319 0.03499,2.11623 0.947432,2.96852 0.912764,0.85253 2.118821,1.23303 2.837867,0.62454 -0.336953,0.94864 0.371582,2.08245 1.409445,2.77622 1.038364,0.6941 2.289222,0.87178 2.897644,0.15301 -0.380939,1.52845 2.814237,3.74091 4.740606,2.15668 -0.0063,1.00627 1.033849,1.84357 2.232267,2.17055 1.198218,0.32693 2.445226,0.11527 2.811315,-0.75337 0.130655,0.99757 1.273221,1.68849 2.504024,1.85336 1.230816,0.16485 2.438353,-0.20974 2.685251,-1.11934 0.262626,0.9716 1.48707,1.50561 2.728885,1.50631 1.241966,0 2.388546,-0.53066 2.511299,-1.46516 0.453636,1.07865 2.108486,1.39219 3.469116,1.01453 0.978462,-0.27719 1.730344,-0.88803 1.729717,-1.68046 0.508696,0.86706 1.82761,1.05835 3.022579,0.73874 1.194493,-0.31948 2.170044,-1.12269 2.057714,-2.05836 1.25659,1.65399 5.35042,-0.004 4.901915,-1.89868 1.436198,1.50229 5.318662,-0.59724 4.6687,-2.42856 0.458954,0.38587 1.111211,0.45261 1.786233,0.29193 1.602272,-0.37905 3.176352,-1.98146 2.616092,-3.18611 1.69742,1.1709 5.08935,-1.60783 4.12458,-3.27966 1.79065,1.01496 4.93018,-2.04471 3.82443,-3.62958 1.87042,0.85728 4.73959,-2.45863 3.50394,-3.94603 1.93653,0.69726 4.51766,-2.849109 3.16301,-4.229017 1.98872,0.534447 4.26474,-3.21577 2.8017,-4.478669 2.02666,0.368622 3.98113,-3.558193 2.42,-4.694852 1.11015,0.108116 2.13526,-1.070987 2.52782,-2.359297 0.31267,-1.003521 0.25934,-2.055695 -0.43085,-2.530978 1.98086,0.122665 3.73384,-3.744887 2.31683,-4.882976 1.94907,0.260908 4.00427,-3.400358 2.74893,-4.65814 1.86017,0.455667 4.37361,-2.861158 3.31767,-4.286206 1.09772,0.344303 2.43204,-0.502388 3.07756,-1.137888 0.76572,-0.772113 1.3049,-1.79416 0.92948,-2.587056 0.83206,0.538096 2.11161,0.209434 3.10119,-0.31114 0.97851,-0.529568 1.89455,-1.379946 1.77919,-2.294854 0.99463,1.217959 4.03722,0.837421 5.07233,-0.146722 0.2027,-0.194797 0.3601,-0.426155 0.43002,-0.698539 0.44647,1.322488 3.04478,2.329195 4.28461,2.339781 0.38077,-0.0075 0.74501,-0.08993 1.0325,-0.31691 -0.29848,0.892082 0.23206,2.094012 0.88073,2.965925 0.68367,0.918998 1.6796,1.694071 2.57145,1.387935 -0.0745,0.08905 -0.13745,0.185239 -0.18955,0.287059 -0.79455,1.564081 0.81679,4.908587 2.49271,4.629706 -1.43298,1.235682 -0.21321,5.282879 1.66268,5.142379 -1.60643,1.138591 -0.5231,5.300438 1.3825,5.187443 -0.15525,0.105357 -0.28577,0.237216 -0.39312,0.389769 -0.53654,0.745699 -0.47037,1.998175 0.0322,3.019218 0.50278,1.021307 1.36924,1.675697 2.18438,1.419304 -0.68791,0.74467 -0.46619,2.075963 0.28117,3.109825 0.74826,1.03504 1.88894,1.592615 2.68558,1.086916 -0.5012,0.948761 0.15993,2.268765 1.26413,3.054224 0.98307,0.682133 2.13036,0.826284 2.72009,0.16255 -0.20674,0.987191 0.67631,2.002728 1.8589,2.489387 1.18249,0.486622 2.45104,0.36052 2.86993,-0.487525 0.0903,1.461638 2.34703,2.300028 3.92044,1.812078 0.62113,-0.19141 1.06481,-0.57261 1.17074,-1.112234 0.32451,0.957884 1.60052,1.394034 2.8669,1.224864 1.26738,-0.16931 2.30216,-0.911366 2.23904,-1.854859 0.46678,0.702239 1.48435,0.887278 2.51066,0.626282 1.02695,-0.261171 1.93911,-0.940708 2.21432,-1.708883 0.10448,-0.291399 0.11326,-0.587639 0.01,-0.873293 0.76957,0.655568 2.0995,0.37014 3.09495,-0.470242 0.99885,-0.843229 1.43762,-2.04985 0.84732,-2.791234 0.94015,0.380563 2.10096,-0.324686 2.73632,-1.4664 0.63919,-1.148562 0.58161,-2.430112 0.0726,-2.771593 -1.15969,1.621902 -3.84976,4.247312 -8.0307,5.59994 -2.56923,0.835302 -5.77499,1.213846 -9.16555,0.537908 -2.6756,-0.54428 -5.55774,-1.798512 -7.74321,-3.933751 -2.0615,-1.948431 -3.56525,-4.829745 -4.12742,-8.102772 -0.83955,-4.948711 -1.9428,-11.353399 -4.79639,-17.439434 -1.2106,-2.619578 -3.03522,-5.359714 -5.76304,-7.678499 -2.74639,-2.2162 -6.16963,-3.564489 -9.83242,-3.746768 -3.91653,-0.190256 -7.93953,0.577981 -11.66361,2.348774 -3.48047,1.682896 -6.54652,4.012831 -9.15743,6.732623 -5.04966,5.254809 -8.80727,11.544872 -11.76162,18.332381 -4.14506,9.223202 -11.24056,18.21083 -20.886307,23.85603 -4.180837,2.43649 -8.832918,4.26171 -13.581188,4.81504 -4.530583,0.56176 -9.358799,-0.006 -13.737355,-1.77896 -6.009751,-2.3903 -11.348682,-8.58147 -12.104641,-15.248178 -0.339323,-2.862425 -0.01267,-5.853046 1.232822,-8.126102 1.116655,-2.36321 3.530787,-4.38874 6.306594,-5.64089 3.409288,-1.567229 8.299388,-1.122223 11.637034,1.07998 1.630154,1.066509 3.025753,2.646356 3.778061,4.386156 1.014484,2.030046 1.152425,4.802604 0.824465,7.698053 -0.352405,4.086957 -4.074953,8.318261 -8.404794,9.942541 -3.14961,1.38791 -6.980675,1.3548 -10.880373,0.37902 2.120075,2.4507 4.792143,4.40809 7.611234,5.52936 4.378556,1.77268 9.206269,2.34094 13.736853,1.77915 1.3224,-0.15408 2.636861,-0.41082 3.936196,-0.74795 0.122163,-0.44675 0.08755,-0.87932 -0.159954,-1.22759 0.913103,0.41334 2.096182,-0.20976 2.860105,-1.20824 z"/>
      <path style="fill:none;" d="m 195.9912,89.402774 c -1.71862,3.222481 -4.14737,5.858502 -7.21391,7.391077 -2.45663,1.227454 -6.04798,2.313053 -10.35598,1.937946 -2.89619,-0.249695 -6.67799,-1.261168 -10.03981,-3.957105 -2.71759,-2.198603 -5.20047,-5.662112 -6.28393,-10.204561 -1.04307,-4.280298 -2.45983,-10.777587 -5.18763,-15.812051 -1.0986,-2.014166 -2.50809,-4.074238 -4.39139,-5.478892 -1.66485,-1.278213 -3.86921,-2.065026 -6.18717,-2.101914 -2.75192,-0.05029 -5.67883,0.591841 -8.38872,1.983827 -2.50496,1.275454 -4.81734,3.166454 -6.97088,5.497568 -4.0335,4.367318 -7.11324,9.863782 -9.85518,16.437254 -4.18014,10.111898 -11.85233,20.880387 -23.595883,28.146127 -4.85409,3.00686 -10.573597,5.38277 -16.843792,6.28525 -5.891088,0.83355 -12.237541,0.24874 -18.256361,-2.0563 -8.861629,-3.41567 -16.55765,-11.74132 -18.193925,-22.427235 -0.682522,-4.500757 -0.141667,-9.386555 2.023649,-13.805623 2.30253,-4.543088 6.232894,-8.157545 10.962463,-10.255696 6.551999,-2.895324 14.58037,-2.432131 20.991443,1.64804 3.20763,2.045987 5.874268,5.015336 7.53322,8.607456 1.868172,4.176133 2.339053,8.788907 1.725828,13.206771 -0.976354,6.804757 -5.156903,12.911797 -11.231298,16.480837 m 55.883976,-132.675141 c -2.70198,-1.235983 -5.98272,-1.653973 -8.4341,-1.081611 -2.47346,0.577517 -4.83549,2.309278 -6.50147,4.587413 -1.31516,1.810565 -2.0049,4.193354 -1.90188,6.494906 0.0849,2.260287 0.90122,4.5749331 2.23731,6.5135315 1.32527,1.8822827 3.16479,3.4479064 5.21427,4.2025478 2.10521,0.84886037 4.69816,0.80378281 7.02422,0.032234 l 6e-5,-2.51e-5 c 2.85707,-0.9166021 5.38989,-3.2923173 6.71691,-6.1542656 1.4663,-3.0525186 1.75894,-6.8041146 1.1923,-10.4604146 -0.64019,-3.854256 -2.35339,-7.607559 -4.96238,-10.524543 -2.76885,-3.152344 -6.77822,-5.359213 -11.0565,-6.210393 -4.28524,-0.807257 -8.59104,-1.203273 -12.49584,-0.349395 -2.80735,0.593057 -5.49661,1.831385 -7.52663,3.697438 -4.179562,3.515774 -6.071879,9.657346 -7.413858,16.090217 -1.23444,7.188579 -4.417739,14.64853862 -10.470235,20.0287973 -2.763164,2.3982164 -6.175525,4.1295383 -9.936591,4.8375344 l -1.38e-4,2.51e-5 c -4.205759,0.7170392 -8.397696,0.1621742 -12.148753,-1.2346284 -4.890401,-1.7308328 -9.587535,-4.7064157 -13.087781,-9.09153145 -2.631933,-3.46295735 -4.228549,-7.09930145 -5.784991,-10.32863095 -1.56156,-3.057497 -3.251329,-5.875873 -5.54597,-7.607697 -3.30713,-2.790556 -8.115114,-3.988586 -13.202143,-4.809125"/>
    </g>
    <g id="head">
      <path id="tooth" style="fill:#ffffff;stroke:#444444;" d="m -7.3198245,-21.854609 c 0.5499738,2.589865 1.5151905,5.341816 4.8591075,6.024376 -1.6901576,-1.29127 -2.9380434,-3.949166 -1.6965919,-6.697304"/>
      <path id="tongue" style="fill:#ff0000;stroke:#990000;" d="m -7.2025902,-8.5441371 c -2.1683384,0.6829488 -5.1163028,0.1587874 -7.0232818,-1.2174955 -0.976455,-1.0353794 -1.191119,-2.4854364 -1.023225,-3.7976904 -1.150745,1.008325 -0.829871,2.997545 -0.436678,3.9221492 -0.882775,0.3752825 -2.111032,0.6319387 -3.675665,0.2420065 0.85103,1.5254501 3.545499,1.2756798 4.567245,0.7946142 2.280229,1.5571324 5.4080775,2.135565 7.9884604,1.3228269 4.9202017,-1.5496947 9.0061173,-6.6131438 16.9984416,-6.9889778 1.881417,-0.08842 3.95876,0.27572 5.991966,0.418892 0.884468,0.06309 0.977684,-1.264191 0.09306,-1.325285 -1.933569,-0.136161 -2.232719,-1.292424 -9.3628999,-0.267568 -5.2592366,0.755933 -9.8355118,5.5478635 -14.1174283,6.8965279 z"/>
      <path d="m 35.808136,-23.156553 c -7.814974,2.45171 -3.892838,6.513256 -14.606572,9.101252 -6.016725,1.453393 -10.600914,5.7973324 -13.6172728,8.3601558 -0.7683127,0.6527843 -4.2921636,1.2546838 -2.514234,-0.5024379 2.5601018,-2.5301629 5.1731578,-5.3286469 7.2253528,-7.9755299 0.637408,-0.822107 -0.94718,-7.962472 -2.270521,-8.365436 -2.5480238,-0.775888 -5.9429509,-0.120408 -8.8000202,0.56298 -1.00389759,0.240113 -2.3235763,0.181477 -5.9339702,0.966546 -1.8254028,0.396944 -2.4904284,0.650615 -3.5178807,0.366779 -0.3806006,-0.105106 -1.7002793,-0.492517 -2.0950779,-1.134753 -0.820703,-1.335068 -2.177131,-3.506241 -2.112336,-4.257847 0.12141,-1.408881 0.713025,-1.788415 2.014806,-2.340747 2.4815107,-1.052876 4.3659131,-1.000913 7.0222406,-2.044444 3.39125214,-1.332247 5.6793458,-2.943939 7.6740842,-4.622231 0.8028923,-0.675536 1.9820956,-0.804648 3.6224095,-1.377575 0.7735179,-0.270164 1.8066519,-0.50975 2.5902037,-0.391688 0.988533,0.148942 1.262548,0.475861 3.357764,0.554439 5.943615,0.222942 6.016198,-2.096721 11.792623,0.977784 5.009416,2.666261 5.892153,0.765378 13.772724,5.413835"/>
      <path id="nostril" style="fill:#003000;stroke:none;" d="m -8.2373171,-25.343128 c 0.5711204,-0.174278 1.0148095,-0.486585 1.6479648,-0.349558 0.8793134,0.190294 0.9099546,-1.172054 0.034115,-1.140309 -0.5130865,0.01856 -1.1903661,0.24331 -1.7209619,0.34868 -0.5305957,0.105356 -0.6642605,1.355763 0.038882,1.141187 z"/>
      <g id="eye">
        <path style="fill:#ffffff;" d="m 10.313884,-33.270762 c 0.499561,0.817531 0.214386,2.867742 -1.1543937,3.749892 -1.390386,0.854266 -3.3904093,0.173227 -3.917892,-0.622679 -0.4933491,-0.866964 0.7541616,-1.38745 2.1445487,-2.241721 1.411998,-0.826366 2.4065338,-1.730872 2.927737,-0.885492 z"/>
        <path style="fill:#003000;stroke:none;" d="m 8.5834048,-31.52498 a 1.3362789,1.2802038 52.229438 0 1 -0.1827548,1.837004 1.3362789,1.2802038 52.229438 0 1 -1.8244448,-0.281717 1.3362789,1.2802038 52.229438 0 1 0.1827481,-1.836995 1.3362789,1.2802038 52.229438 0 1 1.8244515,0.281708 z"/>
        <path style="fill:#000000;stroke:none;" d="m 7.1631015,-31.227531 c -0.2508963,0.194407 -0.3505895,0.583969 -0.1129752,0.890619 0.2376189,0.306652 0.6397204,0.307391 0.8906233,0.112976 0.3066488,-0.237617 0.4063434,-0.627164 0.1687302,-0.933819 -0.2376235,-0.306652 -0.639725,-0.307392 -0.9463783,-0.06978 z"/>
        <path style="fill:#ffffff;stroke:none;" d="m 7.3617517,-31.604535 c -0.1672512,0.129636 -0.204923,0.426483 -0.053717,0.621624 0.1727711,0.223047 0.4480831,0.232811 0.6153513,0.103196 0.223044,-0.172769 0.2822822,-0.441802 0.1094728,-0.664829 -0.1512165,-0.195139 -0.4480835,-0.232798 -0.6711074,-0.05999 z"/>
      </g>
    </g>
  </g>
</defs>
<use id="shine" style="fill:#000000;" xlink:href="#shield" />
<g clip-path="url(#clip-shield)">
  <use xlink:href="#serpents" transform="translate(-30,-180)" />
  <g id="serpents">
    <use xlink:href="#serpent" transform="translate(-180,-60)" />
    <use xlink:href="#serpent" transform="translate(0,0)" />
    <use xlink:href="#serpent" transform="translate(180,60)" />
    <use xlink:href="#serpent" transform="translate(360,120)" />
    <use xlink:href="#serpent" transform="translate(540,180)" />
  </g>
  <use xlink:href="#serpents" transform="translate(30,180)" />
  <use xlink:href="#serpents" transform="translate(60,360)" />
  <use xlink:href="#serpents" transform="translate(90,540)" />
</g>
<use id="shine" fill="url(#rg)" stroke="#000" stroke-width="3" xlink:href="#shield" />
</svg>
