<?xml version="1.0" encoding="UTF-8"?>
<svg xmlns="http://www.w3.org/2000/svg" xmlns:xlink="http://www.w3.org/1999/xlink" width="600" height="660">
<defs>
  <radialGradient id="rg" gradientUnits="userSpaceOnUse" cx="220" cy="220" r="405">
    <stop style="stop-color:#fff;stop-opacity:.3" offset="0"/>
    <stop style="stop-color:#fff;stop-opacity:.2" offset=".2"/>
    <stop style="stop-color:#666;stop-opacity:.1" offset=".6"/>
    <stop style="stop-color:#000;stop-opacity:.13" offset="1"/>
  </radialGradient>
  <path id="shield" d="m2,2v257c0,286 298,398 298,398c0,0 298-112 298-398V2z"/>
</defs>
<use xlink:href="#shield" fill="#774411"/>
<use xlink:href="#quill" transform="translate(600)scale(-1,1)"/>
<g id="quill" style="stroke-miterlimit:40;" transform="translate(50)">
    <path style="fill:#dddddd;stroke:#774411;stroke-width:1;" d="m 389.78,89.929 c -3.52,18.601 -28.8,52.161 -45.56,77.611 11.64,-25.01 30.14,-45.84 33.97,-75.585 -21.07,12.785 -41.04,24.295 -78.13,58.145 -1.33,16.03 -9.63,36.59 -17.25,56.59 4.43,-17.41 9.76,-35.23 6.24,-49.69 -13.52,13.18 -28.82,29.8 -53.17,61.33 4.35,10.43 1.61,24 -1.51,37.66 -1.88,-10.22 -0.47,-25.9 -5.52,-30.9 -7.42,11.67 -10.47,12.41 -30.44,56.99 3.96,6.28 8.43,12.24 9.03,24.6 -3.05,-8.32 -6.66,-15.71 -13.29,-18.12 -8.91,13.06 -15.8,28.63 -20.2,44.43 6.99,3.92 10.69,13.3 14.01,22.77 -4.09,-7.67 -9.04,-13.92 -17.1,-15.58 -3.87,12.23 -8.16,21.94 -10.89,44.58 8.3,1.8 12.28,10.71 17.12,18.19 -5.76,-5.45 -10.56,-11.94 -19.64,-11.94 -4.11,13.7 -7.38,27.59 -5.82,44.75 l 18.24,18.53 22.45,-7.09 c 0.78,-10.86 4.25,-21.39 13.87,-41.48 -5.39,-2.3 -12.53,-1.77 -19.85,-0.39 11.07,-9.15 15.47,-6.8 21.79,-8.13 2.1,-7.17 14.46,-27.51 21.62,-40.34 -6.47,0 -15.12,4.1 -24.23,8.94 7.41,-8.46 16.41,-12.06 25.35,-15.05 l 21.48,-34.26 c -6.34,-2.88 -16.29,0.14 -25.23,1.52 12.15,-5.59 24.43,-11.41 31.83,-9.18 l 29.13,-35.11 c -8.54,-1.95 -17.89,-3.1 -27.95,-3.05 13.84,-5.2 23.75,-3.38 33.29,-1.48 l 39.66,-24.17 c -7.64,-9.83 -21.03,-10.19 -31.69,-15.05 13.33,2.59 28.35,1.36 38.97,11.06 l 65.39,-22.8 c -14.85,-11.3 -33.87,-15.73 -52.87,-20.16 22.97,1.66 44.41,5.3 63.7,12.48 z"/>
    <path style="fill:#ffffff;" d="m 335.06,182.06 c 35.79,-19.92 80.05,-148.897 60.2,-62.23 0,0 -11.84,10.95 -16.49,17.52 -6.37,9.4 -15.3,25.69 -13.37,36.91 l 2.35,13.74 -0.79,5.03 c -8.49,-2.57 -18.96,0.79 -32.51,2.28 l 32.65,14.01 13.44,12.61 -17.11,4.6 -42.11,-16.53 36.22,18.77 -16.28,5.99 c -7.28,-6.69 -32.47,-10.02 -55.66,-7.59 l 38.74,16.76 -8.67,5.74 -28.63,-8.34 25.91,9.6 -9.87,6.64 -27.27,-6.85 23.56,8.16 -7.26,6.6 c -10.09,-4.19 -25.05,-5.18 -46.29,6.85 l 33.45,4.14 -6.59,7.66 -25.5,-1.25 23.3,3.8 -7.03,8.37 -22.8,0.72 20.98,1.73 -3.6,5.92 c -11.88,0.87 -25.87,6.3 -41.47,17.57 l 29.66,-2.4 -5.04,8.29 -24.63,4.79 22,-1.54 -4.89,8.04 -21.4,4.82 19.53,-1.74 -4.03,6.63 c -9.91,4.02 -16.64,2.85 -36.67,24.05 l 32.01,-8.41 -4.6,7.56 -21.02,6.35 17.5,-2.66 -4.58,8.57 -15.88,4.28 14.36,-2.29 -2.94,6.96 c -8.29,4.04 -11.54,-0.2 -25.87,13.76 l 20.08,2.16 -3.67,8.15 -13.79,4.57 11.88,-0.89 -3.72,10.38 -9.28,4.09 9.03,-1 -2.05,8.16 -14.12,4.05 -18.92,-13.13 0.74,-13.48 10.64,8.09 -10.11,-10.03 1.1,-8.73 10.5,8.32 -8.97,-10.3 0.92,-11.1 17.56,10.02 c 0.24,-8.93 -6.13,-17.65 -13.63,-26.11 l 3.01,-9.2 8.64,9.8 -7.67,-14.06 2.57,-8.49 9.02,8.08 -8.72,-10.16 2.95,-10.2 16.72,15.67 c 1.63,-10.67 -5.77,-20.35 -11.56,-30.02 l 3.93,-12.84 12.82,14.6 -11.44,-16.36 4.72,-10.42 10.75,14.32 -9.5,-15.83 4.77,-11.04 15.38,24.27 c 0.14,-9.31 2.04,-23.06 -7.73,-35.81 l 6.98,-15.2 10.87,17.3 -9.48,-20.66 6.46,-13.26 10.45,22.24 -7.5,-24.98 8.17,-14.48 6.13,38.41 c 5.83,-14.93 8.59,-31.73 5.58,-52.35 l 14.01,-16.12 -1.25,42.02 3.16,-44.1 10.19,-13.56 -1.92,45.81 3.83,-46.28 16.58,-18.75 -6.33,52.53 c 13.45,-18.39 20.85,-41.76 25.47,-67.47 l 15.66,-15.1 -14.97,59.26 17.97,-59.39 20.36,-16.46 -23.09,67.3 27.23,-69.31 24.15,-18.39 z"/>
    <path style="fill:#999999;" d="m 168.52,514.06 c 0,0 -4.88,-4.25 -6.57,-13.71 -1.19,-6.56 0.24,-18 0.41,-23.08 2.43,-32.23 8.16,-62.45 16.5,-91.08 12.44,-40.72 30.28,-77.5 52.93,-109.43 21.64,-30.25 47.67,-56.57 76.91,-78 27.23,-19.74 57.62,-35.6 90.13,-46.95 l 1,14.86 c 2.48,-3.02 -61.83,23.34 -96.71,53 -24.06,20.38 -45.89,42.42 -64.42,68.1 -14.89,20.76 -28.3,47.62 -37.61,71.44 -11.38,29.38 -21.61,67.54 -25.69,98.77 -2.08,14.61 -2.22,38.83 -2.22,38.83 z"/>
    <path style="fill:#dddddd;stroke:#774411;stroke-width:1;" d="m 468.03,242.13 c 0,0 -2.17,5.45 -6.51,9.7 -2.32,2.39 -6.84,4.42 -8.8,5.17 -7.08,3.31 -22.29,2.39 -25.9,9.72 l -5.48,11.4 c -19.2,-11.35 -37.53,-30.41 -44.18,-56.46 -19.93,-13.87 -23.17,-48.64 -8.9,-64.68 -2.39,-9.23 -4.41,-13.77 -4.94,-20.99 -1.21,-17.22 3.62,-33.38 11.7,-40.794 6.35,-5.82 18.91,-8.063 29.72,-7.882 13.58,0.297 26.13,4.703 39.05,13.846 10.23,7.07 18.69,16.86 23.74,28.43 17.26,-2.05 30.97,1.86 40.37,8.65 11.83,8.8 16.8,22.31 13.76,35.21 -1.67,6.59 -3.6,13.15 -9.65,18.44 3.9,12.64 -0.79,25.46 -7.27,34.33 -7.97,11.58 -20.71,17.71 -36.71,15.91 z"/>
    <path style="fill:#ffffff;" d="m 469.07,132.43 c 0,0 -19.73,-18.58 -31.31,-26.55 -6.18,-4.41 -12.92,-8.862 -20.32,-10.83 -6.57,-1.668 -14.05,-2.246 -21.02,-0.884 -6.99,1.366 -12.89,3.054 -17.27,8.684 -4.68,5.35 -4.64,11.17 -4.95,18.37 -0.28,6.63 -0.42,16.61 1.52,23.05 1.94,6.75 4.57,9.92 8.5,15.33 3.67,4.87 8.2,8.94 13.08,11.92 4.32,2.95 14.16,5.86 14.16,5.86 0,0 -13.99,3.02 -20.56,1.35 -7.4,-1.97 -19.18,-12.16 -19.18,-12.16 0,0 -3.31,6.77 -3.52,11.47 -0.21,4.99 0.31,12.21 2.33,16.74 8.4,17.81 18.62,18.79 34.73,18.09 3.34,-0.42 20.46,-5.51 20.46,-5.51 0,0 -14.58,10.2 -17.96,11.72 -7.05,2.75 -19.17,1.12 -19.17,1.12 0,0 0.57,12.77 3.37,18.44 4.85,9.62 24.65,26.81 24.65,26.81 0,0 5.91,-8.88 9.02,-10.43 7.94,-4.1 15.04,-1.86 22.46,-6.53 4.25,-2.32 9.32,-10.7 9.32,-10.7 0,0 -5.42,-9.64 -6.6,-14.4 -1.45,-5.05 -0.52,-13.89 -0.52,-13.89 0,0 3.43,10.68 6.59,14.71 3.14,4 7.16,7.78 12.09,8.82 6.88,1.39 14.72,-0.77 20.98,-4.38 4.53,-2.58 7.43,-5.22 10.12,-9.82 2.12,-3.49 4.01,-9.82 4.18,-13.69 0.15,-3.59 -0.69,-10 -0.69,-10 0,0 -13.56,-0.57 -19,-2.75 -5.17,-2.16 -12.39,-8.83 -12.39,-8.83 29.59,8.17 43.94,-3.13 43.93,-16.16 0.1,-8.31 -3.75,-16.51 -11.21,-23.21 -7.75,-6.69 -19.83,-9.69 -35.82,-11.76 z"/>
    <path style="fill:#999999;" d="m 427.64,234.04 c -1.57,4.11 -2.57,-11.46 2.99,-24.81 6.44,-14.68 22.44,-25.94 28.33,-40.65 4.95,-12.54 5.95,-22.74 4.3,-36.13 -1.09,-7.24 -9.32,-21.99 -9.32,-21.99 11.54,2.14 17.84,10.44 20.52,19.16 5.13,16.28 1.77,30.28 -5.14,43.02 -8.11,14.61 -21.11,27.08 -31.4,40.79 -5.29,7.53 -10.28,20.61 -10.28,20.61 z"/>
</g>
<use id="shine" xlink:href="#shield" fill="url(#rg)" stroke="#000" stroke-width="3"/>
</svg>
