<?xml version="1.0" encoding="UTF-8"?>
<svg xmlns="http://www.w3.org/2000/svg" xmlns:xlink="http://www.w3.org/1999/xlink" width="600" height="660">
<defs>
  <radialGradient id="rg" gradientUnits="userSpaceOnUse" cx="220" cy="220" r="405">
    <stop style="stop-color:#fff;stop-opacity:.3" offset="0"/>
    <stop style="stop-color:#fff;stop-opacity:.2" offset=".2"/>
    <stop style="stop-color:#666;stop-opacity:.1" offset=".6"/>
    <stop style="stop-color:#000;stop-opacity:.13" offset="1"/>
  </radialGradient>
  <clipPath id="clip-shield">
    <path id="shield" d="m2,2v257c0,286 298,398 298,398c0,0 298-112 298-398V2z"/>
  </clipPath>
</defs>
<use xlink:href="#shield" style="fill:#000000;"/>
<g id="codd" style="stroke:#666666;stroke-width:1;stroke-linejoin:round;stroke-linecap:round;">
  <path id="barbel" style="fill:#bbbbbb;" d="m 56.32,299.1 c -0.91,0.6 -2.51,2.9 -2.91,5.1 -0.55,3.2 -0.72,6.4 0.12,9.4 0.34,1.3 -0.54,1.4 -0.78,0.8 -1.19,-3.7 -2.21,-7.5 -1.87,-11.3 0.31,-3.6 2.65,-8.1 3.39,-8.9 0.69,1.7 1.4,3.3 2.08,4.9 z"/>
  <g id="dorsal1">
    <path style="fill:#bbbbbb;" d="m 192.3,219.5 c 4.9,-2 6.9,-4 10.1,-6.4 14.5,-11 28.2,-23.4 43.3,-33.6 8.5,-5.7 18.1,-9.9 27.3,-14.2 1.3,-0.6 4.5,-1.4 3.9,0 2.6,-0.8 8.7,-3.5 8.3,-0.8 1.9,-0.8 3.6,-1.2 3.7,0.7 2.7,-0.2 3.2,0.5 2.4,2 1.5,-0.3 3.1,0 1.6,2 1.6,0.4 2,1.5 0.5,2.4 0.8,0.1 1.7,1.4 0.3,2.2 1.5,0.1 1.5,1 0,2.9 2.6,0.8 0.5,2.7 -1.3,4.5 2,0.7 2,2.2 -1.1,3.9 2.9,1 -0.7,4 -3.7,7.3 2.3,0.3 0.3,4.4 -1.9,6.1 1,0.6 1.5,1.6 -4.1,6.6 1.8,1.7 -0.5,4.3 -4.3,7.2 1.5,0.6 1,1.6 -0.1,2.7 -28.3,1.5 -56.7,2.9 -84.9,4.5 z"/>
    <path style="fill:none;" d="m 277.3,212.3 c -9.3,1 -8.9,2.8 -13.4,4.3 m 17.7,-11.5 c -10.4,1.9 -15,7.5 -22.1,11.4 m 26.2,-18 c -14.7,5.2 -21.6,11.9 -31,18.1 m 32.9,-24.2 c -18.6,8.1 -28,16.8 -40.8,25.2 m 44.5,-32.5 c -18.9,9.8 -32.9,20.9 -47.4,31.7 m 48.5,-35.6 c -22.8,11.8 -38.5,24 -54.2,36.1 m 55.5,-40.6 c -25.3,13.3 -45.7,27.7 -65.2,42.3 m 65.2,-45.2 c -27.7,13.7 -49.4,29.4 -70.2,45.2 m 69.9,-47.4 c -29.3,13.4 -52.3,30.3 -75.1,47.6 m 74.6,-50 c -33.1,14.9 -57.2,33 -81.5,51.1 m 79.9,-53.1 c -31.7,14.2 -57.6,32.9 -82.5,52.3 m 80.1,-54.3 c -35.8,17 -59.2,36 -84.8,54.6 m 81.1,-55.3 c -35.4,16.1 -59.3,36.1 -85.2,55.5 m 76.9,-54.7 c -32.3,15.4 -54.4,35.7 -80,54.2"/>
  </g>
  <g id="dorsal2">
    <path style="fill:#bbbbbb;" d="m 285.1,216.4 c 3.2,-3.1 5.9,-7 9.7,-9.3 9.7,-6 19.6,-11.9 26.7,-17.5 2.4,-1.8 7,-2.2 6.1,0.1 2.3,-0.4 4.8,-1.1 5.5,1 1.7,-0.2 3.3,-0.3 3,1.7 2.4,-0.5 3,0.3 2.4,2.1 1.7,-0.2 3.7,-1 3.6,1.7 2,-0.2 4.1,-0.7 3.7,2 1.3,-0.2 2.9,-1 3.2,1.6 2.5,-0.5 3.9,0.3 3.9,2.5 2,-0.6 3.9,-1 4.2,2 2.1,-0.5 3.6,-0.3 3.7,1.9 1.6,-0.2 3.1,-0.5 3.5,2.1 1.4,0 2.8,-0.5 3.3,2.2 1.6,-0.4 3.1,-0.4 3.5,2.1 2.3,-0.2 3,1.1 3.1,2.2 1.7,0.5 2.8,1.2 2.7,2.9 1.5,0.5 3.1,1 1.8,3.4 1.9,0.7 3.8,1.5 2.5,3.9 1.7,0.5 2.8,1.2 1.7,3.1 2.1,0.6 3.2,1.6 2.2,3.5 2.4,0.9 2.8,2.6 1.5,5.1 -34,-4.7 -67.9,-9.5 -101.5,-20.3 z"/>
    <path style="fill:none;" d="m 385.1,231.6 c -6.7,0.6 -7.8,2.7 -10.8,4.4 m 8.6,-7.9 c -9.5,1.7 -10.6,4.2 -14.3,6.6 m 12.6,-9.7 c -9.4,2.1 -13.7,5.8 -18.6,9.3 m 16.1,-13.2 c -9.1,3.8 -15.7,8.1 -21.2,12.6 m 19.4,-16 c -9.3,4.8 -17.8,9.6 -22.9,15.3 m 20.2,-18.2 c -9.7,5.7 -19.1,11.3 -24.1,17.5 m 21,-19.7 c -9.9,6.3 -19.9,12.8 -25.1,18.5 m 21.6,-20.6 c -10,6.6 -19.9,13.1 -25.5,20.3 m 22.2,-22.5 c -10,7 -20.1,13.9 -26.8,22.2 m 23.3,-24.3 c -9.9,7.6 -22.2,14.5 -26.7,23.1 m 23,-25 c -10.8,7.9 -23.4,15.3 -28.4,24.6 m 24.2,-26.6 c -11.6,8.3 -25.1,16.4 -29.9,26.3 m 26,-28.8 c -11.6,8.9 -26.2,16.6 -30.6,27.8 m 27.4,-29.4 c -12.5,8.9 -27.7,17.4 -33,27.3 m 29.3,-29.3 c -11.9,9.2 -27.7,16.5 -34,28.2 m 30.4,-29.9 c -13.5,9.4 -30.1,18.7 -36.4,28.9 m 34,-31 c -13.9,9.5 -30,18.3 -39.1,29.6 m 36.1,-31.3 c -14.7,9.9 -31.3,19.4 -40.9,30.3 m 35.4,-31.3 c -14.8,10.3 -34.1,21.9 -38.5,29.1"/>
  </g>
  <g id="dorsal3">
    <path style="fill:#bbbbbb;" d="m 394.7,237.2 c 8.5,-3 17,-5.7 25.3,-9.1 7.7,-3.2 14.6,-8.1 22.6,-10.9 3.5,-1.2 7.4,-1.3 11.2,-1 1.8,0.2 2.2,1.5 1.5,2.1 1.2,0.1 2.7,0.2 1.7,2 1.3,0.3 2.4,0.8 1.1,2.2 1.1,0.1 2.2,0.1 1.5,1.8 1.3,0.6 1.2,1.3 0.8,2.1 1,0.3 2.2,0.6 0.9,2.2 0.9,0.4 1.7,1.1 0.7,2.2 1.5,0.3 1.8,1.2 1.1,2.2 0.7,0.4 1.8,0.6 1,2 1.1,0.2 1.3,0.8 0.8,1.7 1.4,1 0.8,1.5 0.6,2.1 1.3,0.7 1.3,1.6 0.9,2.6 1.1,0.7 1,1.6 0.5,2.4 1.1,0.3 1,1 0.5,1.8 1.2,0.5 1.8,1.3 1.2,2.4 1,0.1 1.3,0.8 1.1,2.2 1.1,0.1 1.4,0.9 1.2,1.6 1.2,0.6 2.6,0.9 1.8,2.3 -27.4,-1.7 -52.8,-9.1 -78,-16.9 z"/>
    <path style="fill:none;" d="m 470.9,251.8 c -6,0.1 -7.7,0.7 -9.4,1.4 m 8.2,-3 c -6.5,0.1 -9.5,1.1 -12.3,2 m 11.2,-4.2 c -7.5,0.6 -12.2,2 -16.7,3.8 m 15.5,-6.2 c -7.6,1 -14.8,2.5 -19.6,5.3 m 19.1,-7.1 c -10.3,1.2 -17.8,3.6 -24.2,6.5 m 23.7,-8.9 c -11.1,1.7 -19.9,4.6 -28,7.8 m 27.1,-10.4 c -11.9,2.5 -22.2,6.1 -32.2,9.9 m 31.6,-12 c -13,3.3 -25,7 -35.9,11.3 m 35.1,-13 c -15,3.3 -27.4,7.6 -39.2,12 m 38.2,-14 c -16.1,3.6 -28.9,8.1 -41.8,12.6 m 40.7,-14.8 c -17,3.9 -30.6,9.2 -45.1,14.4 m 44.4,-16.6 c -18.4,4.5 -32.5,10.2 -47.8,15.6 m 46.9,-17.8 c -19.6,4.5 -34.4,11.1 -50.9,17.1 m 50.1,-19.2 c -18.6,4.1 -35.8,11.6 -53.4,17.9 m 51.9,-19.7 c -18.6,3.7 -37.5,12.7 -56.3,19 m 55.2,-21.2 c -9.8,1.9 -21.5,5.6 -31.6,10 -9.1,4 -17,6.6 -26.3,9.7 m 56.2,-21.7 c -8,-0.5 -19.1,5.1 -32.4,10.9 -8.3,3.5 -18.4,6.8 -25.8,9.4"/>
  </g>
  <g id="anal1">
    <path style="fill:#bbbbbb;" d="m 294.5,334.1 c 6.9,5.8 10.8,9.9 17.8,15.5 5,4.1 12.7,9.9 18.1,13.2 1.1,0.8 2.9,0.3 3.1,-0.6 2.8,1.4 6.1,3.4 7.2,1.1 2.4,0.6 4.1,0.8 3.7,-1.4 1.8,0.3 3.7,1.2 3.3,-1.5 2.8,1.1 3.8,0.2 3.6,-1.7 1.8,0.2 3.4,0.2 3.4,-2.1 3.7,0.1 3.2,-1.1 3.2,-2.3 1.3,0 3,0.5 2.7,-1.6 1.4,0 2.9,0 2.3,-2.1 1.4,-0.1 2.8,-0.3 2.9,-2.3 1.3,-0.2 2.7,-0.4 2.4,-1.6 1.8,-0.3 2.4,-1.2 2,-2.7 0.9,-0.5 2.2,0 2,-2 1.2,-0.3 2,-1 1.7,-2.8 2,-0.4 2.4,-1.8 2.3,-3.3 1.4,-1.3 3.2,-2.5 2.7,-4.4 1.3,-1 2.5,-2 1.8,-3.5 1.2,-1.1 2.7,-1.9 2.6,-4.4 1.7,-0.6 2.6,-1.8 2.3,-4 1.4,0.6 2.2,-2.1 3,-3.8 -31.3,6.1 -62.7,12.2 -94.1,18.3 z"/>
    <path style="fill:none;" d="m 385.6,319.6 c -1.9,0 -3.7,0.1 -4.8,-1.7 m 2.5,5.7 c -3.9,0.2 -5.4,-2.3 -6.8,-4.7 m 4.2,9.1 c -3.8,-1.8 -6.6,-4.4 -8.3,-7.8 m 6.5,11.3 c -5.3,-2.1 -8.7,-5.5 -10.5,-10.3 m 7.8,14.7 c -5.3,-4 -10.2,-7.9 -12.6,-13.5 m 10.3,16.8 c -6.4,-4.7 -11.6,-9.8 -13.6,-15.9 m 11.9,18.7 c -7.3,-5.5 -13.4,-11.4 -16.3,-18.6 m 14.3,20.6 c -7.9,-5.7 -14.9,-11.9 -18.6,-19.6 m 16.6,22.3 c -9.7,-6.6 -17.4,-13.9 -21.7,-22.7 m 19.3,24.3 c -9.8,-6.5 -17.7,-14.2 -23.6,-23.3 m 20.7,25.6 c -10,-7.7 -19.1,-15.7 -25,-25 m 22.7,27.1 c -11.5,-7.8 -21.5,-16.4 -27.9,-26.9 m 25.2,28.5 c -13,-8.2 -23.5,-17 -29.9,-27.1 m 26.7,29.4 c -14,-9 -24.7,-19 -33.2,-29.5 m 29.8,31.6 c -12.5,-9.4 -24.4,-19.1 -34.1,-30 m 30.5,31.7 c -13.3,-9.7 -25.8,-19.7 -34.9,-31.1 m 31.6,32.6 c -14.5,-10.1 -27.4,-20.4 -36.1,-31.8 m 32.4,33.2 c -14.7,-10.7 -28.6,-21.6 -37.8,-32.7 m 30.6,31.6 c -14.4,-10.4 -25.8,-20.7 -35.7,-31.1"/>
  </g>
  <g id="anal2">
    <path style="fill:#bbbbbb;" d="m 407.2,312.2 c 8.5,3.1 16.5,7.7 23.9,11.9 7.3,4.2 16,5.9 24.5,5.8 0.8,0 2.1,-0.4 1.8,-1.1 1.4,-0.1 2.8,-0.3 2.2,-1.7 1.4,-0.3 1.5,-1.3 0.9,-2.5 1.6,0.1 1.7,-1.1 0.9,-2.9 1.8,-0.1 1.7,-1.1 1.1,-2.2 1.3,-0.2 1.9,-0.9 1.2,-2.6 1.1,-0.3 1.5,-0.9 0.6,-2.2 1,-0.2 1.8,-0.6 1,-2.4 0.7,-0.4 1.8,-0.5 0.6,-2.3 1,-0.5 1.8,-1.1 1.3,-2.6 0.9,-0.2 1.3,-0.7 0.5,-2.4 0.5,-0.4 1.6,-0.3 0.8,-2.5 0.9,-0.5 1.5,-1.2 0.8,-2.8 0.7,-0.5 1.5,-1 0.5,-2.2 1.6,-0.1 1.6,-2 1,-2.3 1.1,0 1.7,-1 1.1,-1.5 1.1,0 1.1,-0.8 1.3,-1.4 z"/>
    <path style="fill:none;" d="m 471.9,293.7 c -2.6,0.5 -3.7,0.3 -5.1,0 m 4,1.5 c -5.1,1.3 -7,0.5 -9.9,0.3 m 8.9,2 c -7,1 -10,-0.1 -14.2,-0.7 m 13.7,2.9 c -7.9,1.5 -12.1,-0.6 -17.4,-1.6 m 16.6,4.4 c -9.2,1.5 -12.9,-1.4 -18.5,-2.9 m 17.7,5.4 c -9.5,1.1 -14.7,-2.3 -21.5,-4.3 m 21,6.7 c -10.1,0.7 -17,-3.2 -24.9,-5.7 m 23.6,8.3 c -10.6,-0.1 -18.2,-4.3 -26.9,-7 m 26.3,9.3 c -12,-0.2 -20.2,-5.3 -29.8,-8.3 m 28.8,10.7 c -12.6,-1.1 -21.1,-6.1 -31.6,-9.2 m 31,11.4 c -14.6,-1.3 -23.2,-6.9 -34.5,-10.6 m 33.3,13.2 c -14.4,-1.1 -25.8,-7.8 -38.5,-12 m 37.4,14.2 c -15.9,-1 -27,-8.4 -40.3,-12.8 m 39.4,15.7 c -17.7,-1.8 -29.4,-10 -43.8,-15.4 m 42.9,17.9 c -19.9,-2 -31.1,-10.9 -46.1,-16.8 m 43.9,18.5 c -16.6,-0.4 -31.8,-11 -47.5,-17.6"/>
  </g>
  <g id="caudal">
    <path style="fill:#bbbbbb;" d="m 480.9,255.2 c 4.8,-1.5 11.1,-3.8 16.9,-7.6 8.9,-6 17.3,-14.2 22.1,-17 1.2,-0.7 2.9,-2.2 4,-1.2 2.4,-2.4 4.9,-5.2 7.3,-3.5 2.3,-1.7 4.4,-4.5 7.1,-3.1 2.3,-1.6 5,-4.4 7.4,-2.4 3.1,-1.9 5.8,-3.2 7.1,-1.5 4.3,-2.1 5,-0.7 5.3,1 3.1,-0.6 3.5,2.1 1.9,6.6 2,1.7 1.4,4.4 -1.1,7.7 2.8,1.9 1,4 -0.7,6.1 2.1,1.9 0.8,3.8 -1,5.6 0.7,1.3 1.3,2.7 -0.6,4.5 1.1,2.5 0.6,3.8 -0.3,4.6 0.7,1.9 0.5,3.2 -0.8,3.7 0.5,1.5 0.5,2.6 -0.6,3.1 0.8,1.9 0.8,3.5 -0.5,4.2 1.5,1.9 0.4,2.7 -0.1,3.7 1.2,1.3 1.1,2.4 -0.3,3.4 1.9,1.4 2.5,2.8 1.1,4.5 2.5,1.7 1.5,3 0.5,4.2 1.8,2.5 0.4,3.3 -0.6,4.4 1.5,2 1,3.4 -0.4,4.4 1.6,2 1.3,3.5 0.2,4.7 2.8,3.4 1.3,4.8 0.1,6.6 2.9,4 1.6,5.4 0.4,7 2.6,2.7 1.4,4 0.2,5.3 1.7,2.1 2.3,4.2 0.4,6.3 1.4,1.9 5.6,7.1 0.4,6.8 0,1.6 -0.4,2.8 -3.2,1.1 -0.7,2.7 -2.9,0.9 -4.8,-0.1 -1.4,2.6 -4.3,-0.5 -6.2,-1.8 -1.3,2.4 -4.5,-0.9 -6.9,-2.9 -0.2,2.1 -2.9,-0.8 -5.1,-2.6 -0.5,1.3 -1.6,0.7 -2.6,-0.2 -8.1,-6.1 -15.3,-9.2 -22.2,-14.9 -6.9,-5.9 -16.1,-14.6 -23.7,-15.6 -0.2,-11.7 -0.4,-23.4 -0.7,-35.1 z"/>
    <path style="fill:none;" d="m 554.3,269.7 -18.2,0.8 m 18.3,-4.5 c -6.8,1.9 -12.8,1.9 -19.3,2.7 m 19.8,-6.9 c -7,3.5 -13.7,3.5 -20.5,5.2 m 21.1,-8.3 c -6.6,3.8 -14.3,4.9 -21.4,7.5 m 22.2,-11.2 c -7.4,5.2 -15,6.8 -22.4,10.2 m 22.7,-14.8 c -7.7,7.7 -15.9,9.4 -23.8,14 m 24.4,-18.5 c -8.1,7.4 -17.1,12 -25.6,17.9 m 26.6,-23.5 c -8.6,9.5 -19.8,15.2 -29.7,22.8 m 30.4,-28.9 c -10.2,10.6 -22.6,18.4 -33.9,27.6 m 35,-35.3 c -11.7,13.5 -26.5,22.9 -39.9,34.2 m 38,-40.8 c -13,16.7 -29.2,27.1 -44,40.2 m 38.7,-41.2 c -12.9,14.5 -27.9,28.1 -44.2,41 m 37.1,-39.5 c -12.3,14.8 -27.7,26.3 -42.8,38.2 m 35.4,-35.8 c -11.9,12.8 -25.9,24.2 -41,34.8 m 33.9,-31.7 c -12.2,12.4 -26.5,22.2 -40.4,32.7 m 33.1,-29.2 c -15.5,15.1 -25.7,19.8 -37.6,28.1 m 67.7,15.6 c -6.4,0.4 -11.9,-0.7 -17.8,-1.2 m 18.9,5.7 c -6.7,0.8 -12.5,-2.2 -18.8,-3.5 m 19.3,7.7 c -7.2,0.5 -13,-3.2 -19.1,-5.9 m 18.5,10.3 c -7.8,-0.9 -12.6,-4.1 -16.8,-7.7 m 16.4,12.1 c -8.5,-1.1 -15.2,-5.9 -21.6,-11.5 m 21.8,16.2 c -8.1,-2.2 -16.8,-4.9 -23,-13.6 m 23.1,20.2 c -10,-4.7 -20.3,-9 -26.3,-19.5 m 26.7,26.5 c -12,-7.6 -24.7,-14.5 -31.3,-26.8 m 31.5,32.1 c -13.3,-8.9 -27.6,-16.8 -35.2,-30.5 m 35.6,36.8 c -14,-11.3 -31.4,-21.3 -38.1,-34.9 m 38.5,41.7 c -15,-13.4 -34.9,-26 -41.7,-40.6 m 38.5,41.7 c -17.6,-14.5 -38.1,-29.7 -43.3,-41.6 m 38.5,41.5 c -15.4,-13.7 -35.2,-25.3 -44.3,-41.9 m 38.1,40.1 c -15.2,-12.5 -33.4,-23 -43.1,-39.1 m 36.2,36.2 c -15,-11.4 -30.7,-22.2 -42.8,-36 m 37.7,33.4 c -17.1,-11.4 -31.7,-22.3 -41.5,-32.3"/>
  </g>
  <path id="body" style="fill:#e6e6e6;" d="m 83.01,314.1 c 3.9,2 7.2,5.4 11.35,6.7 11.94,3.9 24.14,7.6 36.54,8.7 38.4,3.5 76.9,4.6 115.4,5.4 16,0.2 32,0.2 48.2,-0.8 31.9,-2 64,-7.9 94.1,-18.3 6,-2 12.4,-2.6 18.6,-3.6 22.7,-3.8 44,-13.5 66,-19.9 2.8,-0.9 5.6,-1.6 8.4,-2 14.3,-1.9 29,-1.9 43.1,-4.9 5,-1.1 10.3,-3 13.5,-6.9 2,-2.5 1.3,-6.7 0,-9.7 -1.6,-3.5 -4.6,-6.8 -8.1,-8.3 -6.6,-2.5 -13.9,-2.6 -20.9,-3.3 -9,-0.7 -17.4,-0.4 -28.3,-2 -2.8,-0.4 -5.5,-0.6 -8.2,-1.1 -26,-5.5 -51.8,-11.6 -78,-16.9 -2.7,-0.6 -5.5,0 -8.1,-0.5 -33.9,-6.4 -67.7,-13.6 -101.5,-20.3 -2.5,-0.5 -5.2,-1.1 -7.9,-1.4 -13,-1.1 -25.9,-3.2 -38.8,-2.6 -15.5,0.9 -30.8,4 -46.1,7.1 -17.9,3.7 -35.6,8.2 -53.2,13.6 -19.9,6.1 -39.25,13.5 -58.78,20.5 -5.74,2.1 -11.35,4.6 -17.1,6.7 -5.13,1.9 -10.52,3 -15.52,5.4 -2.85,1.2 -6.11,2.5 -7.84,5.1 -1.36,2.1 -1.32,5.1 -0.54,7.4 0.71,2.1 3.01,3.3 4.65,4.9 1.87,1.9 4.34,3.2 5.8,5.4 1.36,1.9 1.08,4.6 2.32,6.7 1.56,2.7 3.32,5.5 5.97,7.2 7.86,4.8 16.77,7.5 24.95,11.7 z"/>
  <g id="mouth">
    <path style="fill:#bbbbbb;" d="m 43.97,283.1 c 0.61,-1.1 2.4,-1.1 3.66,-1 10.16,1.1 18.9,2.4 29.03,5.3 4.03,1.1 9.52,3.5 12.33,6.6 1.34,1.3 1.46,3.9 0.61,5.6 -0.86,1.8 -2.32,2.8 -4.28,2.8 -3.05,0 -6.1,-1.9 -9.03,-2.7 -7.93,-1.9 -18.41,-2.7 -24.2,-4.5 -1.81,-0.6 -3.41,-2.2 -3.95,-3.9 -0.4,-1.2 0.21,-2.3 1.63,-2.8 -2.81,-0.7 -6.89,-3.4 -5.8,-5.4 z"/>
    <path style="fill:none;" d="m 49.77,288.5 c 10.53,1 20.78,3.3 30.55,7.2"/>
  </g>
  <g id="pectoral">
    <path style="fill:#bbbbbb;" d="m 186.4,283 c 3.1,-3.2 5.6,-7.2 9.4,-9.5 8.5,-5.3 17.5,-9.9 27.2,-13 5.2,-1.7 11.1,-1.7 16.6,-0.9 1.8,0.1 4.5,1.7 4.4,3.3 2.4,0.3 3.2,1.7 3,3.6 1.5,0.4 3,1.2 2.6,3.8 1.1,0.9 1.5,2.4 1.3,3.5 1.6,2.6 0.8,3.5 0.5,4.7 1.4,2.2 0,2.9 -0.2,4.4 0.7,2.2 0.2,3.8 -1.4,4.7 0.3,2.2 -0.6,3.5 -2.3,3.7 -0.2,2.1 -1.3,3.2 -3,3.7 0,1.2 0,2.4 -2.6,2.9 0,2.7 -1.2,2.3 -2.1,3 0.4,2.7 -0.9,4 -3.3,4.1 -12.2,1.1 -19.4,-2 -29.3,-4.7 -4.2,-1.2 -8.4,-6.8 -11.6,-9.2 -6.7,-0.7 -8.6,-3.9 -9.2,-8.1 z"/>
    <path style="fill:none;" d="m 244.5,295 c -15.3,1.3 -28.7,-2.1 -42.8,-3.7 m 40.2,6.6 c -14.8,2.2 -27.2,-2.4 -40.4,-4.8 m 38.3,7.8 c -14.5,2.2 -26.6,-2.2 -39,-5.9 m 46.7,-3.7 c -16.6,1.8 -30.7,-0.9 -45.9,-1.8 m 48.2,-1.9 c -16.7,-0.6 -32.3,-0.1 -48.3,-0.3 m 49.7,-4.4 c -16.6,-1.2 -33.5,1.7 -50.2,2.8 m 50.4,-7.2 c -15.4,-1.5 -33.8,3.3 -51,5.6 m 50.5,-10.3 c -19.5,-1.7 -34.9,4.8 -51.6,8.7 m 50.3,-12.2 c -18.9,-2.8 -35,4.9 -51.6,10.5 m 49,-14.3 c -19.5,-2.3 -34.6,6.1 -50.6,12.2 m 47.6,-15.8 c -19.2,-2.2 -34.3,6.4 -49.8,14.2"/>
  </g>
  <g id="pelvic">
    <path style="fill:#bbbbbb;" d="m 165,324.1 c 4.3,-1.1 6.2,0.6 8.3,2.2 11.1,4.2 16.1,9.3 21.6,15.4 4.8,5.4 2.2,8.3 -1,10 -0.8,4.9 -3.3,6.5 -6.1,7.3 -0.5,3.6 -1.9,5.9 -5,6.3 -0.6,3.8 -1.4,6.9 -4.2,6.8 -0.7,4.9 -2.4,4.9 -4.2,5 -0.9,2.7 -2.2,5.6 -4.3,1.1 -7.2,-16.6 -13.2,-33.7 -16.4,-49.8 4.2,-0.2 8.9,0.3 11.3,-4.3 z"/>
    <path style="fill:none;" d="m 193.9,351.7 c -6.1,-9.1 -14.5,-17.4 -24.4,-25.1 m 18.3,32.4 c -4.5,-11.7 -13.2,-21.2 -21.1,-31 m 16.1,37.3 c -4.5,-13.1 -12.1,-24.6 -19.4,-36.2 m 15.2,43 c -4.1,-14.9 -11.2,-28.7 -18.4,-42.5 m 14.2,47.5 c -4.4,-16.5 -11.1,-31.8 -17.5,-47.5"/>
  </g>
  <path id="gills" style="fill:none;" d="m 83.01,314.1 c 13.91,8.3 29.89,10.4 40.69,10.5 16,0.1 24.9,-2.8 37,-13.4 11.9,-10.4 13,-24.8 15.5,-41.5 m -93.19,44.4 c 20.09,9.4 34.19,8 53.69,3.6 11.1,-2.6 19.5,-7.2 27.1,-15.9 8.5,-9.5 10.6,-22.8 12.4,-32.1 m -93.19,44.4 c 15.99,5.6 28.09,4.2 39.19,2.2 16.6,-2.9 27.1,-6.3 40,-16.8 8.4,-6.9 12.2,-21.4 14,-29.8 m -42.2,-23.7 c 12.3,0.5 22.6,2.3 33.9,8.7 4.2,2.3 8.8,10.2 8.3,15 -1.3,15.4 -3.1,33.4 -12.3,45.6 -7.6,10.3 -22.1,13.8 -33,14.2 m -47.89,-15.4 c 8.3,2.8 24.59,1.6 32.19,0 18.2,-3.8 28,-5.8 43.6,-15.6 9.5,-5.9 15.6,-21.1 17.4,-28.8"/>
  <g id="eye">
    <circle style="fill:#bbbbbb;" cx="98" cy="264" r="10"/>
    <circle style="fill:#222222;" cx="98" cy="264" r="4.8"/>
  </g>
</g>
<use id="shine" xlink:href="#shield" style="fill:url(#rg);stroke:#000000;stroke-width:3;"/>
</svg>
