<?xml version="1.0" encoding="UTF-8" standalone="no"?>
<svg
   xmlns:dc="http://purl.org/dc/elements/1.1/"
   xmlns:cc="http://creativecommons.org/ns#"
   xmlns:rdf="http://www.w3.org/1999/02/22-rdf-syntax-ns#"
   xmlns:svg="http://www.w3.org/2000/svg"
   xmlns="http://www.w3.org/2000/svg"
   xmlns:xlink="http://www.w3.org/1999/xlink"
   xmlns:sodipodi="http://sodipodi.sourceforge.net/DTD/sodipodi-0.dtd"
   xmlns:inkscape="http://www.inkscape.org/namespaces/inkscape"
   width="600"
   height="660"
   id="svg2"
   version="1.1"
   inkscape:version="0.48.2 r9819"
   sodipodi:docname="House_Cole.svg">
  <metadata
     id="metadata19">
    <rdf:RDF>
      <cc:Work
         rdf:about="">
        <dc:format>image/svg+xml</dc:format>
        <dc:type
           rdf:resource="http://purl.org/dc/dcmitype/StillImage" />
        <dc:title />
      </cc:Work>
    </rdf:RDF>
  </metadata>
  <defs
     id="defs17">
    <radialGradient
       inkscape:collect="always"
       xlink:href="#rg"
       id="radialGradient4153"
       gradientUnits="userSpaceOnUse"
       cx="220"
       cy="220"
       r="405" />
    <clipPath
       clipPathUnits="userSpaceOnUse"
       id="clipPath5195">
      <path
         style="fill:#ffff00;stroke:none;stroke-width:3"
         id="path5197"
         d="m 2,2 0,257 c 0,286 298,398 298,398 0,0 298,-112 298,-398 L 598,2 Z"
         inkscape:connector-curvature="0" />
    </clipPath>
    <clipPath
       clipPathUnits="userSpaceOnUse"
       id="clipPath5277">
      <path
         style="fill:#1a1a1a;stroke:none;stroke-width:3"
         id="path5279"
         d="m 599.72861,332.73456 0,257 c 0,286 -298,398 -298,398 0,0 -298,-112 -298,-398 l 0,-257 z"
         inkscape:connector-curvature="0" />
    </clipPath>
    <clipPath
       clipPathUnits="userSpaceOnUse"
       id="clipPath5289">
      <path
         style="fill:#dc143c;fill-opacity:1;stroke:none;stroke-width:3"
         id="path5291"
         d="m 2,2 0,257 c 0,286 298,398 298,398 0,0 298,-112 298,-398 L 598,2 Z"
         inkscape:connector-curvature="0" />
    </clipPath>
    <radialGradient
       inkscape:collect="always"
       xlink:href="#rg-7"
       id="radialGradient4153-1"
       gradientUnits="userSpaceOnUse"
       cx="220"
       cy="220"
       r="405" />
    <radialGradient
       id="rg-7"
       gradientUnits="userSpaceOnUse"
       cx="220"
       cy="220"
       r="405">
      <stop
         style="stop-color:#fff;stop-opacity:.3"
         offset="0"
         id="stop5-4" />
      <stop
         style="stop-color:#fff;stop-opacity:.2"
         offset=".2"
         id="stop7-0" />
      <stop
         style="stop-color:#666;stop-opacity:.1"
         offset=".6"
         id="stop9-9" />
      <stop
         style="stop-color:#000;stop-opacity:.13"
         offset="1"
         id="stop11-4" />
    </radialGradient>
  </defs>
  <sodipodi:namedview
     pagecolor="#ffffff"
     bordercolor="#666666"
     borderopacity="1"
     objecttolerance="10"
     gridtolerance="10"
     guidetolerance="10"
     inkscape:pageopacity="0"
     inkscape:pageshadow="2"
     inkscape:window-width="1366"
     inkscape:window-height="715"
     id="namedview15"
     showgrid="false"
     inkscape:zoom="0.45254834"
     inkscape:cx="142.55845"
     inkscape:cy="258.81295"
     inkscape:window-x="-8"
     inkscape:window-y="-8"
     inkscape:window-maximized="1"
     inkscape:current-layer="svg2" />
  <radialGradient
     id="rg"
     gradientUnits="userSpaceOnUse"
     cx="220"
     cy="220"
     r="405">
    <stop
       style="stop-color:#fff;stop-opacity:.3"
       offset="0"
       id="stop5" />
    <stop
       style="stop-color:#fff;stop-opacity:.2"
       offset=".2"
       id="stop7" />
    <stop
       style="stop-color:#666;stop-opacity:.1"
       offset=".6"
       id="stop9" />
    <stop
       style="stop-color:#000;stop-opacity:.13"
       offset="1"
       id="stop11" />
  </radialGradient>
  <path
     inkscape:connector-curvature="0"
     d="m 2,2 v 257 c 0,286 298,398 298,398 0,0 298,-112 298,-398 V 2 z"
     id="path13"
     style="fill:#ff3300;fill-opacity:1;stroke:none" />
  <g
     id="g5431">
    <circle
       d="m 272.06155,99.405655 c 0,22.935025 -18.59251,41.527545 -41.52754,41.527545 -22.93503,0 -41.52754,-18.59252 -41.52754,-41.527545 0,-22.935028 18.59251,-41.527542 41.52754,-41.527542 22.93503,0 41.52754,18.592514 41.52754,41.527542 z"
       sodipodi:ry="41.527542"
       sodipodi:rx="41.527542"
       sodipodi:cy="99.405655"
       sodipodi:cx="230.53401"
       style="fill:#000000;fill-opacity:1;stroke:none"
       id="circle5295"
       cx="230.53401"
       cy="99.405655"
       r="41.527542" />
    <circle
       d="m 410.99355,99.405655 c 0,22.935025 -18.59252,41.527545 -41.52755,41.527545 -22.93502,0 -41.52754,-18.59252 -41.52754,-41.527545 0,-22.935028 18.59252,-41.527542 41.52754,-41.527542 22.93503,0 41.52755,18.592514 41.52755,41.527542 z"
       sodipodi:ry="41.527542"
       sodipodi:rx="41.527542"
       sodipodi:cy="99.405655"
       sodipodi:cx="369.466"
       r="41.527542"
       cy="99.405655"
       cx="369.466"
       id="circle5297"
       style="fill:#000000;fill-opacity:1;stroke:none" />
    <circle
       d="m 133.12956,99.405655 c 0,22.935025 -18.59251,41.527545 -41.52754,41.527545 -22.935028,0 -41.527542,-18.59252 -41.527542,-41.527545 0,-22.935028 18.592514,-41.527542 41.527542,-41.527542 22.93503,0 41.52754,18.592514 41.52754,41.527542 z"
       sodipodi:ry="41.527542"
       sodipodi:rx="41.527542"
       sodipodi:cy="99.405655"
       sodipodi:cx="91.60202"
       r="41.527542"
       cy="99.405655"
       cx="91.60202"
       id="path5293"
       style="fill:#000000;fill-opacity:1;stroke:none" />
    <circle
       d="m 549.92552,99.405655 c 0,22.935025 -18.59251,41.527545 -41.52754,41.527545 -22.93503,0 -41.52754,-18.59252 -41.52754,-41.527545 0,-22.935028 18.59251,-41.527542 41.52754,-41.527542 22.93503,0 41.52754,18.592514 41.52754,41.527542 z"
       sodipodi:ry="41.527542"
       sodipodi:rx="41.527542"
       sodipodi:cy="99.405655"
       sodipodi:cx="508.39798"
       style="fill:#000000;fill-opacity:1;stroke:none"
       id="circle5299"
       cx="508.39798"
       cy="99.405655"
       r="41.527542" />
    <circle
       d="m 341.52754,556.91272 c 0,22.93503 -18.59251,41.52754 -41.52754,41.52754 -22.93503,0 -41.52754,-18.59251 -41.52754,-41.52754 0,-22.93503 18.59251,-41.52754 41.52754,-41.52754 22.93503,0 41.52754,18.59251 41.52754,41.52754 z"
       sodipodi:ry="41.527542"
       sodipodi:rx="41.527542"
       sodipodi:cy="556.91272"
       sodipodi:cx="300"
       style="fill:#000000;fill-opacity:1;stroke:none"
       id="circle5337"
       cx="300"
       cy="556.91272"
       r="41.527542" />
    <circle
       d="m 341.52754,251.90799 c 0,22.93503 -18.59251,41.52754 -41.52754,41.52754 -22.93503,0 -41.52754,-18.59251 -41.52754,-41.52754 0,-22.93503 18.59251,-41.52754 41.52754,-41.52754 22.93503,0 41.52754,18.59251 41.52754,41.52754 z"
       sodipodi:ry="41.527542"
       sodipodi:rx="41.527542"
       sodipodi:cy="251.90799"
       sodipodi:cx="300"
       r="41.527542"
       cy="251.90799"
       cx="300"
       id="circle5382"
       style="fill:#000000;fill-opacity:1;stroke:none" />
    <circle
       d="m 480.45952,251.90799 c 0,22.93503 -18.59252,41.52754 -41.52754,41.52754 -22.93503,0 -41.52755,-18.59251 -41.52755,-41.52754 0,-22.93503 18.59252,-41.52754 41.52755,-41.52754 22.93502,0 41.52754,18.59251 41.52754,41.52754 z"
       sodipodi:ry="41.527542"
       sodipodi:rx="41.527542"
       sodipodi:cy="251.90799"
       sodipodi:cx="438.93198"
       style="fill:#000000;fill-opacity:1;stroke:none"
       id="circle5384"
       cx="438.93198"
       cy="251.90799"
       r="41.527542" />
    <circle
       d="m 202.59555,251.90799 c 0,22.93503 -18.59251,41.52754 -41.52754,41.52754 -22.93503,0 -41.52754,-18.59251 -41.52754,-41.52754 0,-22.93503 18.59251,-41.52754 41.52754,-41.52754 22.93503,0 41.52754,18.59251 41.52754,41.52754 z"
       sodipodi:ry="41.527542"
       sodipodi:rx="41.527542"
       sodipodi:cy="251.90799"
       sodipodi:cx="161.06801"
       style="fill:#000000;fill-opacity:1;stroke:none"
       id="circle5386"
       cx="161.06801"
       cy="251.90799"
       r="41.527542" />
    <circle
       d="m 272.06155,404.41034 c 0,22.93503 -18.59251,41.52754 -41.52754,41.52754 -22.93503,0 -41.52754,-18.59251 -41.52754,-41.52754 0,-22.93503 18.59251,-41.52754 41.52754,-41.52754 22.93503,0 41.52754,18.59251 41.52754,41.52754 z"
       sodipodi:ry="41.527542"
       sodipodi:rx="41.527542"
       sodipodi:cy="404.41034"
       sodipodi:cx="230.53401"
       r="41.527542"
       cy="404.41034"
       cx="230.53401"
       id="circle5388"
       style="fill:#000000;fill-opacity:1;stroke:none" />
    <circle
       d="m 410.99355,404.41034 c 0,22.93503 -18.59252,41.52754 -41.52755,41.52754 -22.93502,0 -41.52754,-18.59251 -41.52754,-41.52754 0,-22.93503 18.59252,-41.52754 41.52754,-41.52754 22.93503,0 41.52755,18.59251 41.52755,41.52754 z"
       sodipodi:ry="41.527542"
       sodipodi:rx="41.527542"
       sodipodi:cy="404.41034"
       sodipodi:cx="369.466"
       style="fill:#000000;fill-opacity:1;stroke:none"
       id="circle5390"
       cx="369.466"
       cy="404.41034"
       r="41.527542" />
  </g>
  <path
     id="path4147"
     d="m 2,2 0,257 c 0,286 298,398 298,398 0,0 298,-112 298,-398 L 598,2 z"
     style="fill:url(#radialGradient4153-1);stroke:#000000;stroke-width:3"
     inkscape:connector-curvature="0" />
</svg>
