<?xml version="1.0" encoding="UTF-8"?>
<svg xmlns="http://www.w3.org/2000/svg" xmlns:xlink="http://www.w3.org/1999/xlink" width="600" height="660">
<defs>
  <radialGradient id="rg" gradientUnits="userSpaceOnUse" cx="220" cy="220" r="405">
    <stop style="stop-color:#fff;stop-opacity:.3" offset="0"/>
    <stop style="stop-color:#fff;stop-opacity:.2" offset=".2"/>
    <stop style="stop-color:#666;stop-opacity:.1" offset=".6"/>
    <stop style="stop-color:#000;stop-opacity:.13" offset="1"/>
  </radialGradient>
  <path id="shield" d="m2,2v257c0,286 298,398 298,398c0,0 298-112 298-398V2z"/>
</defs>
<use id="field" xlink:href="#shield" fill="#000"/>
<path id="bend" fill="#f80" d="M 2 2 L 2 108.16992 C 11.360688 109.22628 19.535672 111.46721 24.748047 116.67188 C 32.610446 124.52296 33.725794 139.12322 34.177734 154.38477 C 49.439277 154.83671 64.026111 155.96156 71.888672 163.8125 C 79.75107 171.66358 80.864466 186.26385 81.316406 201.52539 C 96.577948 201.97733 111.16674 203.1022 119.0293 210.95312 C 126.89169 218.80421 128.00509 233.40447 128.45703 248.66602 C 143.71857 249.11796 158.30737 250.24282 166.16992 258.09375 C 174.03232 265.94483 175.14572 280.5451 175.59766 295.80664 C 190.8592 296.25858 205.44799 297.38344 213.31055 305.23438 C 221.17294 313.08546 222.28634 327.68572 222.73828 342.94727 C 237.99982 343.39921 252.58862 344.52407 260.45117 352.375 C 268.31357 360.22608 269.42697 374.82635 269.87891 390.08789 C 285.14045 390.53983 299.72924 391.6647 307.5918 399.51562 C 315.45419 407.36671 316.56759 421.96697 317.01953 437.22852 C 332.28107 437.68046 346.86986 438.80531 354.73242 446.65625 C 362.59482 454.50733 363.70822 469.10565 364.16016 484.36719 C 379.4217 484.81913 394.01049 485.94595 401.87305 493.79688 C 409.73544 501.64796 410.84884 516.24627 411.30078 531.50781 C 426.56232 531.95975 441.15112 533.08657 449.01367 540.9375 C 453.22964 545.1474 455.49403 551.30666 456.76758 558.45898 C 488.76924 529.96861 520.28718 494.82198 545.4043 452.39062 C 543.75205 451.42794 542.244 450.3221 540.9375 449.01367 C 533.08657 441.15111 531.95975 426.56232 531.50781 411.30078 C 516.24627 410.84884 501.64782 409.73559 493.79688 401.87305 C 485.94595 394.01049 484.81913 379.4217 484.36719 364.16016 C 469.10564 363.70822 454.50719 362.59496 446.65625 354.73242 C 438.80532 346.86986 437.68046 332.28107 437.22852 317.01953 C 421.96697 316.56759 407.36657 315.45434 399.51562 307.5918 C 391.6647 299.72924 390.53983 285.14045 390.08789 269.87891 C 374.82635 269.42697 360.22594 268.31371 352.375 260.45117 C 344.52407 252.58861 343.39921 237.99982 342.94727 222.73828 C 327.68572 222.28634 313.08532 221.17309 305.23438 213.31055 C 297.38344 205.44798 296.25858 190.8592 295.80664 175.59766 C 280.5451 175.14572 265.94469 174.03246 258.09375 166.16992 C 250.24282 158.30736 249.11796 143.71857 248.66602 128.45703 C 233.40447 128.00509 218.80407 126.89184 210.95312 119.0293 C 203.1022 111.16674 201.97733 96.577949 201.52539 81.316406 C 186.26385 80.864467 171.66344 79.751211 163.8125 71.888672 C 155.96157 64.026108 154.83671 49.439277 154.38477 34.177734 C 139.12322 33.725795 124.52282 32.610587 116.67188 24.748047 C 111.46721 19.53567 109.22627 11.360689 108.16992 2 L 2 2 z"/>
<use id="shine" xlink:href="#shield" fill="url(#rg)" stroke="#000" stroke-width="3"/>
</svg>