<?xml version="1.0" encoding="UTF-8" standalone="no"?>
<svg
   xmlns:dc="http://purl.org/dc/elements/1.1/"
   xmlns:cc="http://creativecommons.org/ns#"
   xmlns:rdf="http://www.w3.org/1999/02/22-rdf-syntax-ns#"
   xmlns:svg="http://www.w3.org/2000/svg"
   xmlns="http://www.w3.org/2000/svg"
   xmlns:xlink="http://www.w3.org/1999/xlink"
   xmlns:sodipodi="http://sodipodi.sourceforge.net/DTD/sodipodi-0.dtd"
   xmlns:inkscape="http://www.inkscape.org/namespaces/inkscape"
   width="600"
   height="660"
   id="svg2"
   version="1.1"
   inkscape:version="0.48.2 r9819"
   sodipodi:docname="House_Mudd1.svg">
  <metadata
     id="metadata24">
    <rdf:RDF>
      <cc:Work
         rdf:about="">
        <dc:format>image/svg+xml</dc:format>
        <dc:type
           rdf:resource="http://purl.org/dc/dcmitype/StillImage" />
        <dc:title></dc:title>
      </cc:Work>
    </rdf:RDF>
  </metadata>
  <sodipodi:namedview
     pagecolor="#ffffff"
     bordercolor="#666666"
     borderopacity="1"
     objecttolerance="10"
     gridtolerance="10"
     guidetolerance="10"
     inkscape:pageopacity="0"
     inkscape:pageshadow="2"
     inkscape:window-width="1366"
     inkscape:window-height="715"
     id="namedview22"
     showgrid="false"
     inkscape:zoom="0.71515154"
     inkscape:cx="110.34171"
     inkscape:cy="286.40898"
     inkscape:window-x="-8"
     inkscape:window-y="-8"
     inkscape:window-maximized="1"
     inkscape:current-layer="layer2" />
  <defs
     id="defs4">
    <radialGradient
       id="rg"
       gradientUnits="userSpaceOnUse"
       cx="220"
       cy="220"
       r="405">
      <stop
         style="stop-color:#fff;stop-opacity:.3"
         offset="0"
         id="stop7" />
      <stop
         style="stop-color:#fff;stop-opacity:.2"
         offset=".2"
         id="stop9" />
      <stop
         style="stop-color:#666;stop-opacity:.1"
         offset=".6"
         id="stop11" />
      <stop
         style="stop-color:#000;stop-opacity:.13"
         offset="1"
         id="stop13" />
    </radialGradient>
    <path
       id="shield"
       d="m2,2v257c0,286 298,398 298,398c0,0 298-112 298-398V2z" />
    <radialGradient
       inkscape:collect="always"
       xlink:href="#rg-7"
       id="radialGradient3055-1"
       gradientUnits="userSpaceOnUse"
       cx="220"
       cy="220"
       r="405" />
    <radialGradient
       id="rg-7"
       gradientUnits="userSpaceOnUse"
       cx="220"
       cy="220"
       r="405">
      <stop
         style="stop-color:#fff;stop-opacity:.3"
         offset="0"
         id="stop7-4" />
      <stop
         style="stop-color:#fff;stop-opacity:.2"
         offset=".2"
         id="stop9-0" />
      <stop
         style="stop-color:#666;stop-opacity:.1"
         offset=".6"
         id="stop11-9" />
      <stop
         style="stop-color:#000;stop-opacity:.13"
         offset="1"
         id="stop13-4" />
    </radialGradient>
    <radialGradient
       r="405"
       cy="220"
       cx="220"
       gradientUnits="userSpaceOnUse"
       id="radialGradient3074"
       xlink:href="#rg-7"
       inkscape:collect="always" />
    <inkscape:path-effect
       is_visible="true"
       id="path-effect10120-1"
       effect="spiro" />
    <inkscape:path-effect
       effect="spiro"
       id="path-effect10118-3"
       is_visible="true" />
    <inkscape:path-effect
       effect="spiro"
       id="path-effect10116-9"
       is_visible="true" />
    <inkscape:path-effect
       effect="spiro"
       id="path-effect10114-7"
       is_visible="true" />
    <inkscape:path-effect
       effect="spiro"
       id="path-effect10112-7"
       is_visible="true" />
    <inkscape:path-effect
       effect="spiro"
       id="path-effect10110-2"
       is_visible="true" />
    <linearGradient
       inkscape:collect="always"
       xlink:href="#linearGradient4719-5"
       id="linearGradient4039"
       gradientUnits="userSpaceOnUse"
       gradientTransform="matrix(2.3257341,0,0,2.2943177,447.69485,-1820.2799)"
       x1="-145.25935"
       y1="984.24286"
       x2="-64.14286"
       y2="984.14789" />
    <linearGradient
       inkscape:collect="always"
       id="linearGradient4719-5">
      <stop
         style="stop-color:#666666;stop-opacity:1;"
         offset="0"
         id="stop4721-5" />
      <stop
         id="stop4809-1"
         offset="0.39344174"
         style="stop-color:#666666;stop-opacity:0.74901961;" />
      <stop
         style="stop-color:#666666;stop-opacity:0;"
         offset="1"
         id="stop4723-7" />
    </linearGradient>
    <radialGradient
       inkscape:collect="always"
       xlink:href="#linearGradient4801-8"
       id="radialGradient4041"
       gradientUnits="userSpaceOnUse"
       gradientTransform="matrix(-0.72153181,1.2650715,-2.2729984,-1.2616144,1712.0113,1733.7841)"
       cx="-307.14288"
       cy="782.36218"
       fx="-307.14288"
       fy="782.36218"
       r="63" />
    <linearGradient
       inkscape:collect="always"
       id="linearGradient4801-8">
      <stop
         style="stop-color:#000000;stop-opacity:1;"
         offset="0"
         id="stop4803-2" />
      <stop
         style="stop-color:#000000;stop-opacity:0;"
         offset="1"
         id="stop4805-4" />
    </linearGradient>
    <inkscape:path-effect
       effect="spiro"
       id="path-effect10108-4"
       is_visible="true" />
    <linearGradient
       inkscape:collect="always"
       xlink:href="#linearGradient4719-5"
       id="linearGradient4044"
       gradientUnits="userSpaceOnUse"
       gradientTransform="matrix(-2.4055369,0,0,-1.6485021,142.06168,1726.5307)"
       x1="-145.25935"
       y1="984.24286"
       x2="-64.14286"
       y2="984.14789" />
    <radialGradient
       inkscape:collect="always"
       xlink:href="#linearGradient4801-8"
       id="radialGradient4046"
       gradientUnits="userSpaceOnUse"
       gradientTransform="matrix(0.74628962,-0.90897301,2.3509914,0.90648896,-1165.637,-827.11785)"
       cx="-307.14288"
       cy="782.36218"
       fx="-307.14288"
       fy="782.36218"
       r="63" />
    <inkscape:path-effect
       effect="spiro"
       id="path-effect10102-7"
       is_visible="true" />
    <linearGradient
       inkscape:collect="always"
       xlink:href="#linearGradient4719-5"
       id="linearGradient4049"
       gradientUnits="userSpaceOnUse"
       gradientTransform="matrix(2.334989,0,0,-1.6146975,449.44065,1692.189)"
       x1="-145.25935"
       y1="984.24286"
       x2="-64.14286"
       y2="984.14789" />
    <radialGradient
       inkscape:collect="always"
       xlink:href="#linearGradient4801-8"
       id="radialGradient4051"
       gradientUnits="userSpaceOnUse"
       gradientTransform="matrix(-0.72440295,-0.89033332,-2.2820431,0.88790031,1718.7881,-809.09364)"
       cx="-307.14288"
       cy="782.36218"
       fx="-307.14288"
       fy="782.36218"
       r="63" />
    <inkscape:path-effect
       is_visible="true"
       id="path-effect10096-8"
       effect="spiro" />
    <linearGradient
       inkscape:collect="always"
       xlink:href="#linearGradient4719-5"
       id="linearGradient4054"
       gradientUnits="userSpaceOnUse"
       gradientTransform="matrix(-2.409599,0,0,2.2818507,139.61083,-1810.8163)"
       x1="-145.25935"
       y1="984.24286"
       x2="-64.14286"
       y2="984.14789" />
    <radialGradient
       inkscape:collect="always"
       xlink:href="#linearGradient4801-8"
       id="radialGradient4056"
       gradientUnits="userSpaceOnUse"
       gradientTransform="matrix(0.74754985,1.2581972,2.3549614,-1.2547588,-1170.296,1723.935)"
       cx="-307.14288"
       cy="782.36218"
       fx="-307.14288"
       fy="782.36218"
       r="63" />
    <inkscape:path-effect
       is_visible="true"
       id="path-effect10090-3"
       effect="spiro" />
    <inkscape:path-effect
       effect="spiro"
       id="path-effect10084-1"
       is_visible="true" />
    <inkscape:path-effect
       effect="spiro"
       id="path-effect10082-1"
       is_visible="true" />
    <radialGradient
       inkscape:collect="always"
       xlink:href="#linearGradient4801-8"
       id="radialGradient4061"
       gradientUnits="userSpaceOnUse"
       gradientTransform="matrix(-0.76516322,1.2901254,-2.4104477,-1.2865998,1806.8444,1757.4704)"
       cx="-307.14288"
       cy="782.36218"
       fx="-307.14288"
       fy="782.36218"
       r="63" />
    <inkscape:path-effect
       effect="spiro"
       id="path-effect10080-4"
       is_visible="true" />
  </defs>
  <g
     inkscape:groupmode="layer"
     id="layer2"
     inkscape:label="Elements"
     style="display:inline">
    <use
       height="1052.3622"
       width="744.09448"
       y="0"
       x="0"
       id="background"
       xlink:href="#shield"
       style="fill:#00aaaa" />
    <path
       style="fill:#dddddd;fill-opacity:1;stroke:#aeaeae;stroke-width:3.0919342;stroke-linecap:butt;stroke-linejoin:miter;stroke-miterlimit:4;stroke-opacity:1;stroke-dasharray:none"
       d="m 334.28348,191.0745 -25.8768,-15.29083 -17.64326,2.35244 c 0,0 -6.38305,10.08583 -3.17696,15.36579 4.59183,7.56204 8.37512,2.92968 8.76276,8.55041 0.27271,3.9526 -1.77625,8.62176 -7.39046,15.25568 4.2101,-0.0562 6.89807,2.57051 19.63823,-8.54408 0,0 0.75211,6.53891 2.65223,9.83641 2.53808,4.40459 4.42137,2.70944 6.94779,7.12074 1.68622,2.94426 1.60333,4.55768 1.99495,7.92793 0.36234,3.11833 -5.23533,12.3157 -5.23533,12.3157 17.53133,-3.44719 19.34525,-32.15878 19.32685,-54.89019 z"
       id="path3663-6"
       inkscape:connector-curvature="0"
       sodipodi:nodetypes="cccssccssscc" />
    <path
       style="fill:#dddddd;fill-opacity:1;stroke:none"
       d="m 369.99116,261.88285 29.35124,-48.69657 -7.37904,-73.79004 -56.9237,-65.356891 -28.46201,-11.595569 -0.001,0 c 0,0 8.13321,-5.036993 21.13719,-8.810631 6.37781,-1.850847 18.91494,-4.171532 23.33542,-5.725549 6.40183,-2.250755 9.48506,-4.177961 17.38647,-7.832288 6.76479,-3.128585 14.99053,-5.311649 20.78039,-4.829215 14.06495,1.171933 18.33446,3.80435 24.45937,6.966763 0,0 -5.96128,5.252595 -7.77804,7.693694 -1.81676,2.441132 -1.37913,4.381193 -0.76456,6.577829 1.99077,7.112987 19.06428,6.524293 28.15197,10.779619 12.45726,5.833107 18.76365,15.208503 18.76365,15.208503 0,0 -5.34184,0.54519 -5.51586,3.732927 -0.45354,8.303652 10.61746,12.982779 15.96352,18.865688 2.74721,3.02288 5.82005,8.14704 6.70863,13.96995 0.99214,6.50102 0.77689,9.445 2.9498,15.22016 1.21615,3.23183 3.83025,7.25931 6.24762,10.14733 0,0 -4.43638,2.6751 -7.20762,2.92483 -3.35399,0.30225 -6.91674,-0.52867 -6.91674,-0.52867 0,0 6.05608,7.22506 8.5439,12.75484 1.9635,4.36496 0.75839,11.3115 1.64664,17.35443 0.9613,6.54319 3.93382,12.027 3.93382,12.027 l -9.27501,2.8777 c 0,0 4.22503,13.54654 3.58352,20.43103 -0.32141,3.44266 8.09652,13.66299 6.9729,22.0483 -3.1566,-0.21525 -11.9599,-3.74877 -13.36759,-3.37942 -11.56674,3.03515 -12.38714,7.99533 -13.93476,19.56607 -1.33985,10.01665 -0.22401,30.32461 -0.22401,30.32461 0,0 -18.40296,5.31509 -24.11394,10.96798 -9.02308,8.93121 -9.72595,32.0941 -9.72595,32.0941 0,0 -15.24117,-2.29153 -21.07226,1.66375 z"
       id="path52274-04-9"
       sodipodi:nodetypes="ccccccsssscssscsssscscssccscsscsccc"
       inkscape:connector-curvature="0" />
    <path
       style="font-size:medium;font-style:normal;font-variant:normal;font-weight:normal;font-stretch:normal;text-indent:0;text-align:start;text-decoration:none;line-height:normal;letter-spacing:normal;word-spacing:normal;text-transform:none;direction:ltr;block-progression:tb;writing-mode:lr-tb;text-anchor:start;color:#000000;fill:#aeaeae;fill-opacity:1;stroke:none;stroke-width:0.95238096;marker:none;visibility:visible;display:inline;overflow:visible;enable-background:accumulate;font-family:Bitstream Vera Sans;-inkscape-font-specification:Bitstream Vera Sans"
       d="m 413.21962,74.704566 c -6.17847,0.62275 -7.86375,2.91795 -11.60732,4.376908 0,0 9.13963,-0.59233 11.94334,-0.678752 6.11776,-0.188948 12.04041,1.035286 17.92572,1.881819 6.11451,0.879615 15.55835,10.024995 15.55835,10.024995 l 0.71813,-5.625848 5.15452,-2.321627 c 0,0 -13.67894,-6.067117 -20.82228,-6.947316 -6.45572,-0.795465 -14.55971,-1.144662 -18.87046,-0.710179 z"
       id="path52304-6-5"
       sodipodi:nodetypes="ccsscccss"
       inkscape:connector-curvature="0" />
    <path
       style="font-size:medium;font-style:normal;font-variant:normal;font-weight:normal;font-stretch:normal;text-indent:0;text-align:start;text-decoration:none;line-height:normal;letter-spacing:normal;word-spacing:normal;text-transform:none;direction:ltr;block-progression:tb;writing-mode:lr-tb;text-anchor:start;color:#000000;fill:#aeaeae;fill-opacity:1;stroke:none;stroke-width:0.95238096;marker:none;visibility:visible;display:inline;overflow:visible;enable-background:accumulate;font-family:Bitstream Vera Sans;-inkscape-font-specification:Bitstream Vera Sans"
       d="m 435.30512,133.98255 c 0,0 4.06239,1.80715 7.83648,2.35046 3.77409,0.5433 7.55078,2.65764 9.84803,3.70799 1.82812,0.83582 4.91524,3.20218 7.30469,5.27561 2.38945,2.07343 4.15946,3.85526 4.15978,3.85526 l 3.44911,-3.44944 c 0,0 -1.83558,-1.86555 -4.36236,-4.05816 -2.52677,-2.19261 -5.64637,-4.67095 -8.52214,-5.9858 -3.34523,-1.52937 -7.67188,-3.20442 -11.63589,-2.70783 l -8.0777,1.01191 z"
       id="path52310-0-4"
       sodipodi:nodetypes="csssccsssc"
       inkscape:connector-curvature="0" />
    <path
       style="font-size:medium;font-style:normal;font-variant:normal;font-weight:normal;font-stretch:normal;text-indent:0;text-align:start;text-decoration:none;line-height:normal;letter-spacing:normal;word-spacing:normal;text-transform:none;direction:ltr;block-progression:tb;writing-mode:lr-tb;text-anchor:start;color:#000000;fill:#aeaeae;fill-opacity:1;stroke:none;stroke-width:0.95238096;marker:none;visibility:visible;display:inline;overflow:visible;enable-background:accumulate;font-family:Bitstream Vera Sans;-inkscape-font-specification:Bitstream Vera Sans"
       d="m 442.93544,166.88465 c 0,0 3.68287,2.39948 6.22003,2.94278 2.53684,0.54318 4.13024,3.13339 5.0516,3.89633 1.60282,1.32715 2.59658,3.51473 3.55074,6.1887 0.95448,2.67397 1.74208,5.76577 3.75396,8.52214 1.30121,1.7827 3.26309,3.06252 4.97141,4.15962 1.708,1.0971 3.2566,5.06352 3.2566,5.06352 l 1.33107,-5.72893 4.57437,-3.22072 c 0,0 -5.1081,-0.18505 -6.63624,-1.16654 -1.52781,-0.9814 -3.18484,-1.46042 -3.54066,-1.94766 -1.33335,-1.82705 -2.13038,-4.46242 -3.14492,-7.3047 -0.54996,-1.54096 -1.29309,-3.93148 -3.24815,-6.43384 -1.65119,-2.1132 -5.53761,-4.75422 -7.18295,-4.78782 l -8.95686,-0.18278 z"
       id="path52316-3-9"
       sodipodi:nodetypes="cssssscccsssssc"
       inkscape:connector-curvature="0" />
    <path
       style="font-size:medium;font-style:normal;font-variant:normal;font-weight:normal;font-stretch:normal;text-indent:0;text-align:start;text-decoration:none;line-height:normal;letter-spacing:normal;word-spacing:normal;text-transform:none;direction:ltr;block-progression:tb;writing-mode:lr-tb;text-anchor:start;color:#000000;fill:#8d0101;fill-opacity:1;stroke:none;stroke-width:0.95238096;marker:none;visibility:visible;display:inline;overflow:visible;enable-background:accumulate;font-family:Bitstream Vera Sans;-inkscape-font-specification:Bitstream Vera Sans"
       d="m 451.73751,211.38377 c 0,0 -2.48716,6.29087 -2.70436,8.60305 -0.21751,2.31218 -0.33341,5.02673 0.30518,7.40615 0.64119,2.39659 2.00993,5.66994 3.36568,7.58295 1.35575,1.91302 1.04473,7.22217 1.04473,7.22217 l 3.34587,-6.82271 6.36061,-3.36477 c 0,0 -4.98148,0.0292 -6.20769,-1.70222 -1.22687,-1.73073 -2.96961,-3.2152 -3.24231,-4.23432 -0.26947,-1.00205 -1.23661,-4.24552 -1.44276,-6.33454 l -0.82397,-8.35576 z m -19.19186,44.64519 c 0,0 -3.19491,5.53537 -2.88974,8.5975 0.30842,3.06213 0.82559,6.5839 2.23199,9.33378 1.43367,2.80052 3.79747,4.73542 6.08725,6.18869 3.18971,2.02428 1.70118,6.03608 1.70118,6.03608 l 12.93255,-6.77148 c 0,0 -9.58018,-1.78968 -11.99593,-3.32276 -1.88721,-1.19758 -3.54131,-2.75919 -4.36269,-4.36252 -0.7256,-1.4188 -2.46996,-4.78325 -2.78942,-7.60906 z m -23.58767,38.24816 c 0,0 -3.7504,8.76752 -2.84007,13.87331 0.49542,2.77766 1.51029,5.47446 2.94201,7.91342 1.0931,1.86159 0.89572,3.83295 2.41022,5.47852 1.51451,1.64557 -0.70936,2.94216 -0.70936,2.94216 l 7.78225,-1.16852 1.06811,-9.30495 c 0,0 -2.9907,3.24319 -4.41236,1.6983 -1.4223,-1.5449 -2.10862,-1.31709 -2.76507,-2.43542 -1.12947,-1.92448 -3.17153,-5.21919 -3.22088,-7.4566 l -0.25323,-11.54022 z"
       id="path52322-2-1"
       sodipodi:nodetypes="cssscccssscccssccssssccsccscsssscc"
       inkscape:connector-curvature="0" />
    <path
       style="fill:none;stroke:#aeaeae;stroke-width:3.0919342;stroke-linecap:butt;stroke-linejoin:miter;stroke-miterlimit:4;stroke-opacity:1;stroke-dasharray:none;display:inline"
       d="m 370.36769,261.25783 28.97464,-48.07155 -7.37904,-73.79001 -56.9237,-65.356886 -28.46202,-11.595569 -10e-4,0 c 0,0 8.13321,-5.036993 21.13719,-8.810631 6.3778,-1.850847 18.91493,-4.171532 23.33541,-5.725549 6.40183,-2.250755 9.48506,-4.177961 17.38647,-7.832288 6.7648,-3.128585 14.99053,-5.311649 20.7804,-4.829215 14.06494,1.171933 18.33445,3.80435 24.45936,6.966763 0,0 -5.96128,5.252595 -7.77804,7.693694 -1.81676,2.441132 -1.37912,4.381193 -0.76456,6.577829 1.99078,7.112987 19.06428,6.524293 28.15197,10.779619 12.45727,5.833107 18.76365,15.208503 18.76365,15.208503 0,0 -5.34184,0.54519 -5.51585,3.732927 -0.45354,8.303652 10.61745,12.982779 15.96351,18.865693 2.74722,3.02287 5.82006,8.14703 6.70863,13.96995 0.99214,6.50101 0.7769,9.445 2.9498,15.22016 1.21615,3.23182 3.83026,7.2593 6.24763,10.14732 0,0 -4.43639,2.67511 -7.20763,2.92483 -3.35399,0.30226 -6.91673,-0.52866 -6.91673,-0.52866 0,0 6.05608,7.22506 8.54389,12.75484 1.96351,4.36496 0.75839,11.3115 1.64664,17.35443 0.9613,6.54319 3.93383,12.027 3.93383,12.027 l -9.27502,2.87769 c -1.07687,14.80058 11.64563,30.72715 10.55642,42.4793 -3.1566,-0.21525 -11.95989,-3.74877 -13.36759,-3.37941 -11.56674,3.03515 -12.38714,7.99533 -13.93476,19.56606 -1.33984,10.01665 -0.22401,30.32461 -0.22401,30.32461 0,0 -18.40296,5.31509 -24.11393,10.96798 -9.02309,8.93121 -9.72596,32.0941 -9.72596,32.0941 0,0 -15.24116,-2.29153 -21.07226,1.66375 z"
       id="path52274-9-6-7"
       sodipodi:nodetypes="ccccccsssscssscsssscscsscccsscsccc"
       inkscape:connector-curvature="0" />
    <path
       style="font-size:medium;font-style:normal;font-variant:normal;font-weight:normal;font-stretch:normal;text-indent:0;text-align:start;text-decoration:none;line-height:normal;letter-spacing:normal;word-spacing:normal;text-transform:none;direction:ltr;block-progression:tb;writing-mode:lr-tb;text-anchor:start;color:#000000;fill:#aeaeae;fill-opacity:1;stroke:none;stroke-width:0.95238096;marker:none;visibility:visible;display:inline;overflow:visible;enable-background:accumulate;font-family:Bitstream Vera Sans;-inkscape-font-specification:Bitstream Vera Sans"
       d="m 384.71086,44.572701 c -5.72623,1.413442 -10.24378,1.734589 -14.81197,5.648347 -2.55307,2.187285 -14.07177,7.805277 -16.23071,11.582324 -2.15894,3.777046 -11.03398,8.640122 -11.03398,8.640122 l 34.10383,19.153818 c 0,0 -12.27611,-15.560687 -10.19248,-19.205665 2.08329,-3.644978 5.43371,-12.428175 6.49825,-13.340093 4.16043,-3.564366 8.34131,-7.10526 13.49356,-9.158626 3.27867,-1.306793 15.02787,-3.987616 15.02787,-3.987616 -16.63912,-0.79118 -10.37916,-0.930911 -16.85437,0.667389 z"
       id="path52298-9-5"
       sodipodi:nodetypes="cssccssscs"
       inkscape:connector-curvature="0" />
    <path
       style="font-size:medium;font-style:normal;font-variant:normal;font-weight:normal;font-stretch:normal;text-indent:0;text-align:start;text-decoration:none;line-height:normal;letter-spacing:normal;word-spacing:normal;text-transform:none;direction:ltr;block-progression:tb;writing-mode:lr-tb;text-anchor:start;color:#000000;fill:#aeaeae;fill-opacity:1;stroke:none;stroke-width:0.95238096;marker:none;visibility:visible;display:inline;overflow:visible;enable-background:accumulate;font-family:Bitstream Vera Sans;-inkscape-font-specification:Bitstream Vera Sans"
       d="m 427.6261,90.024134 c 0,0 0.67139,2.06778 1.82618,4.565434 1.15479,2.497653 2.70468,5.426642 4.86979,7.609052 2.86507,2.88789 6.60604,4.2527 9.9425,5.57998 3.33646,1.32728 6.27165,2.63031 7.91342,4.56543 1.39991,1.64999 3.9322,5.30016 4.69319,8.42069 0.76131,3.12054 2.01447,7.82366 2.01447,7.82366 2.0807,-5.67413 1.5197,-6.24055 1.51029,-8.93965 0,-3.40961 -2.00149,-7.54711 -4.46398,-10.44977 -2.67092,-3.14816 -6.45605,-4.63913 -9.84121,-5.98579 -3.38516,-1.34667 -6.48917,-2.51811 -8.31924,-4.36253 L 427.6261,90.024134 z"
       id="path52347-4-5"
       sodipodi:nodetypes="cssssscssscc"
       inkscape:connector-curvature="0" />
    <path
       inkscape:connector-curvature="0"
       style="fill:#dddddd;fill-opacity:1;stroke:none"
       d="m 370.95404,299.06976 c 0,0 -7.71761,21.55937 -13.0774,28.98795 -7.39141,10.24427 -14.56463,14.57508 -24.90476,19.33572 -5.3691,2.47216 -9.81858,5.49687 -15.18768,7.96903 -6.11012,2.813 -9.49327,6.84959 -12.46792,14.11171 -4.40138,10.74539 -0.67188,32.65135 -0.67188,32.65135 0,0 4.71195,-16.19168 9.94491,-21.01599 6.37883,-5.88067 16.61654,-6.86293 16.61654,-6.86293 0,0 -5.18962,7.43679 -5.53495,12.05309 -0.4312,5.76518 4.5595,16.40261 4.5595,16.40261 0,0 4.12212,-14.01056 8.4243,-18.72768 3.25375,-3.56745 7.73996,-5.50636 12.04154,-6.02527 4.05633,-0.48952 7.93718,2.7087 12.01037,2.86246 3.02335,0.11408 9.00063,-1.44802 9.00063,-1.44802 0,0 3.43693,6.85064 5.76315,9.25553 2.87183,2.96891 9.07398,4.70716 9.07398,4.70716 0,0 -4.64762,-16.65138 -4.52839,-25.29032 0.12574,-9.10546 0.88397,-14.3384 2.70819,-23.15332 2.09134,-10.10362 7.05769,-37.60921 7.05769,-37.60921 0,0 -1.48088,-7.11199 -5.13781,-10.41411 -1.72393,-1.55669 -4.08449,-2.02918 -6.20283,-1.83187 -4.30941,0.40181 -9.48718,4.04211 -9.48718,4.04211 z"
       id="path52406-71-6-18"
       sodipodi:nodetypes="csssscscscssscscsscssc" />
    <path
       inkscape:connector-curvature="0"
       style="font-size:medium;font-style:normal;font-variant:normal;font-weight:normal;font-stretch:normal;text-indent:0;text-align:start;text-decoration:none;line-height:normal;letter-spacing:normal;word-spacing:normal;text-transform:none;direction:ltr;block-progression:tb;writing-mode:lr-tb;text-anchor:start;color:#000000;fill:#aeaeae;fill-opacity:1;stroke:none;stroke-width:0.92576534;marker:none;visibility:visible;display:inline;overflow:visible;enable-background:accumulate;font-family:Bitstream Vera Sans;-inkscape-font-specification:Bitstream Vera Sans"
       d="m 379.92609,311.84416 c 0,0 -2.56603,17.19154 -3.99624,24.54883 -1.76459,9.07745 -7.23411,17.67034 -8.08042,28.26964 -0.23956,2.99841 -0.52215,4.70343 0.10206,7.7593 0.32893,1.61033 0.0879,3.43307 -1.69294,5.12277 -1.59801,1.51783 -4.74171,2.99293 -4.74171,2.99293 l 8.93658,-2.13825 5.6553,6.55852 c 0,0 -3.76899,-8.61296 -4.3588,-11.50065 -0.58981,-2.88769 -1.09412,-6.3987 -0.93874,-8.34457 0.72929,-9.1315 8.7166,-21.88449 8.84962,-32.36861 l 0.26529,-20.89991 z m -20.04721,32.88632 c 0,0 -3.16587,8.42901 -5.66441,12.50862 -2.89948,4.73404 -8.43506,8.02525 -13.22516,10.95544 -4.55447,2.7864 -12.68143,5.17152 -12.68143,5.17152 l 1.21403,3.80244 -3.09004,6.56249 c 0,0 5.13137,-5.65079 8.5338,-8.449 2.58726,-2.1275 5.52357,-2.23312 7.76108,-3.60207 4.74879,-2.90516 13.59293,-7.7018 14.91578,-14.85475 l 2.23635,-12.09469 z"
       id="path52408-8-0-8"
       sodipodi:nodetypes="csssscccsssccsscccsssc" />
    <path
       inkscape:connector-curvature="0"
       style="fill:none;stroke:#aeaeae;stroke-width:3.0919342;stroke-linecap:butt;stroke-linejoin:miter;stroke-miterlimit:4;stroke-opacity:1;stroke-dasharray:none;display:inline"
       d="m 370.95404,299.06976 c 0,0 -7.71761,21.55937 -13.0774,28.98795 -7.39141,10.24427 -14.56463,14.57508 -24.90476,19.33572 -5.3691,2.47216 -9.81858,5.49687 -15.18768,7.96903 -6.11012,2.813 -9.49327,6.84959 -12.46792,14.11171 -4.40138,10.74539 -0.1876,28.2923 -0.1876,28.2923 0,0 4.22767,-11.83263 9.46063,-16.65694 6.37883,-5.88067 16.61654,-6.86293 16.61654,-6.86293 0,0 -5.18962,7.43679 -5.53495,12.05309 -0.4312,5.76518 4.5595,16.40261 4.5595,16.40261 0,0 4.12212,-14.01056 8.4243,-18.72768 3.25375,-3.56745 7.73996,-5.50636 12.04154,-6.02527 4.05633,-0.48952 7.93718,2.7087 12.01037,2.86246 3.02335,0.11408 9.00063,-1.44802 9.00063,-1.44802 0,0 3.43693,6.85064 5.76315,9.25553 2.87183,2.96891 9.07398,4.70716 9.07398,4.70716 0,0 -4.64762,-16.65138 -4.52839,-25.29032 0.12574,-9.10546 0.88397,-14.3384 2.70819,-23.15332 2.09134,-10.10362 7.05769,-37.60921 7.05769,-37.60921 0,0 -1.48088,-7.11199 -5.13781,-10.41411 -1.72393,-1.55669 -4.08449,-2.02918 -6.20283,-1.83187 -4.30941,0.40181 -9.48718,4.04211 -9.48718,4.04211 z"
       id="path52406-1-7-4-3"
       sodipodi:nodetypes="csssscscscssscscsscssc" />
    <path
       style="fill:#dddddd;fill-opacity:1;stroke:#aeaeae;stroke-width:3.0919342;stroke-linecap:butt;stroke-linejoin:miter;stroke-miterlimit:4;stroke-opacity:1;stroke-dasharray:none"
       d="m 345.69866,448.18163 c 0,0 8.3386,8.74081 14.36222,10.40324 7.1208,1.96514 15.31978,0.8987 22.05894,-2.12678 6.83329,-3.06796 17.20834,-14.57056 17.20834,-14.57056 2.4768,-2.29684 7.53508,-2.12496 9.92849,2.02831 1.95282,3.38864 7.74036,12.96509 7.74036,12.96509 0,0 2.9272,-7.33389 3.5615,-12.7848 0.66466,-5.70974 -1.28342,-17.1973 -1.28342,-17.1973 0,0 6.247,2.11011 9.09938,4.82832 3.52899,3.3631 5.4629,10.4739 5.4629,10.4739 0,0 4.21442,-4.42384 6.9432,-10.26347 1.39579,-2.98786 2.10598,-6.63419 2.54114,-9.39737 0.45977,-2.91864 -2.26101,-12.41456 -1.82843,-16.9264 0.74776,-7.79713 0.7383,-7.23111 0.7383,-7.23111 0,0 5.38444,1.635 7.44743,3.42731 3.01952,2.62331 6.49071,10.09325 6.49071,10.09325 0,0 6.10529,-10.68847 5.977,-17.49995 -0.0581,-3.0893 -2.95346,-10.78358 -3.66559,-16.21778 -0.76682,-5.85202 0.64762,-9.34729 0.64762,-9.34729 0,0 6.56154,4.62359 10.10737,5.37126 4.2906,0.90452 12.04242,-1.52874 12.04242,-1.52874 0,0 -7.25407,-5.71042 -10.56491,-15.02657 -4.46559,-12.56559 -7.77357,-25.22367 -17.73136,-34.45506 -10.54482,-9.7756 -23.43191,-14.81175 -23.43191,-14.81175 l -11.74585,52.12321 -37.84717,63.2674 -34.25868,24.40364 z"
       id="path52201-43-2"
       sodipodi:nodetypes="csssscscscssscscsscscsscccc"
       inkscape:connector-curvature="0" />
    <path
       style="font-size:medium;font-style:normal;font-variant:normal;font-weight:normal;font-stretch:normal;text-indent:0;text-align:start;text-decoration:none;line-height:normal;letter-spacing:normal;word-spacing:normal;text-transform:none;direction:ltr;block-progression:tb;writing-mode:lr-tb;text-anchor:start;color:#000000;fill:#aeaeae;fill-opacity:1;stroke:none;stroke-width:0.95238096;marker:none;visibility:visible;display:inline;overflow:visible;enable-background:accumulate;font-family:Bitstream Vera Sans;-inkscape-font-specification:Bitstream Vera Sans"
       d="m 447.33797,369.64974 -0.37347,10.87614 c -2.3685,-1.42934 -2.65819,-5.99394 -3.59375,-8.8613 -0.73496,-2.25308 -2.19943,-2.77119 -3.1483,-4.5445 -1.13439,-2.12012 -4.40124,-3.71771 -7.68558,-6.27924 -1.28488,-1.00214 -1.38396,-1.04082 -2.39426,-1.75716 l -6.92807,25.64747 c 0.63884,0.61716 0.85128,0.85743 1.89554,1.97986 1.81639,1.95375 4.17364,4.11509 5.35819,6.73744 1.36174,3.0146 1.51268,8.60208 0.79236,11.7301 l -2.04778,8.89436 c 0,0 -1.70232,-6.75691 -1.9942,-9.67843 -0.29198,-2.92188 -0.48413,-6.14204 -1.12904,-7.56984 -0.46791,-1.03583 -4.08927,-3.91158 -5.71893,-5.66474 -1.6299,-1.7534 -3.06091,-3.11033 -3.06091,-3.11033 l -1.38373,-1.34227 0.5456,-1.87361 8.5536,-31.98594 1.22582,-4.32335 3.69655,2.45505 c 0,0 3.06695,1.95054 6.60046,4.70657 1.76676,1.37822 3.55039,3.15545 5.45069,4.58067 2.05927,1.54437 5.41973,7.03676 5.3391,9.38316 z m -43.67017,31.88029 c 0,0 4.60424,7.58321 6.43364,12.60141 1.59808,4.38333 1.11467,15.97663 1.11467,15.97663 -2.80659,-3.55295 -2.63882,-6.8392 -4.56908,-11.08992 -1.79143,-3.94482 -10.3918,-9.87693 -12.53016,-13.74013 l 9.55093,-3.74799 z"
       id="path52205-6-2"
       sodipodi:nodetypes="ccsssccssscsssccccccssscscscc"
       inkscape:connector-curvature="0" />
    <path
       inkscape:connector-curvature="0"
       style="fill:#dddddd;fill-opacity:1;stroke:none;display:inline"
       d="m 326.90075,200.80831 c -1.85733,-2.66139 -5.99959,-7.7696 -15.93722,-11.58106 -6.0379,-2.31578 -11.99139,-0.80426 -17.82021,-0.71368 -6.24893,0.0971 -12.20142,-1.36221 -13.21954,-8.54981 0,0 13.0608,-8.3954 17.14265,-15.49069 1.03663,-1.80179 2.49853,-4.35337 3.03875,-8.06204 0.48407,-3.32409 0.11038,-7.81142 -0.0455,-9.66788 -0.62723,-7.38631 -7.74524,-15.50907 -7.74524,-15.50907 0,0 -10.6194,-1.22926 -14.86685,-4.12962 -4.54709,-3.10501 -8.46142,-7.90293 -9.91101,-13.21484 -0.87527,-3.20676 1.10122,-9.91111 1.10122,-9.91111 l -0.002,0 c -7.39139,-1.61485 -15.56646,-3.84331 -21.45601,-6.709699 -5.847,-2.845683 -8.2793,-6.320152 -12.58841,-10.447336 0,0 13.57764,-18.728625 26.15631,-25.859986 9.9159,-5.621693 21.08557,-9.762157 32.37345,-11.345976 12.20306,-1.712189 25.27363,-0.49014 37.34451,1.987882 38.4747,7.898426 70.39715,31.197378 90.47985,63.430165 37.22596,59.74782 44.85565,129.09998 36.93551,180.94476 -5.55172,36.34129 -20.78448,76.9083 -42.49848,108.23166 -30.39356,43.84409 -74.38947,73.1944 -130.26764,79.333 89.91536,-64.6827 107.67982,-188.31481 41.78542,-282.73467 z"
       id="path51568-5-6-2-6-6"
       sodipodi:nodetypes="ssscssscssccscsssssscs" />
    <path
       style="fill:#b00000;stroke:#aeaeae;stroke-width:3.0919342;stroke-linecap:butt;stroke-linejoin:miter;stroke-miterlimit:4;stroke-opacity:1;stroke-dasharray:none"
       d="m 239.0133,117.96416 c 62.49507,22.8585 40.34431,45.59026 -15.51485,38.50811 l 23.38866,21.45418 36.94649,-3.0284 16.82028,-17.49805 -1.67846,-33.98475 z"
       id="path52261-3-7"
       sodipodi:nodetypes="ccccccc"
       inkscape:connector-curvature="0" />
    <path
       style="fill:#dddddd;fill-opacity:1;stroke:#aeaeae;stroke-width:3.0919342;stroke-linecap:butt;stroke-linejoin:miter;stroke-miterlimit:4;stroke-opacity:1;stroke-dasharray:none"
       d="m 285.21013,124.79181 c 4.67955,11.72352 10.4652,20.40188 3.11667,29.9749 -2.27387,2.96242 -5.59637,5.08069 -8.76888,6.61912 -13.11825,6.36145 -33.31687,3.43041 -49.16059,-0.91286 -3.37899,-0.92627 -13.70036,-7.257 -13.70036,-7.257 l 1.11908,7.78625 c 1.00934,7.02312 13.25753,15.56718 20.18758,17.08928 11.77776,2.58684 23.56429,4.06294 35.80988,3.68926 6.28723,-0.19187 18.33576,-4.46001 18.33576,-4.46001 l 17.84001,-20.81335 -6.44242,-27.2556 -18.33543,-4.45999 z"
       id="path52257-8-8"
       sodipodi:nodetypes="cssscsssccccc"
       inkscape:connector-curvature="0" />
    <path
       style="fill:#dddddd;fill-opacity:1;stroke:none"
       d="m 288.65229,125.05107 c 0,0 -20.58138,11.07791 -34.14993,10.8962 -10.53142,-0.14123 -25.39177,1.17047 -35.56088,-1.57116 -12.21539,-3.29328 -22.70851,-6.07387 -31.36408,-15.3011 -3.14492,-3.35269 -7.44462,-15.55926 -5.25549,-19.450125 4.027,-7.157075 31.58745,-9.471494 46.3056,-8.369524 0,0 8.4439,-5.565853 13.14033,-7.324012 5.03245,-1.884026 13.02509,-4.152832 13.02509,-4.152832 l 30.05508,17.500327 z"
       id="path52217-8-7"
       sodipodi:nodetypes="csssscsccc"
       inkscape:connector-curvature="0" />
    <path
       inkscape:connector-curvature="0"
       style="fill:none;stroke:#aeaeae;stroke-width:3.0919342;stroke-linecap:butt;stroke-linejoin:miter;stroke-miterlimit:4;stroke-opacity:1;stroke-dasharray:none;display:inline"
       d="m 235.0625,87.28125 c -3.42926,1.974958 -6.4375,3.96875 -6.4375,3.96875 -14.71815,-1.10197 -43.00425,0.842925 -47.03125,8 -2.18913,3.89087 1.10508,14.20981 4.25,17.5625 8.65558,9.22723 18.89249,14.62248 31.28125,17.1875 26.26545,5.43807 47.60135,1.56761 63.78125,-5.28125 -1.32752,-0.47225 -2.55895,-1.00375 -3.46875,-1.625 -4.54709,-3.10502 -8.45666,-7.90684 -9.90625,-13.21875 -0.87527,-3.20676 1.09375,-9.90625 1.09375,-9.90625 -7.39139,-1.61486 -15.54795,-3.82111 -21.4375,-6.6875 -5.62326,-2.736792 -8.11147,-6.078751 -12.125,-10 z m 45.84375,41.4375 c 1.1181,-0.47329 2.21266,-0.96914 3.28125,-1.46875 -1.073,0.49484 -2.16424,0.99592 -3.28125,1.46875 z"
       id="path52217-1-1-1" />
    <path
       style="fill:#aeaeae;fill-opacity:1;stroke:none"
       d="m 228.4522,91.217311 c 0,0 1.20803,5.53579 2.74364,7.839269 1.8989,2.84831 4.74513,5.03715 7.64331,6.85937 4.78603,3.0093 15.67879,6.46741 15.67879,6.46741 0,0 -12.68711,-1.20271 -18.42244,-3.72367 -4.06725,-1.78767 -7.90725,-4.4494 -10.7788,-7.83927 -2.26608,-2.675044 -4.70358,-9.407148 -4.70358,-9.407148 l 7.83908,-0.19609 0,1.29e-4 z"
       id="path52241-5-8"
       sodipodi:nodetypes="csscssccc"
       inkscape:connector-curvature="0" />
    <path
       inkscape:connector-curvature="0"
       style="fill:#aeaeae;fill-opacity:1;stroke:none"
       d="m 212.58665,103.31908 c 3.12024,0.93543 6.28983,7.48017 6.28983,7.48017 0,0 -4.84545,-3.17011 -7.58909,-3.94541 -2.74365,-0.7753 -8.53156,-0.60999 -8.53156,-0.60999 0,0 6.55572,-3.90645 9.83082,-2.92477 z"
       id="path52248-3-7"
       sodipodi:nodetypes="ccscs" />
    <path
       inkscape:connector-curvature="0"
       style="color:#000000;fill:#dddddd;fill-opacity:1;fill-rule:nonzero;stroke:none;stroke-width:1;marker:none;visibility:visible;display:inline;overflow:visible;enable-background:accumulate"
       d="m 376.17328,428.15176 c 5.63209,-12.17437 11.05577,-25.55818 13.04076,-35.56337 5.97016,-30.09216 1.71114,-61.52392 -1.61442,-92.0218 -2.49971,-22.92418 -5.48939,-46.26529 -13.72253,-67.80553 -4.7776,-12.49952 -16.95546,-25.41482 -20.31129,-34.62691 -2.85401,-7.83459 -20.78265,-20.81338 -20.78265,-20.81338 0,0 5.40158,1.30086 5.50222,-0.1857 0.16758,-2.4723 -7.26737,-7.36209 -8.1858,-12.50105 -0.58277,-3.26121 -7.18522,-13.22783 -6.72746,-16.58218 0.72462,-5.30928 17.03096,11.13683 15.70866,7.58 -0.97495,-2.62226 -2.49528,-12.279 -4.93018,-16.85628 -1.84533,-3.46951 -7.97543,-6.58367 -10.29314,-9.27846 -1.26875,-1.47519 6.98038,-4.20461 6.09309,-5.41794 -2.37418,-3.24672 -6.58657,-5.32129 -9.49317,-6.4168 -11.33753,-4.27302 -42.18542,8.12058 -42.18542,8.12058 l -0.82592,1.3215 c 4.24742,2.90035 14.86682,4.12962 14.86682,4.12962 0,0 7.11804,8.12276 7.74527,15.50907 0.3334,3.92769 -1.02624,14.31311 -2.99169,17.72992 -4.08185,7.09526 -17.14265,15.49069 -17.14265,15.49069 1.01812,7.1876 6.97061,8.64688 13.21954,8.54981 5.82882,-0.0906 11.78231,-1.6021 17.82021,0.71368 9.93763,3.81146 14.6847,8.58708 15.93722,11.58106 l 20.33846,37.60323 9.6865,26.63789 8.8793,43.58926 0,40.36044 -11.30093,45.20367 -25.8307,49.23974 -43.58925,40.36043 26.63788,-4.03602 48.43255,-20.18025 28.20614,-22.80942 23.24763,-25.7384 17.4357,-27.39896 17.43569,-40.68333 c 0,0 -26.51225,41.98126 -41.51357,58.94927 -9.67299,10.94118 -28.79287,26.24592 -28.79287,26.24592 z"
       id="path51568-8-9-8"
       sodipodi:nodetypes="csssssscsscscsssssssscccccccccccccccsc" />
    <path
       inkscape:connector-curvature="0"
       style="color:#000000;fill:#aeaeae;fill-opacity:1;fill-rule:nonzero;stroke:none;stroke-width:1;marker:none;visibility:visible;display:inline;overflow:visible;enable-background:accumulate"
       d="m 312.14384,108.25794 c 0,12.71138 -10.13836,23.01593 -22.64474,23.01593 -12.50638,0 -22.64477,-10.30455 -22.64477,-23.01593 0,-12.711299 10.13839,-23.015927 22.64477,-23.015927 6.83271,0 9.13045,4.119461 13.28236,8.982693 3.44763,4.038691 9.36238,8.266354 9.36238,14.033234 z"
       id="path51782-5-7"
       sodipodi:nodetypes="cssssc" />
    <path
       inkscape:connector-curvature="0"
       style="fill:#dddddd;fill-opacity:1;stroke:none;display:inline"
       d="m 233.58313,87.169182 10.36392,9.330473 23.09518,6.884655 c 0,0 17.52089,-18.586457 26.53716,-22.676192 11.76964,-5.338722 13.89352,-6.359122 26.80402,-5.765131 14.7071,0.67664 27.07478,4.585619 40.3557,10.939207 14.3766,6.877702 33.1398,19.009646 44.14715,30.534686 7.51931,7.87315 13.15335,17.45382 18.33936,27.0263 5.81615,10.73536 10.87217,25.3292 14.15649,37.08885 1.37084,4.90839 8.16444,30.29819 13.19845,57.76689 5.03404,27.46873 8.3085,53.71036 8.3085,53.71036 0.58221,-8.84359 0.78788,-17.94786 0.53156,-27.37198 -0.25632,-9.42413 2.8247,-14.73546 1.55868,-24.85861 -1.19027,-9.51772 -2.23139,-22.53675 -4.46092,-32.77393 -2.22951,-10.23722 -5.01416,-20.85873 -8.42513,-31.91382 L 437.2951,146.86858 425.28846,121.89477 418.29284,110.21622 403.34432,92.488301 392.38662,81.099279 376.80685,72.50985 365.9459,65.184807 349.43175,56.661113 333.04619,51.366451 313.5686,47.86774 l -25.13042,1.292213 -21.12358,7.169457 -15.023,9.760159 -9.97366,9.917694 z"
       id="path51677-4-4"
       sodipodi:nodetypes="cccssssssscssscccccccccccccccc" />
    <path
       inkscape:connector-curvature="0"
       style="color:#000000;fill:#ffffff;fill-opacity:1;fill-rule:nonzero;stroke:none;stroke-width:1;marker:none;visibility:visible;display:inline;overflow:visible;enable-background:accumulate"
       d="m 291.67623,89.045562 c -9.56345,0 -19.41367,9.584161 -19.41367,19.189818 0,9.60566 7.7546,17.36759 17.31801,17.36759 9.56345,0 17.1398,-7.74648 17.1398,-17.36759 0,-9.621108 -5.48073,-19.189818 -15.04414,-19.189818 z"
       id="path51827-1-49"
       sodipodi:nodetypes="csssc" />
    <path
       sodipodi:type="arc"
       style="color:#000000;fill:#ffffff;fill-opacity:1;fill-rule:nonzero;stroke:none;stroke-width:0.804169;marker:none;visibility:visible;display:inline;overflow:visible;enable-background:accumulate"
       id="path51757-8-5"
       sodipodi:cx="1109.0848"
       sodipodi:cy="680.63422"
       sodipodi:rx="1.7640833"
       sodipodi:ry="2.5256095"
       d="m 1110.8489,680.63422 a 1.7640833,2.5256095 0 1 1 -3.5281,0 1.7640833,2.5256095 0 1 1 3.5281,0 z"
       transform="matrix(3.8448811,0,0,3.8448811,-3978.7449,-2509.2502)" />
    <path
       sodipodi:nodetypes="csssccsssssc"
       style="color:#000000;fill:#1a1a1a;stroke:none;stroke-width:0.804169;marker:none;visibility:visible;display:inline;overflow:visible;enable-background:accumulate"
       d="m 289.43377,95.89705 c -7.10726,0 -12.85651,5.58365 -12.85651,12.49586 0,6.91222 5.74925,12.49587 12.85651,12.49587 7.10688,0 12.85613,-5.58365 12.85613,-12.49587 0,-6.91221 -5.74925,-12.49586 -12.85613,-12.49586 z m -1.70059,3.823196 c 2.61337,0 -0.94315,4.409044 -0.94315,8.093594 0,3.68455 3.14857,7.02194 0.82281,8.21378 -1.3707,0.70242 -3.71993,0.58311 -5.35285,-1.44203 -1.48105,-1.83643 -2.31846,-5.4578 -2.31846,-7.3942 0,-1.65157 1.16923,-3.93228 2.36883,-5.27918 1.73789,-1.95212 3.87602,-2.616977 5.42282,-2.191964 z"
       id="path51730-3-5"
       inkscape:connector-curvature="0" />
    <path
       inkscape:connector-curvature="0"
       style="fill:#dddddd;fill-opacity:1;stroke:none;display:inline"
       d="m 234.72397,86.661918 11.71414,10.250047 15.27072,4.602055 13.3877,-1.673459 18.61756,-16.107208 c -18.99805,6.437481 -37.39744,12.110893 -50.41374,-6.903195 l -8.57638,9.831665 0,9.5e-5 z"
       id="path51831-5-5"
       sodipodi:nodetypes="cccccccc" />
    <path
       inkscape:connector-curvature="0"
       style="font-size:medium;font-style:normal;font-variant:normal;font-weight:normal;font-stretch:normal;text-indent:0;text-align:start;text-decoration:none;line-height:normal;letter-spacing:normal;word-spacing:normal;text-transform:none;direction:ltr;block-progression:tb;writing-mode:lr-tb;text-anchor:start;color:#000000;fill:#aeaeae;fill-opacity:1;stroke:none;stroke-width:1;marker:none;visibility:visible;display:inline;overflow:visible;enable-background:accumulate;font-family:Bitstream Vera Sans;-inkscape-font-specification:Bitstream Vera Sans"
       d="m 293.70469,80.471922 -2.53619,1.724718 c -4.92369,3.348701 -9.93763,7.272229 -14.5081,10.754133 -2.1044,1.603202 -5.5149,4.637345 -9.53896,5.748991 -4.71526,1.302536 -10.03892,0.589765 -11.58232,1.19836 l 12.05047,4.466906 -0.16232,2.18059 c 4.20166,-1.65693 8.51175,-4.85729 13.18901,-8.420686 3.91306,-2.98103 7.60403,-5.239122 11.52194,-8.054254 1.15901,1.46964 2.59172,2.242215 5.52235,5.5179 2.03007,2.269065 4.26594,5.61991 6.49306,7.64045 2.22712,2.02055 3.24687,2.67888 5.64216,3.62096 5.96549,2.34626 14.56101,2.31211 20.73591,1.92762 5.04316,-0.31394 7.66376,-0.78404 9.02925,-1.01454 3.42738,4.10297 5.72363,7.90806 5.37724,10.55123 l -0.20128,1.92763 1.52197,1.11599 c 4.39676,3.20228 9.7805,2.35403 14.30487,1.62326 1.04083,-0.16817 1.58202,1.51799 1.72455,2.4349 1.38173,8.89426 10.57816,12.88006 15.01196,12.3774 -2.26771,-2.8051 -5.8337,-1.40581 -8.11632,-9.02941 -0.31167,-1.03532 -0.10389,-2.49496 -0.50711,-4.56544 -0.45711,-2.34831 -1.89956,-5.20344 -4.8698,-7.40614 l -1.82455,-1.31891 -1.82619,1.21745 c -3.25398,2.0321 -5.77264,1.83348 -8.92796,-0.10129 -0.39963,-5.48411 -4.04258,-10.14229 -7.8118,-14.40648 l -1.21745,-1.42036 -1.8265,0.40582 c 0,0 -4.48377,0.75719 -10.2467,1.11599 -5.7629,0.35881 -12.76536,0.18277 -16.84136,-1.42035 -0.85254,-0.33534 -2.80371,-1.667131 -4.7682,-3.449443 -1.9648,-1.782314 -4.05102,-4.025992 -5.98595,-6.188701 -3.86987,-4.325384 -7.00017,-8.319235 -7.00017,-8.319235 l -1.8265,-2.434898 0,-1.61e-4 9.9e-4,0 z"
       id="path51807-2-8"
       sodipodi:nodetypes="ccsscccscssssccccsscsscccccccsssscccc" />
    <path
       inkscape:connector-curvature="0"
       style="font-size:medium;font-style:normal;font-variant:normal;font-weight:normal;font-stretch:normal;text-indent:0;text-align:start;text-decoration:none;line-height:normal;letter-spacing:normal;word-spacing:normal;text-transform:none;direction:ltr;block-progression:tb;writing-mode:lr-tb;text-anchor:start;color:#000000;fill:#aeaeae;fill-opacity:1;stroke:none;stroke-width:1;marker:none;visibility:visible;display:inline;overflow:visible;enable-background:accumulate;font-family:Bitstream Vera Sans;-inkscape-font-specification:Bitstream Vera Sans"
       d="m 311.11843,118.19677 c 0,0 3.80623,2.76183 5.92198,2.95824 2.11544,0.19674 4.61202,0.59269 5.78272,1.01454 0.69022,0.24869 2.12358,1.1382 3.34783,1.92763 l -6.79725,3.65235 -4.7682,2.4349 4.97109,1.92762 9.02925,3.44944 c 2.40179,0.92374 4.89837,5.32646 6.39177,9.84105 0.61685,1.86487 0.82332,3.7365 1.31875,6.59451 -2.2953,-2.12904 -4.64675,-4.40645 -6.08725,-5.47852 -5.25094,-3.90859 -11.15963,-2.13053 -11.15963,-2.13053 l -3.95687,1.3189 3.04364,2.84072 c 0,0 4.53571,4.36512 7.4063,9.43523 0.51134,0.90318 0.80773,2.18683 1.01421,3.85525 0.20778,1.66843 0.38928,3.68475 1.42068,5.68143 1.22623,2.37451 3.43808,5.07008 5.4782,7.40615 0.30827,0.35433 0.31491,0.28149 0.60905,0.60872 -0.80904,0.0932 -0.78662,0.13246 -1.72487,0.2029 -3.42054,0.25712 -7.55662,0.0863 -8.82636,-0.50727 -0.57494,-0.26882 -2.35763,-1.61668 -3.75394,-2.73926 -1.39635,-1.12259 -2.53653,-2.13054 -2.53653,-2.13054 l -2.53619,-2.23199 -1.31874,3.14508 c 0,0 -0.56002,1.44876 -1.42069,3.14507 -0.86033,1.69632 -2.09497,3.67076 -2.73908,4.26108 -1.15286,1.05681 -4.22374,2.6168 -6.79728,3.65234 -2.57385,1.03555 -17.06636,4.82448 -17.06636,4.82448 l 13.81983,1.56713 c 0,0 2.28915,-0.80774 5.07238,-1.92763 2.78358,-1.11989 6.00154,-2.43227 8.21796,-4.46398 1.70734,-1.56515 2.89266,-3.7836 3.85524,-5.68143 0.13296,-0.26525 0.0813,-0.25681 0.20129,-0.50727 0.11347,0.0935 0.0844,0.10745 0.20128,0.2029 1.49504,1.20209 3.13195,2.48138 4.76851,3.24653 3.30725,1.54638 7.45858,1.2926 11.15962,1.01454 3.70139,-0.27791 6.79759,-0.81164 6.79759,-0.81164 l 4.56527,-0.81163 -3.24653,-3.24653 c 0,0 -1.70084,-1.82397 -3.65235,-4.05816 -1.95116,-2.2342 -4.15296,-5.00443 -4.86979,-6.39161 -0.48924,-0.94724 -0.70255,-2.36156 -0.91293,-4.05816 -0.21118,-1.69661 -0.40062,-3.70121 -1.52197,-5.68143 -1.8739,-3.31036 -2.92154,-3.96418 -4.66657,-5.88434 0.73016,0.24575 1.37168,0.14545 2.13038,0.71018 1.00318,0.74686 3.99292,3.45671 6.49306,5.78288 2.50017,2.32617 4.6669,4.36253 4.6669,4.36253 l 4.9714,4.86979 -0.91323,-6.89887 c 0,0 -1.1652,-9.54481 -2.84072,-14.60939 -1.65053,-4.99008 -4.06206,-10.85718 -9.33377,-12.88467 l -3.95657,-1.52181 5.57983,-2.94217 3.34813,-1.82618 -3.04394,-2.23199 c 0,0 -1.11777,-0.99139 -2.63749,-2.02908 -1.52002,-1.03769 -3.2751,-2.1928 -5.07303,-2.84071 -2.13167,-0.76826 -4.90356,-1.84653 -7.10146,-1.21745 l -6.32455,1.8101 z"
       id="path51837-2-2"
       sodipodi:nodetypes="csscccccscscccsssscssscccsssccssssssscccsssscsscccscccccsssc" />
    <path
       inkscape:connector-curvature="0"
       style="fill:#aeaeae;fill-opacity:1;stroke:none;display:inline"
       d="m 414.63797,130.59024 c 0,0 3.77117,5.32418 4.66721,9.02942 0.68891,2.85064 1.15477,5.34765 -1.11616,7.20324 -1.36778,1.11752 -2.20634,1.21303 -6.59435,0 -3.25921,-0.90085 -8.31956,-8.52215 -8.31956,-8.52215 l 1.42068,6.29016 c 0.64671,2.50106 3.93285,4.70253 7.40599,5.88433 1.04893,1.5833 3.15788,4.72504 3.85524,7.60906 0.68925,2.85065 1.1548,5.34765 -1.11582,7.20324 -1.36778,1.11752 -2.20634,1.21304 -6.5947,0 -3.25886,-0.90085 -8.21792,-8.52214 -8.21792,-8.52214 l 1.31905,6.29015 c 1.26713,4.89853 12.79652,8.72632 15.72523,5.78288 3.62019,-3.63796 2.18198,-7.83034 0.50742,-12.68176 -0.75514,-2.18748 -2.48131,-3.98537 -3.95653,-5.27561 2.81635,0.69992 5.4811,0.71333 6.69564,-0.50727 3.6202,-3.63796 2.28327,-7.83034 0.60905,-12.68176 -1.40574,-4.07261 -6.29047,-7.10179 -6.29047,-7.10179 z"
       id="path5428-9" />
    <path
       inkscape:connector-curvature="0"
       style="fill:#aeaeae;fill-opacity:1;stroke:none;display:inline"
       d="m 423.16011,166.20063 c 0,0 3.77117,5.32418 4.66721,9.02941 0.68892,2.85065 1.15478,5.34765 -1.11616,7.20324 -1.36777,1.11752 -2.20634,1.21304 -6.59435,0 -3.25921,-0.90085 -8.21796,-8.52214 -8.21796,-8.52214 l 1.31908,6.29015 c 1.26711,4.89853 12.79619,8.72632 15.72521,5.78289 3.62022,-3.63797 2.18167,-7.83035 0.50745,-12.68177 -1.40575,-4.07261 -6.29048,-7.10178 -6.29048,-7.10178 z"
       id="path5426-8" />
    <path
       style="fill:#aeaeae;fill-opacity:1;stroke:none;display:inline"
       d="m 355.6207,184.45695 c 0,0 3.77117,5.42563 4.66687,9.13087 0.68926,2.85065 1.15481,5.2462 -1.11581,7.10178 -1.36778,1.11752 -2.20634,1.21304 -6.5947,0 -3.25886,-0.90084 -8.21792,-8.52214 -8.21792,-8.52214 l 1.42068,6.39161 c 1.26713,4.89853 12.69489,8.62486 15.6236,5.68143 3.62053,-3.63797 2.28327,-7.72889 0.60905,-12.58031 -1.40575,-4.07261 -6.39177,-7.20324 -6.39177,-7.20324 z"
       id="path5424-2"
       inkscape:connector-curvature="0" />
    <path
       style="fill:#aeaeae;fill-opacity:1;stroke:none;display:inline"
       d="m 360.79502,210.83501 c 0,0 3.77083,5.32418 4.66657,9.02942 0.68925,2.85064 1.15511,5.34765 -1.11585,7.20324 -1.36775,1.11752 -2.20634,1.21303 -6.59466,0 -3.25853,-0.90085 -8.21762,-8.52215 -8.21762,-8.52215 l 1.31874,6.29016 c 1.26744,4.89852 12.79652,8.72631 15.72554,5.78288 3.6202,-3.63796 2.18167,-7.83034 0.50711,-12.68176 -1.40544,-4.07261 -6.28983,-7.10179 -6.28983,-7.10179 z"
       id="path5422-0"
       inkscape:connector-curvature="0" />
    <path
       style="fill:#aeaeae;fill-opacity:1;stroke:none;display:inline"
       d="m 438.08899,277.58525 -5.24188,3.90099 c -3.87685,3.16171 -2.56609,14.9546 1.23033,16.60347 l -3.24169,2.48314 c -2.05411,1.67554 -2.64073,5.78649 -2.19907,9.51454 -1.19872,1.7141 -2.81874,3.78156 -4.31438,4.96235 -2.3026,1.81731 -4.32412,3.24632 -6.95881,1.95831 -1.58762,-0.77563 -1.96941,-1.49548 -2.70176,-5.9891 -0.54269,-3.33722 4.28019,-11.05127 4.28019,-11.05127 l -5.14241,3.88185 c -3.92116,3.19778 -2.64858,15.2717 1.24982,16.70306 4.81701,1.76936 8.06708,-1.29936 11.77504,-4.84763 0.96383,-0.92231 1.59642,-2.1059 2.15323,-3.30692 0.60918,2.39367 1.68787,4.35633 3.10797,4.87785 4.81762,1.76924 8.06769,-1.29946 11.77503,-4.84762 3.11362,-2.97881 3.80494,-8.68697 3.80494,-8.68697 0,0 -3.31507,5.67002 -6.307,8.03175 -2.30196,1.81718 -4.32412,3.24634 -6.95849,1.95828 -1.58827,-0.77554 -1.96973,-1.49545 -2.70179,-5.98912 -0.38845,-2.39789 1.87675,-6.97396 3.25286,-9.40729 4.39427,1.19246 7.41504,-1.63843 10.92084,-4.99326 3.11297,-2.97868 3.90444,-8.70609 3.90444,-8.70609 0,0 -3.3151,5.67001 -6.30703,8.03175 -2.30196,1.81717 -4.32409,3.24631 -6.95849,1.95825 -1.58794,-0.77559 -2.0695,-1.47625 -2.80124,-5.96996 -0.54269,-3.33723 4.37935,-11.07036 4.37935,-11.07036 z"
       id="path5420-4"
       inkscape:connector-curvature="0" />
    <path
       style="fill:#aeaeae;fill-opacity:1;stroke:none;display:inline"
       d="m 406.14393,322.05879 -5.1424,3.88184 c -3.92055,3.19767 -2.54879,15.25249 1.34958,16.68386 1.80611,0.66359 3.33088,0.67067 4.79337,0.21459 l -0.26134,0.2568 c -3.35445,2.73566 -2.78449,11.92318 -0.13376,15.41943 -0.96191,1.5598 -3.05093,4.85337 -5.42174,6.72506 -2.30224,1.81722 -4.32409,3.24631 -6.95878,1.95831 -1.58761,-0.77566 -2.0692,-1.47633 -2.80126,-5.96998 -0.54269,-3.33724 4.2799,-11.05122 4.2799,-11.05122 l -5.14241,3.88184 c -3.92087,3.1977 -2.54879,15.2525 1.34958,16.68386 4.81733,1.76929 7.96793,-1.28027 11.67524,-4.82841 2.03613,-1.94785 2.97012,-4.92297 3.4335,-6.8592 0.33121,0.32978 0.68369,0.58278 1.06895,0.7242 4.81769,1.76923 7.96764,-1.2802 11.67557,-4.82846 3.113,-2.9787 3.90444,-8.7061 3.90444,-8.7061 0,0 -3.31507,5.67 -6.30704,8.03176 -2.30195,1.81715 -4.32373,3.24624 -6.95877,1.95831 -1.58733,-0.7757 -1.96938,-1.49552 -2.70148,-5.98917 -0.46448,-2.86172 2.79202,-8.66275 3.79708,-10.33848 0.77388,-0.67255 1.58359,-1.34588 2.38322,-2.11142 3.11361,-2.97879 3.90476,-8.70615 3.90476,-8.70615 -6.5e-4,1.3e-4 -3.31539,5.6701 -6.30704,8.03175 -2.30227,1.81725 -4.32408,3.24634 -6.95877,1.95831 -1.58762,-0.77563 -2.06921,-1.4763 -2.80127,-5.96995 -0.54269,-3.33724 4.2799,-11.05122 4.2799,-11.05122 z"
       id="path5418-8"
       inkscape:connector-curvature="0" />
    <path
       style="fill:#aeaeae;fill-opacity:1;stroke:none;display:inline"
       d="m 393.87948,377.00431 -5.14208,3.88178 c -3.92119,3.1978 -2.66745,15.17201 1.2303,16.6035 4.81799,1.76917 7.98709,-1.1807 11.69505,-4.72893 3.11267,-2.97862 3.88496,-8.80566 3.88496,-8.80566 0,0 -3.31442,5.6699 -6.30704,8.03176 -2.3013,1.81705 -4.30457,3.34587 -6.93929,2.05787 -1.58762,-0.77562 -1.96974,-1.49541 -2.70147,-5.98916 -0.54269,-3.33724 4.27957,-11.05116 4.27957,-11.05116 z"
       id="path5414-5"
       inkscape:connector-curvature="0" />
    <path
       inkscape:connector-curvature="0"
       style="fill:none;stroke:#aeaeae;stroke-width:3.0919342;stroke-linecap:butt;stroke-linejoin:miter;stroke-miterlimit:4;stroke-opacity:1;stroke-dasharray:none;display:inline"
       d="m 326.90075,200.80831 c -1.85733,-2.66139 -5.99959,-7.7696 -15.93722,-11.58106 -6.0379,-2.31578 -11.99139,-0.80426 -17.82021,-0.71369 -6.24893,0.0971 -12.20142,-1.36221 -13.21954,-8.5498 0,0 13.0608,-8.3954 17.14265,-15.49069 1.03663,-1.80179 2.49853,-4.35337 3.03875,-8.06205 0.48407,-3.32409 0.11038,-7.81141 -0.0455,-9.66787 -0.62723,-7.38632 -7.74524,-15.50907 -7.74524,-15.50907 0,0 -10.6194,-1.22927 -14.86685,-4.12962 -4.54709,-3.10502 -8.46142,-7.90293 -9.91101,-13.21484 -0.87527,-3.20676 1.10122,-9.91111 1.10122,-9.91111 l -0.002,0 c -7.39139,-1.61486 -15.56646,-3.84331 -21.45601,-6.709702 -5.847,-2.845683 -8.2793,-6.320152 -12.58841,-10.447337 0,0 13.57764,-18.728621 26.15631,-25.859982 9.9159,-5.621693 21.08557,-9.762157 32.37345,-11.345976 12.20306,-1.712189 25.27363,-0.49014 37.34451,1.987882 38.4747,7.898426 70.39715,31.197372 90.47985,63.430165 37.22596,59.74782 44.85565,129.09998 36.93551,180.94475 -5.55172,36.3413 -20.78448,76.90831 -42.49848,108.23167 -30.39356,43.84409 -74.38947,73.1944 -130.26764,79.333 89.91536,-64.6827 107.67982,-188.31482 41.78542,-282.73467 z"
       id="path51568-5-6-2-8"
       sodipodi:nodetypes="ssscssscssccscsssssscs" />
    <path
       style="fill:#dddddd;fill-opacity:1;stroke:none"
       d="m 349.76185,455.35203 -13.18986,-7.98341 c -9.11376,-5.51629 -20.95837,-4.64736 -27.34855,-11.58042 -2.58851,-2.80858 -4.44707,-4.87648 -7.06276,-7.82556 -9.47025,-10.67827 -19.78168,-28.35537 -30.13643,-39.15332 -12.9967,-13.55294 -26.53921,-19.68474 -43.9921,-26.30865 -10.38471,-2.61472 -20.32287,-3.65498 -31.35153,-0.90099 -7.54798,1.88475 -15.57345,6.92779 -23.80197,10.92708 -7.46918,3.63073 -22.15719,2.46301 -22.15719,2.46301 0,0 7.74038,7.11781 14.36244,9.47787 5.98804,2.13405 8.82891,2.85915 14.8671,0.87117 3.57914,-1.17836 7.18658,-8.71374 11.41311,-7.18287 l 14.22356,5.15163 c 7.40319,3.57746 10.8702,7.70498 12.06642,12.15015 1.47381,5.47736 -0.50063,11.43711 -2.80799,17.44312 12.46515,6.45602 18.46869,13.11989 20.49721,19.91131 2.25671,7.55473 -0.40489,15.26734 -4.56182,23.02811 11.34255,10.70762 14.09283,19.9023 12.11133,28.26396 -2.51706,10.62227 -13.59192,15.52752 -23.46734,24.85423 0,0 1.04938,13.0608 -2.1363,18.31861 -2.91469,4.81042 -8.63525,4.50177 -14.99228,8.35778 -8.41569,5.10461 -15.24055,8.49558 -16.78337,16.09087 l -2.75856,13.57849 c 0,0 8.54867,-10.35215 14.49551,-12.89102 10.43254,-4.45394 31.98435,-2.14213 41.33042,-8.57075 0,0 9.38592,-2.9488 17.07369,-9.992 7.99626,-7.32404 14.3696,-14.82579 20.24636,-23.93877 4.76015,-7.38093 8.02804,-19.70582 13.34149,-26.69902 5.36503,-7.0608 11.87884,-13.85461 19.87958,-17.67914 5.31806,-2.54233 11.6216,-1.98225 17.44358,-2.90382 5.01062,-0.79304 8.6716,-1.57931 12.74878,-3.17886 l 10.4474,-4.09873 7e-5,-6e-5 z"
       id="path53595-7-0"
       sodipodi:nodetypes="csssscsscssscscscscssscsssssssscc"
       inkscape:connector-curvature="0" />
    <path
       style="font-size:medium;font-style:normal;font-variant:normal;font-weight:normal;font-stretch:normal;text-indent:0;text-align:start;text-decoration:none;line-height:normal;letter-spacing:normal;word-spacing:normal;text-transform:none;direction:ltr;block-progression:tb;writing-mode:lr-tb;text-anchor:start;color:#000000;fill:#aeaeae;fill-opacity:1;stroke:none;stroke-width:0.95238096;marker:none;visibility:visible;display:inline;overflow:visible;enable-background:accumulate;font-family:Bitstream Vera Sans;-inkscape-font-specification:Bitstream Vera Sans"
       d="m 236.70525,503.61223 c 2.88733,-0.79991 7.58792,-3.03076 10.12796,-4.39075 5.87861,-3.14728 10.68368,-7.62033 15.13748,-11.8327 7.00841,-6.62803 11.98432,-14.43284 18.0928,-20.57032 3.90068,-3.91989 7.31184,-7.89017 11.3049,-10.18825 4.93834,-2.84331 10.51219,-4.96229 15.83001,-5.25258 1.33253,-0.0728 6.24744,-0.98538 8.81842,-0.5112 l 16.93952,3.12469 c 0,0 -14.33981,-6.97073 -17.12331,-7.71296 -2.78351,-0.74222 -5.95235,-1.5532 -8.97339,-1.38818 -6.74504,0.36825 -13.22207,2.9029 -18.75307,6.08774 -5.29379,3.04775 -8.92647,7.51698 -12.58477,11.19177 -6.75877,6.79096 -11.77268,14.59785 -18.01699,20.5029 -4.42222,4.18037 -8.82289,8.21994 -13.71384,10.83818 -1.54484,0.82686 -4.85144,1.86321 -7.55687,2.64733 -2.70542,0.78412 -4.89478,1.36605 -4.89478,1.36605 l -7.85738,8.46397 c -12.63596,3.38613 7.12108,-0.68485 13.22331,-2.37569 z"
       id="path53597-7-6"
       sodipodi:nodetypes="csssssscsssssssccs"
       inkscape:connector-curvature="0" />
    <path
       style="font-size:medium;font-style:normal;font-variant:normal;font-weight:normal;font-stretch:normal;text-indent:0;text-align:start;text-decoration:none;line-height:normal;letter-spacing:normal;word-spacing:normal;text-transform:none;direction:ltr;block-progression:tb;writing-mode:lr-tb;text-anchor:start;color:#000000;fill:#aeaeae;fill-opacity:1;stroke:none;stroke-width:0.95238096;marker:none;visibility:visible;display:inline;overflow:visible;enable-background:accumulate;font-family:Bitstream Vera Sans;-inkscape-font-specification:Bitstream Vera Sans"
       d="m 227.82779,540.03429 c 0,0 6.9932,-8.01129 8.83155,-9.81125 1.83834,-1.79996 5.93275,-2.02021 7.14799,-2.64909 1.60227,-0.84535 3.66444,-1.22554 6.20076,-1.57688 2.53633,-0.35133 5.47052,-0.65201 8.3827,-2.02405 4.85089,-2.28544 10.5486,-6.54178 15.26422,-10.31617 4.71669,-3.77318 4.4429,-3.54273 4.4429,-3.54273 l -0.36733,-8.36258 c 0,0 -3.52743,3.13525 -8.08723,6.78367 -4.5585,3.64988 -10.2932,7.85309 -14.00069,9.5996 -1.67976,0.79174 -3.897,1.05959 -6.47873,1.41698 -2.58151,0.35763 -5.5121,0.78675 -8.39927,2.31076 -2.57982,1.36148 -7.56887,4.33112 -8.58767,6.95805 l -4.3492,11.21369 z"
       id="path53599-4-2"
       sodipodi:nodetypes="csssssccsssssc"
       inkscape:connector-curvature="0" />
    <path
       style="font-size:medium;font-style:normal;font-variant:normal;font-weight:normal;font-stretch:normal;text-indent:0;text-align:start;text-decoration:none;line-height:normal;letter-spacing:normal;word-spacing:normal;text-transform:none;direction:ltr;block-progression:tb;writing-mode:lr-tb;text-anchor:start;color:#000000;fill:#aeaeae;fill-opacity:1;stroke:none;stroke-width:0.95238096;marker:none;visibility:visible;display:inline;overflow:visible;enable-background:accumulate;font-family:Bitstream Vera Sans;-inkscape-font-specification:Bitstream Vera Sans"
       d="m 260.33088,456.20636 c 2.68946,-0.65262 4.7791,-2.7334 6.44657,-3.96779 1.66703,-1.23487 5.88205,-4.61317 6.98039,-4.85048 l 12.36491,-2.6737 c 0,0 -3.76113,-0.80777 -6.2755,-1.19196 -2.51436,-0.38419 -5.4507,-0.84843 -8.17262,-0.33509 -2.89352,0.54604 -5.02425,2.15548 -6.81514,3.48138 -1.79219,1.32445 -3.2655,2.45829 -4.48158,2.89937 -1.54877,0.56098 -4.28858,2.45836 -6.87351,1.95228 -2.58514,-0.50633 -7.94699,-2.46954 -7.94699,-2.46954 7.39869,7.72624 8.40931,8.69958 14.77347,7.15553 z"
       id="path53601-4-2"
       sodipodi:nodetypes="csscssssscs"
       inkscape:connector-curvature="0" />
    <path
       style="font-size:medium;font-style:normal;font-variant:normal;font-weight:normal;font-stretch:normal;text-indent:0;text-align:start;text-decoration:none;line-height:normal;letter-spacing:normal;word-spacing:normal;text-transform:none;direction:ltr;block-progression:tb;writing-mode:lr-tb;text-anchor:start;color:#000000;fill:#aeaeae;fill-opacity:1;stroke:none;stroke-width:0.95238096;marker:none;visibility:visible;display:inline;overflow:visible;enable-background:accumulate;font-family:Bitstream Vera Sans;-inkscape-font-specification:Bitstream Vera Sans"
       d="m 233.68504,408.40811 c 1.87525,0.93562 3.74317,3.04863 5.857,5.51731 2.11378,2.46872 4.41137,5.33661 7.84564,7.14281 3.96554,2.08579 8.01417,2.38459 11.56025,2.61766 3.54585,0.23283 6.72185,0.42745 9.61341,1.49719 1.82676,0.67592 6.9426,1.08009 9.7568,2.4567 l 15.76092,7.70979 c 0,0 -11.47086,-9.3857 -14.2447,-11.23049 -2.77406,-1.84504 -6.0486,-3.8754 -9.04996,-4.98565 -4.10286,-1.5179 -8.05376,-1.66944 -11.45896,-1.89311 -3.4052,-0.22367 -6.2375,-0.49934 -8.87229,-1.88517 -1.87557,-0.9866 -3.79759,-3.10929 -5.92431,-5.593 -2.1267,-2.48374 -4.4957,-5.40847 -7.98899,-7.15132 -2.13733,-1.06619 -4.95173,-0.41847 -6.75491,-0.50972 -1.80296,-0.091 -8.50169,-8.01569 -8.50169,-8.01569 0.19629,6.08083 7.71941,14.30944 12.40187,14.32262 z"
       id="path53603-9-5"
       sodipodi:nodetypes="cssssscssssssscc"
       inkscape:connector-curvature="0" />
    <path
       style="fill:none;stroke:#aeaeae;stroke-width:3.0919342;stroke-linecap:butt;stroke-linejoin:miter;stroke-miterlimit:4;stroke-opacity:1;stroke-dasharray:none;display:inline"
       d="M 349.76185,455.35203 336.236,446.1216 c -8.79954,-6.00514 -20.62238,-3.40034 -27.01256,-10.3334 -2.58851,-2.80858 -4.44707,-4.87648 -7.06276,-7.82556 -9.47025,-10.67827 -19.78168,-28.35537 -30.13643,-39.15332 -12.9967,-13.55294 -26.53921,-19.68474 -43.9921,-26.30865 -10.38471,-2.61472 -20.32287,-3.65498 -31.35153,-0.90099 -7.54798,1.88475 -15.57345,6.92779 -23.80197,10.92708 -7.46918,3.63073 -22.15719,2.46301 -22.15719,2.46301 0,0 7.74038,7.11781 14.36244,9.47787 5.98804,2.13405 8.82891,2.85915 14.8671,0.87117 3.57914,-1.17836 7.18658,-8.71374 11.41311,-7.18287 l 14.22356,5.15163 c 7.40319,3.57746 10.8702,7.70498 12.06642,12.15015 1.47381,5.47736 -0.50063,11.43711 -2.80799,17.44312 12.46515,6.45602 18.46869,13.11989 20.49721,19.91131 2.25671,7.55473 -0.40489,15.26734 -4.56182,23.02811 11.34255,10.70762 14.09283,19.9023 12.11133,28.26396 -2.51706,10.62227 -13.59192,15.52752 -23.46734,24.85423 0,0 1.04938,13.0608 -2.1363,18.31861 -2.91469,4.81042 -8.63525,4.50177 -14.99228,8.35778 -8.41569,5.10461 -15.24055,8.49558 -16.78337,16.09087 l -2.75856,13.57849 c 0,0 8.54867,-10.35215 14.49551,-12.89102 10.43254,-4.45394 31.98435,-2.14213 41.33042,-8.57075 0,0 9.38592,-2.9488 17.07369,-9.992 7.99626,-7.32404 14.3696,-14.82579 20.24636,-23.93877 4.76015,-7.38093 8.02804,-19.70582 13.34149,-26.69902 5.36503,-7.0608 11.87884,-13.85461 19.87958,-17.67914 5.31806,-2.54233 11.6216,-1.98225 17.44358,-2.90382 5.01062,-0.79304 8.6716,-1.57931 12.74878,-3.17886 l 10.4474,-4.09873 7e-5,-6e-5 z"
       id="path53595-5-1-2"
       sodipodi:nodetypes="csssscsscssscscscscssscsssssssscc"
       inkscape:connector-curvature="0" />
    <path
       inkscape:connector-curvature="0"
       style="fill:#dddddd;fill-opacity:1;stroke:none"
       d="m 366.50921,179.94783 c 0,0 11.4885,16.9916 13.8997,25.34642 3.3251,11.52164 2.4112,20.14044 0,31.88739 -1.25186,6.09968 -5.28925,17.61149 -6.54111,23.71117 -1.4249,6.94137 -0.38439,11.91704 3.27055,17.98773 5.40808,8.98244 23.71104,15.53491 23.71104,15.53491 0,0 -9.24936,-11.75744 -9.81134,-18.8054 -0.68502,-8.59123 8.17607,-24.52878 8.17607,-24.52878 0,0 2.51476,8.20103 5.72363,10.62915 4.00752,3.03232 14.71717,3.27052 14.71717,3.27052 0,0 -7.9777,-10.21521 -8.99386,-16.35252 -0.76845,-4.6416 0.37108,-9.68037 2.45275,-13.89966 1.96286,-3.97882 6.54663,-6.11088 8.99387,-9.81151 1.81643,-2.74682 4.08835,-8.99389 4.08835,-8.99389 0,0 7.02485,-0.0529 10.13243,-1.10808 3.83642,-1.30267 8.67278,-6.25054 8.67278,-6.25054 0,0 -14.95125,-3.30257 -21.25828,-7.35862 -6.6476,-4.27516 -10.07496,-7.36716 -15.53498,-13.08203 -6.25801,-6.55075 -23.71104,-23.71113 -23.71104,-23.71113 0,0 -6.09698,-1.87731 -10.62914,0 -2.13654,0.88497 -3.83772,2.85451 -4.90583,4.90573 -2.17258,4.17306 -2.45276,10.62914 -2.45276,10.62914 z"
       id="path52406-71-7"
       sodipodi:nodetypes="csssscscscssscscsscssc" />
    <path
       inkscape:connector-curvature="0"
       style="font-size:medium;font-style:normal;font-variant:normal;font-weight:normal;font-stretch:normal;text-indent:0;text-align:start;text-decoration:none;line-height:normal;letter-spacing:normal;word-spacing:normal;text-transform:none;direction:ltr;block-progression:tb;writing-mode:lr-tb;text-anchor:start;color:#000000;fill:#aeaeae;fill-opacity:1;stroke:none;stroke-width:0.95238096;marker:none;visibility:visible;display:inline;overflow:visible;enable-background:accumulate;font-family:Bitstream Vera Sans;-inkscape-font-specification:Bitstream Vera Sans"
       d="m 381.07705,177.47622 c 0,0 11.21676,10.22748 15.82683,14.91183 5.68793,5.77957 8.8955,14.76776 16.23266,20.39228 2.07551,1.59125 3.17186,2.6316 5.78467,3.44943 1.37685,0.43098 2.58391,1.48659 2.81052,3.90701 0.20453,2.17264 -0.50808,5.75672 -0.50808,5.75672 l 3.54229,-9.24986 8.08029,-2.24004 c 0,0 -8.51565,-0.44458 -10.98464,-1.21745 -2.46899,-0.77287 -5.34898,-1.90958 -6.69597,-2.94217 -6.321,-4.8458 -11.15605,-18.06493 -18.81689,-22.97651 l -15.27168,-9.79124 z m 12.78321,33.57939 c 0,0 4.40652,6.78067 5.98563,10.95704 1.83234,4.84645 1.08954,11.47434 0.50743,17.24719 -0.55321,5.48904 -3.44944,14.10212 -3.44944,14.10212 l 3.50171,0.61278 3.07252,5.85798 c 0,0 -1.23011,-7.33138 -1.34569,-11.75929 -0.0876,-3.36691 1.51678,-6.13351 1.78852,-8.83018 0.5769,-5.72318 2.1044,-16.10162 -2.4164,-20.59326 l -7.64428,-7.59438 z"
       id="path52408-8-15"
       sodipodi:nodetypes="csssscccsssccsscccsssc" />
    <path
       inkscape:connector-curvature="0"
       style="fill:none;stroke:#aeaeae;stroke-width:3.0919342;stroke-linecap:butt;stroke-linejoin:miter;stroke-miterlimit:4;stroke-opacity:1;stroke-dasharray:none;display:inline"
       d="m 366.50921,179.94783 c 0,0 11.4885,16.9916 13.8997,25.34642 3.3251,11.52164 2.4112,20.14044 0,31.88739 -1.25186,6.09968 -5.28925,17.61149 -6.54111,23.71117 -1.4249,6.94137 -0.38439,11.91704 3.27055,17.98773 5.40808,8.98244 23.71104,15.53491 23.71104,15.53491 0,0 -9.24936,-11.75744 -9.81134,-18.8054 -0.68502,-8.59123 8.17607,-24.52878 8.17607,-24.52878 0,0 2.51476,8.20103 5.72363,10.62915 4.00752,3.03232 14.71717,3.27052 14.71717,3.27052 0,0 -7.9777,-10.21521 -8.99386,-16.35252 -0.76845,-4.6416 0.37108,-9.68037 2.45275,-13.89966 1.96286,-3.97882 6.54663,-6.11088 8.99387,-9.81151 1.81643,-2.74682 4.08835,-8.99389 4.08835,-8.99389 0,0 7.02485,-0.0529 10.13243,-1.10808 3.83642,-1.30267 8.67278,-6.25054 8.67278,-6.25054 0,0 -14.95125,-3.30257 -21.25828,-7.35862 -6.6476,-4.27516 -10.07496,-7.36716 -15.53498,-13.08203 -6.25801,-6.55075 -23.71104,-23.71113 -23.71104,-23.71113 0,0 -6.09698,-1.87731 -10.62914,0 -2.13654,0.88497 -3.83772,2.85451 -4.90583,4.90573 -2.17258,4.17306 -2.45276,10.62914 -2.45276,10.62914 z"
       id="path52406-1-7-2"
       sodipodi:nodetypes="csssscscscssscscsscssc" />
  </g>
  <g
     inkscape:groupmode="layer"
     id="layer1"
     inkscape:label="Cover"
     style="display:inline"
     sodipodi:insensitive="true">
    <path
       d="m 2,2 v 257 c 0,286 298,398 298,398 0,0 298,-112 298,-398 V 2 z"
       id="shine"
       inkscape:connector-curvature="0"
       style="fill:url(#radialGradient3074);stroke:#000000;stroke-width:3" />
  </g>
</svg>
