<?xml version="1.0" encoding="UTF-8"?>
<svg xmlns="http://www.w3.org/2000/svg" xmlns:xlink="http://www.w3.org/1999/xlink" width="600" height="660">
<defs>
  <radialGradient id="rg" gradientUnits="userSpaceOnUse" cx="220" cy="220" r="405">
    <stop style="stop-color:#ffffff;stop-opacity:.3" offset="0"/>
    <stop style="stop-color:#ffffff;stop-opacity:.2" offset=".2"/>
    <stop style="stop-color:#666666;stop-opacity:.1" offset=".6"/>
    <stop style="stop-color:#000000;stop-opacity:.13" offset="1"/>
  </radialGradient>
  <pattern id="ermine" patternUnits="userSpaceOnUse" x="0" y="0" width="133.3" height="188.6">
    <rect width="133.3" height="188.6" style="fill:#000000;"/>
    <path style="fill:#ffdd00;" transform="translate(33.3,47.15)scale(0.9)" id="ermine-unit" d="m 0.40009,-18.332585 c -4.60101,20.84701 -13.10288,35.56792 -22.40493,46.1743 3.90086,-1.09721 8.20181,-4.02311 12.40273,-6.6747 -2.60057,5.48605 -5.20114,10.1492 -7.70169,14.99522 1.50033,-0.54861 6.4014,-5.39463 13.00285,-12.5265 1.00022,9.78347 2.40053,14.44662 4.50099,21.12132 1.70038,-6.6747 2.90064,-11.15498 4.20093,-21.21275 4.00088,4.48028 7.80171,9.05199 13.2029,12.89223 l -7.50165,-15.54383 c 3.90086,2.46873 8.2018,5.76036 12.40272,7.13188 C 12.70279,16.869605 4.40097,2.514425 0.40009,-18.332585 Z m -11.70257,-5.66893 c -5.20115,0.27431 -10.9024,7.31474 -16.50363,1.37152 3.30072,8.13765 9.20202,4.20597 9.70213,5.48605 5.9013,9.8749 14.70323,1.82869 12.70279,-2.83446 -1.90042,-3.10876 -3.80083,-4.11454 -5.90129,-4.02311 z m 21.80479,-0.0914 c -1.8004,0.18287 -3.50077,1.28008 -5.10112,4.02311 -2.00044,4.66314 6.80149,12.70936 12.80281,2.83446 0.40009,-1.18865 6.30138,2.65159 9.60211,-5.48606 -5.60123,5.8518 -11.30248,-1.09721 -16.50363,-1.37151 -0.30006,0 -0.50011,0 -0.80017,0 z m -11.8026,-20.66414 c 7.00154,8.77769 -12.60277,12.25219 -2.00044,20.48127 4.50099,2.83446 15.10332,-3.29163 5.80128,-10.78924 -1.20026,-0.64004 4.20092,-5.02889 -3.80084,-9.69203 z"/>
    <use xlink:href="#ermine-unit" transform="translate(66.6,94.3)" />
  </pattern>
  <clipPath id="clip-shield">
    <path id="shield" d="m2,2v257c0,286 298,398 298,398c0,0 298-112 298-398V2z"/>
  </clipPath>
</defs>
<use id="field" xlink:href="#shield" style="fill:url(#ermine);"/>
<g clip-path="url(#clip-shield)">
  <path style="fill:none;stroke:#ffdd00;stroke-width:200;" d="m 300,0 v 660"/>
</g>
<path id="star" style="fill:#000000;" d="m 300,15.474 c -10.44,0 -6.57,44.152 -15.02,50.288 -8.45,6.137 -49.23,-11.197 -52.45,-1.265 -3.23,9.932 39.94,19.888 43.17,29.809 3.23,9.934 -25.85,43.364 -17.4,49.504 8.44,6.14 31.25,-31.86 41.69,-31.86 10.44,0 33.25,38 41.7,31.86 8.45,-6.14 -20.63,-39.57 -17.4,-49.504 3.21,-9.921 46.4,-19.877 43.17,-29.809 -3.23,-9.932 -44.01,7.402 -52.45,1.265 -8.45,-6.136 -4.57,-50.288 -15.01,-50.288 z m 0.34,9.152 c 1.95,0.07 3.54,1.617 3.66,3.571 0.13,2.093 -1.47,3.891 -3.56,4.02 -2.09,0.132 -3.9,-1.461 -4.03,-3.559 -0.13,-2.093 1.46,-3.891 3.56,-4.02 h 0.37 z m 0.81,12.344 c 2.16,0.08 3.91,1.799 4.04,3.961 0.14,2.329 -1.63,4.33 -3.96,4.47 -2.33,0.142 -4.33,-1.633 -4.47,-3.961 -0.14,-2.328 1.63,-4.33 3.96,-4.47 z m 0.84,13.161 c 2.41,0.09 4.36,1.999 4.5,4.41 0.16,2.583 -1.81,4.804 -4.38,4.966 -2.59,0.165 -4.83,-1.808 -4.98,-4.398 -0.16,-2.586 1.81,-4.81 4.4,-4.966 h 0.46 z m 55.72,13.728 c 1.67,-0.02 3.15,1.041 3.67,2.625 0.64,1.991 -0.45,4.126 -2.44,4.777 -1.99,0.65 -4.13,-0.442 -4.78,-2.436 -0.65,-1.999 0.45,-4.145 2.44,-4.789 0.36,-0.118 0.74,-0.174 1.11,-0.177 z m -54.8,0.413 c 2.67,0.107 4.84,2.214 5,4.884 0.18,2.878 -2.02,5.353 -4.89,5.522 -2.88,0.17 -5.34,-2.015 -5.51,-4.884 -0.18,-2.873 2.01,-5.345 4.88,-5.522 z m -53.72,1.005 c 0.35,0 0.68,0.06 1.01,0.154 2.01,0.601 3.14,2.71 2.55,4.718 -0.6,2.007 -2.71,3.149 -4.72,2.554 -2.01,-0.599 -3.14,-2.71 -2.55,-4.718 0.48,-1.634 2.01,-2.741 3.71,-2.708 z m 96.37,2.105 c 1.84,-0.02 3.5,1.161 4.07,2.921 0.71,2.213 -0.5,4.588 -2.71,5.309 -2.22,0.722 -4.6,-0.491 -5.32,-2.708 -0.72,-2.221 0.5,-4.604 2.72,-5.321 0.4,-0.129 0.81,-0.196 1.24,-0.201 z m -84.11,1.1 c 0.38,0 0.76,0.07 1.13,0.177 2.23,0.662 3.51,3.005 2.85,5.238 -0.67,2.232 -3.01,3.506 -5.24,2.85 -2.24,-0.661 -3.51,-3.013 -2.85,-5.25 0.54,-1.814 2.22,-3.046 4.11,-3.015 z m 71.09,2.648 c 2.06,-0.02 3.9,1.292 4.53,3.252 0.8,2.465 -0.54,5.113 -3.02,5.912 -2.47,0.809 -5.12,-0.543 -5.92,-3.015 -0.8,-2.469 0.56,-5.119 3.03,-5.912 0.45,-0.148 0.91,-0.227 1.38,-0.237 z m -57.97,0.757 c 0.42,0 0.85,0.08 1.25,0.201 2.48,0.734 3.9,3.345 3.17,5.83 -0.73,2.485 -3.35,3.904 -5.83,3.168 -2.49,-0.734 -3.91,-3.352 -3.17,-5.841 0.6,-2.019 2.47,-3.393 4.58,-3.358 z m 44.02,3.264 c 2.28,-0.04 4.31,1.426 5.02,3.594 0.9,2.74 -0.6,5.685 -3.34,6.574 -2.73,0.887 -5.68,-0.611 -6.56,-3.346 -0.9,-2.739 0.6,-5.685 3.34,-6.574 0.5,-0.16 1.02,-0.242 1.54,-0.248 z m -29.94,0.39 c 0.47,0 0.93,0.08 1.38,0.213 2.77,0.814 4.34,3.717 3.53,6.479 -0.82,2.76 -3.73,4.332 -6.48,3.512 -2.76,-0.819 -4.33,-3.721 -3.51,-6.48 0.66,-2.241 2.74,-3.764 5.08,-3.724 z m 15.11,3.89 c 0.52,0 1.04,0.08 1.55,0.237 3.06,0.91 4.81,4.134 3.9,7.2 -0.91,3.071 -4.12,4.825 -7.2,3.914 -3.06,-0.91 -4.81,-4.135 -3.9,-7.201 0.73,-2.496 3.05,-4.194 5.65,-4.15 z m -9.9,12.912 c 1.19,0 2.32,0.402 3.24,1.135 2.26,1.794 2.63,5.079 0.83,7.332 -1.78,2.25 -5.06,2.63 -7.32,0.84 -2.26,-1.795 -2.62,-5.08 -0.83,-7.332 1,-1.247 2.5,-1.974 4.08,-1.975 z m 18.38,1.041 c 1.71,0.07 3.29,0.989 4.2,2.447 1.52,2.44 0.78,5.649 -1.66,7.179 -2.43,1.52 -5.65,0.78 -7.18,-1.66 -1.52,-2.436 -0.78,-5.649 1.66,-7.174 0.89,-0.558 1.93,-0.835 2.98,-0.792 z m -27.52,10.946 c 1.07,0 2.11,0.37 2.94,1.03 2.02,1.62 2.35,4.56 0.74,6.58 -1.61,2.03 -4.55,2.37 -6.58,0.76 -2.03,-1.61 -2.37,-4.55 -0.76,-6.58 0.89,-1.13 2.23,-1.78 3.66,-1.79 z m 35.26,2 c 1.56,0.1 2.98,0.9 3.8,2.22 1.36,2.2 0.7,5.08 -1.49,6.46 -2.2,1.38 -5.11,0.72 -6.48,-1.49 -1.37,-2.2 -0.7,-5.1 1.5,-6.47 0.79,-0.5 1.73,-0.75 2.67,-0.72 z m -43.76,9.18 c 0.95,0 1.87,0.32 2.62,0.91 1.83,1.46 2.14,4.11 0.68,5.94 -1.45,1.82 -4.11,2.13 -5.93,0.67 -1.83,-1.45 -2.12,-4.1 -0.67,-5.92 0.81,-1.01 2.01,-1.6 3.3,-1.6 z m 51,2.9 c 1.4,0 2.66,0.79 3.41,1.98 1.23,1.97 0.62,4.58 -1.35,5.81 -1.98,1.24 -4.58,0.64 -5.82,-1.33 -1.23,-1.98 -0.63,-4.59 1.35,-5.82 0.72,-0.45 1.56,-0.67 2.41,-0.64 z m -58.96,7.53 c 0.86,0 1.68,0.3 2.36,0.83 1.63,1.31 1.9,3.69 0.6,5.33 -1.31,1.63 -3.69,1.91 -5.33,0.61 -1.63,-1.32 -1.91,-3.69 -0.6,-5.34 0.72,-0.91 1.82,-1.43 2.97,-1.43 z m 65.7,3.74 c 1.25,0 2.4,0.71 3.06,1.77 1.11,1.78 0.58,4.13 -1.2,5.24 -1.78,1.11 -4.12,0.57 -5.23,-1.21 -1.11,-1.77 -0.58,-4.12 1.21,-5.23 0.65,-0.41 1.4,-0.61 2.16,-0.57 z"/>
<use xlink:href="#star" transform="translate(0,120)" />
<use xlink:href="#star" transform="translate(0,240)" />
<use xlink:href="#star" transform="translate(0,360)" />
<use xlink:href="#star" transform="translate(0,480)" />
<use id="shine" xlink:href="#shield" style="fill:url(#rg);stroke:#000000;stroke-width:3;"/>
</svg>
