<?xml version="1.0" encoding="UTF-8"?>
<svg xmlns="http://www.w3.org/2000/svg" xmlns:xlink="http://www.w3.org/1999/xlink" width="600" height="660">
<defs>
  <radialGradient id="rg" gradientUnits="userSpaceOnUse" cx="220" cy="220" r="405">
    <stop style="stop-color:#fff;stop-opacity:.3" offset="0"/>
    <stop style="stop-color:#fff;stop-opacity:.2" offset=".2"/>
    <stop style="stop-color:#666;stop-opacity:.1" offset=".6"/>
    <stop style="stop-color:#000;stop-opacity:.13" offset="1"/>
  </radialGradient>
  <path id="shield" d="m2,2v257c0,286 298,398 298,398c0,0 298-112 298-398V2z"/>
</defs>
<use xlink:href="#shield" style="fill:#ffffff"/>
<g transform="translate(0,190)" style="stroke-width:1;stroke-linecap:round;stroke-linejoin:round;">
	<path style="fill:#f0f000;stroke:none;" d="m 221.4,5.7807 -73.96,12.1363 c -4.61,6.679 -7.48,16.05 -7.97,27.642 -4.82,0.736 -9.71,4.796 -10.06,8.4 -1.61,16.962 -0.17,33.275 10.97,49.691 0.82,1.22 1.64,2.41 2.47,3.59 0.78,1.1 1.56,2.21 2.35,3.28 -0.79,-1.09 -1.57,-2.18 -2.35,-3.28 -0.76,-1.08 -1.52,-2.16 -2.27,-3.27 -11.08,3.4 -29.05,19.27 -46.632,31.76 -6.496,-1.28 -10.116,0.86 -11.711,6.18 -1.266,4.22 -2.749,7.53 -5.158,11.14 -1.845,2.76 -2.107,8.74 1.752,11.69 1.96,1.49 3.531,3.2 4.373,5.39 5.697,14.84 10.528,29.85 9.791,45.45 -0.133,2.73 -0.436,5.14 1.241,6.3 3.801,2.65 7.954,4.86 12.294,8.02 2.38,1.73 5.51,1.82 7.71,0 3.13,-2.5 6.1,-3.03 9.83,-2.84 2.17,0.15 3.89,-0.37 5.32,-2.21 2.13,-2.73 4.4,-5.2 6.96,-8.28 1.17,0.44 2.21,0 3.24,-1.46 2.99,-4.53 7.26,-8.65 13.22,-12.06 -6.4,-8.03 -22.06,-10.19 -34.48,-6.5 -1.54,3.94 -4.08,7.35 -6.97,10.34 -6.35,-10.9 -9.06,-27.21 -10.08,-42.29 2.88,-5.89 6.3,-10.67 10.01,-14.86 13.98,-1.1 28.57,-3.94 42.54,-7.56 1.28,1.06 3.45,1.42 4.34,0.31 2.59,-3.24 4.36,-7.02 5.84,-11.23 -0.1,-0.15 -0.21,-0.19 -0.32,-0.28 6.25,5.08 12.83,8.4 19.91,9.14 2.87,4.82 8.46,8.74 15.61,7.88 h 0.14 c -1.41,5.24 -2.53,10.86 -4.37,15.61 -1.07,2.77 -3.07,6.21 -4.45,9.33 -2.03,4.57 -3.55,8.85 -5.55,12.68 -2.28,3.22 -4.76,1.54 -7.42,4.35 -2.94,3.12 -5.25,6.52 -5.58,10.85 -0.19,2.38 0,2.42 -1.8,4.22 -4.13,4.09 -7.14,8.88 -7.16,15.91 0,2.39 -0.37,5.12 -2.07,7.68 -7.37,11.17 -15.7,21.42 -26.21,29.22 -2.45,1.82 -3.98,4.28 -3.82,7.52 0.13,2.72 -5.47,8.96 -9.04,8.91 -2.5,0 -4.08,1.03 -5.88,3.74 -5.01,7.55 -13.47,15.56 -19.4,20.24 4.46,3.65 24.98,7 34.85,2 2.77,-1.4 4.57,-3.46 4.71,-6.38 0.75,-2.31 0.52,-4.05 0,-5.59 -0.64,-1.72 -0.79,-2.74 -0.54,-4.67 1.01,-7.79 7.51,-8.84 10.58,-5.47 4.48,4.88 8.23,-4.79 9.55,-8.18 4.56,-11.71 10.31,-23.71 17.31,-33.72 3.95,-5.65 9.11,-9.07 13.7,-14.12 2.31,-2.53 4.39,-5.63 6.6,-8.55 2.78,-3.64 4.97,-5.56 5.52,-10.46 0.29,-2.7 0.89,-5.44 2.34,-7.54 0.91,-1.31 1.72,-3.03 2.53,-4.93 12.06,-8.92 22.77,-20.36 29.89,-35.53 0.2,-0.41 0.38,-0.84 0.57,-1.26 0.69,-0.24 1.38,-0.5 2.06,-0.8 v 0 c 35.58,18.33 86.6,17.45 122.28,-3.75 h 0.15 c 4.72,5.81 11.36,9.37 21.83,8.18 v 0 c 6.09,5.33 12.31,10.39 18.98,14.64 -6.55,10.71 -14.01,20.54 -21.77,29.99 -3.7,4.51 -4.23,11.43 2.2,21.73 1.77,2.83 2.61,6.34 2.24,9.67 -0.3,2.7 1.5,5.16 7.12,6.99 5.1,4.03 10.3,8.9 15.33,15.21 2.35,2.95 3.95,2.78 5.14,-0.93 6.71,-20.76 1.24,-31.83 -10.22,-34.67 -6.63,-2.37 -7.38,-10.82 2.91,-6.34 3.96,-5.08 -1.5,-17.35 13.05,-33.66 1.1,0.39 2.22,0.78 3.36,1.11 3.91,1.18 7.95,2.96 11.51,5.99 5.62,4.77 12.29,10.8 15.88,18.74 6.53,14.42 9.38,30.87 10.1,50.93 0.18,5.2 -0.81,9.45 -1.21,14.58 -0.42,5.33 1.48,8.21 -1.92,11.55 -2.64,2.6 -4.78,2.68 -7.06,5.69 -3.27,6.79 -8.48,13.15 -15.01,19.61 -3.45,3.43 -1.41,4.48 2.25,5.09 3.9,0.65 9.74,0.61 14.83,0.24 7.86,-0.56 18.18,-1.68 20.3,-10.71 1.16,-4.47 1.25,-11.55 0.19,-20.01 12.7,3.58 15.43,-4.91 10.77,-17.27 -7.09,-18.8 -10.14,-36.38 -10.15,-51.69 0,-2.36 0.38,-4.65 0.5,-6.89 0.22,-4.31 1.99,-8.12 1.29,-12.58 -0.47,-3.01 -0.95,-4.45 -0.82,-7.62 0.37,-8.26 -1.96,-11.69 -4.69,-13.94 -3.56,-2.93 -8.05,-3.44 -12.53,-4.15 -4.45,-0.71 -8.92,-1.34 -12.51,-6.96 -1.79,-2.79 -3.35,-5.62 -4.84,-8.44 0.15,0.14 0.15,0.17 0.24,0.26 17.37,-17.3 17.02,-14.06 -2.11,-28.96 4.37,-11.7 7.7,-23.72 8.71,-36.206 1.06,-13.017 -2.72,-22.638 -13.12,-27.625 0.63,-0.206 1.25,-0.398 1.87,-0.604 -10.39,-7.885 -21.39,-14.299 -31.97,-18.153 -2.63,-0.412 -5.26,-0.941 -7.89,-1.603 -20.41,-8.224 -41.4,-9.489 -61.18,2.942 v 0 c -8.89,5.575 -19.71,6.443 -31.26,3.089 -8.03,-2.324 -16.51,-3.663 -24.67,-6.281 -6.34,-2.045 -12.49,-5.65 -18.18,-6.62 0,0 0,0 -0.15,0 -6.03,-8.592 -15.55,-14.461 -29.61,-17.153 -0.53,-4.546 -2.18,-8.0923 -4.99,-10.6953 z m -76.01,104.9993 c 0.67,0.92 1.34,1.8 2.01,2.68 -0.67,-0.88 -1.34,-1.76 -2.01,-2.68 z m 2.83,3.76 c 0.57,0.75 1.14,1.47 1.72,2.19 -0.58,-0.72 -1.15,-1.44 -1.72,-2.19 z m 2.76,3.48 c 0.53,0.63 1.05,1.27 1.58,1.9 -0.53,-0.63 -1.05,-1.27 -1.58,-1.9 z m 2.88,3.39 c 0.48,0.54 0.96,1.08 1.44,1.61 -0.48,-0.53 -0.96,-1.07 -1.44,-1.61 z m 2.88,3.13 c 0.45,0.47 0.9,0.95 1.36,1.41 -0.46,-0.46 -0.91,-0.94 -1.36,-1.41 z m 4.06,4 c 0.4,0.37 0.81,0.71 1.22,1.06 -0.41,-0.35 -0.82,-0.69 -1.22,-1.06 z"/>
	<path style="fill:#e0e000;stroke:none;" d="m 118.33,196.59 c 12.42,-3.69 28.08,-1.53 34.48,6.51 -5.96,3.41 -10.23,7.53 -13.22,12.06 -1.01,1.47 -2.02,1.87 -3.16,1.48 -4.3,-5.76 -9.32,-8.65 -15.06,-8.63 -0.96,-3.12 -3.4,-4.64 -7.41,-3.86 v -0.14 c 1.81,-2.25 3.35,-4.72 4.42,-7.46"/>
	<path style="fill:#e0e000;stroke:none;" d="m 102.12,174 c 1.99,3.37 4.48,6.41 8.75,6.41 -0.38,2.09 -1.62,3.34 -2.71,4.13 2.55,1.49 4.71,1.05 7.59,-0.41 0.2,2.93 -1.46,5.8 -3.74,7.62 2.46,0.4 4.64,-0.29 7.63,-2.72 0,7.25 -3.45,12.95 -8.23,17.74 -5.11,-8.63 -7.85,-20.67 -9.29,-32.77"/>
	<path style="fill:#e0e000;stroke:none;" d="m 146.73,278.75 v 0 c 3.83,4.01 0.7,12.39 11.5,11.99 -3.23,-6.98 4.29,-17.3 3.79,-28.37 2.11,3.85 0.43,7.1 2.54,10.19 2.56,-6.52 8.3,-6.93 8.08,-26.05 1.91,3.65 3.97,4.1 3.91,11.4 8.5,-8.31 3.03,-18.14 3.71,-22.61 0.78,2.07 2.32,3.75 4.16,5.01 -0.29,-4.5 1.08,-9.78 -0.9,-14.9 v 0 c -3.67,3.49 -7.44,6.53 -10.5,10.89 -7,10 -12.76,22.02 -17.32,33.73 -1.25,3.24 -4.74,12.23 -8.96,8.72"/>
	<path style="fill:#e0e000;stroke:none;" d="m 136.15,294.05 c -0.19,2.86 -1.98,4.89 -4.71,6.27 -9.87,5 -30.39,1.66 -34.85,-2 5.93,-4.68 14.39,-12.7 19.4,-20.24 v 0 0 c 7.83,4.22 14.67,9.41 20.08,16.05"/>
	<path style="fill:#e0e000;stroke:none;" d="m 399.7,220.22 c 11.31,2.93 16.67,14 10.01,34.63 -1.2,3.71 -2.8,3.88 -5.15,0.93 -5.03,-6.33 -10.23,-11.18 -15.33,-15.22 -0.22,0 -0.43,-0.14 -0.63,-0.2 l 0.14,-0.15 c 5.25,-5.78 8.83,-12.28 10.98,-20.01 v 0 z"/>
	<path style="fill:#e0e000;stroke:none;" d="m 422.44,182.54 c 0.95,2.52 -1.11,5.86 -0.17,9.04 -2.27,-0.99 -2.19,-2.61 -4.28,-4.17 1.59,3.89 -1.31,7.62 0.28,11.68 -1.14,-0.19 -2.27,-0.81 -3.4,-1.88 2.9,5.8 0.78,10.58 2.18,14.87 -1.76,-0.47 -3.84,-1.54 -5.59,-2.89 2.31,3.57 2.11,7.98 6.75,11.88 -8.14,1.55 -10.93,-4.91 -16.4,-7.37 l -0.2,-0.2 c 0.25,0.14 0.5,0.2 0.77,0.32 3.97,-5.08 -1.52,-17.37 13.12,-33.73 l -2.01,-1 z"/>
	<path style="fill:#e0e000;stroke:none;" d="m 468.41,303.16 c -2.2,8.87 -12.44,9.97 -20.25,10.55 -5.09,0.37 -10.93,0.41 -14.83,-0.25 -3.66,-0.62 -5.71,-1.67 -2.25,-5.08 6.44,-6.37 11.58,-12.65 14.87,-19.31 h 0.24 c 7.07,2.41 15.28,7.26 22.22,14.09"/>
	<path style="fill:#e0e000;stroke:none;" d="m 481.33,279.17 c 6.46,5.2 12.71,12.34 20.56,5.09 -9,-1.02 -5.5,-16.5 -17.86,-21.95 3.48,-0.83 8.11,2.17 10.42,1.01 -1.34,-1.75 -2.09,-3.94 -2.77,-5.5 -2.73,-6.43 -11.03,-8.93 -12.71,-15.31 2.8,0.44 5.9,4.56 9.52,4.82 -1.54,-10.52 -10.09,-15.21 -13.13,-20.23 2.29,0.7 4.57,2.62 6.87,1.75 -2.7,-2.66 -3.95,-6.44 -6.74,-9.23 -2.58,-2.61 -5.16,-5.34 -6.05,-8.73 -0.14,1.02 -0.17,2.06 -0.17,3.11 0,15.31 3.06,32.9 10.15,51.69 2.03,5.41 2.66,10.06 1.66,13.31 z"/>
	<path style="fill:#ffff00;stroke:none;" d="m 351.34,-34.475 c -0.22,-0.385 -0.43,-0.769 -0.62,-1.15 l -7.97,-2.646 c -1.65,-0.148 -3.99,1.229 -6.51,2.575 -3.38,1.822 -4.41,4.115 -7.88,3.234 -2.24,-0.571 -4.47,-0.653 -6.71,-0.718 -17.56,-0.506 -36.13,-15.31 -51.25,-10.871 -11.43,-7.028 -25.05,-11.841 -38.7,-16.005 -2.53,-6.303 -7.53,-11.125 -13.55,-14.718 0.46,-0.578 0.71,-1.531 0.66,-2.796 1.21,-0.314 2.05,-1.204 2.21,-3.471 0.15,0.03 0.19,0.04 0.31,0.07 2.88,1.646 5.34,1.646 5.54,-1.234 0.17,-2.382 0.18,-4.68 0.15,-7.066 0,-2.705 -0.4,-5.702 0.5,-8.407 1.94,-0.585 2.83,-2.145 3.61,-4.942 2.17,-7.84 0.57,-14.33 -1.96,-17.95 -5.71,-0.2 -11.43,-0.7 -16.09,-4.88 2.87,10.57 0,17.58 -8.52,21.01 -5.21,2.09 -8.27,6.03 -9.44,10.682 -1.64,-2.26 -2.18,-4.615 -1.5,-6.882 4.03,-13.77 -6.55,-14.63 -9.07,-8.63 -0.69,1.66 -0.66,3.04 -0.56,4.51 -6.99,5.862 -13.38,12.736 -19.39,19.609 -2.52,2.893 -5.43,1.8 -8.81,-0.07 -13.85,-7.662 -23.95,-5.556 -32.44,-1.815 -12.78,-8.949 -25.508,-10.516 -38.713,-1.936 -3.904,2.536 -14.032,0.745 -13.862,8.133 0.133,5.476 8.64,7.345 12.004,10.483 9.354,8.915 24.681,15.644 44.071,19.263 2.87,16.804 4.46,28.877 13.68,36.248 0.15,16.0637 2.14,27.186 10.22,37.277 -1.78,7.091 -1.66,14.873 1.46,22.391 0.76,-3.56 2.71,-4.914 3.81,-9.798 4.39,8.268 -0.82,14.843 2.06,21.081 0.61,-3.089 2.23,-3.472 2.67,-7.076 4.42,4.663 1.94,14.564 5.36,17.035 0,-3.413 1.38,-4.648 1.4,-7.723 3.69,3.075 4.02,6.738 4.89,10.283 3.08,-3.634 6.79,-6.738 10.82,-10.268 1.05,3.369 -0.46,6.017 -0.34,9.415 4.13,-4.781 5.01,-12.725 9.9,-19.095 1.73,3.928 0.95,7.944 2.07,10.812 3.49,-6.399 0.9,-17.653 8.92,-23.64 -0.43,4.178 0.61,7.297 0.92,10.93 3.39,-6.561 5.18,-12.475 5.87,-17.771 7.41,-9.488 12.62,-24.3323 13.56,-41.47 3.52,-4.075 6.49,-8.489 8.61,-13.343 13.59,5.09 27.2,7.267 40.82,6.576 8.19,7.738 25.02,7.546 43.98,5.428 3.64,-0.412 6.68,0.839 10.33,0.647 3.35,-0.176 2.56,-0.779 5.06,1.324 2.94,2.4864 8.07,4.6787 13.75,5.2667 1.89,0.191 3.99,0 5.84,-0.309 2.47,-0.471 3.39,-3.7957 2.24,-5.2217 0.85,0 1.65,-0.309 2.44,-1.133 1.44,-1.471 1.44,-4.016 0.81,-4.914 0.84,-0.147 1.59,-0.353 2.22,-1.088 1.05,-1.207 1.21,-3.384 0.32,-6.164 2.12,-0.265 3.74,-1.28 3.98,-3.598 l -2.43,-3.871 -10.72,-1.616 z"/>
	<path style="fill:none;stroke:#b8860b;" d="m 256.25,33.687 c 5.56,0.942 11.69,4.546 18.05,6.591 8.15,2.618 16.62,3.957 24.65,6.282 11.55,3.354 22.38,2.486 31.26,-3.09 19.79,-12.431 40.79,-11.165 61.18,-2.957 m 38.01,20.36 c 10.4,5.002 14.18,14.623 13.12,27.641 -1.2,14.826 -5.65,29.026 -11.26,42.776 -2.03,4.97 -1.8,9.96 0.47,14.37 2.73,5.36 5.34,10.82 8.79,16.22 3.59,5.61 8.06,6.23 12.51,6.94 4.48,0.7 8.97,1.22 12.51,4.15 2.76,2.26 5.08,5.69 4.71,13.96 -0.15,3.16 0.35,4.59 0.83,7.6 0.69,4.46 -1.08,8.27 -1.3,12.6 -0.15,2.23 -0.51,4.53 -0.51,6.87 0,15.31 3.06,32.89 10.15,51.69 4.66,12.36 1.94,20.85 -10.76,17.27 1.06,8.46 0.97,15.55 -0.19,20.01 -2.12,9.03 -12.44,10.15 -20.3,10.72 -5.1,0.37 -10.93,0.41 -14.83,-0.25 -3.66,-0.62 -5.72,-1.66 -2.25,-5.07 6.53,-6.46 11.73,-12.85 15.01,-19.63 2.28,-3.01 4.41,-3.09 7.04,-5.68 3.4,-3.35 1.52,-6.23 1.95,-11.54 0.39,-5.15 1.38,-9.4 1.19,-14.6 -0.71,-20.06 -3.56,-36.51 -10.09,-50.93 -3.59,-7.94 -10.26,-13.96 -15.88,-18.74 -3.56,-3.03 -7.6,-4.81 -11.51,-5.99 -14.7,-4.39 -26.76,-13.6 -38.35,-23.74 -20.77,2.59 -26.53,-13.83 -32.17,-30.2 -4.11,-11.95 -9.71,-23.72 -16.61,-34.286 m -3.24,-32.381 c -1.75,7.429 -7.38,14.711 -5.96,21.311 1.64,7.54 7.55,10.66 13.77,13.47 1.78,0.79 3.55,1.97 5.33,3.23 m -115.17,-82.159 c 25.33,4.781 37.01,20.801 38,45.369 m -43.16,-56.0203 c 6.53,5.8853 6.91,17.5063 1.22,32.5113 m 227.84,140.225 c 2.73,0.66 5.05,-0.25 7.98,-0.97 4.63,-1.17 7.93,3.39 3.47,11.76 0.93,4.93 0.54,9.85 0,14.77 m -59.97,9.54 c 5.47,2.45 8.26,8.91 16.4,7.37 -4.64,-3.9 -4.44,-8.31 -6.75,-11.89 1.75,1.35 3.84,2.43 5.59,2.9 -1.4,-4.3 0.7,-9.08 -2.18,-14.87 1.13,1.07 2.26,1.69 3.4,1.88 -1.59,-4.06 1.31,-7.8 -0.28,-11.68 2.09,1.56 2.01,3.18 4.28,4.16 -0.94,-3.18 1.12,-6.52 0.17,-9.03 m 11.17,-57.98 c 19.34,15.11 19.74,11.76 2.31,29.13 m -13.98,-63.456 c 6.58,8.99 8.86,19.666 2.8,34.466 -2.06,5.03 -2.24,7.88 0.53,9.98 m 44.16,76.16 c 0.87,3.42 3.46,6.15 6.06,8.77 2.78,2.81 4.04,6.58 6.74,9.24 -2.3,0.87 -4.59,-1.06 -6.87,-1.75 3.04,5.03 11.59,9.71 13.13,20.24 -3.62,-0.28 -6.73,-4.4 -9.51,-4.84 1.66,6.39 9.95,8.9 12.7,15.32 0.67,1.55 1.43,3.75 2.77,5.51 -2.31,1.16 -6.94,-1.85 -10.41,-1.01 12.34,5.44 8.85,20.92 17.84,21.95 -7.84,7.25 -14.09,0.14 -20.55,-5.11 m -35.14,9.89 c 7.15,2.45 15.47,7.4 22.46,14.34 m -79.92,-63.17 c 5.25,-5.77 8.83,-12.27 10.97,-19.99 m 15.8,-40.15 c -14.64,16.36 -9.15,28.66 -13.12,33.73 -10.3,-4.47 -9.53,3.98 -2.9,6.35 11.46,2.83 16.93,13.91 10.23,34.67 -1.2,3.71 -2.8,3.88 -5.15,0.93 -5.03,-6.32 -10.23,-11.18 -15.35,-15.2 -5.61,-1.84 -7.39,-4.3 -7.1,-6.99 0.35,-3.34 -0.47,-6.85 -2.24,-9.68 -6.42,-10.3 -5.89,-17.22 -2.2,-21.71 7.78,-9.5 15.25,-19.36 21.83,-30.1 m -187.69,3.35 c -5.75,6.8 -7.57,15.76 -10.65,20.2 -1.44,2.09 -2.04,4.84 -2.34,7.53 -0.54,4.92 -2.73,6.83 -5.51,10.46 -2.22,2.93 -4.31,6.02 -6.61,8.55 -4.6,5.05 -9.75,8.47 -13.7,14.12 -7.01,10.01 -12.76,22.01 -17.32,33.72 -1.31,3.38 -5.07,13.06 -9.54,8.18 -3.08,-3.35 -9.58,-2.32 -10.59,5.47 -0.25,1.94 -0.1,2.94 0.54,4.68 0.57,1.53 0.8,3.27 0.1,5.59 -0.14,2.91 -1.94,4.97 -4.71,6.39 -9.87,4.98 -30.39,1.64 -34.848,-2.02 5.928,-4.68 14.388,-12.7 19.398,-20.24 1.8,-2.69 3.38,-3.77 5.88,-3.74 3.57,0 9.17,-6.18 9.04,-8.91 -0.16,-3.23 1.37,-5.7 3.82,-7.52 10.51,-7.8 18.84,-18.05 26.21,-29.22 1.7,-2.56 2.07,-5.28 2.07,-7.68 0,-7.03 3.03,-11.82 7.16,-15.91 1.8,-1.8 1.61,-1.84 1.8,-4.23 0.33,-4.31 2.64,-7.72 5.58,-10.84 2.66,-2.81 5.14,-1.13 7.42,-4.35 2,-3.83 3.51,-8.11 5.53,-12.67 1.39,-3.13 3.4,-6.57 4.47,-9.32 2.19,-5.67 3.32,-12.6 5.19,-18.6 1.38,-4.47 3.61,-9.03 4.9,-13.64 1.79,-9.34 8.24,-7.41 13.81,-8.66 m -19.89,-14.52 c -2.73,9.62 -2.2,20.02 3.08,31.55 m 31.99,14.13 c 11.01,-3.67 20.52,-14.33 29.63,-29.81 m -116.95,154.63 v 0 c 3.83,4 0.7,12.39 11.5,12 -3.23,-6.98 4.29,-17.31 3.79,-28.39 2.11,3.86 0.43,7.11 2.54,10.2 2.56,-6.52 8.3,-6.93 8.08,-26.06 1.91,3.65 3.97,4.11 3.91,11.4 8.5,-8.31 3.03,-18.13 3.72,-22.61 0.78,2.08 2.33,3.75 4.17,5.02 -0.3,-4.5 1.06,-9.78 -0.9,-14.9 v 0 m -67.46,52.56 c 7.84,4.22 14.69,9.43 20.11,16.08 m 27.82,-51.49 c 6.47,-13.45 13.07,-14.8 18.15,-19.2 m 54.16,-70.23 c 35.57,18.35 86.58,17.45 122.27,-3.72 m -154.93,41.31 c 12.11,-8.95 22.83,-20.39 29.95,-35.59 1.46,-3.1 2.52,-6.46 3.69,-9.69 m -118.88,51.07 c 12.35,-3.64 28,-1.5 34.41,6.54 -5.96,3.41 -10.23,7.53 -13.22,12.06 -1.04,1.5 -2.07,1.9 -3.25,1.46 -2.55,3.07 -4.82,5.54 -6.95,8.28 -1.43,1.84 -3.15,2.32 -5.32,2.22 -3.73,-0.21 -6.7,0.32 -9.83,2.84 -2.21,1.76 -5.33,1.68 -7.72,0 -4.34,-3.16 -8.485,-5.37 -12.286,-8 -1.677,-1.17 -1.372,-3.58 -1.244,-6.32 0.738,-15.6 -4.091,-30.61 -9.788,-45.45 -0.842,-2.19 -2.413,-3.89 -4.374,-5.39 -3.858,-2.94 -3.596,-8.93 -1.753,-11.68 2.411,-3.6 3.894,-6.93 5.16,-11.15 1.593,-5.31 5.215,-7.46 11.711,-6.18 17.654,-12.53 35.694,-28.48 46.744,-31.8 m -38.58,70.08 c 2,3.37 4.48,6.42 8.76,6.42 -0.38,2.1 -1.62,3.34 -2.72,4.14 2.56,1.48 4.71,1.03 7.59,-0.42 0.2,2.92 -1.45,5.79 -3.74,7.63 2.47,0.39 4.65,-0.31 7.64,-2.73 0,7.25 -3.46,12.94 -8.16,17.72 m -1.38,-65.05 c 1.84,-1.59 6.07,-3.24 10.9,-2.97 19.75,1.07 33.26,-1.88 37.83,-12.21 m 40.39,21.52 c -7.15,0.87 -12.74,-3.06 -15.6,-7.88 -16.39,-1.71 -30.08,-17.14 -43.24,-36.52 -11.14,-16.396 -12.57,-32.724 -10.96,-49.686 0.35,-3.648 5.4,-7.797 10.31,-8.415 m -18.53,162.431 c 5.85,0 10.96,2.87 15.32,8.79 m -22.56,-12.63 c 6.74,-1.3 9.05,3.9 7.36,12.46 m -20.05,-51.95 c 1.08,15.8 4.01,32.98 11.1,43.83 m 51.51,-76.88 c -1.49,4.21 -3.16,7.74 -5.75,10.99 -0.88,1.11 -3.05,0.74 -4.33,-0.31 -13.98,3.61 -28.57,6.45 -42.54,7.57 -4.88,5.5 -9.26,12 -12.539,20.69 m 48.699,-152.559 c -6.16,8.9 -9.2,22.581 -7.71,39.97 m 289.7,2.942 c 0.63,-0.206 1.25,-0.397 1.87,-0.603 -10.39,-7.885 -21.39,-14.299 -31.96,-18.154 -2.64,-0.412 -5.27,-0.941 -7.9,-1.603"/>
	<path style="fill:#e0e000;stroke:#b8860b;" d="m 312.31,-125.79 c 16.48,9.02 28.98,12.55 40.75,28.779 8.5,11.738 13.28,25.953 13.54,41.559 0.3,18.141 -2.54,37.915 -7.89,55.24473 -5.39,17.44727 -15.41,30.12827 -29.62,39.07327 -11.35,7.149 -29.68,11.298 -41.71,13.519 -6.77,1.251 -11.98,3.869 -13.51,10.813 -1.89,-8.356 2.59,-13.682 13.11,-17.139 14.67,-4.81 27.32,-7.664 37.35,-15.873 10.24,-8.356 17.89,-19.83 22.74,-34.7473 5.12,-15.7117 7.43,-36.0537 6.55,-52.5567 -1.25,-23.428 -9.4,-36.764 -23.04,-48.642 -7.02,-6.11 -15.96,-9.21 -22.82,-15.16 -6.06,-5.25 -8.03,-11.19 -5.11,-19.26 0.44,6.31 3.66,11.11 9.66,14.39 z"/>
	<path style="fill:#ffff00;stroke:none;" d="m 358.91,-24.598 c -3.57,-1.677 -6.32,2.472 -3.96,4.472 0.36,0.295 0.71,0.559 1.08,0.795 -2.11,-0.559 -4.71,3.324 -1.65,5.399 -2.09,0.441 -3.65,3.648 -0.91,5.8397 1.5,1.206 5.16,1.721 7.8,1.236 2.47,-0.471 3.41,-3.8547 2.23,-5.2667 0.15,0 0.3,0 0.43,0 3.38,-0.588 3.62,-4.546 2.92,-5.678 l -0.17,-0.265 c 0.22,0 0.45,-0.147 0.69,-0.147 2.35,-0.53 3.15,-3.222 1.9,-7.091 2.1,-0.25 3.78,-1.265 4.03,-3.602 l -2.46,-3.868 -10.72,-1.617 c -0.22,-0.385 -0.43,-0.769 -0.62,-1.152 l -7.97,-2.645 c -1.65,-0.147 -3.99,1.229 -6.5,2.576 -3.39,1.822 -4.42,4.115 -7.89,3.232 l 3.13,14.579 c 6.08,-0.339 11.07,-2.075 10.76,-9.665 1.42,0 3.17,-0.677 4.19,-1.655 0.88,1.831 2.22,3.479 3.69,4.597"/>
	<path style="fill:none;stroke:#b8860b;" d="m 308.09,-129.04 -107,69.992 82.45,112.389"/>
	<path style="fill:#ffff77;stroke:#b8860b;" d="m 196.28,-53.658 c 7.22,4.258 22.47,3.379 30.54,-2.918 -6.58,-9.629 -19.16,-11.603 -28.84,-10.597 z"/>
	<path style="fill:none;stroke:#b8860b;" d="m 231.83,-60.042 c 16.33,4.996 32.39,10.931 44.97,20.432"/>
	<path style="fill:#e0e000;stroke:#b8860b;" d="m 366.3,-34.563 -170.07,-25.362 0.31,-2.496 170.18,25.376 -0.42,2.479 z"/>
	<path style="fill:#ffff77;stroke:#b8860b;" d="m 361.22,-38.829 10.28,1.537 4.06,-3.607 15.82,8.847 -17.71,3.835 -2.83,-4.635 -10.28,-1.537 z"/>
	<path style="fill:#ffff00;stroke:none;" d="m 88.561,-65.632 c 16.119,6.013 37.399,5.953 54.879,5.582 1.52,-0.03 3.11,0.352 4.54,1.541 3.06,2.545 5.82,2.715 9.26,2.261 3.43,8.185 15.69,4.718 25,2.784 0.15,1.491 0.58,2.665 1.48,3.031 -4.5,2.064 -7.07,6.204 -3.5,7.113 3.17,-1.964 8.13,-3.531 9.79,-5.326 4.02,1.277 3.66,0.425 6.49,-3.699 5.53,-5.067 6.07,-5.326 1.22,-10.662 2.26,-3.108 3.66,-5.123 0.72,-6.796 -2.59,-1.477 -4.62,-3.098 -7.18,-4.141 -2.35,-0.959 -4.84,-0.856 -7.4,-0.622 -5.32,0.482 -10.77,1.834 -16.07,3.057 -3.01,0.692 -5.75,0.219 -8.67,-1.324 -11,-5.788 -27.53,-7.612 -31.09,-10.589 -14.36,-12.019 -28.585,-15.179 -43.411,-5.545 -3.906,2.536 -14.033,0.746 -13.861,8.134 0.132,5.474 8.639,7.343 12.002,10.483 1.706,1.624 3.711,3.244 5.801,4.718"/>
	<path style="fill:#e0e000;stroke:none;" d="m 157.55,-84.315 c 2.63,1.244 4.96,1.552 7.03,-0.82 6.01,-6.873 12.4,-13.747 19.4,-19.555 -0.15,-1.45 -0.16,-2.86 0.54,-4.56 2.52,-6 13.1,-5.14 9.07,8.62 -0.67,2.274 -0.15,4.628 1.51,6.888 1.16,-4.65 4.22,-8.598 9.44,-10.688 8.55,-3.42 11.38,-10.43 8.51,-21.01 9.16,8.21 22.34,2.23 31.49,7.76 -0.53,-7.05 -5.87,-11.37 -14.97,-11.79 -7.3,-0.34 -10.68,-3.11 -16.52,-6.26 -15.79,-8.54 -40.13,0.65 -38.15,21.25 0.19,1.96 0.1,3.32 -0.58,4.13 -0.9,1.11 -7.51,2.13 -9.49,3.06 -13.63,6.48 -13.72,15.831 -7.28,22.976"/>
	<path style="fill:#e0e000;stroke:none;" d="m 238.32,-119.89 c 2.99,6.15 -0.15,13.04 -6.83,15.63 1.56,-7.08 0,-12.91 -2.31,-16.29 3.12,0.12 6.21,0.15 9.14,0.66"/>
	<path style="fill:none;stroke:#b8860b;" d="m 169.79,106.93 c -1.34,-13.176 -0.92,-25.516 2.58,-38.289 3.08,-3.634 6.8,-6.753 10.83,-10.283 1.04,3.369 -0.47,6.017 -0.35,9.429 4.15,-4.795 5.03,-12.739 9.9,-19.094 1.75,3.913 0.97,7.944 2.07,10.812 3.5,-6.399 0.9,-17.653 8.92,-23.64 -0.43,4.163 0.61,7.282 0.94,10.93 11.5,-22.317 4.57,-37.3073 -0.24,-44.0893 m -30.03,14.4173 c 2.1,1.471 4.4,1.809 6.78,1.633 2.42,1.441 4.85,1.927 7.28,1.736 m -12.23,27.774 c 1.93,-5.987 1.32,-11.578 2.1,-17.844 0.86,-7.018 4.1,-13.652 4.93,-20.9193 m -10.83,59.4473 c -0.93,-3.663 -1.15,-7.429 -4.96,-10.607 0,3.089 -1.38,4.31 -1.4,7.738 -3.42,-2.471 -0.93,-12.372 -5.36,-17.035 -0.44,3.589 -2.06,3.972 -2.67,7.061 -2.87,-6.238 2.34,-12.813 -2.06,-21.081 -1.1,4.899 -3.04,6.252 -3.8,9.798 -7.06,-16.962 1.21,-35.3213 12.04,-43.7213 m 5.03,37.4543 c 2.4,1.427 5.04,2.427 8.53,1.927 3.25,1.339 6.5,1.956 9.75,0 m 22.96,-11.489 c 7.46,-9.445 12.65,-24.2883 13.59,-41.397 m -97.28,-38.824 c 3.03,17.815 4.61,30.335 15.27,37.544 m 8.84,36.38 c -8.24,-10.136 -10.27,-21.3163 -10.41,-37.469 m 58.19,-13.505 c 3.99,0.81 8.05,2.222 11.98,4.237 5.56,2.839 10.12,2.192 13.78,-1 3.68,-3.207 6.86,-7.073 10.28,-9.964 7.4,2.897 14.79,5.458 22.19,5.667 m -24.38,3.547 c 15.39,5.752 30.78,7.796 46.15,6.134 m -58.52,11.2687 c 7.43,-7.3257 13.18,-15.6377 15.26,-26.1737 m 104.83,16.714 c 6.08,-0.338 11.07,-2.088 10.76,-9.665 1.42,0 3.16,-0.676 4.19,-1.657 2.07,4.364 6.75,7.63 9.66,5.32 1.68,-1.324 0.27,-2.956 -0.57,-4.207 -1.74,-2.556 -3.57,-5.094 -4.81,-7.535 m 6.34,10.065 c 3.49,0.604 7.08,0.147 7.47,-3.431 m -14.56,4.505 c -3.59,-1.677 -6.16,2.354 -3.8,4.355 3.64,3.06 8.11,2.795 12.42,1.839 2.35,-0.53 3.15,-3.222 1.9,-7.076 m -13.32,6.09 c -2.1,-0.544 -4.63,3.266 -1.6,5.34 2.71,1.854 6.24,2.31 9.58,1.736 3.38,-0.588 3.62,-4.56 2.92,-5.679 m -12.29,3.928 c -2.19,0.295 -3.89,3.605 -1.09,5.8557 1.5,1.206 5.16,1.721 7.8,1.221 2.47,-0.456 3.38,-3.7807 2.29,-5.1787 m -90.03,-7.135 c 8.2,7.709 25.03,7.518 43.97,5.384 3.64,-0.397 6.68,0.839 10.33,0.648 3.37,-0.177 2.57,-0.765 5.06,1.338 3.13,2.6484 8.78,4.9577 14.9,5.3407 m -77.24,-37.5897 c 15.11,-4.438 33.55,10.385 51.1,10.891 2.24,0.06 4.49,0.147 6.72,0.716 3.46,0.883 4.49,-1.411 7.89,-3.232 2.5,-1.347 4.85,-2.52 6.49,-2.379 m -206.42,-21.792 c 2.48,2.428 3.88,7.357 5.21,11.69 1.51,4.909 3.36,10.045 5.93,14.485 3.51,6.086 8.58,9.454 19.84,6.63 4.03,-1.015 8.26,-1.682 12.84,-1.265 m -91.474,-37.294 c 16.124,6.014 37.354,5.98 54.834,5.608 1.52,-0.03 3.11,0.352 4.54,1.54 3.05,2.545 5.81,2.716 9.26,2.26 3.43,8.185 15.68,4.718 25.01,2.785 0.15,1.49 0.57,2.664 1.47,3.032 -4.5,2.063 -7.07,6.203 -3.5,7.112 3.18,-1.964 8.13,-3.53 9.79,-5.327 4.01,1.277 3.65,0.427 6.49,-3.699 5.53,-5.067 6.08,-5.326 1.22,-10.661 2.25,-3.109 3.67,-5.123 0.72,-6.795 -2.6,-1.477 -4.62,-3.1 -7.17,-4.142 -2.36,-0.959 -4.84,-0.856 -7.42,-0.623 -5.31,0.484 -10.76,1.834 -16.07,3.057 -3,0.694 -5.74,0.219 -8.67,-1.324 -10.99,-5.788 -27.52,-7.612 -31.08,-10.589 -14.36,-12.019 -28.589,-15.179 -43.415,-5.545 -3.904,2.538 -14.032,0.746 -13.861,8.134 0.132,5.475 8.639,7.345 12.003,10.483 11.607,11.061 32.403,18.756 58.743,21.32 m 45.57,-8.241 c 1.31,2.175 3.44,7.321 2.62,9.002 m 0.74,-14.879 c 1.66,2.15 4.38,7.516 5.45,11.729 m 2.11,-11.434 c -2.46,-2.094 -4.75,-3.446 -7.12,-6.612 m -22.61,-30.398 c -4.05,5.891 -8.28,11.024 -5.2,15.935 m -5.5,-0.415 c -6.45,-7.122 -6.35,-16.479 7.28,-22.949 1.97,-0.94 8.59,-1.96 9.49,-3.07 0.65,-0.8 0.77,-2.16 0.58,-4.12 -1.99,-20.6 22.36,-29.79 38.14,-21.26 5.84,3.16 9.22,5.92 16.52,6.26 9.11,0.43 14.45,4.74 14.97,11.8 -9.14,-5.54 -22.32,0.45 -31.49,-7.76 2.87,10.57 0,17.58 -8.5,21.01 -5.22,2.09 -8.28,6.032 -9.45,10.683 -1.64,-2.26 -2.17,-4.615 -1.51,-6.883 4.03,-13.77 -6.55,-14.63 -9.06,-8.63 -1.16,2.79 -0.27,4.81 -0.37,7.52 -0.15,3.85 -0.24,6.663 3.31,6.724 -3.71,15.834 3.78,18.011 22.2,27.264 2.92,1.479 8.78,-0.629 6.94,-6.153 m 16.02,16.669 c -2.04,-7.721 -7.59,-13.431 -14.46,-17.533 m -94.84,-12.25 c 8.49,-3.752 18.59,-5.858 32.44,1.802 3.38,1.876 6.29,2.969 8.81,0.07 6.01,-6.873 12.4,-13.747 19.39,-19.563 m 3.37,-1.88 c -0.33,-5.17 7.32,-1.94 2.41,1.78 -4.72,3.57 1.75,5.49 1.32,0.52 m 40.41,0 c 6.77,-2.58 9.84,-9.49 6.83,-15.65 m -30.64,35.425 c 1.76,-5.28 8.34,-1.491 9.43,-8.507 m 12.07,-27.578 c 2.52,3.64 4.11,10.12 1.93,17.97 -0.77,2.789 -1.66,4.35 -3.59,4.934 -0.9,2.706 -0.57,5.702 -0.51,8.408 0.14,2.386 0,4.684 -0.15,7.065 -0.19,2.879 -2.66,2.881 -5.53,1.233 -4.94,-1.117 -3.87,-5.159 -1.65,-5.667 m -4.12,-10.206 c 0.85,1.377 3.06,1.659 4.02,0.272 m -6.81,-0.85 c 3.37,-0.103 4.89,2.399 7.97,0.175 m -11.36,-3.364 c 6,1.182 7.12,-0.81 9.61,0.35 2.12,0.988 3.04,3.724 6.38,0.601 m -10.29,25.967 c 2.32,0 3.82,-0.671 3.73,-3.78 m -7.59,0.02 c 4.59,-0.993 9.34,2.202 9.81,-3.587"/>
	<path style="fill:#e0e000;stroke:#b8860b;" d="m 155.92,-34.607 c 1.5,0.53 2.42,1.827 2.04,2.9 -0.38,1.071 -1.9,1.509 -3.41,0.981 -1.5,-0.53 -2.41,-1.827 -2.04,-2.9 0.38,-1.071 1.9,-1.511 3.41,-0.981 z"/>
	<path style="fill:#e0e000;stroke:#b8860b;" d="m 218.96,-29.649 c 1.57,-0.265 3,0.428 3.19,1.55 0.19,1.118 -0.94,2.236 -2.5,2.501 -1.57,0.265 -3.01,-0.427 -3.19,-1.545 -0.19,-1.118 0.93,-2.242 2.5,-2.506 z"/>
	<path style="fill:#e0e000;stroke:#b8860b;" d="m 429.44,60.903 c 4.56,1.9 9.35,4.588 15.04,4.949 7.12,0.488 13.69,-1.65 16.55,1.55 3.74,4.006 6.44,8.941 1.61,16.219 -1.3,2.178 -4.92,4.477 -6.98,5.135 -2.97,0.749 -6.59,-1.179 -9.57,-0.423 -2.47,0.768 -4.15,2.48 -5.09,5.57 -0.47,3.31 3.32,7.057 3.32,7.057 0.48,-3.414 1.29,-5.58 2.67,-5.224 1.89,0.55 3.66,1.694 5.96,2.186 2.31,0.477 4.78,0.336 6.42,-1.128 -0.61,0.763 -1.9,3.286 -2.49,3.876 -12.96,10.48 -20.26,28.23 -8.02,40.45 3.78,3.91 8.14,6.64 9.45,11.12 3.91,10.27 -4.11,12.54 -7.21,10.51 2.64,5.37 7.2,7.11 10.62,6.21 4.98,-1.08 9.1,-6.34 8.13,-13.25 5.7,7.06 2.39,17.36 8.73,23.47 3.36,3.19 10.4,4.18 14.36,-3.49 -2.99,0.78 -5.24,-0.1 -6.46,-1.66 -3.67,-4.67 -1.43,-16.95 -1.44,-20.67 0.51,-7.13 -1.01,-13.2 -4.92,-16.18 5.04,-1.52 11.07,3.06 9.22,12.78 4.17,-2.03 5.74,-6.64 5.93,-11.68 -0.49,-6.68 -3.83,-13.73 -9.04,-17.59 -4.4,-3 -6.13,-7.64 -7.33,-12.89 0,0 7.41,-1 10.56,0 1.4,0.41 3.69,1.53 3.88,3.25 -0.15,1.09 -0.97,3.93 -0.97,3.93 8,-2.87 4.5,-15.453 -1.7,-18.852 3.86,-0.305 4.76,-0.184 6.84,2.567 1.09,-11.451 -1.89,-21.092 -7.52,-25.506 3.14,-1.947 6.02,1.643 5.95,2.097 0.36,-9.184 -3.05,-15.661 -8.21,-20.453 -5.09,-4.686 -9.34,-8.234 -16.29,-10.468 0,0 1.46,-3.272 1.8,-5.77 0.25,-1.744 -0.47,-3.77 -1.24,-4.996 -1.19,-1.691 -5.41,-2.533 -5.41,-2.533 0,0 1.49,3.35 1.66,5.237 -0.2,1.395 0,3.623 -0.98,4.008 -4.57,1.653 -9.3,1.067 -13.68,4.68 -5.01,4.893 -22.83,13.242 -33.07,7.85 3.87,2.507 7.48,5.067 8.92,8.062 z"/>
</g>
<use id="shine" xlink:href="#shield" style="fill:url(#rg);stroke:#000000;stroke-width:3;"/>
</svg>
