<?xml version="1.0" encoding="UTF-8"?>
<svg xmlns="http://www.w3.org/2000/svg" xmlns:xlink="http://www.w3.org/1999/xlink" width="600" height="660">
<defs>
  <radialGradient id="rg" gradientUnits="userSpaceOnUse" cx="220" cy="220" r="405">
    <stop style="stop-color:#fff;stop-opacity:.3" offset="0"/>
    <stop style="stop-color:#fff;stop-opacity:.2" offset=".2"/>
    <stop style="stop-color:#666;stop-opacity:.1" offset=".6"/>
    <stop style="stop-color:#000;stop-opacity:.13" offset="1"/>
  </radialGradient>
  <clipPath id="clip-shield">
    <path id="shield" d="m2,2v257c0,286 298,398 298,398c0,0 298-112 298-398V2z"/>
  </clipPath>
</defs>
<use id="shine" xlink:href="#shield" style="fill:#555555;"/>
<g style="fill:none;stroke:#333333;stroke-width:10;clip-path:url(#clip-shield);">
  <path d="m 0,0 h 600 m -600,60 h 600 m -600,60 h 600 m -600,60 h 600 m -600,60 h 600 m -600,60 h 600 m -600,60 h 600 m -600,60 h 600 m -600,60 h 600 m -600,60 h 600 m -600,60 h 600 m -600,60 h 600"/>
  <path d="m 0,0 v 60 m 100,-60 v 60 m 100,-60 v 60 m 100,-60 v 60 m 100,-60 v 60 m 100,-60 v 60 m 100,-60 v 60"/>
  <path d="m 50,60 v 60 m 100,-60 v 60 m 100,-60 v 60 m 100,-60 v 60 m 100,-60 v 60 m 100,-60 v 60"/>
  <path d="m 0,120 v 60 m 100,-60 v 60 m 100,-60 v 60 m 100,-60 v 60 m 100,-60 v 60 m 100,-60 v 60 m 100,-60 v 60"/>
  <path d="m 50,180 v 60 m 100,-60 v 60 m 100,-60 v 60 m 100,-60 v 60 m 100,-60 v 60 m 100,-60 v 60"/>
  <path d="m 0,240 v 60 m 100,-60 v 60 m 100,-60 v 60 m 100,-60 v 60 m 100,-60 v 60 m 100,-60 v 60 m 100,-60 v 60"/>
  <path d="m 50,300 v 60 m 100,-60 v 60 m 100,-60 v 60 m 100,-60 v 60 m 100,-60 v 60 m 100,-60 v 60"/>
  <path d="m 0,360 v 60 m 100,-60 v 60 m 100,-60 v 60 m 100,-60 v 60 m 100,-60 v 60 m 100,-60 v 60 m 100,-60 v 60"/>
  <path d="m 50,420 v 60 m 100,-60 v 60 m 100,-60 v 60 m 100,-60 v 60 m 100,-60 v 60 m 100,-60 v 60"/>
  <path d="m 0,480 v 60 m 100,-60 v 60 m 100,-60 v 60 m 100,-60 v 60 m 100,-60 v 60 m 100,-60 v 60 m 100,-60 v 60"/>
  <path d="m 50,540 v 60 m 100,-60 v 60 m 100,-60 v 60 m 100,-60 v 60 m 100,-60 v 60 m 100,-60 v 60"/>
  <path d="m 0,600 v 60 m 100,-60 v 60 m 100,-60 v 60 m 100,-60 v 60 m 100,-60 v 60 m 100,-60 v 60 m 100,-60 v 60"/>
</g>
<g id="brazier" style="stroke:1;stroke:linejoin-round;stroke-linecap:round;">
  <path style="fill:#050505;stroke:#000000;" d="m 300,505.6 c -19.8,0 -12.8,-27.5 -12.8,-27.5 h 25.5 c 0,0 7,27.5 -12.7,27.5 z"/>
  <path style="fill:#050505;stroke:#000000;" d="m 126,378.9 a 558.7,186.2 0 0 1 347.6,0 217.3,62.08 0 0 1 -347.6,0"/>
  <path style="fill:#dd5d00;stroke:#550000;" d="m 434.7,224.9 c -54.6,8.1 -29.2,75.7 -62.7,65.2 -17.4,-7.5 8.1,-33.5 10.5,-72 0,-32.3 -18.6,-36.6 -7.4,-75.8 -46.6,29.2 -20.5,69.6 -46.6,80.1 -30.4,-22.9 28.6,-113.7 -47.2,-147.78 18.7,52.68 0,67.68 -6.8,94.38 -13,33.6 6.8,67.1 -8.1,74.5 -30.4,-4.9 -4.9,-65.2 -44,-82.5 7.4,33.5 -7.5,44 -11.2,72 -1.9,36 26.7,44.1 8.7,57.1 -21.1,15.5 -16.2,-67.7 -52.3,-62.1 16.3,35.4 -10.2,65.2 -2.2,106.2 11,51.5 72.5,75.1 134.6,72.6 59.6,0 103,-19.2 124.1,-64.6 12.4,-29.1 -13,-75.7 10.6,-117.3 z" />
  <path style="fill:#ff9510;stroke:none;" d="m 186.4,282.6 c -5.6,30.5 0,67.1 10.5,82 23,34.1 74.5,42.2 104.9,42.2 34.8,-3.1 78.3,-13 94.4,-39.1 9.3,-12.4 17.4,-50.9 11.8,-82.6 -6.8,38.5 -36,25.5 -44.1,57.1 -35.4,-57.1 8.1,-103.6 -4.3,-130.3 -5,31.6 -15.6,31.6 -26.1,51.5 -8.1,19.2 -10.6,32.3 -14.9,55.2 9.9,-57.1 -29.8,-102.4 -18.6,-163.2 -36.7,60.8 7.4,88.1 -23,173.8 4.3,-52.1 -29.2,-52.1 -44.1,-96.2 -4.9,47.2 28.6,60.2 0,119.2 -4.9,-26.1 -31,-14.9 -46.5,-69.6 z" />
  <path style="fill:#ffff44;stroke:none;" d="m 226.7,362.1 c -3.1,11.2 6.2,23.6 13.7,28.6 14.9,13 42.2,16.1 62.7,16.1 22.3,-1.2 42.8,-7.5 53.4,-16.8 6.2,-4.3 22.9,-19.8 19.2,-31 -6.2,12.4 -29.2,13.7 -34.1,25.4 6.8,-19.8 2.4,-38.4 -6.9,-49 -2.4,32.3 -10.5,17.4 -21.1,39.7 6.9,-20.4 -19.2,-37.2 -11.8,-58.9 -24.2,21.7 4.4,31.6 -15.5,62.7 3.1,-18.7 -19.2,-18.7 -29.2,-34.8 -2.4,16.8 19.3,21.7 0,42.8 -8,-14.9 -19.8,-4.9 -30.4,-24.8 z"/>
  <path style="fill:#151515;stroke:#000000;" d="m 126,378.9 a 558.7,186.2 0 0 0 347.6,0 186.2,155.2 0 0 1 -347.6,0"/>
  <path id="leg" style="fill:#050505;stroke:#000000;" d="m 196.1,452.1 c 8.6,-1.3 15.7,2.3 21.5,10.3 -14,17.4 -24.2,52.1 -42.1,52.1 -10.5,0 -19.8,-0.5 -19.8,-9.8 0,-6.2 26.8,-19.8 40.4,-52.6 z"/>
  <use xlink:href="#leg" transform="matrix(-1,0,0,1,600,0)"/>
</g>
<use id="shine" xlink:href="#shield" style="fill:url(#rg);stroke:#000000;stroke-width:3;"/>
</svg>
