<?xml version="1.0" encoding="UTF-8" standalone="no"?>
<svg
   xmlns:dc="http://purl.org/dc/elements/1.1/"
   xmlns:cc="http://creativecommons.org/ns#"
   xmlns:rdf="http://www.w3.org/1999/02/22-rdf-syntax-ns#"
   xmlns:svg="http://www.w3.org/2000/svg"
   xmlns="http://www.w3.org/2000/svg"
   xmlns:xlink="http://www.w3.org/1999/xlink"
   xmlns:sodipodi="http://sodipodi.sourceforge.net/DTD/sodipodi-0.dtd"
   xmlns:inkscape="http://www.inkscape.org/namespaces/inkscape"
   width="600"
   height="660"
   id="svg2"
   version="1.1"
   inkscape:version="0.48.2 r9819"
   sodipodi:docname="House_Sunderland.svg">
  <metadata
     id="metadata24">
    <rdf:RDF>
      <cc:Work
         rdf:about="">
        <dc:format>image/svg+xml</dc:format>
        <dc:type
           rdf:resource="http://purl.org/dc/dcmitype/StillImage" />
        <dc:title />
      </cc:Work>
    </rdf:RDF>
  </metadata>
  <sodipodi:namedview
     pagecolor="#ffffff"
     bordercolor="#666666"
     borderopacity="1"
     objecttolerance="10"
     gridtolerance="10"
     guidetolerance="10"
     inkscape:pageopacity="0"
     inkscape:pageshadow="2"
     inkscape:window-width="1366"
     inkscape:window-height="715"
     id="namedview22"
     showgrid="false"
     inkscape:zoom="0.5056885"
     inkscape:cx="44.831906"
     inkscape:cy="211.17459"
     inkscape:window-x="-8"
     inkscape:window-y="-8"
     inkscape:window-maximized="1"
     inkscape:current-layer="layer2" />
  <defs
     id="defs4">
    <inkscape:path-effect
       is_visible="true"
       id="path-effect3136"
       effect="spiro" />
    <inkscape:path-effect
       effect="spiro"
       id="path-effect3132"
       is_visible="true" />
    <inkscape:path-effect
       effect="spiro"
       id="path-effect3101"
       is_visible="true" />
    <inkscape:path-effect
       is_visible="true"
       id="path-effect3085"
       effect="spiro" />
    <inkscape:path-effect
       is_visible="true"
       id="path-effect3083"
       effect="spiro" />
    <inkscape:path-effect
       is_visible="true"
       id="path-effect3081"
       effect="spiro" />
    <inkscape:path-effect
       is_visible="true"
       id="path-effect3079"
       effect="spiro" />
    <inkscape:path-effect
       is_visible="true"
       id="path-effect3077"
       effect="spiro" />
    <inkscape:path-effect
       is_visible="true"
       id="path-effect3075"
       effect="spiro" />
    <inkscape:path-effect
       effect="spiro"
       id="path-effect3049"
       is_visible="true" />
    <inkscape:path-effect
       is_visible="true"
       id="path-effect3045"
       effect="spiro" />
    <inkscape:path-effect
       effect="spiro"
       id="path-effect3041"
       is_visible="true" />
    <radialGradient
       id="rg"
       gradientUnits="userSpaceOnUse"
       cx="220"
       cy="220"
       r="405">
      <stop
         style="stop-color:#fff;stop-opacity:.3"
         offset="0"
         id="stop7" />
      <stop
         style="stop-color:#fff;stop-opacity:.2"
         offset=".2"
         id="stop9" />
      <stop
         style="stop-color:#666;stop-opacity:.1"
         offset=".6"
         id="stop11" />
      <stop
         style="stop-color:#000;stop-opacity:.13"
         offset="1"
         id="stop13" />
    </radialGradient>
    <path
       id="shield"
       d="m2,2v257c0,286 298,398 298,398c0,0 298-112 298-398V2z" />
    <radialGradient
       inkscape:collect="always"
       xlink:href="#rg-7"
       id="radialGradient3055-1"
       gradientUnits="userSpaceOnUse"
       cx="220"
       cy="220"
       r="405" />
    <radialGradient
       id="rg-7"
       gradientUnits="userSpaceOnUse"
       cx="220"
       cy="220"
       r="405">
      <stop
         style="stop-color:#fff;stop-opacity:.3"
         offset="0"
         id="stop7-4" />
      <stop
         style="stop-color:#fff;stop-opacity:.2"
         offset=".2"
         id="stop9-0" />
      <stop
         style="stop-color:#666;stop-opacity:.1"
         offset=".6"
         id="stop11-9" />
      <stop
         style="stop-color:#000;stop-opacity:.13"
         offset="1"
         id="stop13-4" />
    </radialGradient>
    <radialGradient
       r="405"
       cy="220"
       cx="220"
       gradientUnits="userSpaceOnUse"
       id="radialGradient3074"
       xlink:href="#rg-7"
       inkscape:collect="always" />
    <inkscape:path-effect
       is_visible="true"
       id="path-effect10120-1"
       effect="spiro" />
    <inkscape:path-effect
       effect="spiro"
       id="path-effect10118-3"
       is_visible="true" />
    <inkscape:path-effect
       effect="spiro"
       id="path-effect10116-9"
       is_visible="true" />
    <inkscape:path-effect
       effect="spiro"
       id="path-effect10114-7"
       is_visible="true" />
    <inkscape:path-effect
       effect="spiro"
       id="path-effect10112-7"
       is_visible="true" />
    <inkscape:path-effect
       effect="spiro"
       id="path-effect10110-2"
       is_visible="true" />
    <linearGradient
       inkscape:collect="always"
       xlink:href="#linearGradient4719-5"
       id="linearGradient4039"
       gradientUnits="userSpaceOnUse"
       gradientTransform="matrix(2.3257341,0,0,2.2943177,447.69485,-1820.2799)"
       x1="-145.25935"
       y1="984.24286"
       x2="-64.14286"
       y2="984.14789" />
    <linearGradient
       inkscape:collect="always"
       id="linearGradient4719-5">
      <stop
         style="stop-color:#666666;stop-opacity:1;"
         offset="0"
         id="stop4721-5" />
      <stop
         id="stop4809-1"
         offset="0.39344174"
         style="stop-color:#666666;stop-opacity:0.74901961;" />
      <stop
         style="stop-color:#666666;stop-opacity:0;"
         offset="1"
         id="stop4723-7" />
    </linearGradient>
    <radialGradient
       inkscape:collect="always"
       xlink:href="#linearGradient4801-8"
       id="radialGradient4041"
       gradientUnits="userSpaceOnUse"
       gradientTransform="matrix(-0.72153181,1.2650715,-2.2729984,-1.2616144,1712.0113,1733.7841)"
       cx="-307.14288"
       cy="782.36218"
       fx="-307.14288"
       fy="782.36218"
       r="63" />
    <linearGradient
       inkscape:collect="always"
       id="linearGradient4801-8">
      <stop
         style="stop-color:#000000;stop-opacity:1;"
         offset="0"
         id="stop4803-2" />
      <stop
         style="stop-color:#000000;stop-opacity:0;"
         offset="1"
         id="stop4805-4" />
    </linearGradient>
    <inkscape:path-effect
       effect="spiro"
       id="path-effect10108-4"
       is_visible="true" />
    <linearGradient
       inkscape:collect="always"
       xlink:href="#linearGradient4719-5"
       id="linearGradient4044"
       gradientUnits="userSpaceOnUse"
       gradientTransform="matrix(-2.4055369,0,0,-1.6485021,142.06168,1726.5307)"
       x1="-145.25935"
       y1="984.24286"
       x2="-64.14286"
       y2="984.14789" />
    <radialGradient
       inkscape:collect="always"
       xlink:href="#linearGradient4801-8"
       id="radialGradient4046"
       gradientUnits="userSpaceOnUse"
       gradientTransform="matrix(0.74628962,-0.90897301,2.3509914,0.90648896,-1165.637,-827.11785)"
       cx="-307.14288"
       cy="782.36218"
       fx="-307.14288"
       fy="782.36218"
       r="63" />
    <inkscape:path-effect
       effect="spiro"
       id="path-effect10102-7"
       is_visible="true" />
    <linearGradient
       inkscape:collect="always"
       xlink:href="#linearGradient4719-5"
       id="linearGradient4049"
       gradientUnits="userSpaceOnUse"
       gradientTransform="matrix(2.334989,0,0,-1.6146975,449.44065,1692.189)"
       x1="-145.25935"
       y1="984.24286"
       x2="-64.14286"
       y2="984.14789" />
    <radialGradient
       inkscape:collect="always"
       xlink:href="#linearGradient4801-8"
       id="radialGradient4051"
       gradientUnits="userSpaceOnUse"
       gradientTransform="matrix(-0.72440295,-0.89033332,-2.2820431,0.88790031,1718.7881,-809.09364)"
       cx="-307.14288"
       cy="782.36218"
       fx="-307.14288"
       fy="782.36218"
       r="63" />
    <inkscape:path-effect
       is_visible="true"
       id="path-effect10096-8"
       effect="spiro" />
    <linearGradient
       inkscape:collect="always"
       xlink:href="#linearGradient4719-5"
       id="linearGradient4054"
       gradientUnits="userSpaceOnUse"
       gradientTransform="matrix(-2.409599,0,0,2.2818507,139.61083,-1810.8163)"
       x1="-145.25935"
       y1="984.24286"
       x2="-64.14286"
       y2="984.14789" />
    <radialGradient
       inkscape:collect="always"
       xlink:href="#linearGradient4801-8"
       id="radialGradient4056"
       gradientUnits="userSpaceOnUse"
       gradientTransform="matrix(0.74754985,1.2581972,2.3549614,-1.2547588,-1170.296,1723.935)"
       cx="-307.14288"
       cy="782.36218"
       fx="-307.14288"
       fy="782.36218"
       r="63" />
    <inkscape:path-effect
       is_visible="true"
       id="path-effect10090-3"
       effect="spiro" />
    <inkscape:path-effect
       effect="spiro"
       id="path-effect10084-1"
       is_visible="true" />
    <inkscape:path-effect
       effect="spiro"
       id="path-effect10082-1"
       is_visible="true" />
    <radialGradient
       inkscape:collect="always"
       xlink:href="#linearGradient4801-8"
       id="radialGradient4061"
       gradientUnits="userSpaceOnUse"
       gradientTransform="matrix(-0.76516322,1.2901254,-2.4104477,-1.2865998,1806.8444,1757.4704)"
       cx="-307.14288"
       cy="782.36218"
       fx="-307.14288"
       fy="782.36218"
       r="63" />
    <inkscape:path-effect
       effect="spiro"
       id="path-effect10080-4"
       is_visible="true" />
    <inkscape:path-effect
       is_visible="true"
       id="path-effect3075-1"
       effect="spiro" />
    <inkscape:path-effect
       effect="spiro"
       id="path-effect3101-7"
       is_visible="true" />
    <linearGradient
       inkscape:collect="always"
       xlink:href="#grad1-7-7"
       id="linearGradient3085-8-8"
       gradientUnits="userSpaceOnUse"
       gradientTransform="matrix(0.77469594,0,0,0.30982404,152.68996,-13.619206)"
       x1="78.877235"
       y1="178.07356"
       x2="301.40585"
       y2="178.07356" />
    <linearGradient
       id="grad1-7-7"
       x1="78.877235"
       y1="178.07356"
       x2="301.40585"
       y2="178.07356"
       gradientTransform="scale(1.577772,0.63380513)"
       gradientUnits="userSpaceOnUse">
      <stop
         offset="0%"
         style="stop-color:#da0;"
         id="stop16-4-4" />
      <stop
         offset="40%"
         style="stop-color:#fd0;"
         id="stop18-0-0" />
      <stop
         offset="60%"
         style="stop-color:#fd0;"
         id="stop20-9-9" />
      <stop
         offset="100%"
         style="stop-color:#da0;"
         id="stop22-4-4" />
    </linearGradient>
    <linearGradient
       inkscape:collect="always"
       xlink:href="#grad1-7-7"
       id="linearGradient3081-8-8"
       gradientUnits="userSpaceOnUse"
       gradientTransform="matrix(0.77469594,0,0,0.30982404,-27.310046,-13.619206)"
       x1="78.877235"
       y1="178.07356"
       x2="301.40585"
       y2="178.07356" />
    <linearGradient
       id="linearGradient3093"
       x1="78.877235"
       y1="178.07356"
       x2="301.40585"
       y2="178.07356"
       gradientTransform="scale(1.577772,0.63380513)"
       gradientUnits="userSpaceOnUse">
      <stop
         offset="0%"
         style="stop-color:#da0;"
         id="stop3095" />
      <stop
         offset="40%"
         style="stop-color:#fd0;"
         id="stop3097" />
      <stop
         offset="60%"
         style="stop-color:#fd0;"
         id="stop3099" />
      <stop
         offset="100%"
         style="stop-color:#da0;"
         id="stop3101" />
    </linearGradient>
    <linearGradient
       y2="178.07356"
       x2="301.40585"
       y1="178.07356"
       x1="78.877235"
       gradientTransform="matrix(0.77469594,0,0,0.30982404,332.68995,-13.619206)"
       gradientUnits="userSpaceOnUse"
       id="linearGradient3128-1"
       xlink:href="#grad1-7-7"
       inkscape:collect="always" />
    <linearGradient
       id="linearGradient3104"
       x1="78.877235"
       y1="178.07356"
       x2="301.40585"
       y2="178.07356"
       gradientTransform="scale(1.577772,0.63380513)"
       gradientUnits="userSpaceOnUse">
      <stop
         offset="0%"
         style="stop-color:#da0;"
         id="stop3106" />
      <stop
         offset="40%"
         style="stop-color:#fd0;"
         id="stop3108" />
      <stop
         offset="60%"
         style="stop-color:#fd0;"
         id="stop3110" />
      <stop
         offset="100%"
         style="stop-color:#da0;"
         id="stop3112" />
    </linearGradient>
  </defs>
  <g
     inkscape:groupmode="layer"
     id="layer2"
     inkscape:label="Elements"
     style="display:inline">
    <path
       inkscape:connector-curvature="0"
       style="fill:#0000cc;fill-opacity:1;stroke:none;display:inline"
       id="path7212"
       d="m 2,2 0,257 c 0,286 298,398 298,398 0,0 298,-112 298,-398 L 598,2 z" />
    <path
       inkscape:connector-curvature="0"
       style="fill:none;stroke:none;display:inline"
       id="path7200"
       d="m 2,2 0,257 c 0,286 298,398 298,398 0,0 298,-112 298,-398 L 598,2 z" />
    <path
       inkscape:connector-curvature="0"
       style="fill:#008800;fill-opacity:1;fill-rule:nonzero;stroke:none;display:inline"
       d="m 103.8125,66.375 c -26.145328,0 -26.167187,19.99998 -52.3125,20 C 26.321394,86.375 25.384876,67.840372 2,66.46875 l 0,84.375 c 23.384876,1.37162 24.321394,19.90625 49.5,19.90625 26.145313,-2e-5 26.167172,-20 52.3125,-20 26.14529,0 26.13594,20 52.28125,20 26.14531,0 26.13594,-20 52.28125,-20 26.1453,0 26.16718,20 52.3125,20 26.14533,0 26.13594,-20 52.28125,-20 26.14531,0 26.13594,20 52.28125,20 26.14531,0 26.16719,-20 52.3125,-20 26.14531,0 26.13592,20 52.28125,20 26.14533,0 26.13595,-20 52.28125,-20 26.14534,0 26.13594,20 52.28125,20 11.3801,0 17.80345,-3.78565 23.59375,-8.0625 l 0,-84.375 c -5.7903,4.276848 -12.21365,8.0625 -23.59375,8.0625 -26.14531,0 -26.13592,-20 -52.28125,-20 -26.1453,0 -26.13592,20 -52.28125,20 -26.14533,0 -26.13594,-20 -52.28125,-20 -26.14531,0 -26.16719,20 -52.3125,20 -26.14531,0 -26.13594,-20 -52.28125,-20 -26.14531,0 -26.13592,20 -52.28125,20 -26.14532,0 -26.1672,-20 -52.3125,-20 -26.14531,0 -26.13594,20 -52.28125,20 -26.14531,0 -26.13596,-20 -52.28125,-20 z m 0,168.75 c -26.145328,0 -26.167187,19.99998 -52.3125,20 -25.178606,0 -26.115124,-18.53463 -49.5,-19.90625 L 2,259 c 0,21.34657 1.6775696,41.72256 4.75,61.15625 C 25.652566,323.56169 28.144012,339.5 51.5,339.5 c 26.145313,-2e-5 26.167172,-20 52.3125,-20 26.14531,0 26.13594,20 52.28125,20 26.14531,0 26.13594,-20 52.28125,-20 26.1453,0 26.16719,20 52.3125,20 26.14532,0 26.13594,-20 52.28125,-20 26.14531,0 26.13594,20 52.28125,20 26.14531,0 26.16719,-20 52.3125,-20 26.14531,0 26.13593,20 52.28125,20 26.14533,0 26.13594,-20 52.28125,-20 26.14532,0 26.13594,20 52.28125,20 6.75572,0 11.76865,-1.33338 15.9375,-3.3125 C 595.25536,312.00559 598,286.29847 598,259 l 0,-11.9375 c -5.79031,4.27685 -12.21366,8.0625 -23.59375,8.0625 -26.14531,0 -26.13593,-20 -52.28125,-20 -26.14531,0 -26.13592,20 -52.28125,20 -26.14532,0 -26.13594,-20 -52.28125,-20 -26.14531,0 -26.16719,20 -52.3125,20 -26.14531,0 -26.13594,-20 -52.28125,-20 -26.14531,0 -26.13593,20 -52.28125,20 -26.14531,0 -26.1672,-20 -52.3125,-20 -26.14531,0 -26.13594,20 -52.28125,20 -26.14531,0 -26.13594,-20 -52.28125,-20 z m 0,168.75 c -26.145328,0 -26.167187,19.99998 -52.3125,20 -5.393244,0 -9.654693,-0.83655 -13.28125,-2.1875 12.701066,26.67232 28.042501,50.85663 44.84375,72.625 5.128448,-3.39191 11.191122,-6.0625 20.75,-6.0625 26.14531,0 26.13594,20 52.28125,20 26.14531,0 26.13594,-20 52.28125,-20 26.1453,0 26.16719,20 52.3125,20 26.14532,0 26.13594,-20 52.28125,-20 26.14531,0 26.13594,20 52.28125,20 26.14531,0 26.16719,-20 52.3125,-20 26.14531,0 26.13593,20 52.28125,20 25.94093,0 26.14917,-19.6609 51.6875,-19.96875 14.97225,-20.12255 28.63603,-42.24825 40.15625,-66.40625 -14.40418,-5.0646 -18.53516,-18 -39.5625,-18 -26.14531,0 -26.13592,20 -52.28125,20 -26.14532,0 -26.13594,-20 -52.28125,-20 -26.14531,0 -26.16719,20 -52.3125,20 -26.14531,0 -26.13594,-20 -52.28125,-20 -26.14531,0 -26.13593,20 -52.28125,20 -26.14531,0 -26.1672,-20 -52.3125,-20 -26.14531,0 -26.13594,20 -52.28125,20 -26.14531,0 -26.13594,-20 -52.28125,-20 z m 104.5625,168.75 c -16.34082,0 -22.47794,7.82812 -31.15625,13.6875 C 242.02081,635.20424 300,657 300,657 c 0,0 65.51013,-24.62625 135.09375,-80.25 -4.48021,-2.41985 -9.88652,-4.125 -17.53125,-4.125 -26.14531,0 -26.16719,20 -52.3125,20 -26.14531,0 -26.13594,-20 -52.28125,-20 -26.14531,0 -26.13593,20 -52.28125,20 -26.14531,0 -26.1672,-20 -52.3125,-20 z"
       id="path3122" />
    <g
       id="g3275"
       transform="translate(1.789993e-5,0)">
      <g
         transform="matrix(1.3337175,0,0,1.3337175,-83.33078,-118.33674)"
         id="g3203"
         style="display:inline">
        <path
           inkscape:connector-curvature="0"
           style="fill:#333333;fill-rule:evenodd"
           id="path3128"
           d="m 248.43325,466.15228 c 20.08821,28.44918 48.80663,29.69293 69.11027,3.44487 4.65919,14.58498 12.74343,23.1899 24.29403,25.83856 4.81919,-5.53311 3.55126,-13.78211 1.3906,-22.82189 5.40258,-6.35277 7.03514,-14.33145 5.03738,-23.41486 6.30795,-10.4008 7.76773,-20.13133 5.3735,-29.19583 12.44439,-38.24748 8.43668,-63.69049 -6.88826,-80.3582 -42.77344,-38.18726 -104.66776,-36.00666 -129.08087,21.87416 -4.75572,11.24192 -5.97307,22.98477 1.43844,44.58312 -6.79605,11.7711 -4.34854,26.18054 1.00898,40.7006 3.74257,11.16465 -9.16356,25.41064 3.70098,39.28108 2.24131,-0.49571 4.11024,-1.72962 5.58612,-3.7136 -0.9487,3.16946 -0.74939,6.25826 -0.068,9.32262 6.2868,-8.98124 18.92432,-14.65383 19.09672,-25.54063 l 0,0 z" />
        <path
           inkscape:connector-curvature="0"
           style="fill:#000000;fill-rule:evenodd"
           id="path3130"
           d="m 338.72924,491.32825 c -14.61656,-7.64039 -24.00466,-21.04568 -14.20428,-37.30504 11.99795,10.50654 21.24261,20.24947 14.20428,37.30504 l 0,0 z" />
        <path
           inkscape:connector-curvature="0"
           style="fill:#000000;fill-rule:evenodd"
           id="path3132"
           d="m 331.9644,434.55591 c 11.50612,8.01979 20.87103,19.31906 8.45269,33.62639 -14.15288,-17.50543 -12.3138,-25.36487 -8.45269,-33.62639 l 0,0 z" />
        <path
           inkscape:connector-curvature="0"
           style="fill:#000000;fill-rule:evenodd"
           id="path3134"
           d="m 347.27588,445.57124 c 6.57293,-12.14773 5.53516,-19.60302 2.0779,-25.72927 -5.53805,-0.47145 -11.39006,-2.83134 -17.08693,-6.1755 -0.34958,5.47032 0.11257,12.015 3.00807,18.06479 4.40643,4.19614 8.68804,8.51296 12.00096,13.83998 l 0,0 z" />
        <path
           inkscape:connector-curvature="0"
           style="fill:#000000;fill-rule:evenodd"
           id="path3136"
           d="m 352.923,418.04779 c -14.19455,-2.74335 -26.97644,-8.55349 -33.9257,-26.99384 4.5714,-0.33444 9.12213,-0.68082 13.69353,-1.01528 2.22068,-0.50765 2.05969,-1.56431 -0.16073,-1.77242 -14.12382,-0.004 -26.7528,-1.59579 -34.62477,-8.04057 -8.7266,-7.15848 -3.84076,-15.04864 2.31788,-15.12753 11.76114,-0.14845 23.95329,1.24607 39.83196,15.09454 0.99195,1.09586 1.9756,0.72759 1.71289,-0.0574 -4.05513,-4.7092 -8.56329,-8.63367 -13.8584,-11.19518 -1.12076,-3.40054 -2.74295,-6.45728 -4.72113,-9.27899 5.58293,-3.66037 13.06523,-1.40556 20.69914,1.3498 1.81274,0.77122 2.56857,-0.25174 1.27472,-1.30163 -6.27363,-3.34672 -13.09403,-6.12802 -24.99485,-3.82992 -2.36118,-2.49214 -4.90124,-4.67454 -7.62884,-6.57974 2.37355,-4.30179 8.18596,-5.02113 14.74253,-4.78766 1.54852,-0.34503 0.85105,-1.51869 -0.26501,-1.6398 -7.39802,0.0793 -13.37035,1.50477 -17.91704,4.27654 -2.59114,-1.33077 -5.26568,-2.517 -8.07141,-3.47606 -1.51597,-2.33457 3.4841,-6.60679 7.12542,-8.00141 1.32449,-0.52942 0.94191,-1.63142 -0.35621,-1.72006 -2.57622,-0.68886 -6.42158,2.68056 -11.15202,8.87069 -1.37621,0.85751 -4.4977,1.06536 -5.63888,-0.39201 -0.91066,-2.09524 -1.82129,-4.19047 -2.75258,-6.29763 -0.59379,-1.49929 -1.73074,-1.24706 -1.6366,0.21156 0.24332,1.82012 0.47478,3.66089 0.6975,5.4691 0.36112,1.28233 -0.40899,2.18692 -2.2364,2.72889 -1.63663,0.21152 -3.2852,0.44373 -4.93376,0.67593 -0.89041,-3.32262 -2.63117,-5.64932 -4.5936,-8.02138 -1.98242,-1.86045 -2.83573,-1.52709 -1.91552,0.40847 2.17999,2.66289 3.26203,5.46284 3.19285,8.39665 -3.4562,0.97832 -6.93303,1.94473 -10.40982,2.91113 -4.32039,-4.91743 -8.11638,-7.35686 -11.42375,-7.25633 -2.48916,0.35264 -2.76612,2.12017 -0.60125,2.18605 4.44259,0.0318 7.58814,1.7377 8.8326,5.92556 0.28158,1.8972 -5.25797,9.1071 -7.42861,9.67119 -4.33311,-2.03365 -8.75785,-3.43181 -13.44701,-2.55957 -1.24018,0.19262 -0.18337,2.70259 0.91062,2.09523 4.22313,-1.82968 7.69205,-0.35004 11.4395,2.36424 -3.24139,5.94844 -12.45948,10.89684 -18.12181,17.12716 -1.08796,1.21669 0.51101,2.1674 1.97005,0.64179 10.28463,-9.37149 22.8097,-16.37559 41.07572,-13.29159 3.98716,0.67744 5.53314,3.58003 0.11193,8.82059 -16.38555,15.78915 -26.58371,14.99513 -40.13766,11.18986 -2.48253,-0.46957 -4.96505,-0.93915 -7.64559,-0.77961 -2.43848,0.9326 -1.25848,2.99059 0.11034,2.43179 4.30805,-1.64296 10.67426,0.16022 17.61306,2.92725 -5.80838,8.48647 -15.22157,15.44239 -23.51462,11.92097 -1.26302,-0.6741 -2.69568,0.23341 -1.82592,0.87325 4.38169,1.7588 8.65546,3.17994 12.77207,4.01471 0.7999,0.37924 1.49249,0.9443 1.25832,3.06696 -2.70518,8.40571 -6.4113,16.39877 -14.85657,22.53675 -1.42163,-6.93347 -4.8527,-12.96202 -0.38507,-22.608 0.70838,1.01473 1.4048,2.05012 2.09251,3.05291 0.95314,0.49541 1.76375,-0.1932 1.1181,-1.36449 -10.59644,-19.08669 -10.99444,-38.09514 -1.15423,-54.66193 21.83529,-36.81822 50.06502,-43.45618 71.62838,-38.8815 59.3652,12.54964 66.65863,49.47173 57.7549,88.35915 -2.89154,-3.62439 -5.7712,-7.26945 -8.64205,-10.88192 -1.55895,-1.97391 -2.84537,-1.3674 -1.80126,0.63967 4.46603,6.76374 8.65638,13.67119 8.80184,21.57503 l 0,0 z" />
        <path
           inkscape:connector-curvature="0"
           style="fill:#000000;fill-rule:evenodd"
           id="path3138"
           d="m 236.64739,428.42625 c 0.0893,7.2381 -0.0367,14.32435 -6.96595,16.7394 -1.97473,1.75102 -3.38313,3.85656 -4.53178,6.08456 -0.16551,-4.72138 -1.03114,-8.27753 -2.17428,-11.30549 0.2867,-2.64297 1.583,-4.12494 3.90923,-4.43398 4.47561,-1.40855 7.35947,-4.0665 9.76278,-7.08449 l 0,0 z" />
        <path
           inkscape:connector-curvature="0"
           style="fill:#000000;fill-rule:evenodd"
           id="path3140"
           d="m 236.72963,443.25987 c 1.52362,5.94607 2.77129,12.75157 0.13873,20.12536 -2.41674,5.37823 -6.95233,10.99248 -11.79173,15.0821 -2.0012,-5.64352 -2.39384,-13.16692 -0.0223,-19.37059 3.17412,-6.06985 7.40838,-11.11465 11.67679,-15.83687 l 0,0 z" />
        <path
           inkscape:connector-curvature="0"
           style="fill:#000000;fill-rule:evenodd"
           id="path3142"
           d="m 241.81972,456.7169 c 1.7591,2.19961 3.06657,5.5152 3.67213,10.38054 -3.34895,6.13413 -7.97558,10.9524 -12.94382,15.40821 4.24264,-8.92235 7.67961,-17.59394 9.27169,-25.78875 l 0,0 z" />
        <path
           inkscape:connector-curvature="0"
           style="fill:#000000;fill-rule:evenodd"
           id="path3144"
           d="m 321.08582,361.5861 c 0.79394,1.72497 1.72695,3.44763 1.69628,5.02694 -11.24064,-5.85648 -27.43418,-8.04679 -34.86979,1.20731 -1.13721,2.01431 -1.66814,1.98312 -2.83386,0.0435 -4.66487,-5.94236 -13.72146,-6.71056 -27.16095,-2.27199 -3.02164,1.03647 -3.48536,0.21804 -1.37926,-2.47592 17.92355,-21.12402 49.14489,-21.35386 64.54758,-1.52984 l 0,0 z" />
        <path
           inkscape:connector-curvature="0"
           style="fill:#ffffff;fill-rule:evenodd"
           id="path3146"
           d="m 315.73382,390.60159 c 2.08845,5.96927 5.11034,12.22965 9.60766,17.9376 4.59786,15.07273 5.49171,30.98071 -5.10111,48.51724 -19.84157,32.79272 -44.72736,39.07593 -71.1167,3.46438 -8.98577,-12.09912 -13.04922,-28.95595 -8.24011,-51.59395 1.37153,-6.47732 5.84353,-11.74282 10.77449,-16.46797 10.97106,-1.40311 21.908,-5.79965 32.7913,-16.78044 0.9304,-3.04235 2.09041,-3.1436 3.5211,-0.28003 2.79833,7.31531 13.1726,11.76294 27.76337,15.20315 l 0,0 z" />
        <path
           inkscape:connector-curvature="0"
           style="fill-rule:evenodd"
           id="path3148"
           d="m 282.6916,444.74502 c -0.87651,0.89821 0.45542,2.02518 1.60021,1.99775 3.39874,-0.0204 5.01662,-1.34401 4.84499,-4.00383 -2.0985,-9.71978 -3.78862,-19.47915 -4.63754,-28.83544 0.22068,-1.71748 2.30324,-3.13086 2.83364,-4.66946 0.54631,-1.80475 -0.73411,-2.54401 -1.81657,-1.24152 -2.91834,3.76696 -3.56452,4.74309 -3.29623,8.28476 1.39331,8.65182 2.60078,17.19634 3.63599,25.22839 -0.23471,1.5991 -1.69219,2.74021 -3.16446,3.23937 l 0,0 z" />
        <g
           transform="matrix(0.3386158,0,0,0.3386158,219.39105,328.08931)"
           id="g3151"
           style="display:inline">
          <path
             style="fill:#ffffff;fill-opacity:1;fill-rule:evenodd;stroke:#000000;stroke-width:5.53565359;stroke-linecap:butt;stroke-linejoin:miter;stroke-miterlimit:4;stroke-opacity:1;stroke-dasharray:none"
             d="m 165.67248,378.04975 c 7.29554,2.59184 11.65228,5.21356 18.71203,4.09857 8.41956,-1.32976 16.47817,-1.09679 24.23354,0 5.82836,0.82428 12.66252,-0.95641 17.10238,-4.09857"
             id="path3153"
             sodipodi:nodetypes="cssc"
             inkscape:connector-curvature="0" />
          <path
             style="fill:#ffffff;fill-opacity:1;fill-rule:evenodd;stroke:#000000;stroke-width:5.53565359;stroke-linecap:butt;stroke-linejoin:miter;stroke-miterlimit:4;stroke-opacity:1;stroke-dasharray:none"
             d="m 179.98297,388.05498 c 4.54687,4.53829 9.33374,3.54397 14.59654,3.60606 7.08947,0.0836 10.1926,0.70306 16.83043,-3.04487"
             id="path3155"
             sodipodi:nodetypes="csc"
             inkscape:connector-curvature="0" />
        </g>
        <g
           transform="matrix(0.96817172,0,0,0.96817172,-2.4263103,133.42839)"
           id="g3157">
          <g
             id="g3159">
            <path
               inkscape:connector-curvature="0"
               style="fill-rule:evenodd"
               id="path3161"
               d="m 284.87364,293.68172 c 1.65483,0.92691 2.43284,0.46609 1.12195,-0.85955 -2.94109,-2.29527 -5.39771,-5.67596 -10.9812,-4.57673 -2.98134,0.58237 -5.50519,2.73708 -7.7993,4.74005 -0.91437,0.89408 -2.67764,0.30267 -1.89209,-0.46673 6.97966,-8.00035 13.72979,-8.31227 20.05091,-3.49675 1.32166,0.96213 2.69872,0.44895 1.95388,-0.37924 -8.99961,-7.07296 -16.87833,-5.79155 -23.65412,3.77695 -0.10672,0.67776 -0.94551,1.04675 -2.57119,1.10356 -1.35397,0.12836 -1.41906,1.02929 -0.51743,1.63517 2.35633,1.18981 5.08321,0.80181 8.17733,-1.109 1.43227,-1.24919 2.86454,-2.49838 4.30913,-3.7689 0.33008,4.79784 1.63108,6.28842 3.69647,6.25796 2.81552,-0.39371 3.51194,-2.43746 2.859,-6.08501 1.76722,1.07719 3.5131,2.14204 5.24666,3.22822 l 0,0 z" />
            <path
               inkscape:connector-curvature="0"
               style="fill-rule:evenodd"
               id="path3163"
               d="m 286.09955,279.68609 c 2.34753,0.41683 2.67036,-0.73347 0.24111,-1.99386 -6.32484,-3.28191 -14.34822,-3.81888 -24.51116,-0.69944 -2.06798,0.62619 -4.15099,1.86942 -5.05192,4.56296 -1.12113,3.41965 0.21607,4.30547 2.27408,1.82486 4.91121,-5.89555 14.81881,-5.86338 27.04798,-3.69452 l 0,0 z" />
          </g>
          <g
             style="display:inline"
             id="g3165"
             transform="matrix(-1,0,0,1,591.10781,3.1590175e-6)">
            <path
               d="m 284.87364,293.68172 c 1.65483,0.92691 2.43284,0.46609 1.12195,-0.85955 -2.94109,-2.29527 -5.39771,-5.67596 -10.9812,-4.57673 -2.98134,0.58237 -5.50519,2.73708 -7.7993,4.74005 -0.91437,0.89408 -2.67764,0.30267 -1.89209,-0.46673 6.97966,-8.00035 13.72979,-8.31227 20.05091,-3.49675 1.32166,0.96213 2.69872,0.44895 1.95388,-0.37924 -8.99961,-7.07296 -16.87833,-5.79155 -23.65412,3.77695 -0.10672,0.67776 -0.94551,1.04675 -2.57119,1.10356 -1.35397,0.12836 -1.41906,1.02929 -0.51743,1.63517 2.35633,1.18981 5.08321,0.80181 8.17733,-1.109 1.43227,-1.24919 2.86454,-2.49838 4.30913,-3.7689 0.33008,4.79784 1.63108,6.28842 3.69647,6.25796 2.81552,-0.39371 3.51194,-2.43746 2.859,-6.08501 1.76722,1.07719 3.5131,2.14204 5.24666,3.22822 l 0,0 z"
               id="path3167"
               style="fill-rule:evenodd"
               inkscape:connector-curvature="0" />
            <path
               d="m 286.09955,279.68609 c 2.34753,0.41683 2.67036,-0.73347 0.24111,-1.99386 -6.32484,-3.28191 -14.34822,-3.81888 -24.51116,-0.69944 -2.06798,0.62619 -4.15099,1.86942 -5.05192,4.56296 -1.12113,3.41965 0.21607,4.30547 2.27408,1.82486 4.91121,-5.89555 14.81881,-5.86338 27.04798,-3.69452 l 0,0 z"
               id="path3169"
               style="fill-rule:evenodd"
               inkscape:connector-curvature="0" />
          </g>
        </g>
      </g>
      <g
         transform="translate(-1.5e-5,0)"
         id="g3271">
        <use
           style="display:inline"
           x="0"
           y="0"
           xlink:href="#g3203"
           id="use3226"
           transform="translate(-139.26789,-241.21907)"
           width="600"
           height="660" />
        <use
           style="display:inline"
           x="0"
           y="0"
           xlink:href="#use3226"
           id="use3228"
           transform="translate(278.53581,-1.9e-6)"
           width="600"
           height="660" />
      </g>
    </g>
  </g>
  <g
     inkscape:groupmode="layer"
     id="layer1"
     inkscape:label="Cover"
     style="display:inline"
     sodipodi:insensitive="true">
    <path
       d="m 2,2 v 257 c 0,286 298,398 298,398 0,0 298,-112 298,-398 V 2 z"
       id="shine"
       inkscape:connector-curvature="0"
       style="fill:url(#radialGradient3074);stroke:#000000;stroke-width:3" />
  </g>
</svg>
