<?xml version="1.0" encoding="UTF-8" standalone="no"?>
<svg
   xmlns:dc="http://purl.org/dc/elements/1.1/"
   xmlns:cc="http://creativecommons.org/ns#"
   xmlns:rdf="http://www.w3.org/1999/02/22-rdf-syntax-ns#"
   xmlns:svg="http://www.w3.org/2000/svg"
   xmlns="http://www.w3.org/2000/svg"
   xmlns:xlink="http://www.w3.org/1999/xlink"
   xmlns:sodipodi="http://sodipodi.sourceforge.net/DTD/sodipodi-0.dtd"
   xmlns:inkscape="http://www.inkscape.org/namespaces/inkscape"
   width="600"
   height="660"
   id="svg2"
   version="1.1"
   inkscape:version="0.48.2 r9819"
   sodipodi:docname="House_Redwyne.svg">
  <metadata
     id="metadata24">
    <rdf:RDF>
      <cc:Work
         rdf:about="">
        <dc:format>image/svg+xml</dc:format>
        <dc:type
           rdf:resource="http://purl.org/dc/dcmitype/StillImage" />
        <dc:title />
      </cc:Work>
    </rdf:RDF>
  </metadata>
  <sodipodi:namedview
     pagecolor="#ffffff"
     bordercolor="#666666"
     borderopacity="1"
     objecttolerance="10"
     gridtolerance="10"
     guidetolerance="10"
     inkscape:pageopacity="0"
     inkscape:pageshadow="2"
     inkscape:window-width="1366"
     inkscape:window-height="715"
     id="namedview22"
     showgrid="false"
     inkscape:zoom="0.50568851"
     inkscape:cx="-47.757933"
     inkscape:cy="296.65309"
     inkscape:window-x="-8"
     inkscape:window-y="-8"
     inkscape:window-maximized="1"
     inkscape:current-layer="layer2" />
  <defs
     id="defs4">
    <inkscape:path-effect
       is_visible="true"
       id="path-effect3136"
       effect="spiro" />
    <inkscape:path-effect
       effect="spiro"
       id="path-effect3132"
       is_visible="true" />
    <inkscape:path-effect
       effect="spiro"
       id="path-effect3101"
       is_visible="true" />
    <inkscape:path-effect
       is_visible="true"
       id="path-effect3085"
       effect="spiro" />
    <inkscape:path-effect
       is_visible="true"
       id="path-effect3083"
       effect="spiro" />
    <inkscape:path-effect
       is_visible="true"
       id="path-effect3081"
       effect="spiro" />
    <inkscape:path-effect
       is_visible="true"
       id="path-effect3079"
       effect="spiro" />
    <inkscape:path-effect
       is_visible="true"
       id="path-effect3077"
       effect="spiro" />
    <inkscape:path-effect
       is_visible="true"
       id="path-effect3075"
       effect="spiro" />
    <inkscape:path-effect
       effect="spiro"
       id="path-effect3049"
       is_visible="true" />
    <inkscape:path-effect
       is_visible="true"
       id="path-effect3045"
       effect="spiro" />
    <inkscape:path-effect
       effect="spiro"
       id="path-effect3041"
       is_visible="true" />
    <radialGradient
       id="rg"
       gradientUnits="userSpaceOnUse"
       cx="220"
       cy="220"
       r="405">
      <stop
         style="stop-color:#fff;stop-opacity:.3"
         offset="0"
         id="stop7" />
      <stop
         style="stop-color:#fff;stop-opacity:.2"
         offset=".2"
         id="stop9" />
      <stop
         style="stop-color:#666;stop-opacity:.1"
         offset=".6"
         id="stop11" />
      <stop
         style="stop-color:#000;stop-opacity:.13"
         offset="1"
         id="stop13" />
    </radialGradient>
    <path
       id="shield"
       d="m2,2v257c0,286 298,398 298,398c0,0 298-112 298-398V2z" />
    <radialGradient
       inkscape:collect="always"
       xlink:href="#rg-7"
       id="radialGradient3055-1"
       gradientUnits="userSpaceOnUse"
       cx="220"
       cy="220"
       r="405" />
    <radialGradient
       id="rg-7"
       gradientUnits="userSpaceOnUse"
       cx="220"
       cy="220"
       r="405">
      <stop
         style="stop-color:#fff;stop-opacity:.3"
         offset="0"
         id="stop7-4" />
      <stop
         style="stop-color:#fff;stop-opacity:.2"
         offset=".2"
         id="stop9-0" />
      <stop
         style="stop-color:#666;stop-opacity:.1"
         offset=".6"
         id="stop11-9" />
      <stop
         style="stop-color:#000;stop-opacity:.13"
         offset="1"
         id="stop13-4" />
    </radialGradient>
    <radialGradient
       r="405"
       cy="220"
       cx="220"
       gradientUnits="userSpaceOnUse"
       id="radialGradient3074"
       xlink:href="#rg-7"
       inkscape:collect="always" />
    <inkscape:path-effect
       is_visible="true"
       id="path-effect10120-1"
       effect="spiro" />
    <inkscape:path-effect
       effect="spiro"
       id="path-effect10118-3"
       is_visible="true" />
    <inkscape:path-effect
       effect="spiro"
       id="path-effect10116-9"
       is_visible="true" />
    <inkscape:path-effect
       effect="spiro"
       id="path-effect10114-7"
       is_visible="true" />
    <inkscape:path-effect
       effect="spiro"
       id="path-effect10112-7"
       is_visible="true" />
    <inkscape:path-effect
       effect="spiro"
       id="path-effect10110-2"
       is_visible="true" />
    <linearGradient
       inkscape:collect="always"
       xlink:href="#linearGradient4719-5"
       id="linearGradient4039"
       gradientUnits="userSpaceOnUse"
       gradientTransform="matrix(2.3257341,0,0,2.2943177,447.69485,-1820.2799)"
       x1="-145.25935"
       y1="984.24286"
       x2="-64.14286"
       y2="984.14789" />
    <linearGradient
       inkscape:collect="always"
       id="linearGradient4719-5">
      <stop
         style="stop-color:#666666;stop-opacity:1;"
         offset="0"
         id="stop4721-5" />
      <stop
         id="stop4809-1"
         offset="0.39344174"
         style="stop-color:#666666;stop-opacity:0.74901961;" />
      <stop
         style="stop-color:#666666;stop-opacity:0;"
         offset="1"
         id="stop4723-7" />
    </linearGradient>
    <radialGradient
       inkscape:collect="always"
       xlink:href="#linearGradient4801-8"
       id="radialGradient4041"
       gradientUnits="userSpaceOnUse"
       gradientTransform="matrix(-0.72153181,1.2650715,-2.2729984,-1.2616144,1712.0113,1733.7841)"
       cx="-307.14288"
       cy="782.36218"
       fx="-307.14288"
       fy="782.36218"
       r="63" />
    <linearGradient
       inkscape:collect="always"
       id="linearGradient4801-8">
      <stop
         style="stop-color:#000000;stop-opacity:1;"
         offset="0"
         id="stop4803-2" />
      <stop
         style="stop-color:#000000;stop-opacity:0;"
         offset="1"
         id="stop4805-4" />
    </linearGradient>
    <inkscape:path-effect
       effect="spiro"
       id="path-effect10108-4"
       is_visible="true" />
    <linearGradient
       inkscape:collect="always"
       xlink:href="#linearGradient4719-5"
       id="linearGradient4044"
       gradientUnits="userSpaceOnUse"
       gradientTransform="matrix(-2.4055369,0,0,-1.6485021,142.06168,1726.5307)"
       x1="-145.25935"
       y1="984.24286"
       x2="-64.14286"
       y2="984.14789" />
    <radialGradient
       inkscape:collect="always"
       xlink:href="#linearGradient4801-8"
       id="radialGradient4046"
       gradientUnits="userSpaceOnUse"
       gradientTransform="matrix(0.74628962,-0.90897301,2.3509914,0.90648896,-1165.637,-827.11785)"
       cx="-307.14288"
       cy="782.36218"
       fx="-307.14288"
       fy="782.36218"
       r="63" />
    <inkscape:path-effect
       effect="spiro"
       id="path-effect10102-7"
       is_visible="true" />
    <linearGradient
       inkscape:collect="always"
       xlink:href="#linearGradient4719-5"
       id="linearGradient4049"
       gradientUnits="userSpaceOnUse"
       gradientTransform="matrix(2.334989,0,0,-1.6146975,449.44065,1692.189)"
       x1="-145.25935"
       y1="984.24286"
       x2="-64.14286"
       y2="984.14789" />
    <radialGradient
       inkscape:collect="always"
       xlink:href="#linearGradient4801-8"
       id="radialGradient4051"
       gradientUnits="userSpaceOnUse"
       gradientTransform="matrix(-0.72440295,-0.89033332,-2.2820431,0.88790031,1718.7881,-809.09364)"
       cx="-307.14288"
       cy="782.36218"
       fx="-307.14288"
       fy="782.36218"
       r="63" />
    <inkscape:path-effect
       is_visible="true"
       id="path-effect10096-8"
       effect="spiro" />
    <linearGradient
       inkscape:collect="always"
       xlink:href="#linearGradient4719-5"
       id="linearGradient4054"
       gradientUnits="userSpaceOnUse"
       gradientTransform="matrix(-2.409599,0,0,2.2818507,139.61083,-1810.8163)"
       x1="-145.25935"
       y1="984.24286"
       x2="-64.14286"
       y2="984.14789" />
    <radialGradient
       inkscape:collect="always"
       xlink:href="#linearGradient4801-8"
       id="radialGradient4056"
       gradientUnits="userSpaceOnUse"
       gradientTransform="matrix(0.74754985,1.2581972,2.3549614,-1.2547588,-1170.296,1723.935)"
       cx="-307.14288"
       cy="782.36218"
       fx="-307.14288"
       fy="782.36218"
       r="63" />
    <inkscape:path-effect
       is_visible="true"
       id="path-effect10090-3"
       effect="spiro" />
    <inkscape:path-effect
       effect="spiro"
       id="path-effect10084-1"
       is_visible="true" />
    <inkscape:path-effect
       effect="spiro"
       id="path-effect10082-1"
       is_visible="true" />
    <radialGradient
       inkscape:collect="always"
       xlink:href="#linearGradient4801-8"
       id="radialGradient4061"
       gradientUnits="userSpaceOnUse"
       gradientTransform="matrix(-0.76516322,1.2901254,-2.4104477,-1.2865998,1806.8444,1757.4704)"
       cx="-307.14288"
       cy="782.36218"
       fx="-307.14288"
       fy="782.36218"
       r="63" />
    <inkscape:path-effect
       effect="spiro"
       id="path-effect10080-4"
       is_visible="true" />
    <inkscape:path-effect
       is_visible="true"
       id="path-effect3075-1"
       effect="spiro" />
    <inkscape:path-effect
       effect="spiro"
       id="path-effect3101-7"
       is_visible="true" />
    <linearGradient
       inkscape:collect="always"
       xlink:href="#grad1-7-7"
       id="linearGradient3085-8-8"
       gradientUnits="userSpaceOnUse"
       gradientTransform="matrix(0.77469594,0,0,0.30982404,152.68996,-13.619206)"
       x1="78.877235"
       y1="178.07356"
       x2="301.40585"
       y2="178.07356" />
    <linearGradient
       id="grad1-7-7"
       x1="78.877235"
       y1="178.07356"
       x2="301.40585"
       y2="178.07356"
       gradientTransform="scale(1.577772,0.63380513)"
       gradientUnits="userSpaceOnUse">
      <stop
         offset="0%"
         style="stop-color:#da0;"
         id="stop16-4-4" />
      <stop
         offset="40%"
         style="stop-color:#fd0;"
         id="stop18-0-0" />
      <stop
         offset="60%"
         style="stop-color:#fd0;"
         id="stop20-9-9" />
      <stop
         offset="100%"
         style="stop-color:#da0;"
         id="stop22-4-4" />
    </linearGradient>
    <linearGradient
       inkscape:collect="always"
       xlink:href="#grad1-7-7"
       id="linearGradient3081-8-8"
       gradientUnits="userSpaceOnUse"
       gradientTransform="matrix(0.77469594,0,0,0.30982404,-27.310046,-13.619206)"
       x1="78.877235"
       y1="178.07356"
       x2="301.40585"
       y2="178.07356" />
    <linearGradient
       id="linearGradient3093"
       x1="78.877235"
       y1="178.07356"
       x2="301.40585"
       y2="178.07356"
       gradientTransform="scale(1.577772,0.63380513)"
       gradientUnits="userSpaceOnUse">
      <stop
         offset="0%"
         style="stop-color:#da0;"
         id="stop3095" />
      <stop
         offset="40%"
         style="stop-color:#fd0;"
         id="stop3097" />
      <stop
         offset="60%"
         style="stop-color:#fd0;"
         id="stop3099" />
      <stop
         offset="100%"
         style="stop-color:#da0;"
         id="stop3101" />
    </linearGradient>
    <linearGradient
       y2="178.07356"
       x2="301.40585"
       y1="178.07356"
       x1="78.877235"
       gradientTransform="matrix(0.77469594,0,0,0.30982404,332.68995,-13.619206)"
       gradientUnits="userSpaceOnUse"
       id="linearGradient3128-1"
       xlink:href="#grad1-7-7"
       inkscape:collect="always" />
    <linearGradient
       id="linearGradient3104"
       x1="78.877235"
       y1="178.07356"
       x2="301.40585"
       y2="178.07356"
       gradientTransform="scale(1.577772,0.63380513)"
       gradientUnits="userSpaceOnUse">
      <stop
         offset="0%"
         style="stop-color:#da0;"
         id="stop3106" />
      <stop
         offset="40%"
         style="stop-color:#fd0;"
         id="stop3108" />
      <stop
         offset="60%"
         style="stop-color:#fd0;"
         id="stop3110" />
      <stop
         offset="100%"
         style="stop-color:#da0;"
         id="stop3112" />
    </linearGradient>
  </defs>
  <g
     inkscape:groupmode="layer"
     id="layer2"
     inkscape:label="Elements"
     style="display:inline">
    <path
       inkscape:connector-curvature="0"
       style="fill:#0000cc;fill-opacity:1;stroke:none;display:inline"
       id="path7212"
       d="m 2,2 0,257 c 0,286 298,398 298,398 0,0 298,-112 298,-398 L 598,2 z" />
    <g
       id="g3122"
       transform="translate(138.80474,75.276845)">
      <path
         id="path3124"
         d="m 86.598427,41.56299 80.397643,89.39763 c 0,0 -0.35434,-20.37401 -0.99213,-21.04724 -19.31102,-20.870078 -20.16142,-42.661415 -10.77165,-39.330707 4.03937,0.956693 6.12992,6.413386 13.78346,-1.133858 l 1.41732,-18.460629 c 0,0 4.85433,5.88189 7.01575,3.755905 2.16142,-2.125984 1.62992,-12.224408 1.62992,-12.224408 l 3.18898,2.976377 1.27559,-5.952755 c 0,0 1.45276,3.933071 4.21654,0.496063 2.79921,-3.437008 6.90944,-14.208661 6.90944,-14.208661 0,0 5.70473,14.811023 9.28347,16.759842 3.61417,1.948819 5.10236,-8.929134 5.10236,-8.929134 0,0 2.33858,4.996063 4.2874,4.287402 1.94882,-0.708662 3.43701,-7.122047 3.43701,-7.122047 0,0 2.23228,4.818897 3.75591,3.614173 1.52362,-1.204724 14.74015,-13.251968 14.74015,-13.251968 0,0 -0.49606,11.303149 2.51575,13.322834 3.01181,2.019685 9.46063,-5.279527 9.46063,-5.279527 0,0 -2.19685,5.031496 -0.88582,5.633858 1.31102,0.602362 6.16535,-3.188976 6.16535,-3.188976 0,0 -14.20866,7.901574 1.20472,2.870078 15.37796,-5.031496 16.44095,-5.31496 16.44095,-5.31496 0,0 -10.84252,11.870078 -7.58268,14.20866 3.29528,2.338583 20.69292,-4.85433 20.69292,-4.85433 0,0 -8.96457,6.838582 -4.88977,9.921259 1.24016,0.92126 7.65355,-4.429133 7.65355,-4.429133 0,0 -2.26772,7.15748 2.58661,6.732283 4.88976,-0.425197 19.24016,-10.240157 16.97244,-8.468504 -2.30315,1.807087 -26.92913,25.086613 -26.92913,25.086613 0,0 8.11417,-0.992126 3.57874,2.65748 -4.85433,3.897638 -32.563,10.877952 -23.98819,25.51181 9.63779,16.37008 32.27953,-16.724409 32.77559,-18.212598 0,0 -3.93307,9.141732 0.60236,8.858268 4.5,-0.283465 17.50394,-9.992126 17.50394,-9.992126 0,0 -3.47244,6.732283 -1.16929,7.511811 2.26771,0.81496 10.31102,-4.287401 10.31102,-4.287401 0,0 -2.26772,5.881889 -0.0709,6.625983 2.19685,0.708662 8.89371,-3.755905 8.89371,-3.755905 0,0 -0.46063,5.42126 1.27559,6.69685 1.70078,1.240158 5.56299,-1.665354 5.56299,-1.665354 l -0.38977,0.283464 6.66142,4.074803 c 0,0 -12.15354,3.507874 -14.81102,7.830709 -3.82677,8.255906 8.53937,5.811026 14.42126,5.066926 0,0 -5.49213,3.25984 -3.72047,4.57087 1.77165,1.34645 8.11417,1.27559 8.11417,1.27559 0,0 -4.6063,1.87795 -2.69291,4.32283 1.94881,2.44489 10.41732,5.4567 10.41732,5.4567 -1.34646,-0.6378 -18.03544,0.99212 -8.92914,8.1496 1.70079,1.34646 7.40552,3.47244 7.40552,3.47244 0,0 -5.38583,-0.38976 -3.79134,3.01181 1.62992,3.36614 10.27559,10.48819 10.27559,10.48819 -0.88583,-0.77953 -18.14173,-3.54331 -10.80709,7.44095 2.16142,3.22441 8.61024,8.5748 8.61024,8.5748 0,0 -4.21654,0.85039 -4.1811,3.29527 0.0354,2.44489 6.16535,4.96063 4.2874,6.48426 -1.91339,1.48818 -4.9252,1.13385 -4.67717,4.21653 0.28347,3.08268 7.29921,6.30709 5.70473,8.11417 -1.62993,1.84252 5.98819,14.4567 4.11023,13.74803 -1.87795,-0.70866 -17.85827,-7.8307 -23.31496,-7.90157 -5.45669,-0.0709 1.45276,7.61811 1.45276,7.61811 l -9.17717,-7.01575 c 0,0 1.02756,10.13386 -0.46063,9.14173 -1.48819,-0.99212 -12.01181,-16.26377 -12.01181,-16.26377 l -2.87008,3.36614 -16.29921,-12.36614 -2.12599,7.19291 -10.09842,-11.76378 -2.26772,1.77165 -9.81496,-9.21259 c -4.1811,-2.83465 -15.05905,-16.40552 -19.31102,-8.43307 -7.37008,0.31889 -11.58662,11.30314 -6.66142,16.29921 3.61417,3.68504 15.83858,5.59842 15.83858,5.59842 l 15.20079,-1.59449 -0.1063,2.83465 14.20866,4.67716 -2.76378,2.72835 16.29922,1.91339 -9.49607,7.51181 11.72835,3.33071 c 0,0 -5.98819,-0.99213 -6.62598,4.14566 -0.8504,6.98032 8.43307,9.07087 11.19685,15.27166 -6.76772,1.77165 -27.99213,-2.94095 -21.29528,8.5748 2.16142,3.72047 6.94488,4.3937 6.94488,4.3937 l -5.13779,5.1378 14.88189,10.73622 c 0,0 -10.34646,-0.7441 -10.55906,1.77165 -0.24803,2.48031 9.6378,8.2559 9.6378,8.2559 0,0 -6.66142,-0.49606 -6.62599,1.94882 0.0354,2.44488 8.22048,6.62599 6.73229,7.83071 -1.52363,1.20473 -8.14961,1.09843 -8.64567,4.0748 -0.46063,2.97638 8.64567,6.34252 6.73228,7.83071 -1.87795,1.52362 -7.54724,-0.46063 -7.29921,4.11024 0.28346,4.6063 8.3622,14.24409 8.3622,14.24409 0,0 -11.69291,-3.6496 -16.08661,-3.18897 -4.3937,0.46063 0.0354,5.98818 -1.45276,4.99606 -1.48819,-1.02756 -5.88189,-4.2874 -9.77952,-3.25984 -3.89764,1.02755 -5.81103,7.33464 -5.81103,7.33464 0,0 -4.11023,-8.11417 -7.75984,-7.58268 -3.64961,0.56693 -6.87402,9.81496 -6.87402,9.81496 0,0 -4.85433,-6.98031 -7.75984,-7.54724 -2.90551,-0.60236 -3.82677,5.17323 -3.82677,5.17323 0,0 -4.85433,-8.4685 -8.61024,-8.53937 -3.72047,-0.0709 -6.27165,8.2559 -6.27165,8.2559 0,0 -2.01969,-8.96456 -4.9252,-10.91338 -10.16929,-6.87402 -10.27559,13.21653 -10.09842,13.46457 0,0 -7.12205,-14.10237 -10.48819,-17.46851 -3.36614,-3.36614 -0.9567,6.48425 -2.97638,3.96851 -1.98425,-2.51575 -3.68504,-12.93307 -5.06693,-14.06693 -9,-7.58268 -16.51181,22.2874 -16.19291,22.64173 0,0 -5.4567,-10.62992 -8.96457,-12.64961 -3.47244,-2.05511 -5.0315,4.53544 -5.0315,4.53544 0,0 -0.0354,-8.61024 -1.80708,-9.56693 -1.73622,-0.92126 -5.91733,7.97244 -5.2441,5.77559 0.70866,-2.16142 1.38189,-10.09843 0.67323,-12.57874 -0.67323,-2.48032 -5.52756,7.65354 -3.40157,2.69291 l 12.25984,-33.23622 c 1.06299,-8.7874 2.51575,-23.63385 -5.3504,-24.83858 -19.31102,-2.97638 -19.94881,17.5748 -9.63779,29.51575 l 3.79134,15.69685 -3.18898,9.63779 c 0,0 -2.58661,-3.57874 -3.57874,-0.46063 -0.99213,3.11811 -0.4252,12.89764 -0.4252,12.89764 0,0 -6.27165,-4.35827 -6.66141,-1.84252 -0.38977,2.51575 -1.48819,13.5 -3.89764,16.22835 -2.44488,2.76377 -5.1378,-7.44095 -5.81103,-5.27953 -0.67322,2.19685 -5.38582,13.03937 -5.38582,13.03937 0,0 -2.94095,-10.84252 -5.91732,-2.44488 -3.01182,8.3622 -7.86615,13.85433 -7.86615,13.85433 0,0 0.24803,-8.82284 -1.66535,-12.36615 -1.94882,-3.5433 -6.02362,-1.84252 -6.02362,-1.84252 0,0 1.73622,-7.79527 -0.77953,-9.77952 -2.48032,-2.01969 -9.248032,1.80708 -9.248032,1.80708 0,0 2.551182,-8.71653 0.106299,-11.01968 -2.480315,-2.30315 -10.240158,5.88189 -9.92126,1.80709 0.318898,-4.11024 4.925197,-12.25985 0.885827,-16.05118 -4.03937,-3.79134 -18.602363,2.05511 -17.078741,0.85039 1.523622,-1.16929 2.586614,-4.0748 1.948819,-5.88189 -0.637795,-1.84252 -5.952756,-0.24803 -4.429134,-1.45276 1.523622,-1.20472 6.448819,-2.90551 5.704725,-4.5 -0.744095,-1.59448 -8.64567,-1.94881 -8.64567,-1.94881 0,0 7.582678,-6.51969 3.755906,-8.96457 -3.862205,-2.44488 -19.133859,-0.81496 -19.133859,-0.81496 0,0 6.448819,-7.68898 6.80315,-11.37402 0.318898,-3.68504 -6.980315,-2.19685 -5.456693,-3.36614 l 5.314961,-4.21653 c 0,0 -6.838583,-2.79922 -3.933071,-4.57087 7.122047,1.06299 42.236221,-12.11811 34.688977,-21.40157 -6.377953,-7.83071 -38.905513,13.46456 -37.062993,15.62598 0,0 5.952756,-4.1811 2.019685,-4.32283 -3.968504,-0.17717 -27.850394,3.89763 -27.850394,3.89763 0,0 13.748032,-10.31102 17.007874,-15.09448 3.22441,-4.74803 -5.562992,-2.72835 -4.03937,-3.93307 1.523622,-1.20473 9.531496,-3.93307 9.389764,-6.87402 -0.106299,-2.90551 -9.850394,-4.8189 -9.850394,-4.8189 l 12.401575,-4.85433 c 0,0 -12.401575,-5.56299 -9.744094,-7.65354 2.65748,-2.09055 14.952756,-2.62205 18.141732,-5.56299 3.22441,-2.94095 -7.972441,-4.11024 -5.314961,-6.20079 2.657481,-2.09055 10.807087,-5.24409 10.807087,-5.24409 0,0 -17.149606,-2.90551 -13.712598,-5.59843 3.401574,-2.69291 16.299212,-10.70078 16.299212,-10.70078 0,0 -5.279527,-0.2126 -3.755905,-1.41733 1.523622,-1.16929 9.566929,-3.68504 9.566929,-3.68504 l -7.299213,-6.30708 c 0,0 11.232284,0.38976 15.094489,-3.15355 8.149606,-7.44094 -6.555118,-15.09448 -6.555118,-15.09448 l 14.031496,1.52362 7.440945,-0.95669 -2.65748,-6.09449 10.133858,2.94094 1.80709,-9.07086 7.58267,14.66929 c 0,0 -2.33858,-19.02756 -0.38976,-19.417324 4.96063,-0.992126 20.12598,17.716534 26.29134,34.192914 4.32283,11.58661 23.91732,4.14567 23.91732,4.14567 L 81.2126,44.185037 86.598427,41.56299 z"
         style="fill:#008800;fill-opacity:1;fill-rule:evenodd;stroke:#000000;stroke-width:4.21653556999999960px;stroke-linecap:butt;stroke-linejoin:miter;stroke-miterlimit:4;stroke-opacity:1;stroke-dasharray:none"
         inkscape:connector-curvature="0" />
      <path
         id="path3126"
         d="m 284.42126,281.19683 1.41733,0.6378 c -21.01181,-9.1063 -35.71654,-27.4252 -46.31103,-45.99212 -21.29527,-37.34646 -44.75197,-70.93701 -73.87795,-102.36614 -8.64567,59.91732 -46.98425,72.03543 -50.45669,96.30708 -3.33071,23.17323 -1.59449,46.73622 4.35826,62.5748"
         style="fill:none;stroke:#000000;stroke-width:4.32283449px;stroke-linecap:round;stroke-linejoin:miter;stroke-miterlimit:4;stroke-opacity:1;stroke-dasharray:none"
         inkscape:connector-curvature="0" />
      <path
         id="path3128"
         d="m 164.94095,136.62991 c 61.26378,3.96851 95.35039,-38.055112 137.23228,1.98426 13.2874,10.62992 19.16929,17.96456 25.15748,25.33464"
         style="fill:none;stroke:#000000;stroke-width:4.32283449px;stroke-linecap:round;stroke-linejoin:miter;stroke-miterlimit:4;stroke-opacity:1;stroke-dasharray:none"
         inkscape:connector-curvature="0" />
      <path
         id="path3130"
         d="m 168.37796,135.63779 c 13.67716,-30.36614 63.38976,-72.496061 82.20472,-74.409447"
         style="fill:none;stroke:#000000;stroke-width:4.32283449px;stroke-linecap:round;stroke-linejoin:miter;stroke-miterlimit:4;stroke-opacity:1;stroke-dasharray:none"
         inkscape:connector-curvature="0" />
      <path
         id="path3132"
         d="M 164.87008,137.58661 C 151.93701,150.37794 139.5,161.53936 130.03937,162.46062 94.960631,172.06298 69.803151,187.5118 64.913387,191.26771"
         style="fill:none;stroke:#000000;stroke-width:4.32283449px;stroke-linecap:round;stroke-linejoin:miter;stroke-miterlimit:4;stroke-opacity:1;stroke-dasharray:none"
         inkscape:connector-curvature="0" />
      <path
         id="path3134"
         d="m 87.271655,56.409446 c -6.980315,0 -11.338583,-1.027559 -11.338583,-1.027559 C 50.173229,74.58661 26.468504,96.767711 4.3228347,120.57873 L 2.1259843,106.90157 C 53.397639,52.937005 93.295277,21.437007 123.48425,2.1259841 l 8.11418,9.1062989 c -12.22441,7.830708 -25.08662,17.681101 -42.590555,33.02362 8.751969,4.181102 18.354335,6.059055 27.106295,41.492124 l 3.50788,56.657473 -8.75197,0 C 107.46851,115.29921 112.5,69.73228 87.271655,56.409446 z"
         style="fill:#008800;fill-opacity:1;fill-rule:evenodd;stroke:#000000;stroke-width:4.21653556999999960px;stroke-linecap:butt;stroke-linejoin:miter;stroke-miterlimit:4;stroke-opacity:1;stroke-dasharray:none"
         inkscape:connector-curvature="0" />
      <path
         id="path3136"
         d="m 226.62992,265.64172 c -18.81496,-5.59843 -29.12598,-24.09449 -22.99606,-41.31496 6.09449,-17.22047 26.29134,-26.6811 45.1063,-21.08268 18.77953,5.59843 29.09055,24.09449 22.99606,41.31496 -6.12992,17.22047 -26.2559,26.64567 -45.07086,21.08268"
         style="fill:#9f1d35;fill-opacity:1;fill-rule:evenodd;stroke:#000000;stroke-width:4.25196838000000010px;stroke-linecap:round;stroke-linejoin:round;stroke-opacity:1;stroke-dasharray:none"
         inkscape:connector-curvature="0" />
      <path
         id="path3138"
         d="m 214.44095,235.16928 c -18.77953,-5.59843 -29.09055,-24.09449 -22.96063,-41.31496 6.09449,-17.22047 26.29134,-26.64567 45.1063,-21.04724 18.77953,5.59842 29.09055,24.09448 22.96063,41.31496 -6.09449,17.18503 -26.25591,26.64566 -45.03544,21.08267"
         style="fill:#9f1d35;fill-opacity:1;fill-rule:evenodd;stroke:#000000;stroke-width:4.25196838000000010px;stroke-linecap:round;stroke-linejoin:round;stroke-opacity:1;stroke-dasharray:none"
         inkscape:connector-curvature="0" />
      <path
         id="path3140"
         d="m 145.52362,176.63385 c -18.81496,-5.59843 -29.12598,-24.09449 -22.99606,-41.31496 6.09449,-17.22047 26.29134,-26.64567 45.1063,-21.04724 18.77953,5.59842 29.09055,24.05905 22.99606,41.31496 -6.09448,17.18503 -26.2559,26.61023 -45.07086,21.04724"
         style="fill:#9f1d35;fill-opacity:1;fill-rule:evenodd;stroke:#000000;stroke-width:4.25196838000000010px;stroke-linecap:round;stroke-linejoin:round;stroke-opacity:1;stroke-dasharray:none"
         inkscape:connector-curvature="0" />
      <path
         id="path3142"
         d="M 36.779528,181.31101 C 18,175.71259 7.6889765,157.21653 13.783465,139.99606 c 6.129921,-17.22048 26.326772,-26.64567 45.1063,-21.04725 18.814961,5.59843 29.125984,24.09449 22.996063,41.31496 -6.094488,17.18504 -26.255906,26.61024 -45.035434,21.08268"
         style="fill:#9f1d35;fill-opacity:1;fill-rule:evenodd;stroke:#000000;stroke-width:4.25196838000000010px;stroke-linecap:round;stroke-linejoin:round;stroke-opacity:1;stroke-dasharray:none"
         inkscape:connector-curvature="0" />
      <path
         id="path3144"
         d="m 187.93701,150.87401 c -18.81496,-5.59843 -29.09055,-24.09449 -22.99606,-41.31496 6.12992,-17.220472 26.29134,-26.645669 45.1063,-21.047244 18.81496,5.562992 29.09055,24.059054 22.99606,41.314954 -6.09449,17.18504 -26.25591,26.61024 -45.03543,21.04725"
         style="fill:#9f1d35;fill-opacity:1;fill-rule:evenodd;stroke:#000000;stroke-width:4.25196838000000010px;stroke-linecap:round;stroke-linejoin:round;stroke-opacity:1;stroke-dasharray:none"
         inkscape:connector-curvature="0" />
      <path
         id="path3146"
         d="m 222.41339,181.31101 c -18.81496,-5.59842 -29.09055,-24.09448 -22.99606,-41.31495 6.09448,-17.22048 26.29133,-26.64567 45.1063,-21.04725 18.81496,5.59843 29.09055,24.09449 22.99606,41.31496 -6.09449,17.18504 -26.25591,26.61024 -45.03543,21.08268"
         style="fill:#9f1d35;fill-opacity:1;fill-rule:evenodd;stroke:#000000;stroke-width:4.25196838000000010px;stroke-linecap:round;stroke-linejoin:round;stroke-opacity:1;stroke-dasharray:none"
         inkscape:connector-curvature="0" />
      <path
         id="path3148"
         d="M 31.5,298.41731 C 12.68504,292.81888 2.3740158,274.32282 8.5039371,257.10235 14.598425,239.88188 34.795276,230.45668 53.610237,236.05511 72.389765,241.65353 82.700789,260.11416 76.6063,277.37006 70.476379,294.5551 50.350394,303.9803 31.535434,298.41731"
         style="fill:#9f1d35;fill-opacity:1;fill-rule:evenodd;stroke:#000000;stroke-width:4.25196838000000010px;stroke-linecap:round;stroke-linejoin:round;stroke-opacity:1;stroke-dasharray:none"
         inkscape:connector-curvature="0" />
      <path
         id="path3150"
         d="m 58.003938,260.92912 c -18.814961,-5.56299 -29.090552,-24.05905 -22.996063,-41.31496 6.094488,-17.22047 26.291339,-26.64567 45.106299,-21.04724 18.814961,5.59842 29.090556,24.09448 22.996066,41.31496 -6.09449,17.22047 -26.255908,26.64566 -45.035436,21.08267"
         style="fill:#9f1d35;fill-opacity:1;fill-rule:evenodd;stroke:#000000;stroke-width:4.25196838000000010px;stroke-linecap:round;stroke-linejoin:round;stroke-opacity:1;stroke-dasharray:none"
         inkscape:connector-curvature="0" />
      <path
         id="path3152"
         d="M 28.38189,237.50786 C 9.5669293,231.94487 -0.70866143,213.44881 5.3858269,196.1929 11.480315,178.97243 31.677166,169.54723 50.492127,175.14566 c 18.814961,5.59842 29.090551,24.09449 22.996063,41.31496 -6.094488,17.22047 -26.255906,26.64567 -45.035434,21.08267"
         style="fill:#9f1d35;fill-opacity:1;fill-rule:evenodd;stroke:#000000;stroke-width:4.25196838000000010px;stroke-linecap:round;stroke-linejoin:round;stroke-opacity:1;stroke-dasharray:none"
         inkscape:connector-curvature="0" />
      <path
         id="path3154"
         d="m 165.61418,209.40944 c -18.77953,-5.59843 -29.09056,-24.09449 -22.99607,-41.31496 6.12992,-17.22047 26.32677,-26.64567 45.1063,-21.04724 18.81496,5.59842 29.12599,24.09448 22.99607,41.31495 -6.09449,17.18504 -26.25591,26.64567 -45.03544,21.08268"
         style="fill:#9f1d35;fill-opacity:1;fill-rule:evenodd;stroke:#000000;stroke-width:4.25196838000000010px;stroke-linecap:round;stroke-linejoin:round;stroke-opacity:1;stroke-dasharray:none"
         inkscape:connector-curvature="0" />
      <path
         id="path3156"
         d="m 71.255907,214.0866 c -18.814961,-5.56299 -29.090552,-24.05905 -22.996064,-41.27952 6.129922,-17.25591 26.326772,-26.6811 45.1063,-21.08268 18.814957,5.59843 29.090547,24.09449 22.996067,41.31496 -6.09449,17.22047 -26.255909,26.64567 -45.035437,21.08268"
         style="fill:#9f1d35;fill-opacity:1;fill-rule:evenodd;stroke:#000000;stroke-width:4.25196838000000010px;stroke-linecap:round;stroke-linejoin:round;stroke-opacity:1;stroke-dasharray:none"
         inkscape:connector-curvature="0" />
      <path
         id="path3158"
         d="M 104.81103,162.56692 C 86.031497,156.9685 75.720474,138.47243 81.850395,121.25196 c 6.094488,-17.22047 26.291335,-26.645666 45.070865,-21.04724 18.81496,5.59842 29.12599,24.09449 22.99607,41.31496 -6.09449,17.18504 -26.25591,26.64567 -45.03544,21.08267"
         style="fill:#9f1d35;fill-opacity:1;fill-rule:evenodd;stroke:#000000;stroke-width:4.25196838000000010px;stroke-linecap:round;stroke-linejoin:round;stroke-opacity:1;stroke-dasharray:none"
         inkscape:connector-curvature="0" />
      <path
         id="path3160"
         d="m 211.8189,364.00392 c -18.81496,-5.59843 -29.12598,-24.09449 -22.99606,-41.31496 6.09449,-17.22047 26.29134,-26.64567 45.1063,-21.08268 18.77953,5.59843 29.09055,24.09449 22.99606,41.31496 -6.12992,17.22047 -26.25591,26.64567 -45.07087,21.08268"
         style="fill:#9f1d35;fill-opacity:1;fill-rule:evenodd;stroke:#000000;stroke-width:4.25196838000000010px;stroke-linecap:round;stroke-linejoin:round;stroke-opacity:1;stroke-dasharray:none"
         inkscape:connector-curvature="0" />
      <path
         id="path3162"
         d="m 174.68504,370.02754 c -18.81496,-5.56299 -29.09055,-24.05906 -22.99606,-41.27953 6.09449,-17.22047 26.29134,-26.6811 45.1063,-21.08267 18.81496,5.59842 29.09055,24.09448 22.99606,41.31496 -6.09449,17.22047 -26.2559,26.64566 -45.03543,21.08267"
         style="fill:#9f1d35;fill-opacity:1;fill-rule:evenodd;stroke:#000000;stroke-width:4.25196838000000010px;stroke-linecap:round;stroke-linejoin:round;stroke-opacity:1;stroke-dasharray:none"
         inkscape:connector-curvature="0" />
      <path
         id="path3164"
         d="m 196.33465,312.4488 c -18.77953,-5.56299 -29.09055,-24.05905 -22.96063,-41.27952 6.09449,-17.25591 26.29134,-26.6811 45.07087,-21.08268 18.81496,5.59843 29.12598,24.09449 22.99606,41.31496 -6.09449,17.22047 -26.25591,26.64567 -45.03544,21.08267"
         style="fill:#9f1d35;fill-opacity:1;fill-rule:evenodd;stroke:#000000;stroke-width:4.25196838000000010px;stroke-linecap:round;stroke-linejoin:round;stroke-opacity:1;stroke-dasharray:none"
         inkscape:connector-curvature="0" />
      <path
         id="path3166"
         d="m 79.228348,361.6299 c -18.814961,-5.56299 -29.125985,-24.05905 -22.996064,-41.27952 6.094489,-17.22048 26.291339,-26.6811 45.106296,-21.08268 18.77953,5.59842 29.09056,24.09449 22.99607,41.31496 -6.09449,17.22047 -26.255908,26.64567 -45.070869,21.08267"
         style="fill:#9f1d35;fill-opacity:1;fill-rule:evenodd;stroke:#000000;stroke-width:4.25196838000000010px;stroke-linecap:round;stroke-linejoin:round;stroke-opacity:1;stroke-dasharray:none"
         inkscape:connector-curvature="0" />
      <path
         id="path3168"
         d="m 84.082678,314.82282 c -18.81496,-5.59843 -29.125984,-24.09449 -22.996063,-41.31496 6.094488,-17.22047 26.291339,-26.64567 45.106305,-21.08268 18.77952,5.59843 29.09055,24.09449 22.96063,41.31496 -6.09449,17.22047 -26.22048,26.64567 -45.035438,21.08268"
         style="fill:#9f1d35;fill-opacity:1;fill-rule:evenodd;stroke:#000000;stroke-width:4.25196838000000010px;stroke-linecap:round;stroke-linejoin:round;stroke-opacity:1;stroke-dasharray:none"
         inkscape:connector-curvature="0" />
      <path
         id="path3170"
         d="m 148.1811,417.86218 c -18.81496,-5.59842 -29.12598,-24.09449 -22.99606,-41.31496 6.09449,-17.22047 26.29134,-26.64566 45.1063,-21.04724 18.77953,5.56299 29.09055,24.05905 22.96063,41.27953 -6.09449,17.22047 -26.22047,26.64566 -45.03543,21.08267"
         style="fill:#9f1d35;fill-opacity:1;fill-rule:evenodd;stroke:#000000;stroke-width:4.25196838000000010px;stroke-linecap:round;stroke-linejoin:round;stroke-opacity:1;stroke-dasharray:none"
         inkscape:connector-curvature="0" />
      <path
         id="path3172"
         d="m 129.61418,464.7047 c -18.81497,-5.59843 -29.12599,-24.09449 -22.99607,-41.31496 6.09449,-17.22047 26.29134,-26.64567 45.1063,-21.08268 18.77953,5.59843 29.09055,24.09449 22.99607,41.31496 -6.12993,17.22047 -26.25591,26.64567 -45.07087,21.08268"
         style="fill:#9f1d35;fill-opacity:1;fill-rule:evenodd;stroke:#000000;stroke-width:4.25196838000000010px;stroke-linecap:round;stroke-linejoin:round;stroke-opacity:1;stroke-dasharray:none"
         inkscape:connector-curvature="0" />
      <path
         id="path3174"
         d="M 95.137797,424.87793 C 76.322836,419.2795 66.047245,400.78344 72.141733,383.56297 78.236222,366.3425 98.433072,356.9173 117.24803,362.51573 c 18.77953,5.59842 29.09055,24.09448 22.99607,41.31496 -6.09449,17.18503 -26.25591,26.61023 -45.07087,21.08267"
         style="fill:#9f1d35;fill-opacity:1;fill-rule:evenodd;stroke:#000000;stroke-width:4.25196838000000010px;stroke-linecap:round;stroke-linejoin:round;stroke-opacity:1;stroke-dasharray:none"
         inkscape:connector-curvature="0" />
      <path
         id="path3176"
         d="M 95.137797,424.87793 C 76.322836,419.2795 66.047245,400.78344 72.141733,383.56297 78.236222,366.3425 98.433072,356.9173 117.24803,362.51573 c 18.77953,5.59842 29.09055,24.09448 22.99607,41.31496 -6.09449,17.18503 -26.25591,26.61023 -45.07087,21.08267"
         style="fill:#9f1d35;fill-opacity:1;fill-rule:evenodd;stroke:#000000;stroke-width:4.25196838000000010px;stroke-linecap:round;stroke-linejoin:round;stroke-opacity:1;stroke-dasharray:none"
         inkscape:connector-curvature="0" />
      <path
         id="path3178"
         d="m 111.93307,383.27951 c -18.779525,-5.563 -29.090549,-24.05906 -22.960628,-41.31496 6.094489,-17.22047 26.291338,-26.64567 45.070868,-21.04724 18.81496,5.59842 29.12598,24.09448 22.99606,41.31495 -6.09449,17.22047 -26.2559,26.64567 -45.03543,21.08268"
         style="fill:#9f1d35;fill-opacity:1;fill-rule:evenodd;stroke:#000000;stroke-width:4.25196838000000010px;stroke-linecap:round;stroke-linejoin:round;stroke-opacity:1;stroke-dasharray:none"
         inkscape:connector-curvature="0" />
      <path
         id="path3180"
         d="m 132.23622,345.25982 c -18.77953,-5.59842 -29.09055,-24.09448 -22.96063,-41.31495 6.09449,-17.22048 26.29134,-26.64567 45.1063,-21.04725 18.77953,5.56299 29.09055,24.05906 22.96063,41.27953 -6.09449,17.22047 -26.2559,26.64567 -45.03543,21.08267"
         style="fill:#9f1d35;fill-opacity:1;fill-rule:evenodd;stroke:#000000;stroke-width:4.25196838000000010px;stroke-linecap:round;stroke-linejoin:round;stroke-opacity:1;stroke-dasharray:none"
         inkscape:connector-curvature="0" />
      <path
         id="path3182"
         d="m 150.80315,296.07872 c -18.77953,-5.59842 -29.09055,-24.09448 -22.99606,-41.31495 6.12992,-17.22048 26.32677,-26.64567 45.1063,-21.04725 18.81496,5.56299 29.12598,24.05906 22.99606,41.27953 -6.09449,17.22047 -26.2559,26.64567 -45.03543,21.08267"
         style="fill:#9f1d35;fill-opacity:1;fill-rule:evenodd;stroke:#000000;stroke-width:4.25196838000000010px;stroke-linecap:round;stroke-linejoin:round;stroke-opacity:1;stroke-dasharray:none"
         inkscape:connector-curvature="0" />
      <path
         id="path3184"
         d="m 158.77559,260.92912 c -18.81496,-5.56299 -29.09055,-24.05905 -22.99606,-41.31496 6.09449,-17.22047 26.29134,-26.64567 45.1063,-21.04724 18.81496,5.59842 29.09055,24.09448 22.99606,41.31496 -6.09449,17.22047 -26.2559,26.64566 -45.03543,21.08267"
         style="fill:#9f1d35;fill-opacity:1;fill-rule:evenodd;stroke:#000000;stroke-width:4.25196838000000010px;stroke-linecap:round;stroke-linejoin:round;stroke-opacity:1;stroke-dasharray:none"
         inkscape:connector-curvature="0" />
      <path
         id="path3186"
         d="M 108.38977,272.65747 C 89.574805,267.05904 79.299214,248.56298 85.393702,231.34251 91.48819,214.12204 111.68504,204.69684 130.5,210.29526 c 18.81496,5.563 29.09055,24.05906 22.99607,41.31496 -6.09449,17.18504 -26.25591,26.61024 -45.03544,21.04725"
         style="fill:#9f1d35;fill-opacity:1;fill-rule:evenodd;stroke:#000000;stroke-width:4.25196838000000010px;stroke-linecap:round;stroke-linejoin:round;stroke-opacity:1;stroke-dasharray:none"
         inkscape:connector-curvature="0" />
      <path
         id="path3188"
         d="m 121.64173,223.47637 c -18.81496,-5.59843 -29.090547,-24.09449 -22.996059,-41.31496 6.129919,-17.22047 26.291339,-26.64567 45.106299,-21.04725 18.81496,5.563 29.09055,24.05906 22.99606,41.27953 -6.09448,17.22047 -26.2559,26.64567 -45.03543,21.08268"
         style="fill:#9f1d35;fill-opacity:1;fill-rule:evenodd;stroke:#000000;stroke-width:4.25196838000000010px;stroke-linecap:round;stroke-linejoin:round;stroke-opacity:1;stroke-dasharray:none"
         inkscape:connector-curvature="0" />
    </g>
  </g>
  <g
     inkscape:groupmode="layer"
     id="layer1"
     inkscape:label="Cover"
     style="display:inline"
     sodipodi:insensitive="true">
    <path
       d="m 2,2 v 257 c 0,286 298,398 298,398 0,0 298,-112 298,-398 V 2 z"
       id="shine"
       inkscape:connector-curvature="0"
       style="fill:url(#radialGradient3074);stroke:#000000;stroke-width:3" />
  </g>
</svg>
