<?xml version="1.0" encoding="UTF-8"?>
<svg xmlns="http://www.w3.org/2000/svg" xmlns:xlink="http://www.w3.org/1999/xlink" width="600" height="660">
<defs>
  <radialGradient id="rg" gradientUnits="userSpaceOnUse" cx="220" cy="220" r="405">
    <stop style="stop-color:#ffffff;stop-opacity:.3" offset="0"/>
    <stop style="stop-color:#ffffff;stop-opacity:.2" offset=".2"/>
    <stop style="stop-color:#666666;stop-opacity:.1" offset=".6"/>
    <stop style="stop-color:#000000;stop-opacity:.13" offset="1"/>
  </radialGradient>
  <path id="shield" d="m2,2v257c0,286 298,398 298,398c0,0 298-112 298-398V2z"/>
</defs>
<use id="bg" xlink:href="#shield" style="fill:#000000;"/>
<path style="fill:#cc0000" d="m 25,25 c 12.12,19.19 29.14,31.69 51.08,37.5 21.93,5.81 38.92,18.31 51.12,37.5 -3,-15.59 -10.9,-28.09 -23.6,-37.5 -12.79,-9.41 -20.65,-21.91 -23.6,-37.5 9.35,18.1 23.6,30.6 42.8,37.5 19.2,6.9 33.4,19.4 42.8,37.5 -0.2,-14.5 -5.3,-27 -15.3,-37.5 -10,-10.5 -15.1,-23 -15.3,-37.5 6.6,17.02 18.1,29.52 34.5,37.5 16.4,7.98 27.9,20.48 34.5,37.5 2.6,-13.41 0.2,-25.91 -7,-37.5 -7.2,-11.58 -9.6,-24.08 -7,-37.5 3.8,15.93 12.6,28.43 26.2,37.5 13.6,9.07 22.4,21.57 26.2,37.5 5.3,-12.33 5.8,-24.83 1.3,-37.5 -4.5,-12.67 -4,-25.17 1.3,-37.5 1.1,14.84 7,27.34 17.9,37.5 10.9,10.16 16.8,22.66 17.9,37.5 8.1,-11.24 11.3,-23.74 9.6,-37.5 -1.7,-13.76 1.5,-26.26 9.6,-37.5 -1.7,13.76 1.5,26.26 9.6,37.5 8.1,11.24 11.3,23.74 9.6,37.5 10.9,-10.16 16.8,-22.66 17.9,-37.5 1.1,-14.84 7,-27.34 17.9,-37.5 -4.5,12.67 -4,25.17 1.3,37.5 5.3,12.33 5.8,24.83 1.3,37.5 13.7,-9.07 22.4,-21.57 26.2,-37.5 3.8,-15.93 12.6,-28.43 26.2,-37.5 -7.2,11.59 -9.6,24.09 -7,37.5 2.6,13.41 0.3,25.91 -7,37.5 16.4,-7.99 27.9,-20.49 34.5,-37.5 6.6,-17.01 18.1,-29.52 34.5,-37.5 -10,10.5 -15.1,23 -15.3,37.5 -0.2,14.5 -5.3,27 -15.3,37.5 19.2,-6.9 33.5,-19.4 42.8,-37.5 9.4,-18.1 23.6,-30.6 42.8,-37.5 -12.8,9.41 -20.6,21.91 -23.6,37.5 -2.9,15.59 -10.8,28.09 -23.6,37.5 22,-5.81 39,-18.31 51.1,-37.5 12.1,-19.19 29.2,-31.69 51.1,-37.5 -19.2,12.12 -31.7,29.14 -37.5,51.08 -5.8,21.93 -18.3,38.92 -37.5,51.12 15.6,-3 28.1,-10.9 37.5,-23.6 9.4,-12.79 21.9,-20.65 37.5,-23.6 -18.2,9.64 -30.7,24.2 -37.5,43.7 -6.8,19.4 -19.3,34 -37.5,43.6 14.6,-0.3 27.1,-5.6 37.5,-15.8 10.4,-10.1 22.9,-15.4 37.5,-15.7 -17.2,7 -29.7,19 -37.5,35.8 -7.8,16.9 -20.3,28.8 -37.5,35.9 13.5,2.2 26,-0.4 37.5,-8 11.5,-7.5 24,-10.2 37.5,-7.9 -16.2,4.4 -28.7,13.7 -37.5,28 -8.8,14.3 -21.3,23.6 -37.5,28 12.5,4.9 25,4.9 37.5,-0.1 12.5,-5 25,-5 37.5,-0.1 -15.4,1.7 -28.1,8.4 -38.2,20.2 -10.1,11.7 -22.8,18.4 -38.2,20.2 11.3,7.3 23.6,9.9 36.9,7.6 13.3,-2.3 25.6,0.2 36.9,7.6 -15,-1.2 -28.4,2.8 -40.3,12.2 -11.8,9.3 -25.2,13.3 -40.3,12.1 9.7,9.6 21.3,14.7 34.9,15.2 13.6,0.5 25.2,5.6 34.9,15.2 -14.2,-4.1 -27.9,-2.8 -41.1,3.9 -13.1,6.7 -26.8,8 -41,3.9 7.5,11.5 18,18.9 31.3,22.2 13.4,3.3 23.8,10.7 31.4,22.2 -12.9,-6.6 -26.3,-8 -40.2,-4.2 -13.9,3.9 -27.3,2.5 -40.2,-4.2 5.1,13 14,22.5 26.6,28.5 12.5,6 21.4,15.5 26.5,28.5 -11,-8.9 -23.6,-12.8 -37.7,-11.8 -14.1,1 -26.7,-2.9 -37.7,-11.8 2.5,14 9.4,25.3 20.7,33.9 11.3,8.6 18.2,19.9 20.7,33.9 -8.8,-10.7 -20.1,-16.9 -33.8,-18.7 -13.7,-1.8 -24.9,-8 -33.8,-18.7 -0.3,14.7 4.4,27.5 14.1,38.4 9.7,11 14.4,23.8 14.1,38.4 -6.4,-12 -15.9,-20.2 -28.7,-24.7 -12.8,-4.4 -22.4,-12.6 -28.8,-24.6 -3.2,14.9 -0.9,28.9 6.9,42 7.8,13.1 10.1,27.1 6.9,42 -3.7,-12.9 -11.3,-22.8 -22.8,-29.8 -11.5,-6.9 -19.1,-16.8 -22.7,-29.7 -6.1,14.8 -6.4,29.7 -0.8,44.7 5.6,15 5.4,29.9 -0.7,44.8 -1,-13.5 -6.4,-24.8 -16.2,-34 -9.8,-9.1 -15.2,-20.4 -16.2,-33.9 -9.1,14.4 -12.2,29.9 -9.2,46.6 3,16.7 -0.1,32.3 -9.2,46.6 3,-16.8 -0.1,-32.3 -9.2,-46.6 -9.2,-14.3 -12.3,-29.8 -9.2,-46.6 -9.9,9.2 -15.2,20.5 -16.2,33.9 -1,13.5 -6.3,24.8 -16.2,34 5.6,-15.1 5.4,-30 -0.7,-44.8 -6.1,-14.8 -6.4,-29.7 -0.7,-44.7 -11.5,6.9 -19.1,16.8 -22.8,29.7 -3.7,12.9 -11.3,22.8 -22.8,29.8 7.8,-13.1 10.1,-27.1 6.9,-42 -3.2,-14.9 -0.9,-28.9 6.9,-42 -12.8,4.4 -22.4,12.7 -28.7,24.6 -6.4,12 -16,20.2 -28.8,24.7 9.8,-11 14.4,-23.8 14.1,-38.4 -0.3,-14.6 4.4,-27.4 14.1,-38.4 -13.7,1.8 -25,8.1 -33.8,18.7 -8.8,10.6 -20.1,16.9 -33.8,18.7 11.4,-8.6 18.3,-19.9 20.7,-33.9 2.5,-14 9.4,-25.3 20.7,-33.9 -14.1,-1 -26.7,2.9 -37.7,11.8 -11,8.9 -23.57,12.8 -37.68,11.8 12.58,-6 21.38,-15.5 26.58,-28.5 5.1,-13 13.9,-22.5 26.5,-28.5 -13.9,-3.8 -27.3,-2.4 -40.19,4.2 -12.84,6.7 -26.23,8.1 -40.17,4.2 13.36,-3.3 23.81,-10.7 31.35,-22.2 7.54,-11.5 18.01,-18.9 31.31,-22.2 -13.1,-6.7 -26.83,-8 -41.02,-3.9 -14.19,4.1 -27.88,2.8 -41.05,-3.9 13.61,-0.5 25.23,-5.6 34.87,-15.2 9.63,-9.6 21.25,-14.7 34.9,-15.2 -11.88,-9.3 -25.31,-13.4 -40.34,-12.1 -15.02,1.2 -28.45,-2.9 -40.29,-12.2 13.3,2.3 25.61,-0.2 36.92,-7.6 11.3,-7.4 23.61,-9.9 36.91,-7.6 -10.08,-11.8 -22.82,-18.5 -38.2,-20.2 -15.38,-1.8 -28.11,-8.5 -38.2,-20.3 12.48,5 24.98,5.1 37.5,0.2 12.52,-4.9 25.02,-4.8 37.5,0.1 -8.83,-14.2 -21.33,-23.6 -37.5,-28 -16.17,-4.4 -28.67,-13.8 -37.5,-28 11.46,7.5 23.96,10.2 37.5,7.9 13.54,-2.2 26.04,0.4 37.5,8 -7.81,-16.9 -20.31,-28.8 -37.5,-35.9 -17.19,-7 -29.69,-19 -37.5,-35.8 10.44,10.1 22.94,15.4 37.5,15.7 14.56,0.4 27.06,5.7 37.5,15.8 -6.78,-19.4 -19.28,-34 -37.5,-43.6 -18.21,-9.7 -30.71,-24.24 -37.5,-43.7 9.41,12.77 21.91,20.6 37.5,23.6 15.59,2.9 28.09,10.8 37.5,23.6 -5.81,-22 -18.31,-39 -37.5,-51.12 -19.19,-12.12 -31.69,-29.14 -37.5,-51.08 z"/>
<g id="flail" style="fill:#f0f0f0;stroke:#222222;stroke-width:1;stroke-linejoin:round;stroke-linecap:round;">
  <path style="fill:#888888;" d="m 224.4,162.3 13.2,-23.9 2.7,4.4 -11.6,22.1 z"/>
  <g>
    <path d="m 211.3,154.5 c -1,-0.7 -2,-1.3 -2,-1.5 0,-0.2 -0.5,-0.4 -0.9,-0.4 -0.6,0 -1,0.8 -1.5,1.7 -0.4,1.1 -1.5,2.6 -2,3.9 -0.9,1 -1.9,3.1 -2.4,4.4 -1.4,2.5 -16,27.2 -16,28.1 0,0.7 -1.1,2.5 -2.4,4.1 -1,1.6 -1.6,3.1 -1.6,3.3 0,0.2 -0.4,0.8 -0.9,1.4 -0.9,1 -4.8,7.6 -4.8,8.1 0,0.2 -1.4,2.4 -2.9,5 -1.5,2.7 -3.9,6.7 -5.3,8.9 -1.2,2.3 -2.5,4.3 -2.7,4.7 -0.4,0.4 -2.5,3.9 -5.3,8.9 -0.6,1.3 -2.2,4 -3.4,5.9 -1.2,2.1 -2.6,4.5 -3,5.1 -0.5,1.2 -4.9,8.3 -7.3,12.3 -0.3,0.5 -1.5,2.7 -2.9,5.2 -1.4,2.3 -3.3,5.4 -4,6.6 -2.4,3.8 -2.8,4.4 -3.5,6.1 -0.4,1.1 -1.3,2.4 -2,3.3 -0.7,0.9 -1.1,1.7 -1.1,2 0,0.2 -0.5,1 -1,1.7 -0.5,0.5 -2.1,3.5 -3.7,6.4 -1.6,3 -3.1,5.7 -3.3,6.1 -1.8,2.1 -6.8,11.1 -7,12.6 -0.2,1 -0.4,1.9 -0.7,2.3 -0.2,0.3 -0.7,1.6 -1.2,3 -0.6,2.2 -0.6,2.6 0.2,4.5 1,2.6 2.8,4.4 5.7,5.8 2.4,1.4 6.9,1.9 7.7,1.1 0.2,-0.2 0.5,-0.3 0.7,-0.4 2.9,-0.2 4.4,-1.1 8.2,-4.6 2.9,-2.7 4.4,-4.7 6.4,-8.2 1.3,-2.4 2.5,-4.6 2.5,-4.7 0,-0.2 0.7,-1.3 1.6,-2.5 1.1,-1.2 1.8,-2.4 1.8,-2.9 0,-0.3 0.4,-0.9 0.9,-1.3 0.6,-0.6 1.1,-1.2 1.1,-1.5 0,-0.2 0.7,-1.4 1.5,-2.9 2.2,-3.2 8.2,-13.3 9.9,-16.8 0.9,-1.4 2.5,-4.2 3.7,-6.1 1.3,-1.9 3.5,-5.9 5.1,-8.9 1.9,-3.3 4.3,-6.8 6.2,-10 0,-0.2 0.5,-1.3 1.5,-2.9 0.9,-1.4 1.9,-3.2 2.4,-3.9 0,-0.8 0.9,-2 1.4,-2.8 0.4,-0.8 1.5,-2.1 2,-2.8 0,-0.6 0.4,-1.9 1.4,-2.6 2.9,-5 5.3,-9.9 8.2,-15.1 2,-3.4 4,-6.3 7,-12.3 0.9,-1.9 1.8,-3.5 2.3,-4 0.6,-0.6 1,-1.1 1,-1.5 6.7,-10.5 12.7,-21.9 18.5,-33 0,-0.3 0.4,-1 0.9,-1.4 0.4,-0.8 2,-4.4 2.9,-6.1 0,-0.6 0,-0.9 -0.5,-1 -0.4,-0.3 -2,-1.1 -3.3,-2.1 -1.6,-0.8 -12.7,-7.5 -14.1,-8.3 z"/>
    <path style="fill:none;" d="m 134.1,315.5 c 1,-2.4 87.8,-147.6 87.8,-147.6"/>
  </g>
  <g>
    <path d="m 433.2,452.8 c 0.5,1.1 3,5.4 3.4,7 0,1.9 -2.4,4.3 -4.9,5.6 -1.5,0.8 -1.9,0.6 -2.9,-0.3 -0.5,-0.6 -1.9,-3.2 -3.4,-5.9 -1,-2.6 -2.4,-5.4 -3.4,-6.1 -0.5,-0.8 -1.5,-2.7 -2.4,-4.3 -2,-3.6 -5.9,-10.3 -6.4,-11.4 -0.4,-0.5 -1.3,-2.1 -2.4,-3.6 -1.4,-3.1 -3.4,-6.8 -4.3,-7.8 0,-0.4 -1.1,-1.8 -1.5,-3 -0.9,-1.2 -1.9,-2.9 -2.5,-3.9 -0.9,-0.9 -2.3,-3.5 -3.4,-5.4 -0.9,-2.3 -2.9,-5.2 -3.8,-6.8 -1,-1.5 -1.5,-3 -1.5,-3.1 0,-0.1 -0.9,-1.1 -1.4,-2.3 -1,-1.1 -2.5,-3.7 -3.4,-5.8 -1.5,-2.1 -3,-5 -3.9,-6.3 -2.4,-4.4 -3.4,-6.1 -9.7,-17.2 -2.5,-4.6 -5.4,-8.7 -5.8,-9.7 -1,-1.5 -1.9,-3.3 -4.4,-7.4 -1.5,-2.8 -2.9,-4.8 -5.4,-9.2 -2.4,-3.7 -3.3,-5.2 -5.3,-9.1 -0.9,-1.6 -1.4,-2.6 -1.9,-2.6 0,0 -0.6,-0.4 -0.6,-0.9 0,-0.5 -1.3,-2.5 -2.4,-4.3 -1,-1.7 -1.9,-3.4 -1.9,-3.6 0,-0.3 -1.5,-2.2 -2.4,-4.4 -1.5,-2 -2.5,-4 -2.5,-4.1 0,-0.2 -0.9,-1.4 -1.9,-2.7 -1,-1.3 -1.4,-2.6 -1.4,-2.7 0,-0.3 -1.9,-3.6 -6.9,-11.4 -1.4,-2.5 -3.8,-6.9 -4.3,-7.6 0,-0.5 -1,-1.6 -1.5,-2.4 -0.4,-0.8 -2,-3 -2.9,-4.9 -2.5,-4.8 -4.9,-9 -6.3,-10 -0.4,-0.5 -0.4,-1.3 -0.4,-1.8 0,-0.3 -0.5,-1.1 -1.1,-1.9 -0.5,-0.6 -1.4,-2 -1.8,-3.1 -0.6,-1.2 -2,-3.6 -3.5,-5.6 -1,-1.9 -2.4,-4.1 -2.9,-5 0,-0.9 -1,-1.9 -1.5,-2.5 -0.4,-0.6 -1,-1.5 -1.4,-2.1 0,-0.6 -1.5,-3.2 -2.9,-5.9 -1.9,-2.8 -2.9,-5.1 -2.9,-5.3 0,-0.1 -1,-1 -1.5,-1.8 -0.4,-0.8 -2.5,-4.2 -4.4,-7.6 -2,-3.2 -4.3,-7 -4.9,-8.1 -2.4,-3.8 -2.9,-4.2 -5.8,-9.7 -1.4,-2.9 -3.4,-6.3 -3.8,-7.6 -1,-1 -1.6,-2.4 -2,-2.8 0,-0.3 -0.9,-1.4 -1.4,-2.6 -0.5,-1.1 -2,-3.3 -2.4,-4.7 -1,-1.8 -2,-3.4 -2.5,-3.8 -0.4,-0.5 -0.4,-1 -0.4,-1.1 0,-0.3 -0.5,-0.9 -1.1,-1.7 -0.5,-0.7 -1.9,-3 -2.9,-5.2 -1.4,-2.1 -2.4,-4.2 -2.9,-4.6 l -4.3,-7.6 -28.1,-45.9 c -2.1,-3.5 -4.1,-7 -6,-10.3 -1.9,-3.2 -1.9,-4.2 -1.9,-5.7 0.9,-3.1 7.9,-3.8 8.3,-3 0,0.4 1.4,1.3 1.8,2.8 1.6,2.2 2.9,5.1 4,5.7 0.5,0.5 2.9,4.7 2.9,5.5 16.5,31 35,59.5 52.4,90.1 l 38.4,65.6 c 1.9,2.8 4.4,7 5.9,9.6 1.4,2.5 2.9,4.7 2.9,5 0,0.2 0.4,0.9 1,1.7 0.4,0.8 1.4,1.9 1.9,2.8 1,2.2 5.8,10.1 6.2,11 0.5,0.3 1,1.6 1.6,2.8 0.5,1 0.9,2 1.4,2 0,0 1.5,2 4.4,7.5 0.9,1.9 1.8,3.7 2.5,4.3 0.4,0.3 0.9,0.8 0.9,1 0,0.2 0.9,1.9 2,3.7 0.9,1.8 2.9,4.7 3.8,6.4 0.5,1.7 2,4.3 3.4,5.7 1,1.5 2.4,4.2 3.3,5.9 0.6,1.7 2,4.2 2.9,5.6 1,1.3 2,2.6 2,2.8 0,0.1 0.5,1.8 2,3.5 1,1.8 2,3.5 2,4 0.4,0.5 1.4,2 2.3,3.5 1,1.4 2.9,4.8 4.4,7.6 1.5,2.7 3.5,5.9 3.9,6.9 0.6,0.9 1.5,2.6 1.9,3.5 0.5,0.9 1.6,2.8 2.5,4.2 0.9,1.4 2,2.7 2,2.9 0,0.1 0.4,1.3 1.3,2.6 1.1,1.2 2,2.9 2.5,3.8 0,0.9 0.9,2.2 1.5,2.9 1,1.2 3,4.2 4.8,7.3 0,0.7 1.5,3 2.9,5.2 1.1,1.9 2.4,4.8 3.4,6.3 1.5,2.3 2.9,5.1 6.9,11.7 4.8,8 12.1,20 12.1,21.2 z"/>
    <path style="fill:none;" d="m 231.2,112.5 202,345.4 z"/>
  </g>
  <g style="fill:#b3b3b3;">
    <path d="m 195.9,189.7 c -0.7,1.2 -0.7,3 0.3,3.8 l 2.5,1.7 c 1.4,1 3.3,1.5 5,-1.3 l 32.2,-56.3 c 0.8,-0.9 1.3,-2.4 2.2,-3 1,-0.6 2.3,-0.6 3.4,-0.7 1.7,-0.1 3.4,0.1 4.9,0.2 l 2.4,4.1 c 0.7,-1.4 2.7,-4.2 1.8,-5.8 l -3.3,-5.7 c -0.9,-1.4 -3.9,-1 -5.6,-1.1 -2.3,-1.1 -6.5,-0.3 -9.3,1.4 -1.8,1.4 -3.1,3.4 -4.1,5.4 z"/>
    <path id="path1" d="m 243.8,156 -3.4,-6 c -0.7,-1.4 0.5,-3 1.5,-4.6 l 1.6,2.5 8.2,-4.5 c 1.1,-0.5 2.9,-1.1 3.5,-0.1 l 3.2,4.9 c 0.6,1.3 0.2,3.5 -1,5.1 l -1.4,-2.4 -7.8,4.6 c -1.6,0.8 -3.6,1.7 -4.4,0.5 z"/>
    <use xlink:href="#path1" transform="translate(7.526,12.26)"/>
    <path id="path2" d="m 196.6,172.7 c -1.1,-0.7 -3.6,-0.8 -4.3,0.4 l -1.8,3 c -0.5,1 0.6,3.5 1.8,4.2 l 22.3,13.2 c 1.2,0.7 3.1,0.6 3.8,-0.7 l 1.9,-3.3 c 0.7,-1.4 0.3,-3.7 -1.1,-4.5 z"/>
    <use xlink:href="#path2" transform="translate(7.73,-13.28)"/>
  </g>
</g>
<use id="shine" xlink:href="#shield" style="fill:url(#rg);stroke:#000000;stroke-width:3;"/>
</svg>
