<?xml version="1.0" encoding="UTF-8"?>
<svg xmlns="http://www.w3.org/2000/svg" xmlns:xlink="http://www.w3.org/1999/xlink" width="600" height="600">
<defs>
  <radialGradient id="rg" gradientUnits="userSpaceOnUse" cx="220" cy="220" r="405">
    <stop style="stop-color:#fff;stop-opacity:.3" offset="0"/>
    <stop style="stop-color:#fff;stop-opacity:.2" offset=".2"/>
    <stop style="stop-color:#666;stop-opacity:.1" offset=".6"/>
    <stop style="stop-color:#000;stop-opacity:.13" offset="1"/>
  </radialGradient>
  <clipPath id="clip-shield">
    <circle id="shield" cx="300" cy="300" r="298"/>
  </clipPath>
</defs>
<use id="background" xlink:href="#shield" fill="#a0a"/>
<use xlink:href="#lemon" x="-120" y="-208"/>
<use xlink:href="#lemon" y="-208"/>
<use xlink:href="#lemon" x="120" y="-208"/>

<use xlink:href="#lemon" x="-180" y="-104"/>
<use xlink:href="#lemon" x="-60" y="-104"/>
<use xlink:href="#lemon" x="60" y="-104"/>
<use xlink:href="#lemon" x="180" y="-104"/>

<use xlink:href="#lemon" x="-240"/>
<use xlink:href="#lemon" x="-120"/>
<g id="lemon">
  <path fill="#080" d="m 316.16971,270.23738 c 9.64173,-1.86473 12.80132,11.76804 12.80132,11.76804 0,0 -3.83513,5.12885 -8.0603,5.3976 -14.94954,0.9528 -22.68371,-20.65515 -22.68371,-20.65515 0,0 8.42727,5.33188 17.94269,3.48951 z"/>
  <path fill="#941" d="m 338.38033,279.60424 c 0.4788,0.0546 0.19612,1.89721 -0.28542,1.88657 -8.07,-0.16618 -12.58815,4.83435 -13.09095,5.83519 -0.7048,1.40275 -2.50062,-0.70571 -1.33955,-2.30888 0.24049,-0.33295 6.42203,-6.34022 14.71592,-5.41288 z"/>
  <path fill="#080" d="m 265.20786,325.95366 c -0.40232,0.25776 -2.00722,0.29494 -2.53523,-0.5916 -0.52318,-0.8854 0.22578,-2.36179 0.6266,-2.61863 0.4026,-0.25895 1.15458,0.25125 1.68138,1.13751 0.52651,0.88747 0.62744,1.81319 0.22725,2.07272 z"/>
  <path fill="#fe0" d="m 325.17166,290.72851 c 0.81766,-0.69458 0.50249,-2.8696 -0.75767,-4.99157 -1.26378,-2.12282 -2.99039,-3.38694 -3.9553,-2.94244 -8.57324,-8.9611 -24.76655,-9.55828 -38.58788,-0.68698 -12.35135,7.92837 -19.04177,21.00352 -17.57421,32.25046 -2.56561,2.06986 -2.89357,6.56154 -0.62225,10.38229 2.27201,3.82858 6.28988,5.5362 9.22073,4.06602 9.01546,6.38423 23.24094,6.01567 35.58008,-1.90412 13.82281,-8.87222 20.56228,-24.18662 16.6965,-36.17366 z"/>
  <path fill="#7c0" d="m 324.34601,286.76286 c 2.95636,-4.64997 11.08129,-5.7994 11.08129,-5.7994 0,0 13.19451,12.17942 5.05263,22.00718 -8.0386,9.69805 -7.40252,22.6681 -7.40252,22.6681 0,0 -19.19918,-22.41992 -8.7314,-38.87588 z"/>
  <path fill="#080" d="m 335.42758,280.96225 c 0.75438,1.65339 1.3014,3.45649 1.6564,5.33902 0.31545,1.89358 0.37137,3.87739 0.19042,5.84471 -0.36958,3.9672 -1.75177,7.66449 -2.88854,11.27202 -1.19305,3.60315 -2.10593,7.27124 -2.32965,11.0309 -0.2394,3.75595 0.23671,7.52434 1.0212,11.18984 -0.64818,-1.72001 -1.12775,-3.539 -1.50116,-5.40297 -0.32484,-1.87541 -0.5019,-3.81016 -0.49289,-5.77225 -0.002,-3.93025 0.94359,-7.84533 2.12541,-11.50335 1.19227,-3.66447 2.54406,-7.20081 3.10936,-10.91284 0.58307,-3.71166 0.13929,-7.51445 -0.89055,-11.08508 z"/>
</g>
<use xlink:href="#lemon" x="120"/>
<use xlink:href="#lemon" x="240"/>

<use xlink:href="#lemon" x="-180" y="104"/>
<use xlink:href="#lemon" x="-60" y="104"/>
<use xlink:href="#lemon" x="60" y="104"/>
<use xlink:href="#lemon" x="180" y="104"/>

<use xlink:href="#lemon" x="-120" y="208"/>
<use xlink:href="#lemon" y="208"/>
<use xlink:href="#lemon" x="120" y="208"/>
<use id="shine" xlink:href="#shield" fill="url(#rg)" stroke="#000" stroke-width="3"/>
</svg>
