<svg xmlns="http://www.w3.org/2000/svg" width="600" height="600" xmlns:xlink="http://www.w3.org/1999/xlink">
<defs>
  <radialGradient id="rg" gradientUnits="userSpaceOnUse" cx="220" cy="220" r="405">
    <stop style="stop-color:#fff;stop-opacity:.3" offset="0" />
    <stop style="stop-color:#fff;stop-opacity:.2" offset="0.2" />
    <stop style="stop-color:#666;stop-opacity:.1" offset="0.6" />
    <stop style="stop-color:#000;stop-opacity:.13" offset="1" />
  </radialGradient>
  <circle id="shield" r="298" cx="300" cy="300"/>
</defs>
<use id="background" xlink:href="#shield"  fill="#ffffff" />
<path style="fill:#0000cc" d="m 300,2 a 298,298 0 0 0 -298,298 298,298 0 0 0 87.41,210.6 l 421.19,-421.19 a 298,298 0 0 0 -210.6,-87.41 z" />
<g style="fill:#0000cc;stroke:#0000cc;stroke-width:1;">
  <g>
    <path style="fill:#ffdd00;stroke:none;" d="m 363.5,337.6 c -2.9,6 -7.2,11.8 -18.2,16.7 -0.4,0.3 -0.8,0.5 -1.1,0.7 -0.1,0 -0.1,0 -0.2,0.1 0,0 -0.1,0 0,0 -0.1,0 -0.1,0.1 -0.2,0.1 -7.3,5 -17.9,7.8 -27.7,11.9 0,0.1 0,0.1 0,0.1 -0.3,0.1 -0.5,0.2 -0.8,0.3 -2,0.9 -4,1.9 -6,3 -1.1,0.6 -2.1,1.2 -3.2,1.9 -2.2,1.4 -4.2,3 -6.1,4.8 -3.1,3.2 -6.5,7.3 -6.3,11.8 0.1,1.6 0.3,2.6 2,3.8 -3.3,1.7 -3.7,3.9 -4.8,7.4 -1.3,4 -0.4,10 -0.8,14.2 -0.6,8.3 -1.1,16.9 -4.5,24.3 -0.3,0.6 -0.6,1.2 -1,1.8 -0.2,0.3 -0.4,0.6 -0.6,0.8 -1,1.5 -2.3,2.8 -3.6,3.8 -0.4,0.3 -0.9,0.7 -1.5,1.1 -0.6,0.4 -1.3,0.8 -2,1.3 -4.3,2.7 -10.6,6 -14.1,7.7 -0.7,0.3 -1.3,0.6 -1.9,0.7 -1.8,0.2 -3.3,-0.8 -4.3,-4.7 -2.8,-11.3 -9.6,-10.5 -13.4,-7.8 -8.5,-6.4 -14.5,3.2 -11.7,7.1 -11.9,5.5 -4.7,18 0.8,16.8 -8.5,10.1 4.5,19.6 12,14.6 7.9,6.2 14,3.2 20.3,1.3 -0.1,1.6 -0.2,3.3 1.8,4 6.3,-1.8 9.7,-5.7 12.8,-9.7 0.4,1.7 0.8,3.1 1.9,3.8 5.9,-1.6 9.1,-4.4 13,-10.3 1.1,1.5 2.1,2.1 3.2,2.1 4.5,-2.3 6.4,-5.5 11.6,-9.3 1.8,-1.2 4,-1.4 5.4,-3.1 0.4,-0.4 0.6,-0.9 0.8,-1.5 0.4,-1.4 -0.1,-3 0.2,-4.9 0.7,-4.3 1,-8.9 2.3,-13 0.1,-0.3 0.2,-0.6 0.4,-0.9 0.3,-1.1 0.8,-2 1.3,-2.9 2,-3.5 5.2,-6.2 8.6,-8.1 1.2,-0.7 2.6,-1.3 3.9,-1.8 0.6,-0.2 1.2,-0.4 1.8,-0.5 0.8,-0.2 1.6,-0.4 2.4,-0.6 1,-0.3 1.9,-0.5 2.8,-0.6 0.1,0 0.1,0 0.2,0 2.9,-0.5 5.9,-0.8 8.8,-1.4 0.6,-0.2 1.2,-0.3 1.8,-0.5 -0.3,0.1 0.4,0 1,-0.2 9.7,-5.5 18,-18.3 18.7,-24.7 z" />
    <path style="fill:#40310f;stroke:none;" d="m 363.5,337.6 c -0.5,1 -1,2 -1.6,3 0.7,-0.4 1.2,-0.8 1.7,-1.2 z m 0.9,9.8 -4.3,3.6 c -9,7.7 -10.2,10.4 -4.3,9.4 2.4,-0.5 6.4,-1.8 9.5,-3.2 z m -32.7,13.7 c -2.3,1 -4.8,1.9 -7.2,2.7 -0.4,0.3 -0.8,0.4 -1.2,0.6 -2.8,1 -5.6,2.1 -8.3,3.3 -0.3,0.7 -0.4,1.2 -0.2,1.7 0.5,1 0.9,1.1 1.5,0.3 0.5,-0.5 1.6,-0.8 2.4,-0.5 0.9,0.2 2,-0.1 2.5,-0.7 0.5,-0.5 1.5,-1 2.1,-0.9 0.6,0.3 2.7,-0.7 4.7,-2 2.8,-1.8 3.7,-2.8 3.7,-4.3 0,-0.1 0,-0.1 0,-0.2 z m 13.9,0.2 c -0.2,0 -0.5,0.2 -0.9,0.5 -0.4,0.7 -1.4,0.7 -2.1,0.1 -1.8,-1.3 -9.3,2.7 -11.4,6.2 l -1.6,2.7 2.9,1.2 c 3.5,1.4 3.2,2.8 -1,4.2 -2.5,0.8 -3.6,0.6 -5,-0.7 -1.9,-1.7 -6.2,-1.3 -7.1,0.8 -0.3,0.5 -1.5,1.9 -2.8,2.9 -2.9,2.2 -3.5,5.4 -1.2,6.3 0.9,0.3 2,0.3 2.4,0.1 0.4,-0.3 0.9,0 1,0.3 0.2,0.3 2.8,-0.1 5.8,-1 4.8,-1.5 5.9,-2.1 8.8,-5 1.9,-1.9 3.2,-3.7 2.9,-4.4 -0.3,-0.7 0.5,-1.5 2.8,-2.7 3.8,-1.9 8,-7.4 6.7,-8.6 -0.4,-0.5 -0.6,-1.2 -0.3,-1.6 0.4,-0.7 0.4,-1.2 0.3,-1.3 -0.1,0 -0.1,0 -0.2,0 z m 8.7,6.6 c -2.6,0 -4.8,1.3 -6.4,3.7 -0.7,1.2 -2,2.4 -2.8,2.9 -0.7,0.4 -1.5,1.9 -1.8,3.3 -0.4,2.4 -0.4,2.4 2.3,1.6 1.5,-0.4 3.1,-0.4 3.5,0.2 0.7,0.5 2.2,0.2 5,-1.3 3.4,-1.7 4.2,-2.5 5.2,-5.2 0.6,-1.8 1.1,-3.2 1,-3.5 -0.1,-0.1 -1.6,-0.7 -3.4,-1.2 -0.9,-0.3 -1.8,-0.5 -2.6,-0.5 z m -43.8,2.9 c -0.8,0 -1.8,0.4 -3.2,0.9 -2.6,1.6 -5,3.4 -7.1,5.5 -1.5,1.6 -3.1,3.3 -4.3,5.2 1.9,-0.3 2.3,0.2 1.7,2.1 -0.3,1 -0.1,1.4 1,1.9 1.1,0.5 2.7,-0.1 8.1,-3.3 7.1,-4.1 8.1,-4.9 5.9,-5.1 -1,-0.1 -1.2,-0.7 -0.7,-3 0.4,-1.8 0.5,-2.9 0.2,-3.6 -0.3,-0.5 -0.8,-0.7 -1.6,-0.6 z m 56.1,0.4 c -3.1,1.2 -6,3.2 -7.4,5.4 -1.7,3 -1.1,6.2 1,5.2 1,-0.6 1.1,-0.1 0.4,2.2 -0.8,2.6 -0.8,2.7 -3,2 -2.9,-1 -7.8,0.4 -7.7,2.2 0.1,0.7 -0.9,2.2 -2,3.2 -1.2,0.9 -2.5,2.4 -2.8,3.2 -0.4,0.9 -1.3,2 -2,2.6 -0.8,0.6 -1.1,1.7 -0.7,2.8 0.5,1.7 0.7,1.7 2.2,0.3 1.3,-1 2.2,-1.3 3.4,-0.6 2.2,1.2 8.1,-2.9 9.8,-6.9 0.7,-1.7 1.8,-3.2 2.5,-3.6 0.7,-0.4 1.4,-1.2 1.7,-2 0.2,-0.7 2.4,-2.4 4.9,-3.7 0.3,-0.2 0.6,-0.4 0.9,-0.6 z m -25.4,10.4 c -0.5,-0.2 -1.6,0.4 -3.7,1.4 -5,2.6 -8.7,5.9 -9.4,8.8 -0.6,2 -0.5,2.2 1.8,2.6 l 2.4,0.5 -1.7,1.9 c -1.4,1.6 -1.4,1.9 -0.1,2.6 1.3,0.6 2.4,0.1 7.3,-2.9 3.3,-2 6.6,-4.6 7.4,-5.8 1.1,-1.3 1.2,-3 0.7,-4 -0.4,-0.7 -1.2,-1.1 -2.3,-0.9 -1,0.2 -1.7,-0.1 -1.7,-0.9 0,-0.7 -0.1,-1.9 -0.2,-2.6 0,-0.4 -0.1,-0.7 -0.5,-0.7 z m 26.9,5.5 c -0.8,0.5 -1.1,1 -0.6,1.5 0.2,0.1 0.6,0.4 0.9,0.6 z m -66.1,3.3 c -1.8,0 -4.2,1 -6.3,2.3 0.1,0.1 0.1,0.1 0.2,0.2 -3.4,1.6 -3.7,3.8 -4.9,7.3 -0.7,2.3 -0.7,5.4 -0.6,8.2 2.8,-2.1 5.4,-5.1 4.9,-6.1 -0.2,-0.3 -1.1,-0.8 -2.1,-1 -1.5,-0.4 -1,-0.8 3.8,-3.1 4.4,-2 5.8,-3.1 6.9,-4.9 l 1.4,-2.5 -2.6,-0.4 c -0.2,0 -0.4,0 -0.7,0 z m 10.5,1.2 c -1.2,0.1 -3,0.7 -5.5,2.1 -3.6,1.9 -6.3,4.9 -5.6,6.3 0.2,0.4 1.9,1.1 3.8,1.3 2.6,0.3 4,-0.1 5.8,-1.4 l 2.4,-1.7 -2,2.2 c -1.1,1.3 -1.9,3.2 -1.8,4.2 0.1,1.1 -0.3,2.2 -0.9,2.6 -0.6,0.2 -1.5,0.9 -2.1,1.5 -0.7,0.9 -1,0.9 -0.9,0.2 0.1,-1.6 -3.8,-3.9 -6.1,-3.7 -1.4,0.1 -2.7,0.9 -4.1,2.6 -1.2,1.4 -3.4,3.1 -5.1,3.9 0,0.9 0,1.9 -0.1,2.7 0,0.1 0,0.2 0,0.5 0.6,-0.1 1.4,-0.1 1.9,0.1 0.8,0.4 2,0.4 2.7,0.1 0.7,-0.3 2,-0.3 2.8,0.1 1.6,0.7 6,-1.5 7,-3.6 0.4,-0.9 1.1,-1 2.1,-0.3 1.4,0.7 2,0.5 5.5,-2.1 4.3,-3.3 7.9,-7 8.8,-9.2 0.4,-0.8 0.4,-1.8 0.1,-2.5 -0.3,-0.7 -0.8,-1 -1.5,-0.7 -0.5,0.2 -1.1,0.1 -1.3,-0.3 -0.2,-0.4 -1.4,-0.2 -2.7,0.4 -2.2,1 -2.2,1 -1,-0.4 0.8,-0.9 0.9,-2.1 0.4,-3.4 -0.6,-1.1 -1.3,-1.5 -2.6,-1.5 z m 54.7,3.4 c -2.2,0.2 -6.1,2.4 -8.3,5.2 -1.5,1.8 -2.5,3.6 -2.3,3.9 0.4,0.9 2.5,0.7 4.4,-0.2 1.4,-0.7 4.9,-0.8 6.1,-0.1 0.1,0 0.4,0 0.8,0 0.7,-1.8 1.2,-3.5 1.4,-4.7 l -0.3,-2.9 c -0.1,-0.1 -0.2,-0.3 -0.3,-0.5 -0.2,-0.4 -0.8,-0.7 -1.5,-0.7 z m -36.3,7.2 c -3.1,0.4 -14.4,7.4 -16.4,10.1 l -1.6,2.2 h 2.6 c 1.5,-0.1 3.3,-0.7 4.2,-1.3 0.8,-0.8 2.5,-1.2 3.8,-1 2.2,0.2 2.4,0.4 1.8,2.3 -0.5,1.9 -0.4,1.9 1.9,1.4 2.8,-0.7 5.2,-4.3 4.3,-6.4 -0.4,-0.8 -0.1,-2.3 0.6,-3.5 0.9,-1.5 1.1,-2.4 0.7,-3.1 -0.2,-0.3 -0.7,-0.5 -1.4,-0.7 -0.2,0 -0.3,0 -0.5,0 z m 21.9,2.2 c -0.2,0 -0.3,0 -0.5,0.1 -0.6,0.3 -3.5,0.5 -6.5,0.5 -3.8,0 -5.3,0.3 -5.2,1 0.1,0.6 -0.1,1.6 -0.5,2.2 -0.4,0.7 -0.3,1.9 0.1,3 0.7,1.3 1.4,1.6 3.4,1 1.4,-0.3 3.7,-0.6 5,-0.5 1.8,0 2.8,-0.5 4.7,-2.3 1.3,-1.3 2.6,-2.3 2.9,-2.3 0.1,-0.1 0.1,-0.1 0.1,-0.3 -0.1,-0.3 -0.6,-0.8 -1.2,-1.3 -0.7,-0.7 -1.6,-1.1 -2.3,-1.1 z m 13.9,1.9 c -0.2,0.1 -0.4,0.3 -0.5,0.5 -0.3,0.8 -1.4,1.2 -3,1.4 -2.7,0.2 -5.2,2 -6.3,4.6 -0.5,1 -0.2,2.3 0.9,4.1 0.2,0.3 0.3,0.6 0.5,0.8 3.5,-3.5 6.4,-7.6 8.4,-11.4 z m -47.4,9.9 c -2.4,-0.1 -3.6,0.5 -6.7,2.6 -2.8,1.8 -3.9,3 -3.6,3.8 0.3,0.5 -0.1,1.2 -0.8,1.6 -0.6,0.5 -2.2,1.4 -3.4,2.1 -1.3,0.9 -2.6,1.3 -3,1.1 -0.3,-0.3 -0.3,-0.6 0.1,-0.8 1.1,-0.7 2.5,-4.5 2,-5.5 -0.6,-1.3 -3.6,0.2 -6.9,3.3 -3.5,3.2 -3.8,6.5 -0.5,4.8 1,-0.5 2,-0.5 2.2,-0.1 0.2,0.4 0.1,0.8 -0.2,1 -0.3,0.1 -0.9,0.9 -1.3,1.5 -0.6,1.1 -0.3,1.4 1.8,1.9 4.7,1.3 6.9,1 12,-1.8 6.1,-3.4 8,-5.1 6.7,-6.3 -0.7,-0.7 -0.2,-1.3 1.9,-2.3 1.6,-0.9 3.3,-2.3 3.9,-3.5 0.6,-1.2 0.9,-1.9 0.7,-2.4 -0.3,-0.5 -1.5,-0.8 -3.8,-1 -0.4,0 -0.8,0 -1.1,0 z m -25.5,1.1 c -1.2,0.2 -2.7,0.6 -3.8,1.2 -0.2,1.8 -0.3,3.5 -0.5,5.2 0.2,0.1 0.5,0.1 0.8,0.1 1.8,0.1 2.6,-0.3 4.3,-2.4 1.1,-1.4 1.9,-2.9 1.7,-3.3 -0.3,-0.7 -1.3,-0.9 -2.5,-0.8 z m 48.3,0.4 c -3.2,-0.1 -7.5,0.5 -10.6,1.8 -4.5,1.9 -5,2.2 -4.7,3.7 0.2,1.1 -0.3,2 -1.5,2.6 -1.1,0.5 -1.8,1.4 -1.6,1.8 0.2,0.4 -0.3,1.5 -1.1,2.3 -0.8,1 -1.3,2 -1.1,2.3 0.1,0.5 0.6,0.7 1.3,1 1.5,-1.5 3.3,-2.7 5.1,-3.8 2.7,-1.6 5.8,-2.4 8.8,-3.1 1.6,-0.3 3.1,-0.5 4.7,-0.8 0.4,0 0.8,-0.1 1.2,-0.1 0.6,-0.1 1.2,-0.2 1.8,-0.3 0.6,-0.1 1.1,-0.2 1.6,-0.2 -1,-0.7 -3.9,-0.8 -7.5,-0.1 -2.8,0.5 -2.8,0.5 -0.4,-0.2 1.4,-0.6 3.9,-1.8 5.5,-3.1 1.9,-1.3 2.8,-2.4 2.5,-2.8 -0.6,-0.7 -2.1,-1 -4,-1 z m -49.3,14.7 c -0.5,0.1 -1.1,0.3 -1.8,0.6 -1.5,0.7 -2.2,1.6 -1.9,2.2 0.2,0.5 -0.6,1.6 -2,2.4 -0.5,0.3 -0.8,0.4 -1.1,0.6 -0.1,0.2 -0.2,0.3 -0.3,0.5 -1.1,2.5 -3,4.7 -5.1,6.4 -1.1,0.9 -2.9,2 -4.9,3.3 2.9,-1.5 5.4,-2.2 7.1,-2.2 3.7,0.1 13.6,-4.7 14.6,-7 0.5,-1.3 0.5,-2.4 -0.3,-3.7 -0.4,-0.7 -1.1,-1.5 -2,-2.2 -0.8,-0.7 -1.5,-1.1 -2.3,-0.9 z m 22.9,6.1 c -2.5,0.1 -3.1,0.6 -3.9,2 -0.6,1.1 -1.9,2.5 -2.9,3 l -1.8,1 3,0.8 2.9,0.8 -2.2,1.1 c -1.8,1 -3.7,4.2 -2.5,4.4 0.2,0.1 1.6,0.4 3,0.7 1.5,0.3 2.5,0.3 4.4,-0.6 0.6,-4.5 1.1,-9.1 3,-13 -1.2,-0.1 -2.2,-0.2 -3,-0.2 z m -10.1,0.8 c -2.7,0.2 -7.2,2.6 -6.6,4 0.5,1.2 5.4,2.7 6.1,1.9 0.2,-0.3 1,-1.4 1.8,-2.5 0.8,-1 1.1,-1.6 0.9,-2.1 -0.1,-0.3 -0.4,-0.6 -0.8,-0.9 -0.3,-0.3 -0.8,-0.4 -1.4,-0.4 z m -3.2,10.7 c -1.2,0 -3.1,0.3 -5.9,0.8 -3,0.5 -3.6,0.8 -5,3.1 l -1.6,2.5 2.7,0.7 2.7,0.6 -2.4,1.8 c -3.1,2.5 -3.2,3.7 -0.2,4.6 2.1,0.6 3.1,0.2 9,-3.2 4.4,-2.5 6.6,-4.2 6.7,-5.1 0.1,-0.7 0.1,-1.3 0,-1.6 -0.2,-0.7 -0.7,-0.9 -1.6,-0.8 -0.9,0 -1.4,-0.5 -1.7,-1.8 -0.2,-1.2 -0.6,-1.7 -2.7,-1.6 z m -15.4,1.3 c -1.4,0 -3.7,0.4 -6.6,1.3 -7.5,2.3 -12.7,5 -12.9,6.7 0,0.8 -1,2 -2,2.9 -1.1,0.8 -2.9,2.3 -4.1,3.2 -2.4,1.9 -2.4,2.7 0.2,3.3 6.7,1.8 16.3,-3.7 14.2,-8.1 -0.3,-0.8 0,-1.1 1.1,-1.1 1.8,0 9.7,-4 11.2,-5.5 0.8,-1 0.9,-1.6 0.6,-2 -0.2,-0.5 -0.8,-0.6 -1.7,-0.7 z m 28.1,7.8 c -0.1,0 -0.2,0 -0.2,0.1 -7.3,2.7 -8.3,3.3 -8.8,4.9 -0.4,1 -0.4,1.7 0,1.9 0.8,-0.8 1.8,-1.5 2.8,-2.2 1.8,-1.2 4,-1.4 5.4,-3.1 0.4,-0.5 0.6,-1 0.8,-1.6 z m -35.3,6.6 c -0.4,0 -0.8,0.1 -1.2,0.2 -3.3,0.6 -10.8,5 -12.1,7.1 -0.5,1 -0.1,1.2 1.9,1.3 l 2.5,0.1 -1.1,2.2 c -1,2.1 -0.9,2.4 0.5,2.9 1.5,0.5 4.8,0 8.4,-1.3 0.2,-0.2 0.4,-0.5 0.5,-0.7 0.1,0 0.1,0.1 0.1,0.1 0,0 0.1,-0.1 0.1,-0.1 0,0.1 0.1,0.3 0.1,0.4 1.8,-0.6 3.6,-1.5 5.4,-2.4 2.7,-1.5 5.1,-3.1 5.4,-3.4 0,-0.1 0,-0.2 -0.1,-0.3 -0.4,-0.9 -3.5,-1.9 -4.5,-1.5 -1.1,0.6 -1.6,-0.7 -0.7,-1.7 1.3,-1.3 -2.1,-2.9 -5.2,-2.9 z m 23.9,1.8 -6.3,3.6 c -0.7,0.5 -1.3,0.9 -1.9,1.2 0.6,0.5 1.2,0.7 1.8,0.8 2.8,-1.4 4.6,-3.2 6.8,-5.3 z" />
    <path style="stroke:none;" d="m 246.8,452.5 c -0.4,-0.8 -0.6,-1.8 -0.8,-2.8 -0.5,-2 -1.1,-4.2 -3.4,-6 l 0.6,-0.9 c 1.3,1 2.1,2.1 2.7,3.3 0.5,1.2 0.8,2.3 1.1,3.4 0.2,1 0.4,2 0.7,2.6 0.3,0.6 0.6,0.9 1.1,1.6 -1,0.3 -1.6,-0.3 -2,-1.2 z m -5,5.5 c -1.3,-2.1 -2.6,-5.2 -4.4,-6.2 -1.8,-1.1 -3.2,-1.7 -6,-0.8 l -0.3,-1 c 1.1,-0.4 2.1,-0.5 3,-0.4 1.4,0 2.6,0.5 3.8,1.2 2.3,1.4 3.5,4.7 4.8,6.7 1.2,1.9 2.7,2.5 2.7,2.5 0,0 -2.1,0.3 -3.6,-2 z m -5.8,8 c -2.1,0.2 -3.7,1.9 -3.7,1.9 l -0.7,-0.7 c 0,0 1.7,-1.9 4.3,-2.2 0.5,0 1,-0.1 1.5,-0.1 3.3,0.1 6,1.5 7.5,5 -2.5,-3.2 -5.1,-4.2 -8.9,-3.9 z" />
    <path style="fill:none;" d="m 327.8,429.3 c -3.3,2 -6.5,4.7 -8.5,8.1 -2.8,5 -3.1,11.1 -4,16.8 -0.3,2.5 0.6,4.5 -1.1,6.5 -1.4,1.6 -3.6,1.9 -5.4,3 -5.2,3.7 -6.9,7.1 -11.5,9.4 -1.1,0 -2.1,-0.6 -3.2,-2.1 -3.9,6 -7.1,8.7 -13,10.3 -1.1,-0.6 -1.5,-2.2 -1.9,-3.9 -3.1,4.1 -6.5,8 -12.8,9.8 -2,-0.7 -1.9,-2.4 -1.9,-4 -6.2,1.9 -12.4,4.9 -20.2,-1.3 -7.5,5.1 -20.5,-4.5 -12,-14.6 -5.5,1.2 -12.7,-11.3 -0.9,-16.8 -2.8,-3.9 3.3,-13.5 11.8,-7.1 3.8,-2.8 10.6,-3.5 13.4,7.7 1.4,5.2 3.5,5.3 6.2,4 4.6,-2.2 14.3,-7.4 17.6,-10 2.1,-1.8 4,-3.9 5.1,-6.5 3.4,-7.3 3.9,-16 4.7,-24.2 0.3,-4.2 -0.7,-10.1 0.7,-14.2 1,-3.5 1.5,-5.7 4.8,-7.3 -1.7,-1.4 -1.9,-2.3 -2,-3.9 -0.3,-4.5 3.2,-8.6 6.3,-11.7 11.8,-11.8 32.2,-14.1 44,-22.3 -0.4,0.3 0.5,-0.2 1.2,-0.8 11,-4.8 15.3,-10.6 18.3,-16.6 l 5.7,61.4 c -0.6,6.4 -8.5,20.2 -19.1,24.9 -6.7,3 -15.5,1.6 -22.3,5.4 z" />
    <path style="fill:#e6e6e6;" d="m 243,437.6 c -0.9,-0.1 -1.7,0 -2.6,0.1 2,1.4 2.9,1.4 3.6,4.5 1.1,0.3 1.6,0.8 3.4,1.2 1.2,-0.1 1.9,-1 2.5,-1.9 -2.2,-2.9 -4.4,-3.8 -6.9,-3.9 z m -11.8,4.4 c -2.8,0.2 -5,1.6 -7.7,3.9 4.2,0.1 5.6,1 7.3,3 1.1,-0.7 1.6,-0.6 3.3,-2.3 0.4,-2.2 0.3,-3.3 0.2,-4.3 -1.2,-0.2 -2.2,-0.3 -3.1,-0.3 z m -5.6,14.2 c -4.1,2.4 -5.3,5.1 -6.3,9.9 3.3,-2.6 5,-2.9 7.4,-2.5 0.5,-1.1 1,-1.4 1.4,-3.8 -1,-2 -1.8,-2.9 -2.5,-3.6 z m 3.9,18.2 c -2.8,4 -2.8,7 -1.7,11.9 1.9,-4 3.2,-5 5.6,-5.7 0,-1.3 0.4,-1.7 -0.3,-4.1 -1.7,-1.3 -2.7,-1.8 -3.6,-2.1 z" />
  </g>
  <g>
    <path style="fill:#ffdd00;stroke:none;" d="m 314.7,228.7 c 0,0 -2.7,-1.4 -4.6,-1.5 -2.8,-0.3 -7.2,0.9 -10.1,0.8 -3.3,-0.2 -6.3,-1.2 -9.5,-2.2 -0.1,0.1 -0.1,0 -0.1,0 -0.1,0 -0.1,0 -0.1,0 -0.5,-0.1 -0.8,-0.2 -1.3,-0.4 0,0 -0.1,0 -0.1,0 -1.3,-0.4 -2.8,-0.9 -4.3,-1.1 -7,-1.1 -13.7,0.2 -20.5,-0.9 -8.3,-1.4 -16.5,-4.3 -24.5,-6.9 -7.6,-2.5 -14,-7.6 -21.9,-7.2 -5.3,0.3 -8.2,1.6 -12.5,4.7 -1.8,1.3 -8.6,2.9 -11.5,2.8 -5.7,-0.3 -9.4,-3.9 -14.3,-1.4 -3.9,2 -1.7,5.7 -1.7,5.7 -11.4,0.3 -12.9,9.7 -6.5,13 -0.5,0.7 -0.6,1.8 -0.4,2.9 0,0.5 0.1,0.8 0.2,1.2 1.5,4.9 7,10.7 15.7,5.7 1.2,2.2 3.3,3.1 5.7,3.2 0.3,0 0.8,0.1 1.2,0 3.5,-0.3 7,-2.5 8.4,-4.9 0,0 5,-1.3 7.4,-2.3 1.3,-0.5 5.4,-2.1 5.4,-2.1 8.3,-1 17,7.3 24.7,6 -0.9,1.6 -1.4,3 -0.7,4.5 2.8,1 4.5,0.5 6.7,-0.9 -0.1,1.6 -0.4,2.7 0.2,4.2 0.1,0.3 0.3,0.5 0.5,0.8 0.2,0.3 0.4,0.6 0.6,0.9 2.5,0.4 4.3,-0.2 6.2,-1.5 -0.2,1.1 -0.4,1.1 -0.2,3.4 3.6,0.7 4.4,-0.3 6.2,-0.7 -0.6,1.4 -0.5,2.3 0,3.9 3.6,1.7 5.3,0.9 6.9,0 5,5.7 10.8,6.5 16.3,8.7 2.7,7.5 5.7,12.5 9.1,14 z" />
    <path style="fill:#40310f;stroke:none;" d="m 314.7,228.7 c 0,0 0,-0.1 -0.1,-0.1 0,0 -0.3,0.1 -0.3,0.1 l -2.7,-1 c -0.1,-0.2 -0.1,-0.3 -0.2,-0.3 -0.4,-0.1 -0.8,-0.2 -1.3,-0.2 -2.8,-0.3 -7.2,0.9 -10.1,0.8 -0.8,0 -1.7,-0.1 -2.7,-0.3 -4.7,-0.2 -5.4,2 -4.8,4 0.4,1.1 1.4,1.5 3.3,1.4 1.5,-0.1 2.8,0.1 2.9,0.4 0.4,1.2 5.5,1.3 8.2,0.3 2.8,-1.1 3.8,-0.2 3.2,3.5 0,0.5 0,1 0.1,1.4 z m -9.5,10 c -0.1,-0.7 -1.2,-0.8 -3.2,-0.4 -1.7,0.3 -4.2,0.3 -5.5,0.2 -4.2,-0.5 -11.4,3.4 -10.5,5.9 1,2.8 5.5,3 12.1,0.5 4.7,-1.7 5.9,-2.4 6.6,-4.1 0.5,-1 0.5,-1.7 0.5,-2.1 z m -3.1,18.1 c -2.2,1 -4.2,2 -4.5,2.4 -0.1,0.4 -0.7,0.9 -1.5,1.2 -0.7,0.2 -1.3,1.5 -1.4,2.8 -0.1,2 0.1,2.3 2.1,2.9 0.4,0 0.7,0.1 1,0.2 z m -3.6,-4.4 c -0.1,-0.2 -0.2,-0.5 -0.3,-0.8 -0.7,-1.4 -1.6,-1.8 -3.8,-1.8 -9.5,0.3 -11.6,0.5 -13.1,1.1 -0.9,0.4 -1.6,1 -1.4,1.5 0.2,0.5 -0.1,0.8 -0.6,0.7 -2,-0.5 0.9,1.9 3,2.3 3.1,0.8 3.2,1.7 0.4,3.4 -5.1,3.2 -3.5,7.3 2.1,5.2 4,-1.6 13.6,-8 14,-9.4 0,-0.4 0,-1.3 -0.3,-2.2 z m -11.6,-22.8 c -1,-3.1 -3.5,-5.6 -5.8,-4.7 -0.7,0.2 -1.5,0 -1.8,-0.6 0,-0.2 -0.1,-0.3 -0.1,-0.5 -0.1,0 -0.2,0.1 -0.3,0 -1.2,0 -2.5,0.1 -3.6,0.1 -1.2,0 -2.4,0 -3.6,0 -0.1,0 -0.2,-0.1 -0.3,0 -0.6,0.2 -1.3,0.5 -1.9,0.7 -3.7,1.4 -7.6,3.3 -8.9,4.1 -1.9,1.3 -2.1,1.8 -1.2,4.3 1,3.1 2.2,3.6 7.8,4.5 2.6,0.4 4.2,0.1 5.8,-1 2.5,-1.5 2.7,-3.8 0.3,-3.8 -1.9,-0.1 -2.2,-2.1 -0.5,-3.2 5,-3.2 6.2,-3.6 6.9,-1.7 0.6,1.7 -0.3,4.9 -1.5,5.4 -1.3,0.4 0.1,3.2 2,3.9 3.1,1.3 6,0.5 6.9,-1.9 0.7,-1.6 0.5,-3.7 -0.2,-5.6 z m 9.6,39.8 c -2.2,1.5 -4.3,4.3 -3.9,5.5 0.1,0.4 0.7,0.6 1.1,0.7 z m -14.1,-26.3 c -0.4,-0.9 -1.1,-1.6 -2.2,-1.7 -0.9,-0.1 -3.2,0.3 -5.1,1 -2,0.8 -4.5,1.1 -5.8,0.8 -1.8,-0.4 -3.3,-0.1 -6.1,1.4 -3.8,1.8 -8.5,6.8 -8,8.3 0.2,0.6 1.1,1.5 2,2.1 0.6,-0.1 1.1,-0.4 1.8,-0.5 -0.2,0.5 -0.4,0.9 -0.4,1.4 0.6,0.3 1.2,0.5 1.6,0.4 0.9,0.3 1.9,-0.9 2.6,-0.7 0.9,0.2 -0.2,2.3 0.3,2.4 1.1,0.4 1.9,0.5 2.5,0.7 0.2,-0.1 0.2,-0.2 0.3,-0.3 0.2,0.1 0.2,0.2 0.3,0.2 1.9,0.1 1.6,-1 2.4,-1 2.7,-0.2 0.9,-2.2 1.7,-4.3 0.9,-2.4 0.3,-3.5 -1.7,-3.4 -2.1,0.1 -2.6,-1.3 -0.7,-2 0.8,-0.3 2.7,0.2 4.1,1.1 2.3,1.4 3.3,1.4 6.1,0.4 2.1,-0.8 3.7,-2 4.2,-3.1 0.5,-1.1 0.5,-2.3 0.1,-3.2 z m 2.6,30.2 -2.5,-6.5 c -0.1,0.1 -0.2,0.1 -0.3,0.2 0,0 0,0 0,0.1 0.9,2.2 1.8,4.3 2.7,6.2 0,0 0.1,0 0.1,0 z m -30.8,-47.6 c -0.3,-0.7 -1,-1.2 -2.1,-1.7 -2.9,-1.2 -7.7,0.2 -10.1,2.8 -2,2.5 -2.9,2.9 -3.2,2 -0.1,-0.3 -1,-1.2 -1.8,-2 -1.4,-1.2 -2.2,-1.2 -5.4,0.1 -4.1,1.5 -6.3,3.5 -5.8,5.2 0.2,0.6 1.7,1.8 3.4,2.7 2.4,1.4 4.2,1.6 8.6,0.9 6.5,-0.9 14.4,-3.7 14,-4.9 -0.2,-0.5 0.4,-1.5 1.3,-2.3 1.2,-1 1.5,-2 1.1,-2.8 z m -6.4,-6.5 c -1.8,-0.6 -3.6,-1.1 -5.3,-1.8 -0.9,0.1 -1.8,0.4 -3,0.6 -2.7,0.6 -3.9,1.3 -5,2.7 -0.7,1.1 -1.6,1.9 -2,1.7 -1,-0.4 -0.4,0.9 0.6,1.8 1.7,1.2 7.7,0.6 11.5,-1.2 3.5,-1.7 3.8,-2 3.2,-3.8 z m 6.8,20.3 c -0.3,-0.6 -1,-0.9 -1.9,-1 -3.7,-0.5 -8,0.2 -10.3,1.7 -1.6,1 -3.6,1.6 -4.7,1.4 -1.3,-0.2 -3.2,0.5 -4.7,1.4 0.6,0.1 1.2,0.4 1.7,0.5 0.6,0.1 1.1,0.2 1.7,0.3 0.1,0 0.1,0 0.2,0 0,0.1 0.1,0.1 0.2,0 0.5,0.1 0.8,0.2 1.2,0.1 0.3,0 0.6,0 0.9,0 0.2,0 0.4,0 0.6,-0.1 0,0 0,0 0,0 0.1,0.1 0.1,0.1 0.2,0 -0.9,1.6 -1.4,2.9 -0.8,4.6 0.2,0.1 0.3,0 0.4,0.1 0.3,-0.4 0.5,-0.7 0.9,-1.1 1.5,-1.8 2.4,-2.3 3.1,-1.9 0.8,0.3 0.6,1.1 -0.6,2.3 -0.3,0.4 -0.5,0.7 -0.7,1 0.2,0 0.3,0 0.4,0 0.2,0 0.4,-0.1 0.5,-0.1 0.1,-0.1 0.2,-0.1 0.2,-0.1 0.1,-0.1 0.2,-0.1 0.2,-0.1 0.8,-0.2 1.4,-0.6 2.2,-1.1 0,0 0.1,0.1 0.1,0.1 0,0 0,0 0,0 0,2 -0.6,3.3 1.4,5.7 0,0.1 0.1,0.1 0.3,0.2 0.1,0 0.3,0 0.4,0 0.6,0 1.2,0 1.8,-0.1 1.2,-0.8 2.4,-1.8 3.4,-3.1 1.3,-1.7 1.5,-2.5 0.5,-4.1 -0.6,-1.1 -0.9,-2.2 -0.5,-2.3 0.4,-0.1 1,-1.1 1.4,-2 0.4,-1 0.5,-1.8 0.3,-2.3 z m -21,-24.9 c 0,-0.2 -0.5,-0.5 -1,-1.1 -1.6,-0.7 -3.3,-1.6 -5,-2.2 -0.6,0.2 -1.3,0.1 -1.5,-0.2 -0.7,-0.8 -7.3,0.7 -6.9,1.7 0.3,1 -3.1,2.4 -4.1,1.7 -1,-0.9 -4.9,0.1 -7.5,1.8 -3.3,2 -2.8,4.2 0.9,4.7 2.7,0.4 2.7,0.6 3.4,3.9 0.6,3.2 0.9,3.6 2.9,3.7 1.2,0.1 4.4,-0.3 7.1,-1 4.3,-1.2 5,-1.6 5.8,-3.5 0.4,-1.4 0.4,-2.2 -0.2,-2.4 -0.6,-0.1 -1.2,-0.6 -1.4,-1.1 -0.3,-0.8 0.6,-1.4 3.1,-2 2.4,-0.6 3.5,-1.2 3.3,-1.8 -0.2,-0.5 0.1,-1.1 0.8,-1.3 0.4,-0.2 0.6,-0.4 0.3,-0.9 z m -10.5,4.6 c 0,0.1 -0.7,0.1 -1.8,-0.1 -1,-0.1 -1.9,-0.7 -2.1,-1.2 -0.1,-0.4 0.6,-0.4 1.7,0.1 1.2,0.4 2.1,1 2.2,1.2 z m -4.2,-10 c -0.3,0 -0.7,0 -1,0 -0.1,0.1 -0.1,0.1 -0.2,0.1 -0.6,0 -1.2,0.1 -1.7,0.1 -0.1,0.1 -0.1,0.1 -0.1,0.1 -1.9,0.1 -3.3,0.6 -4.8,1.1 1.7,0.6 4.7,0 7.8,-1.4 z m 8.1,30.9 c -0.4,-1.3 -1.9,-1.9 -4.2,-1.5 -0.3,0.1 -0.5,0.1 -0.9,0.1 1.8,0.5 3.5,1.2 5.2,2 0,-0.2 0,-0.4 -0.1,-0.6 z m -5.6,-4.7 c -0.6,-1.5 -2.6,-2.7 -4.4,-2 -1,0.4 -3.7,1.2 -5.9,1.7 -3.7,1 -4.1,1.2 -5.6,4.5 -0.3,0.7 -0.6,1.3 -1,1.9 1.7,-0.5 3.6,-1.1 4.8,-1.6 1.4,-0.5 5.5,-2.1 5.5,-2.1 0,0 0.1,0 0.2,0.1 0.5,-0.1 1,-0.2 1.4,-0.1 1,-0.1 1.8,0 2.7,0.1 0.2,0.1 0.3,0.1 0.4,0.1 0,0.1 0.1,0.1 0.2,0.1 0.4,0.1 0.7,0.1 1.2,0.3 0,-0.2 0.1,-0.5 0.3,-0.8 0.5,-0.8 0.5,-1.5 0.2,-2.2 z m -9.3,-5.5 c -0.1,-0.1 -0.1,-0.2 -0.1,-0.3 -0.4,-0.4 -1.9,-1 -3.6,-1.1 -3.6,-0.4 -8.4,2 -9.8,4.9 -5.6,7.9 0.3,2.3 -0.7,4.6 -0.4,1.1 2,0.6 8.9,-2.5 2.3,-0.9 5.5,-4.4 5.3,-5.6 z" />
    <path style="fill:none;" d="m 314.8,228.7 c 0,0 -2.7,-1.4 -4.6,-1.5 -2.8,-0.2 -7.3,1.1 -10.1,0.9 -3.4,-0.1 -6.4,-1.1 -9.6,-2.2 -1.8,-0.6 -3.8,-1.2 -5.9,-1.6 -7.1,-1.1 -13.7,0.3 -20.5,-0.8 -8.4,-1.4 -16.4,-4.3 -24.5,-7 -7.5,-2.5 -14,-7.6 -21.8,-7.2 -5.4,0.3 -8.3,1.6 -12.6,4.8 -1.7,1.2 -8.6,2.8 -11.5,2.7 -5.8,-0.3 -9.3,-3.8 -14.3,-1.3 -3.8,1.9 -1.7,5.7 -1.7,5.7 -11.3,0.2 -12.9,9.6 -6.6,12.9 -2,3.9 4.2,16.6 15.6,9.9 3.3,6 12.9,2.6 15.2,-1.8 0,0 5,-1.2 7.4,-2.3 1.4,-0.5 5.5,-2 5.5,-2 8.3,-1.1 17.1,7.2 24.7,5.9 -0.9,1.7 -1.4,3 -0.7,4.7 2.8,0.9 4.5,0.4 6.7,-1 0,2.1 -0.7,3.3 1.3,5.9 2.6,0.4 4.4,-0.2 6.3,-1.6 -0.3,1.2 -0.5,1.1 -0.4,3.4 3.7,0.7 4.6,-0.1 6.3,-0.7 -0.6,1.5 -0.6,2.4 0.1,4 3.5,1.6 5.2,0.8 6.9,0 5,5.6 10.7,6.6 16.3,8.6 2.7,7.5 5.7,12.6 8.9,14 z" />
    <path style="stroke:none;" d="m 181.4,222.6 c -1.3,-0.3 -2.4,-0.8 -3.9,-1 l 0.1,-1 c 1.6,0.2 2.8,0.8 3.9,1 1.2,0.2 2.2,0.2 3.9,-0.2 -1.5,1.4 -2.8,1.4 -4,1.2 z m 2.2,9 c -2.6,0.6 -6.1,0 -8.4,0.3 -1.5,0.3 -2.4,0.8 -2.9,1.5 -0.6,0.5 -0.7,0.9 -0.7,0.9 l -1,-0.4 c 0,0 0.4,-0.6 1,-1.4 0.7,-0.6 1.8,-1.3 3.4,-1.6 2.7,-0.5 6.1,0.2 8.4,-0.4 1.8,-0.4 4.8,-1.8 4.8,-1.8 0,0 -2.5,2.4 -4.6,2.9 z m 10.2,5.6 c -0.7,1.1 -1.9,1.6 -3,2 -1.1,0.3 -2.2,0.6 -2.9,1.1 -0.9,1 -1.1,1.8 -1.1,2.5 0.1,0.6 0.3,1 0.3,1 l -0.8,0.5 c 0,0 -0.4,-0.6 -0.4,-1.4 -0.1,-1 0.2,-2.2 1.4,-3.3 0.9,-0.8 2.1,-1.2 3.2,-1.5 1.1,-0.3 2,-0.7 2.4,-1.5 1,-1.4 1.3,-2.9 1.3,-2.9 0,0 0.7,1.7 -0.4,3.5 z" />
    <path style="fill:#e6e6e6;" d="m 192,246.7 c -1.5,2.9 -1.7,3.9 -1.1,6.4 -2.6,-2.2 -3.1,-4.1 -3,-8.6 2.8,-0.4 3,-0.3 4.1,2.2 z m -12,-31.2 c 0.6,3 0.6,3.3 -1.8,4.4 -2.8,-1.3 -3.8,-1.4 -6.2,-0.7 2,-3 3.8,-3.5 8,-3.7 z m -5.5,25.4 c 0.1,0.5 0,1.2 -0.1,2.2 -2.7,1.6 -3.3,2.6 -4.1,5 -1.1,-3.4 -0.6,-5.3 1.7,-9.1 1.6,0.7 2.3,1.1 2.5,1.9 z m -4.9,-12.7 c 0.4,0.8 0.1,1.4 -0.9,2.9 -3.1,0.1 -4,0.6 -5.7,2.4 0.4,-3.6 1.7,-4.9 5.3,-7.2 0.7,0.8 1.1,1.4 1.3,1.9 z" />
  </g>
  <g>
    <path style="fill:#ffaa00;" d="m 281,383.4 c 0.9,1.7 -10.8,7.6 -11.6,5.9 l 2,4 c 2.2,4.3 13.8,-1.5 11.7,-5.8 z" />
    <path style="fill:#ffff33;" d="m 282,377.2 3.1,6.2 c 1.1,2.1 -2.9,5.4 -7.6,7.7 -4.5,2.3 -9.5,3.5 -10.6,1.5 l -3.1,-6.3 c 1,2 6.1,0.9 10.6,-1.4 4.6,-2.3 8.6,-5.6 7.6,-7.7 z" />
    <path style="fill:#ffff33;" d="m 282,377.3 c 2.1,4 -16.1,13.2 -18.2,9.1 -2.1,-4.2 16.1,-13.3 18.2,-9.1 z" />
    <path style="fill:#ffaa00;" d="m 163.2,148.6 c 0.9,1.7 -10.8,7.5 -11.6,5.9 l 115.5,230.2 c 0.8,1.6 12.4,-4.2 11.6,-5.8 z" />
    <path style="fill:#ffff33;" d="m 158.6,131.2 c 0.4,0.7 7.1,14.2 8.1,16.2 1.1,2.1 -2.9,5.5 -7.5,7.8 -4.5,2.2 -9.6,3.4 -10.7,1.3 -1,-2 -7.8,-15.5 -8.1,-16.2 1.1,2.1 6.1,0.9 10.6,-1.4 4.6,-2.3 8.7,-5.6 7.6,-7.7 z" />
    <path style="fill:#ffff33;" d="m 141.7,136.9 c -11.2,1.3 -17,-8.1 -23.7,-16.5 -8.8,4.5 24.8,44.7 32.1,33.4 z" />
    <path style="fill:#ffff33;" d="m 158.6,131.2 c 2.1,4.1 -16.1,13.3 -18.2,9.1 -2.1,-4.1 16.1,-13.2 18.2,-9.1 z" />
    <path style="fill:#ffaa00;" d="m 153.2,128.7 c 0.9,1.6 -10.8,7.5 -11.6,5.8 l 2.1,4.1 c 0.8,1.7 12.4,-4.1 11.6,-5.8 z" />
    <path style="fill:#ffaa00;" d="m 153.2,128.7 c 0.9,1.7 -10.8,7.5 -11.6,5.8 -0.8,-1.6 10.8,-7.5 11.6,-5.8 z" />
    <path style="fill:#ffff33;" d="m 185.6,128.1 c -6.6,2.3 -9.4,2.1 -15.6,0 -2,6.3 -6.2,8.4 -11.4,3.2 2.1,4.1 3.1,6.2 2.1,9.2 3.1,1.2 4.2,3.2 6.3,7.4 -1.1,-7.3 3.1,-9.4 9.3,-7.3 2,-6.2 3.5,-8.5 9.3,-12.5 z" />
    <path style="fill:#ffff33;" d="m 160.7,140.5 c 3.4,-2.1 11.7,-6.8 14.8,-5.7 2.7,-2.9 5.5,-4.4 10.1,-6.7" />
    <path style="fill:none;" d="m 170.1,128.2 c 1.4,2.8 3.5,4.7 5.4,6.6 -0.4,1.9 0.3,3.8 0.8,5.7" />
    <path style="fill:#ffff33;" d="m 119.1,122.6 c -42.47,21.1 13.2,82 35.3,70.3 l 0.9,-0.3 c -10,-19.6 -10.5,-20.2 -3.3,-35 l -8.1,-16.3 c -10.4,1.3 -18,-10.5 -24.4,-18.9 z" />
    <path style="fill:#ffff33;" d="m 145.3,132.7 c -5.6,-6.1 -9.2,-9.6 -13.2,-12.6 -2.1,-14.4 -7.5,-26.79 -11.4,-41.95 7.8,10.84 16.4,24.65 27.2,34.05 -0.4,4.1 0.5,11.1 1.6,18.4 -0.9,1.2 -2.6,2 -4.2,2.1 z" />
    <path style="fill:#ffff33;" d="m 147.6,132.1 c -2.4,-5.1 -4.5,-9.5 -9.4,-13.1 -1.2,-11.7 -11,-28.64 -17.6,-40.8" />
    <path style="fill:#ffff66;" d="m 118,120.4 c -47.02,23.6 13.9,88.2 39,75.5 -0.7,-1.3 -1.1,-2.2 -1.7,-3.3 l -0.9,0.3 c -22.1,11.7 -77.75,-49.1 -35.3,-70.3 l 0.4,-0.2 c -0.6,-0.7 -1.1,-1.3 -1.5,-2 z" />
  </g>
  <g>
    <path style="fill:#ffdd00;stroke:none;" d="m 380,153 -70.6,30.8 c -5.9,17.1 -18.5,11.9 -28.3,31.9 -4.5,9.1 -5.8,17.2 -4.3,27.9 -1.1,1.4 -2.3,3.1 -3.3,5 -3.4,6.4 -4.5,13.3 -7.8,19.5 -4.1,7.6 -9.5,14.4 -14.6,21.3 -4.8,6.4 -11.6,10.9 -14,18.6 -1.5,5.4 -1.3,8.6 0,13.8 0.5,2 -0.4,9.2 -1.5,12 -2.2,5.5 -6.7,7.7 -6.1,13.4 0.4,4.3 4.5,3.5 4.5,3.5 -3.8,10.9 4.2,15.7 9.3,10.6 2.7,3.3 16.2,1.6 14,-11.7 6.5,-1.2 6.9,-11.6 3.8,-15.3 0,0 0.6,-5.2 0.5,-7.9 -0.1,-1.4 0,-5.9 0,-5.9 1.9,-8.5 12.3,-14.1 13.8,-21.9 1.1,1.4 2.1,2.3 3.8,2.2 1.8,-2.3 2,-4.2 1.5,-6.7 1.8,0.7 2.7,1.7 5.7,0.7 1,-1.8 1.3,-3.4 1.2,-4.7 4.3,11.7 11.6,23.4 18.8,33.3 9.3,12.8 18.3,19.7 32.4,36.4 7.4,8.7 12.3,15.1 20,26.9 2,15.8 -5,35.6 -0.1,51.6 1.3,4.2 3.4,9.1 7.3,10.7 1.5,0.7 2.3,0.9 4.2,-0.2 -0.1,3.8 1.6,5.2 4.2,7.6 2.8,3 8.3,4.7 11.8,6.7 6.7,4.2 13.8,8.3 18.7,14.6 1.6,2.1 2.7,4.8 3.2,7.5 0.9,4.1 1.1,15.3 0.9,20.5 -0.1,3 -1,5 -6,4 -10.9,-2.1 -13.2,4.5 -12.5,9.2 -9.2,5.1 -3.6,14.8 0.9,13.8 -0.4,13.3 13.4,12 14.7,6.4 4.9,12.1 18.8,4.2 17.8,-4.9 8.7,-4.6 8.7,-11.6 9.8,-18.2 1.4,0.7 2.9,1.5 4.3,0 1.1,-6.6 -0.7,-11.4 -2.8,-16 1.6,0.4 3.1,0.7 4.1,-0.1 1.2,-6.1 0.3,-10.3 -3.1,-16.4 1.8,-0.4 2.8,-1.1 3.2,-2 0,-5.2 -2,-8.3 -2.9,-14.7 -0.3,-2.1 0.5,-4.3 -0.3,-6.3 -0.9,-2.3 -3.1,-2.3 -5,-3.8 -4.5,-3.1 -9.7,-6 -12.7,-10.7 -2,-3.3 -2.9,-7.4 -3.1,-11.3 -0.4,-7.9 3.5,-15.6 5.1,-23.5 1.5,1.2 3.2,2.2 5.2,3 11.1,4.6 23.5,1.5 31.8,-6.5 11.1,-11 9.3,-26.3 8.4,-36.2 -1.8,-19.7 -11.4,-35.6 -19.4,-50.2 -8,-14.6 -14.5,-27.5 -14.4,-41.1 0,-5.9 2.7,-12.1 6.6,-19.8 3.9,-7.6 9.6,-16.2 10.9,-27.4 1.5,-12.4 -3.4,-18.1 -8.3,-18.4 -5.3,-0.4 -10.6,5.2 -11.4,15 -0.6,6.3 -4.7,13.1 -8.9,21.2 -4.1,8 -8.9,17.6 -8.9,29.3 -0.1,20 8.8,36.5 17,51.3 8.2,14.8 14.9,28.4 16.9,42 1.2,8.6 -1.2,14 -6.3,16.1 -3.3,1.3 -7.5,0.5 -9.6,-1.5 -3.7,-3.5 -5.7,-9.7 -9.1,-14.9 -5.7,-8.4 -12,-14.4 -16.4,-18.1 -1.1,-2.4 -2.2,-4.9 -3.1,-7.2 -1.5,-3.7 -3.2,-7.2 -5,-10.7 -8,-15.1 -17.5,-29.7 -25.1,-44.9 -4.6,-9 -9.1,-17.2 -11.1,-27.2 -1.1,-5.1 -1.7,-10 -0.7,-15.1 1.2,-6.5 4.8,-12.7 6.4,-19.1 1.9,-7.7 3,-23.6 3,-23.6 13.4,-19.7 17.8,-40.5 11,-54.2 z" />
    <path style="fill:#40310f;stroke:none;" d="m 380.1,152.8 -4.6,1.9 c -0.2,3 -0.3,6.5 -0.3,9.8 0.1,5 0.4,6 2,7.4 1.4,1.2 1.9,2.7 2.2,6.1 0.2,2.5 0.7,4.3 1.4,5.1 1.3,-4.5 2.1,-8.9 2.3,-13 -0.4,0.1 -0.8,0.3 -1.1,0.8 -1.6,2.3 -2.1,1.6 -1.6,-2.5 0.4,-2.8 0.2,-5 -0.7,-7.1 -1.6,-4 -1.6,-4 0.3,-2.8 0.9,0.6 1.6,1.4 1.6,2 0,0.8 0.6,1.5 1.3,1.9 -0.4,-3.5 -1.4,-6.7 -2.8,-9.6 z m -12.6,5.4 -5.4,2.5 c 0.1,1 0.4,1.5 1,2.1 1.4,1.2 1.6,1.2 3.2,-1.4 0.5,-0.9 0.9,-2.1 1.2,-3.2 z m -9.9,4.4 -3.2,1.3 c 2.1,1.1 3,0.7 3.2,-1.3 z m -11.4,4.9 -2.3,1.1 c 1.4,0.6 2,0.4 2.3,-1.1 z m 22.3,0 c -0.4,0.1 -0.9,0.1 -1.5,0.3 -3.1,0.7 -4.3,2.2 -4.9,6.1 -0.3,2 0,3.5 0.9,4.9 0.8,1.3 1.3,4 1.4,7.2 0.2,6.9 3.8,12.5 5,7.7 0.6,-2.5 1.6,-2 3.5,1.8 0.5,1.1 1.1,2 1.5,2.7 1.4,-2.5 2.6,-5.1 3.6,-7.6 0,-2.5 -0.4,-4.1 -1.6,-6.2 -2.9,-5.5 -7,-5.7 -5.7,-0.4 0.2,1 0.1,2.4 -0.3,3.1 -0.7,1.1 -0.8,1.1 -0.9,0 -0.3,-3.3 -1.4,-5.9 -2.4,-5.3 -0.4,0.2 -0.7,0 -0.7,-0.4 0,-0.5 0.9,-0.9 2,-0.9 3.5,0 4.6,-4.8 2.4,-10.4 -0.8,-1.9 -1.2,-2.6 -2.3,-2.6 z m -15.3,4.8 c -4.5,0 -5.4,1.4 -4.3,6.8 0.8,3.8 0.9,3.8 3.9,3.8 1.7,0 3.6,0.2 4.3,0.6 1.1,0.4 1.3,-0.2 1.3,-3.2 0,-2.1 -0.4,-4.8 -0.8,-5.9 -0.7,-1.8 -1.2,-2.1 -4.4,-2.1 z m -8.4,5.1 c -0.6,0 -1.4,0.5 -2.6,1.6 -1.5,1.5 -1.8,2.6 -1.8,6.4 0.1,4.8 2.2,12.4 3.7,12.9 1.3,0.5 3,-4.4 2.4,-7.1 -0.2,-1.4 -0.1,-2.6 0.3,-2.9 1.1,-0.6 1,-4 -0.1,-7.9 -0.6,-2.1 -1.1,-3 -1.9,-3 z m -25.1,18.5 c -1,3.8 -1.2,3.8 -1.7,1.6 -0.3,-1.2 -0.9,-2.2 -1.3,-2.2 -2.4,0 -5.8,12.8 -4.1,15.7 0.5,0.8 1,1.9 1,2.3 0,0.6 0.7,1.6 1.5,2.5 1.5,1.5 1.6,1.5 2.8,-1.5 0.7,-1.8 1.6,-3.5 2.1,-3.7 0.4,-0.3 0.8,-1.7 0.8,-3 0,-1.4 0.8,-3.6 1.8,-5 -0.7,-2.2 0.7,-5.5 0.6,-7.4 -0.1,-1.6 -0.2,-2.6 -0.8,-2.9 -0.8,-0.4 -1.9,0.5 -2.7,3.6 z m 38.1,-10.8 c -0.7,0.1 -1.3,0.9 -1.9,2.6 -0.5,1.3 -0.5,3 0.1,5 1,3.9 0,4.7 -3.6,3 -1.6,-0.7 -3.1,-1.2 -3.4,-0.8 -0.8,0.7 -0.7,7.6 0,10.4 0.5,1.8 1.2,2.4 4,2.9 l 3.4,0.7 0.4,-6.1 c 0.3,-3.5 0.5,-5.5 0.6,-4.6 0.1,1.1 0.8,2.3 1.5,2.9 1.1,0.9 1.4,0.9 2.4,-0.4 0.6,-0.9 1.1,-2.7 1.1,-4 0,-3.7 -1.8,-10 -3.1,-11 -0.6,-0.4 -1.1,-0.6 -1.5,-0.6 z m -24.7,7.4 c -1.4,0 -1.7,1.5 -1.5,6 0.3,7.9 1,9.9 3.3,9.9 1.3,0 1.9,0.5 1.9,1.6 0,1.7 2.3,2.6 4.8,2 1.3,-0.4 1.6,-1.1 1.6,-4.5 0,-2.4 -0.7,-5.4 -1.6,-7.2 -1.7,-3.4 -3.2,-4.9 -3.2,-3.4 0,0.5 -0.4,0.7 -0.8,0.4 -0.5,-0.2 -0.8,-1.2 -0.8,-2 0,-1.1 -0.8,-2 -1.8,-2.4 -0.8,-0.3 -1.4,-0.4 -1.9,-0.4 z m -44.7,22.9 c -0.7,2.4 -0.8,5 -0.8,5 l -1.9,3.2 c -2.7,0.8 -2.3,7.9 -4.7,13.7 -2,4.6 -0.2,6 1.8,6 1.1,0 1.8,-0.8 2.3,-2.6 0.5,-1.5 1.1,-2.7 1.4,-2.7 1.2,0 3.1,-4.8 3.1,-7.7 0,-3.2 1.1,-3.7 4.1,-2.1 2.5,1.4 3.3,-0.1 3.3,-5.8 -0.1,-4.1 -0.5,-5.6 -1.9,-7.1 -1.6,-1.8 -2.8,-3.9 -4.7,-3.5 -1.3,0.3 -1.7,2.3 -2,3.6 z m 40,-20.1 c -0.6,0 -2.7,5.4 -3.2,8.2 -0.2,1.6 -0.7,5.6 -0.9,8.9 -0.4,5.1 -0.1,6.4 1.3,8.6 0.9,1.6 1.6,3.9 1.6,5.4 0,3.8 3,9.9 4.9,9.9 2.2,0 2.5,-1.6 1.9,-9.2 -0.5,-6.8 -1.7,-10.4 -2.5,-8.2 -1,2.6 -1.6,0.5 -1.8,-6.6 -0.1,-4.1 -0.4,-9.6 -0.6,-12.3 -0.3,-2.6 -0.6,-4.7 -0.7,-4.7 z m 41.6,8.7 c -0.6,0.1 -1.1,1.1 -1.8,3.3 -0.5,1.5 -0.3,4.2 0.3,7 0.3,-4 0.6,-7.2 0.6,-7.2 0.6,-0.8 1.1,-1.8 1.6,-2.6 -0.3,-0.3 -0.5,-0.5 -0.7,-0.5 z m -5.9,2.8 c -0.3,0 -1.2,1.1 -1.9,2.5 -1.8,3.1 -1.9,10.9 -0.2,14.2 1.1,2.3 1.2,7.6 0,9.6 -0.5,0.8 0,3.9 0.9,6.6 1.2,-3 2.4,-6 3.1,-9.1 0.3,-0.8 0.5,-1.9 0.7,-2.9 0,-0.1 -0.1,-0.2 -0.2,-0.2 -1,-1.6 -1,-2.7 -0.1,-7.5 0.9,-5 0.8,-5.9 -0.4,-9.3 -0.8,-2.2 -1.6,-3.9 -1.9,-3.9 z m -59,-3.6 c -1.3,0 -2.6,0.7 -3.2,2.1 -0.7,2.1 -0.4,9.6 0.4,11 0.3,0.5 -0.2,1.9 -1,3.1 -2.2,3.1 -2.4,6.9 -0.7,9.6 1.9,3 4.2,2.8 5.8,-0.7 1.4,-3.1 0.9,-7.6 -1.1,-9.1 -1,-0.7 -0.8,-1.2 1,-3.2 1.6,-1.7 2,-3.2 2,-5.9 0,-2.1 -0.3,-4.4 -0.8,-5.3 -0.5,-1 -1.5,-1.5 -2.4,-1.6 z m 134,11.5 c -2.4,0.5 -4.6,2.3 -6.3,5.2 -0.7,4.2 0.1,8.8 2.1,12 l 1.3,2.1 1.8,-1.8 c 2.7,-2.6 3.6,-12.8 1.5,-16.9 -0.1,-0.2 -0.3,-0.4 -0.4,-0.6 z m -86.1,0.5 c -0.6,0.1 -1.4,0.5 -2.6,1.2 -1.9,1.2 -2.3,1.9 -2.2,5 0,1.9 0.3,3.4 0.7,3.4 0.3,0 0.8,0.8 1.1,1.6 0.3,1 1.2,1.5 2.5,1.5 2.5,0 3.2,0.7 2.1,2.1 -1.2,1.5 -1.4,3.8 -0.7,7.9 0.5,2.7 1.2,3.7 3,4.7 2.1,1.1 2.4,1.1 2.8,-0.2 0.3,-0.7 0.6,-3.1 0.6,-5.2 0.1,-3 -0.4,-4.5 -2.2,-6.8 -1.8,-2.6 -2.1,-3.5 -1.6,-6 0.3,-2 0,-3.9 -0.9,-6.1 -1,-2.3 -1.6,-3.2 -2.6,-3.1 z m 91.2,0.1 c 0,1.7 0.5,3.2 1.4,4.1 0.6,0.6 1.3,0.2 1.9,-0.9 -0.9,-1.5 -2.1,-2.6 -3.3,-3.2 z m -105.6,-1 c -0.5,0.1 -1,0.4 -1.3,1 -0.4,0.5 -0.5,3.4 -0.4,6.3 0.1,3.9 0.7,6 2,8 1.6,2.4 2,2.5 2.4,1.3 0.4,-0.8 0.8,-4.4 1.1,-8 0.4,-5.8 0.3,-6.5 -0.9,-6 -1,0.4 -1.3,0.1 -1.3,-1.1 0,-1.1 -0.8,-1.6 -1.6,-1.5 z m -23.8,5.7 c -2,-0.1 -3.8,2.6 -4,7.1 0,2.2 -0.4,4.6 -0.7,5.6 -0.4,0.9 -0.9,2.4 -1.2,3.2 -0.7,2 -0.5,11 0.2,11.7 0.3,0.4 0.5,1.2 0.5,1.9 0,0.8 0.9,1.8 2,2.4 1.7,0.8 2.1,0.7 3.3,-1.2 1.6,-2.5 2.7,-2.5 2.7,-0.1 0,2.7 2.3,7.1 3.6,7.1 0.7,0 1.2,-0.6 1.2,-1.4 0,-0.7 0.7,-2.6 1.5,-3.9 2,-3.5 2.9,-9.2 1.7,-10.7 -0.7,-0.8 -0.9,-2.7 -0.5,-5.6 0.3,-3.2 0.1,-5.1 -1.1,-7.8 -1.6,-3.5 -2.6,-4.2 -3.7,-2.5 -0.3,0.6 -1.2,-0.4 -2.1,-2.5 -0.9,-2.2 -2.2,-3.2 -3.4,-3.3 z m 130.5,6.9 c -0.2,0.1 -0.4,0.3 -0.7,0.6 -2.1,2.3 -5.1,13.1 -4.2,15.2 0.2,0.7 -0.4,1 -1.6,1 -1.2,0 -2,0.6 -2,1.2 0,0.6 -0.6,1.6 -1.2,2.1 -1.1,1 -1.2,0.4 -1.2,-4.4 0,-4.3 -0.3,-5.4 -1.3,-5.4 -0.6,0 -1.7,1.3 -2.3,2.8 -0.7,1.6 -2.1,4.3 -3.3,6 -1.9,2.9 -2,3.6 -1.5,8.8 0.6,7.7 1,8.9 2.7,8.4 0.2,-0.1 1.7,-1.2 2.7,-3.7 0.6,-1.7 0.6,-5.1 1.3,-6 1.4,-2.1 2.5,0.6 2.5,1.1 0,0.2 -0.7,3.6 -1.9,6.3 -1.4,2.8 -3.2,4.8 -3.2,5.2 0.2,6 1.1,9.5 2.5,9.5 1,-4.6 3.2,-9.6 6.2,-15.3 1.8,-3.6 4,-7.4 6,-11.6 -0.5,-0.7 -0.8,-1.7 -0.8,-2.2 0,-0.6 -0.5,-1.1 -1.2,-1.1 -1.7,0 -1.5,-2.2 0.4,-4.6 0.9,-1.3 1.6,-2.8 1.6,-3.5 0,-0.7 0.4,-1.9 0.8,-2.6 0.5,-0.8 0.7,1.6 0.6,7.4 0,1.5 0,2.6 -0.1,3.6 1.7,-3.9 3,-8.2 3.5,-12.9 0.2,-1.1 0.2,-2.1 0.3,-3 -0.8,-1.2 -1.6,-1.3 -2.4,0 -0.7,1.2 -2,0.2 -2,-1.8 0,-0.8 -0.1,-1.1 -0.3,-1.1 z m -101,4.2 c -0.5,0 -1.1,0.8 -1.6,2.5 -1.7,4.9 -1.1,8.4 1.7,11.2 2.3,2.2 2.8,2.4 4.1,1.4 0.9,-0.7 1.6,-2.6 1.9,-4.8 0.4,-3.3 0.2,-3.7 -2,-5.4 -1.4,-1 -2.7,-2.4 -3,-3.3 -0.3,-1.1 -0.7,-1.6 -1.1,-1.6 z m -50.9,2.5 c -0.8,-0.1 -1.2,0.8 -1.5,3 -0.3,1.6 -1.1,4 -1.7,5.2 -2,4 -0.8,12.2 1.7,12.2 2.8,0 4.5,-4.3 4.6,-11.5 0.1,-5.2 -0.2,-6.5 -1.4,-7.8 -0.7,-0.7 -1.3,-1.1 -1.7,-1.1 z m 136.1,-1.5 c -0.7,3 -2,6.1 -3.6,9.4 1.4,-1.7 3.3,-6.3 3.6,-9.4 z m -112,3.4 c 0.8,0 0.9,5 0.1,5.5 -0.5,0.2 -0.9,1.8 -0.9,3.5 l -0.1,2.9 -0.5,-3.2 c -0.3,-1.8 -0.8,-3.7 -1.2,-4.4 -0.4,-0.7 -0.1,-1.7 0.7,-2.6 0.8,-1 1.7,-1.7 1.9,-1.7 z m -14.2,9.1 c -0.2,0 -0.5,0 -0.8,0.1 -1.5,0.1 -2.2,0.9 -2.9,3 -3,9.2 -3.5,11.2 -3.5,13 0,0.9 0.3,1.8 0.8,1.8 0.5,0 0.6,0.3 0.4,0.8 -1.1,1.8 1.9,-0.2 3.1,-2.1 1.8,-2.7 2.6,-2.5 3.2,0.8 1.1,5.9 5.3,5.7 5.3,-0.3 0,-4.4 -2.5,-15.9 -3.5,-16.6 -0.4,-0.3 -1.2,-0.5 -2.1,-0.5 z m 34.9,-1.6 c -0.5,0 -0.8,0.4 -1.1,1.2 -0.3,0.8 -1.5,1.2 -3,1.2 -2.2,0 -2.8,0.5 -4.7,4.2 -2.4,4.5 -2.3,8.8 0.1,9.5 1.1,0.4 1.3,1.4 1,6.5 -0.4,7.6 0.2,10.2 2.3,10.2 1,0 1.6,-0.5 1.6,-1.6 0,-2 1.4,-2.9 2.6,-1.8 0.5,0.5 1.2,0.9 1.6,0.9 1.1,0 3.9,-7.2 3.6,-9.5 -0.2,-1.8 0.2,-2.4 1.4,-2.6 4,-0.8 3.9,-6.4 -0.4,-13.1 -2.2,-3.5 -3.9,-5.2 -5,-5.1 z m 15.4,0 c -0.6,0 -1.2,0.6 -1.7,1.9 -1.3,2.8 0.9,7.6 4.2,8.9 2.7,1.1 3.3,3.2 3.2,10.1 -0.1,3.7 1.8,8.8 3.6,9.7 -1.1,-2.7 -1.9,-5.7 -2.6,-8.8 -0.9,-4.5 -1.5,-8.8 -0.9,-13.4 -0.2,0.3 -0.3,0.5 -0.5,0.7 -1,1.5 -1.1,1.4 -1.7,-1.9 -0.3,-1.9 -1,-4.4 -1.7,-5.4 -0.7,-1.2 -1.4,-1.8 -1.9,-1.8 z m -74.6,5.1 c -3.1,0 -6.2,1.6 -6.2,4.1 0,0.8 -0.5,1.4 -1.1,1.4 -0.2,0 -0.3,0 -0.5,0.1 -0.9,2.5 -1.7,5 -2.6,7.5 0,0.6 -0.1,1.3 0,2.2 0,3.9 0.3,8.3 0.6,9.7 0.5,2.5 0.9,2.7 3.4,2.7 3,0 4,-0.8 6.7,-6.1 1.2,-2.2 1.5,-3.9 1.1,-5.9 -0.5,-2.9 -2.5,-3.8 -3.3,-1.6 -0.7,1.9 -2.6,1.6 -3,-0.6 -1.2,-5.8 -1.1,-7.2 0.8,-7.2 1.8,0 4.3,2 4.3,3.4 0,1.3 2.9,0.8 4.2,-0.7 2.2,-2.5 2.5,-5.6 0.7,-7.3 -1.3,-1.2 -3.2,-1.7 -5.1,-1.7 z m 140.7,5.2 c -1.5,3.1 -3,6.3 -4.3,9.8 1.9,0.3 2.3,-0.2 3.4,-2.6 1,-2.3 1.3,-4.8 0.9,-7.2 z m -84,0.1 c 0.5,0 1,0.5 2.1,1.4 2.6,2.4 2.9,5.4 0.6,5.4 -0.8,0 -2.5,-0.8 -3.8,-2 -2.2,-2 -2.2,-2 -0.6,-3.7 0.8,-0.8 1.2,-1.2 1.7,-1.1 z m 16.4,0.2 c -1.3,0 -2.6,1.6 -3.7,4.9 -1.6,4.8 -1.5,6.1 0.7,9.5 l 1.9,2.9 0.5,-2.1 c 0.4,-1.6 0.9,-2.1 2.1,-1.6 1,0.3 1.8,0 2.4,-1.3 1.1,-2 0.7,-4.6 -1.2,-9.2 -0.8,-2.1 -1.8,-3.1 -2.7,-3.1 z m -57.7,15.6 c -1.8,-1.6 -3,-1.4 -3.6,0.4 -0.6,2.2 -2,2.2 -2,0.1 0,-0.8 1.1,-2.4 2.4,-3.6 2,-1.7 2.3,-0.7 2.3,-3.8 0,-2.2 -0.4,-3.3 -1.2,-4.1 -0.8,-0.9 -1.9,-1.3 -2.8,-1.2 -0.9,0 -1.8,0.5 -2.3,1.5 -0.4,0.9 -0.9,2.4 -0.9,4.4 0,2.2 -0.5,2.8 -1.2,4 -1,1.5 -1.2,3.1 -0.9,6.3 0.4,4.2 3.2,10.4 4.7,10.4 1.3,0 4.7,-2.6 4.7,-3.6 0.6,-0.8 -0.1,-2.2 0.3,-2.8 0.5,-0.8 1.9,1 2.3,0.5 3.3,-4.7 1.1,-4.3 1.4,-5.4 0.8,-2.7 -1.6,-1.5 -3.2,-3.1 z m 16.2,-4.4 c 0.8,2.9 1,4.6 0.4,6.1 -1,2.6 -0.4,13 0.9,15.5 l 1,1.8 1.6,-1.8 c 2,-2.4 3.1,-5.1 3.1,-7.9 0,-1.2 0.2,-1.9 0.5,-1.6 0.3,0.2 0.6,3.5 0.7,7.3 0.2,6.4 1.9,6.6 3.3,6.6 3,-0.1 5.5,-7.5 3.6,-10.6 -0.5,-0.9 0.2,-0.2 0.5,-4.6 0.4,-6.8 -0.2,-9.7 -2.2,-9.7 -1.3,0 -5.6,5.1 -5.6,6.6 0,0.9 -0.4,1.6 -0.8,1.6 -0.4,0 -0.7,-2.6 -0.5,-6.3 0.2,-1.2 0.2,-2.3 0.2,-3.2 z m 109.6,-0.2 c -1,-0.1 -1.8,0.2 -1.8,0.7 0,0.3 -0.6,0.6 -1.2,0.6 -0.7,0 -1.2,0.4 -1.2,1 0,0.5 -0.7,1.8 -1.6,2.9 l -1.5,2 c -0.5,2.5 -0.7,5.3 -0.8,8.2 0,2.3 0.2,4.6 0.4,6.8 0.9,-0.8 1.7,-2 2.3,-3.3 1.6,-3.6 3.2,-4.2 3.2,-1.5 0,2.3 3.7,2.6 5.5,0.5 2.1,-2.4 2.7,-9.3 1,-10.7 -0.8,-0.6 -1.3,-2.1 -1.3,-3.3 0,-1.1 -0.3,-2.6 -0.7,-3.1 -0.3,-0.6 -1.3,-0.8 -2.3,-0.8 z m -72.2,6.3 c -1.4,0 -1.6,0.5 -1.6,5.4 0,4.7 0.2,5.5 2.1,7.4 2.6,2.4 3.5,2.5 5.8,0.4 1.5,-1.3 1.9,-2.6 1.9,-6.5 0,-2.5 -0.2,-5.2 -0.5,-5.7 -0.8,-1.4 -2.6,-1.2 -4,0.2 -1,1.1 -1.2,1.1 -1.6,0 -0.3,-0.6 -1.2,-1.2 -2.1,-1.2 z m -6.6,2.5 c -0.5,0.1 -1,0.8 -1.5,2.2 -0.5,1.2 -1.2,3 -1.6,3.7 -0.4,0.8 -0.7,2.4 -0.7,3.7 v 2.2 l -2.2,-2.7 -2.3,-2.8 -1.4,2.2 c -1.5,2.3 -1.3,7.3 0.4,10.3 0.4,0.7 1,2.3 1.5,3.5 0.4,1.4 1.3,2.3 2.3,2.3 1.9,0 6.5,-5.7 6.5,-8 0,-1 0.3,-2 0.8,-2.3 1,-0.6 0.8,-10 -0.3,-12.5 -0.5,-1.3 -1,-1.8 -1.5,-1.8 z m -77.1,5 c -0.7,0.1 -1.4,0.5 -2.2,1.5 -2.1,2.3 -2.6,7.5 -1,10.6 1.4,2.8 1.6,3.8 0.7,3.9 -0.3,0 -1.4,0.4 -2.4,1 -1.5,0.8 -1.8,1.7 -1.8,5.1 0,4.6 1,7.3 2.7,7.3 0.5,0 2.2,-1 3.6,-2.2 2,-2 2.8,-3.6 3.7,-8.1 1.3,-6.6 1.6,-15.1 0.4,-15.1 -0.5,0 -1.2,-1 -1.6,-2.1 -0.5,-1.3 -1.2,-1.9 -2.1,-1.9 z m 96.5,0 c -0.9,0.1 -1.7,1 -2.3,2.7 -1.4,4.1 -0.4,10.8 2.1,13.8 1.2,1.2 2.3,2.2 2.6,2.2 0.9,0 2.5,-4.9 2,-5.8 -0.8,-1.1 0.6,-0.8 2.1,0.7 1.1,0.9 1.8,1.1 2.4,0.4 0.4,-0.3 0.6,-1.2 0.7,-2.3 -1.8,-3.5 -3.5,-7 -5.1,-10.5 -0.6,1.1 -0.9,1 -2,0 -1,-0.9 -1.8,-1.4 -2.5,-1.2 z m -104.5,4 c -1.1,1.5 -2.3,2.9 -3.4,4.5 -0.2,0.8 -0.4,1.8 -0.5,3.1 -0.4,2.7 -0.2,4.2 0.7,5.7 0.7,1.1 1.1,2.3 0.8,2.6 -0.8,0.7 0.7,0.7 1.7,-0.1 1.8,-1.3 3.3,-7.2 3,-11.5 -0.3,-3.9 -0.5,-4.3 -2.3,-4.3 0,0 0,0 0,0 z m 20.4,0.3 c -0.6,0 -1.1,0.5 -1.6,1.4 -1.6,3.5 -2.4,7.7 -1.9,10.6 0.3,1.8 0.1,3.9 -0.4,4.8 -0.6,1.3 -0.7,3.3 -0.3,5.1 1.4,-2 2.5,-4 3,-6.1 1.1,1.3 2.1,2.3 3.8,2.1 0.1,-0.1 0.1,-0.2 0.2,-0.3 -0.2,-0.3 -0.4,-0.7 -0.7,-1.1 -1,-2.1 -1.2,-3.1 -0.6,-3.8 0.6,-0.6 1.1,-0.2 1.9,1.5 0.2,0.3 0.4,0.7 0.6,1 0.4,-1.3 0.3,-2.5 0,-4 1.9,0.8 2.8,1.8 5.7,0.7 0.5,-0.7 0.8,-1.5 1,-2.2 -0.3,-1.5 -0.9,-3.2 -1.7,-4.5 -1.1,-1.9 -1.7,-2.3 -3.5,-1.8 -1.2,0.2 -2.2,0.1 -2.2,-0.4 0,-0.4 -0.6,-1.3 -1.3,-2.1 -0.7,-0.7 -1.4,-1 -2,-0.9 z m 149.8,1.4 c -1,0 -2.1,0.6 -3.8,1.6 -3.2,2 -4.1,4.8 -2.9,8.7 0.6,2 0.6,3 -0.1,3.4 -0.5,0.4 -1.5,2.4 -2.3,4.6 -0.3,1.1 -0.6,2 -0.7,2.8 0.6,1.7 1.2,3.3 1.9,5.1 1.8,-0.6 5,-5 6.7,-9.1 1.2,-2.9 2.6,-5.9 3.2,-6.6 1.9,-2.3 2.3,-7.1 0.7,-9 -0.9,-1 -1.7,-1.5 -2.7,-1.5 z m -119.7,-8.6 c -0.2,0 -0.5,0 -0.8,0 -2.5,0.3 -1.6,2 -2.5,2.9 -0.9,1 -3.5,1.4 -1.9,4.1 0.1,0.1 0.2,2.7 1.6,4.2 0.9,0.9 1.6,1 4,0 1.6,-2.2 2,-3.5 1,-9 -0.4,-2 0.1,-2.2 -1.4,-2.2 z m 108.2,12.7 c -0.4,0.1 -0.8,0.4 -1.4,1.1 -0.2,0.3 -0.5,0.6 -0.7,0.8 0.3,2.2 0.8,4.4 1.3,6.5 1,-1.8 1.8,-4.1 1.8,-5.9 0,-1.8 -0.4,-2.6 -1,-2.5 z m -101.3,4.7 c -0.8,0 -1.5,0.7 -2,1.8 -1.1,2.5 -1.9,9 -0.7,11.3 1.4,2.8 3.5,2.1 5.5,-1.6 1.2,-2.6 1.1,-3.1 1.1,-4.7 0.1,-2.7 -0.1,-1.2 -1.3,-4.6 -0.6,-1.5 -1.6,-2.3 -2.6,-2.2 z m 37.3,-2.3 c -1.6,0 -3.7,1.8 -4.9,5 -1.3,3.1 -1.2,3.6 -0.1,5.3 0.7,1.2 1.8,2 2.4,2 1.1,0 1.1,0.3 0,2.5 -0.7,1.3 -1.2,2.9 -1.2,3.7 0,2.3 -2.8,-0.3 -2.9,-2.8 -0.2,-4.8 -1,-6.7 -3.2,-6.7 -2.4,0 -4.1,3.6 -4.9,10 -0.5,5 2.3,11.4 5.1,11.4 1,0 1.9,0.5 2.1,1 0.2,0.7 0.8,0.6 2.1,-0.5 1.3,-1.2 1.7,-2.5 1.7,-6.2 0,-3.8 0.2,-4.4 1,-3.3 0.5,0.8 1.8,1.6 2.7,1.9 1.4,0.5 1.9,0.1 2.9,-2.6 2.7,-6.8 2.7,-13.1 0.1,-12.1 -1,0.3 -1.1,0 -0.7,-2 0.3,-1.2 0.2,-3.2 -0.1,-4.5 -0.3,-1.4 -1.1,-2.1 -2.1,-2.1 z m -103.6,3.9 c -0.3,0.1 -0.9,0.4 -1.6,0.8 -1.2,1.2 -2.3,2.5 -3.4,3.8 -0.1,0.7 -0.4,1.3 -0.7,1.5 -1,0.4 -1.9,7.2 -0.9,7.2 1,0 1.1,3.9 0.1,4.5 -1.1,0.8 -1.7,4.8 -1,7.9 0.7,3.8 2.8,4.2 4.5,0.8 1.2,-2.5 1.5,-2.6 4.7,-2.1 3.1,0.5 3.5,0.3 4.3,-1.5 0.5,-1.2 1.2,-4.4 1.5,-7.2 0.4,-4.5 0.3,-5.4 -1.2,-6.7 -1,-1 -1.7,-1.2 -2.1,-0.6 -0.3,0.5 -1,0.8 -1.5,0.8 -0.8,0 -1,-0.9 -0.7,-3.7 0.3,-2.3 0.1,-3.7 -0.5,-3.7 -0.5,0 -0.9,-0.5 -0.9,-1.1 0,-0.5 -0.2,-0.7 -0.6,-0.7 z m 124.5,0.4 c -0.5,0.1 -1.1,0.5 -1.9,1 -2,1.7 -2.8,6.8 -1.5,9.5 1.4,2.6 1.4,4.9 0,4.9 -1.8,0 -3.2,-1.4 -2.7,-2.8 0.3,-0.8 0.1,-1.3 -0.7,-1.3 -0.6,0 -1.1,-0.5 -1.1,-1.1 0,-0.7 -0.4,-1.5 -0.9,-1.8 -1.6,-1 -3.1,2.2 -3.1,6.6 0,3.4 0.4,4.7 2.2,6.8 1.2,1.4 2.8,3.6 3.6,4.7 1.9,2.8 3.4,2.7 4.1,-0.1 0.3,-1.3 1.4,-4.2 2.5,-6.5 1.1,-2.4 1.9,-5.5 1.9,-7.1 0,-1.4 0.2,-4.1 0.5,-5.8 0.2,-1.4 0.2,-2.4 0,-3.3 -0.5,-0.9 -1,-2 -1.5,-2.9 -0.5,-0.7 -0.9,-0.9 -1.5,-0.8 z m -48.5,-2.6 -1.3,2.4 c -1.9,3.6 -1.2,17.7 0.7,18.9 0.7,0.4 1.4,1.3 1.4,1.9 0,1.8 4.7,1.6 5.3,-0.3 0.3,-0.7 1,-1.9 1.6,-2.6 1.7,-2.2 1.7,-8.5 0.3,-12.1 -1.3,-2.9 -2.4,-3.8 -3.3,-2.2 -0.8,1.3 -2,0.9 -2,-0.6 0,-0.9 -0.7,-2.4 -1.4,-3.4 z m 112.4,6.5 c -1.7,0.6 -3,1.8 -3,3.3 0,1.8 -2.2,3.8 -5,4.4 -1.6,0.4 -2.4,1.3 -3.1,3.7 -1.2,4.3 -0.7,8 1.1,7.8 1.2,-0.1 1.4,0.3 1,2 -0.2,1.3 -0.1,3.5 0.4,5.1 0.3,1.2 0.4,2.1 0.2,3 0.6,1.1 1.2,2.1 1.8,3.1 0.9,1.8 1.8,3.4 2.7,5.1 0.2,-0.3 0.3,-0.5 0.4,-0.8 0.7,-1.7 0.8,-3.2 0.4,-4.5 -0.4,-1 -0.8,-3.8 -1,-6.1 -0.2,-2.4 -0.6,-5.1 -0.9,-6 -0.3,-1.1 -0.1,-2.2 0.7,-3.1 0.7,-0.7 1.3,-2 1.3,-2.9 0,-0.9 0.3,-1.8 0.6,-2.1 1.2,-0.7 2.8,0.9 2.3,2.3 -0.2,0.7 0.1,2.6 0.7,4.2 1.1,2.6 1.3,2.7 3.1,1.9 1.5,-0.7 2.5,-2.8 3,-5.6 -2.6,-5.1 -4.9,-10 -6.7,-14.8 z m -188.1,7.4 c 0.2,0 0,0.8 -0.5,1.6 -0.5,1 -1.3,1.7 -1.8,1.7 -0.5,0 -0.2,-0.7 0.6,-1.7 0.8,-0.8 1.6,-1.6 1.7,-1.6 z m -10.2,0.8 c -0.1,0.3 -0.2,0.6 -0.3,0.9 -0.8,2.7 -1.2,4.9 -1.1,7 1.1,-1.3 1.5,-4.5 1.4,-7.9 z m 142.7,1.2 h -0.6 l 0.2,4.6 c 0.2,2.9 0.8,5 2,6.6 2.1,2.8 3,2.9 4.8,0.9 0.1,-0.3 0.2,-0.4 0.3,-0.6 -2.2,-3.8 -4.5,-7.7 -6.7,-11.5 z m -112.4,1.3 c -1.3,0 -2.3,1.1 -2.8,3.5 0,0.4 -0.1,0.6 -0.2,0.8 1.1,-1.5 2.3,-2.9 3.6,-4.3 -0.2,0 -0.4,0 -0.6,0 z m -6.1,3.8 c -1.6,0 -3.3,1.5 -3.3,3.6 0,1.1 -0.2,4 -0.5,6.2 -0.5,3.9 -0.3,4.3 2.1,6.8 0.5,0.6 1,1.1 1.4,1.8 0.1,-1.8 0.3,-3.9 0.2,-5.5 0,-1.4 0,-5.9 0,-5.9 0.5,-2 1.4,-3.7 2.5,-5.5 -0.1,-0.1 -0.3,-0.3 -0.5,-0.7 -0.5,-0.6 -1.2,-0.9 -1.9,-0.8 z m 89.5,5.1 c -1.5,0.1 -2.8,2.5 -3.3,6.9 -0.8,6 0.7,10.9 3.6,11.6 2.4,0.6 3,-0.9 2.6,-6.1 -0.5,-4.7 0.5,-8.2 1.4,-5.2 0.3,0.8 0.7,3.3 0.9,5.2 0.5,3.9 1.8,6.2 3.2,5.2 3.2,-2.4 3.8,-10.4 1,-13.8 -1.8,-2 -1.8,-2.2 -3.4,-0.6 -1.6,1.5 -1.6,1.5 -3,-0.7 -1,-1.8 -2,-2.5 -3,-2.5 z m 93.9,0.1 c -0.3,2.7 0,5.7 1.1,6.7 0.6,0.7 1.7,0.5 2.5,-0.1 -0.7,-1.4 -1.4,-2.7 -2.1,-3.9 -0.5,-0.9 -1,-1.9 -1.5,-2.7 z m -191.5,1.9 c -0.1,0 -0.2,0 -0.3,0.1 -0.5,0.1 -1.5,1.5 -2.2,3 -1.6,3.4 -1.1,8.7 1,11.1 5.1,8 2.1,0.5 3.9,2.2 0.8,0.7 1.2,-1.8 0.8,-9.4 0,-2.5 -2,-6.8 -3.2,-7 z m 84.7,6.8 c -1.8,0.4 -4,4.6 -4.1,9.3 -0.1,3.6 0.2,4.7 1.7,6.2 1.6,1.7 1.9,1.8 3.2,0.6 1.7,-1.6 2.2,-1.7 3.8,0 1.5,1.4 2.3,1 3,-1.8 0.8,-3.3 -0.9,-8.5 -3.2,-9.4 -1,-0.4 -2.1,-1.7 -2.4,-2.8 -0.4,-1.7 -1.1,-2.3 -2,-2.1 z m 36.8,-6 c -0.7,0 -1.2,0.9 -1.9,2.6 -1.8,4.3 -1.5,6.8 0.8,8.4 1.1,0.7 2.3,2.6 2.8,4.5 1.2,4.7 4,4.1 5.2,-1.1 0.8,-3.3 -0.3,-9.7 -1.6,-9.7 -0.6,0 -1.9,-1.1 -2.8,-2.5 -1.1,-1.5 -1.9,-2.3 -2.5,-2.2 z m 14.6,3.5 c 0.1,0.6 -1.9,1.2 -3.3,3.7 -0.9,1.6 -1.5,5.3 -1.3,5.9 0.4,1.9 2.8,1.1 5,-0.5 1.3,-0.8 2.7,-2.4 3.4,-2.5 -1.2,-2.2 -2.5,-4.5 -3.8,-6.6 z m 52.3,1.3 c -1,0.1 -2.4,1 -4,2.7 -2.6,2.5 -2.6,2.9 -2.6,9.8 0,2.2 0.1,3.8 0.2,5 0,0 0,0 0,0 0.4,0.7 0.7,1.4 1.1,2 0.7,0 1.9,-1.5 3.8,-4.4 2.9,-4.6 4.4,-10.8 3.2,-13.9 -0.3,-0.9 -0.9,-1.3 -1.7,-1.2 z m -108.7,-9.4 c -1.7,0 -2.7,1.4 -3.3,4.8 0.8,2.6 0.2,3.6 1.2,4.5 4.6,4.2 5.8,-0.6 5.9,-1.5 0.5,-2.6 0.3,-3.6 -0.7,-4.5 -0.6,-0.6 -1.2,-1.6 -1.2,-2.2 0,-0.6 -0.8,-1.1 -1.9,-1.1 z m 115.3,14.2 c -2.2,0 -3.2,3.8 -2.7,10.5 0.3,3.6 0.2,6 -0.3,6 -0.4,0 -1,1.4 -1.2,3 -0.3,1.8 -0.7,3.7 -0.9,4.5 -0.2,0.7 0.3,2.1 1.1,3.1 l 1.4,1.9 2.2,-3.4 c 1.3,-1.9 2.2,-4.4 2.2,-6.1 0,-1.5 0.5,-4.4 1.2,-6.2 0.8,-2.5 0.9,-4 0.4,-5.1 -0.4,-0.8 -0.8,-2.7 -0.8,-4.3 0,-1.5 -0.3,-2.9 -0.6,-3.3 -0.3,-0.3 -1.1,-0.6 -2,-0.6 z m -85.1,4.2 c -1.2,0.1 -2.1,2.2 -2.5,6 -0.5,5 -1,5.6 -2.2,2.9 -2.1,-4.7 -4.9,-0.6 -4.1,5.8 0.6,4.5 2.7,11.3 3.8,12 1.6,1.1 3.1,-1.5 3.1,-5.2 0,-3.5 0.1,-3.6 2,-3.1 1.6,0.4 2.1,0.1 2.7,-1.4 0.9,-2.5 1.4,-10.2 0.6,-11 -0.3,-0.3 -0.5,-1.2 -0.5,-2.1 0,-0.9 -0.5,-2 -1,-2.7 -0.7,-0.7 -1.3,-1.2 -1.9,-1.2 z m 23.6,2.4 c -1.5,0 -3.3,5.9 -2.8,9 0.3,1.6 0.8,4.9 1.1,7.1 0.4,2.4 1.2,4.9 1.9,5.6 0.7,0.7 1.5,1.6 1.6,2 0.2,0.4 1.3,1.1 2.6,1.4 l 2.3,0.5 -0.5,-3.3 c -0.3,-2 -0.2,-3.5 0.3,-3.8 1.2,-0.7 4,0.4 4,1.6 0,0.7 0.5,1.6 1.2,2.1 1.6,1.4 1.5,3.5 -0.4,5.7 -2.5,3 -3.7,7.8 -2.5,10.4 0.5,1.1 0.9,2.8 0.9,3.7 0,1 0.4,1.5 1,1.2 0.5,-0.2 1.5,-0.7 2.2,-0.9 0.7,-0.3 2.1,-1.7 3.1,-3.4 1.9,-2.6 2.1,-4.3 1.7,-10.3 -0.1,-1.5 0.5,-3.1 1.5,-4.3 1.4,-1.4 1.8,-2.2 1.5,-4.1 -1.1,-1 -2.2,-2 -3.2,-2.7 -0.4,-1.1 -0.8,-2 -1.2,-3 -0.8,0.1 -1,-0.3 -1,-1.7 0,-0.2 0,-0.5 -0.1,-0.8 0,0 0,0 0,0 -0.1,-0.3 -0.3,-0.6 -0.4,-0.9 -0.2,-0.3 -0.3,-0.5 -0.6,-0.6 -0.6,-0.3 -1.3,-1.6 -1.7,-2.8 -1.4,-6.1 -4,-5.8 -4.6,0.5 -0.2,2.7 -0.8,5.5 -1.2,6.2 -0.6,1.2 -0.9,1.1 -2.2,-0.8 -0.7,-1.3 -1.5,-4.1 -1.6,-6.3 -0.2,-2.2 -0.7,-4.7 -1.2,-5.7 -0.5,-0.9 -1.2,-1.6 -1.7,-1.6 z m -39.5,8.3 c -1.4,0 -3.1,2.1 -2.3,2.8 0.3,0.4 0.1,0.9 -0.5,1.3 -0.7,0.4 -0.9,1.8 -1,5 0.6,5.1 2.5,3.9 3.8,3.1 0.9,-0.5 0.8,1.2 2.2,-1.6 0.9,-1.8 0.7,-5.9 -0.3,-8.4 -0.4,-1.1 -1.3,-2.2 -1.9,-2.2 z m 24,-4.3 -0.5,2 c -1,3.5 -0.8,17.5 0.3,18.9 1.2,1.6 3.9,2.4 5,1.6 1.9,-1.4 3.7,-5.2 3.1,-7 -0.3,-1 -0.6,-2.3 -0.7,-3.1 -0.2,-2.1 -1.9,-5.7 -2.8,-5.7 -0.4,0 -0.8,-0.6 -0.8,-1.3 0,-0.9 -0.8,-2.3 -1.8,-3.4 z m 88.5,10 c -0.8,0 -1.8,1.2 -2.7,3.5 -0.8,1.8 -1.6,3.1 -1.9,2.8 -0.8,-0.7 -3.5,1.9 -3.5,3.3 0,0.5 -0.4,1.1 -0.8,1.1 -0.9,0 -1.1,3.2 -0.3,5.3 0.6,1.7 2.4,1.6 4.9,-0.4 2.4,-2 3.6,-2.1 5,-0.4 0.5,0.7 1.3,1 1.7,0.8 0.4,-0.3 0.7,0.8 0.7,2.5 0,2.4 0.2,2.8 1.9,2.8 0.3,0 0.7,0 1,-0.1 -0.1,-0.4 -0.1,-0.9 -0.1,-1.3 -0.6,-6.6 -2.1,-12.7 -4.1,-18.6 -0.3,-0.1 -0.6,-0.2 -0.7,-0.4 -0.3,-0.6 -0.7,-0.8 -1.1,-0.9 z m -18.8,4.6 c 0.4,1.1 0.9,2.3 1.2,3.4 0.2,-2.8 0.1,-3.4 -1.2,-3.4 z m -73.6,6.1 c -0.6,-0.1 -1.2,0.2 -1.7,0.6 -0.3,0.4 -1.5,1 -2.8,1.4 l -2.2,0.8 1.5,6.6 c 2.7,11.7 4.4,14 6.1,8 1.2,-4 1.9,-12.9 1.3,-15.4 -0.3,-1.2 -1.2,-1.9 -2.2,-2 z m 18.8,4.2 c -1.2,0.1 -2,1.1 -2.8,3.1 -1.8,4.7 -1.7,10.5 0.3,13.8 1.7,2.9 4.8,3.7 4.8,1.3 0,-1.1 0.3,-1 2,0.6 2,1.9 2,1.9 0.5,3.7 -2.1,2.3 -3.1,7.5 -1.5,8.1 0.7,0.2 1.5,1.6 1.8,3.2 0.3,1.4 1,3.2 1.6,3.9 0.6,0.7 1.2,2 1.3,2.8 0.2,1.1 1,1.8 2.1,2 1.6,0.2 1.8,0 1.3,-2 -0.4,-1.6 -0.2,-2.5 0.9,-3.4 2,-1.5 1,-8.7 -1.7,-12 -1,-1.2 -1.9,-3 -1.9,-3.8 0,-0.7 -0.5,-1.8 -1,-2.3 -0.5,-0.7 -1,-3.3 -1,-6.2 -0.1,-5.5 -1.9,-10.6 -4.2,-12 -1,-0.6 -1.8,-0.9 -2.5,-0.8 z m 62.8,1.5 c -0.4,0 -1,0.3 -1.7,1 -0.8,0.9 -1.4,1.8 -1.8,2.9 0.1,0.5 0.2,1 0.2,1.5 0.5,3.2 0.5,6 -0.1,8.3 0.6,0.2 1.4,-0.2 2.3,-1.3 1.3,-1.2 1.8,-2.9 2,-7 0.3,-3.8 0,-5.5 -0.9,-5.4 z m -30.5,33.9 c 2.8,-0.3 1.9,-0.5 3.2,-5 0.7,-2.5 0.5,-2.3 1.2,-3.7 0.6,-1.6 0.9,-3.6 0.6,-4.9 -0.5,-1.8 -0.8,-2 -3.2,-1.6 l -2.6,0.4 1.8,-7.8 0.4,-4.1 -2.1,0.5 c -2,0.5 -2.1,0.5 -2.1,-3.1 0,-2.1 -0.4,-3.8 -1,-4 -0.5,-0.2 -1,-0.4 -1.4,-0.4 -1.8,-0.1 -2.4,1.8 -2.4,6.5 0,3.5 1.3,5.2 2.9,3.9 1.3,-1.1 1.4,-1.4 -0.5,5 -1,3.4 -1.3,5.6 -0.8,6.2 2.9,3.8 4.4,8 6,12.1 z m 46.4,-28.1 c -0.8,0 -1.9,0.5 -3.5,1.4 -2.5,1.4 -3.4,3.9 -3.6,9.2 -0.2,3.7 0.2,4.5 1.5,3.3 0.7,-0.5 1.6,-0.8 2.2,-0.6 1.3,0.5 3.6,-0.7 4.8,-2.2 0.2,-3.9 -0.1,-7.6 -0.4,-10.8 -0.3,-0.2 -0.6,-0.3 -1,-0.3 z m -9.2,0.8 c -0.4,0 -1.9,1.3 -3.4,2.9 -2.5,2.6 -5.1,9.5 -4.2,11 0.5,1 7.3,-3.6 7.9,-5.3 0.3,-0.7 0.5,-3 0.5,-4.9 0,-2.1 -0.4,-3.7 -0.8,-3.7 z m -77.5,4.9 c -0.1,0 -1.3,1.1 -2.6,2.6 -2.6,2.8 -3,6.3 -1.1,9.7 0.6,1.2 1.2,2.8 1.2,3.7 0,1 0.9,2.4 2,3.1 1.9,1.4 1.9,1.4 2.4,-1.3 0.3,-1.6 1,-3 1.6,-3.3 0.8,-0.3 1.2,-1.9 1.2,-5 0,-3.9 -0.4,-5.1 -2.2,-7.1 -1.2,-1.3 -2.3,-2.4 -2.5,-2.4 z m 27.9,1.9 c -1.7,0 -5.9,1.8 -5.9,2.5 0,0.4 -0.9,2.9 -1,3.6 -0.2,1.4 -0.3,1.5 1.6,5.8 0.9,2 4.2,4.2 4.6,4.2 0.8,0 1.6,-2.1 1.6,-4.2 0,-1.6 -0.9,-2.9 0.2,-3.7 0.3,-0.2 -1.2,-2.2 -0.9,-4.3 0.3,-2.4 0.2,-3.9 -0.2,-3.9 z m 22,4.7 c -0.5,1.2 -0.8,2.8 -1.2,5.4 -0.4,3.2 -1,6.5 -1.3,7.2 -0.9,2.6 2.7,1.4 4.9,-1.4 1.7,-2.4 2.3,-2.7 3.2,-1.9 0.6,0.5 1,1.4 0.9,1.8 -0.1,0.4 0.7,1.1 1.7,1.6 1,0.4 1.8,1.3 1.8,2 0,1.6 1.6,0.7 3.5,-1.9 1.2,-1.6 1.6,-3.4 1.6,-6.1 -0.1,-2.4 -0.3,-4.1 -0.8,-5.2 -0.9,0.8 -1.8,1.5 -3,2 -1.3,0.5 -2.8,0.7 -4.2,0.5 l -1.8,3.8 -0.1,-2.8 c 0,-0.4 0,-0.8 0.1,-1.2 -1.4,-0.4 -2.6,-1 -3.5,-1.8 -0.6,-0.6 -1.2,-1.3 -1.7,-2 z m -63.3,3.4 c -0.2,0 -0.3,0.5 0,1.1 0.2,0.7 -0.2,1.5 -0.9,1.9 -2,1.2 -1.8,9.8 0.3,13.2 l 1.6,2.7 2.2,-2.2 c 2.8,-2.7 3.9,-1.7 3.2,2.8 -0.4,2.5 -1,3.5 -2.7,4.2 -2.4,1 -3.9,5.2 -2.5,6.9 0.4,0.5 1,2.2 1.3,3.9 0.6,3.6 3.1,5.4 4.8,3.7 0.7,-0.6 1.2,-1.7 1.2,-2.1 0,-0.5 0.3,-0.9 0.7,-0.9 0.3,0 1.1,-2.6 1.6,-5.8 0.9,-5 0.9,-6.2 -0.4,-10.2 -0.7,-2.6 -1.8,-4.5 -2.4,-4.5 -0.8,0 -1.1,-1.2 -1.1,-3.8 0,-4.3 -2.9,-10.5 -4.5,-9.8 -0.6,0.2 -1.3,0 -1.5,-0.4 -0.4,-0.6 -0.8,-0.8 -0.9,-0.7 z m 92.4,4.6 c -1.4,0.1 -5.5,2.2 -5.9,3.4 -0.2,0.6 -0.6,3.1 -0.9,5.4 l -0.5,4.4 3.8,-0.3 c 2,-0.1 3,-0.1 3.9,0.3 3,-3 5.1,-6.5 6.4,-10.1 l -2.9,0.3 c -2.5,0.2 -3,0 -3,-1.4 0,-0.8 -0.2,-1.7 -0.4,-1.9 -0.1,-0.1 -0.3,-0.1 -0.5,-0.1 z m -49,4.9 c -0.3,0 -0.9,0.2 -1.7,0.5 -1.1,0.5 -2,1.6 -2,2.2 0,0.7 -1.1,3.5 -2.4,6.2 -1.7,3.5 -2.1,5 -1.4,5.3 0.5,0.1 1.3,0.8 1.6,1.4 0.4,0.6 1.5,1.1 2.6,1.1 1.5,0 2,-0.6 2.4,-2.7 0.3,-1.5 1,-3.6 1.6,-4.8 0.9,-1.7 0.9,-2.8 0.2,-5.3 -0.5,-1.8 -0.9,-3.5 -0.8,-3.8 0,0 0,-0.1 -0.1,-0.1 z m -21.7,1 c -0.8,0.1 -1.5,0.7 -1.8,1.8 -0.2,1 -0.9,1.4 -1.5,1.2 -0.6,-0.3 -1.7,-0.7 -2.3,-1 -1,-0.4 -1.2,0.4 -1.2,4.3 0,5.7 1.3,10.5 3.4,12.4 1.4,1.4 1.6,1.4 3,-0.6 l 1.5,-1.9 0.8,2.2 c 0.8,2.1 1.1,2.2 2.2,1.3 1.1,-1 1.2,-2.2 0.7,-8 -0.3,-3.8 -1,-8.1 -1.7,-9.3 -0.8,-1.5 -2,-2.4 -3.1,-2.4 z m -28.1,2.3 c -0.5,6 -1.3,12.2 -1.6,18.3 0.4,0.5 0.9,0.8 1.4,0.8 1,0 1.3,-0.4 1,-1.2 -0.3,-0.6 0,-1.8 0.5,-2.5 0.5,-0.6 0.7,-1.7 0.5,-2.5 -0.3,-0.8 -0.2,-1.8 0.2,-2.3 0.4,-0.5 0.5,-2.9 0.3,-5.3 -0.3,-3.2 -0.8,-4.5 -2.1,-5.2 -0.1,0 -0.1,-0.1 -0.2,-0.1 z m 84.6,2.1 c -0.7,0 -1.9,0.8 -4.2,2.4 -2.6,2 -4.4,2.7 -6.7,2.7 -2.9,0 -3.3,-0.2 -4,-2.5 -0.5,-1.6 -1.3,-2.4 -2.4,-2.4 -2.2,0 -2.7,5.4 -0.7,9.1 0.1,0.1 0.1,0.3 0.2,0.5 0.1,0 0.1,0 0.2,0 5.6,2.4 11.5,2.8 17.1,1.6 0.6,-1.1 1,-2.4 1.3,-4.3 0.5,-2.5 0.7,-5.2 0.4,-5.9 -0.3,-0.8 -0.6,-1.3 -1.2,-1.2 z m 6.7,3.9 c -1.8,0 -2,0.4 -2.1,3 0,1.1 -0.1,1.9 -0.1,2.8 1.9,-0.8 3.8,-1.8 5.5,-3 -0.7,-0.8 -1.3,-1.5 -1.3,-1.9 0,-0.5 -0.9,-0.9 -2,-0.9 z m -35.9,5.2 c -2,0.6 -5.1,8.4 -5.6,13.9 -0.4,4.9 -0.3,5.4 1.1,5.8 1.1,0.3 1.6,1.1 1.6,2.6 0,1.1 0.4,2 0.8,2 0.5,0 1.2,1 1.6,2.1 0.4,1.1 1.1,2 1.4,2 0.5,0 0.9,-0.3 1.5,-0.8 -0.6,-2.1 -1,-4.3 -1,-6.3 -0.3,-6.4 2.1,-12.5 3.9,-18.6 -1,0.5 -2.3,3.3 -3.3,6.9 -0.8,2.7 -0.8,2.7 -0.4,0.3 0.2,-1.6 0.2,-4.4 -0.2,-6.5 -0.3,-2.2 -0.9,-3.6 -1.4,-3.4 z m -19.1,5.5 c -0.4,0.1 -0.8,0.5 -1.3,1.1 -1.3,1.6 -0.3,16.7 1.3,19.8 l 1.2,2.5 1.1,-2.5 c 0.6,-1.3 0.9,-3.3 0.6,-4.4 -0.2,-1 0.2,-2.8 0.9,-3.9 1.2,-2 1.4,-2 2.8,-0.7 1.4,1.3 1.5,1.2 1.9,-1.2 0.7,-2.8 -1.3,-6.6 -3.5,-6.6 -0.8,0 -2,-1 -2.7,-2.1 -1,-1.4 -1.6,-2.1 -2.3,-2 z m -36,5.9 c -1.1,0 -1.6,1.4 -1.8,4.5 0.2,3 0.7,6.1 1.6,9 0.6,1.9 1.4,4.2 2.6,6.1 0.5,-1.9 1.1,-2 2.4,-0.7 0.7,0.7 1.2,0.7 2.1,-0.1 1,-0.8 1.1,-2.6 0.8,-8.9 -0.5,-8.4 -0.7,-9.6 -1.9,-7.6 -0.5,0.9 -1.1,0.7 -2.8,-0.7 -1.4,-1.1 -2.3,-1.7 -3,-1.6 z m 26.2,2.6 c -0.7,0 -1.2,0.3 -1.2,1.1 0,0.5 -0.4,1 -0.8,1 -0.5,0 -0.8,1.3 -0.9,2.7 0,2.5 -0.1,2.6 -0.8,0.8 -0.4,-1.2 -1.3,-1.8 -2.6,-1.8 -2.4,0 -3.2,2 -3.1,7.7 0,4.1 1.4,8 2.9,7.9 0.5,0 1.7,-1.4 2.8,-3 1.4,-2.3 1.7,-3.8 1.4,-6 l -0.5,-2.9 1.1,2.8 c 0.5,1.6 1.8,3.1 2.7,3.4 1,0.4 1.8,1.3 1.8,1.9 0,0.7 0.2,1.8 0.5,2.6 0.4,1 0.3,1.3 -0.4,0.9 -1.2,-0.7 -4.9,1.8 -5.8,4.1 -0.4,1.3 -0.3,2.9 0.6,4.9 0.6,1.7 1.1,4.5 1,6.4 0.8,0.4 1.6,0.8 2.3,1.2 0.1,0.1 0.2,0.1 0.3,0.2 0.2,-0.6 0.6,-1.3 1.1,-1.7 0.6,-0.5 1.2,-1.7 1.2,-2.5 0,-0.7 0.6,-1.8 1.2,-2.5 1.4,-1.1 1.4,-6.1 0.1,-8 -0.5,-0.7 -0.3,-1.3 0.7,-2.1 1.2,-1 1.3,-1.6 0.6,-5.9 -0.9,-5.3 -2.5,-10.3 -4,-12.1 -0.6,-0.7 -1.4,-1.1 -2.1,-1.1 z m 18.2,5.6 c -0.7,0 -1.3,1 -2.5,3.1 -1.5,2.8 -1.7,4 -1.3,8.2 0.4,3.4 1,4.9 1.7,4.9 0.6,0 1.1,0.8 1.1,1.5 0,0.8 0.2,2.7 0.3,4.1 0.2,1.5 0,3 -0.4,3.2 -0.4,0.2 -0.7,0.1 -0.7,-0.4 0,-1.4 -2.6,-4.2 -3.8,-4.2 -1.3,0 -1.3,3.3 -0.1,7.8 1.2,4.6 3.9,6.3 3.9,2.4 0,-1.1 0.4,-2 0.8,-2 0.4,0 0.8,0.3 0.8,0.6 0,0.4 0.4,1.1 0.8,1.8 0.6,1 0.9,0.9 2.3,-0.8 3.2,-3.8 3.8,-5.9 3.7,-11.9 -0.2,-7 -0.9,-9.6 -2.5,-8.9 -0.8,0.4 -1.1,-0.2 -1.1,-2.7 0,-1.8 -0.6,-4 -1.3,-5 -0.7,-1.1 -1.2,-1.7 -1.7,-1.7 z m -30.8,6.3 -1.4,2.1 c -1.1,1.7 -1.4,4.7 -1.1,7.5 0.1,0 0.1,-0.1 0.2,-0.1 -0.1,3.8 1.6,5.1 4.1,7.6 1.7,1.7 4.2,3 6.8,4.1 -0.6,-3.5 -2.1,-7.1 -3.1,-7.1 -0.4,0 -1.2,0.7 -1.8,1.4 -1,1.2 -1.1,0.6 -0.9,-4.7 0.1,-5 -0.2,-6.7 -1.3,-8.6 z m 46.8,7.7 c -2.7,4.7 -2.7,5.5 -1.5,7.3 0.7,1.1 1.3,2.9 1.3,4 v 2 l 2,-2.3 2,-2.4 v 2.5 c 0,2.1 2,5.2 2.7,4.3 0.1,-0.2 0.9,-1.4 1.8,-2.6 1,-1.3 1.3,-2.2 1.4,-4.5 -3.5,-2.5 -7.2,-4.9 -9.7,-8.3 z m -3.4,14 c -0.3,-0.2 0.1,1.7 -0.4,1.9 -1.9,1 -2.2,8.9 -0.3,8.9 1.2,0 4.6,-3.9 4.2,-4.7 -0.2,-0.3 0,-2 -0.6,-3.3 -0.6,-1.1 -2.4,-2.7 -2.9,-2.8 z m -24,-1.9 c -1.5,0 -2.5,3.4 -2.4,6.1 1.4,0.9 2.9,1.7 4.2,2.6 0.2,-0.2 0.3,-0.4 0.5,-0.7 0.8,-1.6 0.8,-2.5 -0.2,-4.9 -0.7,-1.7 -1.6,-3.1 -2.1,-3.1 z m 39,3.8 c -0.6,0 -1,0.3 -1.3,1.2 -0.3,0.8 -1.1,1.1 -2.3,0.8 -1.9,-0.6 -2.2,0.1 -4.4,7.6 -0.9,2.9 -0.8,3.7 0.5,5.9 l 1.4,2.6 1.7,-2.3 1.8,-2.1 0.5,2.9 c 0.7,3.9 1.7,4.6 3.7,2.2 1.5,-1.8 1.6,-2.8 1.3,-9.8 -0.3,-5.1 -0.7,-7.9 -1.4,-8.3 -0.6,-0.4 -1.1,-0.6 -1.5,-0.7 z m -23.8,2.9 c -0.8,0.1 -1.7,0.4 -2.8,0.9 -1.6,0.7 -2,1.5 -2,3.7 0,1.6 0.4,2.7 1,2.7 0.6,0 1.1,1.2 1.2,2.8 0,0.6 0,1 0,1.4 0.2,0.1 0.3,0.2 0.4,0.4 1.6,2 2.7,4.8 3.2,7.5 0.3,1.3 0.5,3.5 0.7,5.8 0.1,-3.2 0.5,-5.9 1.2,-7.5 1.7,-3.3 2,-14.4 0.4,-16.4 -0.8,-1 -1.9,-1.4 -3.2,-1.3 z m 7.6,13.1 c -1.1,0.2 -2.3,3.1 -3,7.9 -1.3,8 -1.3,14 0.1,14.8 0.6,0.4 1.3,1.8 1.6,3.2 0.2,1.3 0.7,3.6 1,5.1 0.6,3 1.2,3.3 2.8,1.3 4.5,-5.5 4,-16.7 -0.7,-16.7 -0.8,0 -1,-0.4 -0.5,-1.4 0.8,-1.8 0.9,-10.7 0.1,-12.7 -0.4,-1.2 -0.9,-1.6 -1.4,-1.5 z m 17.6,7 c -0.9,0.1 -3.2,2.6 -3.2,3.7 0,1.1 -1.4,1 -1.8,-0.2 -0.6,-2 -4.2,1.4 -5.1,4.8 -0.9,3.3 -0.4,12.1 0.9,14.2 0.5,0.9 0.9,0.6 1.8,-1.2 l 1.2,-2.3 1.5,2 c 1.3,1.7 1.6,1.8 2.6,0.8 1.2,-1.3 2.1,-4.6 2.6,-8.5 -0.1,-0.3 -0.2,-0.6 -0.4,-0.9 0.2,0.1 0.3,0.1 0.5,0.1 0.2,-1.9 0.3,-3.9 0.2,-5.9 -0.1,-3.2 -0.3,-6.1 -0.5,-6.5 -0.1,-0.1 -0.2,-0.1 -0.3,-0.1 z" />
    <path style="stroke:none;" d="m 284.4,224.6 c -0.6,1.5 -1,3.3 -1.4,5.2 -0.4,1.8 -0.8,3.7 -1.3,4.9 -1.2,3.1 -3.2,5.6 -5.1,8.2 l 0.8,0.6 c 1.9,-2.6 3.9,-5.2 5.2,-8.4 0.6,-1.4 1,-3.3 1.4,-5.1 0.4,-1.9 0.7,-3.6 1.3,-4.9 0.7,-1.6 2.8,-5.3 2.8,-5.3 0,0 -2.9,3 -3.7,4.8 z m 26.4,40 h -0.3 l -0.1,0.2 c -3.8,4.7 -6.4,10 -13,12.7 l -0.4,0.1 0.1,0.4 c 0.1,1.9 0.2,3.4 -2.2,6.1 -1.4,0 -2,-0.1 -3,-1.1 l -0.7,-0.7 -0.1,1.1 c -0.1,1.8 0.2,2.8 -1.3,5.5 -1.4,-0.4 -1.5,-0.5 -2.3,-1.1 l -1.2,-0.7 0.4,1.3 c 0.2,0.5 0.4,1.2 0.4,1.8 h 1 c 0,-0.2 -0.1,-0.7 -0.1,-0.9 0.4,0.2 0.9,0.6 2,0.9 h 0.4 l 0.1,-0.3 c 1.7,-2.8 1.6,-4.2 1.6,-5.6 0.8,0.6 1.7,0.9 3.1,0.8 h 0.2 l 0.1,-0.1 c 2.6,-2.8 2.7,-4.9 2.5,-6.8 6.6,-2.8 9.5,-8.1 13.1,-12.6 7.5,-0.1 13,-1.1 15.3,-4.4 -2.6,2.2 -8.1,3.3 -15.6,3.4 z m 47.5,122.1 v 0 0 c 0.2,1 0.2,2 0.3,3 l 1,-0.1 c -0.1,-0.9 -0.2,-2 -0.3,-2.9 0,-0.1 0,-0.1 0,-0.1 0.7,-12.2 -2.4,-18.9 -6.7,-23.8 3.4,5.4 6.4,11.8 5.7,23.9 z m 57.1,7.9 c 2.5,5 4.4,11.1 4.7,16.5 0,0 0,0 0,0.1 -0.1,0.7 -0.3,1.3 -0.5,2 l 1,0.2 c 0.2,-0.6 0.4,-1.3 0.5,-2.1 v -0.1 0 c -0.3,-5.7 -2.3,-11.9 -4.8,-17 -2.6,-5.2 -5.7,-9.3 -8.8,-10.7 2.2,2 5.4,6.1 7.9,11.1 z" />
    <path style="stroke:none;" d="m 253.8,340.5 c 0.7,1 0.7,2.2 0.6,3.5 0,1.2 -0.1,2.3 0.2,3.2 0.5,1.2 1.1,1.6 1.7,1.8 0.6,0.2 1,0.1 1,0.1 l 0.2,1 c 0,0 -0.6,0.1 -1.5,-0.1 -0.8,-0.3 -1.8,-1 -2.3,-2.4 -0.5,-1.2 -0.3,-2.5 -0.3,-3.6 0.1,-1.2 0.1,-2.2 -0.4,-2.9 -1,-1.3 -2.3,-2.3 -2.3,-2.3 0,0 1.8,0 3.1,1.7 z m -8.5,8 c -0.4,2.7 -2.2,5.7 -2.6,8.1 -0.3,1.6 0,2.6 0.2,3.3 0.3,0.7 0.7,1 0.7,1 l -0.8,0.7 c 0,0 -0.4,-0.5 -0.8,-1.3 -0.3,-0.9 -0.6,-2.1 -0.3,-3.9 0.5,-2.7 2.2,-5.7 2.6,-8.1 0.2,-1.9 0,-5.2 0,-5.2 0,0 1.3,3.1 1,5.4 z m -8.8,-0.9 c -0.7,1.1 -1.5,2 -2.2,3.4 l -0.9,-0.4 c 0.7,-1.6 1.6,-2.5 2.2,-3.5 0.6,-1.1 0.9,-2 1.2,-3.8 0.7,1.8 0.3,3.1 -0.3,4.3 z" />
    <path style="stroke:none;" d="m 399.9,519.4 c -0.9,0 -1.8,-0.3 -2.7,-0.5 -2,-0.4 -4.2,-0.8 -6.7,0.6 l -0.5,-0.9 c 1.4,-0.9 2.8,-1.1 4,-1.1 1.2,-0.1 2.4,0.1 3.4,0.5 1,0.2 1.8,0.4 2.5,0.4 0.6,0 1.1,-0.2 1.9,-0.4 -0.2,1.1 -1.1,1.4 -1.9,1.4 z m 2.5,6.9 c -2.4,0.3 -5.6,0.3 -7.3,1.4 -1.7,1.2 -2.8,2.3 -3.2,5.2 l -1,-0.1 c 0.4,-3.2 1.9,-4.7 3.7,-5.9 2.1,-1.6 5.5,-1.3 7.7,-1.7 2.2,-0.3 3.4,-1.4 3.4,-1.4 0,0 -0.7,2.2 -3.3,2.5 z m 4.3,8.7 c -0.7,2.2 0,4.3 0,4.3 l -0.9,0.3 c 0,0 -1,-2.4 0,-4.9 1.4,-3.9 3.9,-6.3 8.1,-6.2 -3.8,1 -5.9,2.9 -7.2,6.5 z" />
    <path style="fill:none;" d="m 380,153 -70.6,30.8 c -5.9,17.1 -18.5,11.9 -28.3,31.9 -4.5,9.1 -5.8,17.2 -4.3,27.9 -1.1,1.4 -2.3,3.1 -3.3,5 -3.4,6.4 -4.5,13.3 -7.8,19.5 -4.1,7.6 -9.5,14.4 -14.6,21.3 -4.8,6.4 -11.6,10.9 -14,18.6 -1.5,5.4 -1.3,8.6 0,13.8 0.5,2 -0.4,9.2 -1.5,12 -2.2,5.5 -6.7,7.7 -6.1,13.4 0.4,4.3 4.5,3.5 4.5,3.5 -3.8,10.9 4.2,15.7 9.3,10.6 2.7,3.3 16.2,1.6 14,-11.7 6.5,-1.2 6.9,-11.6 3.8,-15.3 0,0 0.6,-5.2 0.5,-7.9 -0.1,-1.4 0,-5.9 0,-5.9 1.9,-8.5 12.3,-14.1 13.8,-21.9 1.1,1.4 2.1,2.3 3.8,2.2 1.8,-2.3 2,-4.2 1.5,-6.7 1.8,0.7 2.7,1.7 5.7,0.7 1,-1.8 1.3,-3.4 1.2,-4.7 4.3,11.7 11.6,23.4 18.8,33.3 9.3,12.8 18.3,19.7 32.4,36.4 7.4,8.7 12.3,15.1 20,26.9 2,15.8 -5,35.6 -0.1,51.6 1.3,4.2 3.4,9.1 7.3,10.7 1.5,0.7 2.3,0.9 4.2,-0.2 -0.1,3.8 1.6,5.2 4.2,7.6 2.8,3 8.3,4.7 11.8,6.7 6.7,4.2 13.8,8.3 18.7,14.6 1.6,2.1 2.7,4.8 3.2,7.5 0.9,4.1 1.1,15.3 0.9,20.5 -0.1,3 -1,5 -6,4 -10.9,-2.1 -13.2,4.5 -12.5,9.2 -9.2,5.1 -3.6,14.8 0.9,13.8 -0.4,13.3 13.4,12 14.7,6.4 4.9,12.1 18.8,4.2 17.8,-4.9 8.7,-4.6 8.7,-11.6 9.8,-18.2 1.4,0.7 2.9,1.5 4.3,0 1.1,-6.6 -0.7,-11.4 -2.8,-16 1.6,0.4 3.1,0.7 4.1,-0.1 1.2,-6.1 0.3,-10.3 -3.1,-16.4 1.8,-0.4 2.8,-1.1 3.2,-2 0,-5.2 -2,-8.3 -2.9,-14.7 -0.3,-2.1 0.5,-4.3 -0.3,-6.3 -0.9,-2.3 -3.1,-2.3 -5,-3.8 -4.5,-3.1 -9.7,-6 -12.7,-10.7 -2,-3.3 -2.9,-7.4 -3.1,-11.3 -0.4,-7.9 3.5,-15.6 5.1,-23.5 1.5,1.2 3.2,2.2 5.2,3 11.1,4.6 23.5,1.5 31.8,-6.5 11.1,-11 9.3,-26.3 8.4,-36.2 -1.8,-19.7 -11.4,-35.6 -19.4,-50.2 -8,-14.6 -14.5,-27.5 -14.4,-41.1 0,-5.9 2.7,-12.1 6.6,-19.8 3.9,-7.6 9.6,-16.2 10.9,-27.4 1.5,-12.4 -3.4,-18.1 -8.3,-18.4 -5.3,-0.4 -10.6,5.2 -11.4,15 -0.6,6.3 -4.7,13.1 -8.9,21.2 -4.1,8 -8.9,17.6 -8.9,29.3 -0.1,20 8.8,36.5 17,51.3 8.2,14.8 14.9,28.4 16.9,42 1.2,8.6 -1.2,14 -6.3,16.1 -3.3,1.3 -7.5,0.5 -9.6,-1.5 -3.7,-3.5 -5.7,-9.7 -9.1,-14.9 -5.7,-8.4 -12,-14.4 -16.4,-18.1 -1.1,-2.4 -2.2,-4.9 -3.1,-7.2 -1.5,-3.7 -3.2,-7.2 -5,-10.7 -8,-15.1 -17.5,-29.7 -25.1,-44.9 -4.6,-9 -9.1,-17.2 -11.1,-27.2 -1.1,-5.1 -1.7,-10 -0.7,-15.1 1.2,-6.5 4.8,-12.7 6.4,-19.1 1.9,-7.7 3,-23.6 3,-23.6 13.4,-19.7 17.8,-40.5 11,-54.2 z" />
    <path style="fill:#e6e6e6;" d="m 392.4,512 c -4.5,1.1 -6.2,3.6 -7.5,7.2 2.1,-1.2 2.4,-2.2 5.4,-1.5 0.8,-0.8 1.4,-1.1 2.6,-2.5 0.4,-1.3 0,-2.3 -0.5,-3.2 z m -6.6,14.7 c -2.6,4 -2.2,7 -0.8,11.5 1.6,-3.9 2.9,-5 5.2,-5.9 -0.2,-1.2 0.2,-1.7 -0.7,-4 -1.8,-1.1 -2.9,-1.5 -3.7,-1.6 z m 14.4,13.2 c -2,0.9 -2.9,1.6 -3.6,2.2 1.7,4.4 4.3,5.8 8.8,7.3 -2.3,-3.6 -2.4,-5.3 -1.7,-7.7 -1.1,-0.6 -1.3,-1.3 -3.5,-1.8 z m 15.4,1.9 c -1.8,1.2 -2.5,2 -3,2.9 2.5,4 5.4,4.9 10,5.3 -2.9,-3.1 -3.3,-4.6 -3.2,-7.3 -1.1,-0.3 -1.4,-0.8 -3.8,-0.9 z" />
    <path style="fill:#e6e6e6;" d="m 261.5,346.1 c 2,2.5 2.9,2.9 5.3,3.2 -2.9,1.9 -4.8,1.6 -8.7,-0.1 0.6,-2.8 0.8,-3 3.4,-3.1 z m -31.9,0.5 c 2.8,0.5 3,0.7 3.2,3.3 -2.2,2.2 -2.7,3.1 -2.8,5.7 -1.9,-3 -1.8,-4.8 -0.4,-9 z m 20.5,14.2 c 0.5,0.1 1,0.4 1.9,0.9 0.4,3.1 1,4.1 2.9,5.6 -3.4,0 -4.9,-1.2 -7.4,-4.7 1.2,-1.4 1.8,-1.9 2.6,-1.8 z m -13,0.2 c 0.8,-0.1 1.3,0.4 2.2,1.9 -1,3.1 -0.9,4.1 0.1,6.3 -3,-1.6 -3.8,-3.2 -4.5,-7.6 1,-0.4 1.7,-0.6 2.2,-0.6 z" />
  </g>
  <g>
    <path style="fill:#ffdd00;" d="m 342.4,124.1 c 0.9,-8.2 8.7,-15 16,-15.1 -2.3,6.4 1.4,9.1 -0.2,22.4 z" />
    <path style="fill:#552200;" d="m 321.6,155.3 c 7,4.8 5.5,17 3.9,21.6 0,0 6.2,-1.2 8.4,-3.3 2,-1.7 3.3,-4.4 3.8,-7.1 0.5,-2.8 0.2,-6 -1.3,-8.5 -1.4,-2.4 -3.9,-4.3 -6.6,-4.8 -2.7,-0.7 -8.2,2.1 -8.2,2.1 z" />
    <path style="fill:#cc0000;" d="m 337,169.6 c 0,0 -3.8,-2.6 -9.6,-2 -3.8,0.5 -9.8,2.2 -15.2,2.3 -5.3,0.1 -13.7,-0.7 -14.6,-6.6 -0.2,-1.3 0.5,-2.4 1.7,-2.8 3.7,-1 7.3,2.5 12.6,3.3 5.6,1 9.9,-0.4 15,-0.8 4.5,-0.3 11.1,1.9 11.1,1.9 z" />
    <path style="fill:#ffffff;" d="m 326.9,175.4 c -1.2,-3.1 -3.1,-4.5 -3.3,-9.1 -3.8,2.5 -4.5,5.8 -3.4,10.7 z" />
    <path style="fill:#ffffff;" d="m 309,154.2 c -0.6,3.5 -2.2,5.2 -1.5,9.7 -4.2,-1.6 -5.5,-4.7 -5.4,-9.7 z" />
    <path style="fill:#ffffff;" d="m 317.2,155.4 c -0.4,3.5 -1.8,5.4 -0.8,9.8 -4.3,-1.4 -5.8,-4.3 -6,-9.4 z" />
    <path style="fill:#ffdd00;stroke:none;" d="m 378.7,156.2 c 6,-3.2 12.7,-11.9 7.6,-30.8 -5.3,5.1 -9.9,-0.1 -18.5,5.4 -4.1,-9.2 -29.7,-13.3 -44.3,-9.4 -3.5,1.1 -6.1,2.7 -6.5,6.1 -5.5,2 -16.9,2.8 -20.6,6.6 -2.1,2.3 -0.2,6.5 1.3,7.4 -3.2,3.8 -0.6,14.7 4.2,13.2 5.8,6.2 19.5,3.1 22.3,2.1 0,0 4.7,-1.2 6.7,-0.1 2.1,1 3.7,3.4 4.2,5.8 0.5,2.9 -0.2,6.3 -2,8.6 -1.7,2.2 -4,3 -6.8,3.1 -3.3,0 -3.9,-2.1 -8.8,-3.6 -2.6,-0.8 -7.6,-1.4 -9.6,0.5 -0.7,0.7 -0.7,2.6 -1,3.3 -1,2.8 -2.5,3.2 -3.2,5.6 -1.8,6 1.1,7.9 -3.2,9.8 6,1.7 12.1,-2.1 13.4,-5.9 0.4,0.9 0.9,2.1 0.4,4.5 4.3,0.3 4.3,-4 6.3,-6.2 -0.1,1.4 0.2,2.7 1.5,4.4 1.8,-2.1 3,-5.1 5.6,-6.2 3.4,-1.4 6.9,-3.2 9.3,-6.5 3,4.2 7.9,6.2 13.5,6.4 5.9,0.2 7.1,-3.2 13.5,-1 1,-1.7 1.3,-3.5 0.3,-5.6 2.1,0.8 4.2,1.1 6.4,0.2 0.8,-2 0.2,-3.8 -0.4,-5.6 1.8,0.2 3.5,0.9 5.4,-0.3 -0.3,-1.7 0.4,-2.6 -1.1,-5.3 1.8,0.6 3.5,-0.1 5.6,-0.9 -0.5,-1.8 1,-2.7 -1.5,-5.6 z" />
    <path style="fill:#f0f0f0;stroke:none;" d="m 386.3,125.4 c 5.1,18.9 -1.6,27.6 -7.6,30.8 2.5,2.9 1,3.8 1.5,5.6 -2.1,0.8 -3.8,1.5 -5.6,0.9 1.5,2.7 0.8,3.6 1.1,5.3 -1.9,1.2 -3.6,0.5 -5.4,0.3 0.6,1.8 1.2,3.6 0.4,5.6 -2.2,0.9 -4.3,0.6 -6.4,-0.2 1,2.1 0.7,3.9 -0.3,5.6 -6.4,-2.2 -7.6,1.2 -13.5,1 -5.6,-0.2 -10.5,-2.2 -13.5,-6.4 -2.4,3.3 -5.9,5.1 -9.3,6.5 -2.6,1.1 -3.8,4.1 -5.6,6.2 -1.3,-1.7 -1.6,-3 -1.5,-4.4 -2,2.2 -2,6.5 -6.3,6.2 0.5,-2.4 0,-3.6 -0.4,-4.5 -1.3,3.8 -7.4,7.6 -13.4,5.9 4.3,-1.9 1.4,-3.8 3.2,-9.8 0.7,-2.4 2.2,-2.8 3.2,-5.6 0.3,-0.7 0.3,-2.6 1,-3.3 2,-1.9 7,-1.3 9.6,-0.5 4.9,1.5 5.5,3.6 8.8,3.6 2.8,-0.1 5.1,-0.9 6.8,-3.1 1.8,-2.3 2.5,-5.7 2,-8.6 -0.5,-2.4 -2.1,-4.8 -4.2,-5.8 -2,-1.1 -6.7,0.1 -6.7,0.1 -2.8,1 -16.5,4.1 -22.3,-2.1 -4.8,1.5 -7.4,-9.4 -4.2,-13.2 -0.7,-0.5 -1.6,-1.7 -2,-3.1 l 4,1.7 9.1,-2 c 2.6,-0.3 12,-0.7 15.6,3 2.6,3.2 4,6.8 1.5,10.8 2.5,-0.7 7.3,-0.3 10,2.5 0.9,0.9 1.7,1.8 2.3,2.9 1,1.5 5.9,1.1 7,5.5 0.3,1.5 2.5,3.7 3.4,4.2 2.3,1.2 1.7,1.2 3.9,1.2 1.1,0 2.2,0.7 3.2,0 1.7,-1.2 -0.2,-2.9 1.4,-4.2 1.2,-0.9 3,1.6 4.2,0.6 0.8,-0.9 0.7,-2.5 1.5,-3.4 0.9,-1 2.6,1.1 3.5,0.2 0.7,-0.8 0.7,-1.4 1.3,-2.3 0.4,-0.6 2.2,-0.4 3,-0.4 0.5,0 1.2,-0.8 1.4,-1.3 0.3,-0.6 2,1 3.2,0.6 1,-0.3 1.3,-1.6 1.5,-2.1 0.2,-0.4 1,-2.7 0.4,-3.3 -0.6,-0.4 -2.6,-0.1 -2.6,-0.1 l 0.7,-2.8 h -3.7 l 1.8,-5.1 -3.9,1.4 0.9,-5.6 -5.1,1.9 c 1.9,-4 4.4,-6.3 6.8,-8 2.9,-2.1 5.7,-2.1 8.2,-3 2.9,-1 5.2,-2.4 6.1,-5.9 z" />
    <path style="fill:#40310f;stroke:none;" d="m 303.3,156.3 4.3,1 c -7.1,-3.7 -7.1,-13.6 -5.4,-15.3 l -0.9,0.3 c -1.6,1.2 -1.2,10.7 2,14 z" />
    <path style="stroke:none;" d="m 384.5,128.7 c -1.1,1.1 -2.5,1.6 -4,1.9 -1.6,0.4 -3.3,0.5 -4.9,1.1 -3.6,1.2 -7.2,3.7 -10.8,10.4 l -0.7,1.3 1.3,-0.6 c 1.6,-0.6 3.1,-1.3 4.4,-1.4 -0.7,1.5 -1.3,3 -1.2,4.7 l 0.1,0.7 0.6,-0.3 c 1.1,-0.5 2.1,-0.9 3.3,-1.1 -0.7,1.4 -1.5,2.8 -1.6,4.5 v 0.6 l 0.6,-0.1 c 1,-0.2 1.7,-0.4 3,-0.5 -0.4,1.4 -0.5,2.3 0.2,2.6 0.1,-0.9 0.4,-2 0.9,-3 l 0.3,-0.9 -0.7,0.1 c -2,0.1 -2.4,0.4 -3.1,0.6 0.3,-1.4 1.1,-2.9 1.8,-4.5 l 0.3,-0.7 h -0.8 c -1.6,0 -2.7,0.5 -3.7,1.1 0.1,-1.4 0.6,-2.7 1.2,-4.2 l 0.3,-0.7 -0.6,-0.1 c -1.4,-0.2 -2.8,0.3 -4.2,1 3.2,-5.4 6.3,-7.6 9.4,-8.6 1.9,-0.6 8.2,-1.2 8.6,-3.9 z m -16.5,2.5 -0.5,-0.8 c -1.6,1 -3,2.1 -4.2,3.1 -1.5,1.4 -2.2,2.9 -2.7,4.6 1.5,-2.2 3.8,-4.6 7.4,-6.9 z m -40.4,16.2 c -0.1,-3.7 -2.2,-6.9 -5.5,-8.1 2.5,1.9 4.4,4.8 4.5,8.1 0,2.5 -1,5.6 -3.2,7.4 3.1,-1.2 4.2,-4.6 4.2,-7.4 z m 11.8,17.1 c -0.2,4 -1.3,6.8 -2.8,9.1 l 0.8,0.5 c 1.7,-2.2 2.8,-5.4 3,-9.5 0.3,-7.4 -4.2,-11.4 -8.5,-12.6 3.7,2.1 7.8,5.5 7.5,12.5 z" />
    <path style="fill:#40310f;stroke:none;" d="m 331,127.9 c -1.2,0.6 -3.5,2.5 -3.5,2.5 -1.8,-0.1 -4.5,-0.2 -6.3,1.6 1.5,-0.3 2.8,-0.4 4.1,0.6 0,0.7 0,1.5 0,2.1 0,0 -3.2,1 -4.6,1.7 -0.9,0.5 -2.2,1.6 -2.2,1.6 0,0 2.1,-0.3 3.2,-0.4 1.2,-0.3 2.4,-0.4 3.6,-0.3 0.6,0.1 1.5,0.7 1.5,0.7 2.2,2.1 7.2,2.6 10.4,0.1 l 1.9,1 c 0,0 -1,-2.6 -1.3,-3.3 -0.7,-1.6 -1.7,-2.3 -3.4,-3.8 -0.5,-0.4 -0.9,-0.9 -0.8,-1.6 0.1,-1 1,-1.9 1.8,-2.3 1.1,-0.6 4.1,-1.1 4.1,-1.1 -2.9,-0.5 -5.8,-0.5 -8.5,0.9 z m -34.7,6.3 c -1.3,2.3 -0.5,4.9 1,6.9 0.8,0.6 1.2,0.9 2,0.7 0,0 0.4,1.7 0.6,2.3 0.5,1.3 1.3,2.1 1.3,2.1 0,0 0.5,-1.9 0.9,-2.8 0.4,-0.9 1,-1.5 2,-1.9 1.2,-0.7 3,0.1 4.1,-0.8 0.7,-0.5 1.5,-2.9 1.5,-2.9 0,0 -2,0 -4.2,-0.5 -1.7,-0.3 -5.2,1.6 -5.2,1.6 -2,-1.2 -3.6,-2.3 -4,-4.7 z m 25.5,9.6 c -0.7,0 -1.2,0.5 -1.2,1.1 0,0.8 0.5,1.3 1.2,1.3 0.6,0 1.2,-0.5 1.2,-1.3 0,-0.6 -0.6,-1.1 -1.2,-1.1 z m -3.7,2 c -0.7,0 -1.2,0.5 -1.2,1.2 0,0.6 0.5,1.1 1.2,1.1 0.7,0 1.2,-0.5 1.2,-1.1 0,-0.7 -0.5,-1.2 -1.2,-1.2 z m -4.4,0.5 c -0.7,0 -1.2,0.5 -1.2,1.1 0,0.7 0.5,1.2 1.2,1.2 0.6,0 1.1,-0.5 1.1,-1.2 0,-0.6 -0.5,-1.1 -1.1,-1.1 z m 7.8,2.2 c -0.6,0 -1.2,0.6 -1.2,1.3 0,0.6 0.6,1.1 1.2,1.1 0.7,0 1.2,-0.5 1.2,-1.1 0,-0.7 -0.5,-1.3 -1.2,-1.3 z m -3.2,1.4 c -0.6,0 -1.1,0.5 -1.1,1.1 0,0.7 0.5,1.2 1.1,1.2 0.7,0 1.2,-0.5 1.2,-1.2 0,-0.6 -0.5,-1.1 -1.2,-1.1 z m -4.5,0.3 c -0.7,0 -1.2,0.5 -1.2,1.1 0,0.7 0.5,1.2 1.2,1.2 0.6,0 1.2,-0.5 1.2,-1.2 0,-0.6 -0.6,-1.1 -1.2,-1.1 z" />
    <path style="fill:#40310f;stroke:none;" d="m 352.8,130 c -0.9,0 -1.8,0.6 -2.6,1.7 -1.7,2.2 -2.3,4.3 -1.7,6.5 0.4,1.8 2.5,2.2 3.1,0.6 0.8,-2.1 2.1,-1 2.1,1.6 0,1.5 -0.2,2.7 -0.5,2.7 -0.7,0 -0.6,1.6 0.3,4.6 0.8,2.9 2.4,3.6 2.4,1.1 0,-0.9 0.2,-1.7 0.4,-1.9 0.8,-0.9 2.7,-7.5 2.8,-9.6 0,-2.6 -1.4,-3.4 -3.3,-1.7 -1.2,1.1 -1.2,1.1 -0.8,-1.6 0.3,-2.1 0.2,-3 -0.5,-3.4 -0.6,-0.4 -1.1,-0.6 -1.7,-0.6 z m -8,7.4 c 0,0 -0.1,0 -0.1,0.2 -0.3,0.1 -0.4,0.8 -0.5,2.4 -0.2,3.1 0.5,4.6 1.7,3.8 1.2,-0.7 0.9,-5 -0.4,-5.9 -0.2,-0.2 -0.5,-0.5 -0.7,-0.5 z m 4.4,5.9 c -1.6,0.1 -3.5,4.1 -3.1,7.4 0.4,2.8 1.7,6.3 2.4,6.3 0.7,0 3.1,-3.4 3.1,-4.5 0,-0.4 0.4,-1.4 0.8,-2 0.8,-1.3 0.5,-2.1 -2.3,-6.6 -0.3,-0.4 -0.6,-0.6 -0.9,-0.6 z m 14.1,0.2 c -0.6,0 -1.2,0.6 -1.8,1.9 -1.4,2.6 -1,5.4 0.9,7.4 2.5,2.3 3.2,2.1 3.7,-0.8 0.4,-2.5 -0.4,-6.2 -1.7,-7.8 -0.3,-0.5 -0.7,-0.7 -1.1,-0.7 z m -21.6,1 c 0,0 -0.1,0 -0.2,0 -1.3,0.2 -2.8,3.3 -2.8,7 0,3.1 0,3.3 1.5,3 1.7,-0.3 3.8,-3.9 3.3,-5.5 -0.1,-0.6 -0.4,-1.7 -0.6,-2.7 -0.3,-1.1 -0.7,-1.8 -1.2,-1.8 z m 16.4,7.2 c -0.7,0.1 -1.2,0.6 -1.4,1.6 -0.1,0.7 -0.5,1.4 -0.8,1.6 -1.1,0.8 -1.3,4.4 -0.3,5.2 0.5,0.6 1,1.5 1,2.2 0,0.6 0.4,1.1 0.9,1.1 0.6,0 1,-0.4 1,-1 0,-0.5 0.7,-1.6 1.5,-2.5 2.1,-1.9 2.7,-4.2 1.4,-4.8 -0.6,-0.2 -1.3,-1.1 -1.6,-1.9 -0.4,-1.1 -1.1,-1.5 -1.7,-1.5 z m -14.4,4.7 c -0.6,0 -1.3,0.6 -1.9,1.4 0.2,0.9 0.4,1.9 0,3.7 1.8,0.1 2.8,-0.5 3.5,-1.5 0,-0.2 -0.1,-0.4 -0.2,-0.5 -0.4,-0.4 -0.7,-1.3 -0.7,-1.9 0,-0.7 -0.3,-1.2 -0.7,-1.2 z m 7.5,3.2 c -1.3,0 -2.3,1.7 -2.7,4.6 -0.4,3 1,4.3 2.9,2.4 0.7,-0.6 1.5,-1 1.9,-1 1.2,0 1,-3.7 -0.2,-4.9 -0.7,-0.8 -1.3,-1.1 -1.9,-1.1 z" />
    <path style="fill:#ffffff;stroke:none;" d="m 331.2,131.5 c 1.1,0.4 1.7,0.9 2.7,1.5 1.8,1 2.6,2.1 2.2,3.7 -0.5,1.9 -3.3,2.5 -4.9,2.3 -2.5,-0.2 -4.8,-1.6 -4.7,-4.2 0.2,-2.8 2.1,-4.3 4.7,-3.3 z" />
    <path style="fill:#772b07;stroke:none;" d="m 329.8,130.9 c -2,0 -3.6,1.6 -3.6,3.7 0,2.1 1.6,3.8 3.6,3.8 2.1,0 3.7,-1.7 3.7,-3.8 0,-2.1 -1.6,-3.7 -3.7,-3.7 z" />
    <path style="fill:#000000;stroke:none;" d="m 329.8,132.2 c -1.3,0 -2.3,1.1 -2.3,2.4 0,1.3 1,2.4 2.3,2.4 1.4,0 2.4,-1.1 2.4,-2.4 0,-1.3 -1,-2.4 -2.4,-2.4 z" />
    <path style="fill:#ffffff;stroke:none;" d="m 329.8,133.5 a 1.15,1.181 0 0 1 -1.1,1.2 1.15,1.181 0 0 1 -1.1,-1.2 1.15,1.181 0 0 1 1.1,-1.2 1.15,1.181 0 0 1 1.1,1.2 z" />
    <path style="fill:none;" d="m 378.7,156.2 c 6,-3.2 12.7,-11.9 7.6,-30.8 -5.3,5.1 -9.9,-0.1 -18.5,5.4 -4.1,-9.2 -29.7,-13.3 -44.3,-9.4 -3.5,1.1 -6.1,2.7 -6.5,6.1 -5.5,2 -16.9,2.8 -20.6,6.6 -2.1,2.3 -0.2,6.5 1.3,7.4 -3.2,3.8 -0.6,14.7 4.2,13.2 5.8,6.2 19.5,3.1 22.3,2.1 0,0 4.7,-1.2 6.7,-0.1 2.1,1 3.7,3.4 4.2,5.8 0.5,2.9 -0.2,6.3 -2,8.6 -1.7,2.2 -4,3 -6.8,3.1 -3.3,0 -3.9,-2.1 -8.8,-3.6 -2.6,-0.8 -7.6,-1.4 -9.6,0.5 -0.7,0.7 -0.7,2.6 -1,3.3 -1,2.8 -2.5,3.2 -3.2,5.6 -1.8,6 1.1,7.9 -3.2,9.8 6,1.7 12.1,-2.1 13.4,-5.9 0.4,0.9 0.9,2.1 0.4,4.5 4.3,0.3 4.3,-4 6.3,-6.2 -0.1,1.4 0.2,2.7 1.5,4.4 1.8,-2.1 3,-5.1 5.6,-6.2 3.4,-1.4 6.9,-3.2 9.3,-6.5 3,4.2 7.9,6.2 13.5,6.4 5.9,0.2 7.1,-3.2 13.5,-1 1,-1.7 1.3,-3.5 0.3,-5.6 2.1,0.8 4.2,1.1 6.4,0.2 0.8,-2 0.2,-3.8 -0.4,-5.6 1.8,0.2 3.5,0.9 5.4,-0.3 -0.3,-1.7 0.4,-2.6 -1.1,-5.3 1.8,0.6 3.5,-0.1 5.6,-0.9 -0.5,-1.8 1,-2.7 -1.5,-5.6 z" />
  </g>
</g>
<use id="shine" xlink:href="#shield" style="fill:url(#rg);stroke:#000000;stroke-width:3;" />
</svg>
