<?xml version="1.0" encoding="UTF-8"?>
<svg xmlns="http://www.w3.org/2000/svg" xmlns:xlink="http://www.w3.org/1999/xlink" width="600" height="600">
<defs>
  <radialGradient id="rg" gradientUnits="userSpaceOnUse" cx="220" cy="220" r="405">
    <stop style="stop-color:#fff;stop-opacity:.3" offset="0"/>
    <stop style="stop-color:#fff;stop-opacity:.2" offset=".2"/>
    <stop style="stop-color:#666;stop-opacity:.1" offset=".6"/>
    <stop style="stop-color:#000;stop-opacity:.13" offset="1"/>
  </radialGradient>
  <filter id="sand-filter" style="color-interpolation-filters:sRGB;">
    <feTurbulence id="feTurbulence101" result="result0" seed="0" baseFrequency="3" numOctaves="3" type="fractalNoise" />
    <feColorMatrix id="feColorMatrix103" type="saturate" values="0" result="result4" />
    <feComposite id="feComposite105" result="result2" k3="0.5" k2="0.5" k1="1.25" operator="arithmetic" in2="result4" in="SourceGraphic" />
    <feBlend id="feBlend107" in2="SourceGraphic" in="result2" mode="normal" result="result5" />
    <feComposite id="feComposite109" result="result3" operator="in" in2="SourceGraphic" in="result5" />
  </filter>
  <pattern id="sand" patternUnits="userSpaceOnUse" width="600" height="600">
    <rect width="600" height="600" style="fill:#ffdd77"/>
    <rect width="75" height="75" style="opacity:0.5;fill:#ffdd77;filter:url(#sand-filter);" transform="scale(8)"/>
  </pattern>
  <circle id="shield" cx="300" cy="300" r="298"/>
</defs>
<use id="background" xlink:href="#shield" style="fill:url(#sand)"/>
<g style="fill:#000000;stroke:url(#sand);stroke-width:1;">
  <path d="m 130.39,118.51 v 21.59 c 18.42,0.27 30.07,4.46 33.99,29.09 v 249.36 l 31.98,-53.46 h -12.01 v -33.1 c 14.95,0 28.4,0.2 43.34,0 v 33.1 h -14.27 l 23.59,53.46 23.64,-53.46 h -14.27 v -33.1 h 44.55 v 33.1 h -14.25 l 23.32,53.46 23.31,-53.46 h -14.25 v -33.1 h 43.98 v 33.1 h -14.27 l 23.64,53.46 23.59,-53.46 h -14.27 v -33.1 c 14.94,0.2 28.99,0 43.91,0 v 33.1 h -12 l 31.92,53.46 v -249.36 c 3.91,-24.63 15.63,-28.82 34.05,-29.09 v -21.59 z m 52.69,34.44 h 39.31 v 33.35 h -39.31 z m 64.88,0 h 39.25 v 33.35 h -39.25 z m 64.83,0 h 39.24 v 33.35 h -39.24 z m 64.82,0 h 39.25 v 33.35 h -39.25 z m -194.53,55.31 h 39.31 v 37.4 h -39.31 z m 64.88,0 h 39.25 v 37.4 h -39.25 z m 64.83,0 h 39.24 v 37.4 h -39.24 z m 64.82,0 h 39.25 v 37.4 h -39.25 z m -194.53,59.38 h 39.31 v 37.42 h -39.31 z m 64.88,0 h 39.25 v 37.42 h -39.25 z m 64.83,0 h 39.24 v 37.42 h -39.24 z m 64.82,0 h 39.25 v 37.42 h -39.25 z"/>
  <path style="fill:#222222;stroke:none;" d="m 431.91,318 a 8.3709,8.508 0 0 1 -8.37,8.51 8.3709,8.508 0 0 1 -8.37,-8.51 8.3709,8.508 0 0 1 8.37,-8.51 8.3709,8.508 0 0 1 8.37,8.51 z m -59,0 a 8.3709,8.508 0 0 1 -8.37,8.51 8.3709,8.508 0 0 1 -8.37,-8.51 8.3709,8.508 0 0 1 8.37,-8.51 8.3709,8.508 0 0 1 8.37,8.51 z m -64.4,0 a 8.3709,8.508 0 0 1 -8.37,8.51 8.3709,8.508 0 0 1 -8.37,-8.51 8.3709,8.508 0 0 1 8.37,-8.51 8.3709,8.508 0 0 1 8.37,8.51 z m -64.7,0 a 8.3709,8.508 0 0 1 -8.37,8.51 8.3709,8.508 0 0 1 -8.37,-8.51 8.3709,8.508 0 0 1 8.37,-8.51 8.3709,8.508 0 0 1 8.37,8.51 z m -59,0 a 8.3709,8.508 0 0 1 -8.37,8.51 8.3709,8.508 0 0 1 -8.37,-8.51 8.3709,8.508 0 0 1 8.37,-8.51 8.3709,8.508 0 0 1 8.37,8.51 z m 247.1,-60.69 a 8.3709,8.508 0 0 1 -8.37,8.51 8.3709,8.508 0 0 1 -8.37,-8.51 8.3709,8.508 0 0 1 8.37,-8.51 8.3709,8.508 0 0 1 8.37,8.51 z m -59,0 a 8.3709,8.508 0 0 1 -8.37,8.51 8.3709,8.508 0 0 1 -8.37,-8.51 8.3709,8.508 0 0 1 8.37,-8.51 8.3709,8.508 0 0 1 8.37,8.51 z m -64.4,0 a 8.3709,8.508 0 0 1 -8.37,8.51 8.3709,8.508 0 0 1 -8.37,-8.51 8.3709,8.508 0 0 1 8.37,-8.51 8.3709,8.508 0 0 1 8.37,8.51 z m -64.7,0 a 8.3709,8.508 0 0 1 -8.37,8.51 8.3709,8.508 0 0 1 -8.37,-8.51 8.3709,8.508 0 0 1 8.37,-8.51 8.3709,8.508 0 0 1 8.37,8.51 z m -59,0 a 8.3709,8.508 0 0 1 -8.37,8.51 8.3709,8.508 0 0 1 -8.37,-8.51 8.3709,8.508 0 0 1 8.37,-8.51 8.3709,8.508 0 0 1 8.37,8.51 z m 247.1,-59.96 a 8.3709,8.508 0 0 1 -8.37,8.51 8.3709,8.508 0 0 1 -8.37,-8.51 8.3709,8.508 0 0 1 8.37,-8.51 8.3709,8.508 0 0 1 8.37,8.51 z m -59,0 a 8.3709,8.508 0 0 1 -8.37,8.51 8.3709,8.508 0 0 1 -8.37,-8.51 8.3709,8.508 0 0 1 8.37,-8.51 8.3709,8.508 0 0 1 8.37,8.51 z m -64.4,0 a 8.3709,8.508 0 0 1 -8.37,8.51 8.3709,8.508 0 0 1 -8.37,-8.51 8.3709,8.508 0 0 1 8.37,-8.51 8.3709,8.508 0 0 1 8.37,8.51 z m -64.7,0 a 8.3709,8.508 0 0 1 -8.37,8.51 8.3709,8.508 0 0 1 -8.37,-8.51 8.3709,8.508 0 0 1 8.37,-8.51 8.3709,8.508 0 0 1 8.37,8.51 z m -59,0 a 8.3709,8.508 0 0 1 -8.37,8.51 8.3709,8.508 0 0 1 -8.37,-8.51 8.3709,8.508 0 0 1 8.37,-8.51 8.3709,8.508 0 0 1 8.37,8.51 z m 247.1,-59.32 a 8.3709,8.508 0 0 1 -8.37,8.51 8.3709,8.508 0 0 1 -8.37,-8.51 8.3709,8.508 0 0 1 8.37,-8.51 8.3709,8.508 0 0 1 8.37,8.51 z m -59,0 a 8.3709,8.508 0 0 1 -8.37,8.51 8.3709,8.508 0 0 1 -8.37,-8.51 8.3709,8.508 0 0 1 8.37,-8.51 8.3709,8.508 0 0 1 8.37,8.51 z m -64.4,0 a 8.3709,8.508 0 0 1 -8.37,8.51 8.3709,8.508 0 0 1 -8.37,-8.51 8.3709,8.508 0 0 1 8.37,-8.51 8.3709,8.508 0 0 1 8.37,8.51 z m -64.7,0 a 8.3709,8.508 0 0 1 -8.37,8.51 8.3709,8.508 0 0 1 -8.37,-8.51 8.3709,8.508 0 0 1 8.37,-8.51 8.3709,8.508 0 0 1 8.37,8.51 z m -59,0 a 8.3709,8.508 0 0 1 -8.37,8.51 8.3709,8.508 0 0 1 -8.37,-8.51 8.3709,8.508 0 0 1 8.37,-8.51 8.3709,8.508 0 0 1 8.37,8.51 z"/>
  <g id="chain">
    <path d="m 128.35,110.73 c 10.63,9.57 11.44,25.87 1.91,36.45 -9.53,10.58 -25.81,11.46 -36.44,1.89 -10.62,-9.56 -11.44,-25.84 -1.91,-36.42 9.53,-10.58 25.82,-11.48 36.44,-1.92 z m -7.44,8.26 c -6.25,-5.63 -15.34,-4.92 -20.75,1.09 -5.41,6 -5.15,15.1 1.1,20.73 6.25,5.63 15.31,4.92 20.72,-1.09 5.41,-6 5.18,-15.1 -1.07,-20.73 z"/>
    <path d="m 75.57,164.99 c -5.32,-2.5 -11.59,-0.23 -14.08,5.07 l -13.64,28.98 c -2.5,5.31 -0.25,11.59 5.07,14.09 l 11.5,5.41 c 5.3,2.5 11.58,0.24 14.08,-5.07 l 13.64,-28.99 c 2.5,-5.3 0.23,-11.58 -5.07,-14.08 z m -1.32,9.96 5.99,2.82 c 2.12,1 3.02,3.52 2.02,5.63 l -10.89,23.16 c -1,2.11 -3.51,3.01 -5.63,2.01 l -5.99,-2.81 c -2.12,-1 -3.02,-3.51 -2.03,-5.62 l 10.9,-23.16 c 0.99,-2.11 3.51,-3.03 5.63,-2.03 z"/>
    <path d="m 46.13,235.62 c -5.81,-0.86 -11.17,3.13 -12.02,8.92 l -4.68,31.69 c -0.86,5.81 3.12,11.16 8.93,12.02 l 12.57,1.86 c 5.79,0.85 11.16,-3.12 12.01,-8.93 l 4.68,-31.69 c 0.86,-5.8 -3.12,-11.15 -8.92,-12.01 z m 1.61,9.92 6.54,0.96 c 2.33,0.34 3.92,2.5 3.58,4.81 l -3.74,25.32 c -0.34,2.3 -2.49,3.9 -4.81,3.56 l -6.54,-0.97 c -2.33,-0.34 -3.91,-2.49 -3.57,-4.79 l 3.74,-25.32 c 0.34,-2.31 2.48,-3.92 4.8,-3.57 z"/>
    <path d="m 38.36,311.75 c -5.81,0.86 -9.79,6.21 -8.93,12.01 l 4.68,31.69 c 0.85,5.8 6.21,9.79 12.02,8.93 l 12.57,-1.86 c 5.8,-0.86 9.78,-6.21 8.92,-12.02 l -4.68,-31.69 c -0.85,-5.8 -6.22,-9.77 -12.01,-8.92 z m 4.41,9.02 6.54,-0.97 c 2.32,-0.34 4.47,1.27 4.81,3.58 l 3.74,25.32 c 0.34,2.3 -1.25,4.45 -3.58,4.79 l -6.54,0.96 c -2.32,0.35 -4.46,-1.25 -4.8,-3.55 l -3.74,-25.32 c -0.34,-2.31 1.24,-4.47 3.57,-4.81 z"/>
    <path d="m 52.92,386.87 c -5.32,2.5 -7.57,8.78 -5.08,14.08 l 13.64,28.98 c 2.5,5.31 8.77,7.58 14.09,5.08 l 11.5,-5.41 c 5.3,-2.5 7.57,-8.78 5.07,-14.09 l -13.64,-28.98 c -2.5,-5.31 -8.78,-7.57 -14.09,-5.07 z m 6.83,7.36 5.98,-2.81 c 2.13,-1 4.64,-0.1 5.64,2.03 l 10.9,23.15 c 0.99,2.11 0.1,4.63 -2.04,5.63 l -5.98,2.81 c -2.13,1 -4.64,0.1 -5.63,-2.01 l -10.9,-23.16 c -0.99,-2.12 -0.1,-4.64 2.03,-5.64 z"/>
    <path d="m 93.82,450.93 c 10.63,-9.57 26.92,-8.68 36.45,1.91 9.53,10.58 8.71,26.86 -1.92,36.43 -10.62,9.56 -26.9,8.68 -36.42,-1.91 -9.53,-10.58 -8.73,-26.87 1.89,-36.43 z m 7.44,8.26 c -6.25,5.63 -6.49,14.74 -1.08,20.75 5.4,6 14.48,6.7 20.73,1.07 6.25,-5.63 6.49,-14.71 1.08,-20.72 -5.4,-6 -14.48,-6.73 -20.73,-1.1 z"/>
    <path d="m 103.64,136.19 c 2.74,1.82 3.45,5.56 1.58,8.37 l -24,36.13 c -1.87,2.81 -5.591,3.6 -8.331,1.78 -2.749,-1.82 -3.451,-5.55 -1.58,-8.37 l 24,-36.12 c 1.87,-2.82 5.581,-3.62 8.331,-1.79 z"/>
    <path d="m 64.679,199.95 c 3.15,0.95 4.91,4.32 3.933,7.56 l -12.535,41.52 c -0.977,3.23 -4.31,5.07 -7.459,4.12 -3.16,-0.96 -4.91,-4.33 -3.933,-7.56 l 12.535,-41.52 c 0.977,-3.24 4.3,-5.08 7.459,-4.12 z"/>
    <path d="m 45.799,272.22 c 3.296,0 5.949,2.72 5.949,6.1 v 43.37 c 0,3.38 -2.653,6.1 -5.949,6.1 -3.296,0 -5.949,-2.72 -5.949,-6.1 v -43.37 c 0,-3.38 2.653,-6.1 5.949,-6.1 z"/>
    <path d="m 48.62,346.88 c 3.155,-0.95 6.481,0.89 7.458,4.12 l 12.536,41.52 c 0.977,3.24 -0.777,6.61 -3.932,7.56 -3.156,0.95 -6.482,-0.88 -7.459,-4.12 l -12.535,-41.52 c -0.977,-3.23 0.777,-6.61 3.932,-7.56 z"/>
    <path d="m 72.889,417.54 c 2.74,-1.83 6.461,-1.03 8.331,1.78 l 24,36.13 c 1.87,2.81 1.16,6.55 -1.58,8.37 -2.75,1.83 -6.46,1.03 -8.331,-1.79 l -24.001,-36.12 c -1.87,-2.82 -1.168,-6.55 1.581,-8.37 z"/>
  </g>
  <use xlink:href="#chain" transform="translate(600)scale(-1,1)"/>
</g>
<use id="shine" xlink:href="#shield" fill="url(#rg)" stroke="#000" stroke-width="3"/>
</svg>
