<?xml version="1.0" encoding="UTF-8" standalone="no"?>
<svg
   xmlns:dc="http://purl.org/dc/elements/1.1/"
   xmlns:cc="http://creativecommons.org/ns#"
   xmlns:rdf="http://www.w3.org/1999/02/22-rdf-syntax-ns#"
   xmlns:svg="http://www.w3.org/2000/svg"
   xmlns="http://www.w3.org/2000/svg"
   xmlns:xlink="http://www.w3.org/1999/xlink"
   xmlns:sodipodi="http://sodipodi.sourceforge.net/DTD/sodipodi-0.dtd"
   xmlns:inkscape="http://www.inkscape.org/namespaces/inkscape"
   width="600"
   height="660"
   version="1.1"
   id="svg122"
   sodipodi:docname="House_Baratheon_(Dragonstone).svg"
   inkscape:version="0.92.3 (d244b95, 2018-08-02)">
  <metadata
     id="metadata126">
    <rdf:RDF>
      <cc:Work
         rdf:about="">
        <dc:format>image/svg+xml</dc:format>
        <dc:type
           rdf:resource="http://purl.org/dc/dcmitype/StillImage" />
      </cc:Work>
    </rdf:RDF>
  </metadata>
  <sodipodi:namedview
     pagecolor="#ffffff"
     bordercolor="#666666"
     borderopacity="1"
     objecttolerance="10"
     gridtolerance="10"
     guidetolerance="10"
     inkscape:pageopacity="0"
     inkscape:pageshadow="2"
     inkscape:window-width="1313"
     inkscape:window-height="713"
     id="namedview124"
     showgrid="false"
     inkscape:zoom="0.50568849"
     inkscape:cx="772.27487"
     inkscape:cy="318.08835"
     inkscape:window-x="53"
     inkscape:window-y="27"
     inkscape:window-maximized="1"
     inkscape:current-layer="svg122" />
  <style
     id="style_css_sheet"
     type="text/css">
.stag {
  fill:#000000;stroke:#cc0000;stroke-width:1;
}
.stag-detail {
  fill:#cc0000;stroke:none;
}
</style>
  <defs
     id="defs27">
    <linearGradient
       inkscape:collect="always"
       id="linearGradient1245">
      <stop
         style="stop-color:#ffffbb;stop-opacity:1"
         offset="0"
         id="stop1241" />
      <stop
         style="stop-color:#ffff00;stop-opacity:1"
         offset="1"
         id="stop1243" />
    </linearGradient>
    <linearGradient
       inkscape:collect="always"
       id="linearGradient1237">
      <stop
         style="stop-color:#ffdd00;stop-opacity:1"
         offset="0"
         id="stop1233" />
      <stop
         style="stop-color:#ff9900;stop-opacity:1"
         offset="1"
         id="stop1235" />
    </linearGradient>
    <linearGradient
       inkscape:collect="always"
       id="linearGradient1229">
      <stop
         style="stop-color:#ff9900;stop-opacity:1"
         offset="0"
         id="stop1225" />
      <stop
         style="stop-color:#ff5500;stop-opacity:1"
         offset="1"
         id="stop1227" />
    </linearGradient>
    <radialGradient
       id="rg"
       gradientUnits="userSpaceOnUse"
       cx="220"
       cy="220"
       r="405"
       xlink:href="#flame2">
      <stop
         style="stop-color:#fff;stop-opacity:.3"
         offset="0"
         id="stop3" />
      <stop
         style="stop-color:#fff;stop-opacity:.2"
         offset=".2"
         id="stop5" />
      <stop
         style="stop-color:#666;stop-opacity:.1"
         offset=".6"
         id="stop7" />
      <stop
         style="stop-color:#000;stop-opacity:.13"
         offset="1"
         id="stop9" />
    </radialGradient>
    <path
       id="shield"
       d="m2,2v257c0,286 298,398 298,398c0,0 298-112 298-398V2z" />
    <radialGradient
       inkscape:collect="always"
       xlink:href="#linearGradient1229"
       id="radialGradient1231"
       cx="300.00001"
       cy="299.99996"
       fx="300.00001"
       fy="299.99996"
       r="225"
       gradientTransform="matrix(1.2724559,0,0,1.2724559,-81.736768,-81.736689)"
       gradientUnits="userSpaceOnUse" />
    <radialGradient
       inkscape:collect="always"
       xlink:href="#linearGradient1237"
       id="radialGradient1239"
       cx="300"
       cy="299.99996"
       fx="300"
       fy="299.99996"
       r="151.80345"
       gradientTransform="matrix(1.2724559,0,0,1.2724559,-81.736768,-81.736691)"
       gradientUnits="userSpaceOnUse" />
    <radialGradient
       inkscape:collect="always"
       xlink:href="#linearGradient1245"
       id="radialGradient1247"
       cx="300"
       cy="302.91388"
       fx="300"
       fy="302.91388"
       r="112.49378"
       gradientTransform="matrix(1.2724559,0,0,1.2394955,-81.736768,-71.752589)"
       gradientUnits="userSpaceOnUse" />
  </defs>
  <use
     xlink:href="#shield"
     fill="#ff0"
     id="use29" />
  <path
     style="fill:url(#radialGradient1231);fill-opacity:1;stroke-width:1.27245593"
     id="use18"
     d="m 300,13.697438 c -17.34057,23.143421 -18.77979,47.53707 -14.44667,72.855265 4.29728,25.108467 2.37565,49.485467 -13.0594,70.941807 -7.66021,-28.42932 -22.01714,-47.49692 -40.85255,-60.22638 -22.48497,-15.195948 -34.43953,-35.099691 -41.1874,-61.757168 -7.164,28.017669 0.80236,51.074672 14.49455,72.807428 13.5716,21.54141 21.14805,44.79758 15.11638,70.51129 -17.95494,-23.32511 -38.53171,-35.43982 -60.80044,-39.99146 -26.5886,-5.43465 -45.27371,-19.23706 -61.709313,-41.283062 4.103223,28.626502 20.316383,46.870622 41.283063,61.709292 20.79418,14.71659 36.69071,33.3241 40.94819,59.41319 -25.52156,-14.68778 -49.14703,-18.04691 -71.46801,-13.72914 -26.644422,5.15408 -49.186245,-0.41628 -72.807438,-14.49452 14.7458,24.87721 36.707969,35.50185 61.757192,41.18739 24.833286,5.63651 46.595406,16.77 60.513386,39.22607 -29.1789,-3.79228 -52.26847,2.16098 -71.228813,14.68594 -22.643875,14.95814 -45.644702,18.41382 -72.855286,14.44665 23.143387,17.3406 47.537078,18.77983 72.855286,14.44669 25.108443,-4.29726 49.485463,-2.37567 70.941783,13.05936 -28.4293,7.66023 -47.4969,22.01713 -60.226356,40.85254 -15.195986,22.485 -35.099703,34.43952 -61.757191,41.18743 28.017667,7.16404 51.074682,-0.8024 72.807437,-14.49453 21.54138,-13.57161 44.79756,-21.14809 70.51126,-15.1164 -23.32508,17.95494 -35.43983,38.53171 -39.99144,60.80044 -5.43462,26.58856 -19.23704,45.27382 -41.283063,61.70917 28.626503,-4.10302 46.870643,-20.31612 61.709313,-41.28292 14.71659,-20.79421 33.32409,-36.69074 59.41316,-40.94819 -14.6878,25.52156 -18.04692,49.14716 -13.7291,71.46794 5.15408,26.64447 -0.41628,49.18623 -14.49455,72.80737 24.87721,-14.74569 35.50184,-36.70786 41.1874,-61.75698 5.64114,-24.85368 16.78073,-46.64485 39.27397,-60.5613 -3.80655,29.20287 2.1063,52.35396 14.63798,71.32446 14.95814,22.64386 18.41381,45.5969 14.44667,72.80738 17.34059,-23.14332 18.77991,-47.48913 14.44666,-72.80738 -4.29726,-25.10857 -2.33036,-49.53063 13.10729,-70.98963 7.66142,28.4138 21.97641,47.5494 40.80469,60.27428 22.48495,15.19605 34.43954,35.05179 41.18738,61.70917 7.16404,-28.01753 -0.80228,-51.02676 -14.49449,-72.75956 -13.57952,-21.5538 -21.12095,-44.87201 -15.06855,-70.60689 17.95327,23.32678 38.48382,35.48771 60.7526,40.03933 26.58858,5.43443 45.27376,19.23707 61.70931,41.28292 -4.10323,-28.62653 -20.31634,-46.87054 -41.28307,-61.70917 -20.79415,-14.71651 -36.64547,-33.36935 -40.90036,-59.46104 25.50842,14.67433 49.10852,18.09299 71.42015,13.777 26.64443,-5.15416 49.18637,0.41632 72.80744,14.49453 -14.74581,-24.87729 -36.7079,-35.5019 -61.75716,-41.18743 -24.83328,-5.63649 -46.54896,-16.81442 -60.46555,-39.27394 29.15821,3.78141 52.27872,-2.11987 71.22883,-14.63796 22.64381,-14.95815 45.59691,-18.41384 72.80742,-14.44669 -23.1434,-17.34062 -47.48921,-18.77989 -72.80742,-14.44665 -25.10844,4.29729 -49.53075,2.33035 -70.98968,-13.1073 28.41365,-7.66148 47.54958,-21.97642 60.27424,-40.80471 15.19596,-22.48495 35.0519,-34.43954 61.70932,-41.18739 -28.01761,-7.16401 -51.02683,0.80231 -72.75955,14.49452 -21.55394,13.5795 -44.87211,21.12096 -70.60699,15.06854 23.32672,-17.95325 35.48771,-38.48385 40.03931,-60.75259 5.43461,-26.58862 19.23712,-45.27373 41.28307,-61.709292 -28.62652,4.103212 -46.87066,20.316332 -61.70931,41.283062 -14.7166,20.79414 -33.3694,36.64543 -59.46105,40.90037 14.67427,-25.50845 18.09299,-49.10856 13.777,-71.4202 -5.15411,-26.644461 0.41631,-49.186323 14.49449,-72.807428 -24.87717,14.745776 -35.50185,36.707919 -41.18738,61.757168 -5.63365,24.82063 -16.78958,46.54808 -39.22607,60.46558 3.77969,-29.15656 -2.16776,-52.23091 -14.68591,-71.181007 C 299.48853,63.908866 296.0328,40.908024 300,13.697438 Z"
     inkscape:connector-curvature="0" />
  <path
     style="fill:url(#radialGradient1239);fill-opacity:1;stroke-width:0.85866684"
     id="use20"
     d="m 303.77372,106.83681 c 11.39433,15.843 12.04383,32.31993 8.78663,49.34455 -3.23026,16.8836 -2.25507,33.35564 7.87587,48.03529 5.54292,-19.07978 15.48061,-31.75511 28.35631,-40.09518 15.3705,-9.95606 23.69837,-23.22719 28.6024,-41.12357 4.46413,18.99745 -1.21453,34.44859 -10.73887,48.93082 -9.44045,14.35471 -14.85868,29.94536 -11.12814,47.37344 12.42132,-15.50037 26.46377,-23.40273 41.54807,-26.18011 18.0105,-3.31619 30.79892,-12.38216 42.17832,-27.03956 -3.14569,19.25971 -14.32491,31.35497 -28.66632,41.09 -14.22344,9.65493 -25.1938,21.99956 -28.41013,39.54528 17.41253,-9.57318 33.3965,-11.52813 48.39914,-8.32079 17.90858,3.82856 33.19057,0.36746 49.31292,-8.81953 -10.27662,16.58984 -25.23415,23.46861 -42.20935,26.97437 -16.82887,3.47553 -31.65812,10.70026 -41.34432,25.66751 19.73647,-2.17398 35.23611,2.14691 47.86323,10.84719 15.08024,10.39045 30.55293,13.02511 48.96372,10.70719 -15.84298,11.39434 -32.31994,12.04384 -49.34457,8.78663 -16.88357,-3.23023 -33.35564,-2.25507 -48.03527,7.87585 19.07976,5.54293 31.7551,15.4806 40.09517,28.3563 9.95608,15.37052 23.22719,23.69837 41.12357,28.60243 -18.99744,4.46416 -34.44858,-1.21457 -48.93081,-10.73887 -14.3547,-9.44045 -29.94536,-14.85869 -47.37343,-11.12815 15.50036,12.42131 23.40273,26.46378 26.1801,41.54808 3.31619,18.01046 12.38214,30.79898 27.03956,42.17821 -19.2597,-3.14556 -31.35499,-14.32471 -41.09002,-28.66623 -9.65493,-14.22345 -21.99955,-25.19381 -39.54525,-28.41011 9.57319,17.41253 11.52813,33.39657 8.32077,48.3991 -3.82856,17.90859 -0.36746,33.19053 8.81955,49.31285 -16.58985,-10.27654 -23.46861,-25.23407 -26.9744,-42.20919 -3.47838,-16.8427 -10.70683,-31.69163 -25.69918,-41.37729 2.1833,19.75283 -2.11115,35.29452 -10.8161,47.92839 -10.39044,15.08024 -13.02447,30.52069 -10.70657,48.93141 -11.39434,-15.84295 -12.04452,-32.2876 -8.78724,-49.31224 3.23023,-16.88366 2.22511,-33.38672 -7.90755,-48.0682 -5.54354,19.06929 -15.45382,31.79105 -28.32465,40.12813 -15.37049,9.95613 -23.69775,23.19488 -28.60177,41.09118 -4.46416,-18.99735 1.21386,-34.41625 10.73821,-48.89851 9.44596,-14.36297 14.84137,-29.99594 11.09713,-47.43858 -12.42021,15.50152 -26.4321,23.43566 -41.51644,26.21304 -18.01045,3.31606 -30.79894,12.38217 -42.17829,27.03947 3.14569,-19.25973 14.32485,-31.35493 28.66631,-41.08993 14.22342,-9.65487 25.16388,-22.03068 28.37849,-39.57819 -17.40349,9.56429 -33.37111,11.55973 -48.36749,8.35371 -17.90857,-3.8286 -33.19063,-0.36742 -49.31291,8.81955 10.27664,-16.5899 25.2341,-23.46866 42.20933,-26.9744 16.82886,-3.47552 31.62737,-10.73084 41.31268,-25.70044 -19.72236,2.16692 -35.24357,-2.11931 -47.86387,-10.81483 -15.08021,-10.39046 -30.5207,-13.02449 -48.93144,-10.70659 15.843,-11.39434 32.28765,-12.04449 49.31228,-8.78722 16.88357,3.23026 33.38679,2.2251 48.06822,-7.90756 -19.06919,-5.54358 -31.79118,-15.45384 -40.1281,-28.32467 -9.95607,-15.37048 -23.19494,-23.69775 -41.09128,-28.60177 18.99741,-4.46413 34.4163,1.21389 48.89851,10.73823 14.36306,9.44594 29.99601,14.84138 47.43864,11.09713 -15.50148,-12.4202 -23.43567,-26.43212 -26.21304,-41.51643 -3.31617,-18.01049 -12.38218,-30.79893 -27.03954,-42.17829 19.2597,3.14568 31.35499,14.32485 41.09,28.66632 9.65494,14.22341 22.03072,25.16385 39.5782,28.37849 -9.56425,-17.40352 -11.55972,-33.37115 -8.35372,-48.36752 3.82859,-17.9086 0.36745,-33.19062 -8.81951,-49.31291 16.58982,10.27661 23.46862,25.23412 26.97438,42.20933 3.47376,16.82029 10.71407,31.62645 25.66813,41.31206 -2.16579,-19.72122 2.151,-35.21067 10.84654,-47.83096 10.39045,-15.08022 13.02514,-30.55293 10.70719,-48.96371 z"
     inkscape:connector-curvature="0" />
  <path
     sodipodi:nodetypes="cccccccccccscscccscccccccccccccccccccccccccscscccscscccccccccccsc"
     style="fill:url(#radialGradient1247);fill-opacity:1;stroke-width:0.63622797"
     id="use22"
     d="m 301.00977,164.27226 c -8.7914,11.47997 -9.63912,23.66856 -7.6057,36.34971 2.01662,12.57613 1.42215,17.33823 -6.40768,27.98472 -3.68052,-14.25413 -10.75841,-23.86282 -20.10872,-30.32615 -11.16203,-7.7157 -17.03442,-17.72983 -20.26811,-31.09329 -3.72901,13.97044 0.13314,25.54015 6.86437,36.47787 6.67225,10.84141 10.33808,22.50866 7.18732,35.33311 -8.85443,-11.75624 -19.0786,-17.92136 -30.18844,-20.31405 -13.26502,-2.85687 -22.53453,-9.85587 -30.63606,-20.9646 1.90109,14.33402 9.91138,23.54075 20.31619,31.06982 10.3192,7.46714 18.16926,16.85391 20.16083,29.9201 -12.68293,-7.47757 -24.47736,-9.28117 -35.65992,-7.23967 -13.34854,2.43692 -24.58957,-0.46654 -36.32555,-7.62938 7.24179,12.5154 18.16645,17.94282 30.6605,20.91703 12.38634,2.94857 23.20831,8.62934 30.04893,19.92988 -14.56871,-2.04934 -26.14414,0.80582 -35.68958,6.96834 -11.39991,7.35969 -22.91785,8.9666 -36.50153,6.84016 11.47994,8.79141 23.66855,9.63914 36.34972,7.60571 12.57612,-2.0166 24.75385,-0.92779 35.40034,6.90204 -14.25412,3.68053 -23.86283,10.7584 -30.32615,20.10872 -7.71572,11.16204 -17.72983,17.0344 -31.09329,20.26813 13.97043,3.72901 25.54015,-0.13314 36.47786,-6.86437 10.8414,-6.67226 22.50865,-10.3381 35.3331,-7.18733 -11.75622,8.85443 -17.92137,19.07861 -20.31405,30.18844 -2.85684,13.26499 -9.85584,22.53459 -20.96459,30.63599 14.33402,-1.901 23.54077,-9.91125 31.06984,-20.31612 7.46714,-10.31921 16.85389,-18.16927 29.92007,-20.16083 -7.47757,12.68292 -9.28117,24.47742 -7.23964,35.65987 2.43691,13.34858 -0.46654,24.58958 -7.62939,36.32553 12.51539,-7.24174 17.9428,-18.1664 20.91703,-30.6604 2.95099,-12.39652 8.63494,-23.23297 19.95406,-30.07264 -2.05659,14.58063 0.77805,26.1866 6.94386,35.73717 7.35971,11.39989 8.96686,22.89394 6.84043,36.47757 8.79141,-11.47991 9.63893,-23.64459 7.60544,-36.32578 -2.0166,-12.57616 -0.90488,-24.77618 6.92626,-35.42399 3.68121,14.24638 10.73777,23.88885 20.08455,30.34986 11.16202,7.71574 17.03466,17.70586 20.26835,31.06927 3.72902,-13.97037 -0.13302,-25.51619 -6.8646,-36.45393 -6.67614,-10.84764 -10.32414,-22.54572 -7.16291,-35.38066 8.85359,11.75708 19.05442,17.94505 30.16428,20.33774 13.265,2.85675 22.53456,9.85586 30.63606,20.96453 -1.9011,-14.33404 -9.91136,-23.54072 -20.3162,-31.06977 -10.31918,-7.46711 -18.1464,-16.87628 -20.13664,-29.94375 12.6764,7.47076 24.45784,9.30399 35.63572,7.26333 13.34855,-2.43696 24.58963,0.46655 36.32555,7.62939 -7.24179,-12.51545 -18.16641,-17.94284 -30.66049,-20.91705 -12.38634,-2.94856 -23.18485,-8.65129 -30.02477,-19.95355 14.55844,2.04378 26.14906,-0.78523 35.68936,-6.94436 11.39987,-7.3597 22.89394,-8.96686 36.4776,-6.84043 -11.47996,-8.79143 -23.64464,-9.63892 -36.32581,-7.60545 -12.57609,2.01662 -24.77624,0.90488 -35.42401,-6.92625 14.2463,-3.68126 23.88893,-10.73779 30.34984,-20.08456 7.71569,-11.16201 17.70591,-17.03466 31.06934,-20.26836 -13.97041,-3.729 -25.51623,0.13303 -36.45392,6.86461 -10.84772,6.67613 -22.54578,10.32415 -35.38072,7.1629 11.75705,-8.85357 17.94506,-19.05442 20.33774,-30.16427 2.85684,-13.26502 9.85588,-22.53453 20.9646,-30.63604 -14.33404,1.90109 -23.54078,9.91136 -31.06984,20.31618 -7.46715,10.31919 -16.8763,18.14639 -29.94376,20.13667 7.47074,-12.67642 9.304,-24.45788 7.26333,-35.63575 -2.43693,-13.34858 0.46656,-24.58962 7.62937,-36.32555 -12.51538,7.24177 -17.9428,18.16642 -20.91703,30.66048 -2.94706,12.38003 -8.63887,23.18454 -19.92961,30.02504 2.04292,-14.55761 -1.30378,-18.70976 -7.46295,-28.25006 -7.3597,-11.39988 -8.96663,-22.91782 -6.84018,-36.50152 z"
     inkscape:connector-curvature="0" />
  <path
     sodipodi:nodetypes="ccccccc"
     inkscape:connector-curvature="0"
     style="fill:#cc0000;stroke:none;stroke-width:0.82364446;stroke-miterlimit:4;stroke-dasharray:none"
     d="m 252.79743,185.48005 c -30.88655,0.70488 -59.06361,26.92822 -62.05002,71.57021 -3.18664,48.01313 26.13641,115.58905 109.21059,168.55673 83.07416,-52.96768 112.34183,-120.5436 109.14667,-168.55673 -2.93955,-44.64199 -31.09956,-70.86533 -61.98611,-71.57021 -24.49623,0 -43.2147,19.79857 -47.16056,34.52471 -3.96221,-14.78717 -22.62174,-34.52471 -47.16057,-34.52471 z"
     id="heart" />
  <g
     style="fill:#000000;stroke:#cc0000;stroke-width:1"
     transform="matrix(-0.35797219,0.07608933,0.07608933,0.35797219,333.20353,207.15536)"
     class="stag"
     id="stag">
    <g
       id="antlers">
      <path
         inkscape:connector-curvature="0"
         id="path35"
         d="m 107.9,54.52 c 7.6,4.34 14.9,9.18 20,16.22 2.2,3.15 3.2,6.37 4.2,10.14 1.3,4.5 1,11.38 0.4,15.99 -0.8,5.43 -3.6,13.93 -3.6,13.93 l 14.4,-1.8 c 5.9,-7.1 18.5,-13.2 18.3,-28.35 -4.1,9.02 -11.9,13.63 -19.7,16 0,0 -0.2,-8.9 -1.1,-13.12 0,0 4.2,-6.76 5.9,-10.2 1.4,-3.04 1.9,-6.36 2.1,-9.74 0.1,-4.06 -1.7,-8.34 -1.9,-12.39 -0.1,-2.14 1,-6.37 1,-6.37 0,0 -3.9,3.61 -4.7,6.82 -0.9,3.66 0.6,9.35 0,13.06 -0.5,2.88 -1,5.41 -3.2,7.27 -0.5,0.45 -2,0.56 -2,0.56 -0.7,-2.19 -2.8,-4.67 -3.4,-7.15 0,0 -1.6,-5.74 -2.2,-9.01 -0.5,-2.99 -1.1,-6.48 -2,-9.41 -1.6,-5.63 -5.1,-9.85 -6.8,-15.54 -0.4,-1.58 -0.6,-4.85 -0.6,-4.85 0,0 -2.6,5.19 -2.6,8.17 0.1,4.56 3.8,8.17 4.7,12.67 0.6,2.71 -0.1,8.23 -0.1,8.23 -5.1,-4.57 -12.3,-5.47 -13.3,-11.66 -0.4,-2.65 1.5,-4 1.6,-6.99 0.2,-3.43 -0.2,-6.75 -0.9,-10.13 -0.5,-2.14 -2.2,-5.69 -3.4,-7.55 -2.1,-3.04 -4.3,-7.32 -4.3,-7.32 -0.1,-0.28 -1,4.45 0.5,9.57 1.2,4.45 2.4,9.07 2,13.69 -0.2,1.91 -0.8,3.83 -1.8,5.46 -0.6,0.96 -2.9,1.8 -2.9,1.8 -7.91,-1.85 -13.04,-7.37 -18.89,-11.26 -1.36,-0.73 -2.54,-1.75 -3.89,-2.31 -1.46,-0.56 -3.77,-1.52 -3.77,-1.52 0,0 1.01,2.65 2.19,4.39 5.18,7.72 12.22,13.18 21.24,18.08 0,0 -6.14,3.04 -10.42,2.42 -2.82,-0.45 -7.89,-3.38 -10.31,-4.95 -2.03,-1.3 -5.63,-2.99 -5.63,-2.99 0,0 1.97,3.83 3.71,5.97 2.48,2.99 7.61,5.86 11.38,6.65 3.72,0.79 6.65,0.62 10.42,0 3.07,-0.4 9.37,-2.48 9.37,-2.48 z" />
      <path
         inkscape:connector-curvature="0"
         id="path37"
         d="m 130.2,113.7 c 0,0 12.2,-7.8 16.7,-13.7 6.6,-9.21 9.5,-17.15 7.7,-24.92 -2.1,8.33 -8.9,18.25 -15.2,20.72 -5.8,2.31 -9.6,0.79 -12.3,-1.01 -3.5,-2.37 -5.4,-5.97 -4.8,-10.02 0.5,-3.1 1.7,-5.07 1.3,-8.17 -0.6,-4.9 -5.1,-9.46 -5.1,-9.46 0,0 1,5.46 0.3,9.57 -0.6,3.61 -2.6,6.87 -3.2,10.48 -0.5,3.6 2.7,11.04 2.7,11.04 0,0 -6.9,0 -9.5,-0.85 -3.1,-1.13 -7.4,-1.86 -8.98,-4.73 -1.8,-3.15 -1.85,-5.13 -1.57,-8.73 0.39,-4.28 1.85,-13.12 1.13,-17.35 -0.74,-4 -4.73,-7.32 -4.73,-7.32 0,0 1.01,6.2 0.5,9.58 -0.62,4.22 -2.48,7.6 -3.43,11.82 -0.85,3.72 -1.02,11.21 -1.02,11.21 0,0 -4.33,0.11 -6.14,-0.9 C 81.47,89.27 79.1,86.12 77.69,82.91 74.65,75.87 77.52,65.22 73.3,58.8 c -1.75,-2.7 -5.18,-4.39 -5.18,-4.39 0,0 1.46,5.8 2.08,8.73 1.13,5.24 -0.9,10.92 -0.34,16.22 0.23,2.14 1.52,6.08 1.52,6.08 0,0 -13.18,-5.12 -16.95,-10.59 -3.27,-4.62 -3.21,-15.26 -5.35,-20.5 -2.14,-5.12 -7.32,-8.67 -7.32,-8.67 0,0 2.25,6.53 2.59,11.54 0.34,4.96 -0.1,12.73 1.52,17.41 1.07,3.21 2.76,5.52 5.97,8.28 3.15,2.76 8.79,6.81 8.79,6.81 0,0 -5.64,0.68 -9.47,-0.22 -3.83,-0.85 -9.91,-3.83 -12.95,-5.69 -3.04,-1.8 -5.52,-4.4 -5.52,-4.4 0,0 0.73,5.19 3.21,8.34 2.48,3.15 7.66,6.25 13.74,7.89 6.14,1.68 15.94,-1.24 23.38,-0.34 2.53,0.28 4.78,0.45 7.43,1.29 8.84,2.99 18.02,5.11 26.65,8.71 3.3,1.3 5.5,3.4 8.6,5.1 2.2,1.2 4.8,6.9 4.8,6.9 z" />
    </g>
    <g
       id="hooves">
      <g
         id="g44">
        <path
           inkscape:connector-curvature="0"
           id="path40"
           d="m 295.6,187.8 c 3.6,4.7 5.9,10.5 14.6,15.9 -3,0.6 -6.3,1.1 -9.4,-0.4 0.6,2.4 4.2,5.8 6.2,7.9 -6.7,0 -10.5,-1.1 -14.5,-4 -4.2,-3.3 -7.9,-8.6 -11.1,-17 z" />
        <path
           style="fill:#cc0000;stroke:none"
           inkscape:connector-curvature="0"
           id="path42"
           d="m 298.1,194.6 c 0.4,3.1 1.7,5.8 3.5,8.3 0.1,0.1 0.4,0.4 0.7,0.5 0.3,0.2 0.7,0.3 0.8,0.4 l -2.1,-0.1 0.1,1.1 c -1.9,-2.9 -3.4,-6.5 -3,-10.2 z"
           class="stag-detail" />
      </g>
      <g
         id="g50">
        <path
           inkscape:connector-curvature="0"
           id="path46"
           d="m 255,282.3 c -4,4.4 -9.4,7.8 -13.1,17.4 -1.3,-2.8 -2.5,-6 -1.5,-9.3 -2.3,1.1 -5.1,5.2 -6.8,7.5 -1.4,-6.5 -1,-10.4 1.2,-14.8 2.4,-4.8 7.1,-9.5 14.9,-14.2 z" />
        <path
           style="fill:#cc0000;stroke:none"
           inkscape:connector-curvature="0"
           id="path48"
           d="m 248.5,286.2 c -3,0.9 -5.5,2.8 -7.7,5 -0.1,0.2 -0.3,0.5 -0.4,0.8 -0.1,0.4 -0.2,0.8 -0.3,0.9 l -0.3,-2.1 -1.1,0.4 c 2.8,-2.6 6.1,-4.7 9.8,-5 z"
           class="stag-detail" />
      </g>
      <g
         id="g56">
        <path
           inkscape:connector-curvature="0"
           id="path52"
           d="m 266.1,411.4 c 5.4,3.5 9.9,8.7 20.8,11.1 -2.8,1.9 -6,3.6 -9.7,3.2 1.6,2.2 6.5,4.5 9.3,5.9 -6.7,2.6 -11,2.9 -16,1.3 -5.6,-1.7 -11.3,-5.9 -17.7,-13.5 z" />
        <path
           style="fill:#cc0000;stroke:none"
           inkscape:connector-curvature="0"
           id="path54"
           d="m 271.3,417.7 c 1.5,3 3.9,5.4 6.7,7.2 0.1,0.2 0.5,0.3 0.9,0.4 0.3,0 0.7,0 0.9,0.1 l -2.1,0.7 0.5,1.1 c -3.1,-2.4 -6,-5.6 -6.9,-9.5 z"
           class="stag-detail" />
      </g>
      <g
         id="g62">
        <path
           inkscape:connector-curvature="0"
           id="path58"
           d="m 137.9,481.1 c 3.8,5.3 6,11.8 15.4,18.1 -3.4,0.7 -7.1,1.1 -10.5,-0.8 0.7,2.8 4.4,6.7 6.5,9.1 -7.5,-0.2 -11.6,-1.6 -15.9,-5 -4.5,-3.7 -8.4,-9.9 -11.5,-19.3 z" />
        <path
           style="fill:#cc0000;stroke:none"
           inkscape:connector-curvature="0"
           id="path60"
           d="m 140.4,488.8 c 0.2,3.4 1.5,6.5 3.4,9.3 0.1,0.1 0.4,0.5 0.7,0.6 0.4,0.3 0.8,0.4 0.9,0.5 l -2.3,-0.2 v 1.3 c -2,-3.4 -3.4,-7.5 -2.7,-11.5 z"
           class="stag-detail" />
      </g>
    </g>
    <path
       inkscape:connector-curvature="0"
       d="m 260.9,192.6 c -6.6,0.2 -12.5,0.5 -17.6,3.3 -2.9,1.5 -4.2,3.1 -5.1,6.2 -4.5,15 -3.6,46.7 -3.6,46.7 L 206,260.7 189.8,246.8 c 0,0 19.4,-27.9 26.4,-43.5 3.8,-8.6 5.3,-20.6 15.7,-22.6 15.6,-3.1 47.8,-1 47.8,-1 0,0 7.5,0.4 10.8,1.6 5.5,2.1 9,10 8.2,10.1 -5.1,-1.4 -10,-0.7 -14.3,5.3 l -6.2,-3.2 c -0.9,-0.5 -2.8,0.1 -3.5,1.1 -0.3,0.6 -0.9,1.7 -0.7,2.7 0.3,2 1.1,3 -1.3,2 -0.8,-0.3 -1.7,-0.8 -2.4,-1.2 -1.2,-0.6 -2.8,-2 -4.3,-3.2 -1.8,-1.5 -3.4,-2.3 -5.1,-2.3 z"
       id="stag-upper-limb" />
    <path
       inkscape:connector-curvature="0"
       d="m 183.1,387 c -2.5,-2.3 -3.8,-6.7 -2.5,-9.9 0.8,-2.1 5.7,-3.6 5.7,-3.6 0,0 0.9,-8.8 2,-13 1.4,-4.9 5.7,-14 5.7,-14 0,0 -13.6,-0.4 -20,-2.3 -10.4,-2.9 -26.4,-11.7 -26.4,-11.7 l 4.8,-35.9 c 0,0 21.8,1.7 32.3,3.8 13.6,2.6 38.6,15.3 38.6,15.3 0,0 2.8,0.5 3.8,1.3 2.9,2.2 3.1,4.5 4.3,8.5 1.3,4.2 2.2,7.6 0.7,11.4 -0.8,1.9 -4.2,4.3 -4.2,4.3 0,0 -2.3,6.1 -3.3,8.5 -3.7,9.4 -12.1,12.4 -14.3,22.2 -0.8,3.6 0.5,7.6 2.3,10.8 1.9,3.3 5.1,5.8 8.5,7.7 10,5.6 23,8.9 33.9,12.6 4.3,1.4 8.3,2 11.6,4.1 0.9,0.6 2.7,2.2 3.2,3.3 l 2.2,4.6 c -7,-1.2 -8.6,-1.2 -10.7,0.5 -2.8,2.4 -2.4,6.7 -2.7,10.5 0,0 -4.4,-1.8 -6.2,-3.3 -2.6,-2.1 -3.2,-6.5 -6.2,-7.9 -2.5,-1.1 -4.9,0 -5.4,3.1 -0.2,1.5 0,3.1 0.7,4.9 1.9,4.9 -0.7,4 -3.9,1.8 -3,-2 -5.8,-3.8 -7.5,-6.2 -1.1,-1.5 -2.5,-2.9 -4.2,-5.1 -1.7,-2 -3.8,-4.7 -6.3,-6.7 -4.8,-3.7 -8.8,-6.6 -15,-9.2 -4.3,-1.9 -9.6,-3.7 -13.5,-5.6 -3,-1.4 -5.9,-2.7 -8,-4.8 z"
       id="stag-lower-limb" />
    <path
       inkscape:connector-curvature="0"
       d="m 158.9,317.5 c 0,0 3,0.9 4.3,1.8 0.9,0.6 2.4,2.4 2.4,2.4 l -9.8,17.5 -6.3,-6.1 z"
       id="stag-groin" />
    <path
       inkscape:connector-curvature="0"
       d="m 194.3,152.8 c -4.8,6.5 -11.9,1.9 -17.3,-1.1 -4.7,-2.5 -17.1,-2.8 -17.1,-2.8 l 3,-5.3 c 0,0 10,-1.5 15.5,2.6 5.1,3.8 9,8.3 15.9,6.6 z"
       style="fill:#ff5555"
       id="stag-tongue" />
    <path
       inkscape:connector-curvature="0"
       d="m 180.1,156.5 c -1.6,0.8 -3.8,0.9 -5.4,0.5 -5.9,-1.2 -11.5,-7.9 -19.8,-8.6 -5,-0.4 -13.5,3.1 -17.2,4.7 7.2,6.7 11.6,9.8 20.2,15.6 1.6,1 5.1,1.8 5.1,1.8 -0.5,0.6 -1.7,1.3 -3.3,1.5 -0.2,0.3 5.5,0.9 7.9,2.1 3.2,1.7 6.7,4.3 9.9,5.8 2.1,1 7.2,1.7 7.2,1.7 -1.1,1.1 -2.8,2.1 -3.7,2.3 0,0 10,1.9 14.7,5.5 2.4,1.8 4.1,5.5 6.4,7.5 1.8,1.6 6.6,3.1 6.6,3.1 -2,1 -3.7,0.6 -4.3,0.7 2.9,1.6 5.9,4.4 7.1,6.7 2.6,4.9 1.2,10.5 8.3,14.5 -1.7,0 -3.1,0.6 -5.3,-0.5 0.4,1.7 0.7,3.4 1,5.1 0,0 17.1,-7.5 25.5,-9.1 4.1,-0.8 8.4,-0.6 12.6,-1.1 3.6,-0.5 9.2,-2.2 9.2,-2.2 0,0 3.8,-1 5.7,-0.5 5.4,1.5 8.9,8.7 8.9,8.7 1.5,1.6 1.3,4.6 -0.3,8.1 -3.6,8.1 -10,22.8 -12.4,31.8 -1.3,4.7 -1.2,11.4 -3.3,15.9 -1.4,3 -2.9,4.4 -5.7,6.3 -1.3,0.9 -4.6,1.4 -4.6,1.4 1.4,-7.2 0.4,-11.1 -5.3,-14.2 0,0 1.3,-2.9 1.1,-4 -0.3,-0.9 -1.2,-1.6 -2,-2.2 -1.1,-0.7 -3.9,-0.6 -3.2,-1.6 l 0.8,-1.1 c 1.8,-2.6 6,-3.7 8.3,-5.3 1.8,-1.1 2.9,-3.4 3.8,-4.8 2.9,-4.9 3.6,-11.2 6.6,-18.2 0,0 0.9,-1.8 0.7,-2.7 -0.3,-1.2 -1,-1.5 -1.9,-2.3 -0.7,-0.7 -1.4,0.3 -3.1,1.2 -3,1.7 -8.3,4.9 -13.1,9.2 -7.1,6.1 -13.2,13.6 -21.4,18.8 -5.6,3.6 -12.7,7.1 -18.2,7.2 -2.4,0.1 -4.9,-4.5 -4.9,-4.5 -7.9,22.5 -37.8,44.2 -46.2,71.6 6.6,5.2 11.1,14.8 11.4,25.1 0.2,10.7 -4.1,22.2 -15.7,30.5 0,0 -14.9,7.3 -21.9,12.3 -3.3,2.4 -6.4,5.2 -8.7,8.5 -3,4.4 -4.3,7.3 -5.5,12.4 -3.1,13.1 -1.3,31 7.1,41.9 4,5.1 13.5,9.8 18.1,14.5 2.3,2.3 3.1,7.6 3.1,7.6 -4.2,-0.9 -8.2,-1.4 -11.1,-0.2 -2.3,1 -3.8,3.2 -4,7.5 0,0 -4.5,-1.2 -5.9,-2.8 -1.4,-1.7 -1.3,-3.4 -1.7,-5.4 -1.4,-3.6 -3.6,-4.8 -5.2,-5.3 -1.9,-0.6 -5.1,-0.7 -6.9,0.5 -2.5,1.7 -3.4,6.1 -5.1,5.8 -6.4,-0.9 -5.44,-20.4 -5.84,-25.3 -0.39,-5.4 0.68,-11.5 0.23,-16.6 -0.9,-9.5 -2.37,-17.7 -4.17,-27.1 -0.96,-5.1 -6.47,-13.3 -2.59,-16.7 3.83,-3.3 8.73,-4.2 12.57,-7 4.3,-7.9 9.2,-15.9 17.4,-23.7 -1.8,-3 -3.6,-6 -5.3,-9 0,0.3 0.1,0.6 0.1,0.8 -0.4,11.4 -10.9,15.3 -16.66,14.4 1.3,-0.7 2.48,-1.6 3.16,-3.4 -6.31,1.4 -11.78,1.6 -17.69,-1.1 1.69,-0.7 3.72,-0.4 4.84,-2.9 -4.45,0.3 -7.66,-0.8 -9.8,-2.7 -3.15,-2.9 -3.88,-7.6 -2.76,-12.4 6.26,10.9 16,8.1 21.29,0.4 3.44,-5.1 2.09,-8.5 2.31,-14 0.12,-2.5 2.51,-7.5 5.51,-9.1 0,-3.8 0.6,-7.5 2,-11.1 15.1,-40.1 24.5,-56 22.3,-70.6 -0.6,-10.3 1.7,-20.4 4.7,-23.7 -1,-2.6 -2.5,-4.3 -4.7,-6 -1,3.2 -3.1,4.8 -5,5.5 0,0 1.4,-4 0.3,-7.3 -1.4,-4.4 -6.7,-8 -8.5,-12.3 -1.2,-3 -0.9,-9.6 -0.9,-9.6 -2.3,3.9 -4,3 -6.3,3.2 0,0 1.9,-2.7 0.8,-5.5 -1.2,-3.1 -6.2,-8.6 -7.4,-11.7 -1.08,-3 -0.9,-9.5 -0.9,-9.5 -2.08,1.3 -3.09,3.3 -6.47,2.6 0,0 1.92,-3.5 1.58,-7.5 0,0 -1.13,-9.5 -1.24,-14.4 -0.11,-3.6 -0.17,-7.2 0.39,-10.7 1.86,-11.9 6.44,-17.6 6.44,-17.6 l -2.16,-0.6 c -9.4,-3.7 -15.6,-10.2 -23.54,-21.6 16.79,-0.6 27.3,1.6 36.5,10.4 4.9,-5.9 17.4,-12.54 34.1,-6.3 15.3,7.3 34.4,18.5 46.1,25.2 1.2,0.6 2.1,1.5 2.7,2.1 0.5,6.4 -2.3,10.3 -5.5,12.6 0,0 -2.3,1.4 -5.8,0.4 -2.3,-0.6 -8.3,-1.6 -10.7,-1.8 -3.7,-0.2 -7.4,1.4 -7.4,1.4 3.5,3.7 7.1,6.5 15,10.5 z"
       id="stag-body" />
    <path
       style="fill:#cc0000;stroke:none"
       inkscape:connector-curvature="0"
       id="path70"
       d="m 208,229.7 0.6,0.3 6.9,-3.8 0.8,0.3 -7.6,4.2 -0.1,0.1 -0.2,-0.1 -0.8,-0.5 v -0.1 h -0.1 c -1,-2.1 -4.3,-7.9 -8.2,-10.6 3.9,0.8 7.5,8 8.7,10.2 z"
       class="stag-detail" />
    <path
       style="fill:#cc0000;stroke:none"
       inkscape:connector-curvature="0"
       id="path72"
       d="m 188.4,249.6 c 1.9,1 3.8,1.2 5.9,2.3 1.8,1 3.6,2.6 4.6,4.5 0.4,0.9 0.7,2.2 0.8,3.2 0.1,1.1 0.1,2 0.1,2 h -0.6 c 0,0 0,-0.8 -0.2,-1.9 -0.1,-1.1 -0.3,-2.3 -0.7,-3 -0.9,-1.8 -2.6,-3.3 -4.4,-4.2 -1.9,-1 -3.8,-1.2 -5.8,-2.3 -0.7,-0.4 -1.6,-1.2 -2.3,-1.9 -0.7,-0.7 -1.3,-1.3 -1.3,-1.3 1.1,0 2.8,2.1 3.9,2.6 z"
       class="stag-detail" />
    <g
       style="fill:#cc0000;stroke:none"
       class="stag-detail"
       id="stag-ear">
      <path
         inkscape:connector-curvature="0"
         id="path74"
         d="m 91.77,107.1 c 8.15,0.5 16.03,5.4 21.93,13.5 l 0.2,0.3 -0.2,0.2 c -1.5,1.2 -3.5,1.7 -5.3,1.7 -1.7,0.1 -3.5,-0.4 -5.3,-1 -3.61,-1.4 -7.1,-3.6 -9.58,-5 2.65,0.9 8.18,3.7 9.78,4.3 1.7,0.7 3.5,1.1 5.1,1.1 1.5,0 3,-0.5 4.2,-1.4 -2.1,-3 -7.5,-8.3 -12.68,-10.7 -5.95,-2.9 -11.7,-2.8 -11.75,-2.9 1.24,-0.1 2.42,-0.1 3.6,-0.1 z" />
      <path
         inkscape:connector-curvature="0"
         id="path76"
         d="m 98.93,123.3 c 3.77,1.1 8.47,2.5 13.87,3.1 0.5,0.2 0.2,0.6 -0.4,0.8 -5.5,-0.6 -9.7,-1.8 -13.7,-3.3 z M 110.5,111 c 2.8,2.4 5.6,5.3 8.6,8.9 0.1,0.8 -0.3,1 -0.8,0.7 -2.8,-3.6 -5.5,-6.7 -8.2,-9.1 z" />
    </g>
    <g
       id="stag-eye">
      <path
         inkscape:connector-curvature="0"
         id="path79"
         d="m 147.8,117.5 c -0.5,0.2 -1.1,0.3 -1.4,0.7 -0.4,0.4 -0.6,0.9 -0.6,1.5 0.1,1.1 0.8,2 2,3 1.2,1.1 2.8,1.8 4.6,1.8 1.8,-0.1 3.4,-1 4.5,-2.1 1.1,-1.1 1.8,-2.5 1.8,-3.6 0,-0.6 -0.3,-1.1 -0.7,-1.4 -0.4,-0.3 -0.9,-0.5 -1.5,-0.6 -1.2,-0.2 -2.8,0.3 -4.5,0.4 -1.7,0 -3,0 -4.2,0.3 z"
         style="fill:#ffffff" />
      <g
         id="g87"
         style="stroke:none">
        <path
           inkscape:connector-curvature="0"
           id="path81"
           d="m 156.7,119.9 c 0.3,1.7 -0.9,3.3 -2.6,3.6 -1.7,0.2 -3.3,-1 -3.6,-2.7 -0.3,-1.8 0.9,-3.4 2.6,-3.6 1.8,-0.3 3.4,0.9 3.6,2.7 z"
           style="fill:#333333" />
        <path
           inkscape:connector-curvature="0"
           id="path83"
           d="m 153.4,118.8 c -0.9,0.1 -1.6,0.8 -1.4,1.7 0.1,0.9 1,1.4 1.8,1.3 0.9,-0.1 1.5,-0.8 1.4,-1.7 -0.1,-1 -1,-1.5 -1.8,-1.3 z"
           style="fill:#000000" />
        <path
           inkscape:connector-curvature="0"
           id="path85"
           d="m 152.7,118.2 c 0.5,0.2 0.8,0.8 0.6,1.4 -0.2,0.6 -0.8,0.8 -1.3,0.6 -0.5,-0.2 -0.8,-0.8 -0.6,-1.4 0.2,-0.6 0.8,-0.8 1.3,-0.6 z"
           style="fill:#ffffff" />
      </g>
    </g>
    <g
       style="stroke:none"
       id="stag-nose">
      <path
         inkscape:connector-curvature="0"
         id="path90"
         d="m 194.3,139.2 c -4.4,0.9 -11,-4.4 -5.4,-9.3 0,0 2.6,0.9 3.7,1.7 0.8,0.5 1.8,1.1 2.1,2 0.7,1.7 -0.4,5.6 -0.4,5.6 z"
         style="fill:#333333" />
      <path
         inkscape:connector-curvature="0"
         id="path92"
         d="m 193,138 c 0,0 -0.7,-2.5 -1.6,-3.1 -0.6,-0.3 -1.4,-1 -2,-0.6 -0.4,0.3 -0.4,1.2 -0.1,1.5 0.9,1.3 3.7,2.2 3.7,2.2 z" />
    </g>
    <g
       style="fill:#ffff00;stroke:#cc0000"
       id="crown">
      <path
         inkscape:connector-curvature="0"
         id="path95"
         d="M 132.6,226.4 107.9,213 c 1.4,-2.4 3.4,-4.7 5.9,-7 1.5,3.9 2.8,7.7 5.2,9.8 0.9,-3.5 -0.3,-6.3 -1.5,-9.2 l 10.1,6.9 c -1.8,1 -1.2,0 -5.9,2.6 1.5,0.6 3.8,1 5.8,0.5 0,0 0.1,0 0.1,0 0.6,-0.2 1.3,-0.4 1.8,-0.8 1.5,-1 2.2,-2.3 2.4,-3.7 0.2,-1.1 0.2,-2.3 -0.6,-3.1 -0.4,-0.5 -0.8,-0.9 -1.1,-1.5 -0.3,-0.2 -1,-0.3 -1.3,-0.1 -0.3,0.2 0,0.8 0.1,1.1 0.4,0.7 1.2,1 1.5,1.7 0.3,0.7 0.4,1.5 0.2,2.3 -0.3,0.7 -1.3,1.6 -1.3,1.6 l -0.8,-1.6 c -0.5,-1.1 -2.1,-1.1 -3,-1.9 -0.7,-0.5 -1.3,-1.1 -1.6,-1.8 -0.3,-0.9 -0.3,-1.9 0.1,-2.7 0.1,-0.2 0.4,-0.5 0.6,-0.7 0.4,-0.3 1.3,-0.6 1.3,-0.6 0,0 -1,-0.8 -1.4,-1.4 -0.5,-0.8 -1,-2.6 -1.2,-3.5 -0.3,-1.4 -0.2,-3.1 -0.2,-3.3 0.2,0 1.9,0.1 3.3,0.6 0.9,0.3 2,0.8 2.7,1.4 0.6,0.5 1.5,1.7 1.5,1.7 0,0 0.7,-1.2 1,-1.5 0.2,-0.3 0.5,-0.5 0.8,-0.6 0.8,-0.3 1.8,-0.2 2.6,0.2 0.7,0.4 1.3,1.1 1.7,1.8 0.7,1 0.7,2.3 1.8,2.9 l 1.5,1 c 0,0 -1,0.9 -1.7,1 -0.8,0.2 -1.5,0 -2.3,-0.4 -0.6,-0.4 -1,-1.1 -1.8,-1.3 -0.3,0 -0.7,-0.1 -0.9,0.1 -0.3,0.3 -0.1,1 0.1,1.3 l 1,1.3 c 0.3,0.4 0.9,0.7 1.3,0.8 1.2,0.3 2.3,0.1 3.5,-0.2 1.2,-0.4 2.2,-1 3.2,-1.8 0.8,-0.7 2.2,-2 2.7,-3 0.7,-1.1 0.9,-2 1.1,-3.4 0.1,-0.7 -0.1,-1.5 -0.4,-2.2 -0.3,-0.8 -1.3,-1.9 -1.3,-1.9 -0.6,1.2 -1,2.4 -1.3,3.6 -0.4,1.4 -0.5,2.8 -0.5,4.1 l -9.2,-10.7 c 2,0.3 3.5,0.7 5.3,0.6 1.4,0 2.1,-0.1 3.2,-0.6 -1,-0.6 -1.5,-1.1 -2.9,-1.4 -1.8,-0.5 -3.8,-1.1 -5.9,-1.4 1.7,-1.9 3.6,-3.7 5.5,-5.3 2,-1.7 4,-3.2 6.2,-4.5 0,2.1 0.2,4.1 0.4,6 0.1,1.5 0.4,2 0.9,3.1 0.6,-1 0.9,-1.6 1.1,-3.1 0.3,-1.6 0.2,-3.2 0.3,-5.2 l 9,10.9 c -1.3,-0.2 -2.7,-0.3 -4.1,-0.2 -1.3,0 -2.5,0.2 -3.8,0.7 0,0 0.8,1.1 1.6,1.6 0.6,0.4 1.4,0.7 2.1,0.8 1.4,0 2.3,0 3.5,-0.6 1,-0.3 2.6,-1.4 3.4,-2.1 1,-0.9 1.7,-1.7 2.3,-2.9 0.6,-1 0.9,-2.1 0.8,-3.3 -0.1,-0.5 -0.2,-1 -0.6,-1.4 l -1.1,-1.2 c -0.3,-0.3 -0.9,-0.7 -1.2,-0.4 -0.3,0.2 -0.3,0.6 -0.3,0.9 0.1,0.8 0.8,1.3 1,2.1 0.3,0.7 0.3,1.5 0,2.3 -0.3,0.6 -1.4,1.5 -1.4,1.5 l -0.6,-1.6 c -0.5,-1.2 -1.7,-1.5 -2.6,-2.3 -0.7,-0.5 -1.3,-1.2 -1.4,-2 -0.3,-0.8 -0.3,-1.8 0.2,-2.6 0.2,-0.2 0.4,-0.5 0.7,-0.6 0.4,-0.3 1.7,-0.7 1.7,-0.7 0,0 -1.1,-1.2 -1.4,-1.8 -0.5,-0.8 -0.8,-2 -0.9,-2.9 -0.2,-1.5 0,-3.1 0,-3.3 0.2,0 1.9,0.2 3.3,0.7 0.8,0.4 2.5,1.1 3.1,1.8 0.5,0.5 1.1,1.7 1.1,1.7 0,0 0.5,-0.8 0.9,-1.2 0.2,-0.2 0.5,-0.4 0.8,-0.5 0.9,-0.2 1.9,0 2.6,0.4 0.8,0.4 1.2,1.1 1.6,1.9 0.6,1.1 0.3,2.6 1.3,3.3 l 1.5,1 c 0,0 -1.2,0.9 -1.8,0.9 -0.8,0.1 -1.6,-0.1 -2.3,-0.6 -0.6,-0.4 -0.8,-1.2 -1.5,-1.6 -0.2,-0.3 -0.7,-0.7 -1,-0.4 -0.3,0.3 -0.4,1 -0.1,1.3 0.4,0.5 0.8,1 1.2,1.4 0.7,0.9 1.9,1.1 2.9,1.1 1.5,0 2.9,-0.4 4.2,-1.7 1.9,-1.9 2.2,-5.3 1.7,-7.5 -3.5,4.1 -2.3,3.8 -3.7,5.3 l -4.9,-11.1 c 2.6,1.6 5.1,3.2 8.8,3.1 -1.7,-2.7 -5.2,-4.8 -8.8,-6.9 2.7,-2 5.4,-3.6 8,-4.6 l 8.9,26.7 c -20.2,10 -35.2,24.5 -49.7,41.4 z" />
      <path
         inkscape:connector-curvature="0"
         id="path97"
         d="m 166.1,181.2 -0.1,-1.4 -1.3,-0.4 -4,3 0.2,1.2 1.2,0.5 z" />
      <path
         inkscape:connector-curvature="0"
         id="path99"
         d="m 130.7,209.8 -0.2,-1.3 3.6,-3.4 1.3,0.4 0.2,1.2 -3.6,3.4 z" />
    </g>
  </g>
  <use
     id="shine"
     xlink:href="#shield"
     fill="url(#rg)"
     stroke="#000"
     stroke-width="3"
     style="fill-opacity:1.0" />
</svg>
