<?xml version="1.0" encoding="UTF-8"?>
<svg xmlns="http://www.w3.org/2000/svg" xmlns:xlink="http://www.w3.org/1999/xlink" width="600" height="660">
<defs>
  <radialGradient id="rg" gradientUnits="userSpaceOnUse" cx="220" cy="220" r="405">
    <stop style="stop-color:#fff;stop-opacity:.3" offset="0"/>
    <stop style="stop-color:#fff;stop-opacity:.2" offset=".2"/>
    <stop style="stop-color:#666;stop-opacity:.1" offset=".6"/>
    <stop style="stop-color:#000;stop-opacity:.13" offset="1"/>
  </radialGradient>
  <path id="shield" d="m2,2v257c0,286 298,398 298,398c0,0 298-112 298-398V2z"/>
  <g id="sun">
    <g id="wavy-rays" transform="rotate(22.5,300,300)">
      <g id="wavy-ray">
        <path style="fill:#ffff00;stroke:none;" d="m 295.71673,70.37585 c -2.38477,5.976283 -6.7925,17.205125 -9.21187,29.4824 -2.48155,13.19766 -2.69547,27.57144 -1.27552,43.82304 v 2e-5 c 0.9165,13.14114 2.36127,26.69187 0.2801,36.94871 -1.5238,9.64131 -6.37028,19.49065 -11.65569,30.465 -6.48769,12.08882 -13.44166,26.83452 -16.40516,47.21637 -1.10448,16.24642 1.28913,30.23675 5.17828,41.68861 h 37.36937 l 18.02493,-120.0503 -18.02117,-59.97485 -2.71283,-29.987425 2.71283,-29.987425 c 0,0 -1.59954,3.650359 -4.28327,10.37585 z"/>
        <path style="fill:#e5e500;stroke:none;" d="m 337.36561,300 c -1.98638,-5.85559 -4.36398,-11.09158 -6.86602,-15.53917 -1e-5,-4e-5 -0.0316,-0.0736 -0.0317,-0.0736 h 5e-5 v 0 c -3.60485,-8.37348 -8.77008,-17.39754 -8.83053,-22.69862 -1.56615,-6.81556 1.57439,-17.21075 4.50884,-32.78363 3.53396,-14.92204 5.36752,-31.99714 3.05631,-49.535 -2.90283,-17.45097 -9.21149,-31.54555 -14.4319,-43.05129 l -1e-5,-1e-5 c -6.10281,-13.8338 -10.29735,-24.63776 -12.38351,-36.17693 -1.99032,-10.56752 -2.15623,-22.657551 -2.24509,-28.944025 -0.10163,-7.188564 -0.14205,-11.197725 -0.14205,-11.197725 -2.575,13.3333 -5.316,26.6667 -5.554,40 -0.238,13.333 2.231,26.667 5.554,40 3.323,13.333 6.9715,26.66699 7.356,40 0.3845,13.33299 -2.815,26.667 -7.356,40 -4.541,13.333 -9.7555,26.66703 -10.457,40 -0.7015,13.33303 3.664,26.667 10.457,40"/>
      </g>
      <use xlink:href="#wavy-ray" transform="rotate(45,300,300)"/>
      <use xlink:href="#wavy-ray" transform="rotate(90,300,300)"/>
      <use xlink:href="#wavy-ray" transform="rotate(135,300,300)"/>
      <use xlink:href="#wavy-ray" transform="rotate(180,300,300)"/>
      <use xlink:href="#wavy-ray" transform="rotate(225,300,300)"/>
      <use xlink:href="#wavy-ray" transform="rotate(270,300,300)"/>
      <use xlink:href="#wavy-ray" transform="rotate(315,300,300)"/>
    </g>
    <g id="straight-rays">
      <g id="straight-ray">
        <path style="fill:#ffff00;stroke:none;" d="m 300,60 -30.61467,166.08964 30.61467,73.91036 15,-73.91036 z"/>
        <path style="fill:#e5e500;stroke:none;" d="m 300,300 v -240 l 30.61467,166.08964 z"/>
      </g>
      <use xlink:href="#straight-ray" transform="rotate(45,300,300)"/>
      <use xlink:href="#straight-ray" transform="rotate(90,300,300)"/>
      <use xlink:href="#straight-ray" transform="rotate(135,300,300)"/>
      <use xlink:href="#straight-ray" transform="rotate(180,300,300)"/>
      <use xlink:href="#straight-ray" transform="rotate(225,300,300)"/>
      <use xlink:href="#straight-ray" transform="rotate(270,300,300)"/>
      <use xlink:href="#straight-ray" transform="rotate(315,300,300)"/>
    </g>
    <circle id="disk" style="fill:#ffff00;stroke:#e5e500;" cx="300" cy="300" r="80"/>
  </g>
</defs>
<use xlink:href="#shield" style="fill:#000000"/>
<g id="fool" style="stroke:#974c00;stroke-width:1;stroke-linecap:round;stroke-linejoin:round;">
  <path style="fill:#ffff00;" d="m 459.74236,460.72138 c 0.13289,-5.36804 6.63342,-8.53835 11.73563,-7.73828 7.6072,1.19286 13.6595,9.29688 13.07165,17.30331 -0.55388,7.5437 -4.69761,10.83678 -9.50571,16.06124 -3.9111,4.24979 -6.45315,9.60278 -7.45836,15.31227 -1.01986,5.79269 -1.61235,11.06112 -6.30107,15.02916 -6.1055,5.16705 -11.85904,5.19578 -16.74303,-0.75868 -1.80459,-2.20013 -2.49558,-5.59377 -6.95514,-11.22534 -0.87792,-5.8094 4.38626,-14.84071 11.0956,-16.32626 7.30909,-7.54428 12.30352,-7.23065 18.05249,-15.71496 2.8309,-4.17783 4.7594,-9.19518 0.39969,-12.65902 -2.1335,-1.69509 -6.04391,-2.12646 -7.39175,0.71656 z"/>
  <circle style="fill:#ff0000;" cx="458.92834" cy="464.24448" r="4.113"/>
  <path style="fill:#ff0000;" d="m 220.281,557.5333 c -5.33887,0.57439 -7.96322,7.31387 -6.74581,12.33288 1.81513,7.48317 10.38993,12.84771 18.32077,11.60268 7.4725,-1.17308 10.41324,-5.57387 15.22411,-10.79578 3.91335,-4.24771 9.03889,-7.22184 14.64623,-8.69371 5.68905,-1.49332 10.89082,-2.51755 14.45936,-7.51705 4.64684,-6.51017 4.20177,-12.24655 -2.13457,-16.62372 -2.34123,-1.61733 -3.96597,-3.30337 -8.19367,-7.18957 -5.86196,-0.39665 -17.99539,6.77545 -18.92351,13.58432 -6.9169,7.90541 -6.19314,12.85706 -14.17533,19.28504 -3.93057,3.16524 -8.77211,5.50029 -12.58313,1.44056 -1.86499,-1.9867 -2.61684,-5.84833 0.10555,-7.42565 z"/>
  <circle style="fill:#ffff00;" transform="matrix(0.08233096,0.99660504,0.99660504,-0.08233096,0,0)" cx="572.96246" cy="177.15401" r="4.113"/>
  <path style="fill:#ff0000;" d="m 383.56569,427.30444 c -5.78411,-15.93406 -16.9329,-14.83949 -39.2387,-37.44729 -10.36367,-10.50398 -20.35688,-23.8116 -34.95448,-28.09737 -8.68195,7.50454 -24.92363,15.3582 -35.82728,14.41204 -0.0149,6.92188 -2.97071,17.52862 -0.68087,24.487 1.30961,3.97963 6.71723,6.66712 9.34949,7.0392 5.4031,0.76375 6.8479,3.39406 11.05776,6.61658 4.9008,3.7514 8.91204,7.74825 18.61477,9.90922 7.90536,1.76065 14.27297,9.15425 19.57217,11.99375 15.32173,8.20994 20.64888,10.88857 30.42504,13.41221 1.85592,11.59366 1.06445,11.58997 8.09061,18.82196 10.89106,11.21011 31.43307,16.22557 46.49473,24.9759 8.80301,5.11427 17.415,11.02456 21.1174,11.27742 7.64644,-0.63541 15.61376,-10.52426 11.0956,-16.32626 -9.73942,-11.34898 -23.91289,-21.38367 -35.36737,-31.1356 -11.41184,-9.71563 -26.08288,-19.83972 -29.74887,-29.93876 z"/>
  <path style="fill:#ffff00;" d="m 273.54523,376.17182 c -0.18775,6.4448 3.08,19.26394 1.53534,25.92307 -0.76556,3.30038 -5.83731,5.71355 -6.1771,6.55355 -1.85284,4.58042 -8.76383,7.93576 -10.86789,11.95975 -4.20368,8.03946 -8.28409,12.44942 -14.14423,18.72749 -8.33239,8.92662 -16.20334,13.58704 -27.62524,22.40766 10.33515,2.46063 20.22608,14.47867 24.24661,24.21222 6.18648,14.97719 11.94531,31.38172 25.3447,44.69347 11.35608,11.80371 -10.09454,18.61736 -18.92351,13.58432 -8.25294,-9.79488 -18.54817,-19.09612 -32.06462,-27.7495 -10.12826,-6.48423 -15.18867,-14.50063 -25.12991,-22.94622 -3.6925,-3.13697 -6.29357,-5.01023 -7.84203,-8.82701 -1.76168,-4.34237 -6.363,-7.53042 -8.92976,-11.30288 -1.6462,-2.41948 -3.84022,-4.23282 -4.12923,-7.7832 -0.68207,-8.37897 2.45722,-14.5586 4.79561,-17.47275 2.93772,-3.66104 3.97951,-10.43961 8.72049,-17.56931 6.59945,-9.92455 13.52378,-21.77011 24.10941,-33.50004 6.75877,-7.48938 16.74678,-21.52101 27.89763,-28.0862 12.37069,4.51827 24.81969,7.21178 39.18373,7.17558 z"/>
  <g style="fill:#ffaaaa;stroke:#5b1111;">
    <path d="m 252.62769,228.34632 c 0.28507,5.47161 0.57827,10.92658 -0.3353,18.85503 11.03497,17.44272 27.55417,8.82305 31.87593,0.76067 -2.16337,-9.445 -1.79499,-12.55691 -1.58534,-17.57666 z"/>
    <path d="m 241.71204,194.36751 c 0.26357,2.77532 2.28708,7.07225 2.34867,14.10586 0.10976,12.53365 -0.23097,16.27466 6.64401,23.07043 9.20478,9.09874 8.78992,13.05083 17.37788,13.05083 8.58795,0 8.17309,-3.95209 17.37788,-13.05083 6.87497,-6.79577 6.53424,-10.53678 6.644,-23.07043 0.0616,-7.03361 2.0851,-11.33054 2.34867,-14.10586 0.0498,-4.48188 -19.02575,-10.85107 -26.37055,-6.86204 -7.34481,-3.98903 -26.42035,2.38016 -26.37056,6.86204 z"/>
    <path style="fill:none;" d="m 263.21158,216.61842 c -1.25995,1.42604 -1.87744,2.38313 -1.0415,3.06585 1.0152,0.82914 1.59201,0.4269 2.34511,0.81351 0.94176,0.48347 0.64704,1.86344 2.61292,1.73177 1.88599,-0.12633 1.72909,-1.30649 2.91428,-1.64253 0.90122,-0.25553 2.55046,0.75851 3.03371,-0.0439 1.19896,-1.99091 -0.75688,-3.27816 -1.43431,-3.87562"/>
    <path d="m 245.12207,217.18764 c 0,0 -1.28719,-0.0966 -2.06157,-0.85423 -0.77438,-0.75763 -1.66592,-1.63645 -2.05386,-4.5987 -1.35547,-4.4466 -2.33928,-5.56272 -0.76988,-7.93226 1.56939,-2.36952 4.38996,1.23343 4.38996,1.23343"/>
    <path style="fill:#ffffff;" d="m 273.45054,206.40625 c 1.35505,-1.0669 2.9436,-2.05638 5.06821,-1.88045 2.19454,0.18173 3.73588,1.17274 4.77107,2.51802 -1.08158,0.8511 -2.59982,1.84921 -4.78854,1.66796 -2.16566,-0.17933 -3.88406,-0.81188 -5.05074,-2.30553 z"/>
    <path style="fill:none;" d="m 260.12517,227.37032 c 5.21483,3.44344 11.24119,3.06433 15.63678,-0.0432"/>
    <path d="m 291.04312,217.18764 c 0,0 1.28719,-0.0966 2.06157,-0.85423 0.77438,-0.75763 1.66592,-1.63645 2.05386,-4.5987 1.35547,-4.4466 2.33928,-5.56272 0.76988,-7.93226 -1.56939,-2.36952 -4.38996,1.23343 -4.38996,1.23343"/>
    <path style="fill:#800000;" d="m 247.29946,196.41364 c -1.00507,2.59442 -2.18829,10.11556 -2.17739,10.79624 -0.0937,0.46394 -1.33397,0.68412 -1.33251,0.11499 0.01,-3.841 -0.67818,-7.23072 -1.37825,-8.88775"/>
    <path style="fill:#800000;" d="m 288.89577,196.41364 c 1.00506,2.59442 2.18829,10.11556 2.17739,10.79624 0.0937,0.46394 1.33396,0.68412 1.33251,0.11499 -0.01,-3.841 0.67818,-7.23072 1.37825,-8.88775"/>
    <path style="fill:#ffffff;" d="m 262.58197,206.28575 c -1.35504,-1.06691 -2.9436,-2.05638 -5.06821,-1.88045 -2.19454,0.18173 -3.73588,1.17274 -4.77107,2.51802 1.08158,0.8511 2.59982,1.8492 4.78854,1.66796 2.16566,-0.17934 3.88406,-0.81188 5.05074,-2.30553 z"/>
    <g>
      <path style="fill:#800000;stroke:none;" d="m 257.61343,204.73408 a 1.8153168,1.8153168 0 0 1 1.62704,1.97639 1.8153168,1.8153168 0 0 1 -1.96713,1.63822 1.8153168,1.8153168 0 0 1 -1.64935,-1.9578 1.8153168,1.8153168 0 0 1 1.94842,-1.66044"/>
      <path style="fill:#000000;stroke:none;" d="m 257.49678,205.90282 a 0.6407721,0.6407721 0 0 1 0.57431,0.69762 0.6407721,0.6407721 0 0 1 -0.69436,0.57827 0.6407721,0.6407721 0 0 1 -0.58219,-0.69107 0.6407721,0.6407721 0 0 1 0.68776,-0.5861"/>
      <path style="fill:#ffffff;stroke:none;" d="m 257.86066,205.58098 a 0.40773308,0.40773308 0 0 1 0.36544,0.44391 0.40773308,0.40773308 0 0 1 -0.44183,0.36795 0.40773308,0.40773308 0 0 1 -0.37046,-0.43973 0.40773308,0.40773308 0 0 1 0.43763,-0.37295"/>
    </g>
    <g transform="translate(20.840657,0.1160081)">
      <path style="fill:#800000;stroke:none;" d="m 257.61343,204.73408 a 1.8153168,1.8153168 0 0 1 1.62704,1.97639 1.8153168,1.8153168 0 0 1 -1.96713,1.63822 1.8153168,1.8153168 0 0 1 -1.64935,-1.9578 1.8153168,1.8153168 0 0 1 1.94842,-1.66044"/>
      <path style="fill:#000000;stroke:none;" d="m 257.49678,205.90282 a 0.6407721,0.6407721 0 0 1 0.57431,0.69762 0.6407721,0.6407721 0 0 1 -0.69436,0.57827 0.6407721,0.6407721 0 0 1 -0.58219,-0.69107 0.6407721,0.6407721 0 0 1 0.68776,-0.5861"/>
      <path style="fill:#ffffff;stroke:none;" d="m 257.86066,205.58098 a 0.40773308,0.40773308 0 0 1 0.36544,0.44391 0.40773308,0.40773308 0 0 1 -0.44183,0.36795 0.40773308,0.40773308 0 0 1 -0.37046,-0.43973 0.40773308,0.40773308 0 0 1 0.43763,-0.37295"/>
    </g>
    <path style="fill:#800000;" d="m 262.22176,201.07998 c -3.30641,-0.70956 -8.5481,1.04175 -10.5357,1.77206 -0.47559,-0.15609 -0.51744,-0.41395 -0.19804,-0.79127 2.0369,-1.53568 6.47976,-2.9527 9.80062,-2.79668 0.94898,0.0446 1.30073,0.71394 0.93312,1.81589 z"/>
    <path style="fill:#800000;" d="m 273.82978,199.71472 c 3.30156,-0.0157 8.20161,1.13764 9.80497,1.67477 0.60232,-0.0404 0.42716,-0.47059 0.16698,-0.7984 -3.49191,-1.60061 -7.735,-2.39067 -9.90239,-2.4117 -0.94998,-0.009 -1.51666,1.54222 -0.0696,1.53533 z"/>
  </g>
  <path style="fill:#ffff00;" d="m 273.40997,376.17271 c 11.36333,0.27791 23.05403,-3.00874 35.49016,-14.41224 -2.11996,-6.16379 -5.77812,-17.86029 -0.82942,-33.60739 6.70752,-21.34378 7.73227,-52.32351 1.76006,-62.43299 -3.12604,-5.29161 -0.90569,-11.12911 -6.1654,-14.22088 -5.79949,-3.40907 -13.55216,-3.13945 -19.49705,-3.53719 -3.58149,2.98043 -5.04236,4.5063 -14.69697,4.90115 -3.37878,21.946 -10.88281,45.51945 -10.15874,67.71689 0.62362,19.11808 9.39824,37.06176 14.09736,55.59265 z"/>
  <path style="fill:#ff0000;" d="m 273.54523,376.17182 c -2.09499,-15.05822 3.07756,-36.19003 -0.0969,-59.51714 -3.46172,-25.43774 1.86609,-51.73729 -3.87931,-63.79075 -6.2383,0.17283 -9.23101,-0.18701 -17.2766,-5.66258 -3.39827,1.05675 -11.71355,4.15991 -14.97671,8.27676 -7.15005,9.02061 -14.32554,20.3231 -14.14671,34.07249 0.32364,24.88277 12.63021,40.53421 13.25245,55.69487 0.50501,12.30463 0.42187,16.62732 -2.05992,23.75077 8.3871,5.58699 17.72465,10.52429 39.18373,7.17558 z"/>
  <g style="fill:#ffaaaa;stroke:#5b1111;">
    <path d="m 404.51538,252.37916 c 0.63363,-3.0706 0.83192,-5.3604 2.22593,-9.1938 2.92687,0.26008 16.19003,-4.86357 13.40469,-14.27757 5.01717,-0.54109 4.87332,-2.09403 5.88404,-3.54722 0.97159,-1.39694 1.80289,-3.94954 1.98063,-5.87549 0.26881,-2.91267 -0.2129,-4.38591 -0.93702,-6.79689 -1.52169,-0.40888 -3.47474,0.26623 -3.86755,1.8905 -0.35765,1.47886 0.0138,2.44613 0.11207,3.84492 -0.9338,1.18633 -1.67425,2.48079 -2.3482,4.11969 -1.61401,-0.007 -2.84513,0.22538 -4.06685,0.46364 -3.50214,-0.25186 -7.13107,-0.37711 -12.17944,0.91514 1.26252,-2.95924 3.76989,-2.93628 7.20397,-5.08046 1.90886,-1.19185 3.44781,-4.53737 1.68129,-7.69142 -0.82479,-0.0406 -3.71973,1.61417 -5.3255,3.71201 -13.3294,4.09921 -15.65104,10.56916 -16.68387,17.31668 -1.10489,3.66713 -0.95835,5.3201 -3.79094,11.7679"/>
    <path d="m 419.21968,234.19126 c 2.65743,0.17291 4.91387,0.0668 7.08743,-0.25717 3.76119,-0.56051 3.89599,-2.49804 4.53654,-3.41901 0.9716,-1.39694 2.29907,-3.82937 2.47681,-5.75533 0.26881,-2.91266 0.61017,-4.10146 -0.11395,-6.51244 -1.52169,-0.40888 -3.47474,0.26623 -3.86755,1.8905 -0.35765,1.47886 0.0138,2.44613 0.11207,3.84493 -0.9338,1.18632 -1.67426,2.48078 -2.3482,4.11969 -1.64076,-0.57769 -4.05412,-0.37869 -7.36959,0.23348"/>
    <path d="m 429.45103,223.98274 c 0.35799,1.30684 1.07879,1.32942 1.47724,1.39783"/>
    <path d="m 427.10283,228.10243 c 0.20578,1.20419 0.84215,1.9385 1.72863,2.18105"/>
    <path d="m 419.73324,228.33591 c 0.69242,0.76287 0.55082,1.86089 0.35116,2.78665"/>
    <path d="m 414.17412,235.94804 c 2.20676,1.49065 4.20823,2.53798 6.24807,3.3555 3.5298,1.41466 6.23432,0.64683 7.25216,0.17512 1.54386,-0.71548 3.91761,-2.14522 5.04321,-3.7181 1.70227,-2.37868 2.59702,-3.23261 3.1889,-5.67941 -1.10722,-1.12107 -3.13397,-1.52412 -4.29295,-0.32024 -1.05522,1.09612 -1.22283,2.1186 -1.84404,3.37573 -1.40493,0.55275 -2.69753,1.29644 -4.10659,2.37105 -1.12476,-1.32688 -3.23249,-2.41429 -6.44816,-3.01317"/>
    <path d="m 429.76947,233.13664 c 0.0568,1.83983 0.75517,2.07855 1.0646,2.33873"/>
    <path d="m 425.66288,235.50769 c -0.0629,1.5519 0.097,2.82129 0.73985,3.47814"/>
    <path d="m 419.21472,232.49452 c -0.12654,1.66055 -0.89376,2.69233 -1.85289,2.86405"/>
    <path d="m 423.31817,218.42361 c 0.5541,1.41936 1.31792,1.25238 1.71637,1.32079"/>
    <path d="m 420.96997,222.5433 c 0.10047,1.19671 0.82037,1.85838 1.70685,2.10093"/>
    <path d="m 416.90312,223.00694 c 1.3497,1.02327 1.79155,1.99173 2.10931,3.47646"/>
    <path d="m 403.70141,239.61184 c 4.51287,3.74381 6.58416,2.20064 10.08394,3.23095 1.90888,0.56196 2.56125,2.72121 5.61723,2.71372 2.21021,-0.005 3.57419,-0.22589 5.02025,-1.47863 0.97493,-0.84459 1.82709,-1.14284 2.62024,-2.9429 1.14567,-2.60007 1.09338,-2.42458 1.33458,-4.1625 -1.0564,-1.69749 -3.0798,-0.71029 -4.28569,0.95399 -0.51339,0.72403 -0.72547,1.66592 -1.1103,2.62223 -0.97183,0.14105 -1.95532,0.2159 -3.0645,0.74386 -0.698,-2.43781 -3.0471,-4.22205 -5.74304,-5.34452"/>
    <path d="m 422.98166,240.5487 c 0.0284,0.91991 0.21721,1.43955 0.43758,1.76173"/>
    <path d="m 419.91716,241.29256 c -0.42999,0.78169 -0.38176,1.351 -0.2693,1.94444"/>
  </g>
  <path style="fill:#ff0000;" d="m 303.66537,251.49921 c -4.4878,5.20319 -3.83511,13.94197 0.3434,24.25241 4.84321,11.95054 11.75651,20.91354 19.83001,27.40497 0,0 11.45241,7.16749 20.14065,9.10987 8.18555,1.83 23.2578,6.77554 30.5584,3.81407 8.07549,-3.2758 14.3147,-20.12339 17.71052,-27.64984 3.33611,-7.39411 17.75898,-27.61936 17.79846,-39.71253 -6.54819,-1.62017 -20.28439,-8.27556 -23.80311,-13.70135 -3.31552,4.05049 -6.73796,9.72955 -9.48207,16.21581 -2.29319,5.42042 -6.00859,8.61471 -9.66143,16.14091 -4.62823,9.53589 -6.02495,18.7966 -6.02495,18.7966 -4.76941,-7.57604 -23.92582,-20.33553 -31.31403,-24.04521 -9.03344,-4.53578 -16.40618,-9.42049 -26.09585,-10.62571 z"/>
  <g style="fill:#ffaaaa;stroke:#5b1111;">
    <path d="m 121.68099,274.29257 c -0.99538,-2.9731 -1.46539,-5.22291 -3.3067,-8.86265 -2.87495,0.60735 -16.65458,-2.89766 -15.01205,-12.57669 -5.045893,0.0612 -5.088306,-1.49777 -6.265153,-2.82003 -1.13129,-1.27107 -2.261128,-3.70628 -2.667336,-5.59729 -0.614317,-2.8598 -0.311781,-4.37998 0.119579,-6.86012 1.462056,-0.58748 3.481691,-0.15015 4.065442,1.41566 0.531496,1.42565 0.278094,2.43032 0.34736,3.83084 1.068638,1.06647 1.958218,2.26337 2.822848,3.81018 1.60165,-0.19946 2.8517,-0.1156 4.09311,-0.0248 3.4471,-0.6678 7.03517,-1.22502 12.20164,-0.54419 -1.60648,-2.78752 -4.09321,-2.46563 -7.75854,-4.18487 -2.03739,-0.95565 -3.96442,-4.09372 -2.58674,-7.43596 0.81405,-0.13871 3.88571,1.15894 5.73026,3.05026 13.7232,2.47998 16.80001,8.6268 18.63033,15.20296 1.53443,3.50914 1.5861,5.16779 5.16758,11.23168"/>
    <path d="m 104.91217,257.98849 c -2.61783,0.48865 -4.87082,0.65241 -7.067502,0.59007 -3.801197,-0.10786 -4.166151,-2.01548 -4.911985,-2.85347 -1.13129,-1.27107 -2.739427,-3.52779 -3.145632,-5.41879 -0.61432,-2.85981 -1.095048,-3.9994 -0.663688,-6.47954 1.462055,-0.58747 3.481691,-0.15015 4.065439,1.41567 0.531498,1.42564 0.278097,2.43031 0.347364,3.83084 1.06864,1.06647 1.958219,2.26336 2.822845,3.81018 1.560137,-0.76928 3.979999,-0.85957 7.344829,-0.64725"/>
    <path d="m 93.536166,249.07327 c -0.220575,1.07985 -1.142796,1.26516 -1.530239,1.38062"/>
    <path d="m 96.359011,252.88345 c -0.0518,1.09014 -0.233951,1.79633 -1.04264,2.21498"/>
    <path d="m 103.70384,252.2362 c -0.3416,0.61703 -0.36574,1.79825 0.10876,2.78093"/>
    <path d="m 110.13126,259.13088 c -2.0132,1.74323 -3.87544,3.02182 -5.80321,4.07682 -3.33585,1.82561 -6.11265,1.38587 -7.179486,1.03893 -1.618187,-0.52621 -4.145535,-1.6626 -5.450713,-3.08998 -1.97385,-2.15865 -2.964068,-2.89976 -3.843587,-5.25849 0.965589,-1.24514 2.929797,-1.88706 4.224095,-0.83002 1.178438,0.96242 1.466812,1.95761 2.233548,3.13166 1.460827,0.38122 2.832913,0.96542 4.360088,1.86428 0.95846,-1.45157 2.921435,-2.78264 6.042715,-3.76081"/>
    <path d="m 94.311907,258.1998 c 0.163051,1.83347 -0.50185,2.15379 -0.778035,2.44902"/>
    <path d="m 98.671995,260.06408 c 0.247528,1.53332 0.240211,2.81272 -0.319678,3.54156"/>
    <path d="m 104.71471,256.30327 c 0.3237,1.6336 1.20852,2.5665 2.18129,2.62258"/>
    <path d="m 98.962132,242.82229 c -0.238709,1.21149 -0.901858,1.48743 -1.289301,1.60288"/>
    <path d="m 101.78498,246.63247 c 0.0731,1.08359 -0.39752,1.99362 -1.22534,2.68516"/>
    <path d="m 105.87809,246.60769 c -1.61225,1.5875 -1.80095,2.58526 -1.71524,4.11474"/>
    <path d="m 120.96622,261.5193 c -4.03407,4.25539 -6.27464,2.97031 -9.62654,4.41073 -1.82822,0.78564 -2.21838,3.00729 -5.25342,3.36438 -2.19508,0.25826 -3.57562,0.20206 -5.16079,-0.86925 -1.068715,-0.72226 -1.950362,-0.91673 -2.952574,-2.60933 -1.44763,-2.44485 -1.374774,-2.27685 -1.821562,-3.97359 0.846374,-1.81139 2.973086,-1.07259 4.368896,0.43597 0.59608,0.65762 0.919,1.56748 1.41515,2.47106 0.98172,0.0241 1.96711,-0.0189 3.13135,0.37301 0.40223,-2.50367 2.52173,-4.55537 5.06453,-5.9914"/>
    <path d="m 101.93538,264.74927 c 0.0815,0.91674 -0.0439,1.45519 -0.22431,1.80135"/>
    <path d="m 105.06673,265.12228 c 0.52016,0.72482 0.54019,1.29582 0.49931,1.89843"/>
  </g>
  <path style="fill:#ffff00;" d="m 237.31568,255.47811 c -7.36389,23.35373 -6.46528,36.91229 -13.07557,45.90684 -5.63969,7.88177 -18.53292,11.45592 -31.54529,16.78496 -9.26248,3.79332 -25.76043,19.16493 -35.73733,12.82583 -3.27932,-2.08361 -11.41713,-6.93085 -19.39573,-18.58276 -3.80196,-5.55237 -6.13305,-12.30823 -9.52747,-17.9719 -5.36795,-8.95654 -9.38447,-16.63064 -11.00829,-23.67037 7.48303,1.00767 18.70103,-7.86663 20.24652,-12.77225 11.95949,11.26606 22.91586,29.48993 28.58365,39.01372 2.07233,-1.92429 11.20629,-12.93784 23.55104,-19.01785 9.05381,-4.45916 14.12187,-7.8087 19.76274,-11.48886 15.2349,-9.93938 20.688,-12.13241 28.14573,-11.02736 z"/>
  <g>
    <path style="fill:#ff0000;" d="m 212.8523,190.78378 c 2.52599,-8.2819 1.54284,-12.61415 7.39735,-21.11215 4.98478,-7.23556 12.36803,-13.1208 15.09464,-15.63492 3.95655,-3.64822 8.9617,-3.43093 14.32522,2.02635 12.53799,12.75716 19.69122,8.41183 17.91401,18.74233 -3.69429,10.35231 -24.67692,8.51406 -24.67692,8.51406 -1.33591,-5.68227 -7.16212,-8.55899 -10.12086,-12.66628 -5.48927,5.84597 -14.73442,10.37603 -19.93344,20.13061 z"/>
    <circle style="fill:#ffff00;" transform="matrix(0.08233096,0.99660504,0.99660504,-0.08233096,0,0)" cx="208.83617" cy="195.79663" r="4.113"/>
    <path style="fill:#ffff00;" d="m 239.33987,186.00154 c 0.46628,4.74404 1.74743,9.50772 3.26364,14.25675 2.92143,-4.55673 15.80431,-7.76103 25.47909,-7.76103 0.52395,-5.59703 1.63971,-10.93664 -0.49908,-17.69187 -14.33827,1.7871 -17.15123,-5.41409 -26.61815,-2.94279"/>
    <path style="fill:#ff0000;" d="m 232.78574,170.65317 c 1.84158,-1.92321 3.47856,-2.585 4.38015,-3.8775"/>
    <path style="fill:#ffff00;" d="m 240.96537,171.8626 c -7.57233,2.24785 -14.17736,17.56701 -12.23433,25.32204 2.0941,8.35802 2.05531,17.98047 1.38606,23.99359 2.81179,-3.34446 3.83879,-5.00237 6.42007,-14.73336 1.54228,-5.81413 4.37659,-12.24571 11.49654,-14.54573"/>
    <path style="fill:#ffff00;" d="m 320.67432,187.81288 c -1.61976,-6.68946 -0.725,-19.6311 -8.11841,-26.83032 -6.29507,-6.12972 -14.68071,-10.46903 -17.84366,-12.40576 -4.58972,-2.81037 -9.45738,-1.62518 -13.65894,4.76982 -9.82176,14.94924 -17.21941,11.6701 -13.46979,21.45877 5.70671,4.9838 25.3973,3.96528 25.3973,3.96528 0.20694,-5.83353 2.79758,-6.48813 4.90232,-11.09183 3.77404,1.53811 5.82205,5.75876 12.1492,8.81118 5.7046,2.75208 8.10673,8.51319 10.64198,11.32286 z"/>
    <path style="fill:#ff0000;" d="m 297.06169,183.67346 c -2.74981,3.51659 -0.0286,10.65335 -3.50001,16.58483 -2.92143,-4.55673 -15.80431,-7.76103 -25.47908,-7.76103 -0.52395,-5.59703 -2.63786,-10.93664 -0.49908,-17.69187 5.97448,-3.81956 8.29687,-1.58417 13.30446,-2.62233 4.57797,-0.94909 8.43675,-3.01071 11.07327,-3.62572"/>
    <path style="fill:#ffff00;" d="m 297.88314,167.67884 c -1.83465,-2.63661 -6.79854,-5.29459 -8.38637,-5.685"/>
    <circle style="fill:#ff0000;" transform="matrix(0.08233096,0.99660504,0.99660504,-0.08233096,0,0)" cx="215.83255" cy="304.33698" r="4.113"/>
    <path style="fill:#ff0000;" d="m 291.96125,168.55734 c 4.74994,-1.59436 9.9827,-3.54614 13.71697,-1.00195 3.7534,2.55722 6.08159,7.23564 8.2533,12.09868 3.30799,7.40747 5.36138,15.46177 4.52012,18.81941 -2.0941,8.35802 -1.55537,8.97849 -0.88613,14.99161 -2.81178,-3.34446 -3.83878,-5.00236 -6.42007,-14.73336 -1.54228,-5.81412 -4.37659,-12.24571 -11.49653,-14.54573 -4.24477,6.00302 -8.75624,7.11346 -14.37543,6.13734"/>
    <path style="fill:#ff0000;" d="m 299.64891,184.186 c -3.07312,-1.05114 -5.33402,-0.35925 -7.585,-2.39139"/>
    <circle style="fill:#ffff00;" transform="matrix(0.08233096,0.99660504,0.99660504,-0.08233096,0,0)" cx="240.36118" cy="299.849" r="4.113"/>
    <circle style="fill:#ff0000;" transform="matrix(0.08233096,0.99660504,0.99660504,-0.08233096,0,0)" cx="241.84987" cy="210.09775" r="4.113"/>
  </g>
</g>
  <use xlink:href="#sun" transform="matrix(0.1042,0,0,0.1042,82.61,154)"/>
  <use xlink:href="#sun" transform="matrix(0.1042,0,0,0.1042,128.6,69.49)"/>
  <use xlink:href="#sun" transform="matrix(0.1042,0,0,0.1042,222.6,29.18)"/>
  <use xlink:href="#sun" transform="matrix(0.1042,0,0,0.1042,317.9,49.55)"/>
  <use xlink:href="#sun" transform="matrix(0.1042,0,0,0.1042,376.2,117.8)"/>
  <use id="shine" xlink:href="#shield" style="fill:url(#rg);stroke:#000000;stroke-width:3;"/>
</svg>
