<?xml version="1.0" encoding="UTF-8"?>
<svg xmlns="http://www.w3.org/2000/svg" xmlns:xlink="http://www.w3.org/1999/xlink" width="600" height="660">
<defs>
  <radialGradient id="rg" gradientUnits="userSpaceOnUse" cx="220" cy="220" r="405">
    <stop style="stop-color:#fff;stop-opacity:.3" offset="0"/>
    <stop style="stop-color:#fff;stop-opacity:.2" offset=".2"/>
    <stop style="stop-color:#666;stop-opacity:.1" offset=".6"/>
    <stop style="stop-color:#000;stop-opacity:.13" offset="1"/>
  </radialGradient>
  <clipPath id="clip-shield">
    <path id="shield" d="m2,2v257c0,286 298,398 298,398c0,0 298-112 298-398V2z"/>
  </clipPath>
  <pattern id="fret" patternUnits="userSpaceOnUse" x="50" width="100" height="100">
    <path fill="#ccc" d="M 39.394531 0 L 85.859375 46.464844 L 96.464844 35.859375 L 60.605469 0 L 39.394531 0 z M 35.859375 3.5351562 L 0 39.394531 L 0 60.605469 L 46.464844 14.140625 L 35.859375 3.5351562 z M 100 39.394531 L 53.535156 85.859375 L 64.140625 96.464844 L 100 60.605469 L 100 39.394531 z M 14.140625 53.535156 L 3.5351562 64.140625 L 39.394531 100 L 60.605469 100 L 14.140625 53.535156 z "/>
  </pattern>
</defs>
<use id="background" xlink:href="#shield" fill="#fff"/>
<use id="background" xlink:href="#shield" fill="url(#fret)"/>
<g id="fish" style="stroke-miterlimit:20;stroke-linejoin:miter;">
    <path style="fill:#00c;stroke:#ccc;" d="m 254.77,282.78 c -2.66,5.02 -5.5,11.6 -10.31,15.12 16.21,-57.38 12.79,-112.53 9.3,-127.07 5.27,0.49 10.74,-1.33 14.86,-4.85 3.65,-3.1 5.94,-7.59 7.11,-12.25 1.11,7 12.6,65.7 -20.96,129.05 z" />
    <path style="fill:#ccc;" d="m 259.82,169.85 1.24,-0.15 c 0.1,0.29 0.1,0.61 0.1,0.91 2.17,2.75 10.05,8.62 11.15,16.36 -3.31,-6.35 -8,-11.54 -10.95,-14.43 0.3,3 0.53,6.18 0.73,9.52 2.12,2.68 10.37,9.62 10.67,15.92 -3.16,-6.04 -7.6,-11.03 -10.57,-14 0.14,2.49 0.24,5.05 0.3,7.67 0,0 0,0 0,0 1.61,3.14 9.2,12.85 7.86,18.18 -1.99,-6.6 -5.47,-12.51 -7.83,-15.97 0.1,3.36 0.11,6.82 0.1,10.33 l 0.1,-0.1 c 1.47,3.5 6.58,8.81 5.43,15.66 -1.47,-6.71 -3.66,-10.5 -5.55,-13.52 -0.1,3.94 -0.25,7.94 -0.48,11.99 1.16,3.52 5.91,9.81 4.05,15.89 -0.87,-6.5 -2.63,-10.39 -4.2,-13.47 -0.24,3.81 -0.58,7.63 -0.99,11.46 0.78,3.07 4.09,8.05 2.98,12.68 -0.77,-4.62 -2.06,-7.76 -3.23,-10.33 -0.32,2.69 -0.68,5.36 -1.09,8.02 0.84,3.02 4.58,8.01 3.22,12.59 -0.89,-4.74 -2.28,-7.88 -3.54,-10.47 -0.38,2.28 -0.79,4.54 -1.24,6.78 0.33,3.16 3.38,8.12 1.12,12.97 -0.1,-4.46 -0.86,-7.64 -1.62,-10.28 -0.83,1.97 -1.07,4.48 -2.53,5.45 6.2,-24.91 7.15,-54.44 5.84,-76.96 0,0 -0.1,-0.11 -0.12,-0.15 l 0.12,-0.1 c -0.26,-4.48 -0.58,-8.71 -1.01,-12.53 z" />
    <path style="fill:#008;stroke:#ccc;" d="m 234.21,184.77 1.76,0.54 c 0,0 -0.26,1.02 -0.59,2.34 l 1.17,0.49 c 0,0 -0.89,2.06 -1.76,4.64 -0.27,0.81 0.28,0.86 0.1,1.72 -0.1,0.96 -0.11,1.86 0,2.55 1.52,10.63 9.11,21.1 19.67,29.38 10.56,8.29 23.59,14.63 33.36,20.44 4.78,2.84 24.96,13.74 32.26,21.75 0,0 -17.59,-12.01 -33.1,-20.11 -10.1,-5.29 -23.87,-11.86 -34.6,-20.29 -9.22,-7.23 -16.01,-15.91 -19.06,-25.33 1.19,9.92 7.79,19.84 16.5,28.7 9.43,9.59 21.12,18.15 30.96,23.76 4.54,2.58 28.34,22.25 32.1,32.75 0,0 -16.89,-21.45 -33.04,-31.16 -9.8,-5.9 -23.96,-15.51 -33.56,-25.27 -9.59,-9.76 -15.32,-19.04 -15.63,-30.53 0,-1.64 0.37,-4.84 0.9,-6.75 0.14,-1.74 1.06,-3 1.4,-4.66 0.58,-2.74 1.21,-4.96 1.21,-4.96 z" />
    <path style="fill:#00c;stroke:#ccc;" d="m 222.2,130.86 c 16.86,-26.22 42.89,-62.847 72.42,-84.718 l -0.86,8.06 4.52,-2.456 3.06,3.25 4.24,-0.561 1.18,3.599 6.43,-1.86 1.5,3.922 8.2,0.149 1.37,5.017 6.4,-2.805 3.53,3.396 4.84,-2.774 0.25,4.571 8.83,0.128 c -10.17,9.666 -34.32,37.132 -33.91,39.162 19.04,-17.989 35.25,-38.001 57.45,-53.028 v 0 l 1.43,4.444 12.4,-6.278 3.16,7.13 6.2,-3.138 1.29,6.24 7.87,-0.624 1.04,5.551 8.34,-0.633 1.03,4.625 6.03,-0.12 -0.59,5.35 5.57,-0.11 -1.57,3.047 3.97,1.082 c -11.5,6.382 -33.09,21.122 -41.49,28.722 -1.79,1.62 -2.21,1.27 -3.35,3.73 19.39,-11.81 34.84,-19.522 50.73,-27.689 l 6.06,1.266 -1.61,4.244 5.57,1.588 -0.12,4.977 5.21,1.257 0.11,5.197 5.79,1.8 -0.21,5.78 6,0.67 -2.2,3.2 4.61,3.99 c -10.55,2.69 -51.12,18.27 -51.78,22.96 12.99,-4.96 29.83,-14.62 55.13,-18.85 l -1.69,5.69 6.49,2.47 -3.06,5.26 5.54,5.55 -2.4,4.56 5.18,4.76 -1.81,5.12 3.79,2.98 -4.07,6.07 4.15,3.99 -3.54,3.92 5.12,6.91 c -14.58,1.25 -61.09,10.73 -61.24,13.65 20.39,-3.14 40.33,-9.81 59.98,-8.2 l -2.85,3.9 3.57,3.43 -4.22,4.39 4.61,4.2 -4.79,3.59 3.76,6.95 -4.02,3.24 2.27,5.27 -3.24,1.98 1.69,5.62 -3.64,-0.6 2.51,6.4 -3.61,0.51 2.83,5.83 -1.42,2.63 c -14.79,-6.76 -30.76,-8.61 -31.35,-7.75 6.57,2.92 19.82,7.54 29.77,13.54 l -3.9,2.69 0.29,2.93 -4.26,2.11 0.29,3.39 -3.71,1.09 0.42,3.95 -2.7,0.97 0.53,3.15 -3.24,2.43 0.43,4.85 -2.34,1.75 -0.49,3.74 -2.68,1.42 0.54,4.28 -3.02,1.75 0.54,4.51 -9.55,3.25 c -2.9,-28.37 -30.25,-98.04 -73.07,-132.27 -27.6,-22.05 -95.28,-52 -142.46,-34.31 z" />
    <path style="fill:#ccc;" d="m 283.56,63.418 c -1.32,1.369 -2.69,2.791 -4.01,4.343 -16.41,18.014 -37.26,44.289 -44.23,59.339 l 1.12,0.55 c 9.08,-19.6 43.15,-59.959 58.17,-73.508 l -0.79,-0.938 c -2.87,2.57 -6.37,6.089 -10.25,10.222 z m 3.45,5.14 c -1.46,1.519 -2.91,3.03 -4.26,4.608 -16.87,18.37 -30.41,35.944 -40.07,52.514 l 1.07,0.61 c 12.79,-21.98 32.5,-45.707 57.82,-70.882 l -0.88,-0.85 c -4.75,4.731 -9.34,9.398 -13.69,14.035 z m 2.12,5.807 c -12.52,12.85 -26.67,29.655 -38.52,51.235 l 1.1,0.58 c 17.95,-32.7 41.14,-54.324 55.98,-68.034 l -0.8,-0.938 c -3.71,3.428 -7.94,7.36 -12.49,11.836 -1.67,1.731 -3.46,3.422 -5.24,5.278 z m 14.58,-6.555 c -1.14,1.643 -4.09,2.699 -2.36,4.276 4.27,-4.626 8.72,-9.073 13.12,-13.26 l -0.89,-0.849 c -3.32,3.143 -6.62,6.449 -9.9,9.86 z m -43.43,58.01 1.15,0.46 c 3.35,-8.29 13.8,-23.69 26.98,-39.507 -3.21,-1.991 -25.46,32.727 -28.13,39.047 z m 47.62,-49.73 c 4.69,-4.877 9.82,-9.988 15.59,-15.233 l -0.77,-0.912 c -2.06,2.537 -16.93,14.046 -14.78,16.11 z m -39.09,49.85 1.04,0.63 c 5.94,-9.45 12.31,-19.49 20.71,-30.333 -2.88,-1.581 -19.39,25.963 -21.75,29.703 z m 53.91,-54.555 c -1.37,2.228 -8.89,7.118 -6.79,9.018 4.94,-5.394 10.28,-10.934 16.01,-16.481 l -0.89,-0.849 c -2.85,2.795 -5.62,5.58 -8.29,8.346 z m -44.45,56.475 1.09,0.58 c 4.25,-7.63 10.59,-16.94 18.78,-27.27 -2.8,-1.717 -17.59,22.63 -19.87,26.69 z m 60.44,-64.601 c -2.36,3.548 -20.29,21.531 -18.25,23.25 6.59,-7.801 13.16,-15.375 19.18,-22.454 z m -52.53,65.781 1.01,0.65 c 6.3,-9.68 14.09,-19.85 22.32,-29.964 -2.32,-2.051 -21.21,26.084 -23.33,29.314 z m 29.61,-25.45 c -1.22,2.16 -11.33,10.78 -8.89,12.6 2.28,-2.98 5.46,-6.95 9.8,-11.78 z m -2.64,10.86 c -8.04,8.54 -12.94,14.47 -15.25,17.69 l 1,0.73 c 3.42,-4.78 12.83,-16.11 30.6,-32.943 -2.99,-1.266 -10.28,8.253 -12.68,10.703 -1.28,1.33 -2.5,2.61 -3.67,3.82 z m 41.96,-39.401 c 5.9,-5.343 12.23,-10.816 19.17,-16.526 l -0.78,-0.964 c -2.4,2.674 -20.29,15.404 -18.39,17.49 z m -28.68,33.771 c -2.55,2.65 -5.13,5.34 -7.64,8.12 -5.07,5.53 -10.13,11.27 -15.03,17.25 l 0.97,0.76 c 9.78,-11.92 20.1,-22.98 30.16,-32.99 -2.11,-1.69 -6.95,5.3 -8.44,6.86 z m 39.77,-35.759 c 8.4,-7.221 15.72,-13.138 21.18,-17.563 l -0.77,-0.964 c -3.28,3.229 -22.22,16.431 -20.41,18.527 z m -42.53,49.999 c -4.2,4.37 -8.23,8.92 -11.92,13.41 l 0.97,0.76 c 9.77,-11.89 22.22,-23.99 32.31,-34.01 -2.43,-1.39 -15.01,13.27 -17.14,15.45 -1.39,1.45 -2.79,2.91 -4.19,4.36 z m 49.15,-45.546 c 8.41,-7.23 17.27,-14.98 22.72,-19.378 l -0.78,-0.964 c -3.1,3.051 -23.61,18.261 -21.94,20.342 z m -37.53,42.746 c -6.12,6.37 -12.22,12.96 -17.15,18.95 l 0.97,0.76 c 9.77,-11.89 24.32,-26.38 34.39,-36.4 -2.54,-1.33 -16,14.41 -18.19,16.66 z m 44.53,-39.418 c 8.4,-7.221 16.99,-14.256 22.46,-18.672 l -0.75,-0.938 c -3.15,3.104 -23.47,17.409 -21.71,19.61 z m -40.96,44.228 c -5.23,5.44 -10.39,11.05 -14.87,16.51 l 0.97,0.76 c 8.91,-10.84 20.49,-22.35 30.11,-31.88 -2.22,-1.56 -14.21,12.52 -16.2,14.6 z m 50.52,-42.737 c 6.96,-5.901 13.66,-11.398 18.2,-15.068 l -0.74,-0.938 c -2.8,2.906 -19.26,13.771 -17.46,16.006 z m -48.2,49.427 c -1.08,1.12 -2.17,2.25 -3.24,3.37 -2.76,3.05 -5.49,6.04 -7.94,9.04 l 0.97,0.76 c 9.76,-11.89 23.02,-24.56 33.92,-33.74 -1.96,-2.32 -21.63,18.37 -23.71,20.51 z m 5.54,3.63 c -1.02,1.06 -2.03,2.11 -3.05,3.17 -2.63,2.91 -5.22,5.82 -7.69,8.81 l 0.95,0.73 c 9.76,-11.89 21.53,-23 32.43,-32.19 -2.99,-1.61 -20.05,16.73 -22.64,19.41 z m 53.47,-51.659 c 5.82,-4.874 11.26,-9.298 15.13,-12.425 l -0.77,-0.964 c -2.43,2.7 -16.19,11.276 -14.36,13.389 z m -61.1,65.409 0.88,0.85 c 13.17,-12.99 25.74,-25.15 44.85,-37.89 l -0.69,-0.99 c -19.21,12.8 -31.84,25.01 -45.01,38 z m 56.47,-53.34 c 5.78,-4.847 21.89,-16.996 25.06,-19.399 l -0.74,-0.991 c -2.5,2.598 -26.27,17.993 -24.32,20.39 z m -51.41,54.32 c -0.42,0.44 -0.82,0.85 -1.11,1.33 l 0.97,0.76 c 5.44,-6.46 18.7,-16.95 31.23,-25.7 -2.81,-1.98 -26.79,19.09 -31.02,23.61 z m 3.95,3.62 0.79,0.94 c 8.45,-7.78 20.19,-16.12 33.58,-23.7 -2.56,-3 -30.58,19.31 -34.41,22.8 z m 6.22,4.13 0.8,0.94 c 8.43,-7.76 19.67,-14.78 32.8,-22.64 -2.46,-2.57 -30.13,18.57 -33.63,21.74 z m 62.87,-57.22 c 7.45,-3.885 14.67,-7.2 21.31,-9.689 l -0.43,-1.162 c -3.3,1.678 -22.27,8.207 -20.88,10.851 z m -56.69,61.41 0.8,0.93 c 8.41,-7.75 15.31,-10.24 28.48,-18.14 -3.19,-2.19 -26.99,15.14 -29.32,17.24 z m 65.44,-59.59 c 7.47,-3.877 11.87,-5.932 18.52,-8.43 l -0.43,-1.161 c -3.6,1.857 -19.42,6.842 -18.09,9.591 z m -59.43,64.56 0.78,0.96 c 8.56,-6.84 23.5,-18.29 44.9,-25.73 l -0.37,-1.15 c -21.59,7.5 -36.73,19.06 -45.31,25.92 z m 61.92,-58.18 c 6.82,-3.56 14.32,-7.19 20.47,-9.594 l -0.45,-1.126 c -3.04,1.698 -21.36,7.97 -20.02,10.72 z m -57.96,61.35 0.7,1.04 c 12.29,-8.41 23.59,-15.11 36.97,-21.23 -2.08,-3.26 -34.85,18.28 -37.67,20.19 z m 67.14,-58.27 c 4.87,-2.42 9.62,-4.57 14.12,-6.39 l -0.46,-1.13 c -2.56,1.62 -14.95,4.87 -13.66,7.52 z m -62.06,63.15 0.67,1.02 c 12.05,-8.28 25.63,-15.35 40.38,-21.47 -2.2,-3.41 -37.34,17.93 -41.05,20.45 z m 60.44,-52.49 c 9.17,-5.74 14.38,-7.37 21.15,-10.58 l -0.53,-1.09 c -4.22,2.51 -22.4,8.79 -20.62,11.67 z m -56.16,56.88 0.62,1.07 c 11.82,-6.59 24.66,-12.93 39.22,-18.82 -1.32,-3.14 -36.08,15.66 -39.84,17.75 z m 4.61,5.65 0.62,1.07 c 11.61,-6.6 25.03,-12.25 39.51,-17.31 -2.03,-3.18 -36.01,13.92 -40.13,16.24 z m 3.16,3.84 0.52,1.12 c 10.98,-5 24.36,-9.87 38.44,-14.19 -2.05,-2.84 -34.18,10.91 -38.96,13.07 z m 55.92,-52.44 c 6.73,-2.19 14.05,-4.43 22.13,-6.77 l -0.33,-1.16 c -3.03,1.4 -22.69,5.21 -21.8,7.93 z m -52.15,56.53 0.43,1.16 c 11.98,-4.37 25.39,-8.41 39.92,-12.19 -0.97,-2.91 -36.19,9.53 -40.35,11.03 z m 48.11,-46.91 c 9.34,-3.11 19.03,-5.93 28.98,-8.54 l -0.36,-1.19 c -3.71,1.51 -29.62,6.9 -28.62,9.73 z m -44.95,51.91 0.45,1.13 c 10.48,-4.1 21.69,-7.71 33.57,-10.93 -1.14,-2.91 -30.41,8.4 -34.02,9.8 z m 3.14,4.41 0.52,1.12 c 8.81,-4 26.67,-6.65 35.7,-7.58 -0.12,-3.57 -32.4,4.81 -36.22,6.46 z m 55.03,-52.29 c 6.43,-1.93 13.13,-3.78 20.2,-5.54 l -0.29,-1.19 c -3.02,1.23 -20.78,4.05 -19.91,6.73 z m -52.45,55.14 0.22,1.21 c 12.25,-2.18 24.77,-4.24 38.42,-5.78 -0.4,-2.94 -34.78,3.88 -38.64,4.57 z m 2.73,4.95 0.21,1.21 c 7.83,-1.43 21.52,-3.15 37.13,-4.26 -0.5,-2.98 -31.36,1.97 -37.34,3.05 z m 55.01,-51.76 c 5.9,-1.67 11.88,-3.33 17.91,-4.93 l -0.33,-1.16 c -2.92,1.34 -18.39,3.36 -17.58,6.09 z m -52.11,56.04 0.21,1.21 c 9.35,-1.77 21.44,-2.5 34.75,-2.72 -0.53,-3.24 -30.38,0.67 -34.96,1.51 z m 54.11,-47.58 c 5.69,-1.3 11.28,-2.47 16.68,-3.47 l -0.22,-1.21 c -2.98,1.11 -17.09,1.81 -16.46,4.68 z m -51.47,52.56 v 1.24 l 31.75,-0.97 c -1.06,-2.99 -26.67,-0.42 -31.78,-0.27 z m 2.94,4.64 -0.1,1.24 c 8.49,0.57 15.61,-0.12 26.98,0.16 0,-2.67 -23.55,-1.2 -26.89,-1.4 z m 32.31,-29.77 c 10.17,-1.52 20.9,-2.72 32.51,-3.48 l -0.1,-1.25 c -4.02,0.78 -32.99,1.56 -32.44,4.73 z m 19.46,-20.07 c 4.81,-1.04 9.66,-1.97 14.43,-2.76 l -0.22,-1.21 c -2.72,1.01 -14.79,1.15 -14.21,3.97 z m -49.82,54.31 -0.1,1.22 c 8.65,0.5 16.95,0.75 25.78,1.42 -0.92,-2.93 -22.12,-2.43 -25.73,-2.64 z m 53.18,-48.91 c 3.77,-0.69 7.6,-1.4 11.46,-2.04 l -0.18,-1.19 c -2.51,0.98 -11.79,0.41 -11.28,3.23 z m -51.21,52.61 -0.1,1.22 c 8.95,1.01 15.34,0.61 26.98,3.21 l 0.24,-1.21 c -11.76,-2.62 -18.26,-2.22 -27.12,-3.22 z m 37.19,-32.94 c 7.27,-0.59 14.9,-0.99 23,-1.22 v -1.23 c -3.35,0.57 -23.16,-0.42 -22.97,2.45 z m -34.43,38.52 0.12,1.21 c 9.66,-0.71 20.58,-0.34 48.49,13.53 l 0.55,-1.06 c -28.02,-13.92 -39.38,-14.4 -49.16,-13.68 z m 37.54,-31.54 c 6.58,-0.25 13.28,-0.35 19.86,-0.26 v -1.22 c -3.24,0.46 -19.97,-1.4 -19.86,1.48 z m -34.34,36.46 -0.1,1.22 c 8.5,0.35 19.97,3.03 41.43,13.69 l 0.55,-1.12 c -21.55,-10.7 -33.22,-13.43 -41.92,-13.79 z m 1.83,5.06 -0.17,1.21 c 8.05,1.11 18.94,4.45 36.67,13.24 l 0.54,-1.05 c -17.79,-8.84 -28.81,-12.28 -37.04,-13.4 z m 35.54,-34.95 c 6.69,0 13.51,0.16 20.32,0.25 v -1.24 c -3.3,0.49 -20.34,-1.79 -20.35,0.99 z m -1.8,7.36 20.77,1.15 0.1,-1.22 c -3.5,0.75 -20.58,-3.66 -20.83,0.1 z m -31.44,33.25 -0.24,1.19 c 7.51,1.68 17.42,5.22 31.82,12.38 l 0.55,-1.07 c -14.46,-7.18 -24.46,-10.8 -32.13,-12.5 z m 2.22,6.38 -0.33,1.18 c 6.81,1.99 15.38,5.42 26.79,11.08 l 0.58,-1.1 c -11.45,-5.68 -20.14,-9.13 -27.04,-11.16 z m 33.63,-33.06 c 3.34,0.45 6.81,1.07 10.41,1.83 l 0.28,-1.23 c -2.52,0 -10.24,-3.41 -10.69,-0.6 z m -1.49,6.74 c 3.54,0.56 7.22,1.21 11.08,2 l 0.25,-1.19 c -2.63,0 -10.82,-3.67 -11.33,-0.81 z m -29.17,33.89 -0.39,1.18 c 6.04,2.08 13.37,5.16 22.45,9.68 l 0.52,-1.09 c -9.13,-4.54 -16.48,-7.66 -22.58,-9.77 z m 2.47,7.65 -0.46,1.14 c 4.8,1.91 10.33,4.4 16.73,7.58 l 0.55,-1.12 c -6.43,-3.19 -11.97,-5.68 -16.82,-7.6 z m 1.91,7.14 -0.47,1.09 c 3.91,1.65 8.23,3.68 13.07,6.07 l 0.56,-1.09 c -4.84,-2.41 -9.23,-4.41 -13.16,-6.07 z" />
    <path style="fill:#00c;stroke:#ccc;" d="m 420.61,557.96 c 19.78,-39.58 31.24,-87.91 26.34,-153.54 -0.3,-3.8 -0.34,-5.4 -0.73,-9.32 -0.4,-3.86 2.39,-9.44 5.6,-10.48 5.3,-1.73 9.96,4.6 9.96,4.6 3.17,-11.38 -3.45,-24.52 -10.2,-37.68 -2.7,-72.17 -23.84,-146.7 -82.37,-194.67 -31.9,-26.14 -115.56,-63.341 -179.26,-26.89 0,0 -89.47,0.16 -137.773,0.53 -2.72,0 -7.781,0.48 -7.781,0.48 0,0 -0.09,0.68 0.538,0.94 1.635,0.69 4.42,0.87 6.427,1.09 27.422,3.16 65.169,6.16 95.129,13.59 12.18,3.02 32.82,12.24 32.82,12.24 -10.19,4.33 -33.81,15.23 -48.5,22.37 1.19,0.14 2.03,0.81 3.4,0.87 19.11,0.78 52.59,1.97 60.68,0.75 0,0 11.79,7.2 22.88,9.71 47.39,10.67 92.98,19.38 132.89,43.45 22.6,13.82 38.01,29.04 38.21,29.94 v 0 c -1.5,13.22 -12.33,38.21 -6.48,61.72 10.42,-17.11 22.29,-13.39 29.18,-22.4 4.67,7.06 7.71,20.15 8.01,30.63 -7.63,6.69 -12.6,15.15 -17.05,24.9 0,0 10.17,-1.37 14.08,2.06 3.09,2.69 5.83,8.68 5.32,12.75 -0.54,4.26 -6.74,8.16 -6.74,8.16 -31.15,0.49 -58.75,-1.28 -125.49,17.96 -0.16,0.73 0.2,0.92 2.29,1.37 33.36,4.68 70.66,-4.27 98.92,5.96 8.18,2.95 17.32,6.82 20.94,13.52 17.96,33.11 6.66,131.06 8.76,135.39 z" />
    <path style="fill:#ccc;" d="m 158.71,137.23 c 0,0 6.18,0.64 12.18,2.68 3,1.01 5.95,2.38 8.12,4.26 2.18,1.87 3.56,4.34 3.16,7.33 -0.13,0.98 -0.78,1.7 -1.58,2.08 -0.82,0.39 -1.77,0.51 -2.76,0.5 -1.97,-0.1 -4.06,-0.64 -5.17,-1.64 1.68,0.1 3.53,0.33 5.2,0.39 0.86,0 1.64,-0.1 2.19,-0.35 0.54,-0.25 0.82,-0.58 0.9,-1.15 0.35,-2.54 -0.75,-4.53 -2.73,-6.23 -1.97,-1.7 -4.9,-2.87 -7.74,-4.04 -3.25,-1.35 -9.07,-2.63 -11.77,-3.83 z m -10.61,38.77 30.16,-13.13 c 4.1,-1.18 5.4,1.57 7.71,2.9 -10.06,3.76 -34.2,11.96 -35.82,11.19 z m 31.11,-18 c 1.01,0.65 1.76,0.7 3.03,1.1 1.26,0.41 2.94,1.19 5.54,3.14 2.78,2.1 5.75,4.28 8.84,6.38 13.06,6.56 25.59,3.23 30.68,-4.24 2.73,-3.99 2.59,-9.24 -0.17,-14.24 -2.76,-4.99 -8.16,-9.69 -15.94,-12.38 4.99,-1.57 15.06,7.58 17.03,11.79 2.58,5.49 3.12,11.12 0.1,15.54 -4.72,6.9 -15.03,10.34 -26.32,6.99 6.27,3.88 12.85,7.19 19.27,8.81 5.77,1.46 11.38,1.57 16.5,-0.44 5.13,-1.99 9.84,-6.12 13.77,-13.21 2.23,-4.03 3.41,-9.12 2.15,-14.46 -1.25,-5.33 -4.95,-10.96 -12.59,-16.02 7.26,1.21 13.24,11.67 13.77,15.73 0.77,5.77 0.1,11.1 -2.26,15.35 -4.03,7.29 -8.95,11.63 -14.38,13.74 -5.43,2.11 -11.32,2 -17.26,0.51 -8.42,-2.12 -16.96,-7 -24.73,-12.29 -0.41,-0.21 -0.82,-0.38 -1.23,-0.61 l 0.12,-0.13 c -2.81,-1.96 -5.53,-3.94 -8.07,-5.86 -2.52,-1.89 -4.01,-2.53 -5.18,-2.9 -1.16,-0.37 -2.09,-0.48 -3.3,-1.25 l 0.66,-1.02 z m 6.59,11.49 c 1.98,0 3.89,2.79 3.98,3.99 0.12,1.71 -0.69,3.32 -1.89,4.73 -2.39,2.8 -6.45,4.93 -9.61,5.73 l -0.32,-1.2 c 2.9,-0.74 6.87,-2.84 8.99,-5.33 1.05,-1.27 1.69,-2.59 1.61,-3.88 -0.1,-1.29 -0.83,-2.62 -2.77,-4.04 z m 8.76,12.77 17.99,-1.26 c -1.76,1.42 -13.82,2.19 -17.88,2.48 z m 75.52,-40.55 c 1.77,-0.1 2.87,2.76 2.11,4.53 -0.76,1.84 -3.16,3.73 -5.48,2.33 2.54,-0.36 3.76,-1.59 4.21,-2.93 0.44,-1.32 0.1,-2.88 -0.84,-3.93 z m -4.88,14.86 c 1.7,-0.49 3.39,2.05 3.08,3.91 -0.32,1.97 -2.22,4.34 -4.8,3.51 2.38,-0.94 3.29,-2.38 3.41,-3.78 0.14,-1.39 -0.55,-2.84 -1.69,-3.64 z m 17.25,-17.52 c 1.75,-0.28 3.14,2.46 2.63,4.29 -0.54,1.9 -2.69,4.05 -5.16,2.93 2.47,-0.66 3.54,-1.99 3.83,-3.37 0.28,-1.37 -0.26,-2.91 -1.3,-3.85 z m -7.72,13.5 c 4.55,2.2 4.58,11.88 4.51,14.11 -0.23,5.46 -1.95,10.96 -5.58,15.03 1.31,1.56 -16.04,13.02 -24.2,3.24 7.65,4.88 17.52,2.41 23.29,-4.06 3.38,-3.8 5.05,-9.03 5.27,-14.27 0.22,-5.23 -1,-10.45 -3.29,-14.05 z m -17.25,21.72 c 2.5,0.55 4.02,-0.15 4.91,-1.23 0.88,-1.1 1.14,-2.7 0.64,-4 1.69,0.54 1.66,3.59 0.37,4.97 -1.38,1.44 -4.24,2.38 -5.92,0.26 z m 35.18,-24.02 c 1.7,-0.53 3.48,1.97 3.23,3.84 -0.28,1.97 -2.13,4.4 -4.72,3.64 2.35,-1 3.21,-2.48 3.31,-3.89 0.1,-1.4 -0.65,-2.81 -1.82,-3.59 z m -2.2,14.35 c 1.63,-0.72 3.64,1.61 3.62,3.47 -0.1,1.99 -1.61,4.59 -4.28,4.12 2.24,-1.25 2.93,-2.79 2.86,-4.2 -0.1,-1.4 -0.94,-2.77 -2.17,-3.42 z m -2.04,14.12 c 1.62,-0.71 3.66,1.58 3.61,3.47 0,2 -1.61,4.6 -4.28,4.12 2.23,-1.25 2.93,-2.79 2.88,-4.2 -0.1,-1.41 -0.98,-2.74 -2.21,-3.39 z m 20.09,-14.62 c 1.77,-0.26 3.11,2.5 2.56,4.31 -0.59,1.9 -2.78,4.01 -5.22,2.84 2.47,-0.62 3.54,-1.94 3.85,-3.31 0.31,-1.36 -0.16,-2.89 -1.19,-3.84 z m 13.99,-8.02 c 1.59,-0.78 3.72,1.45 3.75,3.33 0,1.99 -1.43,4.65 -4.12,4.28 2.17,-1.34 2.81,-2.92 2.7,-4.3 -0.12,-1.41 -1.07,-2.71 -2.33,-3.31 z m -16.22,24.83 c 1.77,-0.1 2.87,2.76 2.12,4.53 -0.77,1.85 -3.16,3.68 -5.48,2.28 2.53,-0.37 3.75,-1.54 4.19,-2.87 0.45,-1.34 0.1,-2.89 -0.83,-3.94 z m 10.82,-7.45 c 1.71,-0.43 3.34,2.18 2.97,4.03 -0.38,1.96 -2.36,4.26 -4.92,3.35 2.41,-0.87 3.37,-2.28 3.54,-3.68 0.18,-1.39 -0.48,-2.85 -1.59,-3.7 z m 15.86,-3.35 c 1.68,-0.56 3.49,1.91 3.26,3.78 -0.23,1.98 -2.02,4.45 -4.63,3.73 2.33,-1.05 3.18,-2.54 3.25,-3.93 0.1,-1.42 -0.71,-2.82 -1.88,-3.58 z m -16.95,18.08 c 1.76,-0.19 3.01,2.63 2.39,4.42 -0.65,1.89 -2.93,3.89 -5.34,2.63 2.51,-0.53 3.64,-1.81 4,-3.18 0.36,-1.35 -0.1,-2.88 -1.05,-3.87 z m 11.84,-1.11 c 1.68,-0.55 3.5,1.91 3.28,3.79 -0.24,1.98 -2.03,4.44 -4.65,3.72 2.34,-1.04 3.19,-2.54 3.26,-3.94 0.1,-1.4 -0.72,-2.81 -1.89,-3.57 z m 18.64,-9.54 c 1.77,0.1 2.57,3.03 1.68,4.7 -0.93,1.76 -3.46,3.41 -5.65,1.8 2.56,-0.14 3.86,-1.22 4.42,-2.5 0.56,-1.29 0.37,-2.88 -0.45,-4 z m 2.94,14.77 c 1.76,-0.28 3.14,2.41 2.64,4.23 -0.56,1.92 -2.71,4.07 -5.18,2.95 2.47,-0.67 3.56,-2 3.84,-3.38 0.28,-1.38 -0.26,-2.86 -1.3,-3.8 z m -8.55,11.4 c 1.75,-0.31 3.17,2.43 2.66,4.25 -0.54,1.91 -2.69,4.06 -5.17,2.94 2.48,-0.67 3.51,-2.03 3.8,-3.4 0.28,-1.38 -0.25,-2.86 -1.29,-3.79 z m 22.46,-10.45 c 1.76,-0.27 3.12,2.47 2.59,4.28 -0.58,1.91 -2.76,4.02 -5.21,2.87 2.48,-0.64 3.53,-1.96 3.84,-3.33 0.3,-1.36 -0.19,-2.87 -1.22,-3.82 z m -5.56,18.72 c 1.78,0.1 2.53,3.04 1.64,4.71 -0.95,1.75 -3.51,3.39 -5.68,1.76 2.55,-0.12 3.9,-1.22 4.47,-2.5 0.58,-1.29 0.38,-2.84 -0.43,-3.97 z m 12.25,-8.1 c 1.75,-0.27 3.12,2.47 2.57,4.28 -0.57,1.91 -2.77,4.05 -5.22,2.9 2.48,-0.64 3.56,-1.99 3.86,-3.36 0.3,-1.38 -0.19,-2.87 -1.21,-3.82 z m 2.79,16.71 c 1.74,0.35 2.08,3.39 0.97,4.9 -1.19,1.61 -3.94,2.88 -5.86,0.97 2.55,0.24 4.01,-0.67 4.75,-1.86 0.76,-1.19 0.78,-2.77 0.14,-4.01 z m 13.27,-5.62 c 1.73,0.34 2.11,3.35 0.99,4.88 -1.18,1.6 -3.97,2.84 -5.89,0.93 2.55,0.24 4.01,-0.62 4.76,-1.8 0.75,-1.2 0.79,-2.78 0.14,-4.01 z m -6.86,25.7 c 2.19,1.32 3.88,1.16 5.07,0.4 1.19,-0.74 1.92,-2.17 1.88,-3.54 1.42,1.05 0.42,3.95 -1.25,4.84 -1.77,0.94 -4.8,0.85 -5.7,-1.7 z m 15.05,-10.19 c 1.77,0 2.77,2.85 1.99,4.57 -0.83,1.82 -3.3,3.62 -5.57,2.14 2.54,-0.29 3.79,-1.42 4.28,-2.73 0.49,-1.33 0.19,-2.9 -0.7,-3.98 z m -5,21.33 c 2.38,0.94 4.04,0.46 5.08,-0.48 1.07,-0.93 1.5,-2.44 1.23,-3.81 1.58,0.8 1.08,3.8 -0.42,4.97 -1.58,1.22 -4.57,1.69 -5.89,-0.68 z m 14.42,-8.3 c 2.4,0.87 4.05,0.38 5.07,-0.59 1.06,-0.92 1.43,-2.5 1.11,-3.86 1.6,0.75 1.24,3.79 -0.22,4.99 -1.54,1.27 -4.58,1.79 -5.96,-0.54 z m -1.8,12.25 c 2.3,1.13 3.97,0.86 5.09,0 1.14,-0.84 1.71,-2.33 1.56,-3.72 1.5,0.95 0.76,3.93 -0.82,4.96 -1.68,1.07 -4.72,1.22 -5.83,-1.25 z m -9.35,11.94 0.83,0.96 c 1.32,1.51 2.55,3.04 3.75,4.61 h 0.17 c 0,0 0,0 -0.1,0.1 6.05,7.85 10.74,16.38 14.39,25.36 -1.79,-1.46 -3,-4.41 -3.9,-5.82 -0.28,3.09 -0.36,5.55 -1.25,6.87 -0.22,-2.76 -0.11,-5.76 0.18,-8.86 h 0.17 c -0.49,-0.99 -0.99,-1.97 -1.51,-2.95 -0.76,2.4 -0.64,8.65 -1.63,9.7 -0.39,-3.23 0.14,-8.8 0.56,-11.58 -0.65,-1.13 -1.34,-2.25 -2.02,-3.36 -0.85,3.68 -1.57,15.43 -2.37,16.56 -0.44,-5.5 0.38,-12.03 1.45,-18.1 -0.58,-0.89 -1.21,-1.76 -1.81,-2.64 -1.18,4.23 -2.78,20.61 -3.45,21.93 -0.55,-7.16 1,-16.02 2.47,-23.35 -0.52,-0.71 -1.06,-1.45 -1.59,-2.15 -1.47,4.01 -4.94,24.21 -5.6,27.54 -0.39,-9.16 2.72,-20.97 4.63,-28.79 -0.86,-1.1 -1.72,-2.21 -2.64,-3.29 -1.09,5.68 -2.59,13.29 -4.17,19.26 -0.9,3.4 -2.64,14.85 -2.75,17.33 -0.94,-3.93 0.1,-10.48 1.55,-17.58 1.46,-7.1 3.38,-14.74 4.41,-20.51 l 0.26,-1.25 z m 21.02,-5.13 c 2.48,0.65 4.06,0.1 4.99,-1 0.98,-1.01 1.23,-2.64 0.79,-3.96 1.67,0.61 1.54,3.68 0.19,5 -1.48,1.36 -4.37,2.16 -5.97,0 z m -5.99,9.54 c 2.3,1.15 4.01,0.83 5.12,0 1.13,-0.84 1.73,-2.32 1.56,-3.7 1.5,0.93 0.77,3.91 -0.82,4.93 -1.69,1.09 -4.73,1.27 -5.86,-1.21 z m 8.34,7.37 c 2.29,1.13 3.96,0.85 5.09,0 1.12,-0.85 1.71,-2.33 1.55,-3.72 1.5,0.95 0.74,3.9 -0.85,4.92 -1.68,1.07 -4.68,1.26 -5.79,-1.21 z m 3.65,13.76 c 2.3,1.14 3.94,0.83 5.06,0 1.13,-0.84 1.75,-2.3 1.59,-3.68 1.5,0.93 0.74,3.89 -0.85,4.91 -1.68,1.07 -4.68,1.26 -5.8,-1.22 z m -1.29,49.87 c 0.97,-1.01 2.04,-1.94 3.07,-2.8 l 0.7,-0.56 0.28,0.87 c 2.25,7.55 1.92,19.25 1.85,23.12 -1.03,-3.19 -1.24,-6.67 -1.28,-8.29 -1.2,1.45 -1.95,2.47 -2.92,2.66 0.71,-1.45 1.59,-2.97 2.85,-4.58 0,-0.75 -0.1,-1.51 -0.15,-2.27 -1.82,1.47 -3.3,4.62 -4.67,4.86 0.99,-2.04 2.31,-4.19 4.54,-6.54 -0.1,-0.92 -0.19,-1.82 -0.3,-2.73 -2.33,1.38 -4.74,6.22 -6.19,6.44 1.19,-2.44 2.84,-5.06 5.97,-7.98 -0.18,-1.14 -0.4,-2.25 -0.67,-3.29 -2.4,1.37 -8.02,9.44 -9.53,9.43 0.79,-1.33 2.09,-3.29 3.74,-5.33 0.82,-1.03 1.73,-2.04 2.69,-3.03 z m -40.55,48.12 c 14.43,-3.55 26.23,-3.68 36.93,-3.34 0.43,0.41 0.67,0.82 0,1.19 -7.78,-1.37 -37.78,2.51 -36.9,2.15 z m 10.36,6.07 c 8.66,-4.59 19,-5.47 26.99,-5.98 0.61,0.42 0.54,0.86 0.1,1.25 -8.31,-0.66 -29.01,5.21 -27.07,4.73 z m 10.08,2.88 c 9.71,-3.1 13.57,-4.13 17.84,-5.3 0.26,0.26 0.78,0.3 0.29,1.18 -4.06,0.42 -14.43,5.06 -18.13,4.12 z m 51.01,-42.75 1.05,1.56 c 3.51,5.09 4.85,9.28 5.45,12.41 -1.1,-1.34 -4.3,-7.95 -5.42,-9.84 0,0.69 -0.1,1.36 -0.1,2.04 0.37,0.57 0.55,1.21 0.73,1.71 0.27,0.77 0.53,1.73 0.78,2.78 0.52,2.09 0.95,4.49 0.84,6.32 -1.18,-1.32 -1.6,-4.32 -2.02,-6.03 -0.15,-0.61 -0.29,-1.17 -0.44,-1.7 -0.26,2.89 -0.67,10.06 -2.49,12.22 1.03,-5.5 1.42,-12.34 1.56,-19.59 z m -45.4,47.42 c 9.61,-4.86 9.72,-5.15 13.67,-6.95 0.5,0 1.01,0.66 0.51,1.14 -4.68,1.46 -12.98,7.51 -14.18,5.81 z m 3.97,3.82 c 6.83,-4.7 8.74,-6.44 11.68,-8.12 0.47,0.15 0.84,0.36 0.62,1.07 -3.8,1.58 -10.71,9.02 -12.3,7.05 z m 8.36,-0.42 c 1.27,-1.32 2.75,-2.66 5.72,-5.23 0.3,-0.1 1.26,0.25 0.8,0.94 -2.07,1.21 -8.15,8.86 -9.46,7.53 0.91,-0.95 1.65,-1.91 2.93,-3.23 z m 8.47,-3.06 c 0.31,-0.33 1.19,-0.48 1.12,0.49 -3.09,5.49 -4.98,9.33 -6.5,11.91 -1.67,-2.19 4.26,-9.91 5.38,-12.4 z m 3.69,1.36 c 0.33,-0.18 0.76,-0.23 0.93,0.53 l -5.75,22.45 c -1.57,-3.82 3.6,-18.78 4.57,-22.73 0.1,-0.1 0.16,-0.17 0.25,-0.25 z m 3.67,1.09 c 0.37,-0.39 1.04,-0.36 1.1,0.36 -1.46,9.8 -2.69,16.82 -5.75,32.39 -1.46,-2.54 3.82,-27.71 4.52,-32.56 0.1,-0.1 0.1,-0.11 0.16,-0.16 z m 3.58,0.1 c 0.28,-0.3 0.7,-0.38 1.01,0.37 -0.16,15.47 0.43,27.34 -0.87,47.83 -1.51,-10.08 -0.42,-38.95 -0.35,-47.83 0.1,-0.1 0.11,-0.29 0.2,-0.38 z m 4.57,-0.56 c 0.27,-0.29 0.61,-0.33 0.98,0.19 3.97,39.24 0.21,74.68 -6.73,109.18 5.76,-38.55 9.17,-75.43 5.48,-109.03 0.11,-0.11 0.21,-0.21 0.3,-0.31 z" />
    <path style="fill:#00c;stroke:#ccc;" d="m 275.45,298.86 c -1.94,5.33 -3.86,12.24 -8.15,16.38 8.23,-59.06 -2.69,-113.21 -8.14,-127.14 5.29,-0.24 10.46,-2.79 14.06,-6.84 3.2,-3.57 4.85,-8.32 5.38,-13.1 2.05,6.78 21.45,63.36 -3.15,130.7 z" />
    <path style="fill:#ccc;" d="m 265.04,186.3 1.21,-0.32 c 0.1,0.28 0.14,0.59 0.21,0.89 2.53,2.43 11.13,7.16 13.29,14.68 -4.15,-5.83 -9.51,-10.34 -12.83,-12.79 0.71,2.92 1.38,6.04 2.04,9.32 2.45,2.36 11.58,8.11 12.73,14.32 -3.95,-5.56 -9.03,-9.89 -12.38,-12.43 0.48,2.45 0.93,4.97 1.35,7.55 0,0 0,0 0,0 2.02,2.9 10.86,11.48 10.27,16.94 -2.87,-6.26 -7.13,-11.64 -9.94,-14.75 0.53,3.32 1.04,6.75 1.48,10.23 l 0.1,-0.1 c 1.94,3.27 7.72,7.83 7.52,14.78 -2.37,-6.45 -5.07,-9.9 -7.35,-12.64 0.48,3.91 0.84,7.9 1.17,11.94 1.62,3.33 7.18,8.92 6.17,15.19 -1.74,-6.32 -4.02,-9.93 -6,-12.77 0.29,3.81 0.48,7.64 0.59,11.49 1.19,2.93 5.15,7.42 4.68,12.15 -1.39,-4.47 -3.1,-7.4 -4.61,-9.79 0,2.71 0.1,5.4 0,8.1 1.25,2.87 5.63,7.3 4.9,12.03 -1.53,-4.58 -3.33,-7.5 -4.93,-9.89 -0.1,2.3 -0.16,4.6 -0.3,6.88 0.76,3.09 4.46,7.59 2.88,12.7 -0.7,-4.4 -1.9,-7.45 -3.01,-9.96 -0.55,2.06 -0.44,4.58 -1.76,5.74 2.74,-25.52 -0.35,-54.9 -4.72,-77.03 0,0 -0.1,-0.1 -0.14,-0.14 l 0.1,-0.11 c -0.87,-4.4 -1.77,-8.54 -2.71,-12.27 z" />
    <path style="fill:#fff;" d="m 193.13,138.76 c -2.84,0 -5.13,2.29 -5.13,5.13 0,2.84 2.29,5.13 5.13,5.13 2.84,0 5.13,-2.29 5.13,-5.13 0,-2.84 -2.29,-5.13 -5.13,-5.13 z" />
    <path style="fill:#00c;" d="m 190.23,141.09 c 1.57,-1.63 4.05,-1.67 5.7,-0.1 1.63,1.57 1.69,4.05 0.12,5.69 -1.58,1.64 -4.08,1.7 -5.72,0.13 -1.64,-1.58 -1.68,-4.08 -0.1,-5.73 z" />
    <path style="fill:#000;" d="m 191.14,141.97 c 1.12,-1.17 2.76,-1.19 3.92,-0.1 1.17,1.12 1.21,2.76 0.1,3.93 -1.12,1.16 -2.77,1.2 -3.94,0.1 -1.16,-1.13 -1.2,-2.78 -0.1,-3.94 z" />
    <path style="fill:#fff;" d="m 191.93,141.24 c 0.57,-0.59 1.15,-0.61 1.74,0 0.6,0.57 0.6,1.16 0,1.74 -0.57,0.59 -1.16,0.62 -1.75,0 -0.6,-0.57 -0.6,-1.15 0,-1.74 z" />
</g><!--
<path fill="#008" d="m 570.9163,298.06069 0.4716,0.47157 0.4715,0 0,0.47156 0.4716,0 0,0.47157 0.4716,0.47157 0.4716,0.47157 0,1.88628 -0.4716,0 0,0.47157 -0.4716,0 0,0.47157 -3.7725,0 c -1.5719,0 -8.8027,-2.04347 -21.6922,-6.1304 -13.204,-4.08694 -33.0099,-10.53173 -59.4178,-19.33436 -26.4079,-8.17387 -44.3276,-13.51833 -53.7589,-16.03336 -9.1171,-1.88628 -15.4047,-2.98661 -18.8628,-3.30099 l -5.6589,-0.47157 c 0.69687,1.2241 1.7742,1.96163 2.8295,2.82942 l 8.0166,9.90296 c 5.3445,6.60197 10.5317,13.51833 15.5618,20.74906 5.0301,7.23073 7.7023,11.16048 8.0167,11.78924 l 0.4716,0.47157 0,2.82942 -1.4147,0 -1.4147,-0.47157 -0.4716,0 c -0.3144,0 -4.8729,-2.04347 -13.6755,-6.13041 -8.8027,-4.08693 -16.9765,-7.38792 -24.5216,-9.90296 -7.5451,-2.51503 -12.5752,-3.77255 -15.0903,-3.77255 -2.8294,0 -7.5451,0.31438 -14.1471,0.94314 -6.6019,0.62875 -13.3611,0.94313 -20.2774,0.94313 -6.9164,-0.62875 -16.9766,-0.94313 -30.1805,-0.94313 -13.2039,0 -25.7791,-0.15719 -37.7256,-0.47157 -11.9464,-0.31438 -25.3075,-0.78595 -40.0834,-1.41471 l -25.4647,0 c -1.5719,0.31438 -2.6723,3.45818 -3.301,9.43139 -0.3144,5.65883 -1.4147,12.57519 -3.301,20.74906 -1.8863,7.85949 -4.0869,15.5618 -6.602,23.10691 l -3.7725,11.31767 -0.4716,0.47157 -0.4716,0.94314 0,0.94314 -0.4716,0.47157 -0.4715,0.47157 0,-6.60198 c 0,-4.08693 -0.3144,-8.17387 -0.9432,-12.26081 -0.6287,-3.77255 -1.8862,-7.85949 -3.7725,-12.26081 -1.8863,-4.71569 -3.9297,-8.64544 -6.1304,-11.78924 -2.2007,-3.45817 -3.7726,-5.34445 -4.7157,-5.65883 -0.9431,-0.31438 -3.9297,-0.62876 -8.9598,-0.94314 -5.3445,-0.31438 -9.7458,-0.15719 -13.204,0.47157 -3.4582,0.62876 -5.3445,4.08694 -5.6588,10.37453 l 0,8.95982 -0.4716,0.94314 0,0.94314 -0.4716,0 -0.4715,-0.47157 -0.4716,0 0,-0.47157 -0.4716,0 0,-0.47157 -0.4715,0 -2.8295,-1.88628 c -1.8863,-1.25751 -3.7725,-2.20065 -5.6588,-2.82941 -1.5719,-0.62876 -3.4581,-0.78595 -5.6588,-0.47157 -2.2007,0.31438 -4.5585,1.10033 -7.0736,2.35785 -2.8294,1.25751 -5.3444,3.14379 -7.5451,5.65883 -2.2007,2.20066 -3.6154,3.77256 -4.2441,4.7157 -0.6288,0.94314 -0.9432,3.45818 -0.9432,7.54511 0,4.40131 1.2575,14.93303 3.7726,31.59516 2.5151,16.66213 3.7726,30.18046 3.7726,40.55499 0.6287,10.37453 0.4715,19.96311 -0.4716,28.76574 -0.9431,8.80263 -1.5719,14.46147 -1.8863,16.97651 -1.34641,2.84438 -0.52422,6.7074 -1.8863,9.43139 l -0.4715,0.94314 0,-6.60198 c 0,-4.71569 -0.3144,-11.00329 -0.9432,-18.86278 -0.6287,-8.17387 -1.5719,-17.60526 -2.8294,-28.29417 -1.2575,-10.37453 -3.1438,-20.2775 -5.6588,-29.70889 -2.5151,-9.43139 -5.1873,-18.07684 -8.0167,-25.93633 -2.8294,-7.54511 -6.1304,-14.61866 -9.903,-21.22063 -3.7725,-6.60197 -7.7023,-12.418 -11.7892,-17.44807 -4.0869,-5.03008 -8.3311,-9.74578 -12.7324,-14.14709 -4.7157,-4.40131 -9.4314,-8.17387 -14.1471,-11.31767 -4.7157,-3.77256 -10.3745,-7.38793 -16.9765,-10.8461 -4.84221,-2.76604 -10.467533,-3.86572 -13.6755,-7.07355 l 3.7726,0 9.4313,2.35785 c 6.2876,1.5719 12.1036,3.30099 17.4481,5.18727 5.0301,2.51504 9.5886,5.03008 13.6755,7.54511 4.0869,2.51504 7.7023,5.03008 10.8461,7.54512 3.1438,2.82941 6.2876,5.81602 9.4314,8.95982 3.1438,3.14379 4.8729,4.87288 5.1873,5.18726 0.876695,1.03674 1.325336,1.20419 1.8863,1.88628 l 1.4147,0 c 1.03051,-0.75448 1.38184,-1.2729 1.8863,-1.88628 0,-0.31438 0.3144,-0.78595 0.9431,-1.41471 0,-0.62876 0.9431,-4.08694 2.8294,-10.37453 1.2575,-6.28759 3.7726,-14.93303 7.5451,-25.93632 3.7726,-11.00329 5.8161,-19.17717 6.1304,-24.52162 0.3144,-5.34446 0.1572,-9.74578 -0.4715,-13.20395 l -0.9432,-5.18727 -0.4715,-0.47157 -0.4716,-0.47157 0,-0.94314 7.0735,0 c 4.7157,-0.31437 7.7024,-0.62875 8.9599,-0.94313 1.2575,-0.62876 4.5584,-4.87289 9.9029,-12.73238 5.3445,-8.17387 10.2174,-14.30428 14.6187,-18.39122 4.0869,-4.08693 8.9598,-8.17387 14.6186,-12.26081 5.6589,-4.08693 12.1037,-8.01668 19.3344,-11.78924 7.5451,-3.77255 16.0334,-7.7023 25.4647,-11.78924 9.4314,-4.08693 18.5484,-7.7023 27.3511,-10.8461 9.117,-3.14379 16.0333,-6.1304 20.749,-8.95982 4.7157,-2.82942 8.8027,-5.50165 12.2609,-8.01668 3.1437,-3.1438 6.1303,-6.2876 8.9598,-9.43139 2.8294,-3.45818 5.1872,-7.54512 7.0735,-12.26081 1.8863,-4.40132 3.301,-8.95983 4.2441,-13.675521 0.9432,-4.715696 1.2576,-9.588582 0.9432,-14.618658 -0.3144,-5.030075 1.8863,-4.872885 6.602,0.47157 4.7157,5.658835 9.9029,12.732378 15.5618,21.220629 5.6588,8.80263 11.3176,18.23403 16.9765,28.29418 5.0301,9.74577 8.4882,16.50494 10.3745,20.27749 1.8863,3.45818 4.5585,6.2876 8.0167,8.48825 3.4581,2.20066 6.6019,4.40132 9.4314,6.60198 2.8294,2.20065 4.2441,3.45817 4.2441,3.77255 0,0.31438 1.2575,1.72909 3.7725,4.24413 2.5151,2.20066 5.0301,5.03008 7.5452,8.48825 1.8863,3.1438 3.9297,6.44479 6.1304,9.90296 1.8863,3.45818 4.5585,6.44479 8.0166,8.95983 3.1438,3.14379 7.7023,7.85949 13.6756,14.14708 5.9732,6.2876 10.6889,10.84611 14.1471,13.67552 3.4581,2.82942 9.5885,6.13041 18.3912,9.90296 8.4882,4.40132 31.4379,14.30428 68.8491,29.70889 37.4112,15.40461 56.9028,23.42129 58.4747,24.05005 1.2575,0.62876 2.0434,1.10033 2.3578,1.41471 z"/>
<path fill="#00f" d="m 381.81732,260.33512 0.94314,-0.47157 4.7157,0.47157 c 3.1438,0.31438 11.92522,6.74737 16.97651,9.90296 5.05129,3.15559 14.26496,12.26081 16.50493,12.26081 l 0,-0.47157 c -1.6032,-1.08324 -2.39445,-2.36566 -4.24413,-3.77256 l -2.35784,-2.35785 c -1.25752,-1.25751 -2.98661,-3.14379 -5.18727,-5.65883 -1.88628,-2.20066 -3.05005,-2.77338 -4.71569,-4.7157 -1.66564,-1.94232 -3.22644,-3.84789 -4.7157,-5.65883 l 3.77256,0.47157 c 2.51503,0.31438 8.48825,6.1304 17.91964,17.44807 5.73206,6.3773 10.70523,13.43118 16.03337,19.80593 l 0,1.88627 -2.82942,0 c -2.50164,-1.93693 -5.1629,-4.12957 -7.07354,-5.65883 -2.82942,-2.51504 -7.07355,-5.65884 -12.73238,-9.43139 -5.65884,-3.77256 -11.78925,-7.38793 -18.39122,-10.8461 -6.60197,-3.45818 -10.8461,-5.65884 -12.73238,-6.60198 -2.42154,-1.57058 -3.77255,-2.08334 -3.77255,-4.71569 0.31438,-0.94314 0.62876,-1.41471 0.94314,-1.41471 z m -160.80523,-26.4079 0,0.47157 -1.4147,0 c -0.94314,0 -4.7157,0.62876 -11.31767,1.88628 l -10.37454,1.88628 -0.47156,0 -0.47157,-0.47157 0,-11.78924 c 0,-7.54511 0.15719,-13.20395 0.47157,-16.97651 l 0.47156,-5.18726 0,-0.47157 0.47157,-1.41471 c 0.31438,-0.94314 4.08694,-2.35785 11.31767,-4.24413 7.23074,-1.88627 11.63206,-2.9866 13.20395,-3.30098 1.5719,-0.31438 1.5719,2.04347 0,7.07354 -1.57189,4.71569 -2.35784,8.17387 -2.35784,10.37453 -0.62876,1.88628 -0.78595,5.50165 -0.47157,10.8461 0.31438,5.34445 0.47157,8.48825 0.47157,9.43139 0,0.94314 0.15719,1.5719 0.47156,1.88628 z m -23.57847,-31.59516 0,1.41471 -1.88628,7.07354 c -0.94314,5.03007 -1.5719,11.00329 -1.88628,17.91965 0,6.91635 -2.67223,11.31767 -8.01668,13.20394 -5.65884,1.88628 -8.60618,3.44137 -9.4314,3.77256 -2.42364,0.97271 -3.77255,1.25799 -3.77255,3.77256 l 3.77255,0 8.48826,-1.88628 c 5.34445,-1.25752 8.48825,-1.72909 9.43139,-1.41471 0.62876,0 1.5719,1.41471 2.82942,4.24413 1.25751,3.14379 1.88627,3.45817 1.88627,0.94314 -0.62876,-2.51504 -0.94314,-4.08694 -0.94314,-4.7157 l 0,-1.41471 10.37454,0.47157 c 7.23073,0 11.31767,0.15719 12.26081,0.47157 0.62875,0.31438 1.10032,0.47157 1.4147,0.47157 l 0.47157,0 1.41471,0.47157 c 0.94314,0.31438 1.72909,0.78595 2.35785,1.41471 0.62876,0.94314 0.94314,1.10033 0.94314,0.47157 0.31438,-0.94314 4.08694,0 11.31767,2.82942 7.54511,2.82941 11.94643,4.5585 13.20395,5.18726 2.40005,0.96287 4.8322,1.05965 6.60197,2.82942 l -3.30098,0 -4.24413,-0.47157 c -2.82942,-0.31438 -8.80264,-0.31438 -17.91965,0 -8.80263,0.31438 -16.66212,0.94314 -23.57848,1.88628 -7.23073,0.94314 -14.30428,2.51504 -21.22063,4.71569 -6.91635,2.20066 -13.36114,4.55851 -19.33435,7.07355 -5.65883,2.51503 -11.63205,5.81602 -17.91964,9.90296 -6.2876,4.08693 -12.10363,8.33106 -17.44808,12.73238 -3.73319,3.02807 -8.00001,6.64583 -9.90296,8.95982 l -0.94314,0 c 0.412,-1.56565 -0.94314,-2.37707 -0.94314,-3.77256 0,-0.62876 -0.31438,-1.5719 -0.94314,-2.82941 0,-1.25752 -0.47157,-4.7157 -1.41471,-10.37454 l -0.94314,-8.48825 0,-0.47157 c 0.31438,0 2.44335,-2.06752 3.30099,-7.07354 0.35473,-2.07057 3.31739,-8.19138 4.7157,-10.37453 l 0.94314,7.54511 c 0.62876,5.03007 1.25752,8.33106 1.88627,9.90296 0.22738,2.72251 2.24235,4.52228 2.82942,6.13041 l 0.47157,0 0.47157,-0.47157 c -1.02669,-1.96876 -1.87645,-4.56209 -1.88628,-6.60198 -0.62876,-1.25752 -1.25752,-4.7157 -1.88628,-10.37453 l -0.94313,-8.95982 0,-0.47157 0.94313,-0.94314 c 0,-0.62876 2.20066,-3.92975 6.60198,-9.90296 4.40131,-5.97321 8.64544,-11.00329 12.73238,-15.09023 4.08693,-4.08693 8.33106,-7.85949 12.73238,-11.31767 2.27972,-2.68424 6.31611,-4.92594 8.48825,-6.60197 l 0.47157,0.47157 c -0.15872,0.99545 -0.21858,1.69095 -0.47157,2.82942 l -1.88628,8.48825 c -1.25752,5.97321 -1.72909,11.31767 -1.41471,16.03336 0.31438,4.7157 0.94314,8.80264 1.88628,12.26081 1.25752,3.1438 1.88628,4.87289 1.88628,5.18727 0.71306,1.27328 1.615,2.23733 2.35785,3.77256 l 0.94314,0 c -0.8795,-3.36947 -1.68011,-7.18324 -2.35785,-9.90297 -0.94314,-3.45817 -1.41471,-8.80263 -1.41471,-16.03336 0,-7.54511 0.15719,-13.20395 0.47157,-16.97651 l 0.47157,-5.65883 0.94314,-0.94314 c 0.62876,-0.62876 4.08694,-2.51504 10.37453,-5.65884 6.28759,-3.14379 10.21734,-5.03007 11.78924,-5.65883 1.5719,-0.62876 2.67223,-0.94314 3.30099,-0.94314 0.62875,0 0.78594,0.31438 0.47157,0.94314 z m -51.40109,40.55498 0.94314,-5.65883 0.47157,-1.88628 c 0.31438,-1.5719 0.47157,2.20066 0.47157,11.31767 0,9.43139 0.31438,16.19056 0.94314,20.27749 0.62876,4.08694 1.10033,6.44479 1.41471,7.07355 0.31438,0.62876 0.31438,0.94314 0,0.94314 -0.31438,0 -1.10033,-1.88628 -2.35785,-5.65884 -1.25752,-4.08693 -2.20066,-8.48825 -2.82942,-13.20395 0,-5.03007 0.31438,-9.43139 0.94314,-13.20395 z m -13.20395,42.91284 0.47157,0 c 0,0.31438 -0.15719,0.47157 -0.47157,0.47157 z m 172.59447,-191.457257 0,-1.414709 8.48825,15.090226 c 5.65884,9.74577 10.68892,18.86279 15.09023,27.35104 3.48934,6.62073 6.80269,13.80609 8.95982,20.27749 l -0.47157,0 c -1.52971,-0.58045 -2.87226,-0.63253 -4.24412,-1.88628 -0.31438,-0.31438 -1.72909,-3.61537 -4.24413,-9.90296 -2.51504,-5.97321 -6.91636,-15.40461 -13.20395,-28.29418 -6.28759,-13.20395 -9.74577,-20.277488 -10.37453,-21.220627 z m -1.88628,161.748367 c -1.0566,1.4159 -2.58617,0.94314 -4.24412,0.94314 l -0.47157,-0.47157 c -0.62876,-0.31438 -3.45818,-1.10033 -8.48826,-2.35785 -5.03007,-1.88627 -12.418,-3.77255 -22.16377,-5.65883 -9.74577,-1.88628 -20.59187,-3.45818 -32.5383,-4.7157 l -17.44807,-1.41471 -10.8461,0 -10.37453,-0.47157 17.91964,-0.47157 c 11.94643,-0.31437 22.63534,0.1572 32.06673,1.41471 9.43139,0.62876 18.23403,1.88628 26.4079,3.77256 8.48825,1.88628 14.46147,3.45818 17.91964,4.7157 4.06204,1.76679 8.37619,3.42082 12.26081,4.71569 z m 59.88934,-48.1001 c -1.09432,0.3822 -2.16724,0.79793 -3.30099,0.94314 1.42729,3.60444 6.68288,4.2711 10.8461,5.65884 3.08325,1.41451 11.22678,4.71569 14.14709,4.71569 l -6.1304,0 c -1.88628,0 -5.34446,-0.47157 -10.37453,-1.4147 -4.7157,-0.94314 -14.14709,-4.87289 -28.29418,-11.78924 -14.14709,-6.91636 -20.74906,-10.37454 -19.80592,-10.37454 0.62876,0 5.65884,1.10033 15.09023,3.30099 9.11701,2.20066 16.34774,3.77256 21.6922,4.7157 5.65883,0.94314 8.64544,1.72909 8.95982,2.35785 0.31438,0.62875 -0.62876,1.25751 -2.82942,1.88627 z m -35.36772,-3.77255 c 3.2128,2.46406 7.5969,3.82434 10.37453,6.60197 -1.9721,0.005 -3.90578,1.58995 -5.18726,2.35785 -1.5719,0.94314 -2.82942,2.51504 -3.77256,4.7157 -0.94314,2.20065 -1.5719,5.18726 -1.88628,8.95982 -0.31438,3.45817 -0.15719,6.1304 0.47157,8.01668 0,1.88628 1.10033,5.97322 3.30099,12.26081 1.88628,6.60197 0.78595,10.8461 -3.30099,12.73238 -3.77255,1.88628 -6.28759,2.20066 -7.54511,0.94314 -1.25752,-1.25752 -2.67223,-3.45818 -4.24413,-6.60198 -1.5719,-3.14379 -2.98661,-6.44478 -4.24412,-9.90296 -0.62876,-3.45817 -0.94314,-8.33106 -0.94314,-14.61865 0,-6.60198 0.31438,-11.63206 0.94314,-15.09023 0.62875,-3.1438 1.88627,-6.2876 3.77255,-9.43139 1.25752,-3.1438 2.35785,-4.87289 3.30099,-5.18727 0.62876,-0.31438 3.61537,1.10033 8.95982,4.24413 z m 24.05005,-8.48826 c -7.99608,-0.33234 -15.88836,-1.87356 -21.6922,-2.82941 -10.09941,-1.6633 -22.94972,-3.45818 -38.66871,-4.7157 -15.71899,-1.88628 -31.90954,-2.82942 -48.57166,-2.82942 l -26.4079,0 0,-0.47157 0.47157,0 0,-0.47157 2.35785,0 11.31767,-1.88627 c 7.23073,-1.25752 12.88957,-2.20066 16.9765,-2.82942 l 22.63534,0 c 11.31767,0 21.37783,0.62876 30.18046,1.88628 9.11701,1.25752 15.87617,2.51504 20.27749,3.77255 4.40131,1.25752 9.7945,3.34361 16.50493,5.18727 5.16431,1.41887 9.77895,4.18751 14.61866,5.18726 z m 0.47157,21.22064 c 4.24904,3.45244 9.95895,3.20831 13.67552,5.65883 -0.55688,1.76646 -1.99839,2.89206 -3.30099,4.7157 -1.88628,2.20065 -3.1438,4.24412 -3.77256,6.1304 -0.62875,2.20066 -0.78594,4.7157 -0.47156,7.54512 0.31437,2.51503 0.47156,4.24412 0.47156,5.18726 0.62876,0.94314 0.94314,1.72909 0.94314,2.35785 l 0,0.47157 -0.94314,0 c -0.31437,0.31438 -2.82941,1.10033 -7.54511,2.35785 l -11.31767,2.82941 c -2.20066,0.62876 -3.45818,0.62876 -3.77256,0 -0.62875,-0.62876 -1.57189,-2.51504 -2.82941,-5.65883 -1.25752,-3.45818 -1.88628,-7.70231 -1.88628,-12.73238 l 0,-9.90296 c 0.62876,-1.5719 1.5719,-3.77256 2.82942,-6.60198 1.25751,-2.51503 2.67222,-4.40131 4.24412,-5.65883 1.5719,-1.25752 6.13041,-0.15719 13.67552,3.30099 z m 28.29418,-22.63534 0,1.88627 c 0,0.31438 -0.15719,0.47157 -0.47157,0.47157 -0.31438,0.62876 -1.41471,0.94314 -3.30099,0.94314 -1.88628,0 -3.76824,-0.18429 -5.65884,-0.47157 -2.51103,-0.38155 -5.96446,-1.00922 -7.07354,-2.35784 l 5.18727,0 c 3.14379,0 5.03007,-0.31438 5.65883,-0.94314 0.62876,-0.62876 0.94314,-2.04347 0.94314,-4.24413 l 0,-4.7157 c -0.31438,-0.94313 0.31438,1e-5 1.88628,2.82942 1.88628,2.51504 2.82942,3.92975 2.82942,4.24413 z m -132.98263,38.19713 0,2.35785 -11.31767,-0.47157 c -7.23073,0 -11.00329,-3.1438 -11.31767,-9.43139 0,-6.28759 0.31438,-13.04676 0.94314,-20.27749 0.62876,-7.23073 1.72909,-11.00329 3.30099,-11.31767 1.5719,-0.31438 6.13041,-0.78595 13.67552,-1.41471 7.85949,-0.62876 11.31767,0.31438 10.37453,2.82942 -1.25752,2.51503 -2.51504,6.28759 -3.77256,11.31767 -1.25752,5.34445 -1.88628,10.68891 -1.88628,16.03336 z m -135.34047,64.60504 3.77256,-13.20395 1.4147,8.01668 c 1.25752,5.34445 1.88628,8.17387 1.88628,8.48825 0.77707,1.43296 1.45329,3.2684 2.35785,4.7157 l 0,0.47157 -6.1304,6.60197 c -3.58,3.0008 -6.05622,7.34689 -8.48826,10.37453 l 0,-3.30098 c 0,-0.94314 0.31438,-2.67223 0.94314,-5.18727 z m 89.12665,-5.18727 0.94314,-0.94314 0.47157,5.18727 c 0.31438,3.45817 0.47157,8.33106 0.47157,14.61865 l 0,13.20395 0,4.24413 -0.47157,-3.77256 c -0.31438,-2.51503 -0.78595,-8.48825 -1.41471,-17.91964 -0.62876,-9.43139 -0.62876,-14.30428 0,-14.61866 z m 100.91589,-39.61184 0.94314,0.94313 0,1.41471 c -1.90238,1.14399 -7.44745,-2.33608 -9.43139,-3.30098 -0.94314,-0.62876 -5.34446,-2.20066 -13.20395,-4.7157 -8.17387,-2.51504 -16.03337,-4.40132 -23.57848,-5.65883 -7.85949,-1.25752 -16.50493,-1.88628 -25.93632,-1.88628 -9.43139,0 -17.76246,0.31438 -24.99319,0.94314 l -10.37453,0.94314 -1.41471,0.47156 -1.41471,0 0,-0.47156 1.88628,0 0.94314,-0.47157 0.94314,-0.47157 0.94313,0 c 0.94314,0 1.5719,-0.15719 1.88628,-0.47157 l 0.47157,0 12.73238,-1.41471 c 8.17387,-1.25752 16.03337,-1.72909 23.57848,-1.41471 7.54511,0.31438 15.09023,1.10033 22.63534,2.35785 7.85949,1.25752 15.40461,2.98661 22.63534,5.18726 6.91635,2.20066 11.78924,3.92975 14.61866,5.18727 2.29813,0.27897 3.94534,2.82942 6.1304,2.82942 z m -95.25705,65.0766 -1.88628,11.31767 0,1.88628 -0.47157,0.94314 -0.47157,0.47157 0,-2.35785 0.47157,-1.41471 c 0.31438,-0.94314 0.62876,-3.45818 0.94314,-7.54511 0.31438,-4.08694 0.62876,-10.53173 0.94314,-19.33436 0,-8.48825 0.47157,-12.88957 1.41471,-13.20395 1.25751,-0.31438 1.72908,2.67223 1.4147,8.95983 -0.31438,6.28759 -1.10033,13.04676 -2.35784,20.27749 z m 157.97581,-33.00987 c -3.65047,0.10584 -7.78184,-0.0931 -10.8461,-0.47157 -2.82942,-0.31438 -9.90296,-0.15719 -21.22063,0.47157 l -16.97651,0 3.77256,0 8.01668,-1.88628 c 5.65883,-1.25752 9.90296,-2.51504 12.73238,-3.77256 2.82942,-1.25752 4.7157,-2.35785 5.65884,-3.30098 0.94313,-0.94314 1.72908,-0.62876 2.35784,0.94313 0.62876,1.5719 2.35785,2.98661 5.18727,4.24413 3.66668,1.23931 7.41316,3.77256 11.31767,3.77256 z m -66.96288,-129.68164 -0.47157,0 -0.94314,0.47157 -0.94314,0 0,-0.47157 c -1.79533,-3.30443 -2.06323,-7.20669 -2.82942,-10.8461 -1.25752,-5.97321 -0.78595,-5.97321 1.41471,0 1.12405,3.63429 2.81903,7.20831 3.77256,10.8461 z M 113.9658,324.94015 c 2.71449,-3.49607 8.51673,-8.67393 11.78924,-11.78924 5.65883,-5.97321 11.47486,-11.16048 17.44807,-15.56179 5.97321,-4.40132 11.94643,-8.48826 17.91965,-12.26081 5.97321,-3.1438 11.94643,-5.97322 17.91964,-8.48826 6.28759,-2.51503 12.57519,-4.71569 18.86278,-6.60197 5.97322,-1.25752 11.63206,-2.20066 16.97651,-2.82942 5.34445,-0.62876 11.63205,-0.94314 18.86278,-0.94314 7.54511,0 13.83271,0.47157 18.86279,1.41471 4.71569,0.94314 2.35784,1.5719 -7.07355,1.88628 -9.43139,0.31438 -18.5484,1.41471 -27.35103,3.30099 -8.80263,1.25752 -17.76246,3.45818 -26.87947,6.60197 -8.80263,3.1438 -17.60527,6.91636 -26.4079,11.31767 -8.80263,4.40132 -16.9765,9.11702 -24.52162,14.14709 -7.54511,5.03007 -12.47661,9.89121 -16.50493,12.26081 -3.33915,1.9642 -7.77585,7.54511 -9.90296,7.54511 z m 158.44738,-166.93563 0,0.94314 -0.94314,0 c -0.62876,0 -0.94314,-0.31438 -0.94314,-0.94314 l 0,-1.41471 -0.94314,-4.24413 c 0,-3.14379 0.31438,-3.14379 0.94314,0 1.25752,3.1438 1.88628,5.03008 1.88628,5.65884 z m 150.4307,84.88252 0,0.94314 c -8.63522,-2.80218 -17.70076,-6.31822 -24.05005,-8.48825 -12.88957,-4.40131 -19.80592,-6.91635 -20.74906,-7.54511 l -0.94314,-1.88628 -1.41471,-1.88628 c -0.94314,-1.25752 1.72909,-0.47157 8.01668,2.35785 6.60197,2.82941 14.14709,6.1304 22.63534,9.90296 5.42891,2.01672 11.55269,4.41712 16.50494,6.60197 z m 42.44126,20.74907 -1.41471,0 c -8.66271,-2.38576 -17.1144,-3.39042 -23.57848,-4.7157 -12.26106,-2.5138 -22.32096,-3.77256 -30.18045,-3.77256 -7.85949,0 -14.46147,0.15719 -19.80592,0.47157 l -8.01669,0.47157 c -1.47299,0.65463 -2.63949,0.94314 -4.24412,0.94314 l 0,-0.47157 c 1.80935,-1.07194 4.97311,-2.15788 7.54511,-3.30099 2.82942,-1.25751 4.87289,-1.88627 6.13041,-1.88627 1.25751,0 5.65883,-0.15719 13.20394,-0.47157 l 11.31768,-0.47157 c -4.27063,-0.95302 -8.84905,-3.32088 -13.20395,-5.18727 -6.60197,-2.82941 -5.03008,-2.67222 4.71569,0.47157 9.74577,2.51504 20.67591,6.60798 33.48144,9.90296 4.98306,1.28219 18.8381,5.77099 24.05005,8.01669 z m -135.81204,6.60197 0.94314,0 1.41471,0.47157 1.88628,0.47157 -5.65884,0 c -2.20066,0 -4.55851,-0.15719 -7.07354,-0.47157 -2.51504,-0.31438 -4.40132,-1.10033 -5.65884,-2.35785 -1.5719,-1.25752 -3.1438,-3.77256 -4.71569,-7.54511 -1.5719,-3.77256 -3.30099,-9.90297 -5.18727,-18.39122 -1.88628,-8.48825 -2.82942,-14.93303 -2.82942,-19.33435 0,-4.08693 0.94314,-7.54511 2.82942,-10.37453 l 2.35785,-3.77256 0,-0.47157 0.47157,0 1.41471,-1.41471 c 0.94314,-0.94313 0.62876,1e-5 -0.94314,2.82942 -1.5719,2.82942 -2.67223,5.03008 -3.30099,6.60198 l 0,7.54511 c 0.62876,3.77256 1.88628,9.74577 3.77256,17.91964 1.88628,8.17387 3.77256,13.9899 5.65883,17.44808 1.25752,3.45817 2.98661,5.81602 5.18727,7.07354 1.88628,1.25752 3.77256,2.20066 5.65883,2.82942 1.88628,0.62876 3.1438,0.94314 3.77256,0.94314 z m -146.18657,26.87947 -1.41471,0.47157 -1.88628,0 c -0.94314,0 -3.45818,0.62876 -7.54511,1.88627 -4.40132,0.62876 -6.2876,0.94314 -5.65884,0.94314 l 1.41471,-0.94314 0.94314,0 6.60197,-1.88627 c 4.40132,-1.25752 7.07355,-2.04347 8.01669,-2.35785 0.62876,0 0.94314,0.31438 0.94314,0.94314 0,0.62876 -0.47157,0.94314 -1.41471,0.94314 z m 107.51786,-141.47088 -0.47157,0 -0.47157,0.47157 -2.35784,0 c 0.13912,-3.4844 -0.51232,-6.928 -0.94314,-10.37453 -0.62876,-5.34445 -0.15719,-5.34445 1.41471,0 0.8938,3.2959 1.99531,6.63757 2.82941,9.90296 z m 83.46782,107.98944 0,0.94313 c -2.96646,-0.13351 -5.61565,-1.85155 -7.54511,-3.30098 -1.25752,-0.94314 -2.35785,-2.04347 -3.30099,-3.30099 l -1.41471,-1.88628 0,-0.47157 0.47157,-0.47157 0.47157,-0.94314 1.88628,-1.88627 c 1.5719,-0.62876 4.24413,-1.41471 8.01668,-2.35785 3.77256,-0.94314 8.17388,-1.41471 13.20395,-1.41471 5.03007,0 3.92974,0.94314 -3.30099,2.82942 -7.54511,1.25751 -11.94643,2.20065 -13.20394,2.82941 -1.5719,0.62876 -2.35785,1.5719 -2.35785,2.82942 0.31438,1.25752 1.10033,2.51504 2.35785,3.77256 2.0853,1.3831 2.55159,2.82942 4.71569,2.82942 z m -74.50799,-124.49438 -2.82942,-12.73238 4.71569,11.78924 c 2.05315,5.16948 4.50327,10.68039 6.13041,15.5618 l -1.41471,0 -1.88628,0.47157 -0.47157,-0.47157 c -1.76707,-5.24831 -3.01374,-10.61392 -4.24412,-14.61866 z m 4.71569,-31.59516 0,-1.41471 9.43139,21.6922 c 0.69201,7.10255 11.31767,17.93939 11.31767,25.46476 l -2.35784,0 -1.41471,-0.47157 -1.41471,0 c -2.852,-8.48753 -5.59337,-15.79668 -8.01668,-22.16377 l -6.60198,-20.27749 -0.47157,-0.47157 c -0.31438,-0.62876 -0.47157,-1.41471 -0.47157,-2.35785 z m -41.49812,52.34423 0,0.94313 -1.41471,0 0,-0.94313 -0.47157,-0.47157 0,-4.24413 c -0.62876,-2.82942 -0.31438,-2.82942 0.94314,0 0.62876,2.51504 0.94314,4.08694 0.94314,4.7157 z m -111.29042,62.71875 -0.47157,0 0,-0.94314 c 2.51827,-1.50328 5.28077,-5.05593 8.48825,-8.01668 3.77255,-3.77256 7.7023,-6.91636 11.78924,-9.43139 4.40131,-2.51504 9.11701,-4.55851 14.14709,-6.13041 5.34445,-1.5719 8.01668,-2.20066 8.01668,-1.88628 0,0.31438 -2.67223,1.72909 -8.01668,4.24413 -5.65884,2.51504 -11.47487,5.81603 -17.44808,9.90296 -5.97321,4.08694 -9.74577,6.75917 -11.31767,8.01668 -2.78979,1.93383 -3.27743,2.67352 -5.18726,4.24413 z m 212.67788,54.70207 c 2.35825,2.42744 6.8101,2.09441 8.95982,4.24413 -2.58366,-0.10156 -5.36779,-1.0495 -7.54511,-1.41471 -2.20066,-0.31438 -4.40132,-1.10033 -6.60198,-2.35785 -2.51503,-1.25752 -4.24412,-2.51504 -5.18726,-3.77255 -0.94314,-1.25752 -1.5719,-2.82942 -1.88628,-4.7157 -0.31438,-2.20066 -0.31438,-3.30099 0,-3.30099 0.31438,0 0.78595,0.62876 1.41471,1.88628 0.62876,1.25752 1.72909,2.67223 3.30099,4.24413 1.57189,1.88628 4.08693,3.61537 7.54511,5.18726 z m -62.24719,-28.29417 c -4.1354,-1.70067 -9.03928,-3.57467 -13.67551,-5.18727 -7.23073,-2.51503 -15.09023,-4.5585 -23.57848,-6.1304 -8.80263,-1.5719 -12.88957,-6.13041 -12.26081,-13.67552 0.62876,-7.54511 1.41471,-14.93304 2.35785,-22.16377 1.25751,-7.23073 5.50164,-10.8461 12.73237,-10.8461 7.23073,0 15.71899,0.62876 25.46476,1.88628 9.74577,1.25752 13.83271,3.30099 12.26081,6.1304 -1.88628,3.1438 -3.1438,6.75917 -3.77256,10.8461 -1.25751,4.40132 -1.72908,10.37454 -1.4147,17.91965 0.31438,7.23073 0.096,11.97871 0.47157,14.14708 0.45775,2.64299 1.4147,4.74305 1.4147,7.07355 z m 2.35785,-123.07966 -0.94314,-3.77256 4.7157,13.20395 c 2.41119,5.97221 5.21116,12.3325 7.07354,17.91964 l -2.82941,0 c -1.06131,-4.76069 -2.99303,-9.75734 -4.24413,-13.20395 -1.88628,-6.91635 -3.1438,-11.63205 -3.77256,-14.14708 z"/>
<path fill="#ccc" d="m 367.67024,229.21153 c 1.30895,-0.55925 2.90521,-0.9547 4.24412,-0.47157 2.28743,0.82539 4.03999,3.045 5.06569,5.24989 0.82201,1.76702 0.88058,3.88646 0.60282,5.81542 -0.11212,0.7786 -0.44097,1.54143 -0.89571,2.1833 -0.58499,0.82571 -1.37407,1.54344 -2.26758,2.01845 -1.65124,0.87784 -3.56682,1.44723 -5.43595,1.38754 -0.71037,-0.0227 -1.43051,-0.27335 -2.02811,-0.65808 -0.92665,-0.59657 -1.70534,-1.47151 -2.23075,-2.44028 -1.07318,-1.97877 -1.80066,-4.28917 -1.69252,-6.53762 0.0654,-1.35885 0.61613,-2.72085 1.39733,-3.83461 0.80891,-1.15327 1.94527,-2.15898 3.24066,-2.71244 z"/>
<path fill="#111" d="m 369.55652,243.83018 c -0.62284,0.0861 -1.30746,0.24556 -1.88628,0 -0.86356,-0.36636 -1.41391,-1.2578 -1.95568,-2.02359 -0.54113,-0.76489 -1.07654,-1.59512 -1.25569,-2.51479 -0.30185,-1.54956 -0.008,-3.18901 0.37059,-4.72154 0.19109,-0.77277 0.41288,-1.60081 0.94427,-2.19352 0.36443,-0.40648 0.90826,-0.6311 1.42494,-0.80737 1.04911,-0.35792 2.22127,-0.7579 3.29194,-0.47086 1.54701,0.41474 3.01112,1.56251 3.77831,2.96845 0.70819,1.29783 0.73837,2.97263 0.41708,4.41578 -0.39332,1.76669 -1.32204,3.57381 -2.75568,4.67861 -0.65116,0.5018 -1.55946,0.5563 -2.3738,0.66883 z"/>
--><use id="shine" xlink:href="#shield" fill="url(#rg)" stroke="#000" stroke-width="3"/>
</svg>
