<?xml version="1.0" encoding="UTF-8"?>
<svg xmlns="http://www.w3.org/2000/svg" xmlns:xlink="http://www.w3.org/1999/xlink" width="600" height="660">
<defs>
  <radialGradient id="rg" gradientUnits="userSpaceOnUse" cx="220" cy="220" r="405">
    <stop style="stop-color:#fff;stop-opacity:.3" offset="0"/>
    <stop style="stop-color:#fff;stop-opacity:.2" offset=".2"/>
    <stop style="stop-color:#666;stop-opacity:.1" offset=".6"/>
    <stop style="stop-color:#000;stop-opacity:.13" offset="1"/>
  </radialGradient>
  <clipPath id="clip-shield">/home/sophian/Documents/stuff/sigils/cross.svg
    <path id="shield" d="m2,2v257c0,286 298,398 298,398c0,0 298-112 298-398V2z"/>
  </clipPath>
</defs>
<use id="background" xlink:href="#shield" style="fill:#eeeeee;"/>
<g id="tree" style="fill:#ffd500;stroke:#bb8800;stroke-width:1;stroke-linecap:round;stroke-linejoin:round;">
    <path style="fill:#e0d000" d="m 327.19,390.97 c 0,0 -0.48,-9.86 3.43,-14.35 6,-6.91 30,-29.33 48.44,-37.68 14.19,-6.43 55.06,-6.23 63.84,-9.1 l -2.13,-6.29 c -2.41,-2.35 -43.16,1.58 -50.92,-1.4 -9.96,-3.86 16.8,-31.2 19.95,-34.26 l -7.89,-2.99 c -19.54,8.93 -34.87,42.57 -38.73,45.82 -11.01,9.23 -29.56,20.12 -35.28,20.1 0.54,-10.37 -0.42,-17.63 1.4,-23.61 5.7,-18.41 32.54,-54.52 44.47,-65.76 l -7.47,-6.38 c -7.24,4.49 -13.8,17.19 -24.19,26.06 -1.89,-0.65 -6.67,-11.35 -9.72,-14.77 l -7.39,3.64 c 0,3.07 6.36,22.55 6.05,24.75 -5.48,7.82 -10.41,15.47 -13.42,21 -3.44,6.33 -10.37,20.86 -14.8,31.95 -3.09,7.76 -6.75,15.72 -6.27,25.91 -0.48,-10.23 3.29,-18.15 6.27,-25.91 -4.78,-4.4 -12.57,-10.96 -17.04,-17.14 -1.67,-2.32 0,-25.73 1.67,-28.01 2.85,-4.06 2.17,-16.37 3.77,-30.23 0.83,-6.97 26.18,-23.58 27.57,-24.68 l -3.91,-5.72 c -7.24,0.26 -28.09,13 -34.8,22.18 -2.72,0.31 -26.45,-16.68 -31.98,-22.18 l -5.65,3.55 c 4.24,4.89 8.86,8.81 13.26,12.6 3.97,3.45 21.52,18.33 19.68,24.31 -4,13.35 -6.06,36.94 -7.35,39.15 -7.08,-2.54 -31.58,-17.77 -43.66,-20.3 -6.97,-10.39 -13.98,-31.52 -22,-40.48 l -7.15,2.34 c 3.86,13.64 7.84,25.98 13.78,39.2 l 12.18,15.17 c 19.72,7.14 43.54,20.95 46.34,41.8 1.43,10.69 2.86,17.86 2.46,24.96 1.45,5.53 3.58,7.98 5.53,14.47 1.47,4.82 2.65,14.86 2.19,23.85 -0.55,10.3 1.64,37.26 0.46,48.18 -4.23,7.3 -1.25,24.64 -1.91,31.45 -2.78,29.88 -9.16,28.92 -51.91,35.3 -5.65,0.85 -22.54,7.14 -43.74,6.57 32.43,8.51 40.86,4.41 49.06,3.82 16.5,-1.21 15.53,5.52 34.6,0 -17.2,16.81 -4.52,10.04 -21.54,12.21 -12.18,1.6 -24.57,20.58 -49.56,9.99 6.64,5.94 12.75,10.9 16.35,11.55 15.4,2.83 30.38,-14.86 43.74,-9.93 -12.28,18.59 -18.27,30.3 -4.69,45.27 -6.84,-10.66 4.45,-27.95 13.15,-41.21 4.61,-7.04 12.72,-15.87 19.41,-22.47 -0.59,-4.58 2.26,-9.62 4.63,-13.66 -2.3,3.97 -5.2,9.06 -4.63,13.66 0.46,3.53 1.78,7.91 5.57,12.28 4.3,4.93 12.85,14.18 2.39,18.36 -29.49,11.82 -3.73,37.36 0.99,45.86 -0.94,-11.81 -12.24,-24.59 0.24,-31.61 10.99,-6.2 25.04,-8.39 18.49,-20.38 -10.49,-19.12 -4.83,-20.26 -5.88,-31.63 3.2,6.09 5,11.86 7.85,15.63 25.77,33.53 7.52,40.48 4.91,67.99 35.07,-56.25 4.94,-51.53 5.75,-81.59 19.58,17.26 49.19,43.65 31.18,70.06 21.19,-9.84 11.78,-25.14 12.09,-35.88 14.38,4.97 24.73,3.62 33.92,0.88 -43.2,-7.57 -32.48,-8.99 -55.96,-30.25 -3.56,-3.23 -7.48,-7.11 -9.85,-10.68 3.05,4.41 8.09,9.27 9.85,10.68 6.47,-0.27 12.76,0 21.73,0.48 12.43,0.63 11.47,-5.81 20.13,-4.23 25.15,4.56 34.41,2.58 40.64,-5.29 -12.66,3.49 -24.02,2.68 -36.23,-2.87 -8.01,-3.64 -16.69,3.01 -29.98,-1.03 -25.77,-7.82 -28.53,-14.64 -29.45,-37.96 -0.33,-7.52 1.05,-30.6 0.24,-35.25 -2.59,-13.33 -0.92,-37.83 -1.8,-44.37 -0.79,-5.94 -2.37,-17.6 -0.57,-31.56 z" />
    <g>
      <path d="m 182.01,262.76 c -4.37,-1.16 -8.74,7.96 -12.34,0.27 -7.19,-4.61 -4.62,17.93 -12.33,8.26 -1.55,-8.09 -7.46,-3.35 -11.83,-0.66 -3.08,-1 3.34,-7.14 -4.11,-4.38 -9.25,5.15 -4.11,-10.3 -12.59,-5.85 -7.46,2.61 -0.52,-11.86 -10.8,-9.03 -10.54,2.47 -9.51,-11.42 -20.304,-9.36 -9.766,0.26 5.144,-14.23 -6.939,-9.47 -6.939,3.46 -7.711,-2.02 -7.198,-6.78 -2.826,-3.26 -12.592,-7.23 -2.57,-9.31 10.024,-2.85 -0.513,-6.25 -4.112,-9.49 2.314,-2.26 15.165,-4.54 5.141,-5.9 -2.314,-2.48 3.085,-10.19 -3.084,-5.48 -11.052,2.39 0,-13.68 -8.226,-11.73 -10.022,-2.17 -4.111,-10.15 1.286,-11.77 -4.625,1.27 -17.22,0 -9.253,-5.52 6.169,-3.38 0.257,-4.34 -2.313,-5.09 -3.084,-7.07 19.535,-7.81 5.399,-7.02 -10.54,-6.6 6.167,-10.76 12.592,-8.6 4.627,-0.67 0.515,-5.24 6.684,-4.57 2.055,-2.52 -10.796,-4.86 -2.57,-8.84 4.625,0.8 9.509,-2.85 3.34,-5.58 -10.537,1.78 5.656,-10.53 -5.14,-9.5 -7.967,0.64 -8.224,-3.6 -1.285,-5.65 5.655,-5.58 14.136,-7.66 18.763,-0.52 4.629,4.14 16.449,-2.82 10.279,-4.67 -8.22,3.41 -4.11,-3.57 -5.65,-6.38 -8.484,4.99 -11.311,-9.217 -1.8,-8.421 6.68,-1.002 -0.52,-8.736 7.2,-4.959 4.36,2.905 11.05,0.463 12.33,-1.387 4.37,9.866 17.22,-2.054 20.31,7.091 -2.32,6.834 9.25,6.988 6.42,-0.283 6.43,-2.902 -4.37,-9.119 3.34,-7.527 7.2,-0.746 -3.85,-10.636 4.88,-6.423 3.86,2.622 9,10.02 8.23,0.772 4.37,-5.678 11.57,7.474 17.48,0.848 8.74,1.797 0.77,28.409 12.33,17.803" />
      <path d="m 68.664,167.81 c 2.826,5.3 -14.652,-1.8 -8.739,6.6 5.912,13.91 -10.538,-2.42 -12.851,7.54 7.454,8.92 4.368,11.5 0,14.9 1.285,1.45 2.827,2.02 5.14,3 -2.57,2.39 -5.14,4.65 -5.14,6.67 0,4.08 5.397,6.27 8.223,9.2 -6.681,4.8 -1.285,8.55 3.856,10.7 2.57,7.45 -4.369,18.52 4.37,23.26 3.599,5.63 -4.37,17.95 5.91,15.56 12.595,-1.88 -8.223,13.37 3.856,14.58 7.197,0.55 5.399,20.23 12.081,9.12 6.169,-11.8 5.91,9.31 9.252,8.61 2.827,-3.26 7.708,-12.89 6.428,-2.28 1.03,4.71 12.08,0.53 4.37,6.8 -3.09,8.66 10.54,8.52 10.79,9.27 -3.08,11.95 6.43,16.68 11.82,7.69 -1.79,3.53 -5.91,18.77 2.57,15.24 5.4,-6.49 4.12,0.24 5.15,4.4 5.39,6.73 12.59,-16.44 8.48,-3.42 -0.77,4.67 0.51,12.02 2.57,12.02 3.85,0 8.99,-10.13 7.97,-16.01 0.51,-4.97 2.82,-9.49 4.88,-5.12 1.8,-4.63 4.37,-8.31 4.37,-0.46 2.31,8.72 7.71,2.69 8.22,-3.12 8.23,0.31 -0.26,14.16 8.48,9.84 10.03,-4.86 -2.05,12.5 5.92,14.87 4.88,-4.45 17.22,-12.85 9.25,-21.42 -2.06,-7.47 1.54,-17.69 7.97,-12.36 -3.6,3.46 -4.37,10.37 1.79,8.11 6.43,0.79 -5.14,8.63 2.83,10.65 5.66,9.56 7.45,-12.87 13.11,-1.77 3.08,-2.39 -2.83,-19.38 5.91,-15.92 -2.05,-6.22 -6.43,-12.12 -0.26,-16.5 4.37,-10.55 -8.99,-7.22 -6.68,-17.87 4.37,3.97 11.82,-1.31 13.88,6.38 0.77,-8.61 4.63,-6.31 7.97,-0.39 5.4,-3.16 -10.03,-20.52 0.51,-14.34 9.78,3.88 -3.85,-16 4.89,-16.9 0.26,-9.67 -11.06,-9.84 -12.6,-14.97 1.54,-1.38 3.34,-2.15 4.88,-3.82" />
      <path d="m 510.99,189.07 c -0.5,4.3 22.11,-2.28 18.77,5.57 -1.29,10.45 13.88,-6.97 16.45,2.23 -6.43,4.98 -3.6,8.18 4.63,8.44 7.45,1.19 -10.03,2.94 -0.53,5.42 11.32,2.71 -6.67,10.72 8.22,11.9 -5.39,3.94 -11.29,9.18 -4.1,14.36 5.4,5.45 -5.39,11.29 4.1,16.61 -2.04,4.28 -19.78,4.12 0,12.56 -2.83,4.47 -13.35,5.09 -7.19,12.65 -1.8,5.44 -17.21,-6.69 -12.32,4.25 4.36,10.02 -8.75,0.27 -10.29,2.13 6.69,5.52 -5.66,5.17 -4.12,8.07 12.85,1.88 -3.07,10.98 -4.63,10.47 6.69,5.46 0.79,13.94 -7.96,8.86 -5.66,0.24 13.11,7.78 2.06,9.91 -5.92,-1.21 -10.79,-0.77 -4.36,4.03 -4.13,5.9 -14.41,-2.48 -14.41,-1.07 10.28,4.73 -0.24,11.55 -6.67,5.7 -4.12,-2.66 -7.72,-10.31 -10.04,-4.5 -5.64,-3.55 -6.67,-2.65 -4.37,2.7 -4.1,8.83 -12.32,-7.54 -14.12,3.29 6.67,9.18 -2.59,4.25 -2.06,14.62 -3.33,-0.55 -10.79,-7.92 -14.14,-6.1 -7.46,-1.18 -1.04,-6.31 -8.23,-9.99 -3.33,-5.09 -15.15,1.58 -4.1,3.13 3.07,3.53 -13.11,3.9 -3.09,6.82 3.6,1.91 -0.77,5.52 -4.89,6.14 -3.84,-3.66 -7.19,-2.83 -11.56,0 -0.77,-7.32 -5.13,-8.95 -11.05,-8.22 0.77,-4.58 1.8,-10 -5.92,-10.68 -8.47,-5.28 7.72,-8.55 0.52,-13.81 -4.36,5.09 -12.58,1.49 -12.08,8.07 -3.33,-3.53 -7.46,-4.56 -8.49,1.12 -5.39,4.03 -1.79,-12.28 -2.56,-10.5 -4.89,2.93 -9.76,6.09 -9.26,-1.52 0.27,-5.02 -2.83,-5.08 -6.42,-7.03 -2.57,-6.34 20.83,-11.97 20.04,-15.83 -2.3,-0.46 -13.35,-3.94 -15.41,-4.58" />
      <path d="m 334.67,272.94 c 5.16,-1.06 -0.77,9.86 8.23,6.05 12.85,-2.22 -6.67,10.23 3.59,13.32 5.16,-4.89 10.29,-5.67 11.06,2 1.79,6.86 3.59,-8.68 7.21,-0.27 3.84,7.87 12.85,-9.05 14.39,2.17 5.13,-0.78 8.22,-9.97 15.15,-3.77 7.98,6.14 15.18,-5.98 23.14,1.45 6.42,3.05 4.62,-15.45 10.79,-5 5.65,9.45 8.75,-7.36 18.24,-3.66 8.25,-0.63 -8.99,-12.47 2.83,-10.56 5.66,0 10.55,0 5.15,-4.74 -4.12,-4.43 -2.32,-4.38 3.34,-3.15 2.32,-1.58 2.83,-9.85 5.66,-3.03 5.65,5.9 10.78,-7.25 11.05,-7.39 7.19,4.76 16.95,-1.18 10.02,-7.62 -0.5,-5.2 10.55,9.82 12.08,0.26 -1.79,-4.47 -1.79,-8.77 4.63,-4.14 6.93,-3.99 -4.12,-11.31 -2.57,-11.53 6.67,7.69 14.13,-1.78 6.43,-6.23 -3.6,-3.05 -13.38,-4.87 -6.43,-7.63 -4.62,-4.07 -3.85,-5.1 2.83,-3.94 9.76,-3.97 -10.04,-10.9 3.6,-11.29 8.47,5.83 1.8,-12.72 11.82,-5.15 11.05,6.03 1.8,-7.96 0.77,-11.93 -2.06,-6.2 -12.09,2.26 -17.22,-3.29 -6.42,-1.79 0.51,-12.53 3.34,-3.77 4.62,2.15 3.86,-11.44 8.48,-2.91 4.63,1.25 12.59,-4.76 5.14,-8.18 -6.43,-3.02 8.48,-7.03 -2.07,-7.56 -5.39,-1.27 -10.79,-1.56 -7.96,-6.89 -5.9,1.08 -12.08,3.01 -13.88,-3.42 -7.7,-6.04 -8.49,6.91 -16.45,2.67 5.16,-3.8 0.53,-10.94 7.96,-10.81 0.53,-2.31 -8.22,-5.09 0,-6.86 8.75,-5.32 -14.12,-0.9 -11.82,-1.29 3.36,-4.39 6.69,-8.86 -2.56,-7.45 -5.9,0.98 -6.43,-1.51 -8.99,-4.34 -7.96,-1.18 -10.55,8.61 -15.42,8.56 -0.77,-1.73 -0.77,-3.58 -1.8,-5.22" />
      <path d="m 372.19,78.308 c 3.36,1.284 2.59,-8.606 7.72,-5.086 8.23,2.337 -0.5,-8.529 6.69,-11.663 2.57,3.185 5.13,6.552 8.47,-0.592 4.12,-7.269 -0.24,7.168 5.41,-0.333 5.14,-6.988 5.64,8.169 10.53,-1.002 3.6,-1.517 2.06,9.095 8.49,3.777 7.7,-5.807 8.99,4.649 15.94,0 8.73,-5.883 -0.53,12.382 7.19,4.599 4.87,-5.833 5.66,-1.774 6.93,2.157 3.1,1.619 10.03,0.694 3.6,6.115 -8.73,6.576 5.39,3.312 4.63,6.19 -2.57,2.776 -9.76,8.247 -2.31,5.651 2.83,0.259 -1.03,9.79 3.84,2.519 6.19,-4.007 4.63,7.477 4.89,7.295 8.49,-4.393 10.29,3.085 3.86,8.505 2.31,-1.8 12.09,-7.501 8.73,0.26 -4.63,4.72 -1.27,4.11 2.33,3.21 3.85,3.62 -12.59,13.23 -3.34,7.81 8.73,-3.75 2.04,8.78 -3.62,9.09 -2.56,1.23 -6.93,3.39 -3.33,4.68 -3.86,2.62 -5.9,4.72 -0.26,3.7 4.62,1.67 -0.24,6.11 -4.1,7.14 0,4.29 4.36,2.65 6.68,1.85 -1.55,4.19 -3.09,9.79 3.84,5.78 8.75,-4.01 -2.3,7.15 -3.84,10.31 -3.35,6.4 -7.98,-2.02 -13.64,2.78 -4.62,0.75 -4.36,11.16 0.53,4.01 5.13,-3.59 -1.03,10.11 5.4,2.41 4.62,-1.68 6.42,5.79 0.26,7.83 -4.39,2.54 4.1,5.76 -3.09,6.09 -4.37,0.86 -8.49,1.05 -8.23,5.83 -3.59,-0.48 -7.45,-3.7 -10.28,2.13 -4.63,3.02 -6.93,1.1 -6.93,-2.67 -2.33,-0.75 -6.95,0 -3.86,2.8 -2.06,3.75 -0.51,7.45 1.53,7.91 -7.45,2.28 -2.3,4.85 -1.53,7.5 -4.37,2.59 -11.82,-5.81 -9.26,1.93 0.53,7.1 -10.28,-0.7 -12.08,6.47 -6.67,1.64 -4.87,-9.19 -8.99,-7.46 -0.77,1.34 -1.54,2.81 -2.57,4.04" />
      <path d="m 225.7,271.4 c 5.14,-1.03 -1.03,9.87 8.23,6.05 12.85,-2.23 -6.69,10.24 3.34,13.31 5.4,-4.85 10.54,-5.68 11.31,2.01 1.79,6.89 3.33,-8.66 6.95,-0.26 3.83,7.89 12.85,-9.07 14.65,2.17 4.86,-0.81 8.22,-20.89 14.89,-14.71 7.98,6.18 11.58,-5.96 19.54,1.49 6.16,3.01 12.08,-11.64 18.51,-1.18 5.65,9.47 4.89,-0.29 14.38,3.44 8.23,-0.64 -9.25,-12.49 2.83,-10.59 5.4,0 10.55,0 5.15,-4.71 -4.38,-4.45 -2.32,-4.43 3.34,-3.18 2.06,-1.58 2.83,-9.82 5.39,-3.02 5.92,5.89 10.79,-7.26 11.05,-7.37 7.2,4.74 17.22,-1.2 10.29,-7.65 -0.77,-5.17 10.29,9.84 12.08,0.29 -1.79,-4.5 -2.06,-8.77 4.37,-4.17 6.93,-3.99 -4.13,-11.31 -2.33,-11.53 6.43,7.7 13.88,-1.75 6.19,-6.22 -3.36,-3.03 -13.12,-4.89 -6.19,-7.63 -4.87,-4.08 -3.83,-5.09 2.83,-3.97 9.52,-3.94 -10.02,-10.89 3.6,-11.24 8.22,5.8 1.56,-12.74 11.58,-5.2 11.05,6.05 2.06,-7.93 0.76,-11.88 -29.82,-1.86 -8.99,-14.71 -5.13,-10 4.61,1.25 12.33,-4.75 5.13,-8.17 -6.42,-3.03 8.23,-7.04 -2.32,-7.59 -5.13,-1.25 -10.53,-1.51 -7.7,-6.87 -6.16,1.1 -12.34,2.99 -14.14,-3.42 -7.46,-6.01 -8.49,6.92 -16.45,2.7 5.4,-3.83 0.53,-10.95 8.22,-10.84 0.27,-2.29 -8.48,-5.09 -0.26,-6.86 9.01,-5.32 -13.86,-0.9 -11.56,-1.29 3.1,-4.36 6.43,-8.84 -2.56,-7.45 -6.16,0.98 -6.43,-1.51 -9.26,-4.31 -7.72,-1.21 -10.54,8.58 -15.17,8.55 -0.77,-1.72 -1.01,-3.6 -2.04,-5.24" />
      <path d="m 83.828,185.19 1.799,1.23 -7.454,3.66 6.94,8.17 c -7.454,-1.16 -13.366,0.31 -16.706,4.91 l 10.537,3.16 -8.482,8.2 8.226,-1.45 -3.599,7.59 10.538,3.17 -4.369,5.38 11.566,1.86 1.542,11.73 8.994,3.98 0.77,9.47 12.85,-2.03 -4.11,9.55 11.05,1.23 5.91,6.97 7.97,-8.81 7.45,8.81 5.92,-8.66 2.05,5.59 8.74,-1.82 -4.11,5.42 c 4.63,3.83 9.51,3.83 14.91,1.01 0.51,4.77 1.28,9.16 6.42,10.08 l 9,-7.54 c -0.52,3.99 -4.89,8.2 1.28,11.77 l 9,-6.05 v 5.76 l 6.68,-0.7 4.63,-8.92 -1.29,6.49 3.34,3.29 7.2,-4.3 1.03,-12.23 3.85,2.32 2.57,-6.22 3.34,5.85 6.17,0.26 1.03,-7.03 6.43,1.8 -0.26,5.12 10.53,-3.5 1.82,10.76 8.73,-7.61 5.65,-6.09 -6.69,-5.04 -1.03,-8.55 8.23,-2.48 -2.83,7.21 10.02,-1.53 -3.07,5.59 9.25,2.96 4.63,-7.94 6.43,1.82 -3.6,-11.64 6.16,-1.31 -7.96,-6.86 3.84,-4.41 -1.27,-6.03 -7.19,0.27 -3.86,-5.53 c 4.86,1.27 9.25,1.36 12.32,-2.65 l 4.89,4.12 1.54,-6.51 9.01,3.97 c -2.59,-3.77 -2.33,-8.24 -10.81,-10.55 l 11.58,-0.7 -6.43,-10.19 4.1,-2.81 -4.1,-2.93 c -4.12,-3.53 -9.78,-2.52 -15.17,-2.55 l 6.18,-5.52 c 0,0 0,0 0,0" />
      <path d="m 161.45,88.61 c -2.06,-19.473 -11.06,-17.547 -13.63,-17.65 -2.82,0 -5.39,0 -3.59,4.292 0.77,10.48 -9.77,-5.344 -16.2,0.257 2.57,5.111 7.2,9.993 -3.59,9.557 -9.77,0.462 9.25,3.827 -0.77,5.677 -11.31,1.927 8.73,11.457 -4.37,11.487 -3.09,3.41 11.3,7.34 3.08,11.63 -6.17,4.47 -3.6,9.02 -1.03,14.26 -4.37,4.55 -8.74,9.05 1.03,10.54 12.34,2.92 -14.65,5.9 -2.06,10.61 7.71,2.77 -1.28,15.23 10.03,10.12 12.59,-7.02 -0.52,13.17 9.51,7.83 4.62,-1.85 8.99,-3.62 4.88,1.68 -0.77,3.36 12.6,3.95 2.83,5.77 -7.71,4.05 7.71,9.66 7.71,9.88 -6.68,5.22 -0.51,13.9 7.97,9.12 5.91,0.33 -13.11,7.3 -1.8,9.84 5.65,-1.03 10.79,-0.46 4.37,4.13 4.11,6.05 14.39,-1.96 14.39,-0.6 -10.02,4.43 0.51,11.56 6.94,5.9 4.11,-2.48 7.45,-10.04 10.02,-4.14 5.4,-3.36 6.69,-2.46 4.37,2.83 3.86,8.96 12.08,-7.11 13.88,3.74 -10.02,6.19 15.17,3.82 3.86,11.23 -7.71,7.62 10.28,1.71 14.9,1.51 7.46,-0.92 -1.28,-9.97 5.91,-13.44 3.09,-4.95 15.17,2.06 4.12,3.22 -3.09,3.47 13.62,4.52 2.57,7.24 -2.06,3.57 4.36,10.63 9.25,5.21 4.63,-4.93 7.72,7.63 9.52,-0.87 2.3,-4.19 3.33,-8.4 9.25,-5.55 0,-4.21 -2.58,-10.48 5.4,-10.43 8.99,-5.24 -6.69,-8.53 -0.53,-14.23 2.83,3.18 9.26,4.65 11.58,4.34 -0.79,7.32 3.07,1.54 6.93,1.27 1.54,3.55 5.13,8.82 5.4,1.6 1.79,-4.2 -4.63,-11.53 3.09,-5.8 9.25,6.88 2.56,-11.03 12.32,-9.91 2.33,-6.25 -9.25,-9.69 -8.46,-13.55 2.04,-0.35 9.76,-15.61 11.82,-16.2" />
      <path d="m 376.82,113.22 c -3.33,-2.93 10.02,-4.75 2.59,-8.91 -7.46,-7.556 11.56,-1.72 12.06,-9.663 -5.63,-1.874 -11.56,-3.415 -3.84,-8.503 7.44,-6.063 -9.25,1.927 -2.32,-5.447 6.42,-7.065 -13.88,-3.595 -4.37,-10.712 0.27,-4.06 -13.11,0.256 -9.51,-7.475 3.86,-8.991 -10.79,-7.63 -8.23,-15.773 3.36,-10.02 -15.92,3.954 -9.76,-5.833 5.14,-6.346 -0.76,-6.09 -6.68,-6.346 -3.6,-2.646 -6.17,-9.711 -9.76,-1.85 -4.13,10.302 -7.46,-4.443 -10.79,-2.929 -2.33,3.108 -5.66,11.716 -6.19,3.777 -1.8,-2.876 -12.32,3.647 -5.39,-3.238 2.06,-7.115 -12.33,-2.516 -12.33,-2.928 1.28,-9.505 -9.51,-9.299 -13.11,-1.438 1.03,-2.826 3.86,-9.198 -1.03,-10.096 -4.89,5.37 -8.99,5.344 -9.76,0 -6.43,0.256 -9.25,13.899 -12.61,0 -4.87,2.056 -8.22,5.55 -5.66,11.38 -0.24,2.903 -0.77,7.734 -4.36,4.47 -1.27,4.572 -3.07,7.014 -4.87,1.181 -4.64,-4.057 -7.98,1.85 -7.21,5.86 -5.65,1.129 -5.65,-3.444 -5.91,-6.013 -4.88,2.519 -11.31,5.601 -9.76,-2.236 0.77,-9.761 -8.23,4.06 -11.57,6.526 -6.68,5.011 6.94,7.244 3.34,14.002 1.54,4.856 -12.34,7.271 -5.4,0.719 2.06,-5.96 -12.85,3.597 -6.17,-4.778 0,-4.882 -11.05,-4.829 -10.28,1.85 -1.02,5.061 -9.76,-2.442 -6.42,4.702 1.03,4.469 3.08,8.553 -3.6,9.478 2.57,3.52 9,6.475 2.83,10.918 -1.54,5.241 2.05,6.911 6.94,5.936 2.31,2.157 3.85,7.012 -1.55,4.546 -3.85,3.212 -9.5,2.699 -11.3,0.693 1.02,8.042 -5.14,3.393 -9,3.47 -1.03,5.112 13.88,10.223 2.31,9.658 -9.76,1.208 6.43,9.992 -2.31,13.662 1.29,6.84 14.91,2.42 14.65,6.76 -1.28,1.29 -2.83,2.24 -3.85,3.68" />
      <path d="m 385.31,160.73 c -3.09,-2.94 8.99,-4.76 2.32,-8.9 -6.69,-7.55 10.53,-1.74 10.79,-9.68 -5.15,-1.88 -10.28,-3.42 -3.35,-8.51 6.95,-6.06 -8.47,1.93 -2.04,-5.44 5.9,-7.06 -12.61,-3.57 -3.86,-10.71 0,-4.04 -12.09,0.25 -8.75,-7.48 3.35,-8.99 -9.76,-7.63 -7.44,-15.773 2.81,-9.993 -14.65,3.957 -9.01,-5.833 4.63,-6.343 -0.77,-6.087 -5.9,-6.343 -3.59,-2.648 -5.66,-9.713 -9.25,-1.85 -3.6,10.3 -6.43,-4.446 -9.52,-2.905 -2.3,3.084 -5.4,11.69 -5.66,3.751 -1.8,-2.876 -11.29,3.673 -4.87,-3.236 1.8,-7.117 -11.31,-2.518 -11.31,-2.928 1.29,-9.507 -8.49,-9.301 -11.82,-1.44 1.03,-2.826 3.09,-13.974 -4.37,-8.632 -3.59,5.679 -4.38,2.365 -5.15,-1.412 -6.16,-3.005 -9.76,15.877 -7.7,5.368 0.24,-9.787 -11.58,0.257 -9.25,5.96 -0.27,2.905 -0.77,7.76 -3.86,4.472 -1.3,4.596 -3.09,7.012 -4.37,1.181 -4.38,-4.059 -7.45,1.85 -6.68,5.857 -5.14,1.131 -5.4,-3.443 -5.4,-6.012 -4.36,2.518 -10.28,5.6 -8.75,-2.234 0.53,-9.763 -7.7,4.06 -10.53,6.55 -6.17,4.984 6.17,7.22 3.09,13.976 1.28,4.853 -11.31,7.273 -5.15,0.719 2.06,-5.96 -11.56,3.594 -5.39,-4.779 -0.26,-4.881 -10.03,-4.829 -9.51,1.85 -1.03,5.063 -9,-2.439 -5.91,4.703 1.03,4.47 2.82,8.55 -3.09,9.5 2.31,3.52 7.97,6.45 2.31,10.9 -1.28,5.26 2.06,6.91 6.43,5.93 2.06,2.16 3.6,7.01 -1.29,4.55 -3.59,3.21 -8.73,2.7 -10.28,0.69 0.78,8.04 -4.88,3.42 -8.22,3.47 -1.03,5.11 12.59,10.23 2.06,9.66 -9,1.21 5.65,9.99 -2.06,13.67 1.29,6.84 13.36,2.41 13.36,6.75 -1.28,1.29 -2.82,2.24 -3.59,3.71" />
    </g>
</g>
<use id="shine" xlink:href="#shield" fill="url(#rg)" stroke="#000" stroke-width="3"/>
</svg>
