<?xml version="1.0" encoding="UTF-8"?>
<svg xmlns="http://www.w3.org/2000/svg" xmlns:xlink="http://www.w3.org/1999/xlink" width="600" height="660">
<defs>
  <radialGradient id="rg" gradientUnits="userSpaceOnUse" cx="220" cy="220" r="405">
    <stop style="stop-color:#ffffff;stop-opacity:.3" offset="0"/>
    <stop style="stop-color:#ffffff;stop-opacity:.2" offset=".2"/>
    <stop style="stop-color:#666666;stop-opacity:.1" offset=".6"/>
    <stop style="stop-color:#000000;stop-opacity:.13" offset="1"/>
  </radialGradient>
  <pattern id="ermine" patternUnits="userSpaceOnUse" x="0" y="0" width="133.3" height="188.6">
    <rect width="133.3" height="188.6" style="fill:#000000;"/>
    <path transform="translate(33.3,47.15)scale(0.9)" style="fill:#ffffff;" id="ermine-unit" d="m 0.40009,-18.332585 c -4.60101,20.84701 -13.10288,35.56792 -22.40493,46.1743 3.90086,-1.09721 8.20181,-4.02311 12.40273,-6.6747 -2.60057,5.48605 -5.20114,10.1492 -7.70169,14.99522 1.50033,-0.54861 6.4014,-5.39463 13.00285,-12.5265 1.00022,9.78347 2.40053,14.44662 4.50099,21.12132 1.70038,-6.6747 2.90064,-11.15498 4.20093,-21.21275 4.00088,4.48028 7.80171,9.05199 13.2029,12.89223 l -7.50165,-15.54383 c 3.90086,2.46873 8.2018,5.76036 12.40272,7.13188 C 12.70279,16.869605 4.40097,2.514425 0.40009,-18.332585 Z m -11.70257,-5.66893 c -5.20115,0.27431 -10.9024,7.31474 -16.50363,1.37152 3.30072,8.13765 9.20202,4.20597 9.70213,5.48605 5.9013,9.8749 14.70323,1.82869 12.70279,-2.83446 -1.90042,-3.10876 -3.80083,-4.11454 -5.90129,-4.02311 z m 21.80479,-0.0914 c -1.8004,0.18287 -3.50077,1.28008 -5.10112,4.02311 -2.00044,4.66314 6.80149,12.70936 12.80281,2.83446 0.40009,-1.18865 6.30138,2.65159 9.60211,-5.48606 -5.60123,5.8518 -11.30248,-1.09721 -16.50363,-1.37151 -0.30006,0 -0.50011,0 -0.80017,0 z m -11.8026,-20.66414 c 7.00154,8.77769 -12.60277,12.25219 -2.00044,20.48127 4.50099,2.83446 15.10332,-3.29163 5.80128,-10.78924 -1.20026,-0.64004 4.20092,-5.02889 -3.80084,-9.69203 z"/>
    <use xlink:href="#ermine-unit" transform="translate(66.6,94.3)" />
  </pattern>
  <path id="shield" d="m2,2v257c0,286 298,398 298,398c0,0 298-112 298-398V2z"/>
</defs>
<use xlink:href="#shield" style="fill:url(#ermine);"/>
<g id="ferret">
    <path style="fill:#ffffff;stroke:#000000;stroke-width:1;" d="m 347.73094,346.28347 c 1.69079,-7.18133 25.97534,8.97669 20.97263,17.05571 -5.00269,8.07898 -19.74444,17.61568 -29.89713,27.82771 l -21.86506,0.44883 c -4.68121,-17.57261 16.28485,-9.40208 24.54241,-23.78821 5.92582,-7.18133 4.55642,-14.36269 6.24715,-21.54404 z"/>
    <path style="fill:#ffffff;stroke:#000000;stroke-width:1;" d="m 208.95475,322.49526 c -6.70937,17.97531 -10.72761,32.25939 -29.89712,67.32512 h -29.8971 l 35.25181,-67.32512 z"/>
    <path style="fill:#dddddd;" d="m 40.727657,237.2168 c 4.303297,-10.84031 11.531594,-12.85419 18.072165,-16.94349 68.974838,18.63108 83.937488,41.28646 124.273858,62.05132 21.66689,9.61298 92.48129,14.37946 174.25115,18.06556 22.96967,15.54022 17.0102,39.22795 10.93252,62.94899 -16.01679,-2.78126 -31.88507,-10.65292 -49.08485,-33.66256 -58.31077,0 -79.70376,18.40219 -161.53369,18.40219 -11.58282,4.72536 -61.829361,-94.2731 -81.659336,-99.19232 -11.750598,-2.60693 -23.501195,1.6741 -35.251817,-11.66969 z"/>
    <path style="fill:#ffffff;" d="m 579.76832,303.64424 c -53.82781,-54.14246 -132.409,0.39776 -183.84499,-13.46501 -76.12084,-54.89847 -147.6261,-37.45636 -219.98927,-17.95339 -22.26807,-14.6309 -47.39651,-77.35251 -102.185688,-69.56926 -24.239079,1.80732 -58.09994,37.70207 -16.956566,37.70207 47.974174,-0.70312 60.439814,16.00603 94.153604,80.34127 5.98657,17.47665 14.08612,30.28344 -3.12357,60.59262 -11.89388,3.69503 -21.6838,-0.53932 -25.88112,18.40219 h 34.80562 c 7.9988,-19.20342 25.96358,-30.15587 34.35938,-63.28561 46.89909,-12.23243 102.01937,-38.35468 136.54507,-12.11852 6.5498,11.81412 31.09061,35.15512 53.54709,45.78108 -7.51916,28.22587 -33.02069,3.29665 -33.02069,29.62305 h 33.91315 c 39.48782,-49.37175 31.76229,-20.48273 11.76554,-73.48799 -0.005,-17.25109 -2.34363,-15.90433 4.89278,-14.9484 24.89266,3.28826 43.57699,-1.90558 77.94153,-9.85827 70.318,-15.1295 46.72327,8.9185 103.07813,2.24417 z"/>
    <path style="fill:#dddddd;" d="m 579.76832,303.64424 c -13.45696,-13.53562 -28.461,-20.27856 -44.20119,-22.99581 -7.87011,-1.35861 -15.92425,-1.71081 -24.06109,-1.40246 -0.91946,5.12929 1.4823,12.68993 3.03061,17.06057 8.557,0.022 13.96107,1.40166 18.92878,3.04491 4.96772,1.64325 9.49908,3.55074 16.3107,4.63028 6.8116,1.07954 15.90347,1.33108 29.99219,-0.33749 z"/>
    <path style="fill:none;stroke:#000000;stroke-width:1;" d="m 83.679688,201.99414 c -3.199143,-0.0354 -6.507318,0.17566 -9.931641,0.66211 -19.615564,1.46258 -45.524101,25.24655 -32.892578,34.26758 -0.04129,0.10113 -0.08618,0.19026 -0.126953,0.29297 11.750622,13.34379 23.499402,9.06299 35.25,11.66992 19.829975,4.91922 70.077334,103.91677 81.660154,99.1914 0.17919,0 0.34679,-0.004 0.52539,-0.004 0.19876,8.76765 -2.32016,19.09129 -10.34179,33.21875 -11.89388,3.69503 -21.68354,-0.53917 -25.88086,18.40234 h 34.80468 c 7.06457,-16.96052 21.89872,-27.49538 31.05274,-52.54687 58.11779,-3.72839 80.96742,-17.47266 131.37305,-17.47266 17.19977,23.00964 33.06914,30.8828 49.08593,33.66406 0.0419,-0.16352 0.0831,-0.32671 0.125,-0.49023 4.25604,2.75173 8.57184,5.21513 12.81446,7.22266 -7.51916,28.22587 -33.01954,3.29664 -33.01954,29.62304 h 33.91211 c 39.48782,-49.37175 31.76238,-20.48302 11.76563,-73.48828 -0.005,-17.25109 -2.34383,-15.90515 4.89258,-14.94922 24.89266,3.28826 43.57686,-1.90473 77.9414,-9.85742 70.318,-15.1295 46.72327,8.91847 103.07813,2.24414 -53.82781,-54.14246 -132.40776,0.39793 -183.84375,-13.46484 -76.12084,-54.89847 -147.62707,-37.4561 -219.99024,-17.95313 -20.87631,-13.71647 -44.26677,-69.70124 -92.253902,-70.23242 z"/>
    <path style="fill:#dddddd;" d="m 99.183246,200.86124 c 6.805864,3.76112 9.555584,9.8536 8.032034,18.40219 -0.41718,3.95046 -6.35019,8.25176 -10.709405,5.83485 -5.36728,-4.9728 2.049134,-1.77535 2.413775,-8.63945 0.364689,-6.86411 -7.214859,-14.81313 0.263596,-15.59759 z"/>
    <path style="fill:#000000;" d="m 63.137359,217.96175 a 5.3012472,5.3322132 0 0 0 5.301254,5.33222 5.3012472,5.3322132 0 0 0 5.30123,-5.33222 5.3012472,5.3322132 0 0 0 -5.30123,-5.33219 5.3012472,5.3322132 0 0 0 -5.301254,5.33219 z"/>
    <path style="fill:#000000;stroke:#ffffff;stroke-width:1;" d="m 43.380167,224.76798 c 1.040338,2.39036 -2.626168,6.51373 -5.141764,5.8763 -1.990252,-0.50434 -2.688258,-4.43175 -1.392562,-6.03279 1.375429,-1.69955 5.660597,-1.85105 6.534326,0.15644 z"/>
</g>
<use id="shine" xlink:href="#shield" style="fill:url(#rg);stroke:#000000;stroke-width:3;"/>
</svg>
