<?xml version="1.0" encoding="UTF-8"?>
<svg xmlns="http://www.w3.org/2000/svg" xmlns:xlink="http://www.w3.org/1999/xlink" width="600" height="660">
<defs>
  <radialGradient id="rg" gradientUnits="userSpaceOnUse" cx="220" cy="220" r="405">
    <stop style="stop-color:#fff;stop-opacity:.3" offset="0"/>
    <stop style="stop-color:#fff;stop-opacity:.2" offset=".2"/>
    <stop style="stop-color:#666;stop-opacity:.1" offset=".6"/>
    <stop style="stop-color:#000;stop-opacity:.13" offset="1"/>
  </radialGradient>
  <clipPath id="clip-shield">
    <path id="shield" d="m2,2v257c0,286 298,398 298,398c0,0 298-112 298-398V2z"/>
  </clipPath>
</defs>
<use id="background" xlink:href="#shield" fill="#ddd"/>
<path id="second" fill="#00c" d="M 156.49023 2 L 300 300 L 300 2 L 156.49023 2 z M 300 300 L 598 62.353516 L 598 2 L 443.50977 2 L 300 300 z M 300 300 L 583.39453 364.68164 C 592.65118 332.47419 598 297.29915 598 259 L 598 231.98438 L 300 300 z M 300 300 L 433.77539 577.78711 C 465.86371 552.2961 498.89822 520.21989 526.85352 480.91016 L 300 300 z M 300 300 L 166.22461 577.78711 C 235.31798 632.67498 300 657 300 657 L 300 300 z M 300 300 L 16.605469 364.68164 C 29.31319 408.89669 49.393758 447.50993 73.146484 480.91016 L 300 300 z M 300 300 L 2 62.353516 L 2 231.98438 L 300 300 z"/>
<path id="star-blue" fill="#00c" d="M 300 50 L 300 300 L 338.71289 219.61133 L 300 50 z M 300 300 L 386.98828 280.14648 L 386.98633 280.14453 L 495.45312 144.13086 L 300 300 z M 300 300 L 369.75781 355.63086 L 543.73242 355.63086 L 543.72656 355.62695 L 300 300 z M 300 300 L 300 389.22266 L 408.4707 525.24023 L 300 300 z M 300 300 L 230.24219 355.63086 L 191.5293 525.24023 L 300 300 z M 300 300 L 213.01172 280.14648 L 56.273438 355.62695 L 300 300 z M 300 300 L 261.28711 219.61133 L 104.54297 144.12695 L 104.54688 144.13086 L 300 300 z"/>
<path id="star-silver" fill="#ddd" d="M 300 50 L 261.28711 219.61133 L 300 300 L 300 50 z M 300 300 L 495.45312 144.13086 L 495.45703 144.12695 L 338.71289 219.61133 L 300 300 z M 300 300 L 543.72656 355.62695 L 386.98828 280.14648 L 300 300 z M 300 300 L 408.4707 525.24023 L 369.75781 355.63086 L 300 300 z M 300 300 L 191.5293 525.24023 L 300 389.22266 L 300 300 z M 300 300 L 56.273438 355.62695 L 56.267578 355.63086 L 230.24219 355.63086 L 300 300 z M 300 300 L 104.54688 144.13086 L 213.01367 280.14453 L 213.01172 280.14648 L 300 300 z"/>
<use id="shine" xlink:href="#shield" fill="url(#rg)" stroke="#000" stroke-width="3"/>
</svg>