<?xml version="1.0" encoding="UTF-8" standalone="no"?>
<svg
   xmlns:dc="http://purl.org/dc/elements/1.1/"
   xmlns:cc="http://creativecommons.org/ns#"
   xmlns:rdf="http://www.w3.org/1999/02/22-rdf-syntax-ns#"
   xmlns:svg="http://www.w3.org/2000/svg"
   xmlns="http://www.w3.org/2000/svg"
   xmlns:xlink="http://www.w3.org/1999/xlink"
   xmlns:sodipodi="http://sodipodi.sourceforge.net/DTD/sodipodi-0.dtd"
   xmlns:inkscape="http://www.inkscape.org/namespaces/inkscape"
   width="600"
   height="660"
   id="svg2"
   version="1.1"
   inkscape:version="0.48.2 r9819"
   sodipodi:docname="House_Redwyne.svg">
  <metadata
     id="metadata24">
    <rdf:RDF>
      <cc:Work
         rdf:about="">
        <dc:format>image/svg+xml</dc:format>
        <dc:type
           rdf:resource="http://purl.org/dc/dcmitype/StillImage" />
        <dc:title></dc:title>
      </cc:Work>
    </rdf:RDF>
  </metadata>
  <sodipodi:namedview
     pagecolor="#ffffff"
     bordercolor="#666666"
     borderopacity="1"
     objecttolerance="10"
     gridtolerance="10"
     guidetolerance="10"
     inkscape:pageopacity="0"
     inkscape:pageshadow="2"
     inkscape:window-width="1366"
     inkscape:window-height="715"
     id="namedview22"
     showgrid="false"
     inkscape:zoom="0.50568851"
     inkscape:cx="197.01592"
     inkscape:cy="347.50484"
     inkscape:window-x="-8"
     inkscape:window-y="-8"
     inkscape:window-maximized="1"
     inkscape:current-layer="layer2" />
  <defs
     id="defs4">
    <inkscape:path-effect
       is_visible="true"
       id="path-effect3136"
       effect="spiro" />
    <inkscape:path-effect
       effect="spiro"
       id="path-effect3132"
       is_visible="true" />
    <inkscape:path-effect
       effect="spiro"
       id="path-effect3101"
       is_visible="true" />
    <inkscape:path-effect
       is_visible="true"
       id="path-effect3085"
       effect="spiro" />
    <inkscape:path-effect
       is_visible="true"
       id="path-effect3083"
       effect="spiro" />
    <inkscape:path-effect
       is_visible="true"
       id="path-effect3081"
       effect="spiro" />
    <inkscape:path-effect
       is_visible="true"
       id="path-effect3079"
       effect="spiro" />
    <inkscape:path-effect
       is_visible="true"
       id="path-effect3077"
       effect="spiro" />
    <inkscape:path-effect
       is_visible="true"
       id="path-effect3075"
       effect="spiro" />
    <inkscape:path-effect
       effect="spiro"
       id="path-effect3049"
       is_visible="true" />
    <inkscape:path-effect
       is_visible="true"
       id="path-effect3045"
       effect="spiro" />
    <inkscape:path-effect
       effect="spiro"
       id="path-effect3041"
       is_visible="true" />
    <radialGradient
       id="rg"
       gradientUnits="userSpaceOnUse"
       cx="220"
       cy="220"
       r="405">
      <stop
         style="stop-color:#fff;stop-opacity:.3"
         offset="0"
         id="stop7" />
      <stop
         style="stop-color:#fff;stop-opacity:.2"
         offset=".2"
         id="stop9" />
      <stop
         style="stop-color:#666;stop-opacity:.1"
         offset=".6"
         id="stop11" />
      <stop
         style="stop-color:#000;stop-opacity:.13"
         offset="1"
         id="stop13" />
    </radialGradient>
    <path
       id="shield"
       d="m2,2v257c0,286 298,398 298,398c0,0 298-112 298-398V2z" />
    <radialGradient
       inkscape:collect="always"
       xlink:href="#rg-7"
       id="radialGradient3055-1"
       gradientUnits="userSpaceOnUse"
       cx="220"
       cy="220"
       r="405" />
    <radialGradient
       id="rg-7"
       gradientUnits="userSpaceOnUse"
       cx="220"
       cy="220"
       r="405">
      <stop
         style="stop-color:#fff;stop-opacity:.3"
         offset="0"
         id="stop7-4" />
      <stop
         style="stop-color:#fff;stop-opacity:.2"
         offset=".2"
         id="stop9-0" />
      <stop
         style="stop-color:#666;stop-opacity:.1"
         offset=".6"
         id="stop11-9" />
      <stop
         style="stop-color:#000;stop-opacity:.13"
         offset="1"
         id="stop13-4" />
    </radialGradient>
    <radialGradient
       r="405"
       cy="220"
       cx="220"
       gradientUnits="userSpaceOnUse"
       id="radialGradient3074"
       xlink:href="#rg-7"
       inkscape:collect="always" />
    <inkscape:path-effect
       is_visible="true"
       id="path-effect10120-1"
       effect="spiro" />
    <inkscape:path-effect
       effect="spiro"
       id="path-effect10118-3"
       is_visible="true" />
    <inkscape:path-effect
       effect="spiro"
       id="path-effect10116-9"
       is_visible="true" />
    <inkscape:path-effect
       effect="spiro"
       id="path-effect10114-7"
       is_visible="true" />
    <inkscape:path-effect
       effect="spiro"
       id="path-effect10112-7"
       is_visible="true" />
    <inkscape:path-effect
       effect="spiro"
       id="path-effect10110-2"
       is_visible="true" />
    <linearGradient
       inkscape:collect="always"
       xlink:href="#linearGradient4719-5"
       id="linearGradient4039"
       gradientUnits="userSpaceOnUse"
       gradientTransform="matrix(2.3257341,0,0,2.2943177,447.69485,-1820.2799)"
       x1="-145.25935"
       y1="984.24286"
       x2="-64.14286"
       y2="984.14789" />
    <linearGradient
       inkscape:collect="always"
       id="linearGradient4719-5">
      <stop
         style="stop-color:#666666;stop-opacity:1;"
         offset="0"
         id="stop4721-5" />
      <stop
         id="stop4809-1"
         offset="0.39344174"
         style="stop-color:#666666;stop-opacity:0.74901961;" />
      <stop
         style="stop-color:#666666;stop-opacity:0;"
         offset="1"
         id="stop4723-7" />
    </linearGradient>
    <radialGradient
       inkscape:collect="always"
       xlink:href="#linearGradient4801-8"
       id="radialGradient4041"
       gradientUnits="userSpaceOnUse"
       gradientTransform="matrix(-0.72153181,1.2650715,-2.2729984,-1.2616144,1712.0113,1733.7841)"
       cx="-307.14288"
       cy="782.36218"
       fx="-307.14288"
       fy="782.36218"
       r="63" />
    <linearGradient
       inkscape:collect="always"
       id="linearGradient4801-8">
      <stop
         style="stop-color:#000000;stop-opacity:1;"
         offset="0"
         id="stop4803-2" />
      <stop
         style="stop-color:#000000;stop-opacity:0;"
         offset="1"
         id="stop4805-4" />
    </linearGradient>
    <inkscape:path-effect
       effect="spiro"
       id="path-effect10108-4"
       is_visible="true" />
    <linearGradient
       inkscape:collect="always"
       xlink:href="#linearGradient4719-5"
       id="linearGradient4044"
       gradientUnits="userSpaceOnUse"
       gradientTransform="matrix(-2.4055369,0,0,-1.6485021,142.06168,1726.5307)"
       x1="-145.25935"
       y1="984.24286"
       x2="-64.14286"
       y2="984.14789" />
    <radialGradient
       inkscape:collect="always"
       xlink:href="#linearGradient4801-8"
       id="radialGradient4046"
       gradientUnits="userSpaceOnUse"
       gradientTransform="matrix(0.74628962,-0.90897301,2.3509914,0.90648896,-1165.637,-827.11785)"
       cx="-307.14288"
       cy="782.36218"
       fx="-307.14288"
       fy="782.36218"
       r="63" />
    <inkscape:path-effect
       effect="spiro"
       id="path-effect10102-7"
       is_visible="true" />
    <linearGradient
       inkscape:collect="always"
       xlink:href="#linearGradient4719-5"
       id="linearGradient4049"
       gradientUnits="userSpaceOnUse"
       gradientTransform="matrix(2.334989,0,0,-1.6146975,449.44065,1692.189)"
       x1="-145.25935"
       y1="984.24286"
       x2="-64.14286"
       y2="984.14789" />
    <radialGradient
       inkscape:collect="always"
       xlink:href="#linearGradient4801-8"
       id="radialGradient4051"
       gradientUnits="userSpaceOnUse"
       gradientTransform="matrix(-0.72440295,-0.89033332,-2.2820431,0.88790031,1718.7881,-809.09364)"
       cx="-307.14288"
       cy="782.36218"
       fx="-307.14288"
       fy="782.36218"
       r="63" />
    <inkscape:path-effect
       is_visible="true"
       id="path-effect10096-8"
       effect="spiro" />
    <linearGradient
       inkscape:collect="always"
       xlink:href="#linearGradient4719-5"
       id="linearGradient4054"
       gradientUnits="userSpaceOnUse"
       gradientTransform="matrix(-2.409599,0,0,2.2818507,139.61083,-1810.8163)"
       x1="-145.25935"
       y1="984.24286"
       x2="-64.14286"
       y2="984.14789" />
    <radialGradient
       inkscape:collect="always"
       xlink:href="#linearGradient4801-8"
       id="radialGradient4056"
       gradientUnits="userSpaceOnUse"
       gradientTransform="matrix(0.74754985,1.2581972,2.3549614,-1.2547588,-1170.296,1723.935)"
       cx="-307.14288"
       cy="782.36218"
       fx="-307.14288"
       fy="782.36218"
       r="63" />
    <inkscape:path-effect
       is_visible="true"
       id="path-effect10090-3"
       effect="spiro" />
    <inkscape:path-effect
       effect="spiro"
       id="path-effect10084-1"
       is_visible="true" />
    <inkscape:path-effect
       effect="spiro"
       id="path-effect10082-1"
       is_visible="true" />
    <radialGradient
       inkscape:collect="always"
       xlink:href="#linearGradient4801-8"
       id="radialGradient4061"
       gradientUnits="userSpaceOnUse"
       gradientTransform="matrix(-0.76516322,1.2901254,-2.4104477,-1.2865998,1806.8444,1757.4704)"
       cx="-307.14288"
       cy="782.36218"
       fx="-307.14288"
       fy="782.36218"
       r="63" />
    <inkscape:path-effect
       effect="spiro"
       id="path-effect10080-4"
       is_visible="true" />
    <inkscape:path-effect
       is_visible="true"
       id="path-effect3075-1"
       effect="spiro" />
    <inkscape:path-effect
       effect="spiro"
       id="path-effect3101-7"
       is_visible="true" />
    <linearGradient
       inkscape:collect="always"
       xlink:href="#grad1-7-7"
       id="linearGradient3085-8-8"
       gradientUnits="userSpaceOnUse"
       gradientTransform="matrix(0.77469594,0,0,0.30982404,152.68996,-13.619206)"
       x1="78.877235"
       y1="178.07356"
       x2="301.40585"
       y2="178.07356" />
    <linearGradient
       id="grad1-7-7"
       x1="78.877235"
       y1="178.07356"
       x2="301.40585"
       y2="178.07356"
       gradientTransform="scale(1.577772,0.63380513)"
       gradientUnits="userSpaceOnUse">
      <stop
         offset="0%"
         style="stop-color:#da0;"
         id="stop16-4-4" />
      <stop
         offset="40%"
         style="stop-color:#fd0;"
         id="stop18-0-0" />
      <stop
         offset="60%"
         style="stop-color:#fd0;"
         id="stop20-9-9" />
      <stop
         offset="100%"
         style="stop-color:#da0;"
         id="stop22-4-4" />
    </linearGradient>
    <linearGradient
       inkscape:collect="always"
       xlink:href="#grad1-7-7"
       id="linearGradient3081-8-8"
       gradientUnits="userSpaceOnUse"
       gradientTransform="matrix(0.77469594,0,0,0.30982404,-27.310046,-13.619206)"
       x1="78.877235"
       y1="178.07356"
       x2="301.40585"
       y2="178.07356" />
    <linearGradient
       id="linearGradient3093"
       x1="78.877235"
       y1="178.07356"
       x2="301.40585"
       y2="178.07356"
       gradientTransform="scale(1.577772,0.63380513)"
       gradientUnits="userSpaceOnUse">
      <stop
         offset="0%"
         style="stop-color:#da0;"
         id="stop3095" />
      <stop
         offset="40%"
         style="stop-color:#fd0;"
         id="stop3097" />
      <stop
         offset="60%"
         style="stop-color:#fd0;"
         id="stop3099" />
      <stop
         offset="100%"
         style="stop-color:#da0;"
         id="stop3101" />
    </linearGradient>
    <linearGradient
       y2="178.07356"
       x2="301.40585"
       y1="178.07356"
       x1="78.877235"
       gradientTransform="matrix(0.77469594,0,0,0.30982404,332.68995,-13.619206)"
       gradientUnits="userSpaceOnUse"
       id="linearGradient3128-1"
       xlink:href="#grad1-7-7"
       inkscape:collect="always" />
    <linearGradient
       id="linearGradient3104"
       x1="78.877235"
       y1="178.07356"
       x2="301.40585"
       y2="178.07356"
       gradientTransform="scale(1.577772,0.63380513)"
       gradientUnits="userSpaceOnUse">
      <stop
         offset="0%"
         style="stop-color:#da0;"
         id="stop3106" />
      <stop
         offset="40%"
         style="stop-color:#fd0;"
         id="stop3108" />
      <stop
         offset="60%"
         style="stop-color:#fd0;"
         id="stop3110" />
      <stop
         offset="100%"
         style="stop-color:#da0;"
         id="stop3112" />
    </linearGradient>
  </defs>
  <g
     inkscape:groupmode="layer"
     id="layer2"
     inkscape:label="Elements"
     style="display:inline">
    <path
       inkscape:connector-curvature="0"
       style="fill:#ffffff;fill-opacity:1;stroke:none;display:inline"
       id="path7212"
       d="m 2,2 0,257 c 0,286 298,398 298,398 0,0 298,-112 298,-398 L 598,2 z" />
    <path
       inkscape:connector-curvature="0"
       style="fill:#cc0000"
       d="m 52,52 0,207 C 52,471.45202 241.33706,575.38932 300,602.53125 358.66294,575.38932 548,471.45202 548,259 L 548,52 52,52 z m 16.65625,16.65625 462.6875,0 0,190.34375 c 0,101.27495 -44.71121,175.86767 -97.25,229.625 C 385.38595,538.46248 330.27501,569.36739 300,584.03125 269.72499,569.36739 214.61405,538.46248 165.90625,488.625 113.36746,434.86767 68.65625,360.27495 68.65625,259 l 0,-190.34375 z"
       id="path3032" />
    <path
       inkscape:connector-curvature="0"
       style="fill:#cc0000"
       d="m 85.34375,85.34375 0,16.65625 0,157 c 0,96.17322 42.24208,166.54518 92.5,217.96875 39.5448,40.46198 83.89243,68.12218 114.3125,84.34375 L 300,565.5 l 7.84375,-4.1875 c 30.42007,-16.22158 74.7677,-43.88177 114.3125,-84.34375 50.25792,-51.42357 92.5,-121.79553 92.5,-217.96875 l 0,-173.65625 -429.3125,0 z M 102,102 l 396,0 0,157 c 0,91.37269 -39.46795,156.91064 -87.75,206.3125 C 372.42043,504.01947 329.38708,530.95427 300,546.625 270.61292,530.95428 227.57957,504.01947 189.75,465.3125 141.46795,415.91064 102,350.37269 102,259 l 0,-157 z"
       id="path3036" />
    <g
       transform="matrix(1.5436431,0,0,1.5436431,138.18233,117.13865)"
       id="layer1-1"
       style="fill:#cc0000">
      <g
         transform="translate(-226.1081,-212.891)"
         id="g10963"
         style="fill:#cc0000">
        <path
           inkscape:connector-curvature="0"
           d="m 337.05344,245.24768 c -30.65998,30.77312 -30.70742,83.32348 0,114.36641 30.20644,-30.99743 30.95608,-84.74482 0,-114.36641 z"
           style="fill:#cc0000;fill-opacity:1;fill-rule:evenodd;stroke:#000000;stroke-width:1.2956363;stroke-linecap:butt;stroke-linejoin:miter;stroke-miterlimit:4;stroke-opacity:1;stroke-dasharray:none"
           id="path2791" />
        <g
           id="g10944"
           style="fill:#cc0000">
          <path
             inkscape:connector-curvature="0"
             d="m 345.61831,284.29349 a 9.320611,9.320611 0 1 1 -18.64122,0 9.320611,9.320611 0 1 1 18.64122,0 z"
             transform="translate(11.4045,-24.94891)"
             style="fill:#cc0000;fill-opacity:1;fill-rule:evenodd;stroke:#000000;stroke-width:1.2956363;stroke-miterlimit:4;stroke-opacity:1;stroke-dasharray:none"
             id="path10902" />
          <path
             inkscape:connector-curvature="0"
             d="m 345.61831,284.29349 a 9.320611,9.320611 0 1 1 -18.64122,0 9.320611,9.320611 0 1 1 18.64122,0 z"
             transform="translate(-4.983078,-28.51135)"
             style="fill:#cc0000;fill-opacity:1;fill-rule:evenodd;stroke:#000000;stroke-width:1.2956363;stroke-miterlimit:4;stroke-opacity:1;stroke-dasharray:none"
             id="path10868" />
          <path
             inkscape:connector-curvature="0"
             d="m 345.61831,284.29349 a 9.320611,9.320611 0 1 1 -18.64122,0 9.320611,9.320611 0 1 1 18.64122,0 z"
             transform="translate(-11.54457,-12.44522)"
             style="fill:#cc0000;fill-opacity:1;fill-rule:evenodd;stroke:#000000;stroke-width:1.2956363;stroke-miterlimit:4;stroke-opacity:1;stroke-dasharray:none"
             id="path3698" />
          <path
             inkscape:connector-curvature="0"
             d="m 345.61831,284.29349 a 9.320611,9.320611 0 1 1 -18.64122,0 9.320611,9.320611 0 1 1 18.64122,0 z"
             transform="translate(16.37404,-7.809172)"
             style="fill:#cc0000;fill-opacity:1;fill-rule:evenodd;stroke:#000000;stroke-width:1.2956363;stroke-miterlimit:4;stroke-opacity:1;stroke-dasharray:none"
             id="path3708" />
          <path
             inkscape:connector-curvature="0"
             d="m 345.61831,284.29349 a 9.320611,9.320611 0 1 1 -18.64122,0 9.320611,9.320611 0 1 1 18.64122,0 z"
             transform="translate(2.519084,-18.64122)"
             style="fill:#cc0000;fill-opacity:1;fill-rule:evenodd;stroke:#000000;stroke-width:1.2956363;stroke-miterlimit:4;stroke-opacity:1;stroke-dasharray:none"
             id="path3688" />
          <path
             inkscape:connector-curvature="0"
             d="m 345.61831,284.29349 a 9.320611,9.320611 0 1 1 -18.64122,0 9.320611,9.320611 0 1 1 18.64122,0 z"
             transform="translate(16.87791,8.816789)"
             style="fill:#cc0000;fill-opacity:1;fill-rule:evenodd;stroke:#000000;stroke-width:1.2956363;stroke-miterlimit:4;stroke-opacity:1;stroke-dasharray:none"
             id="path3706" />
          <path
             inkscape:connector-curvature="0"
             d="m 345.61831,284.29349 a 9.320611,9.320611 0 1 1 -18.64122,0 9.320611,9.320611 0 1 1 18.64122,0 z"
             transform="translate(2.519084,1.374046e-6)"
             style="fill:#cc0000;fill-opacity:1;fill-rule:evenodd;stroke:#000000;stroke-width:1.2956363;stroke-miterlimit:4;stroke-opacity:1;stroke-dasharray:none"
             id="path3690" />
          <path
             inkscape:connector-curvature="0"
             d="m 345.61831,284.29349 a 9.320611,9.320611 0 1 1 -18.64122,0 9.320611,9.320611 0 1 1 18.64122,0 z"
             transform="translate(0.755686,17.88549)"
             style="fill:#cc0000;fill-opacity:1;fill-rule:evenodd;stroke:#000000;stroke-width:1.2956363;stroke-miterlimit:4;stroke-opacity:1;stroke-dasharray:none"
             id="path3692" />
          <path
             inkscape:connector-curvature="0"
             d="m 345.61831,284.29349 a 9.320611,9.320611 0 1 1 -18.64122,0 9.320611,9.320611 0 1 1 18.64122,0 z"
             transform="translate(-0.755747,36.52671)"
             style="fill:#cc0000;fill-opacity:1;fill-rule:evenodd;stroke:#000000;stroke-width:1.2956363;stroke-miterlimit:4;stroke-opacity:1;stroke-dasharray:none"
             id="path3694" />
          <path
             inkscape:connector-curvature="0"
             d="m 345.61831,284.29349 a 9.320611,9.320611 0 1 1 -18.64122,0 9.320611,9.320611 0 1 1 18.64122,0 z"
             transform="translate(16.87789,26.95419)"
             style="fill:#cc0000;fill-opacity:1;fill-rule:evenodd;stroke:#000000;stroke-width:1.2956363;stroke-miterlimit:4;stroke-opacity:1;stroke-dasharray:none"
             id="path3710" />
          <path
             inkscape:connector-curvature="0"
             d="m 345.61831,284.29349 a 9.320611,9.320611 0 1 1 -18.64122,0 9.320611,9.320611 0 1 1 18.64122,0 z"
             transform="translate(-12.98305,61.67677)"
             style="fill:#cc0000;fill-opacity:1;fill-rule:evenodd;stroke:#000000;stroke-width:1.2956363;stroke-miterlimit:4;stroke-opacity:1;stroke-dasharray:none"
             id="path10904" />
          <path
             inkscape:connector-curvature="0"
             d="m 345.61831,284.29349 a 9.320611,9.320611 0 1 1 -18.64122,0 9.320611,9.320611 0 1 1 18.64122,0 z"
             transform="translate(9.979512,62.6892)"
             style="fill:#cc0000;fill-opacity:1;fill-rule:evenodd;stroke:#000000;stroke-width:1.2956363;stroke-miterlimit:4;stroke-opacity:1;stroke-dasharray:none"
             id="path10866" />
          <path
             inkscape:connector-curvature="0"
             d="m 345.61831,284.29349 a 9.320611,9.320611 0 1 1 -18.64122,0 9.320611,9.320611 0 1 1 18.64122,0 z"
             transform="translate(15.87021,45.59541)"
             style="fill:#cc0000;fill-opacity:1;fill-rule:evenodd;stroke:#000000;stroke-width:1.2956363;stroke-miterlimit:4;stroke-opacity:1;stroke-dasharray:none"
             id="path3712" />
          <path
             inkscape:connector-curvature="0"
             d="m 345.61831,284.29349 a 9.320611,9.320611 0 1 1 -18.64122,0 9.320611,9.320611 0 1 1 18.64122,0 z"
             transform="translate(-15.36638,5.793881)"
             style="fill:#cc0000;fill-opacity:1;fill-rule:evenodd;stroke:#000000;stroke-width:1.2956363;stroke-miterlimit:4;stroke-opacity:1;stroke-dasharray:none"
             id="path3700" />
          <path
             inkscape:connector-curvature="0"
             d="m 345.61831,284.29349 a 9.320611,9.320611 0 1 1 -18.64122,0 9.320611,9.320611 0 1 1 18.64122,0 z"
             transform="translate(-16.37407,24.93893)"
             style="fill:#cc0000;fill-opacity:1;fill-rule:evenodd;stroke:#000000;stroke-width:1.2956363;stroke-miterlimit:4;stroke-opacity:1;stroke-dasharray:none"
             id="path3702" />
          <path
             inkscape:connector-curvature="0"
             d="m 345.61831,284.29349 a 9.320611,9.320611 0 1 1 -18.64122,0 9.320611,9.320611 0 1 1 18.64122,0 z"
             transform="translate(-18.8931,43.58014)"
             style="fill:#cc0000;fill-opacity:1;fill-rule:evenodd;stroke:#000000;stroke-width:1.2956363;stroke-miterlimit:4;stroke-opacity:1;stroke-dasharray:none"
             id="path3704" />
          <path
             inkscape:connector-curvature="0"
             d="m 345.61831,284.29349 a 9.320611,9.320611 0 1 1 -18.64122,0 9.320611,9.320611 0 1 1 18.64122,0 z"
             transform="translate(-2.770965,54.1603)"
             style="fill:#cc0000;fill-opacity:1;fill-rule:evenodd;stroke:#000000;stroke-width:1.2956363;stroke-miterlimit:4;stroke-opacity:1;stroke-dasharray:none"
             id="path3696" />
        </g>
        <path
           inkscape:connector-curvature="0"
           d="m 339.5625,215.53125 c -6.79805,5.08924 -13.37259,10.22038 -13.59375,16.625 -2.40137,-3.92702 -9.51039,-8.89668 -22.65625,-4.03125 4.5734,5.52478 9.26967,9.36291 13.71875,18.375 -23.78326,8.12868 -40.90626,30.66368 -40.90625,57.1875 0,33.35893 27.07857,60.43751 60.4375,60.4375 33.35893,0 60.40626,-27.07857 60.40625,-60.4375 0,-25.59306 -15.92988,-47.47339 -38.40625,-56.28125 4.0495,-6.25312 10.01539,-10.86648 16.78125,-14.75 -6.90391,-4.05006 -14.60699,-5.31805 -24.1875,0 0.83119,-7.27452 -4.41466,-12.52057 -11.59375,-17.125 z m -2.75,29.96875 c 0.1777,0.004 0.35332,-0.005 0.53125,0 30.68104,29.67524 29.83697,83.21808 -0.28125,114.125 -30.62402,-30.95861 -30.66086,-83.31776 -0.25,-114.125 z"
           style="fill:#cc0000;fill-opacity:1;fill-rule:evenodd;stroke:#000000;stroke-width:1.2956363;stroke-miterlimit:4;stroke-opacity:1;stroke-dasharray:none"
           id="path1900" />
        <path
           inkscape:connector-curvature="0"
           d="m 228.22901,319.30875 c 2.7988,70.08533 30.28642,100.53861 84.1374,88.67175 1.73511,-16.04915 -2.3534,-32.85791 -31.23664,-52.90076 -7.3575,-3.32103 -13.65788,-6.37778 -19.07384,-9.21342 -22.05496,-11.54735 -29.44353,-19.42811 -33.82692,-26.55757 z"
           style="fill:#cc0000;fill-opacity:1;fill-rule:evenodd;stroke:#000000;stroke-width:1.2956363;stroke-linecap:butt;stroke-linejoin:miter;stroke-miterlimit:4;stroke-opacity:1;stroke-dasharray:none"
           id="path8194" />
        <path
           inkscape:connector-curvature="0"
           d="m 351.16031,405.96524 c -1.84895,-14.1066 -0.86381,-27.84586 23.17557,-45.84733 12.40602,-8.66844 24.20438,-15.51393 35.26717,-20.15267 13.06473,-7.05344 19.47621,-14.10687 23.17558,-21.16031 10.23241,94.12495 -78.03964,102.27988 -81.61832,87.16031 z"
           style="fill:#cc0000;fill-opacity:1;fill-rule:evenodd;stroke:#000000;stroke-width:1.2956363;stroke-linecap:butt;stroke-linejoin:miter;stroke-miterlimit:4;stroke-opacity:1;stroke-dasharray:none"
           id="path9081" />
        <path
           inkscape:connector-curvature="0"
           d="m 327.48092,363.64463 c 2.44373,25.49372 -0.18754,37.45408 -1.51145,52.90076 -21.61648,-23.54099 -35.10172,-29.19324 -50.38168,-38.79389 -14.97168,-8.78997 -24.4241,-19.78761 -32.7481,-31.23665 9.11789,15.91161 23.4066,28.32794 36.27481,36.77863 l 17.12977,14.10687 c 21.14145,17.60196 35.77083,36.58528 13.09924,63.48092 13.26845,-1.95505 25.50311,-7.35605 34.76336,-22.67176 -14.05385,-17.29771 19.97575,-36.10687 35.26718,-51.38931 13.23184,-8.99803 28.25173,-23.08363 46.85496,-42.82443 -14.81831,13.98168 -29.16206,28.12155 -47.8626,40.80916 -10.89182,7.71066 -20.48821,14.64407 -37.78626,26.19847 4.00914,-15.78626 3.30167,-31.57251 2.01527,-47.35877 l -15.1145,0 z"
           style="fill:#cc0000;fill-opacity:1;fill-rule:evenodd;stroke:#000000;stroke-width:1.2956363;stroke-linecap:butt;stroke-linejoin:miter;stroke-miterlimit:4;stroke-opacity:1;stroke-dasharray:none"
           id="path6419" />
      </g>
    </g>
  </g>
  <g
     inkscape:groupmode="layer"
     id="layer1"
     inkscape:label="Cover"
     style="display:inline"
     sodipodi:insensitive="true">
    <path
       d="m 2,2 v 257 c 0,286 298,398 298,398 0,0 298,-112 298,-398 V 2 z"
       id="shine"
       inkscape:connector-curvature="0"
       style="fill:url(#radialGradient3074);stroke:#000000;stroke-width:3" />
  </g>
</svg>
