<?xml version="1.0" encoding="UTF-8"?>
<svg xmlns="http://www.w3.org/2000/svg" xmlns:xlink="http://www.w3.org/1999/xlink" width="600" height="660">
<defs>
  <radialGradient id="rg" gradientUnits="userSpaceOnUse" cx="220" cy="220" r="405">
    <stop style="stop-color:#fff;stop-opacity:.3" offset="0"/>
    <stop style="stop-color:#fff;stop-opacity:.2" offset=".2"/>
    <stop style="stop-color:#666;stop-opacity:.1" offset=".6"/>
    <stop style="stop-color:#000;stop-opacity:.13" offset="1"/>
  </radialGradient>
  <clipPath id="clip-shield">
    <path id="shield" d="m2,2v257c0,286 298,398 298,398c0,0 298-112 298-398V2z"/>
  </clipPath>
  <path id="foot" style="fill:#ffffff" d="m 305.14,190.52 c -1.41,-0.87 -3.8,-3.1 -5,-5.15 -3.61,-6.14 -3.9,-15.8 -1.11,-22.38 1.51,-3.56 6.25,-5.82 10.69,-5.82 4.87,0 10.77,5.64 12.46,11.9 4,14.86 -6.46,28.02 -17.04,21.45 z m -24.44,6.93 c -6.83,-1.66 -10.62,-12.28 -6.93,-19.41 1.83,-3.54 7.72,-6.77 11.21,-5.39 8.27,3.27 12.64,15.54 6.15,22.44 -2.92,3.1 -5.47,3.57 -10.43,2.36 z m 61.2,0.69 c -7.12,-3.86 -11.84,-13.06 -13.69,-26.74 -1.41,-10.37 1.34,-15.73 9.25,-18.06 5,-1.48 8.62,-0.86 13.71,2.36 7.69,4.85 11.13,12.02 11.26,23.39 0.1,8.21 -2.15,14.84 -6.25,18.56 -2.97,2.68 -9.8,2.92 -14.28,0.49 z m -84.7,6.18 c -5.09,-5.09 -4.88,-13.22 0.42,-16.69 5.12,-3.35 12.27,1 13.56,8.26 1.68,9.45 -7.46,14.95 -13.98,8.43 z m -16.3,15.27 c -2.85,-2.85 -4.3,-7.96 -3.22,-11.35 0.36,-1.15 2.03,-2.8 3.7,-3.66 3.86,-2 8.24,-0.45 10.37,3.68 3.1,6 0.76,12.13 -5.12,13.35 -2.49,0.52 -3.58,0.13 -5.73,-2.02 z m 44.38,226.78 c -7.81,-2.18 -11.65,-4.92 -15.86,-11.32 -9.29,-14.12 -11.05,-18.7 -10.8,-51.65 0.18,-22.78 -0.14,-44.38 -6.45,-66 -1.76,-6.05 -4.53,-14.82 -6.18,-19.5 -6.5,-18.5 -7.16,-21.73 -7.15,-35 0,-11.42 0.26,-13.1 2.87,-19.5 5.03,-12.35 8.6,-16.65 20.49,-24.72 22.61,-15.33 36.24,-20.11 57.5,-20.12 9.63,0 13.23,0.42 18.22,2.12 11.68,3.99 17.98,8.87 22.01,17.07 2.57,5.24 2.76,6.53 2.74,17.65 0,10.37 -0.38,13.05 -2.69,19.72 -3.8,11 -3.55,10.87 -13.78,22.16 -10.37,11.44 -29.78,16.33 -30.48,48.34 -0.3,14 4.59,31.82 12.53,58.39 4.63,15.5 1.31,37.24 -6.22,49.11 -3.5,5.51 -8.87,10.48 -13.34,12.35 -5.17,2.16 -17.24,2.63 -23.41,0.9 z"/>
</defs>
<use id="shine" xlink:href="#shield" fill="#654321"/>
<g clip-path="url(#clip-shield)">
  <use xlink:href="#foot" transform="matrix(-0.31426,-0.31426,-0.31426,0.31426,512.95,324.39)" />
  <use xlink:href="#foot" transform="matrix(0.31426,0.31426,-0.31426,0.31426,346.32,16.345)" />
  <use xlink:href="#foot" transform="matrix(-0.31426,-0.31426,-0.31426,0.31426,654.37,182.97)" />
  <use xlink:href="#foot" transform="matrix(0.31426,0.31426,-0.31426,0.31426,487.74,-125.08)" />
  <use xlink:href="#foot" transform="matrix(-0.31426,-0.31426,-0.31426,0.31426,795.79,41.547)" />
  <use xlink:href="#foot" transform="matrix(0.31426,0.31426,-0.31426,0.31426,204.9,157.76)" />
  <use xlink:href="#foot" transform="matrix(-0.31426,-0.31426,-0.31426,0.31426,371.52,465.81)" />
  <use xlink:href="#foot" transform="matrix(0.31426,0.31426,-0.31426,0.31426,63.481,299.18)" />
</g>
<use xlink:href="#shield" fill="url(#rg)" stroke="#000" stroke-width="3"/>
</svg>
