<?xml version="1.0" encoding="UTF-8"?>
<svg xmlns="http://www.w3.org/2000/svg" xmlns:xlink="http://www.w3.org/1999/xlink" width="600" height="660">
<defs>
  <radialGradient id="rg" gradientUnits="userSpaceOnUse" cx="220" cy="220" r="405">
    <stop style="stop-color:#fff;stop-opacity:.3" offset="0"/>
    <stop style="stop-color:#fff;stop-opacity:.2" offset=".2"/>
    <stop style="stop-color:#666;stop-opacity:.1" offset=".6"/>
    <stop style="stop-color:#000;stop-opacity:.13" offset="1"/>
  </radialGradient>
  <path id="shield" d="m2,2v257c0,286 298,398 298,398c0,0 298-112 298-398V2z"/>
</defs>
<use xlink:href="#shield" fill="#00ccff"/>
<g id="crane" style="fill:#ffdd00;stroke:#aa8800;">
  <path d="m 228.98192,442.18848 c 0.55933,0 30.63194,-20.67913 30.63194,-20.67913 l 8.66973,4.65347 -3.92359,4.73414 z" />
  <path d="m 228.98192,442.18848 39.30167,-16.02566" />
  <path d="m 299.36274,528.74108 c -1.18342,5.35861 2.914,25.89598 1.43021,27.9292 1.35863,5.21541 -5.11954,6.87754 -8.71655,3.43223 l -21.70741,-6.96733 c -1.61083,0.51494 -3.16311,0.88348 -4.543,0.82106 0.54882,-0.66269 1.44789,-1.32538 0.90708,-1.98807 -1.65513,-0.2791 -3.05697,0.18551 -4.15287,1.54847 -0.64457,5.50685 -1.32571,9.20683 -2.85049,7.13217 0,0 0.16382,-5.60516 -0.0339,-6.57296 -3.54809,-7.194 -9.36116,-7.80586 -17.36444,-6.87822 -6.1089,-2.16768 13.35325,-3.33509 16.63859,-3.50688 2.06531,-0.0674 4.38892,0.53613 7.73153,1.96314 9.27212,3.95838 23.12993,11.32193 28.41153,10.7976 0.751,-0.0746 0.72684,-1.35418 1.12568,-1.75415 -0.0298,-9.35669 -0.5722,-18.06927 -3.15702,-26.83695 z" />
  <path d="m 289.77159,520.51482 c 0.47948,3.22598 0.69786,9.51917 4.8064,12.06082 l 0.79303,-2.61537 c 1.03907,1.72807 2.31845,3.05561 3.85026,3.96246 1.82909,-0.51851 2.9382,-5.43913 3.40443,-9.24639 z" />
  <path d="m 293.91518,602.27424 c 0.73612,-0.28973 1.72783,-1.5982 3.42089,-1.4742 3.30439,0.24202 5.19076,4.20332 9.00978,3.42682 l -6.15686,1.61201 c -1.01724,-2.09296 -2.70041,-2.07499 -3.69986,-3.12144 -0.56611,-0.59275 -1.58173,0.13654 -2.57395,-0.44319 z" />
  <path d="m 304.00999,528.54752 c 1.32859,10.42993 5.33164,21.09552 4.62841,28.98064 -0.52112,5.84316 -0.30234,5.4997 0.34925,7.66872 0.05,0.16657 1.46452,0.65437 1.41139,0.91511 -0.64574,-0.5676 -1.51868,-1.19587 -1.41139,-0.91511 0.48966,7.3221 0.15943,28.10581 -1.91245,34.77395 -1.973,1.2103 -0.49976,2.81402 -4.54837,5.03253 -10.77054,2.18147 -12.54549,-0.15672 -14.54966,1.41209 -2.23124,1.71914 -1.39591,2.32894 -0.77166,3.25099 1.24859,-1.84288 0.95042,-0.0705 1.88581,-0.15826 6.47874,-0.60786 11.00583,1.1476 14.46961,-0.24652 -1.52474,2.2194 -6.08862,5.10994 -7.26341,6.96813 -0.64242,1.42214 -0.09,1.78894 1.64195,3.10663 -0.22121,-0.74262 0.0313,-2.55516 1.27345,-2.36152 1.47552,0.7574 1.40681,0.1405 2.43244,-1.00515 2.09414,-2.23625 4.84817,-2.75011 7.20965,-4.2886 2.32241,-3.4303 1.11712,-4.6577 1.96787,-6.87135 0.63333,-2.79796 1.3093,2.18418 2.6973,2.58703 0,0 0.85536,-2.99417 0.10862,-5.20961 -0.51234,-1.52001 -2.26767,-2.40905 -1.95331,-2.95513 0.79939,-1.38859 3.36177,-32.96553 2.51892,-33.1341 2.23444,-3.66316 0.0504,-8.4075 -0.59327,-12.7749 l -1.7798,-14.32338 -0.25384,-4.555 -2.00243,-6.02915 z" />
  <path d="m 259.61386,421.50935 c 6.17369,-10.08142 23.91582,-7.3692 23.82955,6.19389 -0.12918,20.31115 -6.52532,25.82853 -8.40461,39.67961 -0.74338,5.47897 6.25014,7.8399 11.27207,7.5488 20.50025,1.11142 41.77873,7.79284 58.14574,22.66578 3.18505,2.89431 5.88294,6.81062 9.13221,10.60224 1.95517,2.28152 6.35443,4.15762 8.20817,6.5494 3.87265,4.99664 5.6499,9.8037 7.47963,14.49181 1.18257,3.02996 0.7575,5.52732 0.63388,9.64158 -0.0545,1.81314 1.10738,3.97582 1.11774,6.4047 0.005,1.19047 -0.26797,2.35828 -0.71657,3.43442 -2.59034,0.4245 -5.00892,0.0408 -6.80941,-4.17321 -1.26833,2.90018 -3.80582,-1.27965 -6.09814,-2.76547 -1.72524,2.31691 -6.25876,-2.47861 -8.47216,-3.74523 -1.0056,0.63432 -1.53824,2.63556 -7.28491,-3.63652 -1.11834,2.70099 -3.18202,-0.54438 -5.51595,-3.84001 -0.55949,3.61988 -6.38838,-0.54927 -8.04575,-1.11282 -4.14784,1.31447 -5.52898,-0.19 -7.08034,0.37895 -2.52633,0.92651 -6.74241,-0.0944 -8.92406,-1.64921 -0.60808,-0.43338 -0.39749,-1.15607 -0.59157,-2.00173 -0.49624,0.70149 2.74459,6.95715 0.0781,8.26838 l -2.53693,-1.08286 c -2.8559,-0.69328 -2.9907,-2.6234 -4.23391,-4.04971 l 0.34942,6.05805 c -2.24643,-0.24749 -4.2947,-6.07985 -5.06782,-9.4842 -0.22816,-1.00467 -0.28789,-1.74841 -0.3152,-2.13643 0.11875,1.11363 0.0769,0.91665 0.3152,2.13643 -4.04672,-1.35664 -8.71693,-2.93872 -11.21453,-4.19439 -7.98212,-4.01304 -9.2698,-7.23464 -11.62531,-9.5616 -3.45195,-3.41012 -9.08702,-7.54425 -13.90839,-14.52365 -3.89612,-5.64003 -5.97258,-12.74289 -5.85468,-18.45935 0.2102,-10.19178 7.19314,-19.0987 11.50588,-28.63224 4.18532,-9.25189 5.893,-17.51992 1.9047,-18.74678 -1.82224,-1.45137 -2.28236,1.00737 -6.52593,-0.87102 2.08798,-2.78565 2.14965,-3.58798 2.17531,-4.35508 -2.2884,-0.94877 -5.72435,-0.92954 -6.92145,-5.03253 z" />
  <path d="m 279.78493,480.15775 c -4.97681,2.14896 -6.47248,3.60211 -6.50327,9.67795 -0.0311,6.14447 4.04258,9.6718 7.69365,16.17039 2.65255,4.72134 6.5084,8.50658 11.42793,11.43735 4.93377,3.12353 10.22603,3.13344 18.15912,4.12034" />
  <path d="m 304.99403,516.79323 c 1.77136,1.93232 3.7047,3.18249 5.56833,4.77055 1.92622,1.6127 5.07923,3.65525 8.52272,5.2466 3.78678,1.74998 3.95033,0.0781 3.56538,-1.81081" />
  <path d="m 313.6928,514.68171 c 4.63611,4.94044 8.50778,11.17132 14.39255,14.76661" />
  <path d="m 329.97801,514.51449 c 1.33229,5.16877 5.56176,9.10266 6.15309,16.04665" />
  <path d="m 339.08927,522.51595 c 2.26011,4.99134 3.38803,9.84172 2.55778,11.8852" />
  <path d="m 345.03928,520.68184 c 3.1763,3.38643 5.32769,11.07261 3.89268,17.35583" />
  <path d="m 349.61222,519.63477 c 3.50809,5.82901 3.87293,10.70233 5.08645,16.03079 0.60955,2.55353 1.13666,5.05688 2.70545,6.11734" />
  <path d="m 355.40398,524.01613 c 1.4102,2.97136 5.28143,9.65672 5.75897,13.02553 0.21837,2.64259 0.81256,5.19122 2.33931,7.50671" />
  <path d="m 353.76509,514.11852 c 2.24812,5.01777 4.7103,6.03809 7.41444,9.04881 2.38681,2.6574 5.52072,5.90953 6.83529,9.76168 3.65257,10.70327 3.39738,12.52008 2.29685,15.79257" />
  <path d="m 246.17675,544.82532 c -2.27384,0.99545 -2.03492,1.64669 -0.073,2.06191" />
  <path d="m 259.78028,556.53706 c 0,2.10209 -0.5008,4.6734 -1.70532,6.41193 -0.37315,0.53858 -1.05769,0.94404 -1.18047,1.59079 -0.52531,2.7672 -2.14156,1.1903 -3.2465,1.94041 -1.43975,0.97738 -3.02196,1.70609 -4.61259,1.70609 -2.813,0 -6.13131,-1.74317 -8.1204,-3.69005 -1.9891,-1.94688 -0.34785,-5.33036 -1.75342,-7.69785 -2.11832,-3.56806 -0.472,-6.04289 2.27605,-7.69787 2.38431,-1.43593 4.52345,-2.38347 7.33645,-2.38347 2.81301,0 5.87,0.43659 7.8591,2.38347 1.98909,1.94689 3.1471,4.68323 3.1471,7.43655 z" />
  <path d="m 251.93716,567.46746 c 1.71083,-0.98727 2.16903,-2.80974 3.053,-4.83156" />
  <path style="fill:#aa8800;" d="m 271.47443,421.64312 a 1.4410176,1.3618027 0 1 1 -2.88203,0 1.4410176,1.3618027 0 1 1 2.88203,0 z" />
</g>
<use xlink:href="#crane" x="-200" y="-380"/>
<use xlink:href="#crane" x="-100" y="-190"/>
<use xlink:href="#crane" x="200" y="-380"/>
<use xlink:href="#crane" x="100" y="-190"/>
<use id="shine" xlink:href="#shield" fill="url(#rg)" stroke="#000" stroke-width="3"/>
</svg>
