<?xml version="1.0" encoding="UTF-8" standalone="no"?>
<svg
   xmlns:dc="http://purl.org/dc/elements/1.1/"
   xmlns:cc="http://creativecommons.org/ns#"
   xmlns:rdf="http://www.w3.org/1999/02/22-rdf-syntax-ns#"
   xmlns:svg="http://www.w3.org/2000/svg"
   xmlns="http://www.w3.org/2000/svg"
   xmlns:xlink="http://www.w3.org/1999/xlink"
   xmlns:sodipodi="http://sodipodi.sourceforge.net/DTD/sodipodi-0.dtd"
   xmlns:inkscape="http://www.inkscape.org/namespaces/inkscape"
   width="600"
   height="660"
   id="svg2"
   version="1.1"
   inkscape:version="0.48.2 r9819"
   sodipodi:docname="House_Roxton.svg">
  <metadata
     id="metadata24">
    <rdf:RDF>
      <cc:Work
         rdf:about="">
        <dc:format>image/svg+xml</dc:format>
        <dc:type
           rdf:resource="http://purl.org/dc/dcmitype/StillImage" />
        <dc:title></dc:title>
      </cc:Work>
    </rdf:RDF>
  </metadata>
  <sodipodi:namedview
     pagecolor="#ffffff"
     bordercolor="#666666"
     borderopacity="1"
     objecttolerance="10"
     gridtolerance="10"
     guidetolerance="10"
     inkscape:pageopacity="0"
     inkscape:pageshadow="2"
     inkscape:window-width="1366"
     inkscape:window-height="715"
     id="namedview22"
     showgrid="false"
     inkscape:zoom="1.4303031"
     inkscape:cx="206.51183"
     inkscape:cy="315.73611"
     inkscape:window-x="-8"
     inkscape:window-y="-8"
     inkscape:window-maximized="1"
     inkscape:current-layer="layer2" />
  <defs
     id="defs4">
    <inkscape:path-effect
       is_visible="true"
       id="path-effect3136"
       effect="spiro" />
    <inkscape:path-effect
       effect="spiro"
       id="path-effect3132"
       is_visible="true" />
    <inkscape:path-effect
       effect="spiro"
       id="path-effect3101"
       is_visible="true" />
    <inkscape:path-effect
       is_visible="true"
       id="path-effect3085"
       effect="spiro" />
    <inkscape:path-effect
       is_visible="true"
       id="path-effect3083"
       effect="spiro" />
    <inkscape:path-effect
       is_visible="true"
       id="path-effect3081"
       effect="spiro" />
    <inkscape:path-effect
       is_visible="true"
       id="path-effect3079"
       effect="spiro" />
    <inkscape:path-effect
       is_visible="true"
       id="path-effect3077"
       effect="spiro" />
    <inkscape:path-effect
       is_visible="true"
       id="path-effect3075"
       effect="spiro" />
    <inkscape:path-effect
       effect="spiro"
       id="path-effect3049"
       is_visible="true" />
    <inkscape:path-effect
       is_visible="true"
       id="path-effect3045"
       effect="spiro" />
    <inkscape:path-effect
       effect="spiro"
       id="path-effect3041"
       is_visible="true" />
    <radialGradient
       id="rg"
       gradientUnits="userSpaceOnUse"
       cx="220"
       cy="220"
       r="405">
      <stop
         style="stop-color:#fff;stop-opacity:.3"
         offset="0"
         id="stop7" />
      <stop
         style="stop-color:#fff;stop-opacity:.2"
         offset=".2"
         id="stop9" />
      <stop
         style="stop-color:#666;stop-opacity:.1"
         offset=".6"
         id="stop11" />
      <stop
         style="stop-color:#000;stop-opacity:.13"
         offset="1"
         id="stop13" />
    </radialGradient>
    <path
       id="shield"
       d="m2,2v257c0,286 298,398 298,398c0,0 298-112 298-398V2z" />
    <radialGradient
       inkscape:collect="always"
       xlink:href="#rg-7"
       id="radialGradient3055-1"
       gradientUnits="userSpaceOnUse"
       cx="220"
       cy="220"
       r="405" />
    <radialGradient
       id="rg-7"
       gradientUnits="userSpaceOnUse"
       cx="220"
       cy="220"
       r="405">
      <stop
         style="stop-color:#fff;stop-opacity:.3"
         offset="0"
         id="stop7-4" />
      <stop
         style="stop-color:#fff;stop-opacity:.2"
         offset=".2"
         id="stop9-0" />
      <stop
         style="stop-color:#666;stop-opacity:.1"
         offset=".6"
         id="stop11-9" />
      <stop
         style="stop-color:#000;stop-opacity:.13"
         offset="1"
         id="stop13-4" />
    </radialGradient>
    <radialGradient
       r="405"
       cy="220"
       cx="220"
       gradientUnits="userSpaceOnUse"
       id="radialGradient3074"
       xlink:href="#rg-7"
       inkscape:collect="always" />
    <inkscape:path-effect
       is_visible="true"
       id="path-effect10120-1"
       effect="spiro" />
    <inkscape:path-effect
       effect="spiro"
       id="path-effect10118-3"
       is_visible="true" />
    <inkscape:path-effect
       effect="spiro"
       id="path-effect10116-9"
       is_visible="true" />
    <inkscape:path-effect
       effect="spiro"
       id="path-effect10114-7"
       is_visible="true" />
    <inkscape:path-effect
       effect="spiro"
       id="path-effect10112-7"
       is_visible="true" />
    <inkscape:path-effect
       effect="spiro"
       id="path-effect10110-2"
       is_visible="true" />
    <linearGradient
       inkscape:collect="always"
       xlink:href="#linearGradient4719-5"
       id="linearGradient4039"
       gradientUnits="userSpaceOnUse"
       gradientTransform="matrix(2.3257341,0,0,2.2943177,447.69485,-1820.2799)"
       x1="-145.25935"
       y1="984.24286"
       x2="-64.14286"
       y2="984.14789" />
    <linearGradient
       inkscape:collect="always"
       id="linearGradient4719-5">
      <stop
         style="stop-color:#666666;stop-opacity:1;"
         offset="0"
         id="stop4721-5" />
      <stop
         id="stop4809-1"
         offset="0.39344174"
         style="stop-color:#666666;stop-opacity:0.74901961;" />
      <stop
         style="stop-color:#666666;stop-opacity:0;"
         offset="1"
         id="stop4723-7" />
    </linearGradient>
    <radialGradient
       inkscape:collect="always"
       xlink:href="#linearGradient4801-8"
       id="radialGradient4041"
       gradientUnits="userSpaceOnUse"
       gradientTransform="matrix(-0.72153181,1.2650715,-2.2729984,-1.2616144,1712.0113,1733.7841)"
       cx="-307.14288"
       cy="782.36218"
       fx="-307.14288"
       fy="782.36218"
       r="63" />
    <linearGradient
       inkscape:collect="always"
       id="linearGradient4801-8">
      <stop
         style="stop-color:#000000;stop-opacity:1;"
         offset="0"
         id="stop4803-2" />
      <stop
         style="stop-color:#000000;stop-opacity:0;"
         offset="1"
         id="stop4805-4" />
    </linearGradient>
    <inkscape:path-effect
       effect="spiro"
       id="path-effect10108-4"
       is_visible="true" />
    <linearGradient
       inkscape:collect="always"
       xlink:href="#linearGradient4719-5"
       id="linearGradient4044"
       gradientUnits="userSpaceOnUse"
       gradientTransform="matrix(-2.4055369,0,0,-1.6485021,142.06168,1726.5307)"
       x1="-145.25935"
       y1="984.24286"
       x2="-64.14286"
       y2="984.14789" />
    <radialGradient
       inkscape:collect="always"
       xlink:href="#linearGradient4801-8"
       id="radialGradient4046"
       gradientUnits="userSpaceOnUse"
       gradientTransform="matrix(0.74628962,-0.90897301,2.3509914,0.90648896,-1165.637,-827.11785)"
       cx="-307.14288"
       cy="782.36218"
       fx="-307.14288"
       fy="782.36218"
       r="63" />
    <inkscape:path-effect
       effect="spiro"
       id="path-effect10102-7"
       is_visible="true" />
    <linearGradient
       inkscape:collect="always"
       xlink:href="#linearGradient4719-5"
       id="linearGradient4049"
       gradientUnits="userSpaceOnUse"
       gradientTransform="matrix(2.334989,0,0,-1.6146975,449.44065,1692.189)"
       x1="-145.25935"
       y1="984.24286"
       x2="-64.14286"
       y2="984.14789" />
    <radialGradient
       inkscape:collect="always"
       xlink:href="#linearGradient4801-8"
       id="radialGradient4051"
       gradientUnits="userSpaceOnUse"
       gradientTransform="matrix(-0.72440295,-0.89033332,-2.2820431,0.88790031,1718.7881,-809.09364)"
       cx="-307.14288"
       cy="782.36218"
       fx="-307.14288"
       fy="782.36218"
       r="63" />
    <inkscape:path-effect
       is_visible="true"
       id="path-effect10096-8"
       effect="spiro" />
    <linearGradient
       inkscape:collect="always"
       xlink:href="#linearGradient4719-5"
       id="linearGradient4054"
       gradientUnits="userSpaceOnUse"
       gradientTransform="matrix(-2.409599,0,0,2.2818507,139.61083,-1810.8163)"
       x1="-145.25935"
       y1="984.24286"
       x2="-64.14286"
       y2="984.14789" />
    <radialGradient
       inkscape:collect="always"
       xlink:href="#linearGradient4801-8"
       id="radialGradient4056"
       gradientUnits="userSpaceOnUse"
       gradientTransform="matrix(0.74754985,1.2581972,2.3549614,-1.2547588,-1170.296,1723.935)"
       cx="-307.14288"
       cy="782.36218"
       fx="-307.14288"
       fy="782.36218"
       r="63" />
    <inkscape:path-effect
       is_visible="true"
       id="path-effect10090-3"
       effect="spiro" />
    <inkscape:path-effect
       effect="spiro"
       id="path-effect10084-1"
       is_visible="true" />
    <inkscape:path-effect
       effect="spiro"
       id="path-effect10082-1"
       is_visible="true" />
    <radialGradient
       inkscape:collect="always"
       xlink:href="#linearGradient4801-8"
       id="radialGradient4061"
       gradientUnits="userSpaceOnUse"
       gradientTransform="matrix(-0.76516322,1.2901254,-2.4104477,-1.2865998,1806.8444,1757.4704)"
       cx="-307.14288"
       cy="782.36218"
       fx="-307.14288"
       fy="782.36218"
       r="63" />
    <inkscape:path-effect
       effect="spiro"
       id="path-effect10080-4"
       is_visible="true" />
    <inkscape:path-effect
       is_visible="true"
       id="path-effect3075-1"
       effect="spiro" />
    <inkscape:path-effect
       effect="spiro"
       id="path-effect3101-7"
       is_visible="true" />
    <linearGradient
       inkscape:collect="always"
       xlink:href="#grad1-7-7"
       id="linearGradient3085-8-8"
       gradientUnits="userSpaceOnUse"
       gradientTransform="matrix(0.77469594,0,0,0.30982404,152.68996,-13.619206)"
       x1="78.877235"
       y1="178.07356"
       x2="301.40585"
       y2="178.07356" />
    <linearGradient
       id="grad1-7-7"
       x1="78.877235"
       y1="178.07356"
       x2="301.40585"
       y2="178.07356"
       gradientTransform="scale(1.577772,0.63380513)"
       gradientUnits="userSpaceOnUse">
      <stop
         offset="0%"
         style="stop-color:#da0;"
         id="stop16-4-4" />
      <stop
         offset="40%"
         style="stop-color:#fd0;"
         id="stop18-0-0" />
      <stop
         offset="60%"
         style="stop-color:#fd0;"
         id="stop20-9-9" />
      <stop
         offset="100%"
         style="stop-color:#da0;"
         id="stop22-4-4" />
    </linearGradient>
    <linearGradient
       inkscape:collect="always"
       xlink:href="#grad1-7-7"
       id="linearGradient3081-8-8"
       gradientUnits="userSpaceOnUse"
       gradientTransform="matrix(0.77469594,0,0,0.30982404,-27.310046,-13.619206)"
       x1="78.877235"
       y1="178.07356"
       x2="301.40585"
       y2="178.07356" />
    <linearGradient
       id="linearGradient3093"
       x1="78.877235"
       y1="178.07356"
       x2="301.40585"
       y2="178.07356"
       gradientTransform="scale(1.577772,0.63380513)"
       gradientUnits="userSpaceOnUse">
      <stop
         offset="0%"
         style="stop-color:#da0;"
         id="stop3095" />
      <stop
         offset="40%"
         style="stop-color:#fd0;"
         id="stop3097" />
      <stop
         offset="60%"
         style="stop-color:#fd0;"
         id="stop3099" />
      <stop
         offset="100%"
         style="stop-color:#da0;"
         id="stop3101" />
    </linearGradient>
    <linearGradient
       y2="178.07356"
       x2="301.40585"
       y1="178.07356"
       x1="78.877235"
       gradientTransform="matrix(0.77469594,0,0,0.30982404,332.68995,-13.619206)"
       gradientUnits="userSpaceOnUse"
       id="linearGradient3128-1"
       xlink:href="#grad1-7-7"
       inkscape:collect="always" />
    <linearGradient
       id="linearGradient3104"
       x1="78.877235"
       y1="178.07356"
       x2="301.40585"
       y2="178.07356"
       gradientTransform="scale(1.577772,0.63380513)"
       gradientUnits="userSpaceOnUse">
      <stop
         offset="0%"
         style="stop-color:#da0;"
         id="stop3106" />
      <stop
         offset="40%"
         style="stop-color:#fd0;"
         id="stop3108" />
      <stop
         offset="60%"
         style="stop-color:#fd0;"
         id="stop3110" />
      <stop
         offset="100%"
         style="stop-color:#da0;"
         id="stop3112" />
    </linearGradient>
  </defs>
  <g
     inkscape:groupmode="layer"
     id="layer2"
     inkscape:label="Elements"
     style="display:inline">
    <path
       inkscape:connector-curvature="0"
       style="fill:#0088ee;fill-opacity:1;stroke:none;display:inline"
       id="path7212"
       d="m 2,2 0,257 c 0,286 298,398 298,398 0,0 298,-112 298,-398 L 598,2 z" />
    <path
       style="fill:#ffdd00;fill-opacity:1;fill-rule:evenodd;stroke:#000000;stroke-width:0.99999994;display:inline"
       d="M 512.71875,2 C 511.28055,7.7235968 510.5,13.706216 510.5,19.875 c 0,40.41015 32.77735,73.1875 73.1875,73.1875 4.89667,0 9.68471,-0.488434 14.3125,-1.40625 L 598,71.25 c -4.55319,1.26476 -9.35662,1.96875 -14.3125,1.96875 -29.459,0 -53.34375,-23.88475 -53.34375,-53.34375 0,-6.269811 1.10644,-12.2867127 3.09375,-17.875 l -20.71875,0 z"
       id="path3082" />
    <path
       style="fill:#ffdd00;fill-opacity:1;fill-rule:evenodd;stroke:#000000;stroke-width:0.99999994;display:inline"
       d="m 66.5625,2 c 1.987306,5.5882873 3.09375,11.605189 3.09375,17.875 0,29.459 -23.884747,53.34375 -53.34375,53.34375 C 11.356615,73.21875 6.553189,72.51476 2,71.25 L 2,91.65625 C 6.6277877,92.574066 11.415826,93.0625 16.3125,93.0625 56.722654,93.0625 89.5,60.28515 89.5,19.875 89.5,13.706216 88.719446,7.7235968 87.28125,2 L 66.5625,2 z"
       id="path3084" />
    <path
       id="path3406"
       d="m 510.59375,16.78156 c -0.0431,1.031124 -0.0937,2.052031 -0.0937,3.09375 0,5.743494 0.68595,11.325101 1.9375,16.6875 -28.8807,0.665229 -52.09375,24.27197 -52.09375,53.3125 0,29.459 23.88475,53.34375 53.34375,53.34375 29.459,0 53.34375,-23.88475 53.34375,-53.34375 0,-22.03475 -13.37487,-40.9595 -32.4375,-49.09375 -2.7407,-6.422836 -4.25,-13.482004 -4.25,-20.90625 0,-0.418473 0.0216,-0.83383 0.0312,-1.25 32.36644,7.554128 56.5,36.58334 56.5,71.25 0,40.41015 -32.77735,73.1875 -73.1875,73.1875 -40.41015,0 -73.1875,-32.77735 -73.1875,-73.1875 0,-39.36843 31.12572,-71.464416 70.09375,-73.09375 z"
       style="fill:#ffdd00;fill-opacity:1;fill-rule:evenodd;stroke:#000000;stroke-width:0.99999994;display:inline"
       inkscape:connector-curvature="0" />
    <path
       inkscape:connector-curvature="0"
       style="fill:#ffdd00;fill-opacity:1;fill-rule:evenodd;stroke:#000000;stroke-width:0.99999994;display:inline"
       d="m 440.59375,86.73468 c -0.0431,1.03113 -0.0937,2.05204 -0.0937,3.09375 0,5.7435 0.68595,11.32511 1.9375,16.68751 -28.8807,0.66522 -52.09375,24.27197 -52.09375,53.31249 0,29.459 23.88475,53.34375 53.34375,53.34375 29.459,0 53.34375,-23.88475 53.34375,-53.34375 0,-22.03475 -13.37488,-40.95949 -32.4375,-49.09374 -2.7407,-6.42284 -4.25,-13.48201 -4.25,-20.90626 0,-0.41847 0.0216,-0.83383 0.0312,-1.25 32.36644,7.55413 56.5,36.58335 56.5,71.25 0,40.41015 -32.77735,73.1875 -73.1875,73.1875 -40.41015,0 -73.1875,-32.77735 -73.1875,-73.1875 0,-39.36843 31.12572,-71.46441 70.09375,-73.09375 z"
       id="path3408" />
    <path
       inkscape:connector-curvature="0"
       style="fill:#ffdd00;fill-opacity:1;fill-rule:evenodd;stroke:#000000;stroke-width:0.99999994;display:inline"
       d="m 89.406251,16.78156 c 0.0431,1.031124 0.0937,2.052031 0.0937,3.09375 0,5.743494 -0.68595,11.325101 -1.9375,16.6875 28.880699,0.665229 52.093749,24.27197 52.093749,53.3125 0,29.459 -23.88475,53.34375 -53.343749,53.34375 -29.459,0 -53.343754,-23.88475 -53.343754,-53.34375 0,-22.03475 13.374874,-40.9595 32.437504,-49.09375 2.7407,-6.422836 4.25,-13.482004 4.25,-20.90625 0,-0.418473 -0.0217,-0.83383 -0.0312,-1.25 -32.366447,7.554128 -56.500003,36.58334 -56.500003,71.25 0,40.41015 32.777353,73.1875 73.187503,73.1875 40.410149,0 73.187499,-32.77735 73.187499,-73.1875 0,-39.36843 -31.12572,-71.464416 -70.093749,-73.09375 z"
       id="path3361" />
    <path
       id="path3382"
       d="m 159.40625,86.73468 c 0.0431,1.03113 0.0937,2.05204 0.0937,3.09375 0,5.7435 -0.68595,11.32511 -1.9375,16.68751 28.8807,0.66522 52.09375,24.27197 52.09375,53.31249 0,29.459 -23.88475,53.34375 -53.34375,53.34375 -29.459,0 -53.34375,-23.88475 -53.34375,-53.34375 0,-22.03475 13.37488,-40.95949 32.4375,-49.09374 2.7407,-6.42284 4.25,-13.48201 4.25,-20.90626 0,-0.41847 -0.0216,-0.83383 -0.0312,-1.25 -32.36644,7.55413 -56.499999,36.58335 -56.499999,71.25 0,40.41015 32.777349,73.1875 73.187499,73.1875 40.41015,0 73.1875,-32.77735 73.1875,-73.1875 0,-39.36843 -31.12572,-71.46441 -70.09375,-73.09375 z"
       style="fill:#ffdd00;fill-opacity:1;fill-rule:evenodd;stroke:#000000;stroke-width:0.99999994;display:inline"
       inkscape:connector-curvature="0" />
    <path
       inkscape:connector-curvature="0"
       style="fill:#ffdd00;fill-opacity:1;fill-rule:evenodd;stroke:#000000;stroke-width:0.99999994;display:inline"
       d="m 229.40625,156.75 c 0.0431,1.03112 0.0937,2.05203 0.0937,3.09375 0,5.74349 -0.68595,11.3251 -1.9375,16.6875 27.47902,0.63293 49.80172,22.03499 51.90625,49.125 6.30077,-1.65715 12.91402,-2.58835 19.71875,-2.65625 -3.3656,-36.17709 -33.10173,-64.71636 -69.78125,-66.25 z"
       id="path3987" />
    <path
       inkscape:connector-curvature="0"
       style="fill:#ffdd00;fill-opacity:1;fill-rule:evenodd;stroke:#000000;stroke-width:0.99999994;display:inline"
       d="m 370.59375,156.75 c -36.67952,1.53364 -66.41565,30.07291 -69.78125,66.25 6.80473,0.0679 13.41798,0.9991 19.71875,2.65625 2.10453,-27.09001 24.42723,-48.49207 51.90625,-49.125 -1.25155,-5.3624 -1.9375,-10.94401 -1.9375,-16.6875 0,-1.04172 0.0507,-2.06263 0.0937,-3.09375 z"
       id="path3985" />
    <path
       inkscape:connector-curvature="0"
       style="fill:#ffdd00;fill-opacity:1;fill-rule:evenodd;stroke:#000000;stroke-width:0.99999994;display:inline"
       d="m 209.625,158.59375 c -32.36644,7.55413 -56.5,36.58335 -56.5,71.25 0,40.41015 32.77735,73.1875 73.1875,73.1875 35.25848,0 64.68976,-24.95236 71.625,-58.15625 -7.93133,0.27348 -15.45221,2.1308 -22.28125,5.25 -7.98556,19.39482 -27.06953,33.0625 -49.34375,33.0625 -29.459,0 -53.34375,-23.88475 -53.34375,-53.34375 0,-22.03475 13.37488,-40.9595 32.4375,-49.09375 2.7407,-6.42284 4.25,-13.48201 4.25,-20.90625 0,-0.41848 -0.0216,-0.83383 -0.0312,-1.25 z"
       id="path3983" />
    <path
       inkscape:connector-curvature="0"
       style="fill:#ffdd00;fill-opacity:1;fill-rule:evenodd;stroke:#000000;stroke-width:0.99999994;display:inline"
       d="m 390.375,158.59375 c -0.01,0.41617 -0.0312,0.83152 -0.0312,1.25 0,7.42424 1.5093,14.48341 4.25,20.90625 19.06262,8.13425 32.4375,27.059 32.4375,49.09375 0,29.459 -23.88475,53.34375 -53.34375,53.34375 -22.27422,0 -41.35819,-13.66768 -49.34375,-33.0625 -6.82904,-3.1192 -14.34992,-4.97652 -22.28125,-5.25 6.93524,33.20389 36.36652,58.15625 71.625,58.15625 40.41015,0 73.1875,-32.77735 73.1875,-73.1875 0,-34.66665 -24.13356,-63.69587 -56.5,-71.25 z"
       id="path3981" />
    <path
       inkscape:connector-curvature="0"
       style="fill:#ffdd00;fill-opacity:1;fill-rule:evenodd;stroke:#000000;stroke-width:0.99999994;display:inline"
       d="m 226.3125,303.96875 c -40.41015,0 -73.1875,32.77735 -73.1875,73.1875 0,40.41015 32.77735,73.1875 73.1875,73.1875 38.09714,0 69.4152,-29.14803 72.875,-66.34375 -6.80473,-0.0679 -13.41798,-0.9991 -19.71875,-2.65625 C 277.33512,408.84811 254.3639,430.5 226.3125,430.5 c -29.459,0 -53.34375,-23.88475 -53.34375,-53.34375 0,-29.459 23.88475,-53.34375 53.34375,-53.34375 22.27422,0 41.35819,13.66768 49.34375,33.0625 6.82904,3.1192 14.34992,4.97652 22.28125,5.25 -6.93524,-33.20389 -36.36652,-58.15625 -71.625,-58.15625 z"
       id="path3967" />
    <path
       inkscape:connector-curvature="0"
       style="fill:#ffdd00;fill-opacity:1;fill-rule:evenodd;stroke:#000000;stroke-width:0.99999994;display:inline"
       d="m 373.6875,303.96875 c -35.25848,0 -64.68976,24.95236 -71.625,58.15625 7.93133,-0.27348 15.45221,-2.1308 22.28125,-5.25 7.98556,-19.39482 27.06953,-33.0625 49.34375,-33.0625 29.459,0 53.34375,23.88475 53.34375,53.34375 0,29.459 -23.88475,53.34375 -53.34375,53.34375 -28.0514,0 -51.02262,-21.65189 -53.15625,-49.15625 -6.30077,1.65715 -12.91402,2.58835 -19.71875,2.65625 3.4598,37.19572 34.77786,66.34375 72.875,66.34375 40.41015,0 73.1875,-32.77735 73.1875,-73.1875 0,-40.41015 -32.77735,-73.1875 -73.1875,-73.1875 z"
       id="path3965" />
    <path
       id="path3390"
       d="m 446.78125,374.01593 c 0.0431,1.03112 0.0937,2.05203 0.0937,3.09375 0,5.74349 -0.68595,11.3251 -1.9375,16.6875 28.8807,0.66522 52.09375,24.27197 52.09375,53.31249 0,29.459 -23.88475,53.34375 -53.34375,53.34375 -29.459,0 -53.34375,-23.88475 -53.34375,-53.34375 0,-22.03475 13.37488,-40.95949 32.4375,-49.09374 2.7407,-6.42284 4.25,-13.48201 4.25,-20.90625 0,-0.41848 -0.0216,-0.83383 -0.0312,-1.25 -32.36644,7.55413 -56.5,36.58334 -56.5,71.24999 0,40.41015 32.77735,73.1875 73.1875,73.1875 40.41015,0 73.1875,-32.77735 73.1875,-73.1875 0,-39.36843 -31.12572,-71.46441 -70.09375,-73.09374 z"
       style="fill:#ffdd00;fill-opacity:1;fill-rule:evenodd;stroke:#000000;stroke-width:0.99999994;display:inline"
       inkscape:connector-curvature="0" />
    <path
       inkscape:connector-curvature="0"
       style="fill:#ffdd00;fill-opacity:1;fill-rule:evenodd;stroke:#000000;stroke-width:0.99999994;display:inline"
       d="m 300,223 c -37.37037,0 -68.81182,25.47218 -77.875,60 1.38015,0.1071 2.7799,0.1875 4.1875,0.1875 7.18483,0 14.02524,-1.42416 20.28125,-4 0.009,-0.004 0.0223,0.004 0.0312,0 9.2444,-20.26538 29.64698,-34.375 53.375,-34.375 23.72802,0 44.1306,14.10962 53.375,34.375 0.002,0.004 0.0294,-0.004 0.0312,0 6.25601,2.57584 13.09642,4 20.28125,4 1.4076,0 2.80735,-0.0804 4.1875,-0.1875 C 368.81182,248.47218 337.37037,223 300,223 z"
       id="path4019" />
    <path
       inkscape:connector-curvature="0"
       style="fill:#ffdd00;fill-opacity:1;fill-rule:evenodd;stroke:#000000;stroke-width:0.99999994;display:inline"
       d="m 226.3125,323.8125 c -1.4076,0 -2.80735,0.0804 -4.1875,0.1875 9.06318,34.52782 40.50463,60 77.875,60 37.37037,0 68.81182,-25.47218 77.875,-60 -1.38015,-0.1071 -2.7799,-0.1875 -4.1875,-0.1875 -7.18483,0 -14.02524,1.42416 -20.28125,4 -0.002,0.004 -0.0294,-0.004 -0.0312,0 -9.2444,20.26538 -29.64698,34.375 -53.375,34.375 -23.72802,0 -44.1306,-14.10962 -53.375,-34.375 -0.009,-0.004 -0.0223,0.004 -0.0312,0 -6.25601,-2.57584 -13.09642,-4 -20.28125,-4 z"
       id="path3878" />
    <path
       inkscape:connector-curvature="0"
       style="fill:#ffdd00;fill-opacity:1;fill-rule:evenodd;stroke:#000000;stroke-width:0.99999994;display:inline"
       d="m 153.21875,374.01593 c -0.0431,1.03112 -0.0937,2.05203 -0.0937,3.09375 0,5.74349 0.68595,11.3251 1.9375,16.6875 -28.8807,0.66522 -52.09375,24.27197 -52.09375,53.31249 0,29.459 23.88475,53.34375 53.34375,53.34375 29.459,0 53.34375,-23.88475 53.34375,-53.34375 0,-22.03475 -13.37488,-40.95949 -32.4375,-49.09374 -2.7407,-6.42284 -4.25,-13.48201 -4.25,-20.90625 0,-0.41848 0.0216,-0.83383 0.0312,-1.25 32.36644,7.55413 56.5,36.58334 56.5,71.24999 0,40.41015 -32.77735,73.1875 -73.1875,73.1875 -40.41015,0 -73.187499,-32.77735 -73.187499,-73.1875 0,-39.36843 31.125719,-71.46441 70.093749,-73.09374 z"
       id="path3414" />
    <path
       style="fill:#ffdd00;fill-opacity:1;fill-rule:evenodd;stroke:#000000;stroke-width:0.99999994;display:inline"
       d="m 83.21875,444.03125 c -10.4421,0.4366 -20.319652,3.07183 -29.1875,7.4375 3.402798,5.78486 6.936074,11.42047 10.5625,16.9375 6.27835,-2.80228 13.189314,-4.42608 20.46875,-4.59375 -1.25155,-5.3624 -1.9375,-10.94401 -1.9375,-16.6875 0,-1.04172 0.05065,-2.06263 0.09375,-3.09375 z"
       id="path3080" />
    <path
       style="fill:#ffdd00;fill-opacity:1;fill-rule:evenodd;stroke:#000000;stroke-width:0.99999994;display:inline"
       d="m 516.78125,444.03125 c 0.0431,1.03112 0.0937,2.05203 0.0937,3.09375 0,5.74349 -0.68595,11.3251 -1.9375,16.6875 7.27944,0.16767 14.1904,1.79147 20.46875,4.59375 3.62643,-5.51703 7.1597,-11.15264 10.5625,-16.9375 -8.86785,-4.36567 -18.7454,-7.0009 -29.1875,-7.4375 z"
       id="path3078" />
    <path
       style="fill:#ffdd00;fill-opacity:1;fill-rule:evenodd;stroke:#000000;stroke-width:0.99999994;display:inline"
       d="m 103,445.875 c -0.01,0.41617 -0.0312,0.83152 -0.0312,1.25 0,7.42424 1.5093,14.48341 4.25,20.90625 19.06262,8.13425 32.4375,27.059 32.4375,49.09375 0,11.00683 -3.34889,21.22333 -9.0625,29.71875 4.89844,4.66511 9.84459,9.15321 14.78125,13.5 8.88316,-12.11377 14.125,-27.05103 14.125,-43.21875 0,-34.66665 -24.13356,-63.69587 -56.5,-71.25 z"
       id="path3076" />
    <path
       style="fill:#ffdd00;fill-opacity:1;fill-rule:evenodd;stroke:#000000;stroke-width:0.99999994;display:inline"
       d="m 497,445.875 c -32.36644,7.55413 -56.5,36.58335 -56.5,71.25 0,16.16772 5.24184,31.10498 14.125,43.21875 4.93666,-4.34679 9.88281,-8.83489 14.78125,-13.5 -5.71361,-8.49542 -9.0625,-18.71192 -9.0625,-29.71875 0,-22.03475 13.37488,-40.9595 32.4375,-49.09375 2.7407,-6.42284 4.25,-13.48201 4.25,-20.90625 0,-0.41848 -0.0217,-0.83383 -0.0312,-1.25 z"
       id="path3404" />
  </g>
  <g
     inkscape:groupmode="layer"
     id="layer1"
     inkscape:label="Cover"
     style="display:inline"
     sodipodi:insensitive="true">
    <path
       d="m 2,2 v 257 c 0,286 298,398 298,398 0,0 298,-112 298,-398 V 2 z"
       id="shine"
       inkscape:connector-curvature="0"
       style="fill:url(#radialGradient3074);stroke:#000000;stroke-width:3" />
  </g>
</svg>
