<svg xmlns="http://www.w3.org/2000/svg" width="600" height="660" xmlns:xlink="http://www.w3.org/1999/xlink">
<defs>
  <radialGradient id="rg" gradientUnits="userSpaceOnUse" cx="220" cy="220" r="405">
    <stop style="stop-color:#fff;stop-opacity:.3" offset="0" />
    <stop style="stop-color:#fff;stop-opacity:.2" offset="0.2" />
    <stop style="stop-color:#666;stop-opacity:.1" offset="0.6" />
    <stop style="stop-color:#000;stop-opacity:.13" offset="1" />
  </radialGradient>
  <clipPath id="clip-shield">
    <path id="shield" d="m 2 2 v 257 c 0 286 298 398 298 398 c 0 0 298 -112 298 -398 V 2 Z" />
  </clipPath>
  <g id="butterfly" style="stroke:#000000;stroke-width:.25;stroke-linecap:round;stroke-linejoin:round;">
	<path style="fill:#ff8800;" d="m 28.91,-0.5741 c 1.97,0.7756 3.95,1.6221 5.64,2.4681 1.76,0.916 3.24,1.903 4.16,2.75 0.92,0.846 1.34,1.621 1.34,2.256 0.1,0.635 -0.14,1.199 -0.1,1.833 0.1,0.705 0.56,1.407 1.41,2.117 0.91,0.7 2.18,1.41 3.03,2.18 0.92,0.78 1.55,1.63 1.76,2.4 0.28,0.71 0.14,1.27 -0.14,1.69 -0.35,0.36 -0.99,0.78 -1.34,1.13 -0.35,0.35 -0.56,0.78 -0.49,1.27 0,0.42 0.21,0.99 0.77,1.69 0.5,0.71 1.34,1.63 1.77,2.47 0.35,0.85 0.42,1.55 0.21,2.12 -0.14,0.56 -0.5,0.84 -1.06,1.27 -0.56,0.42 -1.13,0.91 -1.62,1.62 -0.42,0.63 -0.71,1.48 -0.64,2.61 0.22,1.05 0.78,2.46 0.99,3.52 0.21,0.99 0.1,1.69 -0.35,2.33 -0.42,0.56 -1.13,1.06 -1.76,1.55 -0.5,0.42 -0.99,0.85 -1.27,1.34 -0.36,0.49 -0.43,1.2 -0.28,1.97 0.21,0.85 0.56,1.91 1.26,2.97 0.71,1.12 1.84,2.32 3.39,3.66 1.48,1.41 3.45,2.96 4.65,4.16 1.2,1.13 1.69,1.98 1.77,2.96 0.1,1.06 -0.36,2.26 -1.06,3.04 -0.71,0.84 -1.84,1.26 -2.89,1.33 -1.06,0 -2.05,-0.42 -2.82,-1.19 -0.71,-0.78 -1.2,-1.98 -1.77,-3.53 -0.49,-1.48 -1.05,-3.31 -1.62,-4.65 -0.63,-1.41 -1.27,-2.26 -2.11,-2.75 -0.92,-0.64 -1.98,-0.85 -2.82,-0.71 -0.85,0.1 -1.48,0.57 -2.19,1.2 -0.78,0.64 -1.55,1.48 -2.4,1.69 -0.84,0.29 -1.69,0.1 -2.39,-0.1 -0.78,-0.14 -1.41,-0.14 -2.05,0 -0.63,0.21 -1.34,0.64 -1.97,1.13 -0.78,0.42 -1.48,0.85 -2.19,0.92 -0.77,0.14 -1.55,-0.1 -2.26,-0.78 -0.77,-0.63 -1.48,-1.69 -1.97,-2.82 -0.42,-1.06 -0.78,-2.33 -1.06,-3.17 -0.28,-0.92 -0.56,-1.34 -1.06,-1.69 -0.63,-0.22 -1.55,-0.22 -2.18,-0.5 -0.64,-0.35 -0.99,-0.91 -1.55,-2.18 -0.5,-1.2 -1.06,-3.11 -1.41,-5.15 -0.43,-2.05 -0.64,-4.16 -0.64,-5.57 0,-1.41 0.21,-2.05 0.57,-2.54 0.28,-0.49 0.56,-0.77 0.63,-1.41 0.14,-0.56 0,-1.55 -0.42,-3.17 -0.42,-1.62 -1.2,-3.81 -1.98,-5.71 -0.771,-1.98 -1.617,-3.46 -2.605,-4.8 -0.987,-1.2 -2.115,-2.25 -2.961,-3.242 -0.776,-1.128 -1.269,-2.186 -1.763,-3.314 v -6.6981 m -32.041,0.03 c -1.98,0.7756 -3.95,1.6221 -5.64,2.4681 -1.73,0.916 -3.23,1.903 -4.14,2.75 -0.96,0.846 -1.32,1.621 -1.37,2.256 -0.1,0.635 0.17,1.199 0.12,1.833 -0.12,0.705 -0.6,1.407 -1.45,2.117 -0.89,0.7 -2.15,1.41 -3.06,2.18 -0.89,0.78 -1.49,1.63 -1.73,2.4 -0.24,0.71 -0.12,1.27 0.17,1.69 0.36,0.36 0.96,0.78 1.32,1.13 0.37,0.35 0.55,0.78 0.49,1.27 0,0.42 -0.25,0.99 -0.78,1.69 -0.48,0.71 -1.32,1.63 -1.74,2.47 -0.36,0.85 -0.42,1.55 -0.24,2.12 0.18,0.56 0.54,0.84 1.07,1.27 0.55,0.42 1.15,0.91 1.63,1.62 0.42,0.63 0.72,1.48 0.6,2.61 -0.18,1.05 -0.72,2.46 -0.96,3.52 -0.19,0.99 -0.1,1.69 0.36,2.33 0.42,0.56 1.14,1.06 1.74,1.55 0.53,0.42 1.01,0.85 1.32,1.34 0.29,0.49 0.36,1.2 0.24,1.97 -0.19,0.85 -0.55,1.91 -1.27,2.97 -0.72,1.12 -1.85,2.32 -3.35,3.66 -1.5,1.41 -3.49,2.96 -4.68,4.16 -1.2,1.13 -1.68,1.98 -1.75,2.96 -0.1,1.06 0.31,2.26 1.03,3.04 0.72,0.84 1.86,1.26 2.87,1.33 1.09,0 2.05,-0.42 2.82,-1.19 0.72,-0.78 1.27,-1.98 1.81,-3.53 0.48,-1.48 1.01,-3.31 1.61,-4.65 0.6,-1.41 1.27,-2.26 2.1,-2.75 0.91,-0.64 1.99,-0.85 2.83,-0.71 0.83,0.1 1.5,0.57 2.22,1.2 0.72,0.64 1.55,1.48 2.39,1.69 0.84,0.29 1.68,0.1 2.41,-0.1 0.72,-0.14 1.37,-0.14 2.04,0 0.59,0.21 1.31,0.64 1.98,1.13 0.72,0.42 1.44,0.85 2.15,0.92 0.79,0.14 1.56,-0.1 2.28,-0.78 0.72,-0.63 1.44,-1.69 1.93,-2.82 0.48,-1.06 0.77,-2.33 1.08,-3.17 0.29,-0.92 0.53,-1.34 1.07,-1.69 0.6,-0.22 1.51,-0.22 2.16,-0.5 0.66,-0.35 1.02,-0.91 1.56,-2.18 0.48,-1.2 1.09,-3.11 1.45,-5.15 0.41,-2.05 0.6,-4.16 0.6,-5.57 0,-1.41 -0.24,-2.05 -0.55,-2.54 -0.29,-0.49 -0.6,-0.77 -0.66,-1.41 -0.12,-0.56 0,-1.55 0.42,-3.17 0.43,-1.62 1.2,-3.81 1.98,-5.71 0.78,-1.98 1.626,-3.46 2.641,-4.8 0.959,-1.2 2.101,-2.25 2.912,-3.242 0.846,-1.128 1.34,-2.186 1.833,-3.314 v -6.6981" />
	<path style="fill:#000000;stroke:none;" d="m 20.16,18.89 c -1.26,-0.57 -2.67,-1.48 -4.16,-2.61 -1.41,-1.2 -2.96,-2.61 -4.16,-4.02 -1.26,-1.34 -2.322,-2.681 -3.098,-3.597 -0.705,-0.987 -1.199,-1.552 -1.481,-1.975 -0.211,-0.423 -0.352,-0.634 -0.493,-0.846 l 0.493,-0.07 c 1.058,0.211 2.186,0.493 3.529,0.846 1.34,0.423 2.89,0.917 4.02,1.41 1.12,0.423 1.97,0.776 2.96,1.41 0.91,0.772 2.11,1.762 3.31,2.612 1.13,0.84 2.26,1.48 3.03,2.11 0.85,0.57 1.27,1.13 1.55,1.84 0.29,0.7 0.29,1.55 0.36,2.32 0,0.64 0,1.13 -0.1,1.48 -0.22,0.36 -0.5,0.5 -0.85,0.57 -0.35,0.1 -0.85,0 -1.69,-0.21 -0.78,-0.22 -1.98,-0.64 -3.25,-1.27 z m 3.81,-6.07 c -0.91,-0.63 -1.83,-1.34 -2.61,-1.97 -0.7,-0.57 -1.41,-1.059 -1.48,-1.412 -0.14,-0.211 0.28,-0.282 0.99,-0.352 0.63,0 1.62,-0.07 2.61,-0.07 0.99,-0.07 2.04,0 3.38,0.141 1.34,0.212 3.04,0.564 4.59,0.843 1.55,0.35 2.96,0.64 4.58,1.13 1.55,0.49 3.24,1.13 4.51,1.76 1.27,0.57 2.12,1.27 2.68,1.91 0.64,0.56 1.06,1.13 1.34,1.55 0,0.14 0.1,0.21 0.14,0.28 0.28,0.49 0.5,0.78 0.64,1.06 0.28,-0.21 0.49,-0.35 0.7,-0.57 0.28,-0.42 0.42,-0.98 0.14,-1.69 -0.21,-0.77 -0.84,-1.62 -1.76,-2.4 -0.42,-0.42 -1.13,-0.84 -1.69,-1.19 -0.57,0 -1.06,0 -1.91,-0.22 -0.77,-0.14 -1.9,-0.49 -3.24,-0.91 -1.41,-0.43 -3.17,-0.848 -4.86,-1.341 -1.77,-0.494 -3.53,-0.987 -5.93,-1.269 -2.32,-0.353 -5.22,-0.635 -7.05,-0.706 -1.83,-0.141 -2.61,-0.141 -3.74,-0.352 -1.05,-0.141 -2.46,-0.494 -3.87,-0.917 -1.48,-0.352 -3.035,-0.846 -3.67,-1.198 -0.705,-0.353 -0.564,-0.705 -0.07,-1.058 0.565,-0.353 1.34,-0.846 2.19,-1.269 0.91,-0.423 1.83,-0.846 3.31,-1.199 1.48,-0.4229 3.45,-0.705 5.22,-0.846 1.76,-0.2115 3.24,-0.282 4.51,-0.3525 1.27,0 2.33,-0.071 3.53,0 1.19,0.2115 2.46,0.4935 3.8,0.9875 0.43,0.211 0.85,0.352 1.34,0.564 0.57,0.282 1.13,0.564 1.69,0.846 0.36,0.211 0.64,0.352 0.85,0.493 1.27,0.705 2.33,1.481 3.17,2.116 0.85,0.634 1.48,1.128 2.05,1.692 0,-0.635 -0.42,-1.41 -1.34,-2.256 -0.92,-0.847 -2.4,-1.834 -4.16,-2.75 -1.69,-0.846 -3.67,-1.6925 -5.64,-2.4681 -0.21,0 -0.5,0 -0.71,0 -3.03,0.071 -6.41,0.141 -9.16,0.282 -4.23,0.071 -7.13,0.282 -9.38,0.5641 -2.186,0.3525 -3.808,0.7051 -5.359,1.128 h -1.199 v 4.724 c 0.494,1.128 0.987,2.186 1.763,3.314 0.846,0.991 1.974,2.041 2.961,3.241 0.988,1.34 1.834,2.82 2.604,4.8 0.78,1.9 1.56,4.09 1.98,5.71 0.42,1.62 0.56,2.61 0.42,3.17 -0.1,0.64 -0.35,0.92 -0.63,1.41 -0.36,0.49 -0.57,1.13 -0.57,2.54 0,1.41 0.21,3.52 0.64,5.57 0.35,2.04 0.91,3.95 1.41,5.15 0.56,1.27 0.91,1.83 1.55,2.18 0.21,0.1 0.42,0.14 0.63,0.14 -0.42,-0.77 -0.84,-1.55 -1.34,-2.89 -0.56,-1.34 -1.05,-3.31 -1.19,-5.14 0,-0.1 0,-0.1 -0.1,-0.15 -0.14,-1.69 0.15,-3.17 0.22,-4.37 0.21,-1.34 0.28,-2.25 0.42,-3.03 0.14,-0.77 0.42,-1.41 0.77,-1.48 0.36,-0.14 0.78,0.14 1.27,1.06 l 0.92,1.83 c 0.1,0.1 0.14,0.21 0.21,0.42 0.14,0.36 0.43,0.92 0.57,1.34 0.56,1.34 1.05,2.54 1.62,4.23 0.56,1.63 1.13,3.81 1.48,5.29 0.28,1.41 0.35,2.19 0.21,2.75 -0.1,0.64 -0.28,1.2 -0.56,1.62 -0.14,0.43 -0.36,0.78 -0.64,0.92 -0.28,0.21 -0.7,0.21 -1.06,0.21 0.22,0.85 0.5,1.77 0.85,2.61 0.49,1.13 1.2,2.19 1.97,2.82 0.71,0.71 1.49,0.92 2.26,0.78 0.71,-0.1 1.41,-0.5 2.19,-0.92 -0.71,-0.77 -1.34,-1.41 -1.98,-2.47 -0.42,-0.91 -0.84,-1.97 -1.27,-3.17 0,-0.35 -0.14,-0.56 -0.21,-0.85 -0.49,-1.48 -0.84,-2.89 -1.34,-4.65 -0.42,-1.69 -0.99,-3.81 -1.41,-5.5 -0.49,-1.62 -0.77,-2.89 -1.13,-4.16 -0.1,-0.35 -0.21,-0.7 -0.28,-1.13 -0.14,-0.7 -0.35,-1.48 -0.42,-2.25 0,-0.22 0,-0.29 0,-0.43 -0.21,-1.34 -0.28,-2.68 -0.1,-3.59 0.1,-1.06 0.42,-1.7 0.7,-1.91 0.36,-0.28 0.64,-0.14 1.06,0.36 0.42,0.49 0.85,1.41 1.55,2.82 0.14,0.49 0.35,0.91 0.64,1.48 0.28,0.7 0.63,1.55 0.98,2.39 0.36,0.57 0.64,1.27 0.85,1.91 0.63,1.27 1.13,2.54 1.76,3.73 0.35,0.92 0.78,1.77 1.13,2.54 0.92,2.05 1.69,3.81 2.26,5.43 0.49,1.41 0.84,2.68 1.12,3.74 0,0.14 0.1,0.35 0.1,0.49 0.21,1.06 0.28,1.77 0.14,2.47 -0.1,0.56 -0.22,1.06 -0.5,1.55 0.14,0 0.28,0 0.36,0.1 0.7,0.14 1.55,0.36 2.39,0.1 0.85,-0.21 1.62,-1.05 2.4,-1.69 0.1,-0.1 0.28,-0.21 0.42,-0.35 -0.7,-0.35 -1.27,-0.71 -1.97,-1.34 -0.21,-0.28 -0.42,-0.57 -0.71,-0.92 -0.42,-0.56 -0.84,-1.2 -1.27,-2.04 -0.84,-1.41 -1.76,-3.53 -2.82,-5.64 -0.77,-1.63 -1.62,-3.32 -2.32,-4.87 -0.14,-0.42 -0.36,-0.84 -0.57,-1.27 -0.49,-1.06 -0.84,-2.04 -1.2,-2.89 -0.35,-0.63 -0.56,-1.2 -0.77,-1.83 -0.56,-1.41 -1.13,-2.75 -1.48,-3.81 -0.42,-1.06 -0.64,-1.76 -0.64,-2.26 -0.1,-0.49 0.14,-0.63 0.5,-0.7 0.42,0 0.84,0.14 1.34,0.42 0.21,0.14 0.35,0.14 0.56,0.35 0.28,0.15 0.64,0.57 0.99,0.99 0.7,0.85 1.55,2.19 2.68,3.67 0.49,0.77 1.13,1.69 1.69,2.61 0.49,0.63 0.92,1.34 1.41,2.11 l 0.35,0.5 c 1.2,2.11 2.54,4.51 3.74,6.48 1.13,1.98 2.11,3.53 2.89,4.73 0.35,0.49 0.56,0.91 0.78,1.34 0.28,0.56 0.49,1.05 0.56,1.48 0.28,0.84 0.28,1.62 0.35,2.39 0.21,0.15 0.36,0.22 0.5,0.36 0.84,0.49 1.48,1.34 2.11,2.75 0.57,1.34 1.13,3.17 1.62,4.65 0.57,1.55 1.06,2.75 1.77,3.53 0.77,0.77 1.76,1.19 2.82,1.19 1.05,-0.1 2.18,-0.49 2.89,-1.33 0.7,-0.78 1.13,-1.98 1.06,-3.04 -0.1,-0.98 -0.57,-1.83 -1.77,-2.96 -1.2,-1.2 -3.17,-2.75 -4.65,-4.16 -1.55,-1.34 -2.68,-2.54 -3.39,-3.66 -0.56,-0.92 -0.98,-1.77 -1.12,-2.54 -0.85,-0.71 -1.7,-1.27 -2.68,-2.4 -0.21,-0.21 -0.43,-0.42 -0.71,-0.78 -1.27,-1.55 -2.82,-3.8 -4.16,-5.85 -0.77,-1.2 -1.48,-2.33 -2.11,-3.38 -0.36,-0.64 -0.78,-1.27 -1.2,-1.84 -1.06,-1.48 -1.98,-2.75 -2.68,-3.8 -0.78,-0.99 -1.27,-1.7 -1.62,-2.26 -0.36,-0.56 -0.43,-0.85 -0.36,-1.06 0.1,-0.21 0.36,-0.35 0.92,-0.28 0.56,0.14 1.34,0.35 2.47,1.13 1.06,0.63 2.4,1.69 3.66,2.61 1.2,0.84 2.26,1.55 3.25,2.54 0.21,0.28 0.49,0.56 0.77,0.91 0.64,0.78 1.34,1.77 1.91,2.82 0.84,1.34 1.62,2.75 2.32,4.02 0.36,0.57 0.64,1.06 0.85,1.55 0.42,0.78 0.71,1.41 1.13,2.05 0.49,-0.43 1.06,-0.78 1.41,-1.27 0.42,-0.64 0.56,-1.34 0.35,-2.33 -0.14,-0.49 -0.35,-1.2 -0.56,-1.76 -0.71,-0.71 -1.41,-1.34 -2.12,-1.9 l -1.27,-1.13 c -1.2,-0.99 -2.54,-2.05 -3.59,-3.11 -0.99,-0.98 -1.77,-1.97 -2.68,-2.75 -0.1,-0.1 -0.21,-0.14 -0.28,-0.21 -0.99,-0.84 -2.26,-1.41 -3.39,-2.11 -1.2,-0.71 -2.33,-1.48 -2.96,-1.98 -0.63,-0.56 -0.71,-0.77 -0.85,-1.41 -0.1,-0.56 -0.21,-1.48 -0.14,-1.9 0.1,-0.49 0.36,-0.42 1.06,-0.28 0.78,0.14 2.04,0.42 3.31,0.77 1.2,0.29 2.4,0.71 3.6,1.06 1.13,0.28 2.12,0.57 3.03,0.99 0.57,0.28 1.06,0.49 1.62,0.84 0.29,0.22 0.64,0.36 0.92,0.64 0.78,0.63 1.48,1.41 2.19,2.33 0.7,0.84 1.34,1.83 1.83,2.6 0.1,0.15 0.14,0.29 0.28,0.43 0.28,0.42 0.64,0.84 0.85,1.13 l 0.21,0.21 c 0,-0.14 0.14,-0.14 0.21,-0.21 0.56,-0.43 0.92,-0.71 1.06,-1.27 0.21,-0.57 0.14,-1.27 -0.21,-2.12 -0.43,-0.84 -1.27,-1.76 -1.77,-2.47 -0.84,-0.35 -1.69,-0.77 -2.53,-1.2 -0.29,-0.1 -0.57,-0.21 -0.78,-0.35 -1.27,-0.56 -2.61,-1.34 -4.3,-1.97 -1.76,-0.57 -3.81,-1.2 -5.57,-1.69 -1.83,-0.5 -3.46,-0.92 -4.65,-1.34 -1.34,-0.5 -2.26,-1.2 -3.18,-1.84 z m -44.18,6.07 c 1.26,-0.57 2.7,-1.48 4.15,-2.61 1.43,-1.2 2.93,-2.61 4.19,-4.02 1.26,-1.34 2.279,-2.681 3.062,-3.597 0.719,-0.987 1.199,-1.552 1.502,-1.975 0.24,-0.423 0.36,-0.634 0.479,-0.846 l -0.479,-0.07 c -1.079,0.211 -2.221,0.493 -3.544,0.846 -1.31,0.423 -2.88,0.917 -4.01,1.41 -1.15,0.423 -1.99,0.776 -2.95,1.41 -0.95,0.772 -2.16,1.762 -3.29,2.612 -1.15,0.84 -2.29,1.48 -3.07,2.11 -0.83,0.57 -1.26,1.13 -1.55,1.84 -0.24,0.7 -0.31,1.55 -0.36,2.32 0,0.64 0,1.13 0.12,1.48 0.17,0.36 0.48,0.5 0.84,0.57 0.36,0.1 0.84,0 1.67,-0.21 0.79,-0.22 1.99,-0.64 3.24,-1.27 z m -3.78,-6.07 c 0.9,-0.63 1.81,-1.34 2.58,-1.97 0.72,-0.57 1.38,-1.059 1.5,-1.412 0.12,-0.211 -0.3,-0.282 -1.02,-0.352 -0.65,0 -1.61,-0.07 -2.58,-0.07 -1.01,-0.07 -2.04,0 -3.42,0.141 -1.32,0.212 -3,0.564 -4.55,0.843 -1.56,0.35 -3.01,0.64 -4.57,1.13 -1.55,0.49 -3.3,1.13 -4.55,1.76 -1.26,0.57 -2.1,1.27 -2.7,1.91 -0.6,0.56 -1.02,1.13 -1.33,1.55 0,0.14 -0.1,0.21 -0.12,0.28 -0.29,0.49 -0.48,0.78 -0.65,1.06 -0.24,-0.21 -0.48,-0.35 -0.67,-0.57 -0.29,-0.42 -0.41,-0.98 -0.17,-1.69 0.24,-0.77 0.84,-1.62 1.73,-2.4 0.49,-0.42 1.15,-0.84 1.74,-1.19 0.55,0 1.08,0 1.87,-0.22 0.83,-0.14 1.91,-0.49 3.3,-0.91 1.38,-0.43 3.11,-0.848 4.85,-1.341 1.75,-0.494 3.54,-0.987 5.88,-1.269 2.35,-0.353 5.22,-0.635 7.08,-0.706 1.8,-0.141 2.64,-0.141 3.73,-0.352 1.08,-0.141 2.45,-0.494 3.9,-0.917 1.43,-0.352 2.992,-0.846 3.655,-1.198 0.719,-0.353 0.536,-0.705 0.07,-1.058 -0.536,-0.353 -1.319,-0.846 -2.155,-1.269 -0.9,-0.423 -1.86,-0.846 -3.3,-1.199 -1.5,-0.4229 -3.48,-0.705 -5.22,-0.846 -1.8,-0.2115 -3.3,-0.282 -4.56,-0.3525 -1.26,0 -2.34,-0.071 -3.48,0 -1.2,0.2115 -2.52,0.4935 -3.84,0.9875 -0.42,0.211 -0.84,0.352 -1.32,0.564 -0.6,0.282 -1.14,0.564 -1.74,0.846 -0.3,0.211 -0.6,0.352 -0.84,0.493 -1.26,0.705 -2.28,1.481 -3.18,2.116 -0.84,0.634 -1.44,1.128 -2.04,1.692 0.1,-0.635 0.42,-1.41 1.38,-2.256 0.9,-0.847 2.4,-1.834 4.14,-2.75 1.68,-0.846 3.66,-1.6925 5.64,-2.4681 0.24,0 0.48,0 0.72,0 3.06,0.071 6.42,0.141 9.18,0.282 4.2,0.071 7.08,0.282 9.353,0.5641 2.221,0.3525 3.842,0.7051 5.394,1.128 h 1.198 v 4.724 c -0.493,1.128 -0.987,2.186 -1.833,3.314 -0.797,0.991 -1.939,2.041 -2.898,3.241 -1.015,1.34 -1.861,2.82 -2.634,4.8 -0.78,1.9 -1.56,4.09 -1.98,5.71 -0.43,1.62 -0.55,2.61 -0.43,3.17 0.1,0.64 0.37,0.92 0.67,1.41 0.3,0.49 0.54,1.13 0.54,2.54 0,1.41 -0.18,3.52 -0.6,5.57 -0.36,2.04 -0.97,3.95 -1.45,5.15 -0.53,1.27 -0.89,1.83 -1.55,2.18 -0.18,0.1 -0.42,0.14 -0.66,0.14 0.48,-0.77 0.9,-1.55 1.38,-2.89 0.54,-1.34 1.07,-3.31 1.19,-5.14 0,-0.1 0,-0.1 0.1,-0.15 0.12,-1.69 -0.12,-3.17 -0.24,-4.37 -0.18,-1.34 -0.23,-2.25 -0.42,-3.03 -0.12,-0.77 -0.36,-1.41 -0.72,-1.48 -0.36,-0.14 -0.77,0.14 -1.32,1.06 l -0.9,1.83 c -0.1,0.1 -0.12,0.21 -0.17,0.42 -0.19,0.36 -0.43,0.92 -0.6,1.34 -0.55,1.34 -1.08,2.54 -1.63,4.23 -0.53,1.63 -1.14,3.81 -1.43,5.29 -0.31,1.41 -0.36,2.19 -0.24,2.75 0.1,0.64 0.29,1.2 0.53,1.62 0.19,0.43 0.36,0.78 0.66,0.92 0.31,0.21 0.72,0.21 1.08,0.21 -0.24,0.85 -0.53,1.77 -0.89,2.61 -0.49,1.13 -1.21,2.19 -1.93,2.82 -0.72,0.71 -1.49,0.92 -2.27,0.78 -0.72,-0.1 -1.44,-0.5 -2.16,-0.92 0.65,-0.77 1.32,-1.41 1.92,-2.47 0.48,-0.91 0.9,-1.97 1.26,-3.17 0.1,-0.35 0.17,-0.56 0.24,-0.85 0.48,-1.48 0.84,-2.89 1.32,-4.65 0.48,-1.69 1.01,-3.81 1.43,-5.5 0.48,-1.62 0.79,-2.89 1.15,-4.16 0.1,-0.35 0.17,-0.7 0.24,-1.13 0.17,-0.7 0.36,-1.48 0.41,-2.25 0.1,-0.22 0.1,-0.29 0.1,-0.43 0.18,-1.34 0.24,-2.68 0.1,-3.59 -0.12,-1.06 -0.41,-1.7 -0.72,-1.91 -0.35,-0.28 -0.65,-0.14 -1.07,0.36 -0.43,0.49 -0.84,1.41 -1.51,2.82 -0.17,0.49 -0.41,0.91 -0.65,1.48 -0.3,0.7 -0.66,1.55 -1.02,2.39 -0.3,0.57 -0.6,1.27 -0.84,1.91 -0.6,1.27 -1.15,2.54 -1.74,3.73 -0.36,0.92 -0.78,1.77 -1.14,2.54 -0.9,2.05 -1.69,3.81 -2.28,5.43 -0.48,1.41 -0.84,2.68 -1.08,3.74 0,0.14 -0.1,0.35 -0.1,0.49 -0.24,1.06 -0.31,1.77 -0.19,2.47 0.1,0.56 0.24,1.06 0.48,1.55 -0.12,0 -0.24,0 -0.29,0.1 -0.73,0.14 -1.57,0.36 -2.41,0.1 -0.84,-0.21 -1.68,-1.05 -2.4,-1.69 -0.12,-0.1 -0.3,-0.21 -0.42,-0.35 0.66,-0.35 1.26,-0.71 1.93,-1.34 0.24,-0.28 0.48,-0.57 0.72,-0.92 0.41,-0.56 0.83,-1.2 1.25,-2.04 0.84,-1.41 1.81,-3.53 2.82,-5.64 0.78,-1.63 1.62,-3.32 2.34,-4.87 0.19,-0.42 0.36,-0.84 0.6,-1.27 0.48,-1.06 0.84,-2.04 1.2,-2.89 0.3,-0.63 0.54,-1.2 0.78,-1.83 0.55,-1.41 1.08,-2.75 1.44,-3.81 0.42,-1.06 0.66,-1.76 0.66,-2.26 0.1,-0.49 -0.18,-0.63 -0.54,-0.7 -0.36,0 -0.84,0.14 -1.32,0.42 -0.18,0.14 -0.36,0.14 -0.54,0.35 -0.3,0.15 -0.66,0.57 -1.02,0.99 -0.66,0.85 -1.55,2.19 -2.64,3.67 -0.54,0.77 -1.14,1.69 -1.73,2.61 -0.48,0.63 -0.91,1.34 -1.39,2.11 l -0.36,0.5 c -1.19,2.11 -2.51,4.51 -3.72,6.48 -1.13,1.98 -2.16,3.53 -2.88,4.73 -0.36,0.49 -0.6,0.91 -0.78,1.34 -0.29,0.56 -0.48,1.05 -0.6,1.48 -0.24,0.84 -0.29,1.62 -0.36,2.39 -0.17,0.15 -0.29,0.22 -0.48,0.36 -0.84,0.49 -1.5,1.34 -2.1,2.75 -0.6,1.34 -1.13,3.17 -1.61,4.65 -0.55,1.55 -1.09,2.75 -1.81,3.53 -0.77,0.77 -1.73,1.19 -2.82,1.19 -1.01,-0.1 -2.16,-0.49 -2.88,-1.33 -0.71,-0.78 -1.07,-1.98 -1.02,-3.04 0.1,-0.98 0.55,-1.83 1.74,-2.96 1.2,-1.2 3.18,-2.75 4.69,-4.16 1.5,-1.34 2.63,-2.54 3.35,-3.66 0.6,-0.92 0.96,-1.77 1.14,-2.54 0.84,-0.71 1.68,-1.27 2.64,-2.4 0.24,-0.21 0.48,-0.42 0.72,-0.78 1.26,-1.55 2.82,-3.8 4.15,-5.85 0.77,-1.2 1.49,-2.33 2.15,-3.38 0.36,-0.64 0.78,-1.27 1.2,-1.84 1.03,-1.48 1.98,-2.75 2.7,-3.8 0.72,-0.99 1.27,-1.7 1.56,-2.26 0.36,-0.56 0.48,-0.85 0.36,-1.06 -0.1,-0.21 -0.36,-0.35 -0.89,-0.28 -0.55,0.14 -1.33,0.35 -2.46,1.13 -1.08,0.63 -2.41,1.69 -3.66,2.61 -1.2,0.84 -2.29,1.55 -3.25,2.54 -0.24,0.28 -0.53,0.56 -0.77,0.91 -0.67,0.78 -1.33,1.77 -1.93,2.82 -0.84,1.34 -1.61,2.75 -2.34,4.02 -0.3,0.57 -0.6,1.06 -0.84,1.55 -0.41,0.78 -0.72,1.41 -1.08,2.05 -0.53,-0.43 -1.08,-0.78 -1.44,-1.27 -0.42,-0.64 -0.54,-1.34 -0.36,-2.33 0.12,-0.49 0.36,-1.2 0.55,-1.76 0.72,-0.71 1.44,-1.34 2.16,-1.9 l 1.26,-1.13 c 1.2,-0.99 2.51,-2.05 3.59,-3.11 0.96,-0.98 1.75,-1.97 2.7,-2.75 0.1,-0.1 0.18,-0.14 0.24,-0.21 1.03,-0.84 2.28,-1.41 3.42,-2.11 1.2,-0.71 2.28,-1.48 2.94,-1.98 0.6,-0.56 0.72,-0.77 0.84,-1.41 0.1,-0.56 0.19,-1.48 0.12,-1.9 -0.1,-0.49 -0.3,-0.42 -1.02,-0.28 -0.78,0.14 -2.04,0.42 -3.3,0.77 -1.25,0.29 -2.45,0.71 -3.6,1.06 -1.14,0.28 -2.15,0.57 -3.06,0.99 -0.54,0.28 -1.07,0.49 -1.62,0.84 -0.29,0.22 -0.6,0.36 -0.89,0.64 -0.79,0.63 -1.5,1.41 -2.22,2.33 -0.67,0.84 -1.32,1.83 -1.8,2.6 -0.1,0.15 -0.19,0.29 -0.31,0.43 -0.3,0.42 -0.59,0.84 -0.83,1.13 l -0.19,0.21 c -0.1,-0.14 -0.17,-0.14 -0.24,-0.21 -0.53,-0.43 -0.89,-0.71 -1.08,-1.27 -0.17,-0.57 -0.12,-1.27 0.24,-2.12 0.43,-0.84 1.27,-1.76 1.75,-2.47 0.83,-0.35 1.67,-0.77 2.58,-1.2 0.24,-0.1 0.53,-0.21 0.77,-0.35 1.21,-0.56 2.58,-1.34 4.27,-1.97 1.73,-0.57 3.78,-1.2 5.57,-1.69 1.8,-0.5 3.42,-0.92 4.68,-1.34 1.33,-0.5 2.22,-1.2 3.18,-1.84 z" />
	<path style="fill:#ff8800;" d="m 3.031,-5.228 c 0.423,-1.41 0.916,-2.75 1.339,-4.089 0.423,-1.343 0.917,-2.543 1.834,-4.583 0.846,-1.97 2.256,-4.8 3.525,-7.19 1.271,-2.35 2.401,-4.25 4.091,-6.65 1.69,-2.4 4.02,-5.3 6.49,-8.22 2.53,-2.94 5.21,-5.91 8.25,-8.64 2.96,-2.74 6.2,-5.23 8.95,-7.15 2.75,-1.93 5.01,-3.27 7.12,-4.41 2.05,-1.13 3.88,-2.03 5.92,-2.7 1.98,-0.68 4.16,-1.12 6,-1.21 1.83,-0.11 3.45,0.13 4.51,0.68 1.13,0.57 1.83,1.43 2.26,2.82 0.42,1.39 0.56,3.29 0.28,5.39 -0.28,2.09 -1.06,4.39 -2.19,6.8 -1.05,2.4 -2.46,4.89 -3.31,6.8 -0.85,1.89 -1.2,3.2 -1.62,4.37 -0.5,1.17 -1.2,2.2 -1.55,3.32 -0.36,1.14 -0.43,2.36 -0.85,3.61 -0.28,1.25 -0.78,2.52 -1.06,3.78 -0.28,1.28 -0.28,2.54 -0.63,3.73 -0.35,1.27 -0.99,2.4 -1.48,3.67 -0.5,1.27 -0.92,2.75 -1.62,3.95 -0.57,1.269 -1.49,2.326 -2.19,3.666 -0.78,1.269 -1.41,2.75 -2.47,3.737 -0.99,1.058 -2.54,1.551 -4.3,1.974 -1.83,0.423 -3.95,0.7758 -7.76,1.0578 -3.8,0.1411 -9.37,0.2116 -13.53,0.4231 -4.23,0.071 -7.13,0.282 -9.381,0.5641 -2.186,0.3525 -3.808,0.7051 -5.359,1.128 h -1.199 m -6.134,-6.628 c -0.423,-1.41 -0.917,-2.75 -1.34,-4.089 -0.493,-1.343 -0.987,-2.543 -1.854,-4.583 -0.903,-1.97 -2.278,-4.8 -3.54,-7.19 -1.263,-2.35 -2.393,-4.25 -4.083,-6.65 -1.68,-2.4 -4.02,-5.3 -6.54,-8.22 -2.51,-2.94 -5.21,-5.91 -8.22,-8.64 -2.94,-2.74 -6.17,-5.23 -8.94,-7.15 -2.75,-1.93 -5.03,-3.27 -7.13,-4.41 -2.04,-1.13 -3.9,-2.03 -5.94,-2.7 -1.98,-0.68 -4.14,-1.12 -5.94,-1.21 -1.86,-0.11 -3.42,0.13 -4.5,0.68 -1.15,0.57 -1.8,1.43 -2.22,2.82 -0.42,1.39 -0.6,3.29 -0.3,5.39 0.3,2.09 1.08,4.39 2.16,6.8 1.08,2.4 2.46,4.89 3.3,6.8 0.84,1.89 1.14,3.2 1.62,4.37 0.48,1.17 1.13,2.2 1.5,3.32 0.36,1.14 0.48,2.36 0.84,3.61 0.3,1.25 0.84,2.52 1.08,3.78 0.29,1.28 0.29,2.54 0.65,3.73 0.36,1.27 0.97,2.4 1.51,3.67 0.48,1.27 0.9,2.75 1.55,3.95 0.6,1.269 1.51,2.326 2.23,3.666 0.78,1.269 1.38,2.75 2.46,3.737 1.02,1.058 2.51,1.551 4.32,1.974 1.8,0.423 3.95,0.7758 7.73,1.0578 3.85,0.1411 9.37,0.2116 13.56,0.4231 4.21,0.071 7.08,0.282 9.36,0.5641 2.221,0.3525 3.842,0.7051 5.408,1.128 h 1.198" />
	<path style="fill:#000000;stroke:none;" d="m 29.54,-8.824 c -1.27,-0.211 -2.04,-0.211 -2.82,-0.211 -0.77,0 -1.55,0 -1.9,0.211 -0.35,0.212 -0.28,0.494 0.14,0.635 0.35,0.282 1.13,0.352 2.33,0.423 1.12,0.07 2.68,0.07 4.3,0.211 1.55,0.141 3.24,0.353 4.65,0.494 1.48,0.211 2.89,0.423 4.23,0.494 1.2,0.141 2.4,0.282 3.53,0.352 0.14,0.07 0.35,0.07 0.49,0.07 -0.14,0 -0.35,-0.07 -0.49,-0.07 -1.48,-0.423 -2.89,-0.776 -4.37,-1.058 -1.77,-0.352 -3.67,-0.634 -5.43,-0.916 -1.84,-0.282 -3.46,-0.494 -4.66,-0.635 z m 3.88,-2.606 c -2.26,-0.36 -4.09,-0.5 -5.71,-0.5 -1.55,0 -2.82,0.14 -3.53,0.43 -0.7,0.14 -0.84,0.42 -0.49,0.63 0.35,0.21 1.27,0.35 2.26,0.42 0.91,0.1 1.97,-0.1 3.17,-0.1 1.2,-0.1 2.54,-0.1 4.09,0.1 1.48,0.15 3.17,0.43 4.65,0.639 1.48,0.282 2.96,0.494 4.16,0.776 0.92,0.07 1.77,0.282 2.61,0.423 0.28,0 0.64,0.07 0.92,0.141 -0.28,-0.141 -0.64,-0.212 -0.92,-0.353 -1.41,-0.493 -2.82,-1.057 -4.51,-1.406 -2.05,-0.5 -4.51,-0.92 -6.7,-1.2 z m 3.81,-6.07 c -2.26,-0.14 -4.16,-0.28 -5.85,-0.28 -1.7,0 -3.04,0.21 -3.95,0.49 -0.92,0.22 -1.34,0.57 -1.2,0.78 0.14,0.21 0.7,0.21 1.55,0.28 0.92,0 2.04,0 3.74,0 1.69,0 3.87,0.1 5.99,0.21 2.04,0.15 3.88,0.36 5.71,0.5 1.62,0.1 3.24,0.1 4.44,0.1 0,0 0,0 0,0 1.2,0 1.84,0 2.47,-0.1 -0.77,-0.28 -1.62,-0.5 -2.47,-0.71 -0.98,-0.21 -2.04,-0.49 -3.24,-0.63 -2.26,-0.28 -4.87,-0.5 -7.19,-0.64 z m 2.25,-7.29 c -2.11,0 -3.87,0.16 -5.07,0.4 -1.27,0.23 -2.05,0.53 -2.61,0.94 -0.64,0.4 -0.99,0.91 -1.06,1.19 -0.1,0.28 0.28,0.32 0.92,0.21 0.7,-0.11 1.76,-0.37 3.17,-0.57 1.48,-0.21 3.39,-0.37 5.22,-0.5 1.76,-0.14 3.45,-0.25 5.08,-0.27 1.55,0 2.96,0 4.16,0 0.42,0 0.84,0 1.19,0 0.5,0 0.92,-0.1 1.34,-0.1 -0.49,-0.1 -0.91,-0.15 -1.34,-0.22 -1.41,-0.22 -2.82,-0.42 -4.44,-0.6 -2.04,-0.26 -4.44,-0.48 -6.56,-0.5 z m 0.57,-6.14 c -1.62,0.3 -3.1,0.59 -4.02,0.97 -0.99,0.38 -1.41,0.83 -1.55,1.18 -0.1,0.35 0,0.58 0.49,0.54 0.42,-0.1 1.13,-0.35 2.05,-0.64 0.84,-0.29 1.83,-0.54 3.1,-0.71 1.34,-0.17 2.82,-0.25 4.23,-0.39 1.34,-0.14 2.54,-0.34 4.09,-0.53 0.99,-0.12 2.26,-0.25 3.6,-0.38 0.49,-0.1 1.05,-0.1 1.69,-0.16 -0.64,-0.1 -1.2,-0.1 -1.69,-0.16 -2.12,-0.19 -4.09,-0.35 -6,-0.33 -2.25,0 -4.23,0.31 -5.99,0.61 z m 5.43,-6.85 c -2.26,0.29 -4.51,0.64 -6.21,0.95 -1.69,0.32 -2.75,0.61 -3.31,0.94 -0.71,0.33 -0.85,0.68 -0.64,0.92 0.22,0.24 0.78,0.36 1.63,0.22 0.84,-0.14 1.9,-0.54 3.38,-0.9 1.48,-0.37 3.31,-0.7 5.08,-1.03 1.69,-0.33 3.31,-0.64 4.65,-0.81 1.27,-0.17 2.4,-0.19 3.53,-0.27 0.56,-0.1 1.27,-0.1 1.83,-0.16 0.63,-0.1 1.27,-0.13 1.9,-0.19 -0.63,-0.1 -1.2,-0.12 -1.76,-0.16 -1.2,-0.1 -2.33,-0.15 -3.67,-0.12 -1.97,0.1 -4.23,0.31 -6.41,0.61 z m -2.96,-4.66 c -1.7,0.4 -3.18,0.76 -4.38,1.28 -1.19,0.53 -2.11,1.23 -3.1,1.92 1.55,-0.35 3.1,-0.72 4.59,-1.08 1.41,-0.37 2.75,-0.75 4.3,-1.19 1.55,-0.45 3.38,-0.96 5.21,-1.41 1.84,-0.45 3.74,-0.82 5.22,-1.02 1.41,-0.2 2.54,-0.22 3.6,-0.26 0.56,0 1.27,-0.1 1.76,-0.1 0.42,0 0.85,-0.1 1.2,-0.1 -0.35,-0.1 -0.71,-0.15 -1.06,-0.21 -0.49,-0.1 -1.27,-0.17 -2.04,-0.19 -1.27,0 -2.89,0.15 -4.59,0.35 -1.62,0.2 -3.24,0.44 -5.14,0.78 -1.77,0.35 -3.81,0.8 -5.57,1.21 z m 8.03,-6.52 c -1.69,0.69 -3.52,1.52 -5.28,2.35 0.77,-0.16 1.48,-0.32 2.46,-0.59 1.06,-0.28 2.33,-0.69 3.74,-1.1 1.41,-0.4 3.03,-0.81 4.51,-1.11 1.55,-0.31 2.97,-0.51 4.23,-0.65 0.92,-0.1 1.7,-0.18 2.33,-0.24 0.21,0 0.42,-0.1 0.57,-0.1 -0.15,-0.1 -0.36,-0.1 -0.57,-0.15 -0.56,-0.12 -1.2,-0.22 -1.97,-0.26 -1.2,-0.1 -2.96,0 -4.73,0.3 -1.76,0.3 -3.45,0.82 -5.29,1.51 z m -14.1,4.75 c 1.13,-0.56 2.12,-1.34 3.25,-2.23 1.19,-0.9 2.53,-1.93 3.94,-2.87 1.41,-0.95 2.82,-1.79 4.38,-2.63 1.55,-0.83 3.1,-1.64 4.86,-2.18 1.83,-0.55 3.81,-0.82 5.43,-1.04 1.69,-0.2 2.89,-0.34 4.09,-0.48 -0.99,-0.1 -1.9,-0.2 -3.03,-0.21 -1.2,0 -2.47,0.1 -3.74,0.18 -1.27,0.15 -2.61,0.39 -4.3,0.91 -1.62,0.53 -3.67,1.34 -5.64,2.39 -1.98,1.05 -3.88,2.33 -5.5,3.52 -1.62,1.17 -3.03,2.24 -4.16,3.21 -1.13,0.98 -2.05,1.84 -2.82,2.71 1.13,-0.35 2.26,-0.71 3.24,-1.28 z m -8.11,16.17 c -1.05,0.75 -2.32,1.84 -3.52,3.04 -1.2,1.19 -2.33,2.5 -3.67,3.97 -1.27,1.49 -2.68,3.11 -4.02,4.73 0.28,0 0.57,0 1.2,-0.42 0.57,-0.42 1.48,-1.34 2.61,-2.54 1.13,-1.2 2.47,-2.72 3.81,-3.93 1.34,-1.22 2.68,-2.13 3.59,-2.88 0.85,-0.74 1.41,-1.31 1.77,-1.88 0.35,-0.57 0.56,-1.12 0.28,-1.19 -0.35,-0.1 -1.13,0.35 -2.05,1.1 z m -2.61,-1.97 c -1.33,1.34 -2.53,2.52 -3.66,3.81 -1.2,1.27 -2.4,2.63 -3.39,3.98 -1.12,1.35 -1.97,2.68 -2.89,4.02 0.57,-0.64 1.2,-1.34 1.98,-2.19 0.77,-0.8 1.69,-1.81 2.82,-2.92 1.13,-1.12 2.54,-2.35 3.81,-3.55 1.33,-1.2 2.75,-2.36 3.87,-3.12 1.2,-0.77 2.12,-1.13 2.54,-1.63 0.35,-0.5 0.21,-1.16 0,-1.63 -0.28,-0.48 -0.56,-0.78 -1.48,-0.18 -0.85,0.59 -2.26,2.08 -3.6,3.41 z m -4.58,2.73 c 0.99,-1.15 1.98,-2.22 2.89,-3.13 0.99,-0.91 1.77,-1.67 2.33,-2.25 0.49,-0.58 0.7,-1 0.63,-1.28 -0.1,-0.27 -0.35,-0.42 -0.98,-0.1 -0.5,0.33 -1.27,1.12 -2.4,2.28 -1.06,1.16 -2.47,2.68 -3.74,4.16 -1.2,1.47 -2.39,2.89 -3.31,4.24 -0.99,1.35 -1.69,2.61 -2.47,3.88 1.27,-1.38 2.54,-2.76 3.67,-4.08 1.2,-1.32 2.25,-2.57 3.38,-3.73 z m 36.03,-32.8 c 1.62,0 2.96,0.24 3.88,0.71 0.28,0.15 0.64,0.31 0.78,0.51 h 0.21 c 0,0.1 0.1,0.16 0.1,0.23 -1.06,0 -2.33,0 -3.53,0.1 -1.06,0.1 -2.04,0.12 -3.17,0.32 -1.06,0.17 -2.19,0.46 -3.31,0.8 -1.13,0.35 -1.91,0.77 -3.18,1.4 -0.35,0.19 -0.63,0.4 -1.13,0.62 -0.91,0.56 -2.04,1.24 -3.31,2.05 -1.9,1.16 -4.02,2.59 -6.06,4.12 -2.05,1.56 -3.95,3.2 -5.08,4.4 -1.27,1.2 -1.76,1.92 -2.19,2.61 -0.35,0.68 -0.77,1.29 -0.98,1.79 -0.28,0.49 -0.43,0.87 -0.43,1.02 0.15,0.13 0.29,0.1 0.78,-0.26 0.63,-0.28 1.48,-0.76 2.54,-1.3 0.91,-0.56 2.04,-1.16 2.96,-1.7 1.2,-0.54 2.11,-1.03 2.75,-1.41 0.63,-0.4 0.85,-0.68 1.62,-1.29 0.78,-0.62 2.05,-1.55 3.24,-2.39 1.34,-0.85 2.61,-1.59 4.16,-2.4 1.63,-0.82 3.67,-1.72 5.22,-2.27 1.62,-0.54 2.68,-0.75 3.88,-0.93 1.13,-0.2 2.19,-0.37 3.38,-0.47 0.92,-0.1 1.84,-0.13 3.04,-0.13 h 0.42 v 0.4 h -0.42 c -0.99,0 -2.12,0.1 -3.39,0.17 -1.48,0.17 -3.24,0.44 -5.07,1.02 -2.12,0.58 -4.38,1.49 -6.28,2.47 -2.04,0.98 -3.74,2.01 -5.01,2.86 -1.27,0.86 -2.25,1.54 -2.89,2.01 -0.63,0.46 -0.77,0.68 -0.77,0.77 0.14,0.1 0.28,0 0.77,-0.1 0.29,-0.1 0.78,-0.19 1.41,-0.33 0.78,-0.14 1.77,-0.34 2.89,-0.58 1.06,-0.24 2.33,-0.53 3.81,-0.86 1.27,-0.32 2.68,-0.67 3.95,-0.93 1.13,-0.25 2.12,-0.42 3.38,-0.58 0.92,-0.16 2.33,-0.3 3.32,-0.37 0.99,-0.1 1.76,-0.1 2.26,0 0.42,0.1 0.84,0.11 1.12,0.17 -0.21,0.14 -0.21,0.24 -0.21,0.36 -0.28,-0.1 -0.56,-0.1 -0.91,-0.13 -0.36,0 -0.64,-0.1 -0.99,-0.1 -0.57,0 -1.34,0.1 -2.68,0.21 -1.13,0.17 -2.89,0.48 -4.8,0.86 -1.76,0.39 -3.8,0.89 -5.57,1.3 -1.76,0.43 -3.31,0.78 -4.58,1.05 -1.41,0.27 -2.68,0.46 -3.45,0.69 -0.99,0.23 -1.49,0.52 -2.4,0.96 -0.99,0.43 -2.26,1.05 -3.25,1.57 -1.12,0.52 -1.9,0.99 -2.46,1.33 -0.71,0.37 -1.13,0.62 -1.48,0.81 -0.29,0.18 -0.29,0.29 -0.14,0.45 0.14,0.17 0.63,0.38 0.91,0.71 0.5,0.32 1.2,0.75 1.48,0.89 0.5,0.14 0.78,0 1.69,-0.26 0.85,-0.31 2.26,-0.75 3.81,-1.2 1.62,-0.43 3.53,-0.86 5.43,-1.3 2.05,-0.42 4.09,-0.91 5.85,-1.27 1.77,-0.35 3.18,-0.58 4.45,-0.78 1.34,-0.17 2.39,-0.3 3.38,-0.35 h 0.78 c 0.42,0 0.77,0 1.12,0.1 0.57,0.1 0.85,0.22 1.34,0.36 -0.21,0.1 -0.21,0.17 -0.21,0.27 -0.49,-0.11 -0.98,-0.27 -1.62,-0.27 h -0.63 c -0.78,0 -1.77,0.1 -3.04,0.25 -1.62,0.2 -3.66,0.56 -5.71,0.99 -2.18,0.41 -4.09,0.92 -6.2,1.37 -1.91,0.48 -3.6,0.93 -5.22,1.36 -1.55,0.41 -3.03,0.82 -3.67,1.12 -0.63,0.29 -0.63,0.48 -0.49,0.78 0.21,0.3 0.35,0.72 0.63,1.21 0.22,0.49 0.5,1.06 0.71,1.36 0.14,0.29 0.42,0.36 0.78,0.36 0.28,-0.1 0.56,-0.1 1.41,-0.28 0.77,-0.16 1.76,-0.4 3.03,-0.67 1.06,-0.27 2.39,-0.55 4.16,-0.82 1.69,-0.26 3.95,-0.49 5.64,-0.62 1.76,-0.14 2.75,-0.14 4.02,-0.14 0.14,0.1 0.63,0.1 0.91,0.1 0.78,0.1 1.56,0.1 2.4,0.1 0,0.29 -0.14,0.54 -0.14,0.8 -0.49,-0.1 -0.99,-0.1 -1.76,-0.16 h -0.28 c -0.85,0 -1.98,0 -3.39,0.1 -1.41,0.1 -3.17,0.27 -4.72,0.47 -1.77,0.2 -3.53,0.44 -5.08,0.72 -1.62,0.24 -2.89,0.55 -4.02,0.77 -0.92,0.21 -1.69,0.36 -2.18,0.55 -0.5,0.17 -0.78,0.37 -1.13,0.86 -0.36,0.5 -0.64,1.24 -1.13,2.01 v -0.12 c -0.35,0.76 -0.64,1.53 -0.78,1.93 -0.14,0.39 0,0.46 0.64,0.39 0.49,0 1.27,-0.14 2.54,-0.3 1.12,-0.16 2.53,-0.35 4.02,-0.5 1.34,-0.18 2.82,-0.32 4.23,-0.39 1.27,-0.1 2.68,0 3.8,0 1.13,0 1.91,0 2.82,0.1 h 0.71 c 1.06,0.1 2.18,0.19 3.17,0.3 0,0.25 0,0.52 -0.21,0.79 -0.92,-0.11 -1.9,-0.22 -3.31,-0.28 h -0.14 c -1.63,-0.1 -3.46,-0.13 -5.43,-0.1 -2.05,0.1 -3.95,0.17 -5.64,0.34 -1.98,0.18 -3.88,0.42 -5.15,0.56 -1.27,0.15 -1.91,0.22 -2.4,0.36 -0.49,0.13 -0.77,0.34 -1.27,0.99 -0.63,0.64 -1.55,1.7 -2.04,2.49 -0.64,0.78 -0.92,1.28 -1.13,1.59 -0.14,0.32 -0.14,0.39 0.21,0.39 0.14,0 0.56,-0.14 1.27,-0.21 0.78,-0.1 1.9,-0.1 3.17,-0.1 1.41,-0.1 2.96,0 4.94,0 1.9,0 4.23,0 6.34,0.1 2.05,0 3.74,0.14 5.22,0.21 0.14,0.1 0.28,0.1 0.5,0.1 1.12,0.14 2.18,0.28 3.31,0.43 0,0.21 0,0.49 -0.14,0.7 -1.2,-0.14 -2.26,-0.21 -3.67,-0.28 -0.49,-0.1 -1.13,-0.1 -1.76,-0.1 -2.05,-0.1 -4.44,-0.14 -7.12,-0.14 h -7.62 c -2.25,0 -3.66,0.1 -4.79,0.28 -0.92,0.21 -1.41,0.56 -2.05,1.34 -0.77,0.7 -1.9,1.76 -2.25,2.4 -0.5,0.56 -0.29,0.7 0.21,0.84 0.49,0.14 1.27,0.21 2.68,0.21 1.27,0.14 3.17,0.22 5.5,0.36 2.39,0.21 5.29,0.49 7.61,0.77 2.47,0.21 4.16,0.28 5.93,0.43 h 0.49 c 1.62,0.1 2.96,0.28 4.3,0.42 0,0.21 0,0.42 -0.21,0.63 -1.41,-0.14 -2.68,-0.14 -4.09,-0.21 -0.99,0 -1.98,-0.1 -3.03,-0.21 -2.4,-0.14 -4.94,-0.35 -7.12,-0.56 -2.4,-0.1 -4.45,-0.22 -6.35,-0.36 -2.05,-0.14 -3.95,-0.42 -5.22,-0.49 -1.2,-0.1 -1.76,-0.1 -2.11,0 -0.29,0 -0.64,0.1 -1.06,0.28 0,0.1 -0.21,0.1 -0.42,0.21 -0.78,0.36 -1.7,0.92 -3.25,2.05 -1.62,1.2 -3.66,2.889 -5.57,4.44 -1.972,1.481 -3.524,2.891 -4.299,3.666 -0.776,0.847 -0.776,1.129 -0.776,1.34 0.141,0.212 0.494,0.494 0.776,0.353 0.493,-0.07 1.057,-0.353 1.763,-0.846 0.564,-0.282 1.406,-0.847 2.186,-1.129 0.77,-0.493 1.55,-0.775 3.03,-1.057 1.27,-0.353 3.17,-0.494 5.08,-0.846 1.76,-0.07 3.66,-0.353 5.22,-0.494 0.28,0 0.7,0 1.12,0 1.27,-0.07 2.54,-0.07 3.95,0 1.98,0 4.3,0.212 6.42,0.494 2.04,0.282 3.74,0.564 5.22,0.846 1.41,0.282 2.68,0.352 3.8,0.423 -0.14,0.141 -0.14,0.282 -0.35,0.352 -0.14,0.212 -0.28,0.353 -0.56,0.494 -0.85,-0.141 -1.77,-0.282 -3.25,-0.494 h -0.14 c -1.55,-0.211 -3.45,-0.493 -5.71,-0.775 -2.54,-0.141 -5.07,-0.423 -7.82,-0.494 -1.2,0 -2.68,0 -3.95,0 -1.27,0 -2.47,0.07 -3.67,0.141 -2.19,0.212 -4.09,0.353 -5.36,0.635 -1.27,0.282 -2.04,0.634 -3.03,1.199 -0.92,0.493 -2.186,1.269 -2.962,1.551 -0.212,0.141 -0.353,0.211 -0.494,0.211 0,0.07 -0.211,0.07 -0.211,0.141 0.987,-0.141 2.256,-0.211 4.157,-0.282 1.77,-0.07 4.45,0 6.84,0 1.84,0.07 3.67,0.07 4.94,0.07 0.49,0 0.77,0.07 1.06,0.07 1.62,0.212 2.68,0.4938 3.66,0.7759 -2.96,0.071 -6.34,0.141 -9.16,0.282 -4.16,0.071 -7.06,0.282 -9.452,0.5641 -2.045,0.3525 -3.737,0.7051 -5.289,1.128 h -1.128 v -6.628 c 0.353,-1.41 0.776,-2.75 1.269,-4.089 0.423,-1.342 0.917,-2.542 1.904,-4.582 0.776,-1.97 2.186,-4.8 3.455,-7.16 1.271,-2.35 2.401,-4.25 4.161,-6.65 1.55,-2.39 3.95,-5.3 6.42,-8.22 2.6,-2.94 5.28,-5.92 8.32,-8.64 2.89,-2.75 6.06,-5.23 8.88,-7.16 2.68,-1.92 5.08,-3.26 7.12,-4.39 2.12,-1.13 3.88,-2.05 5.85,-2.72 2.12,-0.68 4.16,-1.1 6.07,-1.2 0.14,0 0.49,0 0.63,-0.1 z m -25.59,16.32 c -1.06,0.99 -2.19,1.95 -3.18,2.83 -0.91,0.85 -1.55,1.62 -2.32,2.46 -0.92,0.86 -1.91,1.79 -2.68,2.7 0.91,-0.6 2.04,-1.18 2.82,-1.71 0.92,-0.51 1.9,-0.94 2.68,-1.38 0.35,-0.64 0.63,-1.28 0.84,-1.87 0.29,-0.61 0.64,-1.15 0.92,-1.64 0.35,-0.49 0.64,-0.93 0.92,-1.39 z m -2.68,5.69 c 0,0 -0.14,0.1 -0.28,0.1 -0.64,0.19 -1.56,0.75 -2.68,1.36 -0.99,0.61 -2.05,1.29 -3.25,2.18 -1.05,0.88 -2.18,1.97 -3.24,3.35 -1.34,1.37 -2.61,3.02 -3.88,4.8 -1.41,1.79 -2.68,3.71 -3.74,5.54 -0.49,0.87 -0.98,1.64 -1.48,2.49 -0.49,0.84 -0.913,1.69 -1.265,2.47 -0.635,1.48 -1.129,2.68 -1.411,3.94 v 0.22 c 0,-0.1 0,-0.15 0.141,-0.22 0.141,-0.21 0.635,-0.42 0.846,-0.42 0.283,-0.1 0.424,0 0.565,-0.1 0.211,-0.14 0.282,-0.35 0.493,-0.49 0.141,-0.14 0.491,-0.14 0.631,0 0.29,0.1 0.29,0.28 0.64,0.35 0.14,0.1 0.35,0 0.49,0 0.14,0 0.35,0.14 0.42,0.21 0,0.14 0.22,0.28 0.36,0.35 0,0.1 0.35,0 0.42,0.1 0.21,0.1 0.21,0.43 0,0.92 -0.1,0.56 -0.42,1.341 -0.85,1.975 -0.35,0.705 -0.98,1.199 -1.34,1.692 -0.49,0.423 -0.982,0.776 -0.982,1.058 -0.07,0.212 -0.07,0.353 -0.07,0.564 l 0.423,-0.352 c 0.989,-0.776 2.039,-1.693 3.169,-2.609 1.48,-1.128 2.82,-2.258 4.3,-3.388 1.63,-1.12 2.97,-2.25 3.81,-3.03 0.99,-0.77 1.27,-1.13 2.05,-1.83 0.7,-0.78 1.76,-1.91 2.53,-2.75 0.85,-0.78 1.13,-1.31 1.77,-2.18 0.84,-0.9 1.76,-2.15 2.54,-3 0.63,-0.86 0.98,-1.34 1.48,-2.2 0.49,-0.85 1.05,-2.12 1.55,-3.04 0.49,-0.92 0.63,-1.53 0.63,-2.35 -0.14,-0.83 -0.63,-1.87 -1.13,-2.55 -0.28,-0.66 -0.49,-0.93 -0.98,-1.34 -0.43,-0.41 -1.2,-0.99 -1.7,-1.35 -0.35,-0.27 -0.63,-0.45 -0.98,-0.45 z m -17.77,32.278 c 0.35,0 0.49,0.282 0.7,0.423 0.1,0.353 0,0.635 -0.35,0.987 -0.35,0.282 -0.84,0.635 -1.48,0.987 -0.563,0.353 -1.056,0.776 -1.55,0.847 -0.494,0.211 -0.776,0.141 -0.987,0 0,-0.07 0,-0.353 0.211,-0.706 0.282,-0.352 0.987,-0.846 1.411,-1.339 0.634,-0.494 1.265,-1.058 1.765,-1.199 0.14,0 0.28,0 0.28,0 z m -40.71,-3.032 c 1.27,-0.211 2.04,-0.211 2.77,-0.211 0.77,0 1.56,0 1.92,0.211 0.36,0.212 0.29,0.494 -0.12,0.635 -0.36,0.282 -1.15,0.352 -2.35,0.423 -1.14,0.07 -2.7,0.07 -4.25,0.211 -1.56,0.141 -3.25,0.353 -4.69,0.494 -1.5,0.211 -2.87,0.423 -4.25,0.494 -1.15,0.141 -2.35,0.282 -3.48,0.352 -0.18,0.07 -0.36,0.07 -0.54,0.07 0.18,0 0.36,-0.07 0.54,-0.07 1.44,-0.423 2.88,-0.776 4.38,-1.058 1.73,-0.352 3.66,-0.634 5.39,-0.916 1.81,-0.282 3.49,-0.494 4.68,-0.635 z m -3.9,-2.606 c 2.23,-0.36 4.09,-0.5 5.7,-0.5 1.57,0 2.82,0.14 3.54,0.43 0.72,0.14 0.84,0.42 0.48,0.63 -0.36,0.21 -1.25,0.35 -2.21,0.42 -0.97,0.1 -1.98,-0.1 -3.18,-0.1 -1.2,-0.1 -2.58,-0.1 -4.09,0.1 -1.5,0.15 -3.18,0.43 -4.68,0.639 -1.49,0.282 -2.93,0.494 -4.14,0.776 -0.96,0.07 -1.79,0.282 -2.63,0.423 -0.31,0 -0.6,0.07 -0.91,0.141 0.31,-0.141 0.6,-0.212 0.91,-0.353 1.38,-0.493 2.82,-1.057 4.5,-1.406 2.03,-0.5 4.56,-0.92 6.71,-1.2 z m -3.83,-6.07 c 2.28,-0.14 4.19,-0.28 5.87,-0.28 1.69,0 3.06,0.21 3.97,0.49 0.9,0.22 1.31,0.57 1.19,0.78 -0.12,0.21 -0.72,0.21 -1.55,0.28 -0.91,0 -2.04,0 -3.73,0 -1.68,0 -3.9,0.1 -6,0.21 -2.04,0.15 -3.9,0.36 -5.7,0.5 -1.67,0.1 -3.29,0.1 -4.43,0.1 -0.1,0 -0.1,0 -0.1,0 -1.2,0 -1.8,0 -2.46,-0.1 0.78,-0.28 1.62,-0.5 2.46,-0.71 1.02,-0.21 2.1,-0.49 3.3,-0.63 2.22,-0.28 4.86,-0.5 7.14,-0.64 z m -2.22,-7.29 c 2.1,0 3.83,0.16 5.1,0.4 1.26,0.23 1.98,0.53 2.58,0.94 0.6,0.4 1.01,0.91 1.08,1.19 0.1,0.28 -0.31,0.32 -0.96,0.21 -0.72,-0.11 -1.75,-0.37 -3.18,-0.57 -1.44,-0.21 -3.37,-0.37 -5.17,-0.5 -1.79,-0.14 -3.47,-0.25 -5.09,-0.27 -1.56,0 -3.01,0 -4.14,0 -0.48,0 -0.9,0 -1.26,0 -0.48,0 -0.9,-0.1 -1.32,-0.1 0.48,-0.1 0.96,-0.15 1.38,-0.22 1.37,-0.22 2.82,-0.42 4.38,-0.6 2.1,-0.26 4.5,-0.48 6.6,-0.5 z m -0.6,-6.14 c 1.68,0.3 3.12,0.59 4.07,0.97 0.96,0.38 1.39,0.83 1.51,1.18 0.12,0.35 0,0.58 -0.48,0.54 -0.43,-0.1 -1.15,-0.35 -2.04,-0.64 -0.85,-0.29 -1.86,-0.54 -3.12,-0.71 -1.32,-0.17 -2.83,-0.25 -4.2,-0.39 -1.38,-0.14 -2.52,-0.34 -4.08,-0.53 -1.03,-0.12 -2.28,-0.25 -3.61,-0.38 -0.53,-0.1 -1.07,-0.1 -1.67,-0.16 0.6,-0.1 1.14,-0.1 1.67,-0.16 2.11,-0.19 4.09,-0.35 5.95,-0.33 2.28,0 4.26,0.31 6,0.61 z m -5.4,-6.85 c 2.27,0.29 4.5,0.64 6.17,0.95 1.68,0.32 2.77,0.61 3.37,0.94 0.65,0.33 0.84,0.68 0.6,0.92 -0.19,0.24 -0.79,0.36 -1.62,0.22 -0.84,-0.14 -1.92,-0.54 -3.36,-0.9 -1.5,-0.37 -3.36,-0.7 -5.11,-1.03 -1.67,-0.33 -3.3,-0.64 -4.61,-0.81 -1.32,-0.17 -2.4,-0.19 -3.54,-0.27 -0.6,-0.1 -1.26,-0.1 -1.87,-0.16 -0.59,-0.1 -1.25,-0.13 -1.85,-0.19 0.6,-0.1 1.14,-0.12 1.73,-0.16 1.21,-0.1 2.35,-0.15 3.66,-0.12 1.99,0.1 4.21,0.31 6.43,0.61 z m 2.94,-4.66 c 1.74,0.4 3.18,0.76 4.38,1.28 1.2,0.53 2.15,1.23 3.11,1.92 -1.56,-0.35 -3.11,-0.72 -4.55,-1.08 -1.45,-0.37 -2.77,-0.75 -4.32,-1.19 -1.56,-0.45 -3.42,-0.96 -5.22,-1.41 -1.86,-0.45 -3.72,-0.82 -5.22,-1.02 -1.45,-0.2 -2.58,-0.22 -3.6,-0.26 -0.6,0 -1.2,-0.1 -1.74,-0.1 -0.42,0 -0.79,-0.1 -1.2,-0.1 0.36,-0.1 0.72,-0.15 1.08,-0.21 0.54,-0.1 1.19,-0.17 1.98,-0.19 1.32,0 2.94,0.15 4.62,0.35 1.62,0.2 3.24,0.44 5.09,0.78 1.81,0.35 3.85,0.8 5.59,1.21 z m -8.04,-6.52 c 1.73,0.69 3.54,1.52 5.34,2.35 -0.79,-0.16 -1.5,-0.32 -2.52,-0.59 -1.02,-0.28 -2.28,-0.69 -3.72,-1.1 -1.38,-0.4 -3,-0.81 -4.5,-1.11 -1.56,-0.31 -3.01,-0.51 -4.2,-0.65 -0.91,-0.1 -1.68,-0.18 -2.34,-0.24 -0.18,0 -0.36,-0.1 -0.54,-0.1 0.18,-0.1 0.36,-0.1 0.6,-0.15 0.53,-0.12 1.13,-0.22 1.97,-0.26 1.21,-0.1 2.89,0 4.63,0.3 1.74,0.3 3.47,0.82 5.28,1.51 z m 14.09,4.75 c -1.07,-0.56 -2.1,-1.34 -3.23,-2.23 -1.21,-0.9 -2.53,-1.93 -3.9,-2.87 -1.45,-0.95 -2.88,-1.79 -4.39,-2.63 -1.56,-0.83 -3.11,-1.64 -4.91,-2.18 -1.8,-0.55 -3.78,-0.82 -5.4,-1.04 -1.62,-0.2 -2.82,-0.34 -4.02,-0.48 0.96,-0.1 1.92,-0.2 3.06,-0.21 1.08,0 2.4,0.1 3.66,0.18 1.26,0.15 2.58,0.39 4.26,0.91 1.68,0.53 3.72,1.34 5.69,2.39 1.93,1.05 3.85,2.33 5.47,3.52 1.61,1.17 3.06,2.24 4.19,3.21 1.08,0.98 1.99,1.84 2.82,2.71 -1.14,-0.35 -2.27,-0.71 -3.3,-1.28 z m 8.16,16.17 c 1.02,0.75 2.29,1.84 3.49,3.04 1.19,1.19 2.34,2.5 3.66,3.97 1.25,1.49 2.7,3.11 4.07,4.73 -0.3,0 -0.6,0 -1.2,-0.42 -0.6,-0.42 -1.49,-1.34 -2.64,-2.54 -1.14,-1.2 -2.46,-2.72 -3.77,-3.93 -1.39,-1.22 -2.7,-2.13 -3.61,-2.88 -0.89,-0.74 -1.44,-1.31 -1.8,-1.88 -0.36,-0.57 -0.54,-1.12 -0.24,-1.19 0.31,-0.1 1.08,0.35 2.04,1.1 z m 2.58,-1.97 c 1.32,1.34 2.53,2.52 3.66,3.81 1.2,1.27 2.41,2.63 3.42,3.98 1.08,1.35 1.98,2.68 2.89,4.02 -0.61,-0.64 -1.21,-1.34 -1.99,-2.19 -0.78,-0.8 -1.67,-1.81 -2.82,-2.92 -1.14,-1.12 -2.51,-2.35 -3.84,-3.55 -1.32,-1.2 -2.7,-2.36 -3.83,-3.12 -1.2,-0.77 -2.17,-1.13 -2.53,-1.63 -0.41,-0.5 -0.24,-1.16 0,-1.63 0.24,-0.48 0.54,-0.78 1.45,-0.18 0.84,0.59 2.27,2.08 3.59,3.41 z m 4.62,2.73 c -1.01,-1.15 -2.04,-2.22 -2.94,-3.13 -0.96,-0.91 -1.73,-1.67 -2.28,-2.25 -0.54,-0.58 -0.72,-1 -0.66,-1.28 0.1,-0.27 0.37,-0.42 0.97,-0.1 0.53,0.33 1.32,1.12 2.39,2.28 1.08,1.16 2.47,2.68 3.72,4.16 1.26,1.47 2.4,2.89 3.36,4.24 0.96,1.35 1.68,2.61 2.46,3.88 -1.26,-1.38 -2.52,-2.76 -3.66,-4.08 -1.19,-1.32 -2.28,-2.57 -3.36,-3.73 z m -36.05,-32.8 c -1.62,0 -2.88,0.24 -3.84,0.71 -0.31,0.15 -0.6,0.31 -0.79,0.51 h -0.17 c 0,0.1 -0.12,0.16 -0.12,0.23 1.08,0 2.34,0 3.47,0.1 1.09,0.1 2.05,0.12 3.18,0.32 1.09,0.17 2.23,0.46 3.3,0.8 1.15,0.35 1.93,0.77 3.18,1.4 0.36,0.19 0.67,0.4 1.15,0.62 0.96,0.56 2.03,1.24 3.3,2.05 1.91,1.16 4.02,2.59 6.05,4.12 2.05,1.56 3.97,3.2 5.11,4.4 1.25,1.2 1.73,1.92 2.21,2.61 0.31,0.68 0.78,1.29 0.97,1.79 0.29,0.49 0.41,0.87 0.41,1.02 -0.12,0.13 -0.29,0.1 -0.78,-0.26 -0.6,-0.28 -1.44,-0.76 -2.52,-1.3 -0.95,-0.56 -2.03,-1.16 -2.99,-1.7 -1.14,-0.54 -2.1,-1.03 -2.7,-1.41 -0.67,-0.4 -0.84,-0.68 -1.62,-1.29 -0.79,-0.62 -2.04,-1.55 -3.3,-2.39 -1.32,-0.85 -2.59,-1.59 -4.14,-2.4 -1.63,-0.82 -3.66,-1.72 -5.22,-2.27 -1.62,-0.54 -2.7,-0.75 -3.84,-0.93 -1.14,-0.2 -2.23,-0.37 -3.37,-0.47 -0.89,-0.1 -1.85,-0.13 -2.99,-0.13 h -0.48 v 0.4 h 0.48 c 0.95,0 2.1,0.1 3.36,0.17 1.44,0.17 3.18,0.44 5.04,1.02 2.09,0.58 4.32,1.49 6.23,2.47 2.05,0.98 3.78,2.01 5.05,2.86 1.26,0.86 2.22,1.54 2.88,2.01 0.6,0.46 0.77,0.68 0.77,0.77 -0.17,0.1 -0.29,0 -0.77,-0.1 -0.3,-0.1 -0.78,-0.19 -1.45,-0.33 -0.77,-0.14 -1.73,-0.34 -2.87,-0.58 -1.08,-0.24 -2.34,-0.53 -3.78,-0.86 -1.26,-0.32 -2.7,-0.67 -3.97,-0.93 -1.13,-0.25 -2.09,-0.42 -3.35,-0.58 -0.96,-0.16 -2.34,-0.3 -3.3,-0.37 -0.97,-0.1 -1.74,-0.1 -2.22,0 -0.48,0.1 -0.84,0.11 -1.14,0.17 0.18,0.14 0.18,0.24 0.18,0.36 0.29,-0.1 0.6,-0.1 0.96,-0.13 0.29,0 0.6,-0.1 0.96,-0.1 0.6,0 1.38,0.1 2.64,0.21 1.14,0.17 2.88,0.48 4.8,0.86 1.74,0.39 3.77,0.89 5.52,1.3 1.79,0.43 3.36,0.78 4.61,1.05 1.44,0.27 2.71,0.46 3.49,0.69 0.96,0.23 1.44,0.52 2.4,0.96 0.95,0.43 2.22,1.05 3.18,1.57 1.14,0.52 1.91,0.99 2.51,1.33 0.67,0.37 1.14,0.62 1.45,0.81 0.29,0.18 0.29,0.29 0.17,0.45 -0.17,0.17 -0.66,0.38 -0.95,0.71 -0.48,0.32 -1.15,0.75 -1.44,0.89 -0.48,0.14 -0.79,0 -1.74,-0.26 -0.79,-0.31 -2.23,-0.75 -3.78,-1.2 -1.63,-0.43 -3.54,-0.86 -5.41,-1.3 -2.1,-0.42 -4.13,-0.91 -5.88,-1.27 -1.73,-0.35 -3.18,-0.58 -4.43,-0.78 -1.32,-0.17 -2.41,-0.3 -3.36,-0.35 h -0.78 c -0.48,0 -0.78,0 -1.14,0.1 -0.48,0.1 -0.78,0.22 -1.26,0.36 0.18,0.1 0.18,0.17 0.18,0.27 0.48,-0.11 0.96,-0.27 1.56,-0.27 h 0.66 c 0.78,0 1.73,0.1 3,0.25 1.62,0.2 3.66,0.56 5.69,0.99 2.23,0.41 4.14,0.92 6.24,1.37 1.87,0.48 3.61,0.93 5.22,1.36 1.57,0.41 3.01,0.82 3.67,1.12 0.6,0.29 0.6,0.48 0.48,0.78 -0.19,0.3 -0.36,0.72 -0.66,1.21 -0.19,0.49 -0.48,1.06 -0.67,1.36 -0.12,0.29 -0.41,0.36 -0.77,0.36 -0.31,-0.1 -0.6,-0.1 -1.44,-0.28 -0.78,-0.16 -1.74,-0.4 -3.01,-0.67 -1.07,-0.27 -2.39,-0.55 -4.13,-0.82 -1.75,-0.26 -3.97,-0.49 -5.7,-0.62 -1.74,-0.14 -2.7,-0.14 -3.96,-0.14 -0.18,0.1 -0.66,0.1 -0.96,0.1 -0.79,0.1 -1.56,0.1 -2.4,0.1 0,0.29 0.18,0.54 0.18,0.8 0.48,-0.1 0.95,-0.1 1.74,-0.16 h 0.3 c 0.84,0 1.92,0 3.36,0.1 1.44,0.1 3.18,0.27 4.74,0.47 1.74,0.2 3.53,0.44 5.09,0.72 1.57,0.24 2.89,0.55 3.97,0.77 0.95,0.21 1.74,0.36 2.22,0.55 0.48,0.17 0.77,0.37 1.13,0.86 0.31,0.5 0.61,1.24 1.09,2.01 v -0.12 c 0.36,0.76 0.65,1.53 0.77,1.93 0.19,0.39 0,0.46 -0.6,0.39 -0.48,0 -1.26,-0.14 -2.51,-0.3 -1.15,-0.16 -2.58,-0.35 -4.02,-0.5 -1.38,-0.18 -2.82,-0.32 -4.26,-0.39 -1.26,-0.1 -2.7,0 -3.84,0 -1.08,0 -1.87,0 -2.82,0.1 h -0.66 c -1.09,0.1 -2.22,0.19 -3.18,0.3 0,0.25 0,0.52 0.18,0.79 0.96,-0.11 1.91,-0.22 3.36,-0.28 h 0.12 c 1.61,-0.1 3.48,-0.13 5.39,-0.1 2.1,0.1 3.97,0.17 5.71,0.34 1.92,0.18 3.83,0.42 5.1,0.56 1.26,0.15 1.91,0.22 2.39,0.36 0.48,0.13 0.79,0.34 1.27,0.99 0.66,0.64 1.55,1.7 2.03,2.49 0.67,0.78 0.96,1.28 1.15,1.59 0.17,0.32 0.17,0.39 -0.19,0.39 -0.12,0 -0.6,-0.14 -1.25,-0.21 -0.79,-0.1 -1.93,-0.1 -3.18,-0.1 -1.44,-0.1 -3.01,0 -4.92,0 -1.92,0 -4.26,0 -6.36,0.1 -2.04,0 -3.78,0.14 -5.22,0.21 -0.19,0.1 -0.31,0.1 -0.48,0.1 -1.14,0.14 -2.22,0.28 -3.37,0.43 0,0.21 0,0.49 0.19,0.7 1.14,-0.14 2.22,-0.21 3.66,-0.28 0.48,-0.1 1.08,-0.1 1.74,-0.1 2.04,-0.1 4.43,-0.14 7.13,-0.14 h 7.63 c 2.22,0 3.66,0.1 4.79,0.28 0.9,0.21 1.38,0.56 2.05,1.34 0.77,0.7 1.91,1.76 2.22,2.4 0.48,0.56 0.29,0.7 -0.19,0.84 -0.48,0.14 -1.26,0.21 -2.7,0.21 -1.26,0.14 -3.18,0.22 -5.52,0.36 -2.39,0.21 -5.27,0.49 -7.61,0.77 -2.41,0.21 -4.14,0.28 -5.88,0.43 h -0.48 c -1.62,0.1 -3.01,0.28 -4.32,0.42 0,0.21 0,0.42 0.18,0.63 1.44,-0.14 2.7,-0.14 4.14,-0.21 0.96,0 1.92,-0.1 2.99,-0.21 2.41,-0.14 4.93,-0.35 7.15,-0.56 2.39,-0.1 4.43,-0.22 6.36,-0.36 2.03,-0.14 3.95,-0.42 5.21,-0.49 1.15,-0.1 1.75,-0.1 2.11,0 0.29,0 0.6,0.1 1.07,0.28 0,0.1 0.18,0.1 0.36,0.21 0.79,0.36 1.75,0.92 3.3,2.05 1.63,1.2 3.66,2.889 5.58,4.44 1.919,1.481 3.485,2.891 4.26,3.666 0.783,0.847 0.783,1.129 0.783,1.34 -0.12,0.212 -0.479,0.494 -0.783,0.353 -0.479,-0.07 -1.078,-0.353 -1.734,-0.846 -0.607,-0.282 -1.446,-0.847 -2.226,-1.129 -0.78,-0.493 -1.55,-0.775 -3,-1.057 -1.25,-0.353 -3.18,-0.494 -5.1,-0.846 -1.74,-0.07 -3.66,-0.353 -5.21,-0.494 -0.31,0 -0.67,0 -1.15,0 -1.26,-0.07 -2.51,-0.07 -3.95,0 -1.93,0 -4.26,0.212 -6.36,0.494 -2.05,0.282 -3.78,0.564 -5.23,0.846 -1.44,0.282 -2.69,0.352 -3.83,0.423 0.17,0.141 0.17,0.282 0.36,0.352 0.12,0.212 0.3,0.353 0.6,0.494 0.83,-0.141 1.74,-0.282 3.18,-0.494 h 0.18 c 1.56,-0.211 3.48,-0.493 5.7,-0.775 2.51,-0.141 5.09,-0.423 7.79,-0.494 1.27,0 2.71,0 3.97,0 1.25,0 2.51,0.07 3.66,0.141 2.21,0.212 4.14,0.353 5.39,0.635 1.26,0.282 2.05,0.634 3,1.199 0.96,0.493 2.226,1.269 3.001,1.551 0.184,0.141 0.36,0.211 0.48,0.211 0,0.07 0.183,0.07 0.183,0.141 -0.959,-0.141 -2.221,-0.211 -4.134,-0.282 -1.75,-0.07 -4.45,0 -6.84,0 -1.87,0.07 -3.66,0.07 -4.93,0.07 -0.48,0 -0.78,0.07 -1.07,0.07 -1.63,0.212 -2.71,0.4938 -3.66,0.7759 2.99,0.071 6.36,0.141 9.18,0.282 4.14,0.071 7.01,0.282 9.409,0.5641 2.045,0.3525 3.787,0.7051 5.359,1.128 h 1.128 v -6.628 c -0.282,-1.41 -0.775,-2.75 -1.269,-4.089 -0.493,-1.342 -0.987,-2.542 -1.918,-4.582 -0.775,-1.97 -2.214,-4.8 -3.476,-7.16 -1.263,-2.35 -2.393,-4.25 -4.143,-6.65 -1.55,-2.39 -3.96,-5.3 -6.48,-8.22 -2.58,-2.94 -5.28,-5.92 -8.27,-8.64 -2.89,-2.75 -6.07,-5.23 -8.89,-7.16 -2.69,-1.92 -5.1,-3.26 -7.13,-4.39 -2.1,-1.13 -3.85,-2.05 -5.88,-2.72 -2.11,-0.68 -4.14,-1.1 -6.06,-1.2 -0.12,0 -0.48,0 -0.6,-0.1 z m 25.55,16.32 c 1.08,0.99 2.22,1.95 3.18,2.83 0.96,0.85 1.56,1.62 2.34,2.46 0.96,0.86 1.92,1.79 2.7,2.7 -0.95,-0.6 -2.03,-1.18 -2.82,-1.71 -0.96,-0.51 -1.91,-0.94 -2.7,-1.38 -0.36,-0.64 -0.65,-1.28 -0.84,-1.87 -0.29,-0.61 -0.6,-1.15 -0.9,-1.64 -0.36,-0.49 -0.65,-0.93 -0.96,-1.39 z m 2.7,5.69 c 0,0 0.12,0.1 0.31,0.1 0.65,0.19 1.55,0.75 2.7,1.36 0.96,0.61 2.03,1.29 3.18,2.18 1.08,0.88 2.21,1.97 3.3,3.35 1.32,1.37 2.57,3.02 3.83,4.8 1.44,1.79 2.7,3.71 3.78,5.54 0.48,0.87 0.96,1.64 1.44,2.49 0.48,0.84 0.959,1.69 1.262,2.47 0.663,1.48 1.143,2.68 1.439,3.94 v 0.22 c 0,-0.1 0,-0.15 -0.12,-0.22 -0.176,-0.21 -0.656,-0.42 -0.839,-0.42 -0.296,-0.1 -0.48,0 -0.599,-0.1 -0.184,-0.14 -0.304,-0.35 -0.48,-0.49 -0.183,-0.14 -0.483,-0.14 -0.663,0 -0.3,0.1 -0.3,0.28 -0.6,0.35 -0.18,0.1 -0.36,0 -0.48,0 -0.17,0 -0.36,0.14 -0.48,0.21 0,0.14 -0.17,0.28 -0.29,0.35 0,0.1 -0.36,0 -0.48,0.1 -0.19,0.1 -0.19,0.43 0,0.92 0.12,0.56 0.48,1.341 0.89,1.975 0.36,0.705 0.96,1.199 1.32,1.692 0.48,0.423 0.959,0.776 0.959,1.058 0.12,0.212 0.12,0.353 0.12,0.564 l -0.479,-0.352 c -0.96,-0.776 -2.04,-1.693 -3.18,-2.609 -1.44,-1.128 -2.81,-2.258 -4.26,-3.388 -1.61,-1.12 -3,-2.25 -3.83,-3.03 -0.96,-0.77 -1.27,-1.13 -2.04,-1.83 -0.67,-0.78 -1.74,-1.91 -2.53,-2.75 -0.84,-0.78 -1.14,-1.31 -1.74,-2.18 -0.84,-0.9 -1.8,-2.15 -2.57,-3 -0.61,-0.86 -0.97,-1.34 -1.45,-2.2 -0.48,-0.85 -1.08,-2.12 -1.56,-3.04 -0.48,-0.92 -0.65,-1.53 -0.65,-2.35 0.17,-0.83 0.65,-1.87 1.13,-2.55 0.31,-0.66 0.48,-0.93 0.96,-1.34 0.48,-0.41 1.26,-0.99 1.74,-1.35 0.31,-0.27 0.6,-0.45 0.96,-0.45 z m 17.76,32.278 c -0.3,0 -0.47,0.282 -0.66,0.423 -0.12,0.353 0,0.635 0.36,0.987 0.3,0.282 0.78,0.635 1.44,0.987 0.599,0.353 1.086,0.776 1.565,0.847 0.48,0.211 0.776,0.141 0.959,0 0,-0.07 0,-0.353 -0.183,-0.706 -0.296,-0.352 -0.959,-0.846 -1.439,-1.339 -0.599,-0.494 -1.262,-1.058 -1.742,-1.199 -0.12,0 -0.3,0 -0.3,0 z" />
	<path style="fill:#111111;" d="m -0.9884,26.29 c -0.1406,-0.35 -0.2816,-0.85 -0.4226,-1.34 -0.282,-0.42 -0.635,-0.7 -0.776,-1.13 -0.282,-0.42 -0.423,-0.98 -0.423,-2.61 -0.07,-1.69 -0.141,-4.44 -0.212,-6.55 -0.07,-2.19 -0.141,-3.74 -0.07,-4.869 0.07,-1.128 0.282,-1.833 0.423,-2.468 h 2.4678 2.4682 c 0.141,0.635 0.352,1.34 0.423,2.468 0.07,1.129 0,2.679 -0.07,4.869 -0.07,2.11 -0.141,4.86 -0.211,6.55 0,1.63 -0.141,2.19 -0.423,2.61 -0.141,0.43 -0.494,0.71 -0.776,1.13 -0.141,0.49 -0.282,0.99 -0.4231,1.34 -0.282,0.28 -0.6346,0.35 -0.9871,0.42 -0.3526,-0.1 -0.7051,-0.14 -0.9872,-0.42 z" />
	<path style="fill:#111111;" d="m -2.187,7.605 c -0.141,-0.07 -0.212,-0.141 -0.282,-0.282 -0.212,-0.353 -0.423,-0.705 -0.635,-1.199 -0.282,-0.705 -0.564,-1.48 -0.705,-2.327 -0.282,-0.775 -0.423,-1.621 -0.493,-2.397 -0.07,-0.846 -0.141,-1.6921 -0.07,-2.3972 0.141,-1.4808 0.705,-2.3978 0.987,-3.2438 0.212,-0.352 0.282,-0.705 0.353,-0.987 0.07,-0.423 0.141,-0.705 0.211,-1.057 h 2.8208 2.8202 c 0.07,0.352 0.141,0.634 0.212,1.057 0.07,0.282 0.141,0.635 0.352,0.987 0.282,0.846 0.846,1.763 0.987,3.2438 0.07,0.7051 0,1.5512 -0.07,2.3972 -0.07,0.776 -0.212,1.622 -0.494,2.397 -0.141,0.847 -0.352,1.622 -0.705,2.327 -0.211,0.494 -0.423,0.846 -0.634,1.199 -0.07,0.141 -0.141,0.212 -0.282,0.282 -0.635,0.917 -1.4106,1.128 -2.1862,1.481 -0.7757,-0.353 -1.5508,-0.564 -2.1858,-1.481 z" />
	<path style="fill:#000000;" d="m 3.806,-16.65 c -0.705,1.2 -1.198,2.04 -1.621,2.96 -0.494,0.85 -0.917,1.76 -1.1991,2.26 -0.2115,0.49 -0.282,0.7 -0.282,0.77 -0.071,0.21 -0.071,0.36 -0.071,0.43 -0.071,0.1 -0.2115,0.14 -0.3525,0.14 0.141,-0.29 0.2115,-0.64 0.4936,-1.27 0.2115,-0.64 0.705,-1.55 1.058,-2.33 0.423,-0.77 0.776,-1.41 1.199,-2.18 0.493,-0.78 1.128,-1.63 1.692,-2.61 0.705,-0.99 1.481,-2.12 2.186,-3.19 0.705,-1.09 1.41,-2.19 2.045,-3.12 0.493,-0.93 0.987,-1.7 1.336,-2.44 0.43,-0.74 0.78,-1.46 0.99,-2.13 0.21,-0.67 0.28,-1.28 0.28,-1.91 0,-0.62 -0.1,-1.25 -0.21,-1.89 -0.14,-0.63 -0.28,-1.27 -0.28,-1.66 -0.1,-0.4 -0.14,-0.57 -0.14,-0.74 0.21,0.29 0.49,0.59 0.63,0.92 0.21,0.33 0.28,0.68 0.28,1.09 0.1,0.41 0.15,0.87 0.15,1.32 0.1,0.46 0,0.89 -0.1,1.3 -0.1,0.4 -0.14,0.78 -0.35,1.31 -0.14,0.54 -0.49,1.24 -0.77,1.96 -0.36,0.71 -0.78,1.46 -1.554,2.68 -0.776,1.22 -1.834,2.92 -2.891,4.45 -0.917,1.48 -1.834,2.82 -2.539,3.88 z m -7.615,0 c 0.705,1.2 1.199,2.04 1.622,2.96 0.494,0.85 0.917,1.76 1.1986,2.26 0.2115,0.49 0.2821,0.7 0.2821,0.77 0.071,0.21 0.071,0.36 0.141,0.43 0,0.1 0.141,0.14 0.282,0.14 -0.141,-0.29 -0.2115,-0.64 -0.4935,-1.27 -0.2116,-0.64 -0.7052,-1.55 -1.0582,-2.33 -0.423,-0.77 -0.775,-1.41 -1.198,-2.18 -0.494,-0.78 -1.128,-1.63 -1.763,-2.61 -0.649,-0.99 -1.431,-2.12 -2.15,-3.19 -0.72,-1.09 -1.439,-2.19 -2.038,-3.12 -0.543,-0.93 -1.026,-1.7 -1.386,-2.44 -0.42,-0.74 -0.72,-1.46 -0.96,-2.13 -0.18,-0.67 -0.3,-1.28 -0.3,-1.91 0,-0.62 0.12,-1.25 0.24,-1.89 0.12,-0.63 0.24,-1.27 0.3,-1.66 0.1,-0.4 0.12,-0.57 0.12,-0.74 -0.24,0.29 -0.48,0.59 -0.66,0.92 -0.17,0.33 -0.24,0.68 -0.29,1.09 -0.1,0.41 -0.12,0.87 -0.12,1.32 -0.1,0.46 0,0.89 0.1,1.3 0.1,0.4 0.18,0.78 0.36,1.31 0.18,0.54 0.48,1.24 0.78,1.96 0.36,0.71 0.77,1.46 1.557,2.68 0.782,1.22 1.861,2.92 2.877,4.45 0.965,1.48 1.882,2.82 2.587,3.88 z" />
	<path style="fill:#333333;stroke:none;" d="m 1.409,-7.202 c -0.4231,-0.423 -1.1282,-0.776 -1.2692,-1.058 -0.2116,-0.352 0.5641,-0.846 0.6346,-1.057 0.071,-0.141 0.6346,-0.353 0.7046,-0.494 0.283,0 0.424,0 0.706,0.07 0.282,0.07 0.564,0.211 0.846,0.423 0.211,0.282 0.282,0.564 0.423,0.916 0,0.282 0.07,0.635 0,0.987 0,0.282 -0.141,0.423 -0.282,0.564 -0.07,0.07 -0.212,0.212 -0.212,0.212 -0.07,-0.282 -1.269,-0.282 -1.551,-0.564 z m -2.82,0 c 0.4226,-0.423 1.1277,-0.776 1.2687,-1.058 0.2116,-0.352 -0.564,-0.846 -0.6346,-1.057 -0.071,-0.141 -0.6341,-0.353 -0.7051,-0.494 -0.282,0 -0.423,0 -0.705,0.07 -0.282,0.07 -0.564,0.211 -0.846,0.423 -0.212,0.282 -0.282,0.564 -0.353,0.916 -0.07,0.282 -0.141,0.635 -0.07,0.987 0.07,0.282 0.141,0.423 0.282,0.564 0.07,0.07 0.211,0.212 0.211,0.212 0.07,-0.282 1.27,-0.282 1.552,-0.564 z" />
	<path style="fill:#111111;" d="m -2.117,-6.215 c -0.352,0 -0.564,0 -0.705,-0.07 -0.141,-0.07 -0.141,-0.141 -0.141,-0.282 v -0.07 c 0.07,-0.282 0.353,-0.705 0.705,-0.987 0.353,-0.423 0.706,-0.705 0.847,-0.987 0.211,-0.353 0.211,-0.635 0.141,-0.846 -0.07,-0.141 -0.141,-0.212 -0.212,-0.353 -0.07,-0.07 -0.141,-0.141 0,-0.28 0.07,-0.1 0.212,-0.14 0.423,-0.14 0.071,0 0.2821,0 0.4937,0 0,0.1 0.141,0.14 0.282,0.14 0.071,0.101 0.141,0.139 0.2821,0.21 0.141,-0.07 0.2115,-0.14 0.282,-0.21 0.141,0 0.282,-0.1 0.3525,-0.14 0.1411,0 0.3526,0 0.4227,0 0.212,0 0.353,0.1 0.423,0.14 0.141,0.139 0.07,0.21 0,0.28 -0.07,0.141 -0.141,0.212 -0.211,0.353 -0.07,0.211 -0.07,0.493 0.141,0.846 0.141,0.282 0.494,0.564 0.846,0.987 0.353,0.282 0.635,0.705 0.705,0.987 v 0.07 c 0,0.141 0,0.211 -0.141,0.282 -0.141,0.07 -0.352,0.07 -0.705,0.07 -0.635,0.07 -1.3396,0.141 -2.1152,0.141 -0.7756,0 -1.4808,-0.07 -2.1158,-0.141 z" />
  </g>
</defs>
<use xlink:href="#shield" style="fill:#ffffff;" />
<g style="clip-path:url(#clip-shield)">
  <use xlink:href="#butterfly" transform="translate(75,95)"/>
  <use xlink:href="#butterfly" transform="translate(225,95)"/>
  <use xlink:href="#butterfly" transform="translate(375,95)"/>
  <use xlink:href="#butterfly" transform="translate(525,95)"/>
  <use xlink:href="#butterfly" transform="translate(0,250)"/>
  <use xlink:href="#butterfly" transform="translate(150,250)"/>
  <use xlink:href="#butterfly" transform="translate(300,250)"/>
  <use xlink:href="#butterfly" transform="translate(450,250)"/>
  <use xlink:href="#butterfly" transform="translate(600,250)"/>
  <use xlink:href="#butterfly" transform="translate(75,405)"/>
  <use xlink:href="#butterfly" transform="translate(225,405)"/>
  <use xlink:href="#butterfly" transform="translate(375,405)"/>
  <use xlink:href="#butterfly" transform="translate(525,405)"/>
  <use xlink:href="#butterfly" transform="translate(150,560)"/>
  <use xlink:href="#butterfly" transform="translate(300,560)"/>
  <use xlink:href="#butterfly" transform="translate(450,560)"/>
</g>
<use xlink:href="#shield" style="fill:url(#rg);stroke:#000000;stroke-width:3;" />
</svg>
