<?xml version="1.0" encoding="UTF-8"?>
<svg xmlns="http://www.w3.org/2000/svg" xmlns:xlink="http://www.w3.org/1999/xlink" width="600" height="660">
<defs>
  <radialGradient id="rg" gradientUnits="userSpaceOnUse" cx="220" cy="220" r="405">
    <stop style="stop-color:#fff;stop-opacity:.3" offset="0"/>
    <stop style="stop-color:#fff;stop-opacity:.2" offset=".2"/>
    <stop style="stop-color:#666;stop-opacity:.1" offset=".6"/>
    <stop style="stop-color:#000;stop-opacity:.13" offset="1"/>
  </radialGradient>
  <path id="shield" d="m2,2v257c0,286 298,398 298,398c0,0 298-112 298-398V2z"/>
  <path id="ant" fill="#c00" transform="scale(0.75)rotate(-20)" d="m -30.38164,-66.004492 10.558808,5.895732 5.14085,14.581666 8.0457157,5.742845 c -0.5758546,0.817799 -1.1213916,1.656511 -1.6530984,2.503533 -0.2777083,0.38994 -0.5741851,0.890862 -0.8695489,1.461989 -0.099071,0.191957 -0.200023,0.351792 -0.2962199,0.554218 -0.395545,0.833868 -0.7695025,1.728781 -1.0128815,2.522647 -0.823107,2.684915 -1.2692,3.109493 2.7902012,3.095978 1.2025108,0.0077 2.3526912,0.01526 3.5259729,0.01911 l -0.00954,1.356879 -4.8732959,3.783971 0.6115508,3.105531 -15.174106,0.07644 -0.03822,2.952644 -10.749933,-20.802283 -3.38264,0.286661 c -2.625196,-3.898713 -10.06969,-6.192396 -13.396786,-10.253029 l -4.73952,-9.001265 -4.213967,-0.563773 c 0,0 4.848681,8.374241 6.125064,11.065248 5.101117,3.417619 13.118671,7.64464 14.76322,9.746589 l -1.958874,2.436648 c 4.690497,7.276259 12.236726,13.924006 17.553421,20.725843 l 0.03822,2.102206 c 4.339133,-1.998031 9.036113,-4.376683 15.5467695,-6.889503 l 0.7453277,3.822193 -13.2534542,6.8990585 v 2.7042015 l -21.270503,-8.743266 v 1.442878 c -2.389045,3.9203983 -9.972203,16.0354167 -12.852124,21.2609476 -3.58245,2.1047196 -7.57355,3.9130634 -8.112604,5.4275144 -0.06458,2.676452 -0.0074,3.432521 -0.02865,5.437069 1.809537,-2.730978 5.81469,-4.658241 10.577919,-7.071057 l 10.511031,-21.3087254 1.031992,2.2837603 21.337392,3.4495291 1.777319,2.2550938 c 3.473536,-3.6439503 7.13413,-8.4065558 10.6925852,-12.0207968 l 0.9746592,4.9592954 c -0.6443636,0.5221941 -0.9595722,0.7133129 -3.3826407,2.5035363 l -9.7848137,12.976345 2.054428,1.7390978 -22.770714,-2.6086467 -0.458663,4.8828512 c 1.098208,5.873411 2.544834,12.488795 3.95597,18.671413 3.142237,12.796697 2.751798,16.381137 0.554218,21.33739 -2.16922,4.892291 -4.039398,7.305455 -1.77732,11.514356 l 2.455759,3.420863 c 0.255347,-4.183136 0.28842,-3.84774 3.946414,-10.740362 2.918088,-6.695874 2.841039,-6.974573 0.04778,-18.805186 -2.789278,-11.813743 -5.492935,-22.8948 -4.968851,-23.410933 l 21.29917,-2.159539 1.20399,0.783549 6.9946136,-16.7125384 c 0.5404489,-0.4849813 0.7080352,-0.6277356 1.1084359,-0.9842147 l 1.1371024,5.76195583 c -1.5318615,0.92645676 -2.515165,2.32914657 -2.5130918,3.90819227 0.00214,1.5887908 0.9998887,3.0020237 2.5513137,3.9273032 l 0.00954,0.5828844 c -0.8581832,1.1703861 -2.2704621,1.763251 -3.76486,3.0959764 -5.1479068,4.590973 -7.6957778,11.595729 -6.6028378,19.569628 0.958159,6.990544 6.5039714,17.988137 11.3710235,22.560492 L 0.01434932,56.181457 4.304761,52.149043 C 16.63133,40.569664 18.57494,19.349165 8.0791918,10.859806 6.8507604,9.8601615 5.2725677,9.2514727 4.3047763,7.9644945 L 4.2952361,7.2860553 C 5.8220921,6.3582409 6.791284,4.944849 6.7892169,3.3683075 6.7858228,1.7801313 5.7882427,0.36424734 4.2379032,-0.55899571 L 5.3367836,-6.1202864 c 0.5032177,0.4494868 0.6213082,0.5483165 1.2135463,1.0797695 l 6.9946131,16.7125389 1.203991,-0.78355 21.29917,2.159539 c 0.524081,0.516134 -2.17957,11.597191 -4.968851,23.410933 -2.793265,11.830614 -2.870308,12.109313 0.04778,18.805186 3.657991,6.892622 3.69107,6.557226 3.946414,10.740362 l 2.455759,-3.420862 c 2.262074,-4.208901 0.391903,-6.622066 -1.77732,-11.514356 -2.197583,-4.956253 -2.588016,-8.540694 0.554218,-21.337391 1.411132,-6.182617 2.857765,-12.798001 3.95597,-18.671412 L 39.803409,6.1776193 17.032694,8.786266 19.087123,7.0471682 9.3023088,-5.9291768 C 6.742207,-7.8206424 6.5443856,-7.9193896 5.8145577,-8.5187125 l 0.9842147,-4.9784065 c 3.5895926,3.6259771 7.2823566,8.448126 10.7881396,12.1259073 l 1.77732,-2.2550938 21.337392,-3.4495291 1.031992,-2.2837603 10.511031,21.3087259 c 4.763226,2.412815 8.768376,4.340078 10.577918,7.071057 -0.02122,-2.004548 0.0359,-2.760618 -0.02865,-5.43707 C 62.254857,12.068667 58.263753,10.260324 54.68131,8.1556041 51.801385,2.9300732 44.218234,-9.1849452 41.829186,-13.105344 v -1.442878 L 20.558682,-5.8049555 V -8.509157 l -13.3490238,-6.946836 0.7644385,-3.984636 c 6.5281193,2.518991 11.3036313,4.829943 15.6518803,6.83217 l -0.03822,-2.102206 c 5.316692,-6.801837 12.872479,-13.373138 17.562977,-20.649399 l -1.958874,-2.436648 c 1.644546,-2.101949 9.662103,-6.328967 14.76322,-9.746589 1.27638,-2.691007 6.125064,-11.065245 6.125064,-11.065248 l -4.213968,0.563773 -4.739519,9.001265 c -3.3271,4.060633 -10.771591,6.354319 -13.396786,10.253029 l -3.382641,-0.286664 -10.759473,20.725842 0.03822,-2.8762 -15.269661,-0.07644 0.5924399,-3.06731 -4.815963,-3.97508 0.00954,-1.280435 c 1.0920402,-0.0024 2.1596337,-0.0056 3.2775304,-0.0095 4.0593987,0.01352 3.6133057,-0.411063 2.7902007,-3.095978 -0.2433818,-0.793872 -0.6173391,-1.688782 -1.012881,-2.522647 -0.0962,-0.202433 -0.1971518,-0.362262 -0.29622,-0.554218 -0.2953668,-0.571131 -0.5918436,-1.072049 -0.8695488,-1.461989 l -1.6722095,-2.522644 8.0361613,-5.73329 5.140849,-14.581666 10.558808,-5.886177 -2.8762,0.152888 -9.402595,4.424188 -5.523069,14.381001 -7.9788275,4.529299 c -0.2143333,-0.236025 -0.236875,-0.26112 -0.3344418,-0.372664 -0.5152806,-0.580976 -0.9907339,-1.041334 -1.3664341,-1.223102 -0.7088364,-0.342945 -1.5652033,-0.5165 -2.42709251,-0.544662 l -0.63064654,-0.0096 c -0.86189225,0.02816 -1.71825915,0.201723 -2.42709255,0.544662 -0.5797287,0.317998 -1.0219778,0.819843 -1.4619887,1.299546 -0.063323,0.07122 -0.096087,0.116953 -0.2675535,0.305776 l -7.9788278,-4.538855 -5.523068,-14.371445 -9.412151,-4.424188 z"/>
  <pattern id="ant-field" patternUnits="userSpaceOnUse" x="0" y="0" width="200" height="132">
    <use xlink:href="#ant" transform="translate(100,66)rotate(40)"/>
    <use xlink:href="#ant"/>
    <use xlink:href="#ant" transform="translate(0,132)"/>
    <use xlink:href="#ant" transform="translate(200,0)"/>
    <use xlink:href="#ant" transform="translate(200,132)"/>
  </pattern>
</defs>
<use xlink:href="#shield" fill="#ff0"/>
<use xlink:href="#shield" fill="url(#ant-field)"/>
<use xlink:href="#shield" fill="url(#rg)" stroke="#000" stroke-width="3"/>
</svg>
