<?xml version="1.0" encoding="UTF-8" standalone="no"?>
<svg
   xmlns:dc="http://purl.org/dc/elements/1.1/"
   xmlns:cc="http://creativecommons.org/ns#"
   xmlns:rdf="http://www.w3.org/1999/02/22-rdf-syntax-ns#"
   xmlns:svg="http://www.w3.org/2000/svg"
   xmlns="http://www.w3.org/2000/svg"
   xmlns:xlink="http://www.w3.org/1999/xlink"
   xmlns:sodipodi="http://sodipodi.sourceforge.net/DTD/sodipodi-0.dtd"
   xmlns:inkscape="http://www.inkscape.org/namespaces/inkscape"
   width="600"
   height="660"
   id="svg2"
   version="1.1"
   inkscape:version="0.48.2 r9819"
   sodipodi:docname="House_Kettleblack.svg">
  <metadata
     id="metadata24">
    <rdf:RDF>
      <cc:Work
         rdf:about="">
        <dc:format>image/svg+xml</dc:format>
        <dc:type
           rdf:resource="http://purl.org/dc/dcmitype/StillImage" />
        <dc:title />
      </cc:Work>
    </rdf:RDF>
  </metadata>
  <sodipodi:namedview
     pagecolor="#ffffff"
     bordercolor="#666666"
     borderopacity="1"
     objecttolerance="10"
     gridtolerance="10"
     guidetolerance="10"
     inkscape:pageopacity="0"
     inkscape:pageshadow="2"
     inkscape:window-width="1366"
     inkscape:window-height="715"
     id="namedview22"
     showgrid="false"
     inkscape:zoom="0.71515152"
     inkscape:cx="540.07256"
     inkscape:cy="460.03104"
     inkscape:window-x="-8"
     inkscape:window-y="-8"
     inkscape:window-maximized="1"
     inkscape:current-layer="layer2" />
  <defs
     id="defs4">
    <inkscape:path-effect
       effect="spiro"
       id="path-effect7615"
       is_visible="true" />
    <inkscape:path-effect
       effect="spiro"
       id="path-effect3576"
       is_visible="true" />
    <inkscape:path-effect
       is_visible="true"
       id="path-effect3572"
       effect="spiro" />
    <inkscape:path-effect
       effect="spiro"
       id="path-effect3568"
       is_visible="true" />
    <inkscape:path-effect
       is_visible="true"
       id="path-effect3136"
       effect="spiro" />
    <inkscape:path-effect
       effect="spiro"
       id="path-effect3132"
       is_visible="true" />
    <inkscape:path-effect
       effect="spiro"
       id="path-effect3101"
       is_visible="true" />
    <inkscape:path-effect
       is_visible="true"
       id="path-effect3085"
       effect="spiro" />
    <inkscape:path-effect
       is_visible="true"
       id="path-effect3083"
       effect="spiro" />
    <inkscape:path-effect
       is_visible="true"
       id="path-effect3081"
       effect="spiro" />
    <inkscape:path-effect
       is_visible="true"
       id="path-effect3079"
       effect="spiro" />
    <inkscape:path-effect
       is_visible="true"
       id="path-effect3077"
       effect="spiro" />
    <inkscape:path-effect
       is_visible="true"
       id="path-effect3075"
       effect="spiro" />
    <inkscape:path-effect
       effect="spiro"
       id="path-effect3049"
       is_visible="true" />
    <inkscape:path-effect
       is_visible="true"
       id="path-effect3045"
       effect="spiro" />
    <inkscape:path-effect
       effect="spiro"
       id="path-effect3041"
       is_visible="true" />
    <radialGradient
       id="rg"
       gradientUnits="userSpaceOnUse"
       cx="220"
       cy="220"
       r="405">
      <stop
         style="stop-color:#fff;stop-opacity:.3"
         offset="0"
         id="stop7" />
      <stop
         style="stop-color:#fff;stop-opacity:.2"
         offset=".2"
         id="stop9" />
      <stop
         style="stop-color:#666;stop-opacity:.1"
         offset=".6"
         id="stop11" />
      <stop
         style="stop-color:#000;stop-opacity:.13"
         offset="1"
         id="stop13" />
    </radialGradient>
    <path
       id="shield"
       d="m2,2v257c0,286 298,398 298,398c0,0 298-112 298-398V2z" />
    <radialGradient
       inkscape:collect="always"
       xlink:href="#rg-7"
       id="radialGradient3055-1"
       gradientUnits="userSpaceOnUse"
       cx="220"
       cy="220"
       r="405" />
    <radialGradient
       id="rg-7"
       gradientUnits="userSpaceOnUse"
       cx="220"
       cy="220"
       r="405">
      <stop
         style="stop-color:#fff;stop-opacity:.3"
         offset="0"
         id="stop7-4" />
      <stop
         style="stop-color:#fff;stop-opacity:.2"
         offset=".2"
         id="stop9-0" />
      <stop
         style="stop-color:#666;stop-opacity:.1"
         offset=".6"
         id="stop11-9" />
      <stop
         style="stop-color:#000;stop-opacity:.13"
         offset="1"
         id="stop13-4" />
    </radialGradient>
    <radialGradient
       r="405"
       cy="220"
       cx="220"
       gradientUnits="userSpaceOnUse"
       id="radialGradient3074"
       xlink:href="#rg-7"
       inkscape:collect="always" />
    <inkscape:path-effect
       is_visible="true"
       id="path-effect10120-1"
       effect="spiro" />
    <inkscape:path-effect
       effect="spiro"
       id="path-effect10118-3"
       is_visible="true" />
    <inkscape:path-effect
       effect="spiro"
       id="path-effect10116-9"
       is_visible="true" />
    <inkscape:path-effect
       effect="spiro"
       id="path-effect10114-7"
       is_visible="true" />
    <inkscape:path-effect
       effect="spiro"
       id="path-effect10112-7"
       is_visible="true" />
    <inkscape:path-effect
       effect="spiro"
       id="path-effect10110-2"
       is_visible="true" />
    <linearGradient
       inkscape:collect="always"
       xlink:href="#linearGradient4719-5"
       id="linearGradient4039"
       gradientUnits="userSpaceOnUse"
       gradientTransform="matrix(2.3257341,0,0,2.2943177,447.69485,-1820.2799)"
       x1="-145.25935"
       y1="984.24286"
       x2="-64.14286"
       y2="984.14789" />
    <linearGradient
       inkscape:collect="always"
       id="linearGradient4719-5">
      <stop
         style="stop-color:#666666;stop-opacity:1;"
         offset="0"
         id="stop4721-5" />
      <stop
         id="stop4809-1"
         offset="0.39344174"
         style="stop-color:#666666;stop-opacity:0.74901961;" />
      <stop
         style="stop-color:#666666;stop-opacity:0;"
         offset="1"
         id="stop4723-7" />
    </linearGradient>
    <radialGradient
       inkscape:collect="always"
       xlink:href="#linearGradient4801-8"
       id="radialGradient4041"
       gradientUnits="userSpaceOnUse"
       gradientTransform="matrix(-0.72153181,1.2650715,-2.2729984,-1.2616144,1712.0113,1733.7841)"
       cx="-307.14288"
       cy="782.36218"
       fx="-307.14288"
       fy="782.36218"
       r="63" />
    <linearGradient
       inkscape:collect="always"
       id="linearGradient4801-8">
      <stop
         style="stop-color:#000000;stop-opacity:1;"
         offset="0"
         id="stop4803-2" />
      <stop
         style="stop-color:#000000;stop-opacity:0;"
         offset="1"
         id="stop4805-4" />
    </linearGradient>
    <inkscape:path-effect
       effect="spiro"
       id="path-effect10108-4"
       is_visible="true" />
    <linearGradient
       inkscape:collect="always"
       xlink:href="#linearGradient4719-5"
       id="linearGradient4044"
       gradientUnits="userSpaceOnUse"
       gradientTransform="matrix(-2.4055369,0,0,-1.6485021,142.06168,1726.5307)"
       x1="-145.25935"
       y1="984.24286"
       x2="-64.14286"
       y2="984.14789" />
    <radialGradient
       inkscape:collect="always"
       xlink:href="#linearGradient4801-8"
       id="radialGradient4046"
       gradientUnits="userSpaceOnUse"
       gradientTransform="matrix(0.74628962,-0.90897301,2.3509914,0.90648896,-1165.637,-827.11785)"
       cx="-307.14288"
       cy="782.36218"
       fx="-307.14288"
       fy="782.36218"
       r="63" />
    <inkscape:path-effect
       effect="spiro"
       id="path-effect10102-7"
       is_visible="true" />
    <linearGradient
       inkscape:collect="always"
       xlink:href="#linearGradient4719-5"
       id="linearGradient4049"
       gradientUnits="userSpaceOnUse"
       gradientTransform="matrix(2.334989,0,0,-1.6146975,449.44065,1692.189)"
       x1="-145.25935"
       y1="984.24286"
       x2="-64.14286"
       y2="984.14789" />
    <radialGradient
       inkscape:collect="always"
       xlink:href="#linearGradient4801-8"
       id="radialGradient4051"
       gradientUnits="userSpaceOnUse"
       gradientTransform="matrix(-0.72440295,-0.89033332,-2.2820431,0.88790031,1718.7881,-809.09364)"
       cx="-307.14288"
       cy="782.36218"
       fx="-307.14288"
       fy="782.36218"
       r="63" />
    <inkscape:path-effect
       is_visible="true"
       id="path-effect10096-8"
       effect="spiro" />
    <linearGradient
       inkscape:collect="always"
       xlink:href="#linearGradient4719-5"
       id="linearGradient4054"
       gradientUnits="userSpaceOnUse"
       gradientTransform="matrix(-2.409599,0,0,2.2818507,139.61083,-1810.8163)"
       x1="-145.25935"
       y1="984.24286"
       x2="-64.14286"
       y2="984.14789" />
    <radialGradient
       inkscape:collect="always"
       xlink:href="#linearGradient4801-8"
       id="radialGradient4056"
       gradientUnits="userSpaceOnUse"
       gradientTransform="matrix(0.74754985,1.2581972,2.3549614,-1.2547588,-1170.296,1723.935)"
       cx="-307.14288"
       cy="782.36218"
       fx="-307.14288"
       fy="782.36218"
       r="63" />
    <inkscape:path-effect
       is_visible="true"
       id="path-effect10090-3"
       effect="spiro" />
    <inkscape:path-effect
       effect="spiro"
       id="path-effect10084-1"
       is_visible="true" />
    <inkscape:path-effect
       effect="spiro"
       id="path-effect10082-1"
       is_visible="true" />
    <radialGradient
       inkscape:collect="always"
       xlink:href="#linearGradient4801-8"
       id="radialGradient4061"
       gradientUnits="userSpaceOnUse"
       gradientTransform="matrix(-0.76516322,1.2901254,-2.4104477,-1.2865998,1806.8444,1757.4704)"
       cx="-307.14288"
       cy="782.36218"
       fx="-307.14288"
       fy="782.36218"
       r="63" />
    <inkscape:path-effect
       effect="spiro"
       id="path-effect10080-4"
       is_visible="true" />
    <inkscape:path-effect
       is_visible="true"
       id="path-effect3075-1"
       effect="spiro" />
    <inkscape:path-effect
       effect="spiro"
       id="path-effect3101-7"
       is_visible="true" />
    <linearGradient
       inkscape:collect="always"
       xlink:href="#grad1-7-7"
       id="linearGradient3085-8-8"
       gradientUnits="userSpaceOnUse"
       gradientTransform="matrix(0.77469594,0,0,0.30982404,152.68996,-13.619206)"
       x1="78.877235"
       y1="178.07356"
       x2="301.40585"
       y2="178.07356" />
    <linearGradient
       id="grad1-7-7"
       x1="78.877235"
       y1="178.07356"
       x2="301.40585"
       y2="178.07356"
       gradientTransform="scale(1.577772,0.63380513)"
       gradientUnits="userSpaceOnUse">
      <stop
         offset="0%"
         style="stop-color:#da0;"
         id="stop16-4-4" />
      <stop
         offset="40%"
         style="stop-color:#fd0;"
         id="stop18-0-0" />
      <stop
         offset="60%"
         style="stop-color:#fd0;"
         id="stop20-9-9" />
      <stop
         offset="100%"
         style="stop-color:#da0;"
         id="stop22-4-4" />
    </linearGradient>
    <linearGradient
       inkscape:collect="always"
       xlink:href="#grad1-7-7"
       id="linearGradient3081-8-8"
       gradientUnits="userSpaceOnUse"
       gradientTransform="matrix(0.77469594,0,0,0.30982404,-27.310046,-13.619206)"
       x1="78.877235"
       y1="178.07356"
       x2="301.40585"
       y2="178.07356" />
    <linearGradient
       id="linearGradient3093"
       x1="78.877235"
       y1="178.07356"
       x2="301.40585"
       y2="178.07356"
       gradientTransform="scale(1.577772,0.63380513)"
       gradientUnits="userSpaceOnUse">
      <stop
         offset="0%"
         style="stop-color:#da0;"
         id="stop3095" />
      <stop
         offset="40%"
         style="stop-color:#fd0;"
         id="stop3097" />
      <stop
         offset="60%"
         style="stop-color:#fd0;"
         id="stop3099" />
      <stop
         offset="100%"
         style="stop-color:#da0;"
         id="stop3101" />
    </linearGradient>
    <linearGradient
       y2="178.07356"
       x2="301.40585"
       y1="178.07356"
       x1="78.877235"
       gradientTransform="matrix(0.77469594,0,0,0.30982404,332.68995,-13.619206)"
       gradientUnits="userSpaceOnUse"
       id="linearGradient3128-1"
       xlink:href="#grad1-7-7"
       inkscape:collect="always" />
    <linearGradient
       id="linearGradient3104"
       x1="78.877235"
       y1="178.07356"
       x2="301.40585"
       y2="178.07356"
       gradientTransform="scale(1.577772,0.63380513)"
       gradientUnits="userSpaceOnUse">
      <stop
         offset="0%"
         style="stop-color:#da0;"
         id="stop3106" />
      <stop
         offset="40%"
         style="stop-color:#fd0;"
         id="stop3108" />
      <stop
         offset="60%"
         style="stop-color:#fd0;"
         id="stop3110" />
      <stop
         offset="100%"
         style="stop-color:#da0;"
         id="stop3112" />
    </linearGradient>
    <inkscape:path-effect
       is_visible="true"
       id="path-effect3061"
       effect="spiro" />
    <clipPath
       clipPathUnits="userSpaceOnUse"
       id="clipPath10110">
      <path
         style="fill:#ffff00;fill-opacity:1;stroke:none"
         id="path10112"
         d="M 598,2 V 259 C 598,545 300,657 300,657 300,657 2,545 2,259 V 2 z"
         inkscape:connector-curvature="0" />
    </clipPath>
  </defs>
  <g
     inkscape:groupmode="layer"
     id="layer2"
     inkscape:label="Elements"
     style="display:inline">
    <g
       style="display:inline"
       id="g3216">
      <use
         id="use4261"
         xlink:href="#shield"
         style="fill:#cc0000"
         x="0"
         y="0"
         width="744.09448"
         height="1052.3622" />
      <path
         id="path4324"
         d="m 53.96875,53.25 0,195.59375 C 53.96875,452.30779 219.91207,563.75961 300,605.75 380.08793,563.75961 546.03125,452.30779 546.03125,248.84375 l 0,-195.59375 -492.0625,0 z M 100,100 l 400,0 0,159 C 500,424.40588 365.1074,515.02021 300,549.15625 234.8926,515.02021 100,424.40588 100,259 l 0,-159 z"
         style="fill:#000000"
         inkscape:connector-curvature="0" />
      <g
         transform="matrix(0.30533113,0,0,0.30533113,441.28755,219.80797)"
         id="g3186">
        <path
           inkscape:connector-curvature="0"
           style="fill:#000000;stroke:none"
           d="m -463.64156,-320.40972 c -9.77215,0 -18.39531,0.0172 -26.28125,0.0625 -25.83323,0.14825 -41.93142,0.55629 -49.21875,1.21875 -7.7,0.69998 -23.225,1.94 -34.5,2.78125 -42.67196,3.1838 -81.06904,7.92998 -109.90625,13.5625 -51.81987,10.12152 -75.46171,24.81453 -76.9375,47.78125 -0.72142,11.22711 0.86415,15.44217 20.53125,54.9375 15.57574,31.2791 18.34741,37.50761 17.1875,38.5625 -1.73455,1.57749 -51.71394,29.72544 -78.375,44.125 -39.78837,21.489592 -57.07406,31.963172 -56.90625,34.500002 0.0537,0.81191 23.85046,40.17016 52.875,87.46875 29.02455,47.29859 52.96791,86.5137 53.21875,87.15625 0.25084,0.64256 -2.42102,4.46756 -5.9375,8.499998 -8.36651,9.59412 -29.91024,37.19074 -36.96875,47.34375 -33.06972,47.56772 -59.51639,114.75466 -64.21875,177.5 -0.98888,13.19501 -1.35785,26.53842 -1.15625,39.9375 -0.52159,28.1168 2.44964,55.6681 9.21875,84.125 7.73788,37.2116 20.33041,73.2811 38,106.0937 4.73225,8.788 9.82322,17.3112 15.25,25.5626 12.53484,22.1128 24.40288,37.7071 39.0625,51.8124 12.07716,11.6207 24.60926,21.6942 41.75,33.1876 0.0118,0.01 0.0195,0.022 0.0312,0.031 13.64849,10.109 28.31277,19.4974 44.03125,28.1562 3.9875,2.3083 7.25,4.7684 7.25,5.5 0,0.7319 -15.75,28.7892 -35,62.3438 -19.25,33.5545 -35,61.9597 -35,63.125 0,4.6573 18.35527,15.5246 31.78125,18.8125 4.37641,1.0717 12.45919,1.5515 21.09375,1.5625 0.73684,9e-4 1.47595,0.01 2.21875,0 12.67467,-0.01 26.41794,-1.0521 31.25,-2.9062 0.7634,-0.293 15.6377,-25.124 33.0625,-55.1876 17.2231,-29.7152 31.57753,-54.2644 32.3125,-55.2812 3.03264,0.744 9.80324,3.0295 17.4375,5.9375 10.09621,3.8458 23.51875,8.6351 29.84375,10.6563 6.325,2.0209 11.82073,3.99 12.21875,4.375 0.68945,0.6666 -8.09863,44.0789 -15.625,77.1562 -4.34916,19.1139 -6.60175,35.9268 -6.59375,49.3125 0.006,10.8451 2.23404,28.3919 4.03125,31.75 1.60206,2.9935 5.3502,4.129 16.46875,4.9687 5.09829,0.3849 32.89352,0.595 63.40625,0.5 30.5128,0.095 58.308,-0.1151 63.4063,-0.5 11.1186,-0.8397 14.8668,-1.9752 16.4687,-4.9687 1.7973,-3.3581 4.025,-20.9049 4.0313,-31.75 0.01,-13.3857 -2.2447,-30.1986 -6.5937,-49.3125 -7.5265,-33.0773 -16.3145,-76.4896 -15.625,-77.1562 0.398,-0.385 5.8937,-2.3541 12.2187,-4.375 6.325,-2.0212 19.7477,-6.8105 29.8437,-10.6563 7.6345,-2.908 14.4048,-5.1935 17.4376,-5.9375 0.7358,1.0185 15.09,25.5671 32.3124,55.2812 17.425,30.0636 32.299,54.8946 33.0626,55.1876 4.8319,1.8541 18.5752,2.9 31.25,2.9062 0.7382,4e-4 1.4896,0.01 2.2187,0 8.6346,-0.011 16.7173,-0.4908 21.0936,-1.5625 13.4261,-3.2879 31.7814,-14.1552 31.7814,-18.8125 0,-1.1653 -15.75,-29.5705 -35,-63.125 -19.25,-33.5546 -35,-61.6119 -35,-62.3438 0,-0.7316 3.2625,-3.1917 7.25,-5.5 15.7184,-8.6588 30.3827,-18.0472 44.0313,-28.1562 0.012,-0.01 0.019,-0.023 0.031,-0.031 17.1406,-11.4934 29.6728,-21.5669 41.75,-33.1876 14.6596,-14.1053 26.5277,-29.6996 39.0625,-51.8124 5.4268,-8.2514 10.5178,-16.7746 15.25,-25.5626 17.669504,-32.8126 30.262004,-68.8821 38.000004,-106.0937 6.7691,-28.4569 9.7403,-56.0082 9.2186,-84.125 0.2018,-13.39908 -0.1673,-26.74249 -1.1561,-39.9375 -4.7024,-62.74534 -31.1489,-129.93228 -64.218904,-177.5 -7.0583,-10.15301 -28.6021,-37.74963 -36.9686,-47.34375 -3.5164,-4.032438 -6.1883,-7.857438 -5.9375,-8.499998 0.2509,-0.64255 24.1943,-39.85766 53.2188,-87.15625 29.024304,-47.29859 52.821104,-86.65684 52.875004,-87.46875 0.1676,-2.53683 -17.1179,-13.01041 -56.906304,-34.500002 -26.6611,-14.39956 -76.6404,-42.54751 -78.375,-44.125 -1.16,-1.05489 1.6116,-7.2834 17.1875,-38.5625 19.667,-39.49533 21.2528,-43.71039 20.5311,-54.9375 -1.4756,-22.96672 -25.1177,-37.65973 -76.9374,-47.78125 -28.8372,-5.63252 -67.2343,-10.3787 -109.9063,-13.5625 -11.275,-0.84125 -26.8,-2.08127 -34.5,-2.78125 -7.2873,-0.66246 -23.3856,-1.0705 -49.2187,-1.21875 -8.2935,-0.0518 -17.6474,-0.0625 -28.0935,-0.0625 z m -234.40625,203.71875 c 2.05078,-0.39203 4.55845,4.23143 30.0625,54.937502 15.31176,30.4422 27.98968,56.07631 28.15625,56.96875 0.20193,1.08189 -2.48013,3.46266 -8.03125,7.15625 -9.61701,6.39893 -31.51008,24.92434 -51.65625,43.6875 -7.69885,7.17032 -14.43273,13.03125 -14.96875,13.03125 -2.75734,0 -23.68919,-31.39064 -43.34375,-65 -13.69614,-23.42043 -31.02838,-56.02931 -30.5,-57.40625 0.60948,-1.58827 87.21311,-52.788492 90.28125,-53.375002 z m 468.43745,0 c 0.1375,-0.0246 0.247,-0.0245 0.375,0 3.0683,0.58651 89.6718,51.786732 90.2813,53.375002 0.2687,0.70013 -4.5663,10.64786 -10.75,22.09375 -19.413,35.933 -38.536,67.62178 -53.375,88.46875 -4.4322,6.22663 -8.7375,11.41229 -9.5625,11.53125 -0.825,0.11896 -7.7024,-5.6176 -15.2812,-12.75 -19.2263,-18.09376 -41.6456,-37.09921 -51.5,-43.65625 -5.5512,-3.69359 -8.2332,-6.07436 -8.0313,-7.15625 0.1666,-0.89244 12.8444,-26.52655 28.1563,-56.96875 23.9098,-47.536942 27.6271,-54.568642 29.6874,-54.937502 z"
           id="path3068" />
        <path
           inkscape:connector-curvature="0"
           style="fill:#333333"
           d="m -514.14156,-220.50745 c -3.85,-0.18852 -17.125,-0.82816 -29.5,-1.42143 -79.53941,-3.81318 -147.14084,-14.49671 -167.60101,-26.48717 -5.25085,-3.0772 -9.39899,-7.92914 -9.39899,-10.99367 0,-17.33103 71.63504,-31.8134 186,-37.60339 45.73188,-2.31529 130.7242,-1.29291 178.5,2.14718 91.519,6.58982 149.5,20.34089 149.5,35.45621 0,3.06453 -4.1481,7.91647 -9.399,10.99367 -6.1812,3.62243 -23.5594,9.03475 -39.8034,12.3965 -30.9508,6.40539 -70.6818,10.91242 -124.7976,14.15689 -16.9101,1.01383 -119.25433,2.05277 -133.5,1.35521 z"
           id="path3042" />
      </g>
    </g>
  </g>
  <g
     inkscape:groupmode="layer"
     id="layer1"
     inkscape:label="Cover"
     style="display:inline"
     sodipodi:insensitive="true">
    <path
       d="m 2,2 v 257 c 0,286 298,398 298,398 0,0 298,-112 298,-398 V 2 z"
       id="shine"
       inkscape:connector-curvature="0"
       style="fill:url(#radialGradient3074);stroke:#000000;stroke-width:3" />
  </g>
</svg>
