<?xml version="1.0" encoding="UTF-8" standalone="no"?>
<svg
   xmlns:dc="http://purl.org/dc/elements/1.1/"
   xmlns:cc="http://creativecommons.org/ns#"
   xmlns:rdf="http://www.w3.org/1999/02/22-rdf-syntax-ns#"
   xmlns:svg="http://www.w3.org/2000/svg"
   xmlns="http://www.w3.org/2000/svg"
   xmlns:xlink="http://www.w3.org/1999/xlink"
   xmlns:sodipodi="http://sodipodi.sourceforge.net/DTD/sodipodi-0.dtd"
   xmlns:inkscape="http://www.inkscape.org/namespaces/inkscape"
   width="600"
   height="660"
   id="svg2"
   version="1.1"
   inkscape:version="0.48.2 r9819"
   sodipodi:docname="House_Staunton.svg">
  <metadata
     id="metadata24">
    <rdf:RDF>
      <cc:Work
         rdf:about="">
        <dc:format>image/svg+xml</dc:format>
        <dc:type
           rdf:resource="http://purl.org/dc/dcmitype/StillImage" />
        <dc:title />
      </cc:Work>
    </rdf:RDF>
  </metadata>
  <sodipodi:namedview
     pagecolor="#ffffff"
     bordercolor="#666666"
     borderopacity="1"
     objecttolerance="10"
     gridtolerance="10"
     guidetolerance="10"
     inkscape:pageopacity="0"
     inkscape:pageshadow="2"
     inkscape:window-width="1366"
     inkscape:window-height="715"
     id="namedview22"
     showgrid="false"
     inkscape:zoom="0.71515151"
     inkscape:cx="390.5652"
     inkscape:cy="356.56902"
     inkscape:window-x="-8"
     inkscape:window-y="-8"
     inkscape:window-maximized="1"
     inkscape:current-layer="layer2" />
  <defs
     id="defs4">
    <inkscape:path-effect
       is_visible="true"
       id="path-effect3217"
       effect="spiro" />
    <inkscape:path-effect
       effect="spiro"
       id="path-effect3213"
       is_visible="true" />
    <inkscape:path-effect
       is_visible="true"
       id="path-effect3136"
       effect="spiro" />
    <inkscape:path-effect
       effect="spiro"
       id="path-effect3132"
       is_visible="true" />
    <inkscape:path-effect
       effect="spiro"
       id="path-effect3101"
       is_visible="true" />
    <inkscape:path-effect
       is_visible="true"
       id="path-effect3085"
       effect="spiro" />
    <inkscape:path-effect
       is_visible="true"
       id="path-effect3083"
       effect="spiro" />
    <inkscape:path-effect
       is_visible="true"
       id="path-effect3081"
       effect="spiro" />
    <inkscape:path-effect
       is_visible="true"
       id="path-effect3079"
       effect="spiro" />
    <inkscape:path-effect
       is_visible="true"
       id="path-effect3077"
       effect="spiro" />
    <inkscape:path-effect
       is_visible="true"
       id="path-effect3075"
       effect="spiro" />
    <inkscape:path-effect
       effect="spiro"
       id="path-effect3049"
       is_visible="true" />
    <inkscape:path-effect
       is_visible="true"
       id="path-effect3045"
       effect="spiro" />
    <inkscape:path-effect
       effect="spiro"
       id="path-effect3041"
       is_visible="true" />
    <radialGradient
       id="rg"
       gradientUnits="userSpaceOnUse"
       cx="220"
       cy="220"
       r="405">
      <stop
         style="stop-color:#fff;stop-opacity:.3"
         offset="0"
         id="stop7" />
      <stop
         style="stop-color:#fff;stop-opacity:.2"
         offset=".2"
         id="stop9" />
      <stop
         style="stop-color:#666;stop-opacity:.1"
         offset=".6"
         id="stop11" />
      <stop
         style="stop-color:#000;stop-opacity:.13"
         offset="1"
         id="stop13" />
    </radialGradient>
    <path
       id="shield"
       d="m2,2v257c0,286 298,398 298,398c0,0 298-112 298-398V2z" />
    <radialGradient
       inkscape:collect="always"
       xlink:href="#rg-7"
       id="radialGradient3055-1"
       gradientUnits="userSpaceOnUse"
       cx="220"
       cy="220"
       r="405" />
    <radialGradient
       id="rg-7"
       gradientUnits="userSpaceOnUse"
       cx="220"
       cy="220"
       r="405">
      <stop
         style="stop-color:#fff;stop-opacity:.3"
         offset="0"
         id="stop7-4" />
      <stop
         style="stop-color:#fff;stop-opacity:.2"
         offset=".2"
         id="stop9-0" />
      <stop
         style="stop-color:#666;stop-opacity:.1"
         offset=".6"
         id="stop11-9" />
      <stop
         style="stop-color:#000;stop-opacity:.13"
         offset="1"
         id="stop13-4" />
    </radialGradient>
    <radialGradient
       r="405"
       cy="220"
       cx="220"
       gradientUnits="userSpaceOnUse"
       id="radialGradient3074"
       xlink:href="#rg-7"
       inkscape:collect="always" />
    <inkscape:path-effect
       is_visible="true"
       id="path-effect10120-1"
       effect="spiro" />
    <inkscape:path-effect
       effect="spiro"
       id="path-effect10118-3"
       is_visible="true" />
    <inkscape:path-effect
       effect="spiro"
       id="path-effect10116-9"
       is_visible="true" />
    <inkscape:path-effect
       effect="spiro"
       id="path-effect10114-7"
       is_visible="true" />
    <inkscape:path-effect
       effect="spiro"
       id="path-effect10112-7"
       is_visible="true" />
    <inkscape:path-effect
       effect="spiro"
       id="path-effect10110-2"
       is_visible="true" />
    <linearGradient
       inkscape:collect="always"
       xlink:href="#linearGradient4719-5"
       id="linearGradient4039"
       gradientUnits="userSpaceOnUse"
       gradientTransform="matrix(2.3257341,0,0,2.2943177,447.69485,-1820.2799)"
       x1="-145.25935"
       y1="984.24286"
       x2="-64.14286"
       y2="984.14789" />
    <linearGradient
       inkscape:collect="always"
       id="linearGradient4719-5">
      <stop
         style="stop-color:#666666;stop-opacity:1;"
         offset="0"
         id="stop4721-5" />
      <stop
         id="stop4809-1"
         offset="0.39344174"
         style="stop-color:#666666;stop-opacity:0.74901961;" />
      <stop
         style="stop-color:#666666;stop-opacity:0;"
         offset="1"
         id="stop4723-7" />
    </linearGradient>
    <radialGradient
       inkscape:collect="always"
       xlink:href="#linearGradient4801-8"
       id="radialGradient4041"
       gradientUnits="userSpaceOnUse"
       gradientTransform="matrix(-0.72153181,1.2650715,-2.2729984,-1.2616144,1712.0113,1733.7841)"
       cx="-307.14288"
       cy="782.36218"
       fx="-307.14288"
       fy="782.36218"
       r="63" />
    <linearGradient
       inkscape:collect="always"
       id="linearGradient4801-8">
      <stop
         style="stop-color:#000000;stop-opacity:1;"
         offset="0"
         id="stop4803-2" />
      <stop
         style="stop-color:#000000;stop-opacity:0;"
         offset="1"
         id="stop4805-4" />
    </linearGradient>
    <inkscape:path-effect
       effect="spiro"
       id="path-effect10108-4"
       is_visible="true" />
    <linearGradient
       inkscape:collect="always"
       xlink:href="#linearGradient4719-5"
       id="linearGradient4044"
       gradientUnits="userSpaceOnUse"
       gradientTransform="matrix(-2.4055369,0,0,-1.6485021,142.06168,1726.5307)"
       x1="-145.25935"
       y1="984.24286"
       x2="-64.14286"
       y2="984.14789" />
    <radialGradient
       inkscape:collect="always"
       xlink:href="#linearGradient4801-8"
       id="radialGradient4046"
       gradientUnits="userSpaceOnUse"
       gradientTransform="matrix(0.74628962,-0.90897301,2.3509914,0.90648896,-1165.637,-827.11785)"
       cx="-307.14288"
       cy="782.36218"
       fx="-307.14288"
       fy="782.36218"
       r="63" />
    <inkscape:path-effect
       effect="spiro"
       id="path-effect10102-7"
       is_visible="true" />
    <linearGradient
       inkscape:collect="always"
       xlink:href="#linearGradient4719-5"
       id="linearGradient4049"
       gradientUnits="userSpaceOnUse"
       gradientTransform="matrix(2.334989,0,0,-1.6146975,449.44065,1692.189)"
       x1="-145.25935"
       y1="984.24286"
       x2="-64.14286"
       y2="984.14789" />
    <radialGradient
       inkscape:collect="always"
       xlink:href="#linearGradient4801-8"
       id="radialGradient4051"
       gradientUnits="userSpaceOnUse"
       gradientTransform="matrix(-0.72440295,-0.89033332,-2.2820431,0.88790031,1718.7881,-809.09364)"
       cx="-307.14288"
       cy="782.36218"
       fx="-307.14288"
       fy="782.36218"
       r="63" />
    <inkscape:path-effect
       is_visible="true"
       id="path-effect10096-8"
       effect="spiro" />
    <linearGradient
       inkscape:collect="always"
       xlink:href="#linearGradient4719-5"
       id="linearGradient4054"
       gradientUnits="userSpaceOnUse"
       gradientTransform="matrix(-2.409599,0,0,2.2818507,139.61083,-1810.8163)"
       x1="-145.25935"
       y1="984.24286"
       x2="-64.14286"
       y2="984.14789" />
    <radialGradient
       inkscape:collect="always"
       xlink:href="#linearGradient4801-8"
       id="radialGradient4056"
       gradientUnits="userSpaceOnUse"
       gradientTransform="matrix(0.74754985,1.2581972,2.3549614,-1.2547588,-1170.296,1723.935)"
       cx="-307.14288"
       cy="782.36218"
       fx="-307.14288"
       fy="782.36218"
       r="63" />
    <inkscape:path-effect
       is_visible="true"
       id="path-effect10090-3"
       effect="spiro" />
    <inkscape:path-effect
       effect="spiro"
       id="path-effect10084-1"
       is_visible="true" />
    <inkscape:path-effect
       effect="spiro"
       id="path-effect10082-1"
       is_visible="true" />
    <radialGradient
       inkscape:collect="always"
       xlink:href="#linearGradient4801-8"
       id="radialGradient4061"
       gradientUnits="userSpaceOnUse"
       gradientTransform="matrix(-0.76516322,1.2901254,-2.4104477,-1.2865998,1806.8444,1757.4704)"
       cx="-307.14288"
       cy="782.36218"
       fx="-307.14288"
       fy="782.36218"
       r="63" />
    <inkscape:path-effect
       effect="spiro"
       id="path-effect10080-4"
       is_visible="true" />
    <inkscape:path-effect
       is_visible="true"
       id="path-effect3075-1"
       effect="spiro" />
    <inkscape:path-effect
       effect="spiro"
       id="path-effect3101-7"
       is_visible="true" />
    <linearGradient
       inkscape:collect="always"
       xlink:href="#grad1-7-7"
       id="linearGradient3085-8-8"
       gradientUnits="userSpaceOnUse"
       gradientTransform="matrix(0.77469594,0,0,0.30982404,152.68996,-13.619206)"
       x1="78.877235"
       y1="178.07356"
       x2="301.40585"
       y2="178.07356" />
    <linearGradient
       id="grad1-7-7"
       x1="78.877235"
       y1="178.07356"
       x2="301.40585"
       y2="178.07356"
       gradientTransform="scale(1.577772,0.63380513)"
       gradientUnits="userSpaceOnUse">
      <stop
         offset="0%"
         style="stop-color:#da0;"
         id="stop16-4-4" />
      <stop
         offset="40%"
         style="stop-color:#fd0;"
         id="stop18-0-0" />
      <stop
         offset="60%"
         style="stop-color:#fd0;"
         id="stop20-9-9" />
      <stop
         offset="100%"
         style="stop-color:#da0;"
         id="stop22-4-4" />
    </linearGradient>
    <linearGradient
       inkscape:collect="always"
       xlink:href="#grad1-7-7"
       id="linearGradient3081-8-8"
       gradientUnits="userSpaceOnUse"
       gradientTransform="matrix(0.77469594,0,0,0.30982404,-27.310046,-13.619206)"
       x1="78.877235"
       y1="178.07356"
       x2="301.40585"
       y2="178.07356" />
    <linearGradient
       id="linearGradient3093"
       x1="78.877235"
       y1="178.07356"
       x2="301.40585"
       y2="178.07356"
       gradientTransform="scale(1.577772,0.63380513)"
       gradientUnits="userSpaceOnUse">
      <stop
         offset="0%"
         style="stop-color:#da0;"
         id="stop3095" />
      <stop
         offset="40%"
         style="stop-color:#fd0;"
         id="stop3097" />
      <stop
         offset="60%"
         style="stop-color:#fd0;"
         id="stop3099" />
      <stop
         offset="100%"
         style="stop-color:#da0;"
         id="stop3101" />
    </linearGradient>
    <linearGradient
       y2="178.07356"
       x2="301.40585"
       y1="178.07356"
       x1="78.877235"
       gradientTransform="matrix(0.77469594,0,0,0.30982404,332.68995,-13.619206)"
       gradientUnits="userSpaceOnUse"
       id="linearGradient3128-1"
       xlink:href="#grad1-7-7"
       inkscape:collect="always" />
    <linearGradient
       id="linearGradient3104"
       x1="78.877235"
       y1="178.07356"
       x2="301.40585"
       y2="178.07356"
       gradientTransform="scale(1.577772,0.63380513)"
       gradientUnits="userSpaceOnUse">
      <stop
         offset="0%"
         style="stop-color:#da0;"
         id="stop3106" />
      <stop
         offset="40%"
         style="stop-color:#fd0;"
         id="stop3108" />
      <stop
         offset="60%"
         style="stop-color:#fd0;"
         id="stop3110" />
      <stop
         offset="100%"
         style="stop-color:#da0;"
         id="stop3112" />
    </linearGradient>
    <inkscape:path-effect
       is_visible="true"
       id="path-effect3061"
       effect="spiro" />
  </defs>
  <g
     inkscape:groupmode="layer"
     id="layer2"
     inkscape:label="Elements"
     style="display:inline">
    <path
       inkscape:connector-curvature="0"
       style="fill:#7f7f7f;fill-opacity:1;stroke:none;display:inline"
       id="path7212"
       d="m 2,2 0,257 c 0,286 298,398 298,398 0,0 298,-112 298,-398 L 598,2 z" />
    <path
       style="fill:#000000;stroke:none;display:inline"
       d="m 62,2 0,0.5 59.5,0 0,-0.5 L 62,2 z m 59.5,0.5 0,55.75 59.5,0 0,-55.75 -59.5,0 z m 59.5,0 59.5,0 0,-0.5 -59.5,0 0,0.5 z m 59.5,0 0,55.75 59.5,0 0,-55.75 -59.5,0 z m 59.5,0 59.5,0 0,-0.5 -59.5,0 0,0.5 z m 59.5,0 0,55.75 59.5,0 0,-55.75 -59.5,0 z m 59.5,0 59.5,0 0,-0.5 -59.5,0 0,0.5 z m 59.5,0 0,55.75 59.5,0 0,-55.75 -59.5,0 z m 59.5,0 59.5,0 0,-0.5 -59.5,0 0,0.5 z m 59.5,0 0,55.75 0.5,0 0,-55.75 -0.5,0 z m 0,55.75 -59.5,0 0,55.75 59.5,0 0,-55.75 z m 0,55.75 0,55.75 0.5,0 0,-55.75 -0.5,0 z m 0,55.75 -59.5,0 0,205.75 42.09375,0 C 589.54272,346.06491 595.74969,314.0476 597.5,279.34375 L 597.5,169.75 z M 538,375.5 l -59.5,0 0,55.75 59.5,0 0,-55.75 z m 0,55.75 0,33.15625 c 6.77005,-10.56828 13.16774,-21.62 19.0625,-33.15625 l -19.0625,0 z m -59.5,0 -59.5,0 0,55.75 59.5,0 0,-55.75 z m 0,55.75 0,50.90625 C 493.80524,522.55879 508.71077,505.63554 522.46875,487 L 478.5,487 z m -59.5,0 -59.5,0 0,55.75 59.5,0 0,-55.75 z m 0,55.75 0,46.375 c 17.97415,-13.32718 36.54069,-28.74117 54.625,-46.375 l -54.625,0 z m -59.5,0 -59.5,0 0,55.75 59.5,0 0,-55.75 z m 0,55.75 0,29.375 c 14.10253,-8.02149 29.88776,-17.78392 46.46875,-29.375 l -46.46875,0 z m -59.5,0 -59.5,0 0,29.375 c 24.09429,13.70477 43.15403,22.33101 52.71875,26.375 l 6.78125,0 0,-55.75 z m 0,55.75 0,2.75 c 0,0 2.46732,-0.92606 6.78125,-2.75 l -6.78125,0 z m -59.5,-55.75 0,-55.75 -59.5,0 0,46.375 c 4.38384,3.25046 8.73578,6.37222 13.03125,9.375 l 46.46875,0 z M 181,542.75 181,487 l -59.5,0 0,50.90625 c 1.62714,1.63163 3.23889,3.2484 4.875,4.84375 l 54.625,0 z M 121.5,487 l 0,-55.75 -59.5,0 0,33.15625 C 66.988862,472.19403 72.162521,479.72792 77.53125,487 L 121.5,487 z M 62,431.25 l 0,-55.75 -42.09375,0 c 6.332198,19.72584 14.114472,38.29954 23.03125,55.75 l 19.0625,0 z m 0,-55.75 59.5,0 0,-205.75 -59.5,0 0,205.75 z m 0,-205.75 0,-55.75 -60,0 0,55.75 60,0 z m 0,-55.75 59.5,0 0,-55.75 -59.5,0 0,55.75 z m 0,-55.75 0,-55.75 -60,0 0,55.75 60,0 z m 59.5,55.75 0,55.75 59.5,0 0,-55.75 -59.5,0 z m 59.5,0 59.5,0 0,-55.75 -59.5,0 0,55.75 z m 59.5,0 0,55.75 59.5,0 0,-55.75 -59.5,0 z m 59.5,0 59.5,0 0,-55.75 -59.5,0 0,55.75 z m 59.5,0 0,55.75 59.5,0 0,-55.75 -59.5,0 z m 59.5,0 59.5,0 0,-55.75 -59.5,0 0,55.75 z m 59.5,0 0,55.75 59.5,0 0,-55.75 -59.5,0 z m 0,55.75 -59.5,0 0,205.75 59.5,0 0,-205.75 z M 419,375.5 l -59.5,0 0,55.75 59.5,0 0,-55.75 z m -59.5,55.75 -59.5,0 0,55.75 59.5,0 0,-55.75 z M 300,487 l -59.5,0 0,55.75 59.5,0 0,-55.75 z m -59.5,0 0,-55.75 -59.5,0 0,55.75 59.5,0 z m -59.5,-55.75 0,-55.75 -59.5,0 0,55.75 59.5,0 z m 0,-55.75 59.5,0 0,-205.75 -59.5,0 0,205.75 z m 59.5,0 0,55.75 59.5,0 0,-55.75 -59.5,0 z m 59.5,0 59.5,0 0,-205.75 -59.5,0 0,205.75 z"
       id="path3021"
       inkscape:connector-curvature="0" />
    <path
       id="fess"
       d="m 2,225 0,34 c 0,42.42869 6.5574779,81.02778 17.728516,116 l 560.542964,0 C 591.44252,340.02778 598,301.42869 598,259 l 0,-34 -596,0 z"
       inkscape:connector-curvature="0"
       style="fill:#ffffff;display:inline" />
    <g
       style="fill:#ffdd00;stroke:#333333;display:inline"
       id="g3086"
       transform="matrix(0.50625773,-0.0892669,0.0892669,0.50625773,72.222137,238.14281)">
      <path
         id="path3088"
         style="fill:#000000;fill-opacity:1;fill-rule:evenodd;stroke:#333333;stroke-width:5.83581448;stroke-linecap:butt;stroke-linejoin:miter;stroke-miterlimit:4;stroke-opacity:1;stroke-dasharray:none"
         d="M 4.8163687,2.1972993 C 13.20148,-4.856133 102.70976,43.65584 138.34462,55.805318 c 35.60959,12.140864 92.58531,26.007997 122.74973,44.597512 29.64452,18.2691 41.06848,38.58998 49.95642,59.42321 8.55891,20.06198 8.10452,21.84586 13.46684,46.37045 5.36233,24.52459 7.98243,51.72792 7.98243,51.72792 0,0 -2.17269,34.03565 -13.74727,38.93221 -11.57459,4.89655 -30.20046,-2.02707 -31.80802,-9.24401 -8.67611,15.81981 -21.14585,8.40067 -21.59527,0.59401 -16.57629,7.69957 -31.33595,1.32019 -26.98024,-14.01964 -17.68919,11.66371 -30.23339,-6.9967 -21.02949,-19.12519 -20.70423,3.64403 -22.56859,-14.22375 -21.37748,-21.71842 -17.20699,-2.94384 -21.03058,-13.51303 -13.86103,-25.93054 -33.54901,-7.18607 -40.25704,-27.21165 -32.1858,-36.21938 C 114.66201,151.13792 95.8272,141.03369 104.61066,125.2131 56.991967,95.137823 48.748795,83.307113 53.8401,73.551819 31.609034,58.470192 16.957434,35.935166 22.291598,27.951612 4.3753443,18.276475 -3.5003015,9.1931599 4.8163687,2.1972993 z"
         inkscape:connector-curvature="0" />
      <path
         id="path3090"
         style="fill:#000000;fill-opacity:0.75;fill-rule:evenodd;stroke:#333333;stroke-width:5.83581448;stroke-linecap:butt;stroke-linejoin:miter;stroke-miterlimit:4;stroke-opacity:1;stroke-dasharray:none"
         d="m 311.81408,164.65919 c 0.28322,0.74017 -3.46133,19.20387 -16.38783,16.42075 -12.92649,-2.78312 -30.24659,-19.11226 -41.023,-31.81891 -10.60536,-12.50496 -21.6143,-27.92727 -33.31801,-36.87221 -11.93846,-9.12436 -71.02545,-45.657313 -71.02545,-45.657313"
         inkscape:connector-curvature="0" />
      <path
         id="path3092"
         style="fill:#000000;fill-opacity:0.75;fill-rule:evenodd;stroke:#333333;stroke-width:5.83581448;stroke-linecap:butt;stroke-linejoin:miter;stroke-miterlimit:4;stroke-opacity:1;stroke-dasharray:none"
         d="m 181.99233,207.2169 c 10.05805,1.71712 16.49014,-1.18582 28.64718,-5.66888 12.15705,-4.48305 19.981,-12.26332 19.981,-12.26332"
         inkscape:connector-curvature="0" />
      <path
         id="path3094"
         style="fill:#000000;fill-opacity:0.75;fill-rule:evenodd;stroke:#333333;stroke-width:5.83581448;stroke-linecap:butt;stroke-linejoin:miter;stroke-miterlimit:4;stroke-opacity:1;stroke-dasharray:none"
         d="m 195.8779,233.3502 c 6.95529,-0.40476 15.94086,-5.61957 19.68848,-7.48429 3.84179,-1.91159 22.31015,-12.91715 26.22641,-20.86503"
         inkscape:connector-curvature="0" />
      <path
         id="path3096"
         style="fill:#000000;fill-opacity:0.75;fill-rule:evenodd;stroke:#333333;stroke-width:5.83581448;stroke-linecap:butt;stroke-linejoin:miter;stroke-miterlimit:4;stroke-opacity:1;stroke-dasharray:none"
         d="m 217.15845,255.08343 c 5.09394,-0.52397 25.4275,-24.15872 28.62424,-28.83426 3.11175,-4.55122 6.37492,-12.52071 6.37492,-12.52071"
         inkscape:connector-curvature="0" />
      <path
         id="path3098"
         style="fill:#000000;fill-opacity:0.75;fill-rule:evenodd;stroke:#333333;stroke-width:5.83581448;stroke-linecap:butt;stroke-linejoin:miter;stroke-miterlimit:4;stroke-opacity:1;stroke-dasharray:none"
         d="m 238.34031,274.27482 c 5.24799,-4.0966 18.91059,-22.06863 21.4714,-27.38059 2.51284,-5.21245 4.46034,-13.17949 4.46034,-13.17949"
         inkscape:connector-curvature="0" />
      <path
         id="path3100"
         style="fill:#000000;fill-opacity:0.75;fill-rule:evenodd;stroke:#333333;stroke-width:5.83581448;stroke-linecap:butt;stroke-linejoin:miter;stroke-miterlimit:4;stroke-opacity:1;stroke-dasharray:none"
         d="m 265.38053,288.22849 c 6.39477,-4.23547 9.94194,-21.25962 12.22963,-28.56141 2.3492,-7.51733 2.8263,-21.33842 2.8263,-21.33842"
         inkscape:connector-curvature="0" />
      <path
         id="path3102"
         style="fill:#000000;fill-opacity:0.75;fill-rule:evenodd;stroke:#333333;stroke-width:5.83581448;stroke-linecap:butt;stroke-linejoin:miter;stroke-miterlimit:4;stroke-opacity:1;stroke-dasharray:none"
         d="m 149.79633,171.14321 c 7.48235,4.00059 31.91554,8.22036 43.00394,8.37036 11.14489,0.15077 22.96595,-3.70138 22.96595,-3.70138"
         inkscape:connector-curvature="0" />
      <path
         id="path3104"
         style="fill:#000000;fill-opacity:0.75;fill-rule:evenodd;stroke:#333333;stroke-width:5.83581448;stroke-linecap:butt;stroke-linejoin:miter;stroke-miterlimit:4;stroke-opacity:1;stroke-dasharray:none"
         d="m 104.57272,125.22096 c 31.648,17.07569 48.93386,20.46538 89.2982,30.12199"
         inkscape:connector-curvature="0" />
      <path
         id="path3106"
         style="fill:#000000;fill-opacity:0.75;fill-rule:evenodd;stroke:#333333;stroke-width:5.83581448;stroke-linecap:butt;stroke-linejoin:miter;stroke-miterlimit:4;stroke-opacity:1;stroke-dasharray:none"
         d="M 53.801973,73.519447 C 75.233834,88.261844 118.86149,111.08802 181.48786,131.76117"
         inkscape:connector-curvature="0" />
      <path
         id="path3108"
         style="fill:#000000;fill-opacity:0.75;fill-rule:evenodd;stroke:#333333;stroke-width:5.83581448;stroke-linecap:butt;stroke-linejoin:miter;stroke-miterlimit:4;stroke-opacity:1;stroke-dasharray:none"
         d="m 22.214905,27.932241 c 0,0 12.48886,6.861417 24.105888,14.792617 11.617017,7.93121 11.840248,10.632221 22.362211,16.932204 10.521952,6.299982 15.302886,6.957038 21.554743,9.943645 6.392815,3.053933 5.280515,4.886301 11.322383,7.682273 6.16389,2.852443 10.04676,0.312818 21.37911,4.783728 11.33235,4.4709 10.98504,7.998067 23.9503,13.099891 12.96524,5.101821 27.91071,7.307421 27.91071,7.307421"
         inkscape:connector-curvature="0" />
      <path
         id="path3110"
         style="fill:#000000;fill-opacity:0.75;fill-rule:evenodd;stroke:#333333;stroke-width:5.83581448;stroke-linecap:butt;stroke-linejoin:miter;stroke-miterlimit:4;stroke-opacity:1;stroke-dasharray:none"
         d="m 305.08212,222.90114 c -0.13048,0.45725 -5.31417,10.68066 -12.12228,11.86918 -6.8081,1.18852 -13.10595,-2.29865 -15.11013,-7.11512 -2.00418,-4.81648 7.09343,-12.15078 7.09343,-12.15078"
         inkscape:connector-curvature="0" />
      <path
         id="path3112"
         style="fill:#000000;fill-opacity:0.75;fill-rule:evenodd;stroke:#333333;stroke-width:5.83581448;stroke-linecap:butt;stroke-linejoin:miter;stroke-miterlimit:4;stroke-opacity:1;stroke-dasharray:none"
         d="m 280.18785,220.32826 c 0,0 -12.14722,10.29617 -19.62305,7.83263 -7.47585,-2.46355 -9.02828,-13.98587 -8.36484,-18.62353 0.66265,-4.63218 3.0407,-5.60171 7.38285,-8.68913"
         inkscape:connector-curvature="0" />
      <path
         id="path3114"
         style="fill:#000000;fill-opacity:0.75;fill-rule:evenodd;stroke:#333333;stroke-width:5.83581448;stroke-linecap:butt;stroke-linejoin:miter;stroke-miterlimit:4;stroke-opacity:1;stroke-dasharray:none"
         d="m 268.84957,195.0869 c -10.12147,4.85804 -16.24172,13.45426 -23.63858,11.21931 -7.24446,-2.19146 -11.63778,-8.58441 -12.12952,-13.51693 -0.50633,-5.0788 2.65323,-9.29739 2.65323,-9.29739"
         inkscape:connector-curvature="0" />
      <path
         id="path3116"
         style="fill:#000000;fill-opacity:0.75;fill-rule:evenodd;stroke:#333333;stroke-width:5.83581448;stroke-linecap:butt;stroke-linejoin:miter;stroke-miterlimit:4;stroke-opacity:1;stroke-dasharray:none"
         d="m 258.18877,179.02224 c -0.3483,0.0654 -14.92358,6.70289 -25.40411,3.54519 -10.39588,-3.1322 -15.25699,-16.3464 -13.35119,-22.51929 1.8623,-6.02049 8.04201,-6.52301 10.49103,-6.73054"
         inkscape:connector-curvature="0" />
      <path
         id="path3118"
         style="fill:#000000;fill-opacity:0.75;fill-rule:evenodd;stroke:#333333;stroke-width:5.83581448;stroke-linecap:butt;stroke-linejoin:miter;stroke-miterlimit:4;stroke-opacity:1;stroke-dasharray:none"
         d="m 249.85483,154.22634 c -0.6966,0.13083 -14.84737,2.27669 -23.68604,-2.47524 -8.82348,-4.74378 -12.85958,-16.47034 -13.09004,-22.85684 -0.23589,-6.53697 4.49232,-10.83283 7.87733,-11.43253"
         inkscape:connector-curvature="0" />
    </g>
    <g
       transform="matrix(-0.50625773,-0.0892669,-0.0892669,0.50625773,527.77788,238.14281)"
       id="g3126"
       style="fill:#ffdd00;stroke:#333333;display:inline">
      <path
         inkscape:connector-curvature="0"
         d="M 4.8163687,2.1972993 C 13.20148,-4.856133 102.70976,43.65584 138.34462,55.805318 c 35.60959,12.140864 92.58531,26.007997 122.74973,44.597512 29.64452,18.2691 41.06848,38.58998 49.95642,59.42321 8.55891,20.06198 8.10452,21.84586 13.46684,46.37045 5.36233,24.52459 7.98243,51.72792 7.98243,51.72792 0,0 -2.17269,34.03565 -13.74727,38.93221 -11.57459,4.89655 -30.20046,-2.02707 -31.80802,-9.24401 -8.67611,15.81981 -21.14585,8.40067 -21.59527,0.59401 -16.57629,7.69957 -31.33595,1.32019 -26.98024,-14.01964 -17.68919,11.66371 -30.23339,-6.9967 -21.02949,-19.12519 -20.70423,3.64403 -22.56859,-14.22375 -21.37748,-21.71842 -17.20699,-2.94384 -21.03058,-13.51303 -13.86103,-25.93054 -33.54901,-7.18607 -40.25704,-27.21165 -32.1858,-36.21938 C 114.66201,151.13792 95.8272,141.03369 104.61066,125.2131 56.991967,95.137823 48.748795,83.307113 53.8401,73.551819 31.609034,58.470192 16.957434,35.935166 22.291598,27.951612 4.3753443,18.276475 -3.5003015,9.1931599 4.8163687,2.1972993 z"
         style="fill:#000000;fill-opacity:1;fill-rule:evenodd;stroke:#333333;stroke-width:5.83581448;stroke-linecap:butt;stroke-linejoin:miter;stroke-miterlimit:4;stroke-opacity:1;stroke-dasharray:none"
         id="path3128" />
      <path
         inkscape:connector-curvature="0"
         d="m 311.81408,164.65919 c 0.28322,0.74017 -3.46133,19.20387 -16.38783,16.42075 -12.92649,-2.78312 -30.24659,-19.11226 -41.023,-31.81891 -10.60536,-12.50496 -21.6143,-27.92727 -33.31801,-36.87221 -11.93846,-9.12436 -71.02545,-45.657313 -71.02545,-45.657313"
         style="fill:#000000;fill-opacity:0.75;fill-rule:evenodd;stroke:#333333;stroke-width:5.83581448;stroke-linecap:butt;stroke-linejoin:miter;stroke-miterlimit:4;stroke-opacity:1;stroke-dasharray:none"
         id="path3130" />
      <path
         inkscape:connector-curvature="0"
         d="m 181.99233,207.2169 c 10.05805,1.71712 16.49014,-1.18582 28.64718,-5.66888 12.15705,-4.48305 19.981,-12.26332 19.981,-12.26332"
         style="fill:#000000;fill-opacity:0.75;fill-rule:evenodd;stroke:#333333;stroke-width:5.83581448;stroke-linecap:butt;stroke-linejoin:miter;stroke-miterlimit:4;stroke-opacity:1;stroke-dasharray:none"
         id="path3132" />
      <path
         inkscape:connector-curvature="0"
         d="m 195.8779,233.3502 c 6.95529,-0.40476 15.94086,-5.61957 19.68848,-7.48429 3.84179,-1.91159 22.31015,-12.91715 26.22641,-20.86503"
         style="fill:#000000;fill-opacity:0.75;fill-rule:evenodd;stroke:#333333;stroke-width:5.83581448;stroke-linecap:butt;stroke-linejoin:miter;stroke-miterlimit:4;stroke-opacity:1;stroke-dasharray:none"
         id="path3134" />
      <path
         inkscape:connector-curvature="0"
         d="m 217.15845,255.08343 c 5.09394,-0.52397 25.4275,-24.15872 28.62424,-28.83426 3.11175,-4.55122 6.37492,-12.52071 6.37492,-12.52071"
         style="fill:#000000;fill-opacity:0.75;fill-rule:evenodd;stroke:#333333;stroke-width:5.83581448;stroke-linecap:butt;stroke-linejoin:miter;stroke-miterlimit:4;stroke-opacity:1;stroke-dasharray:none"
         id="path3136" />
      <path
         inkscape:connector-curvature="0"
         d="m 238.34031,274.27482 c 5.24799,-4.0966 18.91059,-22.06863 21.4714,-27.38059 2.51284,-5.21245 4.46034,-13.17949 4.46034,-13.17949"
         style="fill:#000000;fill-opacity:0.75;fill-rule:evenodd;stroke:#333333;stroke-width:5.83581448;stroke-linecap:butt;stroke-linejoin:miter;stroke-miterlimit:4;stroke-opacity:1;stroke-dasharray:none"
         id="path3138" />
      <path
         inkscape:connector-curvature="0"
         d="m 265.38053,288.22849 c 6.39477,-4.23547 9.94194,-21.25962 12.22963,-28.56141 2.3492,-7.51733 2.8263,-21.33842 2.8263,-21.33842"
         style="fill:#000000;fill-opacity:0.75;fill-rule:evenodd;stroke:#333333;stroke-width:5.83581448;stroke-linecap:butt;stroke-linejoin:miter;stroke-miterlimit:4;stroke-opacity:1;stroke-dasharray:none"
         id="path3140" />
      <path
         inkscape:connector-curvature="0"
         d="m 149.79633,171.14321 c 7.48235,4.00059 31.91554,8.22036 43.00394,8.37036 11.14489,0.15077 22.96595,-3.70138 22.96595,-3.70138"
         style="fill:#000000;fill-opacity:0.75;fill-rule:evenodd;stroke:#333333;stroke-width:5.83581448;stroke-linecap:butt;stroke-linejoin:miter;stroke-miterlimit:4;stroke-opacity:1;stroke-dasharray:none"
         id="path3142" />
      <path
         inkscape:connector-curvature="0"
         d="m 104.57272,125.22096 c 31.648,17.07569 48.93386,20.46538 89.2982,30.12199"
         style="fill:#000000;fill-opacity:0.75;fill-rule:evenodd;stroke:#333333;stroke-width:5.83581448;stroke-linecap:butt;stroke-linejoin:miter;stroke-miterlimit:4;stroke-opacity:1;stroke-dasharray:none"
         id="path3144" />
      <path
         inkscape:connector-curvature="0"
         d="M 53.801973,73.519447 C 75.233834,88.261844 118.86149,111.08802 181.48786,131.76117"
         style="fill:#000000;fill-opacity:0.75;fill-rule:evenodd;stroke:#333333;stroke-width:5.83581448;stroke-linecap:butt;stroke-linejoin:miter;stroke-miterlimit:4;stroke-opacity:1;stroke-dasharray:none"
         id="path3146" />
      <path
         inkscape:connector-curvature="0"
         d="m 22.214905,27.932241 c 0,0 12.48886,6.861417 24.105888,14.792617 11.617017,7.93121 11.840248,10.632221 22.362211,16.932204 10.521952,6.299982 15.302886,6.957038 21.554743,9.943645 6.392815,3.053933 5.280515,4.886301 11.322383,7.682273 6.16389,2.852443 10.04676,0.312818 21.37911,4.783728 11.33235,4.4709 10.98504,7.998067 23.9503,13.099891 12.96524,5.101821 27.91071,7.307421 27.91071,7.307421"
         style="fill:#000000;fill-opacity:0.75;fill-rule:evenodd;stroke:#333333;stroke-width:5.83581448;stroke-linecap:butt;stroke-linejoin:miter;stroke-miterlimit:4;stroke-opacity:1;stroke-dasharray:none"
         id="path3148" />
      <path
         inkscape:connector-curvature="0"
         d="m 305.08212,222.90114 c -0.13048,0.45725 -5.31417,10.68066 -12.12228,11.86918 -6.8081,1.18852 -13.10595,-2.29865 -15.11013,-7.11512 -2.00418,-4.81648 7.09343,-12.15078 7.09343,-12.15078"
         style="fill:#000000;fill-opacity:0.75;fill-rule:evenodd;stroke:#333333;stroke-width:5.83581448;stroke-linecap:butt;stroke-linejoin:miter;stroke-miterlimit:4;stroke-opacity:1;stroke-dasharray:none"
         id="path3150" />
      <path
         inkscape:connector-curvature="0"
         d="m 280.18785,220.32826 c 0,0 -12.14722,10.29617 -19.62305,7.83263 -7.47585,-2.46355 -9.02828,-13.98587 -8.36484,-18.62353 0.66265,-4.63218 3.0407,-5.60171 7.38285,-8.68913"
         style="fill:#000000;fill-opacity:0.75;fill-rule:evenodd;stroke:#333333;stroke-width:5.83581448;stroke-linecap:butt;stroke-linejoin:miter;stroke-miterlimit:4;stroke-opacity:1;stroke-dasharray:none"
         id="path3152" />
      <path
         inkscape:connector-curvature="0"
         d="m 268.84957,195.0869 c -10.12147,4.85804 -16.24172,13.45426 -23.63858,11.21931 -7.24446,-2.19146 -11.63778,-8.58441 -12.12952,-13.51693 -0.50633,-5.0788 2.65323,-9.29739 2.65323,-9.29739"
         style="fill:#000000;fill-opacity:0.75;fill-rule:evenodd;stroke:#333333;stroke-width:5.83581448;stroke-linecap:butt;stroke-linejoin:miter;stroke-miterlimit:4;stroke-opacity:1;stroke-dasharray:none"
         id="path3154" />
      <path
         inkscape:connector-curvature="0"
         d="m 258.18877,179.02224 c -0.3483,0.0654 -14.92358,6.70289 -25.40411,3.54519 -10.39588,-3.1322 -15.25699,-16.3464 -13.35119,-22.51929 1.8623,-6.02049 8.04201,-6.52301 10.49103,-6.73054"
         style="fill:#000000;fill-opacity:0.75;fill-rule:evenodd;stroke:#333333;stroke-width:5.83581448;stroke-linecap:butt;stroke-linejoin:miter;stroke-miterlimit:4;stroke-opacity:1;stroke-dasharray:none"
         id="path3156" />
      <path
         inkscape:connector-curvature="0"
         d="m 249.85483,154.22634 c -0.6966,0.13083 -14.84737,2.27669 -23.68604,-2.47524 -8.82348,-4.74378 -12.85958,-16.47034 -13.09004,-22.85684 -0.23589,-6.53697 4.49232,-10.83283 7.87733,-11.43253"
         style="fill:#000000;fill-opacity:0.75;fill-rule:evenodd;stroke:#333333;stroke-width:5.83581448;stroke-linecap:butt;stroke-linejoin:miter;stroke-miterlimit:4;stroke-opacity:1;stroke-dasharray:none"
         id="path3158" />
    </g>
  </g>
  <g
     inkscape:groupmode="layer"
     id="layer1"
     inkscape:label="Cover"
     style="display:inline"
     sodipodi:insensitive="true">
    <path
       d="m 2,2 v 257 c 0,286 298,398 298,398 0,0 298,-112 298,-398 V 2 z"
       id="shine"
       inkscape:connector-curvature="0"
       style="fill:url(#radialGradient3074);stroke:#000000;stroke-width:3" />
  </g>
</svg>
