<?xml version="1.0" encoding="UTF-8"?>
<svg xmlns="http://www.w3.org/2000/svg" xmlns:xlink="http://www.w3.org/1999/xlink" width="600" height="660">
<defs>
  <radialGradient id="rg" gradientUnits="userSpaceOnUse" cx="220" cy="220" r="405">
    <stop style="stop-color:#fff;stop-opacity:.3" offset="0"/>
    <stop style="stop-color:#fff;stop-opacity:.2" offset=".2"/>
    <stop style="stop-color:#666;stop-opacity:.1" offset=".6"/>
    <stop style="stop-color:#000;stop-opacity:.13" offset="1"/>
  </radialGradient>
  <clipPath id="clip-shield">
    <path id="shield" d="m2,2v257c0,286 298,398 298,398c0,0 298-112 298-398V2z"/>
  </clipPath>
</defs>
<use id="background" xlink:href="#shield" fill="#00c"/>
<path id="bordure" fill="#fd0" d="M 2 2 L 2 259 C 2 545 300 657 300 657 C 300 657 598 545 598 259 L 598 2 L 2 2 z M 100 100 L 500 100 L 500 259 C 500 424.40588 365.1074 515.01826 300 549.1543 C 234.8926 515.01826 100 424.40588 100 259 L 100 100 z"/>
<g id="wreath" fill="#ffdd00" stroke="#0000cc" stroke-width="1">
  <g transform="matrix(0.39572097,0.05597193,-0.05597193,0.39572097,218.51097,-299.54851)">
    <path d="m 40.53586,1436.7067 c 13.83665,16.0406 30.06081,23.679 42.24397,32.4852 9.41574,6.8059 16.86637,15.0151 22.3554,19.343 5.25473,4.1432 14.48098,7.176 21.28407,13.3705 10.78303,9.8182 26.78494,38.4821 26.78494,38.4821 0,0 -11.47048,12.2534 -24.94419,6.9162 -41.72746,-5.1695 -53.99025,-24.951 -69.50399,-60.5572 -8.68361,-18.4626 -17.2753,-31.9736 -18.2202,-50.0398 z" />
    <path d="m 174.23494,1547.2374 2.81591,6.2578 c -50.01384,-22.8019 -115.62449,-68.7793 -137.10328,-115.6129 30.54195,50.5161 80.99616,83.8235 134.28737,109.3551 z" />
  </g>
  <g transform="matrix(0.37799451,0.12980027,-0.12980027,0.37799451,327.20008,-319.05831)">
    <path d="m 102.78679,1606.1835 c 18.95531,11.2611 37.7394,14.1949 52.7909,19.2208 11.63262,3.8845 31.65346,10.1918 38.54583,12.7876 6.59822,2.485 16.87621,7.1209 25.67455,11.1017 13.94541,6.3095 29.03746,23.8214 29.03746,23.8214 0,0 -21.21744,22.2597 -46.55828,19.1076 -19.87028,-2.4716 -29.88795,-7.9171 -39.85593,-12.7636 -10.36255,-5.0383 -10.12109,-10.76 -25.04645,-21.5174 -16.50364,-11.895 -28.06417,-35.3848 -34.58808,-51.7581 z" />
    <path d="m 103.04438,1607.0448 c 17.15921,16.7137 49.18745,35.3 81.32113,49.029 32.18359,13.7504 69.76834,18.151 87.87878,18.0381 l 4.78002,5.0441 c -26.05676,-2.4248 -60.41666,-7.1451 -89.53187,-19.0925 -37.96184,-15.5775 -69.13988,-35.5942 -84.69551,-52.0242 l 0.24745,-0.9945 z" />
  </g>
  <path d="m 161.70439,332.35289 c 13.09264,3.98684 18.8307,10.45623 29.94743,17.21211 10.39101,6.31483 25.53761,4.98579 29.09692,18.2923 -35.79326,8.91863 -52.5443,-11.10458 -59.04435,-35.50441 z" />
  <g transform="matrix(0.37799451,0.12980027,-0.12980027,0.37799451,321.00551,-325.00197)">
    <path d="m 214.50867,1757.7848 c 14.75112,-12.6497 141.48495,-55.5304 161.72376,-7.6042 -30.14858,33.341 -118.3916,40.7863 -161.72376,7.6042 z" />
    <path d="m 216.01082,1758.7353 c 67.51973,13.4805 146.87383,-0.043 178.24649,-18.5353 l 5.00689,3.3269 c -72.33581,30.8267 -142.61631,26.7699 -183.25338,15.2084 z" />
  </g>
  <path d="m 162.10936,332.48882 c 11.56928,15.24143 28.35977,29.40816 71.75976,38.09731 l 0.0742,1.63214 C 175.4131,357.5709 173.36583,345.21682 162.10936,332.48882 Z" />
  <g transform="matrix(0.30497648,0.10472647,-0.098001,0.28539107,303.98103,-147.9801)">
    <path d="m 244.55029,1791.5283 c 13.38565,-2.1172 29.1598,-5.2224 44.57875,-7.0054 15.48734,-1.7912 21.55494,-4.4712 33.00037,-6.0493 18.72785,-2.5822 40.1648,-28.8655 106.17508,-8.8073 -25.55384,58.8679 -112.75826,71.224 -183.7542,21.862 z" />
    <path d="m 245.05101,1792.0036 c 52.47827,1.8637 82.01597,25.2451 180.31816,-23.1398 8.03209,-3.9534 18.75115,-6.7081 24.96585,-9.6533 l 9.01243,3.3269 c -6.84225,3.054 -17.88709,2.9712 -24.04113,5.6867 -122.75175,54.1642 -119.31481,28.8417 -190.25531,23.7795 z" />
  </g>
  <path d="m 338.51887,452.6125 c 1.37876,-3.40922 3.01741,-6.37778 0.58375,-11.09624 -1.90399,1.87694 -3.09652,4.52682 -0.58375,11.09624 z" />
  <g transform="matrix(0.34157516,-0.04796156,0.04796156,0.34157516,60.092352,-208.25255)">
    <path d="m 189.85795,1574.7967 c 2.46162,-36.6613 20.25438,14.1478 56.1951,-67.7654 10.44459,-23.8044 10.36215,-38.9882 17.44583,-74.7245 -19.5665,30.8906 -52.2792,39.2254 -65.56161,63.0913 -13.0685,23.4815 -9.73362,61.2393 -8.07932,79.3986 z" />
    <path d="m 245.26783,1470.1008 c -22.54902,30.3638 -52.8627,66.3457 -54.28633,104.122 l -3.5214,1.3114 c 5.25022,-49.683 34.62312,-72.627 52.74049,-97.6916 l 5.06724,-7.7418 z" />
  </g>
  <g transform="matrix(0.37799451,0.12980027,-0.12980027,0.37799451,326.50456,-281.93577)">
    <path d="m 29.12708,1359.4281 c 11.8865,16.6992 26.6325,25.3061 37.48342,34.7855 8.38619,7.3262 14.81771,15.8976 19.68038,20.5225 4.6552,4.4275 13.13569,8.034 19.10254,14.5821 9.45732,10.3785 22.47169,39.6265 22.47169,39.6265 0,0 -15.26444,14.364 -27.58347,8.2049 -12.31903,-6.159 -28.83697,-20.1429 -37.00805,-27.4361 -8.5079,-7.594 -10.59796,-25.9148 -20.58773,-39.886 -11.62298,-16.2556 -13.97554,-32.5862 -13.55878,-50.3994 z" />
    <path d="m 65.13596,1411.0764 c 24.25936,27.6324 54.1148,53.9814 82.06478,66.027 l 2.20232,6.3392 c -45.51129,-25.8001 -64.69608,-49.1227 -84.834,-71.4821 l 0.5669,-0.8841 z" />
  </g>
  <g transform="matrix(0.3718243,-0.00563863,0.00837799,0.36699893,110.47549,-255.4704)">
    <path d="m 239.54341,1626.1372 c 68.37386,-53.1865 27.26869,-98.0546 21.5297,-137.826 -17.37281,44.8462 -66.28062,83.5202 -21.5297,137.826 z" />
    <path d="m 238.54187,1639.4445 c -2.78639,-54.1582 11.96864,-100.8236 21.52981,-149.7075 -9.03454,51.6182 -21.86182,103.5637 -17.02344,153.9849 l -4.50637,-4.2774 z" />
  </g>
  <g transform="matrix(0.31871693,0.00680405,0.00210773,0.30709208,135.57639,-173.34494)">
    <path d="m 163.43805,1498.7669 c 7.0424,-17.8214 1.63607,-25.0243 17.18979,-40.68 16.80672,-16.9169 49.0463,-47.1902 65.92523,-81.9375 2.43942,30.7198 2.82718,78.1514 -20.96862,94.0175 -18.00449,12.0048 -33.70324,15.3832 -62.1464,28.6 z" />
    <path d="m 157.36897,1509.603 c 7.13248,-33.1152 72.39154,-55.1057 88.68338,-132.0279 -13.36194,76.4798 -79.52041,95.7599 -86.17989,138.8004 l -2.50349,-6.7725 z" />
  </g>
  <g transform="matrix(0.31024907,0.02723762,-0.03767046,0.32688866,197.56783,-212.59763)">
    <path d="m 152.92356,1449.8149 c 87.12724,-2.4431 78.88873,-84.6397 79.61008,-123.0928 -15.73438,23.5345 -34.97812,43.9894 -49.31368,60.918 -15.65314,18.4843 -30.73516,39.3515 -30.2964,62.1748 z" />
    <path d="m 142.77019,1464.5687 1.77019,8.4015 c 9.64963,-51.8482 70.55256,-77.365 88.15675,-146.5226 -25.72787,74.9409 -75.37446,84.8343 -89.92694,138.1211 z" />
  </g>
  <g transform="matrix(0.36863093,-0.00908916,0.01675831,0.35509007,108.74184,-191.57522)">
    <path d="m 186.31747,1175.5562 c 16.65901,-77.1702 69.75237,-46.9858 99.1321,-80.9907 -15.19711,49.765 -37.51255,83.745 -99.1321,80.9907 z" />
    <path d="m 176.75832,1180.5972 c 38.88866,-26.4268 76.36083,-34.6586 108.69125,-84.6874 -25.96719,48.9474 -67.29829,61.3463 -110.10745,88.384 l 1.4162,-3.6966 z" />
  </g>
  <g transform="matrix(0.24316688,-0.03744939,0.014784,0.28260114,129.49331,-97.791314)">
    <path d="m 152.68334,1062.6398 c -35.18289,65.4377 -43.64243,103.2851 -2.12419,146.1865 0,0 21.79969,-20.4906 27.0053,-58.1942 4.40286,-31.8894 -21.61579,-70.0696 -24.88111,-87.9923 z" />
    <path d="m 150.55915,1065.3283 c -9.87971,49.1202 -10.60207,94.5525 2.47829,168.0304 l 2.83228,-5.3769 c -8.20582,-43.2859 -17.50989,-87.6303 -5.31057,-162.6535 z" />
  </g>
  <g transform="matrix(0.31494038,0.15463326,-0.15463326,0.31494038,362.6089,-208.1485)">
    <path d="m 46.33781,1311.8428 c 8.28336,16.2149 20.69819,25.8307 29.278,35.6344 6.63096,7.5768 11.19487,15.9478 14.97326,20.6679 3.61721,4.5187 10.99423,8.884 15.47629,15.4328 7.10417,10.3798 14.23715,37.6402 14.23715,37.6402 0,0 -10.34873,11.0157 -20.90239,3.8767 -10.55366,-7.139 -25.66359,-21.7152 -32.09712,-29.232 -6.69884,-7.8267 -10.08073,-24.7677 -17.05343,-38.3404 -8.11273,-15.7918 -7.45164,-30.2951 -3.91176,-45.6796 z" />
    <path d="m 71.24411,1361.8832 c 18.04476,27.5013 41.60436,54.7069 65.88953,69.2322 l 0.96157,5.8181 C 99.64399,1407.918 85.6336,1384.8944 70.55228,1362.567 l 0.69183,-0.6838 z" />
  </g>
  <g transform="matrix(0.35837897,0.08701438,-0.08701438,0.35837897,224.7377,-209.34714)">
    <path d="m 211.10054,1024.6649 c -9.3358,41.4801 26.5695,60.4945 -24.78307,113.9246 -36.63562,-43.5845 -19.14753,-54.472 24.78307,-113.9246 z" />
    <path d="m 210.03835,1026.3452 c -19.74014,41.6681 -34.84958,83.8385 -21.95069,129.0474 l 3.54048,-5.0409 c -15.29221,-41.3355 2.58424,-82.671 18.41021,-124.0065 z" />
  </g>
  <g transform="matrix(0.36748264,0.15711287,-0.15711287,0.36748264,384.78996,-44.672504)">
    <path d="m -2.2845182,979.003 c -13.3256908,59.3443 24.0920552,94.2107 64.0886052,111.2114 13.933836,-85.284 -42.775615,-66.0933 -64.0886052,-111.2114 z" />
    <path d="m -3.285956,979.003 c 2.0342082,34.912 45.946031,66.7231 67.593537,122.6176 l 6.008225,3.8021 C 40.891792,1037.8008 0.08892556,1016.9272 -3.285956,979.003 Z" />
  </g>
  <g transform="matrix(0.37799451,0.12980027,-0.12306708,0.35838661,317.75284,-286.86715)">
    <path d="m 346.77112,1626.234 c -8.84331,54.1723 22.75983,98.1925 70.42087,111.8454 15.5605,-69.8336 -48.82159,-72.3333 -70.42087,-111.8454 z" />
    <path d="m 346.68372,1626.669 c 17.49668,42.5043 41.16423,82.0662 83.57043,125.6764 l 9.12108,1.1798 c -47.19771,-37.3392 -73.10897,-85.8445 -92.69151,-126.8562 z" />
  </g>
  <g transform="matrix(0.35674132,0.00203276,-0.00203276,0.35674132,207.21897,-3.8920676)">
    <path d="m 179.12885,1032.2936 c -5.35793,23.8994 5.80888,50.8055 17.11255,72.6781 11.28705,21.8404 11.10918,28.5467 32.37509,43.5148 40.13,-44.0365 -32.36121,-79.8792 -49.48764,-116.1929 z" />
    <path d="m 179.53121,1031.8183 c 9.36265,55.9302 41.83749,92.8226 53.51099,130.8213 l 3.21863,0.7651 c -17.50159,-52.1184 -41.60829,-69.0185 -56.72962,-131.5864 z" />
  </g>
  <g transform="matrix(0.35206107,-0.07624122,0.07500962,0.35338855,39.617178,-178.54314)">
    <path d="m 162.43671,1247.3533 c 46.25002,-3.0454 83.7472,-25.8231 108.65028,-76.9924 -47.43564,21.1771 -100.03048,23.3213 -108.65028,76.9924 z" />
    <path d="m 147.01867,1256.2109 c 38.48777,-30.4309 88.38562,-50.6383 124.26917,-86.3677 -29.81859,34.0166 -87.11003,57.7908 -125.33127,91.4086 l 1.0621,-5.0409 z" />
  </g>
  <path d="m 234.4116,171.45578 c -18.26725,14.81524 -41.85207,39.13223 -49.02855,65.47367 -7.00161,25.69953 -5.20907,57.40138 26.9104,112.68642 24.4117,41.95584 69.0295,59.66915 89.82322,71.94124 20.74089,12.24098 34.42233,24.96353 36.41864,31.16148 1.37882,-3.40928 3.07808,-6.70844 0.54982,-11.45934 -8.99462,-8.31025 -24.18256,-18.9625 -47.51886,-30.15295 -62.72565,-30.07872 -102.81772,-94.47726 -103.86645,-144.92407 -0.75317,-36.23052 7.68816,-52.30129 47.10638,-94.27918 0,0 -0.3946,-0.44727 -0.3946,-0.44727 z" />
  <g transform="matrix(0.39556092,0.05709242,-0.05709242,0.39556092,205.25206,-290.25415)">
    <path d="m 199.65738,1188.0301 c 50.53826,5.3993 47.86626,-43.0784 62.27657,-83.5455 -29.76492,22.196 -87.10887,35.7655 -62.27657,83.5455 z" />
    <path d="m 188.21219,1201.7635 c 18.76367,-35.2271 48.71442,-60.7097 73.74989,-97.4443 -28.89677,41.7852 -59.92577,74.5044 -76.52884,103.1286" />
  </g>
</g>
<use xlink:href="#wreath" transform="matrix(-1,0,0,1,600,0)"/>
<use id="shine" xlink:href="#shield" fill="url(#rg)" stroke="#000" stroke-width="3"/>
</svg>