<?xml version="1.0" encoding="UTF-8"?>
<svg xmlns="http://www.w3.org/2000/svg" xmlns:xlink="http://www.w3.org/1999/xlink" width="600" height="660">
<defs>
  <radialGradient id="rg" gradientUnits="userSpaceOnUse" cx="220" cy="220" r="405">
    <stop style="stop-color:#ffffff;stop-opacity:.3" offset="0"/>
    <stop style="stop-color:#ffffff;stop-opacity:.2" offset=".2"/>
    <stop style="stop-color:#666666;stop-opacity:.1" offset=".6"/>
    <stop style="stop-color:#000000;stop-opacity:.13" offset="1"/>
  </radialGradient>
  <path id="shield" d="m2,2v257c0,286 298,398 298,398c0,0 298-112 298-398V2z"/>
</defs>
<use id="bg" xlink:href="#shield" style="fill:#308;"/>
<path id="pile" style="fill:#fff;" d="m 300,140.38477 -209.638672,363.10546 c 87.861002,107.73625 209.638672,153.50977 209.638672,153.50977 0,0 121.77767,-45.77352 209.63867,-153.50977 z" />
<path id="star" fill="#fff" transform="translate(300,75)scale(3)" d="m0,-10 2,8 8,2 -8,2 -2,8 -2,-8 -8,-2 8,-2z"/>
<use xlink:href="#star" transform="rotate(-36,300,500)rotate(36,300,75)"/>
<use xlink:href="#star" transform="rotate(-24,300,500)rotate(24,300,75)"/>
<use xlink:href="#star" transform="rotate(-12,300,500)rotate(12,300,75)"/>
<use xlink:href="#star" transform="rotate(12,300,500)rotate(-12,300,75)"/>
<use xlink:href="#star" transform="rotate(24,300,500)rotate(-24,300,75)"/>
<use xlink:href="#star" transform="rotate(36,300,500)rotate(-36,300,75)"/>
<use id="shine" xlink:href="#shield" style="fill:url(#rg);stroke:#000000;stroke-width:3;"/>
</svg>
