<?xml version="1.0" encoding="UTF-8" standalone="no"?>
<svg
   xmlns:dc="http://purl.org/dc/elements/1.1/"
   xmlns:cc="http://creativecommons.org/ns#"
   xmlns:rdf="http://www.w3.org/1999/02/22-rdf-syntax-ns#"
   xmlns:svg="http://www.w3.org/2000/svg"
   xmlns="http://www.w3.org/2000/svg"
   xmlns:xlink="http://www.w3.org/1999/xlink"
   xmlns:sodipodi="http://sodipodi.sourceforge.net/DTD/sodipodi-0.dtd"
   xmlns:inkscape="http://www.inkscape.org/namespaces/inkscape"
   width="600"
   height="660"
   id="svg2"
   version="1.1"
   inkscape:version="0.48.2 r9819"
   sodipodi:docname="House_Estren.svg">
  <metadata
     id="metadata24">
    <rdf:RDF>
      <cc:Work
         rdf:about="">
        <dc:format>image/svg+xml</dc:format>
        <dc:type
           rdf:resource="http://purl.org/dc/dcmitype/StillImage" />
        <dc:title></dc:title>
      </cc:Work>
    </rdf:RDF>
  </metadata>
  <sodipodi:namedview
     pagecolor="#ffffff"
     bordercolor="#666666"
     borderopacity="1"
     objecttolerance="10"
     gridtolerance="10"
     guidetolerance="10"
     inkscape:pageopacity="0"
     inkscape:pageshadow="2"
     inkscape:window-width="1366"
     inkscape:window-height="715"
     id="namedview22"
     showgrid="false"
     inkscape:zoom="0.71515154"
     inkscape:cx="110.34171"
     inkscape:cy="286.40898"
     inkscape:window-x="-8"
     inkscape:window-y="-8"
     inkscape:window-maximized="1"
     inkscape:current-layer="layer2" />
  <defs
     id="defs4">
    <radialGradient
       id="rg"
       gradientUnits="userSpaceOnUse"
       cx="220"
       cy="220"
       r="405">
      <stop
         style="stop-color:#fff;stop-opacity:.3"
         offset="0"
         id="stop7" />
      <stop
         style="stop-color:#fff;stop-opacity:.2"
         offset=".2"
         id="stop9" />
      <stop
         style="stop-color:#666;stop-opacity:.1"
         offset=".6"
         id="stop11" />
      <stop
         style="stop-color:#000;stop-opacity:.13"
         offset="1"
         id="stop13" />
    </radialGradient>
    <path
       id="shield"
       d="m2,2v257c0,286 298,398 298,398c0,0 298-112 298-398V2z" />
    <radialGradient
       inkscape:collect="always"
       xlink:href="#rg-7"
       id="radialGradient3055-1"
       gradientUnits="userSpaceOnUse"
       cx="220"
       cy="220"
       r="405" />
    <radialGradient
       id="rg-7"
       gradientUnits="userSpaceOnUse"
       cx="220"
       cy="220"
       r="405">
      <stop
         style="stop-color:#fff;stop-opacity:.3"
         offset="0"
         id="stop7-4" />
      <stop
         style="stop-color:#fff;stop-opacity:.2"
         offset=".2"
         id="stop9-0" />
      <stop
         style="stop-color:#666;stop-opacity:.1"
         offset=".6"
         id="stop11-9" />
      <stop
         style="stop-color:#000;stop-opacity:.13"
         offset="1"
         id="stop13-4" />
    </radialGradient>
    <radialGradient
       r="405"
       cy="220"
       cx="220"
       gradientUnits="userSpaceOnUse"
       id="radialGradient3074"
       xlink:href="#rg-7"
       inkscape:collect="always" />
  </defs>
  <g
     inkscape:groupmode="layer"
     id="layer2"
     inkscape:label="Elements"
     style="display:inline">
    <use
       height="1052.3622"
       width="744.09448"
       y="0"
       x="0"
       id="background"
       xlink:href="#shield"
       style="fill:#ffdd00" />
    <path
       id="bordure"
       d="m 2,2 0,257 c 0,286 298,398 298,398 0,0 298,-112 298,-398 L 598,2 2,2 z m 98,98 400,0 0,159 C 500,424.40588 365.1074,515.01826 300,549.1543 234.8926,515.01826 100,424.40588 100,259 l 0,-159 z"
       style="fill:#668866"
       inkscape:connector-curvature="0" />
    <g
       style="stroke:#333333;stroke-width:1.42459989;stroke-miterlimit:4;stroke-dasharray:none;display:inline"
       id="g20243"
       transform="matrix(1.4027392,0,0,1.4050676,72.007843,-121.6128)">
      <path
         inkscape:connector-curvature="0"
         sodipodi:nodetypes="ccccccccccccccccccccc"
         id="polygon16360"
         d="m 43.516882,127.64803 c 0.210248,2.85057 2.804247,4.03533 3.531898,0.94197 l 3.47022,0.868 c 2.675398,-4.03018 6.735525,-14.08562 6.251,-20.9327 -0.422149,-25.290935 -39.729488,-26.64169 -39.591,-0.15102 0.270643,6.98937 3.012092,14.6202 6.079,21.26072 l 3.644,-1.566 c 1.026328,3.8009 2.906184,1.80308 3.353891,-0.26502 0.0426,0.28241 0.09998,0.37067 0.0066,0.0936 -0.536305,2.13064 -2.376519,3.96829 -3.36045,0.17147 l -5.555,2.58136 c 0.711386,4.14581 2.599547,4.02248 6.077,2.38188 1.643243,-0.82575 3.605566,-1.50173 3.622334,-3.17612 0.174765,-1.05724 -5.351503,-12.1841 -5.556,-19.102 C 24.928376,95.379288 48.353166,93.925904 48.609,110.704 c -0.165266,6.81353 -5.572524,17.51187 -5.731,18.48361 -0.183165,1.02083 -1.706344,2.30545 4.300436,4.0639 3.479158,1.11996 5.451004,0.77252 5.501121,-3.14863 L 46.998668,128.59 c -0.776803,3.11892 -3.195288,1.86652 -3.41612,-0.82172 l -0.06567,-0.12025 z"
         style="fill:#000000;stroke:#333333;stroke-width:0.62661976;stroke-miterlimit:4;stroke-opacity:1;stroke-dasharray:none"
         transform="matrix(2.273699,0,0,2.273237,-5.904366,-31.40286)" />
      <polyline
         transform="matrix(2.273699,0,0,2.273237,-5.904366,-31.40286)"
         points="23.777,95.771 26.035,94.381 28.292,92.992        30.723,92.819 32.633,93.514 34.716,94.034 36.974,94.208 39.232,93.861 41.663,93.34 43.226,92.819 45.31,93.34        46.873,94.034 48.435,95.423      "
         id="polyline16362"
         style="fill:#000000;stroke:#333333;stroke-width:0.62661976;stroke-miterlimit:4;stroke-opacity:1;stroke-dasharray:none" />
      <circle
         transform="matrix(2.273699,0,0,2.273237,-5.904366,-31.40286)"
         cx="23.233"
         cy="120.232"
         r="0.671"
         id="circle16364"
         sodipodi:cx="23.233"
         sodipodi:cy="120.232"
         sodipodi:rx="0.671"
         sodipodi:ry="0.671"
         style="fill:#000000;stroke:#333333;stroke-width:0.62661976;stroke-miterlimit:4;stroke-opacity:1;stroke-dasharray:none"
         d="m 23.904,120.232 c 0,0.37059 -0.300417,0.671 -0.671,0.671 -0.370583,0 -0.671,-0.30041 -0.671,-0.671 0,-0.37058 0.300417,-0.671 0.671,-0.671 0.370583,0 0.671,0.30042 0.671,0.671 z" />
      <circle
         transform="matrix(2.273699,0,0,2.273237,-5.904366,-31.40286)"
         cx="20.851999"
         cy="110.626"
         r="0.671"
         id="circle16366"
         sodipodi:cx="20.851999"
         sodipodi:cy="110.626"
         sodipodi:rx="0.671"
         sodipodi:ry="0.671"
         style="fill:#000000;stroke:#333333;stroke-width:0.62661976;stroke-miterlimit:4;stroke-opacity:1;stroke-dasharray:none"
         d="m 21.522999,110.626 c 0,0.37058 -0.300417,0.671 -0.671,0.671 -0.370583,0 -0.671,-0.30042 -0.671,-0.671 0,-0.37058 0.300417,-0.671 0.671,-0.671 0.370583,0 0.671,0.30042 0.671,0.671 z" />
      <circle
         transform="matrix(2.273699,0,0,2.273237,-5.904366,-31.40286)"
         cx="22.761999"
         cy="101.944"
         r="0.671"
         id="circle16368"
         sodipodi:cx="22.761999"
         sodipodi:cy="101.944"
         sodipodi:rx="0.671"
         sodipodi:ry="0.671"
         style="fill:#000000;stroke:#333333;stroke-width:0.62661976;stroke-miterlimit:4;stroke-opacity:1;stroke-dasharray:none"
         d="m 23.432999,101.944 c 0,0.37058 -0.300417,0.671 -0.671,0.671 -0.370583,0 -0.671,-0.30042 -0.671,-0.671 0,-0.37058 0.300417,-0.671 0.671,-0.671 0.370583,0 0.671,0.30042 0.671,0.671 z" />
      <circle
         transform="matrix(2.273699,0,0,2.273237,-5.904366,-31.40286)"
         cx="30.75"
         cy="95.345001"
         r="0.671"
         id="circle16370"
         sodipodi:cx="30.75"
         sodipodi:cy="95.345001"
         sodipodi:rx="0.671"
         sodipodi:ry="0.671"
         style="fill:#000000;stroke:#333333;stroke-width:0.62661976;stroke-miterlimit:4;stroke-opacity:1;stroke-dasharray:none"
         d="m 31.421,95.345001 c 0,0.370583 -0.300417,0.671 -0.671,0.671 -0.370583,0 -0.671,-0.300417 -0.671,-0.671 0,-0.370583 0.300417,-0.671 0.671,-0.671 0.370583,0 0.671,0.300417 0.671,0.671 z" />
      <circle
         transform="matrix(2.273699,0,0,2.273237,-5.904366,-31.40286)"
         cx="42.730999"
         cy="95.693001"
         r="0.671"
         id="circle16372"
         sodipodi:cx="42.730999"
         sodipodi:cy="95.693001"
         sodipodi:rx="0.671"
         sodipodi:ry="0.671"
         style="fill:#000000;stroke:#333333;stroke-width:0.62661976;stroke-miterlimit:4;stroke-opacity:1;stroke-dasharray:none"
         d="m 43.401999,95.693001 c 0,0.370583 -0.300417,0.671 -0.671,0.671 -0.370583,0 -0.671,-0.300417 -0.671,-0.671 0,-0.370583 0.300417,-0.671 0.671,-0.671 0.370583,0 0.671,0.300417 0.671,0.671 z" />
      <circle
         transform="matrix(2.273699,0,0,2.273237,-5.904366,-31.40286)"
         cx="50.373001"
         cy="101.423"
         r="0.671"
         id="circle16374"
         sodipodi:cx="50.373001"
         sodipodi:cy="101.423"
         sodipodi:rx="0.671"
         sodipodi:ry="0.671"
         style="fill:#000000;stroke:#333333;stroke-width:0.62661976;stroke-miterlimit:4;stroke-opacity:1;stroke-dasharray:none"
         d="m 51.044001,101.423 c 0,0.37058 -0.300417,0.671 -0.671,0.671 -0.370583,0 -0.671,-0.30042 -0.671,-0.671 0,-0.37059 0.300417,-0.671 0.671,-0.671 0.370583,0 0.671,0.30041 0.671,0.671 z" />
      <circle
         transform="matrix(2.273699,0,0,2.273237,-5.904366,-31.40286)"
         cx="52.803001"
         cy="110.973"
         r="0.671"
         id="circle16376"
         sodipodi:cx="52.803001"
         sodipodi:cy="110.973"
         sodipodi:rx="0.671"
         sodipodi:ry="0.671"
         style="fill:#000000;stroke:#333333;stroke-width:0.62661976;stroke-miterlimit:4;stroke-opacity:1;stroke-dasharray:none"
         d="m 53.474001,110.973 c 0,0.37058 -0.300417,0.671 -0.671,0.671 -0.370583,0 -0.671,-0.30042 -0.671,-0.671 0,-0.37058 0.300417,-0.671 0.671,-0.671 0.370583,0 0.671,0.30042 0.671,0.671 z" />
      <circle
         transform="matrix(2.273699,0,0,2.273237,-5.904366,-31.40286)"
         cx="50.372002"
         cy="120.177"
         r="0.671"
         id="circle16378"
         sodipodi:cx="50.372002"
         sodipodi:cy="120.177"
         sodipodi:rx="0.671"
         sodipodi:ry="0.671"
         style="fill:#000000;stroke:#333333;stroke-width:0.62661976;stroke-miterlimit:4;stroke-opacity:1;stroke-dasharray:none"
         d="m 51.043002,120.177 c 0,0.37059 -0.300417,0.671 -0.671,0.671 -0.370583,0 -0.671,-0.30041 -0.671,-0.671 0,-0.37058 0.300417,-0.671 0.671,-0.671 0.370583,0 0.671,0.30042 0.671,0.671 z" />
    </g>
    <g
       id="g3216"
       style="stroke:#888888;stroke-width:1.21382701"
       transform="matrix(0.8238406,0,0,0.8238406,40.581057,79.660547)">
      <path
         d="m 305.99432,515.84933 c 5.88909,23.98881 13.34312,23.98881 18.94394,10e-6 5.60081,-23.98879 7.33048,-53.51662 1.15311,-77.50541 -6.17737,-23.98878 -16.22589,-23.98877 -22.40326,10e-6 -6.17738,23.98879 -3.58288,53.51661 2.30621,77.50539 z"
         id="path39"
         inkscape:connector-curvature="0"
         style="fill:#000000;stroke:#888888;stroke-width:2.42765403" />
      <path
         d="m 296.06442,431.78605 37.65065,1e-5 -5.45448,-350.77532 -13.37086,-30.322655 -13.37084,30.322655 -5.45447,350.77531 z"
         id="path41"
         inkscape:connector-curvature="0"
         style="fill:#000000;stroke:#888888;stroke-width:2.42765403;stroke-opacity:1" />
      <path
         d="m 313.06359,428.62047 1.35957,-333.660402 4.09491,333.660402 -5.45448,0 z"
         id="path43"
         inkscape:connector-curvature="0"
         style="fill:#000000;stroke:#888888;stroke-width:1.21382701" />
      <path
         d="m 308.57246,527.66098 c -0.2245,-0.54399 -0.4441,-1.08061 -0.64862,-1.62156 l 18.07137,-10.52213 c -0.18025,0.77122 -0.36947,1.53771 -0.55853,2.30623 l -16.86422,9.83746 z m -3.17106,-9.69332 c -0.15235,-0.57518 -0.30302,-1.15294 -0.45043,-1.72967 l 23.63874,-13.78327 c -0.12267,0.74645 -0.24708,1.4894 -0.37837,2.23416 l -22.80994,13.27878 z m -2.39629,-10.12574 c -0.12511,-0.59424 -0.25869,-1.18823 -0.37837,-1.78372 l 27.60254,-16.07146 c -0.069,0.71027 -0.13911,1.4166 -0.2162,2.12605 l -27.00797,15.72913 z m -1.90986,-10.43204 c -0.0936,-0.60616 -0.18244,-1.21268 -0.27025,-1.81976 l 30.17904,-17.58491 c -0.0205,0.67787 -0.0438,1.35828 -0.0721,2.03596 l -29.8367,17.36871 z m -1.33326,-10.75635 c -0.06,-0.62565 -0.12667,-1.24758 -0.18018,-1.8738 L 330.968,466.49214 c 0.0244,0.65589 0.0374,1.30766 0.054,1.96389 l -31.26007,18.1975 z m -0.73872,-11.09867 c -0.0219,-0.65269 -0.0394,-1.31103 -0.054,-1.96389 l 31.20601,-18.17949 c 0.0667,0.62843 0.12095,1.26263 0.18017,1.89182 l -31.33213,18.25156 z m 0,-11.53109 c 0.0231,-0.67902 0.0407,-1.35725 0.0721,-2.03596 l 29.54843,-17.20655 c 0.0463,0.20854 0.0975,0.42321 0.14414,0.63061 0.0679,0.39176 0.13344,0.77888 0.19819,1.17112 l -29.96283,17.44078 z m 0.84682,-12.01756 c 0.10815,-0.72245 0.21343,-1.45158 0.3243,-2.1801 l 26.05307,-15.18861 c 0.16354,0.5753 0.3186,1.14982 0.46845,1.72966 l -26.84582,15.63905 z"
         id="path45"
         inkscape:connector-curvature="0"
         style="fill:#000000;stroke:#888888;stroke-width:1.21382701" />
      <path
         d="m 268.22663,426.27315 93.32623,0 0,12.37313 -93.32623,0 z"
         id="path47"
         inkscape:connector-curvature="0"
         style="fill:#000000;stroke:#888888;stroke-width:2.42765403" />
      <path
         d="m 331.48837,524.67927 a 16.598632,16.598632 0 1 0 -33.19726,10e-6 16.598632,16.598632 0 0 0 33.19726,-10e-6 z"
         id="path49"
         inkscape:connector-curvature="0"
         style="fill:#000000;stroke:#888888;stroke-width:2.42765403" />
      <path
         d="m 321.89537,524.67925 a 7.0056539,7.0056539 0 1 0 -14.0113,10e-6 7.0056539,7.0056539 0 1 0 14.0113,-10e-6 z"
         id="path51"
         inkscape:connector-curvature="0"
         style="fill:#000000;stroke:#888888;stroke-width:2.42765403" />
    </g>
    <g
       transform="matrix(1.4027392,0,0,1.4050676,100.26772,37.950459)"
       id="g3993"
       style="stroke:#333333;stroke-width:1.42459989;stroke-miterlimit:4;stroke-dasharray:none;display:inline">
      <path
         transform="matrix(2.273699,0,0,2.273237,-5.904366,-31.40286)"
         style="fill:#000000;stroke:#333333;stroke-width:0.62661976;stroke-miterlimit:4;stroke-opacity:1;stroke-dasharray:none"
         d="m 43.516882,127.64803 c 0.210248,2.85057 2.804247,4.03533 3.531898,0.94197 l 3.47022,0.868 c 2.675398,-4.03018 6.735525,-14.08562 6.251,-20.9327 -0.422149,-25.290935 -39.729488,-26.64169 -39.591,-0.15102 0.270643,6.98937 3.012092,14.6202 6.079,21.26072 l 3.644,-1.566 c 1.026328,3.8009 2.906184,1.80308 3.353891,-0.26502 0.0426,0.28241 0.09998,0.37067 0.0066,0.0936 -0.536305,2.13064 -2.376519,3.96829 -3.36045,0.17147 l -5.555,2.58136 c 0.711386,4.14581 2.599547,4.02248 6.077,2.38188 1.643243,-0.82575 3.605566,-1.50173 3.622334,-3.17612 0.174765,-1.05724 -5.351503,-12.1841 -5.556,-19.102 C 24.928376,95.379288 48.353166,93.925904 48.609,110.704 c -0.165266,6.81353 -5.572524,17.51187 -5.731,18.48361 -0.183165,1.02083 -1.706344,2.30545 4.300436,4.0639 3.479158,1.11996 5.451004,0.77252 5.501121,-3.14863 L 46.998668,128.59 c -0.776803,3.11892 -3.195288,1.86652 -3.41612,-0.82172 l -0.06567,-0.12025 z"
         id="path3995"
         sodipodi:nodetypes="ccccccccccccccccccccc"
         inkscape:connector-curvature="0" />
      <polyline
         style="fill:#000000;stroke:#333333;stroke-width:0.62661976;stroke-miterlimit:4;stroke-opacity:1;stroke-dasharray:none"
         id="polyline3997"
         points="23.777,95.771 26.035,94.381 28.292,92.992        30.723,92.819 32.633,93.514 34.716,94.034 36.974,94.208 39.232,93.861 41.663,93.34 43.226,92.819 45.31,93.34        46.873,94.034 48.435,95.423      "
         transform="matrix(2.273699,0,0,2.273237,-5.904366,-31.40286)" />
      <circle
         d="m 23.904,120.232 c 0,0.37059 -0.300417,0.671 -0.671,0.671 -0.370583,0 -0.671,-0.30041 -0.671,-0.671 0,-0.37058 0.300417,-0.671 0.671,-0.671 0.370583,0 0.671,0.30042 0.671,0.671 z"
         style="fill:#000000;stroke:#333333;stroke-width:0.62661976;stroke-miterlimit:4;stroke-opacity:1;stroke-dasharray:none"
         sodipodi:ry="0.671"
         sodipodi:rx="0.671"
         sodipodi:cy="120.232"
         sodipodi:cx="23.233"
         id="circle3999"
         r="0.671"
         cy="120.232"
         cx="23.233"
         transform="matrix(2.273699,0,0,2.273237,-5.904366,-31.40286)" />
      <circle
         d="m 21.522999,110.626 c 0,0.37058 -0.300417,0.671 -0.671,0.671 -0.370583,0 -0.671,-0.30042 -0.671,-0.671 0,-0.37058 0.300417,-0.671 0.671,-0.671 0.370583,0 0.671,0.30042 0.671,0.671 z"
         style="fill:#000000;stroke:#333333;stroke-width:0.62661976;stroke-miterlimit:4;stroke-opacity:1;stroke-dasharray:none"
         sodipodi:ry="0.671"
         sodipodi:rx="0.671"
         sodipodi:cy="110.626"
         sodipodi:cx="20.851999"
         id="circle4001"
         r="0.671"
         cy="110.626"
         cx="20.851999"
         transform="matrix(2.273699,0,0,2.273237,-5.904366,-31.40286)" />
      <circle
         d="m 23.432999,101.944 c 0,0.37058 -0.300417,0.671 -0.671,0.671 -0.370583,0 -0.671,-0.30042 -0.671,-0.671 0,-0.37058 0.300417,-0.671 0.671,-0.671 0.370583,0 0.671,0.30042 0.671,0.671 z"
         style="fill:#000000;stroke:#333333;stroke-width:0.62661976;stroke-miterlimit:4;stroke-opacity:1;stroke-dasharray:none"
         sodipodi:ry="0.671"
         sodipodi:rx="0.671"
         sodipodi:cy="101.944"
         sodipodi:cx="22.761999"
         id="circle4003"
         r="0.671"
         cy="101.944"
         cx="22.761999"
         transform="matrix(2.273699,0,0,2.273237,-5.904366,-31.40286)" />
      <circle
         d="m 31.421,95.345001 c 0,0.370583 -0.300417,0.671 -0.671,0.671 -0.370583,0 -0.671,-0.300417 -0.671,-0.671 0,-0.370583 0.300417,-0.671 0.671,-0.671 0.370583,0 0.671,0.300417 0.671,0.671 z"
         style="fill:#000000;stroke:#333333;stroke-width:0.62661976;stroke-miterlimit:4;stroke-opacity:1;stroke-dasharray:none"
         sodipodi:ry="0.671"
         sodipodi:rx="0.671"
         sodipodi:cy="95.345001"
         sodipodi:cx="30.75"
         id="circle4005"
         r="0.671"
         cy="95.345001"
         cx="30.75"
         transform="matrix(2.273699,0,0,2.273237,-5.904366,-31.40286)" />
      <circle
         d="m 43.401999,95.693001 c 0,0.370583 -0.300417,0.671 -0.671,0.671 -0.370583,0 -0.671,-0.300417 -0.671,-0.671 0,-0.370583 0.300417,-0.671 0.671,-0.671 0.370583,0 0.671,0.300417 0.671,0.671 z"
         style="fill:#000000;stroke:#333333;stroke-width:0.62661976;stroke-miterlimit:4;stroke-opacity:1;stroke-dasharray:none"
         sodipodi:ry="0.671"
         sodipodi:rx="0.671"
         sodipodi:cy="95.693001"
         sodipodi:cx="42.730999"
         id="circle4007"
         r="0.671"
         cy="95.693001"
         cx="42.730999"
         transform="matrix(2.273699,0,0,2.273237,-5.904366,-31.40286)" />
      <circle
         d="m 51.044001,101.423 c 0,0.37058 -0.300417,0.671 -0.671,0.671 -0.370583,0 -0.671,-0.30042 -0.671,-0.671 0,-0.37059 0.300417,-0.671 0.671,-0.671 0.370583,0 0.671,0.30041 0.671,0.671 z"
         style="fill:#000000;stroke:#333333;stroke-width:0.62661976;stroke-miterlimit:4;stroke-opacity:1;stroke-dasharray:none"
         sodipodi:ry="0.671"
         sodipodi:rx="0.671"
         sodipodi:cy="101.423"
         sodipodi:cx="50.373001"
         id="circle4009"
         r="0.671"
         cy="101.423"
         cx="50.373001"
         transform="matrix(2.273699,0,0,2.273237,-5.904366,-31.40286)" />
      <circle
         d="m 53.474001,110.973 c 0,0.37058 -0.300417,0.671 -0.671,0.671 -0.370583,0 -0.671,-0.30042 -0.671,-0.671 0,-0.37058 0.300417,-0.671 0.671,-0.671 0.370583,0 0.671,0.30042 0.671,0.671 z"
         style="fill:#000000;stroke:#333333;stroke-width:0.62661976;stroke-miterlimit:4;stroke-opacity:1;stroke-dasharray:none"
         sodipodi:ry="0.671"
         sodipodi:rx="0.671"
         sodipodi:cy="110.973"
         sodipodi:cx="52.803001"
         id="circle4011"
         r="0.671"
         cy="110.973"
         cx="52.803001"
         transform="matrix(2.273699,0,0,2.273237,-5.904366,-31.40286)" />
      <circle
         d="m 51.043002,120.177 c 0,0.37059 -0.300417,0.671 -0.671,0.671 -0.370583,0 -0.671,-0.30041 -0.671,-0.671 0,-0.37058 0.300417,-0.671 0.671,-0.671 0.370583,0 0.671,0.30042 0.671,0.671 z"
         style="fill:#000000;stroke:#333333;stroke-width:0.62661976;stroke-miterlimit:4;stroke-opacity:1;stroke-dasharray:none"
         sodipodi:ry="0.671"
         sodipodi:rx="0.671"
         sodipodi:cy="120.177"
         sodipodi:cx="50.372002"
         id="circle4013"
         r="0.671"
         cy="120.177"
         cx="50.372002"
         transform="matrix(2.273699,0,0,2.273237,-5.904366,-31.40286)" />
    </g>
    <g
       transform="matrix(-1.4027392,0,0,1.4050676,527.99216,-121.6128)"
       id="g4015"
       style="stroke:#333333;stroke-width:1.42459989;stroke-miterlimit:4;stroke-dasharray:none;display:inline">
      <path
         transform="matrix(2.273699,0,0,2.273237,-5.904366,-31.40286)"
         style="fill:#000000;stroke:#333333;stroke-width:0.62661976;stroke-miterlimit:4;stroke-opacity:1;stroke-dasharray:none"
         d="m 43.516882,127.64803 c 0.210248,2.85057 2.804247,4.03533 3.531898,0.94197 l 3.47022,0.868 c 2.675398,-4.03018 6.735525,-14.08562 6.251,-20.9327 -0.422149,-25.290935 -39.729488,-26.64169 -39.591,-0.15102 0.270643,6.98937 3.012092,14.6202 6.079,21.26072 l 3.644,-1.566 c 1.026328,3.8009 2.906184,1.80308 3.353891,-0.26502 0.0426,0.28241 0.09998,0.37067 0.0066,0.0936 -0.536305,2.13064 -2.376519,3.96829 -3.36045,0.17147 l -5.555,2.58136 c 0.711386,4.14581 2.599547,4.02248 6.077,2.38188 1.643243,-0.82575 3.605566,-1.50173 3.622334,-3.17612 0.174765,-1.05724 -5.351503,-12.1841 -5.556,-19.102 C 24.928376,95.379288 48.353166,93.925904 48.609,110.704 c -0.165266,6.81353 -5.572524,17.51187 -5.731,18.48361 -0.183165,1.02083 -1.706344,2.30545 4.300436,4.0639 3.479158,1.11996 5.451004,0.77252 5.501121,-3.14863 L 46.998668,128.59 c -0.776803,3.11892 -3.195288,1.86652 -3.41612,-0.82172 l -0.06567,-0.12025 z"
         id="path4017"
         sodipodi:nodetypes="ccccccccccccccccccccc"
         inkscape:connector-curvature="0" />
      <polyline
         style="fill:#000000;stroke:#333333;stroke-width:0.62661976;stroke-miterlimit:4;stroke-opacity:1;stroke-dasharray:none"
         id="polyline4019"
         points="23.777,95.771 26.035,94.381 28.292,92.992        30.723,92.819 32.633,93.514 34.716,94.034 36.974,94.208 39.232,93.861 41.663,93.34 43.226,92.819 45.31,93.34        46.873,94.034 48.435,95.423      "
         transform="matrix(2.273699,0,0,2.273237,-5.904366,-31.40286)" />
      <circle
         d="m 23.904,120.232 c 0,0.37059 -0.300417,0.671 -0.671,0.671 -0.370583,0 -0.671,-0.30041 -0.671,-0.671 0,-0.37058 0.300417,-0.671 0.671,-0.671 0.370583,0 0.671,0.30042 0.671,0.671 z"
         style="fill:#000000;stroke:#333333;stroke-width:0.62661976;stroke-miterlimit:4;stroke-opacity:1;stroke-dasharray:none"
         sodipodi:ry="0.671"
         sodipodi:rx="0.671"
         sodipodi:cy="120.232"
         sodipodi:cx="23.233"
         id="circle4021"
         r="0.671"
         cy="120.232"
         cx="23.233"
         transform="matrix(2.273699,0,0,2.273237,-5.904366,-31.40286)" />
      <circle
         d="m 21.522999,110.626 c 0,0.37058 -0.300417,0.671 -0.671,0.671 -0.370583,0 -0.671,-0.30042 -0.671,-0.671 0,-0.37058 0.300417,-0.671 0.671,-0.671 0.370583,0 0.671,0.30042 0.671,0.671 z"
         style="fill:#000000;stroke:#333333;stroke-width:0.62661976;stroke-miterlimit:4;stroke-opacity:1;stroke-dasharray:none"
         sodipodi:ry="0.671"
         sodipodi:rx="0.671"
         sodipodi:cy="110.626"
         sodipodi:cx="20.851999"
         id="circle4023"
         r="0.671"
         cy="110.626"
         cx="20.851999"
         transform="matrix(2.273699,0,0,2.273237,-5.904366,-31.40286)" />
      <circle
         d="m 23.432999,101.944 c 0,0.37058 -0.300417,0.671 -0.671,0.671 -0.370583,0 -0.671,-0.30042 -0.671,-0.671 0,-0.37058 0.300417,-0.671 0.671,-0.671 0.370583,0 0.671,0.30042 0.671,0.671 z"
         style="fill:#000000;stroke:#333333;stroke-width:0.62661976;stroke-miterlimit:4;stroke-opacity:1;stroke-dasharray:none"
         sodipodi:ry="0.671"
         sodipodi:rx="0.671"
         sodipodi:cy="101.944"
         sodipodi:cx="22.761999"
         id="circle4025"
         r="0.671"
         cy="101.944"
         cx="22.761999"
         transform="matrix(2.273699,0,0,2.273237,-5.904366,-31.40286)" />
      <circle
         d="m 31.421,95.345001 c 0,0.370583 -0.300417,0.671 -0.671,0.671 -0.370583,0 -0.671,-0.300417 -0.671,-0.671 0,-0.370583 0.300417,-0.671 0.671,-0.671 0.370583,0 0.671,0.300417 0.671,0.671 z"
         style="fill:#000000;stroke:#333333;stroke-width:0.62661976;stroke-miterlimit:4;stroke-opacity:1;stroke-dasharray:none"
         sodipodi:ry="0.671"
         sodipodi:rx="0.671"
         sodipodi:cy="95.345001"
         sodipodi:cx="30.75"
         id="circle4027"
         r="0.671"
         cy="95.345001"
         cx="30.75"
         transform="matrix(2.273699,0,0,2.273237,-5.904366,-31.40286)" />
      <circle
         d="m 43.401999,95.693001 c 0,0.370583 -0.300417,0.671 -0.671,0.671 -0.370583,0 -0.671,-0.300417 -0.671,-0.671 0,-0.370583 0.300417,-0.671 0.671,-0.671 0.370583,0 0.671,0.300417 0.671,0.671 z"
         style="fill:#000000;stroke:#333333;stroke-width:0.62661976;stroke-miterlimit:4;stroke-opacity:1;stroke-dasharray:none"
         sodipodi:ry="0.671"
         sodipodi:rx="0.671"
         sodipodi:cy="95.693001"
         sodipodi:cx="42.730999"
         id="circle4029"
         r="0.671"
         cy="95.693001"
         cx="42.730999"
         transform="matrix(2.273699,0,0,2.273237,-5.904366,-31.40286)" />
      <circle
         d="m 51.044001,101.423 c 0,0.37058 -0.300417,0.671 -0.671,0.671 -0.370583,0 -0.671,-0.30042 -0.671,-0.671 0,-0.37059 0.300417,-0.671 0.671,-0.671 0.370583,0 0.671,0.30041 0.671,0.671 z"
         style="fill:#000000;stroke:#333333;stroke-width:0.62661976;stroke-miterlimit:4;stroke-opacity:1;stroke-dasharray:none"
         sodipodi:ry="0.671"
         sodipodi:rx="0.671"
         sodipodi:cy="101.423"
         sodipodi:cx="50.373001"
         id="circle4031"
         r="0.671"
         cy="101.423"
         cx="50.373001"
         transform="matrix(2.273699,0,0,2.273237,-5.904366,-31.40286)" />
      <circle
         d="m 53.474001,110.973 c 0,0.37058 -0.300417,0.671 -0.671,0.671 -0.370583,0 -0.671,-0.30042 -0.671,-0.671 0,-0.37058 0.300417,-0.671 0.671,-0.671 0.370583,0 0.671,0.30042 0.671,0.671 z"
         style="fill:#000000;stroke:#333333;stroke-width:0.62661976;stroke-miterlimit:4;stroke-opacity:1;stroke-dasharray:none"
         sodipodi:ry="0.671"
         sodipodi:rx="0.671"
         sodipodi:cy="110.973"
         sodipodi:cx="52.803001"
         id="circle4033"
         r="0.671"
         cy="110.973"
         cx="52.803001"
         transform="matrix(2.273699,0,0,2.273237,-5.904366,-31.40286)" />
      <circle
         d="m 51.043002,120.177 c 0,0.37059 -0.300417,0.671 -0.671,0.671 -0.370583,0 -0.671,-0.30041 -0.671,-0.671 0,-0.37058 0.300417,-0.671 0.671,-0.671 0.370583,0 0.671,0.30042 0.671,0.671 z"
         style="fill:#000000;stroke:#333333;stroke-width:0.62661976;stroke-miterlimit:4;stroke-opacity:1;stroke-dasharray:none"
         sodipodi:ry="0.671"
         sodipodi:rx="0.671"
         sodipodi:cy="120.177"
         sodipodi:cx="50.372002"
         id="circle4035"
         r="0.671"
         cy="120.177"
         cx="50.372002"
         transform="matrix(2.273699,0,0,2.273237,-5.904366,-31.40286)" />
    </g>
    <g
       style="stroke:#333333;stroke-width:1.42459989;stroke-miterlimit:4;stroke-dasharray:none;display:inline"
       id="g4037"
       transform="matrix(-1.4027392,0,0,1.4050676,499.73228,37.950459)">
      <path
         inkscape:connector-curvature="0"
         sodipodi:nodetypes="ccccccccccccccccccccc"
         id="path4039"
         d="m 43.516882,127.64803 c 0.210248,2.85057 2.804247,4.03533 3.531898,0.94197 l 3.47022,0.868 c 2.675398,-4.03018 6.735525,-14.08562 6.251,-20.9327 -0.422149,-25.290935 -39.729488,-26.64169 -39.591,-0.15102 0.270643,6.98937 3.012092,14.6202 6.079,21.26072 l 3.644,-1.566 c 1.026328,3.8009 2.906184,1.80308 3.353891,-0.26502 0.0426,0.28241 0.09998,0.37067 0.0066,0.0936 -0.536305,2.13064 -2.376519,3.96829 -3.36045,0.17147 l -5.555,2.58136 c 0.711386,4.14581 2.599547,4.02248 6.077,2.38188 1.643243,-0.82575 3.605566,-1.50173 3.622334,-3.17612 0.174765,-1.05724 -5.351503,-12.1841 -5.556,-19.102 C 24.928376,95.379288 48.353166,93.925904 48.609,110.704 c -0.165266,6.81353 -5.572524,17.51187 -5.731,18.48361 -0.183165,1.02083 -1.706344,2.30545 4.300436,4.0639 3.479158,1.11996 5.451004,0.77252 5.501121,-3.14863 L 46.998668,128.59 c -0.776803,3.11892 -3.195288,1.86652 -3.41612,-0.82172 l -0.06567,-0.12025 z"
         style="fill:#000000;stroke:#333333;stroke-width:0.62661976;stroke-miterlimit:4;stroke-opacity:1;stroke-dasharray:none"
         transform="matrix(2.273699,0,0,2.273237,-5.904366,-31.40286)" />
      <polyline
         transform="matrix(2.273699,0,0,2.273237,-5.904366,-31.40286)"
         points="23.777,95.771 26.035,94.381 28.292,92.992        30.723,92.819 32.633,93.514 34.716,94.034 36.974,94.208 39.232,93.861 41.663,93.34 43.226,92.819 45.31,93.34        46.873,94.034 48.435,95.423      "
         id="polyline4041"
         style="fill:#000000;stroke:#333333;stroke-width:0.62661976;stroke-miterlimit:4;stroke-opacity:1;stroke-dasharray:none" />
      <circle
         transform="matrix(2.273699,0,0,2.273237,-5.904366,-31.40286)"
         cx="23.233"
         cy="120.232"
         r="0.671"
         id="circle4043"
         sodipodi:cx="23.233"
         sodipodi:cy="120.232"
         sodipodi:rx="0.671"
         sodipodi:ry="0.671"
         style="fill:#000000;stroke:#333333;stroke-width:0.62661976;stroke-miterlimit:4;stroke-opacity:1;stroke-dasharray:none"
         d="m 23.904,120.232 c 0,0.37059 -0.300417,0.671 -0.671,0.671 -0.370583,0 -0.671,-0.30041 -0.671,-0.671 0,-0.37058 0.300417,-0.671 0.671,-0.671 0.370583,0 0.671,0.30042 0.671,0.671 z" />
      <circle
         transform="matrix(2.273699,0,0,2.273237,-5.904366,-31.40286)"
         cx="20.851999"
         cy="110.626"
         r="0.671"
         id="circle4045"
         sodipodi:cx="20.851999"
         sodipodi:cy="110.626"
         sodipodi:rx="0.671"
         sodipodi:ry="0.671"
         style="fill:#000000;stroke:#333333;stroke-width:0.62661976;stroke-miterlimit:4;stroke-opacity:1;stroke-dasharray:none"
         d="m 21.522999,110.626 c 0,0.37058 -0.300417,0.671 -0.671,0.671 -0.370583,0 -0.671,-0.30042 -0.671,-0.671 0,-0.37058 0.300417,-0.671 0.671,-0.671 0.370583,0 0.671,0.30042 0.671,0.671 z" />
      <circle
         transform="matrix(2.273699,0,0,2.273237,-5.904366,-31.40286)"
         cx="22.761999"
         cy="101.944"
         r="0.671"
         id="circle4047"
         sodipodi:cx="22.761999"
         sodipodi:cy="101.944"
         sodipodi:rx="0.671"
         sodipodi:ry="0.671"
         style="fill:#000000;stroke:#333333;stroke-width:0.62661976;stroke-miterlimit:4;stroke-opacity:1;stroke-dasharray:none"
         d="m 23.432999,101.944 c 0,0.37058 -0.300417,0.671 -0.671,0.671 -0.370583,0 -0.671,-0.30042 -0.671,-0.671 0,-0.37058 0.300417,-0.671 0.671,-0.671 0.370583,0 0.671,0.30042 0.671,0.671 z" />
      <circle
         transform="matrix(2.273699,0,0,2.273237,-5.904366,-31.40286)"
         cx="30.75"
         cy="95.345001"
         r="0.671"
         id="circle4049"
         sodipodi:cx="30.75"
         sodipodi:cy="95.345001"
         sodipodi:rx="0.671"
         sodipodi:ry="0.671"
         style="fill:#000000;stroke:#333333;stroke-width:0.62661976;stroke-miterlimit:4;stroke-opacity:1;stroke-dasharray:none"
         d="m 31.421,95.345001 c 0,0.370583 -0.300417,0.671 -0.671,0.671 -0.370583,0 -0.671,-0.300417 -0.671,-0.671 0,-0.370583 0.300417,-0.671 0.671,-0.671 0.370583,0 0.671,0.300417 0.671,0.671 z" />
      <circle
         transform="matrix(2.273699,0,0,2.273237,-5.904366,-31.40286)"
         cx="42.730999"
         cy="95.693001"
         r="0.671"
         id="circle4051"
         sodipodi:cx="42.730999"
         sodipodi:cy="95.693001"
         sodipodi:rx="0.671"
         sodipodi:ry="0.671"
         style="fill:#000000;stroke:#333333;stroke-width:0.62661976;stroke-miterlimit:4;stroke-opacity:1;stroke-dasharray:none"
         d="m 43.401999,95.693001 c 0,0.370583 -0.300417,0.671 -0.671,0.671 -0.370583,0 -0.671,-0.300417 -0.671,-0.671 0,-0.370583 0.300417,-0.671 0.671,-0.671 0.370583,0 0.671,0.300417 0.671,0.671 z" />
      <circle
         transform="matrix(2.273699,0,0,2.273237,-5.904366,-31.40286)"
         cx="50.373001"
         cy="101.423"
         r="0.671"
         id="circle4053"
         sodipodi:cx="50.373001"
         sodipodi:cy="101.423"
         sodipodi:rx="0.671"
         sodipodi:ry="0.671"
         style="fill:#000000;stroke:#333333;stroke-width:0.62661976;stroke-miterlimit:4;stroke-opacity:1;stroke-dasharray:none"
         d="m 51.044001,101.423 c 0,0.37058 -0.300417,0.671 -0.671,0.671 -0.370583,0 -0.671,-0.30042 -0.671,-0.671 0,-0.37059 0.300417,-0.671 0.671,-0.671 0.370583,0 0.671,0.30041 0.671,0.671 z" />
      <circle
         transform="matrix(2.273699,0,0,2.273237,-5.904366,-31.40286)"
         cx="52.803001"
         cy="110.973"
         r="0.671"
         id="circle4055"
         sodipodi:cx="52.803001"
         sodipodi:cy="110.973"
         sodipodi:rx="0.671"
         sodipodi:ry="0.671"
         style="fill:#000000;stroke:#333333;stroke-width:0.62661976;stroke-miterlimit:4;stroke-opacity:1;stroke-dasharray:none"
         d="m 53.474001,110.973 c 0,0.37058 -0.300417,0.671 -0.671,0.671 -0.370583,0 -0.671,-0.30042 -0.671,-0.671 0,-0.37058 0.300417,-0.671 0.671,-0.671 0.370583,0 0.671,0.30042 0.671,0.671 z" />
      <circle
         transform="matrix(2.273699,0,0,2.273237,-5.904366,-31.40286)"
         cx="50.372002"
         cy="120.177"
         r="0.671"
         id="circle4057"
         sodipodi:cx="50.372002"
         sodipodi:cy="120.177"
         sodipodi:rx="0.671"
         sodipodi:ry="0.671"
         style="fill:#000000;stroke:#333333;stroke-width:0.62661976;stroke-miterlimit:4;stroke-opacity:1;stroke-dasharray:none"
         d="m 51.043002,120.177 c 0,0.37059 -0.300417,0.671 -0.671,0.671 -0.370583,0 -0.671,-0.30041 -0.671,-0.671 0,-0.37058 0.300417,-0.671 0.671,-0.671 0.370583,0 0.671,0.30042 0.671,0.671 z" />
    </g>
  </g>
  <g
     inkscape:groupmode="layer"
     id="layer1"
     inkscape:label="Cover"
     style="display:inline"
     sodipodi:insensitive="true">
    <path
       d="m 2,2 v 257 c 0,286 298,398 298,398 0,0 298,-112 298,-398 V 2 z"
       id="shine"
       inkscape:connector-curvature="0"
       style="fill:url(#radialGradient3074);stroke:#000000;stroke-width:3" />
  </g>
</svg>
