<?xml version="1.0" encoding="UTF-8" standalone="no"?>
<svg
   xmlns:dc="http://purl.org/dc/elements/1.1/"
   xmlns:cc="http://creativecommons.org/ns#"
   xmlns:rdf="http://www.w3.org/1999/02/22-rdf-syntax-ns#"
   xmlns:svg="http://www.w3.org/2000/svg"
   xmlns="http://www.w3.org/2000/svg"
   xmlns:xlink="http://www.w3.org/1999/xlink"
   xmlns:sodipodi="http://sodipodi.sourceforge.net/DTD/sodipodi-0.dtd"
   xmlns:inkscape="http://www.inkscape.org/namespaces/inkscape"
   width="600"
   height="660"
   id="svg2"
   version="1.1"
   inkscape:version="0.48.2 r9819"
   sodipodi:docname="House_Drox.svg">
  <metadata
     id="metadata40">
    <rdf:RDF>
      <cc:Work
         rdf:about="">
        <dc:format>image/svg+xml</dc:format>
        <dc:type
           rdf:resource="http://purl.org/dc/dcmitype/StillImage" />
        <dc:title />
      </cc:Work>
    </rdf:RDF>
  </metadata>
  <sodipodi:namedview
     pagecolor="#ffffff"
     bordercolor="#666666"
     borderopacity="1"
     objecttolerance="10"
     gridtolerance="10"
     guidetolerance="10"
     inkscape:pageopacity="0"
     inkscape:pageshadow="2"
     inkscape:window-width="1366"
     inkscape:window-height="715"
     id="namedview38"
     showgrid="false"
     inkscape:zoom="0.5056885"
     inkscape:cx="498.90321"
     inkscape:cy="533.59927"
     inkscape:window-x="-8"
     inkscape:window-y="-8"
     inkscape:window-maximized="1"
     inkscape:current-layer="svg2" />
  <defs
     id="defs4">
    <inkscape:path-effect
       is_visible="true"
       id="path-effect4049"
       effect="spiro" />
    <inkscape:path-effect
       effect="spiro"
       id="path-effect4045"
       is_visible="true" />
    <radialGradient
       id="rg"
       gradientUnits="userSpaceOnUse"
       cx="220"
       cy="220"
       r="405">
      <stop
         style="stop-color:#fff;stop-opacity:.3"
         offset="0"
         id="stop7" />
      <stop
         style="stop-color:#fff;stop-opacity:.2"
         offset=".2"
         id="stop9" />
      <stop
         style="stop-color:#666;stop-opacity:.1"
         offset=".6"
         id="stop11" />
      <stop
         style="stop-color:#000;stop-opacity:.13"
         offset="1"
         id="stop13" />
    </radialGradient>
    <path
       id="shield"
       d="m2,2v257c0,286 298,398 298,398c0,0 298-112 298-398V2z" />
    <radialGradient
       id="rg-1"
       gradientUnits="userSpaceOnUse"
       cx="220"
       cy="220"
       r="405">
      <stop
         style="stop-color:#fff;stop-opacity:.3"
         offset="0"
         id="stop7-7" />
      <stop
         style="stop-color:#fff;stop-opacity:.2"
         offset=".2"
         id="stop9-4" />
      <stop
         style="stop-color:#666;stop-opacity:.1"
         offset=".6"
         id="stop11-0" />
      <stop
         style="stop-color:#000;stop-opacity:.13"
         offset="1"
         id="stop13-9" />
    </radialGradient>
    <radialGradient
       id="radialGradient4624"
       gradientUnits="userSpaceOnUse"
       cx="220"
       cy="220"
       r="405">
      <stop
         style="stop-color:#fff;stop-opacity:.3"
         offset="0"
         id="stop4626" />
      <stop
         style="stop-color:#fff;stop-opacity:.2"
         offset=".2"
         id="stop4628" />
      <stop
         style="stop-color:#666;stop-opacity:.1"
         offset=".6"
         id="stop4630" />
      <stop
         style="stop-color:#000;stop-opacity:.13"
         offset="1"
         id="stop4632" />
    </radialGradient>
    <radialGradient
       id="rg-1-1"
       gradientUnits="userSpaceOnUse"
       cx="220"
       cy="220"
       r="405">
      <stop
         style="stop-color:#fff;stop-opacity:.3"
         offset="0"
         id="stop7-7-7" />
      <stop
         style="stop-color:#fff;stop-opacity:.2"
         offset=".2"
         id="stop9-4-4" />
      <stop
         style="stop-color:#666;stop-opacity:.1"
         offset=".6"
         id="stop11-0-0" />
      <stop
         style="stop-color:#000;stop-opacity:.13"
         offset="1"
         id="stop13-9-9" />
    </radialGradient>
    <radialGradient
       id="radialGradient3166"
       gradientUnits="userSpaceOnUse"
       cx="220"
       cy="220"
       r="405">
      <stop
         style="stop-color:#fff;stop-opacity:.3"
         offset="0"
         id="stop3168" />
      <stop
         style="stop-color:#fff;stop-opacity:.2"
         offset=".2"
         id="stop3170" />
      <stop
         style="stop-color:#666;stop-opacity:.1"
         offset=".6"
         id="stop3172" />
      <stop
         style="stop-color:#000;stop-opacity:.13"
         offset="1"
         id="stop3174" />
    </radialGradient>
    <radialGradient
       r="405"
       cy="220"
       cx="220"
       gradientTransform="translate(2,0)"
       gradientUnits="userSpaceOnUse"
       id="radialGradient3094-1"
       xlink:href="#rg-7-8-7"
       inkscape:collect="always" />
    <radialGradient
       id="rg-7-8-7"
       gradientUnits="userSpaceOnUse"
       cx="220"
       cy="220"
       r="405">
      <stop
         style="stop-color:#fff;stop-opacity:.3"
         offset="0"
         id="stop5-4-2-4" />
      <stop
         style="stop-color:#fff;stop-opacity:.2"
         offset=".2"
         id="stop7-0-4-0" />
      <stop
         style="stop-color:#666;stop-opacity:.1"
         offset=".6"
         id="stop9-9-5-9" />
      <stop
         style="stop-color:#000;stop-opacity:.13"
         offset="1"
         id="stop11-4-5-4" />
    </radialGradient>
    <radialGradient
       r="405"
       cy="220"
       cx="220"
       gradientTransform="translate(2,0)"
       gradientUnits="userSpaceOnUse"
       id="radialGradient3039"
       xlink:href="#rg-7-8-7"
       inkscape:collect="always" />
  </defs>
  <use
     height="1052.3622"
     width="744.09448"
     y="0"
     x="0"
     id="background"
     xlink:href="#shield"
     style="fill:#ffd700" />
  <path
     id="bordure"
     d="m 2,2 0,257 c 0,286 298,398 298,398 0,0 298,-112 298,-398 L 598,2 2,2 z m 98,98 400,0 0,159 C 500,424.40588 365.1074,515.01826 300,549.1543 234.8926,515.01826 100,424.40588 100,259 l 0,-159 z"
     style="fill:#000000"
     inkscape:connector-curvature="0" />
  <path
     inkscape:connector-curvature="0"
     style="fill:#000000;fill-opacity:1;fill-rule:evenodd;stroke:#333333;stroke-width:1.21305584999999990;stroke-linecap:butt;stroke-linejoin:miter;stroke-miterlimit:4;stroke-opacity:1;stroke-dasharray:none"
     id="path21292"
     d="m 186.99509,149.77815 c -1.34437,-0.43288 0.0733,-4.32204 3.55781,-4.05747 5.40704,1.04499 5.44619,5.26212 5.55402,8.72131 l -4.61572,-0.0882 c 0.2524,-2.57966 0.87841,-4.34305 -4.49611,-4.57563 z" />
  <path
     inkscape:connector-curvature="0"
     style="fill:#000000;fill-opacity:1;fill-rule:evenodd;stroke:#333333;stroke-width:1.21305584999999990;stroke-linecap:butt;stroke-linejoin:miter;stroke-miterlimit:4;stroke-opacity:1;stroke-dasharray:none"
     id="path22263"
     d="m 215.35666,149.77797 c 1.34438,-0.43288 -0.0733,-4.32205 -3.5578,-4.05748 -5.40704,1.04501 -5.4462,5.26213 -5.55403,8.72131 l 4.61572,0.26463 c -0.25239,-2.57966 -0.87841,-4.69588 4.49611,-4.92846 z" />
  <path
     inkscape:connector-curvature="0"
     style="fill:#36454f;fill-opacity:1;fill-rule:evenodd;stroke:#333333;stroke-width:1.21305585;stroke-linecap:butt;stroke-linejoin:miter;stroke-miterlimit:4;stroke-opacity:1;stroke-dasharray:none"
     id="path19345"
     d="m 190.9658,155.19205 5.58546,0 0,9.77979 -5.58546,0 0,-9.77979 z" />
  <path
     inkscape:connector-curvature="0"
     style="fill:#36454f;fill-opacity:1;fill-rule:evenodd;stroke:#333333;stroke-width:1.21305585;stroke-linecap:butt;stroke-linejoin:miter;stroke-miterlimit:4;stroke-opacity:1;stroke-dasharray:none"
     id="path19343"
     d="m 205.69746,155.19205 5.58547,0 0,9.77979 -5.58547,0 0,-9.77979 z" />
  <path
     inkscape:connector-curvature="0"
     style="fill:#36454f;fill-opacity:1;fill-rule:evenodd;stroke:#333333;stroke-width:1.21305585;stroke-linecap:butt;stroke-linejoin:miter;stroke-miterlimit:4;stroke-opacity:1;stroke-dasharray:none"
     id="path15455"
     d="m 190.29255,234.3385 c -8.17775,0.22196 -8.87506,6.69983 -8.67646,12.96394 0.20894,6.68535 1.79082,12.83242 -2.70013,13.73845 -0.98714,0.19914 -0.69475,1.83987 -0.14344,1.83863 5.17545,-0.42906 6.46133,-6.55958 6.62729,-12.92565 0.24204,-9.40926 2.33336,-11.00425 5.56598,-10.60073 0.81654,0.10199 -0.42389,-4.98968 -0.67324,-5.01464 z" />
  <path
     inkscape:connector-curvature="0"
     style="fill:#36454f;fill-opacity:1;fill-rule:evenodd;stroke:#333333;stroke-width:1.21305585;stroke-linecap:butt;stroke-linejoin:miter;stroke-miterlimit:4;stroke-opacity:1;stroke-dasharray:none"
     id="path18370"
     d="m 190.9658,193.82223 5.58546,0 0,9.77978 -5.58546,0 0,-9.77978 z" />
  <path
     inkscape:connector-curvature="0"
     style="fill:#36454f;fill-opacity:1;fill-rule:evenodd;stroke:#333333;stroke-width:1.21305585;stroke-linecap:butt;stroke-linejoin:miter;stroke-miterlimit:4;stroke-opacity:1;stroke-dasharray:none"
     id="path19341"
     d="m 205.73237,193.82223 5.58547,0 0,9.77978 -5.58547,0 0,-9.77978 z" />
  <path
     inkscape:connector-curvature="0"
     style="fill:#000000;fill-opacity:1;fill-rule:evenodd;stroke:#333333;stroke-width:1.66795206000000000;stroke-linecap:butt;stroke-linejoin:miter;stroke-miterlimit:4;stroke-opacity:1;stroke-dasharray:none"
     id="path13515"
     d="m 195.77827,155.90059 0.1247,51.89277 -6.98183,15.36824 7.63015,86.621 9.77457,0 6.98182,-86.621 -6.98182,-15.36824 0,-51.69318 -10.54756,-0.19959 z" />
  <path
     inkscape:connector-curvature="0"
     style="fill:#000000;fill-opacity:1;fill-rule:evenodd;stroke:none"
     id="path13515-1"
     d="m 198.37529,159.94414 1.01396,49.44673 -6.09283,14.70116 6.0744,81.2842 4.2184,0.22238 5.42609,-81.28421 -5.87057,-15.1459 0.22224,-48.80237 -1.65765,-0.42193 z" />
  <path
     inkscape:connector-curvature="0"
     style="fill:#000000;fill-opacity:1;fill-rule:evenodd;stroke:#333333;stroke-width:1.21305584999999990;stroke-linecap:butt;stroke-linejoin:miter;stroke-miterlimit:4;stroke-opacity:1;stroke-dasharray:none"
     id="path11575"
     d="m 123.12777,199.02478 c 54.46301,-61.28479 107.54769,-50.18719 155.90913,0.35283 l 4.18755,-1.58771 C 230.92856,143.5816 173.59703,134.85843 120.65933,196.555 l 2.46844,2.46978 z" />
  <path
     inkscape:connector-curvature="0"
     style="fill:#36454f;fill-opacity:1;fill-rule:evenodd;stroke:#333333;stroke-width:1.21305585;stroke-linecap:butt;stroke-linejoin:miter;stroke-miterlimit:4;stroke-opacity:1;stroke-dasharray:none"
     id="path16426"
     d="m 267.76596,204.42532 -129.8621,0.0748 0,-2.29525 129.8621,0 0,2.22041 z" />
  <path
     inkscape:connector-curvature="0"
     style="fill:#000000;fill-opacity:1;fill-rule:evenodd;stroke:#333333;stroke-width:1.21305584999999990;stroke-linecap:butt;stroke-linejoin:miter;stroke-miterlimit:4;stroke-opacity:1;stroke-dasharray:none"
     id="path17397"
     d="m 114.16562,193.82223 c 5.27383,2.76016 14.27307,6.98336 23.73824,7.73401 l 0,4.84001 c -6.225,-0.31555 -18.83285,1.8952 -25.78292,-5.58846 -1.34668,-1.86301 -1.74418,-7.76601 2.04468,-6.98556 z" />
  <path
     inkscape:connector-curvature="0"
     style="fill:#000000;fill-opacity:1;fill-rule:evenodd;stroke:#333333;stroke-width:1.21305584999999990;stroke-linecap:butt;stroke-linejoin:miter;stroke-miterlimit:4;stroke-opacity:1;stroke-dasharray:none"
     id="path18368"
     d="m 291.43438,193.82228 c -5.27383,2.76017 -14.27307,6.98337 -23.73824,7.73401 l 0,4.84001 c 6.225,-0.31554 18.83286,1.89521 25.78292,-5.58846 1.34668,-1.863 1.74418,-7.766 -2.04468,-6.98556 z" />
  <path
     inkscape:connector-curvature="0"
     style="fill:#36454f;fill-opacity:1;fill-rule:evenodd;stroke:#333333;stroke-width:1.21305584999999990;stroke-linecap:butt;stroke-linejoin:miter;stroke-miterlimit:4;stroke-opacity:1;stroke-dasharray:none"
     id="path19347"
     d="m 194.98921,229.79788 4.70387,0 -0.0881,8.89773 -3.55781,0 -1.05791,-8.89773 z" />
  <path
     inkscape:connector-curvature="0"
     style="fill:#36454f;fill-opacity:1;fill-rule:evenodd;stroke:#333333;stroke-width:1.21305584999999990;stroke-linecap:butt;stroke-linejoin:miter;stroke-miterlimit:4;stroke-opacity:1;stroke-dasharray:none"
     id="path19351"
     d="m 207.65188,229.79838 -4.70387,0 0.0881,8.89772 3.55782,0 1.0579,-8.89772 z" />
  <path
     d="m 381.3951,149.77815 c -1.34438,-0.43288 0.0733,-4.32204 3.5578,-4.05747 5.40704,1.04499 5.4462,5.26212 5.55402,8.72131 l -4.61572,-0.0882 c 0.2524,-2.57966 0.87842,-4.34305 -4.4961,-4.57563 z"
     id="path3517"
     style="fill:#000000;fill-opacity:1;fill-rule:evenodd;stroke:#333333;stroke-width:1.21305584999999990;stroke-linecap:butt;stroke-linejoin:miter;stroke-miterlimit:4;stroke-opacity:1;stroke-dasharray:none"
     inkscape:connector-curvature="0" />
  <path
     d="m 409.75666,149.77797 c 1.34438,-0.43288 -0.0733,-4.32205 -3.5578,-4.05748 -5.40704,1.04501 -5.4462,5.26213 -5.55403,8.72131 l 4.61572,0.26463 c -0.25239,-2.57966 -0.87841,-4.69588 4.49611,-4.92846 z"
     id="path3519"
     style="fill:#000000;fill-opacity:1;fill-rule:evenodd;stroke:#333333;stroke-width:1.21305584999999990;stroke-linecap:butt;stroke-linejoin:miter;stroke-miterlimit:4;stroke-opacity:1;stroke-dasharray:none"
     inkscape:connector-curvature="0" />
  <path
     d="m 385.3658,155.19205 5.58546,0 0,9.77979 -5.58546,0 0,-9.77979 z"
     id="path3521"
     style="fill:#36454f;fill-opacity:1;fill-rule:evenodd;stroke:#333333;stroke-width:1.21305585;stroke-linecap:butt;stroke-linejoin:miter;stroke-miterlimit:4;stroke-opacity:1;stroke-dasharray:none"
     inkscape:connector-curvature="0" />
  <path
     d="m 400.09746,155.19205 5.58547,0 0,9.77979 -5.58547,0 0,-9.77979 z"
     id="path3523"
     style="fill:#36454f;fill-opacity:1;fill-rule:evenodd;stroke:#333333;stroke-width:1.21305585;stroke-linecap:butt;stroke-linejoin:miter;stroke-miterlimit:4;stroke-opacity:1;stroke-dasharray:none"
     inkscape:connector-curvature="0" />
  <path
     d="m 384.69255,234.3385 c -8.17775,0.22196 -8.87506,6.69983 -8.67646,12.96394 0.20895,6.68535 1.79082,12.83242 -2.70013,13.73845 -0.98714,0.19914 -0.69475,1.83987 -0.14343,1.83863 5.17544,-0.42906 6.46132,-6.55958 6.62728,-12.92565 0.24204,-9.40926 2.33337,-11.00425 5.56599,-10.60073 0.81653,0.10199 -0.4239,-4.98968 -0.67325,-5.01464 z"
     id="path3525"
     style="fill:#36454f;fill-opacity:1;fill-rule:evenodd;stroke:#333333;stroke-width:1.21305585;stroke-linecap:butt;stroke-linejoin:miter;stroke-miterlimit:4;stroke-opacity:1;stroke-dasharray:none"
     inkscape:connector-curvature="0" />
  <path
     d="m 385.3658,193.82223 5.58546,0 0,9.77978 -5.58546,0 0,-9.77978 z"
     id="path3527"
     style="fill:#36454f;fill-opacity:1;fill-rule:evenodd;stroke:#333333;stroke-width:1.21305585;stroke-linecap:butt;stroke-linejoin:miter;stroke-miterlimit:4;stroke-opacity:1;stroke-dasharray:none"
     inkscape:connector-curvature="0" />
  <path
     d="m 400.13237,193.82223 5.58547,0 0,9.77978 -5.58547,0 0,-9.77978 z"
     id="path3529"
     style="fill:#36454f;fill-opacity:1;fill-rule:evenodd;stroke:#333333;stroke-width:1.21305585;stroke-linecap:butt;stroke-linejoin:miter;stroke-miterlimit:4;stroke-opacity:1;stroke-dasharray:none"
     inkscape:connector-curvature="0" />
  <path
     d="m 390.17827,155.90059 0.1247,51.89277 -6.98183,15.36824 7.63015,86.621 9.77457,0 6.98183,-86.621 -6.98183,-15.36824 0,-51.69318 -10.54756,-0.19959 z"
     id="path3531"
     style="fill:#000000;fill-opacity:1;fill-rule:evenodd;stroke:#333333;stroke-width:1.66795206000000000;stroke-linecap:butt;stroke-linejoin:miter;stroke-miterlimit:4;stroke-opacity:1;stroke-dasharray:none"
     inkscape:connector-curvature="0" />
  <path
     d="m 392.7753,159.94414 1.01395,49.44673 -6.09282,14.70116 6.07439,81.2842 4.2184,0.22238 5.42609,-81.28421 -5.87057,-15.1459 0.22225,-48.80237 -1.65766,-0.42193 z"
     id="path3533"
     style="fill:#000000;fill-opacity:1;fill-rule:evenodd;stroke:none"
     inkscape:connector-curvature="0" />
  <path
     d="m 317.52777,199.02478 c 54.46301,-61.28479 107.54769,-50.18719 155.90913,0.35283 l 4.18756,-1.58771 C 425.32856,143.5816 367.99703,134.85843 315.05933,196.555 l 2.46844,2.46978 z"
     id="path3535"
     style="fill:#000000;fill-opacity:1;fill-rule:evenodd;stroke:#333333;stroke-width:1.21305584999999990;stroke-linecap:butt;stroke-linejoin:miter;stroke-miterlimit:4;stroke-opacity:1;stroke-dasharray:none"
     inkscape:connector-curvature="0" />
  <path
     d="m 462.16596,204.42532 -129.8621,0.0748 0,-2.29525 129.8621,0 0,2.22041 z"
     id="path3537"
     style="fill:#36454f;fill-opacity:1;fill-rule:evenodd;stroke:#333333;stroke-width:1.21305585;stroke-linecap:butt;stroke-linejoin:miter;stroke-miterlimit:4;stroke-opacity:1;stroke-dasharray:none"
     inkscape:connector-curvature="0" />
  <path
     d="m 308.56562,193.82223 c 5.27383,2.76016 14.27307,6.98336 23.73824,7.73401 l 0,4.84001 c -6.225,-0.31555 -18.83285,1.8952 -25.78292,-5.58846 -1.34668,-1.86301 -1.74417,-7.76601 2.04468,-6.98556 z"
     id="path3539"
     style="fill:#000000;fill-opacity:1;fill-rule:evenodd;stroke:#333333;stroke-width:1.21305584999999990;stroke-linecap:butt;stroke-linejoin:miter;stroke-miterlimit:4;stroke-opacity:1;stroke-dasharray:none"
     inkscape:connector-curvature="0" />
  <path
     d="m 485.83438,193.82228 c -5.27383,2.76017 -14.27307,6.98337 -23.73824,7.73401 l 0,4.84001 c 6.225,-0.31554 18.83286,1.89521 25.78292,-5.58846 1.34669,-1.863 1.74418,-7.766 -2.04468,-6.98556 z"
     id="path3541"
     style="fill:#000000;fill-opacity:1;fill-rule:evenodd;stroke:#333333;stroke-width:1.21305584999999990;stroke-linecap:butt;stroke-linejoin:miter;stroke-miterlimit:4;stroke-opacity:1;stroke-dasharray:none"
     inkscape:connector-curvature="0" />
  <path
     d="m 389.38921,229.79788 4.70387,0 -0.0881,8.89773 -3.55781,0 -1.05791,-8.89773 z"
     id="path3543"
     style="fill:#36454f;fill-opacity:1;fill-rule:evenodd;stroke:#333333;stroke-width:1.21305584999999990;stroke-linecap:butt;stroke-linejoin:miter;stroke-miterlimit:4;stroke-opacity:1;stroke-dasharray:none"
     inkscape:connector-curvature="0" />
  <path
     d="m 402.05189,229.79838 -4.70388,0 0.0881,8.89772 3.55782,0 1.0579,-8.89772 z"
     id="path3545"
     style="fill:#36454f;fill-opacity:1;fill-rule:evenodd;stroke:#333333;stroke-width:1.21305584999999990;stroke-linecap:butt;stroke-linejoin:miter;stroke-miterlimit:4;stroke-opacity:1;stroke-dasharray:none"
     inkscape:connector-curvature="0" />
  <path
     inkscape:connector-curvature="0"
     style="fill:#000000;fill-opacity:1;fill-rule:evenodd;stroke:#333333;stroke-width:1.21305584999999990;stroke-linecap:butt;stroke-linejoin:miter;stroke-miterlimit:4;stroke-opacity:1;stroke-dasharray:none"
     id="path3549"
     d="m 284.19508,342.68281 c -1.34437,-0.43288 0.0733,-4.32205 3.55781,-4.05748 5.40704,1.045 5.4462,5.26213 5.55402,8.72131 l -4.61572,-0.0882 c 0.2524,-2.57965 0.87842,-4.34305 -4.49611,-4.57562 z" />
  <path
     inkscape:connector-curvature="0"
     style="fill:#000000;fill-opacity:1;fill-rule:evenodd;stroke:#333333;stroke-width:1.21305584999999990;stroke-linecap:butt;stroke-linejoin:miter;stroke-miterlimit:4;stroke-opacity:1;stroke-dasharray:none"
     id="path3551"
     d="m 312.55665,342.68263 c 1.34438,-0.43288 -0.0733,-4.32205 -3.5578,-4.05748 -5.40704,1.045 -5.4462,5.26213 -5.55403,8.72131 l 4.61572,0.26462 c -0.25239,-2.57965 -0.87841,-4.69587 4.49611,-4.92845 z" />
  <path
     inkscape:connector-curvature="0"
     style="fill:#36454f;fill-opacity:1;fill-rule:evenodd;stroke:#333333;stroke-width:1.21305585;stroke-linecap:butt;stroke-linejoin:miter;stroke-miterlimit:4;stroke-opacity:1;stroke-dasharray:none"
     id="path3553"
     d="m 288.16579,348.09671 5.58546,0 0,9.77979 -5.58546,0 0,-9.77979 z" />
  <path
     inkscape:connector-curvature="0"
     style="fill:#36454f;fill-opacity:1;fill-rule:evenodd;stroke:#333333;stroke-width:1.21305585;stroke-linecap:butt;stroke-linejoin:miter;stroke-miterlimit:4;stroke-opacity:1;stroke-dasharray:none"
     id="path3555"
     d="m 302.89745,348.09671 5.58547,0 0,9.77979 -5.58547,0 0,-9.77979 z" />
  <path
     inkscape:connector-curvature="0"
     style="fill:#36454f;fill-opacity:1;fill-rule:evenodd;stroke:#333333;stroke-width:1.21305585;stroke-linecap:butt;stroke-linejoin:miter;stroke-miterlimit:4;stroke-opacity:1;stroke-dasharray:none"
     id="path3557"
     d="m 287.49254,427.24316 c -8.17775,0.22196 -8.87506,6.69982 -8.67646,12.96393 0.20895,6.68535 1.79082,12.83243 -2.70013,13.73846 -0.98714,0.19914 -0.69475,1.83987 -0.14343,1.83863 5.17544,-0.42907 6.46132,-6.55958 6.62728,-12.92566 0.24204,-9.40926 2.33337,-11.00424 5.56599,-10.60072 0.81653,0.10199 -0.4239,-4.98969 -0.67325,-5.01464 z" />
  <path
     inkscape:connector-curvature="0"
     style="fill:#36454f;fill-opacity:1;fill-rule:evenodd;stroke:#333333;stroke-width:1.21305585;stroke-linecap:butt;stroke-linejoin:miter;stroke-miterlimit:4;stroke-opacity:1;stroke-dasharray:none"
     id="path3559"
     d="m 288.16579,386.72688 5.58546,0 0,9.77979 -5.58546,0 0,-9.77979 z" />
  <path
     inkscape:connector-curvature="0"
     style="fill:#36454f;fill-opacity:1;fill-rule:evenodd;stroke:#333333;stroke-width:1.21305585;stroke-linecap:butt;stroke-linejoin:miter;stroke-miterlimit:4;stroke-opacity:1;stroke-dasharray:none"
     id="path3561"
     d="m 302.93236,386.72688 5.58547,0 0,9.77979 -5.58547,0 0,-9.77979 z" />
  <path
     inkscape:connector-curvature="0"
     style="fill:#000000;fill-opacity:1;fill-rule:evenodd;stroke:#333333;stroke-width:1.66795206000000000;stroke-linecap:butt;stroke-linejoin:miter;stroke-miterlimit:4;stroke-opacity:1;stroke-dasharray:none"
     id="path3563"
     d="m 292.97826,348.80524 0.1247,51.89277 -6.98183,15.36825 7.63015,86.621 9.77457,0 6.98183,-86.621 -6.98183,-15.36825 0,-51.69317 -10.54756,-0.1996 z" />
  <path
     inkscape:connector-curvature="0"
     style="fill:#000000;fill-opacity:1;fill-rule:evenodd;stroke:none"
     id="path3565"
     d="m 295.57529,352.8488 1.01395,49.44673 -6.09282,14.70116 6.07439,81.2842 4.2184,0.22238 5.42609,-81.28421 -5.87057,-15.1459 0.22225,-48.80237 -1.65766,-0.42194 z" />
  <path
     inkscape:connector-curvature="0"
     style="fill:#000000;fill-opacity:1;fill-rule:evenodd;stroke:#333333;stroke-width:1.21305584999999990;stroke-linecap:butt;stroke-linejoin:miter;stroke-miterlimit:4;stroke-opacity:1;stroke-dasharray:none"
     id="path3567"
     d="m 220.32776,391.92944 c 54.46301,-61.28479 107.54769,-50.18719 155.90913,0.35283 l 4.18756,-1.58771 c -52.2959,-54.20831 -109.62743,-62.93147 -162.56513,-1.2349 l 2.46844,2.46978 z" />
  <path
     inkscape:connector-curvature="0"
     style="fill:#36454f;fill-opacity:1;fill-rule:evenodd;stroke:#333333;stroke-width:1.21305585;stroke-linecap:butt;stroke-linejoin:miter;stroke-miterlimit:4;stroke-opacity:1;stroke-dasharray:none"
     id="path3569"
     d="m 364.96595,397.32998 -129.8621,0.0748 0,-2.29525 129.8621,0 0,2.22041 z" />
  <path
     inkscape:connector-curvature="0"
     style="fill:#000000;fill-opacity:1;fill-rule:evenodd;stroke:#333333;stroke-width:1.21305584999999990;stroke-linecap:butt;stroke-linejoin:miter;stroke-miterlimit:4;stroke-opacity:1;stroke-dasharray:none"
     id="path3571"
     d="m 211.36561,386.72688 c 5.27383,2.76017 14.27307,6.98337 23.73824,7.73401 l 0,4.84001 c -6.225,-0.31554 -18.83285,1.89521 -25.78292,-5.58846 -1.34668,-1.863 -1.74417,-7.766 2.04468,-6.98556 z" />
  <path
     inkscape:connector-curvature="0"
     style="fill:#000000;fill-opacity:1;fill-rule:evenodd;stroke:#333333;stroke-width:1.21305584999999990;stroke-linecap:butt;stroke-linejoin:miter;stroke-miterlimit:4;stroke-opacity:1;stroke-dasharray:none"
     id="path3573"
     d="m 388.63437,386.72694 c -5.27383,2.76016 -14.27307,6.98337 -23.73824,7.73401 l 0,4.84001 c 6.225,-0.31554 18.83286,1.8952 25.78292,-5.58846 1.34669,-1.86301 1.74418,-7.766 -2.04468,-6.98556 z" />
  <path
     inkscape:connector-curvature="0"
     style="fill:#36454f;fill-opacity:1;fill-rule:evenodd;stroke:#333333;stroke-width:1.21305584999999990;stroke-linecap:butt;stroke-linejoin:miter;stroke-miterlimit:4;stroke-opacity:1;stroke-dasharray:none"
     id="path3575"
     d="m 292.1892,422.70254 4.70387,0 -0.0881,8.89773 -3.55781,0 -1.05791,-8.89773 z" />
  <path
     inkscape:connector-curvature="0"
     style="fill:#36454f;fill-opacity:1;fill-rule:evenodd;stroke:#333333;stroke-width:1.21305584999999990;stroke-linecap:butt;stroke-linejoin:miter;stroke-miterlimit:4;stroke-opacity:1;stroke-dasharray:none"
     id="path3577"
     d="m 304.85188,422.70303 -4.70388,0 0.0881,8.89772 3.55782,0 1.0579,-8.89772 z" />
  <path
     id="path4147"
     d="m 4,2 0,257 c 0,286 298,398 298,398 0,0 298,-112 298,-398 L 600,2 z"
     style="fill:url(#radialGradient3039);stroke:#000000;stroke-width:3"
     inkscape:connector-curvature="0" />
</svg>
