<svg xmlns="http://www.w3.org/2000/svg" width="600" height="660" xmlns:xlink="http://www.w3.org/1999/xlink">
<defs>
  <radialGradient id="rg" gradientUnits="userSpaceOnUse" cx="220" cy="220" r="405">
    <stop style="stop-color:#fff;stop-opacity:.3" offset="0" />
    <stop style="stop-color:#fff;stop-opacity:.2" offset="0.2" />
    <stop style="stop-color:#666;stop-opacity:.1" offset="0.6" />
    <stop style="stop-color:#000;stop-opacity:.13" offset="1" />
  </radialGradient>
  <path id="shield" d="m 2 2 v 257 c 0 286 298 398 298 398 c 0 0 298 -112 298 -398 V 2 Z" />
</defs>
<use fill="#eeeeee" xlink:href="#shield" />
<path style="fill:#ffdd00" d="m 2,2 504.9,504.9 c 50.9,-61.2 91.1,-142.8 91.1,-247.9 v -257 z" />
<g style="stroke-width:1;stroke-linecap:round;stroke-linejoin:round;">
  <path style="fill:#1a1a1a;stroke:none;" d="m 265.1,256.4 c -3,1 -12.4,3 -22.9,1 -15.7,-3 -34.2,-11 -39.3,-13 -46.7,-16 -44,-14 -84.4,-14 -20.5,0 -34.98,7 -54.23,16 -22.73,4 -35.86,13 -51.41,30 28.46,3 43.53,18 53.93,38 45.21,-9 65.61,19 85.51,40 22.1,-23 66.4,-40 103.4,-3 14.5,-1 7.1,11 23.7,19 7.7,3 20.2,1 20.6,15 0.4,-14 12.9,-12 20.6,-15 16.6,-8 9.2,-20 23.7,-19 37,-37 81.3,-20 103.4,3 19.9,-21 40.3,-49 85.5,-40 10.4,-20 25.5,-35 53.9,-38 -15.5,-17 -28.6,-26 -51.4,-30 -19.2,-9 -33.7,-16 -54.2,-16 -40.4,0 -37.7,-2 -84.4,14 -5.1,2 -23.6,10 -39.3,13 -10.5,2 -19.9,0 -22.9,-1 -6.1,0 -16,-2 -34.9,-2 -18.9,0 -28.8,2 -34.9,2 z" />
  <path style="fill:#000000;stroke:none;" d="m 329.7,332.4 c 5.4,5 8,11 8.7,20 0.2,1 1.9,2 0.1,3 -6.1,5 -1,9 -0.2,10 1,-3 2.8,-4 1.6,-8 -0.2,-1 2.3,0 2,1 -1.2,2 -3.1,5 -1.6,9 3,0 5.9,-3 3.7,-9 h 2 c -1.4,3 -0.2,7 -0.4,9 1.3,0 5.6,0 2.4,-9 -0.2,-1 0.3,-1 0.7,-1 2.1,4 4.3,6 6.6,7 0.9,-4 -1.3,-7 -6.3,-9 -1.1,0 -0.7,-2 0.4,-1 2.3,3 4.6,3 7,3 -0.8,-3 -1.4,-5 -7.2,-5 -1.8,0 -3.1,0 -4.2,-2 -6,-9 -9.2,-16 -11.3,-23 -0.3,-4 -1.2,-7 -5.9,-7 -4.7,-4 -3.9,-9 -4.8,-14 2.8,-9 6.8,-15 7.5,-28 1.7,-3 3.5,-5 6.1,-7 2.5,-4 5.3,-5 8.7,-3 l 3.4,2 c 2.3,2 4.6,3 10.1,-1 18.6,-15 41.6,-23 65.5,-31 5.7,4 6.1,2 7.6,1 1.6,-2 2.5,-3 3,-6 3.7,-3 0.5,-5 4.7,-7 -1.6,0 -3.2,0 -4.7,1 -2.6,0 -3.1,5 -4.4,7 -1.1,-3 -7.1,-1 -12.2,3 -17.6,6 -34.7,11 -52.5,22 -16.5,10 -21.7,1 -30.9,-3 -12.6,-7 -7.4,-28 -34.9,-28 -27.5,0 -22.3,21 -34.9,28 -9.2,4 -14.4,13 -30.9,3 -17.8,-11 -34.9,-16 -52.5,-22 -5.1,-4 -11.1,-6 -12.2,-3 -1.3,-2 -1.8,-7 -4.4,-7 -1.5,-1 -3.1,-1 -4.7,-1 4.2,2 1,4 4.7,7 0.5,3 1.4,4 3,6 1.5,1 1.9,3 7.6,-1 23.9,8 46.9,16 65.5,31 5.5,4 7.8,3 10.1,1 l 3.4,-2 c 3.4,-2 6.2,-1 8.7,3 2.6,2 4.4,4 6.1,7 0.7,13 4.7,19 7.5,28 -0.9,5 -0.1,10 -4.8,14 -4.7,0 -5.6,3 -5.9,7 -2.1,7 -5.3,14 -11.3,23 -1.1,2 -2.4,2 -4.2,2 -5.8,0 -6.4,2 -7.2,5 2.4,0 4.7,0 7,-3 1.1,-1 1.5,1 0.4,1 -5,2 -7.2,5 -6.3,9 2.3,-1 4.5,-3 6.6,-7 0.4,0 0.9,0 0.7,1 -3.2,9 1.1,9 2.4,9 -0.2,-2 1,-6 -0.4,-9 h 2 c -2.2,6 0.7,9 3.7,9 1.5,-4 -0.4,-7 -1.6,-9 -0.3,-1 2.2,-2 2,-1 -1.2,4 0.6,5 1.6,8 0.8,-1 5.9,-5 -0.2,-10 -1.8,-1 -0.1,-2 0.1,-3 0.7,-9 3.3,-15 8.7,-20 17.3,-17 20.8,-5 29.7,-2 8.9,-3 12.4,-15 29.7,2 z" />
  <path style="fill:#000000;stroke:#333333;" d="m 286.7,253.4 c -2.4,-7 16.9,-11 2,-23 -8.9,-7 -8.5,-14 -12.8,-19 -1.1,-2 -3.6,-5 -5,0 -4.3,13 -4.5,31 10.5,51 9.3,1 17,9 18.6,6 1.6,3 9.3,-5 18.6,-6 15,-20 14.8,-38 10.5,-51 -1.4,-5 -3.9,-2 -5,0 -4.3,5 -3.9,12 -12.8,19 -14.9,12 4.4,16 2,23" />
  <path style="fill:none;stroke:#333333;" d="m 291.7,253.4 a 1.391,2.317 0 0 1 -1.4,2 1.391,2.317 0 0 1 -1.4,-2 1.391,2.317 0 0 1 1.4,-3 1.391,2.317 0 0 1 1.4,3 z" />
  <path style="fill:none;stroke:#000000;" d="m 431.9,239.4 c 25,-7 89.5,2 103.8,7 m -88,108 c 7.6,-34 -4.1,-74 -15.8,-115 m 101.3,75 c -4.9,-27 -26.6,-53 -101.3,-75 m -67.5,65 c -13.4,14 -17.1,30 -19.4,46 34.6,-41 61,-38 88.8,-44 m -265.7,-67 c -25,-7 -89.51,2 -103.83,7 m 88.03,108 c -7.6,-34 4.1,-74 15.8,-115 m -101.31,75 c 4.91,-27 26.64,-53 101.31,-75 m 67.5,65 c 13.4,14 17.1,30 19.4,46 -34.6,-41 -61,-38 -88.8,-44" />
  <path style="fill:none;stroke:#333333;" d="m 326.5,284.4 c 1.3,9 -23.2,20 -26.5,11 -3.3,9 -27.8,-2 -26.5,-11 m 57.8,-26 c -2,-1 -4,-1 -5.3,1 -5.3,9 -10.4,17 -17.6,16 m -39.7,-17 c 2,-1 4,-1 5.3,1 5.3,9 10.4,17 17.6,16" />
  <path style="fill:none;stroke:#333333;" d="m 316.6,251.4 c 5.6,-4 0.7,-8 6.9,-19 -6.3,1 -7.1,8 -10.6,12 m 15,-5 c -3.5,8 -8.9,11 -14.6,14 1.5,-6 -2.2,-11 -1.1,-16 2.3,-8 8.4,-14 10.9,-22 m -39.7,36 c -5.6,-4 -0.7,-8 -6.9,-19 6.3,1 7.1,8 10.6,12 m -15,-5 c 3.5,8 8.9,11 14.6,14 -1.5,-6 2.2,-11 1.1,-16 -2.3,-8 -8.4,-14 -10.9,-22" />
  <path style="fill:none;stroke:#333333;" d="m 308.3,253.4 a 1.391,2.317 0 0 0 1.4,2 1.391,2.317 0 0 0 1.4,-2 1.391,2.317 0 0 0 -1.4,-3 1.391,2.317 0 0 0 -1.4,3 z" />
  <path style="fill:none;stroke:#333333;" d="m 310,248.4 c -1.7,3 -4.9,6 2.1,11 m -22.1,-11 c 1.7,3 4.9,6 -2.1,11" />
  <path style="fill:none;stroke:#333333;" d="m 304.6,250.4 c -1.9,3 1.9,6 -2.2,6 -1.9,0 -1.9,0 -0.9,-2 m -6.1,-4 c 1.9,3 -1.9,6 2.2,6 1.9,0 1.9,0 0.9,-2" />
  <path style="fill:none;stroke:#333333;" d="m 290.8,262.4 c 4,0 3,-5 9.2,-5 6.2,0 5.2,5 9.2,5 -3.6,0 -6.5,4 -9.2,4 -2.7,0 -5.6,-4 -9.2,-4 z" />
</g>
<use id="shine" fill="url(#rg)" stroke="#000" stroke-width="3" xlink:href="#shield" />
</svg>
