<?xml version="1.0" encoding="UTF-8" standalone="no"?>
<svg
   xmlns:dc="http://purl.org/dc/elements/1.1/"
   xmlns:cc="http://creativecommons.org/ns#"
   xmlns:rdf="http://www.w3.org/1999/02/22-rdf-syntax-ns#"
   xmlns:svg="http://www.w3.org/2000/svg"
   xmlns="http://www.w3.org/2000/svg"
   xmlns:xlink="http://www.w3.org/1999/xlink"
   xmlns:sodipodi="http://sodipodi.sourceforge.net/DTD/sodipodi-0.dtd"
   xmlns:inkscape="http://www.inkscape.org/namespaces/inkscape"
   width="600"
   height="660"
   id="svg2"
   version="1.1"
   inkscape:version="0.48.2 r9819"
   sodipodi:docname="House_Willum.svg">
  <metadata
     id="metadata24">
    <rdf:RDF>
      <cc:Work
         rdf:about="">
        <dc:format>image/svg+xml</dc:format>
        <dc:type
           rdf:resource="http://purl.org/dc/dcmitype/StillImage" />
        <dc:title></dc:title>
      </cc:Work>
    </rdf:RDF>
  </metadata>
  <sodipodi:namedview
     pagecolor="#ffffff"
     bordercolor="#666666"
     borderopacity="1"
     objecttolerance="10"
     gridtolerance="10"
     guidetolerance="10"
     inkscape:pageopacity="0"
     inkscape:pageshadow="2"
     inkscape:window-width="1366"
     inkscape:window-height="715"
     id="namedview22"
     showgrid="false"
     inkscape:zoom="0.50568851"
     inkscape:cx="81.70242"
     inkscape:cy="313.99119"
     inkscape:window-x="-8"
     inkscape:window-y="-8"
     inkscape:window-maximized="1"
     inkscape:current-layer="layer2" />
  <defs
     id="defs4">
    <inkscape:path-effect
       is_visible="true"
       id="path-effect3136"
       effect="spiro" />
    <inkscape:path-effect
       effect="spiro"
       id="path-effect3132"
       is_visible="true" />
    <inkscape:path-effect
       effect="spiro"
       id="path-effect3101"
       is_visible="true" />
    <inkscape:path-effect
       is_visible="true"
       id="path-effect3085"
       effect="spiro" />
    <inkscape:path-effect
       is_visible="true"
       id="path-effect3083"
       effect="spiro" />
    <inkscape:path-effect
       is_visible="true"
       id="path-effect3081"
       effect="spiro" />
    <inkscape:path-effect
       is_visible="true"
       id="path-effect3079"
       effect="spiro" />
    <inkscape:path-effect
       is_visible="true"
       id="path-effect3077"
       effect="spiro" />
    <inkscape:path-effect
       is_visible="true"
       id="path-effect3075"
       effect="spiro" />
    <inkscape:path-effect
       effect="spiro"
       id="path-effect3049"
       is_visible="true" />
    <inkscape:path-effect
       is_visible="true"
       id="path-effect3045"
       effect="spiro" />
    <inkscape:path-effect
       effect="spiro"
       id="path-effect3041"
       is_visible="true" />
    <radialGradient
       id="rg"
       gradientUnits="userSpaceOnUse"
       cx="220"
       cy="220"
       r="405">
      <stop
         style="stop-color:#fff;stop-opacity:.3"
         offset="0"
         id="stop7" />
      <stop
         style="stop-color:#fff;stop-opacity:.2"
         offset=".2"
         id="stop9" />
      <stop
         style="stop-color:#666;stop-opacity:.1"
         offset=".6"
         id="stop11" />
      <stop
         style="stop-color:#000;stop-opacity:.13"
         offset="1"
         id="stop13" />
    </radialGradient>
    <path
       id="shield"
       d="m2,2v257c0,286 298,398 298,398c0,0 298-112 298-398V2z" />
    <radialGradient
       inkscape:collect="always"
       xlink:href="#rg-7"
       id="radialGradient3055-1"
       gradientUnits="userSpaceOnUse"
       cx="220"
       cy="220"
       r="405" />
    <radialGradient
       id="rg-7"
       gradientUnits="userSpaceOnUse"
       cx="220"
       cy="220"
       r="405">
      <stop
         style="stop-color:#fff;stop-opacity:.3"
         offset="0"
         id="stop7-4" />
      <stop
         style="stop-color:#fff;stop-opacity:.2"
         offset=".2"
         id="stop9-0" />
      <stop
         style="stop-color:#666;stop-opacity:.1"
         offset=".6"
         id="stop11-9" />
      <stop
         style="stop-color:#000;stop-opacity:.13"
         offset="1"
         id="stop13-4" />
    </radialGradient>
    <radialGradient
       r="405"
       cy="220"
       cx="220"
       gradientUnits="userSpaceOnUse"
       id="radialGradient3074"
       xlink:href="#rg-7"
       inkscape:collect="always" />
    <inkscape:path-effect
       is_visible="true"
       id="path-effect10120-1"
       effect="spiro" />
    <inkscape:path-effect
       effect="spiro"
       id="path-effect10118-3"
       is_visible="true" />
    <inkscape:path-effect
       effect="spiro"
       id="path-effect10116-9"
       is_visible="true" />
    <inkscape:path-effect
       effect="spiro"
       id="path-effect10114-7"
       is_visible="true" />
    <inkscape:path-effect
       effect="spiro"
       id="path-effect10112-7"
       is_visible="true" />
    <inkscape:path-effect
       effect="spiro"
       id="path-effect10110-2"
       is_visible="true" />
    <linearGradient
       inkscape:collect="always"
       xlink:href="#linearGradient4719-5"
       id="linearGradient4039"
       gradientUnits="userSpaceOnUse"
       gradientTransform="matrix(2.3257341,0,0,2.2943177,447.69485,-1820.2799)"
       x1="-145.25935"
       y1="984.24286"
       x2="-64.14286"
       y2="984.14789" />
    <linearGradient
       inkscape:collect="always"
       id="linearGradient4719-5">
      <stop
         style="stop-color:#666666;stop-opacity:1;"
         offset="0"
         id="stop4721-5" />
      <stop
         id="stop4809-1"
         offset="0.39344174"
         style="stop-color:#666666;stop-opacity:0.74901961;" />
      <stop
         style="stop-color:#666666;stop-opacity:0;"
         offset="1"
         id="stop4723-7" />
    </linearGradient>
    <radialGradient
       inkscape:collect="always"
       xlink:href="#linearGradient4801-8"
       id="radialGradient4041"
       gradientUnits="userSpaceOnUse"
       gradientTransform="matrix(-0.72153181,1.2650715,-2.2729984,-1.2616144,1712.0113,1733.7841)"
       cx="-307.14288"
       cy="782.36218"
       fx="-307.14288"
       fy="782.36218"
       r="63" />
    <linearGradient
       inkscape:collect="always"
       id="linearGradient4801-8">
      <stop
         style="stop-color:#000000;stop-opacity:1;"
         offset="0"
         id="stop4803-2" />
      <stop
         style="stop-color:#000000;stop-opacity:0;"
         offset="1"
         id="stop4805-4" />
    </linearGradient>
    <inkscape:path-effect
       effect="spiro"
       id="path-effect10108-4"
       is_visible="true" />
    <linearGradient
       inkscape:collect="always"
       xlink:href="#linearGradient4719-5"
       id="linearGradient4044"
       gradientUnits="userSpaceOnUse"
       gradientTransform="matrix(-2.4055369,0,0,-1.6485021,142.06168,1726.5307)"
       x1="-145.25935"
       y1="984.24286"
       x2="-64.14286"
       y2="984.14789" />
    <radialGradient
       inkscape:collect="always"
       xlink:href="#linearGradient4801-8"
       id="radialGradient4046"
       gradientUnits="userSpaceOnUse"
       gradientTransform="matrix(0.74628962,-0.90897301,2.3509914,0.90648896,-1165.637,-827.11785)"
       cx="-307.14288"
       cy="782.36218"
       fx="-307.14288"
       fy="782.36218"
       r="63" />
    <inkscape:path-effect
       effect="spiro"
       id="path-effect10102-7"
       is_visible="true" />
    <linearGradient
       inkscape:collect="always"
       xlink:href="#linearGradient4719-5"
       id="linearGradient4049"
       gradientUnits="userSpaceOnUse"
       gradientTransform="matrix(2.334989,0,0,-1.6146975,449.44065,1692.189)"
       x1="-145.25935"
       y1="984.24286"
       x2="-64.14286"
       y2="984.14789" />
    <radialGradient
       inkscape:collect="always"
       xlink:href="#linearGradient4801-8"
       id="radialGradient4051"
       gradientUnits="userSpaceOnUse"
       gradientTransform="matrix(-0.72440295,-0.89033332,-2.2820431,0.88790031,1718.7881,-809.09364)"
       cx="-307.14288"
       cy="782.36218"
       fx="-307.14288"
       fy="782.36218"
       r="63" />
    <inkscape:path-effect
       is_visible="true"
       id="path-effect10096-8"
       effect="spiro" />
    <linearGradient
       inkscape:collect="always"
       xlink:href="#linearGradient4719-5"
       id="linearGradient4054"
       gradientUnits="userSpaceOnUse"
       gradientTransform="matrix(-2.409599,0,0,2.2818507,139.61083,-1810.8163)"
       x1="-145.25935"
       y1="984.24286"
       x2="-64.14286"
       y2="984.14789" />
    <radialGradient
       inkscape:collect="always"
       xlink:href="#linearGradient4801-8"
       id="radialGradient4056"
       gradientUnits="userSpaceOnUse"
       gradientTransform="matrix(0.74754985,1.2581972,2.3549614,-1.2547588,-1170.296,1723.935)"
       cx="-307.14288"
       cy="782.36218"
       fx="-307.14288"
       fy="782.36218"
       r="63" />
    <inkscape:path-effect
       is_visible="true"
       id="path-effect10090-3"
       effect="spiro" />
    <inkscape:path-effect
       effect="spiro"
       id="path-effect10084-1"
       is_visible="true" />
    <inkscape:path-effect
       effect="spiro"
       id="path-effect10082-1"
       is_visible="true" />
    <radialGradient
       inkscape:collect="always"
       xlink:href="#linearGradient4801-8"
       id="radialGradient4061"
       gradientUnits="userSpaceOnUse"
       gradientTransform="matrix(-0.76516322,1.2901254,-2.4104477,-1.2865998,1806.8444,1757.4704)"
       cx="-307.14288"
       cy="782.36218"
       fx="-307.14288"
       fy="782.36218"
       r="63" />
    <inkscape:path-effect
       effect="spiro"
       id="path-effect10080-4"
       is_visible="true" />
    <inkscape:path-effect
       is_visible="true"
       id="path-effect3075-1"
       effect="spiro" />
    <inkscape:path-effect
       effect="spiro"
       id="path-effect3101-7"
       is_visible="true" />
    <linearGradient
       inkscape:collect="always"
       xlink:href="#grad1-7-7"
       id="linearGradient3085-8-8"
       gradientUnits="userSpaceOnUse"
       gradientTransform="matrix(0.77469594,0,0,0.30982404,152.68996,-13.619206)"
       x1="78.877235"
       y1="178.07356"
       x2="301.40585"
       y2="178.07356" />
    <linearGradient
       id="grad1-7-7"
       x1="78.877235"
       y1="178.07356"
       x2="301.40585"
       y2="178.07356"
       gradientTransform="scale(1.577772,0.63380513)"
       gradientUnits="userSpaceOnUse">
      <stop
         offset="0%"
         style="stop-color:#da0;"
         id="stop16-4-4" />
      <stop
         offset="40%"
         style="stop-color:#fd0;"
         id="stop18-0-0" />
      <stop
         offset="60%"
         style="stop-color:#fd0;"
         id="stop20-9-9" />
      <stop
         offset="100%"
         style="stop-color:#da0;"
         id="stop22-4-4" />
    </linearGradient>
    <linearGradient
       inkscape:collect="always"
       xlink:href="#grad1-7-7"
       id="linearGradient3081-8-8"
       gradientUnits="userSpaceOnUse"
       gradientTransform="matrix(0.77469594,0,0,0.30982404,-27.310046,-13.619206)"
       x1="78.877235"
       y1="178.07356"
       x2="301.40585"
       y2="178.07356" />
    <linearGradient
       id="linearGradient3093"
       x1="78.877235"
       y1="178.07356"
       x2="301.40585"
       y2="178.07356"
       gradientTransform="scale(1.577772,0.63380513)"
       gradientUnits="userSpaceOnUse">
      <stop
         offset="0%"
         style="stop-color:#da0;"
         id="stop3095" />
      <stop
         offset="40%"
         style="stop-color:#fd0;"
         id="stop3097" />
      <stop
         offset="60%"
         style="stop-color:#fd0;"
         id="stop3099" />
      <stop
         offset="100%"
         style="stop-color:#da0;"
         id="stop3101" />
    </linearGradient>
    <linearGradient
       y2="178.07356"
       x2="301.40585"
       y1="178.07356"
       x1="78.877235"
       gradientTransform="matrix(0.77469594,0,0,0.30982404,332.68995,-13.619206)"
       gradientUnits="userSpaceOnUse"
       id="linearGradient3128-1"
       xlink:href="#grad1-7-7"
       inkscape:collect="always" />
    <linearGradient
       id="linearGradient3104"
       x1="78.877235"
       y1="178.07356"
       x2="301.40585"
       y2="178.07356"
       gradientTransform="scale(1.577772,0.63380513)"
       gradientUnits="userSpaceOnUse">
      <stop
         offset="0%"
         style="stop-color:#da0;"
         id="stop3106" />
      <stop
         offset="40%"
         style="stop-color:#fd0;"
         id="stop3108" />
      <stop
         offset="60%"
         style="stop-color:#fd0;"
         id="stop3110" />
      <stop
         offset="100%"
         style="stop-color:#da0;"
         id="stop3112" />
    </linearGradient>
  </defs>
  <g
     inkscape:groupmode="layer"
     id="layer2"
     inkscape:label="Elements"
     style="display:inline">
    <use
       height="1052.3622"
       width="744.09448"
       y="0"
       x="0"
       id="background"
       xlink:href="#shield"
       style="fill:#000000;fill-opacity:1"
       transform="matrix(-1,0,0,1,600,0)" />
    <g
       transform="matrix(1.1699088,0,0,1.1699088,2.809167,16.11951)"
       id="g3038">
      <path
         inkscape:connector-curvature="0"
         id="path3001"
         d="m 293.70205,482.39384 c 0.17988,-0.53964 -1.65452,-1.94389 -4.07645,-3.12056 -6.75125,-3.28 -11.26816,-7.77601 -13.04184,-12.98146 -1.90625,-5.59456 -2.05891,-10.29639 -0.33376,-10.27981 0.6875,0.007 5.75,3.32758 11.25,7.37994 9.32457,6.87027 10.43903,7.4154 16.5,8.07087 4.49202,0.4858 9.4543,2.06749 16.06334,5.12007 8.26306,3.81654 10.46447,4.41711 16.19098,4.41711 7.86539,0 9.49384,-1.43068 3.52454,-3.0965 -2.35337,-0.65674 -10.35386,-4.08839 -17.77886,-7.6259 -14.33167,-6.82807 -14.69389,-7.12286 -27.15352,-22.0986 -3.73815,-4.49304 -6.39894,-8.74212 -6.88823,-11 -0.43849,-2.02345 -2.25955,-15.70657 -4.04681,-30.40693 -3.19522,-26.28097 -3.22165,-26.84356 -1.5805,-33.64308 C 284.3454,364.7828 284.37932,360.5439 282.5,352 c -1.01956,-4.63518 -1.43982,-13.60596 -1.46487,-31.26849 L 281,295.96303 l 3.61984,-11.23152 c 4.82915,-14.98372 6.53603,-18.16347 10.57745,-19.70481 1.81649,-0.69278 5.55271,-2.09722 8.30271,-3.12097 C 308.3782,260.08971 333.13992,257 342.81579,257 c 4.29607,0 6.12704,-0.84487 17.26753,-7.96778 12.43127,-7.9482 19.94742,-14.33481 18.53377,-15.74846 -0.41041,-0.41042 -2.17965,0.10392 -3.93165,1.14297 -6.57532,3.8996 -20.29908,11.22722 -23.31433,12.44839 -2.33569,0.94595 -4.1183,1.00077 -7.03177,0.21626 -3.37247,-0.90812 -4.27228,-1.80414 -6.62111,-6.59331 -3.27086,-6.66918 -3.39834,-9.66157 -0.60416,-14.18264 2.97107,-4.80728 1.62602,-5.25552 -2.72229,-0.90721 l -3.67489,3.67489 0.66946,6.70844 c 0.36821,3.68965 0.9278,8.13566 1.24355,9.88003 0.50413,2.78516 0.20219,3.36389 -2.47825,4.75 -4.58832,2.37271 -21.01915,2.18892 -25.94149,-0.29017 -2.04059,-1.02773 -5.96016,-2.17544 -8.71016,-2.55048 -9.50234,-1.29589 -11.49991,-1.80801 -11.47652,-2.94222 0.0129,-0.62629 6.70942,-5.75192 14.88112,-11.39028 11.53736,-7.96063 16.92489,-10.99896 24.10823,-13.59597 6.3898,-2.31012 11.03361,-4.78768 15.01607,-8.01136 9.01497,-7.29733 16.53478,-10.80851 27.97593,-13.06264 1.49081,-0.29371 3.96893,-2.45461 6.12145,-5.33781 3.30443,-4.42616 5.27003,-5.65558 22.77143,-14.24277 10.53515,-5.16914 19.80615,-10.11816 20.60222,-10.99781 0.79608,-0.87965 2.11671,-3.49636 2.93474,-5.81491 0.81804,-2.31856 3.13777,-7.02122 5.15496,-10.45036 C 427.38264,145.28685 431,136.06507 431,132.84345 c 0,-3.3045 -2.06778,-1.94445 -4.12931,2.71598 -1.10927,2.50769 -2.69752,4.82063 -3.52945,5.13987 -0.99067,0.38015 -4.06082,-1.95079 -8.89767,-6.75535 -4.06179,-4.03468 -7.72375,-6.99711 -8.13769,-6.58317 -0.82449,0.8245 -0.10468,2.09587 6.94412,12.26509 2.6125,3.76903 4.75,7.79293 4.75,8.94201 0,1.14908 -1.38798,4.1847 -3.0844,6.74582 -2.26207,3.4151 -4.08658,4.95685 -6.84343,5.78282 -3.40517,1.02022 -4.17387,0.86877 -8.16561,-1.6087 C 392.09506,154.63961 391,153.19551 391,147.74235 c 0,-5.86271 -1.98587,-6.09907 -3.33441,-0.39686 -1.2158,5.14092 -0.40618,7.38621 4.80149,13.31586 2.49311,2.83875 4.53292,5.80995 4.53292,6.60268 0,1.46034 -21.86483,12.0378 -27.27052,13.19254 -7.81968,1.67042 -9.15623,-4.10985 -4.806,-20.78481 1.74648,-6.69447 3.49067,-16.4436 3.87597,-21.66474 0.69911,-9.47353 0.70721,-9.49612 3.9489,-11.0244 2.4668,-1.16297 4.21113,-3.41405 7.25,-9.35625 C 382.2531,113.21744 384,108.37583 384,106.53564 384,103.56314 380.846,98 379.16075,98 c -0.38174,0 -0.70736,2.5875 -0.72359,5.75 -0.0383,7.45583 -5.25993,18.51973 -9.58623,20.31175 -2.56916,1.06418 -3.46694,0.76132 -10.21978,-3.44754 C 351.49343,116.16546 347,114.80614 347,117.09563 c 0,2.4711 4.54141,7.20752 8.56409,8.93184 5.38785,2.3095 6.78588,4.67015 5.29633,8.94308 -0.81898,2.34933 -0.79398,4.63575 0.0968,8.84867 1.19554,5.65453 1.18166,5.72121 -3.00271,14.43078 -2.74319,5.70982 -4.77098,8.75 -5.83623,8.75 -0.89784,0 -4.91848,-2.50358 -8.93477,-5.56352 -4.01629,-3.05994 -7.69762,-5.42244 -8.18075,-5.25 -1.53107,0.54646 3.68359,9.91818 7.92134,14.23613 3.79645,3.8683 4.07595,4.54033 4.07595,9.80014 0,3.10588 -0.40329,6.70777 -0.89619,8.00421 -1.10782,2.91379 -8.84462,8.45727 -10.02813,7.18524 -0.46679,-0.50171 -1.37959,-4.0622 -2.02845,-7.9122 -0.64886,-3.85 -2.21954,-10.15 -3.49039,-14 -1.27085,-3.85 -3.1258,-11.39935 -4.12209,-16.77633 l -1.81146,-9.77633 2.29316,-7.22367 c 1.26123,-3.97302 3.53026,-8.57367 5.04227,-10.22367 1.51201,-1.65 4.42996,-6.46016 6.48432,-10.68923 3.51009,-7.22581 9.6213,-14.33189 16.27311,-18.922288 6.56941,-4.533538 6.97431,-19.421513 0.64135,-23.582102 l -2.14249,-1.407563 0.52481,8.412114 c 0.48043,7.700594 0.3266,8.68021 -1.81858,11.581732 -1.28887,1.74329 -5.41016,5.407197 -9.15842,8.142017 -3.96388,2.89214 -7.23109,6.12141 -7.80955,7.71886 -0.547,1.51055 -1.40697,3.64646 -1.91105,4.74646 -0.50409,1.1 -1.20013,3.0125 -1.54676,4.25 -0.79124,2.82478 -3.07478,2.90456 -4.54429,0.15876 -2.06449,-3.85753 -2.30914,-15.87685 -0.46631,-22.90876 0.93689,-3.575 1.94382,-9.667233 2.23762,-13.538296 0.44725,-5.89304 0.18786,-7.717132 -1.59415,-11.210162 C 325.95775,69.957016 325,66.711749 325,65.039838 325,61.251993 323.30415,61.09464 321.8763,64.75 c -0.86617,2.217458 -0.63169,4.041736 1.21083,9.420413 2.25758,6.590294 2.26402,6.74644 0.53595,13 -2.82038,10.206425 -5.48357,12.946217 -8.82574,9.079587 -0.83194,-0.9625 -3.39042,-7.7125 -5.68551,-15 C 306.81674,73.9625 304.51125,68 303.98852,68 c -2.05094,0 -2.11586,5.222974 -0.14578,11.730158 1.12727,3.723413 2.53731,8.959062 3.13342,11.634776 0.69616,3.124818 2.74214,7.020041 5.72006,10.890076 3.26101,4.23791 5.03447,7.74888 5.97875,11.83627 1.27908,5.53663 1.1976,6.34485 -1.72498,17.10992 -1.68712,6.21434 -3.4137,11.64896 -3.83686,12.07692 -0.7859,0.79484 -36.91807,-34.55241 -40.6972,-39.81312 l -2.08407,-2.90111 -1.78397,2.72268 -1.78397,2.72268 4.25401,5.51399 c 2.3397,3.03269 9.41773,10.07612 15.72896,15.65208 10.01922,8.85196 12.51458,11.73569 19.66999,22.73139 14.70892,22.60314 15.32559,23.82186 16.03441,31.68849 0.59805,6.63736 0.41739,7.58216 -2.79978,14.64177 -2.58673,5.67621 -4.39039,8.19301 -7.27743,10.15481 -4.49749,3.05612 -6.08088,3.19255 -10.82066,0.9323 -4.12176,-1.96553 -6.10038,-6.60454 -5.19955,-12.19067 1.16256,-7.20908 1.14889,-7.63341 -0.24595,-7.63341 -2.52318,0 -5.20599,5.02509 -6.39797,11.98384 -1.13409,6.62073 -1.35568,6.99373 -6.60035,11.11009 -3.12983,2.45649 -8.59898,5.38548 -12.92111,6.91987 -6.85484,2.43352 -7.88647,2.55479 -12.09137,1.4213 -6.28322,-1.69372 -7.59174,-3.07322 -9.55622,-10.07457 -1.66507,-5.93426 -1.65402,-6.16194 0.61016,-12.57549 1.639,-4.64267 3.25456,-7.25538 5.5859,-9.03358 2.92543,-2.23133 10.12273,-13.03029 14.68331,-22.0311 1.7859,-3.52467 5.96802,-17.33713 7.10632,-23.47036 1.44411,-7.78087 -1.70762,-3.35758 -10.64775,14.94361 -7.07618,14.48553 -10.26791,19.89485 -14.17864,24.02987 C 247.14301,185.54204 239.81798,190 236.45765,190 c -0.70847,0 -3.33534,-2.7234 -5.83749,-6.05199 -5.45872,-7.26171 -5.40824,-8.26759 1.06674,-21.25546 2.41498,-4.8441 6.42399,-14.2716 8.9089,-20.95001 3.06666,-8.24193 6.21512,-14.56789 9.80106,-19.69255 2.90567,-4.1525 9.77466,-14.07499 15.26441,-22.04999 l 9.98136,-14.5 2.87064,-14.5 c 2.39991,-12.122286 2.87509,-17.041694 2.89782,-30 0.0217,-12.350325 -0.31178,-16.262018 -1.64092,-19.25 -0.91747,-2.0625 -2.02858,-3.750018 -2.46914,-3.750041 -0.44057,-2.2e-5 -0.81891,9.337478 -0.84075,20.75 -0.035,18.297042 -0.29309,21.577557 -2.1829,27.750041 -1.17875,3.85 -3.02645,9.984489 -4.10601,13.632198 -1.49949,5.066622 -4.98725,11.145088 -14.7751,25.750002 C 248.34952,116.39699 242.01497,125 241.31949,125 c -1.53385,0 -8.45677,-9.71393 -11.56424,-16.22643 -1.24039,-2.59954 -2.59275,-4.73704 -3.00525,-4.75 -1.10778,-0.0348 -0.91277,8.7578 0.20962,9.45148 0.5278,0.32619 3.04371,4.29025 5.59092,8.80901 l 4.6313,8.21594 -1.28576,5.39642 c -1.58757,6.66314 -6.64547,14.61484 -14.62109,22.98634 -6.80114,7.13871 -7.83347,7.31487 -15.28841,2.60877 -6.8798,-4.34303 -16.68871,-21.35089 -15.51031,-26.89363 0.81507,-3.83377 2.25501,-17.96141 1.88268,-18.47144 -0.94745,-1.29782 -3.77113,1.55626 -5.55196,5.61173 -3.58318,8.15991 -4.95851,8.17384 -11.39653,0.11542 -10.16333,-12.72136 -9.59871,-11.42631 -8.87387,-20.35361 0.41429,-5.102586 1.35541,-9.223571 2.5985,-11.378381 1.484,-2.572411 1.79727,-4.389881 1.31314,-7.618286 C 169.70233,77.5293 171.22487,73.988396 176.0395,69.5 180.93464,64.93654 185,58.970402 185,56.349962 c 0,-3.612758 -1.27331,-2.872474 -6.38816,3.713998 -5.39556,6.947929 -7.23722,7.260091 -9.86815,1.672646 -0.96768,-2.055133 -2.09339,-3.73643 -2.50156,-3.736214 -0.40817,2.15e-4 -0.80491,3.961683 -0.88164,8.803261 -0.11066,6.982456 -0.69154,10.182732 -2.80894,15.475401 -1.46819,3.669893 -2.93314,8.297581 -3.25545,10.283751 -0.32232,1.986171 -1.20496,3.848728 -1.96144,4.139017 -1.99922,0.76717 -17.30074,-7.02668 -28.5956,-14.565204 -16.259,-10.851738 -13.66733,-6.348158 5.96618,10.367514 9.68742,8.247728 19.27518,15.994158 21.30612,17.214288 2.81618,1.69188 4.40849,3.82802 6.70874,9 3.8918,8.75052 4.55999,10.99044 3.47806,11.65911 -0.48575,0.30021 -4.58471,0.74374 -9.1088,0.98561 -13.03534,0.69692 -12.42279,2.26814 2.42043,6.20848 5.49461,1.45862 11.11521,3.24142 12.49021,3.96176 5.29025,2.77148 11.86828,10.92234 15.88063,19.67776 5.02505,10.96523 10.70759,19.35426 15.95145,23.54884 8.55177,6.84057 16.12971,14.4991 18.71998,18.91906 2.93964,5.01612 5.77416,15.35535 4.55152,16.60221 -0.96169,0.98073 -10.06102,-1.3595 -19.99708,-5.14299 -5.91518,-2.25241 -10.05237,-3.04953 -18.6065,-3.58496 -6.26883,-0.39238 -11.4866,-1.19707 -12.13134,-1.87091 -2.0177,-2.10875 -5.26714,-13.95947 -6.35656,-23.18239 -1.3384,-11.3309 -2.77932,-16.74357 -4.3213,-16.2326 -1.76159,0.58374 -2.73946,13.1908 -1.63392,21.06502 1.04351,7.43233 0.76058,8.66758 -1.98527,8.66758 -2.19198,0 -11.58501,-7.30228 -12.54135,-9.74983 -1.35914,-3.47842 -4.47477,-27.21762 -4.25514,-32.42158 L 145.5,152.5 l -8.06144,-1 c -9.15463,-1.13561 -12.97932,-3.15663 -14.96431,-7.90739 -1.49316,-3.57363 -3.79618,-5.93734 -4.80347,-4.93006 -0.35486,0.35487 -0.37748,2.31944 -0.0503,4.36573 0.37727,2.35927 0.16659,3.98526 -0.5758,4.44409 -1.65414,1.02231 -4.81336,-2.14256 -5.56787,-5.57783 -0.35009,-1.59395 -2.40446,-4.79402 -4.56526,-7.11127 -3.92846,-4.21289 -7.084576,-11.07794 -9.057176,-19.7008 C 95.457893,104.60656 94.873566,103 93.459858,103 c -2.056849,0 -1.98725,11.07946 0.09489,15.10588 0.895198,1.73112 1.42547,4.78563 1.25,7.20034 -0.299785,4.12544 -0.365869,4.19378 -4.055407,4.19378 -2.06286,0 -3.75036,0.48276 -3.75,1.0728 3.61e-4,0.59004 4.05145,3.20861 9.002421,5.81904 C 105.44853,141.37271 107,142.98532 107,147.82347 c 0,4.74159 2.71916,6.75266 13.61757,10.07145 5.56466,1.69456 10.56127,3.64893 11.10359,4.34305 0.54231,0.69411 1.46012,3.06203 2.03958,5.26203 0.57946,2.2 2.68016,9.625 4.66822,16.5 1.98807,6.875 4.06347,14.15511 4.61202,16.17803 0.7523,2.77436 2.83537,5.22385 8.47819,9.96959 4.11445,3.46035 7.48083,6.82243 7.48083,7.47127 0,2.58646 -9.22841,2.1526 -19,-0.89326 -12.29404,-3.83212 -16.61753,-6.08534 -18.44038,-9.61033 -0.91722,-1.77372 -5.01994,-5.05543 -10.7706,-8.61527 -5.10896,-3.1626 -12.137511,-8.1689 -15.618999,-11.12511 C 90.662347,183.54736 87.999412,182 85.920021,182 84.314009,182 83,182.225 83,182.5 c 0,0.275 1.8,2.3 4,4.5 2.2,2.2 4,4.62252 4,5.38337 0,1.71949 -3.076519,2.58523 -9.25,2.60298 -9.121827,0.0262 -3.996574,3.21351 7.25,4.50862 16.11483,1.85572 23.53162,4.39282 25.92723,8.86907 2.1497,4.01675 -0.38754,6.97313 -7.31501,8.52343 -11.098847,2.48382 -6.31312,5.05482 6.00019,3.22345 7.4765,-1.11199 7.65867,-1.08521 19.61345,2.88333 11.84985,3.93371 12.32703,4.00575 26.53456,4.00575 19.69076,0 39.54467,3.55743 49.73958,8.91234 3.85,2.02223 9.1247,4.47656 11.72156,5.45407 5.99213,2.25555 10.21634,6.94685 8.73966,9.70605 -2.34824,4.38772 -4.60677,4.87779 -18.46122,4.00585 -18.68218,-1.17578 -23.36388,-2.79211 -32.12951,-11.09254 -3.92123,-3.71312 -8.64623,-7.21351 -10.5,-7.77864 -9.84496,-3.00127 -11.85106,-2.04399 -4.42013,2.10923 5.87681,3.28461 12.50905,8.84857 12.53161,10.5131 0.0215,1.58703 -4.82202,0.77854 -9.41885,-1.57222 -1.61748,-0.82715 -6.7839,-1.71352 -11.5,-1.97296 -8.93145,-0.49135 -16.39204,-2.64186 -23.44582,-6.75825 -6.42201,-3.74771 -9.6173,-4.76399 -9.6173,-3.05885 0,1.47114 16.11816,12.84152 20.82217,14.68878 1.47281,0.57837 6.95283,1.16251 12.17783,1.29809 6.89707,0.17897 11.14396,0.85839 15.5,2.47972 14.94081,5.56101 19.75775,6.8701 29.54464,8.02929 8.14095,0.96425 11.61415,1.88016 15.69021,4.13766 2.87917,1.5946 6.15281,2.89928 7.27475,2.89928 4.51255,0 6.93972,13.91928 6.39527,36.67547 -0.22139,9.25349 0.0821,20.19953 0.67448,24.32453 0.78122,5.44022 0.76572,10.52101 -0.0564,18.5 -3.0351,29.45523 -3.06614,30.15228 -1.50893,33.87921 1.19012,2.84837 1.48602,8.93011 1.48602,30.54307 l 0,26.98651 -6.25,8.29561 -6.25,8.2956 -18.30882,9.25 c -16.97131,8.57426 -18.74285,9.25 -24.25,9.25 -3.26765,0 -5.94118,0.41271 -5.94118,0.91714 0,1.2474 8.97302,3.08286 15.07118,3.08286 3.49793,0 6.96813,-0.93825 11.70078,-3.16359 5.32324,-2.50304 8.62703,-3.30592 15.82294,-3.84525 8.04111,-0.60267 9.64241,-1.05835 13.82027,-3.9328 8.56781,-5.8948 6.8288,-0.6937 -2.73341,8.17519 l -6.18176,5.73355 6.85113,0.0164 6.85114,0.0165 6.83245,-6.32581 c 3.75786,-3.47919 8.82687,-7.38384 11.26448,-8.67699 3.94174,-2.09108 4.77271,-2.21005 7.51184,-1.07547 1.69391,0.70164 5.16973,3.2498 7.72405,5.66259 2.58057,2.43758 6.32375,4.83913 8.42401,5.40467 2.07889,0.55978 5.0511,2.0178 6.60491,3.24002 1.55381,1.22223 4.87506,2.50739 7.38055,2.85592 5.31987,0.74003 6.31436,0.63832 6.75749,-0.69109 z"
         style="fill:#ffffff" />
      <path
         inkscape:connector-curvature="0"
         id="path2999"
         d="m 254.32921,423.43713 c -1.9236,-4.39015 -2.96336,-28.87333 -3.3311,-78.43713 -0.10813,-14.575 -0.48945,-30.325 -0.84736,-35 L 249.5,301.5 245,301.42887 c -6.13051,-0.0969 -6.42584,-0.21084 -5,-1.92887 0.79139,-0.95357 3.00023,-1.5 6.06343,-1.5 2.65019,0 5.08511,-0.43132 5.41092,-0.95849 0.32581,-0.52717 1.08818,-6.17094 1.69415,-12.54171 1.0794,-11.34803 1.05651,-11.63139 -1.12737,-13.95601 -2.2203,-2.36341 -2.22109,-2.37711 -0.20087,-3.4583 2.5948,-1.3887 6.72468,-1.3887 9.31948,0 2.02375,1.08308 2.0234,1.09067 -0.15719,3.41179 -2.16288,2.30229 -2.17159,2.4537 -0.844,14.66451 L 261.5,297.5 l 6,0.5 c 4.44444,0.37037 6,0.88889 6,2 0,1.11873 -1.18442,1.5 -4.65976,1.5 -2.56287,0 -4.91245,0.24958 -5.22128,0.55461 -0.30884,0.30504 -1.00561,26.40504 -1.54839,58 -0.98466,57.31641 -1.3389,62.30885 -4.67476,65.88252 -1.14718,1.22896 -1.59137,0.86684 -3.0666,-2.5 z"
         style="fill:#000000" />
      <path
         inkscape:connector-curvature="0"
         id="path2989"
         d="m 257.9721,94.533622 c 1.70313,-2.052153 1.30297,-2.656295 -5.52203,-8.336886 -5.98519,-4.981595 -6.09162,-5.162089 -9.94596,-16.866109 -3.54746,-10.7722 -3.87505,-12.666 -3.66167,-21.16806 0.1289,-5.135588 0.65318,-12.560588 1.16508,-16.5 C 241.235,22.216309 241.22619,22 239.61394,22 c -1.53409,0 -3.5006,3.801814 -6.06867,11.732457 -1.43025,4.416856 -1.51475,6.097579 -0.54214,10.782623 0.63372,3.052591 1.33119,8.347986 1.54994,11.767543 0.21874,3.419557 0.52129,7.100135 0.67233,8.179062 0.40679,2.905979 -2.49438,3.047506 -10.5238,0.513382 C 217.21843,62.613339 213,59.394212 213,56.045455 213,54.893939 212.34444,54 211.5,54 c -1.04122,0 -1.5,1.047031 -1.5,3.423275 0,6.593201 5.28066,10.363561 21.14988,15.1009 4.8702,1.45387 6.06673,2.329924 8.67052,6.348254 3.57225,5.512927 14.19422,16.981895 15.80716,17.067634 0.62015,0.03297 1.67519,-0.599933 2.34454,-1.406441 z"
         style="fill:#ffffff" />
    </g>
  </g>
  <g
     inkscape:groupmode="layer"
     id="layer1"
     inkscape:label="Cover"
     style="display:inline"
     sodipodi:insensitive="true">
    <path
       d="m 2,2 v 257 c 0,286 298,398 298,398 0,0 298,-112 298,-398 V 2 z"
       id="shine"
       inkscape:connector-curvature="0"
       style="fill:url(#radialGradient3074);stroke:#000000;stroke-width:3" />
  </g>
</svg>
