<?xml version="1.0" encoding="UTF-8"?>
<svg xmlns="http://www.w3.org/2000/svg" xmlns:xlink="http://www.w3.org/1999/xlink" width="600" height="660">
<defs>
  <radialGradient id="rg" gradientUnits="userSpaceOnUse" cx="220" cy="220" r="405">
    <stop style="stop-color:#ffffff;stop-opacity:.3" offset="0"/>
    <stop style="stop-color:#ffffff;stop-opacity:.2" offset=".2"/>
    <stop style="stop-color:#666666;stop-opacity:.1" offset=".6"/>
    <stop style="stop-color:#000000;stop-opacity:.13" offset="1"/>
  </radialGradient>
  <path id="shield" d="m2,2v257c0,286 298,398 298,398c0,0 298-112 298-398V2z"/>
</defs>
<use id="field" xlink:href="#shield" style="fill:#4b0082;"/>
<g id="eagle" style="fill:#dddddd;stroke:#4b0082;stroke-width:1;">
    <path d="m 217,280.83 c -2.62,10.2 -3.92,17.05 -5.44,18.59 -4.83,4.96 4.1,-16.32 4.35,-19.7 0,-2.44 3.05,-28.54 2.84,-35.86 -0.23,-7.32 -2.4,-14.63 -2.4,-14.63 0,0 -1.97,33.67 -5.01,40.54 -3.06,6.86 -1.09,14.59 -6.1,21.46 -5.02,6.87 -13.73,18.82 -19.84,19.72 -6.08,0.87 -9.78,0.87 -9.78,0.87 0,0 6.09,-2.21 6.97,-5.31 0.86,-3.1 1.08,-6.42 1.08,-6.42 l -3.92,1.99 c 0,0 3.92,-3.32 5.22,-7.51 1.32,-4.22 3.28,-11.54 3.28,-22.17 0,-10.6 2.39,-16.58 2.39,-16.58 l -2.18,1.76 c 0,0 3.05,-18.82 3.27,-27.01 0.23,-8.19 -1.52,-9.74 -1.52,-9.74 0,0 -10.46,68.64 -14.81,83.92 -4.36,15.27 -9.81,23.01 -9.81,23.01 0,0 9.59,-27.01 12.85,-46.26 3.27,-19.27 6.53,-44.07 6.75,-49.38 0.23,-5.33 -1.74,-8.19 -1.74,-8.19 0,0 -6.53,30.99 -7.62,40.97 -1.09,9.95 -1.09,9.95 -1.09,9.95 0,0 0.44,1.55 -3.05,-3.98 -3.48,-5.52 -6.31,-5.52 -6.31,-5.52 0,0 6.75,10.17 5.66,17.48 -1.1,7.29 -4.14,18.37 -6.33,24.58 -2.17,6.17 -10.66,36.07 -16.98,42.71 -6.32,6.64 -15.46,14.4 -15.46,14.4 l -0.88,-7.76 c 0,0 -0.86,-2.42 -2.39,1.78 -1.53,4.2 -6.75,12.38 -10.68,15.51 -3.92,3.09 -13.5,7.08 -19.609,5.07 -6.086,-1.98 -16.547,-14.18 -16.547,-14.18 0,0 5.884,9.33 16.989,-5.29 11.107,-14.61 26.587,-46.72 29.187,-53.34 2.62,-6.67 3.7,-9.33 3.7,-9.33 h -3.26 c 0,0 23.96,-61.77 23.96,-66.84 0,-5.1 -0.43,-6.43 -0.43,-6.43 0,0 -19.83,52.24 -31.16,73.27 -11.32,21.06 -25.256,37.64 -29.842,42.74 -4.577,5.09 -17.201,14.82 -18.739,14.82 -1.519,0 -1.519,0 -1.519,0 0,0 10.46,-7.07 13.508,-10.62 3.048,-3.54 2.394,-6.64 2.615,-7.51 0.222,-0.89 19.607,-18.83 22.657,-25.03 3.04,-6.18 15.68,-30.33 21.13,-43.18 5.44,-12.83 18.95,-50.02 18.95,-50.02 0,0 -2.84,2.87 -6.32,7.74 -3.49,4.87 -7.84,25.68 -11.11,31 -3.27,5.31 -11.55,14.18 -11.55,14.18 0,0 0.23,-7.32 -0.87,-11.08 -1.08,-3.78 -1.95,-4.65 -1.95,-4.65 0,0 0.22,22.36 -3.27,27 -3.49,4.66 -5.24,6.87 -7.19,9.97 -1.97,3.11 -4.35,8.41 -5.88,9.97 -1.53,1.55 -6.097,7.3 -6.097,7.3 0,0 1.086,-3.99 0.653,-6.42 -0.432,-2.44 -1.961,-5.31 -1.961,-5.31 0,0 3.259,6.87 -4.365,13.72 -7.624,6.87 -15.681,9.3 -20.469,9.53 -4.798,0.22 -13.297,-2.22 -16.345,-9.08 -3.038,-6.85 -0.432,-9.29 -0.432,-9.29 0,0 3.047,7.74 11.104,1.1 8.067,-6.66 37.482,-54.02 46.842,-74.63 9.36,-20.58 20.26,-46.04 20.48,-48.7 0.22,-2.65 0.22,-2.65 0.22,-2.65 0,0 -3.05,3.98 -17.86,29.67 -14.82,25.68 -32.03,51.59 -48.143,61.77 -16.105,10.18 -16.778,7.54 -16.778,7.54 0,0 10.461,-5.76 11.547,-6.87 1.087,-1.12 -0.221,-5.33 3.058,-6.66 3.259,-1.33 10.672,-1.75 18.286,-13.06 7.634,-11.29 7.634,-11.29 7.634,-11.29 0,0 23.956,-34.75 30.066,-49.37 6.08,-14.61 9.35,-19.93 -0.88,-5.98 -10.24,13.95 -21.782,34.11 -28.532,38.52 -6.759,4.44 -6.759,4.44 -6.759,4.44 0,0 0.654,-2 0.654,-4.65 0,-2.66 -1.308,-4.44 -1.308,-4.44 0,0 2.837,11.08 -8.71,13.95 -11.538,2.89 -25.729,0.67 -28.95,-7.96 -3.269,-8.64 1.923,-17.05 1.923,-17.05 0,0 3.721,9.52 14.172,3.32 10.461,-6.2 31.593,-28.57 34.41,-34.32 2.846,-5.76 22.01,-32.99 24.62,-35.65 2.62,-2.65 3.49,-5.09 3.49,-5.09 0,0 -23.3,23.69 -27.658,29 -4.365,5.32 -25.267,17.71 -34.208,22.59 -8.932,4.87 -15.903,0.44 -15.903,0.44 0,0 6.538,-0.22 10.894,-1.11 4.355,-0.88 8.932,-4.43 8.932,-4.43 0,0 -4.365,0.23 -2.394,-1.55 1.951,-1.76 9.576,-1.31 14.594,-4.42 5.01,-3.1 22.653,-18.37 27.233,-23.9 4.56,-5.55 14.81,-15.06 15.24,-17.51 0.44,-2.42 0.44,-2.64 0.44,-2.64 0,0 -22.001,19.7 -30.933,25.68 -8.932,5.98 -11.547,6.85 -16.556,7.3 -5.009,0.45 -7.624,-0.23 -7.624,-0.23 0,0 8.066,-3.98 8.278,-6.19 0.23,-2.22 0.23,-2.44 0.23,-2.44 0,0 -8.278,8.85 -13.941,9.07 -5.663,0.24 -15.008,-5.31 -16.758,-11.72 -1.75,-6.43 -0.682,-7.98 -0.682,-7.98 0,0 3.721,3.76 5.874,3.76 2.202,0 2.413,0 2.413,0 0,0 -4.336,-2.43 -4.163,-5.75 0.231,-3.32 0.904,-4.21 0.904,-4.21 0,0 1.519,8.64 7.182,6.65 5.663,-1.99 5.663,-2.88 10.23,-2.88 4.576,0 17.864,-9.53 24.834,-14.62 6.98,-5.09 21.782,-17.26 27.672,-21.47 5.88,-4.2 11.1,-7.75 11.1,-7.75 0,0 -18.08,11.29 -33.974,18.82 -15.903,7.52 -25.267,9.52 -32.459,7.97 -7.191,-1.55 -9.364,-5.32 -9.364,-5.32 0,0 6.105,3.55 12.412,3.33 6.317,-0.24 6.317,-0.24 6.317,-0.24 0,0 -3.702,-1.54 -2.615,-2.87 1.096,-1.33 2.615,4.64 18.729,-2.43 16.134,-7.08 40.084,-21.92 40.084,-21.92 0,0 -19.82,9.29 -27.874,10.63 -8.066,1.33 -15.037,0.65 -15.037,0.65 l 4.577,-2.87 c 0,0 -5.231,4.87 -12.855,0.45 -7.624,-4.43 -12.634,-9.97 -10.884,-15.95 1.741,-5.97 5.654,-9.075 5.654,-9.075 0,0 4.576,12.845 16.556,10.185 11.989,-2.66 26.143,-8.19 29.843,-10.405 3.7,-2.216 5.88,-3.541 5.88,-3.541 0,0 -22.44,4.206 -29.618,1.99 -7.192,-2.216 -12.845,-4.647 -16.123,-9.518 -3.26,-4.873 -3.26,-6.644 -3.26,-6.644 0,0 4.134,7.969 7.182,8.414 3.048,0.446 6.096,2.656 9.576,4.207 3.49,1.551 16.563,1.325 21.133,0.664 4.58,-0.664 16.33,-1.329 16.33,-1.329 0,0 -11.75,-3.987 -17.63,-6.198 -5.88,-2.216 -8.06,-9.08 -6.1,-11.956 1.96,-2.875 6.1,-11.955 6.1,-11.955 0,0 5.44,7.968 7.63,12.841 2.17,4.873 10.23,2.216 16.33,3.767 6.1,1.545 6.1,1.545 6.1,1.545 -0.19,-1.1 -0.48,-3.948 0.44,-3.322 3.7,2.216 6.09,2.216 8.49,2.216 2.4,0 2.4,0 2.4,0 0,0 -2.83,-0.439 -3.92,-3.321 -1.1,-2.876 1.52,-4.207 1.52,-4.207 0,0 -0.22,4.873 4.58,6.644 4.78,1.77 7.4,1.325 9.8,4.646 2.4,3.321 5,3.547 5,3.547 0,0 -2.17,-4.212 0,-6.642 2.18,-2.437 5.67,-0.447 5.67,-0.447 0,0 -4.36,2.217 -2.83,6.198 1,2.583 9.21,7.693 16.52,12.04 3.8,2.266 6.02,11.646 1.71,13.856 3.54,3.34 5.52,17.06 2.46,19.93 -3.05,2.89 -11.33,3.99 -13.28,0.67 -1.97,-3.32 -4.14,-6.86 -7.63,-4.87 -3.48,2 -6.1,6.65 -8.72,9.52 -2.6,2.88 -3.25,9.3 -0.44,10.85 2.84,1.55 6.98,3.54 9.38,0.66 2.39,-2.87 6.09,-1.77 7.19,1.56 1.09,3.31 3.27,7.75 7.84,8.84 4.57,1.13 3.27,8.87 0.44,11.53 -2.84,2.64 -5.67,3.32 -4.79,6.63 0.86,3.33 5.21,7.6 10.65,6.71 5.44,-0.88 10.91,-6.49 16.58,-6.49 5.65,0 9.57,-0.22 13.05,3.55 3.5,3.75 6.55,5.53 14.41,4.88 7.82,-0.68 10.45,-2.67 12.4,-4.44 15.96,-20.77 47.82,83.7 -33.11,118.46 z" />
    <path d="m 360.55,369.41 c 0.1,-3.14 -1.12,-5.82 -2.73,-8.54 -1.56,-2.68 -6.09,-5.6 -7.5,-8.36 -7.87,-15.26 17.43,6.66 17.11,-22.57 l 0.1,2.9 c 5.21,15.68 18.23,24.84 18.44,41.56 0,0 2.61,3.43 3.99,5.12 4.29,5.33 10.32,11.95 14.13,17.66 11.79,17.64 16.52,17.87 28.74,24.53 1.65,1.02 4.64,3.49 4.64,3.49 2.31,-3.16 3.48,-5.62 3.5,-8.08 0.1,-1.61 -0.17,-3.11 -1.12,-4.58 -0.65,-0.92 -1.81,-1.53 -2.67,-2.93 -1.51,-2.47 -0.78,-4.78 1.73,-6.38 6.1,-3.82 11.19,-4.51 16.48,-0.25 1.27,1.02 2.59,3.16 2.56,4.83 0,1.77 -0.54,3.6 -1.47,5.11 -1.22,2.09 -5.2,5.07 -5.2,5.07 0.51,2.5 -0.68,4.43 -1.5,6.49 0,0 3.01,-1.47 4.99,-2.86 1.52,-1.06 3.01,-2.37 3.81,-4.03 1.46,-2.82 1.31,-7.06 3.32,-9.52 1.06,-1.39 3.85,-1.81 5.28,-0.77 7.38,5.27 10.78,17.25 5.96,22.37 -2.01,2.16 -5.42,3.14 -10.64,1.87 -5.22,4.19 -10.85,4.93 -16.4,5.98 3.62,2.03 8.79,2.57 16.18,0.94 0,0 1.78,-2.3 3.03,-2.89 0.72,-0.37 1.68,-0.67 2.45,-0.31 1.63,0.74 1.83,1.19 2.14,3 1.55,8.29 -1.49,18.87 -10.65,20.57 -4.75,0 -6.77,-3.94 -8.3,-7.98 0,0 -4.4,0.4 -6.9,-0.45 -4.88,-1.6 -8.92,-7.34 -13.95,-8.25 -1.8,-0.32 -3.77,0.25 -5.41,1.12 -1.45,0.77 -3.51,3.45 -3.51,3.45 2.64,4.82 2.3,8.2 1.3,10.71 -1.84,4.26 -8.94,6.87 -17.6,-1.74 -2.73,-2.72 -6.18,-6.59 -3.53,-9.81 2.64,-3.22 7.59,-3.21 10.36,-5 2.76,-1.77 4.52,-3.38 5.59,-5.87 0.67,-1.71 0.75,-3.8 0.1,-5.51 -0.42,-1.18 -2.67,-2.81 -2.67,-2.81 0,0 -7.15,1.27 -10.18,-0.35 -4.5,-2.41 -3.12,-7.13 -21.42,-21.21 -4.57,-3.53 -5.1,-11.18 -12.48,-15.96 -1.64,-1.04 -6.3,-2.22 -6.3,-2.22 z" />
    <path d="m 445.52,397.79 c -1.52,1.49 0,4.04 2,5.39 1.9,1.29 6.62,1.84 6.83,-0.33 0.83,-5.07 4.89,-8.45 9.1,-10.93 -6.89,-2.24 -13.5,0.37 -17.93,5.87 z" />
    <path d="m 470.86,410.59 c -2.05,0.5 -2.06,3.5 -1.04,5.68 0.95,2.12 4.68,5.04 5.98,3.25 3.29,-3.96 8.46,-4.81 13.28,-4.75 -4.69,-5.53 -11.65,-6.68 -18.22,-4.18 z" />
    <path d="m 469.16,443.46 c -1.77,-1.16 -3.92,0.92 -4.82,3.19 -0.86,2.16 -0.42,6.92 1.75,6.62 5.1,-0.33 9.23,2.85 12.49,6.41 0.76,-7.25 -3.16,-13.15 -9.42,-16.22 z" />
    <path d="m 408.62,453.8 c 0.81,-1.97 3.74,-1.53 5.77,-0.21 1.91,1.26 4.22,5.41 2.29,6.43 -4.36,2.72 -5.95,7.75 -6.6,12.59 -4.71,-5.49 -4.84,-12.6 -1.46,-18.81 z" />
    <path d="m 239.45,369.41 c -0.1,-3.14 1.12,-5.82 2.73,-8.54 1.56,-2.68 6.09,-5.6 7.5,-8.36 7.87,-15.26 -17.43,6.66 -17.11,-22.57 l -0.1,2.9 c -5.21,15.68 -18.23,24.84 -18.44,41.56 0,0 -2.61,3.43 -3.99,5.12 -4.29,5.33 -10.32,11.95 -14.13,17.66 -11.79,17.64 -16.52,17.87 -28.74,24.53 -1.65,1.02 -4.64,3.49 -4.64,3.49 -2.31,-3.16 -3.48,-5.62 -3.5,-8.08 -0.1,-1.61 0.17,-3.11 1.12,-4.58 0.65,-0.92 1.81,-1.53 2.67,-2.93 1.51,-2.47 0.78,-4.78 -1.73,-6.38 -6.1,-3.82 -11.19,-4.51 -16.48,-0.25 -1.27,1.02 -2.59,3.16 -2.56,4.83 0,1.77 0.54,3.6 1.47,5.11 1.22,2.09 5.2,5.07 5.2,5.07 -0.51,2.5 0.68,4.43 1.5,6.49 0,0 -3.01,-1.47 -4.99,-2.86 -1.52,-1.06 -3.01,-2.37 -3.81,-4.03 -1.46,-2.82 -1.31,-7.06 -3.32,-9.52 -1.06,-1.39 -3.85,-1.81 -5.28,-0.77 -7.38,5.27 -10.78,17.25 -5.96,22.37 2.01,2.16 5.42,3.14 10.64,1.87 5.22,4.19 10.85,4.93 16.4,5.98 -3.62,2.03 -8.79,2.57 -16.18,0.94 0,0 -1.78,-2.3 -3.03,-2.89 -0.72,-0.37 -1.68,-0.67 -2.45,-0.31 -1.63,0.74 -1.83,1.19 -2.14,3 -1.55,8.29 1.49,18.87 10.65,20.57 4.75,0 6.77,-3.94 8.3,-7.98 0,0 4.4,0.4 6.9,-0.45 4.88,-1.6 8.92,-7.34 13.95,-8.25 1.8,-0.32 3.77,0.25 5.41,1.12 1.45,0.77 3.51,3.45 3.51,3.45 -2.64,4.82 -2.3,8.2 -1.3,10.71 1.84,4.26 8.94,6.87 17.6,-1.74 2.73,-2.72 6.18,-6.59 3.53,-9.81 -2.64,-3.22 -7.59,-3.21 -10.36,-5 -2.76,-1.77 -4.52,-3.38 -5.59,-5.87 -0.67,-1.71 -0.75,-3.8 -0.1,-5.51 0.42,-1.18 2.67,-2.81 2.67,-2.81 0,0 7.15,1.27 10.18,-0.35 4.5,-2.41 3.12,-7.13 21.42,-21.21 4.57,-3.53 5.1,-11.18 12.48,-15.96 1.64,-1.04 6.3,-2.22 6.3,-2.22 z" />
    <path d="m 154.48,397.79 c 1.52,1.49 0,4.04 -2,5.39 -1.9,1.29 -6.62,1.84 -6.83,-0.33 -0.83,-5.07 -4.89,-8.45 -9.1,-10.93 6.89,-2.24 13.5,0.37 17.93,5.87 z" />
    <path d="m 129.14,410.59 c 2.05,0.5 2.06,3.5 1.04,5.68 -0.95,2.12 -4.68,5.04 -5.98,3.25 -3.29,-3.96 -8.46,-4.81 -13.28,-4.75 4.69,-5.53 11.65,-6.68 18.22,-4.18 z" />
    <path d="m 130.84,443.46 c 1.77,-1.16 3.92,0.92 4.82,3.19 0.86,2.16 0.42,6.92 -1.75,6.62 -5.1,-0.33 -9.23,2.85 -12.49,6.41 -0.76,-7.25 3.16,-13.15 9.42,-16.22 z" />
    <path d="m 191.38,453.8 c -0.81,-1.97 -3.74,-1.53 -5.77,-0.21 -1.91,1.26 -4.22,5.41 -2.29,6.43 4.36,2.72 5.95,7.75 6.6,12.59 4.71,-5.49 4.84,-12.6 1.46,-18.81 z" />
    <path d="m 294.75,165.92 c -1.3,0 -3,0.32 -5.31,1.48 -4.64,-0.18 -4.43,-1.57 -17.65,1.82 -3.03,1.99 -11.91,1.15 -23.07,2.65 -4.24,1.66 -6.98,4.37 -6.1,6.56 -19.57,19.27 -17.68,51.68 -7.73,65.36 -1.24,19.36 4.11,29.73 12.21,39.46 0.44,3.39 0.69,16.02 2.21,19.92 -1.53,10.14 -3.55,13.88 -1.74,19.02 1.72,4.88 1.75,2.24 5.8,2.65 2.94,-1.64 -4.29,17.62 11.09,1.01 3.09,11.09 15.26,10.81 18.37,10.58 2.76,-0.2 2.11,50.87 2.11,50.87 -2.57,33.11 -40.69,32.7 -40.69,32.7 l -8.87,-1.52 c -5.86,1.62 -4.72,6.24 -4.72,6.24 10.54,34.18 43.92,0.67 43.92,0.67 0.49,10.39 -9.73,15.69 -9.73,15.69 -15.39,6.82 -15.05,6.94 -15.05,6.94 -12.87,6.5 -9.74,23.93 -9.74,23.93 11.48,-6.46 19.98,-6.85 19.98,-6.85 -10.17,17.1 -24.57,22.73 -24.57,22.73 -24.01,-0.61 -9.8,-18.93 -9.8,-18.93 -26.49,1.99 -16.98,25.64 -16.98,25.64 -8.22,7.95 -12.48,16.92 -12.48,16.92 -9.44,13.7 -1.71,27.8 -1.71,27.8 11.47,15.57 24.97,8.41 24.97,8.41 -13.85,-3.73 -12.6,-15.8 -12.6,-15.8 3.45,-17.93 16.19,-16.74 16.19,-16.74 4.14,28.08 23.39,18.04 23.39,18.04 -19.33,-20.81 8.38,-37.61 8.38,-37.61 19.07,-14.44 28.6,-30.47 28.6,-30.47 3.23,48.9 -28.96,50.77 -28.96,50.77 9.5,14.54 36.16,1.57 36.16,1.57 1.82,9.98 -9.69,18.56 -9.69,18.56 -6.72,4.46 -10.64,11.61 -10.64,11.61 -4.93,10.05 5.39,29.78 5.39,29.78 3.26,-6.87 15.49,-27.4 15.49,-27.4 -7.12,25.64 8.58,77.31 8.82,77.31 0.24,0 15.94,-51.67 8.82,-77.31 0,0 12.23,20.53 15.49,27.4 0,0 10.32,-19.73 5.39,-29.78 0,0 -3.92,-7.15 -10.64,-11.61 0,0 -11.51,-8.58 -9.69,-18.56 0,0 26.66,12.97 36.16,-1.57 0,0 -32.19,-1.87 -28.96,-50.77 0,0 9.53,16.03 28.6,30.47 0,0 27.71,16.8 8.38,37.61 0,0 19.25,10.04 23.39,-18.04 0,0 12.74,-1.19 16.19,16.74 0,0 1.25,12.07 -12.6,15.8 0,0 13.5,7.16 24.97,-8.41 0,0 7.73,-14.1 -1.71,-27.8 0,0 -4.26,-8.97 -12.48,-16.92 0,0 9.51,-23.65 -16.98,-25.64 0,0 14.21,18.32 -9.8,18.93 0,0 -14.4,-5.63 -24.57,-22.73 0,0 8.5,0.39 19.98,6.85 0,0 3.13,-17.43 -9.74,-23.93 0,0 0.34,-0.12 -15.05,-6.94 0,0 -10.22,-5.3 -9.73,-15.69 0,0 33.38,33.51 43.92,-0.67 0,0 1.14,-4.62 -4.72,-6.24 l -8.87,1.52 c 0,0 -38.12,0.41 -40.69,-32.7 0,0 -0.65,-51.07 2.11,-50.87 3.11,0.23 15.28,0.51 18.37,-10.58 15.38,16.61 8.15,-2.65 11.09,-1.01 4.05,-0.41 4.08,2.23 5.8,-2.65 1.81,-5.14 -0.21,-8.88 -1.74,-19.02 1.52,-3.9 1.77,-16.53 2.21,-19.92 8.1,-9.73 13.45,-20.1 12.21,-39.46 9.95,-13.68 11.84,-46.09 -7.73,-65.36 0.88,-2.19 -1.86,-4.9 -6.1,-6.56 -11.16,-1.5 -20.04,-0.66 -23.07,-2.65 -13.22,-3.39 -13.01,-2 -17.65,-1.82 -7.38,-3.69 -8.49,0.71 -10.56,0.63 -1.41,0 -2.39,-2 -5.25,-2.11 z" />
    <path style="fill:#cc0000;stroke:none;" d="m 298.1,74.26 c -1.7,-2.766 -4.79,-5.019 -9.31,-6.679 -7.04,1.113 -13.75,2.727 -20.27,4.826 -5.98,1.817 -12.29,1.813 -19.02,0.02 -1.17,0.202 -1.17,0.863 0,1.798 7.92,2.618 15.33,3.984 22.08,4.138 9.47,-0.125 18.31,-1.466 26.52,-4.103 z" />
    <path d="m 380.02,210.82 c -6.97,-14.49 -2.31,-23.62 -12.24,-35.29 -8.99,-4.09 -13.02,-4.35 -19,-15.03 -0.8,-1.24 1.67,0.23 1.59,-0.47 0,0 -4.43,-4.7 -4.76,-9.52 -0.87,-12.84 1.87,-28.97 -11.67,-39.54 8.06,3.32 17.32,-3.45 19.33,-9.89 -4.18,0.7 -7.43,-1.406 -9.43,-5.724 -3.25,-7.009 -1.83,-12.492 -12.04,-17.96 7.43,-1.838 10.86,-1.344 13.77,-12.409 -3.85,2.122 -9.96,-0.709 -12.74,-2.407 -4.42,-2.714 -6.24,-9.642 -17.62,-10.919 5.27,-5.293 7.06,-12.474 4.23,-22.158 0.36,0.155 -3.54,8.261 -9.57,7.733 -1.93,-0.05 -4.95,-2.47 -9.22,-6.438 -12.58,-3.802 -39.44,-2.153 -44.89,0.408 0,0 -17.72,8.02 -17.39,15.387 16.25,15.879 23.86,22.5 35.11,20.359 12.64,-2.399 13.88,-0.06 18.95,0.04 2.89,1.582 13.42,11.433 8.01,16.132 -1.63,1.426 -6.14,1.787 -11.59,1.848 -5.26,0.05 -11.15,3.037 -12.15,2.973 -3.9,-0.252 -3.21,1.272 -8.64,0.882 -2.85,-0.206 3.75,2.742 0.4,3.585 3.72,1.553 17.01,-3.587 15.94,-2.743 -5.63,2.648 -11.87,6.33 -15.45,10.461 -1.22,4.39 -4.3,9.55 -11.02,12.08 4.4,6.91 8.49,6.74 17.49,6.21 -6.35,2.58 -9.83,2.91 -13.49,13.93 -3.5,3.62 -7.18,7.43 -11.91,8.19 -1.68,1.55 1.91,5.53 13.61,5.22 -1.55,1.39 -3.09,1.46 -6.98,3.38 -3.64,0.6 -6.17,2.7 -8.76,4.67 -2.69,2.32 -8.66,3.68 -14.07,5.12 1.7,3.78 5.75,6.36 9.87,6.55 -14.51,3.19 -27.02,44.53 -20.27,42.89 0,0 0.1,1.32 4.41,-0.87 0,0 -8.26,23.74 5.33,46.96 6.11,2.97 23.69,-16.61 27.34,0.77 l 14.34,7.06" />
    <path d="m 240,41.552 c -1.55,-0.108 -2.13,0.68 -2.14,2.984 -1.99,1.196 -3.41,4.426 -4.19,6.62 -1.68,8.885 0.2,14.487 5.68,16.703 -0.28,-2.045 -0.22,-3.686 0.11,-4.977 0.56,-1.788 1.64,-2.997 3.35,-3.558 3.11,-1.643 6.97,-0.529 11.71,2.837 4.92,3.49 8.97,4.841 13.1,5.761 1.16,0.26 2.47,-0.175 3.7,-0.6 5.7,-1.212 11.4,-1.18 17.12,0.06 0.13,0.05 0.21,0.09 0.42,0.182 4.49,1.659 7.59,3.907 9.28,6.677 0.16,0.113 0.24,0.257 0.31,0.412 2.41,3.735 1.53,6.822 -2.51,9.483 -4.86,-1.106 -9.89,-1.264 -15.27,-0.503 -2.9,0.113 -5.81,0.509 -8.73,1.379 -1.64,0.433 -3.29,0.963 -4.87,1.647 -1.61,0.138 -3.24,0.09 -5.32,-0.193 -2.07,-0.28 -5.2,-1.463 -7.69,-3.128 -1.48,4.622 0.1,7.555 4.62,8.899 3.1,0.451 6.22,0.616 9.22,0.55 v 0 c 1.52,0 2.89,-0.105 4.38,-0.179 3.54,-0.427 6.97,-1.083 10.36,-1.998 5.03,-0.305 8.49,1.207 10.44,4.5 5.51,-4.047 5.4,-4.818 10.36,-6.734 3.14,-25.273 -9.17,-31.346 -35.72,-24.864 -7.26,1.773 -11.82,-6.661 -11.68,-14.237 1.16,-2.915 -2.02,-3.93 -7.91,-5.288 -3.96,-1.287 -6.52,-2.315 -8.09,-2.425 z" />
    <path style="fill:#4b0082;" d="m 246.27,46.7 c -0.19,-0.217 3.37,-0.601 5.19,1.205 0.8,0.797 1.42,2.074 0.65,2.926 -0.62,0.685 -1.5,0.731 -2.25,0.176 -0.78,-0.582 -0.41,-1.872 -0.91,-2.657 -0.54,-0.836 -2.68,-1.65 -2.68,-1.65 z" />
    <path style="fill:#ffffff;" d="m 268.41,50.012 c 0.74,2.721 5.49,6.286 9.87,5.247 4.39,-1.041 6.75,-6.311 6.02,-9.034 -0.73,-2.722 -4.19,-1.24 -8.57,-0.201 -4.39,1.041 -8.05,1.265 -7.32,3.988 z" />
    <path style="fill:#4b0082;stroke:none;" d="m 266.96,46.738 c -1.65,-0.648 -1.59,-1.35 -1.59,-1.35 l -0.1,-1.231 1.15,0.479 v 0 0 c 0,0 -0.21,0.288 6.74,0.179 3.02,-0.03 8.75,-1.54 12.23,-1.888 1.72,-0.156 3.51,-0.02 4.86,1.083 1.36,1.099 2.1,2.975 2.23,5.749 -1.32,-0.353 -1.43,-2.7 -3.45,-4.366 -0.72,-0.665 -1.89,-0.791 -3.36,-0.659 -3.02,0.317 -7.02,1.98 -10.7,2.043 -6.61,0.119 -6.39,0.635 -8.01,-0.04 z" />
    <path style="fill:#4b0082;stroke:none;" d="m 272.94,49.055 a 3.919,4.0958 17.569 0 0 2.47,5.111 3.919,4.0958 17.569 0 0 5,-2.679 3.919,4.0958 17.569 0 0 -2.47,-5.111 3.919,4.0958 17.569 0 0 -5,2.679 z" />
    <path style="fill:#000000;stroke:none;" d="m 277.4,48.375 c 1,0.326 1.7,1.403 1.33,2.514 -0.36,1.128 -1.55,1.571 -2.55,1.244 -1.02,-0.332 -1.68,-1.344 -1.3,-2.502 0.36,-1.144 1.5,-1.589 2.52,-1.256 z" />
    <path style="fill:#ffffff;stroke:none;" d="m 276.24,47.658 c 0.69,0.224 1.16,0.983 0.91,1.777 -0.27,0.803 -1.09,1.128 -1.78,0.904 -0.69,-0.228 -1.15,-0.941 -0.88,-1.768 0.27,-0.815 1.05,-1.141 1.75,-0.913 z" />
    <path d="m 383,280.83 c 2.62,10.2 3.92,17.05 5.44,18.59 4.83,4.96 -4.1,-16.32 -4.35,-19.7 0,-2.44 -3.05,-28.54 -2.84,-35.86 0.23,-7.32 2.4,-14.63 2.4,-14.63 0,0 1.97,33.67 5.01,40.54 3.06,6.86 1.09,14.59 6.1,21.46 5.02,6.87 13.73,18.82 19.84,19.72 6.08,0.87 9.78,0.87 9.78,0.87 0,0 -6.09,-2.21 -6.97,-5.31 -0.86,-3.1 -1.08,-6.42 -1.08,-6.42 l 3.92,1.99 c 0,0 -3.92,-3.32 -5.22,-7.51 -1.32,-4.22 -3.28,-11.54 -3.28,-22.17 0,-10.6 -2.39,-16.58 -2.39,-16.58 l 2.18,1.76 c 0,0 -3.05,-18.82 -3.27,-27.01 -0.23,-8.19 1.52,-9.74 1.52,-9.74 0,0 10.46,68.64 14.81,83.92 4.36,15.27 9.81,23.01 9.81,23.01 0,0 -9.59,-27.01 -12.85,-46.26 -3.27,-19.27 -6.53,-44.07 -6.75,-49.38 -0.23,-5.33 1.74,-8.19 1.74,-8.19 0,0 6.53,30.99 7.62,40.97 1.09,9.95 1.09,9.95 1.09,9.95 0,0 -0.44,1.55 3.05,-3.98 3.48,-5.52 6.31,-5.52 6.31,-5.52 0,0 -6.75,10.17 -5.66,17.48 1.1,7.29 4.14,18.37 6.33,24.58 2.17,6.17 10.66,36.07 16.98,42.71 6.32,6.64 15.46,14.4 15.46,14.4 l 0.88,-7.76 c 0,0 0.86,-2.42 2.39,1.78 1.53,4.2 6.75,12.38 10.68,15.51 3.92,3.09 13.5,7.08 19.61,5.07 6.09,-1.98 16.55,-14.18 16.55,-14.18 0,0 -5.89,9.33 -16.99,-5.29 -11.11,-14.61 -26.59,-46.72 -29.19,-53.34 -2.62,-6.67 -3.7,-9.33 -3.7,-9.33 h 3.26 c 0,0 -23.96,-61.77 -23.96,-66.84 0,-5.1 0.43,-6.43 0.43,-6.43 0,0 19.83,52.24 31.16,73.27 11.32,21.06 25.26,37.64 29.84,42.74 4.58,5.09 17.2,14.82 18.74,14.82 1.52,0 1.52,0 1.52,0 0,0 -10.46,-7.07 -13.51,-10.62 -3.05,-3.54 -2.39,-6.64 -2.61,-7.51 -0.22,-0.89 -19.61,-18.83 -22.66,-25.03 -3.04,-6.18 -15.68,-30.33 -21.13,-43.18 -5.44,-12.83 -18.95,-50.02 -18.95,-50.02 0,0 2.84,2.87 6.32,7.74 3.49,4.87 7.84,25.68 11.11,31 3.27,5.31 11.55,14.18 11.55,14.18 0,0 -0.23,-7.32 0.87,-11.08 1.08,-3.78 1.95,-4.65 1.95,-4.65 0,0 -0.22,22.36 3.27,27 3.49,4.66 5.24,6.87 7.19,9.97 1.97,3.11 4.35,8.41 5.88,9.97 1.53,1.55 6.1,7.3 6.1,7.3 0,0 -1.09,-3.99 -0.66,-6.42 0.44,-2.44 1.96,-5.31 1.96,-5.31 0,0 -3.25,6.87 4.37,13.72 7.62,6.87 15.68,9.3 20.47,9.53 4.8,0.22 13.3,-2.22 16.34,-9.08 3.04,-6.85 0.44,-9.29 0.44,-9.29 0,0 -3.05,7.74 -11.11,1.1 -8.06,-6.66 -37.48,-54.02 -46.84,-74.63 -9.36,-20.58 -20.26,-46.04 -20.48,-48.7 -0.22,-2.65 -0.22,-2.65 -0.22,-2.65 0,0 3.05,3.98 17.86,29.67 14.82,25.68 32.03,51.59 48.14,61.77 16.11,10.18 16.78,7.54 16.78,7.54 0,0 -10.46,-5.76 -11.55,-6.87 -1.08,-1.12 0.22,-5.33 -3.05,-6.66 -3.26,-1.33 -10.68,-1.75 -18.29,-13.06 -7.63,-11.29 -7.63,-11.29 -7.63,-11.29 0,0 -23.96,-34.75 -30.07,-49.37 -6.08,-14.61 -9.35,-19.93 0.88,-5.98 10.24,13.95 21.78,34.11 28.53,38.52 6.76,4.44 6.76,4.44 6.76,4.44 0,0 -0.65,-2 -0.65,-4.65 0,-2.66 1.3,-4.44 1.3,-4.44 0,0 -2.83,11.08 8.72,13.95 11.53,2.89 25.72,0.67 28.94,-7.96 3.27,-8.64 -1.92,-17.05 -1.92,-17.05 0,0 -3.72,9.52 -14.17,3.32 -10.46,-6.2 -31.59,-28.57 -34.41,-34.32 -2.85,-5.76 -22.01,-32.99 -24.62,-35.65 -2.62,-2.65 -3.49,-5.09 -3.49,-5.09 0,0 23.3,23.69 27.66,29 4.36,5.32 25.26,17.71 34.21,22.59 8.93,4.87 15.9,0.44 15.9,0.44 0,0 -6.54,-0.22 -10.89,-1.11 -4.36,-0.88 -8.94,-4.43 -8.94,-4.43 0,0 4.37,0.23 2.4,-1.55 -1.95,-1.76 -9.58,-1.31 -14.6,-4.42 -5.01,-3.1 -22.65,-18.37 -27.23,-23.9 -4.56,-5.55 -14.81,-15.06 -15.24,-17.51 -0.44,-2.42 -0.44,-2.64 -0.44,-2.64 0,0 22,19.7 30.93,25.68 8.93,5.98 11.55,6.85 16.56,7.3 5.01,0.45 7.62,-0.23 7.62,-0.23 0,0 -8.06,-3.98 -8.27,-6.19 -0.24,-2.22 -0.24,-2.44 -0.24,-2.44 0,0 8.28,8.85 13.95,9.07 5.66,0.24 15,-5.31 16.75,-11.72 1.75,-6.43 0.69,-7.98 0.69,-7.98 0,0 -3.72,3.76 -5.88,3.76 -2.2,0 -2.41,0 -2.41,0 0,0 4.33,-2.43 4.16,-5.75 -0.23,-3.32 -0.9,-4.21 -0.9,-4.21 0,0 -1.52,8.64 -7.18,6.65 -5.67,-1.99 -5.67,-2.88 -10.23,-2.88 -4.58,0 -17.87,-9.53 -24.84,-14.62 -6.98,-5.09 -21.78,-17.26 -27.67,-21.47 -5.88,-4.2 -11.1,-7.75 -11.1,-7.75 0,0 18.08,11.29 33.97,18.82 15.91,7.52 25.27,9.52 32.46,7.97 7.19,-1.55 9.37,-5.32 9.37,-5.32 0,0 -6.11,3.55 -12.42,3.33 -6.31,-0.24 -6.31,-0.24 -6.31,-0.24 0,0 3.7,-1.54 2.61,-2.87 -1.09,-1.33 -2.61,4.64 -18.73,-2.43 -16.13,-7.08 -40.08,-21.92 -40.08,-21.92 0,0 19.82,9.29 27.87,10.63 8.07,1.33 15.04,0.65 15.04,0.65 l -4.58,-2.87 c 0,0 5.23,4.87 12.86,0.45 7.62,-4.43 12.63,-9.97 10.88,-15.95 -1.74,-5.97 -5.65,-9.075 -5.65,-9.075 0,0 -4.58,12.845 -16.56,10.185 -11.99,-2.66 -26.14,-8.19 -29.84,-10.405 -3.7,-2.216 -5.88,-3.541 -5.88,-3.541 0,0 22.44,4.206 29.62,1.99 7.19,-2.216 12.84,-4.647 16.12,-9.518 3.26,-4.873 3.26,-6.644 3.26,-6.644 0,0 -4.13,7.969 -7.18,8.414 -3.05,0.446 -6.1,2.656 -9.58,4.207 -3.49,1.551 -16.56,1.325 -21.13,0.664 -4.58,-0.664 -16.33,-1.329 -16.33,-1.329 0,0 11.75,-3.987 17.63,-6.198 5.88,-2.216 8.06,-9.08 6.1,-11.956 -1.96,-2.875 -6.1,-11.955 -6.1,-11.955 0,0 -5.44,7.968 -7.63,12.841 -2.17,4.873 -10.23,2.216 -16.33,3.767 -6.1,1.545 -6.1,1.545 -6.1,1.545 0.19,-1.1 0.48,-3.948 -0.44,-3.322 -3.7,2.216 -6.09,2.216 -8.49,2.216 -2.4,0 -2.4,0 -2.4,0 0,0 2.83,-0.439 3.92,-3.321 1.1,-2.876 -1.52,-4.207 -1.52,-4.207 0,0 0.22,4.873 -4.58,6.644 -4.78,1.77 -7.4,1.325 -9.8,4.646 -2.4,3.321 -5,3.547 -5,3.547 0,0 2.17,-4.212 0,-6.642 -2.18,-2.437 -5.67,-0.447 -5.67,-0.447 0,0 4.36,2.217 2.83,6.198 -1,2.583 -9.21,7.693 -16.52,12.04 -3.8,2.266 -6.02,11.646 -1.71,13.856 -3.54,3.34 -5.52,17.06 -2.46,19.93 3.05,2.89 11.33,3.99 13.28,0.67 1.97,-3.32 4.14,-6.86 7.63,-4.87 3.48,2 6.1,6.65 8.72,9.52 2.6,2.88 3.25,9.3 0.44,10.85 -2.84,1.55 -6.98,3.54 -9.38,0.66 -2.39,-2.87 -6.09,-1.77 -7.19,1.56 -1.09,3.31 -3.27,7.75 -7.84,8.84 -4.57,1.13 -3.27,8.87 -0.44,11.53 2.84,2.64 5.67,3.32 4.79,6.63 -0.86,3.33 -5.21,7.6 -10.65,6.71 -5.44,-0.88 -10.91,-6.49 -16.58,-6.49 -5.65,0 -9.57,-0.22 -13.05,3.55 -3.5,3.75 -6.55,5.53 -14.41,4.88 -7.82,-0.68 -10.45,-2.67 -12.4,-4.44 -15.96,-20.77 -47.82,83.7 33.11,118.46 z" />
    <path d="m 334.2,309.62 c 4.49,1.64 7.81,-0.95 10.28,-2.82 4.07,-3.78 10.49,0.98 8.52,4.31 -1.53,2.63 3.07,4.42 4.99,5.21 4.73,0.24 8.55,7.5 9.27,11.85 1.38,8.37 7.15,14.79 10.61,17.02 -0.92,1.2 -2.55,1.53 -4.05,2.02 14.25,7.03 9.96,14.61 22.92,12.3 -2.5,5.92 -6.44,14.27 -18.94,10.26 2.37,5.18 3.81,9.4 0.67,19.72 -7.22,-3.01 -12.33,-6.4 -14.47,-12.99 -4.59,8.19 -7.1,7.61 -9.92,10.3 -3.26,-6.83 -7.65,-12.84 -5.83,-23.7 -1.48,1.04 -2.69,0.16 -4.77,0.45 -1.7,-1.39 -5.83,-7.87 -4.55,-15.61 -2.14,7.66 -4.31,6.78 -4.31,6.78 -10.88,-4.71 -18.29,-14.67 -16.47,-26.13 3.55,1.91 4.49,-0.6 3.4,-2.09" />
    <path d="m 265.8,309.62 c -4.49,1.64 -7.81,-0.95 -10.28,-2.82 -4.07,-3.78 -10.49,0.98 -8.52,4.31 1.53,2.63 -3.07,4.42 -4.99,5.21 -4.73,0.24 -8.55,7.5 -9.27,11.85 -1.38,8.37 -7.15,14.79 -10.61,17.02 0.92,1.2 2.55,1.53 4.05,2.02 -14.25,7.03 -9.96,14.61 -22.92,12.3 2.5,5.92 6.44,14.27 18.94,10.26 -2.37,5.18 -3.81,9.4 -0.67,19.72 7.22,-3.01 12.33,-6.4 14.47,-12.99 4.59,8.19 7.1,7.61 9.92,10.3 3.26,-6.83 7.65,-12.84 5.83,-23.7 1.48,1.04 2.69,0.16 4.77,0.45 1.7,-1.39 5.83,-7.87 4.55,-15.61 2.14,7.66 4.31,6.78 4.31,6.78 10.88,-4.71 18.29,-14.67 16.47,-26.13 -3.55,1.91 -4.49,-0.6 -3.4,-2.09" />
</g>
<use id="shine" xlink:href="#shield" style="fill:url(#rg);stroke:#000000;stroke-width:3;"/>
</svg>
