<?xml version="1.0" encoding="UTF-8" standalone="no"?>
<svg
   xmlns:dc="http://purl.org/dc/elements/1.1/"
   xmlns:cc="http://creativecommons.org/ns#"
   xmlns:rdf="http://www.w3.org/1999/02/22-rdf-syntax-ns#"
   xmlns:svg="http://www.w3.org/2000/svg"
   xmlns="http://www.w3.org/2000/svg"
   xmlns:xlink="http://www.w3.org/1999/xlink"
   xmlns:sodipodi="http://sodipodi.sourceforge.net/DTD/sodipodi-0.dtd"
   xmlns:inkscape="http://www.inkscape.org/namespaces/inkscape"
   width="600"
   height="660"
   id="svg2"
   version="1.1"
   inkscape:version="0.48.2 r9819"
   sodipodi:docname="House_Chelsted.svg">
  <metadata
     id="metadata24">
    <rdf:RDF>
      <cc:Work
         rdf:about="">
        <dc:format>image/svg+xml</dc:format>
        <dc:type
           rdf:resource="http://purl.org/dc/dcmitype/StillImage" />
        <dc:title></dc:title>
      </cc:Work>
    </rdf:RDF>
  </metadata>
  <sodipodi:namedview
     pagecolor="#ffffff"
     bordercolor="#666666"
     borderopacity="1"
     objecttolerance="10"
     gridtolerance="10"
     guidetolerance="10"
     inkscape:pageopacity="0"
     inkscape:pageshadow="2"
     inkscape:window-width="1366"
     inkscape:window-height="715"
     id="namedview22"
     showgrid="false"
     inkscape:zoom="0.50568848"
     inkscape:cx="342.9158"
     inkscape:cy="296.74414"
     inkscape:window-x="-8"
     inkscape:window-y="-8"
     inkscape:window-maximized="1"
     inkscape:current-layer="layer2" />
  <defs
     id="defs4">
    <inkscape:path-effect
       effect="spiro"
       id="path-effect7615"
       is_visible="true" />
    <inkscape:path-effect
       effect="spiro"
       id="path-effect3576"
       is_visible="true" />
    <inkscape:path-effect
       is_visible="true"
       id="path-effect3572"
       effect="spiro" />
    <inkscape:path-effect
       effect="spiro"
       id="path-effect3568"
       is_visible="true" />
    <inkscape:path-effect
       is_visible="true"
       id="path-effect3136"
       effect="spiro" />
    <inkscape:path-effect
       effect="spiro"
       id="path-effect3132"
       is_visible="true" />
    <inkscape:path-effect
       effect="spiro"
       id="path-effect3101"
       is_visible="true" />
    <inkscape:path-effect
       is_visible="true"
       id="path-effect3085"
       effect="spiro" />
    <inkscape:path-effect
       is_visible="true"
       id="path-effect3083"
       effect="spiro" />
    <inkscape:path-effect
       is_visible="true"
       id="path-effect3081"
       effect="spiro" />
    <inkscape:path-effect
       is_visible="true"
       id="path-effect3079"
       effect="spiro" />
    <inkscape:path-effect
       is_visible="true"
       id="path-effect3077"
       effect="spiro" />
    <inkscape:path-effect
       is_visible="true"
       id="path-effect3075"
       effect="spiro" />
    <inkscape:path-effect
       effect="spiro"
       id="path-effect3049"
       is_visible="true" />
    <inkscape:path-effect
       is_visible="true"
       id="path-effect3045"
       effect="spiro" />
    <inkscape:path-effect
       effect="spiro"
       id="path-effect3041"
       is_visible="true" />
    <radialGradient
       id="rg"
       gradientUnits="userSpaceOnUse"
       cx="220"
       cy="220"
       r="405">
      <stop
         style="stop-color:#fff;stop-opacity:.3"
         offset="0"
         id="stop7" />
      <stop
         style="stop-color:#fff;stop-opacity:.2"
         offset=".2"
         id="stop9" />
      <stop
         style="stop-color:#666;stop-opacity:.1"
         offset=".6"
         id="stop11" />
      <stop
         style="stop-color:#000;stop-opacity:.13"
         offset="1"
         id="stop13" />
    </radialGradient>
    <path
       id="shield"
       d="m2,2v257c0,286 298,398 298,398c0,0 298-112 298-398V2z" />
    <radialGradient
       inkscape:collect="always"
       xlink:href="#rg-7"
       id="radialGradient3055-1"
       gradientUnits="userSpaceOnUse"
       cx="220"
       cy="220"
       r="405" />
    <radialGradient
       id="rg-7"
       gradientUnits="userSpaceOnUse"
       cx="220"
       cy="220"
       r="405">
      <stop
         style="stop-color:#fff;stop-opacity:.3"
         offset="0"
         id="stop7-4" />
      <stop
         style="stop-color:#fff;stop-opacity:.2"
         offset=".2"
         id="stop9-0" />
      <stop
         style="stop-color:#666;stop-opacity:.1"
         offset=".6"
         id="stop11-9" />
      <stop
         style="stop-color:#000;stop-opacity:.13"
         offset="1"
         id="stop13-4" />
    </radialGradient>
    <radialGradient
       r="405"
       cy="220"
       cx="220"
       gradientUnits="userSpaceOnUse"
       id="radialGradient3074"
       xlink:href="#rg-7"
       inkscape:collect="always" />
    <inkscape:path-effect
       is_visible="true"
       id="path-effect10120-1"
       effect="spiro" />
    <inkscape:path-effect
       effect="spiro"
       id="path-effect10118-3"
       is_visible="true" />
    <inkscape:path-effect
       effect="spiro"
       id="path-effect10116-9"
       is_visible="true" />
    <inkscape:path-effect
       effect="spiro"
       id="path-effect10114-7"
       is_visible="true" />
    <inkscape:path-effect
       effect="spiro"
       id="path-effect10112-7"
       is_visible="true" />
    <inkscape:path-effect
       effect="spiro"
       id="path-effect10110-2"
       is_visible="true" />
    <linearGradient
       inkscape:collect="always"
       xlink:href="#linearGradient4719-5"
       id="linearGradient4039"
       gradientUnits="userSpaceOnUse"
       gradientTransform="matrix(2.3257341,0,0,2.2943177,447.69485,-1820.2799)"
       x1="-145.25935"
       y1="984.24286"
       x2="-64.14286"
       y2="984.14789" />
    <linearGradient
       inkscape:collect="always"
       id="linearGradient4719-5">
      <stop
         style="stop-color:#666666;stop-opacity:1;"
         offset="0"
         id="stop4721-5" />
      <stop
         id="stop4809-1"
         offset="0.39344174"
         style="stop-color:#666666;stop-opacity:0.74901961;" />
      <stop
         style="stop-color:#666666;stop-opacity:0;"
         offset="1"
         id="stop4723-7" />
    </linearGradient>
    <radialGradient
       inkscape:collect="always"
       xlink:href="#linearGradient4801-8"
       id="radialGradient4041"
       gradientUnits="userSpaceOnUse"
       gradientTransform="matrix(-0.72153181,1.2650715,-2.2729984,-1.2616144,1712.0113,1733.7841)"
       cx="-307.14288"
       cy="782.36218"
       fx="-307.14288"
       fy="782.36218"
       r="63" />
    <linearGradient
       inkscape:collect="always"
       id="linearGradient4801-8">
      <stop
         style="stop-color:#000000;stop-opacity:1;"
         offset="0"
         id="stop4803-2" />
      <stop
         style="stop-color:#000000;stop-opacity:0;"
         offset="1"
         id="stop4805-4" />
    </linearGradient>
    <inkscape:path-effect
       effect="spiro"
       id="path-effect10108-4"
       is_visible="true" />
    <linearGradient
       inkscape:collect="always"
       xlink:href="#linearGradient4719-5"
       id="linearGradient4044"
       gradientUnits="userSpaceOnUse"
       gradientTransform="matrix(-2.4055369,0,0,-1.6485021,142.06168,1726.5307)"
       x1="-145.25935"
       y1="984.24286"
       x2="-64.14286"
       y2="984.14789" />
    <radialGradient
       inkscape:collect="always"
       xlink:href="#linearGradient4801-8"
       id="radialGradient4046"
       gradientUnits="userSpaceOnUse"
       gradientTransform="matrix(0.74628962,-0.90897301,2.3509914,0.90648896,-1165.637,-827.11785)"
       cx="-307.14288"
       cy="782.36218"
       fx="-307.14288"
       fy="782.36218"
       r="63" />
    <inkscape:path-effect
       effect="spiro"
       id="path-effect10102-7"
       is_visible="true" />
    <linearGradient
       inkscape:collect="always"
       xlink:href="#linearGradient4719-5"
       id="linearGradient4049"
       gradientUnits="userSpaceOnUse"
       gradientTransform="matrix(2.334989,0,0,-1.6146975,449.44065,1692.189)"
       x1="-145.25935"
       y1="984.24286"
       x2="-64.14286"
       y2="984.14789" />
    <radialGradient
       inkscape:collect="always"
       xlink:href="#linearGradient4801-8"
       id="radialGradient4051"
       gradientUnits="userSpaceOnUse"
       gradientTransform="matrix(-0.72440295,-0.89033332,-2.2820431,0.88790031,1718.7881,-809.09364)"
       cx="-307.14288"
       cy="782.36218"
       fx="-307.14288"
       fy="782.36218"
       r="63" />
    <inkscape:path-effect
       is_visible="true"
       id="path-effect10096-8"
       effect="spiro" />
    <linearGradient
       inkscape:collect="always"
       xlink:href="#linearGradient4719-5"
       id="linearGradient4054"
       gradientUnits="userSpaceOnUse"
       gradientTransform="matrix(-2.409599,0,0,2.2818507,139.61083,-1810.8163)"
       x1="-145.25935"
       y1="984.24286"
       x2="-64.14286"
       y2="984.14789" />
    <radialGradient
       inkscape:collect="always"
       xlink:href="#linearGradient4801-8"
       id="radialGradient4056"
       gradientUnits="userSpaceOnUse"
       gradientTransform="matrix(0.74754985,1.2581972,2.3549614,-1.2547588,-1170.296,1723.935)"
       cx="-307.14288"
       cy="782.36218"
       fx="-307.14288"
       fy="782.36218"
       r="63" />
    <inkscape:path-effect
       is_visible="true"
       id="path-effect10090-3"
       effect="spiro" />
    <inkscape:path-effect
       effect="spiro"
       id="path-effect10084-1"
       is_visible="true" />
    <inkscape:path-effect
       effect="spiro"
       id="path-effect10082-1"
       is_visible="true" />
    <radialGradient
       inkscape:collect="always"
       xlink:href="#linearGradient4801-8"
       id="radialGradient4061"
       gradientUnits="userSpaceOnUse"
       gradientTransform="matrix(-0.76516322,1.2901254,-2.4104477,-1.2865998,1806.8444,1757.4704)"
       cx="-307.14288"
       cy="782.36218"
       fx="-307.14288"
       fy="782.36218"
       r="63" />
    <inkscape:path-effect
       effect="spiro"
       id="path-effect10080-4"
       is_visible="true" />
    <inkscape:path-effect
       is_visible="true"
       id="path-effect3075-1"
       effect="spiro" />
    <inkscape:path-effect
       effect="spiro"
       id="path-effect3101-7"
       is_visible="true" />
    <linearGradient
       inkscape:collect="always"
       xlink:href="#grad1-7-7"
       id="linearGradient3085-8-8"
       gradientUnits="userSpaceOnUse"
       gradientTransform="matrix(0.77469594,0,0,0.30982404,152.68996,-13.619206)"
       x1="78.877235"
       y1="178.07356"
       x2="301.40585"
       y2="178.07356" />
    <linearGradient
       id="grad1-7-7"
       x1="78.877235"
       y1="178.07356"
       x2="301.40585"
       y2="178.07356"
       gradientTransform="scale(1.577772,0.63380513)"
       gradientUnits="userSpaceOnUse">
      <stop
         offset="0%"
         style="stop-color:#da0;"
         id="stop16-4-4" />
      <stop
         offset="40%"
         style="stop-color:#fd0;"
         id="stop18-0-0" />
      <stop
         offset="60%"
         style="stop-color:#fd0;"
         id="stop20-9-9" />
      <stop
         offset="100%"
         style="stop-color:#da0;"
         id="stop22-4-4" />
    </linearGradient>
    <linearGradient
       inkscape:collect="always"
       xlink:href="#grad1-7-7"
       id="linearGradient3081-8-8"
       gradientUnits="userSpaceOnUse"
       gradientTransform="matrix(0.77469594,0,0,0.30982404,-27.310046,-13.619206)"
       x1="78.877235"
       y1="178.07356"
       x2="301.40585"
       y2="178.07356" />
    <linearGradient
       id="linearGradient3093"
       x1="78.877235"
       y1="178.07356"
       x2="301.40585"
       y2="178.07356"
       gradientTransform="scale(1.577772,0.63380513)"
       gradientUnits="userSpaceOnUse">
      <stop
         offset="0%"
         style="stop-color:#da0;"
         id="stop3095" />
      <stop
         offset="40%"
         style="stop-color:#fd0;"
         id="stop3097" />
      <stop
         offset="60%"
         style="stop-color:#fd0;"
         id="stop3099" />
      <stop
         offset="100%"
         style="stop-color:#da0;"
         id="stop3101" />
    </linearGradient>
    <linearGradient
       y2="178.07356"
       x2="301.40585"
       y1="178.07356"
       x1="78.877235"
       gradientTransform="matrix(0.77469594,0,0,0.30982404,332.68995,-13.619206)"
       gradientUnits="userSpaceOnUse"
       id="linearGradient3128-1"
       xlink:href="#grad1-7-7"
       inkscape:collect="always" />
    <linearGradient
       id="linearGradient3104"
       x1="78.877235"
       y1="178.07356"
       x2="301.40585"
       y2="178.07356"
       gradientTransform="scale(1.577772,0.63380513)"
       gradientUnits="userSpaceOnUse">
      <stop
         offset="0%"
         style="stop-color:#da0;"
         id="stop3106" />
      <stop
         offset="40%"
         style="stop-color:#fd0;"
         id="stop3108" />
      <stop
         offset="60%"
         style="stop-color:#fd0;"
         id="stop3110" />
      <stop
         offset="100%"
         style="stop-color:#da0;"
         id="stop3112" />
    </linearGradient>
    <inkscape:path-effect
       is_visible="true"
       id="path-effect3061"
       effect="spiro" />
    <clipPath
       clipPathUnits="userSpaceOnUse"
       id="clipPath10110">
      <path
         style="fill:#ffff00;fill-opacity:1;stroke:none"
         id="path10112"
         d="M 598,2 V 259 C 598,545 300,657 300,657 300,657 2,545 2,259 V 2 z"
         inkscape:connector-curvature="0" />
    </clipPath>
    <clipPath
       clipPathUnits="userSpaceOnUse"
       id="clipPath4574">
      <path
         style="fill:#000000;fill-opacity:1;stroke:none;display:inline"
         id="path4576"
         d="M 598,2 V 259 C 598,545 300,657 300,657 300,657 2,545 2,259 V 2 z"
         inkscape:connector-curvature="0" />
    </clipPath>
  </defs>
  <g
     inkscape:groupmode="layer"
     id="layer2"
     inkscape:label="Elements"
     style="display:inline">
    <use
       height="1052.3622"
       width="744.09448"
       y="0"
       x="0"
       xlink:href="#shield"
       id="use22"
       style="fill:#ffffff;fill-opacity:1"
       transform="translate(0.4999998,0)" />
    <path
       inkscape:connector-curvature="0"
       style="fill:#008800;fill-opacity:1"
       d="M 2.4999998,2 507.375,506.875 c 1.11561,-1.34095 2.20745,-2.7019 3.3125,-4.0625 1.07198,-1.31988 2.15728,-2.66157 3.21875,-4 0.96431,-1.21592 1.91982,-2.42498 2.875,-3.65625 0.0955,-0.12316 0.1858,-0.25169 0.28125,-0.375 0.12196,-0.15757 0.25319,-0.31093 0.375,-0.46875 1.32444,-1.71606 2.63186,-3.44164 3.9375,-5.1875 1.33352,-1.78314 2.65605,-3.5919 3.96875,-5.40625 0.18306,-0.25298 0.37986,-0.49641 0.5625,-0.75 0.15654,-0.21738 0.31252,-0.43843 0.46875,-0.65625 1.01372,-1.41322 1.99963,-2.84918 3,-4.28125 0.761,-1.08941 1.52827,-2.18091 2.28125,-3.28125 0.23623,-0.34525 0.48333,-0.68492 0.71875,-1.03125 0.77553,-1.14074 1.54589,-2.28505 2.3125,-3.4375 0.2072,-0.31153 0.41847,-0.62511 0.625,-0.9375 1.22357,-1.85048 2.42542,-3.71311 3.625,-5.59375 0.70646,-1.10763 1.39592,-2.22562 2.09375,-3.34375 0.94125,-1.50804 1.88745,-3.03532 2.8125,-4.5625 0.5667,-0.93557 1.12705,-1.86973 1.6875,-2.8125 0.35347,-0.59471 0.71156,-1.18367 1.0625,-1.78125 0.17658,-0.30063 0.35532,-0.60489 0.53125,-0.90625 0.72818,-1.24758 1.43933,-2.52119 2.15625,-3.78125 0.59182,-1.03999 1.19729,-2.07649 1.78125,-3.125 0.29368,-0.52741 0.58334,-1.06418 0.875,-1.59375 0.99139,-1.79981 1.96998,-3.6127 2.9375,-5.4375 0.73738,-1.39097 1.46442,-2.78197 2.1875,-4.1875 0.50175,-0.97511 1.00528,-1.95537 1.5,-2.9375 0.32713,-0.64965 0.64474,-1.31602 0.96875,-1.96875 0.81592,-1.64327 1.64175,-3.30592 2.4375,-4.96875 0.53186,-1.11139 1.03987,-2.2236 1.5625,-3.34375 0.25812,-0.55337 0.52541,-1.10074 0.78125,-1.65625 0.41945,-0.91058 0.83676,-1.83366 1.25,-2.75 0.34919,-0.77455 0.68655,-1.56508 1.03125,-2.34375 0.76304,-1.72323 1.54065,-3.44404 2.28125,-5.1875 0.72019,-1.69587 1.42658,-3.40994 2.125,-5.125 0.34302,-0.8422 0.69358,-1.68441 1.03125,-2.53125 0.35918,-0.90098 0.70945,-1.81251 1.0625,-2.71875 0.65411,-1.6788 1.3048,-3.36562 1.9375,-5.0625 0.0309,-0.0829 0.0629,-0.16709 0.0937,-0.25 0.94517,-2.54053 1.85421,-5.10633 2.75,-7.6875 0.35979,-1.03679 0.71086,-2.08164 1.0625,-3.125 0.54786,-1.62557 1.09726,-3.26468 1.625,-4.90625 0.0631,-0.19643 0.12466,-0.39709 0.1875,-0.59375 0.61152,-1.91329 1.19766,-3.84621 1.78125,-5.78125 0.47033,-1.55951 0.92318,-3.11382 1.375,-4.6875 0.0666,-0.23205 0.15254,-0.45515 0.21875,-0.6875 0.0531,-0.18626 0.10343,-0.37604 0.15625,-0.5625 0.47987,-1.69427 0.94824,-3.41434 1.40625,-5.125 0.50928,-1.9021 1.01829,-3.82758 1.5,-5.75 0.14604,-0.58283 0.29403,-1.1653 0.4375,-1.75 0.12256,-0.49956 0.22307,-0.99907 0.34375,-1.5 0.22171,-0.92031 0.44094,-1.82507 0.65625,-2.75 0.15886,-0.68244 0.31341,-1.37754 0.46875,-2.0625 0.16993,-0.74911 0.36556,-1.49788 0.53125,-2.25 0.0981,-0.44534 0.18466,-0.89735 0.28125,-1.34375 0.21589,-0.9976 0.41663,-1.99711 0.625,-3 0.20172,-0.97099 0.39915,-1.9303 0.59375,-2.90625 0.0948,-0.47553 0.18812,-0.96079 0.28125,-1.4375 0.2955,-1.51321 0.59681,-3.03739 0.875,-4.5625 0.25981,-1.42374 0.50549,-2.84711 0.75,-4.28125 0.0989,-0.58038 0.18486,-1.16792 0.28125,-1.75 0.30268,-1.82766 0.59753,-3.6555 0.875,-5.5 0.0299,-0.1985 0.0642,-0.39506 0.0937,-0.59375 0.0553,-0.3718 0.10196,-0.75252 0.15625,-1.125 0.0409,-0.28057 0.0847,-0.56279 0.125,-0.84375 0.17551,-1.22348 0.36697,-2.45665 0.53125,-3.6875 0.0236,-0.17655 0.0392,-0.35455 0.0625,-0.53125 0.0562,-0.42554 0.10142,-0.85483 0.15625,-1.28125 0.11791,-0.9174 0.23213,-1.82853 0.34375,-2.75 0.18515,-1.52849 0.3636,-3.08527 0.53125,-4.625 0.0464,-0.42607 0.08,-0.85432 0.125,-1.28125 0.0904,-0.85697 0.19634,-1.70205 0.28125,-2.5625 0.20803,-2.108 0.38772,-4.24609 0.5625,-6.375 0.14153,-1.72394 0.28686,-3.44981 0.40625,-5.1875 0.0278,-0.40491 0.0671,-0.8131 0.0937,-1.21875 0.0461,-0.70289 0.0826,-1.41986 0.125,-2.125 0.009,-0.15652 0.022,-0.31212 0.0312,-0.46875 0.0843,-1.42942 0.14957,-2.84261 0.21875,-4.28125 0.0319,-0.66343 0.0651,-1.3346 0.0937,-2 0.0598,-1.38634 0.11068,-2.76137 0.15625,-4.15625 0.0378,-1.15813 0.0658,-2.33597 0.0937,-3.5 0.0249,-1.03788 0.0455,-2.08243 0.0625,-3.125 0.009,-0.58191 0.0242,-1.16662 0.0312,-1.75 0.0199,-1.6305 0.0316,-3.2643 0.0316,-4.90625 L 598.5,2 2.4999998,2 z"
       id="background" />
    <path
       inkscape:connector-curvature="0"
       style="stroke:#00ff00"
       d="M 2.4999998,2 300.5,2"
       id="path3021" />
    <g
       transform="matrix(3.5242666,-0.97736566,0.97736566,3.5242666,-1435.6411,-940.85219)"
       style="fill:#dddddd;stroke-width:0.82028168;stroke-miterlimit:4;stroke-dasharray:none;display:inline"
       id="g4171">
      <path
         sodipodi:nodetypes="cssscc"
         inkscape:connector-curvature="0"
         id="path6580"
         d="m 382.43858,415.09157 -33.81863,122.54712 c -0.71527,2.59185 -2.84293,2.33822 -5.37946,1.63779 -2.53653,-0.70043 -4.49298,-1.57455 -3.77772,-4.1664 l 33.81864,-122.54711 z"
         style="fill:#dddddd;fill-opacity:1;fill-rule:evenodd;stroke:#000000;stroke-width:0.82028168;stroke-linecap:round;stroke-linejoin:round;stroke-miterlimit:4;stroke-opacity:1;stroke-dasharray:none;stroke-dashoffset:0" />
      <path
         style="color:#000000;fill:#dddddd;stroke:#000000;stroke-width:0.82028168;stroke-linecap:round;stroke-linejoin:round;stroke-miterlimit:4;stroke-opacity:1;stroke-dasharray:none;stroke-dashoffset:0;marker:none;visibility:visible;display:inline;overflow:visible;enable-background:accumulate"
         d="m 370.86242,393.94619 -2.06949,-10.93791 8.32437,7.38818 c 0,0 -0.32425,0.96243 -2.79343,2.36374 -2.46919,1.40132 -3.46145,1.18599 -3.46145,1.18599 z"
         id="path6582"
         inkscape:connector-curvature="0"
         sodipodi:nodetypes="ccczc" />
      <path
         sodipodi:nodetypes="ccczc"
         inkscape:connector-curvature="0"
         id="path6584"
         d="m 384.12824,417.33598 8.32436,7.38817 -2.06947,-10.93791 c 0,0 -0.99217,-0.21566 -3.46148,1.18598 -2.46917,1.40122 -2.79341,2.36376 -2.79341,2.36376 z"
         style="color:#000000;fill:#dddddd;stroke:#000000;stroke-width:0.82028168;stroke-linecap:round;stroke-linejoin:round;stroke-miterlimit:4;stroke-opacity:1;stroke-dasharray:none;stroke-dashoffset:0;marker:none;visibility:visible;display:inline;overflow:visible;enable-background:accumulate" />
      <path
         style="color:#000000;fill:#dddddd;stroke:#000000;stroke-width:0.82028168;stroke-linecap:round;stroke-linejoin:round;stroke-miterlimit:4;stroke-opacity:1;stroke-dasharray:none;stroke-dashoffset:0;marker:none;visibility:visible;display:inline;overflow:visible;enable-background:accumulate"
         d="m 370.70579,413.62958 -10.93453,2.07014 7.38591,-8.32696 c 0,0 0.96225,0.32403 2.36303,2.79433 1.40091,2.46989 1.18559,3.46249 1.18559,3.46249 z"
         id="path6586"
         inkscape:connector-curvature="0"
         sodipodi:nodetypes="ccczc" />
      <path
         sodipodi:nodetypes="ccczc"
         inkscape:connector-curvature="0"
         id="path6588"
         d="m 394.08837,400.35967 7.38591,-8.32696 -10.93453,2.07014 c 0,0 -0.21524,0.99254 1.18559,3.46249 1.40087,2.46999 2.36303,2.79433 2.36303,2.79433 z"
         style="color:#000000;fill:#dddddd;stroke:#000000;stroke-width:0.82028168;stroke-linecap:round;stroke-linejoin:round;stroke-miterlimit:4;stroke-opacity:1;stroke-dasharray:none;stroke-dashoffset:0;marker:none;visibility:visible;display:inline;overflow:visible;enable-background:accumulate" />
      <path
         style="color:#000000;fill:#dddddd;stroke:#000000;stroke-width:0.82028168;stroke-linecap:round;stroke-linejoin:round;stroke-miterlimit:4;stroke-opacity:1;stroke-dasharray:none;stroke-dashoffset:0;marker:none;visibility:visible;display:inline;overflow:visible;enable-background:accumulate"
         d="m 394.89821,407.80811 c -2.17639,7.88653 -10.33204,12.51496 -18.21615,10.3379 -7.88411,-2.17709 -12.51112,-10.33523 -10.33472,-18.22178 2.1764,-7.88652 10.33205,-12.51495 18.21617,-10.33787 7.8841,2.17706 12.51112,10.33522 10.3347,18.22175 z"
         id="path6590"
         inkscape:connector-curvature="0" />
      <path
         style="color:#000000;fill:#dddddd;stroke:#000000;stroke-width:0.82028168;stroke-linecap:round;stroke-linejoin:round;stroke-miterlimit:4;stroke-opacity:1;stroke-dasharray:none;stroke-dashoffset:0;marker:none;visibility:visible;display:inline;overflow:visible;enable-background:accumulate"
         d="m 380.73352,389.94796 6.26853,-9.19805 0.6636,11.11225 c 0,0 -0.90962,0.45124 -3.64618,-0.30442 -2.73656,-0.75566 -3.28595,-1.60978 -3.28595,-1.60978 z"
         id="path6592"
         inkscape:connector-curvature="0"
         sodipodi:nodetypes="ccczc" />
      <path
         sodipodi:nodetypes="ccczc"
         inkscape:connector-curvature="0"
         id="path6594"
         d="m 373.5799,415.87019 1.40574,8.88612 5.5264,-6.97192 c 0,0 -0.5494,-0.85413 -3.28596,-1.60978 -2.73655,-0.75566 -3.64618,-0.30442 -3.64618,-0.30442 z"
         style="color:#000000;fill:#dddddd;stroke:#000000;stroke-width:0.82028168;stroke-linecap:round;stroke-linejoin:round;stroke-miterlimit:4;stroke-opacity:1;stroke-dasharray:none;stroke-dashoffset:0;marker:none;visibility:visible;display:inline;overflow:visible;enable-background:accumulate" />
      <path
         sodipodi:nodetypes="ccczc"
         inkscape:connector-curvature="0"
         id="path6596"
         d="m 366.7088,403.75539 -9.19524,-6.27037 11.10884,-0.66382 c 0,0 0.4511,0.90984 -0.30433,3.64732 -0.75542,2.73736 -1.60927,3.28687 -1.60927,3.28687 z"
         style="color:#000000;fill:#dddddd;stroke:#000000;stroke-width:0.82028168;stroke-linecap:round;stroke-linejoin:round;stroke-miterlimit:4;stroke-opacity:1;stroke-dasharray:none;stroke-dashoffset:0;marker:none;visibility:visible;display:inline;overflow:visible;enable-background:accumulate" />
      <path
         style="color:#000000;fill:#dddddd;stroke:#000000;stroke-width:0.82028168;stroke-linecap:round;stroke-linejoin:round;stroke-miterlimit:4;stroke-opacity:1;stroke-dasharray:none;stroke-dashoffset:0;marker:none;visibility:visible;display:inline;overflow:visible;enable-background:accumulate"
         d="m 392.62315,410.91124 11.10881,-0.66374 -9.19523,-6.27047 c 0,0 -0.85384,0.5495 -1.60928,3.28696 -0.75541,2.73741 -0.3043,3.64725 -0.3043,3.64725 z"
         id="path6598"
         inkscape:connector-curvature="0"
         sodipodi:nodetypes="ccczc" />
      <path
         sodipodi:nodetypes="szsss"
         inkscape:connector-curvature="0"
         id="path6600"
         d="m 384.28037,404.87615 c -0.55762,2.02068 -2.64723,3.20654 -4.66726,2.64874 -2.02003,-0.5578 -3.20555,-2.64804 -2.64791,-4.6687 0.55762,-2.02067 2.64722,-3.20654 4.66727,-2.64874 2.02002,0.55779 3.20554,2.64805 2.6479,4.6687 z"
         style="color:#000000;fill:#dddddd;stroke:#000000;stroke-width:0.82028168;stroke-linecap:round;stroke-linejoin:round;stroke-miterlimit:4;stroke-opacity:1;stroke-dasharray:none;stroke-dashoffset:0;marker:none;visibility:visible;display:inline;overflow:visible;enable-background:accumulate" />
      <path
         sodipodi:nodetypes="ccczc"
         inkscape:connector-curvature="0"
         id="path6602"
         d="m 385.94013,396.71316 6.31589,0.551 -2.76726,5.70582 c 0,0 -1.3882,-0.0825 -2.78907,-2.55254 -1.40087,-2.46995 -0.75956,-3.70428 -0.75956,-3.70428 z"
         style="color:#000000;fill:#dddddd;stroke:#000000;stroke-width:0.82028168;stroke-linecap:round;stroke-linejoin:round;stroke-miterlimit:4;stroke-opacity:1;stroke-dasharray:none;stroke-dashoffset:0;marker:none;visibility:visible;display:inline;overflow:visible;enable-background:accumulate" />
      <path
         style="color:#000000;fill:#dddddd;stroke:#000000;stroke-width:0.82028168;stroke-linecap:round;stroke-linejoin:round;stroke-miterlimit:4;stroke-opacity:1;stroke-dasharray:none;stroke-dashoffset:0;marker:none;visibility:visible;display:inline;overflow:visible;enable-background:accumulate"
         d="m 371.75679,404.76238 -2.76726,5.70578 6.3159,0.55102 c 0,0 0.6413,-1.23432 -0.75957,-3.7043 -1.40088,-2.46995 -2.78907,-2.5525 -2.78907,-2.5525 z"
         id="path6604"
         inkscape:connector-curvature="0"
         sodipodi:nodetypes="ccczc" />
      <path
         style="color:#000000;fill:#dddddd;stroke:#000000;stroke-width:0.82028168;stroke-linecap:round;stroke-linejoin:round;stroke-miterlimit:4;stroke-opacity:1;stroke-dasharray:none;stroke-dashoffset:0;marker:none;visibility:visible;display:inline;overflow:visible;enable-background:accumulate"
         d="m 373.47197,398.54717 0.55081,-6.31783 5.70407,2.76812 c 0,0 -0.0826,1.3886 -2.55173,2.78992 -2.46921,1.40129 -3.70315,0.75979 -3.70315,0.75979 z"
         id="path6606"
         inkscape:connector-curvature="0"
         sodipodi:nodetypes="ccczc" />
      <path
         sodipodi:nodetypes="ccczc"
         inkscape:connector-curvature="0"
         id="path6608"
         d="m 381.51872,412.73486 5.70402,2.76812 0.55085,-6.31784 c 0,0 -1.23395,-0.64151 -3.70315,0.7598 -2.4692,1.40131 -2.55172,2.78992 -2.55172,2.78992 z"
         style="color:#000000;fill:#dddddd;stroke:#000000;stroke-width:0.82028168;stroke-linecap:round;stroke-linejoin:round;stroke-miterlimit:4;stroke-opacity:1;stroke-dasharray:none;stroke-dashoffset:0;marker:none;visibility:visible;display:inline;overflow:visible;enable-background:accumulate" />
    </g>
    <g
       id="g2999"
       style="fill:#b7410e"
       transform="matrix(0,-0.89296061,-0.89296061,0,594.73362,597.38812)">
      <path
         d="m 302.97184,620.55652 c 5.92689,-34.85345 0.66223,1.21217 50.44713,-333.97643 l -28.12626,-42.61915 -49.21163,-0.15664 c -23.20974,41.21302 -2.98684,3.29897 -25.80267,43.80832 49.27952,335.54542 -2.25141,9.39881 52.29352,332.46407 z"
         id="path3271"
         style="fill:#dddddd;fill-opacity:1;fill-rule:evenodd;stroke:#000000;stroke-width:3.3596108;stroke-linecap:round;stroke-linejoin:miter;stroke-miterlimit:4;stroke-opacity:1;stroke-dasharray:none;stroke-dashoffset:0;marker:none;visibility:visible;display:inline;overflow:visible;enable-background:accumulate"
         inkscape:connector-curvature="0" />
      <g
         style="fill:#b7410e"
         id="g3982">
        <path
           inkscape:connector-curvature="0"
           style="fill:#dddddd;fill-opacity:1;fill-rule:evenodd;stroke:#000000;stroke-width:3.3596108;stroke-linecap:round;stroke-linejoin:miter;stroke-miterlimit:4;stroke-opacity:1;stroke-dasharray:none;stroke-dashoffset:0;marker:none;visibility:visible;display:inline;overflow:visible;enable-background:accumulate"
           id="path3282"
           d="m 318.187,224.97197 94.52799,0.30086 c 8.31027,0.0264 15.13985,6.97055 15.10651,18.73559 -0.0333,11.76504 -7.29784,21.79528 -20.65708,21.75275 -13.35936,-0.0425 -21.3447,-12.48492 -21.03645,-21.92224 l -65.32666,-0.20791 c 0.0261,-9.24434 -4.67283,-12.98806 -2.61431,-18.65905 z" />
        <path
           inkscape:connector-curvature="0"
           style="fill:#dddddd;fill-opacity:1;fill-rule:evenodd;stroke:#000000;stroke-width:3.3596108;stroke-linecap:round;stroke-linejoin:miter;stroke-miterlimit:4;stroke-opacity:1;stroke-dasharray:none;stroke-dashoffset:0;marker:none;visibility:visible;display:inline;overflow:visible;enable-background:accumulate"
           id="path3294"
           d="m 281.91876,224.85655 -94.52787,-0.30089 c -8.31035,-0.0264 -15.17918,6.87417 -15.21252,18.63921 -0.0334,11.76499 7.17404,21.84124 20.53336,21.88381 13.35924,0.0425 21.41503,-12.34892 21.16034,-21.78796 l 65.32667,0.20791 c 0.0263,-9.24437 4.74639,-12.95808 2.72002,-18.64208 z" />
      </g>
      <path
         d="m 300.12395,620.04259 0.57118,-378.82427"
         id="path3276"
         style="fill:#dddddd;stroke:#000000;stroke-width:3.3596108;stroke-linecap:round;stroke-linejoin:miter;stroke-miterlimit:4;stroke-opacity:1;stroke-dasharray:none;stroke-dashoffset:0;marker:none;visibility:visible;display:inline;overflow:visible;enable-background:accumulate"
         inkscape:connector-curvature="0" />
      <path
         d="m 300.29644,266.08685 c 11.92171,-0.94587 32.35783,-33.71631 23.66067,-42.59784 -8.69711,-8.8816 -3.41687,-38.39108 -2.50847,-51.17708 0.46114,-6.48964 0.70973,-15.77707 0.62146,-25.79504 -0.0855,-9.71986 -0.48814,-20.12738 -1.32103,-29.33464 -1.69153,-18.696969 -1.60055,-39.299128 -1.6006,-39.29905 l -36.63632,-0.116656 c 0,0 -0.0259,20.602336 -1.82339,39.288196 -1.79748,18.68586 -1.84824,42.33267 -1.01231,55.12427 0.83597,12.79152 5.94871,42.33413 -2.79863,51.1602 -8.7474,8.82602 11.50252,41.72587 23.41862,42.74764 z"
         id="path3278"
         style="fill:#dddddd;fill-opacity:1;fill-rule:evenodd;stroke:#000000;stroke-width:3.3596108;stroke-linecap:round;stroke-linejoin:miter;stroke-miterlimit:4;stroke-opacity:1;stroke-dasharray:none;stroke-dashoffset:0;marker:none;visibility:visible;display:inline;overflow:visible;enable-background:accumulate"
         inkscape:connector-curvature="0" />
      <path
         d="m 319.63951,212.85525 c -0.24327,-1.59436 -0.34172,-3.27048 -0.44139,-5.02173 l -37.45557,-0.11923 c -0.10996,1.75127 -0.30854,3.42519 -0.56098,5.01856 l 38.45794,0.1224 z m -0.51149,-12.45593 c 0.0404,-1.57778 0.10075,-3.13851 0.19571,-4.73008 l -37.63775,-0.11985 c 0.0858,1.59126 0.13714,3.15447 0.16881,4.73122 l 37.27323,0.11871 z m 0.76414,-12.3554 c 0.15336,-1.6181 0.3077,-3.10551 0.46878,-4.63274 l -39.64272,-0.12614 c 0.1523,1.52682 0.20751,3.01778 0.35142,4.63528 l 38.82252,0.1236 z m 1.22002,-12.45051 c 0.096,-1.0049 0.31244,-2.41755 0.37388,-3.28135 0.0212,-0.29663 -0.017,-0.75341 0.003,-1.06181 l -41.82986,-0.13306 c 0.0188,0.30922 -0.0225,0.76416 -0.003,1.06182 0.0563,0.86403 0.26531,2.27805 0.35526,3.28361 l 41.1008,0.13084 z m 0.76435,-12.4519 c 0.0442,-1.35755 0.0727,-2.602 0.10262,-4.05461 l -42.74114,-0.13601 c 0.0215,1.43947 0.0434,2.70893 0.0796,4.05515 l 42.55892,0.13547 z m 0.2179,-12.55026 c 7.5e-4,-1.26226 0.0207,-2.37651 0.0104,-3.66871 l -42.92343,-0.13661 c -0.0174,1.29016 -0.004,2.40829 -0.0104,3.66878 l 42.92348,0.13654 z m -0.23918,-12.06897 c -0.0358,-1.3567 -0.0304,-2.69636 -0.0796,-4.05508 l -42.19441,-0.13432 c -0.057,1.36159 -0.0589,2.69484 -0.10262,4.0546 l 42.37667,0.1348 z m -0.51232,-12.16636 c -0.0872,-1.50071 -0.15436,-2.97603 -0.26081,-4.44191 l -40.82738,-0.12991 c -0.11473,1.46866 -0.18991,2.93647 -0.286,4.44017 l 41.37419,0.13165 z m -0.87684,-12.16751 c -0.12652,-1.58122 -0.15605,-3.15358 -0.25997,-4.73148 l -38.91358,-0.12388 c -0.1133,1.57698 -0.15134,3.14936 -0.28687,4.72982 l 39.46042,0.12554 z m -0.69454,-12.1669 c -0.0852,-1.79231 -0.10604,-3.334028 -0.168,-5.02093 l -37.63779,-0.119773 c -0.0713,1.686631 -0.10123,3.228043 -0.19651,5.019783 l 38.0023,0.12092 z"
         id="path3288"
         style="fill:#dddddd;fill-opacity:1;fill-rule:evenodd;stroke:#000000;stroke-width:3.3596108;stroke-miterlimit:4;stroke-dasharray:none;marker:none;visibility:visible;display:inline;overflow:visible;enable-background:accumulate"
         inkscape:connector-curvature="0" />
      <path
         d="m 276.50924,64.932259 a 25.072673,26.561631 0 1 1 50.14512,0.159593 25.072673,26.561631 0 1 1 -50.14512,-0.159593 z"
         id="path3290"
         style="fill:#dddddd;fill-opacity:1;fill-rule:nonzero;stroke:#000000;stroke-width:3.3596108;stroke-linecap:round;stroke-linejoin:miter;stroke-miterlimit:4;stroke-opacity:1;stroke-dasharray:none"
         inkscape:connector-curvature="0" />
    </g>
  </g>
  <g
     inkscape:groupmode="layer"
     id="layer1"
     inkscape:label="Cover"
     style="display:inline"
     sodipodi:insensitive="true">
    <path
       d="m 2,2 v 257 c 0,286 298,398 298,398 0,0 298,-112 298,-398 V 2 z"
       id="shine"
       inkscape:connector-curvature="0"
       style="fill:url(#radialGradient3074);stroke:#000000;stroke-width:3" />
  </g>
</svg>
