<?xml version="1.0" encoding="UTF-8"?>
<svg xmlns="http://www.w3.org/2000/svg" xmlns:xlink="http://www.w3.org/1999/xlink" width="600" height="660">
<defs>
  <radialGradient id="rg" gradientUnits="userSpaceOnUse" cx="220" cy="220" r="405">
    <stop style="stop-color:#fff;stop-opacity:.3" offset="0"/>
    <stop style="stop-color:#fff;stop-opacity:.2" offset=".2"/>
    <stop style="stop-color:#666;stop-opacity:.1" offset=".6"/>
    <stop style="stop-color:#000;stop-opacity:.13" offset="1"/>
  </radialGradient>
  <clipPath id="clip-shield">
    <path id="shield" d="m2,2v257c0,286 298,398 298,398c0,0 298-112 298-398V2z"/>
  </clipPath>
  <g id="hand" style="fill:#ffffff;stroke:#008000;stroke-width:1;">
    <path d="m 320.40566,59.765844 c 0.4472,-1.4329 1.08965,-5.249769 1.45657,-6.262235 0.93183,-2.571142 8.68717,-6.515376 10.85896,-5.79145 2.17179,0.72394 -0.72392,7.239316 -0.72392,10.135041 0,2.895718 3.61964,10.858953 3.61964,14.478618 0,3.619651 -0.81119,21.688835 -0.81119,26.756352 0,5.06752 -6.51537,8.88747 -7.96324,13.23106 -1.44787,4.34357 -5.70417,7.21021 -6.42811,13.00166 -1.50684,7.12733 -0.9118,7.41461 0.53015,15.67917 -0.388,1.70702 -31.33346,7.08414 -44.75408,-0.76417 1.44434,-6.23885 1.57375,-9.62759 0.43971,-18.01415 -4.03588,-7.94923 -6.14275,-14.66316 -8.19034,-20.29403 -2.04759,-5.63086 -3.58327,-17.370882 -3.58327,-21.977946 0,-4.607064 1.0851,-24.2284 0.16811,-28.772212 -2.36563,-11.722172 2.39137,-16.018723 4.95085,-16.018723 5.52408,1.975085 4.04137,9.414699 4.35112,15.100946 0.85835,4.45746 0.51465,6.991544 1.72953,17.430196 -0.76831,-5.748057 -0.19344,-9.63858 -0.36196,-15.700664 0.53319,-8.027243 -0.0515,-7.224644 0.4937,-14.322448 0.68642,-6.839532 -1.5682,-24.326596 6.89242,-26.055267 5.63311,-1.271158 6.16693,11.513145 6.09131,20.987757 0.70551,4.070227 0.72812,8.567118 0.51189,13.565251 0.26319,5.941026 0.21314,8.555155 0.25595,14.077154 0.15988,-5.716914 -0.42206,-10.553529 0.14994,-16.760842 0.614,-7.179207 1.31321,-8.309847 0.96167,-16.070166 0.51191,-3.071376 -0.79668,-19.9382398 8.00404,-19.7883068 7.09718,2.353533 4.29524,11.8580488 4.70556,20.1138908 0,6.161694 0.31528,10.177825 0.10598,17.024322 0,0 -0.0308,7.467362 -0.61792,14.979867 0.59375,-7.741412 0.28623,-10.049424 0.52524,-15.204455 0.8349,-6.152524 0.89374,-6.024018 1.50897,-11.875934 -0.11494,-17.5434 3.85987,-19.379059 6.66803,-19.256902 6.97944,0.303611 6.39872,10.749823 6.39872,20.987757 0.51188,3.707123 0.25595,7.831586 0,13.524644 0,3.21293 2.05593,11.856215 2.05593,11.856215 z"/>
    <path fill="none" d="m 273.91241,67.94141 c -2.66233,1.5974 -3.72726,2.129869 -6.3896,2.662331 m 19.70127,-8.076768 c -3.72727,0.532462 -5.85714,2.129862 -7.987,2.662331 m 21.29866,-3.727262 c -3.1948,-0.532462 -4.25973,-0.532462 -6.92206,0 m 22.89604,0.62223 c -4.25972,-1.5974 -6.92204,-2.129862 -10.11686,-1.5974 m 10.97984,63.312698 c -4.58366,1.12398 -12.81669,-0.74456 -14.94191,-4.28233 m -10.71642,3.23674 c 0,0 -6.60751,0.79071 -10.90127,-0.95595"/>
    <path d="m 320.32181,59.822089 c -1.25639,5.217058 0.78228,9.177707 0.78228,12.073439 0,2.895718 -2.17178,15.92647 -2.17178,15.92647 l 0.72393,-5.06751 c 0,0 -10.13504,0.723933 -13.75469,3.619651 -3.61966,2.895725 -7.96325,16.650411 -6.51538,26.061511"/>
  </g>
</defs>
<use id="background" xlink:href="#shield" style="fill:#008000;"/>
<g transform="translate(0,-10)">
    <use xlink:href="#hand" transform="translate(-214,43)"/>
    <use xlink:href="#hand" transform="translate(-71,43)"/>
    <use xlink:href="#hand" transform="translate(71,43)"/>
    <use xlink:href="#hand" transform="translate(214,43)"/>
    <use xlink:href="#hand" transform="translate(-190,219)"/>
    <use xlink:href="#hand" transform="translate(0,219)"/>
    <use xlink:href="#hand" transform="translate(190,219)"/>
    <use xlink:href="#hand" transform="translate(-116,373)"/>
    <use xlink:href="#hand" transform="translate(116,373)"/>
    <use xlink:href="#hand" transform="translate(0,453)"/>
</g>
<g clip-path="url(#clip-shield)">
  <path id="bend" style="fill:none;stroke:#cc0000;stroke-width:50;" d="m 600,0 -600,600"/>
</g>
<use id="shine" xlink:href="#shield" fill="url(#rg)" stroke="#000" stroke-width="3"/>
</svg>
