<?xml version="1.0" encoding="UTF-8"?>
<svg xmlns="http://www.w3.org/2000/svg" xmlns:xlink="http://www.w3.org/1999/xlink" width="600" height="660">
<defs>
  <radialGradient id="rg" gradientUnits="userSpaceOnUse" cx="220" cy="220" r="405">
    <stop style="stop-color:#fff;stop-opacity:.3" offset="0"/>
    <stop style="stop-color:#fff;stop-opacity:.2" offset=".2"/>
    <stop style="stop-color:#666;stop-opacity:.1" offset=".6"/>
    <stop style="stop-color:#000;stop-opacity:.13" offset="1"/>
  </radialGradient>
  <path id="shield" d="m2,2v257c0,286 298,398 298,398c0,0 298-112 298-398V2z"/>
  <clipPath id="clip-mouth">
    <path id="mouth" d="m 316.35534,105.30175 c 6.44015,-2.38696 6.42822,-8.962782 8.19312,-16.486876 1.7649,-7.524095 5.09475,-13.130237 0.22612,-18.613604 -3.35763,-3.781478 -14.90622,-6.518697 -24.77459,-6.518697 -9.86838,0 -21.41697,2.737219 -24.7746,6.518697 -4.86863,5.483367 -1.53878,11.089509 0.22612,18.613604 1.7649,7.524094 1.75297,14.099916 8.19312,16.486876 6.44012,2.38695 10.14069,-1.70801 16.35536,-1.70801 6.21466,0 9.91523,4.09496 16.35535,1.70801 z"/>
  </clipPath>  
</defs>
<use id="background" xlink:href="#shield" style="fill:#ff3300;"/>
<g id="giant" style="fill:#e9c6af;stroke:#28170b;stroke-width:1;stroke-linecap:round;stroke-linejoin:round;">
  <path id="body" d="m 371.55782,300.63626 c -12.79389,-20.54777 10.09506,-156.8921 22.71634,-144.05528 h 6e-5 c -27.91874,-38.545 -55.32373,-78.167817 -94.27422,-80.181414 -38.95049,2.013597 -66.35548,41.636414 -94.27422,80.181414 h 6e-5 c 12.62128,-12.83682 35.51023,123.50751 22.71634,144.05528 -3.35274,5.38468 71.55782,14.52083 71.55782,14.52083 0,0 74.91056,-9.13615 71.55782,-14.52083 z"/>
  <g id="leg1">
    <path d="m 300.00001,323.59376 c 12.7003,27.82728 57.51478,59.23358 55.56218,78.15934 -1.11627,10.81922 4.97013,18.60077 6.80006,23.52041 -6.4589,24.49564 2.45438,32.40407 4.80049,49.63 -0.30309,5.58818 -3.07667,11.74255 -3.9467,15.53905 -3.6142,15.77092 -5.92176,24.99902 8.10386,30.47243 14.36771,5.47342 23.94618,9.23639 34.893,16.76233 10.60474,7.18385 12.65727,9.92056 25.31454,7.52594 9.57847,-1.71044 31.13003,-9.92056 38.99806,-18.13068 2.39462,0.68418 4.10506,-0.68417 4.10506,-2.7367 0,-1.36836 -0.68418,-3.0788 -2.05253,-4.78924 -7.52594,-8.21012 -18.47277,-15.39397 -26.3408,-17.78859 -9.92056,-3.07879 -25.01561,-16.43194 -23.95312,-23.19933 3.27977,-20.88986 -0.44092,-59.96089 1.03321,-77.03253 1.44741,-16.76232 -0.15292,-26.14225 -9.19722,-40.52897 -8.69728,-23.16923 -27.25475,-59.65359 -40.87681,-76.48978"/>
    <g id="toes1">
      <path d="m 457.86823,516.12576 c 9.92056,4.10506 15.05189,12.65726 12.99936,15.39397 -3.42089,4.10506 -6.15759,1.36835 -7.86803,0"/>
      <path d="m 450.0002,518.86246 c 10.60474,3.76297 15.73606,14.7098 13.68353,17.4465 -3.42088,4.44715 -6.49967,2.39462 -8.89429,0.34209"/>
      <path d="m 440.76382,521.94126 c 12.99935,7.52594 17.10441,15.73606 15.05188,18.47276 -5.8155,7.18386 -11.631,1.02627 -13.34144,-2.05253"/>
      <path d="m 426.4775,524.14444 c 5.4251,3.85623 12.13742,6.53601 14.7087,9.08648 5.49198,5.44755 2.45308,9.19116 1.28806,11.28816 -4.24535,7.6416 -21.12652,4.57899 -26.94202,-0.89442"/>
    </g>
    <path style="fill:#502d16;" d="m 456.4849,504.50823 c 2.48735,0.67115 1.16676,0.42919 4.70747,0.59178 0.26478,0.0137 0.57608,-0.1488 0.79567,0 0.64996,0.44024 1.39862,1.63341 0.81098,2.41689 -0.8154,1.08723 -5.11603,0.23536 -5.79654,0.64881 -0.30002,0.18233 0.4458,3.90459 0.16522,4.21565 -0.20593,0.22817 -2.53607,-1.36681 -2.60828,-1.4185 -0.37534,-0.26854 -0.54625,-0.81913 -0.9792,-0.97923 -0.1772,-0.0657 -0.69645,0.98316 -1.02455,1.76353 -0.42518,1.01135 -1.24288,4.48516 -2.16891,5.12237 -0.27025,0.18575 -0.53886,-0.37907 -0.77192,-0.60974 -0.84191,-0.83333 -1.84156,-1.66375 -2.58523,-2.58503 -0.26854,-0.33285 -0.45587,-1.2308 -0.8114,-0.99332 -1.40283,0.93708 -2.81292,1.87013 -4.13691,2.91572 -1.17976,0.93168 -2.01469,2.1436 -3.51588,2.64397 -0.1122,0.0373 -1.27106,0.3503 -1.45976,0.16215 -0.52955,-0.52784 -2.8552,-4.04174 -3.08792,-4.12603 -0.1081,-0.039 -0.21278,0.0903 -0.30823,0.15394 -0.83134,0.5549 -1.62413,1.16772 -2.46998,1.70028 -1.4081,0.88656 -3.18867,1.93184 -4.73727,2.55129 -0.95347,0.38136 -1.84211,-3.47517 -2.28221,-3.143 -2.59621,1.95941 -5.5434,4.0141 -7.35684,6.81272 -0.63827,0.98501 -0.0995,1.10881 -1.13645,1.62567 -0.27402,0.1365 -0.0359,0.30652 -0.48659,0.16215 -0.52736,-0.16899 -0.76895,-0.79778 -1.17466,-1.17462 -3.0568,-2.8392 -1.04539,-0.54341 -3.84018,-4.33987 -0.39984,-0.54314 -0.85748,-1.04611 -1.21397,-1.61859 -0.0582,-0.0937 0.0954,-0.27538 0,-0.33115 -0.0982,-0.0575 -1.00495,0.69533 -1.28174,0.8036 -0.947,0.37038 -2.37413,0.54759 -3.37593,0.17413 -1.47813,-0.55094 -1.39168,-3.70232 -1.95049,-4.05122 -1.02889,-0.64247 -3.84565,-1.17668 -5.04443,-1.55164 -16.82479,-5.26276 3.51359,0.81944 -10.15869,-2.63808 -0.89681,-0.22681 -1.73202,-0.6511 -2.60739,-0.95012 -0.16899,-0.0578 -0.99411,-0.11562 -0.64881,-0.62783 0.14881,-0.22065 1.2804,-0.96873 0.96681,-1.09982 -2.07346,-0.86675 -5.73131,-2.12963 -7.54486,-2.75357 -0.71633,-0.2463 -6.20236,-1.71732 -7.09949,-2.5777 -0.42457,-0.40716 0.38858,-1.11908 0.69003,-1.6242 0.55975,-0.93787 1.54346,-2.28601 2.60031,-2.76401 0.86176,-0.38974 2.7428,-0.22167 2.53891,-1.64879 -0.4612,-3.22836 -6.00231,-4.51834 -7.69876,-6.15144 -0.69906,-0.67295 0.67719,-1.73059 1.13539,-1.88329 0.5717,-0.19055 0.70638,0.0239 1.28324,-0.32225 1.27356,-0.76416 0.59756,-1.75016 1.13536,-2.59515 0.0274,-0.0414 0.0985,0 0.14744,0 0.30993,0 0.67706,-0.1796 0.92965,0 0.26444,0.18781 1.33463,1.30267 1.81109,1.30267 0.32738,0 2.30632,-3.86652 2.84097,-3.75158 1.51795,0.32635 3.61276,2.66535 4.87209,3.60537 1.63026,1.21688 3.79749,2.49961 5.78879,3.00894 0.41618,0.10639 0.92736,-0.77804 0.94378,-0.79628 1.29553,-1.43957 1.93308,-4.04899 3.0712,-5.26114 0.81616,-0.86921 1.9157,1.42014 2.87053,2.13422 1.08791,0.81359 2.5019,1.9578 3.97179,1.53786 0.3479,-0.0996 0.97156,-0.81065 1.13833,-0.97766 1.50721,-1.50912 3.17379,-3.85492 5.51244,-3.85013 1.197,0.002 1.4026,0.46421 2.51948,1.13231 1.6253,0.97218 3.71563,2.06857 5.65284,2.06857 0.28257,0 0.75386,0.33867 1.04392,0.14505 0.73296,-0.48864 1.76637,-2.46222 2.15242,-3.31111 0.47824,-1.05161 0.66105,-1.58178 0.85693,-1.43249 0.57847,0.44095 0.97437,1.08941 1.54299,1.54299 0.88313,0.70446 1.82446,1.33301 2.75175,1.97822 0.0992,0.0691 0.20355,0.16113 0.3243,0.16215 0.76139,0.007 1.46418,-1.52157 2.37352,-1.11729 1.30917,0.58206 2.11947,1.67035 3.20389,2.52269 2.9096,2.28693 0.37787,0.10503 1.54627,0.87082 0.35701,0.23399 0.63499,1.26819 0.64272,1.29152 0.1406,0.4231 0.3243,0.85174 0.3243,1.29758 0,0.48734 -1.23514,1.69399 -0.4961,2.25176 1.44191,1.08829 2.81898,1.4861 4.57458,1.68157 0.25691,0.0274 2.20729,-0.0503 2.25744,0 0.70272,0.70272 0.27435,2.06505 0.79689,2.8914 0.30857,0.48816 2.70257,-2.11452 3.712,-1.41638 1.11805,0.77325 2.5071,1.79623 3.38483,2.84935 0.84605,1.01515 1.6384,2.64503 3.09556,2.93645 0.77746,0.15531 1.51439,0.1731 2.27074,0.3243 0.45478,0.091 2.17644,-0.1902 2.43297,0 1.25943,0.93329 0.7411,3.99744 1.4355,4.36481 0.38287,0.20252 1.76152,0.0205 2.23596,0.10639 z"/>
  </g>
  <g id="leg2">
    <path d="m 299.99999,323.59376 c -12.7003,27.82728 -57.51478,59.23358 -55.56218,78.15934 1.11627,10.81922 -4.97013,18.60077 -6.80006,23.52041 6.4589,24.49564 -2.45438,32.40407 -4.80049,49.63 0.30309,5.58818 3.07667,11.74255 3.9467,15.53905 3.6142,15.77092 5.92176,24.99902 -8.10386,30.47243 -14.36771,5.47342 -23.94618,9.23639 -34.893,16.76233 -10.60474,7.18385 -12.65727,9.92056 -25.31454,7.52594 -9.57847,-1.71044 -31.13003,-9.92056 -38.99806,-18.13068 -2.39462,0.68418 -4.10506,-0.68417 -4.10506,-2.7367 0,-1.36836 0.68418,-3.0788 2.05253,-4.78924 7.52594,-8.21012 18.47277,-15.39397 26.3408,-17.78859 9.92056,-3.07879 25.01561,-16.43194 23.95312,-23.19933 -3.27977,-20.88986 0.44092,-59.96089 -1.03321,-77.03253 -1.44741,-16.76232 0.15292,-26.14225 9.19722,-40.52897 8.69728,-23.16923 27.25475,-59.65359 40.87681,-76.48978"/>
    <g id="toes2">
      <path d="m 142.13177,516.12576 c -9.92056,4.10506 -15.05189,12.65726 -12.99936,15.39397 3.42089,4.10506 6.15759,1.36835 7.86803,0"/>
      <path d="m 149.9998,518.86246 c -10.60474,3.76297 -15.73606,14.7098 -13.68353,17.4465 3.42088,4.44715 6.49967,2.39462 8.89429,0.34209"/>
      <path d="m 159.23618,521.94126 c -12.99935,7.52594 -17.10441,15.73606 -15.05188,18.47276 5.8155,7.18386 11.631,1.02627 13.34144,-2.05253"/>
      <path d="m 173.5225,524.14444 c -5.4251,3.85623 -12.13742,6.53601 -14.7087,9.08648 -5.49198,5.44755 -2.45308,9.19116 -1.28806,11.28816 4.24535,7.6416 21.12652,4.57899 26.94202,-0.89442"/>
    </g>
    <path style="fill:#502d16;" d="m 143.5151,504.50823 c -2.48735,0.67115 -1.16676,0.42919 -4.70747,0.59178 -0.26478,0.0137 -0.57608,-0.1488 -0.79567,0 -0.64996,0.44024 -1.39862,1.63341 -0.81098,2.41689 0.8154,1.08723 5.11603,0.23536 5.79654,0.64881 0.30002,0.18233 -0.4458,3.90459 -0.16522,4.21565 0.20593,0.22817 2.53607,-1.36681 2.60828,-1.4185 0.37534,-0.26854 0.54625,-0.81913 0.9792,-0.97923 0.1772,-0.0657 0.69645,0.98316 1.02455,1.76353 0.42518,1.01135 1.24288,4.48516 2.16891,5.12237 0.27025,0.18575 0.53886,-0.37907 0.77192,-0.60974 0.84191,-0.83333 1.84156,-1.66375 2.58523,-2.58503 0.26854,-0.33285 0.45587,-1.2308 0.8114,-0.99332 1.40283,0.93708 2.81292,1.87013 4.13691,2.91572 1.17976,0.93168 2.01469,2.1436 3.51588,2.64397 0.1122,0.0373 1.27106,0.3503 1.45976,0.16215 0.52955,-0.52784 2.8552,-4.04174 3.08792,-4.12603 0.1081,-0.039 0.21278,0.0903 0.30823,0.15394 0.83134,0.5549 1.62413,1.16772 2.46998,1.70028 1.4081,0.88656 3.18867,1.93184 4.73727,2.55129 0.95347,0.38136 1.84211,-3.47517 2.28221,-3.143 2.59621,1.95941 5.5434,4.0141 7.35684,6.81272 0.63827,0.98501 0.0996,1.10881 1.13645,1.62567 0.27402,0.1365 0.0359,0.30652 0.48659,0.16215 0.52736,-0.16899 0.76895,-0.79778 1.17466,-1.17462 3.0568,-2.8392 1.04539,-0.54341 3.84018,-4.33987 0.39984,-0.54314 0.85748,-1.04611 1.21397,-1.61859 0.0582,-0.0937 -0.0954,-0.27538 0,-0.33115 0.0982,-0.0575 1.00495,0.69533 1.28174,0.8036 0.947,0.37038 2.37413,0.54759 3.37593,0.17413 1.47813,-0.55094 1.39168,-3.70232 1.95049,-4.05122 1.02889,-0.64247 3.84565,-1.17668 5.04443,-1.55164 16.82479,-5.26276 -3.51359,0.81944 10.15869,-2.63808 0.89681,-0.22681 1.73202,-0.6511 2.60739,-0.95012 0.16899,-0.0578 0.99411,-0.11562 0.64881,-0.62783 -0.14881,-0.22065 -1.2804,-0.96873 -0.96681,-1.09982 2.07346,-0.86675 5.73131,-2.12963 7.54486,-2.75357 0.71633,-0.2463 6.20236,-1.71732 7.09949,-2.5777 0.42457,-0.40716 -0.38858,-1.11908 -0.69003,-1.6242 -0.55975,-0.93787 -1.54346,-2.28601 -2.60031,-2.76401 -0.86176,-0.38974 -2.7428,-0.22167 -2.53891,-1.64879 0.4612,-3.22836 6.00231,-4.51834 7.69876,-6.15144 0.69906,-0.67295 -0.67719,-1.73059 -1.13539,-1.88329 -0.5717,-0.19055 -0.70638,0.0239 -1.28324,-0.32225 -1.27356,-0.76416 -0.59756,-1.75016 -1.13536,-2.59515 -0.0274,-0.0414 -0.0985,0 -0.14744,0 -0.30993,0 -0.67706,-0.1796 -0.92965,0 -0.26444,0.18781 -1.33463,1.30267 -1.81109,1.30267 -0.32738,0 -2.30632,-3.86652 -2.84097,-3.75158 -1.51795,0.32635 -3.61276,2.66535 -4.87209,3.60537 -1.63026,1.21688 -3.79749,2.49961 -5.78879,3.00894 -0.41618,0.10639 -0.92736,-0.77804 -0.94378,-0.79628 -1.29553,-1.43957 -1.93308,-4.04899 -3.0712,-5.26114 -0.81616,-0.86921 -1.9157,1.42014 -2.87053,2.13422 -1.08791,0.81359 -2.5019,1.9578 -3.97179,1.53786 -0.3479,-0.0996 -0.97156,-0.81065 -1.13833,-0.97766 -1.50721,-1.50912 -3.17379,-3.85492 -5.51244,-3.85013 -1.197,0.002 -1.4026,0.46421 -2.51948,1.13231 -1.6253,0.97218 -3.71563,2.06857 -5.65284,2.06857 -0.28257,0 -0.75386,0.33867 -1.04392,0.14505 -0.73296,-0.48864 -1.76637,-2.46222 -2.15242,-3.31111 -0.47824,-1.05161 -0.66105,-1.58178 -0.85693,-1.43249 -0.57847,0.44095 -0.97437,1.08941 -1.54299,1.54299 -0.88313,0.70446 -1.82446,1.33301 -2.75175,1.97822 -0.0992,0.0691 -0.20355,0.16113 -0.3243,0.16215 -0.76139,0.007 -1.46418,-1.52157 -2.37352,-1.11729 -1.30917,0.58206 -2.11947,1.67035 -3.20389,2.52269 -2.9096,2.28693 -0.37787,0.10503 -1.54627,0.87082 -0.35701,0.23399 -0.63499,1.26819 -0.64272,1.29152 -0.1406,0.4231 -0.3243,0.85174 -0.3243,1.29758 0,0.48734 1.23514,1.69399 0.4961,2.25176 -1.44191,1.08829 -2.81898,1.4861 -4.57458,1.68157 -0.25691,0.0274 -2.20729,-0.0503 -2.25744,0 -0.70272,0.70272 -0.27435,2.06505 -0.79689,2.8914 -0.30857,0.48816 -2.70257,-2.11452 -3.712,-1.41638 -1.11805,0.77325 -2.5071,1.79623 -3.38483,2.84935 -0.84605,1.01515 -1.6384,2.64503 -3.09556,2.93645 -0.77746,0.15531 -1.51439,0.1731 -2.27074,0.3243 -0.45478,0.091 -2.17644,-0.1902 -2.43297,0 -1.25943,0.93329 -0.7411,3.99744 -1.4355,4.36481 -0.38287,0.20252 -1.76152,0.0205 -2.23596,0.10639 z"/>
  </g>
  <g id="arm1">
    <path d="m 336.22572,90.800115 c 12.15529,0.641997 33.72573,16.133365 39.54123,21.264685 7.52595,-0.68418 21.55156,6.15759 28.73542,10.26265 15.05188,8.89429 20.52529,16.07815 20.52529,16.07815 5.47342,2.7367 11.631,10.60473 15.05189,17.10441 4.44714,8.21012 4.78923,18.47276 5.47341,27.70915 5.8155,2.7367 14.70979,8.89429 20.18321,15.73606 7.52594,9.92056 10.60473,22.57782 12.31517,32.84047 -30.78794,31.47212 -31.13003,29.0775 -49.26071,20.18321 -7.86803,-3.76297 -14.02561,-10.94683 -17.78859,-17.4465 -3.42088,-5.8155 -5.47341,-12.31518 -6.49967,-19.15695 -6.84177,-5.13132 -14.02562,-10.60473 -18.47277,-17.4465 -5.8155,-8.89429 -6.15759,-21.20947 -10.60473,-30.78794"/>
    <path style="fill:none;" d="m 404.50236,215.37545 c -0.38974,-17.41366 15.72606,-25.95071 28.12984,-27.50523"/>
    <path style="fill:#502d16;" d="m 473.79477,215.74063 c 1.08032,-0.73904 2.55013,-2.75247 2.45007,-3.51263 -1.60025,0.26136 -1.49126,-1.84608 -1.57377,-2.31173 -3.53398,0.28462 -1.17319,-2.82955 -1.97214,-4.55678 -3.31549,-0.9468 -2.55051,-3.10305 -0.78947,-5.32509 -3.66315,1.39726 -4.18145,-0.77832 -5.91447,-1.40536 -2.10425,-2.4135 0.57881,-2.96235 -0.42032,-4.04013 -1.15619,-1.7229 -4.13896,-0.69697 -5.23823,-2.44077 1.04648,-2.25029 -0.99113,-3.96261 -2.95222,-4.7032 -1.24544,-0.27333 -2.78361,-0.7007 -1.85792,-2.19487 -3.37867,0.37708 -5.82586,0.22714 -5.50625,-2.24095 -2.48797,-0.0917 -4.91287,-0.67392 -7.36218,-1.01399 -1.97806,0.6357 0.6031,2.95014 1.97768,2.51093 2.54838,0.6993 -2.70476,1.9861 -0.4584,2.76445 1.84621,0.56988 4.76556,0.27059 5.8937,1.59495 -0.86719,2.22371 1.6722,2.65782 3.00716,3.53453 1.99202,0.47752 1.64876,2.37015 1.71496,3.76666 1.59471,1.07949 3.66818,0.88721 5.48224,1.36791 0.1772,1.14979 -2.96789,4.62565 2.87706,2.85746 -0.67066,1.79231 -1.1841,3.69172 1.11333,4.76745 1.18188,1.59156 3.69996,2.11927 4.00472,4.28366 0.33491,1.52223 -2.65778,2.32275 -0.27435,3.32175 1.33459,0.95316 2.2327,2.60698 4.11645,2.59402 0.63933,0.052 0.9468,0.73894 1.68229,0.38173 z"/>
    <g id="chains1" style="fill:#b3b3b3;">
      <path d="m 458.21022,209.21787 a 32.262344,32.262344 0 0 0 -32.15629,32.15629 32.262344,32.262344 0 0 0 32.15629,32.1563 32.262344,32.262344 0 0 0 32.1563,-32.1563 32.262344,32.262344 0 0 0 -32.1563,-32.15629 z m 0,14.3677 a 17.44308,17.44308 0 0 1 17.78859,17.78859 17.44308,17.44308 0 0 1 -17.78859,17.78859 17.44308,17.44308 0 0 1 -17.78859,-17.78859 17.44308,17.44308 0 0 1 17.78859,-17.78859 z"/>
      <path d="m 473.67645,272.61441 c -0.30594,0.9796 -0.38732,2.38774 0.28631,3.67327 l 6.83846,12.52895 c 1.12274,2.14259 4.06155,3.06043 6.20414,1.93769 l 5.14219,-2.69459 c 2.14256,-1.12275 3.06044,-4.06155 1.93769,-6.20411 l -6.73648,-12.8555 c -1.12274,-2.14259 -4.06156,-3.06044 -6.20414,-1.9377 l -5.1422,2.6946 c -1.28554,0.67363 -1.91803,1.55126 -2.32597,2.85739 z m 4.57145,1.42778 c 0.10185,-0.32644 0.6325,-0.87763 1.06103,-1.10218 l 2.57108,-1.3473 v 0 c 0.85704,-0.44908 2.16317,-0.0411 2.61227,0.81594 l 5.16463,9.8559 c 0.34711,1.18354 0.0411,2.16314 -0.81594,2.61224 l -2.57112,1.34729 c -0.95901,0.77564 -1.93858,0.46967 -2.61223,-0.81594 l -5.16464,-9.85586 c -0.22456,-0.42853 -0.34711,-1.18357 -0.24514,-1.5101 z"/>
      <path d="m 485.93504,298.28107 c -0.879,1.04866 -1.49597,2.31708 -1.14919,3.50058 l 1.0089,14.23805 c 0.47402,2.6294 2.57117,4.38768 5.24295,4.39558 l 5.78312,-0.50842 c 2.40963,-0.21182 4.38767,-2.57114 4.17582,-4.98078 l -1.27107,-14.45784 c -0.21182,-2.40964 -2.57118,-4.38764 -4.98078,-4.17579 l -5.78313,0.50842 c -1.22598,-0.13517 -2.36725,0.69374 -3.02662,1.4802 z m 3.4503,3.33905 c 0.4397,-0.52424 0.65936,-0.78643 1.40342,-0.60905 l 2.89156,-0.2542 c 1.18363,-0.34688 1.97011,0.31235 1.83492,1.53861 l 1.23663,11.30411 c 0.0847,0.96384 -0.79436,2.01245 -1.7583,2.09715 l -2.89156,0.25419 c -0.96383,0.0847 -2.01244,-0.79437 -2.09715,-1.75827 l -0.97447,-11.08432 c -0.0847,-0.96387 0.13518,-1.22602 0.3547,-1.4882 z"/>
      <path d="m 489.30816,326.43396 c -0.82023,0.0171 -1.57717,0.2422 -2.15139,0.52784 -1.22502,0.60971 -1.99048,1.3767 -2.45209,2.75275 l -3.18703,8.99316 2.07124,-0.20696 1.91757,1.7572 2.71266,-8.09121 c 0.15394,-0.4586 0.46192,-0.61141 1.0757,-0.91532 0.30582,-0.15257 0.61045,-0.3007 1.06902,-0.1471 l 3.06008,0.76837 c 1.06965,0.61421 1.52387,1.53467 1.21603,2.45205 l -2.73271,8.15802 2.16477,-0.1471 1.67705,1.61691 3.17366,-9.46756 c 1.07563,-2.44573 -0.29488,-5.20368 -3.04671,-6.12687 l -5.04446,-1.6904 c -0.51598,-0.17309 -1.03123,-0.24356 -1.52339,-0.23398 z"/>
      <path d="m 469.00822,255.1642 c -1.20661,0.80654 -1.54001,2.48417 -0.73347,3.69079 l 10.75389,16.08826 c 0.80654,1.20662 2.48417,1.54001 3.69079,0.73347 1.20662,-0.80654 1.54002,-2.48417 0.73348,-3.69079 l -10.75389,-16.08826 c -0.80654,-1.20661 -2.48418,-1.54001 -3.6908,-0.73347 z"/>
      <path d="m 485.97901,281.75368 c -1.37956,0.45088 -2.15351,1.9762 -1.70263,3.35576 l 6.01134,18.39407 c 0.45084,1.37955 1.9762,2.15347 3.35572,1.70261 1.37955,-0.45088 2.15349,-1.97616 1.70261,-3.35572 l -6.01132,-18.3941 c -0.45081,-1.37955 -1.9762,-2.15347 -3.35572,-1.70262 z"/>
      <path d="m 493.45285,311.3216 c -1.44377,-0.14741 -2.55372,1.19833 -2.70113,2.6421 l -1.96413,19.25149 c -0.14742,1.44384 0.93315,2.76982 2.37701,2.91715 1.44387,0.14743 2.76982,-0.93315 2.91717,-2.37697 l 1.96414,-19.25155 c -0.0688,-1.70905 -0.93319,-2.7698 -2.59312,-3.1823 z"/>
    </g>
    <g id="fingers1">
      <path d="m 436.65866,233.16404 c -1.02626,3.42089 -4.44714,8.55221 1.02627,9.57848 6.15759,0 9.57847,-6.49968 11.97309,-11.63101 1.02626,-4.44714 6.49967,-10.60473 10.94682,-5.8155 2.39462,3.76297 5.8155,8.21012 10.26265,7.52595 4.10506,-3.0788 10.26265,4.44714 4.78924,-7.52595 -1.36836,-3.42088 -1.36836,-8.89429 -7.18386,-8.5522 -7.86803,0.68417 -19.84112,-2.05253 -23.262,-1.36836 -4.44715,1.02627 -7.52594,3.76298 -7.18385,8.8943 0,1.71044 -0.68418,6.15759 -1.36836,8.89429 z"/>
      <path d="m 468.47287,264.29408 c 1.71044,-5.47342 -5.47341,-6.84177 -11.28891,-8.8943 -3.76297,-0.34209 -6.84177,-3.42088 -10.26265,-4.10506 -3.42088,-1.02626 -4.44715,-1.36835 -7.86803,1.36835 -2.05253,5.13133 1.02627,7.18386 6.15759,8.55221 4.44715,2.73671 3.07879,0.68418 7.18385,2.73671 4.10506,2.05253 5.8155,1.36835 9.57848,2.7367 2.39461,1.02627 5.8155,1.02627 6.49967,-2.39461 z"/>
      <path d="m 482.49849,233.50613 c -4.10506,-4.44715 -4.78923,-4.44715 -11.631,-6.84176 -3.42088,-1.71044 -6.84177,-4.10506 -10.26265,-5.13133 -3.42088,-0.68417 -7.52594,-4.44714 -10.60473,-1.36835 -2.39462,5.13132 -4.78924,8.55221 6.84176,12.65727 4.78924,1.36835 7.18385,2.7367 11.28891,5.13132 4.10506,1.71044 6.49968,2.73671 10.60474,2.05253 2.73671,-0.34209 4.44715,-5.47341 3.76297,-6.49968 z"/>
      <path d="m 474.63046,254.03143 c -1.02626,-6.49968 -7.52594,-5.47341 -13.34144,-7.86803 -3.76297,-0.34209 -6.84177,-3.0788 -10.26265,-4.10506 -3.42088,-1.02627 -6.49968,-2.39462 -9.57847,0.68418 -2.39462,5.13132 -0.34209,8.21011 4.44715,9.57847 4.10506,2.7367 7.52594,2.39461 11.631,4.44714 4.10506,1.71045 5.8155,4.10506 9.92056,4.10506 5.8155,0 7.52594,-3.42088 7.18385,-6.84176 z"/>
      <path d="m 480.10387,245.47922 c 1.36836,-6.49968 -8.21012,-6.49968 -14.70979,-9.23638 -3.42088,-1.71044 -6.84177,-4.10506 -10.26265,-4.78924 -3.76297,-1.36835 -6.49968,-2.7367 -9.92056,0 -2.05253,5.47341 0.34209,9.57847 5.8155,10.94683 4.10506,2.39461 7.18385,2.7367 11.28891,5.13132 4.10506,1.71044 9.92056,2.73671 14.02562,3.76297 3.42088,0.68418 3.42088,-3.76297 3.76297,-5.8155 z"/>
    </g>
  </g>
  <g id="arm2">
    <path d="m 263.77426,90.800115 c -12.15529,0.641997 -33.72573,16.133365 -39.54123,21.264685 -7.52595,-0.68418 -21.55156,6.15759 -28.73542,10.26265 -15.05188,8.89429 -20.52529,16.07815 -20.52529,16.07815 -5.47342,2.7367 -11.631,10.60473 -15.05189,17.10441 -4.44714,8.21012 -4.78923,18.47276 -5.47341,27.70915 -5.8155,2.7367 -14.70979,8.89429 -20.18321,15.73606 -7.52594,9.92056 -10.60473,22.57782 -12.31517,32.84047 30.78794,31.47212 31.13003,29.0775 49.26071,20.18321 7.86803,-3.76297 14.02561,-10.94683 17.78859,-17.4465 3.42088,-5.8155 5.47341,-12.31518 6.49967,-19.15695 6.84177,-5.13132 14.02562,-10.60473 18.47277,-17.4465 5.8155,-8.89429 6.15759,-21.20947 10.60473,-30.78794"/>
    <path style="fill:none;" d="m 195.49764,215.37545 c 0.38974,-17.41366 -15.72606,-25.95071 -28.12984,-27.50523"/>
    <path style="fill:#502d16;" d="m 126.20521,215.74063 c -1.08032,-0.73904 -2.55013,-2.75247 -2.45007,-3.51263 1.60025,0.26136 1.49126,-1.84608 1.57377,-2.31173 3.53398,0.28462 1.17319,-2.82955 1.97214,-4.55678 3.31549,-0.9468 2.55051,-3.10305 0.78947,-5.32509 3.66315,1.39726 4.18145,-0.77832 5.91447,-1.40536 2.10425,-2.4135 -0.57881,-2.96235 0.42032,-4.04013 1.15619,-1.7229 4.13896,-0.69697 5.23823,-2.44077 -1.04648,-2.25029 0.99113,-3.96261 2.95222,-4.7032 1.24544,-0.27333 2.78361,-0.7007 1.85792,-2.19487 3.37867,0.37708 5.82586,0.22714 5.50625,-2.24095 2.48797,-0.0917 4.91287,-0.67392 7.36218,-1.01399 1.97806,0.6357 -0.6031,2.95014 -1.97768,2.51093 -2.54838,0.6993 2.70476,1.9861 0.4584,2.76445 -1.84621,0.56988 -4.76556,0.27059 -5.8937,1.59495 0.86719,2.22371 -1.6722,2.65782 -3.00716,3.53453 -1.99202,0.47752 -1.64876,2.37015 -1.71496,3.76666 -1.59471,1.07949 -3.66818,0.88721 -5.48224,1.36791 -0.1772,1.14979 2.96789,4.62565 -2.87706,2.85746 0.67066,1.79231 1.1841,3.69172 -1.11333,4.76745 -1.18188,1.59156 -3.69996,2.11927 -4.00472,4.28366 -0.33491,1.52223 2.65778,2.32275 0.27435,3.32175 -1.33459,0.95316 -2.2327,2.60698 -4.11645,2.59402 -0.63933,0.052 -0.9468,0.73894 -1.68229,0.38173 z"/>
    <g id="chains2" style="fill:#b3b3b3;">
      <path d="m 141.78976,209.21787 a 32.262344,32.262344 0 0 1 32.15629,32.15629 32.262344,32.262344 0 0 1 -32.15629,32.1563 32.262344,32.262344 0 0 1 -32.1563,-32.1563 32.262344,32.262344 0 0 1 32.1563,-32.15629 z m 0,14.3677 a 17.44308,17.44308 0 0 0 -17.78859,17.78859 17.44308,17.44308 0 0 0 17.78859,17.78859 17.44308,17.44308 0 0 0 17.78859,-17.78859 17.44308,17.44308 0 0 0 -17.78859,-17.78859 z"/>
      <path d="m 126.32354,272.61441 c 0.30594,0.9796 0.38732,2.38774 -0.28631,3.67327 l -6.83846,12.52895 c -1.12274,2.14259 -4.06155,3.06043 -6.20414,1.93769 l -5.14219,-2.69459 c -2.14256,-1.12275 -3.06044,-4.06155 -1.93769,-6.20411 l 6.73648,-12.8555 c 1.12274,-2.14259 4.06156,-3.06044 6.20414,-1.9377 l 5.1422,2.6946 c 1.28554,0.67363 1.91803,1.55126 2.32597,2.85739 z m -4.57145,1.42778 c -0.10185,-0.32644 -0.6325,-0.87763 -1.06103,-1.10218 l -2.57108,-1.3473 v 0 c -0.85704,-0.44908 -2.16317,-0.0411 -2.61227,0.81594 l -5.16463,9.8559 c -0.34711,1.18354 -0.0411,2.16314 0.81594,2.61224 l 2.57112,1.34729 c 0.95901,0.77564 1.93858,0.46967 2.61223,-0.81594 l 5.16464,-9.85586 c 0.22456,-0.42853 0.34711,-1.18357 0.24514,-1.5101 z"/>
      <path d="m 114.06495,298.28107 c 0.879,1.04866 1.49597,2.31708 1.14919,3.50058 l -1.0089,14.23805 c -0.47402,2.6294 -2.57117,4.38768 -5.24295,4.39558 l -5.78312,-0.50842 c -2.40963,-0.21182 -4.387665,-2.57114 -4.175815,-4.98078 l 1.271065,-14.45784 c 0.21182,-2.40964 2.57118,-4.38764 4.98078,-4.17579 l 5.78313,0.50842 c 1.22598,-0.13517 2.36725,0.69374 3.02662,1.4802 z m -3.4503,3.33905 c -0.4397,-0.52424 -0.65936,-0.78643 -1.40342,-0.60905 l -2.89156,-0.2542 c -1.18363,-0.34688 -1.97011,0.31235 -1.83492,1.53861 l -1.23663,11.30411 c -0.0847,0.96384 0.79436,2.01245 1.7583,2.09715 l 2.89156,0.25419 c 0.96383,0.0847 2.01244,-0.79437 2.09715,-1.75827 l 0.97447,-11.08432 c 0.0847,-0.96387 -0.13518,-1.22602 -0.3547,-1.4882 z"/>
      <path d="m 110.69181,326.43396 c 0.82023,0.0171 1.57717,0.2422 2.15139,0.52784 1.22502,0.60971 1.99048,1.3767 2.45209,2.75275 l 3.18703,8.99316 -2.07124,-0.20696 -1.91757,1.7572 -2.71266,-8.09121 c -0.15394,-0.4586 -0.46192,-0.61141 -1.0757,-0.91532 -0.30582,-0.15257 -0.61045,-0.3007 -1.06902,-0.1471 l -3.06008,0.76837 c -1.06965,0.61421 -1.52387,1.53467 -1.21603,2.45205 l 2.73271,8.15802 -2.16477,-0.1471 -1.67705,1.61691 -3.17366,-9.46756 c -1.07563,-2.44573 0.29488,-5.20368 3.04671,-6.12687 l 5.04446,-1.6904 c 0.51598,-0.17309 1.03123,-0.24356 1.52339,-0.23398 z"/>
      <path d="m 130.99177,255.1642 c 1.20661,0.80654 1.54001,2.48417 0.73347,3.69079 l -10.75389,16.08826 c -0.80654,1.20662 -2.48417,1.54001 -3.69079,0.73347 -1.20662,-0.80654 -1.54002,-2.48417 -0.73348,-3.69079 l 10.75389,-16.08826 c 0.80654,-1.20661 2.48418,-1.54001 3.6908,-0.73347 z"/>
      <path d="m 114.02098,281.75368 c 1.37956,0.45088 2.15351,1.9762 1.70263,3.35576 l -6.01134,18.39407 c -0.45084,1.37955 -1.9762,2.15347 -3.35572,1.70261 -1.37955,-0.45088 -2.15349,-1.97616 -1.70261,-3.35572 l 6.01132,-18.3941 c 0.45081,-1.37955 1.9762,-2.15347 3.35572,-1.70262 z"/>
      <path d="m 106.54714,311.3216 c 1.44377,-0.14741 2.55372,1.19833 2.70113,2.6421 l 1.96413,19.25149 c 0.14742,1.44384 -0.93315,2.76982 -2.37701,2.91715 -1.44387,0.14743 -2.76982,-0.93315 -2.91717,-2.37697 l -1.96414,-19.25155 c 0.0688,-1.70905 0.93319,-2.7698 2.59312,-3.1823 z"/>
    </g>
    <g id="fingers2">
      <path d="m 163.34132,233.16404 c 1.02626,3.42089 4.44714,8.55221 -1.02627,9.57848 -6.15759,0 -9.57847,-6.49968 -11.97309,-11.63101 -1.02626,-4.44714 -6.49967,-10.60473 -10.94682,-5.8155 -2.39462,3.76297 -5.8155,8.21012 -10.26265,7.52595 -4.10506,-3.0788 -10.26265,4.44714 -4.78924,-7.52595 1.36836,-3.42088 1.36836,-8.89429 7.18386,-8.5522 7.86803,0.68417 19.84112,-2.05253 23.262,-1.36836 4.44715,1.02627 7.52594,3.76298 7.18385,8.8943 0,1.71044 0.68418,6.15759 1.36836,8.89429 z"/>
      <path d="m 131.52711,264.29408 c -1.71044,-5.47342 5.47341,-6.84177 11.28891,-8.8943 3.76297,-0.34209 6.84177,-3.42088 10.26265,-4.10506 3.42088,-1.02626 4.44715,-1.36835 7.86803,1.36835 2.05253,5.13133 -1.02627,7.18386 -6.15759,8.55221 -4.44715,2.73671 -3.07879,0.68418 -7.18385,2.73671 -4.10506,2.05253 -5.8155,1.36835 -9.57848,2.7367 -2.39461,1.02627 -5.8155,1.02627 -6.49967,-2.39461 z"/>
      <path d="m 117.50149,233.50613 c 4.10506,-4.44715 4.78923,-4.44715 11.631,-6.84176 3.42088,-1.71044 6.84177,-4.10506 10.26265,-5.13133 3.42088,-0.68417 7.52594,-4.44714 10.60473,-1.36835 2.39462,5.13132 4.78924,8.55221 -6.84176,12.65727 -4.78924,1.36835 -7.18385,2.7367 -11.28891,5.13132 -4.10506,1.71044 -6.49968,2.73671 -10.60474,2.05253 -2.73671,-0.34209 -4.44715,-5.47341 -3.76297,-6.49968 z"/>
      <path d="m 125.36952,254.03143 c 1.02626,-6.49968 7.52594,-5.47341 13.34144,-7.86803 3.76297,-0.34209 6.84177,-3.0788 10.26265,-4.10506 3.42088,-1.02627 6.49968,-2.39462 9.57847,0.68418 2.39462,5.13132 0.34209,8.21011 -4.44715,9.57847 -4.10506,2.7367 -7.52594,2.39461 -11.631,4.44714 -4.10506,1.71045 -5.8155,4.10506 -9.92056,4.10506 -5.8155,0 -7.52594,-3.42088 -7.18385,-6.84176 z"/>
      <path d="m 119.89611,245.47922 c -1.36836,-6.49968 8.21012,-6.49968 14.70979,-9.23638 3.42088,-1.71044 6.84177,-4.10506 10.26265,-4.78924 3.76297,-1.36835 6.49968,-2.7367 9.92056,0 2.05253,5.47341 -0.34209,9.57847 -5.8155,10.94683 -4.10506,2.39461 -7.18385,2.7367 -11.28891,5.13132 -4.10506,1.71044 -9.92056,2.73671 -14.02562,3.76297 -3.42088,0.68418 -3.42088,-3.76297 -3.76297,-5.8155 z"/>
    </g>
  </g>
  <g id="head">
    <path id="face" d="m 332.26953,106.23483 c 4.72064,-9.152606 8.90609,-13.220241 10.97734,-20.913977 3.73242,-13.864256 5.64473,-28.790422 4.46459,-35.935859 -3.06114,-18.53465 -22.04899,-25.175746 -47.71147,-25.175746 -25.66249,0 -44.65034,6.641096 -47.71148,25.175746 -1.18014,7.145437 0.73217,22.071603 4.46459,35.935859 2.07125,7.693736 6.2567,11.761371 10.97734,20.913977 6.14247,11.90932 22.42047,13.63642 32.26955,13.63642 9.84907,0 26.12707,-1.7271 32.26954,-13.63642 z"/>
    <path id="mouth" d="m 316.35534,105.30175 c 6.44015,-2.38696 6.42822,-8.962782 8.19312,-16.486876 1.7649,-7.524095 5.09475,-13.130237 0.22612,-18.613604 -3.35763,-3.781478 -14.90622,-6.518697 -24.77459,-6.518697 -9.86838,0 -21.41697,2.737219 -24.7746,6.518697 -4.86863,5.483367 -1.53878,11.089509 0.22612,18.613604 1.7649,7.524094 1.75297,14.099916 8.19312,16.486876 6.44012,2.38695 10.14069,-1.70801 16.35536,-1.70801 6.21466,0 9.91523,4.09496 16.35535,1.70801 z"/>
    <use xlink:href="#mouth" style="fill:#000000;stroke:none;"/>
    <g id="teeth" style="fill:#ffffff;" clip-path="url(#clip-mouth)">
      <path d="m 315.28007,102.58126 c 0.0889,-1.08702 0.10263,-1.90721 -0.0722,-2.999329 -0.19191,-1.201209 -0.89778,-1.769383 -2.72357,-3.50206 -2.2912,2.540929 -2.06207,6.187659 -1.78977,7.403609 0.27162,1.21606 1.7192,0.48861 2.4695,0.48994 1.84232,0.003 2.06491,-0.76836 2.11602,-1.39216 z"/>
      <path d="m 324.45433,67.447015 c 0.70881,0.212095 0.51683,0.768946 0.4727,1.294154 -0.0691,0.814204 -0.11426,1.762268 -0.42819,2.547326 -0.34493,0.863533 -0.0831,1.51268 -1.15801,1.600939 -0.93951,0.07731 -1.88391,-0.183702 -2.81118,-0.343936 -0.83476,-0.143335 -2.08324,-0.04994 -2.14499,-0.984564 -0.0623,-0.93479 0.30548,-3.353902 0.75454,-4.215725 0.44828,-0.861994 1.33812,-0.507214 2.29333,-0.489117 0.95487,0.0171 2.01254,0.289406 3.02235,0.592804 z"/>
      <path d="m 318.69042,66.323529 c 0.6812,0.276407 0.43366,1.0081 0.33593,1.698057 -0.15189,1.069539 -0.27436,3.468912 -1.11651,5.222901 -0.46928,0.977381 -1.5748,1.952572 -3.35896,3.927345 -1.08114,-1.04207 -1.13307,-3.184261 -1.80527,-4.932229 -0.97061,-2.524132 0.37041,-5.369041 0.68291,-6.032316 0.5339,-1.133236 1.37937,-0.670082 2.32483,-0.65226 0.94546,0.01711 1.96653,0.373732 2.93707,0.768502 z"/>
      <path d="m 312.7741,65.041963 c 0.69834,0.229884 0.50085,0.976457 0.45005,1.671444 -0.0794,1.077372 -0.13717,2.329381 -0.45867,3.385647 -0.35307,1.161835 -0.10297,1.998411 -1.16765,2.190391 -0.93058,0.167966 -1.8614,-0.109126 -2.77663,-0.255198 -0.82405,-0.129651 -2.0605,0.08108 -2.1088,-1.145995 -0.0486,-1.227002 0.34797,-4.439519 0.80405,-5.606416 0.45535,-1.167034 1.33086,-0.762515 2.27536,-0.807808 0.94454,-0.04516 1.98726,0.239804 2.98229,0.567935 z"/>
      <path d="m 306.1015,63.755369 c 0.78571,0.178571 1.141,1.028591 1.15794,1.794664 0.0274,1.187696 0.17788,2.361709 -0.0623,3.551697 -0.2641,1.308796 -0.48232,2.388768 -1.62373,2.710468 -0.99766,0.281197 -2.04185,0.07594 -3.05546,0.01368 -0.91238,-0.05713 -2.23928,0.304459 -2.41983,-1.033414 -0.18097,-1.338112 -0.0828,-4.896241 0.29283,-6.221456 0.37527,-1.325216 1.37235,-0.974165 2.398,-1.122974 1.02565,-0.148808 2.19275,0.05371 3.31244,0.308906 z"/>
      <path d="m 319.2848,102.59077 c 0.56998,-0.14436 0.4364,-0.59305 0.41912,-1.01159 -0.0274,-0.64884 -0.0308,-1.40314 -0.25383,-2.037137 -0.24459,-0.697347 -0.0137,-1.203911 -0.86531,-1.310369 -0.74336,-0.09339 -1.50208,0.0821 -2.24379,0.177886 -0.66765,0.08552 -1.65581,-0.03079 -1.73651,0.709183 -0.0811,0.740143 0.12931,2.673417 0.45645,3.372927 0.32669,0.6996 1.04532,0.44803 1.80441,0.46602 0.75879,0.0171 1.60778,-0.16146 2.41987,-0.36843 z"/>
      <path d="m 310.21114,104.34787 c 0.62206,-0.12281 0.52843,-0.7645 0.55535,-1.34875 0.0414,-0.90578 0.1187,-1.955 -0.0499,-2.86708 -0.18472,-1.003137 0.11426,-1.675751 -0.779,-1.940698 -0.78085,-0.231594 -1.60703,-0.09236 -2.40652,-0.06123 -0.71969,0.02737 -1.75844,-0.270592 -1.92425,0.747292 -0.16591,1.017884 -0.15188,3.734506 0.12076,4.752046 0.27196,1.01758 1.06372,0.76672 1.86893,0.89761 0.80528,0.13067 1.72816,-0.003 2.61458,-0.1796 z"/>
      <path d="m 304.77471,104.51584 c 0.61836,-0.12008 0.91707,-0.77538 0.9493,-1.37356 0.0499,-0.92736 0.19772,-1.84098 0.0393,-2.77673 -0.17378,-1.029204 -0.31746,-1.878473 -1.20152,-2.158198 -0.77254,-0.244593 -1.59355,-0.110153 -2.38713,-0.08621 -0.71421,0.02395 -1.74215,-0.293512 -1.91644,0.747428 -0.17447,1.041009 -0.1861,3.82376 0.0746,4.86857 0.26033,1.04477 1.04813,0.79518 1.84588,0.93691 0.79771,0.14163 1.71468,0.0137 2.59597,-0.15907 z"/>
      <path d="m 275.54566,67.447015 c -0.70881,0.212095 -0.51683,0.768946 -0.4727,1.294154 0.0691,0.814204 0.11426,1.762268 0.42819,2.547326 0.34493,0.863533 0.0831,1.51268 1.15801,1.600939 0.93951,0.07731 1.88391,-0.183702 2.81118,-0.343936 0.83476,-0.143335 2.08324,-0.04994 2.14499,-0.984564 0.0623,-0.93479 -0.30548,-3.353902 -0.75454,-4.215725 -0.44828,-0.861994 -1.33812,-0.507214 -2.29333,-0.489117 -0.95487,0.0171 -2.01254,0.289406 -3.02235,0.592804 z"/>
      <path d="m 281.30957,66.323529 c -0.6812,0.276407 -0.43366,1.0081 -0.33593,1.698057 0.15189,1.069539 0.27436,3.468912 1.11651,5.222901 0.46928,0.977381 1.5748,1.952572 3.35896,3.927345 1.08114,-1.04207 1.13307,-3.184261 1.80527,-4.932229 0.97061,-2.524132 -0.37041,-5.369041 -0.68291,-6.032316 -0.5339,-1.133236 -1.37937,-0.670082 -2.32483,-0.65226 -0.94546,0.01711 -1.96653,0.373732 -2.93707,0.768502 z"/>
      <path d="m 287.22589,65.041963 c -0.69834,0.229884 -0.50085,0.976457 -0.45005,1.671444 0.0794,1.077372 0.13717,2.329381 0.45867,3.385647 0.35307,1.161835 0.10297,1.998411 1.16765,2.190391 0.93058,0.167966 1.8614,-0.109126 2.77663,-0.255198 0.82405,-0.129651 2.0605,0.08108 2.1088,-1.145995 0.0486,-1.227002 -0.34797,-4.439519 -0.80405,-5.606416 -0.45535,-1.167034 -1.33086,-0.762515 -2.27536,-0.807808 -0.94454,-0.04516 -1.98726,0.239804 -2.98229,0.567935 z"/>
      <path d="m 293.89849,63.755369 c -0.78571,0.178571 -1.141,1.028591 -1.15794,1.794664 -0.0274,1.187696 -0.17788,2.361709 0.0623,3.551697 0.2641,1.308796 0.48232,2.388768 1.62373,2.710468 0.99766,0.281197 2.04185,0.07594 3.05546,0.01368 0.91238,-0.05713 2.23928,0.304459 2.41983,-1.033414 0.18097,-1.338112 0.0828,-4.896241 -0.29283,-6.221456 -0.37527,-1.325216 -1.37235,-0.974165 -2.398,-1.122974 -1.02565,-0.148808 -2.19275,0.05371 -3.31244,0.308906 z"/>
      <path d="m 280.71519,102.59077 c -0.56998,-0.14436 -0.4364,-0.59305 -0.41912,-1.01159 0.0274,-0.64884 0.0308,-1.40314 0.25383,-2.037137 0.24459,-0.697347 0.0137,-1.203911 0.86531,-1.310369 0.74336,-0.09339 1.50208,0.0821 2.24379,0.177886 0.66765,0.08552 1.65581,-0.03079 1.73651,0.709183 0.0811,0.740143 -0.12931,2.673417 -0.45645,3.372927 -0.32669,0.6996 -1.04532,0.44803 -1.80441,0.46602 -0.75879,0.0171 -1.60778,-0.16146 -2.41987,-0.36843 z"/>
      <path d="m 284.71992,102.58126 c -0.0889,-1.08702 -0.10263,-1.90721 0.0722,-2.999329 0.19191,-1.201209 0.89778,-1.769383 2.72357,-3.50206 2.2912,2.540929 2.06207,6.187659 1.78977,7.403609 -0.27162,1.21606 -1.7192,0.48861 -2.4695,0.48994 -1.84232,0.003 -2.06491,-0.76836 -2.11602,-1.39216 z"/>
      <path d="m 289.78885,104.34787 c -0.62206,-0.12281 -0.52843,-0.7645 -0.55535,-1.34875 -0.0414,-0.90578 -0.1187,-1.955 0.05,-2.86708 0.18472,-1.003137 -0.11426,-1.675751 0.779,-1.940698 0.78085,-0.231594 1.60703,-0.09236 2.40652,-0.06123 0.71969,0.02737 1.75844,-0.270592 1.92425,0.747292 0.16591,1.017884 0.15188,3.734506 -0.12076,4.752046 -0.27196,1.01758 -1.06372,0.76672 -1.86893,0.89761 -0.80528,0.13067 -1.72816,-0.003 -2.61458,-0.1796 z"/>
      <path d="m 295.22528,104.51584 c -0.61836,-0.12008 -0.91707,-0.77538 -0.9493,-1.37356 -0.0499,-0.92736 -0.19772,-1.84098 -0.0393,-2.77673 0.17378,-1.029204 0.31746,-1.878473 1.20152,-2.158198 0.77254,-0.244593 1.59355,-0.110153 2.38713,-0.08621 0.71421,0.02395 1.74215,-0.293512 1.91644,0.747428 0.17447,1.041009 0.1861,3.82376 -0.0746,4.86857 -0.26033,1.04477 -1.04813,0.79518 -1.84588,0.93691 -0.79771,0.14163 -1.71468,0.0137 -2.59597,-0.15907 z"/>
    </g>
    <use xlink:href="#mouth" style="fill:none;"/>
    <g id="eyebrows" style="fill:#502d16;">
      <path d="m 306.23596,43.430709 c -1.55048,0.249724 -5.42237,-0.283249 -4.62938,2.811657 1.00704,3.930252 8.54201,-0.03763 10.92705,-0.990106 2.67626,-1.068615 5.26508,-1.663233 7.53286,-3.337481 1.89951,-1.402391 4.4495,-0.02737 6.65673,0.299327 2.19829,0.323615 4.18055,-0.411532 6.3274,0.151203 3.0714,0.804934 -0.23057,-2.592003 -1.48826,-3.508423 -1.6814,-1.225326 -2.93358,-2.400091 -5.13683,-2.279129 -2.04004,0.111863 -4.04112,0.334562 -5.94371,1.189065 -2.18239,0.980254 -4.87014,0.689958 -6.7701,2.416648 -1.01269,0.92032 -2.76473,0.813862 -3.64372,1.893185 -1.07867,1.324531 -2.5008,1.139496 -3.83204,1.354054 z"/>
      <path d="m 293.76401,43.430709 c 1.55048,0.249724 5.42237,-0.283249 4.62938,2.811657 -1.00704,3.930252 -8.54201,-0.03763 -10.92705,-0.990106 -2.67626,-1.068615 -5.26508,-1.663233 -7.53286,-3.337481 -1.89951,-1.402391 -4.4495,-0.02737 -6.65673,0.299327 -2.19829,0.323615 -4.18055,-0.411532 -6.3274,0.151203 -3.0714,0.804934 0.23057,-2.592003 1.48826,-3.508423 1.6814,-1.225326 2.93358,-2.400091 5.13683,-2.279129 2.04004,0.111863 4.04112,0.334562 5.94371,1.189065 2.18239,0.980254 4.87014,0.689958 6.7701,2.416648 1.01269,0.92032 2.76473,0.813862 3.64372,1.893185 1.07867,1.324531 2.5008,1.139496 3.83204,1.354054 z"/>
    </g>
    <path id="hair" style="fill:#502d16;" d="m 279.5332,21.560547 c -4.68613,4.80569 -12.2956,-0.1401 -15.21875,6.667969 -4.76426,-1.595705 -3.14989,5.321771 -7.20312,5.332031 -4.69797,3.928165 -9.47916,9.416582 -8.78516,15.814453 -0.72496,4.546045 2.98946,7.783011 6.74805,9.160156 1.02001,-2.419864 2.69058,0.935833 1.21484,0.882813 -2.88124,2.882778 0.0708,1.337252 -0.2207,3.107422 1.22262,7.149336 -2.91594,1.780889 -2.47266,4.755859 -1.57231,0.18052 -5.60861,5.200322 -2.67773,5.847656 2.14294,0.604298 2.27897,3.215661 1.97656,5.03711 -1.11818,2.249607 1.9085,3.637595 0.88867,6.013672 -1.1955,1.845942 1.03675,2.912058 2.53321,4.623046 0.56021,0.60837 0.90217,1.406213 1.27539,2.171875 -1.48056,2.404983 0.6691,7.341513 -0.24024,10.134771 0.67864,5.56187 10.99795,2.1931 7.99024,8.88671 -1.55917,5.83763 5.98941,0.26643 6.32226,5.16407 0.5508,5.54395 4.01485,0.8482 6.6543,1.96484 5.11689,4.78089 3.02336,0.50359 13.5293,7.31836 1.0835,-0.33244 1.57936,-3.72009 6.72481,-0.13993 6.97408,1.88611 4.39106,-2.32342 9.57987,0.13993 10.50594,-6.81477 8.41241,-2.53747 13.5293,-7.31836 2.63945,-1.11664 6.1035,3.57911 6.6543,-1.96484 0.33285,-4.89764 7.88143,0.67356 6.32226,-5.16407 -3.00771,-6.69361 7.3116,-3.32484 7.99024,-8.88671 -0.90934,-2.793258 1.24032,-7.729788 -0.24024,-10.134771 0.37322,-0.765662 0.71518,-1.563505 1.27539,-2.171875 1.49646,-1.710988 3.72871,-2.777104 2.53321,-4.623046 -1.01983,-2.376077 2.00685,-3.764065 0.88867,-6.013672 -0.30241,-1.821449 -0.16638,-4.432812 1.97656,-5.03711 2.93088,-0.647334 -1.10738,-5.667136 -2.67969,-5.847656 0.44328,-2.97497 -3.69332,2.393477 -2.4707,-4.755859 -0.29146,-1.77017 2.66054,-0.224644 -0.2207,-3.107422 -1.47574,0.05302 0.19483,-3.302677 1.21484,-0.882813 3.75859,-1.377145 7.47301,-4.614111 6.74805,-9.160156 0.694,-6.397871 -4.08719,-11.886288 -8.78516,-15.814453 -4.05323,-0.01026 -2.43886,-6.927736 -7.20312,-5.332031 -2.92315,-6.808069 -10.53262,-1.862279 -15.21875,-6.667969 -5.03194,-1.379558 -9.6071,-3.04714 -13.26958,0.755859 -5.46461,2.207023 -3.97734,-5.127174 -14.39454,0 -3.65737,1.500377 -8.79418,0.603169 -13.26948,-0.755859 z m 7.88086,8.28125 c 1.65643,-0.287794 3.15638,2.702513 4.70117,5.289062 -0.20505,-5.680513 5.87978,-2.127527 5.55274,1.589844 5.04257,0.578857 6.13837,-7.598128 10.2168,-1.589844 2.24698,-3.762253 4.39738,-8.37875 7.07617,-2.519531 3.53073,-1.596868 6.81479,-1.479322 9.17968,0.935547 3.1033,-1.481413 7.52654,-6.606431 9.04688,-0.386719 1.16372,4.998388 7.17789,2.475455 6.38086,7.736328 0.77196,4.110601 5.17225,3.723698 4.17578,8.646485 -0.0448,0.750063 -0.13482,1.675887 -0.23437,2.652343 -1.28098,1.32703 -2.68669,3.072615 -4.70313,2.806641 -1.40379,-1.519145 -3.18611,-0.01076 -4.75,0.527344 -1.6425,0.964758 -3.50388,0.458657 -5.21289,0.447265 -2.56391,1.210856 -5.17438,0.61669 -7.75,0.501954 -1.76182,0.285986 -3.67922,0.438769 -5.18359,1.476562 1.9199,1.156737 4.96632,0.717491 5.97265,3.107422 0.65455,2.008469 3.30774,1.225809 4.92383,1.703125 2.42206,0.127599 1.66173,3.084415 3.36133,4.029297 2.05537,1.366472 5.38003,0.607131 6.64062,3.126953 1.49568,2.246254 0.58216,4.963002 0.48829,7.435547 1.14832,2.448258 -2.39669,4.381752 -1.15626,6.808594 -1.45767,4.640154 -4.96492,6.933405 -5.20507,10.697265 -4.72773,2.57442 -7.76911,7.267929 -9.77539,12.085939 -1.61387,3.346 -3.95566,4.87421 -7.39649,3.17383 -3.10794,3.61532 -10.2711,3.67129 -10.99609,-1.88477 -0.36054,-1.94912 -1.55352,-2.25423 -2.76758,-1.69726 -1.21406,-0.55697 -2.30128,0.81164 -2.66182,2.76076 -0.1158,4.82302 -7.99276,4.43521 -11.10185,0.82127 -3.44083,1.70038 -5.78262,0.17217 -7.39649,-3.17383 -2.00628,-4.81801 -5.04766,-9.511519 -9.77539,-12.085939 -0.24015,-3.76386 -3.7474,-6.057111 -5.20507,-10.697265 1.24044,-2.426842 -2.30458,-4.360336 -1.15626,-6.808594 -0.0939,-2.472545 -1.00739,-5.189293 0.48829,-7.435547 1.26059,-2.519822 4.58525,-1.760481 6.64062,-3.126953 1.6996,-0.944882 0.93927,-3.901698 3.36133,-4.029297 1.61609,-0.477316 4.26928,0.305344 4.92383,-1.703125 1.00633,-2.389931 4.05275,-1.950685 5.97265,-3.107422 -1.50437,-1.037793 -3.42177,-1.190576 -5.18359,-1.476562 -2.57562,0.114736 -5.18609,0.708902 -7.75,-0.501954 -1.70901,0.01139 -3.57039,0.517493 -5.21289,-0.447265 -1.56389,-0.538102 -3.34621,-2.046489 -4.75,-0.527344 -2.01644,0.265974 -3.42215,-1.479611 -4.70313,-2.806641 -0.0996,-0.976456 -0.18957,-1.90228 -0.23437,-2.652343 -0.99647,-4.922787 3.40382,-4.535884 4.17578,-8.646485 -0.79703,-5.260873 5.21714,-2.73794 6.38086,-7.736328 1.52034,-6.219712 5.94358,-1.094694 9.04688,0.386719 2.36488,-2.414869 5.64895,-2.532415 9.17968,-0.935547 0.83712,-1.831006 1.62208,-2.638716 2.375,-2.769531 z"/>
    <g id="ear1">
      <path d="m 345.86603,58.223187 c 0.69765,-1.246775 1.17049,-2.830747 4.37692,-2.685804 3.53178,0.159755 3.39922,2.6453 3.72941,4.601806 0.40448,2.397012 -1.52349,4.925215 -4.22486,6.826542 -1.82494,1.284439 -4.87301,0.825938 -5.23378,-0.598073"/>
      <path style="fill:none;" d="m 347.58427,64.97594 c -0.092,-0.625269 -0.88081,-0.963457 -1.04193,-1.569432 -0.39963,-1.371432 2.65703,-1.250333 3.55861,-2.286142 1.2976,-1.354156 0.0383,-3.372101 -2.33777,-2.76462"/>
    </g>
    <g id="ear2">
      <path d="m 254.13394,58.223187 c -0.69765,-1.246775 -1.17049,-2.830747 -4.37692,-2.685804 -3.53178,0.159755 -3.39922,2.6453 -3.72941,4.601806 -0.40448,2.397012 1.52349,4.925215 4.22486,6.826542 1.82494,1.284439 4.87301,0.825938 5.23378,-0.598073"/>
      <path style="fill:none;" d="m 252.4157,64.97594 c 0.092,-0.625269 0.88081,-0.963457 1.04193,-1.569432 0.39963,-1.371432 -2.65703,-1.250333 -3.55861,-2.286142 -1.2976,-1.354156 -0.0383,-3.372101 2.33777,-2.76462"/>
    </g>
    <path id="nose" d="m 304.51779,60.37434 c -1.72266,-0.857752 -3.76674,-4.846262 -2.42602,-5.344513 1.21667,-0.452138 2.63076,0.119628 1.666,1.586126 -1.87081,2.844019 6.81484,4.238987 7.58396,0.269908 0.45484,-2.347307 -2.57757,-2.735235 -5.03328,-4.619628 -2.65803,-2.039633 -1.36367,-5.460995 -6.30846,-5.460995 -4.9448,0 -3.65044,3.421362 -6.30847,5.460995 -2.45571,1.884393 -5.48812,2.272321 -5.03328,4.619628 0.76912,3.969079 9.45477,2.574111 7.58396,-0.269908 -0.96476,-1.466498 0.44933,-2.038264 1.666,-1.586126 1.34072,0.498251 -0.70336,4.486761 -2.42602,5.344513"/>
    <g id="eye1">
      <path style="fill:#ffb380;" d="m 315.32192,49.250261 c 0,0 1.72676,3.565451 5.65054,3.947794 4.4607,0.143894 6.85214,-4.282626 6.85214,-4.282626 0,0 -2.56371,-5.222476 -7.02441,-4.315946 -4.71004,0.950268 -5.47827,4.650778 -5.47827,4.650778 z"/>
      <ellipse style="fill:#550000;stroke:none;" cx="321.23499" cy="49.106102" rx="3.3" ry="4.3"/>
      <ellipse style="fill:#000000;stroke:none;" cx="321.23499" cy="49.106102" rx="1.5" ry="2.5"/>
      <circle style="fill:#ffffff;stroke:none;" cx="322.24222" cy="48.15641" r="0.7"/>
    </g>
    <g id="eye2">
      <path style="fill:#ffb380;" d="m 284.67805,49.250261 c 0,0 -1.72676,3.565451 -5.65054,3.947794 -4.4607,0.143894 -6.85214,-4.282626 -6.85214,-4.282626 0,0 2.56371,-5.222476 7.02441,-4.315946 4.71004,0.950268 5.47827,4.650778 5.47827,4.650778 z"/>
      <ellipse style="fill:#550000;stroke:none;" cx="278.76498" cy="49.106102" rx="3.3" ry="4.3"/>
      <ellipse style="fill:#000000;stroke:none;" cx="278.76498" cy="49.106102" rx="1.5" ry="2.5"/>
      <circle style="fill:#ffffff;stroke:none;" cx="279.84305" cy="48.15641" r="0.7"/>
    </g>
  </g>
  <g id="clothes">
    <path id="cloth" style="fill:#c87137;" d="m 303.19542,373.33703 c 3.46204,-1.03625 5.38384,-4.5077 8.51005,-6.3392 1.29563,2.82797 4.0869,-1.11976 6.33261,-2.18766 3.06326,-1.26607 4.96756,-4.98251 6.77065,-6.87806 1.85876,2.28494 3.03483,10.5692 6.78241,7.20667 2.92198,-1.06068 6.78505,-8.10345 9.0681,-3.9401 2.50437,3.96583 8.14178,-2.63654 7.84039,-5.92535 1.42491,0.65291 3.67872,5.05709 4.45903,7.68974 -0.004,3.75038 2.52778,3.08331 4.43852,0.95432 3.38839,-1.9876 5.48337,-2.192 7.98232,-5.2179 1.969,2.5545 3.01787,4.53622 5.52801,7.18916 2.11636,-2.36326 2.67691,-7.30435 4.56606,-8.30414 2.68146,3.25063 7.37285,2.92038 9.25567,4.39533 3.63507,3.01325 -2.2251,-8.02526 -0.17035,-9.73823 4.99059,3.3407 6.64273,-0.007 8.69896,1.79781 -2.32066,-2.62905 -2.96734,-6.32617 -2.17561,-9.69369 2.34456,-0.38607 11.73977,4.09027 12.87938,1.56935 -0.30628,-4.72937 3.7207,0.41256 5.75322,1.07351 1.28415,-2.8914 2.05591,-1.81949 4.19159,-4.38655 -11.46471,-14.20808 -30.72073,-61.82523 -37.864,-61.19323 7.13765,-3.95967 1.37441,-50.705 7.04455,-71.68866 -9.34964,-4.34873 -0.65277,-15.2685 -1.25766,-15.93478 -2.03387,-2.24033 -2.25589,-3.69859 -0.49589,-6.51647 2.23019,-1.60603 -0.50564,-7.1674 2.50865,-5.47212 4.07187,1.74579 4.93252,1.60004 9.11698,1.13692 2.07192,2.2891 5.82259,-1.1625 4.61851,-3.12845 -1.87105,-3.58283 4.98584,-3.66965 9.57968,4.08685 2.03992,-3.72128 -0.50507,-9.88726 2.62148,-8.72909 2.35925,1.19847 3.01896,1.48145 7.91107,1.12697 -3.61061,-4.14549 -2.50475,-10.46004 -6.62504,-12.2864 3.83165,-0.10212 9.68717,1.46643 10.27675,4.44461 -0.36196,-3.73341 4.57113,-4.48905 7.02469,-6.30127 2.87839,-3.51478 5.39883,-1.16186 6.26863,2.4131 4.54751,3.57748 2.6934,-5.15904 1.9996,-7.4731 1.44851,-0.84085 4.47739,3.31114 7.14492,1.66448 -1.15184,-9.02816 -1.76647,-11.84214 -6.31303,-18.01407 -7.30012,-9.90989 -17.21053,-16.63086 -27.78841,-21.51824 -12.5453,-5.79641 -27.9746,-10.68356 -40.15551,-15.14589 -8.93535,-3.27337 -10.97354,-8.1118 -20.8509,-10.61565 -1.01802,2.97008 5.21479,12.50494 -0.68346,10.11204 -4.87658,3.36234 2.12991,10.6735 -4.10679,8.45337 -3.56712,1.20677 0.95985,17.22045 -4.2728,12.64995 -4.93448,-8.71879 -2.44138,9.67252 -5.27606,7.16383 3.95937,13.60519 -3.51841,4.30754 -5.17932,7.30441 -0.19916,4.09172 -3.1545,1.6609 -3.94667,4.94219 -5.49842,6.80788 -1.36962,9.02775 -1.02399,12.93735 -6.6837,-2.23764 -9.38523,1.46167 -9.15858,8.75477 -4.29759,4.78575 -6.34434,5.25338 -10.10942,6.00045 -3.12911,-2.70971 -6.76662,-4.10597 -11.68804,-8.09988 -2.04034,2.22887 -8.10167,9.2136 -8.2502,2.09943 -1.53447,-6.73367 -3.20298,-13.58827 -2.67643,-20.53843 -1.35184,-3.83693 -7.03607,5.86944 -7.50614,-1.15369 -0.79217,-3.28129 -3.74751,-0.85047 -3.94667,-4.94219 -1.66091,-2.99687 -0.01,-13.1754 -5.17932,-7.30441 -3.13696,3.22542 -4.49723,-6.02917 -5.27606,-7.16383 -5.23265,4.5705 -4.04266,-5.06606 -1.73213,-7.46106 -2.83687,1.21322 -9.37274,-1.80242 -1.30798,-9.03082 -4.23043,1.48953 -6.04658,-4.00595 -5.33948,-4.61144 -5.89825,2.3929 0.33456,-7.14196 -0.68346,-10.11204 -9.87736,2.50385 -11.91555,7.34228 -20.8509,10.61565 -12.18091,4.46233 -27.61021,9.34948 -40.15551,15.14589 -10.57788,4.88738 -20.48829,11.60835 -27.78841,21.51824 -4.54656,6.17193 -5.16119,8.98591 -6.31303,18.01407 2.66753,1.64666 5.69641,-2.50533 7.14492,-1.66448 -0.6938,2.31406 -2.54791,11.05058 1.9996,7.4731 0.8698,-3.57496 3.39024,-5.92788 6.26863,-2.4131 2.45356,1.81222 7.38665,2.56786 7.02469,6.30127 0.58958,-2.97818 2.02841,-8.1247 3.45502,-9.44831 0.70262,5.72619 1.16618,11.56225 0.19669,17.2901 0.38992,5.34759 5.55182,0.0715 7.91107,-1.12697 3.12655,-1.15817 5.3464,-6.14141 8.49046,-5.14323 2.515,2.39452 5.58175,6.20264 3.7107,9.78547 -1.20408,1.96595 -0.95363,4.43012 1.11829,2.14102 4.18446,0.46312 8.54533,1.5963 12.6172,-0.14949 3.01429,-1.69528 0.27846,3.86609 2.50865,5.47212 1.76,2.81788 1.53798,4.27614 -0.49589,6.51647 -0.60489,0.66628 8.09198,11.58605 -1.25766,15.93478 5.67014,20.98366 -0.0931,67.72899 7.04455,71.68866 -7.14327,-0.632 -26.39929,46.98515 -37.864,61.19323 2.13568,2.56706 9.44437,-1.97293 13.58001,-4.59325 2.03252,-0.66095 6.28468,-4.37603 5.9784,0.35334 1.13961,2.52092 0.92122,5.59753 3.26578,5.9836 0.79173,3.36752 0.14505,7.06464 -2.17561,9.69369 2.05623,-1.80472 3.70837,1.54289 8.69896,-1.79781 2.05475,1.71297 -3.80542,12.75148 -0.17035,9.73823 1.88282,-1.47495 6.57421,-1.1447 9.25567,-4.39533 1.88915,0.99979 2.4497,5.94088 4.56606,8.30414 2.51014,-2.65294 2.8552,-7.07317 4.8242,-9.62767 2.49895,3.0259 5.29774,5.66881 8.68613,7.65641 1.91074,2.12899 4.44209,2.79606 4.43852,-0.95432 0.78031,-2.63265 3.03412,-7.03683 4.45903,-7.68974 -0.30139,3.28881 5.33602,9.89118 7.84039,5.92535 2.28305,-4.16335 6.14612,2.87942 9.0681,3.9401 3.74758,3.36253 4.92365,-4.92173 6.78241,-7.20667 1.80309,1.89555 3.70739,5.61199 6.77065,6.87806 2.24571,1.0679 5.03698,5.01563 6.33261,2.18766 1.36273,5.01743 0.94306,7.98759 6.7865,10.59459 -0.14105,-6.06612 4.52529,-12.29869 8.11439,-4.25539 z"/>
    <path id="stitches" style="fill:none;" d="m 373.25407,205.64029 c 0.70368,1.66159 0.004,3.35156 -0.23546,4.99327 0.25068,0.73337 -0.22476,1.9951 0.97237,1.81498 m -19.76536,-13.34244 c -0.41343,2.06919 -0.97585,4.14484 -1.73319,6.10537 m -18.08192,-10.79731 c -0.17283,1.69466 -0.81351,3.35282 -1.66356,4.81725 -0.40633,0.58753 -0.9795,1.13451 -1.08472,1.87105 m 51.42475,8.61769 c -6.53698,0.13167 -13.03826,0.0595 -18.123,-4.64867 -4.46623,-2.85995 -9.72471,-3.3253 -14.81265,-4.04389 -6.4513,-1.64553 -13.26109,-1.47785 -19.17641,-4.97176 -4.85523,-2.23495 -9.84014,-1.02295 -14.96723,-1.8581 m 0.44065,39.41124 c -0.061,1.68601 -0.48618,3.31465 -0.65654,4.92754 m -23.03767,-9.6328 c -2.06581,1.76093 -2.63793,3.89845 -3.0323,6.03984 m -24.54316,-14.77817 c 0.0711,1.69772 0.87939,3.71181 -0.12546,5.26291 m -18.26697,-10.15575 c -1.13459,2.38413 -4.61495,2.98341 -3.73414,6.47838 m -17.85418,-11.08786 c -0.75292,1.88683 -2.47074,2.51441 -2.39501,4.4378 m -5.88989,-5.38071 c 11.14405,4.03338 21.9281,8.63749 33.65527,10.81916 6.56208,1.50334 13.33231,2.57679 20.0446,2.08222 4.37705,2.05115 7.61456,6.27029 12.82793,6.71478 8.68066,2.3285 17.52286,3.96911 26.35294,5.51567 7.0016,-0.36079 12.74289,4.72895 19.87714,3.12752 2.28708,-0.0103 4.42013,-0.1228 6.69192,0.19126 m -12.48885,104.16112 c 1.30388,1.12105 4.88531,-0.65269 6.99331,1.88316 m 2.10511,-23.58405 c 2.24775,0.76024 4.06051,3.34177 6.55363,2.9269 m -0.23097,-21.02784 c 2.03318,1.55581 3.63249,2.74881 6.11002,3.13937 m -5.27848,-38.23928 c 2.41588,0.19587 5.46358,-0.35724 7.4222,0.66387 m -12.36827,-23.74684 c 2.36292,-0.5824 4.90143,-0.11821 6.84763,-1.66935 m -9.92238,-23.42528 c -2.61594,-0.0389 -4.41854,1.42723 -6.7647,1.89788 m -8.78851,-20.63139 c 1.71992,-0.40794 3.3194,-1.59167 5.15613,-1.21563 m -15.87953,-17.72942 c 2.89575,-0.50621 5.02143,-1.24726 7.89106,-1.30853 m -8.80581,-8.48954 c 8.1019,13.14013 14.47144,32.47048 23.31957,47.72101 2.5883,7.14808 9.65247,19.90549 12.47279,31.36549 3.64181,14.79803 3.06943,28.61895 6.55129,37.80015 -5.529,9.74459 -2.31643,16.80778 -9.01562,27.41153 -5.13132,18.92648 -10.83948,22.17075 -13.43371,41.85802"/>
    <path id="belt" style="fill:#a05a2c;" d="m 312.42715,296.47234 c 6.88989,-0.065 11.21019,0.60406 18.10396,-0.12247 3.87066,-0.40794 10.33493,-0.59151 14.1255,-1.22198 3.95992,-0.65862 9.58604,-1.40776 13.3814,-2.73821 7.00091,-2.45414 10.85747,-2.79086 16.86269,-4.87342 4.68457,-1.62457 9.32749,-1.77167 7.34215,-5.73073 -1.46411,-2.91962 -2.32781,-5.0482 -5.37944,-3.34761 -3.04059,1.69443 -9.8935,3.98249 -13.15518,5.17248 -3.62286,1.32176 -6.46057,1.38765 -10.26436,2.20555 -4.03702,0.86791 -8.37925,1.49328 -12.99522,1.99003 -8.62627,0.92798 -18.18226,0.62318 -26.85971,0.94508 -5.52041,0.20494 -8.07592,0.1314 -13.58894,0.064 -5.51302,0.0674 -8.06853,0.14094 -13.58894,-0.064 -8.67745,-0.3219 -18.23344,-0.0171 -26.85971,-0.94508 -4.61597,-0.49675 -8.9582,-1.12212 -12.99522,-1.99003 -3.80379,-0.8179 -6.6415,-0.88379 -10.26436,-2.20555 -3.26168,-1.18999 -10.11459,-3.47805 -13.15518,-5.17248 -3.05163,-1.70059 -3.91533,0.42799 -5.37944,3.34761 -1.98534,3.95906 2.65758,4.10616 7.34215,5.73073 6.00522,2.08256 9.86178,2.41928 16.86269,4.87342 3.79536,1.33045 9.42148,2.07959 13.3814,2.73821 3.79057,0.63047 10.25484,0.81404 14.1255,1.22198 6.89377,0.72653 11.21407,0.0575 18.10396,0.12247 4.47876,0.0421 7.94788,0.50194 12.42715,0.44598 4.47927,0.056 7.94839,-0.40388 12.42715,-0.44598 z"/>
  </g>
</g>
<use id="shine" xlink:href="#shield" style="fill:url(#rg);stroke:#000000;stroke-width:3;"/>
</svg>
