<?xml version="1.0" encoding="UTF-8" standalone="no"?>
<svg
   xmlns:dc="http://purl.org/dc/elements/1.1/"
   xmlns:cc="http://creativecommons.org/ns#"
   xmlns:rdf="http://www.w3.org/1999/02/22-rdf-syntax-ns#"
   xmlns:svg="http://www.w3.org/2000/svg"
   xmlns="http://www.w3.org/2000/svg"
   xmlns:xlink="http://www.w3.org/1999/xlink"
   xmlns:sodipodi="http://sodipodi.sourceforge.net/DTD/sodipodi-0.dtd"
   xmlns:inkscape="http://www.inkscape.org/namespaces/inkscape"
   width="600"
   height="660"
   id="svg2"
   version="1.1"
   inkscape:version="0.48.2 r9819"
   sodipodi:docname="House_Kellington.svg">
  <metadata
     id="metadata24">
    <rdf:RDF>
      <cc:Work
         rdf:about="">
        <dc:format>image/svg+xml</dc:format>
        <dc:type
           rdf:resource="http://purl.org/dc/dcmitype/StillImage" />
        <dc:title></dc:title>
      </cc:Work>
    </rdf:RDF>
  </metadata>
  <sodipodi:namedview
     pagecolor="#ffffff"
     bordercolor="#666666"
     borderopacity="1"
     objecttolerance="10"
     gridtolerance="10"
     guidetolerance="10"
     inkscape:pageopacity="0"
     inkscape:pageshadow="2"
     inkscape:window-width="1366"
     inkscape:window-height="715"
     id="namedview22"
     showgrid="false"
     inkscape:zoom="0.50568849"
     inkscape:cx="226.06484"
     inkscape:cy="272.93419"
     inkscape:window-x="-8"
     inkscape:window-y="-8"
     inkscape:window-maximized="1"
     inkscape:current-layer="layer2" />
  <defs
     id="defs4">
    <inkscape:path-effect
       is_visible="true"
       id="path-effect3136"
       effect="spiro" />
    <inkscape:path-effect
       effect="spiro"
       id="path-effect3132"
       is_visible="true" />
    <inkscape:path-effect
       effect="spiro"
       id="path-effect3101"
       is_visible="true" />
    <inkscape:path-effect
       is_visible="true"
       id="path-effect3085"
       effect="spiro" />
    <inkscape:path-effect
       is_visible="true"
       id="path-effect3083"
       effect="spiro" />
    <inkscape:path-effect
       is_visible="true"
       id="path-effect3081"
       effect="spiro" />
    <inkscape:path-effect
       is_visible="true"
       id="path-effect3079"
       effect="spiro" />
    <inkscape:path-effect
       is_visible="true"
       id="path-effect3077"
       effect="spiro" />
    <inkscape:path-effect
       is_visible="true"
       id="path-effect3075"
       effect="spiro" />
    <inkscape:path-effect
       effect="spiro"
       id="path-effect3049"
       is_visible="true" />
    <inkscape:path-effect
       is_visible="true"
       id="path-effect3045"
       effect="spiro" />
    <inkscape:path-effect
       effect="spiro"
       id="path-effect3041"
       is_visible="true" />
    <radialGradient
       id="rg"
       gradientUnits="userSpaceOnUse"
       cx="220"
       cy="220"
       r="405">
      <stop
         style="stop-color:#fff;stop-opacity:.3"
         offset="0"
         id="stop7" />
      <stop
         style="stop-color:#fff;stop-opacity:.2"
         offset=".2"
         id="stop9" />
      <stop
         style="stop-color:#666;stop-opacity:.1"
         offset=".6"
         id="stop11" />
      <stop
         style="stop-color:#000;stop-opacity:.13"
         offset="1"
         id="stop13" />
    </radialGradient>
    <path
       id="shield"
       d="m2,2v257c0,286 298,398 298,398c0,0 298-112 298-398V2z" />
    <radialGradient
       inkscape:collect="always"
       xlink:href="#rg-7"
       id="radialGradient3055-1"
       gradientUnits="userSpaceOnUse"
       cx="220"
       cy="220"
       r="405" />
    <radialGradient
       id="rg-7"
       gradientUnits="userSpaceOnUse"
       cx="220"
       cy="220"
       r="405">
      <stop
         style="stop-color:#fff;stop-opacity:.3"
         offset="0"
         id="stop7-4" />
      <stop
         style="stop-color:#fff;stop-opacity:.2"
         offset=".2"
         id="stop9-0" />
      <stop
         style="stop-color:#666;stop-opacity:.1"
         offset=".6"
         id="stop11-9" />
      <stop
         style="stop-color:#000;stop-opacity:.13"
         offset="1"
         id="stop13-4" />
    </radialGradient>
    <radialGradient
       r="405"
       cy="220"
       cx="220"
       gradientUnits="userSpaceOnUse"
       id="radialGradient3074"
       xlink:href="#rg-7"
       inkscape:collect="always" />
    <inkscape:path-effect
       is_visible="true"
       id="path-effect10120-1"
       effect="spiro" />
    <inkscape:path-effect
       effect="spiro"
       id="path-effect10118-3"
       is_visible="true" />
    <inkscape:path-effect
       effect="spiro"
       id="path-effect10116-9"
       is_visible="true" />
    <inkscape:path-effect
       effect="spiro"
       id="path-effect10114-7"
       is_visible="true" />
    <inkscape:path-effect
       effect="spiro"
       id="path-effect10112-7"
       is_visible="true" />
    <inkscape:path-effect
       effect="spiro"
       id="path-effect10110-2"
       is_visible="true" />
    <linearGradient
       inkscape:collect="always"
       xlink:href="#linearGradient4719-5"
       id="linearGradient4039"
       gradientUnits="userSpaceOnUse"
       gradientTransform="matrix(2.3257341,0,0,2.2943177,447.69485,-1820.2799)"
       x1="-145.25935"
       y1="984.24286"
       x2="-64.14286"
       y2="984.14789" />
    <linearGradient
       inkscape:collect="always"
       id="linearGradient4719-5">
      <stop
         style="stop-color:#666666;stop-opacity:1;"
         offset="0"
         id="stop4721-5" />
      <stop
         id="stop4809-1"
         offset="0.39344174"
         style="stop-color:#666666;stop-opacity:0.74901961;" />
      <stop
         style="stop-color:#666666;stop-opacity:0;"
         offset="1"
         id="stop4723-7" />
    </linearGradient>
    <radialGradient
       inkscape:collect="always"
       xlink:href="#linearGradient4801-8"
       id="radialGradient4041"
       gradientUnits="userSpaceOnUse"
       gradientTransform="matrix(-0.72153181,1.2650715,-2.2729984,-1.2616144,1712.0113,1733.7841)"
       cx="-307.14288"
       cy="782.36218"
       fx="-307.14288"
       fy="782.36218"
       r="63" />
    <linearGradient
       inkscape:collect="always"
       id="linearGradient4801-8">
      <stop
         style="stop-color:#000000;stop-opacity:1;"
         offset="0"
         id="stop4803-2" />
      <stop
         style="stop-color:#000000;stop-opacity:0;"
         offset="1"
         id="stop4805-4" />
    </linearGradient>
    <inkscape:path-effect
       effect="spiro"
       id="path-effect10108-4"
       is_visible="true" />
    <linearGradient
       inkscape:collect="always"
       xlink:href="#linearGradient4719-5"
       id="linearGradient4044"
       gradientUnits="userSpaceOnUse"
       gradientTransform="matrix(-2.4055369,0,0,-1.6485021,142.06168,1726.5307)"
       x1="-145.25935"
       y1="984.24286"
       x2="-64.14286"
       y2="984.14789" />
    <radialGradient
       inkscape:collect="always"
       xlink:href="#linearGradient4801-8"
       id="radialGradient4046"
       gradientUnits="userSpaceOnUse"
       gradientTransform="matrix(0.74628962,-0.90897301,2.3509914,0.90648896,-1165.637,-827.11785)"
       cx="-307.14288"
       cy="782.36218"
       fx="-307.14288"
       fy="782.36218"
       r="63" />
    <inkscape:path-effect
       effect="spiro"
       id="path-effect10102-7"
       is_visible="true" />
    <linearGradient
       inkscape:collect="always"
       xlink:href="#linearGradient4719-5"
       id="linearGradient4049"
       gradientUnits="userSpaceOnUse"
       gradientTransform="matrix(2.334989,0,0,-1.6146975,449.44065,1692.189)"
       x1="-145.25935"
       y1="984.24286"
       x2="-64.14286"
       y2="984.14789" />
    <radialGradient
       inkscape:collect="always"
       xlink:href="#linearGradient4801-8"
       id="radialGradient4051"
       gradientUnits="userSpaceOnUse"
       gradientTransform="matrix(-0.72440295,-0.89033332,-2.2820431,0.88790031,1718.7881,-809.09364)"
       cx="-307.14288"
       cy="782.36218"
       fx="-307.14288"
       fy="782.36218"
       r="63" />
    <inkscape:path-effect
       is_visible="true"
       id="path-effect10096-8"
       effect="spiro" />
    <linearGradient
       inkscape:collect="always"
       xlink:href="#linearGradient4719-5"
       id="linearGradient4054"
       gradientUnits="userSpaceOnUse"
       gradientTransform="matrix(-2.409599,0,0,2.2818507,139.61083,-1810.8163)"
       x1="-145.25935"
       y1="984.24286"
       x2="-64.14286"
       y2="984.14789" />
    <radialGradient
       inkscape:collect="always"
       xlink:href="#linearGradient4801-8"
       id="radialGradient4056"
       gradientUnits="userSpaceOnUse"
       gradientTransform="matrix(0.74754985,1.2581972,2.3549614,-1.2547588,-1170.296,1723.935)"
       cx="-307.14288"
       cy="782.36218"
       fx="-307.14288"
       fy="782.36218"
       r="63" />
    <inkscape:path-effect
       is_visible="true"
       id="path-effect10090-3"
       effect="spiro" />
    <inkscape:path-effect
       effect="spiro"
       id="path-effect10084-1"
       is_visible="true" />
    <inkscape:path-effect
       effect="spiro"
       id="path-effect10082-1"
       is_visible="true" />
    <radialGradient
       inkscape:collect="always"
       xlink:href="#linearGradient4801-8"
       id="radialGradient4061"
       gradientUnits="userSpaceOnUse"
       gradientTransform="matrix(-0.76516322,1.2901254,-2.4104477,-1.2865998,1806.8444,1757.4704)"
       cx="-307.14288"
       cy="782.36218"
       fx="-307.14288"
       fy="782.36218"
       r="63" />
    <inkscape:path-effect
       effect="spiro"
       id="path-effect10080-4"
       is_visible="true" />
    <inkscape:path-effect
       is_visible="true"
       id="path-effect3075-1"
       effect="spiro" />
    <inkscape:path-effect
       effect="spiro"
       id="path-effect3101-7"
       is_visible="true" />
    <linearGradient
       inkscape:collect="always"
       xlink:href="#grad1-7-7"
       id="linearGradient3085-8-8"
       gradientUnits="userSpaceOnUse"
       gradientTransform="matrix(0.77469594,0,0,0.30982404,152.68996,-13.619206)"
       x1="78.877235"
       y1="178.07356"
       x2="301.40585"
       y2="178.07356" />
    <linearGradient
       id="grad1-7-7"
       x1="78.877235"
       y1="178.07356"
       x2="301.40585"
       y2="178.07356"
       gradientTransform="scale(1.577772,0.63380513)"
       gradientUnits="userSpaceOnUse">
      <stop
         offset="0%"
         style="stop-color:#da0;"
         id="stop16-4-4" />
      <stop
         offset="40%"
         style="stop-color:#fd0;"
         id="stop18-0-0" />
      <stop
         offset="60%"
         style="stop-color:#fd0;"
         id="stop20-9-9" />
      <stop
         offset="100%"
         style="stop-color:#da0;"
         id="stop22-4-4" />
    </linearGradient>
    <linearGradient
       inkscape:collect="always"
       xlink:href="#grad1-7-7"
       id="linearGradient3081-8-8"
       gradientUnits="userSpaceOnUse"
       gradientTransform="matrix(0.77469594,0,0,0.30982404,-27.310046,-13.619206)"
       x1="78.877235"
       y1="178.07356"
       x2="301.40585"
       y2="178.07356" />
    <linearGradient
       id="linearGradient3093"
       x1="78.877235"
       y1="178.07356"
       x2="301.40585"
       y2="178.07356"
       gradientTransform="scale(1.577772,0.63380513)"
       gradientUnits="userSpaceOnUse">
      <stop
         offset="0%"
         style="stop-color:#da0;"
         id="stop3095" />
      <stop
         offset="40%"
         style="stop-color:#fd0;"
         id="stop3097" />
      <stop
         offset="60%"
         style="stop-color:#fd0;"
         id="stop3099" />
      <stop
         offset="100%"
         style="stop-color:#da0;"
         id="stop3101" />
    </linearGradient>
    <linearGradient
       y2="178.07356"
       x2="301.40585"
       y1="178.07356"
       x1="78.877235"
       gradientTransform="matrix(0.77469594,0,0,0.30982404,332.68995,-13.619206)"
       gradientUnits="userSpaceOnUse"
       id="linearGradient3128-1"
       xlink:href="#grad1-7-7"
       inkscape:collect="always" />
    <linearGradient
       id="linearGradient3104"
       x1="78.877235"
       y1="178.07356"
       x2="301.40585"
       y2="178.07356"
       gradientTransform="scale(1.577772,0.63380513)"
       gradientUnits="userSpaceOnUse">
      <stop
         offset="0%"
         style="stop-color:#da0;"
         id="stop3106" />
      <stop
         offset="40%"
         style="stop-color:#fd0;"
         id="stop3108" />
      <stop
         offset="60%"
         style="stop-color:#fd0;"
         id="stop3110" />
      <stop
         offset="100%"
         style="stop-color:#da0;"
         id="stop3112" />
    </linearGradient>
    <inkscape:path-effect
       is_visible="true"
       id="path-effect3061"
       effect="spiro" />
  </defs>
  <g
     inkscape:groupmode="layer"
     id="layer2"
     inkscape:label="Elements"
     style="display:inline">
    <use
       style="fill:#008800;fill-opacity:1;display:inline"
       xlink:href="#shield"
       id="use3156"
       x="0"
       y="0"
       width="744.09448"
       height="1052.3622" />
    <path
       inkscape:connector-curvature="0"
       style="fill:#ffffff;display:inline"
       d="m 2,2 0,257 c 0,286 298,398 298,398 0,0 7.22994,-2.72244 19.40625,-8.375 L 279,614 l 3,24 -42,-36 42,-36 -3,24 42,-36 -3,24 42,-36 -42,-36 3,24 -42,-36 3,24 -42,-36 42,-36 -3,24 42,-36 -3,24 42,-36 -42,-36 3,24 -42,-36 3,24 -42,-36 42,-36 -3,24 42,-36 -3,24 42,-36 -42,-36 3,24 -42,-36 3,24 -42,-36 42,-36 -3,24 42,-36 -3,24 42,-36 -42,-36 3,24 -42,-36 3,24 -42,-36 42,-36 -3,24 42,-36 -3,24 42,-36 -42,-36 3,24 -42,-36 3,24 L 240,2 2,2 z m 316,624 2.75,22 c 4.33187,-2.02674 9.18371,-4.38172 14.59375,-7.125 L 318,626 z"
       id="use3158" />
    <g
       transform="matrix(2.5024679,0,0,2.6583438,-958.43948,-552.46563)"
       id="g3254"
       style="fill:#884411;stroke-width:0.31672892;stroke-miterlimit:4;stroke-dasharray:none;display:inline">
      <path
         inkscape:connector-curvature="0"
         style="fill:#884411;fill-opacity:1;stroke:#000000;stroke-width:0.38771272;stroke-linecap:butt;stroke-linejoin:miter;stroke-miterlimit:4;stroke-opacity:1;stroke-dasharray:none"
         d="m 461.81076,256.93459 c 2.23594,0.25727 3.80404,0.42303 3.22412,2.7065 -0.57495,6.47162 -5.25989,11.17258 -5.73364,10.94352 -0.53391,0.003 -4.63469,-7.00063 -5.83123,-9.55155 1.07181,-2.27712 5.40199,-3.609 8.34075,-4.09847 z"
         id="path3256"
         sodipodi:nodetypes="ccccc" />
      <path
         inkscape:connector-curvature="0"
         style="fill:#884411;fill-opacity:1;stroke:#000000;stroke-width:0.38771272;stroke-linecap:butt;stroke-linejoin:miter;stroke-miterlimit:4;stroke-opacity:1;stroke-dasharray:none"
         d="m 445.47285,232.70348 c 1.53056,2.4935 2.54432,4.57932 4.82922,7.02253 0.56015,0.79266 1.63252,1.12632 2.71931,0.18479 2.71932,-2.27216 4.47856,-4.95578 6.48044,-7.5354 l -7.3777,-6.08336 -6.65127,6.41144 z"
         id="path3258"
         sodipodi:nodetypes="cccccc" />
      <path
         inkscape:connector-curvature="0"
         style="fill:#884411;fill-opacity:1;stroke:#000000;stroke-width:0.38771272;stroke-linecap:butt;stroke-linejoin:miter;stroke-miterlimit:4;stroke-opacity:1;stroke-dasharray:none"
         d="m 463.37057,252.19981 c 2.149,-0.66891 3.65019,-1.15145 4.04323,1.17149 2.09127,6.15135 -1.56917,12.60103 -2.09508,12.58312 -0.83865,0.11405 -5.13605,-6.17529 -7.24805,-8.10471 0.0594,-2.51605 2.8101,-4.01381 5.2999,-5.6499 z"
         id="path3260"
         sodipodi:nodetypes="ccccc" />
      <path
         inkscape:connector-curvature="0"
         sodipodi:nodetypes="ccccc"
         id="path3262"
         d="m 441.92396,256.93459 c -2.23594,0.25727 -3.80404,0.42303 -3.22412,2.7065 0.57495,6.47162 5.68358,11.31381 6.15733,11.08475 1.14805,0.13887 4.04907,-7.14689 5.27323,-9.69278 -1.07181,-2.27712 -5.26768,-3.609 -8.20644,-4.09847 z"
         style="fill:#884411;fill-opacity:1;stroke:#000000;stroke-width:0.38771272;stroke-linecap:butt;stroke-linejoin:miter;stroke-miterlimit:4;stroke-opacity:1;stroke-dasharray:none" />
      <path
         inkscape:connector-curvature="0"
         style="fill:#884411;fill-opacity:1;stroke:#000000;stroke-width:0.38771272;stroke-linecap:butt;stroke-linejoin:miter;stroke-miterlimit:4;stroke-opacity:1;stroke-dasharray:none"
         d="m 450.01814,261.95854 2.9839,0.007 c 1.79482,1.09864 5.06032,3.04312 4.75501,6.09696 -0.61941,2.93237 -1.739,3.95734 -3.98381,5.09486 -1.34923,0.61727 -2.08887,0.67813 -3.81322,0 -2.83336,-0.99566 -3.18898,-1.95386 -3.81322,-3.95444 -0.59408,-3.12165 2.24997,-5.23038 3.87134,-7.24431 l 0,-7e-5 z"
         id="path3264"
         sodipodi:nodetypes="cccccccc" />
      <path
         inkscape:connector-curvature="0"
         style="fill:#884411;fill-opacity:1;stroke:#000000;stroke-width:0.38771272;stroke-linecap:butt;stroke-linejoin:miter;stroke-miterlimit:4;stroke-opacity:1;stroke-dasharray:none"
         d="m 444.3786,257.36416 c 1.70452,2.77669 3.46262,4.31305 6.00722,7.03373 0.62381,0.88268 1.81806,1.25424 3.02837,0.20578 3.02839,-2.53021 4.00144,-4.80535 6.23084,-7.67794 l -7.23008,-7.4875 -8.03635,7.92593 z"
         id="path3266"
         sodipodi:nodetypes="cccccc" />
      <path
         inkscape:connector-curvature="0"
         style="fill:#884411;fill-opacity:1;stroke:#000000;stroke-width:0.38771272;stroke-linecap:butt;stroke-linejoin:miter;stroke-miterlimit:4;stroke-opacity:1;stroke-dasharray:none"
         d="m 451.1369,250.44135 c 1.53056,2.4935 3.10924,3.87317 5.39414,6.31638 0.56015,0.79266 1.6701,0.90084 2.926,0.3539 4.33638,-1.38839 3.95545,-3.85305 5.70883,-6.57467 l -6.81278,-7.2132 -7.21619,7.11759 z"
         id="path3268"
         sodipodi:nodetypes="cccccc" />
      <path
         inkscape:connector-curvature="0"
         sodipodi:nodetypes="ccccc"
         id="path3270"
         d="m 439.73308,252.19981 c -2.149,-0.66891 -3.65019,-1.15145 -4.04323,1.17149 -2.09127,6.15135 1.56917,12.60103 2.09508,12.58312 1.0504,0.55716 3.16112,-7.30382 7.24805,-8.10471 -0.0594,-2.51605 -2.8101,-4.01381 -5.2999,-5.6499 z"
         style="fill:#884411;fill-opacity:1;stroke:#000000;stroke-width:0.38771272;stroke-linecap:butt;stroke-linejoin:miter;stroke-miterlimit:4;stroke-opacity:1;stroke-dasharray:none" />
      <path
         inkscape:connector-curvature="0"
         style="fill:#884411;fill-opacity:1;stroke:#000000;stroke-width:0.38771272;stroke-linecap:butt;stroke-linejoin:miter;stroke-miterlimit:4;stroke-opacity:1;stroke-dasharray:none"
         d="m 438.84986,250.86504 c 1.31777,2.62117 2.06117,5.47532 5.8263,7.03039 0.74805,0.30413 1.20036,0.41231 2.28715,-0.52922 2.71932,-2.27216 3.91364,-3.82594 5.91552,-6.40556 l -6.81278,-7.2132 -7.21619,7.11759 z"
         id="path3272"
         sodipodi:nodetypes="cccccc" />
      <path
         inkscape:connector-curvature="0"
         style="fill:#884411;fill-opacity:1;stroke:#000000;stroke-width:0.38771272;stroke-linecap:butt;stroke-linejoin:miter;stroke-miterlimit:4;stroke-opacity:1;stroke-dasharray:none"
         d="m 445.33261,245.47362 c 1.67087,2.70395 1.80606,2.07848 4.66565,6.9062 0.61287,0.86668 2.93603,0.79096 4.12511,-0.23849 1.39194,-3.27546 3.04498,-4.18362 5.2361,-7.00371 l -7.45399,-7.88677 -6.57287,8.22277 z"
         id="path3274"
         sodipodi:nodetypes="cccccc" />
      <path
         inkscape:connector-curvature="0"
         sodipodi:nodetypes="ccccc"
         id="path3276"
         d="m 465.05807,244.9914 c 1.93826,-1.14402 3.28874,-1.95804 4.20414,0.21281 3.44652,5.50763 1.36312,12.62498 0.84712,12.72818 -0.77035,0.18753 -2.82489,-4.37284 -5.32315,-5.76636 -0.51933,-2.46258 -1.77624,-5.01105 0.27189,-7.17463 z"
         style="fill:#884411;fill-opacity:1;stroke:#000000;stroke-width:0.38771272;stroke-linecap:butt;stroke-linejoin:miter;stroke-miterlimit:4;stroke-opacity:1;stroke-dasharray:none" />
      <path
         inkscape:connector-curvature="0"
         style="fill:#884411;fill-opacity:1;stroke:#000000;stroke-width:0.38771272;stroke-linecap:butt;stroke-linejoin:miter;stroke-miterlimit:4;stroke-opacity:1;stroke-dasharray:none"
         d="m 457.06857,245.21583 c 1.34126,2.25457 3.51264,2.50663 5.39414,6.31638 0.56015,0.79266 1.63252,1.12632 2.71931,0.18479 2.71932,-2.27216 2.07764,-2.6961 4.07952,-5.27572 l -4.97678,-8.34304 -7.21619,7.11759 z"
         id="path3278"
         sodipodi:nodetypes="cccccc" />
      <path
         inkscape:connector-curvature="0"
         style="fill:#884411;fill-opacity:1;stroke:#000000;stroke-width:0.38771272;stroke-linecap:butt;stroke-linejoin:miter;stroke-miterlimit:4;stroke-opacity:1;stroke-dasharray:none"
         d="m 438.15576,244.9914 c -1.93826,-1.14402 -3.28874,-1.95804 -4.20414,0.21281 -3.44652,5.50763 -1.36312,12.62498 -0.84712,12.72818 0.88309,0.37543 3.85431,-4.55814 6.35257,-5.95166 0.51933,-2.46258 0.74682,-4.82575 -1.30131,-6.98933 z"
         id="path3280"
         sodipodi:nodetypes="ccccc" />
      <path
         inkscape:connector-curvature="0"
         sodipodi:nodetypes="cccccc"
         id="path3282"
         d="m 447.37083,245.21583 c -1.62549,2.43128 -5.26756,3.35735 -6.79415,6.66638 -0.56015,0.79266 -1.46782,0.77632 -2.55461,-0.16521 -1.83401,-2.23098 -1.0688,-2.84022 -2.28832,-6.03749 l 4.42089,-7.58127 7.21619,7.11759 z"
         style="fill:#884411;fill-opacity:1;stroke:#000000;stroke-width:0.38771272;stroke-linecap:butt;stroke-linejoin:miter;stroke-miterlimit:4;stroke-opacity:1;stroke-dasharray:none" />
      <path
         inkscape:connector-curvature="0"
         style="fill:#884411;fill-opacity:1;stroke:#000000;stroke-width:0.38771272;stroke-linecap:butt;stroke-linejoin:miter;stroke-miterlimit:4;stroke-opacity:1;stroke-dasharray:none"
         d="m 439.55601,239.42537 c 1.53056,2.4935 2.26186,4.0144 4.54676,6.45761 0.56015,0.79266 2.3733,0.16542 3.46009,-0.77611 1.78678,-2.97157 2.28357,-3.4967 4.75105,-5.72712 l -5.54171,-7.07197 c -4.05695,0.17046 -5.27217,4.1299 -7.21619,7.11759 z"
         id="path3284"
         sodipodi:nodetypes="cccccc" />
      <path
         inkscape:connector-curvature="0"
         style="fill:#884411;fill-opacity:1;stroke:#000000;stroke-width:0.38771272;stroke-linecap:butt;stroke-linejoin:miter;stroke-miterlimit:4;stroke-opacity:1;stroke-dasharray:none"
         d="m 452.40797,239.28415 c 1.91359,2.41689 3.24298,3.22447 4.22967,5.92732 0.56015,0.79266 2.23207,1.23292 3.31886,0.29139 2.71932,-2.27216 3.34872,-3.68471 5.3506,-6.26433 l -6.81278,-7.2132 -6.08635,7.25882 z"
         id="path3286"
         sodipodi:nodetypes="cccccc" />
      <path
         inkscape:connector-curvature="0"
         sodipodi:nodetypes="ccccc"
         id="path3288"
         d="m 464.60757,237.9241 c 1.35016,-1.80075 2.28438,-3.07104 3.96339,-1.41832 4.20314,4.49674 4.7626,5.73285 4.43277,11.02379 -0.56314,2.68213 -2.76288,-1.11219 -5.89142,-2.87676 -1.42537,-2.07421 -3.56473,-3.94441 -2.50474,-6.72871 z"
         style="fill:#884411;fill-opacity:1;stroke:#000000;stroke-width:0.38771272;stroke-linecap:butt;stroke-linejoin:miter;stroke-miterlimit:4;stroke-opacity:1;stroke-dasharray:none" />
      <path
         sodipodi:nodetypes="cccccc"
         id="path3290"
         d="m 458.5844,231.51675 c 0.36701,-2.22057 0.60975,-3.77861 2.86191,-3.087 5.80376,2.05022 6.87044,2.88877 9.019,7.73506 0.73789,2.6394 -4.57843,1.16424 -6.74973,2.85149 -0.76174,-1.55369 -3.10993,-4.00606 -3.8649,-4.76262 z"
         style="fill:#884411;fill-opacity:1;stroke:#000000;stroke-width:0.38771272;stroke-linecap:butt;stroke-linejoin:miter;stroke-miterlimit:4;stroke-opacity:1;stroke-dasharray:none"
         inkscape:connector-curvature="0" />
      <path
         inkscape:connector-curvature="0"
         style="fill:#884411;fill-opacity:1;stroke:#000000;stroke-width:0.38771272;stroke-linecap:butt;stroke-linejoin:miter;stroke-miterlimit:4;stroke-opacity:1;stroke-dasharray:none"
         d="m 439.60908,237.9241 c -1.35016,-1.80075 -2.28438,-3.07104 -3.96339,-1.41832 -4.20314,4.49674 -4.7626,5.73285 -4.43277,11.02379 0.56314,2.68213 2.76288,-1.11219 5.89142,-2.87676 1.42537,-2.07421 3.56473,-3.94441 2.50474,-6.72871 z"
         id="path3292"
         sodipodi:nodetypes="ccccc" />
      <path
         inkscape:connector-curvature="0"
         style="fill:#884411;fill-opacity:1;stroke:#000000;stroke-width:0.38771272;stroke-linecap:butt;stroke-linejoin:miter;stroke-miterlimit:4;stroke-opacity:1;stroke-dasharray:none"
         d="m 444.75102,231.51675 c -0.36701,-2.22057 -0.60975,-3.77861 -2.86191,-3.087 -5.80376,2.05022 -6.87044,2.88877 -9.019,7.73506 -0.73789,2.6394 4.57843,1.29855 6.74973,2.9858 0.37729,1.15123 3.0883,-4.93016 4.73153,-5.443 l 0.39965,-2.19086 z"
         id="path3294"
         sodipodi:nodetypes="cccccc" />
      <path
         inkscape:connector-curvature="0"
         style="fill:#884411;fill-opacity:1;stroke:#000000;stroke-width:0.38771272;stroke-linecap:butt;stroke-linejoin:miter;stroke-miterlimit:4;stroke-opacity:1;stroke-dasharray:none"
         d="m 445.34645,232.36386 c 2.08797,2.25461 4.03852,4.08491 5.21828,7.00175 0.56015,0.79266 1.98424,1.1194 3.07103,0.17791 1.96149,-4.01251 3.60464,-4.69078 5.73966,-7.08401 l -6.81278,-7.2132 -7.21619,7.11759 0,-4e-5 z"
         id="path3296"
         sodipodi:nodetypes="ccccccc" />
      <path
         inkscape:connector-curvature="0"
         sodipodi:nodetypes="cccccc"
         id="path3298"
         d="m 452.52139,228.70494 c -1.20502,-1.37395 -0.93841,-3.38832 1.39536,-3.71093 6.12706,-0.58839 7.44786,-0.27786 11.4397,3.21043 1.78208,2.08208 -4.93491,3.43093 -6.19221,5.87644 -0.66932,2.10999 -1.75418,0.63312 -2.45718,-0.25865 l -4.18567,-5.11729 z"
         style="fill:#884411;fill-opacity:1;stroke:#000000;stroke-width:0.38771272;stroke-linecap:butt;stroke-linejoin:miter;stroke-miterlimit:4;stroke-opacity:1;stroke-dasharray:none" />
      <path
         inkscape:connector-curvature="0"
         style="fill:#884411;fill-opacity:1;stroke:#000000;stroke-width:0.38771272;stroke-linecap:butt;stroke-linejoin:miter;stroke-miterlimit:4;stroke-opacity:1;stroke-dasharray:none"
         d="m 451.2962,228.99996 c 1.68763,-1.91014 0.90437,-3.68334 -1.4294,-4.00595 -6.12706,-0.58839 -7.44786,-0.27786 -11.4397,3.21043 -1.78208,2.08208 4.93491,3.43093 6.19221,5.87644 0.66932,2.10999 1.75418,0.63312 2.45718,-0.25865 l 4.21971,-4.82227 z"
         id="path3300"
         sodipodi:nodetypes="cccccc" />
      <path
         inkscape:connector-curvature="0"
         sodipodi:nodetypes="cccccccc"
         id="path3302"
         d="m 453.75578,220.73746 c -1.40287,-0.30136 -2.13374,-0.23487 -3.23495,0.56288 -0.36437,3.51524 0.1257,2.03572 -0.43382,2.86069 -0.79382,0.8405 -1.36774,0.79002 -2.75432,0.69158 1.41267,0.47271 3.31995,1.72495 4.6631,3.89173 1.1149,-1.17906 0.53267,-1.39994 4.55565,-3.90332 -1.79883,-0.11866 -1.30634,0.37191 -2.64387,-0.76789 0.1704,-1.71779 -0.27125,0.67465 -0.15179,-3.33567 z"
         style="fill:#884411;fill-opacity:1;fill-rule:evenodd;stroke:#000000;stroke-width:0.38771272;stroke-linecap:butt;stroke-linejoin:miter;stroke-miterlimit:4;stroke-opacity:1;stroke-dasharray:none" />
    </g>
    <use
       x="0"
       y="0"
       xlink:href="#g3254"
       id="use3354"
       transform="translate(0,344.9576)"
       width="600"
       height="660" />
    <use
       x="0"
       y="0"
       xlink:href="#use3354"
       id="use3356"
       transform="translate(-86,-172.47878)"
       width="600"
       height="660" />
  </g>
  <g
     inkscape:groupmode="layer"
     id="layer1"
     inkscape:label="Cover"
     style="display:inline"
     sodipodi:insensitive="true">
    <path
       d="m 2,2 v 257 c 0,286 298,398 298,398 0,0 298,-112 298,-398 V 2 z"
       id="shine"
       inkscape:connector-curvature="0"
       style="fill:url(#radialGradient3074);stroke:#000000;stroke-width:3" />
  </g>
</svg>
