<?xml version="1.0" encoding="UTF-8" standalone="no"?>
<svg
   xmlns:dc="http://purl.org/dc/elements/1.1/"
   xmlns:cc="http://creativecommons.org/ns#"
   xmlns:rdf="http://www.w3.org/1999/02/22-rdf-syntax-ns#"
   xmlns:svg="http://www.w3.org/2000/svg"
   xmlns="http://www.w3.org/2000/svg"
   xmlns:xlink="http://www.w3.org/1999/xlink"
   xmlns:sodipodi="http://sodipodi.sourceforge.net/DTD/sodipodi-0.dtd"
   xmlns:inkscape="http://www.inkscape.org/namespaces/inkscape"
   width="600"
   height="660"
   id="svg2"
   version="1.1"
   inkscape:version="0.48.2 r9819"
   sodipodi:docname="House_Grandison.svg">
  <metadata
     id="metadata141">
    <rdf:RDF>
      <cc:Work
         rdf:about="">
        <dc:format>image/svg+xml</dc:format>
        <dc:type
           rdf:resource="http://purl.org/dc/dcmitype/StillImage" />
        <dc:title />
      </cc:Work>
    </rdf:RDF>
  </metadata>
  <sodipodi:namedview
     pagecolor="#ffffff"
     bordercolor="#666666"
     borderopacity="1"
     objecttolerance="10"
     gridtolerance="10"
     guidetolerance="10"
     inkscape:pageopacity="0"
     inkscape:pageshadow="2"
     inkscape:window-width="1366"
     inkscape:window-height="715"
     id="namedview139"
     showgrid="false"
     inkscape:zoom="0.5056885"
     inkscape:cx="-39.382101"
     inkscape:cy="336.7102"
     inkscape:window-x="-8"
     inkscape:window-y="-8"
     inkscape:window-maximized="1"
     inkscape:current-layer="svg2" />
  <defs
     id="defs4">
    <radialGradient
       id="rg"
       gradientUnits="userSpaceOnUse"
       cx="220"
       cy="220"
       r="405">
      <stop
         style="stop-color:#fff;stop-opacity:.3"
         offset="0"
         id="stop7" />
      <stop
         style="stop-color:#fff;stop-opacity:.2"
         offset=".2"
         id="stop9" />
      <stop
         style="stop-color:#666;stop-opacity:.1"
         offset=".6"
         id="stop11" />
      <stop
         style="stop-color:#000;stop-opacity:.13"
         offset="1"
         id="stop13" />
    </radialGradient>
    <clipPath
       id="clip-shield">
      <path
         id="shield"
         d="m2,2v257c0,286 298,398 298,398c0,0 298-112 298-398V2z" />
    </clipPath>
    <radialGradient
       id="rg-1"
       gradientUnits="userSpaceOnUse"
       cx="220"
       cy="220"
       r="405">
      <stop
         style="stop-color:#fff;stop-opacity:.3"
         offset="0"
         id="stop7-7" />
      <stop
         style="stop-color:#fff;stop-opacity:.2"
         offset=".2"
         id="stop9-4" />
      <stop
         style="stop-color:#666;stop-opacity:.1"
         offset=".6"
         id="stop11-0" />
      <stop
         style="stop-color:#000;stop-opacity:.13"
         offset="1"
         id="stop13-9" />
    </radialGradient>
    <radialGradient
       id="radialGradient3060"
       gradientUnits="userSpaceOnUse"
       cx="220"
       cy="220"
       r="405">
      <stop
         style="stop-color:#fff;stop-opacity:.3"
         offset="0"
         id="stop3062" />
      <stop
         style="stop-color:#fff;stop-opacity:.2"
         offset=".2"
         id="stop3064" />
      <stop
         style="stop-color:#666;stop-opacity:.1"
         offset=".6"
         id="stop3066" />
      <stop
         style="stop-color:#000;stop-opacity:.13"
         offset="1"
         id="stop3068" />
    </radialGradient>
  </defs>
  <use
     height="1052.3622"
     width="744.09448"
     y="0"
     x="0"
     id="background"
     xlink:href="#shield"
     style="fill:#ffff00" />
  <g
     transform="matrix(1.1349857,0,0,1.1349857,27.232477,116.87582)"
     id="g3045">
    <g
       id="g3634">
      <g
         id="g3581">
        <path
           inkscape:connector-curvature="0"
           sodipodi:nodetypes="csssssssssssssssssscsscssscsccccccsccscccc"
           id="path3741"
           d="m 214.66246,112.62296 c 0,0 26.68345,11.22466 38.79518,13.49398 6.96761,1.30549 16.52673,0.71684 23.61446,0.84337 19.22585,0.34321 44.86747,0 64.09638,0 9.86747,0 23.36186,-2.55959 32.89157,0 10.72923,2.88177 23.41323,11.56433 32.04819,18.55422 8.21495,6.64989 16.20225,18.61029 23.61446,26.14458 3.64075,3.70071 7.98458,9.53158 12.6506,11.80723 4.37428,2.13337 9.3331,0.76601 13.36019,3.49881 6.57065,4.45887 14.60734,14.01454 16.15789,21.80239 0.69869,3.50925 -0.21595,8.54536 -1.68675,11.80723 -2.68409,5.95266 -10.53582,9.9236 -16.04781,13.42454 -2.43511,1.54666 -6.41785,2.14721 -9.27711,2.53012 -2.25696,0.30225 -4.9583,-0.45418 -7.10601,-1.21086 -4.69988,-1.65586 -7.23154,-4.5802 -11.48885,-6.05265 -1.91292,-0.66161 -5.0498,-1.10296 -6.74699,0 -2.08942,1.35786 -2.34561,1.47047 -2.46576,3.95945 -0.0772,1.59833 2.55427,3.71562 1.68674,5.06024 -3.79108,5.87596 -14.52419,4.59531 -25.24414,4.48708 -11.8964,-0.1201 -23.67152,0.57317 -23.67152,0.57317 0,0 -7.28558,-0.10833 -9.86378,1.40387 -1.18966,0.69778 -2.58584,2.29189 -2.78682,3.65637 -0.31501,2.13866 2.53012,6.74698 2.53012,6.74698 0,0 -4.17489,0.38505 -5.90361,0 -2.48645,-0.55382 -5.83116,-1.8605 -7.68858,-3.60381 -2.25707,-2.11839 -2.51104,-7.15613 -4.96203,-9.04679 -2.478,-1.9115 -10.12048,-2.53012 -10.12048,-2.53012 0,0 -6.02004,9.16856 -10.12048,10.96386 -1.62239,0.71033 -5.90361,0 -5.90361,0 l -13.49398,-10.12049 3.11269,-4.12203 -8.14245,2.40142 -12.06464,-7.75294 -11.5803,-0.64693 c 0,0 -4.08572,-5.60801 -4.21687,-8.43373 -0.22654,-4.88122 5.90362,-15.18072 5.90362,-15.18072 l -6.74699,10.96385 c 0,0 -7.44745,-4.63347 -11.06144,-5.3776 -11.30029,-2.32675 -38.41647,1.78322 -38.41647,1.78322 l -65.22089,-36.88755 58.19278,-68.31325 3.37349,3.37349 z"
           style="fill:#000000;fill-opacity:1;fill-rule:evenodd;stroke:#333333;stroke-width:2.64320517;stroke-linecap:butt;stroke-linejoin:miter;stroke-miterlimit:4;stroke-opacity:1;stroke-dasharray:none" />
        <path
           inkscape:connector-curvature="0"
           sodipodi:nodetypes="cssssssss"
           id="path3743"
           d="m 274.37903,207.48064 c 0,0 1.36597,-1.31051 3.27225,-2.24917 11.62281,-5.72309 30.23057,-0.17742 43.18479,0 9.46013,0.12957 22.08082,0.2977 31.52489,0.8637 7.01328,0.42032 16.55202,0.27242 23.31979,2.15924 4.57677,1.27598 11.72847,2.88316 14.25098,6.90956 1.44441,2.30555 -2.71231,8.856 0,9.06881 2.48439,0.19493 -0.38703,-6.36686 1.29554,-8.20511 2.16395,-2.36418 10.36435,-2.59109 10.36435,-2.59109"
           style="fill:none;stroke:#333333;stroke-width:2.64320517;stroke-linecap:butt;stroke-linejoin:miter;stroke-miterlimit:4;stroke-opacity:1;stroke-dasharray:none" />
        <path
           inkscape:connector-curvature="0"
           style="fill:#ffffff;fill-opacity:1;fill-rule:evenodd;stroke:#333333;stroke-width:2.20267105;stroke-linecap:butt;stroke-linejoin:miter;stroke-miterlimit:4;stroke-opacity:1;stroke-dasharray:none"
           d="m 292.5945,228.85651 c 1.39797,0.50219 3.06592,1.75114 4.02621,2.90353 0.98172,1.17808 2.43372,3.08395 2.23622,4.65448 -0.12594,1.0015 -1.28827,2.06204 -2.12635,2.60145 -0.59865,0.38531 -1.57135,0.56697 -2.26727,0.57872 -1.46902,0.0247 -3.29945,-1.31289 -4.75496,-1.06076 -1.27364,0.22063 -2.82159,1.32745 -3.73002,2.29513 -1.28471,1.36851 -2.05175,1.92135 -2.57481,3.73549 -0.40044,1.38891 -0.36738,6.08368 -0.36738,6.08368 0,0 -3.7535,-3.89536 -4.42923,-5.84953 -0.98738,-2.85543 -1.08071,-5.97039 0.17952,-8.78073 0.796,-1.77507 2.8852,-3.57219 4.49135,-4.61678 1.98188,-1.289 5.03273,-2.34201 7.32973,-2.67476 0.59512,-0.0862 1.42701,-0.0711 1.98699,0.13008 z"
           id="path3747"
           sodipodi:nodetypes="cssssssscsssss" />
        <path
           inkscape:connector-curvature="0"
           style="fill:#ffffff;fill-opacity:1;fill-rule:evenodd;stroke:#333333;stroke-width:2.20267105;stroke-linecap:butt;stroke-linejoin:miter;stroke-miterlimit:4;stroke-opacity:1;stroke-dasharray:none"
           d="m 308.14102,241.3801 c 1.39797,0.50219 3.06592,1.75114 4.02621,2.90353 0.98172,1.17808 2.43372,3.08395 2.23622,4.65448 -0.12594,1.0015 -1.28827,2.06204 -2.12635,2.60145 -0.59865,0.38531 -1.57135,0.56697 -2.26727,0.57872 -1.46902,0.0248 -3.29945,-1.31289 -4.75496,-1.06076 -1.27364,0.22063 -2.82159,1.32745 -3.73002,2.29513 -1.28471,1.36851 -2.05175,1.92135 -2.57481,3.73549 -0.40044,1.38891 -0.36738,6.08368 -0.36738,6.08368 0,0 -3.7535,-3.89536 -4.42923,-5.84953 -0.98738,-2.85543 -1.08071,-5.97039 0.17952,-8.78073 0.796,-1.77507 2.8852,-3.57219 4.49135,-4.61678 1.98188,-1.289 5.03273,-2.34201 7.32973,-2.67476 0.59512,-0.0862 1.42701,-0.0711 1.98699,0.13008 z"
           id="path3749"
           sodipodi:nodetypes="cssssssscsssss" />
        <path
           inkscape:connector-curvature="0"
           sodipodi:nodetypes="css"
           id="path3753"
           d="m 304.86203,236.44852 c 0,0 9.21757,-7.55846 14.24665,-9.19281 4.20546,-1.36669 10.26515,-1.10102 14.68283,-1.29554"
           style="fill:none;stroke:#333333;stroke-width:2.20267081;stroke-linecap:butt;stroke-linejoin:miter;stroke-miterlimit:4;stroke-opacity:1;stroke-dasharray:none" />
        <path
           inkscape:connector-curvature="0"
           sodipodi:nodetypes="csss"
           id="path3755"
           d="m 286.85277,229.66296 c 0,0 0.31624,-2.56063 1.98278,-4.47047 2.02418,-2.3197 5.62785,-4.15081 7.81703,-5.27819 4.77263,-2.45779 9.83197,-3.69534 15.17018,-4.26299"
           style="fill:none;stroke:#333333;stroke-width:2.20267081;stroke-linecap:butt;stroke-linejoin:miter;stroke-miterlimit:4;stroke-opacity:1;stroke-dasharray:none" />
        <path
           inkscape:connector-curvature="0"
           sodipodi:nodetypes="csssssscssc"
           id="path3759"
           d="m 433.30788,201.00783 c 0,0 4.44039,1.63365 6.06246,2.84468 1.50393,1.12282 2.60182,3.6028 3.17739,5.38922 0.54898,1.70386 1.52823,3.01388 1.02459,4.7317 -0.51989,1.77324 -2.30425,4.52307 -3.66817,5.76982 -1.99094,1.8199 -3.41946,3.09564 -5.63434,4.63517 -0.91618,0.63682 -2.57993,1.65121 -4.11204,2.56243 -1.80607,1.07417 -3.42921,2.00499 -3.42921,2.00499 0,0 6.60842,-7.24559 8.20002,-11.19078 0.97205,-2.40949 0.79728,-6.0583 0.54024,-8.64373 -0.24891,-2.50366 -2.16094,-8.1035 -2.16094,-8.1035 z"
           style="fill:#000000;fill-rule:evenodd;stroke:#333333;stroke-width:4.40534163;stroke-linecap:butt;stroke-linejoin:miter;stroke-miterlimit:4;stroke-opacity:1;stroke-dasharray:none" />
        <path
           inkscape:connector-curvature="0"
           sodipodi:nodetypes="cssssss"
           id="path3757"
           d="m 348.04778,147.43064 c 0,0 0.74316,6.69566 -0.79271,8.8611 -2.4284,3.42387 -9.52883,2.89345 -12.6832,5.63889 -2.35498,2.04968 -5.50692,5.00513 -6.63768,7.93908 -1.93924,5.03168 -2.75174,13.28343 -2.08203,18.64423 0.42882,3.43258 2.33155,8.04294 4.7562,10.47221 3.33572,3.34207 12.99838,6.62885 12.99838,6.62885"
           style="fill:none;stroke:#333333;stroke-width:2.64320517;stroke-linecap:butt;stroke-linejoin:miter;stroke-miterlimit:4;stroke-opacity:1;stroke-dasharray:none" />
        <path
           inkscape:connector-curvature="0"
           sodipodi:nodetypes="cssssscssscssssssscsssscsscssscsssscssscsssssssscssssssssssssssss"
           id="path3762"
           d="m 330.12334,198.33641 c 0,0 -12.49047,-5.67949 -16.74723,-9.75292 -3.80736,-3.64339 -8.19606,-9.72117 -9.7242,-14.91621 -0.91816,-3.12135 -1.28672,-7.9294 0,-10.90032 1.24873,-2.88321 4.68072,-6.04717 7.56327,-6.88441 2.69864,-0.78382 3.21109,-0.0859 5.6174,1.42976 1.78511,1.12442 2.12707,10.1072 2.12707,10.1072 0,0 6.65905,-13.13383 3.35147,-16.64632 -1.05357,-1.11884 -2.65018,-3.67092 -4.69629,-4.86406 -2.54212,-1.48238 -5.62894,-1.5006 -7.48012,-1.5006 -4.00939,0 -12.9656,3.44221 -12.9656,3.44221 0,0 3.70489,-12.49692 6.4828,-17.21102 2.55619,-4.33787 6.39791,-10.55124 10.80467,-12.62143 6.8179,-3.20287 17.76815,2.47174 24.85072,0 3.6338,-1.26816 7.12157,-5.71663 10.26444,-8.0318 3.65666,-2.69365 8.12922,-7.37242 12.42536,-8.60552 3.13303,-0.89925 8.08739,-1.31089 10.80466,0.5737 1.51711,1.05221 2.9525,3.83136 2.70117,5.73702 -0.36594,2.77467 -5.94257,6.88441 -5.94257,6.88441 0,0 11.81981,-0.21924 14.5863,-4.01592 2.3804,-3.26681 1.66568,-10.03607 0,-13.768809 -0.9864,-2.2105 -3.80935,-4.2404 -5.94256,-5.1633 -5.12296,-2.21639 -12.83634,-1.77066 -18.36793,-1.72111 -3.09623,0.02774 -10.26443,1.1474 -10.26443,1.1474 0,0 6.48072,-7.38728 6.45459,-11.828829 -0.0188,-3.20137 -1.63618,-6.43729 -4.29366,-7.94887 -3.14632,-1.78963 -8.79343,0.52071 -8.79343,0.52071 0,0 4.34466,3.04274 4.8621,5.1633 0.29596,1.21292 -0.24116,3.13527 -1.08047,4.01592 -1.3145,1.379209 -4.1234,1.376549 -5.94257,1.721099 -3.68355,0.69766 -15.51706,-0.82254 -15.51706,-0.82254 0,0 12.27877,-13.467439 17.05314,-20.162479 2.67064,-3.745 5.56474,-9.52604 7.84748,-13.54994 1.50773,-2.65772 3.81242,-6.79552 6.43291,-8.16773 2.18522,-1.14429 5.98106,-0.6969 8.1035,0.57369 1.72335,1.03168 3.78163,5.73701 3.78163,5.73701 0,0 2.07078,-9.24423 0.59013,-12.349537 -1.57196,-3.296814 -5.23733,-5.944989 -8.61552,-6.83142 -2.67475,-0.701853 -7.21168,0.973893 -9.80231,1.969939 -1.1902,0.457605 -3.2414,2.868497 -3.2414,2.868497 0,0 2.16973,-7.822333 1.08047,-10.900313 -1.02103,-2.885173 -2.76483,-6.498979 -5.35461,-9.026216 -2.73155,-2.665577 -6.35787,-4.196224 -9.23169,-5.316304 -3.50267,-1.365174 -8.8374,-0.513373 -12.42536,0.573702 -2.86104,0.866834 -6.32706,3.18087 -8.64373,5.163307 -3.03923,2.60075 -4.70215,6.39653 -5.94257,10.326614 -1.29175,4.092724 -1.32201,10.860702 1.08047,14.342521 3.30867,4.79513 9.49043,8.27085 14.7924,6.36369 3.02755,-1.08904 5.19623,-8.658493 5.19623,-8.658493 0,0 -5.54832,2.943343 -7.56327,1.721103 -1.33508,-0.80984 -1.70573,-3.533023 -1.6207,-5.163308 0.12832,-2.460475 1.28677,-6.130001 3.2414,-7.458112 1.91124,-1.298633 5.54577,-1.102564 7.56327,0 2.47932,1.354946 4.81718,5.136646 5.40233,8.031809 0.6937,3.432213 -0.89593,8.230861 -2.16093,11.474021 -1.78897,4.58652 -5.51327,10.08184 -8.64373,13.76882 -4.08538,4.81165 -11.1548,9.40808 -15.66677,13.76881 -4.06825,3.93188 -9.54773,9.19166 -12.9656,13.768819 -3.4371,4.60292 -7.16879,11.42722 -9.7242,16.637319 -2.8509,5.81258 -6.65761,13.70818 -8.10349,20.07953 -1.67459,7.37917 -2.73917,16.56441 -2.44515,24.14843 0.22252,5.73959 1.61571,14.65204 3.52561,20.02653 1.90475,5.36 6.2881,14.0985 9.18397,18.93213 2.77576,4.63315 6.05613,9.66149 9.7242,12.62142 2.818,2.27397 6.54355,6.27143 8.45729,6.83458"
           style="fill:#000000;fill-opacity:1;fill-rule:evenodd;stroke:#333333;stroke-width:2.64320517;stroke-linecap:butt;stroke-linejoin:miter;stroke-miterlimit:4;stroke-opacity:1;stroke-dasharray:none" />
        <path
           inkscape:connector-curvature="0"
           sodipodi:nodetypes="csss"
           id="path3765"
           d="m 326.66856,82.128731 c 0,0 -5.87783,0.59622 -8.07641,1.80562 -2.16331,1.18999 -4.15699,4.11784 -5.95103,5.8683 -1.39599,1.36207 -3.02971,6.86391 -3.02971,3.34869"
           style="fill:none;stroke:#333333;stroke-width:2.64320517;stroke-linecap:butt;stroke-linejoin:miter;stroke-miterlimit:4;stroke-opacity:1;stroke-dasharray:none" />
        <path
           inkscape:connector-curvature="0"
           sodipodi:nodetypes="cssss"
           id="path3767"
           d="m 350.47269,91.608281 c 0,0 -6.73506,4.6278 -9.7767,6.31971 -2.22512,1.23772 -5.1819,3.122859 -7.65133,3.611259 -2.51046,0.49651 -5.98691,-0.92394 -8.50147,-0.45142 -3.54503,0.66617 -9.68017,8.46163 -9.68017,8.46163"
           style="fill:none;stroke:#333333;stroke-width:2.64320517;stroke-linecap:butt;stroke-linejoin:miter;stroke-miterlimit:4;stroke-opacity:1;stroke-dasharray:none" />
        <path
           inkscape:connector-curvature="0"
           sodipodi:nodetypes="css"
           id="path3785"
           d="m 297.82111,147.69967 c 0,0 -6.97547,4.8952 -7.09918,12.86389 -0.13952,8.98676 3.55296,16.50815 3.55296,16.50815"
           style="fill:none;stroke:#333333;stroke-width:2.64320517;stroke-linecap:butt;stroke-linejoin:miter;stroke-miterlimit:4;stroke-opacity:1;stroke-dasharray:none" />
        <path
           inkscape:connector-curvature="0"
           id="path3961"
           d="m 302.62545,203.56819 12.85927,1.18246"
           style="fill:none;stroke:#333333;stroke-width:2.20267081;stroke-linecap:butt;stroke-linejoin:miter;stroke-miterlimit:4;stroke-opacity:1;stroke-dasharray:none" />
      </g>
      <g
         id="g3596">
        <g
           transform="translate(-518.55039,-79.364986)"
           id="g3692">
          <g
             id="g3682">
            <path
               inkscape:connector-curvature="0"
               sodipodi:nodetypes="ccsssscsscssccscssscscsscsssscssss"
               id="path3673"
               d="m 736.15329,212.33367 c 5.67139,16.34683 -1.30063,57.66101 -1.30063,57.66101 0,0 1.8695,4.1592 2.16771,6.06958 0.60213,3.85732 1.85916,9.84633 -0.43354,13.00624 -1.78803,2.46435 -6.5394,2.94007 -9.53791,3.46833 -7.81348,1.37654 -20.61343,3.2523 -28.1802,0.86708 -4.5425,-1.4319 -12.57269,-6.93666 -12.57269,-6.93666 0,0 -1.08372,3.63512 -0.86708,5.2025 0.33457,2.42064 0.6922,2.38751 2.1677,4.33541 1.55884,2.05792 6.06958,3.90187 6.06958,3.90187 0,0 -10.18989,2.27968 -15.60749,0.86709 -5.06555,-1.3208 -11.568,-4.47406 -15.60749,-7.80375 -1.64606,-1.35682 -10.40499,-5.2025 -10.40499,-5.2025 l -10.405,-0.86708 c 0,0 -0.22479,4.66202 0.43355,6.50312 1.13014,3.16054 9.97145,6.93666 9.97145,6.93666 0,0 -12.38155,1.67449 -16.90811,10e-6 -2.59724,-0.96078 -6.74618,-1.25762 -10.07406,-3.29978 -3.66206,-2.24723 -6.51276,-6.24215 -9.43531,-7.10522 -2.25908,-0.66714 -7.80374,-0.86708 -7.80374,-0.86708 0,0 -6.79413,2.60516 -6.93667,5.2025 -0.15631,2.84821 6.93667,6.50312 6.93667,6.50312 0,0 -8.64396,1.0227 -12.13916,0 -3.70512,-1.08413 -8.41072,-3.93518 -10.83854,-6.93667 -1.39772,-1.72798 -2.60125,-5.63604 -2.60125,-5.63604 0,0 -4.226,8.16612 -7.80374,10.405 -1.50678,0.94291 -8.98839,-6.84711 -3.46165,-20.78684 3.45248,-8.70797 33.90439,-26.05952 39.89768,-25.73884 2.7034,0.14465 5.35553,-8.31701 12.61952,0.84367 15.72407,19.82975 45.90808,-27.06724 45.90808,-27.06724 0,0 15.34901,-3.37594 20.35838,-12.65841 2.82925,-5.24267 10.34205,-9.97013 16.04103,-11.70561 6.35036,-1.93384 16.16169,-2.07862 22.11061,0.86708 3.4772,1.72179 6.96548,6.30567 8.23729,9.97145 z"
               style="fill:#000000;fill-opacity:1;fill-rule:evenodd;stroke:#333333;stroke-width:2.64320517;stroke-linecap:butt;stroke-linejoin:miter;stroke-miterlimit:4;stroke-opacity:1;stroke-dasharray:none" />
          </g>
          <path
             inkscape:connector-curvature="0"
             style="fill:none;stroke:#333333;stroke-width:2.20267081;stroke-linecap:butt;stroke-linejoin:miter;stroke-miterlimit:4;stroke-opacity:1;stroke-dasharray:none"
             d="m 549.9354,285.62926 c 0,0 7.19885,-6.13688 10.71491,-8.10857 2.2796,-1.27833 5.54757,-2.66408 8.10858,-3.18552 6.21689,-1.26581 9.58194,-0.68927 9.58194,-0.68927"
             id="path3690"
             sodipodi:nodetypes="cssc" />
        </g>
        <g
           transform="translate(-500.83955,-55.750528)"
           id="g3701">
          <g
             id="g3703">
            <path
               inkscape:connector-curvature="0"
               sodipodi:nodetypes="ccsssscsscssccscssscscsscscscsccssssscssss"
               id="path3705"
               d="m 736.15329,212.33367 c 5.67139,16.34683 -1.30063,57.66101 -1.30063,57.66101 0,0 1.8695,4.1592 2.16771,6.06958 0.60213,3.85732 1.85916,9.84633 -0.43354,13.00624 -1.78803,2.46435 -6.5394,2.94007 -9.53791,3.46833 -7.81348,1.37654 -20.61343,3.2523 -28.1802,0.86708 -4.5425,-1.4319 -12.57269,-6.93666 -12.57269,-6.93666 0,0 -1.08372,3.63512 -0.86708,5.2025 0.33457,2.42064 0.6922,2.38751 2.1677,4.33541 1.55884,2.05792 6.06958,3.90187 6.06958,3.90187 0,0 -10.18989,2.27968 -15.60749,0.86709 -5.06555,-1.3208 -11.568,-4.47406 -15.60749,-7.80375 -1.64606,-1.35682 -10.40499,-5.2025 -10.40499,-5.2025 l -10.405,-0.86708 c 0,0 -0.22479,4.66202 0.43355,6.50312 1.13014,3.16054 9.97145,6.93666 9.97145,6.93666 0,0 -12.38155,1.67449 -16.90811,10e-6 -2.59724,-0.96078 -6.74618,-1.25762 -10.07406,-3.29978 -3.66206,-2.24723 -6.51276,-6.24215 -9.43531,-7.10522 -2.25908,-0.66714 -7.80374,-0.86708 -7.80374,-0.86708 0,0 -6.79413,2.60516 -6.93667,5.2025 -0.15631,2.84821 6.93667,6.50312 6.93667,6.50312 0,0 -8.64396,1.0227 -12.13916,0 -3.70512,-1.08413 -8.41072,-3.93518 -10.83854,-6.93667 -1.39772,-1.72798 -2.60125,-5.63604 -2.60125,-5.63604 0,0 -4.226,8.16612 -7.80374,10.405 -2.44804,1.53193 -9.53791,1.30062 -9.53791,1.30062 0,0 -12.33859,-2.8119 -15.17395,-6.93666 -1.18113,-1.71826 -0.43354,-6.93666 -0.43354,-6.93666 0,0 -6.72791,4.03682 -9.72831,3.15637 -3.27585,-0.96128 -7.61335,-8.79241 -7.61335,-8.79241 l 0.98866,-9.0516 c 0,0 -5.80951,3.93787 -8.32214,3.01875 -2.47204,-0.90427 -4.60368,-5.84728 -3.9386,-7.84047 2.45699,-7.36335 14.65352,-11.28403 22.11062,-13.43979 14.99562,-4.33505 36.54868,-2.90327 52.02496,-0.86708 2.81634,0.37054 6.27812,2.31606 9.10437,2.60125 25.17955,2.5408 84.10703,-6.50312 84.10703,-6.50312 0,0 -3.2752,-25.83439 1.73417,-35.11686 2.82925,-5.24267 10.34205,-9.97013 16.04103,-11.70561 6.35036,-1.93384 16.16169,-2.07862 22.11061,0.86708 3.4772,1.72179 6.96548,6.30567 8.23729,9.97145 z"
               style="fill:#000000;fill-opacity:1;fill-rule:evenodd;stroke:#333333;stroke-width:2.64320517;stroke-linecap:butt;stroke-linejoin:miter;stroke-miterlimit:4;stroke-opacity:1;stroke-dasharray:none" />
            <path
               inkscape:connector-curvature="0"
               style="fill:#ffffff;fill-opacity:1;fill-rule:evenodd;stroke:#333333;stroke-width:2.20267105;stroke-linecap:butt;stroke-linejoin:miter;stroke-miterlimit:4;stroke-opacity:1;stroke-dasharray:none"
               d="m 522.04312,263.51755 c 1.4584,0.28206 3.29801,1.26071 4.42353,2.25236 1.15064,1.01376 2.8775,2.67466 2.92296,4.2569 0.029,1.00897 -0.95713,2.23507 -1.70266,2.89653 -0.53254,0.47248 -1.46593,0.80103 -2.15183,0.91926 -1.44788,0.24954 -3.46165,-0.79186 -4.86135,-0.3197 -1.22478,0.41317 -2.58488,1.74409 -3.33432,2.83953 -1.05986,1.54919 -1.73314,2.21303 -1.97207,4.08588 -0.18291,1.43387 0.56907,6.06815 0.56907,6.06815 0,0 -4.30601,-3.27428 -5.27318,-5.10185 -1.41321,-2.67043 -1.9827,-5.7343 -1.16794,-8.70455 0.51463,-1.87607 2.30382,-3.97207 3.73095,-5.25042 1.76099,-1.57743 4.61448,-3.08545 6.83338,-3.7662 0.57489,-0.17636 1.39927,-0.28889 1.98346,-0.17589 z"
               id="path3707"
               sodipodi:nodetypes="cssssssscsssss" />
            <path
               inkscape:connector-curvature="0"
               style="fill:#ffffff;fill-opacity:1;fill-rule:evenodd;stroke:#333333;stroke-width:2.20267105;stroke-linecap:butt;stroke-linejoin:miter;stroke-miterlimit:4;stroke-opacity:1;stroke-dasharray:none"
               d="m 536.65351,276.95699 c 1.4584,0.28206 3.29801,1.26071 4.42353,2.25236 1.15064,1.01376 2.8775,2.67466 2.92296,4.2569 0.029,1.00897 -0.95713,2.23507 -1.70266,2.89653 -0.53254,0.47248 -1.46593,0.80103 -2.15183,0.91926 -1.44788,0.24954 -3.46165,-0.79186 -4.86135,-0.3197 -1.22478,0.41317 -2.58488,1.74409 -3.33432,2.83953 -1.05986,1.54919 -1.73314,2.21303 -1.97207,4.08588 -0.18291,1.43387 0.56907,6.06815 0.56907,6.06815 0,0 -4.30601,-3.27428 -5.27318,-5.10185 -1.41321,-2.67043 -1.9827,-5.7343 -1.16794,-8.70455 0.51463,-1.87607 2.30382,-3.97207 3.73095,-5.25042 1.76099,-1.57743 4.61448,-3.08545 6.83338,-3.7662 0.57489,-0.17636 1.39927,-0.28889 1.98346,-0.17589 z"
               id="path3709"
               sodipodi:nodetypes="cssssssscsssss" />
            <path
               inkscape:connector-curvature="0"
               style="fill:#ffffff;fill-opacity:1;fill-rule:evenodd;stroke:#333333;stroke-width:2.20267105;stroke-linecap:butt;stroke-linejoin:miter;stroke-miterlimit:4;stroke-opacity:1;stroke-dasharray:none"
               d="m 558.01357,291.01707 c 1.46983,-0.21472 3.52928,0.10245 4.91888,0.66741 1.4206,0.57754 3.59862,1.57597 4.16338,3.05469 0.36014,0.94295 -0.16642,2.42568 -0.65208,3.29601 -0.34692,0.62168 -1.11972,1.23969 -1.72825,1.57753 -1.28457,0.7131 -3.52912,0.39413 -4.69478,1.30151 -1.01999,0.794 -1.86503,2.49902 -2.21125,3.78034 -0.48962,1.81207 -0.90629,2.66082 -0.51416,4.50768 0.30023,1.41396 2.53857,5.54093 2.53857,5.54093 0,0 -5.14497,-1.6709 -6.66077,-3.07723 -2.21488,-2.05492 -3.763,-4.75954 -3.97345,-7.83231 -0.13291,-1.94083 0.86488,-4.50964 1.79055,-6.18715 1.1422,-2.06996 3.33867,-4.43471 5.20889,-5.80919 0.48456,-0.3561 1.2257,-0.73422 1.81447,-0.82022 z"
               id="path3711"
               sodipodi:nodetypes="cssssssscsssss" />
          </g>
          <path
             inkscape:connector-curvature="0"
             style="fill:none;stroke:#333333;stroke-width:2.20267081;stroke-linecap:butt;stroke-linejoin:miter;stroke-miterlimit:4;stroke-opacity:1;stroke-dasharray:none"
             d="m 532.84947,271.14966 c 0,0 9.86136,-6.42203 13.90042,-7.81899 3.26879,-1.13056 7.86402,-1.8721 11.2941,-2.31674"
             id="path3713"
             sodipodi:nodetypes="css" />
          <path
             inkscape:connector-curvature="0"
             style="fill:none;stroke:#333333;stroke-width:2.20267081;stroke-linecap:butt;stroke-linejoin:miter;stroke-miterlimit:4;stroke-opacity:1;stroke-dasharray:none"
             d="m 549.9354,285.62926 c 0,0 7.19885,-6.13688 10.71491,-8.10857 2.2796,-1.27833 5.54757,-2.66408 8.10858,-3.18552 6.21689,-1.26581 9.58194,-0.68927 9.58194,-0.68927"
             id="path3715"
             sodipodi:nodetypes="cssc" />
        </g>
        <g
           transform="translate(-5.0515464,-19.574742)"
           id="g3525">
          <path
             inkscape:connector-curvature="0"
             style="fill:#000000;fill-opacity:1;fill-rule:evenodd;stroke:#333333;stroke-width:2.64320517;stroke-linecap:butt;stroke-linejoin:miter;stroke-miterlimit:4;stroke-opacity:1;stroke-dasharray:none"
             d="m 105.51838,188.82703 c -10.992153,3.40408 -30.466249,6.91856 -38.287922,15.35874 -3.786998,4.08645 -9.293913,11.32548 -8.021447,16.74961 0.643186,2.7417 4.922867,4.43414 7.39661,5.77992 3.798197,2.06631 6.981927,1.43414 9.77949,4.73105 2.696388,3.17769 3.190807,10.77774 6.186578,13.67492 2.713199,2.62389 8.900906,2.95113 12.464893,1.70842 6.010178,-2.09566 14.671708,-15.32634 14.671708,-15.32634 l 12.35826,1.08605 c 0,0 11.78867,-8.69514 12.9112,-14.38409 0.8561,-4.3387 -4.94183,-13.88816 -4.94183,-13.88816 l 37.42805,-31.7847 c 0,0 -46.13612,11.39867 -61.94559,16.29458 z"
             id="path3509"
             sodipodi:nodetypes="cssssssccsccs" />
          <path
             inkscape:connector-curvature="0"
             sodipodi:nodetypes="cssssssscsssss"
             id="path3515"
             d="m 60.304065,220.42485 c 1.209415,-0.86244 3.186309,-1.52108 4.680525,-1.6533 1.527549,-0.1352 3.921131,-0.24198 5.099014,0.81544 0.751118,0.67431 0.960039,2.23383 0.925595,3.2299 -0.02461,0.7115 -0.429753,1.61428 -0.816751,2.19279 -0.816946,1.22116 -2.95933,1.96276 -3.581754,3.30242 -0.544629,1.17225 -0.517472,3.07501 -0.240131,4.37298 0.392229,1.8356 0.409299,2.78096 1.601789,4.24473 0.912993,1.12066 4.78939,3.76935 4.78939,3.76935 0,0 -5.340063,0.86392 -7.330898,0.30534 -2.908983,-0.81619 -5.521639,-2.51491 -7.11253,-5.1522 -1.004832,-1.66577 -1.2907,-4.4067 -1.233571,-6.3218 0.07048,-2.36314 0.94412,-5.47011 1.979924,-7.54714 0.268374,-0.53812 0.754933,-1.21305 1.239398,-1.55851 z"
             style="fill:#ffffff;fill-opacity:1;fill-rule:evenodd;stroke:#333333;stroke-width:2.20267105;stroke-linecap:butt;stroke-linejoin:miter;stroke-miterlimit:4;stroke-opacity:1;stroke-dasharray:none" />
          <path
             inkscape:connector-curvature="0"
             sodipodi:nodetypes="cssssssscsssss"
             id="path3517"
             d="m 85.680682,237.1471 c 1.20941,-0.86244 3.18631,-1.52108 4.68052,-1.6533 1.52755,-0.1352 3.92113,-0.24198 5.09902,0.81544 0.75112,0.67431 0.96004,2.23383 0.92559,3.2299 -0.02461,0.7115 -0.42975,1.61428 -0.81675,2.19279 -0.81694,1.22116 -2.95933,1.96276 -3.58175,3.30242 -0.54463,1.17225 -0.51747,3.07501 -0.24013,4.37298 0.39223,1.8356 0.4093,2.78096 1.60179,4.24473 0.91299,1.12066 4.78939,3.76935 4.78939,3.76935 0,0 -5.34007,0.86392 -7.3309,0.30534 -2.90899,-0.81619 -5.52164,-2.51491 -7.11253,-5.1522 -1.00483,-1.66577 -1.2907,-4.4067 -1.23357,-6.3218 0.07047,-2.36314 0.94412,-5.47011 1.97992,-7.54714 0.26837,-0.53812 0.75493,-1.21305 1.2394,-1.55851 z"
             style="fill:#ffffff;fill-opacity:1;fill-rule:evenodd;stroke:#333333;stroke-width:2.20267105;stroke-linecap:butt;stroke-linejoin:miter;stroke-miterlimit:4;stroke-opacity:1;stroke-dasharray:none" />
          <path
             inkscape:connector-curvature="0"
             sodipodi:nodetypes="cssssssscsssss"
             id="path3519"
             d="m 115.98996,225.14968 c 1.20941,-0.86244 3.18631,-1.52108 4.68052,-1.6533 1.52755,-0.1352 3.92113,-0.24198 5.09902,0.81544 0.75112,0.67431 0.96004,2.23383 0.92559,3.2299 -0.0246,0.7115 -0.42975,1.61428 -0.81675,2.19279 -0.81694,1.22116 -2.95933,1.96276 -3.58175,3.30242 -0.54463,1.17225 -0.51747,3.07501 -0.24013,4.37298 0.39223,1.8356 0.4093,2.78096 1.60179,4.24473 0.91299,1.12066 4.78939,3.76935 4.78939,3.76935 0,0 -5.34007,0.86392 -7.3309,0.30534 -2.90899,-0.81619 -5.52164,-2.51491 -7.11253,-5.1522 -1.00483,-1.66577 -1.2907,-4.4067 -1.23357,-6.3218 0.0705,-2.36314 0.94412,-5.47011 1.97992,-7.54714 0.26837,-0.53812 0.75493,-1.21305 1.2394,-1.55851 z"
             style="fill:#ffffff;fill-opacity:1;fill-rule:evenodd;stroke:#333333;stroke-width:2.20267105;stroke-linecap:butt;stroke-linejoin:miter;stroke-miterlimit:4;stroke-opacity:1;stroke-dasharray:none" />
          <path
             inkscape:connector-curvature="0"
             style="fill:none;stroke:#333333;stroke-width:2.20267081;stroke-linecap:butt;stroke-linejoin:miter;stroke-miterlimit:4;stroke-opacity:1;stroke-dasharray:none"
             d="m 76.957469,232.34086 c 0,0 2.013607,-9.83521 3.867273,-13.06251 2.134877,-3.7169 4.077755,-6.86726 4.077755,-6.86726"
             id="path3521"
             sodipodi:nodetypes="css" />
          <path
             inkscape:connector-curvature="0"
             style="fill:none;stroke:#333333;stroke-width:2.20267081;stroke-linecap:butt;stroke-linejoin:miter;stroke-miterlimit:4;stroke-opacity:1;stroke-dasharray:none"
             d="m 110.12726,231.07798 c 0,0 -0.19007,-8.97419 -0.90786,-12.90529 -0.38796,-2.12474 -2.24429,-5.13016 -2.24429,-5.13016"
             id="path3523"
             sodipodi:nodetypes="css" />
        </g>
        <g
           transform="translate(-8.2087629,-24.626288)"
           id="g3492">
          <path
             inkscape:connector-curvature="0"
             sodipodi:nodetypes="cssssssscsssss"
             id="path3745"
             d="m 288.62516,236.85159 c 1.39797,0.50219 3.06592,1.75114 4.02621,2.90353 0.98172,1.17808 2.43372,3.08395 2.23622,4.65448 -0.12594,1.0015 -1.28827,2.06204 -2.12635,2.60145 -0.59865,0.38531 -1.57135,0.56697 -2.26727,0.57872 -1.46902,0.0248 -3.29945,-1.31289 -4.75496,-1.06076 -1.27364,0.22063 -2.82159,1.32745 -3.73002,2.29513 -1.28471,1.36851 -2.05175,1.92135 -2.57481,3.73549 -0.40044,1.38891 -0.36738,6.08368 -0.36738,6.08368 0,0 -3.7535,-3.89536 -4.42923,-5.84953 -0.98738,-2.85543 -1.08071,-5.97039 0.17952,-8.78073 0.796,-1.77507 2.8852,-3.57219 4.49135,-4.61678 1.98188,-1.289 5.03273,-2.34201 7.32973,-2.67476 0.59512,-0.0862 1.42701,-0.0711 1.98699,0.13008 z"
             style="fill:#ffffff;fill-opacity:1;fill-rule:evenodd;stroke:#333333;stroke-width:2.20267105;stroke-linecap:butt;stroke-linejoin:miter;stroke-miterlimit:4;stroke-opacity:1;stroke-dasharray:none" />
          <g
             id="g3473"
             transform="translate(-686.1436,4.7265308)">
            <path
               inkscape:connector-curvature="0"
               sodipodi:nodetypes="cssscssscsscssscssscssscsscscssscscsscsscscscscscsscsssssccc"
               id="path2640"
               d="m 887.44129,97.774078 c 0,0 10.07604,-0.177447 13.72469,-2.19595 1.53194,-0.847499 3.82182,-2.641282 3.84291,-4.391899 0.0155,-1.286226 -1.51565,-2.91517 -2.74494,-3.293925 -1.14585,-0.353046 -3.84291,1.097975 -3.84291,1.097975 0,0 2.75691,-5.196577 4.94089,-6.038863 3.10767,-1.198521 8.49046,-0.56607 10.97975,1.646963 1.40341,1.247665 2.81873,5.894057 2.80226,7.77181 -0.0361,4.117248 -4.99821,11.442751 -4.99821,11.442751 0,0 11.49959,2.41046 14.82266,-0.54899 1.61771,-1.44069 2.42483,-5.424511 1.09797,-7.136834 -1.01382,-1.308347 -5.48987,-0.548988 -5.48987,-0.548988 0,0 4.79057,-3.529741 7.13684,-3.293924 3.04817,0.306363 6.66819,3.406202 8.23481,6.038862 1.87003,3.142534 3.33225,8.832364 1.64696,12.077724 -2.47816,4.77219 -15.92064,8.23481 -15.92064,8.23481 0,0 8.35573,1.14113 11.52874,2.74494 2.5031,1.2652 4.35876,5.65356 7.13684,6.03886 1.97116,0.27339 5.3199,-0.88932 6.03886,-2.74494 0.90629,-2.33914 -3.29392,-7.68582 -3.29392,-7.68582 0,0 7.65014,2.71133 9.33278,5.48987 1.7084,2.82107 1.81953,7.93627 0.54899,10.97975 -1.61761,3.87486 -6.58265,7.65255 -10.43076,9.33279 -4.85111,2.11819 -17.5676,1.64696 -17.5676,1.64696 0,0 7.60796,2.52939 9.88177,4.94089 2.58145,2.73776 2.51053,8.65602 4.94089,11.52874 1.77042,2.09266 7.68583,4.94088 7.68583,4.94088 0,0 -9.63321,1.03885 -13.72469,0.54899 -2.38101,-0.28507 -7.68583,-2.19595 -7.68583,-2.19595 0,0 5.04481,5.72272 7.13684,8.23481 2.02458,2.43109 4.083,6.30225 6.58785,8.23482 2.56852,1.9817 6.6899,3.81195 9.88178,4.3919 2.75949,0.50139 9.33278,-0.54899 9.33278,-0.54899 0,0 -9.59594,6.11735 -14.27367,7.13684 -4.66942,1.01768 -15.92064,-0.54899 -15.92064,-0.54899 0,0 6.20861,10.58142 9.88178,14.27367 1.41786,1.42523 3.55557,3.2951 5.48987,3.84292 2.69854,0.76426 9.33279,-0.54899 9.33279,-0.54899 0,0 -3.9187,5.9682 -6.58785,7.13684 -4.52608,1.98166 -12.03697,2.18265 -16.46963,0 -2.42336,-1.19327 -5.48987,-7.13684 -5.48987,-7.13684 0,0 4.62243,8.62273 4.3919,12.62671 -0.30485,5.29486 -7.68583,15.92064 -7.68583,15.92064 0,0 -2.0017,-9.49185 -4.94088,-12.07773 -1.9196,-1.68886 -8.23482,-2.19595 -8.23482,-2.19595 0,0 -0.11904,7.15858 1.09798,9.88178 1.71323,3.83353 9.33279,10.43076 9.33279,10.43076 0,0 -11.389,0.44627 -15.92064,-1.09798 -7.86913,-2.68158 -23.05747,-15.37165 -23.05747,-15.37165 0,0 -9.39342,4.22714 -10.43077,7.68583 -1.03735,3.45869 2.03087,8.48011 3.84292,10.43076 1.81205,1.95065 6.03886,2.74494 6.03886,2.74494 0,0 -11.39449,2.10194 -15.37165,0 -3.97716,-2.10194 -7.24124,-7.74996 -8.23481,-12.07773 -0.99357,-4.32777 2.9856,-9.87558 2.19595,-14.82266 -0.78965,-4.94708 -1.94293,-12.14479 -3.18327,-16.46962 -1.24034,-4.32483 -3.19276,-5.52796 -6.14952,-11.52874 -2.95676,-6.00078 -24.15545,-22.50849 -24.15545,-22.50849 l 29.09634,-65.87849 31.84127,-6.587852 z"
               style="fill:#000000;fill-opacity:1;fill-rule:evenodd;stroke:#333333;stroke-width:2.64320517;stroke-linecap:butt;stroke-linejoin:miter;stroke-miterlimit:4;stroke-opacity:1;stroke-dasharray:none" />
            <g
               transform="matrix(0.9985337,-0.05413438,0.05413438,0.9985337,-5.1397361,43.146179)"
               id="g3458">
              <path
                 inkscape:connector-curvature="0"
                 style="fill:#000000;fill-opacity:1;fill-rule:evenodd;stroke:#333333;stroke-width:2.64320493;stroke-linecap:butt;stroke-linejoin:miter;stroke-miterlimit:4;stroke-opacity:1;stroke-dasharray:none"
                 d="m 803.49046,103.76112 c 0,0 -2.28604,-3.71274 -4.75001,-5.515559 -1.5021,-1.099043 -6.54438,-2.661873 -9.09825,-3.310344 -2.3927,-0.607542 -3.59007,-0.182915 -3.59007,-0.182915 0,0 2.62356,1.52847 3.82032,2.726748 2.01259,2.015152 4.84434,8.16455 4.84434,8.16455 0,0 -2.92671,-1.99054 -4.35727,-2.43124 -4.41853,-1.36122 -15.35087,-1.3659 -15.35087,-1.3659 0,0 8.69908,5.22472 10.99486,8.76317 1.98235,3.05537 0.0616,5.36024 -0.061,9.00028 -0.30687,9.10749 -8.05526,22.92891 -7.89891,33.52192 0.0644,4.36369 2.45542,14.19018 2.45542,14.19018 0,0 -0.3988,10.93365 -3.44241,15.93066 -1.11807,1.83565 -3.80605,3.44759 -4.18808,5.56272 -0.67713,3.74883 -1.82787,6.53304 -2.05882,9.79703 -0.29058,4.10689 7.3566,7.27846 11.46866,7.48343 1.3777,0.0687 3.11589,-1.16548 4.48625,-1.00773 2.28831,0.26343 4.61464,3.18966 6.91309,3.341 2.71286,0.17864 12.30817,1.10327 14.27652,-0.77212 0.99953,-0.95232 4.99652,-3.45331 8.0177,-7.43596 1.77743,-2.34309 1.2434,-5.26382 2.68909,-7.9253 2.73636,-5.03761 6.83119,-9.45732 6.83119,-9.45732 0,0 -4.62442,3.80464 -7.24318,9.44645 -3.05162,6.57437 -4.15717,15.28249 -4.04382,17.80264 0.16716,3.71657 8.35462,5.78637 11.22167,8.15718 1.85593,1.5347 6.17537,3.70658 8.44664,2.9059 2.62677,-0.926 2.14657,-5.19678 4.89765,-5.63148 1.55809,-0.2462 6.478,1.80745 6.478,1.80745 0,0 -1.53064,-7.21818 -3.50334,-9.54452 -1.25102,-1.47528 -5.60836,-3.18094 -5.60836,-3.18094 0,0 6.39621,-13.793 8.67261,-19.89219 1.57507,-4.2201 5.37353,-11.03605 4.94216,-15.5198 -0.33777,-3.51099 -3.07849,-7.24542 -6.04403,-9.15507 -1.09375,-0.70432 -4.32618,-0.29702 -4.32618,-0.29702 0,0 -0.50031,-2.6747 0.96093,-3.38779 3.61933,-1.76626 7.21975,-1.56906 11.00989,-0.2074 6.66332,2.39387 16.11334,6.97675 20.94556,12.15169 2.83478,3.03584 6.24788,7.8302 8.26163,12.4289 0.81827,1.86867 1.4055,3.70503 1.62897,5.37795 0.54471,4.07762 -1.60473,9.64937 -0.82227,13.68811 0.52757,2.72306 2.13996,6.26201 3.96099,8.35421 1.47799,1.69806 4.12334,3.44853 6.27228,4.11932 2.71455,0.84734 9.47633,0.22767 9.47633,0.22767 l -5.90244,-4.90954 -1.1173,-13.85387 c 0,0 2.49372,-16.75982 1.07649,-23.74988 -1.56396,-7.71372 -3.74821,-8.72463 -3.74821,-8.72463 0,0 7.92988,4.63417 11.7375,14.48113 1.19056,3.07895 1.72865,10.86707 1.72865,10.86707 0,0 3.91922,-12.93206 3.38015,-18.5684 -0.63845,-6.6754 -4.40636,-15.2365 -8.09918,-20.83397 -3.33786,-5.05941 -17.08895,-16.22613 -17.08895,-16.22613 0,0 -16.27584,-1.67565 -24.47534,-1.36492 -4.45978,0.16901 -14.57332,2.98858 -14.57332,2.98858 0,0 10.29259,-2.5862 14.80897,-2.88072 10.00408,-0.65239 33.35379,2.06677 33.35379,2.06677 0,0 -11.91446,-9.70287 -17.72166,-12.7201 -4.27173,-2.21948 -10.36183,-4.7918 -15.15013,-5.28779 -4.08223,-0.42285 -13.56591,1.76498 -13.56591,1.76498 0,0 9.69501,-1.7757 13.88234,-1.584 4.76087,0.21794 10.89487,4.24224 15.55316,3.23551 5.42193,-1.17175 12.88644,-5.74909 14.93214,-10.90519 0.84642,-2.1334 0.23473,-9.343717 -0.85537,-11.363487 -1.47228,-2.727839 -5.54572,-6.936313 -8.54767,-7.708941 -1.9806,-0.50976 -6.58493,1.764088 -6.58493,1.764088 0,0 3.87326,3.468422 4.77801,5.227034 0.78428,1.524473 -0.4652,3.393402 -1.82981,4.431158 -1.22054,0.9282 -4.84416,-0.661622 -6.3443,-0.979226 -7.40782,-1.568342 -13.43706,-4.611789 -20.04131,-4.355744 -2.24871,0.08717 -8.44,0.827851 -10.90653,2.641934 -1.61378,1.186915 -6.59602,6.176274 -6.59602,6.176274 0,0 -1.03375,-4.995211 -2.23191,-6.764775 -2.58604,-3.819311 -7.79572,-7.550244 -11.76818,-9.894214 -2.84897,-1.681053 -10.29206,-3.956971 -10.29206,-3.956971 0,0 -3.35003,9.655851 -4.28036,13.926531 -0.53669,2.463631 -1.09616,8.332879 -1.09616,8.332879 z"
                 id="path5193"
                 sodipodi:nodetypes="csscscscssscssssssssscssssscscssscsssssssscccscscsscscscsscssssscssssscsscsc" />
              <g
                 id="g5187"
                 transform="matrix(0.7377703,-0.6750517,0.6750517,0.7377703,369.43063,473.66576)">
                <path
                   inkscape:connector-curvature="0"
                   sodipodi:nodetypes="cssssssssc"
                   id="path3167"
                   d="m 540.69049,65.74362 c 0,0 3.18068,0.428645 4.32127,-0.02763 2.24015,-0.896149 4.4996,-2.925757 4.78899,-5.321087 0.1513,-1.252346 -0.33352,-2.317069 -1.24159,-3.19266 -0.97658,-0.941656 -5.25173,-2.875174 -7.18943,-3.106575 -2.7898,-0.333157 -12.81542,-3.449776 -13.91758,-4.165599 -0.99085,-0.643528 -4.3831,-0.999989 -4.68526,0.176396 -0.14563,0.566916 -0.74055,1.953894 -0.57561,2.515494 0.24957,0.849723 0.55353,2.124358 1.16603,2.764002 0.76581,0.799718 3.22277,2.771799 3.22277,2.771799"
                   style="fill:#000000;fill-opacity:1;fill-rule:evenodd;stroke:#333333;stroke-width:2.20267081;stroke-linecap:butt;stroke-linejoin:miter;stroke-miterlimit:4;stroke-opacity:1;stroke-dasharray:none" />
              </g>
              <path
                 inkscape:connector-curvature="0"
                 style="fill:none;stroke:#333333;stroke-width:2.20267057;stroke-linecap:butt;stroke-linejoin:miter;stroke-miterlimit:4;stroke-opacity:1;stroke-dasharray:none"
                 d="m 784.78924,202.55769 c 0,0 -4.2931,-6.8522 -4.35498,-9.264 -0.0619,-2.41179 0.35919,-3.14505 1.25751,-3.27077 0.89831,-0.12572 2.0173,0.44998 2.94932,2.57787 0.93202,2.12789 0.14815,9.9569 0.14815,9.9569 z"
                 id="path6013"
                 sodipodi:nodetypes="csssc" />
              <path
                 inkscape:connector-curvature="0"
                 style="fill:#000000;fill-rule:evenodd;stroke:#333333;stroke-width:2.20267057;stroke-linecap:butt;stroke-linejoin:miter;stroke-miterlimit:4;stroke-opacity:1;stroke-dasharray:none"
                 d="m 814.10274,108.28618 c 0,0 -3.11484,-4.11855 -3.45694,-6.22788 -0.5396,-3.327193 2.06862,-11.043474 2.06862,-11.043474 0,0 7.09811,1.25075 8.23501,3.710405 0.5616,1.215032 -1.78269,3.062697 -1.23965,4.286125 0.71378,1.608124 4.57437,0.955357 5.27116,2.570904 0.46878,1.08691 -1.17588,3.76633 -1.17588,3.76633 0,0 -4.65283,-1.84761 -6.50205,-1.13904 -1.45189,0.55632 -3.20027,4.07663 -3.20027,4.07663 z"
                 id="path6022"
                 sodipodi:nodetypes="cscssscsc" />
              <path
                 inkscape:connector-curvature="0"
                 style="fill:none;stroke:#333333;stroke-width:2.20267057;stroke-linecap:butt;stroke-linejoin:miter;stroke-miterlimit:4;stroke-opacity:1;stroke-dasharray:none"
                 d="m 813.85753,116.12072 c 0,0 8.35216,9.07927 10.49722,13.82439 1.13241,2.505 1.99265,6.23796 1.81768,8.98145 -0.33577,5.26461 -4.20986,17.83725 -4.20986,17.83725 l 0.68017,1.13575 c 0,0 1.72952,-15.14297 6.80968,-17.71195 1.89093,-0.95622 5.32452,0.35721 6.81219,1.86611 1.27339,1.29156 2.69458,4.01034 3.0102,5.79641 0.49224,2.78559 -0.14881,9.39948 -0.14881,9.39948"
                 id="path6018"
                 sodipodi:nodetypes="cssccsssc" />
              <path
                 inkscape:connector-curvature="0"
                 style="fill:none;stroke:#333333;stroke-width:2.20267057;stroke-linecap:butt;stroke-linejoin:miter;stroke-miterlimit:4;stroke-opacity:1;stroke-dasharray:none"
                 d="m 864.82411,140.23353 c 0,0 8.1914,2.26706 11.15197,4.28758 4.67297,3.18919 8.24378,7.16692 11.79206,11.57343 1.43035,1.77631 4.39071,6.20588 4.39071,6.20588"
                 id="path6020"
                 sodipodi:nodetypes="csss" />
            </g>
          </g>
          <path
             inkscape:connector-curvature="0"
             style="fill:none;stroke:#333333;stroke-width:2.20267081;stroke-linecap:butt;stroke-linejoin:miter;stroke-miterlimit:4;stroke-opacity:1;stroke-dasharray:none"
             d="m 126.43525,188.98849 c 0,0 0.53824,-3.70482 3.8402,-8.26079 1.20892,-1.66803 3.36316,-4.36996 5.23928,-5.81883 2.14423,-1.65591 5.84018,-2.39209 7.92098,-2.33933 2.94213,0.0746 6.38454,3.5967 8.37902,6.24694 1.05707,1.40463 2.08464,3.80454 2.3332,5.69045 0.3034,2.30205 -0.91895,7.69088 -0.91895,7.69088"
             id="path3490"
             sodipodi:nodetypes="csssssc" />
        </g>
      </g>
    </g>
    <path
       inkscape:connector-curvature="0"
       sodipodi:nodetypes="csssssssssc"
       id="path2448"
       d="m 532.47164,40.771801 c 0,0 -2.76154,0.43057 -3.90213,0.88685 -2.24015,0.89615 -4.4996,2.92576 -4.78899,5.32109 -0.1513,1.25234 0.33352,2.31707 1.24159,3.19266 0.97658,0.94165 5.25173,2.875171 7.18943,3.106571 2.7898,0.33316 12.81542,3.449769 13.91758,4.165599 0.99084,0.64353 2.84675,1.06319 3.90214,0.53211 1.08494,-0.54595 1.64891,-2.37102 1.95107,-3.5474 0.14562,-0.56692 0.16494,-1.38947 0,-1.95107 -0.24956,-0.84972 -0.98382,-1.84354 -1.59633,-2.48318 -0.7658,-0.79972 -3.01529,-2.12844 -3.01529,-2.12844"
       style="fill:#000000;fill-opacity:1;fill-rule:evenodd;stroke:#333333;stroke-width:2.20267081;stroke-linecap:butt;stroke-linejoin:miter;stroke-miterlimit:4;stroke-opacity:1;stroke-dasharray:none"
       transform="matrix(0.700145,-0.7140006,0.7140006,0.700145,-304.96156,476.21875)" />
  </g>
  <use
     height="1052.3622"
     width="744.09448"
     y="0"
     x="0"
     style="fill:url(#rg-1);stroke:#000000;stroke-width:3"
     id="shine"
     xlink:href="#shield" />
</svg>
