<?xml version="1.0" encoding="UTF-8" standalone="no"?>
<svg
   xmlns:dc="http://purl.org/dc/elements/1.1/"
   xmlns:cc="http://creativecommons.org/ns#"
   xmlns:rdf="http://www.w3.org/1999/02/22-rdf-syntax-ns#"
   xmlns:svg="http://www.w3.org/2000/svg"
   xmlns="http://www.w3.org/2000/svg"
   xmlns:xlink="http://www.w3.org/1999/xlink"
   xmlns:sodipodi="http://sodipodi.sourceforge.net/DTD/sodipodi-0.dtd"
   xmlns:inkscape="http://www.inkscape.org/namespaces/inkscape"
   width="600"
   height="660"
   id="svg2"
   version="1.1"
   inkscape:version="0.48.2 r9819"
   sodipodi:docname="House_Langward.svg">
  <metadata
     id="metadata24">
    <rdf:RDF>
      <cc:Work
         rdf:about="">
        <dc:format>image/svg+xml</dc:format>
        <dc:type
           rdf:resource="http://purl.org/dc/dcmitype/StillImage" />
        <dc:title />
      </cc:Work>
    </rdf:RDF>
  </metadata>
  <sodipodi:namedview
     pagecolor="#ffffff"
     bordercolor="#666666"
     borderopacity="1"
     objecttolerance="10"
     gridtolerance="10"
     guidetolerance="10"
     inkscape:pageopacity="0"
     inkscape:pageshadow="2"
     inkscape:window-width="1366"
     inkscape:window-height="715"
     id="namedview22"
     showgrid="false"
     inkscape:zoom="0.35757576"
     inkscape:cx="-136.25247"
     inkscape:cy="113.92261"
     inkscape:window-x="-8"
     inkscape:window-y="-8"
     inkscape:window-maximized="1"
     inkscape:current-layer="layer2" />
  <defs
     id="defs4">
    <inkscape:path-effect
       is_visible="true"
       id="path-effect3136"
       effect="spiro" />
    <inkscape:path-effect
       effect="spiro"
       id="path-effect3132"
       is_visible="true" />
    <inkscape:path-effect
       effect="spiro"
       id="path-effect3101"
       is_visible="true" />
    <inkscape:path-effect
       is_visible="true"
       id="path-effect3085"
       effect="spiro" />
    <inkscape:path-effect
       is_visible="true"
       id="path-effect3083"
       effect="spiro" />
    <inkscape:path-effect
       is_visible="true"
       id="path-effect3081"
       effect="spiro" />
    <inkscape:path-effect
       is_visible="true"
       id="path-effect3079"
       effect="spiro" />
    <inkscape:path-effect
       is_visible="true"
       id="path-effect3077"
       effect="spiro" />
    <inkscape:path-effect
       is_visible="true"
       id="path-effect3075"
       effect="spiro" />
    <inkscape:path-effect
       effect="spiro"
       id="path-effect3049"
       is_visible="true" />
    <inkscape:path-effect
       is_visible="true"
       id="path-effect3045"
       effect="spiro" />
    <inkscape:path-effect
       effect="spiro"
       id="path-effect3041"
       is_visible="true" />
    <radialGradient
       id="rg"
       gradientUnits="userSpaceOnUse"
       cx="220"
       cy="220"
       r="405">
      <stop
         style="stop-color:#fff;stop-opacity:.3"
         offset="0"
         id="stop7" />
      <stop
         style="stop-color:#fff;stop-opacity:.2"
         offset=".2"
         id="stop9" />
      <stop
         style="stop-color:#666;stop-opacity:.1"
         offset=".6"
         id="stop11" />
      <stop
         style="stop-color:#000;stop-opacity:.13"
         offset="1"
         id="stop13" />
    </radialGradient>
    <path
       id="shield"
       d="m2,2v257c0,286 298,398 298,398c0,0 298-112 298-398V2z" />
    <radialGradient
       inkscape:collect="always"
       xlink:href="#rg-7"
       id="radialGradient3055-1"
       gradientUnits="userSpaceOnUse"
       cx="220"
       cy="220"
       r="405" />
    <radialGradient
       id="rg-7"
       gradientUnits="userSpaceOnUse"
       cx="220"
       cy="220"
       r="405">
      <stop
         style="stop-color:#fff;stop-opacity:.3"
         offset="0"
         id="stop7-4" />
      <stop
         style="stop-color:#fff;stop-opacity:.2"
         offset=".2"
         id="stop9-0" />
      <stop
         style="stop-color:#666;stop-opacity:.1"
         offset=".6"
         id="stop11-9" />
      <stop
         style="stop-color:#000;stop-opacity:.13"
         offset="1"
         id="stop13-4" />
    </radialGradient>
    <radialGradient
       r="405"
       cy="220"
       cx="220"
       gradientUnits="userSpaceOnUse"
       id="radialGradient3074"
       xlink:href="#rg-7"
       inkscape:collect="always" />
    <inkscape:path-effect
       is_visible="true"
       id="path-effect10120-1"
       effect="spiro" />
    <inkscape:path-effect
       effect="spiro"
       id="path-effect10118-3"
       is_visible="true" />
    <inkscape:path-effect
       effect="spiro"
       id="path-effect10116-9"
       is_visible="true" />
    <inkscape:path-effect
       effect="spiro"
       id="path-effect10114-7"
       is_visible="true" />
    <inkscape:path-effect
       effect="spiro"
       id="path-effect10112-7"
       is_visible="true" />
    <inkscape:path-effect
       effect="spiro"
       id="path-effect10110-2"
       is_visible="true" />
    <linearGradient
       inkscape:collect="always"
       xlink:href="#linearGradient4719-5"
       id="linearGradient4039"
       gradientUnits="userSpaceOnUse"
       gradientTransform="matrix(2.3257341,0,0,2.2943177,447.69485,-1820.2799)"
       x1="-145.25935"
       y1="984.24286"
       x2="-64.14286"
       y2="984.14789" />
    <linearGradient
       inkscape:collect="always"
       id="linearGradient4719-5">
      <stop
         style="stop-color:#666666;stop-opacity:1;"
         offset="0"
         id="stop4721-5" />
      <stop
         id="stop4809-1"
         offset="0.39344174"
         style="stop-color:#666666;stop-opacity:0.74901961;" />
      <stop
         style="stop-color:#666666;stop-opacity:0;"
         offset="1"
         id="stop4723-7" />
    </linearGradient>
    <radialGradient
       inkscape:collect="always"
       xlink:href="#linearGradient4801-8"
       id="radialGradient4041"
       gradientUnits="userSpaceOnUse"
       gradientTransform="matrix(-0.72153181,1.2650715,-2.2729984,-1.2616144,1712.0113,1733.7841)"
       cx="-307.14288"
       cy="782.36218"
       fx="-307.14288"
       fy="782.36218"
       r="63" />
    <linearGradient
       inkscape:collect="always"
       id="linearGradient4801-8">
      <stop
         style="stop-color:#000000;stop-opacity:1;"
         offset="0"
         id="stop4803-2" />
      <stop
         style="stop-color:#000000;stop-opacity:0;"
         offset="1"
         id="stop4805-4" />
    </linearGradient>
    <inkscape:path-effect
       effect="spiro"
       id="path-effect10108-4"
       is_visible="true" />
    <linearGradient
       inkscape:collect="always"
       xlink:href="#linearGradient4719-5"
       id="linearGradient4044"
       gradientUnits="userSpaceOnUse"
       gradientTransform="matrix(-2.4055369,0,0,-1.6485021,142.06168,1726.5307)"
       x1="-145.25935"
       y1="984.24286"
       x2="-64.14286"
       y2="984.14789" />
    <radialGradient
       inkscape:collect="always"
       xlink:href="#linearGradient4801-8"
       id="radialGradient4046"
       gradientUnits="userSpaceOnUse"
       gradientTransform="matrix(0.74628962,-0.90897301,2.3509914,0.90648896,-1165.637,-827.11785)"
       cx="-307.14288"
       cy="782.36218"
       fx="-307.14288"
       fy="782.36218"
       r="63" />
    <inkscape:path-effect
       effect="spiro"
       id="path-effect10102-7"
       is_visible="true" />
    <linearGradient
       inkscape:collect="always"
       xlink:href="#linearGradient4719-5"
       id="linearGradient4049"
       gradientUnits="userSpaceOnUse"
       gradientTransform="matrix(2.334989,0,0,-1.6146975,449.44065,1692.189)"
       x1="-145.25935"
       y1="984.24286"
       x2="-64.14286"
       y2="984.14789" />
    <radialGradient
       inkscape:collect="always"
       xlink:href="#linearGradient4801-8"
       id="radialGradient4051"
       gradientUnits="userSpaceOnUse"
       gradientTransform="matrix(-0.72440295,-0.89033332,-2.2820431,0.88790031,1718.7881,-809.09364)"
       cx="-307.14288"
       cy="782.36218"
       fx="-307.14288"
       fy="782.36218"
       r="63" />
    <inkscape:path-effect
       is_visible="true"
       id="path-effect10096-8"
       effect="spiro" />
    <linearGradient
       inkscape:collect="always"
       xlink:href="#linearGradient4719-5"
       id="linearGradient4054"
       gradientUnits="userSpaceOnUse"
       gradientTransform="matrix(-2.409599,0,0,2.2818507,139.61083,-1810.8163)"
       x1="-145.25935"
       y1="984.24286"
       x2="-64.14286"
       y2="984.14789" />
    <radialGradient
       inkscape:collect="always"
       xlink:href="#linearGradient4801-8"
       id="radialGradient4056"
       gradientUnits="userSpaceOnUse"
       gradientTransform="matrix(0.74754985,1.2581972,2.3549614,-1.2547588,-1170.296,1723.935)"
       cx="-307.14288"
       cy="782.36218"
       fx="-307.14288"
       fy="782.36218"
       r="63" />
    <inkscape:path-effect
       is_visible="true"
       id="path-effect10090-3"
       effect="spiro" />
    <inkscape:path-effect
       effect="spiro"
       id="path-effect10084-1"
       is_visible="true" />
    <inkscape:path-effect
       effect="spiro"
       id="path-effect10082-1"
       is_visible="true" />
    <radialGradient
       inkscape:collect="always"
       xlink:href="#linearGradient4801-8"
       id="radialGradient4061"
       gradientUnits="userSpaceOnUse"
       gradientTransform="matrix(-0.76516322,1.2901254,-2.4104477,-1.2865998,1806.8444,1757.4704)"
       cx="-307.14288"
       cy="782.36218"
       fx="-307.14288"
       fy="782.36218"
       r="63" />
    <inkscape:path-effect
       effect="spiro"
       id="path-effect10080-4"
       is_visible="true" />
    <inkscape:path-effect
       is_visible="true"
       id="path-effect3075-1"
       effect="spiro" />
    <inkscape:path-effect
       effect="spiro"
       id="path-effect3101-7"
       is_visible="true" />
    <linearGradient
       inkscape:collect="always"
       xlink:href="#grad1-7-7"
       id="linearGradient3085-8-8"
       gradientUnits="userSpaceOnUse"
       gradientTransform="matrix(0.77469594,0,0,0.30982404,152.68996,-13.619206)"
       x1="78.877235"
       y1="178.07356"
       x2="301.40585"
       y2="178.07356" />
    <linearGradient
       id="grad1-7-7"
       x1="78.877235"
       y1="178.07356"
       x2="301.40585"
       y2="178.07356"
       gradientTransform="scale(1.577772,0.63380513)"
       gradientUnits="userSpaceOnUse">
      <stop
         offset="0%"
         style="stop-color:#da0;"
         id="stop16-4-4" />
      <stop
         offset="40%"
         style="stop-color:#fd0;"
         id="stop18-0-0" />
      <stop
         offset="60%"
         style="stop-color:#fd0;"
         id="stop20-9-9" />
      <stop
         offset="100%"
         style="stop-color:#da0;"
         id="stop22-4-4" />
    </linearGradient>
    <linearGradient
       inkscape:collect="always"
       xlink:href="#grad1-7-7"
       id="linearGradient3081-8-8"
       gradientUnits="userSpaceOnUse"
       gradientTransform="matrix(0.77469594,0,0,0.30982404,-27.310046,-13.619206)"
       x1="78.877235"
       y1="178.07356"
       x2="301.40585"
       y2="178.07356" />
    <linearGradient
       id="linearGradient3093"
       x1="78.877235"
       y1="178.07356"
       x2="301.40585"
       y2="178.07356"
       gradientTransform="scale(1.577772,0.63380513)"
       gradientUnits="userSpaceOnUse">
      <stop
         offset="0%"
         style="stop-color:#da0;"
         id="stop3095" />
      <stop
         offset="40%"
         style="stop-color:#fd0;"
         id="stop3097" />
      <stop
         offset="60%"
         style="stop-color:#fd0;"
         id="stop3099" />
      <stop
         offset="100%"
         style="stop-color:#da0;"
         id="stop3101" />
    </linearGradient>
    <linearGradient
       y2="178.07356"
       x2="301.40585"
       y1="178.07356"
       x1="78.877235"
       gradientTransform="matrix(0.77469594,0,0,0.30982404,332.68995,-13.619206)"
       gradientUnits="userSpaceOnUse"
       id="linearGradient3128-1"
       xlink:href="#grad1-7-7"
       inkscape:collect="always" />
    <linearGradient
       id="linearGradient3104"
       x1="78.877235"
       y1="178.07356"
       x2="301.40585"
       y2="178.07356"
       gradientTransform="scale(1.577772,0.63380513)"
       gradientUnits="userSpaceOnUse">
      <stop
         offset="0%"
         style="stop-color:#da0;"
         id="stop3106" />
      <stop
         offset="40%"
         style="stop-color:#fd0;"
         id="stop3108" />
      <stop
         offset="60%"
         style="stop-color:#fd0;"
         id="stop3110" />
      <stop
         offset="100%"
         style="stop-color:#da0;"
         id="stop3112" />
    </linearGradient>
  </defs>
  <g
     inkscape:groupmode="layer"
     id="layer2"
     inkscape:label="Elements"
     style="display:inline">
    <path
       inkscape:connector-curvature="0"
       style="fill:#9f1d35;fill-opacity:1;stroke:none;display:inline"
       id="path7212"
       d="m 2,2 0,257 c 0,286 298,398 298,398 0,0 298,-112 298,-398 L 598,2 z" />
    <path
       inkscape:connector-curvature="0"
       style="fill:none;stroke:none;display:inline"
       id="path7200"
       d="m 2,2 0,257 c 0,286 298,398 298,398 0,0 298,-112 298,-398 L 598,2 z" />
    <path
       inkscape:connector-curvature="0"
       style="fill:#000000;fill-opacity:1;fill-rule:nonzero;stroke:none;display:inline"
       d="M 103.8125,319.5 C 77.667172,319.5 77.645313,339.49998 51.5,339.5 28.144012,339.5 25.652566,323.56169 6.75,320.15625 44.841791,561.09381 300,657 300,657 c 0,0 243.78227,-91.63673 290.34375,-320.78125 l 0,-0.0312 c -4.16885,1.97912 -9.18178,3.3125 -15.9375,3.3125 -26.14531,0 -26.13593,-20 -52.28125,-20 -26.14531,0 -26.13592,20 -52.28125,20 -26.14532,0 -26.13594,-20 -52.28125,-20 -26.14531,0 -26.16719,20 -52.3125,20 -26.14531,0 -26.13594,-20 -52.28125,-20 -26.14531,0 -26.13593,20 -52.28125,20 -26.14531,0 -26.1672,-20 -52.3125,-20 -26.14531,0 -26.13594,20 -52.28125,20 -26.14531,0 -26.13594,-20 -52.28125,-20 z"
       id="path3235" />
    <g
       style="fill:#ffffff;display:inline"
       transform="matrix(3.0971992,0,0,3.0971992,-27.662837,26.142901)"
       id="g3243">
      <path
         id="path3116"
         d="M 28.632518,30.5 26.279828,37.64731 19.132513,40 26.279828,42.35268 28.632518,49.5 30.985198,42.35268 38.132508,40 30.985198,37.64731 28.632518,30.5 z"
         style="fill:#ffffff;fill-opacity:1;fill-rule:evenodd;stroke:none;display:inline"
         inkscape:connector-curvature="0" />
      <path
         inkscape:connector-curvature="0"
         style="fill:#ffffff;fill-opacity:1;fill-rule:evenodd;stroke:none;display:inline"
         d="m 46.69612,53.995517 -2.35269,7.14731 -7.147315,2.35269 7.147315,2.35268 2.35269,7.14732 2.35268,-7.14732 7.14731,-2.35268 -7.14731,-2.35269 -2.35268,-7.14731 z"
         id="path3169" />
      <path
         id="path3171"
         d="M 49.691283,69.5 47.338593,76.64731 40.191278,79 47.338593,81.35268 49.691283,88.5 52.043963,81.35268 59.191273,79 52.043963,76.64731 49.691283,69.5 z"
         style="fill:#ffffff;fill-opacity:1;fill-rule:evenodd;stroke:none;display:inline"
         inkscape:connector-curvature="0" />
      <path
         inkscape:connector-curvature="0"
         style="fill:#ffffff;fill-opacity:1;fill-rule:evenodd;stroke:none;display:inline"
         d="m 37.664319,42.247757 -2.35269,7.14731 -7.147315,2.35269 7.147315,2.35268 2.35269,7.14732 2.35268,-7.14732 7.14731,-2.35268 -7.14731,-2.35269 -2.35268,-7.14731 z"
         id="path3173" />
      <path
         inkscape:connector-curvature="0"
         style="fill:#ffffff;fill-opacity:1;fill-rule:evenodd;stroke:none;display:inline"
         d="m 66.041084,26.25 -2.35269,7.14731 -7.147315,2.35269 7.147315,2.35268 2.35269,7.14732 2.352681,-7.14732 L 75.541075,35.75 68.393765,33.39731 66.041084,26.25 z"
         id="path3175" />
      <path
         id="path3177"
         d="m 50.582161,35.123872 -2.35269,7.14731 -7.147315,2.35269 7.147315,2.35268 2.35269,7.14732 2.352681,-7.14732 7.14731,-2.35268 -7.14731,-2.35269 -2.352681,-7.14731 z"
         style="fill:#ffffff;fill-opacity:1;fill-rule:evenodd;stroke:none;display:inline"
         inkscape:connector-curvature="0" />
      <path
         id="path3179"
         d="M 94.50001,62.5 92.14732,69.64731 85.000002,72 92.14732,74.35268 94.50001,81.5 96.85269,74.35268 104,72 96.85269,69.64731 94.50001,62.5 z"
         style="fill:#ffffff;fill-opacity:1;fill-rule:evenodd;stroke:none;display:inline"
         inkscape:connector-curvature="0" />
      <path
         inkscape:connector-curvature="0"
         style="fill:#ffffff;fill-opacity:1;fill-rule:evenodd;stroke:none;display:inline"
         d="M 94.50001,21 92.14732,28.14731 85.000002,30.5 92.14732,32.85268 94.50001,40 96.85269,32.85268 104,30.5 96.85269,28.14731 94.50001,21 z"
         id="path3181" />
      <path
         id="path3183"
         d="M 81.500009,35.5 79.147319,42.64731 72.000001,45 79.147319,47.35268 81.500009,54.5 83.852689,47.35268 90.999999,45 83.852689,42.64731 81.500009,35.5 z"
         style="fill:#ffffff;fill-opacity:1;fill-rule:evenodd;stroke:none;display:inline"
         inkscape:connector-curvature="0" />
      <path
         inkscape:connector-curvature="0"
         style="fill:#ffffff;fill-opacity:1;fill-rule:evenodd;stroke:none;display:inline"
         d="m 72.09565,65.999997 -2.35269,7.14731 -7.147318,2.35269 7.147318,2.35268 2.35269,7.14732 2.35268,-7.14732 7.14731,-2.35268 -7.14731,-2.35269 -2.35268,-7.14731 z"
         id="path3185" />
      <path
         inkscape:connector-curvature="0"
         style="fill:#ffffff;fill-opacity:1;fill-rule:evenodd;stroke:none;display:inline"
         d="m 182.49999,30.5 2.35269,7.14731 L 192,40 184.85268,42.35268 182.49999,49.5 180.14731,42.35268 173,40 180.14731,37.64731 182.49999,30.5 z"
         id="path3201" />
      <path
         id="path3203"
         d="m 164.43639,53.995517 2.35269,7.14731 7.14731,2.35269 -7.14731,2.35268 -2.35269,7.14732 -2.35268,-7.14732 -7.14731,-2.35268 7.14731,-2.35269 2.35268,-7.14731 z"
         style="fill:#ffffff;fill-opacity:1;fill-rule:evenodd;stroke:none;display:inline"
         inkscape:connector-curvature="0" />
      <path
         inkscape:connector-curvature="0"
         style="fill:#ffffff;fill-opacity:1;fill-rule:evenodd;stroke:none;display:inline"
         d="m 161.44123,69.5 2.35269,7.14731 L 170.94123,79 163.79392,81.35268 161.44123,88.5 159.08855,81.35268 151.94124,79 159.08855,76.64731 161.44123,69.5 z"
         id="path3205" />
      <path
         id="path3207"
         d="m 173.46819,42.247757 2.35269,7.14731 7.14732,2.35269 -7.14732,2.35268 -2.35269,7.14732 -2.35268,-7.14732 -7.14731,-2.35268 7.14731,-2.35269 2.35268,-7.14731 z"
         style="fill:#ffffff;fill-opacity:1;fill-rule:evenodd;stroke:none;display:inline"
         inkscape:connector-curvature="0" />
      <path
         id="path3209"
         d="m 145.09143,26.25 2.35269,7.14731 7.14731,2.35269 -7.14731,2.35268 -2.35269,7.14732 -2.35269,-7.14732 -7.14731,-2.35268 7.14731,-2.35269 2.35269,-7.14731 z"
         style="fill:#ffffff;fill-opacity:1;fill-rule:evenodd;stroke:none;display:inline"
         inkscape:connector-curvature="0" />
      <path
         inkscape:connector-curvature="0"
         style="fill:#ffffff;fill-opacity:1;fill-rule:evenodd;stroke:none;display:inline"
         d="m 160.55035,35.123872 2.35269,7.14731 7.14731,2.35269 -7.14731,2.35268 -2.35269,7.14732 -2.35268,-7.14732 -7.14731,-2.35268 7.14731,-2.35269 2.35268,-7.14731 z"
         id="path3211" />
      <path
         inkscape:connector-curvature="0"
         style="fill:#ffffff;fill-opacity:1;fill-rule:evenodd;stroke:none;display:inline"
         d="m 116.6325,62.5 2.35269,7.14731 L 126.13251,72 118.98519,74.35268 116.6325,81.5 114.27982,74.35268 107.13251,72 114.27982,69.64731 116.6325,62.5 z"
         id="path3213" />
      <path
         id="path3215"
         d="m 116.6325,21 2.35269,7.14731 7.14732,2.35269 -7.14732,2.35268 L 116.6325,40 114.27982,32.85268 107.13251,30.5 114.27982,28.14731 116.6325,21 z"
         style="fill:#ffffff;fill-opacity:1;fill-rule:evenodd;stroke:none;display:inline"
         inkscape:connector-curvature="0" />
      <path
         inkscape:connector-curvature="0"
         style="fill:#ffffff;fill-opacity:1;fill-rule:evenodd;stroke:none;display:inline"
         d="m 129.6325,35.5 2.35269,7.14731 L 139.13251,45 131.98519,47.35268 129.6325,54.5 127.27982,47.35268 120.13251,45 127.27982,42.64731 129.6325,35.5 z"
         id="path3217" />
      <path
         id="path3219"
         d="m 139.03686,65.999997 2.35269,7.14731 7.14732,2.35269 -7.14732,2.35268 -2.35269,7.14732 -2.35268,-7.14732 -7.14731,-2.35268 7.14731,-2.35269 2.35268,-7.14731 z"
         style="fill:#ffffff;fill-opacity:1;fill-rule:evenodd;stroke:none;display:inline"
         inkscape:connector-curvature="0" />
      <path
         id="path3231"
         d="M 105.56626,5 103.21357,12.14731 96.066254,14.5 103.21357,16.85268 105.56626,24 107.91894,16.85268 115.06625,14.5 107.91894,12.14731 105.56626,5 z"
         style="fill:#ffffff;fill-opacity:1;fill-rule:evenodd;stroke:none;display:inline"
         inkscape:connector-curvature="0" />
    </g>
  </g>
  <g
     inkscape:groupmode="layer"
     id="layer1"
     inkscape:label="Cover"
     style="display:inline"
     sodipodi:insensitive="true">
    <path
       d="m 2,2 v 257 c 0,286 298,398 298,398 0,0 298,-112 298,-398 V 2 z"
       id="shine"
       inkscape:connector-curvature="0"
       style="fill:url(#radialGradient3074);stroke:#000000;stroke-width:3" />
  </g>
</svg>
