<?xml version="1.0" encoding="UTF-8"?>
<svg xmlns="http://www.w3.org/2000/svg" xmlns:xlink="http://www.w3.org/1999/xlink" width="600" height="660">
<defs>
  <radialGradient id="rg" gradientUnits="userSpaceOnUse" cx="220" cy="220" r="405">
    <stop style="stop-color:#fff;stop-opacity:.3" offset="0"/>
    <stop style="stop-color:#fff;stop-opacity:.2" offset=".2"/>
    <stop style="stop-color:#666;stop-opacity:.1" offset=".6"/>
    <stop style="stop-color:#000;stop-opacity:.13" offset="1"/>
  </radialGradient>
  <path id="shield" d="m2,2v257c0,286 298,398 298,398c0,0 298-112 298-398V2z"/>
</defs>
<use id="design" xlink:href="#shield" fill="#000"/>
<g style="stroke-miterlimit:40;">
    <g id="red" transform="translate(-50,-30)">
        <path style="fill:#dd0000;stroke:#000000;stroke-width:1;" d="m 146.95,151.64 c 0,0 13.37,-13.58 21.52,-15.04 8.57,-1.46 20.27,4.18 27.58,8.98 8.99,6.06 16.51,22.57 16.51,22.57 -5.02,13.37 -1.88,44.92 -1.05,67.9 2.3,-20.69 -1.46,-41.37 7.73,-62.05 8.57,16.5 16.93,31.75 27.58,68.11 -5.43,10.86 -8.15,27.37 -11.07,43.25 3.97,-12.96 7.52,-26.54 15.46,-34.48 3.55,13.79 6.89,30.51 10.45,60.38 -7.11,5.02 -10.66,14.84 -14,24.87 5.22,-5.85 10.44,-16.51 15.67,-17.76 0.21,10.44 1.88,12.11 -2.72,48.68 -5.01,2.5 -10.24,4.59 -15.46,12.32 5.22,-4.17 10.45,-7.52 15.88,-6.47 0.42,11.91 -1.26,24.65 -4.6,36.56 -6.06,-0.21 -12.12,4.39 -17.97,9.19 5.65,-3.34 11.29,-5.43 17.14,-3.34 -2.3,9.4 -3.35,17.34 -10.45,33.01 -6.06,-2.09 -12.12,2.09 -18.18,5.02 5.85,-1.26 11.49,-3.56 17.34,0 -2.71,10.44 -6.05,20.68 -13.79,31.13 l -19.01,4.8 -11.7,-13.37 c 3.76,-7.31 5.64,-15.46 7.31,-32.18 4.39,0.63 8.78,3.77 12.96,7.53 -3.55,-10.24 -7.31,-10.45 -10.87,-13.79 1.47,-5.44 1.47,-23.4 1.88,-34.48 4.18,2.51 8.15,8.57 12.12,15.26 -1.46,-8.36 -5.85,-14.21 -10.44,-19.64 l -0.42,-30.51 c 5.22,0.63 10.44,6.48 15.67,10.87 -5.64,-8.36 -11.28,-16.93 -16.93,-18.39 l -5.01,-34.06 c 6.27,2.09 12.74,5.02 19.22,8.99 -6.89,-8.78 -14,-11.49 -20.89,-14 l -16.09,-31.13 c 8.78,-3.34 17.55,1.67 26.33,2.72 -9.61,-3.56 -18.81,-10.24 -29.46,-8.15 l -33.22,-40.33 c 14,-1.46 27.99,3.14 41.99,7.73 -15.46,-7.93 -30.71,-13.99 -45.96,-16.92 z"/>
        <path style="fill:#ff1111;" d="m 211.72,249 c -5.22,-22.77 -7.94,-58.71 -3.76,-81.06 l -6.89,-10.03 c 0,0 0.41,8.98 0,13.37 -0.63,4.81 -3.77,14 -3.77,14 0,0 3.35,11.7 3.77,17.76 0.41,8.56 -0.21,22.56 -5.85,29.04 l -6.69,7.94 -1.67,3.55 c 6.48,1.67 11.91,7.94 20.06,14.21 l -26.54,-3.76 -8.77,8.35 4.38,4.18 33.64,5.85 -30.71,-2.09 8.15,10.24 c 7.31,-1.46 24.86,6.27 38.86,16.92 l -31.55,-4.38 3.34,7.1 21.73,5.85 -20.47,-3.97 3.76,8.15 20.26,6.27 -18.38,-3.97 2.09,7.1 c 8.14,1.25 18.17,6.48 27.16,22.56 l -23.19,-10.44 1.25,7.52 16.92,9.19 -16.5,-6.68 1.25,8.15 14.42,9.4 -14.21,-7.11 v 5.23 c 7.31,5.22 14.21,14.2 19.85,27.58 l -18.18,-13.17 v 7.32 l 14,12.74 -13.58,-9.61 v 7.1 l 11.91,11.49 -11.91,-8.77 v 5.85 c 4.8,6.48 9.61,8.36 14.21,29.88 l -17.34,-17.97 v 6.68 l 11.07,12.33 -10.24,-8.57 -0.42,7.32 8.57,8.98 -8.36,-7.1 -0.83,5.64 c 3.76,5.85 7.52,4.39 11.28,19.01 l -13.79,-6.48 -0.84,6.69 7.11,8.36 -7.32,-5.23 -1.67,8.15 4.39,6.27 -5.43,-4.18 -1.88,6.06 7.52,8.15 17.34,-1.05 4.81,-8.98 -9.82,1.04 10.23,-2.5 2.72,-6.06 -10.03,1.25 9.82,-3.13 3.97,-7.52 -15.46,-0.42 c 3.34,-5.85 10.86,-8.98 19.01,-11.49 l 1.67,-7.11 -9.4,2.93 10.45,-6.06 1.67,-6.48 -8.98,1.67 9.61,-3.13 2.09,-7.73 -16.93,3.55 c 3.14,-7.52 11.7,-10.86 19.22,-14.83 l 2.51,-9.82 -14,4.39 13.79,-6.06 1.05,-8.57 -12.54,5.02 12.33,-6.48 1.25,-8.99 -19.43,9.62 c 3.55,-6.06 7.73,-15.67 19.01,-20.06 l 1.47,-12.54 -13.79,6.9 14.2,-9.61 1.05,-11.08 -15.46,10.24 14.62,-13.16 0.63,-12.54 -19.22,22.36 c 2.09,-11.91 6.89,-23.82 16.92,-35.94 l -2.71,-15.88 -15.67,27.58 15.25,-29.67 -1.26,-12.74 -16.71,30.29 15.67,-31.34 -3.34,-18.59 -16.51,36.35 c -1.46,-17.13 3.14,-35.1 10.03,-53.48 l -4.18,-15.88 -13.58,44.08 11.7,-45.34 -6.68,-18.59 -11.5,52.44 9.62,-55.36 -8.36,-21.32 z"/>
        <path style="fill:#aa0000;" d="m 188.95,528.34 c 0,0 4.8,-0.83 9.61,-6.27 3.34,-3.76 6.89,-11.7 8.77,-15.04 11.08,-21.73 19.22,-43.46 25.08,-65.19 7.93,-31.13 10.86,-61.84 8.77,-91.3 -2.09,-27.99 -8.57,-55.16 -19.01,-80.44 -9.82,-23.4 -23.19,-45.54 -39.7,-65.6 l -6.48,9.19 c -0.41,-2.92 30.72,39.28 41.58,72.08 7.52,22.57 12.95,45.34 14.84,69.16 1.46,19.22 -0.42,41.79 -3.77,60.8 -4.17,23.4 -12.53,52.02 -22.14,73.75 -4.39,10.24 -13.79,25.91 -13.79,25.91 z"/>
        <path style="fill:#dd0000;stroke:#000000;stroke-width:1;" d="m 112.9,249.42 c 0,0 1.46,4.18 4.59,7.52 1.67,1.88 5.02,3.55 6.48,4.18 5.22,2.72 16.71,2.51 19.22,8.15 l 3.76,8.77 c 14.84,-7.94 29.25,-21.73 35.1,-41.16 15.46,-9.82 19.02,-35.93 8.78,-48.47 2.09,-6.89 3.76,-10.24 4.39,-15.67 1.46,-12.95 -1.68,-25.28 -7.53,-31.13 -4.59,-4.59 -13.99,-6.68 -22.14,-6.89 -10.24,-0.21 -19.85,2.71 -29.88,9.19 -7.73,5.01 -14.62,12.12 -18.8,20.68 -12.96,-2.09 -23.403,0.42 -30.716,5.23 -9.193,6.27 -13.371,16.29 -11.491,26.11 1.045,5.02 2.298,10.03 6.686,14.21 -3.343,9.4 -0.209,19.22 4.387,26.12 5.641,8.98 15.044,14 27.164,13.16 z"/>
        <path style="fill:#ff1111;" d="m 115.61,166.68 c 0,0 15.46,-13.37 24.45,-19.01 4.8,-3.13 10.03,-6.27 15.67,-7.52 5.22,-1.05 10.65,-1.25 15.88,0 5.22,1.25 9.61,2.72 12.74,7.1 3.34,4.18 3.14,8.57 3.14,14 0,5.02 -0.21,12.54 -1.89,17.34 -1.67,5.02 -3.76,7.32 -6.89,11.28 -2.93,3.56 -6.27,6.48 -10.24,8.57 -3.34,2.09 -10.86,3.97 -10.86,3.97 0,0 10.44,2.72 15.67,1.67 5.43,-1.25 14.62,-8.56 14.62,-8.56 0,0 2.3,5.22 2.3,8.77 0,3.76 -0.63,9.19 -2.3,12.54 -6.89,13.16 -14.41,13.58 -26.74,12.53 -2.51,-0.42 -15.25,-4.8 -15.25,-4.8 0,0 10.86,8.15 13.16,9.4 5.22,2.3 14.42,1.46 14.42,1.46 0,0 -0.84,9.61 -3.14,13.79 -3.97,7.1 -19.43,19.43 -19.43,19.43 0,0 -4.18,-6.89 -6.47,-8.15 -5.85,-3.34 -11.29,-1.88 -16.72,-5.64 -3.13,-1.88 -6.68,-8.36 -6.68,-8.36 0,0 4.38,-7.1 5.43,-10.65 1.25,-3.76 0.83,-10.45 0.83,-10.45 0,0 -2.92,7.94 -5.43,10.87 -2.51,2.92 -5.64,5.64 -9.4,6.27 -5.22,0.83 -11.07,-1.05 -15.671,-3.97 -3.342,-2.09 -5.432,-4.18 -7.312,-7.73 -1.463,-2.72 -2.716,-7.53 -2.716,-10.45 0,-2.72 0.836,-7.52 0.836,-7.52 0,0 10.237,0 14.413,-1.47 3.97,-1.46 9.61,-6.26 9.61,-6.26 -22.561,5.22 -33.007,-3.76 -32.59,-13.58 0.209,-6.27 3.343,-12.33 9.193,-17.14 6.059,-4.8 15.257,-6.68 27.367,-7.73 z"/>
        <path style="fill:#aa0000;" d="m 143.61,244.61 c 1.25,3.14 2.3,-8.56 -1.46,-18.8 -4.39,-11.28 -16.09,-20.27 -20.06,-31.55 -3.34,-9.61 -3.76,-17.34 -2.09,-27.37 1.05,-5.43 7.73,-16.29 7.73,-16.29 -8.77,1.25 -13.79,7.31 -16.09,13.79 -4.38,12.11 -2.29,22.77 2.51,32.59 5.64,11.28 15.04,21.1 22.36,31.76 3.76,5.85 7.1,15.87 7.1,15.87 z"/>
    </g>
    <g id="white">
        <path style="fill:#dddddd;stroke:#000000;stroke-width:1;" d="m 231.78,101.52 c 7.1,27.28 15.25,52.34 20.89,82.25 16.92,7.5 28.21,17.39 34.89,29.3 -11.49,-9.07 -22.98,-19.66 -34.47,-22.36 4.18,20.33 8.57,41.29 8.36,52.92 9.82,4.1 19.64,15.59 29.46,28.56 l -28.63,-19.32 c 2.93,18.42 6.9,40.2 5.85,47.05 6.48,1.54 12.96,7.71 19.43,15.94 -7.94,-5.64 -13.58,-8.48 -19.43,-9.74 1.46,7.19 4.18,27.58 3.55,42.5 6.06,0.67 10.87,3.86 16.72,13.45 -5.85,-5.53 -10.66,-6.37 -16.72,-7.56 1.47,14 4.39,31.22 3.35,40.33 5.01,2.69 10.03,8.27 15.04,17.63 -5.22,-3.89 -10.66,-9.61 -15.88,-11.51 0.21,12.72 1.67,25.44 0.84,38.17 4.8,3.63 9.61,10.55 14.41,17.42 -4.8,-3.99 -9.61,-9.44 -14.41,-10.38 0.41,12.18 4.18,24.34 1.67,36.52 6.48,3.36 13.16,12.03 23.19,21.98 10.03,-9.95 16.71,-18.62 23.4,-21.98 -2.51,-12.18 1.04,-24.34 1.67,-36.52 -4.8,0.94 -9.82,6.39 -14.62,10.38 4.8,-6.87 9.82,-13.79 14.62,-17.42 -0.83,-12.73 0.42,-25.45 0.84,-38.17 -5.44,1.9 -10.66,7.62 -16.09,11.51 5.22,-9.36 10.24,-14.94 15.25,-17.63 -1.25,-9.11 1.88,-26.33 3.13,-40.33 -5.85,1.19 -10.65,2.03 -16.71,7.56 6.06,-9.59 10.86,-12.78 16.71,-13.45 -1.04,-14.81 1.47,-37.36 3.56,-42.5 -5.64,1.26 -11.49,4.1 -19.43,9.74 6.47,-8.23 12.95,-14.4 19.43,-15.94 -1.05,-6.85 2.92,-28.63 5.85,-47.05 l -28.63,19.32 c 9.82,-12.97 19.64,-24.46 29.46,-28.56 -0.21,-11.63 4.18,-32.59 8.36,-52.92 -11.49,2.7 -22.98,13.29 -34.47,22.36 6.68,-11.91 17.96,-21.8 34.89,-29.3 5.64,-29.91 14,-54.97 20.89,-82.25 h -124.31 z"/>
        <path style="fill:#ffffff;" d="m 299.89,176.96 c 0,0 -9.82,-10.15 -16.3,-14.16 -7.31,-4.43 -16.71,-4.31 -23.82,-8.86 -4.38,-2.91 -11.7,-12.77 -11.7,-12.77 l 5.02,19.14 38.65,30.84 -38.65,-25.53 2.09,13.47 c 13.16,12.1 18.18,2.05 42.83,44.3 l -37.82,-25.87 1.67,11.35 30.3,27.64 -30.3,-24.8 2.51,13.83 28.83,26.22 -28.83,-23.4 2.93,14.19 c 7.52,7.73 22.56,14.68 31.96,37.92 l -33.43,-20.56 3.14,10.99 22.77,16.29 -21.94,-13.45 1.47,10.63 21.93,17.01 -22.35,-15.23 0.62,10.97 c 7.53,6.39 18.39,8.56 24.45,27.28 l -23.4,-13.1 1.46,10.64 19.22,13.12 -18.8,-10.99 v 10.64 l 18.8,13.09 -18.38,-10.96 0.62,9.21 c 6.27,3.41 7.32,1.19 21.32,21.96 l -20.69,-8.86 1.88,7.81 14.84,11.33 -14.84,-8.15 1.46,8.86 12.96,11.34 -13.37,-7.43 0.62,10.63 c 5.85,6.06 11.7,12.16 17.34,26.22 l -19.01,-10.99 0.63,6.75 14.83,12.41 -14,-9.92 v 7.08 l 14.42,14.16 -14.42,-11.32 v 9.21 c 5.23,7.73 10.87,12.71 16.3,25.51 l -16.09,-8.14 1.88,7.08 11.7,9.57 -12.53,-6.38 0.42,5.31 12.74,9.59 -12.74,-5.68 0.83,4.76 17.97,16.84 17.97,-16.84 0.83,-4.76 -12.74,5.68 12.74,-9.59 0.42,-5.31 -12.33,6.38 11.7,-9.57 1.68,-7.08 -15.88,8.14 c 5.22,-12.8 10.86,-17.78 16.29,-25.51 v -9.21 l -14.62,11.32 14.62,-14.16 v -7.08 l -14.2,9.92 14.83,-12.41 0.84,-6.75 -19.23,10.99 c 5.85,-14.06 11.5,-20.16 17.35,-26.22 l 0.62,-10.63 -13.37,7.43 13.16,-11.34 1.47,-8.86 -15.05,8.15 15.05,-11.33 1.67,-7.81 -20.48,8.86 c 13.79,-20.77 15.05,-18.55 21.1,-21.96 l 0.84,-9.21 -18.39,10.96 18.81,-13.09 v -10.64 l -18.81,10.99 19.02,-13.12 1.46,-10.64 -23.4,13.1 c 6.27,-18.72 16.92,-20.89 24.44,-27.28 l 0.84,-10.97 -22.36,15.23 21.94,-17.01 1.46,-10.63 -22.14,13.45 22.77,-16.29 3.14,-10.99 -33.22,20.56 c 9.4,-23.24 24.23,-30.19 31.75,-37.92 l 2.93,-14.19 -28.63,23.4 28.63,-26.22 2.5,-13.83 -30.08,24.8 30.08,-27.64 1.68,-11.35 -37.82,25.87 c 24.86,-42.25 29.88,-32.2 42.83,-44.3 l 2.09,-13.47 -38.65,25.53 38.65,-30.84 5.01,-19.14 c 0,0 -7.1,9.86 -11.7,12.77 -7.1,4.55 -16.5,4.43 -23.81,8.86 -6.48,4.01 -16.3,14.16 -16.3,14.16 z"/>
        <path style="fill:#999999;" d="m 295.5,129.14 h 8.78 v 377.79 c -1.47,15.25 1.67,37.46 -4.6,48.93 -5.01,-9.13 -3.13,-31.82 -4.18,-48.93 z"/>
        <path style="fill:#dddddd;stroke:#000000;stroke-width:1;" d="m 299.89,170.24 c 0,0 -4.81,-7.25 -14.83,-12.42 -4.6,-2.29 -10.24,-3.36 -16.09,-5.68 -4.6,-1.88 -9.4,-4.95 -11.49,-7.19 -2.51,-2.65 -5.02,-8.69 -5.02,-8.69 -9.19,-0.27 -18.38,-3.26 -24.86,-9.27 -6.27,-6.02 -10.24,-14.73 -10.03,-25.72 0.21,-5.748 3.13,-12.392 6.9,-19.203 -3.56,-10.217 1.04,-18.804 6.05,-24.821 6.06,-7.104 14.21,-11.533 25.49,-12.285 11.7,-0.773 20.27,2.298 29.88,8.817 4.18,2.967 11.91,7.082 14,11.679 2.09,-4.597 9.82,-8.712 14.21,-11.679 9.4,-6.519 17.96,-9.59 29.66,-8.817 11.5,0.752 19.44,5.181 25.49,12.285 5.23,6.017 9.61,14.604 6.06,24.821 3.76,6.811 6.9,13.455 6.9,19.203 0.21,10.99 -3.76,19.7 -10.03,25.72 -6.27,6.01 -15.67,9 -24.65,9.27 0,0 -2.51,6.04 -5.02,8.69 -2.3,2.24 -7.1,5.31 -11.7,7.19 -5.64,2.32 -11.49,3.39 -15.88,5.68 -10.24,5.17 -15.04,12.42 -15.04,12.42 z"/>
        <path style="fill:#ffffff;" d="m 299.89,156.76 c 0,0 -7.31,-5.1 -11.91,-7.36 -4.18,-2.11 -9.82,-3.61 -14.21,-5.51 -4.18,-1.86 -8.77,-3.97 -11.49,-7.81 -2.3,-3.51 -2.92,-8.17 -2.71,-12.42 0.2,-4.8 1.46,-7.83 4.59,-11.49 3.76,-4.55 15.67,-10.13 15.67,-10.13 0,0 -11.07,1 -17.13,4.14 -3.13,1.69 -6.89,6.52 -8.78,9.67 -2.08,3.87 -2.71,11.49 -2.71,11.49 l -7.31,-1.38 c -5.44,-1.02 -10.87,-3.78 -14.63,-7.81 -2.92,-2.95 -4.6,-7.02 -5.22,-11.05 -0.63,-5.77 1.04,-11.871 3.76,-17.01 2.92,-5.579 7.52,-10.447 12.95,-13.79 5.64,-3.593 12.54,-4.868 19.22,-5.975 4.81,-0.815 14.84,-0.46 14.84,-0.46 0,0 -10.03,-3.677 -15.25,-3.677 -7.73,0 -15.67,2.006 -22.57,5.516 -3.34,1.713 -8.77,7.354 -8.77,7.354 v -9.193 c 0,-4.91 5.43,-11.261 9.19,-14.27 4.18,-3.196 9.19,-5.39 14.21,-6.435 6.06,-1.17 12.32,-1.128 17.96,0.46 11.29,3.071 30.51,17.028 30.3,17.028 0,0 19.22,-13.957 30.29,-17.028 5.85,-1.588 12.12,-1.63 17.97,-0.46 5.02,1.045 10.03,3.239 14.21,6.435 3.97,3.009 9.19,9.36 9.19,14.27 v 9.193 c 0,0 -5.22,-5.641 -8.77,-7.354 -6.9,-3.51 -14.63,-5.516 -22.57,-5.516 -5.01,0 -15.04,3.677 -15.04,3.677 0,0 9.82,-0.355 14.63,0.46 6.68,1.107 13.58,2.382 19.43,5.975 5.22,3.343 9.82,8.211 12.74,13.79 2.72,5.139 4.39,11.24 3.76,17.01 -0.42,4.03 -2.3,8.1 -5.01,11.05 -3.76,4.03 -9.41,6.79 -14.84,7.81 l -7.31,1.38 c 0,0 -0.63,-7.62 -2.72,-11.49 -1.67,-3.15 -5.64,-7.98 -8.77,-9.67 -5.85,-3.14 -16.92,-4.14 -16.92,-4.14 0,0 11.7,5.58 15.46,10.13 3.13,3.66 4.59,6.69 4.59,11.49 0.21,4.25 -0.21,8.91 -2.71,12.42 -2.51,3.84 -7.11,5.95 -11.49,7.81 -4.18,1.9 -10.03,3.4 -14.21,5.51 -4.39,2.26 -11.91,7.36 -11.91,7.36 z"/>
        <path style="fill:#999999;" d="m 295.5,59.419 c 4.81,-8.378 6.48,-4.074 8.78,0 -1.47,37.837 1.46,59.961 -4.18,86.621 -6.9,-38.15 -2.93,-48.909 -4.6,-86.621 z"/>
    </g>
    <g id="gold" transform="translate(50,-30)">
        <path style="fill:#ffcc00;stroke:#000000;stroke-width:1;" d="m 453.04,151.64 c 0,0 -13.38,-13.58 -21.52,-15.04 -8.57,-1.46 -20.27,4.18 -27.58,8.98 -8.99,6.06 -16.51,22.57 -16.51,22.57 5.02,13.37 1.88,44.92 1.05,67.9 -2.3,-20.69 1.46,-41.37 -7.73,-62.05 -8.57,16.5 -16.93,31.75 -27.58,68.11 5.43,10.86 8.14,27.37 11.07,43.25 -3.97,-12.96 -7.52,-26.54 -15.46,-34.48 -3.55,13.79 -6.9,30.51 -10.24,60.38 6.9,5.02 10.45,14.84 13.79,24.87 -5.22,-5.85 -10.45,-16.51 -15.67,-17.76 -0.21,10.44 -1.88,12.11 2.72,48.68 5.01,2.5 10.23,4.59 15.46,12.32 -5.23,-4.17 -10.45,-7.52 -15.67,-6.47 -0.63,11.91 1.04,24.65 4.39,36.56 6.05,-0.21 12.11,4.39 17.96,9.19 -5.64,-3.34 -11.28,-5.43 -17.13,-3.34 2.3,9.4 3.34,17.34 10.45,33.01 6.06,-2.09 12.12,2.09 18.17,5.02 -5.85,-1.26 -11.49,-3.56 -17.34,0 2.72,10.44 6.06,20.68 13.79,31.13 l 19.02,4.8 11.7,-13.37 c -3.76,-7.31 -5.65,-15.46 -7.32,-32.18 -4.38,0.63 -8.77,3.77 -12.95,7.53 3.55,-10.24 7.31,-10.45 10.86,-13.79 -1.46,-5.44 -1.46,-23.4 -1.88,-34.48 -4.18,2.51 -8.14,8.57 -12.11,15.26 1.46,-8.36 5.85,-14.21 10.44,-19.64 l 0.42,-30.51 c -5.22,0.63 -10.45,6.48 -15.67,10.87 5.64,-8.36 11.28,-16.93 16.92,-18.39 l 5.02,-34.06 c -6.27,2.09 -12.75,5.02 -19.22,8.99 6.89,-8.78 13.99,-11.49 20.89,-14 l 16.09,-31.13 c -8.78,-3.34 -17.55,1.67 -26.33,2.72 9.61,-3.56 18.81,-10.24 29.46,-8.15 l 33.22,-40.33 c -14,-1.46 -28,3.14 -41.99,7.73 15.46,-7.93 30.71,-13.99 45.96,-16.92 z"/>
        <path style="fill:#ffee00;" d="m 388.27,249 c 5.22,-22.77 7.94,-58.71 3.76,-81.06 l 6.89,-10.03 c 0,0 -0.42,8.98 0,13.37 0.63,4.81 3.76,14 3.76,14 0,0 -3.34,11.7 -3.76,17.76 -0.42,8.56 0.21,22.56 5.85,29.04 l 6.9,7.94 1.46,3.55 c -6.48,1.67 -11.91,7.94 -20.06,14.21 l 26.54,-3.76 8.77,8.35 -4.39,4.18 -33.63,5.85 30.71,-2.09 -8.15,10.24 c -7.31,-1.46 -24.86,6.27 -38.86,16.92 l 31.55,-4.38 -3.34,7.1 -21.73,5.85 20.47,-3.97 -3.76,8.15 -20.27,6.27 18.39,-3.97 -2.09,7.1 c -8.15,1.25 -18.18,6.48 -27.16,22.56 l 23.19,-10.44 -1.25,7.52 -16.93,9.19 16.51,-6.68 -1.25,8.15 -14.42,9.4 14.21,-7.11 v 5.23 c -7.32,5.22 -14.21,14.2 -19.85,27.58 l 18.18,-13.17 v 7.32 l -14,12.74 13.58,-9.61 v 7.1 l -11.91,11.49 11.91,-8.77 v 5.85 c -4.81,6.48 -9.61,8.36 -14.21,29.88 l 17.34,-17.97 v 6.68 l -11.07,12.33 10.24,-8.57 0.41,7.32 -8.56,8.98 8.36,-7.1 0.83,5.64 c -3.76,5.85 -7.52,4.39 -11.28,19.01 l 13.79,-6.48 0.83,6.69 -7.1,8.36 7.31,-5.23 1.67,8.15 -4.38,6.27 5.43,-4.18 1.88,6.06 -7.52,8.15 -17.34,-1.05 -4.81,-8.98 10.03,1.04 -10.45,-2.5 -2.71,-6.06 10.03,1.25 -9.82,-3.13 -3.76,-7.52 15.25,-0.42 c -3.35,-5.85 -10.87,-8.98 -19.02,-11.49 l -1.67,-7.11 9.41,2.93 -10.45,-6.06 -1.67,-6.48 8.98,1.67 -9.61,-3.13 -2.09,-7.73 16.92,3.55 c -3.13,-7.52 -11.7,-10.86 -19.22,-14.83 l -2.5,-9.82 13.99,4.39 -13.79,-6.06 -1.04,-8.57 12.54,5.02 -12.33,-6.48 -1.25,-8.99 19.43,9.62 c -3.56,-6.06 -7.73,-15.67 -19.02,-20.06 l -1.46,-12.54 13.79,6.9 -14.21,-9.61 -1.04,-11.08 15.46,10.24 -14.63,-13.16 -0.41,-12.54 19.01,22.36 c -2.09,-11.91 -6.9,-23.82 -16.92,-35.94 l 2.71,-15.88 15.67,27.58 -15.25,-29.67 1.25,-12.74 16.72,30.29 -15.67,-31.34 3.34,-18.59 16.51,36.35 c 1.46,-17.13 -2.93,-35.1 -10.03,-53.48 l 4.18,-15.88 13.58,44.08 -11.7,-45.34 6.68,-18.59 11.49,52.44 -9.61,-55.36 8.36,-21.32 z"/>
        <path style="fill:#cccc00;" d="m 411.04,528.34 c 0,0 -4.81,-0.83 -9.61,-6.27 -3.34,-3.76 -6.9,-11.7 -8.78,-15.04 -11.07,-21.73 -19.22,-43.46 -25.07,-65.19 -7.94,-31.13 -10.86,-61.84 -8.77,-91.3 2.09,-27.99 8.56,-55.16 19.01,-80.44 9.82,-23.4 23.19,-45.54 39.7,-65.6 l 6.47,9.19 c 0.42,-2.92 -30.71,39.28 -41.57,72.08 -7.52,22.57 -12.96,45.34 -14.84,69.16 -1.46,19.22 0.42,41.79 3.76,60.8 4.18,23.4 12.54,52.02 22.15,73.75 4.39,10.24 13.79,25.91 13.79,25.91 z"/>
        <path style="fill:#ffcc00;stroke:#000000;stroke-width:1;" d="m 487.09,249.42 c 0,0 -1.46,4.18 -4.6,7.52 -1.67,1.88 -5.01,3.55 -6.47,4.18 -5.23,2.72 -16.72,2.51 -19.22,8.15 l -3.76,8.77 c -14.84,-7.94 -29.26,-21.73 -35.11,-41.16 -15.46,-9.82 -19.01,-35.93 -8.77,-48.47 -2.09,-6.89 -3.76,-10.24 -4.39,-15.67 -1.46,-12.95 1.67,-25.28 7.52,-31.13 4.6,-4.59 14,-6.68 22.15,-6.89 10.24,-0.21 19.85,2.71 29.88,9.19 7.94,5.01 14.62,12.12 18.8,20.68 12.95,-2.09 23.4,0.42 30.71,5.23 9.2,6.27 13.38,16.29 11.49,26.11 -1.04,5.02 -2.29,10.03 -6.68,14.21 3.34,9.4 0.21,19.22 -4.39,26.12 -5.64,8.98 -15.04,14 -27.16,13.16 z"/>
        <path style="fill:#ffee00;" d="m 484.37,166.68 c 0,0 -15.46,-13.37 -24.44,-19.01 -4.81,-3.13 -10.03,-6.27 -15.67,-7.52 -5.01,-1.05 -10.66,-1.25 -15.88,0 -5.22,1.25 -9.61,2.72 -12.74,7.1 -3.35,4.18 -3.14,8.57 -3.14,14 0,5.02 0.21,12.54 1.88,17.34 1.67,5.02 3.76,7.32 6.9,11.28 2.92,3.56 6.47,6.48 10.24,8.57 3.34,2.09 10.86,3.97 10.86,3.97 0,0 -10.45,2.72 -15.46,1.67 -5.64,-1.25 -14.84,-8.56 -14.84,-8.56 0,0 -2.29,5.22 -2.29,8.77 0,3.76 0.62,9.19 2.29,12.54 6.9,13.16 14.63,13.58 26.75,12.53 2.51,-0.42 15.25,-4.8 15.25,-4.8 0,0 -10.66,8.15 -13.16,9.4 -5.23,2.3 -14.42,1.46 -14.42,1.46 0,0 0.84,9.61 3.13,13.79 3.97,7.1 19.44,19.43 19.44,19.43 0,0 4.17,-6.89 6.47,-8.15 5.85,-3.34 11.28,-1.88 16.72,-5.64 3.13,-1.88 6.68,-8.36 6.68,-8.36 0,0 -4.39,-7.1 -5.43,-10.65 -1.25,-3.76 -0.84,-10.45 -0.84,-10.45 0,0 2.93,7.94 5.44,10.87 2.5,2.92 5.64,5.64 9.4,6.27 5.22,0.83 11.07,-1.05 15.67,-3.97 3.34,-2.09 5.43,-4.18 7.31,-7.73 1.46,-2.72 2.72,-7.53 2.72,-10.45 0,-2.72 -0.84,-7.52 -0.84,-7.52 0,0 -10.24,0 -14.41,-1.47 -3.97,-1.46 -9.62,-6.26 -9.62,-6.26 22.57,5.22 33.02,-3.76 32.6,-13.58 -0.21,-6.27 -3.35,-12.33 -9.2,-17.14 -6.05,-4.8 -15.25,-6.68 -27.37,-7.73 z"/>
        <path style="fill:#cccc00;" d="m 456.38,244.61 c -1.05,3.14 -2.3,-8.56 1.46,-18.8 4.39,-11.28 16.09,-20.27 20.06,-31.55 3.34,-9.61 3.76,-17.34 2.09,-27.37 -1.05,-5.43 -7.73,-16.29 -7.73,-16.29 8.77,1.25 13.79,7.31 16.08,13.79 4.39,12.11 2.3,22.77 -2.5,32.59 -5.64,11.28 -15.05,21.1 -22.36,31.76 -3.76,5.85 -7.1,15.87 -7.1,15.87 z"/>
    </g>
</g>
<use id="shine" xlink:href="#shield" fill="url(#rg)" stroke="#000" stroke-width="3"/>
</svg>
