<?xml version="1.0" encoding="UTF-8" standalone="no"?>
<svg
   xmlns:dc="http://purl.org/dc/elements/1.1/"
   xmlns:cc="http://creativecommons.org/ns#"
   xmlns:rdf="http://www.w3.org/1999/02/22-rdf-syntax-ns#"
   xmlns:svg="http://www.w3.org/2000/svg"
   xmlns="http://www.w3.org/2000/svg"
   xmlns:xlink="http://www.w3.org/1999/xlink"
   xmlns:sodipodi="http://sodipodi.sourceforge.net/DTD/sodipodi-0.dtd"
   xmlns:inkscape="http://www.inkscape.org/namespaces/inkscape"
   width="600"
   height="660"
   id="svg2"
   version="1.1"
   inkscape:version="0.48.2 r9819"
   sodipodi:docname="House_Sarsfield.svg">
  <metadata
     id="metadata26">
    <rdf:RDF>
      <cc:Work
         rdf:about="">
        <dc:format>image/svg+xml</dc:format>
        <dc:type
           rdf:resource="http://purl.org/dc/dcmitype/StillImage" />
        <dc:title />
      </cc:Work>
    </rdf:RDF>
  </metadata>
  <sodipodi:namedview
     pagecolor="#ffffff"
     bordercolor="#666666"
     borderopacity="1"
     objecttolerance="10"
     gridtolerance="10"
     guidetolerance="10"
     inkscape:pageopacity="0"
     inkscape:pageshadow="2"
     inkscape:window-width="1366"
     inkscape:window-height="715"
     id="namedview24"
     showgrid="false"
     inkscape:zoom="0.35757576"
     inkscape:cx="-332.00677"
     inkscape:cy="281.81738"
     inkscape:window-x="-8"
     inkscape:window-y="-8"
     inkscape:window-maximized="1"
     inkscape:current-layer="svg2" />
  <defs
     id="defs4">
    <radialGradient
       id="rg"
       gradientUnits="userSpaceOnUse"
       cx="220"
       cy="220"
       r="405">
      <stop
         style="stop-color:#fff;stop-opacity:.3"
         offset="0"
         id="stop7" />
      <stop
         style="stop-color:#fff;stop-opacity:.2"
         offset=".2"
         id="stop9" />
      <stop
         style="stop-color:#666;stop-opacity:.1"
         offset=".6"
         id="stop11" />
      <stop
         style="stop-color:#000;stop-opacity:.13"
         offset="1"
         id="stop13" />
    </radialGradient>
    <clipPath
       id="clip-shield">
      <path
         id="shield"
         d="m2,2v257c0,286 298,398 298,398c0,0 298-112 298-398V2z" />
    </clipPath>
    <radialGradient
       id="rg-1"
       gradientUnits="userSpaceOnUse"
       cx="220"
       cy="220"
       r="405">
      <stop
         style="stop-color:#fff;stop-opacity:.3"
         offset="0"
         id="stop7-7" />
      <stop
         style="stop-color:#fff;stop-opacity:.2"
         offset=".2"
         id="stop9-4" />
      <stop
         style="stop-color:#666;stop-opacity:.1"
         offset=".6"
         id="stop11-0" />
      <stop
         style="stop-color:#000;stop-opacity:.13"
         offset="1"
         id="stop13-9" />
    </radialGradient>
    <radialGradient
       id="radialGradient3009"
       gradientUnits="userSpaceOnUse"
       cx="220"
       cy="220"
       r="405">
      <stop
         style="stop-color:#fff;stop-opacity:.3"
         offset="0"
         id="stop3011" />
      <stop
         style="stop-color:#fff;stop-opacity:.2"
         offset=".2"
         id="stop3013" />
      <stop
         style="stop-color:#666;stop-opacity:.1"
         offset=".6"
         id="stop3015" />
      <stop
         style="stop-color:#000;stop-opacity:.13"
         offset="1"
         id="stop3017" />
    </radialGradient>
    <radialGradient
       id="rg-1-1"
       gradientUnits="userSpaceOnUse"
       cx="220"
       cy="220"
       r="405">
      <stop
         style="stop-color:#fff;stop-opacity:.3"
         offset="0"
         id="stop7-7-7" />
      <stop
         style="stop-color:#fff;stop-opacity:.2"
         offset=".2"
         id="stop9-4-4" />
      <stop
         style="stop-color:#666;stop-opacity:.1"
         offset=".6"
         id="stop11-0-0" />
      <stop
         style="stop-color:#000;stop-opacity:.13"
         offset="1"
         id="stop13-9-9" />
    </radialGradient>
    <radialGradient
       id="radialGradient3084"
       gradientUnits="userSpaceOnUse"
       cx="220"
       cy="220"
       r="405">
      <stop
         style="stop-color:#fff;stop-opacity:.3"
         offset="0"
         id="stop3086" />
      <stop
         style="stop-color:#fff;stop-opacity:.2"
         offset=".2"
         id="stop3088" />
      <stop
         style="stop-color:#666;stop-opacity:.1"
         offset=".6"
         id="stop3090" />
      <stop
         style="stop-color:#000;stop-opacity:.13"
         offset="1"
         id="stop3092" />
    </radialGradient>
  </defs>
  <use
     id="background"
     xlink:href="#shield"
     transform="matrix(-1,0,0,1,600,0)"
     style="fill:#008800"
     x="0"
     y="0"
     width="600"
     height="660" />
  <path
     id="bend"
     d="m 108.06641,2 442.10546,442.10547 c -26.41751,47.21233 -60.87091,85.74122 -95.72851,116.4043 L 2,108.06641 2,2 108.06641,2 z"
     inkscape:connector-curvature="0"
     style="fill:#ffffff" />
  <g
     transform="matrix(0.77569218,-0.77569218,0.77569218,0.77569218,-189.07381,244.0952)"
     id="g82">
    <path
       stroke-miterlimit="10"
       d="M 284.554,514.06 V 125.393 l 28,27.333 -33.335,-94.666 h -0.011 l -33.333,94.667 28,-27.333 V 514.06 c 0,0 1.042,1 5.339,1 4.036,0 5.34,-1 5.34,-1 z"
       id="path84"
       inkscape:connector-curvature="0"
       style="fill:#008800;stroke:#1d1d1b;stroke-width:2.73474503;stroke-miterlimit:10" />
    <polygon
       stroke-miterlimit="10"
       points="273.875,373.06 273.875,514.06 248.958,544.06 248.958,403.31 "
       id="polygon86"
       style="fill:#008800;stroke:#1d1d1b;stroke-width:2.73474503;stroke-miterlimit:10" />
    <g
       id="g88">
      <path
         d="m 272.377,125.323 c 0.231,-2.024 0.519,-3.997 0.855,-5.981 0.337,-1.979 0.729,-3.957 1.211,-5.905 l 2.953,-11.564 -1.476,11.829 c -0.229,1.956 -0.365,3.913 -0.45,5.88 -0.083,1.96 -0.12,3.944 -0.096,5.883 l -2.997,-0.142 z"
         id="path90"
         inkscape:connector-curvature="0"
         style="fill:#1d1d1b" />
    </g>
    <g
       id="g92">
      <path
         d="m 283.056,125.463 c 0.023,-1.938 -0.013,-3.922 -0.096,-5.883 -0.085,-1.966 -0.221,-3.924 -0.45,-5.879 l -1.477,-11.829 2.953,11.563 c 0.482,1.949 0.874,3.927 1.211,5.906 0.336,1.985 0.624,3.958 0.854,5.982 l -2.995,0.14 z"
         id="path94"
         inkscape:connector-curvature="0"
         style="fill:#1d1d1b" />
    </g>
    <g
       id="g96">
      <polygon
         points="275.007,389.295 256.458,408.31 272.744,387.324 "
         id="polygon98"
         style="fill:#1d1d1b" />
    </g>
    <g
       id="g100">
      <polygon
         points="275.007,399.295 256.458,418.31 272.744,397.324 "
         id="polygon102"
         style="fill:#1d1d1b" />
    </g>
    <g
       id="g104">
      <polygon
         points="275.007,409.295 256.458,428.31 272.744,407.324 "
         id="polygon106"
         style="fill:#1d1d1b" />
    </g>
    <g
       id="g108">
      <polygon
         points="275.007,419.295 256.458,438.31 272.744,417.324 "
         id="polygon110"
         style="fill:#1d1d1b" />
    </g>
    <g
       id="g112">
      <polygon
         points="275.007,429.295 256.458,448.31 272.744,427.324 "
         id="polygon114"
         style="fill:#1d1d1b" />
    </g>
    <g
       id="g116">
      <polygon
         points="275.007,439.295 256.458,458.31 272.744,437.324 "
         id="polygon118"
         style="fill:#1d1d1b" />
    </g>
    <g
       id="g120">
      <polygon
         points="275.007,449.295 256.458,468.31 272.744,447.324 "
         id="polygon122"
         style="fill:#1d1d1b" />
    </g>
    <g
       id="g124">
      <polygon
         points="275.007,459.295 256.458,478.31 272.744,457.324 "
         id="polygon126"
         style="fill:#1d1d1b" />
    </g>
    <g
       id="g128">
      <polygon
         points="275.007,469.295 256.458,488.31 272.744,467.324 "
         id="polygon130"
         style="fill:#1d1d1b" />
    </g>
    <g
       id="g132">
      <polygon
         points="275.007,479.295 256.458,498.31 272.744,477.324 "
         id="polygon134"
         style="fill:#1d1d1b" />
    </g>
    <g
       id="g136">
      <polygon
         points="275.007,489.295 256.458,508.31 272.744,487.324 "
         id="polygon138"
         style="fill:#1d1d1b" />
    </g>
    <g
       id="g140">
      <polygon
         points="275.007,499.295 256.458,518.31 272.744,497.324 "
         id="polygon142"
         style="fill:#1d1d1b" />
    </g>
    <polygon
       stroke-miterlimit="10"
       points="285.342,372.81 285.342,513.81 310.259,543.81 310.259,403.06 "
       id="polygon144"
       style="fill:#008800;stroke:#1d1d1b;stroke-width:2.73474503;stroke-miterlimit:10" />
    <g
       id="g146">
      <line
         x1="285.34201"
         y1="388.06"
         x2="302.759"
         y2="408.06"
         id="line148"
         style="fill:#008800" />
      <polygon
         points="286.473,387.074 302.759,408.06 284.211,389.045 "
         id="polygon150"
         style="fill:#1d1d1b" />
    </g>
    <g
       id="g152">
      <line
         x1="285.34201"
         y1="398.06"
         x2="302.759"
         y2="418.06"
         id="line154"
         style="fill:#008800" />
      <polygon
         points="286.473,397.074 302.759,418.06 284.211,399.045 "
         id="polygon156"
         style="fill:#1d1d1b" />
    </g>
    <g
       id="g158">
      <line
         x1="285.34201"
         y1="408.06"
         x2="302.759"
         y2="428.06"
         id="line160"
         style="fill:#008800" />
      <polygon
         points="286.473,407.074 302.759,428.06 284.211,409.045 "
         id="polygon162"
         style="fill:#1d1d1b" />
    </g>
    <g
       id="g164">
      <line
         x1="285.34201"
         y1="418.06"
         x2="302.759"
         y2="438.06"
         id="line166"
         style="fill:#008800" />
      <polygon
         points="286.473,417.074 302.759,438.06 284.211,419.045 "
         id="polygon168"
         style="fill:#1d1d1b" />
    </g>
    <g
       id="g170">
      <line
         x1="285.34201"
         y1="428.06"
         x2="302.759"
         y2="448.06"
         id="line172"
         style="fill:#008800" />
      <polygon
         points="286.473,427.074 302.759,448.06 284.211,429.045 "
         id="polygon174"
         style="fill:#1d1d1b" />
    </g>
    <g
       id="g176">
      <line
         x1="285.34201"
         y1="438.06"
         x2="302.759"
         y2="458.06"
         id="line178"
         style="fill:#008800" />
      <polygon
         points="286.473,437.074 302.759,458.06 284.211,439.045 "
         id="polygon180"
         style="fill:#1d1d1b" />
    </g>
    <g
       id="g182">
      <line
         x1="285.34201"
         y1="448.06"
         x2="302.759"
         y2="468.06"
         id="line184"
         style="fill:#008800" />
      <polygon
         points="286.473,447.074 302.759,468.06 284.211,449.045 "
         id="polygon186"
         style="fill:#1d1d1b" />
    </g>
    <g
       id="g188">
      <line
         x1="285.34201"
         y1="458.06"
         x2="302.759"
         y2="478.06"
         id="line190"
         style="fill:#008800" />
      <polygon
         points="286.473,457.074 302.759,478.06 284.211,459.045 "
         id="polygon192"
         style="fill:#1d1d1b" />
    </g>
    <g
       id="g194">
      <line
         x1="285.34201"
         y1="468.06"
         x2="302.759"
         y2="488.06"
         id="line196"
         style="fill:#008800" />
      <polygon
         points="286.473,467.074 302.759,488.06 284.211,469.045 "
         id="polygon198"
         style="fill:#1d1d1b" />
    </g>
    <g
       id="g200">
      <line
         x1="285.34201"
         y1="478.06"
         x2="302.759"
         y2="498.06"
         id="line202"
         style="fill:#008800" />
      <polygon
         points="286.473,477.074 302.759,498.06 284.211,479.045 "
         id="polygon204"
         style="fill:#1d1d1b" />
    </g>
    <g
       id="g206">
      <line
         x1="285.34201"
         y1="488.06"
         x2="302.759"
         y2="508.06"
         id="line208"
         style="fill:#008800" />
      <polygon
         points="286.473,487.074 302.759,508.06 284.211,489.045 "
         id="polygon210"
         style="fill:#1d1d1b" />
    </g>
    <g
       id="g212">
      <line
         x1="285.34201"
         y1="498.06"
         x2="302.759"
         y2="518.06"
         id="line214"
         style="fill:#008800" />
      <polygon
         points="286.473,497.074 302.759,518.06 284.211,499.045 "
         id="polygon216"
         style="fill:#1d1d1b" />
    </g>
  </g>
  <use
     height="1052.3622"
     width="744.09448"
     y="0"
     x="0"
     style="fill:url(#rg-1-1);stroke:#000000;stroke-width:3"
     id="shine"
     xlink:href="#shield" />
</svg>
