<svg xmlns="http://www.w3.org/2000/svg" width="600" height="600" xmlns:xlink="http://www.w3.org/1999/xlink">
<defs>
  <radialGradient id="rg" gradientUnits="userSpaceOnUse" cx="220" cy="220" r="405">
    <stop style="stop-color:#fff;stop-opacity:.3" offset="0" />
    <stop style="stop-color:#fff;stop-opacity:.2" offset="0.2" />
    <stop style="stop-color:#666;stop-opacity:.1" offset="0.6" />
    <stop style="stop-color:#000;stop-opacity:.13" offset="1" />
  </radialGradient>
  <circle id="shield" cx="300" cy="300" r="298" />
</defs>
<use id="background" fill="#ff0" xlink:href="#shield" />
<path fill="#c00" d="m 30,225 c 16.301804,27.6183 12.96833,52.6182 -10,75 -7.929082,7.72685 -13.5146698,15.76634 -16.7636719,24.11719 a 298,298 0 0 0 296.7636719,272.88281 298,298 0 0 0 298,-298 298,298 0 0 0 -1.05273,-23.61133 c -3.21905,8.52781 -8.86188,16.73241 -16.94727,24.61133 -22.96788,22.38209 -26.30136,47.382 -10,75 -29.63533,-17.14602 -39.63516,-42.1461 -30,-75 9.63464,-32.85366 -0.36518,-57.85375 -30,-75 16.3018,27.6183 12.96833,52.6182 -10,75 -22.96788,22.38209 -26.30136,47.382 -10,75 -29.63533,-17.14602 -39.63516,-42.1461 -30,-75 9.63464,-32.85366 -0.36518,-57.85375 -30,-75 16.3018,27.6183 12.96833,52.6182 -10,75 -22.96788,22.38209 -26.30136,47.382 -10,75 -29.63533,-17.14602 -39.63516,-42.1461 -30,-75 9.63464,-32.85366 -0.36518,-57.85375 -30,-75 16.3018,27.6183 12.96833,52.6182 -10,75 -22.96788,22.38209 -26.30136,47.382 -10,75 -29.63533,-17.14602 -39.63516,-42.1461 -30,-75 9.63464,-32.85366 -0.36518,-57.85375 -30,-75 16.3018,27.6183 12.96833,52.6182 -10,75 -22.96788,22.38209 -26.30136,47.382 -10,75 -29.63533,-17.14602 -39.63516,-42.1461 -30,-75 9.63464,-32.85366 -0.36518,-57.85375 -30,-75 16.3018,27.6183 12.96833,52.6182 -10,75 -22.96788,22.38209 -26.30136,47.382 -10,75 -29.63533,-17.14602 -39.63516,-42.1461 -30,-75 9.63464,-32.85366 -0.36518,-57.85375 -30,-75 16.3018,27.6183 12.96833,52.6182 -10,75 -22.967883,22.38209 -26.301362,47.382 -10,75 -29.63533,-17.14602 -39.63516,-42.1461 -30,-75 9.634637,-32.85366 -0.365183,-57.85375 -30,-75 z" />
<use id="shine" fill="url(#rg)" stroke="#000" stroke-width="3" xlink:href="#shield" />
</svg>