<?xml version="1.0" encoding="UTF-8"?>
<svg xmlns="http://www.w3.org/2000/svg" xmlns:xlink="http://www.w3.org/1999/xlink" width="600" height="660">
<defs>
  <radialGradient id="rg" gradientUnits="userSpaceOnUse" cx="220" cy="220" r="405">
    <stop style="stop-color:#fff;stop-opacity:.3" offset="0"/>
    <stop style="stop-color:#fff;stop-opacity:.2" offset=".2"/>
    <stop style="stop-color:#666;stop-opacity:.1" offset=".6"/>
    <stop style="stop-color:#000;stop-opacity:.13" offset="1"/>
  </radialGradient>
  <path id="shield" d="m2,2v257c0,286 298,398 298,398c0,0 298-112 298-398V2z"/>
  <g id="frog">
    <path style="fill:#008800;" d="m 299.23,228.9 c -4.07,0.22 -9.84,8.5 -15.02,16.16 -5.48,8.12 -6.17,10.18 -7.03,16.53 -0.73,5.48 0.51,8.89 0,13.21 -3.8,0.89 -7.17,-0.45 -11.42,2.66 -0.19,-4.88 -5.15,-9.77 -8.33,-14.65 l 8.33,-6.66 c 2.76,-0.34 2.22,-2.02 1.51,-2.96 -0.79,-1.04 -3.45,-0.86 -3.39,1.09 l -6.89,4.54 c 1.73,-5.48 2.19,-10.96 2.63,-16.43 1.59,-0.75 0.6,-2.39 -0.34,-2.82 -0.94,-0.43 -2.45,0.25 -1.85,1.48 -0.63,4.1 -0.66,8.44 -2.64,11.99 -1.2,3.01 -2.62,1.58 -3.96,1.78 -0.1,-2.25 0.67,-4.38 -0.33,-6.77 -0.91,-3.69 -3.4,-7.39 -5.76,-11.09 1.04,-1.64 -0.36,-2.71 -2.05,-1.69 -2,1.19 -0.97,2.31 0.13,2.74 3.53,4.51 4.7,10.58 4.98,14.52 -2.23,-4.09 -4.85,-5.4 -7.27,-8.08 0.37,-1.5 -1.11,-1.99 -2.09,-0.86 -0.93,1.07 -0.26,2.3 0.56,2.36 0.1,0 3.3,2.91 4.79,7.51 1.52,4.7 0.93,1.06 3.66,9.84 2.97,8.59 5.53,17.24 12.17,25.26 6.6,1.36 17.53,-2.68 19.09,-0.57 2.91,3.92 1.07,1.03 -0.44,6.22 -1.98,6.83 -2.4,21.43 -2.4,21.43 0,0 -13.14,-6.15 -16.69,-2.66 -4.95,4.87 -2.19,19.97 -2.19,19.97 -1.41,-8.38 -4.01,-15.94 -3.31,-25.33 0.44,-0.17 1.18,-2.14 -0.78,-2.3 -2.24,-0.18 -1.49,1.9 -1.19,1.98 l 0.94,15.88 c -2.7,-5.6 -5.48,-11.2 -7.98,-16.8 0.18,-0.75 0.57,-3.25 -2.02,-2.06 -2.08,0.96 -0.92,2.8 -0.21,2.81 2.43,4.76 4.34,9.51 5.32,14.27 -1.58,1.75 -6.72,-3.56 -10.23,-5.48 -0.17,-1.93 -1.98,-1.95 -2.53,-0.77 -0.84,1.82 1.42,2.44 1.71,2.29 0,0 7.86,5.19 11.05,9.75 4.46,6.36 -0.55,8.96 4.97,18.74 6.34,11.23 14.6,21.51 22.7,24.75 2.99,1.21 6.52,0.25 7.63,-7.1 1.27,-8.35 -3.99,-21.67 -7.68,-28.14 -0.43,-0.66 -0.85,-1.34 -1.27,-2.05 0.39,0.57 0.82,1.27 1.27,2.05 5.35,8.36 11.68,13.72 21.57,18.38 1.03,0.48 1.62,0.93 2.15,1.2 v 0.13 c 0.35,0.11 0.64,0.15 0.9,0.13 0.26,0 0.54,0 0.9,-0.13 v -0.13 c 0.52,-0.27 1.12,-0.72 2.14,-1.2 9.91,-4.67 16.24,-10.03 21.6,-18.4 0.44,-0.77 0.86,-1.47 1.25,-2.03 -0.41,0.7 -0.83,1.37 -1.25,2.03 -3.69,6.46 -8.97,19.8 -7.71,28.16 1.12,7.35 4.63,8.31 7.63,7.1 8.1,-3.24 16.37,-13.52 22.71,-24.75 5.52,-9.78 0.51,-12.38 4.97,-18.74 3.19,-4.56 11.05,-9.75 11.05,-9.75 0.29,0.15 2.55,-0.47 1.71,-2.29 -0.55,-1.18 -2.38,-1.16 -2.54,0.77 -3.51,1.92 -8.64,7.23 -10.22,5.48 0.98,-4.76 2.88,-9.51 5.31,-14.27 0.71,0 1.88,-1.85 -0.2,-2.81 -2.59,-1.19 -2.2,1.31 -2.02,2.06 -2.5,5.6 -5.29,11.2 -7.98,16.8 l 0.93,-15.88 c 0.3,-0.1 1.06,-2.16 -1.18,-1.98 -1.96,0.16 -1.23,2.13 -0.78,2.3 0.7,9.39 -1.9,16.95 -3.31,25.33 0,0 2.76,-15.1 -2.2,-19.97 -3.54,-3.49 -16.69,2.66 -16.69,2.66 0,0 -0.41,-14.6 -2.4,-21.43 -1.5,-5.19 -3.34,-2.3 -0.43,-6.22 1.55,-2.11 12.49,1.93 19.09,0.57 6.64,-8.02 9.2,-16.67 12.16,-25.26 2.74,-8.78 2.14,-5.14 3.67,-9.84 1.49,-4.6 4.72,-7.53 4.79,-7.51 0.82,-0.1 1.49,-1.29 0.56,-2.36 -0.98,-1.13 -2.46,-0.64 -2.09,0.86 -2.43,2.68 -5.05,3.99 -7.28,8.08 0.27,-3.94 1.44,-10.01 4.98,-14.52 1.09,-0.43 2.14,-1.55 0.14,-2.74 -1.69,-1.02 -3.11,0 -2.06,1.69 -2.36,3.7 -4.85,7.4 -5.76,11.09 -1,2.39 -0.25,4.52 -0.34,6.77 -1.33,-0.2 -2.74,1.23 -3.94,-1.78 -1.99,-3.55 -2.01,-7.89 -2.64,-11.99 0.6,-1.23 -0.91,-1.91 -1.85,-1.48 -0.94,0.43 -1.93,2.07 -0.34,2.82 0.44,5.47 0.9,10.95 2.63,16.43 l -6.9,-4.54 c 0.1,-1.95 -2.6,-2.13 -3.39,-1.09 -0.72,0.94 -1.26,2.62 1.5,2.96 l 8.35,6.66 c -3.18,4.88 -8.15,9.77 -8.35,14.65 -4.24,-3.11 -7.61,-1.77 -11.42,-2.66 -0.51,-4.32 0.74,-7.73 0,-13.21 -0.85,-6.35 -1.53,-8.41 -7.02,-16.53 -5.5,-8.16 -11.7,-17 -15.78,-16.09 -0.25,-0.1 -0.51,-0.1 -0.77,-0.1 z"/>
    <path style="fill:#004400;" d="m 311.06,246.5 c 0.32,7.06 4.22,9.73 7.9,13.09 1.36,-1.37 2.07,-6.22 0.55,-9.65 -1.4,-3.18 -6.2,-4.45 -8.45,-3.44 z m -22.13,0 c -0.32,7.06 -4.21,9.73 -7.9,13.09 -1.36,-1.37 -2.07,-6.22 -0.55,-9.65 1.4,-3.18 6.21,-4.45 8.45,-3.44 z"/>
    <path style="fill:none;stroke:#004400;stroke-linecap:round;" d="m 336.42,322.08 c -4.64,3.13 -7.85,7.23 -10.76,11.54 m 17.35,-0.67 c -1.49,7.85 -5.27,13.98 -9.33,20.09 m -23.94,-10.15 c 5.1,-7.33 10.28,-14.52 13.67,-24.42 m -19.05,-85.4 c 0.75,4.39 1.74,8.69 4.5,12.21 m -45.29,76.8 c 4.65,3.13 7.85,7.23 10.76,11.54 m -17.35,-0.67 c 1.49,7.85 5.28,13.98 9.34,20.09 m 23.93,-10.15 c -5.1,-7.33 -10.28,-14.52 -13.67,-24.42 m 19.05,-85.4 c -0.74,4.39 -1.73,8.69 -4.5,12.21 m 25.64,18.2 c -1.87,5.38 -0.54,9.86 2.85,13.76 m -14.6,-26.46 c -1.96,7.49 3.91,12.28 8.7,12.24 m -30.5,0.46 c 1.87,5.38 0.55,9.86 -2.85,13.76 m 14.6,-26.46 c 1.96,7.49 -3.91,12.28 -8.69,12.24"/>
  </g>
</defs>
<use id="background" xlink:href="#shield" style="fill:#ffff00;"/>
<use xlink:href="#frog" transform="translate(-210,-187)"/>
<use xlink:href="#frog" transform="translate( -70,-187)"/>
<use xlink:href="#frog" transform="translate(  70,-187)"/>
<use xlink:href="#frog" transform="translate( 210,-187)"/>
<use xlink:href="#frog" transform="translate(-180, -24)"/>
<use xlink:href="#frog" transform="translate(   0, -24)"/>
<use xlink:href="#frog" transform="translate( 180, -24)"/>
<use xlink:href="#frog" transform="translate(-127, 129)"/>
<use xlink:href="#frog" transform="translate( 127, 129)"/>
<use xlink:href="#frog" transform="translate(   0, 234)"/>
<use id="shine" xlink:href="#shield" style="fill:url(#rg);stroke:#000000;stroke-width:3;"/>
</svg>
