<svg xmlns="http://www.w3.org/2000/svg" width="600" height="660" xmlns:xlink="http://www.w3.org/1999/xlink">
<defs>
  <radialGradient id="rg" gradientUnits="userSpaceOnUse" cx="220" cy="220" r="405">
    <stop style="stop-color:#fff;stop-opacity:.3" offset="0" />
    <stop style="stop-color:#fff;stop-opacity:.2" offset="0.2" />
    <stop style="stop-color:#666;stop-opacity:.1" offset="0.6" />
    <stop style="stop-color:#000;stop-opacity:.13" offset="1" />
  </radialGradient>
  <path id="shield" d="m 2 2 v 257 c 0 286 298 398 298 398 c 0 0 298 -112 298 -398 V 2 Z" />
</defs>
<use fill="#000000" xlink:href="#shield" />
<path style="fill:#ffffff" d="m 2,2 v 198 h 596 v -198 z" />
<g transform="matrix(0.145,0,0,0.145,-0.4195,1.322)" style="fill:#000000;stroke:#ffffff;stroke-width:2;" >
	<path d="m 1456,311.2 -10,-1.2 4,7.7 -8,-3.3 4,10.7 -11,-3.1 4,9.7 -8,-4.3 2,10.9 -10,-3.3 4,8.7 -8,-2.3 3,8.8 -10,-3.2 2,8.9 -7,-3.4 v 9 l -8,-1.4 v 9.1 l -8,-3.3 v 8 l -7,-3.4 v 10 l -8,-4.3 1,8.9 -8,-3.3 1,9.9 -9,-4.3 v 9.1 l 20,-5.8 64,-48 z" />
	<path d="m 1346,385.6 10,2.5 -3,-8.4 8,4.1 -3,-10.5 10,3.9 -3,-10.4 8,5 -1,-11.1 9,4.1 -3,-9 8,3.5 -2,-9.3 9,3.6 -1,-8.5 7,3.6 v -9.2 l 8,2.7 1,-8.8 8,3.9 v -8.5 l 7,3.9 1,-9.7 8,4.8 -1,-9.3 8,4.4 v -9.8 l 8,4.6 1,-9.2 -31,-6.8 -60,46.7 z" />
	<path d="m 1474,217.9 c 30,-30.1 65,-72.7 157,-124.53 -47,44.53 -102,98.03 -129,140.03 -10,5 -26,-6.7 -28,-15.5 z" />
	<g>
	  <path d="m 1767,65.13 c -1,-9.03 -14,-11.97 -24,-9.62 -11,2.39 -22,10.29 -24,21.05 -1,5.92 7,11.53 13,9.61 6,-2.15 6,-12.91 12,-16.94 6,-4.55 13,-6.81 23,-4.1 z" />
	  <path d="m 1707,109.3 c 2,7 13,9.9 16,7.8 7,-3.7 2,-13.2 6,-19.8 2,-4.84 5,-3.91 6,-13.36 0,-5.75 -13,-10.45 -16,-7.33 -4,5.51 -2,10.33 -4,16.89 -2,5.24 -9,10.4 -8,15.8 z" />
	  <path d="m 1806,279.4 c 21,29.7 40,62.3 55,93.8 2,4.6 7,8.6 12,9.4 6,0.8 13,-1.1 17,-5.2 2,-3.3 -1,-11.3 -4,-14.3 -10,-9.5 -13,-10.1 -20,-18 -18,-22.6 -33,-48 -50,-71.5 -21,-28.4 -47,-63.4 -70,-90.2 -4,-4.7 -6,-3.2 -12,-3.4 -4,-0.1 -8,-2.7 -12,-0.9 -3,1.6 -3,5.9 -3,9.4 1,3.7 5,5.6 8,7.9 22,15.5 53,47.8 79,83 z" />
	  <path d="m 1780,507 c 18,-16.7 23,-34.4 41,-50.9 21,-19.2 26,-20.5 49,-35.8 18,-11.3 27,-13.2 43,-22.3 5,-2.9 -6,-12.9 -11,-16.9 -5,-4.2 -15,-10.6 -20,-7 -23,14.9 -29,32.5 -53,50.6 -30,22.1 -50,37.2 -83,51.7 -17,7.3 -14,20.3 2,33.6 13,10.3 19,8.7 32,-3 z" />
	  <path d="m 1917,401 c 3,5.6 6,0.8 7,-3.8 2,-9.4 -4,-20.1 -1,-29.5 1,-5.1 -1,-16.7 -4,-22.8 -18,-33.3 -31,-47.6 -56,-77 -14,-17.3 -29,-25.8 -45,-38.8 -10,-7.8 -20,-15.9 -28,-23.5 -10,-9.2 -16,-21 -26,-30.7 -3,-3.2 -6,-5.5 -10,-4.4 -6,1.3 -18,10.7 -11,16.3 24,19.8 39,27.5 58,46.7 22,22.8 44,46.2 61,73 11,17.9 23,37.4 22,60.4 -1,2.9 -3,9.9 2,9.8 20,-0.4 24,13.7 31,24.3 z" />
	  <path d="m 1718,151.8 c -5,1.2 -6,8.1 -6,12.4 1,6.1 7,11.7 13,14.3 6,3.3 14,4.1 21,1.1 4,-2 9,-6.7 9,-11.6 1,-3.2 -1,-5.8 -4,-7.5 -6,-3.1 -13,2.7 -20,1 -6,-1.4 -8,-11.3 -13,-9.7 z" />
	  <path d="m 2489,204.1 c -18,-30.7 -70,-71.8 -105,-90.9 -5,-2.8 -16,12.5 -6,15.9 36,13.6 73,40.7 111,75 z" />
	  <path d="m 2621,669.6 c 2,-36.7 -12,-102.3 -25,-139.8 -2,-5.5 -18,-3.3 -14,5.6 18,34.7 31,85.5 39,134.2 z" />
	  <path d="m 2294,684 c 1,-36.8 -10,-89 -28,-126.2 -3,-5.2 -17,-3.4 -12,5.2 15,27.8 31,73.6 40,121 z" />
	  <path d="m 2213,61.56 c 56,12.92 111,23.63 169,50.84 4,2.1 -3,17.3 -7,14.8 -47,-28.49 -108,-39.53 -163,-51.13 -61,-12.89 -119,-14.96 -182,-17.65 -7,-0.23 -4,-21.44 4,-21.11 46,1.91 117,10.08 179,24.25 z" />
	  <path d="m 2529,402.2 c 29,50 42,70.4 66,125.8 2,4.7 -15,9.9 -16,5.1 -13,-52.7 -31,-73.6 -61,-121.2 -33,-52.7 -60,-89.3 -103,-128.9 -5,-5 6,-20.2 11,-14.9 29,29 67,71.2 103,134.1 z" />
	  <path d="m 2179,435.7 c 40,45.7 56,67 85,118.9 2,4.4 -9,9 -12,4.5 -25,-47.4 -49,-73.9 -85,-117 -40,-47.8 -101,-105.8 -149,-139.4 -6,-4.3 3,-16.8 9,-12.2 32,24.9 104,90.7 152,145.2 z" />
	  <path d="m 1890,56.28 c 57,-9.37 72,-12.82 142,-19.27 5,-0.44 2,20.91 -3,21.12 -53,2.41 -81,4.86 -137,13.96 -46,7.54 -61,11.76 -121,27.89 -8,1.92 -17,-17.09 -10,-18.98 44,-12.09 67,-14.34 129,-24.72 z" />
	  <path d="m 1898,205.5 c 48,30.7 72,43 129,84.4 4,2.9 -8,15.8 -12,12.8 -42,-33.4 -79,-55.1 -127,-85.3 -39,-25 -84,-46.6 -116,-59.2 -7,-2.8 0,-22.4 7,-19.2 41,20.5 65,32.9 119,66.5 z" />
	  <path d="m 2143,165.5 c 109,27.8 222,64.4 281,101.5 6,3.2 -7,13.1 -9,12.1 -103,-59.3 -181,-72.2 -296,-100.6 -96,-23.4 -270,-41.2 -343,-45.7 -7,-0.4 -10,-24.8 1,-22.9 111,19.4 275,32.1 366,55.6 z" />
	  <path d="m 1707,112.2 c 3,-7.5 15,-9.4 21,-4 5,4.8 -6,13.4 0,26.7 3,7.2 15,11.3 15,19.2 -1,5.9 -3,5.2 -9,7.9 -3,1.6 -6,-7 -18,-11.6 -5,-1.7 -2,-10.5 -4,-18.7 -1,-4.4 -7,-15.4 -5,-19.5 z" />
	  <path d="m 1729,137.4 c 0,6.9 8,14.1 11,12.6 8,-2.7 3,-12.1 15,-28.1 3,-4.3 7,-12 12,-18.2 5,-5.27 0,-25.72 -11,-21.29 -7,2.54 -3,14.51 -12,33.59 -3,4.9 -15,15.8 -15,21.4 z" />
	  <path d="m 1739,141.3 c -3,6.2 -1,21.5 7,13.4 12,-13.5 13,-14.8 28,-20.2 6,-2.5 10,-22 -2,-23.3 -7,-0.6 -8,10.7 -17,16.8 -5,2.9 -14,8.1 -16,13.3 z" />
	  <path d="m 1743,150.7 c -2,6.5 0,14.4 9,10.9 8,-2.6 13,-2.2 20,-1.9 5,0.1 10,-19.8 6,-20.6 -7,-1.6 -12,2.4 -20,6.3 -4,2.7 -12,0.2 -15,5.3 z" />
	</g>
	<g>
	  <path d="m 1866,1234 c 1,4 7,0 12,-2 5,0 8,1 10,-1 3,-3 5,-9 1,-10 -6,-3 -22,6 -23,13 z" />
	  <path d="m 1889,1220 c 6,1 8,4 15,3 7,-1 1,15 -2,14 -5,-2 -8,-5 -15,-5 -5,0 -2,-13 2,-12 z" />
	  <path d="m 1906,1224 c 9,3 13,-1 14,4 3,4 -2,15 -7,11 -2,-2 -3,-1 -9,-2 -9,0 -2,-15 2,-13 z" />
	  <path d="m 1923,1227 c 5,3 6,3 12,2 8,-1 4,15 -2,13 -7,-3 -14,0 -17,-4 -1,-5 1,-15 7,-11 z" />
	  <path d="m 1905,856.8 c 20,-35.1 43,-66.8 73,-92.1 49,-41.5 75,-50.9 110,-68 7,-3.1 5,-16.8 10,-17.9 6,-1.3 15,3.2 15,9 6,3.8 16,2.5 19,8.2 4,4.9 4,10.2 1,15 -7,9.5 -22,11.3 -33,15.8 -27,12.2 -73,34.3 -94,53.5 -12,12.4 -57,51.5 -52,68.7 2,8 4,16 -5,26.4 -8,8.6 -13,12.7 -18,14.5 -7,2.3 -19,0.3 -22,-6.9 -4,-11 -10,-13.3 -4,-26.2 z" />
	  <path d="m 2063,684.3 c -4,-2.2 -4,-5.6 -4,-9.2 -1,-30 15,-42.4 30,-40.7 33,3.7 69,31.6 97,58.7 21,19.8 50,45.1 55,72.1 2,9.9 -2,21.8 -5,29.4 -1,2.6 -6,2.5 -7,-0.5 -8,-14.3 -18,-24.3 -28,-30.7 -10,-6.5 -21,-10.6 -29,-5.3 -6,4.3 -6,13.1 -4,22 2,9.3 19,27 19,35.5 0,27.1 2,45.4 -9,67.8 -3,4.5 -8,3 -7,-3.5 2,-22.8 3,-40.9 -4,-61.2 -5,-14 -14,-30.7 -26,-39.3 -15,-10.1 -38,-15.6 -49,-5.8 -16,15.6 -33,36.9 -46,55 -3,3.6 -5,6.3 -3,11.4 2,6 8,13.7 16,22.8 1,2.5 4,7.2 -5,4.1 -11,-3.7 -27,-13.9 -38,-21.6 -11,-8.2 -26,-2.2 -31,-15.3 -2,-5.7 3,-14.2 7,-16.1 5,-2.2 12,-1.6 18,-1.4 8,0.4 14,-4.1 20,-7.7 10,-6.5 18,-18.1 25,-29.1 15,-28.5 5,-44.3 9,-51.7 5,-9.3 15,-5.7 18,-11 8,-11.1 9,-23.9 -6,-25.1 -6,-0.4 -8,-0.6 -13,-3.6 z" />
	  <path d="m 1887,883.4 c -2,-5.2 5,-17.4 10,-15.4 9,3.7 22,13.2 31,14.9 6,1.2 12,-3.7 17,-6.1 6,-2.5 8,6.4 8,11.4 5,41.1 6,89.6 22,130.8 9,27 8,33 29,64 2,5 7,12 -11,15 -14,2 -20,6 -22,-9 -4,-33 -11,-60 -22,-85 -14,-33.2 -15,-44.7 -31,-71.2 -9,-14.4 -22,-17.3 -31,-49.4 z" />
	  <path d="m 2009,1119 c -9,16 -10,23 -25,64 -5,11 -11,26 -19,50 -5,14 -10,42 -26,16 -4,-6 -13,-10 -3,-25 11,-19 17,-19 28,-44 9,-24 16,-40 13,-66 -1,-13 7,-14 18,-16 17,-5 21,5 14,21 z" />
	  <path d="m 2020,1132 c 6,-2 7,-10 5,-17 -2,-7 -8,-13 -15,-14 -4,0 -7,6 -6,8 2,5 9,5 12,8 3,3 5,8 4,15 z" />
	  <path d="m 1817,1255 c 3,-2 11,0 14,0 7,0 14,-9 19,-5 4,3 6,11 2,15 -5,5 -10,0 -17,2 -5,1 -13,7 -17,4 -5,-3 -6,-12 -1,-16 z" />
	  <path d="m 1858,1249 c 3,-1 10,2 13,2 7,2 15,-6 20,-1 3,4 3,12 -2,15 -5,5 -9,-1 -17,-1 -5,0 -14,5 -17,1 -4,-4 -3,-13 3,-16 z" />
	  <path d="m 1897,1247 c 3,-2 10,-1 13,-2 7,0 13,-10 19,-7 4,3 6,11 2,15 -3,6 -8,2 -16,4 -5,1 -12,9 -16,6 -5,-3 -7,-12 -2,-16 z" />
	  <path d="m 1788,1284 c 1,4 7,-5 12,-8 7,-4 11,-3 12,-6 3,-5 3,-15 -2,-15 -10,0 -25,17 -22,29 z" />
	  <path d="m 1847,1271 c 3,-1 10,0 13,1 5,0 12,-7 17,-2 3,2 4,10 0,13 -5,4 -8,-1 -16,0 -4,1 -11,6 -15,2 -4,-3 -4,-11 1,-14 z" />
	  <path d="m 1879,1270 c 3,-2 10,-1 12,-1 7,0 13,-10 18,-6 3,3 5,10 1,14 -3,5 -8,1 -14,3 -5,1 -12,7 -16,4 -4,-2 -5,-11 -1,-14 z" />
	  <path d="m 1912,1260 c 2,-1 10,-2 14,-4 7,-2 8,-10 13,-9 5,2 8,8 6,13 -1,6 -2,2 -10,6 -6,3 -16,10 -20,8 -5,-1 -7,-8 -3,-14 z" />
	  <path d="m 1816,1300 c 2,4 8,-4 13,-8 7,-3 12,-2 12,-4 4,-6 4,-16 -1,-15 -10,-2 -26,15 -24,27 z" />
	</g>
	<path d="m 1708,461.8 c -5,0.2 -9,4.2 -12,9 -8,11.5 -13,39.1 -20,48.4 -6,8.7 -15,4.1 -22,9.1 -10,6.5 -19,20.3 -26,33.2 -6,11.5 -7,18.7 -17,34.7 -3,4.8 -4,13.7 -5,22.9 -2,12.3 6,28.5 9,38.9 1,8.7 -4,10.6 -1,18.8 7,26.1 26,42.5 40,61.8 23,32.1 62,51.8 63,33 0,-9.6 28,-1.4 31,-9.5 2,-5.8 2,-9.4 -1,-16.9 -2,-2.8 0,-8.7 -4,-10.6 -2,-2.9 -7,0.3 -11,-5.2 -5,-5.3 -5,-6.7 -6,-15.4 -1,-8.6 -5,-4.8 -10,-5.7 -5,-0.7 -13,-2.1 -18,-9.8 -5,-8 -5,-20.2 -6,-28.9 -1,-17.3 7,-33.5 17,-39.5 4,-2.4 5,-11.8 9,-14.6 3,-1.9 6,0.5 9,-0.1 4,-0.8 10,-6.8 14,-8.2 9,-3.4 1,-13.1 10,-14.8 11,-2.3 22,15 32,2 5,-6.4 8,-21.4 5,-31.9 -4,-20.4 -20,-20.4 -31,-26.8 2,-13.3 12,12 5,-33.7 -2,-6.6 -19,-0.3 -19,-6.9 1,-4.6 -27,-5.6 -27,-10.5 -2,-6.2 2,-14.4 0,-18.6 -3,-3.1 -5,-4.4 -8,-4.2 z m -44,105.4 c 1,0.2 1,0.3 1,0.6 3,1.3 -6,9.8 -7,15.4 -1,11.1 -4,15.2 -5,20.5 -2,11.1 1,20.6 -5,28.7 -5,8.2 -11,10.8 -18,9.8 -6,-1 -14,-5.9 -14,-17.4 2,-14.2 33,-61.1 48,-57.6 z" />
	<g>
	  <path d="m 2314,777.7 c 9,-13.3 29,-12.1 24,-6.7 -6,6.5 -5,10.8 -5,16.7 z" />
	  <path d="m 2297,809.6 c -6,-0.5 4,-8.3 6,-17.5 2,-6.4 2,-15.4 8,-17.9 5,-2.1 10,3.8 15,5.7 5,1.9 9,3 11,8.1 2,5.5 0,11 -1,16.5 -2,6 -5,8.7 -9,12.5 -4,3.1 -5,-4 -16,-6.7 -5,-1.2 -9,-0.3 -14,-0.7 z" />
	  <path d="m 2280,761.1 c 10,-13.2 30,-10.7 25,-5.5 -7,6.4 -6,10.9 -6,17 z" />
	  <path d="m 2260,793 c -7,-0.9 5,-8.3 8,-17.7 2,-6.5 2,-15.8 8,-18 6,-1.9 11,4.5 16,6.8 5,2.3 9,3.7 11,9.1 1,5.8 -1,11.4 -3,16.9 -2,6.1 -5,8.8 -10,12.4 -4,3 -5,-4.4 -15,-7.9 -5,-1.5 -10,-0.9 -15,-1.6 z" />
	  <path d="m 2350,792.7 c 8,-12.8 26,-13 22,-7.7 -6,6.4 -4,10.2 -3,15.7 z" />
	  <path d="m 2337,823.2 c -6,0 3,-7.9 4,-16.5 2,-6 1,-14.2 6,-16.9 4,-2.3 10,2.8 15,4.2 4,1.4 8,2.1 10,6.7 2,4.9 1,10.1 0,15.2 -1,5.7 -4,8.3 -7,12.1 -4,3.1 -5,-3.3 -15,-5.1 -5,-0.8 -9,0.3 -13,0.3 z" />
	  <path d="m 2611,876.4 c 6,-10.7 21,-10.7 18,-6.3 -5,5.3 -3,8.5 -3,13 z" />
	  <path d="m 2599,901.7 c -5,-0.1 3,-6.5 4,-13.7 1,-5 0,-11.9 5,-14.2 4,-1.8 8,2.5 12,3.7 4,1.2 7,1.9 9,5.7 2,4.1 1,8.4 0,12.7 -2,4.7 -3,6.9 -7,10.1 -2,2.5 -4,-2.9 -12,-4.4 -4,-0.7 -7,0.2 -11,0.1 z" />
	  <path d="m 2581,865.3 c 7,-11.5 23,-11.5 19,-6.8 -4,5.7 -3,9.1 -3,14 z" />
	  <path d="m 2569,892.5 c -6,0 2,-7 4,-14.7 1,-5.4 0,-12.8 5,-15.2 4,-2 9,2.6 13,3.9 4,1.2 8,2 9,6 2,4.5 1,9.1 0,13.7 -1,5 -3,7.4 -6,10.8 -3,2.7 -5,-3 -14,-4.7 -4,-0.7 -7,0.3 -11,0.2 z" />
	  <path d="m 2455,828.6 c 7,-12.2 24,-13 20,-7.9 -5,6.1 -3,9.6 -2,14.6 z" />
	  <path d="m 2444,857.4 c -6,0.2 2,-7.4 4,-15.5 0,-5.6 -1,-13.2 4,-15.9 4,-2.3 9,2.2 14,3.3 4,1.2 8,1.7 10,5.9 2,4.5 1,9.3 0,14.2 -1,5.2 -3,7.8 -6,11.4 -3,3 -5,-2.9 -14,-4.2 -4,-0.5 -8,0.6 -12,0.8 z" />
	  <path d="m 2422,817.2 c 8,-12.8 26,-13 21,-7.7 -5,6.4 -3,10.2 -3,15.6 z" />
	  <path d="m 2409,847.7 c -6,-0.1 3,-7.9 4,-16.5 1,-6 0,-14.3 6,-17 4,-2.2 9,2.8 14,4.2 5,1.4 9,2.2 11,6.8 2,4.9 1,10 0,15.2 -2,5.6 -4,8.3 -8,12.1 -3,3.1 -5,-3.4 -14,-5.1 -5,-0.8 -9,0.3 -13,0.3 z" />
	  <path d="m 2386,805.6 c 6,-13.3 24,-14.7 20,-9.1 -4,6.7 -2,10.4 -2,15.8 z" />
	  <path d="m 2374,836.9 c -6,0.3 3,-8.1 4,-16.8 0,-6 -1,-14.2 4,-17.3 4,-2.5 10,2.2 15,3.3 5,1.1 8,1.6 11,6 2,4.8 1,10 1,15.2 -1,5.7 -3,8.5 -7,12.6 -3,3.2 -5,-3 -15,-4.2 -5,-0.4 -8,0.9 -13,1.2 z" />
	  <path d="m 2487,837.2 c 6,-12 22,-13.6 18,-8.6 -4,6.1 -2,9.4 -1,14.1 z" />
	  <path d="m 2478,865.2 c -5,0.4 2,-7.2 2,-14.9 1,-5.4 0,-12.7 4,-15.5 4,-2.3 9,1.7 13,2.6 5,0.8 8,1.2 10,5.1 2,4.1 2,8.8 1,13.4 0,5.1 -2,7.6 -5,11.3 -3,3 -5,-2.6 -14,-3.3 -4,-0.3 -7,0.9 -11,1.3 z" />
	  <path d="m 2518,846.1 c 6,-11.7 21,-13.3 18,-8.4 -4,6 -2,9.1 -2,13.8 z" />
	  <path d="m 2509,873.4 c -5,0.5 2,-7 2,-14.6 1,-5.2 0,-12.3 4,-15 4,-2.3 9,1.6 13,2.5 4,0.8 7,1.2 9,4.9 3,4.1 2,8.6 1,13.2 0,4.9 -2,7.4 -5,11 -2,2.9 -4,-2.5 -13,-3.3 -4,-0.3 -7,1 -11,1.3 z" />
	  <path d="m 2550,855 c 7,-11.1 22,-11.2 18,-6.7 -4,5.5 -3,8.9 -2,13.6 z" />
	  <path d="m 2538,881.3 c -5,-0.1 3,-6.8 4,-14.3 1,-5.2 0,-12.3 5,-14.6 4,-2 8,2.4 13,3.7 4,1.2 7,1.9 9,5.8 2,4.3 1,8.7 -1,13.2 -1,4.9 -3,7.2 -6,10.4 -3,2.7 -4,-2.9 -13,-4.4 -4,-0.7 -7,0.2 -11,0.2 z" />
	  <path d="m 2250,740.4 c 14,-10.7 33,-3 26,0.9 -8,4.6 -8,9.6 -10,15.7 z" />
	  <path d="m 2222,767.5 c -7,-2.7 6,-7.3 12,-16 4,-6 6,-15.3 13,-15.9 6,-0.5 10,7.3 14,11 5,3.6 8,6 9,11.9 0,6.4 -4,11.5 -7,16.6 -4,5.5 -8,7.5 -13,9.9 -5,2 -4,-5.8 -14,-12.1 -5,-2.9 -9,-3.3 -14,-5.4 z" />
	  <path d="m 2119,625.3 c 15,-11.2 36,-2.6 29,1.4 -10,4.9 -10,10.1 -12,16.6 z" />
	  <path d="m 2089,653.8 c -7,-2.9 7,-7.6 13,-16.8 4,-6.4 7,-16.3 15,-16.8 6,-0.5 10,7.9 15,12 4,3.9 8,6.5 8,12.8 0,6.8 -3,12.2 -7,17.6 -5,5.9 -8,7.9 -15,10.4 -5,2.1 -4,-6.3 -14,-13.2 -5,-3.1 -10,-3.7 -15,-6 z" />
	  <path d="m 2154,651.7 c 15,-11.3 36,-2.9 28,1.2 -9,4.9 -9,10.2 -11,16.7 z" />
	  <path d="m 2124,680.5 c -7,-2.9 7,-7.7 13,-17 4,-6.3 7,-16.3 15,-16.9 6,-0.5 9,7.9 14,11.9 5,3.9 9,6.4 9,12.7 1,6.8 -3,12.3 -7,17.7 -4,5.9 -8,7.9 -14,10.5 -5,2.1 -4,-6.2 -15,-13 -5,-3.1 -10,-3.6 -15,-5.9 z" />
	  <path d="m 2187,679.5 c 16,-10.7 36,-1.5 29,2.3 -10,4.5 -10,9.8 -12,16.3 z" />
	  <path d="m 2156,707.2 c -7,-3.2 7,-7.5 14,-16.5 4,-6.2 7,-16.1 15,-16.4 6,-0.2 9,8.3 14,12.4 5,4.1 9,6.8 9,13.1 0,6.8 -4,12.1 -8,17.4 -5,5.8 -9,7.6 -15,10 -5,1.9 -4,-6.4 -14,-13.6 -5,-3.3 -10,-4 -15,-6.4 z" />
	  <path d="m 2218,712.3 c 15,-10.7 35,-1.5 28,2.3 -9,4.5 -10,9.8 -12,16.2 z" />
	  <path d="m 2186,739.9 c -7,-3.2 7,-7.5 14,-16.5 4,-6.2 8,-16 15,-16.3 6,-0.3 10,8.2 15,12.4 4,4.1 8,6.8 8,13.1 0,6.8 -4,12.1 -8,17.4 -5,5.7 -9,7.6 -15,9.9 -5,1.9 -4,-6.4 -14,-13.6 -5,-3.3 -10,-4 -15,-6.4 z" />
	  <path d="m 2083,598.4 c 12,-13.6 35,-8.8 28,-3.5 -8,6.3 -7,11.5 -8,18.3 z" />
	  <path d="m 2057,631.8 c -7,-1.7 6,-8.8 11,-18.9 3,-7 4,-17.3 11,-19.1 6,-1.6 11,6.1 17,9.2 5,3.1 9,5 11,11.1 1,6.7 -2,12.7 -5,18.7 -3,6.5 -6,9.1 -12,12.7 -5,2.9 -5,-5.5 -17,-10.4 -5,-2.3 -10,-1.9 -16,-3.3 z" />
	  <path d="m 2046,579.4 c 12,-14.3 34,-10.7 28,-5.1 -8,6.8 -7,11.9 -7,18.7 z" />
	  <path d="m 2022,614.1 c -7,-1.3 6,-9.1 10,-19.4 2,-7.2 3,-17.6 10,-19.8 6,-1.8 12,5.6 17,8.3 6,2.8 10,4.5 12,10.6 2,6.6 -1,12.7 -4,18.8 -2,6.7 -6,9.5 -11,13.4 -5,3.2 -6,-5.2 -17,-9.5 -6,-1.9 -11,-1.4 -17,-2.4 z" />
	  <path d="m 2007,559.9 c 11,-15.3 33,-13.7 27,-7.5 -7,7.5 -5,12.4 -5,19.3 z" />
	  <path d="m 1987,596.7 c -8,-0.6 4,-9.6 7,-20.2 2,-7.4 2,-17.8 9,-20.6 6,-2.4 12,4.4 18,6.7 6,2.2 10,3.5 12,9.4 2,6.4 0,12.8 -2,19.1 -2,7 -5,10.1 -10,14.4 -4,3.6 -6,-4.7 -18,-7.9 -6,-1.4 -11,-0.4 -16,-0.9 z" />
	  <path d="m 1968,544.3 c 10,-15.5 33,-14.4 27,-8.1 -7,7.6 -6,12.6 -5,19.4 z" />
	  <path d="m 1948,581.5 c -7,-0.5 4,-9.7 7,-20.4 2,-7.4 2,-17.8 8,-20.8 6,-2.5 12,4.3 18,6.4 6,2.1 11,3.3 13,9.2 2,6.3 0,12.7 -1,19.1 -2,7 -5,10.1 -10,14.6 -5,3.6 -6,-4.6 -19,-7.5 -5,-1.3 -10,-0.3 -16,-0.6 z" />
	  <path d="m 1925,531 c 10,-16.6 33,-16.5 27,-9.7 -7,8.2 -4,13.2 -4,20.3 z" />
	  <path d="m 1906,570.4 c -7,-0.2 4,-10.2 7,-21.4 1,-7.8 0,-18.5 7,-21.9 6,-2.9 13,3.8 19,5.7 6,1.9 11,2.9 13,8.9 3,6.4 2,13.1 0,19.8 -2,7.3 -5,10.7 -10,15.6 -4,3.9 -6,-4.5 -19,-6.9 -6,-1.1 -11,0.3 -17,0.2 z" />
	  <path d="m 1882,520.6 c 10,-16.6 33,-16.5 27,-9.7 -6,8.2 -4,13.2 -4,20.3 z" />
	  <path d="m 1864,560 c -8,-0.2 4,-10.2 6,-21.4 1,-7.8 0,-18.5 7,-21.9 6,-2.9 13,3.8 19,5.7 7,1.9 11,2.9 14,8.9 3,6.4 1,13.1 -1,19.8 -1,7.3 -4,10.7 -9,15.6 -4,3.9 -7,-4.5 -20,-6.9 -6,-1.1 -10,0.3 -16,0.2 z" />
	  <path d="m 1841,508.8 c 11,-15.9 34,-14.4 28,-7.9 -7,7.7 -6,12.9 -5,19.9 z" />
	  <path d="m 1820,547 c -8,-0.7 5,-10 8,-21 2,-7.6 1,-18.4 9,-21.4 6,-2.5 12,4.6 18,6.9 6,2.3 11,3.6 13,9.7 2,6.6 0,13.2 -2,19.8 -2,7.1 -5,10.4 -10,14.9 -5,3.7 -6,-4.8 -19,-8.1 -6,-1.4 -11,-0.4 -17,-0.8 z" />
	  <path d="m 1804,497.3 c 10,-13.9 31,-11.6 25,-6 -6,6.7 -5,11.5 -5,17.9 z" />
	  <path d="m 1783,531 c -7,-0.9 5,-8.8 8,-18.6 2,-6.9 2,-16.7 9,-19.1 6,-2 11,4.7 16,7.1 6,2.3 10,3.7 12,9.3 2,6.1 -1,12 -3,17.9 -2,6.4 -5,9.2 -10,13.1 -4,3.1 -5,-4.6 -17,-8.1 -5,-1.6 -9,-0.9 -15,-1.6 z" />
	  <path d="m 2053,707.4 c 14,-16.8 19,-19.9 28,-38.7 8,-14.2 23,-43.3 13,-55.3 -3,-2.9 -4,0 -10,0.4 -4,0.3 -6,-2.9 -8,0.6 -3,3.8 2,8.5 3,16.3 1,7.8 1,12.6 -6,28.5 -6,13.4 -17,34.3 -25,46.5 -6,8.6 -3,11.5 5,1.7 z" />
	  <path d="m 2012,711.5 c 15,-20.8 20,-24.6 31,-47.8 8,-17.5 25,-53.4 16,-68.3 -3,-3.5 -4,0 -10,0.5 -4,0.4 -5,-3.5 -8,0.8 -3,4.7 2,10.5 2,20.1 1,9.6 0,15.6 -8,35.2 -6,16.5 -17,41.3 -26,56.4 -7,10.6 -5,15.2 3,3.1 z" />
	  <path d="m 1956,719.4 c 22,-26 29,-30.7 45,-59.6 12,-21.9 37,-65.6 23,-84.2 -4,-4.4 -5,1.1 -11,1.7 -7,0.6 -8,-2.7 -13,2.6 -4,5.9 2,8.4 3,20.4 1,12 -1,20.4 -13,44.9 -11,20.6 -25,51.5 -40,70.3 -9,13.2 -8,19 6,3.9 z" />
	  <path d="m 1912,723.8 c 22,-26 23,-32.4 40,-61.3 12,-21.9 32,-63.3 39,-95.2 1,-5.2 -4,-10.7 -12,-8 -6,1.8 -7,-3.8 -14,-1.5 -7,2.4 -2,25.6 -3,37.5 -3,22.7 -9,34.2 -21,58.7 -11,20.6 -20,47.1 -35,65.9 -9,13.2 -8,19 6,3.9 z" />
	  <path d="m 1877,707.6 c 21,-27 21,-33.4 37,-63.1 11,-22.5 28,-57.8 33,-90 1,-5.2 -4,-10.5 -12,-7.4 -6,2.1 -7,-3.4 -14,-0.8 -7,2.7 0,18.7 0,30.6 -2,22.8 -8,34.6 -18,59.6 -10,21.1 -18,48 -32,67.5 -9,13.6 -7,19.4 6,3.6 z" />
	  <path d="m 1841,684.9 c 21,-27 20,-29.6 36,-59.3 11,-22.5 20,-48.7 25,-80.9 1,-5.2 -4,-10.5 -12,-7.4 -6,2.1 -7,-3.4 -14,-0.8 -7,2.7 2,14.5 0,31.3 -2,22.8 0,24.8 -10,49.8 -10,21.1 -17,44.2 -31,63.7 -9,13.6 -7,19.4 6,3.6 z" />
	  <path d="m 1800,660.2 c 18,-29.5 19,-26.5 34,-56.8 10,-23 19,-38.6 27,-70.2 1,-5.1 -3,-10.8 -11,-8.5 -7,1.5 -7,-4.1 -14,-2.2 -8,2 0,14.6 -3,31.1 -5,22.5 -3,18.5 -11,43.9 -9,21.6 -17,38.8 -28,59.7 -8,14.8 -4,20.1 6,3 z" />
	  <path d="m 1741,468.8 c 13,-11 32,-4.6 26,-0.5 -8,5 -8,9.8 -9,15.8 z" />
	  <path d="m 1720,494.9 c -5,-9.8 3,-9.1 11,-16.1 5,-4.8 4,-9 10,-9.9 6,-0.8 7,2 12,5.4 4,3.3 8,5.4 8,11.1 1,6.1 -2,11.3 -5,16.4 -4,5.6 -7,7.7 -13,10.4 -4,2.1 -4,-5.5 -14,-11.1 -5,-2.5 -7,-1.4 -9,-6.2 z" />
	  <path d="m 1724,447 c 17,-4.3 31,10.2 24,10.9 -10,1 -11,5.4 -15,10.2 z" />
	  <path d="m 1692,456 c -4,-16.9 3,-11 16,-10.4 7,0.4 12,-4.3 19,-2.1 5,1.8 3,8.4 5,13.5 3,5 5,8.4 3,13.8 -2,5.8 -7,9 -12,12.2 -6,3.5 -10,3.8 -16,3.8 -5,0 -3,-5.7 -8,-16.1 -2,-6.1 -5,-9.6 -7,-14.7 z" />
	  <path d="m 1725,414 c 15,3.7 21,22 14,19.3 -8,-3.3 -11,-0.4 -17,1.8 z" />
	  <path d="m 1694,412.8 c -2,-6.2 4,-2.7 14,-3.8 6,-0.6 14,-4.1 19,0.6 4,3.8 0,10.7 0,16.2 0,5.3 1,9.1 -4,12.7 -4,3.9 -9,4.3 -15,4.7 -6,0.5 -10,-1 -15,-3.7 -4,-2.2 2,-6.1 1,-16.8 -1,-4.9 1,-5.2 0,-9.9 z" />
	  <path d="m 1727,376.4 c 15,3.7 21,22 14,19.3 -8,-3.3 -11,-0.4 -17,1.8 z" />
	  <path d="m 1696,375.2 c -2,-6.2 4,-2.7 14,-3.8 6,-0.6 14,-4.1 19,0.6 4,3.8 0,10.7 0,16.2 0,5.3 1,9.1 -4,12.7 -4,3.9 -9,4.3 -15,4.7 -6,0.5 -10,-1 -15,-3.7 -4,-2.2 2,-6.1 1,-16.8 -1,-4.9 1,-5.2 0,-9.9 z" />
	  <path d="m 1724,338.2 c 16,1.6 24,19.1 17,17.2 -8,-2.2 -11,1.1 -17,4 z" />
	  <path d="m 1693,341.1 c -3,-5.9 4,-3.3 13,-5.5 7,-1.5 14,-6 19,-2 5,3.3 2,10.6 3,16 1,5.3 1,9 -2,13.1 -4,4.4 -9,5.6 -15,6.7 -6,1.3 -10,0.3 -15,-1.7 -4,-1.6 1,-6.3 -2,-16.8 -1,-4.8 1,-5.3 -1,-9.8 z" />
	  <path d="m 1717,302.6 c 16,-1.1 27,14.7 20,14.1 -9,-0.8 -11,3 -16,6.7 z" />
	  <path d="m 1687,310.7 c -4,-5.4 4,-4 12,-7.8 6,-2.5 13,-8.3 19,-5.1 4,2.5 3,10.2 5,15.4 1,5.1 3,8.6 0,13.2 -3,5 -8,7 -14,9.1 -5,2.3 -9,1.9 -15,0.9 -4,-0.9 0,-6.4 -4,-16.3 -2,-4.5 0,-5.3 -3,-9.4 z" />
	  <path d="m 1702,268.3 c 14,-4 27,8.7 21,9.5 -9,1 -10,4.9 -14,9.2 z" />
	  <path d="m 1675,281.5 c -5,-4.3 3,-4.4 10,-9.6 5,-3.5 10,-10.1 16,-8.2 5,1.5 5,8.9 8,13.4 2,4.5 4,7.5 3,12.4 -2,5.2 -7,8.1 -11,11 -5,3.2 -9,3.6 -14,3.6 -5,0 -2,-6 -8,-14.4 -2,-3.8 -1,-4.9 -4,-8.2 z" />
	  <path d="m 1678,237.6 c 13,-7.8 29,0.8 23,3.4 -8,3.2 -8,7.5 -10,12.6 z" />
	  <path d="m 1656,257.7 c -5,-3 1,-5.1 7,-12 4,-4.8 7,-12.6 14,-12.4 5,0.1 7,7.2 10,10.8 4,3.7 7,6 7,11.1 -1,5.6 -4,9.6 -8,13.7 -4,4.4 -7,5.7 -12,7.3 -5,1.2 -3,-5.5 -11,-11.9 -4,-2.9 -3,-4.3 -7,-6.6 z" />
	  <path d="m 1648,211.3 c 11,-11 29,-7 23,-2.7 -7,5.1 -6,9.3 -7,14.8 z" />
	  <path d="m 1632,236.5 c -6,-1.4 0,-5.3 4,-13.5 3,-5.7 4,-14.1 10,-15.5 4,-1.2 8,5.1 13,7.6 4,2.5 8,4.1 9,9.1 1,5.4 -2,10.3 -4,15.2 -3,5.3 -5,7.4 -10,10.3 -4,2.3 -4,-4.5 -14,-8.6 -4,-1.8 -3,-3.5 -8,-4.6 z" />
	  <path d="m 1615,195.7 c 9,-11.9 26,-10.2 22,-5.4 -6,5.8 -5,9.8 -5,15.2 z" />
	  <path d="m 1602,222.1 c -6,-0.7 0,-5.1 2,-13.5 2,-5.8 2,-14.1 8,-16.2 4,-1.8 9,3.8 14,5.7 4,1.9 8,3.1 9,7.8 2,5.1 0,10.1 -1,15.1 -2,5.5 -5,7.9 -9,11.2 -3,2.7 -5,-3.8 -14,-6.7 -5,-1.2 -4,-2.9 -9,-3.4 z" />
	  <path d="m 1702,268.3 c 14,-4 27,8.7 21,9.5 -9,1 -10,4.9 -14,9.2 z" />
	  <path d="m 1675,281.5 c -5,-4.3 3,-4.4 10,-9.6 5,-3.5 10,-10.1 16,-8.2 5,1.5 5,8.9 8,13.4 2,4.5 4,7.5 3,12.4 -2,5.2 -7,8.1 -11,11 -5,3.2 -9,3.6 -14,3.6 -5,0 -2,-6 -8,-14.4 -2,-3.8 -1,-4.9 -4,-8.2 z" />
	  <path d="m 1577,188.3 c 4,-13.8 22,-17.5 19,-11.5 -4,7.1 -2,10.5 0,15.7 z" />
	  <path d="m 1573,217 c -6,1.1 -2,-4.8 -3,-13.4 0,-6 -2,-13.9 3,-17.5 4,-3 10,0.9 15,1.3 5,0.4 8,0.5 11,4.5 3,4.3 3,9.5 3,14.7 0,5.7 -2,8.7 -5,13.1 -2,3.6 -5,-2.2 -15,-2 -5,0.1 -5,-1.6 -9,-0.7 z" />
	  <path d="m 1520,238.8 c -3,3.9 -4,-1.7 -9,-6.7 -3,-3.6 -9,-6.8 -8,-11.5 1,-4 6,-5 9,-7.5 4,-2.5 6,-4.4 10,-3.7 4,0.8 7,4 9,7.1 4,3.4 4,6.1 5,10.3 1,3.4 -5,1.7 -10,7.3 -3,2.6 -4,1.7 -6,4.7 z" />
	  <path d="m 1544,226.5 c -5,3.6 -4,-3.4 -8,-11 -3,-5.4 -9,-11.3 -6,-16.7 2,-4.4 9,-3.6 14,-5.5 4,-1.8 7,-3.4 12,-1.1 5,2.4 7,7.2 9,11.9 2,5.2 2,8.6 2,13.8 -1,4.3 -6,0.4 -15,5.1 -4,2.2 -5,0.7 -8,3.5 z" />
	  <path d="m 1542,208 c 0,-4.6 7,-6 11,-4.1 3,1.3 2,6.1 5,11.1 5,9.5 15,21.9 9,17.6 -5,-3.2 -9,-8.7 -15,-13.8 -4,-3.7 -11,-6.7 -10,-10.8 z" />
	  <path d="m 1580,200 c 4,-2.7 8,-1.1 10,3.1 2,3 -1,7.3 -1,14.1 0,12.5 10,33.9 3,26 -4,-4.9 -8,-16.3 -11,-24.9 -1,-6.1 -5,-16 -1,-18.3 z" />
	  <path d="m 1614,208.2 c 4,-2.7 10,-3.4 12,0.8 2,3 -3,10.9 -3,17.7 -1,10.1 -3,17.5 -7,26 -8,17.7 -1,-16.1 -1,-25 0,-15.7 -5,-17.2 -1,-19.5 z" />
	  <path d="m 1645,223.6 c 5,-1.1 13,1 13,7 1,4.5 -3,3.5 -7,10.6 -6,12 -13,19.5 -26,35.6 -16,18.8 6,-19.4 11,-29.9 8,-18.3 3,-22.5 9,-23.3 z" />
	  <path d="m 1675,248.3 c 5,0.2 10,8.1 9,13.9 0,4.6 -4,2.7 -10,8.7 -8,10.2 -21,30.9 -37,43.4 -20,14.5 19,-29.8 25,-45 7,-19.2 7,-21.6 13,-21 z" />
	  <path d="m 1690,276 c 5,0.2 10,8.1 9,13.9 0,4.6 -4,2.7 -10,8.7 -8,10.2 -27,33.1 -45,42.4 -38,19.5 16,-16.4 33,-44 11,-17.4 7,-21.6 13,-21 z" />
	  <path d="m 1709,416.8 c 5,0.2 10,8.1 9,13.9 0,4.6 -4,2.7 -10,8.7 -8,10.2 -23,30.6 -38,51.3 -13,19.1 -12,12 -3,-5.2 8,-13.9 21,-35.4 29,-47.7 11,-17.5 7,-21.6 13,-21 z" />
	  <path d="m 1708,378.5 c 4,1.2 8,9.8 6,15.4 -1,4.5 -5,1.9 -12,6.7 -9,8.5 -28,25.7 -46,43.3 -17,16.3 -15,9.5 -2,-5.7 10,-12.1 27,-30.9 37,-41.5 14,-15.1 11,-19.9 17,-18.2 z" />
	  <path d="m 1709,342.8 c 4,1.5 7,10.4 5,15.8 -2,4.4 -6,1.5 -13,5.7 -10,7.7 -30,23.2 -49,39.2 -19,14.8 -16,8.2 -2,-5.8 11,-11.2 30,-28.5 40,-38.2 16,-13.9 13,-18.9 19,-16.7 z" />
	  <path d="m 1706,312.2 c 4,1.7 6,10.8 4,16.1 -2,4.2 -6,1.1 -13,4.8 -11,7.1 -32,21.3 -52,36 -20,13.6 -16,7.2 -1,-5.9 11,-10.5 31,-26.5 42,-35.6 17,-12.8 14,-18 20,-15.4 z" />
	  <path d="m 2267,798.5 c 5,-2.9 14,10.1 9,13.4 -12,8.6 -7,19 -7,30.7 0,14.1 4,19.6 8,28.1 2,5.4 -17,23.3 -17,13.2 -1,-24.6 -2,-28.5 -3,-40.6 0,-15.5 -10,-25.6 -1,-32.5 5,-3.8 5,-9.4 11,-12.3 z" />
	  <path d="m 2309,814.8 c 4,-2.6 12,7.6 8,10.5 -9,7.5 -4,15.8 -3,25.3 1,11.6 5,15.9 9,22.6 2,4.3 -13,19.7 -14,11.5 -2,-20.1 -4,-23.2 -5,-33 -2,-12.6 -11,-20.5 -4,-26.5 4,-3.3 4,-7.9 9,-10.4 z" />
	  <path d="m 2606,907.1 c 3,-1.5 9,4.3 6,6 -7,4.3 -3,9 -3,14.4 1,6.6 4,9.1 6,12.9 2,2.4 -9,11.2 -9,6.5 -2,-11.4 -3,-13.2 -4,-18.8 -1,-7.2 -7,-11.7 -2,-15.1 2,-1.9 2,-4.5 6,-5.9 z" />
	  <path d="m 2577,897.3 c 3,-1.7 9,4.8 6,6.7 -6,4.9 -3,10.1 -2,16.2 1,7.4 3,10.2 6,14.5 2,2.7 -9,12.6 -10,7.3 -1,-12.8 -2,-14.8 -3,-21.1 -1,-8.1 -8,-13.2 -3,-17 3,-2.1 3,-5 6,-6.6 z" />
	  <path d="m 2547,886.1 c 3,-1.9 9,5.3 6,7.4 -7,5.5 -3,11.2 -2,18 0,8.2 3,11.3 6,16.1 1,3 -9,14 -10,8.1 -1,-14.2 -2,-16.4 -3,-23.4 -2,-9 -8,-14.7 -3,-18.9 3,-2.3 3,-5.5 6,-7.3 z" />
	  <path d="m 2518,876.7 c 3,-2.1 9,5.9 6,8.2 -7,6.1 -3,12.4 -2,19.9 0,9.1 3,12.5 6,17.8 1,3.3 -9,15.5 -10,8.9 -1,-15.7 -2,-18.1 -3,-25.8 -2,-10 -8,-16.3 -3,-20.9 3,-2.6 3,-6.1 6,-8.1 z" />
	  <path d="m 2418,850.8 c 4,-2.5 11,6.9 8,9.6 -8,7.2 -4,14.5 -3,23.3 0,10.7 4,14.7 7,20.9 2,3.9 -11,18.2 -11,10.4 -2,-18.4 -3,-21.2 -4,-30.2 -2,-11.7 -9,-19.1 -3,-24.5 3,-3.1 3,-7.2 6,-9.5 z" />
	  <path d="m 2348,826.7 c 4,-2.7 12,7.4 8,10.2 -9,7.7 -4,15.5 -3,24.8 1,11.4 4,15.7 8,22.3 2,4.2 -12,19.4 -13,11.1 -2,-19.6 -3,-22.6 -4,-32.2 -2,-12.4 -10,-20.3 -4,-26.1 4,-3.3 4,-7.6 8,-10.1 z" />
	  <path d="m 2384,839.6 c 4,-2.6 11,7 8,9.7 -9,7.3 -4,14.7 -3,23.5 0,10.8 4,14.9 8,21.2 2,4 -12,18.4 -13,10.5 -2,-18.6 -3,-21.4 -5,-30.6 -1,-11.7 -10,-19.2 -3,-24.7 4,-3.1 3,-7.2 8,-9.6 z" />
	  <path d="m 2453,862.4 c 4,-2.2 11,6.2 8,8.6 -9,6.4 -4,13.1 -3,20.9 0,9.6 4,13.2 7,18.7 2,3.5 -11,16.3 -11,9.4 -2,-16.5 -3,-19 -5,-27.1 -1,-10.5 -9,-17.2 -3,-22 4,-2.7 3,-6.4 7,-8.5 z" />
	  <path d="m 2486,868.3 c 4,-2.2 11,6.2 8,8.6 -9,6.4 -4,13.1 -3,20.9 0,9.6 4,13.2 7,18.7 2,3.5 -11,16.3 -12,9.4 -1,-16.5 -3,-19 -4,-27.1 -1,-10.5 -9,-17.2 -3,-22 4,-2.7 3,-6.4 7,-8.5 z" />
	  <path d="m 2640,888.2 c 7,-10.2 22,-9.2 18,-5.1 -5,5 -4,8.3 -4,12.9 z" />
	  <path d="m 2626,912.7 c -5,-0.4 3,-6.4 5,-13.4 1,-5 1,-11.9 6,-13.8 4,-1.6 8,2.9 12,4.4 4,1.5 6,2.4 8,6.3 2,4.2 0,8.5 -1,12.7 -2,4.6 -4,6.7 -7,9.6 -3,2.4 -4,-3.1 -12,-5.2 -4,-0.9 -7,-0.3 -11,-0.6 z" />
	  <path d="m 2632,918.5 c 3,-1.3 9,4.9 6,6.4 -7,3.8 -4,8.7 -3,14.2 0,6.6 2,9.3 5,13.3 1,2.5 -10,10.5 -10,5.8 -1,-11.5 -2,-13.3 -2,-19 -1,-7.3 -7,-12.2 -2,-15.2 3,-1.7 3,-4.3 6,-5.5 z" />
	  <path d="m 2712,934.7 c 8,-7.3 21,-3.4 17,-0.7 -5,3.3 -5,6.4 -6,10.3 z" />
	  <path d="m 2696,953 c -4,-1.3 4,-4.9 7,-10.5 2,-4 3,-9.9 7,-10.6 4,-0.6 6,4.1 10,6.1 3,2.1 5,3.4 5,7.1 1,3.9 -1,7.3 -3,10.7 -2,3.6 -4,5 -8,6.8 -3,1.5 -3,-3.4 -9,-6.9 -3,-1.6 -6,-1.6 -9,-2.7 z" />
	  <path d="m 2703,960.1 c 2,-0.3 5,4.1 3,4.6 -5,1.2 -3,4.5 -4,7.8 -1,3.9 0,5.8 1,8.5 1,1.7 -7,4.8 -7,2.3 2,-7.1 1,-8.3 2,-11.7 0,-4.4 -3,-8.1 1,-9.2 2,-0.5 2,-2.1 4,-2.3 z" />
	  <path d="m 2667,903.5 c 8,-8.7 23,-5.5 18,-2.1 -5,4.1 -4,7.4 -5,11.8 z" />
	  <path d="m 2651,925.2 c -5,-1.2 3,-5.7 6,-12.3 2,-4.5 3,-11.2 8,-12.4 4,-0.9 7,4.1 11,6.1 3,2 6,3.3 7,7.3 1,4.3 -1,8.2 -3,12.1 -2,4.2 -5,5.9 -8,8.2 -3,1.9 -4,-3.6 -11,-6.8 -4,-1.5 -7,-1.3 -10,-2.2 z" />
	  <path d="m 2659,930.4 c 3,-0.8 7,5.2 5,6 -7,2.3 -5,7 -5,11.6 -1,5.8 1,8.3 2,12 1,2.4 -9,7.6 -9,4 1,-10.2 1,-11.9 1,-16.6 0,-6.4 -4,-11.3 0,-13.3 3,-1 4,-3.4 6,-3.7 z" />
	  <path d="m 2692,919.6 c 8,-7.2 21,-3.1 16,-0.4 -5,3.3 -4,6.4 -5,10.3 z" />
	  <path d="m 2675,937.8 c -4,-1.4 4,-4.8 7,-10.5 2,-3.9 4,-10 8,-10.6 4,-0.5 6,4.3 9,6.4 3,2.1 6,3.5 6,7.2 0,4 -2,7.4 -4,10.7 -2,3.7 -4,5 -8,6.8 -3,1.4 -2,-3.5 -9,-7.1 -3,-1.7 -6,-1.8 -9,-2.9 z" />
	  <path d="m 2682,942.8 c 3,-0.5 6,5.4 4,6.1 -7,1.4 -5,5.9 -6,10.3 -1,5.3 0,7.8 2,11.2 0,2.5 -10,6.4 -10,2.9 2,-9.2 2,-10.8 3,-15.3 0,-5.9 -3,-10.8 1,-12.3 3,-0.7 4,-2.8 6,-2.9 z" />
	  <path d="m 2733,950.2 c 8,-6.4 20,-2 16,0.3 -5,2.9 -5,5.8 -6,9.4 z" />
	  <path d="m 2716,966.4 c -3,-1.5 4,-4.3 8,-9.5 2,-3.6 3,-9.1 8,-9.5 3,-0.4 5,4.2 8,6.4 3,2.1 5,3.5 5,7 0,3.7 -2,6.8 -4,9.8 -2,3.4 -4,4.5 -8,6 -3,1.2 -2,-3.4 -8,-7.1 -3,-1.6 -6,-1.9 -9,-3.1 z" />
	  <path d="m 2723,973.6 c 2,-0.2 4,4.1 2,4.5 -4,0.8 -3,4 -4,7.1 -1,3.7 0,5.4 1,8.1 0,1.6 -7,3.9 -7,1.8 2,-6.6 1,-7.8 2,-11 1,-4.2 -2,-7.8 2,-8.6 2,-0.4 2,-1.9 4,-1.9 z" />
	  <path d="m 2752,966.8 c 7,-5.8 18,-1.8 14,0.3 -5,2.6 -4,5.3 -5,8.6 z" />
	  <path d="m 2737,981.6 c -4,-1.4 3,-3.9 6,-8.7 2,-3.2 4,-8.3 7,-8.6 4,-0.4 5,3.8 8,5.8 2,1.9 4,3.2 5,6.4 0,3.4 -2,6.2 -4,9 -2,3 -4,4.1 -7,5.4 -3,1.1 -2,-3.1 -8,-6.4 -2,-1.6 -5,-1.8 -7,-2.9 z" />
	  <path d="m 2743,988.2 c 2,-0.2 3,3.7 2,4.1 -5,0.7 -4,3.2 -4,6.2 -1,3.5 0,4.5 0,6.5 1,2 -6,4 -6,2 2,-5 2,-7 2,-9.5 1,-3.6 -1,-6.8 2,-7.6 1,-0.3 2,-1.7 4,-1.7 z" />
	  <path d="m 2754,994.1 c 0,-3 2,-1.4 6,-5.9 2,-3.1 4,-8 8,-8.1 3,-0.1 4,4.2 7,6.3 2,2.2 4,3.5 4,6.7 0,3.5 -2,6.1 -4,8.9 -3,3 -5,4 -8,5 -2,1 -2,-2 -7,-7 -3,-1.4 -7,-3 -6,-5.9 z" />
	  <path d="m 1769,483.4 c 11,-13.1 31,-10.2 25,-5 -7,6.3 -5,10.9 -6,17.1 z" />
	  <path d="m 1755,514.7 c -12,-3.1 -2,-6.4 5,-14.8 4,-5.5 1,-14.5 8,-16.6 5,-1.8 8,1 13,3.4 6,2.5 9,4 11,9.5 2,5.9 -1,11.5 -3,17.1 -2,6.2 -5,8.8 -10,12.4 -4,2.9 -3,-1.5 -14,-5.2 -5,-1.7 -4,-4.6 -10,-5.8 z" />
	  <path d="m 2769,1010 c 1,-3 2,-1 6,-3 3,-2 7,-6 11,-5 2,2 1,5 3,8 1,3 3,8 2,11 -1,2 -4,3 -6,5 -3,2 -6,2 -9,2 -1,1 0,-2 -3,-8 -2,-2 -6,-8 -4,-10 z" />
	  <path d="m 2544,1181 c 0,-1 -2,-6 1,-6 5,0 12,-2 14,0 2,2 4,5 5,7 1,3 -1,5 -4,5 -20,2 -15,-1 -16,-6 z" />
	  <path d="m 2567,1181 c 0,-1 -2,-6 1,-6 5,0 16,-3 18,-1 2,2 0,6 1,8 1,3 -1,5 -4,5 -20,2 -15,-1 -16,-6 z" />
	  <path d="m 2521,1181 c 0,-1 -2,-6 1,-6 5,0 12,-2 14,0 2,2 4,5 5,7 1,3 -1,5 -4,5 -20,2 -15,-1 -16,-6 z" />
	  <path d="m 2498,1181 c 0,-1 -2,-5 1,-5 4,0 11,-2 13,0 1,1 3,4 4,6 1,3 -1,4 -4,4 -18,2 -13,0 -14,-5 z" />
	  <path d="m 2477,1177 c 0,-1 -1,-5 2,-4 4,0 11,0 13,2 1,1 2,5 3,7 0,3 -2,3 -5,3 -18,-2 -13,-3 -13,-8 z" />
	  <path d="m 2456,1173 c 0,-1 -1,-5 2,-4 4,0 11,0 13,2 1,1 2,5 3,7 0,3 -2,3 -5,3 -18,-2 -13,-3 -13,-8 z" />
	  <path d="m 2434,1169 c 0,-1 -1,-5 2,-4 4,0 14,0 16,2 1,1 -1,5 0,7 0,3 -2,3 -5,3 -18,-2 -13,-3 -13,-8 z" />
	  <path d="m 2414,1162 c 0,-1 -1,-5 2,-3 4,0 14,1 16,4 1,1 -2,5 -1,7 -1,3 -3,2 -6,2 -17,-5 -12,-5 -11,-10 z" />
	  <path d="m 2392,1156 c 0,-1 -1,-5 2,-3 4,0 14,1 16,4 1,1 -2,5 -1,7 -1,3 -3,2 -6,2 -17,-5 -12,-5 -11,-10 z" />
	  <path d="m 2368,1148 c 0,0 -1,-5 2,-2 6,0 17,3 19,6 1,0 -3,4 -1,6 -3,2 -4,1 -8,1 -21,-7 -14,-7 -12,-11 z" />
	  <path d="m 2345,1137 c 0,0 0,-5 2,-2 6,1 17,6 18,9 1,0 -3,4 -2,6 -3,2 -4,0 -8,0 -19,-10 -12,-9 -10,-13 z" />
	  <path d="m 2331,1129 c 4,1 9,3 10,6 0,0 0,2 -2,4 -2,2 -13,-1 -15,-4 -5,-7 4,-7 7,-6 z" />
	  <path d="m 2282,1110 c 6,0 14,2 14,5 0,5 -6,5 -9,4 -16,-8 -9,-10 -5,-9 z" />
	  <path d="m 2306,1117 c 4,1 12,5 13,8 0,0 0,2 -2,4 -2,2 -16,-3 -18,-6 -5,-7 4,-7 7,-6 z" />
	  <path d="m 2590,1179 c 0,-1 -2,-7 1,-7 5,0 17,-3 19,-1 2,2 0,7 1,9 1,3 -1,5 -4,5 -21,2 -16,-1 -17,-6 z" />
	  <path d="m 2614,1177 c 0,-1 -3,-6 0,-7 5,0 17,-5 19,-3 2,1 1,7 2,9 2,2 0,5 -3,5 -21,5 -16,1 -18,-4 z" />
	  <path d="m 2637,1174 c 0,-1 -3,-6 0,-7 5,0 17,-5 19,-3 2,1 1,7 2,9 2,2 0,5 -3,5 -21,5 -16,1 -18,-4 z" />
	  <path d="m 2662,1169 c 0,-1 -3,-6 0,-7 5,0 17,-5 19,-3 2,1 1,7 2,9 2,2 0,5 -3,5 -21,5 -16,1 -18,-4 z" />
	  <path d="m 2686,1163 c 0,-1 -3,-6 0,-7 6,-1 18,-8 20,-6 2,1 2,8 3,10 2,2 1,6 -2,6 -23,7 -18,3 -21,-3 z" />
	  <path d="m 2712,1155 c -1,-1 -4,-6 -1,-9 6,-1 21,-11 23,-9 2,2 6,9 7,11 3,2 0,7 -4,8 -26,11 -21,6 -25,-1 z" />
	  <path d="m 2742,1142 c -2,-1 -6,-4 -4,-8 5,-3 16,-18 18,-16 3,1 8,5 10,7 4,1 3,7 -1,10 -20,19 -17,12 -23,7 z" />
	  <path d="m 2769,1121 c -2,0 -7,-2 -7,-6 4,-5 9,-22 12,-21 3,0 9,2 12,3 4,0 5,6 2,10 -12,24 -12,17 -19,14 z" />
	  <path d="m 2783,1090 c -2,2 -7,0 -8,-3 3,-5 4,-25 8,-24 2,-1 8,0 11,0 5,-1 6,5 5,10 -7,27 -8,19 -16,17 z" />
	  <path d="m 2790,1056 c -1,3 -6,3 -8,1 2,-6 -5,-24 -1,-25 2,-2 8,-4 10,-5 3,-2 7,1 7,7 4,27 0,20 -8,22 z" />
	</g>
	<g transform="translate(3000)">
	  <path d="m -1188,779.2 c 28,3.3 48,-3.6 72,-11.4 24,-8 44,-19.2 62,-37.3 11,-10.7 -2,-9.2 -9,-2.7 -18,15.4 -36,24.5 -58,31.5 -24,7.5 -44,10.9 -65,10.5 -4,-0.1 -6,9 -2,9.4 z" />
	  <path d="m -1186,767.4 c 17,-1.4 33,-3.4 50,-9.6 13,-4.6 30,-12.6 38,-21 11,-12.7 2,-9.7 -9,-2.6 -12,7.9 -17,11.3 -30,15.2 -17,5 -27,8.5 -46,8.8 -9,0.2 -7,9.6 -3,9.2 z" />
	  <path d="m -1181,755.8 c 10,-2.5 19,-7.5 28,-14 6,-4.8 19,-17.5 26,-26.6 5,-6.5 -4,-5.6 -7,-2.5 -9,10.4 -13,13.6 -23,21.1 -8,6.4 -14,9.5 -26,15.3 -5,2.5 -9,9.6 2,6.7 z" />
	  <path d="m -1226,480 c -7,0.2 -15,3.5 -20,7.4 -12,9.5 1,24.7 -12,34 -12,8.7 -30,4.1 -44,9.1 -18,6.5 -35,20.3 -49,33.1 -12,11.5 -14,18.7 -33,34.7 -6,4.8 -9,13.6 -11,22.8 -3,12.3 12,29 14,41.4 1,10.2 -9,12.4 -6,22.2 9,31 41,50.3 64,73.2 38,38.1 109,61.4 114,39.1 3,-11.3 21,-10.4 28,-20 5,-6.8 6,-11.1 2,-20 -2,-3.3 1,-10.4 -3,-12.6 -5,-3.4 -15,0.3 -22,-6.2 -7,-6.3 -7,-7.9 -7,-18.2 -1,-10.2 -8,-5.7 -19,-6.7 -9,-0.8 -24,-2.5 -32,-11.7 -9,-9.5 -7,-24 -6,-34.2 2,-20.5 17,-36.7 36,-42.7 8,-2.4 10,-11.8 18,-14.5 5,-1.9 12,0.5 18,-0.1 8,-0.8 19,-6.8 26,-8.2 18,-3.4 39,-5.7 56,-7.4 23,-2.3 44,15 63,2 10,-6.4 15,-21.4 10,-31.9 -9,-20.3 -40,-20.3 -61,-26.7 -38,-11.3 -96,27 -108,-10.4 -2,-5.5 5,-9.6 6,-15 1,-3.8 -10,-9.8 -11,-13.7 -1,-5.1 4,-11.9 0,-15.3 -3,-2.6 -7,-3.6 -11,-3.5 z m -77,78.5 c 1,0 2,0.1 3,0.2 6,0.9 -2,12.8 -2,19.2 0,5.8 3,11.4 3,17.3 0,12.6 0,27.1 -8,37.1 -8,10.1 -20,14.2 -33,14.6 -13,0.4 -33,-3.1 -36,-15.6 -2,-15.9 42,-73.4 73,-72.8 z" />
	</g>
	<g>
	  <path d="m 2058,277.8 c 10,35.4 16,72.4 19,107.3 1,5.1 4,10.6 8,13.1 5,2.6 12,3.4 17,0.8 4,-2.1 4,-10.8 2,-14.7 -6,-12.3 -9,-14 -12,-23.6 -9,-27.6 -15,-56.8 -23,-84.8 -10,-34 -21,-75.7 -34,-108.9 -2,-5.7 -4,-5 -10,-7.3 -3,-1.6 -6,-5.4 -10,-5 -4,0.4 -5,4.4 -6,7.8 -1,3.7 2,7 4,10.2 16,22.3 33,63.2 45,105.1 z" />
	  <path d="m 1778,541.1 c -9,6 -13,18.3 -5,25.7 5,4.8 21,12.5 34,7.4 13,-5.6 18,-18.2 31,-24.6 12,-5.7 33,-3.2 44,-10.7 23,-16.3 49,-31.7 75,-44.6 30,-14.5 77,-38.5 108,-50.8 22,-9 25,-10.2 45,-17 7,-2.2 4,-15.1 0,-20.7 -5,-6 -14,-8.2 -21,-5.2 -29,12 -33,24.4 -65,39.7 -39,18.7 -108,38.7 -149,50.5 -27,7.5 -46,4.2 -59,14.5 -11,9.2 -9,17 -38,35.8 z" />
	  <path d="m 2119,430.6 c 2,6.4 6,2.8 8,-1.1 6,-7.9 4,-20.1 10,-28 3,-4.2 5,-15.9 4,-22.7 -5,-37.3 -12,-55.4 -25,-91.6 -8,-21.3 -18,-34.3 -29,-52 -6,-10.8 -13,-21.9 -18,-31.9 -6,-12.1 -8,-25.4 -13,-37.8 -2,-4.1 -4,-7.3 -9,-7.8 -5,-0.7 -20,3.8 -16,11.4 16,26.9 28,39.6 38,64.1 13,29.1 26,58.7 32,89.8 5,20.7 8,42.9 -1,64.1 -1,2.6 -6,8.3 -1,10.1 19,6.5 18,21.1 20,33.4 z" />
	  <path d="m 2016,126.9 c -5,0.4 -7,7 -7,11.5 0,6.2 4,12.5 9,16.1 6,4.3 14,6.5 21,4.7 5,-1.2 11,-4.9 12,-9.6 1,-3.1 -1,-6.2 -3,-8.2 -6,-4.2 -14,0.3 -20,-2.5 -6,-2.4 -6,-12.5 -12,-12 z" />
	  <path d="m 2767,311.1 c -13,-33.4 -57,-82.8 -88,-107.6 -4,-3.6 -18,9.6 -9,14.6 34,19.7 65,52.7 97,93 z" />
	  <path d="m 2817,792.4 c 9,-35.8 5,-102.9 -1,-142.1 -1,-5.7 -17,-6.3 -14,3.2 11,37.2 15,89.4 15,138.9 z" />
	  <path d="m 2492,750.3 c 7,-36.1 6,-89.3 -6,-129.1 -1,-5.6 -16,-6.3 -13,3 11,30.1 18,77.8 19,126.1 z" />
	  <path d="m 2519,123.2 c 53,22.4 105,42.4 158,79.2 4,2.8 -6,16.5 -10,13.3 -41,-36.1 -99,-57.4 -151,-78.3 -58,-23.2 -115,-35.3 -176,-48.61 -7,-1.6 0,-21.77 7,-20.19 45,9.77 114,30.08 172,54.6 z" />
	  <path d="m 2772,513.2 c 20,54.1 29,76.4 43,135.2 2,4.9 -16,7.3 -16,2.3 -4,-54.1 -18,-77.8 -39,-129.9 -24,-57.6 -44,-98.2 -79,-144.6 -5,-5.8 8,-19 13,-12.9 23,33.5 53,81.7 78,149.9 z" />
	  <path d="m 2421,485.9 c 32,51.9 44,75.7 64,131.7 1,4.8 -11,7.3 -13,2.5 -16,-51.1 -35,-81.2 -63,-129.9 -32,-54 -82,-121.7 -123,-163 -5,-5.2 5,-16 10,-10.5 28,30.1 87,107.3 125,169.2 z" />
	  <path d="m 2203,62.76 c 57,0.5 72,-0.51 142,5.14 5,0.39 -2,20.96 -7,20.32 -52,-6.71 -79,-8.97 -136,-9.59 -47,-0.52 -62,0.99 -124,6.55 -8,0.67 -12,-19.3 -4,-19.99 45,-4.19 66,-2.97 129,-2.43 z" />
	  <path d="m 2184,210.8 c 43,38.6 65,54.9 113,105.4 3,3.6 -11,14.2 -14,10.5 -35,-39.8 -68,-67.6 -110,-105.6 -34,-31.5 -75,-60.5 -104,-78.4 -6,-3.9 4,-22.1 10,-17.7 37,27.3 58,43.5 105,85.8 z" />
	  <path d="m 2433,213.6 c 102,46.1 207,101.6 259,148.3 5,4.2 -9,11.7 -11,10.3 -92,-76.2 -166,-102.2 -275,-149.9 -90,-39.5 -257,-86.7 -329,-104 -7,-1.7 -5,-26.13 5,-22.4 106,38.2 265,78.8 351,117.7 z" />
	  <path d="m 2013,86.28 c 4,-6.75 16,-6.92 21,-0.5 4,5.76 -8,12.35 -5,26.22 2,7.7 13,13.8 11,21.6 -1,5.7 -3,4.6 -9,6.3 -4,1.1 -5,-8 -16,-14.6 -5,-2.6 0,-10.7 -1,-19 0,-4.5 -4,-16.32 -1,-20.02 z" />
	  <path d="m 2013,83.43 c 1,7 11,11.79 15,10.38 7,-2.6 4,-12.63 8,-18.66 3,-4.33 6,-2.77 9,-11.98 2,-5.41 -11,-12.42 -14,-9.77 -5,4.65 -4,9.81 -7,15.82 -3,4.84 -11,8.6 -11,14.21 z" />
	  <path d="m 2080,50.34 c 0,-9.39 -12,-14.32 -22,-13.81 -11,0.52 -23,6.64 -27,16.78 -2,5.57 5,12.41 11,11.54 6,-1 9,-11.46 15,-14.51 7,-3.37 13,-4.55 23,0 z" />
	  <path d="m 2042,130.5 c -4,5.7 -4,13.8 7,12.2 8,-1.2 13,0 20,1.5 5,1.1 13,-17.7 9,-19.4 -7,-2.8 -12,0.3 -20,3 -5,1.8 -13,-2 -16,2.7 z" />
	  <path d="m 2039,120.3 c -4,5.7 -4,21.2 4,14.5 15,-11.3 17,-12.1 32,-15.1 7,-1.3 14,-19.85 2,-23.05 -7,-1.88 -10,9.15 -20,13.45 -5,2 -15,5.5 -18,10.2 z" />
	  <path d="m 2030,114.9 c -1,6.9 5,15.1 9,14.3 8,-1.5 4,-11.6 19,-25.3 4,-3.5 9,-10.52 16,-15.64 5,-4.36 4,-25.34 -8,-22.94 -7,1.39 -5,13.78 -18,30.79 -4,4.39 -17,13.19 -18,18.79 z" />
	</g>
	<g>
	  <path d="m 1361,396.5 c -6,4.3 -8,10.2 6,8.3 8,-1.1 18,-2.5 21,-6.4 28,-30.5 38,-34.6 55,-45.4 17,-11.2 33,-21.7 55,-30 5,-2 12,-5.4 18,-11 5,-4.3 0,-8.7 3,-13.8 4,-6.3 13,-11.5 12,-16.6 -1,-8.9 -15,-10.9 -24,-10 l -43,15.8 c -2,17.8 -21,38.7 -36,54.3 -22,23.2 -41,34.8 -67,54.8 z" />
	  <path d="m 1483,202.3 c 0,0 -1,0.2 -2,0.6 -5,3 -11,7.1 -19,14.1 -16,13.4 -12,17.1 -22,22.8 -9,5.1 -11,3.3 -19,8.6 -6,4.2 -3,16.2 -10,23.3 -7,6.8 -59,60 -66,66.2 -4,4.3 -8,2.7 -11,6 -4,5 2,15.5 -2,19.1 -8,7.8 -1,49.7 6,34.3 3,-6.7 21,-32.2 51,-52.7 43,-29.4 97,-56.2 107,-57.4 14,-1.7 20,0.3 25,-7.4 5,-7.6 7,-11.9 -5,-17.3 -11,-5 -13,-15.5 -6,-21 4,-2.7 5,-3.1 7,-5.5 2,-2.9 -1,-10.9 -11,-19 -8,-6.5 -17,-14.7 -23,-14.7 z m 1,37.7 c 3,0 7,1.6 8,6.1 2,6.3 -5,8.5 -1,15.4 5,8.4 -1,14.9 -9,13.7 -6,-0.8 -12,-1.5 -14,-12.6 -2,-6.1 0,-11.6 3,-16.2 2,-3.4 8,-6.3 13,-6.4 z m -40,11.3 c 2,0 3,0 4,0.2 6,0.9 6,9 6,12.9 2,6.9 3,13.6 0,20 -2,5.2 -6,8.3 -12,8.5 -6,0.2 -9,0.1 -15,-9.4 -3,-5.6 -7,-11 -5,-18 2,-6 2,-9.8 7,-12.2 3,-1.2 10,-2 15,-2 z m -96,96.1 c 5,3.6 4,9.2 3,13.7 -1,4.7 -6,11.3 -11,11.6 -1,-4.7 -1,-9.6 0,-13.8 1,-4.5 2,-7.8 8,-11.5 z" />
	  <path d="m 1481,211.9 c 34,-26.4 73,-64.7 171,-105.3 -52,38.7 -113,85.4 -145,123.9 -10,3.9 -25,-9.7 -26,-18.6 z" />
	</g>
	<g>
	  <path d="m 2057,1281 c 3,-1 10,1 13,2 5,1 13,-6 17,0 3,2 3,10 -1,13 -5,3 -8,-2 -16,-2 -4,1 -11,5 -15,1 -4,-3 -3,-11 2,-14 z" />
	  <path d="m 2089,1283 c 4,-2 10,0 12,0 7,0 14,-9 19,-5 3,4 4,11 0,14 -4,5 -8,1 -15,2 -5,1 -12,6 -16,3 -4,-2 -4,-11 0,-14 z" />
	  <path d="m 2123,1276 c 2,-1 10,-1 14,-3 8,-1 9,-9 14,-8 5,2 7,9 5,14 -2,5 -2,1 -11,5 -6,2 -16,8 -20,6 -5,-2 -6,-9 -2,-14 z" />
	  <path d="m 2028,1305 c 2,5 8,-3 14,-6 7,-3 12,-1 12,-3 4,-6 5,-16 0,-15 -10,-3 -27,12 -26,24 z" />
	  <path d="m 2223,1163 c 7,0 10,-8 10,-15 0,-7 -4,-15 -11,-18 -4,-1 -8,4 -8,6 1,6 8,8 10,11 2,4 2,10 -1,16 z" />
	  <path d="m 2096,696.2 c -3,-1.8 -4,-5.1 -3,-8.7 7,-23.8 24,-40.7 38,-42.9 34,-5.4 65,25.4 90,49.8 18,17.8 44,40.3 45,66.6 0,9.6 -6,21.7 -10,29.6 -2,2.6 -6,2.9 -7,0.1 -6,-13.5 -14,-22.5 -24,-28.1 -9,-5.6 -20,-8.7 -29,-2.7 -7,4.8 -8,13.5 -8,22.2 1,8.9 17,24.9 14,33.3 -8,23.8 -2,48.6 -9,70.5 -2,5 -7,3.4 -7,-2.9 0,-23.1 -2,-39.8 -6,-59.1 -3,-13.6 -8,-32.9 -19,-40.3 -14,-8.6 -37,-12.2 -49,-1.5 -19,16.8 -39,39.3 -56,58.3 -3,3.8 -6,6.8 -5,11.7 1,5.8 7,12.6 13,21.2 1,2.2 3,6.7 -6,4.4 -11,-2.7 -25,-11.5 -35,-18.1 -11,-7.2 -24,-10.7 -27,-23.6 -1,-5.3 2,-10.5 6,-12.7 6,-2.5 14,1.5 20,1.2 8,-0.4 15,-2.1 21,-6.3 12,-7.2 22,-19.5 30,-30.8 21,-29.7 14,-32.3 21,-38.8 9,-7.9 15,1.6 23,-4.2 8,-6 10,-14.7 10,-24.6 0,-8.6 -6,-17.3 -14,-21.7 -4,-2.7 -12,0.6 -17,-1.9 z" />
	  <path d="m 2070,895.3 c 8,-38.9 25,-74 46,-108.2 13,-21.8 28,-44.5 45,-59.6 -3,-6.8 3,-13 8,-15.6 5,-2.9 15,-0.8 16,4.8 7,2.1 16,-1.7 21,2.8 5,3.9 7,8.8 5,14.4 -4,10.8 -19,16.7 -28,23.8 -23,19 -37,44.1 -52,68.1 -9,15.2 -19,30 -22,47.5 -2,11.4 -2,18.1 1,27 4,10.7 -2,16.9 -7,20.2 -7,4.1 -20,5.4 -24,-0.9 -6,-9.7 -13,-10.1 -9,-24.3 z" />
	  <path d="m 2060,914.1 c 3,-4 7,-6.9 12,-5.5 8,2.4 12,14.9 21,15.4 6,0.4 11,-5.4 16,-8.6 5,-3.3 9,5.2 10,10.1 11,39.9 25,81.5 46,119.5 13,25 26,42 50,71 3,4 5,9 -2,12 -6,3 -11,-2 -21,-2 -7,1 -21,10 -25,-8 -8,-33 -19,-58 -34,-82 -18,-30 -37,-60.5 -62,-73.9 -13,-7.4 -20,-35.8 -11,-48 z" />
	  <path d="m 2221,1137 c -9,26 -9,24 -18,66 -2,12 -6,30 -4,56 0,8 2,22 -3,26 -3,4 -7,-5 -13,-5 -6,-1 -9,8 -19,5 -7,-2 -5,-7 -8,-11 -5,-5 -15,-1 -10,-11 13,-30 14,-30 21,-57 6,-24 5,-48 8,-74 1,-8 9,-3 21,-5 16,-4 32,-6 25,10 z" />
	  <path d="m 2056,1308 c 2,-3 10,-2 13,-2 7,-1 13,-11 19,-8 4,3 7,11 4,15 -5,6 -10,1 -17,4 -5,2 -12,9 -16,7 -6,-3 -8,-12 -3,-16 z" />
	  <path d="m 2095,1296 c 3,-1 11,1 14,1 7,1 14,-8 19,-4 4,4 5,12 0,15 -4,6 -9,0 -17,1 -5,1 -13,7 -16,4 -5,-4 -5,-13 0,-17 z" />
	  <path d="m 2134,1289 c 2,-2 10,-2 12,-3 7,-1 12,-12 18,-10 5,3 8,10 4,15 -2,6 -7,3 -15,6 -5,1 -11,10 -15,8 -5,-2 -9,-11 -4,-16 z" />
	  <path d="m 2035,1340 c 1,4 6,-5 11,-9 6,-5 10,-5 11,-8 2,-5 1,-15 -4,-14 -10,1 -23,20 -18,31 z" />
	  <path d="m 2171,1296 c 3,-11 -1,-9 4,-13 5,-3 15,-2 15,4 0,6 0,11 -3,14 -5,3 -18,2 -16,-5 z" />
	  <path d="m 2171,1312 c 3,-11 -1,-9 4,-13 5,-3 15,-2 15,4 0,6 0,11 -3,14 -5,3 -18,2 -16,-5 z" />
	  <path d="m 2170,1329 c 3,-11 -1,-9 4,-13 5,-3 15,-2 15,4 0,6 0,11 -3,14 -5,3 -18,2 -16,-5 z" />
	  <path d="m 2180,1356 c -2,6 -5,-4 -6,-11 -1,-5 -2,-8 -1,-12 1,-6 12,-6 12,1 1,8 -1,14 -5,22 z" />
	</g>
</g>
<use xlink:href="#sword" transform="translate(0,-20)rotate(40,300,400)"/>
<use xlink:href="#sword" transform="translate(0,-20)rotate(-40,300,400)"/>
<g id="sword" style="fill:#dddddd;stroke:#000000;stroke-width:2;" transform="translate(300,420)scale(0.75)translate(-300,-300)">
	<path style="fill:#aaaaaa;" d="m 291.10457,519.24769 c 5.8891,23.9888 13.34312,23.9888 18.94394,0 5.60082,-23.98878 7.33048,-53.51661 1.15311,-77.5054 -6.17737,-23.98878 -16.22589,-23.98878 -22.40326,0 -6.17737,23.98879 -3.58288,53.51662 2.30621,77.5054 z"/>
	<path d="m 281.17467,435.18441 37.65065,0 -5.45447,-350.77532 -13.37086,-30.322653 -13.37085,30.322653 -5.45447,350.77532 z"/>
	<path style="fill:#777777;stroke:none;" d="m 298.17384,432.01882 1.35957,-333.660396 4.09491,333.660396 -5.45448,0 z"/>
	<path style="fill:#000000;stroke:none;" d="m 293.68271,531.05933 c -0.22449,-0.54399 -0.4441,-1.0806 -0.64862,-1.62156 l 18.07137,-10.52212 c -0.18025,0.77121 -0.36947,1.53771 -0.55853,2.30622 l -16.86422,9.83746 z m -3.17105,-9.69332 c -0.15235,-0.57518 -0.30303,-1.15294 -0.45043,-1.72967 l 23.63873,-13.78326 c -0.12267,0.74645 -0.24708,1.48939 -0.37836,2.23415 l -22.80994,13.27878 z m -2.3963,-10.12574 c -0.12511,-0.59424 -0.25869,-1.18823 -0.37837,-1.78372 l 27.60255,-16.07146 c -0.069,0.71028 -0.13911,1.4166 -0.21621,2.12605 l -27.00797,15.72913 z m -1.90985,-10.43204 c -0.0936,-0.60616 -0.18245,-1.21268 -0.27026,-1.81975 l 30.17904,-17.58492 c -0.0205,0.67787 -0.0438,1.35829 -0.0721,2.03596 l -29.8367,17.36871 z m -1.33327,-10.75635 c -0.06,-0.62565 -0.12667,-1.24758 -0.18018,-1.8738 l 31.38619,-18.28758 c 0.0244,0.65588 0.0374,1.30766 0.054,1.96388 l -31.26007,18.1975 z m -0.73872,-11.09867 c -0.0219,-0.65268 -0.0394,-1.31103 -0.054,-1.96389 l 31.20602,-18.17949 c 0.0667,0.62843 0.12094,1.26263 0.18017,1.89182 l -31.33214,18.25156 z m 0,-11.53109 c 0.0231,-0.67902 0.0407,-1.35725 0.0721,-2.03596 l 29.54843,-17.20655 c 0.0463,0.20855 0.0975,0.42321 0.14414,0.63061 0.0679,0.39177 0.13345,0.77888 0.19819,1.17112 l -29.96283,17.44078 z m 0.84682,-12.01756 c 0.10815,-0.72245 0.21343,-1.45158 0.32431,-2.1801 l 26.05306,-15.18861 c 0.16354,0.5753 0.3186,1.14982 0.46845,1.72966 l -26.84582,15.63905 z"/>
	<path d="m 253.33688,429.67151 93.32623,0 0,12.37312 -93.32623,0 z"/>
	<path d="m 316.59862,528.07763 a 16.59863,16.59863 0 1 0 -33.19726,0 16.59863,16.59863 0 0 0 33.19726,0 z"/>
	<path style="fill:#aaaaaa;" d="m 307.00562,528.07761 a 7.0056539,7.0056539 0 1 0 -14.0113,0 7.0056539,7.0056539 0 1 0 14.0113,0 z"/>
</g>
<use id="shine" fill="url(#rg)" stroke="#000" stroke-width="3" xlink:href="#shield" />
</svg>
