<?xml version="1.0" encoding="UTF-8"?>
<svg xmlns="http://www.w3.org/2000/svg" xmlns:xlink="http://www.w3.org/1999/xlink" width="600" height="660">
<defs>
  <radialGradient id="rg" gradientUnits="userSpaceOnUse" cx="220" cy="220" r="405">
    <stop style="stop-color:#ffffff;stop-opacity:.3" offset="0"/>
    <stop style="stop-color:#ffffff;stop-opacity:.2" offset=".2"/>
    <stop style="stop-color:#666666;stop-opacity:.1" offset=".6"/>
    <stop style="stop-color:#000000;stop-opacity:.13" offset="1"/>
  </radialGradient>
  <path id="shield" d="m2,2v257c0,286 298,398 298,398c0,0 298-112 298-398V2z"/>
</defs>
<use id="bg" xlink:href="#shield" style="fill:#ffdd00;"/>
<path id="bordure" style="fill:#008000;" d="m 2,2 v 257 c 0,286 298,398 298,398 0,0 298,-112 298,-398 v -257 z m 98,98 h 400 v 159 c 0,165.41 -134.89,256.02 -200,290.15 -65.11,-34.13 -200,-124.74 -200,-290.15 z" />
<g id="sprig" style="stroke-width:1;stroke-linecap:round;stroke-linejoin:round;">
    <path style="fill:#552200;" d="m 274.39,367.83 c 3.25,-0.98 8.95,1.77 12.15,4.52 4.77,4.48 9.41,10.87 10.63,17.02 -5.15,8.41 -10.73,16.95 -15.33,25.68 -2.54,4.81 -4.63,9.68 -6.76,14.6 -0.8,1.88 -1.61,3.77 -2.46,5.68 -0.86,3.33 -0.4,6.78 -0.54,10.19 -1.06,34.32 14.66,50.39 39.23,71.93 l 4.56,-2.44 c -17.12,-11.02 -37.9,-31.62 -40.27,-58.56 -0.36,-6.59 -1.76,-12.78 -0.53,-18.94 0.65,-3.29 2.73,-6.57 4.02,-9.88 6.45,-15.27 9.26,-17.19 21.08,-36.99 2.64,-4.78 5.21,-10.39 9.48,-13.42 1.2,-0.85 2.53,-0.61 4.04,-1.17 l -0.82,-3.04 c -4.19,1.13 -7.37,3.74 -9.82,6.95 -1.22,1.9 -2.41,3.82 -3.61,5.73 -1.78,-5.32 -5.3,-10.29 -9.16,-14.19 -3.6,-3.86 -9.26,-6.46 -14.53,-6.76 m -3.13,70.59 c 3.17,-14.01 0.73,-3.51 0,0 z"/>
    <path style="fill:#008000;stroke:#005000;" d="m 275.03,367.79 c -2.55,5.25 -7.29,10.69 -12.71,15.11 -15.17,12.37 -44.34,6.2 -44.15,-3.23 0.25,-12.5 12.06,-15.17 21.78,-13.3 9.05,1.75 15.09,5.33 22.88,5.59 5.28,0.18 11.7,-3.1 10.38,-9.48 -1.48,-2.97 -4.96,-4.41 -7.85,-4.91 -7.23,-1.24 -13.36,-4.33 -17.31,-5.5 -8.23,-2.43 -11.53,-3.61 -15.41,-11.14 -7.2,-13.93 16.4,-14.38 21.52,-8.16 13.21,6.91 17.08,17.73 20.87,29.88 0.68,0.71 0.88,1.71 1.3,2.57"/>
    <path style="fill:#008000;stroke:#005000;" d="m 309.1,374.69 c 2.17,0.54 1.07,-5.53 1.3,-7.04 1.67,-12.36 3.75,-14.14 10.29,-24.93 6.77,-15.49 29.58,-13.15 22.32,6.61 -4.81,8.55 -14.86,11.97 -22.35,16.21 -2.43,1.38 -3.86,2.37 -6.11,3.96 -1.64,2.4 -1.67,6.62 2.59,7.26 2.66,1.27 5.56,1.29 8.48,1.04 8,-0.68 16.4,-2.86 24.44,-2.63 5.57,0.17 12.18,6.96 11.84,12.87 -0.35,6.38 -8.72,7.74 -13.69,8.19 -11.59,1.07 -13.14,-1.01 -22.69,-6.26 -9.04,-4.98 -7.01,-10.31 -14.01,-13.19"/>
    <path style="fill:#008000;stroke:#005000;" d="m 274.72,442.17 c 14.43,0.38 26.27,-12.48 32.23,-24.75 6.46,-17.27 21.26,-27.86 26.86,-1.95 1.39,26.8 -27.41,31.48 -48.3,29.67 -3.74,-0.3 -7.28,0.71 -11.03,1.17 -1.02,0.13 -2.05,1.4 -3.1,1.18 -15.29,-0.41 -29.86,-2.11 -43.36,-9.83 -8.98,-5.84 -17.41,-11.72 -15.31,-26.26 2.36,-16.37 24.51,-6.36 30.52,2.01 7.83,10.85 13.92,25.73 28.38,28.5"/>
    <path style="fill:#ee0000;stroke:#990000;" d="m 274.38,363.82 c -0.82,0.53 -1.65,0.75 -2.47,-1.26 -1.2,-2.46 -4.17,-3.89 -7.25,-3.28 -3.61,0.71 -6.02,3.93 -5.37,7.2 0.64,3.26 3.77,4.21 7.38,3.5 2.57,-0.51 3.55,-1.33 4.23,-3.49 1.92,-0.76 3.03,-0.31 4.11,0.19"/>
    <path style="fill:#ee0000;stroke:#990000;" d="m 314.21,375.75 c 1.43,-2.22 2.85,-1.7 4.29,-1.93 1.94,1.93 5.23,2.28 7.93,0.68 3.17,-1.87 4.36,-5.71 2.67,-8.57 -1.69,-2.87 -5.64,-3.67 -8.81,-1.8 -2.25,1.33 -3.49,3.66 -3.41,5.93 -0.52,2.22 -2.4,3.08 -5.06,3.16"/>
    <path style="fill:#ee0000;stroke:#990000;" d="m 274.92,442.4 c 1.23,-1.75 1.61,-5.19 3.99,-4.65 3.41,0 6.62,-2.57 7.61,-6.35 1.16,-4.42 -1.15,-8.86 -5.15,-9.91 -4.01,-1.04 -8.21,1.71 -9.36,6.13 -0.83,3.14 0.13,6.3 2.18,8.23 0.14,1.6 1,2.7 -1.27,5.91"/>
</g>
<use xlink:href="#sprig" transform="translate(-90,-200)" />
<use xlink:href="#sprig" transform="translate(90,-200)" />
<use id="shine" xlink:href="#shield" style="fill:url(#rg);stroke:#000000;stroke-width:3;"/>
</svg>
