<?xml version="1.0" encoding="UTF-8" standalone="no"?>
<svg
   xmlns="http://www.w3.org/2000/svg"
   xmlns:xlink="http://www.w3.org/1999/xlink"
   width="600"
   height="660"
   version="1.1"
   id="svg145"
   inkscape:version="0.92.3 (3ce5693, 2018-03-11)">
  <defs
     id="defs120">
    <radialGradient
       id="rg"
       gradientUnits="userSpaceOnUse"
       cx="220"
       cy="220"
       r="405">
      <stop
         style="stop-color:#fff;stop-opacity:.3"
         offset="0"
         id="stop3" />
      <stop
         style="stop-color:#fff;stop-opacity:.2"
         offset="0.2"
         id="stop5" />
      <stop
         style="stop-color:#666;stop-opacity:.1"
         offset="0.6"
         id="stop7" />
      <stop
         style="stop-color:#000;stop-opacity:.13"
         offset="1"
         id="stop9" />
    </radialGradient>
    <path
       id="shield"
       d="m 2 2 v 257 c 0 286 298 398 298 398 c 0 0 298 -112 298 -398 V 2 Z" />
  </defs>
  <use
     height="100%"
     width="100%"
     y="0"
     x="0"
     xlink:href="#shield"
     id="use122"
     style="fill:#ffffff;stroke-width:1;stroke-miterlimit:4;stroke-dasharray:none;stroke:#000000" />
  <g
     id="g1703">
    <path
       id="path6001"
       d="m 267.4,182.8 c -1.1,-1.8 -3.5,-5.1 -6.3,-5.2 l -5.5,3.1 10.7,15.5 7.3,-5.3 c -4,-2.7 -4.9,-5.7 -6.2,-8.1 z"
       style="display:inline;fill:#1a1a1a;fill-opacity:1;stroke:#ffffff;stroke-width:1;" />
    <path
       style="display:inline;fill:#1a1a1a;stroke:#ffffff;stroke-width:1;"
       id="path6005"
       d="m 308.9,217.9 c 8.3,1.2 25.8,11.4 31.1,15.9 10.3,8.5 2.5,20.1 -8.1,18.8 -15.1,-1.8 -22.4,-12.6 -32.6,-20.4 -4.5,-3.4 4.1,-15.1 9.6,-14.3 z" />
    <path
       style="display:inline;fill:#1a1a1a;stroke:#ffffff;stroke-width:1;"
       id="path6003"
       d="m 264.8,198.4 c 4.6,5.2 22.2,25.4 29.8,29.1 3,1.6 10.2,-10.8 7.8,-14.4 -3.5,-5.5 -25.4,-21.1 -29.5,-23.3 -1.1,2.6 -5.3,7.2 -8.1,8.6 z" />
    <path
       style="fill:none;stroke:#ffffff;stroke-width:1;"
       d="m 277.4,193 c -1.8,3.6 -4.9,7 -8.7,9.3"
       id="path6009" />
    <path
       id="path6007"
       d="m 285.4,221.5 c 5.5,1.1 10.6,-0.5 14,-3 -1.2,-4.2 4,-7.7 7.7,-4.9 3.7,2.6 2.1,8.6 -2.4,8.6 -1.6,3.4 -2.4,12.2 -0.5,15.5 -8.9,1.7 -19.2,-6.5 -18.8,-16.2 z"
       style="fill:#333333;stroke:#ffffff;stroke-width:1;" />
    <path
       style="display:inline;fill:#ffcc00;fill-opacity:1;stroke:#ffffff;stroke-width:1;stroke-linecap:round;stroke-linejoin:round;stroke-miterlimit:4;stroke-opacity:1;stroke-dasharray:none"
       d="m 247.8,165.2 102.4,130.6 -5.9,4.6 -102.4,-130.6 z"
       id="path6011" />
    <path
       style="display:inline;fill:#ffcc00;fill-opacity:1;stroke:#ffffff;stroke-width:1;stroke-linecap:round;stroke-linejoin:round;stroke-miterlimit:4;stroke-opacity:1;stroke-dasharray:none"
       d="m 132.8,27.72 c -1,-1.44 1.6,-3.48 2.8,-2.04 l 112.2,139.52 -5.9,4.6 z"
       id="path6013" />
    <path
       id="path6015"
       d="m 262.1,188.6 c 1.2,-1.5 -0.3,-3 -1.3,-2.6 1,-1 0,-3.1 -2.6,-1.9 1.5,-1.2 0.4,-3.4 -1.5,-2.7 -2.1,0.6 -4.7,1.6 -5.4,2.8 -0.9,1.1 -0.4,2.8 1.3,2.8 -0.8,1.5 0.1,2.7 2.2,2.5 -0.6,1.3 0.1,2.4 3.1,1.7 -0.7,1 0.1,2 1.8,1.5 0.9,-0.2 2.6,-0.8 3.7,-1.7 0.8,-0.7 -0.1,-2.8 -1.4,-2.4"
       style="color:#000000;display:inline;overflow:visible;visibility:visible;fill:#1a1a1a;stroke:#ffffff;stroke-width:1;stroke-linecap:round;stroke-linejoin:round;stroke-miterlimit:4;stroke-dasharray:none;stroke-dashoffset:0;stroke-opacity:1;marker:none;enable-background:accumulate" />
    <path
       style="color:#000000;display:inline;overflow:visible;visibility:visible;fill:#1a1a1a;stroke:#ffffff;stroke-width:1;stroke-linecap:round;stroke-linejoin:round;stroke-miterlimit:4;stroke-dasharray:none;stroke-dashoffset:0;stroke-opacity:1;marker:none;enable-background:accumulate"
       d="m 261.1,177.6 c -3.7,-0.5 -6,1.1 -8.5,2.8 -1.8,1 -1.4,3.8 0.6,3 0.7,-0.4 2.6,-1.4 3.8,-1.6 1.6,-0.5 3.3,-0.2 4.6,-0.2"
       id="path6017" />
    <path
       style="display:inline;fill:none;stroke:#ffffff;stroke-width:1;stroke-linecap:round;stroke-linejoin:round;stroke-miterlimit:4;stroke-dasharray:none;stroke-dashoffset:0;stroke-opacity:1"
       d="m 257.9,191.2 c 2,-1 2.6,-0.9 4.2,-2.6"
       id="path6019" />
    <path
       style="display:inline;fill:none;stroke:#ffffff;stroke-width:1;stroke-linecap:round;stroke-linejoin:round;stroke-miterlimit:4;stroke-dasharray:none;stroke-dashoffset:0;stroke-opacity:1"
       d="m 254.8,189.5 c 2.5,-1.1 3.4,-1.1 6,-3.5"
       id="path6021" />
    <path
       style="display:inline;fill:none;stroke:#ffffff;stroke-width:1;stroke-linecap:round;stroke-linejoin:round;stroke-miterlimit:4;stroke-dasharray:none;stroke-dashoffset:0;stroke-opacity:1"
       d="m 252.6,187 c 2,-1 3.8,-1.5 5.6,-2.9"
       id="path6023" />
    <path
       style="display:inline;fill:#ffcc00;fill-opacity:1;stroke:#ffffff;stroke-width:1;stroke-linecap:round;stroke-linejoin:round;stroke-miterlimit:4;stroke-opacity:1;stroke-dasharray:none"
       d="m 244.6,190.2 22.4,-17.5 -19.2,-7.5 -5.9,4.6 z"
       id="path6025" />
    <path
       style="display:inline;fill:#1a1a1a;stroke:#ffffff;stroke-width:1;"
       d="m 243.9,339.3 c -23.8,-1.5 -45.4,15.1 -66.3,19.7 -9.7,3 -15.8,1.5 -13.8,16.6 1.1,9.1 1.8,22.7 0,28.8 -1.2,4.5 -2.9,7.6 -2.1,10.6 0.4,1.5 2.4,4.5 3.9,4.5 2.6,3.1 3.7,7.6 4.3,9.1 8.9,4.6 11.6,-1.5 15.6,-7.5 -2.9,-1.6 -7.3,-4.6 -8.2,-9.1 -0.5,-3.1 -1.2,-6.1 -1.5,-7.6 -0.3,-1.5 0.9,-13.6 2.1,-21.2 0.6,-4.5 3,-6 8.6,-7.6 16.5,0 40.9,4.6 56.3,4.6 4.3,0 34.3,4.5 39.6,-25.8"
       id="path6029" />
    <path
       style="display:inline;fill:#666666;stroke:#ffffff;stroke-width:1;"
       d="m 185.5,421.1 c 2.8,3 5.1,7.5 1.9,10.6 l -10.6,9 c -2.4,1.6 -3.9,1.6 -5,0 -1,-3 -1.8,-6 -1.9,-12.1 7.8,-1.5 9.5,-1.5 15.6,-7.5 z"
       id="path6031" />
    <path
       id="path6035"
       d="m 230.7,198.5 c -3.1,-9.1 -16.8,-18.2 -25.7,-15.1 4.2,7.5 6.5,15.1 15.6,22.7"
       style="display:inline;fill:#1a1a1a;stroke:#ffffff;stroke-width:1;" />
    <path
       style="display:inline;fill:none;stroke:#ffffff;stroke-width:1;"
       d="m 385.8,421.1 c -7.5,-7.6 -28.7,1.5 -23.2,-12.2 0.9,-1.5 1.1,-4.5 0.9,-6"
       id="path6037" />
    <path
       style="display:inline;fill:#1a1a1a;stroke:#ffffff;stroke-width:1;"
       d="m 282.7,204.6 c -11.8,-13.7 -27.7,-18.2 -42.1,-16.7 -11.8,1.5 -26.7,10.6 -32.6,16.7 -2.3,3 -2.9,4.5 -2.7,6 0.6,3 -13.6,16.7 -23.6,25.7 -3.4,4.6 -1.2,18.2 5.1,18.2 7.3,1.5 14.1,-13.6 16.7,-12.1 1,6.1 -6.8,12.1 -9.1,15.1 -0.8,1.6 0.6,4.6 3.9,3.1 2.5,0 5,-1.5 6.4,-4.6 7.9,-4.5 15.1,-10.6 20.1,-15.1 8.1,1.5 15.2,1.5 21.4,-3 -2.1,10.6 -2.4,28.7 -18.6,69.6 -10.6,25.7 -3.8,50 18.3,68.1 30.9,24.3 84.1,37.9 123.4,33.3 11,0 22.8,6.1 29,9.1 l 18.2,10.6 15.3,-6 c 9.8,-6.1 16.8,-13.7 21.3,-22.7 14.7,-27.3 1.2,-57.6 -30.8,-66.7 -34,-9 -105,-15.1 -118.3,-45.4 -5,-12.1 9.7,-49.9 -21.3,-83.2 z"
       id="path6039" />
    <path
       style="display:inline;fill:#1a1a1a;stroke:#ffffff;stroke-width:1;"
       d="m 389.2,387.7 c -25.5,54.6 16.7,72.7 45.3,77.3 4.3,0 6.1,3 4.3,6 -5.2,10.6 -12.8,21.2 -15.5,22.7 -1.4,0 -4.1,3.1 -5.1,4.6 -0.8,1.5 -2.3,3 -2.3,6 -0.3,4.6 -2.4,7.6 -5,9.1 -5.9,9.1 10.4,16.7 16.8,4.6 0.3,-4.6 0.2,-7.6 4.4,-9.1 0.9,0 2.6,-1.5 3.2,-1.5 5.7,-15.2 19.7,-30.3 27.8,-39.4 3.4,-4.6 4.9,-9.1 3.8,-12.1 -1,-4.6 -6,-7.6 -9.7,-9.1 -13.6,-3 -29.6,-13.6 -22.4,-19.7 7,-6 14.2,-19.7 18.3,-27.2"
       id="path6041" />
    <path
       style="display:inline;fill:#1a1a1a;stroke:#ffffff;stroke-width:1;"
       d="m 370.8,380.2 c -29.4,45.4 0.3,66.6 24.8,81.7 4.2,3.1 4.5,6.1 2.3,9.1 -6.4,9.1 -18.2,21.2 -21.2,22.7 -2.1,0 -5,3.1 -6.5,4.6 -1.2,1.5 -2.5,4.5 -2.6,6 -0.3,4.6 -2.4,7.6 -5,9.1 -5.8,9.1 10.4,16.7 16.8,4.6 0.3,-4.6 0.2,-7.6 4.4,-9.1 0.9,0 2.1,0 2.9,-1.5 7.8,-13.7 24,-25.8 33.6,-33.4 3.6,-3 5.7,-6 5.7,-10.6 -0.1,-3 -2.5,-7.5 -5,-9 -7.2,-7.6 -22.2,-24.3 -12.1,-27.3 22.6,-4.5 35.2,-10.6 44.2,-27.2"
       id="path6043" />
    <path
       id="path6045"
       d="m 298.9,402.9 c 9,-13.6 20.9,-33.3 23.9,-46.9 l 6.5,3 c -3.5,13.6 -14.2,31.8 -23.3,45.4 z"
       style="display:inline;fill:#ffcc00;stroke:#ffff00;stroke-width:1;fill-opacity:1" />
    <path
       style="display:inline;fill:#ffcc00;stroke:#ffff00;stroke-width:1;fill-opacity:1"
       d="m 202.6,240.9 c 34.2,-30.3 48.1,-30.3 37.7,-53 h 4.7 c 10.7,22.7 -2.9,27.3 -37.7,56 z"
       id="path6047" />
    <path
       d="m 272.5,233.3 c 3.8,0 4.3,-6 7.9,-4.5 0.4,3 -2.7,7.5 -3.6,9.1 2.1,1.5 4.8,-1.6 6,-3.1 1.5,3.1 -2.4,9.1 -4.2,10.6 2.8,4.6 6,31.8 5.4,40.9 8.4,-4.5 17,13.6 20,1.5 7.6,-28.7 0.5,-56 -9.7,-72.6 -0.6,-1.6 2.9,-3.1 1.4,-4.6 -8.5,-9.1 -14.4,-13.6 -23.3,-18.2 -0.9,0 3.3,-1.5 0.7,-3 -2.7,-1.5 -19.8,-4.5 -23.3,-4.5 -1.1,0 1.2,-3.1 -0.3,-4.6 -5.3,-1.5 -23,6.1 -26.2,12.1 5.6,-1.5 13.5,0 17.4,4.6 10.8,0 28.9,27.2 31.8,36.3 z"
       style="display:inline;fill:#666666;stroke:#ffffff;stroke-width:1;"
       id="path6049" />
    <path
       style="display:inline;fill:#1a1a1a;stroke:#ffffff;stroke-width:1;"
       d="m 185.3,242.4 c 0.8,0 1.2,0 0.9,1.5 -0.3,1.5 -1.2,3 -1.8,3 -0.8,0 -0.1,-1.5 0,-3 0.2,0 0.2,-1.5 0.9,-1.5 z"
       id="path6051" />
    <path
       style="display:inline;fill:none;stroke:#ffffff;stroke-width:1;"
       d="m 184.4,239.4 c 3.5,-3.1 7.6,4.5 1.4,9.1"
       id="path6053" />
    <path
       style="display:inline;fill:#ffffff;stroke:#ffffff;stroke-width:1;"
       d="m 209.8,218.2 c 0.3,-4.6 5.6,-4.6 9.3,-4.6 -2.1,4.6 -5.3,6.1 -9.3,4.6 z"
       id="path6055" />
    <path
       style="display:inline;fill:#1a1a1a;stroke:#000000;stroke-width:1;"
       d="m 212.6,216.7 c -0.5,0 0.1,-1.5 0.7,-1.5 0.6,0 1.4,0 1.7,0 0.3,1.5 0,1.5 -0.6,3 -0.5,0 -1.4,0 -1.8,-1.5 z"
       id="path6057" />
    <path
       style="display:inline;fill:none;stroke:#ffffff;stroke-width:1;"
       d="m 206.7,215.2 c 1,-4.6 7.7,-4.6 15.4,-4.6"
       id="path6059" />
    <path
       style="display:inline;fill:#1a1a1a;stroke:#ffffff;stroke-width:1;"
       d="m 240.7,197 c -1.6,-10.6 -13.5,-22.7 -22.8,-19.7 2.8,7.6 1.6,16.7 9.2,25.7"
       id="path6061" />
    <path
       style="display:inline;fill:#ffcc00;stroke:#ffff00;stroke-width:1;fill-opacity:1"
       d="m 186.7,231.8 c 9.8,4.5 17.7,13.6 22.8,22.7 l 4.3,-3 c -4.1,-9.1 -11.5,-18.2 -23.3,-24.2 z"
       id="path6063" />
    <path
       id="path6065"
       d="m 207.4,240.9 c 19.4,21.2 63.3,39.4 93.9,39.4 l -0.8,4.5 c -30.3,0 -73.7,-15.1 -96.7,-39.4 z"
       style="display:inline;fill:#ffcc00;stroke:#ffff00;stroke-width:1;fill-opacity:1" />
    <path
       id="path6067"
       d="m 246.2,237.9 c 5.7,-4.6 8.3,-12.1 6.8,-19.7"
       style="display:inline;fill:none;stroke:#ffffff;stroke-width:1;" />
    <path
       style="display:inline;fill:#ffcc00;stroke:#ffff00;stroke-width:1;fill-opacity:1"
       d="m 212.6,200 c 24.2,6.1 37.1,15.2 41,25.8 -0.2,3 -1.2,6 -2.1,6 -5,-15.1 -24.9,-22.7 -43.2,-28.8 1.1,-1.5 3.1,-3 4.3,-3 z"
       id="path6069" />
    <path
       id="path6071"
       d="m 236,197 c 2.3,-3 -5.9,-13.6 -12.8,-16.7 1,4.6 1.3,10.6 4.5,15.2 2.9,0 -1.8,-6.1 0.6,-7.6 4.6,3 5.6,7.6 7.7,9.1 z"
       style="display:inline;fill:#1a1a1a;stroke:#ffffff;stroke-width:1;" />
    <path
       style="display:inline;fill:#ffcc00;stroke:#ffff00;stroke-width:1;fill-opacity:1"
       d="m 291.1,333.2 c -22.1,-6 -44.8,-13.6 -64.5,-27.2 -1.3,1.5 -3,6 -3,7.6 21.1,15.1 43.3,21.2 65.6,27.2 z"
       id="path6073" />
    <path
       style="display:inline;fill:#ffcc00;stroke:#ffff00;stroke-width:1;fill-opacity:1"
       d="m 403.5,381.7 c 4.1,-16.7 12.4,-37.9 20,-48.5 -2.2,-1.5 -5.6,-1.5 -7.8,-3 -7.5,12.1 -15.4,31.8 -19.3,48.5 z"
       id="path6075" />
    <path
       id="path6077"
       d="m 456.3,395.3 c -22.1,-6 -80.4,-24.2 -100.1,-37.8 l -3.7,6 c 21,13.7 78.7,33.3 100.9,39.4 z"
       style="display:inline;fill:#ffcc00;stroke:#ffff00;stroke-width:1;fill-opacity:1" />
    <path
       style="fill:#ffcc00;stroke:#ffff00;stroke-width:1;fill-opacity:1"
       d="m 293.9,327.2 c -7.5,10.6 -6.2,18.2 1.5,22.7 9.2,6.1 32.7,16.7 46.3,22.7 11.7,4.6 17.3,-4.5 20,-10.6 4.4,-12.1 14.1,-27.2 22.1,-36.3 13.6,-16.7 0.6,-18.2 -9.1,-6.1 l -27.5,-4.5 -22,-12.1 c 6.5,-13.7 -1.7,-19.7 -8.8,-4.6 -6,12.1 -17.4,22.7 -22.5,28.8 z"
       id="path6079" />
    <path
       style="fill:#ffff00;stroke:#ffff00;stroke-width:1;fill-opacity:1"
       d="m 325.2,303 c 11.2,6 34.7,13.6 49.5,16.6 -5.9,7.6 -17.4,25.8 -21.8,37.9 -2.3,6 -6.2,6 -9.7,4.5 -14.5,-4.5 -27.5,-10.6 -38.9,-16.6 -2.6,-1.6 -8.5,-6.1 -2.1,-13.7 6.2,-6 15.1,-15.1 23,-28.7 z"
       id="path6081" />
    <path
       style="fill:#666666;fill-opacity:1;fill-rule:evenodd;stroke:#ffff00;stroke-width:1;stroke-linecap:round;stroke-linejoin:round;stroke-miterlimit:4;stroke-dashoffset:0;stroke-opacity:1;stroke-dasharray:none"
       d="m 243.9,215.2 c -1.1,3 -3.9,4.5 -6.5,3 -2.7,0 -4.1,-3 -3,-6.1 0.9,-3 3.7,-4.5 6.3,-3 2.7,1.5 4.1,4.5 3.2,6.1 z"
       id="path6083" />
    <path
       id="path6085"
       d="m 210,243.9 c -1.1,3 -3.9,3 -6.5,3 -2.7,-1.5 -4.1,-4.5 -3,-7.5 0.9,-1.5 3.7,-3.1 6.5,-3.1 2.5,1.6 3.9,4.6 3,7.6 z"
       style="fill:#666666;fill-opacity:1;fill-rule:evenodd;stroke:#ffff00;stroke-width:1;stroke-linecap:round;stroke-linejoin:round;stroke-miterlimit:4;stroke-dashoffset:0;stroke-opacity:1;stroke-dasharray:none" />
    <path
       id="path6087"
       d="m 427.7,518 c 0.5,4.5 -0.6,9 -4.7,9 h -13.8 c -3.1,0 -4.8,0 -4.1,-3 1,-3 2.6,-6 5.8,-10.6 7.4,4.6 8.9,4.6 16.8,4.6 z"
       style="display:inline;fill:#666666;stroke:#ffffff;stroke-width:1;" />
    <path
       id="path6089"
       d="m 379.4,518 c 0.6,4.5 -0.6,9 -4.5,9 h -14 c -3.1,0 -4.8,0 -4.1,-3 1,-3 2.6,-6 5.8,-10.6 7.4,4.6 9.1,4.6 16.8,4.6 z"
       style="display:inline;fill:#666666;stroke:#ffffff;stroke-width:1;" />
    <path
       id="path6091"
       d="m 449.7,366.6 c 16.3,18.1 4.5,39.3 -13.5,48.4 -19.9,10.6 -34.7,18.2 -31.2,42.4 -2.6,6 -3.8,12.1 -2.9,21.2 23.8,-13.6 26.8,-25.8 50.7,-45.4 22.3,-18.2 17,-65.1 -3.3,-75.7"
       style="display:inline;fill:#4d4d4d;stroke:#ffffff;stroke-width:1;" />
    <path
       id="path6093"
       d="m 405,457.4 c 4.1,-7.6 23.6,-25.7 39.5,-31.8"
       style="display:inline;fill:none;stroke:#ffffff;stroke-width:1;" />
    <path
       id="path6095"
       d="m 247.5,336.3 c -19.5,-13.7 -47,-10.6 -67.3,-16.7 -9.4,-3 -14.3,-7.6 -20.5,6.1 -3.3,7.5 -10.1,19.7 -14.8,24.2 -3,3 -6.5,4.5 -7.6,7.6 -0.6,3 0.2,4.5 0.8,6 1.2,3.1 -0.3,7.6 -1.2,10.6 5.1,9.1 10.6,4.6 17.2,1.5 -1.3,-3 -3.3,-7.5 -1.6,-12.1 0.7,-3 1.6,-6 2.1,-6 1,-3.1 8.2,-12.1 13.1,-18.2 2.9,-3 6.4,-4.5 11.3,-1.5 14,9.1 32.5,25.7 45.8,33.3 3.7,1.5 26.8,21.2 46.8,0"
       style="display:inline;fill:#1a1a1a;stroke:#ffffff;stroke-width:1;" />
    <path
       id="path6033"
       d="m 154.1,375.6 c 1.1,4.6 0.6,9.1 -3.5,9.1 l -13.6,3 c -3.2,0 -4.8,0 -4.4,-3 0.3,-3 1.5,-6 4.3,-10.6 7.7,3.1 9.3,3.1 17.2,1.5 z"
       style="display:inline;fill:#666666;stroke:#ffffff;stroke-width:1;" />
    <path
       id="path6133"
       d="m 329.4,218.3 c -2.5,-0.1 -11.6,0 -9,-4.7 0.2,-0.4 0.4,-0.7 0.2,-1.3 l -0.6,-1 c -0.3,-0.3 0.2,-0.7 0.4,-0.9 -0.5,-0.5 -0.6,-1 -0.1,-1.4 0.1,-0.9 0,-1.5 -0.4,-1.9 -0.6,-0.1 -2,-0.6 -2,-1.4 0,-2.8 3.9,-4.6 4.9,-6.9 -0.5,-4.9 3.1,-8.5 4.7,-9.9 8,-7.2 30,-0.4 24.1,15.5 -1.6,4 -2.9,5.6 -3.4,9.7 -0.4,3.3 2.6,7.4 3.2,10.9 -8.2,3.5 -16.5,4.3 -18.5,3 -1,-1.6 -1.6,-3.6 -2.4,-4.3 -1,-0.9 -0.7,-3.7 -1.1,-5.4 z"
       style="display:inline;fill:#ffb380;stroke:#ffffff;stroke-width:1;" />
    <path
       style="fill:none;stroke:#ffffff;stroke-width:1;"
       d="m 334.7,215.5 c -1.3,1.9 -2.3,2.9 -5.3,2.8"
       id="path6135" />
    <path
       style="fill:#ffcc00;stroke:#ffffff;stroke-width:1;fill-opacity:1"
       d="m 336.5,210.1 c 0,-1.4 -1.6,-8.5 -2.2,-9.7 -1.9,-0.6 -3.1,-1.6 -2.9,-2.4 0.8,-2.4 3.3,-4 0.3,-7.9 -1.2,-0.3 -2.5,-0.4 -4.3,-1.1 -0.8,-0.4 -0.9,-1.3 -1,-2 -0.2,-1 1.3,-2.1 2.5,-2.3 1.8,-0.3 3.1,-1 4.5,-1.5 4.6,-1.4 9.2,-0.4 12.7,1 4.7,2 7.2,5.3 8.3,9.1 1.8,5.8 0.8,10.1 -1.1,14.1 7.9,12.4 -11.2,8.5 -12.7,8.2 -3.3,-0.2 -4.1,-3.2 -4.1,-5.5 z"
       id="path6137" />
    <path
       id="path6139"
       d="m 333.7,208.3 c 1.1,1 2.1,-0.1 2.3,-1.4 1.9,-1.1 2.9,-2.9 2.5,-4.7 -0.7,-3.5 -4.5,-2.3 -4.1,1.3"
       style="display:inline;fill:#ffb380;stroke:#ffffff;stroke-width:1;" />
    <path
       style="fill:none;stroke:#000000;stroke-width:1;"
       d="m 325.1,200.5 c 0,0.4 -0.1,0.7 -0.3,0.6 -0.1,0 -0.2,-0.2 -0.1,-0.6 0,-0.3 0.3,-0.7 0.3,-0.6 0.2,0.1 0.1,0.5 0.1,0.6 z"
       id="path6141" />
    <path
       style="fill:none;stroke:#000000;stroke-width:1;"
       d="m 324.4,199.6 c 0.6,-0.3 1.5,0.3 2.1,0.6"
       id="path6143" />
    <path
       style="fill:none;stroke:#000000;stroke-width:1;"
       d="m 320.4,210.4 c 0.7,0.1 1.4,0 2.2,0.4"
       id="path6145" />
    <path
       style="fill:none;stroke:#000000;stroke-width:1;"
       d="m 327.5,198.6 c -0.9,-0.6 -2.8,-1.2 -3.3,-1"
       id="path6147" />
    <path
       style="fill:#1a1a1a;stroke:#ffffff;stroke-width:1;"
       d="m 330.4,227.3 c 8.5,0.2 18.8,-1.3 24.7,-3.6 24.7,14.6 10.3,38.1 17.5,62 l -37.9,4.6 c -5.2,-21.5 -18.1,-40.5 -4.3,-63 z"
       id="path6149" />
    <path
       id="path6099"
       d="m 295,341.2 c 9.3,-8.6 29.1,-28.2 38.4,-33 15.6,-8.2 31.2,0.1 28.4,13.6 -1.2,6.2 -34.2,24.8 -54.7,29.9 z"
       style="fill:#1a1a1a;stroke:#ffffff;stroke-width:1;" />
    <path
       id="path6101"
       d="m 341.5,319.8 -40.7,26.4"
       style="fill:none;stroke:#ffffff;stroke-width:1;" />
    <path
       style="fill:#1a1a1a;stroke:#ffffff;stroke-width:1;"
       d="m 372.6,285.7 c 5.6,6.6 5.9,34.2 -1.4,38.1 -12.2,6.1 -48.4,-4 -47.1,-14 0.9,-6.2 4.5,-13.8 10.6,-19.5 11.4,-2.3 24.3,-4.2 37.9,-4.6 z"
       id="path6151" />
    <path
       style="display:inline;overflow:visible;visibility:visible;fill:#4d4d4d;stroke:#ffffff;stroke-width:1;stroke-linecap:round;stroke-linejoin:round;stroke-miterlimit:4;stroke-dasharray:none;stroke-dashoffset:0;stroke-opacity:1;marker:none;enable-background:accumulate"
       id="path6153"
       d="m 336.5,304.9 6,-2.7 c 0,0 0,-1.1 -4.2,-10.4 -4.2,-9.3 -5.1,-9.8 -5.1,-9.8 l -5.8,2.8 c 0,0 -0.2,0.9 4,10.3 4.2,9.2 5.1,9.8 5.1,9.8 z" />
    <path
       d="m 325.4,279.5 c 0.2,-5.2 0.9,-5.5 5,-2.4"
       id="path6155"
       style="display:inline;fill:#4d4d4d;fill-rule:evenodd;stroke:#ffffff;stroke-width:1;" />
    <path
       style="display:inline;fill:#4d4d4d;fill-opacity:1;fill-rule:evenodd;stroke:#ffffff;stroke-width:1;stroke-linecap:round;stroke-linejoin:round;stroke-miterlimit:4;stroke-dashoffset:0;stroke-opacity:1;stroke-dasharray:none"
       d="m 333.6,281 c 0,2.4 -1.9,4.5 -4.4,4.5 -2.4,0 -4.4,-2.1 -4.4,-4.5 0,-2.4 2,-4.4 4.4,-4.4 2.4,0 4.4,2 4.4,4.4 z"
       id="path6157" />
    <path
       id="path6159"
       d="m 331.1,281 c 0,1.1 -0.9,2 -1.9,2 -1.1,0 -2,-0.9 -2,-2 0,-1 0.9,-1.9 2,-1.9 1,0 1.9,0.9 1.9,1.9 z"
       style="display:inline;fill:none;stroke:#ffffff;stroke-width:1;stroke-linecap:round;stroke-linejoin:round;stroke-miterlimit:4;stroke-dashoffset:0;stroke-opacity:1;stroke-dasharray:none" />
    <path
       style="fill:none;stroke:#ffffff;stroke-width:1;"
       d="m 354.4,290.8 c -1.1,9.4 -5.2,15.6 -9.8,21"
       id="path6161" />
    <path
       style="fill:none;stroke:#ffffff;stroke-width:1;"
       d="m 366.7,289.7 c 0.9,9.9 0.5,17.7 -3.5,29.4"
       id="path6163" />
    <path
       style="fill:#1a1a1a;fill-opacity:1;stroke:#ffffff;stroke-width:1;"
       d="m 296.2,285.1 c -1.6,1 -1.2,2.5 0.7,3.3 -1.2,0.8 -0.9,2.1 2,2.8 -1.1,0.6 -0.7,1.8 1,2.2 0.9,0.2 2.7,0.4 4.1,0.1 4.9,0 6.3,-1.7 10.2,-2.6 l -0.8,-7.7 c -1.6,-1.1 -3.6,-2 -5.6,-2.8 -3.1,-2 -5.8,-1.5 -8.8,-1.3 -1.5,0.3 -2.5,1.7 -1.9,2.5 -2.4,0.5 -2.4,2.3 -0.9,3.5 z"
       id="path6165" />
    <path
       style="display:inline;fill:#1a1a1a;stroke:#ffffff;stroke-width:1;"
       id="path6167"
       d="m 348.4,280.4 c -4.5,-6.7 -8.4,-25.9 -8.7,-32.6 -0.6,-13 13,-14.9 18.9,-6.4 8.4,12.2 5.2,24.4 6.3,36.9 0.5,5.3 -13.5,6.7 -16.5,2.1 z" />
    <path
       style="display:inline;fill:#1a1a1a;stroke:#ffffff;stroke-width:1;"
       id="path6169"
       d="m 312.1,292.7 c 6.7,0.6 32.5,3 40.5,0.6 3,-1 -0.3,-14.5 -4.4,-15.5 -6,-1.4 -31.9,2.3 -36.2,3.5 1,2.5 1.2,8.5 0.1,11.4 z" />
    <path
       style="fill:#4d4d4d;stroke:#ffffff;stroke-width:1;"
       d="m 336.1,307.6 39.6,86.1 7,4.6 1.3,-7.9 -39.6,-86.7 z"
       id="path6171" />
    <path
       d="m 325.2,314.6 c 0,0 10.6,-6.7 15.4,-8.8 4.6,-2.3 16.5,-6 16.5,-6 l -3.7,-7.2 c 0,0 -10.4,6.7 -15.2,8.8 -4.7,2.3 -16.6,6 -16.6,6 z"
       id="path6173"
       style="display:inline;overflow:visible;visibility:visible;fill:#4d4d4d;fill-opacity:1;fill-rule:nonzero;stroke:#ffffff;stroke-width:1;stroke-linecap:round;stroke-linejoin:round;stroke-miterlimit:4;stroke-dasharray:none;stroke-dashoffset:0;stroke-opacity:1;marker:none;enable-background:accumulate" />
    <path
       id="path6175"
       d="m 351.8,295.2 c 0.8,-5.4 -0.8,-10.3 -3.4,-13.6 -4,1.4 -7.6,-3.6 -5.1,-7.3 2.5,-3.6 8.4,-2.3 8.5,2.2 3.3,1.3 11.8,1.8 15,-0.1 2,8.5 -5.6,18.8 -15,18.8 z"
       style="fill:#333333;stroke:#ffffff;stroke-width:1;" />
    <path
       style="fill:#1a1a1a;stroke:#ffffff;stroke-width:1;"
       d="m 337.8,248.5 c -1.2,-10.8 2,-16.7 8.9,-18.1 6.8,-1.4 12.6,3.2 15.8,13.7 -9.2,-2.9 -18.3,-0.9 -24.7,4.4 z"
       id="path6177" />
    <path
       style="fill:#666666;stroke:#ffffff;stroke-width:1;"
       d="m 349.9,231.8 14.8,-3.6 c 25.2,19.8 18.7,80 59.3,101.8 5.8,3.1 11.2,6.5 16.6,11.5 -11,25 -36.2,3 -51.6,16.2 -5.1,-6.8 -11.7,-15.3 -12.2,-26.9 -21,-7.5 -11.6,-37.9 -19.2,-47.5 -11.2,-14.3 2.8,-39.5 -1.7,-40.5 -8.7,-2.1 -8.1,-6.4 -6,-11 z"
       id="path6179" />
    <path
       id="path6181"
       d="m 364.7,228.2 c -1.9,-1.2 -7,-5.2 -7.1,-7.3 -5.3,3.4 -9,1.2 -13.8,1.3 -2.8,2 0.4,8.1 5.4,10.5 7.3,3.6 6.4,-0.1 14.8,1.4"
       style="fill:#666666;stroke:#ffffff;stroke-width:1;" />
    <path
       style="fill:none;stroke:#ffffff;stroke-width:1;"
       d="m 317.3,280.4 c 1.1,3.8 1.2,8.3 0.2,12.5"
       id="path6183" />
    <path
       style="fill:#1a1a1a;stroke:#ffffff;stroke-width:1;"
       d="m 319.4,191.3 c 4.7,-4.9 4.1,-8.1 19.2,-14.4 24.2,11 13.6,23.7 20.9,43.8 -7.8,5.1 -14.6,2.7 -22.5,0.7 1.3,-5.2 -7,-16.2 -5.7,-25.8 z"
       id="path6185" />
    <path
       style="fill:#1a1a1a;stroke:#ffffff;stroke-width:1;"
       d="m 339.8,200.6 -21,-9.1 0.4,-6.7 5,-4.2 18,16.6 z"
       id="path6187" />
    <path
       style="fill:none;stroke:#ffffff;stroke-width:1;"
       d="M 335.8,195.4 319.2,184.8"
       id="path6189" />
    <path
       style="fill:#1a1a1a;stroke:#ffffff;stroke-width:1;stroke-linecap:round;stroke-linejoin:round;stroke-miterlimit:4;stroke-dasharray:none;stroke-dashoffset:0;stroke-opacity:1"
       d="m 338.4,312.2 8.2,-3.6"
       id="path6191" />
    <path
       id="path6193"
       d="m 325,406.2 -3.8,-3.8 -4.8,2.2 2.4,-4.6 -3.6,-4 5.3,1 2.7,-4.7 0.7,5.3 5.3,0.9 -4.8,2.4 z"
       inkscape:transform-center-y="-0.04744"
       inkscape:transform-center-x="-0.3907"
       style="fill:#4d4d4d;stroke:#ffffff;stroke-width:1;stroke-linecap:round;stroke-linejoin:round;stroke-miterlimit:4;stroke-dashoffset:0;stroke-opacity:1;stroke-dasharray:none" />
    <path
       style="fill:#1a1a1a;stroke:#ffffff;stroke-width:1;"
       d="m 310.8,349.4 c 2.8,11.4 6,20.4 2.6,35.8 -2.8,12.7 2,18.8 -1.2,24.1 l 0.4,4.3 -9.6,1 -0.4,-4.3 c -3.7,0.7 -7.2,1.4 -11,1.9 -6.4,0.7 -17,-1.9 -17.3,-5.4 -0.5,-4.6 12.1,-3.5 19.3,-7.3 7.4,-4.1 6,-8.5 5.4,-13.6 -0.4,-4.3 -1,-8.7 -1.8,-12.9 -1.3,-6.8 -3,-13.2 -5.6,-19.5 4.4,-10.1 12.7,-4.2 19.2,-4.1 z"
       id="path6195" />
    <path
       id="path6197"
       style="fill:none;stroke:#ffffff;stroke-width:1;"
       d="m 301.9,349.8 c 3.1,15 8.9,47.4 -8.3,49.7" />
    <path
       style="fill:#4d4d4d;stroke:#ffffff;stroke-width:1;stroke-linecap:round;stroke-linejoin:round;stroke-miterlimit:4;stroke-dasharray:none;stroke-dashoffset:0;stroke-opacity:1"
       d="m 298.4,400.8 22.4,-3.1 c 1.6,-0.3 2.2,3.8 0.6,4.1 l -22.4,3.1 z"
       id="path6199" />
    <path
       style="fill:#ffcc00;stroke:#ffff00;stroke-width:1;fill-opacity:1"
       d="m 297.2,373 c 1,5.6 0.2,14.2 -0.7,18.6 l 2.7,3.7 2.8,17.5 -8.6,0.8 c -0.8,-0.9 -1.1,-2.4 -0.4,-3.2 4,-0.6 -0.6,-13.7 -1.3,-19.6 1.3,-4.5 4.5,-12.4 5.5,-17.8 z"
       id="path6201" />
    <path
       style="display:inline;fill:#333333;stroke:#ffffff;stroke-width:1;"
       d="m 299.8,333.6 c -0.5,4.9 0.9,9.4 2.7,12.8 6.1,-4.4 13.7,-0.1 12.1,6.9 -1.5,7.9 -12.1,7.1 -13.9,-0.1 -3,0.4 -7.7,2.4 -10.1,4.2 -5.8,-12 0,-22.4 9.2,-23.8 z"
       id="path6203" />
    <path
       id="path6205"
       d="m 302.6,410.3 9.6,-1"
       style="fill:none;stroke:#ffffff;stroke-width:1;" />
    <path
       id="path6207"
       d="m 395.2,330.7 c -11.4,-1.9 -14.6,-43.2 -20,-43.9"
       style="fill:none;stroke:#ffffff;stroke-width:1;" />
    <path
       id="path6209"
       d="m 364.1,252.7 c 1.2,1.9 4.9,16.6 10.5,20.1"
       style="fill:none;stroke:#ffffff;stroke-width:1;" />
    <path
       id="path6211"
       d="m 376.8,330.8 c 0.4,-8.8 -1.9,-20 -4.1,-26.5"
       style="fill:none;stroke:#ffffff;stroke-width:1;" />
    <use fill="#ffffff" stroke="#000000" stroke-width="6" xlink:href="#shield" transform="matrix(0.1443,0.0387,-0.0387,0.1443,282.8,246.8)"/>
  </g>
<use id="recursion1" xlink:href="#g1703" transform="matrix(0.1443,0.0387,-0.0387,0.1443,282.8,246.8)"/>
<use id="recursion2" xlink:href="#recursion1" transform="matrix(0.1443,0.0387,-0.0387,0.1443,282.8,246.8)"/>
<use id="recursion3" xlink:href="#recursion2" transform="matrix(0.1443,0.0387,-0.0387,0.1443,282.8,246.8)"/>
<use id="recursion4" xlink:href="#recursion3" transform="matrix(0.1443,0.0387,-0.0387,0.1443,282.8,246.8)"/>
<use id="shine" fill="url(#rg)" stroke="#000" stroke-width="3" xlink:href="#shield" />
</svg>
