<?xml version="1.0" encoding="UTF-8" standalone="no"?>
<svg
   xmlns:dc="http://purl.org/dc/elements/1.1/"
   xmlns:cc="http://creativecommons.org/ns#"
   xmlns:rdf="http://www.w3.org/1999/02/22-rdf-syntax-ns#"
   xmlns:svg="http://www.w3.org/2000/svg"
   xmlns="http://www.w3.org/2000/svg"
   xmlns:xlink="http://www.w3.org/1999/xlink"
   xmlns:sodipodi="http://sodipodi.sourceforge.net/DTD/sodipodi-0.dtd"
   xmlns:inkscape="http://www.inkscape.org/namespaces/inkscape"
   width="600"
   height="660"
   id="svg2"
   version="1.1"
   inkscape:version="0.48.2 r9819"
   sodipodi:docname="House_Melcolm.svg">
  <metadata
     id="metadata29">
    <rdf:RDF>
      <cc:Work
         rdf:about="">
        <dc:format>image/svg+xml</dc:format>
        <dc:type
           rdf:resource="http://purl.org/dc/dcmitype/StillImage" />
        <dc:title />
      </cc:Work>
    </rdf:RDF>
  </metadata>
  <sodipodi:namedview
     pagecolor="#ffffff"
     bordercolor="#666666"
     borderopacity="1"
     objecttolerance="10"
     gridtolerance="10"
     guidetolerance="10"
     inkscape:pageopacity="0"
     inkscape:pageshadow="2"
     inkscape:window-width="1366"
     inkscape:window-height="715"
     id="namedview27"
     showgrid="false"
     inkscape:zoom="0.50568849"
     inkscape:cx="253.20012"
     inkscape:cy="322.19256"
     inkscape:window-x="-8"
     inkscape:window-y="-8"
     inkscape:window-maximized="1"
     inkscape:current-layer="svg2" />
  <defs
     id="defs4">
    <radialGradient
       id="rg"
       gradientUnits="userSpaceOnUse"
       cx="220"
       cy="220"
       r="405">
      <stop
         style="stop-color:#fff;stop-opacity:.3"
         offset="0"
         id="stop7" />
      <stop
         style="stop-color:#fff;stop-opacity:.2"
         offset=".2"
         id="stop9" />
      <stop
         style="stop-color:#666;stop-opacity:.1"
         offset=".6"
         id="stop11" />
      <stop
         style="stop-color:#000;stop-opacity:.13"
         offset="1"
         id="stop13" />
    </radialGradient>
    <path
       id="shield"
       d="m2,2v257c0,286 298,398 298,398c0,0 298-112 298-398V2z" />
    <radialGradient
       id="rg-1"
       gradientUnits="userSpaceOnUse"
       cx="220"
       cy="220"
       r="405">
      <stop
         style="stop-color:#fff;stop-opacity:.3"
         offset="0"
         id="stop7-7" />
      <stop
         style="stop-color:#fff;stop-opacity:.2"
         offset=".2"
         id="stop9-4" />
      <stop
         style="stop-color:#666;stop-opacity:.1"
         offset=".6"
         id="stop11-0" />
      <stop
         style="stop-color:#000;stop-opacity:.13"
         offset="1"
         id="stop13-9" />
    </radialGradient>
    <radialGradient
       id="radialGradient3046"
       gradientUnits="userSpaceOnUse"
       cx="220"
       cy="220"
       r="405">
      <stop
         style="stop-color:#fff;stop-opacity:.3"
         offset="0"
         id="stop3048" />
      <stop
         style="stop-color:#fff;stop-opacity:.2"
         offset=".2"
         id="stop3050" />
      <stop
         style="stop-color:#666;stop-opacity:.1"
         offset=".6"
         id="stop3052" />
      <stop
         style="stop-color:#000;stop-opacity:.13"
         offset="1"
         id="stop3054" />
    </radialGradient>
  </defs>
  <use
     height="1052.3622"
     width="744.09448"
     y="0"
     x="0"
     id="background"
     xlink:href="#shield"
     style="fill:#40e0d0;fill-opacity:1" />
  <path
     inkscape:connector-curvature="0"
     id="chief"
     d="M 2,2 2,150 598,150 598,2 2,2 z"
     style="fill:#ffff00" />
  <g
     transform="translate(31.541,113.07368)"
     id="g162">
    <path
       inkscape:connector-curvature="0"
       style="fill:#b7410e;fill-opacity:1"
       d="m 455.279,272.852 c -10.813,-17.736 -47.77,-54.613 -64.957,-62.833 -2.713,-1.297 -6.284,-0.838 -7.771,1.596 -4.928,8.04 3.012,33.726 -5.676,70.763 -2.863,12.219 -0.249,17.825 9.855,14.962 10.843,-3.082 27.82,-13.087 26.334,-23.85 1.536,8.14 2.344,16.369 2.344,24.22 0,86.404 -101.815,101.157 -124.628,102.034 -1.137,0 -2.055,-0.918 -2.055,-2.055 V 187.456 c 0,-3.401 0.798,-5.795 4.948,-6.164 0.669,0 1.187,-0.529 1.197,-1.197 l 64.638,-3.92 c 0.658,0 1.197,-0.539 1.197,-1.207 v -1.776 l 52.509,-1.347 c 0.668,-0.01 1.197,-0.528 1.197,-1.197 v -15.781 c 0,-0.668 -0.539,-1.197 -1.207,-1.197 l -52.498,-1.347 v -1.786 c 0,-0.659 -0.539,-1.197 -1.197,-1.197 l -64.638,-3.92 v -4.788 c 0,-0.658 -0.539,-1.197 -1.197,-1.197 -7.9,-0.569 -17.057,-6.663 -17.057,-15.96 v -2.085 c 14.384,-3.641 25.027,-16.658 25.027,-32.18 0,-18.324 -14.853,-33.187 -33.187,-33.187 -18.334,0 -33.187,14.863 -33.187,33.187 0,15.521 10.643,28.538 25.027,32.18 v 2.085 c 0,9.297 -9.157,15.391 -17.057,15.96 -0.659,0 -1.197,0.539 -1.197,1.197 v 4.788 l -64.638,3.92 c -0.668,0 -1.197,0.539 -1.197,1.197 v 1.786 l -52.498,1.347 c -0.668,0 -1.207,0.528 -1.207,1.197 v 15.781 c 0,0.668 0.528,1.187 1.197,1.197 l 52.509,1.347 v 1.776 c 0,0.668 0.529,1.207 1.197,1.207 l 64.638,3.91 c 0,0.668 0.529,1.207 1.197,1.207 4.149,0.369 4.948,2.763 4.948,6.164 v 210.233 c 0,1.137 -0.918,2.055 -2.055,2.055 -22.813,-0.878 -124.628,-15.631 -124.628,-102.034 0,-7.85 0.808,-16.08 2.344,-24.22 -1.486,10.763 15.491,20.768 26.334,23.85 10.105,2.863 12.718,-2.743 9.855,-14.962 -8.688,-37.037 -0.748,-62.723 -5.676,-70.763 -1.486,-2.434 -5.057,-2.893 -7.771,-1.596 -17.187,8.22 -54.144,45.097 -64.957,62.833 -2.294,3.761 -2.583,10.085 1.227,12.289 6.663,3.86 23.112,0.579 27.671,-11.252 -5.796,16.459 -9.227,34.982 -9.227,54.743 0,54.464 43.461,85.316 86.034,102.244 38.524,15.321 74.024,18.643 74.024,28.598 v 5.486 c -12.818,3.182 -22.324,14.753 -22.324,28.558 0,16.24 13.167,29.417 29.416,29.417 16.249,0 29.417,-13.177 29.417,-29.417 0,-13.805 -9.506,-25.376 -22.324,-28.558 v -5.486 c 0,-9.955 35.501,-13.277 74.024,-28.598 42.573,-16.928 86.034,-47.78 86.034,-102.244 0,-19.761 -3.431,-38.284 -9.227,-54.743 4.559,11.83 21.007,15.112 27.671,11.252 3.811,-2.204 3.523,-8.528 1.228,-12.289 z M 285.924,493.519 c 0,9.636 -7.821,17.456 -17.466,17.456 -9.645,0 -17.466,-7.82 -17.466,-17.456 0,-7.122 4.269,-13.227 10.374,-15.95 v 5.705 c 0,2.983 4.11,5.407 7.092,5.407 2.983,0 7.092,-2.424 7.092,-5.407 v -5.705 c 6.104,2.723 10.374,8.828 10.374,15.95 z M 268.457,97.113 c -4.509,0 -8.16,3.661 -8.16,8.16 v 1.855 c -6.803,-3.102 -11.541,-9.945 -11.541,-17.915 0,-10.873 8.818,-19.701 19.701,-19.701 10.883,0 19.701,8.828 19.701,19.701 0,7.97 -4.738,14.813 -11.541,17.915 v -1.855 c 0,-4.5 -3.651,-8.16 -8.16,-8.16 z"
       id="path164" />
    <line
       style="fill:none;stroke:#000000;stroke-width:1.70000005;stroke-linecap:round;stroke-linejoin:round;stroke-miterlimit:10"
       x1="234.883"
       y1="172.528"
       x2="185.69901"
       y2="169.547"
       id="line166" />
    <line
       style="fill:none;stroke:#000000;stroke-width:1.70000005;stroke-linecap:round;stroke-linejoin:round;stroke-miterlimit:10"
       x1="170.883"
       y1="166.657"
       x2="131.814"
       y2="165.659"
       id="line168" />
    <g
       id="g170">
      <path
         inkscape:connector-curvature="0"
         d="m 112.067,273.31 c 0,0 -0.081,0.264 -0.237,0.775 -0.08,0.255 -0.179,0.571 -0.296,0.948 -0.061,0.187 -0.127,0.389 -0.198,0.605 -0.111,0.229 -0.23,0.475 -0.356,0.735 -0.259,0.518 -0.541,1.116 -0.885,1.743 -0.381,0.573 -0.81,1.195 -1.288,1.861 -0.511,0.633 -1.121,1.262 -1.752,1.957 -0.702,0.605 -1.436,1.285 -2.277,1.9 -0.858,0.588 -1.758,1.233 -2.79,1.736 -0.999,0.577 -2.11,1.023 -3.27,1.491 -2.355,0.82 -5.002,1.457 -7.919,1.55 -0.728,0.038 -1.469,0.028 -2.231,-0.054 -0.379,-0.032 -0.761,-0.064 -1.145,-0.097 -0.387,-0.068 -0.777,-0.143 -1.167,-0.226 -1.563,-0.316 -3.155,-0.885 -4.716,-1.958 -0.249,-0.156 -0.744,-0.635 -1.11,-1.024 -0.295,-0.401 -0.616,-0.789 -0.823,-1.228 -0.482,-0.854 -0.742,-1.773 -0.902,-2.682 -0.294,-1.828 -0.148,-3.645 0.307,-5.404 0.235,-0.878 0.516,-1.755 0.937,-2.596 0.192,-0.437 0.434,-0.814 0.701,-1.265 0.234,-0.354 0.47,-0.711 0.706,-1.069 0.473,-0.716 0.951,-1.438 1.432,-2.168 0.502,-0.724 1.053,-1.443 1.584,-2.175 0.54,-0.727 1.083,-1.46 1.631,-2.199 0.567,-0.713 1.14,-1.431 1.716,-2.155 1.138,-1.462 2.345,-2.897 3.58,-4.342 4.923,-5.794 10.379,-11.654 16.225,-17.514 5.852,-5.852 12.035,-11.769 18.667,-17.413 3.331,-2.805 6.718,-5.603 10.326,-8.177 1.764,-1.334 3.652,-2.53 5.533,-3.738 0.938,-0.606 1.97,-1.102 2.952,-1.657 l 0.746,-0.406 c 0.145,-0.074 0.203,-0.12 0.418,-0.217 l 0.376,-0.17 c 0.623,-0.25 1.264,-0.448 1.891,-0.546 1.269,-0.229 2.611,-0.208 3.926,0.205 1.329,0.417 2.543,1.262 3.372,2.651 l 0.384,0.729 0.384,0.956 c 0.202,0.618 0.383,1.193 0.493,1.781 0.267,1.174 0.375,2.319 0.479,3.46 0.299,4.536 0.067,8.903 -0.049,13.234 -0.303,8.646 -0.372,17.109 0.22,25.272 0.563,8.161 1.733,15.993 3.339,23.309 0.207,0.925 0.413,1.844 0.618,2.756 0.203,0.915 0.425,1.788 0.582,2.764 0.363,1.901 0.564,3.778 0.529,5.73 -0.039,1.919 -0.296,4.029 -1.607,5.932 l -0.512,0.687 -0.647,0.585 c -0.418,0.418 -0.937,0.658 -1.436,0.933 -0.501,0.286 -1.025,0.37 -1.54,0.546 -0.516,0.142 -1.009,0.158 -1.514,0.233 -1.968,0.119 -3.756,-0.165 -5.402,-0.578 -1.605,-0.405 -3.156,-0.918 -4.606,-1.478 -2.916,-1.111 -5.553,-2.438 -7.949,-3.834 -2.396,-1.396 -4.545,-2.875 -6.433,-4.398 -1.884,-1.528 -3.461,-3.152 -4.76,-4.748 -1.293,-1.599 -2.276,-3.224 -2.896,-4.764 -0.626,-1.54 -0.912,-2.97 -0.991,-4.139 -0.058,-1.175 0.048,-2.076 0.166,-2.666 0.129,-0.588 0.196,-0.892 0.196,-0.892 0.147,-0.672 0.812,-1.097 1.483,-0.95 0.625,0.137 1.036,0.721 0.972,1.342 l -0.017,0.157 c 0,0 -0.025,0.239 -0.074,0.701 -0.042,0.461 -0.04,1.147 0.064,2.029 0.248,1.757 1.293,4.307 3.701,6.985 1.197,1.335 2.697,2.689 4.461,4.03 1.754,1.353 3.78,2.682 6.047,3.935 2.268,1.249 4.774,2.428 7.468,3.489 1.357,0.517 2.722,1.03 4.173,1.421 1.397,0.406 2.833,0.674 4.162,0.654 1.346,-0.037 2.373,-0.444 3.073,-1.337 0.729,-0.897 1.105,-2.401 1.194,-4 0.076,-1.601 -0.057,-3.349 -0.341,-5.061 -0.107,-0.843 -0.314,-1.771 -0.493,-2.682 -0.199,-0.908 -0.399,-1.822 -0.601,-2.742 -1.629,-7.456 -2.813,-15.441 -3.377,-23.742 -0.587,-8.299 -0.528,-16.909 -0.232,-25.572 0.115,-4.323 0.328,-8.696 0.042,-12.912 -0.097,-1.04 -0.198,-2.085 -0.423,-3.052 -0.088,-0.492 -0.248,-0.965 -0.381,-1.391 l -0.217,-0.578 -0.385,-0.729 c -0.592,-1.143 -2.449,-1.954 -4.256,-1.717 -0.464,0.055 -0.882,0.176 -1.288,0.313 l -0.382,0.156 c -0.037,0.01 -0.212,0.112 -0.312,0.164 l -0.705,0.38 c -0.933,0.523 -1.895,0.973 -2.806,1.555 -1.823,1.16 -3.653,2.301 -5.394,3.604 -3.542,2.497 -6.909,5.247 -10.217,8.002 -6.58,5.564 -12.801,11.366 -18.583,17.209 -5.774,5.851 -11.163,11.702 -16.001,17.459 -1.214,1.436 -2.4,2.861 -3.511,4.305 -0.564,0.716 -1.124,1.426 -1.679,2.131 -0.525,0.716 -1.046,1.427 -1.563,2.131 -0.51,0.71 -1.031,1.394 -1.521,2.108 -0.478,0.732 -0.952,1.457 -1.421,2.176 -0.234,0.359 -0.468,0.717 -0.7,1.073 -0.154,0.286 -0.365,0.629 -0.498,0.97 -0.315,0.675 -0.529,1.401 -0.69,2.122 -0.291,1.45 -0.305,2.933 0.044,4.204 0.332,1.269 1.002,2.289 1.853,2.767 l 0.239,0.15 0.119,0.075 c 0.045,0.03 -0.178,-0.115 -0.058,-0.044 l 0.054,0.021 0.425,0.167 c 0.291,0.1 0.534,0.256 0.849,0.316 0.618,0.134 1.191,0.327 1.835,0.362 0.313,0.034 0.621,0.074 0.926,0.119 0.316,0.01 0.63,0.019 0.941,0.028 0.312,0.004 0.618,0.031 0.927,0.019 0.311,-0.018 0.618,-0.036 0.923,-0.053 2.443,-0.146 4.733,-0.645 6.765,-1.322 2.021,-0.717 3.782,-1.6 5.267,-2.552 0.742,-0.475 1.38,-1.007 2.01,-1.475 0.555,-0.541 1.121,-1.015 1.591,-1.506 0.429,-0.523 0.839,-1.001 1.226,-1.437 0.307,-0.458 0.586,-0.874 0.836,-1.246 0.128,-0.188 0.249,-0.366 0.361,-0.532 0.096,-0.207 0.185,-0.4 0.268,-0.579 0.17,-0.355 0.314,-0.654 0.43,-0.895 0.234,-0.48 0.355,-0.729 0.355,-0.729 0.303,-0.623 1.054,-0.881 1.676,-0.578 0.566,0.277 0.831,0.917 0.654,1.497 z"
         id="path172" />
    </g>
    <g
       id="g174">
      <path
         inkscape:connector-curvature="0"
         d="m 427.174,272.394 c 0,0 0.121,0.248 0.355,0.729 0.116,0.241 0.259,0.54 0.43,0.895 0.083,0.179 0.172,0.372 0.268,0.579 0.113,0.166 0.233,0.343 0.361,0.532 0.25,0.372 0.529,0.788 0.836,1.246 0.387,0.436 0.797,0.913 1.226,1.437 0.47,0.491 1.036,0.965 1.592,1.506 0.629,0.468 1.268,1 2.01,1.475 1.484,0.953 3.245,1.835 5.267,2.552 2.032,0.677 4.322,1.175 6.765,1.322 0.305,0.018 0.613,0.036 0.923,0.053 0.309,0.013 0.615,-0.014 0.927,-0.019 0.311,-0.009 0.625,-0.018 0.941,-0.028 0.305,-0.045 0.614,-0.085 0.927,-0.119 0.644,-0.035 1.217,-0.229 1.835,-0.362 0.316,-0.061 0.559,-0.217 0.849,-0.316 l 0.426,-0.167 0.054,-0.021 c 0.12,-0.07 -0.104,0.075 -0.058,0.044 l 0.119,-0.075 0.238,-0.15 c 0.851,-0.478 1.522,-1.499 1.853,-2.767 0.35,-1.271 0.335,-2.753 0.044,-4.204 -0.161,-0.72 -0.375,-1.446 -0.69,-2.122 -0.132,-0.341 -0.344,-0.684 -0.498,-0.97 -0.232,-0.356 -0.466,-0.713 -0.7,-1.073 -0.469,-0.719 -0.943,-1.444 -1.421,-2.176 -0.49,-0.714 -1.011,-1.397 -1.521,-2.108 -0.517,-0.704 -1.038,-1.415 -1.563,-2.131 -0.555,-0.705 -1.115,-1.415 -1.679,-2.131 -1.111,-1.444 -2.297,-2.869 -3.511,-4.305 -4.838,-5.757 -10.226,-11.608 -16.001,-17.459 -5.782,-5.844 -12.004,-11.645 -18.583,-17.209 -3.308,-2.755 -6.674,-5.505 -10.216,-8.002 -1.741,-1.303 -3.572,-2.444 -5.395,-3.604 -0.91,-0.582 -1.873,-1.031 -2.805,-1.555 l -0.705,-0.38 c -0.1,-0.052 -0.275,-0.153 -0.312,-0.164 l -0.382,-0.156 c -0.405,-0.137 -0.824,-0.258 -1.288,-0.313 -1.807,-0.237 -3.663,0.574 -4.256,1.717 l -0.385,0.729 -0.217,0.578 c -0.133,0.425 -0.293,0.899 -0.381,1.391 -0.224,0.967 -0.326,2.012 -0.423,3.052 -0.286,4.216 -0.072,8.589 0.043,12.912 0.295,8.664 0.354,17.273 -0.233,25.572 -0.564,8.301 -1.748,16.286 -3.376,23.742 -0.202,0.92 -0.402,1.834 -0.601,2.742 -0.178,0.91 -0.386,1.838 -0.493,2.682 -0.284,1.712 -0.417,3.459 -0.341,5.061 0.089,1.599 0.464,3.103 1.193,4 0.701,0.893 1.728,1.3 3.073,1.337 1.33,0.02 2.765,-0.248 4.162,-0.654 1.451,-0.391 2.816,-0.904 4.173,-1.421 2.694,-1.061 5.2,-2.24 7.468,-3.489 2.267,-1.253 4.293,-2.582 6.047,-3.935 1.764,-1.341 3.265,-2.695 4.461,-4.03 2.408,-2.678 3.453,-5.228 3.701,-6.985 0.104,-0.882 0.106,-1.568 0.064,-2.029 -0.049,-0.462 -0.074,-0.701 -0.074,-0.701 l -0.016,-0.15 c -0.072,-0.684 0.423,-1.297 1.107,-1.37 0.636,-0.067 1.212,0.362 1.348,0.972 0,0 0.067,0.304 0.196,0.892 0.118,0.59 0.224,1.491 0.167,2.666 -0.079,1.169 -0.365,2.6 -0.991,4.139 -0.62,1.541 -1.603,3.166 -2.896,4.764 -1.299,1.595 -2.876,3.22 -4.76,4.748 -1.887,1.524 -4.037,3.003 -6.433,4.398 -2.395,1.396 -5.032,2.723 -7.949,3.834 -1.45,0.559 -3.001,1.072 -4.606,1.478 -1.646,0.413 -3.434,0.696 -5.402,0.578 -0.505,-0.075 -0.998,-0.091 -1.514,-0.233 -0.516,-0.176 -1.04,-0.26 -1.54,-0.546 -0.5,-0.275 -1.018,-0.515 -1.436,-0.933 l -0.646,-0.585 -0.512,-0.687 c -1.311,-1.902 -1.568,-4.012 -1.607,-5.932 -0.035,-1.952 0.166,-3.829 0.529,-5.73 0.157,-0.976 0.379,-1.85 0.583,-2.764 0.204,-0.912 0.41,-1.831 0.617,-2.756 1.606,-7.316 2.776,-15.148 3.339,-23.309 0.592,-8.164 0.524,-16.627 0.22,-25.272 -0.116,-4.331 -0.348,-8.698 -0.049,-13.234 0.105,-1.141 0.213,-2.286 0.479,-3.46 0.11,-0.588 0.291,-1.164 0.493,-1.781 l 0.384,-0.956 0.384,-0.729 c 0.828,-1.389 2.043,-2.234 3.371,-2.651 1.315,-0.413 2.658,-0.434 3.926,-0.205 0.626,0.098 1.268,0.295 1.891,0.546 l 0.376,0.17 c 0.216,0.097 0.274,0.143 0.419,0.217 l 0.746,0.406 c 0.982,0.555 2.014,1.051 2.952,1.657 1.881,1.208 3.769,2.404 5.533,3.738 3.608,2.574 6.996,5.372 10.326,8.177 6.631,5.644 12.814,11.561 18.667,17.413 5.845,5.86 11.302,11.72 16.225,17.514 1.235,1.445 2.442,2.88 3.58,4.342 0.576,0.724 1.148,1.442 1.716,2.155 0.548,0.739 1.092,1.472 1.631,2.199 0.531,0.731 1.082,1.451 1.584,2.175 0.482,0.729 0.959,1.452 1.432,2.168 0.237,0.358 0.472,0.715 0.707,1.069 0.267,0.45 0.508,0.828 0.701,1.265 0.421,0.841 0.702,1.718 0.937,2.596 0.455,1.76 0.601,3.576 0.307,5.404 -0.161,0.908 -0.42,1.828 -0.903,2.682 -0.207,0.439 -0.528,0.827 -0.823,1.228 -0.366,0.39 -0.861,0.869 -1.11,1.024 -1.561,1.073 -3.153,1.642 -4.716,1.958 -0.39,0.083 -0.779,0.157 -1.167,0.226 -0.384,0.033 -0.766,0.065 -1.145,0.097 -0.761,0.082 -1.503,0.092 -2.231,0.054 -2.917,-0.093 -5.564,-0.729 -7.919,-1.55 -1.16,-0.468 -2.272,-0.915 -3.27,-1.491 -1.032,-0.502 -1.932,-1.147 -2.79,-1.736 -0.841,-0.615 -1.575,-1.295 -2.277,-1.9 -0.632,-0.694 -1.241,-1.324 -1.752,-1.957 -0.478,-0.666 -0.906,-1.289 -1.288,-1.861 -0.344,-0.626 -0.626,-1.225 -0.885,-1.743 -0.126,-0.26 -0.245,-0.505 -0.356,-0.735 -0.071,-0.216 -0.137,-0.418 -0.198,-0.605 -0.118,-0.376 -0.216,-0.693 -0.296,-0.948 -0.156,-0.511 -0.237,-0.775 -0.237,-0.775 -0.203,-0.662 0.169,-1.363 0.832,-1.566 0.597,-0.187 1.227,0.1 1.492,0.646 z"
         id="path176" />
    </g>
    <line
       style="fill:none;stroke:#000000;stroke-width:1.70000005;stroke-linecap:round;stroke-linejoin:round;stroke-miterlimit:10"
       x1="302.03201"
       y1="172.528"
       x2="351.216"
       y2="169.547"
       id="line178" />
    <line
       style="fill:none;stroke:#000000;stroke-width:1.70000005;stroke-linecap:round;stroke-linejoin:round;stroke-miterlimit:10"
       x1="366.03101"
       y1="166.657"
       x2="405.10101"
       y2="165.659"
       id="line180" />
    <polyline
       style="fill:none;stroke:#000000;stroke-width:1.70000005;stroke-linecap:round;stroke-linejoin:round;stroke-miterlimit:10"
       points="285.747,178.096 268.457,178.096 251.167,178.096  "
       id="polyline182" />
    <polyline
       style="fill:none;stroke:#000000;stroke-width:1.70000005;stroke-linecap:round;stroke-linejoin:round;stroke-miterlimit:10"
       points="285.747,143.099 268.457,143.099 251.167,143.099  "
       id="polyline184" />
    <polyline
       style="fill:none;stroke:#000000;stroke-width:2.5;stroke-linecap:round;stroke-linejoin:round;stroke-miterlimit:10"
       points="288.723,187.455 268.457,187.455 248.191,187.455  "
       id="polyline186" />
    <g
       id="g188">
      <path
         inkscape:connector-curvature="0"
         d="m 423.737,308.159 c 0.129,4.605 0.063,9.335 -0.353,13.982 -0.45,4.653 -1.191,9.281 -2.277,13.834 -1.086,4.554 -2.583,9.008 -4.385,13.329 -1.811,4.319 -3.968,8.493 -6.441,12.471 -4.947,7.964 -11.178,15.077 -18.126,21.321 -6.958,6.25 -14.643,11.636 -22.682,16.354 -4.029,2.357 -8.118,4.559 -12.33,6.608 -4.189,2.024 -8.591,3.76 -12.977,5.29 -8.813,3.066 -17.811,5.438 -26.779,7.783 -8.961,2.356 -17.956,4.591 -26.62,7.64 -4.308,1.551 -8.583,3.261 -12.416,5.615 -1.93,1.148 -3.726,2.489 -5.247,4.045 -1.525,1.549 -2.766,3.334 -3.469,5.318 -0.231,0.652 -0.947,0.993 -1.599,0.762 -0.368,-0.13 -0.639,-0.421 -0.762,-0.762 -0.703,-1.984 -1.943,-3.77 -3.468,-5.318 -1.521,-1.557 -3.317,-2.897 -5.247,-4.045 -3.832,-2.354 -8.107,-4.063 -12.415,-5.615 -8.665,-3.049 -17.659,-5.284 -26.62,-7.64 -8.968,-2.345 -17.966,-4.717 -26.779,-7.783 -4.403,-1.538 -8.758,-3.252 -12.982,-5.292 -4.193,-2.04 -8.3,-4.25 -12.325,-6.606 -8.039,-4.717 -15.723,-10.104 -22.681,-16.354 -6.949,-6.244 -13.179,-13.357 -18.126,-21.321 -2.473,-3.978 -4.63,-8.152 -6.441,-12.471 -1.803,-4.321 -3.299,-8.775 -4.385,-13.329 -1.085,-4.554 -1.826,-9.181 -2.277,-13.834 -0.415,-4.658 -0.482,-9.334 -0.352,-14 0.013,-0.469 0.404,-0.839 0.873,-0.826 0.469,0.013 0.839,0.404 0.826,0.874 l 0,0.014 c -0.11,4.599 -0.028,9.201 0.396,13.777 0.459,4.571 1.203,9.109 2.283,13.569 1.081,4.46 2.563,8.815 4.341,13.038 1.787,4.221 3.913,8.297 6.347,12.182 4.87,7.777 11,14.728 17.85,20.839 6.859,6.117 14.449,11.399 22.407,16.031 3.982,2.311 8.051,4.482 12.199,6.482 4.131,1.977 8.419,3.649 12.77,5.151 8.711,2.996 17.666,5.325 26.635,7.635 8.967,2.325 18,4.53 26.842,7.604 4.404,1.571 8.8,3.299 12.889,5.784 2.052,1.213 4.015,2.654 5.739,4.404 1.723,1.736 3.207,3.828 4.064,6.228 h -2.36 c 0.857,-2.4 2.341,-4.492 4.063,-6.228 1.724,-1.75 3.688,-3.191 5.739,-4.404 4.089,-2.485 8.485,-4.213 12.889,-5.784 8.842,-3.074 17.875,-5.278 26.842,-7.604 8.969,-2.31 17.924,-4.639 26.635,-7.635 4.368,-1.51 8.61,-3.161 12.775,-5.153 4.129,-1.99 8.216,-4.17 12.193,-6.479 7.958,-4.631 15.547,-9.914 22.407,-16.031 6.851,-6.112 12.98,-13.062 17.85,-20.839 2.434,-3.885 4.56,-7.961 6.347,-12.182 1.779,-4.223 3.261,-8.578 4.341,-13.038 1.08,-4.459 1.823,-8.998 2.283,-13.569 0.423,-4.587 0.507,-9.136 0.396,-13.795 -0.011,-0.47 0.36,-0.859 0.829,-0.87 0.469,-0.011 0.859,0.36 0.87,0.829 l 0.001,0.014 z"
         id="path190" />
    </g>
    <g
       id="g192">
      <path
         inkscape:connector-curvature="0"
         d="m 283.654,415.203 c -0.456,0.411 -0.98,0.801 -1.38,1.229 -0.408,0.432 -0.832,0.825 -1.218,1.308 -0.8,0.913 -1.542,1.888 -2.245,2.891 -0.346,0.507 -0.71,0.999 -1.032,1.523 -0.327,0.521 -0.672,1.028 -0.983,1.56 -0.64,1.051 -1.244,2.124 -1.834,3.206 -0.574,1.09 -1.141,2.184 -1.668,3.298 -0.529,1.112 -1.042,2.232 -1.51,3.368 -0.479,1.131 -0.925,2.277 -1.321,3.431 -0.212,0.575 -0.385,1.156 -0.563,1.735 -0.192,0.579 -0.31,1.161 -0.469,1.74 -0.147,0.537 -0.703,0.853 -1.24,0.705 -0.354,-0.098 -0.613,-0.375 -0.705,-0.705 -0.159,-0.579 -0.276,-1.161 -0.468,-1.74 -0.178,-0.58 -0.352,-1.161 -0.563,-1.735 -0.396,-1.154 -0.842,-2.299 -1.321,-3.431 -0.469,-1.136 -0.981,-2.256 -1.511,-3.368 -0.527,-1.114 -1.094,-2.208 -1.668,-3.298 -0.59,-1.082 -1.194,-2.154 -1.834,-3.206 -0.311,-0.532 -0.656,-1.039 -0.983,-1.56 -0.322,-0.525 -0.687,-1.017 -1.032,-1.523 -0.704,-1.003 -1.445,-1.978 -2.245,-2.891 -0.382,-0.478 -0.821,-0.888 -1.238,-1.325 -0.415,-0.44 -0.893,-0.79 -1.335,-1.192 l -0.074,-0.067 c -0.265,-0.24 -0.284,-0.65 -0.044,-0.915 0.236,-0.259 0.635,-0.283 0.9,-0.057 0.491,0.42 1.03,0.804 1.481,1.259 0.454,0.452 0.935,0.886 1.344,1.373 0.863,0.94 1.655,1.933 2.405,2.951 0.369,0.513 0.757,1.015 1.1,1.543 0.347,0.526 0.715,1.041 1.046,1.577 0.68,1.062 1.324,2.144 1.952,3.234 0.613,1.099 1.217,2.204 1.783,3.328 0.568,1.124 1.118,2.257 1.627,3.412 0.519,1.15 1.005,2.316 1.445,3.507 0.233,0.589 0.431,1.197 0.632,1.804 0.214,0.599 0.362,1.237 0.545,1.855 h -1.945 c 0.183,-0.618 0.332,-1.256 0.545,-1.855 0.202,-0.606 0.4,-1.214 0.632,-1.804 0.44,-1.191 0.927,-2.357 1.445,-3.507 0.509,-1.155 1.059,-2.288 1.627,-3.412 0.565,-1.125 1.17,-2.229 1.783,-3.328 0.628,-1.091 1.272,-2.173 1.953,-3.234 0.33,-0.536 0.698,-1.051 1.045,-1.577 0.343,-0.529 0.731,-1.031 1.1,-1.543 0.75,-1.018 1.542,-2.01 2.406,-2.951 0.405,-0.482 0.901,-0.932 1.363,-1.39 0.467,-0.467 0.958,-0.81 1.437,-1.221 0.272,-0.234 0.682,-0.203 0.916,0.069 0.23,0.268 0.204,0.669 -0.057,0.905 l -0.026,0.024 z"
         id="path194" />
    </g>
    <g
       id="g196">
      <path
         inkscape:connector-curvature="0"
         d="m 276.061,106.013 c 0,0 0.375,-0.185 1.078,-0.53 0.352,-0.173 0.694,-0.401 1.15,-0.657 0.435,-0.289 0.963,-0.616 1.498,-1.041 1.096,-0.821 2.319,-1.981 3.461,-3.513 1.139,-1.531 2.182,-3.448 2.879,-5.69 0.303,-1.132 0.598,-2.324 0.689,-3.589 0.044,-0.313 0.054,-0.632 0.062,-0.954 0.005,-0.298 0.036,-0.699 0.021,-0.919 -0.052,-0.684 -0.058,-1.431 -0.15,-2.091 -0.323,-2.553 -1.295,-5.36 -2.891,-7.779 -1.583,-2.456 -3.89,-4.527 -6.544,-6.017 -1.355,-0.693 -2.773,-1.313 -4.278,-1.649 -0.74,-0.217 -1.506,-0.315 -2.271,-0.42 -0.379,-0.073 -0.767,-0.079 -1.152,-0.093 l -0.579,-0.024 -0.29,-0.013 -0.145,-0.006 -0.072,-0.003 -0.036,-0.001 c 0.022,-0.001 -0.1,0.001 0.04,-0.003 l -1.25,0.073 c -0.419,0.023 -0.846,0.041 -1.188,0.119 -0.726,0.118 -1.451,0.221 -2.197,0.453 -1.492,0.362 -2.889,1.003 -4.218,1.713 -2.604,1.524 -4.841,3.608 -6.352,6.049 -1.527,2.428 -2.419,5.111 -2.698,7.711 -0.076,0.649 -0.064,1.299 -0.105,1.932 0.014,0.511 0.027,1.397 0.109,1.918 0.098,1.137 0.407,2.35 0.713,3.422 0.708,2.161 1.74,3.996 2.859,5.456 1.119,1.464 2.319,2.551 3.372,3.34 1.05,0.797 1.955,1.305 2.577,1.632 0.633,0.308 0.971,0.472 0.971,0.472 l -1.661,3.639 c 0,0 -0.409,-0.209 -1.177,-0.603 -0.753,-0.416 -1.846,-1.061 -3.104,-2.059 -1.26,-0.99 -2.688,-2.342 -4.007,-4.145 -1.318,-1.797 -2.522,-4.045 -3.314,-6.671 -0.352,-1.342 -0.672,-2.675 -0.779,-4.237 -0.08,-0.82 -0.068,-1.313 -0.078,-2.193 0.053,-0.757 0.06,-1.529 0.163,-2.303 0.382,-3.1 1.501,-6.284 3.361,-9.128 1.842,-2.857 4.513,-5.277 7.609,-7.011 1.575,-0.815 3.232,-1.531 4.985,-1.932 0.852,-0.247 1.778,-0.378 2.705,-0.499 0.479,-0.082 0.887,-0.09 1.303,-0.106 l 1.251,-0.053 1.421,0.075 c 0.448,0.025 0.896,0.044 1.338,0.131 0.888,0.134 1.773,0.27 2.631,0.532 1.739,0.426 3.376,1.163 4.926,1.996 3.045,1.769 5.646,4.201 7.417,7.043 1.791,2.854 2.83,5.914 3.168,9.061 0.086,0.763 0.076,1.437 0.118,2.144 0.016,0.477 -0.02,0.767 -0.027,1.155 -0.012,0.365 -0.026,0.726 -0.076,1.082 -0.114,1.434 -0.448,2.789 -0.803,4.071 -0.802,2.544 -1.996,4.711 -3.293,6.437 -1.296,1.735 -2.702,3.014 -3.918,3.972 -0.603,0.49 -1.182,0.863 -1.688,1.206 -0.527,0.312 -0.996,0.611 -1.345,0.788 -0.698,0.354 -1.07,0.544 -1.07,0.544 l -1.119,-2.234 z"
         id="path198" />
    </g>
    <g
       id="g200">
      <path
         inkscape:connector-curvature="0"
         d="m 276.12,119.715 c 0,0 0.72,-0.211 2.069,-0.609 0.716,-0.176 1.386,-0.509 2.282,-0.836 0.219,-0.085 0.446,-0.174 0.682,-0.265 0.233,-0.114 0.474,-0.231 0.723,-0.353 0.498,-0.242 1.027,-0.5 1.587,-0.772 2.17,-1.209 4.709,-2.902 7.182,-5.344 2.464,-2.433 4.869,-5.609 6.638,-9.508 0.814,-1.972 1.623,-4.063 2.046,-6.335 0.296,-1.118 0.379,-2.293 0.555,-3.471 0.074,-0.591 0.066,-1.195 0.105,-1.798 l 0.043,-0.91 0.011,-0.229 0.003,-0.057 c 0.005,0.143 0,0.005 0,0.021 l -0.006,-0.12 -0.023,-0.482 c -0.086,-1.265 -0.05,-2.656 -0.295,-3.818 -0.09,-0.607 -0.182,-1.218 -0.273,-1.833 -0.124,-0.616 -0.307,-1.238 -0.457,-1.862 -0.596,-2.512 -1.65,-4.949 -2.899,-7.315 -2.631,-4.661 -6.492,-8.897 -11.362,-11.773 -4.791,-3.008 -10.541,-4.481 -16.272,-4.593 l -2.175,0.104 -1.124,0.053 -1.042,0.158 -2.08,0.312 -2.082,0.529 c -0.346,0.091 -0.697,0.166 -1.038,0.271 l -1.007,0.366 c -0.668,0.251 -1.35,0.468 -2.005,0.744 -1.274,0.635 -2.601,1.166 -3.782,1.954 -4.909,2.853 -8.823,7.083 -11.508,11.76 -2.657,4.714 -3.928,9.936 -4.063,14.888 l -0.026,0.464 -0.006,0.116 c 0,0 -0.002,0.091 -0.003,0.004 l 0.002,0.061 0.01,0.24 0.04,0.956 c 0.037,0.627 0.03,1.283 0.103,1.873 0.173,1.172 0.247,2.324 0.542,3.467 0.419,2.302 1.227,4.423 2.044,6.424 1.774,3.958 4.197,7.189 6.687,9.669 2.497,2.488 5.066,4.222 7.273,5.449 2.25,1.153 4.103,1.879 5.395,2.279 1.298,0.384 1.99,0.588 1.99,0.588 l -0.613,2.424 c 0,0 -0.746,-0.224 -2.144,-0.644 -1.39,-0.44 -3.387,-1.229 -5.802,-2.487 -2.366,-1.338 -5.136,-3.193 -7.829,-5.868 -2.685,-2.664 -5.299,-6.139 -7.218,-10.403 -0.889,-2.154 -1.757,-4.443 -2.217,-6.923 -0.313,-1.211 -0.416,-2.531 -0.597,-3.837 -0.077,-0.653 -0.069,-1.264 -0.107,-1.905 l -0.042,-0.956 -0.011,-0.24 -0.002,-0.06 c -0.003,-0.127 0,-0.071 0,-0.116 l 0.006,-0.125 0.023,-0.5 c 0.106,-5.335 1.443,-10.994 4.285,-16.114 2.868,-5.083 7.079,-9.69 12.385,-12.828 1.281,-0.859 2.712,-1.456 4.097,-2.148 0.71,-0.306 1.449,-0.55 2.174,-0.827 l 1.094,-0.403 c 0.371,-0.116 0.751,-0.202 1.126,-0.305 l 2.263,-0.588 2.361,-0.369 1.181,-0.176 1.123,-0.061 2.319,-0.123 c 6.238,0.069 12.538,1.648 17.802,4.896 5.345,3.114 9.61,7.714 12.53,12.815 1.394,2.586 2.564,5.263 3.243,8.019 0.172,0.689 0.372,1.362 0.516,2.055 0.11,0.709 0.22,1.414 0.329,2.114 0.277,1.44 0.236,2.681 0.335,3.985 l 0.026,0.482 0.006,0.12 0.004,0.142 -0.002,0.063 -0.01,0.251 -0.039,1.002 c -0.037,0.665 -0.029,1.328 -0.104,1.98 -0.179,1.3 -0.272,2.595 -0.584,3.832 -0.456,2.509 -1.323,4.829 -2.215,7.012 -1.924,4.323 -4.558,7.853 -7.268,10.564 -2.718,2.721 -5.519,4.617 -7.92,5.973 -0.618,0.307 -1.204,0.598 -1.754,0.871 -0.276,0.136 -0.543,0.268 -0.801,0.395 -0.274,0.11 -0.539,0.216 -0.793,0.318 -1.013,0.385 -1.92,0.794 -2.574,0.957 -1.346,0.406 -2.064,0.623 -2.064,0.623 l -1.002,-3.354 z"
         id="path202" />
    </g>
    <g
       id="g204">
      <path
         inkscape:connector-curvature="0"
         d="m 262.24,479.366 c 0,0 -0.335,0.159 -0.965,0.458 -0.317,0.149 -0.576,0.324 -0.958,0.529 -0.363,0.232 -0.816,0.506 -1.271,0.855 -0.93,0.682 -1.993,1.625 -2.986,2.901 -0.993,1.272 -1.913,2.875 -2.547,4.768 -0.281,0.955 -0.556,1.964 -0.655,3.041 -0.041,0.267 -0.066,0.539 -0.072,0.813 -0.014,0.247 -0.028,0.496 -0.042,0.747 0.024,0.609 0.023,1.273 0.07,1.864 0.093,0.542 0.11,1.077 0.248,1.653 0.149,0.572 0.234,1.172 0.46,1.738 l 0.294,0.869 c 0.11,0.287 0.251,0.562 0.376,0.847 0.232,0.58 0.564,1.114 0.88,1.665 1.294,2.191 3.259,4.071 5.561,5.464 2.3,1.369 5.13,2.078 7.761,2.152 l 1.113,-0.052 c 0.373,-0.015 0.751,-0.027 1.061,-0.092 0.653,-0.095 1.309,-0.182 1.979,-0.38 1.342,-0.309 2.606,-0.866 3.809,-1.494 2.359,-1.344 4.409,-3.198 5.794,-5.4 1.413,-2.183 2.234,-4.622 2.498,-6.988 0.058,-0.592 0.064,-1.182 0.102,-1.76 -0.026,-0.504 -0.013,-1.25 -0.096,-1.734 -0.083,-1.063 -0.357,-2.158 -0.637,-3.143 -0.63,-1.982 -1.58,-3.665 -2.608,-4.999 -1.028,-1.34 -2.132,-2.334 -3.1,-3.055 -0.966,-0.728 -1.798,-1.192 -2.371,-1.49 -0.583,-0.281 -0.893,-0.43 -0.893,-0.43 l 1.018,-2.283 c 0,0 0.356,0.177 1.025,0.509 0.656,0.352 1.608,0.899 2.708,1.75 1.101,0.844 2.353,2.001 3.513,3.552 1.158,1.546 2.22,3.484 2.945,5.751 0.325,1.155 0.623,2.324 0.731,3.659 0.093,0.707 0.069,1.188 0.1,1.92 -0.039,0.66 -0.051,1.332 -0.119,2.009 -0.303,2.706 -1.253,5.491 -2.839,8.005 -1.568,2.53 -3.888,4.681 -6.59,6.245 -1.375,0.738 -2.829,1.386 -4.371,1.76 -0.75,0.227 -1.563,0.353 -2.379,0.469 -0.42,0.077 -0.785,0.09 -1.154,0.108 l -1.112,0.061 -1.255,-0.044 c -0.398,-0.014 -0.796,-0.025 -1.189,-0.095 -0.79,-0.104 -1.579,-0.212 -2.346,-0.431 -1.554,-0.352 -3.022,-0.985 -4.427,-1.694 -2.759,-1.514 -5.164,-3.64 -6.823,-6.18 -0.407,-0.639 -0.825,-1.267 -1.138,-1.946 -0.165,-0.334 -0.345,-0.661 -0.492,-1 -0.134,-0.345 -0.268,-0.688 -0.401,-1.03 -0.525,-1.363 -0.836,-2.771 -1.047,-4.247 -0.078,-0.678 -0.1,-1.276 -0.151,-1.904 l -0.006,-0.147 0.001,-0.064 0.003,-0.127 0.006,-0.254 0.013,-0.505 c 0.001,-0.336 0.023,-0.668 0.063,-0.997 0.093,-1.322 0.39,-2.575 0.713,-3.761 0.72,-2.357 1.812,-4.374 3.006,-5.983 1.195,-1.615 2.487,-2.823 3.626,-3.706 0.566,-0.454 1.099,-0.8 1.58,-1.119 0.496,-0.292 0.962,-0.583 1.271,-0.737 0.622,-0.314 0.953,-0.481 0.953,-0.481 l 1.759,3.59 z"
         id="path206" />
    </g>
    <g
       id="g208">
      <path
         inkscape:connector-curvature="0"
         d="m 261.713,466.163 c 0,0 -0.638,0.191 -1.833,0.55 -1.182,0.375 -2.711,0.988 -4.722,2.023 -1.937,1.096 -4.199,2.621 -6.391,4.815 -2.188,2.185 -4.305,5.033 -5.86,8.507 -0.71,1.76 -1.414,3.622 -1.775,5.64 -0.251,0.994 -0.327,2.036 -0.467,3.082 -0.073,0.523 -0.052,1.059 -0.083,1.593 l -0.03,0.806 -0.007,0.203 -0.004,0.101 c 0.001,0.085 -0.004,-0.059 -0.002,-0.024 l 0.003,0.053 0.024,0.428 c 0.032,0.571 0.064,1.147 0.096,1.726 0.02,0.286 0.024,0.588 0.058,0.864 l 0.132,0.799 c 0.085,0.535 0.171,1.073 0.257,1.614 0.101,0.542 0.278,1.091 0.413,1.641 0.538,2.215 1.493,4.355 2.602,6.436 2.354,4.086 5.776,7.786 10.069,10.27 4.224,2.603 9.265,3.843 14.267,3.896 l 1.906,-0.104 0.997,-0.053 0.898,-0.145 1.793,-0.281 1.811,-0.473 c 0.3,-0.082 0.606,-0.146 0.902,-0.242 l 0.875,-0.325 c 0.58,-0.224 1.173,-0.413 1.74,-0.66 1.106,-0.559 2.255,-1.03 3.278,-1.723 4.252,-2.509 7.616,-6.215 9.914,-10.283 2.261,-4.107 3.328,-8.629 3.407,-12.911 l 0.02,-0.401 0.002,-0.05 c 0.001,-0.034 0.003,0.119 0.001,0.029 l -0.005,-0.107 -0.01,-0.213 -0.039,-0.849 c -0.038,-0.549 -0.026,-1.156 -0.104,-1.646 -0.151,-0.998 -0.225,-1.969 -0.485,-2.96 -0.375,-1.983 -1.087,-3.807 -1.801,-5.528 -1.563,-3.396 -3.667,-6.167 -5.83,-8.283 -2.168,-2.126 -4.393,-3.593 -6.292,-4.644 -1.941,-0.979 -3.538,-1.596 -4.65,-1.933 -1.117,-0.324 -1.713,-0.497 -1.713,-0.497 l 0.962,-3.882 c 0,0 0.682,0.202 1.961,0.58 1.272,0.397 3.1,1.11 5.312,2.251 2.168,1.212 4.7,2.907 7.158,5.348 2.453,2.431 4.832,5.605 6.585,9.49 0.81,1.965 1.596,4.053 2.015,6.312 0.278,1.099 0.386,2.317 0.541,3.522 0.08,0.612 0.06,1.131 0.096,1.708 l 0.034,0.849 0.008,0.213 0.004,0.107 0.002,0.135 -0.003,0.057 -0.023,0.455 c -0.111,4.855 -1.357,9.992 -3.947,14.631 -2.625,4.601 -6.458,8.758 -11.273,11.573 -1.164,0.769 -2.459,1.307 -3.716,1.923 -0.642,0.276 -1.312,0.491 -1.969,0.738 l -0.991,0.358 c -0.334,0.106 -0.679,0.18 -1.019,0.271 l -2.047,0.519 -2.149,0.325 -1.075,0.153 -0.998,0.047 -2.083,0.098 c -5.626,-0.107 -11.281,-1.585 -15.981,-4.543 -4.774,-2.839 -8.549,-7.003 -11.117,-11.586 -1.217,-2.328 -2.244,-4.725 -2.82,-7.192 -0.146,-0.618 -0.327,-1.214 -0.438,-1.84 -0.093,-0.634 -0.186,-1.264 -0.278,-1.891 l -0.133,-0.937 c -0.032,-0.303 -0.031,-0.585 -0.048,-0.877 -0.026,-0.58 -0.052,-1.155 -0.078,-1.727 -0.087,-4.917 1.056,-9.359 2.752,-13.199 1.762,-3.808 4.128,-6.904 6.556,-9.266 2.433,-2.373 4.928,-4.009 7.059,-5.176 2.143,-1.085 4.037,-1.803 5.24,-2.162 1.2,-0.343 1.841,-0.526 1.841,-0.526 l 0.698,2.4 z"
         id="path210" />
    </g>
    <g
       id="g212">
      <path
         inkscape:connector-curvature="0"
         d="m 126.875,242.438 c 0,0 -0.358,0.579 -1.052,1.7 -0.67,1.121 -1.678,2.781 -2.897,5.006 -2.459,4.428 -5.875,11.051 -9.283,19.87 -3.382,8.839 -6.774,19.826 -8.924,32.839 -1.084,6.492 -1.832,13.478 -2.058,20.862 -0.074,1.846 -0.083,3.716 -0.099,5.61 0.045,1.835 0.094,3.828 0.195,5.746 0.298,3.804 0.679,7.742 1.498,11.681 0.326,1.985 0.871,3.944 1.342,5.938 0.25,0.994 0.579,1.971 0.866,2.964 0.292,0.992 0.588,1.988 0.96,2.965 0.352,0.982 0.705,1.97 1.061,2.961 0.405,0.972 0.813,1.949 1.221,2.93 0.387,0.99 0.864,1.947 1.329,2.913 0.477,0.96 0.9,1.951 1.44,2.89 4.03,7.65 9.311,14.967 15.683,21.603 12.696,13.379 29.372,24.075 47.655,32.587 18.371,8.458 38.421,14.694 58.976,20.802 5.133,1.574 10.302,3.13 15.439,5.038 2.56,0.983 5.126,2.017 7.576,3.533 1.22,0.746 2.432,1.635 3.435,2.901 0.5,0.622 0.924,1.38 1.161,2.229 0.158,0.407 0.14,0.871 0.199,1.305 0.027,0.416 0.007,0.699 0.013,1.055 -0.003,2.711 -0.005,5.424 -0.008,8.14 0.025,2.715 0.051,5.433 0.076,8.152 l 0.045,4.079 0.023,2.04 0.003,0.255 c -10e-4,0.033 0.006,0.287 -0.002,0.138 l 0.049,0.508 c 0.027,0.115 0.06,0.138 0.071,0.214 0.014,0.066 0.085,0.19 0.12,0.284 0.786,1.67 3.52,3.01 5.398,3.01 l 0.509,-0.025 c 0.154,-0.012 0.236,-0.037 0.358,-0.05 0.231,-0.042 0.53,-0.095 0.791,-0.183 0.541,-0.153 1.078,-0.378 1.573,-0.659 0.997,-0.539 1.857,-1.336 2.226,-2.131 0.096,-0.197 0.143,-0.389 0.185,-0.576 0.002,-0.093 0.011,-0.184 0.025,-0.276 l 0,-0.509 v -2.04 -4.08 c 0,-5.438 0,-10.87 0,-16.292 v -0.508 -0.257 c -0.005,-0.048 0.02,-0.488 0.023,-0.422 l 0.054,-0.505 0.027,-0.253 c 0.016,-0.096 0.061,-0.24 0.093,-0.358 0.281,-1.064 0.731,-1.784 1.243,-2.434 1.037,-1.297 2.272,-2.19 3.506,-2.938 2.481,-1.519 5.058,-2.541 7.628,-3.514 5.152,-1.9 10.34,-3.391 15.491,-4.904 10.307,-2.978 20.499,-5.88 30.394,-9.244 9.883,-3.339 19.524,-7.108 28.641,-11.418 9.138,-4.322 17.789,-9.235 25.801,-14.674 7.963,-5.499 15.287,-11.562 21.509,-18.297 6.291,-6.666 11.5,-13.973 15.448,-21.6 3.903,-7.645 6.665,-15.555 8.131,-23.403 0.816,-3.91 1.197,-7.814 1.499,-11.63 0.107,-1.905 0.159,-3.822 0.214,-5.664 10e-4,-1.909 0.007,-3.799 -0.051,-5.617 -0.087,-3.665 -0.287,-7.261 -0.607,-10.732 -0.299,-3.477 -0.715,-6.843 -1.211,-10.091 -1.955,-13.006 -5.26,-24.063 -8.598,-32.896 -3.354,-8.843 -6.801,-15.458 -9.275,-19.877 -1.227,-2.219 -2.242,-3.878 -2.919,-5 -0.694,-1.112 -1.052,-1.686 -1.052,-1.686 l -0.006,-0.01 c -0.219,-0.352 -0.112,-0.814 0.239,-1.034 0.343,-0.214 0.792,-0.116 1.018,0.215 0,0 0.384,0.566 1.129,1.664 0.729,1.108 1.82,2.747 3.149,4.945 2.644,4.398 6.292,11.022 9.934,19.91 3.618,8.883 7.188,20.063 9.468,33.268 0.575,3.299 1.071,6.721 1.451,10.26 0.402,3.541 0.682,7.183 0.852,10.955 0.099,1.9 0.132,3.779 0.171,5.685 -0.015,1.971 -0.027,3.918 -0.098,5.915 -0.245,3.974 -0.583,8.05 -1.368,12.152 -1.414,8.221 -4.128,16.61 -8.212,24.648 -4.096,8.029 -9.492,15.732 -16.021,22.692 -6.502,6.996 -14.095,13.241 -22.304,18.875 -8.239,5.603 -17.167,10.509 -26.526,14.81 -9.387,4.313 -19.15,7.996 -29.21,11.249 -10.041,3.271 -20.344,6.063 -30.661,8.902 -5.147,1.44 -10.327,2.862 -15.325,4.635 -2.481,0.898 -4.963,1.866 -7.116,3.154 -1.084,0.626 -2.07,1.369 -2.731,2.186 -0.346,0.392 -0.567,0.879 -0.665,1.115 -0.018,0.043 -0.046,0.056 -0.061,0.125 l -0.03,0.252 -0.06,0.505 c -0.021,0.234 -0.007,-0.037 -0.005,0.084 v 0.254 0.508 c 0,5.421 0,10.854 0,16.292 v 4.08 2.04 l 0,0.511 c -0.014,0.247 -0.035,0.494 -0.062,0.74 -0.087,0.48 -0.224,0.946 -0.423,1.364 -0.813,1.675 -2.131,2.731 -3.497,3.5 -0.69,0.388 -1.417,0.693 -2.184,0.914 -0.386,0.122 -0.759,0.197 -1.196,0.272 -0.215,0.029 -0.469,0.066 -0.654,0.079 l -0.509,0.025 c -0.248,-10e-4 -0.251,-0.009 -0.389,-0.015 l -0.318,-0.02 c -0.209,-0.018 -0.41,-0.055 -0.614,-0.083 -0.401,-0.073 -0.798,-0.156 -1.174,-0.28 -0.763,-0.228 -1.485,-0.54 -2.168,-0.932 -1.353,-0.777 -2.651,-1.843 -3.436,-3.499 -0.086,-0.223 -0.18,-0.401 -0.25,-0.665 -0.065,-0.254 -0.136,-0.558 -0.166,-0.777 l -0.038,-0.508 c -0.009,-0.319 -10e-4,-0.235 -0.002,-0.372 l 0.003,-0.255 0.022,-2.04 0.046,-4.079 c 0.025,-2.719 0.051,-5.437 0.076,-8.152 -0.002,-2.716 -0.005,-5.429 -0.008,-8.14 -0.007,-0.321 0.015,-0.718 -0.016,-0.977 -0.061,-0.229 -0.014,-0.471 -0.126,-0.693 -0.142,-0.452 -0.388,-0.901 -0.746,-1.32 -0.697,-0.849 -1.705,-1.595 -2.804,-2.223 -2.184,-1.29 -4.677,-2.246 -7.168,-3.134 -5.012,-1.765 -10.21,-3.122 -15.375,-4.5 -10.35,-2.723 -20.687,-5.399 -30.751,-8.627 -10.067,-3.206 -19.851,-6.994 -29.18,-11.383 -9.322,-4.394 -18.221,-9.351 -26.408,-15.018 -8.148,-5.71 -15.668,-12.016 -22.078,-19.052 -6.447,-6.99 -11.771,-14.683 -15.785,-22.689 -3.985,-8.019 -6.725,-16.321 -8.125,-24.492 -0.782,-4.072 -1.121,-8.116 -1.37,-12.101 -0.076,-1.984 -0.091,-3.854 -0.116,-5.833 0.023,-1.922 0.041,-3.82 0.123,-5.692 0.133,-3.746 0.393,-7.39 0.75,-10.921 0.333,-3.534 0.783,-6.955 1.314,-10.254 2.085,-13.199 5.568,-24.448 9.142,-33.325 3.587,-8.913 7.269,-15.528 9.926,-19.918 1.336,-2.193 2.436,-3.83 3.171,-4.939 0.745,-1.088 1.129,-1.65 1.129,-1.65 0.234,-0.342 0.701,-0.429 1.043,-0.195 0.33,0.225 0.421,0.673 0.212,1.012 z"
         id="path214" />
    </g>
    <g
       id="g216">
      <path
         inkscape:connector-curvature="0"
         d="m 242.115,146.675 -64.636,3.917 c -0.689,0.042 -1.282,-0.483 -1.324,-1.172 -0.042,-0.689 0.483,-1.282 1.172,-1.323 h 0.001 l 0.076,2.498 c 0.026,0 0.048,-0.017 0.05,-0.046 l -0.009,1.636 -0.02,3.524 -0.04,7.049 c 0.004,2.349 -0.026,4.699 0.008,7.048 l 0.042,3.524 0.011,0.881 0.005,0.44 0.003,0.22 0,0.055 0,0.027 v 0.014 c 0,-0.026 0.002,0.068 -0.001,-0.056 l 0,0.007 0.013,0.109 c 0.004,-0.134 0.042,-0.078 0.064,-0.192 0.019,-0.083 0.003,-0.223 -0.124,-0.411 l -0.002,-0.001 -0.106,3.497 h -0.001 c -0.965,-0.059 -1.7,-0.888 -1.641,-1.853 0.059,-0.965 0.888,-1.699 1.853,-1.641 l 64.636,3.917 -0.211,3.494 -64.636,-3.917 0.212,-3.494 h 0.001 c 0.963,0.058 1.697,0.887 1.638,1.85 -0.053,0.88 -0.75,1.568 -1.604,1.636 l -0.141,0.011 -0.011,-0.002 c -1.447,-0.394 -2.344,-1.438 -2.439,-2.767 l 0.02,-1.826 0.042,-3.524 c 0.034,-2.35 0.003,-4.699 0.008,-7.048 l -0.04,-7.049 -0.021,-3.524 -0.005,-0.881 -0.002,-0.44 -10e-4,-0.22 0,-0.123 0.012,-0.223 c 0.1,-1.22 1.217,-2.226 2.438,-2.202 l 0.024,0 c 0.69,0.013 1.239,0.583 1.226,1.273 -0.012,0.655 -0.532,1.183 -1.174,1.224 h -0.001 l -0.151,-2.495 64.636,-3.917 0.15,2.496 z"
         id="path218" />
    </g>
    <g
       id="g220">
      <path
         inkscape:connector-curvature="0"
         d="m 294.95,144.179 64.636,3.917 -0.151,2.495 h -10e-4 c -0.689,-0.042 -1.213,-0.634 -1.172,-1.323 0.04,-0.654 0.575,-1.16 1.219,-1.174 l 0.029,0 c 1.22,-0.023 2.337,0.982 2.438,2.202 l 0.012,0.223 0,0.123 -10e-4,0.22 -0.002,0.44 -0.005,0.881 -0.02,3.524 -0.041,7.049 c 0.005,2.349 -0.026,4.699 0.008,7.048 l 0.042,3.524 0.02,1.826 c -0.096,1.329 -0.993,2.373 -2.439,2.767 l -0.011,0.002 -0.141,-0.011 c -0.962,-0.077 -1.679,-0.919 -1.602,-1.881 0.071,-0.879 0.78,-1.553 1.636,-1.604 h 10e-4 l 0.212,3.494 -64.636,3.917 -0.211,-3.494 64.636,-3.917 c 0.964,-0.059 1.794,0.676 1.853,1.641 0.059,0.965 -0.676,1.794 -1.641,1.853 h -10e-4 l -0.106,-3.497 -0.002,0.001 c -0.126,0.188 -0.143,0.327 -0.124,0.411 0.022,0.114 0.06,0.058 0.064,0.192 l 0.013,-0.109 0.001,-0.007 c -0.003,0.124 -0.001,0.03 -0.001,0.056 v -0.014 l 0,-0.027 0,-0.055 0.003,-0.22 0.005,-0.44 0.011,-0.881 0.042,-3.524 c 0.034,-2.35 0.003,-4.699 0.008,-7.048 l -0.04,-7.049 -0.02,-3.524 -0.009,-1.636 c 0.001,0.03 0.023,0.047 0.05,0.046 l 0.076,-2.498 h 10e-4 c 0.689,0.042 1.214,0.634 1.172,1.323 -0.042,0.689 -0.634,1.214 -1.324,1.172 l -64.636,-3.917 0.149,-2.497 z"
         id="path222" />
    </g>
    <g
       id="g224">
      <path
         inkscape:connector-curvature="0"
         d="m 399.094,232.992 c 5.263,8.308 9.097,17.49 11.92,26.899 2.826,9.42 4.63,19.148 5.383,28.978 0.186,2.457 0.305,4.92 0.347,7.386 -0.001,0.638 0.031,1.188 10e-4,1.897 l -0.06,1.828 -0.121,3.656 -0.06,1.828 c -0.038,0.613 -0.126,1.236 -0.188,1.854 l -0.408,3.715 c -0.186,2.497 -0.79,4.898 -1.221,7.34 -2.015,9.696 -5.647,19.114 -10.924,27.545 -5.284,8.426 -12.038,15.873 -19.649,22.212 -7.6,6.38 -16.135,11.521 -24.983,15.878 -8.861,4.366 -18.151,7.767 -27.604,10.523 -9.462,2.739 -19.117,4.768 -28.886,6.104 -2.446,0.317 -4.897,0.606 -7.366,0.813 -1.233,0.106 -2.471,0.199 -3.719,0.258 l -0.467,0.026 -0.117,0.007 c -0.119,0.001 0.1,0.005 -0.295,0.005 l -0.257,-0.015 c -0.403,-0.04 -0.692,-0.111 -0.971,-0.208 -0.285,-0.099 -0.56,-0.228 -0.813,-0.389 -1.025,-0.626 -1.734,-1.739 -1.88,-2.939 -0.022,-0.149 -0.024,-0.298 -0.031,-0.448 l -0.001,-0.255 v -0.457 -0.915 -1.83 -3.658 -7.316 -29.267 -58.533 -58.533 -29.266 -14.635 -3.658 c 0.016,-1.238 -0.061,-2.347 0.132,-3.891 0.095,-0.725 0.275,-1.491 0.622,-2.27 0.339,-0.775 0.89,-1.56 1.598,-2.14 1.462,-1.15 3.062,-1.445 4.445,-1.567 l 0.155,-0.007 c -0.217,-0.002 -0.418,0.131 -0.498,0.31 -0.02,0.046 -0.037,0.096 -0.045,0.146 -0.003,0.025 -0.006,0.05 -0.007,0.074 0.002,0.033 0.001,-0.088 0.001,-0.125 l 0,-0.675 0.002,-2.702 0.005,-5.403 0.01,-10.806 0.011,-10.806 -10e-4,-5.403 -0.003,-2.702 0,-0.675 v -0.084 -0.042 -0.011 c 0,-0.022 0.004,0.158 0.002,0.077 l -0.001,-0.021 -0.004,-0.084 c -0.001,-0.017 0,0.052 0.004,0.074 0.019,0.116 0.027,0.117 0.05,0.177 0.08,0.178 0.276,0.302 0.475,0.299 l -0.125,-0.004 c -2.583,-0.204 -5.075,-0.886 -7.398,-1.933 -2.32,-1.052 -4.484,-2.483 -6.33,-4.306 -1.836,-1.823 -3.321,-4.088 -4.153,-6.618 l -0.3,-0.952 c -0.088,-0.32 -0.133,-0.652 -0.201,-0.978 l -0.18,-0.982 -0.065,-0.994 -0.054,-0.986 v -0.884 -1.769 l -0.003,-14.149 c 0,-1.236 0.039,-2.23 -0.185,-3.058 -0.22,-0.904 -0.631,-1.776 -1.232,-2.51 -0.595,-0.738 -1.352,-1.353 -2.208,-1.782 -0.425,-0.222 -0.882,-0.377 -1.347,-0.503 -0.233,-0.063 -0.474,-0.089 -0.711,-0.14 -0.12,-0.018 -0.242,-0.02 -0.362,-0.032 l -0.182,-0.015 -0.091,-0.008 -0.046,-0.004 -0.022,-0.002 c 0.025,-10e-4 -0.088,0 0.05,-0.004 l -0.871,0.03 c -0.218,0.04 -0.423,0.048 -0.657,0.096 -0.477,0.101 -0.95,0.233 -1.397,0.435 -0.898,0.392 -1.727,0.977 -2.375,1.729 -0.66,0.743 -1.134,1.644 -1.408,2.597 -0.136,0.477 -0.233,0.97 -0.252,1.469 l -0.024,0.375 v 0.442 0.885 l 10e-4,14.149 v 1.769 0.884 l -0.005,0.188 -0.007,0.11 -0.014,0.221 -0.027,0.441 -0.054,0.883 -0.175,0.991 c -0.065,0.327 -0.112,0.668 -0.199,0.982 l -0.289,0.921 c -0.807,2.447 -2.236,4.651 -4.019,6.438 -1.792,1.786 -3.906,3.198 -6.177,4.239 -2.274,1.038 -4.717,1.717 -7.246,1.928 l -0.096,0.003 c 0.045,0.003 0.094,-0.024 0.113,-0.064 l 0.012,-0.035 0.002,-0.016 0,0.139 0.002,0.675 0.01,2.702 0.019,5.403 0.037,10.806 0.038,10.806 0.019,5.403 0.009,2.702 0.002,0.675 0,0.084 v 0.042 0.01 c -0.003,-0.144 0,-0.034 -0.001,-0.063 l 0.001,0.021 0.004,0.084 c 0,0 10e-4,-0.04 -0.001,-0.056 -0.012,-0.077 -0.015,-0.063 -0.025,-0.097 -0.035,-0.083 -0.131,-0.151 -0.241,-0.151 l 0.13,0.006 c 1.351,0.136 2.899,0.44 4.233,1.56 0.648,0.559 1.14,1.297 1.439,2.031 0.305,0.738 0.453,1.467 0.542,2.163 0.091,0.695 0.1,1.368 0.107,2.004 v 1.829 3.658 14.633 29.266 58.533 58.533 29.267 7.316 3.658 1.83 0.915 0.457 l -0.004,0.305 c -0.009,0.098 -0.002,0.103 -0.024,0.278 -0.141,1.173 -0.812,2.028 -1.712,2.536 -0.445,0.248 -0.944,0.393 -1.442,0.423 -0.124,0.007 -0.249,0.004 -0.372,0.002 l -0.296,-0.025 -0.456,-0.042 c -1.21,-0.065 -2.443,-0.126 -3.684,-0.224 -2.467,-0.178 -4.905,-0.437 -7.348,-0.724 -9.754,-1.206 -19.404,-3.15 -28.897,-5.729 -9.479,-2.616 -18.825,-5.862 -27.749,-10.126 -8.91,-4.25 -17.558,-9.271 -25.221,-15.653 -7.67,-6.327 -14.598,-13.723 -19.895,-22.242 -0.67,-1.056 -1.244,-2.173 -1.87,-3.257 -0.599,-1.099 -1.258,-2.167 -1.806,-3.292 l -1.575,-3.41 c -0.513,-1.141 -1.09,-2.256 -1.48,-3.447 -1.775,-4.679 -3.205,-9.486 -4.146,-14.38 -0.412,-2.457 -1.001,-4.887 -1.15,-7.375 l -0.361,-3.71 c -0.053,-0.619 -0.134,-1.235 -0.165,-1.854 l -0.039,-1.86 -0.075,-3.717 c -0.027,-1.23 -0.061,-2.493 -0.01,-3.703 0.076,-2.49 0.215,-4.943 0.429,-7.405 0.867,-9.83 2.766,-19.536 5.61,-28.95 2.869,-9.396 6.663,-18.559 11.873,-26.923 0.219,-0.352 0.681,-0.459 1.033,-0.24 0.346,0.216 0.454,0.671 0.248,1.021 -4.92,8.333 -8.443,17.444 -11.045,26.755 -2.598,9.322 -4.188,18.923 -4.743,28.551 -0.134,2.403 -0.211,4.825 -0.197,7.212 -0.009,1.23 0.066,2.404 0.135,3.611 l 0.196,3.594 0.097,1.795 c 0.049,0.597 0.149,1.188 0.222,1.783 l 0.471,3.559 c 0.229,2.386 0.855,4.699 1.309,7.04 1.02,4.66 2.516,9.194 4.302,13.594 0.377,1.129 0.938,2.179 1.435,3.257 l 1.521,3.22 c 0.528,1.062 1.166,2.067 1.742,3.104 0.604,1.022 1.153,2.076 1.798,3.071 2.632,3.948 5.408,7.814 8.614,11.334 l 2.39,2.651 2.563,2.492 c 1.665,1.708 3.523,3.212 5.329,4.772 7.331,6.13 15.556,11.2 24.157,15.503 8.611,4.308 17.679,7.736 26.94,10.521 9.265,2.787 18.773,4.804 28.356,6.178 2.396,0.323 4.806,0.621 7.201,0.834 1.189,0.105 2.39,0.217 3.616,0.26 0.783,0.039 0.779,-0.035 0.973,-0.194 0.145,-0.127 0.188,-0.406 0.195,-0.442 l 0.007,-14.507 v -29.267 -58.533 -58.533 -29.266 -14.632 -3.658 -1.829 c -0.004,-0.582 -0.008,-1.132 -0.074,-1.647 -0.122,-1.044 -0.421,-1.853 -0.962,-2.318 -0.547,-0.483 -1.494,-0.765 -2.546,-0.867 l 0.13,0.006 c -1.017,0.008 -1.986,-0.622 -2.401,-1.525 -0.11,-0.236 -0.179,-0.439 -0.227,-0.738 l -0.025,-0.223 -0.004,-0.084 -0.003,-0.243 0.002,-0.675 0.009,-2.702 0.019,-5.403 0.038,-10.806 0.038,-10.806 0.019,-5.403 0.01,-2.702 0.002,-0.675 0.002,-0.198 c 0.003,-0.118 0.013,-0.235 0.033,-0.352 0.038,-0.234 0.11,-0.464 0.213,-0.677 0.4,-0.862 1.326,-1.444 2.277,-1.433 l -0.095,0.003 c 4.351,-0.349 8.689,-2.273 11.824,-5.329 1.559,-1.536 2.766,-3.397 3.43,-5.433 l 0.244,-0.765 c 0.071,-0.254 0.097,-0.501 0.151,-0.75 l 0.147,-0.748 0.055,-0.883 0.047,-0.806 v -0.884 -1.769 l 10e-4,-14.149 v -0.885 -0.442 l 0.02,-0.508 c 0.018,-0.678 0.134,-1.355 0.31,-2.013 0.352,-1.316 0.987,-2.564 1.873,-3.604 0.883,-1.04 1.972,-1.914 3.212,-2.516 0.616,-0.308 1.274,-0.529 1.944,-0.699 0.34,-0.085 0.724,-0.134 1.087,-0.193 l 0.895,-0.069 c 2.922,-0.076 5.622,1.159 7.519,3.276 0.944,1.049 1.642,2.326 2.048,3.691 0.445,1.45 0.431,2.847 0.421,3.962 l -0.003,14.149 v 1.769 0.884 l 0.046,0.78 0.043,0.771 0.143,0.756 c 0.052,0.251 0.08,0.508 0.149,0.755 l 0.234,0.734 c 0.638,1.952 1.791,3.751 3.295,5.252 3.027,2.985 7.276,4.899 11.519,5.258 l -0.125,-0.004 c 1.105,-0.012 2.178,0.667 2.639,1.667 0.122,0.263 0.197,0.48 0.251,0.819 l 0.026,0.24 0.004,0.084 0.003,0.256 0,0.675 -0.003,2.702 -10e-4,5.403 0.01,10.806 0.01,10.806 0.005,5.403 0.002,2.702 10e-4,0.675 -0.002,0.213 c -0.004,0.137 -0.016,0.273 -0.039,0.41 -0.045,0.272 -0.128,0.539 -0.248,0.787 -0.46,0.999 -1.534,1.694 -2.659,1.684 l 0.155,-0.007 c -1.019,0.115 -1.915,0.406 -2.333,0.859 -0.42,0.415 -0.618,1.11 -0.726,2.102 -0.087,0.883 -0.033,2.221 -0.048,3.419 v 3.658 14.633 29.266 58.533 58.533 29.267 l 0.002,14.386 c 0.003,0.01 0.007,0.031 0.027,0.039 l 0.009,0.004 c 0.008,0.007 0.02,-0.004 -0.082,-0.004 l 0.199,0.012 c -0.319,-0.003 -0.024,-0.004 -0.067,-0.006 l 0.112,-0.006 0.446,-0.022 c 1.188,-0.048 2.383,-0.129 3.581,-0.225 2.393,-0.185 4.79,-0.452 7.183,-0.746 9.568,-1.245 19.072,-3.177 28.368,-5.803 9.288,-2.644 18.41,-5.917 27.085,-10.123 8.663,-4.196 17.001,-9.147 24.396,-15.278 7.415,-6.084 13.985,-13.207 19.141,-21.28 5.147,-8.077 8.721,-17.116 10.751,-26.487 0.434,-2.356 1.047,-4.699 1.238,-7.075 l 0.424,-3.555 c 0.064,-0.595 0.157,-1.18 0.199,-1.783 l 0.075,-1.828 0.151,-3.655 0.075,-1.827 c 0.031,-0.509 0.006,-1.18 0.012,-1.761 -0.021,-2.411 -0.118,-4.823 -0.279,-7.231 -0.669,-9.629 -2.354,-19.208 -4.97,-28.523 -2.648,-9.298 -6.131,-18.389 -10.997,-26.779 -0.208,-0.358 -0.086,-0.817 0.272,-1.025 0.35,-0.203 0.794,-0.092 1.009,0.246 l 0.011,0.019 z"
         id="path226" />
    </g>
    <g
       id="g228">
      <path
         inkscape:connector-curvature="0"
         d="m 176.237,153.576 -52.502,1.341 c -0.69,0.018 -1.264,-0.528 -1.282,-1.218 -0.018,-0.69 0.528,-1.264 1.218,-1.281 l 0.003,0 0.032,2.5 c 0.016,0.002 0.036,-0.012 0.043,-0.022 0.003,-0.007 0.008,-0.02 0.008,-0.026 l -0.004,0.558 -0.01,2.443 -0.021,4.887 0.007,4.887 0.021,2.443 0.008,0.547 0.006,0.075 c 0.003,-0.015 0.003,-0.03 0.002,-0.044 -0.008,-0.042 0.002,-0.023 -0.001,-0.032 l 0.012,-0.027 c 0.015,-0.034 0.028,-0.135 -0.071,-0.254 l -0.001,0 -0.039,3 h -0.003 c -0.828,-0.018 -1.486,-0.703 -1.468,-1.531 0.017,-0.828 0.703,-1.485 1.531,-1.468 l 0.014,0 52.508,1.091 -0.089,3.499 -52.496,-1.591 0.077,-2.999 h 0.003 l 0.163,0.005 c 0.829,0.025 1.48,0.717 1.455,1.546 -0.025,0.829 -0.717,1.48 -1.546,1.456 l -0.109,-0.007 -0.01,-0.001 c -0.916,-0.119 -1.704,-0.666 -2.108,-1.403 -0.106,-0.182 -0.177,-0.382 -0.239,-0.582 -0.026,-0.108 -0.05,-0.187 -0.068,-0.33 l -0.021,-0.196 -0.001,-0.078 0.002,-0.674 0.022,-2.443 0.007,-4.887 -0.021,-4.887 -0.01,-2.443 0.001,-0.664 c 0.016,-0.414 0.142,-0.829 0.362,-1.181 0.428,-0.712 1.251,-1.169 2.084,-1.164 h 0.008 c 0.69,0.004 1.246,0.568 1.242,1.258 -0.005,0.676 -0.547,1.223 -1.218,1.241 h -0.003 l -0.064,-2.499 52.502,-1.341 0.064,2.496 z"
         id="path230" />
    </g>
    <g
       id="g232">
      <path
         inkscape:connector-curvature="0"
         d="m 360.741,151.077 52.502,1.341 -0.064,2.499 h -0.003 c -0.69,-0.018 -1.235,-0.591 -1.218,-1.282 0.018,-0.676 0.568,-1.212 1.239,-1.218 h 0.011 c 0.833,-0.006 1.656,0.451 2.084,1.164 0.221,0.353 0.347,0.768 0.362,1.181 l 10e-4,0.664 -0.01,2.443 -0.021,4.887 0.007,4.887 0.022,2.443 0.002,0.674 -10e-4,0.078 -0.021,0.196 c -0.018,0.143 -0.042,0.221 -0.068,0.33 -0.062,0.2 -0.133,0.4 -0.239,0.582 -0.404,0.738 -1.192,1.284 -2.108,1.403 l -0.01,0.001 c -0.825,0.085 -1.563,-0.514 -1.649,-1.338 -0.086,-0.825 0.513,-1.563 1.338,-1.649 l 0.106,-0.007 0.166,-0.005 h 0.003 l 0.077,2.999 -52.496,1.591 -0.089,-3.499 52.508,-1.091 0.014,0 c 0.829,-0.017 1.514,0.64 1.531,1.468 0.017,0.829 -0.641,1.514 -1.469,1.531 h -0.003 l -0.039,-3 -0.001,0 c -0.1,0.119 -0.085,0.22 -0.071,0.254 l 0.012,0.027 c -0.003,0.009 0.007,-0.009 -0.001,0.032 -10e-4,0.015 0,0.03 0.002,0.044 l 0.007,-0.075 0.007,-0.547 0.022,-2.443 0.007,-4.887 -0.021,-4.887 -0.01,-2.443 -0.004,-0.558 c 0,0.006 0.005,0.019 0.008,0.026 0.007,0.011 0.027,0.025 0.043,0.022 l 0.032,-2.5 0.003,0 c 0.69,0.018 1.235,0.591 1.218,1.281 -0.017,0.69 -0.591,1.235 -1.282,1.218 l -52.501,-1.341 0.065,-2.496 z"
         id="path234" />
    </g>
    <line
       style="fill:none;stroke:#000000;stroke-width:1.70000005;stroke-linecap:round;stroke-linejoin:round;stroke-miterlimit:10"
       x1="268.457"
       y1="441.33801"
       x2="268.457"
       y2="187.455"
       id="line236" />
  </g>
  <circle
     sodipodi:ry="55"
     sodipodi:rx="55"
     sodipodi:cy="75"
     sodipodi:cx="290"
     cx="290"
     cy="75"
     r="55"
     id="circle20"
     style="fill:#0000cc"
     transform="translate(11.357864,0)" />
  <circle
     style="fill:#0000cc"
     id="circle3188"
     r="55"
     cy="75"
     cx="290"
     sodipodi:cx="290"
     sodipodi:cy="75"
     sodipodi:rx="55"
     sodipodi:ry="55"
     transform="translate(-191.25,0)" />
  <circle
     transform="translate(213.96572,0)"
     sodipodi:ry="55"
     sodipodi:rx="55"
     sodipodi:cy="75"
     sodipodi:cx="290"
     cx="290"
     cy="75"
     r="55"
     id="circle3190"
     style="fill:#0000cc" />
  <use
     height="1052.3622"
     width="744.09448"
     y="0"
     x="0"
     style="fill:url(#rg-1);stroke:#000000;stroke-width:3"
     id="shine"
     xlink:href="#shield" />
</svg>
