<svg xmlns="http://www.w3.org/2000/svg" width="600" height="660" xmlns:xlink="http://www.w3.org/1999/xlink">
<defs>
  <radialGradient id="rg" gradientUnits="userSpaceOnUse" cx="220" cy="220" r="405">
    <stop style="stop-color:#ffffff;stop-opacity:.3" offset="0" />
    <stop style="stop-color:#ffffff;stop-opacity:.2" offset="0.2" />
    <stop style="stop-color:#666666;stop-opacity:.1" offset="0.6" />
    <stop style="stop-color:#000000;stop-opacity:.13" offset="1" />
  </radialGradient>
  <path id="shield" d="m 2 2 v 257 c 0 286 298 398 298 398 c 0 0 298 -112 298 -398 V 2 Z" />
  <g id="moth">
	<path d="m 274.44438,45 c -0.0461,-0.0047 -0.0945,-7.81e-4 -0.14453,0.01172 -0.2,0 -0.30039,0.09922 -0.40039,0.199219 -0.1,-0.1 -0.20039,-0.199219 -0.40039,-0.199219 -0.4,0 -0.7,0.399219 -0.5,0.699219 -0.7,0 -0.7,1 0,1 0,0 0.30039,-0.09961 0.40039,-0.09961 0.1,0 0.0996,-3.9e-4 0.0996,0.09961 -0.2,0.1 -0.49961,0.101562 -0.59961,0.101562 -0.7,0.1 -0.60039,1.1 0.0996,1 0.3,0 0.60039,-0.101172 0.90039,-0.201172 0.1,0.1 0.0996,0.101172 0.0996,0.201172 -0.3,0.1 -0.7,0.199219 -1,0.199219 -0.6,-0.2 -0.6,1.100391 0,0.900391 0.4,0 1.00039,-0.200782 1.40039,-0.300782 0,0.1 0.10117,0.200782 0.20117,0.300782 -0.6,0.2 -1.20156,0.398828 -1.60156,0.298828 -0.7,-0.1 -0.89922,0.9 -0.19922,1 0.7,0.1 1.49922,0.0012 2.19922,-0.298828 0,0 0.10156,0.09922 0.10156,0.199218 -0.7,0.3 -1.50156,0.400782 -2.10156,0.300782 -0.5,-0.4 -0.79922,1.00039 -0.19922,0.90039 0.9,0.1 1.90039,-0.100781 2.90039,-0.300781 0,0.1 0.0996,0.199219 0.0996,0.199219 -0.8,0.4 -1.80078,0.5 -2.80078,0.5 -0.7,-0.1 -0.79961,0.9 -0.0996,1 1.2,0.1 2.40078,-0.19961 3.30078,-0.59961 0.1,0.1 0.0992,0.201172 0.19922,0.201172 -1.1,0.5 -2.19883,0.799219 -3.29883,0.699219 -0.7,0 -0.7,1 0,1 1.2,0.1 2.59883,-0.200781 3.79883,-0.800781 0,0.1 0.0996,0.201172 0.0996,0.201172 -1.1,0.6 -2.39844,0.898828 -3.39844,0.798828 -0.4,0.1 -0.60117,0.60039 -0.20117,0.90039 1.4,0.1 2.80078,-0.298828 4.30078,-0.798828 0.1,0 0.19922,0.09961 0.19922,0.09961 -1.3,0.6 -2.8,1.1 -4,1 -0.7,0 -0.7,1 0,1 1.5,0.1 3.09961,-0.401172 4.59961,-1.201172 0,0.1 0.10156,0.101172 0.10156,0.201172 -1.4,0.7 -2.90039,1.198828 -4.40039,1.298828 -0.6,-0.2 -0.6,1.10039 0,0.90039 1.8,0 3.49961,-0.60039 5.09961,-1.40039 l 0.19922,0.300781 c -1.3,0.7 -2.89922,1.100781 -4.69922,1.300781 -0.7,0.1 -0.50078,1.1 0.19922,1 1.9,-0.2 3.60156,-0.8 5.10156,-1.5 0,0.1 0.0992,0.198828 0.19922,0.298828 -1.4,0.7 -3.1,1.200782 -4.5,1.300782 -0.7,0 -0.7,1 0,1 1.7,-0.1 3.69922,-0.69961 5.19922,-1.59961 0,0.1 0.10156,0.199219 0.10156,0.199219 -1.5,0.8 -3.20117,1.4 -4.70117,1.5 -0.4,0.2 -0.4,0.700391 0,0.900391 1.8,-0.1 3.70039,-0.6 5.40039,-1.5 0.1,0.1 0.20078,0.09922 0.30078,0.199218 -1.3,0.7 -2.90078,1.200391 -4.80078,1.400391 -0.7,0.1 -0.50078,1.1 0.19922,1 2,-0.3 3.90117,-0.899219 5.20117,-1.699219 l 0.29883,0.298828 c -1.2,0.6 -2.69922,1.200391 -4.69922,1.400391 -0.7,0.1 -0.50078,1.1 0.19922,1 2.2,-0.3 3.90117,-0.900781 5.20117,-1.800781 0.1,0 0.29883,0.101172 0.29883,0.201172 -1.1,0.8 -2.39999,1.399609 -4.5,1.599609 -0.7,0.1 -0.59844,1.1 0.10156,1 2.3,-0.3 3.79961,-1.000391 5.09961,-1.900391 0.1,0.1 0.29883,0.101172 0.29883,0.201172 -1,0.9 -2.29922,1.39961 -4.19922,1.59961 -0.6,-0.1 -0.30078,1.30039 0.19922,0.90039 2,-0.2 3.50117,-0.800781 4.70117,-1.800781 0.1,0.1 0.19922,0.09922 0.19922,0.199219 -0.89999,0.7 -1.99921,1.10039 -3.19922,1.40039 -0.7,0.2 -0.40117,1.2 0.29883,1 1.3,-0.3 2.60156,-0.899218 3.60156,-1.699218 l 0.29883,0.199218 c -0.69999,0.4 -1.39882,0.8 -2.29883,1 -0.7,0.2 -0.40116,1.2 0.29883,1 1,-0.3 1.90078,-0.80039 2.80078,-1.40039 0.1,0 0.19883,0.101172 0.29883,0.201172 -0.2,0.1 -0.49883,0.298828 -0.79883,0.298828 -0.7,0.1 -0.60039,1.1 0.0996,1 0.5,-0.1 1.10001,-0.299219 1.5,-0.699219 1,0.7 1.90039,1.499609 2.90039,2.099609 -0.69999,1.6 -1.19999,3.4 -1.5,5.5 -0.1,0.1 -0.20078,0.300391 -0.30077,0.400391 -3.8,2.3 -6.79922,5.899609 -8.19923,10.099609 -24.6,-13.3 -74.8,-33.999218 -95.5,-34.199218 -6.69999,0 -23.9996,2.299218 -22.0996,8.699218 3.8,12.8 14,22 25,33.5 6.918,7.206254 19.73684,10.913371 26.52149,9.207031 8.0289,-2.019266 22.64884,-5.948084 61.98632,-8.935546 -23.51632,1.792726 -51.68194,5.987261 -61.9082,9.404296 -4.69775,1.56972 -11.33009,7.44368 -9.20117,11.42383 3.2,5.6 6.60039,8.5 11.90039,11.5 7.4,4.1 16.29961,5.30078 22.09961,5.30078 3.09999,0 5.80155,4.30039 8.60156,5.40039 3.8,1.4 6.69922,0.69922 9.19922,0.69922 3,0 5.30078,1.00117 8.30078,0.20117 4,-1 6.39961,-10.50156 12.0996,-15.60156 -1.19999,26 3.69883,55.1 21.29884,68.5 17.6,-13.4 22.50078,-42.5 21.30077,-68.5 5.7,5.1 8.09961,14.60156 12.09961,15.60156 3,0.8 5.30078,-0.20117 8.30078,-0.20117 2.5,0 5.39922,0.70078 9.19922,-0.69922 2.8,-1.1 5.49961,-5.40039 8.59961,-5.40039 5.8,0 14.70156,-1.20078 22.10156,-5.30078 5.3,-3 8.69844,-5.9 11.89844,-11.5 2.12892,-3.98015 -4.50147,-9.85411 -9.19922,-11.42383 -10.22626,-3.417035 -38.39188,-7.61157 -61.9082,-9.404296 39.33748,2.987462 53.95547,6.91628 61.98437,8.935546 6.78465,1.70634 19.60544,-2.000777 26.52344,-9.207031 11,-11.5 21.2,-20.7 25,-33.5 1.9,-6.4 -15.39961,-8.699218 -22.09961,-8.699218 -20.7,0.2 -70.9,20.899218 -95.5,34.199218 -1.4,-4.2 -4.39922,-7.799609 -8.19922,-10.099609 -0.1,-0.1 -0.20078,-0.300391 -0.30078,-0.400391 -0.3,-2.1 -0.8,-3.9 -1.5,-5.5 1,-0.6 1.90039,-1.399609 2.90039,-2.099609 0.4,0.4 1,0.599219 1.5,0.699219 0.7,0.1 0.79961,-0.9 0.0996,-1 -0.3,0 -0.60078,-0.198828 -0.80078,-0.298828 0.1,-0.1 0.20078,-0.201172 0.30078,-0.201172 0.9,0.6 1.80078,1.10039 2.80078,1.40039 0.7,0.2 0.99883,-0.8 0.29883,-1 -0.9,-0.2 -1.59883,-0.6 -2.29883,-1 l 0.29883,-0.199218 c 1,0.8 2.29961,1.399218 3.59961,1.699218 0.7,0.2 1.00078,-0.8 0.30078,-1 -1.2,-0.3 -2.29922,-0.70039 -3.19922,-1.40039 0,-0.1 0.0992,-0.09922 0.19922,-0.199219 1.2,1 2.69922,1.600781 4.69922,1.800781 0.5,0.4 0.80117,-1.00039 0.20117,-0.90039 -1.9,-0.2 -3.20117,-0.69961 -4.20117,-1.59961 0,-0.1 0.20078,-0.101172 0.30078,-0.201172 1.3,0.9 2.79961,1.600391 5.09961,1.900391 0.7,0.1 0.79961,-0.9 0.0996,-1 -2.1,-0.2 -3.4,-0.799609 -4.5,-1.599609 0,-0.1 0.20078,-0.201172 0.30078,-0.201172 1.3,0.9 2.99922,1.500781 5.19922,1.800781 0.7,0.1 0.90117,-0.9 0.20117,-1 -2,-0.2 -3.50117,-0.800391 -4.70117,-1.400391 l 0.30078,-0.298828 c 1.3,0.8 3.19922,1.399219 5.19922,1.699219 0.7,0.1 0.90117,-0.9 0.20117,-1 -1.9,-0.2 -3.50078,-0.700391 -4.80078,-1.400391 0.1,-0.1 0.20078,-0.09922 0.30078,-0.199218 1.7,0.9 3.60039,1.4 5.40039,1.5 0.4,-0.2 0.4,-0.700391 0,-0.900391 -1.5,-0.1 -3.20117,-0.7 -4.70117,-1.5 0,0 0.0996,-0.09922 0.0996,-0.199219 1.5,0.9 3.50117,1.49961 5.20117,1.59961 0.7,0 0.7,-1 0,-1 -1.4,-0.1 -3.1,-0.600782 -4.5,-1.300782 0.1,-0.1 0.19922,-0.198828 0.19922,-0.298828 1.5,0.7 3.19961,1.3 5.09961,1.5 0.7,0.1 0.90117,-0.9 0.20117,-1 -1.8,-0.2 -3.40117,-0.600781 -4.70117,-1.300781 l 0.20117,-0.300781 c 1.6,0.8 3.29961,1.40039 5.09961,1.40039 0.6,0.2 0.6,-1.10039 0,-0.90039 -1.5,-0.1 -3.00039,-0.598828 -4.40039,-1.298828 0,-0.1 0.0996,-0.101172 0.0996,-0.201172 1.5,0.8 3.10156,1.301172 4.60156,1.201172 0.7,0 0.7,-1 0,-1 -1.2,0.1 -2.7,-0.4 -4,-1 0,0 0.0992,-0.09961 0.19922,-0.09961 1.5,0.5 2.90078,0.898828 4.30078,0.798828 0.4,-0.3 0.19883,-0.80039 -0.20117,-0.90039 -1,0.1 -2.30039,-0.198828 -3.40039,-0.798828 0,0 0.10156,-0.101172 0.10156,-0.201172 1.2,0.6 2.59883,0.900781 3.79883,0.800781 0.7,0 0.7,-1 0,-1 -1.1,0.1 -2.19883,-0.199219 -3.29883,-0.699219 0.1,0 0.0992,-0.101172 0.19922,-0.201172 0.9,0.4 2.10078,0.69961 3.30078,0.59961 0.7,-0.1 0.59844,-1.1 -0.10156,-1 -1,0 -1.99883,-0.1 -2.79883,-0.5 0,0 0.0996,-0.09922 0.0996,-0.199219 1,0.2 2.00039,0.400781 2.90039,0.300781 0.6,0.1 0.29883,-1.30039 -0.20117,-0.90039 -0.6,0.1 -1.39961,-7.82e-4 -2.09961,-0.300782 0,-0.1 0.0996,-0.199218 0.0996,-0.199218 0.7,0.3 1.50117,0.398828 2.20117,0.298828 0.7,-0.1 0.49883,-1.1 -0.20117,-1 -0.4,0.1 -0.99961,-0.09883 -1.59961,-0.298828 0.1,-0.1 0.20117,-0.200782 0.20117,-0.300782 0.4,0.1 0.99844,0.300782 1.39844,0.300782 0.6,0.2 0.6,-1.100391 0,-0.900391 -0.3,0 -0.7,-0.09922 -1,-0.199219 0,-0.1 0.002,-0.101172 0.10156,-0.201172 0.3,0.1 0.59844,0.201172 0.89844,0.201172 0.7,0.1 0.80156,-0.9 0.10156,-1 -0.1,0 -0.40156,-0.0016 -0.60156,-0.101562 0,-0.1 0.002,-0.09961 0.10156,-0.09961 0.1,0 0.39844,0.09961 0.39844,0.09961 0.7,0 0.7,-1 0,-1 0.2,-0.3 -0.1,-0.699219 -0.5,-0.699219 -0.2,0 -0.29844,0.09922 -0.39844,0.199219 -0.1,-0.1 -0.20039,-0.199219 -0.40039,-0.199219 -0.4,-0.1 -0.7,0.399219 -0.5,0.699219 0.1,0.2 0.3,0.3 0.5,0.5 h -0.0996 c -0.2,-0.1 -0.40156,-0.2 -0.60156,-0.5 -0.3,-0.6 -1.19844,-0.1 -0.89844,0.5 0.3,0.5 0.69961,0.7 1.09961,1 0,0 -0.0996,0.101172 -0.0996,0.201172 -0.4,-0.3 -0.70156,-0.5 -1.10156,-1 -0.2,-0.6 -1.19961,0.399609 -0.59961,0.599609 0.4,0.6 0.80078,0.999219 1.30078,1.199219 0,0.1 -0.0996,0.201172 -0.0996,0.201172 -0.6,-0.3 -1,-0.600782 -1.5,-1.300782 -0.4,-0.5 -1.20078,0.09961 -0.80078,0.59961 0.5,0.7 1.20078,1.301172 1.80078,1.701172 -0.1,0.1 -0.10117,0.198828 -0.20117,0.298828 -0.8,-0.4 -1.39883,-0.999219 -1.79883,-1.699219 -0.2,-0.8 -1.4,-0.299609 -1,0.400391 0.6,0.9 1.39844,1.699218 2.39844,2.199218 -0.1,0.1 -0.0996,0.200782 -0.0996,0.300782 -0.9,-0.5 -1.7,-1.201172 -2.5,-2.201172 -0.4,-0.2 -0.89922,0.201562 -0.69922,0.601562 0.7,1 1.69922,1.798828 2.69922,2.298828 -0.1,0.1 -0.0992,0.200782 -0.19922,0.300782 -1.1,-0.6 -1.99961,-1.300782 -2.59961,-2.300782 -0.4,-0.5 -1.20078,0.09961 -0.80078,0.59961 0.7,1 1.70039,1.901562 2.90039,2.601562 -0.1,0.1 -0.0996,0.09922 -0.0996,0.199219 -1.2,-0.7 -2.20078,-1.500781 -2.80078,-2.300781 -0.1,-0.7 -1.29922,0.2 -0.69922,0.5 0.6,1 1.69844,1.901562 2.89844,2.601562 -0.1,0 -0.19883,0.09922 -0.29883,0.199219 -1,-0.7 -2.09961,-1.6 -2.59961,-2.5 -0.3,-0.7 -1.3,-0.2 -1,0.5 0.7,1.1 1.9,1.999219 3,2.699219 0,0.1 -0.10156,0.101172 -0.10156,0.201172 -1.2,-0.7 -2.19844,-1.5 -2.89844,-2.5 -0.2,-0.6 -1.20156,0.399609 -0.60156,0.599609 0.6,1.1 1.60039,1.899219 2.90039,2.699219 0,0.1 -0.0992,0.200781 -0.19922,0.300781 -1.3,-0.7 -2.30117,-1.6 -2.70117,-2.5 -0.3,-0.6 -1.19844,-0.1 -0.89844,0.5 0.6,1 1.6,2.000781 3,2.800781 -0.1,0.1 -0.20117,0.198828 -0.20117,0.298828 -1.3,-0.8 -2.20039,-1.699609 -2.90039,-2.599609 -0.1,-0.7 -1.29922,0.2 -0.69922,0.5 0.7,1.1 1.70039,2.100781 2.90039,2.800781 0,0.1 -0.10117,0.09922 -0.20117,0.199219 -1,-0.7 -2.09922,-1.500391 -2.69922,-2.400391 -0.2,-0.6 -1.20078,0.1 -0.80078,0.5 0.6,1 1.80039,1.901172 2.90039,2.701172 l -0.19922,0.298828 c -1,-0.7 -1.89961,-1.50039 -2.59961,-2.40039 -0.4,-0.2 -0.90117,0.201562 -0.70117,0.601562 0.6,0.9 1.5,1.698438 2.5,2.398438 0,0.1 -0.0992,0.200781 -0.19922,0.300781 -0.8,-0.7 -1.60117,-1.400781 -2.20117,-2.300781 -0.4,-0.5 -1.19883,0.101562 -0.79883,0.601562 0.7,0.9 1.39922,1.698828 2.19922,2.298828 0,0.1 -0.0992,0.201172 -0.19922,0.201172 -0.7,-0.5 -1.20078,-1.2 -1.80078,-2 -0.4,-0.5 -1.19883,0.09961 -0.79883,0.59961 0.6,0.8 1.19844,1.4 1.89844,2 -0.1,0.1 -0.0988,0.198828 -0.29883,0.298828 -0.4,-0.6 -0.90039,-0.999219 -1.40039,-1.699219 -0.2,-0.6 -1.20078,0.1 -0.80078,0.5 0.5,0.7 1.10156,1.300781 1.60156,1.800781 -0.1,0.1 -0.10078,0.198828 -0.30078,0.298828 -0.5,-0.4 -0.79961,-0.9 -1.09961,-1.5 -0.3,-0.7 -1.3,-0.2 -1,0.5 0.4,0.6 0.90039,1.201172 1.40039,1.701172 -0.1,0 -0.20078,0.09922 -0.30078,0.199219 -0.3,-0.4 -0.49922,-0.699219 -0.69922,-1.199219 0,-0.6 -1.30078,-0.0016 -0.80078,0.398438 0.1,0.5 0.39922,1.000781 0.69922,1.300781 0,0 -0.0996,-3.91e-4 -0.0996,0.09961 -0.1,-0.1 -0.0992,-0.09961 -0.19922,-0.09961 0.3,-0.6 -1.30078,-0.400391 -0.80078,0.09961 0,0.2 0.20078,0.39961 0.30078,0.59961 -0.9,0.6 -1.80078,1.3 -2.80078,2 -1.8,-4.2 -4.70039,-6.59961 -7.90039,-6.59961 -3.2,0 -6.09844,2.39961 -7.89844,6.59961 -1,-0.7 -1.90078,-1.4 -2.80078,-2 0.10001,-0.2 0.30078,-0.39961 0.30078,-0.59961 0.5,-0.5 -1.10078,-0.699609 -0.80078,-0.09961 -0.1,0 -0.0992,-3.91e-4 -0.19922,0.09961 0,-0.1 -0.10156,-0.09961 -0.10156,-0.09961 0.3,-0.3 0.60117,-0.800781 0.70117,-1.300781 0.5,-0.4 -0.80078,-0.998438 -0.80078,-0.398438 -0.2,0.5 -0.39922,0.799219 -0.69922,1.199219 -0.1,-0.1 -0.20078,-0.199219 -0.30078,-0.199219 0.5,-0.5 1.00039,-1.101172 1.40039,-1.701172 0.3,-0.7 -0.7,-1.2 -1,-0.5 -0.3,0.6 -0.59961,1.1 -1.09961,1.5 -0.19999,-0.1 -0.20078,-0.198828 -0.30077,-0.298828 0.5,-0.5 1.09961,-1.100781 1.59961,-1.800781 0.39999,-0.4 -0.59884,-1.1 -0.79884,-0.5 -0.5,0.7 -1.00038,1.099219 -1.40039,1.699219 -0.2,-0.1 -0.20078,-0.198828 -0.30077,-0.298828 0.69999,-0.6 1.30038,-1.2 1.90039,-2 0.39999,-0.5 -0.39883,-1.09961 -0.79883,-0.59961 -0.60001,0.8 -1.10078,1.5 -1.80078,2 -0.1,0 -0.19922,-0.101172 -0.19922,-0.201172 0.8,-0.6 1.49921,-1.398828 2.19922,-2.298828 0.4,-0.5 -0.40078,-1.101562 -0.80078,-0.601562 -0.6,0.9 -1.39922,1.600781 -2.19922,2.300781 -0.1,-0.1 -0.19922,-0.200781 -0.19922,-0.300781 1,-0.7 1.89999,-1.498438 2.5,-2.398438 0.19999,-0.4 -0.30118,-0.801562 -0.70117,-0.601562 -0.7,0.9 -1.59961,1.70039 -2.59961,2.40039 l -0.19922,-0.298828 c 1.1,-0.8 2.29844,-1.701172 2.89844,-2.701172 0.39999,-0.4 -0.59884,-1.1 -0.79884,-0.5 -0.6,0.9 -1.70116,1.700391 -2.70116,2.400391 -0.10001,-0.1 -0.19923,-0.09922 -0.19923,-0.199219 1.2,-0.7 2.2004,-1.700781 2.90039,-2.800781 0.60001,-0.3 -0.60117,-1.2 -0.70116,-0.5 -0.7,0.9 -1.59844,1.799609 -2.89844,2.599609 0,-0.1 -0.10118,-0.198828 -0.20117,-0.298828 1.39999,-0.8 2.39999,-1.800781 3,-2.800781 0.3,-0.6 -0.60039,-1.1 -0.90039,-0.5 -0.4,0.9 -1.39923,1.8 -2.69923,2.5 -0.1,-0.1 -0.19922,-0.200781 -0.19922,-0.300781 1.3,-0.8 2.29844,-1.599219 2.89844,-2.699219 0.6,-0.2 -0.39961,-1.199609 -0.59961,-0.599609 -0.7,1 -1.70039,1.8 -2.90039,2.5 0,-0.1 -0.0996,-0.101172 -0.0996,-0.201172 1.1,-0.7 2.3,-1.599219 3,-2.699219 0.3,-0.7 -0.7,-1.2 -1,-0.5 -0.5,0.9 -1.59961,1.8 -2.59961,2.5 -0.1,-0.1 -0.20078,-0.199219 -0.30078,-0.199219 1.2,-0.7 2.30039,-1.601562 2.90039,-2.601562 0.60001,-0.3 -0.59922,-1.2 -0.69922,-0.5 -0.6,0.8 -1.60078,1.600781 -2.80078,2.300781 0,-0.1 3.9e-4,-0.09922 -0.0996,-0.199219 1.2,-0.7 2.2004,-1.601562 2.9004,-2.601562 0.39999,-0.5 -0.40078,-1.09961 -0.80078,-0.59961 -0.6,1 -1.49961,1.700782 -2.59961,2.300782 -0.1,-0.1 -0.0992,-0.200782 -0.19922,-0.300782 1,-0.5 1.99921,-1.298828 2.69922,-2.298828 0.2,-0.4 -0.29922,-0.801562 -0.69922,-0.601562 -0.8,1 -1.60001,1.701172 -2.5,2.201172 0,-0.1 -0.002,-0.200782 -0.10156,-0.300782 1,-0.5 1.80039,-1.299218 2.40039,-2.199218 0.4,-0.7 -0.8,-1.200391 -1,-0.400391 -0.4,0.7 -0.99883,1.299219 -1.79883,1.699219 -0.10001,-0.1 -0.10118,-0.198828 -0.20117,-0.298828 0.6,-0.4 1.30078,-1.001172 1.80078,-1.701172 0.39999,-0.5 -0.40078,-1.09961 -0.80078,-0.59961 -0.5,0.7 -0.9,1.000782 -1.5,1.300782 0,0 -0.0996,-0.101172 -0.0996,-0.201172 0.5,-0.2 0.90078,-0.599219 1.30077,-1.199219 0.60001,-0.2 -0.40156,-1.199609 -0.60156,-0.599609 -0.39999,0.5 -0.69961,0.7 -1.0996,1 0,-0.1 -0.0996,-0.201172 -0.0996,-0.201172 0.4,-0.3 0.79961,-0.5 1.09961,-1 0.3,-0.6 -0.60039,-1.1 -0.90039,-0.5 -0.2,0.3 -0.39961,0.4 -0.59961,0.5 h -0.0996 c 0.2,-0.2 0.4,-0.3 0.5,-0.5 0.175,-0.2625 -0.0328,-0.678125 -0.35547,-0.710939 z" />
	<path style="fill:#000000;opacity:0.5;" d="m 308,162.1 c 1.1,0.1 2.3,0.4 3,0.9 1.4,1 -0.3,4.5 -2.1,5.1 -1.6,0.6 -3.3,0.2 -4.6,-0.3 -1.7,-0.4 -1,-4.1 0.5,-4.9 0.7,-0.6 2,-0.9 3.2,-0.8 z m -16,0 c 1.1,-0.1 2.4,0.2 3.3,0.8 1.3,0.8 2,4.5 0.3,4.9 -1.3,0.5 -3.1,0.9 -4.6,0.3 -1.8,-0.6 -3.6,-4.1 -2.1,-5.1 0.7,-0.5 1.9,-0.8 3.1,-0.9 z m 18.3,-11.1 c 1.2,0 2.4,0.2 3.4,0.7 1.7,0.7 0.5,5.2 -1.6,5.6 -2.1,0.5 -4.9,1.2 -7.2,0.3 -1.7,-0.5 -1.3,-4.2 0.1,-5.3 1.3,-0.9 3.3,-1.4 5.3,-1.3 z m -20.8,0 c 2.1,-0.1 4,0.4 5.3,1.3 1.5,1.1 1.9,4.8 0.2,5.3 -2.3,0.9 -5.1,0.2 -7.3,-0.3 -2,-0.4 -3.2,-4.9 -1.5,-5.6 1,-0.5 2.2,-0.7 3.3,-0.7 z m 22.7,-10.9 c 1.6,0 2.9,0.2 3.9,0.8 1.6,1 0.8,4.8 -0.9,5.6 -2.5,1.2 -7.2,2.3 -10.1,0.5 -1.4,-0.9 -1.5,-4.4 0,-5.2 1.9,-0.8 4.7,-1.6 7.1,-1.7 z m -25.3,0 c 2.6,-0.1 5.8,0.8 7.9,1.7 1.5,0.8 1.4,4.3 0,5.2 -2.9,1.8 -7.6,0.7 -10.1,-0.5 -1.8,-0.8 -2.4,-4.6 -0.9,-5.6 0.8,-0.5 1.9,-0.7 3.1,-0.8 z m 27.4,-11 c 1,0 2.1,0.2 3,0.5 1.7,0.6 1.1,4.7 -0.5,5.5 -3.1,1.9 -8.6,3.7 -11.8,1.5 -1.4,-1.1 -1.5,-4.4 0,-5.3 2.1,-1.5 6,-2.3 9.3,-2.2 z m -28.6,0 c 3.2,-0.1 7.1,0.7 9.2,2.2 1.5,0.9 1.4,4.2 -0.1,5.3 -3.1,2.2 -8.6,0.4 -11.7,-1.5 -1.6,-0.8 -2.2,-4.9 -0.5,-5.5 0.9,-0.3 2,-0.5 3.1,-0.5 z m 27.3,-11.4 c 1.5,0.1 2.9,0.3 4.2,0.9 1.6,0.7 1.5,4.4 0.1,5.6 -2.9,2.5 -9.1,3.7 -12.5,1.8 -1.6,-0.8 -1.6,-4.1 -0.4,-5.3 1.8,-1.9 5.4,-3 8.6,-3 z m -26.1,0 c 3.2,0 6.7,1.1 8.5,3 1.3,1.2 1.3,4.5 -0.3,5.3 -3.5,1.9 -9.6,0.7 -12.6,-1.8 -1.3,-1.2 -1.5,-4.9 0.2,-5.6 1.2,-0.6 2.7,-0.8 4.2,-0.9 z m 91.6,-16.9 c 6.4,7.1 0.7,15.1 -8.5,5.3 4.8,10.2 -3,12.9 -9.4,5.2 3.4,13.4 -5.5,11.9 -10.4,5.6 1.5,7 -4.3,13.5 -10.8,3.8 1,10.8 -4.9,13.1 -11.7,2.7 2.7,2.7 9.5,8.1 11.7,-2.7 6.5,3.5 9.9,2.5 10.8,-3.8 3.3,2.2 8.6,5.6 10.4,-5.6 5.3,2.1 10.2,3.5 9.4,-5.2 7,4.2 9.7,-0.2 8.5,-5.3 z m -156.9,0 c -1.3,5.1 1.4,9.5 8.4,5.3 -0.8,8.7 4.2,7.3 9.4,5.2 1.8,11.2 7,7.8 10.3,5.6 0.9,6.3 4.3,7.3 10.8,3.8 2.2,10.8 9.1,5.4 11.7,2.7 -6.9,10.4 -12.7,8.1 -11.7,-2.7 -6.5,9.7 -12.3,3.2 -10.8,-3.8 -4.9,6.3 -13.7,7.8 -10.3,-5.6 -6.4,7.7 -14.2,5 -9.4,-5.2 -9.2,9.8 -14.9,1.8 -8.4,-5.3 z m 78.30078,-20.700391 c -12.9,0 -16.70117,6.3 -16.70117,15.5 0,8.400001 7.20117,8.700001 7.20117,12.000001 0,5.1 1.3,4.90039 9.5,4.90039 8.1,0 9.59961,0.19961 9.59961,-4.90039 0,-3.3 7.19922,-3.6 7.19922,-12.000001 0,-9.2 -3.99883,-15.5 -16.79883,-15.5 z m -8.18164,10.97461 c 0.19824,-0.008 0.39258,3.9e-4 0.58008,0.02539 1.2,0 3.40039,1.301172 3.40039,2.701172 0,1.7 -2.19883,3.098438 -3.79883,2.898438 -1.6,0 -3.40156,-1.99961 -3.10156,-3.59961 0,-1.1375 1.53223,-1.969336 2.91992,-2.02539 z m 15.88086,0.02539 h 0.59961 c 1.3,0 2.70039,0.9 2.90039,2 0.3,1.6 -1.49961,3.59961 -3.09961,3.59961 -1.6,0.2 -3.80078,-1.198438 -3.80078,-2.898438 0,-1.4 2.00039,-2.701172 3.40039,-2.701172 z m -7.69922,5.300782 c 1,0 2,4.498829 2,5.798829 0,1.2 -1.1,0.10156 -2,0.10156 -0.8,0 -1.90039,1.09844 -1.90039,-0.10156 0,-1.3 1.00039,-5.798829 1.90039,-5.798829 z m 111.89922,-42.400391 c 10.7,0.4 13.8,2.1 15.2,7.5 0.5,3 -5.7,7.2 -5.7,7.2 4.4,-16.8 -45.1,-0.8 -97.5,17.2 0,0 74.3,-32.7 88,-31.9 z m -223.6,0 c 13.7,-0.8 87.9,31.9 87.9,31.9 -52.3,-18 -101.8,-34 -97.4,-17.2 0,0 -6.3,-4.2 -5.6,-7.2 1.2,-5.4 4.3,-7.1 15.1,-7.5 z" />
  </g>
</defs>
<use id="bg" style="fill:#ffffee;" xlink:href="#shield" />
<path style="fill:#999999;" d="m 2,2 1,1
                               a 49.5,49.5 0 0 1 49.5,49.5 a 49.5,49.5 0 0 1 49.5,49.5 a 49.5,49.5 0 0 1 49.5,49.5 a 49.5,49.5 0 0 1 49.5,49.5 a 49.5,49.5 0 0 1 49.5,49.5 a 49.5,49.5 0 0 1 49.5,49.5
                               a 49.5,49.5 0 0 1 49.5,-49.5 a 49.5,49.5 0 0 1 49.5,-49.5 a 49.5,49.5 0 0 1 49.5,-49.5 a 49.5,49.5 0 0 1 49.5,-49.5 a 49.5,49.5 0 0 1 49.5,-49.5 a 49.5,49.5 0 0 1 49.5,-49.5 
                               l 1,-1 z" />
<use style="fill:#ffffee;" xlink:href="#moth" />
<use style="fill:#999999;" transform="translate(-145 275)" xlink:href="#moth" />
<use style="fill:#999999;" transform="translate(145 275)" xlink:href="#moth" />
<use id="shine" style="fill:url(#rg);stroke:#000000;stroke-width:3;" xlink:href="#shield" />
</svg>
