<?xml version="1.0" encoding="UTF-8"?>
<svg xmlns="http://www.w3.org/2000/svg" xmlns:xlink="http://www.w3.org/1999/xlink" width="600" height="660">
<defs>
  <radialGradient id="rg" gradientUnits="userSpaceOnUse" cx="220" cy="220" r="405">
    <stop style="stop-color:#ffffff;stop-opacity:.3" offset="0"/>
    <stop style="stop-color:#ffffff;stop-opacity:.2" offset=".2"/>
    <stop style="stop-color:#666666;stop-opacity:.1" offset=".6"/>
    <stop style="stop-color:#000000;stop-opacity:.13" offset="1"/>
  </radialGradient>
  <path id="shield" d="m2,2v257c0,286 298,398 298,398c0,0 298-112 298-398V2z"/>
</defs>
<use id="bg" xlink:href="#shield" style="fill:#880000;"/>
<path style="fill:#ffffdd;" d="m 300,222.65 c -34.04,0 -26.36,7.37 -44.86,14.33 -18.19,6.88 -21.58,2.12 -28.26,0 -6.68,-2.13 -19.45,35.54 -16.71,36.45 2.73,0.91 14.28,9.1 15.49,17.01 1.22,7.9 -8.51,26.43 -10.63,28.85 -2.13,2.44 0,11.85 1.21,14.28 1.22,2.44 2.13,14.89 3.96,25.83 1.82,10.93 12.76,16.71 17.01,22.47 4.25,5.78 8.96,28.57 6.07,43.76 -1.03,5.44 2.6,11.59 11.1,23.73 8.51,12.15 12.3,61.03 13.81,76.82 1.53,15.8 15.7,47.75 26.13,36.6 4.34,-4.63 2.02,-19.18 5.68,-19.18 3.66,0 1.34,14.55 5.68,19.18 10.43,11.15 24.6,-20.8 26.12,-36.6 1.52,-15.79 5.31,-64.67 13.82,-76.82 8.5,-12.14 12.13,-18.29 11.1,-23.73 -2.89,-15.19 1.81,-37.98 6.07,-43.76 4.25,-5.76 15.19,-11.54 17.01,-22.47 1.83,-10.94 2.74,-23.39 3.95,-25.83 1.22,-2.43 3.35,-11.84 1.22,-14.28 -2.13,-2.42 -11.85,-20.95 -10.63,-28.85 1.2,-7.91 12.76,-16.1 15.49,-17.01 2.74,-0.91 -10.03,-38.58 -16.71,-36.45 -6.68,2.12 -10.07,6.88 -28.26,0 -18.5,-6.96 -10.82,-14.33 -44.86,-14.33 z m -79.2,113.81 c 0,0 10.51,12.13 13.17,15.1 13.23,14.76 37.44,21.9 18.49,35.07 0,0 -27.44,-24.6 -31.66,-50.17 z m 158.39,0 c -4.21,25.57 -31.65,50.17 -31.65,50.17 -18.96,-13.17 5.26,-20.31 18.49,-35.07 2.66,-2.97 13.16,-15.1 13.16,-15.1 z m -89.13,157.35 c 0.77,0.12 0.38,6.59 1.74,6.56 1.9,0 1.87,-6.1 2.11,-5.78 2.17,3.02 1.18,16.24 0.41,25.26 -0.75,9.03 -2.14,21.54 -5.37,21.38 -8.91,-0.43 -7.19,-22.38 -6.11,-28.68 1.01,-5.9 -0.51,-17.71 2.77,-18.06 0.36,0 -0.12,6.27 1.06,6.55 1.67,0.42 2.55,-7.31 3.39,-7.23 z m 19.88,0 c 0.84,-0.1 1.72,7.65 3.39,7.23 1.18,-0.28 0.7,-6.55 1.06,-6.55 3.28,0.35 1.76,12.16 2.76,18.06 1.09,6.3 2.81,28.25 -6.1,28.68 -3.24,0.16 -4.62,-12.35 -5.37,-21.38 -0.77,-9.02 -1.76,-22.24 0.41,-25.26 0.24,-0.32 0.21,5.78 2.11,5.78 1.36,0 0.97,-6.44 1.74,-6.56 z"/>
<path style="fill:#ccccaa;" d="m 370.69,236.05 c 72.2,-22.38 94.78,-28.24 118.48,-45.25 23.69,-17.02 38.88,-46.18 28.56,-98.429 -10.33,-52.264 -10.65,-50.439 -3.35,-43.151 7.29,7.294 31.29,52.26 33.12,96.01 1.82,43.74 -17.02,72.9 -73.53,96 -56.5,23.08 -56.21,24.05 -80.2,35.53 -13.15,6.3 -37,-36.39 -23.08,-40.71 z m -141.38,0 c -72.2,-22.38 -94.78,-28.24 -118.48,-45.25 -23.692,-17.02 -38.882,-46.18 -28.558,-98.429 10.323,-52.264 10.643,-50.439 3.343,-43.151 -7.288,7.294 -31.291,52.26 -33.112,96.01 -1.823,43.74 17.012,72.9 73.517,96 56.51,23.08 56.22,24.05 80.21,35.53 13.15,6.3 37,-36.39 23.08,-40.71 z"/>
<use id="shine" xlink:href="#shield" style="fill:url(#rg);stroke:#000000;stroke-width:3;"/>
</svg>
