<?xml version="1.0" encoding="UTF-8" standalone="no"?>
<svg
   xmlns:dc="http://purl.org/dc/elements/1.1/"
   xmlns:cc="http://creativecommons.org/ns#"
   xmlns:rdf="http://www.w3.org/1999/02/22-rdf-syntax-ns#"
   xmlns:svg="http://www.w3.org/2000/svg"
   xmlns="http://www.w3.org/2000/svg"
   xmlns:xlink="http://www.w3.org/1999/xlink"
   xmlns:sodipodi="http://sodipodi.sourceforge.net/DTD/sodipodi-0.dtd"
   xmlns:inkscape="http://www.inkscape.org/namespaces/inkscape"
   width="600"
   height="660"
   id="svg2"
   version="1.1"
   inkscape:version="0.48.2 r9819"
   sodipodi:docname="House_Graceford.svg">
  <metadata
     id="metadata24">
    <rdf:RDF>
      <cc:Work
         rdf:about="">
        <dc:format>image/svg+xml</dc:format>
        <dc:type
           rdf:resource="http://purl.org/dc/dcmitype/StillImage" />
        <dc:title></dc:title>
      </cc:Work>
    </rdf:RDF>
  </metadata>
  <sodipodi:namedview
     pagecolor="#ffffff"
     bordercolor="#666666"
     borderopacity="1"
     objecttolerance="10"
     gridtolerance="10"
     guidetolerance="10"
     inkscape:pageopacity="0"
     inkscape:pageshadow="2"
     inkscape:window-width="1366"
     inkscape:window-height="715"
     id="namedview22"
     showgrid="false"
     inkscape:zoom="0.71515155"
     inkscape:cx="61.467607"
     inkscape:cy="356.32007"
     inkscape:window-x="-8"
     inkscape:window-y="-8"
     inkscape:window-maximized="1"
     inkscape:current-layer="layer2" />
  <defs
     id="defs4">
    <inkscape:path-effect
       is_visible="true"
       id="path-effect3136"
       effect="spiro" />
    <inkscape:path-effect
       effect="spiro"
       id="path-effect3132"
       is_visible="true" />
    <inkscape:path-effect
       effect="spiro"
       id="path-effect3101"
       is_visible="true" />
    <inkscape:path-effect
       is_visible="true"
       id="path-effect3085"
       effect="spiro" />
    <inkscape:path-effect
       is_visible="true"
       id="path-effect3083"
       effect="spiro" />
    <inkscape:path-effect
       is_visible="true"
       id="path-effect3081"
       effect="spiro" />
    <inkscape:path-effect
       is_visible="true"
       id="path-effect3079"
       effect="spiro" />
    <inkscape:path-effect
       is_visible="true"
       id="path-effect3077"
       effect="spiro" />
    <inkscape:path-effect
       is_visible="true"
       id="path-effect3075"
       effect="spiro" />
    <inkscape:path-effect
       effect="spiro"
       id="path-effect3049"
       is_visible="true" />
    <inkscape:path-effect
       is_visible="true"
       id="path-effect3045"
       effect="spiro" />
    <inkscape:path-effect
       effect="spiro"
       id="path-effect3041"
       is_visible="true" />
    <radialGradient
       id="rg"
       gradientUnits="userSpaceOnUse"
       cx="220"
       cy="220"
       r="405">
      <stop
         style="stop-color:#fff;stop-opacity:.3"
         offset="0"
         id="stop7" />
      <stop
         style="stop-color:#fff;stop-opacity:.2"
         offset=".2"
         id="stop9" />
      <stop
         style="stop-color:#666;stop-opacity:.1"
         offset=".6"
         id="stop11" />
      <stop
         style="stop-color:#000;stop-opacity:.13"
         offset="1"
         id="stop13" />
    </radialGradient>
    <path
       id="shield"
       d="m2,2v257c0,286 298,398 298,398c0,0 298-112 298-398V2z" />
    <radialGradient
       inkscape:collect="always"
       xlink:href="#rg-7"
       id="radialGradient3055-1"
       gradientUnits="userSpaceOnUse"
       cx="220"
       cy="220"
       r="405" />
    <radialGradient
       id="rg-7"
       gradientUnits="userSpaceOnUse"
       cx="220"
       cy="220"
       r="405">
      <stop
         style="stop-color:#fff;stop-opacity:.3"
         offset="0"
         id="stop7-4" />
      <stop
         style="stop-color:#fff;stop-opacity:.2"
         offset=".2"
         id="stop9-0" />
      <stop
         style="stop-color:#666;stop-opacity:.1"
         offset=".6"
         id="stop11-9" />
      <stop
         style="stop-color:#000;stop-opacity:.13"
         offset="1"
         id="stop13-4" />
    </radialGradient>
    <radialGradient
       r="405"
       cy="220"
       cx="220"
       gradientUnits="userSpaceOnUse"
       id="radialGradient3074"
       xlink:href="#rg-7"
       inkscape:collect="always" />
    <inkscape:path-effect
       is_visible="true"
       id="path-effect10120-1"
       effect="spiro" />
    <inkscape:path-effect
       effect="spiro"
       id="path-effect10118-3"
       is_visible="true" />
    <inkscape:path-effect
       effect="spiro"
       id="path-effect10116-9"
       is_visible="true" />
    <inkscape:path-effect
       effect="spiro"
       id="path-effect10114-7"
       is_visible="true" />
    <inkscape:path-effect
       effect="spiro"
       id="path-effect10112-7"
       is_visible="true" />
    <inkscape:path-effect
       effect="spiro"
       id="path-effect10110-2"
       is_visible="true" />
    <linearGradient
       inkscape:collect="always"
       xlink:href="#linearGradient4719-5"
       id="linearGradient4039"
       gradientUnits="userSpaceOnUse"
       gradientTransform="matrix(2.3257341,0,0,2.2943177,447.69485,-1820.2799)"
       x1="-145.25935"
       y1="984.24286"
       x2="-64.14286"
       y2="984.14789" />
    <linearGradient
       inkscape:collect="always"
       id="linearGradient4719-5">
      <stop
         style="stop-color:#666666;stop-opacity:1;"
         offset="0"
         id="stop4721-5" />
      <stop
         id="stop4809-1"
         offset="0.39344174"
         style="stop-color:#666666;stop-opacity:0.74901961;" />
      <stop
         style="stop-color:#666666;stop-opacity:0;"
         offset="1"
         id="stop4723-7" />
    </linearGradient>
    <radialGradient
       inkscape:collect="always"
       xlink:href="#linearGradient4801-8"
       id="radialGradient4041"
       gradientUnits="userSpaceOnUse"
       gradientTransform="matrix(-0.72153181,1.2650715,-2.2729984,-1.2616144,1712.0113,1733.7841)"
       cx="-307.14288"
       cy="782.36218"
       fx="-307.14288"
       fy="782.36218"
       r="63" />
    <linearGradient
       inkscape:collect="always"
       id="linearGradient4801-8">
      <stop
         style="stop-color:#000000;stop-opacity:1;"
         offset="0"
         id="stop4803-2" />
      <stop
         style="stop-color:#000000;stop-opacity:0;"
         offset="1"
         id="stop4805-4" />
    </linearGradient>
    <inkscape:path-effect
       effect="spiro"
       id="path-effect10108-4"
       is_visible="true" />
    <linearGradient
       inkscape:collect="always"
       xlink:href="#linearGradient4719-5"
       id="linearGradient4044"
       gradientUnits="userSpaceOnUse"
       gradientTransform="matrix(-2.4055369,0,0,-1.6485021,142.06168,1726.5307)"
       x1="-145.25935"
       y1="984.24286"
       x2="-64.14286"
       y2="984.14789" />
    <radialGradient
       inkscape:collect="always"
       xlink:href="#linearGradient4801-8"
       id="radialGradient4046"
       gradientUnits="userSpaceOnUse"
       gradientTransform="matrix(0.74628962,-0.90897301,2.3509914,0.90648896,-1165.637,-827.11785)"
       cx="-307.14288"
       cy="782.36218"
       fx="-307.14288"
       fy="782.36218"
       r="63" />
    <inkscape:path-effect
       effect="spiro"
       id="path-effect10102-7"
       is_visible="true" />
    <linearGradient
       inkscape:collect="always"
       xlink:href="#linearGradient4719-5"
       id="linearGradient4049"
       gradientUnits="userSpaceOnUse"
       gradientTransform="matrix(2.334989,0,0,-1.6146975,449.44065,1692.189)"
       x1="-145.25935"
       y1="984.24286"
       x2="-64.14286"
       y2="984.14789" />
    <radialGradient
       inkscape:collect="always"
       xlink:href="#linearGradient4801-8"
       id="radialGradient4051"
       gradientUnits="userSpaceOnUse"
       gradientTransform="matrix(-0.72440295,-0.89033332,-2.2820431,0.88790031,1718.7881,-809.09364)"
       cx="-307.14288"
       cy="782.36218"
       fx="-307.14288"
       fy="782.36218"
       r="63" />
    <inkscape:path-effect
       is_visible="true"
       id="path-effect10096-8"
       effect="spiro" />
    <linearGradient
       inkscape:collect="always"
       xlink:href="#linearGradient4719-5"
       id="linearGradient4054"
       gradientUnits="userSpaceOnUse"
       gradientTransform="matrix(-2.409599,0,0,2.2818507,139.61083,-1810.8163)"
       x1="-145.25935"
       y1="984.24286"
       x2="-64.14286"
       y2="984.14789" />
    <radialGradient
       inkscape:collect="always"
       xlink:href="#linearGradient4801-8"
       id="radialGradient4056"
       gradientUnits="userSpaceOnUse"
       gradientTransform="matrix(0.74754985,1.2581972,2.3549614,-1.2547588,-1170.296,1723.935)"
       cx="-307.14288"
       cy="782.36218"
       fx="-307.14288"
       fy="782.36218"
       r="63" />
    <inkscape:path-effect
       is_visible="true"
       id="path-effect10090-3"
       effect="spiro" />
    <inkscape:path-effect
       effect="spiro"
       id="path-effect10084-1"
       is_visible="true" />
    <inkscape:path-effect
       effect="spiro"
       id="path-effect10082-1"
       is_visible="true" />
    <radialGradient
       inkscape:collect="always"
       xlink:href="#linearGradient4801-8"
       id="radialGradient4061"
       gradientUnits="userSpaceOnUse"
       gradientTransform="matrix(-0.76516322,1.2901254,-2.4104477,-1.2865998,1806.8444,1757.4704)"
       cx="-307.14288"
       cy="782.36218"
       fx="-307.14288"
       fy="782.36218"
       r="63" />
    <inkscape:path-effect
       effect="spiro"
       id="path-effect10080-4"
       is_visible="true" />
    <inkscape:path-effect
       is_visible="true"
       id="path-effect3075-1"
       effect="spiro" />
    <inkscape:path-effect
       effect="spiro"
       id="path-effect3101-7"
       is_visible="true" />
    <linearGradient
       inkscape:collect="always"
       xlink:href="#grad1-7-7"
       id="linearGradient3085-8-8"
       gradientUnits="userSpaceOnUse"
       gradientTransform="matrix(0.77469594,0,0,0.30982404,152.68996,-13.619206)"
       x1="78.877235"
       y1="178.07356"
       x2="301.40585"
       y2="178.07356" />
    <linearGradient
       id="grad1-7-7"
       x1="78.877235"
       y1="178.07356"
       x2="301.40585"
       y2="178.07356"
       gradientTransform="scale(1.577772,0.63380513)"
       gradientUnits="userSpaceOnUse">
      <stop
         offset="0%"
         style="stop-color:#da0;"
         id="stop16-4-4" />
      <stop
         offset="40%"
         style="stop-color:#fd0;"
         id="stop18-0-0" />
      <stop
         offset="60%"
         style="stop-color:#fd0;"
         id="stop20-9-9" />
      <stop
         offset="100%"
         style="stop-color:#da0;"
         id="stop22-4-4" />
    </linearGradient>
    <linearGradient
       inkscape:collect="always"
       xlink:href="#grad1-7-7"
       id="linearGradient3081-8-8"
       gradientUnits="userSpaceOnUse"
       gradientTransform="matrix(0.77469594,0,0,0.30982404,-27.310046,-13.619206)"
       x1="78.877235"
       y1="178.07356"
       x2="301.40585"
       y2="178.07356" />
    <linearGradient
       id="linearGradient3093"
       x1="78.877235"
       y1="178.07356"
       x2="301.40585"
       y2="178.07356"
       gradientTransform="scale(1.577772,0.63380513)"
       gradientUnits="userSpaceOnUse">
      <stop
         offset="0%"
         style="stop-color:#da0;"
         id="stop3095" />
      <stop
         offset="40%"
         style="stop-color:#fd0;"
         id="stop3097" />
      <stop
         offset="60%"
         style="stop-color:#fd0;"
         id="stop3099" />
      <stop
         offset="100%"
         style="stop-color:#da0;"
         id="stop3101" />
    </linearGradient>
    <linearGradient
       y2="178.07356"
       x2="301.40585"
       y1="178.07356"
       x1="78.877235"
       gradientTransform="matrix(0.77469594,0,0,0.30982404,332.68995,-13.619206)"
       gradientUnits="userSpaceOnUse"
       id="linearGradient3128-1"
       xlink:href="#grad1-7-7"
       inkscape:collect="always" />
    <linearGradient
       id="linearGradient3104"
       x1="78.877235"
       y1="178.07356"
       x2="301.40585"
       y2="178.07356"
       gradientTransform="scale(1.577772,0.63380513)"
       gradientUnits="userSpaceOnUse">
      <stop
         offset="0%"
         style="stop-color:#da0;"
         id="stop3106" />
      <stop
         offset="40%"
         style="stop-color:#fd0;"
         id="stop3108" />
      <stop
         offset="60%"
         style="stop-color:#fd0;"
         id="stop3110" />
      <stop
         offset="100%"
         style="stop-color:#da0;"
         id="stop3112" />
    </linearGradient>
  </defs>
  <g
     inkscape:groupmode="layer"
     id="layer2"
     inkscape:label="Elements"
     style="display:inline">
    <use
       id="background"
       xlink:href="#shield"
       transform="matrix(-1,0,0,1,600,0)"
       style="fill:#0000cc"
       x="0"
       y="0"
       width="600"
       height="660" />
    <path
       id="bend"
       d="m 108.06641,2 442.10546,442.10547 c -26.41751,47.21233 -60.87091,85.74122 -95.72851,116.4043 L 2,108.06641 2,2 108.06641,2 z"
       inkscape:connector-curvature="0"
       style="fill:#ffffff" />
    <g
       transform="matrix(2.4590338,0,0,2.4590338,-313.46694,-1701.7781)"
       style="display:inline"
       id="g15728">
      <path
         inkscape:connector-curvature="0"
         style="fill:#cc0000;fill-opacity:1;stroke:#0c0c0c;stroke-width:0.48823029;stroke-linecap:butt;stroke-linejoin:miter;stroke-miterlimit:4;stroke-opacity:1;stroke-dasharray:none"
         id="path25095-5-5-8"
         d="m 284.54893,880.02074 c 7.12789,-2.9494 9.94504,-5.54995 14.48402,-8.28983 l 0.94749,-6.84994 c 15.12992,-1.08283 24.755,-5.39605 27.31467,-10.017 -0.16188,0.28527 -5.12174,1.28858 -12.12484,1.96463 -4.5405,0.43831 -9.17096,1.02126 -12.23479,0.70174 -5.51179,-0.57477 -17.1377,0.80674 -17.1377,0.80674 l 3.27509,11.78906 c -2.50467,3.81549 -3.34165,6.76543 -4.52394,9.8946 z" />
      <path
         d="m 295.14599,873.95841 c 0,0 -7.32114,-2.18925 -10.7248,-4.6934 -2.25058,-1.65581 -4.61516,-4.29267 -5.62784,-6.67447 -0.82976,-1.9516 -0.79687,-4.27507 0.001,-6.27441 1.01262,-2.5375 5.09599,-4.08849 4.89855,-6.52817 0,0 0.37435,-0.72058 -0.12612,-1.55837 -0.21004,-0.35161 -1.55057,-0.3409 -1.85683,-0.46719 -1.43994,-0.59381 -5.37572,-1.20764 -5.37572,-1.20764 l 7.29087,-3.89122 c 0,0 2.45299,-1.5799 4.23159,-2.19624 1.83969,-0.6375 4.00527,-0.89636 5.89701,-0.47723 1.84088,0.40786 3.12582,1.44954 4.12742,2.80314 1.24074,1.67676 1.20922,3.89408 1.15548,5.89562 -0.0794,2.95851 -2.94202,7.65321 -2.94202,7.65321 0,0 6.35455,1.08985 10.16999,2.02893 4.12985,1.01647 8.50886,2.96912 14.04291,4.69713 7.18884,2.24472 13.87444,2.88286 13.87444,2.88286 -5.55225,2.78671 -11.67779,3.03979 -17.8675,3.44236 7.21813,3.26109 15.02157,2.24055 23.00933,1.41766 -2.52927,3.53431 -6.02463,4.76797 -10.57324,5.56142 2.65761,3.06158 4.41162,5.75027 5.24052,10.27077 0,0 -7.7868,-5.50766 -12.30199,-7.41773 -4.43421,-1.87581 -14.21714,-3.84037 -14.21714,-3.84037 0.0467,3.02797 3.07322,6.86497 6.2973,10.75564 -5.11541,-0.70459 -9.61117,-2.5351 -12.76158,-6.81014 -5.32029,3.78856 -7.23597,3.74319 -10.328,4.40079 3.00025,-2.7752 4.63723,-6.10601 4.46637,-9.77295 z"
         id="path24912-8-4-2"
         style="fill:#cc0000;fill-opacity:1;stroke:none"
         inkscape:connector-curvature="0" />
      <path
         d="m 296.1984,867.18644 5.71963,1.1681 5.6036,0.93283 9.61111,0.11923 7.70172,-0.70483 6.38356,-1.41365 2.70901,-1.27937 -7.86563,-1.32062 c 0,0 -2.37423,1.42381 -3.73612,1.77024 -3.88215,0.98751 -8.05347,0.92748 -12.06384,0.73166 -3.44087,-0.16802 -10.1211,-1.62739 -10.1211,-1.62739 0,0 1.43182,-1.44082 1.90996,-2.76412 0.31689,-0.87706 -0.0333,-1.99964 -0.79449,-2.62682 -1.14827,-0.94609 -2.82248,-1.32101 -2.82248,-1.32101 0,0 1.0463,1.31945 1.43619,2.16714 0.21892,0.47598 0.0198,1.3414 -0.24117,1.81359 -1.0978,1.98629 -5.49927,3.95165 -5.49927,3.95165 l 2.06932,0.40337 z"
         id="path24963-89-1-7"
         style="fill:#b00000;fill-opacity:1;stroke:none"
         inkscape:connector-curvature="0" />
      <path
         d="m 290.97603,857.30384 c 0,0 -1.07498,0.0761 -2.29084,0.3138 -1.21586,0.23774 -2.6236,0.61683 -3.29216,1.46495 -0.57156,0.72506 -0.79348,1.38721 -0.72675,2.02781 0.0667,0.6406 0.40394,1.21987 0.86119,1.83509 0.9695,1.30442 3.07496,2.37493 5.76496,3.30022 2.68999,0.92529 5.98817,1.69432 9.34785,2.2826 3.35967,0.58828 6.78465,0.99994 9.74399,1.20183 1.50488,0.10266 2.68485,0.0828 3.879,0.0693 1.15414,-0.0131 2.33465,-0.0159 3.08935,-0.14098 l -0.12916,-0.65301 c -0.69227,0.11478 -1.86482,0.10722 -3.03741,0.11033 -1.1385,0.003 -2.26563,0.0199 -3.70508,-0.0783 -2.922,-0.19933 -6.3405,-0.60433 -9.66641,-1.1867 -3.32591,-0.58237 -6.57,-1.35021 -9.19268,-2.25235 -2.62269,-0.90214 -4.59368,-1.96402 -5.38684,-3.03119 -0.4304,-0.57909 -0.71191,-1.06993 -0.76124,-1.54355 -0.0493,-0.47363 0.10975,-0.95638 0.60944,-1.59028 0.40137,-0.50916 1.32779,-0.95675 2.42393,-1.31735 l 2.46886,-0.81218 z"
         id="path24914-9-6-9"
         style="font-size:medium;font-style:normal;font-variant:normal;font-weight:normal;font-stretch:normal;text-indent:0;text-align:start;text-decoration:none;line-height:normal;letter-spacing:normal;word-spacing:normal;text-transform:none;direction:ltr;block-progression:tb;writing-mode:lr-tb;text-anchor:start;color:#000000;fill:#0c0c0c;fill-opacity:1;stroke:none;stroke-width:4.01288986;marker:none;visibility:visible;display:inline;overflow:visible;enable-background:accumulate;font-family:Bitstream Vera Sans;-inkscape-font-specification:Bitstream Vera Sans"
         inkscape:connector-curvature="0" />
      <path
         d="m 286.22296,850.71965 c 0,0 0.56157,1.25623 1.18594,1.7413 0.85929,0.6676 2.04644,1.15383 3.23028,1.17646 1.3369,0.0256 2.7914,-0.27357 3.81193,-1.02743 0.99385,-0.73416 1.51908,-1.87597 1.85166,-2.94571 0.35544,-1.14327 0.45326,-2.39672 0.0949,-3.52249 -0.31921,-1.00285 -1.9237,-2.64019 -1.9237,-2.64019 l 0.26388,-0.261 0.56575,3.46902 -0.42305,2.98987 -1.37527,1.78882 -1.93711,0.71594 -2.10213,-0.14941 -3.24312,-1.33518 z"
         id="path25028-3-1-5"
         style="fill:#b00000;fill-opacity:1;stroke:none"
         inkscape:connector-curvature="0" />
      <path
         d="m 294.55293,843.31702 c 0.15113,1.85742 1.1628,4.68022 -1.07704,7.44949 -0.79604,0.81957 -1.84222,1.41558 -2.93005,1.22162 0,0 -1.15111,-0.12382 -1.68255,-0.30001 -0.97209,-0.32226 -2.67693,-1.35898 -2.67693,-1.35898 1.38343,1.55796 2.87588,2.28118 4.2881,2.34963 1.41222,0.0684 2.69827,-0.54164 3.6209,-1.49155 1.84526,-1.89982 2.42088,-5.19141 0.45757,-7.8702 z"
         id="path24916-7-6-4"
         style="font-size:medium;font-style:normal;font-variant:normal;font-weight:normal;font-stretch:normal;text-indent:0;text-align:start;text-decoration:none;line-height:normal;letter-spacing:normal;word-spacing:normal;text-transform:none;direction:ltr;block-progression:tb;writing-mode:lr-tb;text-anchor:start;color:#000000;fill:#0c0c0c;fill-opacity:1;stroke:none;stroke-width:4.01288986;marker:none;visibility:visible;display:inline;overflow:visible;enable-background:accumulate;font-family:Bitstream Vera Sans;-inkscape-font-specification:Bitstream Vera Sans"
         inkscape:connector-curvature="0" />
      <path
         d="m 278.79335,862.59053 c 1.01267,2.3818 3.37726,5.01866 5.62784,6.67447 3.40366,2.50415 10.7248,4.6934 10.7248,4.6934 0.17086,3.66694 -1.46612,6.99774 -4.46637,9.77295 3.09203,-0.6576 5.00771,-0.61223 10.328,-4.40079 3.15041,4.27503 7.64617,6.10554 12.76158,6.81014 -3.22408,-3.89067 -6.25056,-7.72767 -6.29731,-10.75565 0,0 9.78294,1.96457 14.21715,3.84038 4.51519,1.91006 12.30199,7.41773 12.30199,7.41773 -0.8289,-4.52051 -2.58291,-7.20919 -5.24053,-10.27078 4.54862,-0.79345 8.04398,-2.0271 10.57325,-5.56141 -7.98776,0.82289 -15.79121,1.84343 -23.00933,-1.41767 0,0 1.70333,1.46347 2.52587,1.90949 1.88841,1.02401 4.75397,0.92796 6.74113,1.81395 0.89221,0.39779 2.80021,1.66097 2.80021,1.66097 0,0 -2.4838,0.4987 -3.74461,0.53899 -2.46597,0.0788 -6.2281,-0.67571 -6.2281,-0.67571 0,0 4.63641,1.7901 7.13373,3.19786 1.43405,0.80838 2.67279,1.86557 3.75039,2.99977 0.64192,0.67565 1.58362,2.23133 1.58362,2.23133 0,0 -5.38839,-3.44091 -8.38165,-4.74851 -2.86935,-1.25347 -9.07574,-2.92273 -9.07574,-2.92273 0,0 -3.72036,-0.97745 -5.46763,-1.68105 -1.90335,-0.76646 -5.4136,-2.7472 -5.4136,-2.7472 2.02064,4.28018 3.64272,8.59261 7.06569,12.7593 l -4.09268,-2.02827 -4.38384,-3.89231 c 0,0 -1.80435,1.32074 -2.79443,1.8778 -1.07145,0.60283 -3.38046,1.57128 -3.38046,1.57128 0,0 1.58417,-2.28794 1.96467,-3.46228 0.50704,-1.56479 0.10517,-3.90167 0.10517,-3.90167 -0.0308,-1.35189 -1.27153,-3.98793 -2.21049,-4.77604 -0.74328,-0.62387 -2.47399,-1.09749 -2.47399,-1.09749 0,0 1.27965,1.52733 1.57414,2.11412 0.26932,0.53666 0.14228,1.7581 0.14228,1.7581 0,0 -5.96795,-2.29264 -8.59405,-3.90551 -2.49187,-1.53042 -6.6667,-5.39696 -6.6667,-5.39696 z"
         id="path24912-9-3-2-3-3"
         style="fill:#b00000;fill-opacity:1;stroke:none"
         inkscape:connector-curvature="0" />
      <path
         d="m 276.83472,845.89736 9.27271,-3.68896 -2.7603,6.35233 -4.37551,-1.15714 z"
         id="rect6258-1"
         style="fill:#333333;fill-opacity:1;fill-rule:evenodd;stroke:none;display:inline"
         inkscape:connector-curvature="0" />
      <path
         d="m 287.56934,840.17951 4.12591,0.15021 c -4.79654,3.07949 -7.82078,6.31461 -6.24191,9.77333 -0.23495,0.53452 -1.53609,-0.87432 -1.53609,-0.87432 l -0.7076,-1.70014 0.45825,0.21237 0.96502,-4.37754 z"
         id="path25026-38-3-2"
         style="fill:#b00000;fill-opacity:1;stroke:none"
         inkscape:connector-curvature="0" />
      <path
         d="m 295.14599,873.95842 c 0,0 -7.32114,-2.18925 -10.7248,-4.6934 -2.25058,-1.65581 -4.61516,-4.29267 -5.62783,-6.67447 -0.82977,-1.95161 -0.79688,-4.27508 9.9e-4,-6.27441 1.01262,-2.53751 5.28476,-4.10377 5.08732,-6.54345 0,0 0.30274,-0.29499 -0.19772,-1.13279 -3.43327,-1.45001 -7.70803,-2.05054 -7.16266,-2.58048 0.10357,-0.18545 6.76477,-2.51166 7.22228,-3.07906 0.9947,-1.23362 2.57803,-2.1304 4.11312,-2.51305 1.83969,-0.6375 4.00527,-0.89637 5.89701,-0.47723 1.84088,0.40786 3.12582,1.44953 4.12742,2.80314 1.24074,1.67675 1.20922,3.89408 1.15548,5.89561 -0.0794,2.95852 -2.94201,7.65321 -2.94201,7.65321 0,0 6.35454,1.08985 10.16998,2.02894 4.12985,1.01646 8.50886,2.96912 14.04291,4.69713 7.18884,2.24472 13.87445,2.88285 13.87445,2.88285 -5.55226,2.78672 -11.6778,3.03979 -17.86751,3.44236 7.21813,3.2611 15.02157,2.24056 23.00934,1.41767 -2.52928,3.53431 -6.02464,4.76796 -10.57325,5.56141 2.65761,3.06159 4.41162,5.75027 5.24052,10.27078 0,0 -7.7868,-5.50767 -12.30199,-7.41773 -4.43421,-1.87581 -14.21714,-3.84038 -14.21714,-3.84038 0.0467,3.02798 3.07322,6.86498 6.2973,10.75565 -5.11541,-0.7046 -9.61117,-2.5351 -12.76158,-6.81014 -5.32029,3.78856 -7.23597,3.74319 -10.328,4.40079 3.00025,-2.77521 4.63723,-6.10601 4.46637,-9.77295 z"
         id="path24912-9-1-3-4"
         style="fill:none;stroke:#0c0c0c;stroke-width:0.48823029;stroke-linecap:butt;stroke-linejoin:miter;stroke-miterlimit:4;stroke-opacity:1;stroke-dasharray:none"
         inkscape:connector-curvature="0" />
      <path
         d="m 300.31064,863.95818 c 4.72422,1.49348 12.79704,2.4105 17.84978,1.36936 -4.80992,-0.15812 -12.57898,-1.02741 -17.13797,-2.16091 l -0.71181,0.79155 z"
         id="path24965-54-2-1"
         style="fill:#b00000;fill-opacity:1;stroke:none"
         inkscape:connector-curvature="0" />
      <path
         d="m 300.48772,861.70371 c 4.72422,1.49349 11.61755,2.25938 16.6703,1.21825 -4.80993,-0.15813 -11.39949,-0.87629 -15.95848,-2.00979 l -0.71182,0.79154 z"
         id="path24965-6-2-8-1"
         style="fill:#b00000;fill-opacity:1;stroke:none"
         inkscape:connector-curvature="0" />
      <path
         d="m 291.7877,844.97969 a 1.5063266,1.548169 85.373256 1 1 -3.08624,0.24976 1.5063266,1.548169 85.373256 1 1 3.08624,-0.24976 z"
         id="path6297-8"
         style="fill:#000000;fill-opacity:1;fill-rule:evenodd;stroke:none;display:inline"
         inkscape:connector-curvature="0" />
    </g>
    <g
       id="g3037"
       style="display:inline"
       transform="matrix(2.4590338,0,0,2.4590338,-651.46397,-2039.7752)">
      <path
         d="m 284.54893,880.02074 c 7.12789,-2.9494 9.94504,-5.54995 14.48402,-8.28983 l 0.94749,-6.84994 c 15.12992,-1.08283 24.755,-5.39605 27.31467,-10.017 -0.16188,0.28527 -5.12174,1.28858 -12.12484,1.96463 -4.5405,0.43831 -9.17096,1.02126 -12.23479,0.70174 -5.51179,-0.57477 -17.1377,0.80674 -17.1377,0.80674 l 3.27509,11.78906 c -2.50467,3.81549 -3.34165,6.76543 -4.52394,9.8946 z"
         id="path3039"
         style="fill:#cc0000;fill-opacity:1;stroke:#0c0c0c;stroke-width:0.48823029;stroke-linecap:butt;stroke-linejoin:miter;stroke-miterlimit:4;stroke-opacity:1;stroke-dasharray:none"
         inkscape:connector-curvature="0" />
      <path
         inkscape:connector-curvature="0"
         style="fill:#cc0000;fill-opacity:1;stroke:none"
         id="path3041"
         d="m 295.14599,873.95841 c 0,0 -7.32114,-2.18925 -10.7248,-4.6934 -2.25058,-1.65581 -4.61516,-4.29267 -5.62784,-6.67447 -0.82976,-1.9516 -0.79687,-4.27507 0.001,-6.27441 1.01262,-2.5375 5.09599,-4.08849 4.89855,-6.52817 0,0 0.37435,-0.72058 -0.12612,-1.55837 -0.21004,-0.35161 -1.55057,-0.3409 -1.85683,-0.46719 -1.43994,-0.59381 -5.37572,-1.20764 -5.37572,-1.20764 l 7.29087,-3.89122 c 0,0 2.45299,-1.5799 4.23159,-2.19624 1.83969,-0.6375 4.00527,-0.89636 5.89701,-0.47723 1.84088,0.40786 3.12582,1.44954 4.12742,2.80314 1.24074,1.67676 1.20922,3.89408 1.15548,5.89562 -0.0794,2.95851 -2.94202,7.65321 -2.94202,7.65321 0,0 6.35455,1.08985 10.16999,2.02893 4.12985,1.01647 8.50886,2.96912 14.04291,4.69713 7.18884,2.24472 13.87444,2.88286 13.87444,2.88286 -5.55225,2.78671 -11.67779,3.03979 -17.8675,3.44236 7.21813,3.26109 15.02157,2.24055 23.00933,1.41766 -2.52927,3.53431 -6.02463,4.76797 -10.57324,5.56142 2.65761,3.06158 4.41162,5.75027 5.24052,10.27077 0,0 -7.7868,-5.50766 -12.30199,-7.41773 -4.43421,-1.87581 -14.21714,-3.84037 -14.21714,-3.84037 0.0467,3.02797 3.07322,6.86497 6.2973,10.75564 -5.11541,-0.70459 -9.61117,-2.5351 -12.76158,-6.81014 -5.32029,3.78856 -7.23597,3.74319 -10.328,4.40079 3.00025,-2.7752 4.63723,-6.10601 4.46637,-9.77295 z" />
      <path
         inkscape:connector-curvature="0"
         style="fill:#b00000;fill-opacity:1;stroke:none"
         id="path3043"
         d="m 296.1984,867.18644 5.71963,1.1681 5.6036,0.93283 9.61111,0.11923 7.70172,-0.70483 6.38356,-1.41365 2.70901,-1.27937 -7.86563,-1.32062 c 0,0 -2.37423,1.42381 -3.73612,1.77024 -3.88215,0.98751 -8.05347,0.92748 -12.06384,0.73166 -3.44087,-0.16802 -10.1211,-1.62739 -10.1211,-1.62739 0,0 1.43182,-1.44082 1.90996,-2.76412 0.31689,-0.87706 -0.0333,-1.99964 -0.79449,-2.62682 -1.14827,-0.94609 -2.82248,-1.32101 -2.82248,-1.32101 0,0 1.0463,1.31945 1.43619,2.16714 0.21892,0.47598 0.0198,1.3414 -0.24117,1.81359 -1.0978,1.98629 -5.49927,3.95165 -5.49927,3.95165 l 2.06932,0.40337 z" />
      <path
         inkscape:connector-curvature="0"
         style="font-size:medium;font-style:normal;font-variant:normal;font-weight:normal;font-stretch:normal;text-indent:0;text-align:start;text-decoration:none;line-height:normal;letter-spacing:normal;word-spacing:normal;text-transform:none;direction:ltr;block-progression:tb;writing-mode:lr-tb;text-anchor:start;color:#000000;fill:#0c0c0c;fill-opacity:1;stroke:none;stroke-width:4.01288986;marker:none;visibility:visible;display:inline;overflow:visible;enable-background:accumulate;font-family:Bitstream Vera Sans;-inkscape-font-specification:Bitstream Vera Sans"
         id="path3045"
         d="m 290.97603,857.30384 c 0,0 -1.07498,0.0761 -2.29084,0.3138 -1.21586,0.23774 -2.6236,0.61683 -3.29216,1.46495 -0.57156,0.72506 -0.79348,1.38721 -0.72675,2.02781 0.0667,0.6406 0.40394,1.21987 0.86119,1.83509 0.9695,1.30442 3.07496,2.37493 5.76496,3.30022 2.68999,0.92529 5.98817,1.69432 9.34785,2.2826 3.35967,0.58828 6.78465,0.99994 9.74399,1.20183 1.50488,0.10266 2.68485,0.0828 3.879,0.0693 1.15414,-0.0131 2.33465,-0.0159 3.08935,-0.14098 l -0.12916,-0.65301 c -0.69227,0.11478 -1.86482,0.10722 -3.03741,0.11033 -1.1385,0.003 -2.26563,0.0199 -3.70508,-0.0783 -2.922,-0.19933 -6.3405,-0.60433 -9.66641,-1.1867 -3.32591,-0.58237 -6.57,-1.35021 -9.19268,-2.25235 -2.62269,-0.90214 -4.59368,-1.96402 -5.38684,-3.03119 -0.4304,-0.57909 -0.71191,-1.06993 -0.76124,-1.54355 -0.0493,-0.47363 0.10975,-0.95638 0.60944,-1.59028 0.40137,-0.50916 1.32779,-0.95675 2.42393,-1.31735 l 2.46886,-0.81218 z" />
      <path
         inkscape:connector-curvature="0"
         style="fill:#b00000;fill-opacity:1;stroke:none"
         id="path3047"
         d="m 286.22296,850.71965 c 0,0 0.56157,1.25623 1.18594,1.7413 0.85929,0.6676 2.04644,1.15383 3.23028,1.17646 1.3369,0.0256 2.7914,-0.27357 3.81193,-1.02743 0.99385,-0.73416 1.51908,-1.87597 1.85166,-2.94571 0.35544,-1.14327 0.45326,-2.39672 0.0949,-3.52249 -0.31921,-1.00285 -1.9237,-2.64019 -1.9237,-2.64019 l 0.26388,-0.261 0.56575,3.46902 -0.42305,2.98987 -1.37527,1.78882 -1.93711,0.71594 -2.10213,-0.14941 -3.24312,-1.33518 z" />
      <path
         inkscape:connector-curvature="0"
         style="font-size:medium;font-style:normal;font-variant:normal;font-weight:normal;font-stretch:normal;text-indent:0;text-align:start;text-decoration:none;line-height:normal;letter-spacing:normal;word-spacing:normal;text-transform:none;direction:ltr;block-progression:tb;writing-mode:lr-tb;text-anchor:start;color:#000000;fill:#0c0c0c;fill-opacity:1;stroke:none;stroke-width:4.01288986;marker:none;visibility:visible;display:inline;overflow:visible;enable-background:accumulate;font-family:Bitstream Vera Sans;-inkscape-font-specification:Bitstream Vera Sans"
         id="path3049"
         d="m 294.55293,843.31702 c 0.15113,1.85742 1.1628,4.68022 -1.07704,7.44949 -0.79604,0.81957 -1.84222,1.41558 -2.93005,1.22162 0,0 -1.15111,-0.12382 -1.68255,-0.30001 -0.97209,-0.32226 -2.67693,-1.35898 -2.67693,-1.35898 1.38343,1.55796 2.87588,2.28118 4.2881,2.34963 1.41222,0.0684 2.69827,-0.54164 3.6209,-1.49155 1.84526,-1.89982 2.42088,-5.19141 0.45757,-7.8702 z" />
      <path
         inkscape:connector-curvature="0"
         style="fill:#b00000;fill-opacity:1;stroke:none"
         id="path3051"
         d="m 278.79335,862.59053 c 1.01267,2.3818 3.37726,5.01866 5.62784,6.67447 3.40366,2.50415 10.7248,4.6934 10.7248,4.6934 0.17086,3.66694 -1.46612,6.99774 -4.46637,9.77295 3.09203,-0.6576 5.00771,-0.61223 10.328,-4.40079 3.15041,4.27503 7.64617,6.10554 12.76158,6.81014 -3.22408,-3.89067 -6.25056,-7.72767 -6.29731,-10.75565 0,0 9.78294,1.96457 14.21715,3.84038 4.51519,1.91006 12.30199,7.41773 12.30199,7.41773 -0.8289,-4.52051 -2.58291,-7.20919 -5.24053,-10.27078 4.54862,-0.79345 8.04398,-2.0271 10.57325,-5.56141 -7.98776,0.82289 -15.79121,1.84343 -23.00933,-1.41767 0,0 1.70333,1.46347 2.52587,1.90949 1.88841,1.02401 4.75397,0.92796 6.74113,1.81395 0.89221,0.39779 2.80021,1.66097 2.80021,1.66097 0,0 -2.4838,0.4987 -3.74461,0.53899 -2.46597,0.0788 -6.2281,-0.67571 -6.2281,-0.67571 0,0 4.63641,1.7901 7.13373,3.19786 1.43405,0.80838 2.67279,1.86557 3.75039,2.99977 0.64192,0.67565 1.58362,2.23133 1.58362,2.23133 0,0 -5.38839,-3.44091 -8.38165,-4.74851 -2.86935,-1.25347 -9.07574,-2.92273 -9.07574,-2.92273 0,0 -3.72036,-0.97745 -5.46763,-1.68105 -1.90335,-0.76646 -5.4136,-2.7472 -5.4136,-2.7472 2.02064,4.28018 3.64272,8.59261 7.06569,12.7593 l -4.09268,-2.02827 -4.38384,-3.89231 c 0,0 -1.80435,1.32074 -2.79443,1.8778 -1.07145,0.60283 -3.38046,1.57128 -3.38046,1.57128 0,0 1.58417,-2.28794 1.96467,-3.46228 0.50704,-1.56479 0.10517,-3.90167 0.10517,-3.90167 -0.0308,-1.35189 -1.27153,-3.98793 -2.21049,-4.77604 -0.74328,-0.62387 -2.47399,-1.09749 -2.47399,-1.09749 0,0 1.27965,1.52733 1.57414,2.11412 0.26932,0.53666 0.14228,1.7581 0.14228,1.7581 0,0 -5.96795,-2.29264 -8.59405,-3.90551 -2.49187,-1.53042 -6.6667,-5.39696 -6.6667,-5.39696 z" />
      <path
         inkscape:connector-curvature="0"
         style="fill:#333333;fill-opacity:1;fill-rule:evenodd;stroke:none;display:inline"
         id="path3053"
         d="m 276.83472,845.89736 9.27271,-3.68896 -2.7603,6.35233 -4.37551,-1.15714 z" />
      <path
         inkscape:connector-curvature="0"
         style="fill:#b00000;fill-opacity:1;stroke:none"
         id="path3055"
         d="m 287.56934,840.17951 4.12591,0.15021 c -4.79654,3.07949 -7.82078,6.31461 -6.24191,9.77333 -0.23495,0.53452 -1.53609,-0.87432 -1.53609,-0.87432 l -0.7076,-1.70014 0.45825,0.21237 0.96502,-4.37754 z" />
      <path
         inkscape:connector-curvature="0"
         style="fill:none;stroke:#0c0c0c;stroke-width:0.48823029;stroke-linecap:butt;stroke-linejoin:miter;stroke-miterlimit:4;stroke-opacity:1;stroke-dasharray:none"
         id="path3057"
         d="m 295.14599,873.95842 c 0,0 -7.32114,-2.18925 -10.7248,-4.6934 -2.25058,-1.65581 -4.61516,-4.29267 -5.62783,-6.67447 -0.82977,-1.95161 -0.79688,-4.27508 9.9e-4,-6.27441 1.01262,-2.53751 5.28476,-4.10377 5.08732,-6.54345 0,0 0.30274,-0.29499 -0.19772,-1.13279 -3.43327,-1.45001 -7.70803,-2.05054 -7.16266,-2.58048 0.10357,-0.18545 6.76477,-2.51166 7.22228,-3.07906 0.9947,-1.23362 2.57803,-2.1304 4.11312,-2.51305 1.83969,-0.6375 4.00527,-0.89637 5.89701,-0.47723 1.84088,0.40786 3.12582,1.44953 4.12742,2.80314 1.24074,1.67675 1.20922,3.89408 1.15548,5.89561 -0.0794,2.95852 -2.94201,7.65321 -2.94201,7.65321 0,0 6.35454,1.08985 10.16998,2.02894 4.12985,1.01646 8.50886,2.96912 14.04291,4.69713 7.18884,2.24472 13.87445,2.88285 13.87445,2.88285 -5.55226,2.78672 -11.6778,3.03979 -17.86751,3.44236 7.21813,3.2611 15.02157,2.24056 23.00934,1.41767 -2.52928,3.53431 -6.02464,4.76796 -10.57325,5.56141 2.65761,3.06159 4.41162,5.75027 5.24052,10.27078 0,0 -7.7868,-5.50767 -12.30199,-7.41773 -4.43421,-1.87581 -14.21714,-3.84038 -14.21714,-3.84038 0.0467,3.02798 3.07322,6.86498 6.2973,10.75565 -5.11541,-0.7046 -9.61117,-2.5351 -12.76158,-6.81014 -5.32029,3.78856 -7.23597,3.74319 -10.328,4.40079 3.00025,-2.77521 4.63723,-6.10601 4.46637,-9.77295 z" />
      <path
         inkscape:connector-curvature="0"
         style="fill:#b00000;fill-opacity:1;stroke:none"
         id="path3059"
         d="m 300.31064,863.95818 c 4.72422,1.49348 12.79704,2.4105 17.84978,1.36936 -4.80992,-0.15812 -12.57898,-1.02741 -17.13797,-2.16091 l -0.71181,0.79155 z" />
      <path
         inkscape:connector-curvature="0"
         style="fill:#b00000;fill-opacity:1;stroke:none"
         id="path3061"
         d="m 300.48772,861.70371 c 4.72422,1.49349 11.61755,2.25938 16.6703,1.21825 -4.80993,-0.15813 -11.39949,-0.87629 -15.95848,-2.00979 l -0.71182,0.79154 z" />
      <path
         inkscape:connector-curvature="0"
         style="fill:#000000;fill-opacity:1;fill-rule:evenodd;stroke:none;display:inline"
         id="path3063"
         d="m 291.7877,844.97969 a 1.5063266,1.548169 85.373256 1 1 -3.08624,0.24976 1.5063266,1.548169 85.373256 1 1 3.08624,-0.24976 z" />
    </g>
    <g
       transform="matrix(2.4590338,0,0,2.4590338,-482.46545,-1870.7766)"
       style="display:inline"
       id="g3065">
      <path
         inkscape:connector-curvature="0"
         style="fill:#cc0000;fill-opacity:1;stroke:#0c0c0c;stroke-width:0.48823029;stroke-linecap:butt;stroke-linejoin:miter;stroke-miterlimit:4;stroke-opacity:1;stroke-dasharray:none"
         id="path3067"
         d="m 284.54893,880.02074 c 7.12789,-2.9494 9.94504,-5.54995 14.48402,-8.28983 l 0.94749,-6.84994 c 15.12992,-1.08283 24.755,-5.39605 27.31467,-10.017 -0.16188,0.28527 -5.12174,1.28858 -12.12484,1.96463 -4.5405,0.43831 -9.17096,1.02126 -12.23479,0.70174 -5.51179,-0.57477 -17.1377,0.80674 -17.1377,0.80674 l 3.27509,11.78906 c -2.50467,3.81549 -3.34165,6.76543 -4.52394,9.8946 z" />
      <path
         d="m 295.14599,873.95841 c 0,0 -7.32114,-2.18925 -10.7248,-4.6934 -2.25058,-1.65581 -4.61516,-4.29267 -5.62784,-6.67447 -0.82976,-1.9516 -0.79687,-4.27507 0.001,-6.27441 1.01262,-2.5375 5.09599,-4.08849 4.89855,-6.52817 0,0 0.37435,-0.72058 -0.12612,-1.55837 -0.21004,-0.35161 -1.55057,-0.3409 -1.85683,-0.46719 -1.43994,-0.59381 -5.37572,-1.20764 -5.37572,-1.20764 l 7.29087,-3.89122 c 0,0 2.45299,-1.5799 4.23159,-2.19624 1.83969,-0.6375 4.00527,-0.89636 5.89701,-0.47723 1.84088,0.40786 3.12582,1.44954 4.12742,2.80314 1.24074,1.67676 1.20922,3.89408 1.15548,5.89562 -0.0794,2.95851 -2.94202,7.65321 -2.94202,7.65321 0,0 6.35455,1.08985 10.16999,2.02893 4.12985,1.01647 8.50886,2.96912 14.04291,4.69713 7.18884,2.24472 13.87444,2.88286 13.87444,2.88286 -5.55225,2.78671 -11.67779,3.03979 -17.8675,3.44236 7.21813,3.26109 15.02157,2.24055 23.00933,1.41766 -2.52927,3.53431 -6.02463,4.76797 -10.57324,5.56142 2.65761,3.06158 4.41162,5.75027 5.24052,10.27077 0,0 -7.7868,-5.50766 -12.30199,-7.41773 -4.43421,-1.87581 -14.21714,-3.84037 -14.21714,-3.84037 0.0467,3.02797 3.07322,6.86497 6.2973,10.75564 -5.11541,-0.70459 -9.61117,-2.5351 -12.76158,-6.81014 -5.32029,3.78856 -7.23597,3.74319 -10.328,4.40079 3.00025,-2.7752 4.63723,-6.10601 4.46637,-9.77295 z"
         id="path3069"
         style="fill:#cc0000;fill-opacity:1;stroke:none"
         inkscape:connector-curvature="0" />
      <path
         d="m 296.1984,867.18644 5.71963,1.1681 5.6036,0.93283 9.61111,0.11923 7.70172,-0.70483 6.38356,-1.41365 2.70901,-1.27937 -7.86563,-1.32062 c 0,0 -2.37423,1.42381 -3.73612,1.77024 -3.88215,0.98751 -8.05347,0.92748 -12.06384,0.73166 -3.44087,-0.16802 -10.1211,-1.62739 -10.1211,-1.62739 0,0 1.43182,-1.44082 1.90996,-2.76412 0.31689,-0.87706 -0.0333,-1.99964 -0.79449,-2.62682 -1.14827,-0.94609 -2.82248,-1.32101 -2.82248,-1.32101 0,0 1.0463,1.31945 1.43619,2.16714 0.21892,0.47598 0.0198,1.3414 -0.24117,1.81359 -1.0978,1.98629 -5.49927,3.95165 -5.49927,3.95165 l 2.06932,0.40337 z"
         id="path3071"
         style="fill:#b00000;fill-opacity:1;stroke:none"
         inkscape:connector-curvature="0" />
      <path
         d="m 290.97603,857.30384 c 0,0 -1.07498,0.0761 -2.29084,0.3138 -1.21586,0.23774 -2.6236,0.61683 -3.29216,1.46495 -0.57156,0.72506 -0.79348,1.38721 -0.72675,2.02781 0.0667,0.6406 0.40394,1.21987 0.86119,1.83509 0.9695,1.30442 3.07496,2.37493 5.76496,3.30022 2.68999,0.92529 5.98817,1.69432 9.34785,2.2826 3.35967,0.58828 6.78465,0.99994 9.74399,1.20183 1.50488,0.10266 2.68485,0.0828 3.879,0.0693 1.15414,-0.0131 2.33465,-0.0159 3.08935,-0.14098 l -0.12916,-0.65301 c -0.69227,0.11478 -1.86482,0.10722 -3.03741,0.11033 -1.1385,0.003 -2.26563,0.0199 -3.70508,-0.0783 -2.922,-0.19933 -6.3405,-0.60433 -9.66641,-1.1867 -3.32591,-0.58237 -6.57,-1.35021 -9.19268,-2.25235 -2.62269,-0.90214 -4.59368,-1.96402 -5.38684,-3.03119 -0.4304,-0.57909 -0.71191,-1.06993 -0.76124,-1.54355 -0.0493,-0.47363 0.10975,-0.95638 0.60944,-1.59028 0.40137,-0.50916 1.32779,-0.95675 2.42393,-1.31735 l 2.46886,-0.81218 z"
         id="path3073"
         style="font-size:medium;font-style:normal;font-variant:normal;font-weight:normal;font-stretch:normal;text-indent:0;text-align:start;text-decoration:none;line-height:normal;letter-spacing:normal;word-spacing:normal;text-transform:none;direction:ltr;block-progression:tb;writing-mode:lr-tb;text-anchor:start;color:#000000;fill:#0c0c0c;fill-opacity:1;stroke:none;stroke-width:4.01288986;marker:none;visibility:visible;display:inline;overflow:visible;enable-background:accumulate;font-family:Bitstream Vera Sans;-inkscape-font-specification:Bitstream Vera Sans"
         inkscape:connector-curvature="0" />
      <path
         d="m 286.22296,850.71965 c 0,0 0.56157,1.25623 1.18594,1.7413 0.85929,0.6676 2.04644,1.15383 3.23028,1.17646 1.3369,0.0256 2.7914,-0.27357 3.81193,-1.02743 0.99385,-0.73416 1.51908,-1.87597 1.85166,-2.94571 0.35544,-1.14327 0.45326,-2.39672 0.0949,-3.52249 -0.31921,-1.00285 -1.9237,-2.64019 -1.9237,-2.64019 l 0.26388,-0.261 0.56575,3.46902 -0.42305,2.98987 -1.37527,1.78882 -1.93711,0.71594 -2.10213,-0.14941 -3.24312,-1.33518 z"
         id="path3075"
         style="fill:#b00000;fill-opacity:1;stroke:none"
         inkscape:connector-curvature="0" />
      <path
         d="m 294.55293,843.31702 c 0.15113,1.85742 1.1628,4.68022 -1.07704,7.44949 -0.79604,0.81957 -1.84222,1.41558 -2.93005,1.22162 0,0 -1.15111,-0.12382 -1.68255,-0.30001 -0.97209,-0.32226 -2.67693,-1.35898 -2.67693,-1.35898 1.38343,1.55796 2.87588,2.28118 4.2881,2.34963 1.41222,0.0684 2.69827,-0.54164 3.6209,-1.49155 1.84526,-1.89982 2.42088,-5.19141 0.45757,-7.8702 z"
         id="path3077"
         style="font-size:medium;font-style:normal;font-variant:normal;font-weight:normal;font-stretch:normal;text-indent:0;text-align:start;text-decoration:none;line-height:normal;letter-spacing:normal;word-spacing:normal;text-transform:none;direction:ltr;block-progression:tb;writing-mode:lr-tb;text-anchor:start;color:#000000;fill:#0c0c0c;fill-opacity:1;stroke:none;stroke-width:4.01288986;marker:none;visibility:visible;display:inline;overflow:visible;enable-background:accumulate;font-family:Bitstream Vera Sans;-inkscape-font-specification:Bitstream Vera Sans"
         inkscape:connector-curvature="0" />
      <path
         d="m 278.79335,862.59053 c 1.01267,2.3818 3.37726,5.01866 5.62784,6.67447 3.40366,2.50415 10.7248,4.6934 10.7248,4.6934 0.17086,3.66694 -1.46612,6.99774 -4.46637,9.77295 3.09203,-0.6576 5.00771,-0.61223 10.328,-4.40079 3.15041,4.27503 7.64617,6.10554 12.76158,6.81014 -3.22408,-3.89067 -6.25056,-7.72767 -6.29731,-10.75565 0,0 9.78294,1.96457 14.21715,3.84038 4.51519,1.91006 12.30199,7.41773 12.30199,7.41773 -0.8289,-4.52051 -2.58291,-7.20919 -5.24053,-10.27078 4.54862,-0.79345 8.04398,-2.0271 10.57325,-5.56141 -7.98776,0.82289 -15.79121,1.84343 -23.00933,-1.41767 0,0 1.70333,1.46347 2.52587,1.90949 1.88841,1.02401 4.75397,0.92796 6.74113,1.81395 0.89221,0.39779 2.80021,1.66097 2.80021,1.66097 0,0 -2.4838,0.4987 -3.74461,0.53899 -2.46597,0.0788 -6.2281,-0.67571 -6.2281,-0.67571 0,0 4.63641,1.7901 7.13373,3.19786 1.43405,0.80838 2.67279,1.86557 3.75039,2.99977 0.64192,0.67565 1.58362,2.23133 1.58362,2.23133 0,0 -5.38839,-3.44091 -8.38165,-4.74851 -2.86935,-1.25347 -9.07574,-2.92273 -9.07574,-2.92273 0,0 -3.72036,-0.97745 -5.46763,-1.68105 -1.90335,-0.76646 -5.4136,-2.7472 -5.4136,-2.7472 2.02064,4.28018 3.64272,8.59261 7.06569,12.7593 l -4.09268,-2.02827 -4.38384,-3.89231 c 0,0 -1.80435,1.32074 -2.79443,1.8778 -1.07145,0.60283 -3.38046,1.57128 -3.38046,1.57128 0,0 1.58417,-2.28794 1.96467,-3.46228 0.50704,-1.56479 0.10517,-3.90167 0.10517,-3.90167 -0.0308,-1.35189 -1.27153,-3.98793 -2.21049,-4.77604 -0.74328,-0.62387 -2.47399,-1.09749 -2.47399,-1.09749 0,0 1.27965,1.52733 1.57414,2.11412 0.26932,0.53666 0.14228,1.7581 0.14228,1.7581 0,0 -5.96795,-2.29264 -8.59405,-3.90551 -2.49187,-1.53042 -6.6667,-5.39696 -6.6667,-5.39696 z"
         id="path3079"
         style="fill:#b00000;fill-opacity:1;stroke:none"
         inkscape:connector-curvature="0" />
      <path
         d="m 276.83472,845.89736 9.27271,-3.68896 -2.7603,6.35233 -4.37551,-1.15714 z"
         id="path3081"
         style="fill:#333333;fill-opacity:1;fill-rule:evenodd;stroke:none;display:inline"
         inkscape:connector-curvature="0" />
      <path
         d="m 287.56934,840.17951 4.12591,0.15021 c -4.79654,3.07949 -7.82078,6.31461 -6.24191,9.77333 -0.23495,0.53452 -1.53609,-0.87432 -1.53609,-0.87432 l -0.7076,-1.70014 0.45825,0.21237 0.96502,-4.37754 z"
         id="path3083"
         style="fill:#b00000;fill-opacity:1;stroke:none"
         inkscape:connector-curvature="0" />
      <path
         d="m 295.14599,873.95842 c 0,0 -7.32114,-2.18925 -10.7248,-4.6934 -2.25058,-1.65581 -4.61516,-4.29267 -5.62783,-6.67447 -0.82977,-1.95161 -0.79688,-4.27508 9.9e-4,-6.27441 1.01262,-2.53751 5.28476,-4.10377 5.08732,-6.54345 0,0 0.30274,-0.29499 -0.19772,-1.13279 -3.43327,-1.45001 -7.70803,-2.05054 -7.16266,-2.58048 0.10357,-0.18545 6.76477,-2.51166 7.22228,-3.07906 0.9947,-1.23362 2.57803,-2.1304 4.11312,-2.51305 1.83969,-0.6375 4.00527,-0.89637 5.89701,-0.47723 1.84088,0.40786 3.12582,1.44953 4.12742,2.80314 1.24074,1.67675 1.20922,3.89408 1.15548,5.89561 -0.0794,2.95852 -2.94201,7.65321 -2.94201,7.65321 0,0 6.35454,1.08985 10.16998,2.02894 4.12985,1.01646 8.50886,2.96912 14.04291,4.69713 7.18884,2.24472 13.87445,2.88285 13.87445,2.88285 -5.55226,2.78672 -11.6778,3.03979 -17.86751,3.44236 7.21813,3.2611 15.02157,2.24056 23.00934,1.41767 -2.52928,3.53431 -6.02464,4.76796 -10.57325,5.56141 2.65761,3.06159 4.41162,5.75027 5.24052,10.27078 0,0 -7.7868,-5.50767 -12.30199,-7.41773 -4.43421,-1.87581 -14.21714,-3.84038 -14.21714,-3.84038 0.0467,3.02798 3.07322,6.86498 6.2973,10.75565 -5.11541,-0.7046 -9.61117,-2.5351 -12.76158,-6.81014 -5.32029,3.78856 -7.23597,3.74319 -10.328,4.40079 3.00025,-2.77521 4.63723,-6.10601 4.46637,-9.77295 z"
         id="path3085"
         style="fill:none;stroke:#0c0c0c;stroke-width:0.48823029;stroke-linecap:butt;stroke-linejoin:miter;stroke-miterlimit:4;stroke-opacity:1;stroke-dasharray:none"
         inkscape:connector-curvature="0" />
      <path
         d="m 300.31064,863.95818 c 4.72422,1.49348 12.79704,2.4105 17.84978,1.36936 -4.80992,-0.15812 -12.57898,-1.02741 -17.13797,-2.16091 l -0.71181,0.79155 z"
         id="path3087"
         style="fill:#b00000;fill-opacity:1;stroke:none"
         inkscape:connector-curvature="0" />
      <path
         d="m 300.48772,861.70371 c 4.72422,1.49349 11.61755,2.25938 16.6703,1.21825 -4.80993,-0.15813 -11.39949,-0.87629 -15.95848,-2.00979 l -0.71182,0.79154 z"
         id="path3089"
         style="fill:#b00000;fill-opacity:1;stroke:none"
         inkscape:connector-curvature="0" />
      <path
         d="m 291.7877,844.97969 a 1.5063266,1.548169 85.373256 1 1 -3.08624,0.24976 1.5063266,1.548169 85.373256 1 1 3.08624,-0.24976 z"
         id="path3091"
         style="fill:#000000;fill-opacity:1;fill-rule:evenodd;stroke:none;display:inline"
         inkscape:connector-curvature="0" />
    </g>
  </g>
  <g
     inkscape:groupmode="layer"
     id="layer1"
     inkscape:label="Cover"
     style="display:inline"
     sodipodi:insensitive="true">
    <path
       d="m 2,2 v 257 c 0,286 298,398 298,398 0,0 298,-112 298,-398 V 2 z"
       id="shine"
       inkscape:connector-curvature="0"
       style="fill:url(#radialGradient3074);stroke:#000000;stroke-width:3" />
  </g>
</svg>
