<?xml version="1.0" encoding="UTF-8" standalone="no"?>
<svg
   xmlns:dc="http://purl.org/dc/elements/1.1/"
   xmlns:cc="http://creativecommons.org/ns#"
   xmlns:rdf="http://www.w3.org/1999/02/22-rdf-syntax-ns#"
   xmlns:svg="http://www.w3.org/2000/svg"
   xmlns="http://www.w3.org/2000/svg"
   xmlns:xlink="http://www.w3.org/1999/xlink"
   xmlns:sodipodi="http://sodipodi.sourceforge.net/DTD/sodipodi-0.dtd"
   xmlns:inkscape="http://www.inkscape.org/namespaces/inkscape"
   width="600"
   height="660"
   id="svg2"
   version="1.1"
   inkscape:version="0.48.2 r9819"
   sodipodi:docname="House_Hersy.svg">
  <metadata
     id="metadata24">
    <rdf:RDF>
      <cc:Work
         rdf:about="">
        <dc:format>image/svg+xml</dc:format>
        <dc:type
           rdf:resource="http://purl.org/dc/dcmitype/StillImage" />
        <dc:title />
      </cc:Work>
    </rdf:RDF>
  </metadata>
  <sodipodi:namedview
     pagecolor="#ffffff"
     bordercolor="#666666"
     borderopacity="1"
     objecttolerance="10"
     gridtolerance="10"
     guidetolerance="10"
     inkscape:pageopacity="0"
     inkscape:pageshadow="2"
     inkscape:window-width="1366"
     inkscape:window-height="715"
     id="namedview22"
     showgrid="false"
     inkscape:zoom="0.35757577"
     inkscape:cx="-430.91197"
     inkscape:cy="425.05352"
     inkscape:window-x="-8"
     inkscape:window-y="-8"
     inkscape:window-maximized="1"
     inkscape:current-layer="svg2" />
  <defs
     id="defs4">
    <radialGradient
       id="rg"
       gradientUnits="userSpaceOnUse"
       cx="220"
       cy="220"
       r="405">
      <stop
         style="stop-color:#fff;stop-opacity:.3"
         offset="0"
         id="stop7" />
      <stop
         style="stop-color:#fff;stop-opacity:.2"
         offset=".2"
         id="stop9" />
      <stop
         style="stop-color:#666;stop-opacity:.1"
         offset=".6"
         id="stop11" />
      <stop
         style="stop-color:#000;stop-opacity:.13"
         offset="1"
         id="stop13" />
    </radialGradient>
    <path
       id="shield"
       d="m2,2v257c0,286 298,398 298,398c0,0 298-112 298-398V2z" />
    <radialGradient
       id="rg-1"
       gradientUnits="userSpaceOnUse"
       cx="220"
       cy="220"
       r="405">
      <stop
         style="stop-color:#fff;stop-opacity:.3"
         offset="0"
         id="stop7-7" />
      <stop
         style="stop-color:#fff;stop-opacity:.2"
         offset=".2"
         id="stop9-4" />
      <stop
         style="stop-color:#666;stop-opacity:.1"
         offset=".6"
         id="stop11-0" />
      <stop
         style="stop-color:#000;stop-opacity:.13"
         offset="1"
         id="stop13-9" />
    </radialGradient>
    <radialGradient
       id="radialGradient3014"
       gradientUnits="userSpaceOnUse"
       cx="220"
       cy="220"
       r="405">
      <stop
         style="stop-color:#fff;stop-opacity:.3"
         offset="0"
         id="stop3016" />
      <stop
         style="stop-color:#fff;stop-opacity:.2"
         offset=".2"
         id="stop3018" />
      <stop
         style="stop-color:#666;stop-opacity:.1"
         offset=".6"
         id="stop3020" />
      <stop
         style="stop-color:#000;stop-opacity:.13"
         offset="1"
         id="stop3022" />
    </radialGradient>
    <radialGradient
       id="rg-1-1"
       gradientUnits="userSpaceOnUse"
       cx="220"
       cy="220"
       r="405">
      <stop
         style="stop-color:#fff;stop-opacity:.3"
         offset="0"
         id="stop7-7-7" />
      <stop
         style="stop-color:#fff;stop-opacity:.2"
         offset=".2"
         id="stop9-4-4" />
      <stop
         style="stop-color:#666;stop-opacity:.1"
         offset=".6"
         id="stop11-0-0" />
      <stop
         style="stop-color:#000;stop-opacity:.13"
         offset="1"
         id="stop13-9-9" />
    </radialGradient>
    <radialGradient
       id="radialGradient3159"
       gradientUnits="userSpaceOnUse"
       cx="220"
       cy="220"
       r="405">
      <stop
         style="stop-color:#fff;stop-opacity:.3"
         offset="0"
         id="stop3161" />
      <stop
         style="stop-color:#fff;stop-opacity:.2"
         offset=".2"
         id="stop3163" />
      <stop
         style="stop-color:#666;stop-opacity:.1"
         offset=".6"
         id="stop3165" />
      <stop
         style="stop-color:#000;stop-opacity:.13"
         offset="1"
         id="stop3167" />
    </radialGradient>
  </defs>
  <use
     height="1052.3622"
     width="744.09448"
     y="0"
     x="0"
     id="background"
     xlink:href="#shield"
     style="fill:#ff7777;fill-opacity:1" />
  <g
     id="g3416"
     transform="translate(-6.0115501,1.0000001e-6)">
    <path
       inkscape:connector-curvature="0"
       sodipodi:nodetypes="ccccssccssccsccsssscscccscccsscccssccsssccscsssccssscccsccsssccccc"
       id="path7687"
       style="fill:#000000;fill-opacity:1;stroke:#313131;stroke-width:3.52291179;stroke-miterlimit:4;stroke-opacity:1;stroke-dasharray:none"
       d="m 313.12424,373.44137 c 0.62991,1.49211 12.45409,43.07333 13.05517,44.60585 0.67034,1.8154 3.62694,7.46241 4.15233,8.60361 1.8969,3.92528 1.89047,8.9834 -0.0199,13.85936 -1.12903,2.63331 -2.50051,6.99221 -2.94185,8.87177 -0.44135,1.88084 -0.43492,4.29603 -0.70435,6.38087 -0.47087,3.67123 -5.20697,57.2919 -5.19925,60.64818 -0.68641,8.01346 -1.64737,16.07695 -2.57752,23.8768 0,0 -1.96359,13.46483 -1.31696,14.75293 0.23028,0.46254 1.21176,2.4492 3.73344,3.38385 4.52441,1.67362 13.85935,3.77899 13.85935,3.77899 l -1.19252,3.12341 c 0,0 -1.49467,0.0937 -2.03609,0.13405 -1.02252,0.0712 -3.19139,0.18028 -3.19139,0.18028 l -0.0617,-0.0123 c 0,0 -4.41278,-1.18419 -6.2808,-1.66403 -2.40686,-0.61774 -4.89775,-1.25796 -7.30462,-2.08355 -0.71268,-0.23158 -1.47349,-0.34704 -2.30936,-0.34704 -1.78653,0 -13.7984,3.47686 -17.60305,4.43911 -3.6398,0.92307 -23.79278,6.59896 -30.1185,7.95956 0,0 -4.04714,1.31185 -5.55912,2.16117 -1.537,0.86857 -3.12726,1.76152 -4.97155,2.09509 -0.36436,0.041 -0.69536,0.059 -1.02894,0.059 l 0,0 c -1.52995,0 -3.01433,-0.35088 -4.45257,-0.68766 -0.55488,-0.12893 -2.23171,-0.48112 -2.23171,-0.48112 l 0.28415,-3.03104 c 0,0 9.60246,-2.37543 13.84332,-2.88541 3.66353,-0.45738 7.21417,-1.72494 10.64869,-2.95533 1.8571,-0.66524 3.77772,-1.35418 5.70668,-1.91162 1.70378,-0.49844 3.3338,-1.11493 4.8753,-1.84043 -2.56339,0.46633 -5.38528,0.85958 -8.72167,1.22908 -3.15098,0.62417 -14.91201,2.31899 -17.54724,2.79626 -1.49981,0.20013 -2.84757,0.29569 -4.1498,0.29569 -1.18996,0 -2.33886,-0.084 -3.41655,-0.25081 -1.34584,-0.20912 -3.41656,-3.142 -3.41656,-3.142 l 0.82046,-0.28097 c 2.03222,-0.69281 4.23124,-1.13608 6.75423,-1.34968 1.20533,-0.10128 4.91379,-0.1418 5.12034,-0.1418 3.72768,0 7.49644,-0.56641 11.14202,-1.10978 1.78396,-0.26556 3.63082,-0.54396 5.45648,-0.75181 0,0 5.74453,-0.38232 7.96343,-1.29324 -0.54783,0.0578 -6.52394,0.52857 -7.13782,0.52857 -3.40888,0 -6.93579,0 -10.39916,-0.48496 -0.68128,0.0449 -1.36701,0.0976 -2.05342,0.15131 -2.0457,0.15659 -4.16198,0.31946 -6.25706,0.31946 -2.61472,0 -6.28979,-0.39323 -7.0461,-0.92117 -0.75824,-0.52731 -2.84694,-3.16832 -2.84694,-3.16832 l 1.00845,-0.24954 c 0.89228,-0.2245 1.83399,-0.331 2.88283,-0.331 1.45682,0 2.92645,0.21041 4.34351,0.41438 1.40552,0.20018 2.83922,0.40738 4.22614,0.40738 0.88587,0 1.68261,-0.0814 2.43572,-0.25082 l 0.0539,-0.0141 0.0539,-0.002 c 6.0088,-0.297 19.20228,-1.48248 20.10295,-1.48248 6.47386,0 12.6206,-1.59859 17.77239,-4.62449 4.23512,-2.69103 7.71903,-6.61309 9.34776,-11.71483 1.16045,-3.69239 1.78141,-7.55352 2.285,-11.18371 0.2367,-1.74164 2.13229,-61.92856 2.04505,-67.9951 -0.0867,-6.06654 -1.24384,-20.88108 -1.4472,-23.29499 -0.25338,-3.0631 -0.51898,-6.23718 -0.26045,-9.39522 0.13282,-1.39972 1.51841,-6.00369 1.68392,-7.01019 -0.38747,-3.04836 -1.38817,-6.04024 -2.35556,-8.93719 l -11.53419,-40.51797 14.03447,2.74075 z" />
    <path
       inkscape:connector-curvature="0"
       d="m 319.81409,383.98879 -3.38887,-25.76869 -36.15397,-50.24203 c 1.15404,1.76086 20.4201,71.58457 22.74251,78.33802 0.57411,1.51713 9.82169,-6.50551 6.16032,-5.6796 l 10.64001,3.3523 z"
       style="fill:#ffdd00;stroke:#000000;stroke-width:3.96327567;stroke-miterlimit:4;stroke-opacity:1;stroke-dasharray:none"
       id="path7540"
       sodipodi:nodetypes="cccccc" />
    <path
       inkscape:connector-curvature="0"
       d="m 340.38032,386.92443 c 0.62991,1.49211 8.79338,43.07334 9.39444,44.60586 0.67036,1.81539 3.62696,7.46241 4.15235,8.60362 1.89688,3.92526 1.89045,8.98339 -0.0199,13.85934 -1.12903,2.63331 -2.50053,6.99221 -2.94186,8.87177 -0.44134,1.88085 -0.43492,4.29605 -0.70434,6.38088 -0.47089,3.67122 -5.20699,57.29189 -5.19927,60.64817 -0.6864,8.01346 -1.64735,16.07695 -2.57752,23.8768 0,0 -1.96358,13.46483 -1.31695,14.75293 0.23029,0.46253 1.21177,2.4492 3.73344,3.38385 4.52442,1.67363 13.85934,3.77901 13.85934,3.77901 l -1.19252,3.1234 c 0,0 -1.49467,0.0937 -2.03607,0.13404 -1.02254,0.0712 -3.19142,0.18027 -3.19142,0.18027 l -0.0616,-0.0123 c 0,0 -4.41278,-1.18419 -6.28079,-1.66403 -2.40685,-0.61774 -4.89776,-1.25796 -7.30462,-2.08356 -0.7127,-0.23156 -1.47351,-0.34704 -2.30935,-0.34704 -1.78656,0 -13.7984,3.47687 -17.60308,4.43912 -3.63978,0.92307 -23.79277,6.59896 -30.1185,7.95956 0,0 -4.04714,1.31184 -5.5591,2.16116 -1.53699,0.86858 -3.12727,1.76153 -4.97155,2.0951 -0.36437,0.041 -0.69537,0.059 -1.02895,0.059 l 0,0 c -1.52995,0 -3.01433,-0.35089 -4.45256,-0.68766 -0.55488,-0.12894 -2.23173,-0.48112 -2.23173,-0.48112 l 0.28418,-3.03105 c 0,0 9.60243,-2.37542 13.8433,-2.8854 3.66353,-0.45738 7.21418,-1.72496 10.64868,-2.95534 1.85713,-0.66523 3.77775,-1.35417 5.70668,-1.91162 1.7038,-0.49844 3.33382,-1.11493 4.87531,-1.84042 -2.56338,0.46633 -5.38527,0.85957 -8.72166,1.22907 -3.15098,0.62418 -14.91203,2.319 -17.54725,2.79626 -1.49979,0.20014 -2.84757,0.2957 -4.14978,0.2957 -1.18997,0 -2.33886,-0.084 -3.41656,-0.25082 -1.34585,-0.20912 -3.41657,-3.14199 -3.41657,-3.14199 l 0.82047,-0.28099 c 2.03223,-0.6928 4.23125,-1.13607 6.75423,-1.34966 1.20533,-0.10129 4.91378,-0.1418 5.12032,-0.1418 3.72769,0 7.49644,-0.56641 11.14202,-1.10979 1.78397,-0.26555 3.63082,-0.54395 5.45648,-0.7518 0,0 5.74453,-0.38233 7.96346,-1.29325 -0.54785,0.0578 -6.52396,0.52858 -7.13784,0.52858 -3.40888,0 -6.93577,0 -10.39917,-0.48496 -0.68126,0.0449 -1.36701,0.0976 -2.05341,0.15131 -2.0457,0.15659 -4.16197,0.31945 -6.25706,0.31945 -2.61471,0 -6.28977,-0.39322 -7.04611,-0.92117 -0.75824,-0.52729 -2.84692,-3.16831 -2.84692,-3.16831 l 1.00844,-0.24955 c 0.8923,-0.22449 1.83401,-0.33099 2.88285,-0.33099 1.45679,0 2.92645,0.2104 4.34348,0.41438 1.40552,0.20017 2.83924,0.40737 4.22614,0.40737 0.88587,0 1.68262,-0.0815 2.43574,-0.25081 l 0.0539,-0.0141 0.0539,-0.002 c 6.00881,-0.297 19.2023,-1.48248 20.10295,-1.48248 6.47388,0 12.62062,-1.59859 17.77241,-4.62449 4.23512,-2.69103 7.71903,-6.61309 9.34776,-11.71483 1.16045,-3.6924 1.78142,-7.55353 2.28498,-11.18371 0.2367,-1.74164 2.13231,-61.92856 2.04505,-67.99511 -0.0867,-6.06654 -1.24383,-20.88107 -1.44719,-23.29499 -0.25339,-3.0631 -0.51896,-6.23719 -0.26043,-9.39521 0.13281,-1.39974 1.51841,-6.0037 1.68391,-7.01019 -0.38748,-3.04836 -1.38818,-6.04025 -2.35556,-8.93719 l -7.87348,-41.13412 14.03447,3.3569 z"
       style="fill:#000000;fill-opacity:1;stroke:#313131;stroke-width:3.52291179;stroke-miterlimit:4;stroke-opacity:1;stroke-dasharray:none"
       id="path7564"
       sodipodi:nodetypes="ccccssccssccsccscsscscccscccsscccssccsssccscsssccssscccsccsssccccc" />
    <path
       inkscape:connector-curvature="0"
       sodipodi:nodetypes="cssss"
       id="path7689"
       style="fill:#ffdd00;fill-opacity:1;stroke:#000000;stroke-width:2.97245693;stroke-miterlimit:4;stroke-opacity:1;stroke-dasharray:none"
       d="m 356.77005,115.96049 c 0.0863,-0.16529 -46.93792,-32.009215 -50.54237,-34.660072 -8.23035,-6.052972 -0.0713,-0.03049 -0.10727,-0.03683 -0.12577,-0.02214 -5.69542,11.62736 -5.89302,13.629845 -0.0159,0.168007 56.46725,21.211767 56.54271,21.067067 z" />
    <path
       inkscape:connector-curvature="0"
       d="m 414.12707,327.80782 c 20.23792,29.57241 24.58286,56.06054 40.49296,106.48091 -3.78175,6.14447 -2.18331,10.51605 -12.0526,5.63882 0,0 -45.37362,-47.8429 -56.11854,-49.04569 L 344.40058,366.9661 c 0.0301,1.69739 0.14585,22.78735 0.0208,24.24802 -0.0763,2.46588 -11.64366,-6.00704 -12.31529,-3.68806 l -6.91896,5.23598 -11.22669,-26.62416 c -3.97659,-0.28097 -7.0429,-2.67758 -10.00336,-4.99269 -0.31434,-0.24956 -10.55926,-31.76444 -10.95762,-32.38541 -1.26692,-1.97322 -29.12627,-35.14104 -30.92181,-37.51906 -1.98218,-2.7943 0.14444,3.55386 -5.34854,6.58525 -0.94105,1.52099 -0.31329,-22.43476 -2.09599,-21.22684 -2.3241,1.57292 -6.57928,12.48687 -6.57928,12.48687 0,0 2.61807,-27.72942 0.0238,-25.23275 -2.75004,2.64486 -6.40082,10.96175 -6.40082,10.96175 0,0 2.98923,-27.0941 2.97447,-27.30385 -0.67677,1.09885 -8.08376,15.13283 -8.08376,15.13283 0,0 0.22649,-24.08997 -0.009,-26.56419 -0.74476,1.3837 -5.44742,8.70935 -5.44742,8.70935 4.55697,-27.76185 -20.86223,-111.90193 47.49894,-120.96602 13.3707,-1.51391 15.92818,-27.646566 -24.39867,-9.42517 -2.07328,-1.36574 -11.82505,2.60778 -10.88142,0.65573 1.33558,-2.57173 3.25101,-8.97803 5.35701,-10.80179 -0.059,10e-4 -4.30176,2.04483 -6.69963,-0.24014 -2.22278,-2.1169 -4.07666,-4.578949 -4.30504,-5.274326 -0.75325,-1.089723 -2.88031,-13.443352 7.50404,-21.033362 6.5066,-5.927355 21.26542,-10.435444 28.52447,-10.435444 17.04946,0 36.6929,15.133334 41.88453,22.183446 23.96135,47.465146 -27.00397,57.012436 -36.18032,65.352556 -13.5618,12.3259 -11.10128,34.20213 -2.77914,47.03642 5.73831,8.84953 5.20653,-25.19666 27.35705,-28.30396 39.40003,-6.53183 140.60233,150.45981 137.4173,166.96265 l -27.28331,-12.69191 z"
       style="fill:#ffdd00;stroke:#010101;stroke-width:3.52291179;stroke-miterlimit:4;stroke-dasharray:none"
       id="path7566"
       sodipodi:nodetypes="cccscccccssccscscccccccccsccscssccc" />
    <path
       inkscape:connector-curvature="0"
       d="m 283.57474,80.817215 c -0.36309,-0.665215 -6.33596,0.356021 -6.33596,0.356021 -3.71485,0.720405 -7.47592,1.433081 -11.19588,1.431813 -0.40221,0 -0.80315,-0.0078 -1.20279,-0.02501 l -0.0314,-0.0013 -0.0366,0 c -1.91805,0.02501 -4.54684,0.155237 -6.92999,1.347117 -3.75847,1.746774 -5.62647,5.155628 -7.48743,8.39515 -0.7281,1.275918 -1.46453,2.562099 -2.25997,3.693694 l -0.27713,0.394504 -1.05395,1.494036 2.53067,1.414473 c 0,0 2.7398,-3.189466 3.60836,-3.895107 0.87049,-0.701798 1.7577,-1.136726 2.9207,-1.197027 0.37847,0.05645 0.77427,0.123178 1.18164,0.190535 1.21431,0.19949 2.52487,0.424664 3.85532,0.42722 1.69416,0.009 3.19973,-0.408634 4.41151,-1.337506 1.39588,-1.109123 2.32669,-2.508219 3.26005,-3.861738 1.26309,-1.859053 2.45045,-3.528187 4.26587,-4.449371 1.02961,-0.340623 2.0964,-0.654317 3.14072,-0.961589 0.6338,-0.187304 8.00002,-2.750059 7.63628,-3.415928 z"
       style="fill:#010101;stroke-width:2;stroke-miterlimit:4;stroke-dasharray:none"
       id="path7576" />
    <path
       inkscape:connector-curvature="0"
       d="m 258.68014,89.220708 c -0.44711,-0.436852 0.51254,-2.143856 0.8455,-2.478712 0.7871,-0.786453 2.84304,-1.148894 3.26515,-0.483678 0.42208,0.665215 0.30215,1.753175 -0.72552,2.41841 -0.58953,0.382318 -2.78085,1.132228 -3.38513,0.54398 z"
       style="fill:#ffffff;stroke-width:2;stroke-miterlimit:4;stroke-dasharray:none"
       id="path7578" />
    <path
       inkscape:connector-curvature="0"
       d="m 416.46124,377.57744 c 0.13873,-13.5364 -95.85606,-116.09213 -116.40313,-116.8069 -8.71989,-0.30332 -16.89166,13.25764 -18.38891,26.72886 -1.49722,13.47123 4.49044,26.72886 15.18147,26.94248 10.69231,0.21363 9.62229,-5.13192 9.62229,-5.13192"
       style="fill:none;stroke:#010101;stroke-width:2.97245693;stroke-miterlimit:4;stroke-dasharray:none"
       id="path7580"
       sodipodi:nodetypes="csssc" />
    <path
       inkscape:connector-curvature="0"
       d="m 433.93799,411.60953 c -2.20871,1.76697 -27.78961,-31.69931 -33.78459,-32.50227 -26.75889,-3.58398 -96.68293,-90.07106 -95.04484,-90.12955"
       style="fill:none;stroke:#010101;stroke-width:2.97245693;stroke-miterlimit:4;stroke-dasharray:none"
       id="path7588"
       sodipodi:nodetypes="csc" />
    <path
       inkscape:connector-curvature="0"
       d="m 306.50435,322.32793 c 0,0 40.35429,25.67667 41.51542,32.11849 0.82788,4.59293 32.695,31.15931 42.71599,32.97816 5.71554,1.03737 9.1938,-1.9245 9.1938,-1.9245"
       style="fill:none;stroke:#010101;stroke-width:2.97245693;stroke-miterlimit:4;stroke-dasharray:none"
       id="path7590"
       sodipodi:nodetypes="cssc" />
    <path
       style="fill:#000000;fill-opacity:1;stroke:#313131;stroke-width:2.60100865px;stroke-linecap:butt;stroke-linejoin:miter;stroke-opacity:1;display:inline"
       d="m 228.07506,106.1578 -66.25489,39.73729 c 28.10733,-10.21953 56.21464,-20.43902 84.32196,-30.65856 -1.82555,-6.74174 -6.40451,-11.04586 -18.06707,-9.07873 z"
       id="path3880"
       inkscape:connector-curvature="0"
       sodipodi:nodetypes="cccc" />
    <g
       style="stroke:#000000;stroke-opacity:1"
       transform="matrix(0.13849777,0,0,0.13849777,150.88316,68.202638)"
       inkscape:label="Calque 1"
       id="layer1-0">
      <g
         style="stroke:#000000;stroke-opacity:1"
         id="g3164"
         transform="matrix(5.951214,0,0,5.951214,-1586.498,-2284.95)">
        <path
           inkscape:connector-curvature="0"
           sodipodi:nodetypes="cccccccccccccccccccccccccccccccccccc"
           id="path2125"
           d="m 276.42857,397.36218 c 4.04762,1.42857 8.09524,2.85715 12.14286,4.28572 4.04762,1.42857 8.09524,2.85714 12.14286,4.28571 3.45238,1.78571 6.90476,3.57143 10.35714,5.35714 3.21429,2.61905 6.42857,5.2381 9.64286,7.85715 1.90476,2.14286 3.80952,4.28571 5.71428,6.42857 0.95238,-0.35714 1.90476,-0.71429 2.85714,-1.07143 4.16667,0 8.33333,0 12.5,0 0.11905,4.64286 0.2381,9.28571 0.35715,13.92857 -1.19048,0.95238 -2.38095,1.90476 -3.57143,2.85714 2.85714,4.64286 5.71429,9.28571 8.57143,13.92857 3.80952,1.07143 7.61905,2.14286 11.42857,3.21429 -1.25,6.22024 0.0298,12.7381 1.78571,17.14286 -1.66667,0.23809 -3.33333,0.47619 -5,0.71428 1.90476,2.7381 3.80953,5.47619 5.71429,8.21429 1.66667,1.07143 3.33333,2.14285 5,3.21428 7.14286,4.16667 14.28571,8.33333 21.42857,12.5 -11.13095,1.39881 -11.99405,1.84524 -6.78571,11.78572 -0.71429,0.59524 -1.42857,1.19047 -2.14286,1.78571 -10.98215,-6.33929 -12.76785,-0.71428 -13.92857,8.57143 -5.77381,-3.00596 -5.47619,-8.33333 -8.21429,-12.5 -0.83333,-3.45238 -1.66667,-6.90476 -2.5,-10.35714 -2.2619,-3.09524 -4.52381,-6.19048 -6.78571,-9.28572 -0.83333,-0.59524 -1.66667,-1.19047 -2.5,-1.78571 0,1.19048 0,2.38095 0,3.57143 -6.90476,-1.30952 -13.80953,-2.61905 -20.71429,-3.92857 -0.59524,-3.80952 -1.19047,-7.61905 -1.78571,-11.42857 -2.5,-1.78572 -5,-3.57143 -7.5,-5.35715 -0.35714,2.26191 -0.71429,4.52381 -1.07143,6.78572 -1.90476,0.23809 -3.80953,0.47619 -5.71429,0.71428 0.11905,-3.92857 0.2381,-7.85714 0.35715,-11.78571 -6.54762,-7.97619 -13.09524,-15.95238 -19.64286,-23.92857 -2.14286,-4.16667 -4.28571,-8.33333 -6.42857,-12.5 -1.54762,-5 -3.09524,-10 -4.64286,-15 -1.54762,-3.69048 -3.09524,-7.38095 -4.64286,-11.07143 1.19048,-2.38095 2.38095,-4.76191 3.57143,-7.14286 z"
           style="fill:#dddddd;fill-opacity:1;fill-rule:evenodd;stroke:#000000;stroke-width:1px;stroke-linecap:butt;stroke-linejoin:miter;stroke-opacity:1" />
        <path
           inkscape:connector-curvature="0"
           d="m 274.62188,401.56929 c -0.11011,-0.46106 0.68739,0.79774 0.90211,1.11596 0.38632,0.55233 0.67317,1.15941 0.96506,1.76412 0.25789,0.49123 0.36926,1.0338 0.51165,1.56403 0.12554,0.38941 0.25025,0.779 0.3641,1.17247 l -0.8141,0.24752 c -0.1144,-0.39515 -0.2385,-0.78671 -0.36563,-1.17756 -0.12882,-0.48134 -0.22555,-0.97467 -0.45522,-1.42222 -0.27892,-0.57825 -0.55013,-1.15989 -0.92093,-1.68717 -0.35321,-0.51993 -0.78624,-1.00276 -1.03794,-1.57715 l 0.8509,0 z"
           id="path2871"
           style="fill:#000000;fill-opacity:1;fill-rule:nonzero;stroke:#000000;stroke-opacity:1" />
        <path
           inkscape:connector-curvature="0"
           d="m 282.31075,404.2162 c -0.0883,0.0255 -0.80652,0.43772 -1.08837,0.67802 -0.30426,0.31907 -0.34775,0.64932 -0.35329,1.06653 0.0467,0.48964 0.31967,0.93051 0.58389,1.33762 0.24352,0.33435 0.61373,0.4675 1.00811,0.52465 0.43199,0.0573 0.67722,0.0259 0.97935,-0.22594 0.35937,-0.30333 0.40701,-0.63488 0.42187,-1.07741 -0.005,-0.51065 0.0285,-1.0222 -0.0545,-1.52606 -0.16092,-0.39599 -0.50722,-0.57786 -0.8651,-0.77583 -0.348,-0.19365 -0.68464,-0.18464 -1.05836,-0.10968 -0.19176,0.0638 -0.273,0.35382 -0.36616,0.58451 -0.008,0.0492 -0.009,0.0989 -0.0139,0.14841 l -0.84802,-0.0699 c 0.009,-0.0803 0.01,-0.16151 0.0267,-0.24095 0.16579,-0.53148 0.39131,-1.04259 0.95679,-1.23705 0.59609,-0.13206 1.15972,-0.1264 1.71088,0.17791 0.56185,0.31128 1.09397,0.66776 1.28397,1.32145 0.10019,0.5762 0.0834,1.15678 0.0785,1.74136 -0.0249,0.66271 -0.16316,1.22584 -0.68639,1.67994 -0.48436,0.43331 -0.97909,0.53206 -1.62672,0.45793 -0.66935,-0.0704 -1.27241,-0.36098 -1.66734,-0.92043 -0.35252,-0.54336 -0.68388,-1.13448 -0.71444,-1.79346 0.0103,-0.63939 0.13874,-1.19988 0.60964,-1.67232 0.48584,-0.43226 1.04757,-0.76706 1.68291,-0.92019 l 0,0.85089 z"
           id="path2873"
           style="fill:#000000;fill-opacity:1;fill-rule:nonzero;stroke:#000000;stroke-opacity:1" />
        <path
           inkscape:connector-curvature="0"
           d="m 277.86782,415.50816 c 0.57362,-0.0269 1.13617,0.098 1.70479,0.14954 0.82485,0.0492 1.64551,0.0748 2.45337,-0.11183 0.75871,-0.2136 1.49857,-0.48145 2.24507,-0.73256 0.55458,-0.2133 1.09181,-0.47726 1.61914,-0.75146 0.55738,-0.24442 0.98995,-0.62209 1.43613,-1.02049 0.42436,-0.40787 0.76143,-0.89014 1.04302,-1.40352 0.0313,-0.053 0.0577,-0.10866 0.0866,-0.16298 l 0.75505,0.39232 c -0.0236,0.0437 -0.0445,0.0888 -0.0708,0.13099 -0.33532,0.61819 -0.73805,1.19955 -1.25376,1.68375 -0.48653,0.44849 -0.98858,0.84652 -1.59344,1.12946 -0.56518,0.2932 -1.14041,0.57607 -1.73522,0.80307 -0.77684,0.2617 -1.54746,0.53999 -2.33782,0.75991 -0.89447,0.20348 -1.8014,0.19147 -2.71437,0.13159 -0.54645,-0.0507 -1.08691,-0.16956 -1.63774,-0.14689 l 0,-0.8509 z"
           id="path2875-1"
           style="fill:#000000;fill-opacity:1;fill-rule:nonzero;stroke:#000000;stroke-opacity:1" />
        <path
           inkscape:connector-curvature="0"
           d="m 326.52854,425.06173 c 0.64222,0.26266 1.02607,1.00645 1.48727,1.52666 0.47656,0.44854 0.94169,0.90727 1.37791,1.39453 0.62795,0.62357 1.22704,1.29168 1.72716,2.02391 0.42933,0.60617 0.85222,1.21637 1.30321,1.80692 0.49247,0.79146 1.04634,1.52558 1.65592,2.23076 0.62603,0.63968 1.21769,1.30399 1.72933,2.03827 0.36872,0.59462 0.72348,1.19725 1.10021,1.78675 0.40398,0.7011 0.82167,1.39502 1.29064,2.05436 0.26188,0.38251 0.52261,0.76614 0.77951,1.15192 l -0.72354,0.44778 c -0.24087,-0.36178 -0.48734,-0.72032 -0.73034,-1.0808 -0.49697,-0.67537 -0.91569,-1.40501 -1.34067,-2.12688 -0.3649,-0.57063 -0.70992,-1.15333 -1.06299,-1.73133 -0.501,-0.70635 -1.06416,-1.35599 -1.67519,-1.97149 -0.63809,-0.71214 -1.18874,-1.48108 -1.70127,-2.28573 -0.46046,-0.60375 -0.89312,-1.22694 -1.33151,-1.8466 -0.48348,-0.68118 -1.02881,-1.32321 -1.62976,-1.90389 -0.44141,-0.48184 -0.89687,-0.94893 -1.377,-1.39359 -0.28733,-0.30857 -1.23038,-1.24525 -0.87889,-1.27065 l 0,-0.8509 z"
           id="path2877"
           style="fill:#000000;fill-opacity:1;fill-rule:nonzero;stroke:#000000;stroke-opacity:1" />
        <path
           inkscape:connector-curvature="0"
           d="m 308.5152,466.09947 c 1.15628,0.70857 2.23437,1.49804 3.22907,2.41955 0.61827,0.64937 1.36326,1.12489 2.14909,1.54078 0.50306,0.29141 1.00353,0.58893 1.48796,0.90982 0.077,0.0682 0.0839,0.0694 0.14916,0.1234 l -0.53647,0.66047 c -0.035,-0.0299 -0.0732,-0.0562 -0.10492,-0.0898 -0.46564,-0.29641 -0.93328,-0.59251 -1.41515,-0.86355 -0.84574,-0.4467 -1.64365,-0.96687 -2.31186,-1.66058 -0.9319,-0.86371 -1.96009,-1.6197 -3.02741,-2.27903 l 0.38053,-0.76106 z"
           id="path2879"
           style="fill:#000000;fill-opacity:1;fill-rule:nonzero;stroke:#000000;stroke-opacity:1" />
        <path
           inkscape:connector-curvature="0"
           d="m 322.64363,476.18985 c 0.8553,0.51554 1.77308,0.94193 2.63595,1.45402 0.9772,0.59392 1.92339,1.2374 2.91976,1.79942 1.17328,0.63285 2.32661,1.30462 3.45097,2.02092 0.84933,0.45573 1.59242,1.06876 2.37565,1.62301 0.9932,0.5441 1.97761,1.10379 2.95739,1.67237 0.84411,0.43306 1.69338,0.85272 2.52458,1.30997 0.75153,0.39153 1.511,0.76497 2.27824,1.12373 0.59075,0.26724 1.22572,0.41286 1.85959,0.53634 0.26934,0.0749 0.54774,0.0908 0.82459,0.11288 l -0.10959,0.84381 c -0.30109,-0.0231 -0.60373,-0.0449 -0.89683,-0.12545 -0.69879,-0.13569 -1.39679,-0.30394 -2.04677,-0.60087 -0.77641,-0.36507 -1.54683,-0.74142 -2.30785,-1.13869 -0.83981,-0.46186 -1.69832,-0.88475 -2.55018,-1.32412 -0.99736,-0.5788 -2.00106,-1.14557 -3.0091,-1.70462 -0.77763,-0.54982 -1.51462,-1.15869 -2.35751,-1.61111 -1.12476,-0.69101 -2.24735,-1.38761 -3.41764,-2.0007 -0.99835,-0.56393 -1.94745,-1.20734 -2.92648,-1.80333 -0.92367,-0.54929 -1.92446,-0.97715 -2.80645,-1.58591 l 0.60168,-0.60167 z"
           id="path2881"
           style="fill:#000000;fill-opacity:1;fill-rule:nonzero;stroke:#000000;stroke-opacity:1" />
        <path
           inkscape:connector-curvature="0"
           d="m 355.28884,476.28007 c -0.60793,-1.15149 -1.58695,-3.0853 -2.27884,-4.52468 -0.8559,-1.54141 -1.59348,-3.14359 -2.40508,-4.70735 -0.55658,-1.04689 -0.98713,-2.15222 -1.41843,-3.2545 -0.3794,-0.93524 -0.77818,-1.86333 -1.17356,-2.79203 -0.44014,-0.97739 -0.84943,-1.97275 -1.17479,-2.99482 -0.19785,-0.71752 -0.39923,-1.43219 -0.53672,-2.1639 -0.042,-0.49197 -0.0132,-0.98135 -0.0927,-1.4683 l 0.82425,-0.21122 c 0.0922,0.51659 0.0896,1.0316 0.11019,1.55499 0.12801,0.68741 0.32453,1.35671 0.50618,2.03155 0.3138,0.99054 0.71333,1.95389 1.13885,2.90097 0.40323,0.94646 0.80972,1.89232 1.19571,2.84582 0.41883,1.06995 0.836,2.14326 1.37629,3.15952 0.81541,1.57161 1.55749,3.18122 2.41675,4.73072 0.78281,1.62942 1.69924,3.21807 2.3628,4.89323 l -0.85089,0 z"
           id="path2883"
           style="fill:#000000;fill-opacity:1;fill-rule:nonzero;stroke:#000000;stroke-opacity:1" />
        <path
           inkscape:connector-curvature="0"
           d="m 348.22497,459.16888 c 0.66212,0.26743 1.30245,0.50519 2.01442,0.60182 1.34329,0.0513 2.64608,0.18279 3.9232,0.61374 0.70716,0.15329 1.39431,0.36627 2.08645,0.57361 0.34437,0.11603 0.70244,0.1696 1.05604,0.2457 l -0.12611,0.8415 c -0.39213,-0.0775 -0.78516,-0.14856 -1.16725,-0.27007 -0.70012,-0.2097 -1.39499,-0.42359 -2.10983,-0.58077 -1.2301,-0.41483 -2.4828,-0.52632 -3.77644,-0.58048 -0.57357,-0.0793 -1.9578,-0.44765 -1.90048,-0.59416 l 0,-0.85089 z"
           id="path2885"
           style="fill:#000000;fill-opacity:1;fill-rule:nonzero;stroke:#000000;stroke-opacity:1" />
        <path
           inkscape:connector-curvature="0"
           d="m 349.83211,463.45459 c 1.115,0.43039 2.20749,0.78228 3.41051,0.86275 0.886,-0.0268 1.73574,0.12835 2.58917,0.3337 0.51613,0.0789 1.04218,0.0548 1.56292,0.054 l 0.001,0.8509 c -0.58403,8.8e-4 -1.17455,0.0277 -1.75184,-0.075 -0.81127,-0.19621 -1.61516,-0.34424 -2.45875,-0.31466 -1.04087,-0.0709 -2.88531,-0.51589 -3.35319,-0.86082 l 0,-0.85089 z"
           id="path2887"
           style="fill:#000000;fill-opacity:1;fill-rule:nonzero;stroke:#000000;stroke-opacity:1" />
        <path
           inkscape:connector-curvature="0"
           d="m 351.81776,467.47245 c 1.28779,0.15416 2.55925,0.47636 3.82373,0.77153 0.59623,0.14479 1.20853,0.12452 1.81672,0.12235 0.20109,-7.9e-4 0.40219,-8.2e-4 0.60328,-9.9e-4 l 4.3e-4,0.8509 c -0.20022,1.6e-4 -0.40044,1.9e-4 -0.60066,9.8e-4 -0.67108,0.002 -1.3461,0.0185 -2.00364,-0.14245 -1.20494,-0.28117 -2.41621,-0.58136 -3.63986,-0.75143 l 0,-0.85089 z"
           id="path2889"
           style="fill:#000000;fill-opacity:1;fill-rule:nonzero;stroke:#000000;stroke-opacity:1" />
        <path
           inkscape:connector-curvature="0"
           d="m 353.76068,471.49031 c 0.93401,0.10097 1.86204,0.2753 2.80265,0.34073 0.50074,0.013 1.0049,0.0541 1.49983,-0.0318 0.27082,-0.0434 0.53345,-0.12296 0.7999,-0.18627 l 0.14768,0.83798 c -0.26795,0.0716 -0.53815,0.14301 -0.81244,0.18838 -0.55708,0.0937 -1.12215,0.0614 -1.68519,0.0412 -0.92345,-0.0653 -1.83757,-0.22146 -2.75243,-0.33925 l 0,-0.85089 z"
           id="path2891"
           style="fill:#000000;fill-opacity:1;fill-rule:nonzero;stroke:#000000;stroke-opacity:1" />
        <path
           inkscape:connector-curvature="0"
           d="m 326.58616,478.98 c -0.0211,0.83551 -0.0149,1.66038 0.16638,2.47813 0.29737,0.9795 0.44242,1.98883 0.52297,3.00683 0.0587,0.82764 0.15607,1.65462 0.35754,2.45995 0.12331,0.35734 0.26389,0.70792 0.39979,1.05936 l -0.77468,0.35198 c -0.15956,-0.38864 -0.30463,-0.78328 -0.44407,-1.18042 -0.23322,-0.85822 -0.31377,-1.7501 -0.38755,-2.63368 -0.0756,-0.97122 -0.21715,-1.93251 -0.50165,-2.86652 -0.19442,-0.88326 -0.21653,-1.7731 -0.18962,-2.67563 l 0.85089,0 z"
           id="path2893"
           style="fill:#000000;fill-opacity:1;fill-rule:nonzero;stroke:#000000;stroke-opacity:1" />
        <path
           inkscape:connector-curvature="0"
           d="m 329.71116,480.87636 c 0.30324,1.0558 0.59332,2.15246 0.86909,3.22861 0.15732,0.79927 0.50212,1.53105 0.77756,2.28981 0.13819,0.63859 0.36049,1.25203 0.52184,1.88361 0.0364,0.19779 0.11593,0.3811 0.18489,0.56814 l -0.79253,0.30968 c -0.0796,-0.21811 -0.17104,-0.43227 -0.21539,-0.66185 -0.15513,-0.61061 -0.37329,-1.20277 -0.50277,-1.82087 -0.286,-0.77985 -0.63264,-1.5363 -0.79792,-2.3575 -0.2934,-1.14737 -0.62858,-2.28781 -0.89566,-3.43963 l 0.85089,0 z"
           id="path2895"
           style="fill:#000000;fill-opacity:1;fill-rule:nonzero;stroke:#000000;stroke-opacity:1" />
        <path
           inkscape:connector-curvature="0"
           d="m 333.82825,483.59019 c 0.008,1.34468 0.26615,2.63775 0.62633,3.92131 0.12684,0.47357 0.2135,0.95504 0.33862,1.4284 0.0194,0.0778 0.0404,0.15627 0.0603,0.23331 l -0.81003,0.26051 c -0.0221,-0.0844 -0.0496,-0.16666 -0.0662,-0.25245 -0.12571,-0.47394 -0.21619,-0.95492 -0.33903,-1.42977 -0.37685,-1.34572 -0.64877,-2.70244 -0.6594,-4.11135 l 0.84942,-0.05 z"
           id="path2897"
           style="fill:#000000;fill-opacity:1;fill-rule:nonzero;stroke:#000000;stroke-opacity:1" />
        <path
           inkscape:connector-curvature="0"
           d="m 337.13044,485.37308 c 0.0248,1.52263 0.26112,3.00679 0.67136,4.46849 0.0636,0.1905 0.11784,0.38426 0.17273,0.57701 l -0.80718,0.26921 c -0.0596,-0.20801 -0.11972,-0.41601 -0.18639,-0.62209 -0.42301,-1.50694 -0.67061,-3.03835 -0.69719,-4.60796 l 0.84667,-0.0847 z"
           id="path2899"
           style="fill:#000000;fill-opacity:1;fill-rule:nonzero;stroke:#000000;stroke-opacity:1" />
        <path
           inkscape:connector-curvature="0"
           d="m 340.52114,486.93035 c 0.1035,0.87487 0.11302,1.76872 0.30678,2.63038 0.12397,0.48709 0.24698,0.97316 0.35717,1.46323 l -0.83637,0.15655 c -0.11066,-0.47767 -0.22701,-0.95332 -0.34989,-1.42841 -0.19368,-0.88675 -0.22405,-1.8007 -0.32003,-2.70142 l 0.84234,-0.12033 z"
           id="path2901"
           style="fill:#000000;fill-opacity:1;fill-rule:nonzero;stroke:#000000;stroke-opacity:1" />
        <path
           inkscape:connector-curvature="0"
           d="m 311.82151,469.04662 c -0.0781,0.83332 -0.0574,1.67373 -0.0573,2.51007 5.4e-4,1.03147 5.8e-4,2.06293 5.8e-4,3.0944 0.0811,0.73675 0.0473,1.48323 0.12385,2.21761 0.11533,0.3673 0.21545,0.74122 0.29102,1.12108 l -0.84116,0.12828 c -0.0806,-0.3722 -0.18084,-0.73662 -0.28776,-1.10122 -0.10538,-0.78174 -0.0433,-1.58057 -0.13685,-2.36575 0,-1.0314 -3e-5,-2.06281 -5.8e-4,-3.09421 -3e-5,-0.92495 -0.0428,-1.86447 0.10102,-2.77934 l 0.80723,0.26908 z"
           id="path2903"
           style="fill:#000000;fill-opacity:1;fill-rule:nonzero;stroke:#000000;stroke-opacity:1" />
        <path
           inkscape:connector-curvature="0"
           d="m 328.84895,427.77454 c 1.11329,-0.20359 2.27652,-0.1992 3.41022,-0.21041 1.21914,0.033 2.43432,-0.0603 3.65219,-0.0859 0.9171,-0.0102 1.83428,-0.006 2.75142,-0.006 0.85962,8e-5 1.71923,5e-5 2.57885,5e-5 0.1332,10e-4 0.26356,0.0299 0.39526,0.0448 l -0.12209,0.84209 c -0.091,-0.012 -0.18157,-0.0284 -0.27317,-0.036 -0.85966,0 -1.71932,3e-5 -2.57899,-5e-5 -0.91221,-1.8e-4 -1.82447,-0.004 -2.73663,0.006 -1.21993,0.0254 -2.43724,0.11904 -3.65844,0.086 -0.987,0.01 -2.13568,0.0646 -3.03809,0.12062 l -0.38053,-0.76106 z"
           id="path2905"
           style="fill:#000000;fill-opacity:1;fill-rule:nonzero;stroke:#000000;stroke-opacity:1" />
        <path
           inkscape:connector-curvature="0"
           d="m 330.91422,430.15102 c 1.83201,-0.0254 3.66678,0.0486 5.49783,-0.0251 1.21345,-0.0728 2.42941,-0.0652 3.64445,-0.0647 0.55388,5.4e-4 1.10775,4.9e-4 1.66163,4.9e-4 l 1e-5,0.85089 c -0.55405,0 -1.1081,5e-5 -1.66215,-4.8e-4 -1.20352,-5.3e-4 -2.40793,-0.008 -3.60986,0.064 -1.84246,0.0736 -3.6885,9.7e-4 -5.53191,0.0258 l 0,-0.85089 z"
           id="path2907"
           style="fill:#000000;fill-opacity:1;fill-rule:nonzero;stroke:#000000;stroke-opacity:1" />
        <path
           inkscape:connector-curvature="0"
           d="m 333.23527,433.6015 c 0.86899,-1.13929 3.2065,-0.64271 4.53677,-0.6948 0.86061,-0.0622 1.72283,-0.0772 2.58529,-0.0777 0.46224,-0.0159 0.90587,-0.14797 1.37898,-0.17537 l 0.0299,0.85036 c -0.47982,0.0263 -0.93002,0.17745 -1.40935,0.1759 -0.85151,4.3e-4 -1.70273,0.0156 -2.55242,0.0771 -0.70994,0.0265 -3.96241,0.37019 -3.71832,-0.15548 l -0.85089,0 z"
           id="path2909"
           style="fill:#000000;fill-opacity:1;fill-rule:nonzero;stroke:#000000;stroke-opacity:1" />
        <path
           inkscape:connector-curvature="0"
           d="m 335.46779,435.68673 c 0.89598,-0.091 1.7709,-0.34118 2.66293,-0.4611 0.83988,-0.13436 1.68363,-0.16451 2.53213,-0.16505 0.41813,8.2e-4 0.83627,10e-4 1.2544,10e-4 l -8e-5,0.8509 c -0.41817,-8e-5 -0.83634,-3.4e-4 -1.2545,-0.001 -0.81092,5e-4 -1.61695,0.0274 -2.41956,0.1576 -0.92697,0.14026 -1.8398,0.38363 -2.77532,0.46856 l 0,-0.8509 z"
           id="path2911"
           style="fill:#000000;fill-opacity:1;fill-rule:nonzero;stroke:#000000;stroke-opacity:1" />
        <path
           inkscape:connector-curvature="0"
           d="m 336.97395,437.95311 c 0.95893,-0.40124 1.9276,-0.77617 2.91781,-1.09359 0.60284,-0.22772 1.2485,-0.26059 1.87402,-0.39107 l 0.18758,0.82995 c -0.59915,0.13555 -1.22115,0.1514 -1.79999,0.37081 -0.94954,0.3036 -1.87867,0.66437 -2.79889,1.04496 l -0.38053,-0.76106 z"
           id="path2913"
           style="fill:#000000;fill-opacity:1;fill-rule:nonzero;stroke:#000000;stroke-opacity:1" />
        <path
           inkscape:connector-curvature="0"
           sodipodi:nodetypes="cccccccc"
           d="m 288.86488,421.4563 c 0.42709,1.09691 1.01926,2.52728 0.55101,3.70029 -0.51082,0.94842 -1.38188,1.86143 -2.44979,2.1531 -1.0867,0.17345 -2.06628,-0.51212 -2.84149,-1.19938 -0.80749,-0.87913 -1.34284,-1.81899 -0.33959,-0.58283 0.77509,0.68731 1.75476,1.37285 2.84137,1.19943 1.06801,-0.29167 1.93908,-1.20474 2.44986,-2.15313 0.46824,-1.17298 -0.72745,-4.19354 -0.21137,-3.11748 z"
           id="path2922"
           style="fill:#000000;fill-opacity:1;fill-rule:nonzero;stroke:#000000;stroke-opacity:1" />
        <path
           inkscape:connector-curvature="0"
           sodipodi:nodetypes="cccccccc"
           d="m 294.4297,418.17229 c 0.4271,1.09691 1.01926,2.52728 0.55102,3.70029 -0.51083,0.94842 -1.38188,1.86143 -2.44979,2.15309 -1.0867,0.17346 -2.06629,-0.51211 -2.84149,-1.19937 -0.8075,-0.87913 -1.34284,-1.819 -0.3396,-0.58283 0.7751,0.68731 1.75476,1.37285 2.84137,1.19943 1.06801,-0.29167 1.93908,-1.20474 2.44987,-2.15313 0.46824,-1.17298 -0.72745,-4.19354 -0.21138,-3.11748 z"
           id="path2924"
           style="fill:#000000;fill-opacity:1;fill-rule:nonzero;stroke:#000000;stroke-opacity:1" />
        <path
           inkscape:connector-curvature="0"
           sodipodi:nodetypes="cccccccc"
           d="m 299.88588,414.59679 c 0.4271,1.09691 1.01926,2.52728 0.55101,3.70029 -0.51082,0.94841 -1.38188,1.86143 -2.44979,2.15309 -1.0867,0.17345 -2.06628,-0.51211 -2.84149,-1.19938 -0.80749,-0.87913 -1.34283,-1.81899 -0.33959,-0.58282 0.77509,0.68731 1.75476,1.37285 2.84137,1.19942 1.06801,-0.29167 1.93908,-1.20473 2.44987,-2.15313 0.46824,-1.17298 -0.72745,-4.19353 -0.21138,-3.11747 z"
           id="path2926"
           style="fill:#000000;fill-opacity:1;fill-rule:nonzero;stroke:#000000;stroke-opacity:1" />
        <path
           inkscape:connector-curvature="0"
           sodipodi:nodetypes="cccccccc"
           d="m 305.15934,410.94086 c 0.4271,1.09691 1.01926,2.52728 0.55102,3.70029 -0.51083,0.94842 -1.38188,1.86143 -2.44979,2.15309 -1.0867,0.17346 -2.06629,-0.51211 -2.84149,-1.19937 -0.8075,-0.87913 -1.34284,-1.819 -0.3396,-0.58283 0.7751,0.68731 1.75476,1.37285 2.84137,1.19943 1.06801,-0.29167 1.93908,-1.20474 2.44987,-2.15313 0.46824,-1.17298 -0.72745,-4.19354 -0.21138,-3.11748 z"
           id="path2928"
           style="fill:#000000;fill-opacity:1;fill-rule:nonzero;stroke:#000000;stroke-opacity:1" />
        <path
           inkscape:connector-curvature="0"
           sodipodi:nodetypes="cccccccc"
           d="m 289.03691,426.8471 c 0.42709,1.09691 1.01926,2.52728 0.55101,3.70029 -0.51082,0.94842 -1.38188,1.86143 -2.44979,2.1531 -1.0867,0.17345 -2.06628,-0.51212 -2.84149,-1.19938 -0.80749,-0.87913 -1.34284,-1.81899 -0.33959,-0.58283 0.77509,0.68731 1.75476,1.37285 2.84137,1.19943 1.06801,-0.29167 1.93908,-1.20474 2.44986,-2.15313 0.46824,-1.17298 -0.72745,-4.19354 -0.21137,-3.11748 z"
           id="path2930"
           style="fill:#000000;fill-opacity:1;fill-rule:nonzero;stroke:#000000;stroke-opacity:1" />
        <path
           inkscape:connector-curvature="0"
           sodipodi:nodetypes="cccccccc"
           d="m 294.60173,423.56309 c 0.4271,1.09691 1.01926,2.52728 0.55102,3.70029 -0.51083,0.94842 -1.38188,1.86143 -2.44979,2.15309 -1.0867,0.17346 -2.06629,-0.51211 -2.84149,-1.19937 -0.8075,-0.87913 -1.34284,-1.819 -0.3396,-0.58283 0.7751,0.68731 1.75476,1.37285 2.84137,1.19943 1.06801,-0.29167 1.93908,-1.20474 2.44987,-2.15313 0.46824,-1.17298 -0.72745,-4.19354 -0.21138,-3.11748 z"
           id="path2932"
           style="fill:#000000;fill-opacity:1;fill-rule:nonzero;stroke:#000000;stroke-opacity:1" />
        <path
           inkscape:connector-curvature="0"
           sodipodi:nodetypes="cccccccc"
           d="m 300.05791,419.98759 c 0.4271,1.09691 1.01926,2.52728 0.55101,3.70029 -0.51082,0.94841 -1.38188,1.86143 -2.44979,2.15309 -1.0867,0.17345 -2.06628,-0.51211 -2.84149,-1.19938 -0.80749,-0.87913 -1.34283,-1.81899 -0.33959,-0.58282 0.77509,0.68731 1.75476,1.37285 2.84137,1.19942 1.06801,-0.29167 1.93908,-1.20473 2.44987,-2.15313 0.46824,-1.17298 -0.72745,-4.19353 -0.21138,-3.11747 z"
           id="path2934"
           style="fill:#000000;fill-opacity:1;fill-rule:nonzero;stroke:#000000;stroke-opacity:1" />
        <path
           inkscape:connector-curvature="0"
           sodipodi:nodetypes="cccccccc"
           d="m 305.33137,416.33166 c 0.4271,1.09691 1.01926,2.52728 0.55102,3.70029 -0.51083,0.94842 -1.38188,1.86143 -2.44979,2.15309 -1.0867,0.17346 -2.06629,-0.51211 -2.84149,-1.19937 -0.8075,-0.87913 -1.34284,-1.819 -0.3396,-0.58283 0.7751,0.68731 1.75476,1.37285 2.84137,1.19943 1.06801,-0.29167 1.93908,-1.20474 2.44987,-2.15313 0.46824,-1.17298 -0.72745,-4.19354 -0.21138,-3.11748 z"
           id="path2936"
           style="fill:#000000;fill-opacity:1;fill-rule:nonzero;stroke:#000000;stroke-opacity:1" />
        <path
           inkscape:connector-curvature="0"
           sodipodi:nodetypes="cccccccc"
           d="m 294.57263,428.45424 c 0.42709,1.09691 1.01926,2.52728 0.55101,3.70029 -0.51082,0.94842 -1.38188,1.86143 -2.44979,2.1531 -1.0867,0.17345 -2.06628,-0.51212 -2.84149,-1.19938 -0.80749,-0.87913 -1.34284,-1.81899 -0.33959,-0.58283 0.77509,0.68731 1.75476,1.37285 2.84137,1.19943 1.06801,-0.29167 1.93908,-1.20474 2.44986,-2.15313 0.46824,-1.17298 -0.72745,-4.19354 -0.21137,-3.11748 z"
           id="path2938"
           style="fill:#000000;fill-opacity:1;fill-rule:nonzero;stroke:#000000;stroke-opacity:1" />
        <path
           inkscape:connector-curvature="0"
           sodipodi:nodetypes="cccccccc"
           d="m 300.13745,425.17023 c 0.4271,1.09691 1.01926,2.52728 0.55102,3.70029 -0.51083,0.94842 -1.38188,1.86143 -2.44979,2.15309 -1.0867,0.17346 -2.06629,-0.51211 -2.84149,-1.19937 -0.8075,-0.87913 -1.34284,-1.819 -0.3396,-0.58283 0.7751,0.68731 1.75476,1.37285 2.84137,1.19943 1.06801,-0.29167 1.93908,-1.20474 2.44987,-2.15313 0.46824,-1.17298 -0.72745,-4.19354 -0.21138,-3.11748 z"
           id="path2940"
           style="fill:#000000;fill-opacity:1;fill-rule:nonzero;stroke:#000000;stroke-opacity:1" />
        <path
           inkscape:connector-curvature="0"
           sodipodi:nodetypes="cccccccc"
           d="m 305.59363,421.59473 c 0.4271,1.09691 1.01926,2.52728 0.55101,3.70029 -0.51082,0.94841 -1.38188,1.86143 -2.44979,2.15309 -1.0867,0.17345 -2.06628,-0.51211 -2.84149,-1.19938 -0.80749,-0.87913 -1.34283,-1.81899 -0.33959,-0.58282 0.77509,0.68731 1.75476,1.37285 2.84137,1.19942 1.06801,-0.29167 1.93908,-1.20473 2.44987,-2.15313 0.46824,-1.17298 -0.72745,-4.19353 -0.21138,-3.11747 z"
           id="path2942"
           style="fill:#000000;fill-opacity:1;fill-rule:nonzero;stroke:#000000;stroke-opacity:1" />
        <path
           inkscape:connector-curvature="0"
           sodipodi:nodetypes="cccccccc"
           d="m 310.86709,417.9388 c 0.4271,1.09691 1.01926,2.52728 0.55102,3.70029 -0.51083,0.94842 -1.38188,1.86143 -2.44979,2.15309 -1.0867,0.17346 -2.06629,-0.51211 -2.84149,-1.19937 -0.8075,-0.87913 -1.34284,-1.819 -0.3396,-0.58283 0.7751,0.68731 1.75476,1.37285 2.84137,1.19943 1.06801,-0.29167 1.93908,-1.20474 2.44987,-2.15313 0.46824,-1.17298 -0.72745,-4.19354 -0.21138,-3.11748 z"
           id="path2944"
           style="fill:#000000;fill-opacity:1;fill-rule:nonzero;stroke:#000000;stroke-opacity:1" />
        <path
           inkscape:connector-curvature="0"
           sodipodi:nodetypes="cccccccc"
           d="m 310.75557,413.01795 c 0.4271,1.09691 1.01926,2.52728 0.55102,3.70029 -0.51083,0.94842 -1.38188,1.86143 -2.44979,2.15309 -1.0867,0.17346 -2.06629,-0.51211 -2.84149,-1.19937 -0.8075,-0.87913 -1.34284,-1.819 -0.3396,-0.58283 0.7751,0.68731 1.75476,1.37285 2.84137,1.19943 1.06801,-0.29167 1.93908,-1.20474 2.44987,-2.15313 0.46824,-1.17298 -0.72745,-4.19354 -0.21138,-3.11748 z"
           id="path2946"
           style="fill:#000000;fill-opacity:1;fill-rule:nonzero;stroke:#000000;stroke-opacity:1" />
        <path
           inkscape:connector-curvature="0"
           sodipodi:nodetypes="cccccccc"
           d="m 294.62838,433.68252 c 0.42709,1.09691 1.01926,2.52728 0.55101,3.70029 -0.51082,0.94842 -1.38188,1.86143 -2.44979,2.1531 -1.0867,0.17345 -2.06628,-0.51212 -2.84149,-1.19938 -0.80749,-0.87913 -1.34284,-1.81899 -0.33959,-0.58283 0.77509,0.68731 1.75476,1.37285 2.84137,1.19943 1.06801,-0.29167 1.93908,-1.20474 2.44986,-2.15313 0.46824,-1.17298 -0.72745,-4.19354 -0.21137,-3.11748 z"
           id="path2948"
           style="fill:#000000;fill-opacity:1;fill-rule:nonzero;stroke:#000000;stroke-opacity:1" />
        <path
           inkscape:connector-curvature="0"
           sodipodi:nodetypes="cccccccc"
           d="m 300.1932,430.39851 c 0.4271,1.09691 1.01926,2.52728 0.55102,3.70029 -0.51083,0.94842 -1.38188,1.86143 -2.44979,2.15309 -1.0867,0.17346 -2.06629,-0.51211 -2.84149,-1.19937 -0.8075,-0.87913 -1.34284,-1.819 -0.3396,-0.58283 0.7751,0.68731 1.75476,1.37285 2.84137,1.19943 1.06801,-0.29167 1.93908,-1.20474 2.44987,-2.15313 0.46824,-1.17298 -0.72745,-4.19354 -0.21138,-3.11748 z"
           id="path2950"
           style="fill:#000000;fill-opacity:1;fill-rule:nonzero;stroke:#000000;stroke-opacity:1" />
        <path
           inkscape:connector-curvature="0"
           sodipodi:nodetypes="cccccccc"
           d="m 305.64938,426.82301 c 0.4271,1.09691 1.01926,2.52728 0.55101,3.70029 -0.51082,0.94841 -1.38188,1.86143 -2.44979,2.15309 -1.0867,0.17345 -2.06628,-0.51211 -2.84149,-1.19938 -0.80749,-0.87913 -1.34283,-1.81899 -0.33959,-0.58282 0.77509,0.68731 1.75476,1.37285 2.84137,1.19942 1.06801,-0.29167 1.93908,-1.20473 2.44987,-2.15313 0.46824,-1.17298 -0.72745,-4.19353 -0.21138,-3.11747 z"
           id="path2952"
           style="fill:#000000;fill-opacity:1;fill-rule:nonzero;stroke:#000000;stroke-opacity:1" />
        <path
           inkscape:connector-curvature="0"
           sodipodi:nodetypes="cccccccc"
           d="m 310.92284,423.16708 c 0.4271,1.09691 1.01926,2.52728 0.55102,3.70029 -0.51083,0.94842 -1.38188,1.86143 -2.44979,2.15309 -1.0867,0.17346 -2.06629,-0.51211 -2.84149,-1.19937 -0.8075,-0.87913 -1.34284,-1.819 -0.3396,-0.58283 0.7751,0.68731 1.75476,1.37285 2.84137,1.19943 1.06801,-0.29167 1.93908,-1.20474 2.44987,-2.15313 0.46824,-1.17298 -0.72745,-4.19354 -0.21138,-3.11748 z"
           id="path2954"
           style="fill:#000000;fill-opacity:1;fill-rule:nonzero;stroke:#000000;stroke-opacity:1" />
        <path
           inkscape:connector-curvature="0"
           sodipodi:nodetypes="cccccccc"
           d="m 316.34704,419.85337 c 0.4271,1.09691 1.01926,2.52728 0.55102,3.70029 -0.51083,0.94842 -1.38188,1.86143 -2.44979,2.15309 -1.0867,0.17346 -2.06629,-0.51211 -2.84149,-1.19937 -0.8075,-0.87913 -1.34284,-1.819 -0.3396,-0.58283 0.7751,0.68731 1.75476,1.37285 2.84137,1.19943 1.06801,-0.29167 1.93908,-1.20474 2.44987,-2.15313 0.46824,-1.17298 -0.72745,-4.19354 -0.21138,-3.11748 z"
           id="path2956"
           style="fill:#000000;fill-opacity:1;fill-rule:nonzero;stroke:#000000;stroke-opacity:1" />
        <path
           inkscape:connector-curvature="0"
           sodipodi:nodetypes="cccccccc"
           d="m 299.80696,435.37894 c 0.42709,1.09691 1.01926,2.52728 0.55101,3.70029 -0.51082,0.94842 -1.38188,1.86143 -2.44979,2.1531 -1.0867,0.17345 -2.06628,-0.51212 -2.84149,-1.19938 -0.80749,-0.87913 -1.34284,-1.81899 -0.33959,-0.58283 0.77509,0.68731 1.75476,1.37285 2.84137,1.19943 1.06801,-0.29167 1.93908,-1.20474 2.44986,-2.15313 0.46824,-1.17298 -0.72745,-4.19354 -0.21137,-3.11748 z"
           id="path2958"
           style="fill:#000000;fill-opacity:1;fill-rule:nonzero;stroke:#000000;stroke-opacity:1" />
        <path
           inkscape:connector-curvature="0"
           sodipodi:nodetypes="cccccccc"
           d="m 305.37178,432.09493 c 0.4271,1.09691 1.01926,2.52728 0.55102,3.70029 -0.51083,0.94842 -1.38188,1.86143 -2.44979,2.15309 -1.0867,0.17346 -2.06629,-0.51211 -2.84149,-1.19937 -0.8075,-0.87913 -1.34284,-1.819 -0.3396,-0.58283 0.7751,0.68731 1.75476,1.37285 2.84137,1.19943 1.06801,-0.29167 1.93908,-1.20474 2.44987,-2.15313 0.46824,-1.17298 -0.72745,-4.19354 -0.21138,-3.11748 z"
           id="path2960"
           style="fill:#000000;fill-opacity:1;fill-rule:nonzero;stroke:#000000;stroke-opacity:1" />
        <path
           inkscape:connector-curvature="0"
           sodipodi:nodetypes="cccccccc"
           d="m 310.82796,428.51943 c 0.4271,1.09691 1.01926,2.52728 0.55101,3.70029 -0.51082,0.94841 -1.38188,1.86143 -2.44979,2.15309 -1.0867,0.17345 -2.06628,-0.51211 -2.84149,-1.19938 -0.80749,-0.87913 -1.34283,-1.81899 -0.33959,-0.58282 0.77509,0.68731 1.75476,1.37285 2.84137,1.19942 1.06801,-0.29167 1.93908,-1.20473 2.44987,-2.15313 0.46824,-1.17298 -0.72745,-4.19353 -0.21138,-3.11747 z"
           id="path2962"
           style="fill:#000000;fill-opacity:1;fill-rule:nonzero;stroke:#000000;stroke-opacity:1" />
        <path
           inkscape:connector-curvature="0"
           sodipodi:nodetypes="cccccccc"
           d="m 316.10142,424.8635 c 0.4271,1.09691 1.01926,2.52728 0.55102,3.70029 -0.51083,0.94842 -1.38188,1.86143 -2.44979,2.15309 -1.0867,0.17346 -2.06629,-0.51211 -2.84149,-1.19937 -0.8075,-0.87913 -1.34284,-1.819 -0.3396,-0.58283 0.7751,0.68731 1.75476,1.37285 2.84137,1.19943 1.06801,-0.29167 1.93908,-1.20474 2.44987,-2.15313 0.46824,-1.17298 -0.72745,-4.19354 -0.21138,-3.11748 z"
           id="path2964"
           style="fill:#000000;fill-opacity:1;fill-rule:nonzero;stroke:#000000;stroke-opacity:1" />
        <path
           inkscape:connector-curvature="0"
           sodipodi:nodetypes="cccccccc"
           d="m 299.89624,440.28967 c 0.42709,1.09691 1.01926,2.52728 0.55101,3.70029 -0.51082,0.94842 -1.38188,1.86143 -2.44979,2.1531 -1.0867,0.17345 -2.06628,-0.51212 -2.84149,-1.19938 -0.80749,-0.87913 -1.34284,-1.81899 -0.33959,-0.58283 0.77509,0.68731 1.75476,1.37285 2.84137,1.19943 1.06801,-0.29167 1.93908,-1.20474 2.44986,-2.15313 0.46824,-1.17298 -0.72745,-4.19354 -0.21137,-3.11748 z"
           id="path2968"
           style="fill:#000000;fill-opacity:1;fill-rule:nonzero;stroke:#000000;stroke-opacity:1" />
        <path
           inkscape:connector-curvature="0"
           sodipodi:nodetypes="cccccccc"
           d="m 305.46106,437.00566 c 0.4271,1.09691 1.01926,2.52728 0.55102,3.70029 -0.51083,0.94842 -1.38188,1.86143 -2.44979,2.15309 -1.0867,0.17346 -2.06629,-0.51211 -2.84149,-1.19937 -0.8075,-0.87913 -1.34284,-1.819 -0.3396,-0.58283 0.7751,0.68731 1.75476,1.37285 2.84137,1.19943 1.06801,-0.29167 1.93908,-1.20474 2.44987,-2.15313 0.46824,-1.17298 -0.72745,-4.19354 -0.21138,-3.11748 z"
           id="path2970"
           style="fill:#000000;fill-opacity:1;fill-rule:nonzero;stroke:#000000;stroke-opacity:1" />
        <path
           inkscape:connector-curvature="0"
           sodipodi:nodetypes="cccccccc"
           d="m 310.91724,433.43016 c 0.4271,1.09691 1.01926,2.52728 0.55101,3.70029 -0.51082,0.94841 -1.38188,1.86143 -2.44979,2.15309 -1.0867,0.17345 -2.06628,-0.51211 -2.84149,-1.19938 -0.80749,-0.87913 -1.34283,-1.81899 -0.33959,-0.58282 0.77509,0.68731 1.75476,1.37285 2.84137,1.19942 1.06801,-0.29167 1.93908,-1.20473 2.44987,-2.15313 0.46824,-1.17298 -0.72745,-4.19353 -0.21138,-3.11747 z"
           id="path2972"
           style="fill:#000000;fill-opacity:1;fill-rule:nonzero;stroke:#000000;stroke-opacity:1" />
        <path
           inkscape:connector-curvature="0"
           sodipodi:nodetypes="cccccccc"
           d="m 316.1907,429.77423 c 0.4271,1.09691 1.01926,2.52728 0.55102,3.70029 -0.51083,0.94842 -1.38188,1.86143 -2.44979,2.15309 -1.0867,0.17346 -2.06629,-0.51211 -2.84149,-1.19937 -0.8075,-0.87913 -1.34284,-1.819 -0.3396,-0.58283 0.7751,0.68731 1.75476,1.37285 2.84137,1.19943 1.06801,-0.29167 1.93908,-1.20474 2.44987,-2.15313 0.46824,-1.17298 -0.72745,-4.19354 -0.21138,-3.11748 z"
           id="path2974"
           style="fill:#000000;fill-opacity:1;fill-rule:nonzero;stroke:#000000;stroke-opacity:1" />
        <path
           inkscape:connector-curvature="0"
           sodipodi:nodetypes="cccccccc"
           d="m 321.6149,426.46052 c 0.4271,1.09691 1.01926,2.52728 0.55102,3.70029 -0.51083,0.94842 -1.38188,1.86143 -2.44979,2.15309 -1.0867,0.17346 -2.06629,-0.51211 -2.84149,-1.19937 -0.8075,-0.87913 -1.34284,-1.819 -0.3396,-0.58283 0.7751,0.68731 1.75476,1.37285 2.84137,1.19943 1.06801,-0.29167 1.93908,-1.20474 2.44987,-2.15313 0.46824,-1.17298 -0.72745,-4.19354 -0.21138,-3.11748 z"
           id="path2976"
           style="fill:#000000;fill-opacity:1;fill-rule:nonzero;stroke:#000000;stroke-opacity:1" />
        <path
           inkscape:connector-curvature="0"
           sodipodi:nodetypes="cccccccc"
           d="m 304.44981,442.07538 c 0.42709,1.09691 1.01926,2.52728 0.55101,3.70029 -0.51082,0.94842 -1.38188,1.86143 -2.44979,2.1531 -1.0867,0.17345 -2.06628,-0.51212 -2.84149,-1.19938 -0.80749,-0.87913 -1.34284,-1.81899 -0.33959,-0.58283 0.77509,0.68731 1.75476,1.37285 2.84137,1.19943 1.06801,-0.29167 1.93908,-1.20474 2.44986,-2.15313 0.46824,-1.17298 -0.72745,-4.19354 -0.21137,-3.11748 z"
           id="path2978"
           style="fill:#000000;fill-opacity:1;fill-rule:nonzero;stroke:#000000;stroke-opacity:1" />
        <path
           inkscape:connector-curvature="0"
           sodipodi:nodetypes="cccccccc"
           d="m 310.01463,438.79137 c 0.4271,1.09691 1.01926,2.52728 0.55102,3.70029 -0.51083,0.94842 -1.38188,1.86143 -2.44979,2.15309 -1.0867,0.17346 -2.06629,-0.51211 -2.84149,-1.19937 -0.8075,-0.87913 -1.34284,-1.819 -0.3396,-0.58283 0.7751,0.68731 1.75476,1.37285 2.84137,1.19943 1.06801,-0.29167 1.93908,-1.20474 2.44987,-2.15313 0.46824,-1.17298 -0.72745,-4.19354 -0.21138,-3.11748 z"
           id="path2980"
           style="fill:#000000;fill-opacity:1;fill-rule:nonzero;stroke:#000000;stroke-opacity:1" />
        <path
           inkscape:connector-curvature="0"
           sodipodi:nodetypes="cccccccc"
           d="m 315.47081,435.21587 c 0.4271,1.09691 1.01926,2.52728 0.55101,3.70029 -0.51082,0.94841 -1.38188,1.86143 -2.44979,2.15309 -1.0867,0.17345 -2.06628,-0.51211 -2.84149,-1.19938 -0.80749,-0.87913 -1.34283,-1.81899 -0.33959,-0.58282 0.77509,0.68731 1.75476,1.37285 2.84137,1.19942 1.06801,-0.29167 1.93908,-1.20473 2.44987,-2.15313 0.46824,-1.17298 -0.72745,-4.19353 -0.21138,-3.11747 z"
           id="path2982"
           style="fill:#000000;fill-opacity:1;fill-rule:nonzero;stroke:#000000;stroke-opacity:1" />
        <path
           inkscape:connector-curvature="0"
           sodipodi:nodetypes="cccccccc"
           d="m 320.74427,431.55994 c 0.4271,1.09691 1.01926,2.52728 0.55102,3.70029 -0.51083,0.94842 -1.38188,1.86143 -2.44979,2.15309 -1.0867,0.17346 -2.06629,-0.51211 -2.84149,-1.19937 -0.8075,-0.87913 -1.34284,-1.819 -0.3396,-0.58283 0.7751,0.68731 1.75476,1.37285 2.84137,1.19943 1.06801,-0.29167 1.93908,-1.20474 2.44987,-2.15313 0.46824,-1.17298 -0.72745,-4.19354 -0.21138,-3.11748 z"
           id="path2984"
           style="fill:#000000;fill-opacity:1;fill-rule:nonzero;stroke:#000000;stroke-opacity:1" />
        <path
           inkscape:connector-curvature="0"
           sodipodi:nodetypes="cccccccc"
           d="m 326.16847,428.24623 c 0.4271,1.09691 1.01926,2.52728 0.55102,3.70029 -0.51083,0.94842 -1.38188,1.86143 -2.44979,2.15309 -1.0867,0.17346 -2.06629,-0.51211 -2.84149,-1.19937 -0.8075,-0.87913 -1.34284,-1.819 -0.3396,-0.58283 0.7751,0.68731 1.75476,1.37285 2.84137,1.19943 1.06801,-0.29167 1.93908,-1.20474 2.44987,-2.15313 0.46824,-1.17298 -0.72745,-4.19354 -0.21138,-3.11748 z"
           id="path2986"
           style="fill:#000000;fill-opacity:1;fill-rule:nonzero;stroke:#000000;stroke-opacity:1" />
        <path
           inkscape:connector-curvature="0"
           sodipodi:nodetypes="cccccccc"
           d="m 304.44982,447.07537 c 0.42709,1.09691 1.01926,2.52728 0.55101,3.70029 -0.51082,0.94842 -1.38188,1.86143 -2.44979,2.1531 -1.0867,0.17345 -2.06628,-0.51212 -2.84149,-1.19938 -0.80749,-0.87913 -1.34284,-1.81899 -0.33959,-0.58283 0.77509,0.68731 1.75476,1.37285 2.84137,1.19943 1.06801,-0.29167 1.93908,-1.20474 2.44986,-2.15313 0.46824,-1.17298 -0.72745,-4.19354 -0.21137,-3.11748 z"
           id="path2988"
           style="fill:#000000;fill-opacity:1;fill-rule:nonzero;stroke:#000000;stroke-opacity:1" />
        <path
           inkscape:connector-curvature="0"
           sodipodi:nodetypes="cccccccc"
           d="m 310.01464,443.79136 c 0.4271,1.09691 1.01926,2.52728 0.55102,3.70029 -0.51083,0.94842 -1.38188,1.86143 -2.44979,2.15309 -1.0867,0.17346 -2.06629,-0.51211 -2.84149,-1.19937 -0.8075,-0.87913 -1.34284,-1.819 -0.3396,-0.58283 0.7751,0.68731 1.75476,1.37285 2.84137,1.19943 1.06801,-0.29167 1.93908,-1.20474 2.44987,-2.15313 0.46824,-1.17298 -0.72745,-4.19354 -0.21138,-3.11748 z"
           id="path2990"
           style="fill:#000000;fill-opacity:1;fill-rule:nonzero;stroke:#000000;stroke-opacity:1" />
        <path
           inkscape:connector-curvature="0"
           sodipodi:nodetypes="cccccccc"
           d="m 315.47082,440.21586 c 0.4271,1.09691 1.01926,2.52728 0.55101,3.70029 -0.51082,0.94841 -1.38188,1.86143 -2.44979,2.15309 -1.0867,0.17345 -2.06628,-0.51211 -2.84149,-1.19938 -0.80749,-0.87913 -1.34283,-1.81899 -0.33959,-0.58282 0.77509,0.68731 1.75476,1.37285 2.84137,1.19942 1.06801,-0.29167 1.93908,-1.20473 2.44987,-2.15313 0.46824,-1.17298 -0.72745,-4.19353 -0.21138,-3.11747 z"
           id="path2992"
           style="fill:#000000;fill-opacity:1;fill-rule:nonzero;stroke:#000000;stroke-opacity:1" />
        <path
           inkscape:connector-curvature="0"
           sodipodi:nodetypes="cccccccc"
           d="m 320.74428,436.55993 c 0.4271,1.09691 1.01926,2.52728 0.55102,3.70029 -0.51083,0.94842 -1.38188,1.86143 -2.44979,2.15309 -1.0867,0.17346 -2.06629,-0.51211 -2.84149,-1.19937 -0.8075,-0.87913 -1.34284,-1.819 -0.3396,-0.58283 0.7751,0.68731 1.75476,1.37285 2.84137,1.19943 1.06801,-0.29167 1.93908,-1.20474 2.44987,-2.15313 0.46824,-1.17298 -0.72745,-4.19354 -0.21138,-3.11748 z"
           id="path2994"
           style="fill:#000000;fill-opacity:1;fill-rule:nonzero;stroke:#000000;stroke-opacity:1" />
        <path
           inkscape:connector-curvature="0"
           sodipodi:nodetypes="cccccccc"
           d="m 326.16848,433.24622 c 0.4271,1.09691 1.01926,2.52728 0.55102,3.70029 -0.51083,0.94842 -1.38188,1.86143 -2.44979,2.15309 -1.0867,0.17346 -2.06629,-0.51211 -2.84149,-1.19937 -0.8075,-0.87913 -1.34284,-1.819 -0.3396,-0.58283 0.7751,0.68731 1.75476,1.37285 2.84137,1.19943 1.06801,-0.29167 1.93908,-1.20474 2.44987,-2.15313 0.46824,-1.17298 -0.72745,-4.19354 -0.21138,-3.11748 z"
           id="path2996"
           style="fill:#000000;fill-opacity:1;fill-rule:nonzero;stroke:#000000;stroke-opacity:1" />
        <path
           inkscape:connector-curvature="0"
           sodipodi:nodetypes="cccccccc"
           d="m 309.62839,449.12895 c 0.42709,1.09691 1.01926,2.52728 0.55101,3.70029 -0.51082,0.94842 -1.38188,1.86143 -2.44979,2.1531 -1.0867,0.17345 -2.06628,-0.51212 -2.84149,-1.19938 -0.80749,-0.87913 -1.34284,-1.81899 -0.33959,-0.58283 0.77509,0.68731 1.75476,1.37285 2.84137,1.19943 1.06801,-0.29167 1.93908,-1.20474 2.44986,-2.15313 0.46824,-1.17298 -0.72745,-4.19354 -0.21137,-3.11748 z"
           id="path2998"
           style="fill:#000000;fill-opacity:1;fill-rule:nonzero;stroke:#000000;stroke-opacity:1" />
        <path
           inkscape:connector-curvature="0"
           sodipodi:nodetypes="cccccccc"
           d="m 315.19321,445.84494 c 0.4271,1.09691 1.01926,2.52728 0.55102,3.70029 -0.51083,0.94842 -1.38188,1.86143 -2.44979,2.15309 -1.0867,0.17346 -2.06629,-0.51211 -2.84149,-1.19937 -0.8075,-0.87913 -1.34284,-1.819 -0.3396,-0.58283 0.7751,0.68731 1.75476,1.37285 2.84137,1.19943 1.06801,-0.29167 1.93908,-1.20474 2.44987,-2.15313 0.46824,-1.17298 -0.72745,-4.19354 -0.21138,-3.11748 z"
           id="path3000"
           style="fill:#000000;fill-opacity:1;fill-rule:nonzero;stroke:#000000;stroke-opacity:1" />
        <path
           inkscape:connector-curvature="0"
           sodipodi:nodetypes="cccccccc"
           d="m 320.64939,442.26944 c 0.4271,1.09691 1.01926,2.52728 0.55101,3.70029 -0.51082,0.94841 -1.38188,1.86143 -2.44979,2.15309 -1.0867,0.17345 -2.06628,-0.51211 -2.84149,-1.19938 -0.80749,-0.87913 -1.34283,-1.81899 -0.33959,-0.58282 0.77509,0.68731 1.75476,1.37285 2.84137,1.19942 1.06801,-0.29167 1.93908,-1.20473 2.44987,-2.15313 0.46824,-1.17298 -0.72745,-4.19353 -0.21138,-3.11747 z"
           id="path3002"
           style="fill:#000000;fill-opacity:1;fill-rule:nonzero;stroke:#000000;stroke-opacity:1" />
        <path
           inkscape:connector-curvature="0"
           sodipodi:nodetypes="cccccccc"
           d="m 325.92285,438.61351 c 0.4271,1.09691 1.01926,2.52728 0.55102,3.70029 -0.51083,0.94842 -1.38188,1.86143 -2.44979,2.15309 -1.0867,0.17346 -2.06629,-0.51211 -2.84149,-1.19937 -0.8075,-0.87913 -1.34284,-1.819 -0.3396,-0.58283 0.7751,0.68731 1.75476,1.37285 2.84137,1.19943 1.06801,-0.29167 1.93908,-1.20474 2.44987,-2.15313 0.46824,-1.17298 -0.72745,-4.19354 -0.21138,-3.11748 z"
           id="path3004"
           style="fill:#000000;fill-opacity:1;fill-rule:nonzero;stroke:#000000;stroke-opacity:1" />
        <path
           inkscape:connector-curvature="0"
           sodipodi:nodetypes="cccccccc"
           d="m 331.34705,435.2998 c 0.4271,1.09691 1.01926,2.52728 0.55102,3.70029 -0.51083,0.94842 -1.38188,1.86143 -2.44979,2.15309 -1.0867,0.17346 -2.06629,-0.51211 -2.84149,-1.19937 -0.8075,-0.87913 -1.34284,-1.819 -0.3396,-0.58283 0.7751,0.68731 1.75476,1.37285 2.84137,1.19943 1.06801,-0.29167 1.93908,-1.20474 2.44987,-2.15313 0.46824,-1.17298 -0.72745,-4.19354 -0.21138,-3.11748 z"
           id="path3006"
           style="fill:#000000;fill-opacity:1;fill-rule:nonzero;stroke:#000000;stroke-opacity:1" />
        <path
           inkscape:connector-curvature="0"
           sodipodi:nodetypes="cccccccc"
           d="m 309.18196,454.12895 c 0.42709,1.09691 1.01926,2.52728 0.55101,3.70029 -0.51082,0.94842 -1.38188,1.86143 -2.44979,2.1531 -1.0867,0.17345 -2.06628,-0.51212 -2.84149,-1.19938 -0.80749,-0.87913 -1.34284,-1.81899 -0.33959,-0.58283 0.77509,0.68731 1.75476,1.37285 2.84137,1.19943 1.06801,-0.29167 1.93908,-1.20474 2.44986,-2.15313 0.46824,-1.17298 -0.72745,-4.19354 -0.21137,-3.11748 z"
           id="path3008"
           style="fill:#000000;fill-opacity:1;fill-rule:nonzero;stroke:#000000;stroke-opacity:1" />
        <path
           inkscape:connector-curvature="0"
           sodipodi:nodetypes="cccccccc"
           d="m 314.74678,450.84494 c 0.4271,1.09691 1.01926,2.52728 0.55102,3.70029 -0.51083,0.94842 -1.38188,1.86143 -2.44979,2.15309 -1.0867,0.17346 -2.06629,-0.51211 -2.84149,-1.19937 -0.8075,-0.87913 -1.34284,-1.819 -0.3396,-0.58283 0.7751,0.68731 1.75476,1.37285 2.84137,1.19943 1.06801,-0.29167 1.93908,-1.20474 2.44987,-2.15313 0.46824,-1.17298 -0.72745,-4.19354 -0.21138,-3.11748 z"
           id="path3010"
           style="fill:#000000;fill-opacity:1;fill-rule:nonzero;stroke:#000000;stroke-opacity:1" />
        <path
           inkscape:connector-curvature="0"
           sodipodi:nodetypes="cccccccc"
           d="m 320.20296,447.26944 c 0.4271,1.09691 1.01926,2.52728 0.55101,3.70029 -0.51082,0.94841 -1.38188,1.86143 -2.44979,2.15309 -1.0867,0.17345 -2.06628,-0.51211 -2.84149,-1.19938 -0.80749,-0.87913 -1.34283,-1.81899 -0.33959,-0.58282 0.77509,0.68731 1.75476,1.37285 2.84137,1.19942 1.06801,-0.29167 1.93908,-1.20473 2.44987,-2.15313 0.46824,-1.17298 -0.72745,-4.19353 -0.21138,-3.11747 z"
           id="path3012"
           style="fill:#000000;fill-opacity:1;fill-rule:nonzero;stroke:#000000;stroke-opacity:1" />
        <path
           inkscape:connector-curvature="0"
           sodipodi:nodetypes="cccccccc"
           d="m 325.47642,443.61351 c 0.4271,1.09691 1.01926,2.52728 0.55102,3.70029 -0.51083,0.94842 -1.38188,1.86143 -2.44979,2.15309 -1.0867,0.17346 -2.06629,-0.51211 -2.84149,-1.19937 -0.8075,-0.87913 -1.34284,-1.819 -0.3396,-0.58283 0.7751,0.68731 1.75476,1.37285 2.84137,1.19943 1.06801,-0.29167 1.93908,-1.20474 2.44987,-2.15313 0.46824,-1.17298 -0.72745,-4.19354 -0.21138,-3.11748 z"
           id="path3014"
           style="fill:#000000;fill-opacity:1;fill-rule:nonzero;stroke:#000000;stroke-opacity:1" />
        <path
           inkscape:connector-curvature="0"
           sodipodi:nodetypes="cccccccc"
           d="m 330.90062,440.2998 c 0.4271,1.09691 1.01926,2.52728 0.55102,3.70029 -0.51083,0.94842 -1.38188,1.86143 -2.44979,2.15309 -1.0867,0.17346 -2.06629,-0.51211 -2.84149,-1.19937 -0.8075,-0.87913 -1.34284,-1.819 -0.3396,-0.58283 0.7751,0.68731 1.75476,1.37285 2.84137,1.19943 1.06801,-0.29167 1.93908,-1.20474 2.44987,-2.15313 0.46824,-1.17298 -0.72745,-4.19354 -0.21138,-3.11748 z"
           id="path3016"
           style="fill:#000000;fill-opacity:1;fill-rule:nonzero;stroke:#000000;stroke-opacity:1" />
        <path
           inkscape:connector-curvature="0"
           sodipodi:nodetypes="cccccccc"
           d="m 314.36053,456.36109 c 0.42709,1.09691 1.01926,2.52728 0.55101,3.70029 -0.51082,0.94842 -1.38188,1.86143 -2.44979,2.1531 -1.0867,0.17345 -2.06628,-0.51212 -2.84149,-1.19938 -0.80749,-0.87913 -1.34284,-1.81899 -0.33959,-0.58283 0.77509,0.68731 1.75476,1.37285 2.84137,1.19943 1.06801,-0.29167 1.93908,-1.20474 2.44986,-2.15313 0.46824,-1.17298 -0.72745,-4.19354 -0.21137,-3.11748 z"
           id="path3018"
           style="fill:#000000;fill-opacity:1;fill-rule:nonzero;stroke:#000000;stroke-opacity:1" />
        <path
           inkscape:connector-curvature="0"
           sodipodi:nodetypes="cccccccc"
           d="m 319.92535,453.07708 c 0.4271,1.09691 1.01926,2.52728 0.55102,3.70029 -0.51083,0.94842 -1.38188,1.86143 -2.44979,2.15309 -1.0867,0.17346 -2.06629,-0.51211 -2.84149,-1.19937 -0.8075,-0.87913 -1.34284,-1.819 -0.3396,-0.58283 0.7751,0.68731 1.75476,1.37285 2.84137,1.19943 1.06801,-0.29167 1.93908,-1.20474 2.44987,-2.15313 0.46824,-1.17298 -0.72745,-4.19354 -0.21138,-3.11748 z"
           id="path3020"
           style="fill:#000000;fill-opacity:1;fill-rule:nonzero;stroke:#000000;stroke-opacity:1" />
        <path
           inkscape:connector-curvature="0"
           sodipodi:nodetypes="cccccccc"
           d="m 325.38153,449.50158 c 0.4271,1.09691 1.01926,2.52728 0.55101,3.70029 -0.51082,0.94841 -1.38188,1.86143 -2.44979,2.15309 -1.0867,0.17345 -2.06628,-0.51211 -2.84149,-1.19938 -0.80749,-0.87913 -1.34283,-1.81899 -0.33959,-0.58282 0.77509,0.68731 1.75476,1.37285 2.84137,1.19942 1.06801,-0.29167 1.93908,-1.20473 2.44987,-2.15313 0.46824,-1.17298 -0.72745,-4.19353 -0.21138,-3.11747 z"
           id="path3022"
           style="fill:#000000;fill-opacity:1;fill-rule:nonzero;stroke:#000000;stroke-opacity:1" />
        <path
           inkscape:connector-curvature="0"
           sodipodi:nodetypes="cccccccc"
           d="m 330.65499,445.84565 c 0.4271,1.09691 1.01926,2.52728 0.55102,3.70029 -0.51083,0.94842 -1.38188,1.86143 -2.44979,2.15309 -1.0867,0.17346 -2.06629,-0.51211 -2.84149,-1.19937 -0.8075,-0.87913 -1.34284,-1.819 -0.3396,-0.58283 0.7751,0.68731 1.75476,1.37285 2.84137,1.19943 1.06801,-0.29167 1.93908,-1.20474 2.44987,-2.15313 0.46824,-1.17298 -0.72745,-4.19354 -0.21138,-3.11748 z"
           id="path3024"
           style="fill:#000000;fill-opacity:1;fill-rule:nonzero;stroke:#000000;stroke-opacity:1" />
        <path
           inkscape:connector-curvature="0"
           sodipodi:nodetypes="cccccccc"
           d="m 336.07919,442.53194 c 0.4271,1.09691 1.01926,2.52728 0.55102,3.70029 -0.51083,0.94842 -1.38188,1.86143 -2.44979,2.15309 -1.0867,0.17346 -2.06629,-0.51211 -2.84149,-1.19937 -0.8075,-0.87913 -1.34284,-1.819 -0.3396,-0.58283 0.7751,0.68731 1.75476,1.37285 2.84137,1.19943 1.06801,-0.29167 1.93908,-1.20474 2.44987,-2.15313 0.46824,-1.17298 -0.72745,-4.19354 -0.21138,-3.11748 z"
           id="path3026"
           style="fill:#000000;fill-opacity:1;fill-rule:nonzero;stroke:#000000;stroke-opacity:1" />
        <path
           inkscape:connector-curvature="0"
           sodipodi:nodetypes="cccccccc"
           d="m 319.30035,458.34494 c 0.4271,1.09691 1.01926,2.52728 0.55102,3.70029 -0.51083,0.94842 -1.38188,1.86143 -2.44979,2.15309 -1.0867,0.17346 -2.06629,-0.51211 -2.84149,-1.19937 -0.8075,-0.87913 -1.34284,-1.819 -0.3396,-0.58283 0.7751,0.68731 1.75476,1.37285 2.84137,1.19943 1.06801,-0.29167 1.93908,-1.20474 2.44987,-2.15313 0.46824,-1.17298 -0.72745,-4.19354 -0.21138,-3.11748 z"
           id="path3030"
           style="fill:#000000;fill-opacity:1;fill-rule:nonzero;stroke:#000000;stroke-opacity:1" />
        <path
           inkscape:connector-curvature="0"
           sodipodi:nodetypes="cccccccc"
           d="m 324.75653,454.76944 c 0.4271,1.09691 1.01926,2.52728 0.55101,3.70029 -0.51082,0.94841 -1.38188,1.86143 -2.44979,2.15309 -1.0867,0.17345 -2.06628,-0.51211 -2.84149,-1.19938 -0.80749,-0.87913 -1.34283,-1.81899 -0.33959,-0.58282 0.77509,0.68731 1.75476,1.37285 2.84137,1.19942 1.06801,-0.29167 1.93908,-1.20473 2.44987,-2.15313 0.46824,-1.17298 -0.72745,-4.19353 -0.21138,-3.11747 z"
           id="path3032"
           style="fill:#000000;fill-opacity:1;fill-rule:nonzero;stroke:#000000;stroke-opacity:1" />
        <path
           inkscape:connector-curvature="0"
           sodipodi:nodetypes="cccccccc"
           d="m 330.02999,451.11351 c 0.4271,1.09691 1.01926,2.52728 0.55102,3.70029 -0.51083,0.94842 -1.38188,1.86143 -2.44979,2.15309 -1.0867,0.17346 -2.06629,-0.51211 -2.84149,-1.19937 -0.8075,-0.87913 -1.34284,-1.819 -0.3396,-0.58283 0.7751,0.68731 1.75476,1.37285 2.84137,1.19943 1.06801,-0.29167 1.93908,-1.20474 2.44987,-2.15313 0.46824,-1.17298 -0.72745,-4.19354 -0.21138,-3.11748 z"
           id="path3034"
           style="fill:#000000;fill-opacity:1;fill-rule:nonzero;stroke:#000000;stroke-opacity:1" />
        <path
           inkscape:connector-curvature="0"
           sodipodi:nodetypes="cccccccc"
           d="m 335.45419,447.7998 c 0.4271,1.09691 1.01926,2.52728 0.55102,3.70029 -0.51083,0.94842 -1.38188,1.86143 -2.44979,2.15309 -1.0867,0.17346 -2.06629,-0.51211 -2.84149,-1.19937 -0.8075,-0.87913 -1.34284,-1.819 -0.3396,-0.58283 0.7751,0.68731 1.75476,1.37285 2.84137,1.19943 1.06801,-0.29167 1.93908,-1.20474 2.44987,-2.15313 0.46824,-1.17298 -0.72745,-4.19354 -0.21138,-3.11748 z"
           id="path3036"
           style="fill:#000000;fill-opacity:1;fill-rule:nonzero;stroke:#000000;stroke-opacity:1" />
        <path
           inkscape:connector-curvature="0"
           sodipodi:nodetypes="cccccccc"
           d="m 324.46436,460.16551 c 0.4271,1.09691 1.01926,2.52728 0.55102,3.70029 -0.51083,0.94842 -1.38188,1.86143 -2.44979,2.15309 -1.0867,0.17346 -2.06629,-0.51211 -2.84149,-1.19937 -0.8075,-0.87913 -1.34284,-1.819 -0.3396,-0.58283 0.7751,0.68731 1.75476,1.37285 2.84137,1.19943 1.06801,-0.29167 1.93908,-1.20474 2.44987,-2.15313 0.46824,-1.17298 -0.72745,-4.19354 -0.21138,-3.11748 z"
           id="path3040"
           style="fill:#000000;fill-opacity:1;fill-rule:nonzero;stroke:#000000;stroke-opacity:1" />
        <path
           inkscape:connector-curvature="0"
           sodipodi:nodetypes="cccccccc"
           d="m 329.92054,456.59001 c 0.4271,1.09691 1.01926,2.52728 0.55101,3.70029 -0.51082,0.94841 -1.38188,1.86143 -2.44979,2.15309 -1.0867,0.17345 -2.06628,-0.51211 -2.84149,-1.19938 -0.80749,-0.87913 -1.34283,-1.81899 -0.33959,-0.58282 0.77509,0.68731 1.75476,1.37285 2.84137,1.19942 1.06801,-0.29167 1.93908,-1.20473 2.44987,-2.15313 0.46824,-1.17298 -0.72745,-4.19353 -0.21138,-3.11747 z"
           id="path3042"
           style="fill:#000000;fill-opacity:1;fill-rule:nonzero;stroke:#000000;stroke-opacity:1" />
        <path
           inkscape:connector-curvature="0"
           sodipodi:nodetypes="cccccccc"
           d="m 335.194,452.93408 c 0.4271,1.09691 1.01926,2.52728 0.55102,3.70029 -0.51083,0.94842 -1.38188,1.86143 -2.44979,2.15309 -1.0867,0.17346 -2.06629,-0.51211 -2.84149,-1.19937 -0.8075,-0.87913 -1.34284,-1.819 -0.3396,-0.58283 0.7751,0.68731 1.75476,1.37285 2.84137,1.19943 1.06801,-0.29167 1.93908,-1.20474 2.44987,-2.15313 0.46824,-1.17298 -0.72745,-4.19354 -0.21138,-3.11748 z"
           id="path3044"
           style="fill:#000000;fill-opacity:1;fill-rule:nonzero;stroke:#000000;stroke-opacity:1" />
        <path
           inkscape:connector-curvature="0"
           sodipodi:nodetypes="cccccccc"
           d="m 340.6182,449.62037 c 0.4271,1.09691 1.01926,2.52728 0.55102,3.70029 -0.51083,0.94842 -1.38188,1.86143 -2.44979,2.15309 -1.0867,0.17346 -2.06629,-0.51211 -2.84149,-1.19937 -0.8075,-0.87913 -1.34284,-1.819 -0.3396,-0.58283 0.7751,0.68731 1.75476,1.37285 2.84137,1.19943 1.06801,-0.29167 1.93908,-1.20474 2.44987,-2.15313 0.46824,-1.17298 -0.72745,-4.19354 -0.21138,-3.11748 z"
           id="path3046"
           style="fill:#000000;fill-opacity:1;fill-rule:nonzero;stroke:#000000;stroke-opacity:1" />
        <path
           inkscape:connector-curvature="0"
           sodipodi:nodetypes="cccccccc"
           d="m 324.46437,465.25481 c 0.4271,1.09691 1.01926,2.52728 0.55102,3.70029 -0.51083,0.94842 -1.38188,1.86143 -2.44979,2.15309 -1.0867,0.17346 -2.06629,-0.51211 -2.84149,-1.19937 -0.8075,-0.87913 -1.34284,-1.819 -0.3396,-0.58283 0.7751,0.68731 1.75476,1.37285 2.84137,1.19943 1.06801,-0.29167 1.93908,-1.20474 2.44987,-2.15313 0.46824,-1.17298 -0.72745,-4.19354 -0.21138,-3.11748 z"
           id="path3048"
           style="fill:#000000;fill-opacity:1;fill-rule:nonzero;stroke:#000000;stroke-opacity:1" />
        <path
           inkscape:connector-curvature="0"
           sodipodi:nodetypes="cccccccc"
           d="m 329.92055,461.67931 c 0.4271,1.09691 1.01926,2.52728 0.55101,3.70029 -0.51082,0.94841 -1.38188,1.86143 -2.44979,2.15309 -1.0867,0.17345 -2.06628,-0.51211 -2.84149,-1.19938 -0.80749,-0.87913 -1.34283,-1.81899 -0.33959,-0.58282 0.77509,0.68731 1.75476,1.37285 2.84137,1.19942 1.06801,-0.29167 1.93908,-1.20473 2.44987,-2.15313 0.46824,-1.17298 -0.72745,-4.19353 -0.21138,-3.11747 z"
           id="path3050"
           style="fill:#000000;fill-opacity:1;fill-rule:nonzero;stroke:#000000;stroke-opacity:1" />
        <path
           inkscape:connector-curvature="0"
           sodipodi:nodetypes="cccccccc"
           d="m 335.19401,458.02338 c 0.4271,1.09691 1.01926,2.52728 0.55102,3.70029 -0.51083,0.94842 -1.38188,1.86143 -2.44979,2.15309 -1.0867,0.17346 -2.06629,-0.51211 -2.84149,-1.19937 -0.8075,-0.87913 -1.34284,-1.819 -0.3396,-0.58283 0.7751,0.68731 1.75476,1.37285 2.84137,1.19943 1.06801,-0.29167 1.93908,-1.20474 2.44987,-2.15313 0.46824,-1.17298 -0.72745,-4.19354 -0.21138,-3.11748 z"
           id="path3052"
           style="fill:#000000;fill-opacity:1;fill-rule:nonzero;stroke:#000000;stroke-opacity:1" />
        <path
           inkscape:connector-curvature="0"
           sodipodi:nodetypes="cccccccc"
           d="m 340.61821,454.70967 c 0.4271,1.09691 1.01926,2.52728 0.55102,3.70029 -0.51083,0.94842 -1.38188,1.86143 -2.44979,2.15309 -1.0867,0.17346 -2.06629,-0.51211 -2.84149,-1.19937 -0.8075,-0.87913 -1.34284,-1.819 -0.3396,-0.58283 0.7751,0.68731 1.75476,1.37285 2.84137,1.19943 1.06801,-0.29167 1.93908,-1.20474 2.44987,-2.15313 0.46824,-1.17298 -0.72745,-4.19354 -0.21138,-3.11748 z"
           id="path3054"
           style="fill:#000000;fill-opacity:1;fill-rule:nonzero;stroke:#000000;stroke-opacity:1" />
        <path
           inkscape:connector-curvature="0"
           sodipodi:nodetypes="cccccccc"
           d="m 329.37507,467.30837 c 0.4271,1.09691 1.01926,2.52728 0.55102,3.70029 -0.51083,0.94842 -1.38188,1.86143 -2.44979,2.15309 -1.0867,0.17346 -2.06629,-0.51211 -2.84149,-1.19937 -0.8075,-0.87913 -1.34284,-1.819 -0.3396,-0.58283 0.7751,0.68731 1.75476,1.37285 2.84137,1.19943 1.06801,-0.29167 1.93908,-1.20474 2.44987,-2.15313 0.46824,-1.17298 -0.72745,-4.19354 -0.21138,-3.11748 z"
           id="path3056"
           style="fill:#000000;fill-opacity:1;fill-rule:nonzero;stroke:#000000;stroke-opacity:1" />
        <path
           inkscape:connector-curvature="0"
           sodipodi:nodetypes="cccccccc"
           d="m 334.83125,463.73287 c 0.4271,1.09691 1.01926,2.52728 0.55101,3.70029 -0.51082,0.94841 -1.38188,1.86143 -2.44979,2.15309 -1.0867,0.17345 -2.06628,-0.51211 -2.84149,-1.19938 -0.80749,-0.87913 -1.34283,-1.81899 -0.33959,-0.58282 0.77509,0.68731 1.75476,1.37285 2.84137,1.19942 1.06801,-0.29167 1.93908,-1.20473 2.44987,-2.15313 0.46824,-1.17298 -0.72745,-4.19353 -0.21138,-3.11747 z"
           id="path3058"
           style="fill:#000000;fill-opacity:1;fill-rule:nonzero;stroke:#000000;stroke-opacity:1" />
        <path
           inkscape:connector-curvature="0"
           sodipodi:nodetypes="cccccccc"
           d="m 340.10471,460.07694 c 0.4271,1.09691 1.01926,2.52728 0.55102,3.70029 -0.51083,0.94842 -1.38188,1.86143 -2.44979,2.15309 -1.0867,0.17346 -2.06629,-0.51211 -2.84149,-1.19937 -0.8075,-0.87913 -1.34284,-1.819 -0.3396,-0.58283 0.7751,0.68731 1.75476,1.37285 2.84137,1.19943 1.06801,-0.29167 1.93908,-1.20474 2.44987,-2.15313 0.46824,-1.17298 -0.72745,-4.19354 -0.21138,-3.11748 z"
           id="path3060"
           style="fill:#000000;fill-opacity:1;fill-rule:nonzero;stroke:#000000;stroke-opacity:1" />
        <path
           inkscape:connector-curvature="0"
           sodipodi:nodetypes="cccccccc"
           d="m 334.65269,468.37573 c 0.4271,1.09691 1.01926,2.52728 0.55101,3.70029 -0.51082,0.94841 -1.38188,1.86143 -2.44979,2.15309 -1.0867,0.17345 -2.06628,-0.51211 -2.84149,-1.19938 -0.80749,-0.87913 -1.34283,-1.81899 -0.33959,-0.58282 0.77509,0.68731 1.75476,1.37285 2.84137,1.19942 1.06801,-0.29167 1.93908,-1.20473 2.44987,-2.15313 0.46824,-1.17298 -0.72745,-4.19353 -0.21138,-3.11747 z"
           id="path3066"
           style="fill:#000000;fill-opacity:1;fill-rule:nonzero;stroke:#000000;stroke-opacity:1" />
        <path
           inkscape:connector-curvature="0"
           sodipodi:nodetypes="cccccccc"
           d="m 339.92615,464.7198 c 0.4271,1.09691 1.01926,2.52728 0.55102,3.70029 -0.51083,0.94842 -1.38188,1.86143 -2.44979,2.15309 -1.0867,0.17346 -2.06629,-0.51211 -2.84149,-1.19937 -0.8075,-0.87913 -1.34284,-1.819 -0.3396,-0.58283 0.7751,0.68731 1.75476,1.37285 2.84137,1.19943 1.06801,-0.29167 1.93908,-1.20474 2.44987,-2.15313 0.46824,-1.17298 -0.72745,-4.19354 -0.21138,-3.11748 z"
           id="path3068"
           style="fill:#000000;fill-opacity:1;fill-rule:nonzero;stroke:#000000;stroke-opacity:1" />
        <path
           inkscape:connector-curvature="0"
           sodipodi:nodetypes="cccccccc"
           d="m 345.35035,461.40609 c 0.4271,1.09691 1.01926,2.52728 0.55102,3.70029 -0.51083,0.94842 -1.38188,1.86143 -2.44979,2.15309 -1.0867,0.17346 -2.06629,-0.51211 -2.84149,-1.19937 -0.8075,-0.87913 -1.34284,-1.819 -0.3396,-0.58283 0.7751,0.68731 1.75476,1.37285 2.84137,1.19943 1.06801,-0.29167 1.93908,-1.20474 2.44987,-2.15313 0.46824,-1.17298 -0.72745,-4.19354 -0.21138,-3.11748 z"
           id="path3070"
           style="fill:#000000;fill-opacity:1;fill-rule:nonzero;stroke:#000000;stroke-opacity:1" />
        <path
           inkscape:connector-curvature="0"
           sodipodi:nodetypes="cccccccc"
           d="m 334.01793,473.55838 c 0.4271,1.09691 1.01926,2.52728 0.55102,3.70029 -0.51083,0.94842 -1.38188,1.86143 -2.44979,2.15309 -1.0867,0.17346 -2.06629,-0.51211 -2.84149,-1.19937 -0.8075,-0.87913 -1.34284,-1.819 -0.3396,-0.58283 0.7751,0.68731 1.75476,1.37285 2.84137,1.19943 1.06801,-0.29167 1.93908,-1.20474 2.44987,-2.15313 0.46824,-1.17298 -0.72745,-4.19354 -0.21138,-3.11748 z"
           id="path3072"
           style="fill:#000000;fill-opacity:1;fill-rule:nonzero;stroke:#000000;stroke-opacity:1" />
        <path
           inkscape:connector-curvature="0"
           sodipodi:nodetypes="cccccccc"
           d="m 339.47411,469.98288 c 0.4271,1.09691 1.01926,2.52728 0.55101,3.70029 -0.51082,0.94841 -1.38188,1.86143 -2.44979,2.15309 -1.0867,0.17345 -2.06628,-0.51211 -2.84149,-1.19938 -0.80749,-0.87913 -1.34283,-1.81899 -0.33959,-0.58282 0.77509,0.68731 1.75476,1.37285 2.84137,1.19942 1.06801,-0.29167 1.93908,-1.20473 2.44987,-2.15313 0.46824,-1.17298 -0.72745,-4.19353 -0.21138,-3.11747 z"
           id="path3074"
           style="fill:#000000;fill-opacity:1;fill-rule:nonzero;stroke:#000000;stroke-opacity:1" />
        <path
           inkscape:connector-curvature="0"
           sodipodi:nodetypes="cccccccc"
           d="m 344.74757,466.32695 c 0.4271,1.09691 1.01926,2.52728 0.55102,3.70029 -0.51083,0.94842 -1.38188,1.86143 -2.44979,2.15309 -1.0867,0.17346 -2.06629,-0.51211 -2.84149,-1.19937 -0.8075,-0.87913 -1.34284,-1.819 -0.3396,-0.58283 0.7751,0.68731 1.75476,1.37285 2.84137,1.19943 1.06801,-0.29167 1.93908,-1.20474 2.44987,-2.15313 0.46824,-1.17298 -0.72745,-4.19354 -0.21138,-3.11748 z"
           id="path3076"
           style="fill:#000000;fill-opacity:1;fill-rule:nonzero;stroke:#000000;stroke-opacity:1" />
        <path
           inkscape:connector-curvature="0"
           sodipodi:nodetypes="cccccccc"
           d="m 338.69432,475.20509 c 0.4271,1.09691 1.01926,2.52728 0.55102,3.70029 -0.51083,0.94842 -1.38188,1.86143 -2.44979,2.15309 -1.0867,0.17346 -2.06629,-0.51211 -2.84149,-1.19937 -0.8075,-0.87913 -1.34284,-1.819 -0.3396,-0.58283 0.7751,0.68731 1.75476,1.37285 2.84137,1.19943 1.06801,-0.29167 1.93908,-1.20474 2.44987,-2.15313 0.46824,-1.17298 -0.72745,-4.19354 -0.21138,-3.11748 z"
           id="path3080"
           style="fill:#000000;fill-opacity:1;fill-rule:nonzero;stroke:#000000;stroke-opacity:1" />
        <path
           inkscape:connector-curvature="0"
           sodipodi:nodetypes="cccccccc"
           d="m 344.1505,471.62959 c 0.4271,1.09691 1.01926,2.52728 0.55101,3.70029 -0.51082,0.94841 -1.38188,1.86143 -2.44979,2.15309 -1.0867,0.17345 -2.06628,-0.51211 -2.84149,-1.19938 -0.80749,-0.87913 -1.34283,-1.81899 -0.33959,-0.58282 0.77509,0.68731 1.75476,1.37285 2.84137,1.19942 1.06801,-0.29167 1.93908,-1.20473 2.44987,-2.15313 0.46824,-1.17298 -0.72745,-4.19353 -0.21138,-3.11747 z"
           id="path3082"
           style="fill:#000000;fill-opacity:1;fill-rule:nonzero;stroke:#000000;stroke-opacity:1" />
        <path
           inkscape:connector-curvature="0"
           sodipodi:nodetypes="cccccccc"
           d="m 349.42396,467.97366 c 0.4271,1.09691 1.01926,2.52728 0.55102,3.70029 -0.51083,0.94842 -1.38188,1.86143 -2.44979,2.15309 -1.0867,0.17346 -2.06629,-0.51211 -2.84149,-1.19937 -0.8075,-0.87913 -1.34284,-1.819 -0.3396,-0.58283 0.7751,0.68731 1.75476,1.37285 2.84137,1.19943 1.06801,-0.29167 1.93908,-1.20474 2.44987,-2.15313 0.46824,-1.17298 -0.72745,-4.19354 -0.21138,-3.11748 z"
           id="path3084"
           style="fill:#000000;fill-opacity:1;fill-rule:nonzero;stroke:#000000;stroke-opacity:1" />
        <path
           inkscape:connector-curvature="0"
           sodipodi:nodetypes="cccccccc"
           d="m 343.51575,477.08009 c 0.4271,1.09691 1.01926,2.52728 0.55102,3.70029 -0.51083,0.94842 -1.38188,1.86143 -2.44979,2.15309 -1.0867,0.17346 -2.06629,-0.51211 -2.84149,-1.19937 -0.8075,-0.87913 -1.34284,-1.819 -0.3396,-0.58283 0.7751,0.68731 1.75476,1.37285 2.84137,1.19943 1.06801,-0.29167 1.93908,-1.20474 2.44987,-2.15313 0.46824,-1.17298 -0.72745,-4.19354 -0.21138,-3.11748 z"
           id="path3086"
           style="fill:#000000;fill-opacity:1;fill-rule:nonzero;stroke:#000000;stroke-opacity:1" />
        <path
           inkscape:connector-curvature="0"
           sodipodi:nodetypes="cccccccc"
           d="m 348.97193,473.50459 c 0.4271,1.09691 1.01926,2.52728 0.55101,3.70029 -0.51082,0.94841 -1.38188,1.86143 -2.44979,2.15309 -1.0867,0.17345 -2.06628,-0.51211 -2.84149,-1.19938 -0.80749,-0.87913 -1.34283,-1.81899 -0.33959,-0.58282 0.77509,0.68731 1.75476,1.37285 2.84137,1.19942 1.06801,-0.29167 1.93908,-1.20473 2.44987,-2.15313 0.46824,-1.17298 -0.72745,-4.19353 -0.21138,-3.11747 z"
           id="path3088"
           style="fill:#000000;fill-opacity:1;fill-rule:nonzero;stroke:#000000;stroke-opacity:1" />
        <path
           inkscape:connector-curvature="0"
           sodipodi:nodetypes="cccccccc"
           d="m 348.97193,478.23673 c 0.4271,1.09691 1.01926,2.52728 0.55101,3.70029 -0.51082,0.94841 -1.38188,1.86143 -2.44979,2.15309 -1.0867,0.17345 -2.06628,-0.51211 -2.84149,-1.19938 -0.80749,-0.87913 -1.34283,-1.81899 -0.33959,-0.58282 0.77509,0.68731 1.75476,1.37285 2.84137,1.19942 1.06801,-0.29167 1.93908,-1.20473 2.44987,-2.15313 0.46824,-1.17298 -0.72745,-4.19353 -0.21138,-3.11747 z"
           id="path3094"
           style="fill:#000000;fill-opacity:1;fill-rule:nonzero;stroke:#000000;stroke-opacity:1" />
        <path
           inkscape:connector-curvature="0"
           sodipodi:nodetypes="cccccccc"
           d="m 349.09891,481.99523 c 0.4271,1.09691 1.01926,2.52728 0.55102,3.70029 -0.51083,0.94842 -1.38188,1.86143 -2.44979,2.15309 -1.0867,0.17346 -2.06629,-0.51211 -2.84149,-1.19937 -0.8075,-0.87913 -1.34284,-1.819 -0.3396,-0.58283 0.7751,0.68731 1.75476,1.37285 2.84137,1.19943 1.06801,-0.29167 1.93908,-1.20474 2.44987,-2.15313 0.46824,-1.17298 -0.72745,-4.19354 -0.21138,-3.11748 z"
           id="path3098"
           style="fill:#000000;fill-opacity:1;fill-rule:nonzero;stroke:#000000;stroke-opacity:1" />
        <path
           inkscape:connector-curvature="0"
           sodipodi:nodetypes="cccccccc"
           d="m 354.55509,478.41973 c 0.4271,1.09691 1.01926,2.52728 0.55101,3.70029 -0.51082,0.94841 -1.38188,1.86143 -2.44979,2.15309 -1.0867,0.17345 -2.06628,-0.51211 -2.84149,-1.19938 -0.80749,-0.87913 -1.34283,-1.81899 -0.33959,-0.58282 0.77509,0.68731 1.75476,1.37285 2.84137,1.19942 1.06801,-0.29167 1.93908,-1.20473 2.44987,-2.15313 0.46824,-1.17298 -0.72745,-4.19353 -0.21138,-3.11747 z"
           id="path3100"
           style="fill:#000000;fill-opacity:1;fill-rule:nonzero;stroke:#000000;stroke-opacity:1" />
        <path
           inkscape:connector-curvature="0"
           sodipodi:nodetypes="cccccccc"
           d="m 354.55509,483.15187 c 0.4271,1.09691 1.01926,2.52728 0.55101,3.70029 -0.51082,0.94841 -1.38188,1.86143 -2.44979,2.15309 -1.0867,0.17345 -2.06628,-0.51211 -2.84149,-1.19938 -0.80749,-0.87913 -1.34283,-1.81899 -0.33959,-0.58282 0.77509,0.68731 1.75476,1.37285 2.84137,1.19942 1.06801,-0.29167 1.93908,-1.20473 2.44987,-2.15313 0.46824,-1.17298 -0.72745,-4.19353 -0.21138,-3.11747 z"
           id="path3102"
           style="fill:#000000;fill-opacity:1;fill-rule:nonzero;stroke:#000000;stroke-opacity:1" />
        <path
           inkscape:connector-curvature="0"
           sodipodi:nodetypes="cccccccc"
           d="m 354.63463,487.35237 c 0.4271,1.09691 1.01926,2.52728 0.55102,3.70029 -0.51083,0.94842 -1.38188,1.86143 -2.44979,2.15309 -1.0867,0.17346 -2.06629,-0.51211 -2.84149,-1.19937 -0.8075,-0.87913 -1.34284,-1.819 -0.3396,-0.58283 0.7751,0.68731 1.75476,1.37285 2.84137,1.19943 1.06801,-0.29167 1.93908,-1.20474 2.44987,-2.15313 0.46824,-1.17298 -0.72745,-4.19354 -0.21138,-3.11748 z"
           id="path3104"
           style="fill:#000000;fill-opacity:1;fill-rule:nonzero;stroke:#000000;stroke-opacity:1" />
        <path
           inkscape:connector-curvature="0"
           sodipodi:nodetypes="cccccccc"
           d="m 360.09081,483.77687 c 0.4271,1.09691 1.01926,2.52728 0.55101,3.70029 -0.51082,0.94841 -1.38188,1.86143 -2.44979,2.15309 -1.0867,0.17345 -2.06628,-0.51211 -2.84149,-1.19938 -0.80749,-0.87913 -1.34283,-1.81899 -0.33959,-0.58282 0.77509,0.68731 1.75476,1.37285 2.84137,1.19942 1.06801,-0.29167 1.93908,-1.20473 2.44987,-2.15313 0.46824,-1.17298 -0.72745,-4.19353 -0.21138,-3.11747 z"
           id="path3106"
           style="fill:#000000;fill-opacity:1;fill-rule:nonzero;stroke:#000000;stroke-opacity:1" />
        <path
           inkscape:connector-curvature="0"
           sodipodi:nodetypes="cccccccc"
           d="m 360.09081,488.50901 c 0.4271,1.09691 1.01926,2.52728 0.55101,3.70029 -0.51082,0.94841 -1.38188,1.86143 -2.44979,2.15309 -1.0867,0.17345 -2.06628,-0.51211 -2.84149,-1.19938 -0.80749,-0.87913 -1.34283,-1.81899 -0.33959,-0.58282 0.77509,0.68731 1.75476,1.37285 2.84137,1.19942 1.06801,-0.29167 1.93908,-1.20473 2.44987,-2.15313 0.46824,-1.17298 -0.72745,-4.19353 -0.21138,-3.11747 z"
           id="path3108"
           style="fill:#000000;fill-opacity:1;fill-rule:nonzero;stroke:#000000;stroke-opacity:1" />
        <path
           inkscape:connector-curvature="0"
           sodipodi:nodetypes="cccccccc"
           d="m 359.63462,493.15595 c 0.4271,1.09691 1.01926,2.52728 0.55102,3.70029 -0.51083,0.94842 -1.38188,1.86143 -2.44979,2.15309 -1.0867,0.17346 -2.06629,-0.51211 -2.84149,-1.19937 -0.8075,-0.87913 -1.34284,-1.819 -0.3396,-0.58283 0.7751,0.68731 1.75476,1.37285 2.84137,1.19943 1.06801,-0.29167 1.93908,-1.20474 2.44987,-2.15313 0.46824,-1.17298 -0.72745,-4.19354 -0.21138,-3.11748 z"
           id="path3110"
           style="fill:#000000;fill-opacity:1;fill-rule:nonzero;stroke:#000000;stroke-opacity:1" />
        <path
           inkscape:connector-curvature="0"
           sodipodi:nodetypes="cccccccc"
           d="m 365.0908,489.58045 c 0.4271,1.09691 1.01926,2.52728 0.55101,3.70029 -0.51082,0.94841 -1.38188,1.86143 -2.44979,2.15309 -1.0867,0.17345 -2.06628,-0.51211 -2.84149,-1.19938 -0.80749,-0.87913 -1.34283,-1.81899 -0.33959,-0.58282 0.77509,0.68731 1.75476,1.37285 2.84137,1.19942 1.06801,-0.29167 1.93908,-1.20473 2.44987,-2.15313 0.46824,-1.17298 -0.72745,-4.19353 -0.21138,-3.11747 z"
           id="path3112"
           style="fill:#000000;fill-opacity:1;fill-rule:nonzero;stroke:#000000;stroke-opacity:1" />
        <path
           inkscape:connector-curvature="0"
           sodipodi:nodetypes="cccccccc"
           d="m 359.58718,498.15152 c 0.4271,1.09691 1.01926,2.52728 0.55102,3.70029 -0.51083,0.94842 -1.38188,1.86143 -2.44979,2.15309 -1.0867,0.17346 -2.06629,-0.51211 -2.84149,-1.19937 -0.8075,-0.87913 -1.34284,-1.819 -0.3396,-0.58283 0.7751,0.68731 1.75476,1.37285 2.84137,1.19943 1.06801,-0.29167 1.93908,-1.20474 2.44987,-2.15313 0.46824,-1.17298 -0.72745,-4.19354 -0.21138,-3.11748 z"
           id="path3116"
           style="fill:#000000;fill-opacity:1;fill-rule:nonzero;stroke:#000000;stroke-opacity:1" />
        <path
           inkscape:connector-curvature="0"
           sodipodi:nodetypes="cccccccc"
           d="m 365.04336,494.57602 c 0.4271,1.09691 1.01926,2.52728 0.55101,3.70029 -0.51082,0.94841 -1.38188,1.86143 -2.44979,2.15309 -1.0867,0.17345 -2.06628,-0.51211 -2.84149,-1.19938 -0.80749,-0.87913 -1.34283,-1.81899 -0.33959,-0.58282 0.77509,0.68731 1.75476,1.37285 2.84137,1.19942 1.06801,-0.29167 1.93908,-1.20473 2.44987,-2.15313 0.46824,-1.17298 -0.72745,-4.19353 -0.21138,-3.11747 z"
           id="path3118"
           style="fill:#000000;fill-opacity:1;fill-rule:nonzero;stroke:#000000;stroke-opacity:1" />
        <path
           inkscape:connector-curvature="0"
           sodipodi:nodetypes="cccccccc"
           d="m 370.31682,490.92009 c 0.4271,1.09691 1.01926,2.52728 0.55102,3.70029 -0.51083,0.94842 -1.38188,1.86143 -2.44979,2.15309 -1.0867,0.17346 -2.06629,-0.51211 -2.84149,-1.19937 -0.8075,-0.87913 -1.34284,-1.819 -0.3396,-0.58283 0.7751,0.68731 1.75476,1.37285 2.84137,1.19943 1.06801,-0.29167 1.93908,-1.20474 2.44987,-2.15313 0.46824,-1.17298 -0.72745,-4.19354 -0.21138,-3.11748 z"
           id="path3120"
           style="fill:#000000;fill-opacity:1;fill-rule:nonzero;stroke:#000000;stroke-opacity:1" />
        <path
           inkscape:connector-curvature="0"
           sodipodi:nodetypes="cccccccc"
           d="m 364.74197,499.8043 c 0.4271,1.09691 1.01926,2.52728 0.55101,3.70029 -0.51082,0.94841 -1.38188,1.86143 -2.44979,2.15309 -1.0867,0.17345 -2.06628,-0.51211 -2.84149,-1.19938 -0.80749,-0.87913 -1.34283,-1.81899 -0.33959,-0.58282 0.77509,0.68731 1.75476,1.37285 2.84137,1.19942 1.06801,-0.29167 1.93908,-1.20473 2.44987,-2.15313 0.46824,-1.17298 -0.72745,-4.19353 -0.21138,-3.11747 z"
           id="path3124"
           style="fill:#000000;fill-opacity:1;fill-rule:nonzero;stroke:#000000;stroke-opacity:1" />
        <path
           inkscape:connector-curvature="0"
           sodipodi:nodetypes="cccccccc"
           d="m 370.01543,496.14837 c 0.4271,1.09691 1.01926,2.52728 0.55102,3.70029 -0.51083,0.94842 -1.38188,1.86143 -2.44979,2.15309 -1.0867,0.17346 -2.06629,-0.51211 -2.84149,-1.19937 -0.8075,-0.87913 -1.34284,-1.819 -0.3396,-0.58283 0.7751,0.68731 1.75476,1.37285 2.84137,1.19943 1.06801,-0.29167 1.93908,-1.20474 2.44987,-2.15313 0.46824,-1.17298 -0.72745,-4.19354 -0.21138,-3.11748 z"
           id="path3126"
           style="fill:#000000;fill-opacity:1;fill-rule:nonzero;stroke:#000000;stroke-opacity:1" />
        <path
           inkscape:connector-curvature="0"
           sodipodi:nodetypes="cccccccc"
           d="m 375.43963,492.83466 c 0.4271,1.09691 1.01926,2.52728 0.55102,3.70029 -0.51083,0.94842 -1.38188,1.86143 -2.44979,2.15309 -1.0867,0.17346 -2.06629,-0.51211 -2.84149,-1.19937 -0.8075,-0.87913 -1.34284,-1.819 -0.3396,-0.58283 0.7751,0.68731 1.75476,1.37285 2.84137,1.19943 1.06801,-0.29167 1.93908,-1.20474 2.44987,-2.15313 0.46824,-1.17298 -0.72745,-4.19354 -0.21138,-3.11748 z"
           id="path3128"
           style="fill:#000000;fill-opacity:1;fill-rule:nonzero;stroke:#000000;stroke-opacity:1" />
        <path
           inkscape:connector-curvature="0"
           sodipodi:nodetypes="cccccccc"
           d="m 363.6608,505.79052 c 0.4271,1.09691 1.01926,2.52728 0.55102,3.70029 -0.51083,0.94842 -1.38188,1.86143 -2.44979,2.15309 -1.0867,0.17346 -2.06629,-0.51211 -2.84149,-1.19937 -0.8075,-0.87913 -1.34284,-1.819 -0.3396,-0.58283 0.7751,0.68731 1.75476,1.37285 2.84137,1.19943 1.06801,-0.29167 1.93908,-1.20474 2.44987,-2.15313 0.46824,-1.17298 -0.72745,-4.19354 -0.21138,-3.11748 z"
           id="path3130"
           style="fill:#000000;fill-opacity:1;fill-rule:nonzero;stroke:#000000;stroke-opacity:1" />
        <path
           inkscape:connector-curvature="0"
           sodipodi:nodetypes="cccccccc"
           d="m 369.11698,502.21502 c 0.4271,1.09691 1.01926,2.52728 0.55101,3.70029 -0.51082,0.94841 -1.38188,1.86143 -2.44979,2.15309 -1.0867,0.17345 -2.06628,-0.51211 -2.84149,-1.19938 -0.80749,-0.87913 -1.34283,-1.81899 -0.33959,-0.58282 0.77509,0.68731 1.75476,1.37285 2.84137,1.19942 1.06801,-0.29167 1.93908,-1.20473 2.44987,-2.15313 0.46824,-1.17298 -0.72745,-4.19353 -0.21138,-3.11747 z"
           id="path3132"
           style="fill:#000000;fill-opacity:1;fill-rule:nonzero;stroke:#000000;stroke-opacity:1" />
        <path
           inkscape:connector-curvature="0"
           sodipodi:nodetypes="cccccccc"
           d="m 374.39044,498.55909 c 0.4271,1.09691 1.01926,2.52728 0.55102,3.70029 -0.51083,0.94842 -1.38188,1.86143 -2.44979,2.15309 -1.0867,0.17346 -2.06629,-0.51211 -2.84149,-1.19937 -0.8075,-0.87913 -1.34284,-1.819 -0.3396,-0.58283 0.7751,0.68731 1.75476,1.37285 2.84137,1.19943 1.06801,-0.29167 1.93908,-1.20474 2.44987,-2.15313 0.46824,-1.17298 -0.72745,-4.19354 -0.21138,-3.11748 z"
           id="path3134"
           style="fill:#000000;fill-opacity:1;fill-rule:nonzero;stroke:#000000;stroke-opacity:1" />
        <path
           inkscape:connector-curvature="0"
           sodipodi:nodetypes="cccccccc"
           d="m 379.81464,495.24538 c 0.4271,1.09691 1.01926,2.52728 0.55102,3.70029 -0.51083,0.94842 -1.38188,1.86143 -2.44979,2.15309 -1.0867,0.17346 -2.06629,-0.51211 -2.84149,-1.19937 -0.8075,-0.87913 -1.34284,-1.819 -0.3396,-0.58283 0.7751,0.68731 1.75476,1.37285 2.84137,1.19943 1.06801,-0.29167 1.93908,-1.20474 2.44987,-2.15313 0.46824,-1.17298 -0.72745,-4.19354 -0.21138,-3.11748 z"
           id="path3136"
           style="fill:#000000;fill-opacity:1;fill-rule:nonzero;stroke:#000000;stroke-opacity:1" />
        <path
           inkscape:connector-curvature="0"
           sodipodi:nodetypes="cccccccc"
           d="m 374.05914,503.82152 c 0.4271,1.09691 1.01926,2.52728 0.55102,3.70029 -0.51083,0.94842 -1.38188,1.86143 -2.44979,2.15309 -1.0867,0.17346 -2.06629,-0.51211 -2.84149,-1.19937 -0.8075,-0.87913 -1.34284,-1.819 -0.3396,-0.58283 0.7751,0.68731 1.75476,1.37285 2.84137,1.19943 1.06801,-0.29167 1.93908,-1.20474 2.44987,-2.15313 0.46824,-1.17298 -0.72745,-4.19354 -0.21138,-3.11748 z"
           id="path3138"
           style="fill:#000000;fill-opacity:1;fill-rule:nonzero;stroke:#000000;stroke-opacity:1" />
        <path
           inkscape:connector-curvature="0"
           sodipodi:nodetypes="cccccccc"
           d="m 368.702,507.39294 c 0.4271,1.09691 1.01926,2.52728 0.55102,3.70029 -0.51083,0.94842 -1.38188,1.86143 -2.44979,2.15309 -1.0867,0.17346 -2.06629,-0.51211 -2.84149,-1.19937 -0.8075,-0.87913 -1.34284,-1.819 -0.3396,-0.58283 0.7751,0.68731 1.75476,1.37285 2.84137,1.19943 1.06801,-0.29167 1.93908,-1.20474 2.44987,-2.15313 0.46824,-1.17298 -0.72745,-4.19354 -0.21138,-3.11748 z"
           id="path3140"
           style="fill:#000000;fill-opacity:1;fill-rule:nonzero;stroke:#000000;stroke-opacity:1" />
        <path
           inkscape:connector-curvature="0"
           sodipodi:nodetypes="cccccccc"
           d="m 363.61271,511.05366 c 0.4271,1.09691 1.01926,2.52728 0.55102,3.70029 -0.51083,0.94842 -1.38188,1.86143 -2.44979,2.15309 -1.0867,0.17346 -2.06629,-0.51211 -2.84149,-1.19937 -0.8075,-0.87913 -1.34284,-1.819 -0.3396,-0.58283 0.7751,0.68731 1.75476,1.37285 2.84137,1.19943 1.06801,-0.29167 1.93908,-1.20474 2.44987,-2.15313 0.46824,-1.17298 -0.72745,-4.19354 -0.21138,-3.11748 z"
           id="path3142"
           style="fill:#000000;fill-opacity:1;fill-rule:nonzero;stroke:#000000;stroke-opacity:1" />
        <path
           inkscape:connector-curvature="0"
           sodipodi:nodetypes="cccccccc"
           d="m 377.63057,505.87509 c 0.4271,1.09691 1.01926,2.52728 0.55102,3.70029 -0.51083,0.94842 -1.38188,1.86143 -2.44979,2.15309 -1.0867,0.17346 -2.06629,-0.51211 -2.84149,-1.19937 -0.8075,-0.87913 -1.34284,-1.819 -0.3396,-0.58283 0.7751,0.68731 1.75476,1.37285 2.84137,1.19943 1.06801,-0.29167 1.93908,-1.20474 2.44987,-2.15313 0.46824,-1.17298 -0.72745,-4.19354 -0.21138,-3.11748 z"
           id="path3144"
           style="fill:#000000;fill-opacity:1;fill-rule:nonzero;stroke:#000000;stroke-opacity:1" />
      </g>
    </g>
    <path
       sodipodi:nodetypes="cccc"
       inkscape:connector-curvature="0"
       id="path3522"
       d="M 235.00022,98.180968 159.6129,115.07814 c 29.89498,-0.86653 59.78993,-1.73303 89.68491,-2.59955 0.38612,-6.97385 -2.60783,-12.499122 -14.29759,-14.297622 z"
       style="fill:#000000;fill-opacity:1;stroke:#313131;stroke-width:2.60100865px;stroke-linecap:butt;stroke-linejoin:miter;stroke-opacity:1" />
  </g>
  <use
     height="1052.3622"
     width="744.09448"
     y="0"
     x="0"
     style="fill:url(#rg-1-1);stroke:#000000;stroke-width:3"
     id="shine"
     xlink:href="#shield" />
</svg>
