<?xml version="1.0" encoding="UTF-8"?>
<svg xmlns="http://www.w3.org/2000/svg" xmlns:xlink="http://www.w3.org/1999/xlink" width="600" height="660">
<defs>
  <radialGradient id="rg" gradientUnits="userSpaceOnUse" cx="220" cy="220" r="405">
    <stop style="stop-color:#fff;stop-opacity:.3" offset="0"/>
    <stop style="stop-color:#fff;stop-opacity:.2" offset=".2"/>
    <stop style="stop-color:#666;stop-opacity:.1" offset=".6"/>
    <stop style="stop-color:#000;stop-opacity:.13" offset="1"/>
  </radialGradient>
  <path id="shield" d="m2,2v257c0,286 298,398 298,398c0,0 298-112 298-398V2z"/>
</defs>
<use id="background" xlink:href="#shield" style="fill:#008080;"/>
<g id="merman" style="fill:#ffffff;stroke:#003000;stroke-width:1;stroke-linecap:round;stroke-linejoin:round;">
  <path id="tail" style="fill:#005000;" d="m 459.9776,381.35352 c -25.75095,-41.63944 -51.90908,-35.25419 -82.32948,-88.07254 6.97425,1.26704 13.99142,5.28485 20.92285,3.8011 5.69998,-1.22014 7.77273,-9.89251 13.46205,-11.1616 6.57353,-1.46633 13.27222,5.13877 19.85807,3.72899 5.95702,-1.27516 8.52891,-10.02392 14.52692,-11.08949 6.49706,-1.15421 12.67257,6.4924 19.12523,5.11114 6.42373,-1.37508 8.85473,-11.01178 15.25976,-12.47164 5.88946,-1.34235 11.50423,6.28965 17.41099,5.02524 6.84893,-1.4661 11.31597,-8.25716 16.97391,-12.38573 -8.96153,49.41098 -34.91401,69.21794 -35.16607,113.40058 z"/>
  <path id="body-human" d="m 165.3309,239.31984 c -2.79039,-1.28378 -6.50274,-3.80256 -6.50274,-3.80256 l -1.30661,-0.84907 c 0,0 -4.13633,-0.0108 -5.9246,-0.52347 -2.40128,-0.68851 -8.13605,-2.36322 -10.21317,-3.72033 -1.87409,-1.22427 -4.536,-3.76954 -5.53322,-5.69925 -0.44714,-12.93129 0.13267,-26.92461 5.38962,-25.57041 1.49155,0.72264 3.72521,0.67694 5.72245,1.0745 1.90555,0.37944 3.56613,1.88128 5.00402,1.75615 1.52039,-0.13237 3.20596,-0.44282 4.19646,-1.63429 0.68066,-0.81448 1.20086,-2.26285 1.02982,-3.91807 -0.15444,-1.51263 -0.87801,-3.34461 -0.47991,-4.2245 0.46872,-1.03712 0.66056,-1.19707 1.56182,-1.7938 1.00657,-0.66639 1.99732,-0.71775 3.83375,-0.34855 2.11933,0.42649 2.8617,1.59648 3.8251,2.5902 1.20164,1.24044 0.62586,3.81568 1.35538,5.35232 0.35519,0.74707 0.87539,1.23474 1.29202,1.94783 0.76701,1.31177 1.20164,3.22731 1.91526,4.57032 0.82163,1.54535 2.61104,2.97494 3.23113,4.75997 0.54808,1.57758 0.33719,3.84198 -0.0743,5.49504 -0.68538,5.39184 0.13285,7.15389 3.53546,9.66047 0.92818,0.4453 3.51134,2.43465 5.83423,3.81605 3.60669,2.14489 7.36851,3.88962 9.37947,4.34321 5.6249,1.2685 6.17543,2.27128 10.72131,3.855 8.31583,4.73131 7.55484,6.50342 13.04716,11.20602 -1.03847,-6.90184 -2.51647,-10.86778 -2.44882,-19.6066 0.035,-4.52923 1.51995,-12.40176 2.34552,-17.7208 0.75993,-3.42601 4.16692,-7.15228 4.67645,-10.62018 0.72069,-4.90435 -1.98911,-11.3052 -2.18375,-16.28805 -0.18091,-4.61896 0.64107,-10.88366 2.14652,-15.27874 1.48377,-4.33224 4.42168,-8.74336 7.32944,-12.34676 1.92575,-2.38654 5.01635,-5.22361 7.63832,-6.88177 2.68166,-1.69597 6.67622,-3.42677 9.80239,-4.10162 3.52366,-0.76063 11.29971,-1.28379 11.29971,-1.28379 0,0 8.07339,-4.49715 11.85645,-6.72585 2.86179,-1.68592 5.87923,-2.92894 9.08066,-4.35706 1.06871,-0.47671 3.97219,-2.67145 4.28403,-3.47234 0.95894,-2.46236 1.15829,-6.67484 0.55734,-8.74915 l 36.18287,1e-5 c -0.60095,2.07431 -0.4016,6.28679 0.55726,8.74915 0.31192,0.80089 3.2154,2.99563 4.28411,3.47234 3.20143,1.42812 6.21887,2.67113 9.08066,4.35706 3.78306,2.2287 11.85644,6.72585 11.85644,6.72585 0,0 7.77606,0.52316 11.29972,1.28379 3.12617,0.67485 7.12073,2.40565 9.80239,4.10162 2.62188,1.65816 5.71257,4.49522 7.63832,6.88176 2.90776,3.60341 5.84567,8.01453 7.32944,12.34677 1.50545,4.39507 2.32743,10.65978 2.14652,15.27874 -0.19464,4.98285 -2.90444,11.3837 -2.18384,16.28805 0.50962,3.4679 3.91661,7.19417 4.67654,10.62018 2.47645,11.16679 -0.1033,37.3274 -0.1033,37.3274 0,0 6.91071,11.98161 8.9624,16.30349 1.86964,3.9382 3.75081,9.4747 4.64717,13.70689 0.95169,4.4934 1.37164,10.39599 1.36771,15.20181 0,4.81384 -0.56477,9.91534 -1.22184,15.64392 -0.38613,3.367 -0.65925,7.60943 -1.26387,10.37452 -0.27444,1.25534 -0.57264,6.70818 -0.57264,6.70818 -0.16073,5.38646 2.23601,9.51782 0.43813,12.90927 l -0.16352,1.54963 c 2.1293,5.1508 3.48546,14.38185 2.77273,20.82425 -0.24035,2.22564 0.71772,4.62764 -0.54913,6.39216 -1.04328,1.45301 -3.80203,1.504 -5.17375,2.67033 -2.06725,1.75765 -2.72545,5.3431 -4.77076,7.12446 -1.4641,1.275 -4.88358,2.28259 -4.88358,2.28259 0,0 -1.27271,3.95609 -2.17195,5.2323 -4.64053,1.45985 -5.37626,-0.8879 -6.02589,-4.96943 0.49799,-1.75527 1.50614,-3.83499 1.48097,-5.09421 -0.60891,-3.65943 -1.36264,-10.31991 -5.57989,-13.84418 -0.41436,0.44494 -2.53885,1.14799 -3.46825,4.26681 -0.75172,2.52311 -2.03989,8.00175 -2.35278,8.04733 -0.82312,0.12041 -0.98289,0.0372 -1.62947,-0.43143 -0.722,-0.52339 -1.02772,-1.34184 -1.2831,-3.09195 -0.18039,-1.23691 -0.96882,-1.54251 -0.55664,-4.41222 0.26088,-1.81675 1.26623,-5.03642 2.37323,-8.97554 0.50202,-1.64657 2.80332,-3.07047 3.63308,-4.46308 6.84097,-5.65645 4.59806,-4.25957 8.45165,-10.65593 0.59728,-0.25447 1.61277,-1.40646 1.61277,-1.40646 0,0 -0.0315,-1.97925 0.083,-2.85685 0.25433,-1.95449 -0.80425,-4.50144 0.1935,-6.20438 0.2864,-0.49723 0.32512,-1.06858 0.58356,-1.58154 0.41445,-0.82297 0.50394,-2.44825 0.40239,-3.3661 -0.33885,-2.98272 -1.21826,-4.58962 -3.46485,-9.14212 -2.4663,-4.99769 -5.21378,-9.60733 -6.976,-13.20384 -1.11818,-2.28198 -2.59968,-5.32878 -3.70912,-7.61461 -0.92241,-1.90044 -1.83992,-4.65974 -2.48912,-6.65934 -1.98832,-6.12412 -3.63667,-15.48683 -3.34694,-21.79549 0.21439,-4.67012 3.70702,-6.64014 2.74459,-10.63372 -0.72104,-2.99169 -2.83785,-6.58838 -4.1407,-9.58654 -3.53668,-8.13901 -7.03308,-29.42237 -7.03308,-29.42237 0,0 -0.16894,2.14466 -0.46338,5.21137 -0.52344,5.45083 -1.44331,13.8147 -2.51587,18.22663 -0.55787,2.29468 -1.47101,5.14601 -1.20488,7.49216 0.25993,2.29105 -0.009,5.92562 -0.38184,8.22482 -0.42459,2.59838 -1.63227,4.70413 -0.30721,7.66592 0.25267,0.56481 0.50953,1.17234 0.7643,1.80727 1.04643,2.60744 2.05702,5.67685 2.59348,8.1479 0.79165,3.64749 1.08007,9.24766 0.90055,12.96645 -0.13363,2.75888 -1.5806,10.62104 -1.5806,10.62104 0,0 3.08273,9.06071 4.37982,14.94467 1.00823,4.57248 1.25303,10.40773 0.99844,15.07102 -0.12114,2.21046 -1.72307,7.04308 -1.90774,9.54453 h -105.341 c -0.18467,-2.50145 -1.7866,-7.33407 -1.90774,-9.54453 -0.25459,-4.66329 -0.01,-10.49854 0.99845,-15.07102 1.29708,-5.88396 4.37982,-14.94467 4.37982,-14.94467 0,0 -1.44698,-7.86216 -1.58061,-10.62104 -0.17952,-3.71879 0.1089,-9.31896 0.90056,-12.96645 0.53645,-2.47105 1.54704,-5.54046 2.59347,-8.1479 0.25477,-0.63493 0.51163,-1.24246 0.7643,-1.80727 1.32506,-2.96179 0.11738,-5.06754 -0.3072,-7.66592 -0.37311,-2.2992 -0.64177,-5.93377 -0.38185,-8.22482 0.26604,-2.34615 -0.64701,-5.19748 -1.20488,-7.49216 -1.07256,-4.41193 -1.99243,-12.7758 -2.51586,-18.22663 -0.29445,-3.06671 -0.46339,-5.21137 -0.46339,-5.21137 0,0 -3.4964,21.28336 -7.03308,29.42237 -1.30285,2.99816 -3.20089,23.03549 -4.52036,25.81563 -1.76117,3.7112 -14.40744,11.11744 -18.88707,9.7799 -6.05141,-1.80672 -14.34696,-6.45 -19.47299,-10.34648 -1.67369,-1.27227 -3.97613,-3.04821 -5.46619,-4.54577 -1.79211,-1.80099 -4.18003,-4.20433 -5.96567,-6.01237 -2.81433,-2.84957 -6.26021,-6.96335 -10.16519,-10.93962 -3.55714,-3.622 -5.68897,-6.90959 -7.10719,-8.007 -1.46944,-1.23507 -1.59389,-1.62979 -5.30284,-3.33606 z"/>
  <path id="muscle" style="fill:none;" d="m 315.42256,293.47163 c 2.79615,-13.45465 8.77389,-14.16164 9.2926,-21.81153 0.57404,-8.46639 -6.74894,-7.06298 -8.58703,-8.09687 4.25869,0.70426 10.97407,-0.14084 10.64152,-6.73317 -0.37023,-7.33823 -5.48428,-8.3112 -10.084,-10.19069 5.54633,0.15396 9.92519,0.90364 10.81797,-4.11594 1.20182,-6.75681 -6.64572,-12.55756 -16.72552,-14.97989 m -24.90685,65.92809 c -2.79624,-13.45465 -8.77388,-14.16164 -9.29259,-21.81153 -0.57404,-8.46639 6.74885,-7.06298 8.58702,-8.09687 -4.25868,0.70426 -10.97406,-0.14084 -10.64151,-6.73317 0.37022,-7.33823 5.48428,-8.3112 10.084,-10.19069 -5.54642,0.15396 -9.9252,0.90364 -10.81806,-4.11594 -1.20182,-6.75681 6.64572,-12.55756 16.72561,-14.97989 m 10.13119,44.13368 c -3.03196,0 -3.45016,3.35181 0,3.34332 3.45016,0.009 3.03195,-3.34332 0,-3.34332 z m 46.1522,-75.29202 c 0.9245,2.6655 -3.15991,4.40179 -5.14115,1.436 m 9.50506,-32.47801 c 17.96257,11.37161 9.60488,36.39645 -6.91019,41.04548 -11.66548,3.28386 -29.03898,-6.16368 -38.71971,-6.16368 m -55.40233,-34.8818 c -17.96256,11.37161 -9.60487,36.39645 6.9102,41.04548 11.66547,3.28386 29.03897,-6.16368 38.71971,-6.16368 m -41.26608,-3.83979 c -0.92442,2.6655 3.15991,4.40179 5.14124,1.436 m 92.40648,19.66805 c 0.26299,-5.4395 0.6527,-10.58379 1.16564,-16.21993 m -103.95651,16.21993 c -0.26298,-5.4395 -0.70093,-10.62882 -1.21388,-16.26496"/>
  <path id="body-fish" style="fill:#008000;" d="m 359.89574,340.04886 c 0.58147,-17.72689 -4.40997,-35.19765 -6.61496,-52.79648 -13.58676,19.37174 -42.10432,25.2425 -52.63387,41.21778 -10.52956,-15.97528 -39.04711,-21.84604 -52.63388,-41.21778 -2.20498,17.59883 -7.19642,35.06959 -6.61496,52.79648 0.71737,21.8709 7.18437,43.17309 10.47249,64.8073 5.43892,35.78583 4.99327,50.79469 20.16869,83.65677 15.10934,32.71921 54.6957,68.30473 99.29666,70.30499 66.09548,2.96424 105.43625,-45.65968 114.55799,-100.66283 7.33897,-44.25375 -8.58423,-109.55644 -33.33551,-136.94745 3.10598,36.83584 11.92401,56.16038 3.20107,102.18661 -8.40104,44.32816 -23.6455,56.18331 -47.24739,62.96696 -28.02576,8.05518 -56.99491,-7.06311 -61.3215,-36.9618 -3.29564,-22.77484 -0.32215,-30.48319 2.23269,-44.54325 3.91224,-21.5301 9.75511,-42.9364 10.47248,-64.8073 z"/>
  <path id="hip" style="fill:#005000;" d="m 300.64691,328.47016 c 9.13877,-9.48359 24.99573,-15.96709 36.14844,-22.97235 8.76846,-5.50768 17.69101,-10.11329 20.85433,-14.01416 2.37786,-2.93219 3.83873,-5.85109 1.6195,-8.90507 -2.0551,-2.82817 -5.60428,-0.76604 -9.52412,1.79143 -6.1416,4.00709 -10.80294,8.09434 -17.66051,13.73426 -8.79889,7.23645 -25.60018,18.04155 -31.43764,30.36589 z m 0,0 c -9.13878,-9.48359 -24.99573,-15.96709 -36.14844,-22.97235 -8.76847,-5.50768 -17.69102,-10.11329 -20.85433,-14.01416 -2.37786,-2.93219 -3.83874,-5.85109 -1.6195,-8.90507 2.05509,-2.82817 5.60427,-0.76604 9.52411,1.79143 6.14161,4.00709 10.80294,8.09434 17.66052,13.73426 8.79888,7.23645 25.60018,18.04155 31.43764,30.36589 z"/>
  <path id="trident" style="fill:#000000;" d="m 166.01021,554.23294 -27.56572,-406.96505 c -8.14716,-0.51911 -10.57596,-1.35075 -25.31667,4.08408 -5.25585,-49.44466 -18.913964,-81.379477 -37.989031,-102.025586 14.513528,-0.771936 26.837981,6.983802 38.241041,18.329916 l -8.73864,2.086075 c 8.90913,19.472972 17.5836,39.085175 19.06374,62.962165 l 13.2591,-0.8979 -3.16042,-68.521993 -11.78585,0.798171 c 8.26307,-14.506094 11.77489,-28.690333 16.33148,-42.945358 5.96341,14.489408 11.06674,29.973588 20.49931,40.451102 l -11.78584,0.798159 6.10694,68.322479 13.25899,-0.89798 c 1.19825,-26.86195 6.16266,-47.258224 11.77339,-66.544798 l -8.83944,0.598583 c 10.40387,-11.220245 20.43492,-23.356469 35.42061,-23.318401 -16.60167,24.746567 -26.07206,58.850643 -25.35986,106.315776 -8.28268,-2.60199 -17.30027,-2.34111 -26.68403,-0.65318 l 27.07653,406.90894 -13.80532,1.11481 z"/>
  <g id="fingers1">
    <path id="thumb" d="m 163.73167,190.65062 c -3.25438,-1.39982 -3.72127,-3.87014 -6.92033,-5.60673 -1.42643,-0.77434 -3.10388,-0.38467 -5.08853,-0.82429 -1.74178,-0.38583 -3.77398,-1.60725 -5.35039,-2.13989 -2.92874,-0.98958 -2.2694,4.39851 -0.12594,6.62608 2.43353,2.52898 9.01694,3.37177 10.94645,7.72725"/>
    <path d="m 137.74143,196.99537 c 2.05353,-0.62787 2.21277,0.42859 5.7824,1.61985 1.8678,0.62333 2.96474,0.63345 5.15374,1.22708 1.60333,0.43479 3.23882,1.55777 4.94782,2.13275 3.89056,0.74981 3.66481,7.39933 -1.54993,6.90265 -1.78224,-0.27077 -3.82921,-0.12479 -5.58592,-0.68608 -1.46568,-0.46831 -2.78908,-1.18642 -3.96503,-1.68602 -1.52974,-0.64989 -2.86738,-0.58978 -3.86985,-0.97484 -2.79702,-1.07437 -3.06446,-1.04635 -3.94964,-4.26493 -0.71632,-2.60463 0.72969,-3.56517 3.03641,-4.27046 z"/>
    <path d="m 134.94886,203.88072 c 1.78775,-1.31478 3.02601,0.46154 6.60963,1.5965 1.87506,0.59387 2.972,0.58672 5.16798,1.14582 1.60849,0.40952 3.25727,1.50664 4.97309,2.05467 1.76388,0.56339 3.54822,0.71707 4.57751,1.00587 3.98994,1.11961 3.04918,6.41782 -0.57534,6.46175 -1.27559,0.0157 -3.17547,-0.22946 -5.4689,-0.54123 -1.7853,-0.24269 -3.83034,-0.0645 -5.59362,-0.59807 -1.47118,-0.4452 -2.80305,-1.14241 -3.98504,-1.62345 -1.53734,-0.62575 -2.87411,-0.54459 -3.88112,-0.91383 -2.8097,-1.03023 -2.20813,0.0986 -3.13194,-3.10571 -0.74761,-2.59312 -0.43743,-4.19888 1.30775,-5.48232 z"/>
    <path d="m 135.10671,212.46021 c 2.00283,-0.81417 2.60396,-0.13426 6.24552,0.7258 1.90556,0.45001 2.9997,0.3595 5.22322,0.75045 1.62868,0.28635 3.33767,1.25572 5.08154,1.67211 1.79273,0.42807 3.58213,0.44578 4.62585,0.6557 4.04622,0.81385 2.71409,5.56153 -0.89986,5.88088 -1.27183,0.11265 -2.48038,-0.46976 -4.78683,-0.60651 -1.79544,-0.10645 -3.82563,0.22679 -5.61599,-0.17157 -1.49374,-0.33238 -2.86328,-0.92682 -4.07061,-1.31694 -1.57029,-0.50752 -2.89945,-0.32492 -3.92569,-0.61681 -2.86336,-0.81437 -1.93903,1.52599 -3.04716,-1.60103 -0.89663,-2.53056 -1.07982,-4.4575 1.17001,-5.37208 z"/>
    <path d="m 135.83247,224.77157 c -1.1084,-2.64989 -2.3187,-4.42422 -0.14246,-5.54764 1.93737,-1.00008 4.29373,1.18399 7.98484,1.69807 1.93152,0.26897 3.01544,0.0757 5.25949,0.25585 1.64389,0.13195 3.41686,0.93703 5.18477,1.18772 3.81321,-0.28259 4.70258,5.53776 -0.87583,5.59978 -1.797,0.0631 -3.79625,-0.62973 -5.60917,-0.85808 -1.5127,-0.19052 -3.69653,-0.0861 -4.9279,-0.36113 -1.60158,-0.35785 -2.90278,-1.13293 -3.94658,-1.50071"/>
  </g>
  <path id="fingers2" style="fill:none;" d="m 396.62897,368.68479 c 0.4522,-2.05265 0.12847,-3.52423 0.19804,-5.07206 0.0673,-1.49147 0.53261,-3.07669 0.44993,-4.17459 m -5.46986,14.23142 c 0.35851,-1.9131 0.0988,-3.20927 0.16003,-4.57875 0.0717,-1.60901 0.41139,-3.21418 0.1228,-4.48619 m -7.37865,14.74951 c 1.74955,-8.28912 0.36419,-8.71866 0.24532,-12.3238"/>
  <g id="head">
    <path id="face" d="m 329.95936,63.196764 c 6.74194,14.254914 0.0131,44.337486 -1.23888,50.284526 -2.04584,9.71497 -18.47071,12.38164 -28.07357,12.38164 -9.60287,0 -26.02774,-2.66667 -28.07357,-12.38164 -1.25234,-5.94704 -7.98083,-36.029612 -1.23888,-50.284526 4.27153,-9.031669 17.4595,-17.629157 29.31245,-17.629157 11.85295,0 25.04091,8.597488 29.31245,17.629157 z"/>
    <path id="hair" style="fill:#008000;" d="m 305.31978,147.28565 c 4.19313,-0.0169 6.99121,3.72695 11.13662,3.29191 5.00639,-3.66952 5.12289,-1.98687 7.17379,3.24056 2.44866,-4.1304 4.63162,-3.02514 4.26175,-7.7751 2.73165,3.08775 6.51628,2.50856 7.66802,6.46074 3.33156,6.72561 2.03972,-2.68618 1.80663,-5.07348 2.77325,-1.08882 7.8797,5.19194 10.7976,7.78234 -0.89863,-0.87373 -2.06314,-10.19122 -1.45169,-14.36045 3.81225,4.27738 7.59994,12.14641 11.70559,17.74284 0.28588,-0.32749 -1.29368,-7.94039 -1.99855,-10.86025 -3.3791,-7.16015 2.02914,-0.65226 5.29235,1.00205 1.46157,-1.59175 -2.32088,-10.16045 -6.70681,-11.39785 0.18546,-2.13309 -7.33015,-11.50094 -3.52331,-10.91562 2.62013,1.24125 5.65584,1.42044 5.49459,0.96892 -0.9738,-2.72787 -5.37722,-4.1456 -6.28975,-6.01831 0.17961,-4.34135 -10.46365,-11.32804 -4.37685,-13.19025 0.65479,-3.56967 -3.5962,-9.759298 -3.36153,-15.01613 -3.50522,-7.56155 0.36655,-1.551374 3.31923,-1.992319 -3.60608,-5.889059 -5.17882,-10.621271 -7.2798,-17.114168 -0.36996,-5.631739 -4.24357,-10.730712 -4.34451,-16.83631 -2.59234,-4.318204 -1.55221,-5.145592 -5.11266,-8.097069 -1.44706,-1.19955 -3.81785,-2.289396 -6.288,-3.742333 -2.23654,-1.315519 -4.2877,-3.45826 -5.80031,-4.108595 -1.95748,-0.84159 -5.72341,0.22507 -8.88384,0.05961 -4.26297,-0.223199 -7.90968,0.881829 -7.91143,3.263439 v 10.663083 c 0.28911,2.153246 2.24667,-0.04038 6.5952,0.539303 1.8803,0.250669 5.38177,0.927329 7.44097,1.700127 2.62765,0.986121 7.02565,0.52601 9.14184,2.687349 1.87365,1.91352 3.38793,5.938055 3.91992,9.606955 0.38735,2.671285 -0.0804,4.931141 0.32836,7.142428 2.88748,15.626115 -4.41399,46.95433 -5.41672,62.8133 m -26.68244,7.53328 c -4.19314,-0.0169 -6.99121,3.72695 -11.13663,3.29191 -5.00638,-3.66952 -5.12288,-1.98687 -7.17378,3.24056 -2.44866,-4.1304 -4.63162,-3.02514 -4.26175,-7.7751 -2.73165,3.08775 -6.51628,2.50856 -7.66803,6.46074 -3.33155,6.72561 -2.03971,-2.68618 -1.80662,-5.07348 -2.77325,-1.08882 -7.1362,6.0456 -10.79761,7.78234 -1.25129,-7.80566 2.33836,-2.1252 0.7026,-9.70969 -1.65856,1.86092 -2.62904,-0.93464 -4.30649,1.803 -2.17824,3.55494 -0.90178,3.43993 -3.22117,6.60159 -0.28588,-0.32749 -2.13516,-3.2529 -1.43028,-6.17276 3.3791,-7.16015 -2.02914,-0.65226 -5.29244,1.00205 -1.46149,-1.59175 2.32096,-10.16045 6.7069,-11.39785 -0.18546,-2.13309 7.33014,-11.50094 3.52331,-10.91562 -2.62022,1.24125 -5.65584,1.42044 -5.49459,0.96892 0.97371,-2.72787 5.37713,-4.1456 6.28975,-6.01831 -0.17961,-4.34135 10.46365,-11.32804 4.37684,-13.19025 -0.65479,-3.56967 3.59621,-9.759294 3.36154,-15.016126 3.50522,-7.56155 -0.36655,-1.551374 -3.31923,-1.992319 3.60607,-5.889059 5.17882,-10.621271 7.2798,-17.114168 0.36996,-5.631739 4.24356,-10.730712 4.34451,-16.83631 2.59234,-4.318204 1.5522,-5.145592 5.11266,-8.097069 1.44706,-1.19955 3.81784,-2.289396 6.288,-3.742333 2.23653,-1.315519 4.2877,-3.45826 5.80031,-4.108595 1.95747,-0.84159 5.7234,0.22507 8.88383,0.05961 4.26297,-0.223199 7.90969,0.881829 7.91144,3.263439 v 10.663083 c -0.28912,2.153246 -2.24668,-0.04038 -6.59521,0.539303 -1.8803,0.250669 -5.38176,0.927329 -7.44096,1.700127 -2.62765,0.986121 -7.02565,0.52601 -9.14184,2.687349 -1.87366,1.91352 -3.38793,5.938055 -3.91993,9.606955 -0.38735,2.671285 0.0804,4.931141 -0.32835,7.142428 -2.88749,15.626115 4.4139,46.954336 5.41672,62.813306"/>
    <path id="beard" style="fill:#008000;" d="m 306.66983,172.44026 c 1.72656,4.06529 3.26889,-1.01502 3.6621,-2.99311 -0.28789,-3.20987 1.56846,-1.73973 2.17588,0.21976 1.60962,4.15111 1.76423,-2.07225 1.94358,-3.64837 0.0629,-3.40138 3.20011,2.16156 3.24398,-1.21937 0.91664,-1.31998 0.37293,-5.26616 1.61662,-4.17148 2.3422,3.81421 1.71415,-2.7388 2.70482,-4.33808 0.40107,-3.44972 1.21205,0.65308 2.45783,1.40916 0.76579,-2.81844 1.68522,-6.71823 2.1834,-10.00556 0.45063,-1.68272 0.85651,-8.19231 2.28242,-3.40654 0.94653,-0.34806 1.83354,-7.93088 0.99224,-9.76015 -1.12002,-2.18119 -3.57444,-6.59037 0.13748,-5.25773 2.29439,2.85253 0.49065,-0.43966 1.75514,-1.9136 0.21413,-3.60015 -0.51224,-7.20848 -1.45886,-10.67591 -1.22411,-3.67314 2.5135,-2.43055 3.00591,0.11612 -0.0516,-3.3794 -1.3123,-6.5732 -2.06873,-9.82951 -0.1221,-1.44205 -2.96029,-8.583317 -0.71702,-6.15982 -0.24463,-2.245588 -1.52511,-9.321375 1.43954,-8.005707 -1.03462,-3.182647 0.0358,-7.407282 -2.69171,-9.882986 -1.64642,-0.879111 -3.21059,3.928745 -3.73009,9.771142 -0.63976,7.195654 -8.15213,11.984081 -12.99866,17.341151 -1.39026,1.53676 -1.97137,2.84731 -8.09664,3.64761 -1.51488,0.19793 -1.82349,-1.46402 -3.86215,-1.3168 -2.03867,-0.14722 -2.34727,1.51473 -3.86216,1.3168 -6.12526,-0.8003 -6.70638,-2.11085 -8.09663,-3.64761 -4.84653,-5.35707 -12.3589,-10.145497 -12.99866,-17.341151 -0.5195,-5.842397 -2.08368,-10.650253 -3.7301,-9.771142 -2.72728,2.475704 -0.48366,5.403872 -1.51829,8.58652 0.78196,0.430404 0.42703,3.157852 0.26613,9.302173 2.24327,-2.423497 -0.59492,4.71777 -0.71702,6.15982 -0.75644,3.25631 -2.01717,6.45011 -2.06873,9.82951 0.4924,-2.54667 4.23002,-3.78926 3.00591,-0.11612 -0.94662,3.46743 -1.67299,7.07576 -1.45886,10.67591 1.26448,1.47394 -0.53926,4.76613 1.75514,1.9136 3.71192,-1.33264 1.25749,3.07654 0.13748,5.25773 -0.8413,1.82927 0.0455,9.41209 0.99224,9.76015 1.42591,-4.78577 1.83179,1.72382 2.28242,3.40654 0.49817,3.28733 1.41761,7.18712 2.1834,10.00556 1.24578,-0.75608 2.05676,-4.85888 2.45783,-1.40916 0.99067,1.59928 0.36262,8.15229 2.70482,4.33808 1.2436,-1.09468 2.05195,-1.19656 2.96868,0.12343 0.0437,3.38093 -0.42153,0.52814 -0.3586,3.92951 0.98079,-2.46613 4.30946,0.43758 4.19401,4.98628 0.60751,-1.95949 2.46386,-3.42963 2.17597,-0.21976 0.39321,1.97809 1.93553,7.0584 3.6621,2.99311 2.30873,-4.46158 2.82307,2.19343 6.02292,4.18007 0.26298,-5.76309 3.7141,-8.64165 6.02292,-4.18007 z"/>
    <path id="moustache" style="fill:#008000;" d="m 302.65665,101.61929 c 0.6894,-1.08066 2.12763,-0.98702 3.25211,-1.0948 1.08287,-0.0302 2.1057,0.38153 3.08247,0.78838 1.02222,0.11788 2.06401,0.41704 2.71286,1.27507 0.44608,1.07235 1.84071,1.103 2.20805,2.1673 0.20495,1.36879 1.79456,1.0976 2.62825,1.84624 0.83825,0.85838 1.83328,1.54905 3.08178,1.60854 1.01409,0.18919 1.87977,0.77479 2.77535,1.2494 -0.31595,0.72566 -1.63165,0.62448 -1.12544,1.6636 0.49197,1.26292 -0.92922,1.44363 -1.81519,1.17343 -0.61642,-0.13743 -0.99223,0.1698 -1.12167,0.68891 -0.70758,-0.0349 -1.57021,-0.59262 -1.74955,0.39526 -0.76177,-0.2145 -1.52345,-0.99743 -2.19197,-0.14198 -1.27786,0.37819 -1.52266,-1.19622 -2.57014,-1.52311 -1.23354,-0.81891 -2.37637,-1.7678 -3.66122,-2.50859 -0.80084,-0.66407 -1.74055,-1.31253 -2.83767,-1.19763 -0.88465,-0.0232 -1.92741,0.13557 -2.56376,-0.63583 -0.57788,-0.79192 -1.74125,-1.08022 -2.03578,-2.06734 0.0245,-1.05819 -0.48008,-2.61672 0.79655,-3.14625 0.36979,-0.19778 0.75749,-0.3589 1.13497,-0.5406 z m -4.01948,0 c -0.6894,-1.08066 -2.12764,-0.98702 -3.25211,-1.0948 -1.08287,-0.0302 -2.1057,0.38153 -3.08247,0.78838 -1.02222,0.11788 -2.06401,0.41704 -2.71286,1.27507 -0.44609,1.07235 -1.84071,1.103 -2.20805,2.1673 -0.20495,1.36879 -1.79456,1.0976 -2.62826,1.84624 -0.83824,0.85838 -1.83328,1.54905 -3.08177,1.60854 -1.01409,0.18919 -1.87977,0.77479 -2.77535,1.2494 0.31595,0.72566 1.63165,0.62448 1.12543,1.6636 -0.49196,1.26292 0.92923,1.44363 1.81519,1.17343 0.61643,-0.13743 0.99224,0.1698 1.12168,0.68891 0.70758,-0.0349 1.57021,-0.59262 1.74955,0.39526 0.76177,-0.2145 1.52345,-0.99743 2.19196,-0.14198 1.27786,0.37819 1.52267,-1.19622 2.57014,-1.52311 1.23355,-0.81891 2.37638,-1.7678 3.66123,-2.50859 0.80083,-0.66407 1.74055,-1.31253 2.83767,-1.19763 0.88465,-0.0232 1.9274,0.13557 2.56375,-0.63583 0.57789,-0.79192 1.74125,-1.08022 2.03579,-2.06734 -0.0245,-1.05819 0.48008,-2.61672 -0.79656,-3.14625 -0.36978,-0.19778 -0.75748,-0.3589 -1.13496,-0.5406 z"/>
    <path id="lip" d="m 309.30997,110.70426 c 0,-3.33156 -6.33476,-2.92057 -8.66306,-2.92057 -2.3284,0 -8.66307,-0.41099 -8.66307,2.92057 0,3.24337 5.68775,1.17205 8.66307,1.17205 2.97532,0 8.66306,2.07132 8.66306,-1.17205 z"/>
    <path id="nose" d="m 303.06314,87.336928 c 1.96202,5.610728 -0.35694,7.405272 1.65621,9.517554 1.4981,1.57186 2.42645,3.339158 1.12325,4.605858 -1.51183,0.46982 -1.37732,-0.38535 -3.03353,0.34858 -0.34942,0.15486 -0.50892,1.05441 -2.16216,1.05441 -1.50265,0 -1.85871,-1.06913 -2.20822,-1.22399 -1.65612,-0.73389 -1.00037,0.10623 -2.51228,-0.36359 -0.83571,-0.68608 -0.65121,-2.629827 0.64797,-4.421233 1.72779,-2.382344 -0.33902,-4.964282 1.65621,-9.517554"/>
    <path id="eyebrow1" style="fill:#008000;" d="m 284.85096,74.159109 c -1.77734,-0.01145 -3.39658,0.892683 -4.48592,2.051287 -1.039,1.105115 -1.37863,2.124719 -1.37863,2.124719 0,0 0.89155,-0.599906 2.11925,-1.031141 1.37391,-0.482599 2.52355,-0.573747 3.69094,-0.523467 0.0725,0.0017 0.14438,0.0052 0.21552,0.01014 2.91143,0.214835 4.78396,2.194682 7.86372,3.630566 2.14485,1.004834 3.42315,0.734605 3.97254,0.467069 0.5465,-0.266112 0.5049,-0.611967 0.5049,-0.611967 0,0 0.0568,-0.312224 -0.35895,-0.689778 -0.53383,-0.484706 -1.15043,-0.679658 -3.01054,-1.541708 -2.68445,-1.251552 -5.07866,-3.596009 -8.77869,-3.869034 -0.11808,-0.0087 -0.23615,-0.01425 -0.35414,-0.01669 z"/>
    <g id="eye1">
      <path style="fill:#ddffdd;" d="m 294.41648,83.865798 c 0,0 -0.72079,2.121558 -5.41493,2.217334 -3.15531,0.06432 -6.01363,-2.217334 -6.01363,-2.217334 0,0 3.56771,-3.234889 6.66096,-2.609313 5.3292,1.077748 4.7676,2.609313 4.7676,2.609313 z"/>
      <circle style="fill:#008000;stroke:none;" cx="289.1441" cy="83.746468" r="2.3"/>
      <circle style="fill:#000000;stroke:none;" cx="289.1441" cy="83.746468" r="1"/>
      <circle style="fill:#ffffff;stroke:none;" cx="289.81256" cy="83.091156" r="0.45"/>
    </g>
    <path id="eyebrow2" style="fill:#008000;" d="m 315.97256,74.135389 c 1.77735,-0.01145 3.39659,0.892683 4.48593,2.051287 1.03899,1.105115 1.37863,2.124719 1.37863,2.124719 0,0 -0.89156,-0.599906 -2.11925,-1.031141 -1.37391,-0.482599 -2.52356,-0.573747 -3.69094,-0.523467 -0.0726,0.0017 -0.14439,0.0052 -0.21553,0.01014 -2.91143,0.214835 -4.78395,2.194681 -7.86371,3.630566 -2.14486,1.004834 -3.42316,0.734605 -3.97255,0.467069 -0.5465,-0.266112 -0.5049,-0.611967 -0.5049,-0.611967 0,0 -0.0568,-0.312224 0.35895,-0.689778 0.53383,-0.484706 1.15043,-0.679658 3.01054,-1.541708 2.68446,-1.251552 5.07866,-3.596009 8.77869,-3.869035 0.11808,-0.0087 0.23616,-0.01425 0.35414,-0.01669 z"/>
    <g id="eye2">
      <path style="fill:#ddffdd;" d="m 306.46028,84.184492 c 0,0 0.72079,2.121558 5.41493,2.217334 3.15531,0.06432 6.01363,-2.217334 6.01363,-2.217334 0,0 -3.56771,-3.234889 -6.66096,-2.609313 -5.3292,1.077748 -4.7676,2.609313 -4.7676,2.609313 z"/>
      <circle style="fill:#008000;stroke:none;" cx="311.73267" cy="84.065155" r="2.3"/>
      <circle style="fill:#000000;stroke:none;" cx="311.73267" cy="84.065155" r="1"/>
      <circle style="fill:#ffffff;stroke:none;" cx="312.40112" cy="83.409851" r="0.45"/>
    </g>
  </g>
</g>
<use id="shine" xlink:href="#shield" style="fill:url(#rg);stroke:#000000;stroke-width:3;"/>
</svg>
