<?xml version="1.0" encoding="UTF-8"?>
<svg xmlns="http://www.w3.org/2000/svg" xmlns:xlink="http://www.w3.org/1999/xlink" width="600" height="660">
<defs>
  <radialGradient id="rg" gradientUnits="userSpaceOnUse" cx="220" cy="220" r="405">
    <stop style="stop-color:#ffffff;stop-opacity:.3" offset="0"/>
    <stop style="stop-color:#ffffff;stop-opacity:.2" offset=".2"/>
    <stop style="stop-color:#666666;stop-opacity:.1" offset=".6"/>
    <stop style="stop-color:#000000;stop-opacity:.13" offset="1"/>
  </radialGradient>
  <pattern id="vair" patternUnits="userSpaceOnUse" x="0" width="150" height="264">
    <path style="fill:#cc0000;" d="m 75,0 l 37.5,37.5 v 57 l 37.5,37.5 v 132 l -37.5,-37.5 v -57 l -37.5,-37.5 l -37.5,37.5 v 57 l -37.5,37.5 v -132 l 37.5,-37.5 v -57 z"/>
  </pattern>
  <path id="shield" d="m2,2v257c0,286 298,398 298,398c0,0 298-112 298-398V2z"/>
</defs>
<use id="field" xlink:href="#shield" style="fill:#00cc00;"/>
<use xlink:href="#shield" style="fill:url(#vair);"/>
<path fill="#fff" d="m 2,2 v 106.07 l 191.93,191.93 -144.102,144.11 c 26.417,47.21 60.872,85.73 95.732,116.4 l 154.44,-154.44 154.45,154.44 c 34.85,-30.66 69.3,-69.19 95.72,-116.4 l -144.1,-144.11 191.93,-191.94 v -106.06 h -106.06 l -191.94,191.93 -191.93,-191.93 z"/>
<g id="strawberry">
  <path fill="#c00" d="m 285.98989,268.44416 c -10.43064,1.26488 -17.2406,4.55516 -21.68434,14.56442 -0.65046,4.67639 -1.95032,9.4013 -0.88386,14.1238 0.77174,9.18271 5.87381,15.43485 9.08391,23.74922 3.46359,8.45886 12.78744,10.52126 18.63454,16.83532 2.2091,1.66165 3.70257,4.15898 5.43722,6.04084 6.50686,9.42814 13.47124,-0.65047 16.9478,-5.37865 5.77425,-5.07901 8.2498,-8.68851 13.54603,-14.28736 4.76872,-5.98702 8.25152,-13.0404 9.51091,-20.62902 2.05655,-15.04363 -3.6292,-31.07069 -19.0327,-35.88669 -9.32398,-2.6337 -16.48877,-2.88806 -25.86015,-0.26511 -2.33826,0.66304 -3.34616,0.54409 -5.69936,1.13323 z"/>
  <path fill="#cc0" d="m 266.11611,290.55211 a 1.698898,2.3505605 24.445646 0 0 0.57386,2.8429 1.698898,2.3505605 24.445646 0 0 2.51934,-1.43679 1.698898,2.3505605 24.445646 0 0 -0.57387,-2.84289 1.698898,2.3505605 24.445646 0 0 -2.51933,1.43678 z m 4.82347,10.58961 a 2.3505605,1.698898 52.211401 0 1 0.0977,2.89859 2.3505605,1.698898 52.211401 0 1 -2.78291,-0.8166 2.3505605,1.698898 52.211401 0 1 -0.0977,-2.89859 2.3505605,1.698898 52.211401 0 1 2.7829,0.8166 z m 15.49277,6.94503 a 2.3505605,1.698898 83.328527 0 1 -1.41433,2.53201 2.3505605,1.698898 83.328527 0 1 -1.96047,-2.13727 2.3505605,1.698898 83.328527 0 1 1.41432,-2.53202 2.3505605,1.698898 83.328527 0 1 1.96048,2.13728 z m 1.73916,-10.37306 a 2.3505605,1.698898 83.328527 0 1 -1.41432,2.53202 2.3505605,1.698898 83.328527 0 1 -1.96047,-2.13727 2.3505605,1.698898 83.328527 0 1 1.41432,-2.53202 2.3505605,1.698898 83.328527 0 1 1.96047,2.13727 z m -10.49408,8.44465 a 2.3505605,1.698898 83.328527 0 1 -1.41431,2.53201 2.3505605,1.698898 83.328527 0 1 -1.96048,-2.13727 2.3505605,1.698898 83.328527 0 1 1.41432,-2.53202 2.3505605,1.698898 83.328527 0 1 1.96047,2.13728 z m 0.59606,-8.92715 a 2.3505605,1.698898 83.328527 0 1 -1.41432,2.53202 2.3505605,1.698898 83.328527 0 1 -1.96047,-2.13727 2.3505605,1.698898 83.328527 0 1 1.41432,-2.53202 2.3505605,1.698898 83.328527 0 1 1.96047,2.13727 z m 0.0832,-10.50741 a 2.3505605,1.698898 83.328527 0 1 -1.41432,2.53201 2.3505605,1.698898 83.328527 0 1 -1.96047,-2.13727 2.3505605,1.698898 83.328527 0 1 1.41432,-2.53201 2.3505605,1.698898 83.328527 0 1 1.96047,2.13727 z m 9.10908,-12.77516 a 1.698898,2.3505605 24.445646 0 0 0.57387,2.8429 1.698898,2.3505605 24.445646 0 0 2.51933,-1.43679 1.698898,2.3505605 24.445646 0 0 -0.57387,-2.8429 1.698898,2.3505605 24.445646 0 0 -2.51933,1.43679 z M 266.75,281.94858 a 1.698898,2.3505605 24.445646 0 0 0.57387,2.8429 1.698898,2.3505605 24.445646 0 0 2.51933,-1.43679 1.698898,2.3505605 24.445646 0 0 -0.57387,-2.84289 1.698898,2.3505605 24.445646 0 0 -2.51933,1.43678 z m 10.43544,-6.1414 a 1.698898,2.3505605 24.445646 0 0 0.57386,2.8429 1.698898,2.3505605 24.445646 0 0 2.51934,-1.43679 1.698898,2.3505605 24.445646 0 0 -0.57387,-2.8429 1.698898,2.3505605 24.445646 0 0 -2.51933,1.43679 z m 19.19772,10.77638 a 2.3505605,1.698898 83.328527 0 1 -1.41431,2.53202 2.3505605,1.698898 83.328527 0 1 -1.96048,-2.13727 2.3505605,1.698898 83.328527 0 1 1.41432,-2.53202 2.3505605,1.698898 83.328527 0 1 1.96047,2.13727 z m -8.75494,-1.92841 a 2.3505605,1.698898 83.328527 0 1 -1.41432,2.53202 2.3505605,1.698898 83.328527 0 1 -1.96047,-2.13728 2.3505605,1.698898 83.328527 0 1 1.41432,-2.53201 2.3505605,1.698898 83.328527 0 1 1.96047,2.13727 z m 19.67937,35.52436 a 1.698898,2.3505605 24.445646 0 0 0.57387,2.8429 1.698898,2.3505605 24.445646 0 0 2.51933,-1.43679 1.698898,2.3505605 24.445646 0 0 -0.57387,-2.8429 1.698898,2.3505605 24.445646 0 0 -2.51933,1.43679 z m 5.89351,11.12055 a 1.698898,2.3505605 24.445646 0 0 0.57387,2.8429 1.698898,2.3505605 24.445646 0 0 2.51933,-1.43679 1.698898,2.3505605 24.445646 0 0 -0.57387,-2.84289 1.698898,2.3505605 24.445646 0 0 -2.51933,1.43678 z m 7.92257,-9.46823 a 1.698898,2.3505607 32.145779 0 1 -2.68913,1.08627 1.698898,2.3505607 32.145779 0 1 -0.18778,-2.89416 1.698898,2.3505607 32.145779 0 1 2.68913,-1.08627 1.698898,2.3505607 32.145779 0 1 0.18778,2.89416 z m -17.06578,16.34244 a 2.3505605,1.698898 83.328527 0 1 -1.41431,2.53202 2.3505605,1.698898 83.328527 0 1 -1.96048,-2.13727 2.3505605,1.698898 83.328527 0 1 1.41432,-2.53202 2.3505605,1.698898 83.328527 0 1 1.96047,2.13727 z m 1.8527,-9.40218 a 2.3505605,1.698898 83.328527 0 1 -1.41431,2.53201 2.3505605,1.698898 83.328527 0 1 -1.96047,-2.13727 2.3505605,1.698898 83.328527 0 1 1.41431,-2.53201 2.3505605,1.698898 83.328527 0 1 1.96047,2.13727 z m -3.32526,-8.79653 a 2.3505605,1.698898 83.328527 0 1 -1.41432,2.53201 2.3505605,1.698898 83.328527 0 1 -1.96047,-2.13726 2.3505605,1.698898 83.328527 0 1 1.41432,-2.53202 2.3505605,1.698898 83.328527 0 1 1.96047,2.13727 z m 24.39142,-8.3297 a 1.698898,2.3505605 24.445646 0 0 0.57387,2.8429 1.698898,2.3505605 24.445646 0 0 2.51933,-1.43679 1.698898,2.3505605 24.445646 0 0 -0.57387,-2.8429 1.698898,2.3505605 24.445646 0 0 -2.51933,1.43679 z m -15.99051,-1.1823 a 2.3505605,1.698898 83.328527 0 1 -1.41431,2.53202 2.3505605,1.698898 83.328527 0 1 -1.96048,-2.13727 2.3505605,1.698898 83.328527 0 1 1.41432,-2.53202 2.3505605,1.698898 83.328527 0 1 1.96047,2.13727 z m 7.86349,-2.88809 a 2.3505605,1.698898 83.328527 0 1 -1.41431,2.53201 2.3505605,1.698898 83.328527 0 1 -1.96047,-2.13727 2.3505605,1.698898 83.328527 0 1 1.41431,-2.53201 2.3505605,1.698898 83.328527 0 1 1.96047,2.13727 z m -15.26527,-1.49498 a 2.3505605,1.698898 83.328527 0 1 -1.41431,2.53202 2.3505605,1.698898 83.328527 0 1 -1.96047,-2.13728 2.3505605,1.698898 83.328527 0 1 1.41431,-2.53201 2.3505605,1.698898 83.328527 0 1 1.96047,2.13727 z m -19.65992,19.13047 a 2.3505605,1.698898 52.211401 0 1 0.0977,2.89859 2.3505605,1.698898 52.211401 0 1 -2.7829,-0.81659 2.3505605,1.698898 52.211401 0 1 -0.0977,-2.8986 2.3505605,1.698898 52.211401 0 1 2.78291,0.8166 z m -8.27241,-11.82642 a 2.3505605,1.698898 52.211401 0 1 0.0977,2.8986 2.3505605,1.698898 52.211401 0 1 -2.7829,-0.8166 2.3505605,1.698898 52.211401 0 1 -0.0977,-2.89859 2.3505605,1.698898 52.211401 0 1 2.7829,0.81659 z m 17.35098,13.71701 a 2.3505605,1.698898 52.211401 0 1 0.0977,2.89859 2.3505605,1.698898 52.211401 0 1 -2.78292,-0.81659 2.3505605,1.698898 52.211401 0 1 -0.0977,-2.8986 2.3505605,1.698898 52.211401 0 1 2.7829,0.8166 z m -9.70129,-10.01906 a 2.3505605,1.698898 52.211401 0 1 0.0977,2.89859 2.3505605,1.698898 52.211401 0 1 -2.78291,-0.81659 2.3505605,1.698898 52.211401 0 1 -0.0977,-2.8986 2.3505605,1.698898 52.211401 0 1 2.78291,0.8166 z m 6.98539,0.8232 a 2.3505605,1.698898 52.211401 0 1 0.0977,2.8986 2.3505605,1.698898 52.211401 0 1 -2.78291,-0.8166 2.3505605,1.698898 52.211401 0 1 -0.0977,-2.89859 2.3505605,1.698898 52.211401 0 1 2.7829,0.81659 z m 6.09806,-6.06231 a 2.3505605,1.698898 83.328528 0 1 -1.41431,2.53202 2.3505605,1.698898 83.328528 0 1 -1.96048,-2.13728 2.3505605,1.698898 83.328528 0 1 1.41432,-2.53202 2.3505605,1.698898 83.328528 0 1 1.96047,2.13728 z m 10.09228,-37.82215 a 2.3505605,1.698898 52.211401 0 1 0.0977,2.89858 2.3505605,1.698898 52.211401 0 1 -2.7829,-0.81659 2.3505605,1.698898 52.211401 0 1 -0.0977,-2.89859 2.3505605,1.698898 52.211401 0 1 2.78291,0.8166 z m 9.76739,-3.43885 a 2.3505605,1.698898 52.211401 0 1 0.0977,2.89859 2.3505605,1.698898 52.211401 0 1 -2.7829,-0.81659 2.3505605,1.698898 52.211401 0 1 -0.0977,-2.8986 2.3505605,1.698898 52.211401 0 1 2.78291,0.8166 z m 8.88555,5.84978 a 2.3505605,1.698898 52.211401 0 1 0.0977,2.89859 2.3505605,1.698898 52.211401 0 1 -2.78291,-0.81659 2.3505605,1.698898 52.211401 0 1 -0.0977,-2.8986 2.3505605,1.698898 52.211401 0 1 2.78291,0.8166 z m -6.74084,7.57734 a 2.3505605,1.698898 83.328528 0 1 -1.41432,2.53202 2.3505605,1.698898 83.328528 0 1 -1.96046,-2.13727 2.3505605,1.698898 83.328528 0 1 1.41431,-2.53202 2.3505605,1.698898 83.328528 0 1 1.96047,2.13727 z m -10.56605,2.22007 a 2.3505605,1.698898 83.328528 0 1 -1.41432,2.53202 2.3505605,1.698898 83.328528 0 1 -1.96047,-2.13728 2.3505605,1.698898 83.328528 0 1 1.41431,-2.53201 2.3505605,1.698898 83.328528 0 1 1.96048,2.13727 z m 0.52621,10.10807 a 2.3505605,1.698898 83.328528 0 1 -1.41431,2.53202 2.3505605,1.698898 83.328528 0 1 -1.96048,-2.13727 2.3505605,1.698898 83.328528 0 1 1.41432,-2.53202 2.3505605,1.698898 83.328528 0 1 1.96047,2.13727 z m 8.70002,-1.34569 a 2.3505605,1.698898 83.328528 0 1 -1.41432,2.53202 2.3505605,1.698898 83.328528 0 1 -1.96047,-2.13728 2.3505605,1.698898 83.328528 0 1 1.41431,-2.53201 2.3505605,1.698898 83.328528 0 1 1.96048,2.13727 z m -18.75319,5.14599 a 2.3505605,1.698898 83.328528 0 1 -1.41432,2.53203 2.3505605,1.698898 83.328528 0 1 -1.96047,-2.13728 2.3505605,1.698898 83.328528 0 1 1.41432,-2.53202 2.3505605,1.698898 83.328528 0 1 1.96047,2.13727 z m 26.59216,0.1701 a 2.3505605,1.698898 83.328528 0 1 -1.41431,2.53202 2.3505605,1.698898 83.328528 0 1 -1.96048,-2.13728 2.3505605,1.698898 83.328528 0 1 1.41432,-2.53202 2.3505605,1.698898 83.328528 0 1 1.96047,2.13728 z m 7.93918,-2.24085 a 2.3505605,1.698898 83.328528 0 1 -1.41432,2.53202 2.3505605,1.698898 83.328528 0 1 -1.96047,-2.13728 2.3505605,1.698898 83.328528 0 1 1.41431,-2.53201 2.3505605,1.698898 83.328528 0 1 1.96048,2.13727 z m -5.13268,-10.22538 a 2.3505605,1.698898 83.328528 0 1 -1.41431,2.53202 2.3505605,1.698898 83.328528 0 1 -1.96048,-2.13728 2.3505605,1.698898 83.328528 0 1 1.41432,-2.53201 2.3505605,1.698898 83.328528 0 1 1.96047,2.13727 z"/>
  <path fill="#050" d="m 277.28905,255.35682 c 1.0526,6.92523 4.99234,7.04512 10.78389,8.407 -3.31717,-0.46471 -16.0273,1.45016 -21.93853,4.44561 3.93343,1.41913 9.0452,0.55978 13.18161,-0.18733 3.67649,-0.52755 7.40878,-0.56755 11.08281,-1.02874 -6.67936,2.62209 -12.09671,5.98406 -16.37124,11.01643 5.99914,-1.936 7.51053,-2.35797 10.99212,-4.14885 3.12327,-1.03953 7.50246,-4.60692 10.50748,-5.77593 -0.5543,2.0912 -0.6979,4.36696 0.57717,6.202 0.66013,2.43891 3.09662,4.37531 5.58517,7.57208 1.83013,-4.66643 -0.21632,-9.92549 -1.8835,-13.02584 3.72431,1.63393 4.35236,1.4611 6.50691,2.1904 4.59885,1.86903 8.18938,5.22326 14.68056,5.58809 -4.90878,-6.87625 -12.38229,-8.07093 -15.62632,-11.41309 9.25997,3.62163 15.8587,-0.64082 24.16582,-2.59275 -8.61229,-6.61004 -16.32633,0.36067 -27.9109,0.49902 4.34384,-1.22746 5.75124,-6.95641 11.61041,-10.73708 -8.00699,-0.38957 -12.20786,6.84323 -17.44823,10.67743 -2.65481,-0.77513 -1.0999,-3.00658 -4.54926,-3.74706 -5.37503,-0.89084 -7.24378,-2.54914 -13.94597,-3.94139 z"/>
</g>
<use xlink:href="#strawberry" x="-170" y="-170"/>
<use xlink:href="#strawberry" x="-85" y="-85"/>
<use xlink:href="#strawberry" x="85" y="85"/>
<use xlink:href="#strawberry" x="170" y="170"/>
<use xlink:href="#strawberry" x="170" y="-170"/>
<use xlink:href="#strawberry" x="85" y="-85"/>
<use xlink:href="#strawberry" x="-85" y="85"/>
<use xlink:href="#strawberry" x="-170" y="170"/>
<use id="shine" xlink:href="#shield" style="fill:url(#rg);stroke:#000000;stroke-width:3;"/>
</svg>
