<?xml version="1.0" encoding="UTF-8" standalone="no"?>
<svg
   xmlns:dc="http://purl.org/dc/elements/1.1/"
   xmlns:cc="http://creativecommons.org/ns#"
   xmlns:rdf="http://www.w3.org/1999/02/22-rdf-syntax-ns#"
   xmlns:svg="http://www.w3.org/2000/svg"
   xmlns="http://www.w3.org/2000/svg"
   xmlns:xlink="http://www.w3.org/1999/xlink"
   xmlns:sodipodi="http://sodipodi.sourceforge.net/DTD/sodipodi-0.dtd"
   xmlns:inkscape="http://www.inkscape.org/namespaces/inkscape"
   width="600"
   height="660"
   id="svg2"
   version="1.1"
   inkscape:version="0.48.2 r9819"
   sodipodi:docname="House_Condon.svg">
  <metadata
     id="metadata24">
    <rdf:RDF>
      <cc:Work
         rdf:about="">
        <dc:format>image/svg+xml</dc:format>
        <dc:type
           rdf:resource="http://purl.org/dc/dcmitype/StillImage" />
        <dc:title />
      </cc:Work>
    </rdf:RDF>
  </metadata>
  <sodipodi:namedview
     pagecolor="#ffffff"
     bordercolor="#666666"
     borderopacity="1"
     objecttolerance="10"
     gridtolerance="10"
     guidetolerance="10"
     inkscape:pageopacity="0"
     inkscape:pageshadow="2"
     inkscape:window-width="1366"
     inkscape:window-height="715"
     id="namedview22"
     showgrid="false"
     inkscape:zoom="0.5056885"
     inkscape:cx="57.335446"
     inkscape:cy="265.50875"
     inkscape:window-x="-8"
     inkscape:window-y="-8"
     inkscape:window-maximized="1"
     inkscape:current-layer="layer2" />
  <defs
     id="defs4">
    <radialGradient
       id="rg"
       gradientUnits="userSpaceOnUse"
       cx="220"
       cy="220"
       r="405">
      <stop
         style="stop-color:#fff;stop-opacity:.3"
         offset="0"
         id="stop7" />
      <stop
         style="stop-color:#fff;stop-opacity:.2"
         offset=".2"
         id="stop9" />
      <stop
         style="stop-color:#666;stop-opacity:.1"
         offset=".6"
         id="stop11" />
      <stop
         style="stop-color:#000;stop-opacity:.13"
         offset="1"
         id="stop13" />
    </radialGradient>
    <path
       id="shield"
       d="m2,2v257c0,286 298,398 298,398c0,0 298-112 298-398V2z" />
    <radialGradient
       inkscape:collect="always"
       xlink:href="#rg-7"
       id="radialGradient3055-1"
       gradientUnits="userSpaceOnUse"
       cx="220"
       cy="220"
       r="405" />
    <radialGradient
       id="rg-7"
       gradientUnits="userSpaceOnUse"
       cx="220"
       cy="220"
       r="405">
      <stop
         style="stop-color:#fff;stop-opacity:.3"
         offset="0"
         id="stop7-4" />
      <stop
         style="stop-color:#fff;stop-opacity:.2"
         offset=".2"
         id="stop9-0" />
      <stop
         style="stop-color:#666;stop-opacity:.1"
         offset=".6"
         id="stop11-9" />
      <stop
         style="stop-color:#000;stop-opacity:.13"
         offset="1"
         id="stop13-4" />
    </radialGradient>
    <radialGradient
       r="405"
       cy="220"
       cx="220"
       gradientUnits="userSpaceOnUse"
       id="radialGradient3074"
       xlink:href="#rg-7"
       inkscape:collect="always" />
  </defs>
  <g
     inkscape:groupmode="layer"
     id="layer2"
     inkscape:label="Elements"
     style="display:inline">
    <path
       inkscape:connector-curvature="0"
       d="M 300.00001,658.5 C 300.00001,658.5 1.5,546.17969 1.5,260.72817 1.5,-24.72335 1.5,2.17648 1.5,2.17648 l 597.00001,0 0,258.55169 c 0,285.45152 -298.5,397.77183 -298.5,397.77183 z"
       style="fill:#ffffff;fill-opacity:1;fill-rule:evenodd;stroke:none"
       id="path2855" />
    <g
       style="display:inline"
       id="g3139"
       transform="matrix(1.44,0,0,1.44,694.55869,-437.13672)">
      <path
         sodipodi:nodetypes="csccccsc"
         id="path4190-3-6"
         class="fil1 str8"
         d="m -348.42982,368.27364 c 0.30592,0.5743 1.71533,10.67651 12.83968,11.22649 8.20615,0.4057 11.49317,-5.73268 22.84728,-8.14735 9.82583,-2.52263 24.14851,0.50295 34.07593,1.00405 l -0.24043,3.92171 c -7.64816,-0.40985 -23.80789,-3.18519 -30.43433,-1.76433 -13.81123,3.1867 -15.87841,12.00091 -28.75192,10.61975 -10.79101,-1.15775 -11.82227,-13.15485 -10.33621,-16.86032 z"
         inkscape:connector-curvature="0"
         style="fill:#cc0000;fill-opacity:1;stroke:#000000;stroke-width:0.90277773;stroke-miterlimit:4;stroke-opacity:1;stroke-dasharray:none;display:inline" />
      <path
         sodipodi:nodetypes="ccccccccccccccccccccccccccccccc"
         id="path9871-5-2"
         d="m -252.5851,321.78134 c -4.55905,5.7268 -12.42726,8.5552 -22.18562,10.47695 -11.77503,1.85384 -14.31543,1.16617 -25.44644,1.84405 -10.40746,0.98127 -15.1145,3.36519 -21.30917,11.75921 4.42454,9.66366 15.7937,17.09159 28.64403,22.08259 4.03995,0.29113 8.37416,4.6444 7.45047,9.92254 l -5.59933,1.04195 c 0.69929,1.43341 3.53371,5.71324 4.5119,7.8864 0.92288,3.3436 0.52507,7.32773 -1.64114,11.27669 -2.58044,4.91226 -8.53078,11.43977 -17.68804,14.60287 2.32092,1.62131 6.62174,3.10249 12.38655,1.40666 -6.97333,4.38365 -14.10394,17.309 -22.26058,16.83949 2.87874,6.50582 11.89767,8.03868 15.9091,4.38457 -3.10132,12.96599 -12.91487,16.48732 -20.40627,22.6872 6.92164,0.11774 20.41814,1.93456 29.37234,-7.45641 2.45594,5.55868 1.18877,11.44312 -1.26735,17.43157 10.1411,-2.46173 15.05494,-10.40117 19.83053,-18.4855 3.3527,5.72156 9.76131,13.7702 21.24246,17.59572 -3.93872,-6.58788 -6.25065,-13.31807 -2.36499,-18.72263 5.79854,8.62922 16.43604,13.41092 24.31442,11.94258 -6.82391,-7.04391 -9.1071,-14.53449 -11.80325,-24.63066 0,0 6.9961,5.3493 14.21759,2.11895 -6.05653,-4.07655 -10.24949,-18.7939 -14.09107,-25.60588 3.20057,3.34373 10.83783,5.88711 15.89224,2.04947 -6.33634,-4.52558 -16.94055,-16.37111 -16.18432,-27.71668 3.0757,0.99536 10.57573,4.37402 15.11795,-6.16032 -15.03241,2.62177 -10.00542,-14.48919 -22.24377,-23.83521 3.36847,1.79601 13.04791,10.70744 18.32855,-4.40279 -16.93306,1.88636 -13.46982,-12.19983 -29.93395,-13.69221 3.65136,-2.15159 10.34451,-9.84467 7.20746,-16.64076 z"
         style="fill:#cc0000;fill-opacity:1;stroke:#000000;stroke-width:0.90277773;stroke-miterlimit:4;stroke-opacity:1;stroke-dasharray:none;display:inline"
         inkscape:connector-curvature="0" />
      <path
         id="path4405-2-9"
         class="fil2 str6"
         d="m -291.0425,364.54302 c 4.66583,-0.24861 8.05587,0.52804 10.02259,2.35508 2.05769,1.92704 3.62414,3.96494 4.69892,6.11279 1.30652,3.06971 1.85587,5.85702 1.50693,8.29901 0.34894,-2.44199 -0.20041,-5.2293 -1.50693,-8.29901 -1.07478,-2.14785 -2.64083,-4.18579 -4.69892,-6.11279 -1.96672,-1.82704 -5.35676,-2.60372 -10.02259,-2.35508 z"
         inkscape:connector-curvature="0"
         style="fill:#e6e6e6;stroke:#000000;stroke-width:0.90277773;stroke-miterlimit:4;stroke-opacity:1;stroke-dasharray:none;display:inline" />
      <path
         id="path7730-2-1"
         class="fil1 str8"
         d="m -321.13166,345.75949 c -10.97379,2.54317 -28.01818,16.09315 -11.41412,23.86808 -0.21599,-1.89434 -0.0298,-3.4289 0.438,-4.64265 0.78264,-1.6789 2.16801,-2.81861 4.27554,-3.37849 3.85258,-1.58042 8.69794,0.54299 14.10654,3.69091 5.14899,3.33072 14.24528,1.90295 20.85074,2.64689 2.41487,-7.30341 -20.56758,-13.16952 -28.2567,-22.18474 z"
         inkscape:connector-curvature="0"
         style="fill:#cc0000;fill-opacity:1;stroke:#000000;stroke-width:0.90277773;stroke-miterlimit:4;stroke-opacity:1;stroke-dasharray:none;display:inline" />
      <path
         id="path4205-8-46"
         class="fil6 str6"
         d="m -306.692,347.15042 c 4.2781,-1.68401 12.73954,1.21315 18.06736,-1.61024 -1.3884,3.20648 -2.06395,8.04003 -11.65476,8.54682 -4.96589,0.21433 -8.51054,-3.03455 -6.41261,-6.93662 z"
         inkscape:connector-curvature="0"
         style="fill:#ffffff;stroke:#000000;stroke-width:0.90277773;stroke-miterlimit:4;stroke-opacity:1;stroke-dasharray:none;display:inline" />
      <path
         id="path4211-7-5"
         class="fil2 str6"
         d="m -306.00969,346.93115 c -1.85852,0.30106 -3.20636,0.77451 -4.14947,1.38366"
         inkscape:connector-curvature="0"
         style="fill:#e6e6e6;stroke:#000000;stroke-width:0.90277773;stroke-miterlimit:4;stroke-opacity:1;stroke-dasharray:none;display:inline" />
      <path
         id="_38769760-00-9"
         class="fil4"
         d="m -302.41944,347.14263 c -1.68045,0.23027 -2.85701,1.7714 -2.62753,3.44232 0.22896,1.67045 1.77697,2.8379 3.45738,2.60714 1.68029,-0.23068 2.85683,-1.7719 2.6274,-3.44231 -0.22896,-1.67045 -1.77712,-2.83787 -3.45725,-2.60715 z"
         inkscape:connector-curvature="0"
         style="fill:#e6e6e6;stroke:#000000;stroke-width:0.90277773;stroke-miterlimit:4;stroke-opacity:1;stroke-dasharray:none;display:inline" />
      <path
         id="_38768336-4-15"
         class="fil0"
         d="m -303.30901,348.71451 c -0.86748,0.11903 -1.47504,0.91476 -1.35691,1.77706 0.11904,0.86275 0.91816,1.46533 1.78549,1.34627 0.8676,-0.11903 1.4746,-0.91474 1.3565,-1.77702 -0.11904,-0.86276 -0.91748,-1.46539 -1.78508,-1.34631 z"
         inkscape:connector-curvature="0"
         style="fill:#000000;stroke:#000000;stroke-width:0.90277773;stroke-miterlimit:4;stroke-opacity:1;stroke-dasharray:none;display:inline" />
      <path
         id="path4407-4-9"
         class="fil2 str6"
         d="m -268.74183,382.54495 c 2.08403,1.495 3.34447,3.08573 3.78269,4.77213 1.86899,-2.56443 2.12093,-5.40396 0.72467,-8.38997 1.39626,2.98601 1.14481,5.82498 -0.72467,8.38997 -0.43822,-1.6864 -1.69866,-3.27713 -3.78269,-4.77213 z"
         inkscape:connector-curvature="0"
         style="fill:#e6e6e6;stroke:#000000;stroke-width:0.90277773;stroke-miterlimit:4;stroke-opacity:1;stroke-dasharray:none;display:inline" />
      <path
         sodipodi:nodetypes="ccccc"
         id="path4409-6-1"
         class="fil2 str6"
         d="m -255.76899,395.49614 c 1.98363,1.61647 3.19375,3.46913 3.67117,5.62236 1.50888,-2.5998 1.97171,-5.2487 1.24441,-7.78504 0.7273,2.53634 0.26451,5.18523 -1.24441,7.78504 -0.47742,-2.15323 -1.68754,-4.00589 -3.67117,-5.62236 z"
         inkscape:connector-curvature="0"
         style="fill:#e6e6e6;stroke:#000000;stroke-width:0.90277773;stroke-miterlimit:4;stroke-opacity:1;stroke-dasharray:none;display:inline" />
      <path
         id="path4428-5-90"
         class="fil2 str6"
         d="m -284.84112,441.64394 c -2.45567,1.66152 -3.96254,3.45962 -4.52207,5.39442 -2.07816,-3.02327 -2.27851,-6.31191 -0.5705,-9.7175 -1.70801,3.40559 -1.50821,6.69428 0.5705,9.7175 0.55953,-1.9348 2.0664,-3.7329 4.52207,-5.39442 z"
         inkscape:connector-curvature="0"
         style="fill:#e6e6e6;stroke:#000000;stroke-width:0.90277773;stroke-miterlimit:4;stroke-opacity:1;stroke-dasharray:none;display:inline" />
      <path
         sodipodi:nodetypes="ccccc"
         id="path4430-3-77"
         class="fil2 str6"
         d="m -266.92773,438.95735 c 2.33378,1.21982 3.93582,2.8381 4.86234,4.90992 0.98416,-2.93256 0.9039,-5.69824 -0.35364,-8.10552 1.25754,2.40728 1.3378,5.17296 0.35364,8.10552 -0.92652,-2.07182 -2.52856,-3.6901 -4.86234,-4.90992 z"
         inkscape:connector-curvature="0"
         style="fill:#e6e6e6;stroke:#000000;stroke-width:0.90277773;stroke-miterlimit:4;stroke-opacity:1;stroke-dasharray:none;display:inline" />
      <path
         sodipodi:nodetypes="cccccc"
         id="path4442-3-9"
         class="fil2 str6"
         d="m -265.93038,407.48047 c -0.54056,2.18121 -3.12748,7.0756 1.59436,11.48853 0.28493,-1.56005 -0.42383,-1.99256 3.00584,-7.11918 m -4.6002,-4.36935 0,0 z"
         inkscape:connector-curvature="0"
         style="fill:none;stroke:#000000;stroke-width:0.90277773;stroke-miterlimit:4;stroke-opacity:1;stroke-dasharray:none;display:inline" />
      <path
         id="path4439-6-0"
         class="fil2 str6"
         d="m -260.57979,347.49821 c 2.11174,4.55494 1.64705,7.33932 -1.50995,8.56927 3.157,-1.22995 3.62169,-4.01433 1.50995,-8.56927 z"
         inkscape:connector-curvature="0"
         style="fill:#e6e6e6;stroke:#000000;stroke-width:0.90277773;stroke-miterlimit:4;stroke-opacity:1;stroke-dasharray:none;display:inline" />
      <path
         id="path4443-71-31"
         class="fil2 str6"
         d="m -267.30005,347.3357 c 3.41242,5.27269 3.0435,8.12034 -1.04801,8.43461 4.09151,-0.31418 4.46043,-3.16192 1.04801,-8.43461 z"
         inkscape:connector-curvature="0"
         style="fill:#e6e6e6;stroke:#000000;stroke-width:0.90277773;stroke-miterlimit:4;stroke-opacity:1;stroke-dasharray:none;display:inline" />
      <path
         id="path4470-0-1"
         class="fil2 str6"
         d="m -281.65282,414.70446 c -3.58076,2.83265 -5.07358,5.93451 -4.58211,9.35411 1.04255,-1.16236 2.29299,-1.74573 3.89014,-1.62636 -1.98224,2.27626 -2.70222,4.47734 -2.20819,6.54382 -0.49403,-2.06648 0.22649,-4.26761 2.20819,-6.54382 -1.59715,-0.11937 -2.8476,0.46393 -3.89014,1.62636 -0.49155,-3.41959 1.00135,-6.52146 4.58211,-9.35411 z"
         inkscape:connector-curvature="0"
         style="fill:#e6e6e6;stroke:#000000;stroke-width:0.90277773;stroke-miterlimit:4;stroke-opacity:1;stroke-dasharray:none;display:inline" />
      <path
         sodipodi:nodetypes="cccccc"
         id="path4442_27-4-88"
         class="fil2 str6"
         d="m -251.23748,416.93845 c 0.91106,2.05366 4.30861,6.42502 0.42523,11.59081 -0.55191,-1.48685 0.0709,-2.03636 -4.19668,-6.48906 m 3.77145,-5.10175 0,0 z"
         inkscape:connector-curvature="0"
         style="fill:none;stroke:#000000;stroke-width:0.90277773;stroke-miterlimit:4;stroke-opacity:1;stroke-dasharray:none;display:inline" />
      <path
         id="path4442_28-4-9"
         class="fil2 str6"
         d="m -281.18799,394.52039 c -0.42789,1.72474 -2.47323,5.5959 1.26101,9.0857 0.22541,-1.2336 -0.33541,-1.57584 2.37685,-5.63015 m -3.63786,-3.45555 0,0 0,0 z"
         inkscape:connector-curvature="0"
         style="fill:none;stroke:#000000;stroke-width:0.90277773;stroke-miterlimit:4;stroke-opacity:1;stroke-dasharray:none;display:inline" />
      <path
         id="path4442_30-5-8"
         class="fil2 str6"
         d="m -253.78786,364.11062 c 0.84746,1.90915 4.0051,5.97232 0.39539,10.7745 -0.51327,-1.38225 0.0657,-1.89266 -3.90121,-6.03197 m 3.50582,-4.74253 0,0 0,0 z"
         inkscape:connector-curvature="0"
         style="fill:none;stroke:#000000;stroke-width:0.90277773;stroke-miterlimit:4;stroke-opacity:1;stroke-dasharray:none;display:inline" />
      <path
         id="path7732-6-7"
         class="fil1 str9"
         d="m -317.13559,379.1917 c -1.09626,12.90779 23.14956,4.42378 30.60551,7.61325 l 2.03088,-8.87025 c -11.94412,-1.07945 -16.63971,7.05072 -32.63639,1.257 z"
         inkscape:connector-curvature="0"
         style="fill:#cc0000;fill-opacity:1;stroke:#000000;stroke-width:0.90277773;stroke-linejoin:round;stroke-miterlimit:4;stroke-opacity:1;stroke-dasharray:none;display:inline" />
    </g>
    <g
       id="g3115"
       transform="translate(-2,0)">
      <g
         style="fill:#cc0000;stroke:#000000;stroke-width:3;stroke-miterlimit:4;stroke-opacity:1;stroke-dasharray:none"
         transform="matrix(0.6216684,-0.6216684,0.6216684,0.6216684,-138.58682,342.18193)"
         id="g3098">
        <rect
           style="fill:#cc0000;fill-opacity:1;fill-rule:evenodd;stroke:#000000;stroke-width:3;stroke-miterlimit:4;stroke-opacity:1;stroke-dasharray:none"
           id="rect3096"
           width="21.752522"
           height="332.22034"
           x="291.9859"
           y="294.16214" />
        <g
           style="fill:#cc0000;stroke:#000000;stroke-width:3;stroke-miterlimit:4;stroke-opacity:1;stroke-dasharray:none"
           id="g4865"
           transform="matrix(0.78530958,0.61910328,-0.61910328,0.78530958,667.03871,149.43675)">
          <path
             style="fill:#cc0000;fill-opacity:1;stroke:#000000;stroke-width:3;stroke-linecap:round;stroke-linejoin:round;stroke-miterlimit:4;stroke-opacity:1;stroke-dasharray:none"
             d="m -237.03397,314.69682 -7.10999,-9.88477 c -16.99737,-6.46938 -27.27298,7.2658 -52.45308,10.17034 -69.97579,-0.40137 -49.35331,-43.31659 -90.11888,-97.20583 -7.43023,1.15079 -3.6744,12.12995 -4.24754,19.30561 l -34.90559,-44.58435 c 64.70163,4.11932 70.73672,59.458 91.44628,88.28234 20.71267,28.82433 80.5229,6.05887 72.52955,-12.75311 l -87.42574,-111.10259 c -4.45539,2.17134 -6.09708,12.24043 -8.75097,19.46893 l -16.32152,-63.69992 58.08888,30.88347 c -7.7859,0.66463 -17.85945,-0.45179 -20.99827,3.82954 l 86.8994,111.504 c 16.34462,12.26696 52.83558,-40.27684 29.81603,-67.29564 -23.01798,-27.01725 -75.34815,-46.20629 -63.83719,-110.009488 l 34.90559,44.571858 c -7.10372,-1.1637 -16.86256,-7.4418 -19.76091,-0.50411 42.54608,52.4976 89.16485,42.76323 72.76815,110.79569 -8.85317,23.74852 -24.6494,30.43124 -22.44441,48.48457 l 7.89279,9.27251 z"
             id="path12998"
             inkscape:connector-curvature="0" />
          <rect
             style="fill:#cc0000;fill-opacity:1;fill-rule:nonzero;stroke:#000000;stroke-width:3;stroke-linecap:round;stroke-linejoin:round;stroke-miterlimit:4;stroke-opacity:1;stroke-dasharray:none"
             height="26.49407"
             x="349.02756"
             y="134.93839"
             stroke-miterlimit="4"
             width="24.123009"
             transform="matrix(-0.79782387,0.6028906,0.60285221,0.79785288,0,0)"
             ry="3.7943165"
             id="rect4373" />
          <rect
             style="fill:#cc0000;fill-opacity:1;fill-rule:nonzero;stroke:#000000;stroke-width:3;stroke-linecap:round;stroke-linejoin:round;stroke-miterlimit:4;stroke-opacity:1;stroke-dasharray:none"
             height="28.890274"
             x="341.50327"
             y="102.29749"
             stroke-miterlimit="4"
             width="43.107494"
             transform="matrix(-0.79350065,0.60856941,0.60854453,0.79351972,0,0)"
             ry="12.932528"
             id="rect4332" />
          <rect
             style="fill:#cc0000;fill-opacity:1;fill-rule:nonzero;stroke:#000000;stroke-width:3;stroke-linecap:round;stroke-linejoin:round;stroke-miterlimit:4;stroke-opacity:1;stroke-dasharray:none"
             height="8.8137264"
             x="341.91165"
             y="101.93085"
             stroke-miterlimit="4"
             width="42.510864"
             transform="matrix(-0.79350065,0.60856941,0.60854453,0.79351972,0,0)"
             ry="4.1774597"
             id="rect4290" />
          <rect
             style="fill:#cc0000;fill-opacity:1;fill-rule:nonzero;stroke:#000000;stroke-width:3;stroke-linecap:round;stroke-linejoin:round;stroke-miterlimit:4;stroke-opacity:1;stroke-dasharray:none"
             height="8.7822132"
             x="346.67462"
             y="130.72131"
             stroke-miterlimit="4"
             width="31.074881"
             transform="matrix(-0.79350065,0.60856941,0.60854453,0.79351972,0,0)"
             ry="3.7943153"
             id="rect4371" />
        </g>
      </g>
      <g
         id="g3165"
         transform="matrix(-0.6216684,-0.6216684,-0.6216684,0.6216684,742.58683,342.18193)"
         style="fill:#cc0000;stroke:#000000;stroke-width:3;stroke-miterlimit:4;stroke-opacity:1;stroke-dasharray:none">
        <rect
           y="294.16214"
           x="291.9859"
           height="332.22034"
           width="21.752522"
           id="rect3167"
           style="fill:#cc0000;fill-opacity:1;fill-rule:evenodd;stroke:#000000;stroke-width:3;stroke-miterlimit:4;stroke-opacity:1;stroke-dasharray:none" />
        <g
           transform="matrix(0.78530958,0.61910328,-0.61910328,0.78530958,667.03871,149.43675)"
           id="g3169"
           style="fill:#cc0000;stroke:#000000;stroke-width:3;stroke-miterlimit:4;stroke-opacity:1;stroke-dasharray:none">
          <path
             inkscape:connector-curvature="0"
             id="path3171"
             d="m -237.03397,314.69682 -7.10999,-9.88477 c -16.99737,-6.46938 -27.27298,7.2658 -52.45308,10.17034 -69.97579,-0.40137 -49.35331,-43.31659 -90.11888,-97.20583 -7.43023,1.15079 -3.6744,12.12995 -4.24754,19.30561 l -34.90559,-44.58435 c 64.70163,4.11932 70.73672,59.458 91.44628,88.28234 20.71267,28.82433 80.5229,6.05887 72.52955,-12.75311 l -87.42574,-111.10259 c -4.45539,2.17134 -6.09708,12.24043 -8.75097,19.46893 l -16.32152,-63.69992 58.08888,30.88347 c -7.7859,0.66463 -17.85945,-0.45179 -20.99827,3.82954 l 86.8994,111.504 c 16.34462,12.26696 52.83558,-40.27684 29.81603,-67.29564 -23.01798,-27.01725 -75.34815,-46.20629 -63.83719,-110.009488 l 34.90559,44.571858 c -7.10372,-1.1637 -16.86256,-7.4418 -19.76091,-0.50411 42.54608,52.4976 89.16485,42.76323 72.76815,110.79569 -8.85317,23.74852 -24.6494,30.43124 -22.44441,48.48457 l 7.89279,9.27251 z"
             style="fill:#cc0000;fill-opacity:1;stroke:#000000;stroke-width:3;stroke-linecap:round;stroke-linejoin:round;stroke-miterlimit:4;stroke-opacity:1;stroke-dasharray:none" />
          <rect
             id="rect3173"
             ry="3.7943165"
             transform="matrix(-0.79782387,0.6028906,0.60285221,0.79785288,0,0)"
             width="24.123009"
             stroke-miterlimit="4"
             y="134.93839"
             x="349.02756"
             height="26.49407"
             style="fill:#cc0000;fill-opacity:1;fill-rule:nonzero;stroke:#000000;stroke-width:3;stroke-linecap:round;stroke-linejoin:round;stroke-miterlimit:4;stroke-opacity:1;stroke-dasharray:none" />
          <rect
             id="rect3175"
             ry="12.932528"
             transform="matrix(-0.79350065,0.60856941,0.60854453,0.79351972,0,0)"
             width="43.107494"
             stroke-miterlimit="4"
             y="102.29749"
             x="341.50327"
             height="28.890274"
             style="fill:#cc0000;fill-opacity:1;fill-rule:nonzero;stroke:#000000;stroke-width:3;stroke-linecap:round;stroke-linejoin:round;stroke-miterlimit:4;stroke-opacity:1;stroke-dasharray:none" />
          <rect
             id="rect3177"
             ry="4.1774597"
             transform="matrix(-0.79350065,0.60856941,0.60854453,0.79351972,0,0)"
             width="42.510864"
             stroke-miterlimit="4"
             y="101.93085"
             x="341.91165"
             height="8.8137264"
             style="fill:#cc0000;fill-opacity:1;fill-rule:nonzero;stroke:#000000;stroke-width:3;stroke-linecap:round;stroke-linejoin:round;stroke-miterlimit:4;stroke-opacity:1;stroke-dasharray:none" />
          <rect
             id="rect3179"
             ry="3.7943153"
             transform="matrix(-0.79350065,0.60856941,0.60854453,0.79351972,0,0)"
             width="31.074881"
             stroke-miterlimit="4"
             y="130.72131"
             x="346.67462"
             height="8.7822132"
             style="fill:#cc0000;fill-opacity:1;fill-rule:nonzero;stroke:#000000;stroke-width:3;stroke-linecap:round;stroke-linejoin:round;stroke-miterlimit:4;stroke-opacity:1;stroke-dasharray:none" />
        </g>
      </g>
    </g>
  </g>
  <g
     inkscape:groupmode="layer"
     id="layer1"
     inkscape:label="Cover"
     style="display:inline"
     sodipodi:insensitive="true">
    <path
       d="m 2,2 v 257 c 0,286 298,398 298,398 0,0 298,-112 298,-398 V 2 z"
       id="shine"
       inkscape:connector-curvature="0"
       style="fill:url(#radialGradient3074);stroke:#000000;stroke-width:3" />
  </g>
</svg>
