<?xml version="1.0" encoding="UTF-8" standalone="no"?>
<svg
   xmlns:dc="http://purl.org/dc/elements/1.1/"
   xmlns:cc="http://creativecommons.org/ns#"
   xmlns:rdf="http://www.w3.org/1999/02/22-rdf-syntax-ns#"
   xmlns:svg="http://www.w3.org/2000/svg"
   xmlns="http://www.w3.org/2000/svg"
   xmlns:xlink="http://www.w3.org/1999/xlink"
   xmlns:sodipodi="http://sodipodi.sourceforge.net/DTD/sodipodi-0.dtd"
   xmlns:inkscape="http://www.inkscape.org/namespaces/inkscape"
   width="600"
   height="660"
   id="svg2"
   version="1.1"
   inkscape:version="0.48.2 r9819"
   sodipodi:docname="House_Pommingham.svg">
  <metadata
     id="metadata24">
    <rdf:RDF>
      <cc:Work
         rdf:about="">
        <dc:format>image/svg+xml</dc:format>
        <dc:type
           rdf:resource="http://purl.org/dc/dcmitype/StillImage" />
        <dc:title></dc:title>
      </cc:Work>
    </rdf:RDF>
  </metadata>
  <sodipodi:namedview
     pagecolor="#ffffff"
     bordercolor="#666666"
     borderopacity="1"
     objecttolerance="10"
     gridtolerance="10"
     guidetolerance="10"
     inkscape:pageopacity="0"
     inkscape:pageshadow="2"
     inkscape:window-width="1366"
     inkscape:window-height="715"
     id="namedview22"
     showgrid="false"
     inkscape:zoom="0.50568851"
     inkscape:cx="197.01592"
     inkscape:cy="347.50484"
     inkscape:window-x="-8"
     inkscape:window-y="-8"
     inkscape:window-maximized="1"
     inkscape:current-layer="layer2" />
  <defs
     id="defs4">
    <inkscape:path-effect
       is_visible="true"
       id="path-effect3136"
       effect="spiro" />
    <inkscape:path-effect
       effect="spiro"
       id="path-effect3132"
       is_visible="true" />
    <inkscape:path-effect
       effect="spiro"
       id="path-effect3101"
       is_visible="true" />
    <inkscape:path-effect
       is_visible="true"
       id="path-effect3085"
       effect="spiro" />
    <inkscape:path-effect
       is_visible="true"
       id="path-effect3083"
       effect="spiro" />
    <inkscape:path-effect
       is_visible="true"
       id="path-effect3081"
       effect="spiro" />
    <inkscape:path-effect
       is_visible="true"
       id="path-effect3079"
       effect="spiro" />
    <inkscape:path-effect
       is_visible="true"
       id="path-effect3077"
       effect="spiro" />
    <inkscape:path-effect
       is_visible="true"
       id="path-effect3075"
       effect="spiro" />
    <inkscape:path-effect
       effect="spiro"
       id="path-effect3049"
       is_visible="true" />
    <inkscape:path-effect
       is_visible="true"
       id="path-effect3045"
       effect="spiro" />
    <inkscape:path-effect
       effect="spiro"
       id="path-effect3041"
       is_visible="true" />
    <radialGradient
       id="rg"
       gradientUnits="userSpaceOnUse"
       cx="220"
       cy="220"
       r="405">
      <stop
         style="stop-color:#fff;stop-opacity:.3"
         offset="0"
         id="stop7" />
      <stop
         style="stop-color:#fff;stop-opacity:.2"
         offset=".2"
         id="stop9" />
      <stop
         style="stop-color:#666;stop-opacity:.1"
         offset=".6"
         id="stop11" />
      <stop
         style="stop-color:#000;stop-opacity:.13"
         offset="1"
         id="stop13" />
    </radialGradient>
    <path
       id="shield"
       d="m2,2v257c0,286 298,398 298,398c0,0 298-112 298-398V2z" />
    <radialGradient
       inkscape:collect="always"
       xlink:href="#rg-7"
       id="radialGradient3055-1"
       gradientUnits="userSpaceOnUse"
       cx="220"
       cy="220"
       r="405" />
    <radialGradient
       id="rg-7"
       gradientUnits="userSpaceOnUse"
       cx="220"
       cy="220"
       r="405">
      <stop
         style="stop-color:#fff;stop-opacity:.3"
         offset="0"
         id="stop7-4" />
      <stop
         style="stop-color:#fff;stop-opacity:.2"
         offset=".2"
         id="stop9-0" />
      <stop
         style="stop-color:#666;stop-opacity:.1"
         offset=".6"
         id="stop11-9" />
      <stop
         style="stop-color:#000;stop-opacity:.13"
         offset="1"
         id="stop13-4" />
    </radialGradient>
    <radialGradient
       r="405"
       cy="220"
       cx="220"
       gradientUnits="userSpaceOnUse"
       id="radialGradient3074"
       xlink:href="#rg-7"
       inkscape:collect="always" />
    <inkscape:path-effect
       is_visible="true"
       id="path-effect10120-1"
       effect="spiro" />
    <inkscape:path-effect
       effect="spiro"
       id="path-effect10118-3"
       is_visible="true" />
    <inkscape:path-effect
       effect="spiro"
       id="path-effect10116-9"
       is_visible="true" />
    <inkscape:path-effect
       effect="spiro"
       id="path-effect10114-7"
       is_visible="true" />
    <inkscape:path-effect
       effect="spiro"
       id="path-effect10112-7"
       is_visible="true" />
    <inkscape:path-effect
       effect="spiro"
       id="path-effect10110-2"
       is_visible="true" />
    <linearGradient
       inkscape:collect="always"
       xlink:href="#linearGradient4719-5"
       id="linearGradient4039"
       gradientUnits="userSpaceOnUse"
       gradientTransform="matrix(2.3257341,0,0,2.2943177,447.69485,-1820.2799)"
       x1="-145.25935"
       y1="984.24286"
       x2="-64.14286"
       y2="984.14789" />
    <linearGradient
       inkscape:collect="always"
       id="linearGradient4719-5">
      <stop
         style="stop-color:#666666;stop-opacity:1;"
         offset="0"
         id="stop4721-5" />
      <stop
         id="stop4809-1"
         offset="0.39344174"
         style="stop-color:#666666;stop-opacity:0.74901961;" />
      <stop
         style="stop-color:#666666;stop-opacity:0;"
         offset="1"
         id="stop4723-7" />
    </linearGradient>
    <radialGradient
       inkscape:collect="always"
       xlink:href="#linearGradient4801-8"
       id="radialGradient4041"
       gradientUnits="userSpaceOnUse"
       gradientTransform="matrix(-0.72153181,1.2650715,-2.2729984,-1.2616144,1712.0113,1733.7841)"
       cx="-307.14288"
       cy="782.36218"
       fx="-307.14288"
       fy="782.36218"
       r="63" />
    <linearGradient
       inkscape:collect="always"
       id="linearGradient4801-8">
      <stop
         style="stop-color:#000000;stop-opacity:1;"
         offset="0"
         id="stop4803-2" />
      <stop
         style="stop-color:#000000;stop-opacity:0;"
         offset="1"
         id="stop4805-4" />
    </linearGradient>
    <inkscape:path-effect
       effect="spiro"
       id="path-effect10108-4"
       is_visible="true" />
    <linearGradient
       inkscape:collect="always"
       xlink:href="#linearGradient4719-5"
       id="linearGradient4044"
       gradientUnits="userSpaceOnUse"
       gradientTransform="matrix(-2.4055369,0,0,-1.6485021,142.06168,1726.5307)"
       x1="-145.25935"
       y1="984.24286"
       x2="-64.14286"
       y2="984.14789" />
    <radialGradient
       inkscape:collect="always"
       xlink:href="#linearGradient4801-8"
       id="radialGradient4046"
       gradientUnits="userSpaceOnUse"
       gradientTransform="matrix(0.74628962,-0.90897301,2.3509914,0.90648896,-1165.637,-827.11785)"
       cx="-307.14288"
       cy="782.36218"
       fx="-307.14288"
       fy="782.36218"
       r="63" />
    <inkscape:path-effect
       effect="spiro"
       id="path-effect10102-7"
       is_visible="true" />
    <linearGradient
       inkscape:collect="always"
       xlink:href="#linearGradient4719-5"
       id="linearGradient4049"
       gradientUnits="userSpaceOnUse"
       gradientTransform="matrix(2.334989,0,0,-1.6146975,449.44065,1692.189)"
       x1="-145.25935"
       y1="984.24286"
       x2="-64.14286"
       y2="984.14789" />
    <radialGradient
       inkscape:collect="always"
       xlink:href="#linearGradient4801-8"
       id="radialGradient4051"
       gradientUnits="userSpaceOnUse"
       gradientTransform="matrix(-0.72440295,-0.89033332,-2.2820431,0.88790031,1718.7881,-809.09364)"
       cx="-307.14288"
       cy="782.36218"
       fx="-307.14288"
       fy="782.36218"
       r="63" />
    <inkscape:path-effect
       is_visible="true"
       id="path-effect10096-8"
       effect="spiro" />
    <linearGradient
       inkscape:collect="always"
       xlink:href="#linearGradient4719-5"
       id="linearGradient4054"
       gradientUnits="userSpaceOnUse"
       gradientTransform="matrix(-2.409599,0,0,2.2818507,139.61083,-1810.8163)"
       x1="-145.25935"
       y1="984.24286"
       x2="-64.14286"
       y2="984.14789" />
    <radialGradient
       inkscape:collect="always"
       xlink:href="#linearGradient4801-8"
       id="radialGradient4056"
       gradientUnits="userSpaceOnUse"
       gradientTransform="matrix(0.74754985,1.2581972,2.3549614,-1.2547588,-1170.296,1723.935)"
       cx="-307.14288"
       cy="782.36218"
       fx="-307.14288"
       fy="782.36218"
       r="63" />
    <inkscape:path-effect
       is_visible="true"
       id="path-effect10090-3"
       effect="spiro" />
    <inkscape:path-effect
       effect="spiro"
       id="path-effect10084-1"
       is_visible="true" />
    <inkscape:path-effect
       effect="spiro"
       id="path-effect10082-1"
       is_visible="true" />
    <radialGradient
       inkscape:collect="always"
       xlink:href="#linearGradient4801-8"
       id="radialGradient4061"
       gradientUnits="userSpaceOnUse"
       gradientTransform="matrix(-0.76516322,1.2901254,-2.4104477,-1.2865998,1806.8444,1757.4704)"
       cx="-307.14288"
       cy="782.36218"
       fx="-307.14288"
       fy="782.36218"
       r="63" />
    <inkscape:path-effect
       effect="spiro"
       id="path-effect10080-4"
       is_visible="true" />
    <inkscape:path-effect
       is_visible="true"
       id="path-effect3075-1"
       effect="spiro" />
    <inkscape:path-effect
       effect="spiro"
       id="path-effect3101-7"
       is_visible="true" />
    <linearGradient
       inkscape:collect="always"
       xlink:href="#grad1-7-7"
       id="linearGradient3085-8-8"
       gradientUnits="userSpaceOnUse"
       gradientTransform="matrix(0.77469594,0,0,0.30982404,152.68996,-13.619206)"
       x1="78.877235"
       y1="178.07356"
       x2="301.40585"
       y2="178.07356" />
    <linearGradient
       id="grad1-7-7"
       x1="78.877235"
       y1="178.07356"
       x2="301.40585"
       y2="178.07356"
       gradientTransform="scale(1.577772,0.63380513)"
       gradientUnits="userSpaceOnUse">
      <stop
         offset="0%"
         style="stop-color:#da0;"
         id="stop16-4-4" />
      <stop
         offset="40%"
         style="stop-color:#fd0;"
         id="stop18-0-0" />
      <stop
         offset="60%"
         style="stop-color:#fd0;"
         id="stop20-9-9" />
      <stop
         offset="100%"
         style="stop-color:#da0;"
         id="stop22-4-4" />
    </linearGradient>
    <linearGradient
       inkscape:collect="always"
       xlink:href="#grad1-7-7"
       id="linearGradient3081-8-8"
       gradientUnits="userSpaceOnUse"
       gradientTransform="matrix(0.77469594,0,0,0.30982404,-27.310046,-13.619206)"
       x1="78.877235"
       y1="178.07356"
       x2="301.40585"
       y2="178.07356" />
    <linearGradient
       id="linearGradient3093"
       x1="78.877235"
       y1="178.07356"
       x2="301.40585"
       y2="178.07356"
       gradientTransform="scale(1.577772,0.63380513)"
       gradientUnits="userSpaceOnUse">
      <stop
         offset="0%"
         style="stop-color:#da0;"
         id="stop3095" />
      <stop
         offset="40%"
         style="stop-color:#fd0;"
         id="stop3097" />
      <stop
         offset="60%"
         style="stop-color:#fd0;"
         id="stop3099" />
      <stop
         offset="100%"
         style="stop-color:#da0;"
         id="stop3101" />
    </linearGradient>
    <linearGradient
       y2="178.07356"
       x2="301.40585"
       y1="178.07356"
       x1="78.877235"
       gradientTransform="matrix(0.77469594,0,0,0.30982404,332.68995,-13.619206)"
       gradientUnits="userSpaceOnUse"
       id="linearGradient3128-1"
       xlink:href="#grad1-7-7"
       inkscape:collect="always" />
    <linearGradient
       id="linearGradient3104"
       x1="78.877235"
       y1="178.07356"
       x2="301.40585"
       y2="178.07356"
       gradientTransform="scale(1.577772,0.63380513)"
       gradientUnits="userSpaceOnUse">
      <stop
         offset="0%"
         style="stop-color:#da0;"
         id="stop3106" />
      <stop
         offset="40%"
         style="stop-color:#fd0;"
         id="stop3108" />
      <stop
         offset="60%"
         style="stop-color:#fd0;"
         id="stop3110" />
      <stop
         offset="100%"
         style="stop-color:#da0;"
         id="stop3112" />
    </linearGradient>
  </defs>
  <g
     inkscape:groupmode="layer"
     id="layer2"
     inkscape:label="Elements"
     style="display:inline">
    <path
       inkscape:connector-curvature="0"
       style="fill:#ffffff"
       d="m 2,2 0,257 c 0,286 298,398 298,398 0,0 298,-112 298,-398 L 598,2 2,2 z"
       id="rect18" />
    <path
       style="fill:#90ee90"
       inkscape:connector-curvature="0"
       id="path20"
       d="M 100,0 300,510 500,0 z" />
    <g
       transform="translate(-71.527061,-202.2045)"
       id="g4227">
      <path
         style="fill:#884411;fill-rule:evenodd;stroke:#000000;stroke-width:0.97868991;stroke-linecap:butt;stroke-linejoin:miter;stroke-opacity:1"
         d="m 375.05141,399.67469 c -1.95376,14.41516 1.41837,40.29103 1.41837,61.08643 -1.78392,25.55458 -4.93067,51.19544 -1.41837,76.79439 2.41103,11.86722 13.80347,3.61686 15.60208,-5.23599 -4.54333,-44.95803 -4.54698,-88.09727 -8.51024,-132.64483 0,-2.90888 -4.72788,0 -7.09184,0 z"
         id="path30285"
         sodipodi:nodetypes="cccccc"
         inkscape:connector-curvature="0" />
      <g
         id="g30278"
         transform="matrix(0.3087102,0,0,0.37671576,581.05446,172.80549)"
         style="fill:#008f4c;fill-opacity:1;stroke:#000000;stroke-width:2.86987329;stroke-opacity:1">
        <path
           sodipodi:nodetypes="csssssscscsssscscsccsscscscsccscscccsccccccscscscscccscsscccscscscccscscscccsssscscscscscsssscsssscscsscsssssssscsssccsscscsscsscsscscsscsccccsscsscsscsscscscssscsccsssccssssccssccssccssccsccsccsccsccscccscscscccscscscsccsscscsccccssssccsccscccccsccccccsccccsscsccccccccscc"
           id="path30276"
           d="m -608.40934,275.82756 c 15.9814,3.08095 18.51803,1.60372 27.53125,8.84375 11.11874,8.93129 19.1961,18.09964 34.875,25.65625 11.57102,5.57676 83.86811,18.05168 66.0625,15.90625 -21.75293,-2.621 -55.4037,-7.39138 -55.0625,-7.0625 2.83761,2.73523 17.32731,8.33067 25.71875,12.375 14.34142,6.91197 22.95562,13.55647 40.375,18.59375 9.23587,2.67079 20.23832,4.67896 31.09375,6.1875 -21.48352,-0.006 -45.98783,-2.10253 -65.96875,-5.3125 -12.44746,-1.99972 -24.37297,-4.47988 -36.28125,-6.8125 24.07637,5.94054 65.89919,13.31476 51.875,11.625 -21.75294,-2.621 -55.43493,-7.39136 -55.09375,-7.0625 2.83761,2.73523 17.3273,8.33069 25.71875,12.375 14.34142,6.91197 22.95564,13.55649 40.375,18.59375 9.23587,2.67079 20.23832,4.67896 31.09375,6.1875 -21.47627,-0.008 -45.99724,-2.10402 -65.96875,-5.3125 -2.99746,-0.48155 -5.96276,-1.00189 -8.90625,-1.53125 23.7651,6.00133 67.80467,13.75859 53.46875,12.03125 -18.14907,-2.18677 -44.31196,-5.83971 -52.375,-6.8125 0.59404,0.83307 1.19033,1.66918 1.78125,2.5 5.70859,2.89642 15.10265,6.66223 21.25,9.625 14.34142,6.91197 22.95569,13.55652 40.375,18.59375 9.23587,2.67079 20.23832,4.67896 31.09375,6.1875 -21.48353,-0.006 -45.98784,-2.10248 -65.96875,-5.3125 -0.51461,-0.0827 -1.01841,-0.1657 -1.53125,-0.25 0.35444,0.28491 0.70007,0.56159 1.0625,0.84375 0.22002,0.17128 0.51831,0.35212 0.78125,0.53125 13.64931,2.77156 22.92882,4.60894 15.28125,3.6875 -3.43875,-0.41433 -7.42886,-0.94374 -11.28125,-1.4375 11.51515,5.74064 36.16295,13.74854 51.3125,18.71875 10.6396,0.69599 22.1841,1.85682 30.8125,2.90625 4.74874,0.57758 -7.68513,0.46635 -25.25,-1.0625 6.56555,2.20096 9.62746,3.36601 4.375,2.34375 -5.71682,-1.11264 -12.22199,-2.43027 -18.75,-3.8125 -2.53367,-0.30318 -5.07745,-0.67029 -7.65625,-1.03125 0.9865,0 2.09093,0.042 3.15625,0.0625 -16.60276,-3.54715 -31.97991,-6.98299 -31.75,-6.625 0.25698,0.40011 0.62776,0.84159 1.0625,1.3125 8.3992,2.21434 17.97654,3.92326 27.4375,5.25 -7.14079,-0.002 -14.6208,-0.25241 -22.15625,-0.6875 3.42124,2.64792 7.62229,5.61184 11.6875,8.5 8.8093,2.39897 19.00265,4.25392 29.09375,5.65625 -7.19721,-0.003 -14.74976,-0.25318 -22.34375,-0.6875 0.28258,0.21561 0.60447,0.44564 0.875,0.65625 9.45385,7.35982 16.44943,14.48773 25.09375,20.84375 9.02094,0.69188 18.19528,1.63491 25.375,2.5 4.57547,0.55128 -6.61546,0.49177 -23.0625,-0.84375 3.84205,2.66012 8.05032,5.17133 12.96875,7.46875 9.18933,4.29236 20.13547,7.56841 30.9375,10 -21.43738,-0.0226 -45.88542,-3.39136 -65.8125,-8.5625 -15.70334,-4.07504 -30.56473,-9.412 -45.625,-13.90625 -7.46208,-0.76026 -14.69293,-1.69647 -21.46875,-2.75 0.60893,0.5172 1.24171,1.02249 1.875,1.53125 11.80283,2.39438 19.00565,3.87912 11.96875,3.03125 -2.89493,-0.34881 -6.2916,-0.77918 -9.5,-1.1875 15.08444,9.39967 81.76221,28.02891 64.59375,24.6875 -21.73643,-4.23047 -55.37221,-11.93707 -55.03125,-11.40625 1.93858,3.0184 9.31947,8.18601 16.46875,13.25 7.95802,1.96163 16.82188,3.50013 25.59375,4.71875 -6.38573,-0.002 -13.05717,-0.18627 -19.78125,-0.53125 1.20338,0.88078 2.35811,1.74652 3.40625,2.5625 9.45048,7.35725 16.42237,14.48939 25.0625,20.84375 9.03097,0.69211 18.21827,1.63392 25.40625,2.5 4.57576,0.55134 -6.64497,0.49202 -23.09375,-0.84375 3.84473,2.66269 8.04606,5.16935 12.96875,7.46875 6.63596,3.09968 14.21521,5.64986 21.96875,7.75 -5.28812,46.06814 -54.00353,83.55688 -97.90625,99.8125 5.15977,4.53464 9.96426,8.89747 15.40625,12.9375 8.9419,0.69206 18.03932,1.60315 25.15625,2.46875 4.53327,0.55137 -6.57962,0.49193 -22.875,-0.84375 3.8143,2.66789 7.95847,5.19656 12.84375,7.5 9.10424,4.2927 19.95423,7.5369 30.65625,9.96875 -21.23188,-0.0261 -45.4543,-3.39344 -65.1875,-8.5625 -15.55826,-4.07544 -30.26638,-9.41152 -45.1875,-13.90625 -5.51492,-0.56725 -10.91734,-1.23316 -16.09375,-1.96875 -1.29278,0.14008 -2.5706,0.29563 -3.75,0.40625 0.48173,0.39564 0.9407,0.79709 1.4375,1.1875 11.45562,9.00231 83.06555,29.18198 65.4375,25.71875 -21.53599,-4.23097 -54.86905,-11.96841 -54.53125,-11.4375 2.8093,4.41537 17.12974,13.47144 25.4375,20 9.36334,7.35812 16.28329,14.51989 24.84375,20.875 8.94191,0.69205 18.03932,1.60314 25.15625,2.46875 4.53601,0.55169 -6.56357,0.49427 -22.875,-0.84375 3.8143,2.66789 7.9897,5.19655 12.875,7.5 9.14808,4.31338 20.02915,7.56446 30.78125,10 -21.26895,-0.01 -45.53126,-3.41213 -65.3125,-8.59375 -15.57976,-4.08108 -30.33899,-9.40764 -45.28125,-13.90625 -7.99502,-0.82348 -15.76686,-1.83717 -22.9375,-3 -3.9316,-0.63758 -7.81433,-1.34626 -11.65625,-2.0625 -5.88952,2.04644 -11.43163,6.0312 -16.46875,9 -10.65574,6.2803 -37.86143,19.3228 -49.0625,22.84375 -20.26252,6.36926 -60.36856,4.01358 -83.59375,1.40625 -28.13876,-3.15895 -5.96173,-8.44846 9.09375,-11.40625 11.4502,-2.24952 23.14974,-12.80252 34.59375,-19.3125 -10.67414,3.17647 -22.08016,6.26895 -28.40625,7.5 -20.27789,3.94609 -60.41341,2.49038 -83.65621,0.875 -28.1601,-1.95714 -5.9732,-5.23 9.0937,-7.0625 15.7284,-1.91298 31.9113,-13.56701 47.28126,-15.0625 17.31762,-1.68501 26.33645,-3.11089 36.0625,-6.6875 -0.75227,-0.0802 -1.52916,-0.16908 -2.25,-0.25 -4.10208,-0.46051 -7.10832,-0.96207 -9.25,-1.5 -16.95423,2.19235 -40.48076,4.65022 -33.65626,0.5 4.7787,-2.90603 17.95388,-13.95283 23.65626,-15.0625 6.71519,-1.30679 12.65795,-2.97427 18,-5.25 -21.17742,1.36296 -49.16706,0.21685 -67.12496,-1.03125 -28.1601,-1.95714 -5.9733,-5.22998 9.0937,-7.0625 15.7284,-1.91298 31.91128,-13.56699 47.28126,-15.0625 24.46647,-2.3806 32.37148,-4.23953 49.09375,-12.375 7.88109,-3.83415 32.57261,-14.75336 23.65625,-11.5 -9.79641,3.57448 -21.79836,11.474 -32.75,13.25 -5.54674,0.8995 -58.91726,8.63025 -49.09375,2.65625 4.77875,-2.90603 17.92257,-13.92157 23.625,-15.03125 3.87294,-0.75368 7.47795,-1.64011 10.875,-2.6875 -18.88558,0.42758 -40.27213,-0.54323 -54.93751,-1.5625 -28.1601,-1.95714 -5.9731,-5.22997 9.09376,-7.0625 15.72845,-1.91298 31.91125,-13.56698 47.28125,-15.0625 18.45636,-1.79581 27.52611,-3.28249 38.03125,-7.40625 1.01381,-1.26717 1.8849,-2.37437 2.65625,-3.3125 -0.21831,0.04 -0.43873,0.0897 -0.65625,0.125 -5.54665,0.8995 -58.94858,8.63026 -49.125,2.65625 3.28532,-1.9979 10.53169,-7.84336 16.59375,-11.65625 -2.74418,-0.25613 -5.39321,-0.54091 -7.8125,-0.8125 -15.71377,-1.76408 -15.72633,-4.21025 -10.0625,-6.53125 -14.1394,-0.179 -28.21381,-0.83278 -38.8125,-1.5625 -28.42221,-1.95691 -6.05091,-5.26144 9.15625,-7.09375 6.22238,-0.74974 12.52526,-2.99081 18.8125,-5.53125 -16.86302,0.0794 -34.70876,-0.73819 -47.46876,-1.625 -28.1601,-1.95714 -5.9732,-5.22996 9.0938,-7.0625 8.0523,-0.97938 16.22189,-4.52738 24.34371,-7.9375 -1.91934,-0.11617 -3.91051,-0.22355 -5.65625,-0.34375 -28.42216,-1.95691 -6.05089,-5.26146 9.15625,-7.09375 6.26187,-0.75449 12.61045,-3.00219 18.9375,-5.5625 -7.52108,0.4213 -12.09285,0.0342 -8.59375,-2.09375 1.9189,-1.16693 5.18457,-3.63227 8.78125,-6.25 -5.23513,-0.25304 -10.24966,-0.51556 -14.5625,-0.8125 -28.42221,-1.95691 -6.01968,-5.26143 9.1875,-7.09375 14.86235,-1.79077 30.1326,-12.1215 44.75,-14.65625 1.50314,-0.78632 2.8271,-1.35446 3.90625,-1.5625 2.44262,-0.4709 4.78004,-1.01389 7.03125,-1.59375 1.11347,-1.06789 2.23858,-2.15156 3.3125,-3.28125 -4.05439,0.1425 -8.26297,0.20354 -12.53125,0.21875 -2.91717,0.14419 -5.36595,0.17653 -6.96875,0 -14.66974,-0.14481 -29.40976,-0.86789 -40.40625,-1.625 -28.42217,-1.95691 -6.01971,-5.26145 9.1875,-7.09375 11.12222,-1.34012 22.45957,-7.41564 33.59375,-11.46875 -8.80017,-0.31264 -17.11126,-0.74876 -23.9375,-1.21875 -28.42219,-1.95691 -6.0509,-5.23017 9.15625,-7.0625 5.55909,-0.66981 11.19503,-2.54917 16.8125,-4.75 -15.13568,-0.0992 -30.5191,-0.83574 -41.875,-1.625 -28.16008,-1.95714 -5.97317,-5.26121 9.09375,-7.09375 8.47278,-1.03051 17.08523,-4.83858 25.625,-8.40625 -3.76081,-0.20158 -7.31573,-0.43486 -10.53125,-0.65625 -28.42218,-1.95691 -6.05089,-5.23019 9.15625,-7.0625 5.48731,-0.66116 11.04887,-2.49263 16.59375,-4.65625 -3.63574,-0.11023 -5.08973,-0.73889 -2.65625,-2.21875 4.72193,-2.87153 17.59876,-13.64211 23.40625,-14.96875 0.0493,-0.3092 0.44414,-0.68959 1.21875,-1.15625 1.56718,-0.94415 4.06967,-2.77264 6.875,-4.8125 -21.79797,2.26545 -54.95626,0.99531 -75.3125,-0.40625 -28.42218,-1.95691 -6.05089,-5.23022 9.15625,-7.0625 15.87483,-1.91275 32.23693,-13.56718 47.75,-15.0625 22.93319,-2.21058 31.4445,-3.99322 46.0625,-10.75 -4.00842,1.03072 -7.59638,1.89467 -10.25,2.40625 -9.49454,1.83039 -23.33106,2.50005 -37.75,2.53125 -2.62066,0.11411 -4.83302,0.13184 -6.3125,-0.0312 -14.66454,-0.14517 -29.38245,-0.86815 -40.375,-1.625 -28.42219,-1.95691 -6.05089,-5.23018 9.15625,-7.0625 15.87482,-1.91275 32.20568,-13.56713 47.71875,-15.0625 19.28449,-1.85887 28.40137,-3.41174 39.5,-7.875 1.20318,-1.03847 2.38945,-2.13715 3.5625,-3.28125 -0.89621,0.21541 -1.77177,0.42041 -2.65625,0.5625 -5.59827,0.89939 -59.47747,8.62954 -49.5625,2.65625 4.82313,-2.90569 18.08829,-13.95292 23.84375,-15.0625 11.88525,-2.29129 21.43346,-5.75875 29.375,-11.5 10.94202,-7.9104 21.86614,-23.23604 25.71875,-27.40625 z m 135.21875,447.34375 c 0.0309,1e-5 0.0628,0 0.0937,0 13.11681,-2e-5 33.75774,3.03679 47.25,5.6875 6.59309,1.29528 -19.86616,0.53665 -47.34375,-5.6875 z m 21.65625,-51.4375 c 0.0826,1e-4 0.16748,0 0.25,0 13.11686,1e-5 33.75774,3.06804 47.25,5.71875 6.60544,1.29773 -19.96712,0.53763 -47.5,-5.71875 z m 67.71875,-181 c 0.0724,8e-5 0.14643,0 0.21875,0 13.23891,0 34.06967,3.06836 47.6875,5.71875 6.66684,1.29754 -20.11757,0.53662 -47.90625,-5.71875 z m -53.90625,-134.40625 c 13.24891,-1e-5 34.12184,1.88919 47.75,3.53125 6.65334,0.80165 -20.0232,0.31468 -47.75,-3.53125 z m -8.25,29.59375 c 13.24893,10e-6 34.09059,1.88919 47.71875,3.53125 6.65089,0.80137 -20.00298,0.31077 -47.71875,-3.53125 z m 20.6875,35.28125 c 13.24891,-2e-5 34.12184,1.88918 47.75,3.53125 6.65334,0.80164 -20.0232,0.31468 -47.75,-3.53125 z m -8.25,29.59375 c 13.24893,0 34.09059,1.88918 47.71875,3.53125 6.65089,0.80136 -20.00298,0.31077 -47.71875,-3.53125 z m -27.125,49.34375 c 13.2489,0 34.09058,1.92043 47.71875,3.5625 6.65215,0.8015 -19.99733,0.28152 -47.71875,-3.5625 z m -37.15625,25.625 c 5.02245,4.42122 9.71602,8.67908 15.03125,12.625 8.94191,0.69206 18.03932,1.60314 25.15625,2.46875 4.53597,0.55168 -6.56373,0.49425 -22.875,-0.84375 3.8143,2.66789 7.9897,5.16531 12.875,7.46875 4.6167,2.1768 9.67027,4.10848 14.9375,5.78125 6.41498,0.57731 12.59821,1.22301 17.75,1.84375 3.40842,0.41067 -1.97667,0.47688 -11.71875,-0.0625 3.21325,0.89296 6.48027,1.70205 9.71875,2.4375 -17.5899,-0.0162 -37.20834,-2.32979 -54.65625,-6.0625 -19.18367,-0.47571 -39.86262,-2.37797 -57.15625,-5.15625 -16.23222,-2.60775 -31.57421,-6.06712 -47.15625,-8.90625 -0.87579,0.54269 -1.74495,1.06223 -2.59375,1.5625 -2.73116,1.60969 -6.54826,3.65039 -10.90625,5.875 6.87581,1.77124 10.06344,3.01475 16.375,11.28125 0.80713,1.05713 1.59608,2.09618 2.375,3.15625 22.42245,6.08713 71.15511,14.68783 56.25,12.875 -17.99569,-2.18873 -43.97094,-5.84309 -51.9375,-6.8125 0.58174,0.8235 1.17131,1.64744 1.75,2.46875 5.65068,2.90007 14.98444,6.68404 21.09375,9.65625 14.20918,6.91279 22.74125,13.55592 40,18.59375 9.15067,2.6711 20.05721,4.67878 30.8125,6.1875 -21.28517,-0.006 -45.57867,-2.10218 -65.375,-5.3125 -0.5049,-0.0819 -0.99682,-0.16652 -1.5,-0.25 0.35117,0.28494 0.70341,0.56156 1.0625,0.84375 8.00915,6.29392 44.92906,17.90102 60.6875,23.21875 6.55949,-5.22167 12.41401,-10.90529 19.59375,-16.75 -4.65077,-0.48306 -9.47587,-1.06405 -14.375,-1.75 4.54759,0 10.03668,0.22787 15.78125,0.59375 0.26246,-0.20897 0.5149,-0.41569 0.78125,-0.625 8.30778,-6.52862 22.62813,-15.58463 25.4375,-20 0.33778,-0.53091 -32.964,7.20653 -54.5,11.4375 -17.628,3.46324 53.9506,-16.71643 65.40625,-25.71875 3.61318,-2.83939 6.81928,-5.82255 9.75,-8.90625 -2.32355,-0.45713 -4.64182,-0.96447 -7,-1.5 0.0619,6e-5 0.12561,0 0.1875,0 2.41449,0 5.1046,0.12667 7.9375,0.3125 4.69635,-5.10207 8.69844,-10.47136 12.59375,-15.9375 -18.67775,-0.88157 -38.64424,-3.93148 -55.40625,-8.28125 -8.94317,-2.32076 -17.59776,-5.06216 -26.1875,-7.8125 z m -171.125,39.5 c -0.56439,0.0412 -1.1161,0.0886 -1.6875,0.125 -4.81939,2.34787 -9.75818,4.70698 -14.65625,6.25 0.63577,0.11244 1.38046,0.24482 1.96875,0.34375 0.52436,-0.25075 1.05176,-0.48632 1.59375,-0.75 2.87544,-1.39891 7.8812,-3.71557 12.78125,-5.96875 z m 21.4375,22.8125 c -1.0316,0.3847 -2.0003,0.73962 -3,1.125 0.33359,0.29038 0.66467,0.58555 1,0.875 0.6695,-0.65413 1.35187,-1.30151 2,-2 z m 32.71875,14.15625 c -0.16302,0.008 -0.76128,0.31235 -1.875,0.96875 -0.36617,0.21582 -0.75287,0.45293 -1.125,0.6875 0.15675,0.17664 0.33969,0.37608 0.5,0.5625 1.65654,-1.301 2.77309,-2.23289 2.5,-2.21875 z m 67.25,9.5 c -0.0538,8.2e-4 -0.073,0.0147 -0.0625,0.0312 2.80937,4.41537 17.12974,13.4714 25.4375,20 0.85231,0.66978 1.68538,1.33397 2.5,2 1.23871,-0.52378 2.47237,-1.03555 3.65625,-1.59375 6.53942,-3.08338 11.80643,-6.54275 16.625,-10.25 -20.44561,-4.18597 -46.64688,-10.21063 -48.15625,-10.1875 z m -117.71875,22.84375 c -3.54625,0.79725 -6.93679,2.046 -10.1875,3.28125 0.41628,0.3657 0.83447,0.7289 1.25,1.09375 2.49189,-0.56729 4.77979,-1.17692 6.9375,-1.84375 0.66826,-0.80103 1.33413,-1.64798 2,-2.53125 z m -15,50.53125 c -8.3184,0.27058 -16.04556,3.88309 -22.875,6.375 -0.54636,0.19936 -1.30854,0.43624 -1.9375,0.65625 10.72945,-1.86912 18.00462,-3.771 24.8125,-7.03125 z"
           style="fill:#f6f6f6;fill-opacity:1;fill-rule:evenodd;stroke:#000000;stroke-width:2.86987329;stroke-linecap:butt;stroke-linejoin:miter;stroke-opacity:1"
           inkscape:connector-curvature="0" />
        <path
           id="path30186"
           d="m -661.71874,125.78215 c -8.96331,3.4268 -10.64614,1.99142 -15.46875,9.40625 -0.57434,-0.21564 -1.15601,-0.4374 -1.78125,-0.6875 -0.94955,2.1326 -2.49799,6.17098 -4.375,10.96875 -4.11973,7.09152 -8.29552,14.01149 -14.59375,20.03125 -2.00924,1.9204 -7.21169,4.5376 -13.1875,7.21875 -0.0311,-0.0322 -0.0625,-0.0616 -0.0937,-0.0937 -7.01983,-7.2431 -8.99062,-5.76149 -21.4375,-8.84375 -3.00057,4.17199 -11.47797,19.52373 -20,27.4375 -6.18516,5.74367 -13.61834,9.20774 -22.875,11.5 -4.48254,1.11002 -14.83733,12.12433 -18.59375,15.03125 -7.72216,5.97581 34.23362,-1.75648 38.59375,-2.65625 7.93871,-1.63824 16.57173,-8.51209 23.90625,-12.375 -0.60306,0.59228 -1.18523,1.20602 -1.8125,1.78125 -4.80161,2.84644 -11.67146,6.8218 -14.9375,8.84375 -1.50622,0.93248 -2.92682,1.75312 -4.28125,2.53125 -2.68117,0.98921 -5.41914,1.8413 -8.15625,2.59375 1.15985,0 2.34426,-0.0218 3.53125,-0.0625 -8.18134,4.05707 -15.28523,5.52926 -29.6875,7.3125 -12.0821,1.49598 -24.82362,13.14893 -37.1875,15.0625 -11.84388,1.8331 -29.29246,5.10476 -7.15625,7.0625 5.88195,0.5202 13.20397,1.00174 20.875,1.3125 -3.63127,3.94732 -7.61537,7.78013 -11.59375,10.65625 -7.94154,5.74125 -17.4585,9.20871 -29.34375,11.5 -5.75546,1.10958 -19.05188,12.15681 -23.875,15.0625 -9.915,5.97329 43.96423,-1.75686 49.5625,-2.65625 11.05361,-1.77578 23.14366,-9.70718 33.03125,-13.28125 8.99939,-3.25297 -15.88933,7.66631 -23.84375,11.5 -16.878,8.13454 -24.86833,9.99468 -49.5625,12.375 -15.51306,1.49537 -31.87517,13.14975 -47.75,15.0625 -15.20716,1.83232 -37.57843,5.10559 -9.15625,7.0625 23.45918,1.61519 63.97088,3.07062 84.4375,-0.875 2.27478,-0.43854 5.31012,-1.1663 8.625,-2 -7.14324,4.38014 -15.53701,7.22437 -25.625,9.1875 -5.70238,1.10968 -18.84635,12.12522 -23.625,15.03125 -7.54182,4.58641 22.03075,1.11956 38.75,-1.15625 -3.0803,1.13507 -7.4069,4.00203 -11.59375,6.96875 -5.01474,0.79577 -10.78815,1.44845 -18.0625,2.15625 -15.37004,1.49551 -31.55281,13.11827 -47.28125,15.03125 -15.06694,1.83252 -37.25383,5.13661 -9.09375,7.09375 11.3481,0.78871 26.71813,1.55618 41.84375,1.65625 -5.60625,2.19508 -11.23325,4.05027 -16.78125,4.71875 -15.20717,1.83231 -37.57844,5.10559 -9.15625,7.0625 14.80108,1.01906 36.37689,1.98985 55.4375,1.5625 -3.42867,1.04726 -7.05977,1.93391 -10.96875,2.6875 -5.75552,1.10955 -19.05178,12.12556 -23.875,15.03125 -5.24972,3.16271 7.39829,2.47209 21.28125,1 -2.08789,2.24069 -4.27309,4.44277 -6.5,6.40625 -1.81327,0.19194 -3.57023,0.36745 -5.59375,0.5625 -15.51304,1.49535 -31.84403,13.1185 -47.71875,15.03125 -15.2072,1.8323 -37.60967,5.13684 -9.1875,7.09375 4.31303,0.29695 9.32711,0.5907 14.5625,0.84375 -3.59092,2.61379 -6.86496,5.08465 -8.78125,6.25 -9.8236,5.97399 43.5471,-1.75675 49.09375,-2.65625 3.53567,-0.57337 7.20059,-1.81112 10.84375,-3.3125 0.59522,-0.0329 1.16464,-0.0572 1.75,-0.0937 -0.51093,0.23951 -1.10759,0.50288 -1.5625,0.71875 -4.90592,1.90082 -10.30576,3.37325 -16.3125,4.53125 -2.44309,0.47098 -6.25416,2.74149 -10.1875,5.40625 -6.45057,1.39184 -13.9274,2.31199 -24.53125,3.34375 -15.37001,1.49551 -31.55283,13.14951 -47.28125,15.0625 -15.067,1.83252 -37.25386,5.10536 -9.09375,7.0625 12.74428,0.88574 30.56157,1.73334 47.40625,1.65625 -6.26624,2.52994 -12.54844,4.75277 -18.75,5.5 -15.20716,1.83229 -37.57844,5.13684 -9.15625,7.09375 10.59091,0.72921 24.6523,1.41413 38.78125,1.59375 -5.62631,2.31638 -5.58541,4.7398 10.09375,6.5 2.41929,0.2716 5.06832,0.55637 7.8125,0.8125 -6.06206,3.81289 -13.30843,9.65835 -16.59375,11.65625 -5.35924,3.25909 8.10961,2.43871 22.34375,0.875 1.7955,0.32246 3.95709,0.61649 6.5625,0.90625 3.45653,0.38442 7.32754,0.74825 11.40625,1.09375 -8.11634,2.43812 -16.79232,3.69005 -31.21875,5.09375 -15.37002,1.4955 -31.5528,13.11827 -47.28125,15.03125 -15.0669,1.83252 -37.25385,5.10536 -9.09375,7.0625 23.2428,1.6154 63.37835,3.07109 83.65625,-0.875 6.32502,-1.23087 17.73367,-4.35536 28.40625,-7.53125 -11.44982,6.50911 -23.13747,17.09303 -34.59375,19.34375 -15.05548,2.95779 -37.20123,8.27855 -9.0625,11.4375 23.22522,2.60734 63.33124,4.93176 83.59375,-1.4375 11.20108,-3.52093 38.40676,-16.56345 49.0625,-22.84375 5.04468,-2.97325 10.56929,-6.925 16.46875,-8.96875 3.84132,0.71611 7.69403,1.39378 11.625,2.03125 7.15203,1.15982 14.90195,2.17766 22.875,3 14.96819,4.50334 29.73766,9.84953 45.34375,13.9375 19.73323,5.16905 43.95562,8.53643 65.1875,8.5625 -10.70201,-2.43185 -21.55203,-5.7073 -30.65625,-10 -4.88529,-2.30344 -9.0607,-4.83211 -12.875,-7.5 16.31143,1.33802 27.44225,1.39545 22.90625,0.84375 -7.11873,-0.86582 -16.24341,-1.77664 -25.1875,-2.46875 -8.56046,-6.35511 -15.44915,-13.51688 -24.8125,-20.875 -8.30777,-6.52861 -22.65944,-15.58463 -25.46875,-20 -0.33778,-0.5309 32.99526,7.20653 54.53125,11.4375 17.25558,3.39007 -50.95758,-15.86625 -64.59375,-25.125 1.76182,0.20057 3.52375,0.38038 5.3125,0.5625 15.05042,4.49246 29.90039,9.83381 45.59375,13.90625 19.91748,5.16863 44.3513,8.53663 65.78125,8.5625 -10.80162,-2.43156 -21.74854,-5.70781 -30.9375,-10 -3.34048,-1.56034 -6.32945,-3.20279 -9.125,-4.9375 5.91249,0.44476 11.74577,0.71702 17.375,0.71875 -3.27982,-0.74294 -6.58913,-1.56429 -9.84375,-2.46875 9.74218,0.53939 15.12718,0.47319 11.71875,0.0625 -5.16901,-0.62281 -11.37454,-1.2963 -17.8125,-1.875 -4.58578,-1.4587 -9.01017,-3.09888 -13.125,-4.9375 -3.06969,-2.53101 -6.0456,-5.15326 -9.125,-7.84375 13.20424,0.92427 21.3812,0.89352 17.375,0.40625 -5.53751,-0.67351 -12.28748,-1.38923 -19.21875,-2 -2.69462,-2.33332 -5.48437,-4.69741 -8.5625,-7.09375 -8.38508,-6.52781 -22.85206,-15.58516 -25.6875,-20 -0.34093,-0.53082 33.29482,7.17578 55.03125,11.40625 15.6959,3.05482 -38.65315,-12.25843 -59.625,-22.09375 11.27597,2.45743 25.72519,5.62925 37.15625,7.875 10.65289,2.09289 -11.29179,-4.48122 -32.84375,-11.96875 2.58307,0.30944 5.19751,0.60539 7.84375,0.875 15.06027,4.49425 29.92166,9.83121 45.625,13.90625 19.91745,5.16865 44.38255,8.53663 65.8125,8.5625 -10.80203,-2.43159 -21.74817,-5.70764 -30.9375,-10 -4.91842,-2.29742 -9.1267,-4.80863 -12.96875,-7.46875 16.44878,1.33577 27.63826,1.39507 23.0625,0.84375 -7.1815,-0.86531 -16.3519,-1.80807 -25.375,-2.5 -7.80341,-5.73772 -14.27323,-12.11492 -22.40625,-18.71875 17.88416,3.96262 38.2711,6.44919 56.46875,6.46875 -10.71125,-2.43254 -21.57519,-5.70349 -30.6875,-10 -6.94165,-3.27303 -12.44311,-6.96949 -17.5,-10.9375 3.51129,0.74282 6.99631,1.46527 10.375,2.15625 5.17144,2.21471 9.85862,4.07658 13.125,5.09375 20.4511,6.3685 60.93365,4.01329 84.375,1.40625 2.87735,-0.32001 5.19851,-0.67181 7.09375,-1.03125 14.93581,1.82065 24.72375,1.87155 20.40625,1.03125 -4.41332,-0.85895 -9.60631,-1.7354 -15.03125,-2.5625 5.55864,-2.98611 -10.1171,-6.59793 -21.65625,-8.84375 -15.86279,-3.08733 -32.18623,-21.86769 -47.6875,-24.28125 -16.409,-2.5549 -25.42708,-4.76996 -34.59375,-9.8125 -0.0829,-0.0648 -0.16668,-0.12263 -0.25,-0.1875 -7.07494,-5.50786 -18.43863,-12.79426 -23.53125,-17.59375 5.98212,4.59337 12.15052,8.94268 18.03125,10.46875 5.59401,1.45166 59.43871,13.92252 49.53125,4.28125 -2.54928,-2.48079 -7.49039,-8.61902 -12.40625,-14.125 14.76787,1.18872 32.35316,-0.21111 44.9375,-1.875 4.57441,0.34972 6.71782,0.17163 4.65625,-0.34375 -0.27577,-0.0689 -0.59183,-0.14931 -0.875,-0.21875 20.12754,-3.17938 3.28358,-8.31974 -8.3125,-11.21875 -12.3545,-3.08863 -25.08331,-21.86668 -37.15625,-24.28125 -19.21811,-3.84362 -25.42729,-6.86481 -38.5625,-20 -0.93402,-0.93402 -2.2262,-2.16288 -3.625,-3.5 0.5347,0.14687 1.02446,0.29023 1.5625,0.4375 3.09382,2.6989 6.1843,4.90518 9.1875,5.90625 4.35682,1.45228 46.31003,13.95787 38.59375,4.3125 -3.75357,-4.69196 -14.1146,-22.52084 -18.59375,-24.3125 -8.35015,-3.34006 -15.19677,-8.22884 -21,-15.96875 5.22411,2.11506 10.52721,4.16532 15.9375,5.96875 15.55308,5.18436 34.62198,8.5854 51.34375,8.59375 -8.45205,-2.43629 -17.02759,-5.6853 -24.21875,-10 -3.8374,-2.30243 -7.09718,-4.83351 -10.09375,-7.5 4.25448,0.4437 8.01272,0.75255 11.0625,0.9375 16.87896,2.67603 44.23271,1.36705 60.75,-0.0937 22.13621,-1.95774 4.6876,-5.2294 -7.15625,-7.0625 -12.36388,-1.91357 -25.10537,-13.56652 -37.1875,-15.0625 -12.97814,-1.60691 -20.02665,-2.96267 -27.28125,-6.1875 -0.33983,-1.127 -3.14535,-2.33066 -6.53125,-3.375 -1.50332,-0.85341 -3.0915,-1.7664 -4.78125,-2.8125 -0.54187,-0.33546 -1.56386,-0.91404 -2.28125,-1.34375 0.95663,0.26044 1.85853,0.49263 2.8125,0.75 2.23564,1.0627 4.45239,1.89541 6.625,2.34375 4.36013,0.89977 46.3159,8.63206 38.59375,2.65625 -3.75642,-2.90692 -14.11119,-13.92123 -18.59375,-15.03125 -9.25666,-2.29226 -16.68985,-5.75633 -22.875,-11.5 -8.52203,-7.91377 -16.99947,-23.26551 -20,-27.4375 -11.96067,2.96186 -14.26639,1.73733 -20.65625,8.0625 -0.65273,-0.61788 -1.25749,-1.06171 -1.75,-1.25 -6.89899,-2.63759 -12.42144,-6.64103 -17.03125,-13.25 -6.35147,-9.10598 -12.70118,-26.76199 -14.9375,-31.5625 z m 77.84375,290.15625 c 27.5227,6.25043 54.07191,7.01602 47.46875,5.71875 -13.49226,-2.65071 -34.13318,-5.71876 -47.25,-5.71875 -0.0722,0 -0.14648,8e-5 -0.21875,0 z m 12.15625,31.375 c 27.78867,6.25537 54.60432,7.01629 47.9375,5.71875 -13.61783,-2.65039 -34.4486,-5.71875 -47.6875,-5.71875 -0.0826,0 -0.16726,10e-5 -0.25,0 z m -22.03125,51.40625 c 27.78912,6.25563 54.60443,7.0163 47.9375,5.71875 -13.61782,-2.65038 -34.4486,-5.71876 -47.6875,-5.71875 -0.0826,0 -0.16726,10e-5 -0.25,0 z m -10.53125,50.65625 c 27.53287,6.25638 54.10545,7.01647 47.5,5.71875 -13.49226,-2.65071 -34.1332,-5.71875 -47.25,-5.71875 -0.0825,0 -0.16739,10e-5 -0.25,0 z M -760.81249,218.46965 c -7.69058,0 -19.7768,2.17226 -27.6875,4.0625 -3.86064,0.92249 11.59936,0.36024 27.6875,-4.0625 z m 56.28125,-42.78125 c 0.1353,-0.0203 0.19988,-0.0237 0.1875,0 -0.34181,0.65341 -1.01226,1.48254 -1.84375,2.375 -0.48531,-0.5405 -0.97659,-1.0839 -1.46875,-1.625 1.57812,-0.40353 2.70626,-0.68721 3.125,-0.75 z m 25.9375,22.28125 c 0.33472,0.0495 0.66878,0.10544 1,0.1875 -0.64252,0.6276 -1.40778,1.34716 -2.1875,2.09375 -0.31986,-0.1232 -0.64138,-0.22374 -0.9375,-0.34375 0.72064,-0.68419 1.4248,-1.32168 2.125,-1.9375 z m -35.90625,29.4375 c -0.32961,0.76662 -0.6621,1.51535 -1,2.28125 -3.64734,1.46897 -7.79656,2.64038 -12.9375,3.78125 0.48957,-0.21799 1.07426,-0.45857 1.5,-0.65625 3.81458,-1.77116 7.99828,-4.10246 12.4375,-5.40625 z m -28.65625,12 c -2.18955,1.58131 -4.38643,3.39386 -6.59375,5.28125 -3.68514,0.25243 -7.5938,0.60921 -11.46875,1.03125 5.04564,-1.54691 11.70146,-3.90286 18.0625,-6.3125 z m 159.59375,4.78125 c 1.70838,0.57365 3.3066,1.07915 4.78125,1.53125 -1.17825,-0.12833 -2.3523,-0.2277 -3.53125,-0.34375 -0.41556,-0.39262 -0.84362,-0.78889 -1.25,-1.1875 z m -167.75,1.84375 c -1.97461,1.70438 -3.95927,3.42013 -5.9375,5.03125 -1.48258,-1.27227 -2.959,-2.5275 -4.4375,-3.8125 3.20689,-0.30936 6.68905,-0.7277 10.375,-1.21875 z m 50.9375,17.5 c 0.41046,-0.027 -2.639,2.98698 -6.5625,6.71875 -0.33689,-0.0854 -0.67731,-0.18991 -1.03125,-0.28125 2.13192,-2.09045 4.17325,-4.00493 6.125,-5.46875 0.87547,-0.6566 1.34061,-0.96031 1.46875,-0.96875 z m 60.75,0 c 0.12814,0.008 0.59328,0.31215 1.46875,0.96875 2.97432,2.23074 6.22012,5.52535 9.5625,8.875 -0.70882,-0.31021 -1.41575,-0.62351 -2.125,-0.9375 -4.9541,-4.6874 -9.39382,-8.93838 -8.90625,-8.90625 z m 93.5,0.96875 c 21.57885,6.21068 42.33431,7.01327 37.15625,5.71875 -10.60605,-2.65152 -26.84535,-5.71873 -37.15625,-5.71875 z m -219.0625,30.5 c 1.23769,-0.0118 2.48758,0.0666 3.75,0.21875 1.28643,0.155 2.56689,0.32925 3.84375,0.5 -1.07964,2.17561 -2.28652,4.5109 -3.5625,7 -0.74221,-0.43995 -1.44482,-0.82988 -2.15625,-1.15625 -2.3149,-2.02098 -4.61147,-4.05557 -7,-6.09375 1.67569,-0.26999 3.39672,-0.45222 5.125,-0.46875 z m 126.25,94.28125 c 0.53354,0.25654 1.08682,0.49357 1.625,0.75 -0.38973,-0.12977 -0.79492,-0.24387 -1.1875,-0.375 -0.1448,-0.12566 -0.2928,-0.24895 -0.4375,-0.375 z m 22.5625,95.21875 c 27.45608,6.21168 53.83828,6.98185 47.25,5.6875 -13.49226,-2.65071 -34.1332,-5.6875 -47.25,-5.6875 z m -194.84375,26.8125 c -6.81502,3.26367 -14.09571,5.1915 -24.84375,7.0625 0.65299,-0.22814 1.43514,-0.48139 2,-0.6875 6.82417,-2.48998 14.53268,-6.09947 22.84375,-6.375 z"
           style="fill:#f6f6f6;fill-opacity:1;fill-rule:evenodd;stroke:#000000;stroke-width:2.86987329;stroke-linecap:butt;stroke-linejoin:miter;stroke-opacity:1"
           inkscape:connector-curvature="0" />
        <path
           sodipodi:nodetypes="cssssssssscssssssssscsssscscscscsccssccsccccccscccsc"
           id="path30232"
           d="m -868.21874,498.03215 c -3.81701,4.17072 -14.59642,19.52615 -25.4375,27.4375 -7.86834,5.74195 -17.34941,9.20845 -29.125,11.5 -5.70242,1.10967 -18.84625,12.15647 -23.625,15.0625 -9.82351,5.97398 43.54701,-1.75675 49.09375,-2.65625 10.95165,-1.77602 22.95359,-9.70677 32.75,-13.28125 8.91637,-3.25338 -15.77516,7.66585 -23.65625,11.5 -16.72226,8.13545 -24.62728,9.9944 -49.09375,12.375 -15.37,1.49549 -31.55291,13.14952 -47.28125,15.0625 -15.06695,1.83251 -37.25386,5.10536 -9.09375,7.0625 17.95795,1.24808 45.94758,2.39421 67.125,1.03125 -5.34205,2.27574 -11.28481,3.94321 -18,5.25 -5.70239,1.10966 -18.87756,12.15647 -23.65625,15.0625 -9.82349,5.97396 43.54711,-1.75675 49.09375,-2.65625 10.9517,-1.77597 22.95359,-9.70677 32.75,-13.28125 8.91638,-3.25339 -15.77518,7.66584 -23.65625,11.5 -16.72237,8.13549 -24.62728,10.02565 -49.09375,12.40625 -15.36997,1.49553 -31.5529,13.11827 -47.28121,15.03125 -15.067,1.83255 -37.2539,5.10536 -9.0938,7.0625 23.2428,1.61536 63.37837,3.07109 83.65626,-0.875 6.33344,-1.23249 17.75586,-4.35113 28.4375,-7.53125 -11.45726,6.50798 -23.16093,17.09151 -34.625,19.34375 -15.05545,2.95783 -37.23252,8.27855 -9.09375,11.4375 23.22519,2.60731 63.33123,4.93176 83.59375,-1.4375 11.20105,-3.5209 38.40676,-16.56345 49.0625,-22.84375 5.05593,-2.97987 10.61696,-6.9603 16.53125,-9 3.83267,0.71365 7.67247,1.4266 11.59375,2.0625 7.15102,1.15966 14.90419,2.17711 22.875,3 14.96344,4.50248 29.74248,9.85078 45.34375,13.9375 19.74282,5.17161 43.94819,8.53967 65.1875,8.5625 -10.71125,-2.43254 -21.54394,-5.70349 -30.65625,-10 -4.90953,-2.31488 -9.10798,-4.84855 -12.9375,-7.53125 16.2832,1.33971 27.46863,1.42609 22.9375,0.875 -7.11693,-0.86561 -16.21569,-1.77879 -25.15625,-2.46875 m 45.8125,19.125 c 27.5227,6.25043 54.07191,7.016 47.46875,5.71875 -13.49226,-2.65071 -34.13321,-5.71872 -47.25,-5.71875 -0.0722,0 -0.14648,8e-5 -0.21875,0 z m -191.9375,-88.5625 c -0.75828,1.00517 -1.52019,1.97789 -2.28125,2.875 -1.20618,1.4218 -2.46653,2.7445 -3.75,4 -1.39731,-1.20578 -2.80008,-2.40621 -4.1875,-3.625 3.25444,-1.23714 6.6734,-2.45289 10.21875,-3.25 z m 28.65625,19.03125 c 0.4538,-0.0235 -2.46978,2.27988 -6.5,5.3125 -0.41782,-0.12639 -0.83265,-0.25197 -1.21875,-0.375 2.01199,-1.50003 3.96969,-2.86421 5.84375,-3.96875 1.1137,-0.6564 1.71199,-0.96031 1.875,-0.96875 z m -43.65625,31.46875 c -6.82799,3.26988 -14.12438,5.18807 -24.90625,7.0625 0.66323,-0.23161 1.4585,-0.47851 2.03125,-0.6875 6.82945,-2.49193 14.55646,-6.10575 22.875,-6.375 z"
           style="fill:#f6f6f6;fill-opacity:1;fill-rule:evenodd;stroke:#000000;stroke-width:2.86987329;stroke-linecap:butt;stroke-linejoin:miter;stroke-opacity:1"
           inkscape:connector-curvature="0" />
        <path
           sodipodi:nodetypes="csssscscsssscscsccsscscscsccscscccsccccccscscscscccscsscccscscscccscscscccsssscscscscscsssscsssscscsscsssssssscsssccsscscsscsscsscscsscsccccsscsscsscsscscscssscsccsssccsssccssccssccssccsccsccsccsccscccscscscccscscscsccsscscsccccssssccsccscccccsccccccsccccsscsccccccccscc"
           id="path30274"
           d="m -622.52509,211.38468 c 11.56993,6.20552 83.86014,20.08697 66.05623,17.69964 -21.75087,-2.91651 -55.39844,-8.22474 -55.05727,-7.85878 2.83734,3.04362 17.32566,9.26994 25.71631,13.77026 14.34005,7.69128 22.95343,15.08493 40.37116,20.69015 9.23499,2.97192 20.23639,5.20651 31.09079,6.88513 -21.48148,-0.007 -45.98346,-2.33958 -65.96248,-5.91147 -12.44627,-2.22519 -24.37065,-4.98498 -36.2778,-7.5806 24.07408,6.61033 65.89293,14.81598 51.87007,12.9357 -21.75087,-2.91651 -55.42966,-8.22472 -55.08851,-7.85878 2.83734,3.04362 17.32565,9.26995 25.7163,13.77025 14.34006,7.69128 22.95346,15.08496 40.37116,20.69016 9.235,2.97192 20.2364,5.2065 31.0908,6.88513 -21.47423,-0.009 -45.99287,-2.34124 -65.96248,-5.91147 -2.99718,-0.53585 -5.96219,-1.11486 -8.9054,-1.7039 23.76284,6.67797 67.79822,15.30984 53.46366,13.38775 -18.14734,-2.43332 -44.30774,-6.49813 -52.37002,-7.5806 0.59399,0.927 1.19022,1.85738 1.78108,2.78187 5.70805,3.22299 15.10122,7.41339 21.24798,10.7102 14.34006,7.69128 22.95351,15.08499 40.37117,20.69016 9.23499,2.97192 20.23639,5.2065 31.09079,6.88513 -21.48149,-0.007 -45.98347,-2.33953 -65.96248,-5.91147 -0.51456,-0.092 -1.01831,-0.18439 -1.5311,-0.27819 0.3544,0.31703 0.7,0.62491 1.06239,0.93888 0.22,0.19059 0.51827,0.39182 0.78118,0.59115 13.64801,3.08405 22.92664,5.12859 15.2798,4.10326 -3.43842,-0.46105 -7.42816,-1.05015 -11.28018,-1.59958 11.51406,6.38789 36.15951,15.29866 51.30762,20.82925 10.63859,0.77446 22.182,2.06617 30.80958,3.23393 4.74828,0.6427 -7.6844,0.51893 -25.2476,-1.1823 6.56492,2.44911 9.62654,3.74552 4.37458,2.608 -5.71628,-1.23808 -12.22083,-2.70427 -18.74822,-4.24235 -2.53343,-0.33736 -5.07697,-0.74586 -7.65552,-1.14752 0.98641,0 2.09073,0.0467 3.15595,0.0695 -16.60118,-3.94709 -31.97687,-7.77031 -31.74698,-7.37196 0.25695,0.44522 0.6277,0.93648 1.0624,1.46048 8.3984,2.46401 17.97483,4.3656 27.43489,5.84193 -7.14011,-0.002 -14.61941,-0.28087 -22.15415,-0.76501 3.42092,2.94646 7.62157,6.24456 11.68639,9.45835 8.80847,2.66945 19.00085,4.73355 29.09099,6.29399 -7.19653,-0.003 -14.74836,-0.28173 -22.34163,-0.76502 0.28255,0.23992 0.60441,0.49589 0.87492,0.73024 9.45295,8.18963 16.44786,16.12119 25.09136,23.19384 9.02009,0.76989 18.19355,1.81925 25.37259,2.78187 4.57504,0.61344 -6.61483,0.54722 -23.06031,-0.93888 3.84169,2.96005 8.04956,5.75439 12.96752,8.31084 9.18846,4.77631 20.13356,8.42173 30.93456,11.12748 -21.43534,-0.0252 -45.88106,-3.77373 -65.80624,-9.52791 -15.70185,-4.53449 -30.56183,-10.47318 -45.62067,-15.47415 -7.46137,-0.84598 -14.69153,-1.88774 -21.46671,-3.06005 0.60887,0.57551 1.24159,1.13777 1.87482,1.70389 11.80171,2.66434 19.00385,4.31648 11.96762,3.37302 -2.89466,-0.38814 -6.29101,-0.86703 -9.4991,-1.32139 15.08301,10.45946 81.75444,31.18911 64.58761,27.47097 -21.73436,-4.70745 -55.36695,-13.28295 -55.02602,-12.69229 1.9384,3.35872 9.31858,9.10897 16.46719,14.74392 7.95726,2.18279 16.82028,3.89476 25.59131,5.25077 -6.38512,-0.002 -13.05593,-0.20727 -19.77937,-0.59114 1.20327,0.98008 2.35789,1.94343 3.40593,2.85141 9.44958,8.18677 16.42081,16.12304 25.06012,23.19385 9.03011,0.77014 18.21654,1.81814 25.40383,2.78187 4.57533,0.6135 -6.64434,0.54749 -23.09155,-0.93889 3.84436,2.96291 8.04529,5.75219 12.96751,8.31084 6.63533,3.44916 14.21386,6.28687 21.96667,8.6238 -5.28762,51.26223 -53.9984,92.97775 -97.89695,111.06616 5.15928,5.04591 9.96331,9.90064 15.40479,14.39617 8.94105,0.77009 18.0376,1.78391 25.15386,2.7471 4.53284,0.61354 -6.579,0.5474 -22.87283,-0.93888 3.81394,2.96869 7.95771,5.78246 12.84253,8.34561 9.10337,4.77669 19.95233,8.38667 30.65334,11.09271 -21.22987,-0.029 -45.44998,-3.77605 -65.18131,-9.52791 -15.55678,-4.53494 -30.2635,-10.47265 -45.1832,-15.47415 -5.5144,-0.63121 -10.91631,-1.3722 -16.09222,-2.19072 -1.29266,0.15587 -2.57036,0.32896 -3.74965,0.45205 0.48169,0.44025 0.94061,0.88696 1.43737,1.32139 11.45453,10.0173 83.05765,32.47219 65.43128,28.61849 -21.53395,-4.70801 -54.86384,-13.31783 -54.52607,-12.72706 2.80903,4.9132 17.12811,14.99032 25.43508,22.25496 9.36245,8.18774 16.28174,16.15698 24.84139,23.22862 8.94106,0.77007 18.03761,1.78389 25.15386,2.74709 4.53558,0.6139 -6.56295,0.55 -22.87283,-0.93888 3.81394,2.96869 7.98894,5.78245 12.87378,8.34561 9.14721,4.79971 20.02725,8.41734 30.77832,11.12748 -21.26692,-0.0109 -45.52693,-3.79684 -65.30629,-9.56268 -15.57828,-4.54121 -30.3361,-10.46833 -45.27694,-15.47415 -7.99426,-0.91632 -15.76537,-2.04431 -22.93532,-3.33824 -3.93123,-0.70947 -7.81359,-1.49805 -11.65515,-2.29504 -5.88896,2.27717 -11.43054,6.7112 -16.46718,10.01473 -10.65473,6.98839 -37.85783,21.5014 -49.05784,25.41933 -20.26059,7.08739 -60.36282,4.46611 -83.5858,1.56481 -28.13609,-3.51512 -5.96117,-9.40101 9.09288,-12.69229 11.44911,-2.50314 23.14754,-14.24597 34.59046,-21.48994 -10.67312,3.53461 -22.07806,6.97576 -28.40355,8.34561 -20.27596,4.391 -60.40766,2.77116 -83.64826,0.97365 -28.15742,-2.1778 -5.97263,-5.81967 9.09284,-7.85878 15.72691,-2.12866 31.90827,-15.09666 47.27677,-16.76077 17.31597,-1.87499 26.33394,-3.46163 36.05907,-7.4415 -0.7522,-0.0892 -1.52902,-0.18814 -2.24979,-0.27819 -4.10169,-0.51243 -7.10764,-1.07054 -9.24912,-1.66912 -16.95262,2.43954 -40.47691,5.17453 -33.65306,0.55638 4.77825,-3.23368 17.95217,-15.52599 23.65401,-16.76077 6.71455,-1.45413 12.65675,-3.30961 17.99829,-5.84193 -21.17541,1.51663 -49.16239,0.2413 -67.11858,-1.14752 -28.15742,-2.1778 -5.97273,-5.81965 9.09284,-7.85878 15.7269,-2.12867 31.90824,-15.09664 47.27676,-16.76077 24.46415,-2.64901 32.36841,-4.71753 49.08909,-13.77025 7.88034,-4.26645 32.56951,-16.41678 23.654,-12.79661 -9.79548,3.9775 -21.79629,12.76767 -32.74689,14.74391 -5.54621,1.00092 -58.91166,9.6033 -49.08908,2.95574 4.77829,-3.23368 17.92086,-15.4912 23.62275,-16.72599 3.87257,-0.83866 7.47724,-1.82503 10.87397,-2.99051 -18.88379,0.47579 -40.2683,-0.60448 -54.93229,-1.73867 -28.15742,-2.1778 -5.97253,-5.81964 9.0929,-7.85878 15.72695,-2.12867 31.90821,-15.09663 47.27675,-16.76077 18.45461,-1.99828 27.5235,-3.65258 38.02764,-8.24129 1.01371,-1.41004 1.88472,-2.64208 2.656,-3.68598 -0.21829,0.0446 -0.43869,0.0999 -0.65619,0.1391 -5.54612,1.00091 -58.94298,9.6033 -49.12033,2.95573 3.285,-2.22316 10.53069,-8.72768 16.59217,-12.97047 -2.74392,-0.285 -5.3927,-0.60189 -7.81176,-0.9041 -15.71227,-1.96298 -15.72483,-4.68495 -10.06154,-7.26764 -14.13806,-0.19918 -28.21113,-0.92667 -38.80881,-1.73867 -28.41951,-2.17755 -6.05034,-5.85466 9.15538,-7.89355 6.22179,-0.83428 12.52407,-3.32802 18.81071,-6.15489 -16.86142,0.0884 -34.70546,-0.82142 -47.46425,-1.80822 -28.15742,-2.1778 -5.97263,-5.81963 9.09294,-7.85878 8.05153,-1.0898 16.22034,-5.03783 24.34139,-8.83244 -1.91915,-0.12927 -3.91014,-0.24875 -5.65571,-0.3825 -28.41946,-2.17755 -6.05031,-5.85468 9.15538,-7.89356 6.26127,-0.83956 12.60925,-3.34068 18.9357,-6.18966 -7.52037,0.4688 -12.0917,0.038 -8.59293,-2.32982 1.91871,-1.2985 5.18407,-4.0418 8.78041,-6.95467 -5.23463,-0.28157 -10.24868,-0.57369 -14.56111,-0.90411 -28.41951,-2.17755 -6.01911,-5.85465 9.18662,-7.89356 14.86094,-1.99267 30.12974,-13.48817 44.74575,-16.30871 1.503,-0.87498 2.82683,-1.50717 3.90588,-1.73867 2.44239,-0.52399 4.77958,-1.1282 7.03058,-1.77344 1.11336,-1.18829 2.23837,-2.39414 3.31219,-3.6512 -4.05401,0.15856 -8.26219,0.22648 -12.53006,0.24341 -2.9169,0.16045 -5.36544,0.19643 -6.96809,0 -14.66835,-0.16114 -29.40697,-0.96574 -40.40241,-1.80822 -28.41947,-2.17754 -6.01914,-5.85466 9.18663,-7.89355 11.12116,-1.49122 22.45743,-8.25174 33.59055,-12.76183 -8.79933,-0.34789 -17.10963,-0.83318 -23.93522,-1.35616 -28.41949,-2.17755 -6.05033,-5.81986 9.15538,-7.85879 5.55856,-0.74533 11.19396,-2.83658 16.8109,-5.28555 -15.13424,-0.11043 -30.5162,-0.92997 -41.87102,-1.80821 -28.1574,-2.17781 -5.9726,-5.85441 9.09289,-7.89356 8.47197,-1.1467 17.0836,-5.38412 25.62256,-9.35404 -3.76045,-0.22431 -7.31503,-0.48389 -10.53025,-0.73024 -28.41948,-2.17755 -6.05031,-5.81988 9.15538,-7.85878 5.48679,-0.73571 11.04782,-2.77367 16.59217,-5.18123 -3.63539,-0.12266 -5.08924,-0.8222 -2.65599,-2.46891 4.72148,-3.19529 17.59708,-15.18023 23.40402,-16.65645 0.0493,-0.34406 0.4441,-0.76734 1.21864,-1.28662 1.56703,-1.0506 4.06928,-3.08525 6.87434,-5.3551 -21.7959,2.52088 -54.95103,1.10753 -75.30534,-0.45205 -28.41948,-2.17755 -6.05031,-5.81992 9.15538,-7.85878 15.87332,-2.12841 32.23387,-15.09685 47.74546,-16.76077 22.93101,-2.45982 31.44151,-4.44345 46.05812,-11.96204 -4.00803,1.14693 -7.59565,2.10829 -10.24902,2.67755 -9.49364,2.03676 -23.32884,2.78193 -37.74641,2.81664 -2.62041,0.12698 -4.83256,0.14671 -6.3119,-0.0348 -14.66315,-0.16154 -29.37966,-0.96603 -40.37117,-1.80822 -28.41949,-2.17754 -6.05031,-5.81987 9.15538,-7.85878 15.87331,-2.12841 32.20262,-15.0968 47.71422,-16.76077 19.28266,-2.06845 28.39867,-3.7964 39.49624,-8.76289 1.20307,-1.15555 2.38923,-2.3781 3.56217,-3.6512 -0.89613,0.2397 -1.77161,0.46781 -2.656,0.62592 -5.59774,1.0008 -59.47182,9.6025 -49.55779,2.95574 4.82267,-3.2333 18.08657,-15.52609 23.84148,-16.76077 11.88412,-2.54963 26.05944,-37.27932 34.00022,-43.66788 m 156.29419,498.15589 c 0.0309,10e-6 0.0628,0 0.0937,0 13.11556,-2e-5 33.75453,3.37918 47.24551,6.32876 6.59246,1.44132 -19.86428,0.59715 -47.33926,-6.32876 z m 21.6542,-57.23697 c 0.0826,1.1e-4 0.16746,0 0.24997,0 13.11562,10e-6 33.75453,3.41395 47.24551,6.36352 6.60481,1.44405 -19.96522,0.59825 -47.49548,-6.36352 z M -460.353,412.13137 c 0.0724,9e-5 0.14642,0 0.21873,0 13.23765,0 34.06643,3.41431 47.68297,6.36353 6.6662,1.44383 -20.11566,0.59712 -47.9017,-6.36353 z m -53.90113,-149.56029 c 13.24765,-10e-6 34.1186,2.1022 47.74547,3.92939 6.6527,0.89204 -20.0213,0.35016 -47.74547,-3.92939 z m -8.24921,32.93039 c 13.24767,1e-5 34.08735,2.10219 47.71421,3.92939 6.65026,0.89172 -20.00108,0.34581 -47.71421,-3.92939 z m 20.68553,39.25914 c 13.24765,-2e-5 34.1186,2.10218 47.74546,3.92939 6.65271,0.89202 -20.02129,0.35016 -47.74546,-3.92939 z m -8.24921,32.93039 c 13.24767,0 34.08735,2.10218 47.71421,3.92939 6.65026,0.89171 -20.00108,0.34581 -47.71421,-3.92939 z m -27.12243,54.90715 c 13.24764,0 34.08734,2.13696 47.71422,3.96417 6.65152,0.89187 -19.99543,0.31326 -47.71422,-3.96417 z m -37.15271,28.51417 c 5.02197,4.91971 9.71509,9.65763 15.02982,14.04845 8.94106,0.77008 18.0376,1.78389 25.15386,2.74709 4.53553,0.61388 -6.56311,0.54998 -22.87283,-0.93888 3.81394,2.96869 7.98894,5.74769 12.87378,8.31084 4.61626,2.42223 9.66935,4.5717 14.93608,6.43307 6.41437,0.6424 12.59701,1.3609 17.74831,2.05163 3.4081,0.45697 -1.97648,0.53065 -11.71764,-0.0695 3.21295,0.99364 6.47966,1.89396 9.71783,2.71233 -17.58823,-0.018 -37.2048,-2.59247 -54.65106,-6.74604 -19.18184,-0.52934 -39.85883,-2.64608 -57.15081,-5.7376 -16.23068,-2.90177 -31.57121,-6.75118 -47.15177,-9.91042 -0.87571,0.60388 -1.74479,1.182 -2.59351,1.73867 -2.7309,1.79118 -6.54763,4.06197 -10.90521,6.5374 6.87516,1.97094 10.06248,3.35465 16.37344,12.55319 0.80706,1.17632 1.59593,2.33252 2.37478,3.51211 22.42032,6.77344 71.14835,16.34385 56.24465,14.32663 -17.99398,-2.43551 -43.96676,-6.50189 -51.93256,-7.5806 0.58168,0.91635 1.1712,1.83319 1.74983,2.7471 5.65015,3.22705 14.98302,7.43765 21.09175,10.74497 14.20783,7.69219 22.73909,15.08432 39.9962,20.69016 9.1498,2.97226 20.0553,5.2063 30.80957,6.88513 -21.28315,-0.007 -45.57434,-2.3392 -65.36879,-5.91148 -0.50485,-0.0911 -0.99672,-0.18529 -1.49986,-0.27818 0.35114,0.31706 0.70335,0.62487 1.0624,0.93888 8.00839,7.00354 44.92479,19.91932 60.68174,25.83662 6.55886,-5.81041 12.41283,-12.13484 19.59188,-18.63853 -4.65033,-0.53753 -9.47497,-1.18402 -14.37363,-1.94731 4.54716,0 10.03573,0.25356 15.77975,0.66069 0.26243,-0.23253 0.51485,-0.46256 0.78118,-0.69547 8.30699,-7.2647 22.62597,-17.34176 25.43508,-22.25496 0.33775,-0.59076 -32.96087,8.01906 -54.49482,12.72706 -17.62633,3.85371 53.94547,-18.60117 65.40003,-28.61849 3.61284,-3.15952 6.81863,-6.47903 9.74907,-9.91041 -2.32332,-0.50867 -4.64137,-1.07321 -6.99933,-1.66912 0.0619,6e-5 0.1256,0 0.18748,0 2.41426,0 5.10412,0.14095 7.93675,0.34773 4.6959,-5.67732 8.69761,-11.65198 12.59255,-17.73442 -18.67597,-0.98096 -38.64057,-4.37475 -55.40098,-9.21494 -8.94232,-2.58243 -17.59609,-5.63291 -26.18501,-8.69335 z m -171.10874,43.95355 c -0.56434,0.0458 -1.116,0.0986 -1.68734,0.13909 -4.81893,2.61259 -9.75725,5.23768 -14.65486,6.95468 0.63571,0.12511 1.38033,0.27242 1.96857,0.3825 0.52431,-0.27902 1.05166,-0.54115 1.59359,-0.83456 2.87517,-1.55663 7.88045,-4.13449 12.78004,-6.64171 z m 21.43546,25.38456 c -1.0315,0.42808 -2.00011,0.82301 -2.99971,1.25184 0.33355,0.32312 0.6646,0.65157 0.9999,0.97366 0.66944,-0.72788 1.35174,-1.44825 1.99981,-2.2255 z m 32.71564,15.75234 c -0.163,0.009 -0.76121,0.34757 -1.87482,1.07798 -0.36614,0.24015 -0.7528,0.50399 -1.12489,0.76501 0.15673,0.19656 0.33965,0.41848 0.49995,0.62592 1.65638,-1.44768 2.77283,-2.48464 2.49976,-2.46891 z m 67.24361,10.57111 c -0.0538,9.1e-4 -0.073,0.0163 -0.0625,0.0348 2.8091,4.91319 17.12811,14.99027 25.43508,22.25496 0.85223,0.7453 1.68522,1.48437 2.49976,2.2255 1.23859,-0.58284 2.47214,-1.15231 3.6559,-1.77345 6.5388,-3.43102 11.80531,-7.28043 16.62342,-11.40566 -20.44366,-4.65793 -46.64244,-11.36186 -48.15167,-11.33612 z m -117.70756,25.41933 c -3.54591,0.88714 -6.93613,2.27669 -10.18653,3.65121 0.41624,0.40693 0.83439,0.81108 1.24988,1.21707 2.49165,-0.63125 4.77933,-1.30962 6.93684,-2.05163 0.66819,-0.89135 1.334,-1.83379 1.99981,-2.81665 z m -14.99858,56.22855 c -8.31761,0.30109 -16.04403,4.3209 -22.87282,7.09377 -0.54631,0.22184 -1.30842,0.48543 -1.93732,0.73024 10.72843,-2.07986 18.00291,-4.19617 24.81014,-7.82401 z"
           style="fill:#f6f6f6;fill-opacity:1;fill-rule:evenodd;stroke:#000000;stroke-width:2.86987329;stroke-linecap:butt;stroke-linejoin:miter;stroke-opacity:1"
           inkscape:connector-curvature="0" />
        <path
           sodipodi:nodetypes="ccscsssssssssssssccscscscccsssscscscscscsssscsssscscsscsssssssscsssccsscscsscsscsscscsscsccccsscsscsscsscscscssscsccsssccsssscsssssscscsssscscsccsscscscsccscscccsccccccscscscscccscsscccscscccssccssccssccsccsccsccsccscccscscscccscscscsccsscscsccccsssscsscccccccsccccccsccccsscsccccccccscc"
           id="path30208"
           d="m -799.90624,457.35358 c -3.05653,5.3945 -10.61314,22.36497 -19.0625,35.46875 -0.30264,0.058 -0.64152,0.1299 -0.9375,0.1875 -1.55019,0.30171 -1.16115,0.46438 0.5,0.5 -1.95508,2.98909 -3.96734,5.76579 -5.96875,8.125 -7.86242,9.26784 -17.29569,14.86378 -29.0625,18.5625 -5.69799,1.79111 -18.84994,19.59073 -23.625,24.28125 -9.81614,9.64244 43.52009,-2.86066 49.0625,-4.3125 10.9435,-2.86661 22.92985,-15.63679 32.71875,-21.40625 8.90973,-5.25115 -15.74989,12.37391 -23.625,18.5625 -16.70963,13.13117 -24.61461,16.15756 -49.0625,20 -15.35841,2.41386 -31.53348,21.19356 -47.25,24.28125 -15.05551,2.95778 -37.2326,8.2473 -9.09375,11.40625 23.22512,2.60734 63.33128,4.96301 83.59375,-1.40625 11.20107,-3.52095 38.40677,-16.59469 49.0625,-22.875 8.01621,-4.72468 17.2827,-11.93309 27.28125,-9.96875 23.51555,4.61987 45.29065,13.74997 69.03125,19.96875 9.63717,2.52446 20.34545,4.63784 31.25,6.125 -5.15977,4.53464 -9.96426,8.89747 -15.40625,12.9375 -8.9419,0.69206 -18.03932,1.60315 -25.15625,2.46875 -4.53327,0.55137 6.57962,0.49193 22.875,-0.84375 -3.8143,2.66789 -7.95847,5.19656 -12.84375,7.5 -9.10424,4.2927 -19.95423,7.5369 -30.65625,9.96875 21.23188,-0.0261 45.4543,-3.39344 65.1875,-8.5625 15.55826,-4.07544 30.26638,-9.41152 45.1875,-13.90625 5.51492,-0.56725 10.91734,-1.23316 16.09375,-1.96875 1.29278,0.14008 2.5706,0.29563 3.75,0.40625 -0.48173,0.39564 -0.9407,0.79709 -1.4375,1.1875 -11.45562,9.00231 -83.06555,29.18198 -65.4375,25.71875 21.53599,-4.23097 54.86905,-11.96841 54.53125,-11.4375 -2.8093,4.41537 -17.12974,13.47144 -25.4375,20 -9.36334,7.35812 -16.28329,14.51989 -24.84375,20.875 -8.94191,0.69205 -18.03932,1.60314 -25.15625,2.46875 -4.53601,0.55169 6.56357,0.49427 22.875,-0.84375 -3.8143,2.66789 -7.9897,5.19655 -12.875,7.5 -9.14808,4.31338 -20.02915,7.56446 -30.78125,10 21.26895,-0.01 45.53126,-3.41213 65.3125,-8.59375 15.57976,-4.08108 30.33899,-9.40764 45.28125,-13.90625 7.99502,-0.82348 15.76686,-1.83717 22.9375,-3 3.9316,-0.63758 7.81433,-1.34626 11.65625,-2.0625 5.88952,2.04644 11.43163,6.0312 16.46875,9 10.65574,6.2803 37.86143,19.3228 49.0625,22.84375 20.26252,6.36926 60.36856,4.01358 83.59375,1.40625 28.13877,-3.15895 5.96173,-8.44846 -9.09375,-11.40625 -11.4502,-2.24952 -23.14974,-12.80252 -34.59375,-19.3125 10.67414,3.17647 22.08016,6.26895 28.40625,7.5 20.27789,3.94609 60.41344,2.49038 83.65625,0.875 28.16009,-1.95714 5.9732,-5.23 -9.09375,-7.0625 -15.72835,-1.91298 -31.91125,-13.56701 -47.28125,-15.0625 -17.31762,-1.68501 -26.33645,-3.11089 -36.0625,-6.6875 0.75227,-0.0802 1.52916,-0.16908 2.25,-0.25 4.10208,-0.46051 7.10832,-0.96207 9.25,-1.5 16.95423,2.19235 40.48081,4.65022 33.65625,0.5 -4.77869,-2.90603 -17.95387,-13.95283 -23.65625,-15.0625 -6.71519,-1.30679 -12.65795,-2.97427 -18,-5.25 21.17742,1.36296 49.16707,0.21685 67.125,-1.03125 28.16009,-1.95714 5.97323,-5.22998 -9.09375,-7.0625 -15.72834,-1.91298 -31.91127,-13.56699 -47.28125,-15.0625 -24.46647,-2.3806 -32.37148,-4.23953 -49.09375,-12.375 -7.88109,-3.83415 -32.57261,-14.75336 -23.65625,-11.5 9.79641,3.57448 21.79836,11.474 32.75,13.25 5.54674,0.8995 58.91726,8.63025 49.09375,2.65625 -4.77875,-2.90603 -17.92257,-13.92157 -23.625,-15.03125 -3.87294,-0.75368 -7.47795,-1.64011 -10.875,-2.6875 18.88558,0.42758 40.27213,-0.54323 54.9375,-1.5625 28.1601,-1.95714 5.97314,-5.22997 -9.09375,-7.0625 -15.72845,-1.91298 -31.91125,-13.56698 -47.28125,-15.0625 -18.45636,-1.79581 -27.52611,-3.28249 -38.03125,-7.40625 -1.01381,-1.26717 -1.8849,-2.37437 -2.65625,-3.3125 0.21831,0.04 0.43873,0.0897 0.65625,0.125 5.54665,0.8995 58.94858,8.63026 49.125,2.65625 -3.28532,-1.9979 -10.53169,-7.84336 -16.59375,-11.65625 2.74418,-0.25613 5.39321,-0.54091 7.8125,-0.8125 15.71377,-1.76408 15.72633,-4.21025 10.0625,-6.53125 14.1394,-0.179 28.21381,-0.83278 38.8125,-1.5625 28.42219,-1.95691 6.0509,-5.26144 -9.15625,-7.09375 -6.22238,-0.74974 -12.52526,-2.99081 -18.8125,-5.53125 16.86302,0.0794 34.70875,-0.73819 47.46875,-1.625 28.16009,-1.95714 5.97323,-5.22996 -9.09375,-7.0625 -8.05236,-0.97938 -16.22193,-4.52738 -24.34375,-7.9375 1.91934,-0.11617 3.91051,-0.22355 5.65625,-0.34375 28.42218,-1.95691 6.05089,-5.26146 -9.15625,-7.09375 -6.26187,-0.75449 -12.61045,-3.00219 -18.9375,-5.5625 7.52108,0.4213 12.09285,0.0342 8.59375,-2.09375 -1.9189,-1.16693 -5.18457,-3.63227 -8.78125,-6.25 5.23513,-0.25304 10.24966,-0.51556 14.5625,-0.8125 28.42217,-1.95691 6.01968,-5.26143 -9.1875,-7.09375 -14.86235,-1.79077 -30.1326,-12.1215 -44.75,-14.65625 -1.50314,-0.78632 -2.8271,-1.35446 -3.90625,-1.5625 -2.44262,-0.4709 -4.78004,-1.01389 -7.03125,-1.59375 -1.11347,-1.06789 -2.23858,-2.15156 -3.3125,-3.28125 4.05439,0.1425 8.26297,0.20354 12.53125,0.21875 2.91717,0.14419 5.36595,0.17653 6.96875,0 14.66974,-0.14481 29.40976,-0.86789 40.40625,-1.625 28.42217,-1.95691 6.01971,-5.26145 -9.1875,-7.09375 -11.12222,-1.34012 -22.45957,-7.41564 -33.59375,-11.46875 8.80017,-0.31264 17.11126,-0.74876 23.9375,-1.21875 28.42219,-1.95691 6.0509,-5.23017 -9.15625,-7.0625 -5.55909,-0.66981 -11.19503,-2.54917 -16.8125,-4.75 15.13568,-0.0992 30.5191,-0.83574 41.875,-1.625 28.16008,-1.95714 5.97317,-5.26121 -9.09375,-7.09375 -8.47278,-1.03051 -17.08523,-4.83858 -25.625,-8.40625 3.76081,-0.20158 7.31573,-0.43486 10.53125,-0.65625 28.42218,-1.95691 6.05089,-5.23019 -9.15625,-7.0625 -5.48731,-0.66116 -11.04887,-2.49263 -16.59375,-4.65625 3.63574,-0.11023 5.08973,-0.73889 2.65625,-2.21875 -4.72193,-2.87153 -17.59876,-13.64211 -23.40625,-14.96875 -0.0493,-0.3092 -0.44414,-0.68959 -1.21875,-1.15625 -1.56718,-0.94415 -4.06967,-2.77264 -6.875,-4.8125 21.79797,2.26545 54.95626,0.99531 75.3125,-0.40625 28.42218,-1.95691 6.05089,-5.23022 -9.15625,-7.0625 -15.87483,-1.91275 -32.23693,-13.56718 -47.75,-15.0625 -22.93319,-2.21058 -31.4445,-3.99322 -46.0625,-10.75 4.00842,1.03072 7.59638,1.89467 10.25,2.40625 9.49454,1.83039 23.33106,2.50005 37.75,2.53125 2.62066,0.11411 4.83302,0.13184 6.3125,-0.0312 14.66454,-0.14517 29.38245,-0.86815 40.375,-1.625 28.42219,-1.95691 6.05089,-5.23018 -9.15625,-7.0625 -15.87482,-1.91275 -32.20568,-13.56713 -47.71875,-15.0625 -19.28449,-1.85887 -28.40137,-3.41174 -39.5,-7.875 -1.20318,-1.03847 -2.38945,-2.13715 -3.5625,-3.28125 0.89621,0.21541 1.77177,0.42041 2.65625,0.5625 5.59827,0.89939 59.47747,8.62954 49.5625,2.65625 -4.82313,-2.90569 -18.08829,-13.95292 -23.84375,-15.0625 -11.88525,-2.29129 -21.43346,-5.75875 -29.375,-11.5 -10.94202,-7.9104 -21.86614,-23.23604 -25.71875,-27.40625 -15.9814,3.08095 -18.51803,1.60372 -27.53125,8.84375 -11.11874,8.93129 -19.1961,18.09964 -34.875,25.65625 -11.57102,5.57676 -83.86811,18.05168 -66.0625,15.90625 21.75293,-2.621 55.4037,-7.39138 55.0625,-7.0625 -2.83761,2.73523 -17.32731,8.33067 -25.71875,12.375 -14.34142,6.91197 -22.95562,13.55647 -40.375,18.59375 -9.23587,2.67079 -20.23832,4.67896 -31.09375,6.1875 21.48352,-0.006 45.98783,-2.10253 65.96875,-5.3125 12.44746,-1.99972 24.37297,-4.47988 36.28125,-6.8125 -24.07637,5.94054 -65.89919,13.31476 -51.875,11.625 21.75294,-2.621 55.43493,-7.39136 55.09375,-7.0625 -2.83761,2.73523 -17.3273,8.33069 -25.71875,12.375 -14.34142,6.91197 -22.95564,13.55649 -40.375,18.59375 -9.23587,2.67079 -20.23832,4.67896 -31.09375,6.1875 21.47627,-0.008 45.99724,-2.10402 65.96875,-5.3125 2.99746,-0.48155 5.96276,-1.00189 8.90625,-1.53125 -23.7651,6.00133 -67.80467,13.75859 -53.46875,12.03125 18.14907,-2.18677 44.31196,-5.83971 52.375,-6.8125 -0.59404,0.83307 -1.19033,1.66918 -1.78125,2.5 -5.70859,2.89642 -15.10265,6.66223 -21.25,9.625 -14.34142,6.91197 -22.95569,13.55652 -40.375,18.59375 -9.23587,2.67079 -20.23832,4.67896 -31.09375,6.1875 21.48353,-0.006 45.98784,-2.10248 65.96875,-5.3125 0.51461,-0.0827 1.01841,-0.1657 1.53125,-0.25 -0.35444,0.28491 -0.70007,0.56159 -1.0625,0.84375 -0.22002,0.17128 -0.51831,0.35212 -0.78125,0.53125 -13.64931,2.77156 -22.92882,4.60894 -15.28125,3.6875 3.43875,-0.41433 7.42886,-0.94374 11.28125,-1.4375 -11.51515,5.74064 -36.16295,13.74854 -51.3125,18.71875 -10.6396,0.69599 -22.1841,1.85682 -30.8125,2.90625 -4.74874,0.57758 7.68513,0.46635 25.25,-1.0625 -6.56555,2.20096 -9.62746,3.36601 -4.375,2.34375 5.71682,-1.11264 12.22199,-2.43027 18.75,-3.8125 2.53367,-0.30318 5.07745,-0.67029 7.65625,-1.03125 -0.9865,0 -2.09093,0.042 -3.15625,0.0625 16.60276,-3.54715 31.97991,-6.98299 31.75,-6.625 -0.25698,0.40011 -0.62776,0.84159 -1.0625,1.3125 -8.3992,2.21434 -17.97654,3.92326 -27.4375,5.25 7.14079,-0.002 14.6208,-0.25241 22.15625,-0.6875 -3.42124,2.64792 -7.62229,5.61184 -11.6875,8.5 -8.8093,2.39897 -19.00265,4.25392 -29.09375,5.65625 7.19721,-0.003 14.74976,-0.25318 22.34375,-0.6875 -0.28258,0.21561 -0.60447,0.44564 -0.875,0.65625 -9.45385,7.35982 -16.44943,14.48773 -25.09375,20.84375 -9.02094,0.69188 -18.19528,1.63491 -25.375,2.5 -4.57547,0.55128 6.61546,0.49177 23.0625,-0.84375 -3.84205,2.66012 -8.05032,5.17133 -12.96875,7.46875 -9.18933,4.29236 -20.13547,7.56841 -30.9375,10 21.43738,-0.0226 45.88542,-3.39136 65.8125,-8.5625 15.70334,-4.07504 30.56473,-9.412 45.625,-13.90625 7.46208,-0.76026 14.69293,-1.69647 21.46875,-2.75 -0.60893,0.5172 -1.24171,1.02249 -1.875,1.53125 -11.80283,2.39438 -19.00565,3.87912 -11.96875,3.03125 2.89493,-0.34881 6.2916,-0.77918 9.5,-1.1875 -15.08444,9.39967 -81.76221,28.02891 -64.59375,24.6875 21.73643,-4.23047 55.37221,-11.93707 55.03125,-11.40625 -1.93858,3.0184 -9.31947,8.18601 -16.46875,13.25 -7.95802,1.96163 -16.82188,3.50013 -25.59375,4.71875 6.38573,-0.002 13.05717,-0.18627 19.78125,-0.53125 -1.20338,0.88078 -2.35811,1.74652 -3.40625,2.5625 -9.45048,7.35725 -16.42237,14.48939 -25.0625,20.84375 -9.03097,0.69211 -18.21827,1.63392 -25.40625,2.5 -4.57576,0.55134 6.64497,0.49202 23.09375,-0.84375 -3.84473,2.66269 -8.04606,5.16935 -12.96875,7.46875 m 36.40625,191.03125 c -0.0309,1e-5 -0.0628,0 -0.0937,0 -13.11681,-2e-5 -33.75774,3.03679 -47.25,5.6875 -6.59309,1.29528 19.86616,0.53665 47.34375,-5.6875 z m -21.65625,-51.4375 c -0.0826,1e-4 -0.16748,0 -0.25,0 -13.11686,1e-5 -33.75774,3.06804 -47.25,5.71875 -6.60544,1.29773 19.96712,0.53763 47.5,-5.71875 z m -67.71875,-181 c -0.0724,8e-5 -0.14643,0 -0.21875,0 -13.23891,0 -34.06967,3.06836 -47.6875,5.71875 -6.66684,1.29754 20.11757,0.53662 47.90625,-5.71875 z m 53.90625,-134.40625 c -13.24891,-1e-5 -34.12184,1.88919 -47.75,3.53125 -6.65334,0.80165 20.0232,0.31468 47.75,-3.53125 z m 8.25,29.59375 c -13.24893,10e-6 -34.09059,1.88919 -47.71875,3.53125 -6.65089,0.80137 20.00298,0.31077 47.71875,-3.53125 z m -20.6875,35.28125 c -13.24891,-2e-5 -34.12184,1.88918 -47.75,3.53125 -6.65334,0.80164 20.0232,0.31468 47.75,-3.53125 z m 8.25,29.59375 c -13.24893,0 -34.09059,1.88918 -47.71875,3.53125 -6.65089,0.80136 20.00298,0.31077 47.71875,-3.53125 z m 27.125,49.34375 c -13.2489,0 -34.09058,1.92043 -47.71875,3.5625 -6.65215,0.8015 19.99733,0.28152 47.71875,-3.5625 z m 37.15625,25.625 c -5.02245,4.42122 -9.71602,8.67908 -15.03125,12.625 -8.94191,0.69206 -18.03932,1.60314 -25.15625,2.46875 -4.53597,0.55168 6.56373,0.49425 22.875,-0.84375 -3.8143,2.66789 -7.9897,5.16531 -12.875,7.46875 -4.6167,2.1768 -9.67027,4.10848 -14.9375,5.78125 -6.41498,0.57731 -12.59821,1.22301 -17.75,1.84375 -3.40842,0.41067 1.97667,0.47688 11.71875,-0.0625 -3.21325,0.89296 -6.48027,1.70205 -9.71875,2.4375 17.5899,-0.0162 37.20834,-2.32979 54.65625,-6.0625 19.18367,-0.47571 39.86262,-2.37797 57.15625,-5.15625 16.23222,-2.60775 31.57421,-6.06712 47.15625,-8.90625 0.87579,0.54269 1.74495,1.06223 2.59375,1.5625 2.73116,1.60969 6.54826,3.65039 10.90625,5.875 -6.87581,1.77124 -10.06344,3.01475 -16.375,11.28125 -0.80713,1.05713 -1.59608,2.09618 -2.375,3.15625 -22.42245,6.08713 -71.15511,14.68783 -56.25,12.875 17.99569,-2.18873 43.97094,-5.84309 51.9375,-6.8125 -0.58174,0.8235 -1.17131,1.64744 -1.75,2.46875 -5.65068,2.90007 -14.98444,6.68404 -21.09375,9.65625 -14.20918,6.91279 -22.74125,13.55592 -40,18.59375 -9.15067,2.6711 -20.05721,4.67878 -30.8125,6.1875 21.28517,-0.006 45.57867,-2.10218 65.375,-5.3125 0.5049,-0.0819 0.99682,-0.16652 1.5,-0.25 -0.35117,0.28494 -0.70341,0.56156 -1.0625,0.84375 -8.00915,6.29392 -44.92906,17.90102 -60.6875,23.21875 -6.55949,-5.22167 -12.41401,-10.90529 -19.59375,-16.75 4.65077,-0.48306 9.47587,-1.06405 14.375,-1.75 -4.54759,0 -10.03668,0.22787 -15.78125,0.59375 -0.26246,-0.20897 -0.5149,-0.41569 -0.78125,-0.625 -8.30778,-6.52862 -22.62813,-15.58463 -25.4375,-20 -0.33778,-0.53091 32.964,7.20653 54.5,11.4375 17.628,3.46324 -53.9506,-16.71643 -65.40625,-25.71875 -3.61318,-2.83939 -6.81928,-5.82255 -9.75,-8.90625 2.32355,-0.45713 4.64182,-0.96447 7,-1.5 -0.0619,6e-5 -0.12561,0 -0.1875,0 -2.41449,0 -5.1046,0.12667 -7.9375,0.3125 -26.93653,-25.15795 10.69385,-16.66603 42.8125,-24.21875 8.94317,-2.32076 17.59776,-5.06216 26.1875,-7.8125 z m 171.125,39.5 c 0.56439,0.0412 1.1161,0.0886 1.6875,0.125 4.81939,2.34787 9.75818,4.70698 14.65625,6.25 -0.63577,0.11244 -1.38046,0.24482 -1.96875,0.34375 -0.52436,-0.25075 -1.05176,-0.48632 -1.59375,-0.75 -2.87544,-1.39891 -7.8812,-3.71557 -12.78125,-5.96875 z m -21.4375,22.8125 c 1.0316,0.3847 2.0003,0.73962 3,1.125 -0.33359,0.29038 -0.66467,0.58555 -1,0.875 -0.6695,-0.65413 -1.35187,-1.30151 -2,-2 z m -32.71875,14.15625 c 0.16302,0.008 0.76128,0.31235 1.875,0.96875 0.36617,0.21582 0.75287,0.45293 1.125,0.6875 -0.15675,0.17664 -0.33969,0.37608 -0.5,0.5625 -1.65654,-1.301 -2.77309,-2.23289 -2.5,-2.21875 z m -67.25,9.5 c 0.0538,8.2e-4 0.0731,0.0147 0.0625,0.0312 -2.80937,4.41537 -17.12974,13.4714 -25.4375,20 -0.85231,0.66978 -1.68538,1.33397 -2.5,2 -1.23871,-0.52378 -2.47237,-1.03555 -3.65625,-1.59375 -6.53942,-3.08338 -11.80643,-6.54275 -16.625,-10.25 20.44561,-4.18597 46.64688,-10.21063 48.15625,-10.1875 z m 117.71875,22.84375 c 3.54625,0.79725 6.93679,2.046 10.1875,3.28125 -0.41628,0.3657 -0.83447,0.7289 -1.25,1.09375 -2.49189,-0.56729 -4.77979,-1.17692 -6.9375,-1.84375 -0.66826,-0.80103 -1.33413,-1.64798 -2,-2.53125 z m 15,50.53125 c 8.3184,0.27058 16.04556,3.88309 22.875,6.375 0.54636,0.19936 1.30854,0.43624 1.9375,0.65625 -10.72945,-1.86912 -18.00462,-3.771 -24.8125,-7.03125 z"
           style="fill:#f6f6f6;fill-opacity:1;fill-rule:evenodd;stroke:#000000;stroke-width:2.86987329;stroke-linecap:butt;stroke-linejoin:miter;stroke-opacity:1"
           inkscape:connector-curvature="0" />
      </g>
      <path
         style="fill:#f6f6f6;fill-opacity:1;fill-rule:evenodd;stroke:#000000;stroke-width:0.97868991;stroke-linecap:butt;stroke-linejoin:miter;stroke-opacity:1"
         d="m 397.44285,261.28129 c 0.57034,0.98177 2.18102,4.59639 3.80092,6.45869 1.17571,1.35164 2.59239,2.16764 4.35192,2.70706 0.85207,0.26122 2.81605,2.86159 3.5301,3.54566 1.46785,1.40626 -6.50688,-0.41353 -7.33569,-0.62527 -1.63642,-0.41807 -3.42978,-2.28494 -4.89358,-3.12636 -1.3323,-0.76584 2.35716,1.80452 3.53477,2.70706 2.49868,1.91506 3.67987,2.35264 7.3357,2.91303 2.29661,0.35203 4.7147,3.09535 7.06486,3.54566 2.25133,0.43137 5.56655,1.20178 1.35881,1.66248 -2.68332,0.2938 -6.86559,0.56359 -10.02997,0.24276 0.79823,0.53569 1.6862,0.92821 2.6896,1.23583 0.85207,0.26121 2.82073,2.86159 3.53477,3.54566 1.46784,1.40625 -6.5069,-0.41354 -7.33569,-0.62527 -1.63643,-0.41807 -3.42978,-2.28495 -4.89357,-3.12636 -1.33232,-0.76584 2.35715,1.8045 3.53476,2.70706 2.49869,1.91507 3.67987,2.36 7.3357,2.92039 2.2966,0.35203 4.71469,3.08799 7.06485,3.5383 2.25134,0.43137 5.56656,1.20178 1.35882,1.66248 -3.473,0.38025 -9.47014,0.72293 -12.5001,-0.20597 -0.94636,-0.29012 -2.65312,-1.02424 -4.24919,-1.77282 1.71197,1.53195 3.46076,4.02328 5.17375,4.55344 2.24961,0.69627 5.56335,1.94875 1.3588,2.69235 -3.47036,0.61375 -9.46309,1.16092 -12.49076,-0.33839 -1.67369,-0.82879 -5.73882,-3.89897 -7.33102,-5.37733 -0.75547,-0.70145 -1.58641,-1.63842 -2.47014,-2.11857 -0.57268,0.16799 -1.14643,0.33581 -1.73236,0.4855 -1.06852,0.27298 -2.22702,0.51249 -3.41802,0.7062 -2.23587,1.05986 -4.44419,2.31884 -6.77537,3.28083 -2.95001,1.21738 -6.56683,2.01021 -9.74045,2.01558 1.6005,-0.57261 3.21914,-1.34257 4.58072,-2.35396 0.73359,-0.54491 1.36094,-1.14133 1.93315,-1.77283 -2.43307,0.31536 -4.10442,0.33571 -3.42738,0.20597 1.06344,-0.20376 2.42299,-0.41872 3.75891,-0.58113 m -6.8454,4.50195 c -4.1125,1.47134 -8.07954,1.65155 -7.09288,1.34618 2.01604,-0.62396 5.10025,-1.34617 7.0602,-1.34618 0.0108,0 0.0219,2e-5 0.0327,0 z m 28.67971,-20.8473 c 0.1133,0.23662 0.22715,0.4656 0.34087,0.67677 0.18023,0.33469 0.36855,0.64605 0.56032,0.94158 0.20879,-0.28383 0.41841,-0.5664 0.62571,-0.8533 -0.48628,-0.29122 -0.99715,-0.57741 -1.5269,-0.76505 z m -4.28188,4.4799 c -0.0678,-0.006 0.36904,0.53668 0.97124,1.25054 0.0624,-0.0298 0.12442,-0.0593 0.18211,-0.0883 -0.30063,-0.3531 -0.59316,-0.67422 -0.87319,-0.93422 -0.16641,-0.15452 -0.2558,-0.22606 -0.28016,-0.22804 z m 6.52321,7.40763 c 1.02025,0.76972 2.11049,1.22126 3.72154,1.66249 -0.0991,-0.0545 -0.21793,-0.11264 -0.30351,-0.16184 -1.02047,-0.58659 -2.17506,-1.43727 -3.41803,-1.50065 z"
         id="path20521"
         sodipodi:nodetypes="cssssssssscssssssssscsssscscscscsccssccsccccccscccsc"
         inkscape:connector-curvature="0" />
      <path
         style="fill:#f6f6f6;fill-opacity:1;fill-rule:evenodd;stroke:#000000;stroke-width:0.97868991;stroke-linecap:butt;stroke-linejoin:miter;stroke-opacity:1"
         d="m 394.84224,295.85667 c 0.57035,0.98177 2.18103,4.59638 3.80093,6.45869 1.1757,1.35164 2.59238,2.16764 4.35192,2.70706 0.85206,0.26121 2.81604,2.86159 3.53009,3.54566 1.46786,1.40625 -6.50688,-0.41354 -7.33569,-0.62527 -1.63642,-0.41808 -3.42978,-2.28494 -4.89357,-3.12636 -1.3323,-0.76584 2.35715,1.80451 3.53477,2.70706 2.49867,1.91505 3.67986,2.35264 7.33569,2.91303 2.29662,0.35203 4.7147,3.09535 7.06487,3.54566 2.25133,0.43136 5.56654,1.20178 1.3588,1.66248 -2.68332,0.2938 -6.86559,0.56359 -10.02997,0.24276 0.79823,0.53569 1.68621,0.92821 2.68961,1.23583 0.85206,0.26121 2.82072,2.86159 3.53476,3.54565 1.46785,1.40625 -6.5069,-0.41353 -7.33569,-0.62527 -1.63643,-0.41806 -3.42978,-2.28494 -4.89357,-3.12636 -1.33231,-0.76583 2.35715,1.80451 3.53477,2.70707 2.49868,1.91506 3.67986,2.36 7.33569,2.92038 2.29661,0.35204 4.71469,3.08799 7.06486,3.5383 2.25134,0.43138 5.56655,1.20179 1.35881,1.66249 -3.47299,0.38025 -9.47013,0.72293 -12.50009,-0.20597 -0.94636,-0.29012 -2.65312,-1.02424 -4.2492,-1.77283 1.71197,1.53195 3.46076,4.02328 5.17375,4.55345 2.24961,0.69627 5.56336,1.94874 1.3588,2.69235 -3.47036,0.61375 -9.46309,1.16091 -12.49076,-0.33839 -1.67368,-0.8288 -5.73881,-3.89898 -7.33102,-5.37733 -0.75546,-0.70145 -1.5864,-1.63843 -2.47013,-2.11857 -0.57269,0.16799 -1.14643,0.33581 -1.73236,0.4855 -1.06853,0.27298 -2.22702,0.51248 -3.41803,0.7062 -2.23587,1.05986 -4.44419,2.31884 -6.77537,3.28083 -2.95001,1.21738 -6.56682,2.01021 -9.74045,2.01558 1.6005,-0.57261 3.21914,-1.34258 4.58073,-2.35396 0.73359,-0.54492 1.36093,-1.14133 1.93315,-1.77283 -2.43307,0.31536 -4.10443,0.3357 -3.42738,0.20597 1.06343,-0.20376 2.42299,-0.41873 3.75891,-0.58113 m -6.84541,4.50195 c -4.1125,1.47134 -8.07953,1.65155 -7.09287,1.34618 2.01603,-0.62397 5.10025,-1.34617 7.06019,-1.34618 0.0108,0 0.0219,2e-5 0.0327,0 z m 28.67971,-20.8473 c 0.1133,0.23662 0.22715,0.4656 0.34087,0.67677 0.18023,0.33469 0.36856,0.64605 0.56033,0.94158 0.20879,-0.28384 0.4184,-0.56641 0.6257,-0.85331 -0.48628,-0.29122 -0.99715,-0.5774 -1.5269,-0.76504 z m -4.28187,4.47989 c -0.0678,-0.006 0.36903,0.53668 0.97123,1.25054 0.0624,-0.0298 0.12443,-0.0593 0.18211,-0.0883 -0.30063,-0.3531 -0.59316,-0.67422 -0.87319,-0.93423 -0.1664,-0.15451 -0.2558,-0.22605 -0.28015,-0.22803 z m 6.5232,7.40763 c 1.02025,0.76973 2.1105,1.22126 3.72155,1.66249 -0.0991,-0.0545 -0.21794,-0.11264 -0.30351,-0.16183 -1.02047,-0.58659 -2.17507,-1.43727 -3.41804,-1.50066 z"
         id="path20533"
         sodipodi:nodetypes="cssssssssscssssssssscsssscscscscsccssccsccccccscccsc"
         inkscape:connector-curvature="0" />
      <path
         style="fill:#f6f6f6;fill-opacity:1;fill-rule:evenodd;stroke:#000000;stroke-width:0.97868991;stroke-linecap:butt;stroke-linejoin:miter;stroke-opacity:1"
         d="m 419.59343,320.52698 c 0.57035,0.98177 2.18103,4.59638 3.80092,6.45869 1.17571,1.35163 2.59239,2.16764 4.35192,2.70706 0.85207,0.26121 2.81605,2.86159 3.5301,3.54565 1.46786,1.40626 -6.50688,-0.41353 -7.33569,-0.62527 -1.63642,-0.41807 -3.42978,-2.28493 -4.89357,-3.12635 -1.3323,-0.76584 2.35715,1.80451 3.53476,2.70706 2.49868,1.91505 3.67987,2.35264 7.3357,2.91303 2.29661,0.35202 4.7147,3.09535 7.06486,3.54566 2.25133,0.43136 5.56655,1.20178 1.35881,1.66248 -2.68332,0.29379 -6.86559,0.56359 -10.02997,0.24276 0.79823,0.53569 1.6862,0.92821 2.6896,1.23583 0.85207,0.26121 2.82073,2.86159 3.53477,3.54565 1.46785,1.40625 -6.5069,-0.41353 -7.33569,-0.62527 -1.63643,-0.41806 -3.42978,-2.28494 -4.89357,-3.12636 -1.33231,-0.76583 2.35715,1.80451 3.53477,2.70706 2.49868,1.91507 3.67986,2.36001 7.33569,2.92039 2.2966,0.35204 4.71469,3.08799 7.06485,3.5383 2.25135,0.43138 5.56656,1.20178 1.35882,1.66249 -3.47299,0.38025 -9.47014,0.72293 -12.50009,-0.20598 -0.94637,-0.29011 -2.65312,-1.02423 -4.2492,-1.77282 1.71197,1.53195 3.46076,4.02328 5.17375,4.55345 2.24961,0.69627 5.56336,1.94874 1.3588,2.69235 -3.47036,0.61375 -9.46309,1.16091 -12.49076,-0.33839 -1.67368,-0.8288 -5.73881,-3.89898 -7.33102,-5.37733 -0.75547,-0.70145 -1.58641,-1.63843 -2.47013,-2.11857 -0.57269,0.16799 -1.14644,0.33581 -1.73236,0.4855 -1.06853,0.27298 -2.22702,0.51248 -3.41803,0.70619 -2.23587,1.05987 -4.44419,2.31885 -6.77537,3.28084 -2.95001,1.21738 -6.56683,2.01021 -9.74045,2.01558 1.6005,-0.57261 3.21914,-1.34258 4.58072,-2.35396 0.7336,-0.54492 1.36094,-1.14133 1.93315,-1.77284 -2.43307,0.31537 -4.10442,0.33571 -3.42737,0.20598 1.06343,-0.20376 2.42298,-0.41873 3.75891,-0.58113 m -6.84541,4.50195 c -4.1125,1.47134 -8.07953,1.65154 -7.09288,1.34618 2.01604,-0.62397 5.10026,-1.34617 7.0602,-1.34618 0.0108,0 0.0219,2e-5 0.0327,0 z m 28.67971,-20.8473 c 0.1133,0.23662 0.22715,0.46559 0.34087,0.67677 0.18023,0.33469 0.36856,0.64605 0.56033,0.94158 0.20879,-0.28384 0.4184,-0.56641 0.6257,-0.85331 -0.48628,-0.29122 -0.99715,-0.5774 -1.5269,-0.76504 z m -4.28188,4.47989 c -0.0678,-0.006 0.36904,0.53668 0.97124,1.25054 0.0624,-0.0298 0.12442,-0.0593 0.18211,-0.0883 -0.30063,-0.3531 -0.59316,-0.67422 -0.87319,-0.93423 -0.1664,-0.15451 -0.2558,-0.22605 -0.28016,-0.22804 z m 6.52321,7.40763 c 1.02025,0.76973 2.1105,1.22126 3.72154,1.66249 -0.0991,-0.0545 -0.21793,-0.11264 -0.30351,-0.16184 -1.02047,-0.58658 -2.17506,-1.43727 -3.41803,-1.50065 z"
         id="path20535"
         sodipodi:nodetypes="cssssssssscssssssssscsssscscscscsccssccsccccccscccsc"
         inkscape:connector-curvature="0" />
      <path
         style="fill:#f6f6f6;fill-opacity:1;fill-rule:evenodd;stroke:#000000;stroke-width:0.97868991;stroke-linecap:butt;stroke-linejoin:miter;stroke-opacity:1"
         d="m 414.54217,358.25804 c 0.57035,0.98177 2.18103,4.59638 3.80093,6.45869 1.1757,1.35164 2.59238,2.16764 4.35192,2.70706 0.85206,0.26121 2.81604,2.86159 3.53009,3.54566 1.46786,1.40625 -6.50688,-0.41354 -7.33569,-0.62527 -1.63642,-0.41808 -3.42978,-2.28494 -4.89357,-3.12636 -1.3323,-0.76584 2.35715,1.80451 3.53477,2.70706 2.49867,1.91505 3.67986,2.35264 7.33569,2.91303 2.29662,0.35203 4.7147,3.09535 7.06487,3.54566 2.25133,0.43136 5.56654,1.20178 1.3588,1.66248 -2.68332,0.2938 -6.86559,0.56359 -10.02997,0.24276 0.79823,0.53569 1.68621,0.92821 2.68961,1.23583 0.85206,0.26121 2.82072,2.86159 3.53476,3.54565 1.46785,1.40625 -6.5069,-0.41353 -7.33569,-0.62527 -1.63643,-0.41806 -3.42978,-2.28494 -4.89357,-3.12636 -1.33231,-0.76583 2.35715,1.80451 3.53477,2.70707 2.49868,1.91506 3.67986,2.36 7.33569,2.92038 2.29661,0.35204 4.71469,3.08799 7.06486,3.5383 2.25134,0.43138 5.56655,1.20179 1.35881,1.66249 -3.47299,0.38025 -9.47013,0.72293 -12.50009,-0.20597 -0.94636,-0.29012 -2.65312,-1.02424 -4.2492,-1.77283 1.71197,1.53195 3.46076,4.02328 5.17375,4.55345 2.24961,0.69627 5.56336,1.94874 1.3588,2.69235 -3.47036,0.61375 -9.46309,1.16091 -12.49076,-0.33839 -1.67368,-0.8288 -5.73881,-3.89898 -7.33102,-5.37733 -0.75546,-0.70145 -1.5864,-1.63843 -2.47013,-2.11857 -0.57269,0.16799 -1.14643,0.33581 -1.73236,0.4855 -1.06853,0.27298 -2.22702,0.51248 -3.41803,0.7062 -2.23587,1.05986 -4.44419,2.31884 -6.77537,3.28083 -2.95001,1.21738 -6.56682,2.01021 -9.74045,2.01558 1.6005,-0.57261 3.21914,-1.34258 4.58073,-2.35396 0.73359,-0.54492 1.36093,-1.14133 1.93315,-1.77283 -2.43307,0.31536 -4.10443,0.3357 -3.42738,0.20597 1.06343,-0.20376 2.42299,-0.41873 3.75891,-0.58113 m -6.84541,4.50195 c -4.1125,1.47134 -8.07953,1.65155 -7.09287,1.34618 2.01603,-0.62397 5.10025,-1.34617 7.06019,-1.34618 0.0108,0 0.0219,2e-5 0.0327,0 z m 28.67971,-20.8473 c 0.1133,0.23662 0.22715,0.4656 0.34087,0.67677 0.18023,0.33469 0.36856,0.64605 0.56033,0.94158 0.20879,-0.28383 0.4184,-0.56641 0.6257,-0.85331 -0.48628,-0.29122 -0.99715,-0.5774 -1.5269,-0.76504 z m -4.28187,4.47989 c -0.0678,-0.006 0.36903,0.53668 0.97123,1.25054 0.0624,-0.0298 0.12443,-0.0593 0.18211,-0.0883 -0.30063,-0.3531 -0.59316,-0.67422 -0.87318,-0.93423 -0.16641,-0.15451 -0.25581,-0.22605 -0.28016,-0.22803 z m 6.5232,7.40763 c 1.02025,0.76973 2.1105,1.22126 3.72155,1.66249 -0.0991,-0.0545 -0.21794,-0.11264 -0.30351,-0.16183 -1.02047,-0.58659 -2.17507,-1.43727 -3.41804,-1.50066 z"
         id="path20537"
         sodipodi:nodetypes="cssssssssscssssssssscsssscscscscsccssccsccccccscccsc"
         inkscape:connector-curvature="0" />
      <path
         style="fill:#f6f6f6;fill-opacity:1;fill-rule:evenodd;stroke:#000000;stroke-width:0.97868991;stroke-linecap:butt;stroke-linejoin:miter;stroke-opacity:1"
         d="m 411.5114,395.50537 c 0.57035,0.98177 2.18103,4.59639 3.80093,6.45869 1.1757,1.35164 2.59238,2.16765 4.35192,2.70706 0.85206,0.26122 2.81604,2.8616 3.53009,3.54566 1.46786,1.40626 -6.50688,-0.41353 -7.33569,-0.62527 -1.63642,-0.41807 -3.42978,-2.28494 -4.89357,-3.12636 -1.3323,-0.76583 2.35715,1.80452 3.53477,2.70706 2.49867,1.91506 3.67986,2.35264 7.33569,2.91304 2.29662,0.35202 4.71471,3.09534 7.06487,3.54565 2.25133,0.43137 5.56655,1.20178 1.3588,1.66249 -2.68331,0.29379 -6.86559,0.56359 -10.02997,0.24275 0.79823,0.5357 1.68621,0.92822 2.68961,1.23583 0.85206,0.26122 2.82073,2.86159 3.53477,3.54566 1.46784,1.40625 -6.50691,-0.41353 -7.3357,-0.62527 -1.63643,-0.41806 -3.42977,-2.28495 -4.89357,-3.12636 -1.33231,-0.76584 2.35715,1.80451 3.53477,2.70706 2.49869,1.91507 3.67986,2.36001 7.33569,2.92039 2.29661,0.35204 4.7147,3.08799 7.06486,3.5383 2.25134,0.43138 5.56656,1.20178 1.35881,1.66248 -3.47299,0.38025 -9.47013,0.72293 -12.50009,-0.20597 -0.94636,-0.29012 -2.65312,-1.02423 -4.2492,-1.77282 1.71197,1.53195 3.46076,4.02328 5.17375,4.55345 2.24961,0.69626 5.56336,1.94874 1.35881,2.69235 -3.47037,0.61374 -9.4631,1.16091 -12.49076,-0.33839 -1.67369,-0.8288 -5.73882,-3.89898 -7.33103,-5.37734 -0.75546,-0.70145 -1.5864,-1.63842 -2.47013,-2.11856 -0.57269,0.16798 -1.14643,0.33581 -1.73236,0.48549 -1.06853,0.27299 -2.22702,0.51249 -3.41803,0.7062 -2.23587,1.05987 -4.44419,2.31884 -6.77536,3.28083 -2.95002,1.21739 -6.56683,2.01021 -9.74045,2.01559 1.60049,-0.57262 3.21913,-1.34258 4.58072,-2.35396 0.73359,-0.54492 1.36093,-1.14133 1.93315,-1.77284 -2.43307,0.31537 -4.10443,0.33571 -3.42738,0.20597 1.06343,-0.20376 2.42299,-0.41872 3.75891,-0.58112 m -6.8454,4.50195 c -4.11251,1.47133 -8.07954,1.65154 -7.09288,1.34618 2.01604,-0.62397 5.10025,-1.34617 7.06019,-1.34618 0.0108,0 0.0219,2e-5 0.0327,0 z m 28.6797,-20.8473 c 0.1133,0.23662 0.22715,0.46559 0.34087,0.67676 0.18023,0.3347 0.36856,0.64606 0.56033,0.94159 0.20879,-0.28384 0.4184,-0.56641 0.6257,-0.85331 -0.48628,-0.29122 -0.99715,-0.5774 -1.5269,-0.76504 z m -4.28187,4.47989 c -0.0678,-0.006 0.36904,0.53668 0.97123,1.25054 0.0624,-0.0298 0.12443,-0.0593 0.18211,-0.0883 -0.30063,-0.3531 -0.59316,-0.67422 -0.87318,-0.93423 -0.16641,-0.15451 -0.25581,-0.22606 -0.28016,-0.22804 z m 6.5232,7.40763 c 1.02025,0.76972 2.1105,1.22126 3.72155,1.66249 -0.0991,-0.0545 -0.21793,-0.11264 -0.30351,-0.16184 -1.02047,-0.58659 -2.17507,-1.43727 -3.41804,-1.50065 z"
         id="path20539"
         sodipodi:nodetypes="cssssssssscssssssssscsssscscscscsccssccsccccccscccsc"
         inkscape:connector-curvature="0" />
      <path
         style="fill:#f6f6f6;fill-opacity:1;fill-rule:evenodd;stroke:#000000;stroke-width:0.97868991;stroke-linecap:butt;stroke-linejoin:miter;stroke-opacity:1"
         d="m 335.5118,363.57909 c -0.57035,0.98177 -2.18103,4.59638 -3.80093,6.45869 -1.1757,1.35163 -2.59238,2.16764 -4.35191,2.70706 -0.85207,0.26121 -2.81605,2.86159 -3.5301,3.54565 -1.46786,1.40626 6.50688,-0.41353 7.33569,-0.62527 1.63642,-0.41807 3.42978,-2.28493 4.89357,-3.12636 1.3323,-0.76583 -2.35715,1.80452 -3.53477,2.70707 -2.49867,1.91505 -3.67986,2.35263 -7.33569,2.91303 -2.29661,0.35202 -4.7147,3.09534 -7.06486,3.54565 -2.25134,0.43137 -5.56655,1.20179 -1.35881,1.66249 2.68332,0.29379 6.86559,0.56359 10.02997,0.24276 -0.79823,0.53569 -1.68621,0.92821 -2.6896,1.23582 -0.85207,0.26122 -2.82073,2.8616 -3.53477,3.54566 -1.46785,1.40625 6.5069,-0.41353 7.33569,-0.62527 1.63643,-0.41806 3.42978,-2.28494 4.89357,-3.12636 1.33231,-0.76583 -2.35715,1.80451 -3.53477,2.70706 -2.49868,1.91507 -3.67986,2.36001 -7.33569,2.92039 -2.29661,0.35204 -4.71469,3.08799 -7.06485,3.5383 -2.25135,0.43138 -5.56656,1.20178 -1.35882,1.66249 3.47299,0.38025 9.47013,0.72293 12.50009,-0.20598 0.94637,-0.29011 2.65312,-1.02423 4.2492,-1.77282 -1.71197,1.53195 -3.46076,4.02328 -5.17375,4.55345 -2.24961,0.69627 -5.56336,1.94874 -1.3588,2.69235 3.47036,0.61375 9.46309,1.16091 12.49076,-0.33839 1.67368,-0.8288 5.73881,-3.89898 7.33102,-5.37733 0.75546,-0.70145 1.58641,-1.63843 2.47013,-2.11857 0.57269,0.16799 1.14644,0.33581 1.73236,0.48549 1.06853,0.27299 2.22702,0.51249 3.41803,0.7062 2.23587,1.05987 4.44419,2.31884 6.77537,3.28084 2.95001,1.21738 6.56682,2.01021 9.74045,2.01558 -1.6005,-0.57261 -3.21914,-1.34258 -4.58072,-2.35396 -0.7336,-0.54492 -1.36094,-1.14133 -1.93315,-1.77284 2.43307,0.31537 4.10442,0.33571 3.42737,0.20598 -1.06343,-0.20376 -2.42299,-0.41873 -3.75891,-0.58113 m 6.84541,4.50195 c 4.1125,1.47134 8.07953,1.65154 7.09288,1.34618 -2.01604,-0.62397 -5.10026,-1.34617 -7.0602,-1.34618 -0.0108,0 -0.0219,2e-5 -0.0327,0 z m -28.67971,-20.8473 c -0.1133,0.23662 -0.22715,0.46559 -0.34087,0.67677 -0.18023,0.33469 -0.36856,0.64605 -0.56033,0.94158 -0.20879,-0.28384 -0.4184,-0.56641 -0.6257,-0.85331 0.48628,-0.29122 0.99715,-0.5774 1.5269,-0.76504 z m 4.28187,4.47989 c 0.0678,-0.006 -0.36903,0.53668 -0.97123,1.25054 -0.0624,-0.0298 -0.12442,-0.0593 -0.18211,-0.0883 0.30063,-0.3531 0.59316,-0.67422 0.87319,-0.93423 0.1664,-0.15451 0.2558,-0.22605 0.28015,-0.22804 z m -6.5232,7.40763 c -1.02025,0.76973 -2.1105,1.22126 -3.72154,1.66249 0.0991,-0.0545 0.21793,-0.11264 0.30351,-0.16184 1.02047,-0.58658 2.17506,-1.43727 3.41803,-1.50065 z"
         id="path20541"
         sodipodi:nodetypes="cssssssssscssssssssscsssscscscscsccssccsccccccscccsc"
         inkscape:connector-curvature="0" />
    </g>
  </g>
  <g
     inkscape:groupmode="layer"
     id="layer1"
     inkscape:label="Cover"
     style="display:inline"
     sodipodi:insensitive="true">
    <path
       d="m 2,2 v 257 c 0,286 298,398 298,398 0,0 298,-112 298,-398 V 2 z"
       id="shine"
       inkscape:connector-curvature="0"
       style="fill:url(#radialGradient3074);stroke:#000000;stroke-width:3" />
  </g>
</svg>
