<?xml version="1.0" encoding="UTF-8" standalone="no"?>
<svg
   xmlns:dc="http://purl.org/dc/elements/1.1/"
   xmlns:cc="http://creativecommons.org/ns#"
   xmlns:rdf="http://www.w3.org/1999/02/22-rdf-syntax-ns#"
   xmlns:svg="http://www.w3.org/2000/svg"
   xmlns="http://www.w3.org/2000/svg"
   xmlns:xlink="http://www.w3.org/1999/xlink"
   xmlns:sodipodi="http://sodipodi.sourceforge.net/DTD/sodipodi-0.dtd"
   xmlns:inkscape="http://www.inkscape.org/namespaces/inkscape"
   width="600"
   height="660"
   id="svg2"
   version="1.1"
   inkscape:version="0.48.2 r9819"
   sodipodi:docname="House_Edgerton.svg">
  <metadata
     id="metadata24">
    <rdf:RDF>
      <cc:Work
         rdf:about="">
        <dc:format>image/svg+xml</dc:format>
        <dc:type
           rdf:resource="http://purl.org/dc/dcmitype/StillImage" />
        <dc:title></dc:title>
      </cc:Work>
    </rdf:RDF>
  </metadata>
  <sodipodi:namedview
     pagecolor="#ffffff"
     bordercolor="#666666"
     borderopacity="1"
     objecttolerance="10"
     gridtolerance="10"
     guidetolerance="10"
     inkscape:pageopacity="0"
     inkscape:pageshadow="2"
     inkscape:window-width="1366"
     inkscape:window-height="715"
     id="namedview22"
     showgrid="false"
     inkscape:zoom="0.5"
     inkscape:cx="-90.864054"
     inkscape:cy="210.00586"
     inkscape:window-x="-8"
     inkscape:window-y="-8"
     inkscape:window-maximized="1"
     inkscape:current-layer="layer2" />
  <defs
     id="defs4">
    <inkscape:path-effect
       effect="spiro"
       id="path-effect3746"
       is_visible="true" />
    <linearGradient
       id="linearGradient4445">
      <stop
         style="stop-color:#cc0000;stop-opacity:1;"
         offset="0"
         id="stop4447" />
      <stop
         id="stop4461"
         offset="0.25"
         style="stop-color:#ffff00;stop-opacity:1;" />
      <stop
         id="stop4459"
         offset="0.5"
         style="stop-color:#cc0000;stop-opacity:0.78431374;" />
      <stop
         style="stop-color:#ffff00;stop-opacity:1;"
         offset="0.75"
         id="stop4474" />
      <stop
         style="stop-color:#cc0000;stop-opacity:1;"
         offset="1"
         id="stop4449" />
    </linearGradient>
    <inkscape:path-effect
       effect="spiro"
       id="path-effect3059"
       is_visible="true" />
    <inkscape:path-effect
       effect="spiro"
       id="path-effect4012"
       is_visible="true" />
    <inkscape:path-effect
       effect="spiro"
       id="path-effect3980"
       is_visible="true" />
    <radialGradient
       id="rg"
       gradientUnits="userSpaceOnUse"
       cx="220"
       cy="220"
       r="405">
      <stop
         style="stop-color:#fff;stop-opacity:.3"
         offset="0"
         id="stop7" />
      <stop
         style="stop-color:#fff;stop-opacity:.2"
         offset=".2"
         id="stop9" />
      <stop
         style="stop-color:#666;stop-opacity:.1"
         offset=".6"
         id="stop11" />
      <stop
         style="stop-color:#000;stop-opacity:.13"
         offset="1"
         id="stop13" />
    </radialGradient>
    <path
       id="shield"
       d="m2,2v257c0,286 298,398 298,398c0,0 298-112 298-398V2z" />
    <radialGradient
       inkscape:collect="always"
       xlink:href="#rg-7"
       id="radialGradient3055-1"
       gradientUnits="userSpaceOnUse"
       cx="220"
       cy="220"
       r="405" />
    <radialGradient
       id="rg-7"
       gradientUnits="userSpaceOnUse"
       cx="220"
       cy="220"
       r="405">
      <stop
         style="stop-color:#fff;stop-opacity:.3"
         offset="0"
         id="stop7-4" />
      <stop
         style="stop-color:#fff;stop-opacity:.2"
         offset=".2"
         id="stop9-0" />
      <stop
         style="stop-color:#666;stop-opacity:.1"
         offset=".6"
         id="stop11-9" />
      <stop
         style="stop-color:#000;stop-opacity:.13"
         offset="1"
         id="stop13-4" />
    </radialGradient>
    <radialGradient
       r="405"
       cy="220"
       cx="220"
       gradientUnits="userSpaceOnUse"
       id="radialGradient3074"
       xlink:href="#rg-7"
       inkscape:collect="always" />
    <radialGradient
       inkscape:collect="always"
       xlink:href="#linearGradient4445"
       id="radialGradient4457"
       cx="273.65625"
       cy="280.40402"
       fx="273.65625"
       fy="280.40402"
       r="271.15625"
       gradientTransform="matrix(1,0,0,1.0267292,0,-7.494966)"
       gradientUnits="userSpaceOnUse" />
    <radialGradient
       inkscape:collect="always"
       xlink:href="#linearGradient4445"
       id="radialGradient4504"
       gradientUnits="userSpaceOnUse"
       gradientTransform="matrix(-1,0,0,1.0267292,601,-7.494966)"
       cx="273.65625"
       cy="280.40402"
       fx="273.65625"
       fy="280.40402"
       r="271.15625" />
    <linearGradient
       id="linearGradient4445-7">
      <stop
         style="stop-color:#cc0000;stop-opacity:1;"
         offset="0"
         id="stop4447-4" />
      <stop
         id="stop4461-0"
         offset="0.25"
         style="stop-color:#ffff00;stop-opacity:1;" />
      <stop
         id="stop4459-9"
         offset="0.5"
         style="stop-color:#cc0000;stop-opacity:0.78431374;" />
      <stop
         style="stop-color:#ffff00;stop-opacity:1;"
         offset="0.75"
         id="stop4474-4" />
      <stop
         style="stop-color:#cc0000;stop-opacity:1;"
         offset="1"
         id="stop4449-8" />
    </linearGradient>
    <linearGradient
       id="linearGradient3068">
      <stop
         style="stop-color:#cc0000;stop-opacity:1;"
         offset="0"
         id="stop3070" />
      <stop
         id="stop3072"
         offset="0.25"
         style="stop-color:#ffff00;stop-opacity:1;" />
      <stop
         id="stop3074"
         offset="0.5"
         style="stop-color:#cc0000;stop-opacity:0.78431374;" />
      <stop
         style="stop-color:#ffff00;stop-opacity:1;"
         offset="0.75"
         id="stop3076" />
      <stop
         style="stop-color:#cc0000;stop-opacity:1;"
         offset="1"
         id="stop3078" />
    </linearGradient>
    <linearGradient
       inkscape:collect="always"
       xlink:href="#linearGradient3068"
       id="linearGradient4189"
       x1="194.31854"
       y1="980.33984"
       x2="-11.083381"
       y2="978.98187"
       gradientUnits="userSpaceOnUse" />
    <linearGradient
       inkscape:collect="always"
       xlink:href="#linearGradient3068"
       id="linearGradient4213"
       x1="45.517525"
       y1="910.06415"
       x2="144.50755"
       y2="910.06415"
       gradientUnits="userSpaceOnUse" />
    <linearGradient
       inkscape:collect="always"
       xlink:href="#linearGradient3068"
       id="linearGradient4288"
       gradientUnits="userSpaceOnUse"
       x1="194.31854"
       y1="980.33984"
       x2="-11.083381"
       y2="978.98187" />
    <linearGradient
       inkscape:collect="always"
       xlink:href="#linearGradient3068"
       id="linearGradient4290"
       gradientUnits="userSpaceOnUse"
       x1="45.517525"
       y1="910.06415"
       x2="144.50755"
       y2="910.06415" />
    <linearGradient
       inkscape:collect="always"
       xlink:href="#linearGradient3068"
       id="linearGradient4292"
       gradientUnits="userSpaceOnUse"
       x1="194.31854"
       y1="980.33984"
       x2="-11.083381"
       y2="978.98187" />
    <linearGradient
       inkscape:collect="always"
       xlink:href="#linearGradient3068"
       id="linearGradient4294"
       gradientUnits="userSpaceOnUse"
       x1="45.517525"
       y1="910.06415"
       x2="144.50755"
       y2="910.06415" />
    <linearGradient
       inkscape:collect="always"
       xlink:href="#linearGradient3068"
       id="linearGradient4296"
       gradientUnits="userSpaceOnUse"
       x1="194.31854"
       y1="980.33984"
       x2="-11.083381"
       y2="978.98187" />
    <linearGradient
       inkscape:collect="always"
       xlink:href="#linearGradient3068"
       id="linearGradient4298"
       gradientUnits="userSpaceOnUse"
       x1="45.517525"
       y1="910.06415"
       x2="144.50755"
       y2="910.06415" />
    <linearGradient
       inkscape:collect="always"
       xlink:href="#linearGradient3068"
       id="linearGradient4444"
       gradientUnits="userSpaceOnUse"
       x1="194.31854"
       y1="980.33984"
       x2="-11.083381"
       y2="978.98187" />
    <linearGradient
       inkscape:collect="always"
       xlink:href="#linearGradient3068"
       id="linearGradient4446"
       gradientUnits="userSpaceOnUse"
       x1="45.517525"
       y1="910.06415"
       x2="144.50755"
       y2="910.06415" />
    <linearGradient
       inkscape:collect="always"
       xlink:href="#linearGradient3068"
       id="linearGradient4448"
       gradientUnits="userSpaceOnUse"
       x1="194.31854"
       y1="980.33984"
       x2="-11.083381"
       y2="978.98187" />
    <linearGradient
       inkscape:collect="always"
       xlink:href="#linearGradient3068"
       id="linearGradient4450"
       gradientUnits="userSpaceOnUse"
       x1="45.517525"
       y1="910.06415"
       x2="144.50755"
       y2="910.06415" />
    <linearGradient
       inkscape:collect="always"
       xlink:href="#linearGradient3068"
       id="linearGradient4452"
       gradientUnits="userSpaceOnUse"
       x1="194.31854"
       y1="980.33984"
       x2="-11.083381"
       y2="978.98187" />
    <linearGradient
       inkscape:collect="always"
       xlink:href="#linearGradient3068"
       id="linearGradient4454"
       gradientUnits="userSpaceOnUse"
       x1="45.517525"
       y1="910.06415"
       x2="144.50755"
       y2="910.06415" />
    <linearGradient
       inkscape:collect="always"
       xlink:href="#linearGradient3068"
       id="linearGradient4600"
       gradientUnits="userSpaceOnUse"
       x1="194.31854"
       y1="980.33984"
       x2="-11.083381"
       y2="978.98187" />
    <linearGradient
       inkscape:collect="always"
       xlink:href="#linearGradient3068"
       id="linearGradient4602"
       gradientUnits="userSpaceOnUse"
       x1="45.517525"
       y1="910.06415"
       x2="144.50755"
       y2="910.06415" />
    <linearGradient
       inkscape:collect="always"
       xlink:href="#linearGradient3068"
       id="linearGradient4604"
       gradientUnits="userSpaceOnUse"
       x1="194.31854"
       y1="980.33984"
       x2="-11.083381"
       y2="978.98187" />
    <linearGradient
       inkscape:collect="always"
       xlink:href="#linearGradient3068"
       id="linearGradient4606"
       gradientUnits="userSpaceOnUse"
       x1="45.517525"
       y1="910.06415"
       x2="144.50755"
       y2="910.06415" />
    <linearGradient
       inkscape:collect="always"
       xlink:href="#linearGradient3068"
       id="linearGradient4608"
       gradientUnits="userSpaceOnUse"
       x1="194.31854"
       y1="980.33984"
       x2="-11.083381"
       y2="978.98187" />
    <linearGradient
       inkscape:collect="always"
       xlink:href="#linearGradient3068"
       id="linearGradient4610"
       gradientUnits="userSpaceOnUse"
       x1="45.517525"
       y1="910.06415"
       x2="144.50755"
       y2="910.06415" />
    <linearGradient
       inkscape:collect="always"
       xlink:href="#linearGradient3068"
       id="linearGradient4764"
       gradientUnits="userSpaceOnUse"
       x1="194.31854"
       y1="980.33984"
       x2="-11.083381"
       y2="978.98187" />
    <linearGradient
       inkscape:collect="always"
       xlink:href="#linearGradient3068"
       id="linearGradient4766"
       gradientUnits="userSpaceOnUse"
       x1="45.517525"
       y1="910.06415"
       x2="144.50755"
       y2="910.06415" />
    <linearGradient
       inkscape:collect="always"
       xlink:href="#linearGradient3068"
       id="linearGradient4912"
       gradientUnits="userSpaceOnUse"
       x1="194.31854"
       y1="980.33984"
       x2="-11.083381"
       y2="978.98187" />
    <linearGradient
       inkscape:collect="always"
       xlink:href="#linearGradient3068"
       id="linearGradient4914"
       gradientUnits="userSpaceOnUse"
       x1="45.517525"
       y1="910.06415"
       x2="144.50755"
       y2="910.06415" />
    <linearGradient
       inkscape:collect="always"
       xlink:href="#linearGradient3068"
       id="linearGradient4916"
       gradientUnits="userSpaceOnUse"
       x1="194.31854"
       y1="980.33984"
       x2="-11.083381"
       y2="978.98187" />
    <linearGradient
       inkscape:collect="always"
       xlink:href="#linearGradient3068"
       id="linearGradient4918"
       gradientUnits="userSpaceOnUse"
       x1="45.517525"
       y1="910.06415"
       x2="144.50755"
       y2="910.06415" />
    <linearGradient
       inkscape:collect="always"
       xlink:href="#linearGradient3068"
       id="linearGradient4920"
       gradientUnits="userSpaceOnUse"
       x1="194.31854"
       y1="980.33984"
       x2="-11.083381"
       y2="978.98187" />
    <linearGradient
       inkscape:collect="always"
       xlink:href="#linearGradient3068"
       id="linearGradient4922"
       gradientUnits="userSpaceOnUse"
       x1="45.517525"
       y1="910.06415"
       x2="144.50755"
       y2="910.06415" />
    <linearGradient
       inkscape:collect="always"
       xlink:href="#linearGradient3068"
       id="linearGradient5068"
       gradientUnits="userSpaceOnUse"
       x1="194.31854"
       y1="980.33984"
       x2="-11.083381"
       y2="978.98187" />
    <linearGradient
       inkscape:collect="always"
       xlink:href="#linearGradient3068"
       id="linearGradient5070"
       gradientUnits="userSpaceOnUse"
       x1="45.517525"
       y1="910.06415"
       x2="144.50755"
       y2="910.06415" />
    <linearGradient
       inkscape:collect="always"
       xlink:href="#linearGradient3068"
       id="linearGradient5072"
       gradientUnits="userSpaceOnUse"
       x1="194.31854"
       y1="980.33984"
       x2="-11.083381"
       y2="978.98187" />
    <linearGradient
       inkscape:collect="always"
       xlink:href="#linearGradient3068"
       id="linearGradient5074"
       gradientUnits="userSpaceOnUse"
       x1="45.517525"
       y1="910.06415"
       x2="144.50755"
       y2="910.06415" />
    <linearGradient
       inkscape:collect="always"
       xlink:href="#linearGradient3068"
       id="linearGradient5076"
       gradientUnits="userSpaceOnUse"
       x1="194.31854"
       y1="980.33984"
       x2="-11.083381"
       y2="978.98187" />
    <linearGradient
       inkscape:collect="always"
       xlink:href="#linearGradient3068"
       id="linearGradient5078"
       gradientUnits="userSpaceOnUse"
       x1="45.517525"
       y1="910.06415"
       x2="144.50755"
       y2="910.06415" />
    <linearGradient
       inkscape:collect="always"
       xlink:href="#linearGradient3068"
       id="linearGradient5232"
       gradientUnits="userSpaceOnUse"
       x1="194.31854"
       y1="980.33984"
       x2="-11.083381"
       y2="978.98187" />
    <linearGradient
       inkscape:collect="always"
       xlink:href="#linearGradient3068"
       id="linearGradient5234"
       gradientUnits="userSpaceOnUse"
       x1="45.517525"
       y1="910.06415"
       x2="144.50755"
       y2="910.06415" />
    <linearGradient
       inkscape:collect="always"
       xlink:href="#linearGradient3068"
       id="linearGradient5388"
       gradientUnits="userSpaceOnUse"
       x1="194.31854"
       y1="980.33984"
       x2="-11.083381"
       y2="978.98187" />
    <linearGradient
       inkscape:collect="always"
       xlink:href="#linearGradient3068"
       id="linearGradient5390"
       gradientUnits="userSpaceOnUse"
       x1="45.517525"
       y1="910.06415"
       x2="144.50755"
       y2="910.06415" />
    <linearGradient
       inkscape:collect="always"
       xlink:href="#linearGradient3068"
       id="linearGradient5852"
       gradientUnits="userSpaceOnUse"
       x1="194.31854"
       y1="980.33984"
       x2="-11.083381"
       y2="978.98187" />
    <linearGradient
       inkscape:collect="always"
       xlink:href="#linearGradient3068"
       id="linearGradient5854"
       gradientUnits="userSpaceOnUse"
       x1="45.517525"
       y1="910.06415"
       x2="144.50755"
       y2="910.06415" />
    <linearGradient
       inkscape:collect="always"
       xlink:href="#linearGradient3068"
       id="linearGradient5856"
       gradientUnits="userSpaceOnUse"
       x1="194.31854"
       y1="980.33984"
       x2="-11.083381"
       y2="978.98187" />
    <linearGradient
       inkscape:collect="always"
       xlink:href="#linearGradient3068"
       id="linearGradient5858"
       gradientUnits="userSpaceOnUse"
       x1="45.517525"
       y1="910.06415"
       x2="144.50755"
       y2="910.06415" />
    <linearGradient
       inkscape:collect="always"
       xlink:href="#linearGradient3068"
       id="linearGradient5860"
       gradientUnits="userSpaceOnUse"
       x1="194.31854"
       y1="980.33984"
       x2="-11.083381"
       y2="978.98187" />
    <linearGradient
       inkscape:collect="always"
       xlink:href="#linearGradient3068"
       id="linearGradient5862"
       gradientUnits="userSpaceOnUse"
       x1="45.517525"
       y1="910.06415"
       x2="144.50755"
       y2="910.06415" />
    <linearGradient
       inkscape:collect="always"
       xlink:href="#linearGradient3068"
       id="linearGradient6008"
       gradientUnits="userSpaceOnUse"
       x1="194.31854"
       y1="980.33984"
       x2="-11.083381"
       y2="978.98187" />
    <linearGradient
       inkscape:collect="always"
       xlink:href="#linearGradient3068"
       id="linearGradient6010"
       gradientUnits="userSpaceOnUse"
       x1="45.517525"
       y1="910.06415"
       x2="144.50755"
       y2="910.06415" />
    <linearGradient
       inkscape:collect="always"
       xlink:href="#linearGradient3068"
       id="linearGradient6012"
       gradientUnits="userSpaceOnUse"
       x1="194.31854"
       y1="980.33984"
       x2="-11.083381"
       y2="978.98187" />
    <linearGradient
       inkscape:collect="always"
       xlink:href="#linearGradient3068"
       id="linearGradient6014"
       gradientUnits="userSpaceOnUse"
       x1="45.517525"
       y1="910.06415"
       x2="144.50755"
       y2="910.06415" />
    <linearGradient
       inkscape:collect="always"
       xlink:href="#linearGradient3068"
       id="linearGradient6016"
       gradientUnits="userSpaceOnUse"
       x1="194.31854"
       y1="980.33984"
       x2="-11.083381"
       y2="978.98187" />
    <linearGradient
       inkscape:collect="always"
       xlink:href="#linearGradient3068"
       id="linearGradient6018"
       gradientUnits="userSpaceOnUse"
       x1="45.517525"
       y1="910.06415"
       x2="144.50755"
       y2="910.06415" />
    <linearGradient
       inkscape:collect="always"
       xlink:href="#linearGradient3068"
       id="linearGradient6164"
       gradientUnits="userSpaceOnUse"
       x1="194.31854"
       y1="980.33984"
       x2="-11.083381"
       y2="978.98187" />
    <linearGradient
       inkscape:collect="always"
       xlink:href="#linearGradient3068"
       id="linearGradient6166"
       gradientUnits="userSpaceOnUse"
       x1="45.517525"
       y1="910.06415"
       x2="144.50755"
       y2="910.06415" />
    <linearGradient
       inkscape:collect="always"
       xlink:href="#linearGradient3068"
       id="linearGradient6168"
       gradientUnits="userSpaceOnUse"
       x1="194.31854"
       y1="980.33984"
       x2="-11.083381"
       y2="978.98187" />
    <linearGradient
       inkscape:collect="always"
       xlink:href="#linearGradient3068"
       id="linearGradient6170"
       gradientUnits="userSpaceOnUse"
       x1="45.517525"
       y1="910.06415"
       x2="144.50755"
       y2="910.06415" />
    <linearGradient
       inkscape:collect="always"
       xlink:href="#linearGradient3068"
       id="linearGradient6172"
       gradientUnits="userSpaceOnUse"
       x1="194.31854"
       y1="980.33984"
       x2="-11.083381"
       y2="978.98187" />
    <linearGradient
       inkscape:collect="always"
       xlink:href="#linearGradient3068"
       id="linearGradient6174"
       gradientUnits="userSpaceOnUse"
       x1="45.517525"
       y1="910.06415"
       x2="144.50755"
       y2="910.06415" />
    <linearGradient
       inkscape:collect="always"
       xlink:href="#linearGradient3068"
       id="linearGradient6320"
       gradientUnits="userSpaceOnUse"
       x1="194.31854"
       y1="980.33984"
       x2="-11.083381"
       y2="978.98187" />
    <linearGradient
       inkscape:collect="always"
       xlink:href="#linearGradient3068"
       id="linearGradient6322"
       gradientUnits="userSpaceOnUse"
       x1="45.517525"
       y1="910.06415"
       x2="144.50755"
       y2="910.06415" />
    <linearGradient
       inkscape:collect="always"
       xlink:href="#linearGradient3068"
       id="linearGradient6324"
       gradientUnits="userSpaceOnUse"
       x1="194.31854"
       y1="980.33984"
       x2="-11.083381"
       y2="978.98187" />
    <linearGradient
       inkscape:collect="always"
       xlink:href="#linearGradient3068"
       id="linearGradient6326"
       gradientUnits="userSpaceOnUse"
       x1="45.517525"
       y1="910.06415"
       x2="144.50755"
       y2="910.06415" />
    <linearGradient
       inkscape:collect="always"
       xlink:href="#linearGradient3068"
       id="linearGradient6328"
       gradientUnits="userSpaceOnUse"
       x1="194.31854"
       y1="980.33984"
       x2="-11.083381"
       y2="978.98187" />
    <linearGradient
       inkscape:collect="always"
       xlink:href="#linearGradient3068"
       id="linearGradient6330"
       gradientUnits="userSpaceOnUse"
       x1="45.517525"
       y1="910.06415"
       x2="144.50755"
       y2="910.06415" />
  </defs>
  <g
     inkscape:groupmode="layer"
     id="layer2"
     inkscape:label="Elements"
     style="display:inline">
    <path
       inkscape:connector-curvature="0"
       d="m 598.5,2 v 257 c 0,286 -298,398 -298,398 0,0 -298,-112 -298,-398 V 2 z"
       id="path13"
       style="fill:#000000;fill-opacity:1;stroke:none;display:inline" />
    <path
       style="fill:#ffff00"
       d="m 305.81537,589.43203 c 0.32256,-1.9334 4.11333,-42.02047 4.11199,-43.48399 0,-2.10837 -1.22625,-1.31713 -3.49749,2.26031 -1.2027,1.89435 -2.35739,3.44427 -2.56594,3.44427 -0.4069,0 -0.47626,-0.23903 -1.49908,-5.16641 -4.38684,-21.13356 -6.62038,-32.45942 -6.43732,-32.64248 0.35023,-0.35024 2.44631,0.44758 10.97223,4.17623 4.37367,1.91277 8.10494,3.32493 8.29175,3.13812 0.32759,-0.3276 -1.27714,-9.89067 -9.61048,-57.27173 -2.13877,-12.1604 -3.76834,-22.23013 -3.62123,-22.3772 0.14708,-0.14707 3.8222,1.56835 8.16699,3.81208 4.34478,2.24369 8.02288,3.95803 8.17352,3.80967 0.33018,-0.32518 -16.01593,-89.9917 -16.49223,-90.468 -0.36337,-0.36337 -8.65882,1.21583 -9.19305,1.75008 -0.18048,0.18048 -0.0462,1.87119 0.29836,3.75714 2.2588,12.36289 9.40156,51.89573 10.33384,57.19449 0.61997,3.52367 1.06863,6.77588 0.99703,7.22708 -0.11017,0.69433 -1.50786,-0.009 -9.09216,-4.57692 -4.92909,-2.9685 -9.14294,-5.39731 -9.36413,-5.39731 -0.59993,0 -0.53116,0.55155 1.08151,8.67316 5.64456,28.42686 14.87665,75.64831 14.87665,76.09306 0,0.75739 -0.66944,0.5023 -10.87964,-4.14575 -4.91823,-2.23895 -9.20493,-3.97 -9.52601,-3.84683 -0.64581,0.24786 -0.72334,-0.16468 7.03344,37.42542 2.38204,11.54362 4.33099,21.37596 4.33099,21.84963 0,0.47372 -0.2113,0.86128 -0.46956,0.86128 -0.25825,0 -2.32901,-1.35618 -4.60169,-3.01374 -6.25138,-4.5594 -6.61489,-4.12095 -2.61309,3.15169 14.85549,26.99753 19.54642,35.16588 20.1952,35.16588 0.2014,0 0.47122,-0.62965 0.5996,-1.39923 z"
       id="path3010"
       inkscape:connector-curvature="0" />
    <path
       style="fill:#ffff00"
       d="m 147.04526,525.23718 c 0.66842,-0.79442 7.1244,-7.90896 14.34662,-15.81009 15.98633,-17.48905 15.30627,-16.69234 14.73555,-17.26306 -0.31753,-0.31756 -1.62866,-0.0332 -4.37493,0.94933 -2.15683,0.77152 -4.04256,1.28175 -4.19051,1.13377 -0.14794,-0.14793 2.50008,-6.13348 5.8845,-13.30123 3.38441,-7.16772 7.03062,-14.92121 8.10267,-17.22995 1.07206,-2.30874 2.19495,-4.19771 2.49531,-4.19771 0.30036,0 2.73697,3.87821 5.4147,8.61826 3.03028,5.36412 5.09096,8.57479 5.45751,8.50306 0.42102,-0.0824 35.26509,-67.46002 36.79669,-71.15341 0.37354,-0.90076 1.43687,0.87024 4.84063,8.06219 1.92496,4.06731 3.71673,7.46741 3.98171,7.55571 0.4367,0.14557 41.40583,-81.15985 41.40583,-82.17208 0,-0.44267 -7.53331,-4.26875 -8.40493,-4.26875 -0.2764,0 -7.51994,13.94932 -16.09677,30.99849 -8.57682,17.04917 -15.75352,30.99849 -15.94821,30.99849 -0.39087,0 -1.28919,-2.0543 -5.36564,-12.27024 -1.51181,-3.7887 -3.01605,-6.94297 -3.34276,-7.00949 -0.39235,-0.0799 -2.07399,2.98968 -4.95314,9.04123 -2.39752,5.03919 -6.80525,14.19941 -9.79496,20.35606 -2.98971,6.15664 -9.36481,19.33057 -14.1669,29.27544 -4.90965,10.16759 -9.00241,18.12946 -9.35103,18.19112 -0.40754,0.072 -2.31061,-2.99639 -5.55401,-8.95508 -2.71373,-4.98559 -5.17265,-9.26273 -5.46427,-9.50474 -0.6621,-0.54949 0.25295,-2.36144 -13.29056,26.31694 -6.09458,12.90527 -11.65536,24.67501 -12.35729,26.15497 -0.70193,1.47997 -1.44505,2.69085 -1.65137,2.69085 -0.20633,0 -1.07907,-2.27646 -1.93942,-5.05879 -1.71041,-5.53137 -2.41449,-6.76524 -3.09955,-5.43192 -0.2271,0.44203 -0.53107,1.67551 -0.67549,2.74108 -0.14442,1.06558 -1.43057,10.40831 -2.85813,20.76163 -2.57416,18.66914 -2.96595,22.72236 -2.19635,22.72236 0.21955,0 0.94608,-0.64998 1.6145,-1.44444 z"
       id="path3008"
       inkscape:connector-curvature="0" />
    <path
       style="fill:#ffff00"
       d="m 506.89626,469.41984 c 0.14655,-0.23714 -0.37478,-1.02842 -1.15857,-1.75839 -7.01453,-6.53276 -32.79166,-29.91689 -33.1016,-30.02866 -0.97146,-0.35024 -0.79976,1.45155 0.46575,4.88738 0.75262,2.04336 1.25393,3.82969 1.11405,3.96962 -0.23649,0.23649 -11.43345,-4.87916 -28.2103,-12.8887 -5.56612,-2.65734 -6.96291,-3.48974 -6.55489,-3.90624 0.28519,-0.29113 4.23229,-2.66044 8.77128,-5.26518 4.53904,-2.60473 8.32124,-4.95691 8.4049,-5.22712 0.15279,-0.49326 -3.82608,-2.56908 -47.78529,-24.93023 -12.96447,-6.59475 -23.57176,-12.19506 -23.57176,-12.44511 0,-0.2501 3.48733,-2.13292 7.74962,-4.18407 4.26229,-2.05119 7.74962,-3.93913 7.74962,-4.19543 0,-0.63883 -81.5413,-41.36614 -82.10379,-41.00828 -0.60443,0.38455 -4.00311,7.19858 -4.00311,8.02585 0,0.43643 10.33735,5.82384 30.99848,16.15521 17.04917,8.52522 30.99849,15.67317 30.99849,15.88431 0,0.21113 -0.24218,0.48009 -0.53817,0.59771 -12.30339,4.88872 -18.3124,7.40265 -18.79675,7.86384 -0.51294,0.48836 0.85095,1.2814 8.82596,5.13197 5.18794,2.50485 22.60698,10.9159 38.70897,18.69119 17.59853,8.49793 29.27635,14.37188 29.27635,14.72604 0,0.32406 -4.21386,2.91425 -9.36413,5.75599 -5.15027,2.84174 -9.36413,5.31417 -9.36413,5.49431 0,0.45339 3.95266,2.40044 24.54047,12.08837 29.03788,13.66427 30.65591,14.46274 30.46549,15.03397 -0.0975,0.29246 -2.53607,1.27076 -5.41906,2.17403 -5.17782,1.62221 -6.42465,2.51178 -4.27314,3.0487 0.53279,0.13295 8.1371,1.23262 16.89848,2.44371 8.76138,1.21114 17.86718,2.56835 20.23512,3.01611 2.36794,0.44776 5.17718,0.88518 6.24276,0.97202 1.06557,0.0868 2.07125,0.19172 2.2349,0.23309 0.1636,0.0413 0.4174,-0.11883 0.564,-0.35601 z"
       id="path3006"
       inkscape:connector-curvature="0" />
    <path
       style="fill:#aeaeae"
       d="M 187.75 2 C 188.12301 11.778066 189.75306 22.140556 192.125 29.40625 C 198.4857 48.890305 212.75127 85.686694 221.78125 105.84375 C 229.95752 124.09512 247.0295 158.69854 250.125 163.3125 C 250.99877 164.61486 253.87583 168.20293 256.53125 171.28125 C 265.72441 181.9385 267.72412 185.89338 268.375 194.75 C 268.74819 199.82807 267.9968 208.38964 266 222.28125 C 264.19879 234.81223 263 247.71224 263 254.34375 C 263 259.26489 263.93165 264.82948 265.40625 268.6875 C 267.09516 273.10621 271.0414 284.79895 275.6875 299.15625 C 277.98633 306.26007 281.18583 315.55021 282.8125 319.8125 C 284.43917 324.0748 286.46341 330.07793 287.3125 333.15625 C 289.42471 340.81409 290.41757 343.28125 291.40625 343.28125 C 291.58896 343.28125 293.71189 343.06015 296.125 342.8125 C 301.93211 342.2166 304.69499 341.16415 306.875 338.6875 C 310.04714 335.0838 311.28491 329.27977 311.28125 317.875 C 311.27725 310.1683 310.73725 306.31458 308.625 298.3125 C 307.09699 292.52383 306.4168 288.42844 305 277.0625 C 303.74146 266.96656 303.6481 264.03886 304.53125 258.59375 C 305.68693 251.46808 309.90049 240.375 311.4375 240.375 C 311.82115 240.375 313.97063 241.45815 316.21875 242.78125 C 321.36286 245.80872 326.6596 248.26576 331.65625 249.9375 C 333.79545 250.65321 336.95727 251.8137 338.6875 252.5 C 343.60653 254.45115 347.56254 255.39307 353.53125 256.09375 C 356.56385 256.44975 362.09648 257.24017 365.8125 257.84375 C 369.52858 258.44735 374.22597 259.05261 376.25 259.1875 L 379.9375 259.4375 L 381.15625 257.96875 C 383.00384 255.77742 383.65035 253.8807 383.875 249.84375 C 384.21314 243.76715 382.37609 237.96432 379.125 234.84375 C 377.26087 233.0545 367.25811 228.68065 358.6875 225.90625 C 353.90056 224.35667 351.51219 223.31717 347.90625 221.125 C 345.36282 219.57877 340.56511 217.00194 337.25 215.40625 C 328.07953 210.99217 326.14245 209.31235 324.25 204.21875 C 323.09771 201.11733 321.44006 193.46393 321.75 192.65625 C 322.09413 191.75942 325.75083 192.16643 337.53125 194.40625 L 347.15625 196.25 L 364.4375 196.21875 C 383.86219 196.20215 382.55292 196.45257 384.25 192.8125 C 386.02841 188.9979 385.48826 184.62592 382.5 178.71875 C 381.31939 176.38491 380.86654 175.93074 378.21875 174.4375 C 374.17099 172.15472 370.7497 171.28828 359.65625 169.75 C 354.44372 169.02719 348.66388 168.03239 346.8125 167.5625 C 342.01686 166.34536 334.57327 162.99657 332.59375 161.15625 L 330.9375 159.625 L 330.5 153.9375 C 330.26351 150.80769 330.18708 147.9518 330.3125 147.625 C 330.49569 147.14765 332.72425 147.02032 341.65625 146.875 C 353.81622 146.67716 354.9739 146.45368 356.84375 144.09375 C 357.74968 142.95039 357.79797 142.58712 357.53125 139.25 C 357.19634 135.0593 356.19238 132.13083 353.90625 128.59375 C 352.61727 126.59949 351.72263 125.77221 349.6875 124.6875 C 347.33265 123.43237 342.30474 121.94123 338.21875 121.3125 C 336.17302 120.99772 336.16521 120.30692 338.1875 118.53125 C 340.10738 116.84555 342.13952 115.96333 344.03125 115.96875 C 345.90425 115.97375 356.3129 120.4605 362.1875 123.8125 C 367.72219 126.97057 375.28965 133.10576 383.78125 141.3125 C 390.51275 147.81823 394.84044 150.98787 403.125 155.4375 C 410.49502 159.39594 415.04482 161.40257 419.15625 162.53125 C 422.0686 163.33077 423.71623 163.47021 431.34375 163.5 C 439.62241 163.5323 440.26337 163.4731 441.90625 162.59375 C 444.0885 161.42566 446.69054 158.58488 447.71875 156.25 C 448.82488 153.73816 450.26791 147.9411 450.25 146.125 C 450.2246 143.52982 449.17692 139.4647 447.9375 137.1875 C 446.16882 133.93788 439.15295 126.50803 432.96875 121.34375 C 429.95251 118.82499 424.52024 113.63783 420.90625 109.84375 C 417.29221 106.04968 412.09813 101.13599 409.375 98.90625 C 406.65187 96.676511 403.41066 93.992861 402.15625 92.9375 C 400.90185 91.882139 398.05226 89.956034 395.84375 88.65625 C 391.50951 86.105423 389.66908 84.564438 381.375 76.59375 C 378.40418 73.738751 374.3456 69.923498 372.34375 68.125 C 370.34193 66.326502 367.54563 63.208956 366.125 61.21875 C 364.70436 59.228544 361.3686 55.479733 358.71875 52.875 C 354.99191 49.211586 353.3929 47.278588 351.65625 44.28125 C 350.42152 42.150104 348.07387 38.46169 346.46875 36.09375 C 343.33899 31.476599 333.04789 18.871116 331.3125 17.53125 C 325.11986 12.750049 316.11369 5.1616064 312.84375 2 L 187.75 2 z "
       id="path2989" />
  </g>
  <g
     inkscape:groupmode="layer"
     id="layer1"
     inkscape:label="Cover"
     style="display:inline"
     sodipodi:insensitive="true">
    <path
       d="m 2,2 v 257 c 0,286 298,398 298,398 0,0 298,-112 298,-398 V 2 z"
       id="shine"
       inkscape:connector-curvature="0"
       style="fill:url(#radialGradient3074);stroke:#000000;stroke-width:3" />
  </g>
</svg>
