<?xml version="1.0" encoding="UTF-8"?>
<svg xmlns="http://www.w3.org/2000/svg" xmlns:xlink="http://www.w3.org/1999/xlink" width="600" height="660">
<defs>
  <radialGradient id="rg" gradientUnits="userSpaceOnUse" cx="220" cy="220" r="405">
    <stop style="stop-color:#fff;stop-opacity:.3" offset="0"/>
    <stop style="stop-color:#fff;stop-opacity:.2" offset=".2"/>
    <stop style="stop-color:#666;stop-opacity:.1" offset=".6"/>
    <stop style="stop-color:#000;stop-opacity:.13" offset="1"/>
  </radialGradient>
  <pattern id="lozengy" patternUnits="userSpaceOnUse" x="50" y="60" width="100" height="120">
    <path fill="#080" d="M 50,0 100,60 50,120 0,60 z"/>
  </pattern>
  <path id="shield" d="m2,2v257c0,286 298,398 298,398c0,0 298-112 298-398V2z"/>
</defs>
<use id="field" xlink:href="#shield" fill="#fff"/>
<use xlink:href="#shield" fill="url(#lozengy)"/>
<path fill="#888" d="M 2 2 L 2 259 C 2 273.0886 2.7323943 286.74845 4.1074219 300 L 595.89258 300 C 597.26761 286.74845 598 273.0886 598 259 L 598 2 L 2 2 z"/>
<circle id="roundel" cx="300" cy="90" r="50"/>
<use xlink:href="#roundel" x="200"/>
<use xlink:href="#roundel" x="-200"/>
<use xlink:href="#roundel" x="-100" y="120"/>
<use xlink:href="#roundel" x="100" y="120"/>
<use id="shine" xlink:href="#shield" fill="url(#rg)" stroke="#000" stroke-width="3"/>
</svg>
