<?xml version="1.0" encoding="UTF-8"?>
<svg xmlns="http://www.w3.org/2000/svg" xmlns:xlink="http://www.w3.org/1999/xlink" width="600" height="660">
<defs>
  <radialGradient id="rg" gradientUnits="userSpaceOnUse" cx="220" cy="220" r="405">
    <stop style="stop-color:#ffffff;stop-opacity:.3" offset="0"/>
    <stop style="stop-color:#ffffff;stop-opacity:.2" offset=".2"/>
    <stop style="stop-color:#666666;stop-opacity:.1" offset=".6"/>
    <stop style="stop-color:#000000;stop-opacity:.13" offset="1"/>
  </radialGradient>
  <path id="shield" d="m2,2v257c0,286 298,398 298,398c0,0 298-112 298-398V2z"/>
  <clipPath id="clip-inner">
    <path id="inner" style="fill:#888888" d="m 100,100 h 400 v 159 c 0,165.4 -134.9,256 -200,290.2 -65.1,-34.2 -200,-124.8 -200,-290.2 z"/>
  </clipPath>
</defs>
<use id="bg" xlink:href="#shield" style="fill:#888888;"/>
<path style="fill:#ffdd00" d="m 25,25 c 12.12,19.19 29.14,31.69 51.08,37.5 21.93,5.81 38.92,18.31 51.12,37.5 -3,-15.59 -10.9,-28.09 -23.6,-37.5 -12.79,-9.41 -20.65,-21.91 -23.6,-37.5 9.35,18.1 23.6,30.6 42.8,37.5 19.2,6.9 33.4,19.4 42.8,37.5 -0.2,-14.5 -5.3,-27 -15.3,-37.5 -10,-10.5 -15.1,-23 -15.3,-37.5 6.6,17.02 18.1,29.52 34.5,37.5 16.4,7.98 27.9,20.48 34.5,37.5 2.6,-13.41 0.2,-25.91 -7,-37.5 -7.2,-11.58 -9.6,-24.08 -7,-37.5 3.8,15.93 12.6,28.43 26.2,37.5 13.6,9.07 22.4,21.57 26.2,37.5 5.3,-12.33 5.8,-24.83 1.3,-37.5 -4.5,-12.67 -4,-25.17 1.3,-37.5 1.1,14.84 7,27.34 17.9,37.5 10.9,10.16 16.8,22.66 17.9,37.5 8.1,-11.24 11.3,-23.74 9.6,-37.5 -1.7,-13.76 1.5,-26.26 9.6,-37.5 -1.7,13.76 1.5,26.26 9.6,37.5 8.1,11.24 11.3,23.74 9.6,37.5 10.9,-10.16 16.8,-22.66 17.9,-37.5 1.1,-14.84 7,-27.34 17.9,-37.5 -4.5,12.67 -4,25.17 1.3,37.5 5.3,12.33 5.8,24.83 1.3,37.5 13.7,-9.07 22.4,-21.57 26.2,-37.5 3.8,-15.93 12.6,-28.43 26.2,-37.5 -7.2,11.59 -9.6,24.09 -7,37.5 2.6,13.41 0.3,25.91 -7,37.5 16.4,-7.99 27.9,-20.49 34.5,-37.5 6.6,-17.01 18.1,-29.52 34.5,-37.5 -10,10.5 -15.1,23 -15.3,37.5 -0.2,14.5 -5.3,27 -15.3,37.5 19.2,-6.9 33.5,-19.4 42.8,-37.5 9.4,-18.1 23.6,-30.6 42.8,-37.5 -12.8,9.41 -20.6,21.91 -23.6,37.5 -2.9,15.59 -10.8,28.09 -23.6,37.5 22,-5.81 39,-18.31 51.1,-37.5 12.1,-19.19 29.2,-31.69 51.1,-37.5 -19.2,12.12 -31.7,29.14 -37.5,51.08 -5.8,21.93 -18.3,38.92 -37.5,51.12 15.6,-3 28.1,-10.9 37.5,-23.6 9.4,-12.79 21.9,-20.65 37.5,-23.6 -18.2,9.64 -30.7,24.2 -37.5,43.7 -6.8,19.4 -19.3,34 -37.5,43.6 14.6,-0.3 27.1,-5.6 37.5,-15.8 10.4,-10.1 22.9,-15.4 37.5,-15.7 -17.2,7 -29.7,19 -37.5,35.8 -7.8,16.9 -20.3,28.8 -37.5,35.9 13.5,2.2 26,-0.4 37.5,-8 11.5,-7.5 24,-10.2 37.5,-7.9 -16.2,4.4 -28.7,13.7 -37.5,28 -8.8,14.3 -21.3,23.6 -37.5,28 12.5,4.9 25,4.9 37.5,-0.1 12.5,-5 25,-5 37.5,-0.1 -15.4,1.7 -28.1,8.4 -38.2,20.2 -10.1,11.7 -22.8,18.4 -38.2,20.2 11.3,7.3 23.6,9.9 36.9,7.6 13.3,-2.3 25.6,0.2 36.9,7.6 -15,-1.2 -28.4,2.8 -40.3,12.2 -11.8,9.3 -25.2,13.3 -40.3,12.1 9.7,9.6 21.3,14.7 34.9,15.2 13.6,0.5 25.2,5.6 34.9,15.2 -14.2,-4.1 -27.9,-2.8 -41.1,3.9 -13.1,6.7 -26.8,8 -41,3.9 7.5,11.5 18,18.9 31.3,22.2 13.4,3.3 23.8,10.7 31.4,22.2 -12.9,-6.6 -26.3,-8 -40.2,-4.2 -13.9,3.9 -27.3,2.5 -40.2,-4.2 5.1,13 14,22.5 26.6,28.5 12.5,6 21.4,15.5 26.5,28.5 -11,-8.9 -23.6,-12.8 -37.7,-11.8 -14.1,1 -26.7,-2.9 -37.7,-11.8 2.5,14 9.4,25.3 20.7,33.9 11.3,8.6 18.2,19.9 20.7,33.9 -8.8,-10.7 -20.1,-16.9 -33.8,-18.7 -13.7,-1.8 -24.9,-8 -33.8,-18.7 -0.3,14.7 4.4,27.5 14.1,38.4 9.7,11 14.4,23.8 14.1,38.4 -6.4,-12 -15.9,-20.2 -28.7,-24.7 -12.8,-4.4 -22.4,-12.6 -28.8,-24.6 -3.2,14.9 -0.9,28.9 6.9,42 7.8,13.1 10.1,27.1 6.9,42 -3.7,-12.9 -11.3,-22.8 -22.8,-29.8 -11.5,-6.9 -19.1,-16.8 -22.7,-29.7 -6.1,14.8 -6.4,29.7 -0.8,44.7 5.6,15 5.4,29.9 -0.7,44.8 -1,-13.5 -6.4,-24.8 -16.2,-34 -9.8,-9.1 -15.2,-20.4 -16.2,-33.9 -9.1,14.4 -12.2,29.9 -9.2,46.6 3,16.7 -0.1,32.3 -9.2,46.6 3,-16.8 -0.1,-32.3 -9.2,-46.6 -9.2,-14.3 -12.3,-29.8 -9.2,-46.6 -9.9,9.2 -15.2,20.5 -16.2,33.9 -1,13.5 -6.3,24.8 -16.2,34 5.6,-15.1 5.4,-30 -0.7,-44.8 -6.1,-14.8 -6.4,-29.7 -0.7,-44.7 -11.5,6.9 -19.1,16.8 -22.8,29.7 -3.7,12.9 -11.3,22.8 -22.8,29.8 7.8,-13.1 10.1,-27.1 6.9,-42 -3.2,-14.9 -0.9,-28.9 6.9,-42 -12.8,4.4 -22.4,12.7 -28.7,24.6 -6.4,12 -16,20.2 -28.8,24.7 9.8,-11 14.4,-23.8 14.1,-38.4 -0.3,-14.6 4.4,-27.4 14.1,-38.4 -13.7,1.8 -25,8.1 -33.8,18.7 -8.8,10.6 -20.1,16.9 -33.8,18.7 11.4,-8.6 18.3,-19.9 20.7,-33.9 2.5,-14 9.4,-25.3 20.7,-33.9 -14.1,-1 -26.7,2.9 -37.7,11.8 -11,8.9 -23.57,12.8 -37.68,11.8 12.58,-6 21.38,-15.5 26.58,-28.5 5.1,-13 13.9,-22.5 26.5,-28.5 -13.9,-3.8 -27.3,-2.4 -40.19,4.2 -12.84,6.7 -26.23,8.1 -40.17,4.2 13.36,-3.3 23.81,-10.7 31.35,-22.2 7.54,-11.5 18.01,-18.9 31.31,-22.2 -13.1,-6.7 -26.83,-8 -41.02,-3.9 -14.19,4.1 -27.88,2.8 -41.05,-3.9 13.61,-0.5 25.23,-5.6 34.87,-15.2 9.63,-9.6 21.25,-14.7 34.9,-15.2 -11.88,-9.3 -25.31,-13.4 -40.34,-12.1 -15.02,1.2 -28.45,-2.9 -40.29,-12.2 13.3,2.3 25.61,-0.2 36.92,-7.6 11.3,-7.4 23.61,-9.9 36.91,-7.6 -10.08,-11.8 -22.82,-18.5 -38.2,-20.2 -15.38,-1.8 -28.11,-8.5 -38.2,-20.3 12.48,5 24.98,5.1 37.5,0.2 12.52,-4.9 25.02,-4.8 37.5,0.1 -8.83,-14.2 -21.33,-23.6 -37.5,-28 -16.17,-4.4 -28.67,-13.8 -37.5,-28 11.46,7.5 23.96,10.2 37.5,7.9 13.54,-2.2 26.04,0.4 37.5,8 -7.81,-16.9 -20.31,-28.8 -37.5,-35.9 -17.19,-7 -29.69,-19 -37.5,-35.8 10.44,10.1 22.94,15.4 37.5,15.7 14.56,0.4 27.06,5.7 37.5,15.8 -6.78,-19.4 -19.28,-34 -37.5,-43.6 -18.21,-9.7 -30.71,-24.24 -37.5,-43.7 9.41,12.77 21.91,20.6 37.5,23.6 15.59,2.9 28.09,10.8 37.5,23.6 -5.81,-22 -18.31,-39 -37.5,-51.12 -19.19,-12.12 -31.69,-29.14 -37.5,-51.08 z"/>
<path style="fill:#ee9900" d="m 394.6,53.92 c -1.4,3.22 -2.6,6.64 -3.5,10.33 v 0 0 c -4.2,17.58 -14.3,31.98 -29.3,41.95 l -18.8,12.5 7.5,-21.2 c 4,-11.06 3.6,-21.25 -1.1,-32.01 -1.5,-3.56 -2.7,-7.18 -3.5,-10.84 -0.6,2.68 -1.1,5.44 -1.3,8.39 -1.2,16.53 -8.2,31.12 -20.3,42.46 l -15.1,14.1 2.6,-20.52 c 1.5,-12.07 -1.2,-22.33 -8.3,-32.19 -2.3,-3.18 -4.2,-6.5 -5.8,-9.93 0,1.54 -0.1,3.02 0.1,4.61 2,15.45 -1.8,30.2 -10.9,42.83 l -12.1,16.8 -1.5,-20.7 c -0.9,-13.11 -5.9,-23.52 -15.5,-32.52 -2.6,-2.38 -4.8,-4.93 -6.9,-7.59 4.9,14.16 4.3,28.83 -1.6,42.61 l -9,20.6 -5.2,-21.9 c -3.4,-14.22 -10.8,-24.83 -23.1,-32.96 -1.8,-1.21 -3.5,-2.5 -5.2,-3.84 5.4,11.39 7,23.84 4.5,36.5 l -4.9,25.7 -9.4,-24.4 c -6,-15.42 -15.9,-26.22 -30.8,-33.46 -0.8,-0.38 -1.5,-0.84 -2.3,-1.25 5.9,9.51 9,20.3 9.2,31.91 l 0.4,31.8 -14.6,-28.3 c -8.2,-15.94 -20.2,-26.66 -36.8,-33.09 6.2,8.2 10.4,17.71 12.4,28.3 l 7.4,38.69 -21.1,-33.3 c -11.2,-17.74 -26.35,-28.87 -46.64,-34.25 -5.36,-1.42 -10.44,-3.29 -15.3,-5.48 2.41,1.91 4.93,3.75 7.65,5.47 20.62,13.02 34.49,31.96 40.69,55.46 l 10.1,38.1 -23.34,-31.7 c -8.4,-11.4 -18.94,-18 -32.85,-20.7 -2.42,-0.4 -4.77,-1 -7.08,-1.7 3.62,2.9 7.59,5.5 11.98,7.8 v 0 0 c 19.72,10.5 33.73,26.8 41.09,47.9 l 10.4,30 -22.73,-22.2 c -9.22,-9 -19.59,-13.3 -32.45,-13.7 -3.16,0 -6.24,-0.4 -9.27,-0.9 3.73,2.5 7.79,4.7 12.29,6.6 18.77,7.7 32.94,21.2 41.46,39.6 l 11.1,24 -22.03,-14.6 c -10.04,-6.6 -20.27,-8.8 -32.14,-6.8 v 0 0 c -3.72,0.6 -7.4,0.9 -11.05,0.9 3.63,1.8 7.53,3.4 11.81,4.6 17.81,4.9 32.16,15.6 41.91,31.3 l 11.9,19.3 -21.07,-8.4 c -10.9,-4.3 -21.08,-4.4 -32.02,-0.1 -3.93,1.5 -7.93,2.6 -11.95,3.2 3.4,1.1 6.95,2 10.78,2.4 v 0 c 17.07,1.9 31.85,9.8 43.06,22.8 l 13.6,15.8 -20.6,-3.5 c -11.6,-2 -21.64,0 -31.52,6.5 -3.72,2.4 -7.62,4.3 -11.62,5.8 3.3,0.4 6.71,0.5 10.29,0.2 16.71,-1.4 32.36,3.4 45.55,13.7 l 16.1,12.7 -20.5,0.7 c -11.89,0.5 -21.38,4.6 -29.81,13 v 0 c -3.26,3.3 -6.82,6 -10.57,8.4 3.07,-0.3 6.19,-0.9 9.39,-1.8 15.83,-4.6 31.79,-3 46.49,4.4 l 18,9.1 -19.6,4.9 c -11.7,2.9 -20.2,8.9 -26.84,19 v 0 c -2.57,3.9 -5.53,7.4 -8.77,10.5 2.62,-0.8 5.24,-1.9 7.87,-3.2 v 0 0 c 14.34,-7.5 30.04,-9.1 45.64,-4.8 l 19.3,5.3 -18.1,8.7 c -11,5.3 -18.3,13.1 -22.8,24.5 v 0 0 c -1.7,4.3 -3.9,8.3 -6.4,12 2,-1.2 4,-2.4 5.9,-3.9 v 0 c 12.3,-10 27.1,-14.6 42.9,-13.5 l 19.9,1.4 -15.9,12.1 c -10,7.5 -15.6,16.9 -17.8,29.2 v 0 0 c -0.8,4.5 -2.1,8.8 -3.7,12.8 1.2,-1.2 2.5,-2.3 3.6,-3.7 9.9,-11.9 23.2,-19.3 38.6,-21.3 l 19.9,-2.6 -13.3,15 c -8.6,9.7 -12.5,20.3 -12.2,33.2 v 0.1 c 0.1,4.3 -0.2,8.5 -1,12.6 0.5,-0.8 1.1,-1.4 1.5,-2.3 7.2,-13.5 18.5,-23.2 32.9,-28.2 l 19.4,-6.8 -10.5,17.7 c -6.9,11.7 -8.8,23.4 -6,36.6 0.8,3.9 1.3,7.7 1.5,11.5 4.2,-14.4 13.1,-26.1 26,-33.8 l 18.4,-11.2 -7.5,20.2 c -5,13.4 -4.8,26 0.6,39.3 1.3,3 2.2,6 3,9 1.9,-13.4 8,-25.3 18,-34.7 l 16.6,-15.5 -4.1,22.3 c -2.7,15 0,28.3 8.2,41.2 v 0 0 c 2,3.1 3.7,6.3 5.1,9.6 -0.1,-1.4 -0.1,-2.8 -0.4,-4.3 -3.3,-18.4 0.2,-36.2 10.3,-51.9 l 12.2,-19 1.6,22.5 c 0.8,11.7 5.2,21 13.8,29 2.9,2.7 5.5,5.6 7.7,8.7 -0.6,-3.8 -1.5,-7.6 -2.9,-11.4 v 0 0 c -6.2,-16.6 -5.9,-33.9 0.8,-50.3 l 8.2,-19.9 6,20.7 c 3.2,11.3 9.4,19.4 19.4,25.4 v 0 c 3.7,2.3 7,4.8 10.1,7.7 -1.2,-3.3 -2.6,-6.5 -4.5,-9.7 -8.7,-14.5 -11.3,-30.8 -7.8,-47.4 l 4.3,-20.1 9.7,18.2 c 5.5,10.4 13.3,17.2 24.5,21.1 4.4,1.5 8.4,3.5 12.2,5.8 -1.6,-2.5 -3.4,-5.1 -5.6,-7.5 -10.9,-12.2 -16.3,-27.2 -16,-43.5 l 0.5,-20.1 12.8,15.4 c 7.7,9.4 17,14.5 29,16.1 v 0 0 c 4.6,0.6 9,1.7 13.2,3.3 -1.7,-1.8 -3.5,-3.5 -5.6,-5.1 -12.7,-9.7 -20.8,-22.9 -23.6,-38.6 l -3.4,-19.7 15.5,12.6 c 9.7,7.8 20.1,11 32.5,10.1 4.6,-0.3 9.1,-0.1 13.5,0.6 -1.7,-1.1 -3.2,-2.1 -5.1,-3 -14.1,-6.8 -24.5,-18 -30.3,-32.5 l -7.3,-18.7 17.8,9.3 c 11.3,5.8 22.4,7 34.7,3.6 4.3,-1.2 8.7,-1.9 13,-2.2 -1.3,-0.4 -2.6,-1 -4,-1.3 v 0 c -15,-3.7 -27.3,-12.5 -35.8,-25.4 l -11.1,-16.9 19.4,5.6 c 12.6,3.6 24,2.5 35.6,-3.4 v 0 0 c 3.9,-1.9 7.8,-3.5 11.8,-4.6 -0.8,-0.1 -1.6,-0.3 -2.5,-0.3 v 0 0 c -15.3,-0.6 -29,-6.5 -39.9,-17.4 l -14.4,-14.4 20.4,1.6 c 13.3,1.1 24.5,-2.2 35,-10.5 3.2,-2.5 6.6,-4.7 10.1,-6.6 -0.3,0.1 -0.6,0 -0.8,0.1 -15,2.6 -29.6,-0.5 -42.3,-8.7 l -17.5,-11.4 20.7,-2.4 c 13.7,-1.5 24.4,-7.2 33.4,-17.6 2.5,-2.9 5.1,-5.4 7.9,-7.8 -13.7,5.1 -28,5.1 -41.7,-0.3 l -21.2,-8.2 21.9,-6 c 14.5,-4 25.2,-11.9 33.1,-24.7 1.4,-2.3 2.9,-4.4 4.5,-6.4 -11.4,5.8 -23.9,7.7 -36.8,5.6 l -26,-4.4 24.4,-10 c 15.6,-6.4 26.4,-16.7 33.5,-32 v 0 c 0.5,-1.2 1.2,-2.3 1.8,-3.5 -9.6,6.2 -20.5,9.5 -32.3,9.8 l -31.9,0.8 28.2,-14.9 c 16.5,-8.8 27.4,-21.4 33.7,-39 -8.3,6.5 -18,10.8 -28.8,12.8 l -38.7,7.4 33.3,-21.1 c 17.7,-11.2 28.9,-26.35 34.3,-46.64 1.4,-5.35 3.2,-10.43 5.4,-15.29 -1.9,2.41 -3.7,4.92 -5.4,7.64 -13.1,20.62 -32,34.49 -55.5,40.79 l -38.1,10 31.7,-23.34 c 11.4,-8.4 18,-18.94 20.7,-32.85 0.3,-1.89 0.8,-3.73 1.3,-5.55 -2.4,3.19 -4.6,6.62 -6.5,10.38 v 0 0 c -10.2,19.61 -26.2,33.63 -46.9,41.16 l -29.9,10.7 21.9,-22.99 c 8.8,-9.26 13.1,-19.61 13.2,-32.41 0.1,-2.77 0.3,-5.47 0.7,-8.14 -2.1,3.36 -3.9,7 -5.4,10.94 -7.2,18.6 -20.3,32.81 -38.2,41.5 l -23.5,11.5 13.9,-22.18 c 6.3,-10.15 8.2,-20.37 5.9,-32.11 -0.6,-3.36 -0.9,-6.69 -1,-10 z"/>
<use xlink:href="#inner"/>
<g id="hooded-figure" style="clip-path:url(#clip-inner);stroke:#444444;stroke-width:2;stroke-linecap:round;stroke-linejoin:round;">
  <path style="fill:#000000;" d="m 565.9,549.2 c -19.4,-20.3 -32.8,-108.2 -56,-123.8 -15.8,-10.6 -47.7,-6.6 -59.3,-21.5 -4.7,-5.9 -13.9,-9 -15.8,-14.1 -17.1,-46 -29.7,-67.6 -31.7,-112.5 -0.9,-22.6 -11.1,-80.6 -23.3,-99.6 -11.7,-18.2 -35.3,-24.8 -57.2,-48.8 -6.9,-7.6 -15.5,-7.4 -22.6,-9.3 -7.1,1.9 -15.7,1.7 -22.6,9.3 -21.9,24 -45.5,30.6 -57.2,48.8 -12.2,19 -22.4,77 -23.3,99.6 -2,44.9 -14.6,66.5 -31.7,112.5 -1.9,5.1 -11.1,8.2 -15.8,14.1 -11.6,14.9 -43.5,10.9 -59.32,21.5 -23.2,15.6 -36.61,103.5 -55.99,123.8"/>
  <path style="fill:#111111;" d="m 272.2,228.4 c 8.5,0.2 18.3,4.8 27.9,4.8 19.1,0 39.5,-18.3 47.3,16.2 3.8,17 -6.5,41.6 -2.4,60.8 4.6,21.7 12,43.9 -1.4,63.8 -18.1,27 -25.4,30.4 -43.5,74.7 -18.1,-44.3 -25.4,-47.7 -43.5,-74.7 -13.4,-19.9 -6,-42.1 -1.4,-63.8 4.1,-19.2 -6.2,-43.8 -2.4,-60.8 3.9,-17.2 11,-21.3 19.4,-21 z"/>
  <path style="fill:none;" d="m 300.1,448.7 c 15.8,39.6 37.8,50.3 30.9,101.6"/>
</g>
<use id="shine" xlink:href="#shield" style="fill:url(#rg);stroke:#000000;stroke-width:3;"/>
</svg>
