<?xml version="1.0" encoding="UTF-8"?>
<svg xmlns="http://www.w3.org/2000/svg" xmlns:xlink="http://www.w3.org/1999/xlink" width="600" height="660">
<defs>
  <radialGradient id="rg" gradientUnits="userSpaceOnUse" cx="220" cy="220" r="405">
    <stop style="stop-color:#ffffff;stop-opacity:.3" offset="0"/>
    <stop style="stop-color:#ffffff;stop-opacity:.2" offset=".2"/>
    <stop style="stop-color:#666666;stop-opacity:.1" offset=".6"/>
    <stop style="stop-color:#000000;stop-opacity:.13" offset="1"/>
  </radialGradient>
  <path id="shield" d="m2,2v257c0,286 298,398 298,398c0,0 298-112 298-398V2z"/>
</defs>
<use id="bg" xlink:href="#shield" style="fill:#999999;"/>
<path style="fill:#ee0000" d="m 225,166.6 c -2.3,-13.9 6.2,-19.6 -0.5,-33.1 5.7,2 10.3,5.7 12.8,9.1 3.8,-14.6 6,-30.1 4.2,-43.77 8.3,1.47 13.9,12.27 17.3,17.47 9.2,-20.77 11.5,-39.41 5.1,-50.54 8.3,0.65 17.5,8.51 20.8,32.72 15.5,-23.36 -9,-42.2 16.1,-58.34 -7.1,33.7 16.9,20.94 19.5,57.28 11,-8.15 9,-17.61 8.1,-25.45 11.3,4.92 21.2,23.06 26.4,49.13 4.9,-1.8 7.3,-9.2 9.1,-17.5 10.8,11.6 14.7,26.1 9.2,43.2 -2.8,4.8 -4.6,9.8 -3.8,15.3 4.6,-2.1 6.3,-7.1 8.9,-11.3 2.1,6.2 3.9,13.5 2.2,18.8 -5.4,31 -53.1,36.2 -82.8,36 -16.7,-0.2 -66.6,-7.1 -72.6,-39 z"/>
<path style="fill:#ffbb00" d="m 242.8,181.2 c -1.5,-9 5.8,-14.2 -6.6,-24.3 12.9,-1.4 24,10.7 25.6,12.9 2.5,-9.5 -15.7,-23.4 -10.3,-46.3 4.9,14.3 13.1,24.9 22.7,30 -11.9,-26.3 5,-34.7 -2.1,-52.2 12.5,6.9 4.6,30.2 20.1,39.5 12.4,-20.1 -7.7,-40.3 10.3,-57.65 -1.4,33.75 10.9,24.95 11.1,62.25 15.3,-9.6 16.6,-23.1 11.8,-37.8 15.5,18.6 13.5,35 10.2,51.4 6.7,-4.4 5.5,-19.1 21.7,-22.7 -14.6,20.3 -4.4,18 -11.3,41.1 3.1,-1.5 15.9,-11.5 14.5,-24.4 9,10.9 -5.2,33.1 -6.4,36.5 -3.5,20.2 -35.4,16.3 -54.7,16.1 -10.8,-0.2 -52.7,-3.7 -56.6,-24.4 z"/>
  <g id="tower" style="stroke:#777777;stroke-width:1;stroke-linecap:round;stroke-linejoin:round;" transform="translate(300,350)scale(1.8)">
    <path style="fill:#ffffff;" d="m -37.6,-102.1 4.6,4 v 23.7 l -11.2,-6.2 z m 21.2,-5.2 3,4.5 v 23.7 l -9.5,-6.9 z m 54,5.2 -4.6,4 v 23.7 l 11.2,-6.2 z m -21.2,-5.2 -3,4.5 v 23.7 l 9.5,-6.9 z"/>
    <path style="fill:#ffffff;" d="m -5.3,-108.6 v 13 l -11.1,1.1 v -12.8 c -3.4,0.5 -6.7,1.3 -11,2.2 v 13.5 l -10.2,2.7 v -13.2 c -3.4,1.3 -7.3,2.7 -10.7,4.1 v 28.2 l 7.1,5.6 c 4.4,42.8 -2.1,84.6 -11.5,121.9 l -11.7,11.7 v 26.3 c 20.4,7.7 37.9,12 54.7,13.3 h 9.7 9.7 c 16.8,-1.3 34.3,-5.6 54.7,-13.3 v -26.3 l -11.7,-11.7 c -9.4,-37.3 -15.9,-79.1 -11.5,-121.9 l 7.1,-5.6 v -28.2 c -3.4,-1.4 -7.3,-2.8 -10.7,-4.1 v 13.2 l -10.2,-2.7 v -13.5 c -4.3,-0.9 -7.6,-1.7 -11,-2.2 v 12.8 l -11.1,-1.1 v -13 c -1.7,-0.2 -3.4,-0.5 -5.3,-0.5 -1.9,0 -3.6,0.3 -5.3,0.5 z"/>
    <path style="fill:none;" d="m 64.4,83.1 c -16.1,6.5 -44.4,13.9 -64.4,13.9 -20,0 -48.3,-7.4 -64.4,-13.9 m 22.1,-79.9 c 13.9,2.2 28.8,3.5 42.3,3.5 13.5,0 28.4,-1.3 42.3,-3.5 m -83.2,-13.5 c 13.5,1.1 28.2,1.6 40.9,1.6 12.7,0 27.4,-0.5 40.9,-1.6 m -81,-13.5 c 13.4,-0.1 26.8,-0.1 40.1,-0.1 13.3,0 26.7,0 40.1,0.1 m -79.9,-13.5 c 13.3,-1.4 26.6,-2.1 39.8,-2.1 13.2,0 26.5,0.7 39.8,2.1 m -80,-13.5 c 13.6,-2.7 26.9,-4 40.2,-3.9 v 0 c 13.3,-0.1 26.6,1.2 40.2,3.9 m -84.4,67.6 c 14.9,3.4 29.7,5.2 44.2,5.3 14.5,-0.1 29.3,-1.9 44.2,-5.3 m -90.8,13.6 c 15.7,4.7 31.2,7.1 46.6,7.2 15.4,-0.1 30.9,-2.5 46.6,-7.2 m -96,13.4 c 16.5,5.9 33.1,9.1 49.4,9.1 16.3,0 32.9,-3.2 49.4,-9.1 m -102.1,13.9 c 15.9,6 35.9,10.8 52.7,10.8 16.8,0 36.8,-4.8 52.7,-10.8 m -101,-127.5 c 0,0 9.7,-5.8 23.9,-8.3 10.2,-1.5 14.4,-2 24.4,-2.1 v 0 c 10,0.1 14.2,0.6 24.4,2.1 14.2,2.5 23.9,8.3 23.9,8.3 m -89.5,5.6 c 13.6,-4.3 28.3,-6.8 41.2,-6.8 v 0 c 12.9,0 27.6,2.5 41.2,6.8 m -105.6,133.6 c 16.1,6.5 44.4,14.3 64.4,14.3 20,0 48.3,-7.8 64.4,-14.3"/>
    <path style="fill:none;" d="m 0,-54.7 v 15.3 m 0,15.5 v 15.2 m 0,15.4 v 15.4 m 0,15.5 v 15.3 m 27.4,-105.9 0.2,14.5 m 0.9,14.6 0.8,14.4 m 0.8,14.5 1.1,14.3 m 1.2,14.8 1.6,14.4 m 3.8,14.2 7.9,13.1 v 13.6 m 10.5,-3.3 v 12.6 m -24.1,-5.8 v 12.7 m -16,-53.7 1.2,15.2 4.5,14.4 m -7.6,-60.1 0.8,15.4 m -2.6,-76 v 15.3 m 1.4,-46.2 -0.7,15.8 m -40.5,1.3 -0.2,14.5 m -0.9,14.6 -0.8,14.4 m -0.8,14.5 -1.1,14.3 m -1.2,14.8 -1.6,14.4 m -3.8,14.2 -7.9,13.1 v 13.6 m -10.5,-3.3 v 12.6 m 24.1,-5.8 v 12.7 m 16,-53.7 -1.2,15.2 -4.5,14.4 m 7.6,-60.1 -0.8,15.4 m 2.6,-76 v 15.3 m -1.4,-46.2 0.7,15.8"/>
    <path style="fill:none;" d="m 41,-65.9 c 0,0 3.7,-3.6 0.9,-5.1 -2.9,-1.6 -6.5,3.3 -6.5,3.3 m -1.6,-0.4 c 0,0 2.1,-5.3 -1.6,-6.1 -3.6,-0.8 -6.2,4.5 -6.2,4.5 m -1.2,-0.2 c 0,0 0.4,-5.6 -3.7,-6.4 -4.2,-0.7 -5,5 -5,5 m -1.3,-0.1 c 0,0 0.2,-5.7 -3.9,-6.2 -4.2,-0.4 -4.8,5.3 -4.8,5.3 m -1.2,0 c 0,0 -0.2,-5.7 -4.9,-5.7 -4.7,0 -4.9,5.7 -4.9,5.7 m -36.1,6.4 c 0,0 -3.7,-3.6 -0.9,-5.1 2.9,-1.6 6.5,3.3 6.5,3.3 m 1.6,-0.4 c 0,0 -2.1,-5.3 1.6,-6.1 3.6,-0.8 6.2,4.5 6.2,4.5 m 1.2,-0.2 c 0,0 -0.4,-5.6 3.7,-6.4 4.2,-0.7 5,5 5,5 m 1.3,-0.1 c 0,0 -0.2,-5.7 3.9,-6.2 4.2,-0.4 4.8,5.3 4.8,5.3"/>
    <path style="fill:#ffffff;" d="m 0,109 h 9.7 l 6.2,-0.4 c 0,0 0.5,-16.1 0.3,-29.3 -0.2,-13.2 -8,-17.2 -16.2,-17.2 -8.2,0 -16,4 -16.2,17.2 -0.2,13.2 0.3,29.3 0.3,29.3 l 6.2,0.4 h 9.7"/>
    <path style="fill:none;" d="m 0,62.1 v 5.9 m 8.6,6.4 6.1,-3.3 m -9.4,-1.4 3.4,-5.5 m 7.5,27.4 h -6.2 m 6.2,-6 h -6.2 m 6.2,-6 h -6.4 m 6.3,18 h -6.1 m 6,6.1 h -6.1 m -18.5,-29.3 -6.1,-3.3 m 9.4,-1.4 -3.4,-5.5 m -7.5,27.4 h 6.2 m -6.2,-6 h 6.2 m -6.2,-6 h 6.4 m -6.3,18 h 6.1 m -6,6.1 h 6.1"/>
    <path style="fill:#444444;" d="m 0,68 c -5.3,0 -9.8,3.5 -10,14.8 -0.1,11.4 0.2,26.2 0.2,26.2 h 19.6 c 0,0 0.3,-14.8 0.2,-26.2 -0.2,-11.3 -4.7,-14.8 -10,-14.8 z"/>
    <path style="fill:#444444;" d="m -18.8,-26.2 c -3.3,0.2 -6.3,2.8 -6.4,10.3 -0.1,7.9 0.1,23.5 0.1,23.5 l 13.9,0.9 c 0,0 0.2,-15.8 0,-24.2 -0.1,-8.4 -3.4,-10.3 -7,-10.5 -0.2,0 -0.4,0 -0.6,0 z m 37.6,0 c 3.3,0.2 6.3,2.8 6.4,10.3 0.1,7.9 -0.1,23.5 -0.1,23.5 l -13.9,0.9 c 0,0 -0.2,-15.8 0,-24.2 0.1,-8.4 3.4,-10.3 7,-10.5 0.2,0 0.4,0 0.6,0 z"/>
  </g>
<use id="shine" xlink:href="#shield" style="fill:url(#rg);stroke:#000000;stroke-width:3;"/>
</svg>
