<?xml version="1.0" encoding="UTF-8" standalone="no"?>
<svg
   xmlns:dc="http://purl.org/dc/elements/1.1/"
   xmlns:cc="http://creativecommons.org/ns#"
   xmlns:rdf="http://www.w3.org/1999/02/22-rdf-syntax-ns#"
   xmlns:svg="http://www.w3.org/2000/svg"
   xmlns="http://www.w3.org/2000/svg"
   xmlns:xlink="http://www.w3.org/1999/xlink"
   xmlns:sodipodi="http://sodipodi.sourceforge.net/DTD/sodipodi-0.dtd"
   xmlns:inkscape="http://www.inkscape.org/namespaces/inkscape"
   width="600"
   height="660"
   id="svg2"
   version="1.1"
   inkscape:version="0.48.2 r9819"
   sodipodi:docname="House_Hunter.svg">
  <metadata
     id="metadata25">
    <rdf:RDF>
      <cc:Work
         rdf:about="">
        <dc:format>image/svg+xml</dc:format>
        <dc:type
           rdf:resource="http://purl.org/dc/dcmitype/StillImage" />
        <dc:title />
      </cc:Work>
    </rdf:RDF>
  </metadata>
  <sodipodi:namedview
     pagecolor="#ffffff"
     bordercolor="#666666"
     borderopacity="1"
     objecttolerance="10"
     gridtolerance="10"
     guidetolerance="10"
     inkscape:pageopacity="0"
     inkscape:pageshadow="2"
     inkscape:window-width="1366"
     inkscape:window-height="715"
     id="namedview23"
     showgrid="false"
     inkscape:zoom="0.50568848"
     inkscape:cx="154.19412"
     inkscape:cy="132.34073"
     inkscape:window-x="-8"
     inkscape:window-y="-8"
     inkscape:window-maximized="1"
     inkscape:current-layer="svg2" />
  <defs
     id="defs4">
    <radialGradient
       id="rg"
       gradientUnits="userSpaceOnUse"
       cx="220"
       cy="220"
       r="405">
      <stop
         style="stop-color:#fff;stop-opacity:.3"
         offset="0"
         id="stop7" />
      <stop
         style="stop-color:#fff;stop-opacity:.2"
         offset=".2"
         id="stop9" />
      <stop
         style="stop-color:#666;stop-opacity:.1"
         offset=".6"
         id="stop11" />
      <stop
         style="stop-color:#000;stop-opacity:.13"
         offset="1"
         id="stop13" />
    </radialGradient>
    <clipPath
       id="clip-shield">
      <path
         id="shield"
         d="m2,2v257c0,286 298,398 298,398c0,0 298-112 298-398V2z" />
    </clipPath>
    <radialGradient
       id="rg-1"
       gradientUnits="userSpaceOnUse"
       cx="220"
       cy="220"
       r="405">
      <stop
         style="stop-color:#fff;stop-opacity:.3"
         offset="0"
         id="stop7-7" />
      <stop
         style="stop-color:#fff;stop-opacity:.2"
         offset=".2"
         id="stop9-4" />
      <stop
         style="stop-color:#666;stop-opacity:.1"
         offset=".6"
         id="stop11-0" />
      <stop
         style="stop-color:#000;stop-opacity:.13"
         offset="1"
         id="stop13-9" />
    </radialGradient>
    <radialGradient
       id="radialGradient3074"
       gradientUnits="userSpaceOnUse"
       cx="220"
       cy="220"
       r="405">
      <stop
         style="stop-color:#fff;stop-opacity:.3"
         offset="0"
         id="stop3076" />
      <stop
         style="stop-color:#fff;stop-opacity:.2"
         offset=".2"
         id="stop3078" />
      <stop
         style="stop-color:#666;stop-opacity:.1"
         offset=".6"
         id="stop3080" />
      <stop
         style="stop-color:#000;stop-opacity:.13"
         offset="1"
         id="stop3082" />
    </radialGradient>
  </defs>
  <use
     height="1052.3622"
     width="744.09448"
     y="0"
     x="0"
     style="fill:#884411"
     id="background"
     xlink:href="#shield" />
  <g
     id="g4806"
     transform="matrix(0.95,0,0,0.95,15.00001,2.4750104)">
    <g
       transform="translate(10.685884,0)"
       id="g4532">
      <g
         id="g3210"
         transform="matrix(0.94590017,-0.66232642,0.66232642,0.94590017,-176.533,195.596)">
        <path
           style="fill:#f6f6f6;stroke:#1d1d1b;stroke-width:2.73474503;stroke-miterlimit:10"
           inkscape:connector-curvature="0"
           id="path3212"
           d="M 284.554,514.06 V 125.393 l 28,27.333 -33.335,-94.666 h -0.011 l -33.333,94.667 28,-27.333 V 514.06 c 0,0 1.042,1 5.339,1 4.036,0 5.34,-1 5.34,-1 z"
           stroke-miterlimit="10" />
        <polygon
           style="fill:#f6f6f6;stroke:#1d1d1b;stroke-width:2.73474503;stroke-miterlimit:10"
           id="polygon3214"
           points="248.958,544.06 248.958,403.31 273.875,373.06 273.875,514.06 "
           stroke-miterlimit="10" />
        <g
           id="g3216">
          <path
             style="fill:#1d1d1b"
             inkscape:connector-curvature="0"
             id="path3218"
             d="m 272.377,125.323 c 0.231,-2.024 0.519,-3.997 0.855,-5.981 0.337,-1.979 0.729,-3.957 1.211,-5.905 l 2.953,-11.564 -1.476,11.829 c -0.229,1.956 -0.365,3.913 -0.45,5.88 -0.083,1.96 -0.12,3.944 -0.096,5.883 l -2.997,-0.142 z" />
        </g>
        <g
           id="g3220">
          <path
             style="fill:#1d1d1b"
             inkscape:connector-curvature="0"
             id="path3222"
             d="m 283.056,125.463 c 0.023,-1.938 -0.013,-3.922 -0.096,-5.883 -0.085,-1.966 -0.221,-3.924 -0.45,-5.879 l -1.477,-11.829 2.953,11.563 c 0.482,1.949 0.874,3.927 1.211,5.906 0.336,1.985 0.624,3.958 0.854,5.982 l -2.995,0.14 z" />
        </g>
        <g
           id="g3224">
          <polygon
             style="fill:#1d1d1b"
             id="polygon3226"
             points="272.744,387.324 275.007,389.295 256.458,408.31 " />
        </g>
        <g
           id="g3228">
          <polygon
             style="fill:#1d1d1b"
             id="polygon3230"
             points="272.744,397.324 275.007,399.295 256.458,418.31 " />
        </g>
        <g
           id="g3232">
          <polygon
             style="fill:#1d1d1b"
             id="polygon3234"
             points="272.744,407.324 275.007,409.295 256.458,428.31 " />
        </g>
        <g
           id="g3236">
          <polygon
             style="fill:#1d1d1b"
             id="polygon3238"
             points="272.744,417.324 275.007,419.295 256.458,438.31 " />
        </g>
        <g
           id="g3240">
          <polygon
             style="fill:#1d1d1b"
             id="polygon3242"
             points="272.744,427.324 275.007,429.295 256.458,448.31 " />
        </g>
        <g
           id="g3244">
          <polygon
             style="fill:#1d1d1b"
             id="polygon3246"
             points="272.744,437.324 275.007,439.295 256.458,458.31 " />
        </g>
        <g
           id="g3248">
          <polygon
             style="fill:#1d1d1b"
             id="polygon3250"
             points="272.744,447.324 275.007,449.295 256.458,468.31 " />
        </g>
        <g
           id="g3252">
          <polygon
             style="fill:#1d1d1b"
             id="polygon3254"
             points="272.744,457.324 275.007,459.295 256.458,478.31 " />
        </g>
        <g
           id="g3256">
          <polygon
             style="fill:#1d1d1b"
             id="polygon3258"
             points="272.744,467.324 275.007,469.295 256.458,488.31 " />
        </g>
        <g
           id="g3260">
          <polygon
             style="fill:#1d1d1b"
             id="polygon3262"
             points="272.744,477.324 275.007,479.295 256.458,498.31 " />
        </g>
        <g
           id="g3264">
          <polygon
             style="fill:#1d1d1b"
             id="polygon3266"
             points="272.744,487.324 275.007,489.295 256.458,508.31 " />
        </g>
        <g
           id="g3268">
          <polygon
             style="fill:#1d1d1b"
             id="polygon3270"
             points="272.744,497.324 275.007,499.295 256.458,518.31 " />
        </g>
        <polygon
           style="fill:#f6f6f6;stroke:#1d1d1b;stroke-width:2.73474503;stroke-miterlimit:10"
           id="polygon3272"
           points="310.259,543.81 310.259,403.06 285.342,372.81 285.342,513.81 "
           stroke-miterlimit="10" />
        <g
           id="g3274">
          <line
             style="fill:#f6f6f6"
             id="line3276"
             y2="408.06"
             x2="302.759"
             y1="388.06"
             x1="285.34201" />
          <polygon
             style="fill:#1d1d1b"
             id="polygon3278"
             points="284.211,389.045 286.473,387.074 302.759,408.06 " />
        </g>
        <g
           id="g3280">
          <line
             style="fill:#f6f6f6"
             id="line3282"
             y2="418.06"
             x2="302.759"
             y1="398.06"
             x1="285.34201" />
          <polygon
             style="fill:#1d1d1b"
             id="polygon3284"
             points="284.211,399.045 286.473,397.074 302.759,418.06 " />
        </g>
        <g
           id="g3286">
          <line
             style="fill:#f6f6f6"
             id="line3288"
             y2="428.06"
             x2="302.759"
             y1="408.06"
             x1="285.34201" />
          <polygon
             style="fill:#1d1d1b"
             id="polygon3290"
             points="284.211,409.045 286.473,407.074 302.759,428.06 " />
        </g>
        <g
           id="g3292">
          <line
             style="fill:#f6f6f6"
             id="line3294"
             y2="438.06"
             x2="302.759"
             y1="418.06"
             x1="285.34201" />
          <polygon
             style="fill:#1d1d1b"
             id="polygon3296"
             points="284.211,419.045 286.473,417.074 302.759,438.06 " />
        </g>
        <g
           id="g3298">
          <line
             style="fill:#f6f6f6"
             id="line3300"
             y2="448.06"
             x2="302.759"
             y1="428.06"
             x1="285.34201" />
          <polygon
             style="fill:#1d1d1b"
             id="polygon3302"
             points="284.211,429.045 286.473,427.074 302.759,448.06 " />
        </g>
        <g
           id="g3304">
          <line
             style="fill:#f6f6f6"
             id="line3306"
             y2="458.06"
             x2="302.759"
             y1="438.06"
             x1="285.34201" />
          <polygon
             style="fill:#1d1d1b"
             id="polygon3308"
             points="284.211,439.045 286.473,437.074 302.759,458.06 " />
        </g>
        <g
           id="g3310">
          <line
             style="fill:#f6f6f6"
             id="line3312"
             y2="468.06"
             x2="302.759"
             y1="448.06"
             x1="285.34201" />
          <polygon
             style="fill:#1d1d1b"
             id="polygon3314"
             points="284.211,449.045 286.473,447.074 302.759,468.06 " />
        </g>
        <g
           id="g3316">
          <line
             style="fill:#f6f6f6"
             id="line3318"
             y2="478.06"
             x2="302.759"
             y1="458.06"
             x1="285.34201" />
          <polygon
             style="fill:#1d1d1b"
             id="polygon3320"
             points="284.211,459.045 286.473,457.074 302.759,478.06 " />
        </g>
        <g
           id="g3322">
          <line
             style="fill:#f6f6f6"
             id="line3324"
             y2="488.06"
             x2="302.759"
             y1="468.06"
             x1="285.34201" />
          <polygon
             style="fill:#1d1d1b"
             id="polygon3326"
             points="284.211,469.045 286.473,467.074 302.759,488.06 " />
        </g>
        <g
           id="g3328">
          <line
             style="fill:#f6f6f6"
             id="line3330"
             y2="498.06"
             x2="302.759"
             y1="478.06"
             x1="285.34201" />
          <polygon
             style="fill:#1d1d1b"
             id="polygon3332"
             points="284.211,479.045 286.473,477.074 302.759,498.06 " />
        </g>
        <g
           id="g3334">
          <line
             style="fill:#f6f6f6"
             id="line3336"
             y2="508.06"
             x2="302.759"
             y1="488.06"
             x1="285.34201" />
          <polygon
             style="fill:#1d1d1b"
             id="polygon3338"
             points="284.211,489.045 286.473,487.074 302.759,508.06 " />
        </g>
        <g
           id="g3340">
          <line
             style="fill:#f6f6f6"
             id="line3342"
             y2="518.06"
             x2="302.759"
             y1="498.06"
             x1="285.34201" />
          <polygon
             style="fill:#1d1d1b"
             id="polygon3344"
             points="284.211,499.045 286.473,497.074 302.759,518.06 " />
        </g>
      </g>
      <g
         transform="matrix(0.29886636,-1.1153844,1.1153844,0.29886636,-134.43003,525.21954)"
         id="g4124">
        <path
           stroke-miterlimit="10"
           d="M 284.554,514.06 V 125.393 l 28,27.333 -33.335,-94.666 h -0.011 l -33.333,94.667 28,-27.333 V 514.06 c 0,0 1.042,1 5.339,1 4.036,0 5.34,-1 5.34,-1 z"
           id="path4126"
           inkscape:connector-curvature="0"
           style="fill:#f6f6f6;stroke:#1d1d1b;stroke-width:2.73474503;stroke-miterlimit:10" />
        <polygon
           stroke-miterlimit="10"
           points="248.958,403.31 273.875,373.06 273.875,514.06 248.958,544.06 "
           id="polygon4128"
           style="fill:#f6f6f6;stroke:#1d1d1b;stroke-width:2.73474503;stroke-miterlimit:10" />
        <g
           id="g4130">
          <path
             d="m 272.377,125.323 c 0.231,-2.024 0.519,-3.997 0.855,-5.981 0.337,-1.979 0.729,-3.957 1.211,-5.905 l 2.953,-11.564 -1.476,11.829 c -0.229,1.956 -0.365,3.913 -0.45,5.88 -0.083,1.96 -0.12,3.944 -0.096,5.883 l -2.997,-0.142 z"
             id="path4132"
             inkscape:connector-curvature="0"
             style="fill:#1d1d1b" />
        </g>
        <g
           id="g4134">
          <path
             d="m 283.056,125.463 c 0.023,-1.938 -0.013,-3.922 -0.096,-5.883 -0.085,-1.966 -0.221,-3.924 -0.45,-5.879 l -1.477,-11.829 2.953,11.563 c 0.482,1.949 0.874,3.927 1.211,5.906 0.336,1.985 0.624,3.958 0.854,5.982 l -2.995,0.14 z"
             id="path4136"
             inkscape:connector-curvature="0"
             style="fill:#1d1d1b" />
        </g>
        <g
           id="g4138">
          <polygon
             points="272.744,387.324 275.007,389.295 256.458,408.31 "
             id="polygon4140"
             style="fill:#1d1d1b" />
        </g>
        <g
           id="g4142">
          <polygon
             points="272.744,397.324 275.007,399.295 256.458,418.31 "
             id="polygon4144"
             style="fill:#1d1d1b" />
        </g>
        <g
           id="g4146">
          <polygon
             points="272.744,407.324 275.007,409.295 256.458,428.31 "
             id="polygon4148"
             style="fill:#1d1d1b" />
        </g>
        <g
           id="g4150">
          <polygon
             points="272.744,417.324 275.007,419.295 256.458,438.31 "
             id="polygon4152"
             style="fill:#1d1d1b" />
        </g>
        <g
           id="g4154">
          <polygon
             points="272.744,427.324 275.007,429.295 256.458,448.31 "
             id="polygon4156"
             style="fill:#1d1d1b" />
        </g>
        <g
           id="g4158">
          <polygon
             points="272.744,437.324 275.007,439.295 256.458,458.31 "
             id="polygon4160"
             style="fill:#1d1d1b" />
        </g>
        <g
           id="g4162">
          <polygon
             points="272.744,447.324 275.007,449.295 256.458,468.31 "
             id="polygon4164"
             style="fill:#1d1d1b" />
        </g>
        <g
           id="g4166">
          <polygon
             points="272.744,457.324 275.007,459.295 256.458,478.31 "
             id="polygon4168"
             style="fill:#1d1d1b" />
        </g>
        <g
           id="g4170">
          <polygon
             points="272.744,467.324 275.007,469.295 256.458,488.31 "
             id="polygon4172"
             style="fill:#1d1d1b" />
        </g>
        <g
           id="g4174">
          <polygon
             points="272.744,477.324 275.007,479.295 256.458,498.31 "
             id="polygon4176"
             style="fill:#1d1d1b" />
        </g>
        <g
           id="g4178">
          <polygon
             points="272.744,487.324 275.007,489.295 256.458,508.31 "
             id="polygon4180"
             style="fill:#1d1d1b" />
        </g>
        <g
           id="g4182">
          <polygon
             points="272.744,497.324 275.007,499.295 256.458,518.31 "
             id="polygon4184"
             style="fill:#1d1d1b" />
        </g>
        <polygon
           stroke-miterlimit="10"
           points="310.259,403.06 285.342,372.81 285.342,513.81 310.259,543.81 "
           id="polygon4186"
           style="fill:#f6f6f6;stroke:#1d1d1b;stroke-width:2.73474503;stroke-miterlimit:10" />
        <g
           id="g4188">
          <line
             x1="285.34201"
             y1="388.06"
             x2="302.759"
             y2="408.06"
             id="line4190"
             style="fill:#f6f6f6" />
          <polygon
             points="284.211,389.045 286.473,387.074 302.759,408.06 "
             id="polygon4192"
             style="fill:#1d1d1b" />
        </g>
        <g
           id="g4194">
          <line
             x1="285.34201"
             y1="398.06"
             x2="302.759"
             y2="418.06"
             id="line4196"
             style="fill:#f6f6f6" />
          <polygon
             points="284.211,399.045 286.473,397.074 302.759,418.06 "
             id="polygon4198"
             style="fill:#1d1d1b" />
        </g>
        <g
           id="g4200">
          <line
             x1="285.34201"
             y1="408.06"
             x2="302.759"
             y2="428.06"
             id="line4202"
             style="fill:#f6f6f6" />
          <polygon
             points="284.211,409.045 286.473,407.074 302.759,428.06 "
             id="polygon4204"
             style="fill:#1d1d1b" />
        </g>
        <g
           id="g4206">
          <line
             x1="285.34201"
             y1="418.06"
             x2="302.759"
             y2="438.06"
             id="line4208"
             style="fill:#f6f6f6" />
          <polygon
             points="284.211,419.045 286.473,417.074 302.759,438.06 "
             id="polygon4210"
             style="fill:#1d1d1b" />
        </g>
        <g
           id="g4212">
          <line
             x1="285.34201"
             y1="428.06"
             x2="302.759"
             y2="448.06"
             id="line4214"
             style="fill:#f6f6f6" />
          <polygon
             points="284.211,429.045 286.473,427.074 302.759,448.06 "
             id="polygon4216"
             style="fill:#1d1d1b" />
        </g>
        <g
           id="g4218">
          <line
             x1="285.34201"
             y1="438.06"
             x2="302.759"
             y2="458.06"
             id="line4220"
             style="fill:#f6f6f6" />
          <polygon
             points="284.211,439.045 286.473,437.074 302.759,458.06 "
             id="polygon4222"
             style="fill:#1d1d1b" />
        </g>
        <g
           id="g4224">
          <line
             x1="285.34201"
             y1="448.06"
             x2="302.759"
             y2="468.06"
             id="line4226"
             style="fill:#f6f6f6" />
          <polygon
             points="284.211,449.045 286.473,447.074 302.759,468.06 "
             id="polygon4228"
             style="fill:#1d1d1b" />
        </g>
        <g
           id="g4230">
          <line
             x1="285.34201"
             y1="458.06"
             x2="302.759"
             y2="478.06"
             id="line4232"
             style="fill:#f6f6f6" />
          <polygon
             points="284.211,459.045 286.473,457.074 302.759,478.06 "
             id="polygon4234"
             style="fill:#1d1d1b" />
        </g>
        <g
           id="g4236">
          <line
             x1="285.34201"
             y1="468.06"
             x2="302.759"
             y2="488.06"
             id="line4238"
             style="fill:#f6f6f6" />
          <polygon
             points="284.211,469.045 286.473,467.074 302.759,488.06 "
             id="polygon4240"
             style="fill:#1d1d1b" />
        </g>
        <g
           id="g4242">
          <line
             x1="285.34201"
             y1="478.06"
             x2="302.759"
             y2="498.06"
             id="line4244"
             style="fill:#f6f6f6" />
          <polygon
             points="284.211,479.045 286.473,477.074 302.759,498.06 "
             id="polygon4246"
             style="fill:#1d1d1b" />
        </g>
        <g
           id="g4248">
          <line
             x1="285.34201"
             y1="488.06"
             x2="302.759"
             y2="508.06"
             id="line4250"
             style="fill:#f6f6f6" />
          <polygon
             points="284.211,489.045 286.473,487.074 302.759,508.06 "
             id="polygon4252"
             style="fill:#1d1d1b" />
        </g>
        <g
           id="g4254">
          <line
             x1="285.34201"
             y1="498.06"
             x2="302.759"
             y2="518.06"
             id="line4256"
             style="fill:#f6f6f6" />
          <polygon
             points="284.211,499.045 286.473,497.074 302.759,518.06 "
             id="polygon4258"
             style="fill:#1d1d1b" />
        </g>
      </g>
      <g
         transform="matrix(-0.94590017,-0.66232642,-0.66232642,0.94590017,755.16121,195.596)"
         id="g4260">
        <path
           stroke-miterlimit="10"
           d="M 284.554,514.06 V 125.393 l 28,27.333 -33.335,-94.666 h -0.011 l -33.333,94.667 28,-27.333 V 514.06 c 0,0 1.042,1 5.339,1 4.036,0 5.34,-1 5.34,-1 z"
           id="path4262"
           inkscape:connector-curvature="0"
           style="fill:#f6f6f6;stroke:#1d1d1b;stroke-width:2.73474503;stroke-miterlimit:10" />
        <polygon
           stroke-miterlimit="10"
           points="248.958,403.31 273.875,373.06 273.875,514.06 248.958,544.06 "
           id="polygon4264"
           style="fill:#f6f6f6;stroke:#1d1d1b;stroke-width:2.73474503;stroke-miterlimit:10" />
        <g
           id="g4266">
          <path
             d="m 272.377,125.323 c 0.231,-2.024 0.519,-3.997 0.855,-5.981 0.337,-1.979 0.729,-3.957 1.211,-5.905 l 2.953,-11.564 -1.476,11.829 c -0.229,1.956 -0.365,3.913 -0.45,5.88 -0.083,1.96 -0.12,3.944 -0.096,5.883 l -2.997,-0.142 z"
             id="path4268"
             inkscape:connector-curvature="0"
             style="fill:#1d1d1b" />
        </g>
        <g
           id="g4270">
          <path
             d="m 283.056,125.463 c 0.023,-1.938 -0.013,-3.922 -0.096,-5.883 -0.085,-1.966 -0.221,-3.924 -0.45,-5.879 l -1.477,-11.829 2.953,11.563 c 0.482,1.949 0.874,3.927 1.211,5.906 0.336,1.985 0.624,3.958 0.854,5.982 l -2.995,0.14 z"
             id="path4272"
             inkscape:connector-curvature="0"
             style="fill:#1d1d1b" />
        </g>
        <g
           id="g4274">
          <polygon
             points="275.007,389.295 256.458,408.31 272.744,387.324 "
             id="polygon4276"
             style="fill:#1d1d1b" />
        </g>
        <g
           id="g4278">
          <polygon
             points="275.007,399.295 256.458,418.31 272.744,397.324 "
             id="polygon4280"
             style="fill:#1d1d1b" />
        </g>
        <g
           id="g4282">
          <polygon
             points="275.007,409.295 256.458,428.31 272.744,407.324 "
             id="polygon4284"
             style="fill:#1d1d1b" />
        </g>
        <g
           id="g4286">
          <polygon
             points="275.007,419.295 256.458,438.31 272.744,417.324 "
             id="polygon4288"
             style="fill:#1d1d1b" />
        </g>
        <g
           id="g4290">
          <polygon
             points="275.007,429.295 256.458,448.31 272.744,427.324 "
             id="polygon4292"
             style="fill:#1d1d1b" />
        </g>
        <g
           id="g4294">
          <polygon
             points="275.007,439.295 256.458,458.31 272.744,437.324 "
             id="polygon4296"
             style="fill:#1d1d1b" />
        </g>
        <g
           id="g4298">
          <polygon
             points="275.007,449.295 256.458,468.31 272.744,447.324 "
             id="polygon4300"
             style="fill:#1d1d1b" />
        </g>
        <g
           id="g4302">
          <polygon
             points="275.007,459.295 256.458,478.31 272.744,457.324 "
             id="polygon4304"
             style="fill:#1d1d1b" />
        </g>
        <g
           id="g4306">
          <polygon
             points="275.007,469.295 256.458,488.31 272.744,467.324 "
             id="polygon4308"
             style="fill:#1d1d1b" />
        </g>
        <g
           id="g4310">
          <polygon
             points="275.007,479.295 256.458,498.31 272.744,477.324 "
             id="polygon4312"
             style="fill:#1d1d1b" />
        </g>
        <g
           id="g4314">
          <polygon
             points="275.007,489.295 256.458,508.31 272.744,487.324 "
             id="polygon4316"
             style="fill:#1d1d1b" />
        </g>
        <g
           id="g4318">
          <polygon
             points="275.007,499.295 256.458,518.31 272.744,497.324 "
             id="polygon4320"
             style="fill:#1d1d1b" />
        </g>
        <polygon
           stroke-miterlimit="10"
           points="310.259,403.06 285.342,372.81 285.342,513.81 310.259,543.81 "
           id="polygon4322"
           style="fill:#f6f6f6;stroke:#1d1d1b;stroke-width:2.73474503;stroke-miterlimit:10" />
        <g
           id="g4324">
          <line
             x1="285.34201"
             y1="388.06"
             x2="302.759"
             y2="408.06"
             id="line4326"
             style="fill:#f6f6f6" />
          <polygon
             points="286.473,387.074 302.759,408.06 284.211,389.045 "
             id="polygon4328"
             style="fill:#1d1d1b" />
        </g>
        <g
           id="g4330">
          <line
             x1="285.34201"
             y1="398.06"
             x2="302.759"
             y2="418.06"
             id="line4332"
             style="fill:#f6f6f6" />
          <polygon
             points="286.473,397.074 302.759,418.06 284.211,399.045 "
             id="polygon4334"
             style="fill:#1d1d1b" />
        </g>
        <g
           id="g4336">
          <line
             x1="285.34201"
             y1="408.06"
             x2="302.759"
             y2="428.06"
             id="line4338"
             style="fill:#f6f6f6" />
          <polygon
             points="286.473,407.074 302.759,428.06 284.211,409.045 "
             id="polygon4340"
             style="fill:#1d1d1b" />
        </g>
        <g
           id="g4342">
          <line
             x1="285.34201"
             y1="418.06"
             x2="302.759"
             y2="438.06"
             id="line4344"
             style="fill:#f6f6f6" />
          <polygon
             points="286.473,417.074 302.759,438.06 284.211,419.045 "
             id="polygon4346"
             style="fill:#1d1d1b" />
        </g>
        <g
           id="g4348">
          <line
             x1="285.34201"
             y1="428.06"
             x2="302.759"
             y2="448.06"
             id="line4350"
             style="fill:#f6f6f6" />
          <polygon
             points="286.473,427.074 302.759,448.06 284.211,429.045 "
             id="polygon4352"
             style="fill:#1d1d1b" />
        </g>
        <g
           id="g4354">
          <line
             x1="285.34201"
             y1="438.06"
             x2="302.759"
             y2="458.06"
             id="line4356"
             style="fill:#f6f6f6" />
          <polygon
             points="286.473,437.074 302.759,458.06 284.211,439.045 "
             id="polygon4358"
             style="fill:#1d1d1b" />
        </g>
        <g
           id="g4360">
          <line
             x1="285.34201"
             y1="448.06"
             x2="302.759"
             y2="468.06"
             id="line4362"
             style="fill:#f6f6f6" />
          <polygon
             points="286.473,447.074 302.759,468.06 284.211,449.045 "
             id="polygon4364"
             style="fill:#1d1d1b" />
        </g>
        <g
           id="g4366">
          <line
             x1="285.34201"
             y1="458.06"
             x2="302.759"
             y2="478.06"
             id="line4368"
             style="fill:#f6f6f6" />
          <polygon
             points="286.473,457.074 302.759,478.06 284.211,459.045 "
             id="polygon4370"
             style="fill:#1d1d1b" />
        </g>
        <g
           id="g4372">
          <line
             x1="285.34201"
             y1="468.06"
             x2="302.759"
             y2="488.06"
             id="line4374"
             style="fill:#f6f6f6" />
          <polygon
             points="286.473,467.074 302.759,488.06 284.211,469.045 "
             id="polygon4376"
             style="fill:#1d1d1b" />
        </g>
        <g
           id="g4378">
          <line
             x1="285.34201"
             y1="478.06"
             x2="302.759"
             y2="498.06"
             id="line4380"
             style="fill:#f6f6f6" />
          <polygon
             points="286.473,477.074 302.759,498.06 284.211,479.045 "
             id="polygon4382"
             style="fill:#1d1d1b" />
        </g>
        <g
           id="g4384">
          <line
             x1="285.34201"
             y1="488.06"
             x2="302.759"
             y2="508.06"
             id="line4386"
             style="fill:#f6f6f6" />
          <polygon
             points="286.473,487.074 302.759,508.06 284.211,489.045 "
             id="polygon4388"
             style="fill:#1d1d1b" />
        </g>
        <g
           id="g4390">
          <line
             x1="285.34201"
             y1="498.06"
             x2="302.759"
             y2="518.06"
             id="line4392"
             style="fill:#f6f6f6" />
          <polygon
             points="286.473,497.074 302.759,518.06 284.211,499.045 "
             id="polygon4394"
             style="fill:#1d1d1b" />
        </g>
      </g>
      <g
         id="g4396"
         transform="matrix(-0.29886636,-1.1153844,-1.1153844,0.29886636,713.05824,525.21954)">
        <path
           style="fill:#f6f6f6;stroke:#1d1d1b;stroke-width:2.73474503;stroke-miterlimit:10"
           inkscape:connector-curvature="0"
           id="path4398"
           d="M 284.554,514.06 V 125.393 l 28,27.333 -33.335,-94.666 h -0.011 l -33.333,94.667 28,-27.333 V 514.06 c 0,0 1.042,1 5.339,1 4.036,0 5.34,-1 5.34,-1 z"
           stroke-miterlimit="10" />
        <polygon
           style="fill:#f6f6f6;stroke:#1d1d1b;stroke-width:2.73474503;stroke-miterlimit:10"
           id="polygon4400"
           points="273.875,373.06 273.875,514.06 248.958,544.06 248.958,403.31 "
           stroke-miterlimit="10" />
        <g
           id="g4402">
          <path
             style="fill:#1d1d1b"
             inkscape:connector-curvature="0"
             id="path4404"
             d="m 272.377,125.323 c 0.231,-2.024 0.519,-3.997 0.855,-5.981 0.337,-1.979 0.729,-3.957 1.211,-5.905 l 2.953,-11.564 -1.476,11.829 c -0.229,1.956 -0.365,3.913 -0.45,5.88 -0.083,1.96 -0.12,3.944 -0.096,5.883 l -2.997,-0.142 z" />
        </g>
        <g
           id="g4406">
          <path
             style="fill:#1d1d1b"
             inkscape:connector-curvature="0"
             id="path4408"
             d="m 283.056,125.463 c 0.023,-1.938 -0.013,-3.922 -0.096,-5.883 -0.085,-1.966 -0.221,-3.924 -0.45,-5.879 l -1.477,-11.829 2.953,11.563 c 0.482,1.949 0.874,3.927 1.211,5.906 0.336,1.985 0.624,3.958 0.854,5.982 l -2.995,0.14 z" />
        </g>
        <g
           id="g4410">
          <polygon
             style="fill:#1d1d1b"
             id="polygon4412"
             points="275.007,389.295 256.458,408.31 272.744,387.324 " />
        </g>
        <g
           id="g4414">
          <polygon
             style="fill:#1d1d1b"
             id="polygon4416"
             points="275.007,399.295 256.458,418.31 272.744,397.324 " />
        </g>
        <g
           id="g4418">
          <polygon
             style="fill:#1d1d1b"
             id="polygon4420"
             points="275.007,409.295 256.458,428.31 272.744,407.324 " />
        </g>
        <g
           id="g4422">
          <polygon
             style="fill:#1d1d1b"
             id="polygon4424"
             points="275.007,419.295 256.458,438.31 272.744,417.324 " />
        </g>
        <g
           id="g4426">
          <polygon
             style="fill:#1d1d1b"
             id="polygon4428"
             points="275.007,429.295 256.458,448.31 272.744,427.324 " />
        </g>
        <g
           id="g4430">
          <polygon
             style="fill:#1d1d1b"
             id="polygon4432"
             points="275.007,439.295 256.458,458.31 272.744,437.324 " />
        </g>
        <g
           id="g4434">
          <polygon
             style="fill:#1d1d1b"
             id="polygon4436"
             points="275.007,449.295 256.458,468.31 272.744,447.324 " />
        </g>
        <g
           id="g4438">
          <polygon
             style="fill:#1d1d1b"
             id="polygon4440"
             points="275.007,459.295 256.458,478.31 272.744,457.324 " />
        </g>
        <g
           id="g4442">
          <polygon
             style="fill:#1d1d1b"
             id="polygon4444"
             points="275.007,469.295 256.458,488.31 272.744,467.324 " />
        </g>
        <g
           id="g4446">
          <polygon
             style="fill:#1d1d1b"
             id="polygon4448"
             points="275.007,479.295 256.458,498.31 272.744,477.324 " />
        </g>
        <g
           id="g4450">
          <polygon
             style="fill:#1d1d1b"
             id="polygon4452"
             points="275.007,489.295 256.458,508.31 272.744,487.324 " />
        </g>
        <g
           id="g4454">
          <polygon
             style="fill:#1d1d1b"
             id="polygon4456"
             points="275.007,499.295 256.458,518.31 272.744,497.324 " />
        </g>
        <polygon
           style="fill:#f6f6f6;stroke:#1d1d1b;stroke-width:2.73474503;stroke-miterlimit:10"
           id="polygon4458"
           points="285.342,372.81 285.342,513.81 310.259,543.81 310.259,403.06 "
           stroke-miterlimit="10" />
        <g
           id="g4460">
          <line
             style="fill:#f6f6f6"
             id="line4462"
             y2="408.06"
             x2="302.759"
             y1="388.06"
             x1="285.34201" />
          <polygon
             style="fill:#1d1d1b"
             id="polygon4464"
             points="286.473,387.074 302.759,408.06 284.211,389.045 " />
        </g>
        <g
           id="g4466">
          <line
             style="fill:#f6f6f6"
             id="line4468"
             y2="418.06"
             x2="302.759"
             y1="398.06"
             x1="285.34201" />
          <polygon
             style="fill:#1d1d1b"
             id="polygon4470"
             points="286.473,397.074 302.759,418.06 284.211,399.045 " />
        </g>
        <g
           id="g4472">
          <line
             style="fill:#f6f6f6"
             id="line4474"
             y2="428.06"
             x2="302.759"
             y1="408.06"
             x1="285.34201" />
          <polygon
             style="fill:#1d1d1b"
             id="polygon4476"
             points="286.473,407.074 302.759,428.06 284.211,409.045 " />
        </g>
        <g
           id="g4478">
          <line
             style="fill:#f6f6f6"
             id="line4480"
             y2="438.06"
             x2="302.759"
             y1="418.06"
             x1="285.34201" />
          <polygon
             style="fill:#1d1d1b"
             id="polygon4482"
             points="286.473,417.074 302.759,438.06 284.211,419.045 " />
        </g>
        <g
           id="g4484">
          <line
             style="fill:#f6f6f6"
             id="line4486"
             y2="448.06"
             x2="302.759"
             y1="428.06"
             x1="285.34201" />
          <polygon
             style="fill:#1d1d1b"
             id="polygon4488"
             points="286.473,427.074 302.759,448.06 284.211,429.045 " />
        </g>
        <g
           id="g4490">
          <line
             style="fill:#f6f6f6"
             id="line4492"
             y2="458.06"
             x2="302.759"
             y1="438.06"
             x1="285.34201" />
          <polygon
             style="fill:#1d1d1b"
             id="polygon4494"
             points="286.473,437.074 302.759,458.06 284.211,439.045 " />
        </g>
        <g
           id="g4496">
          <line
             style="fill:#f6f6f6"
             id="line4498"
             y2="468.06"
             x2="302.759"
             y1="448.06"
             x1="285.34201" />
          <polygon
             style="fill:#1d1d1b"
             id="polygon4500"
             points="286.473,447.074 302.759,468.06 284.211,449.045 " />
        </g>
        <g
           id="g4502">
          <line
             style="fill:#f6f6f6"
             id="line4504"
             y2="478.06"
             x2="302.759"
             y1="458.06"
             x1="285.34201" />
          <polygon
             style="fill:#1d1d1b"
             id="polygon4506"
             points="286.473,457.074 302.759,478.06 284.211,459.045 " />
        </g>
        <g
           id="g4508">
          <line
             style="fill:#f6f6f6"
             id="line4510"
             y2="488.06"
             x2="302.759"
             y1="468.06"
             x1="285.34201" />
          <polygon
             style="fill:#1d1d1b"
             id="polygon4512"
             points="286.473,467.074 302.759,488.06 284.211,469.045 " />
        </g>
        <g
           id="g4514">
          <line
             style="fill:#f6f6f6"
             id="line4516"
             y2="498.06"
             x2="302.759"
             y1="478.06"
             x1="285.34201" />
          <polygon
             style="fill:#1d1d1b"
             id="polygon4518"
             points="286.473,477.074 302.759,498.06 284.211,479.045 " />
        </g>
        <g
           id="g4520">
          <line
             style="fill:#f6f6f6"
             id="line4522"
             y2="508.06"
             x2="302.759"
             y1="488.06"
             x1="285.34201" />
          <polygon
             style="fill:#1d1d1b"
             id="polygon4524"
             points="286.473,487.074 302.759,508.06 284.211,489.045 " />
        </g>
        <g
           id="g4526">
          <line
             style="fill:#f6f6f6"
             id="line4528"
             y2="518.06"
             x2="302.759"
             y1="498.06"
             x1="285.34201" />
          <polygon
             style="fill:#1d1d1b"
             id="polygon4530"
             points="286.473,497.074 302.759,518.06 284.211,499.045 " />
        </g>
      </g>
    </g>
    <g
       id="g82"
       transform="matrix(1.1547309,0,0,1.1547309,-22.417622,-18.143296)">
      <path
         style="fill:#f6f6f6;stroke:#1d1d1b;stroke-width:2.73474503;stroke-miterlimit:10"
         inkscape:connector-curvature="0"
         id="path84"
         d="M 284.554,514.06 V 125.393 l 28,27.333 -33.335,-94.666 h -0.011 l -33.333,94.667 28,-27.333 V 514.06 c 0,0 1.042,1 5.339,1 4.036,0 5.34,-1 5.34,-1 z"
         stroke-miterlimit="10" />
      <polygon
         style="fill:#f6f6f6;stroke:#1d1d1b;stroke-width:2.73474503;stroke-miterlimit:10"
         id="polygon86"
         points="273.875,514.06 248.958,544.06 248.958,403.31 273.875,373.06 "
         stroke-miterlimit="10" />
      <g
         id="g88">
        <path
           style="fill:#1d1d1b"
           inkscape:connector-curvature="0"
           id="path90"
           d="m 272.377,125.323 c 0.231,-2.024 0.519,-3.997 0.855,-5.981 0.337,-1.979 0.729,-3.957 1.211,-5.905 l 2.953,-11.564 -1.476,11.829 c -0.229,1.956 -0.365,3.913 -0.45,5.88 -0.083,1.96 -0.12,3.944 -0.096,5.883 l -2.997,-0.142 z" />
      </g>
      <g
         id="g92">
        <path
           style="fill:#1d1d1b"
           inkscape:connector-curvature="0"
           id="path94"
           d="m 283.056,125.463 c 0.023,-1.938 -0.013,-3.922 -0.096,-5.883 -0.085,-1.966 -0.221,-3.924 -0.45,-5.879 l -1.477,-11.829 2.953,11.563 c 0.482,1.949 0.874,3.927 1.211,5.906 0.336,1.985 0.624,3.958 0.854,5.982 l -2.995,0.14 z" />
      </g>
      <g
         id="g96">
        <polygon
           style="fill:#1d1d1b"
           id="polygon98"
           points="275.007,389.295 256.458,408.31 272.744,387.324 " />
      </g>
      <g
         id="g100">
        <polygon
           style="fill:#1d1d1b"
           id="polygon102"
           points="275.007,399.295 256.458,418.31 272.744,397.324 " />
      </g>
      <g
         id="g104">
        <polygon
           style="fill:#1d1d1b"
           id="polygon106"
           points="275.007,409.295 256.458,428.31 272.744,407.324 " />
      </g>
      <g
         id="g108">
        <polygon
           style="fill:#1d1d1b"
           id="polygon110"
           points="275.007,419.295 256.458,438.31 272.744,417.324 " />
      </g>
      <g
         id="g112">
        <polygon
           style="fill:#1d1d1b"
           id="polygon114"
           points="275.007,429.295 256.458,448.31 272.744,427.324 " />
      </g>
      <g
         id="g116">
        <polygon
           style="fill:#1d1d1b"
           id="polygon118"
           points="275.007,439.295 256.458,458.31 272.744,437.324 " />
      </g>
      <g
         id="g120">
        <polygon
           style="fill:#1d1d1b"
           id="polygon122"
           points="275.007,449.295 256.458,468.31 272.744,447.324 " />
      </g>
      <g
         id="g124">
        <polygon
           style="fill:#1d1d1b"
           id="polygon126"
           points="275.007,459.295 256.458,478.31 272.744,457.324 " />
      </g>
      <g
         id="g128">
        <polygon
           style="fill:#1d1d1b"
           id="polygon130"
           points="275.007,469.295 256.458,488.31 272.744,467.324 " />
      </g>
      <g
         id="g132">
        <polygon
           style="fill:#1d1d1b"
           id="polygon134"
           points="275.007,479.295 256.458,498.31 272.744,477.324 " />
      </g>
      <g
         id="g136">
        <polygon
           style="fill:#1d1d1b"
           id="polygon138"
           points="275.007,489.295 256.458,508.31 272.744,487.324 " />
      </g>
      <g
         id="g140">
        <polygon
           style="fill:#1d1d1b"
           id="polygon142"
           points="275.007,499.295 256.458,518.31 272.744,497.324 " />
      </g>
      <polygon
         style="fill:#f6f6f6;stroke:#1d1d1b;stroke-width:2.73474503;stroke-miterlimit:10"
         id="polygon144"
         points="285.342,513.81 310.259,543.81 310.259,403.06 285.342,372.81 "
         stroke-miterlimit="10" />
      <g
         id="g146">
        <line
           style="fill:#f6f6f6"
           id="line148"
           y2="408.06"
           x2="302.759"
           y1="388.06"
           x1="285.34201" />
        <polygon
           style="fill:#1d1d1b"
           id="polygon150"
           points="286.473,387.074 302.759,408.06 284.211,389.045 " />
      </g>
      <g
         id="g152">
        <line
           style="fill:#f6f6f6"
           id="line154"
           y2="418.06"
           x2="302.759"
           y1="398.06"
           x1="285.34201" />
        <polygon
           style="fill:#1d1d1b"
           id="polygon156"
           points="286.473,397.074 302.759,418.06 284.211,399.045 " />
      </g>
      <g
         id="g158">
        <line
           style="fill:#f6f6f6"
           id="line160"
           y2="428.06"
           x2="302.759"
           y1="408.06"
           x1="285.34201" />
        <polygon
           style="fill:#1d1d1b"
           id="polygon162"
           points="286.473,407.074 302.759,428.06 284.211,409.045 " />
      </g>
      <g
         id="g164">
        <line
           style="fill:#f6f6f6"
           id="line166"
           y2="438.06"
           x2="302.759"
           y1="418.06"
           x1="285.34201" />
        <polygon
           style="fill:#1d1d1b"
           id="polygon168"
           points="286.473,417.074 302.759,438.06 284.211,419.045 " />
      </g>
      <g
         id="g170">
        <line
           style="fill:#f6f6f6"
           id="line172"
           y2="448.06"
           x2="302.759"
           y1="428.06"
           x1="285.34201" />
        <polygon
           style="fill:#1d1d1b"
           id="polygon174"
           points="286.473,427.074 302.759,448.06 284.211,429.045 " />
      </g>
      <g
         id="g176">
        <line
           style="fill:#f6f6f6"
           id="line178"
           y2="458.06"
           x2="302.759"
           y1="438.06"
           x1="285.34201" />
        <polygon
           style="fill:#1d1d1b"
           id="polygon180"
           points="286.473,437.074 302.759,458.06 284.211,439.045 " />
      </g>
      <g
         id="g182">
        <line
           style="fill:#f6f6f6"
           id="line184"
           y2="468.06"
           x2="302.759"
           y1="448.06"
           x1="285.34201" />
        <polygon
           style="fill:#1d1d1b"
           id="polygon186"
           points="286.473,447.074 302.759,468.06 284.211,449.045 " />
      </g>
      <g
         id="g188">
        <line
           style="fill:#f6f6f6"
           id="line190"
           y2="478.06"
           x2="302.759"
           y1="458.06"
           x1="285.34201" />
        <polygon
           style="fill:#1d1d1b"
           id="polygon192"
           points="286.473,457.074 302.759,478.06 284.211,459.045 " />
      </g>
      <g
         id="g194">
        <line
           style="fill:#f6f6f6"
           id="line196"
           y2="488.06"
           x2="302.759"
           y1="468.06"
           x1="285.34201" />
        <polygon
           style="fill:#1d1d1b"
           id="polygon198"
           points="286.473,467.074 302.759,488.06 284.211,469.045 " />
      </g>
      <g
         id="g200">
        <line
           style="fill:#f6f6f6"
           id="line202"
           y2="498.06"
           x2="302.759"
           y1="478.06"
           x1="285.34201" />
        <polygon
           style="fill:#1d1d1b"
           id="polygon204"
           points="286.473,477.074 302.759,498.06 284.211,479.045 " />
      </g>
      <g
         id="g206">
        <line
           style="fill:#f6f6f6"
           id="line208"
           y2="508.06"
           x2="302.759"
           y1="488.06"
           x1="285.34201" />
        <polygon
           style="fill:#1d1d1b"
           id="polygon210"
           points="286.473,487.074 302.759,508.06 284.211,489.045 " />
      </g>
      <g
         id="g212">
        <line
           style="fill:#f6f6f6"
           id="line214"
           y2="518.06"
           x2="302.759"
           y1="498.06"
           x1="285.34201" />
        <polygon
           style="fill:#1d1d1b"
           id="polygon216"
           points="286.473,497.074 302.759,518.06 284.211,499.045 " />
      </g>
    </g>
  </g>
  <use
     height="1052.3622"
     width="744.09448"
     y="0"
     x="0"
     style="fill:url(#rg-1);stroke:#000000;stroke-width:3"
     id="shine"
     xlink:href="#shield" />
</svg>
