<?xml version="1.0" encoding="UTF-8"?>
<svg xmlns="http://www.w3.org/2000/svg" xmlns:xlink="http://www.w3.org/1999/xlink" width="600" height="660">
<defs>
  <radialGradient id="rg" gradientUnits="userSpaceOnUse" cx="220" cy="220" r="405">
    <stop style="stop-color:#ffffff;stop-opacity:.3" offset="0"/>
    <stop style="stop-color:#ffffff;stop-opacity:.2" offset=".2"/>
    <stop style="stop-color:#666666;stop-opacity:.1" offset=".6"/>
    <stop style="stop-color:#000000;stop-opacity:.13" offset="1"/>
  </radialGradient>
  <pattern id="ermine" patternUnits="userSpaceOnUse" x="10" y="8" width="116" height="184">
    <path style="fill:#000000;" id="ermine-unit" d="m 0.40009,-18.332585 c -4.60101,20.84701 -13.10288,35.56792 -22.40493,46.1743 3.90086,-1.09721 8.20181,-4.02311 12.40273,-6.6747 -2.60057,5.48605 -5.20114,10.1492 -7.70169,14.99522 1.50033,-0.54861 6.4014,-5.39463 13.00285,-12.5265 1.00022,9.78347 2.40053,14.44662 4.50099,21.12132 1.70038,-6.6747 2.90064,-11.15498 4.20093,-21.21275 4.00088,4.48028 7.80171,9.05199 13.2029,12.89223 l -7.50165,-15.54383 c 3.90086,2.46873 8.2018,5.76036 12.40272,7.13188 C 12.70279,16.869605 4.40097,2.514425 0.40009,-18.332585 Z m -11.70257,-5.66893 c -5.20115,0.27431 -10.9024,7.31474 -16.50363,1.37152 3.30072,8.13765 9.20202,4.20597 9.70213,5.48605 5.9013,9.8749 14.70323,1.82869 12.70279,-2.83446 -1.90042,-3.10876 -3.80083,-4.11454 -5.90129,-4.02311 z m 21.80479,-0.0914 c -1.8004,0.18287 -3.50077,1.28008 -5.10112,4.02311 -2.00044,4.66314 6.80149,12.70936 12.80281,2.83446 0.40009,-1.18865 6.30138,2.65159 9.60211,-5.48606 -5.60123,5.8518 -11.30248,-1.09721 -16.50363,-1.37151 -0.30006,0 -0.50011,0 -0.80017,0 z m -11.8026,-20.66414 c 7.00154,8.77769 -12.60277,12.25219 -2.00044,20.48127 4.50099,2.83446 15.10332,-3.29163 5.80128,-10.78924 -1.20026,-0.64004 4.20092,-5.02889 -3.80084,-9.69203 z"/>
    <use xlink:href="#ermine-unit" transform="translate(116,0)"/>
    <use xlink:href="#ermine-unit" transform="translate(58,92)"/>
    <use xlink:href="#ermine-unit" transform="translate(0,184)"/>
    <use xlink:href="#ermine-unit" transform="translate(116,184)"/>
  </pattern>
  <path id="maunch" d="m 48.551,-116.94 c -5.434,0.52 -9.987,1.02 -13.42,2.48 -1.739,0.76 -3.098,1.57 -4.242,2.93 -1.143,1.31 -1.906,3.1 -1.906,4.88 0,2.6 0.929,6.08 2.573,11.562 1.669,5.482 4.076,12.513 6.937,20.832 5.886,16.636 13.919,37.968 22.785,59.99 40.762,101.583 40.662,151.446 0,293.926 -15.444,53.81 -25.812,108.76 -30.389,155.62 -4.624,46.87 -3.36,85.49 5.053,107.46 2.192,5.63 7.627,11.78 14.634,17.95 7.008,6.24 15.659,12.25 24.455,16.83 19.83,10.17 38.699,34.6 55.869,73.38 19.78,44.58 35.44,63.61 62.68,75.39 11.47,4.98 19.88,8.63 26.2,11.06 6.24,2.41 10.15,3.9 13.91,2.72 1.84,-0.6 3.41,-2.43 3.91,-4.3 0.55,-1.78 0.55,-3.66 0,-5.9 -0.64,-4.44 -2.28,-10.3 -4.24,-18.29 -4.79,-18.87 3.65,-47.83 32.61,-106.3 32.42,-65.46 40.27,-93.69 40.94,-147.27 0.64,-59.18 -4.41,-75.01 -45.71,-144.44 -25.22,-42.37 -52.96,-97.1 -61.33,-120.86 -8.36,-23.69 -13.46,-49.91 -14.77,-70.02 -0.64,-10.04 -0.55,-18.67 0.86,-24.41 0.62,-2.816 1.35,-4.89 2.19,-6.074 0.86,-1.195 1.45,-1.53 2.22,-1.53 3.52,0 11.15,4.243 19.9,12.204 8.69,7.93 18.68,19.26 28.86,32.39 20.21,26.2 40.75,59.66 52.29,87.97 l 25.65,62.71 2.88,7.11 2.22,-7.42 15.11,-51.38 c 11.87,-40.07 31.92,-82.02 53.34,-100.52 7.65,-6.6 15.21,-11.43 22.12,-11.05 4.72,0 7.43,1.69 9.3,5.1 1.83,3.4 2.71,9.65 1.9,19.3 -1.74,19.31 -10.01,52.13 -25.33,104.8 -12.4,42.65 -21.05,86.78 -24.96,122.21 -1.95,17.67 -2.67,33.19 -2.08,45.23 0.6,12.1 2.19,20.83 6.79,25.45 0.9,0.86 2.04,1.15 3.11,1.19 1.04,0 1.9,0 2.88,-0.54 1.9,-0.65 4.03,-1.74 6.41,-3.36 4.84,-3.27 10.94,-8.3 18.07,-14.76 14.18,-12.92 32.32,-31.41 50.6,-51.36 18.26,-19.97 36.73,-41.4 51.63,-60.32 14.89,-18.93 26.14,-35.21 30.38,-45.46 4.08,-9.81 8.1,-27.39 11.9,-49.86 3.81,-22.38 7.4,-49.36 10.39,-77.43 5.93,-56.111 9.5,-116.199 7.44,-151.1869 -1.25,-21.1651 -9.68,-49.3611 -19.33,-64.1151 -7.56,-11.439 -13.71,-18.447 -23.99,-21.307 -10.26,-2.931 -23.85,-1.907 -47.02,0.81 -68.59,8.128 -110.45,30.747 -152.02,82.395 l -31.79,39.161 -31.74,-41.878 c -19.1,-25.001 -54.37,-56.034 -79.32,-69.811 -25,-13.823 -63.31,-25.078 -95.651,-30.528 -16.161,-2.72 -30.771,-3.98 -41.592,-3.36 z"/>
  <path id="shield" d="m2,2v257c0,286 298,398 298,398c0,0 298-112 298-398V2z"/>
</defs>
<use id="field" xlink:href="#shield" style="fill:#ff6666;"/>
<g id="bordure">
    <path style="fill:#ffdd00;" d="M 2 2 L 2 259 C 2 545 300 657 300 657 C 300 657 598 545 598 259 L 598 2 L 2 2 z M 100 100 L 500 100 L 500 259 C 500 424.40588 365.1074 515.01826 300 549.1543 C 234.8926 515.01826 100 424.40588 100 259 L 100 100 z" />
    <use xlink:href="#ermine-unit" transform="translate(50,50)scale(0.8)" />
    <use xlink:href="#ermine-unit" transform="translate(300,603)scale(0.8)" />
    <use xlink:href="#ermine-unit" transform="translate(550,50)scale(0.8)" />
    <use xlink:href="#ermine-unit" transform="translate(300,50)scale(0.8)" />
    <use xlink:href="#ermine-unit" transform="translate(175,50)scale(0.8)" />
    <use xlink:href="#ermine-unit" transform="translate(425,50)scale(0.8)" />
    <use xlink:href="#ermine-unit" transform="translate(50,175)scale(0.8)" />
    <use xlink:href="#ermine-unit" transform="translate(550,175)scale(0.8)" />
    <use xlink:href="#ermine-unit" transform="rotate(-8.1777,2206.4,-258.49)scale(0.8)" />
    <use xlink:href="#ermine-unit" transform="rotate(-30.63,862.7,25.988)scale(0.8)" />
    <use xlink:href="#ermine-unit" transform="rotate(-49.684,682.41,58.576)scale(0.8)" />
    <use xlink:href="#ermine-unit" transform="rotate(8.1777,-1907.6,3936.4)scale(0.8)" />
    <use xlink:href="#ermine-unit" transform="rotate(30.63,-563.67,1121.3)scale(0.8)" />
    <use xlink:href="#ermine-unit" transform="rotate(49.684,-382.28,706.21)scale(0.8)" />
</g>
<g transform="translate(190,190)scale(0.4)">
    <use xlink:href="#maunch" style="fill:#ffdd00;"/>
    <use xlink:href="#maunch" style="fill:url(#ermine);"/>
    <path style="fill:#aaaa00;" d="m 528.34,-70.133 c 0,0 0.67,0 1.36,0.643 1.91,1.406 5.81,6.602 9.5,13.562 3.72,6.983 7.35,15.992 9.37,25.765 3.27,15.897 5.87,37.5869 5.6,64.424 -0.55,39.017 -5.17,80.719 -6.65,92.709 -0.52,4.13 -1.19,14.17 -2.22,23.44 -0.54,4.38 -1.14,8.46 -1.69,11.48 -0.54,-0.74 -0.59,-1.23 -1.02,-2.22 -1.74,-4.28 -3.99,-10.29 -6.25,-17.09 -4.62,-13.55 -9.89,-29.97 -14.63,-41.7 -10.37,-25.863 -13.16,-48.005 -14.09,-70.36 -0.9,-22.024 0,-43.808 8.01,-66.761 4.89,-14.157 7.72,-24.096 9.99,-29.507 1.14,-2.717 2.29,-4.075 2.57,-4.242 0,0 0,0 0,0 z" />
</g>
<use id="shine" xlink:href="#shield" style="fill:url(#rg);stroke:#000000;stroke-width:3;"/>
</svg>
