<svg
	xmlns="http://www.w3.org/2000/svg"
	xmlns:xlink="http://www.w3.org/1999/xlink" width="600" height="660">
	<defs>
		<radialGradient id="rg" gradientUnits="userSpaceOnUse" cx="220" cy="220" r="405">
			<stop style="stop-color:#fff;stop-opacity:.3" offset="0"/>
			<stop style="stop-color:#fff;stop-opacity:.2" offset=".2"/>
			<stop style="stop-color:#666;stop-opacity:.1" offset=".6"/>
			<stop style="stop-color:#000;stop-opacity:.13" offset="1"/>
		</radialGradient>
		<clipPath id="clip-shield">
			<path id="shield" d="m2,2v257c0,286 298,398 298,398c0,0 298-112 298-398V2z"/>
		</clipPath>
		<g id="crab" transform="scale(1.15)" style="fill:#dd0000;stroke:#550000;stroke-width:1;stroke-linecap:round;stroke-linejoin:round;">
			<path d="m -20.2,-34.22 c 5.03,4.05 20.65,-13.261 17.19,-19.761 -3.02,2.53 -6.51,4.77 -10.67,6.6 -2.63,1.2 -3.3,1.85 -4.67,1 1.37,0.85 2.04,0.2 4.67,-1 3.08,-4.22 5.44,-6.53 8.49,-8.41 -4.58,-2.66 -29.07,13.101 -21.24,17.821 z"/>
			<path d="m -36.23,-23.87 c -4.24,8.15 7.61,19.16 10.78,15.25 0,0 4.24,-3.02 5.83,-5.21 3.51,-4.85 -4.04,-10.53 -5.64,-9.61 -3.56,2.03 -7.67,0.61 -10.97,-0.43 z"/>
			<path d="m -49.34,-29.68 c 2.18,1.8 4.37,1.09 6.56,0.41 1.67,4.78 1.76,9.56 1.63,14.34 -2.42,2.41 -2.31,3.06 -6.69,3.28 -2.68,-4.84 -4.96,-10.31 -1.5,-18.03 z"/>
			<path d="m -42.68,-3.93 c -0.92,-1.45 1.03,-4.56 5.4,-3.62 2.02,2.97 6.12,5.33 6.24,10.06 0.11,4.61 -1.37,3.84 -6.44,2.14 -5.05,-1.69 -5.35,-2.83 -5.2,-8.58 z"/>
			<path d="m -47.98,-40.61 c -0.56,-2.87 2.77,-2.7 5.32,-3.15 l -2.32,2.19 0.13,1.78 z"/>
			<path d="m -49.75,-29.79 c -2.49,-3.43 -0.1,-7.3 1.23,-11.07 l 3.96,0.55 c 0,8.21 1.45,7.56 2.18,11.34 -2.52,0.2 -5.19,1.65 -7.37,-0.82 z"/>
			<path d="m -63.47,-13.58 c 2.98,1.1 5.03,-0.46 7.1,-1.99 3.54,4.45 5.4,9.48 7.04,14.59 -2.95,1.24 -3.77,3.05 -5.87,5.94 -4.62,-4.13 -9.07,-9.09 -8.27,-18.54 z"/>
			<path d="m -55.2,4.96 c 0.6,-3.11 1.65,-5.84 5.87,-5.94 3.07,1.11 6.83,1.55 5.86,6.55 -2.62,1.46 -3.83,3.29 -3.6,5.49 -5.09,0.66 -8.01,-1.13 -8.13,-6.1 z"/>
			<path d="m -47.86,11.41 c -1.51,-1.2 -0.6,-5.21 4.39,-5.84 3.23,2.4 10.73,0 12.61,5.01 0.99,2.6 5.87,5.06 4.03,6.44 -1.58,1.19 -7.97,1.49 -12.34,1.55 -4.37,0.1 -6.72,-1.02 -8.69,-7.16 z"/>
			<path d="m -66.19,-25.66 c -1.66,-2.82 1.95,-3.88 4.48,-5.29 l -1.65,3.17 0.79,1.83 z"/>
			<path d="m -63.97,-13.66 c -3.9,-2.7 -2.76,-7.71 -2.8,-12.17 l 4.4,-0.89 c 3.03,8.7 4.35,7.47 6.51,11.2 -2.59,1.16 -4.89,3.68 -8.11,1.86 z"/>
			<path d="m -63.48,34.75 c -1.86,2.25 1.15,3.7 3.18,5.31 l -1,-3.03 0.97,-1.5 z"/>
			<path d="m -59.97,24.83 c -3.81,1.83 -3.52,6.39 -4.19,10.31 l 3.74,1.41 c 3.9,-7.21 4.88,-5.94 7.32,-8.91 -2.11,-1.39 -3.77,-3.93 -6.87,-2.81 z"/>
			<path d="m -59.97,24.83 c 2.48,1.37 2.51,4.6 2.68,6.88 5.06,-0.2 9.53,-1.88 13.94,-3.75 -0.88,-2.71 -2.35,-5.45 0.21,-8.02 -5.49,-0.71 -10.93,-1.16 -16.83,4.89 z"/>
			<path d="m -45.51,20.51 c -1.73,2.22 -2.97,4.52 -0.58,7.42 2.54,1.42 8.76,3.45 11.58,-0.12 -0.56,-2.62 0,-4.5 1.59,-5.62 -2.52,-3.82 -9.17,-4.49 -12.59,-1.68 z"/>
			<path d="m -33.15,21.45 c -1.69,-0.32 -3.85,2.64 -1.36,6.36 3.49,0.78 7.16,1.24 11.88,1.35 8.14,0.19 17.42,-3.9 2.35,-6.95 -0.65,-0.14 -1.74,0.59 -4.59,-1.06 -2.84,-1.66 -2.98,-1.95 -8.28,0.3 z"/>
			<path d="m -32.88,53.74 c -0.19,2.91 4.18,2.27 7.62,2.34 l -3.48,-1.82 -0.16,-1.77 z"/>
			<path d="m -37.2,43.66 c -2.62,3.74 1.32,7.2 3.73,10.74 l 5.11,-1.11 c -1.57,-8.09 0.49,-7.66 0.72,-11.49 -3.36,0.16 -7.16,-0.88 -9.56,1.86 z"/>
			<path d="m -36.43,43.03 c 3.74,-0.39 5.83,3.47 7.84,5.18 5.24,-3.17 8.67,-7.19 11.87,-11.3 -3.09,-1.64 -6.84,-2.95 -6.17,-6.52 -6.41,2.7 -12.07,4.29 -13.54,12.64 z"/>
			<path d="m -25.79,32.66 c -0.1,2.81 0.43,5.39 5.3,6.27 3.84,-0.38 12.1,-2.47 12.25,-6.99 -2.68,-1.77 -3.6,-3.58 -2.78,-5.44 -5.73,-1.54 -13.35,1.88 -14.77,6.16 z"/>
			<path d="m -27.1,9.73 14.98,9.57"/>
			<path d="m -28.25,-39.96 c -8.63,3.46 -12.34,16.8 -6.83,16.8 0,0 7.36,1.72 10.25,0 3.12,-1.86 5.87,-10.52 5.87,-10.52 -2.63,-2.91 -4.15,-7.66 -9.29,-6.28 z"/>
			<path d="m -47.84,-11.65 c 1.42,-2.44 3.11,-4.44 6.69,-3.28 2.25,1.83 5.29,3.31 3.01,7.24 -2.65,0.45 -4.19,1.64 -4.64,3.55 -4.48,-0.94 -6.41,-3.3 -5.06,-7.51 z"/>
			<path d="m 20.2,-34.22 c -5.03,4.05 -20.65,-13.261 -17.19,-19.761 3.02,2.53 6.51,4.77 10.67,6.6 2.63,1.2 3.3,1.85 4.67,1 -1.37,0.85 -2.04,0.2 -4.67,-1 -3.08,-4.22 -5.44,-6.53 -8.49,-8.41 4.58,-2.66 29.07,13.101 21.24,17.821 z"/>
			<path d="m 36.23,-23.87 c 4.24,8.15 -7.61,19.16 -10.78,15.25 0,0 -4.24,-3.02 -5.83,-5.21 -3.51,-4.85 4.04,-10.53 5.64,-9.61 3.56,2.03 7.67,0.61 10.97,-0.43 z" />
			<path d="m 49.34,-29.68 c -2.18,1.8 -4.37,1.09 -6.56,0.41 -1.67,4.78 -1.76,9.56 -1.63,14.34 2.42,2.41 2.31,3.06 6.69,3.28 2.68,-4.84 4.96,-10.31 1.5,-18.03 z" />
			<path d="m 42.68,-3.93 c 0.92,-1.45 -1.03,-4.56 -5.4,-3.62 -2.02,2.97 -6.12,5.33 -6.24,10.06 -0.11,4.61 1.37,3.84 6.44,2.14 5.05,-1.69 5.35,-2.83 5.2,-8.58 z" />
			<path d="m 47.98,-40.61 c 0.56,-2.87 -2.77,-2.7 -5.32,-3.15 l 2.32,2.19 -0.13,1.78 z" />
			<path d="m 49.75,-29.79 c 2.49,-3.43 0.1,-7.3 -1.23,-11.07 l -3.96,0.55 c 0,8.21 -1.45,7.56 -2.18,11.34 2.52,0.2 5.19,1.65 7.37,-0.82 z" />
			<path d="m 63.47,-13.58 c -2.98,1.1 -5.03,-0.46 -7.1,-1.99 -3.54,4.45 -5.4,9.48 -7.04,14.59 2.95,1.24 3.77,3.05 5.87,5.94 4.62,-4.13 9.07,-9.09 8.27,-18.54 z" />
			<path d="m 55.2,4.96 c -0.6,-3.11 -1.65,-5.84 -5.87,-5.94 -3.07,1.11 -6.83,1.55 -5.86,6.55 2.62,1.46 3.83,3.29 3.6,5.49 5.09,0.66 8.01,-1.13 8.13,-6.1 z" />
			<path d="m 47.86,11.41 c 1.51,-1.2 0.6,-5.21 -4.39,-5.84 -3.23,2.4 -10.73,0 -12.61,5.01 -0.99,2.6 -5.87,5.06 -4.03,6.44 1.58,1.19 7.97,1.49 12.34,1.55 4.37,0.1 6.72,-1.02 8.69,-7.16 z" />
			<path d="m 66.19,-25.66 c 1.66,-2.82 -1.95,-3.88 -4.48,-5.29 l 1.65,3.17 -0.79,1.83 z" />
			<path d="m 63.97,-13.66 c 3.9,-2.7 2.76,-7.71 2.8,-12.17 l -4.4,-0.89 c -3.03,8.7 -4.35,7.47 -6.51,11.2 2.59,1.16 4.89,3.68 8.11,1.86 z" />
			<path d="m 63.48,34.75 c 1.86,2.25 -1.15,3.7 -3.18,5.31 l 1,-3.03 -0.97,-1.5 z" />
			<path d="m 59.97,24.83 c 3.81,1.83 3.52,6.39 4.19,10.31 l -3.74,1.41 c -3.9,-7.21 -4.88,-5.94 -7.32,-8.91 2.11,-1.39 3.77,-3.93 6.87,-2.81 z" />
			<path d="m 59.97,24.83 c -2.48,1.37 -2.51,4.6 -2.68,6.88 -5.06,-0.2 -9.53,-1.88 -13.94,-3.75 0.88,-2.71 2.35,-5.45 -0.21,-8.02 5.49,-0.71 10.93,-1.16 16.83,4.89 z" />
			<path d="m 45.51,20.51 c 1.73,2.22 2.97,4.52 0.58,7.42 -2.54,1.42 -8.76,3.45 -11.58,-0.12 0.56,-2.62 0,-4.5 -1.59,-5.62 2.52,-3.82 9.17,-4.49 12.59,-1.68 z" />
			<path d="m 33.15,21.45 c 1.69,-0.32 3.85,2.64 1.36,6.36 -3.49,0.78 -7.16,1.24 -11.88,1.35 -8.14,0.19 -17.42,-3.9 -2.35,-6.95 0.65,-0.14 1.74,0.59 4.59,-1.06 2.84,-1.66 2.98,-1.95 8.28,0.3 z" />
			<path d="m 32.88,53.74 c 0.19,2.91 -4.18,2.27 -7.62,2.34 l 3.48,-1.82 0.16,-1.77 z" />
			<path d="m 37.2,43.66 c 2.62,3.74 -1.32,7.2 -3.73,10.74 l -5.11,-1.11 c 1.57,-8.09 -0.49,-7.66 -0.72,-11.49 3.36,0.16 7.16,-0.88 9.56,1.86 z" />
			<path d="m 36.43,43.03 c -3.74,-0.39 -5.83,3.47 -7.84,5.18 -5.24,-3.17 -8.67,-7.19 -11.87,-11.3 3.09,-1.64 6.84,-2.95 6.17,-6.52 6.41,2.7 12.07,4.29 13.54,12.64 z" />
			<path d="m 25.79,32.66 c 0.1,2.81 -0.43,5.39 -5.3,6.27 -3.84,-0.38 -12.1,-2.47 -12.25,-6.99 2.68,-1.77 3.6,-3.58 2.78,-5.44 5.73,-1.54 13.35,1.88 14.77,6.16 z" />
			<path d="m 28.25,-39.96 c 8.63,3.46 12.34,16.8 6.83,16.8 0,0 -7.36,1.72 -10.25,0 -3.12,-1.86 -5.87,-10.52 -5.87,-10.52 2.63,-2.91 4.15,-7.66 9.29,-6.28 z" />
			<path d="m 47.84,-11.65 c -1.42,-2.44 -3.11,-4.44 -6.69,-3.28 -2.25,1.83 -5.29,3.31 -3.01,7.24 2.65,0.45 4.19,1.64 4.64,3.55 4.48,-0.94 6.41,-3.3 5.06,-7.51 z" />
			<path d="m 0,-20.13 c -6.92,0 -10.55,0.39 -15.85,1.4 -4.8,3.5 -9.27,6.67 -12.75,10.7 -0.66,0.84 -1,2.08 -0.98,2.56 -0.88,0.65 -2.03,1.02 -2.83,2.22 -0.42,3.4 0.19,5.3 0.28,7.95 -0.25,1.13 -0.76,2.15 -1.23,3.2 1.88,1.51 2.48,2.93 2.66,5.31 6.98,3.82 13.65,7.65 16.33,11.47 0.85,-0.13 1.24,0.25 1.91,0.72 1.27,10.43 7.55,6.88 12.46,6.86 4.91,0 11.19,3.57 12.46,-6.86 0.67,-0.47 1.06,-0.85 1.91,-0.72 2.68,-3.82 9.35,-7.65 16.33,-11.47 0.18,-2.38 0.78,-3.8 2.66,-5.31 -0.47,-1.05 -0.98,-2.07 -1.23,-3.2 0.1,-2.65 0.7,-4.55 0.28,-7.95 -0.8,-1.2 -1.95,-1.57 -2.83,-2.22 0,-0.48 -0.32,-1.72 -0.98,-2.56 -3.48,-4.03 -7.95,-7.2 -12.75,-10.7 -5.3,-1.01 -8.93,-1.4 -15.85,-1.4 z"/>
			<path d="m -27.1,9.73 c 6.06,2.07 10.72,5.62 14.98,9.57"/>
			<path d="m 27.1,9.73 c -6.06,2.07 -10.72,5.62 -14.98,9.57" />
			<path d="m -2.82,-21.15 a 2.2068,1.839 0 0 1 -2.21,1.84 2.2068,1.839 0 0 1 -2.21,-1.84 2.2068,1.839 0 0 1 2.21,-1.84 2.2068,1.839 0 0 1 2.21,1.84 z"/>
			<path d="m 2.82,-21.15 a 2.2068,1.839 0 0 0 2.21,1.84 2.2068,1.839 0 0 0 2.21,-1.84 2.2068,1.839 0 0 0 -2.21,-1.84 2.2068,1.839 0 0 0 -2.21,1.84 z" />
		</g>
	</defs>
	<use xlink:href="#shield" style="fill:#ffffff"/>
	<g clip-path="url(#clip-shield)">
		<g id="crab-row">
			<use xlink:href="#crab" />
			<use xlink:href="#crab" transform="translate(200,0)" />
			<use xlink:href="#crab" transform="translate(400,0)" />
			<use xlink:href="#crab" transform="translate(600,0)" />
		</g>
		<use xlink:href="#crab-row" transform="translate(100,132)" />
		<use xlink:href="#crab-row" transform="translate(  0,264)" />
		<use xlink:href="#crab-row" transform="translate(100,396)" />
		<use xlink:href="#crab-row" transform="translate(  0,528)" />
		<use xlink:href="#crab-row" transform="translate(100,660)" />
	</g>
	<use id="shine" xlink:href="#shield" style="fill:url(#rg);stroke:#000000;stroke-width:3;"/>
</svg>
