<svg xmlns="http://www.w3.org/2000/svg" width="600" height="660" xmlns:xlink="http://www.w3.org/1999/xlink">
<defs>
  <radialGradient id="rg" gradientUnits="userSpaceOnUse" cx="220" cy="220" r="405">
    <stop style="stop-color:#fff;stop-opacity:.3" offset="0" />
    <stop style="stop-color:#fff;stop-opacity:.2" offset="0.2" />
    <stop style="stop-color:#666;stop-opacity:.1" offset="0.6" />
    <stop style="stop-color:#000;stop-opacity:.13" offset="1" />
  </radialGradient>
  <path id="shield" d="m 2 2 v 257 c 0 286 298 398 298 398 c 0 0 298 -112 298 -398 V 2 Z" />
  <g id="daisypetals">
	<ellipse id="daisypetal" style="stroke:#0a0;stroke-width:0.5;" rx="5" ry="13" cx="0" cy="25"/>
	<use xlink:href="#daisypetal" transform="rotate(180)"/>
	<use xlink:href="#daisypetal" transform="rotate(165)"/>
	<use xlink:href="#daisypetal" transform="rotate(345)"/>
	<use xlink:href="#daisypetal" transform="rotate(255)"/>
	<use xlink:href="#daisypetal" transform="rotate(105)"/>
	<use xlink:href="#daisypetal" transform="rotate(30)"/>
	<use xlink:href="#daisypetal" transform="rotate(135)"/>
	<use xlink:href="#daisypetal" transform="rotate(300)"/>
	<use xlink:href="#daisypetal" transform="rotate(60)"/>
	<use xlink:href="#daisypetal" transform="rotate(195)"/>
	<use xlink:href="#daisypetal" transform="rotate(270)"/>
	<use xlink:href="#daisypetal" transform="rotate(225)"/>
	<use xlink:href="#daisypetal" transform="rotate(330)"/>
	<use xlink:href="#daisypetal" transform="rotate(120)"/>
	<use xlink:href="#daisypetal" transform="rotate(150)"/>
	<use xlink:href="#daisypetal" transform="rotate(75)"/>
	<use xlink:href="#daisypetal" transform="rotate(210)"/>
	<use xlink:href="#daisypetal" transform="rotate(240)"/>
	<use xlink:href="#daisypetal" transform="rotate(315)"/>
	<use xlink:href="#daisypetal" transform="rotate(285)"/>
	<use xlink:href="#daisypetal" transform="rotate(15)"/>
	<use xlink:href="#daisypetal" transform="rotate(90)"/>
	<use xlink:href="#daisypetal" transform="rotate(45)"/>
  </g>
  <g id="daisy">
	<use xlink:href="#daisypetals"/>
	<circle style="fill:#fd0;stroke:#0a0;stroke-width:0.5;" cx="0" cy="0" r="16"/>
  </g>
  <g id="sunflower">
	<use xlink:href="#daisypetals"/>
	<circle style="fill:#333;stroke:#0a0;stroke-width:0.5;" cx="0" cy="0" r="13"/>
  </g>
<g id="rose" transform="scale(0.3)rotate(36)">
	<g transform="rotate(36)">
		<path id="roseleaf" style="fill:#060;" d="m 0 0 c -15 18 -24 43 -24 72 c 0 29 9 54 24 72 c 15 -18 24 -43 24 -72 c 0 -29 -9 -54 -24 -72 Z" />
		<use transform="rotate(72)" xlink:href="#roseleaf" />
		<use transform="rotate(144)" xlink:href="#roseleaf" />
		<use transform="rotate(216)" xlink:href="#roseleaf" />
		<use transform="rotate(288)" xlink:href="#roseleaf" />
		<g id="rosepetals">
			<g id="g1">
				<path style="stroke:#000;stroke-width:0.2" d="M 0 -115 C -53 -115 -59.73 -86.15 -52 -75 L 0 0 L 52 -75 C 59.73 -86.15 53 -115 0 -115 Z" />
				<path style="fill:#000;opacity:0.5;" d="m 0 -100 c 14 0 24 -4 32 -2 c 17 4 18 14 18 21 c 0 -8 -1 -18 -18 -22 c -8 -2 -18 1 -32 1 c -14 0 -24 -3 -32 -1 c -17 4 -18 14 -18 22 c 0 -7 1 -17 18 -21 c 8 -2 18 2 32 2 Z" />
				<path style="fill:#000;opacity:0.5;" d="M 0 -99 C 14 -99 24 -103 32 -101 C 49 -97 50 -86 50 -79 C 50 -85 49 -94 32 -98 C 24 -100 14 -92 0 -92 C -14 -92 -24 -100 -32 -98 C -49 -94 -50 -85 -50 -79 C -50 -86 -49 -97 -32 -101 C -24 -103 -14 -99 0 -99 Z" />
				<path style="fill:#000;opacity:0.5;" d="M 0 -84 L -6 -68 C 0 -72 0 -72 6 -68 Z" />
				<path style="fill:#000;opacity:0.5;" d="M -5 -63 C -5 -65 -3 -67 0 -67 C 3 -67 5 -65 5 -63 C 5 -60 2 -56 0 -53 C -2 -56 -5 -60 -5 -63 Z" />
			</g>
			<use transform="rotate(72)" xlink:href="#g1" />
			<use transform="rotate(144)" xlink:href="#g1" />
			<use transform="rotate(216)" xlink:href="#g1" />
			<use transform="rotate(288)" xlink:href="#g1" />
		</g>
		<use transform="rotate(36) scale(0.55)" xlink:href="#rosepetals" />
		<circle style="fill:#ddd;stroke:#330;stroke-width:1.5;stroke-opacity:0.4" r="20" />
		<circle style="fill:#eee;stroke:#330;stroke-width:1.5;stroke-opacity:0.4" r="10" />
		<g id="g2" style="fill:#eee;stroke:#330;stroke-width:1.25;stroke-opacity:0.4">
			<circle cy="25" r="4" />
			<circle cy="-25" r="4" />
		</g>
		<use transform="rotate(20)" xlink:href="#g2" />
		<use transform="rotate(40)" xlink:href="#g2" />
		<use transform="rotate(60)" xlink:href="#g2" />
		<use transform="rotate(80)" xlink:href="#g2" />
		<use transform="rotate(100)" xlink:href="#g2" />
		<use transform="rotate(120)" xlink:href="#g2" />
		<use transform="rotate(140)" xlink:href="#g2" />
		<use transform="rotate(160)" xlink:href="#g2" />
	</g>
</g>
<g id="carnation" style="stroke:#0a0;stroke-width:0.5;" transform="scale(0.9)">
	<use xlink:href="#carnationpetal" transform="rotate(20)"/>
	<use xlink:href="#carnationpetal" transform="rotate(60)"/>
	<path id="carnationpetal" d="m -0.7679,-4.256 c -2.8791,-12.824 -9.0351,-20.334 -10.5521,-32.954 -0.15,-1.68 -0.91,-3.32 1.29,-4.58 1.724,1.44 2.659,3.08 2.998,5.64 0.214,-2.63 0.287,-4.27 2.268,-6.44 2.105,1.5 1.973,2.9 2.372,5.7 0.364,-2.62 0.954,-3.36 2.7462,-5.88 1.8758,1.61 1.5878,3.22 2.1468,5.74 0.56,-2.97 0.829,-3.78 2.924,-5.39 1.494,1.23 1.564,3.99 1.592,6.37 0.557,-2.34 1.509,-4.2 3.213,-5.49 1,1.29 1.7,2.13 1.14,5.28 -2.911,13.2 -9.989,22.81 -10.7435,32.067 z"/>
	<use xlink:href="#carnationpetal" transform="rotate(40)"/>
	<use xlink:href="#carnationpetal" transform="rotate(80)"/>
	<use xlink:href="#carnationpetal" transform="rotate(120)"/>
	<use xlink:href="#carnationpetal" transform="rotate(100)"/>
	<use xlink:href="#carnationpetal" transform="rotate(140)"/>
	<use xlink:href="#carnationpetal" transform="rotate(160)"/>
	<use xlink:href="#carnationpetal" transform="rotate(200)"/>
	<use xlink:href="#carnationpetal" transform="rotate(180)"/>
	<use xlink:href="#carnationpetal" transform="rotate(220)"/>
	<use xlink:href="#carnationpetal" transform="rotate(240)"/>
	<use xlink:href="#carnationpetal" transform="rotate(280)"/>
	<use xlink:href="#carnationpetal" transform="rotate(260)"/>
	<use xlink:href="#carnationpetal" transform="rotate(300)"/>
	<use xlink:href="#carnationpetal" transform="rotate(340)"/>
	<use xlink:href="#carnationpetal" transform="rotate(320)"/>
	<path id="carnationpetal2" style="fill:#fff;" d="m 0.4126,-40.67 c 0.7024,15.01 12.5974,28.18 -1.1126,40.67 4.546,-13.02 -10.14,-27.86 1.1126,-40.67 z"/>
	<use xlink:href="#carnationpetal2" transform="rotate(72)"/>
	<use xlink:href="#carnationpetal2" transform="rotate(144)"/>
	<use xlink:href="#carnationpetal2" transform="rotate(-144)"/>
	<use xlink:href="#carnationpetal2" transform="rotate(-72)"/>
	<circle style="fill:#fd0;stroke:#0a0;stroke-width:0.5;" cx="0" cy="0" r="7"/>
</g>
</defs>
<use fill="#0a0" xlink:href="#shield" />
<use fill="#faa" xlink:href="#rose" transform="translate(50,50)"/>
<use fill="#fff" xlink:href="#daisy" transform="translate(150,50)"/>
<use fill="#a0a" xlink:href="#rose" transform="translate(350,50)rotate(180)"/>
<use fill="#fd0" xlink:href="#sunflower" transform="translate(550,50)"/>
<use fill="#99f" xlink:href="#sunflower" transform="translate(60,340)"/>
<use fill="#a00" xlink:href="#sunflower" transform="translate(250,50)"/>
<use fill="#8f8" xlink:href="#carnation" transform="translate(450,50)"/>
<use fill="#f80" xlink:href="#rose" transform="translate(380,560)"/>
<use fill="#99f" xlink:href="#rose" transform="translate(50,150)rotate(45)"/>
<use fill="#a00" xlink:href="#rose" transform="translate(550,150)rotate(-45)"/>
<use fill="#d00" xlink:href="#carnation" transform="translate(50,250)"/>
<use fill="#f80" xlink:href="#carnation" transform="translate(550,250)"/>
<use fill="#99f" xlink:href="#carnation" transform="translate(220,560)rotate(15)"/>
<use fill="#a0a" xlink:href="#carnation" transform="translate(450,500)rotate(30)"/>
<use fill="#fff" xlink:href="#rose" transform="translate(150,500)rotate(90)"/>
<use fill="#fd0" xlink:href="#rose" transform="translate(540,340)"/>
<use fill="#00a" xlink:href="#daisy" transform="translate(95,425)"/>
<use fill="#00a" xlink:href="#rose" transform="translate(505,425)"/>
<use fill="#800" xlink:href="#daisy" transform="translate(300,605)"/>
<use id="shine" fill="url(#rg)" stroke="#000" stroke-width="3" xlink:href="#shield" />
</svg>