<?xml version="1.0" encoding="UTF-8" standalone="no"?>
<svg
   xmlns:dc="http://purl.org/dc/elements/1.1/"
   xmlns:cc="http://creativecommons.org/ns#"
   xmlns:rdf="http://www.w3.org/1999/02/22-rdf-syntax-ns#"
   xmlns:svg="http://www.w3.org/2000/svg"
   xmlns="http://www.w3.org/2000/svg"
   xmlns:xlink="http://www.w3.org/1999/xlink"
   xmlns:sodipodi="http://sodipodi.sourceforge.net/DTD/sodipodi-0.dtd"
   xmlns:inkscape="http://www.inkscape.org/namespaces/inkscape"
   width="600"
   height="660"
   id="svg2"
   version="1.1"
   inkscape:version="0.48.2 r9819"
   sodipodi:docname="House_Foote.svg">
  <metadata
     id="metadata24">
    <rdf:RDF>
      <cc:Work
         rdf:about="">
        <dc:format>image/svg+xml</dc:format>
        <dc:type
           rdf:resource="http://purl.org/dc/dcmitype/StillImage" />
        <dc:title />
      </cc:Work>
    </rdf:RDF>
  </metadata>
  <sodipodi:namedview
     pagecolor="#ffffff"
     bordercolor="#666666"
     borderopacity="1"
     objecttolerance="10"
     gridtolerance="10"
     guidetolerance="10"
     inkscape:pageopacity="0"
     inkscape:pageshadow="2"
     inkscape:window-width="1366"
     inkscape:window-height="715"
     id="namedview22"
     showgrid="false"
     inkscape:zoom="0.71515151"
     inkscape:cx="290.26402"
     inkscape:cy="298.03589"
     inkscape:window-x="-8"
     inkscape:window-y="-8"
     inkscape:window-maximized="1"
     inkscape:current-layer="svg2" />
  <defs
     id="defs4">
    <radialGradient
       id="rg"
       gradientUnits="userSpaceOnUse"
       cx="220"
       cy="220"
       r="405">
      <stop
         style="stop-color:#fff;stop-opacity:.3"
         offset="0"
         id="stop7" />
      <stop
         style="stop-color:#fff;stop-opacity:.2"
         offset=".2"
         id="stop9" />
      <stop
         style="stop-color:#666;stop-opacity:.1"
         offset=".6"
         id="stop11" />
      <stop
         style="stop-color:#000;stop-opacity:.13"
         offset="1"
         id="stop13" />
    </radialGradient>
    <clipPath
       id="clip-shield">
      <path
         id="shield"
         d="m2,2v257c0,286 298,398 298,398c0,0 298-112 298-398V2z" />
    </clipPath>
    <radialGradient
       id="rg-1"
       gradientUnits="userSpaceOnUse"
       cx="220"
       cy="220"
       r="405">
      <stop
         style="stop-color:#fff;stop-opacity:.3"
         offset="0"
         id="stop7-7" />
      <stop
         style="stop-color:#fff;stop-opacity:.2"
         offset=".2"
         id="stop9-4" />
      <stop
         style="stop-color:#666;stop-opacity:.1"
         offset=".6"
         id="stop11-0" />
      <stop
         style="stop-color:#000;stop-opacity:.13"
         offset="1"
         id="stop13-9" />
    </radialGradient>
    <radialGradient
       id="radialGradient3015"
       gradientUnits="userSpaceOnUse"
       cx="220"
       cy="220"
       r="405">
      <stop
         style="stop-color:#fff;stop-opacity:.3"
         offset="0"
         id="stop3017" />
      <stop
         style="stop-color:#fff;stop-opacity:.2"
         offset=".2"
         id="stop3019" />
      <stop
         style="stop-color:#666;stop-opacity:.1"
         offset=".6"
         id="stop3021" />
      <stop
         style="stop-color:#000;stop-opacity:.13"
         offset="1"
         id="stop3023" />
    </radialGradient>
  </defs>
  <use
     height="1052.3622"
     width="744.09448"
     y="0"
     x="0"
     id="background"
     xlink:href="#shield"
     style="fill:#ffffff" />
  <path
     inkscape:connector-curvature="0"
     id="chevron"
     d="m 2,2 0,106.06641 298,298 298,-298 L 598,2 491.93359,2 300,193.93359 108.06641,2 2,2 z"
     style="fill:#000000" />
  <g
     id="g2999"
     style="fill:#b7410e"
     transform="matrix(1,0,0,-1,0,659.00694)">
    <path
       d="m 302.97184,620.55652 c 5.92689,-34.85345 0.66223,1.21217 50.44713,-333.97643 l -28.12626,-42.61915 -49.21163,-0.15664 c -23.20974,41.21302 -2.98684,3.29897 -25.80267,43.80832 49.27952,335.54542 -2.25141,9.39881 52.29352,332.46407 z"
       id="path3271"
       style="fill:#b7410e;fill-opacity:1;fill-rule:evenodd;stroke:#000000;stroke-width:3;stroke-linecap:round;stroke-linejoin:miter;stroke-miterlimit:4;stroke-opacity:1;stroke-dasharray:none;stroke-dashoffset:0;marker:none;visibility:visible;display:inline;overflow:visible;enable-background:accumulate"
       inkscape:connector-curvature="0" />
    <g
       style="fill:#b7410e"
       id="g3982">
      <path
         inkscape:connector-curvature="0"
         style="fill:#b7410e;fill-opacity:1;fill-rule:evenodd;stroke:#000000;stroke-width:3;stroke-linecap:round;stroke-linejoin:miter;stroke-miterlimit:4;stroke-opacity:1;stroke-dasharray:none;stroke-dashoffset:0;marker:none;visibility:visible;display:inline;overflow:visible;enable-background:accumulate"
         id="path3282"
         d="m 318.187,224.97197 94.52799,0.30086 c 8.31027,0.0264 15.13985,6.97055 15.10651,18.73559 -0.0333,11.76504 -7.29784,21.79528 -20.65708,21.75275 -13.35936,-0.0425 -21.3447,-12.48492 -21.03645,-21.92224 l -65.32666,-0.20791 c 0.0261,-9.24434 -4.67283,-12.98806 -2.61431,-18.65905 z" />
      <path
         inkscape:connector-curvature="0"
         style="fill:#b7410e;fill-opacity:1;fill-rule:evenodd;stroke:#000000;stroke-width:3;stroke-linecap:round;stroke-linejoin:miter;stroke-miterlimit:4;stroke-opacity:1;stroke-dasharray:none;stroke-dashoffset:0;marker:none;visibility:visible;display:inline;overflow:visible;enable-background:accumulate"
         id="path3294"
         d="m 281.91876,224.85655 -94.52787,-0.30089 c -8.31035,-0.0264 -15.17918,6.87417 -15.21252,18.63921 -0.0334,11.76499 7.17404,21.84124 20.53336,21.88381 13.35924,0.0425 21.41503,-12.34892 21.16034,-21.78796 l 65.32667,0.20791 c 0.0263,-9.24437 4.74639,-12.95808 2.72002,-18.64208 z" />
    </g>
    <path
       d="m 300.12395,620.04259 0.57118,-378.82427"
       id="path3276"
       style="fill:#b7410e;stroke:#000000;stroke-width:3;stroke-linecap:round;stroke-linejoin:miter;stroke-miterlimit:4;stroke-opacity:1;stroke-dasharray:none;stroke-dashoffset:0;marker:none;visibility:visible;display:inline;overflow:visible;enable-background:accumulate"
       inkscape:connector-curvature="0" />
    <path
       d="m 300.29644,266.08685 c 11.92171,-0.94587 32.35783,-33.71631 23.66067,-42.59784 -8.69711,-8.8816 -3.41687,-38.39108 -2.50847,-51.17708 0.46114,-6.48964 0.70973,-15.77707 0.62146,-25.79504 -0.0855,-9.71986 -0.48814,-20.12738 -1.32103,-29.33464 -1.69153,-18.696969 -1.60055,-39.299128 -1.6006,-39.29905 l -36.63632,-0.116656 c 0,0 -0.0259,20.602336 -1.82339,39.288196 -1.79748,18.68586 -1.84824,42.33267 -1.01231,55.12427 0.83597,12.79152 5.94871,42.33413 -2.79863,51.1602 -8.7474,8.82602 11.50252,41.72587 23.41862,42.74764 z"
       id="path3278"
       style="fill:#b7410e;fill-opacity:1;fill-rule:evenodd;stroke:#000000;stroke-width:3;stroke-linecap:round;stroke-linejoin:miter;stroke-miterlimit:4;stroke-opacity:1;stroke-dasharray:none;stroke-dashoffset:0;marker:none;visibility:visible;display:inline;overflow:visible;enable-background:accumulate"
       inkscape:connector-curvature="0" />
    <path
       d="m 319.63951,212.85525 c -0.24327,-1.59436 -0.34172,-3.27048 -0.44139,-5.02173 l -37.45557,-0.11923 c -0.10996,1.75127 -0.30854,3.42519 -0.56098,5.01856 l 38.45794,0.1224 z m -0.51149,-12.45593 c 0.0404,-1.57778 0.10075,-3.13851 0.19571,-4.73008 l -37.63775,-0.11985 c 0.0858,1.59126 0.13714,3.15447 0.16881,4.73122 l 37.27323,0.11871 z m 0.76414,-12.3554 c 0.15336,-1.6181 0.3077,-3.10551 0.46878,-4.63274 l -39.64272,-0.12614 c 0.1523,1.52682 0.20751,3.01778 0.35142,4.63528 l 38.82252,0.1236 z m 1.22002,-12.45051 c 0.096,-1.0049 0.31244,-2.41755 0.37388,-3.28135 0.0212,-0.29663 -0.017,-0.75341 0.003,-1.06181 l -41.82986,-0.13306 c 0.0188,0.30922 -0.0225,0.76416 -0.003,1.06182 0.0563,0.86403 0.26531,2.27805 0.35526,3.28361 l 41.1008,0.13084 z m 0.76435,-12.4519 c 0.0442,-1.35755 0.0727,-2.602 0.10262,-4.05461 l -42.74114,-0.13601 c 0.0215,1.43947 0.0434,2.70893 0.0796,4.05515 l 42.55892,0.13547 z m 0.2179,-12.55026 c 7.5e-4,-1.26226 0.0207,-2.37651 0.0104,-3.66871 l -42.92343,-0.13661 c -0.0174,1.29016 -0.004,2.40829 -0.0104,3.66878 l 42.92348,0.13654 z m -0.23918,-12.06897 c -0.0358,-1.3567 -0.0304,-2.69636 -0.0796,-4.05508 l -42.19441,-0.13432 c -0.057,1.36159 -0.0589,2.69484 -0.10262,4.0546 l 42.37667,0.1348 z m -0.51232,-12.16636 c -0.0872,-1.50071 -0.15436,-2.97603 -0.26081,-4.44191 l -40.82738,-0.12991 c -0.11473,1.46866 -0.18991,2.93647 -0.286,4.44017 l 41.37419,0.13165 z m -0.87684,-12.16751 c -0.12652,-1.58122 -0.15605,-3.15358 -0.25997,-4.73148 l -38.91358,-0.12388 c -0.1133,1.57698 -0.15134,3.14936 -0.28687,4.72982 l 39.46042,0.12554 z m -0.69454,-12.1669 c -0.0852,-1.79231 -0.10604,-3.334028 -0.168,-5.02093 l -37.63779,-0.119773 c -0.0713,1.686631 -0.10123,3.228043 -0.19651,5.019783 l 38.0023,0.12092 z"
       id="path3288"
       style="fill:#b7410e;fill-opacity:1;fill-rule:evenodd;stroke:#000000;stroke-width:3;stroke-miterlimit:4;stroke-dasharray:none;marker:none;visibility:visible;display:inline;overflow:visible;enable-background:accumulate"
       inkscape:connector-curvature="0" />
    <path
       d="m 276.50924,64.932259 a 25.072673,26.561631 0 1 1 50.14512,0.159593 25.072673,26.561631 0 1 1 -50.14512,-0.159593 z"
       id="path3290"
       style="fill:#b7410e;fill-opacity:1;fill-rule:nonzero;stroke:#000000;stroke-width:3;stroke-linecap:round;stroke-linejoin:miter;stroke-miterlimit:4;stroke-opacity:1;stroke-dasharray:none"
       inkscape:connector-curvature="0" />
  </g>
  <use
     height="1052.3622"
     width="744.09448"
     y="0"
     x="0"
     style="fill:url(#rg-1);stroke:#000000;stroke-width:3"
     id="shine"
     xlink:href="#shield" />
</svg>
