<svg xmlns="http://www.w3.org/2000/svg" width="600" height="660" xmlns:xlink="http://www.w3.org/1999/xlink">
<defs>
    <radialGradient id="rg" gradientUnits="userSpaceOnUse" cx="220" cy="220" r="405">
        <stop style="stop-color:#fff;stop-opacity:.3" offset="0" />
        <stop style="stop-color:#fff;stop-opacity:.2" offset="0.2" />
        <stop style="stop-color:#666;stop-opacity:.1" offset="0.6" />
        <stop style="stop-color:#000;stop-opacity:.13" offset="1" />
    </radialGradient>
    <path id="shield" d="m 2 2 v 257 c 0 286 298 398 298 398 c 0 0 298 -112 298 -398 V 2 Z" />
</defs>
<use fill="#000" xlink:href="#shield" />
<path fill="#fd0" d="m 566.66602,2 v 31.333984 h -33.33204 v -31.333984 z m -33.33204,31.333984 v 33.332032 h -33.33398 v -33.332032 z m -33.33398,0 h -33.33398 v -31.333984 h 33.33398 z m -33.33398,0 v 33.332032 h -33.33204 v -33.332032 z m -33.33204,0 h -33.33398 v -31.333984 h 33.33398 z m -33.33398,0 v 33.332032 h -33.33398 v -33.332032 z m -33.33398,0 h -33.33204 v -31.333984 h 33.33204 z m -33.33204,0 v 33.332032 h -33.33398 v -33.332032 z m -33.33398,0 h -33.33398 v -31.333984 h 33.33398 z m -33.33398,0 v 33.332032 h -33.33204 v -33.332032 z m -33.33204,0 h -33.33398 v -31.333984 h 33.33398 z m -33.33398,0 v 33.332032 h -33.33398 v -33.332032 z m -33.33398,0 h -33.33204 v -31.333984 h 33.33204 z m -33.33204,0 v 33.332032 h -33.33398 v -33.332032 z m -33.33398,0 h -33.33398 v -31.333984 h 33.33398 z m -33.33398,0 v 33.332032 h -33.33204 v -33.332032 z m -33.33204,0 h -31.33398 v -31.333984 h 31.33398 z m 0,33.332032 v 33.333984 h -31.33398 v -33.333984 z m 0,33.333984 h 33.33204 v 33.33398 h -33.33204 z m 0,33.33398 v 33.33204 h -31.33398 v -33.33204 z m 0,33.33204 h 33.33204 v 33.33398 h -33.33204 z m 0,33.33398 v 33.33398 h -31.33398 v -33.33398 z m 33.33204,0 h 33.33398 v 33.33398 h -33.33398 z m 0,-33.33398 v -33.33204 h 33.33398 v 33.33204 z m 0,-66.66602 v -33.333984 h 33.33398 v 33.333984 z m 66.66796,-33.333984 h 33.33204 v 33.333984 h -33.33204 z m 66.66602,0 h 33.33398 v 33.333984 h -33.33398 z m 66.66602,0 h 33.33398 v 33.333984 h -33.33398 z m 66.66796,0 h 33.33204 v 33.333984 h -33.33204 z m 66.66602,0 h 33.33398 v 33.333984 h -33.33398 z m 66.66602,0 h 33.33398 v 33.333984 h -33.33398 z m 33.33398,33.333984 h 33.33398 v 33.33398 h -33.33398 z m 33.33398,33.33398 h 33.33204 v 33.33204 h -33.33204 z m 0,33.33204 v 33.33398 h -33.33398 v -33.33398 z m 0,33.33398 h 33.33204 v 33.33398 h -33.33204 z m 33.33204,0 v -33.33398 h 31.33398 v 33.33398 z m 0,-66.66602 v -33.33398 h 31.33398 v 33.33398 z m 0,-33.33398 h -33.33204 v -33.333984 h 33.33204 z m 0,-33.333984 v -33.332032 h 31.33398 v 33.332032 z m 31.33398,166.666014 v 25.66797 c 0,2.57122 -0.0323,5.12483 -0.0801,7.66797 h -31.3418 c 0.052,-2.54272 0.0879,-5.09491 0.0879,-7.66797 v -25.66797 z m -564.57812,33.33594 c 0.25517,12.48567 1.12907,24.60761 2.56445,36.36914 l -31.09961,3.8457 c -1.5864,-12.99712 -2.54726,-26.39728 -2.80664,-40.21484 z m 530.59179,36.36914 31.09961,3.8457 c -1.6508,13.52481 -3.97392,26.61327 -6.9082,39.26563 l -30.41992,-7.56641 c 2.63674,-11.46486 4.73537,-23.31008 6.22851,-35.54492 z m -521.79883,35.54492 c 2.75823,11.99308 6.09787,23.57223 9.95508,34.73828 l -29.2539,11.17969 c -4.30726,-12.31674 -8.04679,-25.09542 -11.1211,-38.35156 z m 505.61524,34.73828 29.2539,11.17969 c -4.47668,12.80122 -9.56945,25.10111 -15.17968,36.9082 l -27.66211,-14.60937 c 5.02118,-10.72402 9.58114,-21.87958 13.58789,-33.47852 z m -482.07227,33.47852 c 5.19286,11.09068 10.87898,21.72025 16.9668,31.89453 l -25.64258,17.84375 c -6.8087,-11.18908 -13.17359,-22.89563 -18.98633,-35.12891 z m 451.51758,31.89453 25.64258,17.84375 c -7.02,11.53632 -14.50967,22.52307 -22.3457,32.97461 l -23.32618,-20.77539 c 7.02631,-9.54473 13.747,-19.54367 20.0293,-30.04297 z m -414.52148,30.04297 c 7.25877,9.86052 14.84551,19.23437 22.66797,28.09961 l -20.67188,23.43359 c -8.72105,-9.68807 -17.2074,-19.93437 -25.32227,-30.75781 z m 371.82421,28.09961 20.67188,23.43359 c -9.08359,10.09081 -18.4212,19.55666 -27.85938,28.44727 l -17.80664,-25.82813 c 8.48408,-8.16748 16.86129,-16.83573 24.99414,-26.05273 z m -324.1621,26.05273 c 8.90247,8.57027 17.91974,16.58045 26.9121,24.02539 l -14.76367,27.93164 c -9.97722,-8.06599 -20.01908,-16.76934 -29.95507,-26.1289 z m 272.25586,24.02539 14.76367,27.93164 c -10.75931,8.69827 -21.43149,16.65913 -31.80274,23.89844 l -11.56836,-29.79297 c 9.37666,-6.72188 18.97252,-14.0602 28.60743,-22.03711 z m -216.73633,22.03711 c 10.36038,7.42709 20.44508,14.09713 30.00976,20.04102 l -8.25195,31.38281 c -10.51696,-6.33522 -21.72367,-13.53211 -33.32617,-21.63086 z m 158.11914,20.04102 8.25195,31.38281 c -12.81552,7.71984 -24.58983,14.1633 -34.75,19.37305 l -4.78516,-32.70899 c 9.42923,-5.03369 19.97101,-11.017 31.28321,-18.04687 z m -96.82617,18.04687 c 13.81392,7.37442 25.20613,12.69265 32.77148,16.00782 v 33.95312 c 0,0 -14.70549,-5.53476 -37.55664,-17.25195 z m -200.5625,-373.70703 v 25.66797 c 0,2.57387 0.036,5.12706 0.0937,7.66797 h -33.33789 c -0.052,-2.54272 -0.0879,-5.09491 -0.0879,-7.66797 v -25.66797 z m 499.9121,33.33594 c -0.25517,12.48567 -1.12907,24.60761 -2.56445,36.36914 l -33.0957,-4.09375 c 1.28315,-10.44877 2.07087,-21.20736 2.32226,-32.27539 z m -497.49609,32.27539 c 1.33323,10.85653 3.19941,21.37937 5.5332,31.57812 l -32.40039,8.06055 c -2.63674,-11.46486 -4.73537,-23.31008 -6.22851,-35.54492 z m 456.30274,31.57812 32.40039,8.06055 c -2.75808,11.99246 -6.09812,23.57082 -9.95508,34.73633 l -31.22461,-11.93359 c 3.39588,-9.93729 6.34426,-20.22211 8.7793,-30.86329 z m -441.99024,30.86329 c 3.52172,10.30553 7.53584,20.22691 11.94727,29.78906 l -29.58399,15.625 c -5.02143,-10.72456 -9.58099,-21.88091 -13.58789,-33.48047 z m 421.26563,29.78906 29.58203,15.625 c -5.19286,11.09068 -10.87897,21.72025 -16.9668,31.89453 l -27.47851,-19.11914 c 5.33463,-9.08151 10.31614,-18.54405 14.86328,-28.40039 z m -394.45704,28.40039 c 5.50406,9.3699 11.37386,18.34082 17.54297,26.90234 l -24.99218,22.25977 c -7.02631,-9.54473 -13.747,-19.54367 -20.0293,-30.04297 z m 362.05079,26.90234 24.99218,22.25977 c -7.25877,9.86052 -14.84551,19.23437 -22.66797,28.09961 l -22.21093,-25.17774 c 6.86986,-7.97833 13.53291,-16.36379 19.88672,-25.18164 z m -324.6211,25.18164 c 7.11723,8.26561 14.45103,16.09987 21.91211,23.48438 l -19.1289,27.74609 c -8.48408,-8.16748 -16.86129,-16.83573 -24.99414,-26.05273 z m 282.82227,23.48438 19.1289,27.74609 c -8.90247,8.57027 -17.91974,16.58045 -26.9121,24.02539 l -15.87891,-30.03906 c 7.93462,-6.77799 15.86434,-14.01469 23.66211,-21.73242 z m -237.24805,21.73242 c 8.42907,7.20036 16.86451,13.88006 25.16406,20.04688 l -12.43554,32.02929 c -9.37666,-6.72188 -18.97252,-14.0602 -28.60743,-22.03711 z m 188.42188,20.04688 12.43554,32.02929 c -10.36038,7.42709 -20.44508,14.09713 -30.00976,20.04102 l -8.86524,-33.72071 c 8.52571,-5.52628 17.39728,-11.631 26.43946,-18.3496 z m -136.81836,18.3496 c 9.7389,6.31267 19.01451,11.86088 27.55078,16.66797 l -5.13477,35.09961 c -9.42883,-5.03352 -19.96968,-11.01739 -31.28125,-18.04687 z m 82.82812,16.66797 5.13477,35.09961 c -13.81463,7.37486 -25.2078,12.69252 -32.77344,16.00782 v -36.6543 c 7.73338,-3.72685 17.12867,-8.53455 27.63867,-14.45313 z m 205.69531,-338.60742 v 25.66797 c 0,2.57387 -0.036,5.12706 -0.0937,7.66797 h -33.33789 c 0.0646,-2.53783 0.0977,-5.09399 0.0977,-7.66797 v -25.66797 z m -433.23632,33.33594 c 0.24566,9.65695 0.96888,19.04341 2.0957,28.18164 l -33.11133,4.09375 c -1.28315,-10.44877 -2.07087,-21.20736 -2.32226,-32.27539 z m 397.70898,28.18164 33.11133,4.09375 c -1.33323,10.85653 -3.19941,21.37937 -5.5332,31.57812 l -32.39258,-8.05859 c 2.0243,-8.93079 3.64539,-18.1325 4.81445,-27.61328 z m -390.79883,27.61328 c 2.10669,9.29428 4.64419,18.29591 7.57227,27.00391 l -31.18555,11.91797 c -3.39588,-9.93729 -6.34426,-20.22211 -8.7793,-30.86329 z m 378.41211,27.00391 31.18555,11.91797 c -3.52169,10.30544 -7.53393,20.22698 -11.94531,29.78906 l -29.50391,-15.58203 c 3.79556,-8.39813 7.23196,-17.1088 10.26367,-26.125 z m -360.57617,26.125 c 3.90055,8.63044 8.18163,16.92694 12.76172,24.91601 l -27.40235,19.06641 c -5.33459,-9.08143 -10.31421,-18.54414 -14.86132,-28.40039 z m 337.55078,24.91601 27.40235,19.06641 c -5.50405,9.3699 -11.37386,18.34082 -17.54297,26.90234 l -24.95118,-22.22265 c 5.3142,-7.57804 10.36249,-15.49672 15.0918,-23.7461 z m -309.69726,23.7461 c 5.45386,7.7772 11.18308,15.19563 17.10156,22.27929 l -22.16602,25.125 c -6.86986,-7.97833 -13.53291,-16.36379 -19.88672,-25.18164 z m 277.5039,22.27929 22.16602,25.125 c -7.11723,8.26561 -14.45103,16.09987 -21.91211,23.48438 l -19.12891,-27.7461 c 6.44339,-6.5924 12.76104,-13.54565 18.875,-20.86328 z m -241.52734,20.86328 c 6.70578,6.86087 13.54028,13.33564 20.41601,19.42774 l -15.88281,30.05078 c -7.93462,-6.77799 -15.86434,-14.01469 -23.66211,-21.73242 z m 202.23633,19.42774 15.88281,30.05078 c -8.42907,7.20036 -16.86451,13.88006 -25.16406,20.04688 l -12.46289,-32.09961 c 7.216,-5.58491 14.49953,-11.57912 21.74414,-17.99805 z m -160.07618,17.99805 c 7.75319,6.00066 15.4257,11.53397 22.87891,16.5957 l -8.90234,33.85351 c -8.52571,-5.52628 -17.39728,-11.63099 -26.43946,-18.3496 z m 115.45313,16.5957 8.90234,33.85351 c -9.7389,6.31267 -19.01451,11.86088 -27.55078,16.66797 l -5.17578,-35.37695 c 7.55388,-4.49888 15.53883,-9.51764 23.82422,-15.14453 z m -68.75,15.14453 c 8.08205,4.81344 15.66829,9.02935 22.46289,12.5918 v 37.23828 c -7.73338,-3.72685 -17.12867,-8.53455 -27.63867,-14.45313 z" />
<g id="spear" fill="#ff5" stroke="#000">
  <path fill="#fd0" d="m 416.908 409.591 c 0.0259 0.082 3.67613 4.52047 0.46359 7.73301 c -2.78577 2.78577 -6.6855 0.45656 -7.64143 -0.2252 l -248.318 -248.32 l 7.36281 -7.36281 l 248.133 248.175 Z" />
  <path d="m 152.718 158.616 l 8.26772 10.5332 l 8.34272 -8.34272 l -10.4214 -8.19188 l -6.18904 6.0014 Z" />
  <path stroke="none" d="m 112.533 112.64 l 0.3565 0.3565 l 23.3176 43.7428 c 0 0 2.41899 -2.4274 7.02022 -2.32937 c 4.60132 0.0981 7.34253 2.45196 7.34253 2.45196 l 3.09256 -3.09256 l 0.10788 -0.10788 l 3.09256 -3.09256 c 0 0 -2.37185 -2.72322 -2.46995 -7.32454 c -0.0981 -4.60131 2.34735 -7.0382 2.34735 -7.0382 l -43.7428 -23.3176 l -0.3565 -0.3565 l 0.11495 0.22279 l -0.22285 -0.11489 Z" />
  <path fill="#c00" stroke="none" d="m 112.641 112.533 l 0.11524 0.22266 l -0.22266 -0.11524 l 0.35547 0.35547 l 18.3965 34.5098 c 1.27455 2.92138 2.5586 6.49606 2.42482 8.12878 c -0.23417 2.85788 -0.0352 5.2218 1.31148 4.18306 c 1.08451 -0.83656 0.82999 -2.33824 0.0274 -5.24934 c -0.25629 -0.92955 -0.22347 -1.93373 -0.34571 -2.77539 c -0.38862 -2.67584 -2.19823 -4.84351 -2.29101 -7.79297 c -0.10858 -3.45159 4.63132 -0.68551 5.24508 1.45891 c 0.85543 2.9888 0.99573 4.6664 1.335 7.79304 c 0.23428 2.15904 -0.17311 2.61324 0.6636 4.27368 c 0.72622 1.44118 2.17897 1.02361 2.54926 0.17084 c 0.5525 -1.27239 -0.33923 -3.10782 -0.46872 -4.89374 c -0.16179 -2.23144 0.96291 -12.9829 2.9707 -6.87109 c 0.79633 2.42407 4.49512 8.07645 5.74609 4.13867 c 0.72561 -2.28404 1.82646 -8.45032 3.23829 -5.2832 c 0.38512 0.86395 0.86096 1.6917 1.4082 2.42773 c -0.37359 -1.09382 -0.67386 -2.41459 -0.70703 -3.9707 c -0.0981 -4.60131 2.34765 -7.03711 2.34765 -7.03711 l -43.7441 -23.3184 Z" />
  <path fill="none" d="m 122.235 122.143 l 31.5253 31.5253" />
  <path d="m 150.236 157.192 l 7.04833 -7.04832 c 0.54239 -0.5424 1.4157 -0.5424 1.95809 0 c 0.54239 0.54239 0.54239 1.41569 0 1.95809 l -7.04833 7.04832 c -0.54239 0.5424 -1.4157 0.5424 -1.95809 1e-005 c -0.54239 -0.5424 -0.54239 -1.4157 0 -1.9581 Z" />
</g>
<use id="shine" fill="url(#rg)" stroke="#000" stroke-width="3" xlink:href="#shield" />
</svg>