<?xml version="1.0" encoding="UTF-8"?>
<svg xmlns="http://www.w3.org/2000/svg" xmlns:xlink="http://www.w3.org/1999/xlink" width="600" height="660">
<defs>
  <radialGradient id="rg" gradientUnits="userSpaceOnUse" cx="220" cy="220" r="405">
    <stop style="stop-color:#fff;stop-opacity:.3" offset="0"/>
    <stop style="stop-color:#fff;stop-opacity:.2" offset=".2"/>
    <stop style="stop-color:#666;stop-opacity:.1" offset=".6"/>
    <stop style="stop-color:#000;stop-opacity:.13" offset="1"/>
  </radialGradient>
  <clipPath id="clip-shield">
    <path id="shield" d="m2,2v257c0,286 298,398 298,398c0,0 298-112 298-398V2z"/>
  </clipPath>
</defs>
<use id="shine" xlink:href="#shield" fill="#fff"/>
<path fill="#000" d="M 2 2 L 2 150 L 150 150 L 2 2 z M 150 150 L 298 2 L 150 2 L 150 150 z M 150 150 L 300 300 L 300 150 L 150 150 z M 150 150 L 3.7441406 296.25586 C 3.8595497 297.48284 3.9734778 298.70951 4.0996094 299.92969 C 4.1020267 299.95307 4.1049959 299.97662 4.1074219 300 L 150 300 L 150 150 z M 300 300 L 300 480 L 450 480 L 300 300 z M 450 480 L 595.37695 304.62305 C 595.54917 303.13884 595.71881 301.65268 595.875 300.1582 C 595.88051 300.10536 595.88709 300.05286 595.89258 300 L 450 300 L 450 480 z M 450 480 L 492.88281 522.88281 C 504.96396 509.66474 516.61882 495.38175 527.49609 480 L 450 480 z M 450 480 L 300 657 C 300 657 301.18291 656.55485 303.34766 655.67188 C 303.35556 655.66865 303.36902 655.66339 303.37695 655.66016 C 303.52286 655.6006 303.75918 655.49912 303.91406 655.43555 C 306.09622 654.53984 309.07816 653.28485 312.91406 651.57812 C 314.96815 650.66419 317.24332 649.63244 319.71875 648.48047 C 346.94851 635.80879 398.55374 608.61947 450 564.37109 L 450 480 z " />
<path id="top-right" fill="#080" d="M 300 2 L 300 300 L 595.89258 300 C 597.26761 286.74845 598 273.0886 598 259 L 598 2 L 300 2 z"/>
<path id="bottom-left" fill="#080" d="M 4.1074219 300 C 30.645587 555.75613 300 657 300 657 L 300 300 L 4.1074219 300 z"/>
<g id="axe" style="stroke:#080;stroke-width:0.5;">
  <path fill="#aaa" d="m 454.67222,247.59248 c 0,1.46766 -10.27228,1.48567 -10.27228,0.0175 l 0,3.63257 c 0,3.71453 10.27228,3.71453 10.27228,0 l 0,-3.65011 z"/>
  <path fill="#ddd" d="m 457.60607,243.52926 c 0,0.59849 0,3.68915 0,5.51781 0,1.8344 -4.03555,2.76143 -8.07108,2.76297 -4.03553,0.001 -8.07109,-0.91399 -8.07108,-2.7515 10e-6,-1.81851 0,-4.99758 0,-5.55357 -10e-6,1.83751 4.03555,2.75774 8.07108,2.7562 4.03553,-0.001 8.07108,-0.89753 8.07108,-2.73191 z"/>
  <path fill="#ddd" d="m 457.60716,243.55694 c 0,3.66879 -16.14216,3.67807 -16.14214,0.003 3e-5,-3.65197 16.14214,-3.66026 16.14214,-0.003 z"/>
  <path fill="#aaa" d="m 454.67222,112.58535 c 0,1.46766 -10.27228,1.46813 -10.27228,0 l 0,130.97159 c 0,1.46747 10.27228,1.46747 10.27228,0 l 0,-130.97159 z"/>
  <path fill="#ddd" d="m 457.60716,98.668694 c 0,0.598485 0,12.493966 0,14.322626 0,1.8344 -4.03554,2.76143 -8.07108,2.76297 -4.03553,0.001 -8.07109,-0.914 -8.07108,-2.75151 1e-5,-1.8185 0,-13.802389 0,-14.35838 -10e-6,1.83751 4.03555,2.75774 8.07108,2.75621 4.03554,-0.001 8.07108,-0.89754 8.07108,-2.731916 z"/>
  <path fill="#ddd" d="m 443.60694,96.712382 c -8.37216,-3.070195 -9.10513,-11.77927 -10.94675,-20.080014 -7.72804,0 1.75956,40.383642 10.91486,35.001072 l 0.0319,-14.921058 z"/>
  <path fill="#ddd" d="m 457.60714,98.641351 c 0,3.668789 -16.14216,3.678059 -16.14214,0.0029 2e-5,-3.652086 16.14214,-3.66037 16.14214,-0.0029 z"/>
  <path fill="#aaa" d="m 454.67196,94.963196 c 0,1.467659 -10.26832,1.483214 -10.26832,0.01508 l -0.003,3.643193 c 0,1.467471 10.27228,1.467471 10.27228,0 l -10e-4,-3.658279 z"/>
  <path fill="#aaa" d="m 454.67222,94.975728 c 7.3e-4,1.467582 -10.27228,1.476849 -10.27228,0.0029 0,-1.473809 10.27156,-1.470672 10.27228,-0.0029 z"/>
  <path fill="#ddd" d="m 477.76391,106.04731 c -5.49139,-0.73373 -7.32573,-1.83434 -10.9944,-5.50301 -3.66867,3.66867 -7.33734,3.65246 -9.17168,-1.850546 0,3.664366 0,5.526646 -1.83211,7.353556 1.83211,1.89538 1.83211,3.65368 1.83211,7.32113 1.83434,-5.50301 5.50301,-5.48679 9.17168,-1.81812 3.66867,-3.66867 5.50301,-4.76928 10.9944,-5.50301 z" />
  <path fill="#ddd" d="m 455.81618,106.04731 c 3.12136,-0.33281 10.68751,-0.75344 12.50601,1.19423 2.91019,-1.109 5.33597,-1.28079 9.44172,-1.19423" />
  <path fill="none" d="m 466.77884,100.64087 c -10e-4,2.46852 0.80643,4.51613 1.54335,6.60067 -0.98276,1.19492 -1.19607,2.73959 -1.53716,4.22618" />
  <path fill="#ddd" d="m 432.65387,78.531474 c -37.41384,-0.06487 -19.67619,62.675606 -0.002,62.257076 l 0.80324,0.10677 c -0.0378,-17.35544 -0.21429,-17.97027 10.11966,-25.84551 l 0.002,-14.41172 c -7.75611,-2.844276 -8.9309,-13.891935 -10.52594,-22.103032 l -0.39696,-0.0037 z"/>
  <path fill="#ddd" d="m 447.66001,94.975728 c -1.80188,-6.281497 -3.06321,-10.047011 -4.86509,-13.587907 3.60379,-10.904958 4.23445,-21.583256 6.7571,-33.708462 1.71167,10.452237 2.94585,23.256225 7.29768,33.708462 -1.80191,2.777112 -3.60379,8.070195 -5.40569,13.587907 -1.1742,0.51718 -2.64166,0.539023 -3.784,0 z"/>
  <path fill="#ddd" d="m 449.52,95.372 c 0.1,-4.473 0.22,-8.302 -1.98,-12.56 3.23,-8.731 2.38,-24.176 2.01,-35.133"/>
  <path fill="#eee" d="m 432.66032,76.63265 c -41.57154,0 -21.31452,67.301 0.79894,67.1367 7.3e-4,-1.08596 -0.002,-1.89935 -0.004,-2.87403 l -0.80324,-0.10677 c -19.67404,0.41853 -37.41168,-62.321945 0.002,-62.257076 l 0.39696,0.0037 c -0.12669,-0.652202 -0.25499,-1.291604 -0.39051,-1.902408 z"/>
</g>
<use xlink:href="#axe" x="-280" y="290"/>
<use id="shine" xlink:href="#shield" fill="url(#rg)" stroke="#000" stroke-width="3"/>
</svg>
