<?xml version="1.0" encoding="UTF-8" standalone="no"?>
<svg
   xmlns:dc="http://purl.org/dc/elements/1.1/"
   xmlns:cc="http://creativecommons.org/ns#"
   xmlns:rdf="http://www.w3.org/1999/02/22-rdf-syntax-ns#"
   xmlns:svg="http://www.w3.org/2000/svg"
   xmlns="http://www.w3.org/2000/svg"
   xmlns:xlink="http://www.w3.org/1999/xlink"
   xmlns:sodipodi="http://sodipodi.sourceforge.net/DTD/sodipodi-0.dtd"
   xmlns:inkscape="http://www.inkscape.org/namespaces/inkscape"
   width="600"
   height="660"
   id="svg2"
   version="1.1"
   inkscape:version="0.48.2 r9819"
   sodipodi:docname="House_Blackwood.svg">
  <metadata
     id="metadata40">
    <rdf:RDF>
      <cc:Work
         rdf:about="">
        <dc:format>image/svg+xml</dc:format>
        <dc:type
           rdf:resource="http://purl.org/dc/dcmitype/StillImage" />
        <dc:title></dc:title>
      </cc:Work>
    </rdf:RDF>
  </metadata>
  <sodipodi:namedview
     pagecolor="#ffffff"
     bordercolor="#666666"
     borderopacity="1"
     objecttolerance="10"
     gridtolerance="10"
     guidetolerance="10"
     inkscape:pageopacity="0"
     inkscape:pageshadow="2"
     inkscape:window-width="1366"
     inkscape:window-height="715"
     id="namedview38"
     showgrid="false"
     inkscape:zoom="0.50568848"
     inkscape:cx="69.777553"
     inkscape:cy="402.37216"
     inkscape:window-x="-8"
     inkscape:window-y="-8"
     inkscape:window-maximized="1"
     inkscape:current-layer="svg2" />
  <defs
     id="defs4">
    <inkscape:path-effect
       is_visible="true"
       id="path-effect4049"
       effect="spiro" />
    <inkscape:path-effect
       effect="spiro"
       id="path-effect4045"
       is_visible="true" />
    <radialGradient
       id="rg"
       gradientUnits="userSpaceOnUse"
       cx="220"
       cy="220"
       r="405">
      <stop
         style="stop-color:#fff;stop-opacity:.3"
         offset="0"
         id="stop7" />
      <stop
         style="stop-color:#fff;stop-opacity:.2"
         offset=".2"
         id="stop9" />
      <stop
         style="stop-color:#666;stop-opacity:.1"
         offset=".6"
         id="stop11" />
      <stop
         style="stop-color:#000;stop-opacity:.13"
         offset="1"
         id="stop13" />
    </radialGradient>
    <path
       id="shield"
       d="m2,2v257c0,286 298,398 298,398c0,0 298-112 298-398V2z" />
    <radialGradient
       id="rg-1"
       gradientUnits="userSpaceOnUse"
       cx="220"
       cy="220"
       r="405">
      <stop
         style="stop-color:#fff;stop-opacity:.3"
         offset="0"
         id="stop7-7" />
      <stop
         style="stop-color:#fff;stop-opacity:.2"
         offset=".2"
         id="stop9-4" />
      <stop
         style="stop-color:#666;stop-opacity:.1"
         offset=".6"
         id="stop11-0" />
      <stop
         style="stop-color:#000;stop-opacity:.13"
         offset="1"
         id="stop13-9" />
    </radialGradient>
    <radialGradient
       id="radialGradient4624"
       gradientUnits="userSpaceOnUse"
       cx="220"
       cy="220"
       r="405">
      <stop
         style="stop-color:#fff;stop-opacity:.3"
         offset="0"
         id="stop4626" />
      <stop
         style="stop-color:#fff;stop-opacity:.2"
         offset=".2"
         id="stop4628" />
      <stop
         style="stop-color:#666;stop-opacity:.1"
         offset=".6"
         id="stop4630" />
      <stop
         style="stop-color:#000;stop-opacity:.13"
         offset="1"
         id="stop4632" />
    </radialGradient>
    <radialGradient
       id="rg-1-1"
       gradientUnits="userSpaceOnUse"
       cx="220"
       cy="220"
       r="405">
      <stop
         style="stop-color:#fff;stop-opacity:.3"
         offset="0"
         id="stop7-7-7" />
      <stop
         style="stop-color:#fff;stop-opacity:.2"
         offset=".2"
         id="stop9-4-4" />
      <stop
         style="stop-color:#666;stop-opacity:.1"
         offset=".6"
         id="stop11-0-0" />
      <stop
         style="stop-color:#000;stop-opacity:.13"
         offset="1"
         id="stop13-9-9" />
    </radialGradient>
    <radialGradient
       id="radialGradient3166"
       gradientUnits="userSpaceOnUse"
       cx="220"
       cy="220"
       r="405">
      <stop
         style="stop-color:#fff;stop-opacity:.3"
         offset="0"
         id="stop3168" />
      <stop
         style="stop-color:#fff;stop-opacity:.2"
         offset=".2"
         id="stop3170" />
      <stop
         style="stop-color:#666;stop-opacity:.1"
         offset=".6"
         id="stop3172" />
      <stop
         style="stop-color:#000;stop-opacity:.13"
         offset="1"
         id="stop3174" />
    </radialGradient>
  </defs>
  <use
     height="1052.3622"
     width="744.09448"
     y="0"
     x="0"
     id="background"
     xlink:href="#shield"
     style="fill:#f6f6f6" />
  <path
     id="bordure"
     d="m 2,2 0,257 c 0,286 298,398 298,398 0,0 298,-112 298,-398 L 598,2 2,2 z m 98,98 400,0 0,159 C 500,424.40588 365.1074,515.01826 300,549.1543 234.8926,515.01826 100,424.40588 100,259 l 0,-159 z"
     style="fill:#ffd700"
     inkscape:connector-curvature="0" />
  <g
     id="g19867"
     style="fill-rule:evenodd;stroke-width:0.19755556;stroke-miterlimit:4;stroke-dasharray:none"
     transform="matrix(5.9712557,0,0,5.9493582,-826.5481,-475.35877)">
    <path
       inkscape:connector-curvature="0"
       d="m 219.115,111.119 c -0.3073,0.6134 -1.0007,1.2094 -1.6803,0.5948 -0.0638,2.1595 3.2016,1.4385 1.6803,-0.5948 z"
       id="path19869"
       style="fill:#ffd700;stroke:#000000;stroke-width:0.11447352;stroke-linejoin:round;stroke-miterlimit:4;stroke-dasharray:none" />
    <path
       inkscape:connector-curvature="0"
       d="m 218.739,110.082 c -0.3053,0.38 -1.3732,1.2843 -1.9378,1.1329 1.1437,1.9287 3.3843,0.1558 1.9378,-1.1329 z"
       id="path19871"
       style="fill:#ffd700;stroke:#000000;stroke-width:0.11447352;stroke-linejoin:round;stroke-miterlimit:4;stroke-dasharray:none" />
    <path
       inkscape:connector-curvature="0"
       d="m 217.807,108.701 c -0.1431,0.3862 -0.476,2.1415 -1.7828,2.1041 1.6659,1.6719 4.0567,-0.713 1.7828,-2.1041 z"
       id="path19873"
       style="fill:#ffd700;stroke:#000000;stroke-width:0.11447352;stroke-linejoin:round;stroke-miterlimit:4;stroke-dasharray:none" />
    <path
       inkscape:connector-curvature="0"
       d="m 215.123,110.103 c 2.305,2.057 4.3952,-1.6146 1.3229,-2.3305 0.4449,0.8163 0.1546,1.8643 -1.3229,2.3305 z"
       id="path19875"
       style="fill:#ffd700;stroke:#000000;stroke-width:0.11447352;stroke-linejoin:round;stroke-miterlimit:4;stroke-dasharray:none" />
    <path
       inkscape:connector-curvature="0"
       d="m 213.871,109.705 c 3.242,1.3258 4.2097,-3.0148 0.4912,-2.9489 0.9233,0.8209 0.8046,2.2399 -0.4912,2.9489 z"
       id="path19877"
       style="fill:#ffd700;stroke:#000000;stroke-width:0.11447352;stroke-linejoin:round;stroke-miterlimit:4;stroke-dasharray:none" />
    <path
       inkscape:connector-curvature="0"
       d="m 212.114,105.924 c 1.3075,0.8624 1.3426,2.7654 -0.192,3.7652 4.3772,0.9906 4.5618,-4.0562 0.192,-3.7652 z"
       id="path19879"
       style="fill:#ffd700;stroke:#000000;stroke-width:0.11447352;stroke-linejoin:round;stroke-miterlimit:4;stroke-dasharray:none" />
    <path
       inkscape:connector-curvature="0"
       d="m 211.523,107.914 c 0.1406,0.8683 -0.1475,1.4851 -1.0428,1.958 5.294,0.015 3.0147,-5.8215 -1.5904,-4.0919 1.3554,0.3759 2.2279,0.9895 2.6332,2.1339 z"
       id="path19881"
       style="fill:#ffd700;stroke:#000000;stroke-width:0.11447352;stroke-linejoin:round;stroke-miterlimit:4;stroke-dasharray:none" />
    <path
       inkscape:connector-curvature="0"
       d="m 209.537,108.45 c 0.3312,0.7022 0.8288,1.2358 0.4509,1.935 4.1456,-1.0068 0.1727,-6.9333 -3.7756,-3.611 1.4252,0.1557 2.6508,0.6194 3.3247,1.676 l 0,0 z"
       id="path19883"
       style="fill:#ffd700;stroke:#000000;stroke-width:0.11447352;stroke-linejoin:round;stroke-miterlimit:4;stroke-dasharray:none" />
    <path
       inkscape:connector-curvature="0"
       d="m 209.666,111.129 c 3.0953,-3.0823 -4.0917,-6.441 -5.6109,-2.634 2.2016,-0.2878 4.5804,1.0995 5.6109,2.634 z"
       id="path19885"
       style="fill:#ffd700;stroke:#000000;stroke-width:0.11447352;stroke-linejoin:round;stroke-miterlimit:4;stroke-dasharray:none" />
    <path
       inkscape:connector-curvature="0"
       d="m 209.409,112.764 c 2.3271,-5.1148 -7.9929,-6.2366 -7.3041,-1.3659 1.8122,-0.0135 5.7523,0.881 7.3041,1.3659 z"
       id="path19887"
       style="fill:#ffd700;stroke:#000000;stroke-width:0.11447352;stroke-linejoin:round;stroke-miterlimit:4;stroke-dasharray:none" />
    <path
       inkscape:connector-curvature="0"
       d="m 204.361,114.158 c 2.0344,0.1574 3.9463,-0.0174 5.0407,1.4087 2.2286,-5.8022 -9.5115,-7.1849 -8.4997,-1.2822 1.4368,-0.1175 1.8356,-0.153 3.459,-0.1265 z"
       id="path19889"
       style="fill:#ffd700;stroke:#000000;stroke-width:0.11447352;stroke-linejoin:round;stroke-miterlimit:4;stroke-dasharray:none" />
    <path
       inkscape:connector-curvature="0"
       d="m 209.683,118.524 c 1.5867,-7.1673 -11.4401,-7.1965 -9.3899,-1.1794 2.6433,-2.4639 7.3074,-0.9204 9.3899,1.1794 z"
       id="path19891"
       style="fill:#ffd700;stroke:#000000;stroke-width:0.11447352;stroke-linejoin:round;stroke-miterlimit:4;stroke-dasharray:none" />
    <path
       inkscape:connector-curvature="0"
       d="m 209.517,122.145 c 3.0793,-7.0828 -10.472,-8.9125 -10.093,-2.6934 3.2724,-1.9976 8.0936,0.342 10.093,2.6934 z"
       id="path19893"
       style="fill:#ffd700;stroke:#000000;stroke-width:0.11447352;stroke-linejoin:round;stroke-miterlimit:4;stroke-dasharray:none" />
    <path
       inkscape:connector-curvature="0"
       d="m 209.165,125.783 c 4.0398,-5.697 -8.5428,-11.0151 -10.6875,-4.6215 6.5253,-0.1455 9.2127,1.9409 10.6875,4.6215 z"
       id="path19895"
       style="fill:#ffd700;stroke:#000000;stroke-width:0.11447352;stroke-linejoin:round;stroke-miterlimit:4;stroke-dasharray:none" />
    <path
       inkscape:connector-curvature="0"
       d="m 208.028,130.275 c 6.2971,-5.2071 -6.7902,-14.0037 -11.1221,-7.2168 5.4574,-0.793 10.3855,2.1048 11.1221,7.2168 z"
       id="path19897"
       style="fill:#ffd700;stroke:#000000;stroke-width:0.11447352;stroke-linejoin:round;stroke-miterlimit:4;stroke-dasharray:none" />
    <path
       inkscape:connector-curvature="0"
       d="m 195.076,124.64 c 6.7867,-1.1814 10.7794,6.5156 10.8692,11.0605 9.1198,-6.8804 -5.9207,-17.3678 -10.8692,-11.0605 z"
       id="path19899"
       style="fill:#ffd700;stroke:#000000;stroke-width:0.11447352;stroke-linejoin:round;stroke-miterlimit:4;stroke-dasharray:none" />
    <path
       inkscape:connector-curvature="0"
       d="m 192.593,125.612 c 8.3032,-0.3638 10.5499,8.7295 9.928,13.9708 11.1787,-4.2962 -1.7457,-20.1835 -9.928,-13.9708 z"
       id="path19901"
       style="fill:#ffd700;stroke:#000000;stroke-width:0.11447352;stroke-linejoin:round;stroke-miterlimit:4;stroke-dasharray:none" />
    <path
       inkscape:connector-curvature="0"
       d="m 189.885,126.512 c 8.8201,0.0564 9.6659,10.6248 8.7523,16.3672 11.8815,-1.7149 1.8141,-22.9298 -8.7523,-16.3672 z"
       id="path19903"
       style="fill:#ffd700;stroke:#000000;stroke-width:0.11447352;stroke-linejoin:round;stroke-miterlimit:4;stroke-dasharray:none" />
    <path
       inkscape:connector-curvature="0"
       d="m 185.5,127.319 c 9.5258,0.0767 8.9868,11.4908 8.0143,17.763 11.864,1.3507 6.9627,-26.1138 -8.0143,-17.763 l 0,0 0,0 z"
       id="path19905"
       style="fill:#ffd700;stroke:#000000;stroke-width:0.11447352;stroke-linejoin:round;stroke-miterlimit:4;stroke-dasharray:none" />
    <path
       inkscape:connector-curvature="0"
       d="m 184.456,126.436 c 5.8211,4.2854 6.0376,14.0193 3.9026,20.8118 12.2842,0.7167 9.0355,-26.4389 -3.9026,-20.8118 z"
       id="path19907"
       style="fill:#ffd700;stroke:#000000;stroke-width:0.11447352;stroke-linejoin:round;stroke-miterlimit:4;stroke-dasharray:none" />
    <g
       id="g19909"
       style="stroke-width:0.19755556;stroke-miterlimit:4;stroke-dasharray:none">
      <path
         inkscape:connector-curvature="0"
         d="m 185.153,128.037 c 2.6198,-0.1236 5.0333,3.7369 5.3896,8.62 0.3563,4.8834 -1.4794,8.9441 -4.0991,9.0676 -2.6199,0.1235 -5.0332,-3.7371 -5.3895,-8.6206 -0.3563,-4.883 1.4793,-8.9437 4.099,-9.067 z m 7.1706,8.5179 c -0.3614,-5.0967 -2.556,-9.3252 -5.2744,-10.6948 -0.6635,-0.3342 -1.3583,-0.4982 -2.0652,-0.4631 -3.6033,0.1799 -6.1607,5.4686 -5.711,11.8092 0.4495,6.3411 3.7363,11.338 7.3395,11.1582 1.0175,-0.0507 1.9516,-0.5089 2.7582,-1.283 2.0496,-1.9673 3.2756,-5.976 2.9529,-10.5265 l 0,0 0,0 0,0 z"
         id="path19911"
         style="fill:#ffd700;stroke:#000000;stroke-width:0.11447352;stroke-linejoin:round;stroke-miterlimit:4;stroke-dasharray:none" />
      <path
         inkscape:connector-curvature="0"
         d="m 190.542,136.656 c -0.3562,-4.8829 -2.7697,-8.7435 -5.3895,-8.6199 -2.6198,0.1234 -4.4553,4.184 -4.099,9.067 0.3561,4.8836 2.7696,8.744 5.3895,8.6206 2.6197,-0.1235 4.4554,-4.1841 4.099,-9.0677 l 0,0 z"
         id="path19913"
         style="fill:#6d5600;stroke:#000000;stroke-width:0.11447352;stroke-linejoin:round;stroke-miterlimit:4;stroke-dasharray:none" />
    </g>
  </g>
  <path
     inkscape:connector-curvature="0"
     d="m 321.93934,390.40376 c 2.32819,-36.49812 32.17437,-34.36409 53.79091,-43.7843 -12.84058,33.67753 -27.59257,60.19144 -53.79091,43.7843 z"
     id="path7962"
     style="fill:#009900;fill-rule:evenodd;stroke:#000000;stroke-width:0.68229616000000004;stroke-miterlimit:4;stroke-dasharray:none" />
  <path
     inkscape:connector-curvature="0"
     d="m 323.22913,389.95161 c 18.28099,-24.22102 34.35926,-27.95484 51.5093,-41.65384 m -51.5093,41.65384 0,0 0,0 z"
     id="path7964"
     style="fill:none;stroke:#000000;stroke-width:0.68229616;stroke-linejoin:round;stroke-miterlimit:4;stroke-dasharray:none" />
  <path
     inkscape:connector-curvature="0"
     d="m 358.8119,380.48023 c -6.13129,-2.81405 -13.46047,-2.1614 -18.39451,-8.44214 -2.37298,-4.74045 -0.0179,-9.0692 0.89091,-13.52467 m 17.5036,21.96681 0,0 0,0 z"
     id="path7970"
     style="fill:none;stroke:#000000;stroke-width:0.68229616;stroke-linejoin:round;stroke-miterlimit:4;stroke-dasharray:none" />
  <path
     inkscape:connector-curvature="0"
     d="m 363.84567,372.8829 c -5.3395,-2.20126 -12.2566,-1.974 -15.84532,-6.86734 -2.02791,-4.51437 -1.29762,-7.22371 -0.38993,-9.81823 m 16.23525,16.68557 0,0 0,0 z"
     id="path7972"
     style="fill:none;stroke:#000000;stroke-width:0.68229616;stroke-linejoin:round;stroke-miterlimit:4;stroke-dasharray:none" />
  <path
     inkscape:connector-curvature="0"
     d="m 367.32691,365.78532 c -3.91476,-0.9406 -8.09762,-1.1042 -10.93277,-5.16702 -2.35507,-2.64449 -1.34652,-4.99627 -0.21616,-7.33675 m 11.14893,12.50377 0,0 0,0 z"
     id="path7974"
     style="fill:none;stroke:#000000;stroke-width:0.68229616;stroke-linejoin:round;stroke-miterlimit:4;stroke-dasharray:none" />
  <path
     inkscape:connector-curvature="0"
     d="m 370.39016,358.89596 -6.64779,-2.64628 -0.96197,-5.17415 m 7.60976,7.82043 0,0 0,0 z"
     id="path7976"
     style="fill:none;stroke:#000000;stroke-width:0.68229616;stroke-linejoin:round;stroke-miterlimit:4;stroke-dasharray:none" />
  <path
     inkscape:connector-curvature="0"
     d="m 321.44372,350.79888 c 0.25437,-1.40761 1.11423,-1.75566 2.20339,-2.5606"
     id="path9016"
     style="fill:none;stroke:#000000;stroke-width:0.68229616;stroke-linejoin:round;stroke-miterlimit:4;stroke-dasharray:none" />
  <g
     id="g9220"
     style="fill-rule:evenodd;stroke-width:0.19755556;stroke-miterlimit:4;stroke-dasharray:none"
     transform="matrix(5.9712557,0,0,5.9493582,-826.5481,-475.35877)">
    <g
       id="g9224"
       style="stroke-width:0.19755556;stroke-miterlimit:4;stroke-dasharray:none">
      <g
         id="g9226"
         style="stroke-width:0.19755556;stroke-miterlimit:4;stroke-dasharray:none">
        <path
           inkscape:connector-curvature="0"
           d="m 175.219,134.473 c -0.1758,0.0845 1.4999,2.4828 1.5617,2.5899 0.2919,0.4888 0.7146,0.9083 0.9604,1.4126"
           id="path9228"
           style="fill:none;stroke:#000000;stroke-width:0.11447352;stroke-linejoin:round;stroke-miterlimit:4;stroke-dasharray:none" />
      </g>
    </g>
    <g
       id="g9232"
       style="stroke-width:0.19755556;stroke-miterlimit:4;stroke-dasharray:none">
      <g
         id="g9234"
         style="stroke-width:0.19755556;stroke-miterlimit:4;stroke-dasharray:none">
        <path
           inkscape:connector-curvature="0"
           d="m 177.16,135.838 c -0.0606,0.4277 -0.1663,0.8721 -0.1264,1.2935"
           id="path9236"
           style="fill:none;stroke:#000000;stroke-width:0.11447352;stroke-linejoin:round;stroke-miterlimit:4;stroke-dasharray:none" />
      </g>
    </g>
    <g
       id="g9240"
       style="stroke-width:0.19755556;stroke-miterlimit:4;stroke-dasharray:none">
      <g
         id="g9242"
         style="stroke-width:0.19755556;stroke-miterlimit:4;stroke-dasharray:none">
        <path
           inkscape:connector-curvature="0"
           d="m 175.839,136.997 c 0.23,-3e-4 0.5363,0.228 0.7435,0.3114"
           id="path9244"
           style="fill:none;stroke:#000000;stroke-width:0.11447352;stroke-linejoin:round;stroke-miterlimit:4;stroke-dasharray:none" />
      </g>
    </g>
  </g>
  <path
     inkscape:connector-curvature="0"
     d="m 228.14285,385.07313 c -7.68321,-35.75921 -36.86415,-29.1453 -59.61582,-35.20473 17.657,31.38287 36.1452,55.38971 59.61582,35.20473 z"
     id="path7980"
     style="fill:#009900;fill-rule:evenodd;stroke:#000000;stroke-width:0.68229616000000004;stroke-miterlimit:4;stroke-dasharray:none" />
  <path
     inkscape:connector-curvature="0"
     d="m 226.79932,384.81732 c -21.63864,-21.2059 -38.0787,-22.4743 -57.04699,-33.44076 m 57.04699,33.44076 0,0 0,0 z"
     id="path7982"
     style="fill:none;stroke:#000000;stroke-width:0.68229616;stroke-linejoin:round;stroke-miterlimit:4;stroke-dasharray:none" />
  <path
     inkscape:connector-curvature="0"
     d="m 190.24329,380.8134 c 5.64463,-3.70943 12.9833,-4.16931 16.93388,-11.12709 1.64508,-5.04803 -1.31905,-8.9758 -2.87516,-13.24625 m -14.05872,24.37334 0,0 0,0 z"
     id="path7988"
     style="fill:none;stroke:#000000;stroke-width:0.68229616;stroke-linejoin:round;stroke-miterlimit:4;stroke-dasharray:none" />
  <path
     inkscape:connector-curvature="0"
     d="m 184.15261,374.05492 c 4.95196,-2.98181 11.82069,-3.80044 14.6457,-9.18402 1.33756,-4.77198 0.21615,-7.3427 -1.06229,-9.77182 m -13.58341,18.95584 0,0 0,0 z"
     id="path7990"
     style="fill:none;stroke:#000000;stroke-width:0.68229616;stroke-linejoin:round;stroke-miterlimit:4;stroke-dasharray:none" />
  <path
     inkscape:connector-curvature="0"
     d="m 179.66222,367.56418 c 3.73025,-1.52126 7.83907,-2.31431 10.04246,-6.76204 1.93648,-2.97052 0.59295,-5.14561 -0.86941,-7.29094 m -9.17305,14.05298 0,0 0,0 z"
     id="path7992"
     style="fill:none;stroke:#000000;stroke-width:0.68229616;stroke-linejoin:round;stroke-miterlimit:4;stroke-dasharray:none" />
  <path
     inkscape:connector-curvature="0"
     d="m 175.61371,361.21026 6.17966,-3.62019 0.1869,-5.26518 m -6.36656,8.88537 0,0 0,0 z"
     id="path7994"
     style="fill:none;stroke:#000000;stroke-width:0.68229616;stroke-linejoin:round;stroke-miterlimit:4;stroke-dasharray:none" />
  <g
     id="g696"
     style="fill-rule:evenodd;stroke-width:0.19755556;stroke-miterlimit:4;stroke-dasharray:none"
     transform="matrix(5.9712557,0,0,5.9493582,-826.5481,-475.35877)">
    <g
       id="g4393"
       style="stroke-width:0.19755556;stroke-miterlimit:4;stroke-dasharray:none">
      <path
         inkscape:connector-curvature="0"
         d="m 186.951,142.673 c -0.3421,1.7437 0.3238,1.5672 0.3269,1.5607 0,0 0.4108,0.7309 1.3903,-0.5026 1.2157,-1.5303 3.0848,-5.0257 3.5753,-6.0937 0.046,-0.1001 0.0797,-0.1786 0.0998,-0.2326 0.2486,-0.6662 1.2457,-3.6716 1.139,-4.485 -0.005,-0.0361 0.1439,-0.8026 -0.4999,-1.1938 -0.5351,-0.325 -0.9701,0.1933 -0.9936,0.2046 -0.6295,0.2971 -2.5068,3.5631 -2.5068,3.5631 0,0 -1.4079,3.2839 -2.1458,5.6775 -0.1758,0.57 -0.3046,1.0915 -0.3852,1.5018 l 0,0 0,0 0,0 z"
         id="use3924"
         style="fill:#ffd700;stroke:#000000;stroke-width:0.11447352;stroke-linejoin:round;stroke-miterlimit:4;stroke-dasharray:none" />
      <path
         inkscape:connector-curvature="0"
         d="m 193.464,132.369 c -0.0613,-0.2148 -0.4087,-0.4343 -0.5971,-0.3803 -0.1298,0.0371 -0.1968,0.234 -0.173,0.3689 0.0391,0.2226 0.43,0.4997 0.5971,0.3803 0.1263,-0.0902 0.2171,-0.2143 0.173,-0.3689 z"
         id="use3293"
         style="fill:#ffd700;stroke:#000000;stroke-width:0.11447352;stroke-linejoin:round;stroke-miterlimit:4;stroke-dasharray:none" />
      <path
         inkscape:connector-curvature="0"
         d="m 193.337,133.088 c -0.0741,-0.2544 -0.489,-0.5166 -0.7132,-0.4542 -0.1543,0.0431 -0.2332,0.2755 -0.2041,0.4354 0.0478,0.2635 0.5146,0.5942 0.7132,0.454 0.1498,-0.1058 0.2573,-0.2519 0.2041,-0.4352 z"
         id="use3297"
         style="fill:#ffd700;stroke:#000000;stroke-width:0.11447352;stroke-linejoin:round;stroke-miterlimit:4;stroke-dasharray:none" />
      <path
         inkscape:connector-curvature="0"
         d="m 192.906,131.983 c -0.0889,-0.0627 0.1221,-0.0314 -0.3427,-0.2713 -0.0647,-0.0335 -0.0607,0.0226 -0.044,0.0973 0.0109,0.0494 0.0288,0.1188 0.0312,0.1337 0.0128,0.0804 0.009,0.1157 0.1313,0.1302 0.0925,0.011 0.2809,-0.0499 0.2242,-0.0899 l 0,0 z"
         id="use3315"
         style="fill:#ffd700;stroke:#000000;stroke-width:0.11447352;stroke-linejoin:round;stroke-miterlimit:4;stroke-dasharray:none" />
      <path
         inkscape:connector-curvature="0"
         d="m 192.673,132.249 c -0.0475,-0.2311 -0.3819,-0.4422 -0.5746,-0.3659 -0.1327,0.0525 -0.2128,0.2753 -0.198,0.422 0.0249,0.2416 0.3991,0.5125 0.5747,0.3659 0.1327,-0.1107 0.232,-0.2555 0.1979,-0.422 z"
         id="use3319"
         style="fill:#ffd700;stroke:#000000;stroke-width:0.11447352;stroke-linejoin:round;stroke-miterlimit:4;stroke-dasharray:none" />
      <path
         inkscape:connector-curvature="0"
         d="m 193.455,133.482 c 0.0712,-0.2587 0.0685,-0.1045 -0.1558,-0.042 -0.1542,0.043 -0.233,0.2755 -0.2041,0.4352 0.0481,0.2636 0.1381,0.5423 0.2033,0.2816 0.068,-0.2721 0.0949,-0.4506 0.1566,-0.6748 l 0,0 z"
         id="use3339"
         style="fill:#ffd700;stroke:#000000;stroke-width:0.11447352;stroke-linejoin:round;stroke-miterlimit:4;stroke-dasharray:none" />
      <path
         inkscape:connector-curvature="0"
         d="m 193.014,133.778 c -0.074,-0.2545 -0.4889,-0.5168 -0.7131,-0.4541 -0.1542,0.043 -0.2332,0.2753 -0.2041,0.4351 0.0478,0.2636 0.5146,0.5944 0.7132,0.4542 0.1497,-0.1059 0.2573,-0.252 0.204,-0.4352 l 0,0 0,0 z"
         id="use3341"
         style="fill:#ffd700;stroke:#000000;stroke-width:0.11447352;stroke-linejoin:round;stroke-miterlimit:4;stroke-dasharray:none" />
      <path
         inkscape:connector-curvature="0"
         d="m 193.267,134.284 c 0.0518,-0.2649 -0.0722,-0.2134 -0.2965,-0.1507 -0.1542,0.043 -0.2331,0.2753 -0.2041,0.4351 0.0481,0.2635 0.2647,0.5904 0.3523,0.3384 0.0789,-0.2271 0.1058,-0.4056 0.1483,-0.6228 l 0,0 z"
         id="use3343"
         style="fill:#ffd700;stroke:#000000;stroke-width:0.11447352;stroke-linejoin:round;stroke-miterlimit:4;stroke-dasharray:none" />
      <path
         inkscape:connector-curvature="0"
         d="m 192.712,134.506 c -0.074,-0.2545 -0.4889,-0.5168 -0.7132,-0.4542 -0.1542,0.0431 -0.233,0.2753 -0.204,0.4351 0.0478,0.2635 0.5148,0.5944 0.7131,0.4542 0.1499,-0.1057 0.2574,-0.2519 0.2041,-0.4351 z"
         id="use3345"
         style="fill:#ffd700;stroke:#000000;stroke-width:0.11447352;stroke-linejoin:round;stroke-miterlimit:4;stroke-dasharray:none" />
      <path
         inkscape:connector-curvature="0"
         d="m 193.085,135.033 c 0.068,-0.2599 -0.2227,-0.233 -0.447,-0.1705 -0.1543,0.0431 -0.2331,0.2754 -0.204,0.4352 0.0478,0.2635 0.4666,0.514 0.5068,0.2468 0.0436,-0.2879 0.0893,-0.302 0.1442,-0.5115 z"
         id="use3347"
         style="fill:#ffd700;stroke:#000000;stroke-width:0.11447352;stroke-linejoin:round;stroke-miterlimit:4;stroke-dasharray:none" />
      <path
         inkscape:connector-curvature="0"
         d="m 192.352,135.2 c -0.0741,-0.2545 -0.489,-0.5167 -0.7131,-0.4542 -0.1542,0.043 -0.2331,0.2753 -0.2041,0.4351 0.0478,0.2635 0.5147,0.5944 0.7132,0.4542 0.1497,-0.1059 0.2573,-0.2518 0.204,-0.4351 z"
         id="use3349"
         style="fill:#ffd700;stroke:#000000;stroke-width:0.11447352;stroke-linejoin:round;stroke-miterlimit:4;stroke-dasharray:none" />
      <path
         inkscape:connector-curvature="0"
         d="m 192.839,135.855 c 0.0717,-0.2587 -0.3059,-0.3621 -0.5302,-0.2995 -0.1541,0.0429 -0.233,0.2753 -0.2039,0.4351 0.0478,0.2636 0.4795,0.6506 0.5641,0.3973 0.1077,-0.3228 0.1304,-0.3899 0.17,-0.5329 l 0,0 0,0 0,0 z"
         id="use3351"
         style="fill:#ffd700;stroke:#000000;stroke-width:0.11447352;stroke-linejoin:round;stroke-miterlimit:4;stroke-dasharray:none" />
      <path
         inkscape:connector-curvature="0"
         d="m 192.05,135.928 c -0.0741,-0.2545 -0.4889,-0.5167 -0.7132,-0.4542 -0.1541,0.043 -0.233,0.2755 -0.2039,0.4351 0.0478,0.2636 0.5147,0.5943 0.713,0.4542 0.1499,-0.1058 0.2575,-0.2519 0.2041,-0.4351 z"
         id="use3353"
         style="fill:#ffd700;stroke:#000000;stroke-width:0.11447352;stroke-linejoin:round;stroke-miterlimit:4;stroke-dasharray:none" />
      <path
         inkscape:connector-curvature="0"
         d="m 192.369,132.943 c -0.0741,-0.2543 -0.489,-0.5166 -0.7132,-0.4541 -0.1543,0.043 -0.233,0.2754 -0.2039,0.4352 0.0478,0.2636 0.5146,0.5943 0.713,0.4542 0.1498,-0.1059 0.2575,-0.252 0.2041,-0.4353 l 0,0 0,0 z"
         id="use3355"
         style="fill:#ffd700;stroke:#000000;stroke-width:0.11447352;stroke-linejoin:round;stroke-miterlimit:4;stroke-dasharray:none" />
      <path
         inkscape:connector-curvature="0"
         d="m 191.371,132.825 c -0.074,-0.2544 0.0663,-0.3096 -0.1022,-0.1222 -0.1134,0.1263 -0.321,0.4289 -0.4027,0.5181 -0.1697,0.1858 0.1024,0.1795 0.3008,0.0393 0.1498,-0.1059 0.2573,-0.252 0.2041,-0.4352 z"
         id="use3357"
         style="fill:#ffd700;stroke:#000000;stroke-width:0.11447352;stroke-linejoin:round;stroke-miterlimit:4;stroke-dasharray:none" />
      <path
         inkscape:connector-curvature="0"
         d="m 192.041,133.636 c -0.074,-0.2546 -0.4889,-0.5168 -0.713,-0.4542 -0.1544,0.043 -0.2332,0.2753 -0.2041,0.4351 0.0478,0.2635 0.5146,0.5944 0.7132,0.4542 0.1496,-0.106 0.2573,-0.252 0.2039,-0.4351 z"
         id="use3359"
         style="fill:#ffd700;stroke:#000000;stroke-width:0.11447352;stroke-linejoin:round;stroke-miterlimit:4;stroke-dasharray:none" />
      <path
         inkscape:connector-curvature="0"
         d="m 191.069,133.554 c -0.0741,-0.2545 -0.0751,-0.5271 -0.2087,-0.304 -0.1024,0.1711 -0.2374,0.3867 -0.3863,0.5854 -0.1533,0.2046 0.1924,0.2939 0.3909,0.1537 0.1498,-0.1059 0.2574,-0.252 0.2041,-0.4351 l 0,0 0,0 0,0 z"
         id="use3361"
         style="fill:#ffd700;stroke:#000000;stroke-width:0.11447352;stroke-linejoin:round;stroke-miterlimit:4;stroke-dasharray:none" />
      <path
         inkscape:connector-curvature="0"
         d="m 191.708,134.365 c -0.074,-0.2546 -0.4889,-0.5167 -0.7132,-0.4542 -0.1543,0.0431 -0.2332,0.2753 -0.2041,0.4351 0.048,0.2635 0.5147,0.5944 0.7132,0.4542 0.1498,-0.1057 0.2573,-0.2518 0.2041,-0.4351 z"
         id="use3363"
         style="fill:#ffd700;stroke:#000000;stroke-width:0.11447352;stroke-linejoin:round;stroke-miterlimit:4;stroke-dasharray:none" />
      <path
         inkscape:connector-curvature="0"
         d="m 190.709,134.248 c -0.0741,-0.2543 -0.12,-0.2816 -0.3442,-0.2191 -0.1217,0.0339 0.1562,-0.2789 -0.1355,0.2397 -0.1477,0.2626 0.1882,-0.1507 -0.1109,0.1494 -0.0386,0.0389 0.1882,0.4054 0.3865,0.2652 0.1499,-0.1058 0.2574,-0.2519 0.2041,-0.4352 l 0,0 0,0 z"
         id="use3365"
         style="fill:#ffd700;stroke:#000000;stroke-width:0.11447352;stroke-linejoin:round;stroke-miterlimit:4;stroke-dasharray:none" />
      <path
         inkscape:connector-curvature="0"
         d="m 191.379,135.058 c -0.0742,-0.2545 -0.4891,-0.5167 -0.7131,-0.4542 -0.1544,0.043 -0.2332,0.2755 -0.2042,0.4352 0.0479,0.2635 0.5147,0.5943 0.7133,0.4542 0.1497,-0.1058 0.2572,-0.2519 0.204,-0.4352 l 0,0 0,0 z"
         id="use3367"
         style="fill:#ffd700;stroke:#000000;stroke-width:0.11447352;stroke-linejoin:round;stroke-miterlimit:4;stroke-dasharray:none" />
      <path
         inkscape:connector-curvature="0"
         d="m 190.407,134.976 c -0.074,-0.2543 -0.2424,-0.6289 -0.3929,-0.4215 -0.108,0.1487 -0.2061,0.3879 -0.2975,0.566 -0.1197,0.2334 0.288,0.4309 0.4863,0.2907 0.1499,-0.1058 0.2574,-0.2519 0.2041,-0.4352 l 0,0 0,0 z"
         id="use3369"
         style="fill:#ffd700;stroke:#000000;stroke-width:0.11447352;stroke-linejoin:round;stroke-miterlimit:4;stroke-dasharray:none" />
      <path
         inkscape:connector-curvature="0"
         d="m 192.59,136.558 c 0.041,-0.2671 -0.4043,-0.4249 -0.6284,-0.3622 -0.1543,0.043 -0.2331,0.2753 -0.2042,0.4351 0.0479,0.2637 0.63,0.5948 0.7175,0.3428 0.079,-0.2273 0.0863,-0.2276 0.1151,-0.4157 l 0,0 0,0 z"
         id="use3403"
         style="fill:#ffd700;stroke:#000000;stroke-width:0.11447352;stroke-linejoin:round;stroke-miterlimit:4;stroke-dasharray:none" />
      <path
         inkscape:connector-curvature="0"
         d="m 191.677,136.532 c -0.0741,-0.2543 -0.4889,-0.5165 -0.7132,-0.4541 -0.1542,0.0431 -0.233,0.2754 -0.2041,0.4353 0.0479,0.2635 0.5149,0.5942 0.7132,0.4542 0.1499,-0.106 0.2574,-0.2521 0.2041,-0.4354 z"
         id="use3405"
         style="fill:#ffd700;stroke:#000000;stroke-width:0.11447352;stroke-linejoin:round;stroke-miterlimit:4;stroke-dasharray:none" />
      <path
         inkscape:connector-curvature="0"
         d="m 192.303,137.314 c -0.0656,-0.2495 -0.4572,-0.4971 -0.6732,-0.4286 -0.1486,0.0468 -0.2289,0.279 -0.2047,0.4362 0.0404,0.2593 0.4804,0.5732 0.6734,0.4288 0.1457,-0.1092 0.2519,-0.2567 0.2045,-0.4364 l 0,0 0,0 0,0 z"
         id="use3407"
         style="fill:#ffd700;stroke:#000000;stroke-width:0.11447352;stroke-linejoin:round;stroke-miterlimit:4;stroke-dasharray:none" />
      <path
         inkscape:connector-curvature="0"
         d="m 191.375,137.261 c -0.0741,-0.2546 -0.4891,-0.5168 -0.7133,-0.4542 -0.1542,0.0429 -0.233,0.2753 -0.2039,0.4351 0.0478,0.2635 0.5146,0.5944 0.7131,0.4542 0.1498,-0.106 0.2574,-0.252 0.2041,-0.4351 z"
         id="use3409"
         style="fill:#ffd700;stroke:#000000;stroke-width:0.11447352;stroke-linejoin:round;stroke-miterlimit:4;stroke-dasharray:none" />
      <path
         inkscape:connector-curvature="0"
         d="m 191.972,138.026 c -0.0742,-0.2545 -0.4467,-0.4708 -0.671,-0.4082 -0.1542,0.043 -0.2329,0.2754 -0.204,0.4352 0.048,0.2636 0.5177,0.52 0.716,0.38 0.0816,-0.0578 0.0724,-0.0627 0.1098,-0.1436 0.0314,-0.0679 0.0735,-0.1799 0.0492,-0.2634 l 0,0 0,0 z"
         id="use3411"
         style="fill:#ffd700;stroke:#000000;stroke-width:0.11447352;stroke-linejoin:round;stroke-miterlimit:4;stroke-dasharray:none" />
      <path
         inkscape:connector-curvature="0"
         d="m 191.015,137.954 c -0.0741,-0.2545 -0.4889,-0.5168 -0.7132,-0.4542 -0.1542,0.043 -0.233,0.2753 -0.2039,0.4351 0.0478,0.2636 0.5146,0.5944 0.713,0.4542 0.1499,-0.1059 0.2575,-0.252 0.2041,-0.4351 z"
         id="use3413"
         style="fill:#ffd700;stroke:#000000;stroke-width:0.11447352;stroke-linejoin:round;stroke-miterlimit:4;stroke-dasharray:none" />
      <path
         inkscape:connector-curvature="0"
         d="m 191.654,138.763 c 0.1173,-0.2352 -0.4574,-0.5157 -0.6816,-0.4533 -0.1542,0.043 -0.233,0.2754 -0.2041,0.4353 0.048,0.2634 0.5723,0.5966 0.7039,0.372 0.1021,-0.1743 0.104,-0.1974 0.1818,-0.354 z"
         id="use3415"
         style="fill:#ffd700;stroke:#000000;stroke-width:0.11447352;stroke-linejoin:round;stroke-miterlimit:4;stroke-dasharray:none" />
      <path
         inkscape:connector-curvature="0"
         d="m 190.713,138.683 c -0.074,-0.2545 -0.4889,-0.5167 -0.7131,-0.4542 -0.1543,0.0431 -0.2331,0.2753 -0.2041,0.4352 0.0478,0.2634 0.5148,0.5944 0.7131,0.4542 0.1499,-0.1059 0.2574,-0.2519 0.2041,-0.4352 z"
         id="use3417"
         style="fill:#ffd700;stroke:#000000;stroke-width:0.11447352;stroke-linejoin:round;stroke-miterlimit:4;stroke-dasharray:none" />
      <path
         inkscape:connector-curvature="0"
         d="m 191.032,135.698 c -0.0741,-0.2543 -0.489,-0.5168 -0.7132,-0.4542 -0.1542,0.0431 -0.233,0.2754 -0.204,0.4351 0.0479,0.2635 0.5147,0.5945 0.7131,0.4542 0.1499,-0.1057 0.2575,-0.2519 0.2041,-0.4351 z"
         id="use3419"
         style="fill:#ffd700;stroke:#000000;stroke-width:0.11447352;stroke-linejoin:round;stroke-miterlimit:4;stroke-dasharray:none" />
      <path
         inkscape:connector-curvature="0"
         d="m 190.034,135.579 c -0.074,-0.2543 -0.2184,-0.3443 -0.4427,-0.2818 -0.044,0.0122 -0.155,0.3083 -0.2299,0.4566 -0.1188,0.2341 0.2702,0.4006 0.4686,0.2604 0.1497,-0.1058 0.2573,-0.2519 0.204,-0.4352 l 0,0 0,0 0,0 z"
         id="use3421"
         style="fill:#ffd700;stroke:#000000;stroke-width:0.11447352;stroke-linejoin:round;stroke-miterlimit:4;stroke-dasharray:none" />
      <path
         inkscape:connector-curvature="0"
         d="m 190.704,136.39 c -0.0742,-0.2544 -0.4891,-0.5166 -0.7132,-0.454 -0.1543,0.0428 -0.2331,0.2754 -0.2041,0.4351 0.0479,0.2635 0.5148,0.5942 0.7132,0.4542 0.1499,-0.1059 0.2574,-0.2519 0.2041,-0.4353 l 0,0 0,0 z"
         id="use3423"
         style="fill:#ffd700;stroke:#000000;stroke-width:0.11447352;stroke-linejoin:round;stroke-miterlimit:4;stroke-dasharray:none" />
      <path
         inkscape:connector-curvature="0"
         d="m 189.732,136.309 c -0.0742,-0.2545 -0.3981,-0.506 -0.5001,-0.2614 -0.078,0.1868 -0.1196,0.2716 -0.1727,0.4361 -0.082,0.2546 0.2702,0.4005 0.4687,0.2605 0.1498,-0.106 0.2574,-0.2521 0.2041,-0.4352 l 0,0 0,0 z"
         id="use3425"
         style="fill:#ffd700;stroke:#000000;stroke-width:0.11447352;stroke-linejoin:round;stroke-miterlimit:4;stroke-dasharray:none" />
      <path
         inkscape:connector-curvature="0"
         d="m 190.371,137.12 c -0.0742,-0.2544 -0.4891,-0.5167 -0.7132,-0.4542 -0.1544,0.043 -0.2332,0.2754 -0.2041,0.4352 0.0478,0.2636 0.5146,0.5944 0.7132,0.4542 0.1498,-0.1059 0.2573,-0.2519 0.2041,-0.4352 z"
         id="use3427"
         style="fill:#ffd700;stroke:#000000;stroke-width:0.11447352;stroke-linejoin:round;stroke-miterlimit:4;stroke-dasharray:none" />
      <path
         inkscape:connector-curvature="0"
         d="m 189.372,137.002 c -0.074,-0.2546 -0.3365,-0.4833 -0.4195,-0.2291 -0.0587,0.18 -0.1264,0.2863 -0.1534,0.4293 -0.0501,0.2652 0.1705,0.3751 0.3688,0.2349 0.1499,-0.106 0.2574,-0.252 0.2041,-0.4351 l 0,0 0,0 0,0 z"
         id="use3429"
         style="fill:#ffd700;stroke:#000000;stroke-width:0.11447352;stroke-linejoin:round;stroke-miterlimit:4;stroke-dasharray:none" />
      <path
         inkscape:connector-curvature="0"
         d="m 190.042,137.813 c -0.0741,-0.2545 -0.489,-0.5167 -0.713,-0.4542 -0.1544,0.043 -0.2332,0.2753 -0.2041,0.4351 0.0479,0.2635 0.5146,0.5944 0.7132,0.4542 0.1498,-0.1059 0.2573,-0.2521 0.2039,-0.4351 z"
         id="use3431"
         style="fill:#ffd700;stroke:#000000;stroke-width:0.11447352;stroke-linejoin:round;stroke-miterlimit:4;stroke-dasharray:none" />
      <path
         inkscape:connector-curvature="0"
         d="m 189.07,137.731 c -0.0741,-0.2544 -0.2742,-0.4842 -0.3934,-0.2506 -0.0766,0.1497 -0.1539,0.3449 -0.1741,0.4733 -0.0419,0.267 0.1649,0.3526 0.3634,0.2124 0.1498,-0.1058 0.2574,-0.252 0.2041,-0.4351 z"
         id="use3433"
         style="fill:#ffd700;stroke:#000000;stroke-width:0.11447352;stroke-linejoin:round;stroke-miterlimit:4;stroke-dasharray:none" />
      <path
         inkscape:connector-curvature="0"
         d="m 191.289,139.428 c 0.0996,-0.2459 -0.3906,-0.454 -0.6147,-0.3914 -0.1543,0.043 -0.2331,0.2752 -0.2041,0.4351 0.0479,0.2636 0.5559,0.5492 0.6561,0.3037 0.0774,-0.19 0.0902,-0.1682 0.1627,-0.3474 z"
         id="use3435"
         style="fill:#ffd700;stroke:#000000;stroke-width:0.11447352;stroke-linejoin:round;stroke-miterlimit:4;stroke-dasharray:none" />
      <path
         inkscape:connector-curvature="0"
         d="m 190.39,139.372 c -0.074,-0.2546 -0.4889,-0.5168 -0.7131,-0.4542 -0.1542,0.0429 -0.2331,0.2753 -0.2041,0.4351 0.048,0.2635 0.5148,0.5942 0.7131,0.4542 0.1499,-0.106 0.2576,-0.2521 0.2041,-0.4351 z"
         id="use3437"
         style="fill:#ffd700;stroke:#000000;stroke-width:0.11447352;stroke-linejoin:round;stroke-miterlimit:4;stroke-dasharray:none" />
      <path
         inkscape:connector-curvature="0"
         d="m 190.966,140.009 c 0.1182,-0.2343 -0.3949,-0.3427 -0.6191,-0.2801 -0.1542,0.0431 -0.2331,0.2755 -0.2041,0.4352 0.0479,0.2636 0.5127,0.5028 0.6137,0.2576 0.0844,-0.2046 0.1453,-0.2852 0.2095,-0.4127 l 0,0 0,0 0,0 z"
         id="use3439"
         style="fill:#ffd700;stroke:#000000;stroke-width:0.11447352;stroke-linejoin:round;stroke-miterlimit:4;stroke-dasharray:none" />
      <path
         inkscape:connector-curvature="0"
         d="m 190.087,140.102 c -0.074,-0.2545 -0.4888,-0.5168 -0.7131,-0.4542 -0.1543,0.043 -0.2331,0.2753 -0.2041,0.4351 0.0478,0.2636 0.5147,0.5944 0.7132,0.4542 0.1498,-0.1059 0.2573,-0.252 0.204,-0.4351 z"
         id="use3441"
         style="fill:#ffd700;stroke:#000000;stroke-width:0.11447352;stroke-linejoin:round;stroke-miterlimit:4;stroke-dasharray:none" />
      <path
         inkscape:connector-curvature="0"
         d="m 190.539,140.736 c 0.0995,-0.246 -0.3007,-0.3397 -0.5247,-0.2771 -0.1543,0.0431 -0.2332,0.2754 -0.2041,0.4351 0.0478,0.2635 0.3598,0.4961 0.5055,0.284 0.1143,-0.1664 0.1506,-0.2628 0.2233,-0.442 l 0,0 z"
         id="use3443"
         style="fill:#ffd700;stroke:#000000;stroke-width:0.11447352;stroke-linejoin:round;stroke-miterlimit:4;stroke-dasharray:none" />
      <path
         inkscape:connector-curvature="0"
         d="m 189.729,140.794 c -0.074,-0.2545 -0.489,-0.5167 -0.7132,-0.4542 -0.1543,0.0431 -0.2331,0.2753 -0.204,0.4351 0.0478,0.2635 0.5147,0.5945 0.7131,0.4542 0.1499,-0.1057 0.2574,-0.2518 0.2041,-0.4351 z"
         id="use3445"
         style="fill:#ffd700;stroke:#000000;stroke-width:0.11447352;stroke-linejoin:round;stroke-miterlimit:4;stroke-dasharray:none" />
      <path
         inkscape:connector-curvature="0"
         d="m 190.178,141.292 c 0.0299,-0.2688 -0.2679,-0.2047 -0.492,-0.142 -0.1543,0.0429 -0.2332,0.2754 -0.2041,0.4351 0.0479,0.2636 0.3612,0.4448 0.4769,0.2086 0.1035,-0.2114 0.1958,-0.2911 0.2192,-0.5017 z"
         id="use3447"
         style="fill:#ffd700;stroke:#000000;stroke-width:0.11447352;stroke-linejoin:round;stroke-miterlimit:4;stroke-dasharray:none" />
      <path
         inkscape:connector-curvature="0"
         d="m 189.426,141.524 c -0.0741,-0.2545 -0.489,-0.5167 -0.7131,-0.4541 -0.1543,0.043 -0.2331,0.2754 -0.2042,0.4351 0.048,0.2637 0.5148,0.5943 0.7133,0.4542 0.1497,-0.1058 0.2574,-0.2519 0.204,-0.4352 l 0,0 0,0 z"
         id="use3449"
         style="fill:#ffd700;stroke:#000000;stroke-width:0.11447352;stroke-linejoin:round;stroke-miterlimit:4;stroke-dasharray:none" />
      <path
         inkscape:connector-curvature="0"
         d="m 189.746,138.539 c -0.074,-0.2543 -0.489,-0.5165 -0.7132,-0.4541 -0.1543,0.043 -0.2331,0.2754 -0.204,0.4351 0.0478,0.2637 0.5147,0.5944 0.7131,0.4542 0.1499,-0.1058 0.2574,-0.2519 0.2041,-0.4352 l 0,0 0,0 z"
         id="use3451"
         style="fill:#ffd700;stroke:#000000;stroke-width:0.11447352;stroke-linejoin:round;stroke-miterlimit:4;stroke-dasharray:none" />
      <path
         inkscape:connector-curvature="0"
         d="m 188.746,138.42 c -0.0741,-0.2543 -0.2406,-0.3867 -0.3594,-0.1525 -0.0833,0.1642 -0.1401,0.3154 -0.1878,0.5026 -0.0664,0.2604 0.1446,0.2253 0.3431,0.0853 0.1498,-0.106 0.2574,-0.2521 0.2041,-0.4354 l 0,0 z"
         id="use3453"
         style="fill:#ffd700;stroke:#000000;stroke-width:0.11447352;stroke-linejoin:round;stroke-miterlimit:4;stroke-dasharray:none" />
      <path
         inkscape:connector-curvature="0"
         d="m 189.417,139.23 c -0.074,-0.2546 -0.489,-0.5168 -0.7131,-0.4542 -0.1543,0.0431 -0.2332,0.2753 -0.2041,0.4351 0.0478,0.2635 0.5147,0.5943 0.7131,0.4542 0.1499,-0.106 0.2574,-0.2519 0.2041,-0.4351 z"
         id="use3455"
         style="fill:#ffd700;stroke:#000000;stroke-width:0.11447352;stroke-linejoin:round;stroke-miterlimit:4;stroke-dasharray:none" />
      <path
         inkscape:connector-curvature="0"
         d="m 188.444,139.15 c -0.0741,-0.2546 -0.2435,-0.3888 -0.3471,-0.145 -0.0916,0.2161 -0.0949,0.2873 -0.1726,0.4362 -0.1212,0.2323 0.1172,0.2841 0.3157,0.1439 0.1498,-0.106 0.2573,-0.2521 0.204,-0.4351 z"
         id="use3457"
         style="fill:#ffd700;stroke:#000000;stroke-width:0.11447352;stroke-linejoin:round;stroke-miterlimit:4;stroke-dasharray:none" />
      <path
         inkscape:connector-curvature="0"
         d="m 189.084,139.961 c -0.074,-0.2545 -0.4889,-0.5168 -0.7132,-0.4542 -0.1543,0.043 -0.2331,0.2753 -0.204,0.4351 0.0478,0.2636 0.5147,0.5944 0.7131,0.4542 0.1499,-0.1059 0.2574,-0.252 0.2041,-0.4351 z"
         id="use3459"
         style="fill:#ffd700;stroke:#000000;stroke-width:0.11447352;stroke-linejoin:round;stroke-miterlimit:4;stroke-dasharray:none" />
      <path
         inkscape:connector-curvature="0"
         d="m 188.086,139.842 c -0.0741,-0.2545 -0.1364,-0.3775 -0.2405,-0.134 -0.0985,0.2307 -0.1361,0.3752 -0.1794,0.4508 -0.1295,0.2262 0.0173,0.2585 0.2157,0.1183 0.1498,-0.1058 0.2576,-0.2518 0.2042,-0.4351 l 0,0 z"
         id="use3461"
         style="fill:#ffd700;stroke:#000000;stroke-width:0.11447352;stroke-linejoin:round;stroke-miterlimit:4;stroke-dasharray:none" />
      <path
         inkscape:connector-curvature="0"
         d="m 188.757,140.652 c -0.074,-0.2543 -0.4889,-0.5166 -0.7132,-0.4542 -0.1542,0.0432 -0.233,0.2755 -0.2041,0.4354 0.0479,0.2635 0.5149,0.5943 0.7132,0.4542 0.1499,-0.106 0.2574,-0.252 0.2041,-0.4354 z"
         id="use3463"
         style="fill:#ffd700;stroke:#000000;stroke-width:0.11447352;stroke-linejoin:round;stroke-miterlimit:4;stroke-dasharray:none" />
      <path
         inkscape:connector-curvature="0"
         d="m 187.784,140.572 c -0.0741,-0.2545 0.0521,-0.3459 -0.1662,-0.2581 -0.008,0.003 -0.2212,0.4542 -0.1921,0.6141 0.0478,0.2635 -0.0441,0.2194 0.1542,0.0792 0.1499,-0.1058 0.2574,-0.2519 0.2041,-0.4352 l 0,0 0,0 z"
         id="use3465"
         style="fill:#ffd700;stroke:#000000;stroke-width:0.11447352;stroke-linejoin:round;stroke-miterlimit:4;stroke-dasharray:none" />
      <path
         inkscape:connector-curvature="0"
         d="m 189.806,141.984 c 0.1368,-0.2201 -0.1856,-0.3805 -0.4097,-0.3179 -0.1543,0.0429 -0.2331,0.2754 -0.2041,0.4351 0.0479,0.2635 0.2592,0.465 0.418,0.2662 0.1267,-0.1587 0.1123,-0.2492 0.1958,-0.3834 l 0,0 z"
         id="use3531"
         style="fill:#ffd700;stroke:#000000;stroke-width:0.11447352;stroke-linejoin:round;stroke-miterlimit:4;stroke-dasharray:none" />
      <path
         inkscape:connector-curvature="0"
         d="m 189.111,142.002 c -0.074,-0.2544 -0.4889,-0.5168 -0.7131,-0.4542 -0.1542,0.0431 -0.2332,0.2754 -0.2041,0.4352 0.0479,0.2636 0.5148,0.5944 0.7131,0.4541 0.1499,-0.1058 0.2575,-0.2519 0.2041,-0.4351 l 0,0 0,0 z"
         id="use3533"
         style="fill:#ffd700;stroke:#000000;stroke-width:0.11447352;stroke-linejoin:round;stroke-miterlimit:4;stroke-dasharray:none" />
      <path
         inkscape:connector-curvature="0"
         d="m 189.427,142.549 c 0.0204,-0.2699 -0.1336,-0.2524 -0.3579,-0.1899 -0.1542,0.0431 -0.2332,0.2753 -0.2041,0.4352 0.0479,0.2635 0.0101,0.4441 0.2085,0.3041 0.1498,-0.1059 0.3482,-0.4796 0.3535,-0.5494 l 0,0 0,0 0,0 z"
         id="use3535"
         style="fill:#ffd700;stroke:#000000;stroke-width:0.11447352;stroke-linejoin:round;stroke-miterlimit:4;stroke-dasharray:none" />
      <path
         inkscape:connector-curvature="0"
         d="m 188.809,142.732 c -0.0742,-0.2544 -0.4891,-0.5166 -0.7131,-0.4542 -0.1544,0.043 -0.2332,0.2754 -0.2041,0.4353 0.0478,0.2634 0.5146,0.5942 0.7132,0.454 0.1498,-0.1058 0.2573,-0.2519 0.204,-0.4351 l 0,0 0,0 z"
         id="use3537"
         style="fill:#ffd700;stroke:#000000;stroke-width:0.11447352;stroke-linejoin:round;stroke-miterlimit:4;stroke-dasharray:none" />
      <path
         inkscape:connector-curvature="0"
         d="m 188.975,143.223 c 0.1026,-0.2442 -0.0162,-0.1965 -0.2402,-0.134 -0.1543,0.0431 -0.2332,0.2754 -0.2041,0.4351 0.0478,0.2635 -0.0332,0.4 0.1061,0.1819 0.0914,-0.1431 0.2887,-0.3652 0.3382,-0.483 l 0,0 0,0 0,0 z"
         id="use3539"
         style="fill:#ffd700;stroke:#000000;stroke-width:0.11447352;stroke-linejoin:round;stroke-miterlimit:4;stroke-dasharray:none" />
      <path
         inkscape:connector-curvature="0"
         d="m 188.45,143.425 c -0.074,-0.2544 -0.4889,-0.5167 -0.7132,-0.4542 -0.1542,0.043 -0.233,0.2753 -0.2041,0.4352 0.048,0.2636 0.5149,0.5943 0.7132,0.4541 0.1499,-0.1058 0.2575,-0.2518 0.2041,-0.4351 l 0,0 0,0 z"
         id="use3541"
         style="fill:#ffd700;stroke:#000000;stroke-width:0.11447352;stroke-linejoin:round;stroke-miterlimit:4;stroke-dasharray:none" />
      <path
         inkscape:connector-curvature="0"
         d="m 188.147,144.154 c -0.074,-0.2545 -0.4891,-0.5168 -0.7132,-0.4542 -0.1543,0.0429 -0.2331,0.2753 -0.2041,0.4351 0.0479,0.2636 0.4276,0.4057 0.626,0.2654 0.1499,-0.1057 0.3446,-0.0632 0.2913,-0.2463 l 0,0 0,0 0,0 z"
         id="use3545"
         style="fill:#ffd700;stroke:#000000;stroke-width:0.11447352;stroke-linejoin:round;stroke-miterlimit:4;stroke-dasharray:none" />
      <path
         inkscape:connector-curvature="0"
         d="m 188.467,141.169 c -0.074,-0.2544 -0.4889,-0.5167 -0.7132,-0.4542 -0.1542,0.0431 -0.233,0.2755 -0.2041,0.4353 0.048,0.2636 0.5149,0.5943 0.7132,0.4542 0.1499,-0.106 0.2575,-0.252 0.2041,-0.4353 z"
         id="use3547"
         style="fill:#ffd700;stroke:#000000;stroke-width:0.11447352;stroke-linejoin:round;stroke-miterlimit:4;stroke-dasharray:none" />
      <path
         inkscape:connector-curvature="0"
         d="m 188.138,141.86 c -0.074,-0.2546 -0.4889,-0.5168 -0.7131,-0.4542 -0.1542,0.043 -0.2331,0.2753 -0.204,0.4351 0.0478,0.2636 0.5147,0.5944 0.713,0.4542 0.1499,-0.106 0.2575,-0.252 0.2041,-0.4351 z"
         id="use3551"
         style="fill:#ffd700;stroke:#000000;stroke-width:0.11447352;stroke-linejoin:round;stroke-miterlimit:4;stroke-dasharray:none" />
      <path
         inkscape:connector-curvature="0"
         d="m 187.815,142.595 c -0.0566,-0.2444 -0.4243,-0.4765 -0.6316,-0.4023 -0.1429,0.0512 -0.2249,0.283 -0.2053,0.4377 0.0323,0.2549 0.4444,0.5509 0.6317,0.4023 0.1414,-0.1125 0.2459,-0.2616 0.2052,-0.4377 z"
         id="use3555"
         style="fill:#ffd700;stroke:#000000;stroke-width:0.11447352;stroke-linejoin:round;stroke-miterlimit:4;stroke-dasharray:none" />
      <path
         inkscape:connector-curvature="0"
         d="m 187.478,143.283 c -0.074,-0.2546 -0.2647,-0.4501 -0.489,-0.3874 -0.1542,0.0429 -0.109,0.4876 -0.08,0.6472 0.048,0.2636 0.1665,0.3154 0.3649,0.1753 0.1499,-0.106 0.2574,-0.2519 0.2041,-0.4351 l 0,0 0,0 0,0 z"
         id="use3559"
         style="fill:#ffd700;stroke:#000000;stroke-width:0.11447352;stroke-linejoin:round;stroke-miterlimit:4;stroke-dasharray:none" />
      <path
         inkscape:connector-curvature="0"
         d="m 187.18,144.01 c -0.0739,-0.2545 -0.0375,-0.4575 -0.2616,-0.395 -0.1543,0.043 0.0274,0.0607 0.0564,0.2204 0.0479,0.2636 0.2737,-0.0158 0.2074,0.1703 -0.0675,0.1894 0.0513,0.1875 -0.002,0.004 l 0,0 -2e-4,3e-4 z"
         id="use3579"
         style="fill:#ffd700;stroke:#000000;stroke-width:0.11447352;stroke-linejoin:round;stroke-miterlimit:4;stroke-dasharray:none" />
    </g>
    <path
       inkscape:connector-curvature="0"
       d="m 188.021,143.207 c -0.1799,-1.9852 0.0398,-3.678 0.7196,-5.4518 0.0885,-0.2305 1.7669,-3.9398 1.5862,-3.7916 -0.2401,0.197 0.8429,-3.6069 0.8798,-3.5323 0,0 -1.3377,2.5914 -2.2295,4.5551 -0.8901,1.9595 -0.4536,0.9672 -1.234,3.3625 -0.8509,2.6116 -0.983,7.4802 -0.983,7.4802 l 1.2609,-2.6221 0,0 0,0 0,0 z"
       id="path2254"
       style="fill:#009900;stroke:#000000;stroke-width:0.11447352000000000;stroke-linejoin:round;stroke-miterlimit:4;stroke-dasharray:none" />
    <path
       inkscape:connector-curvature="0"
       d="m 195.291,133.301 c -0.7396,0.4932 -1.2987,0.31 -2.5246,2.5635 -0.574,1.0551 -0.4882,1.8591 -1.1493,2.6856 -0.3189,0.399 -2.4102,3.6483 -2.4259,3.8103 0.5071,0.3186 3.8354,-3.1221 4.0545,-4.9798 0.3865,-3.2761 1.3895,-2.8281 2.0453,-4.0796 l 0,0 0,0 0,0 z"
       id="path3229"
       style="fill:#009900;stroke:#000000;stroke-width:0.11447352000000000;stroke-linejoin:round;stroke-miterlimit:4;stroke-dasharray:none" />
    <path
       inkscape:connector-curvature="0"
       d="m 186.72,145.846 c -0.3083,-1.3322 -0.4959,-1.9821 0.2245,-5.3201 0.2745,-1.3353 0.3312,-2.9884 0.4422,-4.5623 0.3626,1.9855 0.5413,4.0883 0.1874,6.0398 -0.1491,0.8232 -0.5942,2.4205 -0.8541,3.8426 l 0,0 0,0 0,0 z"
       id="path3231"
       style="fill:#009900;stroke:#000000;stroke-width:0.11447352000000000;stroke-linejoin:round;stroke-miterlimit:4;stroke-dasharray:none" />
    <path
       inkscape:connector-curvature="0"
       d="m 194.956,135.052 c -1.7945,3.7221 -2.4657,8.0126 -8.2058,10.7771 l 1.1896,-2.4896 c 1.222,-1.7031 2.1987,-1.9022 2.983,-2.4595 1.7541,-1.2464 2.5951,-4.1197 4.0332,-5.828 z"
       id="path4202"
       style="fill:#009900;stroke:#000000;stroke-width:0.11447352000000000;stroke-linejoin:round;stroke-miterlimit:4;stroke-dasharray:none" />
  </g>
  <g
     id="g656"
     style="fill-rule:evenodd;stroke-width:0.19755556;stroke-miterlimit:4;stroke-dasharray:none"
     transform="matrix(5.9712557,0,0,5.9493582,-826.5481,-475.35877)">
    <rect
       width="0.4533"
       height="15.1742"
       x="0"
       y="0"
       transform="matrix(-0.064177,0.646623,-0.958347,0.0752751,205.443,146.288)"
       id="rect3066"
       style="fill:#ffd700;stroke:#000000;stroke-width:0.14598814;stroke-linejoin:round;stroke-miterlimit:4;stroke-dasharray:none" />
    <path
       inkscape:connector-curvature="0"
       d="m 207.892,146.102 c -1.9555,0.5668 -2.2509,1.0372 -4.1331,0.1611 1.5738,-0.7462 2.3486,-0.5575 4.1331,-0.1611 z"
       id="path2792"
       style="fill:#ffd700;stroke:#000000;stroke-width:0.11447352;stroke-linejoin:round;stroke-miterlimit:4;stroke-dasharray:none" />
    <path
       inkscape:connector-curvature="0"
       d="m 206.663,147.601 c -0.7682,-0.6121 -0.9814,-1.4988 -3.756,-0.9554 1.0822,1.1123 1.2742,0.9699 3.756,0.9554 z"
       id="path2794"
       style="fill:#ffd700;stroke:#000000;stroke-width:0.11447352;stroke-linejoin:round;stroke-miterlimit:4;stroke-dasharray:none" />
    <path
       inkscape:connector-curvature="0"
       d="m 204.296,147.775 c -0.6781,-0.8064 -0.6525,-1.5667 -3.1871,-0.9143 1.119,0.6897 0.9142,1.0098 3.1871,0.9143 z"
       id="path2796"
       style="fill:#ffd700;stroke:#000000;stroke-width:0.11447352;stroke-linejoin:round;stroke-miterlimit:4;stroke-dasharray:none" />
    <path
       inkscape:connector-curvature="0"
       d="m 202.584,147.944 c -0.7298,-0.5968 -0.9295,-1.4606 -3.5774,-0.9331 1.0273,1.0842 1.2108,0.9457 3.5774,0.9331 z"
       id="path16729"
       style="fill:#ffd700;stroke:#000000;stroke-width:0.11447352;stroke-linejoin:round;stroke-miterlimit:4;stroke-dasharray:none" />
    <path
       inkscape:connector-curvature="0"
       d="m 200.316,148.244 c -0.6638,-0.6545 -0.8477,-1.6756 -3.3404,-1.1135 0.9795,0.9281 1.1406,1.0476 3.3404,1.1135 z"
       id="path2802"
       style="fill:#ffd700;stroke:#000000;stroke-width:0.11447352;stroke-linejoin:round;stroke-miterlimit:4;stroke-dasharray:none" />
    <path
       inkscape:connector-curvature="0"
       d="m 206.686,144.867 c -0.8004,0.5031 -1.118,1.6729 -3.8614,1.7041 1.7162,-1.4341 1.4739,-1.4195 3.8614,-1.7041 z"
       id="path2804"
       style="fill:#ffd700;stroke:#000000;stroke-width:0.11447352;stroke-linejoin:round;stroke-miterlimit:4;stroke-dasharray:none" />
    <path
       inkscape:connector-curvature="0"
       d="m 204.494,145.078 c -0.7059,0.4952 -1.0103,1.653 -3.3864,1.6729 1.5222,-1.4139 1.3119,-1.4004 3.3864,-1.6729 z"
       id="path2806"
       style="fill:#ffd700;stroke:#000000;stroke-width:0.11447352;stroke-linejoin:round;stroke-miterlimit:4;stroke-dasharray:none" />
    <path
       inkscape:connector-curvature="0"
       d="m 202.664,145.338 c -0.7694,0.4878 -1.1259,1.6796 -3.6734,1.61 1.6686,-1.4117 1.4426,-1.4058 3.6734,-1.61 z"
       id="path2808"
       style="fill:#ffd700;stroke:#000000;stroke-width:0.11447352;stroke-linejoin:round;stroke-miterlimit:4;stroke-dasharray:none" />
    <path
       inkscape:connector-curvature="0"
       d="m 200.604,145.423 c -0.8052,0.7699 -1.1963,1.8362 -3.6157,1.66 1.1806,-1.0979 1.3682,-1.2448 3.6157,-1.66 z"
       id="path2802_12"
       style="fill:#ffd700;stroke:#000000;stroke-width:0.11447352;stroke-linejoin:round;stroke-miterlimit:4;stroke-dasharray:none" />
    <line
       style="fill:none;stroke:#000000;stroke-width:0.11447352;stroke-linejoin:round;stroke-miterlimit:4;stroke-dasharray:none"
       y2="144.93201"
       x2="206.58099"
       y1="144.687"
       x1="209.70399"
       class="fil1 str8"
       id="_39098960" />
    <line
       style="fill:none;stroke:#000000;stroke-width:0.11447352;stroke-linejoin:round;stroke-miterlimit:4;stroke-dasharray:none"
       y2="147.54601"
       x2="206.59399"
       y1="147.306"
       x1="209.631"
       class="fil1 str8"
       id="_39098088" />
    <line
       style="fill:none;stroke:#000000;stroke-width:0.11447352;stroke-linejoin:round;stroke-miterlimit:4;stroke-dasharray:none"
       y2="145.80499"
       x2="206.399"
       y1="145.509"
       x1="210.161"
       class="fil1 str8"
       id="_39097216" />
    <line
       style="fill:none;stroke:#000000;stroke-width:0.11447352;stroke-linejoin:round;stroke-miterlimit:4;stroke-dasharray:none"
       y2="146.714"
       x2="205.85899"
       y1="146.38"
       x1="210.11501"
       class="fil1 str8"
       id="_39096344" />
    <line
       style="fill:none;stroke:#000000;stroke-width:0.11447352;stroke-linejoin:round;stroke-miterlimit:4;stroke-dasharray:none"
       y2="147.147"
       x2="206.17999"
       y1="146.853"
       x1="209.91"
       class="fil1 str8"
       id="_39095472" />
    <line
       style="fill:none;stroke:#000000;stroke-width:0.11447352;stroke-linejoin:round;stroke-miterlimit:4;stroke-dasharray:none"
       y2="145.377"
       x2="206.095"
       y1="145.07201"
       x1="209.98599"
       class="fil1 str8"
       id="_39094600" />
    <line
       style="fill:none;stroke:#000000;stroke-width:0.11447352;stroke-linejoin:round;stroke-miterlimit:4;stroke-dasharray:none"
       y2="146.105"
       x2="207.854"
       y1="145.91499"
       x1="210.263"
       class="fil1 str8"
       id="_39093096" />
  </g>
  <ellipse
     d="m 195.78516,141.61501 c 0,1.73378 -1.76721,3.1393 -3.94716,3.1393 -2.17996,0 -3.94716,-1.40552 -3.94716,-3.1393 0,-1.73379 1.7672,-3.1393 3.94716,-3.1393 2.17995,0 3.94716,1.40551 3.94716,3.1393 z"
     cx="191.838"
     cy="141.61501"
     rx="3.94716"
     ry="3.1393001"
     id="ellipse9172"
     style="fill:#f1af97;fill-rule:evenodd;stroke:#000000;stroke-width:0.11447352;stroke-linejoin:round;stroke-miterlimit:4;stroke-dasharray:none"
     sodipodi:cx="191.838"
     sodipodi:cy="141.61501"
     sodipodi:rx="3.94716"
     sodipodi:ry="3.1393001"
     transform="matrix(5.9712557,0,0,5.9493582,-826.5481,-475.35877)" />
  <g
     id="g9192"
     style="fill-rule:evenodd;stroke-width:0.19755556;stroke-miterlimit:4;stroke-dasharray:none"
     transform="matrix(5.9712557,0,0,5.9493582,-826.5481,-475.35877)">
    <path
       inkscape:connector-curvature="0"
       d="m 180.068,142.533 c -0.0128,-0.535 -0.0671,-1.0695 -0.0718,-1.6041 -10e-4,-0.1582 0.001,-0.3299 0.0665,-0.4781 0.048,-0.107 0.1328,-0.1806 0.2097,-0.2654 0.1961,-0.2164 0.2244,-0.5111 0.2633,-0.7883 0.0448,-0.3222 0.1032,-0.6445 0.211,-0.9529 0.0366,-0.1068 0.0791,-0.2205 0.1551,-0.3063 0.0619,-0.0698 0.1407,-0.0984 0.2215,-0.1386 0.2683,-0.1378 0.2575,-0.507 0.2456,-0.7658 -0.0155,-0.324 -0.1068,-0.6507 -0.0768,-0.9757 0.0286,-0.3133 0.0948,-0.6265 0.0255,-0.9395 -0.0162,-0.0712 -0.0601,-0.2519 -0.166,-0.1866 -0.1101,0.0678 -0.1441,0.2966 -0.1708,0.4082 -0.0786,0.3323 -0.124,0.6696 -0.218,0.9993 -0.035,0.0141 -0.0575,-0.007 -0.0907,-0.005 -0.042,0.003 -0.0287,0.0263 -0.0615,0.0409 -0.1128,0.046 -0.1472,-0.1358 -0.1615,-0.2066 -0.0205,-0.1043 -0.0516,-0.1865 -0.0444,-0.295 0.007,-0.1056 0.0339,-0.2109 0.0339,-0.317 -5e-4,-0.0803 -0.0507,-0.1218 -0.0842,-0.1928 -0.0283,-0.0617 -0.0585,-0.1187 -0.0816,-0.1828 -0.0254,-0.0694 -0.0386,-0.1706 -0.0911,-0.2249 -0.0899,-0.0931 -0.2215,-0.1762 -0.3383,-0.2281 0.0614,-0.0459 0.0888,-0.098 0.0993,-0.1747 0.0124,-0.0898 0.0267,-0.2115 -0.007,-0.2974 -0.0332,-0.0847 -0.0431,-0.1689 -0.0719,-0.2538 -0.0355,-0.1029 -0.1164,-0.179 -0.1656,-0.2737 -0.0496,-0.0966 -0.1,-0.1899 -0.1524,-0.2842 -0.0469,-0.0846 -0.0595,-0.1736 -0.0912,-0.2635 -0.0544,-0.152 -0.0972,-0.3226 -0.2646,-0.3775 -0.0692,0.0967 -0.0649,0.1937 -0.0764,0.3091 -0.009,0.0969 -0.0274,0.1942 -0.0287,0.2918 -0.0632,-0.1861 -0.1294,-0.3721 -0.1824,-0.5624 -0.0378,-0.1344 -0.0781,-0.2636 -0.1381,-0.391 -0.0844,-0.1788 -0.1879,-0.3492 -0.267,-0.5311 -0.0586,-0.1347 -0.0987,-0.3268 -0.2121,-0.4286 -0.1179,-0.1059 -0.1759,0.0198 -0.1864,0.1343 -0.0265,0.2967 0.045,0.6154 0.0789,0.9098 0.039,0.3427 0.0922,0.691 0.0918,1.037 -9e-4,0.2277 -0.0619,0.4355 -0.1359,0.6492 -0.0682,-0.023 -0.0959,-0.1609 -0.1163,-0.2227 -0.0204,-0.0619 -0.0118,-0.1769 -0.0536,-0.2235 -0.0233,-0.0258 -0.143,-0.0531 -0.173,-0.0648 -0.0576,-0.0236 -0.1285,-0.0416 -0.1908,-0.0248 9e-4,0.0691 -0.0275,0.1234 -0.0708,0.1749 -0.076,0.0913 -0.135,0.1741 -0.1602,0.2947 -0.0264,0.1235 -0.0134,0.2502 -0.0368,0.374 -0.0222,0.1202 -0.01,0.1865 0.0238,0.2997 0.0157,0.0535 0.0282,0.1446 -0.007,0.1952 -0.0332,0.0487 -0.1092,0.0908 -0.1516,0.1325 -0.049,0.0488 -0.0947,0.0787 -0.1148,0.1467 -0.0245,0.0851 -0.0423,0.2185 -0.0288,0.3064 0.0206,0.1403 0.1265,0.2679 0.1802,0.3964 0.0406,0.0956 0.0857,0.1702 0.1525,0.2505 0.0469,0.0557 0.0934,0.0925 0.1475,0.1387 0.0675,0.0582 0.0937,0.0924 0.108,0.1741 0.0188,0.1078 0.0666,0.2072 0.08,0.3159 -0.004,0.0209 -0.002,0.0427 0.004,0.0631 0.0152,0.0201 0.0268,0.0417 0.0348,0.066 0.004,0.0791 -0.1557,0.1627 -0.2011,0.2155 -0.05,0.0599 -0.0794,0.1237 -0.0978,0.1985 -0.167,0.005 -0.3532,0.0107 -0.4922,-0.0974 -0.159,-0.1232 -0.2126,-0.3449 -0.2674,-0.5275 -0.0243,-0.0809 -0.0699,-0.3499 -0.1737,-0.3763 -0.1176,-0.031 -0.1152,0.2486 -0.1156,0.3076 4e-4,0.3717 0.1568,0.7112 0.2146,1.0718 0.053,0.3303 0.0969,0.6685 0.3803,0.8889 0.1234,0.0966 0.2677,0.1391 0.411,0.1954 0.1596,0.0632 0.2698,0.1611 0.3468,0.3171 0.2089,0.4227 0.1782,0.9138 0.3017,1.3611 0.0306,0.1122 0.0792,0.212 0.1967,0.2497 0.1282,0.043 0.2729,0.0326 0.4057,0.052 0.12,0.0167 0.2437,0.0465 0.3405,0.1233 0.0959,0.0753 0.1465,0.1888 0.1939,0.2978 0.1115,0.2566 0.2737,0.5125 0.3313,0.7874 0.0212,0.0997 0.0239,0.2034 0.065,0.2979 0.0502,0.114 0.1416,0.2022 0.229,0.288 0.008,-0.0345 0.0173,-0.0685 0.0278,-0.102 0.0704,-0.005 0.1564,-0.0456 0.1954,-0.1101 0.022,-0.0365 0.0108,-0.1028 0.0156,-0.1445 0.006,-0.0538 0.0247,-0.1058 0.01,-0.1601 -0.0131,-0.004 -0.0259,-0.008 -0.0391,-0.0121 m 0.0289,0.1966 0,0 0,0 z"
       id="path9194"
       style="fill:#769f00;stroke:#000000;stroke-width:0.11447352;stroke-linejoin:round;stroke-miterlimit:4;stroke-dasharray:none" />
    <g
       id="g9196"
       style="stroke-width:0.19755556;stroke-miterlimit:4;stroke-dasharray:none">
      <g
         id="g9198"
         style="stroke-width:0.19755556;stroke-miterlimit:4;stroke-dasharray:none">
        <path
           inkscape:connector-curvature="0"
           d="m 178.712,135.747 c -0.195,0.004 0.3299,2.8819 0.3416,3.0049 0.0621,0.5662 0.2713,1.1236 0.2849,1.6845"
           id="path9200"
           style="fill:none;stroke:#000000;stroke-width:0.11447352;stroke-linejoin:round;stroke-miterlimit:4;stroke-dasharray:none" />
      </g>
    </g>
    <g
       id="g9204"
       style="stroke-width:0.19755556;stroke-miterlimit:4;stroke-dasharray:none">
      <g
         id="g9206"
         style="stroke-width:0.19755556;stroke-miterlimit:4;stroke-dasharray:none">
        <path
           inkscape:connector-curvature="0"
           d="m 179.909,137.796 c -0.2333,0.3635 -0.5142,0.7237 -0.6535,1.1231"
           id="path9208"
           style="fill:none;stroke:#000000;stroke-width:0.11447352;stroke-linejoin:round;stroke-miterlimit:4;stroke-dasharray:none" />
      </g>
    </g>
    <g
       id="g9212"
       style="stroke-width:0.19755556;stroke-miterlimit:4;stroke-dasharray:none">
      <g
         id="g9214"
         style="stroke-width:0.19755556;stroke-miterlimit:4;stroke-dasharray:none">
        <path
           inkscape:connector-curvature="0"
           d="m 178.225,138.3 c 0.2094,0.0954 0.3929,0.4302 0.5461,0.5926"
           id="path9216"
           style="fill:none;stroke:#000000;stroke-width:0.11447352;stroke-linejoin:round;stroke-miterlimit:4;stroke-dasharray:none" />
      </g>
    </g>
  </g>
  <path
     inkscape:connector-curvature="0"
     d="m 215.81221,350.668 c -10.75901,5.33716 -15.90206,16.8343 -11.48333,25.67743 4.41814,8.84193 16.72609,11.68513 27.4851,6.34736 10.75901,-5.33597 15.90145,-16.83489 11.48392,-25.67683 -4.41873,-8.84193 -16.72668,-11.68454 -27.48569,-6.34796 z"
     id="path1151"
     style="fill:#b90005;fill-rule:evenodd;stroke:#000000;stroke-width:0.68229616000000004;stroke-miterlimit:4;stroke-dasharray:none" />
  <path
     inkscape:connector-curvature="0"
     d="m 218.44553,356.34369 c -2.54316,-2.26611 -8.67504,-1.74912 -14.06529,-1.89488 3.12177,-1.06909 5.45892,-2.63854 10.04066,-2.77835 -1.18589,-2.86937 -0.51651,-6.65792 -0.66519,-10.04132 1.8887,2.5957 4.1757,4.9933 4.97345,8.13039 2.951,-3.55355 7.54648,-5.18725 11.32629,-7.77284 -4.31066,4.87431 -8.63385,8.81457 -11.60992,14.357 l 0,0 0,0 z"
     id="path21187"
     style="fill:#009900;fill-rule:evenodd;stroke:#000000;stroke-width:0.68229616000000004;stroke-linejoin:round;stroke-miterlimit:4;stroke-dasharray:none" />
  <g
     id="g675"
     style="fill-rule:evenodd;stroke-width:0.19755556;stroke-miterlimit:4;stroke-dasharray:none"
     transform="matrix(5.9712557,0,0,5.9493582,-826.5481,-475.35877)">
    <rect
       width="0.4533"
       height="15.1742"
       x="0"
       y="0"
       transform="matrix(0.103137,0.575996,-0.89807,0.326371,205.21,142.68)"
       id="rect3066_13"
       style="fill:#ffd700;stroke:#000000;stroke-width:0.15422353;stroke-linejoin:round;stroke-miterlimit:4;stroke-dasharray:none" />
    <path
       inkscape:connector-curvature="0"
       d="m 207.506,141.852 c -1.7276,1.0228 -1.8903,1.5096 -3.9147,1.2663 1.3163,-1.0739 2.1059,-1.1221 3.9147,-1.2663 z"
       id="path2792_14"
       style="fill:#ffd700;stroke:#000000;stroke-width:0.11447352;stroke-linejoin:round;stroke-miterlimit:4;stroke-dasharray:none" />
    <path
       inkscape:connector-curvature="0"
       d="m 206.711,143.482 c -0.891,-0.3192 -1.3206,-1.0269 -3.8377,0.199 1.3188,0.6656 1.4662,0.4904 3.8377,-0.199 z"
       id="path2794_15"
       style="fill:#ffd700;stroke:#000000;stroke-width:0.11447352;stroke-linejoin:round;stroke-miterlimit:4;stroke-dasharray:none" />
    <path
       inkscape:connector-curvature="0"
       d="m 204.49,144.276 c -0.8543,-0.5114 -1.0233,-1.1751 -3.2831,0.0796 1.2465,0.2906 1.1319,0.6228 3.2831,-0.0796 z"
       id="path2796_16"
       style="fill:#ffd700;stroke:#000000;stroke-width:0.11447352;stroke-linejoin:round;stroke-miterlimit:4;stroke-dasharray:none" />
    <path
       inkscape:connector-curvature="0"
       d="m 202.895,144.891 c -0.8505,-0.3164 -1.2614,-1.008 -3.6615,0.1697 1.2592,0.6562 1.3997,0.4866 3.6615,-0.1697 z"
       id="path2798_17"
       style="fill:#ffd700;stroke:#000000;stroke-width:0.11447352;stroke-linejoin:round;stroke-miterlimit:4;stroke-dasharray:none" />
    <path
       inkscape:connector-curvature="0"
       d="m 200.801,145.768 c -0.8019,-0.3844 -1.2376,-1.2161 -3.4804,-0.0508 1.1735,0.5344 1.3583,0.5937 3.4804,0.0508 z"
       id="path2802_18"
       style="fill:#ffd700;stroke:#000000;stroke-width:0.11447352;stroke-linejoin:round;stroke-miterlimit:4;stroke-dasharray:none" />
    <path
       inkscape:connector-curvature="0"
       d="m 206.037,141.114 c -0.638,0.6528 -0.6443,1.7499 -3.2621,2.525 1.2777,-1.7067 1.0494,-1.628 3.2621,-2.525 z"
       id="path2804_19"
       style="fill:#ffd700;stroke:#000000;stroke-width:0.11447352;stroke-linejoin:round;stroke-miterlimit:4;stroke-dasharray:none" />
    <path
       inkscape:connector-curvature="0"
       d="m 203.994,141.895 c -0.5494,0.6202 -0.5462,1.7032 -2.8152,2.3685 1.097,-1.6364 0.8992,-1.5675 2.8152,-2.3685 z"
       id="path2806_20"
       style="fill:#ffd700;stroke:#000000;stroke-width:0.11447352;stroke-linejoin:round;stroke-miterlimit:4;stroke-dasharray:none" />
    <path
       inkscape:connector-curvature="0"
       d="m 202.308,142.618 c -0.6123,0.6311 -0.6503,1.7578 -3.1061,2.3923 1.2376,-1.6742 1.0231,-1.6075 3.1061,-2.3923 z"
       id="path2808_21"
       style="fill:#ffd700;stroke:#000000;stroke-width:0.11447352;stroke-linejoin:round;stroke-miterlimit:4;stroke-dasharray:none" />
    <path
       inkscape:connector-curvature="0"
       d="m 200.358,143.253 c -0.5747,0.8846 -0.6775,1.9122 -3.038,2.4197 0.8504,-1.27 0.9927,-1.4481 3.038,-2.4197 z"
       id="path2802_22"
       style="fill:#ffd700;stroke:#000000;stroke-width:0.11447352;stroke-linejoin:round;stroke-miterlimit:4;stroke-dasharray:none" />
    <line
       style="fill:none;stroke:#000000;stroke-width:0.11447352;stroke-linejoin:round;stroke-miterlimit:4;stroke-dasharray:none"
       y2="141.2"
       x2="205.953"
       y1="140.136"
       x1="208.88"
       class="fil1 str8"
       id="_39080912" />
    <line
       style="fill:none;stroke:#000000;stroke-width:0.11447352;stroke-linejoin:round;stroke-miterlimit:4;stroke-dasharray:none"
       y2="143.453"
       x2="206.633"
       y1="142.418"
       x1="209.47701"
       class="fil1 str8"
       id="_39080040" />
    <line
       style="fill:none;stroke:#000000;stroke-width:0.11447352;stroke-linejoin:round;stroke-miterlimit:4;stroke-dasharray:none"
       y2="142.002"
       x2="206.00301"
       y1="140.72"
       x1="209.528"
       class="fil1 str8"
       id="_39079032" />
    <line
       style="fill:none;stroke:#000000;stroke-width:0.11447352;stroke-linejoin:round;stroke-miterlimit:4;stroke-dasharray:none"
       y2="142.935"
       x2="205.715"
       y1="141.48599"
       x1="209.705"
       class="fil1 str8"
       id="_39078160" />
    <line
       style="fill:none;stroke:#000000;stroke-width:0.11447352;stroke-linejoin:round;stroke-miterlimit:4;stroke-dasharray:none"
       y2="143.22099"
       x2="206.132"
       y1="141.951"
       x1="209.63"
       class="fil1 str8"
       id="_39077288" />
    <line
       style="fill:none;stroke:#000000;stroke-width:0.11447352;stroke-linejoin:round;stroke-miterlimit:4;stroke-dasharray:none"
       y2="141.717"
       x2="205.601"
       y1="140.39101"
       x1="209.248"
       class="fil1 str8"
       id="_39076416" />
    <line
       style="fill:none;stroke:#000000;stroke-width:0.11447352;stroke-linejoin:round;stroke-miterlimit:4;stroke-dasharray:none"
       y2="141.86501"
       x2="207.47099"
       y1="141.04401"
       x1="209.728"
       class="fil1 str8"
       id="_39075032" />
  </g>
  <ellipse
     d="M 2.4175,0 C 2.4175,1.9926986 1.3351484,3.6080999 0,3.6080999 -1.3351484,3.6080999 -2.4175,1.9926986 -2.4175,0 c 0,-1.9926986 1.0823516,-3.6080999 2.4175,-3.6080999 1.3351484,0 2.4175,1.6154013 2.4175,3.6080999 z"
     cx="0"
     cy="0"
     rx="2.4175"
     ry="3.6080999"
     transform="matrix(2.7881942,-6.5851066,6.6093441,2.7779695,350.84624,393.37844)"
     id="ellipse10640"
     style="fill:#009900;fill-rule:evenodd;stroke:#000000;stroke-width:0.09528982000000000;stroke-linejoin:round;stroke-miterlimit:4;stroke-dasharray:none"
     sodipodi:cx="0"
     sodipodi:cy="0"
     sodipodi:rx="2.4175"
     sodipodi:ry="3.6080999" />
  <ellipse
     d="M 2.4175,0 C 2.4175,1.9926986 1.3351484,3.6080999 0,3.6080999 -1.3351484,3.6080999 -2.4175,1.9926986 -2.4175,0 c 0,-1.9926986 1.0823516,-3.6080999 2.4175,-3.6080999 1.3351484,0 2.4175,1.6154013 2.4175,3.6080999 z"
     cx="0"
     cy="0"
     rx="2.4175"
     ry="3.6080999"
     transform="matrix(2.7881942,-6.5851066,6.6093441,2.7779695,324.77568,397.76907)"
     id="ellipse10642"
     style="fill:#8e5214;fill-rule:evenodd;stroke:#000000;stroke-width:0.09528982;stroke-linejoin:round;stroke-miterlimit:4;stroke-dasharray:none"
     sodipodi:cx="0"
     sodipodi:cy="0"
     sodipodi:rx="2.4175"
     sodipodi:ry="3.6080999" />
  <path
     inkscape:connector-curvature="0"
     d="m 271.7987,390.74287 0,0 z m 0.66043,-71.10911 c -15.71397,-0.11601 -28.60531,15.71226 -28.78743,35.34455 -0.18212,19.63288 12.41304,35.64915 28.127,35.76456 15.71456,0.11661 28.6059,-15.71106 28.78802,-35.34454 0.18213,-19.63229 -12.41364,-35.64795 -28.12759,-35.76457 z"
     id="path1174"
     style="fill:#ff9900;fill-rule:evenodd;stroke:#000000;stroke-width:0.68229616000000004;stroke-miterlimit:4;stroke-dasharray:none" />
  <path
     inkscape:connector-curvature="0"
     d="m 263.91067,321.11159 -16.19584,-20.12014 18.42312,13.86557 -6.14084,-28.77645 12.01895,21.35463 12.96538,-20.05469 -8.80223,28.078 18.52583,-14.32368 -14.3334,19.91131 c -5.48699,-0.53068 -10.97398,-0.74367 -16.46097,0.0654 z"
     id="path21221"
     style="fill:#009900;fill-rule:evenodd;stroke:#000000;stroke-width:0.68229616000000004;stroke-linejoin:round;stroke-miterlimit:4;stroke-dasharray:none" />
  <path
     inkscape:connector-curvature="0"
     d="m 315.53218,400.80919 c -29.08241,33.62755 -73.91817,-2.32561 -63.84586,-27.85549 20.64084,-21.44982 68.60256,-9.78967 63.84586,27.85549 l 0,0 0,0 z"
     id="path7372"
     style="fill:#009900;fill-rule:evenodd;stroke:#000000;stroke-width:0.68229616000000004;stroke-linejoin:round;stroke-miterlimit:4;stroke-dasharray:none" />
  <ellipse
     d="M 3.2860999,0 C 3.2860999,1.4432858 1.8148629,2.6133001 0,2.6133001 -1.8148629,2.6133001 -3.2860999,1.4432858 -3.2860999,0 c 0,-1.4432858 1.471237,-2.6133001 3.2860999,-2.6133001 1.8148629,0 3.2860999,1.1700143 3.2860999,2.6133001 z"
     cx="0"
     cy="0"
     rx="3.2860999"
     ry="2.6133001"
     transform="matrix(3.4690129,-6.2555121,6.2785365,3.4562916,238.10888,388.38693)"
     id="ellipse9176"
     style="fill:#ffd700;fill-rule:evenodd;stroke:#000000;stroke-width:0.09529297000000001;stroke-linejoin:round;stroke-miterlimit:4;stroke-dasharray:none"
     sodipodi:cx="0"
     sodipodi:cy="0"
     sodipodi:rx="3.2860999"
     sodipodi:ry="2.6133001" />
  <ellipse
     d="M 0.60219997,0 C 0.60219997,1.640838 0.33258586,2.971 0,2.971 -0.33258586,2.971 -0.60219997,1.640838 -0.60219997,0 c 0,-1.640838 0.26961411,-2.971 0.60219997,-2.971 0.33258586,0 0.60219997,1.330162 0.60219997,2.971 z"
     cx="0"
     cy="0"
     rx="0.60219997"
     ry="2.971"
     transform="matrix(-1.189307,-7.0482047,7.0741466,-1.1849455,242.90976,410.09613)"
     id="ellipse9184"
     style="fill:#8ebf00;fill-rule:evenodd;stroke:#000000;stroke-width:0.09528933;stroke-linejoin:round;stroke-miterlimit:4;stroke-dasharray:none"
     sodipodi:cx="0"
     sodipodi:cy="0"
     sodipodi:rx="0.60219997"
     sodipodi:ry="2.971" />
  <g
     id="g10646"
     style="fill-rule:evenodd;stroke-width:0.19755556;stroke-miterlimit:4;stroke-dasharray:none"
     transform="matrix(5.9712557,0,0,5.9493582,-826.5481,-475.35877)">
    <ellipse
       d="m 173.4481,142.189 c 0,0.55033 -0.49164,0.99647 -1.09809,0.99647 -0.60646,0 -1.09809,-0.44614 -1.09809,-0.99647 0,-0.55034 0.49163,-0.99648 1.09809,-0.99648 0.60645,0 1.09809,0.44614 1.09809,0.99648 z"
       cx="172.35001"
       cy="142.189"
       rx="1.0980901"
       ry="0.99647301"
       id="ellipse10648"
       style="fill:#800080;stroke:#000000;stroke-width:0.11447352000000000;stroke-linejoin:round;stroke-miterlimit:4;stroke-dasharray:none"
       sodipodi:cx="172.35001"
       sodipodi:cy="142.189"
       sodipodi:rx="1.0980901"
       sodipodi:ry="0.99647301" />
    <ellipse
       d="m 171.6831,143.222 c 0,0.55034 -0.49163,0.99647 -1.09809,0.99647 -0.60646,0 -1.09809,-0.44613 -1.09809,-0.99647 0,-0.55034 0.49163,-0.99647 1.09809,-0.99647 0.60646,0 1.09809,0.44613 1.09809,0.99647 z"
       cx="170.58501"
       cy="143.222"
       rx="1.0980901"
       ry="0.99647301"
       id="ellipse10650"
       style="fill:#800080;stroke:#000000;stroke-width:0.11447352000000000;stroke-linejoin:round;stroke-miterlimit:4;stroke-dasharray:none"
       sodipodi:cx="170.58501"
       sodipodi:cy="143.222"
       sodipodi:rx="1.0980901"
       sodipodi:ry="0.99647301" />
    <ellipse
       d="m 170.16209,144.377 c 0,0.55034 -0.49164,0.99647 -1.09809,0.99647 -0.60646,0 -1.09809,-0.44613 -1.09809,-0.99647 0,-0.55034 0.49163,-0.99647 1.09809,-0.99647 0.60645,0 1.09809,0.44613 1.09809,0.99647 z"
       cx="169.064"
       cy="144.377"
       rx="1.0980901"
       ry="0.99647301"
       id="ellipse10652"
       style="fill:#800080;stroke:#000000;stroke-width:0.11447352000000000;stroke-linejoin:round;stroke-miterlimit:4;stroke-dasharray:none"
       sodipodi:cx="169.064"
       sodipodi:cy="144.377"
       sodipodi:rx="1.0980901"
       sodipodi:ry="0.99647301" />
    <ellipse
       d="m 168.6721,145.65199 c 0,0.55034 -0.49164,0.99648 -1.09809,0.99648 -0.60646,0 -1.09809,-0.44614 -1.09809,-0.99648 0,-0.55033 0.49163,-0.99647 1.09809,-0.99647 0.60645,0 1.09809,0.44614 1.09809,0.99647 z"
       cx="167.57401"
       cy="145.65199"
       rx="1.0980901"
       ry="0.99647301"
       id="ellipse10654"
       style="fill:#800080;stroke:#000000;stroke-width:0.11447352000000000;stroke-linejoin:round;stroke-miterlimit:4;stroke-dasharray:none"
       sodipodi:cx="167.57401"
       sodipodi:cy="145.65199"
       sodipodi:rx="1.0980901"
       sodipodi:ry="0.99647301" />
    <ellipse
       d="m 167.36909,146.718 c 0,0.55034 -0.49164,0.99648 -1.09809,0.99648 -0.60646,0 -1.09809,-0.44614 -1.09809,-0.99648 0,-0.55033 0.49163,-0.99647 1.09809,-0.99647 0.60645,0 1.09809,0.44614 1.09809,0.99647 z"
       cx="166.271"
       cy="146.718"
       rx="1.0980901"
       ry="0.99647301"
       id="ellipse10656"
       style="fill:#800080;stroke:#000000;stroke-width:0.11447352000000000;stroke-linejoin:round;stroke-miterlimit:4;stroke-dasharray:none"
       sodipodi:cx="166.271"
       sodipodi:cy="146.718"
       sodipodi:rx="1.0980901"
       sodipodi:ry="0.99647301" />
    <ellipse
       d="m 169.1571,147.56599 c 0,0.55034 -0.49164,0.99648 -1.09809,0.99648 -0.60646,0 -1.09809,-0.44614 -1.09809,-0.99648 0,-0.55033 0.49163,-0.99647 1.09809,-0.99647 0.60645,0 1.09809,0.44614 1.09809,0.99647 z"
       cx="168.05901"
       cy="147.56599"
       rx="1.0980901"
       ry="0.99647301"
       id="ellipse10658"
       style="fill:#800080;stroke:#000000;stroke-width:0.11447352000000000;stroke-linejoin:round;stroke-miterlimit:4;stroke-dasharray:none"
       sodipodi:cx="168.05901"
       sodipodi:cy="147.56599"
       sodipodi:rx="1.0980901"
       sodipodi:ry="0.99647301" />
    <ellipse
       d="m 170.0151,146.061 c 0,0.55034 -0.49163,0.99648 -1.09809,0.99648 -0.60646,0 -1.09809,-0.44614 -1.09809,-0.99648 0,-0.55033 0.49163,-0.99647 1.09809,-0.99647 0.60646,0 1.09809,0.44614 1.09809,0.99647 z"
       cx="168.91701"
       cy="146.061"
       rx="1.0980901"
       ry="0.99647301"
       id="ellipse10660"
       style="fill:#800080;stroke:#000000;stroke-width:0.11447352000000000;stroke-linejoin:round;stroke-miterlimit:4;stroke-dasharray:none"
       sodipodi:cx="168.91701"
       sodipodi:cy="146.061"
       sodipodi:rx="1.0980901"
       sodipodi:ry="0.99647301" />
    <ellipse
       d="m 173.41709,143.92101 c 0,0.55033 -0.49163,0.99647 -1.09809,0.99647 -0.60646,0 -1.09809,-0.44614 -1.09809,-0.99647 0,-0.55034 0.49163,-0.99648 1.09809,-0.99648 0.60646,0 1.09809,0.44614 1.09809,0.99648 z"
       cx="172.319"
       cy="143.92101"
       rx="1.0980901"
       ry="0.99647301"
       id="ellipse10664"
       style="fill:#800080;stroke:#000000;stroke-width:0.11447352000000000;stroke-linejoin:round;stroke-miterlimit:4;stroke-dasharray:none"
       sodipodi:cx="172.319"
       sodipodi:cy="143.92101"
       sodipodi:rx="1.0980901"
       sodipodi:ry="0.99647301" />
    <ellipse
       d="m 175.0301,144.95399 c 0,0.55034 -0.49163,0.99648 -1.09809,0.99648 -0.60646,0 -1.09809,-0.44614 -1.09809,-0.99648 0,-0.55033 0.49163,-0.99647 1.09809,-0.99647 0.60646,0 1.09809,0.44614 1.09809,0.99647 z"
       cx="173.93201"
       cy="144.95399"
       rx="1.0980901"
       ry="0.99647301"
       id="ellipse10666"
       style="fill:#800080;stroke:#000000;stroke-width:0.11447352000000000;stroke-linejoin:round;stroke-miterlimit:4;stroke-dasharray:none"
       sodipodi:cx="173.93201"
       sodipodi:cy="144.95399"
       sodipodi:rx="1.0980901"
       sodipodi:ry="0.99647301" />
    <ellipse
       d="m 173.4481,145.713 c 0,0.5506 -0.49164,0.99696 -1.09809,0.99696 -0.60646,0 -1.09809,-0.44636 -1.09809,-0.99696 0,-0.55061 0.49163,-0.99696 1.09809,-0.99696 0.60645,0 1.09809,0.44635 1.09809,0.99696 z"
       cx="172.35001"
       cy="145.713"
       rx="1.0980901"
       ry="0.99695897"
       id="ellipse10668"
       style="fill:#800080;stroke:#000000;stroke-width:0.11447352000000000;stroke-linejoin:round;stroke-miterlimit:4;stroke-dasharray:none"
       sodipodi:cx="172.35001"
       sodipodi:cy="145.713"
       sodipodi:rx="1.0980901"
       sodipodi:ry="0.99695897" />
    <ellipse
       d="m 171.92708,146.746 c 0,0.55034 -0.49163,0.99648 -1.09809,0.99648 -0.60645,0 -1.09809,-0.44614 -1.09809,-0.99648 0,-0.55033 0.49164,-0.99647 1.09809,-0.99647 0.60646,0 1.09809,0.44614 1.09809,0.99647 z"
       cx="170.82899"
       cy="146.746"
       rx="1.0980901"
       ry="0.99647301"
       id="ellipse10670"
       style="fill:#800080;stroke:#000000;stroke-width:0.11447352000000000;stroke-linejoin:round;stroke-miterlimit:4;stroke-dasharray:none"
       sodipodi:cx="170.82899"
       sodipodi:cy="146.746"
       sodipodi:rx="1.0980901"
       sodipodi:ry="0.99647301" />
    <ellipse
       d="m 170.98259,147.77901 c 0,0.55033 -0.49141,0.99647 -1.0976,0.99647 -0.60618,0 -1.0976,-0.44614 -1.0976,-0.99647 0,-0.55034 0.49142,-0.99648 1.0976,-0.99648 0.60619,0 1.0976,0.44614 1.0976,0.99648 z"
       cx="169.88499"
       cy="147.77901"
       rx="1.0976"
       ry="0.99647301"
       id="ellipse10672"
       style="fill:#800080;stroke:#000000;stroke-width:0.11447352000000000;stroke-linejoin:round;stroke-miterlimit:4;stroke-dasharray:none"
       sodipodi:cx="169.88499"
       sodipodi:cy="147.77901"
       sodipodi:rx="1.0976"
       sodipodi:ry="0.99647301" />
    <ellipse
       d="m 173.05208,147.84 c 0,0.55033 -0.49163,0.99647 -1.09809,0.99647 -0.60645,0 -1.09809,-0.44614 -1.09809,-0.99647 0,-0.55034 0.49164,-0.99648 1.09809,-0.99648 0.60646,0 1.09809,0.44614 1.09809,0.99648 z"
       cx="171.95399"
       cy="147.84"
       rx="1.0980901"
       ry="0.99647301"
       id="ellipse10674"
       style="fill:#800080;stroke:#000000;stroke-width:0.11447352000000000;stroke-linejoin:round;stroke-miterlimit:4;stroke-dasharray:none"
       sodipodi:cx="171.95399"
       sodipodi:cy="147.84"
       sodipodi:rx="1.0980901"
       sodipodi:ry="0.99647301" />
    <ellipse
       d="m 173.59109,146.811 c 0,0.55016 -0.49164,0.99615 -1.09809,0.99615 -0.60646,0 -1.09809,-0.44599 -1.09809,-0.99615 0,-0.55015 0.49163,-0.99615 1.09809,-0.99615 0.60645,0 1.09809,0.446 1.09809,0.99615 z"
       cx="172.493"
       cy="146.811"
       rx="1.0980901"
       ry="0.99615002"
       id="ellipse10676"
       style="fill:#800080;stroke:#000000;stroke-width:0.11447352000000000;stroke-linejoin:round;stroke-miterlimit:4;stroke-dasharray:none"
       sodipodi:cx="172.493"
       sodipodi:cy="146.811"
       sodipodi:rx="1.0980901"
       sodipodi:ry="0.99615002" />
    <ellipse
       d="m 175.27808,146.222 c 0,0.55034 -0.49163,0.99647 -1.09809,0.99647 -0.60646,0 -1.09809,-0.44613 -1.09809,-0.99647 0,-0.55034 0.49163,-0.99647 1.09809,-0.99647 0.60646,0 1.09809,0.44613 1.09809,0.99647 z"
       cx="174.17999"
       cy="146.222"
       rx="1.0980901"
       ry="0.99647301"
       id="ellipse10678"
       style="fill:#800080;stroke:#000000;stroke-width:0.11447352000000000;stroke-linejoin:round;stroke-miterlimit:4;stroke-dasharray:none"
       sodipodi:cx="174.17999"
       sodipodi:cy="146.222"
       sodipodi:rx="1.0980901"
       sodipodi:ry="0.99647301" />
    <ellipse
       d="m 175.94408,147.536 c 0,0.55033 -0.49163,0.99647 -1.09809,0.99647 -0.60646,0 -1.09809,-0.44614 -1.09809,-0.99647 0,-0.55034 0.49163,-0.99648 1.09809,-0.99648 0.60646,0 1.09809,0.44614 1.09809,0.99648 z"
       cx="174.84599"
       cy="147.536"
       rx="1.0980901"
       ry="0.99647301"
       id="ellipse10680"
       style="fill:#800080;stroke:#000000;stroke-width:0.11447352000000000;stroke-linejoin:round;stroke-miterlimit:4;stroke-dasharray:none"
       sodipodi:cx="174.84599"
       sodipodi:cy="147.536"
       sodipodi:rx="1.0980901"
       sodipodi:ry="0.99647301" />
    <ellipse
       d="m 174.99959,148.11301 c 0,0.55033 -0.49141,0.99647 -1.0976,0.99647 -0.60618,0 -1.0976,-0.44614 -1.0976,-0.99647 0,-0.55034 0.49142,-0.99648 1.0976,-0.99648 0.60619,0 1.0976,0.44614 1.0976,0.99648 z"
       cx="173.90199"
       cy="148.11301"
       rx="1.0976"
       ry="0.99647301"
       id="ellipse10682"
       style="fill:#800080;stroke:#000000;stroke-width:0.11447352000000000;stroke-linejoin:round;stroke-miterlimit:4;stroke-dasharray:none"
       sodipodi:cx="173.90199"
       sodipodi:cy="148.11301"
       sodipodi:rx="1.0976"
       sodipodi:ry="0.99647301" />
    <ellipse
       d="m 171.1271,144.946 c 0,0.55034 -0.49163,0.99647 -1.09809,0.99647 -0.60646,0 -1.09809,-0.44613 -1.09809,-0.99647 0,-0.55034 0.49163,-0.99647 1.09809,-0.99647 0.60646,0 1.09809,0.44613 1.09809,0.99647 z"
       cx="170.02901"
       cy="144.946"
       rx="1.0980901"
       ry="0.99647301"
       id="ellipse10684"
       style="fill:#800080;stroke:#000000;stroke-width:0.11447352000000000;stroke-linejoin:round;stroke-miterlimit:4;stroke-dasharray:none"
       sodipodi:cx="170.02901"
       sodipodi:cy="144.946"
       sodipodi:rx="1.0980901"
       sodipodi:ry="0.99647301" />
    <ellipse
       d="m 172.36909,145.09 c 0,0.55033 -0.49164,0.99647 -1.09809,0.99647 -0.60646,0 -1.09809,-0.44614 -1.09809,-0.99647 0,-0.55034 0.49163,-0.99648 1.09809,-0.99648 0.60645,0 1.09809,0.44614 1.09809,0.99648 z"
       cx="171.271"
       cy="145.09"
       rx="1.0980901"
       ry="0.99647301"
       id="ellipse10688"
       style="fill:#800080;stroke:#000000;stroke-width:0.11447352000000000;stroke-linejoin:round;stroke-miterlimit:4;stroke-dasharray:none"
       sodipodi:cx="171.271"
       sodipodi:cy="145.09"
       sodipodi:rx="1.0980901"
       sodipodi:ry="0.99647301" />
  </g>
  <ellipse
     d="M 0.60219997,0 C 0.60219997,1.640838 0.33258586,2.971 0,2.971 -0.33258586,2.971 -0.60219997,1.640838 -0.60219997,0 c 0,-1.640838 0.26961411,-2.971 0.60219997,-2.971 0.33258586,0 0.60219997,1.330162 0.60219997,2.971 z"
     cx="0"
     cy="0"
     rx="0.60219997"
     ry="2.971"
     transform="matrix(-1.189307,-7.0482047,7.0741466,-1.1849455,241.96631,402.61185)"
     id="ellipse11774"
     style="fill:#8ebf00;fill-rule:evenodd;stroke:#000000;stroke-width:0.09528933;stroke-linejoin:round;stroke-miterlimit:4;stroke-dasharray:none"
     sodipodi:cx="0"
     sodipodi:cy="0"
     sodipodi:rx="0.60219997"
     sodipodi:ry="2.971" />
  <path
     inkscape:connector-curvature="0"
     d="m 255.16278,405.18792 c 2.70618,3.98607 8.24153,5.07361 12.3605,2.42793 4.12136,-2.64806 5.26545,-8.02568 2.55868,-12.01235 -2.70796,-3.98845 -8.24272,-5.07719 -12.36288,-2.42913 -4.11898,2.64569 -5.26426,8.0251 -2.5563,12.01355 l 0,0 0,0 z"
     id="_54707400"
     style="fill:#b90005;fill-rule:evenodd;stroke:#000000;stroke-width:0.68229616000000004;stroke-linejoin:round;stroke-miterlimit:4;stroke-dasharray:none" />
  <path
     inkscape:connector-curvature="0"
     d="m 283.47848,403.9445 c 2.70617,3.98548 8.24331,5.0748 12.36169,2.42913 4.12136,-2.64806 5.26366,-8.02807 2.55809,-12.01295 -2.70797,-3.98845 -8.24273,-5.07837 -12.36349,-2.43031 -4.11897,2.64567 -5.26306,8.02687 -2.55629,12.01413 l 0,0 0,0 z"
     id="path7073"
     style="fill:#b90005;fill-rule:evenodd;stroke:#000000;stroke-width:0.68229616000000004;stroke-linejoin:round;stroke-miterlimit:4;stroke-dasharray:none" />
  <path
     inkscape:connector-curvature="0"
     d="m 309.93711,405.58058 c 2.70617,3.98546 8.24451,5.0742 12.36169,2.42911 4.12136,-2.64746 5.26426,-8.02746 2.55809,-12.01294 -2.70737,-3.98725 -8.24212,-5.07718 -12.36408,-2.43031 -4.11718,2.64508 -5.26247,8.02688 -2.5557,12.01414 l 0,0 0,0 z"
     id="path7075"
     style="fill:#b90005;fill-rule:evenodd;stroke:#000000;stroke-width:0.68229616000000004;stroke-linejoin:round;stroke-miterlimit:4;stroke-dasharray:none" />
  <path
     inkscape:connector-curvature="0"
     d="m 270.31783,406.18146 c 2.70677,3.98607 8.24332,5.07302 12.3605,2.42793 4.12196,-2.64865 5.26605,-8.02747 2.55988,-12.01294 -2.70797,-3.98845 -8.24213,-5.07719 -12.36408,-2.42854 -4.11779,2.64509 -5.26367,8.0251 -2.5563,12.01355 l 0,0 0,0 z"
     id="path7077"
     style="fill:#b90005;fill-rule:evenodd;stroke:#000000;stroke-width:0.68229616000000004;stroke-linejoin:round;stroke-miterlimit:4;stroke-dasharray:none" />
  <path
     inkscape:connector-curvature="0"
     d="m 294.93134,406.01487 c 2.70677,3.98607 8.24332,5.07481 12.3611,2.42854 4.12136,-2.64687 5.26485,-8.02747 2.55868,-12.01295 -2.70737,-3.98726 -8.24272,-5.07718 -12.36408,-2.42912 -4.11777,2.64567 -5.26187,8.02627 -2.5557,12.01353 l 0,0 0,0 z"
     id="path7079"
     style="fill:#b90005;fill-rule:evenodd;stroke:#000000;stroke-width:0.68229616000000004;stroke-linejoin:round;stroke-miterlimit:4;stroke-dasharray:none" />
  <path
     inkscape:connector-curvature="0"
     d="m 250.87542,415.89081 c 2.70618,3.98607 8.24212,5.0754 12.3611,2.42853 4.12076,-2.64687 5.26366,-8.02687 2.55809,-12.01294 -2.70737,-3.98726 -8.24213,-5.07659 -12.36409,-2.42913 -4.11837,2.64568 -5.26246,8.02568 -2.5551,12.01354 l 0,0 0,0 z"
     id="path7081"
     style="fill:#b90005;fill-rule:evenodd;stroke:#000000;stroke-width:0.68229616000000004;stroke-linejoin:round;stroke-miterlimit:4;stroke-dasharray:none" />
  <path
     inkscape:connector-curvature="0"
     d="m 276.94593,416.80702 c 2.70617,3.98546 8.24152,5.0736 12.3593,2.42852 4.12195,-2.64865 5.26605,-8.02687 2.55988,-12.01354 -2.70797,-3.98845 -8.24273,-5.07599 -12.36409,-2.42853 -4.11777,2.64628 -5.26306,8.02449 -2.55509,12.01355 l 0,0 0,0 z"
     id="path7083"
     style="fill:#b90005;fill-rule:evenodd;stroke:#000000;stroke-width:0.68229616000000004;stroke-linejoin:round;stroke-miterlimit:4;stroke-dasharray:none" />
  <path
     inkscape:connector-curvature="0"
     d="m 316.97722,413.55866 c 2.70618,3.98548 8.24272,5.0748 12.3605,2.42853 4.12196,-2.64746 5.26426,-8.02746 2.55809,-12.01294 -2.70617,-3.98726 -8.24213,-5.07718 -12.36289,-2.42972 -4.11837,2.64627 -5.26307,8.02687 -2.5557,12.01413 l 0,0 0,0 z"
     id="path7085"
     style="fill:#b90005;fill-rule:evenodd;stroke:#000000;stroke-width:0.68229616000000004;stroke-linejoin:round;stroke-miterlimit:4;stroke-dasharray:none" />
  <path
     inkscape:connector-curvature="0"
     d="m 304.98694,415.5993 c 2.70617,3.98666 8.24153,5.0748 12.3605,2.42852 4.12076,-2.64746 5.26425,-8.02628 2.55869,-12.01235 -2.70798,-3.98845 -8.24273,-5.07718 -12.36349,-2.42912 -4.11838,2.64568 -5.26367,8.02509 -2.5557,12.01295 z"
     id="path7087"
     style="fill:#b90005;fill-rule:evenodd;stroke:#000000;stroke-width:0.68229616000000004;stroke-linejoin:round;stroke-miterlimit:4;stroke-dasharray:none" />
  <path
     inkscape:connector-curvature="0"
     d="m 284.86381,419.06777 c 2.70677,3.98607 8.24212,5.07361 12.3611,2.42793 4.12075,-2.64746 5.26485,-8.02628 2.55868,-12.01234 -2.70797,-3.98846 -8.24213,-5.07719 -12.36289,-2.42913 -4.11897,2.64568 -5.26426,8.02509 -2.55689,12.01354 l 0,0 0,0 z"
     id="path7089"
     style="fill:#b90005;fill-rule:evenodd;stroke:#000000;stroke-width:0.68229616000000004;stroke-linejoin:round;stroke-miterlimit:4;stroke-dasharray:none" />
  <path
     inkscape:connector-curvature="0"
     d="m 258.76345,418.24081 c 2.70677,3.98607 8.24332,5.07301 12.3611,2.42793 4.12135,-2.64746 5.26545,-8.02747 2.55928,-12.01294 -2.70797,-3.98905 -8.24273,-5.076 -12.36469,-2.42853 -4.11658,2.64508 -5.26366,8.02508 -2.55569,12.01354 l 0,0 0,0 z"
     id="path7091"
     style="fill:#b90005;fill-rule:evenodd;stroke:#000000;stroke-width:0.68229616000000004;stroke-linejoin:round;stroke-miterlimit:4;stroke-dasharray:none" />
  <use
     style="fill:url(#rg-1-1);stroke:#000000;stroke-width:3"
     id="shine"
     xlink:href="#shield"
     x="0"
     y="0"
     width="1"
     height="1" />
</svg>
