<?xml version="1.0" encoding="UTF-8" standalone="no"?>
<svg
   xmlns:dc="http://purl.org/dc/elements/1.1/"
   xmlns:cc="http://creativecommons.org/ns#"
   xmlns:rdf="http://www.w3.org/1999/02/22-rdf-syntax-ns#"
   xmlns:svg="http://www.w3.org/2000/svg"
   xmlns="http://www.w3.org/2000/svg"
   xmlns:xlink="http://www.w3.org/1999/xlink"
   xmlns:sodipodi="http://sodipodi.sourceforge.net/DTD/sodipodi-0.dtd"
   xmlns:inkscape="http://www.inkscape.org/namespaces/inkscape"
   width="600"
   height="660"
   id="svg2"
   version="1.1"
   inkscape:version="0.48.2 r9819"
   sodipodi:docname="House_Goodbrook.svg">
  <metadata
     id="metadata21">
    <rdf:RDF>
      <cc:Work
         rdf:about="">
        <dc:format>image/svg+xml</dc:format>
        <dc:type
           rdf:resource="http://purl.org/dc/dcmitype/StillImage" />
        <dc:title />
      </cc:Work>
    </rdf:RDF>
  </metadata>
  <sodipodi:namedview
     pagecolor="#ffffff"
     bordercolor="#666666"
     borderopacity="1"
     objecttolerance="10"
     gridtolerance="10"
     guidetolerance="10"
     inkscape:pageopacity="0"
     inkscape:pageshadow="2"
     inkscape:window-width="1366"
     inkscape:window-height="715"
     id="namedview19"
     showgrid="false"
     inkscape:zoom="0.35757576"
     inkscape:cx="300"
     inkscape:cy="282.45763"
     inkscape:window-x="-8"
     inkscape:window-y="-8"
     inkscape:window-maximized="1"
     inkscape:current-layer="svg2" />
  <defs
     id="defs4">
    <radialGradient
       id="rg"
       gradientUnits="userSpaceOnUse"
       cx="220"
       cy="220"
       r="405">
      <stop
         style="stop-color:#fff;stop-opacity:.3"
         offset="0"
         id="stop7" />
      <stop
         style="stop-color:#fff;stop-opacity:.2"
         offset=".2"
         id="stop9" />
      <stop
         style="stop-color:#666;stop-opacity:.1"
         offset=".6"
         id="stop11" />
      <stop
         style="stop-color:#000;stop-opacity:.13"
         offset="1"
         id="stop13" />
    </radialGradient>
    <path
       id="shield"
       d="m2,2v257c0,286 298,398 298,398c0,0 298-112 298-398V2z" />
    <radialGradient
       id="rg-1"
       gradientUnits="userSpaceOnUse"
       cx="220"
       cy="220"
       r="405">
      <stop
         style="stop-color:#fff;stop-opacity:.3"
         offset="0"
         id="stop7-7" />
      <stop
         style="stop-color:#fff;stop-opacity:.2"
         offset=".2"
         id="stop9-4" />
      <stop
         style="stop-color:#666;stop-opacity:.1"
         offset=".6"
         id="stop11-0" />
      <stop
         style="stop-color:#000;stop-opacity:.13"
         offset="1"
         id="stop13-9" />
    </radialGradient>
    <radialGradient
       id="radialGradient3005"
       gradientUnits="userSpaceOnUse"
       cx="220"
       cy="220"
       r="405">
      <stop
         style="stop-color:#fff;stop-opacity:.3"
         offset="0"
         id="stop3007" />
      <stop
         style="stop-color:#fff;stop-opacity:.2"
         offset=".2"
         id="stop3009" />
      <stop
         style="stop-color:#666;stop-opacity:.1"
         offset=".6"
         id="stop3011" />
      <stop
         style="stop-color:#000;stop-opacity:.13"
         offset="1"
         id="stop3013" />
    </radialGradient>
  </defs>
  <use
     height="1052.3622"
     width="744.09448"
     y="0"
     x="0"
     style="fill:#ffdd00"
     id="field"
     xlink:href="#shield" />
  <path
     inkscape:connector-curvature="0"
     id="bend"
     d="m 2,2 0,116.86523 c 2.3968814,4.45556 5.1824715,8.52174 8.607422,11.94922 7.853842,7.85964 19.081482,12.34566 30.640625,16.5 11.559142,4.15434 22.780976,8.64422 30.640625,16.49805 7.85964,7.85384 12.34566,19.08344 16.5,30.64258 4.15434,11.55914 8.644213,22.78097 16.498048,30.64062 7.85384,7.85964 19.08343,12.34566 30.64258,16.5 11.55914,4.15434 22.78098,8.64421 30.64062,16.49805 7.85964,7.85384 12.34566,19.08148 16.5,30.64063 4.15434,11.55914 8.64422,22.78292 16.49805,30.64257 7.85384,7.85964 19.08343,12.34371 30.64258,16.49805 11.55914,4.15434 22.78097,8.64617 30.64062,16.5 7.85964,7.85384 12.34371,19.08148 16.49805,30.64062 4.15434,11.55915 8.64617,22.78293 16.5,30.64258 7.85384,7.85964 19.08148,12.34371 30.64062,16.49805 11.55915,4.15434 22.78293,8.64617 30.64258,16.5 7.85964,7.85384 12.34371,19.08148 16.49805,30.64063 4.15434,11.55914 8.64617,22.78097 16.5,30.64062 7.85384,7.85964 19.08148,12.34566 30.64062,16.5 11.55915,4.15434 22.78294,8.64616 30.64258,16.5 4.25529,4.25215 7.51731,9.49673 10.27735,15.24414 35.41553,-31.94734 70.04696,-72.07019 95.8496,-121.24414 -0.0214,-0.0215 -0.041,-0.0449 -0.0625,-0.0664 -7.85964,-7.85383 -19.08148,-12.34566 -30.64062,-16.5 -11.55914,-4.15434 -22.78678,-8.6384 -30.64062,-16.49804 -7.85384,-7.85965 -12.34566,-19.08344 -16.5,-30.64258 -4.15435,-11.55914 -8.63841,-22.78678 -16.49805,-30.64063 -7.85965,-7.85383 -19.08344,-12.34566 -30.64258,-16.5 -11.55914,-4.15434 -22.78678,-8.6384 -30.64063,-16.49804 -7.85383,-7.85965 -12.34565,-19.08344 -16.5,-30.64258 -4.15434,-11.55914 -8.6384,-22.78678 -16.49804,-30.64063 -7.85965,-7.85383 -19.08344,-12.3437 -30.64258,-16.49804 -11.55914,-4.15434 -22.78678,-8.64036 -30.64062,-16.5 -7.85384,-7.85965 -12.34566,-19.08149 -16.5,-30.64063 -4.15435,-11.55914 -8.63841,-22.78873 -16.49805,-30.64258 -7.85965,-7.85383 -19.08148,-12.3437 -30.64063,-16.49804 -11.55914,-4.15434 -22.78873,-8.64036 -30.64258,-16.5 -7.85383,-7.85965 -12.3437,-19.081486 -16.49804,-30.640628 -4.15434,-11.559143 -8.64036,-22.788736 -16.5,-30.642578 -7.85965,-7.853834 -19.08148,-12.343707 -30.64063,-16.498047 -11.55914,-4.15434 -22.78873,-8.64036 -30.64257,-16.5 C 110.62755,18.699242 106.58278,10.652931 103.14258,2 L 2,2 z"
     style="fill:#0000cc" />
  <use
     height="1052.3622"
     width="744.09448"
     y="0"
     x="0"
     style="fill:url(#rg-1);stroke:#000000;stroke-width:3"
     id="shine"
     xlink:href="#shield" />
</svg>
