<?xml version="1.0" encoding="UTF-8" standalone="no"?>
<svg
   xmlns:dc="http://purl.org/dc/elements/1.1/"
   xmlns:cc="http://creativecommons.org/ns#"
   xmlns:rdf="http://www.w3.org/1999/02/22-rdf-syntax-ns#"
   xmlns:svg="http://www.w3.org/2000/svg"
   xmlns="http://www.w3.org/2000/svg"
   xmlns:xlink="http://www.w3.org/1999/xlink"
   xmlns:sodipodi="http://sodipodi.sourceforge.net/DTD/sodipodi-0.dtd"
   xmlns:inkscape="http://www.inkscape.org/namespaces/inkscape"
   width="600"
   height="660"
   id="svg2"
   version="1.1"
   inkscape:version="0.48.2 r9819"
   sodipodi:docname="House_Wylde.svg">
  <metadata
     id="metadata19">
    <rdf:RDF>
      <cc:Work
         rdf:about="">
        <dc:format>image/svg+xml</dc:format>
        <dc:type
           rdf:resource="http://purl.org/dc/dcmitype/StillImage" />
        <dc:title />
      </cc:Work>
    </rdf:RDF>
  </metadata>
  <defs
     id="defs17">
    <radialGradient
       inkscape:collect="always"
       xlink:href="#rg"
       id="radialGradient4153"
       gradientUnits="userSpaceOnUse"
       cx="220"
       cy="220"
       r="405" />
  </defs>
  <sodipodi:namedview
     pagecolor="#ffffff"
     bordercolor="#666666"
     borderopacity="1"
     objecttolerance="10"
     gridtolerance="10"
     guidetolerance="10"
     inkscape:pageopacity="0"
     inkscape:pageshadow="2"
     inkscape:window-width="1366"
     inkscape:window-height="715"
     id="namedview15"
     showgrid="false"
     inkscape:zoom="0.35355339"
     inkscape:cx="88.629124"
     inkscape:cy="219.42653"
     inkscape:window-x="-8"
     inkscape:window-y="-8"
     inkscape:window-maximized="1"
     inkscape:current-layer="svg2"
     showguides="false" />
  <radialGradient
     id="rg"
     gradientUnits="userSpaceOnUse"
     cx="220"
     cy="220"
     r="405">
    <stop
       style="stop-color:#fff;stop-opacity:.3"
       offset="0"
       id="stop5" />
    <stop
       style="stop-color:#fff;stop-opacity:.2"
       offset=".2"
       id="stop7" />
    <stop
       style="stop-color:#666;stop-opacity:.1"
       offset=".6"
       id="stop9" />
    <stop
       style="stop-color:#000;stop-opacity:.13"
       offset="1"
       id="stop11" />
  </radialGradient>
  <path
     inkscape:connector-curvature="0"
     style="fill:#ffdd00;fill-opacity:1;stroke:none;stroke-width:3"
     id="path7212"
     d="m 2,2 0,257 c 0,286 298,398 298,398 0,0 298,-112 298,-398 L 598,2 Z" />
  <path
     inkscape:connector-curvature="0"
     style="fill:none;fill-opacity:1;stroke:none;stroke-width:3"
     id="path7200"
     d="m 2,2 0,257 c 0,286 298,398 298,398 0,0 298,-112 298,-398 L 598,2 Z" />
  <g
     transform="matrix(-0.809017,-0.58778525,0.58778525,-0.809017,290.02633,618.77786)"
     id="g4534" />
  <path
     style="fill:#00aaaa;fill-opacity:1;fill-rule:evenodd;stroke:none;stroke-width:1.17569816000000000px;stroke-linecap:round;stroke-linejoin:round;stroke-opacity:1"
     d="M 305.44531 5.90625 C 167.11278 5.90625 5.7162561 104.51625 5.9238281 296.17773 C 5.9331689 304.803 6.2830494 313.2274 6.9492188 321.45508 C 15.945964 377.09544 36.51992 424.97302 62.826172 465.69531 C 122.42362 539.6645 219.17612 573.31313 305.44531 562.81055 C 467.40388 543.09341 531.85554 407.37613 523.85938 296.17773 C 515.71287 182.88831 406.84833 96.386264 305.44531 99.619141 C 199.90258 102.984 112.59824 201.89913 115.54883 296.58984 C 118.64905 396.08138 196.74223 449.49277 265.75 450.16016 C 366.71501 451.13658 407.98378 373.64717 407.69922 312.33594 C 407.4873 266.67587 362.84448 214.43775 305.44531 218.46094 C 261.64818 221.53071 235.00906 252.6447 231.91406 280.5625 C 228.3798 312.44234 250.78973 336.56228 273.38477 337.30078 C 294.34326 337.98577 307.13377 327.53263 300 306.35352 C 297.13265 311.09485 292.09647 313.57422 286.6582 313.57422 C 276.15483 313.57422 270.97687 304.74366 271.25195 297.34375 C 271.78636 282.96842 286.25984 269.55859 309.76562 269.55859 C 328.78343 269.55859 353.78125 285.59158 353.78125 324.02734 C 353.78125 354.36357 322.17163 393.28055 275.10352 392.80273 C 225.43425 392.29848 175.24414 352.47308 175.24414 289.91602 C 175.24414 217.21505 234.05266 157.87109 312.79297 157.87109 C 395.08246 157.87109 470.14648 224.00278 470.14648 320.45117 C 470.14648 391.15126 423.84184 503.01498 271.52734 508.06641 C 185.39149 510.92307 61.59348 448.52058 53.308594 302.01953 C 45.929181 171.53014 153.16589 45.380071 309.97266 46.662109 C 477.88535 48.034944 581.28839 184.06547 581.28516 322.10156 C 581.28468 342.67689 581.08431 357.50248 578.82227 378.92578 C 579.00737 378.54053 579.18591 378.14609 579.36719 377.75586 C 586.15972 357.05636 591.33701 335.07725 594.48828 311.76953 C 594.97489 306.45986 595.34176 301.2316 595.61523 296.17773 C 601.49257 187.56189 508.84815 9.422606 305.44531 5.90625 z "
     id="path4261" />
  <path
     id="path4147"
     d="m 2,2 0,257 c 0,286 298,398 298,398 0,0 298,-112 298,-398 L 598,2 Z"
     style="fill:url(#radialGradient4153);stroke:#000000;stroke-width:3"
     inkscape:connector-curvature="0" />
</svg>
