<?xml version="1.0" encoding="UTF-8"?>
<svg xmlns="http://www.w3.org/2000/svg" xmlns:xlink="http://www.w3.org/1999/xlink" width="600" height="660">
<defs>
  <radialGradient id="rg" gradientUnits="userSpaceOnUse" cx="220" cy="220" r="405">
    <stop style="stop-color:#fff;stop-opacity:.3" offset="0"/>
    <stop style="stop-color:#fff;stop-opacity:.2" offset=".2"/>
    <stop style="stop-color:#666;stop-opacity:.1" offset=".6"/>
    <stop style="stop-color:#000;stop-opacity:.13" offset="1"/>
  </radialGradient>
  <path id="shield" d="m2,2v257c0,286 298,398 298,398c0,0 298-112 298-398V2z"/>
</defs>
<use xlink:href="#shield" style="fill:#884411;"/>
<path style="fill:#ffdd00;" d="M 150 150 L 150 259 C 150 381.45655 240.12925 455.92036 300 491.97852 C 359.87075 455.92036 450 381.45655 450 259 L 450 150 L 150 150 z"/>
<g id="horse" style="fill:#ee0000;stroke:#880000;stroke-width:1;stroke-linecap:round;stroke-linejoin:round;">
  <g id="rear-right">
    <path style="fill:#aa0000;" d="m 276.70074,413.36637 c -3.05418,2.4846 -5.94477,5.08264 -7.43931,8.6488 3.31254,2.11293 7.5319,3.0544 12.25459,2.9807 11.02248,-0.17202 12.28946,-2.37993 15.62996,-4.54714 0.95492,-3.2218 0.16173,-5.44852 -0.13733,-7.40044 -6.88781,-1.87894 -13.63293,-1.36782 -20.30791,0.31808 z"/>
    <path d="m 312.74485,340.19863 c -1.68415,6.65834 0.75997,12.46686 2.8753,17.46174 1.60431,3.78824 2.19202,7.31533 5.41412,9.19821 3.12234,1.82459 6.49189,3.85787 6.61204,6.64582 0.17165,3.98286 0.69838,5.70262 -0.66533,7.81427 -2.16551,3.35322 -6.59789,4.23489 -7.81352,5.25877 -1.57317,1.32504 -6.96779,5.63179 -8.88232,6.38356 -2.78834,1.09488 -10.22535,3.03831 -13.09438,3.89983 -2.31585,0.69541 -6.1604,3.46479 -8.17763,4.79803 -4.30701,2.84663 -7.49214,2.09476 -9.7966,5.49989 -1.04161,1.53911 -0.8628,4.2949 -2.51579,6.20762 6.12409,2.08891 13.53017,1.07915 20.30791,-0.31808 3.42841,-1.31321 6.40432,0.18031 12.13293,-0.43241 -2.46487,-2.71232 -0.35692,-4.46745 1.62327,-6.00607 0.94509,2.7352 3.80352,3.16854 6.16839,4.05815 -3.02958,-4.34027 -0.0455,-6.34796 1.78559,-7.95398 1.75853,0.40581 2.79574,2.02112 3.49001,4.05815 3.05181,-3.37032 1.96356,-5.24154 4.22048,-7.95398 1.87502,-2.09854 4.24703,-3.39718 6.91658,-4.28771 4.34232,-1.44854 11.573,-1.19787 14.85941,-4.38434 4.39716,-4.26339 2.61498,-11.83915 1.7613,-15.8392 -1.3509,-6.32995 -9.37406,-19.12394 -7.02995,-28.73709"/>
  </g>
  <g id="front-right">
    <path style="fill:#aa0000;" d="m 167.2226,302.36108 c -0.94062,3.82315 -1.68233,7.63828 -0.72652,11.38495 3.91683,-0.30944 7.85162,-2.10021 11.57647,-5.00446 8.69359,-6.77836 8.37452,-9.30389 9.73489,-13.04624 -1.179,-3.14671 -3.2362,-6.05557 -4.60512,-5.75722 -1.02497,4.9607 -11.66806,7.05574 -15.97972,12.42297 z"/>
    <path d="m 230.47297,270.07854 c -4.68998,8.96124 -7.33757,-2.1664 -12.19049,-7.4444 -2.42566,-2.63813 -6.12442,-16.3106 -13.20827,-16.89415 -10.62704,-0.87541 -15.34016,8.8395 -16.80228,10.28615 -8.18309,8.09658 -6.00102,5.41145 -16.42305,14.80412 -4.94294,4.45473 -5.43892,9.42607 -3.70113,13.75102 1.56879,3.90435 -2.86972,7.20348 -2.65735,11.30962 0.096,1.85596 1.89907,3.94767 1.7322,6.47018 6.14632,-2.02259 17.26976,-7.68554 15.97972,-12.42297 -1.08197,-2.36946 2.54315,-4.02048 5.91984,-1.24843 1.12748,-3.2285 -2.20994,-5.43917 -1.88678,-8.36099 1.98868,0.51072 1.84727,0.97874 4.12657,3.44626 0.37793,-5.07011 -2.34447,-5.65553 -2.28751,-7.38266 0.10136,-3.07348 1.83094,-1.5527 3.30825,-1.16666 2.56845,-3.76298 -0.35238,-5.09804 1.99378,-7.90557 3.20078,-3.83019 4.72242,-1.11298 6.71078,-1.29483 5.43279,-0.49689 6.8436,4.3081 7.88756,8.76502 3.24935,13.87215 8.22216,35.26643 28.47089,34.67523"/>
  </g>
  <path id="tail" style="fill:#aa0000;" d="m 384.62382,310.87712 c 3.05717,-2.78414 4.4401,-6.19758 8.83089,-8.09538 5.48037,-2.3878 11.25116,-2.55283 12.6044,-5.87161 1.83956,-4.206 2.57287,-8.86307 -3.27854,-13.24655 -1.65566,-1.35133 -5.15264,-2.13657 -6.94012,-2.07352 -2.56893,0.23381 -4.87712,2.78502 -7.44606,3.01883 -2.16335,0.10111 -3.96751,-0.77691 -5.57488,-2.94494 -1.29925,-2.48728 0.63777,-6.50674 0.63777,-6.50674 1.33171,2.54947 2.5818,4.0335 3.57393,3.35696 1.33275,-0.93362 2.40564,-2.36468 4.08178,-3.39852 1.70862,-0.97165 3.67431,-1.60269 5.38103,-0.91122 -0.6979,-0.42694 -2.4213,-2.05948 -3.05424,-2.36204 -13.16653,-4.59899 -23.9217,-16.55201 -17.6893,-29.62197 1.87205,-4.14382 4.54223,-7.51732 4.31588,-11.43567 0.18216,-9.19725 -6.77566,-8.72877 -8.64581,-6.24807 0.5709,-4.96798 3.69304,-7.62777 6.63784,-7.89962 4.22649,-0.54548 8.95496,2.44574 10.12326,8.16737 2.50879,-7.16748 -2.98431,-14.35003 0.28734,-20.96621 1.7588,-3.45148 7.04429,-6.21237 12.30915,-1.28506 -2.56893,0.23381 -4.11515,1.51637 -4.62006,3.12565 -1.57972,4.70346 3.63305,13.77372 4.68911,16.70461 2.38781,5.48037 2.8879,10.68041 0.65855,14.14023 4.3889,-0.23469 7.87212,-5.5367 3.66626,-12.67932 3.86729,0.43353 6.40272,3.62062 7.97849,7.54642 1.47642,5.4024 0.83866,11.90914 -2.18793,16.41859 -2.63491,3.59252 -2.687,7.73546 -2.16833,12.21345 0,0 6.12721,-1.30099 8.35743,-2.94085 0.95966,-0.73872 2.47061,-2.24031 2.13189,-3.64637 -0.42225,-0.80836 -1.86999,-2.82233 -1.86999,-2.82233 7.123,-5.1e-4 7.9125,10.90514 3.97453,15.33661 3.12301,-0.83983 3.80702,-1.19712 4.66835,-3.94235 4.07681,8.71384 4.44595,17.14823 1.24116,22.22566 3.02366,0.63675 4.27667,-3.02542 4.11426,-3.33633 2.85644,7.13514 1.9913,13.20661 -0.74018,18.43254 -2.70178,5.13128 -5.04714,9.12659 -9.90759,12.8527 0,0 2.07791,2.1597 3.05234,4.02516 0.6821,1.30582 0.68298,3.12579 0.42123,4.29144 -0.47243,1.67146 -3.54629,3.51455 -3.54629,3.51455 0,0 0.22839,-3.04781 -0.17528,-4.57822 -0.55217,-1.05711 -1.02359,-2.86872 -1.90248,-2.88452 -4.04828,-0.0224 -7.62514,1.76684 -12.10958,0.15187 -5.31503,-2.44749 -12.59663,-6.0839 -19.1537,1.0612 z"/>
  <path id="body" d="m 350.40967,351.70625 c -29.65972,1.6363 -37.50051,-6.77589 -58.53879,-13.31471 -19.64419,-6.10553 -35.01307,-9.97011 -47.97885,-25.94072 -8.12224,-10.00457 -18.27336,-23.09353 -17.10252,-35.92674 1.24062,-13.59802 10.36573,-11.68285 13.91169,-24.86888 5.78604,-21.516 18.52074,-22.34628 20.4475,-29.26543 1.98706,-7.13567 -7.45202,-10.90461 -6.9263,-18.2931 0.73863,-10.38065 2.01774,-24.09944 12.0521,-26.85898 10.78709,-2.96653 25.63809,2.96143 31.67982,11.93733 7.05306,10.47836 9.62721,16.19214 9.32041,28.75118 -0.24827,10.16307 -7.17735,24.21285 -7.13956,34.37889 0.0346,9.29656 5.25315,14.90476 12.16689,21.11987 10.99133,9.88067 28.97353,17.85557 53.94751,24.56334 11.93388,3.20532 11.69994,18.54974 9.64169,30.07287 -2.00771,11.24019 -14.0885,23.01653 -25.48159,23.64508 z"/>
  <path id="head" d="m 282.66505,210.91873 c -2.86776,8.22452 -9.87154,10.15454 -15.90796,9.57724 -6.38816,-0.61094 -7.39748,-3.75305 -13.79773,-4.22048 -3.50773,-0.25618 -8.04495,0.88176 -11.20051,2.43489 -3.89407,1.91662 -3.69139,6.65001 -7.95398,7.46701 -1.99811,0.38297 -4.94896,0.60443 -6.07252,-1.25346 -1.03458,-1.71077 -3.10758,-1.21266 -3.50472,-2.31772 -0.9073,-2.52453 2.07182,-4.64381 4.3828,-6.00607 3.02266,-1.78178 4.49516,-2.88717 7.9326,-3.59087 8.55153,-1.75064 1.65711,-2.3981 -0.66562,-1.69865 -3.10907,0.93624 -5.98843,3.30192 -9.21489,3.66626 -2.43588,0.27506 -3.56488,-1.20963 -5.35676,-1.78559 -1.23846,-0.39807 -3.27743,-0.93066 -3.38916,-2.22671 -0.25134,-2.91557 1.79113,-3.86993 2.80709,-6.61429 1.08476,-2.93021 -0.64654,-3.17282 0.46729,-5.54695 0.3289,-0.70106 1.95649,-2.63843 5.67534,-2.7522 2.87603,-0.088 13.09071,-6.76574 16.52902,-7.58435 3.41381,-0.81278 7.14466,-6.54826 9.81158,-7.34884 5.2109,-1.56427 6.22738,0.71639 10.95294,0.0951"/>
  <g id="rear-left">
    <path style="fill:#aa0000;" d="m 328.23812,426.6908 c -3.19682,2.29815 -6.23711,4.7193 -7.94153,8.19006 3.18073,2.30659 7.33647,3.49785 12.05516,3.70574 11.01314,0.48521 12.40946,-1.64327 15.87318,-3.60754 1.14524,-3.15916 0.48616,-5.42919 0.30397,-7.39547 -6.76359,-2.28609 -13.52718,-2.17788 -20.29078,-0.89279 z"/>
    <path d="m 345.97226,331.52708 c -4.97801,6.60126 -10.50076,16.15353 -8.27864,25.16055 2.43249,9.85968 10.65091,14.45042 19.39798,23.21265 3.2675,3.27316 8.05629,3.01981 11.444,6.16839 1.55737,1.44744 3.76381,5.0466 3.08419,7.06119 -1.01869,3.01971 -3.20015,5.12688 -5.60025,7.22352 -2.36279,2.06405 -5.83429,3.6178 -8.19747,5.68141 -1.54928,1.3529 -1.99061,2.96594 -3.7335,4.05816 -2.53836,1.5907 -5.78023,2.19493 -8.44096,3.57117 -2.14772,1.11089 -3.87863,3.4797 -6.08724,4.46397 -2.92724,1.30454 -5.93765,-0.74568 -8.44095,2.51606 -1.13149,1.4743 -1.11724,4.23584 -2.8813,6.04665 5.98872,2.45018 13.44181,1.8836 20.29078,0.89279 1.10923,-0.29738 1.77206,-0.77228 3.12478,-2.39431 2.34772,2.48602 4.41496,3.56965 6.33071,3.89583 -0.42047,-2.4627 0.45471,-4.06163 1.29862,-5.68142 1.51324,2.16706 3.80352,3.16855 6.16839,4.05816 -0.20073,-3.67466 0.4721,-6.22618 1.78559,-7.95399 1.75853,0.40582 1.54864,1.83081 3.49001,2.75955 -0.0395,-2.33804 1.16293,-3.18879 1.13629,-5.11327 -0.0218,-1.57738 -0.76612,-3.8182 -0.16233,-5.27561 1.0771,-2.59989 2.88739,-4.6088 5.11328,-6.33072 3.62063,-2.80087 9.47495,-3.29309 11.52515,-7.38584 2.74313,-5.47602 6.53509,-7.44394 5.68142,-11.44399 -1.35091,-6.32995 -8.05477,-8.62168 -10.87586,-14.44703 -1.47147,-3.03851 -3.00402,-7.25188 -1.13628,-10.06422 5.6338,-8.48309 15.8776,-13.8814 17.0721,-28.80236 0.70692,-8.83027 -4.45881,-15.10386 -9.41568,-22.44571 -3.7692,-5.58274 -9.38421,-10.33541 -15.5544,-13.03776 -8.17729,-3.58139 -15.50662,-2.92299 -22.78277,-1.99868"/>
  </g>
  <g id="front-left">
    <path style="fill:#aa0000;" d="m 210.18571,362.75299 c 1.65309,3.57331 3.45652,7.01613 6.54294,9.34533 2.86576,-2.6879 4.8204,-6.5439 5.91567,-11.13842 2.5563,-10.72333 0.72982,-12.49649 -0.54498,-16.26884 -2.88605,-1.72123 -6.30939,-2.70824 -7.19218,-1.62028 2.29765,4.51441 -4.70611,12.79764 -4.72145,19.68221 z"/>
    <path d="m 234.54284,264.79679 c -7.81398,6.28735 -9.70075,9.0564 -8.58785,19.98596 0.60927,5.98357 3.37917,8.76566 3.54685,14.19237 0.17267,5.58836 -6.44748,1.5423 -8.22666,1.26833 -3.54203,-0.54545 -18.39366,-6.0684 -23.89133,-1.56317 -7.12466,5.83852 -6.29538,11.64362 -5.83752,13.64886 2.4535,10.74534 3.112,7.40026 0.83854,21.24485 -1.07825,6.56616 2.55743,9.72548 6.61574,12.01792 3.66363,2.0695 3.06109,10.1155 5.79139,13.18973 1.23409,1.38955 3.94863,1.89707 5.39371,3.97135 3.53705,-5.41824 8.68767,-16.78799 4.72145,-19.68221 -2.32483,-1.17481 -0.52477,-4.72827 3.84367,-4.67219 -1.13577,-3.2256 -5.12293,-2.86776 -6.69533,-5.35152 1.87211,-0.84313 2.05397,-0.38929 5.37515,0.11431 -2.87131,-4.19575 -5.36311,-2.95272 -6.39729,-4.33717 -1.84035,-2.46367 0.46024,-2.35614 1.8551,-2.97729 -0.34418,-4.54296 -3.17622,-2.40297 -5.16579,-6.03962 -4.05266,-7.4077 3.98696,-5.23069 5.97451,-5.04008 4.58196,0.43944 11.06972,2.87362 14.88075,5.40936 5.79389,3.85507 21.59461,9.17101 25.23954,5.49584 5.14229,-5.18493 9.36309,-10.662 9.98112,-15.18287"/>
  </g>
  <path id="nose" style="fill:#880000;stroke:none;" d="m 227.55752,202.82631 c 0.0106,-0.50532 0.16308,-1.01314 0.0822,-1.51469 -0.0645,-0.40039 -0.49049,-0.59425 -0.79181,-0.85476 -0.31457,-0.27198 -0.24825,-0.82606 -0.0755,-1.18976 0.16887,-0.35544 0.65771,-0.3765 1.01417,-0.24767 0.90807,0.32816 1.62317,0.58735 2.1012,1.41006 0.68112,1.17225 -0.73251,2.78254 -1.70735,2.99343 -0.60502,0.13087 -0.63397,-0.0699 -0.62294,-0.59659 z"/>
  <path id="mane" style="fill:#aa0000;" d="m 274.99256,169.33135 c 2.34897,0.58201 2.79329,-1.94805 5.84144,-3.30976 3.96266,-1.77026 2.86873,-1.71441 3.46217,-6.08037 2.06331,1.45999 3.44135,3.74919 4.9896,8.04431 4.82359,-4.05174 11.45821,-3.23133 16.2838,2.05604 -4.06615,0.55621 -7.49693,5.02706 -3.8067,4.35617 2.91647,-0.53022 4.84361,-0.65665 7.77621,-0.33872 2.79059,0.30999 4.78194,2.94165 9.22868,1.5018 1.03696,4.1743 -5.69714,5.40817 -7.85607,7.52268 1.2621,1.5837 4.00673,1.51762 7.29756,0.0103 4.16033,-1.90552 6.87246,4.81081 13.65342,-0.7748 1.71354,4.05046 -3.8364,6.64944 -7.91134,7.92613 -2.73081,0.5926 -5.62126,3.97062 -5.62126,3.97062 0,0 5.83601,-2.94768 10.48004,0.64485 4.08306,3.15858 4.91161,6.61248 11.65129,6.20923 -3.90693,6.01208 -11.56464,-0.64332 -18.26957,6.6781 12.11217,1.07355 10.39158,13.91825 20.87245,10.68503 -1.90494,7.30545 -13.23188,0.59068 -15.09013,6.61914 5.14984,-0.73725 4.64729,6.11765 11.7154,3.57887 -4.71505,9.14323 -13.2238,3.59897 -15.78661,12.46221 5.82152,0.29139 11.51288,-3.18119 13.51043,5.47242 -8.37774,-4.77661 -10.52868,4.07719 -17.10006,3.03188 7.45538,2.48995 3.29552,5.86213 9.52244,5.05424 -2.98962,4.84958 -11.20855,3.26057 -14.20051,2.96588 3.40858,0.8399 6.39624,6.72666 6.16439,9.70821 -1.76606,-4.55267 -7.31053,-2.6729 -9.39329,-3.50145 1.71424,5.29969 -2.83622,9.16873 0.75981,14.74788 -8.33797,-1.30365 -9.66943,-13.71196 -12.26165,-13.79743 -4.45188,-0.14678 -4.14514,7.06317 -7.49538,5.67277 0.0626,-9.34951 -3.59562,-12.78349 2.86657,-21.05782 2.50793,-3.21121 2.70926,-10.42249 -1.15577,-9.70082 0.35998,-3.98089 6.08418,-9.54052 5.8622,-14.3819 -0.95449,-20.81738 0.37443,-15.47079 -3.36393,-24.59862 -1.61571,-3.94502 -3.99865,-6.67657 -6.27395,-4.0433 -0.7935,-3.59508 -2.92159,-2.86327 -2.77998,-8.28503 0.12332,-4.72145 -4.54269,-8.61828 -8.75605,-5.68086 -1.48138,1.03277 -0.54666,1.64985 -5.19347,2.49134 0.0353,-2.23321 -0.87068,-3.92653 -3.85687,-4.56499 -2.31673,-0.49533 -6.98836,1.68715 -9.23455,2.05648 -7.00277,1.15142 -8.84451,-0.35217 -11.97472,-5.66521 13.78938,-0.0569 15.44076,-4.73397 8.0854,-5.78239 5.57711,-5.64414 13.54412,-2.84822 17.35856,-1.90311 z"/>
  <g id="ear">
    <path d="m 276.35888,185.00931 c -0.36736,-7.98036 9.15745,-10.53819 15.08624,-16.85991 2.39834,-2.52084 4.77379,5.96021 2.80753,11.22059 -1.90416,5.09422 -4.8289,7.94932 -9.34071,8.73222"/>
    <path style="fill:#880000;stroke:none;" d="m 280.21495,183.75788 c -0.35026,-0.059 -0.37457,-0.60402 -0.48037,-0.94571 -0.10173,-0.32852 -0.15488,-0.67661 -0.12986,-1.0192 0.0374,-0.51135 0.22589,-1.00555 0.52776,-1.42299 0.16873,-0.23334 0.35114,-0.45833 0.56033,-0.65447 0.35801,-0.33567 0.77069,-0.61778 1.21076,-0.83457 0.41754,-0.20571 0.85733,-0.36779 1.30989,-0.48118 0.33023,-0.0827 0.67043,-0.13569 1.00953,-0.15897 0.30313,-0.0208 0.59177,0.0973 0.87981,0.17705 0.29163,0.0807 0.6966,0.0282 0.86339,0.2807 0.1201,0.18182 -0.0818,0.51614 -0.28872,0.58613 -0.67319,0.22765 -1.41244,0.15807 -2.11703,0.2493 -0.47524,0.0615 -0.96569,0.12873 -1.3852,0.37984 -0.2245,0.13438 -0.41634,0.31599 -0.55939,0.53642 -0.32642,0.50301 -0.38694,1.12106 -0.40662,1.70521 -0.009,0.26386 0.0573,0.53561 0.005,0.79215 -0.0784,0.38389 -0.17589,0.78752 -0.41314,1.099 -0.0774,0.10165 -0.25666,0.0536 -0.36994,0.005 -0.11175,-0.0479 -0.0963,-0.27356 -0.21616,-0.29374 z m 2.23874,2.63151 c -0.29961,-0.32326 -0.47414,-0.82762 -0.24127,-1.23923 0.34061,-0.60206 0.9966,-0.90891 1.5731,-1.23803 0.30999,-0.17698 0.70041,-0.25674 0.94099,-0.51659 0.88965,-0.96089 1.52456,-2.13896 2.06209,-3.33335 0.58274,-1.29484 0.92788,-2.68293 1.14255,-4.08363 0.0757,-0.49392 0.0432,-1.0044 0.16405,-1.48881 0.037,-0.14871 0.20909,-0.36234 0.36437,-0.32702 0.15001,0.0341 0.34538,0.0118 0.37902,0.22831 0.16522,1.06331 0.27051,2.13658 0.23822,3.20888 -0.0472,1.56661 -0.33639,3.13142 -0.90885,4.5954 -0.39862,1.01936 -0.94467,2.00369 -1.72804,2.7737 -0.52114,0.51226 -1.13029,0.93819 -1.81383,1.20607 -0.64756,0.25377 -1.34292,0.41491 -2.03595,0.37617 -0.0705,-0.004 -0.0885,-0.11011 -0.13645,-0.16187 z"/>
  </g>
  <g id="eye">
    <path style="fill:#ffffff;" d="m 255.19443,190.99393 c 0.0194,1.61184 2.25976,4.27828 4.99936,4.31093 2.74545,-0.0264 4.98626,-2.78595 5.02596,-4.39195 -0.0725,-1.67673 -2.31578,-1.30249 -5.06123,-1.27609 -2.75129,0.0855 -4.97759,-0.31378 -4.96409,1.35711 z"/>
    <path style="fill:#880000;stroke:none;" d="m 257.76394,192.14265 a 2.1539287,2.2482743 5.6524808 0 0 1.90366,2.45424 2.1539287,2.2482743 5.6524808 0 0 2.34782,-2.03345 2.1539287,2.2482743 5.6524808 0 0 -1.90365,-2.45423 2.1539287,2.2482743 5.6524808 0 0 -2.34783,2.03344 z"/>
    <path style="fill:#000000;stroke:none;" d="m 260.05393,191.29602 c 0.53143,0.0526 1.02196,0.51854 0.95767,1.16807 -0.0643,0.64953 -0.63663,1.01027 -1.16807,0.95767 -0.64953,-0.0643 -1.14005,-0.53022 -1.07576,-1.17975 0.0643,-0.64954 0.63663,-1.01028 1.28616,-0.94599 z"/>
    <path style="fill:#ffffff;stroke:none;" d="m 259.43362,190.93649 c 0.35429,0.0351 0.67351,0.42443 0.6326,0.83776 -0.0467,0.47239 -0.43026,0.73257 -0.78456,0.6975 -0.47238,-0.0467 -0.79745,-0.37706 -0.7507,-0.84945 0.0409,-0.41334 0.43027,-0.73256 0.90266,-0.68581 z"/>
  </g>
</g>
<use id="shine" xlink:href="#shield" style="fill:url(#rg);stroke:#000000;stroke-width:3;"/>
</svg>
