<?xml version="1.0" encoding="UTF-8"?>
<svg xmlns="http://www.w3.org/2000/svg" xmlns:xlink="http://www.w3.org/1999/xlink" width="600" height="660">
<defs>
  <radialGradient id="rg" gradientUnits="userSpaceOnUse" cx="220" cy="220" r="405">
    <stop style="stop-color:#fff;stop-opacity:.3" offset="0"/>
    <stop style="stop-color:#fff;stop-opacity:.2" offset=".2"/>
    <stop style="stop-color:#666;stop-opacity:.1" offset=".6"/>
    <stop style="stop-color:#000;stop-opacity:.13" offset="1"/>
  </radialGradient>
  <radialGradient id="grad3" cx="33%" cy="33%" r="100%">
    <stop offset="0%" style="stop-color:#000;" />
    <stop offset="50%" style="stop-color:#000;" />
    <stop offset="50%" style="stop-color:#111;" />
    <stop offset="100%" style="stop-color:#111;" />
  </radialGradient>
  <clipPath id="clip-shield">
    <path id="shield" d="m2,2v257c0,286 298,398 298,398c0,0 298-112 298-398V2z"/>
  </clipPath>
  <circle id="stud" style="fill:url(#grad3)" cx="300" cy="120" r="20"/>
</defs>
<use id="background" xlink:href="#shield" style="fill:#cd7f32"/>
<g id="studs">
  <use xlink:href="#stud" transform="translate(-180,0)"/>
  <use xlink:href="#stud" transform="translate(-90,0)"/>
  <use xlink:href="#stud" transform="translate(0,0)"/>
  <use xlink:href="#stud" transform="translate(90,0)"/>
  <use xlink:href="#stud" transform="translate(180,0)"/>
  
  <use xlink:href="#stud" transform="translate(-180,90)"/>
  <use xlink:href="#stud" transform="translate(-90,90)"/>
  <use xlink:href="#stud" transform="translate(0,90)"/>
  <use xlink:href="#stud" transform="translate(90,90)"/>
  <use xlink:href="#stud" transform="translate(180,90)"/>
  
  <use xlink:href="#stud" transform="translate(-178,172)"/>
  <use xlink:href="#stud" transform="translate(-86,172)"/>
  <use xlink:href="#stud" transform="translate(0,180)"/>
  <use xlink:href="#stud" transform="translate(86,172)"/>
  <use xlink:href="#stud" transform="translate(178,172)"/>
  
  <use xlink:href="#stud" transform="translate(-158,247)"/>
  <use xlink:href="#stud" transform="translate(-58,246)"/>
  <use xlink:href="#stud" transform="translate(58,246)"/>
  <use xlink:href="#stud" transform="translate(158,247)"/>
  
  <use xlink:href="#stud" transform="translate(-116,312)"/>
  <use xlink:href="#stud" transform="translate(0,300)"/>
  <use xlink:href="#stud" transform="translate(116,312)"/>
  
  <use xlink:href="#stud" transform="translate(-60,367)"/>
  <use xlink:href="#stud" transform="translate(60,367)"/>
  
  <use xlink:href="#stud" transform="translate(0,407)"/>
</g>
<path id="runes" style="fill:#482d12;stroke:#481211;stroke-width:1;stroke-linejoin:round;" d="m 585,30.33 c -8.4,11.46 -19.3,-7.86 -15.4,11.88 0,14.58 0,29.17 0,43.75 -7.4,-3.35 -1.3,-20.08 -3.3,-28.84 0,-14.54 0,-29.09 0,-43.63 6.2,9.29 24.7,-4.054 16,6.56 -8.3,3.27 -20.1,-3.11 -7.2,9.72 3.6,5.22 11.9,-10.34 9.9,0.56 z m -49.3,55.55 c -7.4,-3.35 -1.3,-20.08 -3.3,-28.84 0,-14.54 0,-29.09 0,-43.63 6.7,0.38 18.7,16.83 14.8,18.79 -7.6,-10.43 -14.3,-18.16 -11.5,0 0,17.9 0,35.8 0,53.7 z m -21.3,-55.55 c -8.4,11.49 -19.4,-7.86 -15.5,11.88 0,14.58 0,29.17 0,43.75 -7.4,-3.35 -1.3,-20.08 -3.3,-28.84 0,-14.54 0,-29.09 0,-43.63 6.3,9.25 24.8,-4.034 16.1,6.56 -8.3,3.3 -20.3,-3.12 -7.3,9.68 3.6,5.35 12,-10.32 10,0.6 z m -78.6,-16.92 c 6.3,10.98 12.7,21.96 19,32.94 6.4,-10.98 12.7,-21.96 19.1,-32.94 8.4,1.84 1.4,19.18 3.7,27.14 0,15.11 0,30.22 0,45.33 -9.1,-1.93 -10.8,-16.64 -17,-23.49 -5.3,-17.72 -10.6,-1.02 -16,7.62 -2.8,7.2 -14.7,25.64 -12.6,7.39 0,-21.33 0,-42.66 0,-63.99 1.3,0 2.5,0 3.8,0 z m -0.4,5.37 c 0,20.44 0,40.88 0,61.32 5.9,-10.25 11.8,-20.49 17.7,-30.74 -5.9,-10.19 -11.8,-20.39 -17.7,-30.58 z m 38.9,61.32 c 0,-20.44 0,-40.88 0,-61.32 -5.9,10.19 -11.9,20.39 -17.8,30.58 5.9,10.25 11.9,20.49 17.8,30.74 z m -88.6,5.78 c -7.9,-2.23 -1.1,-19.22 -3.4,-27.14 0,-15.11 0,-30.22 0,-45.33 9.2,-1.85 13.1,23.12 20.3,9.68 7.7,-14.33 14.3,-8.49 11.4,5.59 0,19.07 0,38.13 0,57.2 -7.4,-3.35 -1.3,-20.08 -3.3,-28.84 2.8,-9.2 -8.3,-20.41 -13.6,-22.24 -7.6,7.66 -14.2,15.7 -11.4,27.15 0,7.98 0,15.95 0,23.93 z m 0,-42.7 c 10.3,-7.99 11.5,-15.99 0.5,-23.98 -1.1,5.15 -0.2,16.72 -0.5,23.98 z m 14.7,-12.28 c 8.5,12.93 12.4,13.3 10.3,-2.99 2,-18.912 -3.4,-2.53 -10.3,2.99 z m -36.1,54.98 c -9.1,-4.26 0.9,-25.87 -5.4,-35.38 -3.4,-17.7 -27.5,-45.439 -21.4,-13.39 0,16.26 0,32.51 0,48.77 -7.9,-2.23 -1.1,-19.22 -3.4,-27.14 0,-15.11 0,-30.22 0,-45.33 19.2,7.72 31.4,32.65 30.2,53.59 0,6.29 0,12.59 0,18.88 z m -48.2,0 c -7.4,-3.35 -1.3,-20.08 -3.3,-28.84 1.7,-15.2 -0.8,-18.97 -9.8,-4.78 -9.3,15.16 -10.2,7.25 -9,-6.28 0,-10.89 0,-21.77 0,-32.65 7.4,3.35 1.3,20.08 3.3,28.84 -3.2,19.32 6.5,3.54 13.1,-4.03 9.5,-15.78 4.5,8.15 5.7,15.21 0,10.85 0,21.69 0,32.53 z m -40.1,-0.41 c -6.7,-12.25 -13.4,-13.54 -20.2,-0.6 -8.8,1.6 -2.1,-18.6 -4.2,-26.13 0,-15.11 0,-30.22 0,-45.33 9.5,2.36 14.3,20.53 21.8,3.54 8.4,-7.807 -5.8,19.43 -9.9,11.61 -9.9,-16.12 -9.2,-3.61 -8.6,8.63 0,14.52 0,29.04 0,43.56 6.9,-11.98 13.8,-14.36 20.6,-0.93 1.3,1.39 0.1,3.94 0.5,5.65 z m -42.4,0.41 c -7.4,-3.35 -1.3,-20.08 -3.3,-28.84 0,-14.54 0,-29.09 0,-43.63 7.4,3.35 1.3,20.08 3.3,28.84 0,14.54 0,29.09 0,43.63 z m -49.7,0 c -7.9,-2.23 -1.1,-19.22 -3.4,-27.14 0,-15.11 0,-30.22 0,-45.33 9.2,-1.85 13.1,23.12 20.3,9.68 6.8,-12.79 15,-10.79 11.5,3.89 0,19.63 0,39.27 0,58.9 -7.9,-2.23 -1.1,-19.22 -3.4,-27.14 3.1,-11.08 -6.6,-17.46 -12.5,-25.24 -6.7,7.98 -15.7,15.17 -12.5,26.76 0,8.54 0,17.08 0,25.62 z m 0,-42.7 c 10.3,-7.99 11.5,-15.99 0.5,-23.98 -1.1,5.15 -0.2,16.72 -0.5,23.98 z m 14.7,-12.28 c 8.5,12.93 12.4,13.3 10.3,-2.99 2,-18.912 -3.4,-2.53 -10.3,2.99 z m -64.5,54.98 c -7.4,-3.35 -1.3,-20.08 -3.3,-28.84 0,-14.54 0,-29.09 0,-43.63 9.3,-0.74 14,24.04 21.4,8.39 8.7,-15.588 12.5,-3.28 10.3,8.57 0,18.51 0,37.01 0,55.51 -7.4,-3.35 -1.3,-20.08 -3.3,-28.84 0,-12.81 0,-25.62 0,-38.43 -6.7,8.05 -13.4,21.29 -20.2,5.82 -8.9,-13.98 -3.4,11.64 -4.9,17.93 0,14.51 0,29.01 0,43.52 z m -40.81,0 c -7.43,-3.29 -1.38,-20.08 -3.34,-28.84 0,-14.54 0,-29.09 0,-43.63 9.55,2.52 14.35,15.36 21.95,22.06 6.3,10.85 -17.07,16.03 -8.5,26.71 0.4,6.87 13.6,22.39 5.8,23.7 -4.1,-10.19 -8.1,-20.39 -12.17,-30.58 5.27,-7.97 19.97,-15.93 6.97,-23.9 -8.44,-12.61 -12.98,-14.4 -10.71,2.48 0,17.33 0,34.67 0,52 z m -21.34,-55.55 c -8.4,11.46 -19.32,-7.86 -15.46,11.88 0,14.58 0,29.17 0,43.75 -7.41,-3.31 -1.37,-20.08 -3.33,-28.84 0,-14.54 0,-29.09 0,-43.63 6.26,9.26 24.8,-4.026 16.04,6.55 -8.23,3.29 -20.15,-3.11 -7.22,9.72 3.6,5.26 11.97,-10.34 9.97,0.57 z m -49.32,55.55 c -7.43,-3.29 -1.38,-20.08 -3.34,-28.84 0,-14.54 0,-29.09 0,-43.63 6.7,0.33 18.64,16.85 14.77,18.79 -7.63,-10.47 -14.23,-18.14 -11.43,0 0,17.9 0,35.8 0,53.7 z m 63.25,21.02 c -3.35,7.4 -20.08,1.3 -28.84,3.3 -14.54,0 -29.09,0 -43.63,0 0.38,-6.7 16.84,-18.65 18.79,-14.77 -10.45,7.67 -18.15,14.27 0,11.47 17.9,0 35.8,0 53.7,0 z m 0,48.8 c -3.35,7.4 -20.08,1.3 -28.84,3.3 -14.54,0 -29.09,0 -43.63,0 -0.74,-9.3 24.04,-14 8.39,-21.4 -15.588,-8.7 -3.28,-12.5 8.57,-10.3 18.51,0 37.01,0 55.51,0 -3.35,7.4 -20.08,1.3 -28.84,3.3 -12.81,0 -25.62,0 -38.43,0 8.05,6.7 21.29,13.4 5.82,20.2 -13.98,8.9 11.64,3.4 17.93,4.9 14.51,0 29.01,0 43.52,0 z m -72.47,25 c 0.56,-10.5 13.86,12.9 19.83,10.5 8.15,-5.3 16.31,-20.7 24.42,-7.6 7.94,13 15.91,3.8 23.88,-3.8 12.24,-7.3 -6.1,11.1 -11.14,13.8 1.88,3.8 22.13,17.9 12.91,16.5 -7.9,-5.3 -15.77,-20.3 -23.73,-7.2 -8.15,12.8 -16.27,4.9 -24.4,-3.4 -6.78,-7.4 -17.17,14.4 -21.77,11.3 -0.49,-8.7 23.91,-13.5 10.88,-20.7 -3.63,-3.2 -7.25,-6.3 -10.88,-9.4 z m 21.06,13.8 c 7.97,6.8 15.92,18.3 23.92,5.1 13.78,-4.1 -6.02,-19.3 -11.04,-16.1 -4.29,3.7 -8.59,7.3 -12.88,11 z m 51.41,35.1 c -3.35,7.4 -20.08,1.3 -28.84,3.3 -14.54,0 -29.09,0 -43.63,0 3.35,-7.4 20.08,-1.3 28.84,-3.3 14.54,0 29.09,0 43.63,0 z m -72.36,41.4 c 16.83,-1.2 34.83,0.6 50.95,-2.4 6.36,-3.5 18.88,-21.1 21.17,-15.2 -2.11,5.7 -25.57,18 -10.46,16 17.9,-1.9 7.8,6 -4.37,3.5 -19.06,0.5 -38.12,0.9 -57.18,1.4 l -0.1,-1.7 z m 73.79,20.4 c -2.23,7.8 -19.69,4.1 -28.09,7.3 -15.29,0.5 -18.66,3.4 -3.36,10.4 16.3,7.1 8.6,9 -4.97,9.8 -10.78,1.5 -21.55,3 -32.33,4.5 2.25,-7.8 19.69,-4.1 28.1,-7.3 19.57,0.4 2.59,-6.9 -5.81,-12.4 -16.96,-7.2 7.42,-5.6 14.26,-7.8 10.73,-1.5 21.47,-3 32.2,-4.5 z m 9.11,47.6 c -1.19,8 -18.95,6.8 -26.85,11 -14,4 -28,7.9 -42,11.9 1.16,-8 18.95,-6.8 26.84,-11 14.01,-4 28.01,-7.9 42.01,-11.9 z m 8.28,27.3 c -8.57,11 -7.03,17.7 7.5,18.7 4.9,7.5 -16.17,9.4 -22.29,14.3 -13.85,6.1 -27.7,12.1 -41.55,18.1 -1.62,-9.6 13.15,-21.2 -5.42,-21.3 -10.61,-4.8 20.08,-2.6 14.57,4.3 -10.87,15.5 0.37,9.9 11.34,4.5 13.31,-5.8 26.63,-11.6 39.95,-17.4 -13.76,-1.5 -18.69,-6.9 -9.14,-18.5 0.74,-1.8 3.64,-1.6 5.04,-2.7 z m 22.5,44.6 c 0.9,8 -16.5,11.5 -23,17.7 -12.48,7.5 -24.96,15 -37.43,22.5 -1.04,-8.1 16.5,-11.5 23.01,-17.7 12.52,-7.5 24.92,-15 37.42,-22.5 z m -22.4,93.3 c 4.8,-11.8 9.5,-23.5 14.3,-35.3 -12.6,1.8 -25.11,3.5 -37.66,5.3 -3.84,-7.9 14.24,-12.9 19.16,-19.7 11.9,-9.2 23.8,-18.5 35.7,-27.8 4.1,8.3 -6.5,18.7 -8.1,27.9 -10.7,15 5.9,8.9 15.9,7.8 7.3,-2.1 29.2,-4.1 13.5,5.4 -16.8,13.1 -33.7,26.2 -50.5,39.3 -0.8,-1 -1.5,-1.9 -2.3,-2.9 z m 4.5,-3 c 16.1,-12.5 32.3,-25.1 48.4,-37.6 -11.7,1.6 -23.5,3.2 -35.2,4.8 -4.4,10.9 -8.8,21.9 -13.2,32.8 z m 24.5,-68.3 c -16.1,12.5 -32.3,25.1 -48.38,37.6 11.66,-1.6 23.28,-3.2 34.98,-4.8 4.5,-10.9 8.9,-21.9 13.4,-32.8 z m 1.7,77.8 c 5.7,-4.9 3.6,13.5 13.1,-1.9 10.5,-10.2 21,-20.3 31.5,-30.4 4,7.2 -13.1,14.1 -17.2,21.2 -10.8,10.5 -21.7,20.9 -32.6,31.4 2.3,-10.9 -20.2,-15 -6.5,-16 8.1,3.6 11.7,16.7 12.1,-1.6 l -0.3,-1.7 z m 75,-4.5 c 3.4,7.4 -12,16.1 -16.3,24.1 -9.5,11 -18.9,22.1 -28.4,33.1 -5.5,-8.2 -0.8,-21 -2.2,-31 2.2,-12.4 23.3,-1.2 23.7,-14.8 4.2,-5.5 4.4,-25.7 11.1,-21.8 -3.6,10.4 -7.1,20.8 -10.7,31.2 -9.1,2.7 -25.6,-0.9 -20.9,13.6 -1.7,15.1 0.6,19.4 9.8,5.1 11.3,-13.2 22.6,-26.3 33.9,-39.5 z m 13.1,10.7 c 4.8,8.8 -15.8,20.5 -16.3,31.9 -7.4,16.4 -4.1,52.9 9.7,23.3 9.5,-13.1 18.9,-26.3 28.4,-39.5 4.1,7 -10.6,17.1 -14.1,25.3 -8.5,11.9 -17,23.7 -25.5,35.5 -11,-18.4 -6.4,-45.9 7.8,-62.6 3.3,-4.6 6.7,-9.3 10,-13.9 z m 9.3,87.5 c 11.6,-19.2 23.2,-38.4 34.8,-57.6 4.8,6.6 -9.2,17.9 -12,26.4 -6.6,11 -13.3,21.9 -19.9,32.9 7.6,-4 27.1,-8.2 10.9,-0.2 -11.3,7.3 -20,3.4 -18.6,-10.5 -1,-18.6 4.8,-1.3 4.7,8.1 z m 79.7,-38.7 c 8,2.2 1.2,19.2 3.5,27.1 0,15.2 0.1,30.3 0.1,45.4 -9.2,1.9 -13.2,-23.1 -20.2,-9.7 -7.7,14.4 -14.5,8.7 -11.6,-5.5 0,-19 -0.1,-38.1 -0.2,-57.2 8,2.2 1.2,19.2 3.5,27.1 0,13.4 0.1,26.8 0.1,40.2 6.7,-8.1 13.4,-21.4 20.1,-5.9 8.9,14 3.3,-11.7 4.8,-18 0,-14.5 -0.1,-29 -0.1,-43.5 z m 51.8,40.3 c -11.6,-19.2 -23.2,-38.4 -34.8,-57.6 8.1,-1 11.6,16.5 17.8,23 6.7,10.9 13.3,21.9 19.9,32.8 0,-8.6 5.4,-27.8 4.9,-9.7 1.2,13.3 -6.3,19.3 -18,11.6 -16.9,-7.8 1.2,-4.8 9.5,-0.4 z m 46.7,-24.7 c -10.5,-13.2 -19.2,-29.1 -30.7,-40.7 -6.4,-3.3 -28,-3.8 -24.5,-9 5.9,-1.4 29.2,11.1 19.2,-0.3 -12.1,-14.9 1.7,-7.9 6.3,3 10.8,15 21.6,30.1 32.4,45.1 l -1.4,1 z m -6.3,-88.2 c 7.7,-2.4 14.1,14.3 21.3,19.7 9.5,11 18.9,22.1 28.4,33.1 -6.5,6.7 -26.2,-9.1 -21.6,7.6 3.5,17.5 -7.4,10.7 -13.5,0.2 -12,-14 -24.1,-28.1 -36.2,-42.1 7.5,-3.5 13.4,13.9 20.3,18.4 8.7,10.2 17.4,20.3 26.1,30.5 -0.1,-10.5 -3.7,-25 11.5,-17.6 15.9,4.8 -5.1,-11.1 -8,-16.8 -9.4,-11 -18.9,-22 -28.3,-33 z m 11.5,-11 c 7.5,-3 15.4,12.9 23.1,17.6 9.7,11.7 14.3,12.7 10.3,-3.7 -4.5,-17.2 1.8,-12.4 10.7,-2.1 7.8,7.5 15.7,15.1 23.5,22.6 -7.5,3 -15.4,-12.9 -23.1,-17.6 -11.7,-15.7 -6.9,2.3 -6.1,12.2 4.8,17.8 -9,-2.4 -14.9,-6.4 -7.8,-7.5 -15.7,-15.1 -23.5,-22.6 z m 61,-14.1 c -9.1,3.1 -26.8,-4 -7.9,-3.1 7.3,-1.3 -13.6,-11.8 -17.6,-16.8 -6.1,-10.4 13.4,6.2 17.8,9.7 6.4,11 19.1,2.5 26.8,9.3 -15.3,-1.3 -14.1,2.6 -1.8,10 8.4,3.4 19.2,19.2 4.7,8 -7.3,-5.7 -14.7,-11.4 -22,-17.1 z m 37.4,-18.9 c -5.5,-13 16.6,-12.5 -2.3,-19.3 -12.5,-7.5 -25,-15.1 -37.5,-22.6 6.7,-4.5 17.9,9.2 26.4,12 12.5,7.5 25,15 37.5,22.5 -11.2,0.6 -9.3,23.4 -13.9,10.3 1.6,-8.7 13,-15.6 -4.6,-11.1 -6.4,0.4 2.7,15.6 -5.6,8.2 z m 44.2,-48.1 c -15.8,-6 -31.3,-15.2 -47.2,-19.3 -7.3,0.5 -26,11.2 -25.7,4.9 4.3,-4.3 30.8,-5.4 16.3,-10.1 -18,-6.6 -2.6,-7.7 7,-0.6 16.9,7.3 33.9,14.7 50.9,22.1 l -0.7,1.6 z m 8.6,-40.8 c -21.6,-6 -43.2,-12.1 -64.8,-18.1 5.2,-6.2 19.7,4.1 28.7,4.6 12.3,3.4 24.7,6.9 37,10.3 -5.9,-6.2 -15.1,-24 -3,-10.5 10,8.9 8.6,18.4 -5.2,20.7 -17.8,6 -2.5,-4.2 6.6,-6.7 z m -54.6,-70.5 c 4.4,-6.9 20.1,1.4 29.1,0.7 14.3,2 28.7,4 43.1,6 -0.4,9.4 -25.7,10.5 -11.2,20 14.2,10.9 1.5,13 -10,9.1 -18.3,-2.5 -36.6,-5.1 -54.9,-7.7 4.2,-6.9 20,1.4 29,0.7 12.7,1.8 25.4,3.5 38.1,5.3 -7.1,-7.7 -19.2,-16.2 -3,-20.8 15,-6.9 -11.2,-4.9 -17.1,-7.3 -14.4,-2 -28.7,-4 -43.1,-6 z m 1.5,-51 c 3.6,-7.3 20.1,-0.9 28.9,-2.6 14.6,0.4 29.1,0.7 43.6,1.1 0.7,9.3 -24.4,13.3 -8.9,21.1 15.4,9.2 2.9,12.6 -8.9,10.2 -18.4,-0.5 -36.9,-0.9 -55.4,-1.4 3.6,-7.3 20.1,-0.9 28.9,-2.6 9.2,3 20.7,-7.8 22.6,-13 -7.5,-7.8 -15.3,-14.6 -26.9,-12.2 -7.9,-0.2 -15.9,-0.4 -23.9,-0.6 z m 42.7,1.1 c 7.7,10.5 15.7,11.8 24,1.1 -5,-1.3 -16.8,-0.6 -24,-1.1 z m 11.9,15 c -13.1,8.2 -13.6,12.1 2.8,10.4 19.8,2.3 2,-3.2 -2.8,-10.4 z m -0.4,-44.6 c -7.4,-0.7 6.7,-12.2 -10.8,-7.8 -14.6,0 -29.2,0 -43.8,0 3.4,-7.4 20.1,-1.3 28.8,-3.3 14.6,0 29.1,0 43.7,0 -9.2,6.3 4,24.8 -6.5,16.1 -3.4,-8.2 3.2,-20.3 -9.8,-7.3 l -0.9,1.4 z m 12.8,-41.1 c -22.4,0 -44.9,0 -67.3,0 3.4,-7.4 20.1,-1.3 28.8,-3.3 12.9,0 25.7,0 38.5,0 -7.3,-4.4 -21,-19.1 -5.8,-9.3 12,5.9 13.4,15.4 0.6,21.3 -15.5,10.5 -3.5,-3.4 4.6,-8.2 z m -67.3,-33.3 c 2.2,-7.9 19.2,-1.1 27.1,-3.4 15.2,0 30.3,0 45.4,0 -2.2,7.9 -19.2,1.1 -27.1,3.4 -15.2,0 -30.3,0 -45.4,0 z m 0,-20.8 c 2.2,-7.9 19.2,-1.1 27.1,-3.4 12.9,0.8 23.7,0.9 7.8,-8.7 -13.1,-8.57 -12.5,-12.11 3.4,-10.06 11.4,0 22.9,0 34.3,0 -3.3,7.46 -20.1,1.37 -28.8,3.33 -19.4,-3.15 -3.8,6.43 3.9,13.03 15.8,9.5 -8,4.6 -15.2,5.8 -10.8,0 -21.7,0 -32.5,0 z"/>
<use id="shine" xlink:href="#shield" style="fill:url(#rg);stroke:#000000;stroke-width:3;"/>
</svg>
