<?xml version="1.0" encoding="UTF-8"?>
<svg xmlns="http://www.w3.org/2000/svg" xmlns:xlink="http://www.w3.org/1999/xlink" width="600" height="660">
<defs>
  <radialGradient id="rg" gradientUnits="userSpaceOnUse" cx="220" cy="220" r="405">
    <stop style="stop-color:#fff;stop-opacity:.3" offset="0"/>
    <stop style="stop-color:#fff;stop-opacity:.2" offset=".2"/>
    <stop style="stop-color:#666;stop-opacity:.1" offset=".6"/>
    <stop style="stop-color:#000;stop-opacity:.13" offset="1"/>
  </radialGradient>
  <clipPath id="clip-shield">
    <path id="shield" d="m2,2v257c0,286 298,398 298,398c0,0 298-112 298-398V2z"/>
  </clipPath>
</defs>
<g id="design" clip-path="url(#clip-shield)">
  <rect fill="#bbb" x="0" y="0" width="600" height="660"/>
  <path fill="#fff" d="m 85.333984,85.333984 0,16.666016 0,157 c 0,96.17322 42.247936,166.53737 92.505856,217.96094 39.5448,40.46198 83.89829,68.1339 114.31836,84.35547 l 7.8418,4.18164 7.8418,-4.18164 C 338.26187,545.09483 382.61536,517.42292 422.16016,476.96094 472.41808,425.53737 514.66602,355.17322 514.66602,259 l 0,-173.666016 z M 102,102 l 396,0 0,157 c 0,91.37269 -39.47772,156.91064 -87.75977,206.3125 C 372.41066,504.01947 329.38708,530.93865 300,546.60938 270.61292,530.93866 227.58934,504.01947 189.75977,465.3125 141.47772,415.91064 102,350.37269 102,259 Z M 52,52 52,259 C 52,471.45202 241.33706,575.39518 300,602.53711 358.66294,575.39518 548,471.45202 548,259 L 548,52 52,52 Z m 16.666016,16.666016 462.667964,0 0,190.333984 c 0,101.27495 -44.71511,175.854 -97.2539,229.61133 C 385.37228,538.44881 330.27501,569.3752 300,584.03906 269.72499,569.3752 214.62772,538.44881 165.91992,488.61133 113.38113,434.854 68.666016,360.27495 68.666016,259 l 0,-190.333984 z"/>
</g>
<use id="shine" xlink:href="#shield" fill="url(#rg)" stroke="#000" stroke-width="3"/>
</svg>