<?xml version="1.0" encoding="UTF-8"?>
<svg xmlns="http://www.w3.org/2000/svg" xmlns:xlink="http://www.w3.org/1999/xlink" width="600" height="660">
<defs>
  <radialGradient id="rg" gradientUnits="userSpaceOnUse" cx="220" cy="220" r="405">
    <stop style="stop-color:#ffffff;stop-opacity:.3" offset="0"/>
    <stop style="stop-color:#ffffff;stop-opacity:.2" offset=".2"/>
    <stop style="stop-color:#666666;stop-opacity:.1" offset=".6"/>
    <stop style="stop-color:#000000;stop-opacity:.13" offset="1"/>
  </radialGradient>
  <path id="shield" d="m2,2v257c0,286 298,398 298,398c0,0 298-112 298-398V2z"/>
  <pattern id="chequy" patternUnits="userSpaceOnUse" width="120" height="120">
    <rect width="60" height="60" x="0" y="0" style="fill:#dd0000;"/>
    <rect width="60" height="60" x="60" y="60" style="fill:#dd0000;"/>
  </pattern>
</defs>
<use xlink:href="#shield" style="fill:#ffcc00;"/>
<use xlink:href="#shield" style="fill:url(#chequy);"/>
<path style="fill:#008800;" d="m 2,2 v 257 c 0,105.08898 40.235573,186.6837 91.136719,247.86328 l 206.863281,-206.86328 z m 298,298 206.86328,206.86328 c 50.90115,-61.17958 91.13672,-142.7743 91.13672,-247.86328 v -257 z"/>
<g id="ferret">
    <path style="fill:#ffffff;" d="m 114.46051,319.08949 c -0.69576,-2.93795 -10.68887,3.67245 -8.63025,6.97765 2.05861,3.30519 8.12485,7.20674 12.30269,11.38458 l 8.99749,0.18362 c 1.92632,-7.18912 -6.70123,-3.84648 -10.09922,-9.73198 -2.43848,-2.93795 -1.87497,-5.87591 -2.57071,-8.81387 z"/>
    <path style="fill:#ffffff;" d="m 171.56702,309.35751 c 2.76091,7.35387 4.41442,13.19762 12.30269,27.54334 h 12.30268 l -14.50615,-27.54334 z"/>
    <path style="fill:none;stroke:#008800;stroke-width:2;" d="m 193.05082,340.94054 c -3.29151,-7.8563 -10.68403,-12.33705 -14.13891,-25.89074"/>
    <path style="fill:#000000;" d="m 240.7926,274.46929 c -1.77081,-4.43487 -4.74526,-5.25877 -7.43671,-6.93174 -28.3832,7.62215 -34.54034,16.89068 -51.13879,25.38578 -8.91594,3.93276 -38.05612,5.88277 -71.70448,7.39079 -9.45204,6.35765 -6.99971,16.04852 -4.49874,25.75302 6.59092,-1.13784 13.12073,-4.35821 20.19845,-13.77167 23.99493,0 32.79816,7.52851 66.47124,7.52851 4.76634,1.93319 25.44283,-38.56801 33.60288,-40.58051 4.83538,-1.06652 9.67076,0.68489 14.50615,-4.77418 z"/>
    <path style="fill:#ffffff;" d="m 18.976951,301.64538 c 22.150183,-22.15019 54.486404,0.16273 75.652355,-5.50866 31.323784,-22.45948 60.748254,-15.32375 90.525754,-7.3449 9.16333,-5.98564 19.5037,-31.64564 42.04949,-28.46144 9.9744,0.73939 23.90817,15.42427 6.97764,15.42427 -19.74141,-0.28765 -24.87103,6.54822 -38.74428,32.86837 -2.46348,7.14986 -5.79645,12.38924 1.28535,24.78901 4.89434,1.51167 8.9229,-0.22064 10.6501,7.52851 h -14.32254 c -3.29151,-7.8563 -10.68403,-12.33705 -14.13891,-25.89074 -19.29901,-5.0044 -41.98105,-15.69126 -56.1884,-4.9578 -2.69525,4.83327 -12.79381,14.38229 -22.03467,18.72947 3.09414,11.54747 13.58804,1.34869 13.58804,12.11907 h -13.95529 c -16.249265,-20.19845 -13.070205,-8.37968 -4.841528,-30.06463 0.0021,-7.05758 0.964407,-6.50661 -2.013381,-6.11553 -10.243348,1.34526 -17.931965,-0.77959 -32.073001,-4.03311 -28.935909,-6.18962 -19.226662,3.64864 -42.416729,0.91811 z"/>
    <path style="fill:#000000;" d="m 18.976951,301.64538 c 5.537548,-5.53755 11.711723,-8.29615 18.188825,-9.4078 3.238556,-0.55582 6.552841,-0.69991 9.901156,-0.57376 0.378357,2.09844 -0.609968,5.19157 -1.247098,6.97964 -3.521211,0.009 -5.74499,0.57343 -7.789209,1.2457 -2.044219,0.67227 -3.908879,1.45264 -6.711865,1.89429 -2.80298,0.44165 -6.54429,0.54456 -12.341809,-0.13807 z"/>
    <path style="fill:#000000;" d="m 216.73808,259.59589 c -2.80062,1.53871 -3.93213,4.0312 -3.30519,7.52851 0.17167,1.61617 2.61311,3.37587 4.40693,2.38709 2.20864,-2.03442 -0.84322,-0.72631 -0.99327,-3.53448 -0.15007,-2.80817 2.96892,-6.06019 -0.10847,-6.38112 z"/>
    <path style="fill:#000000;" d="m 231.57099,266.59187 a 2.1814673,2.1814585 0 0 1 -2.18147,2.18146 2.1814673,2.1814585 0 0 1 -2.18146,-2.18146 2.1814673,2.1814585 0 0 1 2.18146,-2.18145 2.1814673,2.1814585 0 0 1 2.18147,2.18145 z"/>
    <path style="fill:#000000;" d="m 239.70109,269.37636 c -0.4281,0.97792 1.08067,2.66483 2.11584,2.40405 0.81899,-0.20633 1.10622,-1.81307 0.57304,-2.46807 -0.56599,-0.6953 -2.32934,-0.75728 -2.68888,0.064 z"/>
</g>
<use xlink:href="#ferret" transform="translate(600,0)scale(-1,1)"/>
<use id="shine" xlink:href="#shield" style="fill:url(#rg);stroke:#000000;stroke-width:3;"/>
</svg>
