<?xml version="1.0" encoding="UTF-8" standalone="no"?>
<svg
   xmlns:dc="http://purl.org/dc/elements/1.1/"
   xmlns:cc="http://creativecommons.org/ns#"
   xmlns:rdf="http://www.w3.org/1999/02/22-rdf-syntax-ns#"
   xmlns:svg="http://www.w3.org/2000/svg"
   xmlns="http://www.w3.org/2000/svg"
   xmlns:xlink="http://www.w3.org/1999/xlink"
   xmlns:sodipodi="http://sodipodi.sourceforge.net/DTD/sodipodi-0.dtd"
   xmlns:inkscape="http://www.inkscape.org/namespaces/inkscape"
   width="600"
   height="660"
   id="svg2"
   version="1.1"
   inkscape:version="0.48.2 r9819"
   sodipodi:docname="House_Kidwell.svg">
  <metadata
     id="metadata24">
    <rdf:RDF>
      <cc:Work
         rdf:about="">
        <dc:format>image/svg+xml</dc:format>
        <dc:type
           rdf:resource="http://purl.org/dc/dcmitype/StillImage" />
        <dc:title></dc:title>
      </cc:Work>
    </rdf:RDF>
  </metadata>
  <sodipodi:namedview
     pagecolor="#ffffff"
     bordercolor="#666666"
     borderopacity="1"
     objecttolerance="10"
     gridtolerance="10"
     guidetolerance="10"
     inkscape:pageopacity="0"
     inkscape:pageshadow="2"
     inkscape:window-width="1366"
     inkscape:window-height="715"
     id="namedview22"
     showgrid="false"
     inkscape:zoom="0.35757577"
     inkscape:cx="-77.681792"
     inkscape:cy="18.518752"
     inkscape:window-x="-8"
     inkscape:window-y="-8"
     inkscape:window-maximized="1"
     inkscape:current-layer="layer2" />
  <defs
     id="defs4">
    <inkscape:path-effect
       effect="spiro"
       id="path-effect4043"
       is_visible="true" />
    <inkscape:path-effect
       is_visible="true"
       id="path-effect4039"
       effect="spiro" />
    <inkscape:path-effect
       effect="spiro"
       id="path-effect4035"
       is_visible="true" />
    <inkscape:path-effect
       is_visible="true"
       id="path-effect4031"
       effect="spiro" />
    <inkscape:path-effect
       effect="spiro"
       id="path-effect4027"
       is_visible="true" />
    <inkscape:path-effect
       is_visible="true"
       id="path-effect4023"
       effect="spiro" />
    <inkscape:path-effect
       effect="spiro"
       id="path-effect4019"
       is_visible="true" />
    <inkscape:path-effect
       is_visible="true"
       id="path-effect4015"
       effect="spiro" />
    <inkscape:path-effect
       effect="spiro"
       id="path-effect4011"
       is_visible="true" />
    <inkscape:path-effect
       effect="spiro"
       id="path-effect3982"
       is_visible="true" />
    <inkscape:path-effect
       is_visible="true"
       id="path-effect3935"
       effect="spiro" />
    <inkscape:path-effect
       effect="spiro"
       id="path-effect3931"
       is_visible="true" />
    <inkscape:path-effect
       is_visible="true"
       id="path-effect3927"
       effect="spiro" />
    <inkscape:path-effect
       effect="spiro"
       id="path-effect3923"
       is_visible="true" />
    <inkscape:path-effect
       effect="spiro"
       id="path-effect3921"
       is_visible="true" />
    <inkscape:path-effect
       effect="spiro"
       id="path-effect3919"
       is_visible="true" />
    <inkscape:path-effect
       effect="spiro"
       id="path-effect3917"
       is_visible="true" />
    <inkscape:path-effect
       effect="spiro"
       id="path-effect3915"
       is_visible="true" />
    <inkscape:path-effect
       is_visible="true"
       id="path-effect3903"
       effect="spiro" />
    <inkscape:path-effect
       effect="spiro"
       id="path-effect3899"
       is_visible="true" />
    <inkscape:path-effect
       is_visible="true"
       id="path-effect3895"
       effect="spiro" />
    <inkscape:path-effect
       effect="spiro"
       id="path-effect3879"
       is_visible="true" />
    <inkscape:path-effect
       effect="spiro"
       id="path-effect3090"
       is_visible="true" />
    <radialGradient
       id="rg"
       gradientUnits="userSpaceOnUse"
       cx="220"
       cy="220"
       r="405">
      <stop
         style="stop-color:#fff;stop-opacity:.3"
         offset="0"
         id="stop7" />
      <stop
         style="stop-color:#fff;stop-opacity:.2"
         offset=".2"
         id="stop9" />
      <stop
         style="stop-color:#666;stop-opacity:.1"
         offset=".6"
         id="stop11" />
      <stop
         style="stop-color:#000;stop-opacity:.13"
         offset="1"
         id="stop13" />
    </radialGradient>
    <path
       id="shield"
       d="m2,2v257c0,286 298,398 298,398c0,0 298-112 298-398V2z" />
    <radialGradient
       inkscape:collect="always"
       xlink:href="#rg-7"
       id="radialGradient3055-1"
       gradientUnits="userSpaceOnUse"
       cx="220"
       cy="220"
       r="405" />
    <radialGradient
       id="rg-7"
       gradientUnits="userSpaceOnUse"
       cx="220"
       cy="220"
       r="405">
      <stop
         style="stop-color:#fff;stop-opacity:.3"
         offset="0"
         id="stop7-4" />
      <stop
         style="stop-color:#fff;stop-opacity:.2"
         offset=".2"
         id="stop9-0" />
      <stop
         style="stop-color:#666;stop-opacity:.1"
         offset=".6"
         id="stop11-9" />
      <stop
         style="stop-color:#000;stop-opacity:.13"
         offset="1"
         id="stop13-4" />
    </radialGradient>
    <radialGradient
       r="405"
       cy="220"
       cx="220"
       gradientUnits="userSpaceOnUse"
       id="radialGradient3074"
       xlink:href="#rg-7"
       inkscape:collect="always" />
    <inkscape:path-effect
       is_visible="true"
       id="path-effect10120-1"
       effect="spiro" />
    <inkscape:path-effect
       effect="spiro"
       id="path-effect10118-3"
       is_visible="true" />
    <inkscape:path-effect
       effect="spiro"
       id="path-effect10116-9"
       is_visible="true" />
    <inkscape:path-effect
       effect="spiro"
       id="path-effect10114-7"
       is_visible="true" />
    <inkscape:path-effect
       effect="spiro"
       id="path-effect10112-7"
       is_visible="true" />
    <inkscape:path-effect
       effect="spiro"
       id="path-effect10110-2"
       is_visible="true" />
    <linearGradient
       inkscape:collect="always"
       xlink:href="#linearGradient4719-5"
       id="linearGradient4039"
       gradientUnits="userSpaceOnUse"
       gradientTransform="matrix(2.3257341,0,0,2.2943177,447.69485,-1820.2799)"
       x1="-145.25935"
       y1="984.24286"
       x2="-64.14286"
       y2="984.14789" />
    <linearGradient
       inkscape:collect="always"
       id="linearGradient4719-5">
      <stop
         style="stop-color:#666666;stop-opacity:1;"
         offset="0"
         id="stop4721-5" />
      <stop
         id="stop4809-1"
         offset="0.39344174"
         style="stop-color:#666666;stop-opacity:0.74901961;" />
      <stop
         style="stop-color:#666666;stop-opacity:0;"
         offset="1"
         id="stop4723-7" />
    </linearGradient>
    <radialGradient
       inkscape:collect="always"
       xlink:href="#linearGradient4801-8"
       id="radialGradient4041"
       gradientUnits="userSpaceOnUse"
       gradientTransform="matrix(-0.72153181,1.2650715,-2.2729984,-1.2616144,1712.0113,1733.7841)"
       cx="-307.14288"
       cy="782.36218"
       fx="-307.14288"
       fy="782.36218"
       r="63" />
    <linearGradient
       inkscape:collect="always"
       id="linearGradient4801-8">
      <stop
         style="stop-color:#000000;stop-opacity:1;"
         offset="0"
         id="stop4803-2" />
      <stop
         style="stop-color:#000000;stop-opacity:0;"
         offset="1"
         id="stop4805-4" />
    </linearGradient>
    <inkscape:path-effect
       effect="spiro"
       id="path-effect10108-4"
       is_visible="true" />
    <linearGradient
       inkscape:collect="always"
       xlink:href="#linearGradient4719-5"
       id="linearGradient4044"
       gradientUnits="userSpaceOnUse"
       gradientTransform="matrix(-2.4055369,0,0,-1.6485021,142.06168,1726.5307)"
       x1="-145.25935"
       y1="984.24286"
       x2="-64.14286"
       y2="984.14789" />
    <radialGradient
       inkscape:collect="always"
       xlink:href="#linearGradient4801-8"
       id="radialGradient4046"
       gradientUnits="userSpaceOnUse"
       gradientTransform="matrix(0.74628962,-0.90897301,2.3509914,0.90648896,-1165.637,-827.11785)"
       cx="-307.14288"
       cy="782.36218"
       fx="-307.14288"
       fy="782.36218"
       r="63" />
    <inkscape:path-effect
       effect="spiro"
       id="path-effect10102-7"
       is_visible="true" />
    <linearGradient
       inkscape:collect="always"
       xlink:href="#linearGradient4719-5"
       id="linearGradient4049"
       gradientUnits="userSpaceOnUse"
       gradientTransform="matrix(2.334989,0,0,-1.6146975,449.44065,1692.189)"
       x1="-145.25935"
       y1="984.24286"
       x2="-64.14286"
       y2="984.14789" />
    <radialGradient
       inkscape:collect="always"
       xlink:href="#linearGradient4801-8"
       id="radialGradient4051"
       gradientUnits="userSpaceOnUse"
       gradientTransform="matrix(-0.72440295,-0.89033332,-2.2820431,0.88790031,1718.7881,-809.09364)"
       cx="-307.14288"
       cy="782.36218"
       fx="-307.14288"
       fy="782.36218"
       r="63" />
    <inkscape:path-effect
       is_visible="true"
       id="path-effect10096-8"
       effect="spiro" />
    <linearGradient
       inkscape:collect="always"
       xlink:href="#linearGradient4719-5"
       id="linearGradient4054"
       gradientUnits="userSpaceOnUse"
       gradientTransform="matrix(-2.409599,0,0,2.2818507,139.61083,-1810.8163)"
       x1="-145.25935"
       y1="984.24286"
       x2="-64.14286"
       y2="984.14789" />
    <radialGradient
       inkscape:collect="always"
       xlink:href="#linearGradient4801-8"
       id="radialGradient4056"
       gradientUnits="userSpaceOnUse"
       gradientTransform="matrix(0.74754985,1.2581972,2.3549614,-1.2547588,-1170.296,1723.935)"
       cx="-307.14288"
       cy="782.36218"
       fx="-307.14288"
       fy="782.36218"
       r="63" />
    <inkscape:path-effect
       is_visible="true"
       id="path-effect10090-3"
       effect="spiro" />
    <inkscape:path-effect
       effect="spiro"
       id="path-effect10084-1"
       is_visible="true" />
    <inkscape:path-effect
       effect="spiro"
       id="path-effect10082-1"
       is_visible="true" />
    <radialGradient
       inkscape:collect="always"
       xlink:href="#linearGradient4801-8"
       id="radialGradient4061"
       gradientUnits="userSpaceOnUse"
       gradientTransform="matrix(-0.76516322,1.2901254,-2.4104477,-1.2865998,1806.8444,1757.4704)"
       cx="-307.14288"
       cy="782.36218"
       fx="-307.14288"
       fy="782.36218"
       r="63" />
    <inkscape:path-effect
       effect="spiro"
       id="path-effect10080-4"
       is_visible="true" />
    <clipPath
       id="clip-shield">
      <path
         inkscape:connector-curvature="0"
         id="shield-1"
         d="m 2,2 v 257 c 0,286 298,398 298,398 0,0 298,-112 298,-398 V 2 z" />
    </clipPath>
    <radialGradient
       id="rg-74"
       gradientUnits="userSpaceOnUse"
       cx="220"
       cy="220"
       r="405">
      <stop
         style="stop-color:#fff;stop-opacity:.3"
         offset="0"
         id="stop7-0" />
      <stop
         style="stop-color:#fff;stop-opacity:.2"
         offset=".2"
         id="stop9-9" />
      <stop
         style="stop-color:#666;stop-opacity:.1"
         offset=".6"
         id="stop11-4" />
      <stop
         style="stop-color:#000;stop-opacity:.13"
         offset="1"
         id="stop13-8" />
    </radialGradient>
    <radialGradient
       id="radialGradient3024"
       gradientUnits="userSpaceOnUse"
       cx="220"
       cy="220"
       r="405">
      <stop
         style="stop-color:#fff;stop-opacity:.3"
         offset="0"
         id="stop3026" />
      <stop
         style="stop-color:#fff;stop-opacity:.2"
         offset=".2"
         id="stop3028" />
      <stop
         style="stop-color:#666;stop-opacity:.1"
         offset=".6"
         id="stop3030" />
      <stop
         style="stop-color:#000;stop-opacity:.13"
         offset="1"
         id="stop3032" />
    </radialGradient>
    <radialGradient
       r="405"
       cy="220"
       cx="220"
       gradientUnits="userSpaceOnUse"
       id="radialGradient3041"
       xlink:href="#rg-74"
       inkscape:collect="always" />
    <clipPath
       clipPathUnits="userSpaceOnUse"
       id="clipPath3862">
      <path
         style="fill:#000000;display:inline"
         inkscape:connector-curvature="0"
         id="path3864"
         d="m 2,2 v 257 c 0,286 298,398 298,398 0,0 298,-112 298,-398 V 2 z" />
    </clipPath>
    <inkscape:path-effect
       is_visible="true"
       id="path-effect3927-1"
       effect="spiro" />
    <inkscape:path-effect
       effect="spiro"
       id="path-effect3923-7"
       is_visible="true" />
    <inkscape:path-effect
       effect="spiro"
       id="path-effect3931-4"
       is_visible="true" />
    <inkscape:path-effect
       is_visible="true"
       id="path-effect3935-0"
       effect="spiro" />
    <clipPath
       clipPathUnits="userSpaceOnUse"
       id="clipPath3671">
      <path
         style="fill:#00ff00;display:inline"
         inkscape:connector-curvature="0"
         id="path3673"
         d="m 2,2 v 257 c 0,286 298,398 298,398 0,0 298,-112 298,-398 V 2 z" />
    </clipPath>
  </defs>
  <g
     inkscape:groupmode="layer"
     id="layer2"
     inkscape:label="Elements"
     style="display:inline">
    <path
       d="m 2,2 v 257 c 0,286 298,398 298,398 0,0 298,-112 298,-398 V 2 z"
       id="use16"
       inkscape:connector-curvature="0"
       style="fill:#000000;display:inline" />
    <g
       style="display:inline"
       id="g4087"
       transform="matrix(0.99169123,0,0,0.9891217,2.492631,3.5843998)">
      <g
         id="g4082">
        <path
           inkscape:connector-curvature="0"
           style="fill:#000000;stroke:#333333;stroke-width:5;stroke-linecap:butt;stroke-linejoin:miter;stroke-miterlimit:4;stroke-opacity:1;stroke-dasharray:none;display:inline"
           d="m 2,85.75 0,81.25 596,0 0,-81.25 -596,0 z M 2,248.25 2,259 c 0,24.79997 2.250921,48.27628 6.34375,70.5 l 583.3125,0 C 595.74908,307.27628 598,283.79997 598,259 l 0,-10.75 -596,0 z m 31.25,162.5 c 13.161989,30.07871 29.670791,57.12646 48.03125,81.25 l 437.4375,0 c 18.36046,-24.12354 34.86926,-51.17129 48.03125,-81.25 l -533.5,0 z m 127.34375,162.5 c 58.5913,47.8181 115.04759,73.61537 133.21875,81.25 l 12.375,0 c 18.17116,-7.63463 74.62745,-33.4319 133.21875,-81.25 l -278.8125,0 z"
           id="path3905" />
        <path
           inkscape:connector-curvature="0"
           style="fill:#000000;stroke:#333333;stroke-width:5;stroke-linecap:butt;stroke-linejoin:miter;stroke-miterlimit:4;stroke-opacity:1;stroke-dasharray:none;display:inline"
           d="m 2,2 0,83.75 149,0 L 151,2 2,2 z m 298,0 0,83.75 149,0 L 449,2 300,2 z M 2,167 l 0,81.25 149,0 0,-81.25 -149,0 z m 298,0 0,81.25 149,0 0,-81.25 -149,0 z M 8.34375,329.5 c 5.386729,29.24949 13.988923,56.30095 24.90625,81.25 l 117.75,0 0,-81.25 -142.65625,0 z m 291.65625,0 0,81.25 149,0 0,-81.25 -149,0 z M 43.71875,432.75 c 0.922191,1.78529 1.867341,3.55076 2.8125,5.3125 -0.944233,-1.76217 -1.891128,-3.52688 -2.8125,-5.3125 z m 9.25,16.84375 c 0.778395,1.33996 1.552696,2.67435 2.34375,4 -0.790857,-1.32705 -1.565558,-2.65863 -2.34375,-4 z M 81.28125,492 C 102.84358,520.33044 126.92396,544.62428 151,565.21875 L 151,492 81.28125,492 z M 300,492 l 0,81.25 139.40625,0 c 3.19566,-2.60807 6.39221,-5.29268 9.59375,-8.03125 L 449,492 300,492 z m 0,162.5 0,2.5 c 0,0 2.28829,-0.86174 6.1875,-2.5 l -6.1875,0 z"
           id="path4021" />
        <path
           inkscape:connector-curvature="0"
           style="fill:#000000;stroke:#333333;stroke-width:5;stroke-linecap:butt;stroke-linejoin:miter;stroke-miterlimit:4;stroke-opacity:1;stroke-dasharray:none;display:inline"
           d="m 76.5,85.75 0,81.25 149,0 0,-81.25 -149,0 z m 298,0 0,81.25 149,0 0,-81.25 -149,0 z m -298,162.5 0,81.25 149,0 0,-81.25 -149,0 z m 298,0 0,81.25 149,0 0,-81.25 -149,0 z m -298,162.5 0,74.8125 c 1.583925,2.16525 3.167709,4.31749 4.78125,6.4375 l 144.21875,0 0,-81.25 -149,0 z m 298,0 0,81.25 144.21875,0 c 1.61354,-2.12001 3.19732,-4.27225 4.78125,-6.4375 l 0,-74.8125 -149,0 z m -213.90625,162.5 c 22.65792,18.4918 44.97749,33.68381 64.90625,45.8125 l 0,-45.8125 -64.90625,0 z m 213.90625,0 0,45.8125 c 19.92876,-12.12869 42.24833,-27.3207 64.90625,-45.8125 l -64.90625,0 z"
           id="path4046" />
      </g>
    </g>
    <g
       id="g3589"
       clip-path="url(#clipPath3671)">
      <g
         transform="translate(129.37836,84.73417)"
         id="g3687"
         style="display:inline">
        <path
           style="fill:#90ee90;fill-opacity:1;fill-rule:evenodd;stroke:#000000;stroke-width:1.71840835;stroke-linecap:butt;stroke-linejoin:miter;stroke-miterlimit:4;stroke-opacity:1;stroke-dasharray:none;display:inline"
           d="m 160.71875,255.90625 c 24.62578,13.87295 40.8115,14.28203 58.4375,19.9375 l 6.65625,-4.8125 c -21.0737,-8.47271 -36.25634,-6.42123 -58.96875,-21.15625 l -20.0625,-13.8125 c -24.6196,-13.86687 -40.81412,-14.28288 -58.4375,-19.9375 l -6.625,4.8125 c 21.07046,8.47141 36.23091,6.42868 58.9375,21.15625 z"
           id="path3653"
           inkscape:connector-curvature="0"
           sodipodi:nodetypes="ccccccccc" />
        <path
           inkscape:connector-curvature="0"
           sodipodi:nodetypes="cccccccccccc"
           id="path3159"
           d="m 392.07386,411.13704 c -3.06798,-1.69567 -7.76804,-6.19302 -10.22684,-8.55763 3.49608,-15.58594 2.38035,-17.53914 -5.26515,-45.17138 l -4.11744,0.45107 c 8.91736,31.59483 4.74646,37.54582 4.64997,39.40178 -22.7162,-29.71603 -50.68247,-48.70411 -72.75596,-74.49919 l -5.02649,4.90552 c 22.27863,28.98683 43.52843,36.12118 58.70645,58.03791 -17.1814,13.54869 -27.59542,27.16122 -41.82917,41.85973 l 3.93293,4.71689 c 25.89143,-27.19371 29.15411,-31.18599 42.80122,-40.55713 4.91439,5.23846 14.2565,18.3793 23.01093,23.95291"
           style="fill:#90ee90;fill-opacity:1;fill-rule:evenodd;stroke:#000000;stroke-width:1.71840835;stroke-linecap:butt;stroke-linejoin:miter;stroke-miterlimit:4;stroke-opacity:1;stroke-dasharray:none" />
        <path
           inkscape:connector-curvature="0"
           sodipodi:nodetypes="cccccccccccc"
           id="path3161"
           d="m 385.30754,415.34673 c 13.83144,10.07203 50.01671,31.81024 56.80333,57.96031 -16.4258,-5.127 -29.90283,5.8324 -41.73407,15.49581 l 4.4175,4.33171 c 20.94249,-19.57203 29.52642,-15.63049 39.27798,-11.77572 8.07302,32.21993 1.86022,39.58789 19.41213,69.59445 3.96313,-2.10289 6.08739,-3.25437 9.26748,-4.36311 -13.82528,-15.60638 -14.25752,-32.32603 -16.88355,-49.23955 9.17253,6.35092 20.14323,10.72574 37.12522,12.01071 l 1.6277,-3.82251 c -17.09951,-1.19846 -30.10863,-7.64995 -39.40322,-14.57247 -4.39182,-23.95223 -14.82424,-52.24231 -65.22281,-81.15247"
           style="fill:#90ee90;fill-opacity:1;fill-rule:evenodd;stroke:#000000;stroke-width:1.71840835;stroke-linecap:butt;stroke-linejoin:miter;stroke-miterlimit:4;stroke-opacity:1;stroke-dasharray:none" />
        <path
           inkscape:connector-curvature="0"
           sodipodi:nodetypes="cccccccccccc"
           id="path3163"
           d="M 307.01613,325.64623 C 286.28865,303.02453 278.4765,276.83054 202.29638,265.76288 l -7.63833,7.50607 c 13.09289,0.83545 32.25953,3.9379 48.75706,9.70936 -10.76313,6.588 -25.84236,3.99234 -35.87277,4.27393 l -0.45389,3.44876 c 7.8825,0.60446 25.92624,5.22501 42.58307,-5.24782 11.62948,5.06555 23.4829,12.60825 31.67597,21.67515 -16.48317,14.27655 -16.62969,26.07865 -29.86814,39.17223 l 4.60982,4.5204 c 18.45765,-20.36196 13.75226,-24.27732 30.3704,-37.47006 6.10129,7.26262 11.6757,14.12798 14.87888,16.83913"
           style="fill:#90ee90;fill-opacity:1;fill-rule:evenodd;stroke:#000000;stroke-width:1.71840835;stroke-linecap:butt;stroke-linejoin:miter;stroke-miterlimit:4;stroke-opacity:1;stroke-dasharray:none" />
        <path
           inkscape:transform-center-x="10.552666"
           style="fill:#90ee90;fill-rule:evenodd;stroke:#000000;stroke-width:1.71840835;stroke-linecap:butt;stroke-linejoin:miter;stroke-miterlimit:4;stroke-opacity:1;stroke-dasharray:none"
           id="path3165"
           d="m 494.01947,507.57856 c -10.7429,-17.88132 -2.93115,-24.67517 -2.93115,-24.67517 2.94346,-1.20659 5.29137,0.18673 7.2224,3.40009 4.32219,6.03124 13.73722,-9.26083 22.5725,-8.35892 3.57447,11.04345 -0.78048,13.24369 -1.89282,19.06031 12.73959,2.42908 19.58392,11.74907 26.65883,20.79957 -9.90802,6.00532 -19.77771,12.18129 -31.74403,9.02225 -0.34286,6.8559 -0.36775,13.78469 -7.15386,19.16469 -10.65143,0.95117 -12.22954,-20.96691 -17.37766,-19.40118 -2.19604,1.8538 -3.99424,4.75414 -7.16688,4.61396 -4.2871,-0.13975 -8.84907,-12.41094 11.40952,-23.13608 l 7.4571,16.98323 -5.61694,-16.12525 34.02348,7.06588 -34.04665,-8.23497 17.0745,-16.74678 -18.48834,16.56837 z"
           inkscape:connector-curvature="0" />
        <path
           inkscape:transform-center-x="-16.916758"
           inkscape:connector-curvature="0"
           inkscape:transform-center-y="-3.5100312"
           style="fill:#90ee90;fill-rule:evenodd;stroke:#000000;stroke-width:1.71840835;stroke-linecap:butt;stroke-linejoin:miter;stroke-miterlimit:4;stroke-opacity:1;stroke-dasharray:none"
           id="path3167"
           d="m 374.22622,357.51689 c -10.90638,20.45176 -21.84313,16.88694 -21.84313,16.88694 -2.83115,-2.11613 -2.8443,-5.1497 -0.88461,-8.8255 3.27964,-7.56404 -16.67236,-7.8032 -20.85916,-16.73893 8.48378,-9.71423 13.06811,-6.8204 19.24707,-9.08243 -4.96117,-13.52923 0.0123,-25.37549 4.59723,-37.28763 11.38253,6.01309 22.90578,11.89218 26.72965,25.1012 6.72998,-3.58905 13.34776,-7.5228 22.35127,-4.12786 6.99018,9.60839 -12.998,23.63108 -8.56528,27.64328 3.02099,1.03418 6.81231,1.09147 8.49078,4.19527 2.31551,4.16571 -6.77431,15.52239 -28.56697,2.34025 l 11.92707,-16.80728 -12.16043,14.56346 -12.69836,-36.46265 11.59733,37.15243 -25.71307,-6.70816 26.35061,8.15761 z" />
        <path
           inkscape:connector-curvature="0"
           style="fill:#90ee90;fill-rule:evenodd;stroke:#000000;stroke-width:1.71840835;stroke-linecap:butt;stroke-linejoin:miter;stroke-miterlimit:4;stroke-opacity:1;stroke-dasharray:none"
           id="path3169"
           d="m 207.02182,288.48591 c 17.77387,-10.9197 13.97141,-20.54885 13.97141,-20.54885 -2.05632,-2.42724 -4.78216,-2.27258 -7.9767,-0.31042 -6.61505,3.36119 -7.92462,-14.54904 -16.18157,-17.81985 -8.26108,8.15423 -5.4099,12.11369 -7.10292,17.78852 -12.42579,-3.71439 -22.79476,1.40341 -33.24421,6.17586 6.02628,9.89528 11.93995,19.92432 24.01581,22.63458 -2.8548,6.24262 -6.02549,12.40345 -2.48168,20.30523 9.01499,5.75221 20.51512,-12.97313 24.36261,-9.21126 1.09478,2.6571 1.35435,6.05978 4.2347,7.39728 3.86921,1.85149 13.5724,-6.93727 0.53475,-25.7909 l -14.44393,11.63668 12.41542,-11.72318 -33.45207,-9.40649 34.01136,8.37955 -7.43706,-22.73059 8.77408,23.22384 z" />
        <path
           inkscape:connector-curvature="0"
           style="fill:#90ee90;fill-rule:evenodd;stroke:#000000;stroke-width:1.71840835;stroke-linecap:butt;stroke-linejoin:miter;stroke-miterlimit:4;stroke-opacity:1;stroke-dasharray:none"
           id="path3171"
           d="m 318.65697,430.57955 c 16.72805,2.3824 17.00769,10.76343 17.00769,10.76343 -0.74523,2.46666 -2.82054,3.23072 -5.82696,2.80286 -5.99917,-0.3644 -1.19679,13.36604 -6.27737,18.45895 -8.7678,-3.39505 -7.92601,-7.2565 -11.01397,-10.92724 -8.03516,6.76684 -17.3901,6.30772 -26.69343,6.13115 1.28691,-9.29593 2.44706,-18.65487 10.54597,-24.56279 -4.13428,-3.71796 -8.47686,-7.27331 -8.3917,-14.28742 4.84361,-7.18122 19.42701,3.02419 21.07282,-1.01172 -0.0433,-2.32736 -0.94775,-4.93944 0.76119,-6.86206 2.27795,-2.62345 12.32196,0.77808 8.71396,18.99133 l -14.48487,-3.98885 13.00552,4.70728 -21.82316,17.77654 22.56984,-17.19385 1.80379,19.28807 -0.96932,-20.08568 z" />
        <path
           d="m 402.48872,491.30462 c 16.72804,2.3824 17.00768,10.76343 17.00768,10.76343 -0.74523,2.46666 -2.82054,3.23073 -5.82696,2.80286 -5.99916,-0.36439 -1.19679,13.36605 -6.27737,18.45896 -8.7678,-3.39505 -7.92601,-7.25651 -11.01397,-10.92724 -8.03516,6.76684 -17.3901,6.30771 -26.69343,6.13114 1.28691,-9.29593 2.44706,-18.65486 10.54597,-24.56278 -4.13428,-3.71796 -8.47686,-7.27331 -8.39169,-14.28742 4.8436,-7.18122 19.427,3.02418 21.07281,-1.01173 -0.0433,-2.32736 -0.94775,-4.93944 0.76119,-6.86205 2.27795,-2.62346 12.32196,0.77807 8.71396,18.99133 l -14.48486,-3.98886 13.00551,4.70729 -21.82316,17.77653 22.56984,-17.19384 1.80379,19.28806 -0.96931,-20.08568 z"
           id="path3173"
           style="fill:#90ee90;fill-rule:evenodd;stroke:#000000;stroke-width:1.71840835;stroke-linecap:butt;stroke-linejoin:miter;stroke-miterlimit:4;stroke-opacity:1;stroke-dasharray:none"
           inkscape:connector-curvature="0" />
        <path
           inkscape:connector-curvature="0"
           style="fill:#90ee90;fill-rule:evenodd;stroke:#000000;stroke-width:1.71840835;stroke-linecap:butt;stroke-linejoin:miter;stroke-miterlimit:4;stroke-opacity:1;stroke-dasharray:none"
           id="path3175"
           d="m 253.49324,348.73554 c 16.72805,2.38241 17.00769,10.76344 17.00769,10.76344 -0.74523,2.46666 -2.82054,3.23072 -5.82696,2.80286 -5.99917,-0.3644 -1.19679,13.36604 -6.27737,18.45895 -8.7678,-3.39505 -7.92601,-7.2565 -11.01397,-10.92724 -8.03516,6.76684 -17.3901,6.30772 -26.69343,6.13114 1.28691,-9.29593 2.44706,-18.65486 10.54597,-24.56278 -4.13428,-3.71796 -8.47686,-7.27331 -8.3917,-14.28742 4.8436,-7.18122 19.42701,3.02419 21.07282,-1.01172 -0.0433,-2.32736 -0.94775,-4.93944 0.76119,-6.86206 2.27795,-2.62345 12.32196,0.77808 8.71396,18.99133 l -14.48487,-3.98885 13.00552,4.70728 -21.82316,17.77654 22.56984,-17.19385 1.80379,19.28807 -0.96932,-20.08569 z" />
        <path
           style="fill:#90ee90;fill-opacity:1;fill-rule:evenodd;stroke:#000000;stroke-width:1.71840835;stroke-linecap:butt;stroke-linejoin:miter;stroke-miterlimit:4;stroke-opacity:1;stroke-dasharray:none"
           d="m -84.555176,80.828284 c 3.067986,1.695677 7.768044,6.193027 10.226841,8.557634 -3.496074,15.585942 -2.380352,17.539142 5.265152,45.171382 l 4.117445,-0.45108 c -8.917369,-31.59482 -4.746462,-37.545813 -4.649978,-39.401769 22.716205,29.716029 50.68247,48.704109 72.7559629,74.499179 l 5.0264855,-4.90551 C -14.091897,135.31128 -35.341698,128.17694 -50.519711,106.26021 -33.338317,92.711516 -22.92429,79.098988 -8.6905404,64.400479 L -12.623476,59.683587 C -38.514901,86.877302 -41.777587,90.869574 -55.424691,100.24072 -60.339083,95.002255 -69.681198,81.861422 -78.435619,76.287805"
           id="path3542"
           sodipodi:nodetypes="cccccccccccc"
           inkscape:connector-curvature="0" />
        <path
           style="fill:#90ee90;fill-opacity:1;fill-rule:evenodd;stroke:#000000;stroke-width:1.71840835;stroke-linecap:butt;stroke-linejoin:miter;stroke-miterlimit:4;stroke-opacity:1;stroke-dasharray:none"
           d="M -77.788857,76.618602 C -91.620296,66.546568 -127.80556,44.808358 -134.59218,18.658286 c 16.4258,5.127004 29.90283,-5.832401 41.734071,-15.4958094 l -4.417504,-4.3317083 C -118.2181,18.402796 -126.80203,14.461254 -136.55359,10.606486 c -8.07302,-32.219929 -1.86022,-39.587885 -19.41213,-69.594451 -3.96313,2.102898 -6.08739,3.254375 -9.26748,4.36311 13.82528,15.606381 14.25752,32.326028 16.88355,49.239552 -9.17253,-6.350922 -20.14323,-10.72574 -37.12522,-12.010709 l -1.6277,3.822509 c 17.09951,1.198457 30.10863,7.6499524 39.40322,14.57246834 4.39182,23.95223266 14.82424,52.24231666 65.222803,81.15247166"
           id="path3544"
           sodipodi:nodetypes="cccccccccccc"
           inkscape:connector-curvature="0" />
        <path
           style="fill:#90ee90;fill-opacity:1;fill-rule:evenodd;stroke:#000000;stroke-width:1.71840835;stroke-linecap:butt;stroke-linejoin:miter;stroke-miterlimit:4;stroke-opacity:1;stroke-dasharray:none"
           d="m 0.502557,166.3191 c 20.727482,22.6217 28.53963,48.81569 104.719753,59.88335 l 7.63833,-7.50608 c -13.092897,-0.83544 -32.259528,-3.9379 -48.757064,-9.70935 10.763133,-6.588 25.842358,-3.99234 35.872776,-4.27393 l 0.453888,-3.44876 C 92.547734,200.65987 74.504001,196.03932 57.847166,206.51215 46.217683,201.4466 34.364267,193.9039 26.171197,184.837 42.65437,170.56045 42.800891,158.75835 56.039341,145.66477 l -4.609828,-4.5204 C 32.971862,161.50633 37.677255,165.42169 21.059114,178.61443 14.957829,171.35181 9.3834136,164.48645 6.1802367,161.77529"
           id="path3546"
           sodipodi:nodetypes="cccccccccccc"
           inkscape:connector-curvature="0" />
        <path
           inkscape:connector-curvature="0"
           d="m -186.50078,-15.613236 c 10.7429,17.8813268 2.93115,24.6751769 2.93115,24.6751769 -2.94346,1.2065891 -5.29137,-0.1867312 -7.2224,-3.4000953 -4.32219,-6.0312399 -13.73722,9.2608314 -22.5725,8.3589204 -3.57447,-11.043453 0.78048,-13.24368683 1.89282,-19.0603064 -12.73959,-2.4290846 -19.58392,-11.7490716 -26.65883,-20.7995686 9.90802,-6.005324 19.77771,-12.181296 31.74403,-9.022249 0.34286,-6.855908 0.36775,-13.784691 7.15386,-19.164696 10.65143,-0.951169 12.22954,20.966912 17.37766,19.401185 2.19604,-1.853804 3.99424,-4.754139 7.16688,-4.613965 4.2871,0.139751 8.84907,12.41094 -11.40952,23.136079 l -7.4571,-16.983231 5.61694,16.125257 -34.02348,-7.06588 34.04665,8.234972 -17.0745,16.74677898 18.48834,-16.56837798 z"
           id="path3548"
           style="fill:#90ee90;fill-rule:evenodd;stroke:#000000;stroke-width:1.71840835;stroke-linecap:butt;stroke-linejoin:miter;stroke-miterlimit:4;stroke-opacity:1;stroke-dasharray:none"
           inkscape:transform-center-x="10.552666" />
        <path
           d="m -66.70753,134.44844 c 10.906372,-20.45176 21.843125,-16.88694 21.843125,-16.88694 2.831147,2.11613 2.844299,5.14969 0.884607,8.82549 -3.279633,7.56404 16.672364,7.8032 20.859165,16.73894 -8.483783,9.71423 -13.068106,6.8204 -19.247073,9.08243 4.961177,13.52923 -0.01231,25.37548 -4.597225,37.28763 -11.382537,-6.01309 -22.905781,-11.89218 -26.729655,-25.1012 -6.729976,3.58905 -13.347757,7.52279 -22.351264,4.12786 -6.99018,-9.6084 12.997995,-23.63108 8.565281,-27.64329 -3.020998,-1.03417 -6.812316,-1.09146 -8.490785,-4.19526 -2.315509,-4.16571 6.774316,-15.52239 28.566973,-2.34025 l -11.927072,16.80728 12.160426,-14.56346 12.698362,36.46265 -11.597325,-37.15243 25.713068,6.70815 -26.350608,-8.1576 z"
           id="path3550"
           style="fill:#90ee90;fill-rule:evenodd;stroke:#000000;stroke-width:1.71840835;stroke-linecap:butt;stroke-linejoin:miter;stroke-miterlimit:4;stroke-opacity:1;stroke-dasharray:none"
           inkscape:transform-center-y="-3.5100312"
           inkscape:connector-curvature="0"
           inkscape:transform-center-x="-16.916758" />
        <path
           d="m 100.49687,203.47942 c -17.773875,10.9197 -13.971411,20.54885 -13.971411,20.54885 2.056317,2.42724 4.78216,2.27257 7.976695,0.31042 6.615046,-3.36119 7.924626,14.54904 16.181576,17.81985 8.26108,-8.15423 5.4099,-12.11369 7.10292,-17.78852 12.42579,3.71439 22.79476,-1.40341 33.24421,-6.17586 -6.02628,-9.89529 -11.93995,-19.92432 -24.01581,-22.63458 2.8548,-6.24262 6.02549,-12.40345 2.48168,-20.30523 -9.01499,-5.75221 -20.51512,12.97313 -24.36261,9.21125 -1.09478,-2.6571 -1.35435,-6.05977 -4.23471,-7.39728 -3.869207,-1.85149 -13.572396,6.93728 -0.53474,25.79091 l 14.44393,-11.63668 -12.41543,11.72318 33.45208,9.40649 -34.01136,-8.37955 7.43706,22.73059 -8.77408,-23.22384 z"
           id="path3552"
           style="fill:#90ee90;fill-rule:evenodd;stroke:#000000;stroke-width:1.71840835;stroke-linecap:butt;stroke-linejoin:miter;stroke-miterlimit:4;stroke-opacity:1;stroke-dasharray:none"
           inkscape:connector-curvature="0" />
        <path
           d="m -11.138287,61.385782 c -16.728045,-2.382404 -17.007687,-10.763431 -17.007687,-10.763431 0.74523,-2.466662 2.820545,-3.230727 5.826965,-2.80286 5.999161,0.364395 1.196788,-13.366045 6.277367,-18.458954 8.7677966,3.395049 7.9260056,7.256502 11.0139698,10.927239 8.0351603,-6.766842 17.3900972,-6.307718 26.6934312,-6.131144 -1.28691,9.295931 -2.447065,18.654864 -10.545971,24.562784 4.134277,3.71796 8.476858,7.27331 8.391694,14.287422 -4.843601,7.181215 -19.4270035,-3.024188 -21.0728156,1.011722 0.043322,2.327359 0.9477528,4.93944 -0.7611876,6.862058 C -4.600472,83.504069 -14.644482,80.102541 -11.036481,61.889285 L 3.4483819,65.878138 -9.5571344,61.170856 12.266028,43.394321 -10.303814,60.588165 -12.107601,41.3001 l 0.969314,20.085682 z"
           id="path3554"
           style="fill:#90ee90;fill-rule:evenodd;stroke:#000000;stroke-width:1.71840835;stroke-linecap:butt;stroke-linejoin:miter;stroke-miterlimit:4;stroke-opacity:1;stroke-dasharray:none"
           inkscape:connector-curvature="0" />
        <path
           inkscape:connector-curvature="0"
           style="fill:#90ee90;fill-rule:evenodd;stroke:#000000;stroke-width:1.71840835;stroke-linecap:butt;stroke-linejoin:miter;stroke-miterlimit:4;stroke-opacity:1;stroke-dasharray:none"
           id="path3556"
           d="M -94.970028,0.66070704 C -111.69807,-1.7216968 -111.97771,-10.102724 -111.97771,-10.102724 c 0.74523,-2.466662 2.82054,-3.230727 5.82696,-2.80286 5.99916,0.364395 1.19679,-13.366045 6.277367,-18.458954 8.767797,3.395048 7.926005,7.256502 11.01397,10.927239 8.03516,-6.766842 17.390097,-6.307718 26.69343,-6.131144 -1.286909,9.295931 -2.447064,18.6548637 -10.545971,24.5627841 4.134278,3.7179597 8.476858,7.2733097 8.391695,14.2874209 -4.843601,7.181216 -19.427003,-3.0241873 -21.072816,1.011723 0.04332,2.327359 0.947753,4.93944 -0.761187,6.862058 -2.277951,2.623451 -12.321961,-0.778077 -8.713961,-18.991333 L -80.383359,5.1530632 -93.388875,0.44578062 -71.565713,-17.330754 -94.135555,-0.13691026 -95.939342,-19.424975 -94.970028,0.66070704 z" />
        <path
           d="m 54.025444,143.22978 c -16.728045,-2.3824 -17.007687,-10.76343 -17.007687,-10.76343 0.745229,-2.46666 2.820545,-3.23072 5.826965,-2.80286 5.999161,0.3644 1.196788,-13.36604 6.277367,-18.45895 8.767797,3.39505 7.926006,7.2565 11.01397,10.92724 8.03516,-6.76684 17.390097,-6.30772 26.693431,-6.13115 -1.28691,9.29593 -2.447065,18.65487 -10.545971,24.56279 4.134277,3.71796 8.476858,7.27331 8.391694,14.28742 -4.843601,7.18121 -19.427003,-3.02419 -21.072815,1.01172 0.04332,2.32736 0.947753,4.93944 -0.761188,6.86206 -2.277951,2.62345 -12.321961,-0.77808 -8.71396,-18.99133 l 14.484863,3.98885 -13.005516,-4.70728 21.823162,-17.77654 -22.569842,17.19385 -1.803787,-19.28807 0.969314,20.08568 z"
           id="path3558"
           style="fill:#90ee90;fill-rule:evenodd;stroke:#000000;stroke-width:1.71840835;stroke-linecap:butt;stroke-linejoin:miter;stroke-miterlimit:4;stroke-opacity:1;stroke-dasharray:none"
           inkscape:connector-curvature="0" />
      </g>
      <g
         id="g3748"
         transform="translate(-26.335146,175.14507)"
         style="display:inline">
        <path
           sodipodi:nodetypes="ccccccccc"
           inkscape:connector-curvature="0"
           id="path3750"
           d="m 160.71875,255.90625 c 24.62578,13.87295 40.8115,14.28203 58.4375,19.9375 l 6.65625,-4.8125 c -21.0737,-8.47271 -36.25634,-6.42123 -58.96875,-21.15625 l -20.0625,-13.8125 c -24.6196,-13.86687 -40.81412,-14.28288 -58.4375,-19.9375 l -6.625,4.8125 c 21.07046,8.47141 36.23091,6.42868 58.9375,21.15625 z"
           style="fill:#90ee90;fill-opacity:1;fill-rule:evenodd;stroke:#000000;stroke-width:1.71840835;stroke-linecap:butt;stroke-linejoin:miter;stroke-miterlimit:4;stroke-opacity:1;stroke-dasharray:none;display:inline" />
        <path
           style="fill:#90ee90;fill-opacity:1;fill-rule:evenodd;stroke:#000000;stroke-width:1.71840835;stroke-linecap:butt;stroke-linejoin:miter;stroke-miterlimit:4;stroke-opacity:1;stroke-dasharray:none"
           d="m 392.07386,411.13704 c -3.06798,-1.69567 -7.76804,-6.19302 -10.22684,-8.55763 3.49608,-15.58594 2.38035,-17.53914 -5.26515,-45.17138 l -4.11744,0.45107 c 8.91736,31.59483 4.74646,37.54582 4.64997,39.40178 -22.7162,-29.71603 -50.68247,-48.70411 -72.75596,-74.49919 l -5.02649,4.90552 c 22.27863,28.98683 43.52843,36.12118 58.70645,58.03791 -17.1814,13.54869 -27.59542,27.16122 -41.82917,41.85973 l 3.93293,4.71689 c 25.89143,-27.19371 29.15411,-31.18599 42.80122,-40.55713 4.91439,5.23846 14.2565,18.3793 23.01093,23.95291"
           id="path3752"
           sodipodi:nodetypes="cccccccccccc"
           inkscape:connector-curvature="0" />
        <path
           style="fill:#90ee90;fill-opacity:1;fill-rule:evenodd;stroke:#000000;stroke-width:1.71840835;stroke-linecap:butt;stroke-linejoin:miter;stroke-miterlimit:4;stroke-opacity:1;stroke-dasharray:none"
           d="m 385.30754,415.34673 c 13.83144,10.07203 50.01671,31.81024 56.80333,57.96031 -16.4258,-5.127 -29.90283,5.8324 -41.73407,15.49581 l 4.4175,4.33171 c 20.94249,-19.57203 29.52642,-15.63049 39.27798,-11.77572 8.07302,32.21993 1.86022,39.58789 19.41213,69.59445 3.96313,-2.10289 6.08739,-3.25437 9.26748,-4.36311 -13.82528,-15.60638 -14.25752,-32.32603 -16.88355,-49.23955 9.17253,6.35092 20.14323,10.72574 37.12522,12.01071 l 1.6277,-3.82251 c -17.09951,-1.19846 -30.10863,-7.64995 -39.40322,-14.57247 -4.39182,-23.95223 -14.82424,-52.24231 -65.22281,-81.15247"
           id="path3754"
           sodipodi:nodetypes="cccccccccccc"
           inkscape:connector-curvature="0" />
        <path
           style="fill:#90ee90;fill-opacity:1;fill-rule:evenodd;stroke:#000000;stroke-width:1.71840835;stroke-linecap:butt;stroke-linejoin:miter;stroke-miterlimit:4;stroke-opacity:1;stroke-dasharray:none"
           d="M 307.01613,325.64623 C 286.28865,303.02453 278.4765,276.83054 202.29638,265.76288 l -7.63833,7.50607 c 13.09289,0.83545 32.25953,3.9379 48.75706,9.70936 -10.76313,6.588 -25.84236,3.99234 -35.87277,4.27393 l -0.45389,3.44876 c 7.8825,0.60446 25.92624,5.22501 42.58307,-5.24782 11.62948,5.06555 23.4829,12.60825 31.67597,21.67515 -16.48317,14.27655 -16.62969,26.07865 -29.86814,39.17223 l 4.60982,4.5204 c 18.45765,-20.36196 13.75226,-24.27732 30.3704,-37.47006 6.10129,7.26262 11.6757,14.12798 14.87888,16.83913"
           id="path3756"
           sodipodi:nodetypes="cccccccccccc"
           inkscape:connector-curvature="0" />
        <path
           inkscape:connector-curvature="0"
           d="m 494.01947,507.57856 c -10.7429,-17.88132 -2.93115,-24.67517 -2.93115,-24.67517 2.94346,-1.20659 5.29137,0.18673 7.2224,3.40009 4.32219,6.03124 13.73722,-9.26083 22.5725,-8.35892 3.57447,11.04345 -0.78048,13.24369 -1.89282,19.06031 12.73959,2.42908 19.58392,11.74907 26.65883,20.79957 -9.90802,6.00532 -19.77771,12.18129 -31.74403,9.02225 -0.34286,6.8559 -0.36775,13.78469 -7.15386,19.16469 -10.65143,0.95117 -12.22954,-20.96691 -17.37766,-19.40118 -2.19604,1.8538 -3.99424,4.75414 -7.16688,4.61396 -4.2871,-0.13975 -8.84907,-12.41094 11.40952,-23.13608 l 7.4571,16.98323 -5.61694,-16.12525 34.02348,7.06588 -34.04665,-8.23497 17.0745,-16.74678 -18.48834,16.56837 z"
           id="path3758"
           style="fill:#90ee90;fill-rule:evenodd;stroke:#000000;stroke-width:1.71840835;stroke-linecap:butt;stroke-linejoin:miter;stroke-miterlimit:4;stroke-opacity:1;stroke-dasharray:none"
           inkscape:transform-center-x="10.552666" />
        <path
           d="m 374.22622,357.51689 c -10.90638,20.45176 -21.84313,16.88694 -21.84313,16.88694 -2.83115,-2.11613 -2.8443,-5.1497 -0.88461,-8.8255 3.27964,-7.56404 -16.67236,-7.8032 -20.85916,-16.73893 8.48378,-9.71423 13.06811,-6.8204 19.24707,-9.08243 -4.96117,-13.52923 0.0123,-25.37549 4.59723,-37.28763 11.38253,6.01309 22.90578,11.89218 26.72965,25.1012 6.72998,-3.58905 13.34776,-7.5228 22.35127,-4.12786 6.99018,9.60839 -12.998,23.63108 -8.56528,27.64328 3.02099,1.03418 6.81231,1.09147 8.49078,4.19527 2.31551,4.16571 -6.77431,15.52239 -28.56697,2.34025 l 11.92707,-16.80728 -12.16043,14.56346 -12.69836,-36.46265 11.59733,37.15243 -25.71307,-6.70816 26.35061,8.15761 z"
           id="path3760"
           style="fill:#90ee90;fill-rule:evenodd;stroke:#000000;stroke-width:1.71840835;stroke-linecap:butt;stroke-linejoin:miter;stroke-miterlimit:4;stroke-opacity:1;stroke-dasharray:none"
           inkscape:transform-center-y="-3.5100312"
           inkscape:connector-curvature="0"
           inkscape:transform-center-x="-16.916758" />
        <path
           d="m 207.02182,288.48591 c 17.77387,-10.9197 13.97141,-20.54885 13.97141,-20.54885 -2.05632,-2.42724 -4.78216,-2.27258 -7.9767,-0.31042 -6.61505,3.36119 -7.92462,-14.54904 -16.18157,-17.81985 -8.26108,8.15423 -5.4099,12.11369 -7.10292,17.78852 -12.42579,-3.71439 -22.79476,1.40341 -33.24421,6.17586 6.02628,9.89528 11.93995,19.92432 24.01581,22.63458 -2.8548,6.24262 -6.02549,12.40345 -2.48168,20.30523 9.01499,5.75221 20.51512,-12.97313 24.36261,-9.21126 1.09478,2.6571 1.35435,6.05978 4.2347,7.39728 3.86921,1.85149 13.5724,-6.93727 0.53475,-25.7909 l -14.44393,11.63668 12.41542,-11.72318 -33.45207,-9.40649 34.01136,8.37955 -7.43706,-22.73059 8.77408,23.22384 z"
           id="path3762"
           style="fill:#90ee90;fill-rule:evenodd;stroke:#000000;stroke-width:1.71840835;stroke-linecap:butt;stroke-linejoin:miter;stroke-miterlimit:4;stroke-opacity:1;stroke-dasharray:none"
           inkscape:connector-curvature="0" />
        <path
           d="m 318.65697,430.57955 c 16.72805,2.3824 17.00769,10.76343 17.00769,10.76343 -0.74523,2.46666 -2.82054,3.23072 -5.82696,2.80286 -5.99917,-0.3644 -1.19679,13.36604 -6.27737,18.45895 -8.7678,-3.39505 -7.92601,-7.2565 -11.01397,-10.92724 -8.03516,6.76684 -17.3901,6.30772 -26.69343,6.13115 1.28691,-9.29593 2.44706,-18.65487 10.54597,-24.56279 -4.13428,-3.71796 -8.47686,-7.27331 -8.3917,-14.28742 4.84361,-7.18122 19.42701,3.02419 21.07282,-1.01172 -0.0433,-2.32736 -0.94775,-4.93944 0.76119,-6.86206 2.27795,-2.62345 12.32196,0.77808 8.71396,18.99133 l -14.48487,-3.98885 13.00552,4.70728 -21.82316,17.77654 22.56984,-17.19385 1.80379,19.28807 -0.96932,-20.08568 z"
           id="path3764"
           style="fill:#90ee90;fill-rule:evenodd;stroke:#000000;stroke-width:1.71840835;stroke-linecap:butt;stroke-linejoin:miter;stroke-miterlimit:4;stroke-opacity:1;stroke-dasharray:none"
           inkscape:connector-curvature="0" />
        <path
           inkscape:connector-curvature="0"
           style="fill:#90ee90;fill-rule:evenodd;stroke:#000000;stroke-width:1.71840835;stroke-linecap:butt;stroke-linejoin:miter;stroke-miterlimit:4;stroke-opacity:1;stroke-dasharray:none"
           id="path3766"
           d="m 402.48872,491.30462 c 16.72804,2.3824 17.00768,10.76343 17.00768,10.76343 -0.74523,2.46666 -2.82054,3.23073 -5.82696,2.80286 -5.99916,-0.36439 -1.19679,13.36605 -6.27737,18.45896 -8.7678,-3.39505 -7.92601,-7.25651 -11.01397,-10.92724 -8.03516,6.76684 -17.3901,6.30771 -26.69343,6.13114 1.28691,-9.29593 2.44706,-18.65486 10.54597,-24.56278 -4.13428,-3.71796 -8.47686,-7.27331 -8.39169,-14.28742 4.8436,-7.18122 19.427,3.02418 21.07281,-1.01173 -0.0433,-2.32736 -0.94775,-4.93944 0.76119,-6.86205 2.27795,-2.62346 12.32196,0.77807 8.71396,18.99133 l -14.48486,-3.98886 13.00551,4.70729 -21.82316,17.77653 22.56984,-17.19384 1.80379,19.28806 -0.96931,-20.08568 z" />
        <path
           d="m 253.49324,348.73554 c 16.72805,2.38241 17.00769,10.76344 17.00769,10.76344 -0.74523,2.46666 -2.82054,3.23072 -5.82696,2.80286 -5.99917,-0.3644 -1.19679,13.36604 -6.27737,18.45895 -8.7678,-3.39505 -7.92601,-7.2565 -11.01397,-10.92724 -8.03516,6.76684 -17.3901,6.30772 -26.69343,6.13114 1.28691,-9.29593 2.44706,-18.65486 10.54597,-24.56278 -4.13428,-3.71796 -8.47686,-7.27331 -8.3917,-14.28742 4.8436,-7.18122 19.42701,3.02419 21.07282,-1.01172 -0.0433,-2.32736 -0.94775,-4.93944 0.76119,-6.86206 2.27795,-2.62345 12.32196,0.77808 8.71396,18.99133 l -14.48487,-3.98885 13.00552,4.70728 -21.82316,17.77654 22.56984,-17.19385 1.80379,19.28807 -0.96932,-20.08569 z"
           id="path3768"
           style="fill:#90ee90;fill-rule:evenodd;stroke:#000000;stroke-width:1.71840835;stroke-linecap:butt;stroke-linejoin:miter;stroke-miterlimit:4;stroke-opacity:1;stroke-dasharray:none"
           inkscape:connector-curvature="0" />
        <path
           inkscape:connector-curvature="0"
           sodipodi:nodetypes="cccccccccccc"
           id="path3770"
           d="m -84.555176,80.828284 c 3.067986,1.695677 7.768044,6.193027 10.226841,8.557634 -3.496074,15.585942 -2.380352,17.539142 5.265152,45.171382 l 4.117445,-0.45108 c -8.917369,-31.59482 -4.746462,-37.545813 -4.649978,-39.401769 22.716205,29.716029 50.68247,48.704109 72.7559629,74.499179 l 5.0264855,-4.90551 C -14.091897,135.31128 -35.341698,128.17694 -50.519711,106.26021 -33.338317,92.711516 -22.92429,79.098988 -8.6905404,64.400479 L -12.623476,59.683587 C -38.514901,86.877302 -41.777587,90.869574 -55.424691,100.24072 -60.339083,95.002255 -69.681198,81.861422 -78.435619,76.287805"
           style="fill:#90ee90;fill-opacity:1;fill-rule:evenodd;stroke:#000000;stroke-width:1.71840835;stroke-linecap:butt;stroke-linejoin:miter;stroke-miterlimit:4;stroke-opacity:1;stroke-dasharray:none" />
        <path
           inkscape:connector-curvature="0"
           sodipodi:nodetypes="cccccccccccc"
           id="path3772"
           d="M -77.788857,76.618602 C -91.620296,66.546568 -127.80556,44.808358 -134.59218,18.658286 c 16.4258,5.127004 29.90283,-5.832401 41.734071,-15.4958094 l -4.417504,-4.3317083 C -118.2181,18.402796 -126.80203,14.461254 -136.55359,10.606486 c -8.07302,-32.219929 -1.86022,-39.587885 -19.41213,-69.594451 -3.96313,2.102898 -6.08739,3.254375 -9.26748,4.36311 13.82528,15.606381 14.25752,32.326028 16.88355,49.239552 -9.17253,-6.350922 -20.14323,-10.72574 -37.12522,-12.010709 l -1.6277,3.822509 c 17.09951,1.198457 30.10863,7.6499524 39.40322,14.57246834 4.39182,23.95223266 14.82424,52.24231666 65.222803,81.15247166"
           style="fill:#90ee90;fill-opacity:1;fill-rule:evenodd;stroke:#000000;stroke-width:1.71840835;stroke-linecap:butt;stroke-linejoin:miter;stroke-miterlimit:4;stroke-opacity:1;stroke-dasharray:none" />
        <path
           inkscape:connector-curvature="0"
           sodipodi:nodetypes="cccccccccccc"
           id="path3774"
           d="m 0.502557,166.3191 c 20.727482,22.6217 28.53963,48.81569 104.719753,59.88335 l 7.63833,-7.50608 c -13.092897,-0.83544 -32.259528,-3.9379 -48.757064,-9.70935 10.763133,-6.588 25.842358,-3.99234 35.872776,-4.27393 l 0.453888,-3.44876 C 92.547734,200.65987 74.504001,196.03932 57.847166,206.51215 46.217683,201.4466 34.364267,193.9039 26.171197,184.837 42.65437,170.56045 42.800891,158.75835 56.039341,145.66477 l -4.609828,-4.5204 C 32.971862,161.50633 37.677255,165.42169 21.059114,178.61443 14.957829,171.35181 9.3834136,164.48645 6.1802367,161.77529"
           style="fill:#90ee90;fill-opacity:1;fill-rule:evenodd;stroke:#000000;stroke-width:1.71840835;stroke-linecap:butt;stroke-linejoin:miter;stroke-miterlimit:4;stroke-opacity:1;stroke-dasharray:none" />
        <path
           inkscape:transform-center-x="10.552666"
           style="fill:#90ee90;fill-rule:evenodd;stroke:#000000;stroke-width:1.71840835;stroke-linecap:butt;stroke-linejoin:miter;stroke-miterlimit:4;stroke-opacity:1;stroke-dasharray:none"
           id="path3776"
           d="m -186.50078,-15.613236 c 10.7429,17.8813268 2.93115,24.6751769 2.93115,24.6751769 -2.94346,1.2065891 -5.29137,-0.1867312 -7.2224,-3.4000953 -4.32219,-6.0312399 -13.73722,9.2608314 -22.5725,8.3589204 -3.57447,-11.043453 0.78048,-13.24368683 1.89282,-19.0603064 -12.73959,-2.4290846 -19.58392,-11.7490716 -26.65883,-20.7995686 9.90802,-6.005324 19.77771,-12.181296 31.74403,-9.022249 0.34286,-6.855908 0.36775,-13.784691 7.15386,-19.164696 10.65143,-0.951169 12.22954,20.966912 17.37766,19.401185 2.19604,-1.853804 3.99424,-4.754139 7.16688,-4.613965 4.2871,0.139751 8.84907,12.41094 -11.40952,23.136079 l -7.4571,-16.983231 5.61694,16.125257 -34.02348,-7.06588 34.04665,8.234972 -17.0745,16.74677898 18.48834,-16.56837798 z"
           inkscape:connector-curvature="0" />
        <path
           inkscape:transform-center-x="-16.916758"
           inkscape:connector-curvature="0"
           inkscape:transform-center-y="-3.5100312"
           style="fill:#90ee90;fill-rule:evenodd;stroke:#000000;stroke-width:1.71840835;stroke-linecap:butt;stroke-linejoin:miter;stroke-miterlimit:4;stroke-opacity:1;stroke-dasharray:none"
           id="path3778"
           d="m -66.70753,134.44844 c 10.906372,-20.45176 21.843125,-16.88694 21.843125,-16.88694 2.831147,2.11613 2.844299,5.14969 0.884607,8.82549 -3.279633,7.56404 16.672364,7.8032 20.859165,16.73894 -8.483783,9.71423 -13.068106,6.8204 -19.247073,9.08243 4.961177,13.52923 -0.01231,25.37548 -4.597225,37.28763 -11.382537,-6.01309 -22.905781,-11.89218 -26.729655,-25.1012 -6.729976,3.58905 -13.347757,7.52279 -22.351264,4.12786 -6.99018,-9.6084 12.997995,-23.63108 8.565281,-27.64329 -3.020998,-1.03417 -6.812316,-1.09146 -8.490785,-4.19526 -2.315509,-4.16571 6.774316,-15.52239 28.566973,-2.34025 l -11.927072,16.80728 12.160426,-14.56346 12.698362,36.46265 -11.597325,-37.15243 25.713068,6.70815 -26.350608,-8.1576 z" />
        <path
           inkscape:connector-curvature="0"
           style="fill:#90ee90;fill-rule:evenodd;stroke:#000000;stroke-width:1.71840835;stroke-linecap:butt;stroke-linejoin:miter;stroke-miterlimit:4;stroke-opacity:1;stroke-dasharray:none"
           id="path3780"
           d="m 100.49687,203.47942 c -17.773875,10.9197 -13.971411,20.54885 -13.971411,20.54885 2.056317,2.42724 4.78216,2.27257 7.976695,0.31042 6.615046,-3.36119 7.924626,14.54904 16.181576,17.81985 8.26108,-8.15423 5.4099,-12.11369 7.10292,-17.78852 12.42579,3.71439 22.79476,-1.40341 33.24421,-6.17586 -6.02628,-9.89529 -11.93995,-19.92432 -24.01581,-22.63458 2.8548,-6.24262 6.02549,-12.40345 2.48168,-20.30523 -9.01499,-5.75221 -20.51512,12.97313 -24.36261,9.21125 -1.09478,-2.6571 -1.35435,-6.05977 -4.23471,-7.39728 -3.869207,-1.85149 -13.572396,6.93728 -0.53474,25.79091 l 14.44393,-11.63668 -12.41543,11.72318 33.45208,9.40649 -34.01136,-8.37955 7.43706,22.73059 -8.77408,-23.22384 z" />
        <path
           inkscape:connector-curvature="0"
           style="fill:#90ee90;fill-rule:evenodd;stroke:#000000;stroke-width:1.71840835;stroke-linecap:butt;stroke-linejoin:miter;stroke-miterlimit:4;stroke-opacity:1;stroke-dasharray:none"
           id="path3782"
           d="m -11.138287,61.385782 c -16.728045,-2.382404 -17.007687,-10.763431 -17.007687,-10.763431 0.74523,-2.466662 2.820545,-3.230727 5.826965,-2.80286 5.999161,0.364395 1.196788,-13.366045 6.277367,-18.458954 8.7677966,3.395049 7.9260056,7.256502 11.0139698,10.927239 8.0351603,-6.766842 17.3900972,-6.307718 26.6934312,-6.131144 -1.28691,9.295931 -2.447065,18.654864 -10.545971,24.562784 4.134277,3.71796 8.476858,7.27331 8.391694,14.287422 -4.843601,7.181215 -19.4270035,-3.024188 -21.0728156,1.011722 0.043322,2.327359 0.9477528,4.93944 -0.7611876,6.862058 C -4.600472,83.504069 -14.644482,80.102541 -11.036481,61.889285 L 3.4483819,65.878138 -9.5571344,61.170856 12.266028,43.394321 -10.303814,60.588165 -12.107601,41.3001 l 0.969314,20.085682 z" />
        <path
           d="M -94.970028,0.66070704 C -111.69807,-1.7216968 -111.97771,-10.102724 -111.97771,-10.102724 c 0.74523,-2.466662 2.82054,-3.230727 5.82696,-2.80286 5.99916,0.364395 1.19679,-13.366045 6.277367,-18.458954 8.767797,3.395048 7.926005,7.256502 11.01397,10.927239 8.03516,-6.766842 17.390097,-6.307718 26.69343,-6.131144 -1.286909,9.295931 -2.447064,18.6548637 -10.545971,24.5627841 4.134278,3.7179597 8.476858,7.2733097 8.391695,14.2874209 -4.843601,7.181216 -19.427003,-3.0241873 -21.072816,1.011723 0.04332,2.327359 0.947753,4.93944 -0.761187,6.862058 -2.277951,2.623451 -12.321961,-0.778077 -8.713961,-18.991333 L -80.383359,5.1530632 -93.388875,0.44578062 -71.565713,-17.330754 -94.135555,-0.13691026 -95.939342,-19.424975 -94.970028,0.66070704 z"
           id="path3784"
           style="fill:#90ee90;fill-rule:evenodd;stroke:#000000;stroke-width:1.71840835;stroke-linecap:butt;stroke-linejoin:miter;stroke-miterlimit:4;stroke-opacity:1;stroke-dasharray:none"
           inkscape:connector-curvature="0" />
        <path
           inkscape:connector-curvature="0"
           style="fill:#90ee90;fill-rule:evenodd;stroke:#000000;stroke-width:1.71840835;stroke-linecap:butt;stroke-linejoin:miter;stroke-miterlimit:4;stroke-opacity:1;stroke-dasharray:none"
           id="path3786"
           d="m 54.025444,143.22978 c -16.728045,-2.3824 -17.007687,-10.76343 -17.007687,-10.76343 0.745229,-2.46666 2.820545,-3.23072 5.826965,-2.80286 5.999161,0.3644 1.196788,-13.36604 6.277367,-18.45895 8.767797,3.39505 7.926006,7.2565 11.01397,10.92724 8.03516,-6.76684 17.390097,-6.30772 26.693431,-6.13115 -1.28691,9.29593 -2.447065,18.65487 -10.545971,24.56279 4.134277,3.71796 8.476858,7.27331 8.391694,14.28742 -4.843601,7.18121 -19.427003,-3.02419 -21.072815,1.01172 0.04332,2.32736 0.947753,4.93944 -0.761188,6.86206 -2.277951,2.62345 -12.321961,-0.77808 -8.71396,-18.99133 l 14.484863,3.98885 -13.005516,-4.70728 21.823162,-17.77654 -22.569842,17.19385 -1.803787,-19.28807 0.969314,20.08568 z" />
      </g>
      <g
         id="g3860"
         transform="translate(285.09181,-5.6767598)"
         style="display:inline">
        <path
           sodipodi:nodetypes="ccccccccc"
           inkscape:connector-curvature="0"
           id="path3862"
           d="m 160.71875,255.90625 c 24.62578,13.87295 40.8115,14.28203 58.4375,19.9375 l 6.65625,-4.8125 c -21.0737,-8.47271 -36.25634,-6.42123 -58.96875,-21.15625 l -20.0625,-13.8125 c -24.6196,-13.86687 -40.81412,-14.28288 -58.4375,-19.9375 l -6.625,4.8125 c 21.07046,8.47141 36.23091,6.42868 58.9375,21.15625 z"
           style="fill:#90ee90;fill-opacity:1;fill-rule:evenodd;stroke:#000000;stroke-width:1.71840835;stroke-linecap:butt;stroke-linejoin:miter;stroke-miterlimit:4;stroke-opacity:1;stroke-dasharray:none;display:inline" />
        <path
           style="fill:#90ee90;fill-opacity:1;fill-rule:evenodd;stroke:#000000;stroke-width:1.71840835;stroke-linecap:butt;stroke-linejoin:miter;stroke-miterlimit:4;stroke-opacity:1;stroke-dasharray:none"
           d="m 392.07386,411.13704 c -3.06798,-1.69567 -7.76804,-6.19302 -10.22684,-8.55763 3.49608,-15.58594 2.38035,-17.53914 -5.26515,-45.17138 l -4.11744,0.45107 c 8.91736,31.59483 4.74646,37.54582 4.64997,39.40178 -22.7162,-29.71603 -50.68247,-48.70411 -72.75596,-74.49919 l -5.02649,4.90552 c 22.27863,28.98683 43.52843,36.12118 58.70645,58.03791 -17.1814,13.54869 -27.59542,27.16122 -41.82917,41.85973 l 3.93293,4.71689 c 25.89143,-27.19371 29.15411,-31.18599 42.80122,-40.55713 4.91439,5.23846 14.2565,18.3793 23.01093,23.95291"
           id="path3864-1"
           sodipodi:nodetypes="cccccccccccc"
           inkscape:connector-curvature="0" />
        <path
           style="fill:#90ee90;fill-opacity:1;fill-rule:evenodd;stroke:#000000;stroke-width:1.71840835;stroke-linecap:butt;stroke-linejoin:miter;stroke-miterlimit:4;stroke-opacity:1;stroke-dasharray:none"
           d="m 385.30754,415.34673 c 13.83144,10.07203 50.01671,31.81024 56.80333,57.96031 -16.4258,-5.127 -29.90283,5.8324 -41.73407,15.49581 l 4.4175,4.33171 c 20.94249,-19.57203 29.52642,-15.63049 39.27798,-11.77572 8.07302,32.21993 1.86022,39.58789 19.41213,69.59445 3.96313,-2.10289 6.08739,-3.25437 9.26748,-4.36311 -13.82528,-15.60638 -14.25752,-32.32603 -16.88355,-49.23955 9.17253,6.35092 20.14323,10.72574 37.12522,12.01071 l 1.6277,-3.82251 c -17.09951,-1.19846 -30.10863,-7.64995 -39.40322,-14.57247 -4.39182,-23.95223 -14.82424,-52.24231 -65.22281,-81.15247"
           id="path3866"
           sodipodi:nodetypes="cccccccccccc"
           inkscape:connector-curvature="0" />
        <path
           style="fill:#90ee90;fill-opacity:1;fill-rule:evenodd;stroke:#000000;stroke-width:1.71840835;stroke-linecap:butt;stroke-linejoin:miter;stroke-miterlimit:4;stroke-opacity:1;stroke-dasharray:none"
           d="M 307.01613,325.64623 C 286.28865,303.02453 278.4765,276.83054 202.29638,265.76288 l -7.63833,7.50607 c 13.09289,0.83545 32.25953,3.9379 48.75706,9.70936 -10.76313,6.588 -25.84236,3.99234 -35.87277,4.27393 l -0.45389,3.44876 c 7.8825,0.60446 25.92624,5.22501 42.58307,-5.24782 11.62948,5.06555 23.4829,12.60825 31.67597,21.67515 -16.48317,14.27655 -16.62969,26.07865 -29.86814,39.17223 l 4.60982,4.5204 c 18.45765,-20.36196 13.75226,-24.27732 30.3704,-37.47006 6.10129,7.26262 11.6757,14.12798 14.87888,16.83913"
           id="path3868"
           sodipodi:nodetypes="cccccccccccc"
           inkscape:connector-curvature="0" />
        <path
           inkscape:connector-curvature="0"
           d="m 494.01947,507.57856 c -10.7429,-17.88132 -2.93115,-24.67517 -2.93115,-24.67517 2.94346,-1.20659 5.29137,0.18673 7.2224,3.40009 4.32219,6.03124 13.73722,-9.26083 22.5725,-8.35892 3.57447,11.04345 -0.78048,13.24369 -1.89282,19.06031 12.73959,2.42908 19.58392,11.74907 26.65883,20.79957 -9.90802,6.00532 -19.77771,12.18129 -31.74403,9.02225 -0.34286,6.8559 -0.36775,13.78469 -7.15386,19.16469 -10.65143,0.95117 -12.22954,-20.96691 -17.37766,-19.40118 -2.19604,1.8538 -3.99424,4.75414 -7.16688,4.61396 -4.2871,-0.13975 -8.84907,-12.41094 11.40952,-23.13608 l 7.4571,16.98323 -5.61694,-16.12525 34.02348,7.06588 -34.04665,-8.23497 17.0745,-16.74678 -18.48834,16.56837 z"
           id="path3870"
           style="fill:#90ee90;fill-rule:evenodd;stroke:#000000;stroke-width:1.71840835;stroke-linecap:butt;stroke-linejoin:miter;stroke-miterlimit:4;stroke-opacity:1;stroke-dasharray:none"
           inkscape:transform-center-x="10.552666" />
        <path
           d="m 374.22622,357.51689 c -10.90638,20.45176 -21.84313,16.88694 -21.84313,16.88694 -2.83115,-2.11613 -2.8443,-5.1497 -0.88461,-8.8255 3.27964,-7.56404 -16.67236,-7.8032 -20.85916,-16.73893 8.48378,-9.71423 13.06811,-6.8204 19.24707,-9.08243 -4.96117,-13.52923 0.0123,-25.37549 4.59723,-37.28763 11.38253,6.01309 22.90578,11.89218 26.72965,25.1012 6.72998,-3.58905 13.34776,-7.5228 22.35127,-4.12786 6.99018,9.60839 -12.998,23.63108 -8.56528,27.64328 3.02099,1.03418 6.81231,1.09147 8.49078,4.19527 2.31551,4.16571 -6.77431,15.52239 -28.56697,2.34025 l 11.92707,-16.80728 -12.16043,14.56346 -12.69836,-36.46265 11.59733,37.15243 -25.71307,-6.70816 26.35061,8.15761 z"
           id="path3872"
           style="fill:#90ee90;fill-rule:evenodd;stroke:#000000;stroke-width:1.71840835;stroke-linecap:butt;stroke-linejoin:miter;stroke-miterlimit:4;stroke-opacity:1;stroke-dasharray:none"
           inkscape:transform-center-y="-3.5100312"
           inkscape:connector-curvature="0"
           inkscape:transform-center-x="-16.916758" />
        <path
           d="m 207.02182,288.48591 c 17.77387,-10.9197 13.97141,-20.54885 13.97141,-20.54885 -2.05632,-2.42724 -4.78216,-2.27258 -7.9767,-0.31042 -6.61505,3.36119 -7.92462,-14.54904 -16.18157,-17.81985 -8.26108,8.15423 -5.4099,12.11369 -7.10292,17.78852 -12.42579,-3.71439 -22.79476,1.40341 -33.24421,6.17586 6.02628,9.89528 11.93995,19.92432 24.01581,22.63458 -2.8548,6.24262 -6.02549,12.40345 -2.48168,20.30523 9.01499,5.75221 20.51512,-12.97313 24.36261,-9.21126 1.09478,2.6571 1.35435,6.05978 4.2347,7.39728 3.86921,1.85149 13.5724,-6.93727 0.53475,-25.7909 l -14.44393,11.63668 12.41542,-11.72318 -33.45207,-9.40649 34.01136,8.37955 -7.43706,-22.73059 8.77408,23.22384 z"
           id="path3874"
           style="fill:#90ee90;fill-rule:evenodd;stroke:#000000;stroke-width:1.71840835;stroke-linecap:butt;stroke-linejoin:miter;stroke-miterlimit:4;stroke-opacity:1;stroke-dasharray:none"
           inkscape:connector-curvature="0" />
        <path
           d="m 318.65697,430.57955 c 16.72805,2.3824 17.00769,10.76343 17.00769,10.76343 -0.74523,2.46666 -2.82054,3.23072 -5.82696,2.80286 -5.99917,-0.3644 -1.19679,13.36604 -6.27737,18.45895 -8.7678,-3.39505 -7.92601,-7.2565 -11.01397,-10.92724 -8.03516,6.76684 -17.3901,6.30772 -26.69343,6.13115 1.28691,-9.29593 2.44706,-18.65487 10.54597,-24.56279 -4.13428,-3.71796 -8.47686,-7.27331 -8.3917,-14.28742 4.84361,-7.18122 19.42701,3.02419 21.07282,-1.01172 -0.0433,-2.32736 -0.94775,-4.93944 0.76119,-6.86206 2.27795,-2.62345 12.32196,0.77808 8.71396,18.99133 l -14.48487,-3.98885 13.00552,4.70728 -21.82316,17.77654 22.56984,-17.19385 1.80379,19.28807 -0.96932,-20.08568 z"
           id="path3876"
           style="fill:#90ee90;fill-rule:evenodd;stroke:#000000;stroke-width:1.71840835;stroke-linecap:butt;stroke-linejoin:miter;stroke-miterlimit:4;stroke-opacity:1;stroke-dasharray:none"
           inkscape:connector-curvature="0" />
        <path
           inkscape:connector-curvature="0"
           style="fill:#90ee90;fill-rule:evenodd;stroke:#000000;stroke-width:1.71840835;stroke-linecap:butt;stroke-linejoin:miter;stroke-miterlimit:4;stroke-opacity:1;stroke-dasharray:none"
           id="path3878"
           d="m 402.48872,491.30462 c 16.72804,2.3824 17.00768,10.76343 17.00768,10.76343 -0.74523,2.46666 -2.82054,3.23073 -5.82696,2.80286 -5.99916,-0.36439 -1.19679,13.36605 -6.27737,18.45896 -8.7678,-3.39505 -7.92601,-7.25651 -11.01397,-10.92724 -8.03516,6.76684 -17.3901,6.30771 -26.69343,6.13114 1.28691,-9.29593 2.44706,-18.65486 10.54597,-24.56278 -4.13428,-3.71796 -8.47686,-7.27331 -8.39169,-14.28742 4.8436,-7.18122 19.427,3.02418 21.07281,-1.01173 -0.0433,-2.32736 -0.94775,-4.93944 0.76119,-6.86205 2.27795,-2.62346 12.32196,0.77807 8.71396,18.99133 l -14.48486,-3.98886 13.00551,4.70729 -21.82316,17.77653 22.56984,-17.19384 1.80379,19.28806 -0.96931,-20.08568 z" />
        <path
           d="m 253.49324,348.73554 c 16.72805,2.38241 17.00769,10.76344 17.00769,10.76344 -0.74523,2.46666 -2.82054,3.23072 -5.82696,2.80286 -5.99917,-0.3644 -1.19679,13.36604 -6.27737,18.45895 -8.7678,-3.39505 -7.92601,-7.2565 -11.01397,-10.92724 -8.03516,6.76684 -17.3901,6.30772 -26.69343,6.13114 1.28691,-9.29593 2.44706,-18.65486 10.54597,-24.56278 -4.13428,-3.71796 -8.47686,-7.27331 -8.3917,-14.28742 4.8436,-7.18122 19.42701,3.02419 21.07282,-1.01172 -0.0433,-2.32736 -0.94775,-4.93944 0.76119,-6.86206 2.27795,-2.62345 12.32196,0.77808 8.71396,18.99133 l -14.48487,-3.98885 13.00552,4.70728 -21.82316,17.77654 22.56984,-17.19385 1.80379,19.28807 -0.96932,-20.08569 z"
           id="path3880"
           style="fill:#90ee90;fill-rule:evenodd;stroke:#000000;stroke-width:1.71840835;stroke-linecap:butt;stroke-linejoin:miter;stroke-miterlimit:4;stroke-opacity:1;stroke-dasharray:none"
           inkscape:connector-curvature="0" />
        <path
           inkscape:connector-curvature="0"
           sodipodi:nodetypes="cccccccccccc"
           id="path3882"
           d="m -84.555176,80.828284 c 3.067986,1.695677 7.768044,6.193027 10.226841,8.557634 -3.496074,15.585942 -2.380352,17.539142 5.265152,45.171382 l 4.117445,-0.45108 c -8.917369,-31.59482 -4.746462,-37.545813 -4.649978,-39.401769 22.716205,29.716029 50.68247,48.704109 72.7559629,74.499179 l 5.0264855,-4.90551 C -14.091897,135.31128 -35.341698,128.17694 -50.519711,106.26021 -33.338317,92.711516 -22.92429,79.098988 -8.6905404,64.400479 L -12.623476,59.683587 C -38.514901,86.877302 -41.777587,90.869574 -55.424691,100.24072 -60.339083,95.002255 -69.681198,81.861422 -78.435619,76.287805"
           style="fill:#90ee90;fill-opacity:1;fill-rule:evenodd;stroke:#000000;stroke-width:1.71840835;stroke-linecap:butt;stroke-linejoin:miter;stroke-miterlimit:4;stroke-opacity:1;stroke-dasharray:none" />
        <path
           inkscape:connector-curvature="0"
           sodipodi:nodetypes="cccccccccccc"
           id="path3884"
           d="M -77.788857,76.618602 C -91.620296,66.546568 -127.80556,44.808358 -134.59218,18.658286 c 16.4258,5.127004 29.90283,-5.832401 41.734071,-15.4958094 l -4.417504,-4.3317083 C -118.2181,18.402796 -126.80203,14.461254 -136.55359,10.606486 c -8.07302,-32.219929 -1.86022,-39.587885 -19.41213,-69.594451 -3.96313,2.102898 -6.08739,3.254375 -9.26748,4.36311 13.82528,15.606381 14.25752,32.326028 16.88355,49.239552 -9.17253,-6.350922 -20.14323,-10.72574 -37.12522,-12.010709 l -1.6277,3.822509 c 17.09951,1.198457 30.10863,7.6499524 39.40322,14.57246834 4.39182,23.95223266 14.82424,52.24231666 65.222803,81.15247166"
           style="fill:#90ee90;fill-opacity:1;fill-rule:evenodd;stroke:#000000;stroke-width:1.71840835;stroke-linecap:butt;stroke-linejoin:miter;stroke-miterlimit:4;stroke-opacity:1;stroke-dasharray:none" />
        <path
           inkscape:connector-curvature="0"
           sodipodi:nodetypes="cccccccccccc"
           id="path3886"
           d="m 0.502557,166.3191 c 20.727482,22.6217 28.53963,48.81569 104.719753,59.88335 l 7.63833,-7.50608 c -13.092897,-0.83544 -32.259528,-3.9379 -48.757064,-9.70935 10.763133,-6.588 25.842358,-3.99234 35.872776,-4.27393 l 0.453888,-3.44876 C 92.547734,200.65987 74.504001,196.03932 57.847166,206.51215 46.217683,201.4466 34.364267,193.9039 26.171197,184.837 42.65437,170.56045 42.800891,158.75835 56.039341,145.66477 l -4.609828,-4.5204 C 32.971862,161.50633 37.677255,165.42169 21.059114,178.61443 14.957829,171.35181 9.3834136,164.48645 6.1802367,161.77529"
           style="fill:#90ee90;fill-opacity:1;fill-rule:evenodd;stroke:#000000;stroke-width:1.71840835;stroke-linecap:butt;stroke-linejoin:miter;stroke-miterlimit:4;stroke-opacity:1;stroke-dasharray:none" />
        <path
           inkscape:transform-center-x="10.552666"
           style="fill:#90ee90;fill-rule:evenodd;stroke:#000000;stroke-width:1.71840835;stroke-linecap:butt;stroke-linejoin:miter;stroke-miterlimit:4;stroke-opacity:1;stroke-dasharray:none"
           id="path3888"
           d="m -186.50078,-15.613236 c 10.7429,17.8813268 2.93115,24.6751769 2.93115,24.6751769 -2.94346,1.2065891 -5.29137,-0.1867312 -7.2224,-3.4000953 -4.32219,-6.0312399 -13.73722,9.2608314 -22.5725,8.3589204 -3.57447,-11.043453 0.78048,-13.24368683 1.89282,-19.0603064 -12.73959,-2.4290846 -19.58392,-11.7490716 -26.65883,-20.7995686 9.90802,-6.005324 19.77771,-12.181296 31.74403,-9.022249 0.34286,-6.855908 0.36775,-13.784691 7.15386,-19.164696 10.65143,-0.951169 12.22954,20.966912 17.37766,19.401185 2.19604,-1.853804 3.99424,-4.754139 7.16688,-4.613965 4.2871,0.139751 8.84907,12.41094 -11.40952,23.136079 l -7.4571,-16.983231 5.61694,16.125257 -34.02348,-7.06588 34.04665,8.234972 -17.0745,16.74677898 18.48834,-16.56837798 z"
           inkscape:connector-curvature="0" />
        <path
           inkscape:transform-center-x="-16.916758"
           inkscape:connector-curvature="0"
           inkscape:transform-center-y="-3.5100312"
           style="fill:#90ee90;fill-rule:evenodd;stroke:#000000;stroke-width:1.71840835;stroke-linecap:butt;stroke-linejoin:miter;stroke-miterlimit:4;stroke-opacity:1;stroke-dasharray:none"
           id="path3890"
           d="m -66.70753,134.44844 c 10.906372,-20.45176 21.843125,-16.88694 21.843125,-16.88694 2.831147,2.11613 2.844299,5.14969 0.884607,8.82549 -3.279633,7.56404 16.672364,7.8032 20.859165,16.73894 -8.483783,9.71423 -13.068106,6.8204 -19.247073,9.08243 4.961177,13.52923 -0.01231,25.37548 -4.597225,37.28763 -11.382537,-6.01309 -22.905781,-11.89218 -26.729655,-25.1012 -6.729976,3.58905 -13.347757,7.52279 -22.351264,4.12786 -6.99018,-9.6084 12.997995,-23.63108 8.565281,-27.64329 -3.020998,-1.03417 -6.812316,-1.09146 -8.490785,-4.19526 -2.315509,-4.16571 6.774316,-15.52239 28.566973,-2.34025 l -11.927072,16.80728 12.160426,-14.56346 12.698362,36.46265 -11.597325,-37.15243 25.713068,6.70815 -26.350608,-8.1576 z" />
        <path
           inkscape:connector-curvature="0"
           style="fill:#90ee90;fill-rule:evenodd;stroke:#000000;stroke-width:1.71840835;stroke-linecap:butt;stroke-linejoin:miter;stroke-miterlimit:4;stroke-opacity:1;stroke-dasharray:none"
           id="path3892"
           d="m 100.49687,203.47942 c -17.773875,10.9197 -13.971411,20.54885 -13.971411,20.54885 2.056317,2.42724 4.78216,2.27257 7.976695,0.31042 6.615046,-3.36119 7.924626,14.54904 16.181576,17.81985 8.26108,-8.15423 5.4099,-12.11369 7.10292,-17.78852 12.42579,3.71439 22.79476,-1.40341 33.24421,-6.17586 -6.02628,-9.89529 -11.93995,-19.92432 -24.01581,-22.63458 2.8548,-6.24262 6.02549,-12.40345 2.48168,-20.30523 -9.01499,-5.75221 -20.51512,12.97313 -24.36261,9.21125 -1.09478,-2.6571 -1.35435,-6.05977 -4.23471,-7.39728 -3.869207,-1.85149 -13.572396,6.93728 -0.53474,25.79091 l 14.44393,-11.63668 -12.41543,11.72318 33.45208,9.40649 -34.01136,-8.37955 7.43706,22.73059 -8.77408,-23.22384 z" />
        <path
           inkscape:connector-curvature="0"
           style="fill:#90ee90;fill-rule:evenodd;stroke:#000000;stroke-width:1.71840835;stroke-linecap:butt;stroke-linejoin:miter;stroke-miterlimit:4;stroke-opacity:1;stroke-dasharray:none"
           id="path3894"
           d="m -11.138287,61.385782 c -16.728045,-2.382404 -17.007687,-10.763431 -17.007687,-10.763431 0.74523,-2.466662 2.820545,-3.230727 5.826965,-2.80286 5.999161,0.364395 1.196788,-13.366045 6.277367,-18.458954 8.7677966,3.395049 7.9260056,7.256502 11.0139698,10.927239 8.0351603,-6.766842 17.3900972,-6.307718 26.6934312,-6.131144 -1.28691,9.295931 -2.447065,18.654864 -10.545971,24.562784 4.134277,3.71796 8.476858,7.27331 8.391694,14.287422 -4.843601,7.181215 -19.4270035,-3.024188 -21.0728156,1.011722 0.043322,2.327359 0.9477528,4.93944 -0.7611876,6.862058 C -4.600472,83.504069 -14.644482,80.102541 -11.036481,61.889285 L 3.4483819,65.878138 -9.5571344,61.170856 12.266028,43.394321 -10.303814,60.588165 -12.107601,41.3001 l 0.969314,20.085682 z" />
        <path
           d="M -94.970028,0.66070704 C -111.69807,-1.7216968 -111.97771,-10.102724 -111.97771,-10.102724 c 0.74523,-2.466662 2.82054,-3.230727 5.82696,-2.80286 5.99916,0.364395 1.19679,-13.366045 6.277367,-18.458954 8.767797,3.395048 7.926005,7.256502 11.01397,10.927239 8.03516,-6.766842 17.390097,-6.307718 26.69343,-6.131144 -1.286909,9.295931 -2.447064,18.6548637 -10.545971,24.5627841 4.134278,3.7179597 8.476858,7.2733097 8.391695,14.2874209 -4.843601,7.181216 -19.427003,-3.0241873 -21.072816,1.011723 0.04332,2.327359 0.947753,4.93944 -0.761187,6.862058 -2.277951,2.623451 -12.321961,-0.778077 -8.713961,-18.991333 L -80.383359,5.1530632 -93.388875,0.44578062 -71.565713,-17.330754 -94.135555,-0.13691026 -95.939342,-19.424975 -94.970028,0.66070704 z"
           id="path3896"
           style="fill:#90ee90;fill-rule:evenodd;stroke:#000000;stroke-width:1.71840835;stroke-linecap:butt;stroke-linejoin:miter;stroke-miterlimit:4;stroke-opacity:1;stroke-dasharray:none"
           inkscape:connector-curvature="0" />
        <path
           inkscape:connector-curvature="0"
           style="fill:#90ee90;fill-rule:evenodd;stroke:#000000;stroke-width:1.71840835;stroke-linecap:butt;stroke-linejoin:miter;stroke-miterlimit:4;stroke-opacity:1;stroke-dasharray:none"
           id="path3898"
           d="m 54.025444,143.22978 c -16.728045,-2.3824 -17.007687,-10.76343 -17.007687,-10.76343 0.745229,-2.46666 2.820545,-3.23072 5.826965,-2.80286 5.999161,0.3644 1.196788,-13.36604 6.277367,-18.45895 8.767797,3.39505 7.926006,7.2565 11.01397,10.92724 8.03516,-6.76684 17.390097,-6.30772 26.693431,-6.13115 -1.28691,9.29593 -2.447065,18.65487 -10.545971,24.56279 4.134277,3.71796 8.476858,7.27331 8.391694,14.28742 -4.843601,7.18121 -19.427003,-3.02419 -21.072815,1.01172 0.04332,2.32736 0.947753,4.93944 -0.761188,6.86206 -2.277951,2.62345 -12.321961,-0.77808 -8.71396,-18.99133 l 14.484863,3.98885 -13.005516,-4.70728 21.823162,-17.77654 -22.569842,17.19385 -1.803787,-19.28807 0.969314,20.08568 z" />
      </g>
      <g
         id="g4052"
         transform="translate(440.80529,-96.087661)"
         style="display:inline">
        <path
           sodipodi:nodetypes="ccccccccc"
           inkscape:connector-curvature="0"
           id="path4054"
           d="m 160.71875,255.90625 c 24.62578,13.87295 40.8115,14.28203 58.4375,19.9375 l 6.65625,-4.8125 c -21.0737,-8.47271 -36.25634,-6.42123 -58.96875,-21.15625 l -20.0625,-13.8125 c -24.6196,-13.86687 -40.81412,-14.28288 -58.4375,-19.9375 l -6.625,4.8125 c 21.07046,8.47141 36.23091,6.42868 58.9375,21.15625 z"
           style="fill:#90ee90;fill-opacity:1;fill-rule:evenodd;stroke:#000000;stroke-width:1.71840835;stroke-linecap:butt;stroke-linejoin:miter;stroke-miterlimit:4;stroke-opacity:1;stroke-dasharray:none;display:inline" />
        <path
           style="fill:#90ee90;fill-opacity:1;fill-rule:evenodd;stroke:#000000;stroke-width:1.71840835;stroke-linecap:butt;stroke-linejoin:miter;stroke-miterlimit:4;stroke-opacity:1;stroke-dasharray:none"
           d="m 392.07386,411.13704 c -3.06798,-1.69567 -7.76804,-6.19302 -10.22684,-8.55763 3.49608,-15.58594 2.38035,-17.53914 -5.26515,-45.17138 l -4.11744,0.45107 c 8.91736,31.59483 4.74646,37.54582 4.64997,39.40178 -22.7162,-29.71603 -50.68247,-48.70411 -72.75596,-74.49919 l -5.02649,4.90552 c 22.27863,28.98683 43.52843,36.12118 58.70645,58.03791 -17.1814,13.54869 -27.59542,27.16122 -41.82917,41.85973 l 3.93293,4.71689 c 25.89143,-27.19371 29.15411,-31.18599 42.80122,-40.55713 4.91439,5.23846 14.2565,18.3793 23.01093,23.95291"
           id="path4056"
           sodipodi:nodetypes="cccccccccccc"
           inkscape:connector-curvature="0" />
        <path
           style="fill:#90ee90;fill-opacity:1;fill-rule:evenodd;stroke:#000000;stroke-width:1.71840835;stroke-linecap:butt;stroke-linejoin:miter;stroke-miterlimit:4;stroke-opacity:1;stroke-dasharray:none"
           d="m 385.30754,415.34673 c 13.83144,10.07203 50.01671,31.81024 56.80333,57.96031 -16.4258,-5.127 -29.90283,5.8324 -41.73407,15.49581 l 4.4175,4.33171 c 20.94249,-19.57203 29.52642,-15.63049 39.27798,-11.77572 8.07302,32.21993 1.86022,39.58789 19.41213,69.59445 3.96313,-2.10289 6.08739,-3.25437 9.26748,-4.36311 -13.82528,-15.60638 -14.25752,-32.32603 -16.88355,-49.23955 9.17253,6.35092 20.14323,10.72574 37.12522,12.01071 l 1.6277,-3.82251 c -17.09951,-1.19846 -30.10863,-7.64995 -39.40322,-14.57247 -4.39182,-23.95223 -14.82424,-52.24231 -65.22281,-81.15247"
           id="path4058"
           sodipodi:nodetypes="cccccccccccc"
           inkscape:connector-curvature="0" />
        <path
           style="fill:#90ee90;fill-opacity:1;fill-rule:evenodd;stroke:#000000;stroke-width:1.71840835;stroke-linecap:butt;stroke-linejoin:miter;stroke-miterlimit:4;stroke-opacity:1;stroke-dasharray:none"
           d="M 307.01613,325.64623 C 286.28865,303.02453 278.4765,276.83054 202.29638,265.76288 l -7.63833,7.50607 c 13.09289,0.83545 32.25953,3.9379 48.75706,9.70936 -10.76313,6.588 -25.84236,3.99234 -35.87277,4.27393 l -0.45389,3.44876 c 7.8825,0.60446 25.92624,5.22501 42.58307,-5.24782 11.62948,5.06555 23.4829,12.60825 31.67597,21.67515 -16.48317,14.27655 -16.62969,26.07865 -29.86814,39.17223 l 4.60982,4.5204 c 18.45765,-20.36196 13.75226,-24.27732 30.3704,-37.47006 6.10129,7.26262 11.6757,14.12798 14.87888,16.83913"
           id="path4060"
           sodipodi:nodetypes="cccccccccccc"
           inkscape:connector-curvature="0" />
        <path
           inkscape:connector-curvature="0"
           d="m 494.01947,507.57856 c -10.7429,-17.88132 -2.93115,-24.67517 -2.93115,-24.67517 2.94346,-1.20659 5.29137,0.18673 7.2224,3.40009 4.32219,6.03124 13.73722,-9.26083 22.5725,-8.35892 3.57447,11.04345 -0.78048,13.24369 -1.89282,19.06031 12.73959,2.42908 19.58392,11.74907 26.65883,20.79957 -9.90802,6.00532 -19.77771,12.18129 -31.74403,9.02225 -0.34286,6.8559 -0.36775,13.78469 -7.15386,19.16469 -10.65143,0.95117 -12.22954,-20.96691 -17.37766,-19.40118 -2.19604,1.8538 -3.99424,4.75414 -7.16688,4.61396 -4.2871,-0.13975 -8.84907,-12.41094 11.40952,-23.13608 l 7.4571,16.98323 -5.61694,-16.12525 34.02348,7.06588 -34.04665,-8.23497 17.0745,-16.74678 -18.48834,16.56837 z"
           id="path4062"
           style="fill:#90ee90;fill-rule:evenodd;stroke:#000000;stroke-width:1.71840835;stroke-linecap:butt;stroke-linejoin:miter;stroke-miterlimit:4;stroke-opacity:1;stroke-dasharray:none"
           inkscape:transform-center-x="10.552666" />
        <path
           d="m 374.22622,357.51689 c -10.90638,20.45176 -21.84313,16.88694 -21.84313,16.88694 -2.83115,-2.11613 -2.8443,-5.1497 -0.88461,-8.8255 3.27964,-7.56404 -16.67236,-7.8032 -20.85916,-16.73893 8.48378,-9.71423 13.06811,-6.8204 19.24707,-9.08243 -4.96117,-13.52923 0.0123,-25.37549 4.59723,-37.28763 11.38253,6.01309 22.90578,11.89218 26.72965,25.1012 6.72998,-3.58905 13.34776,-7.5228 22.35127,-4.12786 6.99018,9.60839 -12.998,23.63108 -8.56528,27.64328 3.02099,1.03418 6.81231,1.09147 8.49078,4.19527 2.31551,4.16571 -6.77431,15.52239 -28.56697,2.34025 l 11.92707,-16.80728 -12.16043,14.56346 -12.69836,-36.46265 11.59733,37.15243 -25.71307,-6.70816 26.35061,8.15761 z"
           id="path4064"
           style="fill:#90ee90;fill-rule:evenodd;stroke:#000000;stroke-width:1.71840835;stroke-linecap:butt;stroke-linejoin:miter;stroke-miterlimit:4;stroke-opacity:1;stroke-dasharray:none"
           inkscape:transform-center-y="-3.5100312"
           inkscape:connector-curvature="0"
           inkscape:transform-center-x="-16.916758" />
        <path
           d="m 207.02182,288.48591 c 17.77387,-10.9197 13.97141,-20.54885 13.97141,-20.54885 -2.05632,-2.42724 -4.78216,-2.27258 -7.9767,-0.31042 -6.61505,3.36119 -7.92462,-14.54904 -16.18157,-17.81985 -8.26108,8.15423 -5.4099,12.11369 -7.10292,17.78852 -12.42579,-3.71439 -22.79476,1.40341 -33.24421,6.17586 6.02628,9.89528 11.93995,19.92432 24.01581,22.63458 -2.8548,6.24262 -6.02549,12.40345 -2.48168,20.30523 9.01499,5.75221 20.51512,-12.97313 24.36261,-9.21126 1.09478,2.6571 1.35435,6.05978 4.2347,7.39728 3.86921,1.85149 13.5724,-6.93727 0.53475,-25.7909 l -14.44393,11.63668 12.41542,-11.72318 -33.45207,-9.40649 34.01136,8.37955 -7.43706,-22.73059 8.77408,23.22384 z"
           id="path4066"
           style="fill:#90ee90;fill-rule:evenodd;stroke:#000000;stroke-width:1.71840835;stroke-linecap:butt;stroke-linejoin:miter;stroke-miterlimit:4;stroke-opacity:1;stroke-dasharray:none"
           inkscape:connector-curvature="0" />
        <path
           d="m 318.65697,430.57955 c 16.72805,2.3824 17.00769,10.76343 17.00769,10.76343 -0.74523,2.46666 -2.82054,3.23072 -5.82696,2.80286 -5.99917,-0.3644 -1.19679,13.36604 -6.27737,18.45895 -8.7678,-3.39505 -7.92601,-7.2565 -11.01397,-10.92724 -8.03516,6.76684 -17.3901,6.30772 -26.69343,6.13115 1.28691,-9.29593 2.44706,-18.65487 10.54597,-24.56279 -4.13428,-3.71796 -8.47686,-7.27331 -8.3917,-14.28742 4.84361,-7.18122 19.42701,3.02419 21.07282,-1.01172 -0.0433,-2.32736 -0.94775,-4.93944 0.76119,-6.86206 2.27795,-2.62345 12.32196,0.77808 8.71396,18.99133 l -14.48487,-3.98885 13.00552,4.70728 -21.82316,17.77654 22.56984,-17.19385 1.80379,19.28807 -0.96932,-20.08568 z"
           id="path4068"
           style="fill:#90ee90;fill-rule:evenodd;stroke:#000000;stroke-width:1.71840835;stroke-linecap:butt;stroke-linejoin:miter;stroke-miterlimit:4;stroke-opacity:1;stroke-dasharray:none"
           inkscape:connector-curvature="0" />
        <path
           inkscape:connector-curvature="0"
           style="fill:#90ee90;fill-rule:evenodd;stroke:#000000;stroke-width:1.71840835;stroke-linecap:butt;stroke-linejoin:miter;stroke-miterlimit:4;stroke-opacity:1;stroke-dasharray:none"
           id="path4070"
           d="m 402.48872,491.30462 c 16.72804,2.3824 17.00768,10.76343 17.00768,10.76343 -0.74523,2.46666 -2.82054,3.23073 -5.82696,2.80286 -5.99916,-0.36439 -1.19679,13.36605 -6.27737,18.45896 -8.7678,-3.39505 -7.92601,-7.25651 -11.01397,-10.92724 -8.03516,6.76684 -17.3901,6.30771 -26.69343,6.13114 1.28691,-9.29593 2.44706,-18.65486 10.54597,-24.56278 -4.13428,-3.71796 -8.47686,-7.27331 -8.39169,-14.28742 4.8436,-7.18122 19.427,3.02418 21.07281,-1.01173 -0.0433,-2.32736 -0.94775,-4.93944 0.76119,-6.86205 2.27795,-2.62346 12.32196,0.77807 8.71396,18.99133 l -14.48486,-3.98886 13.00551,4.70729 -21.82316,17.77653 22.56984,-17.19384 1.80379,19.28806 -0.96931,-20.08568 z" />
        <path
           d="m 253.49324,348.73554 c 16.72805,2.38241 17.00769,10.76344 17.00769,10.76344 -0.74523,2.46666 -2.82054,3.23072 -5.82696,2.80286 -5.99917,-0.3644 -1.19679,13.36604 -6.27737,18.45895 -8.7678,-3.39505 -7.92601,-7.2565 -11.01397,-10.92724 -8.03516,6.76684 -17.3901,6.30772 -26.69343,6.13114 1.28691,-9.29593 2.44706,-18.65486 10.54597,-24.56278 -4.13428,-3.71796 -8.47686,-7.27331 -8.3917,-14.28742 4.8436,-7.18122 19.42701,3.02419 21.07282,-1.01172 -0.0433,-2.32736 -0.94775,-4.93944 0.76119,-6.86206 2.27795,-2.62345 12.32196,0.77808 8.71396,18.99133 l -14.48487,-3.98885 13.00552,4.70728 -21.82316,17.77654 22.56984,-17.19385 1.80379,19.28807 -0.96932,-20.08569 z"
           id="path4072"
           style="fill:#90ee90;fill-rule:evenodd;stroke:#000000;stroke-width:1.71840835;stroke-linecap:butt;stroke-linejoin:miter;stroke-miterlimit:4;stroke-opacity:1;stroke-dasharray:none"
           inkscape:connector-curvature="0" />
        <path
           inkscape:connector-curvature="0"
           sodipodi:nodetypes="cccccccccccc"
           id="path4074"
           d="m -84.555176,80.828284 c 3.067986,1.695677 7.768044,6.193027 10.226841,8.557634 -3.496074,15.585942 -2.380352,17.539142 5.265152,45.171382 l 4.117445,-0.45108 c -8.917369,-31.59482 -4.746462,-37.545813 -4.649978,-39.401769 22.716205,29.716029 50.68247,48.704109 72.7559629,74.499179 l 5.0264855,-4.90551 C -14.091897,135.31128 -35.341698,128.17694 -50.519711,106.26021 -33.338317,92.711516 -22.92429,79.098988 -8.6905404,64.400479 L -12.623476,59.683587 C -38.514901,86.877302 -41.777587,90.869574 -55.424691,100.24072 -60.339083,95.002255 -69.681198,81.861422 -78.435619,76.287805"
           style="fill:#90ee90;fill-opacity:1;fill-rule:evenodd;stroke:#000000;stroke-width:1.71840835;stroke-linecap:butt;stroke-linejoin:miter;stroke-miterlimit:4;stroke-opacity:1;stroke-dasharray:none" />
        <path
           inkscape:connector-curvature="0"
           sodipodi:nodetypes="cccccccccccc"
           id="path4076"
           d="M -77.788857,76.618602 C -91.620296,66.546568 -127.80556,44.808358 -134.59218,18.658286 c 16.4258,5.127004 29.90283,-5.832401 41.734071,-15.4958094 l -4.417504,-4.3317083 C -118.2181,18.402796 -126.80203,14.461254 -136.55359,10.606486 c -8.07302,-32.219929 -1.86022,-39.587885 -19.41213,-69.594451 -3.96313,2.102898 -6.08739,3.254375 -9.26748,4.36311 13.82528,15.606381 14.25752,32.326028 16.88355,49.239552 -9.17253,-6.350922 -20.14323,-10.72574 -37.12522,-12.010709 l -1.6277,3.822509 c 17.09951,1.198457 30.10863,7.6499524 39.40322,14.57246834 4.39182,23.95223266 14.82424,52.24231666 65.222803,81.15247166"
           style="fill:#90ee90;fill-opacity:1;fill-rule:evenodd;stroke:#000000;stroke-width:1.71840835;stroke-linecap:butt;stroke-linejoin:miter;stroke-miterlimit:4;stroke-opacity:1;stroke-dasharray:none" />
        <path
           inkscape:connector-curvature="0"
           sodipodi:nodetypes="cccccccccccc"
           id="path4078"
           d="m 0.502557,166.3191 c 20.727482,22.6217 28.53963,48.81569 104.719753,59.88335 l 7.63833,-7.50608 c -13.092897,-0.83544 -32.259528,-3.9379 -48.757064,-9.70935 10.763133,-6.588 25.842358,-3.99234 35.872776,-4.27393 l 0.453888,-3.44876 C 92.547734,200.65987 74.504001,196.03932 57.847166,206.51215 46.217683,201.4466 34.364267,193.9039 26.171197,184.837 42.65437,170.56045 42.800891,158.75835 56.039341,145.66477 l -4.609828,-4.5204 C 32.971862,161.50633 37.677255,165.42169 21.059114,178.61443 14.957829,171.35181 9.3834136,164.48645 6.1802367,161.77529"
           style="fill:#90ee90;fill-opacity:1;fill-rule:evenodd;stroke:#000000;stroke-width:1.71840835;stroke-linecap:butt;stroke-linejoin:miter;stroke-miterlimit:4;stroke-opacity:1;stroke-dasharray:none" />
        <path
           inkscape:transform-center-x="10.552666"
           style="fill:#90ee90;fill-rule:evenodd;stroke:#000000;stroke-width:1.71840835;stroke-linecap:butt;stroke-linejoin:miter;stroke-miterlimit:4;stroke-opacity:1;stroke-dasharray:none"
           id="path4080"
           d="m -186.50078,-15.613236 c 10.7429,17.8813268 2.93115,24.6751769 2.93115,24.6751769 -2.94346,1.2065891 -5.29137,-0.1867312 -7.2224,-3.4000953 -4.32219,-6.0312399 -13.73722,9.2608314 -22.5725,8.3589204 -3.57447,-11.043453 0.78048,-13.24368683 1.89282,-19.0603064 -12.73959,-2.4290846 -19.58392,-11.7490716 -26.65883,-20.7995686 9.90802,-6.005324 19.77771,-12.181296 31.74403,-9.022249 0.34286,-6.855908 0.36775,-13.784691 7.15386,-19.164696 10.65143,-0.951169 12.22954,20.966912 17.37766,19.401185 2.19604,-1.853804 3.99424,-4.754139 7.16688,-4.613965 4.2871,0.139751 8.84907,12.41094 -11.40952,23.136079 l -7.4571,-16.983231 5.61694,16.125257 -34.02348,-7.06588 34.04665,8.234972 -17.0745,16.74677898 18.48834,-16.56837798 z"
           inkscape:connector-curvature="0" />
        <path
           inkscape:transform-center-x="-16.916758"
           inkscape:connector-curvature="0"
           inkscape:transform-center-y="-3.5100312"
           style="fill:#90ee90;fill-rule:evenodd;stroke:#000000;stroke-width:1.71840835;stroke-linecap:butt;stroke-linejoin:miter;stroke-miterlimit:4;stroke-opacity:1;stroke-dasharray:none"
           id="path4082"
           d="m -66.70753,134.44844 c 10.906372,-20.45176 21.843125,-16.88694 21.843125,-16.88694 2.831147,2.11613 2.844299,5.14969 0.884607,8.82549 -3.279633,7.56404 16.672364,7.8032 20.859165,16.73894 -8.483783,9.71423 -13.068106,6.8204 -19.247073,9.08243 4.961177,13.52923 -0.01231,25.37548 -4.597225,37.28763 -11.382537,-6.01309 -22.905781,-11.89218 -26.729655,-25.1012 -6.729976,3.58905 -13.347757,7.52279 -22.351264,4.12786 -6.99018,-9.6084 12.997995,-23.63108 8.565281,-27.64329 -3.020998,-1.03417 -6.812316,-1.09146 -8.490785,-4.19526 -2.315509,-4.16571 6.774316,-15.52239 28.566973,-2.34025 l -11.927072,16.80728 12.160426,-14.56346 12.698362,36.46265 -11.597325,-37.15243 25.713068,6.70815 -26.350608,-8.1576 z" />
        <path
           inkscape:connector-curvature="0"
           style="fill:#90ee90;fill-rule:evenodd;stroke:#000000;stroke-width:1.71840835;stroke-linecap:butt;stroke-linejoin:miter;stroke-miterlimit:4;stroke-opacity:1;stroke-dasharray:none"
           id="path4084"
           d="m 100.49687,203.47942 c -17.773875,10.9197 -13.971411,20.54885 -13.971411,20.54885 2.056317,2.42724 4.78216,2.27257 7.976695,0.31042 6.615046,-3.36119 7.924626,14.54904 16.181576,17.81985 8.26108,-8.15423 5.4099,-12.11369 7.10292,-17.78852 12.42579,3.71439 22.79476,-1.40341 33.24421,-6.17586 -6.02628,-9.89529 -11.93995,-19.92432 -24.01581,-22.63458 2.8548,-6.24262 6.02549,-12.40345 2.48168,-20.30523 -9.01499,-5.75221 -20.51512,12.97313 -24.36261,9.21125 -1.09478,-2.6571 -1.35435,-6.05977 -4.23471,-7.39728 -3.869207,-1.85149 -13.572396,6.93728 -0.53474,25.79091 l 14.44393,-11.63668 -12.41543,11.72318 33.45208,9.40649 -34.01136,-8.37955 7.43706,22.73059 -8.77408,-23.22384 z" />
        <path
           inkscape:connector-curvature="0"
           style="fill:#90ee90;fill-rule:evenodd;stroke:#000000;stroke-width:1.71840835;stroke-linecap:butt;stroke-linejoin:miter;stroke-miterlimit:4;stroke-opacity:1;stroke-dasharray:none"
           id="path4086"
           d="m -11.138287,61.385782 c -16.728045,-2.382404 -17.007687,-10.763431 -17.007687,-10.763431 0.74523,-2.466662 2.820545,-3.230727 5.826965,-2.80286 5.999161,0.364395 1.196788,-13.366045 6.277367,-18.458954 8.7677966,3.395049 7.9260056,7.256502 11.0139698,10.927239 8.0351603,-6.766842 17.3900972,-6.307718 26.6934312,-6.131144 -1.28691,9.295931 -2.447065,18.654864 -10.545971,24.562784 4.134277,3.71796 8.476858,7.27331 8.391694,14.287422 -4.843601,7.181215 -19.4270035,-3.024188 -21.0728156,1.011722 0.043322,2.327359 0.9477528,4.93944 -0.7611876,6.862058 C -4.600472,83.504069 -14.644482,80.102541 -11.036481,61.889285 L 3.4483819,65.878138 -9.5571344,61.170856 12.266028,43.394321 -10.303814,60.588165 -12.107601,41.3001 l 0.969314,20.085682 z" />
        <path
           d="M -94.970028,0.66070704 C -111.69807,-1.7216968 -111.97771,-10.102724 -111.97771,-10.102724 c 0.74523,-2.466662 2.82054,-3.230727 5.82696,-2.80286 5.99916,0.364395 1.19679,-13.366045 6.277367,-18.458954 8.767797,3.395048 7.926005,7.256502 11.01397,10.927239 8.03516,-6.766842 17.390097,-6.307718 26.69343,-6.131144 -1.286909,9.295931 -2.447064,18.6548637 -10.545971,24.5627841 4.134278,3.7179597 8.476858,7.2733097 8.391695,14.2874209 -4.843601,7.181216 -19.427003,-3.0241873 -21.072816,1.011723 0.04332,2.327359 0.947753,4.93944 -0.761187,6.862058 -2.277951,2.623451 -12.321961,-0.778077 -8.713961,-18.991333 L -80.383359,5.1530632 -93.388875,0.44578062 -71.565713,-17.330754 -94.135555,-0.13691026 -95.939342,-19.424975 -94.970028,0.66070704 z"
           id="path4088"
           style="fill:#90ee90;fill-rule:evenodd;stroke:#000000;stroke-width:1.71840835;stroke-linecap:butt;stroke-linejoin:miter;stroke-miterlimit:4;stroke-opacity:1;stroke-dasharray:none"
           inkscape:connector-curvature="0" />
        <path
           inkscape:connector-curvature="0"
           style="fill:#90ee90;fill-rule:evenodd;stroke:#000000;stroke-width:1.71840835;stroke-linecap:butt;stroke-linejoin:miter;stroke-miterlimit:4;stroke-opacity:1;stroke-dasharray:none"
           id="path4090"
           d="m 54.025444,143.22978 c -16.728045,-2.3824 -17.007687,-10.76343 -17.007687,-10.76343 0.745229,-2.46666 2.820545,-3.23072 5.826965,-2.80286 5.999161,0.3644 1.196788,-13.36604 6.277367,-18.45895 8.767797,3.39505 7.926006,7.2565 11.01397,10.92724 8.03516,-6.76684 17.390097,-6.30772 26.693431,-6.13115 -1.28691,9.29593 -2.447065,18.65487 -10.545971,24.56279 4.134277,3.71796 8.476858,7.27331 8.391694,14.28742 -4.843601,7.18121 -19.427003,-3.02419 -21.072815,1.01172 0.04332,2.32736 0.947753,4.93944 -0.761188,6.86206 -2.277951,2.62345 -12.321961,-0.77808 -8.71396,-18.99133 l 14.484863,3.98885 -13.005516,-4.70728 21.823162,-17.77654 -22.569842,17.19385 -1.803787,-19.28807 0.969314,20.08568 z" />
      </g>
    </g>
  </g>
  <g
     inkscape:groupmode="layer"
     id="layer1"
     inkscape:label="Cover"
     style="display:inline"
     sodipodi:insensitive="true">
    <path
       d="m 2,2 v 257 c 0,286 298,398 298,398 0,0 298,-112 298,-398 V 2 z"
       id="shine"
       inkscape:connector-curvature="0"
       style="fill:url(#radialGradient3074);stroke:#000000;stroke-width:3" />
  </g>
</svg>
