<?xml version="1.0" encoding="UTF-8" standalone="no"?>
<svg
   xmlns:dc="http://purl.org/dc/elements/1.1/"
   xmlns:cc="http://creativecommons.org/ns#"
   xmlns:rdf="http://www.w3.org/1999/02/22-rdf-syntax-ns#"
   xmlns:svg="http://www.w3.org/2000/svg"
   xmlns="http://www.w3.org/2000/svg"
   xmlns:xlink="http://www.w3.org/1999/xlink"
   xmlns:sodipodi="http://sodipodi.sourceforge.net/DTD/sodipodi-0.dtd"
   xmlns:inkscape="http://www.inkscape.org/namespaces/inkscape"
   width="600"
   height="660"
   id="svg2"
   version="1.1"
   inkscape:version="0.48.2 r9819"
   sodipodi:docname="House_Greyjoy.svg">
  <metadata
     id="metadata24">
    <rdf:RDF>
      <cc:Work
         rdf:about="">
        <dc:format>image/svg+xml</dc:format>
        <dc:type
           rdf:resource="http://purl.org/dc/dcmitype/StillImage" />
        <dc:title></dc:title>
      </cc:Work>
    </rdf:RDF>
  </metadata>
  <sodipodi:namedview
     pagecolor="#ffffff"
     bordercolor="#666666"
     borderopacity="1"
     objecttolerance="10"
     gridtolerance="10"
     guidetolerance="10"
     inkscape:pageopacity="0"
     inkscape:pageshadow="2"
     inkscape:window-width="1366"
     inkscape:window-height="715"
     id="namedview22"
     showgrid="false"
     inkscape:zoom="1.011377"
     inkscape:cx="176.53791"
     inkscape:cy="310.45804"
     inkscape:window-x="-8"
     inkscape:window-y="-8"
     inkscape:window-maximized="1"
     inkscape:current-layer="layer2" />
  <defs
     id="defs4">
    <inkscape:path-effect
       is_visible="true"
       id="path-effect3136"
       effect="spiro" />
    <inkscape:path-effect
       effect="spiro"
       id="path-effect3132"
       is_visible="true" />
    <inkscape:path-effect
       effect="spiro"
       id="path-effect3101"
       is_visible="true" />
    <inkscape:path-effect
       is_visible="true"
       id="path-effect3085"
       effect="spiro" />
    <inkscape:path-effect
       is_visible="true"
       id="path-effect3083"
       effect="spiro" />
    <inkscape:path-effect
       is_visible="true"
       id="path-effect3081"
       effect="spiro" />
    <inkscape:path-effect
       is_visible="true"
       id="path-effect3079"
       effect="spiro" />
    <inkscape:path-effect
       is_visible="true"
       id="path-effect3077"
       effect="spiro" />
    <inkscape:path-effect
       is_visible="true"
       id="path-effect3075"
       effect="spiro" />
    <inkscape:path-effect
       effect="spiro"
       id="path-effect3049"
       is_visible="true" />
    <inkscape:path-effect
       is_visible="true"
       id="path-effect3045"
       effect="spiro" />
    <inkscape:path-effect
       effect="spiro"
       id="path-effect3041"
       is_visible="true" />
    <radialGradient
       id="rg"
       gradientUnits="userSpaceOnUse"
       cx="220"
       cy="220"
       r="405">
      <stop
         style="stop-color:#fff;stop-opacity:.3"
         offset="0"
         id="stop7" />
      <stop
         style="stop-color:#fff;stop-opacity:.2"
         offset=".2"
         id="stop9" />
      <stop
         style="stop-color:#666;stop-opacity:.1"
         offset=".6"
         id="stop11" />
      <stop
         style="stop-color:#000;stop-opacity:.13"
         offset="1"
         id="stop13" />
    </radialGradient>
    <path
       id="shield"
       d="m2,2v257c0,286 298,398 298,398c0,0 298-112 298-398V2z" />
    <radialGradient
       inkscape:collect="always"
       xlink:href="#rg-7"
       id="radialGradient3055-1"
       gradientUnits="userSpaceOnUse"
       cx="220"
       cy="220"
       r="405" />
    <radialGradient
       id="rg-7"
       gradientUnits="userSpaceOnUse"
       cx="220"
       cy="220"
       r="405">
      <stop
         style="stop-color:#fff;stop-opacity:.3"
         offset="0"
         id="stop7-4" />
      <stop
         style="stop-color:#fff;stop-opacity:.2"
         offset=".2"
         id="stop9-0" />
      <stop
         style="stop-color:#666;stop-opacity:.1"
         offset=".6"
         id="stop11-9" />
      <stop
         style="stop-color:#000;stop-opacity:.13"
         offset="1"
         id="stop13-4" />
    </radialGradient>
    <radialGradient
       r="405"
       cy="220"
       cx="220"
       gradientUnits="userSpaceOnUse"
       id="radialGradient3074"
       xlink:href="#rg-7"
       inkscape:collect="always" />
    <inkscape:path-effect
       is_visible="true"
       id="path-effect10120-1"
       effect="spiro" />
    <inkscape:path-effect
       effect="spiro"
       id="path-effect10118-3"
       is_visible="true" />
    <inkscape:path-effect
       effect="spiro"
       id="path-effect10116-9"
       is_visible="true" />
    <inkscape:path-effect
       effect="spiro"
       id="path-effect10114-7"
       is_visible="true" />
    <inkscape:path-effect
       effect="spiro"
       id="path-effect10112-7"
       is_visible="true" />
    <inkscape:path-effect
       effect="spiro"
       id="path-effect10110-2"
       is_visible="true" />
    <linearGradient
       inkscape:collect="always"
       xlink:href="#linearGradient4719-5"
       id="linearGradient4039"
       gradientUnits="userSpaceOnUse"
       gradientTransform="matrix(2.3257341,0,0,2.2943177,447.69485,-1820.2799)"
       x1="-145.25935"
       y1="984.24286"
       x2="-64.14286"
       y2="984.14789" />
    <linearGradient
       inkscape:collect="always"
       id="linearGradient4719-5">
      <stop
         style="stop-color:#666666;stop-opacity:1;"
         offset="0"
         id="stop4721-5" />
      <stop
         id="stop4809-1"
         offset="0.39344174"
         style="stop-color:#666666;stop-opacity:0.74901961;" />
      <stop
         style="stop-color:#666666;stop-opacity:0;"
         offset="1"
         id="stop4723-7" />
    </linearGradient>
    <radialGradient
       inkscape:collect="always"
       xlink:href="#linearGradient4801-8"
       id="radialGradient4041"
       gradientUnits="userSpaceOnUse"
       gradientTransform="matrix(-0.72153181,1.2650715,-2.2729984,-1.2616144,1712.0113,1733.7841)"
       cx="-307.14288"
       cy="782.36218"
       fx="-307.14288"
       fy="782.36218"
       r="63" />
    <linearGradient
       inkscape:collect="always"
       id="linearGradient4801-8">
      <stop
         style="stop-color:#000000;stop-opacity:1;"
         offset="0"
         id="stop4803-2" />
      <stop
         style="stop-color:#000000;stop-opacity:0;"
         offset="1"
         id="stop4805-4" />
    </linearGradient>
    <inkscape:path-effect
       effect="spiro"
       id="path-effect10108-4"
       is_visible="true" />
    <linearGradient
       inkscape:collect="always"
       xlink:href="#linearGradient4719-5"
       id="linearGradient4044"
       gradientUnits="userSpaceOnUse"
       gradientTransform="matrix(-2.4055369,0,0,-1.6485021,142.06168,1726.5307)"
       x1="-145.25935"
       y1="984.24286"
       x2="-64.14286"
       y2="984.14789" />
    <radialGradient
       inkscape:collect="always"
       xlink:href="#linearGradient4801-8"
       id="radialGradient4046"
       gradientUnits="userSpaceOnUse"
       gradientTransform="matrix(0.74628962,-0.90897301,2.3509914,0.90648896,-1165.637,-827.11785)"
       cx="-307.14288"
       cy="782.36218"
       fx="-307.14288"
       fy="782.36218"
       r="63" />
    <inkscape:path-effect
       effect="spiro"
       id="path-effect10102-7"
       is_visible="true" />
    <linearGradient
       inkscape:collect="always"
       xlink:href="#linearGradient4719-5"
       id="linearGradient4049"
       gradientUnits="userSpaceOnUse"
       gradientTransform="matrix(2.334989,0,0,-1.6146975,449.44065,1692.189)"
       x1="-145.25935"
       y1="984.24286"
       x2="-64.14286"
       y2="984.14789" />
    <radialGradient
       inkscape:collect="always"
       xlink:href="#linearGradient4801-8"
       id="radialGradient4051"
       gradientUnits="userSpaceOnUse"
       gradientTransform="matrix(-0.72440295,-0.89033332,-2.2820431,0.88790031,1718.7881,-809.09364)"
       cx="-307.14288"
       cy="782.36218"
       fx="-307.14288"
       fy="782.36218"
       r="63" />
    <inkscape:path-effect
       is_visible="true"
       id="path-effect10096-8"
       effect="spiro" />
    <linearGradient
       inkscape:collect="always"
       xlink:href="#linearGradient4719-5"
       id="linearGradient4054"
       gradientUnits="userSpaceOnUse"
       gradientTransform="matrix(-2.409599,0,0,2.2818507,139.61083,-1810.8163)"
       x1="-145.25935"
       y1="984.24286"
       x2="-64.14286"
       y2="984.14789" />
    <radialGradient
       inkscape:collect="always"
       xlink:href="#linearGradient4801-8"
       id="radialGradient4056"
       gradientUnits="userSpaceOnUse"
       gradientTransform="matrix(0.74754985,1.2581972,2.3549614,-1.2547588,-1170.296,1723.935)"
       cx="-307.14288"
       cy="782.36218"
       fx="-307.14288"
       fy="782.36218"
       r="63" />
    <inkscape:path-effect
       is_visible="true"
       id="path-effect10090-3"
       effect="spiro" />
    <inkscape:path-effect
       effect="spiro"
       id="path-effect10084-1"
       is_visible="true" />
    <inkscape:path-effect
       effect="spiro"
       id="path-effect10082-1"
       is_visible="true" />
    <radialGradient
       inkscape:collect="always"
       xlink:href="#linearGradient4801-8"
       id="radialGradient4061"
       gradientUnits="userSpaceOnUse"
       gradientTransform="matrix(-0.76516322,1.2901254,-2.4104477,-1.2865998,1806.8444,1757.4704)"
       cx="-307.14288"
       cy="782.36218"
       fx="-307.14288"
       fy="782.36218"
       r="63" />
    <inkscape:path-effect
       effect="spiro"
       id="path-effect10080-4"
       is_visible="true" />
    <inkscape:path-effect
       is_visible="true"
       id="path-effect3075-1"
       effect="spiro" />
    <inkscape:path-effect
       effect="spiro"
       id="path-effect3101-7"
       is_visible="true" />
    <linearGradient
       inkscape:collect="always"
       xlink:href="#grad1-7-7"
       id="linearGradient3085-8-8"
       gradientUnits="userSpaceOnUse"
       gradientTransform="matrix(0.77469594,0,0,0.30982404,152.68996,-13.619206)"
       x1="78.877235"
       y1="178.07356"
       x2="301.40585"
       y2="178.07356" />
    <linearGradient
       id="grad1-7-7"
       x1="78.877235"
       y1="178.07356"
       x2="301.40585"
       y2="178.07356"
       gradientTransform="scale(1.577772,0.63380513)"
       gradientUnits="userSpaceOnUse">
      <stop
         offset="0%"
         style="stop-color:#da0;"
         id="stop16-4-4" />
      <stop
         offset="40%"
         style="stop-color:#fd0;"
         id="stop18-0-0" />
      <stop
         offset="60%"
         style="stop-color:#fd0;"
         id="stop20-9-9" />
      <stop
         offset="100%"
         style="stop-color:#da0;"
         id="stop22-4-4" />
    </linearGradient>
    <linearGradient
       inkscape:collect="always"
       xlink:href="#grad1-7-7"
       id="linearGradient3081-8-8"
       gradientUnits="userSpaceOnUse"
       gradientTransform="matrix(0.77469594,0,0,0.30982404,-27.310046,-13.619206)"
       x1="78.877235"
       y1="178.07356"
       x2="301.40585"
       y2="178.07356" />
    <linearGradient
       id="linearGradient3093"
       x1="78.877235"
       y1="178.07356"
       x2="301.40585"
       y2="178.07356"
       gradientTransform="scale(1.577772,0.63380513)"
       gradientUnits="userSpaceOnUse">
      <stop
         offset="0%"
         style="stop-color:#da0;"
         id="stop3095" />
      <stop
         offset="40%"
         style="stop-color:#fd0;"
         id="stop3097" />
      <stop
         offset="60%"
         style="stop-color:#fd0;"
         id="stop3099" />
      <stop
         offset="100%"
         style="stop-color:#da0;"
         id="stop3101" />
    </linearGradient>
    <linearGradient
       y2="178.07356"
       x2="301.40585"
       y1="178.07356"
       x1="78.877235"
       gradientTransform="matrix(0.77469594,0,0,0.30982404,332.68995,-13.619206)"
       gradientUnits="userSpaceOnUse"
       id="linearGradient3128-1"
       xlink:href="#grad1-7-7"
       inkscape:collect="always" />
    <linearGradient
       id="linearGradient3104"
       x1="78.877235"
       y1="178.07356"
       x2="301.40585"
       y2="178.07356"
       gradientTransform="scale(1.577772,0.63380513)"
       gradientUnits="userSpaceOnUse">
      <stop
         offset="0%"
         style="stop-color:#da0;"
         id="stop3106" />
      <stop
         offset="40%"
         style="stop-color:#fd0;"
         id="stop3108" />
      <stop
         offset="60%"
         style="stop-color:#fd0;"
         id="stop3110" />
      <stop
         offset="100%"
         style="stop-color:#da0;"
         id="stop3112" />
    </linearGradient>
    <radialGradient
       inkscape:collect="always"
       xlink:href="#grad3-7"
       id="radialGradient3480"
       gradientUnits="userSpaceOnUse"
       cx="173.88"
       cy="173.88"
       fx="173.88"
       fy="173.88"
       r="36" />
    <radialGradient
       id="grad3-7"
       cx="0.33000001"
       cy="0.33000001"
       r="1">
      <stop
         offset="0%"
         style="stop-color:#777;"
         id="stop16-4" />
      <stop
         offset="50%"
         style="stop-color:#777;"
         id="stop18-0" />
      <stop
         offset="50%"
         style="stop-color:#444;"
         id="stop20-9" />
      <stop
         offset="100%"
         style="stop-color:#000;"
         id="stop22-4" />
    </radialGradient>
    <radialGradient
       inkscape:collect="always"
       xlink:href="#grad3-7"
       id="radialGradient3364"
       gradientUnits="userSpaceOnUse"
       cx="173.88"
       cy="173.88"
       fx="173.88"
       fy="173.88"
       r="36" />
    <radialGradient
       id="radialGradient3366"
       cx="0.33000001"
       cy="0.33000001"
       r="1">
      <stop
         offset="0%"
         style="stop-color:#777;"
         id="stop3368" />
      <stop
         offset="50%"
         style="stop-color:#777;"
         id="stop3370" />
      <stop
         offset="50%"
         style="stop-color:#444;"
         id="stop3372" />
      <stop
         offset="100%"
         style="stop-color:#000;"
         id="stop3374" />
    </radialGradient>
    <radialGradient
       inkscape:collect="always"
       xlink:href="#grad3-7"
       id="radialGradient3376"
       gradientUnits="userSpaceOnUse"
       cx="173.88"
       cy="173.88"
       fx="173.88"
       fy="173.88"
       r="36" />
    <radialGradient
       id="radialGradient3378"
       cx="0.33000001"
       cy="0.33000001"
       r="1">
      <stop
         offset="0%"
         style="stop-color:#777;"
         id="stop3380" />
      <stop
         offset="50%"
         style="stop-color:#777;"
         id="stop3382" />
      <stop
         offset="50%"
         style="stop-color:#444;"
         id="stop3384" />
      <stop
         offset="100%"
         style="stop-color:#000;"
         id="stop3386" />
    </radialGradient>
    <radialGradient
       inkscape:collect="always"
       xlink:href="#grad3-7"
       id="radialGradient3388"
       gradientUnits="userSpaceOnUse"
       cx="173.88"
       cy="173.88"
       fx="173.88"
       fy="173.88"
       r="36" />
    <radialGradient
       id="radialGradient3390"
       cx="0.33000001"
       cy="0.33000001"
       r="1">
      <stop
         offset="0%"
         style="stop-color:#777;"
         id="stop3392" />
      <stop
         offset="50%"
         style="stop-color:#777;"
         id="stop3394" />
      <stop
         offset="50%"
         style="stop-color:#444;"
         id="stop3396" />
      <stop
         offset="100%"
         style="stop-color:#000;"
         id="stop3398" />
    </radialGradient>
    <radialGradient
       gradientUnits="userSpaceOnUse"
       fy="173.88"
       fx="173.88"
       id="radialGradient3043-8"
       cx="173.88"
       cy="173.88"
       r="36">
      <stop
         offset="0%"
         style="stop-color:#777;"
         id="stop3045" />
      <stop
         offset="50%"
         style="stop-color:#777;"
         id="stop3047" />
      <stop
         offset="50%"
         style="stop-color:#444;"
         id="stop3049" />
      <stop
         offset="100%"
         style="stop-color:#000;"
         id="stop3051" />
    </radialGradient>
    <radialGradient
       inkscape:collect="always"
       xlink:href="#grad3-7"
       id="radialGradient3405"
       gradientUnits="userSpaceOnUse"
       cx="173.88"
       cy="173.88"
       fx="173.88"
       fy="173.88"
       r="36" />
    <radialGradient
       id="radialGradient3407"
       cx="0.33000001"
       cy="0.33000001"
       r="1">
      <stop
         offset="0%"
         style="stop-color:#777;"
         id="stop3409" />
      <stop
         offset="50%"
         style="stop-color:#777;"
         id="stop3411" />
      <stop
         offset="50%"
         style="stop-color:#444;"
         id="stop3413" />
      <stop
         offset="100%"
         style="stop-color:#000;"
         id="stop3415" />
    </radialGradient>
    <radialGradient
       inkscape:collect="always"
       xlink:href="#grad3-7"
       id="radialGradient3417"
       gradientUnits="userSpaceOnUse"
       cx="173.88"
       cy="173.88"
       fx="173.88"
       fy="173.88"
       r="36" />
    <radialGradient
       id="radialGradient3419"
       cx="0.33000001"
       cy="0.33000001"
       r="1">
      <stop
         offset="0%"
         style="stop-color:#777;"
         id="stop3421" />
      <stop
         offset="50%"
         style="stop-color:#777;"
         id="stop3423" />
      <stop
         offset="50%"
         style="stop-color:#444;"
         id="stop3425" />
      <stop
         offset="100%"
         style="stop-color:#000;"
         id="stop3427" />
    </radialGradient>
    <radialGradient
       inkscape:collect="always"
       xlink:href="#grad3-7"
       id="radialGradient3429"
       gradientUnits="userSpaceOnUse"
       cx="173.88"
       cy="173.88"
       fx="173.88"
       fy="173.88"
       r="36" />
    <radialGradient
       id="radialGradient3431"
       cx="0.33000001"
       cy="0.33000001"
       r="1">
      <stop
         offset="0%"
         style="stop-color:#777;"
         id="stop3433" />
      <stop
         offset="50%"
         style="stop-color:#777;"
         id="stop3435" />
      <stop
         offset="50%"
         style="stop-color:#444;"
         id="stop3437" />
      <stop
         offset="100%"
         style="stop-color:#000;"
         id="stop3439" />
    </radialGradient>
    <radialGradient
       inkscape:collect="always"
       xlink:href="#grad3-7"
       id="radialGradient3441"
       gradientUnits="userSpaceOnUse"
       cx="173.88"
       cy="173.88"
       fx="173.88"
       fy="173.88"
       r="36" />
    <radialGradient
       id="radialGradient3443"
       cx="0.33000001"
       cy="0.33000001"
       r="1">
      <stop
         offset="0%"
         style="stop-color:#777;"
         id="stop3445" />
      <stop
         offset="50%"
         style="stop-color:#777;"
         id="stop3447" />
      <stop
         offset="50%"
         style="stop-color:#444;"
         id="stop3449" />
      <stop
         offset="100%"
         style="stop-color:#000;"
         id="stop3451" />
    </radialGradient>
    <radialGradient
       inkscape:collect="always"
       xlink:href="#grad3-7"
       id="radialGradient3453"
       gradientUnits="userSpaceOnUse"
       cx="173.88"
       cy="173.88"
       fx="173.88"
       fy="173.88"
       r="36" />
    <radialGradient
       id="radialGradient3455"
       cx="0.33000001"
       cy="0.33000001"
       r="1">
      <stop
         offset="0%"
         style="stop-color:#777;"
         id="stop3457" />
      <stop
         offset="50%"
         style="stop-color:#777;"
         id="stop3459" />
      <stop
         offset="50%"
         style="stop-color:#444;"
         id="stop3461" />
      <stop
         offset="100%"
         style="stop-color:#000;"
         id="stop3463" />
    </radialGradient>
    <radialGradient
       inkscape:collect="always"
       xlink:href="#grad3-7"
       id="radialGradient3465"
       gradientUnits="userSpaceOnUse"
       cx="173.88"
       cy="173.88"
       fx="173.88"
       fy="173.88"
       r="36" />
    <radialGradient
       id="radialGradient3467"
       cx="0.33000001"
       cy="0.33000001"
       r="1">
      <stop
         offset="0%"
         style="stop-color:#777;"
         id="stop3469" />
      <stop
         offset="50%"
         style="stop-color:#777;"
         id="stop3471" />
      <stop
         offset="50%"
         style="stop-color:#444;"
         id="stop3473" />
      <stop
         offset="100%"
         style="stop-color:#000;"
         id="stop3475" />
    </radialGradient>
    <radialGradient
       inkscape:collect="always"
       xlink:href="#grad3-7"
       id="radialGradient3477"
       gradientUnits="userSpaceOnUse"
       cx="173.88"
       cy="173.88"
       fx="173.88"
       fy="173.88"
       r="36" />
    <radialGradient
       id="radialGradient3479"
       cx="0.33000001"
       cy="0.33000001"
       r="1">
      <stop
         offset="0%"
         style="stop-color:#777;"
         id="stop3481" />
      <stop
         offset="50%"
         style="stop-color:#777;"
         id="stop3483" />
      <stop
         offset="50%"
         style="stop-color:#444;"
         id="stop3485" />
      <stop
         offset="100%"
         style="stop-color:#000;"
         id="stop3487" />
    </radialGradient>
    <radialGradient
       inkscape:collect="always"
       xlink:href="#grad3-7"
       id="radialGradient3489"
       gradientUnits="userSpaceOnUse"
       cx="173.88"
       cy="173.88"
       fx="173.88"
       fy="173.88"
       r="36" />
    <radialGradient
       id="radialGradient3491"
       cx="0.33000001"
       cy="0.33000001"
       r="1">
      <stop
         offset="0%"
         style="stop-color:#777;"
         id="stop3493" />
      <stop
         offset="50%"
         style="stop-color:#777;"
         id="stop3495" />
      <stop
         offset="50%"
         style="stop-color:#444;"
         id="stop3497" />
      <stop
         offset="100%"
         style="stop-color:#000;"
         id="stop3499" />
    </radialGradient>
    <radialGradient
       inkscape:collect="always"
       xlink:href="#grad3-7"
       id="radialGradient3262"
       gradientUnits="userSpaceOnUse"
       cx="173.88"
       cy="173.88"
       fx="173.88"
       fy="173.88"
       r="36" />
  </defs>
  <g
     inkscape:groupmode="layer"
     id="layer2"
     inkscape:label="Elements"
     style="display:inline">
    <use
       height="1052.3622"
       width="744.09448"
       y="0"
       x="0"
       style="fill:#0000cc"
       id="background"
       xlink:href="#shield" />
    <path
       inkscape:connector-curvature="0"
       style="fill:#ffffff;stroke:none"
       d="m 101.03125,2 c 1.83988,4.1301975 3.45362,8.485373 5.03125,12.875 4.15434,11.55915 8.64617,22.76535 16.5,30.625 7.85385,7.85964 19.09711,12.34566 30.65625,16.5 11.55914,4.15434 22.76536,8.64615 30.625,16.5 7.85964,7.85384 12.34566,19.097112 16.5,30.65625 4.15434,11.55914 8.64617,22.76535 16.5,30.625 7.85385,7.85964 19.09711,12.34566 30.65625,16.5 11.55914,4.15434 22.76535,8.64616 30.625,16.5 7.85964,7.85384 12.34566,19.09711 16.5,30.65625 4.15434,11.55914 8.64617,22.76535 16.5,30.625 7.85385,7.85964 19.09711,12.34566 30.65625,16.5 11.55914,4.15434 22.76535,8.64616 30.625,16.5 7.85964,7.85384 12.34566,19.09711 16.5,30.65625 4.15434,11.55914 8.64617,22.76535 16.5,30.625 7.85385,7.85964 19.09711,12.34566 30.65625,16.5 11.55914,4.15434 22.76536,8.64615 30.625,16.5 7.85957,7.85391 12.34566,19.09711 16.5,30.65625 4.15434,11.55915 8.64617,22.76535 16.5,30.625 7.85384,7.85964 19.0971,12.34566 30.65625,16.5 6.37231,2.2902 12.625,4.68545 18.28125,7.6875 13.52706,-23.72917 25.04145,-49.6691 33.53125,-77.9375 -1.69638,-3.88777 -3.21184,-7.95659 -4.6875,-12.0625 -4.15434,-11.56786 -8.64043,-22.77109 -16.5,-30.625 -7.85964,-7.85384 -19.06586,-12.34566 -30.625,-16.5 -11.55915,-4.15434 -22.80241,-8.64036 -30.65625,-16.5 -7.85383,-7.85978 -12.34566,-19.0971 -16.5,-30.65625 -4.15434,-11.55914 -8.64043,-22.77109 -16.5,-30.625 -7.85964,-7.85385 -19.06586,-12.34566 -30.625,-16.5 -11.55914,-4.15434 -22.8024,-8.64036 -30.65625,-16.5 -7.85383,-7.85965 -12.34566,-19.09711 -16.5,-30.65625 -4.15434,-11.55914 -8.64036,-22.77116 -16.5,-30.625 -7.85965,-7.85384 -19.06586,-12.34566 -30.625,-16.5 -11.55914,-4.15434 -22.8024,-8.64036 -30.65625,-16.5 -7.85383,-7.859648 -12.34566,-19.09711 -16.5,-30.65625 -4.15434,-11.55914 -8.64036,-22.77116 -16.5,-30.625 -7.85965,-7.85384 -19.06586,-12.34566 -30.625,-16.5 -11.55914,-4.15434 -22.8024,-8.64036 -30.65625,-16.5 C 214.36366,7.8618267 212.21732,5.0593414 210.3125,2 L 101.03125,2 z M 364.625,2 c 2.83437,1.8136731 5.45542,3.832135 7.78125,6.15625 7.85964,7.85384 12.34566,19.09711 16.5,30.65625 4.15434,11.55914 8.64617,22.76535 16.5,30.625 7.85385,7.85964 19.09711,12.34566 30.65625,16.5 11.55914,4.15434 22.76536,8.64615 30.625,16.5 7.85957,7.85391 12.34566,19.09711 16.5,30.65625 4.15434,11.55915 8.64617,22.76535 16.5,30.625 7.85384,7.85964 19.0971,12.34566 30.65625,16.5 11.55914,4.15434 22.76536,8.64616 30.625,16.5 7.85957,7.85391 12.34566,19.08839 16.5,30.65625 4.15434,11.5591 8.64617,22.7653 16.5,30.625 1.2504,1.25132 2.59018,2.40743 4,3.5 0.005,-0.83623 0.0312,-1.66077 0.0312,-2.5 l 0,-126.90625 c -1.42253,-1.10028 -2.77065,-2.26973 -4.03125,-3.53125 -7.85383,-7.8597 -12.34566,-19.09715 -16.5,-30.65625 -4.15434,-11.56786 -8.64043,-22.77109 -16.5,-30.625 -7.85964,-7.85384 -19.06586,-12.34566 -30.625,-16.5 -11.55915,-4.15434 -22.80241,-8.64036 -30.65625,-16.5 C 491.83367,26.42147 487.34184,15.18415 483.1875,3.625 482.99209,3.0812879 482.79094,2.5418625 482.59375,2 L 364.625,2 z M 2,28.0625 2,157.53125 c 4.030968,6.55728 6.9819222,14.17983 9.78125,21.96875 4.154341,11.55915 8.646166,22.76535 16.5,30.625 7.853842,7.85964 19.097108,12.34566 30.65625,16.5 11.559143,4.15434 22.765351,8.64616 30.625,16.5 7.859641,7.85384 12.34566,19.09711 16.5,30.65625 4.15434,11.55915 8.64617,22.76535 16.5,30.625 7.85385,7.85964 19.09711,12.34566 30.65625,16.5 11.55914,4.15434 22.76536,8.64615 30.625,16.5 7.85964,7.85384 12.34566,19.09711 16.5,30.65625 4.15434,11.55914 8.64617,22.76535 16.5,30.625 7.85385,7.85964 19.09711,12.34566 30.65625,16.5 11.55914,4.15434 22.76535,8.64616 30.625,16.5 7.85964,7.85384 12.34566,19.09711 16.5,30.65625 4.15434,11.55914 8.64617,22.76535 16.5,30.625 7.85385,7.85964 19.09711,12.34566 30.65625,16.5 11.55914,4.15434 22.76535,8.64616 30.625,16.5 7.85964,7.85384 12.34566,19.09711 16.5,30.65625 4.15434,11.55914 8.64617,22.76535 16.5,30.625 2.31806,2.31977 4.92044,4.34604 7.75,6.15625 23.98417,-17.31638 49.25908,-38.39448 73.1875,-63.53125 -1.10874,-2.76102 -2.13354,-5.59188 -3.15625,-8.4375 -4.15434,-11.55914 -8.64043,-22.77109 -16.5,-30.625 -7.85964,-7.85385 -19.06586,-12.34566 -30.625,-16.5 -11.55914,-4.15434 -22.8024,-8.64036 -30.65625,-16.5 -7.85383,-7.85965 -12.34566,-19.09711 -16.5,-30.65625 -4.15434,-11.55914 -8.64036,-22.77116 -16.5,-30.625 -7.85965,-7.85384 -19.06586,-12.34566 -30.625,-16.5 -11.55914,-4.15434 -22.8024,-8.64036 -30.65625,-16.5 -7.85383,-7.85965 -12.34566,-19.09711 -16.5,-30.65625 -4.15434,-11.55914 -8.64036,-22.77116 -16.5,-30.625 -7.85965,-7.85384 -19.06586,-12.34566 -30.625,-16.5 -11.55914,-4.15434 -22.8024,-8.64036 -30.65625,-16.5 -7.85383,-7.85965 -12.34566,-19.09711 -16.5,-30.65625 -4.15434,-11.55914 -8.64036,-22.77116 -16.5,-30.625 -7.85964,-7.85385 -19.06586,-12.34566 -30.625,-16.5 -11.55914,-4.15434 -22.8024,-8.64036 -30.65625,-16.5 -7.85383,-7.85965 -12.34566,-19.0971 -16.5,-30.65625 -4.15434,-11.55914 -8.640359,-22.77116 -16.5,-30.625 -7.859649,-7.85384 -19.065857,-12.34566 -30.625,-16.5 C 47.378358,93.03316 36.135092,88.54714 28.28125,80.6875 20.427416,72.82785 15.935591,61.5904 11.78125,50.03125 8.9819222,42.24233 6.030968,34.61978 2,28.0625 z M 3.125,288.875 c 6.5357632,87.43095 41.308598,157.32917 84.90625,211.71875 0.01092,0.01 0.02034,0.0214 0.03125,0.0312 0.516642,0.46534 1.008772,0.94664 1.5,1.4375 2.456138,2.45432 4.57869,5.23167 6.46875,8.25 0.01466,0.0173 0.01659,0.0452 0.03125,0.0625 C 183.39094,613.19273 300,657 300,657 c 0,0 15.86943,-5.95581 40.25,-18.625 -11.01391,-4.00392 -21.61948,-8.42645 -29.125,-15.9375 -7.85383,-7.85965 -12.34566,-19.09711 -16.5,-30.65625 -4.15434,-11.55914 -8.64036,-22.77116 -16.5,-30.625 -7.85965,-7.85384 -19.06586,-12.34566 -30.625,-16.5 -11.55914,-4.15434 -22.8024,-8.64036 -30.65625,-16.5 -7.85383,-7.85965 -12.34566,-19.09711 -16.5,-30.65625 -4.15434,-11.55914 -8.64036,-22.77116 -16.5,-30.625 -7.85964,-7.85385 -19.06586,-12.34566 -30.625,-16.5 -11.55914,-4.15434 -22.8024,-8.64036 -30.65625,-16.5 -7.85383,-7.85965 -12.34566,-19.06585 -16.5,-30.625 -4.15434,-11.55914 -8.640359,-22.80241 -16.5,-30.65625 -7.859649,-7.85384 -19.065857,-12.34566 -30.625,-16.5 -11.559142,-4.15434 -22.802408,-8.64036 -30.65625,-16.5 -7.853834,-7.85965 -12.345659,-19.06585 -16.5,-30.625 C 9.2490436,301.92308 6.5925175,294.98794 3.125,288.875 z"
       id="path3249" />
    <g
       id="g3326">
      <path
         style="fill:#994400"
         d="m 150,150 0,109 c 0,122.45655 90.12925,196.92036 150,232.97852 C 359.87075,455.92036 450,381.45655 450,259 l 0,-109 -300,0 z"
         id="inescutcheon"
         inkscape:connector-curvature="0" />
      <circle
         id="stud"
         cx="180"
         cy="180"
         r="18"
         style="fill:url(#radialGradient3262)"
         sodipodi:cx="180"
         sodipodi:cy="180"
         sodipodi:rx="18"
         sodipodi:ry="18"
         d="m 198,180 c 0,9.94113 -8.05887,18 -18,18 -9.94113,0 -18,-8.05887 -18,-18 0,-9.94113 8.05887,-18 18,-18 9.94113,0 18,8.05887 18,18 z" />
      <g
         id="row3">
        <g
           id="row2">
          <use
             xlink:href="#stud"
             x="80"
             id="use33"
             y="0"
             width="600"
             height="660" />
          <use
             xlink:href="#stud"
             x="160"
             id="use35"
             y="0"
             width="600"
             height="660" />
        </g>
        <use
           xlink:href="#stud"
           x="240"
           id="use37"
           y="0"
           width="600"
           height="660" />
      </g>
      <g
         transform="translate(0,80)"
         id="use39">
        <circle
           d="m 198,180 c 0,9.94113 -8.05887,18 -18,18 -9.94113,0 -18,-8.05887 -18,-18 0,-9.94113 8.05887,-18 18,-18 9.94113,0 18,8.05887 18,18 z"
           id="circle3031"
           cx="180"
           cy="180"
           r="18"
           style="fill:url(#radialGradient3043-8)"
           sodipodi:cx="180"
           sodipodi:cy="180"
           sodipodi:rx="18"
           sodipodi:ry="18" />
        <g
           id="g3033">
          <g
             id="g3035">
            <use
               xlink:href="#stud"
               x="80"
               id="use3037"
               y="0"
               width="600"
               height="660" />
            <use
               xlink:href="#stud"
               x="160"
               id="use3039"
               y="0"
               width="600"
               height="660" />
          </g>
          <use
             xlink:href="#stud"
             x="240"
             id="use3041"
             y="0"
             width="600"
             height="660" />
        </g>
      </g>
      <use
         id="use41"
         y="160"
         x="-40"
         xlink:href="#row3"
         width="744.09448"
         height="1052.3622" />
      <use
         id="use43"
         y="240"
         xlink:href="#row2"
         x="0"
         width="744.09448"
         height="1052.3622" />
    </g>
  </g>
  <g
     inkscape:groupmode="layer"
     id="layer1"
     inkscape:label="Cover"
     style="display:inline"
     sodipodi:insensitive="true">
    <path
       d="m 2,2 v 257 c 0,286 298,398 298,398 0,0 298,-112 298,-398 V 2 z"
       id="shine"
       inkscape:connector-curvature="0"
       style="fill:url(#radialGradient3074);stroke:#000000;stroke-width:3" />
  </g>
</svg>
