<?xml version="1.0" encoding="UTF-8" standalone="no"?>
<svg
   xmlns:dc="http://purl.org/dc/elements/1.1/"
   xmlns:cc="http://creativecommons.org/ns#"
   xmlns:rdf="http://www.w3.org/1999/02/22-rdf-syntax-ns#"
   xmlns:svg="http://www.w3.org/2000/svg"
   xmlns="http://www.w3.org/2000/svg"
   xmlns:xlink="http://www.w3.org/1999/xlink"
   id="svg114"
   version="1.1"
   height="660"
   width="600">
  <metadata
     id="metadata118">
    <rdf:RDF>
      <cc:Work
         rdf:about="">
        <dc:format>image/svg+xml</dc:format>
        <dc:type
           rdf:resource="http://purl.org/dc/dcmitype/StillImage" />
        <dc:title></dc:title>
      </cc:Work>
    </rdf:RDF>
  </metadata>
  <defs
     id="defs12">
    <radialGradient
       r="405"
       cy="220"
       cx="220"
       gradientUnits="userSpaceOnUse"
       id="rg">
      <stop
         id="stop2"
         offset="0"
         style="stop-color:#fff;stop-opacity:.3" />
      <stop
         id="stop4"
         offset=".2"
         style="stop-color:#fff;stop-opacity:.2" />
      <stop
         id="stop6"
         offset=".6"
         style="stop-color:#666;stop-opacity:.1" />
      <stop
         id="stop8"
         offset="1"
         style="stop-color:#000;stop-opacity:.13" />
    </radialGradient>
    <path
       d="m2,2v257c0,286 298,398 298,398c0,0 298-112 298-398V2z"
       id="shield" />
  </defs>
  <use
     id="use14"
     style="fill:#996600;"
     xlink:href="#shield" />
  <g
     id="g621">
    <g
       id="g502">
      <path
         style="opacity:1;vector-effect:none;fill:#ffdd00;fill-opacity:1;stroke:#996600;stroke-width:1;stroke-linecap:round;stroke-linejoin:round;stroke-miterlimit:4;stroke-dasharray:none;stroke-dashoffset:0;stroke-opacity:1"
         d="m 382.8,274.2 c 5.9,17.9 3.8,64.4 -16.7,53.9 l 19.7,27.4 c 18.3,-20.4 17.5,-53.2 11.3,-81.8 -2.9,-13.2 -18.4,-11.7 -14.3,0.5 z"
         id="path40-3" />
      <path
         style="opacity:1;vector-effect:none;fill:#000000;fill-opacity:1;stroke:none;stroke-width:1.5;stroke-linecap:round;stroke-linejoin:round;stroke-miterlimit:4;stroke-dasharray:none;stroke-dashoffset:0;stroke-opacity:1"
         d="m 394.8,311.4 c 0.3,2.7 0.9,6.3 -1.4,6.7 -2.3,0.4 -2.7,-2.4 -3.1,-5.3 -0.3,-2.7 -2.8,-5.8 -0.4,-6 2.3,-0.4 4.5,1.7 4.9,4.6 z m -6.8,17.7 c -2.1,-1.3 -5.6,-2.1 -6.5,-0.5 -0.8,1.7 0.8,4.6 3.2,5.9 2.2,1.4 4.4,2.2 5.2,0.6 1,-1.7 0.6,-4.8 -1.9,-6 z"
         id="path42-5" />
      <path
         style="opacity:1;vector-effect:none;fill:#000000;fill-opacity:1;stroke:none;stroke-width:1.5;stroke-linecap:round;stroke-linejoin:round;stroke-miterlimit:4;stroke-dasharray:none;stroke-dashoffset:0;stroke-opacity:1"
         d="m 382.8,274.2 c 0.8,2.4 1.4,5.3 1.9,8.4 4.8,5 10.6,2.4 13.9,-1.3 -0.3,-2.6 -1,-5 -1.5,-7.6 -2.9,-13.2 -18.4,-11.7 -14.3,0.5 z"
         id="path44-6" />
    </g>
    <g
       id="g486">
      <path
         id="path23"
         d="m 309.6,422.6 c -2.7,2.8 -5,6.3 -6.1,10.1 -1.4,5.6 0,11.5 0.6,17.3 0.4,2.5 1.8,4.1 0.7,6.5 -1,1.9 -3,2.8 -4.4,4.3 -4.1,5 -4.8,8.7 -8.7,12.2 -1,0.2 -2.1,-0.1 -3.6,-1.2 -2.2,6.8 -4.5,10.2 -9.8,13.3 -1.2,-0.2 -2,-1.7 -2.9,-3.2 -1.9,4.8 -4.1,9.4 -9.7,12.8 -2.1,-0.1 -2.5,-1.8 -2.9,-3.3 -5.5,3.4 -10.7,8 -19.8,4 -5.9,6.9 -21,1.1 -15.5,-10.9 -5,2.6 -15.2,-7.5 -5.3,-15.9 -3.7,-3.1 -0.4,-13.9 9.5,-10 2.9,-3.7 9.3,-6.2 15,3.9 2.7,4.6 4.8,4.2 7,2.2 3.9,-3.3 11.9,-10.9 14.3,-14.3 1.6,-2.3 2.9,-4.8 3.2,-7.6 1.4,-7.9 -0.4,-16.5 -1.8,-24.6 -0.8,-4.1 -3.4,-9.5 -3.1,-13.9 0,-3.6 -0.1,-5.9 2.7,-8.3 -2,-0.9 -2.4,-1.7 -3,-3.2 -1.4,-4.3 0.9,-9.1 3,-13 8.3,-14.5 27.4,-22.1 36.6,-33.1 -0.3,0.4 0.4,-0.3 0.9,-1.1 9.4,-7.5 12,-14.2 13.3,-20.8 l 21.7,57.7 c 1.1,6.3 -2.9,21.7 -11.8,29 -5.7,4.7 -14.6,5.7 -20.1,11.1 z"
         style="opacity:1;vector-effect:none;fill:#ffdd00;fill-opacity:1;stroke:#996600;stroke-width:1;stroke-linecap:round;stroke-linejoin:round;stroke-miterlimit:4;stroke-dasharray:none;stroke-dashoffset:0;stroke-opacity:1" />
      <path
         id="path21"
         d="m 237.6,466.4 c -0.6,-0.6 -1.1,-1.5 -1.5,-2.5 -1,-1.8 -2.2,-3.7 -4.9,-4.8 l 0.4,-1.1 c 1.5,0.6 2.5,1.5 3.4,2.5 0.8,1 1.4,2 2,3 0.5,0.9 0.9,1.8 1.4,2.3 0.4,0.5 0.8,0.7 1.4,1.3 -0.8,0.5 -1.6,0.1 -2.2,-0.7 z m -3.4,6.7 c -1.8,-1.7 -3.9,-4.4 -5.9,-4.9 -2,-0.5 -3.5,-0.8 -6,0.9 l -0.5,-0.9 c 0.9,-0.7 1.9,-1.1 2.8,-1.2 1.3,-0.4 2.6,-0.2 4,0.1 2.6,0.8 4.6,3.7 6.4,5.2 1.6,1.6 3.2,1.7 3.2,1.7 0,0 -1.9,0.9 -4,-0.9 z m -3.5,9.2 c -1.9,0.8 -3,2.8 -3,2.8 l -0.9,-0.5 c 0,0 1.2,-2.3 3.6,-3.2 0.5,-0.2 0.9,-0.4 1.4,-0.5 3.2,-0.8 6.2,-0.2 8.6,2.8 -3.3,-2.4 -6.1,-2.7 -9.7,-1.4 z"
         style="fill:#996600;stroke:none;stroke-width:1;fill-opacity:1" />
      <path
         id="path25"
         d="m 230,453.1 c -0.9,0.1 -1.6,0.4 -2.5,0.7 2.3,0.9 3.2,0.6 4.7,3.4 1.1,0 1.7,0.4 3.6,0.3 1.1,-0.4 1.5,-1.5 1.9,-2.5 -2.9,-2.2 -5.3,-2.5 -7.7,-1.9 z m -10.2,7.3 c -2.7,1 -4.4,2.9 -6.4,5.8 4.1,-1 5.6,-0.5 7.8,1 0.9,-1 1.4,-1 2.6,-3.1 -0.2,-2.2 -0.6,-3.3 -1,-4.2 -1.2,0.1 -2.2,0.3 -3,0.5 z m -1.7,15.2 c -3.3,3.4 -3.7,6.3 -3.4,11.2 2.5,-3.4 4,-4.1 6.4,-4.4 0.2,-1.1 0.6,-1.6 0.4,-4 -1.5,-1.7 -2.5,-2.3 -3.4,-2.8 z m 8.6,16.5 c -1.6,4.6 -0.9,7.5 1.5,11.9 0.8,-4.3 1.8,-5.6 3.9,-6.9 -0.3,-1.3 -0.1,-1.8 -1.4,-3.9 -2,-0.8 -3.1,-1 -4,-1.1 z"
         style="fill:#e6e6e6;stroke:#996600;stroke-width:1;stroke-opacity:1;stroke-linecap:round;stroke-linejoin:round" />
      <path
         id="path26-5"
         d="m 292,374.7 c 0.3,2.6 -1.1,7 -3.9,8.9 -2.4,1.9 -5.4,1 -5.3,-1.7 -0.2,-2.5 0.1,-5.1 2.6,-6.9 2.6,-2 6.4,-2.8 6.6,-0.3 z m 16.4,-1.5 c -0.2,2 -1.2,4.2 -2.7,3.2 -1.5,-1.1 -3.1,-4.3 -3,-6.3 0,-2.1 0.4,-3.7 1.9,-2.8 1.5,1.1 3.6,3.9 3.8,5.9 z m 13.3,8.8 c -0.7,4 -2,9.3 -3.4,8.6 -1.3,-0.5 -2,-5.6 -1.4,-9.5 0.5,-4.1 1.3,-7.7 2.4,-7.3 1.5,0.4 3,4.2 2.4,8.2 z"
         style="fill:#000000;stroke:none;stroke-width:1.5;stroke-linecap:round;stroke-linejoin:round" />
    </g>
    <g
       id="g512">
      <path
         id="path33"
         d="m 244,232.6 c 0,0 -2.9,-0.6 -4.8,-0.2 -2.8,0.5 -6.7,3 -9.5,3.5 -3.3,0.8 -6.5,0.7 -9.8,0.4 -1.9,-0.1 -4,-0.1 -6.2,0.1 -7.1,0.8 -13.1,3.9 -19.9,4.6 -8.5,0.9 -17,0.2 -25.5,-0.3 -7.9,-0.4 -15.5,-3.6 -22.9,-1.2 -5.2,1.8 -7.6,3.8 -10.9,8 -1.4,1.6 -7.6,5 -10.4,5.6 -5.7,1.3 -10,-1.2 -14.1,2.6 -3.2,2.8 -0.2,5.9 -0.2,5.9 -10.8,3.2 -9.9,12.7 -2.9,14.2 -0.9,4.3 8.4,14.9 17.6,5.4 4.8,4.9 13.2,-0.9 14.2,-5.7 0,0 4.5,-2.5 6.5,-4.2 1.3,-0.9 4.8,-3.4 4.8,-3.4 7.7,-3.2 18.4,2.4 25.4,-0.8 -0.4,1.9 -0.6,3.2 0.6,4.7 2.9,0.1 4.4,-0.8 6.2,-2.7 0.5,2 0.2,3.3 2.8,5.3 2.6,-0.3 4.2,-1.3 5.6,-3.2 0.1,1.2 -0.2,1.2 0.5,3.4 3.8,-0.3 4.5,-1.3 5.9,-2.4 -0.1,1.7 0.1,2.5 1.2,3.9 3.8,0.6 5.2,-0.6 6.6,-1.8 6.3,4 12.1,3.5 18,3.9 4.6,6.6 8.9,10.7 12.3,11.2 z"
         style="opacity:1;vector-effect:none;fill:#ffdd00;fill-opacity:1;stroke:#996600;stroke-width:1;stroke-linecap:round;stroke-linejoin:round;stroke-miterlimit:4;stroke-dasharray:none;stroke-dashoffset:0;stroke-opacity:1" />
      <path
         id="path35"
         d="m 113.8,262 c -1.4,0 -2.6,-0.2 -4.1,0.1 l -0.1,-1 c 1.6,-0.3 2.9,0 4,-0.1 1.2,-0.1 2.2,-0.4 3.7,-1.2 -1.1,1.7 -2.3,2.1 -3.5,2.2 z m 4.5,8.1 c -2.4,1.3 -5.9,1.6 -8.1,2.5 -1.3,0.7 -2.1,1.4 -2.4,2.2 -0.4,0.6 -0.4,1.1 -0.4,1.1 l -1.1,-0.2 c 0,0 0.3,-0.6 0.6,-1.6 0.5,-0.7 1.4,-1.7 2.9,-2.4 2.5,-1.2 5.9,-1.4 8,-2.6 1.6,-0.9 4.1,-3 4.1,-3 0,0 -1.7,2.9 -3.6,4 z m 11.3,2.7 c -0.4,1.2 -1.4,2 -2.4,2.7 -1,0.6 -1.9,1.2 -2.5,1.8 -0.6,1.2 -0.6,2.1 -0.4,2.7 0.3,0.6 0.6,0.9 0.6,0.9 l -0.7,0.7 c 0,0 -0.5,-0.5 -0.7,-1.2 -0.4,-1 -0.4,-2.2 0.4,-3.6 0.7,-1 1.8,-1.7 2.7,-2.3 1,-0.5 1.8,-1.2 2,-2.1 0.6,-1.6 0.4,-3.1 0.4,-3.1 0,0 1.2,1.5 0.6,3.5 z"
         style="fill:#996600;stroke:none;stroke-width:1;fill-opacity:1" />
      <path
         id="path37"
         d="m 130.4,282.4 c -0.7,3.2 -0.7,4.2 0.6,6.5 -3.1,-1.4 -4.1,-3.1 -5.2,-7.5 2.6,-1.1 2.8,-1.1 4.6,1 z m -19.9,-26.9 c 1.4,2.7 1.5,3 -0.5,4.7 -3.1,-0.5 -4.1,-0.3 -6.2,1 1.1,-3.4 2.7,-4.4 6.7,-5.7 z m 1.4,26 c 0.3,0.4 0.4,1.1 0.5,2.1 -2.1,2.3 -2.5,3.4 -2.6,5.9 -2,-3 -2,-4.9 -0.8,-9.2 1.8,0.2 2.5,0.4 2.9,1.2 z m -8,-11 c 0.6,0.7 0.4,1.3 -0.1,3 -3,1 -3.7,1.7 -4.9,3.9 -0.6,-3.6 0.3,-5.2 3.2,-8.4 0.9,0.6 1.4,1.1 1.8,1.5 z"
         style="fill:#e6e6e6;stroke:#996600;stroke-width:1;stroke-opacity:1;stroke-linecap:round;stroke-linejoin:round" />
      <path
         id="path20-7"
         d="m 212.1,247 c -1.1,-2.6 -3.5,-5.6 -5.4,-5.1 -2.1,0.6 -2.9,4.2 -1.8,6.8 0.9,2.6 2.3,4.8 4.1,4.1 2.1,-0.6 4.2,-3.3 3.1,-5.8 z m -25.9,-0.9 c 4.1,-0.5 9.3,-0.1 9.4,1.2 0,1.5 -4.9,3.7 -9,4.2 -4.1,0.3 -7.9,0.5 -7.6,-0.9 0,-1.5 3.1,-4 7.2,-4.5 z m 14.6,12.8 c 3.6,0.3 8,1.8 7.9,3.2 -0.2,1.7 -4.3,2.8 -8,2.4 -3.3,-0.4 -6.6,-1 -6.4,-2.7 0.2,-1.4 3.2,-3.3 6.5,-2.9 z"
         style="fill:#000000;stroke:none;stroke-width:1.5;stroke-linecap:round;stroke-linejoin:round" />
    </g>
    <path
       style="fill:#ffdd00;stroke:#996600;stroke-width:1;stroke-opacity:1;stroke-linecap:round;stroke-linejoin:round"
       d="m 233.4,169.1 c -0.8,18.4 -21.2,38 -25.4,59.9 -1.9,10 -1,18.1 3.2,28.1 -0.7,1.6 -1.4,3.6 -1.8,5.6 -1.6,7.1 -0.9,14.1 -2.4,20.9 -2,8.4 -5.4,16.4 -8.5,24.4 -2.9,7.5 -8.3,13.6 -8.4,21.6 -0.1,5.6 1,8.7 3.6,13.3 1,1.8 2,9 1.7,12 -0.6,5.9 -4.4,9.2 -2.3,14.5 1.5,4.1 5.2,2.2 5.2,2.2 -0.7,11.5 8.2,14.1 11.7,7.8 3.5,2.5 16.1,-2.7 10.4,-15 6,-2.8 3.6,-13 -0.3,-15.7 0,0 -0.8,-5.2 -1.7,-7.8 -0.4,-1.3 -1.5,-5.7 -1.5,-5.7 -0.4,-8.7 8.1,-16.8 7.5,-24.7 1.4,1 2.6,1.6 4.3,1.1 1.1,-2.7 0.8,-4.6 -0.4,-6.9 2,0.2 3.1,1 5.7,-0.8 0.5,-2 0.4,-3.6 -0.1,-4.9 7.3,10.2 17.4,19.5 27,27.2 12.3,9.9 22.8,14.2 40.9,26.5 9.5,6.4 15.9,11.3 26.4,20.7 6.1,14.7 4.6,35.6 13.6,49.8 2.3,3.7 5.6,7.8 9.8,8.4 1.7,0.2 2.5,0.2 4,-1.4 0.9,3.7 2.9,4.6 6.1,6.3 3.5,2.1 9.2,2.3 13.1,3.3 7.6,2.3 15.5,4.4 21.9,9.2 2.1,1.6 3.9,3.9 5.1,6.3 2,3.8 5.1,14.5 6.3,19.6 0.7,2.9 0.3,5.1 -4.7,5.4 -11.1,0.9 -11.6,7.8 -9.7,12.2 -7.5,7.3 0.5,15.2 4.5,13.1 3.2,12.9 16.1,8 15.9,2.3 7.9,10.3 19.3,-1 15.9,-9.5 7.2,-6.7 5.3,-13.5 4.6,-20.1 1.6,0.3 3.2,0.7 4.2,-1.2 -0.7,-6.6 -3.7,-10.8 -6.9,-14.6 1.6,-0.1 3.1,-0.2 3.9,-1.2 -0.5,-6.2 -2.5,-10 -7.3,-15 1.6,-0.9 2.4,-1.8 2.5,-2.8 -1.4,-5 -4.1,-7.5 -6.7,-13.4 -0.8,-2 -0.6,-4.3 -1.9,-6 -1.5,-2 -3.6,-1.4 -5.8,-2.4 -5.2,-1.8 -11,-3.2 -15.1,-6.9 -2.8,-2.7 -4.8,-6.4 -6,-10.1 -2.5,-7.5 -1.2,-15.5 -0.7,-23.4 1,-15.5 -1.1,-23.1 -9.1,-34.2 -10.8,-15.1 -13.4,-14.9 -35.1,-33.6 -13,-11.1 -32.9,-45.9 -40.3,-61.3 -8,-16.8 -11.5,-23.4 -13.5,-56.6 -1.4,-23.8 -2.9,-19.4 -11.9,-45.1 -3.8,-10.8 -9.2,-22.7 -17.8,-31 l -31.8,17.8 z"
       id="path85-1" />
    <g
       id="g494">
      <path
         style="fill:#996600;stroke:none;stroke-width:1;fill-opacity:1"
         d="m 327.7,373.5 v 0 0 c 0.5,0.9 0.8,1.9 1.1,2.8 l 1,-0.3 c -0.4,-0.9 -0.8,-1.9 -1.1,-2.8 v -0.1 c -2.6,-11.9 -7.3,-17.6 -12.8,-21.1 4.7,4.3 9.3,9.6 11.8,21.5 z"
         id="path79" />
      <path
         id="path83"
         d="m 402.9,490.5 c -0.8,0.2 -1.8,0.2 -2.7,0.2 -2,0.2 -4.3,0.4 -6.3,2.4 l -0.7,-0.8 c 1.1,-1.2 2.4,-1.8 3.5,-2.1 1.2,-0.4 2.4,-0.5 3.5,-0.4 1,-0.1 1.8,-0.1 2.5,-0.3 0.5,-0.1 1,-0.5 1.7,-0.9 0.1,1.2 -0.7,1.7 -1.5,1.9 z m 4.3,6 c -2.3,0.9 -5.4,1.8 -6.7,3.3 -1.3,1.6 -2.1,2.9 -1.7,5.8 l -1,0.2 c -0.5,-3.2 0.6,-5 2,-6.7 1.6,-2.1 5,-2.7 7,-3.6 2,-0.9 2.9,-2.3 2.9,-2.3 0,0 -0.1,2.3 -2.5,3.3 z m 6.4,7.2 c -0.1,2.3 1.2,4.2 1.2,4.2 l -0.8,0.5 c 0,0 -1.6,-2 -1.3,-4.7 0.3,-4.1 2.1,-7.1 6.1,-8.1 -3.4,1.9 -4.9,4.3 -5.2,8.1 z"
         style="fill:#996600;stroke:none;stroke-width:1;fill-opacity:1" />
      <path
         id="path87"
         d="m 393.7,485.3 c -4,2.3 -5,5.1 -5.3,9 1.7,-1.7 1.7,-2.8 4.8,-2.9 0.6,-1 1.1,-1.4 1.9,-3.1 0,-1.4 -0.6,-2.2 -1.4,-3 z m -2.4,16 c -1.5,4.5 -0.3,7.3 2.2,11.3 0.5,-4.2 1.5,-5.6 3.5,-7.1 -0.5,-1.1 -0.3,-1.7 -1.7,-3.7 -2.1,-0.6 -3.2,-0.7 -4,-0.5 z m 17.3,8.9 c -1.7,1.4 -2.3,2.3 -2.9,3.1 2.9,3.8 5.7,4.4 10.5,4.7 -3.2,-2.9 -3.7,-4.5 -3.7,-7 -1.2,-0.3 -1.6,-0.9 -3.9,-0.8 z m 15.4,-2.3 c -1.4,1.7 -1.9,2.6 -2.1,3.6 3.4,3.2 6.5,3.3 11,2.5 -3.6,-2.2 -4.4,-3.6 -5,-6.2 -1.1,0 -1.6,-0.4 -3.9,0.1 z"
         style="fill:#e6e6e6;stroke:#996600;stroke-width:1;stroke-opacity:1;stroke-linecap:round;stroke-linejoin:round" />
    </g>
    <g
       id="g524">
      <path
         style="fill:#996600;stroke:none;stroke-width:1;fill-opacity:1"
         d="m 213.6,236.7 c -0.2,1.6 -0.1,3.4 0.1,5.4 0,1.8 0.2,3.8 0,5 -0.3,3.4 -1.6,6.3 -2.8,9.3 l 1,0.4 c 1.1,-3 2.4,-6.1 2.8,-9.5 0.2,-1.5 0.1,-3.4 0,-5.3 -0.1,-1.9 -0.3,-3.6 -0.1,-5.1 0.3,-1.7 1.3,-5.8 1.3,-5.8 0,0 -2,3.6 -2.3,5.6 z"
         id="path408" />
      <path
         style="fill:#996600;stroke:none;stroke-width:1;fill-opacity:1"
         d="m 249.7,268.3 -0.3,0.1 -0.1,0.2 c -2.4,5.5 -3.5,11.3 -9.2,15.7 l -0.3,0.2 0.2,0.3 c 0.6,1.8 1.1,3.3 -0.5,6.5 -1.4,0.4 -2,0.4 -3.2,-0.3 l -0.9,-0.5 0.2,1.1 c 0.4,1.8 1,2.7 0.2,5.7 -1.4,0 -1.5,-0.1 -2.5,-0.5 l -1.3,-0.3 0.7,1.1 c 0.3,0.4 0.7,1.1 0.9,1.6 l 0.9,-0.2 c 0,-0.2 -0.2,-0.7 -0.3,-0.9 0.4,0.1 1,0.4 2.2,0.4 l 0.4,-0.1 v -0.3 c 0.9,-3.2 0.4,-4.5 0,-5.9 1,0.4 1.9,0.5 3.2,0 l 0.2,-0.1 0.1,-0.1 c 1.8,-3.4 1.3,-5.4 0.6,-7.2 5.6,-4.4 7,-10.3 9.3,-15.6 7.2,-2.1 12.3,-4.5 13.6,-8.3 -1.9,2.8 -6.9,5.3 -14.1,7.4 z"
         id="path406" />
      <path
         id="path81"
         d="m 214.7,356.6 c 1,0.7 1.3,1.9 1.6,3.2 0.3,1.1 0.5,2.2 1,3 0.8,1 1.5,1.3 2.1,1.3 0.6,0 1,-0.2 1,-0.2 l 0.5,0.9 c 0,0 -0.6,0.3 -1.5,0.3 -0.9,0 -2,-0.4 -2.9,-1.7 -0.8,-1 -0.9,-2.3 -1.2,-3.4 -0.2,-1.1 -0.5,-2.1 -1.2,-2.6 -1.3,-1 -2.8,-1.7 -2.8,-1.7 0,0 1.7,-0.4 3.4,0.9 z m -6,9.9 c 0.3,2.7 -0.7,6.1 -0.4,8.5 0.1,1.6 0.7,2.5 1.1,3.2 0.4,0.5 0.9,0.7 0.9,0.7 l -0.6,0.9 c 0,0 -0.5,-0.4 -1.1,-1 -0.5,-0.8 -1.1,-1.9 -1.3,-3.7 -0.3,-2.7 0.6,-6.1 0.3,-8.5 -0.3,-1.9 -1.3,-5 -1.3,-5 0,0 2,2.6 2.4,4.9 z m -8.8,1.5 c -0.3,1.2 -0.9,2.3 -1.2,3.8 l -1,-0.1 c 0.3,-1.7 0.9,-2.8 1.2,-4 0.3,-1.2 0.4,-2.1 0.2,-3.9 1.1,1.5 1.1,2.9 0.8,4.2 z"
         style="fill:#996600;stroke:none;stroke-width:1;fill-opacity:1" />
      <path
         id="path89"
         d="m 223.7,359.9 c 2.5,1.9 3.5,2.1 5.9,1.7 -2.3,2.6 -4.2,2.8 -8.4,2.2 -0.2,-2.8 0,-3.1 2.5,-3.9 z m -30.7,8.9 c 2.9,-0.2 3.1,-0.1 4,2.4 -1.6,2.7 -1.8,3.7 -1.2,6.2 -2.6,-2.4 -3,-4.1 -2.8,-8.6 z m 23.5,8.3 c 0.6,0 1.1,0.1 2.1,0.4 1.2,2.9 2.1,3.7 4.3,4.6 -3.3,0.9 -5.1,0.2 -8.4,-2.6 0.8,-1.6 1.2,-2.3 2,-2.4 z m -12.4,3.6 c 0.7,-0.3 1.3,0.1 2.6,1.3 -0.2,3.3 0.2,4.2 1.7,6 -3.3,-0.7 -4.5,-2 -6.3,-6.1 0.9,-0.6 1.5,-1 2,-1.2 z"
         style="fill:#e6e6e6;stroke:#996600;stroke-width:1;stroke-opacity:1;stroke-linecap:round;stroke-linejoin:round" />
      <path
         d="m 258.4,239.3 c -2.1,4.2 -4.4,9.5 -7.3,8.3 -2.7,-1.4 -0.7,-5.5 1.3,-9.7 2.1,-4.3 2.2,-10 4.7,-8.6 2.7,1.2 3.3,5.7 1.3,10 z m -6,18.1 c 1.3,-1.9 3.8,-3.9 5.2,-2.9 1,0.9 0.6,3.9 -0.8,5.7 -1.5,1.9 -2.8,3.4 -4,2.6 -1.2,-1 -1.9,-3.6 -0.4,-5.4 z m -30.4,-15.6 c 3.4,-3 8.9,-5.8 10,-4 1.2,1.8 -1.7,7.1 -5.2,10 -3.5,3 -6.9,5.2 -8.2,3.4 -1.1,-1.8 -0.1,-6.5 3.4,-9.4 z m 18.4,13.5 c -3.8,2.7 -7.1,7.5 -8.8,5.2 -1.7,-2.4 -1.6,-7.7 2.2,-10.4 3.6,-2.7 3.4,-7.7 5.2,-5.3 1.7,2.3 5,7.9 1.4,10.5 z m -19.6,17 c -2,2.2 -4.9,4.3 -6.5,3.1 -1.5,-1.2 -0.5,-4.9 1.1,-6.9 1.8,-2.4 3.7,-4.2 5.2,-2.9 1.3,1 1.8,4.4 0.2,6.7 z m 12.3,-3.7 c 3.6,-3.1 8.7,-6.4 9.6,-5 0.7,1.4 -2.7,6.7 -6.2,10 -3.6,3 -7.1,5.6 -7.8,4.3 -0.7,-1.7 0.8,-6.1 4.4,-9.3 z m -23.4,22.5 c 2,-1.2 5,-1.9 5.9,-0.5 0.6,1.2 -1,3.8 -3.1,4.9 -2.1,1.1 -3.9,1.9 -4.6,0.7 -0.8,-1.4 -0.3,-4 1.8,-5.1 z"
         style="fill:#000000;stroke:none;stroke-width:1.5;stroke-linecap:round;stroke-linejoin:round"
         id="path275" />
    </g>
    <g
       id="g570">
      <path
         style="opacity:1;vector-effect:none;fill:#000000;fill-opacity:1;stroke:#996600;stroke-width:1;stroke-linecap:round;stroke-linejoin:round;stroke-miterlimit:4;stroke-dasharray:none;stroke-dashoffset:0;stroke-opacity:1"
         d="m 239.5,96.77 c 4.4,-8.06 6.7,-10.36 3.8,-23.17 5.6,6.14 7.3,16.84 5.3,25.07 z"
         id="path48-3" />
      <path
         d="m 233.8,111.8 c -1.6,-7.2 3.4,-14.73 11.4,-22.5 1.8,5.17 10.3,5.97 6.9,24.1"
         id="path50-6"
         style="opacity:1;vector-effect:none;fill:#ffdd00;fill-opacity:1;stroke:#996600;stroke-width:1;stroke-linecap:round;stroke-linejoin:round;stroke-miterlimit:4;stroke-dasharray:none;stroke-dashoffset:0;stroke-opacity:1" />
      <path
         style="opacity:1;vector-effect:none;fill:none;fill-opacity:1;stroke:#996600;stroke-width:1;stroke-linecap:round;stroke-linejoin:round;stroke-miterlimit:4;stroke-dasharray:none;stroke-dashoffset:0;stroke-opacity:1"
         d="m 245.2,89.3 c 4.3,11.4 1.9,16.2 1.2,20.3"
         id="path52-7" />
      <path
         id="path95"
         d="m 219.9,154.4 c 7.3,4.6 6.2,16.8 4.8,21.5 0,0 6.1,-1.5 8.3,-3.7 1.9,-1.8 3.1,-4.5 3.5,-7.2 0.4,-2.8 -0.1,-6 -1.7,-8.4 -1.5,-2.3 -4,-4.2 -6.7,-4.6 -2.8,-0.5 -8.2,2.4 -8.2,2.4 z"
         style="fill:#552200;stroke:#996600;stroke-width:1;stroke-opacity:1;stroke-linecap:round;stroke-linejoin:round" />
      <path
         id="path97"
         d="m 238.9,168.6 c 0,0 -3.9,-2.5 -9.6,-1.6 -3.8,0.6 -9.8,2.6 -15.2,2.9 -5.2,0.3 -13.6,-0.2 -14.8,-6 -0.3,-1.3 0.3,-2.5 1.6,-2.9 3.6,-1.1 7.4,2.2 12.7,2.8 5.7,0.7 9.9,-0.8 14.9,-1.4 4.6,-0.5 11.2,1.5 11.2,1.5 z"
         style="fill:#cc0000;stroke:#996600;stroke-width:1;stroke-opacity:1;stroke-linecap:round;stroke-linejoin:round" />
      <path
         id="path99"
         style="fill:#ffffff;stroke:#996600;stroke-width:1;stroke-opacity:1;stroke-linecap:round;stroke-linejoin:round"
         d="m 226.8,173.1 c -1.4,-3.1 -3.3,-4.4 -3.7,-9 -3.6,2.7 -4.3,6.1 -2.9,10.9 z m -8.2,-17.9 c -0.3,3.5 -1.6,5.5 -0.4,9.9 -4.4,-1.3 -6,-4.1 -6.4,-9.2 z m -8.4,0 c -0.5,3.6 -2,5.3 -1.2,9.8 -4.2,-1.5 -5.7,-4.5 -5.7,-9.5 z" />
      <path
         style="fill:#ffdd00;stroke:#996600;stroke-width:1;stroke-opacity:1;stroke-linecap:round;stroke-linejoin:round"
         d="m 267.1,119.5 c -5.5,-8.6 -24.5,-14 -39.1,-10.1 -7.6,1.9 -13.1,9.5 -15.7,11.6 -5.2,4.4 -13.8,9.5 -15.4,13.8 -2,2.3 0.1,6.4 1.6,7.3 -3,3.9 0,14.7 4.7,13.1 6.1,5.9 17.6,2.8 20.6,2.5 6.3,-0.7 8.6,3.9 5.9,8.2 -1.9,3 -5.3,5.7 -10.2,4.5 -2.7,-0.7 -7.7,-1.1 -9.6,0.9 -0.7,0.7 -0.6,2.6 -0.8,3.3 -0.9,2.8 -2.5,3.3 -3,5.7 -1.6,6.1 1.4,7.9 -2.8,9.9 6,1.5 11.9,-2.6 13,-6.4 0.5,0.9 1,2.1 0.7,4.5 4.3,0.2 4.1,-4.1 6,-6.4 -0.1,1.3 0.3,2.7 1.7,4.3 1.7,-2.1 2.8,-5.2 5.4,-6.5 3.3,-1.5 6.7,-3.4 9,-6.8"
         id="path308" />
      <path
         id="path357"
         d="m 228.6,146.8 c -0.2,-3.7 -2.4,-6.9 -5.8,-7.9 2.6,1.8 4.6,4.6 4.9,7.9 0.1,2.6 -0.8,5.7 -2.9,7.5 3,-1.2 4,-4.7 3.8,-7.5 z"
         style="fill:#996600;stroke:none;stroke-width:1;fill-opacity:1" />
      <path
         style="opacity:1;vector-effect:none;fill:#000000;fill-opacity:1;stroke:#996600;stroke-width:1;stroke-linecap:round;stroke-linejoin:round;stroke-miterlimit:4;stroke-dasharray:none;stroke-dashoffset:0;stroke-opacity:1"
         d="m 262.8,92.61 c 2.8,-7.11 7.9,-9.37 8,-24.19 3.7,12.24 3.6,18.52 1.3,26.75 z"
         id="path172" />
      <path
         d="m 239.1,172.9 c -0.1,0.6 -1.3,3.3 -2.5,5 1,0.7 3,5.4 3.6,5.7 -1.5,1.6 -3.6,3.5 -5.1,4.8 1.1,0.1 1.8,0.8 3.4,0.3 -1.2,2.8 -3.3,4 -4.6,5.8 2.4,0.3 9.5,-3.1 10.3,-6 1.8,1.9 2.2,2.6 3,3.7 2.3,-2.9 3.6,-5.5 4.9,-8.8 1.9,0.4 3.4,1.7 4.1,4.1 2.2,-3.3 2.4,-6.1 3,-10.3 1.8,1.2 3.4,1.9 4.7,3.3 1.1,-3.2 1.9,-6.8 1,-10.7 2.9,1.1 4.3,2.6 5.4,4.2 0.4,-4.6 -1.9,-9.9 -3.3,-13.7 1.5,-0.8 3.5,0.8 5.1,1 0.3,-2.8 -1.6,-6.3 -4.5,-11.2 1.7,-1.6 3.5,-2.2 5.6,-1.5 -0.2,-2.2 -3.3,-7.2 -5,-10.8 1.7,-1.4 3.2,-1.8 5.5,-0.8 -0.9,-4.4 -5.7,-7.7 -7.8,-11.8 1.5,-1.9 2.8,-0.9 4.3,-1.3 5.6,-16.2 1.8,-28.53 -0.3,-36.56 -4.4,2.88 -16.1,11.13 -17.8,26.06"
         id="path153"
         style="opacity:1;vector-effect:none;fill:#ffdd00;fill-opacity:1;stroke:#996600;stroke-width:1;stroke-linecap:round;stroke-linejoin:round;stroke-miterlimit:4;stroke-dasharray:none;stroke-dashoffset:0;stroke-opacity:1" />
      <path
         style="opacity:1;vector-effect:none;fill:none;fill-opacity:1;stroke:#996600;stroke-width:1;stroke-linecap:round;stroke-linejoin:round;stroke-miterlimit:4;stroke-dasharray:none;stroke-dashoffset:0;stroke-opacity:1"
         d="m 269.9,87.34 c -0.2,13.36 -2.6,24.46 -8.3,30.26"
         id="path174" />
      <path
         id="path109-2"
         d="m 204.7,156.6 4.2,0.9 c -7.1,-3.4 -7.5,-13.4 -5.9,-15.1 l -0.8,0.3 c -1.6,1.3 -0.8,10.8 2.5,13.9 z"
         style="fill:#40310f;stroke:none;stroke-width:1" />
      <path
         id="path351"
         d="m 196.8,134.8 c -1.2,2.4 -0.3,5 1.3,6.9 0.8,0.5 1.2,0.8 2,0.6 0,0 0.5,1.7 0.7,2.3 0.6,1.3 1.4,2 1.4,2 0,0 0.4,-1.9 0.8,-2.8 0.4,-0.9 0.9,-1.5 1.9,-2 1.2,-0.7 3,0 4,-1 0.6,-0.4 1.4,-2.9 1.4,-2.9 0,0 -2,0.1 -4.1,-0.4 -1.7,-0.1 -5.1,1.9 -5.1,1.9 -2.1,-1.1 -3.7,-2.1 -4.3,-4.6 z"
         style="fill:#40310f;stroke:none;stroke-width:1" />
      <path
         id="path113-6"
         style="fill:#40310f;stroke:none;stroke-width:1"
         d="m 214.9,150.1 c -0.7,0.1 -1.2,0.6 -1.2,1.2 0,0.7 0.6,1.1 1.2,1.2 0.6,-0.1 1.2,-0.6 1.2,-1.3 0,-0.6 -0.7,-1.1 -1.2,-1.1 z m 4.4,-0.4 c -0.6,0 -1.1,0.5 -1,1.1 0,0.7 0.5,1.2 1.1,1.1 0.8,0.1 1.2,-0.5 1.2,-1.2 0,-0.6 -0.6,-1.1 -1.3,-1 z m 3.1,-1.6 c -0.5,0.1 -1.1,0.7 -1,1.4 -0.1,0.6 0.6,1 1.2,1.1 0.7,-0.1 1.2,-0.6 1.1,-1.2 0,-0.7 -0.5,-1.3 -1.3,-1.3 z m -7.8,-1.9 c -0.6,0.1 -1.1,0.5 -1.2,1.2 0.1,0.7 0.6,1.2 1.3,1.2 0.6,-0.1 1.1,-0.6 1.1,-1.3 -0.1,-0.6 -0.6,-1 -1.2,-1.1 z m 4.3,-0.6 c -0.6,0 -1.1,0.5 -1.1,1.2 0.1,0.6 0.5,1.1 1.3,1.1 0.7,-0.1 1.2,-0.5 1.1,-1.1 0,-0.8 -0.5,-1.2 -1.3,-1.2 z m 3.7,-2.2 c -0.7,0.1 -1.2,0.5 -1.1,1.2 0,0.8 0.5,1.2 1.2,1.3 0.6,-0.1 1.1,-0.7 1.1,-1.4 0.1,-0.6 -0.6,-1.1 -1.2,-1.1 z" />
      <path
         id="path111"
         d="m 241.1,163.4 c 0,4 -1,6.8 -2.4,9.2 l 0.7,0.5 c 1.7,-2.3 2.7,-5.5 2.7,-9.6 0,-7.4 -4.6,-11.2 -9,-12.3 3.8,2 8,5.2 8,12.2 z"
         style="fill:#996600;stroke:none;stroke-width:1;fill-opacity:1" />
      <path
         id="path82-3"
         d="m 238.5,152.5 c 0.3,1.9 0.7,4.7 1.9,6.2 -1.1,1.4 -2.3,3.3 -2.3,7.6 1.1,-0.5 2.3,-1.4 2.7,-0.9 0,1.7 -1.9,3.5 -0.9,7.1 0.3,-0.8 2.2,-2.3 2.7,-2 -0.2,1.9 -2.3,5 -1.7,7.3 1.1,-1 1.9,-1.1 3.1,-0.4 0.6,2.2 0.5,5 0.9,8.4 1.5,-2.4 5.8,-6.5 4.9,-9.4 1.6,0.8 2.3,2.8 3.5,2.9 0.3,-2 0.3,-5.5 -1.2,-8.5 1.9,1.1 3.2,1.5 5.2,3.1 0.4,-1.5 -0.2,-6.4 -1.4,-9.6 1.6,-0.1 2.9,3.4 4.1,3 0.6,-1.8 -2.8,-8.3 -5.4,-9.2 1.1,-0.5 2.9,0.3 4.3,0.1 0.7,-2.5 -2,-7.8 -4.4,-9"
         style="opacity:1;vector-effect:none;fill:#ffdd00;fill-opacity:1;stroke:#996600;stroke-width:1;stroke-linecap:round;stroke-linejoin:round;stroke-miterlimit:4;stroke-dasharray:none;stroke-dashoffset:0;stroke-opacity:1" />
      <path
         id="path117"
         d="m 224.3,123.9 c 3.7,0.5 6.5,1.5 9.6,4.2 -1.9,1.4 -5.8,1.9 -7.8,1.5 -5.7,-1 -12,-3.5 -8.8,-4.8 2.4,-0.9 4.3,-1.3 7,-0.9 z"
         style="fill:#ffffff;stroke:#996600;stroke-width:1;stroke-opacity:1;stroke-linecap:round;stroke-linejoin:round" />
      <path
         id="path272"
         d="m 236.9,116.2 c -5.3,0.4 -17.2,2.2 -20.7,7.1 2.8,-3.4 12.4,-5.2 17.5,-2.3"
         style="opacity:1;vector-effect:none;fill:none;fill-opacity:1;stroke:#996600;stroke-width:1;stroke-linecap:round;stroke-linejoin:round;stroke-miterlimit:4;stroke-dasharray:none;stroke-dashoffset:0;stroke-opacity:1" />
      <path
         id="path187-6"
         d="m 233.9,128.1 c 3.5,2.7 5.4,5 12,9.1"
         style="opacity:1;vector-effect:none;fill:none;fill-opacity:1;stroke:#996600;stroke-width:1;stroke-linecap:round;stroke-linejoin:round;stroke-miterlimit:4;stroke-dasharray:none;stroke-dashoffset:0;stroke-opacity:1" />
      <path
         id="path119"
         d="m 221.6,123.3 c -1.5,0.1 -2.6,1.4 -2.6,3 0.1,1.6 1.4,3 2.9,2.9 1.6,0 2.8,-1.5 2.7,-3.1 0,-1.6 -1.3,-2.8 -3,-2.8 z"
         style="fill:#772b07;stroke:none;stroke-width:0.784" />
      <path
         id="path121"
         d="m 222.2,124.4 c -0.5,-0.1 -0.9,0.6 -1.2,1.6 -0.2,1.1 -0.1,2 0.4,2 0.6,0.2 1.1,-0.5 1.3,-1.6 0.3,-1 0.1,-1.9 -0.5,-2 z"
         style="fill:#000000;stroke:none;stroke-width:0.5599" />
      <path
         id="path123"
         d="m 222,124.9 a 0.9259,0.9019 87.74 0 1 -0.8,0.9 0.9259,0.9019 87.74 0 1 -0.9,-0.8 0.9259,0.9019 87.74 0 1 0.8,-1 0.9259,0.9019 87.74 0 1 0.9,0.9 z"
         style="fill:#ffffff;stroke:none;stroke-width:0.784" />
    </g>
    <path
       id="path303"
       style="fill:#000000;stroke:none;stroke-width:1.5;stroke-linecap:round;stroke-linejoin:round"
       d="m 393.4,437.9 c 0.5,-2.2 1.9,-5 3.2,-4.8 1.7,0.2 2.8,3.2 2.3,5.6 -0.5,2.3 -1.1,4.4 -2.5,3.9 -1.8,-0.1 -3.5,-2.2 -3,-4.7 z m -43.7,-30.4 c 1.8,-2.6 5,-5.4 6.7,-4.4 1.7,1 1.5,5.1 -0.1,7.9 -1.6,2.6 -3.5,4.8 -5.2,3.9 -1.7,-1.2 -3,-4.5 -1.4,-7.4 z m -74.8,-111.6 c -2,4 -5.5,8.2 -6.9,7 -1.4,-1.3 -0.7,-7.4 1.1,-11.2 2.1,-3.9 4,-7.1 5.5,-5.7 1.4,1.3 2.3,6.1 0.3,9.9 z m 23.8,-37.6 c -1.9,-3 -3.3,-7.8 -1.3,-9 1.8,-1 5.4,1.6 7.2,4.6 1.7,3.2 3.1,6.2 1.4,7.2 -1.8,1.2 -5.7,0.4 -7.3,-2.8 z m -10.1,5.9 c 4.7,2.7 10.2,7.4 8.9,9.5 -1.4,2.3 -5.6,-2.5 -10.3,-4.9 -4.7,-2.8 -11.3,-1.9 -10,-4 1.2,-2.2 6.6,-3.4 11.4,-0.6 z m 18.3,47.4 c 0.9,3.7 0.6,8.7 -1.3,9 -2,0.4 -4.7,-3.6 -5.4,-7.2 -0.5,-3.4 -0.8,-7 1.1,-7.3 1.8,-0.2 5,1.9 5.6,5.5 z m 3.9,-22.4 c 2.5,4 5.3,9.7 4,10.5 -1.1,0.6 -5.6,-3.2 -8.3,-7.3 -2.8,-3.9 -4.9,-7.5 -3.6,-8.5 1.2,-0.8 5.1,1.3 7.9,5.3 z m -41.1,-19.9 c 3.5,1.9 7.1,5.3 5.9,7.2 -1.4,1.9 -6.6,1.8 -10,0.1 -3.3,-1.9 -6.1,-3.9 -5,-5.6 1.3,-2 5.9,-3.5 9.1,-1.7 z m 20.1,46.8 c 0.5,3.3 0.1,7.6 -2.1,7.9 -2,0.6 -5.1,-2.7 -5.6,-6 -0.6,-3.3 -0.8,-6.3 1.4,-6.6 2.2,-0.5 5.7,1.4 6.3,4.7 z m 4.4,-22 c -1.6,3.6 -1.9,8.3 -4.3,7.4 -2.3,-1 -4.5,-4.8 -2.8,-8.4 1.5,-3.7 -0.7,-7.1 1.6,-6.2 2.3,1.1 7,3.6 5.5,7.2 z m 55.2,26.5 c 2.1,3.4 3.4,8.5 1.2,9.7 -2.2,1.4 -3.1,-1.4 -5,-4.8 -2.1,-3.4 -7.1,-6.5 -4.9,-7.8 2.2,-1.3 6.9,-0.5 8.7,2.9 z m -15.2,23.5 c 1.8,-2.5 5,-5.4 6.7,-4.4 1.7,1 1.5,5.1 -0.1,7.9 -1.6,2.6 -3.5,4.8 -5.2,3.9 -1.7,-1.2 -3,-4.4 -1.4,-7.4 z m -7.6,-25.1 c 1.3,4.6 2.3,10.8 0.8,10.8 -1.4,-0.2 -4.5,-5.6 -6,-10 -1.3,-4.9 -2.3,-9 -0.8,-8.8 1.4,0 4.6,3.5 6,8 z m -17.1,16.9 c 0,-3.9 1.1,-8.7 3.3,-8.7 2.2,0.1 4.4,4.6 4.5,8.3 0,4.1 -0.2,7.4 -2.5,7.3 -2,-0.1 -5.2,-3 -5.3,-6.9 z m 23.3,-30.7 c 2.2,3.1 4.6,7.5 3.3,8 -1.1,0.4 -5.2,-2.6 -7.4,-5.9 -2.2,-3 -4,-5.9 -2.8,-6.5 1.3,-0.5 4.6,1.1 6.9,4.4 z m -56.9,-63.4 c -4.5,0.2 -10.8,1.5 -10.9,3.4 -0.3,1.7 5,3.4 9.5,3.4 4.7,-0.3 8.9,-0.7 9.1,-2.6 0.2,-1.8 -3.2,-4.2 -7.7,-4.2 z m 9,-9.4 c -1.4,-4.1 -2.4,-10.1 -0.5,-10.6 2,-0.8 5.9,3.2 7.5,7.2 1.3,4.1 2.5,8.1 0.6,8.7 -2.1,0.8 -6.1,-1.3 -7.6,-5.3 z m -18.8,-15.8 c 1.7,4.3 2.8,10.4 1.5,10.8 -1.5,0.5 -4.7,-4.1 -6.1,-8.3 -1.4,-4.3 -2.6,-8 -1,-8.7 1.1,-0.5 4.4,2.2 5.6,6.2 z m -24.8,13.5 c -1.4,-3.8 -1.8,-9.3 0.6,-10.1 2.4,-0.9 2.9,2 4.3,6 1.4,3.5 6.1,7.8 3.5,8.7 -2.5,0.7 -7,-0.8 -8.4,-4.6 z m 37.9,-15.7 c -0.5,-3.1 -0.1,-7.2 2,-7.8 2,-0.4 4.5,2.9 5.2,6.1 0.5,2.8 0.6,5.8 -1.4,6.1 -2,0.4 -5.2,-1.5 -5.8,-4.4 z m 3.4,-41.9 c -0.3,3.7 -2.2,8.4 -4.3,8.1 -2.4,-0.3 -0.1,-4.1 0.3,-7.8 0.3,-3.7 -2.8,-7.8 -0.6,-7.6 2,0.4 5.1,3.5 4.6,7.3 z m -6.9,23.8 c -2,3.6 -5.6,7.6 -7.9,5.8 -2.1,-1.6 -0.3,-3.9 1.5,-7.5 1.9,-3.6 1.9,-10.3 4.1,-8.7 2.2,1.6 4,6.8 2.3,10.4 z m -26.6,5.6 c 1.3,-3.2 4,-7 6.2,-6.2 2.1,0.7 2.8,5.4 1.5,8.6 -1.1,3.2 -2.7,6.2 -4.8,5.2 -2.1,-0.7 -4.1,-4.3 -2.9,-7.6 z m 124.1,138.7 c 2.6,3.9 5.8,9.3 4.4,9.9 -1.3,0.6 -5.7,-3.2 -8.5,-7.1 -2.6,-3.8 -5,-7.4 -3.9,-8 1.4,-0.7 5.1,1.3 8,5.2 z m -12.5,13.8 c 0.7,4.5 0.8,10.3 -0.9,10.7 -1.6,0.3 -4,-4.4 -4.8,-8.6 -0.6,-4.3 -1,-8.1 0.5,-8.5 1.5,-0.5 4.5,2.2 5.2,6.4 z m 27.4,25.8 c 0.7,5 0.8,11.9 -0.4,12 -1.1,0.2 -1.1,-5.6 -1.9,-10.7 -0.6,-5.1 -3.5,-9.8 -2.2,-9.8 1.3,-0.2 3.6,3.5 4.5,8.5 z m -50.3,-3.6 c 0.2,-3.6 1.5,-8 3.6,-8.1 2.2,0.1 4.3,3.9 4.2,7.3 -0.1,3.6 -0.5,6.6 -2.6,6.5 -2.2,0.2 -5.3,-2.3 -5.2,-5.7 z m 36.6,-0.2 c 0.6,3.2 0.3,8 -1.5,8.3 -1.9,0.4 -4.4,-3.2 -5.1,-6.6 -0.4,-3.4 -0.7,-6.5 1.1,-7 1.8,-0.1 4.9,1.8 5.5,5.3 z m -12.9,11.3 c 0.4,2.5 0.2,6 -1.6,6.3 -1.5,0.5 -3.9,-2.3 -4.2,-4.9 -0.6,-2.5 -0.8,-4.9 0.9,-5.3 1.6,-0.2 4.4,1.2 4.9,3.9 z m 22.8,20.5 c 2.5,3 5.2,7.4 3.6,7.8 -1.5,0.6 -6.1,-2.3 -8.4,-5.3 -2.7,-3.1 -4.7,-5.8 -3.4,-6.3 1.6,-0.6 5.8,0.8 8.2,3.8 z m -14.5,20.3 c -0.5,-2.7 0,-6.6 1.9,-6.9 1.8,-0.3 4.4,2.6 4.7,5.4 0.5,2.8 0.6,5.4 -1.3,5.6 -1.9,0.3 -4.9,-1.5 -5.3,-4.1 z" />
  </g>
  <use
     height="100%"
     width="100%"
     y="0"
     x="0"
     style="fill:url(#rg);stroke:#000000;stroke-width:3"
     xlink:href="#shield"
     id="shine" />
</svg>
