<?xml version="1.0" encoding="UTF-8"?>
<svg xmlns="http://www.w3.org/2000/svg" xmlns:xlink="http://www.w3.org/1999/xlink" width="600" height="660">
<defs>
  <radialGradient id="rg" gradientUnits="userSpaceOnUse" cx="220" cy="220" r="405">
    <stop style="stop-color:#ffffff;stop-opacity:.3" offset="0"/>
    <stop style="stop-color:#ffffff;stop-opacity:.2" offset=".2"/>
    <stop style="stop-color:#666666;stop-opacity:.1" offset=".6"/>
    <stop style="stop-color:#000000;stop-opacity:.13" offset="1"/>
  </radialGradient>
  <filter id="sand-filter" style="color-interpolation-filters:sRGB;">
    <feTurbulence id="feTurbulence101" result="result0" seed="0" baseFrequency="3" numOctaves="3" type="fractalNoise" />
    <feColorMatrix id="feColorMatrix103" type="saturate" values="0" result="result4" />
    <feComposite id="feComposite105" result="result2" k3="0.5" k2="0.5" k1="1.25" operator="arithmetic" in2="result4" in="SourceGraphic" />
    <feBlend id="feBlend107" in2="SourceGraphic" in="result2" mode="normal" result="result5" />
    <feComposite id="feComposite109" result="result3" operator="in" in2="SourceGraphic" in="result5" />
  </filter>
  <pattern id="sand" patternUnits="userSpaceOnUse" width="600" height="660">
    <rect width="600" height="660" style="fill:#ffdd77"/>
    <rect width="75" height="82.5" style="opacity:0.6;fill:#eecc66;filter:url(#sand-filter);" transform="scale(8)"/>
  </pattern>
  <g id="shell" style="fill:#ffffff;stroke:none;stroke-width:1;">
    <g style="fill:#eeeeee;">
        <path d="m 244.53,60.954 c 3.38,2.136 7.1,3.72 11.23,4.616 2,0.62 3.24,1.516 3.72,2.894 3.38,6.132 7.85,10.335 13.5,12.126 2.48,-3.238 4.48,-7.097 6,-11.23 1.86,-5.995 3.72,-11.231 5.51,-15.571 -13.5,0.137 -26.32,-1.241 -38.58,-4.479 -5.1,-0.758 -7.24,0.896 -6.62,5.099 0.62,2.618 2.14,4.754 4.89,6.476 z" />
        <path d="m 344.5,65.57 c 4.13,-0.896 7.85,-2.48 11.37,-4.616 h 0.14 c 2.75,-1.722 4.34,-3.858 4.75,-6.476 0.76,-4.134 -1.38,-5.857 -6.48,-5.099 -12.12,3.238 -25.07,4.616 -38.58,4.478 1.86,4.341 3.72,9.508 5.51,15.571 1.52,4.134 3.52,7.993 6,11.231 5.72,-1.86 10.13,-5.994 13.5,-12.126 0.55,-1.378 1.79,-2.343 3.79,-2.963 z" />
    </g>
    <g style="fill:#dddddd;">
        <path d="m 230.96,121.72 c -1.11,0.14 -2,0.14 -2.76,0.14 1.86,1.86 1.86,3.72 0,5.24 7.1,-1.52 13.37,-3.72 19.22,-6.75 6.14,-3.38 11.37,-7.51 15.71,-12.61 1.72,-1.73 3.24,-3.24 4.76,-5.1 6.75,-7.995 12.74,-17.985 17.84,-30.18 -5.72,10.955 -12.13,20.187 -19.22,27.7 -6.48,6.75 -13.37,11.99 -20.74,15.84 -4.62,2.55 -9.58,4.35 -14.81,5.72 z" />
        <path d="m 256.38,137.29 c 7.23,-7.71 13.71,-15.98 19.57,-25.07 0.27,-0.28 0.48,-0.62 0.75,-1.11 4,-6.13 6.76,-13.847 8.34,-22.941 -2.75,7.096 -6.13,13.711 -9.85,19.841 -3.38,5.38 -7.1,10.34 -11.09,15.09 -3.24,3.52 -6,6.75 -8.75,9.51 -7.72,7.51 -14.13,12.13 -19.36,13.71 -1.11,0.28 -2,0.62 -2.9,0.62 3.1,1.52 4.76,3.72 5.1,6.48 0,0.13 0,0.27 0,0.48 6.34,-5.1 12.47,-10.61 18.19,-16.61 z" />
        <path d="m 294.07,67.017 -0.49,-10.335 c -0.13,9.233 -1.1,18.12 -2.75,26.939 -1.86,11.506 -4.48,22.949 -7.72,33.829 -0.89,2.76 -1.72,5.51 -2.62,8.34 -2.61,8.61 -5.99,16.47 -9.99,23.7 -4.34,7.37 -9.23,14.12 -15.08,20.32 2.75,-0.13 4.61,1.11 5.51,3.24 5.51,-6.13 10.33,-13.09 14.33,-20.94 4.61,-8.96 8.13,-19.09 10.95,-30.32 0.14,-0.89 0.49,-1.86 0.62,-2.75 4.14,-16.95 6.62,-34.385 7.24,-52.023 z" />
        <path d="m 295.86,112.7 c -0.28,3.1 -0.48,5.99 -0.62,8.89 -0.76,11.5 -1.72,23.08 -2.76,34.44 -0.76,8 -1.72,15.85 -2.62,23.84 -0.13,0.49 -0.27,1.11 -0.48,1.52 2.9,-2.14 6.62,-3.38 10.61,-3.72 4.14,0.34 7.86,1.51 10.96,3.72 -0.28,-0.48 -0.49,-1.1 -0.62,-1.52 -1.11,-7.99 -1.86,-15.84 -2.62,-23.84 -1.1,-11.36 -2,-22.94 -2.76,-34.44 -0.13,-2.9 -0.27,-5.86 -0.62,-8.89 -0.89,-20.466 -2.27,-40.929 -4.34,-61.392 -1.79,20.463 -3.17,40.926 -4.13,61.392 z" />
        <path d="m 306.68,56.682 -0.49,10.335 c 0.62,17.707 3.1,35.073 7.24,52.023 0.27,0.89 0.48,1.86 0.62,2.75 2.75,11.23 6.34,21.36 10.95,30.32 4,7.85 8.75,14.74 14.33,20.94 0.9,-2.13 2.76,-3.37 5.51,-3.24 -5.85,-6.13 -10.74,-12.95 -14.95,-20.32 -4.34,-7.23 -7.51,-15.09 -10.12,-23.7 -0.9,-2.76 -1.73,-5.51 -2.62,-8.34 -3.24,-10.95 -5.72,-22.323 -7.72,-33.829 -1.72,-8.819 -2.62,-17.706 -2.75,-26.939 z" />
        <path d="m 372.06,121.93 c -0.76,0 -1.72,0 -2.76,-0.14 -5.09,-1.38 -10.12,-3.24 -14.74,-5.72 -7.51,-3.85 -14.47,-9.09 -20.74,-15.84 -7.1,-7.376 -13.36,-16.746 -18.95,-27.701 4.76,12.126 10.75,22.185 17.57,30.181 1.52,1.86 3.1,3.37 4.62,5.1 4.48,5.09 9.71,9.23 15.85,12.6 5.71,3.1 12.12,5.24 19.22,6.76 -1.93,-1.59 -1.93,-3.38 -0.1,-5.24 z" />
        <path d="m 336.16,123.17 c -3.99,-4.75 -7.71,-9.71 -10.95,-15.09 -3.86,-6.13 -7.24,-12.746 -9.99,-19.842 1.51,9.094 4.34,16.742 8.34,22.942 0.27,0.48 0.48,0.76 0.75,1.1 5.86,9.1 12.34,17.37 19.57,25.08 5.72,6 11.85,11.51 18.33,16.61 0,-0.14 0,-0.28 0,-0.48 0.27,-2.76 1.86,-4.9 5.1,-6.48 -0.9,0 -1.86,-0.28 -2.9,-0.62 -5.23,-1.52 -11.71,-6.13 -19.22,-13.71 -2.96,-2.76 -5.93,-6 -9.03,-9.51 z" />
    </g>
    <path d="m 315.7,53.926 c -4.75,-10.748 -9.99,-16.329 -15.71,-16.604 -5.51,0.275 -10.75,5.856 -15.57,16.604 -1.86,4.341 -3.72,9.508 -5.51,15.571 -1.52,4.134 -3.51,7.993 -5.99,11.231 -2.9,4.134 -6.62,7.51 -10.96,10.334 -1.1,5.719 0.28,8.75 4.48,9.228 7.1,-7.505 13.5,-16.737 19.22,-27.692 -5.1,12.126 -11.09,22.185 -17.84,30.182 3.72,0.48 6.13,2.34 7.23,5.37 3.72,-6.13 7.1,-12.747 9.85,-19.844 0.49,-1.102 0.9,-2.273 1.38,-3.513 0,-0.276 0.14,-0.62 0.14,-0.758 0.62,-1.723 1.1,-3.376 1.72,-5.099 1.38,-5.994 2,-11.988 1.72,-18.12 0.28,6.132 -0.27,12.126 -1.72,18.12 -0.62,1.723 -1.1,3.376 -1.72,5.099 0,0.138 -0.14,0.482 -0.14,0.758 -0.48,1.24 -0.89,2.48 -1.38,3.513 -1.51,9.095 -4.27,16.744 -8.33,22.944 -0.28,0.48 -0.49,0.76 -0.76,1.1 0.14,4.9 2.48,6.76 7.23,5.24 3.24,-10.96 5.86,-22.325 7.72,-33.831 1.72,-8.75 2.62,-17.707 2.76,-26.939 l 0.48,10.335 c -0.62,17.707 -3.1,35.065 -7.24,52.015 2,3.52 4.76,4.48 8.48,2.62 0.14,-2.89 0.27,-5.85 0.62,-8.89 0.89,-20.46 2.34,-40.922 4.13,-61.385 2,20.463 3.38,40.925 4.34,61.385 0.28,3.1 0.49,6 0.62,8.89 3.72,1.86 6.48,0.9 8.48,-2.62 -4.14,-16.95 -6.62,-34.308 -7.24,-52.015 l 0.49,-10.335 c 0.13,9.232 1.1,18.12 2.75,26.939 2,11.506 4.48,22.941 7.72,33.831 4.75,1.52 7.09,-0.28 7.23,-5.24 -0.27,-0.27 -0.48,-0.62 -0.76,-1.1 -3.99,-6.13 -6.75,-13.849 -8.33,-22.944 -0.48,-1.102 -0.9,-2.273 -1.24,-3.513 -0.14,-0.276 -0.28,-0.62 -0.28,-0.758 -0.62,-1.723 -1.1,-3.376 -1.72,-5.099 -1.38,-5.994 -2,-11.988 -1.72,-18.12 -0.28,6.132 0.27,12.126 1.72,18.12 0.62,1.723 1.1,3.376 1.72,5.099 0,0.138 0.14,0.482 0.28,0.758 0.27,1.24 0.76,2.48 1.24,3.513 2.75,7.097 6.13,13.714 9.99,19.844 0.89,-3.1 3.37,-4.89 7.09,-5.37 -6.75,-7.997 -12.74,-17.987 -17.56,-30.182 5.51,10.955 11.85,20.325 18.94,27.692 4,-0.478 5.51,-3.509 4.48,-9.228 -4.34,-2.756 -7.99,-6.132 -10.95,-10.334 -2.48,-3.238 -4.48,-7.097 -6,-11.231 -1.86,-6.063 -3.72,-11.299 -5.58,-15.571 z" />
    <g style="fill:#eeeeee;">
        <path d="m 266.51,100.23 c -4.14,-0.486 -5.51,-3.518 -4.48,-9.236 -5.37,3.376 -11.71,5.718 -18.95,7.096 -1.1,4.13 -0.76,7.37 1.38,9.99 -1.52,3.52 -1.1,6.34 1.24,7.99 7.44,-3.85 14.33,-9.09 20.81,-15.84 z" />
        <path d="m 264.03,123.17 c 3.99,-4.75 7.71,-9.71 11.09,-15.09 -1.1,-3.1 -3.51,-4.89 -7.23,-5.37 -1.52,1.86 -3.1,3.37 -4.76,5.1 -4.27,5.09 -9.51,9.23 -15.71,12.6 -0.75,3.1 0.28,5.24 3.1,6.48 0.14,3.72 1.73,5.51 4.76,5.86 2.75,-2.83 5.51,-6.07 8.75,-9.58 z" />
        <path d="m 280.49,125.79 c 0.9,-2.76 1.73,-5.51 2.62,-8.34 -4.75,1.52 -7.09,-0.27 -7.23,-5.23 -5.86,9.09 -12.33,17.36 -19.57,25.07 -2.13,4.62 -0.62,7.1 4.48,7.72 2.89,3.86 6.13,5.37 9.71,4.48 4,-7.3 7.38,-15.09 9.99,-23.7 z" />
        <path d="m 295.24,121.59 c -3.72,1.86 -6.48,0.89 -8.48,-2.62 -0.13,0.89 -0.48,1.86 -0.62,2.75 -2.75,11.23 -6.33,21.36 -10.95,30.32 2,2.62 4.89,2.62 8.75,0 0.89,-0.62 1.51,-0.62 2.13,0 0.76,2.48 2.76,3.72 6.34,3.99 1.17,-11.36 2.07,-22.87 2.83,-34.44 z" />
        <path d="m 314.05,121.72 c -0.14,-0.89 -0.28,-1.86 -0.62,-2.75 -2,3.51 -4.76,4.48 -8.48,2.62 0.76,11.5 1.73,23.08 2.76,34.44 3.37,-0.27 5.51,-1.51 6.34,-3.99 0.62,-0.62 1.24,-0.62 2.13,0 3.86,2.62 6.76,2.62 8.75,0 -4.61,-8.89 -8.13,-19.09 -10.88,-30.32 z" />
        <path d="m 324.38,112.22 c -0.14,4.89 -2.48,6.75 -7.23,5.23 0.89,2.76 1.72,5.51 2.62,8.34 2.61,8.61 5.85,16.47 10.12,23.7 3.38,0.89 6.62,-0.62 9.51,-4.48 5.1,-0.62 6.62,-3.1 4.48,-7.72 -7.23,-7.71 -13.71,-15.98 -19.5,-25.07 z" />
        <path d="m 349.74,126.82 c 2.75,-1.24 3.85,-3.37 3.1,-6.47 -6.13,-3.38 -11.37,-7.51 -15.85,-12.61 -1.52,-1.73 -3.1,-3.24 -4.62,-5.1 -3.72,0.48 -6.13,2.27 -7.09,5.37 3.24,5.38 6.96,10.34 10.95,15.09 3.1,3.52 6,6.75 8.96,9.51 2.82,-0.21 4.41,-2.07 4.55,-5.79 z" />
        <path d="m 354.49,116.07 c 2.34,-1.72 2.76,-4.47 1.24,-7.99 2,-2.62 2.62,-5.86 1.38,-9.99 -7.24,-1.378 -13.51,-3.72 -18.95,-7.096 1.1,5.718 -0.48,8.75 -4.48,9.236 6.34,6.75 13.3,11.99 20.81,15.84 z" />
    </g>
    <g>
        <path d="m 243.15,98.09 c -2.48,0.482 -5.23,0.896 -7.85,1.102 -7.37,0.62 -10.96,2.898 -10.96,7.238 0.14,1.86 0.9,2.89 2.62,3.51 1.86,0.48 1.86,1.1 -0.14,1.86 -2.13,0.48 -3.37,1.52 -3.72,3.38 h 0.14 c -0.48,4.13 1.24,6.47 4.89,6.75 0.76,0 1.72,0 2.76,-0.14 5.23,-1.38 10.13,-3.24 14.74,-5.72 -2.27,-1.72 -2.75,-4.47 -1.24,-7.99 -2.07,-2.62 -2.34,-5.86 -1.24,-9.99 z" />
        <path d="m 224.69,132.68 c -0.49,3.24 1.1,5.1 4.13,5.72 -1.38,6.13 0,9.09 4.13,8.61 0.9,0 1.86,-0.28 2.9,-0.62 5.23,-1.52 11.71,-6.13 19.36,-13.71 -3.1,-0.28 -4.62,-2.14 -4.76,-5.86 -2.75,-1.24 -3.85,-3.37 -3.1,-6.47 -5.85,3.1 -12.12,5.23 -19.22,6.75 -2.27,1.24 -3.44,3.3 -3.44,5.58 z" />
        <path d="m 270.5,149.42 c -3.51,0.9 -6.75,-0.62 -9.71,-4.48 -5.1,-0.62 -6.61,-3.1 -4.48,-7.71 -5.72,5.99 -11.85,11.5 -18.33,16.6 0,-0.14 0,-0.28 0,-0.48 -3.1,2.27 -3.37,5.23 -0.89,9.09 1.72,1.38 3.37,1.52 5.1,0.48 1.72,-0.75 2.34,-0.48 1.86,1.11 -1.24,2.89 -0.49,5.1 2.13,6.61 3.38,1.72 6.48,1.38 9.24,-0.89 5.85,-6.14 10.74,-12.89 15.08,-20.33 z" />
        <path d="m 286.21,152.04 c -0.62,-0.62 -1.24,-0.62 -2.13,0 -3.86,2.62 -6.76,2.62 -8.75,0 -4,7.85 -8.75,14.74 -14.33,20.94 -1.11,5.1 -0.14,8.13 2.75,8.96 3.52,0.62 6.48,0.14 8.34,-1.38 1.51,-0.89 2.62,-0.62 3.37,1.1 1.38,2.48 3.86,3.86 7.51,4 3.24,-0.48 5.24,-1.86 6.48,-4.13 0.14,-0.49 0.28,-1.11 0.48,-1.52 0.9,-7.99 1.86,-15.85 2.62,-23.84 -3.58,-0.41 -5.58,-1.65 -6.34,-4.13 z" />
        <path d="m 324.93,152.04 c -1.99,2.62 -4.89,2.62 -8.75,0 -0.89,-0.62 -1.51,-0.62 -2.13,0 -0.76,2.48 -2.9,3.72 -6.34,3.99 0.76,8 1.51,15.85 2.62,23.84 0.13,0.49 0.27,1.11 0.62,1.52 1.1,2.27 3.1,3.72 6.34,4.13 3.72,-0.13 6.13,-1.51 7.51,-3.99 0.75,-1.73 1.86,-2 3.37,-1.11 1.86,1.52 4.76,2 8.34,1.38 2.89,-0.76 3.86,-3.86 2.75,-8.95 -5.51,-6 -10.26,-12.96 -14.33,-20.81 z" />
        <path d="m 339.4,145.01 c -2.89,3.86 -6.13,5.37 -9.51,4.48 4.14,7.37 9.1,14.12 14.95,20.32 2.76,2.35 5.86,2.62 9.1,0.9 2.76,-1.52 3.51,-3.72 2.34,-6.61 -0.48,-1.52 0.14,-1.86 1.86,-1.11 1.72,1.11 3.38,0.9 5.1,-0.48 2.27,-3.86 2.14,-6.75 -0.89,-9.09 0,0.13 0,0.27 0,0.48 -6.48,-5.1 -12.61,-10.61 -18.33,-16.61 2,4.62 0.48,7.1 -4.62,7.72 z" />
        <path d="m 352.84,120.35 c 0.75,3.1 -0.28,5.23 -3.1,6.47 -0.14,3.72 -1.73,5.51 -4.62,5.86 7.51,7.51 13.99,12.12 19.22,13.71 1.11,0.27 2,0.62 2.9,0.62 4.13,0.48 5.51,-2.48 4.13,-8.61 3.1,-0.62 4.62,-2.48 4.13,-5.72 0,-2.28 -1.24,-4.27 -3.51,-5.51 -7.03,-1.59 -13.5,-3.72 -19.15,-6.82 z" />
        <path d="m 364.96,99.123 c -2.61,-0.137 -5.23,-0.62 -7.85,-1.102 1.24,4.129 0.62,7.369 -1.38,9.989 1.52,3.52 1.1,6.34 -1.24,7.99 4.62,2.49 9.72,4.28 14.74,5.72 1.11,0.14 2,0.14 2.76,0.14 3.72,-0.27 5.4,-2.62 4.92,-6.75 -0.14,-1.86 -1.41,-2.89 -3.54,-3.38 -2,-0.75 -2,-1.37 -0.28,-1.86 1.86,-0.62 2.76,-1.72 2.76,-3.51 0.1,-4.27 -3.51,-6.616 -10.89,-7.237 z" />
    </g>
  </g>
  <path id="shield" d="m2,2v257c0,286 298,398 298,398c0,0 298-112 298-398V2z"/>
</defs>
<use id="field" xlink:href="#shield" style="fill:url(#sand)"/>
<use xlink:href="#shell" transform="translate(-190,0)" />
<use xlink:href="#shell" transform="translate(190,0)" />
<use xlink:href="#shell" transform="translate(0,0)" />
<use xlink:href="#shell" transform="translate(-95,202)" />
<use xlink:href="#shell" transform="translate(95,202)" />
<use xlink:href="#shell" transform="translate(0,404)" />
<use id="shine" xlink:href="#shield" style="fill:url(#rg);stroke:#000000;stroke-width:3;"/>
</svg>
