<svg xmlns="http://www.w3.org/2000/svg" width="600" height="660" xmlns:xlink="http://www.w3.org/1999/xlink">
<defs>
  <radialGradient id="rg" gradientUnits="userSpaceOnUse" cx="220" cy="220" r="405">
    <stop style="stop-color:#fff;stop-opacity:.3" offset="0" />
    <stop style="stop-color:#fff;stop-opacity:.2" offset="0.2" />
    <stop style="stop-color:#666;stop-opacity:.1" offset="0.6" />
    <stop style="stop-color:#000;stop-opacity:.13" offset="1" />
  </radialGradient>
  <path id="shield" d="m 2 2 v 257 c 0 286 298 398 298 398 c 0 0 298 -112 298 -398 V 2 Z" />
</defs>
<use fill="#ffffff" xlink:href="#shield" />
<g id="greathelm" style="fill:#cccccc;stroke:#333333;stroke-width:1;stroke-linecap:round;stroke-linejoin:round;">
  <path d="m 451.16,434.59 3.74,-193.28 -27.38,-104.19 -17.93,-21.55 -68.1,-22.604 -60.07,-2.61 -59.69,9.884 -26.12,18.5 -49.67,124.97 1.75,195.36 5.44,13.29 31.77,19.16 50.05,0.99 133.55,-22.43 68.9,-6.74 z"/>
  <path style="fill:none;" d="m 454.9,241.31 c -60.95,5.68 -202.98,4.61 -308.96,2.4"/>
  <path style="fill:none;" d="m 341.49,92.966 29.54,152.034 -2.53,205.08"/>
  <path style="fill:#888888;" d="m 147.85,451.32 c 5.43,6.22 11.8,11.63 18.82,15.97 9.61,5.94 20.46,9.88 31.64,11.5 v 0 0 c 18.06,0.14 36.12,-0.74 54.08,-2.64 30.2,-3.2 60.02,-9.26 89.95,-14.4 36,-6.18 72.24,-11.03 108.6,-14.53 l 0.22,-12.63 c -36.43,3.94 -72.72,9.06 -108.82,15.34 -29.92,5.21 -59.74,11.22 -89.95,14.4 -17.96,1.89 -36.02,2.78 -54.08,2.65 v 0 0 c -11.19,-1.57 -22.05,-5.52 -31.64,-11.5 -7.13,-4.44 -13.55,-10 -18.98,-16.41 z"/>
  <g>
    <path style="fill:#888888;" d="m 240.69,102.84 c 22.34,-4.501 45.32,-4.881 68.1,-4.039 25.55,0.944 51.4,3.489 75.32,12.519 15.83,5.98 30.59,14.76 43.41,25.8 l -2.47,-18.23 c -13.03,-10.63 -27.83,-19.09 -43.61,-24.915 -25.05,-9.25 -52.08,-11.764 -78.77,-12.52 -22.05,-0.623 -44.36,-0.08 -65.76,5.302 -12.8,3.219 -25.17,8.154 -36.68,14.633 l -4.62,17.35 6.13,-3.5 c 12.48,-5.54 25.57,-9.7 38.95,-12.4 z"/>
    <g>
      <use xlink:href="#stud" transform="translate(13.457,-55.503)"/>
      <use xlink:href="#stud" transform="translate(222.35,-40.175)"/>
      <use xlink:href="#stud" transform="translate(64.647,-69.603)"/>
      <use xlink:href="#stud" transform="translate(124.95,-70.503)"/>
      <use xlink:href="#stud" transform="translate(176.64,-62.173)"/>
    </g>
  </g>
  <g>
    <use xlink:href="#stud" transform="translate(161.55,274.12)"/>
    <use xlink:href="#stud" transform="translate(161.99,241.36)"/>
    <use xlink:href="#stud" transform="translate(162.42,208.6)"/>
    <use xlink:href="#stud" transform="translate(162.86,175.84)"/>
    <use xlink:href="#stud" transform="translate(163.3,143.08)"/>
    <use xlink:href="#stud" transform="translate(154.05,32.33)"/>
    <use xlink:href="#stud" transform="translate(143.54,-22.154)"/>
    <use xlink:href="#stud" transform="translate(138.28,-49.396)"/>
    <use xlink:href="#stud" transform="translate(148.79,5.088)"/>
  </g>
  <path id="airhole" style="fill:#000000;stroke:none;" d="m 322.18,343.82 a 4,4 0 0 1 -4,4 4,4 0 0 1 -4,-4 4,4 0 0 1 4,-4 4,4 0 0 1 4,4 z m 0,26.28 a 4,4 0 0 1 -4,4 4,4 0 0 1 -4,-4 4,4 0 0 1 4,-4 4,4 0 0 1 4,4 z m 0,26.28 a 4,4 0 0 1 -4,4 4,4 0 0 1 -4,-4 4,4 0 0 1 4,-4 4,4 0 0 1 4,4 z m 0,26.28 a 4,4 0 0 1 -4,4 4,4 0 0 1 -4,-4 4,4 0 0 1 4,-4 4,4 0 0 1 4,4 z m -26.87,-75.83 a 4,4 0 0 1 -4,4 4,4 0 0 1 -4,-4 4,4 0 0 1 4,-4 4,4 0 0 1 4,4 z m 0,26.27 a 4,4 0 0 1 -4,4 4,4 0 0 1 -4,-4 4,4 0 0 1 4,-4 4,4 0 0 1 4,4 z m 0,26.29 a 4,4 0 0 1 -4,4 4,4 0 0 1 -4,-4 4,4 0 0 1 4,-4 4,4 0 0 1 4,4 z m 0,26.28 a 4,4 0 0 1 -4,4 4,4 0 0 1 -4,-4 4,4 0 0 1 4,-4 4,4 0 0 1 4,4 z m -26.87,-75.84 a 4,4 0 0 1 -4,4 4,4 0 0 1 -4,-4 4,4 0 0 1 4,-4 4,4 0 0 1 4,4 z m 0,26.28 a 4,4 0 0 1 -4,4 4,4 0 0 1 -4,-4 4,4 0 0 1 4,-4 4,4 0 0 1 4,4 z m 0,26.28 a 4,4 0 0 1 -4,4 4,4 0 0 1 -4,-4 4,4 0 0 1 4,-4 4,4 0 0 1 4,4 z m 0,26.28 a 4,4 0 0 1 -4,4 4,4 0 0 1 -4,-4 4,4 0 0 1 4,-4 4,4 0 0 1 4,4 z"/>
  <g id="cross">
    <path style="fill:#888888" d="m 225.02,118.28 c -4.92,3.34 -9.45,6.83 -13.01,10.71 -3.14,3.43 -5.59,7.16 -6.76,11.38 -1.5,5.39 -2.35,10.85 -0.55,16.26 -0.72,-0.93 -1.5,-1.8 -2.35,-2.52 -1.46,-1.25 -3.58,-2.4 -5.45,-2.74 -2.98,-0.55 -4.97,0 -7.16,1 -2.19,0.94 -4,2.36 -5.3,4.33 -2.27,3.45 -3.1,6.85 -3.71,10.31 -0.66,3.74 -0.1,6.85 0.68,9.5 1.33,4.61 3.86,7.99 5.59,12.19 -0.58,-5.07 -0.51,-7.82 0.55,-11.55 0.65,-2.26 1.43,-5.54 4.62,-6.38 1.92,-0.51 4.18,0.71 5.12,3.31 0.87,2.42 1.63,6.62 0.51,10.96 l -12.96,50.08 -35.58,0.23 -3.32,8.36 -0.56,24.78 38.44,0.1 c -0.26,31.47 2.5,58.62 2.83,88.27 0.1,8.1 -0.13,18.99 -3.55,23.7 -3.62,4.99 -8.86,5.92 -10.72,4.31 -2.86,-2.48 -3.35,-5.82 -3.34,-8.4 0,-4.25 3.18,-10.06 4.91,-14.59 -4.63,4.85 -8.38,8.55 -11.65,13.1 -1.86,2.59 -4.03,5.96 -4.58,10.14 -0.5,3.83 -0.36,7.37 1.18,11.66 0.88,2.44 2.6,4.4 4.93,6.01 2.33,1.6 4.07,2.84 7.86,3.05 2.42,0.13 5.16,-0.15 7.35,-1.15 1.79,-0.82 4.71,-2.93 6.08,-4.8 1.26,-1.71 3.8,-5.45 3.8,-5.45 -0.65,3.38 -1.88,3.4 -3.58,8.88 -1.12,3.62 -1.46,7.78 0.8,14.14 1.33,3.73 1.83,4.03 4.41,7.37 2.19,2.83 5.07,5.44 9.11,7.69 4.49,-3.15 7.88,-6.31 10.55,-9.45 3.07,-3.61 4.26,-6.04 5.2,-9.97 0.92,-3.89 1.08,-8.35 -0.88,-11.86 -1.51,-2.7 -2.54,-4.45 -3.36,-7.53 1.18,1.01 3.36,4.53 4.68,5.89 3.51,3.6 6.89,5.83 11.42,5.62 4.21,-0.19 6.89,-0.72 9.48,-2.32 2.6,-1.61 5.12,-4.87 6.09,-7.31 1.71,-4.27 1.47,-8.1 0.91,-11.91 -0.61,-4.19 -2.66,-7.24 -4.73,-9.83 -3.63,-4.54 -8.4,-7.49 -12.44,-11.47 1.9,4.77 3.72,7.63 3.93,12.46 0.11,2.57 0.73,6.94 -2.38,8.71 -3.58,2.04 -6.91,-1.11 -9.27,-6.5 -3.6,-8.25 -3,-11.75 -2.86,-20.32 0.48,-29.42 -0.15,-60.1 0.18,-88.21 l 89.73,-0.39 c 6.57,0 11.49,1.11 14.53,3.04 3.62,2.3 4.85,7.92 3.1,9.68 -3.48,3.48 -7.84,3.72 -11.56,3.67 -6.13,-0.1 -11.96,-2.73 -17.98,-3.87 5.75,3.99 10.03,8.74 16.59,12.33 3.75,2.05 8.2,4.1 14.21,4.7 5.55,0.55 11.01,0.75 17.2,-0.95 3.52,-0.96 6.43,-2.62 8.75,-5.19 2.32,-2.56 4.52,-5.4 4.82,-9.65 0.19,-2.7 -0.18,-5.83 -1.51,-8.29 -1.08,-1.99 -3.45,-3.79 -5.3,-5.61 2.08,-1.69 7.27,-1.62 9.46,-0.95 6.11,1.88 7.63,3.57 17.32,2.12 6.08,-0.91 10.81,-2.76 15.86,-5.74 4.28,-2.52 8.24,-5.79 11.64,-10.45 -4.76,-5.18 -9.51,-9.14 -14.27,-12.21 -5.46,-3.53 -9.05,-4.89 -14.79,-6.02 -5.88,-1.15 -10.62,0 -15.81,2.11 -2.89,1.18 -8.37,0.65 -10.67,-0.93 1.61,-1.86 2.97,-3.7 3.96,-5.72 1.33,-2.73 2.93,-5.62 2.74,-8.6 -0.3,-4.68 -2.15,-7.9 -4.46,-10.76 -2.32,-2.85 -5.88,-5.29 -9.39,-6.36 -6.19,-1.88 -11.68,-1.7 -17.21,-1.08 -6,0.67 -10.46,2.94 -14.21,5.22 -6.55,3.99 -10.85,9.25 -16.59,13.69 6.01,-1.27 11.86,-4.23 17.99,-4.26 3.71,0 7.56,0.15 10.95,3.95 1.81,2.02 1.89,5.86 -0.2,8.77 -1.92,2.68 -8.61,4.95 -15.17,4.91 l -87.85,-0.47 9.89,-48.6 c 1.38,-6.76 3.84,-9.18 6.16,-11.33 2.32,-2.15 6.5,-2.71 7.67,-1.19 2.17,2.82 1.82,5.98 1.26,8.53 -0.92,4.2 -3.83,7.76 -5.59,11.72 3.95,-3.36 8.24,-5.55 12,-9.54 2.14,-2.28 4.36,-5.05 5.7,-9.1 1.23,-3.72 2.16,-7.49 1.78,-11.99 -0.3,-2.55 -1.28,-4.82 -2.96,-6.79 -1.67,-1.96 -3.48,-3.8 -6.72,-4.6 -2.08,-0.51 -4.59,-0.1 -6.71,0.47 -1.25,0.33 -2.54,0.81 -3.77,1.42 1.33,-2.48 2.05,-4.95 2.34,-7.43 0.37,-3.22 0.65,-6.54 -0.13,-9.67 -1,-4.02 -3.49,-7.07 -5.66,-9.94 -2.52,-3.33 -5.35,-6.22 -8.3,-8.89 z"/>
    <g>
      <path id="stud" style="fill:#aaaaaa;" d="m 199.48,160.9 a 5.1948,5.1948 0 0 1 -5.19,5.19 5.1948,5.1948 0 0 1 -5.19,-5.19 5.1948,5.1948 0 0 1 5.19,-5.19 5.1948,5.1948 0 0 1 5.19,5.19 z"/>
      <use xlink:href="#stud" transform="translate(27.647,-24.685)"/>
      <use xlink:href="#stud" transform="translate(51.649,3.3639)"/>
    </g>
    <g>
      <use xlink:href="#stud" transform="translate(-23.235,234.01)"/>
      <use xlink:href="#stud" transform="translate(35.08,234.28)"/>
      <use xlink:href="#stud" transform="translate(5.5586,254.69)"/>
    </g>
    <g style="fill:#aaaaaa;">
      <path d="m 197.34,244.43 a 5.1948,5.1948 0 0 1 -5.19,5.19 5.1948,5.1948 0 0 1 -5.19,-5.19 5.1948,5.1948 0 0 1 5.19,-5.19 5.1948,5.1948 0 0 1 5.19,5.19 z"/>
      <path d="m 214.38,244.43 a 5.1948,5.1948 0 0 1 -5.19,5.19 5.1948,5.1948 0 0 1 -5.19,-5.19 5.1948,5.1948 0 0 1 5.19,-5.19 5.1948,5.1948 0 0 1 5.19,5.19 z"/>
      <path d="m 214.38,259.5 a 5.1948,5.1948 0 0 1 -5.19,5.19 5.1948,5.1948 0 0 1 -5.19,-5.19 5.1948,5.1948 0 0 1 5.19,-5.19 5.1948,5.1948 0 0 1 5.19,5.19 z"/>
      <path d="m 197.34,259.5 a 5.1948,5.1948 0 0 1 -5.19,5.19 5.1948,5.1948 0 0 1 -5.19,-5.19 5.1948,5.1948 0 0 1 5.19,-5.19 5.1948,5.1948 0 0 1 5.19,5.19 z"/>
    </g>
    <g style="fill:#aaaaaa;">
      <path d="m 344.42,220.68 a 5.1948,5.1948 0 0 1 -5.19,5.19 5.1948,5.1948 0 0 1 -5.19,-5.19 5.1948,5.1948 0 0 1 5.19,-5.19 5.1948,5.1948 0 0 1 5.19,5.19 z"/>
      <path d="m 316.3,244.43 a 5.1948,5.1948 0 0 1 -5.19,5.19 5.1948,5.1948 0 0 1 -5.19,-5.19 5.1948,5.1948 0 0 1 5.19,-5.19 5.1948,5.1948 0 0 1 5.19,5.19 z"/>
      <path d="m 316.3,259.5 a 5.1948,5.1948 0 0 1 -5.19,5.19 5.1948,5.1948 0 0 1 -5.19,-5.19 5.1948,5.1948 0 0 1 5.19,-5.19 5.1948,5.1948 0 0 1 5.19,5.19 z"/>
      <path d="m 379.17,252.06 a 5.1948,5.1948 0 0 1 -5.19,5.19 5.1948,5.1948 0 0 1 -5.19,-5.19 5.1948,5.1948 0 0 1 5.19,-5.19 5.1948,5.1948 0 0 1 5.19,5.19 z"/>
      <path d="m 342.04,283.69 a 5.1948,5.1948 0 0 1 -5.19,5.19 5.1948,5.1948 0 0 1 -5.19,-5.19 5.1948,5.1948 0 0 1 5.19,-5.19 5.1948,5.1948 0 0 1 5.19,5.19 z"/>
    </g>
    <path id="visor" style="fill:#000000;stroke:none;" d="m 180.67,245.92 v 13.74 h -34.98 v -13.74 z m 117.13,0 v 13.74 h -74.82 v -13.74 z"/>
  </g>
</g>
<use style="fill:url(#rg);stroke:#000000;stroke-width:3" xlink:href="#shield"/>
</svg>
