<?xml version="1.0" encoding="UTF-8" standalone="no"?>
<svg
   xmlns:dc="http://purl.org/dc/elements/1.1/"
   xmlns:cc="http://creativecommons.org/ns#"
   xmlns:rdf="http://www.w3.org/1999/02/22-rdf-syntax-ns#"
   xmlns:svg="http://www.w3.org/2000/svg"
   xmlns="http://www.w3.org/2000/svg"
   xmlns:xlink="http://www.w3.org/1999/xlink"
   xmlns:sodipodi="http://sodipodi.sourceforge.net/DTD/sodipodi-0.dtd"
   xmlns:inkscape="http://www.inkscape.org/namespaces/inkscape"
   width="600"
   height="660"
   id="svg2"
   version="1.1"
   inkscape:version="0.48.2 r9819"
   sodipodi:docname="House_Lolliston.svg">
  <metadata
     id="metadata19">
    <rdf:RDF>
      <cc:Work
         rdf:about="">
        <dc:format>image/svg+xml</dc:format>
        <dc:type
           rdf:resource="http://purl.org/dc/dcmitype/StillImage" />
        <dc:title />
      </cc:Work>
    </rdf:RDF>
  </metadata>
  <defs
     id="defs17">
    <radialGradient
       inkscape:collect="always"
       xlink:href="#rg"
       id="radialGradient4153"
       gradientUnits="userSpaceOnUse"
       cx="220"
       cy="220"
       r="405" />
    <clipPath
       clipPathUnits="userSpaceOnUse"
       id="clipPath5195">
      <path
         style="fill:#ffff00;stroke:none;stroke-width:3"
         id="path5197"
         d="m 2,2 0,257 c 0,286 298,398 298,398 0,0 298,-112 298,-398 L 598,2 Z"
         inkscape:connector-curvature="0" />
    </clipPath>
    <clipPath
       clipPathUnits="userSpaceOnUse"
       id="clipPath5277">
      <path
         style="fill:#1a1a1a;stroke:none;stroke-width:3"
         id="path5279"
         d="m 599.72861,332.73456 0,257 c 0,286 -298,398 -298,398 0,0 -298,-112 -298,-398 l 0,-257 z"
         inkscape:connector-curvature="0" />
    </clipPath>
    <clipPath
       clipPathUnits="userSpaceOnUse"
       id="clipPath5289">
      <path
         style="fill:#dc143c;fill-opacity:1;stroke:none;stroke-width:3"
         id="path5291"
         d="m 2,2 0,257 c 0,286 298,398 298,398 0,0 298,-112 298,-398 L 598,2 Z"
         inkscape:connector-curvature="0" />
    </clipPath>
    <clipPath
       clipPathUnits="userSpaceOnUse"
       id="clipPath5469">
      <path
         style="fill:#964b00;fill-opacity:1;stroke:none;stroke-width:3"
         id="path5471"
         d="m 2,2 0,257 c 0,286 298,398 298,398 0,0 298,-112 298,-398 L 598,2 Z"
         inkscape:connector-curvature="0" />
    </clipPath>
    <radialGradient
       id="rg-1"
       gradientUnits="userSpaceOnUse"
       cx="220"
       cy="220"
       r="405">
      <stop
         style="stop-color:#fff;stop-opacity:.3"
         offset="0"
         id="stop7-7" />
      <stop
         style="stop-color:#eee;stop-opacity:.2"
         offset=".2"
         id="stop9-4" />
      <stop
         style="stop-color:#666;stop-opacity:.1"
         offset=".6"
         id="stop11-0" />
      <stop
         style="stop-color:#000;stop-opacity:.13"
         offset="1"
         id="stop13" />
    </radialGradient>
    <radialGradient
       id="radialGradient3055"
       gradientUnits="userSpaceOnUse"
       cx="220"
       cy="220"
       r="405">
      <stop
         style="stop-color:#fff;stop-opacity:.3"
         offset="0"
         id="stop3057" />
      <stop
         style="stop-color:#eee;stop-opacity:.2"
         offset=".2"
         id="stop3059" />
      <stop
         style="stop-color:#666;stop-opacity:.1"
         offset=".6"
         id="stop3061" />
      <stop
         style="stop-color:#000;stop-opacity:.13"
         offset="1"
         id="stop3063" />
    </radialGradient>
    <radialGradient
       inkscape:collect="always"
       xlink:href="#rg-5"
       id="radialGradient3096"
       gradientUnits="userSpaceOnUse"
       cx="220"
       cy="220"
       r="405" />
    <radialGradient
       id="rg-5"
       gradientUnits="userSpaceOnUse"
       cx="220"
       cy="220"
       r="405">
      <stop
         style="stop-color:#fff;stop-opacity:.3"
         offset="0"
         id="stop7-5" />
      <stop
         style="stop-color:#eee;stop-opacity:.2"
         offset=".2"
         id="stop9-1" />
      <stop
         style="stop-color:#666;stop-opacity:.1"
         offset=".6"
         id="stop11-7" />
      <stop
         style="stop-color:#000;stop-opacity:.13"
         offset="1"
         id="stop13-1" />
    </radialGradient>
    <radialGradient
       r="405"
       cy="220"
       cx="220"
       gradientUnits="userSpaceOnUse"
       id="radialGradient3115"
       xlink:href="#rg-5"
       inkscape:collect="always" />
  </defs>
  <sodipodi:namedview
     pagecolor="#ffffff"
     bordercolor="#666666"
     borderopacity="1"
     objecttolerance="10"
     gridtolerance="10"
     guidetolerance="10"
     inkscape:pageopacity="0"
     inkscape:pageshadow="2"
     inkscape:window-width="1366"
     inkscape:window-height="715"
     id="namedview15"
     showgrid="false"
     inkscape:zoom="0.90509668"
     inkscape:cx="515.26251"
     inkscape:cy="580.24122"
     inkscape:window-x="-8"
     inkscape:window-y="-8"
     inkscape:window-maximized="1"
     inkscape:current-layer="svg2" />
  <radialGradient
     id="rg"
     gradientUnits="userSpaceOnUse"
     cx="220"
     cy="220"
     r="405">
    <stop
       style="stop-color:#fff;stop-opacity:.3"
       offset="0"
       id="stop5" />
    <stop
       style="stop-color:#fff;stop-opacity:.2"
       offset=".2"
       id="stop7" />
    <stop
       style="stop-color:#666;stop-opacity:.1"
       offset=".6"
       id="stop9" />
    <stop
       style="stop-color:#000;stop-opacity:.13"
       offset="1"
       id="stop11" />
  </radialGradient>
  <path
     d="m 2,2 v 257 c 0,286 298,398 298,398 0,0 298,-112 298,-398 V 2 z"
     id="use16"
     inkscape:connector-curvature="0"
     style="fill:#ffffff" />
  <g
     id="g3863">
    <g
       id="g3787"
       transform="matrix(0,-0.3593013,0.3593013,0,251.50341,309.38356)"
       style="stroke-width:6.95794868;stroke-miterlimit:4;stroke-dasharray:none">
      <g
         transform="matrix(2.5282759,0,0,2.6334954,-371.7839,183.96853)"
         style="fill:#fcef3c;stroke:#000000;stroke-width:2.69651413;stroke-miterlimit:4;stroke-opacity:1;stroke-dasharray:none;display:inline"
         id="g3789">
        <path
           inkscape:connector-curvature="0"
           transform="translate(134.12248,218.91144)"
           style="fill:#994400;stroke:#000000;stroke-width:2.69651413000000020;stroke-miterlimit:4;stroke-opacity:1;stroke-dasharray:none"
           d="m 23.809525,-146.49767 c 0,0 38.888888,-29.99234 131.349215,-30 92.46366,-0.008 131.34921,30 131.34921,30 l 0,110.317464 c 0,0 -37.97619,32.7936508 -131.34921,32 -92.579427,-0.7869054 -131.349215,-32 -131.349215,-32 l 0,-110.317464 z"
           id="path3791"
           sodipodi:nodetypes="czcczcc" />
      </g>
      <path
         inkscape:connector-curvature="0"
         d="m 38.122709,504.65021 c 224.066801,-14.28291 418.591361,-13.29738 642.658151,0 M 38.122709,470.95527 c 221.363651,-61.69658 415.943781,-58.92635 642.658151,0 M 38.122709,428.69028 c 224.066801,-92.37209 418.591361,-80.22928 642.658151,0 M 38.122709,385.91799 C 259.27952,282.86073 454.28219,301.27098 680.78086,387.39588 M 38.122709,541.99919 c 224.066801,14.28291 418.591361,13.29738 642.658151,0 M 38.122709,575.69413 c 221.363651,61.69657 415.943781,58.92638 642.658151,0 M 38.122709,617.95912 c 224.066801,92.37209 418.591361,80.22929 642.658151,0 M 38.122709,660.73141 C 259.27952,763.78867 454.28219,745.37842 680.78086,659.25352"
         style="fill:#994400;fill-rule:evenodd;stroke:#000000;stroke-width:6.95794868000000030;stroke-linecap:butt;stroke-linejoin:miter;stroke-miterlimit:4;stroke-opacity:1;stroke-dasharray:none;display:inline"
         id="path3793"
         sodipodi:nodetypes="cccccccccccccccc" />
      <path
         inkscape:connector-curvature="0"
         style="fill:#994400;stroke:#000000;stroke-width:6.95794868000000030;stroke-miterlimit:4;stroke-opacity:1;stroke-dasharray:none;display:inline"
         d="m 269.94558,299.63415 c -10.99434,1.05439 -21.57302,2.32069 -31.76147,3.70336 l 0,436.74875 c 10.17086,1.5076 20.78621,2.93667 31.76147,4.11484 l 0,-444.56695 z m 178.87553,0 0,445.88369 c 11.00701,-1.04958 21.65076,-2.28705 31.84047,-3.70335 l 0,-438.47698 c -10.1886,-1.38194 -20.84588,-2.65009 -31.84047,-3.70336 z m -389.4335,55.38571 c -21.755021,11.15379 -32.077512,19.42202 -32.077512,19.42202 l 0,290.50746 c 0,0 10.30511,8.63058 32.077512,20.32729 l 0,-330.25677 z m 599.99147,0 0,331.40894 c 21.85518,-12.2676 32.0775,-21.47946 32.0775,-21.47946 l 0,-290.50746 c 0,0 -10.32337,-8.26391 -32.0775,-19.42202 z"
         id="path3795" />
    </g>
    <g
       style="stroke-width:6.95794868;stroke-miterlimit:4;stroke-dasharray:none"
       transform="matrix(0,-0.3593013,0.3593013,0,-27.0324,309.38356)"
       id="g3018">
      <g
         id="g7704"
         style="fill:#fcef3c;stroke:#000000;stroke-width:2.69651413;stroke-miterlimit:4;stroke-opacity:1;stroke-dasharray:none;display:inline"
         transform="matrix(2.5282759,0,0,2.6334954,-371.7839,183.96853)">
        <path
           sodipodi:nodetypes="czcczcc"
           id="rect7172"
           d="m 23.809525,-146.49767 c 0,0 38.888888,-29.99234 131.349215,-30 92.46366,-0.008 131.34921,30 131.34921,30 l 0,110.317464 c 0,0 -37.97619,32.7936508 -131.34921,32 -92.579427,-0.7869054 -131.349215,-32 -131.349215,-32 l 0,-110.317464 z"
           style="fill:#994400;stroke:#000000;stroke-width:2.69651413000000020;stroke-miterlimit:4;stroke-opacity:1;stroke-dasharray:none"
           transform="translate(134.12248,218.91144)"
           inkscape:connector-curvature="0" />
      </g>
      <path
         sodipodi:nodetypes="cccccccccccccccc"
         id="path7724"
         style="fill:#994400;fill-rule:evenodd;stroke:#000000;stroke-width:6.95794868000000030;stroke-linecap:butt;stroke-linejoin:miter;stroke-miterlimit:4;stroke-opacity:1;stroke-dasharray:none;display:inline"
         d="m 38.122709,504.65021 c 224.066801,-14.28291 418.591361,-13.29738 642.658151,0 M 38.122709,470.95527 c 221.363651,-61.69658 415.943781,-58.92635 642.658151,0 M 38.122709,428.69028 c 224.066801,-92.37209 418.591361,-80.22928 642.658151,0 M 38.122709,385.91799 C 259.27952,282.86073 454.28219,301.27098 680.78086,387.39588 M 38.122709,541.99919 c 224.066801,14.28291 418.591361,13.29738 642.658151,0 M 38.122709,575.69413 c 221.363651,61.69657 415.943781,58.92638 642.658151,0 M 38.122709,617.95912 c 224.066801,92.37209 418.591361,80.22929 642.658151,0 M 38.122709,660.73141 C 259.27952,763.78867 454.28219,745.37842 680.78086,659.25352"
         inkscape:connector-curvature="0" />
      <path
         id="path7702"
         d="m 269.94558,299.63415 c -10.99434,1.05439 -21.57302,2.32069 -31.76147,3.70336 l 0,436.74875 c 10.17086,1.5076 20.78621,2.93667 31.76147,4.11484 l 0,-444.56695 z m 178.87553,0 0,445.88369 c 11.00701,-1.04958 21.65076,-2.28705 31.84047,-3.70335 l 0,-438.47698 c -10.1886,-1.38194 -20.84588,-2.65009 -31.84047,-3.70336 z m -389.4335,55.38571 c -21.755021,11.15379 -32.077512,19.42202 -32.077512,19.42202 l 0,290.50746 c 0,0 10.30511,8.63058 32.077512,20.32729 l 0,-330.25677 z m 599.99147,0 0,331.40894 c 21.85518,-12.2676 32.0775,-21.47946 32.0775,-21.47946 l 0,-290.50746 c 0,0 -10.32337,-8.26391 -32.0775,-19.42202 z"
         style="fill:#994400;stroke:#000000;stroke-width:6.95794868000000030;stroke-miterlimit:4;stroke-opacity:1;stroke-dasharray:none;display:inline"
         inkscape:connector-curvature="0" />
    </g>
    <g
       style="stroke-width:6.95794868;stroke-miterlimit:4;stroke-dasharray:none"
       transform="matrix(0,-0.3593013,0.3593013,0,112.23549,570.60264)"
       id="g3797">
      <g
         id="g3799"
         style="fill:#fcef3c;stroke:#000000;stroke-width:2.69651413;stroke-miterlimit:4;stroke-opacity:1;stroke-dasharray:none;display:inline"
         transform="matrix(2.5282759,0,0,2.6334954,-371.7839,183.96853)">
        <path
           sodipodi:nodetypes="czcczcc"
           id="path3801"
           d="m 23.809525,-146.49767 c 0,0 38.888888,-29.99234 131.349215,-30 92.46366,-0.008 131.34921,30 131.34921,30 l 0,110.317464 c 0,0 -37.97619,32.7936508 -131.34921,32 -92.579427,-0.7869054 -131.349215,-32 -131.349215,-32 l 0,-110.317464 z"
           style="fill:#994400;stroke:#000000;stroke-width:2.69651413000000020;stroke-miterlimit:4;stroke-opacity:1;stroke-dasharray:none"
           transform="translate(134.12248,218.91144)"
           inkscape:connector-curvature="0" />
      </g>
      <path
         sodipodi:nodetypes="cccccccccccccccc"
         id="path3803"
         style="fill:#994400;fill-rule:evenodd;stroke:#000000;stroke-width:6.95794868000000030;stroke-linecap:butt;stroke-linejoin:miter;stroke-miterlimit:4;stroke-opacity:1;stroke-dasharray:none;display:inline"
         d="m 38.122709,504.65021 c 224.066801,-14.28291 418.591361,-13.29738 642.658151,0 M 38.122709,470.95527 c 221.363651,-61.69658 415.943781,-58.92635 642.658151,0 M 38.122709,428.69028 c 224.066801,-92.37209 418.591361,-80.22928 642.658151,0 M 38.122709,385.91799 C 259.27952,282.86073 454.28219,301.27098 680.78086,387.39588 M 38.122709,541.99919 c 224.066801,14.28291 418.591361,13.29738 642.658151,0 M 38.122709,575.69413 c 221.363651,61.69657 415.943781,58.92638 642.658151,0 M 38.122709,617.95912 c 224.066801,92.37209 418.591361,80.22929 642.658151,0 M 38.122709,660.73141 C 259.27952,763.78867 454.28219,745.37842 680.78086,659.25352"
         inkscape:connector-curvature="0" />
      <path
         id="path3805"
         d="m 269.94558,299.63415 c -10.99434,1.05439 -21.57302,2.32069 -31.76147,3.70336 l 0,436.74875 c 10.17086,1.5076 20.78621,2.93667 31.76147,4.11484 l 0,-444.56695 z m 178.87553,0 0,445.88369 c 11.00701,-1.04958 21.65076,-2.28705 31.84047,-3.70335 l 0,-438.47698 c -10.1886,-1.38194 -20.84588,-2.65009 -31.84047,-3.70336 z m -389.4335,55.38571 c -21.755021,11.15379 -32.077512,19.42202 -32.077512,19.42202 l 0,290.50746 c 0,0 10.30511,8.63058 32.077512,20.32729 l 0,-330.25677 z m 599.99147,0 0,331.40894 c 21.85518,-12.2676 32.0775,-21.47946 32.0775,-21.47946 l 0,-290.50746 c 0,0 -10.32337,-8.26391 -32.0775,-19.42202 z"
         style="fill:#994400;stroke:#000000;stroke-width:6.95794868000000030;stroke-miterlimit:4;stroke-opacity:1;stroke-dasharray:none;display:inline"
         inkscape:connector-curvature="0" />
    </g>
  </g>
  <path
     d="m 2,2 v 257 c 0,286 298,398 298,398 0,0 298,-112 298,-398 V 2 z"
     id="shine"
     inkscape:connector-curvature="0"
     style="fill:url(#radialGradient3115);stroke:#000000;stroke-width:3" />
</svg>
