<?xml version="1.0" encoding="UTF-8" standalone="no"?>
<svg
   xmlns:dc="http://purl.org/dc/elements/1.1/"
   xmlns:cc="http://creativecommons.org/ns#"
   xmlns:rdf="http://www.w3.org/1999/02/22-rdf-syntax-ns#"
   xmlns:svg="http://www.w3.org/2000/svg"
   xmlns="http://www.w3.org/2000/svg"
   xmlns:xlink="http://www.w3.org/1999/xlink"
   xmlns:sodipodi="http://sodipodi.sourceforge.net/DTD/sodipodi-0.dtd"
   xmlns:inkscape="http://www.inkscape.org/namespaces/inkscape"
   width="600"
   height="660"
   id="svg2"
   version="1.1"
   inkscape:version="0.48.2 r9819"
   sodipodi:docname="House_Stark_(Robb).svg">
  <metadata
     id="metadata24">
    <rdf:RDF>
      <cc:Work
         rdf:about="">
        <dc:format>image/svg+xml</dc:format>
        <dc:type
           rdf:resource="http://purl.org/dc/dcmitype/StillImage" />
        <dc:title></dc:title>
      </cc:Work>
    </rdf:RDF>
  </metadata>
  <sodipodi:namedview
     pagecolor="#ffffff"
     bordercolor="#666666"
     borderopacity="1"
     objecttolerance="10"
     gridtolerance="10"
     guidetolerance="10"
     inkscape:pageopacity="0"
     inkscape:pageshadow="2"
     inkscape:window-width="1366"
     inkscape:window-height="715"
     id="namedview22"
     showgrid="false"
     inkscape:zoom="0.5056885"
     inkscape:cx="164.05291"
     inkscape:cy="160.65576"
     inkscape:window-x="-8"
     inkscape:window-y="-8"
     inkscape:window-maximized="1"
     inkscape:current-layer="layer2" />
  <defs
     id="defs4">
    <radialGradient
       id="rg"
       gradientUnits="userSpaceOnUse"
       cx="220"
       cy="220"
       r="405">
      <stop
         style="stop-color:#fff;stop-opacity:.3"
         offset="0"
         id="stop7" />
      <stop
         style="stop-color:#fff;stop-opacity:.2"
         offset=".2"
         id="stop9" />
      <stop
         style="stop-color:#666;stop-opacity:.1"
         offset=".6"
         id="stop11" />
      <stop
         style="stop-color:#000;stop-opacity:.13"
         offset="1"
         id="stop13" />
    </radialGradient>
    <path
       id="shield"
       d="m2,2v257c0,286 298,398 298,398c0,0 298-112 298-398V2z" />
    <radialGradient
       inkscape:collect="always"
       xlink:href="#rg-7"
       id="radialGradient3055-1"
       gradientUnits="userSpaceOnUse"
       cx="220"
       cy="220"
       r="405" />
    <radialGradient
       id="rg-7"
       gradientUnits="userSpaceOnUse"
       cx="220"
       cy="220"
       r="405">
      <stop
         style="stop-color:#fff;stop-opacity:.3"
         offset="0"
         id="stop7-4" />
      <stop
         style="stop-color:#fff;stop-opacity:.2"
         offset=".2"
         id="stop9-0" />
      <stop
         style="stop-color:#666;stop-opacity:.1"
         offset=".6"
         id="stop11-9" />
      <stop
         style="stop-color:#000;stop-opacity:.13"
         offset="1"
         id="stop13-4" />
    </radialGradient>
    <radialGradient
       r="405"
       cy="220"
       cx="220"
       gradientUnits="userSpaceOnUse"
       id="radialGradient3074"
       xlink:href="#rg-7"
       inkscape:collect="always" />
  </defs>
  <g
     inkscape:groupmode="layer"
     id="layer2"
     inkscape:label="Elements"
     style="display:inline">
    <use
       height="1052.3622"
       width="744.09448"
       y="0"
       x="0"
       style="fill:#0000cc;display:inline"
       id="background"
       xlink:href="#shield"
       transform="matrix(-1,0,0,1,600,0)" />
    <g
       transform="matrix(1.5212736,0,0,1.5212736,-162.50405,-565.20743)"
       id="g8004">
      <path
         sodipodi:nodetypes="cccc"
         inkscape:connector-curvature="0"
         id="path7884"
         d="m 220.0833,588.53703 c 2.98811,-0.233 0.2098,-5.50314 9.4592,-13.9511 2.00857,13.83745 2.40934,15.29912 4.39871,15.5748 z"
         style="font-size:20px;font-style:normal;font-variant:normal;font-weight:bold;font-stretch:normal;line-height:125%;letter-spacing:0px;word-spacing:0px;color:#000000;fill:#ffffff;fill-opacity:1;stroke:#000000;stroke-width:3.61934972;stroke-linecap:square;stroke-linejoin:round;stroke-miterlimit:4;stroke-opacity:1;stroke-dasharray:none;stroke-dashoffset:0;marker:none;visibility:visible;display:inline;overflow:visible;enable-background:accumulate;font-family:Georgia;-inkscape-font-specification:Georgia Bold" />
      <path
         inkscape:connector-curvature="0"
         d="m 218.74112,597.35587 -18.1366,-6.2719 c -12.27979,-4.24657 0.60582,-17.22551 0.65668,-17.20479 2.48368,1.15925 1.7148,13.98702 4.3954,13.77817 2.98811,-0.233 0.2098,-5.50314 9.4592,-13.9511 2.00857,13.83745 2.40934,15.29912 4.39871,15.5748 0.85862,0.1192 0.55539,-0.3786 1.43292,-0.54579 2.34836,-0.44198 4.33867,0.76643 5.39136,-0.55133 1.13845,0.18324 -0.57301,4.50847 5.58163,0.41599 0.85434,0.0403 1.05559,1.20741 1.95914,1.17585 1.85827,-0.0678 0.54817,-2.06188 6.56702,-11.76375 3.17189,10.07293 5.12237,8.97236 5.93629,11.60964 0.58322,1.89013 1.32772,-0.0781 2.11756,-0.0819 1.06068,-0.005 3.96745,-14.50188 4.01701,-13.53799 0.0684,1.32686 6.01248,9.37583 7.06923,9.29937 0.77517,-0.0558 -1.09498,-0.18303 -0.32456,-0.25812 1.45191,0.0563 18.87724,-1.44103 18.53132,-1.04106 l -14.38963,16.6362 c -3.01452,3.48518 -29.43277,6.44475 -44.66269,-3.28201 z"
         id="path9107-1-6-8-5"
         style="font-size:20px;font-style:normal;font-variant:normal;font-weight:bold;font-stretch:normal;line-height:125%;letter-spacing:0px;word-spacing:0px;color:#000000;fill:#ffffff;fill-opacity:1;stroke:#000000;stroke-width:3.61934972;stroke-linecap:square;stroke-linejoin:round;stroke-miterlimit:4;stroke-opacity:1;stroke-dasharray:none;stroke-dashoffset:0;marker:none;visibility:visible;display:inline;overflow:visible;enable-background:accumulate;font-family:Georgia;-inkscape-font-specification:Georgia Bold" />
      <path
         style="font-size:20px;font-style:normal;font-variant:normal;font-weight:bold;font-stretch:normal;line-height:125%;letter-spacing:0px;word-spacing:0px;fill:#000000;fill-opacity:1;fill-rule:evenodd;stroke:#1a1a1a;stroke-width:3.61934996;stroke-linecap:butt;stroke-linejoin:miter;stroke-miterlimit:4;stroke-opacity:1;stroke-dasharray:none;display:inline;font-family:Georgia;-inkscape-font-specification:Georgia Bold"
         id="path9117-0-0-5-8-0"
         d="m 281.23858,478.01941 c -3.65449,-21.79341 13.66548,-16.1126 0.56998,-51.65844 -4.1166,-10.8784 -1.249,-5.79911 5.62911,-2.68452 27.56452,24.61357 42.91822,66.69949 27.49766,91.43657"
         inkscape:connector-curvature="0" />
      <path
         style="font-size:20px;font-style:normal;font-variant:normal;font-weight:bold;font-stretch:normal;line-height:125%;letter-spacing:0px;word-spacing:0px;color:#000000;fill:#ffffff;fill-opacity:1;stroke:#000000;stroke-width:3.61934996;stroke-linecap:square;stroke-linejoin:round;stroke-miterlimit:4;stroke-opacity:1;stroke-dasharray:none;stroke-dashoffset:0;marker:none;visibility:visible;display:inline;overflow:visible;enable-background:accumulate;font-family:Georgia;-inkscape-font-specification:Georgia Bold"
         id="path9111-8-0-9-9"
         d="m 224.46597,535.06211 -19.40494,5.74159 c -12.61415,3.7323 -5.13545,28.01691 -4.64988,25.42944 2.7314,-0.43751 4.29943,-13.97943 6.80398,-13.05298 2.79187,1.03273 -0.38854,-1.91335 5.90685,8.686 6.12614,-12.71152 5.10185,-13.95013 7.0914,-13.6751 0.85859,0.1187 1.68441,0.36046 2.47493,0.75651 2.11543,1.0598 3.66314,10.50519 4.27137,12.05286 1.14631,0.13311 -0.31041,0.42182 6.43189,-11.70713 0.83,0.1956 1.67134,0.42977 2.52691,0.70635 1.75953,0.56878 0.53405,1.4613 3.35372,12.38642 6.09743,-8.79005 5.3812,-6.10342 6.96174,-8.40934 1.13274,-1.65262 0.81678,-0.72593 1.57228,-0.50826 1.01458,0.29234 3.51516,12.04169 3.85559,11.13174 0.4686,-1.25251 4.73276,-7.93828 5.72186,-7.57872 0.72561,0.26378 1.44599,0.53612 2.16109,0.81698 1.40781,0.3402 17.64628,6.49595 17.43632,6.01903 l -8.73287,-19.83641 c -1.8295,-4.15562 -26.23862,-14.14983 -43.78224,-8.95898 z"
         inkscape:connector-curvature="0" />
      <path
         style="font-size:20px;font-style:normal;font-variant:normal;font-weight:bold;font-stretch:normal;line-height:125%;letter-spacing:0px;word-spacing:0px;fill:#000000;fill-opacity:1;fill-rule:evenodd;stroke:none;display:inline;font-family:Georgia;-inkscape-font-specification:Georgia Bold"
         id="path9113-6-9-1-5-2"
         d="M 432.71953,603.90519 C 392.32231,495.80853 360.47362,483.9795 315.65632,476.69371 c -81.47976,-10.51478 -56.24522,22.21115 -70.06875,23.68576 -35.40499,3.77681 -65.42676,17.42163 -65.42676,17.42163 0,0 -25.6389,-4.05109 -19.51043,13.14731 1.47813,4.14808 10.90196,12.8485 20.6537,23.49361 8.91589,4.40187 21.71374,0.38353 28.755,-6.53744 20.96895,-12.39836 58.62037,10.71932 59.26031,33.65309 -7.35524,1.64838 -14.43404,5.01045 -18.1685,5.04076 -3.58172,6.10203 -29.00808,4.8624 -49.31245,-0.82407 -26.8626,-7.52317 -12.92618,9.06103 -12.92618,9.06103 4.73717,14.90285 40.98988,7.87819 65.90209,16.25589 23.08501,3.25641 50.54769,1.39178 51.27032,0.25789 0.0137,-0.0217 10.0654,-9.96334 10.0654,-9.96334 2.74055,1.92804 -12.05806,11.83938 -36.41951,10.91906 4.27021,14.25868 39.44256,62.47778 12.18543,130.66228 84.69406,-3.86735 130.36419,-69.09204 140.80354,-139.06198 z"
         inkscape:connector-curvature="0" />
      <path
         style="font-size:20px;font-style:normal;font-variant:normal;font-weight:bold;font-stretch:normal;line-height:125%;letter-spacing:0px;word-spacing:0px;fill:none;stroke:#1a1a1a;stroke-width:3.5999999;stroke-linecap:butt;stroke-linejoin:miter;stroke-miterlimit:4;stroke-opacity:1;stroke-dasharray:none;font-family:Georgia;-inkscape-font-specification:Georgia Bold"
         id="path9113-6-9-1-8"
         d="M 430.86618,601.91116 C 390.46896,493.8145 361.30275,483.74278 316.48545,476.45698 c -81.47977,-10.51479 -56.24524,22.21115 -70.06875,23.68577 -35.40501,3.7768 -65.42678,17.42162 -65.42678,17.42162 0,0 -25.6389,-4.05109 -19.51041,13.14731 1.47813,4.14808 10.90194,12.8485 20.65369,23.49363 8.91589,4.40185 21.71374,0.38353 28.755,-6.53746 20.96895,-12.39835 58.62037,10.71932 59.26032,33.65311 -7.35525,1.64838 -14.43405,5.01044 -18.16853,5.04075 -3.5817,6.10203 -29.00805,4.86239 -49.31243,-0.82408 -26.8626,-7.52318 -12.92618,9.06103 -12.92618,9.06103 4.73717,14.90286 40.98989,7.87819 65.90209,16.2559 23.08503,3.25641 50.54771,1.39178 51.27032,0.25789 0.0137,-0.0216 10.06539,-9.96334 10.06539,-9.96334 2.74055,1.92804 -12.05804,11.83937 -36.4195,10.91905 4.1542,13.87134 35.83969,63.88431 12.46245,129.3687 -0.65278,1.82854 121.86043,0.64931 138.03102,-138.22238"
         inkscape:connector-curvature="0" />
      <path
         style="font-size:20px;font-style:normal;font-variant:normal;font-weight:bold;font-stretch:normal;line-height:125%;letter-spacing:0px;word-spacing:0px;fill:#000000;fill-opacity:1;fill-rule:evenodd;stroke:#1a1a1a;stroke-width:3.61934996;stroke-linecap:butt;stroke-linejoin:miter;stroke-miterlimit:4;stroke-opacity:1;stroke-dasharray:none;font-family:Georgia;-inkscape-font-specification:Georgia Bold"
         id="path9117-0-0-5-8"
         d="m 312.75166,478.36692 c -3.1986,-29.17285 -32.38735,-70.35119 -24.15914,-70.15041 38.47902,10.88104 73.39681,49.85178 66.23519,81.11913"
         inkscape:connector-curvature="0" />
      <g
         style="font-size:20px;font-style:normal;font-variant:normal;font-weight:bold;font-stretch:normal;line-height:125%;letter-spacing:0px;word-spacing:0px;fill:#333333;fill-opacity:1;stroke:#4d4d4d;stroke-width:3.31042099;stroke-miterlimit:4;stroke-opacity:1;stroke-dasharray:none;font-family:Georgia;-inkscape-font-specification:Georgia Bold"
         id="g9121-8-1-8-8"
         transform="matrix(1.1394032,0.06077112,-0.05579604,1.046125,24.029932,430.61751)">
        <path
           style="fill:#333333;fill-opacity:1;fill-rule:evenodd;stroke:#1a1a1a;stroke-width:3.31042099;stroke-linecap:butt;stroke-linejoin:miter;stroke-miterlimit:4;stroke-opacity:1;stroke-dasharray:none"
           id="path9125-0-8-0-2"
           d="m 143.65207,74.855805 c 0.88381,4.101464 -4.98251,21.445257 -15.19954,19.994472 l 1.96028,0.229738 c 0,0 -10.484,-10.825265 -5.36357,-14.130238 -0.23842,-7.670976 18.60283,-6.093972 18.60283,-6.093972 z"
           inkscape:connector-curvature="0" />
      </g>
      <path
         id="rect8684-0"
         d="m 427.8313,599.42582 4.49664,0 0.67192,3.51461 -2.11911,8.11461 z"
         style="font-size:20px;font-style:normal;font-variant:normal;font-weight:bold;font-stretch:normal;line-height:125%;letter-spacing:0px;word-spacing:0px;fill:#1a1a1a;fill-opacity:1;fill-rule:nonzero;stroke:none;font-family:Georgia;-inkscape-font-specification:Georgia Bold"
         inkscape:connector-curvature="0" />
      <path
         inkscape:connector-curvature="0"
         d="m 289.25012,503.41103 c 5.41107,4.29413 15.48808,3.92234 15.16439,13.95123 -3.21118,13.30387 -18.71289,7.55257 -26.5126,2.94482 -6.35423,-3.80317 -10.43007,-8.36579 -9.88193,-14.46975 1.08468,-7.99922 17.79273,-6.16704 21.23014,-2.4263 z"
         id="path4973"
         style="fill:#ffffff;fill-opacity:1;stroke:#1a1a1a;stroke-width:5;stroke-miterlimit:4;stroke-opacity:1;stroke-dasharray:none" />
      <path
         inkscape:connector-curvature="0"
         d="M 337.86866,545.72488 C 304.37508,538.41133 323.42411,516.397 310.32082,510.05137 285.73596,498.14551 267.4145,494.80605 268.53404,492.03254"
         id="path4989"
         style="fill:none;stroke:#1a1a1a;stroke-width:5;stroke-miterlimit:4;stroke-opacity:1;stroke-dasharray:none" />
      <path
         inkscape:connector-curvature="0"
         d="m 281.75567,512.86294 a 5.7903525,5.7903525 0 0 1 -8.18879,-8.1888 5.7903525,5.7903525 0 1 1 8.18879,8.1888 z"
         id="path4991"
         style="fill:#000000;fill-opacity:1;fill-rule:nonzero;stroke:#000000;stroke-width:5;stroke-linejoin:miter;stroke-miterlimit:4;stroke-opacity:1;stroke-dasharray:none" />
    </g>
  </g>
  <g
     inkscape:groupmode="layer"
     id="layer1"
     inkscape:label="Cover"
     style="display:inline"
     sodipodi:insensitive="true">
    <path
       d="m 2,2 v 257 c 0,286 298,398 298,398 0,0 298,-112 298,-398 V 2 z"
       id="shine"
       inkscape:connector-curvature="0"
       style="fill:url(#radialGradient3074);stroke:#000000;stroke-width:3" />
  </g>
</svg>
