<?xml version="1.0" encoding="UTF-8"?>
<svg xmlns="http://www.w3.org/2000/svg" xmlns:xlink="http://www.w3.org/1999/xlink" width="600" height="660">
<defs>
  <radialGradient id="rg" gradientUnits="userSpaceOnUse" cx="220" cy="220" r="405">
    <stop style="stop-color:#ffffff;stop-opacity:.3" offset="0"/>
    <stop style="stop-color:#ffffff;stop-opacity:.2" offset=".2"/>
    <stop style="stop-color:#666666;stop-opacity:.1" offset=".6"/>
    <stop style="stop-color:#000000;stop-opacity:.13" offset="1"/>
  </radialGradient>
  <clipPath id="clip-shield">
    <path id="shield" d="m2,2v257c0,286 298,398 298,398c0,0 298-112 298-398V2z"/>
  </clipPath>
</defs>
<use id="field" xlink:href="#shield" style="fill:#ffffff;"/>
<g id="eagle" transform="translate(300,110)scale(0.35)translate(-300,-300)" style="fill:#cc0000;stroke:#ffffff;stroke-width:1;">
  <path id="right-wing" d="m 213.67,286.7 c -2.72,10.61 -4.07,17.74 -5.66,19.34 -5.02,5.16 4.27,-16.98 4.53,-20.49 0,-2.54 3.17,-29.69 2.95,-37.3 -0.24,-7.61 -2.49,-15.21 -2.49,-15.21 0,0 -2.05,35.02 -5.22,42.16 -3.18,7.13 -1.13,15.18 -6.34,22.32 -5.22,7.15 -14.28,19.57 -20.63,20.51 -6.33,0.91 -10.18,0.91 -10.18,0.91 0,0 6.34,-2.3 7.25,-5.53 0.9,-3.22 1.13,-6.67 1.13,-6.67 l -4.08,2.07 c 0,0 4.08,-3.46 5.43,-7.82 1.37,-4.38 3.41,-12 3.41,-23.05 0,-11.03 2.49,-17.25 2.49,-17.25 l -2.27,1.83 c 0,0 3.17,-19.57 3.4,-28.09 0.24,-8.52 -1.58,-10.13 -1.58,-10.13 0,0 -10.88,71.39 -15.41,87.28 -4.53,15.88 -10.2,23.93 -10.2,23.93 0,0 9.98,-28.09 13.37,-48.11 3.4,-20.04 6.79,-45.84 7.02,-51.36 0.24,-5.54 -1.81,-8.52 -1.81,-8.52 0,0 -6.8,32.23 -7.93,42.61 -1.13,10.35 -1.13,10.35 -1.13,10.35 0,0 0.46,1.62 -3.17,-4.14 -3.62,-5.74 -6.57,-5.74 -6.57,-5.74 0,0 7.02,10.58 5.89,18.18 -1.14,7.59 -4.31,19.11 -6.58,25.57 -2.26,6.42 -11.09,37.52 -17.67,44.42 -6.57,6.91 -16.08,14.98 -16.08,14.98 l -0.91,-8.07 c 0,0 -0.9,-2.52 -2.49,1.85 -1.59,4.37 -7.02,12.88 -11.1,16.13 -4.08,3.21 -14.05,7.36 -20.4,5.27 -6.33,-2.06 -17.21,-14.74 -17.21,-14.74 0,0 6.12,9.7 17.67,-5.51 11.55,-15.19 27.65,-48.59 30.36,-55.48 2.72,-6.93 3.85,-9.7 3.85,-9.7 h -3.4 c 0,0 24.93,-64.24 24.93,-69.52 0,-5.3 -0.45,-6.69 -0.45,-6.69 0,0 -20.63,54.34 -32.41,76.21 -11.78,21.9 -26.27,39.15 -31.04,44.45 -4.76,5.3 -17.89,15.42 -19.49,15.42 -1.58,0 -1.58,0 -1.58,0 0,0 10.88,-7.36 14.05,-11.05 3.17,-3.68 2.49,-6.9 2.72,-7.81 0.23,-0.92 20.39,-19.58 23.56,-26.03 3.17,-6.43 16.31,-31.55 21.98,-44.91 5.66,-13.35 19.71,-52.03 19.71,-52.03 0,0 -2.95,2.99 -6.57,8.05 -3.63,5.07 -8.16,26.71 -11.56,32.25 -3.4,5.52 -12.01,14.74 -12.01,14.74 0,0 0.24,-7.61 -0.9,-11.52 -1.13,-3.93 -2.03,-4.84 -2.03,-4.84 0,0 0.23,23.26 -3.4,28.09 -3.63,4.84 -5.45,7.14 -7.48,10.36 -2.05,3.24 -4.53,8.75 -6.12,10.37 -1.59,1.62 -6.34,7.6 -6.34,7.6 0,0 1.13,-4.15 0.68,-6.68 -0.45,-2.54 -2.04,-5.52 -2.04,-5.52 0,0 3.39,7.14 -4.54,14.27 -7.93,7.14 -16.31,9.67 -21.29,9.91 -4.99,0.23 -13.83,-2.31 -17,-9.44 -3.16,-7.13 -0.45,-9.67 -0.45,-9.67 0,0 3.17,8.05 11.55,1.15 8.39,-6.93 38.98,-56.19 48.72,-77.62 9.74,-21.41 21.07,-47.89 21.3,-50.66 0.23,-2.75 0.23,-2.75 0.23,-2.75 0,0 -3.17,4.14 -18.58,30.86 -15.41,26.71 -33.31,53.65 -50.07,64.24 -16.75,10.59 -17.45,7.84 -17.45,7.84 0,0 10.88,-5.99 12.01,-7.14 1.13,-1.17 -0.23,-5.54 3.18,-6.93 3.39,-1.38 11.1,-1.82 19.02,-13.58 7.94,-11.74 7.94,-11.74 7.94,-11.74 0,0 24.92,-36.15 31.27,-51.35 6.33,-15.2 9.73,-20.73 -0.91,-6.22 -10.65,14.51 -22.66,35.47 -29.68,40.06 -7.03,4.62 -7.03,4.62 -7.03,4.62 0,0 0.68,-2.08 0.68,-4.84 0,-2.76 -1.36,-4.61 -1.36,-4.61 0,0 2.95,11.52 -9.06,14.5 -12,3.01 -26.76,0.7 -30.11,-8.27 -3.4,-8.99 2,-17.74 2,-17.74 0,0 3.87,9.9 14.74,3.45 10.88,-6.44 32.86,-29.71 35.79,-35.69 2.96,-5.99 22.89,-34.31 25.61,-37.08 2.72,-2.76 3.63,-5.29 3.63,-5.29 0,0 -24.24,24.64 -28.77,30.16 -4.54,5.53 -26.28,18.42 -35.58,23.49 -9.29,5.07 -16.54,0.46 -16.54,0.46 0,0 6.8,-0.23 11.33,-1.15 4.53,-0.92 9.29,-4.61 9.29,-4.61 0,0 -4.54,0.24 -2.49,-1.61 2.03,-1.83 9.96,-1.37 15.18,-4.6 5.21,-3.22 23.56,-19.11 28.32,-24.86 4.75,-5.77 15.41,-15.66 15.86,-18.21 0.45,-2.52 0.45,-2.75 0.45,-2.75 0,0 -22.88,20.49 -32.17,26.71 -9.29,6.22 -12.01,7.13 -17.22,7.6 -5.21,0.46 -7.93,-0.24 -7.93,-0.24 0,0 8.39,-4.14 8.61,-6.44 0.24,-2.31 0.24,-2.54 0.24,-2.54 0,0 -8.61,9.21 -14.5,9.44 -5.89,0.24 -15.61,-5.53 -17.43,-12.2 -1.82,-6.68 -0.71,-8.3 -0.71,-8.3 0,0 3.87,3.92 6.11,3.92 2.29,0 2.51,0 2.51,0 0,0 -4.51,-2.53 -4.33,-5.98 0.24,-3.46 0.94,-4.38 0.94,-4.38 0,0 1.58,8.98 7.47,6.91 5.89,-2.07 5.89,-2.99 10.64,-2.99 4.76,0 18.58,-9.91 25.83,-15.21 7.26,-5.29 22.66,-17.95 28.78,-22.33 6.12,-4.37 11.55,-8.06 11.55,-8.06 0,0 -18.81,11.74 -35.34,19.57 -16.54,7.83 -26.28,9.91 -33.76,8.29 -7.48,-1.61 -9.74,-5.53 -9.74,-5.53 0,0 6.35,3.69 12.91,3.46 6.57,-0.24 6.57,-0.24 6.57,-0.24 0,0 -3.85,-1.61 -2.72,-2.99 1.14,-1.38 2.72,4.83 19.48,-2.53 16.78,-7.36 41.69,-22.799 41.69,-22.799 0,0 -20.61,9.669 -28.99,11.059 -8.39,1.38 -15.64,0.68 -15.64,0.68 l 4.76,-2.99 c 0,0 -5.44,5.07 -13.37,0.47 -7.93,-4.608 -13.14,-10.368 -11.32,-16.586 1.81,-6.217 5.88,-9.443 5.88,-9.443 0,0 4.76,13.356 17.22,10.593 12.47,-2.763 27.19,-8.522 31.04,-10.822 3.85,-2.305 6.12,-3.683 6.12,-3.683 0,0 -23.34,4.375 -30.81,2.07 -7.48,-2.305 -13.36,-4.833 -16.77,-9.9 -3.39,-5.068 -3.39,-6.91 -3.39,-6.91 0,0 4.3,8.288 7.47,8.751 3.17,0.464 6.34,2.763 9.96,4.376 3.63,1.613 17.23,1.378 21.98,0.691 4.76,-0.691 16.99,-1.383 16.99,-1.383 0,0 -12.23,-4.147 -18.34,-6.446 -6.12,-2.305 -8.39,-9.444 -6.35,-12.435 2.04,-2.991 6.35,-12.435 6.35,-12.435 0,0 5.66,8.288 7.93,13.356 2.26,5.068 10.64,2.305 16.99,3.918 6.34,1.607 6.34,1.607 6.34,1.607 -0.19,-1.144 -0.5,-4.106 0.46,-3.455 3.85,2.305 6.34,2.305 8.83,2.305 2.5,0 2.5,0 2.5,0 0,0 -2.95,-0.457 -4.08,-3.454 -1.14,-2.992 1.58,-4.376 1.58,-4.376 0,0 -0.23,5.068 4.76,6.91 4.98,1.841 7.7,1.378 10.2,4.833 2.49,3.454 5.2,3.689 5.2,3.689 0,0 -2.26,-4.381 0,-6.909 2.27,-2.534 5.9,-0.464 5.9,-0.464 0,0 -4.54,2.305 -2.95,6.446 1.04,2.686 9.58,8.001 17.18,12.523 3.96,2.352 6.27,12.112 1.78,14.411 3.68,3.473 5.74,17.742 2.56,20.732 -3.17,3 -11.78,4.15 -13.81,0.69 -2.05,-3.45 -4.31,-7.13 -7.94,-5.06 -3.62,2.08 -6.34,6.91 -9.07,9.9 -2.7,3 -3.38,9.67 -0.45,11.28 2.95,1.62 7.26,3.69 9.75,0.69 2.49,-2.98 6.34,-1.84 7.48,1.62 1.13,3.45 3.4,8.06 8.16,9.2 4.75,1.17 3.4,9.22 0.45,11.99 -2.95,2.75 -5.9,3.45 -4.98,6.9 0.9,3.46 5.42,7.9 11.08,6.98 5.66,-0.92 11.34,-6.75 17.24,-6.75 5.88,0 9.96,-0.23 13.58,3.69 3.64,3.9 6.81,5.75 14.98,5.07 8.14,-0.7 10.87,-2.77 12.9,-4.61 16.6,-21.61 49.74,87.05 -34.44,123.2 z"/>
  <path id="left-wing" d="m 386.33,286.7 c 2.72,10.61 4.07,17.74 5.66,19.34 5.02,5.16 -4.27,-16.98 -4.53,-20.49 0,-2.54 -3.17,-29.69 -2.95,-37.3 0.24,-7.61 2.49,-15.21 2.49,-15.21 0,0 2.05,35.02 5.22,42.16 3.18,7.13 1.13,15.18 6.34,22.32 5.22,7.15 14.28,19.57 20.63,20.51 6.33,0.91 10.18,0.91 10.18,0.91 0,0 -6.34,-2.3 -7.25,-5.53 -0.9,-3.22 -1.13,-6.67 -1.13,-6.67 l 4.08,2.07 c 0,0 -4.08,-3.46 -5.43,-7.82 -1.37,-4.38 -3.41,-12 -3.41,-23.05 0,-11.03 -2.49,-17.25 -2.49,-17.25 l 2.27,1.83 c 0,0 -3.17,-19.57 -3.4,-28.09 -0.24,-8.52 1.58,-10.13 1.58,-10.13 0,0 10.88,71.39 15.41,87.28 4.53,15.88 10.2,23.93 10.2,23.93 0,0 -9.98,-28.09 -13.37,-48.11 -3.4,-20.04 -6.79,-45.84 -7.02,-51.36 -0.24,-5.54 1.81,-8.52 1.81,-8.52 0,0 6.8,32.23 7.93,42.61 1.13,10.35 1.13,10.35 1.13,10.35 0,0 -0.46,1.62 3.17,-4.14 3.62,-5.74 6.57,-5.74 6.57,-5.74 0,0 -7.02,10.58 -5.89,18.18 1.14,7.59 4.31,19.11 6.58,25.57 2.26,6.42 11.09,37.52 17.67,44.42 6.57,6.91 16.08,14.98 16.08,14.98 l 0.91,-8.07 c 0,0 0.9,-2.52 2.49,1.85 1.59,4.37 7.02,12.88 11.1,16.13 4.08,3.21 14.05,7.36 20.4,5.27 6.33,-2.06 17.21,-14.74 17.21,-14.74 0,0 -6.12,9.7 -17.67,-5.51 -11.55,-15.19 -27.65,-48.59 -30.36,-55.48 -2.72,-6.93 -3.85,-9.7 -3.85,-9.7 h 3.4 c 0,0 -24.93,-64.24 -24.93,-69.52 0,-5.3 0.45,-6.69 0.45,-6.69 0,0 20.63,54.34 32.41,76.21 11.78,21.9 26.27,39.15 31.04,44.45 4.76,5.3 17.89,15.42 19.49,15.42 1.58,0 1.58,0 1.58,0 0,0 -10.88,-7.36 -14.05,-11.05 -3.17,-3.68 -2.49,-6.9 -2.72,-7.81 -0.23,-0.92 -20.39,-19.58 -23.56,-26.03 -3.17,-6.43 -16.31,-31.55 -21.98,-44.91 -5.66,-13.35 -19.71,-52.03 -19.71,-52.03 0,0 2.95,2.99 6.57,8.05 3.63,5.07 8.16,26.71 11.56,32.25 3.4,5.52 12.01,14.74 12.01,14.74 0,0 -0.24,-7.61 0.9,-11.52 1.13,-3.93 2.03,-4.84 2.03,-4.84 0,0 -0.23,23.26 3.4,28.09 3.63,4.84 5.45,7.14 7.48,10.36 2.05,3.24 4.53,8.75 6.12,10.37 1.59,1.62 6.34,7.6 6.34,7.6 0,0 -1.13,-4.15 -0.68,-6.68 0.45,-2.54 2.04,-5.52 2.04,-5.52 0,0 -3.39,7.14 4.54,14.27 7.93,7.14 16.31,9.67 21.29,9.91 4.99,0.23 13.83,-2.31 17,-9.44 3.16,-7.13 0.45,-9.67 0.45,-9.67 0,0 -3.17,8.05 -11.55,1.15 -8.39,-6.93 -38.98,-56.19 -48.72,-77.62 -9.74,-21.41 -21.07,-47.89 -21.3,-50.66 -0.23,-2.75 -0.23,-2.75 -0.23,-2.75 0,0 3.17,4.14 18.58,30.86 15.41,26.71 33.31,53.65 50.07,64.24 16.75,10.59 17.45,7.84 17.45,7.84 0,0 -10.88,-5.99 -12.01,-7.14 -1.13,-1.17 0.23,-5.54 -3.18,-6.93 -3.39,-1.38 -11.1,-1.82 -19.02,-13.58 -7.94,-11.74 -7.94,-11.74 -7.94,-11.74 0,0 -24.92,-36.15 -31.27,-51.35 -6.33,-15.2 -9.73,-20.73 0.91,-6.22 10.65,14.51 22.66,35.47 29.68,40.06 7.03,4.62 7.03,4.62 7.03,4.62 0,0 -0.68,-2.08 -0.68,-4.84 0,-2.76 1.36,-4.61 1.36,-4.61 0,0 -2.95,11.52 9.06,14.5 12,3.01 26.76,0.7 30.11,-8.27 3.4,-8.99 -2,-17.74 -2,-17.74 0,0 -3.87,9.9 -14.74,3.45 -10.88,-6.44 -32.86,-29.71 -35.79,-35.69 -2.96,-5.99 -22.89,-34.31 -25.61,-37.08 -2.72,-2.76 -3.63,-5.29 -3.63,-5.29 0,0 24.24,24.64 28.77,30.16 4.54,5.53 26.28,18.42 35.58,23.49 9.29,5.07 16.54,0.46 16.54,0.46 0,0 -6.8,-0.23 -11.33,-1.15 -4.53,-0.92 -9.29,-4.61 -9.29,-4.61 0,0 4.54,0.24 2.49,-1.61 -2.03,-1.83 -9.96,-1.37 -15.18,-4.6 -5.21,-3.22 -23.56,-19.11 -28.32,-24.86 -4.75,-5.77 -15.41,-15.66 -15.86,-18.21 -0.45,-2.52 -0.45,-2.75 -0.45,-2.75 0,0 22.88,20.49 32.17,26.71 9.29,6.22 12.01,7.13 17.22,7.6 5.21,0.46 7.93,-0.24 7.93,-0.24 0,0 -8.39,-4.14 -8.61,-6.44 -0.24,-2.31 -0.24,-2.54 -0.24,-2.54 0,0 8.61,9.21 14.5,9.44 5.89,0.24 15.61,-5.53 17.43,-12.2 1.82,-6.68 0.71,-8.3 0.71,-8.3 0,0 -3.87,3.92 -6.11,3.92 -2.29,0 -2.51,0 -2.51,0 0,0 4.51,-2.53 4.33,-5.98 -0.24,-3.46 -0.94,-4.38 -0.94,-4.38 0,0 -1.58,8.98 -7.47,6.91 -5.89,-2.07 -5.89,-2.99 -10.64,-2.99 -4.76,0 -18.58,-9.91 -25.83,-15.21 -7.26,-5.29 -22.66,-17.95 -28.78,-22.33 -6.12,-4.37 -11.55,-8.06 -11.55,-8.06 0,0 18.81,11.74 35.34,19.57 16.54,7.83 26.28,9.91 33.76,8.29 7.48,-1.61 9.74,-5.53 9.74,-5.53 0,0 -6.35,3.69 -12.91,3.46 -6.57,-0.24 -6.57,-0.24 -6.57,-0.24 0,0 3.85,-1.61 2.72,-2.99 -1.14,-1.38 -2.72,4.83 -19.48,-2.53 -16.78,-7.36 -41.69,-22.799 -41.69,-22.799 0,0 20.61,9.669 28.99,11.059 8.39,1.38 15.64,0.68 15.64,0.68 l -4.76,-2.99 c 0,0 5.44,5.07 13.37,0.47 7.93,-4.608 13.14,-10.368 11.32,-16.586 -1.81,-6.217 -5.88,-9.443 -5.88,-9.443 0,0 -4.76,13.356 -17.22,10.593 -12.47,-2.763 -27.19,-8.522 -31.04,-10.822 -3.85,-2.305 -6.12,-3.683 -6.12,-3.683 0,0 23.34,4.375 30.81,2.07 7.48,-2.305 13.36,-4.833 16.77,-9.9 3.39,-5.068 3.39,-6.91 3.39,-6.91 0,0 -4.3,8.288 -7.47,8.751 -3.17,0.464 -6.34,2.763 -9.96,4.376 -3.63,1.613 -17.23,1.378 -21.98,0.691 -4.76,-0.691 -16.99,-1.383 -16.99,-1.383 0,0 12.23,-4.147 18.34,-6.446 6.12,-2.305 8.39,-9.444 6.35,-12.435 -2.04,-2.991 -6.35,-12.435 -6.35,-12.435 0,0 -5.66,8.288 -7.93,13.356 -2.26,5.068 -10.64,2.305 -16.99,3.918 -6.34,1.607 -6.34,1.607 -6.34,1.607 0.19,-1.144 0.5,-4.106 -0.46,-3.455 -3.85,2.305 -6.34,2.305 -8.83,2.305 -2.5,0 -2.5,0 -2.5,0 0,0 2.95,-0.457 4.08,-3.454 1.14,-2.992 -1.58,-4.376 -1.58,-4.376 0,0 0.23,5.068 -4.76,6.91 -4.98,1.841 -7.7,1.378 -10.2,4.833 -2.49,3.454 -5.2,3.689 -5.2,3.689 0,0 2.26,-4.381 0,-6.909 -2.27,-2.534 -5.9,-0.464 -5.9,-0.464 0,0 4.54,2.305 2.95,6.446 -1.04,2.686 -9.58,8.001 -17.18,12.523 -3.96,2.352 -6.27,12.112 -1.78,14.411 -3.68,3.473 -5.74,17.742 -2.56,20.732 3.17,3 11.78,4.15 13.81,0.69 2.05,-3.45 4.31,-7.13 7.94,-5.06 3.62,2.08 6.34,6.91 9.07,9.9 2.7,3 3.38,9.67 0.45,11.28 -2.95,1.62 -7.26,3.69 -9.75,0.69 -2.49,-2.98 -6.34,-1.84 -7.48,1.62 -1.13,3.45 -3.4,8.06 -8.16,9.2 -4.75,1.17 -3.4,9.22 -0.45,11.99 2.95,2.75 5.9,3.45 4.98,6.9 -0.9,3.46 -5.42,7.9 -11.08,6.98 -5.66,-0.92 -11.34,-6.75 -17.24,-6.75 -5.88,0 -9.96,-0.23 -13.58,3.69 -3.64,3.9 -6.81,5.75 -14.98,5.07 -8.14,-0.7 -10.87,-2.77 -12.9,-4.61 -16.6,-21.61 -49.74,87.05 34.44,123.2 z"/>
  <path id="body" d="m 294.54,147.43 c -1.35,-0 -3.12,0.33 -5.52,1.53 -4.83,-0.18 -4.61,-1.63 -18.36,1.9 -3.15,2.07 -12.39,1.19 -24,2.75 -4.41,1.73 -7.26,4.55 -6.34,6.83 -20.36,20.04 -18.39,53.75 -8.04,67.98 -1.29,20.13 4.27,30.92 12.7,41.04 0.46,3.52 0.72,16.66 2.3,20.72 -1.59,10.54 -3.69,14.43 -1.81,19.78 1.79,5.08 1.82,2.33 6.03,2.76 3.06,-1.71 -4.46,18.32 11.54,1.05 3.21,11.53 15.87,11.24 19.1,11 2.87,-0.21 2.2,52.91 2.2,52.91 -2.68,34.44 -42.33,34.01 -42.33,34.01 l -9.22,-1.58 c -6.1,1.68 -4.91,6.49 -4.91,6.49 10.96,35.55 45.68,0.7 45.68,0.7 0.51,10.8 -10.12,16.32 -10.12,16.32 -16.01,7.09 -15.65,7.21 -15.65,7.21 -13.39,6.76 -10.13,24.89 -10.13,24.89 11.94,-6.72 20.78,-7.12 20.78,-7.12 -10.58,17.78 -25.56,23.64 -25.56,23.64 -24.97,-0.64 -10.19,-19.69 -10.19,-19.69 -27.55,2.07 -17.66,26.67 -17.66,26.67 -8.55,8.27 -12.98,17.6 -12.98,17.6 -9.82,14.25 -1.78,28.91 -1.78,28.91 11.93,16.19 25.97,8.75 25.97,8.75 -14.4,-3.88 -13.1,-16.43 -13.1,-16.43 3.58,-18.65 16.83,-17.42 16.83,-17.42 4.31,29.21 24.33,18.77 24.33,18.77 -20.1,-21.65 8.72,-39.12 8.72,-39.12 19.83,-15.02 29.75,-31.69 29.75,-31.69 3.35,50.86 -30.13,52.8 -30.13,52.8 9.89,15.13 37.61,1.64 37.61,1.64 1.9,10.38 -10.07,19.3 -10.07,19.3 -6.99,4.64 -11.07,12.08 -11.07,12.08 -5.13,10.45 5.61,30.97 5.61,30.97 3.39,-7.15 16.11,-28.5 16.11,-28.5 -7.41,26.67 8.92,80.41 9.17,80.41 0.25,0 16.58,-53.74 9.17,-80.41 0,0 12.72,21.35 16.11,28.5 0,0 10.74,-20.52 5.61,-30.97 0,0 -4.08,-7.44 -11.07,-12.08 0,0 -11.97,-8.92 -10.07,-19.3 0,0 27.72,13.49 37.61,-1.64 0,0 -33.48,-1.94 -30.13,-52.8 0,0 9.92,16.67 29.75,31.69 0,0 28.82,17.47 8.72,39.12 0,0 20.02,10.44 24.33,-18.77 0,0 13.25,-1.23 16.83,17.42 0,0 1.3,12.55 -13.1,16.43 0,0 14.04,7.44 25.97,-8.75 0,0 8.04,-14.66 -1.78,-28.91 0,0 -4.43,-9.33 -12.98,-17.6 0,0 9.89,-24.6 -17.66,-26.67 0,0 14.78,19.05 -10.19,19.69 0,0 -14.98,-5.86 -25.56,-23.64 0,0 8.84,0.4 20.78,7.12 0,0 3.26,-18.13 -10.13,-24.89 0,0 0.36,-0.12 -15.65,-7.21 0,0 -10.63,-5.52 -10.12,-16.32 0,0 34.72,34.85 45.68,-0.7 0,0 1.19,-4.81 -4.91,-6.49 l -9.22,1.58 c 0,0 -39.65,0.43 -42.33,-34.01 0,0 -0.67,-53.12 2.2,-52.91 3.23,0.24 15.89,0.53 19.1,-11 16,17.27 8.48,-2.76 11.54,-1.05 4.21,-0.43 4.24,2.32 6.03,-2.76 1.88,-5.35 -0.22,-9.24 -1.81,-19.78 1.58,-4.06 1.84,-17.2 2.3,-20.72 8.43,-10.12 13.99,-20.91 12.7,-41.04 10.35,-14.23 12.32,-47.94 -8.04,-67.98 0.92,-2.28 -1.93,-5.1 -6.34,-6.83 -11.61,-1.56 -20.85,-0.68 -24,-2.75 -13.75,-3.53 -13.53,-2.08 -18.36,-1.9 -7.67,-3.83 -8.83,0.74 -10.98,0.66 -1.47,0 -2.49,-2.08 -5.46,-2.19 z"/>
  <g id="right-talon">
    <path d="m 237.02,364.27 c -0.1,-3.26 1.17,-6.05 2.84,-8.88 1.62,-2.79 6.34,-5.82 7.8,-8.69 8.19,-15.88 -18.13,6.92 -17.79,-23.48 l -0.1,3.02 c -5.42,16.31 -18.96,25.83 -19.18,43.22 0,0 -2.71,3.57 -4.15,5.33 -4.46,5.54 -10.73,12.43 -14.69,18.37 -12.27,18.34 -17.19,18.58 -29.9,25.51 -1.71,1.06 -4.82,3.63 -4.82,3.63 -2.4,-3.29 -3.62,-5.85 -3.64,-8.4 -0.1,-1.68 0.18,-3.24 1.16,-4.77 0.68,-0.96 1.89,-1.59 2.78,-3.05 1.57,-2.56 0.81,-4.97 -1.8,-6.63 -6.34,-3.97 -11.64,-4.69 -17.14,-0.26 -1.32,1.06 -2.69,3.29 -2.66,5.02 0,1.84 0.56,3.75 1.53,5.32 1.27,2.17 5.4,5.27 5.4,5.27 -0.53,2.6 0.71,4.61 1.57,6.75 0,0 -3.14,-1.53 -5.2,-2.97 -1.58,-1.11 -3.13,-2.47 -3.96,-4.2 -1.52,-2.93 -1.36,-7.34 -3.45,-9.9 -1.1,-1.44 -4.01,-1.88 -5.49,-0.8 -7.68,5.48 -11.22,17.94 -6.2,23.27 2.09,2.25 5.64,3.26 11.07,1.94 5.42,4.36 11.28,5.13 17.05,6.22 -3.76,2.11 -9.14,2.68 -16.83,0.98 0,0 -1.85,-2.39 -3.15,-3.01 -0.75,-0.38 -1.75,-0.69 -2.55,-0.32 -1.69,0.77 -1.9,1.24 -2.22,3.12 -1.61,8.63 1.55,19.63 11.08,21.4 4.94,0 7.04,-4.1 8.63,-8.3 0,0 4.57,0.41 7.17,-0.47 5.08,-1.66 9.28,-7.63 14.51,-8.58 1.88,-0.33 3.93,0.26 5.63,1.16 1.51,0.8 3.65,3.59 3.65,3.59 -2.74,5.02 -2.39,8.53 -1.35,11.14 1.91,4.43 9.3,7.15 18.31,-1.81 2.83,-2.83 6.42,-6.85 3.67,-10.2 -2.75,-3.35 -7.9,-3.34 -10.78,-5.2 -2.87,-1.84 -4.7,-3.52 -5.81,-6.11 -0.7,-1.78 -0.78,-3.95 -0.1,-5.73 0.44,-1.23 2.78,-2.92 2.78,-2.92 0,0 7.44,1.32 10.59,-0.37 4.68,-2.5 3.24,-7.41 22.28,-22.06 4.75,-3.67 5.3,-11.62 12.98,-16.59 1.7,-1.09 6.55,-2.31 6.55,-2.31 z"/>
    <path style="fill:#aa0000;" d="m 187.02,452.05 c -0.84,-2.05 -3.88,-1.6 -6,-0.22 -1.98,1.31 -4.39,5.62 -2.38,6.69 4.54,2.82 6.19,8.06 6.87,13.09 4.89,-5.71 5.03,-13.11 1.51,-19.56 z m -62.96,-10.76 c 1.84,-1.2 4.07,0.96 5.01,3.32 0.9,2.25 0.44,7.2 -1.82,6.88 -5.3,-0.34 -9.6,2.97 -12.99,6.67 -0.79,-7.54 3.29,-13.68 9.8,-16.87 z m -1.77,-34.19 c 2.13,0.52 2.14,3.64 1.08,5.91 -0.99,2.21 -4.87,5.24 -6.22,3.38 -3.42,-4.12 -8.8,-5 -13.81,-4.94 4.88,-5.75 12.12,-6.95 18.95,-4.35 z m 26.36,-13.31 c 1.58,1.55 0,4.2 -2.08,5.61 -1.98,1.34 -6.89,1.91 -7.11,-0.35 -0.86,-5.27 -5.08,-8.79 -9.46,-11.36 7.16,-2.33 14.04,0.38 18.65,6.1 z"/>
  </g>
  <g id="left-talon">
    <path d="m 362.98,364.27 c 0.1,-3.26 -1.17,-6.05 -2.84,-8.88 -1.62,-2.79 -6.34,-5.82 -7.8,-8.69 -8.19,-15.88 18.13,6.92 17.79,-23.48 l 0.1,3.02 c 5.42,16.31 18.96,25.83 19.18,43.22 0,0 2.71,3.57 4.15,5.33 4.46,5.54 10.73,12.43 14.69,18.37 12.27,18.34 17.19,18.58 29.9,25.51 1.71,1.06 4.82,3.63 4.82,3.63 2.4,-3.29 3.62,-5.85 3.64,-8.4 0.1,-1.68 -0.18,-3.24 -1.16,-4.77 -0.68,-0.96 -1.89,-1.59 -2.78,-3.05 -1.57,-2.56 -0.81,-4.97 1.8,-6.63 6.34,-3.97 11.64,-4.69 17.14,-0.26 1.32,1.06 2.69,3.29 2.66,5.02 0,1.84 -0.56,3.75 -1.53,5.32 -1.27,2.17 -5.4,5.27 -5.4,5.27 0.53,2.6 -0.71,4.61 -1.57,6.75 0,0 3.14,-1.53 5.2,-2.97 1.58,-1.11 3.13,-2.47 3.96,-4.2 1.52,-2.93 1.36,-7.34 3.45,-9.9 1.1,-1.44 4.01,-1.88 5.49,-0.8 7.68,5.48 11.22,17.94 6.2,23.27 -2.09,2.25 -5.64,3.26 -11.07,1.94 -5.42,4.36 -11.28,5.13 -17.05,6.22 3.76,2.11 9.14,2.68 16.83,0.98 0,0 1.85,-2.39 3.15,-3.01 0.75,-0.38 1.75,-0.69 2.55,-0.32 1.69,0.77 1.9,1.24 2.22,3.12 1.61,8.63 -1.55,19.63 -11.08,21.4 -4.94,0 -7.04,-4.1 -8.63,-8.3 0,0 -4.57,0.41 -7.17,-0.47 -5.08,-1.66 -9.28,-7.63 -14.51,-8.58 -1.88,-0.33 -3.93,0.26 -5.63,1.16 -1.51,0.8 -3.65,3.59 -3.65,3.59 2.74,5.02 2.39,8.53 1.35,11.14 -1.91,4.43 -9.3,7.15 -18.31,-1.81 -2.83,-2.83 -6.42,-6.85 -3.67,-10.2 2.75,-3.35 7.9,-3.34 10.78,-5.2 2.87,-1.84 4.7,-3.52 5.81,-6.11 0.7,-1.78 0.78,-3.95 0.1,-5.73 -0.44,-1.23 -2.78,-2.92 -2.78,-2.92 0,0 -7.44,1.32 -10.59,-0.37 -4.68,-2.5 -3.24,-7.41 -22.28,-22.06 -4.75,-3.67 -5.3,-11.62 -12.98,-16.59 -1.7,-1.09 -6.55,-2.31 -6.55,-2.31 z"/>
    <path style="fill:#aa0000;" d="m 412.98,452.05 c 0.84,-2.05 3.88,-1.6 6,-0.22 1.98,1.31 4.39,5.62 2.38,6.69 -4.54,2.82 -6.19,8.06 -6.87,13.09 -4.89,-5.71 -5.03,-13.11 -1.51,-19.56 z m 62.96,-10.76 c -1.84,-1.2 -4.07,0.96 -5.01,3.32 -0.9,2.25 -0.44,7.2 1.82,6.88 5.3,-0.34 9.6,2.97 12.99,6.67 0.79,-7.54 -3.29,-13.68 -9.8,-16.87 z m 1.77,-34.19 c -2.13,0.52 -2.14,3.64 -1.08,5.91 0.99,2.21 4.87,5.24 6.22,3.38 3.42,-4.12 8.8,-5 13.81,-4.94 -4.88,-5.75 -12.12,-6.95 -18.95,-4.35 z m -26.36,-13.31 c -1.58,1.55 0,4.2 2.08,5.61 1.98,1.34 6.89,1.91 7.11,-0.35 0.86,-5.27 5.08,-8.79 9.46,-11.36 -7.16,-2.33 -14.04,0.38 -18.65,6.1 z"/>
  </g>
  <path id="right-thigh" d="m 264.43,296.89 c -4.67,1.7 -8.12,-0.99 -10.69,-2.94 -4.24,-3.93 -10.91,1.02 -8.86,4.49 1.59,2.73 -3.2,4.59 -5.2,5.41 -4.91,0.25 -8.89,7.8 -9.64,12.33 -1.43,8.71 -7.43,15.38 -11.03,17.7 0.95,1.25 2.65,1.59 4.21,2.1 -14.82,7.31 -10.36,15.2 -23.84,12.8 2.6,6.15 6.7,14.84 19.7,10.67 -2.46,5.38 -3.96,9.77 -0.7,20.51 7.51,-3.13 12.83,-6.66 15.05,-13.51 4.78,8.52 7.39,7.91 10.32,10.71 3.39,-7.1 7.96,-13.35 6.07,-24.65 1.53,1.08 2.79,0.17 4.96,0.47 1.76,-1.45 6.06,-8.19 4.73,-16.24 2.22,7.97 4.48,7.05 4.48,7.05 11.32,-4.9 19.03,-15.25 17.13,-27.17 -3.69,1.98 -4.67,-0.63 -3.53,-2.18"/>
  <path id="left-thigh" d="m 335.57,296.89 c 4.67,1.7 8.12,-0.99 10.69,-2.94 4.24,-3.93 10.91,1.02 8.86,4.49 -1.59,2.73 3.2,4.59 5.2,5.41 4.91,0.25 8.89,7.8 9.64,12.33 1.43,8.71 7.43,15.38 11.03,17.7 -0.95,1.25 -2.65,1.59 -4.21,2.1 14.82,7.31 10.36,15.2 23.84,12.8 -2.6,6.15 -6.7,14.84 -19.7,10.67 2.46,5.38 3.96,9.77 0.7,20.51 -7.51,-3.13 -12.83,-6.66 -15.05,-13.51 -4.78,8.52 -7.39,7.91 -10.32,10.71 -3.39,-7.1 -7.96,-13.35 -6.07,-24.65 -1.53,1.08 -2.79,0.17 -4.96,0.47 -1.76,-1.45 -6.06,-8.19 -4.73,-16.24 -2.22,7.97 -4.48,7.05 -4.48,7.05 -11.32,-4.9 -19.03,-15.25 -17.13,-27.17 3.69,1.98 4.67,-0.63 3.53,-2.18"/>
  <path id="right-tongue" d="m 195.56,57.571 c 0,0 -2.23,3.59 -1.52,5.604 0.93,2.564 2.95,4.852 6.49,5.427 5.66,0.905 15.41,-2.85 21.38,-2.87 9.63,-1.919 21.68,1.15 21.68,1.15 l 1.14,-5.563 c 0,0 -12.64,-3.562 -20.43,-3.386 -6.68,0.138 -15.46,5.146 -22.22,5.565 -2,0.123 -2.87,-0.569 -4.27,-1.405 -1.64,-1.007 -2.25,-4.522 -2.25,-4.522 z"/>
  <path id="left-tongue" d="m 404.44,57.571 c 0,0 2.23,3.59 1.52,5.604 -0.93,2.564 -2.95,4.852 -6.49,5.427 -5.66,0.905 -15.41,-2.85 -21.38,-2.87 -9.63,-1.919 -21.68,1.15 -21.68,1.15 l -1.14,-5.563 c 0,0 12.64,-3.562 20.43,-3.386 6.68,0.138 15.46,5.146 22.22,5.565 2,0.123 2.87,-0.569 4.27,-1.405 1.64,-1.007 2.25,-4.522 2.25,-4.522 z"/>
  <path id="right-head" d="m 283.83,153.48 c 4.63,2.22 14.2,-2.75 15.22,-7.73 -5.58,-1.46 -8.07,-9.29 -8.15,-13.38 -0.12,-7.12 -0.55,-17.86 -3.99,-22.49 3,1.97 8.72,2.98 11.71,-4.41 -10.44,1.46 -8.2,-11.934 -11.7,-16.743 0.97,-6.003 -5.99,-11.532 -6.41,-13.252 5.3,1.672 12.3,-5.015 8.98,-8.689 -1.43,-2.192 -0.93,3.338 -8.02,-1.315 -1.63,-4.131 0.78,-5.852 -7.03,-13.162 7.97,3.213 9.76,3.275 14.61,0.328 -2.74,-1.294 -6.85,-5.542 -10.66,-9.531 -3.56,-3.707 -6.98,-6.721 -15.08,-9.948 4.13,-1.618 5.17,0.328 6.19,-2.372 -7.86,-0.855 -17.56,-10.017 -36.61,-4.159 -12.34,-1.13 -22.08,1.597 -27.68,5.517 0.59,0.89 -3.28,2.904 -2.55,3.59 1.39,0.699 1.4,-0.186 0,0 2.86,3.008 3.69,7.085 7.59,6.832 l 3.58,7.563 c 3.5,3.906 8.6,2.967 12.35,3.248 1.05,0.09 3.74,1.2 4.84,0.946 5.15,-0.548 6.36,0.747 11.27,2.356 0.11,0.07 3.58,0.101 3.75,0.193 3.8,1.864 -0.12,-0.432 1.11,2.152 3.89,-1.796 -9.36,7.167 -11.18,4.194 -0.85,8.365 -1.77,15.231 -6.2,18.266 3.69,1.562 4.39,0.96 8.78,-1.178 -0.37,9.661 -3.35,12.073 -3.15,13.99 -2.28,2.684 -5.22,6.994 -8.93,5.005 3.52,7.819 13.34,2.269 13.34,2.269 -1.75,2.17 -2.59,4.97 -2.4,8.41 -2.85,2.34 -4.58,4.98 -5.07,7.81 -0.38,1.11 -2.04,1.55 -5.06,1.32 2.8,2.63 5.7,3.32 8.72,1.96 1.55,-0.74 2.88,-1.48 4.04,-2.22 0.52,-0.22 2.81,-2.94 0,0 -4.2,3.3 -5.78,8.07 -4.82,14.17 -0.93,1.45 -3.8,4.94 -4.31,7.37 -0.9,4.26 11.19,4.93 5.54,10.19 -5.64,5.25 -11.41,11.02 -12.36,16.35 -0.38,7.33 -6.16,12.06 -10.29,15.15 2.15,-0.34 5.51,3.2 12.14,1.01 8.99,-4.03 10.85,-15.01 11.39,-12.07"/>
  <path id="left-head" d="m 316.17,153.48 c -4.63,2.22 -14.2,-2.75 -15.22,-7.73 5.58,-1.46 8.07,-9.29 8.15,-13.38 0.12,-7.12 0.55,-17.86 3.99,-22.49 -3,1.97 -8.72,2.98 -11.71,-4.41 10.44,1.46 8.2,-11.934 11.7,-16.743 -0.97,-6.003 5.99,-11.532 6.41,-13.252 -5.3,1.672 -12.3,-5.015 -8.98,-8.689 1.43,-2.192 0.93,3.338 8.02,-1.315 1.63,-4.131 -0.78,-5.852 7.03,-13.162 -7.97,3.213 -9.76,3.275 -14.61,0.328 2.74,-1.294 6.85,-5.542 10.66,-9.531 3.56,-3.707 6.98,-6.721 15.08,-9.948 -4.13,-1.618 -5.17,0.328 -6.19,-2.372 7.86,-0.855 17.56,-10.017 36.61,-4.159 12.34,-1.13 22.08,1.597 27.68,5.517 -0.59,0.89 3.28,2.904 2.55,3.59 -1.39,0.699 -1.4,-0.186 0,0 -2.86,3.008 -3.69,7.085 -7.59,6.832 l -3.58,7.563 c -3.5,3.906 -8.6,2.967 -12.35,3.248 -1.05,0.09 -3.74,1.2 -4.84,0.946 -5.15,-0.548 -6.36,0.747 -11.27,2.356 -0.11,0.07 -3.58,0.101 -3.75,0.193 -3.8,1.864 0.12,-0.432 -1.11,2.152 -3.89,-1.796 9.36,7.167 11.18,4.194 0.85,8.365 1.77,15.231 6.2,18.266 -3.69,1.562 -4.39,0.96 -8.78,-1.178 0.37,9.661 3.35,12.073 3.15,13.99 2.28,2.684 5.22,6.994 8.93,5.005 -3.52,7.819 -13.34,2.269 -13.34,2.269 1.75,2.17 2.59,4.97 2.4,8.41 2.85,2.34 4.58,4.98 5.07,7.81 0.38,1.11 2.04,1.55 5.06,1.32 -2.8,2.63 -5.7,3.32 -8.72,1.96 -1.55,-0.74 -2.88,-1.48 -4.04,-2.22 -0.52,-0.22 -2.81,-2.94 0,0 4.2,3.3 5.78,8.07 4.82,14.17 0.93,1.45 3.8,4.94 4.31,7.37 0.9,4.26 -11.19,4.93 -5.54,10.19 5.64,5.25 11.41,11.02 12.36,16.35 0.38,7.33 6.16,12.06 10.29,15.15 -2.15,-0.34 -5.51,3.2 -12.14,1.01 -8.99,-4.03 -10.85,-15.01 -11.39,-12.07"/>
  <path id="right-beak" style="fill:#aa0000;" d="m 206.79,31.602 c -16.57,0.07 -20.19,20.151 -6,24.441 0,0 -0.84,-1.323 -0.93,-2.412 -0.11,-1.315 0.34,-2.796 1.2,-3.748 1.31,-1.405 2.74,-2.021 4.67,-1.885 2.11,0.172 4.26,1.543 5.51,3.297 1.01,1.404 2.5,4.754 2.5,4.754 0,0 4.13,-2 6.88,-2.022 8.52,-0.07 22.85,3.819 22.85,3.819 0,0 -5.81,2.137 -9.78,3.439 -3.85,1.274 -6.92,2.794 -10.83,3.877 -2.14,0.583 -7.98,2.379 -10.18,2.352 -3.65,0 -7.61,-2.194 -7.61,-2.194 -0.36,4.934 3.6,9.25 10.24,8.051 8.09,-1.445 15.06,-4.886 22.55,-8.168 4.98,-2.193 10.18,-4.309 16.05,-5.707 0,0 -0.24,-3.706 -2.54,-4.562 -9.2,-3.378 -20.15,-4.955 -27.97,-6.791 0,0 -3.15,-3.598 -5.24,-4.598 -1.32,-0.623 -3.15,-1.089 -4.58,-1.41 -2.04,-0.467 -4.15,-0.83 -6.21,-1.201 -2.96,-3.446 -3.03,-5.494 -0.58,-9.332 z m -7.52,6.113 c -0.12,1.418 -0.48,3.027 -0.92,3.521 -0.12,0.151 -1.05,0.569 -1.9,0.754 -0.25,0.07 -0.25,0.07 -0.45,0.07 0,-0.112 0,-0.101 0.11,-0.213 0.11,-0.767 0.38,-1.693 0.57,-2.049 0.39,-0.59 1.47,-1.692 1.9,-1.953 0.44,-0.261 0.69,-0.13 0.69,-0.13 z"/>
  <path id="left-beak" style="fill:#aa0000;" d="m 393.21,31.602 c 2.45,3.838 2.38,5.886 -0.58,9.332 -2.06,0.371 -4.17,0.734 -6.21,1.201 -1.43,0.321 -3.26,0.787 -4.58,1.41 -2.09,1 -5.24,4.598 -5.24,4.598 -7.82,1.836 -18.77,3.413 -27.97,6.791 -2.3,0.856 -2.54,4.562 -2.54,4.562 5.87,1.398 11.07,3.514 16.05,5.707 7.49,3.282 14.46,6.723 22.55,8.168 6.64,1.199 10.6,-3.117 10.24,-8.051 0,0 -3.96,2.194 -7.61,2.194 -2.2,0.03 -8.04,-1.769 -10.18,-2.352 -3.91,-1.083 -6.98,-2.603 -10.83,-3.877 -3.97,-1.302 -9.78,-3.439 -9.78,-3.439 0,0 14.33,-3.889 22.85,-3.819 2.75,0.02 6.88,2.022 6.88,2.022 0,0 1.49,-3.35 2.5,-4.754 1.25,-1.754 3.4,-3.125 5.51,-3.297 1.93,-0.136 3.36,0.48 4.67,1.885 0.86,0.952 1.31,2.433 1.2,3.748 -0.1,1.089 -0.93,2.412 -0.93,2.412 14.19,-4.29 10.57,-24.371 -6,-24.441 z m 7.7,6.08 c 0.12,0 0.29,0.03 0.51,0.164 0.43,0.261 1.51,1.363 1.9,1.953 0.19,0.356 0.46,1.282 0.57,2.049 0.11,0.112 0.11,0.101 0.11,0.213 -0.2,0 -0.2,-10e-4 -0.45,-0.07 -0.85,-0.185 -1.78,-0.603 -1.9,-0.754 -0.44,-0.494 -0.8,-2.103 -0.92,-3.521 0,0 0.1,-0.03 0.18,-0.03 z"/>
  <g id="right-eye">
    <path style="fill:#ffffff;stroke:#cc0000;" d="m 219.52,40.55 c 0.46,2.036 3.85,4.824 7.12,4.208 3.28,-0.617 5.2,-4.426 4.75,-6.455 -0.44,-2.036 -3.04,-1.055 -6.32,-0.438 -3.28,0.616 -5.99,0.657 -5.55,2.685 z"/>
    <path style="fill:#aa0000;stroke:none;" d="m 222.08,41.099 a 3.2775,3.0127 70.146 1 0 6.04,-0.453 3.2775,3.0127 70.146 1 0 -6.04,0.453 z"/>
    <path style="fill:#000000;stroke:none;" d="m 224.98,39.31 c 0.8,-0.07 1.64,0.507 1.73,1.432 0.12,0.939 -0.55,1.604 -1.38,1.665 -0.81,0.07 -1.59,-0.465 -1.72,-1.432 -0.1,-0.953 0.53,-1.603 1.37,-1.665 z"/>
    <path style="fill:#ffffff;stroke:none;" d="m 223.96,39.099 c 0.56,-0.07 1.11,0.368 1.2,1.027 0.1,0.671 -0.39,1.144 -0.95,1.186 -0.57,0.07 -1.11,-0.337 -1.17,-1.029 -0.12,-0.677 0.34,-1.137 0.92,-1.184 z"/>
    <path style="fill:#ffffff;stroke:none;" d="m 218.78,38.255 c -1.17,-0.555 -1.13,-1.049 -1.13,-1.049 v -0.931 l 0.78,0.411 v 0 0 c 0,0 -0.15,0.205 4.97,0.363 2.27,0.07 6.52,-0.835 9.1,-0.974 1.32,-0.08 2.59,0.102 3.56,0.96 0.97,0.857 1.44,2.268 1.48,4.297 -0.99,-0.288 -0.96,-2.042 -2.4,-3.337 -0.54,-0.494 -1.36,-0.644 -2.49,-0.582 -2.2,0.116 -5.25,1.226 -7.97,1.143 -4.86,-0.157 -4.71,0.234 -5.91,-0.301 z"/>
  </g>
  <g id="left-eye">
    <path style="fill:#ffffff;stroke:#cc0000;" d="m 380.48,40.55 c -0.46,2.036 -3.85,4.824 -7.12,4.208 -3.28,-0.617 -5.2,-4.426 -4.75,-6.455 0.44,-2.036 3.04,-1.055 6.32,-0.438 3.28,0.616 5.99,0.657 5.55,2.685 z"/>
    <path style="fill:#aa0000;stroke:none;" d="m 377.92,41.099 a 3.0127,3.2775 19.854 1 1 -6.04,-0.453 3.0127,3.2775 19.854 1 1 6.04,0.453 z"/>
    <path style="fill:#000000;stroke:none;" d="m 375.02,39.31 c -0.8,-0.07 -1.64,0.507 -1.73,1.432 -0.12,0.939 0.55,1.604 1.38,1.665 0.81,0.07 1.59,-0.465 1.72,-1.432 0.1,-0.953 -0.53,-1.603 -1.37,-1.665 z"/>
    <path style="fill:#ffffff;stroke:none;" d="m 373.64,39.099 c 0.56,-0.07 1.11,0.368 1.2,1.027 0.1,0.671 -0.39,1.144 -0.95,1.186 -0.57,0.07 -1.11,-0.337 -1.17,-1.029 -0.12,-0.677 0.34,-1.137 0.92,-1.184 z"/>
    <path style="fill:#ffffff;stroke:none;" d="m 381.22,38.255 c 1.17,-0.555 1.13,-1.049 1.13,-1.049 v -0.931 l -0.78,0.411 v 0 0 c 0,0 0.15,0.205 -4.97,0.363 -2.27,0.07 -6.52,-0.835 -9.1,-0.974 -1.32,-0.08 -2.59,0.102 -3.56,0.96 -0.97,0.857 -1.44,2.268 -1.48,4.297 0.99,-0.288 0.96,-2.042 2.4,-3.337 0.54,-0.494 1.36,-0.644 2.49,-0.582 2.2,0.116 5.25,1.226 7.97,1.143 4.86,-0.157 4.71,0.234 5.91,-0.301 z"/>
  </g>
</g>
<use xlink:href="#eagle" transform="translate(-200,210)"/>
<use xlink:href="#eagle" transform="translate(200,210)"/>
<use xlink:href="#eagle" transform="translate(0,420)"/>
<g clip-path="url(#clip-shield)">
  <path style="fill:none;stroke:#008000;stroke-width:75;" d="m 0,0 600,600 m -600,0 600,-600"/>
</g>
<use id="shine" xlink:href="#shield" style="fill:url(#rg);stroke:#000000;stroke-width:3;"/>
</svg>
