<?xml version="1.0" encoding="UTF-8" standalone="no"?>
<svg
   width="600"
   height="660"
   version="1.1"
   id="svg65"
   sodipodi:docname="bell3.svg"
   inkscape:version="1.1 (1:1.1+202105261517+ce6663b3b7)"
   xmlns:inkscape="http://www.inkscape.org/namespaces/inkscape"
   xmlns:sodipodi="http://sodipodi.sourceforge.net/DTD/sodipodi-0.dtd"
   xmlns:xlink="http://www.w3.org/1999/xlink"
   xmlns="http://www.w3.org/2000/svg"
   xmlns:svg="http://www.w3.org/2000/svg">
  <sodipodi:namedview
     id="namedview67"
     pagecolor="#ffffff"
     bordercolor="#666666"
     borderopacity="1.0"
     inkscape:pageshadow="2"
     inkscape:pageopacity="0.0"
     inkscape:pagecheckerboard="0"
     showgrid="false"
     inkscape:zoom="0.65909091"
     inkscape:cx="0.75862069"
     inkscape:cy="383.10345"
     inkscape:window-width="1848"
     inkscape:window-height="1016"
     inkscape:window-x="72"
     inkscape:window-y="27"
     inkscape:window-maximized="1"
     inkscape:current-layer="svg65" />
  <defs
     id="defs57">
    <radialGradient
       id="rg"
       gradientUnits="userSpaceOnUse"
       cx="220"
       cy="220"
       r="405">
      <stop
         style="stop-color:#fff;stop-opacity:.3"
         offset="0"
         id="stop2" />
      <stop
         style="stop-color:#fff;stop-opacity:.2"
         offset="0.2"
         id="stop4" />
      <stop
         style="stop-color:#666;stop-opacity:.1"
         offset="0.6"
         id="stop6" />
      <stop
         style="stop-color:#000;stop-opacity:.13"
         offset="1"
         id="stop8" />
    </radialGradient>
    <path
       id="shield"
       d="m 2 2 v 257 c 0 286 298 398 298 398 c 0 0 298 -112 298 -398 V 2 Z" />
  </defs>
  <use
     fill="#cc0000"
     xlink:href="#shield"
     id="use59"
     style="fill:#ffcc00;fill-opacity:1" />
  <path
     id="rect5919"
     style="fill:#cc0000;fill-opacity:1;stroke:none;stroke-width:32;stroke-linecap:round;stroke-linejoin:round;stroke-opacity:1;stop-color:#000000"
     d="M 2 2 L 2 259 C 2 545 300 657 300 657 L 300 2 L 2 2 z " />
  <g
     id="bell">
    <path
       style="fill:#9e7b26;fill-opacity:1;stroke:#72581c;stroke-width:1;stroke-linecap:round;stroke-linejoin:round;stroke-opacity:1"
       d="m 387.83741,324.78902 a 87.880829,17.611278 0 0 1 -87.88083,17.61127 87.880829,17.611278 0 0 1 -87.88083,-17.61127 87.880829,17.611278 0 0 1 87.88083,-17.61129 87.880829,17.611278 0 0 1 87.88083,17.61129 z"
       id="path884" />
    <path
       d="m 293.37606,337.23207 -0.0553,7.60652 c 0,1.07539 0.9812,1.94114 2.19997,1.94114 h 7.50576 c 1.21879,0 2.19998,-0.86575 2.19998,-1.94114 l -0.0733,-7.53371 c 4.89285,-2.1939 8.35555,-4.74256 8.35555,-10.53268 0,-5.69266 -3.3471,-8.98322 -8.2308,-11.35262 l -0.0515,-39.24661 c 0,-1.07539 -0.98118,-1.94116 -2.19996,-1.94116 h -7.50577 c -1.21878,0 -2.19998,0.86577 -2.19998,1.94116 l -0.0229,39.42741 c -4.88586,2.1501 -8.25922,5.45686 -8.25922,11.17182 0,5.77606 3.39065,8.22868 8.33749,10.45987 z"
       id="path886"
       style="fill:#cd9f32;stroke:#72581c;stroke-width:1;stroke-linecap:round;stroke-linejoin:round;stroke-opacity:1" />
    <path
       d="m 305.38938,345.39539 a 6.0869947,2.7112829 0 0 1 -6.087,2.71128 6.0869947,2.7112829 0 0 1 -6.08699,-2.71128 6.0869947,2.7112829 0 0 1 6.08699,-2.7113 6.0869947,2.7112829 0 0 1 6.087,2.7113 z"
       id="path888"
       style="fill:#cd9f32;stroke:#72581c;stroke-width:1;stroke-linecap:round;stroke-linejoin:round;stroke-opacity:1" />
    <path
       style="fill:none;stroke:#72581c;stroke-width:1;stroke-linecap:round;stroke-linejoin:round;stroke-opacity:1"
       d="m 293.35703,315.51114 c 5.44153,-1.79612 8.01249,-1.10924 11.94646,0"
       id="path890" />
    <path
       style="fill:none;stroke:#72581c;stroke-width:1;stroke-linecap:round;stroke-linejoin:round;stroke-opacity:1"
       d="m 293.35703,337.44962 c 5.44153,-1.79611 8.01249,-1.10923 11.94646,0"
       id="path892" />
    <path
       d="m 300.09505,160.53574 13.54989,-3.25015 c 2.47591,2.26411 -2.43153,20.67478 5.49349,2.37257 1.2717,-4.00172 5.16667,-7.90493 -1.62594,-8.49061 l -17.41744,3.25015 -17.41748,-3.25015 c -6.7926,0.58568 -4.00038,3.20234 -2.72868,7.20407 0.17311,2.22161 4.37887,-0.86493 6.59622,-1.08603 z"
       id="path896"
       style="fill:#cd9f32;stroke:#72581c;stroke-width:1;stroke-linecap:round;stroke-linejoin:round;stroke-opacity:1" />
    <path
       d="m 300.09505,157.02443 13.54989,-3.25014 c 2.05489,-0.17421 1.14493,1.46541 0.15832,1.99788 -1.25525,1.14465 -1.69524,2.72826 -1.7955,4.08505 -0.0385,1.01655 -0.46404,3.32752 -0.58308,4.33977 1.38932,0.97363 3.11516,0.76219 2.01153,1.64811 0.32257,0.45318 2.73802,0.89949 4.26511,0.43918 1.01963,0.84279 1.86744,0.36648 2.74977,0.16708 -0.0639,-3.98824 1.37723,-7.00523 4.20108,-10.30451 1.27172,-4.00173 -0.34708,-7.90493 -7.13968,-8.49061 l -17.41744,3.25015 -17.41748,-3.25015 c -6.7926,0.58568 -8.41139,4.48888 -7.1397,8.49061 2.82389,3.29928 4.265,6.31627 4.2011,10.30451 0.88233,0.1994 1.73014,0.67571 2.74978,-0.16708 1.52707,0.46031 3.94254,0.014 4.2651,-0.43918 -1.10362,-0.88592 0.62222,-0.67448 2.01154,-1.64811 -0.11906,-1.01225 -0.54452,-3.32322 -0.58308,-4.33977 -0.10022,-1.35679 -0.54025,-2.9404 -1.7955,-4.08505 -0.98661,-0.53247 -1.89657,-2.17209 0.1583,-1.99788 z"
       id="path898"
       style="fill:#cd9f32;stroke:#72581c;stroke-width:1;stroke-linecap:round;stroke-linejoin:round;stroke-opacity:1" />
    <path
       d="m 300.61486,166.17264 c 2.18145,-1.18571 4.73159,-1.93703 6.50032,-3.79304 0.0786,-7.04498 -0.0949,-13.37292 0,-20.39636 -0.11134,-0.2899 -0.0898,-0.4732 -0.5921,-0.43126 -1.00176,0.0714 -0.91438,-1.24229 -1.92164,-1.12097 -0.85869,0.16803 -2.4972,0.16054 -2.31177,-0.95213 -0.16695,-0.99874 -1.11595,-1.63659 -2.19466,-1.49208 -1.07871,-0.14451 -2.02771,0.49334 -2.19464,1.49208 0.1854,1.11267 -1.4531,1.12016 -2.31178,0.95213 -1.00727,-0.12132 -0.91987,1.19238 -1.92165,1.12097 -0.5023,-0.0419 -0.48073,0.14136 -0.59208,0.43126 0.0949,7.02344 -0.0786,13.35138 0,20.39636 1.28476,2.77465 5.19916,3.25271 7.54,3.79304 z"
       id="path902"
       style="fill:#cd9f32;stroke:#72581c;stroke-width:1;stroke-linecap:round;stroke-linejoin:round;stroke-opacity:1" />
    <path
       d="m 300.20796,137.90459 c 1.11185,0 2.00694,0.57375 2.00694,1.28642 v 24.77873 c 0,0.71268 -0.89509,1.28642 -2.00694,1.28642 -1.11183,0 -2.00694,-0.57374 -2.00694,-1.28642 v -24.77873 c 0,-0.71267 0.89511,-1.28642 2.00694,-1.28642 z"
       id="path904"
       style="fill:#cd9f32;stroke:#72581c;stroke-width:1;stroke-linecap:round;stroke-linejoin:round;stroke-opacity:1" />
    <path
       d="m 387.92424,323.78281 c 0,-9.72144 -39.45745,-16.60507 -87.96765,-16.60507 -48.51022,0 -87.88083,7.88986 -87.82919,16.60507 2.40878,-8.05964 6.41216,-13.64982 10.61758,-19.23709 l 7.90765,-8.77336 c 2.94675,-0.0367 4.04468,-3.77101 5.7214,-6.34776 3.6675,-7.32197 5.04531,-15.4461 6.6947,-23.14993 3.88547,-23.0672 1.34885,-46.88254 3.64707,-70.51282 0.59837,-1.89341 0.42081,-4.94242 1.45729,-6.58872 7.22532,-8.98347 12.32803,-13.01418 17.54406,-17.30928 1.58407,-1.3044 2.62299,-3.20988 5.74795,-3.85005 8.15625,-1.94563 21.8567,-3.70846 28.62997,-3.63113 6.77326,-0.0773 20.47371,1.6855 28.62995,3.63113 3.12498,0.64017 4.1639,2.54565 5.74797,3.85005 5.21603,4.2951 10.31875,8.32581 17.54407,17.30928 1.03645,1.6463 0.8589,4.69531 1.45728,6.58872 2.29821,23.63028 -0.23841,47.44562 3.64705,70.51282 1.6494,7.70383 3.02721,15.82796 6.69472,23.14993 1.67671,2.57675 2.77465,6.31107 5.7214,6.34776 l 7.90764,8.77336 c 4.20543,5.58727 8.12196,12.18369 10.47909,19.23709 z"
       id="path910"
       style="fill:#cd9f32;stroke:#72581c;stroke-width:1;stroke-linecap:round;stroke-linejoin:round;stroke-opacity:1" />
    <path
       d="m 213.49942,326.2259 c -0.93276,-1.02775 -1.42193,-2.07987 -1.42193,-3.16128 0,-9.72142 39.3707,-17.60919 87.88091,-17.60919 48.51022,0 87.88092,7.88777 87.88092,17.60919 0,0.85875 -0.32049,1.70047 -0.9141,2.52648 -7.45384,-8.21085 -43.33367,-14.44792 -86.44628,-14.44792 -44.21995,0 -80.84704,6.55957 -86.97952,15.08272 z"
       id="path912"
       style="fill:#cd9f32;stroke:#72581c;stroke-width:1;stroke-linecap:round;stroke-linejoin:round;stroke-opacity:1" />
    <path
       d="m 299.36358,198.61252 c -31.07328,0 -56.29242,5.7149 -56.29242,12.76325 0,1.06127 0.57392,2.09775 1.6513,3.08381 2.10206,-6.60865 26.00536,-11.83043 55.14637,-11.83043 28.07254,0 51.28261,4.8431 54.82597,11.10612 0.62969,-0.76418 0.96121,-1.5541 0.96121,-2.3595 0,-7.04835 -25.21916,-12.76326 -56.29243,-12.76325 z"
       id="path914"
       style="fill:#cd9f32;stroke:#72581c;stroke-width:1;stroke-linecap:round;stroke-linejoin:round;stroke-opacity:1" />
    <path
       d="m 299.97312,208.0685 c -31.12378,0 -56.3839,5.71458 -56.3839,12.76254 0,1.06121 0.57488,2.09764 1.654,3.08364 2.10546,-6.60827 26.04762,-11.82977 55.23597,-11.82977 28.11816,0 51.36593,4.84282 54.91504,11.1055 0.63071,-0.76414 0.96277,-1.55401 0.96277,-2.35937 0,-7.04796 -25.26012,-12.76254 -56.38388,-12.76254 z"
       id="path916"
       style="fill:#cd9f32;stroke:#72581c;stroke-width:1;stroke-linecap:round;stroke-linejoin:round;stroke-opacity:1" />
    <path
       d="m 299.90566,176.56032 c -29.91221,0 -54.18901,5.72224 -54.18901,12.77964 0,1.06264 0.55248,2.10044 1.58961,3.08777 2.0235,-6.61713 25.03361,-11.84561 53.08576,-11.84561 27.02357,0 49.36637,4.84931 52.77733,11.12038 0.60614,-0.76516 0.9253,-1.5561 0.9253,-2.36254 0,-7.0574 -24.27682,-12.77964 -54.18899,-12.77964 z"
       id="path918"
       style="fill:#cd9f32;stroke:#72581c;stroke-width:1;stroke-linecap:round;stroke-linejoin:round;stroke-opacity:1" />
    <path
       d="m 300.52972,163.48599 c -21.36037,0 -40.35119,4.77578 -40.35119,10.66454 0,0.73094 -0.28565,1.44317 0.22308,2.13291 2.72382,-5.15555 21.04404,-9.12833 40.49629,-9.12833 18.70866,0 34.69999,3.6647 38.29019,8.53163 0.26198,-0.50091 0.0386,-1.0154 0.0386,-1.53621 0,-5.88876 -17.3367,-10.66454 -38.69706,-10.66454 z"
       id="path920"
       style="fill:#cd9f32;stroke:#72581c;stroke-width:1;stroke-linecap:round;stroke-linejoin:round;stroke-opacity:1" />
    <path
       d="m 299.62894,279.65253 c -40.76588,0 -73.8449,7.9141 -73.8449,17.66503 0,0.90844 0.27963,1.79586 0.83341,2.66749 5.39047,-8.48424 36.04354,-14.99754 73.01149,-14.99754 36.96796,0 67.63366,6.5133 73.02412,14.99754 0.55379,-0.87163 0.8334,-1.75905 0.8334,-2.66749 0,-9.75093 -33.09163,-17.66503 -73.85752,-17.66503 z"
       id="path922"
       style="fill:#cd9f32;stroke:#72581c;stroke-width:1;stroke-linecap:round;stroke-linejoin:round;stroke-opacity:1" />
  </g>
  <use
     x="0"
     y="0"
     xlink:href="#bell"
     id="use6352"
     transform="translate(175,70)"
     width="100%"
     height="100%" />
  <use
     x="0"
     y="0"
     xlink:href="#bell"
     id="use6354"
     transform="translate(-175,-70)"
     width="100%"
     height="100%" />
  <use
     id="shine"
     fill="url(#rg)"
     stroke="#000"
     stroke-width="3"
     xlink:href="#shield" />
</svg>
