<?xml version="1.0" encoding="UTF-8"?>
<svg xmlns="http://www.w3.org/2000/svg" xmlns:xlink="http://www.w3.org/1999/xlink" width="600" height="660">
<defs>
  <radialGradient id="rg" gradientUnits="userSpaceOnUse" cx="220" cy="220" r="405">
    <stop style="stop-color:#fff;stop-opacity:.3" offset="0"/>
    <stop style="stop-color:#fff;stop-opacity:.2" offset=".2"/>
    <stop style="stop-color:#666;stop-opacity:.1" offset=".6"/>
    <stop style="stop-color:#000;stop-opacity:.13" offset="1"/>
  </radialGradient>
  <path id="shield" d="m2,2v257c0,286 298,398 298,398c0,0 298-112 298-398V2z"/>
  <g id="green" style="stroke:#330000;stroke-width:1;stroke-linecap:round;stroke-linejoin:round;">
    <path style="fill:#ffff8a;" d="m 318.4,89.51 c -4.7,5.25 -5.6,13.59 -1.8,18.19 3.9,4.5 5,7.3 5.2,14.1 0.3,8.5 -2,8.6 -7.1,13.5 -4.3,4.2 -9.3,8.7 -8.1,16 1,6.2 2.2,11.8 6.9,16 2,1.8 4,4.2 5.6,10.8 l -25,-10.1 -19.8,6.4 c 2.3,-8.6 10.1,-20.6 9.3,-29.7 -0.8,-8.4 -9.6,-11.5 -12.2,-19.4 -2.5,-7.4 -1.4,-14.6 4.9,-19.8 6.6,-5.4 5.7,-16.11 2.6,-22.34 -3.3,-6.7 -9.5,-18.11 -6.9,-26.45 l 55.8,15.51 c -1.8,8.59 -3.6,10.82 -9.4,17.29 z" />
    <path style="fill:#33aa33;" d="m 272,56.71 c -4.4,15.44 3.5,16.14 6.7,18.92 6.9,5.92 5.1,10.66 9.9,10.39 4.6,-0.27 5.5,-2.82 8.7,-0.24 4.1,3.26 8.4,1.53 12.8,1.06 4.4,-0.47 7,0.98 7.2,-4.39 0.2,-5.88 3,-4.07 6.6,-5.44 4.9,-1.89 5.9,-10.04 0.9,-12.35 -4.8,-2.15 -0.3,-4.19 -3.5,-6.66 -6.5,1.29 -13.7,3.37 -21.6,6.35 -10.3,-4.16 -19.5,-6.63 -27.7,-7.64 z m 20.8,106.59 c -3.7,0 -7.4,0.5 -9.2,2.9 -2.4,3.3 -5.7,3.9 -8.4,6.8 -1.6,1.9 -1.2,3.7 0.2,5 6.7,-0.5 13.8,-2.5 21.4,-6.3 2.2,-1.1 3.8,-0.9 5.1,0 5.8,3.9 11.6,5.9 17.2,6.4 -0.2,-1.7 -3.5,-3.7 -6.8,-5 -6.2,-2.4 -6.5,-9.2 -13.5,-9.5 -1.7,-0.1 -3.8,-0.3 -6,-0.3 z" />
    <path style="fill:#550000;" d="m 304.1,75.91 c -3.2,-14.58 -7.4,-30.49 -5.7,-45.07 -0.5,-1.69 -1.2,-3.25 -5,-3.49 -1.5,16.03 0.3,32.18 4.7,48.21" />
    <path style="fill:none;" d="m 293.4,27.35 c 0.7,1.45 1.5,2.75 5,3.49" />
    <path style="fill:none;" d="m 287.4,72.66 c 6.3,2.9 19,4.93 25.3,1.33" />
    <path style="fill:#800000;" d="m 300.2,114.8 c -0.2,1.7 -0.4,3.4 -0.6,5.1 0.1,1.7 -0.2,2.8 -0.2,4.5 0.1,1.4 -0.6,4.3 1.8,3.7 1.7,-1 2.4,-3.2 2.5,-5 0.6,-2 -1.5,-3.3 -1.4,-5.2 0.2,-1.4 -1.2,-2.4 -1.7,-3.2 l -0.2,0.1 z m -14.7,0.6 c -0.1,1.8 -0.6,3.6 -1.3,5.3 -0.2,1.9 -2,3.7 -1.2,5.6 1.3,1 3.5,1 4.7,-0.1 0.6,-1.2 0.6,-2.6 0.5,-3.9 0,-2.4 0,-4.8 0,-7.1 -0.8,-1.1 -1.8,0.2 -2.7,0.2 z" />
  </g>
  <g id="red" style="stroke:#330000;stroke-width:1;stroke-linecap:round;stroke-linejoin:round;">
    <path style="fill:#ffff8a;" d="m 318.4,89.51 c -4.7,5.25 -5.6,13.59 -1.8,18.19 3.9,4.5 5,7.3 5.2,14.1 0.3,8.5 -2,8.6 -7.1,13.5 -4.3,4.2 -9.3,8.7 -8.1,16 1,6.2 2.2,11.8 6.9,16 2,1.8 4,4.2 5.6,10.8 l -25,-10.1 -19.8,6.4 c 2.3,-8.6 10.1,-20.6 9.3,-29.7 -0.8,-8.4 -9.6,-11.5 -12.2,-19.4 -2.5,-7.4 -1.4,-14.6 4.9,-19.8 6.6,-5.4 5.7,-16.11 2.6,-22.34 -3.3,-6.7 -9.5,-18.11 -6.9,-26.45 l 55.8,15.51 c -1.8,8.59 -3.6,10.82 -9.4,17.29 z" />
    <path style="fill:#dd0000;" d="m 272,56.71 c -4.4,15.44 3.5,16.14 6.7,18.92 6.9,5.92 5.1,10.66 9.9,10.39 4.6,-0.27 5.5,-2.82 8.7,-0.24 4.1,3.26 8.4,1.53 12.8,1.06 4.4,-0.47 7,0.98 7.2,-4.39 0.2,-5.88 3,-4.07 6.6,-5.44 4.9,-1.89 5.9,-10.04 0.9,-12.35 -4.8,-2.15 -0.3,-4.19 -3.5,-6.66 -6.5,1.29 -13.7,3.37 -21.6,6.35 -10.3,-4.16 -19.5,-6.63 -27.7,-7.64 z m 20.8,106.59 c -3.7,0 -7.4,0.5 -9.2,2.9 -2.4,3.3 -5.7,3.9 -8.4,6.8 -1.6,1.9 -1.2,3.7 0.2,5 6.7,-0.5 13.8,-2.5 21.4,-6.3 2.2,-1.1 3.8,-0.9 5.1,0 5.8,3.9 11.6,5.9 17.2,6.4 -0.2,-1.7 -3.5,-3.7 -6.8,-5 -6.2,-2.4 -6.5,-9.2 -13.5,-9.5 -1.7,-0.1 -3.8,-0.3 -6,-0.3 z" />
    <path style="fill:#550000;" d="m 304.1,75.91 c -3.2,-14.58 -7.4,-30.49 -5.7,-45.07 -0.5,-1.69 -1.2,-3.25 -5,-3.49 -1.5,16.03 0.3,32.18 4.7,48.21" />
    <path style="fill:none;" d="m 293.4,27.35 c 0.7,1.45 1.5,2.75 5,3.49" />
    <path style="fill:none;" d="m 287.4,72.66 c 6.3,2.9 19,4.93 25.3,1.33" />
    <path style="fill:#800000;" d="m 300.2,114.8 c -0.2,1.7 -0.4,3.4 -0.6,5.1 0.1,1.7 -0.2,2.8 -0.2,4.5 0.1,1.4 -0.6,4.3 1.8,3.7 1.7,-1 2.4,-3.2 2.5,-5 0.6,-2 -1.5,-3.3 -1.4,-5.2 0.2,-1.4 -1.2,-2.4 -1.7,-3.2 l -0.2,0.1 z m -14.7,0.6 c -0.1,1.8 -0.6,3.6 -1.3,5.3 -0.2,1.9 -2,3.7 -1.2,5.6 1.3,1 3.5,1 4.7,-0.1 0.6,-1.2 0.6,-2.6 0.5,-3.9 0,-2.4 0,-4.8 0,-7.1 -0.8,-1.1 -1.8,0.2 -2.7,0.2 z" />
  </g>
</defs>
<use id="shine" xlink:href="#shield" fill="#ffffff"/>
<path style="fill:#ffdd00" d="M 2 2 L 2 200 L 598 200 L 598 2 L 2 2 z " />
<use xlink:href="#red" transform="translate(175,0)"/>
<use xlink:href="#green"/>
<use xlink:href="#red" transform="translate(-175,0)"/>
<path id="paw" transform="translate(0,110)" style="fill:#884411;" d="m 173.08835,264.05163 c 6.96086,-2.79355 13.91305,-5.63913 21.78426,-2.97058 -8.34207,-12.69794 -9.69175,-33.78677 -13.86271,-51.49005 -3.98972,17.47894 -9.2479,34.32365 -7.92155,54.46063 z m 48.25434,-60.3132 c 9.6581,-4.65119 16.73122,-3.89739 22.77445,-0.9902 -5.13811,-15.27825 -8.72041,-31.5937 -9.90193,-49.50967 -6.3173,14.80683 -10.84338,31.40488 -12.87252,50.49987 z m 185.66126,40.47415 c 7.62427,-2.14319 14.81868,0.0121 21.78426,4.45587 1.41533,-15.95611 1.18631,-32.24108 -3.96078,-49.50967 -4.22164,14.15818 -3.90173,26.04557 -17.82348,45.0538 z M 354.56006,202.7005 c 10.79498,-2.99669 15.96181,0.61366 22.19019,2.97781 0.49101,-18.3783 -2.65485,-36.42584 -9.42523,-54.14372 -2.27238,18.38742 -4.26328,36.96396 -12.76496,51.16591 z m -57.46757,-68.52316 c -5.12038,15.17859 -9.6841,30.91384 -10.89214,50.00477 8.80113,-4.35359 16.09146,-3.51664 23.26955,-0.99019 -1.52797,-16.9377 -6.60487,-33.05641 -12.37741,-49.01458 z m -83.39094,164.82551 a 34.658538,21.508018 79.025022 0 1 -14.51634,38.11935 34.658538,21.508018 79.025022 0 1 -27.71296,-29.92995 34.658538,21.508018 79.025022 0 1 14.51635,-38.11935 34.658538,21.508018 79.025022 0 1 27.71295,29.92995 z m 45.02658,-54.92275 a 36.759055,20.758209 83.628886 0 1 -16.55094,38.83553 36.759055,20.758209 83.628886 0 1 -24.70908,-34.22854 36.759055,20.758209 83.628886 0 1 16.55093,-38.83553 36.759055,20.758209 83.628886 0 1 24.70909,34.22854 z m 165.93933,52.66228 a 21.553935,37.459226 16.850435 0 1 -31.48698,29.60297 21.553935,37.459226 16.850435 0 1 -9.77005,-42.09884 21.553935,37.459226 16.850435 0 1 31.48698,-29.60297 21.553935,37.459226 16.850435 0 1 9.77005,42.09884 z m -46.18784,-46.49119 a 21.35526,37.459226 10.434286 0 1 -27.78627,32.97217 21.35526,37.459226 10.434286 0 1 -14.21796,-40.70737 21.35526,37.459226 10.434286 0 1 27.78627,-32.97218 21.35526,37.459226 10.434286 0 1 14.21796,40.70738 z m -57.06099,-24.87277 a 23.105691,36.058884 0 0 1 -23.10569,36.05889 23.105691,36.058884 0 0 1 -23.10569,-36.05889 23.105691,36.058884 0 0 1 23.10569,-36.05888 23.105691,36.058884 0 0 1 23.10569,36.05888 z m -26.49703,51.04459 c 54.60595,2.1704 41.61682,27.87017 63.59202,48.44911 17.4063,16.30034 63.31791,12.18252 55.23119,60.47217 -4.62057,27.59155 -45.07515,42.22085 -69.41307,28.42559 -40.74741,-23.09653 -56.24423,-17.47775 -90.99826,-2.68056 -21.46515,9.13919 -58.95995,6.70348 -67.57342,-22.00391 -8.1694,-27.2274 23.82065,-33.29146 41.36847,-51.22918 18.79102,-19.20855 13.0493,-63.6091 67.79307,-61.43322 z"/>
<use id="shine" xlink:href="#shield" fill="url(#rg)" stroke="#000" stroke-width="3"/>
</svg>
