<?xml version="1.0" encoding="UTF-8"?>
<svg xmlns="http://www.w3.org/2000/svg" xmlns:xlink="http://www.w3.org/1999/xlink" width="600" height="660">
<defs>
  <radialGradient id="rg" gradientUnits="userSpaceOnUse" cx="220" cy="220" r="405">
    <stop style="stop-color:#ffffff;stop-opacity:.3" offset="0"/>
    <stop style="stop-color:#ffffff;stop-opacity:.2" offset=".2"/>
    <stop style="stop-color:#666666;stop-opacity:.1" offset=".6"/>
    <stop style="stop-opacity:.13" offset="1"/>
  </radialGradient>
  <clipPath id="shield-clip">
    <path id="shield" d="m2,2v257c0,286 298,398 298,398c0,0 298-112 298-398V2z"/>
  </clipPath>
</defs>
<use id="bg" xlink:href="#shield" style="fill:#ffffff;"/>
<path clip-path="url(#shield-clip)" style="fill:#6dc4f9;" d="m 0,0 h 300 v 660 h 300 v -360 h -600 z"/>
<g id="hammer" style="stroke-width:1;stroke-linecap:round;stroke-linejoin:round;">
  <path style="fill:#c8ab37;stroke:#786721;" d="m 128.1,467.2 326.3,-367.32 c 2.1,-3.62 5.9,-3.57 8.6,0.11 l 21.8,18.51 c 2.7,1.8 3.2,5.5 1.2,9.1 l -319.5,372.9 c -4.7,5.4 -15.9,-0.2 -25.6,-9.4 -9.9,-7.4 -17.6,-18.5 -12.8,-23.9 z"/>
  <path style="fill:#b3b3b3;stroke:#666666;" d="m 351.9,144.1 c -5.2,-7.4 -7.3,-14.7 -2.7,-20.1 l 43.7,-50.41 c 4.8,-5.4 12.7,-3.48 19.6,0.25 21.5,13.03 39,26 56,40.76 16.9,14.8 32.2,31.4 48.3,49.8 5,7.4 7.3,14.7 2.7,20.1 l -43.8,50.4 c -4.7,5.4 -12.6,3.5 -19.5,-0.2 -21.5,-13 -39,-26 -56,-40.8 -17.1,-14.8 -32.2,-31.4 -48.3,-49.8 z"/>
</g>
<g id="feather" style="fill:#ffdd00;stroke:#a78b00;stroke-width:1;stroke-linecap:round;stroke-linejoin:round;">
  <path d="m 372.2,380.8 c 3.2,-6.9 6.6,-5.1 9.7,-20.4 -1.8,-1.8 -3.5,0.8 -6.4,3.3 2.9,-6.2 5.8,-10.4 5.9,-18.2 -1.8,-3.1 -2.7,-9 -4,-14.1 -3.4,-0.8 -4.2,-1.8 -6.9,3.4 0.4,-6.4 5.3,-13.5 0.9,-19.5 l -3.9,-10.4 c -3.1,-1.6 -3.8,1.7 -4.8,4.5 0.3,-4.9 2.7,-9.3 0.9,-15 -1,-5.4 -3.8,-11.5 -6.8,-17.9 -3.9,-0.6 -4.1,2.4 -4.1,5.8 -2.8,-22.4 0.3,-18.6 -11.3,-33.2 -3.7,0.7 -7.7,28.7 -8.8,31 -2.6,-9.4 3.8,-41.6 -0.2,-45.1 -16.9,-28.4 -1.3,-5.9 -23.1,-35.4 -3.3,-6.2 -2.1,5.4 -2.9,8.8 -2.3,-8 0.1,-13.1 -7,-23.9 l -8.9,-12.6 c -4,-5 -3.5,1.6 -4.6,3.7 -3.3,-6.8 -1.1,-12.7 -9.9,-20.4 l -10.8,-13 c -1.2,-3.3 -13,40.3 -15.7,41.6 0.4,-2.7 11.8,-40.5 0.8,-55 l -15.5,-11.5 c -4.7,-4.5 -1.3,2.7 -0.1,6.9 -5,-5 -1.8,-6.9 -18.7,-16.6 l -15.9,-10.33 1,6.53 c -4.6,-8.92 -13,-11.75 -21,-15.09 l -21.7,-0.63 c 2.8,5.7 9.5,14.52 7.1,32.72 0.4,-3.9 -5.5,-24.7 -14.5,-28.98 -9,-4.28 -17.4,-7 -26.4,-4.17 1.5,1.95 5.6,1.42 6.8,4.01 -25.4,-5.97 -54.33,24.74 -46.76,25.94 -3.71,7.7 -14.23,12.8 -5.7,25.1 3.19,10.2 2.28,5.4 9.74,7.4 3.34,2.2 0,5 -4.11,3 1.1,5.7 16.63,24.8 20.13,16.2 -1.1,2.2 -4.5,3.6 -3.9,5.5 2.3,6.8 17.5,11.1 20.4,8.4 l -4.3,4.6 c -2.3,5.3 18,20.1 23.7,17.9 -4.8,3.5 -0.1,2.3 -2.2,5.6 5.9,4.5 10.1,9.3 16.6,11.7 9.4,1.5 1.1,9.8 19.7,9.3 -3.5,1.6 0.7,-1.2 -4.9,3.9 11.1,4.2 2.3,10.7 26.7,12.7 -2.3,0.7 -2.6,3.8 -5.7,4.3 23.8,15.8 22.1,13.7 27.6,16.4 2.4,8.9 41.9,-0.1 49.2,-1.4 -19.5,8.3 -34.6,14 -45.1,10.4 3.8,3.4 6.6,7.8 11.8,9.6 2,4.6 13.5,3.4 19.7,5.1 -2.9,0.3 -13.4,0.2 -14.1,2.9 l 10.6,9.4 c 18.3,11 0.3,6 27.4,12.7 -3,0.7 -7.1,-0.1 -7.8,3.6 9.9,8.4 8.8,9.7 24.6,14.8 -3.7,0.7 -3.2,2 -3.9,2.9 0.7,4.2 4.9,6.2 8.5,8.4 2.6,5.2 9.4,2.5 14.1,3.7 -1.8,0.6 -3.2,1.4 -3.5,3.4 2.4,2.9 11.1,-0.1 16.9,-0.4 -6.6,2.8 -8.3,5.7 2.4,8.9 1.8,3.7 6.4,5.1 14.8,3.1 0.5,3.5 -3.5,2.6 -3.1,3.7 -5,0.9 2.7,4.6 7,7.5 l 9.1,2.5 c 3.8,3.8 10.1,0.2 15.2,0.4 z"/>
  <path style="fill:none;" d="m 192,168.4 c -14.2,-3.6 -26.8,3.7 -42,10.2 m 72.1,12.9 c -20,-3.1 -28.9,3.7 -42.2,6.8 m 64,18 c -12.8,-4.5 -19.3,-0.6 -28.6,-0.4 m 55.9,27.7 c -10.2,-6.7 -19.9,-5.2 -29.7,-5.6 m 60.1,38.3 c -11.1,-5 -20.8,-11.3 -34.6,-8.2 m 59.1,49 c -10.9,-7.1 -24.2,-15 -34.7,-15.6 m 57.7,48.8 c -8.3,-7.7 -21.7,-10.1 -31.3,-10.7 m -152.1,-218 c -1.3,11 17.3,38.8 29.2,46 m 11.7,-31.1 c -3.9,13.3 8.8,48.1 17.6,56.8 m 25.2,-9.3 c -4.9,11.9 -3.4,21.5 0.3,32.1 m 30.1,-6 c -4,9.1 -9.2,17.8 -2.5,32.2 m 73.4,76.8 c -1.9,5.6 -7.8,8.4 -2.8,18.1 m -15.2,-57 c -2.5,12 -7.1,18.8 -3.4,33 m -19.7,-72.3 c -6.4,13 -7.1,25 -4.7,36.6"/>
  <path style="fill:#e3c500;" d="m 439.4,466.1 c 5.3,10.2 8.5,20.4 0.5,20.3 -81.5,-131.1 -205.2,-320.9 -332.7,-360.9 121.6,18.3 259.5,227.6 332.2,340.6 z"/>
</g>
<use id="shine" xlink:href="#shield" style="fill:url(#rg);stroke:#000000;stroke-width:3;"/>
</svg>
