<?xml version="1.0" encoding="UTF-8"?>
<svg xmlns="http://www.w3.org/2000/svg" xmlns:xlink="http://www.w3.org/1999/xlink" width="600" height="660">
<defs>
  <radialGradient id="rg" gradientUnits="userSpaceOnUse" cx="220" cy="220" r="405">
    <stop style="stop-color:#fff;stop-opacity:.3" offset="0"/>
    <stop style="stop-color:#fff;stop-opacity:.2" offset=".2"/>
    <stop style="stop-color:#666;stop-opacity:.1" offset=".6"/>
    <stop style="stop-color:#000;stop-opacity:.13" offset="1"/>
  </radialGradient>
  <clipPath id="clip-shield">
    <path id="shield" d="m2,2v257c0,286 298,398 298,398c0,0 298-112 298-398V2z"/>
  </clipPath>
  <path id="lozenge" d="m 100,0 -100,130 100,130 100,-130 z"/>
  <g id="inkwell" style="fill:#bbbbbb;stroke:#555555;stroke-width:1;stroke-linecap:round;stroke-linejoin:round;">
    <path style="fill:#aaaaaa;" d="m 59.38891,87.17495 c 0,2.0755 1.4432,4.0403 4.0179,5.792 l 15.9923,4.3213 20.601,3.2257 20.601,-3.2257 15.9923,-4.3213 c 2.5747,-1.7517 4.0179,-3.7165 4.0179,-5.792 0,-7.367 -18.1821,-13.3391 -40.6111,-13.3391 -22.429,0 -40.6111,5.9721 -40.6111,13.3391 z"/>
    <path d="m 71.03001,148.06785 c -5.2665,3.5573 0.9743,24.396 -12.1779,28.0969 -2.0926,-2.7207 -6.4918,-1.2875 -6.4918,1.7954 0,1.5234 0.8706,3.7859 4.9908,3.7859 10.7494,0 13.4385,-10.0421 17.1957,-16.5333 6.9277,-11.9688 8.4069,-9.5901 12.2714,-10.1095"/>
    <path d="m 128.97091,148.06785 c 5.2665,3.5573 -0.9743,24.396 12.1779,28.0969 2.0926,-2.7207 6.4918,-1.2875 6.4918,1.7954 0,1.5234 -0.8706,3.7859 -4.9908,3.7859 -10.7494,0 -13.4385,-10.0421 -17.1957,-16.5333 -6.9277,-11.9688 -8.4069,-9.5901 -12.2714,-10.1095"/>
    <path style="fill:none;" d="m 63.49721,87.22765 c 0,-5.816 16.3429,-10.5308 36.5029,-10.5308 20.16,0 36.5029,4.7148 36.5029,10.5308"/>
    <path d="m 96.27381,160.50455 c -0.2351,5.3065 0.9683,13.4516 0.9683,21.0732 h 7.0011 c 0,-7.6217 1.2034,-15.7668 0.9683,-21.0732"/>
    <path d="m 100.74261,186.16415 c 6.588,0 5.2414,-6.9251 0,-6.9251 -5.2413,0 -6.588,6.9251 0,6.9251 z"/>
    <path d="m 100.00001,162.36615 c -53.9313,0 -62.4311,-63.2997 -36.5933,-80.9831 -2.5747,1.7517 -4.0179,3.7165 -4.0179,5.792 0,2.4303 5.4309,5.3764 8.2256,6.6356 l 11.7845,3.4777 20.601,3.2257 20.601,-3.2257 c 6.948,-1.3403 20.0101,-5.4519 20.0101,-10.1133 0,-2.0755 -1.4432,-4.0403 -4.0178,-5.792 25.8379,17.6834 17.3381,80.9831 -36.5932,80.9831 z"/>
    <path style="fill:#aaaaaa;" d="m 136.50301,87.22765 c 0,5.816 -16.3429,10.5834 -36.5029,10.5834 -20.16,0 -36.5029,-4.7675 -36.5029,-10.5834 m 77.1139,0 c 0,7.367 -18.1821,13.2864 -40.611,13.2864 -22.4289,0 -40.611,-5.9194 -40.611,-13.2864"/>
  </g>
</defs>
<g id="field" clip-path="url(#clip-shield)">
  <rect style="fill:#0000cc" x="0" y="0" width="600" height="660"/>
  <rect style="fill:#cc0000" x="0" y="0" width="300" height="660"/>
  <use xlink:href="#lozenge" style="fill:#000000;" x="0" y="0"/>
  <use xlink:href="#lozenge" style="fill:#ffffff;" x="200" y="0"/>
  <use xlink:href="#lozenge" style="fill:#000000;" x="400" y="0"/>
  <use xlink:href="#lozenge" style="fill:#ffffff;" x="0" y="260"/>
  <use xlink:href="#lozenge" style="fill:#000000;" x="200" y="260"/>
  <use xlink:href="#lozenge" style="fill:#ffffff;" x="400" y="260"/>
  <use xlink:href="#inkwell" x="0" y="0"/>
  <use xlink:href="#inkwell" x="200" y="260"/>
  <use xlink:href="#inkwell" x="400" y="0"/>
</g>
<g id="feather" style="fill:#eeeeee;stroke:#555555;stroke-width:1;stroke-linecap:round;stroke-linejoin:round;">
  <path d="m 213.60475,379.97714 c -3.93433,-6.42771 -7.14181,-4.40081 -11.80884,-19.28838 1.63166,-2.02454 3.47706,0.45952 6.68011,2.63606 -3.47343,-5.84712 -6.83699,-9.7324 -7.81835,-17.47514 1.58138,-3.28778 1.85646,-9.26008 2.52265,-14.42868 3.31528,-1.13321 3.97945,-2.26018 7.23389,2.69553 -0.97721,-6.43372 -6.66614,-12.91816 -2.93167,-19.30111 l 2.82257,-10.79529 c 2.90398,-1.94801 3.91971,1.30284 5.15375,3.95271 -0.77705,-4.91599 -3.60451,-8.97139 -2.33115,-14.74794 0.32946,-5.54417 2.46608,-11.96771 4.79984,-18.48719 3.76569,-1.1301 4.33957,1.90144 4.6524,5.27341 0.54047,-22.64988 -2.1813,-18.54593 7.83811,-34.23281 3.67733,0.28725 10.59558,27.68594 11.98051,29.89572 1.59962,-9.61964 -8.20505,-40.97383 -4.61586,-44.9142 13.9078,-29.94448 0.70381,-5.91712 19.29054,-37.52365 2.64506,-6.49054 2.61217,5.08455 3.80706,8.37671 1.49532,-8.17529 -1.43474,-12.98444 4.48595,-24.52587 l 7.50503,-13.34297 c 3.44412,-5.39491 3.64325,1.12275 5.05366,3.19382 2.44808,-7.15466 -0.28035,-12.86904 7.59239,-21.46129 l 9.35215,-13.9726 c 0.94484,-3.43762 17.24993,38.67142 20.04414,39.70436 -0.75224,-2.59921 -16.0597,-39.01841 -6.56824,-54.60691 l 14.10555,-13.05547 c 4.24168,-5.035996 1.67766,2.5548 0.90078,6.82986 4.41446,-5.52397 1.04844,-7.04319 16.8699,-18.438506 l 14.63511,-11.967187 -0.28756,6.60053 c 3.71555,-9.369004 11.71063,-13.056728 19.34667,-17.221028 l 21.59154,-2.913579 c -2.23659,5.964148 -8.01007,15.470241 -3.74245,33.286714 -0.74394,-3.8187 2.94407,-25.136471 11.44093,-30.329007 8.53499,-5.215827 16.59958,-8.807692 25.7781,-6.921136 -1.25723,2.092547 -5.39715,1.993308 -6.32936,4.695156 24.61516,-8.597631 56.60058,18.896846 49.21037,20.909987 4.5692,7.20805 15.58207,11.21404 8.33244,24.295216 -2.12177,10.50405 -1.67011,5.67474 -8.93127,8.38789 -3.02883,2.51164 0.57887,5.01264 4.44057,2.64763 -0.46527,5.64241 -13.93846,26.42631 -18.2876,18.1731 1.28007,1.98764 4.7647,3.15578 4.37002,4.98326 -1.51224,7.00193 -16.15108,12.88844 -19.35006,10.4968 l 4.80007,4.1918 c 2.76084,5.07324 -15.84308,21.83292 -21.72288,20.27916 5.03785,2.94753 0.29544,2.24093 2.80258,5.37859 -5.44557,5.05984 -9.16077,10.24889 -15.35582,13.38458 -9.17638,2.44243 -0.0425,9.77133 -18.53807,11.26818 3.55771,1.25167 -0.8337,-1.13661 5.31552,3.31207 -10.63578,5.43187 -1.22397,10.96589 -25.20238,15.52002 2.27563,0.36585 2.82467,3.46744 6.10451,3.60974 -22.04206,18.275 -20.64222,15.98733 -25.89182,19.25545 -1.33125,9.1237 -41.55335,4.30389 -48.91056,3.70367 20.14386,6.25636 35.7642,10.29998 45.84414,5.62634 -3.35392,3.78388 -5.64035,8.53413 -10.67919,10.79272 -1.49064,4.80362 -13.13505,4.77657 -19.14778,7.25794 2.96337,-0.0248 13.48462,-1.23669 14.45681,1.33474 l -9.65109,10.38223 c -16.99172,12.91668 0.36071,6.07096 -25.89785,15.55771 2.99842,0.41556 6.98583,-0.85717 8.08911,2.79348 -8.89648,9.35602 -7.6304,10.61487 -22.81155,17.29197 3.77772,0.25818 3.34239,1.5554 4.19466,2.53506 -0.29969,4.15012 -4.23397,6.51368 -7.67608,9.11916 -1.98879,5.5112 -9.04274,3.53523 -13.58867,5.26653 1.77893,0.34861 3.31758,1.01056 3.86531,2.96452 -2.17489,3.10669 -11.02464,1.0941 -16.79523,1.44308 6.74755,2.06967 8.73391,4.76728 -1.50504,9.07733 -1.4403,3.8231 -5.81875,5.65538 -14.44765,4.60779 -0.0919,3.45972 3.80927,2.17698 3.53594,3.39395 5.06608,0.28197 -2.19236,4.76513 -6.25842,8.16011 l -8.80616,3.47767 c -3.29907,4.10909 -9.97115,1.28656 -14.95673,1.92984 z"/>
  <path style="fill:none;" d="m 370.52642,149.79167 c 13.67631,-4.95356 27.01313,0.91177 42.80459,5.81907 m -70.34842,20.35217 c 19.4927,-5.19703 29.16035,0.68294 42.61286,2.2958 m -61.6924,24.63358 c 12.24484,-5.74777 19.11235,-2.59769 28.36104,-3.38768 m -52.64873,33.41617 c 9.40171,-7.70606 19.25107,-7.18616 28.99206,-8.65729 m -55.82344,44.48635 c 10.48677,-6.21081 19.48741,-13.54521 33.64926,-11.80605 m -53.72341,54.8248 c 10.13263,-8.15382 22.44871,-17.44818 32.93155,-19.16624 m -52.30635,54.616 c 7.45064,-8.49734 20.57325,-12.27109 29.95081,-13.88711 m 128.43521,-232.82247 c 2.51497,10.75597 -13.14618,40.35619 -24.19714,48.88997 m -14.91337,-29.67606 c 5.24213,12.77533 -3.71839,48.69914 -11.46771,58.2292 m -26.13523,-6.51281 c 6.13274,11.28361 5.70932,21.00476 3.07671,31.90651 m -30.5571,-2.87155 c 4.96993,8.73287 11.04203,16.77821 5.9186,31.80766 m -64.98337,84.16356 c 2.44929,5.20709 8.64252,7.43854 4.78561,17.6577 m 9.04976,-58.32523 c 3.66414,11.74861 8.96921,17.91379 6.83393,32.52088 m 12.00539,-74.04444 c 7.71673,12.1984 9.66714,24.14565 8.6034,35.96153"/>
  <path style="fill:#bbbbbb;" d="m 155.72157,471.87212 c -4.17382,10.70341 -6.28033,21.09456 1.5398,20.2691 67.3244,-138.90912 170.43274,-340.69936 293.00665,-393.887106 -118.98631,30.911956 -234.1403,253.678756 -294.54645,373.618006 z"/>
</g>
<use id="shine" xlink:href="#shield" fill="url(#rg)" stroke="#000" stroke-width="3"/>
</svg>
