<?xml version="1.0" encoding="UTF-8"?>
<svg xmlns="http://www.w3.org/2000/svg" xmlns:xlink="http://www.w3.org/1999/xlink" width="600" height="660">
<defs>
  <radialGradient id="rg" gradientUnits="userSpaceOnUse" cx="220" cy="220" r="405">
    <stop style="stop-color:#fff;stop-opacity:.3" offset="0"/>
    <stop style="stop-color:#fff;stop-opacity:.2" offset=".2"/>
    <stop style="stop-color:#666;stop-opacity:.1" offset=".6"/>
    <stop style="stop-color:#000;stop-opacity:.13" offset="1"/>
  </radialGradient>
  <path id="shield" d="m2,2v257c0,286 298,398 298,398c0,0 298-112 298-398V2z"/>
</defs>
<use id="background" xlink:href="#shield" fill="#bbb"/>
<path fill="#eee" d="M 300 2 L 300 657 C 300 657 598 545 598 259 L 598 2 L 300 2 z"/>
<use id="shine" xlink:href="#shield" fill="url(#rg)" stroke="#000" stroke-width="3"/>
<path fill="#fff" d="m354.416,484.645 c0,27.962 -23.8074,50.6957 -53.1698,50.6957 c-29.3158,0 -53.1698,-22.7337 -53.1698,-50.6957 c0,-27.962 23.8541,-50.6958 53.1698,-50.6958 c29.3624,0 53.1698,22.7337 53.1698,50.6958 z m-49.5754,-416.116 l6.25528,0 c35.1042,0 64.42,9.33623 87.8073,27.8687 c23.6207,18.5324 35.4777,43.1334 35.4777,73.8029 c0,21.0065 -4.34135,38.792 -12.9774,53.4033 c-8.44929,14.4245 -23.574,31.4631 -45.2341,51.0692 c-21.4733,19.5594 -35.3843,35.7111 -41.873,48.6884 c-6.48868,12.9774 -9.75636,27.1684 -9.75636,42.6199 c0,3.26768 1.4938,11.9504 4.52807,25.9547 l-62.1793,0 l-6.11523,-15.7316 c-3.45441,-9.10282 -5.22829,-16.9919 -5.22829,-23.8074 c0,-12.9774 1.86725,-25.3946 5.50838,-37.3449 c3.92122,-11.9504 9.56964,-23.1072 16.9453,-33.377 c7.37562,-10.5033 21.9401,-27.2151 43.6002,-50.0422 c21.8935,-22.8738 32.8169,-41.6396 32.8169,-56.4842 c0,-28.8023 -19.8395,-43.3201 -59.5185,-43.3201 c-19.2793,0 -39.3522,9.24287 -60.3587,27.5886 l-33.5637,-59.6585 c26.6549,-19.8395 61.2924,-30.2961 103.866,-31.2297 z"/>
</svg>