<?xml version="1.0" encoding="UTF-8" standalone="no"?>
<svg
   xmlns:dc="http://purl.org/dc/elements/1.1/"
   xmlns:cc="http://creativecommons.org/ns#"
   xmlns:rdf="http://www.w3.org/1999/02/22-rdf-syntax-ns#"
   xmlns:svg="http://www.w3.org/2000/svg"
   xmlns="http://www.w3.org/2000/svg"
   xmlns:xlink="http://www.w3.org/1999/xlink"
   xmlns:sodipodi="http://sodipodi.sourceforge.net/DTD/sodipodi-0.dtd"
   xmlns:inkscape="http://www.inkscape.org/namespaces/inkscape"
   width="600"
   height="660"
   id="svg2"
   version="1.1"
   inkscape:version="0.48.2 r9819"
   sodipodi:docname="House_Caron_(Pearse).svg">
  <metadata
     id="metadata24">
    <rdf:RDF>
      <cc:Work
         rdf:about="">
        <dc:format>image/svg+xml</dc:format>
        <dc:type
           rdf:resource="http://purl.org/dc/dcmitype/StillImage" />
        <dc:title />
      </cc:Work>
    </rdf:RDF>
  </metadata>
  <sodipodi:namedview
     pagecolor="#ffffff"
     bordercolor="#666666"
     borderopacity="1"
     objecttolerance="10"
     gridtolerance="10"
     guidetolerance="10"
     inkscape:pageopacity="0"
     inkscape:pageshadow="2"
     inkscape:window-width="1366"
     inkscape:window-height="715"
     id="namedview22"
     showgrid="false"
     inkscape:zoom="0.35757577"
     inkscape:cx="-334.12275"
     inkscape:cy="133.58323"
     inkscape:window-x="-8"
     inkscape:window-y="-8"
     inkscape:window-maximized="1"
     inkscape:current-layer="layer2" />
  <defs
     id="defs4">
    <radialGradient
       id="rg"
       gradientUnits="userSpaceOnUse"
       cx="220"
       cy="220"
       r="405">
      <stop
         style="stop-color:#fff;stop-opacity:.3"
         offset="0"
         id="stop7" />
      <stop
         style="stop-color:#fff;stop-opacity:.2"
         offset=".2"
         id="stop9" />
      <stop
         style="stop-color:#666;stop-opacity:.1"
         offset=".6"
         id="stop11" />
      <stop
         style="stop-color:#000;stop-opacity:.13"
         offset="1"
         id="stop13" />
    </radialGradient>
    <path
       id="shield"
       d="m2,2v257c0,286 298,398 298,398c0,0 298-112 298-398V2z" />
    <radialGradient
       inkscape:collect="always"
       xlink:href="#rg-7"
       id="radialGradient3055-1"
       gradientUnits="userSpaceOnUse"
       cx="220"
       cy="220"
       r="405" />
    <radialGradient
       id="rg-7"
       gradientUnits="userSpaceOnUse"
       cx="220"
       cy="220"
       r="405">
      <stop
         style="stop-color:#fff;stop-opacity:.3"
         offset="0"
         id="stop7-4" />
      <stop
         style="stop-color:#fff;stop-opacity:.2"
         offset=".2"
         id="stop9-0" />
      <stop
         style="stop-color:#666;stop-opacity:.1"
         offset=".6"
         id="stop11-9" />
      <stop
         style="stop-color:#000;stop-opacity:.13"
         offset="1"
         id="stop13-4" />
    </radialGradient>
    <radialGradient
       r="405"
       cy="220"
       cx="220"
       gradientUnits="userSpaceOnUse"
       id="radialGradient3074"
       xlink:href="#rg-7"
       inkscape:collect="always" />
    <inkscape:path-effect
       is_visible="true"
       id="path-effect10120-1"
       effect="spiro" />
    <inkscape:path-effect
       effect="spiro"
       id="path-effect10118-3"
       is_visible="true" />
    <inkscape:path-effect
       effect="spiro"
       id="path-effect10116-9"
       is_visible="true" />
    <inkscape:path-effect
       effect="spiro"
       id="path-effect10114-7"
       is_visible="true" />
    <inkscape:path-effect
       effect="spiro"
       id="path-effect10112-7"
       is_visible="true" />
    <inkscape:path-effect
       effect="spiro"
       id="path-effect10110-2"
       is_visible="true" />
    <linearGradient
       inkscape:collect="always"
       xlink:href="#linearGradient4719-5"
       id="linearGradient4039"
       gradientUnits="userSpaceOnUse"
       gradientTransform="matrix(2.3257341,0,0,2.2943177,447.69485,-1820.2799)"
       x1="-145.25935"
       y1="984.24286"
       x2="-64.14286"
       y2="984.14789" />
    <linearGradient
       inkscape:collect="always"
       id="linearGradient4719-5">
      <stop
         style="stop-color:#666666;stop-opacity:1;"
         offset="0"
         id="stop4721-5" />
      <stop
         id="stop4809-1"
         offset="0.39344174"
         style="stop-color:#666666;stop-opacity:0.74901961;" />
      <stop
         style="stop-color:#666666;stop-opacity:0;"
         offset="1"
         id="stop4723-7" />
    </linearGradient>
    <radialGradient
       inkscape:collect="always"
       xlink:href="#linearGradient4801-8"
       id="radialGradient4041"
       gradientUnits="userSpaceOnUse"
       gradientTransform="matrix(-0.72153181,1.2650715,-2.2729984,-1.2616144,1712.0113,1733.7841)"
       cx="-307.14288"
       cy="782.36218"
       fx="-307.14288"
       fy="782.36218"
       r="63" />
    <linearGradient
       inkscape:collect="always"
       id="linearGradient4801-8">
      <stop
         style="stop-color:#000000;stop-opacity:1;"
         offset="0"
         id="stop4803-2" />
      <stop
         style="stop-color:#000000;stop-opacity:0;"
         offset="1"
         id="stop4805-4" />
    </linearGradient>
    <inkscape:path-effect
       effect="spiro"
       id="path-effect10108-4"
       is_visible="true" />
    <linearGradient
       inkscape:collect="always"
       xlink:href="#linearGradient4719-5"
       id="linearGradient4044"
       gradientUnits="userSpaceOnUse"
       gradientTransform="matrix(-2.4055369,0,0,-1.6485021,142.06168,1726.5307)"
       x1="-145.25935"
       y1="984.24286"
       x2="-64.14286"
       y2="984.14789" />
    <radialGradient
       inkscape:collect="always"
       xlink:href="#linearGradient4801-8"
       id="radialGradient4046"
       gradientUnits="userSpaceOnUse"
       gradientTransform="matrix(0.74628962,-0.90897301,2.3509914,0.90648896,-1165.637,-827.11785)"
       cx="-307.14288"
       cy="782.36218"
       fx="-307.14288"
       fy="782.36218"
       r="63" />
    <inkscape:path-effect
       effect="spiro"
       id="path-effect10102-7"
       is_visible="true" />
    <linearGradient
       inkscape:collect="always"
       xlink:href="#linearGradient4719-5"
       id="linearGradient4049"
       gradientUnits="userSpaceOnUse"
       gradientTransform="matrix(2.334989,0,0,-1.6146975,449.44065,1692.189)"
       x1="-145.25935"
       y1="984.24286"
       x2="-64.14286"
       y2="984.14789" />
    <radialGradient
       inkscape:collect="always"
       xlink:href="#linearGradient4801-8"
       id="radialGradient4051"
       gradientUnits="userSpaceOnUse"
       gradientTransform="matrix(-0.72440295,-0.89033332,-2.2820431,0.88790031,1718.7881,-809.09364)"
       cx="-307.14288"
       cy="782.36218"
       fx="-307.14288"
       fy="782.36218"
       r="63" />
    <inkscape:path-effect
       is_visible="true"
       id="path-effect10096-8"
       effect="spiro" />
    <linearGradient
       inkscape:collect="always"
       xlink:href="#linearGradient4719-5"
       id="linearGradient4054"
       gradientUnits="userSpaceOnUse"
       gradientTransform="matrix(-2.409599,0,0,2.2818507,139.61083,-1810.8163)"
       x1="-145.25935"
       y1="984.24286"
       x2="-64.14286"
       y2="984.14789" />
    <radialGradient
       inkscape:collect="always"
       xlink:href="#linearGradient4801-8"
       id="radialGradient4056"
       gradientUnits="userSpaceOnUse"
       gradientTransform="matrix(0.74754985,1.2581972,2.3549614,-1.2547588,-1170.296,1723.935)"
       cx="-307.14288"
       cy="782.36218"
       fx="-307.14288"
       fy="782.36218"
       r="63" />
    <inkscape:path-effect
       is_visible="true"
       id="path-effect10090-3"
       effect="spiro" />
    <inkscape:path-effect
       effect="spiro"
       id="path-effect10084-1"
       is_visible="true" />
    <inkscape:path-effect
       effect="spiro"
       id="path-effect10082-1"
       is_visible="true" />
    <radialGradient
       inkscape:collect="always"
       xlink:href="#linearGradient4801-8"
       id="radialGradient4061"
       gradientUnits="userSpaceOnUse"
       gradientTransform="matrix(-0.76516322,1.2901254,-2.4104477,-1.2865998,1806.8444,1757.4704)"
       cx="-307.14288"
       cy="782.36218"
       fx="-307.14288"
       fy="782.36218"
       r="63" />
    <inkscape:path-effect
       effect="spiro"
       id="path-effect10080-4"
       is_visible="true" />
  </defs>
  <g
     inkscape:groupmode="layer"
     id="layer2"
     inkscape:label="Elements"
     style="display:inline">
    <use
       height="1052.3622"
       width="744.09448"
       y="0"
       x="0"
       xlink:href="#shield"
       id="use16"
       style="fill:#ffff00" />
    <g
       transform="matrix(2.5580971,0,0,2.557979,-448.27796,-81.429488)"
       id="harp"
       style="fill:#dddddd;stroke:#888888;stroke-width:0.97731149;stroke-miterlimit:4;stroke-dasharray:none">
      <path
         inkscape:connector-curvature="0"
         d="m 268.14849,67.161498 c -1.064,1.064693 -4.2633,4.350714 -6.3381,7.383073 -2.5192,3.681837 -9.277,11.741449 -13.9276,19.686619 -19.6,33.48311 -19.4702,89.51387 3.2295,121.38242 7.7608,10.89504 7.2098,8.91955 9.5354,13.95789 2.3254,5.03834 3.1004,6.97601 3.2942,9.68901 0.5174,7.24564 -4.8018,2.53025 -7.9452,4.26349 -6.3663,3.50969 1.911,9.63 6.5315,8.04918 0,0 -2.1371,4.60633 3.065,3.34276 5.202,-1.26358 11.7197,-3.64092 16.9521,-9.45426 5.2321,-5.81351 6.3948,-8.13901 7.5575,-10.46451 1.1626,-2.32533 1.5503,-3.488 1.5503,-3.488 0,0 -6.5887,-3.488 -15.1152,-14.14634 -8.5263,-10.65784 -15.309,-19.76585 -20.9285,-41.46936 -5.6198,-21.70401 -3.2945,-34.49369 -1.163,-45.34553 2.1318,-10.85184 11.4333,-28.48618 16.0843,-35.268686 4.3801,-6.387827 10.1348,-11.572069 10.7893,-12.153566 -3.6561,-3.149572 -6.9279,-6.72463 -9.6419,-10.458959 l -0.056,-0.07629 c -0.149,-0.206059 -0.2964,-0.412281 -0.4423,-0.619155 l -0.1581,-0.225622 0,-0.0065 c -0.1503,-0.215677 -0.2984,-0.431517 -0.4451,-0.648009 l -0.029,-0.04255 c -0.8682,-1.285423 -1.6687,-2.584214 -2.3951,-3.887081 z"
         id="path21"
         style="fill:#dddddd;stroke:#888888;stroke-width:0.97731149;stroke-miterlimit:4;stroke-dasharray:none" />
      <path
         inkscape:connector-curvature="0"
         d="m 282.50781,47.152344 -19.15234,19.419922 3.63476,3.90039 17.64454,-20.660156 -2.12696,-2.660156 z"
         id="path23"
         style="fill:#dddddd;stroke:#888888;stroke-width:0.97731149;stroke-miterlimit:4;stroke-dasharray:none" />
      <path
         inkscape:connector-curvature="0"
         d="m 356.05089,88.043716 c -1.0259,-24.666595 -20.8495,-17.533433 -31.7944,-13.056705 -10.406,4.256324 -21.9619,-4.595082 -39.3843,-25.725744 -5.7669,5.612336 -11.534,11.224834 -17.301,16.83668 8.6525,16.459612 29.4627,32.836572 48.6521,27.867681 12.2564,-3.173536 22.405,-11.777149 24.3003,-10.366363 1.1654,0.867437 0.7807,2.702894 0.7807,2.702894 5.6244,1.454313 9.754,2.053579 14.7466,1.741557 z"
         id="path25"
         style="fill:#dddddd;stroke:#888888;stroke-width:0.97731149;stroke-miterlimit:4;stroke-dasharray:none" />
      <path
         inkscape:connector-curvature="0"
         d="m 358.51429,98.00921 c 3.3516,-12.105475 -14.9146,-18.537971 -22.1009,-7.590111 0.2978,1.934901 0.5953,3.869475 0.8932,5.804375 4.8367,1.265045 9.6735,2.529928 14.5105,3.794976 2.2324,-0.669694 4.4648,-1.339386 6.6972,-2.00924 z"
         id="path27"
         style="fill:#dddddd;stroke:#888888;stroke-width:0.97731149;stroke-miterlimit:4;stroke-dasharray:none" />
      <path
         inkscape:connector-curvature="0"
         d="m 268.84439,207.107 68.0146,-117.803129 3.3488,4.911343 -59.8072,127.660696 c -1.2277,-1.33612 -2.5209,-2.83494 -3.8624,-4.51226 -2.7381,-3.42247 -5.2964,-6.68535 -7.6938,-10.25665 z"
         id="path29"
         style="fill:#dddddd;stroke:#888888;stroke-width:0.97731149;stroke-miterlimit:4;stroke-dasharray:none" />
      <path
         inkscape:connector-curvature="0"
         d="m 278.12579,219.29284 c 1.4447,-2.99584 59.2138,-122.774461 60.2363,-124.819726 2.3652,-4.73039 6.7487,-1.968483 6.0065,2.485586 -0.4141,2.48526 -6.6278,21.95425 -6.6278,21.95425 l -44.5298,105.83621 -3.2324,5.70379 c -2.2568,-1.55065 -6.6044,-4.95552 -11.8528,-11.16011 z"
         id="path31"
         style="fill:#dddddd;stroke:#888888;stroke-width:0.97731149;stroke-miterlimit:4;stroke-dasharray:none" />
      <path
         inkscape:connector-curvature="0"
         d="m 256.33039,101.21242 c -6.5288,8.60638 -10.611,21.13653 -12.1822,31.71253 -2.1325,14.35257 -1.6736,27.79172 0.6961,42.02756 1.1415,6.85977 3.7421,13.19608 5.9866,19.72444 -0.7888,2.48574 -1.578,4.97166 -2.3669,7.45773 -1.624,0.4413 -3.2484,0.88276 -4.8729,1.32439 -0.1392,-0.3487 -0.2784,-0.69708 -0.4178,-1.04546 -3.854,-7.71808 -6.2152,-16.01309 -7.9359,-24.46412 -3.4169,-16.78076 -4.3839,-37.12729 0.4179,-53.73688 2.5371,-8.77593 6.8125,-24.484178 12.9481,-30.945691 1.3457,-0.511072 2.6915,-1.022307 4.0375,-1.533379 1.2066,1.25445 2.4132,2.509388 3.6201,3.763837 0.023,1.904904 0.046,3.810134 0.07,5.715043 z"
         id="path33"
         style="fill:#dddddd;stroke:#888888;stroke-width:0.97731149;stroke-miterlimit:4;stroke-dasharray:none" />
      <path
         inkscape:connector-curvature="0"
         d="m 278.55929,219.69224 c -5.4397,11.17446 -11.1616,22.20905 -16.7424,33.31374 -0.9558,1.90197 1.6843,3.33411 2.7387,1.56419 2.1299,-3.57441 3.543,-7.67032 5.3863,-11.66385 3.612,-7.82617 6.4706,-14.98818 9.5786,-22.0788 0.714,-1.62858 -0.3955,-2.29713 -0.9612,-1.13528 z"
         id="path35"
         style="fill:#dddddd;stroke:#888888;stroke-width:0.97731149;stroke-miterlimit:4;stroke-dasharray:none" />
      <path
         inkscape:connector-curvature="0"
         d="m 266.68569,63.626381 c -1.2251,-1.237332 -1.2155,-3.23418 0.022,-4.459286 1.237,-1.225431 3.2339,-1.215813 4.4593,0.02119 l -4.4809,4.438093 z"
         id="path37"
         style="fill:#dddddd;stroke:#888888;stroke-width:0.97731149;stroke-miterlimit:4;stroke-dasharray:none" />
      <path
         inkscape:connector-curvature="0"
         d="m 276.44009,53.783153 c -1.2251,-1.237006 -1.2155,-3.233691 0.022,-4.459123 1.2372,-1.225105 3.234,-1.215487 4.4595,0.02152 l -4.481,4.437604 z"
         id="path39"
         style="fill:#dddddd;stroke:#888888;stroke-width:0.97731149;stroke-miterlimit:4;stroke-dasharray:none" />
      <path
         inkscape:connector-curvature="0"
         d="m 314.54399,231.79169 c 1.2425,-2.27855 35.8309,-105.83639 39.352,-117.22783 2.1448,-6.93933 9.0692,-19.121747 -0.01,-22.861457 -7.1119,-2.930145 -10.1047,4.398968 -12.4189,9.606037 -18.0326,40.57356 -32.8077,84.04874 -50.5365,124.26969 -0.4713,1.06893 -1.5831,3.17891 -0.9892,4.85102 1.0954,0.75463 1.7099,1.08018 1.7099,1.08018 0,0 -0.059,0.17851 -0.2016,0.53602 0.4641,0.24013 1.0425,0.43673 1.7593,0.57465 5.3851,1.03551 10.3556,0.41423 14.7052,1.44975 4.3496,1.03551 6.8348,-2.07103 6.6278,-2.27806 l 0,0 z"
         id="path41"
         style="fill:#dddddd;stroke:#888888;stroke-width:0.97731149;stroke-miterlimit:4;stroke-dasharray:none" />
      <path
         inkscape:connector-curvature="0"
         d="m 253.48799,85.81016 c 4.0682,4.068198 4.4699,10.188507 2.8876,15.37454 -0.2004,-4.462218 -1.9636,-8.087323 -7.8997,-7.952831 -0.1141,-4.108463 0.9759,-6.228392 5.0121,-7.421709 z"
         id="path43"
         style="fill:#dddddd;stroke:#888888;stroke-width:0.97731149;stroke-miterlimit:4;stroke-dasharray:none" />
      <path
         inkscape:connector-curvature="0"
         d="m 247.71299,210.63967 c 4.3481,-3.76742 4.5442,-11.03459 3.0613,-16.22894 -1.1597,4.16161 -1.8028,8.75131 -7.7143,8.19362 -0.8648,3.9068 0.2543,7.65678 4.653,8.03532 l 0,0 z"
         id="path45"
         style="fill:#dddddd;stroke:#888888;stroke-width:0.97731149;stroke-miterlimit:4;stroke-dasharray:none" />
      <path
         inkscape:connector-curvature="0"
         d="m 330.18579,88.106479 1.0906,0 0,20.870641 -1.0906,0 0,0 z m -5.0954,1.53452 1.0978,0 0,29.135171 -1.0978,0 0,0 z m -5.0879,1.646352 1.0854,0 0,38.152369 -1.0854,0 0,0 z m -5.1021,0.989213 1.0998,0 0,48.245506 -1.0998,0 0,0 z m -5.0942,0.201821 1.0965,0 0,58.777995 -1.0965,0 0,0 z m -5.0936,-0.201821 1.0984,0 0,69.905666 -1.0984,0 0,0 z m -20.373,-9.800353 1.0985,0 0,120.723159 -1.0985,0 0,0 z m 10.1918,6.644097 1.0857,0 0,93.822032 -1.0857,0 0,0 z m 5.0864,1.978427 1.0998,0 0,80.793865 -1.0998,0 0,0 z m -10.181,-4.581225 1.0874,0 0,106.4425 -1.0874,0 0,0 z m -10.1908,-8.720337 1.0916,0 0,135.969247 -1.0916,0 0,0 z m -5.0875,-5.407744 1.0893,0 0,143.457141 -1.0893,0 0,0 z"
         id="path47"
         style="fill:#dddddd;stroke:#888888;stroke-width:0.97731149;stroke-miterlimit:4;stroke-dasharray:none" />
    </g>
  </g>
  <g
     inkscape:groupmode="layer"
     id="layer1"
     inkscape:label="Cover"
     style="display:inline"
     sodipodi:insensitive="true">
    <path
       d="m 2,2 v 257 c 0,286 298,398 298,398 0,0 298,-112 298,-398 V 2 z"
       id="shine"
       inkscape:connector-curvature="0"
       style="fill:url(#radialGradient3074);stroke:#000000;stroke-width:3" />
  </g>
</svg>
