<?xml version="1.0" encoding="UTF-8" standalone="no"?>
<svg
   xmlns:dc="http://purl.org/dc/elements/1.1/"
   xmlns:cc="http://creativecommons.org/ns#"
   xmlns:rdf="http://www.w3.org/1999/02/22-rdf-syntax-ns#"
   xmlns:svg="http://www.w3.org/2000/svg"
   xmlns="http://www.w3.org/2000/svg"
   xmlns:xlink="http://www.w3.org/1999/xlink"
   xmlns:sodipodi="http://sodipodi.sourceforge.net/DTD/sodipodi-0.dtd"
   xmlns:inkscape="http://www.inkscape.org/namespaces/inkscape"
   width="600"
   height="660"
   id="svg2"
   version="1.1"
   inkscape:version="0.48.2 r9819"
   sodipodi:docname="House_Ball_(Quentyn).svg">
  <metadata
     id="metadata24">
    <rdf:RDF>
      <cc:Work
         rdf:about="">
        <dc:format>image/svg+xml</dc:format>
        <dc:type
           rdf:resource="http://purl.org/dc/dcmitype/StillImage" />
        <dc:title />
      </cc:Work>
    </rdf:RDF>
  </metadata>
  <sodipodi:namedview
     pagecolor="#ffffff"
     bordercolor="#666666"
     borderopacity="1"
     objecttolerance="10"
     gridtolerance="10"
     guidetolerance="10"
     inkscape:pageopacity="0"
     inkscape:pageshadow="2"
     inkscape:window-width="1366"
     inkscape:window-height="715"
     id="namedview22"
     showgrid="false"
     inkscape:zoom="0.50568849"
     inkscape:cx="55.183924"
     inkscape:cy="407.72146"
     inkscape:window-x="-8"
     inkscape:window-y="-8"
     inkscape:window-maximized="1"
     inkscape:current-layer="layer2" />
  <defs
     id="defs4">
    <linearGradient
       id="linearGradient3854">
      <stop
         id="stop3856"
         offset="0"
         style="stop-color:#ffff00;stop-opacity:1;" />
      <stop
         style="stop-color:#ff8800;stop-opacity:1;"
         offset="0.43744272"
         id="stop3858" />
      <stop
         id="stop3860"
         offset="1"
         style="stop-color:#cc0000;stop-opacity:1;" />
    </linearGradient>
    <linearGradient
       id="linearGradient6940">
      <stop
         id="stop6942"
         offset="0"
         style="stop-color:#fcff00;stop-opacity:1;" />
      <stop
         style="stop-color:#ff8800;stop-opacity:1;"
         offset="0.3860921"
         id="stop6944" />
      <stop
         id="stop6946"
         offset="1"
         style="stop-color:#cc0000;stop-opacity:1;" />
    </linearGradient>
    <linearGradient
       id="linearGradient5451">
      <stop
         style="stop-color:#ffff00;stop-opacity:1;"
         offset="0"
         id="stop5453" />
      <stop
         id="stop5459"
         offset="0.5"
         style="stop-color:#ff8800;stop-opacity:1;" />
      <stop
         style="stop-color:#cc0000;stop-opacity:1;"
         offset="1"
         id="stop5455" />
    </linearGradient>
    <inkscape:path-effect
       effect="spiro"
       id="path-effect3576"
       is_visible="true" />
    <inkscape:path-effect
       is_visible="true"
       id="path-effect3572"
       effect="spiro" />
    <inkscape:path-effect
       effect="spiro"
       id="path-effect3568"
       is_visible="true" />
    <inkscape:path-effect
       is_visible="true"
       id="path-effect3136"
       effect="spiro" />
    <inkscape:path-effect
       effect="spiro"
       id="path-effect3132"
       is_visible="true" />
    <inkscape:path-effect
       effect="spiro"
       id="path-effect3101"
       is_visible="true" />
    <inkscape:path-effect
       is_visible="true"
       id="path-effect3085"
       effect="spiro" />
    <inkscape:path-effect
       is_visible="true"
       id="path-effect3083"
       effect="spiro" />
    <inkscape:path-effect
       is_visible="true"
       id="path-effect3081"
       effect="spiro" />
    <inkscape:path-effect
       is_visible="true"
       id="path-effect3079"
       effect="spiro" />
    <inkscape:path-effect
       is_visible="true"
       id="path-effect3077"
       effect="spiro" />
    <inkscape:path-effect
       is_visible="true"
       id="path-effect3075"
       effect="spiro" />
    <inkscape:path-effect
       effect="spiro"
       id="path-effect3049"
       is_visible="true" />
    <inkscape:path-effect
       is_visible="true"
       id="path-effect3045"
       effect="spiro" />
    <inkscape:path-effect
       effect="spiro"
       id="path-effect3041"
       is_visible="true" />
    <radialGradient
       id="rg"
       gradientUnits="userSpaceOnUse"
       cx="220"
       cy="220"
       r="405">
      <stop
         style="stop-color:#fff;stop-opacity:.3"
         offset="0"
         id="stop7" />
      <stop
         style="stop-color:#fff;stop-opacity:.2"
         offset=".2"
         id="stop9" />
      <stop
         style="stop-color:#666;stop-opacity:.1"
         offset=".6"
         id="stop11" />
      <stop
         style="stop-color:#000;stop-opacity:.13"
         offset="1"
         id="stop13" />
    </radialGradient>
    <path
       id="shield"
       d="m2,2v257c0,286 298,398 298,398c0,0 298-112 298-398V2z" />
    <radialGradient
       inkscape:collect="always"
       xlink:href="#rg-7"
       id="radialGradient3055-1"
       gradientUnits="userSpaceOnUse"
       cx="220"
       cy="220"
       r="405" />
    <radialGradient
       id="rg-7"
       gradientUnits="userSpaceOnUse"
       cx="220"
       cy="220"
       r="405">
      <stop
         style="stop-color:#fff;stop-opacity:.3"
         offset="0"
         id="stop7-4" />
      <stop
         style="stop-color:#fff;stop-opacity:.2"
         offset=".2"
         id="stop9-0" />
      <stop
         style="stop-color:#666;stop-opacity:.1"
         offset=".6"
         id="stop11-9" />
      <stop
         style="stop-color:#000;stop-opacity:.13"
         offset="1"
         id="stop13-4" />
    </radialGradient>
    <radialGradient
       r="405"
       cy="220"
       cx="220"
       gradientUnits="userSpaceOnUse"
       id="radialGradient3074"
       xlink:href="#rg-7"
       inkscape:collect="always" />
    <inkscape:path-effect
       is_visible="true"
       id="path-effect10120-1"
       effect="spiro" />
    <inkscape:path-effect
       effect="spiro"
       id="path-effect10118-3"
       is_visible="true" />
    <inkscape:path-effect
       effect="spiro"
       id="path-effect10116-9"
       is_visible="true" />
    <inkscape:path-effect
       effect="spiro"
       id="path-effect10114-7"
       is_visible="true" />
    <inkscape:path-effect
       effect="spiro"
       id="path-effect10112-7"
       is_visible="true" />
    <inkscape:path-effect
       effect="spiro"
       id="path-effect10110-2"
       is_visible="true" />
    <linearGradient
       inkscape:collect="always"
       xlink:href="#linearGradient4719-5"
       id="linearGradient4039"
       gradientUnits="userSpaceOnUse"
       gradientTransform="matrix(2.3257341,0,0,2.2943177,447.69485,-1820.2799)"
       x1="-145.25935"
       y1="984.24286"
       x2="-64.14286"
       y2="984.14789" />
    <linearGradient
       inkscape:collect="always"
       id="linearGradient4719-5">
      <stop
         style="stop-color:#666666;stop-opacity:1;"
         offset="0"
         id="stop4721-5" />
      <stop
         id="stop4809-1"
         offset="0.39344174"
         style="stop-color:#666666;stop-opacity:0.74901961;" />
      <stop
         style="stop-color:#666666;stop-opacity:0;"
         offset="1"
         id="stop4723-7" />
    </linearGradient>
    <radialGradient
       inkscape:collect="always"
       xlink:href="#linearGradient4801-8"
       id="radialGradient4041"
       gradientUnits="userSpaceOnUse"
       gradientTransform="matrix(-0.72153181,1.2650715,-2.2729984,-1.2616144,1712.0113,1733.7841)"
       cx="-307.14288"
       cy="782.36218"
       fx="-307.14288"
       fy="782.36218"
       r="63" />
    <linearGradient
       inkscape:collect="always"
       id="linearGradient4801-8">
      <stop
         style="stop-color:#000000;stop-opacity:1;"
         offset="0"
         id="stop4803-2" />
      <stop
         style="stop-color:#000000;stop-opacity:0;"
         offset="1"
         id="stop4805-4" />
    </linearGradient>
    <inkscape:path-effect
       effect="spiro"
       id="path-effect10108-4"
       is_visible="true" />
    <linearGradient
       inkscape:collect="always"
       xlink:href="#linearGradient4719-5"
       id="linearGradient4044"
       gradientUnits="userSpaceOnUse"
       gradientTransform="matrix(-2.4055369,0,0,-1.6485021,142.06168,1726.5307)"
       x1="-145.25935"
       y1="984.24286"
       x2="-64.14286"
       y2="984.14789" />
    <radialGradient
       inkscape:collect="always"
       xlink:href="#linearGradient4801-8"
       id="radialGradient4046"
       gradientUnits="userSpaceOnUse"
       gradientTransform="matrix(0.74628962,-0.90897301,2.3509914,0.90648896,-1165.637,-827.11785)"
       cx="-307.14288"
       cy="782.36218"
       fx="-307.14288"
       fy="782.36218"
       r="63" />
    <inkscape:path-effect
       effect="spiro"
       id="path-effect10102-7"
       is_visible="true" />
    <linearGradient
       inkscape:collect="always"
       xlink:href="#linearGradient4719-5"
       id="linearGradient4049"
       gradientUnits="userSpaceOnUse"
       gradientTransform="matrix(2.334989,0,0,-1.6146975,449.44065,1692.189)"
       x1="-145.25935"
       y1="984.24286"
       x2="-64.14286"
       y2="984.14789" />
    <radialGradient
       inkscape:collect="always"
       xlink:href="#linearGradient4801-8"
       id="radialGradient4051"
       gradientUnits="userSpaceOnUse"
       gradientTransform="matrix(-0.72440295,-0.89033332,-2.2820431,0.88790031,1718.7881,-809.09364)"
       cx="-307.14288"
       cy="782.36218"
       fx="-307.14288"
       fy="782.36218"
       r="63" />
    <inkscape:path-effect
       is_visible="true"
       id="path-effect10096-8"
       effect="spiro" />
    <linearGradient
       inkscape:collect="always"
       xlink:href="#linearGradient4719-5"
       id="linearGradient4054"
       gradientUnits="userSpaceOnUse"
       gradientTransform="matrix(-2.409599,0,0,2.2818507,139.61083,-1810.8163)"
       x1="-145.25935"
       y1="984.24286"
       x2="-64.14286"
       y2="984.14789" />
    <radialGradient
       inkscape:collect="always"
       xlink:href="#linearGradient4801-8"
       id="radialGradient4056"
       gradientUnits="userSpaceOnUse"
       gradientTransform="matrix(0.74754985,1.2581972,2.3549614,-1.2547588,-1170.296,1723.935)"
       cx="-307.14288"
       cy="782.36218"
       fx="-307.14288"
       fy="782.36218"
       r="63" />
    <inkscape:path-effect
       is_visible="true"
       id="path-effect10090-3"
       effect="spiro" />
    <inkscape:path-effect
       effect="spiro"
       id="path-effect10084-1"
       is_visible="true" />
    <inkscape:path-effect
       effect="spiro"
       id="path-effect10082-1"
       is_visible="true" />
    <radialGradient
       inkscape:collect="always"
       xlink:href="#linearGradient4801-8"
       id="radialGradient4061"
       gradientUnits="userSpaceOnUse"
       gradientTransform="matrix(-0.76516322,1.2901254,-2.4104477,-1.2865998,1806.8444,1757.4704)"
       cx="-307.14288"
       cy="782.36218"
       fx="-307.14288"
       fy="782.36218"
       r="63" />
    <inkscape:path-effect
       effect="spiro"
       id="path-effect10080-4"
       is_visible="true" />
    <inkscape:path-effect
       is_visible="true"
       id="path-effect3075-1"
       effect="spiro" />
    <inkscape:path-effect
       effect="spiro"
       id="path-effect3101-7"
       is_visible="true" />
    <linearGradient
       inkscape:collect="always"
       xlink:href="#grad1-7-7"
       id="linearGradient3085-8-8"
       gradientUnits="userSpaceOnUse"
       gradientTransform="matrix(0.77469594,0,0,0.30982404,152.68996,-13.619206)"
       x1="78.877235"
       y1="178.07356"
       x2="301.40585"
       y2="178.07356" />
    <linearGradient
       id="grad1-7-7"
       x1="78.877235"
       y1="178.07356"
       x2="301.40585"
       y2="178.07356"
       gradientTransform="scale(1.577772,0.63380513)"
       gradientUnits="userSpaceOnUse">
      <stop
         offset="0%"
         style="stop-color:#da0;"
         id="stop16-4-4" />
      <stop
         offset="40%"
         style="stop-color:#fd0;"
         id="stop18-0-0" />
      <stop
         offset="60%"
         style="stop-color:#fd0;"
         id="stop20-9-9" />
      <stop
         offset="100%"
         style="stop-color:#da0;"
         id="stop22-4-4" />
    </linearGradient>
    <linearGradient
       inkscape:collect="always"
       xlink:href="#grad1-7-7"
       id="linearGradient3081-8-8"
       gradientUnits="userSpaceOnUse"
       gradientTransform="matrix(0.77469594,0,0,0.30982404,-27.310046,-13.619206)"
       x1="78.877235"
       y1="178.07356"
       x2="301.40585"
       y2="178.07356" />
    <linearGradient
       id="linearGradient3093"
       x1="78.877235"
       y1="178.07356"
       x2="301.40585"
       y2="178.07356"
       gradientTransform="scale(1.577772,0.63380513)"
       gradientUnits="userSpaceOnUse">
      <stop
         offset="0%"
         style="stop-color:#da0;"
         id="stop3095" />
      <stop
         offset="40%"
         style="stop-color:#fd0;"
         id="stop3097" />
      <stop
         offset="60%"
         style="stop-color:#fd0;"
         id="stop3099" />
      <stop
         offset="100%"
         style="stop-color:#da0;"
         id="stop3101" />
    </linearGradient>
    <linearGradient
       y2="178.07356"
       x2="301.40585"
       y1="178.07356"
       x1="78.877235"
       gradientTransform="matrix(0.77469594,0,0,0.30982404,332.68995,-13.619206)"
       gradientUnits="userSpaceOnUse"
       id="linearGradient3128-1"
       xlink:href="#grad1-7-7"
       inkscape:collect="always" />
    <linearGradient
       id="linearGradient3104"
       x1="78.877235"
       y1="178.07356"
       x2="301.40585"
       y2="178.07356"
       gradientTransform="scale(1.577772,0.63380513)"
       gradientUnits="userSpaceOnUse">
      <stop
         offset="0%"
         style="stop-color:#da0;"
         id="stop3106" />
      <stop
         offset="40%"
         style="stop-color:#fd0;"
         id="stop3108" />
      <stop
         offset="60%"
         style="stop-color:#fd0;"
         id="stop3110" />
      <stop
         offset="100%"
         style="stop-color:#da0;"
         id="stop3112" />
    </linearGradient>
    <inkscape:path-effect
       is_visible="true"
       id="path-effect3061"
       effect="spiro" />
    <clipPath
       clipPathUnits="userSpaceOnUse"
       id="clipPath10110">
      <path
         style="fill:#ffff00;fill-opacity:1;stroke:none"
         id="path10112"
         d="M 598,2 V 259 C 598,545 300,657 300,657 300,657 2,545 2,259 V 2 z"
         inkscape:connector-curvature="0" />
    </clipPath>
    <linearGradient
       inkscape:collect="always"
       xlink:href="#linearGradient5451"
       id="linearGradient5457"
       x1="-491.73343"
       y1="496.60559"
       x2="-128.62625"
       y2="496.60559"
       gradientUnits="userSpaceOnUse"
       spreadMethod="pad" />
    <linearGradient
       inkscape:collect="always"
       xlink:href="#linearGradient5451"
       id="linearGradient6923"
       gradientUnits="userSpaceOnUse"
       spreadMethod="pad"
       x1="-491.73343"
       y1="496.60559"
       x2="-128.62625"
       y2="496.60559" />
    <linearGradient
       inkscape:collect="always"
       xlink:href="#linearGradient6940"
       id="linearGradient6937"
       gradientUnits="userSpaceOnUse"
       spreadMethod="pad"
       x1="-426.99481"
       y1="575.73059"
       x2="-184.3734"
       y2="237.65112"
       gradientTransform="matrix(1.0996539,0,0,1.0996539,654.26074,-256.47064)" />
    <radialGradient
       inkscape:collect="always"
       xlink:href="#linearGradient3854"
       id="radialGradient3852"
       cx="309.89865"
       cy="320.18033"
       fx="309.89865"
       fy="320.18033"
       r="215.16562"
       gradientTransform="matrix(-0.39161803,-0.50925078,1.6922985,-1.3013914,-53.018758,820.49103)"
       gradientUnits="userSpaceOnUse" />
  </defs>
  <g
     inkscape:groupmode="layer"
     id="layer2"
     inkscape:label="Elements"
     style="display:inline">
    <path
       inkscape:connector-curvature="0"
       d="M 598,2 V 259 C 598,545 300,657 300,657 300,657 2,545 2,259 V 2 z"
       id="path13"
       style="fill:#000000;fill-opacity:1;stroke:none" />
    <path
       inkscape:connector-curvature="0"
       style="fill:url(#radialGradient3852);fill-opacity:1"
       d="m 518.6253,114.93746 c 4.49861,-0.0886 8.91217,0.65189 12.4742,2.26804 4.81877,2.18635 4.82484,2.21786 2.74914,4.57044 -1.14418,1.29678 -7.50491,4.92955 -14.15805,8.10994 -15.03629,7.1878 -26.55737,16.65091 -33.53944,27.52572 -7.8628,12.24658 -11.62036,16.70244 -26.83843,31.7525 -12.19534,12.06072 -14.03972,14.3063 -11.9931,14.63915 1.32962,0.21624 3.37478,-0.1345 4.53607,-0.75602 1.1613,-0.6215 2.42286,-0.84175 2.7835,-0.4811 2.53905,2.53904 -10.86652,11.68382 -19.99995,13.64259 -5.8679,1.25844 -8.6592,3.23023 -4.57044,3.23023 1.28508,0 3.26547,-0.49322 4.39862,-1.09965 2.26751,-1.21354 3.64136,-0.0115 2.71477,2.37112 -0.87882,2.25979 -12.05545,8.9741 -23.05837,13.84877 l -9.89689,4.39862 -5.25772,8.65977 c -5.09244,8.35903 -7.11539,13.12511 -6.01373,14.22677 0.29116,0.29116 1.80615,0.057 3.40206,-0.54982 5.40098,-2.05345 3.30438,1.8698 -3.64261,6.8041 -5.20733,3.69867 -7.2404,6.03771 -9.75943,11.27146 -3.96909,8.24652 -7.20789,18.04977 -6.28864,18.96903 0.38263,0.38262 2.12895,-0.13216 3.88315,-1.16839 4.73316,-2.79595 5.3987,-0.20869 1.09966,4.2268 -1.96324,2.02555 -7.56534,6.55946 -12.4742,10.06871 -23.27477,16.63864 -28.09176,22.19312 -33.23017,38.38479 -1.95368,6.15624 -4.32719,12.66788 -5.25772,14.46732 -1.78736,3.45638 -9.01997,10.43192 -20.20614,19.48449 -11.53384,9.33392 -13.88618,19.63021 -3.02405,13.26458 16.97166,-9.94606 -4.70389,15.41476 -26.08241,30.51539 -13.23331,9.34729 -14.44499,10.68727 -9.7938,10.68727 4.71236,0 4.33067,1.78259 -1.61511,7.31957 -5.83483,5.43365 -13.01986,8.39642 -24.50167,10.1718 -4.4553,0.68891 -9.00481,1.74899 -10.10307,2.33676 -1.09827,0.58778 -6.03237,2.01841 -10.96217,3.19587 -44.85584,10.71352 -89.89278,-10.2777 -109.55302,-51.06518 -11.7961,-24.47239 -13.12043,-48.0995 -4.2268,-74.87956 2.79441,-8.41435 3.52728,-12.24315 3.05842,-15.73879 -1.11616,-8.32157 1.80903,-27.37412 5.4639,-35.56693 1.82123,-4.08247 3.7069,-7.42267 4.19243,-7.42267 0.48552,0 0.80973,3.09278 0.72165,6.87284 -0.15501,6.65546 1.89618,13.47076 4.05497,13.47076 0.53767,0 2.85994,-5.0681 5.15463,-11.27145 3.09582,-8.36913 6.5173,-14.71016 13.23021,-24.53603 8.95335,-13.10526 14.9821,-19.72504 17.97247,-19.72504 1.30249,0 1.26724,0.79377 -0.17182,5.01717 -0.93852,2.75442 -1.44556,5.25545 -1.13402,5.567 0.31156,0.31154 2.60277,-0.0464 5.0859,-0.79038 5.30166,-1.58842 14.18041,-10.06442 17.9381,-17.14773 4.58401,-8.64095 6.05974,-3.43512 2.3024,8.14431 -1.0244,3.15701 -1.66155,5.96731 -1.37456,6.25429 0.28699,0.28698 3.50126,-0.14965 7.11338,-0.9622 3.61212,-0.81255 9.37057,-1.98417 12.81784,-2.61168 3.82512,-0.69629 9.15568,-2.87445 13.67695,-5.60136 4.07466,-2.45754 8.59557,-4.46735 10.03434,-4.46735 3.28718,0 6.18428,-1.49227 11.9931,-6.18555 2.52102,-2.03689 4.93033,-3.71133 5.36081,-3.71133 2.03841,0 -0.6075,10.5162 -3.78006,15.01715 -1.8807,2.66818 -3.40205,5.07609 -3.40205,5.36081 0,2.58627 15.78958,-4.26658 21.61507,-9.38142 5.21451,-4.57841 13.63354,-6.74608 24.63912,-6.35738 9.99442,0.35299 12.458,2.00825 6.0481,4.12371 -2.14816,0.70895 -3.91752,1.47781 -3.91752,1.68384 0,0.20604 -0.32016,1.13954 -0.68728,2.09622 -0.97375,2.53752 2.39033,2.21485 7.14775,-0.68729 11.79219,-7.19353 26.72055,-22.04693 29.14083,-29.03773 0.78545,-2.26873 2.06184,-4.34135 2.85222,-4.6048 2.70203,-0.90069 0.36256,20.9054 -3.40205,31.68377 -4.1535,11.89183 -4.26468,12.73632 -1.51202,12.26802 3.09835,-0.52712 5.84427,-3.23254 9.07214,-8.96905 10.40146,-18.4853 12.47035,-20.477 27.35389,-26.35733 8.3793,-3.31058 9.42098,-4.10555 17.04464,-12.98967 4.46594,-5.20432 9.81187,-10.96908 11.89,-12.81784 2.07815,-1.84876 7.52144,-6.88583 12.0962,-11.16836 10.32602,-9.66638 13.46566,-11.83901 21.40888,-14.81096 6.80047,-2.54438 8.66485,-2.23306 5.77319,0.9622 -4.67431,5.16505 0.49622,5.93086 10.41235,1.54639 2.64854,-1.17107 7.224,-2.78023 10.17179,-3.57388 8.92977,-2.40418 20.10043,-10.59514 29.82812,-21.85562 8.54022,-9.88591 16.7153,-16.57613 20.2405,-16.5979 0.95473,-0.005 4.39354,-1.24302 7.62885,-2.74914 3.78229,-1.76074 8.3536,-2.69492 12.8522,-2.7835 z"
       id="path4606"
       sodipodi:nodetypes="sssssssccsssscccscsscsssssssssssssssssscssssscssssssssssssssssssscsssssssssssscss" />
    <path
       inkscape:connector-curvature="0"
       style="fill:url(#linearGradient6937);fill-opacity:1"
       d="m 223.33076,453.28968 c 5.14088,-0.94762 14.04807,-2.54055 19.79377,-3.53983 5.74569,-0.99929 11.89316,-2.56322 13.66105,-3.47539 l 3.21434,-1.65849 -2.66451,-2.0298 c -2.52614,-1.92436 -2.5774,-2.18906 -0.98714,-5.09671 0.92256,-1.6868 4.10326,-4.55145 7.06822,-6.36588 2.96498,-1.81443 8.14829,-5.81621 11.51848,-8.89286 3.37019,-3.07663 8.97796,-7.19827 12.46172,-9.15919 6.42337,-3.61554 7.27058,-5.59051 2.39823,-5.59051 -3.33908,0 -3.34061,-0.98393 -0.0167,-10.75651 2.79219,-8.20936 9.58136,-17.07139 23.72939,-30.97434 6.32173,-6.21225 12.94051,-16.85809 15.41761,-24.79821 3.89154,-12.47395 10.09043,-20.5543 22.02321,-28.7076 9.28585,-6.34475 14.21308,-13.27626 17.50498,-24.62562 1.3157,-4.53607 6.38872,-16.16491 11.2734,-25.84186 16.40199,-32.49377 14.97297,-30.34882 22.91715,-34.39886 6.73283,-3.43249 8.28676,-4.81592 15.77374,-14.043 1.78448,-2.19922 5.99646,-5.24382 9.53195,-6.8901 4.68955,-2.18367 10.65903,-7.08472 22.9864,-18.8722 15.65031,-14.9649 18.68389,-18.61681 31.59664,-38.03689 2.54762,-3.83147 6.01152,-7.82988 7.69758,-8.88537 1.68606,-1.05548 6.15229,-4.29921 9.92496,-7.20828 3.77267,-2.90908 8.47369,-6.27347 10.44671,-7.47644 4.63124,-2.82369 1.63397,-2.90667 -5.60722,-0.15524 -7.55492,2.87065 -20.19854,13.32743 -25.43085,21.03234 -8.0834,11.90336 -18.71548,17.79801 -48.78516,27.04755 -4.74873,1.46073 -10.10628,3.89466 -11.90564,5.40873 -3.78559,3.18536 -4.55566,3.32784 -6.34346,1.17366 -1.01535,-1.22341 -1.0094,-2.14201 0.0264,-4.0774 2.03354,-3.79971 -19.75245,16.93334 -30.04178,28.58983 -8.95733,10.14751 -13.66526,13.53525 -23.01443,16.56081 -7.48792,2.42322 -12.18627,6.88959 -17.3608,16.50363 -6.29278,11.6917 -12.75548,17.66408 -19.16942,17.71504 -2.4853,0.0198 -7.24035,0.99327 -10.56681,2.1634 -7.74946,2.72599 -9.54405,2.714 -11.036,-0.0738 -1.45249,-2.71399 0.0168,-5.3653 6.48546,-11.70307 2.33984,-2.2925 5.17583,-5.6527 6.30218,-7.46713 1.98471,-3.19712 1.90433,-3.17166 -2.60415,0.82474 -2.55866,2.26804 -5.3103,4.1237 -6.11478,4.1237 -0.80448,0 -6.12262,1.50245 -11.81812,3.33877 -8.32079,2.68276 -10.86877,3.10711 -12.96819,2.15976 -2.33915,-1.05555 -2.55337,-1.70612 -2.04547,-6.21213 l 0.5673,-5.03313 -3.97683,0.64535 c -2.18727,0.35495 -5.22556,1.64838 -6.75177,2.8743 -9.74001,7.82364 -22.1557,12.6948 -31.9634,12.5405 -7.87013,-0.12381 -11.34164,-1.90247 -10.66114,-5.46231 0.62976,-3.29435 0.0719,-3.29684 -5.92243,-0.0265 -4.79547,2.61625 -11.29419,4.36214 -20.83202,5.5966 -6.65509,0.86136 -17.69625,6.16145 -25.39908,12.19233 -3.42657,2.68283 -6.75101,4.87786 -7.38766,4.87786 -0.71295,0 -0.96521,-1.90054 -0.6568,-4.94845 0.59012,-5.83196 -0.53134,-6.22836 -7.74334,-2.73709 -6.33642,3.06741 -17.01979,18.94031 -17.01979,25.28726 0,1.25382 -0.93242,4.11563 -2.07203,6.35957 -1.13962,2.24394 -2.65745,6.91661 -3.37295,10.38372 -0.7155,3.46711 -1.71579,6.56025 -2.22285,6.87363 -0.50707,0.31339 -2.69976,-1.90478 -4.87263,-4.92926 -2.17288,-3.02449 -4.41301,-5.49906 -4.97807,-5.49906 -1.80905,0 -2.4261,4.13212 -2.17495,14.5649 0.21629,8.98509 -0.15351,11.27228 -3.15679,19.52437 -5.62567,15.45763 -6.00269,40.59952 -0.86571,57.73183 2.48177,8.27692 14.07833,27.06188 21.81211,35.33287 12.41464,13.27696 26.36569,21.31213 43.69072,25.16386 8.74537,1.94429 27.36657,1.51298 40.6872,-0.9424 z"
       id="path4579" />
  </g>
  <g
     inkscape:groupmode="layer"
     id="layer1"
     inkscape:label="Cover"
     style="display:inline"
     sodipodi:insensitive="true">
    <path
       d="m 2,2 v 257 c 0,286 298,398 298,398 0,0 298,-112 298,-398 V 2 z"
       id="shine"
       inkscape:connector-curvature="0"
       style="fill:url(#radialGradient3074);stroke:#000000;stroke-width:3" />
  </g>
</svg>
