<?xml version="1.0" encoding="UTF-8"?>
<svg xmlns="http://www.w3.org/2000/svg" xmlns:xlink="http://www.w3.org/1999/xlink" width="600" height="660">
<defs>
  <radialGradient id="rg" gradientUnits="userSpaceOnUse" cx="220" cy="220" r="405">
    <stop style="stop-color:#ffffff;stop-opacity:.3" offset="0"/>
    <stop style="stop-color:#ffffff;stop-opacity:.2" offset=".2"/>
    <stop style="stop-color:#666666;stop-opacity:.1" offset=".6"/>
    <stop style="stop-color:#000000;stop-opacity:.13" offset="1"/>
  </radialGradient>
  <path id="shield" d="m2,2v257c0,286 298,398 298,398c0,0 298-112 298-398V2z"/>
</defs>
<use id="red" xlink:href="#shield" style="fill:#ff0000;"/>
<path id="orange" style="fill:#ff8000;" d="M 86.950329 499.26143 C 175.03349 610.03272 300 657 300 657 C 300 657 598 545 598 259 L 598 2 L 87.000009 2 "/>
<path id="yellow" style="fill:#ffff00;" d="M 172.01764 582.34079 C 238.89068 634.03274 300 657 300 657 C 300 657 598 545 598 259 L 598 2 L 172.00002 2 "/>
<path id="green" style="fill:#008000;" d="M 257.24101 637.05074 C 283.05266 650.63053 300 657 300 657 C 300 657 598 545 598 259 L 598 2 L 257.00003 2 "/>
<path id="blue" style="fill:#0000cc;" d="M 342.70839 637.07736 C 425.11293 593.73405 598 476.84075 598 259 L 598 2 L 343.00002 2 "/>
<path id="indigo" style="fill:#000080;" d="M 427.95289 582.36358 C 508.76212 519.90776 598 415.50653 598 259 L 598 2 L 428.00001 2 "/>
<path id="purple" style="fill:#800080;" d="M 513.06241 499.24541 C 560.99351 438.9626 598 359.78519 598 259 L 598 2 L 513 2 "/>
<use id="shine" xlink:href="#shield" style="fill:url(#rg);stroke:#000000;stroke-width:3;"/>
</svg>
