<?xml version="1.0" encoding="UTF-8"?>
<svg xmlns="http://www.w3.org/2000/svg" xmlns:xlink="http://www.w3.org/1999/xlink" width="600" height="660">
<defs>
  <radialGradient id="rg" gradientUnits="userSpaceOnUse" cx="220" cy="220" r="405">
    <stop style="stop-color:#fff;stop-opacity:.3" offset="0"/>
    <stop style="stop-color:#fff;stop-opacity:.2" offset=".2"/>
    <stop style="stop-color:#666;stop-opacity:.1" offset=".6"/>
    <stop style="stop-color:#000;stop-opacity:.13" offset="1"/>
  </radialGradient>
  <clipPath id="shield-clip">
    <path id="shield" d="m2,2v257c0,286 298,398 298,398c0,0 298-112 298-398V2z" />
  </clipPath>
  <clipPath id="left-arm-clip">
    <path id="left-arm-shape" d="m 301.5,163.9 c -31.5,-2.7 -36.1,17.2 -37.3,39.4 -9.3,11.8 -18.5,13.6 -28.2,20.8 -18.9,14.1 -45.4,13.3 -49.9,1 -0.7,-2.1 0.8,-4.9 0.3,-8.3 -0.1,-2.3 -0.4,-5.2 -2.7,-6.8 -8.8,-7.3 -18.9,1.9 -19.5,11.5 -4,-3.5 -8.2,-3.9 -11.5,-2.9 -7.5,2.4 -11.9,12.6 -4.6,19.2 1.9,1.7 7.3,0.6 8.2,3.3 0.9,2.7 1.1,2.6 1.8,3.6 0.6,1.1 2,2.8 2,2.8 0,0 -6.1,0.4 -7.7,1.9 -9,9.3 5,25 16,18.6 1.9,-1.3 2.7,-2.7 5,-4.6 2.4,-1.8 10.9,-2.8 10.9,-2.8 -4.4,6.7 -1.9,8.8 -2.3,11.4 -0.2,1.2 -1.3,3.3 -3.3,4.6 10,-0.3 14.5,-2.8 19.3,-12.1 0.6,5.8 0.7,9.8 -1.8,14.8 0,0 7.7,-1.9 11.6,-4.3 3.4,-2.2 8.9,-11.1 8.9,-11.1 1.5,4.9 1.5,8.5 -1.3,12.8 7.9,-3 13.3,-6.5 15.2,-15.4 1.2,-2.2 3.3,-2.8 3.3,-2.8 -1.2,7.5 5.6,6.5 1,14.5 11.1,-2.4 17.9,-18.1 16.4,-21.2 0,0 5.5,10 2.6,14 7.8,-0.6 12.2,-7.1 10.4,-13.1 2.6,0.7 4.3,4.1 6,7.5 2.8,-2.7 4,-8.7 3.8,-15.5 1.5,3.3 3.4,6 6,7.7 0.1,-7.9 5.7,-14.3 15.7,-16.7 3.4,-0.7 15.2,-0.3 17,-4.4 1.2,-2.9 -0.9,-5 -2,-6.2 -0.8,-1.7 -1.1,-6.1 -0.9,-9.4" />
  </clipPath>
  <clipPath id="right-leg-clip">
    <path id="right-leg-shape" d="m 223.6,479.5 c 0,0 -0.1,2.7 -0.9,4.2 -1.1,2.2 -3.7,4.3 -6.5,5.4 -2.8,1.1 -5.6,1.1 -8.4,0 -2.8,-1.1 -5.7,-5.1 -5.7,-5.1 0,0 -3.9,6.2 -6.7,7.4 -3.4,1.6 -7.3,1.6 -10.7,0.5 -4,-1.7 -7.3,-3.9 -9,-8.4 -0.6,-1.7 0,-6.2 0,-6.2 -4.4,3.1 -10.7,1.9 -13.5,-1.7 -2.3,-2.8 -2.5,-6.1 -1.7,-10.2 0.3,-1.6 1.6,-3.8 2.8,-4.5 0,0 -1.7,-2.2 -1.7,-3.3 -1.1,-2.9 0.6,-5.7 0.6,-5.7 0,-2.2 3.3,-5 6.1,-5 8.5,0.5 11.9,5.6 19.2,7.3 15.8,2.8 31.5,-2.8 43.4,-13 4.5,-3.9 6.7,-7.9 9.5,-12.9 2.3,-4.5 3.4,-10.2 2.9,-15.2 -0.6,-8.5 -5.1,-14.7 -6.8,-23.1 -1.1,-4 -1.7,-13.6 -1.7,-13.6 0,-11.8 5.6,-16.9 7.3,-24.7 0,0 0,-4 1.2,-6.8 1.1,-3.4 2.2,-6.8 5,-9 1.7,-0.6 5.1,-2.8 5.1,-2.8 0,0 2.3,-3.4 3.4,-5.1 1.7,-3.4 3.9,-6.2 7.9,-7.9 3.9,-2.2 7.3,-2.8 11.8,-2.2 15.8,2.2 29.9,6.2 46.2,0.5 l 6.8,80 c -10.2,-2.2 -22,-1.7 -31.6,-5.1 -3.9,-1.1 -10.7,-6.7 -13.5,-9 0,0 0,8.5 -1.7,13 -2.3,5.6 -6.8,10.7 -5.1,16.3 1.2,2.8 4,4.5 6.2,7.3 2.3,2.3 3.4,6.2 3.4,10.2 0.6,2.2 0,5.6 -1.7,6.7 -8.4,4.6 -16.3,7.4 -18.6,13.6 -2.2,10.1 -1.7,18 -11.2,22.5 1.1,-4.5 0.5,-7.9 -1.2,-11.8 -1.7,8.4 -3.3,12.4 -10.1,17.4 0.6,-5 0.6,-9.5 -1.1,-14.1 -2.3,9.6 -5.1,15.3 -13,18.6 1.7,-5 2.3,-9 0.6,-14 -2.8,3.9 -2.3,9 -7.3,9.5 z"/>
  </clipPath>
  <clipPath id="right-arm-clip">
    <path id="right-arm-shape" d="m 219.3,178.9 c 0.7,7.9 -4.6,8.1 -1.6,16 -9.2,-5 -11.9,-11.7 -13,-22 -4.2,4.1 -4.1,8.3 -3.4,13.7 -9.7,-5.1 -11.4,-13.2 -12,-23.4 -3.4,3.7 -3.4,7.7 -3,12.5 -9.9,-6.3 -10.2,-15.2 -8.9,-26 -4.6,9.8 -8.6,7.5 -7.1,16.2 -8.8,-9.7 -10.4,-16.6 -7.5,-28.7 -4.7,2.2 -6.2,5.3 -6.7,11 -2.9,-2 -5.1,-4.4 -6.1,-7.1 -2.1,-2.9 -2.1,-7.1 -2.8,-10.7 -0.5,-1.9 -9.8,-3.5 -11.5,-4 -0.7,-0.2 -8.6,-1.2 -12,-0.4 -2.1,0.6 -4.9,1 -6.5,1.4 -12.9,2.2 -19.47,-17.3 -7.6,-22.6 2.1,-0.7 8.1,1.5 8.1,1.5 0,0 -0.8,-2.2 -1,-3.4 l -0.3,-3.8 c -0.4,-2.81 -5.5,-3.37 -7,-6.2 -4.3,-8.54 3.9,-16.16 11.4,-15.84 3.9,0.1 7.6,1.99 9.8,6.91 4.7,-9.04 17.3,-13.29 22.8,-3.75 1.4,2.8 1.5,6.15 1.2,8.66 -0.8,5.41 0.1,10.06 3.2,13.92 18.2,23.6 69.4,50.8 113.4,63.1 l -14.9,51.4 c 0,0 -12.2,-10.5 -19.9,-16.3 -5.8,-4.1 -17.1,-22.1 -17.1,-22.1 z" />
  </clipPath>
  <clipPath id="body-clip">
    <path id="body-shape" d="m 360.4,347.2 c 0.6,7.8 1.2,14 1.2,21.9 0,7.9 -2.3,16.9 -1.2,24.2 1.7,9.1 4.5,17.5 9,25.4 3.4,5.6 7.9,10.1 12.4,14.6 2.9,2.9 9.1,7.9 9.1,7.9 2.2,1.7 5,2.8 7.3,4 6.7,4.5 9,10.1 8.4,16.9 -2.8,-4.5 -6.7,-4 -11.2,-2.8 9.5,6.7 12.9,12.3 10.7,24.2 -2.3,-7.9 -10.7,-5.7 -16.4,-9.6 5.1,10.7 13,13 14.7,19.7 1.1,3.4 1.7,7.3 -2.3,15.8 -0.5,-3.4 -1.1,-6.2 -2.8,-7.9 -2.8,-2.8 -7.9,-2.3 -11.8,-7.3 0,0 0,3.9 1.1,6.2 1.7,3.4 2.3,3.4 4.5,6.2 1.7,2.2 3.9,6.7 4.5,9.5 0.6,6.8 -3.4,16.9 -3.4,16.9 0,0 -2.2,-3.9 -3.9,-5.6 -2.3,-1.7 -5.6,-0.6 -8.5,-2.2 -2.2,-1.2 -5,-5.7 -5,-5.7 0,0 0.5,3.4 0.5,5.1 -0.5,1.1 -3.3,4.5 -3.3,4.5 0,0 6.7,0.6 9.5,3.9 2.8,4 2.8,7.9 1.2,11.3 -2.9,4.5 -8.5,6.8 -14.7,4 -2.8,-1.2 -5.6,-2.9 -5.6,-2.9 0,0 0,3.4 -0.6,5.1 -0.6,2.3 -1.1,3.9 -2.8,5.6 -2.8,2.9 -6.8,3.4 -10.1,3.4 -4,-0.5 -7.4,-1.7 -9.1,-5.1 -1.1,-1.6 -2.2,-5.6 -2.2,-5.6 0,0 -4.5,4.5 -6.8,4.5 -5,0.6 -9.5,-1.7 -11.8,-5 -1.7,-2.9 -2.6,-5.4 -2.7,-8.9 0,-1.6 0.6,-4.7 2.7,-6.4 0,0 -2.3,-0.5 -3.9,-1.6 -1.7,-1.2 -3.4,-2.9 -4,-4.6 -0.5,-3.3 -0.5,-6.7 0.6,-9.5 2.2,-4 5.6,-5.1 9.6,-4.5 2.8,0 6.7,3.3 8.4,5 3.4,3.4 7.9,2.9 11.3,2.3 3.3,-0.6 6.2,-4 9,-7.9 6.2,-9 7.3,-22.5 6.7,-33.2 0,-11.3 0.6,-25.4 0.6,-25.4 0,0 -9.6,-7.3 -14.1,-11.8 -6.2,-6.8 -19.1,-23.1 -19.1,-23.1 -6.8,-11.3 -11.9,-12.4 -20.3,-32.1 0,0 -11.8,-16.9 -15.2,-28.2 -1.7,-6.2 -1.7,-12.9 -0.6,-19.7 0.6,-36.6 -59,-35.9 -60.3,-92.4 1.5,-63.5 -2.5,-64.3 29.3,-91.2 9.4,-7.9 12.7,-6 18.1,-10.7 2.4,-2.1 3.2,-3.4 3.2,-4.5 0,-2.3 -1,-2.9 -1,-2.9 -1.7,-1.1 -4.5,-2.2 -5.6,-2.2 h -7.3 c 0,0 1.7,-4 1.1,-5.6 0,-1.7 -0.6,-3.4 -0.6,-5.1 0,-1.7 0.6,-3.4 2.3,-4 1.7,-1.1 6.2,-0.5 7.9,0 1.1,0 2.2,1.2 3.3,2.3 2.3,2.3 4,5.6 7.4,6.8 1.1,0.5 2.8,0.5 4.5,0 12.9,-5.1 10.7,-25.4 0.5,-32.7 -1.1,2.21 -2.2,3.41 -3.9,3.41 -2.3,0.49 -5.1,1.09 -7.3,-0.6 -3.4,-2.25 -11.9,-4.5 -14.7,-5.07 -0.5,-0.56 -1.1,-6.19 0.6,-10.14 0.6,-1.12 0.6,-2.81 0,-3.94 -4.5,-4.51 -3.4,-14.08 -0.6,-15.21 3.4,-1.13 15.2,-0.56 15.2,-0.56 0,0 10.7,0.56 13.6,-1.13 7.3,-4.51 11.8,-5.63 20.8,-5.07 14.1,1.13 31,8.54 39.4,19.15 4.7,5.95 6.3,13.42 7.3,23.06 0.5,5.3 1.5,9.5 1.2,13.5 -1.4,22 -11.3,26.5 -9.6,38.9 0,1.1 2.3,5.1 2.3,5.1 0,0 -3.4,-0.6 -4.6,-1.1 -1.1,-0.6 -3.3,-2.3 -3.3,-2.3 0,0 1.1,5.1 0.5,7.3 0,1.7 -1.7,5.7 -1.7,7.4 -0.5,2.8 1.2,5.6 1.2,5.6 -4,-0.6 -5.1,-3.4 -6.8,-5.6 0,0 1.1,3.9 0.6,6.7 -0.6,2.3 -1.7,5.6 -2.3,7.9 -0.5,2.2 1.1,7.3 1.1,7.3 -1.1,-0.5 -3.9,-1.1 -6.2,-6.2 0,0 1.7,5.7 1.2,9 0,2.9 -2.3,6.8 -2.3,9.6 -0.5,2.8 0.6,6.8 0.6,6.8 -1.7,-0.6 -4.5,-0.6 -6.2,-4 0,0 2.8,5.1 3.4,7.9 0.5,4 -1.7,9.6 -1.7,13 0,2.8 0.5,6.2 0.5,6.2 5.1,24.2 22,54 28.8,75.4 10.7,11.9 18.6,26 24.2,42.9 2.2,5.6 4.5,11.2 7.3,18 2.3,6.7 5.1,16.3 8.5,23.1 3.9,6.7 7.3,15.2 14,18.6 0,0 6.8,3.3 11.9,3.9 3.9,0.6 9,0 11.8,-2.8 5.6,-5.1 7.9,-8.5 7.3,-13.5 -0.5,-9.6 -9.5,-18 -18,-27.1 -3.9,-3.9 -7.9,-9.5 -10.1,-12.9 -8.5,-10.7 -33.3,-44 -41.7,-55.2 -5.1,-7.3 2.8,-14.7 9.6,-7.9 7.8,7.9 23,32.7 28.1,38.3 9,11.8 18.6,23.7 29.3,34.9 7.3,7.3 15.2,14.1 16.3,29.3 1.2,11.3 -5.6,22 -15.7,27.1 -10.7,6.1 -23.7,5 -35,-2.3 -8.4,-5.6 -13.5,-14.6 -18.5,-23.1 -6.2,-11.3 -9.1,-25.9 -14.1,-37.7 -3.4,-8.5 -7.3,-14.7 -10.7,-22 -2.3,-4.5 -8.5,-10.1 -8.5,-10.1 0,0 4,11.2 4.5,16.9 z" />
  </clipPath>
  <path id="shield" d="m 2 2 v 257 c 0 286 298 398 298 398 c 0 0 298 -112 298 -398 V 2 Z" />
</defs>
<use id="field" xlink:href="#shield" style="fill:#0080ff"/>
<path style="fill:#ffffff;" clip-path="url(#shield-clip)" d="m 0,660 v -60 l 300,-300 l 300,300 v 60z"/>
<g id="tiger" style="stroke-width:1;stroke-linecap:round;stroke-linejoin:round;">
  <g id="mouth">
    <path style="fill:#111111;stroke:#666666;" d="m 290.6,93.12 c 7.3,15.78 9.6,24.18 -8.5,38.28 l 12.4,1.7 9,-10.1 0.6,-16.4 -10.1,-12.36 z"/>
    <path id="tongue" style="fill:#bb0000;stroke:#990000;" d="m 259,95.93 c 0,0 -2.8,3.99 -2.2,7.27 0.5,4 1.7,7.4 5.1,9.6 5.6,2.8 15.7,0.6 21.4,2.3 9,2.8 20.8,14.1 20.8,14.1 l 2.3,-13.6 c 0,0 -11.9,-8.4 -19.2,-10.7 -6.8,-1.7 -16.3,2.3 -22.5,1.2 -2.3,-0.6 -2.8,-1.7 -4,-3.4 -1.7,-1.7 -1.7,-6.77 -1.7,-6.77 z"/>
    <path id="teeth" style="fill:#ffffff;stroke:#666666;" d="m 272,120.7 c 0.6,-2.8 0,-2.2 2.2,-8.4 1.2,3.3 1.2,5.6 3.4,9.5 0,1.2 -5,2.3 -5.6,-1.1 z m 3.4,-23.08 c 0.5,2.78 0,2.3 2.2,7.88 1.2,-2.8 1.2,-4.5 3.4,-7.88 0,-1.12 -4.5,-3.94 -5.6,0 z" />
  </g>
  <g id="right-arm">
    <use style="fill:#000000;stroke:none;" xlink:href="#right-arm-shape"/>
    <path id="right-arm-fingers" style="fill:none;stroke:#666666;" d="m 131.5,108.2 c -3.9,0.2 -10,-0.1 -13.8,-1.9 m 27.3,-4.7 c -11.8,-4.38 -12.7,-14.85 -14.4,-17.63" />
    <path id="right-arm-stripes" clip-path="url(#right-arm-clip)" style="fill:#ffffff;stroke:none;" d="m 169.3,133.5 c -3,15.5 -0.6,22 4.6,25.3 l -3.6,7.1 c -4.6,-5.9 -5.6,-19 -1,-32.4 z m 16.5,6.5 c -4.8,15 -1.2,24.2 2.3,27.7 l -1.8,8 c -8.4,-8.9 -7.2,-26.5 -0.5,-35.7 z m 16.4,6.5 c -6.6,16 -2.6,29 2.4,33.9 l -3.3,6.2 c -8.7,-9.6 -6.4,-31.1 0.9,-40.1 z m 16.4,6.6 c -6.6,21.5 -3.5,29 1.4,33.8 l 0.1,10.1 c -11.8,-8.1 -9.8,-32 -1.5,-43.9 z" />
    <use style="fill:none;stroke:#666666;" xlink:href="#right-arm-shape"/>
    <path id="right-arm-claws" style="fill:#ffffff;stroke:#666666;" d="m 107.1,108 c 2.3,-0.2 3.7,3 3.4,5.2 -0.3,2.4 -2.7,6.5 -4.5,5.7 -4.9,-3 -10.31,-1.8 -15.23,0.4 2.68,-7 8.98,-11.1 16.33,-11.3 z m 10.4,-30.02 c 1.8,0.94 2.1,3.72 0.6,6.11 -0.8,2.37 -5,5.19 -6.5,3 -3.2,-4.18 -8.5,-5.31 -13.49,-5.4 4.99,-5.54 12.29,-6.32 19.39,-3.71 z m 31.2,0.55 c 0.7,2.19 -1.8,4.15 -4.1,4.33 -2.2,0.91 -7.4,-0.82 -6.5,-3.16 1.2,-4.64 -1.1,-10 -4.4,-13.67 8,0.24 13,5.36 15,12.5 z" />
  </g>
  <g id="right-leg">
    <use style="fill:#000000;stroke:none;" xlink:href="#right-leg-shape"/>
    <path id="right-leg-fingers" style="fill:none;stroke:#666666;" d="m 217.9,472.2 c 3.8,1.1 5.5,4.2 5.7,7.3 m -16.6,-8.7 c -4.5,1.9 -7.6,6.9 -4.9,13.2 m -11.2,-16.3 c -4.6,5.3 -11.4,-0.4 -15.2,9.6 m 10.1,-16.9 c -9.5,4.3 -14.7,-3.2 -22.5,0.5" />
    <path id="right-leg-stripes" clip-path="url(#right-leg-clip)" style="fill:#ffffff;stroke:none;" d="m 257.3,422.6 c 1.4,13.4 9.6,18.9 20.5,22.2 l -3.6,4.5 c -7.6,-0.7 -18,-8.9 -16.9,-26.7 z m -4.5,-20.2 c 4.5,20.2 32.3,30.5 39.6,26.9 l -0.1,5.8 c -10.7,1.6 -39.1,-5 -39.5,-32.7 z m 4.5,-35.5 c -2.1,24.2 12,46.3 30.4,47.3 l 0.9,8.1 c -28.5,-3.8 -40.1,-37.1 -31.3,-55.4 z m 18.6,-17.5 c -7.7,17.1 -4.2,47.1 14.2,50.6 l 0.9,8.1 c -28.7,-9.4 -29.2,-47.6 -15.1,-58.7 z m 12.4,3.9 c -2.7,10.7 -3.9,26.2 5.8,40.1 -16.6,-10.9 -13.4,-29.7 -5.8,-40.1 z" />
    <use style="fill:none;stroke:#666666;" xlink:href="#right-leg-shape"/>
    <path id="right-leg-claws" style="fill:#ffffff;stroke:#666666;" d="m 219.6,485.2 c 0.6,-2.3 -2.8,-2.9 -5.1,-2.9 -2.2,0.6 -6.7,3.4 -5,5.1 2.8,4.5 1.7,10.2 0.5,14.7 6.8,-2.9 10.2,-9.6 9.6,-16.9 z m -41.7,-4 c 1.1,-2.2 4,-1.1 6.2,0.6 1.7,1.7 3.4,6.7 1.1,7.3 -5,1.7 -7.8,6.8 -9.5,11.8 -4,-6.7 -2.3,-14 2.2,-19.7 z m -17.4,-15.8 c 2.2,-0.5 3.9,1.7 4.5,4.6 0,2.2 -1.7,7.3 -4,6.1 -5,-1.6 -10.1,0.6 -14.1,3.4 1.2,-7.9 6.8,-12.4 13.6,-14.1 z m 5,-17.4 c 2.3,0 3.4,2.8 3.4,5.1 -0.6,2.2 -2.8,6.7 -4.5,5.6 -5.1,-2.3 -10.1,-1.1 -15.2,1.1 2.8,-7.3 9,-11.3 16.3,-11.8 z" />
  </g>
  <path id="pizzle" style="fill:#000000;stroke:#666666;" d="m 278.2,309.4 14.1,16.3 c 0,0 2.2,18.1 -2.3,22 -2.2,-7.3 -12.9,-22 -18,-29.3 -1.1,-2.2 4.5,-6.2 6.2,-9 z"/>
  <use id="body" style="fill:#000000;stroke:none;" xlink:href="#body-shape"/>
  <path id="thigh" style="fill:none;stroke:#666666;" d="m 313.3,293.9 c 1,10.2 -2,13.6 -10.4,20.9 -5.7,4.8 -11.1,16.6 -12.9,23.9"/>
  <path id="tail-stripes" clip-path="url(#body-clip)" style="fill:#ffffff;stroke:none;" d="m 368.2,351.3 c 4.4,-0.5 0.1,-19.5 16.7,-0.3 l -5.8,-18.3 c -10.5,-10.7 -15.5,-9 -17.2,-4.6 -1.1,2.8 1.3,7.2 -2,8.2 z m 12.7,33.2 c 7.6,2.4 -0.7,-18.4 18.2,3 l -3.1,-7.6 c -16.8,-35.9 -16.8,-15.1 -19.8,-10.7 z m 28.4,41.6 c 2.1,-7.3 -12.7,-11 6.3,-15.4 l -9.9,-10.6 c -12.3,-9.7 -17.2,-7.8 -15.6,4.1 3.6,10.7 9.4,18.7 19.2,21.9 z m 26.2,-14.3 c 3.4,3.4 -0.3,8.1 1.3,10.2 1.9,2.8 6.4,0.6 8.2,4 l -7.6,3.7 c -19,-3.1 -25.7,-8.5 -16.7,-16.9 z m 6.2,-18.8 c 9.8,5.7 12.3,-1.3 13.1,-11.5 4.2,8.7 11.3,15.4 3.3,31.7 -4.5,-0.6 -10.1,5.7 -12.2,3.5 -2.3,-2.4 -1,-9.6 -3.7,-11.6 z m -23.6,-29.6 12.7,15.4 c 15.6,11.4 15.5,1 16.8,-6.1 l -9.9,-11.7 c -7,0.5 -1.3,12.6 -19.6,2.4 z m -17.1,-22.4 7.3,9.8 c 18.3,14.3 21.8,7 18.5,-1.2 l -3.1,-4.3 c -10.3,-6.9 -19,-10.7 -22.7,-4.3 z m -14.2,-19.1 c -3,-12 5.7,-14.3 17.8,-1.8 l 7.8,11.4 c -6.8,-0.8 -12.8,-6.8 -19.4,-1.2 z m -6.6,-9.4 c -2.1,-10 4.9,-14.1 13.7,-7 l -11.7,-20.1 -15.8,9.7 z" />
  <path id="front-stripes" clip-path="url(#body-clip)" style="fill:#ffffff;stroke:none;" d="m 298.8,143.9 c -13.9,9.3 -25.4,6.7 -37.4,6.6 l 11.9,-5.7 c 8.5,5.5 14.5,1.9 25.5,-0.9 z m 12.4,4.7 c -15,18.9 -46.2,6.3 -66.4,17.1 16,-19.2 39.3,-2.4 66.4,-17.1 z m -32,16.3 c -7.9,12.8 -32.4,8.1 -48.7,17.8 17.2,-19.1 27.6,-8.7 48.7,-17.8 z m -12.7,14 c -8.1,10.1 -14.4,17.5 -38.1,18.3 l 1.5,-7 c 13,0.1 24,-0.2 36.6,-11.3 z m -5.6,25.1 c -11.2,3.6 -21.7,8.8 -36.6,3.4 -0.2,21.4 23.5,7.5 36.6,-3.4 z m 2.5,32.9 c -20.7,12.9 -32.5,14.9 -38.6,9.6 3.4,20.3 27.4,8.5 38.6,-9.6 z m 11.4,14.5 c -7.4,14.7 -12.9,31.1 -30.4,36.5 l -8.2,-11.7 c 25.4,0.9 27.3,-15.4 38.6,-24.8 z m 5.6,20.8 c -5.5,14.5 -12.1,26.4 -23.8,26.4 15.2,13.8 22.2,-9.4 23.8,-26.4 z m 13,16.9 c -1.8,12.5 -2.8,33.1 -16.2,25.8 l -3.5,-3.6 c 12.4,3.9 15.5,-12.9 19.7,-22.2 z" />
  <path id="back-stripes" clip-path="url(#body-clip)" style="fill:#ffffff;stroke:none;" d="m 368.8,99.51 2.1,25.49 -14.6,42.8 -18.3,66.3 26.3,78.6 c -10,-4.3 -14,0.5 -16.6,14.2 -3.3,7.7 -13.6,10.6 -15.5,24.3 -0.5,-10.2 2.5,-17 11.6,-27.3 2.7,-3.1 3.2,-8.5 5,-11.8 2.7,-4.9 1.6,-7.4 0,-9.4 -1,-1.3 -5,-4.5 -10.3,0.2 -7.9,6.8 -14.3,26.6 -26.1,27.1 7.4,-5.7 19.3,-23.2 22.8,-36.9 1.5,-5.8 0.5,-11.1 -1.5,-14.2 -8.8,-13.5 -27.5,17 -34.3,31.7 -2.5,-5.1 -1.9,-9.2 6.9,-20.8 10.2,-13.5 14.2,-17.9 18.3,-20.7 4,-2.7 4.3,-12.7 0.1,-15.4 -4.1,-2.6 -9,-0.5 -14.6,6.1 -6.5,7.6 -11.6,21.6 -14.8,22.5 -1.3,-6.6 6.4,-20.7 12.8,-27.1 10,-10 14.2,-6 13.5,-17.7 -0.8,-15.5 -6.8,-6 -22.5,5.8 -6.9,5.2 -14.8,13.8 -17.5,21.3 1,-15 16.4,-26.2 24.1,-33.3 21.6,-20.1 27.2,-42.5 30.9,-58.5 1.9,-8.4 -8.3,-2.4 -13.9,5.6 3.8,-12.5 10.1,-14.4 14.5,-16 2.7,-0.9 6.1,-1.8 6.3,-4 0.4,-3.6 0.3,-3.3 -3.6,-3 -12.9,0.9 -20.4,1.4 -28.6,9 3.5,-5.5 7.4,-10.5 17.3,-11.9 12.1,-1.7 16.8,-2.6 17.3,-4.9 1.2,-5.8 -9.7,-1.6 -11.5,-0.7 4.8,-5.2 14.6,-5 18.4,-8.6 6.6,-3.4 9.7,-29.7 7.3,-45.4 -0.3,-18.73 -7.8,-16.2 -12.5,-11.31 -0.8,-6.09 -4,-9.77 -6.2,-11.2 0.6,4.15 1.1,8.29 -0.9,12.44 -0.6,-5.22 -0.5,-10.58 -5.5,-15.79 -4.1,-4.32 -4.1,-2.61 -3.2,-0.98 2.3,4.43 2.4,7.59 1.5,11.48 -2,-5.38 -3.3,-12.16 -11.1,-16.42 -1.4,-0.79 -4.2,-1.17 -2.6,0.27 3.2,2.88 5.1,6.38 6,10.41 -6,-6.89 -11,-14.67 -28.7,-11.44 l 7.4,-4.28 20.9,-2.32 31.5,16.04 z" />
  <path id="left-leg-stripes" clip-path="url(#body-clip)" style="fill:#ffffff;stroke:none;" d="m 336.2,377 c 9.5,-4.5 21.4,-7.7 26.4,-25.5 l -2.3,-13 c -5.2,18.2 -15.6,31.1 -24.1,38.5 z m -25.3,-62.5 c -2,13.1 -6.2,41.9 -26.3,31.4 l 1.6,-12.2 c 9.8,11.3 17.6,0 24.7,-19.2 z m 11.2,18.6 c -3,13.2 -5.7,38.4 -31.6,37.3 l -2.3,-8.8 c 18.6,2.8 27.7,-10.4 33.9,-28.5 z m 28.8,2.8 c -5.1,11.5 -10.3,23.7 -20.2,30.2 -5.5,3.6 -9.4,1.4 -16.9,4.8 -9.2,4.1 -13.4,4.7 -19.7,5.8 l 11.6,17.5 c 4.3,-4.3 10.8,-5.4 14.9,-8.2 21.1,-14.3 25.1,-30.2 30.3,-50.1 z m -25.9,37.4 c 0.3,0 0.4,0.1 0.5,0.3 1.1,1.7 -4.4,6.3 -9,8.5 -4.6,2.2 -3.7,0.9 -4.1,-0.7 -0.2,-0.6 0.1,-1.3 1.8,-2.1 4,-1.7 9.2,-6.1 10.8,-6 z m 30.4,-2.5 c -4.2,12.5 -7.3,15.7 -17.4,19.8 -3.1,1.2 -4.3,5.8 -7.4,7.8 -10.2,6.4 -13.3,2.6 -20.9,5.5 0.9,1.8 6.1,7.2 7,9 8.5,-2.3 14.6,1.2 22.1,-2.7 4.5,-2.3 3.4,-7.3 7.5,-12.7 4.2,-5.7 9.7,-16.7 9.1,-26.7 z m -16.1,26.8 c 0.1,0 0.2,0.1 0.3,0.3 0.6,1.1 -0.9,6.4 -4.5,8.4 -4,2.3 -7.7,1.3 -7.9,-1.1 -0.2,-2.2 2.3,1.1 5.6,-1.2 3.1,-2.2 5.5,-6.5 6.5,-6.4 z m 20,-0.3 c -5,31.2 -16.3,39.1 -22.9,37.3 l -6.2,-7.3 c 14.9,5.1 23.6,-20.2 29.1,-30 z m 5.6,23.6 c -3.9,15.6 -18.8,16.9 -24.4,20.4 18.8,12.3 21.1,-1.4 24.4,-20.4 z m 3.4,66 c 4.4,-17.4 -2,-28.2 -9,-33.3 l -3.3,10.9 c 12.7,1.4 11,12.9 12.3,22.4 z m -4.5,15.7 c 0.1,-5.8 1.7,-12.3 -6.8,-14.6 v -11.6 c 6.7,7.8 9.8,16.3 6.8,26.2 z m -5.1,14.1 c -0.1,-6.2 -1.1,-10.7 -7.5,-6.6 l 4.6,-15 c 3.8,6.8 5.5,13.9 2.9,21.6 z m 18.6,-47.9 c 6.3,-9.6 9.9,-22.1 7.7,-34 15.3,8.8 -0.5,28.7 -7.7,34 z m -1.1,25.4 c 4.6,-8.9 11.2,-14 20.7,-12.9 l -6,-6.5 c -6.4,-1.2 -12.2,11.9 -14.7,19.4 z m -1.1,23.6 c 4.5,-14.6 11.3,-16.1 19.1,-11.9 l -3.2,-6.8 c -11.5,-2.5 -13.8,10.7 -15.9,18.7 z" />
  <use style="fill:none;stroke:#666666;" xlink:href="#body-shape"/>
  <g id="left-leg">
    <path id="left-leg-fingers" style="fill:none;stroke:#666666;" d="m 363.8,534.2 c -1,1.7 -1.6,7.5 0.6,11.2 m -13,-10.7 c -4,4.7 -11.5,4.4 -11.8,14.1 m -2.3,-20.3 c -5.7,4.3 -11.7,0.6 -16.3,4.5" />
    <path id="left-leg-claws" style="fill:#ffffff;stroke:#666666;" d="m 384.7,539.1 c -1.2,-1.7 -4,-0.6 -5.7,1.6 -1.7,1.7 -2.8,6.8 -0.5,6.8 5,1.7 8.4,6.2 10.1,10.7 3.4,-6.8 1.7,-14.1 -3.9,-19.1 z m -38.4,17.6 c 0,-2.3 2.9,-3.4 5.1,-3.4 2.8,0 6.8,2.3 5.7,4.5 -2.3,4.5 -1.2,10.2 1.1,14.7 -7.3,-2.3 -11.3,-8.5 -11.9,-15.8 z m -24.6,-15.9 c 1.6,-1.6 4.5,0 5.6,2.3 1.1,2.3 1.7,7.3 -0.6,7.3 -5.6,0.6 -9.6,4.5 -12.4,8.5 -1.7,-7.4 1.2,-14.1 7.4,-18.1 z m -4.6,-24.7 c 1.6,0 2.8,2.9 2.8,5.7 -0.6,2.2 -3.4,6.2 -5.1,5 -4.5,-2.8 -10.1,-2.2 -14.6,-0.5 2.8,-6.8 9,-10.2 16.9,-10.2 z" />
  </g>
  <g id="left-arm">
    <use style="fill:#000000;stroke:none;" xlink:href="#left-arm-shape"/>
    <path id="left-arm-fingers" style="fill:none;stroke:#666666;" d="m 185.4,239.5 c -16.7,-4.7 -14.8,-11.1 -21.2,-18 m 13.6,25.8 c -8.4,1.4 -12.5,0.9 -17.7,0.2" />
    <path id="left-arm-stripes" clip-path="url(#left-arm-clip)" style="fill:#ffffff;stroke:none;" d="m 207.9,245.4 c 0.4,21.7 -14.3,34.3 -37.2,39 l 3.4,-10.9 c 19.2,-2.3 27.8,-10.6 33.8,-28.1 z m 19.3,-4.3 c 3,10.2 -1.4,28.7 -13.8,40.4 l -2.5,-6.5 c 5.8,-11.1 16.5,-14.5 16.3,-33.9 z m 17.1,-7.7 c 1,16.9 0.1,29.4 -13.5,34.7 l 1.3,10.6 c 15.8,-10 17.9,-32.6 12.2,-45.3 z m 20,19.3 3.3,10 -16,7.3 -0.4,-8.5 c 14,-3.8 9.1,-31 8,-37 4.7,7.8 5.9,18.4 5.1,28.2 z m 9.5,-39.4 c -1.3,11.6 6.5,28.3 0.3,31.4 1.1,6.7 1.7,12 5.9,7.6 -0.2,-5.8 2.5,-9.3 1.7,-15.5 -1.1,-8.2 -5.8,-12.9 -7.9,-23.5 z m 11.6,27.6 c 10.4,-1.6 11.1,-10.1 11,-16.8 -0.3,-12.6 -5.1,-28 -8.9,-38.7 1.6,20 5.6,41.5 -2.1,55.5 z m 16.3,-70.6 c -16.5,-1.9 -25.5,5.8 -29.6,12.2 -3.8,6.1 -4.6,19.8 1.6,26.1 -1.7,-8.9 0.4,-19.5 2.3,-22.5 6,-9.6 9.4,-13 25.7,-15.8 z" />
    <path id="left-arm-stripes2" style="fill:#ffffff;stroke:none;" d="m 306.6,211.9 c 6.7,-10.5 0.2,-21.4 -0.7,-28.3 14.6,5 7.1,24.4 0.7,28.3 z" />
    <use style="fill:none;stroke:#666666;" xlink:href="#left-arm-shape"/>
    <path id="left-arm-claws" style="fill:#ffffff;stroke:#666666;" d="m 151.1,252.8 c 2,-1.3 4.5,0.9 5.1,3.1 0.9,2.6 0.1,7.6 -1.9,7.1 -5.5,-0.7 -10.4,2.6 -14,6.2 0,-7.7 4,-13.6 10.8,-16.4 z m -0.4,-33 c 2,0.6 2,4.2 0.8,6.2 -1.1,2.1 -4.9,5.1 -6.1,3.2 -3.6,-4.2 -8.6,-5 -14,-5 4.7,-5.7 12.6,-7 19.3,-4.4 z m 27.4,-10.4 c 1.8,1.8 0.2,4.1 -1.7,5.8 -1.9,1.2 -7.1,1.7 -7.2,-0.7 -1.1,-5 -5.3,-8.9 -9.5,-11.1 7.5,-2.4 14.3,0.2 18.4,6 z" />
  </g>
  <g id="head">
    <path id="nose" style="fill:#ffffff;stroke:none;" d="m 268.1,81.29 c 0,0 1.6,0 2.8,-0.56 -1.2,-6.19 2.2,-5.63 4.5,-5.08 0.5,-0.56 2.2,0.57 2.2,0 0.6,-1.12 2.8,-3.94 1.7,-4.5 -2.2,-2.81 -9.6,-7.32 -14.1,-2.81 -1.3,4.96 0,8.98 2.9,12.95 z"/>
    <path id="cheek" style="fill:none;stroke:#ffffff;" d="m 336.8,96.5 c 1.1,5.6 5,12.9 9.5,11.3 -5,2.8 -10.1,1.6 -14.6,-2.9 -0.6,4 3.7,9 11,10.7 -5,4 -12.7,0.6 -14.9,-2.8 -0.6,2.3 3.9,10.2 7.8,11.3 -0.5,-0.6 -7.8,1.7 -15.2,-8.5 0.6,4 6.2,10.7 -2.8,13.6 1.1,-2.3 1.7,-6.2 -1.1,-8.5 m 23.1,-30.95 c 5.6,3.37 5.6,5.62 7.3,9.56 3.4,6.79 5.1,10.69 11.8,7.29 -1.6,5.7 -5,7.9 -13.5,6.2 -3.4,3.4 4,11.9 8.5,11.3 -3.4,3.9 -10.2,1.7 -14.7,-1.1 -1.1,5 5.1,16.3 9.6,16.9 -7.9,1.6 -19.7,-5.7 -20.3,-12.4 -2.2,2.8 0.6,9 5.7,14 -4.5,1.2 -13.6,-5 -14.1,-7.8 -1.7,1.7 -1.2,6.2 1.1,8.4 0.6,0.6 -5.6,0.6 -7.3,-7.9 -1.7,2.3 -2.3,8.5 -11.9,8.5 1.7,-2.3 2.9,-1.2 5.1,-6.2 -3.4,2.2 -10.1,3.3 -13.5,3.4 -4.6,0.2 -12.1,-1.3 -14.1,-2.9" />
    <path id="eye-stripes" style="fill:#ffffff;stroke:none;" d="m 290.6,72.27 c -2.8,0.57 -5.5,3.91 -5.1,6.76 0.3,2.22 1.7,5.07 4.5,6.2 -4.5,-3.94 -1.1,-11.83 0.6,-12.96 z m 5.1,-2.25 c -7.9,5.63 -6.2,19.15 5.6,18.59 -10.7,-2.82 -8.5,-16.34 -5.6,-18.59 z m 10.7,34.88 c 5,4 9.6,5.3 15.2,2.9 5.1,-2.1 6.7,-7.4 5.6,-12.99 0,0 -1.1,6.79 -2.3,7.89 -2.2,2.2 -5,3.4 -7.8,3.9 -3.4,0.6 -10.7,-1.7 -10.7,-1.7 z m 16.9,-19.11 c -3.4,4.52 -8.4,8.88 -14.1,6.77 -3.4,-1.27 -6.2,-4.46 -10.2,-2.25 -1.1,0.59 -0.5,1.69 1.7,3.94 11.9,6.15 20.9,-2.25 22.6,-8.46 z m -20.9,11.83 c 0,0 4,5.08 6.8,6.18 2.8,1.1 6.7,1.1 9.5,0 2.3,-1.1 4,-2.2 5.1,-4.49 1.1,-2.81 0,-9.56 0,-9.56 0,0 -1.9,3.73 -3.4,5.06 -2.4,2.06 -4.5,4.2 -7.8,4.5 -3.4,0.3 -10.2,-1.69 -10.2,-1.69 z" />
    <g id="eye">
      <path style="fill:#ffffff;stroke:none;" d="m 296.8,69.48 c -1.2,-1.23 -0.8,-1.74 -0.8,-1.74 l 0.3,-1.12 0.8,0.88 v 0 0 c 0,0 3,3.19 8.9,5.95 2.5,1.14 6.5,1.39 9.6,2.49 1.4,0.57 3,1.35 3.5,2.81 0.8,1.54 0.8,3.39 -0.1,5.85 -1.1,-0.86 -0.4,-2.88 -1.2,-5.03 -0.4,-0.95 -1.3,-1.48 -2.7,-1.95 -2.7,-0.95 -6.7,-1.23 -9.7,-2.59 -5.6,-2.64 -7.6,-4.28 -8.6,-5.55 z" />
      <path style="fill:#ffffff;stroke:#666666;" d="m 298.7,75.12 c -0.7,2.37 1.6,7.66 5.5,8.97 4,1.41 8.3,-1.74 9,-4.19 0.7,-2.47 -2.7,-3.06 -6.7,-4.38 -4,-1.3 -7,-2.88 -7.8,-0.4 z"/>
      <path style="fill:#333333;stroke:none;" d="m 300.1,77.19 a 3.263,3.564 3.417 0 0 1.7,4.69 3.263,3.564 3.417 0 0 4.4,-1.92 3.263,3.564 3.417 0 0 -1.8,-4.66 3.263,3.564 3.417 0 0 -4.3,1.89 z"/>
      <path style="fill:#000000;stroke:none;" d="m 303.4,77.05 c 0.7,0.42 1.3,1.39 0.8,2.26 -0.3,1 -1.2,1.34 -2.1,0.86 -0.9,-0.35 -1.3,-1.38 -0.9,-2.21 0.4,-0.9 1.4,-1.25 2.2,-0.91 z"/>
      <path style="fill:#ffffff;stroke:none;" d="m 302.7,76.25 c 0.6,0.2 1,0.97 0.7,1.64 -0.2,0.69 -1,0.84 -1.6,0.59 -0.5,-0.2 -0.8,-0.93 -0.6,-1.58 0.4,-0.62 1.1,-0.87 1.5,-0.65 z"/>
    </g>
    <g id="ear">
      <path style="fill:#000000;stroke:#666666;" d="m 350.8,81.59 c 1.2,-2.79 3.6,-4.36 4.2,-4.92 3,-2.79 9.9,-3.83 20.1,-0.45 -1.1,2.25 -2.3,10.7 -4.5,15.77 -1.7,3.38 -4.1,7.32 -8.5,9.01 -3.3,1.3 -5.5,1.8 -9,1.7"/>
      <path style="fill:#ffffff;stroke:none;" d="m 367.8,81.85 c -4.6,-0.56 -9,2 -11.3,4.52 -2.2,2.38 -2.8,6.19 -2.8,10.7 0,0 1.4,0.62 2.8,0.56 3.3,-0.15 5.6,-1.12 5.6,-1.12 -3.7,2.91 -7.2,3.31 -10.1,2.2 -1,-5.56 0.5,-11.09 3.4,-14.61 3.3,-3.93 9,-5.07 12.4,-2.25 z"/>
    </g>
    <path id="whiskers" style="fill:#ffffff;stroke:none;" d="m 273.4,88.33 c -0.7,-0.45 -1.4,-0.39 -1.9,0.29 -0.4,0.59 -0.1,1.41 0.5,1.92 0.4,0.23 1.6,0.31 1.9,-0.29 0.4,-0.69 0,-1.56 -0.5,-1.92 z m 4.6,2.56 c -0.5,-0.37 -1.4,-0.36 -1.9,0.32 -0.4,0.56 -0.2,1.56 0.4,1.94 0.6,0.41 1.5,0.17 1.8,-0.43 0.5,-0.66 0.3,-1.42 -0.3,-1.83 z m 4,0.69 c -0.6,-0.36 -1.6,-0.31 -2,0.47 -0.4,0.5 -0.1,1.52 0.4,1.87 0.7,0.47 1.5,0.2 1.8,-0.31 0.5,-0.76 0.5,-1.58 -0.2,-2.03 z m -6.2,-7.19 c -0.6,-0.41 -1.3,-0.18 -1.7,0.4 -0.5,0.63 -0.4,1.48 0.3,1.91 0.6,0.4 1.4,0.21 1.7,-0.48 0.5,-0.57 0.3,-1.42 -0.3,-1.83 z m 4.5,2.41 c -0.8,-0.49 -1.3,-0.36 -1.8,0.33 -0.4,0.6 -0.3,1.41 0.4,1.88 0.7,0.44 1.6,0.3 2,-0.3 0.4,-0.65 0.1,-1.46 -0.6,-1.91 z m 5,0.4 c -0.7,-0.45 -1.5,-0.27 -1.8,0.33 -0.6,0.7 -0.4,1.61 0.1,1.98 0.6,0.36 1.6,0.32 2.1,-0.45 0.4,-0.59 0,-1.53 -0.4,-1.86 z" />
  </g>
</g>
<use id="shine" xlink:href="#shield" fill="url(#rg)" stroke="#000" stroke-width="3"/>
</svg>
