<?xml version="1.0" encoding="UTF-8"?>
<svg xmlns="http://www.w3.org/2000/svg" xmlns:xlink="http://www.w3.org/1999/xlink" width="600" height="660">
<defs>
  <radialGradient id="rg" gradientUnits="userSpaceOnUse" cx="220" cy="220" r="405">
    <stop style="stop-color:#fff;stop-opacity:.3" offset="0"/>
    <stop style="stop-color:#fff;stop-opacity:.2" offset=".2"/>
    <stop style="stop-color:#666;stop-opacity:.1" offset=".6"/>
    <stop style="stop-color:#000;stop-opacity:.13" offset="1"/>
  </radialGradient>
  <clipPath id="shield-clip">
    <path id="shield" d="m2,2v257c0,286 298,398 298,398c0,0 298-112 298-398V2z" />
  </clipPath>
  <g id="straight-ray" style="stroke:#880000;stroke-width:1;stroke-linecap:round;stroke-linejoin:round;">
    <path style="fill:#cc0000;" d="m 300,75 15.3,151.1 -61.2,-37 z"/>
    <path style="fill:#aa0000;" d="m 300,75 45.9,114.1 -45.9,37 z"/>
  </g>
  <g id="wavy-ray" style="stroke:#880000;stroke-width:1;stroke-linecap:round;stroke-linejoin:round;">
    <path style="fill:#cc0000;" d="m 330.6,167.8 -36.3,-71.96 5.7,-20.84 c -6.8,8.46 -14.1,16.94 -17.5,26.5 -3.4,9.7 -2.2,19.6 0,29 2.2,9.3 4.6,17.7 1.8,24 -2.7,6.2 -10.2,12.4 -18.7,19.3 -2.7,2.1 -10.1,8.1 -13,10.7 -7.3,6.4 -10.1,10.7 -14.5,21.4 l 53.8,0.7 z"/>
    <path style="fill:#aa0000;" d="m 300,75 c -7.2,7.79 -8.1,17.63 -8.4,26.4 -0.4,8.7 3.4,17.5 8.4,26.3 5.1,8.7 10.6,17.5 11.2,26.2 0.6,8.8 -4.3,17.6 -11.2,26.3 -6.9,8.8 -14.8,17.5 -15.9,26.3 0,0 0,0 0,0 l 61.7,0.9 c -4.9,-3.3 -1.7,-12.9 1.7,-22.9 3.4,-10.2 5.6,-19.8 0.4,-31.6 -5,-11.5 -15.4,-20.2 -24.3,-28.1 -8.6,-7.7 -16.1,-15.2 -19.8,-23.4 -3.7,-8.17 -3.8,-12.94 -3.8,-26.4 z"/>
  </g>
  <g id="sun" transform="translate(300,125)scale(0.3)translate(-300,-300)">
    <g id="wavy-rays" transform="rotate(22.5,300,300)">
      <use xlink:href="#wavy-ray" transform="rotate(0,300,300)"/>
      <use xlink:href="#wavy-ray" transform="rotate(45,300,300)"/>
      <use xlink:href="#wavy-ray" transform="rotate(90,300,300)"/>
      <use xlink:href="#wavy-ray" transform="rotate(135,300,300)"/>
      <use xlink:href="#wavy-ray" transform="rotate(180,300,300)"/>
      <use xlink:href="#wavy-ray" transform="rotate(225,300,300)"/>
      <use xlink:href="#wavy-ray" transform="rotate(270,300,300)"/>
      <use xlink:href="#wavy-ray" transform="rotate(315,300,300)"/>
    </g>
    <g id="straight-rays">
      <use xlink:href="#straight-ray" transform="rotate(0,300,300)"/>
      <use xlink:href="#straight-ray" transform="rotate(45,300,300)"/>
      <use xlink:href="#straight-ray" transform="rotate(90,300,300)"/>
      <use xlink:href="#straight-ray" transform="rotate(135,300,300)"/>
      <use xlink:href="#straight-ray" transform="rotate(180,300,300)"/>
      <use xlink:href="#straight-ray" transform="rotate(225,300,300)"/>
      <use xlink:href="#straight-ray" transform="rotate(270,300,300)"/>
      <use xlink:href="#straight-ray" transform="rotate(315,300,300)"/>
    </g>
    <circle id="disk" style="fill:#cc0000;stroke:#880000;stroke-width:1;stroke-linecap:round;stroke-linejoin:round;" cx="300" cy="300" r="120"/>
  </g>
  <g id="star" transform="translate(300,35)scale(0.3)" style="stroke:#bfbf00;stroke-width:1;stroke-linecap:round;stroke-linejoin:round;">
    <path style="fill:#ffff00;" d="m -0.1,-72.04 -16,49.73 h -52.33 l 42.33,30.733 -16.33,49.727 42.33,-30.73 42.33,30.73 -16.33,-49.727 42.33,-30.733 h -52.33 z"/>
    <path style="fill:#d5d500;" d="m -68.44,-22.27 68.4,22.27 -16.1,-22.27 z m 26.1,80.47 42.3,-58.2 -26.1,8.5 z m 84.6,0 -42.3,-58.2 v 27.5 z m 26.2,-80.47 -68.5,22.27 26.2,8.5 z m -68.5,-49.62 v 71.89 l 16.2,-22.27 z"/>
  </g>
</defs>
<g id="background" clip-path="url(#shield-clip)">
  <path style="fill:#000000;" d="m 0,0 h 600 v 660 h -600 z"/>
  <path style="fill:#6dc4f9;" d="m 0,300 h 600 v 360 h -600 z"/>
  <path style="fill:#800080;" d="m 600,0 l -300, 300 l 300, 300 z"/>
  <path style="fill:#ffff00;" d="m 0,0 l 300, 300 l -300, 300 z"/>
</g>
<g clip-path="url(#shield-clip)">
  <g id="sun-stars" transform="translate(0,-10)">
    <use xlink:href="#sun"/>
    <use xlink:href="#star" transform="rotate(30,300,125)rotate(-30,300,35)"/>
    <use xlink:href="#star" transform="rotate(-30,300,125)rotate(30,300,35)"/>
    <use xlink:href="#star" transform="rotate(90,300,125)rotate(-90,300,35)"/>
    <use xlink:href="#star" transform="rotate(-90,300,125)rotate(90,300,35)"/>
    <use xlink:href="#star" transform="rotate(150,300,125)rotate(-150,300,35)"/>
    <use xlink:href="#star" transform="rotate(-150,300,125)rotate(150,300,35)"/>
  </g>
  <g id="lute" transform="translate(10)" style="fill:#c8ab37;stroke:#65561b;stroke-width:1;stroke-linecap:round;stroke-linejoin:round;">
    <path id="body" style="stroke:none;" d="m 518.7,135.6 55.8,19.3 -1.9,12 c 0,0 -10.5,0.5 -11.7,0.5 -1.2,0 -39.7,-9 -39.7,-9 l -11.8,91.8 c 76.2,56.6 30.5,175 -43.4,164.4 -13.9,-0.2 -24,-10.7 -30.6,-23.8 -0.3,-0.7 -0.7,-1.2 -0.8,-1.9 -0.2,-0.1 -0.2,-0.3 -0.4,-0.5 -18.4,-39.4 -10.9,-116.8 36.1,-132.8 l 21,-120.6 z"/>
    <path id="shadow" style="fill:#000000;fill-opacity:0.3;stroke:none;" d="m 548.5,332.8 c -9,9.7 -24.3,8.4 -32.5,4.6 -6.5,41.1 -32.6,78.6 -58,73.6 -10,-2 -17.9,-10.4 -23.5,-22.3 0,0 0,0 -0.1,0 0.1,0.1 0.1,0.2 0.2,0.2 0.1,0.7 0.5,1.2 0.8,1.9 6.6,13.1 16.7,23.6 30.6,23.8 45.2,6.5 79.8,-35.3 82.5,-81.8 z m -26.5,-180.5 50.6,14.6 -11.7,0.5 -39.7,-9 z" />
    <path id="outline" style="fill:none;" d="m 572.6,166.9 c 0,0 -10.5,0.5 -11.7,0.5 -1.2,0 -39.7,-9 -39.7,-9 m -11.7,91.8 c 27.7,26.9 33.7,67.9 25.7,103 -8.6,38.9 -36.2,62.3 -69.2,61.6 -15.5,-0.4 -26.4,-13.5 -32.8,-28.6 m 83.8,-251.2 -22.2,125.5 c 51,46.1 6.1,159 -36.8,150.5 -42.9,-8.7 -49.1,-134.6 12.3,-155.4 l 21,-120.6 z m 0,0 57.5,19.9 -1.9,12 -50.6,-14.6 -12.5,97.9 c 76.1,56.6 30.4,175 -43.5,164.6" />
    <path id="bridge" style="fill:none;stroke:#65561b;stroke-width:2.6;" d="m 476.6,386.2 -31.1,-5.4" />
    <g id="pegs" style="fill:#65561b;stroke:#3e3411;stroke-width:0.2;">
      <g transform="rotate(36.75,533.6,145.8)">
        <circle cx="533.6" cy="145.8" r="1.851" />
        <ellipse ry="0.6101" rx="4.481" cy="145.8" cx="533.6" />
      </g>
      <g transform="rotate(44.45,536.6,191.1)">
        <circle cx="533.6" cy="145.8" r="1.851" />
        <ellipse ry="0.6101" rx="4.481" cy="145.8" cx="533.6" />
      </g>
      <g transform="rotate(-4.591,634.8,-121.7)">
        <circle cx="533.6" cy="145.8" r="1.851" />
        <ellipse ry="0.6101" rx="4.481" cy="145.8" cx="533.6" />
      </g>
      <g transform="rotate(73.03,536.6,155)">
        <circle cx="533.6" cy="145.8" r="1.851" />
        <ellipse ry="0.6101" rx="4.481" cy="145.8" cx="533.6" />
      </g>
    </g>
    <g id="hole" transform="matrix(0.0702,0.011,-0.0158,0.0824,454.7,295.3)" style="stroke:#3e3411;stroke-width:2.6;">
      <circle style="fill:#947e29;" cx="300" cy="300" r="298"/>
      <path style="fill:#65561b;" d="m 300,1 c -165.1,0 -299,133.9 -299,299 0,165.1 133.9,299 299,299 165.1,0 299,-133.9 299,-299 0,-165.1 -133.9,-299 -299,-299 z m -7,13.93 c -1.1,59.64 -16,119.47 -46.8,173.37 -61.4,-9.6 -117.4,-35.2 -164.75,-71.5 50.95,-60.69 126.65,-99.83 211.55,-101.87 z m 14,0 c 84.9,2.04 160.6,41.18 211.6,101.87 -47.4,36.3 -103.4,61.9 -164.8,71.5 -30.8,-53.9 -45.7,-113.73 -46.8,-173.37 z m -7,66.39 c 7.2,37.58 20,74.38 39.1,108.98 -12.9,1.5 -25.9,2.2 -39.1,2.2 -13.2,0 -26.2,-0.7 -39,-2.2 15.9,-29 27.5,-59.5 35.1,-90.7 1.4,-6.07 2.7,-12.17 3.9,-18.28 z m -227.27,46.38 c 45.97,38 83.47,87 106.47,144.7 -45.8,42 -100.81,69.9 -158.74,84.2 -3.68,-18.3 -5.62,-37.2 -5.62,-56.6 0,-64.8 21.56,-124.4 57.89,-172.3 z m 454.57,0 c 36.3,47.9 57.9,107.5 57.9,172.3 0,19.4 -2,38.3 -5.7,56.6 -57.9,-14.3 -112.9,-42.2 -158.7,-84.2 23,-57.7 60.5,-106.7 106.5,-144.7 z m -398.2,36 c 33.8,17.8 70.6,30.7 109.5,37.4 -6.9,10.9 -14.4,21.5 -22.6,31.9 -8.3,10.3 -17,20 -26.1,29.1 -15.2,-36.4 -35.9,-69.4 -60.8,-98.4 z m 341.8,0 c -24.9,29 -45.6,62 -60.8,98.4 -9.1,-9.1 -17.8,-18.8 -26.1,-29.1 -8.2,-10.4 -15.7,-21 -22.6,-31.9 38.9,-6.7 75.7,-19.6 109.5,-37.4 z m -170.9,42.6 c 29.1,0 55,13.2 72.1,33.9 0.4,0.5 0.8,0.9 1.1,1.4 0.2,0.3 0.5,0.5 0.7,0.8 12.4,15.9 19.8,35.9 19.8,57.6 0,36.8 -21.2,68.6 -52,83.9 -0.3,0.2 -0.7,0.3 -1.1,0.5 -0.3,0.2 -0.7,0.4 -1.1,0.5 -12,5.6 -25.4,8.8 -39.5,8.8 -14.1,0 -27.5,-3.2 -39.5,-8.8 -0.4,-0.1 -0.8,-0.3 -1.1,-0.5 -0.4,-0.2 -0.8,-0.3 -1.1,-0.5 -30.8,-15.3 -52,-47.1 -52,-83.9 0,-21.7 7.4,-41.7 19.8,-57.6 0.2,-0.3 0.5,-0.5 0.7,-0.8 0.3,-0.4 0.6,-0.9 1,-1.3 17.2,-20.8 43.1,-34 72.2,-34 z m -115.6,80 c 4.2,12.2 7.9,24.7 10.8,37.6 2.9,12.9 5.1,25.8 6.6,38.6 -31.8,-9.1 -64.2,-13.7 -96.3,-14.1 -6.24,-0.1 -12.47,0 -18.69,0.3 34.99,-15.4 68.09,-36.1 97.59,-62.4 z m 231.2,0 c 29.5,26.3 62.6,47 97.6,62.4 -6.2,-0.3 -12.5,-0.4 -18.7,-0.3 -32.1,0.4 -64.5,5 -96.3,14.1 1.5,-12.8 3.7,-25.7 6.6,-38.6 2.9,-12.9 6.6,-25.4 10.8,-37.6 z m -317.78,75.9 c 35.08,-0.2 70.58,4.6 105.28,15.1 4.3,62 -8.2,122.4 -33.1,176.6 -71.98,-36.9 -126.16,-103.5 -146.45,-183.6 24.33,-5.1 49.21,-7.9 74.27,-8.1 z m 404.38,0 c 25,0.2 49.9,3 74.2,8.1 -20.2,80.1 -74.4,146.7 -146.4,183.6 -24.9,-54.2 -37.4,-114.6 -33.1,-176.6 34.7,-10.5 70.2,-15.3 105.3,-15.1 z m -285,19.7 c 12.2,4.2 24.3,9.2 36.2,15 11.9,5.7 23.3,12 34.2,18.9 -32.2,22.9 -59.7,50.5 -82.5,81.2 9.9,-37 14.3,-75.7 12.1,-115.1 z m 165.6,0 c -2.2,39.4 2.2,78.1 12.1,115.1 -22.8,-30.7 -50.3,-58.3 -82.5,-81.2 10.9,-6.9 22.3,-13.2 34.2,-18.9 11.9,-5.8 24,-10.8 36.2,-15 z m -82.8,42.1 c 51.2,35.2 90.6,82.7 117.4,136 -35.8,16.2 -75.5,25.2 -117.4,25.2 -41.9,0 -81.6,-9 -117.4,-25.2 26.8,-53.3 66.2,-100.8 117.4,-136 z"/>
    </g>
    <g id="strings" style="fill:none;stroke:#112b00;">
      <path style="stroke-width:1.2;" d="m 452.5,382.1 43,-247.7"/>
      <path style="stroke-width:1.0;" d="m 457.9,383.1 43.2,-248.7"/>
      <path style="stroke-width:0.9;" d="m 463.3,384 43.4,-249.6"/>
      <path style="stroke-width:0.8;" d="m 468.7,385 43.5,-250.6"/>
    </g>
  </g>
  <g id="bat" transform="translate(5,175)scale(0.45)rotate(0,300,300)" style="stroke:#330000;stroke-width:1.5;stroke-linecap:round;stroke-linejoin:round;">
    <path style="fill:#cc0000;" d="m 265.1,256.4 c -3,1 -12.4,3 -22.9,1 -15.7,-3 -34.2,-11 -39.3,-13 -46.7,-16 -44,-14 -84.4,-14 -20.5,0 -34.98,7 -54.23,16 -22.73,4 -35.86,13 -51.41,30 28.46,3 43.53,18 53.93,38 45.21,-9 65.61,19 85.51,40 22.1,-23 66.4,-40 103.4,-3 14.5,-1 7.1,11 23.7,19 7.7,3 20.2,1 20.6,15 0.4,-14 12.9,-12 20.6,-15 16.6,-8 9.2,-20 23.7,-19 37,-37 81.3,-20 103.4,3 19.9,-21 40.3,-49 85.5,-40 10.4,-20 25.5,-35 53.9,-38 -15.5,-17 -28.6,-26 -51.4,-30 -19.2,-9 -33.7,-16 -54.2,-16 -40.4,0 -37.7,-2 -84.4,14 -5.1,2 -23.6,10 -39.3,13 -10.5,2 -19.9,0 -22.9,-1 -6.1,0 -16,-2 -34.9,-2 -18.9,0 -28.8,2 -34.9,2 z" />
    <path style="fill:#880000;" d="m 329.7,332.4 c 5.4,5 8,11 8.7,20 0.2,1 1.9,2 0.1,3 -6.1,5 -1,9 -0.2,10 1,-3 2.8,-4 1.6,-8 -0.2,-1 2.3,0 2,1 -1.2,2 -3.1,5 -1.6,9 3,0 5.9,-3 3.7,-9 h 2 c -1.4,3 -0.2,7 -0.4,9 1.3,0 5.6,0 2.4,-9 -0.2,-1 0.3,-1 0.7,-1 2.1,4 4.3,6 6.6,7 0.9,-4 -1.3,-7 -6.3,-9 -1.1,0 -0.7,-2 0.4,-1 2.3,3 4.6,3 7,3 -0.8,-3 -1.4,-5 -7.2,-5 -1.8,0 -3.1,0 -4.2,-2 -6,-9 -9.2,-16 -11.3,-23 -0.3,-4 -1.2,-7 -5.9,-7 -4.7,-4 -3.9,-9 -4.8,-14 2.8,-9 6.8,-15 7.5,-28 1.7,-3 3.5,-5 6.1,-7 2.5,-4 5.3,-5 8.7,-3 l 3.4,2 c 2.3,2 4.6,3 10.1,-1 18.6,-15 41.6,-23 65.5,-31 5.7,4 6.1,2 7.6,1 1.6,-2 2.5,-3 3,-6 3.7,-3 0.5,-5 4.7,-7 -1.6,0 -3.2,0 -4.7,1 -2.6,0 -3.1,5 -4.4,7 -1.1,-3 -7.1,-1 -12.2,3 -17.6,6 -34.7,11 -52.5,22 -16.5,10 -21.7,1 -30.9,-3 -12.6,-7 -7.4,-28 -34.9,-28 -27.5,0 -22.3,21 -34.9,28 -9.2,4 -14.4,13 -30.9,3 -17.8,-11 -34.9,-16 -52.5,-22 -5.1,-4 -11.1,-6 -12.2,-3 -1.3,-2 -1.8,-7 -4.4,-7 -1.5,-1 -3.1,-1 -4.7,-1 4.2,2 1,4 4.7,7 0.5,3 1.4,4 3,6 1.5,1 1.9,3 7.6,-1 23.9,8 46.9,16 65.5,31 5.5,4 7.8,3 10.1,1 l 3.4,-2 c 3.4,-2 6.2,-1 8.7,3 2.6,2 4.4,4 6.1,7 0.7,13 4.7,19 7.5,28 -0.9,5 -0.1,10 -4.8,14 -4.7,0 -5.6,3 -5.9,7 -2.1,7 -5.3,14 -11.3,23 -1.1,2 -2.4,2 -4.2,2 -5.8,0 -6.4,2 -7.2,5 2.4,0 4.7,0 7,-3 1.1,-1 1.5,1 0.4,1 -5,2 -7.2,5 -6.3,9 2.3,-1 4.5,-3 6.6,-7 0.4,0 0.9,0 0.7,1 -3.2,9 1.1,9 2.4,9 -0.2,-2 1,-6 -0.4,-9 h 2 c -2.2,6 0.7,9 3.7,9 1.5,-4 -0.4,-7 -1.6,-9 -0.3,-1 2.2,-2 2,-1 -1.2,4 0.6,5 1.6,8 0.8,-1 5.9,-5 -0.2,-10 -1.8,-1 -0.1,-2 0.1,-3 0.7,-9 3.3,-15 8.7,-20 17.3,-17 20.8,-5 29.7,-2 8.9,-3 12.4,-15 29.7,2 z" />
    <path style="fill:#880000;" d="m 286.7,253.4 c -2.4,-7 16.9,-11 2,-23 -8.9,-7 -8.5,-14 -12.8,-19 -1.1,-2 -3.6,-5 -5,0 -4.3,13 -4.5,31 10.5,51 9.3,1 17,9 18.6,6 1.6,3 9.3,-5 18.6,-6 15,-20 14.8,-38 10.5,-51 -1.4,-5 -3.9,-2 -5,0 -4.3,5 -3.9,12 -12.8,19 -14.9,12 4.4,16 2,23" />
    <path style="fill:none;" d="m 291.7,253.4 a 1.391,2.317 0 0 1 -1.4,2 1.391,2.317 0 0 1 -1.4,-2 1.391,2.317 0 0 1 1.4,-3 1.391,2.317 0 0 1 1.4,3 z" />
    <path style="fill:none;" d="m 431.9,239.4 c 25,-7 89.5,2 103.8,7 m -88,108 c 7.6,-34 -4.1,-74 -15.8,-115 m 101.3,75 c -4.9,-27 -26.6,-53 -101.3,-75 m -67.5,65 c -13.4,14 -17.1,30 -19.4,46 34.6,-41 61,-38 88.8,-44 m -265.7,-67 c -25,-7 -89.51,2 -103.83,7 m 88.03,108 c -7.6,-34 4.1,-74 15.8,-115 m -101.31,75 c 4.91,-27 26.64,-53 101.31,-75 m 67.5,65 c 13.4,14 17.1,30 19.4,46 -34.6,-41 -61,-38 -88.8,-44" />
    <path style="fill:none;" d="m 326.5,284.4 c 1.3,9 -23.2,20 -26.5,11 -3.3,9 -27.8,-2 -26.5,-11 m 57.8,-26 c -2,-1 -4,-1 -5.3,1 -5.3,9 -10.4,17 -17.6,16 m -39.7,-17 c 2,-1 4,-1 5.3,1 5.3,9 10.4,17 17.6,16" />
    <path style="fill:none;" d="m 316.6,251.4 c 5.6,-4 0.7,-8 6.9,-19 -6.3,1 -7.1,8 -10.6,12 m 15,-5 c -3.5,8 -8.9,11 -14.6,14 1.5,-6 -2.2,-11 -1.1,-16 2.3,-8 8.4,-14 10.9,-22 m -39.7,36 c -5.6,-4 -0.7,-8 -6.9,-19 6.3,1 7.1,8 10.6,12 m -15,-5 c 3.5,8 8.9,11 14.6,14 -1.5,-6 2.2,-11 1.1,-16 -2.3,-8 -8.4,-14 -10.9,-22" />
    <path style="fill:none;" d="m 308.3,253.4 a 1.391,2.317 0 0 0 1.4,2 1.391,2.317 0 0 0 1.4,-2 1.391,2.317 0 0 0 -1.4,-3 1.391,2.317 0 0 0 -1.4,3 z" />
    <path style="fill:none;" d="m 310,248.4 c -1.7,3 -4.9,6 2.1,11 m -22.1,-11 c 1.7,3 4.9,6 -2.1,11" />
    <path style="fill:none;" d="m 304.6,250.4 c -1.9,3 1.9,6 -2.2,6 -1.9,0 -1.9,0 -0.9,-2 m -6.1,-4 c 1.9,3 -1.9,6 2.2,6 1.9,0 1.9,0 0.9,-2" />
    <path style="fill:none;" d="m 290.8,262.4 c 4,0 3,-5 9.2,-5 6.2,0 5.2,5 9.2,5 -3.6,0 -6.5,4 -9.2,4 -2.7,0 -5.6,-4 -9.2,-4 z" />
  </g>
  <g id="winged-man" transform="translate(0,20)" style="stroke:#808080;stroke-width:0.8;stroke-linecap:round;stroke-linejoin:round;">
    <g id="wing">
      <path style="fill:#ffffff;" d="m 343.5,473.2 c 0,0 -5.3,-8.4 0,-16.8 0,0 -3.9,-8.9 -2.9,-14.6 1,-5.6 7.8,-27.3 32.7,-26.3 25,1 42.6,18.8 47,21.6 4.4,2.9 9.2,7 12.1,1.5 0,0 2,4.7 -0.4,7.5 -2.5,2.7 -5.4,4.6 -9.8,2.7 0,0 10.2,15 11.3,19.7 0.9,4.7 1.4,4.7 5.3,3.4 0,0 -0.5,4.2 -2.9,4.7 -2.4,0.5 -5.9,2.3 -8.3,-1.5 0,0 4.4,10.4 2.9,16.5 -1.9,8 0.5,15.5 2.5,17 0,0 -7.9,1.8 -11.8,-3.3 0,0 0.5,25.4 7.4,33.3 0,0 -7.9,3.3 -11.3,-1.8 0,0 5.9,35.6 33.6,87.4 0,0 -9.2,3.3 -16.5,-11.3 0,0 -8.3,2.7 -14.7,-11.3 0,0 -15.6,0.4 -20.5,-23.9 0,0 -10.2,2.3 -14.6,-13.2 0,0 -10.3,0 -13.2,-14.6 0,0 -8.8,3.4 -13.2,-13.1 -2.8,-10.6 -4.5,-17.6 -6,-36.4 -3.9,10.9 -7,1.8 -7.7,-0.9 -2.7,-10.5 -1,-26.3 -1,-26.3 z"/>
      <path style="fill:none;" d="m 362.6,494.5 c 0,0 0,26.3 8.8,55.4 m -2.5,-67.2 c 2,0.4 6.7,-1.5 6.4,15 -0.6,26.4 6.3,55.5 9.3,66.8 m -11.3,-90.8 c 2.9,0.5 11.6,3.4 11.3,23.6 -0.5,33.4 13.1,76.6 14.6,80.4 m 20.5,23.9 c 0,0 -14.5,-31.9 -19.5,-52.1 -5.9,-24 -6.1,-48.5 -6.4,-55 -0.4,-13.3 -0.9,-22.1 -18.5,-28.8 m -0.6,-10.3 c 4,1.9 26,7.1 28.4,35.8 2.5,28.6 2.9,47.9 10.8,69.1 5.8,15.8 20.5,52.6 20.5,52.6 m -56.7,-164.1 c 2.5,0.9 11.5,3 20.1,9.9 5.8,4.7 12.6,14.1 13.7,30.5 0.9,16.5 -0.5,29.6 5.8,47.6 m -40.6,-96.8 c 0,0 14.3,3.2 25,11.7 5.8,4.7 15.6,16.4 17.1,25.4 1.5,8.8 2.4,23.5 2.4,28.2 m -45.4,-72.9 c 0,0 19.9,1.8 33.7,15.9 12.2,12.7 18.1,26.8 18.1,26.8 m -5.4,-26.3 c -2.5,-2.7 -23.5,-24.3 -47.5,-24.3" />
      <path style="fill:#e6e6e6;" d="m 336.7,485 c 0,0 4.9,-16.5 13.6,-18.3 0,0 -1.4,-8 5.4,-12.3 0,0 -6.3,-8.3 -4.8,-15 1.4,-6.5 4.2,-16.2 17,-18.7 4.3,-0.9 4.3,-2.1 3.9,-5.1 0.4,-0.1 0.3,-0.1 1.5,-0.1 0.5,4.3 1,10.4 2,13.7 0.9,3.2 4.4,22.9 -0.6,26.2 0,0 2,12.7 -0.4,17 -2.5,4.2 -4.9,11.2 -8.8,12.1 0,0 -1,17 -17.6,17 l -0.3,-2.6 z"/>
    </g>
    <use xlink:href="#wing" transform="translate(600)scale(-1,1)" />
    <g id="man">
      <path id="torso" style="fill:#f9f9f9;" d="m 314.5,459.8 h -28.8 c 0.4,1.7 0.3,5 -0.5,7 -0.3,0.6 -2.6,2.4 -3.4,2.8 -2.6,1.1 -5,2.1 -7.3,3.4 -3,1.8 -9.4,5.4 -9.4,5.4 0,0 -6.2,0.4 -9,1 -2.5,0.6 -5.7,1.9 -7.8,3.3 -2.1,1.3 -4.6,3.6 -6.2,5.5 -2.3,2.9 -4.6,6.4 -5.8,9.8 -1.2,3.5 -1.8,8.5 -1.7,12.2 0.2,4 2.3,9.1 1.8,13 -0.5,2.8 -3.2,5.7 -3.8,8.4 -2,9 0.1,29.9 0.1,29.9 0,0 -5.5,9.5 -7.2,13 -1.5,3.1 -2.9,7.5 -3.6,10.9 -0.8,3.6 -1.2,8.3 -1.2,12.1 0,3.8 0.5,7.9 1,12.5 0.3,2.7 0.6,6 1,8.2 0.3,1 0.5,5.4 0.5,5.4 0.1,4.3 -1.8,7.6 -0.4,10.3 l 0.2,1.3 c -1.7,4 -2.8,11.4 -2.3,16.5 0.3,1.8 -0.5,3.7 0.5,5.1 0.8,1.2 3.1,1.2 4.1,2.1 1.7,1.5 2.2,4.3 3.8,5.8 1.2,0.9 3.9,1.8 3.9,1.8 0,0 1.1,3.1 1.8,4.1 3.7,1.2 4.2,-0.7 4.8,-3.9 -0.4,-1.4 -1.2,-3.1 -1.2,-4.1 0.5,-2.9 1.1,-8.2 4.4,-11 0.4,0.3 2,0.9 2.8,3.3 0.6,2.1 1.6,6.4 1.9,6.5 0.6,0.1 0.8,0 1.2,-0.3 0.7,-0.5 0.9,-1.1 1.1,-2.5 0.1,-1 0.8,-1.3 0.5,-3.5 -0.3,-1.5 -1.1,-4.1 -2,-7.2 -0.4,-1.3 -2.2,-2.5 -2.8,-3.6 -5.5,-4.4 -3.7,-3.3 -6.8,-8.4 -0.5,-0.3 -1.3,-1.1 -1.3,-1.1 0,0 0,-1.6 -0.1,-2.4 -0.1,-1.6 0.7,-3.5 -0.1,-4.9 -0.3,-0.4 -0.3,-0.9 -0.5,-1.3 -0.3,-0.6 -0.4,-1.9 -0.3,-2.7 0.3,-2.3 1,-3.6 2.8,-7.2 2,-4 4.1,-7.7 5.6,-10.6 0.8,-1.8 2,-4.2 2.9,-6 0.7,-1.5 1.4,-3.8 2,-5.4 1.6,-4.8 2.9,-12.3 2.6,-17.4 -0.1,-3.6 -2.9,-5.2 -2.1,-8.4 0.5,-2.4 2.2,-5.3 3.2,-7.7 2.9,-6.4 5.7,-23.4 5.7,-23.4 0,0 0.1,1.7 0.3,4.1 0.4,4.4 1.2,11 2,14.5 0.5,1.9 1.2,4.2 1,6 -0.2,1.9 0.1,4.7 0.3,6.6 0.3,2 1.4,3.7 0.2,6.1 -0.1,0.5 -0.4,1 -0.5,1.4 -0.9,2.1 -1.7,4.6 -2.1,6.6 -0.6,2.9 -0.9,7.3 -0.7,10.3 0.1,2.2 1.3,8.5 1.3,8.5 0,0 -2.5,7.2 -3.5,11.9 -0.8,3.7 -1.1,8.3 -0.8,12 0,1.8 1.3,5.6 1.5,7.6 h 83.9 c 0.2,-2 1.5,-5.8 1.5,-7.6 0.3,-3.7 0,-8.3 -0.8,-12 -1,-4.7 -3.5,-11.9 -3.5,-11.9 0,0 1.2,-6.3 1.3,-8.5 0.2,-3 -0.1,-7.4 -0.7,-10.3 -0.4,-2 -1.2,-4.5 -2.1,-6.6 -0.1,-0.4 -0.4,-0.9 -0.5,-1.4 -1.2,-2.4 -0.1,-4.1 0.2,-6.1 0.2,-1.9 0.5,-4.7 0.3,-6.6 -0.2,-1.8 0.5,-4.1 1,-6 0.8,-3.5 1.6,-10.1 2,-14.5 0.2,-2.4 0.3,-4.1 0.3,-4.1 0,0 2.8,17 5.7,23.4 1,2.4 2.7,5.3 3.2,7.7 0.8,3.2 -2,4.8 -2.1,8.4 -0.3,5.1 1,12.6 2.6,17.4 0.6,1.6 1.3,3.9 2,5.4 0.9,1.8 2.1,4.2 2.9,6 1.5,2.9 3.6,6.6 5.6,10.6 1.8,3.6 2.5,4.9 2.8,7.2 0.1,0.8 0,2.1 -0.3,2.7 -0.2,0.4 -0.2,0.9 -0.5,1.3 -0.8,1.4 0,3.3 -0.1,4.9 -0.1,0.8 -0.1,2.4 -0.1,2.4 0,0 -0.8,0.8 -1.3,1.1 -3.1,5.1 -1.3,4 -6.8,8.4 -0.6,1.1 -2.4,2.3 -2.8,3.6 -0.9,3.1 -1.7,5.7 -2,7.2 -0.3,2.2 0.4,2.5 0.5,3.5 0.2,1.4 0.4,2 1.1,2.5 0.4,0.3 0.6,0.4 1.2,0.3 0.3,-0.1 1.3,-4.4 1.9,-6.5 0.8,-2.4 2.4,-3 2.8,-3.3 3.3,2.8 3.9,8.1 4.4,11 0,1 -0.8,2.7 -1.2,4.1 0.6,3.2 1.1,5.1 4.8,3.9 0.7,-1 1.8,-4.1 1.8,-4.1 0,0 2.7,-0.9 3.9,-1.8 1.6,-1.5 2.1,-4.3 3.8,-5.8 1,-0.9 3.3,-0.9 4.1,-2.1 1,-1.4 0.2,-3.3 0.5,-5.1 0.5,-5.1 -0.6,-12.5 -2.3,-16.5 l 0.2,-1.3 c 1.4,-2.7 -0.5,-6 -0.4,-10.3 0,0 0.2,-4.4 0.5,-5.4 0.4,-2.2 0.7,-5.5 1,-8.2 0.5,-4.6 1,-8.7 1,-12.5 0,-3.8 -0.4,-8.5 -1.2,-12.1 -0.7,-3.4 -2.1,-7.8 -3.6,-10.9 -1.7,-3.5 -7.2,-13 -7.2,-13 0,0 2.1,-20.9 0.1,-29.9 -0.6,-2.7 -3.3,-5.6 -3.8,-8.4 -0.5,-3.9 1.6,-9 1.8,-13 0.1,-3.7 -0.5,-8.7 -1.7,-12.2 -1.2,-3.4 -3.5,-6.9 -5.8,-9.8 -1.6,-1.9 -4.1,-4.2 -6.2,-5.5 -2.1,-1.4 -5.3,-2.7 -7.8,-3.3 -2.8,-0.6 -9,-1 -9,-1 0,0 -6.4,-3.6 -9.4,-5.4 -2.3,-1.3 -4.7,-2.3 -7.3,-3.4 -0.8,-0.4 -3.1,-2.2 -3.4,-2.8 -0.8,-2 -0.9,-5.3 -0.5,-7 h -28.8"/>
      <path id="muscle" style="fill:none;" d="m 311.8,598 c 2.2,-10.8 7,-11.3 7.4,-17.4 0.5,-6.8 -5.3,-5.7 -6.8,-6.5 3.4,0.6 8.7,-0.1 8.5,-5.4 -0.3,-5.8 -4.4,-6.6 -8.1,-8.1 4.4,0.2 7.9,0.7 8.7,-3.3 0.9,-5.3 -5.3,-9.9 -13.4,-11.9 m -19.8,52.6 c -2.3,-10.8 -7,-11.3 -7.4,-17.4 -0.5,-6.8 5.3,-5.7 6.8,-6.5 -3.4,0.6 -8.8,-0.1 -8.5,-5.4 0.3,-5.8 4.4,-6.6 8,-8.1 -4.3,0.2 -7.9,0.7 -8.6,-3.3 -0.9,-5.3 5.3,-9.9 13.3,-11.9 m 8.1,35.2 c -2.4,0 -2.7,2.6 0,2.6 2.8,0 2.5,-2.6 0,-2.6 z m 36.8,-60 c 0.8,2.1 -2.5,3.5 -4,1.1 m 7.6,-25.9 c 14.2,9 7.6,29 -5.5,32.7 -9.4,2.7 -23.3,-4.9 -31,-4.9 m -44.2,-27.8 c -14.2,9 -7.6,29 5.5,32.7 9.4,2.7 23.2,-4.9 31,-4.9 m -33,-3 c -0.7,2.1 2.6,3.5 4.1,1.1 m 73.7,15.7 c 0.2,-4.4 0.6,-8.5 0.9,-12.9 m -82.8,12.9 c -0.2,-4.4 -0.6,-8.5 -1,-13" />
      <g id="head">
        <path id="face" style="fill:#f9f9f9;" d="m 323.5,414.3 c 5.3,11.4 0,35.3 -1.1,40.1 -1.5,7.8 -14.7,9.9 -22.4,9.9 -7.6,0 -20.7,-2.1 -22.3,-9.9 -1,-4.8 -6.4,-28.7 -1,-40.1 3.4,-7.2 13.9,-14.1 23.3,-14.1 9.5,0 20.1,6.9 23.5,14.1 z"/>
        <path id="hair" style="fill:#e6e6e6;" d="m 303.8,481.4 c 3.3,0 5.6,2.9 8.9,2.6 4,-2.9 4.1,-1.6 5.7,2.6 2,-3.3 3.7,-2.4 3.4,-6.3 2.2,2.5 5.2,2.1 6.2,5.2 2.6,5.4 1.5,-2.1 1.4,-4 2.1,-0.9 6.2,4.1 8.6,6.2 -0.7,-0.7 -1.7,-8.2 -1.2,-11.4 3,3.3 6.1,9.6 9.3,14.1 0.3,-0.3 -1,-6.3 -1.6,-8.7 -2.7,-5.7 1.6,-0.5 4.3,0.8 1.2,-1.3 -1.9,-8.1 -5.4,-9.1 0.2,-1.7 -5.8,-9.2 -2.8,-8.7 2.1,1 4.5,1.1 4.4,0.8 -0.8,-2.2 -4.3,-3.3 -5,-4.8 0.2,-3.5 -8.4,-9.1 -3.5,-10.5 0.5,-2.9 -2.9,-7.8 -2.7,-12 -2.8,-6 0.3,-1.2 2.7,-1.6 -2.9,-4.7 -4.2,-8.5 -5.8,-13.6 -0.4,-4.5 -3.5,-8.6 -3.5,-13.5 -2,-3.4 -1.2,-4.1 -4.1,-6.4 -1.1,-1 -3,-1.8 -5,-3 -1.8,-1.1 -3.4,-2.8 -4.7,-3.3 -1.5,-0.6 -4.5,0.2 -7,0.1 -3.4,-0.2 -6.4,0.7 -6.4,2.6 v 8.5 c 0.3,1.7 1.9,0 5.3,0.4 1.5,0.2 4.3,0.8 6,1.4 2.1,0.8 5.6,0.4 7.2,2.1 1.6,1.6 2.8,4.8 3.2,7.7 0.3,2.1 0,3.9 0.3,5.7 2.3,12.5 -3.5,37.4 -4.3,50.1 m -21.3,6 c -3.4,0 -5.6,2.9 -9,2.6 -3.9,-2.9 -4,-1.6 -5.6,2.6 -2,-3.3 -3.8,-2.4 -3.5,-6.3 -2.1,2.5 -5.1,2.1 -6.1,5.2 -2.6,5.4 -1.6,-2.1 -1.4,-4 -2.2,-0.9 -5.7,4.8 -8.6,6.2 -1,-6.2 1.9,-1.7 0.5,-7.8 -1.3,1.6 -2.1,-0.7 -3.4,1.5 -1.8,2.8 -0.7,2.7 -2.6,5.2 -0.2,-0.2 -1.6,-2.5 -1.1,-4.9 2.7,-5.7 -1.7,-0.5 -4.2,0.8 -1.2,-1.3 1.8,-8.1 5.3,-9.1 -0.1,-1.7 5.9,-9.2 2.8,-8.7 -2,1 -4.4,1.1 -4.4,0.8 0.8,-2.2 4.3,-3.3 5.1,-4.8 -0.2,-3.5 8.3,-9.1 3.5,-10.5 -0.6,-2.9 2.8,-7.8 2.6,-12 2.9,-6 -0.2,-1.2 -2.6,-1.6 2.8,-4.6 4.1,-8.4 5.8,-13.6 0.3,-4.5 3.3,-8.6 3.5,-13.4 2,-3.5 1.2,-4.1 4.1,-6.5 1.1,-0.9 3,-1.8 5,-3 1.7,-1 3.3,-2.7 4.6,-3.2 1.5,-0.7 4.6,0.1 7,0 3.5,-0.2 6.3,0.7 6.3,2.6 v 8.5 c -0.1,1.8 -1.7,0 -5.1,0.5 -1.6,0.2 -4.4,0.7 -6,1.3 -2.1,0.8 -5.6,0.4 -7.3,2.2 -1.5,1.5 -2.7,4.7 -3.2,7.6 -0.2,2.2 0.1,4 -0.2,5.7 -2.3,12.5 3.5,37.5 4.3,50.2"/>
        <path id="beard" style="fill:#e6e6e6;" d="m 304.9,501.4 c 1.4,3.3 2.6,-0.8 2.9,-2.4 -0.3,-2.6 1.3,-1.4 1.7,0.2 1.3,3.3 1.5,-1.6 1.6,-2.9 0,-2.7 2.6,1.7 2.6,-1 0.7,-1 0.3,-4.2 1.3,-3.3 1.9,3 1.3,-2.2 2.1,-3.5 0.3,-2.7 1,0.5 2,1.2 0.6,-2.3 1.4,-5.4 1.8,-8 0.3,-1.4 0.6,-6.5 1.7,-2.7 0.8,-0.3 1.5,-6.3 0.8,-7.8 -0.9,-1.8 -2.8,-5.3 0.2,-4.2 1.8,2.2 0.4,-0.4 1.3,-1.5 0.2,-2.9 -0.4,-5.8 -1.1,-8.5 -1,-3 2,-2 2.4,0 -0.1,-2.7 -1,-5.2 -1.7,-7.8 -0.1,-1.2 -2.4,-6.8 -0.5,-4.9 -0.3,-1.8 -1.2,-7.4 1.1,-6.4 -0.8,-2.5 0.1,-5.9 -2.2,-7.9 -1.2,-0.7 -2.5,3.2 -2.9,7.8 -0.5,5.8 -6.5,9.6 -10.4,13.8 -1.1,1.3 -1.6,2.3 -6.5,3 -1.1,0.1 -1.4,-1.2 -3.1,-1.1 -1.6,-0.1 -1.8,1.2 -3,1.1 -4.9,-0.7 -5.3,-1.7 -6.5,-3 -3.9,-4.2 -9.8,-8 -10.3,-13.8 -0.4,-4.6 -1.7,-8.5 -3,-7.8 -2.2,2 -0.4,4.3 -1.2,6.9 0.6,0.3 0.4,2.5 0.2,7.4 1.8,-1.9 -0.5,3.7 -0.6,4.9 -0.6,2.6 -1.6,5.1 -1.6,7.8 0.4,-2 3.4,-3 2.4,0 -0.8,2.7 -1.3,5.6 -1.2,8.5 1,1.1 -0.4,3.7 1.4,1.5 2.9,-1.1 1,2.4 0.2,4.2 -0.8,1.5 0,7.5 0.7,7.8 1.2,-3.8 1.5,1.3 1.8,2.7 0.4,2.6 1.2,5.7 1.8,8 1,-0.7 1.6,-3.9 2,-1.2 0.7,1.3 0.2,6.5 2.1,3.5 1,-0.9 1.6,-1 2.4,0.1 0,2.7 -0.4,0.4 -0.3,3.1 0.8,-1.9 3.4,0.4 3.3,4 0.5,-1.6 1.9,-2.8 1.8,-0.2 0.3,1.6 1.5,5.7 2.9,2.4 1.8,-3.5 2.2,1.7 4.7,3.3 0.3,-4.5 3.1,-6.8 4.9,-3.3 z"/>
        <path id="moustache" style="fill:#e6e6e6;" d="m 301.7,444.9 c 0.5,-0.9 1.7,-0.8 2.6,-0.9 0.8,0 1.6,0.4 2.4,0.7 0.8,0.1 1.7,0.3 2.2,1 0.4,0.9 1.4,0.9 1.7,1.8 0.2,1 1.5,0.9 2.1,1.4 0.7,0.7 1.5,1.3 2.5,1.3 0.8,0.1 1.5,0.6 2.2,1 -0.2,0.6 -1.3,0.5 -0.9,1.3 0.4,1 -0.8,1.2 -1.4,1 -0.5,-0.1 -0.8,0.1 -0.9,0.5 -0.6,0 -1.2,-0.5 -1.4,0.3 -0.6,-0.1 -1.2,-0.8 -1.8,-0.1 -1,0.3 -1.2,-1 -2,-1.2 -1,-0.7 -1.9,-1.5 -2.9,-2 -0.6,-0.6 -1.4,-1 -2.3,-1 -0.7,0 -1.5,0.1 -2,-0.4 -0.5,-0.7 -1.4,-0.9 -1.7,-1.7 0,-0.9 -0.4,-2.1 0.7,-2.5 0.3,-0.2 0.6,-0.3 0.9,-0.5 z m -3.3,0 c -0.5,-0.9 -1.6,-0.8 -2.5,-0.9 -0.9,0 -1.7,0.4 -2.5,0.7 -0.8,0.1 -1.7,0.3 -2.1,1 -0.4,0.9 -1.5,0.9 -1.8,1.8 -0.1,1 -1.4,0.9 -2.1,1.4 -0.7,0.7 -1.5,1.3 -2.4,1.3 -0.8,0.1 -1.5,0.6 -2.3,1 0.3,0.6 1.3,0.5 0.9,1.3 -0.4,1 0.8,1.2 1.4,1 0.6,-0.1 0.8,0.1 1,0.5 0.6,0 1.2,-0.5 1.4,0.3 0.6,-0.1 1.2,-0.8 1.7,-0.1 1,0.3 1.2,-1 2.1,-1.2 0.9,-0.7 1.8,-1.5 2.9,-2 0.6,-0.6 1.4,-1 2.3,-1 0.7,0 1.5,0.1 2,-0.4 0.4,-0.7 1.4,-0.9 1.6,-1.7 0,-0.9 0.4,-2.1 -0.6,-2.5 -0.3,-0.2 -0.6,-0.3 -1,-0.5 z" />
        <path id="lip" style="fill:#f9f9f9;" d="m 307,452.2 c 0,-2.6 -5,-2.3 -7,-2.3 -1.8,0 -6.8,-0.3 -6.8,2.3 0,2.5 4.5,0.9 6.8,0.9 2.4,0 7,1.6 7,-0.9 z"/>
        <path id="nose" style="fill:#f9f9f9;" d="m 302,433.6 c 1.5,4.4 -0.3,5.9 1.3,7.5 1.2,1.3 1.9,2.7 0.9,3.7 -1.2,0.4 -1.1,-0.3 -2.4,0.3 -0.2,0.1 -0.4,0.9 -1.8,0.9 -1.2,0 -1.4,-0.9 -1.7,-1.1 -1.3,-0.5 -0.8,0.1 -2,-0.2 -0.6,-0.6 -0.5,-2.1 0.5,-3.6 1.4,-1.9 -0.3,-3.9 1.3,-7.5"/>
        <path id="eyebrow1" style="fill:#e6e6e6;" d="m 287.5,423 c -1.4,0 -2.7,0.8 -3.6,1.7 -0.8,0.9 -1.1,1.7 -1.1,1.7 0,0 0.7,-0.5 1.7,-0.9 1.1,-0.3 2,-0.4 2.9,-0.4 0.1,0 0.1,0 0.2,0 2.3,0.2 3.8,1.8 6.3,2.9 1.7,0.8 2.7,0.6 3.1,0.4 0.5,-0.2 0.5,-0.5 0.5,-0.5 0,0 0,-0.2 -0.3,-0.5 -0.4,-0.4 -1,-0.6 -2.4,-1.3 -2.2,-1 -4.1,-2.8 -7,-3 -0.1,0 -0.2,0 -0.3,0 z"/>
        <g id="eye1">
          <path style="fill:#ffffff;" d="m 295.1,430.8 c 0,0 -0.6,1.7 -4.3,1.7 -2.6,0.1 -4.8,-1.7 -4.8,-1.7 0,0 2.9,-2.6 5.3,-2.1 4.3,0.9 3.8,2.1 3.8,2.1 z"/>
          <circle style="fill:#666666;stroke:none;" cx="290.9" cy="430.7" r="1.837"/>
          <circle style="fill:#000000;stroke:none;" cx="290.9" cy="430.7" r="0.823"/>
          <circle style="fill:#ffffff;stroke:none;" cx="291.4" cy="430.2" r="0.3618"/>
        </g>
        <path id="eyebrow2" style="fill:#e6e6e6;" d="m 312.3,423 c 1.4,0 2.7,0.7 3.6,1.7 0.8,0.8 1,1.7 1,1.7 0,0 -0.7,-0.5 -1.6,-0.9 -1.1,-0.4 -2,-0.4 -3,-0.4 0,0 -0.1,0 -0.1,0 -2.4,0.2 -3.9,1.8 -6.3,2.9 -1.7,0.8 -2.8,0.6 -3.1,0.4 -0.5,-0.2 -0.4,-0.5 -0.4,-0.5 0,0 -0.1,-0.3 0.2,-0.6 0.5,-0.3 0.9,-0.5 2.4,-1.2 2.1,-1 4.1,-2.9 7,-3.1 0.1,0 0.2,0 0.3,0 z"/>
        <g id="eye2">
          <path style="fill:#ffffff;" d="m 304.7,431 c 0,0 0.6,1.7 4.4,1.8 2.4,0.1 4.7,-1.8 4.7,-1.8 0,0 -2.8,-2.5 -5.3,-2 -4.2,0.8 -3.8,2 -3.8,2 z"/>
          <circle style="fill:#666666;stroke:none;" cx="308.9" cy="430.9" r="1.837" />
          <circle style="fill:#000000;stroke:none;" cx="308.9" cy="430.9" r="0.823" />
          <circle style="fill:#ffffff;stroke:none;" cx="309.4" cy="430.4" r="0.3618" />
        </g>
      </g>
      <path id="pants" style="fill:#e6e6e6;" d="m 341,596 c -0.5,4.5 1.3,8.6 4,21 1.9,8.7 -2.6,24.8 -2,31 l -43,37 -43,-37 c 0.6,-6.2 -3.9,-22.3 -2,-31 2.7,-12.4 4.5,-16.5 4,-21 12.8,2.2 27.9,4.3 41,4 13.1,0.3 28.2,-1.8 41,-4 z" />
    </g>
  </g>
  <path id="saltire" d="m 0,0 l 600,600 m -600,0 l 600,-600" style="fill:none;stroke:#ffffff;stroke-width:20;"/>
</g>
<use id="shine" xlink:href="#shield" fill="url(#rg)" stroke="#000" stroke-width="3"/>
</svg>
