<?xml version="1.0" encoding="UTF-8" standalone="no"?>
<svg
   xmlns:dc="http://purl.org/dc/elements/1.1/"
   xmlns:cc="http://creativecommons.org/ns#"
   xmlns:rdf="http://www.w3.org/1999/02/22-rdf-syntax-ns#"
   xmlns:svg="http://www.w3.org/2000/svg"
   xmlns="http://www.w3.org/2000/svg"
   xmlns:xlink="http://www.w3.org/1999/xlink"
   id="svg74"
   version="1.1"
   height="660"
   width="600">
  <metadata
     id="metadata78">
    <rdf:RDF>
      <cc:Work
         rdf:about="">
        <dc:format>image/svg+xml</dc:format>
        <dc:type
           rdf:resource="http://purl.org/dc/dcmitype/StillImage" />
        <dc:title></dc:title>
      </cc:Work>
    </rdf:RDF>
  </metadata>
  <style
     type="text/css"
     id="style_css_sheet">
.wolf {
  fill:#666666;stroke:#ffffff;stroke-width:1;
}
.detail {
  fill:none;
}
.langued {
  fill:#cc0000;stroke:none;
}
.armed, .nose {
  fill:#000000;stroke:none;
}
</style>
  <defs
     id="defs13">
    <radialGradient
       r="405"
       cy="220"
       cx="220"
       gradientUnits="userSpaceOnUse"
       id="rg">
      <stop
         id="stop3"
         offset="0"
         style="stop-color:#fff;stop-opacity:.3" />
      <stop
         id="stop5"
         offset="0.2"
         style="stop-color:#fff;stop-opacity:.2" />
      <stop
         id="stop7"
         offset="0.6"
         style="stop-color:#666;stop-opacity:.1" />
      <stop
         id="stop9"
         offset="1"
         style="stop-color:#000;stop-opacity:.13" />
    </radialGradient>
    <path
       d="m 2 2 v 257 c 0 286 298 398 298 398 c 0 0 298 -112 298 -398 V 2 Z"
       id="shield" />
  </defs>
  <use
     style="fill:#ffffff"
     id="use15"
     xlink:href="#shield"
     fill="#ffffff" />
  <path
     id="right-ear"
     d="m 197.28778,187.02558 c -0.28794,-28.79476 -8.49445,-50.39083 -5.52859,-59.31721 4.06006,-12.0938 7.54422,-17.85276 14.33978,-17.56481 6.79558,0.28795 15.4916,5.47101 25.8577,12.66971 15.26123,10.65406 28.21888,19.86838 39.16088,44.91982"
     style="fill:#666666;stroke:#ffffff;stroke-width:1;stroke-miterlimit:4;stroke-dasharray:none" />
  <path
     class="langued"
     d="m 54.120216,380.52639 c 0,0 4.060063,8.06253 9.675041,10.07817 7.083511,2.59152 16.038683,3.16742 26.203234,-0.86384 15.952299,-6.6228 28.852359,-17.85276 51.772989,-29.08272 22.83425,-11.22995 46.87787,-21.30813 77.22756,-21.30813 l -17.01771,-15.54916 c -18.54383,-1.15179 -39.73677,6.33484 -66.45832,23.32375 -16.72975,10.65407 -36.626937,23.32376 -53.414284,33.40193 -4.693547,2.87947 -8.494455,2.87947 -13.619922,3.45537 -6.133285,0.86384 -14.368588,-3.45537 -14.368588,-3.45537 z"
     id="path28"
     style="fill:#cc0000;stroke:none;stroke-width:2.87947631" />
  <path
     id="path30"
     d="m 111.9689,392.62019 c -5.06788,-3.74332 -6.85315,-9.21433 -7.40025,-16.41302 5.06788,6.6228 9.99178,11.51791 17.79516,12.6697"
     style="fill:#000000;stroke:none;stroke-width:2.87947631" />
  <path
     id="path32"
     d="m 82.684621,354.32315 c 1.497328,5.47101 8.811197,12.38175 15.693146,14.68533 -3.109834,-6.33485 -3.714524,-8.63842 -2.994655,-16.98891"
     style="fill:#000000;stroke:none;stroke-width:2.87947631" />
  <path
     id="path36"
     d="m 302.1979,137.29726 c -15.54186,0.239 -29.35154,4.73538 -37.98996,6.53506 -33.40194,0.28794 -78.20906,19.86726 -109.07705,59.31608 -9.04155,11.51791 -21.73891,35.41981 -29.80145,46.93772 -8.06253,11.5179 -41.664904,30.23337 -52.837272,34.84053 -10.970804,4.31922 -19.754993,13.24447 -29.199674,20.44316 -3.829704,2.87948 -8.550922,5.18643 -11.084861,9.21769 -2.505144,4.03127 10.482186,14.10719 14.599837,20.72999 3.944882,6.33484 16.613916,19.29474 36.741455,19.58268 20.127545,0.5759 45.291925,-10.65743 68.961215,-20.7356 23.6405,-10.07816 25.63137,-7.77122 40.14393,-0.86047 14.68533,6.91075 -16.84965,25.62734 -35.79661,37.43319 -17.6224,10.94201 -40.05081,17.27461 -50.50331,22.16973 -10.68286,5.18305 -0.49063,9.79134 4.60604,14.11055 5.41342,4.60716 14.91592,4.60603 25.42601,1.72656 10.62526,-3.16742 57.44779,-36.27803 75.0126,-39.7334 17.67998,-3.74332 19.69516,-2.8806 32.6528,4.60604 12.95765,7.48663 21.30588,8.92413 30.80814,16.41076 18.18629,14.33507 22.40351,40.11575 37.41633,63.64093 l 0.0173,-0.006 c 0.0115,0.0259 0.0334,0.0807 0.0449,0.10683 5.18101,8.09971 11.62963,15.92883 20.39818,22.92895 0.80741,0.63778 1.63328,1.25807 2.44644,1.88966 2.87513,-8.28955 3.86598,-17.44228 -1.0067,-27.51251 12.38175,-0.28794 18.71997,5.75559 26.49455,10.93865 6.91075,-10.65406 10.0748,-22.45991 -2.019,-38.87294 22.17197,-4.8951 27.07044,4.89736 38.01245,9.50452 2.87949,-10.07816 1.72544,-21.02354 -6.62504,-32.2535 17.27686,-3.45538 23.03469,0.86497 34.84054,9.79135 0.5759,-12.09381 -1.72656,-28.21663 -10.36499,-36.56711 18.1407,-6.62279 28.22112,3.73995 44.05823,10.93864 0.86384,-11.22996 -8.06141,-26.49005 -17.56368,-37.72002 15.83712,-6.0469 33.10949,6.91075 41.45996,11.51791 -2.30357,-14.39738 -12.38174,-26.20436 -14.39738,-38.58611 10.36612,6.0469 31.1006,11.80811 39.73903,9.50452 -11.80585,-10.07816 -14.68308,-21.88514 -13.53129,-31.38741 5.75894,7.19869 23.32375,10.07817 33.11397,7.19869 -6.33484,-7.19869 -12.0938,-14.68533 -10.07816,-25.91528 16.98891,7.77458 25.62509,7.19756 35.12736,7.4855 14.68533,0.28796 23.89853,-0.86047 33.4008,0.57928 -10.65407,-14.10944 -34.55371,-9.50565 -54.71005,-32.25351 8.92637,-1.43974 32.25238,3.74556 41.17875,2.30583 -22.17196,-11.22996 -56.72455,-33.11173 -85.23137,-35.12736 10.07817,-6.04691 21.30589,-5.76121 32.24789,-6.62505 -19.00454,-9.21432 -50.96673,-17.27798 -80.62533,-16.99003 9.79022,-5.18306 25.33939,-6.04578 30.23449,-7.48552 -16.9889,-12.0938 -46.64863,-7.77683 -64.50138,-6.62504 6.62279,-9.79022 23.61507,-9.78685 32.2535,-12.37838 -24.47555,-11.22995 -51.54487,-11.52127 -82.93116,-3.45874 0.28794,-3.74331 10.07816,-9.21207 24.47554,-14.97103 -15.54917,-5.18306 -29.36953,-8.92862 -62.19556,3.45313 5.47101,-10.07817 9.4989,-12.37726 15.25786,-14.10495 -9.82621,-4.42719 -19.77334,-5.81801 -29.09846,-5.67458 z"
     style="fill:#666666;stroke:#ffffff;stroke-width:1;stroke-miterlimit:4;stroke-dasharray:none" />
  <path
     style="fill:none;stroke:#ffffff;stroke-width:1;stroke-miterlimit:4;stroke-dasharray:none"
     id="path42"
     d="m 239.15536,328.98377 c 14.39739,-4.03128 28.79477,-2.01564 38.58499,4.03126 1.15178,-6.33485 -6.91075,-13.82148 -14.97328,-16.70096 10.07817,-2.59153 20.15634,0 32.82603,4.89511 0.5759,-5.75895 -2.87947,-12.95764 -7.19869,-16.41301 8.63843,-3.45538 16.98891,-1.72769 27.06707,0 -1.72768,-7.48665 -5.75894,-9.79023 -12.95763,-12.6697 10.3661,-2.87948 19.58044,-0.5759 29.37066,5.18305 -4.03128,-7.77458 -5.75896,-13.53354 -14.97328,-18.1407 8.63842,-1.72768 16.98891,-1.15179 25.62733,1.43974 -3.74332,-9.21432 -17.27686,-12.95764 -25.91528,-14.10943 6.33485,-2.30359 20.73223,-2.30359 27.35502,-2.01563 -5.75895,-9.21432 -13.24559,-19.00454 -25.62734,-23.32376"
     class="detail" />
  <path
     id="path52"
     d="m 293.86541,224.45877 c 4.03128,-13.53353 2.30359,-46.93546 -2.01563,-59.31721 -9.50227,-28.50681 -16.98891,-38.87292 -27.64297,-51.54263 -8.92638,-10.36611 -18.7166,-22.171964 -30.81039,2.30358 -7.48665,15.83713 -7.48665,33.68989 -7.77459,50.1029"
     style="fill:#666666;stroke:#ffffff;stroke-width:1;stroke-miterlimit:4;stroke-dasharray:none" />
  <path
     style="fill:none;stroke:#ffffff;stroke-width:1;stroke-miterlimit:4;stroke-dasharray:none"
     id="path54"
     d="m 251.82506,131.45169 c 5.471,8.92637 7.19869,20.44428 4.03127,35.99346 4.60716,-0.28795 9.21432,-7.19869 19.58044,-3.16743 -10.07817,6.62279 -12.95765,15.26123 -13.53355,24.7635 7.1987,-3.74333 11.51791,-3.45537 14.10944,-1.43974 -5.75895,6.0469 -9.79022,12.38175 -5.18306,20.44428"
     class="detail" />
  <path
     style="fill:#111111;stroke:none;stroke-width:2.87947631"
     d="m 141.91545,254.40533 c -4.03126,-0.28795 -4.29042,-2.01564 -4.29042,-2.01564 l -1.03661,-2.59153 2.73551,0.28796 v 0 0 c 0,0 10.16455,1.15178 25.2242,-2.59153 6.39245,-2.01563 14.05185,-7.48664 21.13536,-10.36612 3.77211,-1.15179 7.54423,-2.30358 11.02839,-0.57589 3.51296,1.72769 6.30606,5.18305 8.35049,10.94201 -3.08104,0.28794 -4.69355,-4.60716 -9.93419,-7.19869 -1.90046,-1.15179 -4.34802,-0.5759 -7.63062,0.57589 -6.42123,2.30358 -13.93666,8.06253 -21.62487,10.36611 -14.25341,3.74332 -20.24271,3.74332 -23.95724,3.16743 z"
     id="path57" />
  <path
     style="fill:#ffffff;stroke:none;stroke-width:2.87947631"
     d="m 153.2318,261.89197 c 2.2172,5.471 14.13822,11.5179 23.20857,7.77459 9.53107,-3.45538 12.58332,-15.83713 10.04938,-21.30813 -2.56274,-5.471 -9.67504,-1.43974 -19.06214,2.30358 -9.04155,3.74332 -17.21927,5.75895 -14.19581,11.22996 z"
     id="path59" />
  <path
     style="fill:#333333;stroke:none;stroke-width:2.87947631"
     d="m 159.30749,262.46787 a 8.4771781,7.7601886 53.07 0 0 10.48129,6.04689 8.4771781,7.7601886 53.07 0 0 4.75114,-10.36611 8.4771781,7.7601886 53.07 0 0 -10.30853,-5.75896 8.4771781,7.7601886 53.07 0 0 -4.9239,10.07818 z"
     id="path61" />
  <path
     style="fill:#000000;stroke:none;stroke-width:2.87947631"
     d="m 165.18162,256.99685 c 1.78527,0 4.34801,0.86385 4.9239,3.16743 0.89264,2.30359 -0.31674,4.31922 -2.44755,4.60716 -2.13081,0.86384 -4.52078,-0.5759 -5.41341,-2.30357 -0.5759,-2.30359 0.80624,-4.60717 2.93706,-5.47102 z"
     id="path63" />
  <path
     style="fill:#ffffff;stroke:none;stroke-width:2.87947631"
     d="m 162.76286,256.70891 c 1.32456,-0.5759 3.08104,0.28794 3.65693,2.01563 0.6047,1.72769 -0.43191,2.87948 -1.90045,3.45537 -1.32455,0.5759 -2.90827,-0.57589 -3.65694,-2.01563 -0.57589,-1.72769 0.6047,-3.16743 1.90046,-3.45537 z"
     id="path65" />
  <path
     class="nose"
     d="m 47.555011,304.22027 c 3.743319,-1.72769 9.07035,-1.15179 10.33732,6.6228 1.238174,7.77458 -3.02345,18.1407 -8.062533,20.15633 -4.002473,1.43974 -9.473478,-3.45538 -13.735103,-8.92638 -2.447554,-3.16742 -4.463187,-7.19869 -0.345537,-10.65406 6.334848,-5.18306 6.277259,-4.60716 11.805853,-7.19869 z"
     id="path70"
     style="fill:#000000;stroke:none;stroke-width:2.87947631" />
  <use
     xlink:href="#shield"
     stroke-width="3"
     stroke="#000"
     fill="url(#rg)"
     id="shine" />
</svg>
