<?xml version="1.0" encoding="UTF-8"?>
<svg xmlns="http://www.w3.org/2000/svg" xmlns:xlink="http://www.w3.org/1999/xlink" width="600" height="660">
<defs>
  <radialGradient id="rg" gradientUnits="userSpaceOnUse" cx="220" cy="220" r="405">
    <stop style="stop-color:#fff;stop-opacity:.3" offset="0"/>
    <stop style="stop-color:#fff;stop-opacity:.2" offset=".2"/>
    <stop style="stop-color:#666;stop-opacity:.1" offset=".6"/>
    <stop style="stop-color:#000;stop-opacity:.13" offset="1"/>
  </radialGradient>
  <path id="shield" d="m2,2v257c0,286 298,398 298,398c0,0 298-112 298-398V2z"/>
</defs>
<use id="background" xlink:href="#shield" style="fill:#ff0000;"/>
<g id="tree" style="fill:#ffffff;stroke:#7c0000;stroke-width:1;stroke-opacity:1;stroke-linejoin:round;stroke-linecap:round;">
  <path style="stroke:none;" d="m 88.671663,116.8223 c -8.174276,6.63948 -13.267577,13.27895 -24.716115,19.91841 -8.629039,-3.58121 -19.475025,-2.16009 -25.42099,-11.7896 l -2.091888,2.11462 c 6.32114,5.79817 14.563634,10.89145 23.908919,11.96015 -0.738984,8.73137 4.229252,13.77918 6.730423,21.57828 -10.766404,4.08145 -25.114029,-5.05919 -36.573939,-10.88009 l -1.387012,1.95547 c 12.335319,4.74084 20.339066,15.62094 37.960951,13.77917 3.171941,11.84645 11.539496,20.9871 17.428613,31.41242 l -5.218356,2.75129 0.329706,4.19515 7.321609,-0.88678 c 10.902832,1.76218 17.167116,5.52532 24.716116,8.7541 l 7.6513,19.3386 c 7.32161,11.278 9.22023,16.49635 14.87059,20.60056 2.04643,12.28983 6.40073,17.49681 5.32067,28.68387 -6.87822,-2.10326 -11.89193,-6.60537 -16.35992,-11.81235 l 3.49027,-3.93366 -5.57078,-2.10326 c -5.86638,-8.15153 -11.94878,-16.08707 -14.27942,-27.7971 l 2.08052,-2.42158 -1.03458,-4.82044 -6.28703,2.70581 c -13.244831,-6.58263 -28.774833,-4.252 -43.190669,-6.35525 -0.670768,-6.51441 -10.163849,-11.32348 -15.666423,-16.91701 -11.368958,-6.96917 -20.918883,-12.11931 -24.454628,-25.20498 l -3.05825,1.9441 c 4.388417,12.21025 12.32395,19.40681 24.386414,28.09269 -8.07196,2.6376 -16.610048,0.39792 -24.147666,8.65178 l 1.171002,2.83087 c 11.005151,-9.34529 20.793825,-6.30978 30.627973,-4.53622 4.14967,3.54712 7.924164,7.11696 7.321609,11.17568 l 3.17194,1.21649 c 7.41256,0.90951 19.543235,-2.27379 21.589647,3.31973 l 2.421587,0.31833 c 15.734638,-3.21741 16.064345,6.30979 19.827464,12.98335 0.39791,7.74226 5.69585,13.34717 9.42486,19.63419 -3.1833,2.94456 -6.11649,6.04829 -22.635584,0.31834 l -14.643218,-0.88678 -3.490275,-7.28751 c -7.708151,0.9891 -15.063866,-2.50117 -21.919348,-11.17568 l -2.796764,2.126 6.99191,7.83321 c -12.881029,0.27285 -25.76206,5.09328 -38.643089,-2.70582 v 2.42159 c 11.198425,5.08192 23.090354,5.65037 35.141449,4.82043 -0.602554,7.69678 -16.052968,8.95874 -24.386415,13.31305 l 4.536215,1.81904 c 8.958738,-4.16104 21.771553,-5.47984 25.409621,-13.59728 12.505853,0.71624 14.881966,4.67264 11.141579,10.56177 l 7.685413,1.21647 c 1.443863,-1.54618 4.001876,-2.71717 16.382669,-0.60254 -2.171467,5.55942 -8.071956,6.77589 -12.551326,9.67498 h 5.559422 c 7.537611,-0.89815 9.481706,-3.8882 11.141581,-6.96918 9.06104,3.4107 16.29171,1.33018 23.70426,-0.28422 3.96777,4.22925 7.90143,8.49261 14.25668,11.17569 0.12506,4.46799 1.01184,8.75409 3.50165,12.69912 -2.2738,7.51489 -0.43204,13.67685 2.09187,19.63419 -3.22877,4.63854 -6.25291,9.27707 -5.92323,13.90424 5.7527,12.69912 2.31928,25.39825 -1.38701,38.08601 -7.82183,10.39123 -23.52236,10.11837 -36.24422,13.88149 -8.992848,2.30791 -18.485934,4.55896 -31.662553,6.35525 -4.47937,3.10374 -6.900958,5.21836 -1.773558,3.63807 8.367553,-1.72809 16.723735,-3.27427 25.091289,-3.9564 11.789604,-2.85362 22.374102,-3.97914 32.356062,-4.21788 l 11.84644,-6.63948 c -8.73136,6.09376 -18.61098,11.8692 -25.73932,18.41771 -2.44433,3.63807 -0.82992,8.07198 -5.604884,12.09659 -14.677335,5.54804 -18.656467,11.08472 -27.83121,16.62141 l -0.704878,3.3311 c 11.891926,-8.28796 24.51147,-14.04066 37.597132,-18.13349 2.46706,-2.48979 6.46895,-3.67217 5.58217,-9.06106 3.38794,-7.45803 20.15716,-9.39076 25.43236,-19.6683 4.08145,2.2738 1.75081,3.99051 0,5.74134 0,2.88771 -7.57172,6.53713 -11.27801,9.42486 -2.38749,1.85314 -3.92229,2.93319 -1.9782,4.78632 -0.48886,6.01419 1.40975,11.33486 4.52484,16.31446 -0.20464,8.72 -9.4817,13.5177 -14.26804,20.25949 l 1.06868,1.5007 c 6.25293,-6.7418 16.67826,-12.22163 20.79382,-19.14533 0.78447,-1.33016 0.46613,-3.64943 0.79583,-5.00234 -2.79676,-3.93366 -7.1056,-7.20792 -4.18377,-13.60865 7.07149,-4.26334 14.14297,-13.38125 21.21448,-12.69912 -2.62625,6.82137 -1.17101,13.0402 -0.32971,19.33861 5.32067,2.63759 7.33298,7.01464 9.74319,11.17568 l 25.79617,13.5859 c 2.47844,1.34154 3.297,0.9209 2.7513,-0.88678 l -24.35231,-15.7119 c -2.00094,-6.23019 -2.99003,-12.48311 -6.61674,-18.72467 2.126,-5.03645 9.22023,-8.61768 6.25293,-15.13209 1.71672,9.2316 6.66221,15.10935 16.75785,18.19034 3.59259,1.09142 6.83274,3.94502 7.95827,7.50352 11.34622,4.16103 26.79663,5.53667 43.5431,6.03692 3.78586,-0.11369 4.97962,-0.75036 2.10326,-2.39886 -13.00609,-2.81951 -27.4674,-0.57982 -39.01826,-8.49261 -5.55943,-7.27614 -6.66221,-10.5845 -19.50913,-21.45323 16.6669,8.23113 32.28784,4.55895 48.40901,6.65084 v -1.51206 c -11.83507,-2.51255 -19.97525,-1.2847 -35.52798,-7.549 -6.60538,-2.42159 -14.24532,-3.93365 -15.67779,-10.85735 l -7.26476,-26.02355 c 3.729,-10.56176 5.3775,-21.13489 0.68213,-31.71939 0.94361,-3.76312 1.87587,-7.54899 1.03456,-15.41631 -1.60301,-4.27473 2.6035,-8.00374 6.26431,-11.76687 4.9796,1.70535 8.71998,0.13643 12.53996,-1.21647 0.1819,-4.42253 -1.11416,-8.69726 4.19515,-13.59728 l 17.05343,-5.43437 c 15.88244,-2.38747 27.53562,-1.67124 31.34422,4.82044 h 5.54804 c 12.39217,-9.24296 26.36461,-13.33579 42.16747,-11.4599 l 0.68214,-2.13737 c -8.25387,-0.82992 -15.55273,-2.342 -25.77343,-1.81903 9.67499,-4.44526 10.43671,-11.56224 14.05203,-18.12213 l -3.02414,-0.53433 c -1.53481,11.26663 -14.87059,15.26851 -22.51054,22.90845 -15.8938,-3.79724 -31.79897,-7.68542 -47.70414,0.28424 l -2.46706,-5.43438 -4.14968,-1.48933 1.39839,5.42299 c -10.81188,2.14874 -19.88431,8.2766 -28.91127,14.52953 7.82184,-9.86826 17.54231,-19.17944 18.09939,-31.15094 25.06854,-2.78539 45.41898,-10.846 54.32088,-31.73077 l 21.58966,-1.21647 3.13782,-2.71719 c 0,0 -2.52392,0.52297 -1.36427,-0.59118 3.19467,-3.13783 20.40728,-12.82419 18.52003,-13.09704 l 1.1369,-1.92135 c -17.12165,8.36755 -18.7929,16.7692 -44.74822,13.80191 -0.20465,-8.78821 -1.14827,-17.66737 7.3216,-25.37551 3.50164,-0.11369 6.01419,-1.62576 6.95781,-5.43437 0.76172,-3.19467 -0.89816,-1.77354 -2.17147,-1.08004 -2.66034,3.74038 -6.76453,4.27472 -10.69819,4.684 -5.05919,8.41302 -8.33345,16.92839 -6.9919,25.69385 l -6.26432,-2.10326 0.70489,5.42299 c 5.59353,20.87341 -19.11122,23.07898 -42.14473,26.30777 l -11.15294,5.423 c 0,7.58309 -4.69539,12.81282 -9.75458,17.83789 l -4.85453,2.11463 v 4.84317 l -8.01513,14.81375 c -0.38654,-13.67685 -1.89861,-21.77155 -6.13923,-35.07323 10.81187,-6.28703 8.67451,-21.71472 13.09703,-29.91174 12.03972,-1.83039 24.45464,-8.94736 36.92638,-16.62141 l 1.72809,2.41022 3.81996,-1.48933 -0.69351,-3.63806 12.65366,-20.23675 1.28469,0.88678 c -0.9891,-6.4121 -3.05824,-12.3808 0,-20.55507 1.6826,-4.83181 4.20652,-9.65226 8.01512,-14.48406 l -1.55755,-0.56845 c -5.9346,5.6049 -6.85548,10.12974 -9.7091,15.05251 l -2.0123,17.84925 c -7.49215,15.37084 -18.21307,23.21542 -31.62844,29.01359 1.39839,-7.44667 0.54571,-14.56364 -0.56845,-21.63512 l -2.92183,-0.13643 c 1.30745,6.05965 2.05779,12.25572 0,19.06573 0.68215,7.19655 -9.58402,6.17335 -14.64321,9.04969 1.05732,-10.84598 2.29653,-21.3509 -4.35432,-30.50291 9.10655,-10.60724 10.00469,-22.49917 16.56458,-34.15235 l -1.05731,-4.25198 c -1.55754,3.2515 -1.78492,10.23205 -4.85453,9.19747 -1.98958,-5.18425 -1.23923,-10.35711 -6.62811,-15.54135 -4.14968,-3.21742 -7.94691,-7.13971 -11.24391,-12.21027 l -2.37611,1.03458 c 2.26243,5.53667 5.41161,10.4367 9.78867,14.49541 6.99191,6.26431 4.72948,12.55134 6.99191,18.827 -3.3652,3.34247 -3.74037,8.51535 -6.65082,12.60817 0.95498,3.5585 -3.94504,7.84459 -5.92324,11.77825 v 0.60256 c 8.44714,10.48216 2.00094,20.68013 3.38796,31.16231 -3.62671,-0.3297 -3.93367,2.29652 -5.49122,4.49073 1.90998,11.01653 -1.53481,14.55227 -12.58544,20.49823 -3.22877,-3.74039 -12.34668,-5.00233 -13.87012,-14.4272 -0.30697,-1.42112 -0.75035,-3.13784 -2.01231,-3.83134 -5.44573,-2.97867 -0.77309,-8.95874 -1.46661,-12.81281 8.40167,-3.99051 10.83463,-14.84786 14.23394,-23.67017 -1.97819,-11.01653 -4.21787,-22.23769 -2.83086,-34.34562 h -2.35337 c -0.63668,10.1752 -0.93225,20.33905 1.39838,30.51427 -2.85361,12.52858 -8.56083,22.59012 -19.87294,27.80848 -6.03692,-2.52391 -13.267576,-2.93321 -18.088016,-7.53763 -5.013701,-5.36614 -10.641339,-10.56175 -12.17615,-16.917 5.411623,-3.37659 11.391698,-6.67358 20.202636,-9.67499 3.49027,-4.95687 8.14016,-10.49354 14.63185,-16.93974 l -1.06868,-2.41022 -12.17616,12.67639 c -8.242486,3.34246 -16.484983,12.03972 -24.716111,9.67498 -8.185649,-6.84412 -7.162437,-13.68824 -10.482179,-20.53234 6.491675,3.35384 11.357592,-1.05731 16.735108,-3.03551 l 0.329705,-2.41022 c -5.786807,0.88678 -10.504924,6.82137 -17.394508,2.41022 -1.11416,-4.3202 -4.774965,-8.64042 -2.114628,-12.97199 9.549929,-5.88911 14.938808,-12.69911 22.305896,-19.06575 z" />
  <path style="fill:none;" d="m 138.70644,241.98315 c 4.7636,3.7063 8.23112,7.42393 7.06013,11.13022 m 31.75349,27.27413 c 2.20558,-1.81904 3.35385,-4.18378 9.61814,-3.89955 m -42.0083,16.71236 0.95498,13.63139 c -1.19372,5.87775 0.13644,10.89146 3.21744,15.30262 -2.13737,2.78539 -4.27474,7.53761 -6.42347,12.52859 4.07009,12.99472 5.22972,25.58016 4.16104,37.83588 -0.19327,2.30791 -1.81904,4.29749 -5.44572,5.85503 m 21.80565,-80.43539 c 0.69351,5.34341 2.79676,10.39123 0.32971,16.42815 3.14918,11.27801 -0.63667,21.37364 -1.28471,31.99224 -1.88724,11.58497 4.05872,20.90752 6.73044,31.17369 v 0 h 0.64802"/>
</g>
<use xlink:href="#tree" transform="translate(294.3)"/>
<use id="shine" xlink:href="#shield" style="fill:url(#rg);stroke:#000000;stroke-width:3;"/>
</svg>
