<?xml version="1.0" encoding="UTF-8" standalone="no"?>
<svg
   width="600"
   height="660"
   version="1.1"
   id="svg77"
   sodipodi:docname="blackwood4.svg"
   inkscape:version="1.1 (1:1.1+202105261517+ce6663b3b7)"
   xmlns:inkscape="http://www.inkscape.org/namespaces/inkscape"
   xmlns:sodipodi="http://sodipodi.sourceforge.net/DTD/sodipodi-0.dtd"
   xmlns:xlink="http://www.w3.org/1999/xlink"
   xmlns="http://www.w3.org/2000/svg"
   xmlns:svg="http://www.w3.org/2000/svg">
  <sodipodi:namedview
     id="namedview79"
     pagecolor="#ffffff"
     bordercolor="#666666"
     borderopacity="1.0"
     inkscape:pageshadow="2"
     inkscape:pageopacity="0.0"
     inkscape:pagecheckerboard="0"
     showgrid="false"
     inkscape:zoom="0.9320953"
     inkscape:cx="236.56379"
     inkscape:cy="172.19269"
     inkscape:window-width="1848"
     inkscape:window-height="1016"
     inkscape:window-x="72"
     inkscape:window-y="27"
     inkscape:window-maximized="1"
     inkscape:current-layer="svg77" />
  <defs
     id="defs12">
    <radialGradient
       id="rg"
       gradientUnits="userSpaceOnUse"
       cx="220"
       cy="220"
       r="405">
      <stop
         style="stop-color:#fff;stop-opacity:.3"
         offset="0"
         id="stop2" />
      <stop
         style="stop-color:#fff;stop-opacity:.2"
         offset=".2"
         id="stop4" />
      <stop
         style="stop-color:#666;stop-opacity:.1"
         offset=".6"
         id="stop6" />
      <stop
         style="stop-color:#000;stop-opacity:.13"
         offset="1"
         id="stop8" />
    </radialGradient>
    <path
       id="shield"
       d="m2,2v257c0,286 298,398 298,398c0,0 298-112 298-398V2z" />
  </defs>
  <use
     xlink:href="#shield"
     fill="#ff0000"
     id="use14" />
  <g
     id="crow"
     style="fill:#000000;stroke:#ff0000;stroke-width:1;stroke-linecap:round;stroke-linejoin:round">
    <path
       d="m 111.60021,191.03758 c -0.94046,0.58586 -1.48007,1.54174 -1.91176,2.75972 -0.15417,0.30835 -0.20043,0.67837 -0.20043,1.14089 0,0.78629 0.37002,1.61883 0.89421,2.35887 0.5242,0.75545 1.89635,1.09463 4.14729,1.14089 -1.17172,-1.92718 -1.24881,-3.46892 -0.52419,-4.3323 0.72462,-0.83254 1.72675,-1.60341 3.0064,-2.00427 0.38543,-0.15417 0.89421,-0.30834 1.46465,-0.86337 0.57045,-0.58586 1.43383,-1.48008 2.26637,-2.37429 0.40085,-0.43168 0.95588,-0.90962 1.38756,-1.35673 l -0.64753,-0.72462 c -1.18714,0.67837 -2.34345,1.0638 -3.66935,1.3259 -1.43382,0.30835 -2.66721,0.84796 -3.73101,1.51091 -0.86338,0.27751 -1.66509,0.84796 -2.48221,1.4184 z"
       id="path22"
       style="fill:#1a1a1a;stroke:#800000;stroke-width:1" />
    <path
       d="m 116.64171,194.47567 c -0.21584,0.92504 -0.30835,2.15844 0.30835,3.34558 0.4471,1.43382 1.01755,1.95801 1.91176,1.64966 0.9713,-0.15417 2.05052,-0.38543 3.43809,-0.61669 -1.71134,-1.26423 -2.28178,-2.62097 -1.64967,-3.77727 0.60128,-1.14089 1.17173,-2.11219 1.57258,-2.80597 0.49336,-0.75546 0.89421,-1.44924 1.64966,-2.01969 0.18501,-0.26209 0.38544,-0.7092 0.43169,-1.20256 0,0.49336 -0.24668,0.94047 -0.43169,1.20256 -0.33918,0.50878 -0.37001,1.35674 0,2.63638 0.18501,1.21798 0.90963,2.01969 1.69592,2.11219 0.98672,0.15417 2.14302,0.38544 3.91603,0.30835 -1.43382,-1.92718 -2.0351,-3.42267 -1.75759,-4.57898 0.20043,-1.09463 0.81712,-2.23552 1.55716,-3.11432 0.92505,-0.8017 1.98885,-1.37215 3.31475,-1.74217 0.3546,-0.16959 0.81712,0.15418 1.14089,0.75546 0.72462,1.11005 1.03297,2.28178 0.72462,3.43808 0,0.32377 -0.15418,0.58587 -0.15418,0.90963 0.3546,-0.18501 0.66295,-0.50877 0.83254,-0.75545 0.9713,-1.01755 1.588,-2.15844 2.26637,-3.17599 0.60128,-1.14089 0.67836,-2.17386 0.24668,-3.28392 -0.6167,-1.49549 -1.55717,-2.14302 -2.9139,-2.1276 -0.29293,0 -0.58586,0 -0.95588,0.15417 -1.24881,0.49336 -2.57471,0.84796 -3.83894,1.3259 -1.14089,0.43169 -2.43595,0.2621 -3.70018,-0.72462 -1.49549,-4.39396 -2.26636,-8.78793 -2.54388,-12.79646 -0.15417,-1.92718 -0.15417,-4.44022 0.15418,-7.15369 -1.71134,0.72462 -3.361,1.0638 -5.08775,0.63212 -0.15418,0.69378 -0.47794,1.40298 -1.11006,1.89634 l 0.15417,0.15417 4.67149,19.79598 c 0.15417,0.24668 0,0.50878 0,0.83254 -3.33017,3.28392 -5.11859,6.52158 -5.70445,8.72627 z"
       id="path24"
       style="fill:#1a1a1a;stroke:#800000;stroke-width:1" />
    <path
       d="m 129.80819,192.53307 c -0.94046,0.60128 -1.49549,1.54174 -1.92717,2.77514 -0.15418,0.30835 -0.20043,0.67837 -0.18501,1.14089 0,0.78629 0.3546,1.60341 0.89421,2.35886 0.50877,0.75546 1.89634,1.09464 4.14729,1.14089 -1.17173,-1.94259 -1.24882,-3.46892 -0.53961,-4.33229 0.72461,-0.83254 1.72675,-1.60342 3.00639,-2.01969 0.38544,-0.15417 0.89421,-0.29293 1.46466,-0.84795 0.57044,-0.60128 1.43382,-1.48008 2.28178,-2.37429 0.40085,-0.4471 0.95588,-0.92504 1.37215,-1.35673 l -0.64753,-0.72462 c -1.18714,0.67837 -2.32803,1.0638 -3.65393,1.3259 -1.43382,0.29293 -2.66722,0.84796 -3.73102,1.49549 -0.87879,0.27751 -1.6805,0.84796 -2.48221,1.4184 z"
       id="path26"
       style="fill:#1a1a1a;stroke:#800000;stroke-width:1" />
    <path
       d="m 134.84969,195.98658 c -0.23126,0.90962 -0.30835,2.15844 0.30835,3.33016 0.43169,1.43382 1.00213,1.97343 1.89635,1.66508 0.97129,-0.15417 2.05051,-0.40085 3.4535,-0.61669 -1.72675,-1.26423 -2.28178,-2.63639 -1.64967,-3.77727 0.60128,-1.14089 1.15631,-2.11219 1.55716,-2.82139 0.50878,-0.75546 0.89422,-1.44924 1.6805,-2.00427 0.15418,-0.2621 0.37002,-0.7092 0.40086,-1.20256 0,0.49336 -0.24668,0.94046 -0.40086,1.20256 -0.37001,0.50878 -0.38543,1.34132 0,2.63638 0.1696,1.21798 0.86338,2.01968 1.66509,2.11219 0.98671,0.15417 2.14302,0.38543 3.93144,0.30835 -1.46465,-1.92718 -2.06593,-3.42267 -1.773,-4.57898 0.20042,-1.09464 0.81712,-2.23553 1.55716,-3.11432 0.94046,-0.81712 2.01968,-1.37215 3.33016,-1.74217 0.33918,-0.16959 0.81713,0.15417 1.12547,0.74004 0.72462,1.12547 1.03297,2.29719 0.72462,3.4535 0,0.32377 -0.15417,0.57045 -0.15417,0.90963 0.3546,-0.18501 0.64753,-0.50878 0.81712,-0.75545 0.98672,-1.01755 1.588,-2.15844 2.28178,-3.17599 0.60128,-1.14089 0.67837,-2.17386 0.2621,-3.28392 -0.63212,-1.51091 -1.588,-2.15844 -2.92931,-2.1276 -0.30835,0 -0.60128,0 -0.95588,0.15417 -1.26423,0.49336 -2.60555,0.83254 -3.85436,1.3259 -1.14089,0.43169 -2.40512,0.24668 -3.70018,-0.74004 -1.49549,-4.37855 -2.28178,-8.77251 -2.54388,-12.78104 -0.15417,-1.92718 -0.15417,-4.44022 0.15417,-7.16911 -1.74216,0.74004 -3.37641,1.0638 -5.11858,0.64753 -0.15418,0.69379 -0.46252,1.40299 -1.09464,1.89635 l 0.15418,0.15417 4.67148,19.79598 c 0.15417,0.24668 0,0.49336 0,0.83254 -3.34559,3.28391 -5.11859,6.50616 -5.68903,8.72627 z"
       id="path28"
       style="fill:#1a1a1a;stroke:#800000;stroke-width:1" />
    <path
       d="m 129.284,36.755379 c -2.42053,1.171724 -4.82565,2.204694 -7.0766,3.376414 -2.43595,1.03297 -4.71773,2.22011 -6.84534,3.54601 -2.40512,1.3259 -4.68689,2.80597 -6.82992,4.56356 -2.14302,1.48007 -4.14729,3.25308 -5.62736,5.16484 -1.86551,2.20469 -3.08348,4.56356 -3.86977,7.36953 -0.67837,2.79055 -1.06381,5.58111 -1.06381,8.541247 -0.15417,2.79056 0,5.73529 0.38544,8.68002 0.53961,2.96014 0.94046,5.7507 1.61883,8.10956 0.2621,0.15418 0.40085,0.29294 0.64753,0.43169 1.35674,1.03297 2.5593,2.20469 3.76185,3.39184 0.38544,0.89421 0.94047,1.63424 1.35674,2.49762 1.72675,1.63425 3.4535,2.51304 4.93358,2.66721 1.60341,0 2.40511,-0.58586 2.55929,-1.75758 -0.41627,-1.77301 -0.95588,-3.54601 -1.75759,-5.14942 -1.3259,-2.22011 -2.52846,-4.73315 -3.48434,-7.38495 -1.0638,-2.94473 -1.0638,-5.59653 0.2621,-8.09415 1.07922,-2.49762 2.82139,-4.57898 4.97983,-6.197807 2.3897,-1.61883 4.79482,-3.25307 7.21536,-4.54814 2.40511,-1.48007 4.81023,-2.82139 7.07659,-3.68476 2.5593,-1.18715 4.96442,-2.23553 7.38495,-2.96015 2.52846,-1.03297 5.21109,-1.773 7.75497,-2.34345 2.79055,-0.75545 5.47319,-1.34132 8.03248,-1.92718 2.66721,-0.4471 5.07233,-1.01755 7.61621,-1.3259 2.82139,-0.29293 5.4886,-0.74003 8.29458,-1.1563 2.54387,-0.32377 5.2265,-0.75546 7.90914,-1.06381 0,0 0,0 0.15417,0 2.01968,-0.58586 3.74644,-1.89634 5.36527,-3.96228 1.48007,-2.20469 2.40511,-4.57897 3.22224,-7.076595 -0.81713,0.724619 -1.74217,1.325895 -2.94473,1.634245 -2.54388,0.74004 -5.10317,1.46466 -7.77038,2.20469 -2.66722,0.72462 -5.36527,1.31049 -8.01707,1.48008 -2.68263,0.15417 -5.50402,0.29293 -8.30999,0.15417 1.07922,-0.15417 2.00426,-0.41627 2.94473,-0.72462 2.54387,-1.17172 4.96441,-2.49762 7.23077,-3.823519 2.14302,-1.171725 4.14729,-2.944729 5.88946,-4.995247 1.74217,-2.374284 3.48434,-4.578976 5.07233,-6.783669 1.48008,-2.204692 2.15844,-5.010664 2.00427,-8.556672 -1.3259,1.341316 -2.92931,2.374284 -5.07234,3.253077 -2.26636,1.171725 -4.82565,2.065935 -7.49287,3.098903 -2.66721,1.01755 -4.94899,1.757587 -6.95326,2.497624 -2.01968,0.740036 -4.56355,1.634247 -7.36953,2.651797 -2.80597,1.032968 -5.50402,1.911761 -7.89372,2.944729 -2.40512,0.894211 -4.94899,1.634247 -7.63163,2.358867 -2.68263,0.740036 -5.34984,1.773004 -7.61621,2.944728"
       id="path30"
       style="stroke:#800000;stroke-width:1" />
    <path
       d="m 169.69308,57.383903 c -2.40512,2.06593 -4.13187,3.39183 -5.4886,4.27062 0.27751,0 0.8017,0 1.35673,0 1.72675,0.15418 3.85436,0.15418 6.41365,0 2.3897,0 4.93358,0 7.75497,0.41627 2.80597,0.44711 2.92931,1.92718 0.40085,4.44022 -0.2621,0 -0.55503,0.29293 -0.55503,0.44711 -0.78629,0.43169 -1.31048,1.048377 -1.98885,1.603407 -1.34131,0.89421 -2.68263,1.773 -4.14728,2.82139 -1.60342,0.87879 -3.22225,1.46466 -4.949,1.60341 l -0.15417,0.60128 c 1.3259,0.15418 2.79055,0.29293 4.4248,0.58586 2.26636,0.44711 2.79055,1.61883 1.72675,3.68477 4.27063,0 6.82992,0.29293 7.75497,0.72462 2.55929,1.35673 5.08775,2.22011 7.63162,2.80597 2.80598,0.44711 5.62737,0.87879 8.41792,1.31048 2.96015,0.30835 5.50402,-0.43169 7.77038,-1.89634 2.15844,-1.48007 3.8852,-3.39184 5.22651,-5.88946 -2.40512,0 -4.96441,0 -7.23077,-0.29293 -2.80597,-0.15417 -5.36527,-0.74004 -7.89372,-1.63425 -2.66722,-1.01755 -5.2111,-2.20469 -7.63163,-3.37641 -2.40512,-1.18715 -5.34985,-1.927177 -8.43333,-2.065937 1.34131,0 2.68263,0 4.1627,0 2.80597,0 5.61194,0 8.55667,0 2.54388,-0.15417 5.21109,-0.15417 8.01707,-0.29293 2.82139,0 5.4886,-0.74004 7.7858,-1.91176 2.37428,-1.34132 4.40938,-3.2685 5.73528,-5.7507 1.35673,-2.35887 1.20256,-3.66935 -0.66295,-3.66935 -2.80597,-0.15417 -5.47319,-0.30835 -8.29457,-0.15417 -2.82139,0 -5.62737,-0.15418 -8.41792,-0.60128 -1.20256,0 -2.15844,0.15417 -3.22224,0.30834 -0.80171,0 -1.60342,0 -2.28178,0 -14.58489,0.44711 -21.939,1.01755 -21.81566,1.91177"
       id="path32"
       style="stroke:#800000;stroke-width:1" />
    <path
       d="m 219.5993,159.61686 c 4.56356,0.86338 8.04789,-0.43169 10.4376,-3.83894 1.49549,-2.51304 2.43595,-4.28604 2.68263,-5.45777 -4.53273,0 -8.68001,-0.29293 -12.71938,-1.01755 -4.67148,-1.04838 -9.08087,-2.05052 -13.38233,-3.39183 -1.0638,1.03297 -2.26636,1.91176 -3.59226,2.34345 -1.61883,0.60128 -3.34558,1.18714 -5.10317,1.64966 l -0.64753,2.05052 c 9.34296,4.85649 16.83583,7.35411 22.32444,7.66246"
       id="path34"
       style="stroke:#800000;stroke-width:1" />
    <path
       d="m 174.51874,77.85824 c -0.27752,0.15417 -0.41627,0.29293 -0.53961,0.43169 -2.28178,1.46465 -4.40939,2.82139 -6.15156,3.68476 -1.74217,1.03297 -2.68263,1.48008 -2.94473,1.48008 -1.34131,2.51304 -3.08348,4.73315 -5.2265,6.04363 -0.27752,0.15417 -0.67837,0.43169 -0.94047,0.58586 1.34132,1.773 2.82139,3.25308 4.54814,5.01066 2.14303,1.89635 4.56356,2.94473 7.35412,3.08349 2.82139,0.15417 5.50402,0.15417 8.17123,0 -1.88092,-1.3259 -3.62309,-3.37642 -5.07233,-5.59653 -1.74217,-2.18927 -3.0989,-4.56355 -4.02395,-7.06118 1.34132,0.8788 2.80597,2.05052 4.28605,3.22224 2.14302,1.64967 4.40938,3.11432 6.95326,4.14729 2.68263,1.17173 5.34984,1.61883 8.30999,1.75759 2.94473,-0.15417 5.47319,-1.01755 7.49287,-2.79056 -1.48007,-0.74003 -3.08349,-2.06593 -4.54814,-3.546 -2.01968,-1.91176 -4.02395,-3.82353 -6.16697,-6.04364 -2.01969,-2.05051 -5.88946,-3.53059 -11.5014,-4.40938"
       id="path36"
       style="stroke:#800000;stroke-width:1" />
    <path
       d="m 164.88284,83.45477 c -2.42053,0.4471 -4.82565,0.58586 -7.23077,0.4471 -0.66295,0 -2.96015,-0.15417 -6.56782,-0.58586 -0.5242,0.58586 -1.06381,1.03297 -1.72676,1.46466 -2.28178,1.91176 -4.4248,3.53059 -6.69116,4.85649 -0.94046,0.58586 -1.74217,1.18714 -2.82139,1.61883 1.07922,0.72461 2.42054,1.32589 4.02395,1.17172 2.68263,-0.15417 5.34985,-0.44711 8.01706,-0.44711 h 1.0638 c 1.88093,-0.15417 3.90061,-0.86337 5.62737,-1.89634 -0.15418,-0.27751 0.15417,0 0.15417,0 0.2621,-0.15417 0.66295,-0.4471 0.94046,-0.58586 2.14303,-1.31048 3.88519,-3.53059 5.22651,-6.04363"
       id="path38"
       style="stroke:#800000;stroke-width:1" />
    <path
       d="m 150.29796,94.80199 c -0.94047,0.8788 -1.88093,1.61883 -2.68264,2.49763 -1.60341,1.46465 -3.34558,2.34345 -5.34984,2.94473 0.40085,1.17172 0.40085,2.20469 0.24667,3.39183 -0.15417,1.48007 -0.78628,3.0989 -1.98884,4.73315 -1.75759,2.32803 -4.02395,3.37642 -6.56783,2.63638 0.53961,0.86338 1.46466,1.60341 2.82139,2.51304 1.88093,1.31048 3.86978,2.18928 5.88946,2.77514 0.52419,0 0.92504,0 1.46465,0.15417 0.80171,0.15418 1.3259,0.15418 2.01969,0.15418 2.26636,-0.15418 4.14729,-0.89421 5.47319,-2.35887 -1.72676,-0.72462 -3.20683,-1.773 -4.54815,-3.54601 -1.88092,-2.32803 -3.361,-4.70231 -4.40938,-7.06118 1.04838,1.48007 2.40512,2.6518 3.99311,3.83894 2.43596,1.61883 5.10317,2.35887 8.03248,2.35887 3.22225,0.15417 5.36527,-1.04839 6.30573,-3.70019 -2.28178,-0.72462 -4.14729,-2.35886 -5.76612,-4.54814 -1.18714,-1.64966 -2.28178,-3.40725 -3.46892,-4.87191 -0.40085,-0.4471 -0.94046,-1.17172 -1.46465,-1.91176"
       id="path40"
       style="stroke:#800000;stroke-width:1" />
    <path
       d="m 147.61532,97.29962 c 0.80171,-0.8788 1.74217,-1.61883 2.68264,-2.49763 0.78629,-1.03296 1.74217,-1.91176 2.65179,-2.82139 -0.38543,0 -0.78628,0 -1.0638,0 -2.66721,0 -5.33443,0.30835 -8.01706,0.44711 -1.60341,0.15417 -2.94473,-0.44711 -4.02395,-1.17172 -0.80171,0.15417 -1.60341,0.30834 -2.40512,0.60127 0.15418,3.08349 -1.0638,5.59653 -3.48434,7.35412 -0.66295,0.29293 -1.3259,0.72462 -2.00426,1.18714 2.68263,0.58586 5.4886,0.58586 8.29457,0.29293 0.67837,-0.15417 1.35674,-0.29293 2.01969,-0.4471 2.00426,-0.60128 3.74643,-1.48008 5.34984,-2.94473"
       id="path42"
       style="stroke:#800000;stroke-width:1" />
    <path
       d="m 151.76261,96.71375 c 0.66295,0.8788 1.60341,1.61883 2.68263,2.49763 1.588,0.89421 3.34559,1.773 5.2111,2.37428 2.66721,0.72462 5.34984,1.01755 7.8783,0.57045 -1.71133,-1.46466 -3.4535,-2.94473 -4.81024,-4.99525 -1.72675,-2.35887 -3.06806,-4.73315 -4.14728,-7.0766 -1.72676,1.03297 -3.74644,1.773 -5.62737,1.89634 -0.90962,0.90963 -1.8655,1.78843 -2.65179,2.82139 0.52419,0.74004 1.0638,1.46466 1.46465,1.91176"
       id="path44"
       style="stroke:#800000;stroke-width:1" />
    <path
       d="m 171.57401,145.17073 c -1.21798,0.29293 -2.54388,0.29293 -3.90061,0.15418 -0.15418,0 -0.15418,0 -0.2621,0 -0.26209,-0.15418 -0.38543,-0.15418 -0.53961,-0.15418 -0.26209,0.15418 -0.78629,0.43169 -1.31048,0.74004 -0.67837,0.43169 -1.48007,0.74003 -2.15844,1.03297 -0.67837,0.15417 -1.60341,0.43168 -2.26636,0.58586 -0.15418,0.72462 -0.27752,1.3259 -0.53961,1.773 -0.2621,0.44711 -0.67837,0.89421 -1.0638,1.18714 1.32589,0.57045 2.66721,1.31049 3.73101,2.34345 1.48008,1.03297 2.94473,2.2047 4.27063,3.39184 1.35673,1.03297 2.68263,2.22011 4.03937,3.39183 1.20256,1.3259 2.40512,2.63638 3.59226,4.11646 0.41627,0.74003 1.21797,1.32589 1.89634,1.91176 0.78629,0.4471 1.46466,0.87879 2.26636,1.3259 1.74217,0.4471 3.48434,0.74003 5.48861,0.74003 1.34131,-0.15417 2.40512,-0.74003 3.48434,-1.75758 -1.34132,-0.74004 -2.54388,-1.48008 -3.60768,-2.22011 -1.48007,-1.17173 -2.83681,-2.35887 -4.14729,-3.5306 -1.35673,-1.32589 -2.69805,-2.65179 -4.02395,-3.82352 -1.35673,-1.18714 -2.68263,-2.22011 -4.02395,-3.11432 -1.74217,-0.87879 -3.1914,-1.773 -4.82565,-2.77514 -1.31048,-0.89421 -2.66722,-1.63424 -4.00853,-2.37428 1.34131,0.74004 2.69805,1.48007 4.00853,2.37428 1.63425,1.00214 3.08348,1.89635 4.82565,2.77514 1.34132,0.89421 2.66722,1.92718 4.02395,3.11432 1.3259,1.17173 2.66722,2.49763 4.02395,3.82352 1.31048,1.17173 2.66722,2.35887 4.14729,3.5306 1.0638,0.74003 2.26636,1.48007 3.60768,2.22011 0.24668,0.15417 0.40085,0.15417 0.66295,0.27751 1.60341,0.89421 3.34558,1.3259 5.33443,1.48007 1.89634,0 3.62309,-0.15417 5.10317,-0.74003 0.53961,0 0.94046,-0.15418 1.35673,-0.27752 -0.15418,-0.16959 -0.15418,-0.16959 -0.15418,-0.16959 -1.60341,-0.87879 -3.06806,-2.05052 -4.27062,-3.22224 -1.21798,-1.17173 -2.42054,-2.51304 -3.74644,-3.68477 -1.35673,-1.17172 -2.82139,-2.35886 -4.1627,-3.53059 -1.35674,-0.89421 -2.66722,-2.06593 -4.02395,-3.11432 -1.3259,-1.17172 -2.80597,-2.20469 -4.27063,-3.06807 -1.48007,-1.17172 -3.22224,-2.08135 -4.6869,-3.11432 -1.20256,-0.72462 -2.54387,-1.18714 -3.86977,-1.61883"
       id="path46"
       style="stroke:#800000;stroke-width:1" />
    <path
       d="m 159.533,150.48974 c -0.95588,0.72462 -2.14303,1.00214 -3.76186,1.00214 1.21798,0.60128 5.08775,6.49073 11.7635,17.54503 0.95588,1.03297 2.57471,1.34132 4.70232,1.17173 2.00426,-0.43169 3.34558,-1.17173 4.14728,-2.79056 0.15418,-0.4471 0.41628,-1.18714 0.67837,-1.773 -0.67837,-0.58587 -1.48007,-1.17173 -1.89634,-1.91176 -1.18714,-1.48008 -2.3897,-2.79056 -3.59226,-4.11646 -1.35674,-1.17172 -2.68264,-2.35886 -4.03937,-3.39183 -1.3259,-1.18714 -2.79055,-2.35887 -4.27063,-3.39184 -1.0638,-1.03296 -2.40512,-1.773 -3.73101,-2.34345"
       id="path48"
       style="stroke:#800000;stroke-width:1" />
    <path
       d="m 175.44378,146.78956 c 1.46466,1.03297 3.20683,1.9426 4.6869,3.11432 1.46466,0.86338 2.94473,1.89635 4.27063,3.06807 1.35673,1.04839 2.66721,2.22011 4.02395,3.11432 1.34131,1.17173 2.80597,2.35887 4.1627,3.53059 1.3259,1.17173 2.52846,2.51304 3.74644,3.68477 1.20256,1.17172 2.66721,2.34345 4.27062,3.22224 0,0 0,0 0.15418,0.16959 4.00853,1.15631 7.89372,0.86338 11.2393,-1.18714 3.33017,-2.06594 5.87404,-3.99311 7.6008,-5.88946 -5.48861,-0.30835 -12.98148,-2.80597 -22.32444,-7.66246 -1.35673,-0.74004 -2.55929,-1.3259 -3.90061,-2.05052 -4.00853,-2.37428 -8.41791,-4.8719 -13.24357,-7.84747 -3.60768,1.64967 -6.02821,2.52846 -6.95326,2.83681 -0.53961,0 -1.07922,0.15417 -1.60341,0.27751 1.3259,0.43169 2.66721,0.89421 3.86977,1.61883"
       id="path50"
       style="stroke:#800000;stroke-width:1" />
    <path
       style="fill:#000000;stroke:none;stroke-width:0.770871"
       d="m 53.538178,80.21711 c -1.202559,1.48007 -1.742169,2.94473 -1.634247,4.27062 1.217977,1.48008 2.57471,1.75759 4.301462,0.74004 0.400854,-0.15417 0.555028,-0.4471 0.817124,-0.87879 0.246679,-1.03297 0.385436,-2.51304 0.154174,-4.13187 -1.310481,0.4471 -2.543875,0.4471 -3.59226,0 z"
       id="path52" />
    <path
       style="fill:#ffffff;stroke:none;stroke-width:1"
       d="m 56.205393,85.22777 c -1.726752,1.01755 -3.083485,0.74004 -4.301462,-0.74004 0,0.8788 0.292931,1.75759 0.817124,2.6518 1.356733,0.43169 3.098903,0.72462 4.948994,0.43169 1.61883,-0.15417 2.944729,-1.03297 4.162706,-2.34345 0.662949,-0.87879 1.063802,-2.06593 1.325899,-3.39183 -1.726752,-0.30835 -3.206826,-1.03297 -4.409385,-2.2047 -0.262096,0.15418 -0.524193,0.30835 -0.801706,0.43169 -0.400853,0 -0.53961,0.15418 -0.801707,0.15418 0.262097,1.61883 0.154175,3.0989 -0.154174,4.13187 -0.262096,0.43169 -0.41627,0.72462 -0.817123,0.87879 z"
       id="path54" />
    <path
       d="m 106.66663,143.84483 c -1.34131,-0.29293 -2.28178,-0.43168 -3.08348,-0.87879 0.26209,1.61883 0.94046,3.23766 2.00426,4.70232 0.94047,1.49549 2.01969,2.82138 3.20683,4.13187 1.09464,1.34131 2.15844,2.80597 3.08348,4.4248 1.07922,1.61883 1.60342,3.39183 1.74217,5.28818 0.15418,2.06593 0,3.99311 -0.53961,5.90487 -0.53961,1.61883 -1.34131,2.6518 -2.54387,3.25308 2.00426,0.27751 3.76185,0.27751 5.36526,0 0.53961,0 1.06381,-0.46252 1.48008,-0.89421 0.38543,-0.29293 0.52419,-0.60128 0.78629,-1.04839 0,-0.29293 0.15417,-0.57044 0.27751,-1.01755 1.3259,0.44711 2.79055,1.18714 4.67148,2.06594 0.66295,0.43169 1.46466,0.72462 2.2972,1.03297 0.92504,0.15417 1.71133,0.43168 2.66721,0.58586 1.20256,0 2.12761,-0.15418 2.79056,-0.44711 0.15417,-0.57044 0.40085,-1.17172 0.67836,-1.91176 0.2621,-0.87879 0.53961,-1.61883 0.66295,-2.6518 -1.34131,0 -2.52846,-0.74003 -3.48434,-2.20469 -1.0638,-1.61883 -1.98884,-2.96015 -2.79055,-4.25521 1.58799,0 3.20682,0 4.67148,-0.18501 -1.46466,-0.43169 -2.66721,-1.75759 -3.86977,-3.361 -0.94047,-1.63425 -1.3259,-3.54601 -0.80171,-5.7507 -0.40085,-0.30835 -0.80171,-0.43169 -1.0638,-0.72462 -1.75759,-0.90963 -3.361,-1.91176 -4.949,-2.82139 -0.9713,-0.74003 -2.01968,-1.31048 -2.96014,-2.05051 -0.5242,0 -0.94047,0 -1.46466,0 -2.96015,0 -5.76612,-0.30835 -8.83419,-1.18715"
       id="path56"
       style="stroke:#800000;stroke-width:1" />
    <path
       d="m 150.69881,51.047333 c -2.55929,0.58586 -5.24193,1.17173 -8.03248,1.92718 -2.54388,0.57045 -5.22651,1.31048 -7.75497,2.34345 -2.42053,0.72462 -4.82565,1.773 -7.38495,2.96015 -2.26636,0.86337 -4.67148,2.20469 -7.07659,3.68476 -2.42054,1.29507 -4.82566,2.92931 -7.21536,4.54814 -2.15844,1.618827 -3.90061,3.700187 -4.97983,6.197807 -1.3259,2.49762 -1.3259,5.14942 -0.2621,8.09415 0.95588,2.6518 2.15844,5.16484 3.48434,7.38495 0.80171,1.60341 1.34132,3.37641 1.75759,5.14942 0.24668,1.01755 0,2.77514 -0.55503,5.134 -0.66295,2.51304 -2.52846,3.83894 -6.0128,4.13187 3.48434,-0.29293 5.34985,-1.61883 6.0128,-4.13187 0.55503,-2.35886 0.80171,-4.11645 0.55503,-5.134 -0.15418,1.17172 -0.95588,1.75758 -2.55929,1.75758 -1.48008,-0.15417 -3.20683,-1.03296 -4.93358,-2.66721 -0.41627,-0.86338 -0.9713,-1.60341 -1.35674,-2.49762 -1.20255,-1.18715 -2.40511,-2.35887 -3.76185,-3.39184 -0.24668,-0.15417 -0.38543,-0.29293 -0.64753,-0.43169 -0.53961,-0.29293 -0.94046,-0.58586 -1.34132,-0.58586 -1.46465,-0.74003 -2.94472,-1.48007 -4.68689,-2.20469 -1.46466,-0.74004 -3.34559,-1.04839 -5.36527,-0.89421 0.53961,-0.15418 1.09464,-0.58586 1.48007,-0.89421 0.80171,-1.03297 1.20256,-2.05052 1.48008,-3.06807 -0.94047,0.43169 -2.96015,0.43169 -5.90488,0 -4.409378,-0.60128 -7.199938,-1.18714 -8.834178,-1.63425 1.74216,-0.58586 2.42053,-1.91176 2.42053,-4.11645 -0.15417,-2.22011 -1.18714,-3.39184 -3.06807,-3.83894 0,0.58586 -0.15417,1.04838 -0.29293,1.46465 -0.38543,1.77301 -1.46465,2.82139 -3.19141,2.94473 -1.72675,0.1696 -3.60767,0.1696 -5.4886,0 -1.742169,-0.15417 -3.484338,-0.29293 -5.349847,-0.29293 -1.880927,0 -3.607679,0.16959 -5.365265,0.46253 -1.880927,0.15417 -3.345582,1.01755 -4.671481,2.34344 -0.400853,0.8788 -0.53961,1.61883 -0.53961,2.35887 0,0.87879 0.53961,1.60341 1.464656,1.91176 0.277513,0.15418 0.400853,0.15418 0.817123,0.15418 1.048385,0.4471 2.28178,0.4471 3.607678,0 0.262097,0 0.400854,-0.15418 0.801707,-0.15418 0.277513,-0.15417 0.53961,-0.30835 0.801706,-0.43169 0.400853,-0.30834 0.801706,-0.60128 1.07922,-0.74003 0.925046,-0.74004 2.004266,-1.48008 3.068068,-1.77301 -1.063802,0.29293 -2.143022,1.03297 -3.068068,1.77301 -0.277514,0.15417 -0.678367,0.43169 -1.07922,0.74003 1.202559,1.17173 2.682633,1.89635 4.409385,2.2047 h 0.678366 c 1.603413,0.43168 3.345582,0.30834 5.226512,0 0.8017,-0.15418 1.46465,-0.30835 2.1276,-0.44711 -0.66295,0.15418 -1.3259,0.30835 -2.1276,0.44711 -1.88093,0.30834 -3.623099,0.43168 -5.226512,0 h -0.678366 c -0.262097,1.3259 -0.66295,2.51304 -1.325899,3.39183 -1.217977,1.31048 -2.543876,2.20469 -4.162706,2.34345 -1.850091,0.29293 -3.592261,0 -4.948994,-0.43169 0.277513,0.29293 0.400853,0.43169 0.678366,0.8788 2.004266,2.37428 2.682633,6.04363 1.880927,10.74594 1.480073,1.17173 2.944728,2.37429 4.270627,3.54601 1.341317,1.3259 2.82139,2.22011 4.286045,3.0989 1.74217,0.72462 3.484342,1.17173 5.226512,1.61883 1.74217,0.27752 3.46892,0.72462 4.94899,1.61883 0.78629,0.27752 1.0638,1.01755 1.0638,2.35887 v 1.03297 c 1.48008,-0.29293 2.28178,-1.34132 2.00427,-3.25308 0.80171,1.48007 1.86551,3.08349 3.08348,4.56356 0.2621,0.30835 0.40086,0.74004 0.40086,1.34132 0.15417,2.05051 0,3.96228 -0.40086,5.59652 -0.15417,0.43169 -0.26209,1.03297 -0.66294,1.17173 2.1276,0.60128 3.74643,0.15417 4.810228,-1.03297 0.15418,-0.43169 0.2621,-0.87879 0.40086,-1.3259 0.92504,1.3259 1.21797,3.0989 0.81712,5.3036 -0.41627,1.91176 -1.21798,3.53059 -2.559288,4.8719 1.603408,0.44711 3.222238,0.74004 5.087748,0.44711 0.52419,-0.16959 1.0638,-0.6167 1.72675,-1.04839 0.55503,-0.74003 1.21798,-1.48007 1.75759,-2.49762 0.15417,2.49762 0.52419,4.40938 1.07922,6.33656 0.50877,1.61883 1.3259,3.08349 2.3897,4.27063 1.21798,1.17173 2.42053,2.22011 3.48434,3.39184 1.21797,1.01755 2.1276,1.773 2.94473,2.06593 0.40085,0.15417 1.0638,0.43169 2.14302,0.72462 0.8017,0.44711 1.74217,0.58586 3.08348,0.87879 3.06807,0.8788 5.87404,1.18715 8.83419,1.18715 h 1.46466 c -0.40086,-0.30835 -0.80171,-0.74004 -1.21798,-1.18715 -1.3259,-1.17172 -2.51304,-2.65179 -3.33017,-4.40938 -0.94046,-1.63425 -1.60341,-3.39184 -2.26636,-5.3036 -0.66295,-1.61883 -0.95588,-3.54601 -0.95588,-5.45777 0,-2.06593 0.69379,-3.66934 2.01969,-4.71773 -1.3259,1.04839 -2.01969,2.6518 -2.01969,4.71773 0,1.91176 0.29293,3.83894 0.95588,5.45777 0.66295,1.91176 1.3259,3.66935 2.26636,5.3036 0.81713,1.75759 2.00427,3.23766 3.33017,4.40938 0.41627,0.44711 0.81712,0.8788 1.21798,1.18715 0.94046,0.74003 1.98884,1.31048 2.96014,2.05051 1.588,0.90963 3.19141,1.91176 4.949,2.82139 0.26209,0.29293 0.66295,0.41627 1.0638,0.72462 1.0638,0.74004 2.14302,1.75759 3.05265,2.63638 1.35673,1.48007 2.17386,2.96015 2.55929,4.71773 0.40086,1.9426 0.66295,3.83894 0.81713,5.75071 0,0.87879 0,1.773 -0.15418,2.65179 -0.15417,1.03297 -0.40085,1.77301 -0.66295,2.6518 -0.27751,0.74004 -0.53961,1.34132 -0.67836,1.91176 -0.15418,0.44711 -0.2621,0.60128 -0.38544,0.89421 1.60341,0.29293 3.20683,0.15418 4.93358,-0.29293 l 0.15417,-0.15417 c 0.80171,-0.15418 1.46466,-0.58586 1.86551,-1.18714 1.3259,1.18714 2.96015,1.63424 4.82566,1.75758 1.18714,0.16959 2.1276,0 3.34558,-0.15417 0.66295,0 1.46465,-0.29293 2.1276,-0.44711 1.48008,-0.58586 3.74644,0.27752 6.70658,2.49763 -3.62309,-4.85649 -5.76611,-7.50829 -6.42906,-8.10957 -1.35674,-1.17173 -2.40512,-2.48221 -3.20683,-3.82352 -0.27751,-0.27752 -0.41627,-0.74004 -0.41627,-1.31048 1.61883,0.72461 3.22224,1.17172 5.22651,1.03296 h 3.22224 c -1.21797,-0.74003 -2.54387,-1.63424 -4.00853,-2.66721 -1.63425,-1.03297 -2.55929,-2.35887 -2.96015,-4.27063 -0.15417,-0.72462 -0.41627,-1.31048 -0.67836,-1.91176 1.46465,0 3.08348,0.15417 4.82565,0 -1.34131,-0.44711 -2.54387,-1.34132 -3.74643,-2.51304 -1.34132,-1.15631 -2.40512,-2.32803 -3.361,-3.80811 -1.04839,-1.48007 -1.57258,-3.0989 -1.57258,-5.01066 -0.15417,-1.77301 -0.15417,-3.83894 0,-5.7507 v -2.06594 2.06594 c -0.15417,1.91176 -0.15417,3.97769 0,5.7507 0,1.91176 0.52419,3.53059 1.57258,5.01066 1.07922,0.15418 2.01968,0.43169 2.8368,0.74004 1.72676,0.74004 3.34559,1.29506 4.949,2.05052 1.72675,0.72462 3.46892,1.46465 5.07233,2.18927 1.61883,0 2.80598,-0.27751 3.76186,-1.00213 0.38543,-0.29293 0.8017,-0.74004 1.0638,-1.18714 0.26209,-0.44711 0.40085,-1.04839 0.53961,-1.77301 -2.01968,0.46253 -3.74644,0.15418 -5.22651,-0.58586 -1.60341,-0.87879 -3.06807,-1.773 -4.54814,-2.51304 -1.60341,-1.01755 -3.74644,-1.75759 -6.42907,-2.48221 2.68263,0.72462 4.82566,1.46466 6.42907,2.48221 1.48007,0.74004 2.94473,1.63425 4.54814,2.51304 1.48007,0.74004 3.20683,1.04839 5.22651,0.58586 0.66295,-0.15417 1.58799,-0.4471 2.26636,-0.58586 0.67837,-0.29293 1.48007,-0.60128 2.15844,-1.03297 0.52419,-0.30834 1.04839,-0.58586 1.31048,-0.74003 -1.46465,-0.15418 -2.79055,-0.58587 -4.14729,-1.01755 -1.58799,-0.74004 -3.1914,-1.64967 -4.81023,-2.2047 -1.88093,-0.75545 -3.86978,-1.773 -6.15156,-2.94472 2.28178,1.17172 4.27063,2.18927 6.15156,2.94472 1.61883,0.55503 3.22224,1.46466 4.81023,2.2047 1.35674,0.43168 2.68264,0.87879 4.14729,1.01755 0.15418,0 0.27752,0 0.53961,0.15417 h 0.2621 c 1.35673,0.15418 2.68263,0.15418 3.90061,-0.15417 0.52419,-0.15418 1.0638,-0.27752 1.60341,-0.27752 0.92505,-0.30835 3.34558,-1.18714 6.95326,-2.82139 l 2.68263,-1.03296 c -3.62309,-0.86338 -10.4376,-3.06807 -16.34247,-5.58111 -3.74644,-1.61883 -6.67575,-2.94473 -8.68001,-4.14729 2.00426,1.20256 4.93357,2.52846 8.68001,4.14729 5.90487,2.51304 10.34509,3.97769 13.93735,4.84107 1.17173,0.37002 1.60342,0.60128 2.40512,0.74004 -0.95588,0.29293 -1.88092,0.74003 -2.68263,1.03296 4.82566,2.96015 9.23504,5.45777 13.24357,7.83206 1.48007,0.29293 3.08349,0.29293 4.54814,0 1.75759,-0.46253 3.48434,-1.04839 5.10317,-1.64967 1.3259,-0.43169 2.52846,-1.31048 3.59226,-2.34345 0.67837,-0.58586 1.21798,-1.3259 1.74217,-2.06593 h -3.34558 c -2.80597,-0.29293 -5.61194,-0.72462 -8.41792,-1.17173 -2.68263,-0.60128 -5.2265,-1.48007 -7.77038,-2.80597 -2.40512,-1.17172 -4.6869,-2.34345 -7.23077,-3.23766 -2.40512,-1.03297 -4.79482,-2.20469 -7.23078,-3.37642 -2.52846,-1.18714 -4.94899,-2.49762 -7.61621,-3.70018 -2.40512,-1.18714 -4.82565,-2.20469 -7.09201,-3.08348 -0.53961,-0.15418 -1.07922,-0.44711 -1.34132,-0.44711 -5.88946,-3.08348 -9.21962,-5.30359 -10.29884,-6.62949 -0.67837,-1.03297 -1.35674,-1.77301 -1.86551,-2.79056 -0.69379,0 -1.21798,0 -2.01969,-0.15417 -0.53961,-0.15418 -0.94046,-0.15418 -1.46465,-0.15418 -1.0638,1.3259 -2.54388,2.35887 -4.28605,2.80598 -0.67836,0 -1.20256,0 -1.74217,0.15417 -0.26209,1.91176 -1.46465,3.08349 -3.34558,3.82352 -1.74217,0.58586 -3.46892,1.18714 -5.21109,1.63425 -1.74217,0.43169 -3.62309,0.57044 -5.4886,0.57044 -1.35674,-0.15417 -2.5593,-0.27751 -3.48434,-0.27751 0.92504,0 2.1276,0.15418 3.48434,0.27751 1.86551,0 3.74643,-0.15417 5.4886,-0.57044 1.74217,-0.44711 3.46892,-1.04839 5.21109,-1.63425 1.88093,-0.74003 3.08349,-1.91176 3.34558,-3.82352 -1.34131,0.29293 -2.52845,0.29293 -3.88519,0.29293 -1.88092,0 -3.60768,-0.15417 -5.34984,-0.72462 l -5.19568,-1.34131 5.19568,1.34131 c 1.74216,0.57045 3.46892,0.72462 5.34984,0.72462 1.35674,0 2.54388,0 3.88519,-0.29293 0.53961,-0.15417 1.06381,-0.15417 1.74217,-0.15417 1.74217,-0.44711 3.22225,-1.48008 4.28605,-2.80598 -2.01968,-0.58586 -4.00853,-1.46465 -5.88946,-2.77513 -1.35673,-0.90963 -2.28178,-1.64967 -2.82139,-2.51304 -2.94473,0 -5.7507,0 -8.41791,-0.43169 -0.53961,-0.16959 -0.95588,-0.16959 -1.48008,-0.16959 0.5242,0 0.94047,0 1.48008,0.16959 2.66721,0.43169 5.47318,0.43169 8.41791,0.43169 2.54388,0.74003 4.81024,-0.30835 6.56783,-2.63638 1.20256,-1.63425 1.88092,-3.25308 1.98884,-4.73315 0.15418,-1.18715 0.15418,-2.22011 -0.24667,-3.39184 -0.66295,0.15418 -1.34132,0.30835 -2.01969,0.44711 -2.80597,0.29293 -5.61194,0.29293 -8.29457,-0.29293 -1.60342,0.74003 -3.06807,1.31048 -4.949,1.91176 -1.74217,0.57044 -3.48434,0.57044 -5.21109,0.57044 1.72675,0 3.46892,0 5.21109,-0.57044 1.88093,-0.60128 3.34558,-1.17173 4.949,-1.91176 0.67836,-0.46253 1.34131,-0.89422 2.00426,-1.18715 2.42054,-1.75758 3.6231,-4.27062 3.48434,-7.35411 -0.80171,0.15417 -1.60341,0.15417 -2.52846,0.15417 -2.69805,0 -5.22651,-0.15417 -7.38495,-0.57044 2.15844,0.4471 4.6869,0.57044 7.38495,0.57044 0.92505,0 1.72675,0 2.52846,-0.15417 0.80171,-0.29293 1.60341,-0.44711 2.40512,-0.60128 1.07922,-0.43169 1.88093,-1.03297 2.82139,-1.61883 2.26636,-1.3259 4.40938,-2.94473 6.69116,-4.85649 0.66295,-0.43169 1.20256,-0.87879 1.72676,-1.46466 1.21797,-1.61883 1.60341,-3.25307 1.21797,-5.02608 0.38544,1.77301 0,3.40725 -1.21797,5.02608 3.60767,0.43169 5.90487,0.58587 6.56782,0.58587 2.40512,0.15417 4.81024,0 7.23077,-0.44711 0.2621,0 1.20256,-0.4471 2.94473,-1.48007 1.74217,-0.86338 3.86978,-2.22011 6.15156,-3.68477 0.15417,-0.15417 0.26209,-0.29293 0.53961,-0.43168 1.0638,-2.06594 0.52419,-3.23766 -1.74217,-3.68477 -1.61883,-0.29293 -3.08349,-0.44711 -4.42481,-0.58586 -0.67836,-0.15418 -1.20255,-0.15418 -1.88092,0 -1.98885,0 -3.06807,0 -3.60768,-0.15418 h -0.15417 c -0.5242,0 -1.18715,-0.16959 -1.72676,-0.16959 h -2.14302 c -0.27751,0.16959 -0.66295,0.16959 -1.0638,0.16959 h -1.07922 c -0.2621,0 -0.53961,0 -0.67837,0.15418 -0.15417,0.15417 -0.40085,0.29293 -0.52419,0.4471 -1.34132,1.17173 -2.54388,2.2047 -3.88519,3.08349 -0.92505,0.74004 -1.86551,1.34131 -2.79056,1.91176 -2.55929,1.46466 -5.11858,2.35887 -7.64704,2.49762 -2.14302,0 -4.40939,0 -6.69117,0.16959 2.28178,-0.16959 4.54815,-0.16959 6.69117,-0.16959 2.52846,-0.15417 5.08775,-1.03296 7.64704,-2.49762 0.92505,-0.57045 1.86551,-1.17172 2.79056,-1.91176 1.34131,-0.87879 2.54387,-1.91176 3.88519,-3.08349 0.15417,-0.15417 0.40085,-0.30835 0.52419,-0.4471 0.15418,-0.15418 0.41627,-0.43169 0.55503,-0.74004 1.46466,-1.91176 1.72675,-3.9777 1.0638,-6.629487 -0.15417,0.15417 -0.26209,0.29293 -0.40085,0.29293 -2.28178,1.757577 -4.82566,3.098897 -7.49287,3.823517 -2.68263,0.74004 -5.36527,1.04839 -8.03248,1.17172 h -2.96015 2.96015 c 2.66721,-0.15417 5.34985,-0.43168 8.03248,-1.17172 2.66721,-0.72462 5.21109,-2.06594 7.49287,-3.823517 0.15417,0 0.2621,-0.15418 0.40085,-0.29293 1.46466,-1.3259 3.48434,-2.6518 6.0128,-4.13187 -2.52846,1.48007 -4.54814,2.80597 -6.0128,4.13187 0.66295,2.651787 0.40086,4.717727 -1.0638,6.629487 l 0.15417,0.60128 h 1.07922 c 0.38544,0 0.78629,0 1.06381,-0.16959 h 2.14302 c 0.53961,0 1.20256,0.16959 1.86551,0.16959 1.88092,-0.29293 3.74643,-0.46252 5.62736,-0.46252 1.72675,-0.15418 3.34558,-0.72462 4.94899,-1.60341 1.46466,-1.04839 2.80598,-1.92718 4.14729,-2.82139 0.67837,-0.555027 1.20256,-1.171727 1.98885,-1.603417 0,-0.15417 0.29293,-0.4471 0.55503,-0.4471 2.52846,-2.51304 2.40512,-3.99312 -0.40086,-4.4248 -2.82139,-0.43169 -5.36526,-0.43169 -7.75496,-0.43169 -2.5593,0.15417 -4.6869,0.15417 -6.41365,0 h -1.35674 c 1.35674,-0.8788 3.08349,-2.20469 5.48861,-4.27063 -10.03675,-1.34132 -16.4504,-1.34132 -19.39513,-0.15417 2.94473,-1.18715 9.35838,-1.18715 19.39513,0.15417 -0.15418,-0.89421 7.21535,-1.46466 21.80024,-1.91176 h 2.28178 c 1.07922,-0.15418 2.01968,-0.30835 3.23766,-0.30835 0.52419,0 1.18714,0 1.71134,-0.15417 2.68263,-0.30835 5.36526,-0.75546 8.17123,-1.34132 2.40512,-0.58586 4.6869,-1.48007 6.67575,-2.94473 1.75759,-1.3259 3.0989,-3.0989 4.03937,-5.59653 h -2.94473 -8.44875 c -2.79056,-0.15417 -5.61195,0 -8.29458,0.29294 -2.66722,0 -5.33443,0.29293 -7.89372,0.4471 -2.54388,0 -5.07234,0.29293 -7.75497,0.58586 -2.54388,0.30835 -5.07233,0.60128 -7.63163,1.03297 h -0.15417 c -2.68263,0.30835 -5.36527,0.74004 -7.89372,1.04839 -2.80598,0.43168 -5.48861,0.86337 -8.31,1.17172 -2.54387,0.29293 -4.94899,0.86338 -7.61621,1.31048"
       id="path58"
       style="stroke:#800000;stroke-width:1" />
    <path
       d="m 53.538178,80.21711 c -0.41627,0 -0.53961,0 -0.817123,-0.15418 -0.925046,-0.30835 -1.464656,-1.03297 -1.464656,-1.91176 -11.640158,-1.03297 -20.859787,2.51304 -27.828464,10.59177 11.378068,-1.01755 20.613107,0.89422 27.427611,5.31902 -3.068068,0.58586 -20.967709,1.6805 -24.837483,2.11218 0.53961,0.89422 15.463686,1.55716 15.7412,2.74431 4.810238,0.46252 9.358379,0.46252 13.521085,-0.15418 0.801706,-4.70231 0.154174,-8.37166 -1.880927,-10.74594 -0.277513,-0.44711 -0.400853,-0.58587 -0.678366,-0.8788 -0.524193,-0.89421 -0.817124,-1.773 -0.817124,-2.6518 -0.154174,-1.32589 0.431688,-2.79055 1.634247,-4.27062"
       id="path60"
       style="fill:#1a1a1a;stroke:#800000;stroke-width:1" />
  </g>
  <use
     x="0"
     y="0"
     xlink:href="#crow"
     id="use1702"
     transform="translate(285,330)"
     width="100%"
     height="100%" />
  <use
     x="0"
     y="0"
     xlink:href="#crow"
     id="use1704"
     transform="translate(260,80)"
     width="100%"
     height="100%" />
  <use
     x="0"
     y="0"
     xlink:href="#crow"
     id="use1706"
     transform="translate(25,250)"
     width="100%"
     height="100%" />
  <use
     id="shine"
     xlink:href="#shield"
     fill="url(#rg)"
     stroke="#000"
     stroke-width="3" />
</svg>
