<?xml version="1.0" encoding="UTF-8"?>
<svg xmlns="http://www.w3.org/2000/svg" xmlns:xlink="http://www.w3.org/1999/xlink" width="600" height="660">
<defs>
  <radialGradient id="rg" gradientUnits="userSpaceOnUse" cx="220" cy="220" r="405">
    <stop style="stop-color:#fff;stop-opacity:.3" offset="0"/>
    <stop style="stop-color:#fff;stop-opacity:.2" offset=".2"/>
    <stop style="stop-color:#666;stop-opacity:.1" offset=".6"/>
    <stop style="stop-color:#000;stop-opacity:.13" offset="1"/>
  </radialGradient>
  <path id="shield" d="m2,2v257c0,286 298,398 298,398c0,0 298-112 298-398V2z"/>
</defs>
<use id="background" xlink:href="#shield" style="fill:#ff0000;"/>
<g id="tree" style="fill:#ffffff;stroke:#7c0000;stroke-width:1;stroke-opacity:1;stroke-linejoin:round;stroke-linecap:round;">
  <path style="stroke:none;" d="m 241.44234,314.45307 c -7.46838,6.06612 -12.12184,12.13222 -22.58172,18.19832 -7.88386,-3.27195 -17.79322,-1.97356 -23.22571,-10.77149 l -1.91124,1.93201 c 5.77527,5.29745 13.30597,9.9509 21.84422,10.9273 -0.67516,7.97736 3.86403,12.58926 6.14921,19.71486 -9.83666,3.72898 -22.94526,-4.6223 -33.41552,-9.94052 l -1.26725,1.7866 c 11.27009,4.33143 18.58265,14.27196 34.68277,12.58924 2.89802,10.82343 10.54298,19.17472 15.92353,28.69974 l -4.76772,2.5137 0.30124,3.83287 6.68933,-0.8102 c 9.96131,1.61001 15.68462,5.04817 22.58172,7.99813 l 6.99056,17.66858 c 6.68933,10.30406 8.424,15.07177 13.58642,18.82156 1.8697,11.22851 5.84798,15.98584 4.86119,26.20682 -6.28424,-1.92163 -10.86498,-6.03496 -14.94713,-10.79227 l 3.18885,-3.59397 -5.0897,-1.92163 c -5.35978,-7.44759 -10.91692,-14.69784 -13.04629,-25.39662 l 1.90085,-2.21247 -0.94524,-4.40416 -5.7441,2.47214 c -12.10105,-6.01417 -26.28993,-3.8848 -39.46085,-5.80643 -0.61285,-5.95184 -9.28614,-10.34562 -14.31354,-15.45611 -10.38715,-6.36733 -19.11238,-11.07272 -22.34279,-23.02836 l -2.79415,1.77622 c 4.00944,11.15581 11.2597,17.7309 22.28048,25.6667 -7.37489,2.40982 -15.17566,0.36355 -22.06236,7.90463 l 1.06989,2.58641 c 10.05478,-8.53826 18.99814,-5.76489 27.98303,-4.14449 3.79133,3.2408 7.23986,6.50237 6.68934,10.21059 l 2.89802,1.11144 c 6.77244,0.83096 17.85554,-2.07744 19.72523,3.03304 l 2.21248,0.29085 c 14.37583,-2.93957 14.67707,5.76489 18.11522,11.86214 0.36355,7.07367 5.20398,12.19455 8.61096,17.93865 -2.9084,2.69027 -5.58829,5.52597 -20.68085,0.29084 l -13.37868,-0.8102 -3.18886,-6.65818 c -7.0425,0.90369 -13.763,-2.28518 -20.02646,-10.21059 l -2.55525,1.94241 6.38812,7.15676 c -11.76867,0.24928 -23.53733,4.65344 -35.306,-2.47216 v 2.21247 c 10.23137,4.64307 21.09635,5.16243 32.10675,4.40415 -0.55053,7.03212 -14.66669,8.1851 -22.28049,12.16338 l 4.14448,1.66196 c 8.18509,-3.80171 19.89143,-5.00662 23.21533,-12.42306 11.42589,0.65438 13.59681,4.26913 10.17943,9.64968 l 7.02172,1.11142 c 1.31917,-1.41266 3.6563,-2.48252 14.96792,-0.5505 -1.98395,5.07933 -7.3749,6.19075 -11.46744,8.83948 h 5.07933 c 6.88669,-0.8206 8.6629,-3.55243 10.17943,-6.36735 8.27856,3.11617 14.88481,1.21531 21.65724,-0.25967 3.62512,3.86403 7.21909,7.75922 13.02552,10.21059 0.11426,4.08215 0.92446,7.99812 3.19926,11.60247 -2.07745,6.86592 -0.39474,12.49576 1.91122,17.93864 -2.94995,4.23797 -5.71293,8.47592 -5.41172,12.70351 5.25592,11.60246 2.119,23.20494 -1.26723,34.79703 -7.14636,9.49387 -21.49105,9.24457 -33.11429,12.68272 -8.21625,2.10861 -16.88955,4.16526 -28.92828,5.80643 -4.09254,2.83571 -6.30501,4.76773 -1.62039,3.3239 7.64496,-1.57885 15.27952,-2.99151 22.92448,-3.61474 10.7715,-2.60719 20.44195,-3.63551 29.5619,-3.85363 l 10.82342,-6.06612 c -7.97735,5.56753 -17.0038,10.84421 -23.51655,16.82722 -2.23325,3.32389 -0.75826,7.37491 -5.12088,11.05196 -13.40983,5.06893 -17.04535,10.12748 -25.42779,15.18604 l -0.644,3.04343 c 10.86498,-7.57224 22.39473,-12.82815 34.35037,-16.56754 2.25401,-2.27477 5.9103,-3.35504 5.1001,-8.27857 3.09537,-6.81397 18.41645,-8.5798 23.2361,-17.96981 3.729,2.07744 1.59962,3.6459 0,5.24554 0,2.63833 -6.91785,5.9726 -10.30407,8.61096 -2.18131,1.69311 -3.58358,2.67988 -1.80737,4.37299 -0.44664,5.49482 1.288,10.35601 4.13409,14.90559 -0.18697,7.96697 -8.66289,12.35035 -13.0359,18.50994 l 0.9764,1.37111 c 5.71294,-6.1596 15.23797,-11.16621 18.99812,-17.492 0.71673,-1.21529 0.42588,-3.33427 0.72711,-4.57036 -2.55524,-3.59396 -6.49199,-6.58546 -3.82248,-12.43345 6.46082,-3.89517 12.92163,-12.22568 19.38247,-11.60246 -2.39946,6.2323 -1.06988,11.91409 -0.30124,17.66859 4.8612,2.40982 6.69973,6.40888 8.90181,10.21059 l 23.56849,12.41266 c 2.26441,1.22569 3.01228,0.84137 2.51371,-0.8102 l -22.24933,-14.35507 c -1.82814,-5.69217 -2.73181,-11.40511 -6.04534,-17.10766 1.94241,-4.60153 8.424,-7.87349 5.71295,-13.82534 1.56847,8.43439 6.08688,13.80456 15.3107,16.61949 3.28234,0.99716 6.24268,3.60433 7.27102,6.85553 10.36639,3.8017 24.48256,5.05854 39.78285,5.51559 3.45892,-0.10387 4.54959,-0.68556 1.92163,-2.1917 -11.88293,-2.57603 -25.0954,-0.52975 -35.64877,-7.75921 -5.07933,-6.6478 -6.08688,-9.67046 -17.82438,-19.60061 15.2276,7.52032 29.49956,4.16526 44.22856,6.0765 v -1.38148 c -10.81304,-2.29558 -18.25025,-1.17375 -32.45989,-6.89709 -6.03497,-2.21247 -13.01515,-3.59395 -14.32391,-9.91974 l -6.6374,-23.77625 c 3.40698,-9.64967 4.91312,-19.30974 0.62322,-28.9802 0.86212,-3.43814 1.71388,-6.89708 0.94523,-14.08501 -1.46459,-3.90557 2.37866,-7.31256 5.72333,-10.75072 4.54958,1.55809 7.96696,0.12465 11.45706,-1.11142 0.16619,-4.0406 -1.01795,-7.94619 3.83287,-12.42306 l 15.58074,-4.96507 c 14.51089,-2.18129 25.15774,-1.52691 28.63744,4.40416 h 5.06892 c 11.32202,-8.44477 24.08785,-12.18415 38.52603,-10.47026 l 0.62323,-1.95279 c -7.54109,-0.75825 -14.20965,-2.13975 -23.54772,-1.66194 8.83949,-4.06139 9.53543,-10.56377 12.83854,-16.55716 l -2.76298,-0.48819 c -1.40227,10.29368 -13.58642,13.94997 -20.5666,20.93015 -14.52127,-3.46933 -29.05292,-7.02173 -43.58456,0.25969 l -2.25401,-4.96508 -3.79133,-1.36072 1.27762,4.95468 c -9.87819,1.96318 -18.16716,7.56186 -26.41458,13.2748 7.14637,-9.01607 16.02741,-17.52316 16.53639,-28.46084 22.9037,-2.54486 41.49674,-9.90937 49.62989,-28.9906 l 19.72525,-1.11142 2.86685,-2.48254 c 0,0 -2.30596,0.47781 -1.24646,-0.54013 2.91879,-2.86686 18.64498,-11.71673 16.9207,-11.96602 l 1.03872,-1.75543 c -15.64307,7.64495 -17.17,15.32107 -40.8839,12.61002 -0.18698,-8.02929 -1.04912,-16.14167 6.68933,-23.18416 3.19924,-0.10387 5.49482,-1.48537 6.35695,-4.96508 0.69594,-2.91878 -0.82059,-1.62038 -1.98395,-0.98677 -2.43059,3.41738 -6.18037,3.90557 -9.77432,4.27951 -4.6223,7.68649 -7.6138,15.46651 -6.3881,23.47501 l -5.72336,-1.92163 0.64402,4.95468 c 5.11048,19.07085 -17.46084,21.08594 -38.50525,24.03592 l -10.1898,4.95468 c 0,6.92823 -4.28991,11.70634 -8.91221,16.29746 l -4.43531,1.93203 v 4.42492 l -7.32297,13.53448 c -0.35316,-12.49576 -1.73465,-19.89143 -5.60906,-32.04442 9.87819,-5.7441 7.92541,-19.8395 11.96601,-27.32865 11.00001,-1.67233 22.34282,-8.1747 33.73754,-15.18604 l 1.57885,2.20209 3.49008,-1.36072 -0.63361,-3.32389 11.56092,-18.48917 1.17375,0.8102 c -0.90368,-5.85837 -2.79414,-11.31164 0,-18.78 1.5373,-4.41455 3.84326,-8.81872 7.32296,-13.23326 l -1.42304,-0.51936 c -5.42211,5.12087 -6.26347,9.25496 -8.87066,13.75262 l -1.83852,16.30784 c -6.84515,14.04346 -16.64025,21.21062 -28.89711,26.50807 1.27763,-6.8036 0.49858,-13.30597 -0.51936,-19.76677 l -2.66951,-0.12466 c 1.19454,5.53636 1.88008,11.19736 0,17.41928 0.62324,6.57508 -8.75637,5.64024 -13.37867,8.26819 0.96601,-9.90936 2.09821,-19.5071 -3.9783,-27.86878 8.32015,-9.69123 9.14072,-20.55621 15.13412,-31.20305 l -0.966,-3.8848 c -1.42304,2.97071 -1.63078,9.34844 -4.43531,8.40321 -1.81777,-4.73656 -1.13221,-9.46271 -6.05573,-14.19925 -3.79133,-2.93957 -7.26063,-6.52315 -10.27292,-11.15583 l -2.17092,0.94524 c 2.06706,5.05854 4.94428,9.53542 8.94336,13.24363 6.38811,5.72334 4.32105,11.46745 6.38811,17.20115 -3.0746,3.05383 -3.41737,7.78 -6.07648,11.51938 0.87251,3.2512 -3.60436,7.16715 -5.41173,10.76111 v 0.55052 c 7.71767,9.57696 1.82815,18.89426 3.09539,28.47124 -3.31352,-0.30123 -3.59398,2.09819 -5.01702,4.10292 1.74504,10.06518 -1.40226,13.29558 -11.49859,18.72807 -2.94995,-3.41738 -11.28046,-4.57034 -12.67235,-13.18131 -0.28046,-1.2984 -0.68555,-2.86687 -1.83853,-3.50048 -4.97546,-2.72144 -0.70633,-8.1851 -1.33996,-11.70634 7.67613,-3.6459 9.89899,-13.56564 13.00474,-21.62608 -1.80736,-10.06518 -3.85362,-20.31732 -2.58639,-31.37964 h -2.15015 c -0.58169,9.2965 -0.85174,18.58262 1.27763,27.87915 -2.60718,11.44665 -7.82155,20.63931 -18.15678,25.40703 -5.51559,-2.30596 -12.12184,-2.67991 -16.526,-6.8867 -4.58073,-4.90275 -9.72238,-9.64968 -11.12465,-15.45611 4.94429,-3.085 10.40794,-6.09727 18.458,-8.83948 3.18886,-4.52882 7.4372,-9.58736 13.36829,-15.47688 l -0.97639,-2.20209 -11.12466,11.5817 c -7.5307,3.05382 -15.06141,11.00001 -22.58172,8.83948 -7.47875,-6.25308 -6.5439,-12.50617 -9.57696,-18.75923 5.93106,3.06421 10.37679,-0.966 15.28991,-2.77338 l 0.30124,-2.20207 c -5.28708,0.8102 -9.59776,6.2323 -15.89238,2.20207 -1.01794,-3.94712 -4.36261,-7.89426 -1.93202,-11.85177 8.72523,-5.38054 13.64875,-11.60245 20.37964,-17.41929 z" />
  <path style="fill:none;" d="m 287.15627,428.80542 c 4.35223,3.38624 7.5203,6.78283 6.45044,10.16905 m 29.01136,24.91883 c 2.01511,-1.66196 3.06422,-3.82249 8.78755,-3.5628 m -38.3806,15.26913 0.87251,12.45422 c -1.09064,5.37017 0.12466,9.95091 2.9396,13.98114 -1.9528,2.54485 -3.90559,6.88669 -5.86877,11.44666 3.71862,11.87253 4.7781,23.37114 3.80171,34.5685 -0.17658,2.1086 -1.66196,3.92636 -4.97544,5.3494 m 19.92258,-73.48925 c 0.63362,4.88198 2.55524,9.49389 0.30123,15.00948 2.87724,10.30407 -0.58169,19.52787 -1.17376,29.22949 -1.72426,10.58453 3.70822,19.102 6.14921,28.48162 v 0 h 0.59207"/>
</g>
<use xlink:href="#tree" transform="translate(150,-295)"/>
<use xlink:href="#tree" transform="translate(-150,-295)"/>
<use id="shine" xlink:href="#shield" style="fill:url(#rg);stroke:#000000;stroke-width:3;"/>
</svg>
