<?xml version="1.0" encoding="UTF-8" standalone="no"?>
<svg
   xmlns:dc="http://purl.org/dc/elements/1.1/"
   xmlns:cc="http://creativecommons.org/ns#"
   xmlns:rdf="http://www.w3.org/1999/02/22-rdf-syntax-ns#"
   xmlns:svg="http://www.w3.org/2000/svg"
   xmlns="http://www.w3.org/2000/svg"
   xmlns:xlink="http://www.w3.org/1999/xlink"
   xmlns:sodipodi="http://sodipodi.sourceforge.net/DTD/sodipodi-0.dtd"
   xmlns:inkscape="http://www.inkscape.org/namespaces/inkscape"
   width="600"
   height="660"
   id="svg2"
   version="1.1"
   inkscape:version="0.48.2 r9819"
   sodipodi:docname="Shadrich.svg">
  <metadata
     id="metadata24">
    <rdf:RDF>
      <cc:Work
         rdf:about="">
        <dc:format>image/svg+xml</dc:format>
        <dc:type
           rdf:resource="http://purl.org/dc/dcmitype/StillImage" />
        <dc:title />
      </cc:Work>
    </rdf:RDF>
  </metadata>
  <sodipodi:namedview
     pagecolor="#ffffff"
     bordercolor="#666666"
     borderopacity="1"
     objecttolerance="10"
     gridtolerance="10"
     guidetolerance="10"
     inkscape:pageopacity="0"
     inkscape:pageshadow="2"
     inkscape:window-width="1366"
     inkscape:window-height="715"
     id="namedview22"
     showgrid="false"
     inkscape:zoom="0.5056885"
     inkscape:cx="281.14339"
     inkscape:cy="244.79213"
     inkscape:window-x="-8"
     inkscape:window-y="-8"
     inkscape:window-maximized="1"
     inkscape:current-layer="layer2" />
  <defs
     id="defs4">
    <inkscape:path-effect
       is_visible="true"
       id="path-effect3136"
       effect="spiro" />
    <inkscape:path-effect
       effect="spiro"
       id="path-effect3132"
       is_visible="true" />
    <inkscape:path-effect
       effect="spiro"
       id="path-effect3101"
       is_visible="true" />
    <inkscape:path-effect
       is_visible="true"
       id="path-effect3085"
       effect="spiro" />
    <inkscape:path-effect
       is_visible="true"
       id="path-effect3083"
       effect="spiro" />
    <inkscape:path-effect
       is_visible="true"
       id="path-effect3081"
       effect="spiro" />
    <inkscape:path-effect
       is_visible="true"
       id="path-effect3079"
       effect="spiro" />
    <inkscape:path-effect
       is_visible="true"
       id="path-effect3077"
       effect="spiro" />
    <inkscape:path-effect
       is_visible="true"
       id="path-effect3075"
       effect="spiro" />
    <inkscape:path-effect
       effect="spiro"
       id="path-effect3049"
       is_visible="true" />
    <inkscape:path-effect
       is_visible="true"
       id="path-effect3045"
       effect="spiro" />
    <inkscape:path-effect
       effect="spiro"
       id="path-effect3041"
       is_visible="true" />
    <radialGradient
       id="rg"
       gradientUnits="userSpaceOnUse"
       cx="220"
       cy="220"
       r="405">
      <stop
         style="stop-color:#fff;stop-opacity:.3"
         offset="0"
         id="stop7" />
      <stop
         style="stop-color:#fff;stop-opacity:.2"
         offset=".2"
         id="stop9" />
      <stop
         style="stop-color:#666;stop-opacity:.1"
         offset=".6"
         id="stop11" />
      <stop
         style="stop-color:#000;stop-opacity:.13"
         offset="1"
         id="stop13" />
    </radialGradient>
    <path
       id="shield"
       d="m2,2v257c0,286 298,398 298,398c0,0 298-112 298-398V2z" />
    <radialGradient
       inkscape:collect="always"
       xlink:href="#rg-7"
       id="radialGradient3055-1"
       gradientUnits="userSpaceOnUse"
       cx="220"
       cy="220"
       r="405" />
    <radialGradient
       id="rg-7"
       gradientUnits="userSpaceOnUse"
       cx="220"
       cy="220"
       r="405">
      <stop
         style="stop-color:#fff;stop-opacity:.3"
         offset="0"
         id="stop7-4" />
      <stop
         style="stop-color:#fff;stop-opacity:.2"
         offset=".2"
         id="stop9-0" />
      <stop
         style="stop-color:#666;stop-opacity:.1"
         offset=".6"
         id="stop11-9" />
      <stop
         style="stop-color:#000;stop-opacity:.13"
         offset="1"
         id="stop13-4" />
    </radialGradient>
    <radialGradient
       r="405"
       cy="220"
       cx="220"
       gradientUnits="userSpaceOnUse"
       id="radialGradient3074"
       xlink:href="#rg-7"
       inkscape:collect="always" />
    <inkscape:path-effect
       is_visible="true"
       id="path-effect10120-1"
       effect="spiro" />
    <inkscape:path-effect
       effect="spiro"
       id="path-effect10118-3"
       is_visible="true" />
    <inkscape:path-effect
       effect="spiro"
       id="path-effect10116-9"
       is_visible="true" />
    <inkscape:path-effect
       effect="spiro"
       id="path-effect10114-7"
       is_visible="true" />
    <inkscape:path-effect
       effect="spiro"
       id="path-effect10112-7"
       is_visible="true" />
    <inkscape:path-effect
       effect="spiro"
       id="path-effect10110-2"
       is_visible="true" />
    <linearGradient
       inkscape:collect="always"
       xlink:href="#linearGradient4719-5"
       id="linearGradient4039"
       gradientUnits="userSpaceOnUse"
       gradientTransform="matrix(2.3257341,0,0,2.2943177,447.69485,-1820.2799)"
       x1="-145.25935"
       y1="984.24286"
       x2="-64.14286"
       y2="984.14789" />
    <linearGradient
       inkscape:collect="always"
       id="linearGradient4719-5">
      <stop
         style="stop-color:#666666;stop-opacity:1;"
         offset="0"
         id="stop4721-5" />
      <stop
         id="stop4809-1"
         offset="0.39344174"
         style="stop-color:#666666;stop-opacity:0.74901961;" />
      <stop
         style="stop-color:#666666;stop-opacity:0;"
         offset="1"
         id="stop4723-7" />
    </linearGradient>
    <radialGradient
       inkscape:collect="always"
       xlink:href="#linearGradient4801-8"
       id="radialGradient4041"
       gradientUnits="userSpaceOnUse"
       gradientTransform="matrix(-0.72153181,1.2650715,-2.2729984,-1.2616144,1712.0113,1733.7841)"
       cx="-307.14288"
       cy="782.36218"
       fx="-307.14288"
       fy="782.36218"
       r="63" />
    <linearGradient
       inkscape:collect="always"
       id="linearGradient4801-8">
      <stop
         style="stop-color:#000000;stop-opacity:1;"
         offset="0"
         id="stop4803-2" />
      <stop
         style="stop-color:#000000;stop-opacity:0;"
         offset="1"
         id="stop4805-4" />
    </linearGradient>
    <inkscape:path-effect
       effect="spiro"
       id="path-effect10108-4"
       is_visible="true" />
    <linearGradient
       inkscape:collect="always"
       xlink:href="#linearGradient4719-5"
       id="linearGradient4044"
       gradientUnits="userSpaceOnUse"
       gradientTransform="matrix(-2.4055369,0,0,-1.6485021,142.06168,1726.5307)"
       x1="-145.25935"
       y1="984.24286"
       x2="-64.14286"
       y2="984.14789" />
    <radialGradient
       inkscape:collect="always"
       xlink:href="#linearGradient4801-8"
       id="radialGradient4046"
       gradientUnits="userSpaceOnUse"
       gradientTransform="matrix(0.74628962,-0.90897301,2.3509914,0.90648896,-1165.637,-827.11785)"
       cx="-307.14288"
       cy="782.36218"
       fx="-307.14288"
       fy="782.36218"
       r="63" />
    <inkscape:path-effect
       effect="spiro"
       id="path-effect10102-7"
       is_visible="true" />
    <linearGradient
       inkscape:collect="always"
       xlink:href="#linearGradient4719-5"
       id="linearGradient4049"
       gradientUnits="userSpaceOnUse"
       gradientTransform="matrix(2.334989,0,0,-1.6146975,449.44065,1692.189)"
       x1="-145.25935"
       y1="984.24286"
       x2="-64.14286"
       y2="984.14789" />
    <radialGradient
       inkscape:collect="always"
       xlink:href="#linearGradient4801-8"
       id="radialGradient4051"
       gradientUnits="userSpaceOnUse"
       gradientTransform="matrix(-0.72440295,-0.89033332,-2.2820431,0.88790031,1718.7881,-809.09364)"
       cx="-307.14288"
       cy="782.36218"
       fx="-307.14288"
       fy="782.36218"
       r="63" />
    <inkscape:path-effect
       is_visible="true"
       id="path-effect10096-8"
       effect="spiro" />
    <linearGradient
       inkscape:collect="always"
       xlink:href="#linearGradient4719-5"
       id="linearGradient4054"
       gradientUnits="userSpaceOnUse"
       gradientTransform="matrix(-2.409599,0,0,2.2818507,139.61083,-1810.8163)"
       x1="-145.25935"
       y1="984.24286"
       x2="-64.14286"
       y2="984.14789" />
    <radialGradient
       inkscape:collect="always"
       xlink:href="#linearGradient4801-8"
       id="radialGradient4056"
       gradientUnits="userSpaceOnUse"
       gradientTransform="matrix(0.74754985,1.2581972,2.3549614,-1.2547588,-1170.296,1723.935)"
       cx="-307.14288"
       cy="782.36218"
       fx="-307.14288"
       fy="782.36218"
       r="63" />
    <inkscape:path-effect
       is_visible="true"
       id="path-effect10090-3"
       effect="spiro" />
    <inkscape:path-effect
       effect="spiro"
       id="path-effect10084-1"
       is_visible="true" />
    <inkscape:path-effect
       effect="spiro"
       id="path-effect10082-1"
       is_visible="true" />
    <radialGradient
       inkscape:collect="always"
       xlink:href="#linearGradient4801-8"
       id="radialGradient4061"
       gradientUnits="userSpaceOnUse"
       gradientTransform="matrix(-0.76516322,1.2901254,-2.4104477,-1.2865998,1806.8444,1757.4704)"
       cx="-307.14288"
       cy="782.36218"
       fx="-307.14288"
       fy="782.36218"
       r="63" />
    <inkscape:path-effect
       effect="spiro"
       id="path-effect10080-4"
       is_visible="true" />
    <inkscape:path-effect
       is_visible="true"
       id="path-effect3075-1"
       effect="spiro" />
    <inkscape:path-effect
       effect="spiro"
       id="path-effect3101-7"
       is_visible="true" />
    <linearGradient
       inkscape:collect="always"
       xlink:href="#grad1-7-7"
       id="linearGradient3085-8-8"
       gradientUnits="userSpaceOnUse"
       gradientTransform="matrix(0.77469594,0,0,0.30982404,152.68996,-13.619206)"
       x1="78.877235"
       y1="178.07356"
       x2="301.40585"
       y2="178.07356" />
    <linearGradient
       id="grad1-7-7"
       x1="78.877235"
       y1="178.07356"
       x2="301.40585"
       y2="178.07356"
       gradientTransform="scale(1.577772,0.63380513)"
       gradientUnits="userSpaceOnUse">
      <stop
         offset="0%"
         style="stop-color:#da0;"
         id="stop16-4-4" />
      <stop
         offset="40%"
         style="stop-color:#fd0;"
         id="stop18-0-0" />
      <stop
         offset="60%"
         style="stop-color:#fd0;"
         id="stop20-9-9" />
      <stop
         offset="100%"
         style="stop-color:#da0;"
         id="stop22-4-4" />
    </linearGradient>
    <linearGradient
       inkscape:collect="always"
       xlink:href="#grad1-7-7"
       id="linearGradient3081-8-8"
       gradientUnits="userSpaceOnUse"
       gradientTransform="matrix(0.77469594,0,0,0.30982404,-27.310046,-13.619206)"
       x1="78.877235"
       y1="178.07356"
       x2="301.40585"
       y2="178.07356" />
    <linearGradient
       id="linearGradient3093"
       x1="78.877235"
       y1="178.07356"
       x2="301.40585"
       y2="178.07356"
       gradientTransform="scale(1.577772,0.63380513)"
       gradientUnits="userSpaceOnUse">
      <stop
         offset="0%"
         style="stop-color:#da0;"
         id="stop3095" />
      <stop
         offset="40%"
         style="stop-color:#fd0;"
         id="stop3097" />
      <stop
         offset="60%"
         style="stop-color:#fd0;"
         id="stop3099" />
      <stop
         offset="100%"
         style="stop-color:#da0;"
         id="stop3101" />
    </linearGradient>
    <linearGradient
       y2="178.07356"
       x2="301.40585"
       y1="178.07356"
       x1="78.877235"
       gradientTransform="matrix(0.77469594,0,0,0.30982404,332.68995,-13.619206)"
       gradientUnits="userSpaceOnUse"
       id="linearGradient3128-1"
       xlink:href="#grad1-7-7"
       inkscape:collect="always" />
    <linearGradient
       id="linearGradient3104"
       x1="78.877235"
       y1="178.07356"
       x2="301.40585"
       y2="178.07356"
       gradientTransform="scale(1.577772,0.63380513)"
       gradientUnits="userSpaceOnUse">
      <stop
         offset="0%"
         style="stop-color:#da0;"
         id="stop3106" />
      <stop
         offset="40%"
         style="stop-color:#fd0;"
         id="stop3108" />
      <stop
         offset="60%"
         style="stop-color:#fd0;"
         id="stop3110" />
      <stop
         offset="100%"
         style="stop-color:#da0;"
         id="stop3112" />
    </linearGradient>
  </defs>
  <g
     inkscape:groupmode="layer"
     id="layer2"
     inkscape:label="Elements"
     style="display:inline">
    <path
       inkscape:connector-curvature="0"
       style="fill:#0000cc;fill-opacity:1;stroke:none;display:inline"
       id="path7212"
       d="m 2,2 0,257 c 0,286 298,398 298,398 0,0 298,-112 298,-398 L 598,2 z" />
    <path
       inkscape:connector-curvature="0"
       style="fill:none;stroke:none;display:inline"
       id="path7200"
       d="m 2,2 0,257 c 0,286 298,398 298,398 0,0 298,-112 298,-398 L 598,2 z" />
    <path
       inkscape:connector-curvature="0"
       style="fill:#884411;fill-opacity:1;fill-rule:nonzero;stroke:none;display:inline"
       d="m 103.8125,66.375 c -26.145328,0 -26.167187,19.99998 -52.3125,20 C 26.321394,86.375 25.384876,67.840372 2,66.46875 l 0,84.375 c 23.384876,1.37162 24.321394,19.90625 49.5,19.90625 26.145313,-2e-5 26.167172,-20 52.3125,-20 26.14529,0 26.13594,20 52.28125,20 26.14531,0 26.13594,-20 52.28125,-20 26.1453,0 26.16718,20 52.3125,20 26.14533,0 26.13594,-20 52.28125,-20 26.14531,0 26.13594,20 52.28125,20 26.14531,0 26.16719,-20 52.3125,-20 26.14531,0 26.13592,20 52.28125,20 26.14533,0 26.13595,-20 52.28125,-20 26.14534,0 26.13594,20 52.28125,20 11.3801,0 17.80345,-3.78565 23.59375,-8.0625 l 0,-84.375 c -5.7903,4.276848 -12.21365,8.0625 -23.59375,8.0625 -26.14531,0 -26.13592,-20 -52.28125,-20 -26.1453,0 -26.13592,20 -52.28125,20 -26.14533,0 -26.13594,-20 -52.28125,-20 -26.14531,0 -26.16719,20 -52.3125,20 -26.14531,0 -26.13594,-20 -52.28125,-20 -26.14531,0 -26.13592,20 -52.28125,20 -26.14532,0 -26.1672,-20 -52.3125,-20 -26.14531,0 -26.13594,20 -52.28125,20 -26.14531,0 -26.13596,-20 -52.28125,-20 z m 0,168.75 c -26.145328,0 -26.167187,19.99998 -52.3125,20 -25.178606,0 -26.115124,-18.53463 -49.5,-19.90625 L 2,259 c 0,21.34657 1.6775696,41.72256 4.75,61.15625 C 25.652566,323.56169 28.144012,339.5 51.5,339.5 c 26.145313,-2e-5 26.167172,-20 52.3125,-20 26.14531,0 26.13594,20 52.28125,20 26.14531,0 26.13594,-20 52.28125,-20 26.1453,0 26.16719,20 52.3125,20 26.14532,0 26.13594,-20 52.28125,-20 26.14531,0 26.13594,20 52.28125,20 26.14531,0 26.16719,-20 52.3125,-20 26.14531,0 26.13593,20 52.28125,20 26.14533,0 26.13594,-20 52.28125,-20 26.14532,0 26.13594,20 52.28125,20 6.75572,0 11.76865,-1.33338 15.9375,-3.3125 C 595.25536,312.00559 598,286.29847 598,259 l 0,-11.9375 c -5.79031,4.27685 -12.21366,8.0625 -23.59375,8.0625 -26.14531,0 -26.13593,-20 -52.28125,-20 -26.14531,0 -26.13592,20 -52.28125,20 -26.14532,0 -26.13594,-20 -52.28125,-20 -26.14531,0 -26.16719,20 -52.3125,20 -26.14531,0 -26.13594,-20 -52.28125,-20 -26.14531,0 -26.13593,20 -52.28125,20 -26.14531,0 -26.1672,-20 -52.3125,-20 -26.14531,0 -26.13594,20 -52.28125,20 -26.14531,0 -26.13594,-20 -52.28125,-20 z m 0,168.75 c -26.145328,0 -26.167187,19.99998 -52.3125,20 -5.393244,0 -9.654693,-0.83655 -13.28125,-2.1875 12.701066,26.67232 28.042501,50.85663 44.84375,72.625 5.128448,-3.39191 11.191122,-6.0625 20.75,-6.0625 26.14531,0 26.13594,20 52.28125,20 26.14531,0 26.13594,-20 52.28125,-20 26.1453,0 26.16719,20 52.3125,20 26.14532,0 26.13594,-20 52.28125,-20 26.14531,0 26.13594,20 52.28125,20 26.14531,0 26.16719,-20 52.3125,-20 26.14531,0 26.13593,20 52.28125,20 25.94093,0 26.14917,-19.6609 51.6875,-19.96875 14.97225,-20.12255 28.63603,-42.24825 40.15625,-66.40625 -14.40418,-5.0646 -18.53516,-18 -39.5625,-18 -26.14531,0 -26.13592,20 -52.28125,20 -26.14532,0 -26.13594,-20 -52.28125,-20 -26.14531,0 -26.16719,20 -52.3125,20 -26.14531,0 -26.13594,-20 -52.28125,-20 -26.14531,0 -26.13593,20 -52.28125,20 -26.14531,0 -26.1672,-20 -52.3125,-20 -26.14531,0 -26.13594,20 -52.28125,20 -26.14531,0 -26.13594,-20 -52.28125,-20 z m 104.5625,168.75 c -16.34082,0 -22.47794,7.82812 -31.15625,13.6875 C 242.02081,635.20424 300,657 300,657 c 0,0 65.51013,-24.62625 135.09375,-80.25 -4.48021,-2.41985 -9.88652,-4.125 -17.53125,-4.125 -26.14531,0 -26.16719,20 -52.3125,20 -26.14531,0 -26.13594,-20 -52.28125,-20 -26.14531,0 -26.13593,20 -52.28125,20 -26.14531,0 -26.1672,-20 -52.3125,-20 z"
       id="path3122" />
    <g
       style="display:inline"
       id="g4084"
       transform="translate(0.1346306,1.9960518)">
      <path
         style="fill:#ffffff;fill-opacity:1;fill-rule:evenodd;stroke:#000000;stroke-width:2.00000024;stroke-linecap:butt;stroke-linejoin:miter;stroke-miterlimit:4;stroke-opacity:1;stroke-dasharray:none"
         d="m 306.10325,360.7369 c 0.44575,2.29611 0.41556,9.12541 0.41556,11.73003 0,3.06649 -1.16299,6.07666 -1.64552,8.56222 -0.53884,2.7756 -2.00876,4.6385 -2.90889,6.95682 -0.7939,2.04472 -2.45938,4.11453 -3.73999,5.35139 -0.96247,0.92957 -5.42379,3.81677 -6.19992,4.81625 -1.64978,2.12453 -3.94821,2.997 -5.40222,3.74597 -2.63508,1.35736 0.35093,3.66276 1.24667,4.81626 0.85591,1.10221 -0.60224,6.31302 -0.83111,7.49194 -0.67041,3.45331 -1.27542,2.6757 2.07777,2.6757 2.41529,0 2.39426,0.8151 3.32445,3.21083 0.88345,2.27536 5.37486,-2.64048 5.40221,-2.67569 1.41637,-1.82396 1.46296,-2.6757 3.32444,-2.6757 2.71437,0 2.28499,2.80984 4.98666,1.07028 0.20439,-0.13161 1.64979,-6.92478 1.66223,-6.95681 0.70437,-1.81413 -0.48813,-4.65826 0.44897,-5.86501 1.56347,-2.01339 3.51918,-2.9265 4.5711,-4.28112 1.33352,-1.71727 2.51531,-2.16178 4.15555,-3.74598 1.83228,-1.76965 4.30678,-3.62183 5.38551,-6.40015 0.45072,-1.16085 6.29489,-8.69867 7.15755,-10.00489"
         id="path4071"
         sodipodi:nodetypes="cssssssssssssssssssc"
         inkscape:connector-curvature="0" />
      <path
         inkscape:transform-center-y="254.55844"
         inkscape:transform-center-x="-383.85797"
         sodipodi:nodetypes="caaccaccc"
         id="path12179"
         d="m 408.04602,326.43122 c 7.91237,3.9424 9.12613,18.82331 9.86096,29.01033 0.56039,7.76876 -0.41028,16.20686 -4.26702,22.97392 -6.50528,11.4142 -14.48681,20.01351 -29.67263,25.94145 -4.57412,8.59731 11.19207,4.17926 18.7265,-2.22301 10.09131,-8.21134 19.37768,-20.86027 21.60899,-34.14303 2.76108,-16.43645 0.0647,-39.41724 -11.46682,-48.6676 l -0.25249,-2.38739 -0.0257,-2.13127"
         style="fill:#ffffff;fill-opacity:1;fill-rule:evenodd;stroke:#000000;stroke-width:2.00000024;stroke-linecap:butt;stroke-linejoin:miter;stroke-miterlimit:4;stroke-opacity:1;stroke-dasharray:none"
         inkscape:connector-curvature="0" />
      <path
         d="m 248.17649,315.91467 c 0,12.01359 -8.18956,21.75252 -18.29189,21.75252 -10.10234,0 -18.2919,-9.73893 -18.2919,-21.75252 0,-12.01358 8.18956,-21.75252 18.2919,-21.75252 10.10233,0 18.29189,9.73894 18.29189,21.75252 z"
         sodipodi:ry="21.752522"
         sodipodi:rx="18.291893"
         sodipodi:cy="315.91467"
         sodipodi:cx="229.8846"
         id="path4053"
         style="fill:#cc0000;fill-opacity:1;fill-rule:evenodd;stroke:#000000;stroke-width:2;stroke-miterlimit:4;stroke-opacity:1;stroke-dasharray:none"
         sodipodi:type="arc" />
      <path
         inkscape:connector-curvature="0"
         sodipodi:nodetypes="csssssssssssssssc"
         id="path12165"
         d="m 393.05104,335.86675 c 1.07078,2.75784 1.96742,8.95071 -0.0167,9.58948 -1.89892,0.61134 -2.70613,1.74244 -4.15555,2.6757 -0.46264,0.29788 -1.87103,5.35668 -2.07778,6.42166 -0.76034,3.91657 6.63918,-4.53933 1.24667,4.81626 -1.86051,3.22783 -0.58164,4.81625 2.49332,4.81625 0.42679,0 3.06311,-4.1625 3.74,-4.81625 0.17471,-0.16873 2.44082,6.86664 2.49334,6.9568 1.6578,2.8465 4.0098,-5.13575 4.15555,-5.88653 0.63966,-3.29493 2.09764,1.65659 2.49333,2.6757 1.32908,3.42311 2.05278,-0.40639 2.49333,-2.6757 0.46276,-2.3837 1.50334,-4.28111 3.73999,-4.28111 1.95663,0 1.06832,5.81074 2.90889,1.07027 1.30214,-3.35371 -1.73699,-4.91254 -3.32444,-6.9568 -1.37,-1.76423 -1.68402,-4.33726 -2.49333,-6.42167 -0.8966,-2.30922 0.97295,-5.01177 1.24666,-6.42167 0.27372,-1.40991 0.83111,-9.34135 0.83111,-11.73004"
         style="fill:#ffffff;fill-opacity:1;fill-rule:evenodd;stroke:#000000;stroke-width:2.00000024;stroke-linecap:butt;stroke-linejoin:miter;stroke-miterlimit:4;stroke-opacity:1;stroke-dasharray:none" />
      <path
         inkscape:connector-curvature="0"
         sodipodi:nodetypes="cssssssssssssssssssc"
         id="path12167"
         d="m 234.8284,349.79041 c 0.44575,2.29611 0.41556,9.12541 0.41556,11.73003 0,3.06649 -1.16299,6.07666 -1.64552,8.56222 -0.53884,2.7756 -2.00876,4.6385 -2.90889,6.95682 -0.7939,2.04472 -2.45938,4.11453 -3.73999,5.35139 -0.96247,0.92957 -5.42379,3.81677 -6.19992,4.81625 -1.64978,2.12453 -3.94821,2.997 -5.40222,3.74597 -2.63508,1.35736 0.35093,3.66276 1.24667,4.81626 0.85591,1.10221 -0.60224,6.31302 -0.83111,7.49194 -0.67041,3.45331 -1.27542,2.6757 2.07777,2.6757 2.41529,0 2.39426,0.8151 3.32445,3.21083 0.88345,2.27536 5.37486,-2.64048 5.40221,-2.67569 1.41637,-1.82396 1.46296,-2.6757 3.32444,-2.6757 2.71437,0 2.28499,2.80984 4.98666,1.07028 0.20439,-0.13161 1.64979,-6.92478 1.66223,-6.95681 0.70437,-1.81413 -0.48813,-4.65826 0.44897,-5.86501 1.56347,-2.01339 3.51918,-2.9265 4.5711,-4.28112 1.33352,-1.71727 2.51531,-2.16178 4.15555,-3.74598 1.83228,-1.76965 4.30678,-3.62183 5.38551,-6.40015 0.45072,-1.16085 6.29489,-8.69867 7.15755,-10.00489"
         style="fill:#ffffff;fill-opacity:1;fill-rule:evenodd;stroke:#000000;stroke-width:2.00000024;stroke-linecap:butt;stroke-linejoin:miter;stroke-miterlimit:4;stroke-opacity:1;stroke-dasharray:none" />
      <path
         inkscape:connector-curvature="0"
         sodipodi:nodetypes="csssssssssc"
         id="path12169"
         d="m 234.35359,273.00929 c -1.40422,-0.93024 -6.01847,-4.1442 -7.20356,-5.28879 -2.49957,-2.41415 -5.08449,-6.1385 -6.23333,-9.09737 -1.14884,-2.95887 -4.02815,-6.20292 -5.40222,-8.56223 -1.76871,-3.03692 -3.01102,-5.7176 -5.40221,-8.02708 -1.31953,-1.27442 -0.83111,5.40059 -0.83111,6.95681 0,2.95477 0.10397,5.88611 -0.41556,8.56222 -0.51972,2.67714 -3.23512,4.05105 -4.15555,6.42168 -1.02387,2.63702 -1.25437,5.32819 -2.09449,7.49195 -0.96972,2.49755 -1.24666,3.0433 -1.24666,5.90804 0,1.43814 3.43572,9.24303 4.53769,10.37067"
         style="fill:#ffffff;fill-opacity:1;fill-rule:evenodd;stroke:#000000;stroke-width:2.00000024;stroke-linecap:butt;stroke-linejoin:miter;stroke-miterlimit:4;stroke-opacity:1;stroke-dasharray:none" />
      <path
         sodipodi:nodetypes="saaaaaaacccccccacassscsssscs"
         inkscape:connector-curvature="0"
         id="path12173"
         d="m 327.39023,234.32217 c 4.59251,0.12156 9.10038,1.10584 13.62691,1.82105 15.72184,2.48412 33.92783,-0.54244 46.97431,8.5755 11.65828,8.14776 17.33486,23.22382 21.62309,36.78526 3.85926,12.20485 7.92707,26.41527 3.11105,38.27521 -4.05112,9.9763 -15.84522,14.61819 -24.32277,21.25665 -10.09603,7.90584 -20.5003,15.49715 -31.52189,22.05129 -10.2891,6.11855 -20.96607,11.72768 -32.13895,16.02526 -10.08939,3.88081 -21.01572,4.40335 -31.23907,8.70794 -10.83014,1.81201 -19.92639,1.69581 -29.72211,0.86086 -14.72694,-1.65159 -27.91836,-8.28893 -39.64662,-16.98545 -9.06009,-6.05664 -14.803,-17.82259 -26.43108,-19.30316 -9.94322,-2.77139 -13.62561,-3.98704 -20.13184,-13.97243 -5.74685,-13.66487 -3.38975,-23.53155 5.27079,-30.49435 7.37653,-7.67877 11.53241,-14.34283 17.5093,-22.44861 9.40618,-7.23416 20.63793,-11.95138 32.13896,-14.07177 11.97365,-2.20752 24.56206,5.88527 36.48415,1.75483 15.4666,-2.6251 22.32166,-24.42154 36.53556,-32.3154 6.65339,-3.69504 14.22601,-6.72528 21.88021,-6.52268 z m -104.85014,70.19329 c -2.03163,-0.1453 -3.87425,1.11444 -4.93655,3.37723 -1.14682,2.44287 -0.99121,3.14236 -1.28555,5.86047 0.93142,2.31282 0.75346,3.49242 2.10831,4.80096 1.35485,1.30854 2.79061,3.74143 4.98797,3.74143 1.95969,0 5.81072,0.22317 5.81072,-3.21167 0,-2.83988 0.45973,-5.81059 -0.82276,-8.01263 -1.05751,-1.81578 -2.36584,-5.69588 -4.98796,-6.39024 -0.29619,-0.0784 -0.58395,-0.14479 -0.87418,-0.16555 z"
         style="fill:#ffffff;fill-opacity:1;fill-rule:evenodd;stroke:#000000;stroke-width:2.00000024;stroke-linecap:round;stroke-linejoin:round;stroke-miterlimit:4;stroke-opacity:1;stroke-dasharray:none" />
      <path
         inkscape:connector-curvature="0"
         sodipodi:nodetypes="csssssss"
         id="path12175"
         d="m 254.99223,288.59093 c -0.64301,-0.62104 5.33824,-2.51925 10.38887,-6.42168 3.44269,-2.66002 5.2589,-5.17146 9.14222,-6.42166 3.68497,-1.18636 7.73793,-1.07029 11.63555,-1.07029 3.75417,0 6.89703,0.15979 9.97332,2.14057 3.4685,2.23331 3.32445,3.83837 3.32445,9.09735 0,4.09134 -5.09035,9.76604 -7.06445,12.30821 -3.59783,4.63318 -7.26992,10.02648 -9.14221,16.05418 -0.61809,0.0594 -1.44953,0.44908 -1.98759,-0.24381 -0.70986,-0.91413 -1.62488,-2.84928 -2.64458,-4.1624 -0.89526,-1.1529 -1.4692,-2.39986 -1.4692,-4.54082 0,-1.9743 0.0526,-3.89162 -0.29385,-5.676 -0.48047,-2.47499 -2.23877,-1.22524 -2.93841,-3.0272 -0.6206,-1.59836 -1.76849,-3.31276 -3.23227,-3.78401 -1.35577,-0.43648 -2.70609,-1.06041 -4.11379,-1.5136 -1.25854,-0.40518 -2.2386,-0.6261 -3.81994,-1.1352 -1.23276,-0.39688 -5.12883,0.11758 -6.46452,-0.75681 -0.4312,-0.28228 -0.8624,-0.56455 -1.2936,-0.84683 z"
         style="fill:#ffffff;fill-opacity:1;fill-rule:evenodd;stroke:#000000;stroke-width:2.00000024;stroke-linecap:butt;stroke-linejoin:miter;stroke-miterlimit:4;stroke-opacity:1;stroke-dasharray:none" />
      <path
         inkscape:connector-curvature="0"
         sodipodi:nodetypes="csssssssc"
         id="path12177"
         d="m 178.97494,322.86309 c 0.46945,2.25471 2.26483,2.47531 4.40763,3.0272 1.53157,0.39447 2.91764,0.93263 3.81994,1.51361 0.20889,0.1345 -2.77972,1.892 -3.5261,1.892 -2.21691,0 -1.94404,0.55387 -2.35074,2.6488 -0.46527,2.39664 0.50689,3.67995 -1.17536,1.5136 -0.98048,-1.26263 -0.88153,-2.30932 -0.88153,-4.5408 0,-2.70361 -0.55442,-2.60597 -1.76305,-4.1624 -1.44342,-1.8588 0.20152,-2.70826 1.46921,-1.89201 z"
         style="fill:#000000;fill-opacity:1;fill-rule:evenodd;stroke:#000000;stroke-width:2.00000024;stroke-linecap:butt;stroke-linejoin:miter;stroke-miterlimit:4;stroke-opacity:1;stroke-dasharray:none" />
    </g>
  </g>
  <g
     inkscape:groupmode="layer"
     id="layer1"
     inkscape:label="Cover"
     style="display:inline"
     sodipodi:insensitive="true">
    <path
       d="m 2,2 v 257 c 0,286 298,398 298,398 0,0 298,-112 298,-398 V 2 z"
       id="shine"
       inkscape:connector-curvature="0"
       style="fill:url(#radialGradient3074);stroke:#000000;stroke-width:3" />
  </g>
</svg>
