<svg xmlns="http://www.w3.org/2000/svg" width="600" height="660" xmlns:xlink="http://www.w3.org/1999/xlink">
<defs>
  <radialGradient id="rg" gradientUnits="userSpaceOnUse" cx="220" cy="220" r="405">
    <stop style="stop-color:#ffffff;stop-opacity:.3" offset="0" />
    <stop style="stop-color:#ffffff;stop-opacity:.2" offset="0.2" />
    <stop style="stop-color:#666666;stop-opacity:.1" offset="0.6" />
    <stop style="stop-color:#000000;stop-opacity:.13" offset="1" />
  </radialGradient>
  <path id="shield" d="m 2 2 v 257 c 0 286 298 398 298 398 c 0 0 298 -112 298 -398 V 2 Z" />
</defs>
<use id="bg" style="fill:#00aa00;" xlink:href="#shield" />
<g style="fill:#eeeeee;stroke:#00aa00;stroke-width:1.5;stroke-linecap:round;stroke-linejoin:round;">
  <path d="m 94.12,224.8 c 0.7,-18.5 -0.1,-37.6 2.6,-55.4 0.5,-3.5 1.2,-6.9 3.78,-9.6 1.6,-1.8 4.4,-8 -1.98,-9.7 -4.4,-1.2 -9.4,2.6 -8.2,6.1 1.3,4.3 -3.1,43.3 -7.48,64.9"/>
  <path d="m 68.09,215.1 c -4.35,-3.9 -8.47,-8.3 -13.46,-10.8 -2.97,-2.6 -7.86,1.2 -4.8,4.5 6.02,5.1 9.68,10.2 14.14,15.1"/>
  <path d="m 80.21,211.3 c -8.46,0.9 -18.07,-1.6 -23.54,9.8 0.28,5.1 -4.1,10 -9.18,14.8 2.69,6.7 3.05,14.1 9.08,19.8 0.65,8 10.26,14.8 21.12,22.3 14.43,12.9 14.53,30.4 34.11,39.4 16.1,14.3 27.6,32.6 48.1,54.9 33.1,25 69.7,11.9 103.2,14.5 16,-8.2 32.1,0.3 48.1,1.2 5.3,5.8 12.9,7.4 24.7,2.4 13.3,-5.7 24.9,-2.3 37.3,-1.3 13.4,7.5 20.6,5.2 26.4,-1.2 7.1,-3.9 12.9,-3 19.2,0.6 6.2,4.1 9.7,8.5 17,-1.1 1.2,-4.4 7.4,-2.5 15.2,-1.6 l 81.6,-1 c 5.3,-0.2 6.1,-9.3 -1.4,-9.4 -32.1,-1.9 -59.1,-11.2 -78.2,-14.2 l -91.6,-8.2 -114.1,-52.6 c -13.1,4.3 -25.6,7.9 -38.7,10.5 -32.1,-14.5 -60.4,-33.3 -90.4,-69.6 -11,-12 -21.68,-24.4 -37.99,-30 z"/>
  <path style="fill:#bbbbbb;" d="m 255.1,289.2 c -17.3,4.6 -17.3,17.5 -14.2,31.7 5,15.6 11.8,11.4 17.8,14.3 18.4,-1.2 34.1,8.9 49.3,16.8 6,3.2 13.7,2.9 19.8,5.9 -2.9,-9.2 -3.4,-16.7 11.8,-13 14.7,5 0.3,9.9 -0.4,15 39,5.1 64.6,2.2 98.7,0 42.8,-2.8 80.5,-70.5 43.9,-130.9 -26.9,-44.5 -102.9,-71.2 -156.9,-28.8 -29.1,23 -41.1,65.5 -69.8,89 z"/>
  <path style="fill:#bbbbbb;" d="m 423.7,361.1 c -20.7,0.2 -57.5,-11.8 -61.4,-41.5 -4.8,-37.2 26,-59.2 46.3,-60.5 46.6,-2.9 59.2,30.1 54.6,54.9 -5.5,28.9 -44.5,43.2 -59,19.4 -9.3,-15.3 2,-30.7 15.9,-30.4 13.4,0.2 20.2,9.5 17.8,17.1 -2,6.7 -15.1,10.4 -19.1,4.1 -2.6,-4.1 1.7,-11 8.9,-7.8"/>
  <path style="fill:none;" d="m 408.2,339 -3.3,2.2 m -3.6,-8 -6.8,2.8 m 3.7,-10.2 c -5.3,1.4 -8.9,2.4 -13.1,2.5 m 19.8,-71.5 2.5,-17.4 m 22.3,64.5 c -0.1,-13.3 8.7,-17.6 14.6,-21.5 m -23.4,19.4 c 0,-9.6 -1.7,-18.9 3.1,-29.2 m -9.2,29.5 c -3.7,-9.8 -7.1,-19.7 -5.8,-29.5 m 0.3,31.3 c -4.1,-8.8 -8.9,-15.6 -11.5,-27.8 m 7.9,29.8 c -6.4,-7 -13.5,-13.5 -16.5,-23.5 m 13.3,26.8 c -7.5,-4.9 -13.3,-10.4 -20.7,-19.8 m 18.7,24.5 c -9,-3.7 -18,-8.1 -27.1,-17.6 m 25.4,22.6 c -13.9,-2.7 -18.5,-4.9 -27.8,-11.3 m -60.7,18.2 c -19.3,-11.5 -41.6,-20.7 -55.6,-36.2 m 120.7,53.8 c -20.2,-2.5 -42,-2.9 -56,-12.9 m 27.8,-130.8 -8.2,-5.4 m 138.2,138.9 -5.5,-1.1 m -7,-1.6 -6.9,-2.8 m 11.3,-13 -6.6,-0.5 m 25.1,-0.5 -6.1,1.3 m -17,-16.8 10.7,-2.7 m 9.6,-3.9 c 4.7,-1.2 8.9,-2.4 11.3,-4.9 m -16.5,-25.8 c 4.1,-1.5 8.1,-4.1 12.1,-9.3 m -26.7,-15.5 c 2.2,-4 4.4,-5.4 6.7,-14.9 m -17,51.9 11.5,-3.1 m -25.6,-9.6 c 5.6,-2.8 10.5,-7.2 15.4,-12.2 m -31.6,8.5 c 9.6,-11.6 15.6,-23.1 20.8,-34.7 m -57.4,36.6 -0.2,-15.5 m -13,22.2 -6.3,-15.1 m -5.6,26.5 c -10.8,-8.6 -16.4,-16 -38.7,-27.3 m 31.4,53.3 c -21.3,-5.5 -37.4,-13.4 -52.8,-21.8 m -12.2,-6.1 -11.6,-7.3 m 137.6,-44.2 c 5.3,-10.5 11.3,-20.8 13.2,-32 m -28.6,31.4 c -0.7,-12.9 -1.2,-25.5 -9.5,-39.8 m -6.4,43.6 c -5.8,-13.8 -15.3,-25.4 -30,-34 m 3.9,38.1 c -12.6,-9.5 -23.2,-19.9 -43.7,-18.8"/>
  <path d="m 82.27,237.8 c -4.58,-24.1 -12.58,-70.4 -12.01,-72.9 2.63,-3.8 3.32,-4.7 2.52,-7.6 -1.95,-6.3 -12.58,-6.5 -14.18,1 -1.15,5.6 4.34,8.9 4.57,15 1.83,19.6 6.52,42.7 8.81,63.3"/>
  <path d="m 63.06,237.7 c -6.62,-3.3 -13.43,-6 -20.7,-7.2 -4.1,-1.5 -7.05,4.8 -1.45,6.8 8.35,2.6 16.66,6.2 25,9.8"/>
</g>
<use id="shine" style="fill:url(#rg);stroke:#000000;stroke-width:3;" xlink:href="#shield" />
</svg>
