<?xml version="1.0" encoding="UTF-8"?>
<svg xmlns="http://www.w3.org/2000/svg" xmlns:xlink="http://www.w3.org/1999/xlink" width="600" height="660">
<defs>
  <linearGradient id="rainbow" x1="10%" x2="0%" y1="100%" y2="0%">
    <stop style="stop-color:#c00;" offset="0"/>
    <stop style="stop-color:#f60;" offset="0.166"/>
    <stop style="stop-color:#ff0;" offset="0.333"/>
    <stop style="stop-color:#080;" offset="0.5"/>
    <stop style="stop-color:#0af;" offset="0.666"/>
    <stop style="stop-color:#008;" offset="0.833"/>
    <stop style="stop-color:#808;" offset="1"/>
  </linearGradient>
  <radialGradient id="rg" gradientUnits="userSpaceOnUse" cx="220" cy="220" r="405">
    <stop style="stop-color:#fff;stop-opacity:.3" offset="0"/>
    <stop style="stop-color:#fff;stop-opacity:.2" offset=".2"/>
    <stop style="stop-color:#666;stop-opacity:.1" offset=".6"/>
    <stop style="stop-color:#000;stop-opacity:.13" offset="1"/>
  </radialGradient>
  <path id="shield" d="m2,2v257c0,286 298,398 298,398c0,0 298-112 298-398V2z"/>
</defs>
<use id="background" xlink:href="#shield" fill="#000"/>
  <path fill="#841" stroke="#000" stroke-width="3" d="m 289.21603,603.59366 c 7.13938,29.08173 16.17593,29.08173 22.96583,0 6.7899,-29.08172 8.88678,-64.87845 1.39792,-93.96017 -7.48886,-29.08172 -19.67073,-29.08172 -27.15958,0 -7.48886,29.08172 -4.34354,64.87845 2.79583,93.96017 z" />
  <path fill="url(#rainbow)" d="m 277.17796,501.68334 45.64407,0 -6.61248,-425.246622 -16.20956,-36.760299 -16.20955,36.760299 -6.61248,425.246622 z"/>
  <path fill="#000" d="m 297.78614,497.84567 1.64821,-404.498107 4.96428,404.498107 -6.61249,0 z"/>
  <path fill="#000" d="m 292.34152,617.91296 c -0.27215,-0.65948 -0.53838,-1.31001 -0.78633,-1.96582 l 21.90802,-12.75602 c -0.21852,0.93494 -0.44792,1.86417 -0.67712,2.79584 l -20.44457,11.926 z m -3.84428,-11.75126 c -0.18469,-0.69729 -0.36737,-1.39771 -0.54606,-2.09688 l 28.65735,-16.70951 c -0.14872,0.90492 -0.29954,1.80559 -0.45869,2.70847 l -27.6526,16.09792 z m -2.90505,-12.27548 c -0.15167,-0.7204 -0.31361,-1.4405 -0.4587,-2.16241 L 318.5962,572.2403 c -0.0836,0.86108 -0.16865,1.71735 -0.26211,2.57742 l -32.7419,19.0685 z m -2.31531,-12.64681 c -0.11351,-0.73485 -0.22119,-1.47014 -0.32764,-2.20609 l 36.58619,-21.31828 c -0.0249,0.82178 -0.0531,1.64666 -0.0874,2.4682 l -36.17118,21.05617 z m -1.61634,-13.03997 c -0.0727,-0.75849 -0.15356,-1.51245 -0.21843,-2.27162 l 38.04963,-22.17013 c 0.0296,0.79513 0.0453,1.58529 0.0655,2.38083 l -37.89673,22.06092 z m -0.89555,-13.45498 c -0.0266,-0.79125 -0.0478,-1.58937 -0.0655,-2.38083 l 37.83121,-22.03908 c 0.0809,0.76185 0.14661,1.53069 0.21842,2.29346 l -37.9841,22.12645 z m 0,-13.97919 c 0.028,-0.82318 0.0493,-1.64541 0.0874,-2.46821 l 35.8217,-20.85958 c 0.0561,0.25283 0.11819,0.51306 0.17474,0.76449 0.0823,0.47495 0.16179,0.94424 0.24027,1.41976 l -36.32408,21.14354 z m 1.0266,-14.56895 c 0.13112,-0.87583 0.25875,-1.75976 0.39317,-2.64294 l 31.58425,-18.41323 c 0.19826,0.69744 0.38624,1.39393 0.5679,2.09688 l -32.54532,18.95929 z" />
  <rect fill="#aaa" stroke="#000" stroke-width="3" y="495" x="243.43008" height="15" width="113.13983"/>
  <path fill="#aaa" stroke="#000" stroke-width="3" d="m 320.12259,614.29823 a 20.1226,20.1226 0 1 0 -40.2452,0 20.1226,20.1226 0 1 0 40.2452,0 z"/>
  <path fill="#aaa" stroke="#000" stroke-width="3" d="m 308.49295,614.29821 a 8.4929881,8.4929881 0 1 0 -16.98597,0 8.4929881,8.4929881 0 1 0 16.98597,0 z"/>
<use id="shine" xlink:href="#shield" fill="url(#rg)" stroke="#000" stroke-width="3"/>
</svg>
