<?xml version="1.0" encoding="UTF-8"?>
<svg xmlns="http://www.w3.org/2000/svg" xmlns:xlink="http://www.w3.org/1999/xlink" width="600" height="660">
<defs>
  <radialGradient id="rg" gradientUnits="userSpaceOnUse" cx="220" cy="220" r="405">
    <stop style="stop-color:#fff;stop-opacity:.3" offset="0"/>
    <stop style="stop-color:#fff;stop-opacity:.2" offset=".2"/>
    <stop style="stop-color:#666;stop-opacity:.1" offset=".6"/>
    <stop style="stop-color:#000;stop-opacity:.13" offset="1"/>
  </radialGradient>
  <clipPath id="clip-shield">
    <path id="shield" d="m2,2v257c0,286 298,398 298,398c0,0 298-112 298-398V2z"/>
  </clipPath>
</defs>
<g id="field" clip-path="url(#clip-shield)">
  <rect style="fill:#ffcc00" x="0" y="0" width="600" height="660"/>
  <path style="fill:none;stroke:#ffffff;stroke-width:200;" d="m 300,0 v 660"/>
  <path style="fill:none;stroke:#002255;stroke-width:134;" d="m 300,0 v 660"/>
</g>
<g id="hourglass" style="fill:#552200;stroke:#311300;stroke-width:1;stroke-linecap:round;stroke-linejoin:round;">
  <path style="fill:#aaeeff;stroke:#004455;" d="m 234.85687,85.753076 c -19.50162,22.430114 -27.84335,47.062104 -27.86734,67.439284 -0.0623,52.87126 47.41035,88.71055 77.20084,116.85819 1.57138,1.48472 1.84562,17.04751 0,18.79398 -29.76916,28.1702 -77.26311,63.98695 -77.20084,116.85818 0.024,20.37721 8.36572,45.00918 27.86734,67.43928 h 130.28626 c 19.50163,-22.4301 27.84335,-47.06207 27.86734,-67.43928 0.0622,-52.87123 -47.41787,-88.70261 -77.20084,-116.85818 -1.86103,-1.75934 -1.86877,-17.02544 0,-18.79398 29.76802,-28.17138 77.26311,-63.98693 77.20084,-116.85819 -0.024,-20.37717 -8.36571,-45.00917 -27.86734,-67.439284 z"/>
  <path style="fill:#cd7f32;stroke:#552200;" d="m 247.28161,223.87099 c 8.00663,-10.96252 21.12268,-10.11708 32.13535,-7.78508 11.39536,2.41304 17.14567,9.44938 28.88181,8.32451 16.54961,-1.58622 31.05472,-16.41842 49.25684,-15.20124 -2.40826,21.79339 -33.9927,41.26452 -47.16231,56.92637 -9.63898,11.46309 -9.55296,47.8766 -5.6221,80.28277 5.60449,46.20361 34.03626,48.17911 77.78565,59.6621 4.10462,20.85954 -11.29719,63.55587 -39.52156,61.47587 -76.0287,-5.60298 -92.91293,6.87815 -107.74024,-6.03784 -9.1248,-7.94854 -19.082,-25.37612 -17.72545,-38.11321 43.9211,-34.55233 74.97873,-26.22265 80.3495,-85.76838 2.54989,-28.27069 3.52668,-62.42896 -16.31074,-82.67591 -16.2445,-16.57983 -25.5439,-15.37222 -34.32675,-31.08996 z"/>
  <path d="m 399.68649,81.104958 h 9.52217 v 396.685272 h -9.52217 z m -208.89518,0 h 9.52217 v 396.685272 h -9.52217 z"/>
  <path d="m 184.11475,473.14199 h 231.77084 v 26.29342 h -231.77084 z"/>
  <path d="m 166.00929,490.8084 c -10.11951,6.75221 -19.88522,12.5504 -34.84992,15.86443 v 9.33484 h 337.68142 v -9.33484 c -14.96472,-3.31403 -24.73044,-9.11222 -34.84993,-15.86443 z"/>
  <path d="m 131.15937,506.67283 h 337.68142"/>
  <path d="m 184.11475,85.753076 h 231.77084 v -26.293329 h -231.77084 z"/>
  <path d="m 166.00929,68.086747 c -10.11951,-6.752214 -19.88522,-12.550396 -34.84992,-15.864431 v -9.334844 h 337.68142 v 9.334844 c -14.96472,3.314035 -24.73044,9.112217 -34.84993,15.864431 z"/>
  <path d="m 131.15937,52.222316 h 337.68142"/>
</g>
<use id="shine" xlink:href="#shield" fill="url(#rg)" stroke="#000" stroke-width="3"/>
</svg>
